<?xml version="1.0"?>
<svg xmlns="http://www.w3.org/2000/svg" version="1.2" baseProfile="tiny" width="800" height="1032" viewBox="0 0 800 1032" stroke-linecap="round" stroke-linejoin="round">
<g id="ne_10m_admin_1_states_provinces">
<path d="M 627.44 906.99 627.43 907 586.14 934.86 511.29 1009.43 483.71 1012.71 461.29 1012.43 439.57 1016.14 415.57 1031 381 973 316.14 936.71 237.29 918.57 190.45 915.29 299.17 858.94 300.71 858.76 300.25 854.04 294.99 830.82 496.38 756.25 529.22 766.23 534.39 771.31 540.37 780.74 546.09 819.02 547.09 821.75 567.68 856.22 572.12 866.01 572.03 867.47 575.39 870.01 581.29 871.82 601.33 879.44 610.32 883.79 627.44 906.99 Z" id="BRB-1989" data-name="Christ Church"/>
<path d="M 381.56 354.72 381.44 354.75 373.28 356.56 328.92 377.06 318.31 379.79 313.95 377.79 312.95 376.88 311.77 375.07 310.87 374.34 309.96 373.8 308.69 373.62 307.24 373.8 305.24 374.34 294.27 391.58 258.07 473.95 242.02 453.26 229.5 448.73 187.68 451.09 170.08 360.74 172.17 242.26 176.79 233.19 180.15 217.95 182.23 217.23 183.41 216.5 184.41 216.14 185.32 216.5 186.41 216.86 187.5 217.95 189.67 219.04 192.12 219.95 195.03 220.85 196.75 220.85 198.56 220.31 200.01 219.95 201.65 219.77 204.37 220.13 205.37 220.13 206.55 219.95 207.45 219.77 208.72 220.13 210.72 221.58 215.98 221.04 224.33 217.77 239.29 203.62 247.28 199.08 252.36 197.63 254.08 198.54 255.89 199.08 257.16 199.26 258.34 200.17 259.98 200.35 262.06 200.17 267.87 195.09 268.59 195.09 268.96 195.45 273.86 196.54 294.27 195.82 300.26 193.67 300.29 193.71 367.57 335.86 381.56 354.72 Z" id="BRB-1990" data-name="Saint Andrew"/>
<path d="M 511.8 698.92 496.38 756.25 294.99 830.82 236.57 644.31 319.39 612.38 326.47 608.2 351.78 578.45 398.86 570.1 401.22 569.92 474.88 636.33 481.86 643.95 511.8 698.92 Z" id="BRB-1991" data-name="Saint George"/>
<path d="M 170.08 360.74 187.68 451.09 168.72 475.94 163.55 480.84 163 480.48 162.28 480.3 161.91 480.48 161.19 481.2 160.28 481.93 159.74 482.11 158.65 481.93 158.1 481.93 157.2 481.75 155.93 481.75 155.11 481.93 154.29 482.47 151.94 483.93 151.39 484.29 150.21 484.83 149.67 485.01 149.12 485.01 145.31 488.28 144.04 489.01 143.23 489.37 142.59 489.37 142.05 489.73 140.69 489.73 139.96 489.73 139.33 489.91 137.69 491 131.16 493.36 129.08 499.53 119.82 539.08 114.92 550.69 111.3 557.59 107.67 558.67 106.4 559.58 105.49 560.85 104.22 564.12 103.49 565.93 102.5 566.66 104.22 568.47 108.76 571.01 131.98 596.77 152.39 683.13 115.11 711.44 112.02 714.7 105.67 719.42 88.35 726.86 81.18 731.03 81 731.76 76.64 729.22 58.68 712.71 48.98 713.43 48.74 713.45 29.57 647.57 12.93 372.14 13.05 372.17 35.1 377.79 93.97 350.76 170.08 360.74 Z" id="BRB-1992" data-name="Saint James"/>
<path d="M 655.86 555.76 655.85 555.77 650.5 564.12 612.04 609.84 607.5 614.19 583.83 628.71 558.7 638.5 511.8 698.92 481.86 643.95 474.88 636.33 401.22 569.92 404.48 514.95 405.3 510.05 407.02 503.52 410.11 503.52 411.56 503.34 413.1 502.98 470.71 450.54 479.01 447.01 571.14 515.71 624.29 545.71 655.86 555.76 Z" id="BRB-1993" data-name="Saint John"/>
<path d="M 479.01 447.01 470.71 450.54 413.1 502.98 411.56 503.34 410.11 503.52 407.02 503.52 405.3 510.05 404.48 514.95 401.22 569.92 398.86 570.1 351.78 578.45 321.93 519.67 312.5 508.6 307.6 504.25 258.07 473.95 294.27 391.58 305.24 374.34 307.24 373.8 308.69 373.62 309.96 373.8 310.87 374.34 311.77 375.07 312.95 376.88 313.95 377.79 318.31 379.79 328.92 377.06 373.28 356.56 381.44 354.75 381.56 354.72 413.86 398.29 479 447 479.01 447.01 Z" id="BRB-1994" data-name="Saint Joseph"/>
<path d="M 275.85 141.99 272.68 143.93 84.26 203.8 19.31 246.25 5.61 249.16 5.51 249.18 1 174.57 8 120.14 32.86 74.14 82.71 24.14 146.14 1 210.71 35.29 259 106.43 275.85 141.99 Z" id="BRB-1995" data-name="Saint Lucy"/>
<path d="M 294.99 830.82 300.25 854.04 300.71 858.76 299.17 858.94 190.45 915.29 190.43 915.29 162.71 913.43 115.57 880.71 75 803.71 48.74 713.45 48.98 713.43 58.68 712.71 76.64 729.22 81 731.76 81.18 731.03 88.35 726.86 105.67 719.42 112.02 714.7 115.11 711.44 152.39 683.13 208.63 671.89 213.62 669.71 236.57 644.31 294.99 830.82 Z" id="BRB-1996" data-name="Saint Michael"/>
<path d="M 300.26 193.67 294.27 195.82 273.86 196.54 268.96 195.45 268.59 195.09 267.87 195.09 262.06 200.17 259.98 200.35 258.34 200.17 257.16 199.26 255.89 199.08 254.08 198.54 252.36 197.63 247.28 199.08 239.29 203.62 224.33 217.77 215.98 221.04 210.72 221.58 208.72 220.13 207.45 219.77 206.55 219.95 205.37 220.13 204.37 220.13 201.65 219.77 200.01 219.95 198.56 220.31 196.75 220.85 195.03 220.85 192.12 219.95 189.67 219.04 187.5 217.95 186.41 216.86 185.32 216.5 184.41 216.14 183.41 216.5 182.23 217.23 180.15 217.95 176.79 233.19 172.17 242.26 170.08 360.74 93.97 350.76 35.1 377.79 13.05 372.17 12.93 372.14 5.51 249.18 5.61 249.16 19.31 246.25 84.26 203.8 272.68 143.93 275.85 141.99 275.86 142 300.26 193.67 Z" id="BRB-1997" data-name="Saint Peter"/>
<path d="M 627.44 906.99 610.32 883.79 601.33 879.44 581.29 871.82 575.39 870.01 572.03 867.47 572.12 866.01 567.68 856.22 547.09 821.75 546.09 819.02 540.37 780.74 534.39 771.31 529.22 766.23 496.38 756.25 511.8 698.92 558.7 638.5 583.83 628.71 607.5 614.19 612.04 609.84 650.5 564.12 655.85 555.77 655.86 555.76 693 567.57 757.86 596.71 799 647.57 788 768.57 697.86 859.43 627.44 906.99 Z" id="BRB-1998" data-name="Saint Philip"/>
<path d="M 258.07 473.95 307.6 504.25 312.5 508.6 321.93 519.67 351.78 578.45 326.47 608.2 319.39 612.38 236.57 644.31 213.62 669.71 208.63 671.89 152.39 683.13 131.98 596.77 108.76 571.01 104.22 568.47 102.5 566.66 103.49 565.93 104.22 564.12 105.49 560.85 106.4 559.58 107.67 558.67 111.3 557.59 114.92 550.69 119.82 539.08 129.08 499.53 131.16 493.36 137.69 491 139.33 489.91 139.96 489.73 140.69 489.73 142.05 489.73 142.59 489.37 143.23 489.37 144.04 489.01 145.31 488.28 149.12 485.01 149.67 485.01 150.21 484.83 151.39 484.29 151.94 483.93 154.29 482.47 155.11 481.93 155.93 481.75 157.2 481.75 158.1 481.93 158.65 481.93 159.74 482.11 160.28 481.93 161.19 481.2 161.91 480.48 162.28 480.3 163 480.48 163.55 480.84 168.72 475.94 187.68 451.09 229.5 448.73 242.02 453.26 258.07 473.95 Z" id="BRB-1999" data-name="Saint Thomas"/>
</g>
</svg>