<?xml version="1.0"?>
<svg xmlns="http://www.w3.org/2000/svg" version="1.2" baseProfile="tiny" width="800" height="264" viewBox="0 0 800 264" stroke-linecap="round" stroke-linejoin="round">
<g id="ne_10m_admin_1_states_provinces">
<path d="M 90.58 86.05 89.33 86.06 86.89 85.68 84.39 86.03 76.92 88.34 74.27 88.68 74.19 88.98 74.26 89.19 74.44 89.42 74.74 89.63 76.42 90.12 76.88 90.4 77.21 90.84 78.12 92.71 78.24 93.2 78.12 93.56 77.13 94.54 76.84 95.12 76.77 95.71 76.91 96.46 77.15 97.15 77.7 99.29 77.78 99.88 77.86 100.23 78.04 100.65 78.45 100.94 79.68 101.54 80.09 101.81 80.82 102.38 81.08 102.64 81.36 103.07 82.3 105.42 84.4 109.53 85.08 110.41 85.58 110.8 86.12 111.32 86.55 111.96 88.23 115.41 88.38 115.91 88.43 116.54 88.39 117.02 88.18 117.46 88.01 117.76 87.91 118.13 87.98 118.58 88.61 119.32 91.98 122.16 93.6 123.83 93.52 124.63 92.36 126.67 92.16 127.23 92.06 127.78 92.08 128.28 92.34 128.86 92.89 129.53 94 130.16 94.75 130.49 95.7 130.77 97.74 131.73 100.26 133.34 102.04 135.08 104.05 135.98 103.98 136.58 103.85 137.05 103.26 137.44 102.8 137.59 99.17 137.25 96.09 137.51 95.67 137.38 94.95 137.03 94.49 137.12 94.16 137.33 93.88 137.72 93.38 138.64 92.96 138.99 92.31 139.15 91.53 139.03 90.73 138.63 90.15 138.12 89.19 137.02 88.63 136.68 87.91 136.67 87.18 136.74 86.39 136.71 84.78 136.21 82.91 135.92 82.32 135.93 82.36 135.6 82.09 134.68 81.35 133.84 80.47 133.23 80.12 132.87 79.98 132.36 80.05 132.17 80.34 131.79 80.39 131.6 80.3 131.34 80.13 131.2 79.93 131.08 79.74 130.91 79.5 130.45 79.33 130.02 79.12 129.61 78.74 129.22 78.24 128.9 77.71 128.68 77.15 128.56 76.56 128.58 75.58 128.44 74.83 127.87 68.79 120.58 68.73 120.39 68.79 120.21 68.95 120.05 69.21 119.68 69.32 119.26 69.25 118.86 68.95 118.54 68.28 118.22 68.12 117.56 68.17 116.76 68.11 116.01 67.76 115.67 66.95 115.22 66.63 114.88 65.9 113.64 65.56 113.29 65.29 112.78 65.54 112.44 65.84 112.17 65.72 111.9 65.19 111.61 64.66 111.41 62.37 110.98 61.22 110.63 60.14 110.13 59.22 109.48 58.92 109.14 58.62 108.65 58.46 108.13 58.55 107.68 58.76 107.14 58.65 106.69 58.27 106.42 57.23 106.4 56.25 106.2 55.84 106.33 55.65 106.64 55.62 106.97 55.54 107.3 55.21 107.6 54.41 107.79 51.8 107.94 51 107.79 50.72 107.5 50.5 106.79 50.3 106.46 49.9 106.19 49.03 106.06 48.61 105.92 48.33 105.6 48.14 105.18 47.92 104.82 47.58 104.68 47.16 104.61 46.83 104.37 46.64 104.03 46.65 103.61 46.55 102.93 45.8 102.66 44.85 102.69 44.15 102.86 42.91 102.9 42.51 102.86 41.52 102.49 41.15 102.47 40.65 102.63 39.45 103.29 39.02 103.6 38.41 103.92 37.79 104 36.51 103.83 34.21 103.82 33.5 103.61 33.5 103.61 33.49 103.61 30.68 101.03 30.3 100.81 29.61 100.68 28.18 100.82 27.53 100.81 26.79 100.44 25.15 99.31 24.44 99.14 23.81 99.19 23.33 99.07 22.34 98.53 21.96 98.17 21.78 97.74 21.67 97.25 21.48 96.78 21.42 96.29 21.77 95.36 21.57 94.93 20.02 93.7 19.44 93.51 18.94 93.56 18.46 93.67 17.89 93.66 17.07 93.3 15.79 92.17 15.12 91.8 13.4 91.2 12.96 91.15 12.11 91.21 11.67 91.19 11.23 91.05 10.43 90.62 9.74 90.38 9.34 90.07 9.11 89.97 8.84 89.96 8.26 90.05 7.97 90.04 7.13 89.73 6.36 89.17 6.14 88.56 6.95 88.14 7.3 87.95 7.5 87.68 7.64 87.41 7.81 87.23 8.92 86.73 9.14 86.5 9.03 85.87 8.39 85.35 6.95 84.68 6.38 84.55 5.26 84.61 3.63 84.1 3.12 83.88 2.74 83.57 2.65 83.35 2.61 82.84 2.5 82.6 2.28 82.43 2.02 82.32 1.47 82.17 1.05 81.87 1 81.44 1.2 80.98 1.53 80.6 3.48 79.97 4.4 79.42 4.39 78.53 4.01 78.24 3.53 78.12 3.14 77.92 2.99 77.37 3.12 76.85 3.33 76.5 3.48 76.13 3.4 75.56 3.04 74.81 3 74.51 3.51 74.66 3.96 74.69 6.48 74.44 6.95 74.27 7.38 73.87 8.29 73.28 10.25 72.49 11.13 71.91 11.24 71.27 10.76 70.54 10.42 69.78 10.92 69.05 11.17 68.78 11.57 67.96 11.89 67.62 12.52 67.36 16.95 66.83 17.53 66.83 18.75 67.09 19.35 67.13 20.92 67.06 21.39 66.94 22.43 66.5 22.79 66.4 22.83 66.4 23.27 66.44 23.65 66.63 24.29 67.22 24.81 67.54 25.4 67.64 29.15 67.81 29.27 67.67 28.76 66.87 28.79 65.94 28.86 65.55 29.09 65.28 29.61 65.19 30.09 65.33 30.35 65.65 30.55 66.04 30.81 66.4 31.06 66.65 31.24 66.92 31.43 67.16 31.75 67.32 32.71 67.2 36.35 66.16 37.2 65.69 37.71 65.1 37.36 64.47 36.78 63.78 37.01 63.2 37.73 62.89 38.62 63.02 40.07 63.92 40.78 64.22 41.59 64.2 42.23 63.77 42.74 63.15 43.31 62.66 44.15 62.67 45.27 62.18 47.65 61.63 49.28 61.06 49.78 60.77 50.04 60.39 49.76 59.95 49.32 59.75 48.21 59.39 47.9 59.08 47.92 58.86 48.28 58.58 48.32 58.32 48.21 58.17 47.77 57.92 47.62 57.74 47.62 57.43 47.77 56.47 47.84 56.24 48.07 56.11 48.92 55.63 50.24 55.32 53.85 55.24 55.19 55.04 56.41 54.64 57.07 54 57.09 53.73 57.68 53.92 59.02 54.45 59.29 54.61 59.44 54.74 59.59 54.9 60.22 55.97 60.93 57.52 61.17 58.28 61.2 58.44 61.22 59.04 61.25 59.2 61.34 59.51 61.49 59.73 63.12 61.43 63.48 61.98 63.91 63.18 63.98 63.32 64.17 63.56 64.33 63.82 64.46 64.09 64.62 64.35 64.78 64.5 65.01 64.67 65.69 65.09 70.27 66.59 72.93 68.03 73.22 68.43 73.43 68.83 73.31 69.08 73.26 69.24 73.31 69.43 73.35 69.53 73.49 69.79 73.9 70.4 74 70.51 74.11 70.6 74.76 70.82 76.22 70.86 78.68 71.08 79.3 71.14 79.47 71.22 79.61 71.36 79.71 71.63 79.82 72.33 79.82 72.47 79.79 72.61 79.72 72.87 79.7 73.01 79.71 73.15 79.73 73.3 79.81 73.49 79.97 73.7 81.53 75.31 81.72 75.45 81.95 75.56 82.03 75.66 82.61 76.75 84.08 78.95 84.48 79.18 85.08 79.45 86.9 79.85 87.21 79.97 87.39 80.08 87.58 80.25 88.17 80.89 88.93 81.41 89.18 81.62 89.31 81.77 89.66 82.33 90.47 84.36 90.59 84.55 90.68 84.74 90.72 84.94 90.56 85.55 90.58 86.05 Z" id="MNG-3208" data-name="Bayan-Ölgiy"/>
<path d="M 583.79 147.34 592.97 150.26 593.42 150.63 593.7 151.09 594.07 152.07 596.32 155.48 596.84 156.63 597.19 157.89 596.75 164.46 596.78 165.24 596.92 165.42 597.3 165.73 597.97 166.02 598.78 166.53 599.06 167.14 599.33 168.69 599.78 169.2 600.35 169.55 601 169.87 601.52 170.2 602.15 170.78 602.39 171.25 602.46 171.8 602.35 173.02 602.35 174.14 602.48 175.57 602.49 175.68 602.49 175.69 602.21 175.69 601.83 175.75 601.58 175.92 601.34 176.14 601.05 176.34 600.54 176.5 599.47 176.7 598.98 176.87 597.57 177.63 596.93 178.11 596.38 178.68 591.74 185.46 591.48 186.08 591.46 186.47 591.57 187.32 591.55 187.74 591.41 188.18 591.21 188.5 590.69 189.09 590.06 190.09 589.8 190.37 589.74 190.42 589.15 190.85 588.58 191.54 588.14 192.32 587.91 193.04 587.9 194.05 588.25 194.56 589.8 195.24 590.23 195.64 590.42 196.09 590.56 197.05 590.95 197.97 591.55 198.76 593.8 201.02 594.64 201.63 597.43 202.99 598.19 203.54 598.87 204.17 601.15 207.11 601.49 207.95 601.58 208.68 601.51 209.5 601.22 210.18 600.65 210.47 600.22 210.52 599.04 210.91 597.23 210.85 596.76 211.01 592.88 214.47 592.15 214.99 591.34 215.28 588.7 215.45 588.02 215.66 586.46 216.59 580.45 218.36 577.4 219.63 576.42 220.32 573.03 223.76 570.13 226.03 569.77 226.53 569.16 227.76 568.34 228.83 567.32 229.68 565 231.06 564.41 231.49 563.8 232.78 563.35 233.2 556.73 235.33 555.88 235.72 555.57 235.94 555.35 236.14 555.12 236.3 554.75 236.43 554.32 236.49 552.94 236.47 551.09 236.66 545.01 238.64 541.31 240.67 541.11 240.73 540.98 240.73 540.86 240.77 540.7 240.97 540.61 241.07 540.49 241.12 536.6 241.34 535.41 241.64 534.74 241.7 528.32 241.11 527.49 241.16 525.05 242.12 524.2 242.34 523.42 242.38 516.96 241.47 511.58 241.53 509.47 241.1 508.05 240.99 504.88 241.37 504.88 241.36 504.1 229.5 504.17 228.9 504.53 227.84 504.81 226.68 504.96 225.56 504.95 224.6 504.83 223.64 503.61 218.89 503.33 216.62 503.25 213.64 503.07 209.91 497.89 198.47 495.68 195.27 495.46 194.72 495.35 194.28 495.41 193.53 496.41 189.97 497.71 189.29 498.07 188.83 498.45 188.09 499.16 184.06 499.52 183.12 499.99 182.66 500.61 182.46 502.48 182.34 511.28 181.54 513.7 180.5 514.85 178.89 515.62 178.03 516.55 177.53 516.98 177.43 517.38 177.4 518.34 177.42 518.87 177.3 519.08 177.02 519.07 176.49 518.54 175.14 516.72 167.1 516.24 162.04 516.34 160.2 516.94 157.68 518.34 154.71 517.41 154.67 514.04 155.51 513.33 155.27 512.65 154.76 511.75 153.65 511.43 153.33 511.15 152.98 510.9 152.12 511 151.37 511.7 147.66 511.78 146 511.71 145.5 511.47 144.76 510.86 143.56 509.9 142.52 505.96 139.61 505.53 139.17 505.47 138.83 505.7 138.47 506.26 138 508.66 136.58 508.89 136.37 507.66 136.25 505.95 136.24 504.93 136.07 504.16 135.85 503.48 135.4 502.95 134.92 502.58 133.83 503.71 133.38 504.9 133.14 506.51 132.93 508.7 132.92 512.51 133.43 515.55 133.69 519.5 132.4 521.28 131.7 522.15 131.12 522.47 130.84 524.19 127.95 527.2 128.88 527.66 129.86 527.77 130.24 527.84 130.75 527.72 132.52 527.79 132.69 528.05 132.87 528.27 132.82 528.44 132.74 529.31 131.83 529.75 131.53 530.18 131.39 530.62 131.47 530.98 131.82 531.23 132.49 531.37 133.2 531.41 133.87 531.35 134.38 531.17 135.02 530.74 135.82 528.89 138.21 528.65 138.71 528.5 139.24 528.46 139.55 528.46 140.03 528.5 140.26 528.67 140.68 528.79 140.89 529.59 142.04 531.87 143.62 532.5 144.41 533.33 145.82 533.86 146.37 534.51 146.84 538.18 148.61 540.67 148.82 546.85 148.36 547.92 148.09 549.12 147.58 553 145.34 553.19 145.13 553.97 143.88 554.93 141.6 555.02 141.15 555.01 140.69 554.32 138.41 554.34 137.65 554.62 137.36 555.64 137.27 557.09 137.33 557.69 137.57 558.37 138.06 559.1 139.01 560.48 140.5 564.53 143.4 565.02 143.92 565.49 144.65 566.18 146.14 566.96 147.08 569.13 148.53 574.31 150.74 575.97 151.18 577.37 151.2 579.06 150.37 583.79 147.34 Z" id="MNG-3297" data-name="Dornogovi"/>
<path d="M 496.41 189.97 495.41 193.53 495.35 194.28 495.46 194.72 495.68 195.27 497.89 198.47 503.07 209.91 503.25 213.64 503.33 216.62 503.61 218.89 504.83 223.64 504.95 224.6 504.96 225.56 504.81 226.68 504.53 227.84 504.17 228.9 504.1 229.5 504.88 241.36 504.88 241.37 494.28 242.63 483.68 243.89 473.09 245.15 461.93 248.79 450.78 252.42 440.99 256.22 439.23 256.94 438.12 257.57 437.78 257.69 437.32 257.8 436.04 258.33 434.65 258.5 434.22 258.62 429.6 262.28 428.59 262.53 427.63 261.63 427.09 261.23 426.57 261.07 419.34 261.06 416.96 260.78 416.78 260.55 416.85 255.47 407.18 256.9 397.51 258.32 396.78 258.23 389.5 255.33 382.23 252.42 382.22 252.42 382.22 252.42 381.45 252.15 372.86 250.66 364.26 249.17 355.67 247.68 354.18 247.1 352.01 245.37 348.26 240.82 345.83 239.48 343.04 238.93 340.21 238.75 335.44 239.12 325.51 237.91 315.57 236.69 305.63 235.48 304.51 235.49 295.83 237.44 295.83 237.44 293.27 222.47 292.08 201.88 292.16 200.33 292.26 200 292.49 199.83 299.95 198.4 300.31 198.38 300.63 198.43 300.97 198.61 305.21 201.4 307.97 204.1 311.61 206.76 313.32 207.21 315.54 206.88 334.64 207.09 335.23 207.03 336.43 206.71 348.74 201.25 350.67 200.64 357.9 198.98 370.39 198.28 379.62 198.83 379.67 198.41 379.46 197.76 377.92 194.72 377.9 193.92 378.22 193.22 379.44 192.44 379.81 192.04 380.26 191.34 380.68 190.13 381.05 189.33 385.34 182.71 386.06 181.77 391.17 179.8 395.4 177.5 396.11 176.93 396.65 176.39 398.38 174.01 398.62 173.57 398.77 173.18 406.93 173.29 407.44 173.81 407.57 173.99 407.59 174.1 407.59 174.24 407.52 174.7 407.52 175.02 407.6 175.98 407.6 176.14 407.57 176.28 407.51 176.41 407.29 176.77 407.25 176.91 407.22 177.06 407.21 177.22 407.23 177.38 407.31 177.65 407.41 177.87 407.46 178.06 407.46 178.35 407.34 178.94 407.23 179.22 407.2 179.4 407.21 179.67 408.23 181.14 408.82 181.68 409.46 182.06 411.28 182.47 422.31 183.73 432.52 184.51 439.59 185.01 441.07 185.28 441.56 185.52 444.7 189.64 446.35 191.28 447.05 192.29 447.36 192.9 447.34 193.38 447.37 193.91 447.72 194.54 448.16 195.06 450.14 196.22 452.06 197.02 453.97 197.63 454.71 197.76 462.47 196.89 464.67 196.62 465.81 196.38 467.64 195.8 469.81 194.52 471.57 193.87 485.79 190.36 486.51 190.34 487.64 190.47 489.44 191.1 489.92 191.14 492.39 190.9 496.41 189.97 Z" id="MNG-3298" data-name="Ömnögovi"/>
<path d="M 619.94 108.14 618.12 108.37 617.95 108.41 617.34 108.68 616.98 108.77 615.71 108.85 608.09 110.82 606.67 111.48 606.15 111.81 605.71 112.17 605.35 112.53 605.1 112.87 604.91 113.24 604.77 113.64 604.66 114.14 604.5 115.37 604.48 116.15 604.64 117.29 605.11 118.76 602.15 118.63 599 118.21 598.54 118.22 598.14 118.29 597.06 118.61 595.99 119.09 595.22 119.54 592.72 121.53 591.86 122.53 591.48 123.15 591.19 123.87 590.38 128.51 589.71 130.2 587.97 132.56 585.68 135.33 585.07 136.22 584.68 137.17 584.59 139.12 584.67 139.66 584.91 140.47 585.68 142.32 585.84 142.86 585.91 143.36 585.8 143.85 585.57 144.24 584.01 145.84 583.76 146.26 583.65 146.58 583.79 147.34 579.06 150.37 577.37 151.2 575.97 151.18 574.31 150.74 569.13 148.53 566.96 147.08 566.18 146.14 565.49 144.65 565.02 143.92 564.53 143.4 560.48 140.5 559.1 139.01 558.37 138.06 557.69 137.57 557.09 137.33 555.64 137.27 554.62 137.36 554.34 137.65 554.32 138.41 555.01 140.69 555.02 141.15 554.93 141.6 553.97 143.88 553.19 145.13 553 145.34 549.12 147.58 547.92 148.09 546.85 148.36 540.67 148.82 538.18 148.61 534.51 146.84 533.86 146.37 533.33 145.82 532.5 144.41 531.87 143.62 529.59 142.04 528.79 140.89 528.67 140.68 528.5 140.26 528.46 140.03 528.46 139.55 528.5 139.24 528.65 138.71 528.89 138.21 530.74 135.82 531.17 135.02 531.35 134.38 531.41 133.87 531.37 133.2 531.23 132.49 530.98 131.82 530.62 131.47 530.18 131.39 529.75 131.53 529.31 131.83 528.44 132.74 528.27 132.82 528.05 132.87 527.79 132.69 527.72 132.52 527.84 130.75 527.77 130.24 527.66 129.86 527.2 128.88 524.19 127.95 522.5 127.08 521.67 126.52 520.87 125.81 520.54 125.34 520.16 124.38 519.12 122.42 518.82 122.07 518.02 121.49 517.78 121.19 517.25 119.79 517.22 119.52 517.09 119.36 515.53 118.26 515.34 118.07 515.05 117.57 514.56 116.47 514.42 116.28 514.18 116.16 513.87 116.06 513.59 115.89 513.47 115.61 513.64 115.17 513.99 114.84 514.29 114.44 514.32 113.82 514.2 113.54 513.88 113.2 513.82 112.88 513.9 112.64 514.11 112.49 514.37 112.37 514.59 112.2 515.49 111.02 515.68 110.6 515.72 110.34 515.74 109.78 515.76 109.65 515.87 109.4 515.71 109.22 515.46 109.04 515.34 108.8 515.37 108.02 515.34 107.69 515.02 106.68 515.15 106.4 515.58 105.91 515.68 105.58 517.34 105.36 518.54 105.08 519.12 104.91 520.18 104.5 520.62 104.3 521.69 103.64 523.17 102.64 524.07 102.14 524.46 101.96 525.34 101.66 525.55 101.55 525.88 101.27 526.24 100.73 526.65 99.53 527.16 98.54 527.71 97.93 528.14 97.63 528.47 97.46 528.89 96.89 529.3 96.08 529.42 95.46 529.35 94.84 528.89 93.39 528.21 92.19 527.86 91.17 527.26 89.73 526.41 86.83 526.03 86.02 525.51 85.19 525.34 84.83 525.03 83.58 524.85 83.18 523.93 82.02 522.88 80.32 521.96 79.28 520.99 78.56 519.48 77.6 519.01 77.25 518.47 76.94 517.98 76.57 517.35 76.19 516.58 75.56 516.94 73.02 517.79 70.55 518.74 70.6 522.28 70.17 524.96 70.18 526.73 69.98 529.27 70.5 529.89 70.47 532.44 70.03 535.57 70.23 536.19 70.38 536.8 70.61 538.15 70.96 538.66 71.11 539.63 71.04 539.92 71.18 540.01 71.32 540.11 71.77 540.22 71.95 540.65 72.11 541.26 72.28 546.53 72.02 547.93 72.39 548.74 72.98 549.1 73 551.1 73.33 557.76 74.61 558.84 74.53 559.92 74.24 560.93 73.77 561.83 73.16 562.21 72.81 562.47 72.63 562.74 72.67 564.01 73.6 564.45 73.8 565.87 74.06 568.23 75.02 569.26 75.24 570.33 75.29 571.4 75.21 574.12 74.6 577.21 73.48 581.5 71.4 584.85 70.62 585.3 70.42 586.03 69.81 586.46 69.58 587.06 69.51 587.62 69.64 588.72 70.04 589.34 70.12 589.95 70.11 590.55 70.02 593.36 69.04 594.46 68.8 603.62 68.41 606 67.72 606.09 67.8 607.88 69.52 608 69.69 608.01 69.8 607.9 69.95 607.68 70.18 607.3 70.45 607.19 70.55 607.09 70.68 607.18 71.78 608.01 75.13 608.91 76.97 609.03 77.63 609.01 78.13 608.43 79.35 608.17 79.88 608.59 80.76 609.55 82.27 614.36 88.2 615.85 90.72 616.28 91.72 616.62 93.1 616.55 94.57 615.96 95.62 615.63 97.29 616.23 101.53 617.51 103.22 617.85 103.57 618.88 105.03 619.94 108.14 Z" id="MNG-3315" data-name="Hentiy"/>
<path d="M 346.24 78.63 346.53 79.55 346.84 80.02 347.76 80.74 348.3 81.05 348.81 81.4 350.02 81.9 350.96 81.96 351.57 82.05 351.86 82.12 352.42 82.36 353.06 82.83 353.32 83.18 353.58 83.68 353.84 83.97 354.25 84.17 354.74 84.29 355.29 84.31 356.03 84.16 357.01 83.7 358.07 83.33 358.79 84.43 359.75 86.65 360.36 89.52 360.4 89.89 360.34 90.61 360.51 91.15 360.73 91.49 361.09 91.82 361.54 92.1 362.72 92.68 363.33 93.19 363.7 93.8 363.98 95.19 364.71 95.76 365.09 96.01 366.73 96.83 367.28 96.97 367.83 97.06 369.03 97.09 370.5 97.2 371.69 97.98 372.96 99.15 373.48 99.93 374.17 100.62 374.85 101.5 375.15 102.09 375.5 103.35 375.72 105.18 375.87 105.61 376.01 105.81 376.41 106.13 376.89 106.35 378.56 106.88 379.97 107.32 380.27 108.05 380.47 108.41 381.3 109.61 381.86 110.31 383.06 110.36 383.67 110.44 384.19 110.59 384.77 110.9 386.02 111.98 386.77 112.9 387.36 113.76 388.13 114.67 388.77 115.2 389.56 115.96 390.59 116.65 391.69 117.18 393.28 118.17 394.35 118.71 396.01 119.85 396.31 120.99 396.44 122.02 393.82 123.15 392.65 123.38 388.81 123.47 384.41 123.13 383.47 122.89 382.91 122.58 381.59 120.58 381.09 120.02 380.38 119.54 376.12 118.46 375.47 118.4 374.11 118.41 372.1 117.62 371.75 117.56 371.1 117.52 370.7 117.73 370.5 118.12 370.6 118.62 370.85 119.1 371.17 119.5 371.58 119.83 372.1 120.02 372.64 120.17 373.04 120.4 372.96 121.13 371.49 123.41 370.47 124.55 368.55 125.42 368.28 125.78 368.02 126.3 367.92 127.5 367.49 128.91 366.2 129.28 365.54 129.17 364.91 128.86 364.45 128.49 363.44 127.43 362.81 127.01 362.21 126.85 361.51 126.88 358.59 127.73 353.42 128.73 351.69 129.6 351.01 130.15 349.89 130.69 336.56 132.75 335.01 131.68 334.45 131.51 331.35 131.99 330.21 132.03 327.47 131.7 326.57 131.71 324.78 132.16 322.89 132.18 322.37 131.95 322.03 131.63 321.68 131.05 321.15 129.91 320.74 129.42 319.91 128.98 319.14 128.77 317.83 128.54 317.58 128.45 317.35 128.21 316.99 127.31 316.68 126.72 316.1 126.02 315.71 125.42 315.43 123.88 315.16 123.66 314.65 123.61 313.88 123.7 305.21 125.49 302.96 125.86 302.47 125.83 302.03 125.61 301.72 125.22 301.57 124.61 301.58 124.11 301.64 123.65 301.61 123.29 301.48 122.92 301.19 122.46 300.98 122.01 300.84 121.33 300.88 120.7 301.09 119.47 301.14 118.84 301.03 118.22 300.72 117.58 300.11 117.01 298.25 115.99 297.5 115.49 297.09 115.1 296.73 114.48 296.55 113.74 296.6 111.78 296 111.82 294.24 112.53 293.59 112.97 293.14 113.35 292.71 113.63 292.2 113.82 290.6 113.99 289.96 114.14 289.45 114.4 288.2 115.5 287.7 115.76 287.29 115.91 286.54 116.11 284.5 116.34 281.46 116.38 280.7 116.37 280.04 116.2 275.72 114.28 275.22 113.9 274.94 113.45 274.89 111.84 274.32 110.78 273.97 110.5 273.64 110.32 273.24 110.16 272.81 110.06 272.37 110.02 270.37 110.2 267.89 110.68 266.93 111.1 265.3 112.11 261.67 111.84 260.97 111.65 260.19 111.35 259.89 110.95 259.79 110.48 259.87 109.91 260.94 107.55 261.08 107 261.03 106.33 260.7 105.47 259.82 103.99 259.6 103.35 260.24 102.07 260.58 101.74 261.05 101.38 261.65 101.17 262.38 101.03 267.6 100.93 269.51 100.5 270.6 100.04 271.34 99.47 272.17 98.31 272.89 97.79 273.65 97.55 275.11 97.42 282.8 95.05 284.94 96.59 285.73 96.92 286.3 96.96 286.99 96.86 287.72 96.48 288.17 96.09 288.52 95.74 288.82 95.52 289.15 95.44 289.64 95.57 290.14 95.77 290.69 95.94 291.27 96.02 296.8 95.69 297.3 95.6 297.67 95.33 297.94 94.79 298.29 92.74 298.5 92.24 298.78 91.87 299.33 91.6 299.85 91.48 302.19 91.56 303.1 91.82 306.83 93.29 307.5 93.46 308.25 93.55 309.17 93.48 309.89 93.21 310.22 92.63 310.18 92.17 310.03 91.65 310.29 91.2 310.94 90.9 313.27 90.61 315.45 90.14 316.53 89.58 315.99 89.06 315.73 88.88 315.59 88.81 315.43 88.76 314.95 88.71 314.62 88.63 314.49 88.56 314.37 88.48 314.18 88.31 313.94 87.96 313.82 87.7 313.73 87.35 313.7 87.08 313.43 86.67 313.39 86.5 313.47 86.19 313.57 85.9 313.81 85.46 314 85.21 314.02 84.98 313.97 84.85 313.9 84.73 313.92 84.62 314.01 84.51 314.5 84.22 314.62 84.11 314.59 84.02 314.5 83.94 314.12 83.83 314.09 83.71 314.23 83.5 314.61 83.09 315.07 82.79 315.4 82.52 315.55 82.37 315.54 82.21 315.45 82.11 315.42 81.99 315.49 81.86 316 81.66 316.37 81.56 317.36 81.09 317.67 80.99 317.96 80.93 318.11 80.94 318.29 80.9 318.47 80.83 319.02 80.53 319.17 80.38 319.36 80.14 319.37 80 319.36 79.92 318.87 79.42 315.93 78.35 315.66 78.2 315.47 78.05 315.39 77.79 315.46 77.65 315.51 77.31 315.61 77.01 315.96 76.77 316.42 77.13 316.95 77.16 319.85 76.69 319.99 76.5 320 76.28 320.04 76.11 320.44 75.8 321.38 75.36 321.81 75.01 322.12 74.68 322.21 74.47 322.25 74 322.29 73.88 322.37 73.77 322.5 73.65 322.61 73.51 322.91 73.31 323.54 73.22 324.23 73.47 331.86 76.15 337.62 78.93 338.47 79.22 341.21 79.34 346.24 78.63 Z" id="MNG-3316" data-name="Arhangay"/>
<path d="M 336.56 132.75 337.44 134.02 337.77 134.33 340.58 136.24 342.9 138.26 343.11 140.25 343.23 140.68 343.45 141.1 343.77 141.44 343.93 141.81 343.8 142.24 341.63 144.19 341.19 144.87 341.45 145.31 341.81 145.55 342.13 145.99 342.38 146.54 342.58 147.82 342.54 148.84 342.41 149.29 342.22 149.61 341.78 150.02 341.13 150.39 340.39 150.67 339.05 151.02 338.55 151.33 338.11 151.77 337.72 152.29 337.4 152.86 337.23 153.47 337.31 155.58 337.62 156.87 337.74 157.7 337.68 158.68 336.62 161.34 336.65 162.65 336.63 163.25 335.72 164.82 334.58 165.96 333.14 166.9 332.89 167.23 332.75 167.62 332.76 168.1 333.08 169.38 333.12 169.93 333.04 170.69 333.09 171.04 333.22 171.46 333.52 174.08 333.72 175.03 334.06 176.15 334.31 176.69 334.61 177.17 335.1 177.57 335.75 177.87 338.83 178.56 340.39 179.24 341.37 179.83 343.61 180.83 344.11 181.52 343.49 182.93 342.52 184.64 342.41 184.91 342.37 185.27 342.5 185.71 342.81 186.34 343.94 188.13 344.68 189.58 348.74 201.25 336.43 206.71 335.23 207.03 334.64 207.09 315.54 206.88 313.32 207.21 311.61 206.76 307.97 204.1 305.21 201.4 300.97 198.61 300.63 198.43 300.31 198.38 299.95 198.4 292.49 199.83 292.26 200 292.16 200.33 292.08 201.88 293.27 222.47 295.83 237.44 295.83 237.44 292.18 238.27 282.1 237.28 272.03 236.3 261.96 235.31 251.88 234.33 251.88 234.32 250.58 221.32 250.6 220.54 250.8 219.88 252.03 217.94 253.92 213.35 254.13 212.57 254.17 211.8 253.91 209.57 255.07 202.75 255.07 201.99 254.17 195.65 254.19 193.43 254.35 192.9 254.71 192.56 257.89 191.33 259.1 190.69 259.64 190.31 260.02 189.99 260.6 189.29 261 188.54 261.4 187.39 261.54 186.67 261.6 184.1 261.13 180.85 261.11 180.05 261.2 179.17 261.42 178.61 261.77 178.14 262.14 177.86 263.09 177.26 263.44 177 264.23 175.88 267.06 168.93 267.37 167.65 267.49 166.65 266.09 159.66 265.64 158.18 264.96 157.11 260.23 152.46 259.33 151.72 258.91 151.57 258.23 151.41 257.46 151.33 256.23 151.04 255.67 150.85 255.14 150.54 254.21 149.63 253.52 149.1 251.37 148.02 250.88 147.57 250.36 146.44 249.95 145.94 249.45 145.67 248.34 145.24 247.95 144.94 247.73 144.65 247.15 143.52 246.91 142.95 246.76 142.36 246.71 141.76 246.91 139.75 246.64 138.04 246.58 136.63 246.73 136.11 247.79 134.33 251.6 126.1 251.84 125.36 251.94 124.59 252.11 123.91 252.51 123.41 253.26 123.12 254.11 123.03 256.43 123.02 258 122.77 259.42 122.32 261.51 120.26 262.18 119.27 262.51 118.55 262.37 118.03 262.16 117.57 262.19 117 262.54 116.6 263.63 115.78 264.38 114.99 264.8 114.39 265.09 113.87 265.25 113.45 265.4 112.76 265.4 112.5 265.39 112.32 265.3 112.11 266.93 111.1 267.89 110.68 270.37 110.2 272.37 110.02 272.81 110.06 273.24 110.16 273.64 110.32 273.97 110.5 274.32 110.78 274.89 111.84 274.94 113.45 275.22 113.9 275.72 114.28 280.04 116.2 280.7 116.37 281.46 116.38 284.5 116.34 286.54 116.11 287.29 115.91 287.7 115.76 288.2 115.5 289.45 114.4 289.96 114.14 290.6 113.99 292.2 113.82 292.71 113.63 293.14 113.35 293.59 112.97 294.24 112.53 296 111.82 296.6 111.78 296.55 113.74 296.73 114.48 297.09 115.1 297.5 115.49 298.25 115.99 300.11 117.01 300.72 117.58 301.03 118.22 301.14 118.84 301.09 119.47 300.88 120.7 300.84 121.33 300.98 122.01 301.19 122.46 301.48 122.92 301.61 123.29 301.64 123.65 301.58 124.11 301.57 124.61 301.72 125.22 302.03 125.61 302.47 125.83 302.96 125.86 305.21 125.49 313.88 123.7 314.65 123.61 315.16 123.66 315.43 123.88 315.71 125.42 316.1 126.02 316.68 126.72 316.99 127.31 317.35 128.21 317.58 128.45 317.83 128.54 319.14 128.77 319.91 128.98 320.74 129.42 321.15 129.91 321.68 131.05 322.03 131.63 322.37 131.95 322.89 132.18 324.78 132.16 326.57 131.71 327.47 131.7 330.21 132.03 331.35 131.99 334.45 131.51 335.01 131.68 336.56 132.75 Z" id="MNG-3317" data-name="Bayanhongor"/>
<path d="M 232.91 58.64 232.93 58.75 233 58.97 233.11 59.24 233.26 59.5 233.46 59.76 234.38 60.64 234.52 60.91 234.29 61.21 233.73 61.58 231.54 62.55 229.55 63.74 228.35 64.71 228.02 65.07 227.68 65.63 227.49 66.04 227.24 66.8 227.23 67.38 227.27 67.8 227.64 68.72 228.29 69.3 233.47 72.47 234.72 73 236.76 73.36 241.45 73.56 244 73.61 245.44 74.04 252.99 77.69 253.53 77.86 254.7 77.92 256.31 77.62 257.1 77.38 257.79 77.25 260.22 77.13 263.66 77.43 265.42 77.83 266.33 78.2 267.41 78.74 267.98 78.94 268.51 79.02 269.45 78.96 270.1 78.85 271.51 78.24 272.83 77 274.02 75.29 281.74 74.76 282.19 75.05 282.38 75.39 282.57 75.96 283.02 78.98 283.39 80.47 283.99 81.75 284.24 82.22 284.22 82.54 283.76 83.67 283.36 84.38 282.93 85.02 281.14 86.94 280.96 87.28 280.85 87.68 280.8 88.22 280.88 88.95 281.12 89.86 282.63 93.42 282.8 95.05 275.11 97.42 273.65 97.55 272.89 97.79 272.17 98.31 271.34 99.47 270.6 100.04 269.51 100.5 267.6 100.93 262.38 101.03 261.65 101.17 261.05 101.38 260.58 101.74 260.24 102.07 259.6 103.35 259.82 103.99 260.7 105.47 261.03 106.33 261.08 107 260.94 107.55 259.87 109.91 259.79 110.48 259.89 110.95 260.19 111.35 260.97 111.65 261.67 111.84 265.3 112.11 265.39 112.32 265.4 112.5 265.4 112.76 265.25 113.45 265.09 113.87 264.8 114.39 264.38 114.99 263.63 115.78 262.54 116.6 262.19 117 262.16 117.57 262.37 118.03 262.51 118.55 262.18 119.27 261.51 120.26 259.42 122.32 258 122.77 256.43 123.02 254.11 123.03 253.26 123.12 252.51 123.41 252.11 123.91 251.94 124.59 251.84 125.36 251.6 126.1 247.79 134.33 246.73 136.11 246.58 136.63 246.64 138.04 244.65 137.7 242.85 136.89 241.66 136.35 240.58 136.34 240.15 136.43 239.96 136.5 239.84 136.6 239.51 137.02 239.29 137.22 237.98 138.02 237.13 138.39 236.72 138.46 236.1 138.51 235.78 138.5 235.53 138.46 234.93 138.22 234.56 138.11 234.38 138.09 231.69 138.04 230.46 137.92 230.34 137.68 230.19 137.32 230.29 136.47 230.07 136.07 228.31 134.71 227.61 133.91 227.14 133.12 226.94 132.47 226.7 130.89 224.58 130.19 223.73 129.78 222.85 129.71 216.41 131.08 215.54 131.05 215.34 129.58 214.98 129.03 214.43 127.98 213.92 126.26 213.4 125.64 211.94 124.38 211.36 123.47 210.82 122.21 210.45 121.85 209.92 121.47 209.08 121.16 208.72 121.09 208.05 120.86 199 116.94 197.36 116.12 195.8 115.11 195.54 115.02 194.75 114.84 193.87 114.56 192.86 114.01 186.54 113.76 185.83 113.96 184.8 114.38 183.92 114.29 183.48 114.04 183.2 113.83 182.9 113.54 182.58 113.06 182.16 112.58 181.61 112.07 181.14 111.73 180.4 111.47 178.27 111.02 177.53 111.06 176.76 111.02 176.54 111.04 175.61 111.29 175.19 111.35 172.29 111.41 169.03 111.2 166.12 110.51 164.39 110.33 164.12 110.28 163.81 110.15 163.01 109.69 162.37 109.42 161.31 109.12 160.01 108.93 159.15 108.91 158.42 109.03 156.1 110.12 152.82 111.3 149.73 112.11 143.68 112.58 141.47 109.95 138.5 107.19 138.24 106.72 138.25 106.03 138.17 105.35 137.89 104.46 137.34 103.53 136.31 101.24 138.11 100.46 139.39 99.73 142.33 97.61 143.15 96.84 143.53 96.29 143.6 96.12 143.65 95.89 143.65 95.46 143.67 95.22 143.71 95.03 143.83 94.79 143.9 94.7 143.97 94.62 144.01 94.54 144.04 94.43 144 94.26 143.95 94.17 143.66 93.96 142.9 93.57 144.38 90.92 145.68 89.92 146.69 89.45 147.54 88.9 148.66 87.66 149.33 87.12 159.62 83.52 160.66 83.51 167.71 85.43 168.78 85.58 171.78 85.52 172.52 85.66 173.64 86.14 173.77 86.2 176.07 86.4 180.27 86.07 183.55 85.48 186.56 84.38 188.31 83.74 190.24 82.57 191.33 82.41 193.34 82.39 194.13 82.14 195.04 80.98 195.4 80.04 195.42 79.78 195.34 78.96 195.43 78.43 195.66 77.89 196.03 77.28 196.13 76.7 196.04 76.04 195.85 75.36 195.8 74.55 196.04 73.81 198.2 70.99 198.3 69.65 198.09 68.93 197.8 68.5 197.35 68.02 196.73 67.68 195.18 67.12 194.47 66.78 194.04 66.35 193.86 66.06 193.55 65.08 193.27 64.54 192.66 63.6 192.37 62.83 192.36 62.19 192.59 61.63 193.05 60.78 193.13 60.59 193.15 60.47 193.18 60.09 192.99 58.75 192.65 57.68 192.58 56.87 193.03 56.45 193.03 56.45 193.03 56.45 193.11 56.5 193.61 56.63 194.1 56.56 194.51 56.29 195.16 55.62 195.67 55.39 198.07 55.16 199.08 54.85 200.01 54 200.73 53.53 201.72 53.32 202.7 53.45 203.32 54 203.32 54 203.62 54.7 204.07 55.2 204.66 55.35 205.37 55 205.64 54.69 205.95 54.42 206.29 54.19 206.65 54 207.01 53.88 207.38 53.85 207.76 53.9 208.13 54 208.13 54 208.13 54 208.14 54 211.84 55.08 212.97 55.65 214.01 56.36 214.58 56.59 215.24 56.65 215.89 56.51 217.13 55.96 217.77 55.77 218.48 55.76 218.99 55.91 219.37 56.26 219.71 56.8 220.08 57.25 220.51 57.36 220.98 57.22 221.52 56.96 222.87 56.06 223.4 55.96 230.03 56.63 230.94 57.17 231.85 58.21 232.22 58.47 232.91 58.64 Z" id="MNG-3318" data-name="Dzavhan"/>
<path d="M 246.64 138.04 246.91 139.75 246.71 141.76 246.76 142.36 246.91 142.95 247.15 143.52 247.73 144.65 247.95 144.94 248.34 145.24 249.45 145.67 249.95 145.94 250.36 146.44 250.88 147.57 251.37 148.02 253.52 149.1 254.21 149.63 255.14 150.54 255.67 150.85 256.23 151.04 257.46 151.33 258.23 151.41 258.91 151.57 259.33 151.72 260.23 152.46 264.96 157.11 265.64 158.18 266.09 159.66 267.49 166.65 267.37 167.65 267.06 168.93 264.23 175.88 263.44 177 263.09 177.26 262.14 177.86 261.77 178.14 261.42 178.61 261.2 179.17 261.11 180.05 261.13 180.85 261.6 184.1 261.54 186.67 261.4 187.39 261 188.54 260.6 189.29 260.02 189.99 259.64 190.31 259.1 190.69 257.89 191.33 254.71 192.56 254.35 192.9 254.19 193.43 254.17 195.65 255.07 201.99 255.07 202.75 253.91 209.57 254.17 211.8 254.13 212.57 253.92 213.35 252.03 217.94 250.8 219.88 250.6 220.54 250.58 221.32 251.88 234.32 251.88 234.33 243.74 233.53 235.59 232.73 235.53 232.74 226.65 233.42 217.77 234.1 215.4 234.39 215.08 234.33 214.87 234.29 214.69 233.88 214.36 230.77 214.2 230.19 213.9 229.69 213.29 229.11 203.72 222.13 202.88 221.33 202.4 220.4 202.16 219.36 202.06 218.22 201.85 217.31 198.37 211.82 195.8 205.89 194.47 203.7 193.85 203.17 192.97 202.98 191.67 202.93 189.31 202.49 189.1 202.23 189.1 201.64 189.33 200.22 189.16 198.97 189.19 198.73 189.3 198.48 189.64 198 189.81 197.32 190.11 196.9 190.84 196.18 191.05 195.69 190.6 195.53 182.1 196.33 181.04 196.22 178.85 195.35 174.26 194.32 173.7 194.13 173.35 193.81 173.07 193.38 172.69 193.01 170.97 191.83 167.8 190.42 167.05 190.14 165.47 190.14 164.78 189.95 164.37 189.55 163.71 188.48 163.27 188.03 161.22 186.42 160.9 186.26 160.49 186.14 160.08 186.1 158.96 186.49 157.84 186.5 155.77 186.28 154.58 185.96 153.27 184.94 149.29 180.96 148.65 180.55 144.61 179.06 142.01 178.96 141.5 178.83 140.54 178.38 140.04 178.22 139.45 178.2 138.25 178.34 137.64 178.31 135.69 177.66 135.03 177.6 133.46 177.72 133.46 177.71 133.5 177.59 134.79 169.71 134.94 166.74 134.31 161.28 134.5 160.43 134.97 159.85 135.61 159.4 138.45 158.21 139.03 157.84 139.55 157.35 140.46 155.97 140.76 155.63 141.39 155.35 141.73 154.93 141.74 154.47 141.51 153.21 141.61 152.76 143.98 148.6 146.82 145.05 147.21 144.36 147.31 143.57 147.13 142.77 146.74 141.98 145.15 139.84 144.89 139.4 144.83 138.87 145.17 138.65 145.71 138.64 146.28 138.73 148.9 138.92 149.62 138.84 151.01 138.52 153.73 136.72 155.94 135.76 161.02 134.18 162.04 133.62 162.71 132.96 162.94 132.51 162.98 131.59 162.09 130.35 159.85 128.08 158.45 126.31 157.96 125.38 157.68 124.48 157.67 123.78 157.73 123.14 157.58 122.62 157.22 122.22 155.51 121.67 152.07 120.15 146.84 116.91 144.98 115.71 143.99 114.78 143.83 114.3 143.75 113.91 143.68 112.58 149.73 112.11 152.82 111.3 156.1 110.12 158.42 109.03 159.15 108.91 160.01 108.93 161.31 109.12 162.37 109.42 163.01 109.69 163.81 110.15 164.12 110.28 164.39 110.33 166.12 110.51 169.03 111.2 172.29 111.41 175.19 111.35 175.61 111.29 176.54 111.04 176.76 111.02 177.53 111.06 178.27 111.02 180.4 111.47 181.14 111.73 181.61 112.07 182.16 112.58 182.58 113.06 182.9 113.54 183.2 113.83 183.48 114.04 183.92 114.29 184.8 114.38 185.83 113.96 186.54 113.76 192.86 114.01 193.87 114.56 194.75 114.84 195.54 115.02 195.8 115.11 197.36 116.12 199 116.94 208.05 120.86 208.72 121.09 209.08 121.16 209.92 121.47 210.45 121.85 210.82 122.21 211.36 123.47 211.94 124.38 213.4 125.64 213.92 126.26 214.43 127.98 214.98 129.03 215.34 129.58 215.54 131.05 216.41 131.08 222.85 129.71 223.73 129.78 224.58 130.19 226.7 130.89 226.94 132.47 227.14 133.12 227.61 133.91 228.31 134.71 230.07 136.07 230.29 136.47 230.19 137.32 230.34 137.68 230.46 137.92 231.69 138.04 234.38 138.09 234.56 138.11 234.93 138.22 235.53 138.46 235.78 138.5 236.1 138.51 236.72 138.46 237.13 138.39 237.98 138.02 239.29 137.22 239.51 137.02 239.84 136.6 239.96 136.5 240.15 136.43 240.58 136.34 241.66 136.35 242.85 136.89 244.65 137.7 246.64 138.04 Z" id="MNG-3319" data-name="Govi-Altay"/>
<path d="M 142.9 93.57 143.66 93.96 143.95 94.17 144 94.26 144.04 94.43 144.01 94.54 143.97 94.62 143.9 94.7 143.83 94.79 143.71 95.03 143.67 95.22 143.65 95.46 143.65 95.89 143.6 96.12 143.53 96.29 143.15 96.84 142.33 97.61 139.39 99.73 138.11 100.46 136.31 101.24 137.34 103.53 137.89 104.46 138.17 105.35 138.25 106.03 138.24 106.72 138.5 107.19 141.47 109.95 143.68 112.58 143.75 113.91 143.83 114.3 143.99 114.78 144.98 115.71 146.84 116.91 152.07 120.15 155.51 121.67 157.22 122.22 157.58 122.62 157.73 123.14 157.67 123.78 157.68 124.48 157.96 125.38 158.45 126.31 159.85 128.08 162.09 130.35 162.98 131.59 162.94 132.51 162.71 132.96 162.04 133.62 161.02 134.18 155.94 135.76 153.73 136.72 151.01 138.52 149.62 138.84 148.9 138.92 146.28 138.73 145.71 138.64 145.17 138.65 144.83 138.87 144.89 139.4 145.15 139.84 146.74 141.98 147.13 142.77 147.31 143.57 147.21 144.36 146.82 145.05 143.98 148.6 141.61 152.76 141.51 153.21 141.74 154.47 141.73 154.93 141.39 155.35 140.76 155.63 140.46 155.97 139.55 157.35 139.03 157.84 138.45 158.21 135.61 159.4 134.97 159.85 134.5 160.43 134.31 161.28 134.94 166.74 134.79 169.71 133.5 177.59 133.46 177.71 133.46 177.72 132.88 177.76 132.4 177.66 131.92 177.62 131.44 177.64 130.96 177.73 130.22 177.7 129.5 177.49 128.13 176.91 127.8 176.88 126.97 177.01 126.59 177.02 125.45 176.91 122.61 177.46 120.96 177.52 118.56 177.91 118.16 177.9 117.04 177.57 116.61 177.52 115.39 177.66 114.99 177.65 113.85 177.36 113.42 177.36 112.2 177.6 111.58 177.49 109.46 176.4 108.65 176.14 107.84 175.99 107.01 175.96 106.16 176.03 104.77 176.22 100.5 176.05 99.94 176.09 98.93 176.33 98.41 176.37 95.96 175.93 95.67 175.98 95.45 176.07 95.21 176.08 94.91 175.93 93.28 174.44 92.85 174.22 92.31 174.23 91.88 174.45 91.48 174.77 91.06 175.01 90.57 175.03 88.15 174.63 86.54 174.03 86.18 173.79 85.63 173.2 85.32 172.94 84.48 172.62 83.38 172.45 82.25 172.42 81.35 172.52 79.63 173.23 78.83 173.23 78.44 172.51 78.51 172.1 78.64 171.83 78.66 171.56 78.36 171.13 77.93 170.9 76.92 170.58 76.79 170.3 76.77 169.47 76.46 168.79 76.08 168.13 75.85 167.41 75.47 166.89 73.84 166.05 73.32 165.62 74.44 159.74 74.8 159.19 79.97 154.28 81.35 153.36 81.63 153.21 82.03 152.5 82.1 151.35 81.87 150.22 81.35 149.56 80.7 148.87 79.47 146.06 79.39 145.55 79.64 145.17 80.38 144.51 81.35 142.71 81.63 142.25 82 141.26 82.32 140.81 82.85 139.92 83.09 139.37 83.15 138.99 82.78 138.66 82.25 138.52 81.87 138.29 81.92 137.66 82.26 136.6 82.32 135.93 82.91 135.92 84.78 136.21 86.39 136.71 87.18 136.74 87.91 136.67 88.63 136.68 89.19 137.02 90.15 138.12 90.73 138.63 91.53 139.03 92.31 139.15 92.96 138.99 93.38 138.64 93.88 137.72 94.16 137.33 94.49 137.12 94.95 137.03 95.67 137.38 96.09 137.51 99.17 137.25 102.8 137.59 103.26 137.44 103.85 137.05 103.98 136.58 104.05 135.98 102.04 135.08 100.26 133.34 97.74 131.73 95.7 130.77 94.75 130.49 94 130.16 92.89 129.53 92.34 128.86 92.08 128.28 92.06 127.78 92.16 127.23 92.36 126.67 93.52 124.63 93.6 123.83 91.98 122.16 88.61 119.32 87.98 118.58 87.91 118.13 88.01 117.76 88.18 117.46 88.39 117.02 88.43 116.54 88.38 115.91 88.23 115.41 86.55 111.96 86.12 111.32 85.58 110.8 85.08 110.41 84.4 109.53 82.3 105.42 81.36 103.07 81.08 102.64 80.82 102.38 80.09 101.81 79.68 101.54 78.45 100.94 78.04 100.65 77.86 100.23 77.78 99.88 77.7 99.29 77.15 97.15 76.91 96.46 76.77 95.71 76.84 95.12 77.13 94.54 78.12 93.56 78.24 93.2 78.12 92.71 77.21 90.84 76.88 90.4 76.42 90.12 74.74 89.63 74.44 89.42 74.26 89.19 74.19 88.98 74.27 88.68 76.92 88.34 84.39 86.03 86.89 85.68 89.33 86.06 90.58 86.05 91.7 85.74 93.12 84.94 95.55 82.8 97.08 81.07 97.88 80.55 100.33 79.56 101.46 79.25 102.38 79.15 103.22 79.27 103.85 79.54 104.25 79.82 104.56 80.24 106.25 84.54 106.74 84.72 107.17 84.75 107.79 84.55 108.25 84.51 108.85 84.59 109.53 85.11 110.07 85.81 110.95 87.49 111.44 88.14 111.95 88.42 112.54 88.37 113.67 87.78 114.07 87.67 123.08 89.11 125.81 89.54 127.03 89.24 128.18 88.55 129.2 87.77 130.44 87.12 131.4 86.89 132.17 86.84 133.44 86.99 133.7 87.07 133.86 87.15 133.97 87.24 134.32 87.4 136.32 88.14 136.79 88.47 136.92 88.63 137.02 88.77 137.09 88.91 137.14 89.06 137.24 89.69 137.42 90.31 137.54 90.58 137.62 90.71 137.79 90.92 137.9 91.02 137.92 91.04 138.49 91.31 140.09 92.45 140.63 92.76 142.9 93.57 Z" id="MNG-3320" data-name="Hovd"/>
<path d="M 278.86 1.12 279.48 1.42 279.77 2.22 280.28 2.77 281.03 3.08 285.34 4.05 286.18 4.36 286.76 4.76 287.22 5.22 287.73 5.61 288.44 5.85 294.22 6.91 297.26 6.98 298.01 7.18 299.85 8.24 301.46 9.44 303.18 10.43 305.36 10.87 307.65 10.7 310.43 11.01 317.88 10.99 319.38 11.54 321.06 11.85 331.74 15.29 332.92 15.93 333.95 16.09 335 16.1 336.01 16.24 336.95 16.8 337.84 17.52 338.7 17.85 339.64 17.84 341.97 17.29 343.07 17.22 344.15 17.36 345.98 17.85 347.3 17.8 347.97 17.84 348.43 17.98 349.74 18.62 350.4 18.76 352.39 18.67 352.85 18.77 353.72 19.25 354.18 19.41 356.09 19.5 356.67 19.72 357.09 19.97 359.38 20.98 359.62 21.4 359.27 21.91 358.18 23.06 358.14 23.29 358.29 23.54 358.48 23.99 358.54 24.42 358.51 24.83 358.35 25.67 358.46 26.6 358.92 27.59 359.58 28.51 360.26 29.2 360.52 29.53 360.55 29.89 360.42 30.24 360.16 30.55 360.76 31.19 360.57 31.88 360.1 32.57 359.86 33.25 360.2 34.01 360.92 34.51 362.45 35.26 362.99 35.99 362.77 36.56 362.18 37.08 361.67 37.7 361.56 38.42 361.83 39.17 362.34 39.84 362.95 40.29 364.07 40.59 366.53 40.8 367.55 41.33 369.37 43.52 370.15 43.92 370.19 43.93 370.16 43.94 368.8 44.47 367.23 45.03 366.14 45.66 365.18 46.37 364.98 46.6 364.67 47.12 364.53 47.42 364.22 48.45 363.74 49.22 363.5 49.43 362.65 50.05 362.11 50.36 361.64 50.7 361 51.1 360.33 51.69 360.22 52.03 359.12 53.01 358.11 53.7 357.61 54.3 357.41 54.76 357.38 55.16 357.48 55.56 357.6 55.74 357.85 55.97 358.24 56.19 359.62 56.7 361.64 57.31 363.68 57.72 366.88 58.7 368.67 59.04 370.69 59.66 372.69 60.41 373.41 60.83 374.29 61.48 372.24 62.51 371.42 62.81 371.13 62.86 370.57 62.85 369.2 62.69 368.71 62.68 368.21 62.74 367.71 62.93 367.5 63.07 367.24 63.37 366.45 64.81 365.74 65.72 365.45 66.02 364.47 66.75 363.37 67.39 362.92 67.57 361.79 67.92 359.79 68.36 358.76 68.43 357.55 68.7 355.74 68.99 354.27 69.38 353.73 69.62 353.25 69.91 352.3 70.65 351.15 71.21 350.96 71.58 350.66 71.94 350 72.41 349.45 72.63 349.04 72.72 348.02 72.83 347.17 73.45 346.82 73.85 345.95 75.39 345.77 75.8 345.71 76.22 345.76 76.85 346.18 78.44 346.24 78.63 341.21 79.34 338.47 79.22 337.62 78.93 331.86 76.15 324.23 73.47 323.54 73.22 322.91 73.31 322.61 73.51 322.5 73.65 322.37 73.77 322.29 73.88 322.25 74 322.21 74.47 322.12 74.68 321.81 75.01 321.38 75.36 320.44 75.8 320.04 76.11 320 76.28 319.99 76.5 319.85 76.69 316.95 77.16 316.42 77.13 315.96 76.77 315.61 77.01 315.51 77.31 315.46 77.65 315.39 77.79 315.47 78.05 315.66 78.2 315.93 78.35 318.87 79.42 319.36 79.92 319.37 80 319.36 80.14 319.17 80.38 319.02 80.53 318.47 80.83 318.29 80.9 318.11 80.94 317.96 80.93 317.67 80.99 317.36 81.09 316.37 81.56 316 81.66 315.49 81.86 315.42 81.99 315.45 82.11 315.54 82.21 315.55 82.37 315.4 82.52 315.07 82.79 314.61 83.09 314.23 83.5 314.09 83.71 314.12 83.83 314.5 83.94 314.59 84.02 314.62 84.11 314.5 84.22 314.01 84.51 313.92 84.62 313.9 84.73 313.97 84.85 314.02 84.98 314 85.21 313.81 85.46 313.57 85.9 313.47 86.19 313.39 86.5 313.43 86.67 313.7 87.08 313.73 87.35 313.82 87.7 313.94 87.96 314.18 88.31 314.37 88.48 314.49 88.56 314.62 88.63 314.95 88.71 315.43 88.76 315.59 88.81 315.73 88.88 315.99 89.06 316.53 89.58 315.45 90.14 313.27 90.61 310.94 90.9 310.29 91.2 310.03 91.65 310.18 92.17 310.22 92.63 309.89 93.21 309.17 93.48 308.25 93.55 307.5 93.46 306.83 93.29 303.1 91.82 302.19 91.56 299.85 91.48 299.33 91.6 298.78 91.87 298.5 92.24 298.29 92.74 297.94 94.79 297.67 95.33 297.3 95.6 296.8 95.69 291.27 96.02 290.69 95.94 290.14 95.77 289.64 95.57 289.15 95.44 288.82 95.52 288.52 95.74 288.17 96.09 287.72 96.48 286.99 96.86 286.3 96.96 285.73 96.92 284.94 96.59 282.8 95.05 282.63 93.42 281.12 89.86 280.88 88.95 280.8 88.22 280.85 87.68 280.96 87.28 281.14 86.94 282.93 85.02 283.36 84.38 283.76 83.67 284.22 82.54 284.24 82.22 283.99 81.75 283.39 80.47 283.02 78.98 282.57 75.96 282.38 75.39 282.19 75.05 281.74 74.76 274.02 75.29 272.83 77 271.51 78.24 270.1 78.85 269.45 78.96 268.51 79.02 267.98 78.94 267.41 78.74 266.33 78.2 265.42 77.83 263.66 77.43 260.22 77.13 257.79 77.25 257.1 77.38 256.31 77.62 254.7 77.92 253.53 77.86 252.99 77.69 245.44 74.04 244 73.61 241.45 73.56 236.76 73.36 234.72 73 233.47 72.47 228.29 69.3 227.64 68.72 227.27 67.8 227.23 67.38 227.24 66.8 227.49 66.04 227.68 65.63 228.02 65.07 228.35 64.71 229.55 63.74 231.54 62.55 233.73 61.58 234.29 61.21 234.52 60.91 234.38 60.64 233.46 59.76 233.26 59.5 233.11 59.24 233 58.97 232.93 58.75 232.91 58.64 233.28 58.73 233.77 58.94 234 59.38 234.59 60.02 235.88 60.42 237.3 60.62 238.28 60.63 239.31 60.42 240.49 60.04 242.57 59.07 244.26 58.22 245.03 57.61 245.22 56.85 244.98 56.38 244.77 56.08 244.85 55.89 246.73 55.56 248.99 54.86 249.56 54.78 250.08 54.91 250.91 55.53 251.38 55.73 251.82 55.56 252.49 54.97 253.28 54.49 256.79 53.25 258.22 52.24 262.11 46.78 262.28 46.4 262.36 45.91 262.3 45.49 262.1 44.71 262.21 43.88 263 42.41 263.06 41.6 263.06 41.6 263.06 41.6 262.88 40.96 262.43 40.49 261.84 40.17 261.2 39.99 259.65 39.82 258.98 39.66 257.09 38.72 256.56 38.37 256.18 37.9 254.97 35.89 254.21 34.61 254.3 34.08 255.36 33.1 255.22 32.82 254.44 32.42 254.08 32.13 253.86 31.83 253.6 31.56 252.43 31.08 251.53 30.49 250.85 29.75 250.8 28.99 252.38 26.87 252.77 26.04 252.99 25.2 253.13 24.84 253.84 23.69 253.91 23.3 253.82 22.78 253.53 21.93 253.51 21.56 253.69 21.12 253.96 20.79 254.67 20.2 254.97 19.88 256.11 18.22 256.59 17.68 256.87 17.45 257.26 17.38 258.36 17 259.02 16.97 261.07 17.23 261.31 16.79 261.4 16.21 261.17 15.13 261.26 14.55 261.52 14.1 262.14 13.26 262.39 12.78 263.84 11.2 266.15 10.51 270.95 9.65 271.76 9.24 272.54 8.69 273.24 8.06 274.87 5.95 275.24 4.77 275.45 4.39 276.4 3.59 276.6 3.24 276.66 2.82 276.68 1.98 276.83 1.57 277.59 1.03 278.61 1 278.86 1.12 Z" id="MNG-3321" data-name="Hövsgöl"/>
<path d="M 193.03 56.45 193.03 56.45 193.03 56.45 192.58 56.87 192.65 57.68 192.99 58.75 193.18 60.09 193.15 60.47 193.13 60.59 193.05 60.78 192.59 61.63 192.36 62.19 192.37 62.83 192.66 63.6 193.27 64.54 193.55 65.08 193.86 66.06 194.04 66.35 194.47 66.78 195.18 67.12 196.73 67.68 197.35 68.02 197.8 68.5 198.09 68.93 198.3 69.65 198.2 70.99 196.04 73.81 195.8 74.55 195.85 75.36 196.04 76.04 196.13 76.7 196.03 77.28 195.66 77.89 195.43 78.43 195.34 78.96 195.42 79.78 195.4 80.04 195.04 80.98 194.13 82.14 193.34 82.39 191.33 82.41 190.24 82.57 188.31 83.74 186.56 84.38 183.55 85.48 180.27 86.07 176.07 86.4 173.77 86.2 173.64 86.14 172.52 85.66 171.78 85.52 168.78 85.58 167.71 85.43 160.66 83.51 159.62 83.52 149.33 87.12 148.66 87.66 147.54 88.9 146.69 89.45 145.68 89.92 144.38 90.92 142.9 93.57 140.63 92.76 140.09 92.45 138.49 91.31 137.92 91.04 137.9 91.02 137.79 90.92 137.62 90.71 137.54 90.58 137.42 90.31 137.24 89.69 137.14 89.06 137.09 88.91 137.02 88.77 136.92 88.63 136.79 88.47 136.32 88.14 134.32 87.4 133.97 87.24 133.86 87.15 133.7 87.07 133.44 86.99 132.17 86.84 131.4 86.89 130.44 87.12 129.2 87.77 128.18 88.55 127.03 89.24 125.81 89.54 123.08 89.11 114.07 87.67 113.67 87.78 112.54 88.37 111.95 88.42 111.44 88.14 110.95 87.49 110.07 85.81 109.53 85.11 108.85 84.59 108.25 84.51 107.79 84.55 107.17 84.75 106.74 84.72 106.25 84.54 104.56 80.24 104.25 79.82 103.85 79.54 103.22 79.27 102.38 79.15 101.46 79.25 100.33 79.56 97.88 80.55 97.08 81.07 95.55 82.8 93.12 84.94 91.7 85.74 90.58 86.05 90.56 85.55 90.72 84.94 90.68 84.74 90.59 84.55 90.47 84.36 89.66 82.33 89.31 81.77 89.18 81.62 88.93 81.41 88.17 80.89 87.58 80.25 87.39 80.08 87.21 79.97 86.9 79.85 85.08 79.45 84.48 79.18 84.08 78.95 82.61 76.75 82.03 75.66 81.95 75.56 81.72 75.45 81.53 75.31 79.97 73.7 79.81 73.49 79.73 73.3 79.71 73.15 79.7 73.01 79.72 72.87 79.79 72.61 79.82 72.47 79.82 72.33 79.71 71.63 79.61 71.36 79.47 71.22 79.3 71.14 78.68 71.08 76.22 70.86 74.76 70.82 74.11 70.6 74 70.51 73.9 70.4 73.49 69.79 73.35 69.53 73.31 69.43 73.26 69.24 73.31 69.08 73.43 68.83 73.22 68.43 72.93 68.03 70.27 66.59 65.69 65.09 65.01 64.67 64.78 64.5 64.62 64.35 64.46 64.09 64.33 63.82 64.17 63.56 63.98 63.32 63.91 63.18 63.48 61.98 63.12 61.43 61.49 59.73 61.34 59.51 61.25 59.2 61.22 59.04 61.2 58.44 61.17 58.28 60.93 57.52 60.22 55.97 59.59 54.9 59.44 54.74 59.29 54.61 59.02 54.45 57.68 53.92 57.09 53.73 57.13 53.21 57.29 52.57 57.67 52.07 58.44 51.74 61.69 51.28 62.7 50.99 65.69 49.49 66.19 49.36 67.21 49.29 67.71 49.19 68.95 48.5 70.04 48.41 72.17 48.71 73.25 48.7 73.7 48.61 74.13 48.46 74.52 48.24 74.84 47.92 74.96 47.57 74.96 46.86 75.19 46.58 76.08 46.24 78 45.87 78.92 45.41 80.69 43.96 81.35 43.56 82.27 43.27 85.19 43.25 86.02 43.09 88.42 42.25 89.35 42.26 91.45 42.54 92.28 42.38 92.7 41.97 92.88 41.46 93.14 40.95 93.75 40.53 96.25 39.88 96.92 39.45 98.17 37.95 98.83 37.54 100.57 36.85 102.41 36.42 104.29 36.28 108.33 36.8 110.71 36.73 112.8 35.96 114.08 34.2 114.14 33.74 114.15 33.3 114.26 32.9 114.59 32.59 115.1 32.4 115.73 32.28 116.31 32.35 116.69 32.73 117.17 33.69 117.77 34.32 118.55 34.71 119.58 34.96 120.53 35.39 121.95 36.77 122.89 37.1 123.44 37.07 124.02 36.91 124.57 36.66 125.01 36.33 125.29 35.93 125.46 35.1 125.63 34.71 126.52 34.28 128.05 34.09 129.62 34.17 130.63 34.53 130.93 35.41 130.92 36.6 131.38 37.58 131.65 38.08 131.86 38.36 132.15 38.54 132.64 38.7 134.18 38.97 135.03 38.95 136.25 38.95 142.03 38.71 144.88 39.32 153.58 39.56 162.28 39.8 162.8 39.99 163.16 40.31 163.28 40.7 163.32 41.6 164.32 43.18 164.51 43.79 164.63 46.36 164.93 47.64 165.18 48.28 165.53 48.8 166.1 49.22 168.17 49.8 168.58 50.05 168.75 50.36 168.84 50.72 169.01 51.1 169.3 51.4 170.37 52.06 170.63 52.37 171.08 53.08 171.35 53.33 171.88 53.45 172.53 53.38 174.9 52.82 179.24 52.69 180.04 52.82 180.71 53.21 181.29 54 181.72 54.57 181.89 54.73 183.08 55.17 189.99 55.12 191.11 55.34 192.23 55.95 192.64 56.24 193.03 56.45 Z" id="MNG-3322" data-name="Uvs"/>
<path d="M 413.1 47.08 413.1 47.09 415.53 48.45 417.39 50.11 417.67 50.5 418.06 51.31 418.16 51.73 418.24 52.59 419.73 53.6 419.56 53.8 419.33 53.98 418.89 54.14 418.37 54.21 417.23 54.26 417.19 55.61 417.26 56.41 417.41 56.92 417.71 57.41 418.66 58.27 421.43 60.25 422.01 60.81 422.62 61.61 421.12 62.61 421.09 65.2 421.01 66.03 420.88 66.56 420.35 67.89 419.7 68.66 419.19 69.6 418.78 71.22 418.15 72.9 417.76 74.79 417.32 76.01 416.09 75.6 415.44 75.45 414.44 75.37 413.79 75.41 413.19 75.55 412.92 75.65 411.46 76.63 407.91 75.86 406.99 75.62 405.96 76.25 404.46 77.62 404.45 78.96 409.02 79.81 410.42 79.97 411.89 80.39 412.72 80.78 413.81 81.13 414.94 81.87 416.09 82.51 416.94 83.2 417.88 83.84 417.75 83.99 417.54 84.33 417.27 84.58 417.45 84.75 417.1 85.18 417.35 86.93 417.53 87.91 417.78 90.1 417.8 91.99 417.67 93.04 417.24 94.14 416.96 94.53 416.77 94.7 415.39 95.34 414.36 96.03 413.49 97.07 412.91 98.25 412.59 98.73 411.58 99.87 412.64 100.66 413.82 101.89 414.05 102.42 414.19 103.72 415.22 104.16 416.7 104.54 418.13 104.69 420.71 104.78 420.92 104.67 421.22 104.6 421.58 104.63 421.75 104.69 421.89 104.8 422.03 105.07 422.08 105.69 421.58 106.02 421.64 107.25 421.78 107.97 422.76 110.71 423.29 111.82 420.76 111.98 417.52 112.03 417.18 112.6 416.5 113.36 414.51 113.35 413.22 113.41 412.61 113.49 411.51 113.77 408.3 115.22 407.29 115.94 406.13 116.62 406.59 117.55 406.81 117.87 407.16 118.18 407.72 118.52 408.47 119.1 408.69 119.38 408.77 119.72 408.7 120.04 408.09 120.85 406.27 121.23 403.23 121.67 401.11 121.85 400.54 121.82 399.69 121.71 399.11 121.69 398.25 121.77 396.44 122.02 396.31 120.99 396.01 119.85 394.35 118.71 393.28 118.17 391.69 117.18 390.59 116.65 389.56 115.96 388.77 115.2 388.13 114.67 387.36 113.76 386.77 112.9 386.02 111.98 384.77 110.9 384.19 110.59 383.67 110.44 383.06 110.36 381.86 110.31 381.3 109.61 380.47 108.41 380.27 108.05 379.97 107.32 378.56 106.88 376.89 106.35 376.41 106.13 376.01 105.81 375.87 105.61 375.72 105.18 375.5 103.35 375.15 102.09 374.85 101.5 374.17 100.62 373.48 99.93 372.96 99.15 371.69 97.98 370.5 97.2 369.03 97.09 367.83 97.06 367.28 96.97 366.73 96.83 365.09 96.01 364.71 95.76 363.98 95.19 363.7 93.8 363.33 93.19 362.72 92.68 361.54 92.1 361.09 91.82 360.73 91.49 360.51 91.15 360.34 90.61 360.4 89.89 360.36 89.52 359.75 86.65 358.79 84.43 358.07 83.33 357.01 83.7 356.03 84.16 355.29 84.31 354.74 84.29 354.25 84.17 353.84 83.97 353.58 83.68 353.32 83.18 353.06 82.83 352.42 82.36 351.86 82.12 351.57 82.05 350.96 81.96 350.02 81.9 348.81 81.4 348.3 81.05 347.76 80.74 346.84 80.02 346.53 79.55 346.24 78.63 346.18 78.44 345.76 76.85 345.71 76.22 345.77 75.8 345.95 75.39 346.82 73.85 347.17 73.45 348.02 72.83 349.04 72.72 349.45 72.63 350 72.41 350.66 71.94 350.96 71.58 351.15 71.21 352.3 70.65 353.25 69.91 353.73 69.62 354.27 69.38 355.74 68.99 357.55 68.7 358.76 68.43 359.79 68.36 361.79 67.92 362.92 67.57 363.37 67.39 364.47 66.75 365.45 66.02 365.74 65.72 366.45 64.81 367.24 63.37 367.5 63.07 367.71 62.93 368.21 62.74 368.71 62.68 369.2 62.69 370.57 62.85 371.13 62.86 371.42 62.81 372.24 62.51 374.29 61.48 373.41 60.83 372.69 60.41 370.69 59.66 368.67 59.04 366.88 58.7 363.68 57.72 361.64 57.31 359.62 56.7 358.24 56.19 357.85 55.97 357.6 55.74 357.48 55.56 357.38 55.16 357.41 54.76 357.61 54.3 358.11 53.7 359.12 53.01 360.22 52.03 360.33 51.69 361 51.1 361.64 50.7 362.11 50.36 362.65 50.05 363.5 49.43 363.74 49.22 364.22 48.45 364.53 47.42 364.67 47.12 364.98 46.6 365.18 46.37 366.14 45.66 367.23 45.03 368.8 44.47 370.16 43.94 370.19 43.93 373.74 44.53 376.83 46.01 377.83 46.31 378.98 46.49 382.85 46.16 384.63 46.46 385.58 47.76 385.9 48.49 386.49 48.92 387.23 49.1 389.72 48.93 390.51 49.05 391.38 49.31 392.87 50.01 394.54 50.51 396.2 50.57 399.1 49.21 400.6 49.24 403.79 50.13 405.41 50.32 407.45 50.15 409.35 49.61 410.57 48.7 411.1 48.15 412.4 47.52 413.1 47.08 Z" id="MNG-3323" data-name="Bulgan"/>
<path d="M 417.32 76.01 417.59 76.66 418.35 77.6 418.56 77.97 418.58 78.35 418.4 78.71 418.07 78.98 417.25 79.52 416.13 80.15 413.81 81.13 412.72 80.78 411.89 80.39 410.42 79.97 409.02 79.81 404.45 78.96 404.46 77.62 405.96 76.25 406.99 75.62 407.91 75.86 411.46 76.63 412.92 75.65 413.19 75.55 413.79 75.41 414.44 75.37 415.44 75.45 416.09 75.6 417.32 76.01 Z" id="MNG-3324" data-name="Orhon"/>
<path d="M 496.41 189.97 492.39 190.9 489.92 191.14 489.44 191.1 487.64 190.47 486.51 190.34 485.79 190.36 471.57 193.87 469.81 194.52 467.64 195.8 465.81 196.38 464.67 196.62 462.47 196.89 454.71 197.76 453.97 197.63 452.06 197.02 450.14 196.22 448.16 195.06 447.72 194.54 447.37 193.91 447.34 193.38 447.36 192.9 447.05 192.29 446.35 191.28 444.7 189.64 441.56 185.52 441.07 185.28 439.59 185.01 432.52 184.51 422.31 183.73 411.28 182.47 409.46 182.06 408.82 181.68 408.23 181.14 407.21 179.67 407.2 179.4 407.23 179.22 407.34 178.94 407.46 178.35 407.46 178.06 407.41 177.87 407.31 177.65 407.23 177.38 407.21 177.22 407.22 177.06 407.25 176.91 407.29 176.77 407.51 176.41 407.57 176.28 407.6 176.14 407.6 175.98 407.52 175.02 407.52 174.7 407.59 174.24 407.59 174.1 407.57 173.99 407.44 173.81 406.93 173.29 398.77 173.18 398.7 171.56 398.91 171.02 399.16 170.52 399.77 169.6 399.46 168.89 396.79 167.11 395.77 166.15 395.28 165.53 395.01 164.99 394.83 164.39 394.74 163.81 394.75 163.32 394.88 162.87 395.14 162.42 396.08 161.48 397.48 160.52 398.07 160.23 398.69 160.04 400.35 159.84 405.9 159.4 407.11 157.98 407.25 156.24 408.32 152.61 408.37 152.27 408.53 150.53 408.67 150.29 408.93 149.98 409.34 149.83 410.04 149.66 413.23 149.51 414.84 149.06 415.36 148.62 415.71 148.16 416.03 147.61 417.54 146.3 417.74 145.73 417.78 144.54 417.93 143.98 418.11 143.6 419.41 142.61 420.09 143.21 420.64 143.61 423.94 141.62 425.34 140.92 426.23 140.34 428.41 138.4 430.72 138.98 433.1 139.52 434.84 139.99 436.35 140.59 436.93 140.93 437.9 141.41 439.08 142.16 441.04 139.64 442.89 137.96 443.4 137.57 445.61 135.44 446.61 135.18 448.22 134.88 449.13 134.85 449.71 134.92 449.98 134.99 450.45 135.22 451.97 136.26 453.17 136.76 454.02 137.03 456.65 137.58 457.18 137.79 457.62 138.09 457.79 138.26 458.11 138.79 462.82 138.8 467.59 138.84 469.75 138.8 471.39 138.84 473.89 139.17 474.73 139.36 476.28 139.97 477.33 140.63 478.76 141.66 479.82 142.34 481.36 143.03 483.34 142.87 487.3 142.78 487.93 142.71 489.16 142.46 491.68 141.76 492.15 141.57 492.51 141.3 493.78 139.99 493.99 139.83 494.49 139.6 495.63 139.32 497.75 139.12 498.33 138.99 498.61 138.88 499.08 138.58 499.26 138.4 499.47 138.01 499.57 137.6 499.73 136.08 499.95 135.15 500.08 134.16 502.58 133.83 502.95 134.92 503.48 135.4 504.16 135.85 504.93 136.07 505.95 136.24 507.66 136.25 508.89 136.37 508.66 136.58 506.26 138 505.7 138.47 505.47 138.83 505.53 139.17 505.96 139.61 509.9 142.52 510.86 143.56 511.47 144.76 511.71 145.5 511.78 146 511.7 147.66 511 151.37 510.9 152.12 511.15 152.98 511.43 153.33 511.75 153.65 512.65 154.76 513.33 155.27 514.04 155.51 517.41 154.67 518.34 154.71 516.94 157.68 516.34 160.2 516.24 162.04 516.72 167.1 518.54 175.14 519.07 176.49 519.08 177.02 518.87 177.3 518.34 177.42 517.38 177.4 516.98 177.43 516.55 177.53 515.62 178.03 514.85 178.89 513.7 180.5 511.28 181.54 502.48 182.34 500.61 182.46 499.99 182.66 499.52 183.12 499.16 184.06 498.45 188.09 498.07 188.83 497.71 189.29 496.41 189.97 Z" id="MNG-3325" data-name="Dundgovi"/>
<path d="M 497.31 54.63 497.46 54.68 498.36 55.11 498.89 55.22 499.66 55.15 499.95 55.16 501.12 55.42 502.32 55.47 502.57 55.72 502.47 56.37 502.27 56.79 502.05 57.13 501.91 57.51 501.97 58.03 502.41 59.22 502.55 60.14 502.53 60.45 502.39 60.75 501.83 61.69 501.85 62.01 502.15 62.18 502.73 62.23 503.72 62.18 504.04 62.36 503.84 62.91 503.78 63.3 504.04 63.69 504.46 64.01 506.28 64.88 506.79 65.06 508.86 65.23 509.51 65.42 509.86 65.67 510.09 65.99 510.28 66.33 510.52 66.66 511.96 67.8 515.4 69.79 517 70.51 517.79 70.55 516.94 73.02 516.58 75.56 515.62 75.52 514.83 75.55 511.98 75.79 511.11 75.96 509.33 76.51 507.77 77.15 507.36 77.4 506.75 77.85 505.85 78.41 503.49 77.31 502.91 77.12 502.02 76.9 501.38 76.79 500.37 76.71 498.56 76.74 497.86 76.81 496.37 77.06 495.59 77.26 493.8 78.1 492.03 79.23 493.34 80.79 493.7 81.13 494.42 81.54 496 82.03 496.47 82.23 496.69 82.37 496.99 82.72 497.1 83.11 497 83.71 496.44 84.69 496.01 85.7 495.51 86.5 495.14 87.23 494.87 87.56 494.66 87.7 494.15 87.88 493.61 87.91 492.33 87.79 491.84 87.8 491.38 87.93 490.62 88.3 489.58 88.62 488.1 88.97 485.13 89.59 484.09 88.73 483.67 88.49 483.17 88.32 482.58 88.18 481.67 88.11 480.74 88.17 478.81 88.49 478.31 88.54 476.55 88.46 475.73 88.55 475.29 88.71 474.58 89.11 473.95 89.56 472.91 90.21 472.19 90.46 471.32 90.61 470.51 90.59 468.24 90.27 467.29 90.01 465.91 89.51 465.66 89.1 465.17 88.8 461.33 87.56 458.29 86.39 457.52 86.79 456.9 87.05 455.74 87.36 454.47 86.84 454.02 86.57 453.76 86.36 454.27 85.47 454.69 84.46 454.7 83.84 454.54 83.44 454.39 83.24 453.98 82.89 453.18 82.5 452.33 82.31 449.94 81.97 445.37 82.72 443.73 83.09 443.13 83.28 441.93 83.82 440.27 84.67 440.6 85.35 441.02 86.65 441.51 87.45 439.85 88.05 438.12 88.57 436.76 89.08 435.93 89.46 435.43 89.58 433.97 89.76 433.38 89.87 431.78 90.42 431.17 90.7 430.72 90.85 430.17 90.91 429.58 90.9 428.26 90.67 426.65 90.19 424.86 89.86 423.67 89.59 421.91 89.07 417.53 87.91 417.35 86.93 417.1 85.18 417.45 84.75 417.27 84.58 417.54 84.33 417.75 83.99 417.88 83.84 416.94 83.2 416.09 82.51 414.94 81.87 413.81 81.13 416.13 80.15 417.25 79.52 418.07 78.98 418.4 78.71 418.58 78.35 418.56 77.97 418.35 77.6 417.59 76.66 417.32 76.01 417.76 74.79 418.15 72.9 418.78 71.22 419.19 69.6 419.7 68.66 420.35 67.89 420.88 66.56 421.01 66.03 421.09 65.2 421.12 62.61 422.62 61.61 422.01 60.81 421.43 60.25 418.66 58.27 417.71 57.41 417.41 56.92 417.26 56.41 417.19 55.61 417.23 54.26 418.37 54.21 418.89 54.14 419.33 53.98 419.56 53.8 419.73 53.6 418.24 52.59 418.16 51.73 418.06 51.31 417.67 50.5 417.39 50.11 415.53 48.45 413.1 47.09 413.1 47.08 413.79 46.65 414.5 46.37 416.19 46.05 418.74 46.15 419.57 46.03 420.12 45.79 421.1 45.18 421.72 45.06 424.02 45.08 424.73 44.94 426.23 44.3 426.79 44.16 427.6 44.07 430.48 44.31 431.18 44.27 431.86 44.15 432.49 43.95 435.21 42.46 436.14 42.1 437.39 42.01 445.1 43.36 448.56 43.18 449.24 43.3 450.44 43.63 451.66 43.81 453 43.81 453.67 43.91 455.01 44.61 455.11 44.78 455.11 45 455.14 45.24 455.24 45.44 455.43 45.55 457.4 45.71 458.03 45.9 459.03 46.39 459.55 46.57 460.11 46.62 464.95 45.69 467.64 45.49 470.33 45.71 472.55 46.2 473.59 46.59 477.27 48.64 478.19 48.95 478.42 49.18 478.8 50.11 479 50.35 479.5 50.71 479.68 50.88 479.82 51.14 480.05 51.72 480.26 51.99 480.59 52.18 481.34 52.42 481.69 52.57 482.93 53.36 483.61 53.67 484.42 53.9 485.17 53.85 485.8 53.64 486.41 53.58 487.88 54.42 496.94 54.52 497.31 54.63 Z M 455.04 76.27 455.65 76.23 456.23 76.12 456.51 76.02 456.99 75.77 457.94 75.13 459.48 74.49 460.98 74.15 461.6 74.08 462.89 74.02 463.71 74.79 464.89 75.35 465.72 75.65 468.96 76.46 471.76 75.92 473.86 75.36 473.77 73.46 473.41 72.07 473.58 70.75 473.87 69.47 473.98 67.9 473.88 66.96 473.67 66.47 473.37 66 473.05 65.72 472.38 65.29 471.97 65.1 471.04 64.85 470.23 64.5 469.49 64.27 466.61 63.6 465.72 64.53 465.16 64.95 464.21 65.48 463.69 65.6 463.11 65.63 462.32 65.54 461.06 65.27 460.01 64.93 458.99 64.46 457.83 64.12 457.02 63.74 455.93 63.46 455.04 63.32 455.24 62.72 455.74 61.97 457.13 60.89 457.35 60.64 457.43 60.49 457.53 60.15 457.57 59.59 457.41 58.2 455.35 58.63 455.11 58.75 455 58.83 454.32 59.78 453.77 60.28 453.4 60.51 453.05 60.61 451.6 61.3 451.4 61.49 450.83 62.24 450.54 62.49 449.9 62.86 450.04 63.65 450.54 64.32 450.6 64.83 450.75 65.3 451.22 65.83 451.37 66.11 451.45 66.38 451.46 66.44 451.49 67 451.38 68.05 451.26 68.51 450.63 71.01 450.26 72.95 449.7 74.7 449.29 75.37 450.81 75.78 451.77 75.96 454.43 76.25 455.04 76.27 Z" fill-rule="evenodd" id="MNG-3326" data-name="Selenge"/>
<path d="M 396.44 122.02 398.25 121.77 399.11 121.69 399.69 121.71 400.54 121.82 401.11 121.85 403.23 121.67 406.27 121.23 408.09 120.85 408.04 121.67 408.1 122.33 408.47 123.79 408.88 124.55 409.14 124.86 410.1 125.57 411.63 126.52 412.58 127.23 412.84 127.54 413.05 127.9 413.21 128.29 413.28 128.86 413.23 129.48 413.03 130.57 412.36 130.64 411.89 130.79 411.29 131.15 410.25 131.9 411.22 132.72 412.01 133.53 412.46 133.92 412.98 134.72 413.62 135.4 413.9 135.87 414.09 136.34 414.16 136.75 414.2 139.15 414.3 139.55 414.51 139.93 414.75 140.17 415.13 140.39 418.34 141.92 419.41 142.61 418.11 143.6 417.93 143.98 417.78 144.54 417.74 145.73 417.54 146.3 416.03 147.61 415.71 148.16 415.36 148.62 414.84 149.06 413.23 149.51 410.04 149.66 409.34 149.83 408.93 149.98 408.67 150.29 408.53 150.53 408.37 152.27 408.32 152.61 407.25 156.24 407.11 157.98 405.9 159.4 400.35 159.84 398.69 160.04 398.07 160.23 397.48 160.52 396.08 161.48 395.14 162.42 394.88 162.87 394.75 163.32 394.74 163.81 394.83 164.39 395.01 164.99 395.28 165.53 395.77 166.15 396.79 167.11 399.46 168.89 399.77 169.6 399.16 170.52 398.91 171.02 398.7 171.56 398.77 173.18 398.62 173.57 398.38 174.01 396.65 176.39 396.11 176.93 395.4 177.5 391.17 179.8 386.06 181.77 385.34 182.71 381.05 189.33 380.68 190.13 380.26 191.34 379.81 192.04 379.44 192.44 378.22 193.22 377.9 193.92 377.92 194.72 379.46 197.76 379.67 198.41 379.62 198.83 370.39 198.28 357.9 198.98 350.67 200.64 348.74 201.25 344.68 189.58 343.94 188.13 342.81 186.34 342.5 185.71 342.37 185.27 342.41 184.91 342.52 184.64 343.49 182.93 344.11 181.52 343.61 180.83 341.37 179.83 340.39 179.24 338.83 178.56 335.75 177.87 335.1 177.57 334.61 177.17 334.31 176.69 334.06 176.15 333.72 175.03 333.52 174.08 333.22 171.46 333.09 171.04 333.04 170.69 333.12 169.93 333.08 169.38 332.76 168.1 332.75 167.62 332.89 167.23 333.14 166.9 334.58 165.96 335.72 164.82 336.63 163.25 336.65 162.65 336.62 161.34 337.68 158.68 337.74 157.7 337.62 156.87 337.31 155.58 337.23 153.47 337.4 152.86 337.72 152.29 338.11 151.77 338.55 151.33 339.05 151.02 340.39 150.67 341.13 150.39 341.78 150.02 342.22 149.61 342.41 149.29 342.54 148.84 342.58 147.82 342.38 146.54 342.13 145.99 341.81 145.55 341.45 145.31 341.19 144.87 341.63 144.19 343.8 142.24 343.93 141.81 343.77 141.44 343.45 141.1 343.23 140.68 343.11 140.25 342.9 138.26 340.58 136.24 337.77 134.33 337.44 134.02 336.56 132.75 349.89 130.69 351.01 130.15 351.69 129.6 353.42 128.73 358.59 127.73 361.51 126.88 362.21 126.85 362.81 127.01 363.44 127.43 364.45 128.49 364.91 128.86 365.54 129.17 366.2 129.28 367.49 128.91 367.92 127.5 368.02 126.3 368.28 125.78 368.55 125.42 370.47 124.55 371.49 123.41 372.96 121.13 373.04 120.4 372.64 120.17 372.1 120.02 371.58 119.83 371.17 119.5 370.85 119.1 370.6 118.62 370.5 118.12 370.7 117.73 371.1 117.52 371.75 117.56 372.1 117.62 374.11 118.41 375.47 118.4 376.12 118.46 380.38 119.54 381.09 120.02 381.59 120.58 382.91 122.58 383.47 122.89 384.41 123.13 388.81 123.47 392.65 123.38 393.82 123.15 396.44 122.02 Z" id="MNG-3327" data-name="Övörhangay"/>
<path d="M 455.04 76.27 454.43 76.25 451.77 75.96 450.81 75.78 449.29 75.37 449.7 74.7 450.26 72.95 450.63 71.01 451.26 68.51 451.38 68.05 451.49 67 451.46 66.44 451.45 66.38 451.37 66.11 451.22 65.83 450.75 65.3 450.6 64.83 450.54 64.32 450.04 63.65 449.9 62.86 450.54 62.49 450.83 62.24 451.4 61.49 451.6 61.3 453.05 60.61 453.4 60.51 453.77 60.28 454.32 59.78 455 58.83 455.11 58.75 455.35 58.63 457.41 58.2 457.57 59.59 457.53 60.15 457.43 60.49 457.35 60.64 457.13 60.89 455.74 61.97 455.24 62.72 455.04 63.32 455.93 63.46 457.02 63.74 457.83 64.12 458.99 64.46 460.01 64.93 461.06 65.27 462.32 65.54 463.11 65.63 463.69 65.6 464.21 65.48 465.16 64.95 465.72 64.53 466.61 63.6 469.49 64.27 470.23 64.5 471.04 64.85 471.97 65.1 472.38 65.29 473.05 65.72 473.37 66 473.67 66.47 473.88 66.96 473.98 67.9 473.87 69.47 473.58 70.75 473.41 72.07 473.77 73.46 473.86 75.36 471.76 75.92 468.96 76.46 465.72 75.65 464.89 75.35 463.71 74.79 462.89 74.02 461.6 74.08 460.98 74.15 459.48 74.49 457.94 75.13 456.99 75.77 456.51 76.02 456.23 76.12 455.65 76.23 455.04 76.27 Z" id="MNG-3328" data-name="Darhan-Uul"/>
<path d="M 516.58 75.56 517.35 76.19 517.98 76.57 518.47 76.94 519.01 77.25 519.48 77.6 520.99 78.56 521.96 79.28 522.88 80.32 523.93 82.02 524.85 83.18 525.03 83.58 525.34 84.83 525.51 85.19 526.03 86.02 526.41 86.83 527.26 89.73 527.86 91.17 528.21 92.19 528.89 93.39 529.35 94.84 529.42 95.46 529.3 96.08 528.89 96.89 528.47 97.46 528.14 97.63 527.71 97.93 527.16 98.54 526.65 99.53 526.24 100.73 525.88 101.27 525.55 101.55 525.34 101.66 524.46 101.96 524.07 102.14 523.17 102.64 521.69 103.64 520.62 104.3 520.18 104.5 519.12 104.91 518.54 105.08 517.34 105.36 515.68 105.58 512.41 105.46 510.62 106.66 509.87 107.31 509.51 107.76 508.94 108.82 508.66 109.62 508.58 110.29 508.66 110.75 509.09 111.81 509.32 112.8 510.14 113.61 510.6 113.87 511.15 114.05 514.29 114.44 513.99 114.84 513.64 115.17 513.47 115.61 513.59 115.89 513.87 116.06 514.18 116.16 514.42 116.28 514.56 116.47 515.05 117.57 515.34 118.07 515.53 118.26 517.09 119.36 517.22 119.52 517.25 119.79 517.78 121.19 518.02 121.49 518.82 122.07 519.12 122.42 520.16 124.38 520.54 125.34 520.87 125.81 521.67 126.52 522.5 127.08 524.19 127.95 522.47 130.84 522.15 131.12 521.28 131.7 519.5 132.4 515.55 133.69 512.51 133.43 508.7 132.92 506.51 132.93 504.9 133.14 503.71 133.38 502.58 133.83 500.08 134.16 499.95 135.15 499.73 136.08 499.57 137.6 499.47 138.01 499.26 138.4 499.08 138.58 498.61 138.88 498.33 138.99 497.75 139.12 495.63 139.32 494.49 139.6 493.99 139.83 493.78 139.99 492.51 141.3 492.15 141.57 491.68 141.76 489.16 142.46 487.93 142.71 487.3 142.78 483.34 142.87 481.36 143.03 479.82 142.34 478.76 141.66 477.33 140.63 476.28 139.97 474.73 139.36 473.89 139.17 471.39 138.84 469.75 138.8 467.59 138.84 462.82 138.8 458.11 138.79 457.79 138.26 457.62 138.09 457.18 137.79 456.65 137.58 454.02 137.03 453.17 136.76 451.97 136.26 450.45 135.22 449.98 134.99 449.71 134.92 449.13 134.85 448.22 134.88 446.61 135.18 445.61 135.44 443.4 137.57 442.89 137.96 441.04 139.64 439.08 142.16 437.9 141.41 436.93 140.93 436.35 140.59 434.84 139.99 433.1 139.52 430.72 138.98 428.41 138.4 426.23 140.34 425.34 140.92 423.94 141.62 420.64 143.61 420.09 143.21 419.41 142.61 418.34 141.92 415.13 140.39 414.75 140.17 414.51 139.93 414.3 139.55 414.2 139.15 414.16 136.75 414.09 136.34 413.9 135.87 413.62 135.4 412.98 134.72 412.46 133.92 412.01 133.53 411.22 132.72 410.25 131.9 411.29 131.15 411.89 130.79 412.36 130.64 413.03 130.57 413.23 129.48 413.28 128.86 413.21 128.29 413.05 127.9 412.84 127.54 412.58 127.23 411.63 126.52 410.1 125.57 409.14 124.86 408.88 124.55 408.47 123.79 408.1 122.33 408.04 121.67 408.09 120.85 408.7 120.04 408.77 119.72 408.69 119.38 408.47 119.1 407.72 118.52 407.16 118.18 406.81 117.87 406.59 117.55 406.13 116.62 407.29 115.94 408.3 115.22 411.51 113.77 412.61 113.49 413.22 113.41 414.51 113.35 416.5 113.36 417.18 112.6 417.52 112.03 420.76 111.98 423.29 111.82 422.76 110.71 421.78 107.97 421.64 107.25 421.58 106.02 422.08 105.69 422.03 105.07 421.89 104.8 421.75 104.69 421.58 104.63 421.22 104.6 420.92 104.67 420.71 104.78 418.13 104.69 416.7 104.54 415.22 104.16 414.19 103.72 414.05 102.42 413.82 101.89 412.64 100.66 411.58 99.87 412.59 98.73 412.91 98.25 413.49 97.07 414.36 96.03 415.39 95.34 416.77 94.7 416.96 94.53 417.24 94.14 417.67 93.04 417.8 91.99 417.78 90.1 417.53 87.91 421.91 89.07 423.67 89.59 424.86 89.86 426.65 90.19 428.26 90.67 429.58 90.9 430.17 90.91 430.72 90.85 431.17 90.7 431.78 90.42 433.38 89.87 433.97 89.76 435.43 89.58 435.93 89.46 436.76 89.08 438.12 88.57 439.85 88.05 441.51 87.45 441.02 86.65 440.6 85.35 440.27 84.67 441.93 83.82 443.13 83.28 443.73 83.09 445.37 82.72 449.94 81.97 452.33 82.31 453.18 82.5 453.98 82.89 454.39 83.24 454.54 83.44 454.7 83.84 454.69 84.46 454.27 85.47 453.76 86.36 454.02 86.57 454.47 86.84 455.74 87.36 456.9 87.05 457.52 86.79 458.29 86.39 461.33 87.56 465.17 88.8 465.66 89.1 465.91 89.51 467.29 90.01 468.24 90.27 470.51 90.59 471.32 90.61 472.19 90.46 472.91 90.21 473.95 89.56 474.58 89.11 475.29 88.71 475.73 88.55 476.55 88.46 478.31 88.54 478.81 88.49 480.74 88.17 481.67 88.11 482.58 88.18 483.17 88.32 483.67 88.49 484.09 88.73 485.13 89.59 488.1 88.97 489.58 88.62 490.62 88.3 491.38 87.93 491.84 87.8 492.33 87.79 493.61 87.91 494.15 87.88 494.66 87.7 494.87 87.56 495.14 87.23 495.51 86.5 496.01 85.7 496.44 84.69 497 83.71 497.1 83.11 496.99 82.72 496.69 82.37 496.47 82.23 496 82.03 494.42 81.54 493.7 81.13 493.34 80.79 492.03 79.23 493.8 78.1 495.59 77.26 496.37 77.06 497.86 76.81 498.56 76.74 500.37 76.71 501.38 76.79 502.02 76.9 502.91 77.12 503.49 77.31 505.85 78.41 506.75 77.85 507.36 77.4 507.77 77.15 509.33 76.51 511.11 75.96 511.98 75.79 514.83 75.55 515.62 75.52 516.58 75.56 Z M 470.51 110.6 474.22 110.36 477.12 110.01 477.74 109.99 479.66 110.07 480.64 110.17 481.6 110.43 482.47 110.86 484.38 111.99 485 112.23 485.71 112.38 487.19 112.48 489.08 112.44 490.24 112.32 491.51 112.07 491.61 111.49 492.29 109.15 492.56 107.96 493.16 106.34 493.19 105.95 493.04 105.58 492.67 105.25 491.96 104.96 490.38 104.56 488.76 104.35 488.14 104.21 487.57 103.99 487.08 103.7 486.67 103.38 486.02 102.75 485.28 102.22 483.75 100.56 482.49 99.54 481.96 98.91 481.31 98.01 478.86 98.69 476.81 99.12 475.91 99.17 475.33 99.08 473.91 98.65 473.25 98.52 471.17 98.26 468.58 97.82 468.71 97.81 462.89 97.08 463.38 98.18 463.77 99.34 464.52 101.01 464.72 104.25 465.33 104.8 465.67 105.18 466.1 105.94 466.43 106.78 466.43 108.73 466.54 109.17 466.79 109.57 466.99 109.75 467.59 110 469.65 110.33 470.51 110.6 Z" fill-rule="evenodd" id="MNG-3329" data-name="Töv"/>
<path d="M 515.68 105.58 515.58 105.91 515.15 106.4 515.02 106.68 515.34 107.69 515.37 108.02 515.34 108.8 515.46 109.04 515.71 109.22 515.87 109.4 515.76 109.65 515.74 109.78 515.72 110.34 515.68 110.6 515.49 111.02 514.59 112.2 514.37 112.37 514.11 112.49 513.9 112.64 513.82 112.88 513.88 113.2 514.2 113.54 514.32 113.82 514.29 114.44 511.15 114.05 510.6 113.87 510.14 113.61 509.32 112.8 509.09 111.81 508.66 110.75 508.58 110.29 508.66 109.62 508.94 108.82 509.51 107.76 509.87 107.31 510.62 106.66 512.41 105.46 515.68 105.58 Z" id="MNG-3330" data-name="Govĭ-Sümber"/>
<path d="M 470.51 110.6 469.65 110.33 467.59 110 466.99 109.75 466.79 109.57 466.54 109.17 466.43 108.73 466.43 106.78 466.1 105.94 465.67 105.18 465.33 104.8 464.72 104.25 464.52 101.01 463.77 99.34 463.38 98.18 462.89 97.08 468.71 97.81 468.58 97.82 471.17 98.26 473.25 98.52 473.91 98.65 475.33 99.08 475.91 99.17 476.81 99.12 478.86 98.69 481.31 98.01 481.96 98.91 482.49 99.54 483.75 100.56 485.28 102.22 486.02 102.75 486.67 103.38 487.08 103.7 487.57 103.99 488.14 104.21 488.76 104.35 490.38 104.56 491.96 104.96 492.67 105.25 493.04 105.58 493.19 105.95 493.16 106.34 492.56 107.96 492.29 109.15 491.61 111.49 491.51 112.07 490.24 112.32 489.08 112.44 487.19 112.48 485.71 112.38 485 112.23 484.38 111.99 482.47 110.86 481.6 110.43 480.64 110.17 479.66 110.07 477.74 109.99 477.12 110.01 474.22 110.36 470.51 110.6 Z" id="MNG-3331" data-name="Ulaanbaatar"/>
<path d="M 719.06 58.21 713.82 65.82 713.44 66.4 708.23 74.13 703.03 81.85 702.92 82.29 703.27 83.15 703.28 83.6 702.79 84.4 697.14 90.28 696.91 90.69 696.79 91.2 696.79 91.7 697.36 96.64 697.13 97.42 696.4 97.87 690.59 99.73 690.04 100.17 690.05 100.4 690.82 103.61 691.22 105.09 691.56 105.67 692.16 106.23 698.43 110.74 699.97 111.27 701.42 110.65 704.18 108.22 706.59 107.16 708.14 106.83 712.73 107.52 714.48 107.49 720.73 106.56 722.48 106.5 723.25 106.61 726.22 107.46 728.07 107.91 728.62 108.14 734.76 112.01 735.84 112.09 736.81 111.23 737.72 110.12 738.62 109.45 739.97 108.73 745.29 103.99 745.91 103.6 747.11 103.31 751.02 103.49 751.63 103.43 753.29 102.95 754.74 102.75 756.22 102.73 756.81 102.86 758 103.36 758.64 103.48 763.42 103.69 765.15 104.27 766.71 105.55 769.39 108.55 770.73 109.48 775.82 111 777.98 111.53 778.57 111.83 778.91 112.2 779.09 112.67 779.39 114.45 779.53 114.87 779.82 115.15 780.41 115.4 782.73 116.01 783.72 116.22 784.19 116.43 784.38 116.78 784.26 117.02 783.67 117.59 783.49 117.95 784.46 118.14 788.31 120.57 788.67 120.87 789 121.31 789.23 121.72 789.53 122.02 791.07 122.33 792.11 122.88 793.86 124.28 794.58 125.05 795.2 125.9 795.37 126.39 795.4 127.85 795.48 128.14 795.53 128.28 795.6 128.41 795.96 128.78 796.78 129.36 797.13 129.67 797.26 129.89 797.33 130.08 797.42 130.27 797.64 130.45 797.91 130.49 798.31 130.52 798.65 130.58 798.74 130.75 798.59 131.01 798.45 131.19 798.37 131.39 798.36 131.7 798.41 131.82 798.5 131.92 798.62 132 798.75 132.05 798.9 132.15 798.88 132.27 798.8 132.42 798.78 132.59 798.79 133.15 798.48 133.94 798.41 134.36 798.51 134.58 798.91 135.02 799 135.23 798.93 135.46 798.78 135.64 798.59 135.81 798.15 136.34 797.7 136.68 797.2 136.9 796.77 136.88 796.25 136.7 795.9 136.78 795.6 137.08 795.21 137.55 794.86 137.83 794.35 138.09 793.81 138.29 793.37 138.37 792.84 138.25 791.97 137.75 791.44 137.67 790.79 137.68 788.94 137.47 787.74 137.48 785.51 137.84 784.36 137.87 778.05 136.65 777.42 136.45 776.85 136.09 776.13 135.07 775.69 134.68 775.19 134.76 774.57 135.29 774.2 135.45 773.79 135.34 773.52 135 773.41 134.59 773.21 134.23 772.69 134.05 771.94 134.24 771.35 134.74 770.39 135.9 769.56 136.26 768.68 136.09 767.76 135.74 766.81 135.54 766.46 135.6 765.78 135.93 765.39 136.03 763.42 136.03 762.49 135.9 760.9 135.33 760.02 135.13 759.16 135.06 758.37 135.11 757.61 135.3 756.81 135.66 755.89 136.21 755.55 136.31 754.23 136.35 753.78 136.47 751.83 137.49 751.02 137.58 749.81 137.78 749.23 137.97 748.68 138.25 748.21 138.65 747.55 139.58 747.16 139.96 746.68 140.14 744.16 140.34 743.59 140.24 742.4 139.76 741.96 139.39 741.33 138.36 740.98 138.07 740.69 138.12 739.54 138.69 739.34 138.72 739.09 138.68 738.62 138.54 736.66 138.87 737.07 139.65 737.12 140.03 736.95 140.37 736.05 141.24 735.76 141.92 735.65 143.63 735.26 144.18 734.38 144.36 725.85 143.95 722.72 143.46 722.29 143.45 722.04 143.54 721.56 143.97 720 144.89 719.63 145 718.09 145.14 717.06 145.37 716.52 145.65 716.52 145.64 716.52 145.64 714.46 143.97 709.39 138.25 709.02 137.96 708.62 137.76 708.15 137.64 697.62 137.96 692.93 138.65 681.51 138.92 679.32 139.36 675.1 140.84 672.15 137.02 670.66 135.51 669.93 134.94 669.18 134.48 668.46 134.12 667.7 133.83 664.9 133.05 664.47 132.88 664.09 132.63 663.78 132.25 663.55 131.76 663.41 131.13 663.49 129.12 664.35 124.61 664.13 123.95 663.79 123.66 663.28 123.35 658.93 121.74 647.6 115.56 632.54 113.31 627.75 111.77 626.43 111.59 625.7 111.59 624.96 111.65 624.16 111.81 619.9 113.39 620.17 110.41 619.94 108.14 618.88 105.03 617.85 103.57 617.51 103.22 616.23 101.53 615.63 97.29 615.96 95.62 616.55 94.57 616.62 93.1 616.28 91.72 615.85 90.72 614.36 88.2 609.55 82.27 608.59 80.76 608.17 79.88 608.43 79.35 609.01 78.13 609.03 77.63 608.91 76.97 608.01 75.13 607.18 71.78 607.09 70.68 607.19 70.55 607.3 70.45 607.68 70.18 607.9 69.95 608.01 69.8 608 69.69 607.88 69.52 606.09 67.8 606 67.72 613.59 65.5 614.61 65.38 617.36 65.57 619.52 66.33 620.27 66.44 621.07 66.4 622.14 66.19 624.4 65.44 625.84 64.58 626.37 64.34 626.92 64.17 627.5 64.06 628.76 64.03 629.18 63.85 629.45 63.31 629.51 62.42 629.59 62.03 629.84 61.58 631.56 59.35 632.2 58.74 632.94 58.24 637.98 55.75 638.64 55.16 639.05 54.88 640.33 54.29 640.77 54 642.05 53.33 646.33 51.87 646.85 51.8 647.91 51.92 648.43 51.92 648.75 51.82 651.81 49.84 652.31 49.64 653.35 49.43 653.85 49.26 655.41 48.26 657.44 47.47 659.58 46.96 660.74 47.07 663.02 47.82 664.21 48.02 668.84 47.59 671.17 47.96 677.22 50.24 677.66 50.53 677.98 50.85 678.51 51.57 678.86 51.9 682.5 54.53 686.43 56.42 686.9 56.53 688.45 56.52 689.01 56.62 689.9 56.63 691.62 56.46 694.23 56.86 695.05 56.86 695.91 56.68 703.42 53.86 705.45 53.47 707.49 53.48 709.54 54 716.36 55.76 717.4 56.37 718.29 57.2 719.06 58.21 Z" id="MNG-3332" data-name="Dornod"/>
<path d="M 716.52 145.65 716.18 145.83 715.69 146.61 715.47 147.06 715.11 147.42 710.95 150.42 707.38 155.32 707.22 156 707.57 156.77 708.09 157.34 708.33 157.92 707.8 158.75 706.3 160.26 705.66 160.62 704.44 161.07 704.04 161.14 703.66 161.15 702.38 161.02 702.14 161.09 701.66 161.49 696.32 164.7 694.46 166.21 693.84 166.58 693.1 166.83 689.01 167.61 685.65 168.06 680.42 168.06 675.77 168.58 674.93 168.48 670.77 167.3 669.92 167.25 669.08 167.36 665.72 168.29 665.47 168.41 665.36 168.65 665.17 169.77 664.94 170.33 664.21 171.42 662.87 172.85 657.73 176.31 656.54 176.85 656.18 177.1 655.93 177.37 655.46 178.02 654.69 178.8 653.85 179.32 652.9 179.65 651.81 179.85 650.34 179.94 649.73 180.12 648.45 181.12 645.92 182.41 644.35 183.6 643.43 184.14 642.67 184.3 640.88 184.17 640.5 184.06 639.8 183.65 639.41 183.53 630.27 182.95 628.09 182.29 627.01 182.28 621.43 181.19 618.1 180.11 617.4 179.74 616.87 179.24 615.86 178.01 613.82 176.55 613.11 176.21 612.29 176.09 605.54 176.18 603.15 175.68 602.49 175.69 602.49 175.68 602.48 175.57 602.35 174.14 602.35 173.02 602.46 171.8 602.39 171.25 602.15 170.78 601.52 170.2 601 169.87 600.35 169.55 599.78 169.2 599.33 168.69 599.06 167.14 598.78 166.53 597.97 166.02 597.3 165.73 596.92 165.42 596.78 165.24 596.75 164.46 597.19 157.89 596.84 156.63 596.32 155.48 594.07 152.07 593.7 151.09 593.42 150.63 592.97 150.26 583.79 147.34 583.65 146.58 583.76 146.26 584.01 145.84 585.57 144.24 585.8 143.85 585.91 143.36 585.84 142.86 585.68 142.32 584.91 140.47 584.67 139.66 584.59 139.12 584.68 137.17 585.07 136.22 585.68 135.33 587.97 132.56 589.71 130.2 590.38 128.51 591.19 123.87 591.48 123.15 591.86 122.53 592.72 121.53 595.22 119.54 595.99 119.09 597.06 118.61 598.14 118.29 598.54 118.22 599 118.21 602.15 118.63 605.11 118.76 604.64 117.29 604.48 116.15 604.5 115.37 604.66 114.14 604.77 113.64 604.91 113.24 605.1 112.87 605.35 112.53 605.71 112.17 606.15 111.81 606.67 111.48 608.09 110.82 615.71 108.85 616.98 108.77 617.34 108.68 617.95 108.41 618.12 108.37 619.94 108.14 620.17 110.41 619.9 113.39 624.16 111.81 624.96 111.65 625.7 111.59 626.43 111.59 627.75 111.77 632.54 113.31 647.6 115.56 658.93 121.74 663.28 123.35 663.79 123.66 664.13 123.95 664.35 124.61 663.49 129.12 663.41 131.13 663.55 131.76 663.78 132.25 664.09 132.63 664.47 132.88 664.9 133.05 667.7 133.83 668.46 134.12 669.18 134.48 669.93 134.94 670.66 135.51 672.15 137.02 675.1 140.84 679.32 139.36 681.51 138.92 692.93 138.65 697.62 137.96 708.15 137.64 708.62 137.76 709.02 137.96 709.39 138.25 714.46 143.97 716.52 145.64 716.52 145.64 716.52 145.65 Z" id="MNG-3333" data-name="Sühbaatar"/>
</g>
</svg>