<?xml version="1.0"?>
<svg xmlns="http://www.w3.org/2000/svg" version="1.2" baseProfile="tiny" width="800" height="745" viewBox="0 0 800 745" stroke-linecap="round" stroke-linejoin="round">
<g id="ne_10m_admin_1_states_provinces">
<path d="M 728.06 84.33 718.17 76.14 709.97 69.11 695.66 63.58 701.24 58.19 717 48.02 728.13 34.54 723.76 25.44 734.48 21.55 750.5 18.22 757.17 14.48 764.07 13.21 773.1 18.45 777.28 17.94 788.08 5.34 794.22 1 798.45 5.2 799 19.28 797.04 36.69 792.79 48.97 786.47 47.49 782.96 47.49 779.47 56.01 774.48 56.96 768.83 55.06 763.24 55.2 762.13 57.7 753.64 68.87 751.63 69.31 738.47 77.32 734.34 80.59 728.06 84.33 Z" id="TTO-50" data-name="Eastern Tobago"/>
<path d="M 728.06 84.33 720.88 84.26 714.03 82.88 708.67 82.67 674.37 99.71 664.3 102.06 649.02 115.08 639.44 118.89 635.42 109.82 626.91 114.04 619.01 112.73 614.37 107.14 615.69 98.53 620.49 96.15 628.36 94.91 635.7 92 638.91 84.61 644.54 77.27 692.56 46.25 702.81 36.27 708.67 31.98 715.87 28.31 723.76 25.44 728.13 34.54 717 48.02 701.24 58.19 695.66 63.58 709.97 69.11 718.17 76.14 728.06 84.33 Z" id="TTO-5090" data-name="Western Tobago"/>
<path d="M 249.83 339.37 250.05 341.71 251.02 353.55 247.79 366.68 237.74 384.07 229.4 382.84 224.71 383.19 218.65 388.03 216.37 389.04 200.17 381.75 188.03 379.21 159.1 377.27 155.5 376.17 152.71 373.12 149.13 366.52 178.61 346.43 186.27 343.27 209.52 345.21 235.63 339.18 249.83 339.37 249.83 339.37 Z" id="TTO-51" data-name="Diego Martin"/>
<path d="M 232.42 631.25 234.88 634.99 250.34 648.42 257.44 652.82 260.34 658.07 261.91 662.11 261.66 671.87 259.36 682.25 256.71 687.73 249.61 695.97 246.72 700.78 244.67 706.97 241.86 728.04 219.19 724.28 213.88 725.57 197.72 731.99 191.38 732.63 180.23 735.26 174.48 735.91 166.47 734.69 160.84 731.76 155.66 727.97 149.13 724.28 138.58 721.18 126.95 719.84 77.8 719.75 64.34 721.32 54.05 726.22 45.74 732.61 34.7 739.1 23.09 743.48 13.19 743.62 1 735.45 6.54 727.76 24.82 718.27 27.52 716.15 33.76 714.26 52.15 710.84 55.89 707.26 61.8 698.75 70.67 692.1 80.16 687.53 123.9 674.65 126.56 673.38 126.56 673.37 128.4 675.86 135.27 686.71 140.68 686.24 147.13 684.07 159.21 674.04 162.66 669.29 164.94 665.45 170.04 658.42 170.7 655.4 169.18 652.64 166.18 649.59 165.18 648.3 165.48 648.05 164.99 630.95 172.19 627.21 180.78 627.07 210.1 632.05 232.42 631.25 232.42 631.25 Z" id="TTO-52" data-name="Siparia"/>
<path d="M 372.13 422.91 367.13 422.8 361.91 421.13 360.52 420.22 360.2 419.22 360.39 418.13 361.05 417.11 363.19 415.12 364.09 413.88 364.72 410.69 364.64 409.66 364.49 408.61 364.55 407.55 364.75 406.64 365.21 405.79 365.72 405.21 366.04 404.53 365.87 403.83 365.38 402.92 365.3 401.54 365.94 396.47 373.97 404.03 374.78 407.96 377.26 415.94 377.4 419.37 376.52 421.56 374.81 422.27 372.13 422.91 Z" id="TTO-53" data-name="Arima"/>
<path d="M 506.06 504.44 473.8 501.1 416.03 508.58 405.01 505.5 404.17 503.01 403.83 498.11 408.51 485.36 408.63 476.36 404.23 471.78 402.46 467.18 400.8 443.26 398.47 437.19 392.19 431.94 406.81 425.08 409.18 421.51 412.75 417.08 413.67 412.95 413.65 408.9 412.47 405.41 408.22 399.93 406.06 395.88 404.21 386.53 406.63 377.94 406.85 367.91 406.3 363.17 403.29 360.59 400.86 359.41 397.3 359.18 394.38 358.24 391.97 357.18 393.06 354.96 409.13 353.37 414.29 351.79 417.51 349.42 426.77 339.13 430.48 336.57 435.33 334.2 438.69 331.09 438.82 326.05 438.25 321.01 432.78 313.15 430.53 311.39 430.53 311.39 440.02 304.28 473.1 300.33 483.32 296.06 556.89 287.94 580.46 292.55 556.36 334.34 526.58 370.72 516.03 368.82 509.32 379.7 506.27 396.66 506.89 412.96 517.9 447.45 520.19 464.26 503.78 478.17 504.12 494.1 506.06 504.44 Z" id="TTO-54" data-name="Sangre Grande"/>
<path d="M 506.06 504.44 511.9 535.72 514.81 543.48 518.6 550.68 528.75 565.55 549.83 580.25 533.42 597.71 526.28 627.05 525.98 660.19 530.14 689.05 517.95 686.42 504.28 690.53 491.38 698.38 481.34 706.85 471.32 713.47 458.44 718.23 432.93 724.28 427.09 724.83 427.08 724.83 418.96 636.93 409.59 620.74 404.3 614.29 399.52 613.3 397.43 608.49 393.78 605.97 389.69 593.25 397.82 581.58 402.41 566.1 405.81 533.61 408.44 522.36 416.03 508.58 473.8 501.1 506.06 504.44 Z" id="TTO-55" data-name="Rio Claro-Mayaro"/>
<path d="M 295.4 446.22 277.67 446.95 266.56 462.2 265.65 462.2 265.64 462.2 265.68 450.82 259.94 430 246.34 412.96 250.52 409.48 246.65 406.87 246.65 406.85 248.97 394.97 248.04 392.51 245.81 388.29 237.74 384.07 247.79 366.68 251.02 353.55 250.05 341.71 249.83 339.37 252.3 339.39 259.41 336.18 263.75 330.5 266.65 328.17 269.56 335.17 273.79 335.17 273.95 333.27 273.79 327.41 277.27 327.41 277.66 330.27 278.61 331.77 279.95 333 281.52 335.17 277.27 339.39 281.98 338.28 285.31 335.65 287.52 332.95 288.91 331.64 299.85 331.29 300.91 331.64 305.57 327.46 316.31 315.04 319.91 311.95 327.83 311.3 329.65 314.91 333.91 329.1 338.53 338.48 337.9 344.81 334.31 349.06 330.88 350.12 321.04 347.8 316.91 347.57 312.73 348.71 309.1 349.06 293.95 346.92 289.1 348.36 285.94 354.02 284.75 363.87 288.79 388.79 288.6 402.92 295.4 446.22 Z" id="TTO-56" data-name="San Juan-Laventille"/>
<path d="M 389.69 593.25 393.78 605.97 397.43 608.49 399.52 613.3 404.3 614.29 409.59 620.74 418.96 636.93 427.08 724.83 419.15 725.62 384.34 720.03 371.85 721.11 335.72 728.15 312.8 726.17 312.8 726.14 316.35 644.14 311.91 638.28 305.68 632.65 277.4 620.51 285.14 591.6 296.5 590.43 315.9 582.4 334.91 578.82 351.15 578.53 361.05 580.17 368.29 582.05 373.14 584.27 377.73 585.65 384.65 588.55 389.69 593.25 Z" id="TTO-57" data-name="Princes Town"/>
<path d="M 416.03 508.58 408.44 522.36 405.81 533.61 402.41 566.1 397.82 581.58 389.69 593.25 384.65 588.55 377.73 585.65 373.14 584.27 368.29 582.05 361.05 580.17 351.15 578.53 334.91 578.82 315.9 582.4 296.5 590.43 285.14 591.6 270.09 592.57 267.12 591.78 267.12 591.77 266.19 586.51 263.33 577.32 261.81 566.68 260.77 563.61 255.8 559.5 254.05 557.01 253.82 553.91 255.37 553.08 257.3 552.69 258.27 551.03 257.72 546.62 254.42 535.52 252.3 531.64 251.05 523.47 254.28 512.27 261.81 494.68 265.59 473.12 265.6 470.99 265.62 470.99 265.65 470.99 273.56 471.81 277.29 472.75 281.49 475.39 286.89 476.42 291.18 479.94 298.07 482.05 312.57 481.02 316.53 477.47 317.22 471.81 321.09 458.71 318.55 446.66 321.03 442.2 323.8 442.2 329.32 443.35 336.45 442.97 343.47 439.83 351.46 438.04 375.95 437.01 392.19 431.94 398.47 437.19 400.8 443.26 402.46 467.18 404.23 471.78 408.63 476.36 408.51 485.36 403.83 498.11 404.17 503.01 405.01 505.5 416.03 508.58 Z" id="TTO-58" data-name="Couva-Tabaquite-Talparo"/>
<path d="M 312.8 726.17 291.03 724.28 242.46 728.15 241.86 728.04 241.86 728.04 244.67 706.97 246.72 700.78 249.61 695.97 256.71 687.73 259.36 682.25 261.66 671.87 261.91 662.11 260.34 658.07 257.44 652.82 250.34 648.42 234.88 634.99 232.42 631.25 234.1 631.18 240.48 630.95 246.89 628.48 249.93 626.05 250.52 626.78 277.4 620.51 305.68 632.65 311.91 638.28 316.35 644.14 312.8 726.14 312.8 726.17 Z" id="TTO-59" data-name="Penal-Debe"/>
<path d="M 126.56 673.37 148.3 663.08 165.18 648.31 165.18 648.3 166.18 649.59 169.18 652.64 170.7 655.4 170.04 658.42 164.94 665.45 162.66 669.29 159.21 674.04 147.13 684.07 140.68 686.24 135.27 686.71 128.4 675.86 126.56 673.37 Z" id="TTO-60" data-name="Point Fortin"/>
<path d="M 430.53 311.39 432.78 313.15 438.25 321.01 438.82 326.05 438.69 331.09 435.33 334.2 430.48 336.57 426.77 339.13 417.51 349.42 414.29 351.79 409.13 353.37 393.06 354.96 391.97 357.18 394.38 358.24 397.3 359.18 400.86 359.41 403.29 360.59 406.3 363.17 406.85 367.91 406.63 377.94 404.21 386.53 406.06 395.88 408.22 399.93 412.47 405.41 413.65 408.9 413.67 412.95 412.75 417.08 409.18 421.51 406.81 425.08 392.19 431.94 375.95 437.01 351.46 438.04 343.47 439.83 336.45 442.97 329.32 443.35 323.8 442.2 321.03 442.2 318.55 446.66 295.4 446.22 288.6 402.92 288.79 388.79 284.75 363.87 285.94 354.02 289.1 348.36 293.95 346.92 309.1 349.06 312.73 348.71 316.91 347.57 321.04 347.8 330.88 350.12 334.31 349.06 337.9 344.81 338.53 338.48 333.91 329.1 329.65 314.91 327.83 311.3 327.83 311.3 329.81 311.14 359.87 314.74 425.7 315.02 430.53 311.39 Z M 372.13 422.91 374.81 422.27 376.52 421.56 377.4 419.37 377.26 415.94 374.78 407.96 373.97 404.03 365.94 396.47 365.3 401.54 365.38 402.92 365.87 403.83 366.04 404.53 365.72 405.21 365.21 405.79 364.75 406.64 364.55 407.55 364.49 408.61 364.64 409.66 364.72 410.69 364.09 413.88 363.19 415.12 361.05 417.11 360.39 418.13 360.2 419.22 360.52 420.22 361.91 421.13 367.13 422.8 372.13 422.91 Z" fill-rule="evenodd" id="TTO-61" data-name="Tunapuna/Piarco"/>
<path d="M 277.4 620.51 250.52 626.78 249.93 626.05 254.47 622.43 261.32 614.72 265.68 607.38 267.83 596.04 267.12 591.78 270.09 592.57 285.14 591.6 277.4 620.51 Z" id="TTO-62" data-name="San Fernando"/>
<path d="M 318.55 446.66 321.09 458.71 317.22 471.81 316.53 477.47 312.57 481.02 298.07 482.05 291.18 479.94 286.89 476.42 281.49 475.39 277.29 472.75 273.56 471.81 265.65 470.99 265.62 470.99 265.6 470.99 265.64 462.2 265.65 462.2 266.56 462.2 277.67 446.95 295.4 446.22 318.55 446.66 Z" id="TTO-63" data-name="Chaguanas"/>
<path d="M 237.74 384.07 245.81 388.29 248.04 392.51 248.97 394.97 246.65 406.85 246.65 406.87 227.87 394.24 216.38 389.05 216.37 389.04 218.65 388.03 224.71 383.19 229.4 382.84 237.74 384.07 Z" id="TTO-64" data-name="Port of Spain"/>
</g>
</svg>