<?xml version="1.0"?>
<svg xmlns="http://www.w3.org/2000/svg" version="1.2" baseProfile="tiny" width="800" height="573" viewBox="0 0 800 573" stroke-linecap="round" stroke-linejoin="round">
<g id="ne_10m_admin_1_states_provinces">
<path d="M 524.64 376.37 533.88 377.6 546.8 376.99 552.34 383.76 559.73 387.45 571.43 389.3 569.58 396.07 564.66 401.61 541.26 402.84 528.34 403.46 521.57 409 511.1 410.84 500.02 409.61 489.56 407.15 477.86 409 474.17 399.15 474.78 392.38 475.4 384.37 477.25 378.83 478.48 371.45 485.25 368.37 498.18 367.14 509.87 371.45 517.26 375.76 524.64 376.37 Z" id="MLT-5920" data-name="Attard"/>
<path d="M 477.86 409 471.71 408.38 461.24 408.38 456.32 404.69 459.4 400.99 466.78 399.15 474.17 399.15 477.86 409 Z" id="MLT-5921" data-name="Mdina"/>
<path d="M 474.17 399.15 466.78 399.15 459.4 400.99 456.32 404.69 443.39 400.99 442.16 392.38 448.32 386.84 458.78 386.22 468.01 386.22 475.4 384.37 474.78 392.38 474.17 399.15 Z" id="MLT-5922" data-name="Mtarfa"/>
<path d="M 478.48 371.45 477.25 378.83 475.4 384.37 468.01 386.22 458.78 386.22 448.32 386.84 442.16 392.38 443.39 400.99 456.32 404.69 461.24 408.38 471.71 408.38 477.86 409 477.25 417.61 480.94 420.08 485.25 441.62 477.86 449.62 464.94 451.47 448.32 449.01 442.78 442.85 441.54 437.31 436.62 433 425.54 433 404 435.46 389.22 434.85 378.02 440.35 374.35 435.64 367.74 429.38 338.28 416.42 331.85 406.52 331.85 365.91 341.21 370.22 349.21 368.37 357.83 375.76 365.22 376.37 370.14 373.29 376.3 367.75 384.3 367.75 391.07 364.68 399.07 367.75 405.84 367.14 412 360.98 424.92 359.75 439.7 357.9 450.78 357.9 460.01 355.44 466.17 361.6 471.71 365.91 478.48 371.45 Z" id="MLT-5923" data-name="Rabat"/>
<path d="M 458.16 349.29 460.01 355.44 450.78 357.9 439.7 357.9 424.92 359.75 412 360.98 405.84 367.14 399.07 367.75 391.07 364.68 384.3 367.75 376.3 367.75 370.14 373.29 365.22 376.37 357.83 375.76 349.21 368.37 341.21 370.22 331.85 365.91 331.85 342.01 328.25 313.13 341.21 311.12 354.75 307.43 371.37 301.27 378.76 296.35 392.3 295.12 396.61 290.81 408.3 293.27 412 296.96 408.92 303.12 403.38 307.43 404 313.58 410.77 314.82 426.16 316.05 431.08 321.59 433.54 332.67 434.77 340.67 442.16 345.59 451.39 348.67 458.16 349.29 Z" id="MLT-5924" data-name="Mġarr"/>
<path d="M 463.3 225.16 450.78 251.41 429.85 256.34 416.31 263.72 399.69 268.03 393.53 271.73 392.3 280.96 396.61 290.81 392.3 295.12 378.76 296.35 371.37 301.27 354.75 307.43 341.21 311.12 328.25 313.13 322.71 268.61 310.85 235.59 289.01 214.17 315.43 194.95 342.01 181.75 371.13 174.04 403.98 171.5 403.98 186.91 385.02 189.79 372.82 194.87 345.9 214.17 463.3 225.16 Z" id="MLT-5925" data-name="Mellieħa"/>
<path d="M 530.75 236.14 514.8 260.03 501.87 277.27 495.1 287.12 493.25 295.73 497.56 303.74 497.56 309.89 494.48 312.97 497.56 316.66 504.95 324.05 498.79 330.2 493.25 333.9 487.71 330.2 485.25 323.43 479.71 319.74 471.71 314.82 460.63 312.97 444.01 315.43 439.7 318.51 442.16 320.97 450.16 320.36 456.32 322.2 458.78 328.36 466.17 332.05 473.55 334.51 475.4 338.82 471.09 341.9 463.09 345.59 458.16 349.29 451.39 348.67 442.16 345.59 434.77 340.67 433.54 332.67 431.08 321.59 426.16 316.05 410.77 314.82 404 313.58 403.38 307.43 408.92 303.12 412 296.96 408.3 293.27 396.61 290.81 392.3 280.96 393.53 271.73 399.69 268.03 416.31 263.72 429.85 256.34 450.78 251.41 463.3 225.16 510.48 229.58 530.75 236.14 Z" id="MLT-5926" data-name="San Pawl il-Bahar"/>
<path d="M 504.95 324.05 513.56 325.28 517.87 330.82 519.72 336.36 520.95 342.52 521.57 348.67 524.03 354.21 520.34 357.9 520.34 364.68 524.64 376.37 517.26 375.76 509.87 371.45 498.18 367.14 485.25 368.37 478.48 371.45 471.71 365.91 466.17 361.6 460.01 355.44 458.16 349.29 463.09 345.59 471.09 341.9 475.4 338.82 473.55 334.51 466.17 332.05 458.78 328.36 456.32 322.2 450.16 320.36 442.16 320.97 439.7 318.51 444.01 315.43 460.63 312.97 471.71 314.82 479.71 319.74 485.25 323.43 487.71 330.2 493.25 333.9 498.79 330.2 504.95 324.05 Z" id="MLT-5927" data-name="Mosta"/>
<path d="M 586.25 269.46 582.51 292.04 581.28 305.58 565.89 306.2 556.65 309.28 551.73 312.97 549.27 324.66 549.88 332.67 557.88 339.44 551.73 346.82 555.42 354.21 548.04 357.29 535.72 359.14 524.03 354.21 521.57 348.67 520.95 342.52 519.72 336.36 517.87 330.82 513.56 325.28 504.95 324.05 497.56 316.66 494.48 312.97 497.56 309.89 497.56 303.74 493.25 295.73 495.1 287.12 501.87 277.27 514.8 260.03 530.75 236.14 545.02 240.76 586.25 269.46 Z" id="MLT-5928" data-name="Naxxar"/>
<path d="M 548.04 357.29 552.34 364.06 546.8 376.99 533.88 377.6 524.64 376.37 520.34 364.68 520.34 357.9 524.03 354.21 535.72 359.14 548.04 357.29 Z" id="MLT-5929" data-name="Lija"/>
<path d="M 564.66 368.37 569.58 374.52 572.66 381.91 571.43 389.3 559.73 387.45 552.34 383.76 546.8 376.99 552.34 364.06 564.66 368.37 Z" id="MLT-5930" data-name="Balzan"/>
<path d="M 580.66 346.82 581.28 364.06 573.27 366.52 564.66 368.37 552.34 364.06 548.04 357.29 555.42 354.21 551.73 346.82 557.88 339.44 565.89 340.05 572.66 341.9 580.66 346.82 Z" id="MLT-5931" data-name="Iklin"/>
<path d="M 583.74 341.9 580.66 346.82 572.66 341.9 565.89 340.05 557.88 339.44 549.88 332.67 549.27 324.66 551.73 312.97 556.65 309.28 565.89 306.2 565.89 312.35 575.12 315.43 576.97 325.28 581.89 332.05 583.74 341.9 Z" id="MLT-5932" data-name="Għargħur"/>
<path d="M 626.21 324.66 629.9 328.36 629.29 335.74 621.9 340.67 617.59 336.98 612.05 341.28 601.59 344.36 589.28 343.75 583.74 341.9 581.89 332.05 576.97 325.28 575.12 315.43 565.89 312.35 565.89 306.2 581.28 305.58 591.12 309.28 598.51 314.82 600.97 324.05 608.98 325.9 626.21 324.66 Z" id="MLT-5933" data-name="Swieqi"/>
<path d="M 662.27 303.12 641.6 316.66 626.83 319.12 626.21 324.66 608.98 325.9 600.97 324.05 598.51 314.82 591.12 309.28 581.28 305.58 582.51 292.04 586.25 269.46 614.95 289.43 662.27 303.12 Z" id="MLT-5934" data-name="Pembroke"/>
<path d="M 680.91 315.15 651.61 335.52 644.48 352.56 635.5 356.59 629.3 351.01 623.11 347.6 621.9 340.67 629.29 335.74 629.9 328.36 626.21 324.66 626.83 319.12 641.6 316.66 662.27 303.12 675.57 306.96 680.91 315.15 Z" id="MLT-5935" data-name="San Giljan"/>
<path d="M 688.27 364.61 674.22 368.98 674.85 362.17 653.78 358.45 644.48 352.56 651.61 335.52 680.91 315.15 686.06 323.04 688.43 343.79 688.27 364.61 Z" id="MLT-5936" data-name="Sliema"/>
<path d="M 621.9 340.67 623.11 347.6 629.3 351.01 635.5 356.59 629.92 365.58 609.16 366.51 601.42 368.67 581.28 364.06 580.66 346.82 583.74 341.9 589.28 343.75 601.59 344.36 612.05 341.28 617.59 336.98 621.9 340.67 Z" id="MLT-5937" data-name="San Ġwann"/>
<path d="M 674.22 368.98 662.53 376.37 654.71 372.08 636.74 371.77 629.92 365.58 635.5 356.59 644.48 352.56 653.78 358.45 674.85 362.17 674.22 368.98 Z" id="MLT-5938" data-name="Gżira"/>
<path d="M 601.42 368.67 608.85 373.63 611.02 378.59 605.44 383.55 601.42 385.41 600.18 390.67 597.28 399.15 583.74 397.92 571.43 389.3 572.66 381.91 569.58 374.52 564.66 368.37 573.27 366.52 581.28 364.06 601.42 368.67 Z" id="MLT-5939" data-name="Birkirkara"/>
<path d="M 636.74 371.77 637.29 383.14 636.74 389.43 631.47 394.7 622.49 387.57 611.02 384.79 605.44 383.55 611.02 378.59 608.85 373.63 601.42 368.67 609.16 366.51 629.92 365.58 636.74 371.77 Z" id="MLT-5940" data-name="Msida"/>
<path d="M 662.53 376.37 655.14 381.91 645.29 383.76 637.29 383.14 636.74 371.77 654.71 372.08 662.53 376.37 Z" id="MLT-5941" data-name="Ta&apos; Xbiex"/>
<path d="M 651.3 390.67 640.46 395.63 631.47 394.7 636.74 389.43 637.29 383.14 645.29 383.76 655.14 381.91 651.3 390.67 Z" id="MLT-5942" data-name="Pietà"/>
<path d="M 631.47 394.7 619.08 398.73 615.75 404.07 604.67 402.22 597.28 399.15 600.18 390.67 601.42 385.41 605.44 383.55 611.02 384.79 622.49 387.57 631.47 394.7 Z" id="MLT-5943" data-name="Santa Venera"/>
<path d="M 652.23 398.73 642.83 403.46 638.52 417 626.21 416.38 615.75 404.07 619.08 398.73 631.47 394.7 640.46 395.63 651.3 390.67 655.33 395.32 652.23 398.73 Z" id="MLT-5944" data-name="Ħamrun"/>
<path d="M 597.28 399.15 604.67 402.22 615.75 404.07 626.21 416.38 619.44 419.46 618.21 424.38 611.44 430.54 596.66 449.01 589.89 449.01 583.12 444.08 581.89 437.31 581.89 430.54 575.74 426.23 565.27 425 560.35 420.69 558.5 412.07 562.19 407.15 564.66 401.61 569.58 396.07 571.43 389.3 583.74 397.92 597.28 399.15 Z" id="MLT-5945" data-name="Qormi"/>
<path d="M 583.12 444.08 577.58 446.54 573.89 444.7 567.12 439.77 558.5 438.54 546.19 440.39 543.11 445.31 536.96 450.24 524.03 453.93 511.1 449.01 498.79 444.7 492.64 441 485.25 441.62 480.94 420.08 477.25 417.61 477.86 409 489.56 407.15 500.02 409.61 511.1 410.84 521.57 409 528.34 403.46 541.26 402.84 564.66 401.61 562.19 407.15 558.5 412.07 560.35 420.69 565.27 425 575.74 426.23 581.89 430.54 581.89 437.31 583.12 444.08 Z" id="MLT-5946" data-name="Żebbuġ"/>
<path d="M 448.32 449.01 447.08 455.78 438.47 468.09 431.08 473.63 428.72 492.15 412.78 485 378.02 440.35 389.22 434.85 404 435.46 425.54 433 436.62 433 441.54 437.31 442.78 442.85 448.32 449.01 Z" id="MLT-5947" data-name="Dingli"/>
<path d="M 583.12 444.08 589.89 449.01 596.66 449.01 597.9 457.01 588.05 463.78 580.66 470.55 572.04 471.78 570.2 476.09 564.04 478.55 561.58 484.71 556.65 492.71 549.27 494.56 543.11 495.79 535.72 501.33 537.57 507.48 535.72 511.18 526.49 511.18 518.49 515.49 511.19 527.42 502.18 525.13 428.72 492.15 431.08 473.63 438.47 468.09 447.08 455.78 448.32 449.01 464.94 451.47 477.86 449.62 485.25 441.62 492.64 441 498.79 444.7 511.1 449.01 524.03 453.93 536.96 450.24 543.11 445.31 546.19 440.39 558.5 438.54 567.12 439.77 573.89 444.7 577.58 446.54 583.12 444.08 Z" id="MLT-5948" data-name="Siġġiewi"/>
<path d="M 711.09 370.42 699.76 378.28 691.27 384.79 681.61 389.3 662.53 376.37 674.22 368.98 688.27 364.61 699.44 366.39 711.09 370.42 Z" id="MLT-5949" data-name="Valletta"/>
<path d="M 759.21 387.05 745.01 395.45 742.55 402.22 728.39 402.22 720.39 404.69 719.65 389.3 710.86 386.22 699.76 378.28 711.09 370.42 759.21 387.05 Z" id="MLT-5950" data-name="Kalkara"/>
<path d="M 720.39 404.69 703.51 393.15 691.27 384.79 699.76 378.28 710.86 386.22 719.65 389.3 720.39 404.69 Z" id="MLT-5951" data-name="Birgu"/>
<path d="M 776.17 409.48 759.79 415.15 749.94 411.46 742.55 402.22 745.01 395.45 759.21 387.05 776.17 409.48 Z" id="MLT-5952" data-name="Xgħajra"/>
<path d="M 703.51 393.15 687.77 407.15 676.69 396.68 681.61 389.3 691.27 384.79 703.51 393.15 Z" id="MLT-5953" data-name="Isla"/>
<path d="M 681.61 389.3 676.69 396.68 668.68 402.84 660.68 408.38 656.37 400.99 652.23 398.73 655.33 395.32 651.3 390.67 655.14 381.91 662.53 376.37 681.61 389.3 Z" id="MLT-5954" data-name="Floriana"/>
<path d="M 720.39 404.69 715.47 412.69 714.85 419.46 706.85 420.08 695.15 420.69 687.77 420.69 681.61 416.38 687.77 407.15 703.51 393.15 720.39 404.69 Z" id="MLT-5955" data-name="Cospicua"/>
<path d="M 776.17 409.48 785.97 422.44 768.4 431.16 765.94 437.31 760.4 442.85 754.25 443.47 748.71 447.78 732.09 446.54 725.93 441 716.7 440.39 711.77 437.93 714.24 431.16 717.93 426.23 719.78 421.31 714.85 419.46 715.47 412.69 720.39 404.69 728.39 402.22 742.55 402.22 749.94 411.46 759.79 415.15 776.17 409.48 Z" id="MLT-5956" data-name="Żabbar"/>
<path d="M 660.68 408.38 660.07 421.31 654.53 434.23 645.29 443.47 637.29 443.47 628.67 437.93 621.9 436.7 621.9 431.16 618.21 424.38 619.44 419.46 626.21 416.38 638.52 417 642.83 403.46 652.23 398.73 656.37 400.99 660.68 408.38 Z" id="MLT-5957" data-name="Marsa"/>
<path d="M 687.77 407.15 681.61 416.38 687.77 420.69 676.69 430.54 669.3 436.7 666.22 443.47 659.45 446.54 648.37 452.7 645.29 443.47 654.53 434.23 660.07 421.31 660.68 408.38 668.68 402.84 676.69 396.68 687.77 407.15 Z" id="MLT-5958" data-name="Paola"/>
<path d="M 711.77 437.93 704.39 439.77 699.46 441 697.62 446.54 693.31 449.01 690.23 442.85 692.08 437.93 686.54 433 676.69 430.54 687.77 420.69 695.15 420.69 706.85 420.08 714.85 419.46 719.78 421.31 717.93 426.23 714.24 431.16 711.77 437.93 Z" id="MLT-5959" data-name="Fgura"/>
<path d="M 693.31 449.01 685.3 453.32 682.23 456.39 679.76 460.09 664.99 457.62 655.14 456.39 648.37 452.7 659.45 446.54 666.22 443.47 669.3 436.7 676.69 430.54 686.54 433 692.08 437.93 690.23 442.85 693.31 449.01 Z" id="MLT-5960" data-name="Tarxien"/>
<path d="M 748.71 447.78 755.48 458.86 758.56 465.63 756.09 470.55 756.71 474.86 759.79 479.17 753.02 485.32 740.7 479.78 728.39 478.55 723.47 482.25 710.54 481.63 700.69 468.09 692.08 458.86 682.23 456.39 685.3 453.32 693.31 449.01 697.62 446.54 699.46 441 704.39 439.77 711.77 437.93 716.7 440.39 725.93 441 732.09 446.54 748.71 447.78 Z" id="MLT-5961" data-name="Żejtun"/>
<path d="M 796.23 487.63 782.56 484.71 770.87 483.48 759.79 479.17 756.71 474.86 756.09 470.55 758.56 465.63 755.48 458.86 748.71 447.78 754.25 443.47 760.4 442.85 765.94 437.31 768.4 431.16 785.97 422.44 790.7 428.7 799 479.5 796.23 487.63 Z" id="MLT-5962" data-name="Marsaskala"/>
<path d="M 759.79 479.17 770.87 483.48 782.56 484.71 796.23 487.63 787.83 512.34 759.21 499.47 743.05 514.07 737.63 503.79 727.78 494.56 719.16 491.48 711.77 491.48 710.54 481.63 723.47 482.25 728.39 478.55 740.7 479.78 753.02 485.32 759.79 479.17 Z" id="MLT-5963" data-name="Marsaxlokk"/>
<path d="M 645.29 443.47 648.37 452.7 648.37 461.32 647.76 468.7 651.45 476.71 651.45 481.02 652.06 489.02 656.99 492.71 666.22 498.25 672.99 505.02 677.92 512.41 668.07 513.64 656.37 504.41 648.99 496.4 639.14 492.1 637.29 484.71 632.98 482.86 626.83 476.09 621.29 473.63 613.9 477.94 602.82 475.48 594.82 471.78 585.58 477.32 578.2 479.78 570.2 476.09 572.04 471.78 580.66 470.55 588.05 463.78 597.9 457.01 596.66 449.01 611.44 430.54 618.21 424.38 621.9 431.16 621.9 436.7 628.67 437.93 637.29 443.47 645.29 443.47 Z" id="MLT-5964" data-name="Luqa"/>
<path d="M 679.76 460.09 681 466.86 679.76 469.94 664.99 469.32 647.76 468.7 648.37 461.32 648.37 452.7 655.14 456.39 664.99 457.62 679.76 460.09 Z" id="MLT-5965" data-name="Santa Luċija"/>
<path d="M 679.76 469.94 678.53 476.71 674.22 479.17 671.76 484.09 671.15 490.86 671.15 494.56 666.22 498.25 656.99 492.71 652.06 489.02 651.45 481.02 651.45 476.71 647.76 468.7 664.99 469.32 679.76 469.94 Z" id="MLT-5966" data-name="Gudja"/>
<path d="M 710.54 481.63 711.77 491.48 708.7 497.64 698.85 499.48 693.31 501.33 691.46 506.87 686.54 511.79 677.92 512.41 672.99 505.02 666.22 498.25 671.15 494.56 671.15 490.86 671.76 484.09 674.22 479.17 678.53 476.71 679.76 469.94 681 466.86 679.76 460.09 682.23 456.39 692.08 458.86 700.69 468.09 710.54 481.63 Z" id="MLT-5967" data-name="Għaxaq"/>
<path d="M 743.05 514.07 726.87 528.68 716.54 546.21 716.54 571.86 683.19 560.94 674.04 556.37 654.34 554.78 657.6 549.96 660.07 546.26 655.76 538.26 656.99 533.34 662.53 533.34 674.22 536.42 683.46 535.18 685.3 531.49 681 521.03 677.92 512.41 686.54 511.79 691.46 506.87 693.31 501.33 698.85 499.48 708.7 497.64 711.77 491.48 719.16 491.48 727.78 494.56 737.63 503.79 743.05 514.07 Z" id="MLT-5968" data-name="Birżebbuġa"/>
<path d="M 613.9 477.94 616.98 483.48 613.9 487.17 610.21 494.56 602.2 495.17 590.51 495.79 578.2 497.64 568.35 494.56 556.65 492.71 561.58 484.71 564.04 478.55 570.2 476.09 578.2 479.78 585.58 477.32 594.82 471.78 602.82 475.48 613.9 477.94 Z" id="MLT-5969" data-name="Mqabba"/>
<path d="M 639.14 492.1 624.98 503.18 619.44 497.64 610.21 494.56 613.9 487.17 616.98 483.48 613.9 477.94 621.29 473.63 626.83 476.09 632.98 482.86 637.29 484.71 639.14 492.1 Z" id="MLT-5970" data-name="Kirkop"/>
<path d="M 668.07 513.64 660.68 519.18 655.14 517.33 647.76 514.26 639.75 518.56 630.52 522.26 623.75 520.41 616.98 514.87 616.36 510.56 624.98 503.18 639.14 492.1 648.99 496.4 656.37 504.41 668.07 513.64 Z" id="MLT-5971" data-name="Safi"/>
<path d="M 590.51 495.79 592.97 501.94 586.82 504.41 586.2 508.72 590.51 511.79 585.58 515.49 579.43 519.8 567.12 531.49 562.72 540.52 511.19 527.42 518.49 515.49 526.49 511.18 535.72 511.18 537.57 507.48 535.72 501.33 543.11 495.79 549.27 494.56 556.65 492.71 568.35 494.56 578.2 497.64 590.51 495.79 Z" id="MLT-5972" data-name="Qrendi"/>
<path d="M 624.98 503.18 616.36 510.56 616.98 514.87 623.75 520.41 630.52 522.26 639.75 518.56 647.76 514.26 655.14 517.33 660.68 519.18 668.07 513.64 677.92 512.41 681 521.03 685.3 531.49 683.46 535.18 674.22 536.42 662.53 533.34 656.99 533.34 655.76 538.26 660.07 546.26 657.6 549.96 654.34 554.78 602.42 550.61 562.72 540.52 567.12 531.49 579.43 519.8 585.58 515.49 590.51 511.79 586.2 508.72 586.82 504.41 592.97 501.94 590.51 495.79 602.2 495.17 610.21 494.56 619.44 497.64 624.98 503.18 Z" id="MLT-5973" data-name="Żurrieq"/>
<path d="M 59.63 50.28 56.18 59.63 49.29 65.05 49.29 72.93 35.5 84.75 24.39 97.11 3.71 86.25 10.14 63.82 2.52 41.13 1 23.52 17.29 34.52 39.44 42.4 48.31 39.44 52.25 46.83 59.63 50.28 Z" id="MLT-5974" data-name="San Lawrenz"/>
<path d="M 74.4 51.26 59.63 50.28 52.25 46.83 48.31 39.44 39.44 42.4 17.29 34.52 1 23.52 25.72 16.58 62 12.13 61.11 20.24 68.49 27.63 72.93 37.48 74.4 51.26 Z" id="MLT-5975" data-name="Għarb"/>
<path d="M 117.24 55.69 106.9 55.2 97.55 56.19 94.59 59.14 80.8 57.17 74.4 51.26 72.93 37.48 68.49 27.63 61.11 20.24 62 12.13 104.86 6.88 98.53 15.32 98.04 28.12 100.01 38.95 104.44 40.43 111.33 38.46 116.26 43.88 117.24 55.69 Z" id="MLT-5976" data-name="Għasri"/>
<path d="M 184.91 10.54 176.33 17.29 177.31 22.7 177.81 29.6 175.84 33.54 163.53 34.03 153.68 37.97 146.29 44.86 145.31 51.75 148.26 58.65 145.8 62.59 140.38 63.08 129.06 63.08 117.24 55.69 116.26 43.88 111.33 38.46 104.44 40.43 100.01 38.95 98.04 28.12 98.53 15.32 104.86 6.88 152.88 1 184.91 10.54 Z" id="MLT-5977" data-name="Żebbuġ"/>
<path d="M 220.45 24.14 214.24 38.46 214.24 61.6 207.84 64.06 206.36 73.42 203.41 79.33 202.92 88.68 191.59 81.79 183.71 78.84 174.36 80.31 162.54 82.28 149.74 80.31 150.72 74.9 146.29 69.97 140.38 63.08 145.8 62.59 148.26 58.65 145.31 51.75 146.29 44.86 153.68 37.97 163.53 34.03 175.84 33.54 177.81 29.6 177.31 22.7 176.33 17.29 184.91 10.54 206.89 17.09 220.45 24.14 Z" id="MLT-5978" data-name="Xagħra"/>
<path d="M 285.68 62.05 275.79 67.51 268.41 71.45 261.02 72.93 259.54 77.85 259.05 87.7 254.13 93.12 236.89 95.09 220.64 95.09 211.78 93.61 202.92 88.68 203.41 79.33 206.36 73.42 207.84 64.06 214.24 61.6 214.24 38.46 220.45 24.14 273.94 51.97 285.68 62.05 Z" id="MLT-5979" data-name="Nadur"/>
<path d="M 243.42 106.26 241.82 100.01 236.89 95.09 254.13 93.12 259.05 87.7 259.54 77.85 261.02 72.93 268.41 71.45 275.79 67.51 285.68 62.05 314.41 86.76 289.01 101.74 252.44 102.93 243.42 106.26 Z" id="MLT-5980" data-name="Qala"/>
<path d="M 74.4 51.26 80.8 57.17 94.59 59.14 100.5 65.54 103.45 72.93 108.87 75.39 109.36 79.33 108.87 92.13 98.53 89.67 90.16 88.68 82.28 91.64 68.99 99.02 55.23 110.2 37.57 104.03 24.39 97.11 35.5 84.75 49.29 72.93 49.29 65.05 56.18 59.63 59.63 50.28 74.4 51.26 Z" id="MLT-5981" data-name="Kerċem"/>
<path d="M 117.24 55.69 129.06 63.08 140.38 63.08 146.29 69.97 150.72 74.9 149.74 80.31 147.77 90.65 140.38 91.15 133.49 90.65 128.07 94.59 127.58 87.7 120.2 84.25 116.26 79.33 109.36 79.33 108.87 75.39 103.45 72.93 100.5 65.54 94.59 59.14 97.55 56.19 106.9 55.2 117.24 55.69 Z" id="MLT-5982" data-name="Victoria"/>
<path d="M 128.07 94.59 120.69 99.02 112.81 97.06 108.87 92.13 109.36 79.33 116.26 79.33 120.2 84.25 127.58 87.7 128.07 94.59 Z" id="MLT-5983" data-name="Fontana, Gozo"/>
<path d="M 108.87 92.13 112.81 97.06 120.69 99.02 119.21 102.96 113.79 110.84 105.42 118.72 103.78 123.92 78.55 118.34 55.23 110.2 68.99 99.02 82.28 91.64 90.16 88.68 98.53 89.67 108.87 92.13 Z" id="MLT-5984" data-name="Munxar"/>
<path d="M 184.21 118.23 188.32 125.08 159.99 130.19 121.39 127.82 103.78 123.92 105.42 118.72 113.79 110.84 119.21 102.96 126.6 104.44 142.35 104.44 151.71 106.41 158.6 111.83 168.45 114.29 177.81 118.72 184.21 118.23 Z" id="MLT-5985" data-name="Sannat"/>
<path d="M 202.92 88.68 198.98 95.58 194.55 99.52 193.56 108.87 185.19 115.77 184.21 118.23 177.81 118.72 168.45 114.29 158.6 111.83 151.71 106.41 142.35 104.44 126.6 104.44 119.21 102.96 120.69 99.02 128.07 94.59 133.49 90.65 140.38 91.15 147.77 90.65 149.74 80.31 162.54 82.28 174.36 80.31 183.71 78.84 191.59 81.79 202.92 88.68 Z" id="MLT-5986" data-name="Xewkija"/>
<path d="M 236.89 95.09 241.82 100.01 243.42 106.26 196.56 123.59 188.32 125.08 184.21 118.23 185.19 115.77 193.56 108.87 194.55 99.52 198.98 95.58 202.92 88.68 211.78 93.61 220.64 95.09 236.89 95.09 Z" id="MLT-5987" data-name="Għajnsielem"/>
</g>
</svg>