<?xml version="1.0"?>
<svg xmlns="http://www.w3.org/2000/svg" version="1.2" baseProfile="tiny" width="800" height="1428" viewBox="0 0 800 1428" stroke-linecap="round" stroke-linejoin="round">
<g id="ne_10m_admin_1_states_provinces">
<path d="M 762.99 1368.01 759.04 1423.07 765.73 1417.28 781.47 1396.22 784.05 1393.12 786.16 1391.49 788.05 1389.06 789.74 1383.8 791.58 1387.43 792.53 1391.06 792.21 1395.33 789.95 1400.54 784.79 1406.65 766.31 1422.81 759.04 1427.49 755.2 1409.23 759.04 1372.22 754.62 1356.79 750.36 1353.16 735.62 1345.11 730.14 1343.58 724.35 1339.9 710.4 1321.47 718.98 1322.68 750.83 1344.48 759.04 1352.37 762.99 1368.01 Z M 786.52 1376.11 788.89 1382.01 786.26 1378.54 783.37 1373.59 781.79 1368.22 783.52 1363.43 793.74 1343.53 787.73 1328 774.52 1312.94 763.47 1294.57 770.42 1299.36 792.26 1327.89 799 1339.48 795.74 1348.32 789.1 1356.95 785.52 1367.85 785.84 1372.32 786.52 1376.11 Z M 66.38 923.39 61.96 925.6 59.7 925.18 58.8 923.76 58.8 923.13 66.38 923.39 Z M 3.47 750.67 1.26 752.41 1 745.57 1.89 742.94 5.11 740.41 6.05 745.62 5.26 748.62 3.47 750.67 Z M 59.27 630.6 55.17 633.55 51.06 627.76 53.59 622.7 56.64 618.91 60.7 616.44 65.38 615.75 62.91 623.12 59.27 630.6 Z M 332.96 137.55 332.33 138.92 326.8 134.82 325.33 133.45 331.38 134.5 333.22 136.03 332.96 137.55 Z M 623.23 66.17 622.28 66.22 628.44 60.7 626.7 64.28 624.81 65.85 623.23 66.17 Z M 310.17 38.48 308.96 38.69 315.43 28.8 314.38 34.48 312.38 37.32 310.17 38.48 Z M 327.96 8.9 326.7 9.21 325.54 8.11 323.96 7.21 329.33 5.63 327.96 8.9 Z M 457.14 4.05 457.14 6.05 456.14 4.47 454.93 3.74 454.25 3 454.93 1 457.35 1.32 457.72 2.42 457.14 4.05 Z" fill-rule="evenodd" id="IOT+00?" data-name="British Indian Ocean Territory"/>
</g>
</svg>