<?xml version="1.0"?>
<svg xmlns="http://www.w3.org/2000/svg" version="1.2" baseProfile="tiny" width="800" height="694" viewBox="0 0 800 694" stroke-linecap="round" stroke-linejoin="round">
<g id="ne_10m_admin_1_states_provinces">
<path d="M 767.19 112.57 766.81 112.82 764.12 115.3 762.38 116.04 760.48 116.31 754.62 115.81 753.72 115.48 751.99 114.62 751.1 114.31 737.3 112.66 734.76 112.94 732.14 113.88 727.25 116.67 724.61 117.62 723.21 117.75 719.02 117.6 717.9 117.82 717.02 118.23 715.33 119.4 713.4 120.44 711.07 121.28 708.67 121.81 706.48 121.91 705.56 121.7 703.85 121.01 702.92 120.87 701.43 121.12 699.78 121.75 696.92 123.44 695.85 124.56 694.92 126.06 694.21 127.69 693.06 132.55 692.51 133.54 691.61 134.37 688.29 135.96 686.78 137.17 685.48 138.72 684.48 140.49 683.84 142.33 683.23 145.69 682.77 146.71 680.45 150.4 679.09 152.04 677.46 153.46 675.48 154.58 674.9 155.02 674.33 155.69 673.44 157.26 672.92 157.98 671.76 158.97 669.16 160.45 668.01 161.31 667.16 162.79 666.95 164.64 667.14 166.53 667.5 168.22 667.61 171 666.64 173.32 665.02 175.4 656.3 183.67 654.63 186.23 654.36 187.12 652.56 188.79 643.27 193.57 642.83 194.14 641.68 195.92 640.66 197.91 640.04 198.83 639.31 199.62 638.71 199.46 638.06 199.19 637.44 199.18 636.38 199.94 630.98 204.89 629.86 205.72 628.77 206.19 625.24 204.81 624.08 205.19 621.82 206.35 620.86 206.54 620.16 205.74 619.64 204.77 619.32 203.67 619.16 202.59 619.38 201.51 622.82 192.89 622.99 192.27 622.93 191.63 622.11 191.44 606.04 190.06 604.68 190.76 603.32 192.07 601.72 195.34 599.58 197.71 599.43 198.27 600.03 199.57 600.72 199.97 601.42 200.05 601.64 200.91 601.7 201.7 599.68 210.24 599.38 214.64 598.57 216.26 597.91 216.9 597.22 217.25 596.57 217.38 594.69 217.33 593.7 217.7 592.49 217.86 591.5 217.81 590.99 217.67 590.47 217.36 588.81 215.91 586.01 211.41 584.1 210.74 583.44 211.1 582.84 211.66 582.35 212.29 581.65 212.81 581.04 212.79 580.36 212.47 578.94 211.56 574.15 209.07 568.55 206.89 567.58 206.29 567.2 205.63 567.2 204.72 567.42 203.97 568.18 201.99 568.53 200.22 568.36 199.77 567.78 199.68 553.45 199.73 553.07 199.52 552.48 199.1 552.45 196.65 553.72 188.19 553.7 186.8 553.51 185.12 552.15 179.37 552.36 178.67 552.58 178.12 554.03 175.96 557.86 168.9 557.99 168.39 557.99 167.89 557.55 167.37 557.09 166.99 556.7 166.6 556.59 166.14 556.91 165.59 557.31 165.19 557.75 164.86 559.26 163.47 560.58 162 561.83 160.28 562.09 159.84 562.47 158.85 563.59 150.42 563.58 149.77 563.45 149.2 562.94 148.68 562.4 148.4 561.2 148.02 560.58 147.91 560 147.88 559.48 148.02 558.99 148.26 558.16 148.82 557.69 149.08 557.25 149.05 556.84 148.7 556.69 147.7 556.4 147.05 555.8 146.67 555.28 146.71 554.73 146.91 553.38 147.69 552.13 148.57 551.67 148.75 551.15 148.7 550.67 148.52 550.25 148.26 549.76 148.07 549.16 148.02 546.59 148.24 545.96 148.22 545.39 148.11 544.96 147.83 544.68 147.36 544.26 145.29 544.17 142.64 544.2 142.27 544.58 142.02 544.98 141.83 545.41 141.56 545.69 141.22 545.76 140.74 545.39 140.2 545.02 139.82 543.39 138.51 543.06 138.11 542.78 137.71 542.56 136.87 541.97 127.92 542.07 127.26 542.21 126.66 542.4 126.11 542.65 125.67 544.23 123.69 544.75 122.7 544.88 122.11 544.8 121.35 544.53 120.47 543.85 119.18 543.35 118.49 542.81 118.04 542.32 117.77 541.78 117.56 541.31 117.29 540.93 116.97 541.1 116.42 541.34 115.93 541.51 115.31 541.47 114.61 539.92 111.23 539.66 110.94 539.39 110.77 538.58 110.41 535.28 108.51 534.74 108.31 533.55 108.12 533.04 107.91 532.2 107.29 531.73 107.01 530.07 106.37 529.64 106.07 529.26 105.6 528.47 104.11 527.47 102.63 527.3 101.95 527.25 101.06 527.99 96.73 528.81 94.38 529.07 93.9 529.67 93.04 530.12 92.02 530.8 88.81 531.03 86.22 531.14 85.81 531.52 84.93 532.85 82.67 533.06 82.12 533.07 81.23 532.93 80.05 532.24 77.83 531.71 76.55 530.91 75.17 530.21 74.81 529.52 74.65 523.68 74.95 523.15 74.86 522.72 74.65 522.44 74.4 520.63 72.44 520.27 71.8 519.38 69.09 518.96 68.27 518.45 67.76 517.85 67.57 516.5 67.39 515.84 67.39 512.17 67.83 511.14 68.23 510.72 68.55 510.39 68.95 510.2 69.44 510.12 70.01 510.2 70.58 510.69 72.67 510.71 73.31 510.57 73.82 510.35 74.31 510.03 74.71 509.67 75.07 509.25 75.36 508.78 75.58 506.5 76.08 506.03 76.32 505.61 76.64 504.99 77.43 504.63 77.79 504.19 78 503.65 77.97 501.39 77.43 500.77 77.44 500.2 77.55 499.17 77.92 498.76 78.21 498.44 78.58 498.19 79.08 497.76 80.15 497.49 80.56 497.08 80.85 496.53 80.9 495.94 80.85 494.81 80.51 494.28 80.28 493.83 80.02 493.6 79.44 493.71 78.41 495.47 74.51 496.13 73.57 496.64 73.09 497.89 72.24 498.22 71.85 498.52 71.24 498.7 70.43 498.71 69.03 498.21 65.7 498.17 65.06 498.33 64.26 498.68 63.38 499.96 61.41 500.44 60.94 503.1 59.28 503.43 58.83 503.62 58.24 503.56 57.23 503.29 56.65 502.86 56.33 502.29 56.3 501.75 56.36 501.18 56.39 500.66 56.26 500.25 55.98 499.87 55.68 499.27 54.84 499.14 54.31 499.12 53.71 499.19 53.18 499.11 52.79 498.96 52.52 498.3 51.9 498 51.51 497.73 51.08 497.53 50.6 497.29 49.49 497.32 48.63 497.75 45.95 497.64 45.09 497.29 44.56 495.17 43.73 494.71 43.49 493.93 42.82 493.65 42.4 493.38 41.93 493.24 41.39 493.2 40.87 493.24 40.46 493.41 40.19 493.79 39.8 520.43 17.52 521.2 16.24 521.61 14.8 520.81 12.55 520.27 11.53 519.04 10.16 518.63 8.7 518.59 4.61 518.85 3.47 522.09 4.84 525.01 4.74 529.05 3.16 529.2 11.41 529.36 21.11 529.57 33.32 529.7 40.42 541.14 40.33 548.47 40.29 565.11 40.17 576.09 40.1 580.62 41.02 584.74 43.81 586.38 45.5 587.89 46.62 589.59 46.85 591.86 45.89 593.05 44.9 594.94 42.83 596.44 42.08 597.31 42.29 598.11 42.89 598.88 42.94 599.72 41.5 602.27 39.97 606.8 40.31 617.15 42.68 619.08 43.38 620.76 44.54 622.21 46.31 624.13 49.76 625.41 51.17 627.39 52.21 628.4 52.91 628.84 53.85 629.17 54.8 629.8 55.47 630.18 55.55 630.98 55.36 631.4 55.31 631.88 55.58 631.85 56.05 631.71 56.55 631.9 56.84 633.89 57.09 636.1 57.12 638.13 57.4 639.66 58.44 643.59 60.33 660.62 61.43 663.13 62.51 665.93 64.75 672.11 71.26 674.08 72.89 678.36 75.05 679.57 76.03 680.47 77.83 680.97 81.73 681.86 83.28 683.48 84.04 694.08 85.67 714.24 85.19 722.26 86.37 732.79 90.45 748.95 96.73 761.16 101.47 762.31 102.5 762.8 103.97 762.88 106.32 763.9 110.34 766.61 112.35 767.19 112.57 Z" id="ZWE-524" data-name="Mashonaland Central"/>
<path d="M 578.29 239.1 581.05 238.55 584.37 237.42 584.81 236.96 584.93 236.44 584.63 235.44 584.18 234.73 583.66 234.1 581.53 232.99 580.92 232.55 580.7 231.96 580.85 231.09 581.49 229.74 581.53 228.55 581.26 227.92 580.86 227.46 580.59 226.88 580.59 226.1 580.8 224.92 581.05 224.22 581.53 223.78 582.46 223.59 583.57 223.11 584.78 222.27 587.62 219.06 588.81 215.91 590.47 217.36 590.99 217.67 591.5 217.81 592.49 217.86 593.7 217.7 594.69 217.33 596.57 217.38 597.22 217.25 597.91 216.9 598.57 216.26 599.38 214.64 599.68 210.24 601.59 210.34 602.07 210.53 602.38 210.88 602.56 211.71 602.83 212.45 603.27 213.09 604.02 213.43 605.88 213.74 609.23 213.65 610.19 213.92 610.68 214.37 611.03 215.46 611.14 216.57 611.06 217.74 610.62 219.45 610.62 220.15 610.82 220.84 611.23 221.48 611.53 222.09 611.66 222.73 611.58 223.89 611.63 224.49 611.87 225.52 612.17 226.4 613.13 228.35 613.26 228.82 613.29 229.18 613.05 229.72 612.58 230.35 611.6 231.3 611.2 232.02 611.01 232.7 610.92 233.76 610.38 234.35 609.51 234.93 605.77 236.5 605.65 236.8 605.63 237.12 605.93 238.24 606.04 238.84 606.12 239.98 606.07 240.48 605.69 242.17 604.7 243.29 603.24 243.92 602.91 244.69 602.83 245.19 603.19 245.62 604.13 246.28 604.22 246.52 603.91 246.94 602.15 248.2 601.59 248.42 600.26 248.55 599.6 248.71 599.08 248.96 598.22 249.51 597.86 249.67 597.5 249.76 597.09 249.82 596.46 249.65 595.53 249.24 593.22 247.3 588.22 244.18 584.32 242.61 583.01 242.28 581.04 241.49 578.29 239.1 Z" id="ZWE-525" data-name="Harare"/>
<path d="M 309.88 184.07 309.62 187.82 309.37 188.72 308.57 190.79 308.49 192.1 308.33 192.56 308.08 192.93 307.75 193.27 307.7 193.3 307.67 193.35 307.15 195.16 306.43 196.79 306.27 197.37 306.23 198.1 306.31 198.97 306.65 200.24 306.71 201.1 306.68 201.81 306.49 202.25 305.93 203.1 305.71 203.57 305.18 206.01 304.6 207.64 304.61 208.39 305.24 210.72 305.29 211.53 305.14 212.18 302.32 215.1 300.72 216.38 300.01 217.13 299.64 217.4 299.23 217.57 298.79 217.43 298.41 217.14 298.03 216.79 297.57 216.58 297.08 216.52 296.62 216.68 296.2 216.95 293.52 219.25 293.3 219.76 293.02 220.96 292.57 222.03 292.44 222.63 292.48 223.38 293.62 228.17 293.61 229.09 293.49 229.8 292.19 232.2 291.37 234.28 291.32 234.88 291.34 235.61 291.54 236.56 291.41 237.2 291.12 237.64 290.65 237.91 290.2 238.13 289.79 238.44 289.5 238.85 289.31 239.39 289.07 240.6 288.87 241.12 288.6 241.6 288.28 241.98 287.9 242.32 286.26 243.54 285.94 243.85 285.6 244.29 285.59 244.37 285.54 244.57 285.51 245 285.62 245.59 286.17 247.25 286.41 248.66 286.63 249.29 287.08 249.83 288.06 250.41 288.71 250.49 289.31 250.38 289.8 250.21 290.32 250.08 290.87 250.19 291.27 250.57 291.46 251.33 291.4 253.38 291.57 254.55 292.16 256.02 292.26 256.55 292.22 257.12 292.03 257.64 291.75 258.09 291.37 258.44 290.52 259.01 290.15 259.34 289.85 259.75 289.67 260.24 289.8 260.9 290.21 261.5 291.28 262.22 292.1 262.52 294.2 262.94 294.77 263.24 295.28 263.64 295.53 264.4 295.32 264.72 294.84 264.91 289.35 265.53 286.52 266.14 286 266.41 285.57 266.97 285.16 296.85 285.32 298.29 285.72 299.72 286.86 300.68 287.65 301.17 288.41 301.41 289.09 301.52 290.4 301.55 295.83 300.86 296.43 300.85 297.03 300.98 298.63 301.68 299.9 301.98 304.04 302.22 305.41 302.44 307.26 302.96 317.45 303.26 318.75 303.52 319.38 303.58 320.63 303.52 322.96 303.07 328.24 303.09 330.23 303.43 331.6 303.5 335.79 303.32 336.71 303.18 339.89 302.2 340.48 302.09 346.94 302.14 347.43 302.04 349.28 301.92 350.47 301.69 352.58 301.04 353.18 300.92 353.82 300.92 354.47 301 355.05 301.2 356.1 301.66 357.95 302.17 359.43 302.35 397.57 301.95 398.55 302.1 399.25 302.53 400.61 304.94 401.04 306.11 401.1 307.04 400.63 308.17 399.71 308.84 381.81 316.04 376.29 317.31 375.27 317.75 374.58 318.66 374.51 320.53 380.48 346.3 380.9 347.53 381.46 348.67 382.28 349.42 382.99 349.81 384.22 350.26 384.95 350.94 385.76 352.03 387.93 355.55 388.29 356.43 388.29 357.33 388.19 358.07 388.03 358.74 387.74 359.24 387.12 360.03 386.62 360.52 386.43 360.98 386.33 361.5 386.32 364.36 386.33 364.63 386.45 365.04 387.38 366.24 388.58 367.1 397.78 376.59 398.41 377.52 398.68 378.26 398.71 379.46 398.42 380.21 396.19 383.64 396.66 384.38 409.47 396.02 408.62 397.79 408.11 398.32 407.05 399.04 406.25 399.16 405.42 399.02 404.71 398.62 404.17 398.2 403.24 397.63 402.16 397.31 398.82 396.72 398.2 396.67 397.5 396.76 396.81 396.93 396.27 397.31 395.97 397.87 395.94 399 396.27 399.76 396.82 400.44 398.36 401.78 398.99 402.56 399.39 403.31 399.52 404.11 399.47 404.97 399.12 406.54 398.58 407.43 397.72 408.53 393.21 412.29 392.79 412.76 392.51 413.31 392.76 414.1 393.22 414.66 394.6 415.93 395.3 416.46 396.09 416.9 396.73 417.46 397.03 418.21 397.13 419.35 397.02 423.39 396.87 424.24 396.41 425.78 395.65 427.67 395.61 428.33 395.3 429.1 394.64 429.92 392.27 431.55 390.92 432.09 389.78 432.31 383.68 431.2 383.14 431.25 382.77 431.55 382.76 432.25 382.88 432.81 383.3 433.82 384.72 439.14 385.7 441.42 385.73 441.71 385.66 442.17 385.42 442.66 383.69 445.36 382.48 446.27 375.34 450.14 370.9 451.88 370.42 452.15 370.11 452.57 369.79 453.38 369.78 454.03 369.88 454.62 370.51 456.64 370.51 457.2 370.2 457.83 360.19 469.25 358.27 471.01 356.6 472.18 355.93 473.74 353.24 476.47 351.85 476.63 351.08 476.49 345.82 472.44 352.64 471.01 354.35 470.31 355.04 469.79 355.59 469.2 355.96 468.61 356.16 468.02 356.18 467.52 355.97 467.06 355.55 466.65 353.56 465.39 353.21 465.07 352.9 464.61 352.87 464.19 352.92 463.77 353.03 463.44 353.68 462.25 353.98 461.52 354.17 460.85 354.13 460.35 353.79 460.01 353.09 459.81 352.43 459.54 352.04 459.19 351.89 458.78 351.76 457.58 351.32 457.2 350.67 457.23 349.28 457.87 348.55 458.05 347.78 458.02 347.09 457.7 346.01 456.89 345.53 456.65 344.99 456.55 344.42 456.5 343.99 456.38 343.74 456.22 343.49 455.94 343.4 455.65 343.39 455.36 343.5 455.01 343.55 453.75 343.68 453.3 344.01 452.46 343.93 452.18 343.58 452.03 342.98 452.04 340.99 452.7 338.73 453.02 338.12 453.27 336.87 454.31 336.17 454.66 335.38 454.69 334.39 454.42 328.61 451.48 327.84 451.3 327.39 451.31 327.09 451.57 326.95 452.07 327.04 453.3 328.02 457 328 457.91 327.84 458.49 327.43 459.45 327.23 460.16 327.18 460.94 327.21 461.99 326.83 462.63 326.2 463.11 324.87 463.87 324.52 464.32 324.62 464.79 325.08 465.27 326.36 465.64 327.15 465.74 328.47 465.68 329.23 465.75 330.96 466.18 331.62 466.2 332.17 466.1 333.39 465.61 334.23 465.55 334.99 465.78 335.73 466.95 336.7 467.95 336.9 468.93 335.6 471.73 332.98 472.77 319.21 482.53 318.52 482.68 317.98 482.17 316.96 480.17 316.48 478.59 316.07 477.61 315.81 477.16 314.57 475.57 313.44 474.5 313.22 474.07 313.05 473.51 312.8 473.05 312.39 472.71 311.89 472.46 311.42 472.18 311.01 471.85 310.66 471.48 310.45 471.1 310.23 470.42 310.01 470.04 307.95 468.4 305.8 466.21 305.52 465.78 305.38 464.57 305.24 464.06 304.98 463.63 304.36 462.81 304.19 462.27 304.06 461.7 303.91 461.21 303.65 460.75 303.25 460.4 302.7 460.12 301.26 459.56 300.72 459.27 300.33 458.92 300.09 458.46 299.67 457.44 299.4 457.09 299.15 456.85 298.86 456.82 298.38 456.93 294.94 458.3 293.88 458.44 289.54 458.57 288.62 458.88 284.84 460.68 284.43 460.67 283.86 460.43 280.3 455.13 279.73 454.53 279.32 454.88 278.94 455.67 277.51 459.76 276.88 462.94 276.66 465.85 276.41 466.89 275.9 467.41 272.69 467.38 268.56 466.72 267.15 466.31 265.98 465.57 265.52 465.06 265.15 464.57 264.79 464.21 264.38 463.89 262.02 462.63 260.34 461.41 252.77 454.48 251.1 453.26 249.25 452.22 248.46 451.56 244.91 447.8 242.87 444.87 242.29 444.32 241.65 443.84 240.93 443.13 240.7 442.66 240.49 442.15 240.21 440.29 240.13 439.01 240.04 438.4 239.86 437.85 239.57 437.38 239.23 436.99 237.9 436.13 237.22 435.35 236.94 434.89 236.29 434.07 235.44 433.71 234.2 433.41 231.49 433.07 229.21 432.54 227.76 431.8 224.26 429.49 222.3 428.49 220.28 428.02 214.79 427.35 214.03 427.42 213.27 427.58 212.39 428.09 210.97 429.23 210.28 429.45 209.36 429.57 207.66 429.43 205.88 429.11 204.3 429.12 203.17 429.36 202.01 429.12 201.37 428.82 200.83 428.49 200.29 428.3 199.67 428.2 198.98 428.16 196.46 427.78 182.25 429.42 180 428.98 178.23 428.84 176.34 428.93 156.4 433.48 154.78 434.06 151.49 435.76 149.7 436.75 149.35 436.4 147.89 435.62 143.26 434.37 141.37 433.57 139.98 432.2 139.26 429.89 138.39 427.98 136.65 426.27 132.53 423.74 130.58 422.99 126.55 422.12 124.68 421.42 122.74 419.69 119.92 415.56 117.62 414.39 114.52 413.86 113.71 413.53 112.47 412.73 112.5 412.56 113.17 412.22 113.91 410.95 114.64 408.82 114.39 408 113.37 406.68 112.57 405.88 111.58 405.18 110.48 404.69 105.01 404.59 100.46 403.44 96.49 401.09 93.91 397.41 84.13 371.16 81.79 366.68 78.7 362.8 76.19 358.75 75.38 356.83 75 354.37 75.33 352.29 76.99 348.5 77.34 346.39 77.31 346.29 74.58 338.27 61.78 327.32 58.13 319.65 57.51 312.18 56.34 308.59 53.79 306.39 49.85 304.5 46.92 302.03 42.08 295.41 40.69 294.04 37.22 291.8 30.49 285.01 29.17 282.94 28.66 281.58 27.7 277.28 26.89 275.24 23.59 270.12 20.32 262.25 18.15 258.47 15.08 256.11 11.62 254.15 8.85 251.29 4.64 244.41 1.69 237.34 1 234.91 1 232.03 5.12 223.29 5.83 223.99 7.74 224.84 10.85 227.17 12.85 228.1 13.84 228.24 17.02 228.1 20.4 229.3 21.49 229.49 29.17 229.49 29.7 229.61 30.66 230.13 31.3 230.25 31.88 230.03 32.78 229.09 33.38 228.86 40.23 227.58 45.64 225.32 48.13 225.06 49.44 225.88 50.68 226.94 54.5 227.91 56.75 228.97 58.8 230.24 59.68 231.3 60.67 232.89 65.29 234.77 66.71 236.52 65.07 237.09 64.93 238.55 65.68 240.21 66.71 241.39 72.92 244.19 77.26 244.34 78.44 244.19 84.07 241.39 84.76 242.1 85.37 240.86 87 240.51 88.91 240.45 90.34 240.06 90.43 239.66 90.23 238.37 90.34 237.98 90.95 237.75 92.72 237.31 94.44 236.4 96.8 235.96 97.71 235.48 101.34 232.79 102.24 232.34 103.18 232.7 103.91 233.55 104.49 234.5 105.02 235.13 105.95 235.46 110.64 235.98 111.61 236.42 112.45 236.99 113.09 237.6 113.83 237.77 117.62 237.22 122.3 238.07 130.15 242.18 134.4 243.48 137.09 243.93 138.79 244.59 140.13 245.64 141.71 247.35 143.12 248.5 144.77 249.31 150.57 251.1 152.03 251.36 153.24 251.01 156.16 248.42 157.49 247.66 159.14 247.25 161.62 246.97 171.23 242.72 173.65 243.48 177.39 241.12 178.46 240.7 183.27 240.49 184.8 240.06 187.57 238.61 190.6 235.83 194.4 232.27 197.83 228.23 197.57 225.82 197.45 223.29 197.62 222.25 198.65 220.76 225.68 193.78 236.11 184.63 241.51 179.33 244.29 174.2 246.36 166.09 248.03 162.54 261.91 142.41 265.95 138.17 271.22 135.12 286.97 128.56 287.27 129.33 288.98 136.78 288.34 140.58 288.01 141.52 287.93 142.05 287.91 142.23 287.93 142.32 288.33 142.7 289.95 143.55 290.56 144.17 290.59 145.1 289.29 148.64 289 150.45 288.98 150.93 289.12 151.32 289.47 151.74 290.32 152.27 291.76 152.8 292.29 153.21 292.71 153.83 293.14 155.04 293.5 155.77 293.95 156.32 294.69 156.53 295.31 156.52 295.85 156.4 296.35 156.35 296.92 156.43 298.06 156.81 298.51 157.11 298.77 157.52 298.73 158.18 298.39 159.42 298.32 160.04 298.44 160.69 298.71 161.34 299.31 162.2 299.62 162.91 299.59 163.94 299.11 165.08 299.14 165.65 299.42 166.24 300.08 167.03 300.42 167.67 300.5 168.49 300.49 170.24 301.02 171.99 301.13 172.97 301.42 173.85 301.82 174.44 303.81 175.89 304.79 177.06 305.93 177.76 306.78 178.13 307.54 178.32 308.19 179 308.65 179.58 309.88 184.07 Z" id="ZWE-526" data-name="Matabeleland North"/>
<path d="M 525.67 332.17 531.13 333.48 532.88 334.23 534.5 335.74 537.06 337.48 541.48 339.29 543.44 339.76 544.99 340.37 547.12 342.24 547.81 342.53 548.46 342.67 549.47 342.78 551.04 343.11 553.79 343.15 555.95 343.43 556.7 343.74 557.56 344.2 558.21 344.46 558.92 344.64 558.73 345.19 557.64 346.79 557.53 347.23 557.56 347.86 557.9 348.81 559.98 352.28 562.43 355.4 562.94 356.26 563.26 357.05 563.44 357.77 563.51 358.38 563.4 358.75 563.03 358.91 562.58 358.99 562.2 359.26 561.71 360.75 561.64 361.1 561.63 361.44 561.66 361.66 561.74 361.95 561.85 362.22 561.93 362.46 561.94 362.68 561.91 362.95 561.8 363.3 561.96 363.84 562.32 364.21 564.38 365.76 565.89 367.34 567.89 369.05 569.42 370.83 570.75 371.98 571.16 372.12 573.72 372.72 576.29 374.08 562.04 385.17 561.23 385.94 560.98 386.44 561.44 386.81 562.05 387.05 565.22 387.72 565.98 388.11 566.58 388.74 566.66 389.46 566.17 390.27 564.81 391.03 563.74 391.49 563.1 391.98 562.91 392.83 562.71 401.2 561.63 406.63 561.94 408.27 562.39 409.69 562.5 410.75 562.4 411.79 560.6 420.03 560.54 420.83 560.65 423.35 560.55 423.93 559.41 427.17 559.11 429.05 559.16 430.36 559.32 431.49 559.43 431.95 559.59 432.21 559.9 432.51 560.24 432.78 560.41 433.16 560.22 433.62 559.4 434.06 558.67 434.31 555.69 435.04 554.38 435.11 553.1 434.99 550.07 434.19 547.26 432.77 546.5 432.5 545.5 432.43 536.83 432.69 535.86 433.24 534.72 435.29 534.66 435.8 534.76 436.09 534.88 436.31 534.98 436.76 535.06 436.91 535.17 437.03 535.32 437.15 535.42 437.36 535.47 437.67 535.5 438.18 535.63 438.56 535.8 438.84 535.93 439.02 536.04 439.23 536.08 439.48 536 439.8 535.72 440.22 535.15 440.92 532.76 442.61 532.46 443.09 532.25 444.07 532.25 444.54 532.35 444.86 532.47 445 532.5 445.25 532.44 445.6 532.19 446.19 532.14 446.51 532.14 446.73 532.28 446.83 532.62 446.84 533.34 446.94 532.82 447.39 532.28 447.57 531.59 447.68 515.68 448.3 515.05 448.38 514.49 448.53 506.83 452.07 506.03 452.6 505.67 453.12 506.28 453.83 506.53 454.61 506.68 456.02 505.98 459.62 504.76 461.78 504.19 465.95 504.24 468.89 504.52 469.12 505.2 468.86 506.99 467.75 508.67 467.9 510.31 468.38 511.66 469.2 512.25 469.91 512.71 471.24 513.05 472.84 513.2 474.87 513.12 476.93 512.31 479.44 512.3 480.52 512.56 481.11 513.07 481.3 513.43 481.68 514.84 483.92 515.19 484.28 515.98 484.93 516.44 485.2 516.97 485.4 518.07 485.73 520.05 485.87 520.59 485.98 521 486.25 521.2 486.67 521.19 487.19 521.12 487.74 521.17 488.34 521.35 488.86 521.58 489.33 522.25 490.14 522.65 490.46 523.1 490.72 523.66 490.91 524.88 491.12 525.4 491.31 525.81 491.61 526.1 492.05 526.33 492.55 526.52 493.09 526.79 493.55 527.14 493.94 527.53 494.27 529.82 495.69 530.2 496.04 530.48 496.47 530.65 497.02 530.8 498.25 530.91 498.77 531.11 499.29 531.18 499.39 535.36 503.83 535.51 504.39 535.42 505.15 534.96 506.32 534.85 507.18 534.87 507.9 535.26 508.95 535.42 509.51 535.45 510.13 535.28 511.94 535.34 512.59 535.48 513.17 535.67 513.69 535.97 514.13 536.31 514.53 536.7 514.87 537.54 515.48 537.85 515.86 538.04 516.41 538.3 517.62 538.47 518.2 538.68 518.66 538.65 519.27 538.47 519.77 537.13 521.99 536.87 522.61 536.72 523.23 536.72 523.83 537.24 525.95 537.22 526.51 537.08 527.15 535.97 529.13 535.47 531.55 535.18 532.17 534.79 532.77 533.66 534.06 533.33 534.58 533.18 535.16 533.72 542.59 533.47 544.21 532.71 545.33 522.58 554.12 521.63 554.21 520.93 554.1 520.3 553.86 519.56 553.68 517.65 552.65 517.13 552.62 516.79 552.72 515.74 553.42 515.25 553.65 514.81 553.8 514.51 553.94 514.16 554.21 513.62 554.42 512.88 554.48 510.14 554.04 508.27 554.05 505.7 553.7 504.71 553.48 504.16 553.21 503.73 552.96 503.14 552.46 502.53 551.76 502.15 551.41 501.55 551.11 499.2 550.45 497.98 549.75 497 548.9 495.42 546.88 495 546.56 494.33 546.22 492.78 545.63 492.29 545.37 491.61 544.92 490.97 544.33 490.15 543.73 489.42 543.3 488.72 542.78 488.21 542.28 487.47 541.85 486.78 541.66 485.54 541.61 484.45 541.72 483.49 542.06 482.17 542.74 470.11 552.22 468.04 553.18 466.87 553.37 466.05 553.42 460.89 552.77 459.24 552.75 456.09 553.1 448.97 554.68 444.79 554.59 441 553.69 438.25 553.55 437.73 553.48 435.73 552.88 434.64 552.4 434.37 552.05 434.31 551.62 435.65 550.53 450.12 541.2 450.55 540.59 450.85 539.7 456.26 515.93 456.18 515.25 455.57 515.21 451.25 516.54 450.31 516.64 449.73 516.39 449.33 515.21 448.97 514.37 448.3 513.5 447.37 512.64 447.08 512.2 446.95 511.64 447.18 510.76 447.4 510.18 447.67 509.71 448.28 509.46 449 509.02 449.66 508.36 449.62 507.12 450.6 504.91 450.8 503.82 450.8 498.46 451.48 498.31 452.26 498.57 455.63 500.84 456.63 501.17 457.47 500.76 458.21 500.11 459.93 498.07 460.7 496.61 461.49 494.64 461.76 493.65 461.8 492.77 461.63 489.51 461.66 488.62 461.8 488 467.85 474.13 468.02 473.43 468.53 468.61 468.7 468.03 475.48 454.5 475.79 453.44 475.79 452.46 472.61 447.38 472.28 447.27 471.79 447.32 470.33 448.21 469.98 448.28 469.57 448.07 468.91 445.55 468.23 444.42 466.74 444.37 459.62 446.01 458.75 445.78 458.26 444.54 457.59 441.43 457.2 440.34 456.6 440.24 456.09 440.34 455.05 440.81 454.49 440.98 449.93 441.92 449.35 441.89 448.68 441.57 444.11 438.25 437.41 435.06 436.51 434.87 434.98 434.78 433.24 435.53 431.51 435.99 430.41 435.75 429.33 433.74 428.98 432.61 428.75 431.66 428.76 430.41 429.89 425.45 429.77 424.62 429.46 423.66 428.64 421.91 427.99 420.8 425.26 418.22 424.4 416.92 423.61 414.6 423.48 413.84 423.17 413.19 422.67 412.49 420.33 410.46 419.94 410.02 419.49 409.37 417.08 404.97 416.07 402.2 414.65 400.58 409.47 396.02 396.66 384.38 396.19 383.64 398.42 380.21 398.71 379.46 398.68 378.26 398.41 377.52 397.78 376.59 388.58 367.1 387.38 366.24 386.45 365.04 386.33 364.63 386.32 364.36 386.33 361.5 386.43 360.98 386.62 360.52 387.12 360.03 387.74 359.24 388.03 358.74 388.19 358.07 388.29 357.33 388.29 356.43 387.93 355.55 385.76 352.03 384.95 350.94 384.22 350.26 382.99 349.81 382.28 349.42 381.46 348.67 380.9 347.53 380.48 346.3 374.51 320.53 374.58 318.66 375.27 317.75 376.29 317.31 381.81 316.04 399.71 308.84 400.63 308.17 401.1 307.04 401.04 306.11 400.61 304.94 399.25 302.53 398.55 302.1 397.57 301.95 359.43 302.35 357.95 302.17 356.1 301.66 355.05 301.2 354.47 301 353.82 300.92 353.18 300.92 352.58 301.04 350.47 301.69 349.28 301.92 347.43 302.04 346.94 302.14 340.48 302.09 339.89 302.2 336.71 303.18 335.79 303.32 331.6 303.5 330.23 303.43 328.24 303.09 322.96 303.07 320.63 303.52 319.38 303.58 318.75 303.52 317.45 303.26 307.26 302.96 305.41 302.44 304.04 302.22 299.9 301.98 298.63 301.68 297.03 300.98 296.43 300.85 295.83 300.86 290.4 301.55 289.09 301.52 288.41 301.41 287.65 301.17 286.86 300.68 285.72 299.72 285.32 298.29 285.16 296.85 285.57 266.97 286 266.41 286.52 266.14 289.35 265.53 294.84 264.91 295.32 264.72 295.53 264.4 295.28 263.64 294.77 263.24 294.2 262.94 292.1 262.52 291.28 262.22 290.21 261.5 289.8 260.9 289.67 260.24 289.85 259.75 290.15 259.34 290.52 259.01 291.37 258.44 291.75 258.09 292.03 257.64 292.22 257.12 292.26 256.55 292.16 256.02 291.57 254.55 291.4 253.38 291.46 251.33 291.27 250.57 290.87 250.19 290.32 250.08 289.8 250.21 289.31 250.38 288.71 250.49 288.06 250.41 287.08 249.83 286.63 249.29 286.41 248.66 286.17 247.25 285.62 245.59 285.51 245 285.54 244.57 285.59 244.37 285.6 244.29 285.94 243.85 286.26 243.54 287.9 242.32 288.28 241.98 288.6 241.6 288.87 241.12 289.07 240.6 289.31 239.39 289.5 238.85 289.79 238.44 290.2 238.13 290.65 237.91 291.12 237.64 291.41 237.2 291.54 236.56 291.34 235.61 291.32 234.88 291.37 234.28 292.19 232.2 293.49 229.8 293.61 229.09 293.62 228.17 292.48 223.38 292.44 222.63 292.57 222.03 293.02 220.96 293.3 219.76 293.52 219.25 296.2 216.95 296.62 216.68 297.08 216.52 297.57 216.58 298.03 216.79 298.41 217.14 298.79 217.43 299.23 217.57 299.64 217.4 300.01 217.13 300.72 216.38 302.32 215.1 305.14 212.18 305.29 211.53 305.24 210.72 304.61 208.39 304.6 207.64 305.18 206.01 305.71 203.57 305.93 203.1 306.49 202.25 306.68 201.81 306.71 201.1 306.65 200.24 306.31 198.97 306.23 198.1 306.27 197.37 306.43 196.79 307.15 195.16 307.67 193.35 307.7 193.3 307.75 193.27 308.08 192.93 308.33 192.56 308.49 192.1 308.57 190.79 309.37 188.72 309.62 187.82 309.88 184.07 313.19 184.64 314.57 184.37 315.81 183.72 326.1 181.4 327.78 181.2 329.31 181.33 331.62 181.85 332.28 181.77 332.85 181.54 333.43 181.19 333.94 181.24 334.43 181.56 334.94 182.02 335.79 182.58 336.36 182.58 336.83 182.35 337.53 181.34 338.09 180.77 339.92 179.65 340.45 179.24 344.45 174.43 345.42 172.4 346.55 170.53 350.57 165.92 351.54 165.16 352.27 164.83 353.02 164.76 355.17 165.08 356.07 165.04 356.6 164.76 357 164.37 357.86 162.99 358.46 162.36 359.33 161.66 362.22 159.93 363.06 159.59 367.83 158.17 369.05 158.01 369.72 158.01 372.53 158.44 373.4 158.44 373.99 158.29 374.49 158.03 377.62 155.72 378.16 155.56 378.64 155.67 379.21 156.23 379.71 156.81 380.14 157.7 380.58 159.29 380.8 159.75 381.69 161 381.94 161.44 382.57 162.88 383.12 163.72 383.75 164.51 384.13 164.86 384.6 165.14 391.66 167.43 394.54 169.71 395.11 169.94 396.75 170.21 397.43 170.41 397.97 170.67 398.39 171 398.76 171.35 399.17 171.67 399.65 171.96 406.07 174.12 406.69 174.22 407.84 174.3 408.71 174.14 409.81 173.81 410.57 173.73 411.3 173.83 411.9 174.1 412.6 174.5 413.57 175.21 413.95 175.56 414.29 175.94 415.03 177.3 415.37 178.3 415.81 180.53 415.97 181.04 416.19 181.51 416.44 181.94 423.26 189.5 423.96 189.89 424.88 190.3 426.7 190.85 427.44 191.33 427.68 191.8 426.93 193.57 426.73 193.94 426.41 194.3 426.01 194.63 424.22 195.67 423.43 196.33 422.79 197.16 422.51 197.63 422.04 198.66 421.47 199.57 420.68 200.23 420.24 200.51 419.84 200.83 419.48 201.21 419.17 201.62 419 202.14 419.07 202.76 419.33 203.38 420.55 204.56 420.9 205.04 421.05 205.58 421.24 207.92 420.86 210.45 420.81 212.96 420.68 213.56 420.49 214.12 420.27 214.64 419.97 215.09 419.63 215.46 417.97 216.7 417.59 217.05 417.52 217.59 417.67 218.22 418.67 219.21 419.14 219.86 419.33 220.51 419.17 221.05 418.63 221.99 417.96 222.77 416.73 223.7 416.36 224.05 416.04 224.49 415.82 225.03 415.34 227.65 415.14 228.22 414.9 228.71 413.54 230.3 413.26 230.76 412.6 232.37 411.46 234.24 408.74 240.57 408.11 241.42 407.86 241.88 407.7 242.44 407.55 243.54 407.38 243.94 407.23 244.19 407.13 244.3 407.1 244.4 407.05 244.63 407.04 245.1 407.33 246.09 407.52 246.59 407.77 247.66 407.81 248.23 407.73 249.4 407.77 249.98 407.95 250.46 408.21 250.92 408.4 251.4 408.64 252.5 408.96 253.08 409.44 253.67 410.92 255.05 411.3 255.6 411.36 256.16 411.37 256.78 411.46 257.35 411.64 257.85 411.93 258.27 414.64 260.7 414.95 261.09 415.21 261.55 415.66 262.65 416.12 263.27 418.73 266 419.52 266.55 421.71 267.59 422.41 268.04 422.88 268.53 423.74 269.86 424.68 270.94 425.49 271.35 427.12 271.72 428.18 272.1 442.19 280.74 446.02 282.42 446.59 282.9 446.91 283.47 446.94 284.06 446.86 284.71 446.73 285.33 445.64 288.02 445.48 288.57 445.45 289.17 445.5 290.27 445.42 290.71 445.29 290.99 444.99 291.33 444.24 291.94 443.92 292.35 443.74 292.85 443.73 293.41 444.12 298.17 443.86 300.13 443.84 300.76 443.89 301.36 444.09 302.1 444.46 302.92 445.25 304.16 445.9 304.7 446.59 304.96 447.59 305.21 448.87 305.7 452.81 308.02 453.84 308.42 454.38 308.31 455.35 307.94 455.88 307.89 458.43 308.36 459.09 308.42 459.9 308.61 460.76 308.91 462.04 309.62 462.77 310.23 463.53 311.05 464.11 311.38 464.68 311.45 465.19 311.26 465.79 311.16 466.54 311.22 468.72 312.19 469.7 312.41 470.13 312.6 470.47 312.92 470.77 313.45 471.32 314.24 471.86 314.66 472.46 314.87 473.97 315.14 477.35 316.67 477.93 316.84 481.78 317.56 482.35 317.52 482.79 317.29 483.57 316.61 484.01 316.34 485.67 315.86 486.38 315.83 487.25 315.96 490.64 317.56 492.6 317.67 493.25 317.84 495.71 319.09 496.28 319.31 497.56 319.56 498.93 319.66 501.53 319.55 502.18 319.6 505.71 320.46 507.06 320.96 508.38 321.72 509.21 322.4 511.38 324.59 512.12 325.1 512.85 325.43 514.41 325.85 516.79 326.91 519.12 327.39 520.48 327.83 521.22 328.21 522.09 328.87 525.67 332.17 Z" id="ZWE-527" data-name="Midlands"/>
<path d="M 791.48 169.44 791.46 169.44 790.86 169.47 788.7 170.04 781.12 172.94 780.13 173.62 777.76 175.77 770.91 180.54 770.46 181.07 770.1 181.59 767.09 187.36 766.95 187.9 766.88 189.15 766.77 189.83 766.24 190.75 765.56 191.33 764.95 191.71 763.43 192.38 762.34 192.66 759.16 193.84 758.53 194.3 758.12 194.82 757.94 195.37 757.83 197.22 757.72 197.83 757.52 198.45 757.2 198.99 752.94 203.36 751.83 204.1 750.93 204.56 750.36 204.65 749.27 204.99 748.3 205.41 747.78 205.59 745.9 205.77 742.37 207.33 741.8 207.84 740.47 209.56 738.95 211.13 738.06 211.69 737.32 211.82 736.21 211.44 735.59 211.32 734.92 211.3 734.01 211.43 732.93 211.75 731.07 212.59 729.45 213.62 725.31 217.62 724.29 218.3 722.01 219.56 721.14 220.26 720.67 220.75 720.1 221.57 719.09 223.37 718.34 224.41 717.78 224.95 717.27 225.33 715.11 226.13 712.98 227.26 710.19 228.28 709.52 228.69 709.05 229.13 708.76 229.62 708.57 230.18 707.83 234.05 707.77 235.32 707.99 237 707.93 237.51 707.55 238.03 683.63 261.25 683.51 261.92 683.52 262.55 683.74 264.33 683.34 265.35 682.57 266.73 678.77 271.58 678.58 272.16 678.46 272.79 678.28 276.12 678.53 277.88 678.85 278.88 679.07 279.3 679.14 280.31 677.66 283.17 677.3 284.23 677.59 286.19 677.47 287.23 676.73 287.74 675.73 288.12 671.23 289.13 670.24 289.48 669.43 289.93 669.1 290.77 668.91 291.74 668.83 292.79 668.63 293.77 668.36 294.61 667.82 295.08 667.41 295.33 667.08 295.6 666.47 296.22 666.89 297.04 668.06 298.77 668.37 300.4 669.23 302.18 669.29 302.98 668.94 304.02 668.34 305.38 668.36 306.11 668.56 306.68 668.85 307.11 669.07 308.21 669.24 308.7 670.21 309.91 671.16 311.72 671.44 312.16 671.78 312.57 672.92 313.61 673.77 314.89 674.7 316.07 674.97 316.5 675.21 317.13 675.68 319.1 676.11 320.3 676.36 320.71 676.7 321.12 677.09 321.42 677.6 321.66 678.16 321.83 680.04 321.91 680.69 322.02 681.25 322.19 681.74 322.46 682.14 322.79 682.44 323.21 684.69 328.59 686.53 337.43 686.73 337.96 686.97 338.39 687.32 338.77 687.76 339.06 688.73 339.59 689.05 340 689.22 340.51 689.33 341.06 689.54 341.53 689.8 341.97 690.75 343.23 691.27 344.07 691.72 345.02 691.81 345.52 691.88 346 691.53 350.29 691.58 352.18 691.31 354.18 691.29 355.5 691.75 358.01 691.12 359.78 690.47 359.32 689.71 359.04 688.67 358.82 687.93 358.86 686.19 359.38 685.18 359.51 683.12 359.08 679.06 357.16 675.3 356.26 673.71 355.15 669.87 351.32 668.45 350.45 666.76 349.93 664.97 350.05 659.95 350.83 658.05 350.72 654.64 349.24 652.42 348.65 651.45 348.7 651.04 349.02 651.26 349.43 651.94 350.21 652.18 350.62 652.31 351.11 652.18 351.59 651.45 353.04 650.69 355.2 649.27 358.12 648.42 359.46 647.76 360.24 645.91 362.03 645.2 362.27 644.58 362.19 644.09 361.92 643.65 361.62 643.11 361.37 642.43 361.17 641.27 361.15 640.5 361.03 639.91 360.79 639.71 360.29 639.64 359.76 639.63 359.18 639.47 358.67 639.22 358.2 637.3 356.4 636.71 356.06 635.84 355.72 635.29 355.8 634.85 356.08 634.07 356.9 633.47 357.34 632.81 357.47 632.24 357.41 631.14 356.99 630.19 356.5 629.21 356.28 627.87 356.19 625.14 356.39 624.16 356.9 623.63 357.46 623.55 357.95 623.2 358.53 623.1 362.58 622.08 365.04 622.08 370.02 620.84 370.58 610.9 371.64 594.9 372.03 590.47 371.43 590.15 370.91 590.01 370.36 589.9 369.16 589.99 367.87 590.31 366.71 590.5 366.28 590.62 366.06 590.75 365.7 590.67 365.47 590.66 365.36 590.62 365.27 590.67 365.23 591.03 364.69 591.25 363.95 591.32 363.18 591.28 362.71 590.86 362.52 590.56 362.46 587 362.17 585.94 362.32 585.26 362.82 584.18 364.4 583.53 365.14 582.62 365.57 581.16 365.76 580.56 365.94 580.3 366.3 580.5 367.11 580.91 368.05 580.7 370.21 576.29 374.08 573.72 372.72 571.16 372.12 570.75 371.98 569.42 370.83 567.89 369.05 565.89 367.34 564.38 365.76 562.32 364.21 561.96 363.84 561.8 363.3 561.91 362.95 561.94 362.68 561.93 362.46 561.85 362.22 561.74 361.95 561.66 361.66 561.63 361.44 561.64 361.1 561.71 360.75 562.2 359.26 562.58 358.99 563.03 358.91 563.4 358.75 563.51 358.38 563.44 357.77 563.26 357.05 562.94 356.26 562.43 355.4 559.98 352.28 557.9 348.81 557.56 347.86 557.53 347.23 557.64 346.79 558.73 345.19 558.92 344.64 558.21 344.46 557.56 344.2 556.7 343.74 555.95 343.43 553.79 343.15 551.04 343.11 549.47 342.78 548.46 342.67 547.81 342.53 547.12 342.24 544.99 340.37 543.44 339.76 541.48 339.29 537.06 337.48 534.5 335.74 532.88 334.23 531.13 333.48 525.67 332.17 527.47 330.5 528.2 328.94 529.03 324.19 529.28 323.35 533.67 314.81 534.52 313.8 535.09 313.64 535.51 313.94 535.81 314.33 536.05 314.78 537.11 317.82 537.36 318.25 537.63 318.61 537.87 318.85 539.5 322.53 540.01 322.65 540.83 322.54 542.87 321.87 543.68 321.35 544.07 320.93 544 320.5 543.71 319.52 543.63 318.99 543.73 318.5 544.12 318.32 544.69 318.41 546.85 319.07 547.32 319.34 548.13 320.03 548.73 320.29 549.46 320.36 550.53 320.22 550.94 319.84 551.12 319.56 551.04 319.1 550.6 317.54 550.56 316.95 550.75 316.31 551.23 316.18 551.75 316.24 554.1 316.79 554.41 316.94 554.68 317.23 555.08 317.81 555.28 317.63 555.55 317.32 560.24 309.68 564.61 305.61 565.29 304.72 565.7 303.91 565.93 302.65 566.71 288.57 566.85 287.74 567.14 286.68 567.66 286.02 568.31 285.48 569.34 284.76 569.73 284.14 569.86 283.56 569.72 283.07 569.26 282.1 568.69 281.27 565.92 278.29 561.64 274.59 560.98 273.84 560.71 273.4 560.5 272.9 560.39 272.33 560.24 269 560.3 268.07 560.6 267.54 561.01 267.16 561.99 266.67 562.5 266.48 563.28 265.76 564.23 264.68 566 262.05 566.55 260.77 566.72 259.86 566.55 259.37 566.41 258.84 566.44 258.23 567.42 254.99 567.85 254.15 568.39 253.56 569.77 252.62 570.05 252.05 570.08 251.51 568.58 248.14 568.42 247.5 568.33 246.72 568.56 245.44 568.86 244.82 569.13 244.41 569.24 244.33 569.28 244.28 570.89 243.67 571.41 243.36 571.98 242.9 572.22 242.39 572.23 241.84 572.09 241.3 571.71 240.3 571.55 239.66 571.49 238.81 571.73 237.43 572.11 236.67 572.49 236.49 572.82 236.58 573.59 236.96 576.38 237.98 577.77 238.71 578.29 239.1 581.04 241.49 583.01 242.28 584.32 242.61 588.22 244.18 593.22 247.3 595.53 249.24 596.46 249.65 597.09 249.82 597.5 249.76 597.86 249.67 598.22 249.51 599.08 248.96 599.6 248.71 600.26 248.55 601.59 248.42 602.15 248.2 603.91 246.94 604.22 246.52 604.13 246.28 603.19 245.62 602.83 245.19 602.91 244.69 603.24 243.92 604.7 243.29 605.69 242.17 606.07 240.48 606.12 239.98 606.04 238.84 605.93 238.24 605.63 237.12 605.65 236.8 605.77 236.5 609.51 234.93 610.38 234.35 610.92 233.76 611.01 232.7 611.2 232.02 611.6 231.3 612.58 230.35 613.05 229.72 613.29 229.18 613.26 228.82 613.13 228.35 612.17 226.4 611.87 225.52 611.63 224.49 611.58 223.89 611.66 222.73 611.53 222.09 611.23 221.48 610.82 220.84 610.62 220.15 610.62 219.45 611.06 217.74 611.14 216.57 611.03 215.46 610.68 214.37 610.19 213.92 609.23 213.65 605.88 213.74 604.02 213.43 603.27 213.09 602.83 212.45 602.56 211.71 602.38 210.88 602.07 210.53 601.59 210.34 599.68 210.24 601.7 201.7 601.64 200.91 601.42 200.05 600.72 199.97 600.03 199.57 599.43 198.27 599.58 197.71 601.72 195.34 603.32 192.07 604.68 190.76 606.04 190.06 622.11 191.44 622.93 191.63 622.99 192.27 622.82 192.89 619.38 201.51 619.16 202.59 619.32 203.67 619.64 204.77 620.16 205.74 620.86 206.54 621.82 206.35 624.08 205.19 625.24 204.81 628.77 206.19 629.86 205.72 630.98 204.89 636.38 199.94 637.44 199.18 638.06 199.19 638.71 199.46 639.31 199.62 640.04 198.83 640.66 197.91 641.68 195.92 642.83 194.14 643.27 193.57 652.56 188.79 654.36 187.12 654.63 186.23 656.3 183.67 665.02 175.4 666.64 173.32 667.61 171 667.5 168.22 667.14 166.53 666.95 164.64 667.16 162.79 668.01 161.31 669.16 160.45 671.76 158.97 672.92 157.98 673.44 157.26 674.33 155.69 674.9 155.02 675.48 154.58 677.46 153.46 679.09 152.04 680.45 150.4 682.77 146.71 683.23 145.69 683.84 142.33 684.48 140.49 685.48 138.72 686.78 137.17 688.29 135.96 691.61 134.37 692.51 133.54 693.06 132.55 694.21 127.69 694.92 126.06 695.85 124.56 696.92 123.44 699.78 121.75 701.43 121.12 702.92 120.87 703.85 121.01 705.56 121.7 706.48 121.91 708.67 121.81 711.07 121.28 713.4 120.44 715.33 119.4 717.02 118.23 717.9 117.82 719.02 117.6 723.21 117.75 724.61 117.62 727.25 116.67 732.14 113.88 734.76 112.94 737.3 112.66 751.1 114.31 751.99 114.62 753.72 115.48 754.62 115.81 760.48 116.31 762.38 116.04 764.12 115.3 766.81 112.82 767.19 112.57 767.23 112.59 768.11 112.02 769.53 111.48 771.11 111.23 774.31 111.42 780.56 112.76 783.76 112.96 785.42 112.52 788.47 110.65 790.17 109.96 791.43 109.82 790.72 112.75 787.84 123.5 786.09 126.78 784.49 128.8 777.17 135.68 777.31 136.33 783.09 146.19 787.35 153.46 789.96 159.34 791.35 165.64 791.48 169.44 Z" id="ZWE-528" data-name="Mashonaland East"/>
<path d="M 795.83 181.46 794.38 183.6 790.37 191.1 789.71 191.89 788.82 192.44 788.17 193.12 788.18 194.25 789.25 197.7 789.71 198.54 791.49 199.88 795.32 201.55 796.72 203.35 797.14 205.45 796.74 207.42 795.05 211.2 794.66 215.11 794.96 219.58 794.55 223.31 791.94 224.98 790.26 225.73 789.14 227.44 788.48 229.55 788.2 231.55 788.36 233.54 789.56 236.4 789.75 238.2 789.35 239.53 788.56 240.21 787.75 240.72 787.23 241.53 787.39 242.49 788.64 243.91 788.55 244.79 788 246.8 788.22 249.1 791.81 259.62 792.14 262.99 792.07 263.75 791.16 265.94 790.37 267.28 789.77 268.06 789.59 268.91 790.04 270.44 791.59 272.6 796.36 276.29 798.2 278.25 799 280.2 798.52 281.33 795.58 283.46 793.43 286.44 793.14 286.37 793.29 287.37 794.59 288.83 794.95 289.88 794.27 291.94 792.45 293.26 790.21 294.26 788.23 295.4 786.41 296.32 784.47 296.86 782.72 297.55 781.45 298.94 781.2 300.66 781.55 302.76 782.85 306.42 785.92 312.22 786.71 315 786.5 318.37 785.79 321.1 784.69 323.3 782.93 324.66 780.24 324.88 776.07 324.57 772.98 325 763.16 329.39 763 330.31 763.71 335.81 764.36 337.31 765.64 338.12 764.55 338.9 763.25 339.59 762.26 340.45 762.11 341.7 762.88 343.98 763.05 345.1 762.88 346.39 763.13 347.75 763.93 348.56 765.09 348.94 766.47 349.01 772.81 348.1 774.58 348.29 775.69 348.72 776.28 349.19 776.58 349.88 776.81 351.07 777.32 352.33 778.13 353.12 779.08 353.84 779.94 354.84 780.59 358.34 777.63 370.98 777.52 373.5 777.16 375.32 776.35 377.03 774.86 379.28 771.06 383.39 770.82 384.39 771.03 387.38 770.38 391.52 770.5 393.62 771.58 394.83 773.54 394.92 775.39 394.7 776.82 395.17 777.52 397.39 777.55 399.26 776.82 406.64 776.86 407.58 777.11 408.58 777.26 409.91 776.82 410.89 776.22 411.78 775.9 412.81 776.24 415.08 777.4 416.18 779.25 416.58 781.6 416.7 783.9 416.1 786.95 413.14 788.84 412.52 790.66 413.49 790.8 415.56 789.96 419.51 790.8 421.31 792.5 422.94 794.7 424.26 796.96 425.15 797.98 426.28 797.66 428.24 796.97 430.64 796.81 434.84 794.84 440.85 794.47 448.39 795.08 450.77 795.38 451.56 789.92 451.38 788.53 452.53 787.94 455.65 787.15 457.12 785.53 457.59 783.87 457.89 782.94 458.8 782.18 463.77 781.67 465.35 780.28 467.77 780.06 468.76 780.19 469.46 780.87 470.83 780.93 471.64 780.2 474.77 779.64 476.23 778.85 477.54 774.32 482.83 767.7 490.55 764.49 496.42 761.16 502.54 758.58 505.21 754.21 505.91 749.4 505.35 744.98 505.89 741.76 509.81 740.69 514.14 740.49 518.36 741.95 529.31 743.35 539.91 742.72 543.81 740.34 548.28 735.18 554.47 727.3 563.97 727.86 564.87 729.34 565.74 730.26 566.92 730.72 566.99 731.17 566.97 731.46 567.18 731.45 567.86 731.08 568.51 730.68 569.06 730.56 569.47 737.99 581.38 738.11 581.82 738.25 582.3 734.31 579.91 724.55 574.03 722.92 572.05 723.05 570.51 719.43 562.24 718.67 559.82 718.16 559.34 711.01 555.97 712.19 554.42 711.87 553.42 709.62 551.73 709.02 550.82 708.7 549.88 707.75 545.12 707.36 544.21 706.46 542.99 706.41 542.12 707.85 539.82 708.23 538.78 708.76 536.59 712.41 530.07 714.29 524.84 714.49 522.76 714.89 520.97 715.87 519.41 717.98 516.84 719.04 510.79 720.51 508.8 721.36 503.9 721.87 489.54 726.93 460.85 727.03 450.68 726.41 449.79 726.13 448.82 724.26 447.69 718.93 445.19 712.15 440.23 710.8 439.73 709.87 439.49 709.06 439.4 707.07 439.45 704.71 439.81 704.08 439.62 703.45 439.19 702.61 438.29 701.94 437.72 701.18 437.27 700 436.96 699.14 436.85 698.05 436.58 696.75 435.96 694.57 434.46 693.03 433.01 692.24 432.12 691.4 430.58 690.94 430.11 690.29 429.64 687.6 428.49 687.05 428.11 686.46 427.62 685.7 426.67 685.32 426 685.07 425.38 684.07 422.27 683.55 421.6 682.77 420.78 679.59 418 677.25 415.37 676.93 414.89 676.7 414.43 675.98 412.42 675.73 411.9 675.02 411.27 673.8 410.49 669.1 408.04 668.4 407.51 667.52 406.57 667.09 405.92 666.85 405.28 666.77 404.71 666.62 404.18 666.41 403.69 666.06 403.26 662.94 400.36 662.39 399.45 662.1 398.66 662.15 397.5 662.1 397.2 661.69 396.84 660.98 396.57 658.54 396.21 657.47 395.94 656.03 395.36 655.16 394.89 654.42 394.29 653.89 393.96 653.1 393.91 652.02 394.31 651.48 394.44 650.85 394.29 650.22 393.94 649.6 393.18 649.24 392.59 648.64 391.92 647.79 391.25 645.12 389.45 644.13 388.98 642.14 388.55 641.57 388.34 641.07 388.03 639.98 386.99 639.53 386.72 638.95 386.55 637.86 386.46 637.13 386.58 636.56 386.83 636.14 387.12 635.62 387.27 634.99 387.21 633.82 386.64 632.51 385.81 628.8 382.88 612.21 373.24 610.9 371.64 620.84 370.58 622.08 370.02 622.08 365.04 623.1 362.58 623.2 358.53 623.55 357.95 623.63 357.46 624.16 356.9 625.14 356.39 627.87 356.19 629.21 356.28 630.19 356.5 631.14 356.99 632.24 357.41 632.81 357.47 633.47 357.34 634.07 356.9 634.85 356.08 635.29 355.8 635.84 355.72 636.71 356.06 637.3 356.4 639.22 358.2 639.47 358.67 639.63 359.18 639.64 359.76 639.71 360.29 639.91 360.79 640.5 361.03 641.27 361.15 642.43 361.17 643.11 361.37 643.65 361.62 644.09 361.92 644.58 362.19 645.2 362.27 645.91 362.03 647.76 360.24 648.42 359.46 649.27 358.12 650.69 355.2 651.45 353.04 652.18 351.59 652.31 351.11 652.18 350.62 651.94 350.21 651.26 349.43 651.04 349.02 651.45 348.7 652.42 348.65 654.64 349.24 658.05 350.72 659.95 350.83 664.97 350.05 666.76 349.93 668.45 350.45 669.87 351.32 673.71 355.15 675.3 356.26 679.06 357.16 683.12 359.08 685.18 359.51 686.19 359.38 687.93 358.86 688.67 358.82 689.71 359.04 690.47 359.32 691.12 359.78 691.75 358.01 691.29 355.5 691.31 354.18 691.58 352.18 691.53 350.29 691.88 346 691.81 345.52 691.72 345.02 691.27 344.07 690.75 343.23 689.8 341.97 689.54 341.53 689.33 341.06 689.22 340.51 689.05 340 688.73 339.59 687.76 339.06 687.32 338.77 686.97 338.39 686.73 337.96 686.53 337.43 684.69 328.59 682.44 323.21 682.14 322.79 681.74 322.46 681.25 322.19 680.69 322.02 680.04 321.91 678.16 321.83 677.6 321.66 677.09 321.42 676.7 321.12 676.36 320.71 676.11 320.3 675.68 319.1 675.21 317.13 674.97 316.5 674.7 316.07 673.77 314.89 672.92 313.61 671.78 312.57 671.44 312.16 671.16 311.72 670.21 309.91 669.24 308.7 669.07 308.21 668.85 307.11 668.56 306.68 668.36 306.11 668.34 305.38 668.94 304.02 669.29 302.98 669.23 302.18 668.37 300.4 668.06 298.77 666.89 297.04 666.47 296.22 667.08 295.6 667.41 295.33 667.82 295.08 668.36 294.61 668.63 293.77 668.83 292.79 668.91 291.74 669.1 290.77 669.43 289.93 670.24 289.48 671.23 289.13 675.73 288.12 676.73 287.74 677.47 287.23 677.59 286.19 677.3 284.23 677.66 283.17 679.14 280.31 679.07 279.3 678.85 278.88 678.53 277.88 678.28 276.12 678.46 272.79 678.58 272.16 678.77 271.58 682.57 266.73 683.34 265.35 683.74 264.33 683.52 262.55 683.51 261.92 683.63 261.25 707.55 238.03 707.93 237.51 707.99 237 707.77 235.32 707.83 234.05 708.57 230.18 708.76 229.62 709.05 229.13 709.52 228.69 710.19 228.28 712.98 227.26 715.11 226.13 717.27 225.33 717.78 224.95 718.34 224.41 719.09 223.37 720.1 221.57 720.67 220.75 721.14 220.26 722.01 219.56 724.29 218.3 725.31 217.62 729.45 213.62 731.07 212.59 732.93 211.75 734.01 211.43 734.92 211.3 735.59 211.32 736.21 211.44 737.32 211.82 738.06 211.69 738.95 211.13 740.47 209.56 741.8 207.84 742.37 207.33 745.9 205.77 747.78 205.59 748.3 205.41 749.27 204.99 750.36 204.65 750.93 204.56 751.83 204.1 752.94 203.36 757.2 198.99 757.52 198.45 757.72 197.83 757.83 197.22 757.94 195.37 758.12 194.82 758.53 194.3 759.16 193.84 762.34 192.66 763.43 192.38 764.95 191.71 765.56 191.33 766.24 190.75 766.77 189.83 766.88 189.15 766.95 187.9 767.09 187.36 770.1 181.59 770.46 181.07 770.91 180.54 777.76 175.77 780.13 173.62 781.12 172.94 788.7 170.04 790.86 169.47 791.46 169.44 791.48 169.44 791.52 170.45 791.91 172.68 792.96 174.7 793.86 175.41 796.13 176.63 796.84 177.54 796.93 179.16 796.3 180.77 795.83 181.46 Z" id="ZWE-529" data-name="Manicaland"/>
<path d="M 460.89 552.77 462.42 557.6 463.18 559.11 467.79 564.15 468.29 564.48 469.08 564.8 471.52 566.13 471.92 566.51 472.03 566.77 471.81 566.94 471.78 567.51 472.01 568.43 473.06 570.58 473.63 571.44 474.12 571.95 474.99 572.1 475.57 572.31 476.54 572.89 476.95 573.39 477.17 574.17 477.32 576.97 477.52 577.65 477.77 577.94 478.2 577.98 478.71 578.08 479.5 578.42 479.86 578.78 480.05 579.3 480.08 579.84 480.24 580.56 480.53 580.9 481 581.15 481.57 581.38 481.87 581.6 482.09 581.87 483.62 585.31 484.14 586.22 484.63 586.85 485.1 587.13 486.16 587.62 487.03 588.24 487.43 588.59 487.84 588.9 489.03 589.54 489.52 589.91 490.63 590.9 492.32 593.69 492.78 594.16 493.86 594.8 495.75 596.4 496.56 597.7 497.16 598.41 497.72 598.86 498.38 599.1 499.12 599.54 499.57 600.11 500.01 601 500.42 601.29 500.82 601.38 501.1 601.32 501.2 601.29 501.61 601.23 502.07 601.29 503.43 601.67 504.03 601.76 505.41 601.8 506.3 602.14 506.63 602.72 507.09 604.15 507.5 604.56 508 604.79 508.86 605.02 510.95 606.13 511.69 606.44 512.6 606.65 513.07 606.97 513.4 607.39 513.56 607.89 513.58 608.49 513.4 609.81 513.67 610.24 514.13 610.54 514.78 610.71 523.03 611.7 524.18 612.04 524.77 612.11 525.29 611.98 525.78 611.77 526.3 611.6 526.93 611.56 529.33 612.67 531.82 614.3 534.04 615.24 534.85 615.95 537.98 617.04 540.04 617.18 540.83 617.46 541.15 617.85 541.1 618.3 540.5 619.07 540.34 619.48 540.41 619.85 541.32 621.02 543.38 623.14 543.95 623.85 544.74 625.2 545.24 625.39 545.79 625.41 546.34 625.38 546.91 625.54 548.13 626.21 550.52 627.1 551.1 627.12 551.64 626.99 552.69 626.57 553.38 626.66 553.72 627 553.78 627.54 553.64 628.07 553.59 628.72 553.98 629.09 555.39 629.75 555.72 630.23 555.87 630.81 555.83 631.41 555.91 631.96 556.63 634.14 556.93 634.85 557.32 635.31 559.92 636.75 560.5 637.28 560.95 637.88 561.25 638.51 565.87 643.99 566.04 644.43 565.92 645.55 565.98 646.24 566.68 647.38 567.39 647.96 568.2 648.44 569.2 648.88 569.5 649.35 569.53 649.88 569.32 650.35 569.28 650.9 569.29 651.85 569.15 652.15 569.09 652.28 569.01 652.36 568.88 652.5 568.67 652.8 568.56 653.27 568.86 653.52 569.39 653.6 570 653.6 570.86 653.79 571.77 654.16 573.2 655.03 573.91 655.68 574.55 656.57 575.16 657.18 576.24 657.99 576.71 658.65 577.3 660.07 577.71 660.44 578.26 660.56 579.59 660.39 580.53 660.44 581 660.76 581.27 661.25 581.27 662.43 581.45 662.97 581.78 663.46 582.66 664.49 582.93 664.97 583.09 665.49 583.36 666.91 583.77 667.85 584.21 668.36 584.74 668.69 586.27 668.97 587.37 669.29 587.84 669.7 588 670.23 587.86 671.39 588.25 671.65 588.77 671.7 590.09 671.62 590.77 671.71 591.56 672.02 591.94 672.47 592.07 673.05 592.15 673.77 592.35 674.6 593.08 675.79 593.41 676.48 593.46 677.72 593.67 678.45 594.84 680.06 595.1 680.67 595.29 681.96 595.59 682.68 596.12 683.06 596.81 683.32 597.47 683.42 598.03 683.37 598.67 683.42 599.11 683.91 600.53 686.43 600.53 686.44 600.53 686.46 599.57 686.66 597.81 686.34 594.32 684.9 583.21 682.47 577.08 681.84 574.1 681.1 570.77 682.34 559.41 683.18 557.41 683.77 554.67 685.6 553.14 686.03 552.44 685.82 550.88 684.81 549.95 684.58 546.99 684.6 540.38 683.88 538.46 683.94 536.49 684.44 532.67 686.08 530.73 686.66 526.59 687.34 522.8 687.46 519.31 686.67 516.11 684.58 514.67 683.38 513.15 682.51 511.25 681.97 508.73 681.79 504.2 682.37 502.41 682.25 499.97 681.1 497.06 679.11 495.56 678.52 492.52 678.19 492.29 677.86 492.15 677.41 490.21 675.46 489.17 674.97 486.98 674.51 485.98 674.13 483.19 672.53 481.71 672.13 478.03 671.82 475.52 670.59 472.04 669.89 466.12 666.21 464.04 665.65 457.16 665.98 455.95 666.41 454.1 665.2 452.02 665.48 448.24 667.1 444.79 666.78 442.84 667.19 441.97 668.88 440.88 669.89 438.34 669.65 433.23 668.5 431.12 668.94 427.38 670.88 425.19 671.98 423.68 671.91 423.04 671.78 422.34 671.34 414.54 665.06 413.9 664.11 413.11 662.1 412.55 661.18 411.56 660.02 411.04 659.71 401.41 659.98 397.64 659.36 393.85 657.5 390.77 654.44 388.83 650.55 388.04 646.22 388.46 641.91 389.58 639.72 391.27 637.26 392.51 634.88 392.27 632.92 390.58 631.69 386.5 630.47 384.68 629.33 381.73 628.67 375.52 628.32 372.44 627.55 357.48 621.04 352.81 619.66 348.86 616.74 347.43 616.3 344.4 616.03 341.14 615.23 340.01 615.41 338.95 615.89 335.36 616.76 333.73 617.36 332.02 617.65 329.83 617.19 321.53 613.16 317.47 611.86 313.69 611.18 301.53 611.01 293.89 609.59 287.98 609.24 286.32 608.73 284.89 607.85 283.65 606.59 283.07 605.68 282.15 603.6 281.63 602.77 280.93 602.37 280.35 602.47 279.86 602.37 279.46 601.38 279.98 600.06 279.57 599.47 278.85 599.25 278.5 599.06 278.71 598.09 279.49 596.86 279.84 596.06 279.55 595.01 276.52 589.18 274.86 587.5 274.21 586.55 274.04 585.78 274.09 584.2 273.86 583.38 272.9 581.94 269.24 577.8 266.64 573.94 263.6 570.44 256.52 565.56 254.97 564.02 251.46 559.49 250.62 557.56 250.64 555.78 251.88 550.37 252.02 548.22 251.24 542.5 251.23 541.5 251.49 539.21 251.46 538.05 251.58 536.7 252.17 535.77 252.91 534.9 253.46 533.75 255.01 525.48 254.78 521.4 252.24 513.31 253.05 509.65 254.3 506.04 254.6 502.02 253.84 500.22 252.37 498.9 250.56 498.19 246.46 498.14 242.9 496.58 237.11 497.57 228.93 496.58 217.38 496.55 213.84 496.99 210 498.86 211.6 484.15 209.76 472.18 204.55 459.56 203.21 457.78 201.37 456.7 199.25 456.11 197.1 455.78 195.86 455.74 194.84 455.83 193.81 455.77 192.56 455.33 191.45 454.47 189.69 452.11 188.76 451.11 185.35 449.33 182.05 448.99 178.66 449.03 174.98 448.39 163.44 442.83 159.62 442.16 157.21 442.14 155.18 441.76 153.45 440.89 151.88 439.38 150.47 437.54 149.7 436.75 151.49 435.76 154.78 434.06 156.4 433.48 176.34 428.93 178.23 428.84 180 428.98 182.25 429.42 196.46 427.78 198.98 428.16 199.67 428.2 200.29 428.3 200.83 428.49 201.37 428.82 202.01 429.12 203.17 429.36 204.3 429.12 205.88 429.11 207.66 429.43 209.36 429.57 210.28 429.45 210.97 429.23 212.39 428.09 213.27 427.58 214.03 427.42 214.79 427.35 220.28 428.02 222.3 428.49 224.26 429.49 227.76 431.8 229.21 432.54 231.49 433.07 234.2 433.41 235.44 433.71 236.29 434.07 236.94 434.89 237.22 435.35 237.9 436.13 239.23 436.99 239.57 437.38 239.86 437.85 240.04 438.4 240.13 439.01 240.21 440.29 240.49 442.15 240.7 442.66 240.93 443.13 241.65 443.84 242.29 444.32 242.87 444.87 244.91 447.8 248.46 451.56 249.25 452.22 251.1 453.26 252.77 454.48 260.34 461.41 262.02 462.63 264.38 463.89 264.79 464.21 265.15 464.57 265.52 465.06 265.98 465.57 267.15 466.31 268.56 466.72 272.69 467.38 275.9 467.41 276.41 466.89 276.66 465.85 276.88 462.94 277.51 459.76 278.94 455.67 279.32 454.88 279.73 454.53 280.3 455.13 283.86 460.43 284.43 460.67 284.84 460.68 288.62 458.88 289.54 458.57 293.88 458.44 294.94 458.3 298.38 456.93 298.86 456.82 299.15 456.85 299.4 457.09 299.67 457.44 300.09 458.46 300.33 458.92 300.72 459.27 301.26 459.56 302.7 460.12 303.25 460.4 303.65 460.75 303.91 461.21 304.06 461.7 304.19 462.27 304.36 462.81 304.98 463.63 305.24 464.06 305.38 464.57 305.52 465.78 305.8 466.21 307.95 468.4 310.01 470.04 310.23 470.42 310.45 471.1 310.66 471.48 311.01 471.85 311.42 472.18 311.89 472.46 312.39 472.71 312.8 473.05 313.05 473.51 313.22 474.07 313.44 474.5 314.57 475.57 315.81 477.16 316.07 477.61 316.48 478.59 316.96 480.17 317.98 482.17 318.52 482.68 319.21 482.53 332.98 472.77 335.6 471.73 337.41 473.7 337.84 473.74 338.41 473.73 341.72 471.15 342.1 471.1 342.6 471.2 343.31 471.53 344.53 471.81 345.82 472.44 351.08 476.49 351.85 476.63 353.24 476.47 355.93 473.74 356.6 472.18 358.27 471.01 360.19 469.25 370.2 457.83 370.51 457.2 370.51 456.64 369.88 454.62 369.78 454.03 369.79 453.38 370.11 452.57 370.42 452.15 370.9 451.88 375.34 450.14 382.48 446.27 383.69 445.36 385.42 442.66 385.66 442.17 385.73 441.71 385.7 441.42 384.72 439.14 383.3 433.82 382.88 432.81 382.76 432.25 382.77 431.55 383.14 431.25 383.68 431.2 389.78 432.31 390.92 432.09 392.27 431.55 394.64 429.92 395.3 429.1 395.61 428.33 395.65 427.67 396.41 425.78 396.87 424.24 397.02 423.39 397.13 419.35 397.03 418.21 396.73 417.46 396.09 416.9 395.3 416.46 394.6 415.93 393.22 414.66 392.76 414.1 392.51 413.31 392.79 412.76 393.21 412.29 397.72 408.53 398.58 407.43 399.12 406.54 399.47 404.97 399.52 404.11 399.39 403.31 398.99 402.56 398.36 401.78 396.82 400.44 396.27 399.76 395.94 399 395.97 397.87 396.27 397.31 396.81 396.93 397.5 396.76 398.2 396.67 398.82 396.72 402.16 397.31 403.24 397.63 404.17 398.2 404.71 398.62 405.42 399.02 406.25 399.16 407.05 399.04 408.11 398.32 408.62 397.79 409.47 396.02 414.65 400.58 416.07 402.2 417.08 404.97 419.49 409.37 419.94 410.02 420.33 410.46 422.67 412.49 423.17 413.19 423.48 413.84 423.61 414.6 424.4 416.92 425.26 418.22 427.99 420.8 428.64 421.91 429.46 423.66 429.77 424.62 429.89 425.45 428.76 430.41 428.75 431.66 428.98 432.61 429.33 433.74 430.41 435.75 431.51 435.99 433.24 435.53 434.98 434.78 436.51 434.87 437.41 435.06 444.11 438.25 448.68 441.57 449.35 441.89 449.93 441.92 454.49 440.98 455.05 440.81 456.09 440.34 456.6 440.24 457.2 440.34 457.59 441.43 458.26 444.54 458.75 445.78 459.62 446.01 466.74 444.37 468.23 444.42 468.91 445.55 469.57 448.07 469.98 448.28 470.33 448.21 471.79 447.32 472.28 447.27 472.61 447.38 475.79 452.46 475.79 453.44 475.48 454.5 468.7 468.03 468.53 468.61 468.02 473.43 467.85 474.13 461.8 488 461.66 488.62 461.63 489.51 461.8 492.77 461.76 493.65 461.49 494.64 460.7 496.61 459.93 498.07 458.21 500.11 457.47 500.76 456.63 501.17 455.63 500.84 452.26 498.57 451.48 498.31 450.8 498.46 450.8 503.82 450.6 504.91 449.62 507.12 449.66 508.36 449 509.02 448.28 509.46 447.67 509.71 447.4 510.18 447.18 510.76 446.95 511.64 447.08 512.2 447.37 512.64 448.3 513.5 448.97 514.37 449.33 515.21 449.73 516.39 450.31 516.64 451.25 516.54 455.57 515.21 456.18 515.25 456.26 515.93 450.85 539.7 450.55 540.59 450.12 541.2 435.65 550.53 434.31 551.62 434.37 552.05 434.64 552.4 435.73 552.88 437.73 553.48 438.25 553.55 441 553.69 444.79 554.59 448.97 554.68 456.09 553.1 459.24 552.75 460.89 552.77 Z" id="ZWE-530" data-name="Matabeleland South"/>
<path d="M 345.82 472.44 344.53 471.81 343.31 471.53 342.6 471.2 342.1 471.1 341.72 471.15 338.41 473.73 337.84 473.74 337.41 473.7 335.6 471.73 336.9 468.93 336.7 467.95 335.73 466.95 334.99 465.78 334.23 465.55 333.39 465.61 332.17 466.1 331.62 466.2 330.96 466.18 329.23 465.75 328.47 465.68 327.15 465.74 326.36 465.64 325.08 465.27 324.62 464.79 324.52 464.32 324.87 463.87 326.2 463.11 326.83 462.63 327.21 461.99 327.18 460.94 327.23 460.16 327.43 459.45 327.84 458.49 328 457.91 328.02 457 327.04 453.3 326.95 452.07 327.09 451.57 327.39 451.31 327.84 451.3 328.61 451.48 334.39 454.42 335.38 454.69 336.17 454.66 336.87 454.31 338.12 453.27 338.73 453.02 340.99 452.7 342.98 452.04 343.58 452.03 343.93 452.18 344.01 452.46 343.68 453.3 343.55 453.75 343.5 455.01 343.39 455.36 343.4 455.65 343.49 455.94 343.74 456.22 343.99 456.38 344.42 456.5 344.99 456.55 345.53 456.65 346.01 456.89 347.09 457.7 347.78 458.02 348.55 458.05 349.28 457.87 350.67 457.23 351.32 457.2 351.76 457.58 351.89 458.78 352.04 459.19 352.43 459.54 353.09 459.81 353.79 460.01 354.13 460.35 354.17 460.85 353.98 461.52 353.68 462.25 353.03 463.44 352.92 463.77 352.87 464.19 352.9 464.61 353.21 465.07 353.56 465.39 355.55 466.65 355.97 467.06 356.18 467.52 356.16 468.02 355.96 468.61 355.59 469.2 355.04 469.79 354.35 470.31 352.64 471.01 345.82 472.44 Z" id="ZWE-531" data-name="Bulawayo"/>
<path d="M 610.9 371.64 612.21 373.24 628.8 382.88 632.51 385.81 633.82 386.64 634.99 387.21 635.62 387.27 636.14 387.12 636.56 386.83 637.13 386.58 637.86 386.46 638.95 386.55 639.53 386.72 639.98 386.99 641.07 388.03 641.57 388.34 642.14 388.55 644.13 388.98 645.12 389.45 647.79 391.25 648.64 391.92 649.24 392.59 649.6 393.18 650.22 393.94 650.85 394.29 651.48 394.44 652.02 394.31 653.1 393.91 653.89 393.96 654.42 394.29 655.16 394.89 656.03 395.36 657.47 395.94 658.54 396.21 660.98 396.57 661.69 396.84 662.1 397.2 662.15 397.5 662.1 398.66 662.39 399.45 662.94 400.36 666.06 403.26 666.41 403.69 666.62 404.18 666.77 404.71 666.85 405.28 667.09 405.92 667.52 406.57 668.4 407.51 669.1 408.04 673.8 410.49 675.02 411.27 675.73 411.9 675.98 412.42 676.7 414.43 676.93 414.89 677.25 415.37 679.59 418 682.77 420.78 683.55 421.6 684.07 422.27 685.07 425.38 685.32 426 685.7 426.67 686.46 427.62 687.05 428.11 687.6 428.49 690.29 429.64 690.94 430.11 691.4 430.58 692.24 432.12 693.03 433.01 694.57 434.46 696.75 435.96 698.05 436.58 699.14 436.85 700 436.96 701.18 437.27 701.94 437.72 702.61 438.29 703.45 439.19 704.08 439.62 704.71 439.81 707.07 439.45 709.06 439.4 709.87 439.49 710.8 439.73 712.15 440.23 718.93 445.19 724.26 447.69 726.13 448.82 726.41 449.79 727.03 450.68 726.93 460.85 721.87 489.54 721.36 503.9 720.51 508.8 719.04 510.79 717.98 516.84 715.87 519.41 714.89 520.97 714.49 522.76 714.29 524.84 712.41 530.07 708.76 536.59 708.23 538.78 707.85 539.82 706.41 542.12 706.46 542.99 707.36 544.21 707.75 545.12 708.7 549.88 709.02 550.82 709.62 551.73 711.87 553.42 712.19 554.42 711.01 555.97 718.16 559.34 718.67 559.82 719.43 562.24 723.05 570.51 722.92 572.05 724.55 574.03 734.31 579.91 730.68 583.75 725.74 588.87 720.4 594.42 715.05 599.96 709.7 605.51 704.35 611.05 699 616.6 693.66 622.16 688.31 627.7 682.97 633.25 677.61 638.79 672.27 644.35 666.91 649.89 661.58 655.44 656.23 660.99 650.89 666.54 645.53 672.08 640.19 677.63 634.88 683.11 628.24 687.5 620.1 692.83 617.73 689.58 616.71 688.81 615.7 688.77 614.05 689.42 613.23 689.52 612.41 689.21 610.82 688.27 610.08 688.06 609.37 687.55 607.3 685.21 606.2 684.58 604.68 684.79 601.3 686.3 600.53 686.46 600.53 686.44 600.53 686.43 599.11 683.91 598.67 683.42 598.03 683.37 597.47 683.42 596.81 683.32 596.12 683.06 595.59 682.68 595.29 681.96 595.1 680.67 594.84 680.06 593.67 678.45 593.46 677.72 593.41 676.48 593.08 675.79 592.35 674.6 592.15 673.77 592.07 673.05 591.94 672.47 591.56 672.02 590.77 671.71 590.09 671.62 588.77 671.7 588.25 671.65 587.86 671.39 588 670.23 587.84 669.7 587.37 669.29 586.27 668.97 584.74 668.69 584.21 668.36 583.77 667.85 583.36 666.91 583.09 665.49 582.93 664.97 582.66 664.49 581.78 663.46 581.45 662.97 581.27 662.43 581.27 661.25 581 660.76 580.53 660.44 579.59 660.39 578.26 660.56 577.71 660.44 577.3 660.07 576.71 658.65 576.24 657.99 575.16 657.18 574.55 656.57 573.91 655.68 573.2 655.03 571.77 654.16 570.86 653.79 570 653.6 569.39 653.6 568.86 653.52 568.56 653.27 568.67 652.8 568.88 652.5 569.01 652.36 569.09 652.28 569.15 652.15 569.29 651.85 569.28 650.9 569.32 650.35 569.53 649.88 569.5 649.35 569.2 648.88 568.2 648.44 567.39 647.96 566.68 647.38 565.98 646.24 565.92 645.55 566.04 644.43 565.87 643.99 561.25 638.51 560.95 637.88 560.5 637.28 559.92 636.75 557.32 635.31 556.93 634.85 556.63 634.14 555.91 631.96 555.83 631.41 555.87 630.81 555.72 630.23 555.39 629.75 553.98 629.09 553.59 628.72 553.64 628.07 553.78 627.54 553.72 627 553.38 626.66 552.69 626.57 551.64 626.99 551.1 627.12 550.52 627.1 548.13 626.21 546.91 625.54 546.34 625.38 545.79 625.41 545.24 625.39 544.74 625.2 543.95 623.85 543.38 623.14 541.32 621.02 540.41 619.85 540.34 619.48 540.5 619.07 541.1 618.3 541.15 617.85 540.83 617.46 540.04 617.18 537.98 617.04 534.85 615.95 534.04 615.24 531.82 614.3 529.33 612.67 526.93 611.56 526.3 611.6 525.78 611.77 525.29 611.98 524.77 612.11 524.18 612.04 523.03 611.7 514.78 610.71 514.13 610.54 513.67 610.24 513.4 609.81 513.58 608.49 513.56 607.89 513.4 607.39 513.07 606.97 512.6 606.65 511.69 606.44 510.95 606.13 508.86 605.02 508 604.79 507.5 604.56 507.09 604.15 506.63 602.72 506.3 602.14 505.41 601.8 504.03 601.76 503.43 601.67 502.07 601.29 501.61 601.23 501.2 601.29 501.1 601.32 500.82 601.38 500.42 601.29 500.01 601 499.57 600.11 499.12 599.54 498.38 599.1 497.72 598.86 497.16 598.41 496.56 597.7 495.75 596.4 493.86 594.8 492.78 594.16 492.32 593.69 490.63 590.9 489.52 589.91 489.03 589.54 487.84 588.9 487.43 588.59 487.03 588.24 486.16 587.62 485.1 587.13 484.63 586.85 484.14 586.22 483.62 585.31 482.09 581.87 481.87 581.6 481.57 581.38 481 581.15 480.53 580.9 480.24 580.56 480.08 579.84 480.05 579.3 479.86 578.78 479.5 578.42 478.71 578.08 478.2 577.98 477.77 577.94 477.52 577.65 477.32 576.97 477.17 574.17 476.95 573.39 476.54 572.89 475.57 572.31 474.99 572.1 474.12 571.95 473.63 571.44 473.06 570.58 472.01 568.43 471.78 567.51 471.81 566.94 472.03 566.77 471.92 566.51 471.52 566.13 469.08 564.8 468.29 564.48 467.79 564.15 463.18 559.11 462.42 557.6 460.89 552.77 466.05 553.42 466.87 553.37 468.04 553.18 470.11 552.22 482.17 542.74 483.49 542.06 484.45 541.72 485.54 541.61 486.78 541.66 487.47 541.85 488.21 542.28 488.72 542.78 489.42 543.3 490.15 543.73 490.97 544.33 491.61 544.92 492.29 545.37 492.78 545.63 494.33 546.22 495 546.56 495.42 546.88 497 548.9 497.98 549.75 499.2 550.45 501.55 551.11 502.15 551.41 502.53 551.76 503.14 552.46 503.73 552.96 504.16 553.21 504.71 553.48 505.7 553.7 508.27 554.05 510.14 554.04 512.88 554.48 513.62 554.42 514.16 554.21 514.51 553.94 514.81 553.8 515.25 553.65 515.74 553.42 516.79 552.72 517.13 552.62 517.65 552.65 519.56 553.68 520.3 553.86 520.93 554.1 521.63 554.21 522.58 554.12 532.71 545.33 533.47 544.21 533.72 542.59 533.18 535.16 533.33 534.58 533.66 534.06 534.79 532.77 535.18 532.17 535.47 531.55 535.97 529.13 537.08 527.15 537.22 526.51 537.24 525.95 536.72 523.83 536.72 523.23 536.87 522.61 537.13 521.99 538.47 519.77 538.65 519.27 538.68 518.66 538.47 518.2 538.3 517.62 538.04 516.41 537.85 515.86 537.54 515.48 536.7 514.87 536.31 514.53 535.97 514.13 535.67 513.69 535.48 513.17 535.34 512.59 535.28 511.94 535.45 510.13 535.42 509.51 535.26 508.95 534.87 507.9 534.85 507.18 534.96 506.32 535.42 505.15 535.51 504.39 535.36 503.83 531.18 499.39 531.11 499.29 530.91 498.77 530.8 498.25 530.65 497.02 530.48 496.47 530.2 496.04 529.82 495.69 527.53 494.27 527.14 493.94 526.79 493.55 526.52 493.09 526.33 492.55 526.1 492.05 525.81 491.61 525.4 491.31 524.88 491.12 523.66 490.91 523.1 490.72 522.65 490.46 522.25 490.14 521.58 489.33 521.35 488.86 521.17 488.34 521.12 487.74 521.19 487.19 521.2 486.67 521 486.25 520.59 485.98 520.05 485.87 518.07 485.73 516.97 485.4 516.44 485.2 515.98 484.93 515.19 484.28 514.84 483.92 513.43 481.68 513.07 481.3 512.56 481.11 512.3 480.52 512.31 479.44 513.12 476.93 513.2 474.87 513.05 472.84 512.71 471.24 512.25 469.91 511.66 469.2 510.31 468.38 508.67 467.9 506.99 467.75 505.2 468.86 504.52 469.12 504.24 468.89 504.19 465.95 504.76 461.78 505.98 459.62 506.68 456.02 506.53 454.61 506.28 453.83 505.67 453.12 506.03 452.6 506.83 452.07 514.49 448.53 515.05 448.38 515.68 448.3 531.59 447.68 532.28 447.57 532.82 447.39 533.34 446.94 532.62 446.84 532.28 446.83 532.14 446.73 532.14 446.51 532.19 446.19 532.44 445.6 532.5 445.25 532.47 445 532.35 444.86 532.25 444.54 532.25 444.07 532.46 443.09 532.76 442.61 535.15 440.92 535.72 440.22 536 439.8 536.08 439.48 536.04 439.23 535.93 439.02 535.8 438.84 535.63 438.56 535.5 438.18 535.47 437.67 535.42 437.36 535.32 437.15 535.17 437.03 535.06 436.91 534.98 436.76 534.88 436.31 534.76 436.09 534.66 435.8 534.72 435.29 535.86 433.24 536.83 432.69 545.5 432.43 546.5 432.5 547.26 432.77 550.07 434.19 553.1 434.99 554.38 435.11 555.69 435.04 558.67 434.31 559.4 434.06 560.22 433.62 560.41 433.16 560.24 432.78 559.9 432.51 559.59 432.21 559.43 431.95 559.32 431.49 559.16 430.36 559.11 429.05 559.41 427.17 560.55 423.93 560.65 423.35 560.54 420.83 560.6 420.03 562.4 411.79 562.5 410.75 562.39 409.69 561.94 408.27 561.63 406.63 562.71 401.2 562.91 392.83 563.1 391.98 563.74 391.49 564.81 391.03 566.17 390.27 566.66 389.46 566.58 388.74 565.98 388.11 565.22 387.72 562.05 387.05 561.44 386.81 560.98 386.44 561.23 385.94 562.04 385.17 576.29 374.08 580.7 370.21 580.91 368.05 580.5 367.11 580.3 366.3 580.56 365.94 581.16 365.76 582.62 365.57 583.53 365.14 584.18 364.4 585.26 362.82 585.94 362.32 587 362.17 590.56 362.46 590.86 362.52 591.28 362.71 591.32 363.18 591.25 363.95 591.03 364.69 590.67 365.23 590.62 365.27 590.66 365.36 590.67 365.47 590.75 365.7 590.62 366.06 590.5 366.28 590.31 366.71 589.99 367.87 589.9 369.16 590.01 370.36 590.15 370.91 590.47 371.43 594.9 372.03 610.9 371.64 Z" id="ZWE-532" data-name="Masvingo"/>
<path d="M 518.85 3.47 518.59 4.61 518.63 8.7 519.04 10.16 520.27 11.53 520.81 12.55 521.61 14.8 521.2 16.24 520.43 17.52 493.79 39.8 493.41 40.19 493.24 40.46 493.2 40.87 493.24 41.39 493.38 41.93 493.65 42.4 493.93 42.82 494.71 43.49 495.17 43.73 497.29 44.56 497.64 45.09 497.75 45.95 497.32 48.63 497.29 49.49 497.53 50.6 497.73 51.08 498 51.51 498.3 51.9 498.96 52.52 499.11 52.79 499.19 53.18 499.12 53.71 499.14 54.31 499.27 54.84 499.87 55.68 500.25 55.98 500.66 56.26 501.18 56.39 501.75 56.36 502.29 56.3 502.86 56.33 503.29 56.65 503.56 57.23 503.62 58.24 503.43 58.83 503.1 59.28 500.44 60.94 499.96 61.41 498.68 63.38 498.33 64.26 498.17 65.06 498.21 65.7 498.71 69.03 498.7 70.43 498.52 71.24 498.22 71.85 497.89 72.24 496.64 73.09 496.13 73.57 495.47 74.51 493.71 78.41 493.6 79.44 493.83 80.02 494.28 80.28 494.81 80.51 495.94 80.85 496.53 80.9 497.08 80.85 497.49 80.56 497.76 80.15 498.19 79.08 498.44 78.58 498.76 78.21 499.17 77.92 500.2 77.55 500.77 77.44 501.39 77.43 503.65 77.97 504.19 78 504.63 77.79 504.99 77.43 505.61 76.64 506.03 76.32 506.5 76.08 508.78 75.58 509.25 75.36 509.67 75.07 510.03 74.71 510.35 74.31 510.57 73.82 510.71 73.31 510.69 72.67 510.2 70.58 510.12 70.01 510.2 69.44 510.39 68.95 510.72 68.55 511.14 68.23 512.17 67.83 515.84 67.39 516.5 67.39 517.85 67.57 518.45 67.76 518.96 68.27 519.38 69.09 520.27 71.8 520.63 72.44 522.44 74.4 522.72 74.65 523.15 74.86 523.68 74.95 529.52 74.65 530.21 74.81 530.91 75.17 531.71 76.55 532.24 77.83 532.93 80.05 533.07 81.23 533.06 82.12 532.85 82.67 531.52 84.93 531.14 85.81 531.03 86.22 530.8 88.81 530.12 92.02 529.67 93.04 529.07 93.9 528.81 94.38 527.99 96.73 527.25 101.06 527.3 101.95 527.47 102.63 528.47 104.11 529.26 105.6 529.64 106.07 530.07 106.37 531.73 107.01 532.2 107.29 533.04 107.91 533.55 108.12 534.74 108.31 535.28 108.51 538.58 110.41 539.39 110.77 539.66 110.94 539.92 111.23 541.47 114.61 541.51 115.31 541.34 115.93 541.1 116.42 540.93 116.97 541.31 117.29 541.78 117.56 542.32 117.77 542.81 118.04 543.35 118.49 543.85 119.18 544.53 120.47 544.8 121.35 544.88 122.11 544.75 122.7 544.23 123.69 542.65 125.67 542.4 126.11 542.21 126.66 542.07 127.26 541.97 127.92 542.56 136.87 542.78 137.71 543.06 138.11 543.39 138.51 545.02 139.82 545.39 140.2 545.76 140.74 545.69 141.22 545.41 141.56 544.98 141.83 544.58 142.02 544.2 142.27 544.17 142.64 544.26 145.29 544.68 147.36 544.96 147.83 545.39 148.11 545.96 148.22 546.59 148.24 549.16 148.02 549.76 148.07 550.25 148.26 550.67 148.52 551.15 148.7 551.67 148.75 552.13 148.57 553.38 147.69 554.73 146.91 555.28 146.71 555.8 146.67 556.4 147.05 556.69 147.7 556.84 148.7 557.25 149.05 557.69 149.08 558.16 148.82 558.99 148.26 559.48 148.02 560 147.88 560.58 147.91 561.2 148.02 562.4 148.4 562.94 148.68 563.45 149.2 563.58 149.77 563.59 150.42 562.47 158.85 562.09 159.84 561.83 160.28 560.58 162 559.26 163.47 557.75 164.86 557.31 165.19 556.91 165.59 556.59 166.14 556.7 166.6 557.09 166.99 557.55 167.37 557.99 167.89 557.99 168.39 557.86 168.9 554.03 175.96 552.58 178.12 552.36 178.67 552.15 179.37 553.51 185.12 553.7 186.8 553.72 188.19 552.45 196.65 552.48 199.1 553.07 199.52 553.45 199.73 567.78 199.68 568.36 199.77 568.53 200.22 568.18 201.99 567.42 203.97 567.2 204.72 567.2 205.63 567.58 206.29 568.55 206.89 574.15 209.07 578.94 211.56 580.36 212.47 581.04 212.79 581.65 212.81 582.35 212.29 582.84 211.66 583.44 211.1 584.1 210.74 586.01 211.41 588.81 215.91 587.62 219.06 584.78 222.27 583.57 223.11 582.46 223.59 581.53 223.78 581.05 224.22 580.8 224.92 580.59 226.1 580.59 226.88 580.86 227.46 581.26 227.92 581.53 228.55 581.49 229.74 580.85 231.09 580.7 231.96 580.92 232.55 581.53 232.99 583.66 234.1 584.18 234.73 584.63 235.44 584.93 236.44 584.81 236.96 584.37 237.42 581.05 238.55 578.29 239.1 577.77 238.71 576.38 237.98 573.59 236.96 572.82 236.58 572.49 236.49 572.11 236.67 571.73 237.43 571.49 238.81 571.55 239.66 571.71 240.3 572.09 241.3 572.23 241.84 572.22 242.39 571.98 242.9 571.41 243.36 570.89 243.67 569.28 244.28 569.24 244.33 569.13 244.41 568.86 244.82 568.56 245.44 568.33 246.72 568.42 247.5 568.58 248.14 570.08 251.51 570.05 252.05 569.77 252.62 568.39 253.56 567.85 254.15 567.42 254.99 566.44 258.23 566.41 258.84 566.55 259.37 566.72 259.86 566.55 260.77 566 262.05 564.23 264.68 563.28 265.76 562.5 266.48 561.99 266.67 561.01 267.16 560.6 267.54 560.3 268.07 560.24 269 560.39 272.33 560.5 272.9 560.71 273.4 560.98 273.84 561.64 274.59 565.92 278.29 568.69 281.27 569.26 282.1 569.72 283.07 569.86 283.56 569.73 284.14 569.34 284.76 568.31 285.48 567.66 286.02 567.14 286.68 566.85 287.74 566.71 288.57 565.93 302.65 565.7 303.91 565.29 304.72 564.61 305.61 560.24 309.68 555.55 317.32 555.28 317.63 555.08 317.81 554.68 317.23 554.41 316.94 554.1 316.79 551.75 316.24 551.23 316.18 550.75 316.31 550.56 316.95 550.6 317.54 551.04 319.1 551.12 319.56 550.94 319.84 550.53 320.22 549.46 320.36 548.73 320.29 548.13 320.03 547.32 319.34 546.85 319.07 544.69 318.41 544.12 318.32 543.73 318.5 543.63 318.99 543.71 319.52 544 320.5 544.07 320.93 543.68 321.35 542.87 321.87 540.83 322.54 540.01 322.65 539.5 322.53 537.87 318.85 537.63 318.61 537.36 318.25 537.11 317.82 536.05 314.78 535.81 314.33 535.51 313.94 535.09 313.64 534.52 313.8 533.67 314.81 529.28 323.35 529.03 324.19 528.2 328.94 527.47 330.5 525.67 332.17 522.09 328.87 521.22 328.21 520.48 327.83 519.12 327.39 516.79 326.91 514.41 325.85 512.85 325.43 512.12 325.1 511.38 324.59 509.21 322.4 508.38 321.72 507.06 320.96 505.71 320.46 502.18 319.6 501.53 319.55 498.93 319.66 497.56 319.56 496.28 319.31 495.71 319.09 493.25 317.84 492.6 317.67 490.64 317.56 487.25 315.96 486.38 315.83 485.67 315.86 484.01 316.34 483.57 316.61 482.79 317.29 482.35 317.52 481.78 317.56 477.93 316.84 477.35 316.67 473.97 315.14 472.46 314.87 471.86 314.66 471.32 314.24 470.77 313.45 470.47 312.92 470.13 312.6 469.7 312.41 468.72 312.19 466.54 311.22 465.79 311.16 465.19 311.26 464.68 311.45 464.11 311.38 463.53 311.05 462.77 310.23 462.04 309.62 460.76 308.91 459.9 308.61 459.09 308.42 458.43 308.36 455.88 307.89 455.35 307.94 454.38 308.31 453.84 308.42 452.81 308.02 448.87 305.7 447.59 305.21 446.59 304.96 445.9 304.7 445.25 304.16 444.46 302.92 444.09 302.1 443.89 301.36 443.84 300.76 443.86 300.13 444.12 298.17 443.73 293.41 443.74 292.85 443.92 292.35 444.24 291.94 444.99 291.33 445.29 290.99 445.42 290.71 445.5 290.27 445.45 289.17 445.48 288.57 445.64 288.02 446.73 285.33 446.86 284.71 446.94 284.06 446.91 283.47 446.59 282.9 446.02 282.42 442.19 280.74 428.18 272.1 427.12 271.72 425.49 271.35 424.68 270.94 423.74 269.86 422.88 268.53 422.41 268.04 421.71 267.59 419.52 266.55 418.73 266 416.12 263.27 415.66 262.65 415.21 261.55 414.95 261.09 414.64 260.7 411.93 258.27 411.64 257.85 411.46 257.35 411.37 256.78 411.36 256.16 411.3 255.6 410.92 255.05 409.44 253.67 408.96 253.08 408.64 252.5 408.4 251.4 408.21 250.92 407.95 250.46 407.77 249.98 407.73 249.4 407.81 248.23 407.77 247.66 407.52 246.59 407.33 246.09 407.04 245.1 407.05 244.63 407.1 244.4 407.13 244.3 407.23 244.19 407.38 243.94 407.55 243.54 407.7 242.44 407.86 241.88 408.11 241.42 408.74 240.57 411.46 234.24 412.6 232.37 413.26 230.76 413.54 230.3 414.9 228.71 415.14 228.22 415.34 227.65 415.82 225.03 416.04 224.49 416.36 224.05 416.73 223.7 417.96 222.77 418.63 221.99 419.17 221.05 419.33 220.51 419.14 219.86 418.67 219.21 417.67 218.22 417.52 217.59 417.59 217.05 417.97 216.7 419.63 215.46 419.97 215.09 420.27 214.64 420.49 214.12 420.68 213.56 420.81 212.96 420.86 210.45 421.24 207.92 421.05 205.58 420.9 205.04 420.55 204.56 419.33 203.38 419.07 202.76 419 202.14 419.17 201.62 419.48 201.21 419.84 200.83 420.24 200.51 420.68 200.23 421.47 199.57 422.04 198.66 422.51 197.63 422.79 197.16 423.43 196.33 424.22 195.67 426.01 194.63 426.41 194.3 426.73 193.94 426.93 193.57 427.68 191.8 427.44 191.33 426.7 190.85 424.88 190.3 423.96 189.89 423.26 189.5 416.44 181.94 416.19 181.51 415.97 181.04 415.81 180.53 415.37 178.3 415.03 177.3 414.29 175.94 413.95 175.56 413.57 175.21 412.6 174.5 411.9 174.1 411.3 173.83 410.57 173.73 409.81 173.81 408.71 174.14 407.84 174.3 406.69 174.22 406.07 174.12 399.65 171.96 399.17 171.67 398.76 171.35 398.39 171 397.97 170.67 397.43 170.41 396.75 170.21 395.11 169.94 394.54 169.71 391.66 167.43 384.6 165.14 384.13 164.86 383.75 164.51 383.12 163.72 382.57 162.88 381.94 161.44 381.69 161 380.8 159.75 380.58 159.29 380.14 157.7 379.71 156.81 379.21 156.23 378.64 155.67 378.16 155.56 377.62 155.72 374.49 158.03 373.99 158.29 373.4 158.44 372.53 158.44 369.72 158.01 369.05 158.01 367.83 158.17 363.06 159.59 362.22 159.93 359.33 161.66 358.46 162.36 357.86 162.99 357 164.37 356.6 164.76 356.07 165.04 355.17 165.08 353.02 164.76 352.27 164.83 351.54 165.16 350.57 165.92 346.55 170.53 345.42 172.4 344.45 174.43 340.45 179.24 339.92 179.65 338.09 180.77 337.53 181.34 336.83 182.35 336.36 182.58 335.79 182.58 334.94 182.02 334.43 181.56 333.94 181.24 333.43 181.19 332.85 181.54 332.28 181.77 331.62 181.85 329.31 181.33 327.78 181.2 326.1 181.4 315.81 183.72 314.57 184.37 313.19 184.64 309.88 184.07 308.65 179.58 308.19 179 307.54 178.32 306.78 178.13 305.93 177.76 304.79 177.06 303.81 175.89 301.82 174.44 301.42 173.85 301.13 172.97 301.02 171.99 300.49 170.24 300.5 168.49 300.42 167.67 300.08 167.03 299.42 166.24 299.14 165.65 299.11 165.08 299.59 163.94 299.62 162.91 299.31 162.2 298.71 161.34 298.44 160.69 298.32 160.04 298.39 159.42 298.73 158.18 298.77 157.52 298.51 157.11 298.06 156.81 296.92 156.43 296.35 156.35 295.85 156.4 295.31 156.52 294.69 156.53 293.95 156.32 293.5 155.77 293.14 155.04 292.71 153.83 292.29 153.21 291.76 152.8 290.32 152.27 289.47 151.74 289.12 151.32 288.98 150.93 289 150.45 289.29 148.64 290.59 145.1 290.56 144.17 289.95 143.55 288.33 142.7 287.93 142.32 287.91 142.23 287.93 142.05 288.01 141.52 288.34 140.58 288.98 136.78 287.27 129.33 286.97 128.56 296.25 124.7 306.31 116.65 313.2 112.36 350.25 98.3 355.09 97.44 357.95 97.44 359.38 97.22 360.25 96.46 362.26 94.58 363.1 92.84 367.13 89.89 368.53 88.31 369.2 84.62 369.6 83.79 372.07 79.89 372.05 77.57 370.36 73.3 369.98 71.54 370.34 69.33 372.77 63.87 371.04 60.96 371.58 56.89 372.9 52.66 373.47 49.19 373.22 48.67 372.74 48.1 372.28 47.39 372.07 46.46 372.38 45.33 373.79 43.24 374.1 42.54 376.32 39.83 379.73 36.59 381.21 35.93 381.66 35.73 383.85 35.34 388.47 35.25 390.95 34.81 392.25 33.6 394.42 29.62 395.42 28.52 397.05 27.12 399.05 25.94 401.1 25.45 402.03 24.87 405.63 21.2 428.14 11.14 429.68 10.81 438.49 10.06 440.31 8.96 444.1 5.83 446.53 5.17 448.7 5.45 450.69 5.98 452.78 6.28 455.26 5.94 461.1 4.05 465.5 3.37 469.69 1.5 472.04 1 476.57 1.41 485.32 3.72 489.72 4.2 493.76 3.58 497.82 2.49 501.91 1.91 505.96 2.77 508.58 4.5 509.77 4.91 511.39 4.56 512.2 4.05 513.73 2.76 514.63 2.43 517.2 2.78 518.85 3.47 Z" id="ZWE-533" data-name="Mashonaland West"/>
</g>
</svg>