<?xml version="1.0"?>
<svg xmlns="http://www.w3.org/2000/svg" version="1.2" baseProfile="tiny" width="800" height="711" viewBox="0 0 800 711" stroke-linecap="round" stroke-linejoin="round">
<g id="ne_10m_admin_1_states_provinces">
<path d="M 195.35 681.08 198.68 684.08 200.56 688.38 201.39 693.34 201.6 698.36 200.52 703.05 198.03 705.2 195.33 706.79 193.51 709.78 191.3 709.78 189.1 706.77 183.42 703.07 181.37 699.46 179.18 701.51 180.43 698.86 180.86 696.33 180.43 693.81 179.18 691.2 183.2 691.2 182 685.62 185.49 683.68 190.91 682.97 195.35 681.08 Z" id="CPV-5041" data-name="Brava"/>
<path d="M 293.2 668.02 291.84 673.23 290.41 678.93 293.27 685.59 299.44 690.34 308.95 689.39 315.66 682.67 317.12 685.96 317.25 689.36 315.26 692.28 304.92 701.51 292.46 706.21 281.05 704.76 270.97 699.67 253.93 685.78 249.85 680.15 248.11 674 249.78 667.92 253.89 660.83 259.17 654.5 266.37 649.41 276.71 644.29 283.47 654.4 293.2 668.02 Z" id="CPV-5042" data-name="São Filipe"/>
<path d="M 314.69 665.08 303.89 665.59 293.2 668.02 283.47 654.4 276.71 644.29 284.49 640.43 289.78 638.81 295.92 638.25 302.32 639.64 306.48 643.19 309.16 647.85 312.98 657.79 314.69 665.08 Z" id="CPV-5043" data-name="Mosteiros"/>
<path d="M 315.66 682.67 308.95 689.39 299.44 690.34 293.27 685.59 290.41 678.93 291.84 673.23 293.2 668.02 303.89 665.59 314.69 665.08 316.38 672.29 316.15 676.13 314.68 679.4 315.66 682.67 Z" id="CPV-5044" data-name="Santa Catarina do Fogo"/>
<path d="M 505.88 583.65 501.64 590.52 497.05 597.08 485.57 598.39 476.71 597.4 472.09 597.2 473.09 594.3 473.36 590.82 474.01 587.63 475.48 585.61 476.93 584.13 477.59 582.54 476.59 577.55 474.12 571.79 470.83 567.09 467.46 565.26 469.43 564.57 475.56 561.39 471.23 559.69 469.31 559.37 477.59 553.13 479.8 553.13 479.96 555.38 480.42 556.63 481.05 557.7 481.63 559.37 487.17 556.05 491.91 558.84 493.51 563.92 489.7 567.46 493.66 572.9 498.27 576.21 508.11 581.43 505.88 583.65 Z" id="CPV-5045" data-name="Tarrafal"/>
<path d="M 514.61 612.77 516.4 615.12 517.06 620.37 510.08 625.83 508.28 627.45 509.36 633.02 511.52 637.16 513.78 640.05 510.83 643.33 510.17 647.59 507.87 648.9 501.64 649.56 499.02 653.5 493.44 655.79 488.4 661.05 483.82 655.9 483.77 646.22 480.41 643.89 475.6 642.42 471.51 640.45 471.33 639.35 469.31 632.55 468.49 631.39 467.31 630.25 466.17 628.68 465.44 626.3 466.25 623.91 470.47 616.68 471.51 613.98 471.26 610.1 467.46 600.01 470.3 599.2 472.09 597.2 476.71 597.4 485.57 598.39 497.05 597.08 496.72 602.32 502.3 607.57 507.55 611.18 508.2 615.77 510.5 616.43 514.61 612.77 Z" id="CPV-5046" data-name="Santa Catarina"/>
<path d="M 524.98 601.28 516.4 611.18 514.61 612.77 510.5 616.43 508.2 615.77 507.55 611.18 502.3 607.57 496.72 602.32 497.05 597.08 501.64 590.52 505.88 583.65 511 584.67 513.52 586.77 518.02 593.93 524.98 601.28 Z" id="CPV-5047" data-name="São Miguel"/>
<path d="M 556.66 632.73 554.78 636.44 550.84 638.08 547.89 636.11 544.28 634.14 537.43 628.35 533.11 629.6 528.42 627.54 528.87 625.61 528.21 622.66 520.34 621.02 517.06 620.37 516.4 615.12 514.61 612.77 516.4 611.18 524.98 601.28 527.17 603.59 532.16 606.65 536.6 606.08 537.56 607.46 538.05 608.47 538.79 609.3 540.47 610.12 540.04 610.51 541.92 612.3 544.04 613.96 544.5 613.98 545.32 614.17 547.95 613.78 548.74 613.98 548.91 614.9 548.55 617.3 548.74 618.22 556.66 632.73 Z" id="CPV-5048" data-name="Santa Cruz"/>
<path d="M 528.42 627.54 527.88 629.88 526.9 635.13 520.99 639.39 518.92 639.58 513.78 640.05 511.52 637.16 509.36 633.02 508.28 627.45 510.08 625.83 517.06 620.37 520.34 621.02 528.21 622.66 528.87 625.61 528.42 627.54 Z" id="CPV-5049" data-name="São Salvador do Mundo"/>
<path d="M 544.28 634.14 539.36 635.78 533.79 640.37 529.52 644.97 523.62 648.25 519.03 644.31 518.92 639.58 520.99 639.39 526.9 635.13 527.88 629.88 528.42 627.54 533.11 629.6 537.43 628.35 544.28 634.14 Z" id="CPV-5050" data-name="São Lourenço dos Órgãos"/>
<path d="M 560.57 659.48 554.78 655.79 548.88 656.78 541.33 661.7 533.13 663.34 528.21 661.04 527.23 653.17 523.62 648.25 529.52 644.97 533.79 640.37 539.36 635.78 544.28 634.14 547.89 636.11 550.84 638.08 554.78 636.44 556.66 632.73 560.87 640.45 562.03 641.56 562.89 641.88 563.76 642.53 564.92 644.69 565.57 646.09 566.36 647.22 567.41 648.03 568.97 648.53 567.57 652.96 565.54 655.87 560.57 659.48 Z" id="CPV-5051" data-name="São Domingos"/>
<path d="M 523.62 648.25 527.23 653.17 528.21 661.04 533.13 663.34 534.2 668.95 538 673.71 540.47 679.07 538.09 678.8 535.58 677.54 533.39 677.23 523.55 677.02 515.34 675.96 507.76 673.47 499.83 670.8 488.4 661.05 493.44 655.79 499.02 653.5 501.64 649.56 507.87 648.9 510.17 647.59 510.83 643.33 513.78 640.05 518.92 639.58 519.03 644.31 523.62 648.25 Z" id="CPV-5052" data-name="Ribeira Grande de Santiago"/>
<path d="M 560.57 659.48 558.66 660.87 560.87 662.89 557.98 667.52 556.17 672.18 553.89 675.79 549.66 677.23 547.31 677.52 542.68 678.76 540.47 679.07 538 673.71 534.2 668.95 533.13 663.34 541.33 661.7 548.88 656.78 554.78 655.79 560.57 659.48 Z" id="CPV-5053" data-name="Praia"/>
<path d="M 662.37 559.37 664.12 563.09 664.53 567.76 664.22 575.74 667.51 592.63 667.07 600.77 662.37 608.26 660.89 608.83 656.19 609.41 654.27 610.12 653.17 611.54 651.75 615.05 650.22 616.19 646.1 616.57 642.18 615.54 635.9 612.14 628.95 607.25 625.56 603.77 623.75 600.01 624.66 596.35 626.97 592.69 628.16 589.1 625.78 585.67 629.97 583.26 631.84 579.43 630.66 576.21 625.78 575.74 627.44 571.4 633.84 566.77 638.08 559.37 636.7 558.82 636.49 558.55 636.55 558.14 635.9 557.16 640.01 555.46 643.99 553.13 644.07 554.09 643.99 557.16 646.53 555.2 647.22 554.55 648.02 553.13 650.22 555.32 648.02 557.16 652.26 559.11 658.9 557.57 662.37 559.37 Z" id="CPV-5054" data-name="Maio"/>
<path d="M 794.4 321.82 795.5 322.33 797.75 325.18 799 328.38 797.24 329.9 796.32 331.17 795.88 333.95 795.08 336.74 790.15 339.79 773.96 352.34 763.15 357.96 757.66 359.64 740.61 360.69 737.59 360.25 734.69 358.81 730.51 355.33 727.1 354.36 716.36 349.64 712.74 346.34 710.9 340.01 711.12 334.38 712.74 329.1 715.81 325.18 720.19 323.65 725.83 318.28 722.62 292.39 725.23 283.2 726.41 285.35 727.71 286.91 731.31 289.46 736.39 291.81 743.91 294.27 750.76 295.04 753.75 292.39 756.02 287.8 761.31 286.94 778.82 291.23 782.03 292.48 784.99 294.52 786.19 296.63 787.98 302.27 789.22 303.43 794.29 305.51 795.41 310.51 794.4 321.82 Z" id="CPV-5055" data-name="Boa Vista"/>
<path d="M 721.21 179.68 717.59 157.18 713.11 148.27 706.86 151.36 705.63 147.07 705.22 141.28 706.14 135.93 708.87 132.99 708.87 130.96 705.34 129.93 703.41 127.09 702.73 123.13 702.96 113.85 709.08 109.17 723.21 100.62 724.82 102.73 730.17 107.58 731.31 109.81 730.95 111.07 729.04 114.58 726.96 117.49 727.5 118.31 728.65 118.91 729.31 119.93 728.47 137.5 729.31 143.09 730.63 145.07 734.54 148.57 735.38 150.27 735.07 153.58 733.81 159.46 733.52 162.49 732.95 164.13 730.21 166.04 729.31 167.53 729.41 169.11 730.03 171.32 730.79 173.15 731.31 173.61 729.34 175.98 727.23 177.08 724.63 177.97 721.21 179.68 Z" id="CPV-5056" data-name="Sal"/>
<path d="M 307.81 212.49 307.42 203.63 309.14 191.12 310.86 183.27 309.14 173.94 303.74 169.53 295.4 169.04 292.46 165.11 295.4 161.18 292.73 154.89 296.92 153.56 299.06 153.85 303.11 155.41 306.63 157.65 313.6 163.54 317.25 165.34 320.35 165.48 336.81 163.04 339.68 163.6 350.51 168.59 352.91 169.11 377.34 171.08 383.99 173.61 389.79 178.08 392.91 179.8 394.27 178.67 394.27 188.87 390.94 189.62 370.01 189.8 347.13 179.96 334.89 177.1 323.33 181.52 319.17 186.4 310.59 201.31 307.81 212.49 Z" id="CPV-5057" data-name="Ribeira Brava"/>
<path d="M 307.81 212.49 305.23 208.85 301.06 197.88 299.32 195.38 297.3 193.38 295.69 190.88 295.01 186.87 294.82 183.79 294.12 181.54 292.59 180.17 289.93 179.68 283.06 177.68 278.19 172.66 276.43 166.04 278.81 159.28 292.73 154.89 295.4 161.18 292.46 165.11 295.4 169.04 303.74 169.53 309.14 173.94 310.86 183.27 309.14 191.12 307.42 203.63 307.81 212.49 Z" id="CPV-5058" data-name="Tarrafal de São Nicolau"/>
<path d="M 235.29 171.82 233.58 176.1 229.29 175.67 225.86 174.81 225.01 171.39 228.43 170.53 235.29 171.82 Z M 189.01 131.1 194.58 132.39 198.01 130.24 201.44 131.53 201.01 135.39 195.86 137.53 189.86 137.96 184.72 137.96 182.15 135.39 180.44 131.96 174.86 129.82 170.58 125.96 170.58 121.67 174.86 117.82 182.15 120.39 186.01 124.67 189.01 131.1 Z M 129.18 83.59 131.83 86.41 133.04 89.11 131.54 90.32 130.6 91.58 133.11 94.37 137.35 97.15 141.57 98.42 142.99 100.03 144.41 103.72 145.21 107.84 144.78 110.74 140.03 114.35 132.79 116.86 124.69 118.34 117.21 118.81 115.32 119.46 112.45 122.24 111.32 122.89 109.18 122.6 90.53 115.63 87.56 114.02 85.21 111.83 83.74 108.9 79.88 110.74 81.18 104.42 84.6 99.21 88.93 95.67 92.92 94.37 102.2 94.19 106 92.51 104.16 88.49 112.51 84.13 114.26 82.05 116.28 82.05 118.08 86.22 121.04 85.66 126.21 82.05 129.18 83.59 Z" fill-rule="evenodd" id="CPV-5059" data-name="São Vicente"/>
<path d="M 86.15 25.6 99.38 27.95 107.61 33.24 111.71 35.88 103.29 44.68 101.94 44.72 100.68 45.79 95.11 47.84 93.85 48.85 91.31 51.89 73.44 59.99 65.28 68.11 59.5 75.44 52.12 80.52 39.25 82.05 28.02 82.05 24.58 82.72 21.96 83.77 19.29 83.71 15.71 81.13 14.93 77.47 14.79 57.77 10.74 50.88 9.7 50.07 4.59 49.13 2.65 47.84 1 42.87 2.43 38.63 9.74 30.56 13.92 27.81 18.26 27.23 22.12 27.54 24.89 27.45 27.9 25.37 35.09 18.74 51.17 27.36 60.87 33.83 74.39 28.54 86.15 25.6 Z" id="CPV-5060" data-name="Porto Novo"/>
<path d="M 100.11 16.31 96.44 18.25 91.74 21.48 86.15 25.6 74.39 28.54 60.87 33.83 51.17 27.36 35.09 18.74 40.73 16.38 47.72 12.21 54.58 10.55 72.62 2.11 77.37 1 80.8 2.06 84.22 4.33 91.79 4.09 96.06 5.19 98.83 7.26 99.98 9.56 100.11 16.31 Z" id="CPV-5061" data-name="Ribeira Grande"/>
<path d="M 111.71 35.88 107.61 33.24 99.38 27.95 86.15 25.6 91.74 21.48 96.44 18.25 100.11 16.31 101.67 17.66 108.64 19.49 110.21 20.45 111.12 22 115.18 25.32 116.28 27.45 115.76 30.62 113.99 33.5 111.71 35.88 Z" id="CPV-5062" data-name="Paul"/>
</g>
</svg>