<?xml version="1.0"?>
<svg xmlns="http://www.w3.org/2000/svg" version="1.2" baseProfile="tiny" width="800" height="5825" viewBox="0 0 800 5825" stroke-linecap="round" stroke-linejoin="round">
<g id="ne_10m_admin_1_states_provinces">
<path d="M 373.68 214.69 373.68 214.72 371.49 212.99 372.1 207.7 383.77 209.5 377.93 213.45 373.68 214.69 Z M 230.77 202.2 230.1 203.05 228.58 202.41 228.52 202.38 229.13 198.8 230.47 198.37 231.87 199.13 233.26 199.5 233.2 199.53 231.68 200.68 230.77 202.2 Z M 341.95 200.68 341.22 201.59 339.52 200.86 340.25 197.31 341.46 196.85 341.46 196.88 342.92 197.67 344.26 198.07 342.68 199.22 341.95 200.68 Z M 217.16 196.25 217.09 196.25 215.15 193.33 215.76 192.11 217.28 191.66 218.55 191.02 218.19 192.93 218.68 194.54 218.68 194.6 218.74 195.64 217.16 196.25 Z M 307.42 194.12 306.63 194.97 305.72 194.66 304.99 194.39 305.84 190.84 307 190.29 308.4 191.08 308.46 191.11 309.73 191.5 309.67 191.56 308.15 192.72 307.42 194.12 Z M 207 188.62 207 188.65 205.61 188.04 205.42 187.95 205.3 187.92 205.97 184.45 207.37 183.84 208.71 184.7 210.04 185.18 208.52 186.28 207.61 187.67 207 188.62 Z M 316.05 162.93 314.35 163.6 312.41 160.62 312.83 159.38 314.47 158.98 315.75 158.25 315.75 158.28 315.39 160.26 315.81 161.84 315.99 162.87 316.05 162.93 Z M 392.34 162.45 388.75 167.04 386.57 160.93 387.23 154.12 389.48 147.01 392.64 142.15 396.29 141.9 396.29 141.96 395.56 152.36 392.34 162.45 Z M 181.35 115.61 180.09 117.18 181.11 112.91 181.11 113.21 181.35 115.61 Z M 380.85 117.71 380.73 117.71 380.61 117.65 380.24 117.53 379.76 117.22 379.21 109.99 379.76 105.31 381.4 102.85 384.68 102.51 381.83 117.53 381.22 117.71 380.85 117.71 Z M 154.67 91.97 154.61 92 155.7 87.8 155.7 90.29 154.67 91.97 Z M 221.29 60.54 222.57 70.66 219.47 66.89 219.4 64.22 219.4 64.19 219.4 64.16 221.29 60.39 221.29 60.54 Z M 199.04 38.96 197.95 43.12 197.4 40.85 199.04 38.87 199.04 38.96 Z M 171.32 11.94 170.59 18.96 166.52 14.62 166.64 13.13 168.95 12.67 171.32 11.85 171.32 11.94 Z M 150.17 3.64 148.65 5.19 149.62 1 150.17 2.15 150.17 2.19 150.17 3.64 Z" fill-rule="evenodd" id="MDV-5223" data-name="Haa Alifu"/>
<path d="M 3.01 520.11 4.22 520.6 5.56 520.6 5.5 520.63 3.98 522 2.76 523.73 1.79 524.43 1 523 1.79 520.6 3.01 520.11 Z M 205.79 413.13 205.06 413.98 203.42 413.25 204.15 409.76 205.3 409.24 205.36 409.27 206.7 410.12 208.1 410.49 206.52 411.61 205.79 413.13 Z M 182.45 410.55 182.45 410.58 178.98 409.85 178.56 408.63 179.29 407.23 179.65 405.84 180.81 407.48 182.26 408.21 183.18 408.94 182.45 410.55 Z M 259.16 397.75 257.46 398.42 256.85 397.45 255.51 395.38 255.94 394.23 257.58 393.8 258.79 393.07 258.73 393.19 258.43 395.08 258.92 396.66 259.1 397.72 259.16 397.75 Z M 267.43 366.17 266.82 367.05 265.12 366.32 265.85 362.8 267.06 362.25 267.12 362.28 268.52 363.07 269.86 363.53 268.28 364.68 267.43 366.17 Z M 288.34 329.12 282.56 334.35 282.93 329.91 284.32 328.79 286.21 329 288.34 329.12 Z M 308.09 306.33 308.03 306.36 308.64 300.61 310.58 298.52 315.57 297.76 315.57 297.79 313.74 300.8 312.83 303.44 311.43 305.36 308.09 306.33 Z M 263.96 265.24 262.32 265.91 261.71 264.96 260.31 262.93 260.98 261.68 262.44 261.32 263.78 260.59 263.78 260.65 263.41 262.5 263.41 262.53 263.47 262.78 263.9 264.05 263.96 265.24 Z M 173.21 260.04 172.42 260.95 170.96 260.31 170.9 260.25 171.63 256.73 172.84 256.21 174.24 257.03 175.52 257.4 174.06 258.55 173.21 260.04 Z M 334.9 286.39 334.78 286.48 338 274.42 350.34 254.23 355.57 240.56 359.09 240.16 360.06 241.17 360.06 241.23 360.06 243.08 360.79 245.18 350.58 268.43 344.56 278.64 334.9 286.39 Z" fill-rule="evenodd" id="MDV-5224" data-name="Haa Dhaalu"/>
<path d="M 423.65 765.84 422.43 768.64 419.76 768.46 423.71 765.75 423.65 765.84 Z M 421.09 747.39 420.79 747.58 422.31 745.75 424.74 744.96 424.62 745.02 421.09 747.39 Z M 400 731.47 397.14 732.01 401.09 729.4 401.03 729.46 400 731.47 Z M 434.59 715.51 434.47 715.54 434.65 713.35 435.56 712.38 436.78 711.83 438.3 710.83 438.23 710.92 437.2 712.65 436.65 714.2 436.05 715.3 434.59 715.51 Z M 399.94 699.37 396.29 701.99 397.63 700.16 400.06 699.31 399.94 699.37 Z M 438.72 686.61 436.65 694.57 434.65 691.53 435.07 689.86 436.9 688.49 438.72 686.55 438.72 686.61 Z M 258.19 664.48 258.06 664.6 259.16 662.96 261.95 661.96 261.83 662.05 258.19 664.48 Z M 418.6 655.03 415.87 657.03 412.95 654.66 413.49 653.05 415.5 651.41 416.96 649.01 417.32 651.41 418.42 653.23 418.6 655.03 Z M 328.33 616.4 328.21 616.4 332.35 613.78 330.64 615.91 328.33 616.4 Z M 392.64 613.91 392.34 614.09 392.77 613.78 397.14 607.83 397.14 607.95 395.56 612.02 392.64 613.91 Z M 295.02 600.14 294.78 600.17 298.67 597.55 298.61 597.65 297.21 599.77 295.02 600.14 Z M 387.23 587.4 386.57 590.32 382.13 589.29 382.07 589.08 381.46 587.83 382.8 585.82 383.59 583.45 383.65 583.57 384.5 585.52 385.29 585.88 386.08 586.25 387.23 587.4 Z M 325.78 582.18 325.54 582.36 326.75 580.78 329.43 579.68 329.18 579.87 325.78 582.18 Z M 202.02 569.9 201.41 571.48 197.95 570.78 197.4 569.65 198.31 568.07 198.62 566.77 198.62 566.86 199.77 568.32 199.95 568.41 201.29 569.14 201.59 569.41 202.02 569.9 Z M 376.29 566.04 374.53 567.31 373.56 568.62 372.46 569.35 371.01 568.77 371.61 566.74 372.83 566.25 374.47 566.37 376.29 566.04 Z M 255.03 555.55 254.48 557.13 250.83 556.46 250.41 555.25 251.26 553.79 251.74 552.45 252.72 554.09 254.3 554.76 255.03 555.55 Z M 167.31 502.49 166.64 504.01 163.24 503.31 163.12 503.09 162.57 502.12 163.36 500.66 163.85 499.26 165.06 500.9 166.52 501.7 166.89 502.06 167.31 502.42 167.31 502.49 Z M 268.76 503.97 268.64 504.1 272.88 498.39 270.95 502.18 268.76 503.97 Z M 159.65 493.55 158.98 495.07 155.58 494.37 155.46 494.16 154.91 493.25 155.82 491.73 156.19 490.36 157.4 491.97 158.86 492.76 159.41 493.28 159.65 493.49 159.65 493.55 Z" fill-rule="evenodd" id="MDV-5225" data-name="Shaviyani"/>
<path d="M 238.37 1233.2 237.15 1234.2 235.7 1230.64 235.7 1230.58 236.42 1229.55 238.49 1229.55 240.62 1229 240.56 1229.06 239.52 1230.34 238.37 1233.2 Z M 191.81 1229.79 190.29 1230.28 189.38 1227.27 189.38 1227.24 190.23 1226.39 192.05 1226.33 193.94 1225.72 193.87 1225.81 192.78 1227.24 192.42 1228.73 191.81 1229.79 Z M 244.69 1211.34 244.63 1211.37 243.84 1208.82 243.72 1208.33 243.72 1208.3 244.57 1207.39 246.27 1207.39 248.28 1206.84 247.12 1208.3 246.76 1209.79 246.15 1210.89 244.69 1211.34 Z M 147.62 1210.13 146.16 1210.58 145.06 1207.42 145.06 1207.39 145.85 1206.63 147.68 1206.57 149.74 1205.93 148.65 1207.48 148.16 1208.94 147.62 1210.13 Z M 247 1118.16 246.88 1118.19 246.03 1115.09 246.82 1114.21 248.7 1114.21 250.65 1113.51 250.59 1113.63 249.37 1115.09 249.01 1116.55 248.46 1117.67 247 1118.16 Z M 245.3 1073.39 243.72 1073.91 242.81 1070.81 242.81 1070.77 243.72 1069.98 245.42 1069.86 247.37 1069.32 247.37 1069.35 246.27 1070.77 245.72 1072.29 245.3 1073.39 Z M 240.62 1042.17 239.22 1043.82 238.8 1045.61 238.13 1046.83 236.24 1046.92 235.51 1043.21 235.51 1043.18 236.55 1042.27 236.61 1042.27 237.03 1042.33 238.49 1042.54 240.62 1042.17 Z M 223.6 1005.4 223.54 1005.43 226.58 999.29 225.85 1003.15 223.6 1005.4 Z M 217.82 974.03 217.82 974.12 215.82 972.18 214.72 971.15 214.78 969.63 216.85 968.68 218.92 967.26 218.92 967.32 217.82 974.03 Z M 211.38 939.87 211.38 939.9 208.52 937.5 207.98 935.1 209.25 929.39 209.31 929.6 211.38 939.87 Z M 185.36 851.15 184.27 860.21 180.99 855.5 180.99 855.47 181.47 853.22 185.36 851.15 Z M 171.75 844.95 171.32 845.74 170.23 845.17 169.07 844.53 168.95 841.4 169.86 840.94 171.51 841.76 173.45 841.98 173.39 842.04 172.05 843.25 171.75 844.95 Z" fill-rule="evenodd" id="MDV-5226" data-name="Raa"/>
<path d="M 529.54 1024.64 520.78 1041.23 520.72 1041.11 520.17 1040.9 520.11 1040.87 519.93 1040.81 522.18 1035.61 529.84 1023.97 529.54 1024.64 Z M 523.64 987.19 520.78 989.29 517.86 986.89 518.53 985.25 520.42 983.64 522 981.18 522 981.36 522.24 983.64 523.46 985.46 523.64 987.13 523.64 987.19 Z M 560.41 954.37 560.17 954.49 564.3 948.84 567.4 946.62 569.96 946.44 572.45 946.98 572.39 947.01 560.41 954.37 Z M 556.46 899.42 554.82 900.3 552.51 897.6 553.18 896.44 555.07 895.65 556.89 894.25 556.89 894.37 556.46 896.32 556.46 896.38 556.46 898.11 556.46 899.42 Z M 527.59 850.24 531.71 859.57 525.28 856.44 523.64 854.38 527.59 850.24 Z" fill-rule="evenodd" id="MDV-5227" data-name="Noonu"/>
<path d="M 213.75 1664.08 213.63 1664.23 214.06 1656.87 216 1653.9 218.55 1653.29 220.98 1653.08 220.98 1653.14 213.75 1664.08 Z M 178.68 1650.43 177.34 1651.28 174.91 1650.8 174.79 1650.73 178.8 1650.37 178.68 1650.43 Z M 168.77 1551.99 168.59 1552.14 169.32 1550.56 171.32 1549.53 168.77 1551.99 Z M 179.95 1550.29 179.89 1550.32 182.45 1547.7 182.39 1547.88 182.02 1549.4 181.96 1549.65 180.93 1549.98 179.95 1550.29 Z M 268.88 1486.22 267.24 1486.55 269.86 1484 269.86 1484.12 268.88 1486.22 Z M 274.84 1480.38 271.98 1480.59 270.22 1478.71 270.83 1477.68 272.17 1476.92 273.08 1475.43 273.14 1475.52 273.75 1477.62 274.84 1479.32 274.84 1480.38 Z M 302.07 1456.98 301.95 1457.01 304.63 1454.46 304.38 1456.58 302.07 1456.98 Z M 316.3 1446.68 318.97 1447.77 318.73 1447.74 316.42 1447.28 313.99 1445.73 314.23 1445.83 316.3 1446.68 Z M 129.5 1399.78 129.32 1399.87 131.93 1397.26 131.87 1397.35 131.26 1399.08 129.5 1399.78 Z M 334.9 1393.85 332.35 1394.86 334.9 1392.3 334.9 1393.85 Z M 320.55 1352.06 318 1354.52 318 1353.37 320.67 1351.97 320.55 1352.06 Z M 200.86 1313.49 198.74 1314.07 201.41 1311.49 200.86 1313.49 Z" fill-rule="evenodd" id="MDV-5228" data-name="Baa"/>
<path d="M 607.89 1391.94 607.83 1391.97 605.27 1391.24 609.71 1390.57 609.65 1390.63 607.89 1391.94 Z M 671.77 1369.14 667.88 1369.9 662.29 1368.32 662.17 1368.26 666.61 1365.89 671.17 1364.49 675.54 1363.89 679.8 1363.82 671.77 1369.14 Z M 583.27 1345.77 583.15 1345.8 585.28 1344.68 585.34 1344.68 586.31 1344.86 587.65 1345.1 587.59 1345.13 583.27 1345.77 Z M 706.54 1326.44 704.9 1327.66 701.99 1327.11 706.67 1326.38 706.54 1326.44 Z M 714.51 1319.39 714.39 1319.39 717 1318.08 719.43 1318.6 719.31 1318.6 714.51 1319.39 Z M 536.1 1308.96 534.76 1309.48 532.33 1308.24 532.21 1307.23 533.06 1305.96 533.3 1304.44 533.36 1304.59 534.22 1306.38 535.67 1307.84 536.1 1308.96 Z M 477.87 1299.94 479.08 1301.03 479.14 1301.03 481.33 1300.85 481.39 1300.85 481.58 1300.85 482.97 1300.94 482.97 1300.97 482.06 1302.92 474.95 1303.89 474.83 1303.89 473.73 1301.76 474.83 1301.12 476.96 1300.94 477.87 1299.94 Z M 708.85 1286.47 708.85 1286.63 705.33 1266.29 706.67 1262.37 710.37 1268.03 712.02 1274.04 712.02 1274.07 711.41 1280.33 708.85 1286.47 Z M 494.04 1256.17 493.79 1256.23 495.98 1254.71 498.41 1255.53 494.04 1256.17 Z M 637.86 1237.81 635.97 1238.97 633.24 1238.54 637.86 1237.81 Z M 506.01 1232.92 505.83 1233.01 507.53 1229.09 507.53 1229.3 507.65 1231.86 506.01 1232.92 Z M 581.81 1168.94 579.5 1170.34 577.37 1169.67 577.25 1169.64 581.81 1168.94 Z" fill-rule="evenodd" id="MDV-5229" data-name="Lhaviyani"/>
<path d="M 559.32 2440.13 559.32 2440.16 558.71 2438.67 559.44 2436.33 560.54 2435.91 561.87 2436.33 563.03 2436.49 561.51 2437.76 560.17 2439.4 559.32 2440.13 Z M 563.94 2384.21 563.7 2384.33 567.71 2381.26 567.65 2381.32 567.34 2382.6 563.94 2384.21 Z M 587.46 2370.38 585.64 2371.48 586.92 2369.01 588.62 2367.71 592.94 2365.15 592.81 2365.25 587.46 2370.38 Z M 494.04 2363.33 491.48 2365.21 491.48 2364.42 494.16 2363.21 494.04 2363.33 Z M 616.09 2252.15 616.09 2252.21 613.3 2249.78 611.72 2248.32 611.6 2246.65 613.78 2245.74 615.97 2244.55 616.09 2252.15 Z M 549.47 2235.47 549.35 2235.5 552.09 2233.52 552.03 2233.64 551.17 2235.01 549.47 2235.47 Z M 681.38 2066.33 678.95 2067.85 676.64 2067.55 676.46 2067.55 681.5 2066.27 681.38 2066.33 Z M 693.41 2055.63 691.71 2056.3 690.31 2054.48 690.31 2054.45 690.74 2053.44 691.96 2052.41 693.17 2050.71 693.17 2050.83 693.05 2052.8 693.54 2054.45 693.54 2054.48 693.41 2055.63 Z M 712.26 2050.04 712.26 2050.07 711.29 2049.86 709.83 2049.55 709.71 2049.52 708.25 2046.7 709.22 2045.91 711.04 2045.88 712.93 2045.15 712.87 2045.24 712.26 2047 712.56 2048.82 712.56 2048.94 712.26 2050.04 Z M 735.6 2032.96 734.02 2033.66 732.62 2031.86 733.05 2030.77 734.26 2029.65 735.36 2028 735.36 2028.03 735.24 2030.1 735.72 2031.74 735.6 2032.96 Z M 757.48 1999.65 757.36 1999.71 761.37 1997.22 759.91 1999.04 757.48 1999.65 Z M 761.25 1983.63 759.19 1986.43 759.25 1984.57 761.37 1983.54 761.25 1983.63 Z M 517.8 1967.55 518.23 1974.39 515.68 1973.11 515.68 1971.75 515.68 1971.69 516.71 1969.98 517.8 1967.55 Z M 650.13 1863.36 648.43 1864.06 647.95 1863.43 647.1 1862.27 647.58 1861.18 648.74 1860.14 649.89 1858.44 649.89 1858.62 649.83 1860.57 650.26 1862.21 650.13 1863.36 Z M 539.14 1852.54 537.44 1853.27 536.1 1851.48 536.59 1850.36 537.86 1849.29 538.9 1847.62 538.9 1847.8 538.9 1849.69 539.32 1851.39 539.14 1852.54 Z M 602.96 1786.56 601.26 1787.14 600.9 1786.71 599.93 1785.47 600.41 1784.28 601.69 1783.25 602.78 1781.61 602.78 1781.64 602.72 1783.67 602.72 1783.7 603.15 1785.38 603.15 1785.41 602.96 1786.56 Z M 570.51 1596.39 562.48 1597.49 564.3 1593.99 565.95 1593.72 567.95 1595.12 570.51 1596.39 Z" fill-rule="evenodd" id="MDV-5230" data-name="Kaafu"/>
<path d="M 17.29 2323.49 15.77 2324.61 11.94 2323.33 11.88 2323.27 11.7 2322.42 11.64 2322.33 11.64 2322.3 13.22 2321.24 14.68 2319.44 15.04 2321.24 15.89 2322 16.5 2322.51 16.99 2323.09 17.35 2323.45 17.29 2323.49 Z M 218.31 2127.42 215.88 2127.42 215.15 2126.51 215.09 2125.05 214.36 2123.29 214.48 2123.38 215.88 2124.62 217.28 2125.29 218.19 2125.96 218.31 2127.42 Z M 202.38 2126.6 202.32 2126.63 199.95 2125.96 195.45 2123.01 205.55 2125.84 205.48 2125.84 202.38 2126.6 Z M 204.33 1994.54 203.6 2006.64 198.25 2006.03 196.91 2005.91 194.12 1999.56 204.33 1994.54 Z" fill-rule="evenodd" id="MDV-5231" data-name="Alifu Alifu"/>
<path d="M 113.21 2691.33 110.23 2692.73 107.98 2691.33 107.92 2691.33 108.41 2690.33 109.75 2689.24 110.48 2687.5 110.6 2687.62 111.45 2689.24 112.97 2690.33 113.27 2691.33 113.21 2691.33 Z M 84.34 2687.26 80.45 2687.26 80.14 2686.41 80.14 2686.35 81.6 2684.77 82.33 2682.76 82.39 2682.88 83.12 2683.95 83.43 2684.46 85.25 2685.59 86.16 2686.47 84.34 2687.26 Z M 170.53 2664.22 170.41 2664.28 173.45 2658.81 176.61 2656.44 179.89 2656.2 182.93 2656.62 170.53 2664.22 Z M 195.76 2610.46 192.78 2611.82 190.47 2610.46 190.84 2609.39 192.11 2608.27 193.02 2606.63 193.94 2608.27 194.91 2608.97 195.45 2609.39 195.76 2610.46 Z M 10.36 2531.95 8.29 2534.81 6.71 2533.84 4.65 2532.59 4.65 2530.43 6.05 2528.4 6.77 2525.87 6.77 2526.02 7.87 2528.58 9.69 2530.31 10.42 2531.95 10.36 2531.95 Z M 203.42 2524.57 200.56 2525.93 198.31 2524.66 198.62 2523.56 199.95 2522.47 200.86 2520.74 201.9 2522.38 203.42 2523.5 203.42 2524.57 Z M 198.62 2495.97 195.58 2497.3 195.27 2497.12 193.39 2496 193.39 2495.97 193.75 2494.93 195.09 2493.84 195.94 2492.14 196.91 2493.84 198.01 2494.63 198.37 2494.93 198.62 2495.97 Z M 197.64 2447.64 194.66 2448.98 192.48 2447.64 192.84 2446.61 194.12 2445.42 195.03 2443.78 195.94 2445.42 196.55 2445.91 197.4 2446.61 197.64 2447.64 Z" fill-rule="evenodd" id="MDV-5232" data-name="Alifu Dhaalu"/>
<path d="M 165.06 3011.07 161.66 3011.46 161.29 3010.46 162.27 3008.64 162.93 3006.27 163.85 3007.72 164.82 3008 165.3 3008.15 166.22 3008.82 165.06 3011.07 Z M 222.81 2990.4 220.13 2992.13 217.82 2991.04 218.01 2989.91 219.16 2988.45 219.89 2986.57 220.01 2986.66 220.86 2988.15 222.44 2989.21 222.81 2990.4 Z M 270.1 2920.28 266.82 2920.62 266.45 2919.68 266.45 2919.64 267.3 2917.76 267.97 2915.39 268.88 2916.85 268.95 2916.88 270.53 2917.34 271.44 2917.94 270.1 2920.28 Z M 263.05 2883.78 260.31 2885.45 260.13 2885.36 258.06 2884.45 258.31 2883.29 259.4 2881.78 260.13 2879.89 260.19 2879.98 261.23 2881.47 262.68 2882.63 263.05 2883.78 Z M 110.6 2840.59 110.48 2840.59 110.35 2839.68 111.21 2837.83 111.87 2835.46 112.79 2836.92 114.43 2837.31 114.73 2837.58 115.16 2838.01 114 2840.32 110.6 2840.59 Z" fill-rule="evenodd" id="MDV-5233" data-name="Faafu"/>
<path d="M 644.39 2140.39 649.39 2145.05 648.72 2151.38 646.72 2163.36 638.4 2185 629.74 2193.99 618.02 2200.86 600.11 2199.32 592.46 2195.99 558.5 2184 559.16 2180.01 618.86 2182.77 625.22 2179.17 629.41 2166.69 634.74 2149.38 644.39 2140.39 Z" id="MDV-5234" data-name="Malé"/>
<path d="M 624.18 2802.51 624.24 2802.66 622.11 2799.05 622.23 2799.17 622.9 2799.74 623.94 2800.63 624 2800.81 624.18 2802.51 Z M 798.94 2735.4 799 2735.46 797.54 2734.89 795.54 2734.1 795.41 2733.76 794.81 2731.91 794.93 2732 798.94 2735.4 Z M 616.22 2697.96 616.28 2698.02 614.51 2697.17 614.45 2697.11 614.27 2694.49 616.22 2697.96 Z" fill-rule="evenodd" id="MDV-5235" data-name="Vaavu"/>
<path d="M 498.96 3240.11 498.9 3240.14 496.71 3236.64 497.32 3235.31 499.02 3235.03 500.48 3234.49 499.87 3236.4 500.48 3237.95 500.48 3239.23 498.96 3240.11 Z M 534.64 3228.92 528.2 3236.64 529.11 3232.09 530.99 3229.96 533.3 3229.23 534.64 3228.92 Z M 648.01 3150.57 646.55 3152.43 646.55 3151.97 646.18 3148.99 646.31 3149.08 647.34 3150.02 648.01 3150.57 Z M 505.95 3145.37 505.83 3145.4 503.28 3143.7 503.28 3142.67 504.67 3141.85 505.59 3140.66 506.07 3142.43 507.04 3143.76 507.41 3144.77 505.95 3145.37 Z M 657.85 3102.76 656.21 3109.12 655.67 3107.35 656.03 3105.92 657.85 3102.67 657.85 3102.76 Z M 674.02 3097.6 667.76 3105.35 668.49 3100.73 670.62 3098.63 672.75 3097.81 674.08 3097.54 674.02 3097.6 Z M 693.96 2991.95 690.86 2993.86 694.33 2989.12 693.96 2991.95 Z" fill-rule="evenodd" id="MDV-5236" data-name="Meemu"/>
<path d="M 166.52 3308.13 165.06 3311.08 162.57 3310.74 162.14 3309.71 162.27 3308.07 161.78 3306.24 163.66 3307.16 165.67 3307.28 166.52 3308.13 Z M 142.08 3305.15 142.08 3305.21 137.34 3302.9 137.04 3301.2 139.17 3299.5 141.23 3297.31 142.08 3305.15 Z M 257.33 3264.39 255.39 3264.85 253.14 3261.84 253.08 3261.81 260.5 3259.26 260.5 3259.32 257.33 3264.39 Z M 247.55 3108.14 244.21 3109.75 243.84 3109.42 243.17 3108.87 243.17 3106.62 243.17 3106.56 242.75 3103.74 247.55 3108.14 Z M 137.59 3098.08 135.64 3100.12 135.52 3098.08 139.41 3091.88 139.41 3091.97 137.59 3098.08 Z" fill-rule="evenodd" id="MDV-5237" data-name="Dhaalu"/>
<path d="M 266.15 3692.84 264.99 3692.9 265.12 3692.84 269.07 3691.48 267.3 3692.78 266.15 3692.84 Z M 313.26 3679.78 312.83 3680.63 310.71 3679.9 310.28 3677.92 310.28 3677.89 310.95 3677.22 312.41 3677.1 313.99 3676.43 313.99 3676.49 313.26 3678.07 313.26 3679.78 Z M 326.69 3672.54 322.32 3672.54 321.53 3671.3 321.53 3671.27 322.25 3669.08 322.68 3666.65 323.71 3668.17 326.69 3672.54 Z M 196.37 3612.33 196.31 3612.36 193.94 3611.88 197.89 3610.48 196.37 3612.33 Z M 181.23 3571.21 181.9 3579.72 178.56 3577.11 178.43 3575.22 179.89 3573.46 181.23 3571.21 Z M 492.09 3560.06 491.91 3560.27 493.37 3555.83 493.31 3556.29 493.06 3558.72 492.09 3560.06 Z M 507.29 3528.14 507.23 3528.3 500.72 3495.35 501.03 3489.24 506.31 3498.57 509.29 3506.66 509.96 3508.42 510.57 3518.51 507.29 3528.14 Z M 471.85 3446.72 471.85 3446.78 470.76 3445.93 469.3 3444.75 469.3 3444.65 469.11 3442.89 470.39 3440.76 471.55 3438 471.85 3446.72 Z M 341.83 3404.72 341.71 3404.72 345.11 3402.53 343.83 3404.72 341.83 3404.72 Z" fill-rule="evenodd" id="MDV-5238" data-name="Thaa"/>
<path d="M 517.13 3973.74 513.12 3978.23 511.48 3977.93 511.42 3977.93 510.51 3975.13 509.05 3971.85 509.17 3971.88 517.13 3973.74 Z M 535.61 3968.6 530.99 3969.12 531.3 3966.2 531.3 3966.11 531.6 3965.68 532.7 3964.13 534.4 3962.55 535.37 3960.46 535.43 3960.61 536.1 3963.92 537.5 3966.69 536.77 3968.48 535.61 3968.6 Z M 582.72 3945.53 577.56 3949.97 575.61 3949.85 575.06 3947.48 574.52 3945.17 582.72 3945.53 Z M 609.29 3944.44 609.29 3944.5 608.98 3944.19 608.8 3943.95 608.44 3943.68 608.25 3943.34 609.96 3941.25 611.6 3939.12 615.37 3936.54 623.27 3933.31 623.39 3933.28 617.98 3937.6 609.29 3944.44 Z M 634.51 3919.15 634.09 3920.31 633.42 3917.78 633.42 3917.75 634.09 3916.14 634.57 3915.63 635.55 3914.71 637.13 3912.83 637.01 3913.1 634.51 3919.15 Z M 424.44 3896.17 418.42 3898.91 418.66 3894.9 419.88 3894.35 421.21 3894.99 421.88 3895.32 424.44 3896.17 Z M 640.65 3895.81 640.41 3896.17 647.1 3871.83 649.53 3866.27 646.37 3882.01 644 3889.34 640.65 3895.81 Z M 647.1 3841.44 647.1 3841.56 645.52 3839.46 645.64 3837.76 647.28 3833.44 647.1 3841.44 Z M 477.87 3825.9 474.22 3828.43 472.03 3826.97 472.27 3825.66 473.31 3824.14 473.37 3822.23 475.31 3823.87 477.38 3824.78 477.87 3825.9 Z M 642.9 3795.94 641.99 3799.25 640.04 3798.98 639.98 3798.98 641.44 3797.46 642.9 3795.94 Z M 525.46 3791.14 525.46 3794.42 524.92 3793.14 525.46 3791.14 Z M 648.31 3761.59 648.31 3761.71 647.58 3759.13 648.19 3757.49 649.65 3756.12 651.47 3754.18 648.31 3761.59 Z M 660.41 3733.69 673.66 3733.94 673.72 3733.94 672.26 3735.03 669.95 3736.79 660.47 3742.75 656.03 3745.06 656.03 3742.02 656.94 3739.35 660.41 3733.69 Z" fill-rule="evenodd" id="MDV-5239" data-name="Laamu"/>
<path d="M 619.86 5020.11 616.34 5025.34 616.28 5025.43 614.7 5022.08 614.27 5021.26 614.27 5021.23 614.82 5020.05 617.19 5020.29 619.92 5020.05 619.86 5020.11 Z M 603.94 4930.39 605.88 4936.98 602.72 4935.71 602.24 4934.28 603.15 4932.52 603.88 4930.24 603.94 4930.39 Z M 525.28 4835.08 525.16 4835.08 523.82 4834.95 522.91 4832.46 523.46 4831.4 525.04 4831.03 526.13 4830.33 525.64 4832.31 525.64 4834.04 525.28 4835.08 Z M 514.58 4743.41 514.16 4744.57 513.49 4744.38 512.76 4744.23 511.91 4741.68 512.64 4740.77 512.7 4740.74 513.37 4740.55 513.97 4740.4 515.07 4739.7 514.58 4741.68 514.58 4743.41 Z M 498.72 4681.74 498.66 4681.77 497.68 4679.22 498.17 4678 499.57 4677.31 500.72 4676.48 500.72 4676.61 500.3 4678.07 500.24 4678.31 500.24 4679.86 500.11 4680.47 499.99 4681.1 499.39 4681.41 498.72 4681.74 Z" fill-rule="evenodd" id="MDV-5240" data-name="Gaafu Alifu"/>
<path d="M 313.32 5150.19 313.26 5150.25 310.28 5148.06 309.49 5146.27 309.19 5145.57 309.12 5145.18 308.64 5142.59 307.73 5139.37 310.28 5141.68 313.02 5143.26 314.35 5145.6 314.35 5145.63 313.32 5150.19 Z M 398.78 5132.14 395.26 5136.33 393.98 5136.27 393.5 5133.66 392.52 5130.44 398.85 5132.11 398.78 5132.14 Z M 266.57 5115.88 266.57 5115.97 263.41 5114.78 263.17 5113.93 262.87 5113.11 263.17 5111.99 263.54 5110.86 263.54 5110.62 263.9 5108.07 263.9 5108.25 266.57 5115.88 Z M 519.57 5096.67 512.52 5100.53 513.61 5096.09 515.55 5095.36 517.56 5096 519.63 5096.64 519.57 5096.67 Z M 225.97 5085.88 225.97 5085.94 222.38 5084.06 222.2 5082.9 224.21 5081.69 225.12 5083.05 226.76 5083.51 227.25 5083.93 227.55 5084.18 225.97 5085.88 Z M 207.37 5015.19 207.43 5015.37 204.88 5013.3 204.45 5011.54 205.06 5009.9 205.3 5008.44 205.36 5008.56 207.37 5015.19 Z M 192.29 4938.99 192.05 4945.71 189.38 4942.61 189.38 4940.97 192.29 4938.96 192.29 4938.99 Z" fill-rule="evenodd" id="MDV-5241" data-name="Gaafu Dhaalu"/>
<path d="M 561.39 5521.53 567.34 5528.34 568.86 5531.93 568.44 5536.97 563.58 5532.72 561.51 5529.01 561.02 5525.36 561.39 5521.53 Z" id="MDV-5242" data-name="Gnaviyani"/>
<path d="M 358.24 5818.96 365.29 5824.01 360.31 5823.88 358.6 5822.55 358.24 5818.96 Z M 383.16 5818.6 379.39 5819.69 380 5815.5 382.19 5813.49 388.88 5811 386.69 5813.91 385.23 5816.59 383.16 5818.6 Z M 329.25 5799.81 331.25 5807.35 328.94 5806.19 328.52 5804.55 328.94 5802.49 329.25 5799.81 Z M 415.68 5776.96 406.2 5789.84 405.84 5782.18 408.21 5775.25 411.85 5772.34 415.68 5776.96 Z M 325.05 5788.69 319.46 5788.69 307.3 5761.33 304.51 5747.41 314.84 5742.31 314.84 5747.84 310.22 5748.27 309.49 5750.39 310.1 5753.61 310.1 5753.68 309.25 5757.63 314.84 5762.73 319.76 5770.63 323.35 5779.94 325.05 5788.69 Z M 420.73 5749.36 419.15 5763.22 414.41 5758.11 412.95 5752.16 414.95 5746.2 421.15 5741.34 421.94 5743.52 421.52 5745.29 420.79 5747.05 420.73 5749.36 Z" fill-rule="evenodd" id="MDV-5243" data-name="Addu"/>
</g>
</svg>