<?xml version="1.0"?>
<svg xmlns="http://www.w3.org/2000/svg" version="1.2" baseProfile="tiny" width="800" height="202" viewBox="0 0 800 202" stroke-linecap="round" stroke-linejoin="round">
<g id="ne_10m_admin_1_states_provinces">
<path d="M 522.95 15.41 527.28 18.84 530.63 23.36 533 28.24 538.15 45.44 539.99 47.46 550.87 53.9 554.59 55.21 557.86 54.18 574.13 45.29 584.87 42.47 595.77 43.28 607.15 48.48 612.28 52.5 615.86 56.89 618.38 61.96 621.92 73.47 623.64 77.03 626.32 79.88 628.47 81.39 628.45 81.41 624.39 83.94 623.35 85.04 622.08 86.68 621.54 88.65 620.23 92.2 619.17 93.92 618.09 95.07 613.45 98.14 619.9 111.68 621.46 112.67 617.65 114.81 616.59 114.19 615.37 113.73 613.49 114.9 611.66 116.5 605.79 129.3 604.63 132.69 597.04 125.78 594.02 124.73 585.43 126.84 575.61 127.97 565.93 126.84 557.06 123.17 549.67 116.72 544.33 109.42 541.49 107.71 536.07 106.7 531.21 105.15 522.35 99.84 518.36 98.69 508.21 97.88 499.25 95.59 481.93 86.93 481.89 86.91 481.83 86.87 481.79 86.85 468.63 77.52 456.73 66.6 449.44 61.96 443.39 64.34 437.87 69.94 437.75 69.86 437.2 69.44 435.66 69.19 433.61 69.66 430.39 71.99 423.79 74.97 407.05 84.54 406.43 86.82 406.43 86.82 405.91 86.82 390.3 75.74 387.18 68.29 387.63 56.04 388.43 52.32 385.4 50.66 376.23 50.16 374.21 50.35 369.58 50.22 357.63 48.46 353.93 48.3 354.26 46.49 356.34 40.66 359.08 35.12 362.02 30.6 370.28 21.89 381.48 13.85 393.76 9.31 405.23 11.1 407.71 13.4 412.85 20.06 415.09 21.72 420.74 20.41 440.71 7.94 460.03 1 465.7 1.27 481.48 7.12 508.24 8.3 517.92 11.44 522.95 15.41 Z" id="GMB-2151" data-name="Central River"/>
<path d="M 782.09 84.8 783.96 86.36 789.97 89.83 792.65 91.99 799 104.53 797.98 118.09 790.43 129.34 777.31 134.95 757.28 136.64 746.64 139.44 735.96 139.56 724.58 143.59 720 143.54 716.02 145.28 703.29 154.68 697.5 157.48 689.83 157.74 675.44 155.1 660.37 156.4 653.2 155.85 646.27 153.93 636.61 149.03 633.8 147.15 631.3 144.94 629.27 142.28 626.3 139.27 622.78 138.3 614.44 137.97 610.6 136.88 607.08 134.92 604.63 132.69 605.79 129.3 611.66 116.5 613.49 114.9 615.37 113.73 616.59 114.19 617.65 114.81 621.46 112.67 619.9 111.68 613.45 98.14 618.09 95.07 619.17 93.92 620.23 92.2 621.54 88.65 622.08 86.68 623.35 85.04 624.39 83.94 628.45 81.41 628.47 81.39 647.7 94.85 654.07 97.77 658.91 98.43 663.51 97.35 679.07 91.91 693.76 82.96 698.79 80.83 714.08 77.44 726.34 71.3 731.71 69.99 734.56 69.89 739.17 70.27 741.94 69.85 745.05 68.49 750.45 65.39 754 64.83 759.57 65.77 766.3 68.07 772.66 71.23 777.1 74.77 778.47 77.08 780.16 82.11 781.54 84.34 782.09 84.8 Z" id="GMB-2152" data-name="Upper River"/>
<path d="M 63.06 116.26 56.75 121.28 45.06 129.63 34.21 128.8 25.86 120.45 18.7 110.99 34.19 92.32 40.99 86.82 41.54 89.54 43.03 91.46 45.31 92.93 48.03 94.22 52.7 91.8 57.41 91.59 61.51 93.16 64.33 96.04 65.77 100.82 62.86 101.64 58.49 101.93 55.45 105.09 59.57 108.67 63.06 116.26 Z" id="GMB-2153" data-name="Banjul"/>
<path d="M 437.87 69.94 431.87 76.03 428.16 81.91 427.16 98.31 425.56 105.64 420.11 112.58 412.49 117.53 403.81 120.67 395.18 122.23 385.42 122.24 356.5 116.22 348.23 115.86 342.03 118.14 335.91 121.41 327.93 124.02 323.61 124.44 305.73 122.73 302.39 122.82 290.49 126.53 272.01 128.27 268.95 129.93 267.89 133.66 267.44 152.46 267.3 152.43 228.63 144.26 226.52 144.17 219.36 145.9 213.95 146.5 212.02 147 210.15 147.22 208.55 147.08 206.05 146.19 204.07 146 201.33 147.2 199.5 150.17 198.65 151.12 197.01 151.17 195.06 150.36 192.36 147.91 191.44 146 191.11 144.29 190.67 142.95 189.57 141.78 184.51 141.27 180.8 143.08 177.89 143.4 175.17 144.3 172.73 145.77 170.59 147.84 168.08 149.65 166.96 148.1 165.75 140.83 165.61 137.87 165.04 135.29 163.38 134.21 162.05 133.57 161.2 131.96 160.7 129.88 160.57 127.69 161.41 122.83 163.59 119.53 174.2 110.87 176.19 108.78 177.03 106 178.17 104.7 180.76 105.17 185.08 106.88 222.26 108.85 236.45 105.57 241.51 105.09 244.41 105.23 245.91 105.48 247.23 105.54 249.72 105.09 251.7 104.25 253.12 103.09 254.19 102.01 255 101.47 260.78 101.12 277.87 103.1 283.32 102.52 298.76 97.84 301.26 96.44 306.22 92.95 308.7 92.24 311.29 93.12 315.06 96.96 317.65 97.84 321.38 97.78 324.14 97.35 326.67 96.29 329.67 94.22 331.96 91.59 336.17 85.14 338.72 83.36 341.9 83.24 345.2 84.26 348.2 85.9 350.57 87.73 353.3 88.94 356.15 88.47 358.88 87.41 361.35 86.82 366.38 88.21 369.61 91.48 372.11 95.15 374.92 97.84 384.04 100.78 395.66 101.49 405.14 97.65 407.81 86.82 406.43 86.82 407.05 84.54 423.79 74.97 430.39 71.99 433.61 69.66 435.66 69.19 437.2 69.44 437.75 69.86 437.87 69.94 Z" id="GMB-2154" data-name="Lower River"/>
<path d="M 63.06 116.26 64.96 124.16 64.33 128.6 74.11 139.92 76.25 141.43 89.66 142.02 93.46 143.08 96.92 145.21 98.99 147.06 101.71 148.33 107.1 148.83 109.67 150.59 111.19 154.72 111.31 159.46 109.74 163.14 114.94 158.87 117.31 158.74 120.77 161.33 119.21 158.64 114.37 153.82 113.36 153.11 112.69 149.75 110.84 147.55 107.99 146.57 104.3 146.87 104.3 145.06 112.1 145.21 115.73 144.67 118.96 143.08 121.58 148.39 124.62 147.21 128.22 143.54 132.53 141.43 137.46 139.99 147.23 133.65 152.53 132.21 159.9 134.47 161.02 139.72 159.88 145.8 160.57 150.47 165.32 151.75 171.74 149.87 180.8 145.06 180.8 143.08 184.51 141.27 189.57 141.78 190.67 142.95 191.11 144.29 191.44 146 192.36 147.91 195.06 150.36 197.01 151.17 198.65 151.12 199.5 150.17 201.33 147.2 204.07 146 206.05 146.19 208.55 147.08 210.15 147.22 212.02 147 213.95 146.5 219.36 145.9 226.52 144.17 228.63 144.26 267.3 152.43 267.44 152.46 267.34 156.59 266.85 175.47 265.07 176.75 255.14 176.67 248.08 176.6 231.04 176.45 196.5 176.15 137.86 175.63 97.6 175.27 53.92 174.88 42.39 174.77 33.15 176.79 29.23 183.27 28.39 185.82 24.2 189.86 22.52 192.02 21.56 194.99 21.16 201.09 17.12 197.69 13.02 196.32 12.39 194.45 13.5 192.26 15.36 188.44 14.88 184.44 9.74 171.35 9.54 168.2 10.19 155.8 9.57 152.35 8.09 148.83 3.56 143.76 2.39 140.25 4.46 136 3.49 134.62 1 128.6 3.38 125.8 6.23 117.64 8.99 115.94 12.23 115.18 15.68 113.32 18.7 110.99 25.86 120.45 34.21 128.8 45.06 129.63 56.75 121.28 63.06 116.26 Z" id="GMB-5512" data-name="West Coast"/>
<path d="M 405.91 86.82 405.84 86.82 405.34 90.8 403.4 94.33 400.63 96.87 397.7 97.84 392.72 97.27 383.63 94.78 379.52 94.22 375.74 92.9 371.37 89.84 364.95 84.19 362.62 83.11 360.27 83.54 357.96 84.47 355.84 85.01 353.44 84.45 351.41 83.2 349.81 81.95 348.67 81.39 345 80.57 342 79.04 338.53 78.3 333.31 79.74 330.62 81.82 326.72 87 324.08 88.63 319.55 88.85 312.42 85.55 307.8 85.01 303.01 86.08 291.34 92.24 281.88 95.06 196.98 101.58 188.59 98.63 183.37 97.84 178.39 98.9 173.6 101.45 166.16 106.88 155.05 117.88 152.53 119.72 150.5 120.6 148.54 122.22 146.53 122.97 144.27 121.35 144.12 119.4 144.9 116.65 145.39 113.55 144.27 110.5 139.79 114.52 139.24 116.72 140.83 119.72 138.17 121.07 137.04 121.35 137.04 123.16 138.3 123.54 139.53 124.35 140.83 124.83 135.59 127.46 126.56 128.75 117.39 129.04 111.71 128.6 91.17 123.67 82.59 123.16 84.2 120.82 87.45 114.28 88.03 111.5 87.45 107.82 84.82 102.57 84.22 100.56 83.14 98.71 78.26 95.13 76.59 92.19 73.95 90.62 73.39 89.63 73.39 84.19 75.66 73.06 75.36 68.88 73.86 65.38 72.11 62.77 72.11 62.77 88.71 62.84 105.17 62.89 121.62 62.96 138.08 63.01 154.56 63.08 171.01 63.14 187.47 63.21 198.27 63.23 203.92 63.25 220.38 63.3 236.86 63.37 253.31 63.43 269.77 63.49 286.24 63.55 302.69 63.62 319.17 63.67 335.62 63.74 348.59 63.78 352.75 62.41 353.29 51.89 353.93 48.3 357.63 48.46 369.58 50.22 374.21 50.35 376.23 50.16 385.4 50.66 388.43 52.32 387.63 56.04 387.18 68.29 390.3 75.74 405.91 86.82 Z" id="GMB-5513" data-name="North Bank"/>
</g>
</svg>