<?xml version="1.0"?>
<svg xmlns="http://www.w3.org/2000/svg" version="1.2" baseProfile="tiny" width="800" height="1189" viewBox="0 0 800 1189" stroke-linecap="round" stroke-linejoin="round">
<g id="ne_10m_admin_1_states_provinces">
<path d="M 407.19 1187.88 403.47 1187.99 409.35 1186.01 410.44 1185.06 413.25 1181.46 412.12 1184.34 410.1 1186.57 407.19 1187.88 Z M 337.55 1066.43 336.16 1067.65 334.37 1066.71 334.4 1066.67 335.1 1066.95 336.05 1067.17 336.74 1066.94 337.28 1065.95 337.51 1064.94 337.47 1063.93 337.14 1062.95 338.03 1064.43 337.55 1066.43 Z M 454.95 1061.02 454.22 1062.12 454.46 1060.8 454.95 1061.02 Z M 515.78 1039.54 513.44 1043.12 510.5 1042.86 512.84 1041.56 513.71 1040.81 514.42 1039.75 515.15 1038.22 516.22 1034.65 516.98 1029.12 518.21 1026.08 520.63 1023.93 523.49 1022.16 525.67 1020.14 527.55 1017.77 526 1022.08 519.35 1026.56 517.85 1031.17 517.29 1034.69 515.78 1039.54 Z M 409.73 864.5 412.04 864.64 420.59 864.64 418.84 866.47 416.02 866.36 410.65 865.08 404.71 863.99 402.25 863.11 402.74 861.41 404.49 863 407.13 863.76 409.73 864.5 Z M 390.13 851.65 390.64 853.26 389.11 852.24 388.08 850.16 387.9 847.85 388.94 846.14 389.4 847.72 390.13 851.65 Z M 437.04 832.62 436.97 833.5 436.61 833.09 436.85 832.39 436.91 831.93 436.2 831.08 434.93 830.61 433.41 830.52 434.07 830.32 434.98 830.19 435.91 830.27 436.61 830.65 437.04 831.67 437.1 832 437.04 832.62 Z M 251.66 745.2 252.37 746.45 251.42 746.04 251.66 745.2 Z M 291.67 696.08 290.68 697.1 290.57 696.41 290.52 695.84 290.85 695.31 291.7 694.82 291.85 695.55 291.67 696.08 Z M 191.64 409.64 189.4 410.85 186.81 410.8 184.73 409.16 188.99 408.8 192.81 407.55 191.64 409.64 Z M 32.74 353.85 33.11 354.69 31.51 353.04 31.82 353.13 32.3 353.37 32.74 353.85 Z M 1.79 344.51 1 345.71 1 344.21 1.54 343.92 1.79 344.51 Z" fill-rule="evenodd" id="MHL-4968" data-name="Railik Chain"/>
<path d="M 795.02 1012.11 799 1012.92 796.46 1012.67 793.6 1013.21 791.03 1013.19 789.38 1011.31 789.63 1011.44 790.37 1011.73 791.51 1011.99 795.02 1012.11 Z M 765.1 1009.48 765.33 1009.96 764.54 1009.96 763.33 1009.94 762.7 1009.45 762.56 1008.56 762.91 1007.29 763.37 1007.77 763.83 1008.43 765.1 1009.48 Z M 747.93 898.13 749.49 898.7 757.17 898.35 758.75 898.7 764.02 902.87 766.7 904.35 763.58 903.94 758.66 900.28 755.31 899.51 749.82 900.34 747.3 899.25 745.49 895.48 746.66 897.02 747.93 898.13 Z M 768.97 897.73 767.59 898.75 768.3 897.64 770.91 894.55 771.17 894.22 771.34 893.94 771.57 893.73 771.94 893.64 771.17 895.17 770.17 896.53 768.97 897.73 Z M 784.71 890.14 782.72 890.32 783.18 889.95 783.68 889.73 784.79 889.37 785.75 888.62 786.24 887.84 786.16 887.04 785.47 886.26 787.07 887.06 786.47 888.71 784.71 890.14 Z M 683.97 884.09 703.99 892.1 705.3 892.08 708.36 891.5 710.9 890.61 723.76 888.05 720.6 889.88 711.92 891.16 708.34 893.05 705.03 893.05 701.12 892.49 684.41 885.04 681.43 882.71 683.16 880.87 683.19 882.01 683.39 882.74 683.97 884.09 Z M 659.68 676.62 658.85 677.95 658.19 677.75 658.12 677.73 658.04 677.69 657.98 677.65 657.95 677.58 658.44 676.52 658.83 676.26 659.48 676.18 659.68 676.62 Z M 588.17 610.39 587.36 611.33 587.19 609.33 587.79 609.37 588.17 610.39 Z M 662.87 513.73 662.39 513.78 662.37 512.37 662.85 512.3 662.87 513.73 Z M 440.32 3.06 439.18 3.8 440.48 2.36 441.95 1.04 442.3 1 441.55 1.91 440.32 3.06 Z" fill-rule="evenodd" id="MHL-4969" data-name="Ratak Chain"/>
</g>
</svg>