<?xml version="1.0"?>
<svg xmlns="http://www.w3.org/2000/svg" version="1.2" baseProfile="tiny" width="800" height="426" viewBox="0 0 800 426" stroke-linecap="round" stroke-linejoin="round">
<g id="ne_10m_admin_1_states_provinces">
<path d="M 121.86 132.97 124.62 134.1 130.58 137.77 131.78 138.77 132.35 139.46 132.75 140.18 133.45 142.85 133.79 143.65 134.28 144.36 135.47 145.49 136.81 146.5 138 147.69 138.03 147.77 138.73 149.05 139.05 149.84 138.08 155.73 131.48 177.76 125.63 180.16 118.39 182.11 114.38 182.7 113.47 183.31 112.76 184.25 112.43 186.36 112.35 187.75 113.14 193.92 113.68 195.83 114.29 197.33 115.06 198.85 115.36 199.61 115.16 200.75 108.45 210.7 107.84 212.49 107.66 213.81 110.45 222.37 110.8 224.2 110.35 225.51 109.37 227.07 106.86 229.95 105.9 231.73 105.37 233.14 105.19 236.17 104.91 237.01 100.69 244.4 100.09 245.99 98.22 253.32 96.57 253.97 93.84 254.32 83.89 253.77 81.86 253.35 81.2 252.9 78.81 250.67 74.49 245.83 73.83 245.29 72.47 244.37 71.68 244.02 70.79 243.71 69.63 243.58 68.3 243.58 66.41 243.92 65.31 244.27 64.33 244.71 63.53 245.25 62.6 246.02 60.13 248.89 54.9 256.92 54.15 258.14 31.85 248.22 8.18 237.1 1.15 214.9 1 209.72 1.82 204.36 3.57 199.15 6.19 194.39 10.13 190.45 19.17 185.76 23.21 182.6 26.27 177.96 28.45 173.17 31.25 168.54 36.13 164.34 67.8 142.76 74.81 135.94 78.33 133.7 92.92 128.29 97.78 127.97 103.75 129.49 112.33 135.97 117.17 137.88 121.98 135.36 122.11 133.53 121.86 132.97 Z" id="SLV-1343" data-name="Ahuachapán"/>
<path d="M 534.09 157.96 533.82 158.19 533.73 158.18 532.37 158 532.73 158.77 534.42 162.37 534.18 166.21 533.05 170.22 532.37 175.08 533.29 178.21 536.86 186.87 537.08 192.14 534.18 196.8 533.56 197.34 532.15 198.62 534.19 202.71 533.72 206.62 531.38 209.91 527.85 212.12 528.54 216.69 525.47 221.28 522.45 226.97 522.47 227.06 517.12 230.58 514.01 229.77 505.7 228.77 504.49 228.37 503.84 227.81 503.45 227.1 503.16 226.31 502.75 224.52 502.27 223.76 501.35 223.29 499.07 222.69 498.27 222.35 496.07 221.07 492.57 219.88 491.77 219.47 485.72 215.11 484.97 214.75 481.34 214.09 476.82 213.86 474.66 213.47 464.14 213.58 461.79 213.37 460.23 212.96 455.49 209.63 454.4 209.73 453.21 210.32 451.56 212.45 450.49 213.56 449.34 214.3 447.39 214.14 445.03 213.55 442.86 214.12 432.61 218.55 429.42 219.54 427.16 219.9 423.73 218.79 421.81 218.35 419.69 218.27 418.76 219.49 418.17 220.49 417.71 229.94 406.31 226.92 403.34 225.25 403.02 224.42 400.9 221.28 397.71 217.96 396.36 216.2 395.57 214.75 395.13 212.61 394.73 211.35 393.06 208.51 392.67 207.12 392.41 205.65 391.23 203.08 389.62 201.34 386.93 199.56 384.91 197.46 378.49 188.59 376.93 185.77 376.1 183.67 376.27 182.69 376.53 181.78 376.85 181 377.35 180.3 377.87 179.72 378.56 179.21 382.93 176.73 384.19 175.72 385.3 174.57 386.27 173.15 386.66 172.41 391.52 164.93 401.24 164.67 409.87 165.44 414.36 164.34 419.33 162.51 439.6 156.03 443.52 154.26 445.77 152.59 448.25 149.33 455.08 146.12 470.25 143.88 470.21 144.47 472.23 143.71 480.62 142.45 489.02 143 513.98 150.76 528.5 151.84 531.69 153.14 534.64 155.96 534.38 157 534.28 157.8 534.09 157.96 Z" id="SLV-1344" data-name="Cabañas"/>
<path d="M 391.52 164.93 386.66 172.41 386.27 173.15 385.3 174.57 384.19 175.72 382.93 176.73 378.56 179.21 377.87 179.72 377.35 180.3 376.85 181 376.53 181.78 376.27 182.69 376.1 183.67 376.93 185.77 378.49 188.59 384.91 197.46 386.93 199.56 389.62 201.34 391.23 203.08 392.41 205.65 392.67 207.12 393.06 208.51 394.73 211.35 395.13 212.61 395.57 214.75 396.36 216.2 397.71 217.96 400.9 221.28 403.02 224.42 403.34 225.25 406.31 226.92 417.71 229.94 411.69 245.57 410.56 250.19 409.77 251.7 409.03 252.79 402.61 258.96 400.32 260.29 398.5 260.9 394.37 261.39 393.47 261.65 392.76 262.05 392.23 262.66 391.5 264.25 390.99 264.86 390.27 265.19 389.62 265.38 388.15 265.59 387.03 265.64 380.8 263.7 375.1 260.72 360.59 255.55 360.31 245.61 359.59 243.97 359.01 242.21 357.4 240.28 351.67 229.64 351.18 228.07 351.74 220.97 351.44 219.52 350.85 218.61 350.01 218.32 348.75 217.48 347.38 216.11 343.2 210.17 342.56 209.69 341.74 209.35 340.78 209.17 338.66 209.06 336.37 207.25 333.35 203.89 324.56 190.46 323.67 187.96 324.25 187.39 326.63 186.37 327.49 185.78 328.13 185.1 328.71 183.87 328.41 183.13 326.38 180.63 319.53 169.69 316.4 163.43 315.73 160.95 315.36 158.12 315.59 157.62 316.08 157.15 316.69 156.67 317.28 156.14 318.15 154.81 318.44 154 318.68 153.1 318.95 151.16 319.44 149.36 319.58 148.01 319.58 147.66 319.64 147.05 319.38 143.88 318.37 138.46 318.24 137.01 318.56 135.97 320.15 132.81 321.6 128.88 321.78 125.69 327.6 122.73 328.61 122.74 329.76 122.89 333.89 124.91 342.39 127.91 344.05 128.77 346.44 130.85 352 134.71 352.51 135.33 354 137.9 361.23 146.26 361.83 147.16 361.97 147.7 361.97 147.78 361.71 149.18 361.71 150.07 361.83 150.9 362.05 151.72 362.61 153.22 363.49 155.03 365.23 157.54 366.7 158.86 367.96 159.63 375.01 162.89 380.99 162.41 386.08 164.33 391.52 164.93 Z" id="SLV-1345" data-name="Cuscatlán"/>
<path d="M 280.27 130.59 279.9 141.7 278.13 148.77 278.03 150.55 278.29 151.73 280.27 153.23 281.06 154.37 282.02 156.1 283.66 159.83 284.64 161.61 285.54 162.79 286.93 163.66 288.49 164.4 291.16 165.18 292.15 165.24 295.19 165 296.23 165.03 297.21 165.16 298.14 165.38 299.04 165.7 300.1 166.29 301.3 167.26 303.07 168.17 303.58 168.84 303.7 169.39 302.84 171.56 302.4 173.4 302.27 173.81 302 174.03 299.54 173.96 298.69 174.19 298.08 174.77 297.74 175.84 296.08 194.22 295.61 196.09 295.24 196.84 294.57 197.29 292.87 197.9 292.15 198.34 291.47 198.84 290.47 200.07 289.81 201.66 289.41 203.22 288.79 208.97 288.11 211.52 287.03 213.93 286.43 216.97 286.04 222.24 285.75 223.65 285.51 224.48 283.23 228.65 281.8 232.76 281.9 234.08 282.49 234.77 283.34 234.99 284.4 235.08 286.05 237.16 285.73 240.45 285.96 243.58 286.32 244.41 286.77 245.1 287.31 245.74 288.58 246.65 289.2 247.45 289.6 248.55 290.21 251.13 290.7 252.56 291.33 253.53 292.05 254.04 296.79 256.51 297.36 256.88 298.77 258.12 300.98 260.97 301.3 262.23 301.2 263.24 300.12 265.21 299.35 267.01 299.39 268.04 300.1 268.78 302.63 269.95 303.02 270.74 302.86 271.48 302.32 272.12 301.66 272.63 301.2 274.52 300.95 277.6 301.56 291.22 301.4 292.26 299.34 297.46 298.6 300.3 298.48 301.86 298.68 303.08 303.96 311.39 305.82 315.31 306.31 315.93 307.04 316.33 308 316.45 309.04 316.4 310.89 315.97 314.34 314.85 316.3 314.62 317.52 314.78 318.36 315.01 320.78 316.08 321.93 321.44 322.93 322.81 323.72 322.78 325.1 322.85 326.92 323.26 330.17 324.55 331.23 325.68 331.5 326.61 330.65 328.04 329.07 329.94 328.64 330.61 328.13 331.24 325.56 335.68 324.64 337.65 323.65 340.7 323.64 340.72 307.89 331.3 285.5 321.66 261.31 316.05 250.06 316.05 241.49 314.08 194.67 314.45 174.66 309.59 167.53 308.23 168.44 306.16 171.93 298.38 173.69 295.6 182.03 288.49 183.49 286.85 184.38 285.52 184.81 281.56 185.43 278.81 186.21 277.19 186.96 276.14 187.62 275.49 188.31 275.04 195.47 268.04 197.11 265.89 197.99 264.29 198.08 263.2 197.65 255.94 198.17 252.13 199.14 248.21 199.88 246.42 200.6 245.2 201.26 244.61 202.61 243.85 203.34 243.64 205.65 243.44 206.94 242.88 208.27 241.85 212.17 237.21 213.96 235.58 218.82 232.84 220.9 231.38 223.27 229.35 224.16 228.04 224.63 226.83 224.47 225.91 224.13 225.11 223.7 224.42 223.13 223.9 222.45 223.42 221.65 223.04 217.88 221.89 219.41 212.71 225.19 197.36 225.8 190.36 225.53 184.41 225.97 175.58 226.37 173.75 226.88 173.11 227.57 172.66 228.37 172.46 229.25 172.53 230.08 172.78 231 172.66 232.08 171.97 234.71 167.86 235.41 167.5 236.32 167.41 237.41 167.44 238.64 167.36 240.32 166.64 241.06 165.75 241.42 164.72 241.93 158.4 241.85 157.38 242.42 152.62 245.98 134.39 247.41 132.14 248.47 129.89 251.21 128.87 255.1 128.14 258.11 126.53 261.33 124.16 264.74 124.83 270.68 128.12 276.07 128.87 277.14 129.19 280.27 130.59 Z" id="SLV-1346" data-name="La Libertad"/>
<path d="M 402.61 258.96 405.08 265.43 405.19 270.85 404.82 276.42 405.18 278.67 405.8 279.99 406.82 280.1 407.88 280.08 408.91 279.95 416.79 277.55 418.14 277.48 419.64 277.73 422.24 278.67 423.11 279.74 431.24 296.68 431.47 297.6 431.62 298.56 431.55 300.67 431.14 302.57 428.61 309.3 428.43 310.08 428.15 310.85 427.92 311.9 427.87 312.41 427.87 312.52 426.55 319.73 426.5 321.23 426.98 326.96 427.41 328.83 427.89 330.19 430.04 332.53 432.03 334.05 434.91 335.76 437.18 337.88 439.37 340.61 440.11 342.29 440.42 343.69 440.32 344.71 439.88 346.59 439.6 347.39 439.16 348.1 437.17 349.62 436.63 350.19 436.21 350.9 435.93 351.75 435.78 352.72 435.73 353.79 437.22 367.25 437.13 369.11 436.7 369.85 436.19 370.47 435.53 371.07 434.84 371.53 431.8 373.01 429.37 373.96 427.9 374.78 426.63 375.8 426.09 376.43 425.63 377.11 425.23 377.9 424.92 378.73 424.67 379.66 423.87 389.58 423.87 389.62 347 354.71 323.64 340.72 323.65 340.7 324.64 337.65 325.56 335.68 328.13 331.24 328.64 330.61 329.07 329.94 330.65 328.04 331.5 326.61 331.23 325.68 330.17 324.55 326.92 323.26 325.1 322.85 323.72 322.78 322.93 322.81 321.93 321.44 320.78 316.08 321.5 313.3 322.48 312.68 324.84 310.12 326.52 306.62 329.32 298.45 330.07 294.89 330.24 292.58 329.61 290.96 327.08 286.61 326.11 283.96 325.51 281.1 325.65 279.58 326.12 278.54 326.86 278.14 327.75 277.98 328.8 277.98 329.81 278.11 335.07 279.79 336.08 279.95 337.09 280 338.77 278.75 348.68 266.49 360.59 255.55 375.1 260.72 380.8 263.7 387.03 265.64 388.15 265.59 389.62 265.38 390.27 265.19 390.99 264.86 391.5 264.25 392.23 262.66 392.76 262.05 393.47 261.65 394.37 261.39 398.5 260.9 400.32 260.29 402.61 258.96 Z" id="SLV-1347" data-name="La Paz"/>
<path d="M 217.88 221.89 221.65 223.04 222.45 223.42 223.13 223.9 223.7 224.42 224.13 225.11 224.47 225.91 224.63 226.83 224.16 228.04 223.27 229.35 220.9 231.38 218.82 232.84 213.96 235.58 212.17 237.21 208.27 241.85 206.94 242.88 205.65 243.44 203.34 243.64 202.61 243.85 201.26 244.61 200.6 245.2 199.88 246.42 199.14 248.21 198.17 252.13 197.65 255.94 198.08 263.2 197.99 264.29 197.11 265.89 195.47 268.04 188.31 275.04 187.62 275.49 186.96 276.14 186.21 277.19 185.43 278.81 184.81 281.56 184.38 285.52 183.49 286.85 182.03 288.49 173.69 295.6 171.93 298.38 168.44 306.16 167.53 308.23 165.25 307.79 144.35 301.09 133.36 303.31 102.08 303.68 97.05 300.3 93.73 288.19 92.49 280.63 88.37 277.31 81.58 273.23 54.87 258.45 54.15 258.14 54.9 256.92 60.13 248.89 62.6 246.02 63.53 245.25 64.33 244.71 65.31 244.27 66.41 243.92 68.3 243.58 69.63 243.58 70.79 243.71 71.68 244.02 72.47 244.37 73.83 245.29 74.49 245.83 78.81 250.67 81.2 252.9 81.86 253.35 83.89 253.77 93.84 254.32 96.57 253.97 98.22 253.32 100.09 245.99 100.69 244.4 104.91 237.01 105.19 236.17 105.37 233.14 105.9 231.73 106.86 229.95 109.37 227.07 110.35 225.51 110.8 224.2 110.45 222.37 107.66 213.81 107.84 212.49 108.45 210.7 115.16 200.75 115.36 199.61 115.06 198.85 114.29 197.33 113.68 195.83 113.14 193.92 112.35 187.75 112.43 186.36 112.76 184.25 113.47 183.31 114.38 182.7 118.39 182.11 125.63 180.16 131.48 177.76 139.15 179.64 142.1 179.54 143.91 179.08 144.91 178.95 145.95 178.95 147.49 179.67 149.4 181.04 154.75 186.13 155.73 187.44 156.77 189.79 157.5 190.74 158.53 191.86 160.55 193.67 162.01 195.99 162.37 197.69 162.29 198.62 162.03 199.53 161.6 200.27 161.09 200.84 159.82 201.85 159.26 202.49 158.88 203.22 158.73 204.05 159.16 204.76 160.22 205.4 162.28 205.78 163.78 207.28 164.57 208.37 164.95 209.4 165.36 210.16 165.92 210.77 166.64 211.33 167.71 211.75 169.27 212.05 171.63 211.51 172.83 210.92 173.57 210.17 173.78 209.37 173.77 206.42 174.2 204.6 175.26 202.29 176.14 200.88 176.71 200.27 177.35 199.81 178.24 199.59 180.48 200.55 183.66 202.41 190.63 207.45 195.01 211.44 197 216.26 197.45 216.94 197.98 217.58 202.18 218.97 217.88 221.89 Z" id="SLV-1348" data-name="Sonsonate"/>
<path d="M 321.78 125.69 321.6 128.88 320.15 132.81 318.56 135.97 318.24 137.01 318.37 138.46 319.38 143.88 319.64 147.05 319.58 147.66 319.58 148.01 319.44 149.36 318.95 151.16 318.68 153.1 318.44 154 318.15 154.81 317.28 156.14 316.69 156.67 316.08 157.15 315.59 157.62 315.36 158.12 315.73 160.95 316.4 163.43 319.53 169.69 326.38 180.63 328.41 183.13 328.71 183.87 328.13 185.1 327.49 185.78 326.63 186.37 324.25 187.39 323.67 187.96 324.56 190.46 333.35 203.89 336.37 207.25 338.66 209.06 340.78 209.17 341.74 209.35 342.56 209.69 343.2 210.17 347.38 216.11 348.75 217.48 350.01 218.32 350.85 218.61 351.44 219.52 351.74 220.97 351.18 228.07 351.67 229.64 357.4 240.28 359.01 242.21 359.59 243.97 360.31 245.61 360.59 255.55 348.68 266.49 338.77 278.75 337.09 280 336.08 279.95 335.07 279.79 329.81 278.11 328.8 277.98 327.75 277.98 326.86 278.14 326.12 278.54 325.65 279.58 325.51 281.1 326.11 283.96 327.08 286.61 329.61 290.96 330.24 292.58 330.07 294.89 329.32 298.45 326.52 306.62 324.84 310.12 322.48 312.68 321.5 313.3 320.78 316.08 318.36 315.01 317.52 314.78 316.3 314.62 314.34 314.85 310.89 315.97 309.04 316.4 308 316.45 307.04 316.33 306.31 315.93 305.82 315.31 303.96 311.39 298.68 303.08 298.48 301.86 298.6 300.3 299.34 297.46 301.4 292.26 301.56 291.22 300.95 277.6 301.2 274.52 301.66 272.63 302.32 272.12 302.86 271.48 303.02 270.74 302.63 269.95 300.1 268.78 299.39 268.04 299.35 267.01 300.12 265.21 301.2 263.24 301.3 262.23 300.98 260.97 298.77 258.12 297.36 256.88 296.79 256.51 292.05 254.04 291.33 253.53 290.7 252.56 290.21 251.13 289.6 248.55 289.2 247.45 288.58 246.65 287.31 245.74 286.77 245.1 286.32 244.41 285.96 243.58 285.73 240.45 286.05 237.16 284.4 235.08 283.34 234.99 282.49 234.77 281.9 234.08 281.8 232.76 283.23 228.65 285.51 224.48 285.75 223.65 286.04 222.24 286.43 216.97 287.03 213.93 288.11 211.52 288.79 208.97 289.41 203.22 289.81 201.66 290.47 200.07 291.47 198.84 292.15 198.34 292.87 197.9 294.57 197.29 295.24 196.84 295.61 196.09 296.08 194.22 297.74 175.84 298.08 174.77 298.69 174.19 299.54 173.96 302 174.03 302.27 173.81 302.4 173.4 302.84 171.56 303.7 169.39 303.58 168.84 303.07 168.17 301.3 167.26 300.1 166.29 299.04 165.7 298.14 165.38 297.21 165.16 296.23 165.03 295.19 165 292.15 165.24 291.16 165.18 288.49 164.4 286.93 163.66 285.54 162.79 284.64 161.61 283.66 159.83 282.02 156.1 281.06 154.37 280.27 153.23 278.29 151.73 278.03 150.55 278.13 148.77 279.9 141.7 280.27 130.59 282.61 130.92 283.99 130.25 288.26 127.26 290.79 126.41 297.62 129.32 302.21 129.37 304.29 125.29 308.93 128.86 312.68 129.77 321.78 125.69 Z" id="SLV-1349" data-name="San Salvador"/>
<path d="M 797.75 418.62 799 421.99 796.21 423.45 791.95 421.97 789.14 423.23 789.17 419.67 787.41 416.11 788.09 411.93 787.8 407.73 790.19 406.06 794.75 407.53 797.56 413.6 797.75 418.62 Z M 777.89 404.59 775.73 406.69 771.42 402.91 770.34 397.67 772.28 395.78 775.08 395.57 777.67 397.04 779.82 401.86 777.89 404.59 Z M 780.44 198.64 789.77 206.46 795.57 208.73 792.6 213.53 785.95 228.47 784.29 233.85 786.42 239.31 784.8 242.85 781.49 245.91 778.62 249.95 777.43 255.77 777.7 267.99 776.96 274 769.05 292.61 767.12 301.72 770.57 309.25 773.97 310.44 780.95 308.17 785.74 310 788.28 312.87 789.97 316.82 790.56 321.21 789.79 325.44 784.1 331.75 758.15 343.33 758.15 343.33 757.92 343.25 755.33 341.77 753.69 339.06 751.19 332 741.91 347.68 739.49 356.94 745.55 361.04 749.43 362.47 760.37 372.7 766.59 376.81 767.13 378.74 767.13 382.72 764.43 389.76 757.88 394.79 733.38 406.82 726.74 411.99 725.58 417.26 733.18 422.41 721.55 425.03 676.14 421.98 667.75 420.39 667.76 420.36 669.57 394.55 670.01 392 670.88 388.76 671.57 389.05 674.28 391 677.11 392.67 680.58 393.87 681.64 394.08 682.75 394.1 684.28 393.64 685.07 392.87 689.37 379.13 689.6 377.12 689.08 375.18 688.98 373.82 693.21 350.12 693.07 349.33 692.79 348.51 692.41 347.72 689.31 342.93 688.91 342.14 688.59 341.29 687.64 335.49 687.48 327.03 687.76 324.92 688.27 323.59 688.88 323.11 690.31 322.32 691.2 321.7 692.12 320.92 693.35 319.47 693.68 318.34 693.68 317.28 692.41 312.53 692.23 302.57 692.93 298.41 695.08 295.58 705.28 284.94 707.7 281.38 708.26 275.19 715.81 256.17 717.8 247.29 718.77 239.64 718.87 233.35 718.54 231.36 718.28 230.53 717.96 229.75 717.5 229.02 716.01 227.15 715.61 226.45 715.38 225.57 715.29 224.49 716.65 204.48 716.01 195.18 714.58 189.81 713.52 183.35 715.39 183.72 720.25 186.8 722.5 187.44 724.01 186.7 728.25 183.51 730.81 182.65 734.11 182.85 740.55 184.16 743.73 183.95 746.92 181.75 749.65 178.38 752.96 175.69 757.91 175.49 761.02 177.87 764.23 186.54 766.9 190.45 768.61 191.46 773.22 193.2 775.23 194.27 780.44 198.64 Z" fill-rule="evenodd" id="SLV-1350" data-name="La Unión"/>
<path d="M 626.17 150.8 634.14 152.53 639.39 152.65 656.58 150.64 665.26 151.12 669.05 154.18 673.88 166.41 678.65 171.99 684.72 177.38 690.11 183.63 692.85 191.8 707.87 184.5 712.8 183.2 713.52 183.35 714.58 189.81 716.01 195.18 716.65 204.48 715.29 224.49 715.38 225.57 715.61 226.45 716.01 227.15 717.5 229.02 717.96 229.75 718.28 230.53 718.54 231.36 718.87 233.35 718.77 239.64 717.8 247.29 715.81 256.17 708.26 275.19 707.7 281.38 705.28 284.94 695.08 295.58 687.98 294.43 684.58 294.65 671.67 298.51 669.21 298.77 667.63 298.54 667.14 297.99 666.6 297.09 666.3 296.42 665.52 295.52 664.43 294.56 659.56 291.7 658.86 291.19 658.36 290.52 657.99 289.79 657.04 283.91 656.52 282.17 655.31 279.96 653.9 278.16 652.68 277.43 651.45 277.04 638.71 278.04 636.82 278.44 635.16 279.06 632.49 280.6 630.71 281.11 630.14 280.73 630.11 280.15 630.5 279.45 632.45 276.88 632.79 276.09 632.84 275.24 632.33 274.39 631.57 273.66 629.23 272.19 628.49 271.61 627.98 270.96 627.66 270.2 627.41 269.29 627.27 268.29 626.57 267.02 625.37 265.46 622.23 263.2 621.02 262.04 620.43 260.06 619.33 258.43 615.14 254.76 613.44 252.85 612.42 251.31 611.87 243.04 611.92 242.16 612.27 241.44 612.83 240.86 623.67 233.25 625.17 232.45 627.69 231.58 628.46 231.12 629.1 230.59 629.61 229.97 629.87 228.99 629.86 227.79 629.3 225.82 628.43 224.54 627.66 223.7 615.23 215.43 613.36 213.81 612.17 212.58 611.89 211.75 611.66 210.83 611.51 207.66 611.81 205.8 611.98 205.19 612.19 204.64 612.57 203.99 613.58 202.76 614.17 202.28 614.87 201.83 615.45 201.26 615.94 200.58 616.33 199.86 616.65 199.02 616.85 198.11 616.8 196.11 615.73 193.36 614.45 190.89 613.92 189.46 613.8 188.36 613.22 185.72 609.34 176.84 607.55 174.42 608.87 172.14 611.03 169.81 614.97 168.17 617.89 168.63 620 168.15 621.58 163.65 620.99 162.76 618.05 160.11 617.37 158.94 617.04 152.42 617.2 151.31 620.43 150.12 625.38 150.63 626.17 150.8 Z" id="SLV-1351" data-name="Morazán"/>
<path d="M 695.08 295.58 692.93 298.41 692.23 302.57 692.41 312.53 693.68 317.28 693.68 318.34 693.35 319.47 692.12 320.92 691.2 321.7 690.31 322.32 688.88 323.11 688.27 323.59 687.76 324.92 687.48 327.03 687.64 335.49 688.59 341.29 688.91 342.14 689.31 342.93 692.41 347.72 692.79 348.51 693.07 349.33 693.21 350.12 688.98 373.82 689.08 375.18 689.6 377.12 689.37 379.13 685.07 392.87 684.28 393.64 682.75 394.1 681.64 394.08 680.58 393.87 677.11 392.67 674.28 391 671.57 389.05 670.88 388.76 670.01 392 669.57 394.55 667.76 420.36 667.75 420.39 665.48 419.96 663.22 419.96 660.83 420.89 660.82 420.87 640.64 397.99 639.76 397.66 638.81 397.48 637.79 397.43 628.83 398.8 628.02 398.61 627.4 397.95 627.36 396.33 627.54 395.24 627.86 394.21 630.32 389.79 630.14 388.88 629.37 387.85 627.21 386.7 625.96 385.74 625.19 384.54 625.11 379.66 625.01 378.72 624.69 377.68 624.13 376.71 623.05 375.54 621.66 375.36 620.61 375.49 617.52 377.12 615.86 377.81 614.92 377.99 613.97 378.06 613.07 377.9 612.22 377.62 611.53 377.18 610.27 376.15 609.57 375.69 608.74 375.38 607.8 375.31 606.96 375.35 606 374.72 604.65 373.46 601.72 370.08 600.04 368.73 598.55 367.9 592.08 367.16 590.33 366.72 587.86 365.65 587.15 365.21 586.54 364.75 584.23 361.87 580.91 356.69 579.13 353.17 577.39 347.24 576.9 344.72 576.71 342.77 576.76 340.65 576.57 339.63 576.08 338.78 574.73 338.34 573.22 338.88 572.62 338.87 572.18 338.49 571.79 337.44 570.73 331.37 570.65 329.24 570.09 324.82 570.07 323.85 570.14 322.85 570.42 322.04 570.94 321.42 571.55 321.24 572.03 321.42 572.4 321.74 572.85 322.27 573.39 322.65 573.99 322.71 574.46 322.2 574.77 321.35 574.91 319.29 574.84 317.28 574.97 316.28 575.24 315.44 575.68 314.65 576.2 314.04 577.95 312.47 578.02 312.36 578.43 311.53 578.54 310.81 578.4 309.55 577.07 305.21 576.8 303.5 576.79 302.14 577.49 299.56 577.47 298.77 577.05 297.55 573.06 289.34 572.81 288.44 572.69 287.5 572.62 285.55 572.77 284.57 573.06 283.72 573.41 282.99 573.95 282.37 574.71 281.98 576.5 281.4 577.24 281.04 577.78 280.45 578.25 279.77 578.58 278.95 578.71 278.07 578.53 276.88 578.1 275.53 577.17 273.22 576.52 270.44 576.54 269.47 576.71 268.5 578.27 264.24 578.3 263.3 577.2 262.46 575.17 261.84 567.14 260.87 564.58 260.02 561.73 258.01 559.47 255.94 556.72 251.7 554.7 249.22 550.76 248.99 537.3 250.5 533.51 244.74 523.36 234.82 522.47 227.06 522.45 226.97 525.47 221.28 528.54 216.69 527.85 212.12 531.38 209.91 533.72 206.62 534.19 202.71 532.15 198.62 533.56 197.34 534.18 196.8 542.96 196.38 549.13 192.72 555.13 190.25 568.41 187.39 571.57 187.56 576.82 189.58 579.23 189.82 579.62 188.87 579.62 186.92 579.86 184.87 580.89 183.7 583.03 183.56 585.67 184 588.29 184.77 590.4 185.64 592.69 181.51 596.26 180.23 600.25 179.94 603.84 178.75 606.44 176.32 607.55 174.42 609.34 176.84 613.22 185.72 613.8 188.36 613.92 189.46 614.45 190.89 615.73 193.36 616.8 196.11 616.85 198.11 616.65 199.02 616.33 199.86 615.94 200.58 615.45 201.26 614.87 201.83 614.17 202.28 613.58 202.76 612.57 203.99 612.19 204.64 611.98 205.19 611.81 205.8 611.51 207.66 611.66 210.83 611.89 211.75 612.17 212.58 613.36 213.81 615.23 215.43 627.66 223.7 628.43 224.54 629.3 225.82 629.86 227.79 629.87 228.99 629.61 229.97 629.1 230.59 628.46 231.12 627.69 231.58 625.17 232.45 623.67 233.25 612.83 240.86 612.27 241.44 611.92 242.16 611.87 243.04 612.42 251.31 613.44 252.85 615.14 254.76 619.33 258.43 620.43 260.06 621.02 262.04 622.23 263.2 625.37 265.46 626.57 267.02 627.27 268.29 627.41 269.29 627.66 270.2 627.98 270.96 628.49 271.61 629.23 272.19 631.57 273.66 632.33 274.39 632.84 275.24 632.79 276.09 632.45 276.88 630.5 279.45 630.11 280.15 630.14 280.73 630.71 281.11 632.49 280.6 635.16 279.06 636.82 278.44 638.71 278.04 651.45 277.04 652.68 277.43 653.9 278.16 655.31 279.96 656.52 282.17 657.04 283.91 657.99 289.79 658.36 290.52 658.86 291.19 659.56 291.7 664.43 294.56 665.52 295.52 666.3 296.42 666.6 297.09 667.14 297.99 667.63 298.54 669.21 298.77 671.67 298.51 684.58 294.65 687.98 294.43 695.08 295.58 Z" id="SLV-1352" data-name="San Miguel"/>
<path d="M 522.47 227.06 523.36 234.82 533.51 244.74 537.3 250.5 516.6 265.19 514.72 271 509.85 277.56 503.19 281.65 495.95 280.02 486.46 291.48 486.03 293.53 480.61 294.41 478.72 297.01 477.95 307.02 475.17 316.77 460.15 344.65 458.76 348.13 457.95 352.31 457.54 362.53 456.72 364.77 450.95 370.23 447.86 374.67 445.88 378.31 442.79 380.77 436.32 381.68 432.41 383.11 429.92 386.44 428.61 391.09 428.62 391.75 428.62 391.78 423.87 389.62 423.87 389.58 424.67 379.66 424.92 378.73 425.23 377.9 425.63 377.11 426.09 376.43 426.63 375.8 427.9 374.78 429.37 373.96 431.8 373.01 434.84 371.53 435.53 371.07 436.19 370.47 436.7 369.85 437.13 369.11 437.22 367.25 435.73 353.79 435.78 352.72 435.93 351.75 436.21 350.9 436.63 350.19 437.17 349.62 439.16 348.1 439.6 347.39 439.88 346.59 440.32 344.71 440.42 343.69 440.11 342.29 439.37 340.61 437.18 337.88 434.91 335.76 432.03 334.05 430.04 332.53 427.89 330.19 427.41 328.83 426.98 326.96 426.5 321.23 426.55 319.73 427.87 312.52 427.87 312.41 427.92 311.9 428.15 310.85 428.43 310.08 428.61 309.3 431.14 302.57 431.55 300.67 431.62 298.56 431.47 297.6 431.24 296.68 423.11 279.74 422.24 278.67 419.64 277.73 418.14 277.48 416.79 277.55 408.91 279.95 407.88 280.08 406.82 280.1 405.8 279.99 405.18 278.67 404.82 276.42 405.19 270.85 405.08 265.43 402.61 258.96 409.03 252.79 409.77 251.7 410.56 250.19 411.69 245.57 417.71 229.94 418.17 220.49 418.76 219.49 419.69 218.27 421.81 218.35 423.73 218.79 427.16 219.9 429.42 219.54 432.61 218.55 442.86 214.12 445.03 213.55 447.39 214.14 449.34 214.3 450.49 213.56 451.56 212.45 453.21 210.32 454.4 209.73 455.49 209.63 460.23 212.96 461.79 213.37 464.14 213.58 474.66 213.47 476.82 213.86 481.34 214.09 484.97 214.75 485.72 215.11 491.77 219.47 492.57 219.88 496.07 221.07 498.27 222.35 499.07 222.69 501.35 223.29 502.27 223.76 502.75 224.52 503.16 226.31 503.45 227.1 503.84 227.81 504.49 228.37 505.7 228.77 514.01 229.77 517.12 230.58 522.47 227.06 Z" id="SLV-1353" data-name="San Vicente"/>
<path d="M 660.83 420.89 657.71 422.09 629.26 424.44 598.74 419.89 590.82 422.41 586.59 421 581.81 419.96 581.81 417.91 589.25 417.42 589.77 412.35 585.79 406.08 579.78 401.95 581.08 404.51 585.01 409.86 586.54 413.2 574.63 412.81 568.8 413.4 563.82 415.45 567 416.79 569.58 416.42 572.67 415.55 577.33 415.45 577.33 417.91 569.66 421 561.2 420.76 554.6 416.78 552.56 408.69 555.81 410.12 557.07 410.95 561.57 406.44 561.57 404.4 555.94 401.91 549.75 393.41 545.6 390.89 546.71 395.66 548.58 399.56 549.54 403.04 548.06 406.44 543.27 403.79 529.34 400.37 523.32 397.24 517.87 387.75 515.34 386.21 511.48 385.9 500.62 383.75 495.76 383.75 482.41 386.21 463.78 386.69 459.72 388.46 461.93 390.19 464.34 391.45 466.76 391.84 468.92 390.89 478.22 393.02 504.68 390.23 507.63 390.69 511.88 392.94 514.18 395.06 518.29 399.94 521.06 401.95 521.06 404.4 514.9 403.38 510.4 402.55 500.62 399.7 500.62 401.95 527.62 407.37 541.73 411.85 548.06 417.91 545.75 421.85 539.85 420.88 533.28 417.52 528.95 414.33 524.08 411.91 438.99 396.48 428.78 391.85 428.62 391.78 428.62 391.75 428.61 391.09 429.92 386.44 432.41 383.11 436.32 381.68 442.79 380.77 445.88 378.31 447.86 374.67 450.95 370.23 456.72 364.77 457.54 362.53 457.95 352.31 458.76 348.13 460.15 344.65 475.17 316.77 477.95 307.02 478.72 297.01 480.61 294.41 486.03 293.53 486.46 291.48 495.95 280.02 503.19 281.65 509.85 277.56 514.72 271 516.6 265.19 537.3 250.5 550.76 248.99 554.7 249.22 556.72 251.7 559.47 255.94 561.73 258.01 564.58 260.02 567.14 260.87 575.17 261.84 577.2 262.46 578.3 263.3 578.27 264.24 576.71 268.5 576.54 269.47 576.52 270.44 577.17 273.22 578.1 275.53 578.53 276.88 578.71 278.07 578.58 278.95 578.25 279.77 577.78 280.45 577.24 281.04 576.5 281.4 574.71 281.98 573.95 282.37 573.41 282.99 573.06 283.72 572.77 284.57 572.62 285.55 572.69 287.5 572.81 288.44 573.06 289.34 577.05 297.55 577.47 298.77 577.49 299.56 576.79 302.14 576.8 303.5 577.07 305.21 578.4 309.55 578.54 310.81 578.43 311.53 578.02 312.36 577.95 312.47 576.2 314.04 575.68 314.65 575.24 315.44 574.97 316.28 574.84 317.28 574.91 319.29 574.77 321.35 574.46 322.2 573.99 322.71 573.39 322.65 572.85 322.27 572.4 321.74 572.03 321.42 571.55 321.24 570.94 321.42 570.42 322.04 570.14 322.85 570.07 323.85 570.09 324.82 570.65 329.24 570.73 331.37 571.79 337.44 572.18 338.49 572.62 338.87 573.22 338.88 574.73 338.34 576.08 338.78 576.57 339.63 576.76 340.65 576.71 342.77 576.9 344.72 577.39 347.24 579.13 353.17 580.91 356.69 584.23 361.87 586.54 364.75 587.15 365.21 587.86 365.65 590.33 366.72 592.08 367.16 598.55 367.9 600.04 368.73 601.72 370.08 604.65 373.46 606 374.72 606.96 375.35 607.8 375.31 608.74 375.38 609.57 375.69 610.27 376.15 611.53 377.18 612.22 377.62 613.07 377.9 613.97 378.06 614.92 377.99 615.86 377.81 617.52 377.12 620.61 375.49 621.66 375.36 623.05 375.54 624.13 376.71 624.69 377.68 625.01 378.72 625.11 379.66 625.19 384.54 625.96 385.74 627.21 386.7 629.37 387.85 630.14 388.88 630.32 389.79 627.86 394.21 627.54 395.24 627.36 396.33 627.4 397.95 628.02 398.61 628.83 398.8 637.79 397.43 638.81 397.48 639.76 397.66 640.64 397.99 660.82 420.87 660.83 420.89 Z" id="SLV-1354" data-name="Usulután"/>
<path d="M 378.17 78.51 378.5 81.2 379.57 84.7 382.47 86.74 385.67 86.05 389.57 83.83 394.18 81.9 399.33 82 407.49 87.07 414.39 95.53 419.33 105.38 421.49 114.68 427.28 113.84 441.73 114.9 445.66 113.41 449.06 111.37 451.93 111.08 454.29 114.83 454.02 120.41 452.04 125.83 451.85 130.47 457.02 133.77 464.09 134.69 465.62 135.23 467.99 137.22 469.63 139.43 470.37 142.18 470.25 143.88 455.08 146.12 448.25 149.33 445.77 152.59 443.52 154.26 439.6 156.03 419.33 162.51 414.36 164.34 409.87 165.44 401.24 164.67 391.52 164.93 386.08 164.33 380.99 162.41 375.01 162.89 367.96 159.63 366.7 158.86 365.23 157.54 363.49 155.03 362.61 153.22 362.05 151.72 361.83 150.9 361.71 150.07 361.71 149.18 361.97 147.78 361.97 147.7 361.83 147.16 361.23 146.26 354 137.9 352.51 135.33 352 134.71 346.44 130.85 344.05 128.77 342.39 127.91 333.89 124.91 329.76 122.89 328.61 122.74 327.6 122.73 321.78 125.69 312.68 129.77 308.93 128.86 304.29 125.29 302.21 129.37 297.62 129.32 290.79 126.41 288.26 127.26 283.99 130.25 282.61 130.92 280.27 130.59 277.14 129.19 276.07 128.87 270.68 128.12 264.74 124.83 261.33 124.16 258.11 126.53 255.1 128.14 251.21 128.87 248.47 129.89 247.41 132.14 245.98 134.39 242.11 135.41 237.19 135.43 232.26 134.51 228.6 131.24 227.59 124.16 233.92 103.01 240.12 103.41 240.93 103.11 241.69 102.69 242.34 102.09 243.12 101.03 246.97 94.2 247.63 93.64 248.27 93.21 249.07 92.87 249.96 92.63 250.83 92.5 254.22 92.29 255.24 92.13 256.16 91.88 256.97 91.57 257.73 91.14 258.38 90.68 259.55 89.57 265.92 80.95 266.55 79.41 266.68 78.17 266.37 74.52 266.42 67.93 278.69 63.09 281.59 59.94 282.88 53.31 287.13 41.38 281.09 37.66 279.51 35.6 278.8 35.04 273.9 32.53 272.74 31.64 272 30.91 270.54 28.52 269.44 26.03 269.03 25.4 266.84 23.04 254.27 11.64 267.01 13.63 277.23 18.34 294.04 21.84 302.4 27.59 317.62 32 320.74 29.23 325.48 20.32 328.1 17.71 331.01 16.92 332.94 17.28 334.56 18.74 336.45 21.22 338.09 24.24 338.81 27.52 338.52 30.88 337.23 34.12 340.98 37.26 352.22 38.54 357.49 41.1 359.59 45.18 360.9 55.28 362.39 58.24 370.75 64.41 373.79 67.98 376.74 72.84 377.99 76.97 378.17 78.51 Z" id="SLV-1357" data-name="Chalatenango"/>
<path d="M 249.19 10.85 254.27 11.64 266.84 23.04 269.03 25.4 269.44 26.03 270.54 28.52 272 30.91 272.74 31.64 273.9 32.53 278.8 35.04 279.51 35.6 281.09 37.66 287.13 41.38 282.88 53.31 281.59 59.94 278.69 63.09 266.42 67.93 266.37 74.52 266.68 78.17 266.55 79.41 265.92 80.95 259.55 89.57 258.38 90.68 257.73 91.14 256.97 91.57 256.16 91.88 255.24 92.13 254.22 92.29 250.83 92.5 249.96 92.63 249.07 92.87 248.27 93.21 247.63 93.64 246.97 94.2 243.12 101.03 242.34 102.09 241.69 102.69 240.93 103.11 240.12 103.41 233.92 103.01 227.59 124.16 228.6 131.24 232.26 134.51 237.19 135.43 242.11 135.41 245.98 134.39 242.42 152.62 241.85 157.38 241.93 158.4 241.42 164.72 241.06 165.75 240.32 166.64 238.64 167.36 237.41 167.44 236.32 167.41 235.41 167.5 234.71 167.86 232.08 171.97 231 172.66 230.08 172.78 229.25 172.53 228.37 172.46 227.57 172.66 226.88 173.11 226.37 173.75 225.97 175.58 225.53 184.41 225.8 190.36 225.19 197.36 219.41 212.71 217.88 221.89 202.18 218.97 197.98 217.58 197.45 216.94 197 216.26 195.01 211.44 190.63 207.45 183.66 202.41 180.48 200.55 178.24 199.59 177.35 199.81 176.71 200.27 176.14 200.88 175.26 202.29 174.2 204.6 173.77 206.42 173.78 209.37 173.57 210.17 172.83 210.92 171.63 211.51 169.27 212.05 167.71 211.75 166.64 211.33 165.92 210.77 165.36 210.16 164.95 209.4 164.57 208.37 163.78 207.28 162.28 205.78 160.22 205.4 159.16 204.76 158.73 204.05 158.88 203.22 159.26 202.49 159.82 201.85 161.09 200.84 161.6 200.27 162.03 199.53 162.29 198.62 162.37 197.69 162.01 195.99 160.55 193.67 158.53 191.86 157.5 190.74 156.77 189.79 155.73 187.44 154.75 186.13 149.4 181.04 147.49 179.67 145.95 178.95 144.91 178.95 143.91 179.08 142.1 179.54 139.15 179.64 131.48 177.76 138.08 155.73 139.05 149.84 138.73 149.05 138.03 147.77 138 147.69 136.81 146.5 135.47 145.49 134.28 144.36 133.79 143.65 133.45 142.85 132.75 140.18 132.35 139.46 131.78 138.77 130.58 137.77 124.62 134.1 121.86 132.97 119.74 128.19 119.41 125.66 120.35 122.97 134.43 98.76 141.03 91.74 149.34 85.53 158.01 81.68 193.4 73.43 195.52 71.39 195.47 66.25 194.41 64.9 190.23 62.88 188.79 61.49 188.18 59.34 187.58 54.31 187.16 52.77 185.24 49.23 184.29 47.98 182.38 46.22 180.11 45.23 173.22 44.35 171.18 39.68 173.13 36.91 176.44 34.62 178.52 31.4 177.57 27.56 175.16 24.3 173.74 20.58 175.89 15.36 180.57 11.99 185.41 12.38 189.01 15.93 189.97 22.04 194.44 18.9 202.59 9.34 204.86 8.41 208.44 6.93 213.67 7.59 217.39 9.5 221.11 10.83 226.3 9.79 233.79 2.27 237.14 1 237.58 7.37 239.28 4.84 239.64 4.09 249.19 10.85 Z" id="SLV-1358" data-name="Santa Ana"/>
</g>
</svg>