<?xml version="1.0"?>
<svg xmlns="http://www.w3.org/2000/svg" version="1.2" baseProfile="tiny" width="800" height="650" viewBox="0 0 800 650" stroke-linecap="round" stroke-linejoin="round">
<g id="ne_10m_admin_1_states_provinces">
<path d="M 198.43 272.47 203.11 285.35 212.48 290.03 208.97 297.05 201.94 304.08 203.11 312.27 212.48 319.29 217.16 327.49 219.5 338.02 205.46 331 190.24 331 180.87 327.49 171.51 328.66 156.29 333.34 148.1 327.49 142.24 316.95 137.56 309.93 127.03 307.59 116.49 312.27 105.95 308.76 91.91 306.42 81.37 302.91 74.35 297.05 77.86 288.86 53.28 287.69 37.14 279.46 36.25 277.83 32.71 273.13 6.59 254.69 6.19 254.41 1 247.36 1.8 238.33 5.53 234.58 15.1 228.9 19.4 226.34 24.54 224.53 40.87 227.68 57.95 235.29 73.43 238.65 84.84 229.16 85.55 224.74 84.84 220.58 85.22 216.19 89.04 211.15 92.91 209.31 110.42 204.52 135.41 201.38 141.07 211.6 141.07 223.3 141.07 236.18 141.07 247.89 146.93 254.91 158.63 263.11 173.85 268.96 189.07 268.96 198.43 272.47 Z" id="KOS-5886" data-name="Peć"/>
<path d="M 277.63 201.87 284.24 217.82 282.16 229.23 278.95 236.69 273.57 248.01 274.42 259.34 262.81 259.59 249.94 263.11 242.91 270.13 227.7 272.47 212.48 268.96 198.43 272.47 189.07 268.96 173.85 268.96 158.63 263.11 146.93 254.91 141.07 247.89 141.07 236.18 141.07 223.3 141.07 211.6 135.41 201.38 147.36 199.87 185.11 193.85 207.14 187.05 217.43 176.85 215.39 172.47 220.64 172.9 247.25 174.79 259.99 180.64 269.89 189.88 277.63 201.87 Z" id="KOS-5887" data-name="Istok"/>
<path d="M 336.28 299.41 316.66 321.64 301.44 321.64 271.4 338.6 248.95 344.36 236.68 348.42 219.5 338.02 217.16 327.49 212.48 319.29 203.11 312.27 201.94 304.08 208.97 297.05 212.48 290.03 203.11 285.35 198.43 272.47 212.48 268.96 227.7 272.47 242.91 270.13 249.94 263.11 262.81 259.59 274.42 259.34 285.09 269.62 294.05 273.68 301.98 275 307.64 284.25 310.47 294.63 325.76 299.35 336.28 299.41 Z" id="KOS-5888" data-name="Klina"/>
<path d="M 190.24 331 182.04 340.36 168 345.05 164.48 357.92 159.8 366.12 148.1 369.63 138.73 367.29 129.37 377.82 108.3 373.14 83.71 364.95 76.69 350.9 59.41 352.37 59.41 352.36 59.36 352.27 59.36 352.23 59.27 352.23 51.58 344.96 28.79 335.65 19.35 328.01 24.87 322.01 25.39 316.07 24.12 309.66 24.26 302.3 25.87 298.57 31.06 291.22 37.14 279.46 53.28 287.69 77.86 288.86 74.35 297.05 81.37 302.91 91.91 306.42 105.95 308.76 116.49 312.27 127.03 307.59 137.56 309.93 142.24 316.95 148.1 327.49 156.29 333.34 171.51 328.66 180.87 327.49 190.24 331 Z" id="KOS-5889" data-name="Dečani"/>
<path d="M 219.5 338.02 236.68 348.42 225.64 353.7 220.82 363.52 222.71 375.97 222.33 390.69 222.24 404.94 232.9 416.36 247.25 424 254.8 427.68 262.72 432.87 254.8 442.03 234.32 449.29 224.6 454.86 205.96 469.35 205.94 469.37 198.32 463.26 141.89 432.5 134.86 431.61 103.67 432.17 98.24 431.57 94.52 428.46 90.55 420.98 89.89 417.74 90.69 411.57 89.61 408.04 86.97 405.27 79.84 400.74 77.72 397.89 78.29 394.96 83 389.61 83.15 385.83 80.88 382.32 74.75 377.92 72.25 375.34 59.41 352.37 76.69 350.9 83.71 364.95 108.3 373.14 129.37 377.82 138.73 367.29 148.1 369.63 159.8 366.12 164.48 357.92 168 345.05 182.04 340.36 190.24 331 205.46 331 219.5 338.02 Z" id="KOS-5890" data-name="Đakovica"/>
<path d="M 316.66 403.58 314.32 412.94 311.98 428.16 306.13 438.7 297.93 437.52 293.25 432.84 287.4 429.33 280.37 437.52 273.35 446.89 265.16 445.72 254.8 442.03 262.72 432.87 254.8 427.68 247.25 424 232.9 416.36 222.24 404.94 222.33 390.69 222.71 375.97 220.82 363.52 225.64 353.7 236.68 348.42 251.11 359.09 260.47 361.44 274.52 360.27 285.06 360.27 292.08 368.46 289.74 378.99 296.76 393.04 307.3 398.89 316.66 403.58 Z" id="KOS-5891" data-name="Orahovac"/>
<path d="M 361.15 134.34 372.85 143.7 386.9 149.56 385.73 162.43 381.05 171.8 369.34 169.46 350.61 168.29 341.25 161.26 328.37 146.05 319 137.85 322.52 130.83 313.15 123.8 294.42 114.44 271.5 110.99 283.62 97.24 301.44 100.39 310.81 108.59 329.54 108.59 343.59 114.44 354.12 120.29 357.63 128.49 361.15 134.34 Z" id="KOS-5892" data-name="Zvečan"/>
<path d="M 359.35 2.58 363.79 3.58 372.47 8.86 377.05 12.38 380.07 15.44 384.45 21.88 383.04 21.8 378.41 20.75 373.18 24.27 373.46 26.61 372.75 33.24 371.38 39.18 369.54 39.56 372.52 43.28 406.27 57.73 443.22 73.55 440.51 81.93 440.41 90.52 444.28 96.27 431.38 96.88 427.87 103.9 417.33 109.76 411.48 115.61 400.95 116.78 390.41 113.27 381.05 127.32 361.15 134.34 357.63 128.49 354.12 120.29 343.59 114.44 329.54 108.59 310.81 108.59 301.44 100.39 283.62 97.24 293.25 82.11 295.18 70.97 291.83 68.16 287.21 68 282.3 68.47 278.25 67.56 275.51 64.61 273.01 60.23 269.14 50.36 263.67 41.74 262.49 36.66 265.46 30.73 269.23 28.76 284.1 28.28 294.19 25.38 329.96 5.66 341 2.01 352.37 1 359.35 2.58 Z" id="KOS-5893" data-name="Leposavić"/>
<path d="M 471.65 156.38 459.48 154.24 447.77 156.58 433.72 151.9 426.7 154.24 431.38 163.6 426.7 174.14 416.16 172.97 407.97 177.65 406.8 191.7 406.8 198.72 396.26 198.72 384.56 201.06 370.51 209.26 355.29 208.09 345.93 208.09 329.54 198.72 320.17 188.19 329.54 183.5 338.9 182.33 350.61 168.29 369.34 169.46 381.05 171.8 385.73 162.43 386.9 149.56 372.85 143.7 361.15 134.34 381.05 127.32 390.41 113.27 400.95 116.78 411.48 115.61 417.33 109.76 427.87 103.9 431.38 96.88 444.28 96.27 450.32 100.52 458.62 109.86 472.87 131.76 477.5 149.12 471.65 156.38 Z" id="KOS-5894" data-name="Kosovska Mitrovica"/>
<path d="M 471.65 156.38 469.19 166.48 471.36 178.47 475.23 185.35 484.76 193.56 490.33 203.47 490.69 214.8 479.76 219.33 471.93 232.35 466.93 244.24 465.89 250.94 454.1 259.34 432.86 265.19 422.39 260.85 412.39 253.11 400.95 242.03 392.75 239.69 382.22 240.86 376.36 239.69 377.53 229.16 378.7 219.79 370.51 209.26 384.56 201.06 396.26 198.72 406.8 198.72 406.8 191.7 407.97 177.65 416.16 172.97 426.7 174.14 431.38 163.6 426.7 154.24 433.72 151.9 447.77 156.58 459.48 154.24 471.65 156.38 Z" id="KOS-5895" data-name="Vučitrn"/>
<path d="M 329.54 198.72 345.93 208.09 355.29 208.09 370.51 209.26 378.7 219.79 377.53 229.16 376.36 239.69 382.22 240.86 392.75 239.69 400.95 242.03 412.39 253.11 405.32 256.7 395.87 258.2 389.93 260.85 383.32 267.18 365.01 259.34 359.45 264.81 358.98 269.15 355.58 274.44 347.65 279.72 338.21 293.5 336.28 299.41 325.76 299.35 310.47 294.63 307.64 284.25 301.98 275 294.05 273.68 285.09 269.62 274.42 259.34 273.57 248.01 278.95 236.69 282.16 229.23 284.24 217.82 277.63 201.87 286.23 192.87 293.25 191.7 303.79 192.87 313.15 204.58 321.34 213.94 328.37 215.11 329.54 198.72 Z" id="KOS-5896" data-name="Srbica"/>
<path d="M 350.61 168.29 338.9 182.33 329.54 183.5 320.17 188.19 329.54 198.72 328.37 215.11 321.34 213.94 313.15 204.58 303.79 192.87 293.25 191.7 286.23 192.87 277.63 201.87 269.89 189.88 259.99 180.64 247.25 174.79 220.64 172.9 215.39 172.47 212.9 167.12 202.75 162.41 195.58 156.69 199.45 143.92 207.19 136.45 214.97 134.7 223.04 134.7 231.86 132.44 235.5 129.93 238 126.92 242.34 119.91 246.44 116.76 251.21 116.83 256.45 117.94 261.97 117.86 271.5 110.99 294.42 114.44 313.15 123.8 322.52 130.83 319 137.85 328.37 146.05 341.25 161.26 350.61 168.29 Z" id="KOS-5897" data-name="Zubin Potok"/>
<path d="M 484.06 315.78 471.18 319.29 455.96 316.95 445.43 320.46 434.89 319.29 430.21 313.44 420.85 307.59 427.87 301.74 432.55 292.37 438.4 290.03 438.4 283.01 445.43 280.66 455.96 287.69 470.01 287.69 479.38 286.52 492.25 279.49 494.59 292.37 498.11 298.22 492.25 306.42 484.06 315.78 Z" id="KOS-5898" data-name="Kosovo Polje"/>
<path d="M 432.86 265.19 419.68 270.13 419.68 277.15 423.19 286.52 432.55 292.37 427.87 301.74 420.85 307.59 430.21 313.44 434.89 319.29 423.19 327.49 420.85 335.68 411.48 340.36 400.95 340.36 392.75 347.39 382.38 350.68 378.73 341.29 375.38 335.84 367.28 345.4 353.03 340.87 348.36 339.03 350.95 334.17 351.43 319.73 349.07 311.05 348.41 304.63 343.59 299.44 336.28 299.41 338.21 293.5 347.65 279.72 355.58 274.44 358.98 269.15 359.45 264.81 365.01 259.34 383.32 267.18 389.93 260.85 395.87 258.2 405.32 256.7 412.39 253.11 422.39 260.85 432.86 265.19 Z" id="KOS-5899" data-name="Glogovac"/>
<path d="M 496.94 229.16 486.4 238.52 485.23 249.06 491.08 259.59 494.59 267.79 492.25 279.49 479.38 286.52 470.01 287.69 455.96 287.69 445.43 280.66 438.4 283.01 438.4 290.03 432.55 292.37 423.19 286.52 419.68 277.15 419.68 270.13 432.86 265.19 454.1 259.34 465.89 250.94 466.93 244.24 471.93 232.35 479.76 219.33 490.69 214.8 493.42 220.96 496.94 229.16 Z" id="KOS-5900" data-name="Obilić"/>
<path d="M 632.67 193.34 632.63 202.93 630.7 210.59 624.52 225.91 622.96 232.96 609.31 232.67 601.12 225.65 591.75 219.79 584.73 210.43 567.17 216.28 553.12 219.79 548.44 226.82 540.25 227.99 534.39 232.67 526.2 229.16 521.52 222.13 515.66 217.45 510.98 224.48 505.13 229.16 496.94 229.16 493.42 220.96 490.69 214.8 490.33 203.47 484.76 193.56 475.23 185.35 471.36 178.47 469.19 166.48 471.65 156.38 477.5 149.12 472.87 131.76 458.62 109.86 450.32 100.52 444.28 96.27 440.41 90.52 440.51 81.93 443.22 73.55 448.57 75.84 458.01 78.47 488.49 79.7 495.76 83.86 502.83 94.49 509.82 118.44 513.73 124.47 521.71 127.9 528.12 125.4 534.35 122.06 542 122.98 549.07 133.17 549.73 147.34 552.33 161.77 565.16 172.89 570.21 173.92 580.87 173.88 586.06 174.76 590.92 176.97 599.79 182.51 604.51 184.62 619.14 187.16 628.34 187.49 632.68 190.95 632.67 193.34 Z" id="KOS-5901" data-name="Podujevo"/>
<path d="M 622.96 232.96 621.5 235.24 619.33 236.59 619.09 237.9 623.67 240.23 631.36 241.94 636.95 241.81 647.92 241.57 665.13 243.33 654.1 260.89 644.34 260.85 628.44 261.42 632.1 269.8 645.72 277.13 651.22 284.72 646.24 291.27 639.75 295.88 622.68 296.51 613.25 296.51 604.51 303.69 595.27 312.18 581.22 306.42 568.34 301.74 553.12 299.39 546.1 301.74 546.1 312.27 546.1 321.64 534.39 325.15 519.18 322.81 510.98 319.29 498.11 323.98 491.08 318.12 484.06 315.78 492.25 306.42 498.11 298.22 494.59 292.37 492.25 279.49 494.59 267.79 491.08 259.59 485.23 249.06 486.4 238.52 496.94 229.16 505.13 229.16 510.98 224.48 515.66 217.45 521.52 222.13 526.2 229.16 534.39 232.67 540.25 227.99 548.44 226.82 553.12 219.79 567.17 216.28 584.73 210.43 591.75 219.79 601.12 225.65 609.31 232.67 622.96 232.96 Z" id="KOS-5902" data-name="Priština"/>
<path d="M 595.27 312.18 586.02 316.71 580.17 323.51 570.97 332.07 569.3 339.19 574.74 347.57 578.93 355.95 576.02 363.33 563.02 364.32 560.15 373.14 539.08 373.14 518.01 374.31 500.45 371.97 489.91 371.97 478.21 366.12 471.18 370.8 455.96 369.63 439.58 366.12 426.7 364.95 413.82 363.78 397.43 370.8 390.34 363.32 378.7 361.44 382.38 350.68 392.75 347.39 400.95 340.36 411.48 340.36 420.85 335.68 423.19 327.49 434.89 319.29 445.43 320.46 455.96 316.95 471.18 319.29 484.06 315.78 491.08 318.12 498.11 323.98 510.98 319.29 519.18 322.81 534.39 325.15 546.1 321.64 546.1 312.27 546.1 301.74 553.12 299.39 568.34 301.74 581.22 306.42 595.27 312.18 Z" id="KOS-5903" data-name="Lipljan"/>
<path d="M 658.48 322.81 667.84 335.68 678.38 343.88 688.91 354.41 685.4 364.95 704.82 368.96 718.52 372.45 728.79 372.53 727.85 379.52 730.11 394.02 728.08 401.11 718.6 407.75 691.52 413.9 681.8 421.52 681.28 432.52 699.07 452.54 703.73 465.18 702.7 464.78 683.54 468.5 674.15 468.66 666.04 464.5 669.01 450.4 663.16 438.7 657.31 431.67 652.62 423.48 647.94 414.11 632.72 411.77 623.22 400.7 615.17 394.21 606.97 390.7 602.29 382.51 585.83 387.96 571.85 394.21 560.15 373.14 563.02 364.32 576.02 363.33 578.93 355.95 574.74 347.57 569.3 339.19 570.97 332.07 580.17 323.51 592.92 327.49 603.46 325.15 612.82 332.17 621.02 336.85 631.55 332.17 629.21 321.64 638.58 318.12 646.77 322.81 658.48 322.81 Z" id="KOS-5904" data-name="Gnjilane"/>
<path d="M 666.04 464.5 661.69 468.45 659.67 470.28 654.95 469.41 650.71 466.16 645.42 464.91 637.92 468.03 638.63 472 641.93 476.01 642.45 479.08 637.54 479.46 621.64 474.93 613.67 475.42 610.84 477.13 610.74 476.96 598.2 468.61 586.05 467.77 570.14 463.59 558.41 451.86 559.67 444.32 567.62 434.27 565.95 430.08 557.81 432.84 551.71 427.15 551.71 417.93 577.26 415.84 571.85 394.21 585.83 387.96 602.29 382.51 606.97 390.7 615.17 394.21 623.22 400.7 632.72 411.77 647.94 414.11 652.62 423.48 657.31 431.67 663.16 438.7 669.01 450.4 666.04 464.5 Z" id="KOS-5905" data-name="Vitina"/>
<path d="M 658.48 322.81 646.77 322.81 638.58 318.12 629.21 321.64 631.55 332.17 621.02 336.85 612.82 332.17 603.46 325.15 592.92 327.49 580.17 323.51 586.02 316.71 595.27 312.18 604.51 303.69 613.25 296.51 622.68 296.51 639.75 295.88 652.62 301.74 659.65 305.25 665.5 314.61 658.48 322.81 Z" id="KOS-5906" data-name="Novo Brdo"/>
<path d="M 785.99 267.45 795.18 271.92 799 282.02 796.41 286.03 791.59 288.35 786.12 290.17 781.64 292.64 782.01 293.99 779.51 303.24 778.95 304.48 778.1 305.35 774.98 306.5 774.13 307.81 774.8 309.79 778 313.77 778.43 315.51 773.85 326.01 751.11 353.88 732.85 367.44 728.79 372.53 718.52 372.45 704.82 368.96 685.4 364.95 688.91 354.41 678.38 343.88 667.84 335.68 658.48 322.81 665.5 314.61 659.65 305.25 652.62 301.74 639.75 295.88 646.24 291.27 651.22 284.72 645.72 277.13 632.1 269.8 628.44 261.42 644.34 260.85 654.1 260.89 665.13 243.33 693.88 246.27 704.26 248.84 711.24 253.39 725.91 267 733.56 270.74 740.26 270.7 760.03 264.07 769.84 263.9 783.43 266.2 785.99 267.45 Z" id="KOS-5907" data-name="Kosovska Kamenica"/>
<path d="M 380.49 471.47 377.47 477.13 376.34 484.68 380.96 491.63 394.69 495.32 407.42 496.32 415.47 498 424.51 502.02 432.96 509.59 434.82 515.96 434.87 516.14 402.47 524.36 359.73 535.19 348.03 540.17 345.93 527.66 340.07 519.47 330.71 520.64 317.83 519.47 303.79 515.95 286.23 517.13 269.84 520.64 255.79 531.17 241.77 543.93 241.68 529.32 240.5 521.25 235.59 509.09 218.32 481.19 209.59 472.3 205.94 469.37 205.96 469.35 224.6 454.86 234.32 449.29 254.8 442.03 265.16 445.72 273.35 446.89 280.37 437.52 287.4 429.33 293.25 432.84 297.93 437.52 306.13 438.7 311.98 428.16 322.52 429.33 328.37 438.7 334.22 444.55 336.56 451.57 350.61 458.6 367 458.6 378.7 459.77 380.49 471.47 Z" id="KOS-5908" data-name="Prizren"/>
<path d="M 348.03 540.17 339.11 548.25 334.53 558.09 328.92 580.59 328.35 590.96 332.75 604.85 334.11 609.16 332.57 618.6 332.32 620.17 327.5 628.73 319.91 638.51 315.84 641.91 310.61 646.28 300.8 648.83 296.41 646.41 287.73 637.29 283.44 635.3 280.51 636.8 275.56 643.72 272.16 645.86 264.7 646.15 259.18 643.93 248.61 635.51 248.9 632.16 246.59 626.54 246.49 623.22 248.66 617.71 251.45 615.2 254.75 613.35 258.48 609.76 263.29 601.41 263.29 595.62 261.02 589.62 258.9 580.52 244.56 552.46 241.77 543.93 255.79 531.17 269.84 520.64 286.23 517.13 303.79 515.95 317.83 519.47 330.71 520.64 340.07 519.47 345.93 527.66 348.03 540.17 Z" id="KOS-5909" data-name="Dragaš"/>
<path d="M 397.43 370.8 403.74 377.39 417.14 382.41 424.18 391.12 417.48 399.5 418.82 405.87 415.13 410.89 422.02 415.28 427.86 423.62 429.2 430.99 428.53 438.03 430.54 444.39 429.87 450.09 429.18 456.37 413.71 459.77 407.67 464.68 402.76 468.45 393.7 471.09 385.77 472.23 380.49 471.47 378.7 459.77 367 458.6 350.61 458.6 336.56 451.57 334.22 444.55 328.37 438.7 322.52 429.33 311.98 428.16 314.32 412.94 316.66 403.58 335.39 402.41 335.39 393.04 344.76 387.19 354.12 386.02 362.32 388.36 374.02 383.68 386.9 384.85 384.56 374.31 378.7 366.12 378.7 361.44 390.34 363.32 397.43 370.8 Z" id="KOS-5910" data-name="Suva Reka"/>
<path d="M 382.38 350.68 378.7 361.44 378.7 366.12 384.56 374.31 386.9 384.85 374.02 383.68 362.32 388.36 354.12 386.02 344.76 387.19 335.39 393.04 335.39 402.41 316.66 403.58 307.3 398.89 296.76 393.04 289.74 378.99 292.08 368.46 285.06 360.27 274.52 360.27 260.47 361.44 251.11 359.09 236.68 348.42 248.95 344.36 271.4 338.6 301.44 321.64 316.66 321.64 336.28 299.41 343.59 299.44 348.41 304.63 349.07 311.05 351.43 319.73 350.95 334.17 348.36 339.03 353.03 340.87 367.28 345.4 375.38 335.84 378.73 341.29 382.38 350.68 Z" id="KOS-5911" data-name="Mališevo"/>
<path d="M 489.91 371.97 487.57 381.34 479.38 388.36 472.35 393.04 471.18 402.41 467.67 409.43 454.79 410.6 433.05 412.68 422.02 415.28 415.13 410.89 418.82 405.87 417.48 399.5 424.18 391.12 417.14 382.41 403.74 377.39 397.43 370.8 413.82 363.78 426.7 364.95 439.58 366.12 455.96 369.63 471.18 370.8 478.21 366.12 489.91 371.97 Z" id="KOS-5912" data-name="Štimlje"/>
<path d="M 560.15 373.14 571.85 394.21 577.26 415.84 551.71 417.93 551.71 427.15 557.81 432.84 544.93 435.18 535.56 439.87 532.05 450.4 523.86 450.4 514.49 453.91 508.64 451.57 496.94 451.57 486.4 449.23 481.72 443.38 473.52 439.87 468.84 432.84 460.65 432.84 460.65 442.21 461.82 449.23 455.96 449.23 447.77 444.55 436.73 442.03 430.54 444.39 428.53 438.03 429.2 430.99 427.86 423.62 422.02 415.28 433.05 412.68 454.79 410.6 467.67 409.43 471.18 402.41 472.35 393.04 479.38 388.36 487.57 381.34 489.91 371.97 500.45 371.97 518.01 374.31 539.08 373.14 560.15 373.14 Z" id="KOS-5913" data-name="Uroševac"/>
<path d="M 496.94 451.57 502.79 460.94 502.79 464.45 495.76 469.13 488.74 471.47 488.74 478.5 491.18 488.16 480.19 493.41 464.91 504.59 459.57 508.5 448.01 512.81 434.87 516.14 434.82 515.96 432.96 509.59 424.51 502.02 415.47 498 407.42 496.32 394.69 495.32 380.96 491.63 376.34 484.68 377.47 477.13 380.49 471.47 385.77 472.23 393.7 471.09 402.76 468.45 407.67 464.68 413.71 459.77 429.18 456.37 429.87 450.09 430.54 444.39 436.73 442.03 447.77 444.55 455.96 449.23 461.82 449.23 460.65 442.21 460.65 432.84 468.84 432.84 473.52 439.87 481.72 443.38 486.4 449.23 496.94 451.57 Z" id="KOS-5914" data-name="Štrpce"/>
<path d="M 610.84 477.13 607.72 479.02 580.87 509.61 580.31 513.63 581.25 516.08 582.62 518.53 583.33 522.43 583.75 531.69 583.54 532.68 582.86 535.89 578.09 536.66 558.4 533.71 554.78 533.17 550.9 530.22 549.12 528.87 544.92 522.31 537.47 513.18 521.28 501.36 503.92 491.37 497.79 488.87 494.72 488.23 491.18 488.16 488.74 478.5 488.74 471.47 495.76 469.13 502.79 464.45 502.79 460.94 496.94 451.57 508.64 451.57 514.49 453.91 523.86 450.4 532.05 450.4 535.56 439.87 544.93 435.18 557.81 432.84 565.95 430.08 567.62 434.27 559.67 444.32 558.41 451.86 570.14 463.59 586.05 467.77 598.2 468.61 610.74 476.96 610.84 477.13 Z" id="KOS-5915" data-name="Kačanik"/>
</g>
</svg>