<?xml version="1.0"?>
<svg xmlns="http://www.w3.org/2000/svg" version="1.2" baseProfile="tiny" width="800" height="1623" viewBox="0 0 800 1623" stroke-linecap="round" stroke-linejoin="round">
<g id="ne_10m_admin_1_states_provinces">
<path d="M 400.47 895.02 390.24 971.74 359.56 1002.42 277.73 981.96 221.48 889.91 154.99 843.88 93.62 828.54 48.49 828.89 56.46 795.02 78.71 738.23 176.34 600.75 212.87 509.09 282.85 531.92 354.45 547.26 385.13 598.4 395.36 680.23 400.47 767.17 400.47 818.31 400.47 895.02 Z" id="LCA-5076" data-name="Anse-la-Raye"/>
<path d="M 584.26 384.26 579.47 419.4 564.13 542.14 538.56 644.43 497.64 751.83 482.3 864.34 482.3 951.28 436.27 935.94 400.47 895.02 400.47 818.31 400.47 767.17 395.36 680.23 385.13 598.4 354.45 547.26 282.85 531.92 212.87 509.09 312.16 363.14 333.42 346.7 373.27 324.78 393.52 305.19 403.15 279.95 461.84 317.12 492.53 368.26 584.26 384.26 Z" id="LCA-5077" data-name="Castries"/>
<path d="M 399.18 1148.01 379.94 1160.11 367.03 1194.55 316.81 1306.48 272.32 1392.57 244.2 1452.24 124.87 1407.05 56.46 1327.02 43.51 1305.6 119.19 1247.9 216.36 1201.87 354.45 1150.73 396.59 1127.74 399.18 1148.01 Z" id="LCA-5078" data-name="Choiseul"/>
<path d="M 799 536.65 722.67 526.8 645.95 531.92 564.13 542.14 579.47 419.4 584.26 384.26 594.81 306.89 615.27 240.41 666.41 194.38 725.28 158.08 758.15 193.61 769.44 244.42 783.39 416.44 799 536.65 Z" id="LCA-5079" data-name="Dauphin"/>
<path d="M 799 536.65 798.67 643.58 769.37 831.04 702.21 843.88 640.84 874.57 569.24 848.99 482.3 864.34 497.64 751.83 538.56 644.43 564.13 542.14 645.95 531.92 722.67 526.8 799 536.65 Z" id="LCA-5080" data-name="Dennery"/>
<path d="M 725.28 158.08 666.41 194.38 615.27 240.41 594.81 306.89 584.26 384.26 492.53 368.26 461.84 317.12 403.15 279.95 419.09 207.89 435.37 179.66 535.16 40.19 592.94 1 671.81 26.24 653.55 96.64 680.78 133.17 725.28 158.08 Z" id="LCA-5081" data-name="Gros Islet"/>
<path d="M 455.72 1556.72 430.05 1522.61 244.2 1452.24 272.32 1392.57 316.81 1306.48 367.03 1194.55 379.94 1160.11 399.18 1148.01 401.47 1165.85 415.82 1218.95 443.08 1310.78 468.91 1372.48 473.21 1455.71 474.65 1511.67 455.72 1556.72 Z" id="LCA-5082" data-name="Laborie"/>
<path d="M 761.31 1138.22 710.67 1337.97 699.71 1366.2 687.42 1371.18 655.87 1379.79 610.15 1319.5 559.01 1263.24 477.19 1176.3 422.53 1113.6 466.96 1089.36 553.9 1109.82 666.41 1140.5 761.31 1138.22 Z" id="LCA-5083" data-name="Micoud"/>
<path d="M 761.31 1138.22 666.41 1140.5 553.9 1109.82 466.96 1089.36 482.3 992.19 482.3 951.28 482.3 864.34 569.24 848.99 640.84 874.57 702.21 843.88 769.37 831.04 749.52 958.07 761.31 1138.22 Z" id="LCA-5084" data-name="Praslin"/>
<path d="M 400.47 895.02 436.27 935.94 482.3 951.28 482.3 992.19 466.96 1089.36 422.53 1113.6 396.59 1127.74 354.45 1150.73 216.36 1201.87 119.19 1247.9 43.51 1305.6 18.6 1278.86 2.66 1247.98 31.05 1184.05 35.54 1142.71 31.05 1062.34 24.58 1036.11 12.96 1015.52 2.66 989.62 1 948.11 11.63 904.94 48.49 828.89 93.62 828.54 154.99 843.88 221.48 889.91 277.73 981.96 359.56 1002.42 390.24 971.74 400.47 895.02 Z" id="LCA-5085" data-name="Soufrière"/>
<path d="M 655.87 1379.79 636.28 1385.13 618.84 1396.42 599.92 1435.61 563.05 1591.52 537.65 1615.26 525.03 1621.91 504.77 1621.91 455.72 1556.72 474.65 1511.67 473.21 1455.71 468.91 1372.48 443.08 1310.78 415.82 1218.95 401.47 1165.85 399.18 1148.01 396.59 1127.74 422.53 1113.6 477.19 1176.3 559.01 1263.24 610.15 1319.5 655.87 1379.79 Z" id="LCA-5086" data-name="Vieux Fort"/>
</g>
</svg>