<?xml version="1.0"?>
<svg xmlns="http://www.w3.org/2000/svg" version="1.2" baseProfile="tiny" width="800" height="277" viewBox="0 0 800 277" stroke-linecap="round" stroke-linejoin="round">
<g id="ne_10m_admin_1_states_provinces">
<path d="M 69.4 182.78 71.13 185.78 72.38 190.48 72.46 191.52 72.25 194.43 70.69 197.03 66.63 201.23 65.56 203.18 64.34 207.36 64.15 209 64.26 210.26 64.59 211.72 64.64 212.84 64.36 214.67 63.7 215.96 62.56 217.04 61.27 217.82 59.93 218.98 59.59 219.87 59.83 220.9 62.2 223.57 64.09 226.98 64.18 227.26 64.2 227.31 62.74 227.27 58.22 226.28 55.87 225.34 51.82 222.7 40.63 220.23 38.04 218.87 36.71 217.58 36.53 216.59 36.87 215.47 37.13 213.01 37.56 212.01 37.56 211.4 37.16 211.07 36.51 211.11 36.07 210.85 36.24 209.65 16.47 205.39 14.72 205.21 9.24 205.68 7.28 205.32 8.02 204.69 9.79 203.16 10.17 202.82 10.89 200.1 10.73 199.69 10.24 198.47 9.83 197.44 7.35 195.07 5.81 194.45 4.23 193.81 4.22 192.91 5.26 191.33 5.37 190.59 4.47 189.13 3.48 188.22 3.01 187.3 3.3 186.71 3.71 185.85 2.36 184.99 1.95 184.74 1 183.78 4.36 179.9 7.93 176.98 8.33 176.26 8.87 174.41 9.36 173.48 13.41 170 14.43 168.41 14.52 163.97 11.52 162.18 7.63 160.98 4.54 157.82 4.34 157.19 3.75 155.35 4.01 155.45 4.45 155.54 10.57 156.67 17.27 156.59 20.13 155.67 21.64 154.07 22.94 152.17 25.22 150.38 26.74 149.83 28.3 149.71 29.79 150.07 31.01 150.98 31.35 152.21 31.15 153.49 31.55 154.59 33.68 155.34 34.52 155.3 35.81 154.73 36.34 154.64 39.48 155.43 42.6 155.59 44.18 155.38 45.44 154.7 45.73 156.43 46.83 157.4 48.14 158.29 49.09 159.7 49.09 160.02 49.12 160.34 49.28 160.95 50.43 161.41 51.35 161.14 52.28 160.59 53.47 160.22 58.61 165.33 59.53 166.56 59.05 167.66 56.67 168.92 57.81 169.82 58.09 170.91 58.19 172.04 58.75 173.04 59.77 173.71 60.47 173.68 61.27 173.28 62.65 172.84 63.17 172.88 64.25 173.33 64.79 173.33 65.23 173.1 66.47 172.16 71.07 171.6 73 172.3 72.92 174.19 71.03 178.06 71.27 178.74 71.32 179.37 71.06 180.07 70.55 180.41 69.17 180.69 68.75 180.89 67.78 182.07 67.36 182.72 67.83 182.91 69.4 182.78 Z" id="AUT-2320" data-name="Vorarlberg"/>
<path d="M 799 106.08 792.44 109.77 793.54 110.63 793.5 111.28 792.99 111.93 792.7 112.83 792.49 113.01 791.52 113.45 791.24 113.75 791.34 114.21 791.86 114.42 792.41 114.54 792.63 114.74 792.2 116.61 791.59 117.98 790.55 119.03 788.84 119.95 785.21 120.49 783.9 120.95 783.94 122.09 784.6 122.56 786.79 123.25 787.61 123.66 788.62 125.62 789.3 126.28 787.73 127.46 787.87 129.26 788.58 131.38 788.77 134.79 789.29 135.85 790.18 136.65 791.37 137.15 789.21 137.82 781.59 138.51 773.3 139.92 769.33 139.42 767.8 136.68 766.42 137.48 764.36 139.68 763.21 140.45 762.29 140.6 756.4 139.98 755.27 139.51 754.1 138.69 753.85 138.35 753.3 137.61 752.91 136.51 752.35 135.57 751.03 134.94 742.65 132.74 738.26 132.37 734.42 133.54 733.8 134.55 733.98 135.93 733.41 136.83 732.52 137.41 728.35 138.9 727.1 139.65 726.41 139.94 725.92 139.88 725.4 139.55 724.8 139.03 724.03 139.56 722.44 141.3 721.52 142.08 723.41 142.82 729.28 144.42 732.17 143.99 737.21 145.38 739.06 145.89 742.51 145.49 744.79 146.2 746.62 147.86 747.51 149.97 746.92 152 748.7 152.67 750.15 153.67 750.96 154.98 750.84 156.59 749.72 157.93 746.67 158.8 745.48 159.67 745.91 163.89 744.45 164.66 740.52 166.74 729.28 170.23 728.02 168.85 726.63 168.19 725.32 168.43 724.26 169.75 724.52 173.77 724.29 174.07 723.77 174.26 723.32 174.54 723.25 175.16 723.54 175.56 724.02 175.73 724.49 175.85 724.77 176.06 727.95 180.59 728.37 182.31 727.68 183.71 726.19 184.64 722.94 185.84 722.94 185.84 722.94 185.85 723.28 187.67 721.67 189.96 722.04 191.69 722.67 192.06 723.5 192.01 724.38 192.07 725.08 192.74 725.11 193.66 724.26 195.45 724.23 196.02 725.63 196.66 729.17 195.5 730.89 195.61 732.16 196.88 731.67 198.11 729.28 200.26 727.07 201.2 726.39 202.73 727.17 204.11 729.28 204.59 730.51 205.02 730.88 205.56 730.45 206.13 729.28 206.65 724.59 207.95 723.28 208.75 726.28 209.01 727.77 209.35 729.28 210.29 729.74 211.43 727.76 211.75 725.04 211.77 723.3 212 723.3 212.01 722.84 212.29 722.33 212.38 721.79 212.28 721.23 211.99 719.42 211.06 717.21 210.87 712.95 211.23 709.04 210.69 707.62 210.82 706.62 211.98 706.17 213.57 705.32 214.05 704.29 214.2 703.23 214.82 702.96 215.46 703.04 216.04 702.99 216.68 702.29 217.44 701.56 217.82 699.38 218.46 696.72 219.8 695.51 220.66 691.71 224.21 690.37 225.09 688.69 225.63 684.39 227.38 682.2 228.27 681.83 228.33 681.83 228.29 681.79 227.85 681.65 226.7 681.47 226.45 681.05 226.02 679.75 225.3 679.24 224.8 679.17 224.15 679.62 222.4 679.7 221.34 680.06 220.35 680.8 219.35 684.55 217.11 689.62 212.51 692.36 209.77 693.11 208.67 693.22 207.96 692.95 207.07 689.15 203.78 688.22 202.6 687.8 201.14 687.69 200.09 688.79 196.82 688.79 194 685.92 186.41 685.77 184.78 684.96 180.82 683.97 177.9 682.8 175.31 680.95 172.31 680.8 171.41 681.16 170.53 682.75 169.04 683.82 168.31 685.09 168.21 685.66 168.79 685.98 169.5 686.36 169.96 688.29 169.22 694.33 164.92 700.35 165 703.01 164.66 705.63 163.7 707.33 162.79 712.8 158.82 712.98 157.77 713.04 156.49 712.46 155.25 712.14 153.76 712.46 151.46 713.06 150.26 714.07 149 714.73 148.33 718.18 143.8 715.09 140.58 711.55 137.77 709.95 135.92 709.12 134.63 709.17 128.24 712.77 127.95 714 127.27 715.29 126.27 715.9 125.34 716.31 124.12 716.52 120.07 718.11 118.01 719.75 116.81 724.81 114.17 727.82 113.57 731.49 113.41 738.83 115.04 742.92 113.64 744.95 112.25 748.57 110.53 750.03 109.63 751.09 108.32 752.56 105.69 755.14 104.25 757.37 103.56 758.59 103.4 759.82 103.53 764.24 102.12 768.47 100.04 770.89 99.28 773.04 99.1 774.68 99.6 777.87 101.28 779.53 101.85 780.8 101.34 781.54 100.36 781.69 99.51 781.36 98.7 781.3 97.97 781.7 96.42 783.08 95.44 783.85 95.23 784.95 95.6 785.85 96.01 787.08 96.18 787.99 96.02 788.72 95.76 790.01 94.85 790.01 94.85 790.51 95.46 791.87 96.44 790.8 97.32 790.26 98.38 789.67 100.33 790.08 100.5 791.33 101.2 790.77 102.92 793.17 103.8 796.56 104.61 799 106.08 Z" id="AUT-2322" data-name="Burgenland"/>
<path d="M 694.33 164.92 688.29 169.22 686.36 169.96 685.98 169.5 685.66 168.79 685.09 168.21 683.82 168.31 682.75 169.04 681.16 170.53 680.8 171.41 680.95 172.31 682.8 175.31 683.97 177.9 684.96 180.82 685.77 184.78 685.92 186.41 688.79 194 688.79 196.82 687.69 200.09 687.8 201.14 688.22 202.6 689.15 203.78 692.95 207.07 693.22 207.96 693.11 208.67 692.36 209.77 689.62 212.51 684.55 217.11 680.8 219.35 680.06 220.35 679.7 221.34 679.62 222.4 679.17 224.15 679.24 224.8 679.75 225.3 681.05 226.02 681.47 226.45 681.65 226.7 681.79 227.85 681.83 228.29 681.83 228.33 677.56 229.06 676.94 229.3 675.92 230.04 676.02 230.27 676.48 230.5 676.57 231.24 675.85 234.49 675.82 234.81 675.68 236.33 675.77 238.16 676.97 240.72 679.2 241.7 680.38 243.32 680.6 245.73 680.6 245.73 680.59 245.72 678.64 244.03 677.49 243.48 675.46 243.23 673.24 242.96 666.15 240.49 663.24 240.1 660.33 240.27 656.32 241.39 653.24 242.24 650.47 242.35 642.45 241.53 640.77 240.82 640.44 242.4 640.45 243.75 639.83 244.66 639.28 244.95 638.75 245.22 637.39 245.49 635.82 245.18 633.59 245.2 631.35 245.6 629.75 246.44 628.72 247.93 628.67 248.13 628.39 249.12 628 249.72 627.72 250.16 625.77 251.21 622.63 251.59 620.27 250.57 619.78 250.28 617.92 249.15 614.84 248.36 609.05 248.57 595.67 249.05 592.28 248.8 585.28 248.28 585.23 248.24 584.38 247.47 577.86 242.32 576.59 239.82 576.35 236.33 575.13 232.64 573.57 230.1 573.05 228.71 572.85 227.78 573.02 227.18 573.58 225.92 574.27 224.98 574.89 223.69 575.1 220.56 566.86 211.94 562.74 208.47 561.2 207.61 560.13 207.14 558.52 206.95 546.93 208.83 534.06 209.52 531.23 208.73 524.39 209.03 521.56 208.87 510.89 211.47 509.01 211.41 508.09 211.28 507.83 211 506.76 210.41 504.96 209.82 497.51 208.21 493.29 206.18 490.59 205.34 486.89 205.3 483.82 205.68 472.39 209.44 470.79 210.27 469.88 210.98 469.44 211.49 468.97 212.24 467.39 214.1 463.48 215.39 457.04 218.82 455.18 219.21 453.27 219.36 452.31 219.07 450.85 218.36 446.82 216.07 450.83 212.55 455.35 206.85 456.53 204.84 457.07 203.66 456.86 201.57 457.04 200.25 457.91 199.31 461 197.27 463.03 195.52 463.26 194.45 462.46 193.55 459.33 192.03 455.86 189.01 455.04 188.04 454.53 186.94 454.26 186.05 453.72 185.08 451.42 182.64 449.71 180.28 448.33 179.66 446.74 180 445.19 180.7 442.25 180.92 440.51 181.43 439.04 182.22 437.6 182.56 436.04 182.27 434.26 181.39 430.96 179.3 428.22 175.44 425.12 168.39 424.11 164.67 424.26 163.87 425 161.94 425.85 160.38 435.54 161.66 436.51 161.31 437.8 161.1 438.14 160.7 440.75 159.17 441.19 158.83 441.53 158.37 441.92 157.25 441.87 155.86 441.39 154.14 440.41 152.73 439.6 151.87 438.27 150.87 437.11 149.82 436.27 148.75 435.91 147.66 435.85 146.64 436.03 144.59 436.29 143.29 436.87 141.81 438.18 140.64 439.94 139.65 451.11 135.89 452.26 135.73 453.2 135.84 455.75 136.86 457.17 137.26 460.31 137.65 463.06 138.37 464.65 138.61 469.26 138.18 474 141.97 475.17 143.96 475.33 144.77 475.85 145.77 476.5 145.74 478.61 144.72 483.71 143.79 487.61 142.56 489.03 142.31 490.01 142.46 495.9 145.24 498.18 145.93 500.3 146.35 503.37 146.35 505.94 145.81 510.63 143.4 513.26 142.35 516.55 141.7 518.36 141.05 519.51 140.31 519.9 139.57 521.03 138.51 536.1 134.45 542.77 130.83 546.41 132.79 557.3 132.75 557.89 132.97 558.86 133.68 562.03 135.45 564.2 135.65 566.86 135.22 569.45 134.16 573.65 132.94 575.76 132.56 577.34 132.51 579.09 132.73 580.1 132.72 583.33 132.08 588.65 130.69 592.68 130.08 593.8 129.62 594.82 128.82 595.39 128.04 598.27 125.55 602.6 126 603.3 125.98 609.71 124.92 611.82 125.05 613.51 125.52 617.91 128.26 626.55 131.1 630.59 133.07 637.65 133.49 639.79 135.04 641.04 136.21 642.52 136.89 644.52 137.6 645.72 137.78 646.74 137.78 647.6 137.66 648.96 137.84 649.7 138.31 650.2 139.06 650.82 142.08 651.19 143.28 651.99 144.66 652.98 145.11 654.1 145.07 657.6 143.75 658.95 143.59 659.76 143.9 660.3 144.32 660.93 145.14 661.09 145.48 661.27 146.07 661.3 146.76 661.19 147.52 660.72 148.51 660.59 148.98 660.85 149.66 661.52 149.91 662.31 150.03 664.84 150.03 667.59 151.43 668.86 153.09 670.14 155.49 678.67 156.47 681.24 157.43 682.22 158.06 683.04 158.29 683.79 158.31 684.81 158.07 687.27 157.23 687.77 157.37 688.13 157.68 688.43 158.16 688.74 158.93 688.84 159.67 688.97 160.14 689.62 161.28 690.73 162.79 694.33 164.92 Z" id="AUT-2323" data-name="Steiermark"/>
<path d="M 446.82 216.07 450.85 218.36 452.31 219.07 453.27 219.36 455.18 219.21 457.04 218.82 463.48 215.39 467.39 214.1 468.97 212.24 469.44 211.49 469.88 210.98 470.79 210.27 472.39 209.44 483.82 205.68 486.89 205.3 490.59 205.34 493.29 206.18 497.51 208.21 504.96 209.82 506.76 210.41 507.83 211 508.09 211.28 509.01 211.41 510.89 211.47 521.56 208.87 524.39 209.03 531.23 208.73 534.06 209.52 546.93 208.83 558.52 206.95 560.13 207.14 561.2 207.61 562.74 208.47 566.86 211.94 575.1 220.56 574.89 223.69 574.27 224.98 573.58 225.92 573.02 227.18 572.85 227.78 573.05 228.71 573.57 230.1 575.13 232.64 576.35 236.33 576.59 239.82 577.86 242.32 584.38 247.47 585.23 248.24 585.28 248.28 583.2 248.12 580.71 247.94 574.69 249.27 570.79 253.1 568.78 251.11 567.28 250.91 565.81 251.55 563.53 252.54 563.14 252.58 561.37 252.74 559.89 252.62 558.58 253.01 556.82 254.76 555.63 256.52 554.82 258.22 554.06 259.82 552.95 261.56 552.11 262.89 551.53 263.25 549.21 263.98 546.53 264.28 545.6 263.83 543.86 264.37 543.23 264.87 542.71 265.58 541.49 266.6 540.74 267.89 539.97 267.79 539.35 267.72 538.87 267.8 536.78 269.32 535.69 269.8 534.63 270.02 532.36 270.16 531.35 270.45 529.8 271.99 528.93 274.01 528.41 274.91 527.95 275.73 526.14 276.28 524.75 275.28 523.57 273.49 522.15 272.13 518.53 272.72 516.78 272.53 515.34 272.07 513.55 271.5 512.96 271.02 512.63 270.43 512.13 269.93 511.02 269.76 507.49 270.3 494.96 270.05 485.28 269.86 485.08 269.82 483.96 269.61 478.08 266.1 476.55 265.57 474.84 265.22 473 265.19 471.16 265.41 469.47 265.62 467.75 265.48 458.18 262.35 455.03 261.99 448.24 262.76 446.81 262.77 439.9 261.61 438.31 261.52 436.68 261.74 435.1 261.63 422.44 258.79 418 258.68 417.2 258.29 415.71 257.13 414.99 256.94 408.61 257.26 404.04 256.7 393.37 258.27 389.16 258.13 386.95 257.52 380.3 254.7 371.73 253.33 347.23 252.12 341.29 249.44 338.66 248.84 338.66 248.84 337.76 248.63 336.94 248.7 335.26 249.15 334.28 249.18 333.32 248.88 331.41 247.89 330.59 247.64 330.61 247.61 331.07 246.8 334.54 242.12 335.32 240.61 335.79 239.36 336.13 237.55 338.36 236.79 347.69 235.82 351.92 234.55 353.13 234.44 354.24 234.73 357.97 236.65 358.81 236.75 359.19 236.69 359.51 236.47 359.71 236.19 359.8 235.97 359.87 235.61 359.25 234.8 352.97 228.8 348.16 225.28 347.06 224.25 346.35 222.59 346.1 221.19 345.6 219.76 344.77 218.66 343.47 217.68 342.4 217.15 340.29 215.8 339.4 214.62 338.37 213.69 337.66 212.79 337.32 211.78 337.24 211.28 337.25 210.83 337.4 210.09 337.67 209.31 338.98 207.12 339.11 206.03 338.23 205.2 329.2 203.15 327.82 202.39 326.97 201.56 326.67 199.55 328.03 198.97 328.41 198.71 328.76 198.36 328.89 198.07 328.98 197.72 329.12 197.45 329.45 197.17 329.93 197 330.89 197.05 332.24 197.45 336.38 199.27 341.17 200.89 347.6 201.97 350.96 202.22 356.02 203.33 364.37 207.01 366.1 207.66 368.07 208.03 371.2 208.26 379.06 207.96 383.13 207.35 388.64 205.53 391.05 204.24 393.67 202.5 395.28 202.23 397.22 202.15 401.33 203 410.98 204.74 413.25 204.85 423.75 206.39 428.4 206.65 431.08 207.22 434.78 208.54 443.77 213.3 446.82 216.07 Z" id="AUT-2325" data-name="Kärnten"/>
<path d="M 541.91 45.28 542.16 45.59 544.05 46.8 550.63 47.8 554.06 48.76 557.42 49.94 561.21 50.28 562.95 50.69 564.43 51.5 565.45 52.65 565.62 53.74 565.52 54.17 565.19 54.35 562.81 54.23 562.42 54.29 562.22 54.48 562.12 54.86 562.11 55.8 561.93 56.42 561.92 57.35 562.39 58.41 564.79 60.61 567.37 61.24 567.95 64.61 569.9 65.63 570.44 66.56 571.65 71.74 570.94 80.76 570.88 83.09 569.3 81.84 568.02 81.33 566.86 81.12 561.69 81.29 559.79 81.85 558.23 82.85 556.7 84.34 555.26 85.14 540.27 87.56 538.09 87.12 536.31 86.03 533.46 83.27 532.09 82.24 530.53 81.52 528.72 81.09 524.01 81.04 522.59 81.83 521.95 82.08 521.18 82.49 520.89 82.72 520.7 82.92 520.53 83.14 520.33 83.8 519.72 87.98 519.44 88.9 518.91 89.75 518.71 90.35 519.18 93.3 519.36 93.72 519.64 94.02 519.82 94.31 519.8 94.71 519.23 95.35 518.01 96.28 517.88 96.49 517.79 96.76 517.8 97.3 517.67 97.66 516.2 99.48 515.73 99.8 515.24 100.01 514.42 100.16 514.29 100.65 516.2 102.15 533.07 110.71 538.55 112.53 541.85 113.22 544.11 114.08 546.3 115.22 547.42 116.12 548.15 116.91 548.1 118.87 546.23 120.68 544.82 124.55 544.72 126.98 544.54 128.25 542.77 130.83 536.1 134.45 521.03 138.51 519.9 139.57 519.51 140.31 518.36 141.05 516.55 141.7 513.26 142.35 510.63 143.4 505.94 145.81 503.37 146.35 500.3 146.35 498.18 145.93 495.9 145.24 490.01 142.46 489.03 142.31 487.61 142.56 483.71 143.79 478.61 144.72 476.5 145.74 475.85 145.77 475.33 144.77 475.17 143.96 474 141.97 469.26 138.18 464.65 138.61 463.06 138.37 460.31 137.65 457.17 137.26 455.75 136.86 453.2 135.84 452.26 135.73 451.11 135.89 439.94 139.65 438.18 140.64 436.87 141.81 436.29 143.29 436.03 144.59 435.85 146.64 435.91 147.66 436.27 148.75 437.11 149.82 438.27 150.87 439.6 151.87 440.41 152.73 441.39 154.14 441.87 155.86 441.92 157.25 441.53 158.37 441.19 158.83 440.75 159.17 438.14 160.7 437.8 161.1 436.51 161.31 435.54 161.66 425.85 160.38 419.82 157.79 416.13 155.22 415.31 153.8 415.1 152.23 415.69 150.85 417.29 149.02 417.88 148.19 418.19 147.11 417.88 146.2 416.14 144.16 419.97 136.21 419.45 135.31 418.67 134.33 416.08 134.11 413.9 133.49 412.91 133.08 412.34 132.74 412 132.38 411.5 131.6 411.69 131.11 412.41 130.72 416.51 130.59 418.2 130.38 419.48 129.3 417.03 127.79 398.12 124.95 396.48 124.19 395.52 123.32 395.08 122.39 393.75 118.57 393.46 117.21 393.36 115.83 393.62 112.89 393.88 111.64 394.22 110.76 394.6 110.24 395.13 109.94 395.88 109.86 398.69 110.42 400.21 110.51 401.69 110.25 402.65 109.49 402.74 108.68 401.85 107.94 400.91 107.51 399.84 107.14 396.67 105.61 389.53 107.81 383.51 108.3 379.51 107.99 375.39 107.02 374.9 106.86 374.38 106.62 371.33 104.45 368.74 103.42 366.1 103.17 361.67 103.34 359.72 103.74 358.44 104.42 357.65 106 357.35 106.46 356.07 107 351.19 107.93 349.1 108.49 348.82 107.37 347.26 105.03 339.89 99.86 338.92 98.83 337.99 97.57 337.46 96.19 337.66 94.78 338.3 94.03 338.97 93.87 339.65 93.9 340.29 93.7 341.78 92.14 342.21 91.79 346.37 89.84 347.73 88.79 349.64 86.77 350.6 86.07 352.18 85.51 357.97 84.76 357.83 84.51 359.45 83.63 362.83 82.37 366.72 79.88 368.41 79.07 379.25 76.2 393.67 74.52 397.18 73.21 407.41 67.25 408.87 65.62 409.46 63.4 409.67 62.86 410.15 62.32 410.61 61.6 410.83 60.51 410.63 57.55 410.83 56.58 411.32 55.62 412.73 53.64 413.02 52.62 412.79 51.7 411.82 50.69 411.4 48.81 411.09 48.34 411.02 47.96 411.59 47.23 412.54 46.65 415.95 45.8 419.46 45.49 430.3 47.5 432.13 48.15 433.83 48.99 435.43 50.62 439.71 51.91 439.94 52.07 440.87 49.27 441.76 48.08 442.12 48.14 444.29 47.9 445.12 47.67 445.99 47.09 446.48 46.6 448.28 44.02 448.93 42.65 449.25 41.14 449.33 39.38 448.78 36 449.05 34.75 450.44 33.87 449.13 33.46 448.61 33.14 447.5 31.68 446.96 31.81 447.2 30.82 450.32 26.46 454.53 27.21 456.52 27.93 458.42 28.91 460.71 30.17 467.75 32.73 468.67 33.39 470.41 35.16 471.08 36.02 471.61 36.35 472.34 36.54 472.97 36.84 473.24 37.47 473.04 38.13 472.57 38.23 472.06 38.16 471.74 38.31 471.04 39.29 470.45 39.44 470.25 39.74 470.74 41.17 471.19 41.74 473 43.23 473.87 43.75 477.43 44.74 492.26 45.84 502.64 48.28 503.64 48.2 504.47 47.98 506.57 46.86 512.01 45.31 513.67 44.18 516.01 40.05 517.54 39.35 520.05 41.31 524.22 42.76 525.45 42.96 527.02 42.73 530.16 41.73 531.77 41.64 532.44 42.03 532.57 42.7 532.58 43.4 532.92 43.84 533.73 43.9 535.33 43.53 536.01 43.63 537.13 44.62 537.75 45.6 538.57 46.28 540.29 46.36 541.91 45.28 Z" id="AUT-2326" data-name="Oberösterreich"/>
<path d="M 425.85 160.38 425 161.94 424.26 163.87 424.11 164.67 425.12 168.39 428.22 175.44 430.96 179.3 434.26 181.39 436.04 182.27 437.6 182.56 439.04 182.22 440.51 181.43 442.25 180.92 445.19 180.7 446.74 180 448.33 179.66 449.71 180.28 451.42 182.64 453.72 185.08 454.26 186.05 454.53 186.94 455.04 188.04 455.86 189.01 459.33 192.03 462.46 193.55 463.26 194.45 463.03 195.52 461 197.27 457.91 199.31 457.04 200.25 456.86 201.57 457.07 203.66 456.53 204.84 455.35 206.85 450.83 212.55 446.82 216.07 443.77 213.3 434.78 208.54 431.08 207.22 428.4 206.65 423.75 206.39 413.25 204.85 410.98 204.74 401.33 203 397.22 202.15 395.28 202.23 393.67 202.5 391.05 204.24 388.64 205.53 383.13 207.35 379.06 207.96 371.2 208.26 368.07 208.03 366.1 207.66 364.37 207.01 356.02 203.33 350.96 202.22 347.6 201.97 341.17 200.89 336.38 199.27 332.24 197.45 330.89 197.05 329.93 197 329.45 197.17 329.12 197.45 328.98 197.72 328.89 198.07 328.76 198.36 328.41 198.71 328.03 198.97 326.67 199.55 322.6 196.87 320.79 196.18 318.78 195.87 315.99 195.71 312.95 195.01 310.16 194.98 306.52 195.43 304.02 195.41 301.88 195.65 300.11 196.19 293.89 200.3 284.57 203.21 281.68 204.26 281.72 202.94 279.25 202.36 274.28 203.03 274.29 202.97 274.38 202.52 274.09 198.6 273.72 197.55 272.86 196.1 272.07 195.53 270.33 194.56 269.7 193.91 269.17 192.82 268.92 191.68 268.91 189.76 269.17 188.22 270.63 184.1 270.4 181.99 273.3 180.97 274.77 180.75 277.98 180.83 289.68 177.98 293.36 176.45 294.88 176.3 296.11 176.47 298.47 177.36 299.88 177.66 301.46 177.72 304.87 177.38 306.88 176.87 308.21 176.39 309.49 175.52 310.53 174.39 311.49 172.46 312.25 171.51 312.85 170.97 313.63 170.72 314.67 170.52 319.82 170.15 321.02 169.82 322.09 169.34 323 168.8 323.84 168.13 324.57 167.37 326.8 164.11 327.89 162.88 329.93 161.11 330.65 160.27 331.15 159.5 331.38 159.08 331.13 158.42 329.1 154.93 328.68 153.71 328.59 152.85 329.04 152.04 329.15 151.55 328.8 151.05 327.84 150.32 324.15 148.62 322 147.29 319.29 144.13 322.96 141.92 324.95 141.24 328.68 140.64 332.41 140.64 338.28 141.66 340.08 141.5 338.99 143.33 340.64 144.69 343.35 145.9 345.43 147.26 342.57 148.22 341.3 150.64 341.85 153.23 344.43 154.64 346.04 154.83 347.03 155.06 347.91 155.54 352.69 159.11 357.82 161.73 358.97 162.05 359.85 161.84 360.72 161.52 361.81 161.5 362.82 161.87 363.4 162.28 364.05 162.55 365.17 162.52 365.9 162.09 368.88 159.69 368.85 158.82 368.58 158.18 368.24 157.65 368.01 157.07 367.92 156.43 367.92 154.6 368.18 154.33 369.17 152.64 369.29 152.48 369.07 152.54 368.98 150.17 369.26 150.24 370.95 148.74 371.01 148.45 372.26 146.38 372.52 146.15 372.74 144.89 372.81 143.62 372.52 142.28 371.68 140.76 369.64 138.39 368.35 137.34 367.05 136.68 365.43 136.51 362.78 137.29 361.22 137.48 355.39 136.74 353.68 135.57 355.62 133.54 355.65 133.53 355.65 133.53 356.32 132.79 356.5 132.1 356.53 131.43 356.74 130.76 357.31 129.94 364.06 122.65 363.57 122.32 361.31 120.04 357.77 114.51 356 113.35 355.16 113.04 353.05 111.58 350.54 110.57 349.7 109.74 349.14 108.64 349.1 108.49 351.19 107.93 356.07 107 357.35 106.46 357.65 106 358.44 104.42 359.72 103.74 361.67 103.34 366.1 103.17 368.74 103.42 371.33 104.45 374.38 106.62 374.9 106.86 375.39 107.02 379.51 107.99 383.51 108.3 389.53 107.81 396.67 105.61 399.84 107.14 400.91 107.51 401.85 107.94 402.74 108.68 402.65 109.49 401.69 110.25 400.21 110.51 398.69 110.42 395.88 109.86 395.13 109.94 394.6 110.24 394.22 110.76 393.88 111.64 393.62 112.89 393.36 115.83 393.46 117.21 393.75 118.57 395.08 122.39 395.52 123.32 396.48 124.19 398.12 124.95 417.03 127.79 419.48 129.3 418.2 130.38 416.51 130.59 412.41 130.72 411.69 131.11 411.5 131.6 412 132.38 412.34 132.74 412.91 133.08 413.9 133.49 416.08 134.11 418.67 134.33 419.45 135.31 419.97 136.21 416.14 144.16 417.88 146.2 418.19 147.11 417.88 148.19 417.29 149.02 415.69 150.85 415.1 152.23 415.31 153.8 416.13 155.22 419.82 157.79 425.85 160.38 Z" id="AUT-2327" data-name="Salzburg"/>
<path d="M 312.95 195.01 315.99 195.71 318.78 195.87 320.79 196.18 322.6 196.87 326.67 199.55 326.97 201.56 327.82 202.39 329.2 203.15 338.23 205.2 339.11 206.03 338.98 207.12 337.67 209.31 337.4 210.09 337.25 210.83 337.24 211.28 337.32 211.78 337.66 212.79 338.37 213.69 339.4 214.62 340.29 215.8 342.4 217.15 343.47 217.68 344.77 218.66 345.6 219.76 346.1 221.19 346.35 222.59 347.06 224.25 348.16 225.28 352.97 228.8 359.25 234.8 359.87 235.61 359.8 235.97 359.71 236.19 359.51 236.47 359.19 236.69 358.81 236.75 357.97 236.65 354.24 234.73 353.13 234.44 351.92 234.55 347.69 235.82 338.36 236.79 336.13 237.55 335.79 239.36 335.32 240.61 334.54 242.12 331.07 246.8 330.61 247.61 330.59 247.64 330.41 247.58 325.24 247.22 319.15 247.77 317.62 247.66 315.89 247.09 312.65 245.58 309.49 245.19 309.49 245.19 306.98 244.89 302.73 243.7 299.1 241.49 297.12 238.14 296.21 235.85 294.46 235.08 292.29 234.87 290.11 234.29 289.1 233.81 288.51 233.4 288.26 232.69 288.28 231.34 288.56 230.12 288.95 229.4 289.24 228.64 289.21 227.36 288.25 225.07 286.59 224.29 282.19 224.18 280.76 223.82 280.13 223.31 279.55 222.66 278.36 221.82 277.2 221.42 274.73 221.12 273.63 220.81 275.16 219.77 275.17 218.81 274.45 217.82 273.77 216.65 273.13 214.24 272.68 213.04 271.98 212.01 273.09 210.17 279.42 207.76 281.65 205.69 281.68 204.26 284.57 203.21 293.89 200.3 300.11 196.19 301.88 195.65 304.02 195.41 306.52 195.43 310.16 194.98 312.95 195.01 Z M 284.29 139.62 285.33 140.24 286.46 140.13 288.8 139.3 291.08 139.08 297.12 139.95 298.9 139.76 303.01 138.69 304.73 138.92 305.21 139.52 306.3 141.75 306.88 142.61 307.72 143.29 310.84 144.99 312.31 145.47 314.46 145.51 316.66 145.22 318.3 144.73 319.29 144.13 322 147.29 324.15 148.62 327.84 150.32 328.8 151.05 329.15 151.55 329.04 152.04 328.59 152.85 328.68 153.71 329.1 154.93 331.13 158.42 331.38 159.08 331.15 159.5 330.65 160.27 329.93 161.11 327.89 162.88 326.8 164.11 324.57 167.37 323.84 168.13 323 168.8 322.09 169.34 321.02 169.82 319.82 170.15 314.67 170.52 313.63 170.72 312.85 170.97 312.25 171.51 311.49 172.46 310.53 174.39 309.49 175.52 308.21 176.39 306.88 176.87 304.87 177.38 301.46 177.72 299.88 177.66 298.47 177.36 296.11 176.47 294.88 176.3 293.36 176.45 289.68 177.98 277.98 180.83 274.77 180.75 273.3 180.97 270.4 181.99 270.63 184.1 269.17 188.22 268.91 189.76 268.92 191.68 269.17 192.82 269.7 193.91 270.33 194.56 272.07 195.53 272.86 196.1 273.72 197.55 274.09 198.6 274.38 202.52 274.29 202.97 274.28 203.03 272.51 203.26 261.92 207.04 254.45 207.28 249.84 208.37 245.39 210.02 241.78 211.98 237.03 212.5 235.88 213.01 233.82 214.16 232.61 214.35 230.65 213.84 227.27 212.12 225.28 211.98 224.49 212.06 223.7 212.01 223.57 211.98 223.52 211.98 218.13 211.23 215.65 211.39 212.61 212 212.6 212 212.57 212.01 212.56 212.01 211.58 212.37 210.6 212.49 209.64 212.37 208.77 212.01 208.22 211.5 207.61 211.11 206.93 210.83 205.09 210.53 204.04 210.7 203.11 211.18 202.31 212 202.3 212.01 198.74 214.36 195.54 214.25 192.29 213.16 188.56 212.61 181.23 213.45 173.98 215.06 172.11 215.82 165.34 220.44 164.48 221.72 163.37 225.4 161.41 228.63 161.32 229.03 161.44 230.11 161.25 230.64 160.8 230.98 159.64 231.34 159.21 231.62 156.86 234.37 155.4 235.43 153.91 235.57 152.14 235.17 148.49 234.92 146.7 235.09 143.21 235.9 142.17 235.96 141.1 235.65 139.31 234.6 138.37 234.27 137.3 234.26 135.31 234.64 134.29 234.62 131.28 233.44 130.07 233.17 127.86 233.64 126.74 233.62 126.11 232.7 126.6 232.18 128.92 230.89 129.43 230.17 128.41 229.11 120.41 225.82 118.8 225.53 116.95 225.67 106.31 227.68 101.98 227.35 98.58 225.46 98.33 223.23 99.63 219.67 99.07 217.91 98.14 217.14 94.58 215.21 92.39 212.8 91.31 212.01 91.31 211.99 91.3 211.99 90.75 211.74 90.17 211.67 89.59 211.74 86.56 212.94 83.92 215.01 82.09 217.41 82.04 219.36 79.43 219.45 77.4 219.08 75.7 219.3 74.11 221.13 73.61 222.46 73.53 223.34 73.24 224.14 72.17 225.21 67.61 226.8 64.91 227.33 64.2 227.31 64.18 227.26 64.09 226.98 62.2 223.57 59.83 220.9 59.59 219.87 59.93 218.98 61.27 217.82 62.56 217.04 63.7 215.96 64.36 214.67 64.64 212.84 64.59 211.72 64.26 210.26 64.15 209 64.34 207.36 65.56 203.18 66.63 201.23 70.69 197.03 72.25 194.43 72.46 191.52 72.38 190.48 71.13 185.78 69.4 182.78 76.14 182.22 78.42 181.61 83.11 179.66 85.15 178.39 87.03 176.67 89.36 173.49 89.98 172.84 91.06 172.34 93.27 171.82 94.17 171.41 95.91 169.84 97.43 167.72 98.39 165.37 98.36 163.12 97.93 161.83 97.37 160.91 96.47 160.23 95 159.69 96.06 155.52 96.19 154.55 95.5 153.38 94.59 152.23 94.44 151.32 96.01 150.9 97.76 150.69 98.56 150.48 98.93 150.67 99.39 151.65 99.26 152.06 98.75 152.56 98.36 153.23 98.55 154.12 99.1 154.6 99.95 155.01 101.59 155.52 106.04 155.98 107.27 155.84 108.6 155.11 110.72 153.11 112.17 152.43 114.7 152.45 128.51 155.98 128.93 156.31 129.28 156.85 129.8 157.35 130.7 157.53 133.79 157.28 138.01 155.97 139.49 155.69 140.94 155.75 142.05 156.18 144.45 157.4 143.57 158.12 140.2 159.68 140.91 160.51 146.3 162.21 151.52 166.02 151.84 166.5 151.87 167.2 151.63 167.93 151.3 168.41 151.05 168.42 152.12 169.83 153.58 170.41 164.49 170.52 166.53 170.1 173.37 166.89 176 166.4 178.24 167.02 178.01 169.86 180.52 170.06 182.81 169.35 184.3 168.26 185.68 167 187.7 165.72 189.65 165.3 194.19 165.23 195.89 164.73 196.79 163.69 196.39 162.91 195.25 162.41 193.96 162.17 198.9 158.32 201.27 157.95 203.85 158.18 206.22 158.69 211.13 158.14 213.4 157.53 215.3 156.1 215.83 155.13 216.65 152.71 217.36 151.6 220.28 149.88 220.64 149.58 222.58 149.62 227.14 150.24 235.66 150.27 241.55 151.08 242.64 150.84 243.68 149.06 244.86 148.59 253.64 147.38 277.68 148.08 278.51 147.97 281.5 145.38 281.88 144.71 281.99 143.73 281.81 140.94 281.52 140.36 280.99 140.12 280.14 139.55 279.37 138.86 279.03 138.28 278.83 137.43 280.48 136.97 283 135.56 283.91 135.17 285.44 134.72 285.69 134.69 285.37 135.16 285.1 136.28 284.73 137.11 284.06 137.74 283.72 138.47 284.29 139.62 Z" fill-rule="evenodd" id="AUT-2329" data-name="Tirol"/>
<path d="M 631.17 12.21 637.39 13.81 645.52 16.83 647.86 17.2 650.27 17.2 652.04 16.83 655.76 15.53 656.66 15.39 659.86 15.38 660.47 15.68 660.89 16.97 661.41 17.51 662.12 17.71 664.12 17.8 665.27 18.36 666.05 18.59 666.93 18.55 665.85 19.49 667.17 19.28 668.35 19.31 669.13 19.78 669.24 20.89 671.01 20.58 671.56 21.03 671.56 21.76 671.72 22.28 682.24 27.34 687.78 28.93 697.45 28.54 712.08 29.97 712.2 29.9 714.37 29.69 715.76 30.43 716.34 30.56 717.99 30.24 719.13 29.53 724.44 23.52 726.26 22.72 729.28 23.01 730.36 22.98 732.25 22.45 733.21 22.36 734.17 22.58 735.96 23.34 742.21 24.54 744.14 24.69 746.14 25.22 746.97 26.48 747.36 27.98 748.11 29.22 749.49 29.86 751.15 30.06 755.13 29.95 756.73 30.31 760.52 31.97 762.44 32.45 764.45 32.28 768.47 31.34 770.19 31.42 772.67 33.73 774.12 40.65 777.73 43.44 778.7 48.33 778.15 49.64 777.92 50.18 776.21 51.38 774.48 52.31 773.7 53.3 773.15 54.69 770.41 57.31 769.35 58.72 768.92 60.22 767.99 65.8 767.72 66.46 767.46 66.77 767.27 67.25 767.21 68.4 767.53 69.03 768.34 69.35 770.45 69.5 771.05 69.74 772.15 70.34 773.22 71.14 773.7 71.97 773.46 72.43 773.05 73.04 772.85 73.57 773.31 73.78 773.59 74.01 773.95 74.53 774.28 75.13 774.41 75.61 774.76 76.22 775.56 76.57 776.51 76.86 777.67 77.56 778.31 77.71 778.7 78.07 778.8 78.53 778.66 79.72 778.7 80.22 780.34 83.98 780.83 85.87 780.84 88.14 781.59 89.77 784.23 91.71 785.67 92.3 787.34 92.47 788.45 92.94 790.01 94.85 790.01 94.85 788.72 95.76 787.99 96.02 787.08 96.18 785.85 96.01 784.95 95.6 783.85 95.23 783.08 95.44 781.7 96.42 781.3 97.97 781.36 98.7 781.69 99.51 781.54 100.36 780.8 101.34 779.53 101.85 777.87 101.28 774.68 99.6 773.04 99.1 770.89 99.28 768.47 100.04 764.24 102.12 759.82 103.53 758.59 103.4 757.37 103.56 755.14 104.25 752.56 105.69 751.09 108.32 750.03 109.63 748.57 110.53 744.95 112.25 742.92 113.64 738.83 115.04 731.49 113.41 727.82 113.57 724.81 114.17 719.75 116.81 718.11 118.01 716.52 120.07 716.31 124.12 715.9 125.34 715.29 126.27 714 127.27 712.77 127.95 709.17 128.24 709.12 134.63 709.95 135.92 711.55 137.77 715.09 140.58 718.18 143.8 714.73 148.33 714.07 149 713.06 150.26 712.46 151.46 712.14 153.76 712.46 155.25 713.04 156.49 712.98 157.77 712.8 158.82 707.33 162.79 705.63 163.7 703.01 164.66 700.35 165 694.33 164.92 690.73 162.79 689.62 161.28 688.97 160.14 688.84 159.67 688.74 158.93 688.43 158.16 688.13 157.68 687.77 157.37 687.27 157.23 684.81 158.07 683.79 158.31 683.04 158.29 682.22 158.06 681.24 157.43 678.67 156.47 670.14 155.49 668.86 153.09 667.59 151.43 664.84 150.03 662.31 150.03 661.52 149.91 660.85 149.66 660.59 148.98 660.72 148.51 661.19 147.52 661.3 146.76 661.27 146.07 661.09 145.48 660.93 145.14 660.3 144.32 659.76 143.9 658.95 143.59 657.6 143.75 654.1 145.07 652.98 145.11 651.99 144.66 651.19 143.28 650.82 142.08 650.2 139.06 649.7 138.31 648.96 137.84 647.6 137.66 646.74 137.78 645.72 137.78 644.52 137.6 642.52 136.89 641.04 136.21 639.79 135.04 637.65 133.49 630.59 133.07 626.55 131.1 617.91 128.26 613.51 125.52 611.82 125.05 609.71 124.92 603.3 125.98 602.6 126 598.27 125.55 595.39 128.04 594.82 128.82 593.8 129.62 592.68 130.08 588.65 130.69 583.33 132.08 580.1 132.72 579.09 132.73 577.34 132.51 575.76 132.56 573.65 132.94 569.45 134.16 566.86 135.22 564.2 135.65 562.03 135.45 558.86 133.68 557.89 132.97 557.3 132.75 546.41 132.79 542.77 130.83 544.54 128.25 544.72 126.98 544.82 124.55 546.23 120.68 548.1 118.87 548.15 116.91 547.42 116.12 546.3 115.22 544.11 114.08 541.85 113.22 538.55 112.53 533.07 110.71 516.2 102.15 514.29 100.65 514.42 100.16 515.24 100.01 515.73 99.8 516.2 99.48 517.67 97.66 517.8 97.3 517.79 96.76 517.88 96.49 518.01 96.28 519.23 95.35 519.8 94.71 519.82 94.31 519.64 94.02 519.36 93.72 519.18 93.3 518.71 90.35 518.91 89.75 519.44 88.9 519.72 87.98 520.33 83.8 520.53 83.14 520.7 82.92 520.89 82.72 521.18 82.49 521.95 82.08 522.59 81.83 524.01 81.04 528.72 81.09 530.53 81.52 532.09 82.24 533.46 83.27 536.31 86.03 538.09 87.12 540.27 87.56 555.26 85.14 556.7 84.34 558.23 82.85 559.79 81.85 561.69 81.29 566.86 81.12 568.02 81.33 569.3 81.84 570.88 83.09 570.94 80.76 571.65 71.74 570.44 66.56 569.9 65.63 567.95 64.61 567.37 61.24 564.79 60.61 562.39 58.41 561.92 57.35 561.93 56.42 562.11 55.8 562.12 54.86 562.22 54.48 562.42 54.29 562.81 54.23 565.19 54.35 565.52 54.17 565.62 53.74 565.45 52.65 564.43 51.5 562.95 50.69 561.21 50.28 557.42 49.94 554.06 48.76 550.63 47.8 544.05 46.8 542.16 45.59 541.91 45.28 542.39 44.97 542.92 42.25 542.86 39.05 543.24 36.22 545.22 34.1 550.72 30.9 551.25 28.9 552.3 27.67 552.73 26.4 553.34 25.41 554.92 25.01 560.38 25.5 565.79 26.97 567.91 26.84 569.11 25.01 568.88 24.82 568.42 24.14 567.96 23.31 567.76 22.65 567.93 21.92 568.69 20.6 570.9 14.05 570.91 11.16 570.48 7.96 570.52 4.98 571.95 2.77 571.85 2.21 571.85 1.72 572.02 1.37 572.35 1.19 574.64 1 580.46 2.31 588.6 2.75 589.37 4.23 589.82 5.65 589.77 7.07 589.08 8.56 591.16 8.59 599.14 7.17 599.68 6.95 601.13 5.8 601.47 5.25 601.73 3.84 602.15 3.42 602.95 3.41 603.48 3.84 603.92 4.36 604.43 4.6 609.33 4.64 611.67 5.08 616.7 6.76 621.35 7.8 623.6 8.65 628.77 11.6 631.16 12.21 631.17 12.21 Z M 703.19 80.05 700.66 79.23 699.88 79.79 699.2 80.48 698.92 80.85 698.58 81.63 698.55 82.58 699.41 83.53 700.2 84.11 700.66 84.8 700.93 85.43 700.04 88.42 700.88 89.45 701.55 89.91 701.96 90.58 703.19 91.04 709.57 91.42 712.38 91.06 715.14 91.04 716.57 91.72 718.45 92.29 719.46 92.45 721.8 92.5 722.88 91.99 723.42 91.6 723.76 91.05 724.09 90.7 724.93 90.2 726.49 89.9 731.39 89.74 738.63 90.63 736.37 87.46 735.68 85.97 736.16 83.11 736.96 80.92 737.04 80.59 736.91 80.33 736.63 79.95 735.84 79.42 735.45 78.08 735.11 77.31 734.02 76.51 733.47 75.65 732.38 74.97 730.4 75.19 729.72 75.96 729.43 76.43 729.35 76.46 729.04 76.17 726.16 72.84 725.56 72.33 722.32 72.11 721.94 72.93 721.1 73.4 719.31 73.74 715.61 74.93 708.58 77.98 708.01 78.58 706.79 79.31 705.93 79.7 704.6 79.94 703.19 80.05 Z" fill-rule="evenodd" id="AUT-2330" data-name="Niederösterreich"/>
<path d="M 703.19 80.05 704.6 79.94 705.93 79.7 706.79 79.31 708.01 78.58 708.58 77.98 715.61 74.93 719.31 73.74 721.1 73.4 721.94 72.93 722.32 72.11 725.56 72.33 726.16 72.84 729.04 76.17 729.35 76.46 729.43 76.43 729.72 75.96 730.4 75.19 732.38 74.97 733.47 75.65 734.02 76.51 735.11 77.31 735.45 78.08 735.84 79.42 736.63 79.95 736.91 80.33 737.04 80.59 736.96 80.92 736.16 83.11 735.68 85.97 736.37 87.46 738.63 90.63 731.39 89.74 726.49 89.9 724.93 90.2 724.09 90.7 723.76 91.05 723.42 91.6 722.88 91.99 721.8 92.5 719.46 92.45 718.45 92.29 716.57 91.72 715.14 91.04 712.38 91.06 709.57 91.42 703.19 91.04 701.96 90.58 701.55 89.91 700.88 89.45 700.04 88.42 700.93 85.43 700.66 84.8 700.2 84.11 699.41 83.53 698.55 82.58 698.58 81.63 698.92 80.85 699.2 80.48 699.88 79.79 700.66 79.23 703.19 80.05 Z" id="AUT-2331" data-name="Wien"/>
</g>
</svg>