<?xml version="1.0"?>
<svg xmlns="http://www.w3.org/2000/svg" version="1.2" baseProfile="tiny" width="800" height="790" viewBox="0 0 800 790" stroke-linecap="round" stroke-linejoin="round">
<g id="ne_10m_admin_1_states_provinces">
<path d="M 480.73 581.73 476.62 578.81 476.58 577.66 473.71 570.98 473.66 570.95 475.7 568.64 476.78 567.76 478.19 567.02 480.89 566.24 482.07 565.69 484.38 567.77 485.8 570.14 486.27 573.68 485.33 577.47 482.96 579.83 480.73 581.73 Z" id="PRY-4837" data-name="Asunción"/>
<path d="M 427.44 84.4 427.49 85.92 428.05 86.25 428.84 86.14 429.51 86.34 430.18 87 431.08 88.08 431.26 89.08 427.77 90.22 427.07 91.81 427.68 93.56 429.51 94.77 430.09 94.62 430.53 94.07 431.12 93.53 432.1 93.47 432.73 93.83 433.49 94.56 433.94 95.47 433.03 98.08 433.24 100.49 433.9 102.85 434.64 104.43 436.14 106.08 438.19 107.58 440.32 108.66 442.12 109.09 443.52 109.84 443.26 111.53 441.77 114.28 441.57 116.2 441.67 118.63 442.07 120.92 443.15 123.2 443.22 124.27 443.12 126.33 443.38 127.64 444.62 129.5 445.07 130.55 445.03 131.57 444.31 133.39 444.36 134.49 444.95 135.56 445.84 136.23 446.66 136.12 447.53 132.81 448.78 132.09 450.29 132.31 451.6 133.19 451.99 133.77 452.54 135.18 452.9 135.79 453.5 136.32 454.96 137.29 455.79 138.05 456.03 138.97 455.31 139.68 454.2 140.15 452.13 140.55 451.38 141.08 450.31 142.21 448.87 143.21 448.18 144.07 448.79 144.65 451.25 144.86 453.18 145.24 454.79 146.24 455.84 147.68 456.08 149.4 455.11 150.38 451.19 152.42 450.31 153.64 450.6 154.7 451.25 155.17 451.9 155.34 452.19 155.58 452.67 155.58 454.87 157.28 457.04 159.48 457.68 159.48 458.09 157.82 459.84 159.26 459.98 161.33 459.1 163.53 456.53 167.25 456.59 168.6 458.09 171.49 458.67 175.72 458.28 180.17 456.96 184.19 454.79 187.17 452.1 189.03 451.6 189.77 451.55 190.95 452.02 191.68 452.62 192.18 452.9 192.71 453.69 193.7 455.21 194.13 456.23 195.06 455.5 197.55 449.17 206.68 447.71 209.92 447.35 211.92 447.44 214.03 448.23 215.71 449.96 216.4 450.86 217.21 450.18 219.1 448.96 221.26 448.31 222.88 448.7 224.49 449.7 226.2 450.89 227.56 451.9 228.12 452.43 229.03 448.31 235.37 448.36 237.21 448.71 238.95 448.62 240.76 447.37 242.83 446.7 244.47 447.58 245.83 448.9 247.39 449.6 249.58 449.17 250.76 446.96 254.64 446.07 255.47 445.85 256.39 443.77 261.96 443.62 263.26 443.66 264.69 443.82 265.68 445.07 266.3 445.06 266.31 444.3 267.18 444.97 271.16 445.66 272.69 444.68 278.6 445.01 280.86 445.77 282.99 446.68 284.16 448.14 284.65 450.55 284.75 452.32 285.12 453.21 286.12 454.14 289.28 458.54 294.42 458.97 295.5 457.21 297.01 456.6 297.71 456.86 298.77 424.09 285.28 422.74 284.45 421.98 283.49 421.3 278.97 419.95 278.03 417.53 277.41 372.93 274.57 367.98 275.08 347.72 273.5 333.09 274.01 331.55 273.89 329.31 273.35 325.72 271.98 315.08 266.49 310.4 263.84 307.66 263.02 273.37 261.79 268.14 262.55 259.36 262.77 258.5 262.45 258.24 261.48 258.14 258.58 256.6 249.84 256.6 248.93 256.81 247.7 258.15 243.92 266.71 208.25 267.13 207.31 267.7 206.46 269.09 205.04 270.53 203.97 280.12 198.54 280.63 198.14 280.93 197.82 281.16 197.41 281.33 196.92 281.47 196.27 281.54 195.46 281.52 194.55 277.61 170.18 276.7 168.14 276.17 167.26 271.07 160.62 269.12 157.39 268.86 156.68 268.8 155.91 269.15 153.4 269.19 152.62 269.14 151.74 268.54 149.51 268.01 148.26 266.89 146.37 264.92 143.94 264.56 143.38 264.44 142.81 264.42 142.4 266.35 135.01 263.86 133.22 257.28 130.59 79.96 81.24 71.15 75.95 69.89 74.9 70.49 73.71 71.71 71.26 72.95 68.81 72.95 68.81 75.62 61.83 78.29 54.84 80.96 47.87 83.63 40.9 85.42 36.23 86.18 35.1 87.69 34.5 96.15 33.28 98.19 32.99 102.67 32.34 107.15 31.69 109.19 31.4 141.33 24.81 173.46 18.2 205.59 11.61 237.73 5.01 252.03 2.08 259.82 1.98 277.71 1.77 295.59 1.54 313.48 1.32 331.37 1.1 339.07 1 340.96 1.45 343.81 3.36 346.52 5.2 351.31 8.01 360.16 13.21 369.02 18.41 377.88 23.6 386.74 28.79 395.59 33.99 404.45 39.18 413.3 44.38 422.16 49.57 425.88 51.76 426.91 52.86 427.22 54.21 426.93 57.35 427.12 60.4 428.74 65.83 429.05 68.81 428.8 70.91 428.93 74.92 428.78 76.9 427.37 81.92 427.44 84.4 Z" id="PRY-597" data-name="Alto Paraguay"/>
<path d="M 315.08 266.49 318.42 275.89 318.69 277.18 318.37 277.73 316.95 278.9 311.05 282.28 308.78 283.28 308.27 283.33 307.65 283.15 306.87 282.72 306.13 282.22 305.24 281.42 304.5 280.93 303.52 280.46 302.23 280.75 300.89 281.21 291.13 286.67 289.86 287.8 289.07 288.85 288.56 289.91 288.37 290.45 288.22 291.42 288.25 292.14 288.46 292.89 289.7 295.15 289.84 295.76 289.73 296.48 289.04 297.72 288 298.31 286.57 298.6 281.11 298.62 279.56 298.85 278.17 299.52 277.58 300.31 277.4 301.38 277.99 305.78 278 306.18 277.81 307.63 277.22 308.83 258.86 334.16 257.96 336.03 257.63 337.57 257.63 340 257.41 341.26 256.52 344.26 256.34 345.35 256.69 350.14 256.47 354.48 257.16 358.98 256.96 360.56 256.46 362.51 253.87 368.99 253.9 369.61 254.1 370.27 254.88 371.98 255.16 373.03 254.85 374.64 253.81 377.41 249.53 385.43 248.35 388.84 247.47 392.56 246.59 401.01 246.54 401.06 245.8 401.53 236.35 406.21 234.1 407.01 230.78 407.6 200.03 409.18 198.74 409.43 197.45 409.93 194.48 411.42 191.09 412.76 184.27 413.78 182.96 414.17 181.38 414.92 180.53 415.73 179.99 416.57 179.34 419.94 178.97 421.03 177.73 423.04 177.45 423.64 177.37 424.28 177.84 436.46 177.84 436.48 175.08 436.54 173.11 436.32 170.38 434.81 167.19 432.4 163.7 430.82 160.08 431.79 157.09 430.02 156.19 429.19 154.82 427.09 154.25 426.54 154.08 425.27 152.94 423.3 151.4 421.5 148.91 420.18 147.28 417.69 146.41 416.82 147.27 415.26 147.6 413.1 147.26 411.18 146.08 410.34 144.45 409.82 143.03 408.64 141.76 407.34 140.58 406.45 139.87 406.36 137.97 406.49 137.33 406.45 136.46 405.89 134.63 404.16 133.77 403.8 131.81 403.26 130.83 401.96 130.25 400.46 129.5 399.25 123.34 396.72 121.15 396.62 119.84 396.28 118.88 395.66 117.77 394.72 116.32 393.78 114.78 393.18 113.04 392.87 110.99 392.78 110.12 392.27 109.23 390.04 107.72 389.13 107.8 388.18 108.24 387.09 108.69 386.3 106.99 386.26 105.87 386.08 105.03 385.67 100.23 381.01 98.86 380.4 94.38 380.4 93.1 380.06 92.3 379.61 90.81 378.08 89.47 377.22 88.1 376.66 87.03 375.84 86.6 374.18 86.53 372.43 86.27 371.31 85.68 370.4 84.65 369.27 83.63 368.44 81.48 367.31 80.38 366.38 78.23 363.49 77.46 362.78 66.88 356.81 63.5 353.37 62.19 351.55 62.17 351.11 61.9 350.67 62.39 348.45 62.17 347.55 61.12 346.12 59.35 342.62 57.96 340.68 55.95 338.73 55.07 337.63 54.71 336.47 54.26 336.45 53.33 335.86 52.51 335.18 52.42 334.84 51.75 334.54 51.38 333.81 51.11 332.96 50.77 332.25 48.17 329.6 47.58 328.59 47.17 327.52 46.53 326.71 45.26 326.37 44.87 325.86 46.04 323.63 44.23 322.56 44.27 321.32 44.93 319.23 44.43 318.25 44.08 318.08 43.52 318.15 42.34 317.88 39.99 316.88 38.74 315.92 38.73 314.73 40.07 313.01 40.6 311.42 39.85 309.72 37.74 307.45 37.22 307.31 36.58 307.36 36.03 307.22 35.8 306.54 35.82 305.49 35.73 305 35.48 304.55 34.78 304.16 33.72 303.87 30.34 303.44 29.64 303.36 27.78 302.7 21.16 298.45 19.55 296.95 18.89 295.52 18.07 294.86 14.26 293.75 13.05 293.25 10.75 290.44 9.13 289.18 6.89 288.65 5.82 288.53 4.53 288.18 3.38 287.57 2.68 286.7 2.85 285.92 3.48 285.08 3.86 284.09 3.27 282.82 3.92 282.82 3.42 282.08 2.76 281.46 1.95 281.03 1 280.87 3.17 276.13 5.84 267.14 8.36 258.68 12.5 245.8 15.96 235.04 20.38 221.28 23.63 211.22 27.1 200.17 30.43 189.57 33.51 179.74 36.57 169.98 36.93 163.75 36.93 163.7 36.75 149.88 36.63 140.75 36.53 132.4 36.42 123.77 37.22 121.23 40.68 116.29 42.75 113.47 44.74 110.76 48.98 104.99 53.23 99.21 57.48 93.44 61.72 87.66 63.3 85.4 64.88 83.13 66.46 80.87 68.04 78.61 69.26 76.15 69.89 74.9 71.15 75.95 79.96 81.24 257.28 130.59 263.86 133.22 266.35 135.01 264.42 142.4 264.44 142.81 264.56 143.38 264.92 143.94 266.89 146.37 268.01 148.26 268.54 149.51 269.14 151.74 269.19 152.62 269.15 153.4 268.8 155.91 268.86 156.68 269.12 157.39 271.07 160.62 276.17 167.26 276.7 168.14 277.61 170.18 281.52 194.55 281.54 195.46 281.47 196.27 281.33 196.92 281.16 197.41 280.93 197.82 280.63 198.14 280.12 198.54 270.53 203.97 269.09 205.04 267.7 206.46 267.13 207.31 266.71 208.25 258.15 243.92 256.81 247.7 256.6 248.93 256.6 249.84 258.14 258.58 258.24 261.48 258.5 262.45 259.36 262.77 268.14 262.55 273.37 261.79 307.66 263.02 310.4 263.84 315.08 266.49 Z" id="PRY-598" data-name="Boquerón"/>
<path d="M 552.38 286.04 553.21 286.92 573.29 291.57 577.14 292.97 576.77 293.27 574.55 294.37 574.02 294.73 569.96 300.1 569.27 300.66 566.22 302.57 565.71 303.06 565.33 303.59 565.06 304.14 564.99 304.8 565.43 306.86 565.33 307.58 565 308.11 564.07 308.72 563.84 309.22 563.86 309.91 564.35 311.82 564.41 312.37 564.32 314.16 564.55 315.95 564.5 317.03 564.34 317.91 564.07 318.67 563.89 319.73 564.09 320.61 564.53 321.3 565.42 322.38 565.61 323.08 565.57 323.75 565.27 325.18 565.49 325.84 565.94 326.27 566.47 326.57 566.97 326.93 567.58 327.59 568.39 328.81 569.15 330.69 569.89 334.53 570.48 336.23 570.38 337.22 569.94 337.86 567.84 339.13 567.21 339.8 566.68 340.55 566.45 341.7 566.53 342.02 566.89 342.13 567.46 342.09 568.75 342.11 570.51 341.95 571.02 341.79 571.44 341.54 572.18 340.87 572.61 340.66 573.21 340.77 573.83 341.15 574.67 341.98 575.28 342.44 575.87 342.79 576.45 342.94 577.07 343.01 577.63 342.94 578.14 342.82 579.97 342.05 581.06 341.82 581.51 341.59 581.86 341.24 582.61 339.82 583.6 338.64 583.88 338.18 584.06 337.63 584.37 335.79 584.52 335.23 584.86 334.39 584.95 334.21 585.07 334.04 585.65 333.48 586.47 332.92 586.94 332.7 587.42 332.52 592.44 331.69 592.96 331.55 593.89 331.12 594.3 330.84 594.65 330.49 595.28 329.7 596.39 327.94 596.7 327.54 597.06 327.19 597.49 326.93 598 326.73 599.1 326.5 599.57 326.31 600.01 326.07 602.41 324.34 602.86 324.12 603.36 324.02 603.86 324.03 604.44 324.17 605.83 324.68 606.29 325.2 606.62 325.74 620.24 358.53 620.31 359.12 620.13 360.18 620.02 363.57 619.92 364.12 619.71 364.57 619.36 364.91 618.91 365.1 618.35 365.12 617.84 364.98 616.92 364.57 616.45 364.53 616.07 364.73 615.82 365.14 615.72 365.67 615.73 366.26 615.91 367.27 615.81 367.68 615.45 367.94 614.98 368.14 614.58 368.43 614.3 368.82 614.1 369.31 613.96 369.83 613.89 370.48 613.91 371.27 614.28 372.62 614.31 373.38 614.12 373.9 613.73 374.18 610.07 376.01 609.24 376.56 608.86 376.86 608.51 377.19 608.25 377.61 607.84 378.52 607.5 378.87 606.63 379.35 606.24 379.65 605.9 379.99 605.61 380.38 605.4 380.85 605.27 381.37 604.96 383.7 604.72 384.62 604.62 384.87 604.44 385.21 604.27 385.44 603.82 385.8 600.73 386.98 599.54 388.31 598.78 389.52 597.49 390.42 596.22 391.55 593.96 392.61 593.25 392.69 592.67 392.65 592.06 392.55 591.23 392.51 587.43 393.46 583.21 395.44 582.54 395.67 581.63 395.67 580.26 395.8 577.23 396.44 575.8 396.58 574.93 396.49 574.29 395.82 573.51 395.61 572.35 395.52 569.87 395.77 568.61 395.78 567.69 395.69 565.41 394.54 564.45 394.4 563.09 394.34 557.57 394.62 552.79 393.59 550.5 393.33 549.66 393.41 549.04 393.62 548.21 394.32 547.62 394.74 547 394.91 546.19 394.97 543.78 394.82 542.78 394.96 541.48 395.26 539.64 396.04 538.93 396.17 538.31 396.14 537.57 395.9 536.83 395.75 535.87 395.64 535.17 395.72 534.6 395.91 534.17 396.17 533.79 396.48 533.1 396.85 528.92 398.09 522.13 399.06 517.7 399.02 516.71 399.14 515.99 399.36 514.37 400.17 512.46 400.84 511.44 401.05 510.73 401.09 510.49 401.05 504.19 401.47 503.55 401.41 502.51 401.18 502.06 401.03 499.63 399.78 499.13 399.58 498.68 399.35 497.54 398.91 495.1 398.6 495.48 397.67 495.45 396.98 495.1 396.01 494.48 393.17 494.39 392.41 494.1 391.89 492.8 390.94 492.16 389.88 490.48 388.46 489.91 387.52 489.64 386.16 489.85 385.52 490.41 384.9 491.21 383.63 491.69 382.64 491.87 382.08 491.86 380.04 491.51 379.47 489.94 378.03 488.93 377.3 486.61 374.5 485.78 373.79 485.15 373.37 481.59 371.78 479.68 370.64 478.16 369.24 477.54 367.69 477.59 365.7 477.45 364.1 476.71 362.93 474.94 362.18 471.17 362.16 469.66 361.63 469.05 359.85 468.16 358.75 463.94 356.85 462.51 355.58 464.57 351.81 464.08 349.82 462.84 348.3 459.65 345.56 459.51 344.62 460.44 343.76 461.69 342.91 462.51 341.96 462.61 340.83 462.23 339.96 461.27 338.73 460.66 337.07 460.37 336.58 459.65 335.81 458.77 335.44 456.59 335.55 455.73 335.16 455.14 334.11 454.67 331.88 454.14 330.94 453.34 330.47 451.17 329.93 450.25 329.53 448.19 326.62 449.24 323.78 452.41 321.73 456.74 321.17 460.85 321.81 462.96 321.77 463.87 320.84 463.44 318.8 462.39 317.22 459.98 314.62 458.6 311.7 457.38 300.95 456.86 298.77 456.6 297.71 457.21 297.01 458.97 295.5 458.54 294.42 454.14 289.28 453.21 286.12 452.32 285.12 450.55 284.75 448.14 284.65 446.68 284.16 445.77 282.99 445.01 280.86 444.68 278.6 445.66 272.69 444.97 271.16 444.3 267.18 445.06 266.31 445.07 266.3 445.09 266.31 446.18 267.16 447.03 268.67 448.21 269.85 451.42 270.85 452.44 270.85 454.08 270.2 454.73 270.11 455.54 270.55 456.88 271.93 457.34 272.25 458.49 272 460.01 270.79 460.99 270.82 461.95 271.04 462.69 270.92 463.84 270.38 463.62 270.22 463.65 269.72 463.82 269.16 464.01 268.83 464.36 268.81 465.28 269.12 465.67 269.11 467.55 268.45 468.79 268.55 470.06 268.9 471.99 268.98 473.04 268.71 473.77 268.32 474.45 268.16 475.32 268.53 476.8 272.33 477.91 274.28 479.16 275.41 480.81 275.79 483.08 275.48 483.91 275.16 484.3 274.9 484.8 274.77 485.97 274.89 486.7 275.16 488.93 276.53 492.6 275.72 493.41 275.73 495.38 276.45 496.42 276.52 497.79 277.01 500.91 278.85 501.51 278.86 501.85 278.28 502.65 278.46 504.11 279.23 505.19 279.21 505.67 278.71 505.84 278.11 505.96 277.82 507.43 277.94 511.67 278.9 513.49 278.6 515.86 276.76 517.16 276.47 517.57 276.84 517.86 278.3 518.52 278.81 519.42 278.88 520.03 278.63 520.57 278.29 521.28 278.14 522.82 278.35 525.67 279.35 526.54 279.77 526.58 279.97 526.71 280.38 527.16 280.78 528.84 281.05 529.38 281.21 529.94 281.26 530.66 280.98 531.81 280.7 534.84 280.92 536.4 280.81 538.75 281.52 539.77 281.55 540.83 280.9 540.74 282.43 541.21 282.8 542.01 282.68 542.91 282.72 544.59 283.51 545.55 283.56 546.61 281.1 547.71 282.55 548.69 284.93 548.9 286.13 551.13 286.44 552.38 286.05 552.38 286.04 Z" id="PRY-603" data-name="Concepción"/>
<path d="M 585.45 545.5 580.78 570.68 578.87 576.59 555.57 591.49 555.05 592.14 555.13 593.02 555.63 594.23 561.13 604.52 561.2 604.74 561.54 605.48 557.58 604.06 556.88 603.96 555.88 603.92 554.83 604.39 553.93 604.93 553.26 605.44 552.65 605.8 551.98 606.12 551.27 606.3 550.61 606.35 547.7 606.16 546.92 605.93 546.25 605.56 545.97 604.93 546.04 604.56 546.38 604.21 547.57 603.25 548.72 602.09 549 601.61 549.11 601.17 549.09 600.75 548.96 600.38 548.38 599.24 548.12 598.53 547.61 596.12 547.27 595.32 546.71 594.65 545.48 594.39 544.51 594.36 537.44 594.75 536.65 594.69 534.96 594.36 532.76 593.69 531.63 593.49 529.09 593.38 527.63 592.45 526.77 591.71 522.1 583.81 520.17 580.94 519.1 579.86 518.5 579.8 518.08 579.91 517.58 580.22 516.92 580.78 516.56 581.01 515.98 581.16 515.33 581.16 514.66 580.92 514.04 580.48 513.1 579.31 509.8 573.84 509.22 572.02 508.95 570.59 508.44 569.38 507.25 567.73 504.37 564.88 501.46 560.34 500.55 559.51 496.73 557.29 496.42 557.02 494.26 554.11 497.37 554.11 498.07 553.71 499.84 551.92 500.64 551.52 501.58 551.34 502.7 550.89 503.84 550.27 504.82 549.57 509.42 544 510.36 541.77 512.6 541.54 515.18 542.15 517.2 542.39 518.94 543.49 525.14 546.09 528.38 546.96 530.16 547.13 531.89 547 533.79 546.38 534.83 545.72 535.36 545.15 535.53 544.68 535.58 544.26 535.57 543.9 535.41 543.28 535.37 542.95 535.41 542.44 535.52 541.89 535.69 541.56 536 541.24 536.87 540.72 537.61 540.37 538.9 539.99 553.89 537.44 559.09 536.07 565.49 535.39 566.96 535.55 575.84 538.81 577.47 539.81 580.98 543.43 581.45 543.71 581.91 544.06 585.45 545.5 Z" id="PRY-604" data-name="Cordillera"/>
<path d="M 456.86 298.77 457.38 300.95 458.6 311.7 459.98 314.62 462.39 317.22 463.44 318.8 463.87 320.84 462.96 321.77 460.85 321.81 456.74 321.17 452.41 321.73 449.24 323.78 448.19 326.62 450.25 329.53 451.17 329.93 453.34 330.47 454.14 330.94 454.67 331.88 455.14 334.11 455.73 335.16 456.59 335.55 458.77 335.44 459.65 335.81 460.37 336.58 460.66 337.07 461.27 338.73 462.23 339.96 462.61 340.83 462.51 341.96 461.69 342.91 460.44 343.76 459.51 344.62 459.65 345.56 462.84 348.3 464.08 349.82 464.57 351.81 462.51 355.58 463.94 356.85 468.16 358.75 469.05 359.85 469.66 361.63 471.17 362.16 474.94 362.18 476.71 362.93 477.45 364.1 477.59 365.7 477.54 367.69 478.16 369.24 479.68 370.64 481.59 371.78 485.15 373.37 485.78 373.79 486.61 374.5 488.93 377.3 489.94 378.03 491.51 379.47 491.86 380.04 491.87 382.08 491.69 382.64 491.21 383.63 490.41 384.9 489.85 385.52 489.64 386.16 489.91 387.52 490.48 388.46 492.16 389.88 492.8 390.94 494.1 391.89 494.39 392.41 494.48 393.17 495.1 396.01 495.45 396.98 495.48 397.67 495.1 398.6 494.9 399.69 494.07 401.46 493.8 402.49 493.82 403.65 494.27 405.66 494.39 406.7 494.7 408.03 497.04 412.21 499.67 414.85 506.52 418.37 509.42 420.69 510.84 422.23 511.27 423 511.3 424 510.76 424.88 509.07 425.48 508.71 426.2 509.03 427.13 509.74 427.8 510.46 428.33 510.77 428.86 510.73 429.59 510.07 432.42 509.8 435.37 509.42 436.31 507.25 437.66 506.88 437.96 506.56 438.44 505.85 439.14 505.14 440.07 504.82 441.2 505.32 441.89 506.47 442.06 507.77 442.05 508.71 442.2 510.45 444.13 510.89 446.48 511.06 448.97 512.01 451.34 513.88 450.74 515.46 451.66 516.2 453.31 515.58 454.85 514.98 455.69 514.88 456.67 515.28 457.48 516.23 457.82 519.62 457.62 520.5 457.82 521.98 459.64 521.11 461.51 519.45 463.37 518.68 464.97 516.96 466.78 516.6 467.28 516.51 467.67 516.47 468.24 516.59 469.45 516.87 470.26 517.28 470.96 519.1 472.79 519.84 473.79 520.86 475.55 521.23 476.78 521.77 482.66 522.52 485.47 523.54 492.23 523.98 493.58 525.07 495.97 524.91 496.9 524.06 499.94 523.63 503.83 523.7 505.74 524.07 507.01 524.74 508.19 525.44 509.39 526.72 510.11 528.2 511.3 528.85 512.81 526.81 516.61 526.38 518.41 525.85 519.89 524.39 520.88 523.28 520.94 522.45 520.61 521.62 520.43 520.5 520.88 520.19 521.55 518.74 526.99 513.85 533.13 513.87 533.68 514.67 534.55 515.51 534.64 516.33 534.12 516.95 534.07 517.2 535.55 516.99 536.62 516.67 537.49 516.7 538.36 517.52 539.44 518.61 540.56 518.97 541.36 518.52 541.93 517.2 542.39 515.18 542.15 512.6 541.54 510.36 541.77 509.42 544 504.82 549.57 503.84 550.27 502.7 550.89 501.58 551.34 500.64 551.52 499.84 551.92 498.07 553.71 497.37 554.11 494.26 554.11 491.53 554.11 488.87 553.59 487.73 553.8 487.26 555.08 486.93 557.49 486.05 560.11 484.81 562.58 483.37 564.54 482.07 565.69 480.89 566.24 478.19 567.02 476.78 567.76 475.7 568.64 473.66 570.95 470.78 569.15 468.93 566.8 465.87 560.61 464.73 559.37 461.76 558.05 460.33 557.08 456.14 552.62 454.79 551.53 452.91 550.9 445.39 550.88 444.06 550.48 443.48 549.52 443.12 548.44 442.47 547.65 441.59 547.47 439.47 547.71 438.52 547.65 431.93 544.6 430.74 544.66 429.81 543.23 421.24 537.85 419.49 537.9 417.91 538.97 415.24 541.51 414.1 542.27 412.9 542.83 411.82 542.98 410.62 542.66 410.11 542.12 409.82 541.38 409.23 540.45 403.14 534.23 400.88 531.36 399.72 530.31 397.57 529.32 376.61 525.59 376.12 525.14 375.88 524.38 375.29 523.98 374.54 523.67 373.85 523.18 372.5 522.81 367.66 522.7 365.69 522.24 347.49 509.65 344.47 508.97 343.55 508.36 341.64 506.63 340.72 506.1 340.14 505.99 338.35 505.97 336.47 505.34 332.92 503.2 330.68 502.49 327.97 500.73 324.02 499.49 323.11 498.83 322.59 498.19 321.9 497.69 320.46 497.49 319.56 497.19 318.32 495.84 315.2 494.78 313.64 493.02 311.71 489.65 310.82 488.73 307.13 485.76 304.83 484.8 304.49 484.05 304.25 483.19 303.93 482.53 303.34 482.06 301.28 481.22 299.11 480.08 298.1 479.35 297.06 478.31 296.31 477.81 294.56 477.49 292.94 476.58 290.56 476.3 289.61 475.98 288.93 475.4 287.26 473.31 283.62 469.89 249.44 449.16 247.72 448.76 245.76 448.95 241.31 450.41 239.03 450.88 231.92 451.09 224.49 450.05 221.49 450.2 220.6 450.05 219.59 449.52 217.73 447.99 216.71 447.4 215.85 447.27 212.47 447.4 206.6 446.34 203.48 444.29 201.75 443.51 198.35 443.37 197.8 443.19 196.28 440.16 196.18 439.62 195.3 439.44 193.66 438.6 192.61 438.26 191.52 438.18 187.15 438.39 186.23 438.17 184.29 436.63 183.39 436.35 177.84 436.48 177.84 436.46 177.37 424.28 177.45 423.64 177.73 423.04 178.97 421.03 179.34 419.94 179.99 416.57 180.53 415.73 181.38 414.92 182.96 414.17 184.27 413.78 191.09 412.76 194.48 411.42 197.45 409.93 198.74 409.43 200.03 409.18 230.78 407.6 234.1 407.01 236.35 406.21 245.8 401.53 246.54 401.06 246.59 401.01 247.47 392.56 248.35 388.84 249.53 385.43 253.81 377.41 254.85 374.64 255.16 373.03 254.88 371.98 254.1 370.27 253.9 369.61 253.87 368.99 256.46 362.51 256.96 360.56 257.16 358.98 256.47 354.48 256.69 350.14 256.34 345.35 256.52 344.26 257.41 341.26 257.63 340 257.63 337.57 257.96 336.03 258.86 334.16 277.22 308.83 277.81 307.63 278 306.18 277.99 305.78 277.4 301.38 277.58 300.31 278.17 299.52 279.56 298.85 281.11 298.62 286.57 298.6 288 298.31 289.04 297.72 289.73 296.48 289.84 295.76 289.7 295.15 288.46 292.89 288.25 292.14 288.22 291.42 288.37 290.45 288.56 289.91 289.07 288.85 289.86 287.8 291.13 286.67 300.89 281.21 302.23 280.75 303.52 280.46 304.5 280.93 305.24 281.42 306.13 282.22 306.87 282.72 307.65 283.15 308.27 283.33 308.78 283.28 311.05 282.28 316.95 278.9 318.37 277.73 318.69 277.18 318.42 275.89 315.08 266.49 325.72 271.98 329.31 273.35 331.55 273.89 333.09 274.01 347.72 273.5 367.98 275.08 372.93 274.57 417.53 277.41 419.95 278.03 421.3 278.97 421.98 283.49 422.74 284.45 424.09 285.28 456.86 298.77 Z" id="PRY-605" data-name="Presidente Hayes"/>
<path d="M 626.79 434.11 632.64 448.47 633.13 450.65 632.96 451.32 632.36 451.19 632.13 451.18 631.71 451.19 631.32 451.34 630.9 451.58 629.47 452.87 628.27 454.37 626.11 456.3 624.89 457.79 624.51 458.08 624.03 458.29 621.71 458.76 621.23 458.98 620.81 459.23 620.41 459.52 618.56 461.82 618.27 462.3 617.83 463.76 617.91 465.87 617.35 470.31 617.36 472.12 617.54 473.33 619.58 474.95 620.1 475.48 620.49 476.36 620.74 477.42 621.15 480.52 621.54 481.98 622.05 483.13 622.59 484.05 623.25 484.81 624.05 485.52 624.82 486.01 625.69 486.4 627.48 486.96 628.2 487.29 628.75 487.76 629.19 488.35 631.16 492.52 636.19 498.96 638.23 502.76 639.6 506.72 640.61 508.78 641.66 510.11 644.47 511.73 646.06 512.94 647.9 514.73 648.74 516.92 649.43 518.29 650.04 519.29 650.99 520.04 656.06 522.8 644.85 525.54 637.21 528.43 635.26 529.87 633.87 531.42 629.7 538.95 628.88 540.05 628.06 540.73 627.24 540.38 622.82 536.62 619.59 533.27 618.96 532.81 618.36 532.49 614.01 530.99 613.06 530.39 612.39 529.73 612.12 529.04 612.06 528.27 612.14 527.57 612.52 526.12 612.45 525.1 612.04 523.94 610.83 522.95 609.97 522.86 608.94 523.37 608.03 524.24 607.25 525.21 606.61 526.39 606.15 527.53 605.28 528.83 604.03 530 599.92 532.21 598.92 533.01 598.34 533.97 597.91 534.95 597.2 536.04 596.26 536.93 593.36 538.39 592.37 539.01 585.45 545.5 581.91 544.06 581.45 543.71 580.98 543.43 577.47 539.81 575.84 538.81 566.96 535.55 565.49 535.39 559.09 536.07 553.89 537.44 538.9 539.99 537.61 540.37 536.87 540.72 536 541.24 535.69 541.56 535.52 541.89 535.41 542.44 535.37 542.95 535.41 543.28 535.57 543.9 535.58 544.26 535.53 544.68 535.36 545.15 534.83 545.72 533.79 546.38 531.89 547 530.16 547.13 528.38 546.96 525.14 546.09 518.94 543.49 517.2 542.39 518.52 541.93 518.97 541.36 518.61 540.56 517.52 539.44 516.7 538.36 516.67 537.49 516.99 536.62 517.2 535.55 516.95 534.07 516.33 534.12 515.51 534.64 514.67 534.55 513.87 533.68 513.85 533.13 518.74 526.99 520.19 521.55 520.5 520.88 521.62 520.43 522.45 520.61 523.28 520.94 524.39 520.88 525.85 519.89 526.38 518.41 526.81 516.61 528.85 512.81 528.2 511.3 526.72 510.11 525.44 509.39 524.74 508.19 524.07 507.01 523.7 505.74 523.63 503.83 524.06 499.94 524.91 496.9 525.07 495.97 523.98 493.58 523.54 492.23 522.52 485.47 521.77 482.66 521.23 476.78 520.86 475.55 519.84 473.79 519.1 472.79 517.28 470.96 516.87 470.26 516.59 469.45 516.47 468.24 516.51 467.67 516.6 467.28 516.96 466.78 518.68 464.97 519.45 463.37 521.11 461.51 521.98 459.64 520.5 457.82 519.62 457.62 516.23 457.82 515.28 457.48 514.88 456.67 514.98 455.69 515.58 454.85 516.2 453.31 515.46 451.66 513.88 450.74 512.01 451.34 511.06 448.97 510.89 446.48 510.45 444.13 508.71 442.2 507.77 442.05 506.47 442.06 505.32 441.89 504.82 441.2 505.14 440.07 505.85 439.14 506.56 438.44 506.88 437.96 507.25 437.66 509.42 436.31 509.8 435.37 510.07 432.42 510.73 429.59 510.77 428.86 510.46 428.33 509.74 427.8 509.03 427.13 508.71 426.2 509.07 425.48 510.76 424.88 511.3 424 511.27 423 510.84 422.23 509.42 420.69 506.52 418.37 499.67 414.85 497.04 412.21 494.7 408.03 494.39 406.7 494.27 405.66 493.82 403.65 493.8 402.49 494.07 401.46 494.9 399.69 495.1 398.6 497.54 398.91 498.68 399.35 499.13 399.58 499.63 399.78 502.06 401.03 502.51 401.18 503.55 401.41 504.19 401.47 510.49 401.05 510.73 401.09 511.44 401.05 512.46 400.84 514.37 400.17 515.99 399.36 516.71 399.14 517.7 399.02 522.13 399.06 528.92 398.09 533.1 396.85 533.79 396.48 534.17 396.17 534.6 395.91 535.17 395.72 535.87 395.64 536.83 395.75 537.57 395.9 538.31 396.14 538.93 396.17 539.64 396.04 541.48 395.26 542.78 394.96 543.78 394.82 546.19 394.97 547 394.91 547.62 394.74 548.21 394.32 549.04 393.62 549.66 393.41 550.5 393.33 552.79 393.59 557.57 394.62 563.09 394.34 564.45 394.4 565.41 394.54 567.69 395.69 568.61 395.78 569.87 395.77 572.35 395.52 573.51 395.61 574.29 395.82 574.93 396.49 575.8 396.58 577.23 396.44 580.26 395.8 581.63 395.67 582.54 395.67 583.21 395.44 587.43 393.46 591.23 392.51 592.06 392.55 592.67 392.65 593.25 392.69 593.96 392.61 596.22 391.55 597.49 390.42 598.78 389.52 599.54 388.31 600.73 386.98 603.82 385.8 604.82 386.46 605.23 386.34 606.01 385.99 607.06 385.27 609.28 384.17 611.07 383.73 613.06 383.46 614.11 383.21 614.98 382.79 615.46 382.73 616.96 383.15 618.21 383.35 622.21 383.55 623.58 383.89 624.4 384.33 625.15 384.97 625.61 385.62 625.81 386.24 625.78 386.79 625.55 387.4 625.06 388.35 624.92 388.87 625.05 389.33 625.49 389.93 627.09 391.22 627.46 391.61 627.85 392.19 628.16 392.87 628.3 393.39 628.32 393.74 628.21 394.25 627.99 394.75 627.36 395.61 626.56 396.47 618.71 402.43 618.37 402.9 618.4 403.55 618.62 404.37 619.1 405.62 619.87 407.22 621.57 410 622.75 411.21 623.71 411.84 624.2 411.83 624.73 411.57 626.18 410.47 626.84 410.05 627.91 409.57 628.42 409.24 628.76 408.79 628.98 408.19 629.1 407.35 629.06 405.98 629.16 405.47 629.55 405.18 630.4 404.86 636.2 403.79 637.51 403.75 638.46 403.89 638.7 404.24 638.72 404.7 638.5 405.78 638.41 407 638.76 410.5 638.69 411.06 638.56 411.58 637.92 412.96 637.34 413.73 636.33 414.75 634.22 417.35 634.03 417.76 634.08 418.22 634.54 419.69 634.81 422 634.78 424.44 634.71 425.02 634.57 425.54 634.16 426.48 632.51 429.33 632 430.93 631.82 431.25 631.61 431.46 628.41 433.63 627.53 433.99 626.79 434.11 Z" id="PRY-606" data-name="San Pedro"/>
<path d="M 494.26 554.11 496.42 557.02 496.73 557.29 500.55 559.51 501.46 560.34 504.37 564.88 507.25 567.73 508.44 569.38 508.95 570.59 509.22 572.02 509.8 573.84 513.1 579.31 514.04 580.48 514.66 580.92 515.33 581.16 515.98 581.16 516.56 581.01 516.92 580.78 517.58 580.22 518.08 579.91 518.5 579.8 519.1 579.86 520.17 580.94 522.1 583.81 518.22 586 515.47 588.25 514.83 588.98 506.83 600.65 503.75 603.9 500.37 606.88 499.23 608.33 498.2 610.24 497.01 613.51 496.65 616.31 496.79 618.43 499 624.93 499.19 626.61 498.82 628.67 496.28 633.06 494.1 635.59 489.65 639.43 488.4 636.74 486.01 633.9 485.48 632.97 485.2 632.15 485.05 631.15 484.73 630.56 484.33 630.13 482.4 629.36 481.4 628.86 478.89 626.92 476.68 625.63 474.59 623.97 473.31 622.72 472.02 621.17 471.27 620.59 470.64 620.31 470.04 620.32 468.04 620.74 467.45 620.79 466.8 620.7 464.9 620.06 464.41 620.01 463.97 620.09 463.58 620.39 463.36 620.81 463.28 621.59 463.39 623.19 463.37 623.85 463.25 624.25 462.73 624.56 462.24 624.72 459.96 624.26 459.64 624.11 460.29 623.68 461.33 622.37 459.89 619.15 459.55 617.32 460.98 616.53 462.72 615.98 464.55 614.7 466.15 613.2 467.17 612 466.15 611.75 465.25 611.38 464.5 610.84 463.92 610.05 465.9 607.31 467.08 606.28 469.11 605.51 470.17 605.42 471.17 605.49 472.11 605.4 473 604.86 473.35 604.13 473.84 602.01 474.03 601.57 476.81 601.9 478.3 601.86 478.95 601.27 479.39 599.06 480.43 598.39 481.71 598.09 482.84 597.02 483.34 595.33 484.58 587.09 484.47 585.54 483.79 584.3 482.51 583 480.73 581.73 482.96 579.83 485.33 577.47 486.27 573.68 485.8 570.14 484.38 567.77 482.07 565.69 483.37 564.54 484.81 562.58 486.05 560.11 486.93 557.49 487.26 555.08 487.73 553.8 488.87 553.59 491.53 554.11 494.26 554.11 Z" id="PRY-607" data-name="Central"/>
<path d="M 668.04 605.18 667.48 606.22 667.21 606.62 666.48 607.94 665.24 610.99 664.65 611.94 663.79 612.75 662.63 613.04 661.75 612.97 660.91 612.71 660.01 612.65 659.05 612.89 657.65 614 656.95 614.85 655.96 616.71 655.48 617.24 654.23 617.88 645.72 621.05 644.45 621.74 642.11 623.38 641.05 623.83 637.65 624.47 636.52 624.92 634.74 626.35 633.53 627.02 630.41 627.82 629.22 628.31 628.38 629.3 627.91 630.19 625.91 637.53 625.62 638.32 625.53 638.49 625.37 638.7 623.01 640.13 617.66 642.55 615.9 642.38 612.13 640.16 609.53 638.23 609.09 637.97 608.3 637.61 607.17 637.62 605.79 637.96 601.12 639.82 600.23 639.86 599.57 639.7 598.95 639.36 598.33 639.35 597.54 639.7 596.78 640.89 596.44 641.98 596.29 643.12 595.91 644.17 595.14 644.9 593.58 645.41 588.94 645.59 587.59 645.98 586.59 646.71 585.57 648.28 584.95 649.9 584.31 654.09 583.52 654.88 582.17 655.35 579.77 655.09 576.72 655.07 570.39 644.52 569.82 643.28 569.42 641.91 568.91 638.29 568.84 638.09 568.79 637.57 568.9 636.98 569.45 636.34 570.07 636.01 574.13 635.11 575.07 634.65 575.53 633.68 575.53 632.26 574.62 629.62 573.81 628.2 571.55 625.56 570.85 624.47 570.19 623.03 569.23 620.06 568.67 617.16 568.56 615.5 568.73 613.93 569.4 612.23 570.99 610.88 573.06 609.75 578.29 607.47 579.24 606.93 583.75 603.07 585.02 602.33 586.64 601.79 589.62 601.32 590.85 600.99 591.94 600.56 594.81 598.91 596.44 598.45 598.31 598.29 609.03 598.74 611.7 598.52 613.1 598.58 615.88 599.03 623.56 599.3 624.61 599.83 625.4 600.55 626.56 601.08 628.02 601.33 638.22 601.08 639.96 601.34 641.9 602.06 643.18 602.9 644.26 603.9 646.24 606.07 647.45 607.05 648.72 607.69 651.13 607.85 654.12 607.49 659.87 605.88 665.59 603.72 666.44 603.77 666.94 603.95 668.04 605.18 Z" id="PRY-608" data-name="Guairá"/>
<path d="M 558.02 689.72 560.77 691.27 561.33 691.89 562.17 693.05 562.92 694.4 564.67 696.96 566.24 698.26 570.26 700.7 571.67 701.28 573.05 701.54 576.04 701.59 577.66 702.02 578.48 702.81 578.67 703.63 578.46 704.45 578.03 705.46 577.91 705.93 577.89 706.15 578.07 706.96 581.9 741.52 581.69 744.81 580.82 746.4 575.99 746.94 575.31 747.18 574.42 747.68 571.96 750.16 571.15 750.82 570.22 751.29 569.29 752.26 568.42 753.74 567.15 757.64 566.87 759.67 567.04 761.23 567.62 762.05 568.29 762.75 571.62 765.57 572.08 766.11 572.43 766.85 572.41 767.36 572.09 767.93 571.81 768.34 571.42 769.09 571.33 769.64 571.83 776.29 571.83 776.32 567.55 777.44 562.69 780.83 559.19 781.43 559.15 781.41 555.74 779.54 549.87 774.29 546.54 773.07 546.53 773.07 543.06 773.39 539.61 774.65 530.22 779.27 527.11 779.9 523.39 779.74 522.58 779.63 520.36 779.59 520.33 779.58 519.31 779.29 518.43 778.79 515.9 776.87 514.95 776.45 514.9 776.43 510.59 775.38 509.69 775.16 508.69 774.67 508.02 774.07 508.06 773.95 509.8 767.64 518.28 746.03 518.86 742.4 518.13 740.91 515.42 740.22 498.13 737.86 497.42 737.52 486.49 726.08 478.62 716.04 477.77 714.18 477.19 712.51 470.48 677.54 473.71 679.03 475.29 681.03 475.93 681.44 477.03 681.99 477.59 682.65 478.09 683.55 478.77 685.23 479.1 685.9 479.72 686.56 482.13 687.82 482.78 688.45 483.37 689.28 484.08 690.04 485.36 690.65 492.26 692.02 493.53 692.62 494.17 693.42 495.14 694.28 496.48 694.91 499.01 695.52 500.54 696.5 502.61 697.34 505.13 697.55 513.5 695.88 518.39 694.34 519.63 693.6 520.27 692.67 520.41 691.58 520.42 690.12 520.56 688.86 521.09 688 521.9 687.43 523.3 686.94 523.97 686.43 524.34 686.04 524.49 685.6 524.8 685.13 525.31 684.53 526.33 684.09 526.8 683.57 527.16 682.88 527.42 682 527.96 680.85 528.84 679.62 529.95 678.57 531.43 677.52 532.01 677.24 532.73 676.97 533.73 676.73 534.7 676.62 535.59 676.64 536.42 676.78 537.12 677 542.76 679.67 544.77 680.91 547.92 683.26 549.69 684.25 551.47 684.45 552.59 684.16 553.78 684.52 554.61 684.88 558.02 689.72 Z" id="PRY-609" data-name="Misiones"/>
<path d="M 489.65 639.43 492.29 653.27 492.17 654.25 491.77 654.93 479.15 666.3 475.48 672.72 474.37 674.2 472.34 675.61 470.48 677.54 477.19 712.51 477.77 714.18 478.62 716.04 486.49 726.08 497.42 737.52 498.13 737.86 515.42 740.22 518.13 740.91 518.86 742.4 518.28 746.03 509.8 767.64 508.06 773.95 508.02 774.07 506.48 772.71 505.63 772.2 503.62 771.71 503.24 771.62 500.75 771.63 491.16 772.85 488.72 772.64 488.1 772.44 486.6 771.98 471.21 764.98 471.17 764.97 470.11 764.63 460.41 762.82 460.38 762.81 456.3 761.57 456.28 761.56 452.06 760.75 450.74 760.5 447.83 759.39 447.8 759.39 442.17 758.32 440.43 757.99 440.42 757.99 437.44 757.91 431.69 758.85 430.29 758.92 419.9 757.72 394.02 759.75 385.54 763.03 385.15 763.35 385.16 763.28 385.56 758.59 385.4 756.64 384.22 754.84 381.88 753.27 380.58 752.12 380.01 750.89 380.49 748.16 381.87 746.22 384.02 745.07 388.83 744.33 389.3 743.34 389.12 741.88 389.14 740.17 389.38 739.33 389.69 738.59 390.14 737.89 390.73 737.22 391.6 736.76 391.62 736.75 392.15 737.17 392.39 737.85 392.39 738.23 392.48 738.46 393.14 738.86 393.17 738.87 393.95 739.03 394.33 738.55 394.41 736.97 394.58 736.31 394.92 735.57 395.77 734.24 397.46 732.38 398.21 731.03 396.79 729.88 396.6 728.63 397.38 727.43 398.86 726.5 403.07 725.49 405.12 724.74 406 723.55 406.94 722.64 409.17 722.48 411.29 722.32 412.54 721.37 411.93 719.72 410.2 718.55 409.06 717.23 410.23 715.15 411.82 714.7 413.51 715.2 415.12 715.42 416.43 714.18 416.08 713.4 415.31 712.31 415.18 711.35 416.75 710.94 417.9 710.96 418.61 710.84 418.98 710.36 419.24 702.96 419.67 701.15 420.16 700.07 420.46 699.96 420.95 700.28 423.94 700.8 425.06 700.73 425.56 700.15 425.3 699.29 424.75 698.53 424.28 697.68 424.26 696.56 424.62 696.27 426.23 695.21 426.86 694.61 426.33 694.09 425.49 692.74 424.91 692.02 422.77 690.61 422.26 690.08 421.88 688.47 422.18 687.02 422.7 685.55 422.97 683.89 423.27 683.15 424.61 682.24 424.91 681.26 422.62 679.32 422.29 678.12 422.94 676.61 426.12 671.54 426.6 670.19 426.86 668.62 426.38 665.58 426.38 664.04 427.15 663.38 428.66 663.07 430.81 662.26 432.46 661.12 432.4 659.84 431.01 658.95 429.5 658.26 428.38 657.3 428.15 655.6 429.11 655.92 429.87 656.32 430.4 656.86 430.74 657.55 431.58 656.51 432.43 654.54 433.34 651.35 434.3 650.45 440.47 648.41 443.64 646.78 454.6 639.35 455.84 637.83 455.85 636.57 451.46 635.4 452.18 633.97 455.5 631.5 456.08 630.77 456.63 629.68 456.53 628.69 454.35 627.95 454.08 627.28 454.35 626.62 456.36 625.93 458.35 624.97 459.64 624.11 459.96 624.26 462.24 624.72 462.73 624.56 463.25 624.25 463.37 623.85 463.39 623.19 463.28 621.59 463.36 620.81 463.58 620.39 463.97 620.09 464.41 620.01 464.9 620.06 466.8 620.7 467.45 620.79 468.04 620.74 470.04 620.32 470.64 620.31 471.27 620.59 472.02 621.17 473.31 622.72 474.59 623.97 476.68 625.63 478.89 626.92 481.4 628.86 482.4 629.36 484.33 630.13 484.73 630.56 485.05 631.15 485.2 632.15 485.48 632.97 486.01 633.9 488.4 636.74 489.65 639.43 Z" id="PRY-610" data-name="Ñeembucú"/>
<path d="M 561.54 605.48 564.53 607.45 566.58 609.82 567.38 610.26 567.94 610.51 570.99 610.88 569.4 612.23 568.73 613.93 568.56 615.5 568.67 617.16 569.23 620.06 570.19 623.03 570.85 624.47 571.55 625.56 573.81 628.2 574.62 629.62 575.53 632.26 575.53 633.68 575.07 634.65 574.13 635.11 570.07 636.01 569.45 636.34 568.9 636.98 568.79 637.57 568.84 638.09 568.91 638.29 569.42 641.91 569.82 643.28 570.39 644.52 576.72 655.07 576 658.12 575.55 658.96 572.27 662.36 571.56 663.47 570.59 667.04 570.25 670.45 570.01 671.3 569.56 672.03 567.6 673.3 567.24 673.79 567.07 674.38 567.13 675.29 567.35 676.14 567.26 677.05 566.82 678.06 565.56 679.23 564.97 679.99 564.6 681.09 564.5 682.16 564.08 683.35 563.26 684.47 561.44 685.9 560.3 686.57 558.97 687.58 558.02 689.72 554.61 684.88 553.78 684.52 552.59 684.16 551.47 684.45 549.69 684.25 547.92 683.26 544.77 680.91 542.76 679.67 537.12 677 536.42 676.78 535.59 676.64 534.7 676.62 533.73 676.73 532.73 676.97 532.01 677.24 531.43 677.52 529.95 678.57 528.84 679.62 527.96 680.85 527.42 682 527.16 682.88 526.8 683.57 526.33 684.09 525.31 684.53 524.8 685.13 524.49 685.6 524.34 686.04 523.97 686.43 523.3 686.94 521.9 687.43 521.09 688 520.56 688.86 520.42 690.12 520.41 691.58 520.27 692.67 519.63 693.6 518.39 694.34 513.5 695.88 505.13 697.55 502.61 697.34 500.54 696.5 499.01 695.52 496.48 694.91 495.14 694.28 494.17 693.42 493.53 692.62 492.26 692.02 485.36 690.65 484.08 690.04 483.37 689.28 482.78 688.45 482.13 687.82 479.72 686.56 479.1 685.9 478.77 685.23 478.09 683.55 477.59 682.65 477.03 681.99 475.93 681.44 475.29 681.03 473.71 679.03 470.48 677.54 472.34 675.61 474.37 674.2 475.48 672.72 479.15 666.3 491.77 654.93 492.17 654.25 492.29 653.27 489.65 639.43 494.1 635.59 496.28 633.06 498.82 628.67 499.19 626.61 499 624.93 496.79 618.43 496.65 616.31 497.01 613.51 498.2 610.24 499.23 608.33 500.37 606.88 503.75 603.9 506.83 600.65 514.83 588.98 515.47 588.25 518.22 586 522.1 583.81 526.77 591.71 527.63 592.45 529.09 593.38 531.63 593.49 532.76 593.69 534.96 594.36 536.65 594.69 537.44 594.75 544.51 594.36 545.48 594.39 546.71 594.65 547.27 595.32 547.61 596.12 548.12 598.53 548.38 599.24 548.96 600.38 549.09 600.75 549.11 601.17 549 601.61 548.72 602.09 547.57 603.25 546.38 604.21 546.04 604.56 545.97 604.93 546.25 605.56 546.92 605.93 547.7 606.16 550.61 606.35 551.27 606.3 551.98 606.12 552.65 605.8 553.26 605.44 553.93 604.93 554.83 604.39 555.88 603.92 556.88 603.96 557.58 604.06 561.54 605.48 Z" id="PRY-611" data-name="Paraguarí"/>
<path d="M 676.67 403.91 676.61 403.94 675.7 404.57 674.76 405.97 673.07 410.22 672.29 413.89 671.65 414.87 670.59 415.8 666.69 417.9 665.88 418.19 665.01 418.4 662.35 418.44 660.96 418.99 658.93 420.12 649.1 426.76 645.05 428.86 644.08 429.72 642.75 431.89 642.17 432.49 641.27 433.05 638.83 433.96 636.47 434.48 633.08 434.76 632.33 435.02 631.54 435.4 631.04 435.59 630.51 435.68 629.9 435.61 629.32 435.43 627.93 434.83 626.79 434.11 627.53 433.99 628.41 433.63 631.61 431.46 631.82 431.25 632 430.93 632.51 429.33 634.16 426.48 634.57 425.54 634.71 425.02 634.78 424.44 634.81 422 634.54 419.69 634.08 418.22 634.03 417.76 634.22 417.35 636.33 414.75 637.34 413.73 637.92 412.96 638.56 411.58 638.69 411.06 638.76 410.5 638.41 407 638.5 405.78 638.72 404.7 638.7 404.24 638.46 403.89 637.51 403.75 636.2 403.79 630.4 404.86 629.55 405.18 629.16 405.47 629.06 405.98 629.1 407.35 628.98 408.19 628.76 408.79 628.42 409.24 627.91 409.57 626.84 410.05 626.18 410.47 624.73 411.57 624.2 411.83 623.71 411.84 622.75 411.21 621.57 410 619.87 407.22 619.1 405.62 618.62 404.37 618.4 403.55 618.37 402.9 618.71 402.43 626.56 396.47 627.36 395.61 627.99 394.75 628.21 394.25 628.32 393.74 628.3 393.39 628.16 392.87 627.85 392.19 627.46 391.61 627.09 391.22 625.49 389.93 625.05 389.33 624.92 388.87 625.06 388.35 625.55 387.4 625.78 386.79 625.81 386.24 625.61 385.62 625.15 384.97 624.4 384.33 623.58 383.89 622.21 383.55 618.21 383.35 616.96 383.15 615.46 382.73 614.98 382.79 614.11 383.21 613.06 383.46 611.07 383.73 609.28 384.17 607.06 385.27 606.01 385.99 605.23 386.34 604.82 386.46 603.82 385.8 604.27 385.44 604.44 385.21 604.62 384.87 604.72 384.62 604.96 383.7 605.27 381.37 605.4 380.85 605.61 380.38 605.9 379.99 606.24 379.65 606.63 379.35 607.5 378.87 607.84 378.52 608.25 377.61 608.51 377.19 608.86 376.86 609.24 376.56 610.07 376.01 613.73 374.18 614.12 373.9 614.31 373.38 614.28 372.62 613.91 371.27 613.89 370.48 613.96 369.83 614.1 369.31 614.3 368.82 614.58 368.43 614.98 368.14 615.45 367.94 615.81 367.68 615.91 367.27 615.73 366.26 615.72 365.67 615.82 365.14 616.07 364.73 616.45 364.53 616.92 364.57 617.84 364.98 618.35 365.12 618.91 365.1 619.36 364.91 619.71 364.57 619.92 364.12 620.02 363.57 620.13 360.18 620.31 359.12 620.24 358.53 606.62 325.74 606.29 325.2 605.83 324.68 604.44 324.17 603.86 324.03 603.36 324.02 602.86 324.12 602.41 324.34 600.01 326.07 599.57 326.31 599.1 326.5 598 326.73 597.49 326.93 597.06 327.19 596.7 327.54 596.39 327.94 595.28 329.7 594.65 330.49 594.3 330.84 593.89 331.12 592.96 331.55 592.44 331.69 587.42 332.52 586.94 332.7 586.47 332.92 585.65 333.48 585.07 334.04 584.95 334.21 584.86 334.39 584.52 335.23 584.37 335.79 584.06 337.63 583.88 338.18 583.6 338.64 582.61 339.82 581.86 341.24 581.51 341.59 581.06 341.82 579.97 342.05 578.14 342.82 577.63 342.94 577.07 343.01 576.45 342.94 575.87 342.79 575.28 342.44 574.67 341.98 573.83 341.15 573.21 340.77 572.61 340.66 572.18 340.87 571.44 341.54 571.02 341.79 570.51 341.95 568.75 342.11 567.46 342.09 566.89 342.13 566.53 342.02 566.45 341.7 566.68 340.55 567.21 339.8 567.84 339.13 569.94 337.86 570.38 337.22 570.48 336.23 569.89 334.53 569.15 330.69 568.39 328.81 567.58 327.59 566.97 326.93 566.47 326.57 565.94 326.27 565.49 325.84 565.27 325.18 565.57 323.75 565.61 323.08 565.42 322.38 564.53 321.3 564.09 320.61 563.89 319.73 564.07 318.67 564.34 317.91 564.5 317.03 564.55 315.95 564.32 314.16 564.41 312.37 564.35 311.82 563.86 309.91 563.84 309.22 564.07 308.72 565 308.11 565.33 307.58 565.43 306.86 564.99 304.8 565.06 304.14 565.33 303.59 565.71 303.06 566.22 302.57 569.27 300.66 569.96 300.1 574.02 294.73 574.55 294.37 576.77 293.27 577.14 292.97 573.29 291.57 553.21 286.92 552.38 286.04 554.58 283.81 555.2 282.93 555.32 282.31 555.66 282.15 556.96 282.58 557.68 282.51 560.78 281.64 561.5 281.77 561.61 282.19 561.81 282.38 562.79 281.78 563.23 281.15 563.99 279.44 564.48 279.06 566.08 279.83 569.31 283.29 570.8 283.62 571.25 282.86 570.24 281.14 570.85 280.57 571.91 280.28 572.67 279.94 575.84 277.74 576.86 276.69 578.48 274.02 578.73 273.79 579.42 273.46 579.75 273.04 580.27 271.54 580.57 270.95 582.02 268.96 582.88 268.09 583.86 267.28 585.52 266.82 592.36 265.68 593.7 265.8 594.68 266.79 597.19 272.59 599.43 275.73 602.32 278.32 607.62 281.26 610.42 283.8 612.06 284.75 613.72 285.12 630.06 285.89 631.32 285.56 632.54 284.93 633.8 285.5 635.17 286.51 636.65 287.21 642.57 287.73 644.33 288.73 644.55 288.06 645.6 286.1 650.37 292.13 654.22 294.82 655.17 295.82 655.99 298.13 656.3 306.16 656.97 309.61 658.61 312.69 661.08 315.15 664.24 316.78 666.17 317.43 667.42 318.11 668.13 319.24 668.44 321.2 668.34 321.94 667.82 323.51 667.74 324.32 667.94 325.14 668.56 326.67 668.64 327.5 667.67 330.66 666.02 333.41 664.78 336.3 665.01 339.85 667.12 347.17 667.12 348.81 666.58 352.01 666.79 353.62 669.29 356.31 670.32 357.78 670.83 359.63 670.37 363.09 670.44 364.66 671.46 365.9 674.1 367.4 674.45 368.24 676.53 375.3 676.49 376.89 674.27 381.21 673.97 382.78 674.6 384.91 677.51 387.77 678.56 389.57 678.4 392.49 675.84 397.77 676.08 401.07 676.67 403.91 Z" id="PRY-615" data-name="Amambay"/>
<path d="M 788.26 517.93 787.05 521.28 784.34 524.9 783.62 526.46 779.25 543.7 778.4 546.97 778.22 548.74 778.3 550.34 779.07 552.18 781.49 555.83 781.78 557.62 780.93 559.29 777.72 561.99 776.58 563.68 774.48 569.89 772.11 573.28 770.35 575.4 767.63 577.64 765.51 581.17 764.39 584.52 764.2 585.59 764.14 587.63 764.51 589.73 765.47 591.46 766.13 593.25 765.88 595.52 765.33 597.81 765.3 598.02 765.11 599.68 766.63 602.74 766.9 604.66 765.47 605.51 762.12 605.34 761.25 606.25 761.23 608.75 762.96 613.71 763.23 615.59 763.69 616.87 765.84 619.27 766.47 620.42 766.31 622.52 765.4 624.2 764.37 625.7 763.88 627.25 764.63 631.53 764.71 633.31 763.88 634.74 763.07 634.99 760.77 635.11 759.99 635.45 759.41 636.47 759.47 637.42 759.79 638.41 760.26 641.3 761.29 644.34 761.23 646.47 759.26 652.54 759.63 653.98 761.35 655.85 761.69 657.08 761.08 658.15 759.99 659.55 759.21 660.8 759.15 661.05 759.09 661.05 758.92 661.05 753.51 660.66 752.45 660.43 751.88 659.84 751.7 659.23 751.68 658.63 751.79 657.96 751.79 657.49 751.69 657.1 751.46 656.81 751.09 656.47 750.6 656.16 748.78 655.32 747.4 654.85 745.59 654.52 744.12 654.54 743.36 654.75 742.56 655.14 741.28 656.13 740.73 656.46 740.2 656.65 739.48 656.67 738.75 656.46 737.87 655.81 737.64 655.32 737.7 654.67 738.1 653.31 738.16 652.82 738.1 652.39 737.93 652.12 737.64 652 737.21 651.98 736.62 652.21 736.17 652.52 735.64 653.09 734.94 654.01 733.51 656.37 733.11 656.82 732.46 657.39 731.81 657.76 731.23 657.98 729.95 658.26 726.81 658.52 726.19 659.13 725.81 659.57 725.53 660.24 725.36 660.46 725.12 660.64 724.76 660.87 724.17 660.81 723.42 660.49 721.96 659.49 720.96 658.96 717.9 658.26 715.5 657.33 714.56 657.1 713.79 656.96 711.91 656.87 704.87 657.2 702.9 655.5 699.67 646.29 704.63 643.64 705.42 642.96 705.85 642.07 705.82 641.27 705.23 640.57 704.62 640.25 703.91 640.08 702.08 639.94 701.33 639.69 700.72 639.27 700.22 638.76 699.9 638.37 699.5 637.97 698.93 637.58 698.36 637.49 695.35 638.31 693.67 638.6 690.96 638.76 688.67 638.68 687.87 638.79 686.61 639.35 685.91 639.24 685.15 638.97 683.88 638.35 679.95 636.91 679.51 636.61 678.96 635.87 678.63 634.84 678.96 632.23 678.97 631.34 678.34 629.42 678.31 628.5 678.62 627.45 678.33 626.51 677.87 625.93 677.38 625.16 677.39 624.16 678.01 622.46 679.88 618.68 680.17 618.33 682.15 616.8 682.75 616.13 683.16 615.24 684.65 611.04 684.97 609.73 685.11 607.59 685.67 606.31 686.39 605.32 688.8 603.34 689.36 602.58 689.54 601.94 689.41 601.24 688.99 600.61 687.75 599.13 687.37 598.24 687.21 597.44 687.19 596.73 686.96 596.16 686.49 595.7 685.18 595.37 684.3 595.31 680.9 596.18 703 568.24 705.81 565.39 706.9 565.42 708.66 566.55 711.08 568.76 712.07 569.25 714.33 570.02 715.54 570.28 716.6 570.21 716.51 569.3 716 567.42 715.94 566.42 716.54 567.01 717.45 568.35 718.04 568.96 718.79 569.43 719.55 569.67 721.17 569.95 722.5 570.46 723.24 571.29 723.61 572.37 723.78 573.66 725.05 575.7 727.48 576.03 729.99 576.09 732.15 575.5 732.13 574.32 732.03 573.8 731.85 573.33 731.61 572.91 731.01 572.14 730.75 571.72 730.55 571.27 730.44 570.76 730.45 570.18 730.67 568.46 730.56 567.97 730.29 567.58 729.87 567.31 727.33 566.4 726.83 566.14 726.48 565.87 726.17 565.51 725.97 565.11 725.96 564.63 726.54 562.78 726.61 562.2 726.56 561.66 726.29 561.28 725.92 560.95 717.95 555.72 710.3 549.13 709.75 548.38 709.43 548.04 708.99 547.86 708.47 547.88 707.92 547.94 707.4 547.94 706.95 547.78 706.58 547.48 706.25 547.13 705.88 546.81 705.42 546.62 704.87 546.53 703.14 546.75 702.51 546.75 701.86 546.7 701.27 546.57 700.74 546.38 700.29 546.12 699.9 545.84 699.22 545.16 698.92 544.79 698.67 544.4 698.25 543.45 698.25 543.44 697.89 542.57 697.43 541.72 696.25 540.2 696.04 539.6 695.98 538.7 696.34 537.55 696.38 536.78 696.33 536.18 696.16 535.7 696.05 535.15 696.04 534.51 696.18 533.03 696.15 532.43 696.04 531.92 695.85 531.47 695.68 530.89 695.62 530.23 695.71 529.23 696.34 528.59 697.32 527.21 697.47 526.35 697.42 525.51 696.59 523.25 696.16 521.46 696.36 520.43 696.74 519.84 697.46 519.39 698.13 518.85 698.76 517.72 698.97 516.59 698.84 512.69 699.23 511.79 700.25 510.15 700.35 509.34 700.23 508.37 699.66 506.26 699.53 504.83 699.66 503.91 699.95 503.13 700.4 502.48 703.28 499.37 705.74 496.17 716.26 492.88 718.3 493.37 717.89 496.87 718 497.93 718.45 499.07 719.84 500.31 721.21 500.85 722.45 501.05 723.61 500.82 725.86 499.97 727.27 499.74 728.07 499.72 735.35 501.85 737.18 502.79 738.28 503.81 738.46 504.66 738.42 505.33 738.29 505.86 738.08 506.38 738.04 506.86 738.23 507.37 738.85 507.96 739.59 508.21 740.39 508.33 743.84 508.44 745.2 508.61 745.96 508.93 746.31 509.22 746.31 509.67 746.24 510.23 746.24 511.06 746.75 511.73 747.23 511.98 747.81 511.95 748.3 511.74 748.8 511.45 749.28 511.01 749.71 510.53 750.32 509.66 750.77 509.22 751.46 508.77 752.6 508.68 753.44 508.87 754.51 509.36 755.22 509.6 756.01 509.71 756.62 509.63 758.01 509.24 758.83 509.14 759.28 509.28 759.68 509.7 760.69 512.08 761.23 512.87 761.89 513.56 762.8 513.92 770.07 514.91 772.82 515.66 775.46 516.68 777.69 517.1 780.05 517.12 782.28 516.91 784.72 516.89 786.06 517.05 788.21 517.91 788.26 517.93 Z" id="PRY-616" data-name="Alto Paraná"/>
<path d="M 680.9 596.18 679.34 598.41 679.14 599.58 679.16 600.02 678.96 600.71 678.5 601.35 677.61 602.3 677.09 602.98 676.19 603.67 675.12 604.23 670.45 605.87 668.04 605.18 666.94 603.95 666.44 603.77 665.59 603.72 659.87 605.88 654.12 607.49 651.13 607.85 648.72 607.69 647.45 607.05 646.24 606.07 644.26 603.9 643.18 602.9 641.9 602.06 639.96 601.34 638.22 601.08 628.02 601.33 626.56 601.08 625.4 600.55 624.61 599.83 623.56 599.3 615.88 599.03 613.1 598.58 611.7 598.52 609.03 598.74 598.31 598.29 596.44 598.45 594.81 598.91 591.94 600.56 590.85 600.99 589.62 601.32 586.64 601.79 585.02 602.33 583.75 603.07 579.24 606.93 578.29 607.47 573.06 609.75 570.99 610.88 567.94 610.51 567.38 610.26 566.58 609.82 564.53 607.45 561.54 605.48 561.2 604.74 561.13 604.52 555.63 594.23 555.13 593.02 555.05 592.14 555.57 591.49 578.87 576.59 580.78 570.68 585.45 545.5 592.37 539.01 593.36 538.39 596.26 536.93 597.2 536.04 597.91 534.95 598.34 533.97 598.92 533.01 599.92 532.21 604.03 530 605.28 528.83 606.15 527.53 606.61 526.39 607.25 525.21 608.03 524.24 608.94 523.37 609.97 522.86 610.83 522.95 612.04 523.94 612.45 525.1 612.52 526.12 612.14 527.57 612.06 528.27 612.12 529.04 612.39 529.73 613.06 530.39 614.01 530.99 618.36 532.49 618.96 532.81 619.59 533.27 622.82 536.62 627.24 540.38 628.06 540.73 628.88 540.05 629.7 538.95 633.87 531.42 635.26 529.87 637.21 528.43 644.85 525.54 656.06 522.8 658.56 520.01 661.24 516.2 662.58 514.81 667.31 511.49 677.71 501.25 678.95 500.6 680.85 500.02 705.74 496.17 703.28 499.37 700.4 502.48 699.95 503.13 699.66 503.91 699.53 504.83 699.66 506.26 700.23 508.37 700.35 509.34 700.25 510.15 699.23 511.79 698.84 512.69 698.97 516.59 698.76 517.72 698.13 518.85 697.46 519.39 696.74 519.84 696.36 520.43 696.16 521.46 696.59 523.25 697.42 525.51 697.47 526.35 697.32 527.21 696.34 528.59 695.71 529.23 695.62 530.23 695.68 530.89 695.85 531.47 696.04 531.92 696.15 532.43 696.18 533.03 696.04 534.51 696.05 535.15 696.16 535.7 696.33 536.18 696.38 536.78 696.34 537.55 695.98 538.7 696.04 539.6 696.25 540.2 697.43 541.72 697.89 542.57 698.25 543.44 698.25 543.45 698.67 544.4 698.92 544.79 699.22 545.16 699.9 545.84 700.29 546.12 700.74 546.38 701.27 546.57 701.86 546.7 702.51 546.75 703.14 546.75 704.87 546.53 705.42 546.62 705.88 546.81 706.25 547.13 706.58 547.48 706.95 547.78 707.4 547.94 707.92 547.94 708.47 547.88 708.99 547.86 709.43 548.04 709.75 548.38 710.3 549.13 717.95 555.72 725.92 560.95 726.29 561.28 726.56 561.66 726.61 562.2 726.54 562.78 725.96 564.63 725.97 565.11 726.17 565.51 726.48 565.87 726.83 566.14 727.33 566.4 729.87 567.31 730.29 567.58 730.56 567.97 730.67 568.46 730.45 570.18 730.44 570.76 730.55 571.27 730.75 571.72 731.01 572.14 731.61 572.91 731.85 573.33 732.03 573.8 732.13 574.32 732.15 575.5 729.99 576.09 727.48 576.03 725.05 575.7 723.78 573.66 723.61 572.37 723.24 571.29 722.5 570.46 721.17 569.95 719.55 569.67 718.79 569.43 718.04 568.96 717.45 568.35 716.54 567.01 715.94 566.42 716 567.42 716.51 569.3 716.6 570.21 715.54 570.28 714.33 570.02 712.07 569.25 711.08 568.76 708.66 566.55 706.9 565.42 705.81 565.39 703 568.24 680.9 596.18 Z" id="PRY-617" data-name="Caaguazú"/>
<path d="M 699.67 646.29 698.45 646.06 698.08 645.87 697.71 645.74 697.38 645.85 697.18 646.14 697.02 646.89 697.03 647.52 696.93 648.09 696.72 648.74 696.57 649.51 696.66 654.06 696.4 654.87 695.83 655.72 695.05 656.53 691.12 659.99 683.13 665.67 681.41 666.53 674.97 668.73 672.99 669.06 671.7 669.15 670.36 668.87 668.68 668.84 666.7 669.04 662.68 670.1 657.1 672.26 656.1 673.36 655.29 675.26 654.64 675.99 652.86 677.34 648.44 681.57 646.92 682.49 645.26 683.19 638.68 684.28 633.92 685.66 632.5 686.63 630.4 689.49 629.94 690.42 629.06 692.74 628.14 694.01 627.04 695.15 625.67 696.18 624.87 697 624.28 697.88 623.4 700.83 622.68 701.53 621.17 702.11 618.26 702.51 612.47 704.21 604.33 708.16 593.32 712.02 591.7 712.05 590.21 711.73 588.8 710.9 585.84 708.69 585.23 708.38 578.07 706.96 577.89 706.15 577.91 705.93 578.03 705.46 578.46 704.45 578.67 703.63 578.48 702.81 577.66 702.02 576.04 701.59 573.05 701.54 571.67 701.28 570.26 700.7 566.24 698.26 564.67 696.96 562.92 694.4 562.17 693.05 561.33 691.89 560.77 691.27 558.02 689.72 558.97 687.58 560.3 686.57 561.44 685.9 563.26 684.47 564.08 683.35 564.5 682.16 564.6 681.09 564.97 679.99 565.56 679.23 566.82 678.06 567.26 677.05 567.35 676.14 567.13 675.29 567.07 674.38 567.24 673.79 567.6 673.3 569.56 672.03 570.01 671.3 570.25 670.45 570.59 667.04 571.56 663.47 572.27 662.36 575.55 658.96 576 658.12 576.72 655.07 579.77 655.09 582.17 655.35 583.52 654.88 584.31 654.09 584.95 649.9 585.57 648.28 586.59 646.71 587.59 645.98 588.94 645.59 593.58 645.41 595.14 644.9 595.91 644.17 596.29 643.12 596.44 641.98 596.78 640.89 597.54 639.7 598.33 639.35 598.95 639.36 599.57 639.7 600.23 639.86 601.12 639.82 605.79 637.96 607.17 637.62 608.3 637.61 609.09 637.97 609.53 638.23 612.13 640.16 615.9 642.38 617.66 642.55 623.01 640.13 625.37 638.7 625.53 638.49 625.62 638.32 625.91 637.53 627.91 630.19 628.38 629.3 629.22 628.31 630.41 627.82 633.53 627.02 634.74 626.35 636.52 624.92 637.65 624.47 641.05 623.83 642.11 623.38 644.45 621.74 645.72 621.05 654.23 617.88 655.48 617.24 655.96 616.71 656.95 614.85 657.65 614 659.05 612.89 660.01 612.65 660.91 612.71 661.75 612.97 662.63 613.04 663.79 612.75 664.65 611.94 665.24 610.99 666.48 607.94 667.21 606.62 667.48 606.22 668.04 605.18 670.45 605.87 675.12 604.23 676.19 603.67 677.09 602.98 677.61 602.3 678.5 601.35 678.96 600.71 679.16 600.02 679.14 599.58 679.34 598.41 680.9 596.18 684.3 595.31 685.18 595.37 686.49 595.7 686.96 596.16 687.19 596.73 687.21 597.44 687.37 598.24 687.75 599.13 688.99 600.61 689.41 601.24 689.54 601.94 689.36 602.58 688.8 603.34 686.39 605.32 685.67 606.31 685.11 607.59 684.97 609.73 684.65 611.04 683.16 615.24 682.75 616.13 682.15 616.8 680.17 618.33 679.88 618.68 678.01 622.46 677.39 624.16 677.38 625.16 677.87 625.93 678.33 626.51 678.62 627.45 678.31 628.5 678.34 629.42 678.97 631.34 678.96 632.23 678.63 634.84 678.96 635.87 679.51 636.61 679.95 636.91 683.88 638.35 685.15 638.97 685.91 639.24 686.61 639.35 687.87 638.79 688.67 638.68 690.96 638.76 693.67 638.6 695.35 638.31 698.36 637.49 698.93 637.58 699.5 637.97 699.9 638.37 700.22 638.76 700.72 639.27 701.33 639.69 702.08 639.94 703.91 640.08 704.62 640.25 705.23 640.57 705.82 641.27 705.85 642.07 705.42 642.96 704.63 643.64 699.67 646.29 Z" id="PRY-618" data-name="Caazapá"/>
<path d="M 798.96 453.28 799 453.3 797.01 454.75 793.71 457.03 791.45 459.71 790.52 462.63 790.78 464.16 792 467.17 792.46 470.72 793.21 471.91 795.45 474.63 796.24 476.81 797.5 479.77 797.4 482.53 796.49 485.46 795.32 487.54 791.63 492.58 790.53 495.65 790.5 498.55 791.84 505.07 791.78 508.15 788.26 517.93 788.21 517.91 786.06 517.05 784.72 516.89 782.28 516.91 780.05 517.12 777.69 517.1 775.46 516.68 772.82 515.66 770.07 514.91 762.8 513.92 761.89 513.56 761.23 512.87 760.69 512.08 759.68 509.7 759.28 509.28 758.83 509.14 758.01 509.24 756.62 509.63 756.01 509.71 755.22 509.6 754.51 509.36 753.44 508.87 752.6 508.68 751.46 508.77 750.77 509.22 750.32 509.66 749.71 510.53 749.28 511.01 748.8 511.45 748.3 511.74 747.81 511.95 747.23 511.98 746.75 511.73 746.24 511.06 746.24 510.23 746.31 509.67 746.31 509.22 745.96 508.93 745.2 508.61 743.84 508.44 740.39 508.33 739.59 508.21 738.85 507.96 738.23 507.37 738.04 506.86 738.08 506.38 738.29 505.86 738.42 505.33 738.46 504.66 738.28 503.81 737.18 502.79 735.35 501.85 728.07 499.72 727.27 499.74 725.86 499.97 723.61 500.82 722.45 501.05 721.21 500.85 719.84 500.31 718.45 499.07 718 497.93 717.89 496.87 718.3 493.37 716.26 492.88 705.74 496.17 680.85 500.02 678.95 500.6 677.71 501.25 667.31 511.49 662.58 514.81 661.24 516.2 658.56 520.01 656.06 522.8 650.99 520.04 650.04 519.29 649.43 518.29 648.74 516.92 647.9 514.73 646.06 512.94 644.47 511.73 641.66 510.11 640.61 508.78 639.6 506.72 638.23 502.76 636.19 498.96 631.16 492.52 629.19 488.35 628.75 487.76 628.2 487.29 627.48 486.96 625.69 486.4 624.82 486.01 624.05 485.52 623.25 484.81 622.59 484.05 622.05 483.13 621.54 481.98 621.15 480.52 620.74 477.42 620.49 476.36 620.1 475.48 619.58 474.95 617.54 473.33 617.36 472.12 617.35 470.31 617.91 465.87 617.83 463.76 618.27 462.3 618.56 461.82 620.41 459.52 620.81 459.23 621.23 458.98 621.71 458.76 624.03 458.29 624.51 458.08 624.89 457.79 626.11 456.3 628.27 454.37 629.47 452.87 630.9 451.58 631.32 451.34 631.71 451.19 632.13 451.18 632.36 451.19 632.96 451.32 633.13 450.65 632.64 448.47 626.79 434.11 627.93 434.83 629.32 435.43 629.9 435.61 630.51 435.68 631.04 435.59 631.54 435.4 632.33 435.02 633.08 434.76 636.47 434.48 638.83 433.96 641.27 433.05 642.17 432.49 642.75 431.89 644.08 429.72 645.05 428.86 649.1 426.76 658.93 420.12 660.96 418.99 662.35 418.44 665.01 418.4 665.88 418.19 666.69 417.9 670.59 415.8 671.65 414.87 672.29 413.89 673.07 410.22 674.76 405.97 675.7 404.57 676.61 403.94 676.67 403.91 676.74 404.25 676.66 407.66 676.98 410.84 678.8 413.31 683.01 417.47 685.07 423.37 686.5 441.71 687.41 444.17 689.56 446.29 692.48 447.51 698.45 447.93 701.45 448.53 701.46 448.54 701.47 448.54 701.48 448.55 701.49 448.55 704.86 449.7 708.28 450.34 711.64 450.09 714.88 448.55 714.89 448.55 714.9 448.55 714.9 448.53 717.32 447.4 723.33 447.45 726.25 446.64 727.86 445.94 731.04 445.81 732.7 445.56 734.3 444.68 736.38 442.13 737.61 440.95 743.73 437.76 756.13 433.79 757.75 432.99 760.14 430.59 761.6 429.92 764.13 430.56 780.21 438.99 782.14 440.31 787.39 447.04 796.31 451.95 798.96 453.28 Z" id="PRY-619" data-name="Canindeyú"/>
<path d="M 699.67 646.29 702.9 655.5 704.87 657.2 711.91 656.87 713.79 656.96 714.56 657.1 715.5 657.33 717.9 658.26 720.96 658.96 721.96 659.49 723.42 660.49 724.17 660.81 724.76 660.87 725.12 660.64 725.36 660.46 725.53 660.24 725.81 659.57 726.19 659.13 726.81 658.52 729.95 658.26 731.23 657.98 731.81 657.76 732.46 657.39 733.11 656.82 733.51 656.37 734.94 654.01 735.64 653.09 736.17 652.52 736.62 652.21 737.21 651.98 737.64 652 737.93 652.12 738.1 652.39 738.16 652.82 738.1 653.31 737.7 654.67 737.64 655.32 737.87 655.81 738.75 656.46 739.48 656.67 740.2 656.65 740.73 656.46 741.28 656.13 742.56 655.14 743.36 654.75 744.12 654.54 745.59 654.52 747.4 654.85 748.78 655.32 750.6 656.16 751.09 656.47 751.46 656.81 751.69 657.1 751.79 657.49 751.79 657.96 751.68 658.63 751.7 659.23 751.88 659.84 752.45 660.43 753.51 660.66 758.92 661.05 759.09 661.05 759.15 661.05 759.04 661.51 759.28 663.38 759.28 667.65 757.82 670.65 757.69 671.16 757.4 671.69 756.49 677.49 756.05 679.03 755.21 680.32 752.3 683.3 749.63 685.29 748.2 686.84 747.3 688.55 747.4 689.89 747.9 691.23 748.2 692.99 748.11 695.17 747.76 697.5 746.99 699.61 745.67 701.15 744.69 701.59 744.17 701.35 743.73 700.86 743.01 700.51 738.8 700.51 736.52 701.03 734.95 702.38 733.92 704.26 732.67 708.63 731.98 710.3 731.05 711.7 729.69 713.17 728.13 713.82 723.48 714.18 721.56 714.82 715.4 720.37 714.75 721.99 716.06 725.72 715.73 727.79 714.21 728.92 712.01 729.27 708.24 729.09 706.78 728.69 705.02 727.83 702.99 727.11 700.7 727.08 696.07 729.37 691.63 729.88 689.72 730.41 688.04 731.41 686.44 732.98 685.31 734.79 684.73 736.72 684.5 741.11 683.5 742.62 681.17 742.82 678.55 742.57 676.66 742.76 675.57 744.26 675.17 746.21 674.62 747.92 673.06 748.66 670.54 749.23 670.48 750.66 672.77 754.54 673.17 755.66 673.35 756.67 673.16 757.66 671.89 759.6 671.97 760.24 672.21 761.01 672.12 762.33 671.2 764.49 669.67 766.12 667.65 767.15 665.29 767.51 662.62 769.34 659.22 772.94 655.69 775.44 649.95 772.64 647.4 772 646.25 771.41 645.43 770.45 644 766.89 642.58 765.11 640.65 764.44 638.44 764.48 636.14 764.8 635.62 764.81 633.84 764.87 631.75 764.48 631.75 764.48 625.4 762.27 625.35 762.26 623.01 761.85 620.58 761.7 618.16 762.92 616.37 764.15 612.9 767.7 610.76 768.57 608.02 769.23 605.83 770.31 605.31 772.37 605.68 774.96 605.31 777.08 604.21 778.98 602.36 780.83 600.5 783.23 599.21 786.14 597.51 788.45 594.45 789.04 594.4 789.02 591.45 787.95 588.59 785.91 586.14 783.37 584.34 780.8 580.52 776.52 580.48 776.52 574.2 775.7 571.83 776.32 571.83 776.29 571.33 769.64 571.42 769.09 571.81 768.34 572.09 767.93 572.41 767.36 572.43 766.85 572.08 766.11 571.62 765.57 568.29 762.75 567.62 762.05 567.04 761.23 566.87 759.67 567.15 757.64 568.42 753.74 569.29 752.26 570.22 751.29 571.15 750.82 571.96 750.16 574.42 747.68 575.31 747.18 575.99 746.94 580.82 746.4 581.69 744.81 581.9 741.52 578.07 706.96 585.23 708.38 585.84 708.69 588.8 710.9 590.21 711.73 591.7 712.05 593.32 712.02 604.33 708.16 612.47 704.21 618.26 702.51 621.17 702.11 622.68 701.53 623.4 700.83 624.28 697.88 624.87 697 625.67 696.18 627.04 695.15 628.14 694.01 629.06 692.74 629.94 690.42 630.4 689.49 632.5 686.63 633.92 685.66 638.68 684.28 645.26 683.19 646.92 682.49 648.44 681.57 652.86 677.34 654.64 675.99 655.29 675.26 656.1 673.36 657.1 672.26 662.68 670.1 666.7 669.04 668.68 668.84 670.36 668.87 671.7 669.15 672.99 669.06 674.97 668.73 681.41 666.53 683.13 665.67 691.12 659.99 695.05 656.53 695.83 655.72 696.4 654.87 696.66 654.06 696.57 649.51 696.72 648.74 696.93 648.09 697.03 647.52 697.02 646.89 697.18 646.14 697.38 645.85 697.71 645.74 698.08 645.87 698.45 646.06 699.67 646.29 Z" id="PRY-620" data-name="Itapúa"/>
</g>
</svg>