<?xml version="1.0"?>
<svg xmlns="http://www.w3.org/2000/svg" version="1.2" baseProfile="tiny" width="800" height="1167" viewBox="0 0 800 1167" stroke-linecap="round" stroke-linejoin="round">
<g id="ne_10m_admin_1_states_provinces">
<path d="M 282.16 120.14 270.24 136.99 217.83 118.26 199.03 107.01 184.17 78.88 177.24 93.88 161.41 83.57 125.8 90.16 100.07 85.49 80.24 64.85 27.79 79.91 1 55.53 50.03 30.8 91.79 20.49 152.44 22.59 177.31 39.53 192.14 34.84 165.27 15.07 152.4 1 188.03 11.31 249.38 45.08 309.72 77.92 334.39 115.39 315.64 118.22 300.9 113.57 282.16 120.14 Z" id="VIR-4868" data-name="Saint Thomas"/>
<path d="M 564.62 73.21 552.76 77.89 570.53 100.41 559.63 138.87 506.29 111.65 423.3 119.15 398.61 97.58 423.31 61.96 450.98 50.67 480.63 42.23 473.71 30.04 488.54 22.53 543.89 36.61 570.57 41.31 595.28 51.64 624.92 66.67 631.83 83.56 609.09 87.3 564.62 73.21 Z" id="VIR-4869" data-name="Saint John"/>
<path d="M 799 1052.07 756.3 1056.45 720.74 1067.56 651.03 1098.28 615.06 1108.99 274.32 1155.53 243.2 1166.03 255.33 1137.68 257.35 1113.63 255.6 1046.01 260.65 1025.13 274.18 1011.93 336.69 1030.18 371.85 1014.83 408.22 992.6 447.69 984.18 451.79 988.49 515.31 1029.44 550.2 1041.16 567.84 1050.05 583.2 1063.39 621.05 1033.41 680.53 1021.09 745.39 1024.46 799 1040.76 799 1052.07 Z" id="VIR-4870" data-name="Saint Croix"/>
</g>
</svg>