<?xml version="1.0"?>
<svg xmlns="http://www.w3.org/2000/svg" version="1.2" baseProfile="tiny" width="800" height="1233" viewBox="0 0 800 1233" stroke-linecap="round" stroke-linejoin="round">
<g id="ne_10m_admin_1_states_provinces">
<path d="M 779.4 1102.52 761.87 1116.45 748.2 1131.92 738.66 1149.33 734.27 1169.44 781.72 1187.23 799 1191.1 725.12 1217.79 637.31 1232.1 554.53 1226.17 496.25 1191.1 564.07 1119.54 600.18 1089.24 649.69 1061.39 686.57 1052.11 746.39 1045.66 790.23 1057.52 779.4 1102.52 Z" id="SPM-4866" data-name="Saint-Pierre"/>
<path d="M 390.14 779.92 511.47 854.19 467.89 948.44 341.01 1038.7 160.5 1134.37 121.69 1143.39 83.13 1126.12 60.18 1085.5 69.21 1060.36 69.08 1038.18 18.41 1006.2 1.77 967.14 53.99 919.17 171.59 842.97 217.49 718.16 190.54 593.6 37.75 335.72 27.69 284.41 18.41 170.3 1 119.11 3.19 88.68 29.24 51.29 61.73 23.18 97.06 4.35 133.94 1 171.59 18.79 112.79 49.48 79.91 80.56 81.59 113.05 126.46 148.63 179.32 166.43 291.89 185.12 454.99 278.48 460.15 309.55 458.22 352.87 446.48 391.55 404.19 421.86 390.14 451.51 369.38 481.3 332.89 494.83 314.71 488.13 306.2 473.17 300.78 458.22 290.72 451.51 268.55 453.83 212.97 473.17 169.01 461.57 147.99 465.69 148.12 494.83 162.04 512.24 181.26 514.95 199.82 513.4 224.97 523.2 243.53 523.46 263.65 525.78 279.89 538.16 285.7 559.56 276.41 574.91 263.13 585.86 256.3 595.02 256.3 724.99 269.84 765.09 303.36 777.21 390.14 779.92 Z" id="SPM-4867" data-name="Miquelon-Langlade"/>
</g>
</svg>