<?xml version="1.0"?>
<svg xmlns="http://www.w3.org/2000/svg" version="1.2" baseProfile="tiny" width="800" height="253" viewBox="0 0 800 253" stroke-linecap="round" stroke-linejoin="round">
<g id="ne_10m_admin_1_states_provinces">
<path d="M 681.21 87.56 685.22 88.38 688.2 87.97 694.84 87.77 697.21 87.95 697.34 88.07 697.95 89.03 698.85 91.22 699.58 94.85 700.25 96.28 701.97 98.06 710.41 104.67 710.41 104.68 708.49 106.35 708.48 106.36 696.51 104.24 688.38 105.66 685 103.93 690.41 99.86 694.16 99.14 694.16 91.65 685.99 90.97 681.21 87.57 681.21 87.56 Z M 625.99 93.34 625.37 99.92 625.36 99.92 616.12 102.8 604.64 112.21 601.41 117.79 598.42 124.9 596.22 132.77 595.44 140.55 596.33 148.89 595.26 152.5 591.1 153.99 588.44 155.64 585.42 163.42 583.5 165.91 576.75 167.53 562.25 167.65 556.67 168.86 552.87 172.13 548.35 177.18 543.13 181.76 537.16 183.79 523.23 186.63 510.58 191.68 500.34 193.56 493.77 187.04 493.34 199.3 480.97 205.61 448.53 211.15 441.99 213.69 438.05 215.87 437.83 214.95 435.32 204.84 435.32 203.15 437.96 188.8 437.89 187.14 437.08 185.39 434.1 180.43 429.54 174.64 416.28 161.99 414.11 160.43 410.93 158.88 390.05 152.69 388.83 152.57 383.96 152.76 382.2 152.35 378.73 151.14 375.81 148.72 376.08 140.6 377.64 137.19 378.32 136.15 379.4 134.93 380.89 133.92 389.11 129.6 392.83 128.12 397.84 127.1 400.61 127.08 402.85 127.51 404.23 128.41 406.26 130.64 407.81 131.43 409.64 131.95 411.74 132.09 413.7 131.9 422.57 129.56 424.2 130.08 425.48 130.95 427.99 132.02 428.87 132.5 429.23 133.48 429.23 134.62 429.68 135.7 431.17 136.17 434.31 134.97 438.91 132.1 447.78 124.83 458.63 117.58 462.56 117.03 464.59 117.58 466.22 118.53 468.45 120.55 470.68 120.78 473.66 120.29 478.88 118.62 482.01 118.31 490.27 119.54 492.03 119.65 493.72 118.64 495.69 116.61 498.87 111.17 499.75 108.17 499.88 105.87 499.61 104.54 499.95 103.59 500.76 103 502.93 102.96 504.56 103.38 505.73 103.97 509.52 106.57 511.28 107.2 513.31 107.37 515.68 106.79 522.38 103.47 524.96 102.89 526.85 103.18 528.3 103.97 530.12 104.56 532.09 104.74 534.05 104.45 535.67 103.43 539.94 93.84 540.55 91.74 541.29 90.52 542.31 89.46 546.37 88.04 546.3 87.68 545.9 86.96 544.68 85.08 543.12 83.95 541.84 82.76 540.96 81.49 539.53 76.93 538.59 74.6 541.86 71.9 545.92 68.81 549.35 71.9 549.35 82.46 552.06 88.26 557.47 90.27 565.37 87.57 568.76 81.79 572.55 79.37 577.33 80.05 582.34 82.8 586.13 82.13 589.56 80.73 594.28 82.13 598.41 83.82 607.93 87.93 613.39 88.6 618.16 89.26 624.95 93.03 625.99 93.34 Z" fill-rule="evenodd" id="CYP-3463" data-name="Larnaca"/>
<path d="M 615.73 73.28 618.16 75.29 625.67 78.36 627.02 81.43 623.23 84.16 624.59 86.89 631.45 89.26 629.71 94.38 625.99 93.34 624.95 93.03 618.16 89.26 613.39 88.6 607.93 87.93 598.41 83.82 594.28 82.13 589.56 80.73 586.13 82.13 582.34 82.8 577.33 80.05 572.55 79.37 568.76 81.79 565.37 87.57 557.47 90.27 552.06 88.26 549.35 82.46 549.35 71.9 545.92 68.81 541.86 71.9 538.59 74.6 539.53 76.93 540.96 81.49 541.84 82.76 543.12 83.95 544.68 85.08 545.9 86.96 546.3 87.68 546.37 88.04 542.31 89.46 541.29 90.52 540.55 91.74 539.94 93.84 535.67 103.43 534.05 104.45 532.09 104.74 530.12 104.56 528.3 103.97 526.85 103.18 524.96 102.89 522.38 103.47 515.68 106.79 513.31 107.37 511.28 107.2 509.52 106.57 505.73 103.97 504.56 103.38 502.93 102.96 500.76 103 499.95 103.59 499.61 104.54 499.88 105.87 499.75 108.17 498.87 111.17 495.69 116.61 493.72 118.64 492.03 119.65 490.27 119.54 482.01 118.31 478.88 118.62 473.66 120.29 470.68 120.78 468.45 120.55 466.22 118.53 464.59 117.58 462.56 117.03 458.63 117.58 447.78 124.83 438.91 132.1 434.31 134.97 431.17 136.17 429.68 135.7 429.23 134.62 429.23 133.48 428.87 132.5 427.99 132.02 425.48 130.95 424.2 130.08 422.57 129.56 413.7 131.9 411.74 132.09 409.64 131.95 407.81 131.43 406.26 130.64 404.23 128.41 402.85 127.51 400.61 127.08 397.84 127.1 392.83 128.12 389.11 129.6 380.89 133.92 379.4 134.93 378.32 136.15 377.64 137.19 376.08 140.6 359.77 134.76 357.11 134.57 353.38 134.77 350.74 135.64 346 136.46 343.63 135.93 342.28 134.77 341.74 133.24 339.64 130.89 336.12 128.05 320.19 118.53 319.31 117.71 318.83 117.01 318.36 115.8 317.34 113.79 315.65 111.31 311.52 107.3 308.54 105.82 305.88 105.2 303.92 105.51 300.67 106.77 285.44 115.62 281.82 116.92 278.03 117.49 268.62 117.67 265.64 117.44 263 116.83 257.45 113.86 254.65 113.09 251.74 112.74 248.9 112.67 245.18 112.93 242.81 112.55 240.44 111.58 233.94 108.01 231.41 107.58 229.58 108.04 227.69 110.61 226.33 111.51 224.51 111.93 222.54 112.2 220.85 112.7 220.11 113.83 219.9 115.19 219.97 116.69 219.63 118.26 218.28 121.23 217.8 122.9 217.53 124.62 217.47 130.64 206.88 127.09 204.99 127.29 202.82 127.9 202.01 129.27 200.52 131.07 198.28 132.95 193.34 135.36 190.36 135.91 188.67 135.65 188.74 134.83 189.01 133.88 188.74 132.99 186.1 132.07 184.92 132.57 184.65 133.67 184.74 134.97 184.07 136.35 182.96 136.18 181.74 135.51 180.52 134.53 175.72 131.29 173.42 129.2 172.06 127.64 171.05 126.09 169.56 121.72 169.42 120.34 169.62 119.72 170.3 119.06 172.94 119.23 173.89 118.82 174.23 117.71 174.3 115.14 174.57 114.04 176.12 111.59 176.87 110.13 177.21 108.32 177.34 106.48 177.21 104.72 176.39 101.59 176.12 100.03 176.19 96.1 175.45 94.2 174.16 91.85 165.09 78.79 162.65 76.99 155.99 73.6 153.42 70.87 149.9 65.79 148.48 63.1 147.87 60.96 148.55 59.68 149.63 58.77 151.46 58.41 153.35 58.39 155.25 58.12 156.54 57.26 157.15 55.81 157.35 41.85 156.47 40.22 154.71 38.84 152.41 37.65 148.95 35.35 147.46 33.17 146.79 30.2 145.91 28.6 143.27 26.44 141.1 25.08 129.23 14.31 129.72 12.65 129.72 12.65 130.46 13.06 133.31 13.58 137.71 12.74 145.18 10.08 145.18 10.07 145.55 11.94 150.98 16.71 155.79 15.98 159.54 12.6 161.57 7.84 162.12 6.38 162.13 6.38 166.36 5.96 170.47 6.38 170.48 6.38 184.33 7.86 184.34 7.86 192.99 8.76 192.64 11.52 193.57 16.71 197 21.11 201.78 25.55 207.22 27.92 214.06 29.66 229.4 32.71 237.93 37.15 244.75 44.31 248.81 53.17 255.67 53.51 258.33 49.74 262.44 45.3 265.19 44.31 270.29 43.27 280.49 44.31 285.28 44.96 290.35 44.31 295.84 43.27 305.72 38.82 314.25 30.67 325.13 26.23 332.62 22.82 343.52 20.09 353.38 15.98 360.87 13.95 366.67 18.74 371.48 18.06 381 9.19 387.8 7.16 402.1 5.13 416.84 9.85 423.93 13.28 437.28 14.29 449.85 17.04 456.69 17.38 461.48 15.31 469.6 15.31 482.58 11.94 485.31 10.23 488.69 5.81 493.84 1.72 499.61 1 503.04 3.41 504.4 8.51 505.8 14.65 511.17 23.16 515.95 30.34 524.17 42.59 527.23 46.67 527.23 54.53 527.23 63.01 524.84 71.25 522.45 81.79 522.77 85.85 527.23 86.89 527.23 84.16 527.91 79.73 529.27 74.27 531.34 71.25 534.68 63.35 537.43 61.32 540.5 61.32 544.54 62 550.03 63.71 552.73 63.35 553.43 58.93 555.13 56.18 557.83 56.18 561.58 58.93 564.33 62.67 566.37 69.15 571.85 72.58 577.33 73.26 582.03 69.87 587.17 67.8 597.42 74.61 603.83 74.61 605.54 73.93 612.04 74.61 615.73 73.28 Z" id="CYP-3464" data-name="Nicosia"/>
<path d="M 217.47 130.64 219.29 136.52 224.3 142.13 224.44 144.07 223.63 145.84 221.53 148.07 219.7 149.19 217.74 149.92 215.3 151.7 212.86 154.88 206.61 166.07 204.51 168.2 202.89 168.74 200.99 169.12 199.5 169.82 197.4 171.73 190.16 180.34 188.81 183.25 188.54 185.24 189.48 186.18 190.84 187 192.19 188.66 193.14 191.09 192.87 196.53 191.92 199.2 190.57 200.98 186.1 203.2 182.49 206.29 179.44 208.25 177.55 209.71 170.03 213.92 166.78 217.21 164.21 218.96 161.23 220.55 160.69 221.6 161 222.72 161.97 223.89 162.58 225.29 162.85 226.96 162.56 236.14 162.56 236.16 155.8 233.72 133.45 222.22 125.42 219.36 116.32 217.53 97.77 215.91 90.13 213.32 82.77 209.53 65.36 198.13 62.84 195.73 60.1 183.09 58.32 181.07 58.04 176.96 47.91 153.99 43.01 150.52 33.73 145.46 29.79 142.05 26.2 137.68 23.57 132.43 23.28 126.78 27.05 121.17 18.66 109.8 17.84 105.21 17.84 95.69 15.93 87.46 6.44 73.94 2.92 67.22 1 56.28 2.49 48.32 7.5 45.65 16.35 50.7 29.36 62.42 36.64 67.15 44.92 69.96 63.05 69.28 78.83 62.39 91.8 51.85 101.54 40.39 108.04 26.85 112.73 19.5 119.66 15.37 120.51 13.31 121.72 11.23 124.24 10.33 126.41 10.82 129.72 12.65 129.23 14.31 141.1 25.08 143.27 26.44 145.91 28.6 146.79 30.2 147.46 33.17 148.95 35.35 152.41 37.65 154.71 38.84 156.47 40.22 157.35 41.85 157.15 55.81 156.54 57.26 155.25 58.12 153.35 58.39 151.46 58.41 149.63 58.77 148.55 59.68 147.87 60.96 148.48 63.1 149.9 65.79 153.42 70.87 155.99 73.6 162.65 76.99 165.09 78.79 174.16 91.85 175.45 94.2 176.19 96.1 176.12 100.03 176.39 101.59 177.21 104.72 177.34 106.48 177.21 108.32 176.87 110.13 176.12 111.59 174.57 114.04 174.3 115.14 174.23 117.71 173.89 118.82 172.94 119.23 170.3 119.06 169.62 119.72 169.42 120.34 169.56 121.72 171.05 126.09 172.06 127.64 173.42 129.2 175.72 131.29 180.52 134.53 181.74 135.51 182.96 136.18 184.07 136.35 184.74 134.97 184.65 133.67 184.92 132.57 186.1 132.07 188.74 132.99 189.01 133.88 188.74 134.83 188.67 135.65 190.36 135.91 193.34 135.36 198.28 132.95 200.52 131.07 202.01 129.27 202.82 127.9 204.99 127.29 206.88 127.09 217.47 130.64 Z" id="CYP-3465" data-name="Paphos"/>
<path d="M 714.88 57.9 714.92 57.92 717.67 59.29 723.13 60.67 729.99 62 739.52 58.25 759.6 62 761.08 60.22 761.08 60.22 765.3 63.18 765.31 63.19 771.39 67.47 778 73.65 782.87 85.6 787.77 93.27 793.74 100.34 799 103.29 792.92 103.65 781.66 102.65 770.78 100.09 765.95 95.69 760.76 93.48 737.06 95.97 716.48 101.11 712 103.29 710.41 104.68 710.41 104.67 701.97 98.06 700.25 96.28 699.58 94.85 698.85 91.22 697.95 89.03 697.34 88.07 697.21 87.95 694.84 87.77 688.2 87.97 685.22 88.38 681.21 87.56 681.57 78.02 678.14 74.95 667.94 71.25 670.28 66.44 674.39 63.71 680.21 61.32 683.6 63.35 686.35 65.77 692.44 64.75 697.9 61.66 700.97 58.59 703.37 56.18 711.22 61.32 714.88 57.9 Z" id="CYP-3466" data-name="Famagusta"/>
<path d="M 325.85 247.72 314.97 247.72 305.72 248.76 302.65 251.83 299.63 250.13 298.95 244 304.01 240.23 306.04 242.62 314.57 242.62 313.58 230.7 299.25 228.99 293.81 233.43 291.1 237.54 288.35 235.47 282.89 233.43 281.32 236.43 268.59 233.67 260.34 228.37 258.07 224.49 257.75 218.83 255.16 219.32 251.77 219.32 249.51 219.32 247.24 219.15 245.79 218.67 243.69 220.61 241.58 222.87 240.13 224.49 234.31 225.3 231.08 231.76 222.35 230.79 217.17 229.5 214.26 232.57 214.51 239.51 209.5 240.98 191.23 242.92 173.07 239.97 162.56 236.16 162.56 236.14 162.85 226.96 162.58 225.29 161.97 223.89 161 222.72 160.69 221.6 161.23 220.55 164.21 218.96 166.78 217.21 170.03 213.92 177.55 209.71 179.44 208.25 182.49 206.29 186.1 203.2 190.57 200.98 191.92 199.2 192.87 196.53 193.14 191.09 192.19 188.66 190.84 187 189.48 186.18 188.54 185.24 188.81 183.25 190.16 180.34 197.4 171.73 199.5 169.82 200.99 169.12 202.89 168.74 204.51 168.2 206.61 166.07 212.86 154.88 215.3 151.7 217.74 149.92 219.7 149.19 221.53 148.07 223.63 145.84 224.44 144.07 224.3 142.13 219.29 136.52 217.47 130.64 217.53 124.62 217.8 122.9 218.28 121.23 219.63 118.26 219.97 116.69 219.9 115.19 220.11 113.83 220.85 112.7 222.54 112.2 224.51 111.93 226.33 111.51 227.69 110.61 229.58 108.04 231.41 107.58 233.94 108.01 240.44 111.58 242.81 112.55 245.18 112.93 248.9 112.67 251.74 112.74 254.65 113.09 257.45 113.86 263 116.83 265.64 117.44 268.62 117.67 278.03 117.49 281.82 116.92 285.44 115.62 300.67 106.77 303.92 105.51 305.88 105.2 308.54 105.82 311.52 107.3 315.65 111.31 317.34 113.79 318.36 115.8 318.83 117.01 319.31 117.71 320.19 118.53 336.12 128.05 339.64 130.89 341.74 133.24 342.28 134.77 343.63 135.93 346 136.46 350.74 135.64 353.38 134.77 357.11 134.57 359.77 134.76 376.08 140.6 375.81 148.72 378.73 151.14 382.2 152.35 383.96 152.76 388.83 152.57 390.05 152.69 410.93 158.88 414.11 160.43 416.28 161.99 429.54 174.64 434.1 180.43 437.08 185.39 437.89 187.14 437.96 188.8 435.32 203.15 435.32 204.84 437.83 214.95 438.05 215.87 438.04 215.88 432.61 218.86 426.28 219.86 394.83 216.84 363.52 219.86 356.77 221.35 350.58 224.87 330.33 240.34 325.85 247.72 325.85 247.72 Z" id="CYP-3489" data-name="Limassol"/>
</g>
</svg>