<?xml version="1.0"?>
<svg xmlns="http://www.w3.org/2000/svg" version="1.2" baseProfile="tiny" width="800" height="1392" viewBox="0 0 800 1392" stroke-linecap="round" stroke-linejoin="round">
<g id="ne_10m_admin_1_states_provinces">
<path d="M 233.39 636.82 217.64 660.33 206.97 671.38 86.64 752.41 48.9 768.01 45.64 769.73 45.63 768.92 42.68 761.25 27.72 739.4 15.3 721.27 13.62 716.29 11.62 706.13 6.01 697.02 4.66 693.67 1.99 682.92 1 675.32 5.06 655.72 5.66 641.31 8.35 636.03 12.6 632.37 20.49 625.59 25.27 620.31 30.62 615.69 38.22 612.53 50.64 610.87 54.33 609.24 56.77 606.78 58.53 603.61 65.88 580.49 69.72 573.63 77.35 569.04 94.29 562.88 102.45 558.04 121.01 551.01 122.66 549.8 123.48 550.48 125 554.12 125.09 556 121.91 566.16 121.88 567.67 122.3 568.81 129.15 574.4 129.93 575.24 130.87 576.71 130.75 577.59 130.18 578.22 129.24 578.59 119.87 579.59 118.96 579.78 118.08 580.09 117.17 580.72 110.26 587.81 109.2 589.17 108.01 591.24 108.11 592.31 108.68 593.14 123 601.02 126.63 603.81 128.3 605.34 131.21 608.83 133.58 612.32 135.15 614.25 136.03 614.93 136.94 615.42 137.82 615.68 145.07 616.24 159.77 620.46 160.95 621.01 164.25 623.14 166.84 625.35 167.66 626.35 168.14 627.3 168.93 630.05 170.68 634.63 171.62 635.9 172.53 636.6 215.37 634.46 222.77 634.99 233.39 636.82 Z" id="TUN-101" data-name="Tozeur"/>
<path d="M 559.24 89.58 558.42 90.03 530.92 97.15 506.7 107.81 498.42 110.41 494.79 111.98 492.99 113 492.87 113.72 493.14 114.34 493.57 114.77 494.21 115.21 495.73 115.99 496.39 116.46 496.67 116.93 496.88 117.78 496.97 118.52 497.24 119.24 497.76 119.94 498.45 120.55 501.97 122.59 503.6 123.9 504.21 124.6 504.6 125.36 504.72 126.29 504.69 127.03 504.09 129.1 494.33 137.08 490.78 139.17 487.81 139.69 486.99 138.26 486.51 137.7 485.78 137.03 485.02 136.69 484.21 136.55 483.42 136.57 481.74 136.92 480.71 137.56 479.56 138.61 476.35 143.26 473.14 149.41 471.22 150.87 465.29 152.39 463.23 148.7 455.58 139.58 449.18 128.84 447.76 125.7 447.33 124.21 447 123.49 446.36 122.87 445.24 122.39 440 122.02 428.91 118.98 406.07 101.8 413.86 96.42 430.82 90.25 441.09 88.35 442.97 87.64 444.24 86.87 446.58 83.5 449.21 80.99 452.64 78.51 454.46 77.54 455.85 76.96 463.01 76.65 466.95 77.05 470.68 77.94 481.05 81.83 482.41 82.1 485.27 82.33 487.84 82.25 489.51 81.77 490.63 81.19 491.29 80.55 491.78 79.9 492.14 79.27 493.63 75.98 496.79 71.18 498.33 69.3 505.16 58.05 506.46 55.19 506.91 54.45 507.55 53.63 509.25 51.82 510.46 50.26 512.43 48.3 513.82 47.42 515.21 46.84 525.43 45.98 534.77 43.41 536.03 43.26 537.76 45.46 538.4 47.33 537.24 49.7 535.9 46.9 527.46 53.55 529.03 63.16 536.39 73.01 545.34 80.38 552.64 83.22 554.69 84.38 559.24 89.58 Z" id="TUN-102" data-name="Manubah"/>
<path d="M 406.07 101.8 428.91 118.98 440 122.02 445.24 122.39 446.36 122.87 447 123.49 447.33 124.21 447.76 125.7 449.18 128.84 455.58 139.58 463.23 148.7 465.29 152.39 453.73 160.16 450.15 163.29 449.36 164.79 448.94 165.88 443.18 172.57 440.79 177.3 429 178.36 424.69 179.13 421.54 180.18 413.08 183.85 411.32 184.43 409.68 184.7 408.62 184.64 407.35 184.37 405.61 183.58 404.4 182.82 400.07 179.17 398.31 178.2 395.68 177.07 393.82 176.55 391.4 176.42 380.18 177.02 374.33 177.86 372.57 178.56 370.96 179.6 370.27 180.24 367.93 182.85 360.17 194.25 358.56 194.47 356.14 194.1 345.98 189.63 342.47 187.65 341.23 187.22 339.7 186.96 337.07 186.94 334.28 187.28 322.97 190.63 320.97 190.94 316.24 188.36 300.3 176.05 303.96 174.38 304.93 173.82 305.63 173.13 305.99 172.42 306.14 171.75 306.32 166.11 306.66 164.29 306.99 163.55 307.41 162.86 308.7 161.42 311.79 158.62 312.42 157.89 312.18 155.64 311.03 152.09 304.48 137.92 302.96 136.37 302.2 135.24 301.63 133.89 301.26 130.28 302.51 120.46 302.42 119.57 302.08 118.68 301.02 117.68 299.14 116.48 297.05 115.44 296.23 115.13 285.04 113.65 284.01 113.32 282.95 112.8 281.98 112.19 281.28 111.41 280.98 110.6 281.4 109.47 281.86 108.6 282.37 107.8 282.74 106.84 283.04 105.72 283.13 103.96 283.34 102.92 283.74 102.03 284.25 101.33 285.01 100.65 292.23 95.84 292.99 95.14 293.53 94.41 293.35 93.14 292.59 91.51 288.9 86.65 281.5 79.83 280.95 78.96 280.68 78 281.19 76.6 281.86 76.02 282.62 75.66 283.13 75.55 286.75 74.43 287.41 74.02 286.14 71.98 277.77 64.8 277.69 64.76 277.7 64.76 279.19 64.21 283.52 60.85 289.59 54.91 295.6 45.62 298.21 44.22 300.11 43.47 305.58 38.78 307.65 37.78 313.53 35.85 313.82 36.73 314.27 43.45 313.97 46.44 312.85 50.63 312.54 53.36 312.75 54.46 313.12 55.61 313.94 57.33 314.78 58.15 315.72 58.68 316.6 58.83 328.79 58.64 330.01 59 331.43 59.71 333.89 61.43 335.01 62.5 335.86 63.51 336.61 64.99 338.4 69.83 343.17 78.1 345.71 83.74 346.71 85.15 347.68 86.25 354.17 91.18 355.96 92.18 357.81 92.94 364.84 94.76 367.18 95.97 369.11 97.32 369.81 98.27 370.24 99.2 370.27 99.99 370.14 101.55 369.87 102.9 369.51 104.05 368.78 105.73 368.36 106.56 367.99 107.39 367.54 108.17 366.42 110.7 366.54 111.92 366.96 113.69 368.54 117.37 369.75 119.11 370.81 120.28 373.42 121.68 374.3 121.97 376.09 122.26 376.91 122.3 377.79 122.23 378.7 122.03 379.64 121.63 381.45 120.47 400.25 104.53 402.04 103.3 403.95 102.4 406.07 101.8 Z" id="TUN-103" data-name="Béja"/>
<path d="M 574.82 121.29 574.55 122.32 570.24 134.68 562.82 146.61 562.43 148.52 562.88 149.96 563.61 154.62 560.06 171.87 555.54 172.27 553.75 172.6 551.9 173.19 544.66 176.6 543.84 177.14 542.75 177.21 541.69 176.84 540.14 174.96 539.66 173.8 539.48 172.8 539.72 172.11 539.87 171.31 538.2 169.43 520.43 156.29 519.95 155.48 514.58 152.27 506.73 149.32 503.33 148.37 501.03 148.04 499 148.78 497.33 149.05 496.24 148.86 495.03 148.36 492.96 146.74 491.75 145.54 487.81 139.69 490.78 139.17 494.33 137.08 504.09 129.1 506.34 129.61 508.31 129.87 511 129.92 515.33 129.34 516.4 128.79 517.62 127.93 520.52 124.85 521.68 124.07 523.19 123.84 526.31 124.33 528.08 124.38 530.35 124.02 531.68 123.93 533.01 123.55 534.65 122.72 537.25 120.55 539.9 118.93 541.05 117.06 543.44 110.11 543 109.2 543.01 109.19 543.61 108.72 546.57 104.38 550.77 111.87 555.93 117.53 562.82 120.97 572.14 121.84 574.82 121.29 Z" id="TUN-104" data-name="Ben Arous (Tunis Sud)"/>
<path d="M 536.03 43.26 534.77 43.41 525.43 45.98 515.21 46.84 513.82 47.42 512.43 48.3 510.46 50.26 509.25 51.82 507.55 53.63 506.91 54.45 506.46 55.19 505.16 58.05 498.33 69.3 496.79 71.18 493.63 75.98 492.14 79.27 491.78 79.9 491.29 80.55 490.63 81.19 489.51 81.77 487.84 82.25 485.27 82.33 482.41 82.1 481.05 81.83 470.68 77.94 466.95 77.05 463.01 76.65 455.85 76.96 454.46 77.54 452.64 78.51 449.21 80.99 446.58 83.5 444.24 86.87 442.97 87.64 441.09 88.35 430.82 90.25 413.86 96.42 406.07 101.8 403.95 102.4 402.04 103.3 400.25 104.53 381.45 120.47 379.64 121.63 378.7 122.03 377.79 122.23 376.91 122.3 376.09 122.26 374.3 121.97 373.42 121.68 370.81 120.28 369.75 119.11 368.54 117.37 366.96 113.69 366.54 111.92 366.42 110.7 367.54 108.17 367.99 107.39 368.36 106.56 368.78 105.73 369.51 104.05 369.87 102.9 370.14 101.55 370.27 99.99 370.24 99.2 369.81 98.27 369.11 97.32 367.18 95.97 364.84 94.76 357.81 92.94 355.96 92.18 354.17 91.18 347.68 86.25 346.71 85.15 345.71 83.74 343.17 78.1 338.4 69.83 336.61 64.99 335.86 63.51 335.01 62.5 333.89 61.43 331.43 59.71 330.01 59 328.79 58.64 316.6 58.83 315.72 58.68 314.78 58.15 313.94 57.33 313.12 55.61 312.75 54.46 312.54 53.36 312.85 50.63 313.97 46.44 314.27 43.45 313.82 36.73 313.53 35.85 313.53 35.85 329.12 30.77 331.5 29.6 335.6 24.26 339.18 22.76 364.94 22.47 372.4 20.1 377.17 15.99 379.9 14.56 382.54 15.42 384.55 16.37 386.69 16.03 388.77 15.21 394.51 14.1 399.09 12.43 403.24 10.22 406.01 7.97 409.99 9.78 413.58 9.26 420.8 5.31 424.87 3.61 428.19 2.91 436.79 2.76 441.12 1.37 443.5 1 445.55 2.03 447.13 3.26 449.13 3.87 465.83 4.2 465.86 4.78 466.27 6.64 466.37 15.46 460.33 19.36 452.9 21.94 448.81 26.77 449.45 28.24 452.5 33.59 453.47 34.77 454.62 35.4 455.84 38.16 457.43 38.78 465.99 39.72 469.93 39.12 474.27 36.24 476.66 33.61 478.8 30 478.74 26.81 466.27 22.76 464.4 22.95 460.39 23.95 458.15 23.98 458.15 22.76 462.9 20.1 464.78 19.7 465.97 18.79 466.81 17.84 467.5 17.31 470.44 16.95 489.46 20.37 492.97 20.1 503.42 16.36 505.09 16.7 508.22 20.59 521.97 22.23 528.32 26.89 542.85 31.05 546.57 33.56 540.3 34.88 537.41 35.87 534.68 37.44 533.61 34.23 528.17 33.67 521.92 34.99 518.43 37.44 519.86 40.64 524.98 42.2 530.89 42.41 534.68 41.56 536.03 43.25 536.03 43.26 Z" id="TUN-105" data-name="Bizerte"/>
<path d="M 300.3 176.05 297.15 175.34 293.89 175.08 290.17 175.64 281.86 178.22 264.86 182.88 218.19 184.82 216.43 185.09 209 187.32 191.39 194.65 187.46 194.83 175.26 193.96 172.08 194.25 172.6 191.55 172.91 183.48 172.52 179.74 170.87 176.14 167.86 174.66 164.16 173.83 160.39 172.26 143.42 170.47 135.43 167.82 135.43 167.7 135.83 161.09 140.43 156.57 146.07 153.68 158.69 149.84 182.34 138.27 186.72 134.36 191.18 127.52 192.86 120.65 188.92 116.66 182.09 113.78 183.35 110.67 189.38 108.26 196.94 107.53 204.25 107.93 210.97 106.81 224.52 102.43 228.01 100.42 228.18 98.05 221.47 89.8 220.8 87.79 220.97 85.44 220.35 80.26 220.36 80.26 223.98 79.04 237.87 74.43 242.64 73.7 259.33 73.7 263.7 72.46 271.78 66.95 277.69 64.76 277.77 64.8 286.14 71.98 287.41 74.02 286.75 74.43 283.13 75.55 282.62 75.66 281.86 76.02 281.19 76.6 280.68 78 280.95 78.96 281.5 79.83 288.9 86.65 292.59 91.51 293.35 93.14 293.53 94.41 292.99 95.14 292.23 95.84 285.01 100.65 284.25 101.33 283.74 102.03 283.34 102.92 283.13 103.96 283.04 105.72 282.74 106.84 282.37 107.8 281.86 108.6 281.4 109.47 280.98 110.6 281.28 111.41 281.98 112.19 282.95 112.8 284.01 113.32 285.04 113.65 296.23 115.13 297.05 115.44 299.14 116.48 301.02 117.68 302.08 118.68 302.42 119.57 302.51 120.46 301.26 130.28 301.63 133.89 302.2 135.24 302.96 136.37 304.48 137.92 311.03 152.09 312.18 155.64 312.42 157.89 311.79 158.62 308.7 161.42 307.41 162.86 306.99 163.55 306.66 164.29 306.32 166.11 306.14 171.75 305.99 172.42 305.63 173.13 304.93 173.82 303.96 174.38 300.3 176.05 Z" id="TUN-106" data-name="Jendouba"/>
<path d="M 596.83 195.38 595.81 193.64 594.74 191.81 594.38 191.39 593.99 191.05 593.35 190.68 592.19 190.64 590.74 190.9 588.13 191.87 586.71 192.61 585.37 193.1 584.1 193.13 582.07 192.27 580.82 191.49 576.88 190.79 571.22 191.59 564.82 192.5 563.61 192.36 562.97 192.15 562.09 191.74 561.33 191.15 560.7 190.43 560.21 189.66 559.69 185.69 560.06 171.87 563.61 154.62 562.88 149.96 562.43 148.52 562.82 146.61 570.24 134.68 574.55 122.32 574.82 121.29 574.82 121.29 578.78 121.43 588.69 117.36 594.74 116.16 598.56 112.99 600.08 107.54 601.36 103.04 604.16 95.17 607.69 92.64 611.82 91.95 620.9 92.5 629.12 91.22 636.7 88.8 646.42 83.21 652.43 78.14 654.21 77.45 654.96 75.64 655.58 74.65 666.81 67.27 668.43 65.69 668.94 63.52 668.21 62.16 667.86 60.9 669.65 58.91 673.87 57.3 683.72 56.48 691.26 51.88 695.3 51.36 698.75 52.76 700.56 56.24 700.29 57.92 698.27 60.24 697.78 62.3 698.23 64.47 700.13 67.27 700.56 69.03 701.28 70.39 704.67 74.43 705.92 76.38 706.38 78.29 706.72 82.47 707.24 84.38 708.15 85.92 709.48 87.67 710.88 89.11 711.92 89.71 713.06 90.78 715.4 93.74 714.29 96.96 711.59 100.02 703.77 102.6 693.1 109.81 687.32 118.45 679 128.26 665.24 148.85 654.72 170.08 649.69 175.54 633.52 178.92 614.62 187.57 607.81 186.04 601.04 190.12 596.83 195.38 Z" id="TUN-107" data-name="Nabeul"/>
<path d="M 543 109.2 543.44 110.11 541.05 117.06 539.9 118.93 537.25 120.55 534.65 122.72 533.01 123.55 531.68 123.93 530.35 124.02 528.08 124.38 526.31 124.33 523.19 123.84 521.68 124.07 520.52 124.85 517.62 127.93 516.4 128.79 515.33 129.34 511 129.92 508.31 129.87 506.34 129.61 504.09 129.1 504.69 127.03 504.72 126.29 504.6 125.36 504.21 124.6 503.6 123.9 501.97 122.59 498.45 120.55 497.76 119.94 497.24 119.24 496.97 118.52 496.88 117.78 496.67 116.93 496.39 116.46 495.73 115.99 494.21 115.21 493.57 114.77 493.14 114.34 492.87 113.72 492.99 113 494.79 111.98 498.42 110.41 506.7 107.81 530.92 97.15 558.42 90.03 559.24 89.58 559.24 89.58 561.23 91.84 560.21 94.12 555.73 97.71 553.84 101.7 551.78 103.27 549.11 103.62 546.57 101.84 548.02 98.87 546.19 98.06 542.82 98.47 536.47 100.14 534.56 101.3 531.23 105.11 530.22 107.99 533.04 108.96 539.16 109.11 541.7 110.2 543 109.2 Z" id="TUN-108" data-name="Tunis"/>
<path d="M 298.45 321.78 288.81 321.26 255.21 309.67 239.26 306.01 237.35 305.89 235.75 306.38 233.63 307.41 229.19 310.26 227.32 311.73 226.11 312.88 225.65 313.56 224.86 315.18 224.23 316.99 223.8 318.64 222.99 326.64 222.44 329.21 221.93 330.55 220.93 331.89 220.32 332.41 216.16 332.86 207.12 332.35 204.88 331.82 196.36 328.11 195.42 327.84 194.48 327.7 192.76 327.61 191.06 328.17 188.76 329.21 181.81 333.51 178.45 336.06 175.92 336.91 170.11 337.35 166.57 337.8 165.86 331.78 162.53 325.39 152.98 312.61 150.65 305.78 149.8 297.49 150.94 281.94 155.08 269.72 155.86 267.4 156.49 256.63 160.61 242.26 162.81 239.02 164.59 235.32 164.08 231.8 162.63 228.17 161.7 224.3 162.63 216.23 171.88 195.27 172.08 194.25 175.26 193.96 187.46 194.83 191.39 194.65 209 187.32 216.43 185.09 218.19 184.82 264.86 182.88 281.86 178.22 290.93 189.39 293.32 193.43 293.56 194.28 293.65 195.77 293.38 197.29 293.08 198.02 292.14 199.52 291.47 200.27 290.9 201.37 290.47 202.7 290.32 205.27 290.53 206.65 290.93 207.78 292.93 210.49 297.99 215.47 301.81 220.58 302.63 222.08 303.14 223.31 303.39 224.91 303.42 227.72 302.99 231.77 303.05 233.19 303.42 235.81 304.05 237.19 304.81 238.22 307.44 239.69 319.43 244.67 320.88 245.8 322.58 247.48 325.64 251.43 326.76 253.42 327.36 254.99 327.15 258.46 326.09 263.75 324.73 268.07 323.67 270.27 322.58 271.72 317.9 275.88 315.09 279.37 314.33 280.82 313.69 283.73 313.18 285.4 312.45 287.01 311.94 287.82 311.3 288.59 304.35 293.35 303.66 293.98 303.02 294.92 302.75 295.49 302.51 296.22 302.26 297.87 302.26 305.56 301.45 312.85 301.14 314.29 298.45 321.78 Z" id="TUN-109" data-name="Le Kef"/>
<path d="M 298.45 321.78 310.51 335.83 314.21 339.28 315.03 339.5 315.87 339.57 316.78 339.51 317.66 339.34 320.28 338.45 321.19 338.26 322.03 338.18 322.85 338.24 330.56 341.13 332.43 342.15 333.61 343.08 335.95 347.58 337.4 349.48 338.49 350.34 339.61 350.83 344.53 351.57 348.53 353.16 355.6 356.69 357.2 357.71 358.71 359.06 359.84 360.43 361.14 362.61 361.65 363.94 361.9 365.3 361.44 368.69 360.68 371.46 359.93 372.67 358.87 373.93 356.66 375.95 354.02 377.97 347.26 381.24 345.32 382.44 343.62 383.87 342.8 384.89 342.08 386.18 339.85 391.55 339.19 392.47 338.22 393.51 335.19 395.68 333.22 396.67 332.22 397.67 331.1 399.07 328.06 405.23 327.12 408.22 326.97 408.96 326.94 409.68 326.97 410.44 327.12 411.1 327.36 411.74 327.64 412.14 328.24 412.7 329.86 413.64 330.56 413.94 345.23 417.71 347.32 418.61 348.16 419.14 348.83 419.82 349.38 420.6 349.68 421.42 349.86 422.26 349.77 424.38 348.07 432.59 347.98 434.95 348.22 438.37 348.62 440.38 349.47 442.36 351.1 445.41 351.31 446.02 351.4 446.43 351.44 447.02 351.37 447.69 351.22 448.37 350.98 449.06 350.13 449.94 348.68 451.06 343.62 453.4 333.77 455.95 326.12 459.23 325.73 459.3 325.06 459.36 323.46 459.17 320.16 458.41 319.04 458.77 317.87 459.64 316 461.83 314.54 464.14 314.21 464.84 312.66 467.63 311.45 469.21 305.05 475.11 303.84 476.67 303.26 477.87 303.48 478.67 303.9 479.42 304.48 480.15 305.2 480.84 305.99 481.44 308.73 482.68 309.42 483.26 309.73 483.9 307.97 485.19 260.09 507.93 254.34 510.44 250.6 511.59 241.81 512.65 240.11 513.11 220.13 521.37 218.13 522.44 216.46 523.72 216.01 524.39 215.71 525.03 214.59 528.61 213.92 530.05 212.25 530 209.53 529.13 195.97 522.74 193.24 521.1 171.9 515.3 167.99 513.52 165.6 511.78 162.8 510.67 155.59 509.94 153.18 509.76 154.71 508 155.26 505.35 151.62 485.64 151.26 478.37 153.24 470.81 157.9 460.38 161.34 445.99 163.92 439.07 173.15 430.7 184.96 415.82 186.9 411.98 180.18 407.69 172.04 405.61 164.65 402.65 160.14 395.7 158.89 387.69 159.3 380.55 161.42 373.74 168.42 359.88 168.48 354.11 166.57 337.8 170.11 337.35 175.92 336.91 178.45 336.06 181.81 333.51 188.76 329.21 191.06 328.17 192.76 327.61 194.48 327.7 195.42 327.84 196.36 328.11 204.88 331.82 207.12 332.35 216.16 332.86 220.32 332.41 220.93 331.89 221.93 330.55 222.44 329.21 222.99 326.64 223.8 318.64 224.23 316.99 224.86 315.18 225.65 313.56 226.11 312.88 227.32 311.73 229.19 310.26 233.63 307.41 235.75 306.38 237.35 305.89 239.26 306.01 255.21 309.67 288.81 321.26 298.45 321.78 Z" id="TUN-110" data-name="Kassérine"/>
<path d="M 437.45 606.01 439.79 609.07 441.49 610.42 443.34 611.25 446.64 612.22 449 612.62 449.88 612.68 454.19 612.42 457.61 611.73 459.34 611.57 462.59 611.62 464.38 612.1 465.77 612.8 467.31 614.43 469.74 617.57 472.78 619.97 476.38 622.16 479.83 623.68 484.27 624.23 485.84 624.2 486.87 623.93 487.63 623.38 487.96 622.75 488.08 622.03 488.02 619.75 488.11 618.83 488.45 618.04 489.3 617.3 490.02 617.22 490.54 617.28 491.2 617.62 495.37 620.78 494.42 621.25 496.26 624.62 496.99 628.51 496.96 636.71 497.6 640.27 500.46 647.85 501.08 651.45 502.94 657.82 507.33 665.1 525.26 686.59 527.14 688.19 529.91 689.42 557.92 712.66 565.24 716.32 580.55 721.92 583.31 722.45 583.32 722.45 582.74 722.8 578.58 725.39 566.39 737.93 564.97 739.72 564.21 741.32 553.36 755.72 549.18 762.78 547.87 763.97 546.71 764.62 533.74 767.81 527.47 770.11 505 785.76 502.84 786.43 488.39 789.1 482.56 791.24 480.92 791.62 477.56 791.68 466.83 790.9 463.26 791.45 455.01 793.63 453.19 793.81 451.4 793.76 446.27 793.16 442.73 793.09 434.84 785.97 432.18 782.98 424.41 770.67 421.72 767.59 406.34 755.65 405.67 754.61 405.28 753.45 405.34 751.68 405.64 750.52 406.07 749.58 410.71 743.49 411.14 742.74 412.44 739.91 412.86 738.39 412.98 737.62 412.71 736.6 411.98 735.39 410.32 733.32 401.01 725.12 400.01 724.66 399.19 724.48 398.31 724.53 395.68 724.98 394.73 724.92 393.82 724.75 392.91 724.36 392.06 723.81 391.31 723.14 390.67 722.46 388.01 718.25 386.79 716.72 386.04 716.01 384.33 714.89 382.36 713.96 373.67 710.94 372.87 710.49 372.11 709.9 371.48 709.2 361.2 694.26 356.02 684.97 352.87 677.95 350.47 670.67 348.89 661.95 348.68 653.6 349.83 645.66 350.31 644.32 351.22 643.01 351.84 642.36 352.6 641.68 356.17 639.05 363.54 634.58 366.99 631.72 367.54 631.06 367.9 630.37 367.66 629.58 366.84 628.68 357.87 624.16 356.84 623.4 353.47 620.4 351.56 617.91 350.34 614.58 362.35 610.22 366.42 609.38 388.49 611.64 390.49 611.61 391.97 611.43 400.07 607.76 403.65 606.75 407.14 605.29 412.98 601.22 415.53 599.87 423.35 597.7 425.38 597.44 426.93 597.41 428.79 598.07 432.66 600.13 434.51 601.42 435.27 602.08 435.84 602.79 436.78 604.33 437.45 606.01 Z" id="TUN-111" data-name="Gabès"/>
<path d="M 407.14 605.29 403.65 606.75 400.07 607.76 391.97 611.43 390.49 611.61 388.49 611.64 366.42 609.38 362.35 610.22 350.34 614.58 324.34 618.03 321.31 617.82 317.84 616.87 316.12 617.17 308.42 619.6 304.08 621.41 303.26 622.08 302.6 622.8 302.08 623.56 301.72 624.29 301.48 625.02 301.26 626.42 301.17 630.72 301.02 631.44 300.63 632.29 300.05 633 299.36 633.58 298.66 633.92 298.05 634.12 296.77 634.17 284.55 633.11 277.01 631.46 275.62 631.46 273.88 631.74 266.98 634.27 233.39 636.82 222.77 634.99 215.37 634.46 172.53 636.6 171.62 635.9 170.68 634.63 168.93 630.05 168.14 627.3 167.66 626.35 166.84 625.35 164.25 623.14 160.95 621.01 159.77 620.46 145.07 616.24 137.82 615.68 136.94 615.42 136.03 614.93 135.15 614.25 133.58 612.32 131.21 608.83 128.3 605.34 126.63 603.81 123 601.02 108.68 593.14 108.11 592.31 108.01 591.24 109.2 589.17 110.26 587.81 117.17 580.72 118.08 580.09 118.96 579.78 119.87 579.59 129.24 578.59 130.18 578.22 130.75 577.59 130.87 576.71 129.93 575.24 129.15 574.4 122.3 568.81 121.88 567.67 121.91 566.16 125.09 556 125 554.12 123.48 550.48 122.66 549.8 130.7 543.86 135.31 541.55 136.86 540.24 137.71 538.9 139.08 535.49 140.31 533.9 147.34 530.24 148.84 528.05 143.79 521.5 144.33 518.46 146.63 515.54 152.91 510.06 153.18 509.76 155.59 509.94 162.8 510.67 165.6 511.78 167.99 513.52 171.9 515.3 193.24 521.1 195.97 522.74 209.53 529.13 212.25 530 213.92 530.05 214.59 528.61 215.71 525.03 216.01 524.39 216.46 523.72 218.13 522.44 220.13 521.37 240.11 513.11 241.81 512.65 250.6 511.59 254.34 510.44 260.09 507.93 291.68 518.27 310.48 518.41 330.65 521.53 342.65 526.8 344.17 527.28 345.41 527.5 346.23 527.4 347.89 526.89 350.65 525.7 351.96 525.29 353.81 525.04 354.75 525.39 355.29 525.99 355.32 526.77 355.14 527.59 350.5 537.45 350.1 538.92 349.98 539.68 349.95 540.49 350.04 541.52 350.44 543.09 351.59 545.63 352.35 546.8 354.53 549.24 358.62 552.88 363.87 556.58 365.69 557.62 367.12 558.29 379.42 562.06 381 562.9 382.66 564.44 385.55 568.22 386.67 569.35 388.28 570.67 393.37 573.98 394.73 574.67 403.92 578.36 406.16 579.62 407.53 580.73 407.8 581.46 407.99 582.19 407.14 605.29 Z" id="TUN-112" data-name="Gafsa"/>
<path d="M 386.76 363.89 392.09 369.56 393.55 371.97 393.58 372.65 393.55 373.32 392.58 379.43 391.76 381.74 390.52 387.67 390.55 388.32 390.67 388.86 390.94 389.52 391.49 390.31 392.37 391.26 407.08 402.52 408.41 403.11 411.86 403.78 413.95 403.9 415.83 403.79 416.74 403.63 417.87 403.74 419.05 404.17 431.12 414.49 431.66 415.16 433.3 417.99 433.78 418.65 434.51 419.37 436.33 420.95 437.87 421.85 439.73 422.71 445.24 424.46 459.58 426.78 477.05 431.37 477.99 431.51 478.99 431.55 479.83 431.41 489.54 428.57 490.72 429.2 491.87 430.71 498.76 450.57 499.79 452.21 503.48 456.48 488.27 484.65 465.83 515.16 461.41 522.9 460.07 525.82 459.49 527.47 459.01 530.2 459.01 532.19 460.13 536.14 460.46 536.83 460.82 537.44 461.35 537.92 462.01 538.16 483.18 540.26 487.39 541.24 503.21 547.81 504.06 548.4 505 549.41 505.19 550.21 505.25 551.02 504.57 554.51 503.54 557.86 502.97 559.1 502.42 560.03 501.81 560.71 501.09 561.35 500.27 561.9 490.93 565.91 489.17 567.13 486.24 569.93 485.39 570.52 484.42 570.83 483.51 570.96 479.11 570.87 477.29 571.04 476.41 571.24 474.84 571.87 473.56 572.59 466.25 577.91 464.47 578.97 460.58 580.65 448.91 583.95 443.46 586.41 441 588.29 439.18 590.15 438.45 591.24 438.21 592.15 438.6 592.85 439.3 593.48 442.55 595.82 443.85 597.3 444.91 598.82 446.27 601.52 446.64 602.6 446.91 603.85 447.09 605.92 446.76 607.05 446.09 607.81 445.27 608.1 444.46 608.23 443.67 608.23 442.88 608.12 441.28 607.63 437.45 606.01 436.78 604.33 435.84 602.79 435.27 602.08 434.51 601.42 432.66 600.13 428.79 598.07 426.93 597.41 425.38 597.44 423.35 597.7 415.53 599.87 412.98 601.22 407.14 605.29 407.99 582.19 407.8 581.46 407.53 580.73 406.16 579.62 403.92 578.36 394.73 574.67 393.37 573.98 388.28 570.67 386.67 569.35 385.55 568.22 382.66 564.44 381 562.9 379.42 562.06 367.12 558.29 365.69 557.62 363.87 556.58 358.62 552.88 354.53 549.24 352.35 546.8 351.59 545.63 350.44 543.09 350.04 541.52 349.95 540.49 349.98 539.68 350.1 538.92 350.5 537.45 355.14 527.59 355.32 526.77 355.29 525.99 354.75 525.39 353.81 525.04 351.96 525.29 350.65 525.7 347.89 526.89 346.23 527.4 345.41 527.5 344.17 527.28 342.65 526.8 330.65 521.53 310.48 518.41 291.68 518.27 260.09 507.93 307.97 485.19 309.73 483.9 309.42 483.26 308.73 482.68 305.99 481.44 305.2 480.84 304.48 480.15 303.9 479.42 303.48 478.67 303.26 477.87 303.84 476.67 305.05 475.11 311.45 469.21 312.66 467.63 314.21 464.84 314.54 464.14 316 461.83 317.87 459.64 319.04 458.77 320.16 458.41 323.46 459.17 325.06 459.36 325.73 459.3 326.12 459.23 333.77 455.95 343.62 453.4 348.68 451.06 350.13 449.94 350.98 449.06 351.22 448.37 351.37 447.69 351.44 447.02 351.4 446.43 351.31 446.02 351.1 445.41 349.47 442.36 348.62 440.38 348.22 438.37 347.98 434.95 348.07 432.59 349.77 424.38 349.86 422.26 349.68 421.42 349.38 420.6 348.83 419.82 348.16 419.14 347.32 418.61 345.23 417.71 330.56 413.94 329.86 413.64 328.24 412.7 327.64 412.14 327.36 411.74 327.12 411.1 326.97 410.44 326.94 409.68 326.97 408.96 327.12 408.22 328.06 405.23 331.1 399.07 332.22 397.67 333.22 396.67 335.19 395.68 338.22 393.51 339.19 392.47 339.85 391.55 342.08 386.18 342.8 384.89 343.62 383.87 345.32 382.44 347.26 381.24 354.02 377.97 356.66 375.95 358.87 373.93 359.93 372.67 360.68 371.46 361.44 368.69 361.9 365.3 372.23 362.84 375.94 362.82 386.76 363.89 Z" id="TUN-113" data-name="Sidi Bou Zid"/>
<path d="M 707.51 528.18 699.66 533.27 695.91 532.61 692.02 531.01 685.55 528.39 681.77 526.29 683.67 525.05 686.27 523.34 708.58 523.5 710.44 525.74 707.51 528.18 Z M 743.59 505.54 748.33 509.56 746.81 512.22 727.79 518.86 717.91 523.83 714.32 525 712.68 521.65 715.38 519.02 718.61 516.48 722.12 512.24 722.6 509.54 722.43 508.29 722.58 506.49 724.13 505.75 724.56 507.63 727.5 509.23 732.18 508.52 732.6 504.14 731.27 501.88 732.79 499.22 735.11 497.47 736.7 495.36 738.46 493.24 741.68 494.8 747.29 495.52 748.21 497.25 743.11 498.74 742.4 499.9 741.19 501.15 740.71 503.49 742.48 504.08 743.59 505.54 Z M 650.35 411.81 651.8 418.74 652.53 420.93 655.19 426.84 656.22 428.48 657.31 429.27 658.81 429.86 661.56 430.02 663.11 429.69 664.23 429.14 666.71 426.33 667.44 425.7 668.5 425.64 669.87 426.18 672.09 428.25 674.18 430.6 679.6 438.26 682.39 439.63 691.6 441.06 691.88 441.07 691.88 441.07 693.17 446.61 692.32 452.53 685.72 459.33 678.2 462.43 672.69 467.53 674.12 472.08 672.47 476.15 672.43 483.91 664.45 488.7 662.74 490.23 661.5 491.09 660.7 492.25 662.86 496.13 663.66 498.8 656.52 501.53 651.9 504.37 645.61 510.11 642.56 515.2 638.76 518.08 636.95 521.57 633.54 524.71 630.4 526.43 617.33 529.96 615.56 530.87 614.81 532.23 614.51 534.26 613.56 536.66 612.08 538.67 611.74 542.51 610.38 544.7 610.04 548.17 607.03 550.52 602.69 552.31 584.44 554.57 577.78 557.62 567.39 571.93 557.95 573.98 556.01 573.85 554.22 573.15 552.02 572.98 549.69 573.7 548.49 574.71 547.71 575.91 543.53 580.52 541.7 581.88 539.16 582.43 529.89 585.83 525.96 588.4 518.16 590.97 513.36 595.18 510.94 601.26 503.95 612.95 499.8 618.52 497.07 619.31 495.4 620.76 495.37 620.78 495.37 620.78 491.2 617.62 490.54 617.28 490.02 617.22 489.3 617.3 488.45 618.04 488.11 618.83 488.02 619.75 488.08 622.03 487.96 622.75 487.63 623.38 486.87 623.93 485.84 624.2 484.27 624.23 479.83 623.68 476.38 622.16 472.78 619.97 469.74 617.57 467.31 614.43 465.77 612.8 464.38 612.1 462.59 611.62 459.34 611.57 457.61 611.73 454.19 612.42 449.88 612.68 449 612.62 446.64 612.22 443.34 611.25 441.49 610.42 439.79 609.07 437.45 606.01 441.28 607.63 442.88 608.12 443.67 608.23 444.46 608.23 445.27 608.1 446.09 607.81 446.76 607.05 447.09 605.92 446.91 603.85 446.64 602.6 446.27 601.52 444.91 598.82 443.85 597.3 442.55 595.82 439.3 593.48 438.6 592.85 438.21 592.15 438.45 591.24 439.18 590.15 441 588.29 443.46 586.41 448.91 583.95 460.58 580.65 464.47 578.97 466.25 577.91 473.56 572.59 474.84 571.87 476.41 571.24 477.29 571.04 479.11 570.87 483.51 570.96 484.42 570.83 485.39 570.52 486.24 569.93 489.17 567.13 490.93 565.91 500.27 561.9 501.09 561.35 501.81 560.71 502.42 560.03 502.97 559.1 503.54 557.86 504.57 554.51 505.25 551.02 505.19 550.21 505 549.41 504.06 548.4 503.21 547.81 487.39 541.24 483.18 540.26 462.01 538.16 461.35 537.92 460.82 537.44 460.46 536.83 460.13 536.14 459.01 532.19 459.01 530.2 459.49 527.47 460.07 525.82 461.41 522.9 465.83 515.16 488.27 484.65 503.48 456.48 505.03 454.05 508.7 449.34 518.92 439.62 526.64 433.96 530.8 431.79 533.23 430.99 538.08 430.59 560.58 433.77 562.18 434.18 563.15 434.61 568.63 437.81 570.24 438.5 571.37 438.62 572.89 438.57 575.61 437.99 597.29 429.54 601.14 427.27 604.45 424.66 605.11 423.94 605.51 423.31 605.72 422.84 605.81 422.41 605.66 421.1 605.69 420.37 605.84 419.63 606.23 418.97 606.81 418.37 610.44 416.62 611.32 416.02 611.87 415.37 612.26 414.67 612.72 413.36 613.14 412.74 613.66 412.22 614.44 411.96 615.27 411.84 632.67 416.02 635.15 416.16 637.1 415.22 638.01 414.59 638.89 413.88 639.64 413.15 640.89 411.6 643.95 406.21 644.82 406.05 646.07 406.54 648.41 408.91 649.62 410.62 650.35 411.81 Z" fill-rule="evenodd" id="TUN-114" data-name="Sfax"/>
<path d="M 300.3 176.05 316.24 188.36 320.97 190.94 322.97 190.63 334.28 187.28 337.07 186.94 339.7 186.96 341.23 187.22 342.47 187.65 345.98 189.63 356.14 194.1 358.56 194.47 360.17 194.25 367.93 182.85 370.27 180.24 370.96 179.6 372.57 178.56 374.33 177.86 380.18 177.02 391.4 176.42 393.82 176.55 395.68 177.07 398.31 178.2 400.07 179.17 404.4 182.82 405.61 183.58 407.35 184.37 408.62 184.64 409.68 184.7 411.32 184.43 413.08 183.85 421.54 180.18 424.69 179.13 429 178.36 440.79 177.3 443.58 181.57 444.46 185.28 444.43 186.59 444.24 187.76 442.18 192.79 440.64 195.07 437.99 198.06 434.06 201.83 430.24 204.71 417.45 211.16 412.65 212.71 411.62 213.25 410.11 214.42 409.8 215.33 410.05 216.2 410.71 216.98 417.87 222.52 419.87 223.78 421.96 224.77 430.78 226.63 440.4 229.54 442.27 230.51 443.06 231.07 443.91 232.36 444.67 234.32 445.73 238.58 445.97 240.62 446.03 242.1 445.52 243.73 444.88 245.24 443.85 246.79 440.28 250.79 397.65 279.36 395.03 281.84 393.58 283.56 393.58 284.4 393.64 285.12 395.06 289.74 395.34 291.37 395.43 293.09 395.21 294.69 395 295.46 392.16 301.6 391.91 303.15 392.09 304.5 392.25 305.13 392.49 305.68 392.76 306.19 393.91 307.76 395.4 309.3 396.68 310.36 397.31 311.16 397.74 312.16 397.65 313.89 396.98 314.65 396.31 315.07 391.34 315.94 387.7 317.25 379.48 321.51 377.36 322.07 375.33 322.25 373.23 322.19 370.78 321.89 357.17 318.15 355.87 318.11 354.44 318.34 352.32 319.26 351.5 320.12 351.19 320.98 351.44 321.78 351.81 322.5 352.23 323.2 378.48 349.38 386.25 361.52 386.46 362.18 386.76 363.89 375.94 362.82 372.23 362.84 361.9 365.3 361.65 363.94 361.14 362.61 359.84 360.43 358.71 359.06 357.2 357.71 355.6 356.69 348.53 353.16 344.53 351.57 339.61 350.83 338.49 350.34 337.4 349.48 335.95 347.58 333.61 343.08 332.43 342.15 330.56 341.13 322.85 338.24 322.03 338.18 321.19 338.26 320.28 338.45 317.66 339.34 316.78 339.51 315.87 339.57 315.03 339.5 314.21 339.28 310.51 335.83 298.45 321.78 301.14 314.29 301.45 312.85 302.26 305.56 302.26 297.87 302.51 296.22 302.75 295.49 303.02 294.92 303.66 293.98 304.35 293.35 311.3 288.59 311.94 287.82 312.45 287.01 313.18 285.4 313.69 283.73 314.33 280.82 315.09 279.37 317.9 275.88 322.58 271.72 323.67 270.27 324.73 268.07 326.09 263.75 327.15 258.46 327.36 254.99 326.76 253.42 325.64 251.43 322.58 247.48 320.88 245.8 319.43 244.67 307.44 239.69 304.81 238.22 304.05 237.19 303.42 235.81 303.05 233.19 302.99 231.77 303.42 227.72 303.39 224.91 303.14 223.31 302.63 222.08 301.81 220.58 297.99 215.47 292.93 210.49 290.93 207.78 290.53 206.65 290.32 205.27 290.47 202.7 290.9 201.37 291.47 200.27 292.14 199.52 293.08 198.02 293.38 197.29 293.65 195.77 293.56 194.28 293.32 193.43 290.93 189.39 281.86 178.22 290.17 175.64 293.89 175.08 297.15 175.34 300.3 176.05 Z" id="TUN-115" data-name="Siliana"/>
<path d="M 610.84 361.13 633.55 367.27 646.91 369.43 654.25 369.71 656.22 369.55 657.59 369.24 658.1 368.67 659.75 365.56 661.93 362.77 663.53 361.19 666.62 358.77 670.87 356.2 675.3 354.14 691.46 349.24 691.5 349.23 691.5 349.23 691.69 350.74 693.46 354.92 696.44 357.91 705.4 360.19 700.05 364.11 698.68 369.38 697.67 374.27 698.43 382.77 696.04 386.76 697.03 393.87 701.65 399.96 708.58 407.08 712.63 409.65 717.52 411.54 720.19 412.66 719.88 416.47 714.44 416.63 710.58 419.04 706.82 425.23 701.07 429.19 698.32 433.57 695.62 438.29 691.88 441.07 691.6 441.06 682.39 439.63 679.6 438.26 674.18 430.6 672.09 428.25 669.87 426.18 668.5 425.64 667.44 425.7 666.71 426.33 664.23 429.14 663.11 429.69 661.56 430.02 658.81 429.86 657.31 429.27 656.22 428.48 655.19 426.84 652.53 420.93 651.8 418.74 650.35 411.81 649.62 410.62 648.41 408.91 646.07 406.54 644.82 406.05 643.95 406.21 640.89 411.6 639.64 413.15 638.89 413.88 638.01 414.59 637.1 415.22 635.15 416.16 632.67 416.02 615.27 411.84 614.44 411.96 613.66 412.22 613.14 412.74 612.72 413.36 612.26 414.67 611.87 415.37 611.32 416.02 610.44 416.62 606.81 418.37 606.23 418.97 605.84 419.63 605.69 420.37 605.66 421.1 605.81 422.41 605.72 422.84 605.51 423.31 605.11 423.94 604.45 424.66 601.14 427.27 597.29 429.54 575.61 437.99 572.89 438.57 571.37 438.62 570.24 438.5 568.63 437.81 563.15 434.61 562.18 434.18 560.58 433.77 538.08 430.59 538.42 423.1 538.17 420.55 537.86 419.8 537.1 418.34 532.44 412.78 531.56 411.39 531.04 410.08 530.92 409.46 530.89 409.06 530.89 407.22 531.5 401.81 531.44 399.86 530.95 396.68 530.53 395.24 529.92 393.94 528.35 391.24 527.65 389.76 527.44 389.04 527.77 387.51 528.59 385.27 534.62 373.03 536.83 370.08 540.9 365.94 541.78 364.55 541.9 363.09 541.75 361.61 538.84 355.14 538.72 354.38 538.96 353.47 539.51 352.5 540.78 351.03 544.53 348.95 553.12 346.63 551.69 351.26 551.45 352.86 551.51 353.89 551.78 354.89 552.27 355.81 552.96 356.57 553.75 357.23 558.36 360.1 560.67 362.39 561.73 362.83 563.12 363.08 569.3 361.9 571.1 361.98 577.97 363.61 579.09 364.03 580.03 364.59 580.76 365.34 581.31 366.19 581.7 367.2 582.01 370.83 582.32 371.89 582.98 372.68 583.89 373.28 595.23 377.4 596.41 377.61 597.59 377.49 598.68 377.13 599.65 376.23 600.56 375.05 601.56 372.83 602.17 371.78 602.98 370.8 607.78 368.71 608.63 367.62 609.05 366.94 610.84 361.13 Z" id="TUN-116" data-name="Mahdia"/>
<path d="M 691.5 349.23 691.46 349.24 675.3 354.14 670.87 356.2 666.62 358.77 663.53 361.19 661.93 362.77 659.75 365.56 658.1 368.67 657.59 369.24 656.22 369.55 654.25 369.71 646.91 369.43 633.55 367.27 610.84 361.13 609.08 359.74 604.45 358.28 603.26 358.15 602.23 358.42 601.44 358.88 600.92 359.54 600.65 359.99 599.98 361.82 599.53 362.55 598.47 364.02 597.2 364.65 595.68 364.9 591.65 364.51 590.89 364.35 589.95 364.03 589.1 363.54 588.31 362.92 587.74 362.24 587.22 361.4 587.13 361.15 587.13 359.9 587.4 357.75 587.89 356.76 588.74 356.17 594.96 353.92 596.68 352.92 597.41 352.16 597.89 351.25 597.83 349.89 597.32 348.97 595.47 346.83 595.5 346.01 596.05 345.2 597.71 344.13 598.86 343.65 599.92 343.35 604.3 342.56 611.26 340.56 614.41 338.97 616 337.89 616.97 336.47 617.79 334.41 619 328 619.06 326.58 618.36 320.51 618.3 316.87 618.39 316 620.27 313.12 628 305.44 628.48 304.94 628.93 305.29 632.72 306.96 638.69 308.83 650.43 305.46 652.4 305.84 654.21 306.72 657.8 309.44 655.63 312.04 654.49 315.92 655.49 319.88 657.74 322.68 665.63 325.76 683.27 331.4 691.12 330.67 696.79 334.61 699.53 339.15 692.12 341.54 691.12 346.08 691.5 349.23 Z" id="TUN-117" data-name="Monastir"/>
<path d="M 553.12 346.63 544.53 348.95 540.78 351.03 539.51 352.5 538.96 353.47 538.72 354.38 538.84 355.14 541.75 361.61 541.9 363.09 541.78 364.55 540.9 365.94 536.83 370.08 534.62 373.03 528.59 385.27 527.77 387.51 527.44 389.04 527.65 389.76 528.35 391.24 529.92 393.94 530.53 395.24 530.95 396.68 531.44 399.86 531.5 401.81 530.89 407.22 530.89 409.06 530.92 409.46 531.04 410.08 531.56 411.39 532.44 412.78 537.1 418.34 537.86 419.8 538.17 420.55 538.42 423.1 538.08 430.59 533.23 430.99 530.8 431.79 526.64 433.96 518.92 439.62 508.7 449.34 505.03 454.05 503.48 456.48 499.79 452.21 498.76 450.57 491.87 430.71 490.72 429.2 489.54 428.57 479.83 431.41 478.99 431.55 477.99 431.51 477.05 431.37 459.58 426.78 445.24 424.46 439.73 422.71 437.87 421.85 436.33 420.95 434.51 419.37 433.78 418.65 433.3 417.99 431.66 415.16 431.12 414.49 419.05 404.17 417.87 403.74 416.74 403.63 415.83 403.79 413.95 403.9 411.86 403.78 408.41 403.11 407.08 402.52 392.37 391.26 391.49 390.31 390.94 389.52 390.67 388.86 390.55 388.32 390.52 387.67 391.76 381.74 392.58 379.43 393.55 373.32 393.58 372.65 393.55 371.97 392.09 369.56 386.76 363.89 386.46 362.18 386.25 361.52 378.48 349.38 352.23 323.2 351.81 322.5 351.44 321.78 351.19 320.98 351.5 320.12 352.32 319.26 354.44 318.34 355.87 318.11 357.17 318.15 370.78 321.89 373.23 322.19 375.33 322.25 377.36 322.07 379.48 321.51 387.7 317.25 391.34 315.94 396.31 315.07 396.98 314.65 397.65 313.89 397.74 312.16 397.31 311.16 396.68 310.36 395.4 309.3 393.91 307.76 392.76 306.19 392.49 305.68 392.25 305.13 392.09 304.5 391.91 303.15 392.16 301.6 395 295.46 395.21 294.69 395.43 293.09 395.34 291.37 395.06 289.74 393.64 285.12 393.58 284.4 393.58 283.56 395.03 281.84 397.65 279.36 440.28 250.79 444.43 252.02 446.24 252.34 450.21 252.58 467.56 250.57 474.47 250.44 480.62 253.46 482.44 254.12 490.17 255.25 491.17 255.59 492.93 256.43 494.27 257.32 499.54 261.63 500.48 262.06 501.69 261.98 502.88 261.34 504.39 259.33 505.07 258.01 505.46 256.88 506.73 249.98 507.28 248.14 507.73 247.53 508.34 247.23 509.09 247.88 510.46 249.34 511.67 249.46 513.18 248.9 515.97 246.66 517.19 245.37 518.89 242.78 522.13 240.98 533.74 237.81 527.32 247.42 527.38 250.3 538.17 254.94 539.2 255.81 540.35 257.12 542.08 259.83 542.72 261.28 542.96 262.59 541.17 271.59 538.9 278.76 537.59 281.77 537.19 282.43 535.1 285.14 525.89 294.61 524.86 296.12 524.55 296.85 524.58 297.66 525.13 299.05 547.32 335.57 549.21 337.76 550.72 340.25 553.12 346.63 Z" id="TUN-118" data-name="Kairouan"/>
<path d="M 596.83 195.38 594.82 197.89 592.03 205.34 589.34 213.41 587.04 221.44 586.57 231.49 586.14 241.85 587.09 248.33 589.6 254.97 591.06 258.5 592.01 259.74 592.87 261.65 593.98 265.96 594.71 267.74 599.01 273.05 602.12 275.95 604.83 277.2 607.16 279.1 612.3 291.99 614.94 294.58 628.47 304.93 628.48 304.94 628 305.44 620.27 313.12 618.39 316 618.3 316.87 618.36 320.51 619.06 326.58 619 328 617.79 334.41 616.97 336.47 616 337.89 614.41 338.97 611.26 340.56 604.3 342.56 599.92 343.35 598.86 343.65 597.71 344.13 596.05 345.2 595.5 346.01 595.47 346.83 597.32 348.97 597.83 349.89 597.89 351.25 597.41 352.16 596.68 352.92 594.96 353.92 588.74 356.17 587.89 356.76 587.4 357.75 587.13 359.9 587.13 361.15 587.22 361.4 587.74 362.24 588.31 362.92 589.1 363.54 589.95 364.03 590.89 364.35 591.65 364.51 595.68 364.9 597.2 364.65 598.47 364.02 599.53 362.55 599.98 361.82 600.65 359.99 600.92 359.54 601.44 358.88 602.23 358.42 603.26 358.15 604.45 358.28 609.08 359.74 610.84 361.13 609.05 366.94 608.63 367.62 607.78 368.71 602.98 370.8 602.17 371.78 601.56 372.83 600.56 375.05 599.65 376.23 598.68 377.13 597.59 377.49 596.41 377.61 595.23 377.4 583.89 373.28 582.98 372.68 582.32 371.89 582.01 370.83 581.7 367.2 581.31 366.19 580.76 365.34 580.03 364.59 579.09 364.03 577.97 363.61 571.1 361.98 569.3 361.9 563.12 363.08 561.73 362.83 560.67 362.39 558.36 360.1 553.75 357.23 552.96 356.57 552.27 355.81 551.78 354.89 551.51 353.89 551.45 352.86 551.69 351.26 553.12 346.63 550.72 340.25 549.21 337.76 547.32 335.57 525.13 299.05 524.58 297.66 524.55 296.85 524.86 296.12 525.89 294.61 535.1 285.14 537.19 282.43 537.59 281.77 538.9 278.76 541.17 271.59 542.96 262.59 542.72 261.28 542.08 259.83 540.35 257.12 539.2 255.81 538.17 254.94 527.38 250.3 527.32 247.42 533.74 237.81 538.93 236.03 540.78 235.17 542.47 234.14 543.17 233.5 544.02 232.31 544.81 230.68 545.81 227.45 546.08 225.8 546.08 224.51 545.14 222.09 545.2 221.32 545.68 220.57 547.02 219.87 548.08 219.53 562.12 217.17 562.88 216.48 563.21 215.35 562.61 213.28 561.7 212.06 560.76 211.13 560.27 210.41 560.4 209.65 561.52 208.65 564.18 206.98 564.94 203.71 564.82 192.5 571.22 191.59 576.88 190.79 580.82 191.49 582.07 192.27 584.1 193.13 585.37 193.1 586.71 192.61 588.13 191.87 590.74 190.9 592.19 190.64 593.35 190.68 593.99 191.05 594.38 191.39 594.74 191.81 595.81 193.64 596.83 195.38 Z" id="TUN-119" data-name="Sousse"/>
<path d="M 487.81 139.69 491.75 145.54 492.96 146.74 495.03 148.36 496.24 148.86 497.33 149.05 499 148.78 501.03 148.04 503.33 148.37 506.73 149.32 514.58 152.27 519.95 155.48 520.43 156.29 538.2 169.43 539.87 171.31 539.72 172.11 539.48 172.8 539.66 173.8 540.14 174.96 541.69 176.84 542.75 177.21 543.84 177.14 544.66 176.6 551.9 173.19 553.75 172.6 555.54 172.27 560.06 171.87 559.69 185.69 560.21 189.66 560.7 190.43 561.33 191.15 562.09 191.74 562.97 192.15 563.61 192.36 564.82 192.5 564.94 203.71 564.18 206.98 561.52 208.65 560.4 209.65 560.27 210.41 560.76 211.13 561.7 212.06 562.61 213.28 563.21 215.35 562.88 216.48 562.12 217.17 548.08 219.53 547.02 219.87 545.68 220.57 545.2 221.32 545.14 222.09 546.08 224.51 546.08 225.8 545.81 227.45 544.81 230.68 544.02 232.31 543.17 233.5 542.47 234.14 540.78 235.17 538.93 236.03 533.74 237.81 522.13 240.98 518.89 242.78 517.19 245.37 515.97 246.66 513.18 248.9 511.67 249.46 510.46 249.34 509.09 247.88 508.34 247.23 507.73 247.53 507.28 248.14 506.73 249.98 505.46 256.88 505.07 258.01 504.39 259.33 502.88 261.34 501.69 261.98 500.48 262.06 499.54 261.63 494.27 257.32 492.93 256.43 491.17 255.59 490.17 255.25 482.44 254.12 480.62 253.46 474.47 250.44 467.56 250.57 450.21 252.58 446.24 252.34 444.43 252.02 440.28 250.79 443.85 246.79 444.88 245.24 445.52 243.73 446.03 242.1 445.97 240.62 445.73 238.58 444.67 234.32 443.91 232.36 443.06 231.07 442.27 230.51 440.4 229.54 430.78 226.63 421.96 224.77 419.87 223.78 417.87 222.52 410.71 216.98 410.05 216.2 409.8 215.33 410.11 214.42 411.62 213.25 412.65 212.71 417.45 211.16 430.24 204.71 434.06 201.83 437.99 198.06 440.64 195.07 442.18 192.79 444.24 187.76 444.43 186.59 444.46 185.28 443.58 181.57 440.79 177.3 443.18 172.57 448.94 165.88 449.36 164.79 450.15 163.29 453.73 160.16 465.29 152.39 471.22 150.87 473.14 149.41 476.35 143.26 479.56 138.61 480.71 137.56 481.74 136.92 483.42 136.57 484.21 136.55 485.02 136.69 485.78 137.03 486.51 137.7 486.99 138.26 487.81 139.69 Z" id="TUN-120" data-name="Zaghouan"/>
<path d="M 637.98 718.76 637.38 732.19 631.64 736.32 628.49 737.41 626.07 740.06 625.1 743.38 626.25 746.45 630.87 753.06 633.51 755.5 637.61 756.58 645.9 755.07 660.69 747.53 667.73 745.78 671.08 744.54 674.15 741.52 675.65 737.82 674.38 734.46 671.04 731.21 670.51 729.53 676.32 725.65 678.6 726.99 681.09 727.34 683.2 726.51 684.46 724.32 685.78 724.32 688.91 726.07 697.14 729.26 700.56 731.12 703.15 733.83 709.91 742.59 710.58 744.46 711.56 754.24 706.35 761.24 710.42 773.2 708.72 778.84 714.4 777.39 718.26 780.82 722.12 785.15 726.66 787.26 731.33 788.17 741.35 792.48 746.16 793.94 744.92 794.87 744.35 795.11 743.49 795.27 724.32 790.03 714.89 789.13 712.58 795.27 714.48 797.6 717.64 799.78 720.69 802.57 722.03 806.79 723.86 808.73 728.15 808.72 736.72 807.4 745.02 808.92 761.51 814.07 770.21 814.07 773.4 812.16 772.32 809.53 769.01 807.2 765.52 806.19 763.29 804.9 760.57 802.06 757.53 799.4 775.21 809.99 786.04 814.28 787.36 814.54 787.47 814.57 787.65 823.33 782.06 841.92 781.57 844.93 781.47 855.86 777.98 869.1 779.39 889.35 776.55 909.95 776.69 920.71 780.68 928.27 793.77 939.16 798.31 946.19 799 954.41 795.53 960.51 791.57 963.72 789.19 965.64 775.54 973.36 724.41 994.12 724.49 993.99 737.12 973.9 740.39 970.67 743.81 968.05 747.37 965.84 751.21 963.89 760.49 960.95 763.52 959.67 770.56 955.31 772.25 953.84 773.56 952.38 774.04 951.55 774.28 950.77 773.92 949.96 773.04 949.48 771.38 949.4 765.82 950.28 764.37 950.19 762.98 949.67 761.16 948.8 709.74 912.86 709.1 912.12 708.83 911.34 708.83 910.58 708.95 909.82 710.83 903.72 711.04 901.31 710.28 884.51 710.49 882.84 710.83 881.43 713.35 875.74 714.41 872.56 715.05 869.23 715.05 867.88 714.93 867.22 714.47 865.89 714.05 865.18 713.53 864.5 712.49 863.73 711.19 862.99 708.83 861.93 706.31 860.49 698.03 854.11 696.55 852.65 695.37 851.08 694.79 850.04 692.22 840.87 692.01 840.43 691.6 839.86 691.06 839.26 690.18 838.59 689.09 837.94 635.03 816.58 630.76 815.72 621.75 814.82 618.3 813.92 616.45 813.05 614.56 811.79 613.78 811.08 613.2 810.4 612.84 809.72 612.78 808.99 613.05 808.34 613.63 807.77 617.54 806.62 618.09 806.01 618.33 805.33 618.36 804.61 618.6 803.9 620.12 801.89 620.51 801.21 620.63 800.54 620.51 799.89 620 799.23 618.09 799.03 602.95 800.57 596.11 799.79 594.41 799.89 592.78 800.33 558.51 813.09 555.93 814.52 542.57 819.33 540.78 820.33 539.48 821.82 538.54 822.4 537.22 822.75 534.83 822.76 524.83 821.11 521.25 820.92 520.04 821.22 518.65 821.8 516.22 823.22 514.91 824.14 513.88 825.03 509.82 829.93 509.16 830.53 508.34 831.03 501.69 833.39 496.85 834.49 492.6 835.03 475.72 835.36 478.47 829.95 478.99 828.56 479.26 827.11 479.23 812.34 479.11 811.62 478.9 810.95 477.93 810.14 476.26 809.22 472.41 808.11 470.4 807.76 468.89 807.67 467.19 807.8 465.32 807.71 461.89 807.01 457.76 805.75 454.07 803.14 442.73 793.09 446.27 793.16 451.4 793.76 453.19 793.81 455.01 793.63 463.26 791.45 466.83 790.9 477.56 791.68 480.92 791.62 482.56 791.24 488.39 789.1 502.84 786.43 505 785.76 527.47 770.11 533.74 767.81 546.71 764.62 547.87 763.97 549.18 762.78 553.36 755.72 564.21 741.32 564.97 739.72 566.39 737.93 578.58 725.39 582.74 722.8 583.32 722.45 588.99 723.54 602.49 721.86 617.28 718.36 629.7 712.7 633.42 711.85 637.98 718.76 Z M 675.09 674.85 680.91 680.75 687.11 685.52 690.93 687.49 694.85 689 698.26 690.79 700.56 693.53 687.6 703.49 684.34 704.78 683.12 705.64 682.23 707.27 680.32 713.65 679.1 713.65 679.72 708.48 680.32 706.86 677.27 707.7 674.81 713.87 671.3 718.31 668.01 721.37 666.85 724.9 663.59 722.13 663.52 718.71 664.73 715.51 661.23 711.05 657.93 709.7 654.82 707.38 651.45 706.5 647.82 709.58 646.17 712.49 642.56 713.18 638.01 710.18 636.77 707.22 635.6 701.84 635.7 696.68 639.46 691.18 637.1 683.17 637.2 677.11 644.42 674.85 660.3 677.72 668.81 678.17 675.09 674.85 Z" fill-rule="evenodd" id="TUN-96" data-name="Médenine"/>
<path d="M 442.73 793.09 454.07 803.14 457.76 805.75 461.89 807.01 465.32 807.71 467.19 807.8 468.89 807.67 470.4 807.76 472.41 808.11 476.26 809.22 477.93 810.14 478.9 810.95 479.11 811.62 479.23 812.34 479.26 827.11 478.99 828.56 478.47 829.95 475.72 835.36 474.75 838.18 474.78 839 474.96 840.15 475.68 841.26 476.53 842.16 477.56 842.95 485.48 848.05 490.2 852.3 491.02 853.77 490.96 854.81 490.17 855.24 488.42 855.82 485.96 856.37 485.18 856.69 484.39 857.17 483.81 857.76 483.39 858.44 483.11 859.13 482.95 859.92 483.14 863.45 483.99 869.74 484.48 871.18 485.93 873.18 486.96 874.87 487.24 875.93 487.14 876.85 486.78 877.61 484.51 880.7 479.65 885.65 479.11 886.4 478.68 887.17 478.11 891.23 477.77 899.18 477.93 900.85 478.23 901.58 486.05 913.29 486.54 914.21 487.11 915.56 486.6 916.31 485.84 916.69 484.93 916.76 484.05 916.72 483.05 916.53 480.89 915.81 476.05 913.42 454.95 899.1 448.76 892.55 447.94 891.88 446.21 890.74 444.61 889.92 441.03 888.82 438.02 888.26 435.63 888.12 429.33 888.55 424.17 889.53 419.42 890.91 415.38 893.03 407.41 898.75 405.34 899.77 400.43 901.67 171.23 941.57 167.63 942.52 167.62 942.52 167.35 942.27 165.07 935.83 163.19 915.65 160.55 888.19 157.9 881.95 138.07 855.87 119.6 831.55 115.23 829.31 111.15 830.08 107.06 829.84 103.06 828.8 99.26 827.15 77.61 814 70.49 811.97 61.12 811.23 53.93 809.4 48.9 804.76 45.91 795.63 45.64 769.73 48.9 768.01 86.64 752.41 206.97 671.38 217.64 660.33 233.39 636.82 266.98 634.27 273.88 631.74 275.62 631.46 277.01 631.46 284.55 633.11 296.77 634.17 298.05 634.12 298.66 633.92 299.36 633.58 300.05 633 300.63 632.29 301.02 631.44 301.17 630.72 301.26 626.42 301.48 625.02 301.72 624.29 302.08 623.56 302.6 622.8 303.26 622.08 304.08 621.41 308.42 619.6 316.12 617.17 317.84 616.87 321.31 617.82 324.34 618.03 350.34 614.58 351.56 617.91 353.47 620.4 356.84 623.4 357.87 624.16 366.84 628.68 367.66 629.58 367.9 630.37 367.54 631.06 366.99 631.72 363.54 634.58 356.17 639.05 352.6 641.68 351.84 642.36 351.22 643.01 350.31 644.32 349.83 645.66 348.68 653.6 348.89 661.95 350.47 670.67 352.87 677.95 356.02 684.97 361.2 694.26 371.48 709.2 372.11 709.9 372.87 710.49 373.67 710.94 382.36 713.96 384.33 714.89 386.04 716.01 386.79 716.72 388.01 718.25 390.67 722.46 391.31 723.14 392.06 723.81 392.91 724.36 393.82 724.75 394.73 724.92 395.68 724.98 398.31 724.53 399.19 724.48 400.01 724.66 401.01 725.12 410.32 733.32 411.98 735.39 412.71 736.6 412.98 737.62 412.86 738.39 412.44 739.91 411.14 742.74 410.71 743.49 406.07 749.58 405.64 750.52 405.34 751.68 405.28 753.45 405.67 754.61 406.34 755.65 421.72 767.59 424.41 770.67 432.18 782.98 434.84 785.97 442.73 793.09 Z" id="TUN-97" data-name="Kebili"/>
<path d="M 724.41 994.12 664.01 1018.65 658.68 1023.52 650.8 1039.04 644.4 1044.48 637.31 1048.21 630.77 1052.75 626.95 1053.76 623.38 1052.54 619.87 1050.84 616.19 1050.41 611.79 1054.42 610.15 1070.07 607.61 1076.56 599.37 1083.14 596.08 1089.89 593.73 1092.83 590.87 1095.31 587.68 1097.51 576.97 1101.12 555.02 1100.88 544.97 1107.78 531.78 1127.69 519.3 1139.62 516.23 1144.14 514.15 1156.88 514.52 1160.28 529.1 1193.7 535.05 1214.29 541.23 1225.47 541.49 1229.11 540.4 1236.61 541.27 1243.53 546.18 1257.22 546.1 1263.77 543.01 1271.65 530.95 1293.25 513.16 1310.75 492.55 1339.5 468.25 1366.73 463.27 1369.25 449.03 1370.06 443.27 1371.39 399.56 1391.4 394.02 1369.89 388.49 1348.39 382.96 1326.89 377.4 1305.4 371.85 1283.89 366.32 1262.39 360.78 1240.89 355.25 1219.38 349.68 1197.89 344.17 1176.38 338.61 1154.88 333.08 1133.38 327.55 1111.87 321.99 1090.39 316.48 1068.88 310.91 1047.38 310.38 1045.32 306.81 1031.32 304.61 1027.63 301.9 1024.87 269.01 1004.67 228.13 979.58 196.94 960.41 172.97 947.47 167.62 942.52 167.63 942.52 171.23 941.57 400.43 901.67 405.34 899.77 407.41 898.75 415.38 893.03 419.42 890.91 424.17 889.53 429.33 888.55 435.63 888.12 438.02 888.26 441.03 888.82 444.61 889.92 446.21 890.74 447.94 891.88 448.76 892.55 454.95 899.1 476.05 913.42 480.89 915.81 483.05 916.53 484.05 916.72 484.93 916.76 485.84 916.69 486.6 916.31 487.11 915.56 486.54 914.21 486.05 913.29 478.23 901.58 477.93 900.85 477.77 899.18 478.11 891.23 478.68 887.17 479.11 886.4 479.65 885.65 484.51 880.7 486.78 877.61 487.14 876.85 487.24 875.93 486.96 874.87 485.93 873.18 484.48 871.18 483.99 869.74 483.14 863.45 482.95 859.92 483.11 859.13 483.39 858.44 483.81 857.76 484.39 857.17 485.18 856.69 485.96 856.37 488.42 855.82 490.17 855.24 490.96 854.81 491.02 853.77 490.2 852.3 485.48 848.05 477.56 842.95 476.53 842.16 475.68 841.26 474.96 840.15 474.78 839 474.75 838.18 475.72 835.36 492.6 835.03 496.85 834.49 501.69 833.39 508.34 831.03 509.16 830.53 509.82 829.93 513.88 825.03 514.91 824.14 516.22 823.22 518.65 821.8 520.04 821.22 521.25 820.92 524.83 821.11 534.83 822.76 537.22 822.75 538.54 822.4 539.48 821.82 540.78 820.33 542.57 819.33 555.93 814.52 558.51 813.09 592.78 800.33 594.41 799.89 596.11 799.79 602.95 800.57 618.09 799.03 620 799.23 620.51 799.89 620.63 800.54 620.51 801.21 620.12 801.89 618.6 803.9 618.36 804.61 618.33 805.33 618.09 806.01 617.54 806.62 613.63 807.77 613.05 808.34 612.78 808.99 612.84 809.72 613.2 810.4 613.78 811.08 614.56 811.79 616.45 813.05 618.3 813.92 621.75 814.82 630.76 815.72 635.03 816.58 689.09 837.94 690.18 838.59 691.06 839.26 691.6 839.86 692.01 840.43 692.22 840.87 694.79 850.04 695.37 851.08 696.55 852.65 698.03 854.11 706.31 860.49 708.83 861.93 711.19 862.99 712.49 863.73 713.53 864.5 714.05 865.18 714.47 865.89 714.93 867.22 715.05 867.88 715.05 869.23 714.41 872.56 713.35 875.74 710.83 881.43 710.49 882.84 710.28 884.51 711.04 901.31 710.83 903.72 708.95 909.82 708.83 910.58 708.83 911.34 709.1 912.12 709.74 912.86 761.16 948.8 762.98 949.67 764.37 950.19 765.82 950.28 771.38 949.4 773.04 949.48 773.92 949.96 774.28 950.77 774.04 951.55 773.56 952.38 772.25 953.84 770.56 955.31 763.52 959.67 760.49 960.95 751.21 963.89 747.37 965.84 743.81 968.05 740.39 970.67 737.12 973.9 724.49 993.99 724.41 994.12 Z" id="TUN-98" data-name="Tataouine"/>
</g>
</svg>