<?xml version="1.0"?>
<svg xmlns="http://www.w3.org/2000/svg" version="1.2" baseProfile="tiny" width="800" height="302" viewBox="0 0 800 302" stroke-linecap="round" stroke-linejoin="round">
<g id="ne_10m_admin_1_states_provinces">
<path d="M 425.71 124.71 436.08 149.73 437.52 156.22 436.16 158.82 435.11 162.23 434.26 167.51 434.38 169.3 434.69 170.61 436.16 172.83 436.75 173.5 438.82 176.44 440.85 180.03 441.72 182.45 442.2 184.28 442.31 197.02 442.6 199.81 443.02 201.94 443.46 202.95 443.93 203.79 451 212.75 451.63 214.38 451.96 215.91 451.83 217.1 453.54 234.56 450.97 236 444.98 247.41 443.55 250.74 446.31 260.85 443.66 261.86 439.02 264.54 436.35 265.61 437.3 267.53 437.94 271.23 438.83 273.54 434.93 271.85 431.01 271.67 427.2 272.96 423.67 275.79 430.08 279.56 436.86 280.98 443.95 280.42 451.3 278.28 455 292 453.89 298.3 444.96 300.94 437.36 300.58 430.56 299.11 423.82 296.01 392.13 268.96 385.57 261.07 358.67 246.13 358.67 246.13 359.71 245.2 360.44 244.74 361.51 244.42 364.75 244.8 365.88 244.75 366.85 244.55 367.6 244.04 368.2 243.36 368.61 242.42 369.34 237.96 371.51 231.16 371.66 230.01 371.31 228.79 370.49 227.51 366.33 224.07 364.63 221.93 364.01 220.35 363.37 218.15 362.56 213.19 362.38 210.73 362.49 208.96 363.51 206.09 364.02 204.02 324.29 126.49 323.42 121.06 332 123.76 341.28 125.28 342.87 125.21 344.59 124.91 347.19 123.89 348.56 123.15 351.11 121.24 351.99 120.84 364.37 118.16 365.87 118.19 367.75 118.48 374.78 121.16 392.68 124.29 425.71 124.71 Z" id="JAM-1370" data-name="Clarendon"/>
<path d="M 137.67 29.61 137.62 33.09 137.42 34.19 135.01 42.37 135.67 43.67 136.91 45.12 142.85 49.79 143.47 50.78 144.36 52.57 144.93 55.2 145.95 57.48 150.08 64.71 151.89 68.65 152.64 69.42 153.96 70.32 159.05 72.87 160.86 74.51 161.77 75.67 166.41 84.56 135.82 82.83 127.82 81.45 107.74 70.36 104.55 69.5 101.17 69.06 55.86 69.26 53.78 69.78 40.09 85.15 38.29 86.51 36.41 86.87 34.44 86.85 14.75 84.14 11.45 83.89 11.44 83.89 12.05 81.19 11.53 70.18 12.23 67.06 15 62.74 15.31 60 16.59 58.56 22.26 58.11 25.83 55.9 28.72 51.62 32.48 48.71 38.6 50.64 42.37 40.31 53.57 30.51 66.57 26.41 75.96 33.21 81.38 27.12 87.17 27 93.94 29.38 102.24 30.94 125.85 28.17 133.72 28.22 137.67 29.61 Z" id="JAM-1371" data-name="Hanover"/>
<path d="M 323.42 121.06 324.29 126.49 364.02 204.02 363.51 206.09 362.49 208.96 362.38 210.73 362.56 213.19 363.37 218.15 364.01 220.35 364.63 221.93 366.33 224.07 370.49 227.51 371.31 228.79 371.66 230.01 371.51 231.16 369.34 237.96 368.61 242.42 368.2 243.36 367.6 244.04 366.85 244.55 365.88 244.75 364.75 244.8 361.51 244.42 360.44 244.74 359.71 245.2 358.67 246.13 358.67 246.13 358.29 245.92 350.23 243.09 341.72 242.02 334.99 244.66 327.27 249.65 319.53 250.3 303.6 245.91 296.64 244.77 296.64 244.76 295.74 243.12 270.84 144.75 269 112.03 273.69 110.91 275.93 110.11 279.97 107.77 282.64 106.58 284.68 106.05 286.78 106.11 300.74 108.11 301.9 108.07 307.12 110.26 323.42 121.06 Z" id="JAM-1372" data-name="Manchester"/>
<path d="M 269 112.03 270.84 144.75 295.74 243.12 296.64 244.76 296.64 244.77 287.95 243.36 238.5 246.06 236 245.61 228.4 240.68 215.56 234.61 212.33 232.2 210.75 229.44 206.96 220.09 206.2 217.13 204.82 214.81 198.29 212.59 196.24 211.01 195.7 203.35 196.36 194.14 194.09 186.41 184.8 183.16 159.5 182.95 153.68 180.88 150.64 174.17 150.64 174.17 153.19 169.45 160.37 149.71 161.2 144.3 160.86 143.43 160.35 141.5 160.27 140.49 160.39 139.39 161 137.13 163.32 132.5 167.33 126.41 168.96 124.85 170.21 123.87 175.72 121.26 217.5 107.07 269 112.03 Z" id="JAM-1373" data-name="Saint Elizabeth"/>
<path d="M 234.24 7.71 234.11 8.35 217.5 107.07 175.72 121.26 179.19 111.61 179.36 108.14 176.44 99.33 175.36 97.51 174.82 96.81 174.16 96.13 173.4 95.59 172.5 95.15 170.41 92.75 166.41 84.56 161.77 75.67 160.86 74.51 159.05 72.87 153.96 70.32 152.64 69.42 151.89 68.65 150.08 64.71 145.95 57.48 144.93 55.2 144.36 52.57 143.47 50.78 142.85 49.79 136.91 45.12 135.67 43.67 135.01 42.37 137.42 34.19 137.62 33.09 137.67 29.61 137.67 29.61 140.49 30.59 144.53 31.56 148.69 30.94 152.39 28.44 152.74 26.05 152.64 23.26 154.9 19.49 163.17 9.42 166.93 6.08 173.37 3.3 188.13 1 204.85 1.61 234.24 7.71 234.24 7.71 Z" id="JAM-1374" data-name="Saint James"/>
<path d="M 332.86 18.9 332.73 19.65 331.94 26.9 332.23 29.89 336.42 40.22 336.71 42.85 336.42 44.98 335.44 47.27 335.45 48.58 335.96 49.61 337.9 51.91 338.02 53.58 337.91 55.37 323.42 121.06 307.12 110.26 301.9 108.07 300.74 108.11 286.78 106.11 284.68 106.05 282.64 106.58 279.97 107.77 275.93 110.11 273.69 110.91 269 112.03 217.5 107.07 234.11 8.35 234.24 7.71 260.15 13.1 295.65 13.74 311.33 17.38 332.86 18.9 Z" id="JAM-1375" data-name="Trelawny"/>
<path d="M 166.41 84.56 170.41 92.75 172.5 95.15 173.4 95.59 174.16 96.13 174.82 96.81 175.36 97.51 176.44 99.33 179.36 108.14 179.19 111.61 175.72 121.26 170.21 123.87 168.96 124.85 167.33 126.41 163.32 132.5 161 137.13 160.39 139.39 160.27 140.49 160.35 141.5 160.86 143.43 161.2 144.3 160.37 149.71 153.19 169.45 150.64 174.17 150.64 174.17 145.04 161.8 142.16 157.82 139.02 155.76 135.39 153.99 132.48 153.26 130.22 151.35 128.47 146.94 126.24 138.3 119.38 125.07 110.29 120.21 83.43 120.85 67.02 118.21 61.02 118.15 57.59 121.15 54.78 122.62 52.32 122.13 43.34 118.68 42.43 118.15 37.32 117.36 26.1 113.93 19.8 113.17 13.38 111.66 7.18 107.69 2.6 102.08 1 95.71 3.02 92.68 8.42 89.04 10.98 85.98 11.44 83.89 11.45 83.89 14.75 84.14 34.44 86.85 36.41 86.87 38.29 86.51 40.09 85.15 53.78 69.78 55.86 69.26 101.17 69.06 104.55 69.5 107.74 70.36 127.82 81.45 135.82 82.83 166.41 84.56 Z" id="JAM-1376" data-name="Westmoreland"/>
<path d="M 602.31 209.49 601.45 208.7 599.6 207 594.82 205.96 583.8 205.82 576.32 205.97 571.11 203.02 572.31 199.61 572.94 198.27 575.77 196.51 579.4 195.08 582.5 194.31 591.91 193.86 597.34 195.06 600.95 196.88 603.99 203.66 604.32 208.4 602.31 209.49 Z" id="JAM-1377" data-name="Kingston"/>
<path d="M 773.89 193.96 773.67 194.03 763.5 197.04 759.66 197.47 746.36 195.74 741.41 194.56 739.99 193.4 738.97 192.38 736.59 189.08 735.97 188.39 735.3 187.87 733.34 187.09 722.55 184.03 710.61 182.26 702.59 177.82 700.78 177.37 699.29 177.31 697.45 178.05 695 179.33 693.69 179.67 691.86 179.91 686.72 179.94 685.23 180.11 684.38 180.52 683.64 181.09 682.01 182.6 680.6 183.47 677.63 184.52 675.94 184.68 674.55 184.54 671.99 183.12 654.7 177.91 651.96 176.67 649.54 175.09 648.78 174.47 648.11 173.82 645.34 170.23 638.49 165.76 622.01 159.25 617.28 158.56 616.58 159.13 616.03 159.92 615.22 161.73 614.49 162.8 612.72 163.5 609.06 164.13 604.33 163.2 601.96 162.51 600.61 161.72 599.49 160.31 599.04 159.52 595.78 150.37 595.65 149.44 593.37 142.04 610.53 96.45 611.61 95.27 611.62 95.27 613.71 95.71 619.07 98.43 626.02 105.11 631.37 108.4 637.56 110.25 649.68 109.51 656.02 113.79 658.05 114.29 659.88 115.95 662.12 117.46 665.13 118.15 692.53 118.15 694.45 119.24 697.31 124.47 698.63 126.08 725.5 130.89 739.45 135.7 741.24 143.29 751.6 152.74 759.65 163.73 771.35 188.12 773.89 193.96 Z" id="JAM-1378" data-name="Portland"/>
<path d="M 476.99 41.78 477.29 43.42 480.44 56.77 480.67 58.67 481.38 61.29 482.14 62.58 484.05 64.33 485.04 65.66 485.71 67.03 484.93 75.22 485.06 76.32 485.82 77.67 490.35 82.78 491.9 85.1 493.02 88.45 493.53 91.56 494.11 93.56 494.56 94.52 496.98 97.62 503.98 104.32 482.07 116.07 474.65 118.8 425.71 124.71 392.68 124.29 374.78 121.16 367.75 118.48 365.87 118.19 364.37 118.16 351.99 120.84 351.11 121.24 348.56 123.15 347.19 123.89 344.59 124.91 342.87 125.21 341.28 125.28 332 123.76 323.42 121.06 337.91 55.37 338.02 53.58 337.9 51.91 335.96 49.61 335.45 48.58 335.44 47.27 336.42 44.98 336.71 42.85 336.42 40.22 332.23 29.89 331.94 26.9 332.73 19.65 332.86 18.9 336.62 19.16 346.16 21.39 353.67 25.72 365.25 22.87 383.95 22.92 403.18 24.98 416.42 28.22 418.06 29.85 419.41 34.37 421.18 35.93 423.31 35.94 425.29 35.05 426.45 33.89 426.16 33.21 442.47 35.93 444.49 37.08 450.64 42.24 452.54 43.39 464.45 43.78 476.99 41.78 Z" id="JAM-1379" data-name="Saint Ann"/>
<path d="M 549.08 138.51 548.22 148.07 548.4 149.48 548.97 151.78 551.39 156.56 551.74 158.36 551.68 159.75 550.44 162.38 549.97 163.17 549.36 163.87 548.67 164.47 547.94 165 546.82 166.93 545.56 169.97 543.39 177.34 542.89 180.52 542.94 182.59 545.58 184.85 545.9 185.24 546.28 185.81 546.95 187.47 547.44 188.25 548.11 188.81 548.97 189.12 549.98 189.12 550.9 188.92 552.77 188.13 553.74 187.93 556.23 191.22 557.42 195.44 556.28 199.21 554.57 203.06 550.04 207.93 548.64 210.74 543.84 210.19 542.43 212.88 541 221.21 534.48 243.25 529.63 249.8 523.78 253.36 518.97 253.41 515.79 252.03 512.85 250.13 508.85 248.61 488.68 248.61 488.68 245.91 496.39 243.41 492.45 240.13 487.52 233.81 483.69 230.96 479.24 229.31 468.72 228.21 459.2 231.38 453.54 234.56 451.83 217.1 451.96 215.91 451.63 214.38 451 212.75 443.93 203.79 443.46 202.95 443.02 201.94 442.6 199.81 442.31 197.02 442.2 184.28 441.72 182.45 440.85 180.03 438.82 176.44 436.75 173.5 436.16 172.83 434.69 170.61 434.38 169.3 434.26 167.51 435.11 162.23 436.16 158.82 437.52 156.22 436.08 149.73 425.71 124.71 474.65 118.8 482.07 116.07 503.98 104.32 509.58 102.71 510.62 102.51 511.75 102.46 518.75 103.18 519.95 104.01 521.04 105.33 523.24 110.34 524.47 111.94 527.36 113.95 528.92 115.56 530.32 118.4 531.09 121.35 531.55 124.46 532.34 126.01 536.6 131.59 540.47 135.19 549.08 138.51 Z" id="JAM-1380" data-name="Saint Catherine"/>
<path d="M 611.62 95.27 611.61 95.27 610.53 96.45 593.37 142.04 573.1 132.85 567 131.71 564.91 132.13 560.25 132.16 558.02 132.53 556.61 133.13 556.12 134 555.74 134.95 554.86 135.92 554.03 136.56 549.08 138.51 540.47 135.19 536.6 131.59 532.34 126.01 531.55 124.46 531.09 121.35 530.32 118.4 528.92 115.56 527.36 113.95 524.47 111.94 523.24 110.34 521.04 105.33 519.95 104.01 518.75 103.18 511.75 102.46 510.62 102.51 509.58 102.71 503.98 104.32 496.98 97.62 494.56 94.52 494.11 93.56 493.53 91.56 493.02 88.45 491.9 85.1 490.35 82.78 485.82 77.67 485.06 76.32 484.93 75.22 485.71 67.03 485.04 65.66 484.05 64.33 482.14 62.58 481.38 61.29 480.67 58.67 480.44 56.77 477.29 43.42 476.99 41.78 476.99 41.78 483.69 40.69 488.06 41.73 495.67 45.15 500 45.89 521.59 45.01 525.8 42.89 531.74 42.2 536.56 42.56 541.01 43.27 543.6 46.45 542.47 50.32 542.46 55.25 546.54 58.78 559.52 66.56 571 72.92 572.87 76.46 576.26 86.04 578.43 89.2 581.92 91.24 588.56 92.99 607.44 94.39 611.62 95.27 Z" id="JAM-1381" data-name="Saint Mary"/>
<path d="M 593.37 142.04 595.65 149.44 595.78 150.37 599.04 159.52 599.49 160.31 600.61 161.72 601.96 162.51 604.33 163.2 609.06 164.13 612.72 163.5 614.49 162.8 615.22 161.73 616.03 159.92 616.58 159.13 617.28 158.56 622.01 159.25 638.49 165.76 635.14 168.71 634.51 171.02 634.04 173.98 633.89 179.47 634.38 181.72 635.23 183.78 636.24 185.41 638.25 192.25 638.89 193.46 641.53 197.02 642.71 199.09 642.71 200.34 642.13 201.05 641.12 201.23 637.49 200.93 636.02 201.23 634.61 201.87 633 204.19 632.63 206.3 632.84 209.71 632.66 211.3 632.27 212.46 629.97 214.98 627.78 218.28 627.78 218.28 617.69 215.97 614.96 214.52 609.35 212.35 601.77 212.78 588.56 215.77 582.91 216.42 563.88 215.77 563.88 213.27 603.97 211.01 602.31 209.49 604.32 208.4 603.99 203.66 600.95 196.88 597.34 195.06 591.91 193.86 582.5 194.31 579.4 195.08 575.77 196.51 572.94 198.27 572.31 199.61 571.11 203.02 568.7 201.65 562.21 197.6 557.42 195.44 556.23 191.22 553.74 187.93 552.77 188.13 550.9 188.92 549.98 189.12 548.97 189.12 548.11 188.81 547.44 188.25 546.95 187.47 546.28 185.81 545.9 185.24 545.58 184.85 542.94 182.59 542.89 180.52 543.39 177.34 545.56 169.97 546.82 166.93 547.94 165 548.67 164.47 549.36 163.87 549.97 163.17 550.44 162.38 551.68 159.75 551.74 158.36 551.39 156.56 548.97 151.78 548.4 149.48 548.22 148.07 549.08 138.51 554.03 136.56 554.86 135.92 555.74 134.95 556.12 134 556.61 133.13 558.02 132.53 560.25 132.16 564.91 132.13 567 131.71 573.1 132.85 593.37 142.04 Z" id="JAM-1382" data-name="Saint Andrew"/>
<path d="M 773.89 193.96 773.89 193.97 776.82 200.71 782.19 209.44 789.05 216.36 799 223.47 795.2 226.41 776.34 230.96 763.05 237.92 755.43 240.03 748.93 238.43 751.47 236.67 752.49 235.43 753.92 230.96 747.32 233.26 741.47 241.57 735.12 243.41 729.46 241.87 722.88 238.97 716.19 237.33 705.23 241.25 676.54 243.62 656.3 240.68 653.36 240.8 650.61 241.31 647.63 240.93 643.84 238.43 642.19 235.13 641.45 230.91 640.35 227.29 637.5 225.74 634.56 224.88 632.6 222.83 630.91 220.4 628.65 218.48 627.78 218.28 627.78 218.28 629.97 214.98 632.27 212.46 632.66 211.3 632.84 209.71 632.63 206.3 633 204.19 634.61 201.87 636.02 201.23 637.49 200.93 641.12 201.23 642.13 201.05 642.71 200.34 642.71 199.09 641.53 197.02 638.89 193.46 638.25 192.25 636.24 185.41 635.23 183.78 634.38 181.72 633.89 179.47 634.04 173.98 634.51 171.02 635.14 168.71 638.49 165.76 645.34 170.23 648.11 173.82 648.78 174.47 649.54 175.09 651.96 176.67 654.7 177.91 671.99 183.12 674.55 184.54 675.94 184.68 677.63 184.52 680.6 183.47 682.01 182.6 683.64 181.09 684.38 180.52 685.23 180.11 686.72 179.94 691.86 179.91 693.69 179.67 695 179.33 697.45 178.05 699.29 177.31 700.78 177.37 702.59 177.82 710.61 182.26 722.55 184.03 733.34 187.09 735.3 187.87 735.97 188.39 736.59 189.08 738.97 192.38 739.99 193.4 741.41 194.56 746.36 195.74 759.66 197.47 763.5 197.04 773.67 194.03 773.89 193.96 Z" id="JAM-1383" data-name="Saint Thomas"/>
</g>
</svg>