<?xml version="1.0"?>
<svg xmlns="http://www.w3.org/2000/svg" version="1.2" baseProfile="tiny" width="800" height="474" viewBox="0 0 800 474" stroke-linecap="round" stroke-linejoin="round">
<g id="ne_10m_admin_1_states_provinces">
<path d="M 24.22 472.47 23.41 473.18 22.56 472.83 22.47 471.98 23.14 471.17 24.12 470.58 24.94 470.37 24.77 471.31 24.22 472.47 Z M 104.58 468.79 103.91 469.82 103.91 468.64 104.36 468.34 104.58 468.79 Z M 25.75 443.89 24.73 444.3 22.02 446.33 20.57 447.13 14.72 446.98 8.32 448.94 3.14 449.18 1 443.89 2.83 446.12 6.28 447.12 9.96 446.91 12.42 445.5 13.79 445.57 15.93 444.9 17.96 444 18.99 443.3 19.48 443.89 20.03 443.3 20.82 443.69 21.69 443.89 21.69 443.3 20.9 442.79 20.43 442.06 20.17 441.14 20.03 440.1 23.81 441.68 25.43 442.8 26.16 443.55 25.75 443.89 Z M 18.39 440.1 17.09 441.34 14.62 441.63 12.13 441.28 10.79 440.59 9.79 441.14 7.99 440.88 7.06 441.18 6.91 440.92 6.95 440.74 6.89 440.64 6.46 440.59 6.44 440.23 6.59 440.16 6.82 440.19 9.54 439.21 12.58 439.4 15.7 439.96 18.39 440.1 Z M 797.81 267.19 795.8 270.29 796.73 266.14 797.57 264.52 799 263.75 798.65 265.48 797.81 267.19 Z M 518.31 254.59 518.74 255.44 518.43 255.36 518.34 255.17 518.34 254.91 518.31 254.59 Z M 727.31 165.22 727.17 165.5 727.15 165.18 727.38 164.31 727.31 165.22 Z M 565.99 131.12 566.04 131.62 565.7 131.24 565.5 130.84 565.19 129.97 565.79 130.74 565.99 131.12 Z" fill-rule="evenodd" id="SYC-5197" data-name="Outer Islands"/>
<path d="M 738.92 71.39 738.74 72.09 736.97 71.44 737.16 71.16 738.92 71.39 Z" id="SYC-5198" data-name="Anse aux Pins"/>
<path d="M 736.68 71.34 736.94 73.42 737.29 74.52 737.06 76.05 735.99 75.83 735.48 75.13 735.1 74.65 735.22 73.98 734.92 73.46 735.13 72.73 736 72.03 736.28 71.2 736.68 71.34 Z" id="SYC-5199" data-name="Anse Boileau"/>
<path d="M 733.49 64.92 733.05 64.84 731.97 65.39 731.87 64.7 731.97 64 732.46 63 733.43 63.17 733.8 62.77 734.07 63.72 733.74 64.08 733.49 64.92 Z" id="SYC-5200" data-name="Anse Etoile"/>
<path d="M 736.97 71.44 738.74 72.09 738.37 73.57 738.66 74.05 738.88 75.87 737.43 74.95 737.29 74.52 736.94 73.42 736.68 71.34 736.97 71.44 Z" id="SYC-5201" data-name="Au Cap"/>
<path d="M 738.88 75.87 738.22 76.05 738 76.94 738.7 78.5 737.43 78.6 737.11 77.8 737.01 76.38 737.06 76.05 737.29 74.52 737.43 74.95 738.88 75.87 Z" id="SYC-5202" data-name="Anse Royale"/>
<path d="M 737.06 76.05 737.01 76.38 737.11 77.8 737.43 78.6 737.46 79.09 736.12 79.01 735.96 78.72 735.62 77.87 734.92 77.61 734.36 77.98 733.77 77.68 734.14 76.24 735.46 76.25 735.99 75.83 737.06 76.05 Z" id="SYC-5203" data-name="Baie Lazare"/>
<path d="M 757.88 45.27 756.26 44.37 755.74 43.59 751.13 40.84 751.71 40.64 752.25 40.54 752.85 40.51 753.97 41.54 755.04 41.98 756.19 42.19 756.81 42.96 757.6 42.6 758.6 42.75 759.38 43.71 758.11 43.77 757.9 44.42 757.88 45.27 Z M 755.13 40.42 755.1 40.69 754.14 40.36 753.45 39.73 753.69 39.45 754.25 39.45 755.54 39.54 755.89 39.57 755.78 39.95 755.04 39.95 755.13 40.42 Z" fill-rule="evenodd" id="SYC-5204" data-name="Baie Sainte Anne"/>
<path d="M 731.97 64 731.87 64.7 731.97 65.39 731.59 65.71 731.8 66.23 731.24 66.92 730.79 66.05 730.09 66.3 729.89 66.05 730.14 65.94 730.51 65.31 730.81 64.68 731.25 64.37 731.33 64 731.97 64 Z" id="SYC-5205" data-name="Beau Vallon"/>
<path d="M 733.85 68.77 733.43 69.6 732.32 69.04 732 67.9 731.52 67.44 732.49 66.68 733.4 66.47 733.63 66.82 733.27 66.94 733.23 67.08 733.53 67.06 733.53 67.41 733.12 67.58 733.85 68.77 Z" id="SYC-5206" data-name="Bel Air"/>
<path d="M 731.24 66.92 730.16 67.34 730.3 67.93 729.43 68.31 727.2 67.19 727.83 66.59 728.32 66.38 729.29 66.31 729.89 66.05 730.09 66.3 730.79 66.05 731.24 66.92 Z" id="SYC-5207" data-name="Bel Ombre"/>
<path d="M 737.74 70.28 737.16 71.16 736.97 71.44 736.68 71.34 736.28 71.2 735.29 69.96 735.83 69.67 736.03 69.11 736.48 69.42 737.74 70.28 Z" id="SYC-5208" data-name="Cascade"/>
<path d="M 733.8 62.77 733.43 63.17 732.46 63 731.97 64 731.33 64 731.46 63.42 731.41 62.07 731.96 61.91 732.51 61.96 733.09 62.05 733.8 62.77 Z" id="SYC-5209" data-name="Glacis"/>
<path d="M 734.88 70.19 735.29 69.96 736.28 71.2 736 72.03 735.13 72.73 734.92 73.46 734.14 73.39 733.36 72.24 732.62 71.2 732.7 70.89 732.42 70.78 732.46 70.29 733.12 70.19 733.43 69.6 735.06 70.75 734.88 70.19 Z" id="SYC-5210" data-name="Grand&apos;Anse"/>
<path d="M 748.62 45.52 748.39 45.52 748.03 45.19 748.3 44.99 748.45 45.13 748.62 45.52 Z M 749.77 43.99 749.36 44.05 749.33 43.69 749.57 43.52 749.83 43.6 749.77 43.99 Z M 757.88 45.27 757.17 45.91 756.2 45.89 755.09 45.42 754.34 44.66 753.89 43.67 752.82 43.49 751.86 43.37 751.27 42.78 751.21 42.2 750.69 41 751.13 40.84 755.74 43.59 756.26 44.37 757.88 45.27 Z M 750.54 34.33 750.27 34.54 749.68 34.48 749.27 34.39 749.36 34.18 749.86 34.15 750.15 34.21 750.54 34.33 Z" fill-rule="evenodd" id="SYC-5211" data-name="Grand&apos;Anse Praslin"/>
<path d="M 772.3 64.32 771.88 64.46 771.42 64.42 770.94 63.94 770.9 63.65 771.16 63.45 771.5 63.35 771.84 63.45 772.24 63.96 772.3 64.32 Z M 717.68 57.13 716.23 57.44 715.13 56.13 714.61 54.23 714.92 52.76 716.24 53.19 717.66 54.19 718.39 55.55 717.68 57.13 Z M 763.9 47.17 763.7 47.84 763.14 47.7 762.43 46.99 762.25 46.02 762.67 45.05 762.93 44.25 763.9 44.66 764.43 45.66 764.93 46.43 764.4 46.7 763.9 47.17 Z M 770.2 44.69 770.11 45.22 769.82 45.08 769.73 44.49 769.91 43.99 770.29 44.22 770.2 44.69 Z M 767.11 44.19 766.64 44.31 766.23 43.87 765.7 43.13 765.84 42.66 766.23 42.75 766.99 43.57 767.11 44.19 Z M 766.26 40.98 765.96 41.01 765.67 40.4 765.67 39.95 765.93 39.98 766.02 40.48 766.26 40.98 Z M 749.3 1 749.79 2.64 749.21 2.63 748.68 1.8 749.3 1 Z" fill-rule="evenodd" id="SYC-5212" data-name="La Digue and Inner Islands"/>
<path d="M 733.49 64.92 733.49 65.55 733.4 66.47 732.49 66.68 732.6 66.05 731.97 65.39 733.05 64.84 733.49 64.92 Z" id="SYC-5213" data-name="English River"/>
<path d="M 732.49 66.68 731.8 66.23 731.59 65.71 731.97 65.39 732.6 66.05 732.49 66.68 Z" id="SYC-5214" data-name="Mont Buxton"/>
<path d="M 736.44 67.26 736.64 67.4 736.79 67.32 736.98 67.39 737.2 67.96 737.12 68.18 736.87 68.2 736.54 68.08 736.31 67.86 736.02 67.75 736 67.4 736.16 67.25 736.44 67.26 Z M 734.06 68.35 733.85 68.77 733.12 67.58 733.53 67.41 733.53 67.06 733.84 67.05 734.43 67.8 734.06 68.35 Z M 737.68 67.19 737.54 67.38 737.33 67.29 737.06 67.11 736.93 66.91 736.99 66.73 737.11 66.75 737.31 66.93 737.57 67 737.68 67.19 Z M 736.96 64.91 737.33 64.99 737.65 64.99 737.8 65.08 737.65 65.4 737.4 65.75 736.88 65.96 736.56 66.18 736.41 66.2 736.37 65.97 736.45 65.55 736.41 65.28 736.5 65.1 736.61 65.01 736.96 64.91 Z" fill-rule="evenodd" id="SYC-5215" data-name="Mont Fleuri"/>
<path d="M 734.73 68.2 734.68 68.8 734.75 69.22 734.61 69.39 734.88 70.19 735.06 70.75 733.43 69.6 733.85 68.77 734.06 68.35 734.43 67.8 734.73 68.2 Z" id="SYC-5216" data-name="Plaisance"/>
<path d="M 738.92 71.39 737.16 71.16 737.74 70.28 737.96 70.42 738.92 71.39 Z" id="SYC-5217" data-name="Pointe La Rue"/>
<path d="M 729.17 71.36 729.07 71.39 728.75 71.03 728.55 70.84 728.56 70.69 728.46 70.56 728.52 70.45 728.66 70.47 728.84 70.54 729.13 70.71 729.28 70.97 729.21 71.22 729.17 71.36 Z M 726.67 70.3 726.6 70.41 726.35 70.31 725.96 70.25 725.73 70.08 725.62 69.89 725.79 69.73 726.07 69.83 726.41 70.09 726.67 70.3 Z M 732 67.9 732.32 69.04 733.43 69.6 733.12 70.19 732.46 70.29 732.42 70.78 732.7 70.89 732.62 71.2 731.55 71.09 730.18 70.27 729.47 69.85 728.88 69.83 728.3 69.62 728.34 69.3 728.75 69.23 728.55 68.98 727.91 68.78 727.13 68.95 726.47 68.75 726.02 68.42 726.15 68.15 726.76 68.2 726.98 68.03 726.74 67.63 727.2 67.19 729.43 68.31 730.3 67.93 730.16 67.34 731.24 66.92 731.52 67.44 732 67.9 Z" fill-rule="evenodd" id="SYC-5218" data-name="Port Glaud"/>
<path d="M 732.49 66.68 731.52 67.44 731.24 66.92 731.8 66.23 732.49 66.68 Z" id="SYC-5219" data-name="Saint Louis"/>
<path d="M 736.12 79.01 737.46 79.09 737.43 78.6 738.7 78.5 738.81 79.59 739.4 80.06 739.66 81.17 738.22 81.17 736.99 80.54 736.12 79.01 Z" id="SYC-5220" data-name="Takamaka"/>
<path d="M 735.83 69.67 735.29 69.96 734.88 70.19 734.61 69.39 734.75 69.22 734.68 68.8 735.83 69.67 Z" id="SYC-5221" data-name="Les Mamelles"/>
<path d="M 736.03 69.11 735.83 69.67 734.68 68.8 734.73 68.2 736.03 69.11 Z" id="SYC-5222" data-name="Roche Caïman"/>
</g>
</svg>