<?xml version="1.0"?>
<svg xmlns="http://www.w3.org/2000/svg" version="1.2" baseProfile="tiny" width="800" height="745" viewBox="0 0 800 745" stroke-linecap="round" stroke-linejoin="round">
<g id="ne_10m_admin_1_states_provinces">
<path d="M 313.09 25.47 317.54 26.86 328.95 27.91 351.99 25.55 360.79 22.05 367.28 17.54 375.13 16.86 388.22 24.98 392.62 34.3 391.47 43.88 393.77 51.89 408.85 56.23 401.83 70.89 396.91 84.82 390.52 113.3 392.3 114.04 398.38 113.67 400.68 113.88 396.91 117.18 387.49 129.01 398.48 133.09 405.08 141.42 411.36 162.57 408.53 173.83 412.93 182.04 430.42 199.22 445.81 227.7 453.87 236.55 464.76 222.62 482.15 240.79 515.44 292.62 531.25 302.99 565.6 312.88 580.36 319.06 585.18 324.61 589.27 331.65 588.9 331.68 570.52 333.2 562.98 335.34 557.17 339.27 551.2 347.67 549.32 352.44 551.52 356.7 554.82 358.43 560.16 360.6 560 365 559.21 368.54 539.37 390.47 507.17 381 486.23 368.33 476.96 361.26 449.16 356.76 439.11 356.99 405.13 363.09 395.71 361.55 386.6 358.72 371.94 352.44 360.16 350.79 350.42 350.89 333.46 356.13 324.03 363.51 321.83 367.72 319.32 374.5 308.75 383.56 303.72 390.71 291.15 399.9 289.11 405.81 288.48 420.16 284.87 431.15 283.46 442.25 283.77 452.98 248.69 460.37 223.25 468.38 207.86 471.15 164.14 472.09 144.33 476.33 143.93 474.03 138.07 468.01 131.47 467.7 124.98 469.11 119.32 468.43 113.25 466.23 99.11 463.45 92.62 460.05 93.04 457.7 90.84 443.56 89.27 438.8 65.4 408.22 58.7 401.78 45.82 396.65 34.93 395.45 24.66 392.2 13.98 380.68 7.81 367.96 6.34 355.86 10.84 346.18 22.88 340.94 13.15 335.08 14.93 331.41 16.81 329.06 18.28 326.02 18.17 320.16 44.77 321.94 35.35 312.72 12.94 301.68 1 297.96 5.08 288.33 40.16 249.01 44.25 242.57 46.65 237.44 50.42 232.15 58.38 225.34 65.5 222.25 80.48 220 88.85 214.92 99.95 201 95.87 195.4 88.75 189.74 89.9 175.76 96.18 170.37 116.71 164.51 124.04 159.48 126.55 151.47 126.55 141.94 125.4 130.21 131.47 123.93 146.23 115.66 152.41 109.9 154.92 102.99 156.91 86.55 160.58 80.11 177.33 70.27 215.03 58.38 230.11 48.28 238.17 33.72 242.36 19.85 250.94 10.48 272.51 9.01 288.12 1 294.61 5.55 297.96 15.24 304.14 22.68 313.09 25.47 Z" id="LUX-906" data-name="Diekirch"/>
<path d="M 643.21 659.22 636.59 691.93 639.74 722.61 639.66 730.08 619.42 728.69 592.51 719.05 544.23 695.52 540.16 678.64 527.75 644.29 526.81 630.57 533.87 621.99 566.44 601.41 574.13 598.79 592.51 596.15 595.02 590 593.3 585.13 588.11 581.26 582.62 577.96 578.69 574.29 580.73 570.73 584.82 567.43 606.07 555.94 588.74 534.92 579.16 508.22 571.78 502.25 558.11 496.13 544.24 493.61 466.75 492.36 512.83 444.82 521.15 439.79 534.03 434.5 541.1 435.34 556.23 434.92 568.01 411.2 565.97 408.19 560.31 404.14 555.44 402.1 539.37 390.47 559.21 368.54 560 365 560.16 360.6 554.82 358.43 551.52 356.7 549.32 352.44 551.2 347.67 557.17 339.27 562.98 335.34 570.52 333.2 588.9 331.68 589.27 331.65 595.34 342.1 596.38 345.5 604.55 345.97 619.74 340 628.64 340.16 645.81 347.17 674.92 365.13 692.09 372.2 709.79 375.34 758.37 375.34 789.58 381.31 793.56 381.47 799 385.29 798.69 385.08 796.49 386.49 796.38 395.03 794.92 395.71 790.1 417.75 789.99 424.92 792.72 429.42 792.3 433.35 782.46 438.95 781.72 448.01 784.03 456.28 788.84 463.56 796.07 469.84 787.27 467.59 782.56 469.11 779.11 474.03 786.02 479.21 788.01 481.41 713.56 512.72 697.85 527.01 699.63 530.36 706.12 533.24 712.3 537.17 713.24 543.87 710.52 548.43 702.88 555.76 692.61 569.47 666.23 590.63 650.94 606.23 645.18 617.38 645.18 649.47 643.21 659.22 Z" id="LUX-907" data-name="Grevenmacher"/>
<path d="M 539.37 390.47 555.44 402.1 560.31 404.14 565.97 408.19 568.01 411.2 556.23 434.92 541.1 435.34 534.03 434.5 521.15 439.79 512.83 444.82 466.75 492.36 544.24 493.61 558.11 496.13 571.78 502.25 579.16 508.22 588.74 534.92 606.07 555.94 584.82 567.43 580.73 570.73 578.69 574.29 582.62 577.96 588.11 581.26 593.3 585.13 595.02 590 592.51 596.15 574.13 598.79 566.44 601.41 533.87 621.99 526.81 630.57 527.75 644.29 540.16 678.64 544.23 695.52 542.46 694.66 514.71 687.43 485.92 685.44 427.7 689.63 434.29 698.95 405.71 700.68 398.48 702.56 393.14 708.74 393.25 715.23 390.94 720.68 378.69 723.71 368.85 733.45 353.98 737.06 267.59 740.47 250 744.29 236.08 715.28 217.02 702.77 217.02 702.77 152.73 692.77 127.28 684.97 109.59 674.18 77.75 646.59 101.84 639.11 125.08 622.93 134.72 607.12 117.54 600.99 128.96 593.98 137.02 583.82 150 560.47 158.07 554.29 168.12 548.22 173.77 539.42 168.12 525.02 160.79 520.99 140.47 519.47 133.56 516.07 130 508.64 131.47 505.02 134.51 501.78 135.03 495.18 136.6 489.58 141.52 485.97 145.29 481.78 144.33 476.33 164.14 472.09 207.86 471.15 223.25 468.38 248.69 460.37 283.77 452.98 283.46 442.25 284.87 431.15 288.48 420.16 289.11 405.81 291.15 399.9 303.72 390.71 308.75 383.56 319.32 374.5 321.83 367.72 324.03 363.51 333.46 356.13 350.42 350.89 360.16 350.79 371.94 352.44 386.6 358.72 395.71 361.55 405.13 363.09 439.11 356.99 449.16 356.76 476.96 361.26 486.23 368.33 507.17 381 539.37 390.47 Z" id="LUX-908" data-name="Luxembourg"/>
</g>
</svg>