<?xml version="1.0"?>
<svg xmlns="http://www.w3.org/2000/svg" version="1.2" baseProfile="tiny" width="800" height="319" viewBox="0 0 800 319" stroke-linecap="round" stroke-linejoin="round">
<g id="ne_10m_admin_1_states_provinces">
<path d="M 641.07 201.99 640.77 203.4 640.83 203.85 641.01 204.34 641.37 204.68 641.82 204.88 642.15 204.83 642.35 204.58 642.45 204.06 642.63 203.56 642.91 203.04 643.41 202.62 643.85 202.37 644.32 202.23 644.73 202.24 645.02 202.36 646.51 203.48 646.83 203.82 647.02 204.24 647.14 204.63 647.14 205.03 646.93 205.44 646.41 205.9 641.14 208.59 640.66 208.98 640.24 209.49 638.77 212.26 638.71 212.59 638.85 212.91 639.13 213.3 639.54 213.73 639.88 214.21 640.06 214.67 640.08 215.12 639.79 215.8 637.54 219.51 637.24 220.29 637.12 220.79 635.98 223.17 635.79 223.92 635.79 224.67 635.88 225.38 635.7 226.24 635.24 227.08 634 228.43 632.82 229.37 631.2 230.25 629.42 230.83 628.45 231.77 622.6 236.45 622.39 236.91 622.3 237.26 622.53 238.11 621.58 239 618.89 240.5 618.06 241.13 617.44 241.74 617.01 242.36 616.79 242.84 616.72 243.27 616.79 243.65 617.03 244.36 617.27 244.64 617.4 244.94 617.43 245.34 617.11 246.23 616.99 246.76 616.96 247.33 617.24 249.02 616.71 251.75 616.51 252.21 616.25 252.6 615.91 252.77 615.6 252.88 614.77 253 613.9 251.81 613.77 250.35 613.76 249.25 613.42 248.32 611.98 246.01 611.49 245.01 611.13 244.07 610.84 243.78 610.42 243.86 609.1 244.53 608.38 244.67 607.43 244.67 606.23 244.16 605.67 243.56 605.38 242.92 605.28 241.89 605.35 240.99 605.32 240.46 605.04 239.73 604.51 239.25 603.96 238.97 603.32 238.93 602.01 239.06 600.35 239.04 599.06 238.84 597.86 238.36 596.32 237.78 595.48 237.65 594.84 237.63 593.1 237.84 590.4 238.45 588.73 238.4 588.17 238.2 587.88 237.97 587.97 237.56 588.16 237.37 589.07 236.93 589.57 236.6 589.82 236.15 590.1 235.16 591.15 233.1 591.35 232.48 591.43 231.79 591.33 231.09 591.08 230.45 589.27 228.89 583.47 225.84 583.52 224.92 583.69 224.49 584.02 223.89 586.59 220.73 586.62 220.36 586.54 219 586.25 217.7 586.18 216.82 586.36 215.62 586.8 214.48 597.2 203.61 597.41 203.45 597.7 203.3 597.98 203.1 598.38 202.73 599.43 201.62 599.7 201.16 599.79 200.62 599.42 200.07 598.83 198.85 600.43 198.93 601.17 199.36 601.73 199.99 602.57 201.83 603.02 202.32 603.65 202.55 604.85 202.66 605.65 203.18 606.05 203.66 606.27 204.16 606.56 204.65 606.94 205.2 611.18 209.58 611.85 210.01 612.36 210.17 612.85 209.86 612.99 209.51 613.06 209.07 613.07 208.66 613.34 208.36 613.74 208.08 614.69 207.7 615.1 207.4 615.36 207.07 615.45 206.72 615.62 206.39 615.89 206.16 616.2 206.12 616.75 206.33 617.36 206.71 618.07 207.34 618.69 207.99 620.05 209.79 620.9 210.37 621.96 211.46 622.25 211.89 622.45 212.37 622.67 213.56 622.96 214.07 623.66 214.33 625.41 214.5 626.14 214.47 626.63 214.4 627.09 214.28 627.45 214.25 627.87 214.31 628.18 214.39 628.37 214.33 628.43 214.02 628.33 213.25 628.38 212.88 628.57 212.48 629.48 211.36 629.65 211.09 629.76 210.74 629.72 210.4 629.55 209.94 629.44 209.41 629.57 208.96 629.89 208.48 630.29 208.12 630.74 207.89 631.38 207.93 632.32 208.12 632.67 208.07 633.13 207.83 633.77 207.38 634.68 206.61 635.2 206.27 636.26 206.03 636.84 205.84 637.52 205.31 637.82 204.7 637.9 204.14 638.14 203.62 638.62 203.11 640.34 201.92 641.07 201.99 Z" id="ECU-1266" data-name="Azuay"/>
<path d="M 583.47 225.84 589.27 228.89 591.08 230.45 591.33 231.09 591.43 231.79 591.35 232.48 591.15 233.1 590.1 235.16 589.82 236.15 589.57 236.6 589.07 236.93 588.16 237.37 587.97 237.56 587.88 237.97 588.17 238.2 588.73 238.4 590.4 238.45 593.1 237.84 594.84 237.63 595.48 237.65 596.32 237.78 597.86 238.36 597.6 240.88 597.7 241.7 597.92 242.53 598.14 242.96 598.4 243.16 598.74 243.25 599.08 243.38 599.34 243.58 599.5 243.87 599.53 244.13 599.46 244.42 599.31 244.69 597.68 246.57 597.39 247.09 597.21 247.65 597.15 248.76 597.21 249.39 596.5 251.57 596.44 252.18 596.52 252.64 596.75 252.97 597.05 252.82 597.41 252.54 597.99 251.95 598.52 251.21 598.86 250.95 599.28 250.79 599.8 250.91 600.13 251.14 600.68 251.66 601.27 252.01 601.57 252.26 601.89 252.64 602.11 253.17 602.21 253.83 602.11 254.58 601.92 255.29 601.67 255.77 601.45 256.07 600.73 256.76 600.49 257.08 600.44 257.39 600.8 258.67 600.78 259.17 600.61 259.6 600.25 260.11 599.88 260.48 599.27 260.82 598.4 261.04 597.51 260.99 596.95 260.88 596.04 260.51 595.43 260.39 593.8 260.65 593.01 260.56 592.44 260.33 591.69 259.62 591.39 259.26 591.04 258.62 590.8 258.51 590.4 258.57 589.94 258.84 589.24 259.14 587.81 259.91 587.3 260.39 586.09 261.79 585.36 262.13 584.38 262.36 581.29 262.53 580.49 262.45 579.52 262.11 578.8 261.95 577.94 261.94 575.18 262.2 574.26 262.41 571.43 263.77 568.42 264.41 564.94 264.59 564.23 264.64 564.24 264.58 563.95 264.3 563.52 264.02 563.11 263.54 562.98 263.14 562.98 262.26 562.92 261.83 562.5 260.87 561.55 259.35 561.32 258.39 561.41 258.03 561.61 257.7 561.77 257.33 561.73 256.86 561.43 255.97 561.39 255.6 561.39 255.13 561.47 254.71 561.78 253.78 561.85 253.31 561.8 252.79 561.52 251.88 561.52 251.35 561.39 250.9 560.97 250.71 560.5 250.56 560.2 250.23 560.2 249.86 560.57 248.58 560.66 247.67 560.66 247.2 560.55 246.78 560.24 246.44 559.46 246.11 559.17 245.85 559.06 244.86 559.35 243.87 559.45 243.04 558.78 242.52 556.98 242.05 556.21 241.64 555.88 241.47 555.88 241.47 555.78 241.13 555.72 240.78 555.87 240.29 556.51 239.91 556.8 239.34 557.04 238.68 557.49 238.01 557.01 239.35 556.84 239.67 557.14 240.64 557.71 240.2 557.98 238.71 558.46 238.01 559.76 239.31 560.41 239.04 563.85 238.34 564.44 238.4 564.83 238.49 565.18 238.51 565.64 238.34 566.72 237.06 566.94 236.88 568.73 233.14 569.24 232.47 570.3 232.67 570.52 233.8 570.18 236.07 570.69 235.77 571.01 235.31 571.28 234.78 571.66 234.26 572.09 233.92 573.6 232.97 574.31 232.15 574.77 231.16 575.03 230.09 575.25 228.25 576.03 226.53 577.03 224.93 577.04 224.93 577.41 224.97 581.05 225.16 581.55 225.26 583.47 225.84 Z" id="ECU-1267" data-name="El Oro"/>
<path d="M 614.77 253 613.82 254.17 613.46 254.36 612.78 254.94 612.6 255.25 612.64 255.94 612.59 256.24 612.36 256.53 612.15 256.68 611.89 256.79 611.4 256.82 611.14 256.8 610.88 256.83 610.64 256.95 610.5 257.19 610.42 257.52 610.52 257.95 610.65 258.34 611.11 259.18 611.77 260.73 612.24 261.45 613.15 262.54 613.71 263.52 613.85 263.97 613.96 264.75 613.91 265.19 613.73 265.74 613.28 266.76 612.99 267.8 612.86 269.3 612.93 270.4 613.17 271.84 613.09 272.53 612.41 275.2 612.29 276.2 612.27 276.91 612.39 277.25 612.52 277.5 612.66 277.65 612.81 277.78 612.98 277.9 613.46 278.1 613.69 278.25 613.91 278.47 614.05 278.7 614.58 279.35 614.69 279.72 614.75 280.11 614.8 280.92 614.7 281.53 614.83 282.78 614.46 285.47 614.54 286.01 614.59 287.18 614.51 288.17 614.23 289.71 614.08 290.08 613.87 290.42 613.29 290.94 612.59 291.91 612.21 292.63 611.92 292.92 611.5 293.08 611.09 293.16 610.69 293.3 610.42 293.53 610.18 293.96 609.88 294.22 609.44 294.2 609.04 293.85 608.54 293.5 608.14 293.33 607.51 293.25 606.96 293.02 606.46 292.9 606.1 292.96 605.77 293.24 605.49 293.79 605.2 294.14 604.49 294.72 604.22 296.12 604.26 296.64 604.46 297.49 604.39 298.01 604.17 298.64 603.86 299.23 602.39 301.32 601.79 301.98 600.19 304.53 598.16 306.74 597.72 306.94 597.71 306.88 596.46 304.54 595.92 301.72 594.53 299.69 594.56 298.67 595.66 296.73 595.78 296.03 595.51 295.58 594.55 295.02 593.4 295.03 593.11 294.87 592.43 294.37 592.06 294.19 589.66 291.82 588.34 291.17 586.63 291.4 584.99 292.37 581.79 293.36 580.03 293.08 578.85 291.86 577.85 290.37 576.64 289.26 575.4 288.95 574.17 288.93 572.94 288.79 571.65 288.08 570.69 287.41 569.15 285.73 568.3 285 567.48 284.71 566.51 284.53 565.72 284.28 565.42 283.77 565.28 283.82 563.34 284.07 562.82 284.25 562.33 284.49 561.94 284.81 561.53 285.47 561.04 287.14 560.69 287.89 559.94 288.7 556.28 291.5 554.34 292.54 553.88 292.95 553.51 292.99 552.66 293.01 551.87 292.73 549.74 291.52 549.09 290.94 548.68 289.95 548.86 289.13 555.14 280.8 555.67 279.74 553.47 280.01 551.41 280.62 549.76 280.45 548.75 278.34 548.75 277.9 548.94 277 548.92 276.55 548.66 275.94 547.88 274.86 547.64 274.28 547.73 273.4 547.73 273.36 548.14 272.17 548.69 271.02 549.21 270.25 549.92 269.74 550.8 269.49 551.76 269.42 552.73 269.47 553.71 269.78 555.72 270.86 556.61 271.04 557.6 270.56 558.4 269.57 559.09 268.47 559.77 267.63 563.47 265.93 564.23 265.08 564.23 264.64 564.94 264.59 568.42 264.41 571.43 263.77 574.26 262.41 575.18 262.2 577.94 261.94 578.8 261.95 579.52 262.11 580.49 262.45 581.29 262.53 584.38 262.36 585.36 262.13 586.09 261.79 587.3 260.39 587.81 259.91 589.24 259.14 589.94 258.84 590.4 258.57 590.8 258.51 591.04 258.62 591.39 259.26 591.69 259.62 592.44 260.33 593.01 260.56 593.8 260.65 595.43 260.39 596.04 260.51 596.95 260.88 597.51 260.99 598.4 261.04 599.27 260.82 599.88 260.48 600.25 260.11 600.61 259.6 600.78 259.17 600.8 258.67 600.44 257.39 600.49 257.08 600.73 256.76 601.45 256.07 601.67 255.77 601.92 255.29 602.11 254.58 602.21 253.83 602.11 253.17 601.89 252.64 601.57 252.26 601.27 252.01 600.68 251.66 600.13 251.14 599.8 250.91 599.28 250.79 598.86 250.95 598.52 251.21 597.99 251.95 597.41 252.54 597.05 252.82 596.75 252.97 596.52 252.64 596.44 252.18 596.5 251.57 597.21 249.39 597.15 248.76 597.21 247.65 597.39 247.09 597.68 246.57 599.31 244.69 599.46 244.42 599.53 244.13 599.5 243.87 599.34 243.58 599.08 243.38 598.74 243.25 598.4 243.16 598.14 242.96 597.92 242.53 597.7 241.7 597.6 240.88 597.86 238.36 599.06 238.84 600.35 239.04 602.01 239.06 603.32 238.93 603.96 238.97 604.51 239.25 605.04 239.73 605.32 240.46 605.35 240.99 605.28 241.89 605.38 242.92 605.67 243.56 606.23 244.16 607.43 244.67 608.38 244.67 609.1 244.53 610.42 243.86 610.84 243.78 611.13 244.07 611.49 245.01 611.98 246.01 613.42 248.32 613.76 249.25 613.77 250.35 613.9 251.81 614.77 253 Z" id="ECU-1268" data-name="Loja"/>
<path d="M 649.3 247.93 649.24 248.14 648.36 250.05 648.04 251.02 647.93 251.95 647.95 253.66 648.15 254.62 648.12 255.09 647.76 255.36 647.15 255.47 646.92 255.54 646.9 255.79 646.9 256.39 647.51 259.46 647.22 260.37 646.06 261.5 645.68 261.74 645.1 262.02 644.81 262.24 644.32 263.16 643.98 264.06 643.51 267.58 643.51 267.91 643.32 268.11 642.65 268.47 642.04 268.66 641.46 268.71 640.93 268.85 640.45 269.35 640.22 270.13 640.27 272.96 639.76 275.07 636.86 281.12 636.41 283.2 636 284.13 635.12 284.85 634.73 285.85 634.78 287.64 635.17 289.4 635.75 290.31 636.88 291 636.75 291.76 636.01 292.66 635.33 293.77 635.2 294.64 635.25 295.59 635.19 296.51 634.76 297.27 633.47 298.13 632.95 298.47 628.6 300.2 626.61 301.32 624.45 303.32 623.56 304.54 623.02 305.85 623.06 307.15 624.13 309.29 624.37 310.42 623.87 311.36 622.77 311.61 621.52 311.62 620.56 311.86 620.05 312.64 619.53 314.96 619.19 315.96 617.96 317.26 616.59 318.39 615.71 317.52 615.19 317.15 614.68 316.91 614.18 316.85 613.42 317.04 612.93 317.06 612.1 316.87 610.51 316.32 609.68 316.18 608.52 316.22 606.3 316.3 605.21 316.01 604.55 315.21 604.04 314.21 603.41 313.3 602.99 313.03 602.07 312.68 601.65 312.38 601.4 311.97 601.09 311.03 600.83 310.61 600.01 310 599.03 309.48 598.21 308.83 597.86 307.82 597.72 306.94 598.16 306.74 600.19 304.53 601.79 301.98 602.39 301.32 603.86 299.23 604.17 298.64 604.39 298.01 604.46 297.49 604.26 296.64 604.22 296.12 604.49 294.72 605.2 294.14 605.49 293.79 605.77 293.24 606.1 292.96 606.46 292.9 606.96 293.02 607.51 293.25 608.14 293.33 608.54 293.5 609.04 293.85 609.44 294.2 609.88 294.22 610.18 293.96 610.42 293.53 610.69 293.3 611.09 293.16 611.5 293.08 611.92 292.92 612.21 292.63 612.59 291.91 613.29 290.94 613.87 290.42 614.08 290.08 614.23 289.71 614.51 288.17 614.59 287.18 614.54 286.01 614.46 285.47 614.83 282.78 614.7 281.53 614.8 280.92 614.75 280.11 614.69 279.72 614.58 279.35 614.05 278.7 613.91 278.47 613.69 278.25 613.46 278.1 612.98 277.9 612.81 277.78 612.66 277.65 612.52 277.5 612.39 277.25 612.27 276.91 612.29 276.2 612.41 275.2 613.09 272.53 613.17 271.84 612.93 270.4 612.86 269.3 612.99 267.8 613.28 266.76 613.73 265.74 613.91 265.19 613.96 264.75 613.85 263.97 613.71 263.52 613.15 262.54 612.24 261.45 611.77 260.73 611.11 259.18 610.65 258.34 610.52 257.95 610.42 257.52 610.5 257.19 610.64 256.95 610.88 256.83 611.14 256.8 611.4 256.82 611.89 256.79 612.15 256.68 612.36 256.53 612.59 256.24 612.64 255.94 612.6 255.25 612.78 254.94 613.46 254.36 613.82 254.17 614.77 253 615.6 252.88 615.91 252.77 616.25 252.6 616.51 252.21 616.71 251.75 617.24 249.02 616.96 247.33 616.99 246.76 617.11 246.23 617.43 245.34 617.4 244.94 617.27 244.64 617.03 244.36 616.79 243.65 616.72 243.27 616.79 242.84 617.01 242.36 617.44 241.74 618.06 241.13 618.89 240.5 621.58 239 622.53 238.11 626.48 240.91 626.79 241.27 626.93 241.61 626.94 241.91 626.82 242.2 626.59 242.45 626.08 242.93 625.84 243.2 625.66 243.51 625.6 243.81 625.64 244.14 625.82 244.79 625.9 245.65 625.98 246.08 626.09 246.41 626.28 246.7 626.53 247 626.91 247.34 627.12 247.62 627.24 247.9 627.29 248.23 627.55 248.52 628.08 248.77 629.4 248.98 631.37 249.51 632.98 249.73 633.47 249.89 634.32 250.28 634.63 250.31 634.94 250.1 635.16 249.82 635.63 248.92 635.8 248.72 636.05 248.54 636.49 248.41 637.05 248.34 638.9 248.54 639.85 248.53 643.35 247.91 649.27 247.93 649.3 247.93 Z" id="ECU-1269" data-name="Zamora Chinchipe"/>
<path d="M 112.74 143.85 114.01 144.26 114.96 145.27 115.03 146.3 113.6 146.77 112.04 146.58 108.2 144.82 109.17 143.85 109.92 143.99 112.15 143.96 112.74 143.85 Z M 74.2 137.98 74.65 138.65 75.59 138.41 76.89 138.67 78.04 139.2 78.54 139.78 78.64 139.91 78.87 140.06 79.1 140.27 79.22 140.6 79.19 140.93 79.07 141.11 78.95 141.25 78.9 141.4 78.77 141.58 78.15 141.76 77.92 141.87 77.87 142.08 77.96 142.65 77.92 142.87 77.65 143.17 76.09 144.12 75.79 144.19 74.05 143.94 73.37 143.44 72.72 142.81 71.72 142.22 72.16 141.73 72.57 141.1 72.87 140.43 73.19 138.99 73.65 138.24 74.2 137.98 Z M 129.54 112.73 130.13 113.1 130.75 113.09 131.37 112.85 131.96 112.54 132.07 114.32 131.2 116.26 129.82 117.98 128.41 119.09 126.72 119.58 126.47 119.88 126.37 120.33 125.82 121.71 124.85 123.16 124.21 123.84 123.52 124.31 122.77 124.55 122.05 124.63 120.43 124.61 119.94 124.76 118.95 125.46 118.29 125.61 117.83 125.48 116.8 124.83 116.34 124.61 114.65 124.36 114.23 124.15 114.16 123.71 114.46 123.2 115.04 122.5 115.44 122.12 117.33 121.22 117.97 120.72 118.47 119.09 118.96 119.04 120.94 118.56 121.5 118.02 122.22 116.49 122.64 115.94 123.9 114.76 124.17 114.36 124.54 114.05 126.25 113.43 126.76 112.92 127.49 112.88 128.96 112.5 129.54 112.73 Z M 85.2 104.24 85.15 104.78 85.2 105.24 85.56 105.43 86.05 105.47 86.98 105.68 87.51 105.72 88.06 106.21 87.94 107.33 87.33 109.32 87.36 109.88 87.62 110.57 87.69 111.11 87.58 111.24 87.17 112.29 87.19 112.54 86.39 112.85 85.82 113.6 85.32 114.47 84.74 115.17 84.3 115.47 84.05 115.55 81.73 115.5 81.49 115.66 81.24 116.59 80.61 117.07 79.77 117.21 78.9 117.14 77.27 116.58 76.25 116.38 75.93 116.15 75.71 115.92 75.46 115.82 75.1 115.5 74.09 114.01 73.67 113.54 72.98 113.62 72.09 113.41 71.26 113.02 70.75 112.54 70.67 111.93 70.75 109.62 71.03 108.38 71.56 107.23 72.25 106.22 72.99 105.43 73.45 105.12 74.74 104.56 75.29 104.42 75.81 104.44 76.88 104.7 77.24 104.75 77.69 104.62 78.23 104.26 78.54 104.13 83.05 103.61 84.09 103.1 84.35 103.2 84.63 103.36 84.9 103.56 85.09 103.77 85.2 104.24 Z M 27.43 92.38 29.08 94.07 29.53 94.33 30.1 94.77 30.23 95.78 30.02 97.57 30.02 101.66 29.56 101.93 26.27 103.25 25.45 103.42 24.96 103.45 24.52 103.3 23.51 102.62 22.63 102.4 21.2 101.83 20.98 101.8 20.48 101.86 20.26 101.83 20.03 101.66 20.02 101.51 20.05 101.35 19.93 101.15 19.12 100.29 18.49 99.32 18.1 98.25 17.78 96.07 17.18 94.28 17.31 93.68 21.47 93.79 23.24 92.89 25.45 92.38 26.55 91.98 26.87 92.04 27.43 92.38 Z M 59.69 87.15 60.62 87.82 63.87 88.92 65.03 89.1 66.57 89.7 69.04 92.48 70.4 93.35 70.19 93.4 70.07 93.47 69.78 93.68 70.42 94.05 70.1 94.91 69.1 96.44 68.74 97.42 67.88 97.71 66.8 97.57 64.77 96.96 61.45 96.96 60.53 96.67 59.69 96.14 58.8 95.85 57.74 96.28 57.08 95.47 56.77 94.25 56.28 93.24 55.08 93.03 57.1 90.24 57.22 89.61 56.94 88.76 57.33 87.94 58.11 87.33 59 87.15 59.35 87.41 59.49 87.39 59.69 87.15 Z M 32.95 72.82 33.71 73.51 34.07 74.6 34.24 75.62 34.42 76.06 35.05 76.52 35.62 78.55 36.03 79.01 36.33 79.22 37 80.11 37.33 80.31 38.35 80.36 38.83 80.46 39.14 80.64 39.48 81.47 39.55 82.64 39.44 84.86 40.32 90.17 40.84 90.99 42.82 92.79 43.01 93.01 43.05 93.28 43.04 93.83 43.19 94.37 43.53 94.6 43.86 94.68 44.02 94.82 48.86 97.87 49.21 98.4 49.32 98.84 49.59 99.23 50.21 99.88 50.43 100.01 51.19 100.2 51.2 100.48 51.08 100.77 50.95 101.01 50.89 101.15 51.31 102.96 51.51 104.92 51.23 105.82 49.95 106.92 49.56 107.67 50.62 106.97 50.94 107.38 50.97 108.27 51.19 109 53.2 109.37 54.18 109.88 54.11 110.95 54.77 111.04 55.32 111.29 55.76 111.71 56.08 112.27 55.76 112.92 56.4 113.19 58.06 114.87 58.5 115.1 58.8 115.1 58.96 115.26 59 115.98 58.77 116.26 57.62 116.73 57.22 116.96 55.73 121.62 55.92 122.79 55.82 123.66 54.79 123.34 54.23 124.13 53.02 125.5 52.49 126.26 51.68 125.89 50.89 125.82 49.39 125.94 48.47 126.19 46.95 127.31 41.5 129.11 40.44 128.86 39.71 129.08 35.44 128.48 30.09 128.55 29.09 128.24 28.37 127.56 28.17 127.06 28.08 126.55 28.08 125.43 27.9 124.89 27.46 124.76 26.91 124.76 26.4 124.61 25.21 122.74 25.64 120.58 26.94 118.54 28.37 117.14 33.92 113.54 34.17 113.16 34.17 112.84 34.33 112.62 35.07 112.54 36.28 112.04 37.93 111.6 38.49 111.59 39.02 111.74 39.32 111.94 39.52 112.13 39.77 112.27 40.59 112.55 41.1 112.59 41.59 112.41 41.84 112.12 42.29 111.41 42.55 111.27 42.57 110.76 42.99 109.77 43.66 109.04 44.37 109.32 44.93 108.54 44.97 107.82 44.62 107.2 44.02 106.69 43.38 106.4 41.98 105.98 41.42 105.72 40.29 104.69 39.16 103.17 38.26 101.47 37.82 99.88 37.89 98.5 37.75 98.02 37.17 97.57 36.79 97.45 36.17 97.39 35.87 97.25 35.7 97.04 35.25 96.28 32.36 94.74 31.27 93.54 31.32 92.03 30.38 91.47 29.77 90.42 29.86 89.45 31 89.1 30.13 87.87 29.8 87.17 29.67 86.35 29.67 84.71 29.62 84.29 29.42 83.52 29.38 83.07 28.97 81.49 27.91 80.7 26.44 80.66 24.8 81.29 23.16 82.41 22.32 82.59 21.38 82.1 20.41 80.81 20.26 80.48 20.36 80.06 20.63 79.86 20.99 79.71 24.2 77.93 25.11 76.99 25.45 75.09 26.63 75.46 27.57 75.2 28.47 74.73 30.02 74.31 30.35 73.92 30.63 73.48 31 73.14 31.56 72.97 32.44 73.01 32.95 72.82 Z M 75.03 67.42 74.02 67.62 73.45 67.43 72.83 66.79 72.21 66.65 71.75 66.48 71.29 66.09 70.93 65.66 70.75 65.35 70.86 64.27 71.61 63.48 72.66 62.97 73.67 62.76 74.75 63.1 75.89 63.65 76.81 64.4 77.24 65.35 76.93 66.04 76.09 66.81 75.03 67.42 Z M 61.24 52.3 60.48 53.81 58.35 52.96 58.69 51.95 58.37 49.91 58.71 49.06 60.65 50.15 61.24 52.3 Z M 10.45 14.88 10.22 15.09 9.98 14.95 9.86 14.66 9.85 14.39 10.15 14.22 10.37 14.3 10.54 14.65 10.45 14.88 Z M 10.23 13.82 10.09 13.98 10.01 13.83 10.23 13.82 Z M 1.56 1.63 1.23 1.7 1 1.27 1.26 1 1.56 1.21 1.56 1.63 Z" fill-rule="evenodd" id="ECU-1270" data-name="Galápagos"/>
<path d="M 625.99 136.15 624.97 138.04 624.85 138.66 624.76 140.47 624.56 141.25 623.9 142.63 623.61 143.5 623.07 145.89 623.25 146.56 624.38 148.24 624.92 148.86 625.3 149.51 625.28 150.51 625.37 150.94 625.63 151.56 626.39 152.76 626.63 153.39 626.62 154.15 626.43 155.28 626.38 156.39 626.47 157.97 626.3 159.24 625.8 160.48 624.82 161.94 623.16 163.43 622.49 163.61 620.81 163.83 620.22 164.12 619.78 164.47 619.55 164.85 619.39 165.31 619.4 166.16 619.21 168.28 619.34 169.8 619.64 170.82 619.65 171.34 618.41 177.45 618.46 178.05 618.61 178.48 618.85 178.92 618.93 179.42 618.85 179.92 618.62 180.49 617.7 181.84 616 183.55 613.44 184.9 613.58 182.96 613.36 182.56 612.97 182.19 612.53 182.15 612.08 182.45 611.78 182.73 611.47 182.92 610.92 182.95 610.36 182.92 608.43 182.56 609.17 181.09 609.53 179.48 609.87 178.7 609.86 178.31 609.55 177.65 607.91 175.01 606.4 173.03 606.34 172.6 606.55 172.2 607.12 171.82 607.34 171.56 608.14 168.41 608.59 167.47 608.72 166.8 608.5 166.26 608.17 165.77 607.81 165.13 607.64 164.52 607.58 164.02 607.79 163.07 607.72 162.68 606.28 160.58 605.77 159.52 605.4 159.04 605.08 158.9 604.76 158.92 604.53 158.83 604.34 158.56 604.08 158.43 603.73 158.36 603.45 158.24 603.28 158.03 603.43 157.72 603.66 157.54 604.05 157.3 604.41 157 605.72 155.5 606.01 155.44 606.25 155.52 606.54 155.7 606.75 155.69 606.96 155.53 607.22 155.13 607.43 154.69 607.66 154.02 607.74 153.39 607.49 152.8 607.06 152.38 605.56 151.41 604.9 150.75 604.48 149.93 604.3 148.92 604.37 145.25 604.46 144.76 604.69 144.45 604.89 144.39 605.14 144.42 605.39 144.29 605.64 144.08 605.79 143.82 605.74 143.58 604.37 142.59 603.94 141.73 603.59 141.52 603.31 141.52 603 141.77 602.4 142.68 602.05 142.99 601.66 143.17 601.31 143.09 601.16 142.8 601.28 142.21 602.02 141.39 603.15 139.57 604.04 138.38 606.28 137.31 608.48 137.16 611.96 135.42 613.08 135.1 614.42 134.92 615.09 134.93 615.73 135.04 616.03 135.29 616.27 135.62 616.58 135.97 618.01 136.89 618.92 137.31 620.06 137.63 621.13 137.6 621.95 137.35 623.25 136.24 624.05 135.83 624.62 135.76 625.99 136.15 Z" id="ECU-1277" data-name="Bolivar"/>
<path d="M 639.6 190.03 639.67 190.56 640.3 190.94 643.28 192.25 643.98 192.78 644.29 193.32 644.19 193.76 644.11 194.29 644.16 196.99 643.98 197.87 643.93 198.31 643.93 198.87 643.86 199.27 643.7 199.62 642.56 201.35 642.07 201.95 641.87 202.08 641.71 202.17 641.54 202.18 641.41 202.17 641.07 201.99 640.34 201.92 638.62 203.11 638.14 203.62 637.9 204.14 637.82 204.7 637.52 205.31 636.84 205.84 636.26 206.03 635.2 206.27 634.68 206.61 633.77 207.38 633.13 207.83 632.67 208.07 632.32 208.12 631.38 207.93 630.74 207.89 630.29 208.12 629.89 208.48 629.57 208.96 629.44 209.41 629.55 209.94 629.72 210.4 629.76 210.74 629.65 211.09 629.48 211.36 628.57 212.48 628.38 212.88 628.33 213.25 628.43 214.02 628.37 214.33 628.18 214.39 627.87 214.31 627.45 214.25 627.09 214.28 626.63 214.4 626.14 214.47 625.41 214.5 623.66 214.33 622.96 214.07 622.67 213.56 622.45 212.37 622.25 211.89 621.96 211.46 620.9 210.37 620.05 209.79 618.69 207.99 618.07 207.34 617.36 206.71 616.75 206.33 616.2 206.12 615.89 206.16 615.62 206.39 615.45 206.72 615.36 207.07 615.1 207.4 614.69 207.7 613.74 208.08 613.34 208.36 613.07 208.66 613.06 209.07 612.99 209.51 612.85 209.86 612.36 210.17 611.85 210.01 611.18 209.58 606.94 205.2 606.56 204.65 606.27 204.16 606.05 203.66 605.65 203.18 604.85 202.66 603.65 202.55 603.02 202.32 602.57 201.83 601.73 199.99 601.17 199.36 600.43 198.93 598.83 198.85 597.46 199.26 596.34 199.84 595.63 199.74 595.24 199.41 595.17 198.76 597.84 196.3 599.41 195.28 599.47 195.02 599.28 194.68 599.13 194.29 599.19 193.93 599.39 193.52 599.39 192.37 599.83 191.76 600.33 191.25 601.62 190.26 602.28 189.89 602.86 189.64 608.46 188.62 609.4 188.35 610.5 187.91 611.61 187.29 612.26 186.78 612.74 186.24 613 185.89 613.44 184.9 613.62 186.15 613.77 186.44 614.08 186.87 614.33 187.06 614.65 187.21 614.89 187.36 615.09 187.55 615.34 188.27 615.58 188.63 615.87 188.86 616.33 189.14 616.76 189.5 618.28 191.63 618.99 192.3 619.69 192.79 620.69 193.19 621.63 193.84 622.24 194.11 623.32 194.26 624.67 194.11 626.17 193.76 627.83 192.91 628.64 192.24 629.71 191.14 630.94 190.72 632.69 190.3 638.7 189.6 639.6 190.03 Z" id="ECU-1278" data-name="Cañar"/>
<path d="M 648.31 112.67 647.91 113.9 647.93 114.38 648.43 116.09 648.68 117.75 648.73 118.82 648.58 119.73 648.04 120.71 647.53 121.45 647.3 122.11 647.22 122.58 647.23 123.25 647.11 123.68 646.88 124 646.55 124.22 646.3 124.43 646.18 124.73 646.35 125.06 646.7 125.3 647.81 125.49 648.56 125.94 647.2 127.11 647.02 127.52 646.72 127.98 646.56 128.45 646.51 128.95 646.52 129.79 645.96 130.75 645.52 131.23 644.93 131.5 643.76 131.59 643.19 131.39 642.79 131.11 642.53 130.83 642.19 130.62 641.84 130.5 641.35 130.45 640.87 130.57 640.38 130.99 640.35 131.29 640.35 131.92 640.17 132.28 639.83 132.56 639.38 132.73 638.13 132.81 637.65 132.98 636.51 133.88 635.73 134.26 634.97 134.45 633.78 134.41 631.53 133.93 630.71 133.94 629.8 134.14 628.63 134.51 627.35 135.62 625.99 136.15 624.62 135.76 624.05 135.83 623.25 136.24 621.95 137.35 621.13 137.6 620.06 137.63 618.92 137.31 618.01 136.89 616.58 135.97 616.27 135.62 616.03 135.29 615.73 135.04 615.09 134.93 614.42 134.92 613.08 135.1 611.96 135.42 608.48 137.16 606.28 137.31 605.95 135.78 604.72 134.14 604.27 133.43 604.29 132.3 604.41 131.12 605.13 127.78 605.02 126.94 605.05 126.1 605.19 125.25 605.81 123.59 606.24 122.89 606.7 122.4 607.28 121.98 607.81 121.5 609.09 119.12 609.46 118.7 609.92 118.34 610.33 118.13 610.72 117.86 611.04 117.48 611.73 116.21 614.99 108.5 615.5 106.37 616.22 107.48 616.4 107.65 616.68 107.83 617.04 107.96 617.38 107.95 617.87 107.75 618.12 107.39 618.31 107.02 618.46 106.34 618.67 106.1 619.02 105.91 619.57 105.72 619.89 105.58 620.06 105.41 620.06 105.15 619.96 104.79 619.8 104.39 619.57 104.03 619.2 103.74 618.41 103.38 618.15 103.17 618.04 102.96 618.09 102.75 618.29 102.49 618.72 101.69 619.29 100.31 619.5 100.04 619.7 99.83 619.92 99.7 620.71 99.33 620.93 99.16 621.08 98.92 621.19 98.6 621.27 98.21 621.42 97.88 621.62 97.56 621.86 97.35 622.07 97.26 622.59 97.15 622.77 96.98 622.92 96.78 623.09 96.63 623.36 96.54 623.76 96.9 623.9 97.15 623.91 97.75 624.05 98.05 625.82 100.35 626.52 101.69 627.08 102.55 627.25 102.95 627.53 104.13 627.74 104.65 628.36 105.2 631.42 107.34 632.21 108.46 632.65 109.47 632.74 110.23 632.91 110.74 633.22 111.16 633.53 111.31 634 111.19 635.24 110.3 635.67 110.08 636.04 109.99 636.38 109.85 636.71 109.65 637.21 109.26 637.79 108.98 638.24 108.91 638.59 109.26 638.83 109.55 639.13 109.69 639.67 109.52 640.91 108.82 641.41 108.75 642.11 108.75 643.26 108.94 643.88 108.87 645.2 109.39 648.31 112.67 Z" id="ECU-1279" data-name="Cotopaxi"/>
<path d="M 566.61 222.67 565.85 223.76 564.15 223.59 563.2 224.14 562.4 224.39 561.24 224.29 560.12 224 559.44 223.64 559.16 222.59 559.45 220.91 559.62 215.2 559.79 214.56 561.39 211.61 562.07 209.68 562.75 209.2 565.64 208.36 568.24 207.07 569.24 206.73 571.39 206.8 574.66 208.82 576.7 209.33 576.63 209.7 576.49 210.04 576.3 210.35 576.05 210.63 575.52 211.08 573.13 212.11 572.98 212.52 572.31 213.16 572.16 213.42 571.87 214.15 571.48 214.88 571.09 215.29 570.98 215.3 570.48 216.17 569.91 217.31 569.31 218.39 569 219.16 568.22 219.48 567.6 220.19 567.63 221.3 566.9 221.98 566.61 222.67 Z M 580.01 205.46 578.86 206.18 577.92 206.11 577.7 205.03 578.35 203.23 579.36 200.63 580.66 198.32 581.16 199.55 582.32 199.98 582.9 200.99 581.89 202.5 580.23 203.37 580.01 205.46 Z M 587.17 134.36 586.99 134.65 586.72 134.8 586.4 134.88 586.19 134.9 586.02 135.03 585.96 135.27 585.87 135.82 585.68 136.02 585.45 136.13 584.92 136.24 584.72 136.32 584.53 136.46 584.38 136.67 584.33 136.98 584.3 137.92 584.21 138.41 584.06 138.86 581.4 143.88 581.01 144.4 580.16 145.33 579.57 146.2 579.34 146.65 578.58 148.8 578.48 149.35 578.24 152.35 578.28 152.87 578.95 154.94 578.88 155.26 578.58 156.09 578.54 156.67 578.64 157.35 578.75 157.8 578.96 158.14 582.87 160.16 583.55 160.8 584.06 161.76 584.41 162.79 584.85 163.54 586.04 165.14 586.36 165.74 587.01 167.34 588.08 169.3 588.37 170.39 588.75 170.78 589.81 171.01 591.46 170.74 593.88 169.84 594.73 169.76 595.76 169.88 596.69 170.34 598.85 171.82 599.91 172.33 600.49 172.69 601.9 173.8 602.47 174.42 606.03 180.34 608.43 182.56 610.36 182.92 610.92 182.95 611.47 182.92 611.78 182.73 612.08 182.45 612.53 182.15 612.97 182.19 613.36 182.56 613.58 182.96 613.44 184.9 613 185.89 612.74 186.24 612.26 186.78 611.61 187.29 610.5 187.91 609.4 188.35 608.46 188.62 602.86 189.64 602.28 189.89 601.62 190.26 600.33 191.25 599.83 191.76 599.39 192.37 599.39 193.52 599.19 193.93 599.13 194.29 599.28 194.68 599.47 195.02 599.41 195.28 597.84 196.3 595.17 198.76 595.24 199.41 595.63 199.74 596.34 199.84 597.46 199.26 598.83 198.85 599.42 200.07 599.79 200.62 599.7 201.16 599.43 201.62 598.38 202.73 597.98 203.1 597.7 203.3 597.41 203.45 597.2 203.61 586.8 214.48 586.36 215.62 586.18 216.82 586.25 217.7 586.54 219 586.62 220.36 586.59 220.73 584.02 223.89 583.69 224.49 583.52 224.92 583.47 225.84 581.55 225.26 581.05 225.16 577.41 224.97 577.04 224.93 577.03 224.93 577.63 223.98 578.03 223.02 577.56 222.2 577.73 221.12 578.36 219.26 578.46 218.43 579.95 213.58 580.95 211.78 581.06 211.47 581.53 210.45 581.7 209.34 582.71 206.57 583.26 205.76 584.68 204.3 585.09 203.45 585.15 202.31 584.85 200.18 584.21 198.53 584.05 198.26 583.01 198.32 582.47 198.28 582.09 198.09 581.51 197.21 580.6 194.66 580 193.73 579.72 193.15 579.63 192.47 579.67 189.7 579.35 187.49 579.33 186.87 579.62 185.83 579.7 185.18 579.48 184.9 579.4 184.7 578.8 183.89 578.65 183.76 578.58 183.44 578.44 183.2 578.33 182.87 578.36 182.3 578.6 181.78 578.91 181.37 579.02 180.94 578.65 180.36 579.38 179.58 580.14 179.36 580.72 179.02 580.95 177.9 581.31 177.37 582.1 177.01 582.88 176.49 583.23 175.46 580.41 177.06 580.1 177.29 579.98 177.71 579.95 178.55 579.6 178.7 578.06 178.8 577.71 179.2 577.63 179.57 577.22 180.73 576.82 182.63 576.75 184.01 577.04 185.39 578.49 187.9 578.6 189.35 577.86 198.61 577.35 200.54 577.02 201.06 575.72 202.51 575.26 202.81 574.49 203.04 572.84 203.99 572.16 204.14 571.68 203.9 571.4 203.26 571.02 203.13 570.01 203.25 569.67 203.13 569.06 202.67 568.81 201.88 569.44 201.14 570.86 200.18 571.29 199.19 571.51 198.47 572 198.05 573.28 197.91 573.58 198.11 573.87 198.51 574.23 198.88 574.76 198.91 575.21 198.64 575.43 198.24 575.39 197.75 575.11 197.23 574.9 198.23 574.25 198.02 573.13 196.93 572.09 197.05 571.14 197.54 570.45 197.75 570.18 197.09 570.38 196.04 571.28 194.01 571.48 192.87 571.66 192.28 572.09 192.05 572.63 191.94 573.13 191.74 573.49 191.37 574.46 189.83 574.02 189.94 573.78 190.09 573.28 190.61 572.88 190.77 571.92 190.69 571.48 190.74 570.94 191.11 570.52 191.69 568.47 196.98 565.22 201.53 563.76 203.11 562.21 203.78 561.86 204.41 561.5 204.85 561.06 205.11 560.61 205.1 560.36 204.91 560.18 204.62 559.94 204.3 559.25 203.99 558.79 204.34 558.62 205.13 558.79 206.09 558.97 206.22 560.27 207.54 560.43 207.94 560.47 208.48 560.41 209.51 559.94 209.94 558.85 209.79 556.84 209.01 554.84 207.3 554.13 206.91 553.52 206.3 553.24 206.09 552.94 206 552.1 205.88 551.65 205.76 549.84 204.6 546.28 200.41 549.71 197.13 552.55 195.03 556.63 194.04 558.94 192.71 561.05 189.47 561.81 184.66 561.94 180.46 560.08 177.63 558.37 176.05 555.56 174.34 551.81 173.43 549.34 171.95 547.99 169.73 547.55 167.65 549.52 167.7 550.9 167.56 551.28 167.41 551.49 167.16 551.58 166.82 551.69 166.52 551.74 166.15 551.75 165.74 551.85 165.22 552.21 164.69 552.63 164.23 552.98 163.71 553.25 163.15 553.6 162.72 554.18 162.28 554.64 162.04 555.32 161.78 555.61 161.52 556.07 160.68 556.43 160.35 556.82 160.18 557.18 160.37 557.53 160.65 557.83 160.84 558.13 160.77 558.41 160.45 559.04 160.1 560.91 160.24 561.57 160.04 561.8 159.56 561.32 158.17 561.25 157.72 561.29 157.35 561.34 157.1 561.22 156.93 560.92 156.83 560.42 156.73 559.97 156.48 559.35 155.97 558.84 155.38 558.59 154.99 558.62 154.66 561.53 154.27 563.14 153.19 563.38 152.77 563.35 152.44 562.82 151.62 562.61 151.12 562.5 150.53 562.51 149.98 562.73 148.71 562.96 148.18 563.25 147.79 563.47 147.66 563.78 147.57 564.52 147.1 565.59 146.79 565.86 146.59 565.94 146.29 565.76 145.18 565.85 144.23 566.17 143.55 566.7 143.13 567.74 142.68 569.62 141.19 570.02 140.6 570.98 138.01 571.36 136.55 571.79 135.6 572.1 134.5 572.41 133.8 572.86 133.31 573.16 133.13 573.33 133.23 573.29 133.58 573.18 134 573.26 134.25 573.52 134.32 574.28 134.29 574.64 134.35 575.05 134.47 575.94 134.23 576.63 133.84 579.07 131.87 579.62 131.23 580.41 129.96 581.04 129.28 581.41 128.77 581.65 128.32 581.76 127.95 581.82 127.61 581.79 127.27 581.85 126.87 582.09 126.61 582.81 126.14 583.06 125.71 583.26 125.1 583.48 124.58 585.28 122.03 585.77 121.6 586.34 121.3 587.11 121.06 590.17 120.56 591.73 120.14 593.4 119.94 594.15 119.95 594.76 120.32 595.04 121.04 594.82 122.58 594.06 124.67 594.05 125.13 594.22 125.47 594.3 125.75 594 126.14 593.63 126.37 593.23 126.67 592.92 127.04 592.68 127.57 592.56 127.96 592.26 129.59 592.01 130.08 591.68 130.42 591.29 130.59 590.85 130.65 590.41 130.79 590.1 131.06 589.93 131.36 589.41 131.92 588.96 132.63 588.65 132.9 587.9 132.98 587.59 133.11 587.41 133.42 587.3 134 587.17 134.36 Z" fill-rule="evenodd" id="ECU-1280" data-name="Guayas"/>
<path d="M 615.5 106.37 614.99 108.5 611.73 116.21 611.04 117.48 610.72 117.86 610.33 118.13 609.92 118.34 609.46 118.7 609.09 119.12 607.81 121.5 607.28 121.98 606.7 122.4 606.24 122.89 605.81 123.59 605.19 125.25 605.05 126.1 605.02 126.94 605.13 127.78 604.41 131.12 604.29 132.3 604.27 133.43 604.72 134.14 605.95 135.78 606.28 137.31 604.04 138.38 603.15 139.57 602.02 141.39 601.28 142.21 601.16 142.8 601.31 143.09 601.66 143.17 602.05 142.99 602.4 142.68 603 141.77 603.31 141.52 603.59 141.52 603.94 141.73 604.37 142.59 605.74 143.58 605.79 143.82 605.64 144.08 605.39 144.29 605.14 144.42 604.89 144.39 604.69 144.45 604.46 144.76 604.37 145.25 604.3 148.92 604.48 149.93 604.9 150.75 605.56 151.41 607.06 152.38 607.49 152.8 607.74 153.39 607.66 154.02 607.43 154.69 607.22 155.13 606.96 155.53 606.75 155.69 606.54 155.7 606.25 155.52 606.01 155.44 605.72 155.5 604.41 157 604.05 157.3 603.66 157.54 603.43 157.72 603.28 158.03 603.45 158.24 603.73 158.36 604.08 158.43 604.34 158.56 604.53 158.83 604.76 158.92 605.08 158.9 605.4 159.04 605.77 159.52 606.28 160.58 607.72 162.68 607.79 163.07 607.58 164.02 607.64 164.52 607.81 165.13 608.17 165.77 608.5 166.26 608.72 166.8 608.59 167.47 608.14 168.41 607.34 171.56 607.12 171.82 606.55 172.2 606.34 172.6 606.4 173.03 607.91 175.01 609.55 177.65 609.86 178.31 609.87 178.7 609.53 179.48 609.17 181.09 608.43 182.56 606.03 180.34 602.47 174.42 601.9 173.8 600.49 172.69 599.91 172.33 598.85 171.82 596.69 170.34 595.76 169.88 594.73 169.76 593.88 169.84 591.46 170.74 589.81 171.01 588.75 170.78 588.37 170.39 588.08 169.3 587.01 167.34 586.36 165.74 586.04 165.14 584.85 163.54 584.41 162.79 584.06 161.76 583.55 160.8 582.87 160.16 578.96 158.14 578.75 157.8 578.64 157.35 578.54 156.67 578.58 156.09 578.88 155.26 578.95 154.94 578.28 152.87 578.24 152.35 578.48 149.35 578.58 148.8 579.34 146.65 579.57 146.2 580.16 145.33 581.01 144.4 581.4 143.88 584.06 138.86 584.21 138.41 584.3 137.92 584.33 136.98 584.38 136.67 584.53 136.46 584.72 136.32 584.92 136.24 585.45 136.13 585.68 136.02 585.87 135.82 585.96 135.27 586.02 135.03 586.19 134.9 586.4 134.88 586.72 134.8 586.99 134.65 587.17 134.36 587.3 134 587.41 133.42 587.59 133.11 587.9 132.98 588.65 132.9 588.96 132.63 589.41 131.92 589.93 131.36 590.1 131.06 590.41 130.79 590.85 130.65 591.29 130.59 591.68 130.42 592.01 130.08 592.26 129.59 592.56 127.96 592.68 127.57 592.92 127.04 593.23 126.67 593.63 126.37 594 126.14 594.3 125.75 594.22 125.47 594.05 125.13 594.06 124.67 594.82 122.58 595.04 121.04 594.76 120.32 594.15 119.95 593.4 119.94 591.73 120.14 590.17 120.56 591.09 118.61 591.74 115.33 592.11 114.51 592.59 113.96 593.03 113.69 593.51 113.58 594 113.26 594.14 112.99 594.71 111.32 595.78 109.19 596.17 108.19 596.81 105.98 598.21 106.05 599.25 106.19 601.85 106.08 602.9 106.26 603.37 106.48 603.17 106.77 602.88 107.12 602.64 107.57 602.75 108.23 603 109.01 603.12 109.71 602.94 110.27 602.62 110.9 602.48 111.31 602.59 111.77 602.72 112.17 602.95 112.58 603.43 112.89 603.99 113.13 604.59 113.22 605.21 113.21 605.85 113.03 606.33 112.69 606.84 112.1 607.48 111.5 608.09 111.06 609.34 110.41 609.86 110.05 613.37 106.54 614.14 106.13 614.64 106.08 615.5 106.37 Z" id="ECU-1281" data-name="Los Rios"/>
<path d="M 591.31 80.78 590.94 81.2 590.83 81.53 590.75 82.07 590.94 83.03 591.16 83.54 591.59 83.87 591.93 83.98 592.2 84.09 592.61 84.47 593.21 84.85 593.56 85.19 594.79 86.68 596.01 87.83 596.33 87.98 598 88.48 598.32 88.54 599.09 88.49 599.42 88.5 599.83 88.64 600.07 89.07 599.99 89.87 600.28 98.36 600.12 99.07 599.82 99.77 598.28 102.11 598.22 103.19 598.13 103.58 597.58 104.97 596.81 105.98 596.17 108.19 595.78 109.19 594.71 111.32 594.14 112.99 594 113.26 593.51 113.58 593.03 113.69 592.59 113.96 592.11 114.51 591.74 115.33 591.09 118.61 590.17 120.56 587.11 121.06 586.34 121.3 585.77 121.6 585.28 122.03 583.48 124.58 583.26 125.1 583.06 125.71 582.81 126.14 582.09 126.61 581.85 126.87 581.79 127.27 581.82 127.61 581.76 127.95 581.65 128.32 581.41 128.77 581.04 129.28 580.41 129.96 579.62 131.23 579.07 131.87 576.63 133.84 575.94 134.23 575.05 134.47 574.64 134.35 574.28 134.29 573.52 134.32 573.26 134.25 573.18 134 573.29 133.58 573.33 133.23 573.16 133.13 572.86 133.31 572.41 133.8 572.1 134.5 571.79 135.6 571.36 136.55 570.98 138.01 570.02 140.6 569.62 141.19 567.74 142.68 566.7 143.13 566.17 143.55 565.85 144.23 565.76 145.18 565.94 146.29 565.86 146.59 565.59 146.79 564.52 147.1 563.78 147.57 563.47 147.66 563.25 147.79 562.96 148.18 562.73 148.71 562.51 149.98 562.5 150.53 562.61 151.12 562.82 151.62 563.35 152.44 563.38 152.77 563.14 153.19 561.53 154.27 558.62 154.66 558.59 154.99 558.84 155.38 559.35 155.97 559.97 156.48 560.42 156.73 560.92 156.83 561.22 156.93 561.34 157.1 561.29 157.35 561.25 157.72 561.32 158.17 561.8 159.56 561.57 160.04 560.91 160.24 559.04 160.1 558.41 160.45 558.13 160.77 557.83 160.84 557.53 160.65 557.18 160.37 556.82 160.18 556.43 160.35 556.07 160.68 555.61 161.52 555.32 161.78 554.64 162.04 554.18 162.28 553.6 162.72 553.25 163.15 552.98 163.71 552.63 164.23 552.21 164.69 551.85 165.22 551.75 165.74 551.74 166.15 551.69 166.52 551.58 166.82 551.49 167.16 551.28 167.41 550.9 167.56 549.52 167.7 547.55 167.65 546.54 167.41 545.8 167.05 545.39 166.52 545.28 166.07 545.32 165.62 545.44 165.19 545.58 164.79 546.14 163.92 546.22 163.65 546.42 162.26 546.35 161.83 546.14 161.47 545.52 160.87 545.44 160.59 545.47 160.26 545.56 159.82 545.28 159.4 544.63 159.04 543.24 158.84 542.37 158.86 540.71 159.43 539.79 159.61 536.38 159.44 535.71 159.65 535.37 159.7 534.47 159.59 533.19 159.86 533.18 159.86 532.35 157.8 531.69 156.95 531.48 156.34 531.41 155.65 531.6 155.11 533.26 153.93 533.06 152.82 533.07 151.45 533.5 151.05 534.07 150.54 534.65 150.39 535.43 150.39 535.64 149.78 535.61 149.1 535.72 148.17 535.96 147.35 535.75 146.26 535.95 145.58 536.77 145.18 536.7 144.02 535.28 142.06 532.45 138.67 530.14 134.61 529.14 132.18 528.52 130.79 528.84 129.81 529.41 129.24 530.08 128.67 530.7 128.01 531.06 127.54 531.42 127.08 532.03 126.41 532.6 125.74 532.76 125.33 533.27 125.12 533.94 125.33 534.61 125.33 535.28 124.92 535.89 124.66 536.61 124.81 537.18 124.61 537.74 124.4 537.64 124.82 538.52 125.23 539.24 125.28 539.8 124.79 540.16 124.63 540.52 124.17 541.03 124.02 541.5 124.69 541.91 124.79 542.78 124.89 543.96 124.43 544.99 123.5 546.07 122.37 546.75 119.42 546.93 118.49 547.55 115.41 548.43 113.05 549.5 110.9 550.1 109.51 550.33 109.25 550.74 108.95 551.4 108.84 552.02 108.64 552.12 109.87 552.79 110.85 554.07 111.41 555.31 111.56 557.87 111.62 557.87 111.05 556.54 110.69 555.1 110.38 554.13 110.38 553.46 109.87 552.94 108.54 552.33 107.41 551.66 107.15 551.3 106.64 551.25 105.51 550.74 104.17 550.59 102.8 549.92 101.3 549.04 100.27 548.48 98.26 548.99 97.59 549.97 97.5 551.51 96.26 553 94.01 553.48 93.18 553.6 92.53 554.02 91.5 554.43 90.73 555.46 90.37 556.08 89.39 556.69 88.37 557.57 89.13 558.59 88.62 559.72 87.75 561.06 86.77 563.89 83.69 566.15 80.78 566.95 79.8 567.29 78.85 567.39 78.27 567.62 78.07 567.93 77.96 568.92 77.65 569.64 75.85 570.05 74.26 570.33 71.77 570.26 70.62 569.89 68.6 569.78 65 570.21 63.74 570.23 63.33 570.35 63.15 570.86 63.4 571.08 63.64 571.26 63.99 571.48 64.7 571.83 64.7 571.91 64.11 572.11 63.72 572.11 63.73 573.32 66.62 573.93 67.48 574.25 67.63 574.6 67.74 574.94 67.78 575.25 67.79 575.44 67.76 575.6 67.69 575.91 67.44 576.08 67.27 576.3 67.09 576.46 66.91 576.59 66.73 576.75 66.31 577.01 65.77 577.12 65.25 577.16 65.13 577.23 65.04 577.33 64.98 577.46 64.94 577.61 64.93 579.22 64.99 580.02 64.95 580.9 64.79 581.52 64.56 581.8 64.41 582.31 64.04 583.31 62.97 583.55 62.77 583.84 62.57 584.39 62.35 584.74 62.29 585.04 62.3 585.3 62.4 585.51 62.5 585.99 62.88 586.37 63.28 586.47 63.42 586.53 63.54 586.56 63.63 586.56 63.72 586.54 63.81 586.48 63.89 586 64.4 585.81 64.68 585.73 64.83 585.67 64.99 585.64 65.16 585.63 65.34 585.69 65.54 585.76 65.69 585.89 65.87 586.04 66.03 588.3 67.38 588.48 67.57 588.59 67.69 588.62 67.81 588.61 67.91 588.56 68.03 588.45 68.19 588.16 68.49 587.83 68.72 587.59 68.96 587.34 69.29 587.14 69.64 586.24 70.92 586.18 71.04 586.25 71.22 586.42 71.43 586.93 71.88 587.2 72.03 587.43 72.07 587.58 72.01 587.69 71.94 587.87 71.84 588.02 71.79 588.27 71.77 588.4 71.87 588.49 72.04 588.57 72.83 588.64 73.1 588.73 73.21 588.84 73.24 588.97 73.23 589.11 73.15 589.49 72.88 589.77 72.77 589.96 72.81 590.17 72.98 590.49 73.35 591.4 74.21 591.77 74.36 592.07 74.44 592.39 74.46 592.54 74.52 592.63 74.59 592.64 74.67 592.62 74.75 591.36 76.1 591.24 76.3 591.17 76.5 591.14 76.82 591.09 77.05 591.05 77.14 591 77.23 590.94 77.28 590.86 77.32 590.66 77.39 590.56 77.43 590.47 77.52 590.38 77.65 590.29 77.8 590.23 77.97 590.2 78.13 590.23 78.29 590.4 78.73 590.42 78.89 590.4 79.28 590.51 79.52 591.31 80.78 Z" id="ECU-1282" data-name="Manabi"/>
<path d="M 650.37 152.7 649.91 153.43 649.8 153.82 649.81 154.48 650.26 155.81 650.34 156.29 650.26 156.81 650.08 157.23 649.71 157.66 649.27 158 648.15 158.65 647.72 159 647.37 159.41 647 159.94 646.68 160.26 646.43 160.54 646.12 160.81 645.89 161.24 645.77 161.78 645.77 162.8 645.86 163.6 646.02 164.37 646.25 164.8 646.49 165.08 646.75 165.33 646.93 165.72 647.07 166.85 647.41 168.3 647.28 168.92 645.37 171.02 644.09 173.04 643.9 173.55 643.92 174.13 644.09 174.5 644.44 174.87 644.81 175.1 645.15 175.55 645.34 176.14 645.31 177.3 645.51 177.89 645.98 178.8 645.84 179.16 645.24 179.6 644.52 179.91 643.84 180.5 643.37 181.26 643.07 182.59 643.21 184.45 643.33 184.69 643.51 184.94 643.5 185.23 643.25 185.6 642.43 186.2 641.97 186.65 641.76 187.31 641.77 187.81 641.53 188.42 641.28 188.86 639.6 190.03 638.7 189.6 632.69 190.3 630.94 190.72 629.71 191.14 628.64 192.24 627.83 192.91 626.17 193.76 624.67 194.11 623.32 194.26 622.24 194.11 621.63 193.84 620.69 193.19 619.69 192.79 618.99 192.3 618.28 191.63 616.76 189.5 616.33 189.14 615.87 188.86 615.58 188.63 615.34 188.27 615.09 187.55 614.89 187.36 614.65 187.21 614.33 187.06 614.08 186.87 613.77 186.44 613.62 186.15 613.44 184.9 616 183.55 617.7 181.84 618.62 180.49 618.85 179.92 618.93 179.42 618.85 178.92 618.61 178.48 618.46 178.05 618.41 177.45 619.65 171.34 619.64 170.82 619.34 169.8 619.21 168.28 619.4 166.16 619.39 165.31 619.55 164.85 619.78 164.47 620.22 164.12 620.81 163.83 622.49 163.61 623.16 163.43 624.82 161.94 625.8 160.48 626.3 159.24 626.47 157.97 626.38 156.39 626.43 155.28 626.62 154.15 626.63 153.39 626.39 152.76 625.63 151.56 625.37 150.94 625.28 150.51 625.3 149.51 626.33 149.19 627.84 148.19 628.5 147.91 629.14 147.85 629.75 148.04 630.43 148.35 631.85 149.38 632.81 149.94 633.96 150.41 636.47 150.94 637.71 150.96 638.87 150.78 639.68 150.52 640.58 150.39 641.33 150.49 642.12 150.68 642.67 150.5 643.1 149.98 643.39 149.19 643.82 148.69 644.35 148.62 644.97 148.91 646.12 149.66 646.73 149.94 647.6 150.19 648.16 150.42 648.67 150.72 649.29 150.94 649.63 151.12 649.83 151.33 649.99 152.19 650.37 152.7 Z" id="ECU-1284" data-name="Chimborazo"/>
<path d="M 730.42 202.06 729.71 202.49 725.33 204.02 719.35 206.12 713.38 208.2 707.39 210.29 701.42 212.39 695.44 214.47 689.46 216.57 683.48 218.66 677.5 220.74 676.19 221.2 674.35 221.84 673.46 222.3 669.96 225.36 665.15 231.8 662.85 233.7 662.18 234.43 660.71 237.25 660.13 238.09 658.4 239.38 657.83 240.06 657.83 241.1 658.38 241.96 659.13 242.49 659.72 243.18 659.83 244.48 659.39 245.46 658.66 245.77 657.81 245.95 657.06 246.56 656.41 246.87 655.96 246.01 655.3 242.95 654.94 242.24 654.35 241.76 652.29 241.19 651.29 241.05 650.49 241.29 649.97 242.19 650.02 242.49 650.31 243.43 650.28 243.95 649.92 246 649.3 247.93 649.27 247.93 643.35 247.91 639.85 248.53 638.9 248.54 637.05 248.34 636.49 248.41 636.05 248.54 635.8 248.72 635.63 248.92 635.16 249.82 634.94 250.1 634.63 250.31 634.32 250.28 633.47 249.89 632.98 249.73 631.37 249.51 629.4 248.98 628.08 248.77 627.55 248.52 627.29 248.23 627.24 247.9 627.12 247.62 626.91 247.34 626.53 247 626.28 246.7 626.09 246.41 625.98 246.08 625.9 245.65 625.82 244.79 625.64 244.14 625.6 243.81 625.66 243.51 625.84 243.2 626.08 242.93 626.59 242.45 626.82 242.2 626.94 241.91 626.93 241.61 626.79 241.27 626.48 240.91 622.53 238.11 622.3 237.26 622.39 236.91 622.6 236.45 628.45 231.77 629.42 230.83 631.2 230.25 632.82 229.37 634 228.43 635.24 227.08 635.7 226.24 635.88 225.38 635.79 224.67 635.79 223.92 635.98 223.17 637.12 220.79 637.24 220.29 637.54 219.51 639.79 215.8 640.08 215.12 640.06 214.67 639.88 214.21 639.54 213.73 639.13 213.3 638.85 212.91 638.71 212.59 638.77 212.26 640.24 209.49 640.66 208.98 641.14 208.59 646.41 205.9 646.93 205.44 647.14 205.03 647.14 204.63 647.02 204.24 646.83 203.82 646.51 203.48 645.02 202.36 644.73 202.24 644.32 202.23 643.85 202.37 643.41 202.62 642.91 203.04 642.63 203.56 642.45 204.06 642.35 204.58 642.15 204.83 641.82 204.88 641.37 204.68 641.01 204.34 640.83 203.85 640.77 203.4 641.07 201.99 641.41 202.17 641.54 202.18 641.71 202.17 641.87 202.08 642.07 201.95 642.56 201.35 643.7 199.62 643.86 199.27 643.93 198.87 643.93 198.31 643.98 197.87 644.16 196.99 644.11 194.29 644.19 193.76 644.29 193.32 643.98 192.78 643.28 192.25 640.3 190.94 639.67 190.56 639.6 190.03 641.28 188.86 641.53 188.42 641.77 187.81 641.76 187.31 641.97 186.65 642.43 186.2 643.25 185.6 643.5 185.23 643.51 184.94 643.33 184.69 643.21 184.45 643.07 182.59 643.37 181.26 643.84 180.5 644.52 179.91 645.24 179.6 645.84 179.16 645.98 178.8 645.51 177.89 645.31 177.3 645.34 176.14 645.15 175.55 644.81 175.1 644.44 174.87 644.09 174.5 643.92 174.13 643.9 173.55 644.09 173.04 645.37 171.02 647.28 168.92 647.41 168.3 647.07 166.85 646.93 165.72 646.75 165.33 646.49 165.08 646.25 164.8 646.02 164.37 645.86 163.6 645.77 162.8 645.77 161.78 645.89 161.24 646.12 160.81 646.43 160.54 646.68 160.26 647 159.94 647.37 159.41 647.72 159 648.15 158.65 649.27 158 649.71 157.66 650.08 157.23 650.26 156.81 650.34 156.29 650.26 155.81 649.81 154.48 649.8 153.82 649.91 153.43 650.37 152.7 651.18 151.63 651.69 151.25 652.6 150.71 653.28 150.59 654.88 150.84 656.1 150.79 656.78 150.6 657.58 150.24 658.01 149.88 658.97 148.93 661.03 149.37 662.16 150.29 662.86 151 663.44 151.74 663.85 152.43 665.31 156.18 665.69 157.77 666.17 158.86 666.75 159.44 667.47 159.3 669.62 158.85 670.53 158.93 671.25 159.44 671.82 160.49 672.44 163.61 673.32 165 673.45 165.44 673.47 166.48 673.62 167.13 674.32 168.32 674.58 168.97 674.7 170.39 674.86 171.07 675.28 171.65 676.1 172.09 678.03 172.55 678.91 172.88 679.52 173.47 679.8 174.2 679.98 174.99 680.32 175.74 680.93 176.29 681.71 176.58 683.36 177.01 696.45 182.56 707.37 189.63 708.19 189.82 708.87 190.13 709.44 190.86 710.3 192.39 711.98 194.39 712.4 195.09 712.74 195.34 713.07 195.67 713.22 196.11 713.32 196.29 713.9 197.91 715.05 199.28 716.66 200.34 718.6 200.91 720.75 200.86 722.18 200.36 722.73 200.42 723.51 201.02 724.13 201.35 725.75 201.66 727.75 202.66 728.77 202.34 729.72 201.9 730.38 202.05 730.42 202.06 Z" id="ECU-1285" data-name="Morona Santiago"/>
<path d="M 797.13 110.69 797.13 110.69 796.55 110.98 796.04 111.32 795.83 111.89 795.88 112.35 796.08 113.23 796.11 113.71 796.01 114.2 795.7 115.05 795.68 115.65 797.79 122.82 797.81 123.25 797.73 124.07 797.82 124.51 798.19 125.05 798.64 125.45 798.99 125.92 799 126.24 798.58 126.27 796.33 126.27 794.31 126.51 793.23 126.49 792.76 126.1 792.48 125.63 791.83 124.88 790.48 123.64 790.19 124.06 789.59 126.41 788.16 132.01 786.73 137.62 785.31 143.22 783.88 148.82 783.18 151.57 782.56 153.22 782.19 153.67 782.18 153.64 781.67 152.72 781.46 151.69 781.17 151.27 780.83 151.08 780.46 151.05 779.93 150.88 779.63 150.6 779.33 150.45 779.06 150.43 778.8 150.14 777.37 149.62 776.93 149.52 776.7 149.35 776.57 149.14 776.49 148.91 776.38 148.86 776.19 149 775.99 149.21 775.69 149.34 775.51 149.2 775.38 148.83 774.91 148.21 774.54 147.46 774.42 147.35 774.26 146.95 774.04 146.78 773.46 146.81 772.77 146.62 772.07 146.56 771.86 146.45 771.68 146.23 771.47 146.07 771.1 145.88 770.78 145.83 770.48 145.84 770.2 145.93 770.09 145.86 770.1 145.72 770.01 145.43 769.67 144.67 769.34 144.5 768.19 144.19 767.95 143.98 767.92 143.73 768.02 143.5 768.04 143.29 767.86 143.25 767.67 143.31 767.32 143.32 767.22 143.44 767.18 143.62 767.25 143.87 767.22 144.07 767.03 144.19 766.73 144.24 766.28 144.17 765.42 144.15 764.63 144.06 764 143.7 763.69 143.38 763.45 143.25 762.84 143.27 762.62 143.06 762.4 142.78 762.03 142.42 761.48 142.25 760.89 142.16 760.38 141.88 760.09 141.77 759.92 141.81 759.78 141.93 759.58 141.99 759.48 141.84 759.47 141.63 759.5 141.35 759.4 141.07 759.24 140.81 759.09 140.75 758.96 140.83 758.83 141.02 758.56 141.1 758.08 141.06 757.22 140.66 756.74 140.67 756.51 140.72 756.45 140.87 756.34 140.94 756.26 140.87 756.2 140.7 756.11 140.64 755.99 140.67 755.79 140.81 755.31 141.26 755.19 141.43 755.02 141.58 754.86 141.61 754.55 141.57 754.35 141.57 754.05 141.6 753.9 141.5 753.68 141.29 753.39 141.3 752.56 141.41 752.18 141.21 751.95 141.17 751.68 141.23 751.44 141.41 751.18 141.54 750.97 141.47 750.85 141.3 750.74 141.1 750.6 141.09 750.45 141.26 750.31 141.49 750.1 141.66 749.9 141.59 749.71 141.61 749.62 141.66 749.52 141.77 749.2 141.97 749.05 142.14 748.94 142.33 748.75 142.47 748.67 142.43 748.64 142.07 748.48 141.95 748.08 141.82 747.37 141.71 746.18 141.4 745.48 141.29 745.22 141.14 745.27 140.97 745.37 140.79 745.31 140.63 745.11 140.35 745.01 140.16 744.8 140.13 744.53 140.14 744.16 140.13 743.84 139.97 743.54 139.71 743.28 139.7 742.99 139.79 742.66 139.93 742.08 140.05 741.62 139.95 741.14 140.03 740.94 139.91 740.92 139.73 740.96 139.53 740.93 139.38 740.8 139.44 740.6 139.57 740.22 139.63 739.97 139.47 739.68 139.11 739.62 138.84 739.58 138.53 739.47 138.32 739.23 138.08 738.82 137.76 738.58 137.48 738.37 137.14 737.95 136.6 737.71 135.89 737.57 134.89 737.61 133 737.75 132.37 737.77 131.69 737.61 131.11 736.98 130.42 736.33 130.13 735.53 129.88 734.68 129.79 733.99 129.88 732.81 130.23 731.9 130.39 731.68 130.52 731.31 131.05 731.07 131.23 730.63 131.37 730.18 131.41 729.22 131.69 728.28 131.84 727.1 131.89 726.76 131.96 726.08 132.33 725.68 132.38 724.98 132.25 724.44 131.93 724.01 131.84 723.72 131.94 722.83 132.77 722.55 133.17 722.38 133.7 722.3 134.25 722.17 134.74 721.85 135.13 721 135.16 716.41 133.27 712.56 132.4 712.04 132.12 711.72 131.62 711.42 130.27 711.26 129.86 711.18 129.56 711.29 129.25 712.26 128.17 712.68 127.1 712.26 126.59 711.97 126.33 711.77 125.95 711.9 125.66 712.7 124.9 713.06 124.45 713 124.12 712.73 123.89 712.12 123.72 710.12 123.41 709.3 123.12 707.13 121.64 706.74 121.43 706.32 121.29 705.83 121.04 705.57 120.65 705.38 119.87 705.47 119.11 705.79 118.33 706.32 117.55 708.61 115.4 709.08 114.86 709.26 114.3 709.16 114.01 708.81 113.79 708.13 113.77 707.53 114.19 706.88 114.5 704.75 116.49 703.59 118.78 702.97 119.57 702.59 119.78 700.86 120.39 693.33 123.99 692.82 124.37 691.91 124.62 691.77 124.73 690.98 125.08 690.06 125.28 688.88 125.36 687.8 125.16 687.18 124.83 687.19 124.41 687.68 123.98 688.07 123.48 688.49 122.8 689.59 120.13 689.7 119.42 689.31 117.94 689.36 117.25 689.65 116.38 690 115.58 690.34 114.98 691.01 114.08 691.14 113.62 691.11 113 690.76 111.8 690.48 111.31 690.07 110.97 689.45 110.57 689.2 110.26 688.69 109.24 687.36 107.57 686.84 107.11 686.37 106.88 685.87 106.74 685.3 106.42 685.16 106.03 685.23 105.64 685.5 105.28 685.97 104.91 687.44 104.02 687.78 103.7 687.97 103.34 687.9 102.75 687.91 102.34 688.08 101.99 688.49 101.91 689.16 102.16 691.2 103.39 692.25 103.89 693.42 104.28 694.33 104.41 694.96 104.33 695.51 104.1 695.94 103.75 697.08 101.89 697.58 100.69 697.76 100.37 698 100.2 698.26 100.19 698.86 100.38 699.07 100.29 699.21 100.01 699.17 99.24 699.21 98.85 699.35 98.55 700.78 97.92 701.31 97.63 701.73 97.27 701.9 96.84 701.86 96.09 701.97 95.77 702.18 95.51 702.47 95.23 702.62 94.84 702.62 94.15 702.2 93.27 702.27 93.05 702.37 92.82 702.43 92.55 702.47 92.17 702.36 91.84 701.79 91 701.14 90.2 700.84 89.76 700.55 89.18 700.54 88.73 700.71 88.04 700.84 86.75 700.95 86.27 700.48 82.92 701.21 82.38 701.85 82.54 702.63 82.83 703.94 83.47 705.33 84.44 705.87 84.54 706.44 84.45 706.94 84.22 707.72 84.08 708.54 84.22 711.22 84.99 712.38 85.04 713.42 84.85 714.1 84.48 714.67 84.09 715.33 83.75 716.06 83.46 717.31 83.25 717.96 83.44 718.64 83.87 718.96 84.27 719.43 85.06 724.3 90.86 725.77 92.14 725.96 92.41 726.01 92.55 726.05 92.98 726.14 93.26 727.02 94.58 727.42 95.05 727.91 95.76 728.05 96.04 728.31 96.39 728.85 96.87 731.53 98.74 731.95 99.25 732.15 99.64 732.7 100.33 733.76 99.71 734.89 99.39 735.9 100.76 738.39 102.65 739.28 103.09 741.16 103.04 741.94 103.22 742.26 103.95 742.76 104.39 743.88 103.87 745.8 102.47 746.23 102.29 747.78 101.82 748.75 101.34 749.22 101.2 752.89 100.85 757.37 101.14 757.6 101.37 757.87 101.91 758.1 102.51 758.29 103.66 758.55 103.98 759.5 104.42 761.44 105.83 762.53 106.44 763.6 106.69 764.7 106.76 765.25 106.84 765.5 106.71 765.59 106.51 765.5 106.29 765.28 105.96 765.04 105.39 764.59 101.49 764.6 100.74 764.75 100.24 765.32 99.94 766.12 99.76 767.64 99.79 768.5 100.01 769.18 100.37 769.75 100.76 770.27 100.89 770.67 100.86 771.16 100.68 771.57 100.6 772.71 100.6 773.26 100.51 773.73 100.34 774.23 100.22 774.59 100.31 775.03 100.59 775.27 100.89 775.68 101.57 775.98 101.91 776.54 102.2 777.12 102.17 777.79 102.01 778.24 101.83 778.69 101.76 779.16 101.96 779.7 102.3 780.73 102.76 781.29 103.07 781.6 103.35 781.69 103.63 781.82 103.9 782.01 103.92 782.49 103.67 782.66 103.79 782.76 104.05 782.84 104.53 782.98 104.86 783.16 105.17 783.46 105.47 784.02 105.92 785.54 106.38 785.96 106.38 786.27 106.32 788.43 106.37 788.97 106.58 789.47 106.88 789.88 107 790.64 107.02 790.88 107.19 791.06 107.57 791.18 108.03 791.35 108.46 791.61 108.74 791.97 108.84 792.43 108.91 793.16 109.27 794.81 109.74 795.38 109.73 795.76 109.65 796.03 109.53 796.2 109.64 796.25 109.78 796.16 110.35 796.25 110.62 796.39 110.73 797.08 110.69 797.13 110.69 Z" id="ECU-1286" data-name="Orellana"/>
<path d="M 619.12 67.42 619.92 69.25 620.37 69.57 621.08 69.87 621.93 70.09 622.61 70.06 623.21 69.92 624.22 69.79 626.09 69.2 630.18 68.75 631.32 68.87 636.16 69.88 637.17 69.91 637.76 69.8 638.3 69.62 640.8 69.34 641.81 69.05 642.47 69.09 644.96 68.61 647.49 68.46 648.79 68.61 649.58 68.91 649.87 69.3 650.02 69.78 650.1 70.35 650.05 70.8 649.78 71.63 649.72 71.97 649.8 72.21 650.08 72.12 650.92 71.32 651.45 71.09 651.94 71.17 652.47 71.54 653.47 72.43 654.21 72.96 655.05 73.37 656.39 73.8 657.56 73.73 658.85 73.44 660.96 72.47 661.8 71.96 662.87 71.07 663.48 70.73 664.3 70.76 669.77 72.46 668.58 74.44 668.56 74.5 668.56 74.58 668.58 74.65 668.68 74.73 668.84 74.8 669.41 74.96 669.93 75.18 670.01 75.2 670.08 75.2 670.31 75.13 670.4 75.14 671.65 75.8 672.33 76.04 672.53 76.07 672.73 76.11 672.95 76.2 673.64 76.61 673.88 76.83 674.04 77.09 674.17 77.51 674.25 78.04 674.27 78.14 674.31 78.23 674.53 78.42 675.13 78.61 674.53 79.67 673.97 80.07 670.58 81.81 668.86 82.4 668.52 82.72 668.36 83.16 668.25 84.39 668.11 84.91 667.89 85.14 667.59 85.27 667.34 85.53 666.81 86.41 666.55 86.6 666.1 86.62 665.08 86.36 664.65 86.35 664.47 86.44 664.32 86.81 664.21 87.3 663.65 88.23 663.22 88.64 662.65 88.9 662.29 88.91 662.01 88.79 661.51 88.32 661.14 88.19 660.77 88.19 659.66 88.52 659.24 88.6 658.74 88.73 658.46 89.06 658.33 89.43 658.41 89.94 658.26 94.23 657.94 95.34 657.34 96.46 656.02 98.25 655.49 99.15 655.27 99.85 655.94 101.15 655.88 101.66 655.63 102.27 655.05 103.25 654.82 103.78 654.72 104.27 654.77 104.78 654.7 105.4 654.25 106.35 653.7 107.08 652.84 107.97 652.39 108.59 652.11 109.22 651.94 110.5 651.76 111.18 651.5 111.53 651.1 111.78 649.87 112.01 649.3 112.17 648.31 112.67 645.2 109.39 643.88 108.87 643.26 108.94 642.11 108.75 641.41 108.75 640.91 108.82 639.67 109.52 639.13 109.69 638.83 109.55 638.59 109.26 638.24 108.91 637.79 108.98 637.21 109.26 636.71 109.65 636.38 109.85 636.04 109.99 635.67 110.08 635.24 110.3 634 111.19 633.53 111.31 633.22 111.16 632.91 110.74 632.74 110.23 632.65 109.47 632.21 108.46 631.42 107.34 628.36 105.2 627.74 104.65 627.53 104.13 627.25 102.95 627.08 102.55 626.52 101.69 625.82 100.35 624.05 98.05 623.91 97.75 623.9 97.15 623.76 96.9 623.36 96.54 624.8 94.28 630.83 93.68 631.73 90.36 629.32 87.65 624.8 85.24 623.3 83.73 614.86 84.04 614.56 80.12 604.91 79.82 602.33 77.9 603.27 75.56 603.88 74.47 604.46 73.05 605.05 72.19 605.19 71.89 605.18 71.62 605.03 71.31 604.7 70.95 604.26 70.56 603.04 69.71 602.89 69.44 602.88 69.12 603.14 68.75 603.59 68.46 604.51 68.03 605.21 67.61 606.21 66.78 606.62 66.52 607.23 66.28 607.73 66.02 609.08 65.13 609.65 64.99 610.35 64.97 611.46 65.06 612.73 65.03 617.72 66.11 618.11 66.32 618.35 66.5 619.12 67.42 Z" id="ECU-1287" data-name="Pichincha"/>
<path d="M 782.19 153.67 781.44 154.57 778.83 157 776.92 159.23 774.55 161.99 772.17 164.76 769.79 167.52 767.42 170.29 765.05 173.05 762.67 175.82 760.3 178.58 757.92 181.35 755.09 183.52 752.25 185.69 749.41 187.86 746.58 190.03 743.74 192.21 740.9 194.38 738.06 196.55 735.23 198.72 732.53 200.78 730.42 202.06 730.38 202.05 729.72 201.9 728.77 202.34 727.75 202.66 725.75 201.66 724.13 201.35 723.51 201.02 722.73 200.42 722.18 200.36 720.75 200.86 718.6 200.91 716.66 200.34 715.05 199.28 713.9 197.91 713.32 196.29 713.22 196.11 713.07 195.67 712.74 195.34 712.4 195.09 711.98 194.39 710.3 192.39 709.44 190.86 708.87 190.13 708.19 189.82 707.37 189.63 696.45 182.56 683.36 177.01 681.71 176.58 680.93 176.29 680.32 175.74 679.98 174.99 679.8 174.2 679.52 173.47 678.91 172.88 678.03 172.55 676.1 172.09 675.28 171.65 674.86 171.07 674.7 170.39 674.58 168.97 674.32 168.32 673.62 167.13 673.47 166.48 673.45 165.44 673.32 165 672.44 163.61 671.82 160.49 671.25 159.44 670.53 158.93 669.62 158.85 667.47 159.3 666.75 159.44 666.17 158.86 665.69 157.77 665.31 156.18 663.85 152.43 663.44 151.74 662.86 151 662.16 150.29 661.03 149.37 658.97 148.93 660.13 147.85 661.39 145.42 661.62 144.68 661.74 143.96 661.63 138.77 664.05 138.94 665.39 138.86 668.77 138.3 669.93 138.32 670.66 138.41 671.16 138.64 671.58 138.89 672.06 138.95 672.35 138.68 672.61 138.03 672.78 137.85 673.05 137.82 673.48 137.98 673.92 138.22 674.5 138.36 675.2 138.22 676.36 137.63 678.19 136.39 678.69 136.13 679.65 135.77 680.26 135.65 681.2 135.08 681.64 134.89 682.32 134.81 682.94 134.65 683.52 134.59 684.2 134.74 684.7 134.79 685.19 134.75 685.78 134.49 686.43 134.35 688.71 134.13 692.94 132.19 693.53 131.83 694.04 131.66 695.66 131.65 696.98 131.45 701.49 130.04 702.55 129.44 703.09 129.06 703.6 128.84 704.31 128.73 712.26 128.17 711.29 129.25 711.18 129.56 711.26 129.86 711.42 130.27 711.72 131.62 712.04 132.12 712.56 132.4 716.41 133.27 721 135.16 721.85 135.13 722.17 134.74 722.3 134.25 722.38 133.7 722.55 133.17 722.83 132.77 723.72 131.94 724.01 131.84 724.44 131.93 724.98 132.25 725.68 132.38 726.08 132.33 726.76 131.96 727.1 131.89 728.28 131.84 729.22 131.69 730.18 131.41 730.63 131.37 731.07 131.23 731.31 131.05 731.68 130.52 731.9 130.39 732.81 130.23 733.99 129.88 734.68 129.79 735.53 129.88 736.33 130.13 736.98 130.42 737.61 131.11 737.77 131.69 737.75 132.37 737.61 133 737.57 134.89 737.71 135.89 737.95 136.6 738.37 137.14 738.58 137.48 738.82 137.76 739.23 138.08 739.47 138.32 739.58 138.53 739.62 138.84 739.68 139.11 739.97 139.47 740.22 139.63 740.6 139.57 740.8 139.44 740.93 139.38 740.96 139.53 740.92 139.73 740.94 139.91 741.14 140.03 741.62 139.95 742.08 140.05 742.66 139.93 742.99 139.79 743.28 139.7 743.54 139.71 743.84 139.97 744.16 140.13 744.53 140.14 744.8 140.13 745.01 140.16 745.11 140.35 745.31 140.63 745.37 140.79 745.27 140.97 745.22 141.14 745.48 141.29 746.18 141.4 747.37 141.71 748.08 141.82 748.48 141.95 748.64 142.07 748.67 142.43 748.75 142.47 748.94 142.33 749.05 142.14 749.2 141.97 749.52 141.77 749.62 141.66 749.71 141.61 749.9 141.59 750.1 141.66 750.31 141.49 750.45 141.26 750.6 141.09 750.74 141.1 750.85 141.3 750.97 141.47 751.18 141.54 751.44 141.41 751.68 141.23 751.95 141.17 752.18 141.21 752.56 141.41 753.39 141.3 753.68 141.29 753.9 141.5 754.05 141.6 754.35 141.57 754.55 141.57 754.86 141.61 755.02 141.58 755.19 141.43 755.31 141.26 755.79 140.81 755.99 140.67 756.11 140.64 756.2 140.7 756.26 140.87 756.34 140.94 756.45 140.87 756.51 140.72 756.74 140.67 757.22 140.66 758.08 141.06 758.56 141.1 758.83 141.02 758.96 140.83 759.09 140.75 759.24 140.81 759.4 141.07 759.5 141.35 759.47 141.63 759.48 141.84 759.58 141.99 759.78 141.93 759.92 141.81 760.09 141.77 760.38 141.88 760.89 142.16 761.48 142.25 762.03 142.42 762.4 142.78 762.62 143.06 762.84 143.27 763.45 143.25 763.69 143.38 764 143.7 764.63 144.06 765.42 144.15 766.28 144.17 766.73 144.24 767.03 144.19 767.22 144.07 767.25 143.87 767.18 143.62 767.22 143.44 767.32 143.32 767.67 143.31 767.86 143.25 768.04 143.29 768.02 143.5 767.92 143.73 767.95 143.98 768.19 144.19 769.34 144.5 769.67 144.67 770.01 145.43 770.1 145.72 770.09 145.86 770.2 145.93 770.48 145.84 770.78 145.83 771.1 145.88 771.47 146.07 771.68 146.23 771.86 146.45 772.07 146.56 772.77 146.62 773.46 146.81 774.04 146.78 774.26 146.95 774.42 147.35 774.54 147.46 774.91 148.21 775.38 148.83 775.51 149.2 775.69 149.34 775.99 149.21 776.19 149 776.38 148.86 776.49 148.91 776.57 149.14 776.7 149.35 776.93 149.52 777.37 149.62 778.8 150.14 779.06 150.43 779.33 150.45 779.63 150.6 779.93 150.88 780.46 151.05 780.83 151.08 781.17 151.27 781.46 151.69 781.67 152.72 782.18 153.64 782.19 153.67 Z" id="ECU-1288" data-name="Pastaza"/>
<path d="M 661.63 138.77 661.74 143.96 661.62 144.68 661.39 145.42 660.13 147.85 658.97 148.93 658.01 149.88 657.58 150.24 656.78 150.6 656.1 150.79 654.88 150.84 653.28 150.59 652.6 150.71 651.69 151.25 651.18 151.63 650.37 152.7 649.99 152.19 649.83 151.33 649.63 151.12 649.29 150.94 648.67 150.72 648.16 150.42 647.6 150.19 646.73 149.94 646.12 149.66 644.97 148.91 644.35 148.62 643.82 148.69 643.39 149.19 643.1 149.98 642.67 150.5 642.12 150.68 641.33 150.49 640.58 150.39 639.68 150.52 638.87 150.78 637.71 150.96 636.47 150.94 633.96 150.41 632.81 149.94 631.85 149.38 630.43 148.35 629.75 148.04 629.14 147.85 628.5 147.91 627.84 148.19 626.33 149.19 625.3 149.51 624.92 148.86 624.38 148.24 623.25 146.56 623.07 145.89 623.61 143.5 623.9 142.63 624.56 141.25 624.76 140.47 624.85 138.66 624.97 138.04 625.99 136.15 627.35 135.62 628.63 134.51 629.8 134.14 630.71 133.94 631.53 133.93 633.78 134.41 634.97 134.45 635.73 134.26 636.51 133.88 637.65 132.98 638.13 132.81 639.38 132.73 639.83 132.56 640.17 132.28 640.35 131.92 640.35 131.29 640.38 130.99 640.87 130.57 641.35 130.45 641.84 130.5 642.19 130.62 642.53 130.83 642.79 131.11 643.19 131.39 643.76 131.59 644.93 131.5 645.52 131.23 645.96 130.75 646.52 129.79 646.51 128.95 646.56 128.45 646.72 127.98 647.02 127.52 647.2 127.11 648.56 125.94 649.58 127.58 650.78 128.99 651.21 129.83 651.4 130.52 651.38 132.76 651.31 133.43 651.2 133.92 650.78 134.75 650.61 135.28 650.77 135.49 651.07 135.49 652.73 134.49 653.29 134.34 653.94 134.33 654.97 134.56 655.35 134.61 656.16 134.4 656.64 134.33 656.87 134.5 657 134.78 657.13 135.22 657.35 135.32 657.86 135.24 658.16 135.24 658.33 135.48 658.81 136.43 659.55 136.67 661.14 136.9 661.48 137.22 661.63 137.62 661.63 138.77 Z" id="ECU-1289" data-name="Napo"/>
<path d="M 700.48 82.92 700.95 86.27 700.84 86.75 700.71 88.04 700.54 88.73 700.55 89.18 700.84 89.76 701.14 90.2 701.79 91 702.36 91.84 702.47 92.17 702.43 92.55 702.37 92.82 702.27 93.05 702.2 93.27 702.62 94.15 702.62 94.84 702.47 95.23 702.18 95.51 701.97 95.77 701.86 96.09 701.9 96.84 701.73 97.27 701.31 97.63 700.78 97.92 699.35 98.55 699.21 98.85 699.17 99.24 699.21 100.01 699.07 100.29 698.86 100.38 698.26 100.19 698 100.2 697.76 100.37 697.58 100.69 697.08 101.89 695.94 103.75 695.51 104.1 694.96 104.33 694.33 104.41 693.42 104.28 692.25 103.89 691.2 103.39 689.16 102.16 688.49 101.91 688.08 101.99 687.91 102.34 687.9 102.75 687.97 103.34 687.78 103.7 687.44 104.02 685.97 104.91 685.5 105.28 685.23 105.64 685.16 106.03 685.3 106.42 685.87 106.74 686.37 106.88 686.84 107.11 687.36 107.57 688.69 109.24 689.2 110.26 689.45 110.57 690.07 110.97 690.48 111.31 690.76 111.8 691.11 113 691.14 113.62 691.01 114.08 690.34 114.98 690 115.58 689.65 116.38 689.36 117.25 689.31 117.94 689.7 119.42 689.59 120.13 688.49 122.8 688.07 123.48 687.68 123.98 687.19 124.41 687.18 124.83 687.8 125.16 688.88 125.36 690.06 125.28 690.98 125.08 691.77 124.73 691.91 124.62 692.82 124.37 693.33 123.99 700.86 120.39 702.59 119.78 702.97 119.57 703.59 118.78 704.75 116.49 706.88 114.5 707.53 114.19 708.13 113.77 708.81 113.79 709.16 114.01 709.26 114.3 709.08 114.86 708.61 115.4 706.32 117.55 705.79 118.33 705.47 119.11 705.38 119.87 705.57 120.65 705.83 121.04 706.32 121.29 706.74 121.43 707.13 121.64 709.3 123.12 710.12 123.41 712.12 123.72 712.73 123.89 713 124.12 713.06 124.45 712.7 124.9 711.9 125.66 711.77 125.95 711.97 126.33 712.26 126.59 712.68 127.1 712.26 128.17 704.31 128.73 703.6 128.84 703.09 129.06 702.55 129.44 701.49 130.04 696.98 131.45 695.66 131.65 694.04 131.66 693.53 131.83 692.94 132.19 688.71 134.13 686.43 134.35 685.78 134.49 685.19 134.75 684.7 134.79 684.2 134.74 683.52 134.59 682.94 134.65 682.32 134.81 681.64 134.89 681.2 135.08 680.26 135.65 679.65 135.77 678.69 136.13 678.19 136.39 676.36 137.63 675.2 138.22 674.5 138.36 673.92 138.22 673.48 137.98 673.05 137.82 672.78 137.85 672.61 138.03 672.35 138.68 672.06 138.95 671.58 138.89 671.16 138.64 670.66 138.41 669.93 138.32 668.77 138.3 665.39 138.86 664.05 138.94 661.63 138.77 661.63 137.62 661.48 137.22 661.14 136.9 659.55 136.67 658.81 136.43 658.33 135.48 658.16 135.24 657.86 135.24 657.35 135.32 657.13 135.22 657 134.78 656.87 134.5 656.64 134.33 656.16 134.4 655.35 134.61 654.97 134.56 653.94 134.33 653.29 134.34 652.73 134.49 651.07 135.49 650.77 135.49 650.61 135.28 650.78 134.75 651.2 133.92 651.31 133.43 651.38 132.76 651.4 130.52 651.21 129.83 650.78 128.99 649.58 127.58 648.56 125.94 647.81 125.49 646.7 125.3 646.35 125.06 646.18 124.73 646.3 124.43 646.55 124.22 646.88 124 647.11 123.68 647.23 123.25 647.22 122.58 647.3 122.11 647.53 121.45 648.04 120.71 648.58 119.73 648.73 118.82 648.68 117.75 648.43 116.09 647.93 114.38 647.91 113.9 648.31 112.67 649.3 112.17 649.87 112.01 651.1 111.78 651.5 111.53 651.76 111.18 651.94 110.5 652.11 109.22 652.39 108.59 652.84 107.97 653.7 107.08 654.25 106.35 654.7 105.4 654.77 104.78 654.72 104.27 654.82 103.78 655.05 103.25 655.63 102.27 655.88 101.66 655.94 101.15 655.27 99.85 655.49 99.15 656.02 98.25 657.34 96.46 657.94 95.34 658.26 94.23 658.41 89.94 658.33 89.43 658.46 89.06 658.74 88.73 659.24 88.6 659.66 88.52 660.77 88.19 661.14 88.19 661.51 88.32 662.01 88.79 662.29 88.91 662.65 88.9 663.22 88.64 663.65 88.23 664.21 87.3 664.32 86.81 664.47 86.44 664.65 86.35 665.08 86.36 666.1 86.62 666.55 86.6 666.81 86.41 667.34 85.53 667.59 85.27 667.89 85.14 668.11 84.91 668.25 84.39 668.36 83.16 668.52 82.72 668.86 82.4 670.58 81.81 673.97 80.07 674.53 79.67 675.13 78.61 677.22 79.13 677.68 79.38 677.69 79.48 677.69 79.59 677.67 79.68 677.64 79.78 677.59 79.87 677.54 79.93 677.49 79.99 677.43 80.1 677.39 80.3 677.41 80.78 677.69 82.36 678.01 83.28 678.63 83.7 679.52 83.86 684.25 83.98 685.58 84.29 686.2 84.56 686.71 84.89 687.02 84.82 687.53 84.45 688.55 83.4 689.08 83.07 689.9 82.95 690.34 82.81 690.66 82.57 690.82 82.32 690.97 82.13 691.17 82.01 691.4 81.92 692.05 81.48 692.61 81.25 692.9 81.37 693.11 81.73 693.24 82.22 693.43 82.58 693.57 82.81 693.61 83 693.54 83.24 693.41 83.51 693.33 83.74 693.35 83.97 693.52 84.38 693.56 84.61 693.52 84.86 693.43 85.15 693.37 85.47 693.37 85.79 693.49 86.07 693.9 86.24 696.12 86.76 696.92 86.84 697.47 86.82 697.77 86.65 698.08 86.39 698.37 85.99 698.87 84.96 699.24 84.36 700.48 82.92 Z" id="ECU-1290" data-name="Tungurahua"/>
<path d="M 624.42 19.68 623.79 20.93 622.65 20.38 622.2 20.91 621.68 21.35 620.71 20.62 620 19.83 619.84 18.95 620.54 17.93 624.3 14.8 624.31 15.25 624.38 15.57 624.6 16.13 624.65 17.72 624.42 19.68 Z M 644.44 23.69 644.43 23.7 643.6 24.44 643.53 24.78 643.54 25.45 643.67 26.28 643.68 27.8 643.37 28.86 642.24 30.65 641.94 31.57 641.75 34.3 641.88 35.16 642.28 35.99 642.46 36.16 643.03 36.72 643.52 36.66 644.27 37.11 645.13 38.01 645.91 38.56 646.15 38.68 646.08 40.46 646.17 41.34 646.03 42.04 645.75 42.62 645.35 42.98 645.02 43.17 644.65 43.29 643.74 43.35 643.3 43.44 642.85 43.71 642.76 44 642.87 44.43 644.3 47.01 644.5 47.49 644.86 48.92 645.07 49.43 645.34 49.9 646.61 51.46 647 52.26 647.04 52.93 646.9 53.58 646.67 53.92 646.31 54.2 645.84 54.36 645.17 54.49 644.69 54.47 643.93 54.34 643.52 54.36 643.06 54.57 641.54 55.64 641.16 56.05 640.51 56.99 638.91 58.7 637.36 60.8 636.54 61.64 635.74 62.25 635.44 62.4 635.06 62.44 634.78 62.33 634.39 62.06 633.69 61.39 633.37 61.16 632.96 60.98 632.56 60.92 632.03 60.9 631.07 60.69 630.49 60.5 628.82 60.3 627.43 59.84 626.87 59.87 626.29 60.03 625.39 60.59 624.86 61.08 624.26 61.75 623.99 62.13 623.85 62.41 623.83 62.66 623.86 62.97 623.79 63.09 623.22 63.36 622.26 64.44 620.72 66.91 620.44 67.25 620.22 67.41 619.95 67.46 619.12 67.42 618.35 66.5 618.11 66.32 617.72 66.11 612.73 65.03 611.46 65.06 610.35 64.97 609.65 64.99 609.08 65.13 607.73 66.02 607.23 66.28 606.62 66.52 606.21 66.78 605.21 67.61 604.51 68.03 603.59 68.46 603.14 68.75 602.88 69.12 602.89 69.44 603.04 69.71 604.26 70.56 604.7 70.95 605.03 71.31 605.18 71.62 605.19 71.89 605.05 72.19 604.46 73.05 603.88 74.47 603.27 75.56 602.33 77.9 602.04 78.42 601.39 79.06 600.79 79.34 599.5 79.65 599.07 79.87 598.22 80.18 598.13 80.39 598.23 80.69 598.74 81.36 598.9 81.5 599.04 81.52 599.17 81.48 599.32 81.46 599.52 81.56 599.63 81.72 599.57 82.01 599.34 82.16 599.18 82.32 599.03 82.51 598.9 82.5 598.43 82.14 598.07 81.92 597.57 81.7 596.19 81.35 593.29 80.98 592.28 80.72 591.31 80.78 590.51 79.52 590.4 79.28 590.42 78.89 590.4 78.73 590.23 78.29 590.2 78.13 590.23 77.97 590.29 77.8 590.38 77.65 590.47 77.52 590.56 77.43 590.66 77.39 590.86 77.32 590.94 77.28 591 77.23 591.05 77.14 591.09 77.05 591.14 76.82 591.17 76.5 591.24 76.3 591.36 76.1 592.62 74.75 592.64 74.67 592.63 74.59 592.54 74.52 592.39 74.46 592.07 74.44 591.77 74.36 591.4 74.21 590.49 73.35 590.17 72.98 589.96 72.81 589.77 72.77 589.49 72.88 589.11 73.15 588.97 73.23 588.84 73.24 588.73 73.21 588.64 73.1 588.57 72.83 588.49 72.04 588.4 71.87 588.27 71.77 588.02 71.79 587.87 71.84 587.69 71.94 587.58 72.01 587.43 72.07 587.2 72.03 586.93 71.88 586.42 71.43 586.25 71.22 586.18 71.04 586.24 70.92 587.14 69.64 587.34 69.29 587.59 68.96 587.83 68.72 588.16 68.49 588.45 68.19 588.56 68.03 588.61 67.91 588.62 67.81 588.59 67.69 588.48 67.57 588.3 67.38 586.04 66.03 585.89 65.87 585.76 65.69 585.69 65.54 585.63 65.34 585.64 65.16 585.67 64.99 585.73 64.83 585.81 64.68 586 64.4 586.48 63.89 586.54 63.81 586.56 63.72 586.56 63.63 586.53 63.54 586.47 63.42 586.37 63.28 585.99 62.88 585.51 62.5 585.3 62.4 585.04 62.3 584.74 62.29 584.39 62.35 583.84 62.57 583.55 62.77 583.31 62.97 582.31 64.04 581.8 64.41 581.52 64.56 580.9 64.79 580.02 64.95 579.22 64.99 577.61 64.93 577.46 64.94 577.33 64.98 577.23 65.04 577.16 65.13 577.12 65.25 577.01 65.77 576.75 66.31 576.59 66.73 576.46 66.91 576.3 67.09 576.08 67.27 575.91 67.44 575.6 67.69 575.44 67.76 575.25 67.79 574.94 67.78 574.6 67.74 574.25 67.63 573.93 67.48 573.32 66.62 572.11 63.73 572.11 63.72 572.39 63.18 572.51 62.76 572.4 62.15 572.12 61.74 571.48 61.1 570.35 59.25 570.01 58.31 569.89 57.35 570.02 56.3 570.35 55.76 570.77 55.31 571.18 54.55 571.28 53.56 571.02 52.6 570.68 51.77 570.35 50.41 569.92 49.84 569.26 49.48 568.4 49.36 567.79 49.12 567.37 48.55 567.09 47.82 566.94 47.09 566.92 45.04 567.46 43.03 568.48 41.33 569.89 40.21 570.7 40.62 571.4 40.7 572.97 40.56 573.68 40.36 574.61 39.49 575.26 39.29 575.94 39.18 577.13 38.72 578.64 38.46 579.53 37.79 580.13 37.64 580.48 37.46 581.93 36.31 582.27 35.95 582.88 35.07 583.23 34.72 584.36 34.21 587.2 33.3 588.45 32.42 588.71 32.9 588.73 33.34 587.77 36.31 587.99 37.02 588.38 37.44 588.88 37.78 589.42 38.29 590.06 39.58 590.39 39.94 589.62 37.81 589 37.29 588.8 36.99 588.81 36.72 589.05 36.29 589.1 36.02 589.02 34.82 589.13 33.92 589.55 33.25 590.39 32.77 592.44 33.36 594.69 32.09 597.92 29.14 598.94 28.88 602.29 29.14 602.7 29.04 603.79 28.62 604.25 28.52 605.55 28.54 606.15 28.45 606.69 28.17 607.83 28.77 609.18 28.58 610.54 28.11 611.75 27.84 612.62 27.38 616.21 22.62 616.91 22.25 618.08 22.65 619.01 23.42 619.6 24.39 619.92 25.56 620.02 26.9 620.93 26.41 621.43 25.71 621.64 24.82 621.79 22.73 622.08 22.18 622.5 21.75 623.01 21.03 623.16 21.43 623.44 21.62 623.83 21.59 624.3 21.35 624.73 20.95 624.8 20.61 624.78 20.24 624.95 19.73 625.73 18.85 626.52 18.72 628.53 19.4 628.18 18.72 627.33 18.49 626.33 18.39 625.57 18.07 625.24 17.41 625.4 16.78 625.82 16.23 627.6 14.46 627.87 13.83 627.85 13.11 627.68 12.46 627.77 11.94 627.77 11.94 630.56 13.85 631.56 15.24 632.96 16.37 633.45 17.18 633.92 18.23 634.64 19.19 635.57 19.91 636.68 20.25 637.43 20.13 638.1 19.92 638.54 20.05 638.62 20.97 638.81 21.46 639.8 22.51 640.07 23.28 640.76 22.88 641.47 22.82 644.1 23.43 644.44 23.69 Z" fill-rule="evenodd" id="ECU-1335" data-name="Esmeraldas"/>
<path d="M 690.27 48.73 690.1 48.93 688.41 50.23 687.62 50.43 686.67 50.05 686.42 50 685.11 49.99 684.68 49.93 683.94 49.69 683.54 49.6 683.26 49.59 683.05 49.63 682.88 49.77 682.75 50 682.66 50.5 682.72 50.8 682.85 51.04 683.37 51.45 683.59 51.68 683.73 51.92 683.79 52.14 683.81 52.32 683.64 52.61 683.3 52.94 681.52 54.27 681.14 54.63 677.86 58.82 677.45 59.46 677.19 60.04 677.11 60.84 677.14 61.28 677.26 61.9 677.07 62.49 676.01 63.7 674.85 63.12 674.04 62.06 673.47 61.66 671.22 60.43 669.31 59.06 667.15 57.85 665.49 57.46 664.64 57.38 663.68 57.13 663.07 56.75 662.77 56.43 660.95 56.09 660.43 55.37 660.18 54.56 660.12 53.7 660.19 52.32 660.14 51.91 659.16 49.16 657.27 46.79 656.04 44.64 654.89 43.27 653.43 42.01 651.27 40.6 650.44 39.84 650.04 39.59 649.49 39.44 647.74 39.29 646.79 38.99 646.15 38.68 645.91 38.56 645.13 38.01 644.27 37.11 643.52 36.66 643.03 36.72 642.46 36.16 642.28 35.99 641.88 35.16 641.75 34.3 641.94 31.57 642.24 30.65 643.37 28.86 643.68 27.8 643.67 26.28 643.54 25.45 643.53 24.78 643.6 24.44 644.43 23.7 644.44 23.69 644.97 24.11 649.45 29.08 650.57 29.93 651.48 30.38 654.31 31.14 655.28 31.65 661.47 36.33 663.47 37.3 666.84 37.43 670.07 38.65 670.59 38.66 670.83 38.53 671.06 38.56 671.52 39.04 671.69 39.53 671.67 40.06 671.77 40.57 672.28 41 673.38 41.43 674.4 41.66 675.36 41.67 676.32 41.48 680.11 40.04 681.28 40.05 682.7 41.16 683.01 44.58 684.02 46.08 687.15 48.23 688.88 48.92 690.27 48.73 Z" id="ECU-1409" data-name="Carchi"/>
<path d="M 676.01 63.7 674.5 65.61 674.19 66.22 674.21 66.54 674.25 66.67 674.3 66.74 674.37 66.79 674.45 66.83 674.57 66.86 674.69 66.87 674.82 66.91 674.95 66.98 675.04 67.19 674.99 67.33 674.85 67.5 674.67 67.65 674.07 68.33 673.19 69.59 672.96 69.85 672.79 69.97 672.57 70.09 672.35 70.19 672.12 70.25 671.42 70.7 669.77 72.46 664.3 70.76 663.48 70.73 662.87 71.07 661.8 71.96 660.96 72.47 658.85 73.44 657.56 73.73 656.39 73.8 655.05 73.37 654.21 72.96 653.47 72.43 652.47 71.54 651.94 71.17 651.45 71.09 650.92 71.32 650.08 72.12 649.8 72.21 649.72 71.97 649.78 71.63 650.05 70.8 650.1 70.35 650.02 69.78 649.87 69.3 649.58 68.91 648.79 68.61 647.49 68.46 644.96 68.61 642.47 69.09 641.81 69.05 640.8 69.34 638.3 69.62 637.76 69.8 637.17 69.91 636.16 69.88 631.32 68.87 630.18 68.75 626.09 69.2 624.22 69.79 623.21 69.92 622.61 70.06 621.93 70.09 621.08 69.87 620.37 69.57 619.92 69.25 619.12 67.42 619.95 67.46 620.22 67.41 620.44 67.25 620.72 66.91 622.26 64.44 623.22 63.36 623.79 63.09 623.86 62.97 623.83 62.66 623.85 62.41 623.99 62.13 624.26 61.75 624.86 61.08 625.39 60.59 626.29 60.03 626.87 59.87 627.43 59.84 628.82 60.3 630.49 60.5 631.07 60.69 632.03 60.9 632.56 60.92 632.96 60.98 633.37 61.16 633.69 61.39 634.39 62.06 634.78 62.33 635.06 62.44 635.44 62.4 635.74 62.25 636.54 61.64 637.36 60.8 638.91 58.7 640.51 56.99 641.16 56.05 641.54 55.64 643.06 54.57 643.52 54.36 643.93 54.34 644.69 54.47 645.17 54.49 645.84 54.36 646.31 54.2 646.67 53.92 646.9 53.58 647.04 52.93 647 52.26 646.61 51.46 645.34 49.9 645.07 49.43 644.86 48.92 644.5 47.49 644.3 47.01 642.87 44.43 642.76 44 642.85 43.71 643.3 43.44 643.74 43.35 644.65 43.29 645.02 43.17 645.35 42.98 645.75 42.62 646.03 42.04 646.17 41.34 646.08 40.46 646.15 38.68 646.79 38.99 647.74 39.29 649.49 39.44 650.04 39.59 650.44 39.84 651.27 40.6 653.43 42.01 654.89 43.27 656.04 44.64 657.27 46.79 659.16 49.16 660.14 51.91 660.19 52.32 660.12 53.7 660.18 54.56 660.43 55.37 660.95 56.09 662.77 56.43 663.07 56.75 663.68 57.13 664.64 57.38 665.49 57.46 667.15 57.85 669.31 59.06 671.22 60.43 673.47 61.66 674.04 62.06 674.85 63.12 676.01 63.7 Z" id="ECU-1410" data-name="Imbabura"/>
<path d="M 709.78 63.29 710.78 63.54 712.59 65.6 714.01 66.08 715.91 66.11 716.5 66.21 717.29 66.48 717.77 66.83 718.81 67.87 719.62 68.47 720.3 68.71 721.02 68.74 724.33 68.25 724.93 68.31 726.62 69.07 727.35 69.05 727.23 67.16 727.81 66.94 729.46 67.38 731.77 67.64 732.46 67.84 733.21 68.37 734.48 69.55 735.38 69.86 736.07 69.77 737.3 69.14 742.02 68.59 742.86 68.03 742.37 64.88 742.49 61.33 742.46 61.02 742.91 61.11 743.94 61.04 744.45 60.95 744.89 60.78 746.07 59.37 746.34 59.13 746.58 58.98 747.45 58.33 747.97 58.18 748.45 58.4 749.76 59.78 750.67 60.38 751.62 60.79 752.65 61.03 753.82 61.11 754.85 61.05 755.38 61.09 755.78 61.27 756.07 61.78 756.33 63.03 756.58 63.41 757.44 63.36 758.65 62.98 759.72 62.85 760.18 63.56 760.38 64.12 763.57 68.15 763.8 68.75 764.02 69.67 764.54 70.43 765.73 71.53 768.62 73.31 769.01 73.96 770.92 75.37 772.26 76.12 773.04 76.43 773.96 76.66 775.02 76.75 776.11 76.65 778.16 76.18 779.06 76.07 780.01 76.38 780.76 77.06 781.36 77.74 781.85 78.05 782.7 78.33 784.93 80.32 787.7 82.02 788.84 82.42 789.77 83.09 792.43 83.59 795.45 84.7 796.33 85.22 795.76 85.95 794.69 86.71 794.08 87.01 793.45 87.22 792.69 87.26 791.06 87.03 790.66 87.06 789.38 87.91 788.16 87.79 784.81 85.99 784.17 85.84 783.5 85.83 782.65 85.92 781.91 85.78 781.04 85.43 780.18 85.2 779.49 85.43 779.22 86.26 779.45 87.31 779.92 88.24 780.35 88.73 780.8 88.83 781.82 88.75 782.28 88.82 782.86 89.17 783.85 90.1 784.44 90.4 785.46 90.74 786.21 91.21 786.76 91.91 788.28 97.28 789.16 99.29 790.52 101.17 791.41 102 791.94 102.33 792.43 102.42 793.02 102.37 793.29 102.52 793.48 102.8 795.34 104.24 795.54 104.46 795.79 105.01 795.97 105.23 796.21 105.28 796.66 105.05 796.87 105.13 797.41 105.97 797.58 106.85 797.44 108.72 797.48 109.11 797.59 109.45 797.65 109.81 797.56 110.24 797.13 110.69 797.08 110.69 796.39 110.73 796.25 110.62 796.16 110.35 796.25 109.78 796.2 109.64 796.03 109.53 795.76 109.65 795.38 109.73 794.81 109.74 793.16 109.27 792.43 108.91 791.97 108.84 791.61 108.74 791.35 108.46 791.18 108.03 791.06 107.57 790.88 107.19 790.64 107.02 789.88 107 789.47 106.88 788.97 106.58 788.43 106.37 786.27 106.32 785.96 106.38 785.54 106.38 784.02 105.92 783.46 105.47 783.16 105.17 782.98 104.86 782.84 104.53 782.76 104.05 782.66 103.79 782.49 103.67 782.01 103.92 781.82 103.9 781.69 103.63 781.6 103.35 781.29 103.07 780.73 102.76 779.7 102.3 779.16 101.96 778.69 101.76 778.24 101.83 777.79 102.01 777.12 102.17 776.54 102.2 775.98 101.91 775.68 101.57 775.27 100.89 775.03 100.59 774.59 100.31 774.23 100.22 773.73 100.34 773.26 100.51 772.71 100.6 771.57 100.6 771.16 100.68 770.67 100.86 770.27 100.89 769.75 100.76 769.18 100.37 768.5 100.01 767.64 99.79 766.12 99.76 765.32 99.94 764.75 100.24 764.6 100.74 764.59 101.49 765.04 105.39 765.28 105.96 765.5 106.29 765.59 106.51 765.5 106.71 765.25 106.84 764.7 106.76 763.6 106.69 762.53 106.44 761.44 105.83 759.5 104.42 758.55 103.98 758.29 103.66 758.1 102.51 757.87 101.91 757.6 101.37 757.37 101.14 752.89 100.85 749.22 101.2 748.75 101.34 747.78 101.82 746.23 102.29 745.8 102.47 743.88 103.87 742.76 104.39 742.26 103.95 741.94 103.22 741.16 103.04 739.28 103.09 738.39 102.65 735.9 100.76 734.89 99.39 733.76 99.71 732.7 100.33 732.15 99.64 731.95 99.25 731.53 98.74 728.85 96.87 728.31 96.39 728.05 96.04 727.91 95.76 727.42 95.05 727.02 94.58 726.14 93.26 726.05 92.98 726.01 92.55 725.96 92.41 725.77 92.14 724.3 90.86 719.43 85.06 718.96 84.27 718.64 83.87 717.96 83.44 717.31 83.25 716.06 83.46 715.33 83.75 714.67 84.09 714.1 84.48 713.42 84.85 712.38 85.04 711.22 84.99 708.54 84.22 707.72 84.08 706.94 84.22 706.44 84.45 705.87 84.54 705.33 84.44 703.94 83.47 702.63 82.83 701.85 82.54 701.21 82.38 700.48 82.92 699.24 84.36 698.87 84.96 698.37 85.99 698.08 86.39 697.77 86.65 697.47 86.82 696.92 86.84 696.12 86.76 693.9 86.24 693.49 86.07 693.37 85.79 693.37 85.47 693.43 85.15 693.52 84.86 693.56 84.61 693.52 84.38 693.35 83.97 693.33 83.74 693.41 83.51 693.54 83.24 693.61 83 693.57 82.81 693.43 82.58 693.24 82.22 693.11 81.73 692.9 81.37 692.61 81.25 692.05 81.48 691.4 81.92 691.17 82.01 690.97 82.13 690.82 82.32 690.66 82.57 690.34 82.81 689.9 82.95 689.08 83.07 688.55 83.4 687.53 84.45 687.02 84.82 686.71 84.89 686.2 84.56 685.58 84.29 684.25 83.98 679.52 83.86 678.63 83.7 678.01 83.28 677.69 82.36 677.41 80.78 677.39 80.3 677.43 80.1 677.49 79.99 677.54 79.93 677.59 79.87 677.64 79.78 677.67 79.68 677.69 79.59 677.69 79.48 677.68 79.38 677.22 79.13 675.13 78.61 674.53 78.42 674.31 78.23 674.27 78.14 674.25 78.04 674.17 77.51 674.04 77.09 673.88 76.83 673.64 76.61 672.95 76.2 672.73 76.11 672.53 76.07 672.33 76.04 671.65 75.8 670.4 75.14 670.31 75.13 670.08 75.2 670.01 75.2 669.93 75.18 669.41 74.96 668.84 74.8 668.68 74.73 668.58 74.65 668.56 74.58 668.56 74.5 668.58 74.44 669.77 72.46 671.42 70.7 672.12 70.25 672.35 70.19 672.57 70.09 672.79 69.97 672.96 69.85 673.19 69.59 674.07 68.33 674.67 67.65 674.85 67.5 674.99 67.33 675.04 67.19 674.95 66.98 674.82 66.91 674.69 66.87 674.57 66.86 674.45 66.83 674.37 66.79 674.3 66.74 674.25 66.67 674.21 66.54 674.19 66.22 674.5 65.61 676.01 63.7 677.07 62.49 677.26 61.9 677.14 61.28 677.11 60.84 677.19 60.04 677.45 59.46 677.86 58.82 681.14 54.63 681.52 54.27 683.3 52.94 683.64 52.61 683.81 52.32 683.79 52.14 683.73 51.92 683.59 51.68 683.37 51.45 682.85 51.04 682.72 50.8 682.66 50.5 682.75 50 682.88 49.77 683.05 49.63 683.26 49.59 683.54 49.6 683.94 49.69 684.68 49.93 685.11 49.99 686.42 50 686.67 50.05 687.62 50.43 688.41 50.23 690.1 48.93 690.27 48.73 690.5 48.7 692.46 49.19 693.1 51.49 693.41 56.49 693.84 58.09 694.05 59.51 694.54 60.72 695.82 61.7 697.48 62.31 702.54 63.34 703.44 63.66 704.14 64.02 704.88 64.24 705.91 64.18 708.31 63.28 709.13 63.13 709.78 63.29 Z" id="ECU-1411" data-name="Sucumbios"/>
<path d="M 547.55 167.65 547.99 169.73 549.34 171.95 551.81 173.43 555.56 174.34 558.37 176.05 560.08 177.63 561.94 180.46 561.81 184.66 561.05 189.47 558.94 192.71 556.63 194.04 552.55 195.03 549.71 197.13 546.28 200.41 544.79 198.65 540.86 194.99 539.33 194.49 537.94 193.82 536.4 193.87 533.88 193.04 533.01 192.64 531.01 190.88 529.96 190.48 529.21 190.48 528.64 190.38 528.28 189.95 528 188.34 527.64 187.63 526.86 186.52 526.2 185.84 524.44 184.43 524.25 184.12 524.02 183.62 523.92 183.16 524.1 182.95 524.48 183.04 524.66 183.24 524.76 183.47 524.91 183.6 526.12 183.89 526.69 183.92 526.95 184.07 527.19 184.89 527.81 185.55 528.99 185.5 530.69 184.89 533.11 182.94 534.97 182.01 536.66 180.11 537.02 177.29 536.35 175.85 535.97 174.37 535.83 173.98 536.04 173.48 536.56 173.38 537.22 173.02 537.37 171.86 537.23 170.66 535.92 165.59 535.21 163.59 534.9 162.72 534.48 161.98 534.03 161.44 533.47 160.56 533.18 159.86 533.19 159.86 534.47 159.59 535.37 159.7 535.71 159.65 536.38 159.44 539.79 159.61 540.71 159.43 542.37 158.86 543.24 158.84 544.63 159.04 545.28 159.4 545.56 159.82 545.47 160.26 545.44 160.59 545.52 160.87 546.14 161.47 546.35 161.83 546.42 162.26 546.22 163.65 546.14 163.92 545.58 164.79 545.44 165.19 545.32 165.62 545.28 166.07 545.39 166.52 545.8 167.05 546.54 167.41 547.55 167.65 Z" id="ECU-5507" data-name="Santa Elena"/>
<path d="M 623.36 96.54 623.09 96.63 622.92 96.78 622.77 96.98 622.59 97.15 622.07 97.26 621.86 97.35 621.62 97.56 621.42 97.88 621.27 98.21 621.19 98.6 621.08 98.92 620.93 99.16 620.71 99.33 619.92 99.7 619.7 99.83 619.5 100.04 619.29 100.31 618.72 101.69 618.29 102.49 618.09 102.75 618.04 102.96 618.15 103.17 618.41 103.38 619.2 103.74 619.57 104.03 619.8 104.39 619.96 104.79 620.06 105.15 620.06 105.41 619.89 105.58 619.57 105.72 619.02 105.91 618.67 106.1 618.46 106.34 618.31 107.02 618.12 107.39 617.87 107.75 617.38 107.95 617.04 107.96 616.68 107.83 616.4 107.65 616.22 107.48 615.5 106.37 614.64 106.08 614.14 106.13 613.37 106.54 609.86 110.05 609.34 110.41 608.09 111.06 607.48 111.5 606.84 112.1 606.33 112.69 605.85 113.03 605.21 113.21 604.59 113.22 603.99 113.13 603.43 112.89 602.95 112.58 602.72 112.17 602.59 111.77 602.48 111.31 602.62 110.9 602.94 110.27 603.12 109.71 603 109.01 602.75 108.23 602.64 107.57 602.88 107.12 603.17 106.77 603.37 106.48 602.9 106.26 601.85 106.08 599.25 106.19 598.21 106.05 596.81 105.98 597.58 104.97 598.13 103.58 598.22 103.19 598.28 102.11 599.82 99.77 600.12 99.07 600.28 98.36 599.99 89.87 600.07 89.07 599.83 88.64 599.42 88.5 599.09 88.49 598.32 88.54 598 88.48 596.33 87.98 596.01 87.83 594.79 86.68 593.56 85.19 593.21 84.85 592.61 84.47 592.2 84.09 591.93 83.98 591.59 83.87 591.16 83.54 590.94 83.03 590.75 82.07 590.83 81.53 590.94 81.2 591.31 80.78 592.28 80.72 593.29 80.98 596.19 81.35 597.57 81.7 598.07 81.92 598.43 82.14 598.9 82.5 599.03 82.51 599.18 82.32 599.34 82.16 599.57 82.01 599.63 81.72 599.52 81.56 599.32 81.46 599.17 81.48 599.04 81.52 598.9 81.5 598.74 81.36 598.23 80.69 598.13 80.39 598.22 80.18 599.07 79.87 599.5 79.65 600.79 79.34 601.39 79.06 602.04 78.42 602.33 77.9 604.91 79.82 614.56 80.12 614.86 84.04 623.3 83.73 624.8 85.24 629.32 87.65 631.73 90.36 630.83 93.68 624.8 94.28 623.36 96.54 Z" id="ECU-5508" data-name="Santo Domingo de los Tsáchilas"/>
</g>
</svg>