<?xml version="1.0"?>
<svg xmlns="http://www.w3.org/2000/svg" version="1.2" baseProfile="tiny" width="800" height="1338" viewBox="0 0 800 1338" stroke-linecap="round" stroke-linejoin="round">
<g id="ne_10m_admin_1_states_provinces">
<path d="M 176.16 1031.44 194.06 1043.64 212.55 1063.49 227.73 1086.48 236.03 1108.18 239.54 1129.46 239.21 1142.11 236.03 1156.64 229.68 1172.08 222.93 1181.75 203.4 1200.17 193.48 1212.17 170.71 1249.67 165.84 1251.55 158.45 1253.27 153.78 1256.68 159.1 1270.43 153.19 1273.71 144.3 1275.46 138.08 1277.4 125.75 1291.25 124.19 1293.72 97.6 1294.34 94.03 1293.72 85.53 1322.39 77.23 1333.45 66.78 1320.97 61.01 1334.91 52.77 1336.76 44.59 1329.17 39.6 1315 40.9 1313.96 44.79 1300.21 45.05 1293.72 42.45 1285.61 39.21 1282.11 36.1 1280.36 33.7 1277.4 5.48 1186.61 1 1178.9 4.7 1171.82 6.12 1164.82 6.45 1148.76 8.33 1142.44 23.77 1124.05 27.01 1116.84 27.86 1111.75 29.8 1106.72 57.89 1078.47 64.06 1075.49 93.96 1065.37 118.87 1044.8 144.63 1028.52 176.16 1031.44 Z" id="STP-4861" data-name="São Tomé"/>
<path d="M 799 21.11 794.72 24.74 785.77 28.34 776.75 33.6 771.88 42.39 783.69 44.3 794.2 49.98 798.22 55.98 790.96 58.74 779.47 61.46 776.42 68.4 777.33 86.44 773.31 102.27 769.35 110.25 763.51 113.62 753.59 115.24 750.67 119.81 750.99 126.72 750.09 135.38 748.01 132.37 745.54 126.46 744.25 124.06 738.93 126.4 733.87 129.97 726.86 117.09 715.83 113.29 704.16 112.52 695.2 108.17 692.67 83.52 693.26 68.86 700.65 70.09 713.89 64.58 720.31 57.11 722.26 47.22 722.32 34.21 726.54 19 737.24 6.94 751.38 1 765.91 4.24 787.84 6.25 796.6 10.15 799 21.11 Z" id="STP-4862" data-name="Príncipe"/>
</g>
</svg>