<?xml version="1.0"?>
<svg xmlns="http://www.w3.org/2000/svg" version="1.2" baseProfile="tiny" width="800" height="676" viewBox="0 0 800 676" stroke-linecap="round" stroke-linejoin="round">
<g id="ne_10m_admin_1_states_provinces">
<path d="M 579.39 226.7 579.14 227.08 579.06 227.29 579.01 227.6 579.03 228.33 578.95 228.7 578.4 230.17 578.32 231.03 578.37 231.42 578.49 231.74 578.71 231.99 578.85 232.3 578.82 232.73 567.07 247.49 566.12 248.35 565 248.82 536.09 253.46 535.72 253.6 533.92 253.82 533.18 254.57 532.81 255.57 532.92 256.82 533.39 259.04 533.14 262.09 533.39 263.28 533.94 264.26 535.29 265.68 535.76 266.54 535.74 267.32 535.52 268.25 535.42 269.14 535.76 269.8 535.55 270.27 535.33 270.65 535.08 270.96 534.83 271.2 534.59 271.34 534.58 271.22 531.64 271.46 530.19 271.95 527.89 273.6 524.32 275.23 523.16 275.45 522.42 275.05 521.2 273.87 520.32 273.54 519.4 273.54 518.77 273.79 517.78 274.71 516.44 275.49 513.45 276.5 512.4 277.27 511.97 278.13 511.15 280.79 510.87 282.39 510.62 283.01 510.51 283.57 510.77 284.11 512.83 286.67 513.89 287.07 514.94 287.14 515.76 287.49 516.08 288.72 515.84 290 515.16 291 514.14 291.62 512.83 291.75 512.32 291.58 512.03 291.31 511.79 291.02 511.42 290.82 510.97 290.78 510.01 290.87 509.56 290.82 507.74 290.16 504.91 288.63 504.37 288.52 501.63 288.46 500.84 288.33 500.21 288.07 499.36 287.35 498.13 286.02 497.44 285.69 491.87 285.79 490.2 286.21 488.78 286.83 487.62 287.55 486.88 286.23 485.8 286.39 484.63 286.96 483.64 286.9 482.95 286.55 482.44 286.56 482.11 286.38 481.99 285.48 481.82 284.8 476.27 274.77 474.5 272.6 470.45 270.38 469.83 269.58 469.53 268.3 468.78 267 467.86 265.88 467 265.11 464.59 263.84 463.66 263.11 463.27 262.08 463.06 260.18 462.44 259.63 460.05 259.99 458.62 259.62 455.26 257.81 454.37 257.14 453.17 254.58 452.24 253.91 450.64 254.82 450.43 254.19 449.62 252.86 449.3 252.49 448.69 251.97 448.08 251.59 447.36 251.54 446.46 252.02 445.73 250.97 445.16 247.65 444.34 246.94 443.24 246.61 442.68 245.75 442.01 241.03 441.8 240.34 440.81 239.42 440.35 238.79 440.61 238.51 440.65 237.83 439.47 233.76 439.07 233.14 438.07 232.14 437.56 231.44 436.75 229.43 436.39 228.88 436.07 227.83 435.99 224.18 436.16 222.97 439.68 217.88 439.92 217.61 441.43 216.44 441.8 216.23 441.28 213.69 441.57 212.2 442.21 211.2 442.86 210.46 444.13 207.87 444.04 205.57 444.13 204.83 444.3 204.44 444.88 203.58 445.06 202.94 445.03 202.08 444.3 198.45 444.34 197.79 445.3 196.47 446.2 194.81 446.46 194.08 446.51 193.39 446.38 191.93 446.46 191.24 446.86 190.62 448.06 189.4 448.32 188.68 448.47 187.97 449.14 186.58 449.3 185.84 449.3 182.82 449.63 181.21 450.26 179.64 451.14 178.18 452.3 176.97 452.81 176.31 453.29 174.82 454.33 173.15 454.63 172.79 455.03 172.6 455.9 172.67 456.29 172.57 457.24 171.82 458.31 170.76 459.18 169.49 459.54 168.12 459.18 167.68 457.58 166.48 457.22 165.78 457.33 164.99 457.71 163.54 457.68 162.74 456.02 160.92 455.13 159.68 455.11 158.74 455.39 158.09 454.83 157.05 455.11 156.41 455.52 155.8 455.78 155.01 455.89 154.15 455.81 153.34 455.32 152 454.7 150.92 454.17 149.7 453.96 148 454.16 146.57 454.55 145.48 454.74 144.42 454.37 143.09 454.25 143.05 453.65 142.7 453.49 142.57 453.29 142.21 453.15 141.49 453.02 141.18 450.69 139.22 451.33 137.95 453.02 136.02 454.08 133.91 454.69 131.24 454.88 125.8 454.37 120.89 454.65 119.41 456.75 115.01 457.42 112.06 458.07 110.84 459.33 110.34 459.47 110.03 457.68 108.23 457.52 107.23 457.09 106.83 456.5 106.62 455.81 106.15 454.88 104.82 454.46 103.46 454.37 100.29 454.23 99.55 453.63 98.13 453.49 97.47 453.19 96.55 451.9 95.1 451.62 94.46 451.97 94.09 453.5 93.59 453.96 93.06 451.81 93.11 450.98 92.78 450.64 91.88 450.61 90.72 450.48 89.83 450.21 89.08 449.72 88.37 448.08 87.17 447.26 86.4 446.93 85.34 447.03 84.35 447.16 83.11 447.01 81.81 445.61 80.1 443.22 78.85 439.87 78.16 436.95 77.05 435.85 74.55 437.21 72.03 440.13 70.12 446.34 67.21 452.68 62.57 464.03 51.49 472.75 40.01 475.3 34.15 475.64 28.07 472.72 22 472.48 20.72 474.26 20.02 482.44 18.79 494.24 17 505.01 15.36 519.34 13.19 519.3 13.26 518.79 14.65 516.78 18.6 516 19.77 515.79 20.02 514.8 20.91 514.15 21.4 513.94 21.52 511.86 22.04 509.23 22.96 508.63 23.29 508.37 23.49 507.69 24.24 506.86 25.33 504.93 29.27 504.2 30.48 503.97 30.73 503.46 31.16 503.24 31.41 503.05 31.71 500.89 36.96 499.38 43.55 497.13 49.25 496.77 49.87 495.89 50.89 495.63 51.09 495.03 51.4 492.95 52 492.33 52.31 492.06 52.49 491.66 53.04 490.09 58.51 489.88 58.79 489.55 58.9 488.74 58.89 488.39 58.96 488.16 59.2 488.01 59.56 487.82 60.38 487.69 60.76 487.54 62.2 487.89 62.94 488.24 63.3 489.19 63.89 490.42 64.49 491.11 64.73 491.7 65.08 492.23 65.5 492.69 66 493.24 66.4 493.84 66.66 494.52 66.68 495.07 66.54 495.46 66.36 495.84 66.39 496.28 66.56 496.66 66.74 496.95 66.96 497.79 68.01 497.98 68.3 498.3 68.93 498.49 69.21 498.73 69.45 499.04 69.6 499.81 69.77 500.16 69.89 500.45 70.07 500.86 70.61 501.09 70.82 501.39 70.92 501.7 70.85 502.31 70.57 502.62 70.54 502.84 70.76 502.99 71.21 503.06 71.98 503.32 72.52 503.5 73.01 503.59 73.48 503.27 75.12 503.23 75.53 503.32 76.24 504.53 80.31 504.37 80.96 504.22 81.4 504.05 81.79 503.87 82.07 503.58 82.26 503.24 82.4 502.86 82.5 502.59 82.7 502.43 83 502.34 83.4 502.15 85.07 502.19 85.56 502.31 86.22 502.49 86.76 503.1 87.86 504.48 91.74 504.86 92.28 505.22 92.63 505.5 92.84 506.01 93.28 506.3 93.42 506.67 93.42 507.02 93.32 507.65 93.02 508.02 92.93 508.43 92.92 509.26 93.02 509.63 93.13 509.93 93.29 510.96 94.15 511.18 94.4 512.25 96.57 512.69 97.02 513.12 97.29 513.45 97.45 513.7 97.66 513.91 97.9 514.06 98.14 514.23 98.26 514.5 98.35 515.27 98.45 515.64 98.68 515.94 99.11 516.33 99.85 516.7 100.2 517.11 100.39 517.93 100.52 518.27 100.65 518.85 101.01 519.17 101.14 519.54 101.18 520.65 100.97 521.01 101.03 522.44 101.45 523.63 101.68 523.98 101.8 524.3 101.95 525.51 102.63 527.67 103.3 528.94 103.44 529.31 103.54 529.61 103.72 530.07 104.18 530.37 104.32 530.74 104.32 531.53 104.23 531.93 104.24 532.73 104.34 533.16 104.33 533.93 104.22 534.29 104.24 534.62 104.35 534.89 104.55 535.13 104.78 535.32 105.06 535.99 106.29 536.78 107.4 537.7 108.37 538.52 108.95 538.78 109.36 539 109.92 539.28 111.02 539.53 111.56 539.84 111.91 540.53 112.17 541.29 112.35 541.97 112.6 542.28 112.76 542.55 112.97 542.78 113.21 542.97 113.5 543.12 113.8 543.92 116.19 544.04 116.8 543.67 118.35 541.96 122.77 541.85 123.18 541.82 123.68 541.96 124.38 542.11 124.83 543.22 127.43 543.89 128.58 544.02 128.87 544.02 129.18 543.76 129.49 542.64 130.36 542.15 130.86 541.75 131.42 541.4 132.05 541.12 132.76 540.05 137.85 539.76 138.56 539.57 138.82 539.39 139.04 539.23 139.19 538.28 139.92 537.67 140.22 537.33 140.32 536.54 140.41 536.09 140.38 535.2 140.26 534.82 140.13 533.81 139.65 533.08 139.39 532.67 139.31 529.55 139.13 528 139.33 527.65 139.43 526.34 140.02 525.76 140.38 524.73 141.23 522.59 143.36 522.06 143.76 521.76 143.93 520.12 144.56 517.67 145.79 515.52 146.31 514.9 146.54 514.62 146.69 514.23 146.97 514.03 147.17 513.67 147.64 512.8 148.59 512.45 148.87 510.41 149.99 510.16 150.21 509.95 150.48 509.81 151.04 509.61 153.21 509.38 153.83 509.11 154.23 508.82 154.41 508.58 154.64 508.18 155.19 507.06 157.02 507 157.46 507.05 157.99 507.44 158.81 507.73 159.26 508.22 159.87 508.33 160.18 508.16 160.67 507.96 161.03 505.24 164.66 504.9 165.3 504.77 165.67 504.42 167.25 504.11 167.67 503.71 167.83 503.27 167.86 501.88 167.7 501.45 167.76 501.03 167.96 500.59 168.68 499.87 169.28 491.58 174.46 491.22 174.87 491.11 175.36 491.19 183.32 491.05 183.79 490.85 184.14 487.84 186.84 486.5 188.38 485.9 189.29 485.79 189.59 485.89 189.9 486.45 190.19 491.66 191.99 492.33 192.42 498.44 198.43 498.72 198.62 499.08 198.76 499.47 198.83 500.25 198.79 501.01 198.66 501.39 198.63 501.76 198.67 502.11 198.79 505.34 200.5 505.73 200.59 506.11 200.59 506.41 200.43 506.58 200.11 506.66 199.7 506.8 197.92 507.15 196.23 507.19 195.81 507.14 195.36 506.52 194.5 506.04 193.94 505.26 192.86 504.99 192.38 504.78 191.69 504.68 190.97 504.72 190.45 504.83 190.03 504.9 189.66 504.74 189.19 503.45 187.27 503.09 186.19 503.88 185.31 504.97 184.54 523.8 174.66 524.34 174.54 524.73 174.61 525.04 174.77 526.14 175.59 528.38 176.81 531.02 177.71 531.71 178.02 532.98 178.76 533.31 179.06 533.66 179.56 535.51 183.13 535.93 183.65 536.19 183.86 537.68 184.82 538.11 185.15 538.52 185.6 540.36 188.69 540.48 189.02 540.57 189.37 540.69 190.13 540.95 193.78 537 219.44 537.45 219.01 538.09 217.87 540.09 217.13 540.42 216.69 540.51 216.01 540.77 215.22 541.15 214.45 541.58 213.89 543.95 212.3 544.74 211.32 545.01 209.82 545.54 209.29 546.03 209.04 546.96 208.87 555.42 209.01 556.59 209.24 557.7 209.82 578.93 224.91 579.18 225.22 579.33 225.53 579.45 225.88 579.46 226.35 579.44 226.55 579.39 226.7 Z" id="ZMB-514" data-name="Luapula"/>
<path d="M 694.69 60.79 695.32 61.12 697.83 63.65 699.17 64.64 700.55 65.12 703.22 73.23 706.65 80.66 707.23 87.53 699.79 86.96 692.93 85.24 686.06 84.67 678.06 85.81 672.34 88.67 667.76 91.53 662.61 92.1 657.46 90.39 655.75 94.96 651.19 92.84 646.02 93.25 641.45 90.39 638.02 92.68 634.01 96.11 630.58 97.82 628.86 101.83 624.29 107.55 629.44 112.7 634.58 121.28 637.44 128.71 639.73 136.72 644.88 140.15 651.74 143.01 654.03 145.3 654.24 162.31 649.84 163.19 649.55 162.91 649.22 162.39 648.74 161.93 647.99 161.79 647.34 162.16 646.78 163.4 646.34 163.66 645.47 163.91 643.13 165.11 641.88 165.57 640.1 165.76 639.38 166.02 639.09 166.69 639.54 167.26 639.65 167.7 639.33 167.9 638.28 167.91 637.83 168.11 637.65 168.57 637.88 171.31 637.65 172.09 637.14 172.61 635.8 173.37 635.32 173.91 634.56 173.3 633.23 172.87 631.77 172.61 630.66 172.56 629.4 172.78 628.42 173.22 625.43 175.41 625.58 175.87 626.43 176.74 626.83 177.32 626.98 177.75 627.26 178.01 628.08 178.1 628.59 177.96 629.11 177.7 629.63 177.66 630.15 178.1 630.45 179.55 629.33 180.02 626.89 180.01 626.31 180.64 626.24 181.27 626.55 181.92 627.93 183.41 628.18 183.82 628.08 184.13 627.82 184.67 627.51 185.1 627.04 185.46 626.61 185.94 626.51 186.4 626.43 186.79 623.4 189.43 622.34 189.83 620.84 189.84 621.5 189.17 621.75 188.49 621.64 187.77 621.27 187 620.53 186.4 620.21 187.07 620.12 188.67 619.08 188.98 617.87 188.62 617.25 187.86 618 187 616.58 187.02 615.72 188.7 615.12 190.9 614.51 192.42 613.91 192.8 611.98 193.45 611.26 193.56 610.78 193.73 610.09 194.1 609.24 194.43 608.25 194.5 609.6 195.92 609.27 196.5 608.3 196.37 607.46 195.4 606.82 195.7 606.18 196.33 605.89 197.08 605.72 197.76 604.49 200.13 598.93 207.02 597.45 209.96 596.89 211.64 596.48 212.29 594.89 213.68 594.5 213.89 593.83 214.82 593.46 215.04 591.88 214.75 591.13 214.72 590.43 215.04 589.87 215.65 589.51 216.32 589.07 217.69 588.81 218.29 588.41 218.79 587.81 219.11 586.91 219.22 585.73 219.75 585.13 221 584.66 222.55 583.9 223.93 582.35 225.17 581.33 225.98 579.39 226.7 579.44 226.55 579.46 226.35 579.45 225.88 579.33 225.53 579.18 225.22 578.93 224.91 557.7 209.82 556.59 209.24 555.42 209.01 546.96 208.87 546.03 209.04 545.54 209.29 545.01 209.82 544.74 211.32 543.95 212.3 541.58 213.89 541.15 214.45 540.77 215.22 540.51 216.01 540.42 216.69 540.09 217.13 538.09 217.87 537.45 219.01 537 219.44 540.95 193.78 540.69 190.13 540.57 189.37 540.48 189.02 540.36 188.69 538.52 185.6 538.11 185.15 537.68 184.82 536.19 183.86 535.93 183.65 535.51 183.13 533.66 179.56 533.31 179.06 532.98 178.76 531.71 178.02 531.02 177.71 528.38 176.81 526.14 175.59 525.04 174.77 524.73 174.61 524.34 174.54 523.8 174.66 504.97 184.54 503.88 185.31 503.09 186.19 503.45 187.27 504.74 189.19 504.9 189.66 504.83 190.03 504.72 190.45 504.68 190.97 504.78 191.69 504.99 192.38 505.26 192.86 506.04 193.94 506.52 194.5 507.14 195.36 507.19 195.81 507.15 196.23 506.8 197.92 506.66 199.7 506.58 200.11 506.41 200.43 506.11 200.59 505.73 200.59 505.34 200.5 502.11 198.79 501.76 198.67 501.39 198.63 501.01 198.66 500.25 198.79 499.47 198.83 499.08 198.76 498.72 198.62 498.44 198.43 492.33 192.42 491.66 191.99 486.45 190.19 485.89 189.9 485.79 189.59 485.9 189.29 486.5 188.38 487.84 186.84 490.85 184.14 491.05 183.79 491.19 183.32 491.11 175.36 491.22 174.87 491.58 174.46 499.87 169.28 500.59 168.68 501.03 167.96 501.45 167.76 501.88 167.7 503.27 167.86 503.71 167.83 504.11 167.67 504.42 167.25 504.77 165.67 504.9 165.3 505.24 164.66 507.96 161.03 508.16 160.67 508.33 160.18 508.22 159.87 507.73 159.26 507.44 158.81 507.05 157.99 507 157.46 507.06 157.02 508.18 155.19 508.58 154.64 508.82 154.41 509.11 154.23 509.38 153.83 509.61 153.21 509.81 151.04 509.95 150.48 510.16 150.21 510.41 149.99 512.45 148.87 512.8 148.59 513.67 147.64 514.03 147.17 514.23 146.97 514.62 146.69 514.9 146.54 515.52 146.31 517.67 145.79 520.12 144.56 521.76 143.93 522.06 143.76 522.59 143.36 524.73 141.23 525.76 140.38 526.34 140.02 527.65 139.43 528 139.33 529.55 139.13 532.67 139.31 533.08 139.39 533.81 139.65 534.82 140.13 535.2 140.26 536.09 140.38 536.54 140.41 537.33 140.32 537.67 140.22 538.28 139.92 539.23 139.19 539.39 139.04 539.57 138.82 539.76 138.56 540.05 137.85 541.12 132.76 541.4 132.05 541.75 131.42 542.15 130.86 542.64 130.36 543.76 129.49 544.02 129.18 544.02 128.87 543.89 128.58 543.22 127.43 542.11 124.83 541.96 124.38 541.82 123.68 541.85 123.18 541.96 122.77 543.67 118.35 544.04 116.8 543.92 116.19 543.12 113.8 542.97 113.5 542.78 113.21 542.55 112.97 542.28 112.76 541.97 112.6 541.29 112.35 540.53 112.17 539.84 111.91 539.53 111.56 539.28 111.02 539 109.92 538.78 109.36 538.52 108.95 537.7 108.37 536.78 107.4 535.99 106.29 535.32 105.06 535.13 104.78 534.89 104.55 534.62 104.35 534.29 104.24 533.93 104.22 533.16 104.33 532.73 104.34 531.93 104.24 531.53 104.23 530.74 104.32 530.37 104.32 530.07 104.18 529.61 103.72 529.31 103.54 528.94 103.44 527.67 103.3 525.51 102.63 524.3 101.95 523.98 101.8 523.63 101.68 522.44 101.45 521.01 101.03 520.65 100.97 519.54 101.18 519.17 101.14 518.85 101.01 518.27 100.65 517.93 100.52 517.11 100.39 516.7 100.2 516.33 99.85 515.94 99.11 515.64 98.68 515.27 98.45 514.5 98.35 514.23 98.26 514.06 98.14 513.91 97.9 513.7 97.66 513.45 97.45 513.12 97.29 512.69 97.02 512.25 96.57 511.18 94.4 510.96 94.15 509.93 93.29 509.63 93.13 509.26 93.02 508.43 92.92 508.02 92.93 507.65 93.02 507.02 93.32 506.67 93.42 506.3 93.42 506.01 93.28 505.5 92.84 505.22 92.63 504.86 92.28 504.48 91.74 503.1 87.86 502.49 86.76 502.31 86.22 502.19 85.56 502.15 85.07 502.34 83.4 502.43 83 502.59 82.7 502.86 82.5 503.24 82.4 503.58 82.26 503.87 82.07 504.05 81.79 504.22 81.4 504.37 80.96 504.53 80.31 503.32 76.24 503.23 75.53 503.27 75.12 503.59 73.48 503.5 73.01 503.32 72.52 503.06 71.98 502.99 71.21 502.84 70.76 502.62 70.54 502.31 70.57 501.7 70.85 501.39 70.92 501.09 70.82 500.86 70.61 500.45 70.07 500.16 69.89 499.81 69.77 499.04 69.6 498.73 69.45 498.49 69.21 498.3 68.93 497.98 68.3 497.79 68.01 496.95 66.96 496.66 66.74 496.28 66.56 495.84 66.39 495.46 66.36 495.07 66.54 494.52 66.68 493.84 66.66 493.24 66.4 492.69 66 492.23 65.5 491.7 65.08 491.11 64.73 490.42 64.49 489.19 63.89 488.24 63.3 487.89 62.94 487.54 62.2 487.69 60.76 487.82 60.38 488.01 59.56 488.16 59.2 488.39 58.96 488.74 58.89 489.55 58.9 489.88 58.79 490.09 58.51 491.66 53.04 492.06 52.49 492.33 52.31 492.95 52 495.03 51.4 495.63 51.09 495.89 50.89 496.77 49.87 497.13 49.25 499.38 43.55 500.89 36.96 503.05 31.71 503.24 31.41 503.46 31.16 503.97 30.73 504.2 30.48 504.93 29.27 506.86 25.33 507.69 24.24 508.37 23.49 508.63 23.29 509.23 22.96 511.86 22.04 513.94 21.52 514.15 21.4 514.8 20.91 515.79 20.02 516 19.77 516.78 18.6 518.79 14.65 519.3 13.26 519.34 13.19 520.46 13.02 538.6 10.26 556.71 7.51 570.45 5.42 587.98 2.76 599.6 1 601.39 7.48 604.8 14.24 609.14 20.45 613.76 25.32 616 27.05 618.81 28.72 621.83 29.81 624.69 29.83 626.14 29.12 627.53 28.13 628.98 27.38 630.63 27.38 631.42 27.93 632.71 29.65 633.44 30.19 634.32 30.33 634.9 30.13 635.43 29.79 638.96 28.54 639.74 28.37 640.23 28.18 640.41 27.91 640.63 27.82 641.23 28.17 641.49 28.6 641.71 29.85 641.95 30.32 642.86 30.92 643.73 31 644.66 30.9 645.69 30.98 646.76 31.53 648.23 33.21 649.32 33.89 651.94 34.63 653.3 35.76 653.77 37.5 653.77 40.04 654.28 42.96 655.85 45.05 662.42 50.06 663.58 50.5 664.95 50.51 666.35 50.02 668.67 48.77 670.26 48.63 680.43 51.39 679.15 54.16 679.14 57.53 680.53 60.21 683.43 60.9 684.85 60.31 685.83 59.59 686.92 59.13 688.66 59.37 690.63 60.5 691.33 60.71 691.98 60.65 693.29 60.34 693.91 60.37 694.69 60.79 Z" id="ZMB-515" data-name="Northern"/>
<path d="M 645.8 358.68 644.28 359.72 641.04 360.41 639.53 361.27 636.78 363.36 636.14 364.01 635.84 364.25 635.38 363.94 634.74 363.83 634.18 363.99 633.94 364.48 633.65 365.43 632.36 366.97 631.69 368.68 630.81 368.81 629.03 368.4 628.38 368.62 627.58 369.62 625.74 370.4 624.9 371.76 623.7 376.68 623.25 377.66 621.57 379.37 621.39 379.5 620.34 380.64 620.72 381.73 619.98 382.23 618.01 382.46 617.22 382.86 615.44 384.11 614.52 384.37 613.97 384.88 614.02 386 613.74 387.12 612.21 387.63 612.2 387.91 611.07 389.49 609.98 390.47 609.5 391.03 609.16 391.87 608.5 392.22 607.86 392.39 554.95 392.53 554.92 392.76 555.15 392.92 555.52 393.08 556.3 393.32 557.65 393.47 558.05 393.58 558.43 393.85 558.76 394.5 560.59 399.98 560.86 400.4 561.22 400.65 563.04 401.36 566.24 402.28 566.95 402.57 567.27 402.76 568 403.47 568.32 403.65 568.66 403.8 568.95 404 569.14 404.27 569.46 404.89 569.84 405.46 569.96 405.79 570.05 406.14 570.13 406.92 570.1 407.42 570.01 407.98 569.7 408.86 569.35 409.57 568.66 410.67 568.17 411.3 567.4 411.87 565.61 412.8 565.07 413.21 564.12 414.19 563.5 414.52 563.21 414.78 562.95 415.18 562.65 415.94 562.32 416.45 561.81 416.98 559.85 418.61 557.19 422.07 556.67 422.61 556.29 422.83 555.93 422.9 555.51 422.88 554.69 422.75 554.31 422.78 553.99 422.97 553.72 423.37 553.44 423.99 553.25 424.92 553.02 425.51 552.64 425.94 552.3 426.15 551.95 426.31 551.38 426.67 550.64 427.37 550.43 427.87 550.19 428.58 550.01 430.04 549.58 431.27 549.39 431.42 549.13 431.9 548.84 432.64 548.3 435.17 547.88 438.61 548.29 439.31 549.74 440.56 551.44 442.52 551.77 442.98 548.29 442.75 547.65 442.44 547 441.72 546.7 441.54 546.31 441.48 545.89 441.46 545.44 441.55 544.95 441.7 544.32 442.09 543.65 442.17 543.03 442.42 542.58 442.2 542.34 441.95 542.08 441.77 541.74 441.84 541.38 442.35 540.92 443.66 540.75 444 540.54 444.29 540.31 444.54 539.9 444.76 539.33 444.94 538.25 445.08 537.59 445.05 537.05 444.96 535.95 444.68 535.49 444.74 535.02 444.95 533.67 446.09 533.36 446.27 532.95 446.37 531.48 446.24 531.09 446.27 525.69 448.35 525.33 448.59 524.88 449.06 524.31 449.52 520.29 451.72 519.72 452.19 519.37 452.38 517.16 452.45 516.73 452.36 516.24 452.5 515.65 452.89 514.69 454.24 514.33 455.12 514.06 456.64 513.3 459.54 511.42 462.9 506.91 463.73 501.31 463.88 495.61 462.47 483.62 466.02 480.12 466.68 476.41 468.25 467.97 475.61 462.56 477.41 456.57 478.12 450.64 478.27 439.39 475.36 437.43 476.51 435.23 480.75 433.47 485.56 431.64 488.74 429.53 489.48 425.59 488.68 414.09 485.02 402.42 483.21 401.55 483.21 400.7 483.34 400.07 483.6 396.63 485.86 396.06 486.6 395.9 487.3 396.34 488.28 397.28 488.84 398.86 489.28 402.53 489.79 403.55 490.16 404.42 490.96 406.19 494.32 407.15 497.42 407.32 498.56 407.35 499.24 407.32 499.6 407.19 500 406.57 500.79 405.36 501.7 398.11 503.7 395.21 509.7 394.95 509.85 394.52 510.52 394.28 510.67 393.8 510.58 393.06 510.2 392.64 510.16 391.88 510.21 391.45 510.44 390.78 511.09 390.34 510.55 390.05 509.96 389.65 509.47 389.32 509.17 388.98 508.9 388.16 508.1 387.99 507.83 387.94 507.53 388.06 507.25 388.3 507.03 388.58 506.83 388.82 506.62 388.97 506.38 388.95 506.12 388.75 505.9 388.6 505.58 388.57 505.18 388.64 503.86 388.59 503.47 388.38 503.21 387.26 502.78 387.02 502.54 386.92 502.19 386.89 501.79 386.83 501.41 386.67 501.11 386.3 500.83 382.82 499.72 382.45 499.56 382.4 499.52 382.31 499.26 382.45 498.63 382.3 498.29 381.89 498.1 380.86 498.17 380.36 498.38 380.01 498.68 379.92 499.05 379.86 499.57 379.68 499.86 378.82 500.33 378.61 500.6 378.52 500.96 378.47 501.36 378.36 501.74 378.19 502.06 377.99 502.32 377.76 502.5 377.37 502.75 376.88 503.15 376.64 503.41 376.38 503.61 376.05 503.75 375.68 503.84 375.4 504.02 375.19 504.3 375.08 504.65 374.9 504.95 374.61 505.11 374.24 505.08 373.18 504.56 371.89 504.15 371.53 504.19 371.28 504.57 371.09 505.04 365.44 514.99 365.24 515.56 364.1 516.22 363.42 515.21 362.64 515.03 362.64 514.18 359.1 499.34 357.36 498.33 341.39 497.53 340.74 497.34 341.02 496.89 342.66 495.55 342.7 495.12 341.97 494.54 332.91 489.41 330.2 488.83 326.25 488.35 229.25 485.81 229.35 481.14 229.03 478.64 229.06 478.04 229.21 477.61 229.44 477.37 231.49 475.56 231.94 475.03 232.19 474.81 232.51 474.66 232.88 474.61 233.3 474.63 233.69 474.73 234.12 474.78 234.58 474.73 235.1 474.39 235.33 473.98 235.42 473.56 235.26 471.59 235.35 470.92 235.58 470.58 236.62 469.58 237.57 468.16 237.98 467.39 238.21 466.76 238.29 463.8 238.24 463.41 238.13 463.07 236.13 459.53 235.99 459.02 235.93 458.33 235.97 456.99 236.1 456.3 236.3 455.82 236.86 455.13 237.25 454.5 237.42 453.9 237.51 453.1 237.63 452.61 237.8 452.23 238.02 451.95 238.27 451.72 238.57 451.55 239.34 451.31 239.72 451.05 239.85 450.71 239.87 450.32 239.86 449.51 240.03 447.36 239.61 446 239.55 444.93 239.63 444.32 239.75 443.82 240.13 443.2 240.35 442.91 240.53 442.61 241.16 441 241.61 440.12 242.78 438.32 243.24 437.8 243.48 437.57 243.77 437.38 244.01 437.25 244.51 437.12 246.16 436.07 247.05 435.35 248.26 435.12 249.46 435.09 287.18 439.56 287.58 439.97 287.85 440.29 288.34 441.2 288.83 441.85 289.61 442.2 290.63 442.49 292.35 442.78 295.4 444.17 295.9 444.69 296.31 445.32 296.79 445.85 297.49 446.08 298.18 445.9 300.56 444.9 300.99 441.38 301.76 439.97 304.56 436.76 308.91 433.46 311.75 429.26 312.35 428.58 313.23 427.94 314.3 427.5 315.47 427.4 316.15 427.6 317.43 428.23 318.27 428.33 318.67 428.17 318.87 427.85 319.18 427.54 319.92 427.4 325.55 427.82 326.82 427.46 329.23 425.86 330.23 425.5 338.63 425.16 339.77 424.18 340.13 423.79 340.56 422.7 340.41 415.14 340.33 414.81 340.3 414.45 340.37 414.11 340.72 413.53 341.97 411.83 342.12 411.48 342.24 411.09 342.31 410.67 342.34 410.25 342.29 409.46 342.14 408.72 341.55 407.45 341.01 406.58 337.66 402.38 336.86 401.71 334.26 400.29 333.98 400.05 333.86 399.76 334.23 399.25 334.88 398.92 336.25 398.49 336.87 398.19 337.25 397.84 337.35 397.52 337.39 397.19 337.24 394.6 337.32 392.86 337.57 391.04 338.14 389.59 339.55 387.54 340.23 386.2 340.37 385.82 340.44 385.43 340.46 385.02 340.36 384.69 340.13 384.45 338.06 383.47 337.43 383.09 337.17 382.87 336.74 382.36 336.55 382.09 336.39 381.78 336.09 380.75 335.84 380.1 335.48 379.52 335.07 378.99 334.6 378.5 334.08 378.11 333.51 377.84 361.35 378.7 367.25 379.46 367.31 379.83 367.27 380.25 367.17 380.64 367.1 381.03 367.08 381.39 367.64 383.07 367.78 383.4 367.99 383.65 368.92 384.55 369.13 384.82 369.27 385.13 369.4 385.47 369.55 386.61 369.8 387.26 369.89 387.62 370.01 388.8 370.43 390.21 370.66 390.59 371.04 390.97 371.28 391.15 372.01 391.7 373.19 391.21 375.05 389.86 376.59 388.17 377.23 386.46 376.76 385.03 376.64 384.01 376.99 383.18 377.62 382.81 378.5 382.6 379.26 382.79 379.73 383.93 380.06 384.36 380.52 384.73 381 384.79 381.39 384.45 381.41 383.96 381.33 383.42 381.42 382.97 383.62 380.2 384.21 379.2 384.27 378.73 384.1 378.36 383.99 377.94 384.21 377.34 384.67 377.03 385.25 376.98 385.79 376.99 386.12 376.87 386.28 375.95 386 375.09 386 374.19 387.01 373.15 388.17 373.28 388.63 373.36 388.98 373.52 390.16 374.31 390.85 374.62 391.65 374.87 397.4 375.32 398.72 375.69 399.74 376.62 404.3 387.72 404.99 389 405.83 390.19 407.21 391.31 407.97 391.69 408.56 391.8 408.92 391.7 409.24 391.55 410.09 391 410.54 390.83 411.14 390.7 412.99 390.66 413.5 390.56 413.81 390.41 414.38 390.25 415.2 390.13 419 390.05 421.38 389.76 421.73 389.66 422.07 389.54 422.64 389.15 422.89 388.93 423.13 388.68 423.46 388.41 423.91 388.19 424.78 388.04 425.37 388.05 425.89 388.12 430.15 389.23 430.97 389.35 431.55 389.32 432.91 388.93 434.16 388.68 436.38 388.63 437.04 388.68 440.25 389.56 441.5 389.74 445.95 389.38 446.41 389.29 446.74 389.2 447.38 388.9 448.26 388.39 448.59 388.26 451.28 387.83 456.78 387.64 457.49 387.36 457.85 386.99 457.31 379.45 457.41 379.11 457.6 378.84 457.86 378.61 467.65 371.28 468.11 370.76 469.33 369.05 470.76 367.58 471.3 367.17 473.66 365.79 476.36 364.82 476.64 364.63 476.91 364.42 481.28 359.07 483.94 356.46 484.16 356.18 484.32 355.94 484.5 355.47 485.02 355.46 486.73 355.19 488.37 355.17 489.9 355.86 490.51 356.72 490.97 357.75 491.57 358.55 492.61 358.75 493.33 358.35 494.64 356.81 495.56 356.29 497.11 355.67 501.08 353.08 510.72 349.44 512.11 348.58 516.07 344.92 517.64 344.24 519.24 344.32 520.49 345.02 521.66 345.97 522.97 346.79 523.79 346.88 524.38 346.68 524.91 346.69 525.53 347.45 525.7 348.13 525.59 348.87 525.32 349.54 525 350.07 524.5 350.41 523.28 350.71 522.8 351.22 522.69 351.79 522.83 353.16 522.7 353.8 522.28 354.01 521.63 354.13 521.1 354.49 521.1 355.45 521.36 356.24 521.71 356.99 522.17 357.69 522.76 358.28 523.81 358.87 525.29 359.44 528 360.17 532.39 360.22 533.42 360.04 534.47 357.89 534.48 350.35 534.49 340.16 534.51 330.5 534.53 320.28 534.54 308.36 534.56 298.15 534.57 286.79 534.59 278.84 534.6 271.59 534.6 271.56 535.9 271.3 536.16 271.18 536.47 270.96 536.69 270.71 537.28 269.84 537.63 269.19 537.76 268.84 537.86 268.44 538.18 264.97 538.3 264.58 538.45 264.25 538.66 263.97 538.91 263.74 539.18 263.55 544.7 261.26 546.19 260.94 547.74 260.74 548.1 260.74 548.53 261.03 549.13 261.59 550.31 263.04 551.59 265.29 551.7 265.63 551.77 266 551.88 267.19 551.96 267.55 552.07 267.89 552.3 268.34 553.32 269.72 553.64 270.25 554.05 270.75 554.54 271.16 555.55 271.79 556.16 272.08 556.7 272.28 557.54 272.43 557.98 272.62 558.35 272.97 558.99 274.17 559.32 274.51 560.84 275.09 561.69 275.23 562.05 275.34 562.39 275.51 562.69 275.7 563.02 275.86 564.13 276.26 565.09 276.79 565.81 277.07 567.48 277.38 567.85 277.52 568.82 278.05 569.16 278.19 569.54 278.27 570.75 278.27 571.29 278.44 571.91 278.71 572.94 279.28 573.56 279.45 574.05 279.48 575.2 279.28 576.04 279.29 576.45 279.36 576.79 279.6 577.14 279.95 577.54 280.65 577.87 281.11 578.26 281.48 578.89 281.76 579.35 281.82 579.77 281.76 580.46 281.54 581.23 281.47 581.99 281.6 582.4 281.82 582.75 282.17 583.12 282.91 583.25 283.45 583.29 283.97 583.19 287 583 287.81 582.31 289.18 582.2 289.51 582.15 289.9 582.14 290.7 582.21 291.46 582.31 291.81 582.44 292.14 582.74 292.49 583.18 292.86 584.03 293.42 585.79 294.19 586.46 294.57 586.81 294.9 587.17 295.44 587.41 296.28 587.43 296.85 587.34 297.32 586.76 298.72 586.7 299.13 586.71 299.52 586.8 299.88 587.28 300.46 588.07 301.21 590 302.69 590.93 303.18 591.59 303.37 592.54 302.92 593.11 302.55 593.63 302.12 594.48 301.05 594.77 300.89 595.13 300.87 595.48 301.04 595.79 301.36 596.68 303.43 597.19 304.12 597.67 304.58 598.42 305.09 599.76 305.68 600.09 305.94 600.34 306.3 600.55 306.95 600.56 307.44 600.5 307.9 600.35 308.25 600.19 308.58 599.79 309.15 598.88 310.18 598.71 310.49 597.96 312.22 597.91 312.58 597.96 312.92 598.97 316.39 599.09 317.15 599.08 317.55 598.79 319.21 599.01 319.69 599.47 320.17 603.67 323.03 605.02 323.67 605.6 324.07 606.26 324.4 606.66 324.49 607.5 324.5 609.71 324 610.15 324.02 610.59 324.08 612.99 324.74 613.87 324.85 614.3 324.92 616.14 325.54 616.74 325.6 617.09 325.58 617.92 325.59 618.79 326.21 623.87 331.1 624.76 331.72 625.21 331.76 626.08 331.75 626.48 331.7 626.82 331.61 627.15 331.47 627.43 331.28 627.67 331.03 627.87 330.76 628.06 330.45 628.7 328.99 628.75 328.85 628.87 328.26 628.96 326.99 629.06 326.64 629.25 326.38 629.51 326.18 630.14 325.87 631.5 325.4 631.9 325.35 634.93 325.34 635.8 325.48 636.19 325.6 638.55 326.74 639.14 327.11 639.43 327.37 639.73 327.68 640.12 328.58 640.38 329.64 641.42 344.54 641.87 345.85 643.16 348.31 644.77 350.03 645.57 351.11 645.7 351.79 645.82 353 645.76 355.27 645.8 358.68 Z" id="ZMB-516" data-name="Central"/>
<path d="M 484.5 355.47 484.32 355.94 484.16 356.18 483.94 356.46 481.28 359.07 476.91 364.42 476.64 364.63 476.36 364.82 473.66 365.79 471.3 367.17 470.76 367.58 469.33 369.05 468.11 370.76 467.65 371.28 457.86 378.61 457.6 378.84 457.41 379.11 457.31 379.45 457.85 386.99 457.49 387.36 456.78 387.64 451.28 387.83 448.59 388.26 448.26 388.39 447.38 388.9 446.74 389.2 446.41 389.29 445.95 389.38 441.5 389.74 440.25 389.56 437.04 388.68 436.38 388.63 434.16 388.68 432.91 388.93 431.55 389.32 430.97 389.35 430.15 389.23 425.89 388.12 425.37 388.05 424.78 388.04 423.91 388.19 423.46 388.41 423.13 388.68 422.89 388.93 422.64 389.15 422.07 389.54 421.73 389.66 421.38 389.76 419 390.05 415.2 390.13 414.38 390.25 413.81 390.41 413.5 390.56 412.99 390.66 411.14 390.7 410.54 390.83 410.09 391 409.24 391.55 408.92 391.7 408.56 391.8 407.97 391.69 407.21 391.31 405.83 390.19 404.99 389 404.3 387.72 399.74 376.62 398.72 375.69 397.4 375.32 391.65 374.87 390.85 374.62 390.16 374.31 388.98 373.52 388.63 373.36 388.17 373.28 387.01 373.15 386 374.19 386 375.09 386.28 375.95 386.12 376.87 385.79 376.99 385.25 376.98 384.67 377.03 384.21 377.34 383.99 377.94 384.1 378.36 384.27 378.73 384.21 379.2 383.62 380.2 381.42 382.97 381.33 383.42 381.41 383.96 381.39 384.45 381 384.79 380.52 384.73 380.06 384.36 379.73 383.93 379.26 382.79 378.5 382.6 377.62 382.81 376.99 383.18 376.64 384.01 376.76 385.03 377.23 386.46 376.59 388.17 375.05 389.86 373.19 391.21 372.01 391.7 371.28 391.15 371.04 390.97 370.66 390.59 370.43 390.21 370.01 388.8 369.89 387.62 369.8 387.26 369.55 386.61 369.4 385.47 369.27 385.13 369.13 384.82 368.92 384.55 367.99 383.65 367.78 383.4 367.64 383.07 367.08 381.39 367.1 381.03 367.17 380.64 367.27 380.25 367.31 379.83 367.25 379.46 361.35 378.7 333.51 377.84 331.16 376.35 330.13 375.47 329.85 375.08 329.55 374.49 329.26 373.64 329.17 372.87 329.46 368.44 329.73 367.35 330.19 366.15 330.56 365.54 330.79 365.29 332.12 364.22 332.34 363.96 332.52 363.67 332.73 363.17 333.49 359.85 333.7 359.3 333.95 358.92 334.24 358.73 334.86 358.43 336.21 357.96 336.84 357.67 337.16 357.38 337.48 356.97 338.24 355.18 338.46 354.92 338.73 354.71 340.29 353.96 340.66 353.58 341.09 353.01 341.76 351.79 342.05 351.08 342.22 350.5 342.24 350.07 342.12 348.91 341.92 348.21 341.16 346.68 341.02 346.21 340.93 345.62 340.94 344.49 341.03 343.85 341.18 343.34 341.36 343.02 341.55 342.73 341.79 342.47 342.3 342.04 346.11 339.71 346.63 339.29 347.26 338.55 347.73 337.83 347.97 337.31 348.14 336.83 349.99 329 349.97 328.93 349.71 328.77 349.36 328.68 348.93 328.63 348.51 328.62 346.97 328.84 346.56 328.74 346.19 328.49 345.95 327.9 345.72 327.59 345.43 327.42 345.13 327.3 344.92 327.06 344.65 326.44 344.46 326.16 344.22 325.92 343.95 325.75 343.65 325.65 343.42 325.61 342.23 325.54 341.85 325.43 341.53 325.25 340.97 324.83 340.65 324.66 338.81 323.94 338.52 323.74 338.26 323.51 337.8 323.02 337.55 322.8 336.93 322.42 336.22 322.08 335.89 321.86 335.59 321.6 335.36 321.19 335.34 320.82 335.43 320.46 336.02 319.56 336.66 318.11 336.9 317.7 337.17 317.08 337.21 316.64 337.11 316.28 336.92 316 335.63 314.65 335.33 314.48 335.01 314.22 334.71 313.9 334.51 313.27 334.3 312.86 334.06 312.56 333.75 312.36 333.44 312.08 333.18 311.73 332.99 311.12 333.03 310.7 333.45 309.96 333.69 309.4 334.32 306.42 334.52 305.96 334.73 305.57 335.34 304.7 335.8 304.21 336.42 303.9 336.77 303.79 337.14 303.72 338.35 303.62 338.7 303.53 339.36 303.26 339.92 302.88 340.42 302.42 341.08 301.63 341.81 300.38 344.19 297.42 344.75 297.03 345.41 296.78 348.11 296.29 348.47 296.15 348.81 295.92 348.8 295.67 348.66 295.42 348.18 294.87 348.14 294.82 347.53 293.27 347.39 292.83 347.31 292.28 347.28 291.35 347.39 290.79 347.58 290.29 347.8 289.89 348.07 289.27 348.08 287.14 348.02 286.76 347.23 284.37 347.14 283.98 347.08 283.51 347.33 283.4 347.66 283.43 349.23 283.77 351.11 283.87 351.73 283.81 353.06 283.55 353.86 283.47 362.43 284.3 362.87 284.14 363.3 283.86 364.16 282.82 364.5 282.53 365.43 282.05 365.69 281.84 366.72 281.35 367.68 280.2 368.04 279.91 368.35 279.76 369.04 279.56 369.36 279.41 369.91 279.02 370.91 278.11 371.46 277.73 371.77 277.62 372.75 277.35 373.35 277.85 374.43 278.47 375.36 279.16 375.37 279.53 375.24 280.01 375.46 280.42 377.37 280.73 378.15 281.07 378.4 281.23 379.36 279.97 380.38 279.61 380.68 279.46 383.57 277.52 383.81 277.29 383.81 277.29 384.19 277.58 387.11 280.74 389.02 281.36 392.06 281.61 395.2 281.47 397.36 280.94 398.65 279.91 399.4 278.98 400.3 278.44 402.02 278.61 403.41 279.13 407.29 281.4 408.29 282.64 408.54 284.35 408.98 285.81 410.51 286.26 411.73 286.05 412.76 285.99 417.78 286.47 418.41 286.84 418.66 287.42 418.79 288.08 419.1 288.7 420.76 290 421.76 289.58 422.77 288.6 424.48 288.17 425.79 288.74 426.82 289.73 428.01 290.53 429.81 290.52 431.17 290.33 432.52 290.42 433.81 290.81 434.99 291.45 440.65 296.28 441.58 297.75 442.91 301.11 443.76 302.65 446.06 305.03 446.76 306.31 446.71 308.09 445.93 309.22 444.83 309.99 444.15 310.96 444.62 312.71 446.03 314.51 447.53 315.99 448.61 317.61 448.84 321.14 449.56 321.77 450.59 321.82 451.65 321.35 452.31 320.53 453.3 318.57 454.19 317.99 457.38 318.66 460.11 321.42 464.73 327.35 465.94 328.37 466.43 329.11 467.04 331.56 467.32 331.87 468.24 332.19 468.5 332.48 468.46 332.83 468.13 333.57 468.12 333.88 468.17 334.19 468.07 334.9 468.15 335.28 468.42 335.58 468.81 335.7 469.18 335.77 469.41 335.93 470.06 338.3 470.71 338.68 472.04 338.74 472.66 339 473.45 340.02 475.55 350.07 476.65 352.89 478.73 354.89 479.63 355.96 480.74 356.2 481.98 355.93 483.23 355.48 484.5 355.47 Z" id="ZMB-517" data-name="Copperbelt"/>
<path d="M 788.06 286.25 786.28 287.31 785.78 288.44 784.75 288.62 784.44 289.13 784.38 290.81 783.78 291.62 781.71 292.44 780.93 293.13 779.86 294.71 778.46 296.09 776.9 297.05 775.39 297.39 774.85 297.22 774.28 296.86 773.62 296.54 772.76 296.48 770.95 296.77 770.4 297.01 769.62 297.88 768.48 300.22 767.53 300.87 766.84 301.09 766.42 301.34 766.12 301.58 765.78 301.81 765.37 302.21 765.14 302.68 764.82 303.01 764.12 303.04 763.83 302.7 763.02 301.19 762.54 300.71 761.89 300.54 761.37 300.6 760.3 300.88 759.75 301.19 759.13 301.7 758.54 301.98 758.06 301.53 757.77 301 757.4 300.62 756.93 300.52 756.37 300.75 755.41 301.59 754.69 302.51 752.59 306.6 750.13 310.19 749.22 312.05 748.98 313.24 749.38 318.25 749.82 318.99 751.66 320.12 753.34 321.64 753.92 323.3 753.6 325.19 751.73 329.36 750.67 336.92 750.75 338.1 751.04 339.24 751.56 340.4 752.66 341.97 752.87 342.76 752.5 343.71 750.45 344.3 748.75 346.41 747.51 349.06 746.54 352.92 745.63 356.57 744.41 359.18 742.47 360.2 741.22 360.39 740.65 361.13 740.5 362.2 740.54 363.44 740.24 364.99 739.35 365.6 736.83 365.96 735.92 366.53 734.08 368.07 733.22 368.21 731.95 367.78 730.97 367.69 730.31 368.22 730.02 369.64 730.82 371.8 732.98 372.28 735.48 372.3 737.29 373.09 739.88 376.65 740.26 377.47 739.68 378.21 737.17 379.38 736.44 380.14 736.82 381.98 738.79 382.84 741.31 383.33 743.4 384.09 744.41 384.94 747.8 389.02 748.07 390.06 748.22 391.08 748.64 392.15 749.2 392.61 750.44 392.54 750.99 392.82 751.37 393.4 751.4 393.76 751.27 394.14 751.04 397.59 751.39 398.62 752.98 400.63 754.23 400.34 756.37 396.95 757.29 395.94 758.24 395.44 760.61 394.77 761.23 394.17 761.88 392.44 762.57 392.06 763.54 392.85 765.66 396.76 766.83 398.13 761.87 399.78 755.92 401.76 747.34 404.62 735.59 408.54 724.12 412.37 713.79 415.81 706.62 418.2 700.27 420.32 694.79 421.3 692.18 422.08 687.03 424.39 680.18 426.6 671.2 429.5 661.45 432.64 656.76 435.04 650.41 438.3 644.55 440.42 637.45 442.1 628.67 444.17 621.6 445.84 620.38 445.93 610.72 448.09 603.95 449.61 594.47 452.98 588.66 455.06 581.41 457.64 575.06 460.71 570.01 463.17 564.04 463.87 562.91 464.16 562.91 464.19 562.89 464.17 562.8 464.07 562.74 455.91 562.37 453.87 562.07 453.67 561.33 452.94 560.81 452.1 560.12 451.32 559.54 450.93 558.54 450.43 558.17 450.17 557.79 449.82 555.09 446.31 554.82 446.05 554.5 445.86 552.94 445.25 552.51 444.84 552.25 444.33 552 443.45 551.77 442.98 551.44 442.52 549.74 440.56 548.29 439.31 547.88 438.61 548.3 435.17 548.84 432.64 549.13 431.9 549.39 431.42 549.58 431.27 550.01 430.04 550.19 428.58 550.43 427.87 550.64 427.37 551.38 426.67 551.95 426.31 552.3 426.15 552.64 425.94 553.02 425.51 553.25 424.92 553.44 423.99 553.72 423.37 553.99 422.97 554.31 422.78 554.69 422.75 555.51 422.88 555.93 422.9 556.29 422.83 556.67 422.61 557.19 422.07 559.85 418.61 561.81 416.98 562.32 416.45 562.65 415.94 562.95 415.18 563.21 414.78 563.5 414.52 564.12 414.19 565.07 413.21 565.61 412.8 567.4 411.87 568.17 411.3 568.66 410.67 569.35 409.57 569.7 408.86 570.01 407.98 570.1 407.42 570.13 406.92 570.05 406.14 569.96 405.79 569.84 405.46 569.46 404.89 569.14 404.27 568.95 404 568.66 403.8 568.32 403.65 568 403.47 567.27 402.76 566.95 402.57 566.24 402.28 563.04 401.36 561.22 400.65 560.86 400.4 560.59 399.98 558.76 394.5 558.43 393.85 558.05 393.58 557.65 393.47 556.3 393.32 555.52 393.08 555.15 392.92 554.92 392.76 554.95 392.53 607.86 392.39 608.5 392.22 609.16 391.87 609.5 391.03 609.98 390.47 611.07 389.49 612.2 387.91 612.21 387.63 613.74 387.12 614.02 386 613.97 384.88 614.52 384.37 615.44 384.11 617.22 382.86 618.01 382.46 619.98 382.23 620.72 381.73 620.34 380.64 621.39 379.5 621.57 379.37 623.25 377.66 623.7 376.68 624.9 371.76 625.74 370.4 627.58 369.62 628.38 368.62 629.03 368.4 630.81 368.81 631.69 368.68 632.36 366.97 633.65 365.43 633.94 364.48 634.18 363.99 634.74 363.83 635.38 363.94 635.84 364.25 636.14 364.01 636.78 363.36 639.53 361.27 641.04 360.41 644.28 359.72 645.8 358.68 646.5 358.19 648 357.73 649.13 357.89 650.51 358.26 651.88 358.42 653 357.96 658.4 353.96 660.06 351.85 660.86 349.26 661.38 346.56 662.58 342.63 662.96 342.04 664.36 341.69 664.88 341.36 665.28 340.84 665.43 340.17 665.92 338.82 666.95 337.9 667.88 336.87 668.08 335.24 668.54 335.24 668.64 335.57 668.86 335.89 669.01 336.21 670.1 335.51 671.64 334.75 672.52 334.07 673.22 333.21 673.6 332.99 675.03 332.81 675.52 332.53 675.86 332.08 676.04 331.47 676.9 331.82 677.46 331.68 678.02 331.33 678.83 331.04 678.42 329.72 678.35 328.3 678.52 326.96 678.83 325.88 678.87 325.56 678.77 324.82 678.83 324.52 679.19 324.21 679.6 324.17 679.98 324.18 680.28 324.06 681.15 323.21 681.46 322.8 681.67 322.19 682.41 322.12 683.84 321.74 685.24 321.18 685.87 320.54 686.05 319.3 687.14 316.21 687.77 315.12 688.38 314.67 688.96 314.51 689.38 314.25 689.7 312.85 690.33 311.46 690.48 310.72 690.53 309.87 690.95 307.62 690.95 305.33 691.17 304.67 691.48 304.2 691.76 303.65 692.04 301.97 692.74 301.14 694.21 294.49 694.21 291.5 694.36 290.96 695.03 290.08 695.18 289.64 695.27 288.66 695.54 288.2 695.99 287.84 696.62 287.12 697.09 286.37 697.98 284.33 698.82 283.45 702.21 280.81 702.39 280.16 703.61 278.69 704.15 277.3 704.54 275.85 704.63 274.43 710.28 275.66 714.3 275.66 717.74 272.22 718.88 268.21 721.75 265.34 725.76 265.34 734.36 264.77 749.84 260.18 759.01 257.31 761.88 251.01 766.47 243.55 766.47 240.34 767.76 238.42 770.48 237.25 773.81 236.42 774.42 245.16 774.19 247.66 773.29 250.23 773.29 251.33 774.06 252.82 774.33 253.79 774.1 254.86 773.71 255.95 773.07 259.43 770.39 265.66 770.14 267.93 770.24 270.23 770.75 271.33 772.67 273.14 773.46 274.08 774.32 276.31 775.52 281.06 776.84 283.08 779.24 283.91 784.27 282.41 786.93 283.33 788.08 283.3 788.86 283.58 788.96 284.97 788.35 286.07 788.06 286.25 Z" id="ZMB-518" data-name="Eastern"/>
<path d="M 551.77 442.98 552 443.45 552.25 444.33 552.51 444.84 552.94 445.25 554.5 445.86 554.82 446.05 555.09 446.31 557.79 449.82 558.17 450.17 558.54 450.43 559.54 450.93 560.12 451.32 560.81 452.1 561.33 452.94 562.07 453.67 562.37 453.87 562.74 455.91 562.8 464.07 562.89 464.17 562.91 464.19 562.87 464.64 563.36 466.67 563.36 469.72 563.69 472.68 566.24 481.2 567.93 484.45 570.15 485.86 571.13 486.22 571.99 487.11 572.7 488.33 573.18 489.59 573.47 490.99 573.65 495.43 573.86 496.22 574.87 497.57 575.09 498.23 574.9 498.91 573.65 501.27 573.2 502.78 573.35 503.72 575.3 505.72 575.66 506.26 576.44 508.27 576.28 508.44 575.32 508.82 572.62 509.88 570.66 509.94 568.49 509.03 567.39 508.57 565.67 508.33 565.07 508.55 564.04 509.41 563.51 509.76 562.42 509.99 561.62 509.72 559.87 508.56 557.16 507.98 554.42 508.37 551.71 509.1 549.01 509.52 546.06 509.19 540.21 507.65 537.18 507.37 535.61 507.71 532.81 508.96 529.86 509.41 525.95 510.68 524.29 510.91 522.89 510.7 521.57 510.35 520.11 510.17 518.49 510.6 515.95 512.7 514.74 513.43 508.84 513.94 507.81 514.16 492.75 520.89 490.34 523.34 489.72 523.73 488.35 524.06 487.01 524.85 485.92 525.78 485.25 526.52 483.8 529.18 482.93 529.99 481.27 530.29 478.18 530.34 476.72 530.61 476.41 530.74 476.4 530.73 476.38 530.7 475.41 529.87 473.91 528.93 472.35 528.64 471.21 529.77 470.43 529.37 469.71 529.33 469.15 529.64 468.88 530.28 468.09 529.82 467.64 530.02 467.34 530.46 466.98 530.7 466.4 530.64 465.34 530.34 464.88 530.28 463.64 530.41 463.25 530.38 462.6 530.07 458 526.52 457.06 526.12 455.71 526.08 453 526.44 451.63 526.17 450.44 525.47 447.5 522.49 446.37 521.63 445.31 521.28 442.78 520.94 441.93 520.62 440.61 519.68 439.83 519.24 438.49 518.94 431.7 519.37 430.6 519.77 428.59 521.17 427.92 521.28 427.22 520.89 425.12 519.13 423.97 518.5 417.27 515.94 415.81 515.75 414.57 515.35 413.84 514.38 413.21 513.16 412.29 512.03 409.8 510.86 407 510.75 404.27 511.39 402 512.49 401.39 512.15 401 511.74 400.87 511.25 401.03 510.67 399.73 509.89 398.15 509.63 395.21 509.7 398.11 503.7 405.36 501.7 406.57 500.79 407.19 500 407.32 499.6 407.35 499.24 407.32 498.56 407.15 497.42 406.19 494.32 404.42 490.96 403.55 490.16 402.53 489.79 398.86 489.28 397.28 488.84 396.34 488.28 395.9 487.3 396.06 486.6 396.63 485.86 400.07 483.6 400.7 483.34 401.55 483.21 402.42 483.21 414.09 485.02 425.59 488.68 429.53 489.48 431.64 488.74 433.47 485.56 435.23 480.75 437.43 476.51 439.39 475.36 450.64 478.27 456.57 478.12 462.56 477.41 467.97 475.61 476.41 468.25 480.12 466.68 483.62 466.02 495.61 462.47 501.31 463.88 506.91 463.73 511.42 462.9 513.3 459.54 514.06 456.64 514.33 455.12 514.69 454.24 515.65 452.89 516.24 452.5 516.73 452.36 517.16 452.45 519.37 452.38 519.72 452.19 520.29 451.72 524.31 449.52 524.88 449.06 525.33 448.59 525.69 448.35 531.09 446.27 531.48 446.24 532.95 446.37 533.36 446.27 533.67 446.09 535.02 444.95 535.49 444.74 535.95 444.68 537.05 444.96 537.59 445.05 538.25 445.08 539.33 444.94 539.9 444.76 540.31 444.54 540.54 444.29 540.75 444 540.92 443.66 541.38 442.35 541.74 441.84 542.08 441.77 542.34 441.95 542.58 442.2 543.03 442.42 543.65 442.17 544.32 442.09 544.95 441.7 545.44 441.55 545.89 441.46 546.31 441.48 546.7 441.54 547 441.72 547.65 442.44 548.29 442.75 551.77 442.98 Z" id="ZMB-520" data-name="Lusaka"/>
<path d="M 383.81 277.29 383.81 277.29 383.57 277.52 380.68 279.46 380.38 279.61 379.36 279.97 378.4 281.23 378.15 281.07 377.37 280.73 375.46 280.42 375.24 280.01 375.37 279.53 375.36 279.16 374.43 278.47 373.35 277.85 372.75 277.35 371.77 277.62 371.46 277.73 370.91 278.11 369.91 279.02 369.36 279.41 369.04 279.56 368.35 279.76 368.04 279.91 367.68 280.2 366.72 281.35 365.69 281.84 365.43 282.05 364.5 282.53 364.16 282.82 363.3 283.86 362.87 284.14 362.43 284.3 353.86 283.47 353.06 283.55 351.73 283.81 351.11 283.87 349.23 283.77 347.66 283.43 347.33 283.4 347.08 283.51 347.14 283.98 347.23 284.37 348.02 286.76 348.08 287.14 348.07 289.27 347.8 289.89 347.58 290.29 347.39 290.79 347.28 291.35 347.31 292.28 347.39 292.83 347.53 293.27 348.14 294.82 348.18 294.87 348.66 295.42 348.8 295.67 348.81 295.92 348.47 296.15 348.11 296.29 345.41 296.78 344.75 297.03 344.19 297.42 341.81 300.38 341.08 301.63 340.42 302.42 339.92 302.88 339.36 303.26 338.7 303.53 338.35 303.62 337.14 303.72 336.77 303.79 336.42 303.9 335.8 304.21 335.34 304.7 334.73 305.57 334.52 305.96 334.32 306.42 333.69 309.4 333.45 309.96 333.03 310.7 332.99 311.12 333.18 311.73 333.44 312.08 333.75 312.36 334.06 312.56 334.3 312.86 334.51 313.27 334.71 313.9 335.01 314.22 335.33 314.48 335.63 314.65 336.92 316 337.11 316.28 337.21 316.64 337.17 317.08 336.9 317.7 336.66 318.11 336.02 319.56 335.43 320.46 335.34 320.82 335.36 321.19 335.59 321.6 335.89 321.86 336.22 322.08 336.93 322.42 337.55 322.8 337.8 323.02 338.26 323.51 338.52 323.74 338.81 323.94 340.65 324.66 340.97 324.83 341.53 325.25 341.85 325.43 342.23 325.54 343.42 325.61 343.65 325.65 343.95 325.75 344.22 325.92 344.46 326.16 344.65 326.44 344.92 327.06 345.13 327.3 345.43 327.42 345.72 327.59 345.95 327.9 346.19 328.49 346.56 328.74 346.97 328.84 348.51 328.62 348.93 328.63 349.36 328.68 349.71 328.77 349.97 328.93 349.99 329 348.14 336.83 347.97 337.31 347.73 337.83 347.26 338.55 346.63 339.29 346.11 339.71 342.3 342.04 341.79 342.47 341.55 342.73 341.36 343.02 341.18 343.34 341.03 343.85 340.94 344.49 340.93 345.62 341.02 346.21 341.16 346.68 341.92 348.21 342.12 348.91 342.24 350.07 342.22 350.5 342.05 351.08 341.76 351.79 341.09 353.01 340.66 353.58 340.29 353.96 338.73 354.71 338.46 354.92 338.24 355.18 337.48 356.97 337.16 357.38 336.84 357.67 336.21 357.96 334.86 358.43 334.24 358.73 333.95 358.92 333.7 359.3 333.49 359.85 332.73 363.17 332.52 363.67 332.34 363.96 332.12 364.22 330.79 365.29 330.56 365.54 330.19 366.15 329.73 367.35 329.46 368.44 329.17 372.87 329.26 373.64 329.55 374.49 329.85 375.08 330.13 375.47 331.16 376.35 333.51 377.84 334.08 378.11 334.6 378.5 335.07 378.99 335.48 379.52 335.84 380.1 336.09 380.75 336.39 381.78 336.55 382.09 336.74 382.36 337.17 382.87 337.43 383.09 338.06 383.47 340.13 384.45 340.36 384.69 340.46 385.02 340.44 385.43 340.37 385.82 340.23 386.2 339.55 387.54 338.14 389.59 337.57 391.04 337.32 392.86 337.24 394.6 337.39 397.19 337.35 397.52 337.25 397.84 336.87 398.19 336.25 398.49 334.88 398.92 334.23 399.25 333.86 399.76 333.98 400.05 334.26 400.29 336.86 401.71 337.66 402.38 341.01 406.58 341.55 407.45 342.14 408.72 342.29 409.46 342.34 410.25 342.31 410.67 342.24 411.09 342.12 411.48 341.97 411.83 340.72 413.53 340.37 414.11 340.3 414.45 340.33 414.81 340.41 415.14 340.56 422.7 340.13 423.79 339.77 424.18 338.63 425.16 330.23 425.5 329.23 425.86 326.82 427.46 325.55 427.82 319.92 427.4 319.18 427.54 318.87 427.85 318.67 428.17 318.27 428.33 317.43 428.23 316.15 427.6 315.47 427.4 314.3 427.5 313.23 427.94 312.35 428.58 311.75 429.26 308.91 433.46 304.56 436.76 301.76 439.97 300.99 441.38 300.56 444.9 298.18 445.9 297.49 446.08 296.79 445.85 296.31 445.32 295.9 444.69 295.4 444.17 292.35 442.78 290.63 442.49 289.61 442.2 288.83 441.85 288.34 441.2 287.85 440.29 287.58 439.97 287.18 439.56 249.46 435.09 248.26 435.12 247.05 435.35 246.16 436.07 244.51 437.12 242.77 437.04 241.96 437.29 241.6 437.53 240.05 438.22 238.83 438.35 237.88 438.38 237.27 438.3 236.84 438.17 236.5 438 236.22 437.8 235.97 437.56 235.21 437.25 233.96 436.95 229.52 436.53 228.6 436.58 228.24 436.7 226.99 437.31 226.32 437.54 223.37 438.16 222.34 438.51 221.7 438.78 221.4 438.96 220.04 439.48 217.43 440.07 216.76 440.14 213.52 439.91 212.86 439.94 212.26 440.04 210.95 440.47 210.36 440.55 209.83 440.58 209.34 440.49 208.84 440.33 208.28 440.05 207.79 439.75 207.22 439.31 205.79 437.73 204.98 436.64 204.83 436.35 204.56 435.69 204.47 435.32 204.44 434.94 204.77 432.74 204.77 432.37 204.58 430.8 204.6 430.16 204.63 429.98 204.81 429.62 204.94 429.46 205.02 429.36 205.27 429.19 205.65 429 207.17 428.5 208.87 427.66 209.17 427.49 209.69 427.06 210.4 426.29 210.57 425.97 210.67 425.58 210.8 422.61 211.12 421.08 211.21 420.91 211.27 420.63 211.4 420.33 211.58 420.04 211.99 419.48 212.56 418.55 212.85 417.82 213.06 417 213.12 416.58 213.11 414.1 212.95 413.6 212.67 413.02 211.95 412.17 211.44 411.8 210.96 411.68 208.34 412.14 207.65 412.04 206.45 411.61 198.78 407.84 198.31 407.71 196.66 407.45 195.14 407.03 193.78 406.86 190.29 405.68 189.74 405.39 189.36 405.08 189.01 404.48 188.87 404.15 188.55 403.55 188.43 403.22 188.36 402.87 188.32 402.48 188.41 400.74 188.37 400.36 187.85 399.08 187.67 398.38 187.53 398.06 187.34 397.76 186.97 397.34 186.18 396.62 184.56 394.76 184.21 394.47 183.97 394.35 183.74 394.4 183.21 394.73 182.89 394.89 182.56 394.98 182.22 395.12 182 395.35 181.86 395.69 181.79 396.09 181.75 396.86 181.63 397.08 181.49 397.17 181.12 397.19 180.98 397.17 180.87 397.09 180.81 396.87 180.8 396.53 180.97 395.26 180.87 394.83 180.64 394.75 180.35 394.75 179.71 394.57 179.39 394.53 179.18 394.69 179.11 394.99 179.27 395.66 179.29 396 179.17 396.26 178.9 396.4 178.56 396.35 177.88 396.07 177.47 396 176.65 396.02 176.44 395.75 176.23 395.38 175.74 394.73 174.87 394.26 174.37 393.89 174 393.55 173.74 393.18 172.19 391.58 171.93 391.66 171.73 391.88 171.55 392.2 171.26 392.39 170.61 392.57 170.51 392.78 170.64 393.01 170.86 393.24 171.05 393.47 171.13 393.75 170.97 393.94 170.65 394.06 170.25 394.08 169.32 394 168.81 393.9 168.44 393.97 168.19 394.17 167.96 394.44 167.7 394.66 167.27 394.68 167 394.5 166.8 394.2 166.64 393.86 166.43 393.52 166.24 393.55 166.05 393.75 165.83 394.01 165.56 394.22 165.25 394.33 164.88 394.33 162.3 393.56 161.7 393.24 161.36 392.88 161.28 392.09 161.28 391.68 161.13 391.19 160.83 390.71 160.13 390.05 159.68 389.83 159.39 389.84 159.35 390.11 159.26 390.46 159.1 390.75 158.86 391 158.68 391.22 158.68 391.53 158.88 391.8 159.25 392.13 159.46 392.42 159.49 392.73 159.32 392.96 158.92 393.06 158.39 393.04 157.61 392.88 157.08 392.61 155.78 391.71 154.75 390.83 154.39 390.72 154.03 390.76 153.13 391.26 152.42 391.46 152.11 391.62 151.69 392.18 151.35 392.31 150.92 392.35 150.34 392.28 149.9 392.29 149.54 392.42 149.31 392.65 148.94 393.27 148.72 393.56 148.46 393.75 147.86 394.04 147.49 394.15 147.07 394.2 146.5 394.15 146.03 393.94 145.55 393.55 145.17 393.44 144.85 393.51 144.59 393.74 144.4 394.04 144.25 394.41 144.13 394.82 143.96 395.23 143.73 395.58 143.26 395.74 142.97 395.56 142.43 394.95 142.13 394.89 141.85 394.99 141.22 395.78 140.51 396.45 139.95 396.84 139.65 396.99 138.95 397.2 138.33 397.29 137.51 397.19 136.81 396.95 135.84 396.46 135.29 396.31 134.86 396.35 134.31 396.73 133.95 396.84 133.59 396.9 133.32 397.01 133.02 397.19 132.76 397.2 132.27 397.17 131.72 397.04 130.3 396.52 129 396.56 128.01 396.27 127.46 395.52 127.5 394.19 126.77 394.55 125.18 396.06 124.4 396.35 123.64 396.47 122.88 396.68 120.65 398.02 119.45 397.68 118.36 396.93 117.25 396.52 116.17 396.83 113.8 398.1 111.02 398.76 108.59 400.57 107.43 401.23 100.41 403.03 98.49 403.98 96.4 405.85 95.7 406.31 94.83 406.57 94.17 406.54 93.52 406.4 92.67 406.31 91.47 406.62 89.75 408.11 88.66 408.68 85.87 408.68 86.13 408.05 86.19 407.61 86.09 407.24 85.87 406.78 83.07 407.75 83.38 406.39 84.89 404.1 85.79 403.04 85.98 402.74 86.1 402.39 85.81 402.22 85.42 402.14 80.15 401.57 79.5 401.39 79.16 401.21 78.59 400.8 78.18 400.26 78.01 399.97 77.87 399.64 77.65 398.91 77.59 398.07 77.62 397.3 77.61 397.07 77.43 396.68 77.08 396.3 76.22 395.84 75.63 395.66 75.1 395.63 74.69 395.68 74.33 395.79 72.59 396.53 71.39 396.8 70.96 396.77 70.66 396.69 70.48 396.57 70.31 396.32 70.17 396.03 69.95 395.31 69.54 394.31 69.16 393.75 68.21 392.79 62.25 388.98 60.57 388.28 60 388.21 59.57 388.3 59.3 388.5 57.62 390.15 57.33 390.34 56.97 390.45 53.79 390.6 53.42 390.72 53.17 390.95 53.06 391.3 52.24 395.26 52.1 395.66 51.62 396.4 50.84 396.52 49.97 396.33 49.33 395.97 48.75 395.55 48 395.13 46.35 394.81 45.52 394.52 45.17 393.96 45.03 393.46 44.72 392.89 44.33 392.44 44 392.25 42.85 391.93 42.22 391.41 40.96 391.3 40.28 391.26 39.73 391.15 39.3 391 37.61 389.92 37.37 389.67 36.79 388.4 36.61 388.18 36.45 388.05 31.79 385.26 21.86 377.09 21.14 376.63 19.49 375.79 18.83 375.56 18.27 375.44 17.87 375.47 17.5 375.58 17.2 375.75 16.96 375.98 16.26 377.19 16.05 377.46 15.77 377.69 14.85 378.21 14.6 378.42 14.41 378.7 14.09 379.34 13.87 379.62 13.61 379.82 11.65 380.71 11.15 380.83 10.51 380.92 9.35 380.93 8.71 380.85 8.22 380.71 7.9 380.54 6.81 379.73 5.14 378.09 4.31 377.55 2.27 376.56 1.03 376.36 1.03 370.17 1.02 359.89 1.01 349.6 1.01 339.33 1 329.05 9.48 329.05 17.97 329.05 26.45 329.05 34.92 329.05 43.4 329.05 51.88 329.05 60.36 329.05 68.84 329.05 77.32 329.05 85.81 329.05 94.29 329.05 102.77 329.05 111.25 329.05 119.73 329.05 128.22 329.05 136.69 329.05 138.89 329.05 138.09 326.56 136.93 324.4 135.41 322.44 131.69 318.69 130.3 316.78 129.68 314.59 130.13 311.89 131.46 308.82 132.76 303.78 133.98 299.03 134.81 297.06 137.9 292.62 140.2 289.31 140.76 288.15 140.95 286.98 140.28 283.91 140 279.74 139.3 278.02 137.57 276.24 136.09 274.13 135.73 271.07 136.19 261.5 136.6 252.71 138.07 249.39 138.18 248.7 137.86 247.02 137.57 241.92 136.99 240.27 136.28 238.98 135.75 237.66 135.75 235.93 136.11 234.58 137.33 231.86 139.22 228.99 139.51 228.19 139.52 227.08 139.34 225.44 139.37 224.58 139.53 223.82 140.27 222.8 142.41 221.16 143.06 220.24 143.02 219.42 140.01 212.83 139.61 211.09 139.89 201.37 138.56 201.16 138.17 200.22 138.48 197.58 138.42 193.8 138.67 192.58 139.1 191.27 138.85 190.27 137.52 188.26 137.09 187.1 136.63 183.75 138.95 183.83 142.15 184.44 145.09 185.5 146.64 186.96 146.65 187.55 146.27 188.77 146.22 189.4 146.39 190.14 146.87 191.52 147 192.3 146.88 194.57 147.33 195.42 148.7 195.22 150.08 194.78 151.22 194.82 153.75 195.55 155.09 195.74 157.62 195.74 158.9 195.9 160.44 196.57 162.41 197.81 164.13 199.31 164.9 200.69 164.66 201.48 164.09 202.08 163.58 202.74 163.53 203.71 163.92 204.5 165.08 205.52 165.55 206.1 165.91 207.3 166 208.73 165.88 210.19 165.62 211.51 165.09 212.61 162.9 216.01 162.05 216.9 159.2 217.76 158.33 218.48 158.91 219.71 160.01 220.22 162.85 220.24 164.11 220.46 165.64 221.36 167.95 223.45 169.32 224.1 170.9 224.24 172.35 223.96 175.2 222.91 175.87 222.86 176.67 222.92 177.39 222.81 177.83 222.25 178.05 221.48 178.33 220.83 178.74 220.27 179.33 219.74 179.95 219.47 181.48 219.14 182.2 218.8 182.87 218.13 184.11 216.46 184.85 215.78 187.47 214.72 192.62 214.7 195.26 214.14 200.34 211.66 203.19 210.79 205.81 211.02 215.57 210.15 219.65 209.3 226.11 206.11 228.26 205.76 229.1 206.49 229.24 208.02 229.15 209.76 229.29 211.16 229.26 211.82 228.73 212.29 227.3 212.83 226.51 213.44 226.89 214.02 227.65 214.61 228 215.2 227.42 216.45 226.63 217.08 226.06 217.84 226.13 219.51 226.65 220.89 228.19 223.55 228.7 224.74 228.61 225.39 227.68 226.48 227.4 227.13 227.39 227.76 227.59 228.98 229.43 234.55 230.07 235.7 230.63 236.29 231.11 236.56 231.68 236.64 232.55 236.63 233.45 236.81 233.89 237.26 234.22 237.84 234.82 238.4 238.72 240.24 239.92 241.28 240.03 241.63 240.07 241.99 240.03 242.36 239.44 244.07 239.87 245 240.91 245.46 242.25 245.41 242.88 245.08 243.3 244.62 243.78 244.22 244.64 244.1 245.37 243.87 245.64 243.24 245.84 242.54 246.37 242.1 249.5 242.21 251.84 243.68 254 245.61 256.6 247.09 257.86 247.32 261.79 247.35 262.54 247.26 263.9 246.64 264.4 246.51 265.14 246.64 265.48 246.87 265.74 247.19 269.47 250.17 270.93 250.72 271.9 251.42 272.84 253.55 274.04 254.09 274.92 254.21 286.7 254.05 288.23 254.63 289.61 255.49 290.99 256.14 293.45 255.99 294.86 256.65 295.66 256.69 296.42 256.38 297.76 255.47 298.47 255.18 301.01 254.76 303.62 254.69 305.24 255.18 306.4 256.06 307.45 257.09 308.7 258.03 311.14 258.82 316.67 259.19 319.24 259.72 320.55 260.47 321.71 261.36 322.89 261.9 324.28 261.59 325.31 260.59 326.11 259.42 327.14 258.57 328.89 258.55 332.08 258.89 334.98 258.27 337.61 256.78 339.99 254.51 341.33 251.86 341.61 246.28 342.27 243.58 343.32 242.08 344.32 241.13 345.03 240.09 345.15 238.26 344.3 235.38 344.26 234.08 345.19 233.11 345.78 233.02 347.28 233.24 347.96 233.21 350.54 232.38 353.46 232.14 355.41 231.4 355.86 231.34 357.02 232.98 357.73 236.1 358.03 239.43 357.89 241.73 359.54 247.68 372.27 255.38 375.47 260.82 375.76 263.55 379.08 272.96 380.15 274.36 383.81 277.29 Z" id="ZMB-521" data-name="North-Western"/>
<path d="M 395.21 509.7 398.15 509.63 399.73 509.89 401.03 510.67 400.87 511.25 401 511.74 401.39 512.15 402 512.49 404.27 511.39 407 510.75 409.8 510.86 412.29 512.03 413.21 513.16 413.84 514.38 414.57 515.35 415.81 515.75 417.27 515.94 423.97 518.5 425.12 519.13 427.22 520.89 427.92 521.28 428.59 521.17 430.6 519.77 431.7 519.37 438.49 518.94 439.83 519.24 440.61 519.68 441.93 520.62 442.78 520.94 445.31 521.28 446.37 521.63 447.5 522.49 450.44 525.47 451.63 526.17 453 526.44 455.71 526.08 457.06 526.12 458 526.52 462.6 530.07 463.25 530.38 463.64 530.41 464.88 530.28 465.34 530.34 466.4 530.64 466.98 530.7 467.34 530.46 467.64 530.02 468.09 529.82 468.88 530.28 469.15 529.64 469.71 529.33 470.43 529.37 471.21 529.77 472.35 528.64 473.91 528.93 475.41 529.87 476.38 530.7 476.4 530.73 476.41 530.74 475.43 531.18 473.14 533.35 471.66 535.16 471.45 535.63 470.51 537.03 470.3 537.79 470.44 538.41 470.75 538.89 471.07 539.27 471.24 539.61 470.86 541.93 469.97 544.77 469.61 547.49 470.77 549.44 469.14 553.09 468.9 554.56 469.16 555.74 470.28 558.6 470.3 560.15 468.65 562.76 468.38 563.32 467.93 565.78 467 566.84 464.3 568.82 463.74 569.98 462.39 571.24 461.81 571.74 460.85 571.89 458.94 571.89 455.7 572.47 430.92 581.87 426.3 584.74 419.58 590.13 413.37 592.71 402.83 597.1 399.31 599.14 396.61 601.98 387.32 615.44 386.2 617.82 384.81 623.24 382.96 626.68 379.34 630.22 372.37 636.35 354.28 654.39 353.59 655.39 353.48 656.09 353.56 657.78 353.73 659.39 351.44 662.09 348.9 664.47 346.87 666.33 345.02 667.31 343.99 667.59 340.78 667.73 340.06 668.01 337.56 669.59 335.94 669.08 329.51 671.93 327.85 672.12 326.75 672.38 325.86 672.9 323.91 674.63 323.09 674.86 322.12 674.69 318.24 673.49 317.14 672.95 316.19 672.18 315.13 671.04 314.24 670.33 313.1 669.89 311.3 669.59 308.46 668.72 303.21 665.97 300.08 665.4 297.54 665.77 297.04 665.66 296.61 665.25 296.06 664.87 295.41 664.58 292.27 664.22 291.65 664.01 291.29 663.58 290.9 662.95 290.41 662.38 289.79 662.14 289.18 662.44 286.75 664.24 286.15 664.56 284.57 664.85 283.42 665.47 282.23 665.75 281.82 665.91 281.75 666.17 281.89 667.04 281.82 667.31 280.87 667.57 279.59 667.6 278.5 667.84 278.09 668.67 277.63 668.2 273.86 670.06 273.07 670.17 270.17 670.06 266.02 668.2 265.33 667.41 264.83 666.29 264.92 665.32 266.02 664.94 265.07 663.77 261.98 662.5 261.32 661.45 260.72 660.73 259.36 659.89 257.85 659.17 255.29 658.53 254.46 657.81 253.59 657.27 251.92 657.44 248.3 658.96 243.72 659.81 243.32 659.96 242.72 660.59 242.33 660.74 241.9 660.66 241.26 660.31 240.91 660.23 235.77 660.23 235.03 660.11 232.78 659.3 230.65 659.39 229.98 659.3 228.64 658.68 226.56 657.12 225.29 656.55 224.81 656.09 224.38 655.23 223.63 654.46 222.71 653.93 221.77 653.71 220.61 653.65 220.1 653.44 219.22 652.31 218.86 652.06 218.09 651.67 217.79 651.38 217.68 650.99 217.76 650.12 217.55 649.73 216.54 648.72 216.06 648.74 215.46 649.52 215.28 649.05 214.94 648.59 214.45 648.22 213.83 648.08 213.7 647.76 213.13 645.75 212.9 645.63 211.66 644.57 211.47 644.31 210.67 644.3 210.18 644.2 209.82 643.94 209.4 643.42 209.4 642.95 209.86 641.78 209.61 641.56 208.91 641.66 207.63 642.06 206.99 642.02 205.9 641.24 205.12 640.16 205.04 640.11 205.04 640.09 205.73 635.43 206.14 633.97 206.35 633.69 206.76 633.27 206.98 632.97 207.15 632.79 207.84 632.19 208.17 631.78 208.63 631.08 208.81 630.55 208.88 630.08 208.81 629.7 208.55 628.96 208.46 628.44 208.5 624.7 208.63 624.01 208.81 623.5 209.29 622.98 210.4 622.17 210.65 621.93 211.81 620.07 212.48 619.27 213.8 617.04 213.89 616.58 213.84 616.19 213.54 615.63 213.33 615.37 213.1 615.15 212.91 614.62 212.84 613.85 213.09 612.14 213.33 611.34 213.6 610.8 214.14 610.38 216 609.43 216.43 609.08 216.92 608.54 217.69 607.32 218.08 606.47 218.27 605.85 218.27 605.43 218.17 605.09 218.01 604.8 217.84 604.37 217.76 603.84 217.95 602.85 218.51 602.43 219.12 602.11 219.8 601.91 223.32 600.25 223.83 599.76 224.43 598.98 225.59 597.07 225.98 596.14 226.13 595.45 224.11 588.95 223.79 588.36 223.66 588 223.58 587.58 223.65 586.49 224.26 583.23 224.32 582.38 224.24 581.81 224.02 581.57 223.46 581.16 222.8 580.81 222.42 580.65 221.58 580.42 214.44 579.57 213.97 579.41 213.58 579.11 212.76 577.33 212.57 576.63 212.37 575.53 212.21 575.22 211.99 574.97 211.71 574.75 209.28 573.16 207.45 571.56 207.26 571.36 207.14 571.26 207.07 571.12 206.88 570.3 206.94 569.97 207.01 569.79 207.09 569.74 207.34 569.66 208.4 569.48 208.75 569.37 209.07 569.23 209.65 568.83 209.92 568.59 216.8 559.63 217.32 559.18 218.55 558.53 218.83 558.34 219.88 557.45 220.17 557.28 220.52 557.18 220.93 557.11 221.3 557.02 221.64 556.88 222.52 556.32 223.48 555.32 223.69 555.05 223.93 554.8 224.2 554.6 224.5 554.44 224.84 554.31 225.94 554.03 226.87 553.63 227.26 553.14 227.76 552.29 229.43 548.47 229.66 548.21 230.29 547.17 231.09 545.32 231.37 544.86 231.86 544.39 232.31 543.85 232.67 543.2 232.86 542.91 233.12 542.67 233.39 542.46 233.69 542.29 234 542.15 234.3 541.99 234.59 541.85 234.85 541.65 235.08 541.41 235.28 541.12 235.9 540.5 236.3 540 236.31 539.66 236.16 539.37 235.87 539.17 235.49 539.04 235.06 538.95 234.18 538.87 233.75 538.79 233.38 538.65 233.08 538.46 232.82 538.22 232.35 537.73 230.94 536.67 230.7 536.43 230.49 536.16 230.16 535.56 230.03 535.24 229.91 534.27 229.92 533.52 230.04 533.06 230.28 532.76 230.91 532.34 231.23 532.05 231.56 531.59 231.51 531.28 231.3 531.02 231.06 530.67 230.89 530.18 230.88 529.25 231 528.71 231.24 528.35 231.53 528.17 231.96 527.72 232.45 527.02 233.13 525.21 234.18 517.9 234.19 517.02 234.12 516.66 233.98 516.35 233.79 516.07 233.34 515.56 232.78 515.13 232.44 514.95 232.08 514.83 231.71 514.79 231.38 514.9 231.11 515.1 230.65 515.61 230.01 516.46 229.55 516.96 229.26 517.15 228.93 517.29 228.56 517.36 228.16 517.39 227.72 517.36 227.32 517.28 226.95 517.14 226.62 516.96 226.08 516.51 225.62 516.01 224.67 514.61 224.5 514.23 224.39 513.77 224.27 513.08 224.35 512.61 224.54 512.29 225.46 511.73 225.75 511.45 226.04 511.02 226.16 510.58 226.2 510.15 226.15 509.76 226.04 509.42 225.86 509.13 225.64 508.88 225.39 508.67 225.09 508.49 224.48 508.21 222.97 507.24 222.68 506.95 222.46 506.57 222.33 505.94 222.42 505.54 222.64 505.23 224.53 503.77 224.82 503.43 225.1 502.98 225.44 502.15 225.51 501.64 225.45 501.22 225.05 500.69 223.97 499.61 223.88 499.49 223.82 499.31 223.71 498.89 223.79 498.51 223.97 498.21 224.22 498 225.57 497.47 225.92 497.43 226.26 497.52 226.57 497.65 226.88 497.71 227.12 497.6 227.33 497.36 228.3 495.56 228.51 495.04 228.77 494.09 228.77 493.39 228.67 492.43 228.7 491.88 228.84 491.46 229.04 491.17 229.55 490.71 230.14 490.07 230.51 489.49 230.65 489.01 230.66 488.58 230.54 488.25 230.38 487.95 229.62 486.77 229.25 485.81 326.25 488.35 330.2 488.83 332.91 489.41 341.97 494.54 342.7 495.12 342.66 495.55 341.02 496.89 340.74 497.34 341.39 497.53 357.36 498.33 359.1 499.34 362.64 514.18 362.64 515.03 363.42 515.21 364.1 516.22 365.24 515.56 365.44 514.99 371.09 505.04 371.28 504.57 371.53 504.19 371.89 504.15 373.18 504.56 374.24 505.08 374.61 505.11 374.9 504.95 375.08 504.65 375.19 504.3 375.4 504.02 375.68 503.84 376.05 503.75 376.38 503.61 376.64 503.41 376.88 503.15 377.37 502.75 377.76 502.5 377.99 502.32 378.19 502.06 378.36 501.74 378.47 501.36 378.52 500.96 378.61 500.6 378.82 500.33 379.68 499.86 379.86 499.57 379.92 499.05 380.01 498.68 380.36 498.38 380.86 498.17 381.89 498.1 382.3 498.29 382.45 498.63 382.31 499.26 382.4 499.52 382.45 499.56 382.82 499.72 386.3 500.83 386.67 501.11 386.83 501.41 386.89 501.79 386.92 502.19 387.02 502.54 387.26 502.78 388.38 503.21 388.59 503.47 388.64 503.86 388.57 505.18 388.6 505.58 388.75 505.9 388.95 506.12 388.97 506.38 388.82 506.62 388.58 506.83 388.3 507.03 388.06 507.25 387.94 507.53 387.99 507.83 388.16 508.1 388.98 508.9 389.32 509.17 389.65 509.47 390.05 509.96 390.34 510.55 390.78 511.09 391.45 510.44 391.88 510.21 392.64 510.16 393.06 510.2 393.8 510.58 394.28 510.67 394.52 510.52 394.95 509.85 395.21 509.7 Z" id="ZMB-522" data-name="Southern"/>
<path d="M 244.51 437.12 244.01 437.25 243.77 437.38 243.48 437.57 243.24 437.8 242.78 438.32 241.61 440.12 241.16 441 240.53 442.61 240.35 442.91 240.13 443.2 239.75 443.82 239.63 444.32 239.55 444.93 239.61 446 240.03 447.36 239.86 449.51 239.87 450.32 239.85 450.71 239.72 451.05 239.34 451.31 238.57 451.55 238.27 451.72 238.02 451.95 237.8 452.23 237.63 452.61 237.51 453.1 237.42 453.9 237.25 454.5 236.86 455.13 236.3 455.82 236.1 456.3 235.97 456.99 235.93 458.33 235.99 459.02 236.13 459.53 238.13 463.07 238.24 463.41 238.29 463.8 238.21 466.76 237.98 467.39 237.57 468.16 236.62 469.58 235.58 470.58 235.35 470.92 235.26 471.59 235.42 473.56 235.33 473.98 235.1 474.39 234.58 474.73 234.12 474.78 233.69 474.73 233.3 474.63 232.88 474.61 232.51 474.66 232.19 474.81 231.94 475.03 231.49 475.56 229.44 477.37 229.21 477.61 229.06 478.04 229.03 478.64 229.35 481.14 229.25 485.81 229.62 486.77 230.38 487.95 230.54 488.25 230.66 488.58 230.65 489.01 230.51 489.49 230.14 490.07 229.55 490.71 229.04 491.17 228.84 491.46 228.7 491.88 228.67 492.43 228.77 493.39 228.77 494.09 228.51 495.04 228.3 495.56 227.33 497.36 227.12 497.6 226.88 497.71 226.57 497.65 226.26 497.52 225.92 497.43 225.57 497.47 224.22 498 223.97 498.21 223.79 498.51 223.71 498.89 223.82 499.31 223.88 499.49 223.97 499.61 225.05 500.69 225.45 501.22 225.51 501.64 225.44 502.15 225.1 502.98 224.82 503.43 224.53 503.77 222.64 505.23 222.42 505.54 222.33 505.94 222.46 506.57 222.68 506.95 222.97 507.24 224.48 508.21 225.09 508.49 225.39 508.67 225.64 508.88 225.86 509.13 226.04 509.42 226.15 509.76 226.2 510.15 226.16 510.58 226.04 511.02 225.75 511.45 225.46 511.73 224.54 512.29 224.35 512.61 224.27 513.08 224.39 513.77 224.5 514.23 224.67 514.61 225.62 516.01 226.08 516.51 226.62 516.96 226.95 517.14 227.32 517.28 227.72 517.36 228.16 517.39 228.56 517.36 228.93 517.29 229.26 517.15 229.55 516.96 230.01 516.46 230.65 515.61 231.11 515.1 231.38 514.9 231.71 514.79 232.08 514.83 232.44 514.95 232.78 515.13 233.34 515.56 233.79 516.07 233.98 516.35 234.12 516.66 234.19 517.02 234.18 517.9 233.13 525.21 232.45 527.02 231.96 527.72 231.53 528.17 231.24 528.35 231 528.71 230.88 529.25 230.89 530.18 231.06 530.67 231.3 531.02 231.51 531.28 231.56 531.59 231.23 532.05 230.91 532.34 230.28 532.76 230.04 533.06 229.92 533.52 229.91 534.27 230.03 535.24 230.16 535.56 230.49 536.16 230.7 536.43 230.94 536.67 232.35 537.73 232.82 538.22 233.08 538.46 233.38 538.65 233.75 538.79 234.18 538.87 235.06 538.95 235.49 539.04 235.87 539.17 236.16 539.37 236.31 539.66 236.3 540 235.9 540.5 235.28 541.12 235.08 541.41 234.85 541.65 234.59 541.85 234.3 541.99 234 542.15 233.69 542.29 233.39 542.46 233.12 542.67 232.86 542.91 232.67 543.2 232.31 543.85 231.86 544.39 231.37 544.86 231.09 545.32 230.29 547.17 229.66 548.21 229.43 548.47 227.76 552.29 227.26 553.14 226.87 553.63 225.94 554.03 224.84 554.31 224.5 554.44 224.2 554.6 223.93 554.8 223.69 555.05 223.48 555.32 222.52 556.32 221.64 556.88 221.3 557.02 220.93 557.11 220.52 557.18 220.17 557.28 219.88 557.45 218.83 558.34 218.55 558.53 217.32 559.18 216.8 559.63 209.92 568.59 209.65 568.83 209.07 569.23 208.75 569.37 208.4 569.48 207.34 569.66 207.09 569.74 207.01 569.79 206.94 569.97 206.88 570.3 207.07 571.12 207.14 571.26 207.26 571.36 207.45 571.56 209.28 573.16 211.71 574.75 211.99 574.97 212.21 575.22 212.37 575.53 212.57 576.63 212.76 577.33 213.58 579.11 213.97 579.41 214.44 579.57 221.58 580.42 222.42 580.65 222.8 580.81 223.46 581.16 224.02 581.57 224.24 581.81 224.32 582.38 224.26 583.23 223.65 586.49 223.58 587.58 223.66 588 223.79 588.36 224.11 588.95 226.13 595.45 225.98 596.14 225.59 597.07 224.43 598.98 223.83 599.76 223.32 600.25 219.8 601.91 219.12 602.11 218.51 602.43 217.95 602.85 217.76 603.84 217.84 604.37 218.01 604.8 218.17 605.09 218.27 605.43 218.27 605.85 218.08 606.47 217.69 607.32 216.92 608.54 216.43 609.08 216 609.43 214.14 610.38 213.6 610.8 213.33 611.34 213.09 612.14 212.84 613.85 212.91 614.62 213.1 615.15 213.33 615.37 213.54 615.63 213.84 616.19 213.89 616.58 213.8 617.04 212.48 619.27 211.81 620.07 210.65 621.93 210.4 622.17 209.29 622.98 208.81 623.5 208.63 624.01 208.5 624.7 208.46 628.44 208.55 628.96 208.81 629.7 208.88 630.08 208.81 630.55 208.63 631.08 208.17 631.78 207.84 632.19 207.15 632.79 206.98 632.97 206.76 633.27 206.35 633.69 206.14 633.97 205.73 635.43 205.04 640.09 205.04 640.11 204.22 639.55 202.83 640.16 201.96 638.95 200.14 638.14 195.45 637.23 193.26 637.32 192.54 637.17 192.08 636.85 191.74 636.54 191.38 636.39 185.55 635.5 182.49 635.5 181.82 635.71 181.35 636.18 180.98 636.64 180.24 637.05 179.2 637.95 178.48 638.26 177.83 638.3 177.23 638.21 176.14 637.83 175.55 637.4 175.13 636.93 174.58 636.55 172.84 636.25 171.55 635.64 169.51 635.27 166.62 634.28 165.39 634.06 164.18 634.22 161.33 635 160.78 635.25 160.02 634.83 156.41 634.71 155.14 634.53 153.89 634.62 151.88 635.01 148.96 635.59 146.04 636.17 143.12 636.75 140.19 637.32 137.28 637.9 134.36 638.48 131.44 639.05 128.51 639.63 125.58 640.2 122.66 640.77 119.74 641.35 116.83 641.93 113.91 642.5 110.99 643.08 108.06 643.66 105.14 644.24 103.11 644.64 101.82 644.67 99.43 645.13 96.65 645.65 96.27 644.77 96.21 643.89 96.7 642.91 95.14 641.67 93.85 640.16 92.46 639.18 91.45 638.72 90.46 638.43 88.24 638.26 87.08 638.41 85.91 638.7 84.74 638.83 83.56 638.51 82.73 637.66 82.68 636.68 82.83 635.62 82.63 634.53 81.92 633.79 78.9 632.66 77.27 631.39 75.6 629.54 74.3 627.51 73.78 625.67 73.37 624.9 70.52 621.94 69.53 621.4 66.28 620.55 62.16 618.83 60.32 617.66 57.6 615.3 55.48 614.21 54.59 613.47 53.95 612.47 53.2 609.28 52.24 607.47 50.85 605.68 47.79 602.49 46.84 601.81 42.77 600.22 41.91 600.22 41.5 599.92 41.21 599.33 41.22 598.14 41.08 597.59 40.21 596.72 38.05 596.08 37.07 595.5 36.47 594.63 35.75 592.71 30.8 585.14 30.28 584.55 29.64 584.18 28.55 583.99 28.17 583.8 27.8 583.39 27.33 582.58 26.26 581.17 25.81 580.28 25.14 579.63 23.32 579.33 23.05 579.17 22.55 578.64 22.21 578.45 21.98 578.58 21.73 578.79 21.08 578.94 20.05 579.33 19.52 579.38 18.6 579.07 12.72 574.44 12.28 573.51 12.09 572.36 11.8 571.37 11.06 570.95 9.75 570.78 9.47 570.28 9.65 569.55 9.7 568.62 9.32 567.64 8.14 565.74 7.83 564.9 7.88 563.75 8.24 562.48 8.81 561.28 9.44 560.4 9.58 559.55 8.45 559.04 6.18 558.54 6.07 558.13 6.04 556.62 5.92 555.96 5.69 555.66 4.87 554.97 4.57 554.56 4.27 553.56 4.15 552.69 3.9 551.83 3.17 550.87 3.73 550.93 5.46 550.87 3.08 547.18 1.27 544.98 1.11 543.5 1.11 542.4 1.11 538.26 1.11 533.93 1.05 533.74 1.06 530.66 1.07 523.69 1.09 516.73 1.11 509.77 1.11 502.8 1.11 499.8 1.11 497.73 1.11 496.29 1.11 493.57 1.11 483.29 1.1 473.01 1.09 462.72 1.08 452.44 1.08 442.16 1.07 431.88 1.06 421.59 1.06 411.3 1.05 401.03 1.04 390.74 1.04 380.46 1.03 376.36 2.27 376.56 4.31 377.55 5.14 378.09 6.81 379.73 7.9 380.54 8.22 380.71 8.71 380.85 9.35 380.93 10.51 380.92 11.15 380.83 11.65 380.71 13.61 379.82 13.87 379.62 14.09 379.34 14.41 378.7 14.6 378.42 14.85 378.21 15.77 377.69 16.05 377.46 16.26 377.19 16.96 375.98 17.2 375.75 17.5 375.58 17.87 375.47 18.27 375.44 18.83 375.56 19.49 375.79 21.14 376.63 21.86 377.09 31.79 385.26 36.45 388.05 36.61 388.18 36.79 388.4 37.37 389.67 37.61 389.92 39.3 391 39.73 391.15 40.28 391.26 40.96 391.3 42.22 391.41 42.85 391.93 44 392.25 44.33 392.44 44.72 392.89 45.03 393.46 45.17 393.96 45.52 394.52 46.35 394.81 48 395.13 48.75 395.55 49.33 395.97 49.97 396.33 50.84 396.52 51.62 396.4 52.1 395.66 52.24 395.26 53.06 391.3 53.17 390.95 53.42 390.72 53.79 390.6 56.97 390.45 57.33 390.34 57.62 390.15 59.3 388.5 59.57 388.3 60 388.21 60.57 388.28 62.25 388.98 68.21 392.79 69.16 393.75 69.54 394.31 69.95 395.31 70.17 396.03 70.31 396.32 70.48 396.57 70.66 396.69 70.96 396.77 71.39 396.8 72.59 396.53 74.33 395.79 74.69 395.68 75.1 395.63 75.63 395.66 76.22 395.84 77.08 396.3 77.43 396.68 77.61 397.07 77.62 397.3 77.59 398.07 77.65 398.91 77.87 399.64 78.01 399.97 78.18 400.26 78.59 400.8 79.16 401.21 79.5 401.39 80.15 401.57 85.42 402.14 85.81 402.22 86.1 402.39 85.98 402.74 85.79 403.04 84.89 404.1 83.38 406.39 83.07 407.75 85.87 406.78 86.09 407.24 86.19 407.61 86.13 408.05 85.87 408.68 88.66 408.68 89.75 408.11 91.47 406.62 92.67 406.31 93.52 406.4 94.17 406.54 94.83 406.57 95.7 406.31 96.4 405.85 98.49 403.98 100.41 403.03 107.43 401.23 108.59 400.57 111.02 398.76 113.8 398.1 116.17 396.83 117.25 396.52 118.36 396.93 119.45 397.68 120.65 398.02 122.88 396.68 123.64 396.47 124.4 396.35 125.18 396.06 126.77 394.55 127.5 394.19 127.46 395.52 128.01 396.27 129 396.56 130.3 396.52 131.72 397.04 132.27 397.17 132.76 397.2 133.02 397.19 133.32 397.01 133.59 396.9 133.95 396.84 134.31 396.73 134.86 396.35 135.29 396.31 135.84 396.46 136.81 396.95 137.51 397.19 138.33 397.29 138.95 397.2 139.65 396.99 139.95 396.84 140.51 396.45 141.22 395.78 141.85 394.99 142.13 394.89 142.43 394.95 142.97 395.56 143.26 395.74 143.73 395.58 143.96 395.23 144.13 394.82 144.25 394.41 144.4 394.04 144.59 393.74 144.85 393.51 145.17 393.44 145.55 393.55 146.03 393.94 146.5 394.15 147.07 394.2 147.49 394.15 147.86 394.04 148.46 393.75 148.72 393.56 148.94 393.27 149.31 392.65 149.54 392.42 149.9 392.29 150.34 392.28 150.92 392.35 151.35 392.31 151.69 392.18 152.11 391.62 152.42 391.46 153.13 391.26 154.03 390.76 154.39 390.72 154.75 390.83 155.78 391.71 157.08 392.61 157.61 392.88 158.39 393.04 158.92 393.06 159.32 392.96 159.49 392.73 159.46 392.42 159.25 392.13 158.88 391.8 158.68 391.53 158.68 391.22 158.86 391 159.1 390.75 159.26 390.46 159.35 390.11 159.39 389.84 159.68 389.83 160.13 390.05 160.83 390.71 161.13 391.19 161.28 391.68 161.28 392.09 161.36 392.88 161.7 393.24 162.3 393.56 164.88 394.33 165.25 394.33 165.56 394.22 165.83 394.01 166.05 393.75 166.24 393.55 166.43 393.52 166.64 393.86 166.8 394.2 167 394.5 167.27 394.68 167.7 394.66 167.96 394.44 168.19 394.17 168.44 393.97 168.81 393.9 169.32 394 170.25 394.08 170.65 394.06 170.97 393.94 171.13 393.75 171.05 393.47 170.86 393.24 170.64 393.01 170.51 392.78 170.61 392.57 171.26 392.39 171.55 392.2 171.73 391.88 171.93 391.66 172.19 391.58 173.74 393.18 174 393.55 174.37 393.89 174.87 394.26 175.74 394.73 176.23 395.38 176.44 395.75 176.65 396.02 177.47 396 177.88 396.07 178.56 396.35 178.9 396.4 179.17 396.26 179.29 396 179.27 395.66 179.11 394.99 179.18 394.69 179.39 394.53 179.71 394.57 180.35 394.75 180.64 394.75 180.87 394.83 180.97 395.26 180.8 396.53 180.81 396.87 180.87 397.09 180.98 397.17 181.12 397.19 181.49 397.17 181.63 397.08 181.75 396.86 181.79 396.09 181.86 395.69 182 395.35 182.22 395.12 182.56 394.98 182.89 394.89 183.21 394.73 183.74 394.4 183.97 394.35 184.21 394.47 184.56 394.76 186.18 396.62 186.97 397.34 187.34 397.76 187.53 398.06 187.67 398.38 187.85 399.08 188.37 400.36 188.41 400.74 188.32 402.48 188.36 402.87 188.43 403.22 188.55 403.55 188.87 404.15 189.01 404.48 189.36 405.08 189.74 405.39 190.29 405.68 193.78 406.86 195.14 407.03 196.66 407.45 198.31 407.71 198.78 407.84 206.45 411.61 207.65 412.04 208.34 412.14 210.96 411.68 211.44 411.8 211.95 412.17 212.67 413.02 212.95 413.6 213.11 414.1 213.12 416.58 213.06 417 212.85 417.82 212.56 418.55 211.99 419.48 211.58 420.04 211.4 420.33 211.27 420.63 211.21 420.91 211.12 421.08 210.8 422.61 210.67 425.58 210.57 425.97 210.4 426.29 209.69 427.06 209.17 427.49 208.87 427.66 207.17 428.5 205.65 429 205.27 429.19 205.02 429.36 204.94 429.46 204.81 429.62 204.63 429.98 204.6 430.16 204.58 430.8 204.77 432.37 204.77 432.74 204.44 434.94 204.47 435.32 204.56 435.69 204.83 436.35 204.98 436.64 205.79 437.73 207.22 439.31 207.79 439.75 208.28 440.05 208.84 440.33 209.34 440.49 209.83 440.58 210.36 440.55 210.95 440.47 212.26 440.04 212.86 439.94 213.52 439.91 216.76 440.14 217.43 440.07 220.04 439.48 221.4 438.96 221.7 438.78 222.34 438.51 223.37 438.16 226.32 437.54 226.99 437.31 228.24 436.7 228.6 436.58 229.52 436.53 233.96 436.95 235.21 437.25 235.97 437.56 236.22 437.8 236.5 438 236.84 438.17 237.27 438.3 237.88 438.38 238.83 438.35 240.05 438.22 241.6 437.53 241.96 437.29 242.77 437.04 244.51 437.12 Z" id="ZMB-523" data-name="Western"/>
<path d="M 747.59 83.83 747.74 87.81 748.07 88.73 748.73 89.28 749.15 89.14 749.6 88.81 750.39 88.77 750.85 89.04 751.84 89.95 752.45 90.24 752.47 92.1 751.27 97.02 752.1 98.88 753 99.17 753.76 98.83 754.51 98.32 755.43 98.09 756.18 98.44 756.46 99.17 756.61 99.99 756.97 100.64 758.48 101.18 759.08 99.93 759.31 97.92 759.7 96.15 761.28 96.9 764.96 97.09 766.33 98.04 767.31 99.76 767.62 100.67 767.72 101.7 767.53 102.44 767.18 102.99 766.95 103.63 767.14 104.64 767.78 105.6 769.49 106.65 770.24 107.45 771.23 109.3 771.81 110.13 772.63 110.84 773.46 111.28 775.99 112.2 776.43 112.73 777.5 115.42 777.94 117.33 777.45 118.76 775.43 121.87 774.15 125.1 773.79 126.82 773.74 128.58 774.66 129.83 780.23 132.28 781.66 133.48 782.78 134.69 784.01 135.7 785.78 136.31 787.05 137.96 788.41 138.9 789.38 140.01 789.54 142.16 789.11 145.97 789.36 147.61 791.15 151.82 791.73 152.62 793.63 154.3 794.15 154.88 795.49 157.94 796.54 159.14 798.4 159.38 798.41 161.17 798.89 162.41 798.95 163.08 798.98 163.33 799 163.61 797.88 165.26 796.82 166.21 794.15 168.13 793.27 168.51 792.36 169.11 789.04 172.79 787.93 175.53 787.18 176.72 785.78 177.56 784.75 177.75 783.51 178.97 782.61 179.37 781.56 179.32 779.3 178.88 778.36 179.04 777.41 179.42 775.69 179.75 774.77 180.06 773.94 180.77 772.66 182.69 771.65 183.3 770.82 183.27 770.11 183.08 769.47 183.3 768.86 184.5 768.8 185.48 769.34 185.86 770.2 185.86 771.14 185.72 772.12 186.55 772.64 188.71 772.85 190.77 773.05 192.77 773.72 194.83 774.7 196.72 775.96 198.43 777.48 199.93 779.67 203.71 779.08 205.75 778.14 207.66 773.35 214.93 773.25 215.38 773.48 216.15 773.39 216.56 773.01 216.88 771.97 217.32 771.66 217.69 771.54 218.65 771.68 219.53 771.66 220.41 771.09 221.34 769.35 219.93 768.71 220.89 769.03 226.7 768.95 227.54 768.5 228.82 767.5 230.94 767.73 231.47 768.87 231.89 770.01 231.9 771.21 231.75 772.32 231.94 773.24 232.97 773.65 234.07 773.81 236.42 770.48 237.25 767.76 238.42 766.47 240.34 766.47 243.55 761.88 251.01 759.01 257.31 749.84 260.18 734.36 264.77 725.76 265.34 721.75 265.34 718.88 268.21 717.74 272.22 714.3 275.66 710.28 275.66 704.63 274.43 704.54 275.85 704.15 277.3 703.61 278.69 702.39 280.16 702.21 280.81 698.82 283.45 697.98 284.33 697.09 286.37 696.62 287.12 695.99 287.84 695.54 288.2 695.27 288.66 695.18 289.64 695.03 290.08 694.36 290.96 694.21 291.5 694.21 294.49 692.74 301.14 692.04 301.97 691.76 303.65 691.48 304.2 691.17 304.67 690.95 305.33 690.95 307.62 690.53 309.87 690.48 310.72 690.33 311.46 689.7 312.85 689.38 314.25 688.96 314.51 688.38 314.67 687.77 315.12 687.14 316.21 686.05 319.3 685.87 320.54 685.24 321.18 683.84 321.74 682.41 322.12 681.67 322.19 681.46 322.8 681.15 323.21 680.28 324.06 679.98 324.18 679.6 324.17 679.19 324.21 678.83 324.52 678.77 324.82 678.87 325.56 678.83 325.88 678.52 326.96 678.35 328.3 678.42 329.72 678.83 331.04 678.02 331.33 677.46 331.68 676.9 331.82 676.04 331.47 675.86 332.08 675.52 332.53 675.03 332.81 673.6 332.99 673.22 333.21 672.52 334.07 671.64 334.75 670.1 335.51 669.01 336.21 668.86 335.89 668.64 335.57 668.54 335.24 668.08 335.24 667.88 336.87 666.95 337.9 665.92 338.82 665.43 340.17 665.28 340.84 664.88 341.36 664.36 341.69 662.96 342.04 662.58 342.63 661.38 346.56 660.86 349.26 660.06 351.85 658.4 353.96 653 357.96 651.88 358.42 650.51 358.26 649.13 357.89 648 357.73 646.5 358.19 645.8 358.68 645.76 355.27 645.82 353 645.7 351.79 645.57 351.11 644.77 350.03 643.16 348.31 641.87 345.85 641.42 344.54 640.38 329.64 640.12 328.58 639.73 327.68 639.43 327.37 639.14 327.11 638.55 326.74 636.19 325.6 635.8 325.48 634.93 325.34 631.9 325.35 631.5 325.4 630.14 325.87 629.51 326.18 629.25 326.38 629.06 326.64 628.96 326.99 628.87 328.26 628.75 328.85 628.7 328.99 628.06 330.45 627.87 330.76 627.67 331.03 627.43 331.28 627.15 331.47 626.82 331.61 626.48 331.7 626.08 331.75 625.21 331.76 624.76 331.72 623.87 331.1 618.79 326.21 617.92 325.59 617.09 325.58 616.74 325.6 616.14 325.54 614.3 324.92 613.87 324.85 612.99 324.74 610.59 324.08 610.15 324.02 609.71 324 607.5 324.5 606.66 324.49 606.26 324.4 605.6 324.07 605.02 323.67 603.67 323.03 599.47 320.17 599.01 319.69 598.79 319.21 599.08 317.55 599.09 317.15 598.97 316.39 597.96 312.92 597.91 312.58 597.96 312.22 598.71 310.49 598.88 310.18 599.79 309.15 600.19 308.58 600.35 308.25 600.5 307.9 600.56 307.44 600.55 306.95 600.34 306.3 600.09 305.94 599.76 305.68 598.42 305.09 597.67 304.58 597.19 304.12 596.68 303.43 595.79 301.36 595.48 301.04 595.13 300.87 594.77 300.89 594.48 301.05 593.63 302.12 593.11 302.55 592.54 302.92 591.59 303.37 590.93 303.18 590 302.69 588.07 301.21 587.28 300.46 586.8 299.88 586.71 299.52 586.7 299.13 586.76 298.72 587.34 297.32 587.43 296.85 587.41 296.28 587.17 295.44 586.81 294.9 586.46 294.57 585.79 294.19 584.03 293.42 583.18 292.86 582.74 292.49 582.44 292.14 582.31 291.81 582.21 291.46 582.14 290.7 582.15 289.9 582.2 289.51 582.31 289.18 583 287.81 583.19 287 583.29 283.97 583.25 283.45 583.12 282.91 582.75 282.17 582.4 281.82 581.99 281.6 581.23 281.47 580.46 281.54 579.77 281.76 579.35 281.82 578.89 281.76 578.26 281.48 577.87 281.11 577.54 280.65 577.14 279.95 576.79 279.6 576.45 279.36 576.04 279.29 575.2 279.28 574.05 279.48 573.56 279.45 572.94 279.28 571.91 278.71 571.29 278.44 570.75 278.27 569.54 278.27 569.16 278.19 568.82 278.05 567.85 277.52 567.48 277.38 565.81 277.07 565.09 276.79 564.13 276.26 563.02 275.86 562.69 275.7 562.39 275.51 562.05 275.34 561.69 275.23 560.84 275.09 559.32 274.51 558.99 274.17 558.35 272.97 557.98 272.62 557.54 272.43 556.7 272.28 556.16 272.08 555.55 271.79 554.54 271.16 554.05 270.75 553.64 270.25 553.32 269.72 552.3 268.34 552.07 267.89 551.96 267.55 551.88 267.19 551.77 266 551.7 265.63 551.59 265.29 550.31 263.04 549.13 261.59 548.53 261.03 548.1 260.74 547.74 260.74 546.19 260.94 544.7 261.26 539.18 263.55 538.91 263.74 538.66 263.97 538.45 264.25 538.3 264.58 538.18 264.97 537.86 268.44 537.76 268.84 537.63 269.19 537.28 269.84 536.69 270.71 536.47 270.96 536.16 271.18 535.9 271.3 534.6 271.56 534.59 271.34 534.83 271.2 535.08 270.96 535.33 270.65 535.55 270.27 535.76 269.8 535.42 269.14 535.52 268.25 535.74 267.32 535.76 266.54 535.29 265.68 533.94 264.26 533.39 263.28 533.14 262.09 533.39 259.04 532.92 256.82 532.81 255.57 533.18 254.57 533.92 253.82 535.72 253.6 536.09 253.46 565 248.82 566.12 248.35 567.07 247.49 578.82 232.73 578.85 232.3 578.71 231.99 578.49 231.74 578.37 231.42 578.32 231.03 578.4 230.17 578.95 228.7 579.03 228.33 579.01 227.6 579.06 227.29 579.14 227.08 579.39 226.7 581.33 225.98 582.35 225.17 583.9 223.93 584.66 222.55 585.13 221 585.73 219.75 586.91 219.22 587.81 219.11 588.41 218.79 588.81 218.29 589.07 217.69 589.51 216.32 589.87 215.65 590.43 215.04 591.13 214.72 591.88 214.75 593.46 215.04 593.83 214.82 594.5 213.89 594.89 213.68 596.48 212.29 596.89 211.64 597.45 209.96 598.93 207.02 604.49 200.13 605.72 197.76 605.89 197.08 606.18 196.33 606.82 195.7 607.46 195.4 608.3 196.37 609.27 196.5 609.6 195.92 608.25 194.5 609.24 194.43 610.09 194.1 610.78 193.73 611.26 193.56 611.98 193.45 613.91 192.8 614.51 192.42 615.12 190.9 615.72 188.7 616.58 187.02 618 187 617.25 187.86 617.87 188.62 619.08 188.98 620.12 188.67 620.21 187.07 620.53 186.4 621.27 187 621.64 187.77 621.75 188.49 621.5 189.17 620.84 189.84 622.34 189.83 623.4 189.43 626.43 186.79 626.51 186.4 626.61 185.94 627.04 185.46 627.51 185.1 627.82 184.67 628.08 184.13 628.18 183.82 627.93 183.41 626.55 181.92 626.24 181.27 626.31 180.64 626.89 180.01 629.33 180.02 630.45 179.55 630.15 178.1 629.63 177.66 629.11 177.7 628.59 177.96 628.08 178.1 627.26 178.01 626.98 177.75 626.83 177.32 626.43 176.74 625.58 175.87 625.43 175.41 628.42 173.22 629.4 172.78 630.66 172.56 631.77 172.61 633.23 172.87 634.56 173.3 635.32 173.91 635.8 173.37 637.14 172.61 637.65 172.09 637.88 171.31 637.65 168.57 637.83 168.11 638.28 167.91 639.33 167.9 639.65 167.7 639.54 167.26 639.09 166.69 639.38 166.02 640.1 165.76 641.88 165.57 643.13 165.11 645.47 163.91 646.34 163.66 646.78 163.4 647.34 162.16 647.99 161.79 648.74 161.93 649.22 162.39 649.55 162.91 649.84 163.19 654.24 162.31 654.03 145.3 651.74 143.01 644.88 140.15 639.73 136.72 637.44 128.71 634.58 121.28 629.44 112.7 624.29 107.55 628.86 101.83 630.58 97.82 634.01 96.11 638.02 92.68 641.45 90.39 646.02 93.25 651.19 92.84 655.75 94.96 657.46 90.39 662.61 92.1 667.76 91.53 672.34 88.67 678.06 85.81 686.06 84.67 692.93 85.24 699.79 86.96 707.23 87.53 706.65 80.66 703.22 73.23 700.55 65.12 702 65.31 710.89 65.13 713.65 65.81 716.12 67.46 716.87 68.4 718.2 71.51 719.18 73 720.11 73.61 722.67 73.82 728.54 75.09 733.42 75.5 734.29 75.96 735.23 76.96 735.48 77.49 735.7 78.51 736.09 79.02 736.59 79.19 737.78 79.07 738.28 79.17 741.44 81.25 746.54 83.16 747.59 83.83 Z" id="ZMB-5511" data-name="Muchinga"/>
</g>
</svg>