<?xml version="1.0"?>
<svg xmlns="http://www.w3.org/2000/svg" version="1.2" baseProfile="tiny" width="800" height="521" viewBox="0 0 800 521" stroke-linecap="round" stroke-linejoin="round">
<g id="ne_10m_admin_1_states_provinces">
<path d="M 317.95 92.02 317.04 96.4 313.8 99.85 310.84 104.48 309.6 109.9 310.21 114.82 310.16 119.61 306.82 122.03 303.6 124.31 292.17 127.83 281.28 133.27 275.91 134.7 274.37 139.11 279.61 142.91 286.24 144.65 289.65 150.33 288.09 157.71 288.73 163.95 283.04 162.9 278.37 163.14 275.73 168.97 264.37 177.14 250.88 183.32 243.75 186.26 237.43 189.22 239.02 193.83 238.07 198.65 232.45 196.96 226.83 195.28 221.54 196.4 216.56 198.72 206.78 195.83 197.13 189.95 193.01 186.43 192.34 181.05 190.49 177.84 186.88 176.07 178.02 171.94 169.87 167.38 171.02 160.57 170.71 153.97 167.13 150.75 166.36 146.2 166.97 139.51 167.69 132.95 170.73 129.01 174.68 125.9 177.36 122.96 180.69 120.86 184.77 121.26 188.87 121.06 196.71 117.52 205.01 114.86 203.15 112.72 200.29 110.8 200.76 106.5 203.61 102.8 209.64 105.97 215.95 108.49 219.12 109.18 222.25 108.79 224.3 105.97 226.24 103.67 235.18 107.31 244.71 107.25 245.58 103.41 240.63 99.88 242.14 93.64 242.34 87.68 239.12 85.8 235.98 84.36 234.25 80.47 233.86 76.11 239.24 79.71 244.79 79.02 247.95 72.41 249.36 65.15 256.12 66.65 262.13 68.28 267.01 72.22 271.83 76.28 281.52 75.86 282.31 63.13 293.88 67.98 298.38 78.3 304.75 88.05 317.95 92.02 Z" id="DOM-1390" data-name="Santiago"/>
<path d="M 179.98 87.97 187.65 100.09 203.61 102.8 200.76 106.5 200.29 110.8 203.15 112.72 205.01 114.86 196.71 117.52 188.87 121.06 184.77 121.26 180.69 120.86 177.36 122.96 174.68 125.9 170.73 129.01 167.69 132.95 166.97 139.51 166.36 146.2 167.13 150.75 170.71 153.97 171.02 160.57 169.87 167.38 158.32 167.27 148.94 162.85 139.43 158.04 129.75 153.44 123.05 144.96 114.06 139.48 110.41 135.68 108.26 130.99 118.85 126.52 121.47 112.75 123.13 108.19 122.65 103.29 125.32 94.13 130.37 86.22 133.24 82.76 136.97 85.4 143.56 87.72 150.59 87.15 154.81 85.1 159.44 84.54 166.2 88.29 173.02 88.9 176.22 86.76 179.98 87.97 Z" id="DOM-1391" data-name="Santiago Rodríguez"/>
<path d="M 249.36 65.15 247.95 72.41 244.79 79.02 239.24 79.71 233.86 76.11 234.25 80.47 235.98 84.36 239.12 85.8 242.34 87.68 242.14 93.64 240.63 99.88 245.58 103.41 244.71 107.25 235.18 107.31 226.24 103.67 224.3 105.97 222.25 108.79 219.12 109.18 215.95 108.49 209.64 105.97 203.61 102.8 187.65 100.09 179.98 87.97 182.45 80.52 181.11 72.62 182.48 68 187.74 68.5 187.21 61.32 186.59 54.15 188.47 47.66 190.87 41.3 198.27 43.8 205.28 47.05 210.1 50.52 215.96 51.97 224.75 54.59 232.07 60.12 240.23 64.01 249.36 65.15 Z" id="DOM-1392" data-name="Valverde"/>
<path d="M 169.87 167.38 178.02 171.94 186.88 176.07 190.49 177.84 192.34 181.05 193.01 186.43 197.13 189.95 206.78 195.83 216.56 198.72 221.54 196.4 226.83 195.28 232.45 196.96 238.07 198.65 241.66 202.12 243.49 206.77 241.68 211.41 237.14 213.54 236.27 217.74 233.22 220.52 227.9 224.05 225.27 229.48 223.82 240.23 223.71 251.39 222.02 255.07 219.06 257.78 215.9 256.55 214.08 252.8 207.02 254.9 208.4 263.06 208.14 265.81 205.88 268.75 207.32 271.12 207.81 273.91 203.71 275.74 200.17 277.02 194.46 285.1 184.94 287.53 177.05 283.31 166.75 286.24 160.81 287.22 154.82 286.6 149.82 288.21 145.15 291.06 134.6 290.29 124.86 285.6 114.14 283.55 103.94 279.97 107.02 273.08 104.52 266.92 98.66 265.6 94.64 261.53 94.65 256.2 93.09 251.22 88.69 247.57 83.8 244.54 86.39 233.99 82.64 229.46 84.46 217.74 89.83 206.92 94.62 202.81 100.74 202.22 107.45 200.35 110.85 193.49 113.39 184.25 117.78 176.44 125.13 177.55 131.93 181.48 140.19 181.03 147 176.09 147.43 169.38 148.94 162.85 158.32 167.27 169.87 167.38 Z" id="DOM-1393" data-name="San Juan"/>
<path d="M 528.74 280.53 526.03 283.35 524.79 286.69 526.01 286.78 527.18 286.29 528.15 291.72 527.75 297.15 523.29 302.64 519.8 308.32 528.39 317.04 541.11 319.48 539.72 326.4 538.98 332.09 538.98 332.1 527.73 324.69 522.93 322.26 519.75 321.9 518.37 323.93 518.49 326.37 518.88 328.81 518.28 330.79 516.34 331.4 513.29 331.39 510.5 330.88 509.27 330.11 505.63 324.2 503.9 322.61 502.28 322.11 468.88 318.62 462.83 318.89 463.17 312.45 457.12 311.58 453.05 312.64 448.93 312.26 446.26 308.27 443.62 304.69 437.82 307.79 437.25 313.98 442.06 320.76 440.82 328.59 440.82 328.6 438.09 329.44 435.82 330.54 435.01 329.18 434.83 324.49 432.08 320.62 427.21 320.45 422.31 320.6 419.82 318.05 419.23 314.32 415.21 309.65 409.88 305.88 405.87 298.96 403.55 291.29 404.6 285.97 406.48 281.15 400.61 272.14 400.44 262.43 406.55 264.52 410.52 271.32 417.42 273.75 424.53 275.58 434.78 277.49 443.98 273.43 444.56 271.44 445.55 269.51 448.11 268.69 450.85 268.56 455.88 268.76 460.91 269.01 466.78 273.4 471.7 278.69 474.7 282.46 475.92 286.77 480.48 290.95 482.21 297.08 492.21 287.14 504.81 282.69 509.53 281.73 513.62 279.21 520.98 277.7 528.74 280.53 Z" id="DOM-1394" data-name="Santo Domingo"/>
<path d="M 453.95 195.76 450.71 209.69 446.97 223.78 440.9 228.25 433.85 224.96 429.51 224.2 426.85 228 422.99 227.41 418.45 226.55 412.74 227.88 408.59 231.38 399.4 233.49 388.16 235.75 382.51 226.46 373.19 220.15 368.64 217 365.24 212.72 364.57 209.53 362.59 207.12 357.1 204.61 356.08 198.75 354.11 193.71 351.64 188.59 357.75 181.87 366.37 178 371.68 175.38 376.5 173.69 376.08 173.11 375.67 172.53 375.58 171.61 374.9 171.79 378.93 170.53 383.12 171.62 387.67 172.41 392.13 171.66 401.73 171.5 411.22 172.55 417.37 172.99 423.01 175.42 427.9 177.58 433.02 179.09 439.69 179.16 446.69 179.62 452.06 181.21 456.68 184 455.94 189.78 453.95 195.76 Z" id="DOM-1395" data-name="Sánchez Ramírez"/>
<path d="M 598.49 282.26 601.33 284.24 604.3 285.97 607.93 285.62 611.47 286.56 616.74 292.05 622.91 296.37 629.72 295.44 636.08 296.07 634.96 301.08 633.36 306.73 629.88 312.19 627.06 317.94 628.53 320.81 631.13 322.92 633.83 329.17 635.13 335.21 634.94 335.22 630.84 334.52 621.34 331.46 617.03 330.79 613.29 329.63 607.02 324.55 602.23 323.38 598.05 324.21 593.8 325.59 589.5 325.87 585.15 323.38 580.62 327.38 552.46 329.44 544.04 332.4 539.6 332.5 538.98 332.1 538.98 332.09 539.72 326.4 541.11 319.48 528.39 317.04 519.8 308.32 523.29 302.64 527.75 297.15 528.15 291.72 527.18 286.29 526.01 286.78 524.79 286.69 526.03 283.35 528.74 280.53 541.1 259.89 553.93 247.06 553.92 254.58 557.8 261.44 559.04 270.42 560.56 279.25 565.5 286.4 570.45 293.55 573.47 300.79 576.77 307.89 582.94 301 587.58 295.26 591.1 287.17 598.49 282.26 Z" id="DOM-1396" data-name="San Pedro de Macorís"/>
<path d="M 171.83 23.35 171.83 23.36 173.31 30.71 177.62 37.01 184.37 38.86 190.87 41.3 188.47 47.66 186.59 54.15 187.21 61.32 187.74 68.5 182.48 68 181.11 72.62 182.45 80.52 179.98 87.97 176.22 86.76 173.02 88.9 166.2 88.29 159.44 84.54 154.81 85.1 150.59 87.15 143.56 87.72 136.97 85.4 133.24 82.76 130.37 86.22 121.45 82.24 113.19 77.06 109.92 71.41 104.47 69.95 81.67 72.61 60.63 64.17 58.18 63.58 58.4 60.13 57.63 56.3 55.71 50.33 59.87 51.2 63.76 53.08 62.94 48.8 59.09 40.43 59.32 38.28 59.32 36.66 53.5 36.38 52.76 34.07 55.11 30.65 58.52 27.12 59.5 26.46 60.61 26.24 63.03 26.3 64.5 25.72 66.91 22.94 68.2 21.85 70.79 20.87 72.71 20.42 74.61 19.58 77.1 17.42 75.61 14.7 75.38 12.27 76.52 10.55 79.31 9.88 80.99 10.13 83.58 11.24 85.24 11.49 85.96 11.03 87.47 8.99 88.25 8.54 110.52 6.93 116.18 7.68 121.77 9.58 142.47 19.74 148.54 20.9 154.31 18.77 158.68 21.79 161.8 23.15 171.41 23.47 171.83 23.35 Z" id="DOM-1964" data-name="Monte Cristi"/>
<path d="M 355.89 49.45 353.55 55.59 350.36 61.36 346.71 62.44 342.83 62.41 338.99 63.38 335.12 63.87 332.39 63.23 329.56 63.22 326.17 66.12 324.52 70.42 322.75 81.91 317.95 92.02 304.75 88.05 298.38 78.3 293.88 67.98 282.31 63.13 281.52 75.86 271.83 76.28 267.01 72.22 262.13 68.28 256.12 66.65 249.36 65.15 240.23 64.01 232.07 60.12 224.75 54.59 215.96 51.97 210.1 50.52 205.28 47.05 198.27 43.8 190.87 41.3 184.37 38.86 177.62 37.01 173.31 30.71 171.83 23.36 171.83 23.35 173.94 22.8 174.53 21.14 174.64 18.93 175.79 16.67 178.34 15.74 180.16 17.75 182.57 23.47 184.27 22.48 185.54 21.42 186.44 20.2 187.02 18.77 185.17 18.23 184.79 17.96 184.75 17.4 184.05 15.93 187.45 17.19 190.3 17.04 193.2 16.35 196.7 15.93 198.93 14.33 202.94 7.19 205.59 5.58 208.88 4.78 215.91 1.48 219.72 1 223.22 1.86 226.55 3.71 228.35 6.42 227.24 9.88 231.42 11.49 233.04 11.49 231.95 8.14 231.42 6.93 241.91 8.54 245 8.24 251.4 6.82 253.89 6.93 256.55 8.62 266.09 19.39 266.88 21.46 265.72 23.47 273.89 23.52 277.01 24.97 285.27 31.54 293.13 35.32 301.48 38.1 311.15 39.48 324.24 39.57 325.33 38.95 326.45 37.49 329.06 35.78 332.03 34.34 334.21 33.7 342.67 36.22 355.89 49.45 Z" id="DOM-1965" data-name="Puerto Plata"/>
<path d="M 130.37 86.22 125.32 94.13 122.65 103.29 123.13 108.19 121.47 112.75 118.85 126.52 108.26 130.99 110.41 135.68 114.06 139.48 110.37 143.14 105.93 145.7 100.76 144.06 95.46 142.69 92.8 145.7 91.19 149.66 86.61 151.27 82.23 153.77 78.63 157.03 64.58 150.56 57.43 143.63 56.52 142.75 52.65 137.6 51.58 133.27 53 131.91 58.85 128.75 60.91 127.21 63.65 120.6 64.85 119.37 67.33 114.39 67.47 104.71 64.89 87.76 58.83 74.19 57.83 69.26 58.18 63.58 60.63 64.17 81.67 72.61 104.47 69.95 109.92 71.41 113.19 77.06 121.45 82.24 130.37 86.22 Z" id="DOM-1966" data-name="Dajabón"/>
<path d="M 416.3 66.24 416.3 66.26 416.43 67.54 412.41 78.82 401.68 84.73 396.62 84.4 391.99 84.68 390.71 90.25 390.05 96.45 387.74 96.03 385.4 96.05 380.46 88.41 374.18 83.18 367.68 86.73 363.23 92.87 358.11 96.16 355.55 90.37 351.96 88.72 348.04 87.33 340.81 95.81 340.89 110.27 340.06 122.47 335.38 135.16 329.28 136.29 324.92 125.9 320.47 126.81 315.61 128.61 308.77 127.97 303.6 124.31 306.82 122.03 310.16 119.61 310.21 114.82 309.6 109.9 310.84 104.48 313.8 99.85 317.04 96.4 317.95 92.02 322.75 81.91 324.52 70.42 326.17 66.12 329.56 63.22 332.39 63.23 335.12 63.87 338.99 63.38 342.83 62.41 346.71 62.44 350.36 61.36 353.55 55.59 355.89 49.45 355.89 49.45 363.81 57.37 367.41 59.8 371.36 61.7 375.81 62.97 385.69 63.97 393.64 66.69 408.19 69.4 411.44 69.35 413.61 68.58 415.54 67 416.3 66.24 Z" id="DOM-1967" data-name="Espaillat"/>
<path d="M 385.4 96.05 384.11 101.58 382.37 108.52 376.19 113.49 367.08 117.68 362.86 126.83 361.09 136.98 358.05 146.28 357.86 155.51 349 154.93 342.94 149.36 338.59 142.49 335.38 135.16 340.06 122.47 340.89 110.27 340.81 95.81 348.04 87.33 351.96 88.72 355.55 90.37 358.11 96.16 363.23 92.87 367.68 86.73 374.18 83.18 380.46 88.41 385.4 96.05 Z" id="DOM-1968" data-name="Hermanas"/>
<path d="M 184.94 287.53 195.23 297.42 208.77 301.88 215.6 303.06 221.36 306.73 221.29 310.57 216.71 312.22 212.45 307.05 209.55 312.68 206.16 318.01 200.57 321.91 193.92 324.22 190.43 326.93 187.96 330.5 184.46 332.8 180.83 334.97 177.03 340.66 176.39 347.69 168.59 348.21 162.55 343.47 156.92 333.43 146.55 332.81 138.24 335.91 129.85 333.88 122.01 329.29 113.69 325.72 91.45 317.43 85.36 298.5 87.79 293.96 89.26 289.07 88.91 286.31 89.96 283.91 96.9 281.81 103.94 279.97 114.14 283.55 124.86 285.6 134.6 290.29 145.15 291.06 149.82 288.21 154.82 286.6 160.81 287.22 166.75 286.24 177.05 283.31 184.94 287.53 Z" id="DOM-1969" data-name="Bahoruco"/>
<path d="M 216.71 312.22 218.9 315.74 219.59 322.65 215.21 328.07 208.56 333.51 209.64 336 210.65 338.52 212.7 340 215.41 340.98 222.41 342.85 228.71 344.29 228.2 347.44 228.94 352.05 230.59 359.03 227.36 364.23 227.36 364.23 227.32 364.21 225.97 362.46 224.83 360.29 223.42 358.37 221.15 356.74 218.85 355.79 209.45 353.84 205.09 353.76 201.7 355.06 200.35 358.37 199.89 360.19 197.96 363.36 197.51 365.78 197.92 368.55 198.98 370.08 200.42 371.47 201.95 373.85 205.49 385.64 206.63 387.66 206.66 390.24 202.45 396.35 198.85 405.06 178.33 433.66 176.53 438.56 175.63 440.31 173.58 441.67 169.26 443.81 166.6 445.96 164.69 448.07 163.21 450.69 161.85 454.3 160.25 453.76 159.63 453.39 158.99 452.88 158.98 452.86 158.83 452.32 158.84 443.9 155.38 436.32 148.88 436.02 143.4 437.28 132.72 428.88 128.05 417.79 129.54 415.87 131.81 415.1 133.98 414.27 135.17 411.95 135.59 408.05 135.39 404.09 135.11 395.25 128.44 391.57 129.39 385.71 133.35 381.68 138.84 383.1 143.82 382.47 140.43 370.57 137.24 358.15 146.84 356.19 157.77 359.73 169.2 356.81 176.39 347.69 177.03 340.66 180.83 334.97 184.46 332.8 187.96 330.5 190.43 326.93 193.92 324.22 200.57 321.91 206.16 318.01 209.55 312.68 212.45 307.05 216.71 312.22 Z" id="DOM-1970" data-name="Barahona"/>
<path d="M 103.94 279.97 96.9 281.81 89.96 283.91 88.91 286.31 89.26 289.07 87.79 293.96 85.36 298.5 91.45 317.43 113.69 325.72 122.01 329.29 129.85 333.88 138.24 335.91 146.55 332.81 156.92 333.43 162.55 343.47 168.59 348.21 176.39 347.69 169.2 356.81 157.77 359.73 146.84 356.19 137.24 358.15 140.43 370.57 143.82 382.47 138.84 383.1 133.35 381.68 129.39 385.71 128.44 391.57 121.96 386.39 115.76 380.84 108.25 377.95 100.33 376.04 81.87 367.35 63.94 357.72 63.46 357.53 63.59 357.32 66.14 353.14 65.67 352.51 63.68 350.81 60.58 348.87 48.93 344.69 40.76 339.5 39 337.57 35.7 332.93 33.88 331.39 25.42 329.37 22.17 327.67 20.87 323.66 21.69 321.28 23.31 320.39 24.47 319.21 23.93 315.95 22.53 313.9 2.93 294.78 1 291.23 4.73 288.56 12.78 286.94 29.08 289.81 37.47 287.08 40.3 284.19 44.76 276.96 47.71 273.82 48.27 273.49 49.76 272.61 61.78 273.97 76.42 276.15 90.32 277.18 103.94 279.97 Z" id="DOM-1971" data-name="Independencia"/>
<path d="M 148.94 162.85 147.43 169.38 147 176.09 140.19 181.03 131.93 181.48 125.13 177.55 117.78 176.44 113.39 184.25 110.85 193.49 107.45 200.35 100.74 202.22 94.62 202.81 89.83 206.92 84.46 217.74 82.64 229.46 86.39 233.99 83.8 244.54 88.69 247.57 93.09 251.22 94.65 256.2 94.64 261.53 98.66 265.6 104.52 266.92 107.02 273.08 103.94 279.97 90.32 277.18 76.42 276.15 61.78 273.97 49.76 272.61 55.58 269.19 58.61 266.82 61.21 262.78 62.69 259.12 63.75 255.11 64.08 251.04 62.33 242.52 62.11 233.73 60.91 229.72 59.3 227.76 54.33 223.45 52.35 221.24 49.28 215.1 47.3 213.58 42.22 213.41 36.84 215.16 32.95 215.74 32.31 211.98 36.05 209.58 47.18 206.74 50.02 205.07 59.42 195.19 65.91 186.57 69.19 183.77 76.54 178.78 79.27 174.94 80.38 171.21 81.36 158.29 78.63 157.03 82.23 153.77 86.61 151.27 91.19 149.66 92.8 145.7 95.46 142.69 100.76 144.06 105.93 145.7 110.37 143.14 114.06 139.48 123.05 144.96 129.75 153.44 139.43 158.04 148.94 162.85 Z" id="DOM-1972" data-name="La Estrelleta"/>
<path d="M 109.92 518.32 106.21 519.55 102.6 517.59 102.55 512.92 104.54 507.47 106.95 503.14 110.01 504.79 113.13 506.96 118.65 512.03 115.31 513.04 109.92 518.32 Z M 132.72 428.88 143.4 437.28 148.88 436.02 155.38 436.32 158.84 443.9 158.83 452.32 158.98 452.86 158.99 452.88 158.76 452.69 158.43 454.26 158.1 454.82 157.27 455.51 158.76 455.51 157.88 457.33 156.75 458.73 155.37 459.64 153.65 459.95 152.86 460.84 151.44 465.17 150.62 466.74 147.97 470.38 140.67 490.76 138.43 494.72 129.46 506.71 127.29 505.74 125.42 504.05 125.32 503.14 123.2 501.39 108.29 477.89 104.67 474.14 97.37 471.44 80.06 473.66 72.65 471.92 74.74 470.38 81.66 463.53 83.14 460.76 82.82 456.09 81.91 452.81 78.57 446.63 76.22 443.22 75.76 441.97 75.61 439.37 77.1 431.16 75.48 427.38 71.67 423.17 63.76 416.9 51.64 412.53 54.23 405.98 55.02 402.23 54.54 395.93 54.68 392.32 54.17 389.9 51.84 383.69 51.51 381.64 52.12 377.37 53.83 373.3 63.46 357.53 63.94 357.72 81.87 367.35 100.33 376.04 108.25 377.95 115.76 380.84 121.96 386.39 128.44 391.57 135.11 395.25 135.39 404.09 135.59 408.05 135.17 411.95 133.98 414.27 131.81 415.1 129.54 415.87 128.05 417.79 132.72 428.88 Z" fill-rule="evenodd" id="DOM-1973" data-name="Pedernales"/>
<path d="M 284.94 274.32 291.17 286 295.71 296.97 298.91 298.84 300.55 302.06 304.32 305.5 309.35 307.2 316.56 311.69 323.56 315.1 328.06 322.47 332.83 331.47 334.26 335.46 332.16 339.43 330.47 345.26 331.03 351.42 323.16 359.93 311.1 362.13 311.09 362.13 308.26 360.38 307.31 358.37 307.84 356.21 309.12 355.23 310.59 354.48 311.73 352.99 312.74 348.63 312.87 344.05 312.28 340.04 311.07 337.44 306.31 331.76 303.44 329.81 298.42 327.96 294.14 327.01 288.74 326.61 284.11 327.8 282.15 331.59 282.89 336.12 282.34 337.94 275.9 344 274.13 345.08 271.79 345.72 269.26 345.63 264.75 344.29 262.76 344.1 261.08 344.73 258.07 346.76 256.04 347.2 253.29 346.86 252.33 347.43 250.18 349.35 249.58 350.16 248.22 352.84 247.96 353.79 247.38 354.64 244.47 355.56 243.39 356.07 237.62 362.6 234.54 364.35 229.4 364.96 227.36 364.23 227.36 364.23 230.59 359.03 228.94 352.05 228.2 347.44 228.71 344.29 222.41 342.85 215.41 340.98 212.7 340 210.65 338.52 209.64 336 208.56 333.51 215.21 328.07 219.59 322.65 218.9 315.74 216.71 312.22 221.29 310.57 221.36 306.73 215.6 303.06 208.77 301.88 195.23 297.42 184.94 287.53 194.46 285.1 200.17 277.02 203.71 275.74 207.81 273.91 207.32 271.12 205.88 268.75 208.14 265.81 208.4 263.06 207.02 254.9 214.08 252.8 215.9 256.55 219.06 257.78 222.02 255.07 223.71 251.39 223.82 240.23 225.27 229.48 227.9 224.05 233.22 220.52 236.27 217.74 237.14 213.54 241.68 211.41 243.49 206.77 254.87 214.14 257.32 234.12 266.56 246.03 279.79 252.44 288.01 261.92 284.94 274.32 Z" id="DOM-1974" data-name="Azua"/>
<path d="M 335.38 135.16 338.59 142.49 342.94 149.36 349 154.93 357.86 155.51 364.87 165.77 375.67 172.53 376.08 173.11 376.5 173.69 371.68 175.38 366.37 178 357.75 181.87 351.64 188.59 350.02 182.97 344.83 180.05 340.56 181.49 338.22 185.52 327.9 188.18 323.39 196.17 323.2 210.98 310.23 221.08 308.27 236.08 321 250.24 317.89 259.86 312.24 266.69 307.67 270.69 304.35 274.21 294.76 274.09 284.94 274.32 288.01 261.92 279.79 252.44 266.56 246.03 257.32 234.12 254.87 214.14 243.49 206.77 241.66 202.12 238.07 198.65 239.02 193.83 237.43 189.22 243.75 186.26 250.88 183.32 264.37 177.14 275.73 168.97 278.37 163.14 283.04 162.9 288.73 163.95 288.09 157.71 289.65 150.33 286.24 144.65 279.61 142.91 274.37 139.11 275.91 134.7 281.28 133.27 292.17 127.83 303.6 124.31 308.77 127.97 315.61 128.61 320.47 126.81 324.92 125.9 329.28 136.29 335.38 135.16 Z" id="DOM-1975" data-name="La Vega"/>
<path d="M 351.64 188.59 354.11 193.71 356.08 198.75 357.1 204.61 362.59 207.12 364.57 209.53 365.24 212.72 368.64 217 373.19 220.15 382.51 226.46 388.16 235.75 383.7 240.47 382.23 247.25 374.82 250.64 371.75 256.81 368.82 265.07 360.81 264.93 355.26 261.25 349.48 259.03 344.23 260.81 338.82 261.36 330.1 255.27 321 250.24 308.27 236.08 310.23 221.08 323.2 210.98 323.39 196.17 327.9 188.18 338.22 185.52 340.56 181.49 344.83 180.05 350.02 182.97 351.64 188.59 Z" id="DOM-1976" data-name="Monseñor Nouel"/>
<path d="M 397.58 370.29 392.86 370.42 388.82 371.07 386.14 372.5 382.31 370.25 378.24 369.43 350.5 369.53 345.84 370.94 336.92 375.75 331.86 376.8 316.84 376.77 313.36 375.44 313.06 373.58 314.63 372.13 316.65 370.86 317.66 369.53 317.04 367.19 315.57 365.9 314.04 365.07 312.4 362.94 311.09 362.13 311.1 362.13 323.16 359.93 331.03 351.42 330.47 345.26 332.16 339.43 334.26 335.46 332.83 331.47 338.69 323.22 349.29 320.26 354.73 316.68 359.39 311.88 369.87 316.22 378.43 324.1 385.31 327.18 384.9 332.4 379.29 335.48 378.21 341.1 382.2 345.93 386.55 350.81 388.08 353.58 389.7 356.3 392.54 358.94 395.32 361.23 396.23 366.1 397.58 370.29 397.58 370.29 Z" id="DOM-1977" data-name="Peravia"/>
<path d="M 360.81 264.93 356.75 273.74 356 283.1 356.93 290.75 354.57 298.41 356.14 305.44 359.39 311.88 354.73 316.68 349.29 320.26 338.69 323.22 332.83 331.47 328.06 322.47 323.56 315.1 316.56 311.69 309.35 307.2 304.32 305.5 300.55 302.06 298.91 298.84 295.71 296.97 291.17 286 284.94 274.32 294.76 274.09 304.35 274.21 307.67 270.69 312.24 266.69 317.89 259.86 321 250.24 330.1 255.27 338.82 261.36 344.23 260.81 349.48 259.03 355.26 261.25 360.81 264.93 Z" id="DOM-1978" data-name="San José de Ocoa"/>
<path d="M 390.05 96.45 397.74 100.87 405.09 105.59 407.64 112.46 408.27 119.89 410.95 129.03 418.49 134.24 425.07 135.04 428.03 140.08 438.57 148.53 453.46 152.09 468.02 158.58 483.04 161.33 493.63 156.55 506.74 159.51 506.76 165.37 501 169.02 497.59 171.18 494.66 174.64 493.88 181.42 489.62 185.28 475.41 184.76 463.8 186.06 463.35 188.48 463.07 191.84 459.78 195.96 453.95 195.76 455.94 189.78 456.68 184 452.06 181.21 446.69 179.62 439.69 179.16 433.02 179.09 427.9 177.58 423.01 175.42 417.37 172.99 411.22 172.55 401.73 171.5 392.13 171.66 387.67 172.41 383.12 171.62 378.93 170.53 374.9 171.79 375.58 171.61 375.67 172.53 364.87 165.77 357.86 155.51 358.05 146.28 361.09 136.98 362.86 126.83 367.08 117.68 376.19 113.49 382.37 108.52 384.11 101.58 385.4 96.05 387.74 96.03 390.05 96.45 Z" id="DOM-1979" data-name="Duarte"/>
<path d="M 607.56 199.72 607.44 200.5 607.43 200.57 606.4 212.42 612.37 222.63 594.5 218.66 582.24 220.73 590.02 235.8 602.46 248.07 605.8 256.77 604.86 266.02 601.1 274.26 598.49 282.26 591.1 287.17 587.58 295.26 582.94 301 576.77 307.89 573.47 300.79 570.45 293.55 565.5 286.4 560.56 279.25 559.04 270.42 557.8 261.44 553.92 254.58 553.93 247.06 557.79 242.01 562.31 237.53 566.77 234.92 570.89 232.21 566.89 228.38 559.03 227.41 548.43 221.88 537.54 216.76 525.2 210.83 515.19 202.34 518.09 196.15 519.35 189.54 518.72 183.77 518.86 182.17 518.87 182.17 521.56 184.01 533.52 182.27 537.65 183.72 542.8 182.15 552.99 185.91 558.37 185.33 557.05 184.25 555.31 183.26 553.24 182.53 550.84 182.24 550.84 180.76 562.41 180.17 565.78 180.76 569.63 183.44 572.61 190.1 576.27 192.73 579.98 193.67 587.43 194.54 607.56 199.72 Z" id="DOM-1980" data-name="Hato Mayor"/>
<path d="M 489.62 185.28 495.79 189.77 502.02 194.18 508.88 197.88 515.19 202.34 525.2 210.83 537.54 216.76 548.43 221.88 559.03 227.41 566.89 228.38 570.89 232.21 566.77 234.92 562.31 237.53 557.79 242.01 553.93 247.06 541.1 259.89 528.74 280.53 520.98 277.7 513.62 279.21 509.53 281.73 504.81 282.69 492.21 287.14 482.21 297.08 480.48 290.95 475.92 286.77 474.7 282.46 471.7 278.69 466.78 273.4 460.91 269.01 455.88 268.76 450.85 268.56 448.11 268.69 445.55 269.51 444.56 271.44 443.98 273.43 434.78 277.49 424.53 275.58 417.42 273.75 410.52 271.32 406.55 264.52 400.44 262.43 395.21 258.74 389.59 255.75 385.82 251.58 382.23 247.25 383.7 240.47 388.16 235.75 399.4 233.49 408.59 231.38 412.74 227.88 418.45 226.55 422.99 227.41 426.85 228 429.51 224.2 433.85 224.96 440.9 228.25 446.97 223.78 450.71 209.69 453.95 195.76 459.78 195.96 463.07 191.84 463.35 188.48 463.8 186.06 475.41 184.76 489.62 185.28 Z" id="DOM-1981" data-name="Monte Plata"/>
<path d="M 486.22 138.53 485.75 139.62 484.97 145.44 482.95 150.87 481.6 156.23 483.04 161.33 468.02 158.58 453.46 152.09 438.57 148.53 428.03 140.08 425.07 135.04 418.49 134.24 410.95 129.03 408.27 119.89 407.64 112.46 405.09 105.59 397.74 100.87 390.05 96.45 390.71 90.25 391.99 84.68 396.62 84.4 401.68 84.73 412.41 78.82 416.43 67.54 416.3 66.26 416.3 66.24 423.45 59 427.56 57.2 439.57 57.37 445.45 56.83 448.12 57.15 451.42 59 458.81 66.4 461.14 71.44 461.01 76.95 457.46 88.86 461.8 90.59 463.45 94.44 463.39 104.33 463.91 108.64 465.3 112.08 479.74 132.54 486.22 138.53 Z" id="DOM-1982" data-name="María Trinidad Sánchez"/>
<path d="M 518.86 182.17 518.72 183.77 519.35 189.54 518.09 196.15 515.19 202.34 508.88 197.88 502.02 194.18 495.79 189.77 489.62 185.28 493.88 181.42 494.66 174.64 497.59 171.18 501 169.02 506.76 165.37 506.74 159.51 493.63 156.55 483.04 161.33 481.6 156.23 482.95 150.87 484.97 145.44 485.75 139.62 486.22 138.53 486.22 138.53 487.04 139.29 494.46 142.15 498.85 141.46 507.27 138.4 511.61 137.71 521.36 137.33 525.68 136.46 530.12 134.75 536.53 130.69 539 130.18 541.24 130.64 545.84 132.78 548.69 133.26 553.94 132.01 556.21 131.78 557.47 131.83 558.65 132.09 559.5 132.75 559.86 134.01 560.54 135.06 562.04 134.66 564.42 133.26 577 138.13 580.71 140.67 583.16 135.96 587.15 132.49 596.99 127.34 603.32 125.5 604.82 128.01 603.15 133.18 599.95 139.32 604.28 140.82 609.16 140.8 613.91 139.63 617.84 137.71 619.13 142.46 616.31 146.2 612.42 149.58 610.45 153.31 609.52 157.24 606.99 160.78 603.21 163.37 598.47 164.48 581.46 161.52 562.82 162.87 558.43 161.68 550.39 157.87 522.76 154.63 519.64 155.44 518.45 158.34 517.75 168.65 516.12 177.46 516.79 180.76 518.86 182.17 Z" id="DOM-1983" data-name="Samaná"/>
<path d="M 400.44 262.43 400.61 272.14 406.48 281.15 404.6 285.97 403.55 291.29 405.87 298.96 409.88 305.88 415.21 309.65 419.23 314.32 419.82 318.05 422.31 320.6 427.21 320.45 432.08 320.62 434.83 324.49 435.01 329.18 435.82 330.54 435.81 330.55 433.09 331.87 428.24 335.96 424.59 341.43 423.15 347.94 422.01 349.7 417.02 352.21 415.89 353.79 415 356.18 407.68 362.67 402.42 368.45 399.44 370.87 398.12 370.27 397.58 370.29 397.58 370.29 396.23 366.1 395.32 361.23 392.54 358.94 389.7 356.3 388.08 353.58 386.55 350.81 382.2 345.93 378.21 341.1 379.29 335.48 384.9 332.4 385.31 327.18 378.43 324.1 369.87 316.22 359.39 311.88 356.14 305.44 354.57 298.41 356.93 290.75 356 283.1 356.75 273.74 360.81 264.93 368.82 265.07 371.75 256.81 374.82 250.64 382.23 247.25 385.82 251.58 389.59 255.75 395.21 258.74 400.44 262.43 Z" id="DOM-1984" data-name="San Cristóbal"/>
<path d="M 462.83 318.89 462.83 318.89 461.9 318.94 458.4 319.93 451.59 323.07 445.98 326.68 443.86 327.65 440.82 328.6 440.82 328.59 442.06 320.76 437.25 313.98 437.82 307.79 443.62 304.69 446.26 308.27 448.93 312.26 453.05 312.64 457.12 311.58 463.17 312.45 462.83 318.89 Z" id="DOM-1985" data-name="Distrito Nacional"/>
<path d="M 667.48 276.74 658.01 280.25 652.55 290.27 644.24 300.3 633.36 306.73 634.96 301.08 636.08 296.07 629.72 295.44 622.91 296.37 616.74 292.05 611.47 286.56 607.93 285.62 604.3 285.97 601.33 284.24 598.49 282.26 601.1 274.26 604.86 266.02 605.8 256.77 602.46 248.07 590.02 235.8 582.24 220.73 594.5 218.66 612.37 222.63 606.4 212.42 607.43 200.57 607.44 200.5 607.56 199.72 607.56 199.72 615.9 201.85 619.32 201.62 623.4 199.44 622.05 197.85 619.35 196.31 619.32 194.22 623.21 193.17 626.6 196.08 631.16 203.11 634.11 204.73 637.39 205.66 640.19 206.83 641.66 209.15 644.25 207.14 649.54 204.82 652.03 203.11 650.37 201.36 651.17 200.94 653.12 200.88 654.98 200.27 657.24 198.03 657.93 197.14 658.79 197.08 666.56 197.48 671.1 198.35 675.18 199.74 678.79 201.62 679.21 202.22 679.22 203.01 679.39 203.83 680.27 204.57 684.71 206.05 685.11 205.98 692.86 207.53 697.7 207.71 699.66 208.38 700.03 208.63 700.04 208.63 695.98 213.63 689.79 218.21 689.93 221.14 688.7 223.51 687.02 232.61 692.9 243.28 688.42 255.56 677.33 263.92 671.54 264.8 666.71 267.54 665.84 272.25 667.48 276.74 Z" id="DOM-1986" data-name="El Seybo"/>
<path d="M 716.16 383.03 726.28 384.33 737.49 384.02 740.43 385.01 742.62 387.79 745.04 392.05 746.63 395.96 746.27 397.66 742.98 396.97 735.99 393.91 732.34 393.22 728.48 393.67 721.77 395.7 718.08 396.18 710.46 394.25 705.03 389.57 701.54 383.75 699.64 378.41 702.86 377.5 706.67 378.2 710.43 379.96 713.65 382.18 716.16 383.03 Z M 774.31 337.64 773.91 339.79 771.45 343.47 767.88 345.21 763.4 345.72 758.25 345.72 754.28 344.45 745.69 339.07 742.57 338.18 738.98 340.46 739.55 343.95 740.7 348.07 738.86 352.31 736.2 355.69 734.51 359.62 731.17 372.23 729.96 374.47 727.5 375.32 709.17 376.7 705.43 375.44 704.94 367.5 699.66 357.01 692.45 346.8 686.06 339.79 679.26 335.31 674.89 333.54 674.89 333.53 678.76 324.74 682.6 314.88 685.54 308.62 685.3 301.85 680.74 296.46 675.28 291.75 671.08 284.53 667.48 276.74 665.84 272.25 666.71 267.54 671.54 264.8 677.33 263.92 688.42 255.56 692.9 243.28 687.02 232.61 688.7 223.51 689.93 221.14 689.79 218.21 695.98 213.63 700.04 208.63 701.81 209.83 703.79 210.89 707.65 211.19 709.88 211.98 735.07 234.21 744.33 244.9 757.4 254.37 766.77 260.58 769.43 261.71 770.83 262.57 780.62 271.55 793.02 278.72 799 287.4 797.82 295.9 777.44 325.4 776 326.58 774.58 328.04 773.91 330.11 774.31 337.64 Z" fill-rule="evenodd" id="DOM-1987" data-name="La Altagracia"/>
<path d="M 635.13 335.21 633.83 329.17 631.13 322.92 628.53 320.81 627.06 317.94 629.88 312.19 633.36 306.73 644.24 300.3 652.55 290.27 658.01 280.25 667.48 276.74 671.08 284.53 675.28 291.75 680.74 296.46 685.3 301.85 685.54 308.62 682.6 314.88 678.76 324.74 674.89 333.53 674.89 333.54 670.25 331.67 661.19 330.44 650.73 334.52 635.13 335.21 Z" id="DOM-1988" data-name="La Romana"/>
</g>
</svg>