<?xml version="1.0"?>
<svg xmlns="http://www.w3.org/2000/svg" version="1.2" baseProfile="tiny" width="800" height="391" viewBox="0 0 800 391" stroke-linecap="round" stroke-linejoin="round">
<g id="ne_10m_admin_1_states_provinces">
<path d="M 426.75 284.2 424.55 285.48 419.9 289.09 419.31 289.44 418.76 289.6 418.34 289.58 417.77 289.63 417.42 289.75 417.15 289.92 413.61 292.92 413.16 293.39 412.88 293.78 412.83 294.04 412.83 294.28 412.88 294.5 412.95 294.71 413.17 295.11 413.5 295.48 414.98 296.9 415.14 297.09 415.27 297.32 415.31 297.59 415.2 297.98 414.98 298.17 414.72 298.29 406.99 300.47 404.49 301.17 398.1 303.17 395.92 304.34 391.68 307.95 390.96 308.54 390.95 308.55 389.55 307.13 388.44 306.59 387.04 306.72 383.45 308.12 382.24 308.33 380.87 308.12 379.48 307.56 372 303.39 365.51 299.78 360.36 296.91 357.54 294.65 352.54 289.23 349.6 287.05 343.14 283.5 327.82 275.06 320.27 270.9 313.94 267.4 308.5 264.41 305.81 262.33 305.31 262.11 301.98 258.88 301.47 257.64 300.66 255.03 300.53 253.96 300.72 252.96 301.11 252.11 301.37 251.27 301.18 250.28 299.76 247.91 299.57 246.96 299.53 245.73 299.36 244.81 298.98 243.97 297.78 242.13 297.5 241.27 297.35 239.31 296.9 238.89 293.06 237.2 290.85 236.7 289.85 236.12 289.63 235.82 289.63 235.81 299.32 226.65 301.72 222.68 301.16 221.12 299.65 219.35 292.06 212.89 302.56 209.08 302.53 208.44 289.32 194.61 305.79 189.92 309.7 189.99 311.18 192.54 312.33 194.07 320.14 201.01 326.41 209.37 327.52 209.85 331.63 210.56 337.74 212.36 344.9 215.41 358.88 221.93 359.93 223.34 361.63 224.65 361.56 225.56 367.1 224.09 370.42 220.34 373.18 215.96 374.01 215.05 374.93 214.49 375.87 214.24 376.74 214.42 377.65 215 378.6 216.07 378.84 217.65 378.92 220.71 379.56 221.71 381.53 222.25 394.11 223.39 395.16 222.65 396.57 218.5 397.45 218.14 399.02 217.69 405.17 217.48 407.2 217.16 408.68 216.67 410.17 215.07 410.74 215.13 411.14 216.23 412.13 220.91 412.55 222.14 413.21 223.51 414.82 224.52 416.43 225.22 421.01 226.08 435.1 226.82 437.32 226.33 436.23 229.21 436 230.4 435.9 231.62 435.92 232.77 436.02 233.71 436.19 234.26 436.15 234.79 435.54 234.78 433.11 234.38 432.64 234.36 432.2 234.46 431.84 234.7 431.32 235.3 431.24 235.88 430 238.83 428.98 239.74 428.12 240.35 427.07 242.9 426.57 243.69 421.11 243.64 420.05 243.38 419.05 242.87 418.11 242.24 417.21 242.05 416.17 242.05 414.55 242.26 413.78 242.59 413.35 242.99 413.22 243.43 413.15 243.86 413.13 244.27 413.38 245.17 414.54 246.06 413.77 247.82 413.35 248.12 413.13 248.18 413.1 248.29 413.17 248.47 413.69 249.13 415.06 250.2 415.78 250.89 415.97 251.19 415.91 251.35 414.52 251.48 414.21 251.54 413.92 251.7 413.57 251.9 413.15 251.91 412.44 252.36 410.24 255.81 409.6 256.5 408.78 257.1 407.94 257.56 405.11 258.55 404.74 259.16 404.38 259.45 404.21 259.65 402.7 261.11 401.95 262.4 401.29 263.59 402.01 264.74 405.39 268.33 406.68 269.02 408.86 269.95 408.93 270.21 409.17 270.64 409.33 271.03 409.98 271.28 410.88 271.32 412.9 270.61 413.6 270.72 414.02 271.24 419.56 273.25 420.41 274.35 420.8 275.39 420.81 276.15 420.96 277.16 421.34 278.12 422.23 278.52 423.34 278.84 424.04 279.14 424.87 279.78 425.61 280.57 425.8 280.84 426.09 281.35 426.55 282.59 426.63 282.91 426.75 284.2 Z" id="UZB-354" data-name="Bukhoro"/>
<path d="M 292.06 212.89 299.65 219.35 301.16 221.12 301.72 222.68 299.32 226.65 289.63 235.81 289.63 235.82 289.55 235.71 289.17 234.65 288.9 234.22 287.17 232.46 286.54 231.47 285.59 228.62 285.06 227.97 283.53 226.7 283.02 226.08 282.65 225.09 282.11 222.97 280.65 219.07 280.13 218.15 280.48 217.8 280.26 217.12 280.13 213.84 279.97 212.89 279.58 212.12 276.17 207.78 275.26 207.03 264.87 201.25 260.83 199.93 256.31 199.03 254.6 198.88 253.55 199.27 252.92 200.25 252.47 201.88 251.34 202.37 250.45 203.83 249.15 204.92 247.54 205.53 245.77 205.58 243.88 204.99 239.1 202.42 238.27 202.41 235.52 202.76 235.27 202.34 235.12 201.92 234.94 201.81 234.67 202.17 234.06 202.97 233.75 203.22 233.45 203.41 231.23 201.68 227.98 201.08 218.61 201.51 213.01 202.93 210.21 202.98 208.6 202.63 207.26 201.91 204.74 200 201.93 198.44 197.46 196.71 192.38 194.74 191.07 193.76 190.75 192.66 191.33 188.94 191.7 188.14 192.3 187.49 193.09 186.96 195.01 186.24 195.65 185.66 195.23 184.8 192.14 181.51 190.71 179.45 190.28 177.82 191.48 176.54 192.76 175.88 194.21 175.79 195.96 176.2 197.56 176.96 198.47 177.27 199.2 177.19 199.74 176.59 199.65 175.93 199.2 175.29 198.64 174.75 197.98 174.34 195.78 173.36 195.09 172.82 194.56 172.21 194.56 172.21 195.1 171.76 195.66 170.72 195.56 170.21 195.02 169.42 194.93 169.21 194.86 169 195 168.79 195.31 168.6 196.04 168.49 197.3 168.46 198.26 168.16 200.63 166.91 201.52 166.33 201.79 166.21 202.55 166.11 203.54 166.68 204.04 166.88 206.37 167.33 208.67 167.52 209.33 167.92 209.49 168.88 209.46 170.98 209.83 171.71 211.09 173.15 211.6 174.34 212.9 176.09 213.55 176.72 214.36 177.11 215.33 177.3 217.56 177.35 218.3 177.67 218.82 178.43 219.61 180.24 220.81 181.84 222.32 183.12 233.32 190.59 234.5 190.77 235.09 190.96 235.63 191.23 237.3 192.64 238.73 193.62 239.78 193.94 242.47 194.33 243.35 194.72 245.81 196.78 246.41 197.46 246.96 198.81 247.66 199.08 247.96 199.21 249.07 199.54 250.25 199.45 251.06 198.98 252.91 196.3 253.65 195.63 254.37 195.21 255.21 194.89 256.13 194.73 258.64 194.74 267.52 196.35 269.77 197.07 271.87 198.03 274.61 199.62 282.52 206.21 288.07 212.89 288.26 213.04 288.91 213.32 289.61 213.49 292.06 212.89 Z" id="UZB-355" data-name="Khorezm"/>
<path d="M 144.09 11.91 147.12 13.35 155.12 17.15 163.81 21.27 172.93 25.61 182.26 30.04 191.56 34.46 200.59 38.74 209.1 42.79 216.86 46.48 223.63 49.69 229.18 52.33 233.26 54.27 236.15 55.64 237.35 56.61 238.2 57.84 238.49 58.97 238.8 61.38 239.25 62.46 241.98 65.62 247.31 69.77 249.86 71.75 252.41 73.74 255.66 76.44 258.33 78.67 261 80.9 263.67 83.13 266.34 85.35 268.95 87.53 271.56 89.72 274.18 91.89 276.78 94.07 280.27 96.98 281.21 97.27 282.15 97.57 282.25 97.55 287.22 103.74 289.55 105.31 302.12 107.85 302.82 108.16 302.82 108.62 302.56 109.16 289.91 126.64 278 143.5 275.44 147.93 274.39 157.57 274.39 158.14 274.53 158.59 279.83 165.85 280.74 167.3 280.55 167.55 279.99 167.99 270.01 172.19 269 172.83 269.03 173.44 269.39 174.07 289.32 194.61 302.53 208.44 302.56 209.08 292.06 212.89 289.61 213.49 288.91 213.32 288.26 213.04 288.07 212.89 282.52 206.21 274.61 199.62 271.87 198.03 269.77 197.07 267.52 196.35 258.64 194.74 256.13 194.73 255.21 194.89 254.37 195.21 253.65 195.63 252.91 196.3 251.06 198.98 250.25 199.45 249.07 199.54 247.96 199.21 247.66 199.08 246.96 198.81 246.41 197.46 245.81 196.78 243.35 194.72 242.47 194.33 239.78 193.94 238.73 193.62 237.3 192.64 235.63 191.23 235.09 190.96 234.5 190.77 233.32 190.59 222.32 183.12 220.81 181.84 219.61 180.24 218.82 178.43 218.3 177.67 217.56 177.35 215.33 177.3 214.36 177.11 213.55 176.72 212.9 176.09 211.6 174.34 211.09 173.15 209.83 171.71 209.46 170.98 209.49 168.88 209.33 167.92 208.67 167.52 206.37 167.33 204.04 166.88 203.54 166.68 202.55 166.11 201.79 166.21 201.52 166.33 200.63 166.91 198.26 168.16 197.3 168.46 196.04 168.49 195.31 168.6 195 168.79 194.86 169 194.93 169.21 195.02 169.42 195.56 170.21 195.66 170.72 195.1 171.76 194.56 172.21 194.56 172.21 193.49 171 192.12 170.12 187.24 168.74 184.83 168.8 184.16 168.58 183.65 167.92 183.72 167.31 184.25 166.85 185.07 166.67 185.08 166.68 185.1 166.68 185.11 166.68 187.87 165.88 187.72 164.04 186.81 161.76 187.24 159.6 188 159.19 188.95 158.9 189.72 158.48 189.88 157.7 189.31 157.1 188.23 156.62 186.17 156.02 184.54 154.92 183.25 153.43 181.79 152.23 179.68 152.06 177.6 152.25 173.57 151.97 163.75 153.1 161.35 153.04 160.19 152.71 158.33 151.23 157.24 150.95 154.87 150.76 153.54 150.22 152.92 149.39 152.37 145.84 151.93 144.95 151.27 144.17 148.32 141.89 147.2 141.37 146.01 141.46 144.66 141.95 143.32 142.22 141.96 142.28 139.89 142 136.62 140.91 133.51 138.78 123.51 130.08 122.38 129.6 121.52 130.66 120.88 134.6 119.9 135.96 117.98 136.38 115.59 136.27 113.21 135.85 108.2 134.36 107.06 134.33 106.19 134.53 103.73 135.64 101.98 136.21 101.13 136.68 100.7 137.36 100.96 138.26 101.83 138.83 107.65 140.86 109.29 141.8 110.72 143.43 111.96 145.59 115.41 149.75 117.28 151.39 117.81 151.75 118.02 152.16 117.86 152.54 117.28 152.8 114.3 153.14 113.54 152.99 112.99 152.37 113 151.65 113.25 150.85 113.41 150 112.94 148.35 111.74 147.16 110.17 146.3 105.55 144.69 104.53 144.55 103.69 144.66 102.01 145.19 101.25 145.25 100.51 144.92 99.45 143.75 98.77 143.26 97.89 143.03 96.84 143.01 95.81 143.15 94.96 143.44 94.46 143.91 94.05 144.45 92.87 145.46 91.6 145.87 90.82 146.37 91.08 147.6 92.07 149.18 92.16 149.91 91.75 150.99 89.86 154.21 89.19 154.77 87.41 155.2 87.04 155.8 87.37 156.54 87.97 157.03 88.11 157.47 87.09 158.03 86.19 158.17 83.02 158.06 82.12 158.22 79.55 159.16 77.39 159.48 70.82 158.63 66.36 158.77 61.98 160.36 58.25 163.09 55.7 166.66 55.7 166.67 53.96 168.6 52.05 169.68 47.59 171.24 46.27 172.59 46.26 174.39 47.29 178.05 47.17 179.8 46.81 181.3 46.76 182.76 47.59 184.42 48.62 185.7 49.15 186.92 49.32 188.26 49.29 189.9 49.5 191.19 50.13 192.47 51.02 193.62 52.04 194.48 52.7 194.84 53.41 195.11 55.74 195.54 56.09 195.74 55.99 196.06 55.47 196.52 54.48 197.06 52.31 197.87 51.39 198.67 49.96 200.64 49.07 201.03 43.38 200.14 38.99 199.44 28.61 199.01 26.92 198.95 17.31 198.55 8.66 198.19 1.12 197.89 1.11 187.22 1.1 176.56 1.1 165.9 1.09 155.23 1.08 144.57 1.07 133.91 1.07 123.25 1.06 112.58 1.05 101.92 1.04 91.26 1.04 80.59 1.03 69.93 1.02 59.27 1.01 48.6 1.01 37.94 1 27.28 1 27.28 1 27.27 1 27.27 1 27.27 1 27.26 1 27.26 1 27.26 1 27.25 1 27.25 1 27.25 1 27.24 1 27.24 1 27.23 1 27.23 1 27.23 1 27.23 1 27.23 1 27.22 1 27.22 1.01 27.22 1.01 27.22 1.01 27.21 1.01 27.21 1.01 27.21 1.01 27.21 1.01 27.2 1.01 27.2 1.01 27.2 1.01 27.19 1.01 27.19 1.02 27.19 1.02 27.19 1.02 27.18 1.03 27.18 1.03 27.18 1.03 27.18 1.04 27.17 1.04 27.17 1.04 27.17 1.04 27.17 1.05 27.17 1.05 27.17 1.05 27.16 1.06 27.16 1.06 27.16 1.07 27.16 1.07 27.16 1.07 27.15 1.08 27.15 1.08 27.15 1.09 27.15 1.09 27.15 1.09 27.15 1.1 27.15 1.1 27.15 1.1 27.14 1.11 27.14 1.11 27.14 1.12 27.14 1.12 27.14 5.47 26.15 9.83 25.16 14.18 24.17 18.54 23.18 22.9 22.19 27.26 21.2 31.61 20.21 35 19.44 35.96 19.22 40.32 18.23 44.68 17.25 49.03 16.26 53.39 15.26 57.75 14.28 62.1 13.29 66.46 12.3 70.82 11.31 76.62 10.05 82.43 8.8 88.24 7.54 94.05 6.29 96.74 5.72 99.42 5.16 102.11 4.6 104.8 4.04 107.6 3.47 110.4 2.9 113.2 2.33 115.99 1.76 119.76 1 120.85 1.07 122.11 1.47 125.68 3.16 126.7 3.64 129.59 5.02 134.12 7.17 140.04 9.98 144.09 11.91 Z" id="UZB-356" data-name="Karakalpakstan"/>
<path d="M 467.42 149.04 467.28 156.69 467.11 165.75 467.16 166 467.21 166.25 467.41 166.37 467.61 166.48 473.21 166.5 478.31 166.51 483.38 166.53 488.99 166.55 489.17 166.53 489.34 166.51 489.52 166.51 489.69 166.52 489.85 166.55 490.01 166.57 490.12 166.62 490.24 166.67 491.04 172.54 491.85 178.42 493.33 184.15 494.81 189.89 496.81 196.74 498.79 203.58 499.84 204.54 500.87 205.49 502.03 205.72 502.01 205.88 496.33 207.63 495.94 208.35 495.36 208.93 496.15 215.41 496.23 215.66 496.34 215.87 496.6 216.27 496.99 216.63 497.27 216.78 497.91 217.05 502.12 217.92 502.37 218.08 502.54 218.25 502.63 218.47 502.65 218.81 502.64 219.26 502.52 220.1 502.52 220.88 502.6 221.09 503.03 221.9 504.04 223.28 502.74 225.76 495.63 236.3 494.72 235.62 494.19 235.09 494.03 234.87 493.93 234.67 493.88 234.5 493.89 234.3 494.16 233.56 494.2 233.12 494.14 232.92 494.01 232.73 492.42 231.33 491.11 230.45 490.59 230.23 490.18 230.19 489.74 230.32 486.38 232.07 485.3 232.45 484.37 232.54 483.62 232.46 482.79 232.21 481.95 231.84 480.99 231.3 480.3 231.04 479.64 230.98 479.03 231.14 478.46 231.46 477.92 231.93 477.49 232.46 477.11 233.04 476.51 234.31 476.38 235.04 476.36 235.8 476.77 236.61 477.1 237.02 477.31 237.39 477.28 237.75 476.91 238.29 476.57 238.53 475.67 238.86 475.44 239.14 475.42 239.48 475.93 240.58 476.1 242.24 475.77 243.26 475.14 244.3 475.09 244.6 475.2 244.95 475.37 245.18 476.08 245.64 476.02 246.08 475.79 246.41 474.63 247.69 474.23 248.28 473.94 248.88 473.58 249.93 472.37 252.1 472.28 252.46 472.37 252.71 472.57 252.8 472.91 252.82 473.79 252.7 474.2 252.68 474.64 252.74 474.98 252.87 475.25 253.14 475.37 253.44 475.37 253.8 475.13 254.19 474.71 254.58 471.71 256.72 471.2 256.93 461.17 258.58 459.21 258.26 457.19 257.27 456.22 257.52 455.31 257.16 454.43 256.63 452.54 256.11 451.81 255.52 450.62 254.23 450.15 254.17 450 254.11 449.08 253.97 444.84 252.51 444.16 252.48 443.86 252.6 443.58 252.83 443.3 253.27 443.17 253.56 443.14 253.81 443.14 254.37 443.06 255.32 442.99 255.56 442.9 255.77 442.82 255.93 442.67 256.15 441.48 257.51 441.44 257.82 441.6 257.98 441.92 258.02 442.23 258.09 442.49 258.21 442.68 258.38 442.74 258.6 442.7 258.85 442.53 259.23 441.79 260.45 441.66 260.73 440.87 263.13 440.57 263.69 440.16 263.91 439.56 264.05 438.23 264.06 436.94 263.91 435.55 263.44 433.98 262.75 433.65 262.73 433.36 262.83 433.11 263.16 433 263.44 432.82 264.24 432.44 264.52 432.08 264.72 429.28 265.28 426.99 265.53 426.57 265.61 426.28 265.73 426.07 265.9 425.99 266.13 426.34 266.72 427.73 267.93 428.65 268.56 428.99 268.86 429.39 269.29 430.8 273.2 430.85 273.56 430.81 274.25 430.7 274.68 430.58 275.05 429.21 277.44 429.17 277.72 429.74 279.1 432.22 282.92 431.34 283.36 426.75 284.2 426.63 282.91 426.55 282.59 426.09 281.35 425.8 280.84 425.61 280.57 424.87 279.78 424.04 279.14 423.34 278.84 422.23 278.52 421.34 278.12 420.96 277.16 420.81 276.15 420.8 275.39 420.41 274.35 419.56 273.25 414.02 271.24 413.6 270.72 412.9 270.61 410.88 271.32 409.98 271.28 409.33 271.03 409.17 270.64 408.93 270.21 408.86 269.95 406.68 269.02 405.39 268.33 402.01 264.74 401.29 263.59 401.95 262.4 402.7 261.11 404.21 259.65 404.38 259.45 404.74 259.16 405.11 258.55 407.94 257.56 408.78 257.1 409.6 256.5 410.24 255.81 412.44 252.36 413.15 251.91 413.57 251.9 413.92 251.7 414.21 251.54 414.52 251.48 415.91 251.35 415.97 251.19 415.78 250.89 415.06 250.2 413.69 249.13 413.17 248.47 413.1 248.29 413.13 248.18 413.35 248.12 413.77 247.82 414.54 246.06 413.38 245.17 413.13 244.27 413.15 243.86 413.22 243.43 413.35 242.99 413.78 242.59 414.55 242.26 416.17 242.05 417.21 242.05 418.11 242.24 419.05 242.87 420.05 243.38 421.11 243.64 426.57 243.69 427.07 242.9 428.12 240.35 428.98 239.74 430 238.83 431.24 235.88 431.32 235.3 431.84 234.7 432.2 234.46 432.64 234.36 433.11 234.38 435.54 234.78 436.15 234.79 436.19 234.26 436.02 233.71 435.92 232.77 435.9 231.62 436 230.4 436.23 229.21 437.32 226.33 435.1 226.82 421.01 226.08 416.43 225.22 414.82 224.52 413.21 223.51 412.55 222.14 412.13 220.91 411.14 216.23 410.74 215.13 410.17 215.07 408.68 216.67 407.2 217.16 405.17 217.48 399.02 217.69 397.45 218.14 396.57 218.5 395.16 222.65 394.11 223.39 381.53 222.25 379.56 221.71 378.92 220.71 378.84 217.65 378.6 216.07 377.65 215 376.74 214.42 375.87 214.24 374.93 214.49 374.01 215.05 373.18 215.96 370.42 220.34 367.1 224.09 361.56 225.56 361.63 224.65 359.93 223.34 358.88 221.93 344.9 215.41 337.74 212.36 331.63 210.56 327.52 209.85 326.41 209.37 320.14 201.01 312.33 194.07 311.18 192.54 309.7 189.99 305.79 189.92 289.32 194.61 269.39 174.07 269.03 173.44 269 172.83 270.01 172.19 279.99 167.99 280.55 167.55 280.74 167.3 279.83 165.85 274.53 158.59 274.39 158.14 274.39 157.57 275.44 147.93 278 143.5 289.91 126.64 302.56 109.16 302.82 108.62 302.82 108.16 302.12 107.85 289.55 105.31 287.22 103.74 282.25 97.55 286.09 97.04 287.72 96.82 289.37 96.6 291.01 96.38 292.64 96.16 295.27 95.81 297.89 95.46 300.51 95.11 303.13 94.76 307.38 94.26 311.62 93.75 315.86 93.25 320.1 92.75 324.34 92.25 328.58 91.75 332.82 91.25 337.07 90.74 344.15 91.21 351.23 91.68 358.31 92.15 365.39 92.61 371.83 93.04 378.27 93.46 384.71 93.89 391.14 94.32 393.7 94.48 394.52 94.31 395.32 94.14 400 92.26 404.47 90.46 409.08 88.6 413.61 86.77 414.44 86.54 415.28 86.31 416.02 86.4 416.76 86.48 417.53 86.99 418.32 87.5 423.33 92.23 428.33 96.96 430.65 98.74 432.96 100.52 437.74 102.71 442.53 104.9 443.45 105.49 444.36 106.09 448.31 112.05 450.83 115.85 454.31 121.1 457.3 125.61 457.7 125.64 458.1 125.67 464.81 123.01 471.52 120.35 470.52 131.89 469.51 143.43 469.4 144.66 469.28 145.88 469.05 146.28 468.82 146.68 468.27 146.84 467.72 147 467.59 147.32 467.45 147.64 467.42 149.04 Z" id="UZB-357" data-name="Navoi"/>
<path d="M 495.63 236.3 496 236.51 501.85 236.67 503.78 237.1 504.53 237.26 505.28 237.35 506.34 237.31 507.57 237.11 507.84 237.09 508.1 237.23 508.33 237.52 508.69 238.11 508.87 238.55 508.98 238.99 508.93 239.63 508.66 240.31 508.26 241.02 508.16 241.3 508.11 241.59 508.1 241.9 508.18 244.09 508.28 244.87 508.94 247.28 509.05 247.51 509.21 247.75 509.57 247.95 510.53 248.3 510.76 248.47 510.92 248.67 510.87 249 510.76 249.27 510.74 249.61 510.89 249.98 512.16 251.17 512.13 252.25 511.93 252.67 511.79 252.82 511.56 252.97 510.69 253.19 510.44 253.3 510.32 253.51 510.28 253.76 510.49 255.85 510.64 256.09 510.86 256.29 511.39 256.39 511.79 256.41 512.15 256.37 512.44 256.29 513.33 255.95 513.56 255.9 513.86 255.89 514.22 255.94 514.54 256.12 514.77 256.4 514.81 257.04 514.66 257.34 514.68 257.72 514.75 257.97 516.37 259.35 516.99 259.17 517.2 259.14 517.42 259.08 517.97 259.79 521.63 260.57 522.16 260.62 522.91 260.59 523.23 260.52 523.55 260.5 524.31 260.88 524.63 261 525.05 261.05 525.51 260.91 526.61 261.02 534.65 262.18 535.43 263.14 536.69 267.47 536.51 267.84 535.79 267.99 535.43 268.01 534.18 268.23 533.18 268.51 531.73 269.1 531.01 269.51 530.64 269.8 530.54 270 530.45 270.32 530.4 271 530.42 271.41 530.48 271.73 530.56 271.97 530.67 272.45 530.69 272.71 530.65 273.26 530.55 273.55 530.35 273.76 529.93 273.89 529.54 273.93 528.13 273.97 527.5 274.08 527.23 274.52 527.08 274.88 526.98 278.1 527.46 278.87 528.11 279.47 530.05 280.8 533.56 283.21 533.14 283.63 532.55 285.42 532.25 287.29 532.2 289 531.61 290.56 531.26 292.11 530.95 292.19 530.53 292.09 530.04 292.22 529.95 292.28 518.84 290.11 516.37 290.02 516.35 290.26 516.42 290.71 516.43 290.95 516.4 291.18 516.29 291.42 516.12 291.62 515.9 291.78 515.65 291.87 515.08 291.97 509.95 292.12 509.29 292.02 508.95 291.92 508.64 291.79 508.38 291.63 508.2 291.35 508.14 290.98 508.22 290.27 508.51 288.98 508.34 288.33 507.41 286.95 506.42 286.83 502.47 286.23 498.81 285.77 498.2 285.77 497.36 285.96 496.64 286.28 496.26 286.52 495.96 286.77 494.45 288.55 494.01 288.88 490.54 289.97 490.16 290 489.56 289.87 488.81 289.58 486.07 287.87 484.88 287.29 484 287.33 477.29 288.53 477.06 288.54 472.63 290.24 471.65 290.73 470.93 290.92 469.27 290.93 466.16 290.28 465.86 290.11 465.65 289.82 465.54 289.29 465.5 288.94 465.5 288.63 465.56 287.9 465.54 287.18 465.4 286.9 465.26 286.68 464.09 285.98 462.71 285.24 460.28 283.41 459.78 282.87 459.52 282.53 459.52 282.52 459.5 282.5 459.39 282.26 458.95 280.74 458.83 280.54 458.67 280.36 458.47 280.2 458.23 280.08 457.93 280 457.48 279.94 456.02 279.9 455.52 279.97 455.13 280.18 455.03 280.41 454.99 280.66 455.03 281.36 455.01 281.6 454.95 281.83 454.79 282.04 454.58 282.22 453.61 282.77 452.6 283.18 452.06 283.31 432.22 282.92 429.74 279.1 429.17 277.72 429.21 277.44 430.58 275.05 430.7 274.68 430.81 274.25 430.85 273.56 430.8 273.2 429.39 269.29 428.99 268.86 428.65 268.56 427.73 267.93 426.34 266.72 425.99 266.13 426.07 265.9 426.28 265.73 426.57 265.61 426.99 265.53 429.28 265.28 432.08 264.72 432.44 264.52 432.82 264.24 433 263.44 433.11 263.16 433.36 262.83 433.65 262.73 433.98 262.75 435.55 263.44 436.94 263.91 438.23 264.06 439.56 264.05 440.16 263.91 440.57 263.69 440.87 263.13 441.66 260.73 441.79 260.45 442.53 259.23 442.7 258.85 442.74 258.6 442.68 258.38 442.49 258.21 442.23 258.09 441.92 258.02 441.6 257.98 441.44 257.82 441.48 257.51 442.67 256.15 442.82 255.93 442.9 255.77 442.99 255.56 443.06 255.32 443.14 254.37 443.14 253.81 443.17 253.56 443.3 253.27 443.58 252.83 443.86 252.6 444.16 252.48 444.84 252.51 449.08 253.97 450 254.11 450.15 254.17 450.62 254.23 451.81 255.52 452.54 256.11 454.43 256.63 455.31 257.16 456.22 257.52 457.19 257.27 459.21 258.26 461.17 258.58 471.2 256.93 471.71 256.72 474.71 254.58 475.13 254.19 475.37 253.8 475.37 253.44 475.25 253.14 474.98 252.87 474.64 252.74 474.2 252.68 473.79 252.7 472.91 252.82 472.57 252.8 472.37 252.71 472.28 252.46 472.37 252.1 473.58 249.93 473.94 248.88 474.23 248.28 474.63 247.69 475.79 246.41 476.02 246.08 476.08 245.64 475.37 245.18 475.2 244.95 475.09 244.6 475.14 244.3 475.77 243.26 476.1 242.24 475.93 240.58 475.42 239.48 475.44 239.14 475.67 238.86 476.57 238.53 476.91 238.29 477.28 237.75 477.31 237.39 477.1 237.02 476.77 236.61 476.36 235.8 476.38 235.04 476.51 234.31 477.11 233.04 477.49 232.46 477.92 231.93 478.46 231.46 479.03 231.14 479.64 230.98 480.3 231.04 480.99 231.3 481.95 231.84 482.79 232.21 483.62 232.46 484.37 232.54 485.3 232.45 486.38 232.07 489.74 230.32 490.18 230.19 490.59 230.23 491.11 230.45 492.42 231.33 494.01 232.73 494.14 232.92 494.2 233.12 494.16 233.56 493.89 234.3 493.88 234.5 493.93 234.67 494.03 234.87 494.19 235.09 494.72 235.62 495.63 236.3 Z" id="UZB-358" data-name="Samarkand"/>
<path d="M 529.95 292.28 529.6 292.52 529.38 292.73 529.28 293.05 529.2 293.71 529.55 295.55 529.55 295.56 530.85 296.51 536.47 298.06 540.25 298.17 542.08 298.75 542.28 298.93 542.65 299.45 542.91 299.66 543.23 299.71 544 299.58 544.3 299.65 544.72 300.21 544.73 300.22 544.81 300.85 544.28 304.46 544.52 305.59 544.52 305.6 544.57 305.64 543.88 306.05 543.04 306.31 539.66 306.43 539.07 306.55 538.53 306.72 538.26 306.85 537.98 307.04 537.64 307.31 537.36 307.64 537.24 307.99 537.25 308.38 537.59 309.46 537.86 311.12 538.99 312.72 539.09 312.92 539.15 313.16 539.14 313.42 539.09 313.72 538.99 313.98 538.94 314.26 538.92 314.51 538.92 314.75 538.94 314.99 539.01 315.23 539.1 315.45 539.25 315.93 539.28 316.18 539.28 316.45 539.15 316.8 538.91 317.17 538.43 317.74 538.21 318.13 538.09 318.47 538.08 319.28 538.01 319.5 537.84 319.67 537.52 319.63 537.27 319.51 536.43 318.8 536.23 318.68 535.99 318.56 535.68 318.46 535 318.31 534.26 318.24 533.59 318.26 533.01 318.38 532.34 318.61 531.9 318.88 531.6 319.1 531.35 319.34 528.58 323.57 528.1 324.07 527.28 324.73 526.84 325.01 526.13 325.3 524.29 325.65 523.91 326.33 523.41 327 522.57 327.71 520.84 328.84 520.58 329.13 520.28 329.72 520.02 330.51 519.52 332.9 519.16 334 519.03 334.25 518.44 334.76 513.29 338.01 510.63 339.17 510.09 339.3 508.41 339.52 508.03 339.74 507.61 340.13 506.89 341.08 506.39 342 506.22 342.54 505.97 343.11 505.67 343.67 505.32 344.16 499.65 348.34 499.27 348.74 498.99 349.51 498.75 351.33 498.5 351.96 497.77 353.09 496.39 353.8 496.39 353.8 495.82 352.53 495.82 352.53 495.81 352.52 494.25 351.64 492.56 351 490.79 350.61 487.23 350.6 485.79 350.25 481.07 348.51 478.91 346.36 477.55 345.33 476.03 344.78 473.02 344.1 470.14 342.28 468.83 341.73 465.76 341.34 461.08 339.56 459.51 339.45 458.18 339.88 455.94 341.3 454.74 341.83 451.55 342.04 448.42 341.21 440.77 337.14 436.15 334.69 429.88 331.35 425.49 328.21 419.31 323.79 416.19 322.26 409.35 320.37 403.38 317.67 393.59 311.22 390.95 308.55 390.96 308.54 391.68 307.95 395.92 304.34 398.1 303.17 404.49 301.17 406.99 300.47 414.72 298.29 414.98 298.17 415.2 297.98 415.31 297.59 415.27 297.32 415.14 297.09 414.98 296.9 413.5 295.48 413.17 295.11 412.95 294.71 412.88 294.5 412.83 294.28 412.83 294.04 412.88 293.78 413.16 293.39 413.61 292.92 417.15 289.92 417.42 289.75 417.77 289.63 418.34 289.58 418.76 289.6 419.31 289.44 419.9 289.09 424.55 285.48 426.75 284.2 431.34 283.36 432.22 282.92 452.06 283.31 452.6 283.18 453.61 282.77 454.58 282.22 454.79 282.04 454.95 281.83 455.01 281.6 455.03 281.36 454.99 280.66 455.03 280.41 455.13 280.18 455.52 279.97 456.02 279.9 457.48 279.94 457.93 280 458.23 280.08 458.47 280.2 458.67 280.36 458.83 280.54 458.95 280.74 459.39 282.26 459.5 282.5 459.52 282.52 459.52 282.53 459.78 282.87 460.28 283.41 462.71 285.24 464.09 285.98 465.26 286.68 465.4 286.9 465.54 287.18 465.56 287.9 465.5 288.63 465.5 288.94 465.54 289.29 465.65 289.82 465.86 290.11 466.16 290.28 469.27 290.93 470.93 290.92 471.65 290.73 472.63 290.24 477.06 288.54 477.29 288.53 484 287.33 484.88 287.29 486.07 287.87 488.81 289.58 489.56 289.87 490.16 290 490.54 289.97 494.01 288.88 494.45 288.55 495.96 286.77 496.26 286.52 496.64 286.28 497.36 285.96 498.2 285.77 498.81 285.77 502.47 286.23 506.42 286.83 507.41 286.95 508.34 288.33 508.51 288.98 508.22 290.27 508.14 290.98 508.2 291.35 508.38 291.63 508.64 291.79 508.95 291.92 509.29 292.02 509.95 292.12 515.08 291.97 515.65 291.87 515.9 291.78 516.12 291.62 516.29 291.42 516.4 291.18 516.43 290.95 516.42 290.71 516.35 290.26 516.37 290.02 518.84 290.11 529.95 292.28 Z" id="UZB-361" data-name="Kashkadarya"/>
<path d="M 566.88 310.45 567.36 311.01 567.82 311.94 567.77 312.97 567.35 313.74 566.78 314.37 566.07 314.86 565.28 315.22 564.19 315.4 563.37 315.38 562.85 315.63 562.69 316.64 562.83 317.1 563.1 317.52 563.31 317.95 563.28 318.47 563.04 318.75 561.86 319.4 561.5 320.1 561.62 320.96 562.24 322.69 562.35 323.63 562.19 326.3 562.31 327.32 562.66 327.94 563.79 329.29 564.05 330 564.15 331.47 564.3 332.15 564.75 332.81 566.57 334.18 568.29 336.66 569.08 337.3 571.49 338.36 575.18 340.95 576.3 342.37 576.51 344.16 575.75 346.88 574.6 349.45 572.79 351.63 572.23 352.51 572.22 352.52 572.22 352.52 572.22 352.53 572.21 352.53 571.87 353.32 571.66 354.03 571.31 354.62 570.81 354.91 570.58 355.04 569.87 355.21 567.7 355.45 566.25 355.84 565.43 356.5 563.45 361.25 562.08 363.38 558.7 367.13 556.19 369.03 553.79 371.45 551.81 374.18 550.51 377.04 550.33 378.99 551.25 382.66 551.41 384.62 551.17 386.29 550.64 387.87 549.76 389.25 549.55 389.94 549.34 389.07 548.79 388.45 547.97 388.05 547.01 387.86 545.35 387.92 544.76 387.86 544.25 387.65 543.24 387.04 542.7 386.91 542.17 386.96 541.29 387.18 540.8 387.23 540.51 387.44 540.23 387.9 539.87 388.34 539.37 388.5 538.61 387.95 537.73 386.03 536.66 385.61 535.7 385.82 534.84 386.34 533.31 387.57 532.39 388.12 531.46 388.51 530.45 388.74 529.32 388.81 528.13 389.03 526.36 389.95 525.32 390.11 524.28 389.77 523.75 389.06 523.41 388.2 522.94 387.4 522.01 386.71 519.95 386.08 519.01 385.61 518.57 384.9 517.81 382.89 517.23 382.47 516.26 382.24 514.4 381.17 513.55 380.85 511.31 380.81 507.04 381.62 500.96 381.83 500.47 381.98 499.56 382.61 499.07 382.76 497.81 382.71 497.23 382.63 494.16 381.59 493.05 381.49 491.86 381.56 490.96 381.79 489.81 381.08 489.91 380.23 490.61 379.44 491.48 378.73 492.21 377.77 492.03 377.02 491.29 376.39 490.38 375.77 489.74 374.45 489.92 372.79 490.93 369.66 491.11 367.81 490.74 364.16 490.92 362.34 492.54 360.05 495.11 357.39 496.82 354.76 496.39 353.8 496.39 353.8 497.77 353.09 498.5 351.96 498.75 351.33 498.99 349.51 499.27 348.74 499.65 348.34 505.32 344.16 505.67 343.67 505.97 343.11 506.22 342.54 506.39 342 506.89 341.08 507.61 340.13 508.03 339.74 508.41 339.52 510.09 339.3 510.63 339.17 513.29 338.01 518.44 334.76 519.03 334.25 519.16 334 519.52 332.9 520.02 330.51 520.28 329.72 520.58 329.13 520.84 328.84 522.57 327.71 523.41 327 523.91 326.33 524.29 325.65 526.13 325.3 526.84 325.01 527.28 324.73 528.1 324.07 528.58 323.57 531.35 319.34 531.6 319.1 531.9 318.88 532.34 318.61 533.01 318.38 533.59 318.26 534.26 318.24 535 318.31 535.68 318.46 535.99 318.56 536.23 318.68 536.43 318.8 537.27 319.51 537.52 319.63 537.84 319.67 538.01 319.5 538.08 319.28 538.09 318.47 538.21 318.13 538.43 317.74 538.91 317.17 539.15 316.8 539.28 316.45 539.28 316.18 539.25 315.93 539.1 315.45 539.01 315.23 538.94 314.99 538.92 314.75 538.92 314.51 538.94 314.26 538.99 313.98 539.09 313.72 539.14 313.42 539.15 313.16 539.09 312.92 538.99 312.72 537.86 311.12 537.59 309.46 537.25 308.38 537.24 307.99 537.36 307.64 537.64 307.31 537.98 307.04 538.26 306.85 538.53 306.72 539.07 306.55 539.66 306.43 543.04 306.31 543.88 306.05 544.57 305.64 545.37 306.26 551.31 307.01 552.56 306.99 556.08 306.07 556.08 306.06 556.09 306.06 556.09 306.06 556.1 306.06 556.72 305.82 557.37 305.68 558.04 305.69 558.82 305.9 559.19 306.07 559.91 306.61 560.67 306.72 561.44 306.5 562.22 306.06 562.58 305.98 562.96 305.96 563.34 305.98 563.7 306.06 563.71 306.06 563.72 306.06 563.73 306.07 564.44 306.74 566.01 309.45 566.88 310.45 Z" id="UZB-362" data-name="Surkhandarya"/>
<path d="M 798.37 220.49 798.75 220.56 798.76 220.56 799 221.5 797.58 222.92 795.37 223.88 791.01 225.1 787.03 227.01 783.68 227.66 782.05 228.19 780.94 229.49 780.4 232.58 779.04 233.06 777.34 232.46 776.49 232.46 776.13 233.23 776.07 233.92 775.85 234.58 775.4 235.15 774.69 235.58 772.84 235.67 769.57 233.95 767.78 233.77 766.44 233.26 764.9 231.9 763.35 230.86 761.98 231.33 761.82 232.1 761.82 232.11 762.81 233.38 762.82 233.39 762.82 234.22 762.5 234.98 762.51 235.5 762.51 235.5 762.92 235.92 764.94 237.03 764.94 237.04 765.14 237.42 765.42 237.95 765.43 237.96 765.38 239.05 764.88 240.22 763.94 241.21 762.84 241.39 761.58 241.03 758.84 239.8 758.15 239.6 756.05 239.68 755.46 239.53 755.46 239.52 755.68 239.1 756.22 238.98 757.01 238.92 757.69 238.75 757.87 238.28 757.86 238.27 757.44 238.01 756.59 237.94 756.23 237.95 756.23 237.93 756.23 237.93 756.17 237.72 755.77 236.65 755.66 236.01 755.79 235.18 755.96 234.31 755.99 233.76 755.98 233.5 755.93 233.27 755.27 232.82 752.86 232.27 752.33 232.23 752 232.02 751.09 231.01 750.43 230.65 749.97 230.96 749.47 231.44 748.68 231.5 745.88 231.05 743.7 230.49 742.38 230.56 741.45 230.69 740.34 230.55 739.91 230.44 739.54 230.29 737.67 228.35 737.25 227.8 736.86 227.46 736.35 227.24 733.92 226.6 733.17 226.56 732.66 226.62 732.43 226.75 731.97 226.7 731.35 226.54 730.1 226.05 729.61 226.03 729.33 226.18 729.25 227 729.05 226.91 728.59 226.4 727.57 224.92 726.19 223.33 727.53 222.33 726.8 221.16 726.24 220.6 726.2 220.28 726.39 220.02 727.91 218.95 728.49 218.63 729.09 217.95 733.9 216.98 735.44 217.57 737.38 216.86 737.92 216.74 738.94 216.74 740.06 216.8 741.33 216.71 747.42 217.83 748.23 217.9 749 217.79 751.79 217.7 752.49 217.6 752.77 217.51 752.98 217.42 753.33 217.17 754.44 213.3 754.71 212.54 757.38 211.93 759.09 211.74 759.44 211.53 759.97 210.31 760.22 209.97 761.07 209.45 761.69 209.77 763.02 211.35 763.99 211.81 765.3 212.11 767.78 212.29 768.02 212.43 768.15 212.62 768.17 212.86 768.09 213.14 768.09 214.21 768.93 214.53 770.08 214.59 770.98 214.86 772.97 217.21 774.41 218.41 776.21 219.01 778.21 219.19 784.2 218.78 785.99 219.15 786.19 220.51 786.07 221.29 786.66 221.22 788.81 220.08 792.25 218.87 793 219.26 793.64 219.94 794.58 220.44 797.32 220.31 798.37 220.49 Z" id="UZB-363" data-name="Andijon"/>
<path d="M 734.35 263.81 733.63 263.92 732.43 263.64 731.54 263.31 730.54 262.76 730.08 262.09 730.84 261.39 732 261.35 732.8 261.04 734.5 260.06 735.66 259.79 735.85 260.27 734.8 263.24 734.35 263.81 Z M 707.03 257.32 707.38 257.36 707.61 257.29 708.12 256.97 708.37 256.86 709.55 256.62 710.14 256.7 710.49 257.13 710.18 257.86 708.03 259.02 707.27 259.59 707.38 260.79 709.43 262.48 709.34 263.91 708.84 264.48 708.2 264.66 706.64 264.69 704.44 265.14 703.75 265.09 703.21 264.71 703.1 264.19 702.87 263.8 701.99 263.76 701.47 264.05 700.83 264.53 700.17 264.85 699.59 264.62 699.51 263.44 701.5 261.03 701.28 259.68 700.75 259.35 699.51 259.14 698.9 258.89 698.37 258.31 697.22 256.38 696.97 255.63 697.02 254.86 697.29 254.04 698.09 252.59 699.55 251.98 700.61 252.48 701.38 253.61 702.02 254.88 702.82 255.65 704.08 256.29 706.69 257.13 706.84 257.23 707.03 257.32 Z M 697.25 248.23 696.29 248.16 692.17 248.44 685.55 250 683.56 250.13 681.6 250.03 679.72 249 678.89 247.03 678.27 244.88 677.04 243.33 676.01 243.01 675.13 243.08 674.25 243.28 673.23 243.35 672.26 243.14 669.94 242.35 670.57 240.73 670.44 240.54 670.05 240.17 669.94 240.1 669.97 240.12 669.36 239.43 669.28 239.31 669.2 239.09 669.13 238.11 669.86 237.21 671.24 236.53 674.44 235.96 674.89 235.82 675.36 235.35 676.48 233.9 677.11 233.42 677.75 233.2 678.44 233.05 679.14 232.8 679.73 232.41 681.37 230.87 684.19 229.11 684.89 228.62 685.55 228.22 685.94 228.07 686.71 227.94 686.86 227.76 686.94 227.54 687.1 227.35 687.83 227 687.83 226.98 689.03 226.41 689.52 225.99 689.95 225.51 690.46 225.08 691.25 224.8 691.87 224.76 693.17 224.86 693.79 224.8 695.97 223.31 696.91 223.31 697.64 223.54 698.01 223.74 698.31 223.94 699.8 224.1 705.05 223.88 702.1 226.95 702.36 227.15 704.18 227.3 704.52 227.43 705.84 228.48 706.18 228.63 706.66 228.75 707.51 228.87 708.03 229.02 708.98 229.61 711.08 230.48 711.75 230.64 712.81 230.48 715.85 228.3 717.31 226.59 718.22 226.01 722.35 224.3 726.19 223.33 727.57 224.92 728.59 226.4 729.05 226.91 729.25 227 729.33 226.18 729.61 226.03 730.1 226.05 731.35 226.54 731.97 226.7 732.43 226.75 732.66 226.62 733.17 226.56 733.92 226.6 736.35 227.24 736.86 227.46 737.25 227.8 737.67 228.35 739.54 230.29 739.91 230.44 740.34 230.55 741.45 230.69 742.38 230.56 743.7 230.49 745.88 231.05 748.68 231.5 749.47 231.44 749.97 230.96 750.43 230.65 751.09 231.01 752 232.02 752.33 232.23 752.86 232.27 755.27 232.82 755.93 233.27 755.98 233.5 755.99 233.76 755.96 234.31 755.79 235.18 755.66 236.01 755.77 236.65 756.17 237.72 756.23 237.93 756.23 237.93 756.23 237.95 754.11 238.03 753.33 238.19 750.24 239.49 749.81 239.97 749.53 240.84 748.86 242.14 747.63 243.07 743.61 244.64 743.35 245.3 743.35 245.3 743.68 245.99 744.56 246.48 745.9 246.96 746.24 247.13 746.55 247.28 746.8 247.65 746.5 248.15 745.85 248.28 745.11 248.19 744.56 248.01 744.19 247.95 743.92 247.98 743.38 248.11 741.55 248 739.72 247.65 738.03 247.73 736.58 248.84 735.72 250.31 735.21 250.95 734.46 251.5 732.02 252.6 731.37 252.75 730.43 252.44 730.14 251.73 730.16 249.82 729.83 248.88 729.17 247.82 728.35 247.28 727.51 247.86 727.22 248.75 727.11 249.55 726.71 250.09 725.56 250.17 723.38 249.84 722.32 249.52 721.33 249.05 720.48 248.43 720.11 247.74 719.66 247.18 717.58 246.69 716.12 245.64 715.18 245.59 713.73 245.71 712.96 245.65 712.32 245.44 711.83 245.01 711.42 244.52 710.95 244.23 710.29 244.39 709.56 245.23 709.15 246.26 708.5 247.05 707.03 247.16 701.63 246.56 698.93 246.92 697.25 248.23 Z" fill-rule="evenodd" id="UZB-364" data-name="Ferghana"/>
<path d="M 754.71 212.54 754.44 213.3 753.33 217.17 752.98 217.42 752.77 217.51 752.49 217.6 751.79 217.7 749 217.79 748.23 217.9 747.42 217.83 741.33 216.71 740.06 216.8 738.94 216.74 737.92 216.74 737.38 216.86 735.44 217.57 733.9 216.98 729.09 217.95 728.49 218.63 727.91 218.95 726.39 220.02 726.2 220.28 726.24 220.6 726.8 221.16 727.53 222.33 726.19 223.33 722.35 224.3 718.22 226.01 717.31 226.59 715.85 228.3 712.81 230.48 711.75 230.64 711.08 230.48 708.98 229.61 708.03 229.02 707.51 228.87 706.66 228.75 706.18 228.63 705.84 228.48 704.52 227.43 704.18 227.3 702.36 227.15 702.1 226.95 705.05 223.88 699.8 224.1 698.31 223.94 698.01 223.74 697.64 223.54 696.91 223.31 695.97 223.31 693.79 224.8 693.17 224.86 691.87 224.76 691.25 224.8 690.46 225.08 689.95 225.51 689.52 225.99 689.03 226.41 687.83 226.98 687.93 226.6 688.33 225.03 686.56 224.25 682.31 223.5 681.58 222.78 681.47 221.98 681.9 221.4 682.83 221.32 684.45 222.39 685.36 222.65 685.45 221.79 685.07 221.38 676.59 214.11 675.13 213.14 674.98 213 674.86 212.85 673.97 212.11 673.97 212.1 674.31 211.03 674.22 207.58 674.01 206.56 673.06 205.35 672.13 204.4 671.83 204.03 671.73 203.71 671.71 203.41 671.8 203.13 672.69 201.71 672.82 201.42 673.04 200.77 672.87 200.4 671.59 200.26 671.43 200.09 671.27 199.85 671.26 199.13 671.14 198.6 671.21 198.26 671.34 198 673.61 195.71 674.03 195.12 674.56 194.02 674.86 194.03 676.45 193.58 682.14 191.11 683.72 190.93 684.6 191.35 685.38 192.14 687.99 195.53 688.43 196.48 688.52 197.46 687.83 200.31 687.91 201.12 688.49 201.75 689.24 201.67 690.14 201.34 691.19 201.26 692.08 201.54 692.92 202 693.68 202.59 694.32 203.26 695.17 203.87 696.1 203.94 698.09 203.71 700.3 204.02 701.34 204.38 702.3 204.95 703.14 205.31 704.87 205.49 705.62 205.94 706.8 207.44 707.53 207.81 707.98 206.92 707.89 205.94 707.66 205.11 707.79 204.46 708.75 204.07 709.85 204.14 710.38 204.7 710.95 206.45 711.39 207.1 711.99 207.58 712.61 207.55 713.11 206.66 714.27 205.53 717.45 207.6 718.49 206.92 718.74 205.31 718.33 197.29 718.62 196.7 719.25 196.82 721.49 198.4 723.5 199.05 725.08 198.82 726.36 197.8 727.91 195.28 728.57 193.72 728.78 192.8 728.6 191.95 727.3 190.68 726.83 189.91 726.83 189.9 726.83 189.89 726.83 189.89 727.75 188.11 728.31 187.6 729.34 187.28 730.36 187.4 730.95 188.02 731.19 188.92 731.2 189.89 730.34 192.5 730.38 193.07 730.82 193.19 731.09 192.81 731.29 192.3 731.5 192.05 732 192.2 732.25 192.95 732.69 193.1 733.06 192.85 733.1 191.87 733.4 191.68 733.78 191.8 734.15 192.05 738.52 196.95 739.26 198.33 739.53 199.86 739.41 201.84 739.66 203.8 740.87 204.24 744.56 203.77 745.68 204.47 746.39 205.24 747.19 205.56 748.58 204.93 749.59 204.25 750.67 203.71 751.8 203.58 752.99 204.11 753.52 205 753.74 206.27 753.82 207.59 754.25 210.02 754.25 210.93 753.93 211.76 753.3 212.87 754.71 212.54 Z M 682.66 215.85 682.59 215.06 681.98 213.93 681.34 213.14 680.26 212.4 678.98 211.98 678.23 212.13 678.78 213.09 678.82 213.13 679.6 213.73 680.96 215.12 681.74 215.69 682.66 215.85 Z" fill-rule="evenodd" id="UZB-365" data-name="Namangan"/>
<path d="M 572.13 228.51 572.03 230.39 571.41 230.88 568.85 231.22 568.25 231.32 567.98 231.41 567.77 231.55 567.66 231.79 567.6 232.89 567.29 234.62 567.4 234.86 567.65 235.03 568.43 234.96 569.26 234.76 569.7 234.73 569.82 235.32 564.33 244.94 564.14 245.57 564.01 246.31 564.2 247.58 564.4 247.95 564.67 248.31 564.85 248.48 566.12 248.64 576.68 248.82 590.61 246.18 590.81 246.19 590.86 246.29 590.62 246.61 590.4 246.84 590.2 247.09 590.02 247.42 589.37 249.2 589.18 249.53 589.03 249.92 589.58 250.74 589.6 250.76 589.62 250.77 587.72 251.16 586.75 251.68 587.95 252.69 590.03 253.7 591.68 254.18 592.12 254.11 590.13 256.14 589.41 257.14 589.22 257.65 589.17 258 589.19 258.31 589.25 258.57 589.43 259 589.58 259.25 589.61 259.3 589.71 259.46 590.09 260.3 590.24 260.75 590.3 261 590.34 261.43 590.2 262.97 590.03 263.21 589.86 263.23 589.71 263.05 589.53 262.87 589.28 262.75 588.99 262.73 588.62 262.9 588.58 263.09 588.68 263.27 588.89 263.43 589.72 263.84 589.95 263.99 590.09 264.17 590.02 264.43 589.88 264.76 589.63 265.17 589.62 265.89 589.5 266.36 589.38 266.33 588.85 266.3 588.37 267.29 587.9 274.79 587.65 275.9 587.03 276.82 585.91 277.73 583.92 278.71 583.29 279.4 583.46 279.69 583.79 280.28 583.79 280.29 582.88 280.62 580.02 281.2 577.71 281.37 575.43 281.24 571.64 280.19 564.68 280.03 548.81 276.84 546.63 276.81 544.9 277.24 540.57 279.63 536.86 280.08 535.94 280.78 536.26 282.83 536.26 282.84 536.1 283 535.91 283.14 535.7 283.23 535.46 283.27 534.27 283.14 533.56 283.21 530.05 280.8 528.11 279.47 527.46 278.87 526.98 278.1 527.08 274.88 527.23 274.52 527.5 274.08 528.13 273.97 529.54 273.93 529.93 273.89 530.35 273.76 530.55 273.55 530.65 273.26 530.69 272.71 530.67 272.45 530.56 271.97 530.48 271.73 530.42 271.41 530.4 271 530.45 270.32 530.54 270 530.64 269.8 531.01 269.51 531.73 269.1 533.18 268.51 534.18 268.23 535.43 268.01 535.79 267.99 536.51 267.84 536.69 267.47 535.43 263.14 534.65 262.18 526.61 261.02 525.51 260.91 525.05 261.05 524.63 261 524.31 260.88 523.55 260.5 523.23 260.52 522.91 260.59 522.16 260.62 521.63 260.57 517.97 259.79 517.42 259.08 517.2 259.14 516.99 259.17 516.37 259.35 514.75 257.97 514.68 257.72 514.66 257.34 514.81 257.04 514.77 256.4 514.54 256.12 514.22 255.94 513.86 255.89 513.56 255.9 513.33 255.95 512.44 256.29 512.15 256.37 511.79 256.41 511.39 256.39 510.86 256.29 510.64 256.09 510.49 255.85 510.28 253.76 510.32 253.51 510.44 253.3 510.69 253.19 511.56 252.97 511.79 252.82 511.93 252.67 512.13 252.25 512.16 251.17 510.89 249.98 510.74 249.61 510.76 249.27 510.87 249 510.92 248.67 510.76 248.47 510.53 248.3 509.57 247.95 509.21 247.75 509.05 247.51 508.94 247.28 508.28 244.87 508.18 244.09 508.1 241.9 508.11 241.59 508.16 241.3 508.26 241.02 508.66 240.31 508.93 239.63 508.98 238.99 508.87 238.55 508.69 238.11 508.33 237.52 508.1 237.23 507.84 237.09 507.57 237.11 506.34 237.31 505.28 237.35 504.53 237.26 503.78 237.1 501.85 236.67 496 236.51 495.63 236.3 502.74 225.76 504.04 223.28 503.03 221.9 502.6 221.09 502.52 220.88 502.52 220.1 502.64 219.26 502.65 218.81 502.63 218.47 502.54 218.25 502.37 218.08 502.12 217.92 497.91 217.05 497.27 216.78 496.99 216.63 496.6 216.27 496.34 215.87 496.23 215.66 496.15 215.41 495.36 208.93 495.94 208.35 496.33 207.63 502.01 205.88 502.03 205.72 502.78 205.87 504.7 206.25 510.09 206 514.63 205.8 521.4 205.49 526.37 205.27 532.3 205 536.07 204.83 542.1 204.55 548.05 204.28 548.58 204.4 549.1 204.51 550.08 204.89 551.06 205.28 551.57 205.41 552.08 205.55 552.52 205.5 552.97 205.45 554.32 204.78 555.66 204.1 556.25 203.82 556.84 203.53 557.12 204.19 557.4 204.85 557.46 204.88 557.51 204.91 557.68 205.17 557.84 205.43 558.86 206.45 559.89 207.47 560.13 207.88 560.36 208.29 560.54 209.19 560.73 210.09 561.03 210.47 561.35 210.85 561.62 210.68 561.9 210.51 562.2 210.4 562.49 210.29 562.78 210.33 563.07 210.36 563.32 210.61 563.57 210.85 563.89 210.33 564.21 209.81 564.7 209.78 565.2 209.74 565.29 210.23 565.38 210.72 565.39 210.78 565.39 210.83 565.33 211.04 565.27 211.26 565.5 211.31 565.72 211.37 565.79 211.42 565.85 211.46 565.32 211.76 564.78 212.06 564.58 212.13 564.38 212.21 564.57 212.28 564.76 212.36 564.88 212.47 564.98 212.58 565.17 212.85 565.37 213.13 565.36 213.79 565.35 214.45 565.13 215.23 564.9 216.01 564.55 216.77 564.21 217.53 563.85 218.14 563.49 218.74 563.24 219.05 562.98 219.35 562.64 219.64 562.29 219.94 561.91 220.17 561.52 220.4 560.71 220.68 559.89 220.96 559.68 221.11 559.47 221.25 559.4 221.43 559.33 221.62 559.48 221.7 559.63 221.78 560.55 221.93 561.47 222.08 562.18 222.39 562.89 222.69 565.01 224.29 567.13 225.89 568.69 226.82 570.26 227.76 572.13 228.51 Z" id="UZB-370" data-name="Jizzakh"/>
<path d="M 589.5 266.36 589.62 265.89 589.63 265.17 589.88 264.76 590.02 264.43 590.09 264.17 589.95 263.99 589.72 263.84 588.89 263.43 588.68 263.27 588.58 263.09 588.62 262.9 588.99 262.73 589.28 262.75 589.53 262.87 589.71 263.05 589.86 263.23 590.03 263.21 590.2 262.97 590.34 261.43 590.3 261 590.24 260.75 590.09 260.3 589.71 259.46 589.61 259.3 589.58 259.25 589.43 259 589.25 258.57 589.19 258.31 589.17 258 589.22 257.65 589.41 257.14 590.13 256.14 592.12 254.11 603 252.49 605.16 253.68 605.46 254.33 605.61 255.05 605.54 255.72 605.16 256.29 604.1 256.42 600.72 256.02 599.78 256.25 598.13 257.35 597.53 257.5 596.48 256.05 595.75 255.6 595.15 256.45 595.24 256.87 596.07 257.38 596.23 257.73 596.13 258.68 596.2 259.12 596.43 259.59 600.52 263.93 600.68 264.96 598.7 265.6 597.64 264.33 596.93 262.32 595.98 260.73 595.01 260.21 594.69 260.57 594.86 261.44 595.31 262.45 596.35 264.15 596.34 264.8 595.77 265.7 595.6 265.79 595.11 265.85 594.95 265.93 594.62 266.63 594.63 266.69 594.62 266.92 594.52 267.39 594.21 267.69 593.59 267.44 592.35 265.89 591.58 265.44 590 266.52 589.5 266.36 Z M 609.64 249.23 608.17 248.66 607.11 248.52 599.55 249.42 598.63 249.71 597.01 250.43 595.92 250.54 593.23 250.18 592.2 250.25 589.62 250.77 589.6 250.76 589.58 250.74 589.03 249.92 589.18 249.53 589.37 249.2 590.02 247.42 590.2 247.09 590.4 246.84 590.62 246.61 590.86 246.29 590.81 246.19 590.61 246.18 576.68 248.82 566.12 248.64 564.85 248.48 564.67 248.31 564.4 247.95 564.2 247.58 564.01 246.31 564.14 245.57 564.33 244.94 569.82 235.32 569.7 234.73 569.26 234.76 568.43 234.96 567.65 235.03 567.4 234.86 567.29 234.62 567.6 232.89 567.66 231.79 567.77 231.55 567.98 231.41 568.25 231.32 568.85 231.22 571.41 230.88 572.03 230.39 572.13 228.51 575.73 229.95 581.21 232.14 581.28 232.02 581.36 231.9 581.64 231.68 581.93 231.46 582.28 231.48 582.63 231.49 582.81 231.33 582.98 231.16 583.11 230.96 583.24 230.76 583.45 230.65 583.67 230.54 583.94 230.57 584.21 230.61 585.14 230.96 586.06 231.31 586.69 231.38 587.3 231.45 587.79 231.23 588.29 231 588.44 230.7 588.58 230.39 588.13 230.21 587.68 230.03 588.25 229.33 588.81 228.62 588.86 228.46 588.9 228.31 588.7 228.05 588.51 227.79 588.35 227.5 588.19 227.22 588.11 226.92 588.03 226.62 588.05 226.33 588.07 226.04 587.49 225.94 586.9 225.83 586.67 225.74 586.45 225.64 586.26 225.46 586.07 225.27 585.91 224.84 585.76 224.39 585.52 222.45 585.29 220.5 585.37 220.15 585.47 219.79 585.59 219.67 585.72 219.55 585.87 219.47 586.02 219.38 586.18 219.12 586.32 218.86 586.35 218.63 586.38 218.41 586.32 217.89 586.26 217.37 586.27 217.11 586.28 216.86 586.38 216.9 586.48 216.95 586.7 217.01 586.92 217.08 587.02 217.13 587.13 217.18 587.38 216.63 587.64 216.09 588.28 215.75 588.93 215.42 589.93 215.08 592.29 216.73 592.66 217.13 592.81 217.6 592.87 218.7 592.99 219.04 593.23 219.16 593.64 218.93 593.85 218.92 593.98 219.24 594.13 220.04 594.89 219.81 595.91 219.94 596.92 220.29 597.62 220.67 598.04 221.08 598.58 221.88 598.92 222.23 599.24 222.41 600.48 222.89 600.99 223.2 601.24 223.44 601.72 224.19 601.76 224.4 601.68 224.94 601.72 225.14 602.03 225.37 602.35 225.39 602.68 225.35 603.02 225.43 603.65 225.88 604.16 226.45 604.27 227.07 603.65 227.68 604.37 228.01 605.02 227.85 605.67 227.52 606.38 227.34 606.82 227.54 606.65 228.01 605.9 228.95 607.86 228.66 608.72 228.72 609.27 229.88 610.12 230.42 610.34 230.85 610.17 231.25 609.41 231.81 609.39 232.15 609.75 232.32 610.21 232.06 610.7 231.69 611.15 231.49 611.57 231.64 611.86 231.97 611.88 232.3 610.71 232.7 610.26 233.34 609.74 235.01 610.26 234.97 610.76 234.99 611.22 235.11 611.64 235.35 610.77 235.73 610.86 236.1 611.35 236.46 611.64 236.75 611.74 237.13 611.9 237.54 611.98 237.95 611.79 238.35 611.13 239.01 610.87 239.36 610.59 239.83 610.47 240.15 609.5 244.41 610.16 245.69 610.47 246.08 610.55 246.76 609.89 248.6 609.64 249.21 609.64 249.23 Z" fill-rule="evenodd" id="UZB-371" data-name="Sirdaryo"/>
<path d="M 710.77 157.15 710.92 157.19 710.22 158.92 708.5 159.83 704.66 160.66 698.09 164.31 696.18 164.66 693.89 164.58 691.97 164.96 691.17 166.66 691.03 169.33 690.51 170.11 688.9 170.57 684.27 170.96 682.84 171.6 678.25 174.55 676.22 176.33 674.86 178.52 673.77 179.75 672.37 180.45 670.85 181 668.08 182.65 660.55 185.96 659.58 187.17 660.43 188.67 662.14 189.34 668.69 189.89 668.7 189.9 668.71 189.9 668.72 189.91 670.45 190.7 671.23 191.23 671.91 191.89 673.04 193.5 673.75 194 674.56 194.02 674.03 195.12 673.61 195.71 671.34 198 671.21 198.26 671.14 198.6 671.26 199.13 671.27 199.85 671.43 200.09 671.59 200.26 672.87 200.4 673.04 200.77 672.82 201.42 672.69 201.71 671.8 203.13 671.71 203.41 671.73 203.71 671.83 204.03 672.13 204.4 673.06 205.35 674.01 206.56 674.22 207.58 674.31 211.03 673.97 212.1 673.97 212.11 673.4 211.63 671.33 210.98 669.58 211.33 668.29 216.23 665.72 218.52 662.35 220.06 657.53 221.51 653.14 224.08 644.57 226.13 643.55 226.52 642.63 227.11 640.68 228.99 639.57 229.74 638.32 230.03 636.89 229.63 636.31 229.22 635.83 228.73 634.98 227.63 634.46 227.16 633.29 226.58 632.74 226.2 630.93 224.06 629.88 223.31 628.4 223.2 627.67 222.86 627.09 222.39 626.47 222.01 625.63 221.94 624.12 222.31 623.38 222.62 622.72 223.05 621.53 224.21 620.82 225.42 620.49 226.81 620.46 228.52 620.78 230.99 620.59 231.62 619.92 231.93 617.1 232.11 615.44 232.98 615.42 233.94 617.29 236.35 617.29 236.35 618.29 238.97 618.74 239.8 619.95 241.47 620.45 242.35 620.75 243.38 620.4 245.65 618.91 245.85 617.12 245.33 615.9 245.44 616.09 246.82 619.47 249.15 619.47 250.25 617.73 250.86 615.41 250.8 611.24 249.84 609.64 249.23 609.64 249.21 609.89 248.6 610.55 246.76 610.47 246.08 610.16 245.69 609.5 244.41 610.47 240.15 610.59 239.83 610.87 239.36 611.13 239.01 611.79 238.35 611.98 237.95 611.9 237.54 611.74 237.13 611.64 236.75 611.35 236.46 610.86 236.1 610.77 235.73 611.64 235.35 611.22 235.11 610.76 234.99 610.26 234.97 609.74 235.01 610.26 233.34 610.71 232.7 611.88 232.3 611.86 231.97 611.57 231.64 611.15 231.49 610.7 231.69 610.21 232.06 609.75 232.32 609.39 232.15 609.41 231.81 610.17 231.25 610.34 230.85 610.12 230.42 609.27 229.88 608.72 228.72 607.86 228.66 605.9 228.95 606.65 228.01 606.82 227.54 606.38 227.34 605.67 227.52 605.02 227.85 604.37 228.01 603.65 227.68 604.27 227.07 604.16 226.45 603.65 225.88 603.02 225.43 602.68 225.35 602.35 225.39 602.03 225.37 601.72 225.14 601.68 224.94 601.76 224.4 601.72 224.19 601.24 223.44 600.99 223.2 600.48 222.89 599.24 222.41 598.92 222.23 598.58 221.88 598.04 221.08 597.62 220.67 596.92 220.29 595.91 219.94 594.89 219.81 594.13 220.04 593.98 219.24 593.85 218.92 593.64 218.93 593.23 219.16 592.99 219.04 592.87 218.7 592.81 217.6 592.66 217.13 592.29 216.73 589.93 215.08 590.35 214.94 591.78 214.47 592.26 214.03 592.72 213.59 593.57 211.73 594.43 209.87 595.06 209.33 595.7 208.78 597.3 208.25 598.9 207.72 599.47 206.97 600.05 206.21 600.35 205.91 600.65 205.61 601.13 205.49 601.61 205.37 602.6 205.28 603.61 205.18 604.44 204.86 605.28 204.56 606.08 204.14 606.87 203.73 607.27 203.43 607.67 203.14 607.85 202.87 608.04 202.6 608.4 200.39 608.76 198.18 608.74 197.8 608.72 197.42 608.66 197.14 608.6 196.87 608.53 196.79 608.46 196.7 608.36 196.64 608.24 196.58 608.02 196.37 607.81 196.17 607.75 195.98 607.68 195.79 607.79 195.62 607.9 195.46 608.09 195.34 608.28 195.22 609.36 194.82 610.43 194.42 610.87 194.32 611.3 194.22 611.74 194.35 612.17 194.48 612.4 193.99 612.64 193.51 613.21 193.09 613.78 192.67 615.04 192.06 616.31 191.46 616.69 191.4 617.06 191.34 617.75 191.53 618.44 191.71 618.78 191.68 619.12 191.64 620.01 191.21 620.91 190.77 621.25 190.7 621.61 190.63 622.98 190.82 624.37 191.01 624.64 190.89 624.91 190.77 624.89 190.53 624.86 190.29 624.47 189.76 624.08 189.22 624 188.98 623.91 188.73 624.22 188.12 624.52 187.51 625.14 187.18 625.75 186.84 627.07 186.52 628.4 186.21 630.76 184.81 633.12 183.41 633.78 182.83 634.45 182.25 634.84 182.02 635.24 181.78 638.37 181.13 641.51 180.48 644.1 180.4 646.69 180.33 647.66 180.02 648.62 179.71 649.32 179.09 650.03 178.46 650.35 178.11 650.67 177.75 651.03 177.53 651.39 177.31 652.69 176.95 653.99 176.59 655.91 175.53 657.85 174.46 658.43 173.94 659.02 173.43 660.6 171.39 662.17 169.35 662.51 169.09 662.84 168.84 663.24 168.66 663.64 168.49 664.07 168.38 664.48 168.27 664.87 168.12 665.25 167.97 665.54 167.72 665.84 167.47 666.01 167.07 666.17 166.66 666.75 165.71 667.33 164.76 668.32 164.12 669.32 163.48 671.59 162.74 673.85 162.01 674.19 162.06 674.54 162.11 674.96 162.34 675.39 162.56 675.76 162.88 676.13 163.19 676.3 163.49 676.47 163.79 676.63 164.23 676.8 164.66 677.16 164.94 677.51 165.21 678 165.35 678.49 165.5 679.04 165.56 679.59 165.61 680.31 165.35 681.04 165.1 681.54 164.41 682.03 163.73 682.46 162.88 682.88 162.03 683.42 161.27 683.97 160.52 684.62 159.94 685.27 159.36 685.51 159.04 685.76 158.73 685.95 158.3 686.14 157.87 686.48 157.53 686.81 157.2 687.36 157.18 687.92 157.17 689 157.39 690.07 157.61 690.95 157.52 691.83 157.42 692.7 157.09 693.58 156.75 695.15 155.8 696.73 154.84 697.74 154.13 699.81 153 701.28 152.85 702.76 153.3 709.28 156.78 710.77 157.15 Z M 612.68 199.79 613.46 199.44 613.54 200.02 613.88 200.54 615.03 201.53 615.78 200.95 615.82 201.14 615.55 201.59 616.13 202.38 617.53 202.65 619.01 201.24 621.36 199.63 623.12 198.97 622.65 198.6 622.98 198.16 622.5 197.62 621.86 197.31 622.57 196.39 622.4 195.64 620.68 194.81 619.25 194.66 618.16 194.09 616.59 194.1 614.12 195.97 613.75 197.44 612.54 199.7 612.68 199.79 Z" fill-rule="evenodd" id="UZB-372" data-name="Tashkent"/>
<path d="M 612.68 199.79 612.54 199.7 613.75 197.44 614.12 195.97 616.59 194.1 618.16 194.09 619.25 194.66 620.68 194.81 622.4 195.64 622.57 196.39 621.86 197.31 622.5 197.62 622.98 198.16 622.65 198.6 623.12 198.97 621.36 199.63 619.01 201.24 617.53 202.65 616.13 202.38 615.55 201.59 615.82 201.14 615.78 200.95 615.03 201.53 613.88 200.54 613.54 200.02 613.46 199.44 612.68 199.79 Z" id="UZB-4828" data-name="Tashkent"/>
</g>
</svg>