<?xml version="1.0"?>
<svg xmlns="http://www.w3.org/2000/svg" version="1.2" baseProfile="tiny" width="800" height="610" viewBox="0 0 800 610" stroke-linecap="round" stroke-linejoin="round">
<g id="ne_10m_admin_1_states_provinces">
<path d="M 302.59 356.81 302.88 359.57 305.17 364.64 309.62 368.72 315.41 372.3 316.25 373 317.48 378.17 317.49 380.14 317.27 380.55 316.21 381.46 314.17 382.49 311.88 383.04 307.5 382.05 305.95 381.25 305.04 380.23 303.98 380.04 299.24 378.05 295.88 377.32 295.26 377.95 295.94 381.43 297.24 384.57 297.32 385.52 296.76 386.4 297.06 387.3 298.07 388.76 298.02 390.9 297.15 392.5 286.11 398.07 284.36 398.31 277.42 397.95 273.27 398.84 273.27 398.94 272.55 398.35 271.01 397.39 266.17 395.88 265.47 389.38 264.69 386.64 263.37 385.35 263.08 383.2 265.47 378.35 264.76 376.17 262.43 374.71 258.49 372.91 255.26 370.15 253.59 368.31 246.54 369.11 246.26 368.1 246.68 366.75 246.86 365.51 247.07 364.89 246.95 363.22 245.06 357.38 245.03 354.96 245.71 353.62 246.75 352.43 248.16 351.51 251.35 350.36 256.3 346.57 259.05 343.42 261.98 344.95 269.23 347.45 271.4 347.34 272.68 347.48 288.05 359.19 289.46 359.17 294.21 359.71 296.45 358.71 298.5 357.16 301.18 356.72 302.59 356.81 Z" id="IRN-3209" data-name="Kohgiluyeh and Buyer Ahmad"/>
<path d="M 261.9 437.63 261.49 437.68 261.08 437.36 260.67 436.45 260.41 435.63 260.12 435.14 260.6 434.89 261.05 435.05 261.79 435.34 262.24 435.57 262.05 436.28 262.17 437 261.9 437.63 Z M 371.21 513.14 369.43 514.06 368.87 514.24 366.94 514.17 364.89 513.7 364.22 513.67 361.52 513.92 361.07 513.9 360.23 514.22 360.05 514.21 359.81 514.45 359.14 515.61 359.14 515.61 355.94 514.35 355.09 513.55 355.02 512.7 355.41 512.17 356.1 511.9 356.96 511.83 357.74 511.85 358.63 511.77 359.15 511.36 358.78 510.39 358.12 509.88 356.44 509.31 355.82 508.85 355.49 508.36 354.83 507 354.55 506.58 351.44 503.74 350.08 502.78 348.57 502.21 341.2 500.77 339.65 500.07 334.77 496.06 333.25 495.15 331.55 494.51 329.58 494.28 326.71 494.59 326.06 494.4 325.28 493.97 323.8 494.06 322.21 494.4 319.62 494.83 318 494.6 314.42 493.94 313.93 493.83 313.72 493.56 313.67 493.17 313.53 492.86 313.32 492.66 312.03 492.49 310.26 492.02 309.38 491.18 308.43 489.77 307.44 489.21 307.12 490.36 306.27 490.42 305.46 487.95 304.65 486.92 304.01 485.42 302.46 483.17 301.75 482.58 300.9 481.79 300.69 480.96 301.6 478.74 301.54 477.64 300.69 476.42 299.25 475.26 298.74 474.73 297.28 472.73 295.92 471.46 295.61 471.03 293.08 465.53 292.74 464.23 292.7 458.97 292.18 457.18 291.25 455.67 290.2 454.57 288.86 453.84 287.12 453.48 285.45 453.4 284.62 453.21 284.27 452.77 283.96 451.95 282.01 449.79 281.68 449.01 281.43 447.87 281.58 446.85 282.44 446.4 283.25 446.65 284.06 447.25 284.74 448 285.14 448.68 285.58 448.35 285.53 448.05 285.34 447.71 285.4 447.25 285.69 446.95 286.53 446.29 286.81 445.86 286.95 444.96 286.85 444 286.44 443.41 285.68 443.58 285.33 442.38 285.06 441.96 284.55 441.58 284.3 441.63 283.92 441.81 283.58 441.9 283.43 441.72 283.38 441.02 283.3 440.67 283.14 440.45 282.16 440.3 278.93 440.47 278.18 440.59 277.08 441.16 275.93 441.04 275.02 440.33 274.65 439.18 274.58 438.18 274.69 437.68 275.06 437.18 275.35 436.62 275.62 435.93 276 435.63 276.63 436.21 276.81 434.53 276.91 434.24 276.51 434.12 276.25 433.88 275.75 433.08 276.05 432.07 276.03 430.46 275.82 428.82 275.49 427.7 274.95 426.84 274.15 425.88 273.52 425.61 273.5 426.85 273.25 426.39 272.08 424.85 269.9 423.28 269.55 422.74 269.26 422.04 268.61 421.24 267.26 420.05 264.82 419.2 264.44 418.77 264.18 417.95 263.58 417.16 262.46 416.07 261.36 414.68 259.48 411.69 258.49 410.43 257.71 409.84 256.01 408.93 254.4 407.49 254.25 407.3 254.13 406.8 254.09 406.04 253.94 405.61 254.59 405.54 254.75 405.3 254.5 405 253.94 404.76 254.39 403.36 253.44 401.02 253.69 399.94 253.1 399.54 252.45 398.79 251.91 397.94 251.69 397.27 251.44 396.83 250.84 396.47 250.5 396.35 250.5 396.35 253.16 395.21 257.41 394.59 259.8 395.59 266.17 395.88 271.01 397.39 272.55 398.35 273.27 398.94 273.27 401.06 274.38 404.05 276.46 405.84 278.98 410.3 281.34 411.09 290.47 411.68 296.14 413.27 298.91 415.95 301.13 420.39 304.05 424.41 306.71 426.85 310.01 427.92 313.67 430.85 332.22 461.46 333.19 465.18 339.24 480.27 340.27 481.77 342.11 482.41 343.48 483.14 346.6 486.35 352.2 497.46 357.66 503.42 362.95 507.86 371.21 513.14 Z" fill-rule="evenodd" id="IRN-3210" data-name="Bushehr"/>
<path d="M 470.6 225.44 471.07 253.41 469.97 256.33 466.44 261.46 464.07 262.84 460.85 263.12 456.75 264.97 454.53 267.27 452.65 274.19 451.3 277.27 449.71 279.79 447.43 282.13 443.06 284.22 399.32 296.92 386.23 294.38 383.21 294.47 379.22 295.78 376.74 297.12 374.91 298.41 372.23 299.7 369.26 300.43 367.61 301.37 367.3 302.74 368.49 315.45 368.11 318.1 366.38 323.91 365.59 328.92 365.15 329.95 365.27 332.82 367.07 338.89 367 338.89 352.89 342.38 349.82 342.39 340.62 340.65 338.69 339.17 338.3 335.35 337.67 334.23 336.96 334.13 331.32 336.77 330.52 337.7 329.34 338.14 323.78 341.36 320.68 341.74 316.66 340.92 316.51 342.14 317.49 344.09 318.75 345.2 320.38 345.73 322.19 346.02 324.58 347.57 325.77 350.36 324.77 353.18 323.93 357.4 320.43 364.88 320.11 368.49 320.53 370.94 320.55 372.27 319.39 372.59 316.25 373 315.41 372.3 309.62 368.72 305.17 364.64 302.88 359.57 302.59 356.81 303.01 355.39 303.12 352.17 299.34 341.48 298.42 336.78 298.67 334.56 300.08 333.71 301.82 333.06 301.73 331.8 300.48 330.45 299.67 329.18 299.84 327.9 301.49 326.93 302.8 324.74 302.04 320.45 299.88 317.11 295.08 314.04 292.9 312.17 287.65 308.72 287.23 305.48 287.47 302.48 286.57 301.28 286.22 300.07 285.59 299.48 284.5 299.24 284.09 298.23 283.69 296.35 282.07 295.17 280.29 295.43 279.37 296.27 277.67 296.76 272.23 296.9 270.61 297.15 266 299.68 264.12 300.03 262.86 299.66 260.82 300.04 258.13 299.77 255.61 298 253.08 296.83 251.24 297.15 249.95 297.71 248.46 297.92 245.64 297.61 237.5 301.32 238.6 298.24 239.49 297.09 237.78 295.13 233.63 293.8 230.04 294 227.81 292.99 225.81 288.82 225.78 288.41 226.03 287.42 226.59 286.59 227.53 286.07 230.83 285.15 232.72 283.95 233.47 279.05 235.84 276.7 241.99 275.25 242.98 274.75 243.06 273.99 243.3 273.02 247.47 265.98 247.37 264.2 247.54 261.95 248.47 260.3 251.9 257.93 258.46 254.67 275.69 250.89 278.27 249.56 280.6 247.93 283.2 247.24 285.57 247.23 286.67 245.6 290.62 237.67 291.11 235.2 289.94 234.68 289.07 232.9 290.31 224.78 290.8 223.58 292.35 222.29 296.29 220.87 305.21 220.02 308.41 220.16 322.36 217.17 330.35 220.75 334.39 221.3 345.72 220.7 348.54 221.07 366.13 225.86 368.29 226.14 466.94 223.7 469.21 224.32 470.22 225.03 470.6 225.44 Z" id="IRN-3211" data-name="Esfahan"/>
<path d="M 367.07 338.89 377.59 342.34 383.85 347.26 389.16 352.78 398.81 373.71 405.68 384.3 412.27 391.28 414.07 394.05 415.54 403.1 416.72 405.58 423.15 409.77 431.54 413.47 431.53 414.29 432.66 417.56 436.02 423.62 436.49 425.21 437.39 426.6 438.37 427.47 440.22 428.5 449.69 429.26 452.1 430.15 460.45 448.3 462.84 454.59 462.85 455.76 461.5 456.62 461.71 458.58 474.14 469.17 475.24 471.77 474.75 476.42 472.66 483.16 472.46 484.88 472.66 486.21 476.15 488.75 478.13 491.6 477.88 493.94 477.17 494.95 476.22 495.55 474.98 496.04 472.59 495.91 468.81 496.78 463.16 499.47 461.56 501.74 460.2 505.41 457.8 507.43 452.64 508.83 441.62 507.45 437.85 508.22 435.8 509 433.84 508.39 431.33 508.1 420.3 509 416.03 510.32 414.2 512.31 413.59 515.59 412.71 517.85 412.71 518.31 413.18 519.52 412.06 521.13 407.75 523.17 395.11 521.17 394.04 521.17 391.03 521.86 390.31 521.77 389.61 521.47 386.12 518.92 384.59 518.38 375.37 517.65 372.35 515.09 371.21 513.14 362.95 507.86 357.66 503.42 352.2 497.46 346.6 486.35 343.48 483.14 342.11 482.41 340.27 481.77 339.24 480.27 333.19 465.18 332.22 461.46 313.67 430.85 310.01 427.92 306.71 426.85 304.05 424.41 301.13 420.39 298.91 415.95 296.14 413.27 290.47 411.68 281.34 411.09 278.98 410.3 276.46 405.84 274.38 404.05 273.27 401.06 273.27 398.94 273.27 398.84 277.42 397.95 284.36 398.31 286.11 398.07 297.15 392.5 298.02 390.9 298.07 388.76 297.06 387.3 296.76 386.4 297.32 385.52 297.24 384.57 295.94 381.43 295.26 377.95 295.88 377.32 299.24 378.05 303.98 380.04 305.04 380.23 305.95 381.25 307.5 382.05 311.88 383.04 314.17 382.49 316.21 381.46 317.27 380.55 317.49 380.14 317.48 378.17 316.25 373 319.39 372.59 320.55 372.27 320.53 370.94 320.11 368.49 320.43 364.88 323.93 357.4 324.77 353.18 325.77 350.36 324.58 347.57 322.19 346.02 320.38 345.73 318.75 345.2 317.49 344.09 316.51 342.14 316.66 340.92 320.68 341.74 323.78 341.36 329.34 338.14 330.52 337.7 331.32 336.77 336.96 334.13 337.67 334.23 338.3 335.35 338.69 339.17 340.62 340.65 349.82 342.39 352.89 342.38 367 338.89 367.07 338.89 Z" id="IRN-3212" data-name="Fars"/>
<path d="M 503.32 70.89 503.6 73.79 503.33 74.96 503.44 76.46 503.93 78.2 503.9 79.18 503.05 81.84 503.15 83.72 504.55 85.04 506.5 85.81 508.19 86.83 508.96 89.35 506.68 91.86 501.84 93.2 500.73 93.33 499.48 93.78 498.23 94.7 495.23 95.69 492.2 99.95 490.95 100.92 489.24 102.04 481.55 111.49 478.13 117.57 477.32 122.1 475.94 124.96 473.84 125.74 459.07 124.12 455.55 124.45 448.32 127.79 441.31 132.2 438.76 134.43 432.93 136.64 430.05 137.17 426.82 136.75 418.72 136.86 417.04 134.8 412.66 131.16 403.54 126.73 402.09 124.73 401.63 123.7 401.58 123.16 401.58 123.16 407.82 123.61 408.47 123.9 409.17 124.1 414.35 122.96 414.84 122.63 415.12 121.94 415.14 117.67 414.92 116.96 414.31 116.68 413.52 116.43 413.64 115.83 414.58 114.42 413.6 113.2 412.94 111.68 412.02 108.19 410.77 105.49 410.58 104.9 410.19 101.4 421.47 102.18 422.29 102.15 423.04 101.89 423.8 101.31 424.57 100.9 425.47 100.86 426.42 100.97 427.33 100.96 428.81 100.57 435.8 97.34 436.74 97.23 439.25 97.67 440.17 97.66 440.79 97.42 441.8 96.55 442.62 96.29 443.14 95.9 445.1 94.88 446.15 94.18 446.34 93.88 446.47 93.25 447.03 92.21 447.16 91.62 447.21 90.63 447.16 90.34 446.97 90.06 446.49 89.72 446.34 89.49 446.3 88.62 446.98 87.34 447.16 86.51 447.39 85.86 447.93 85.17 449.17 84.1 455.37 80.72 457.3 79.01 457.63 78.58 457.85 78.01 458.35 77.8 458.93 77.72 459.37 77.59 459.67 77.27 460.12 76.51 460.48 76.2 461.28 75.99 463.67 75.63 464.17 75.47 464.55 74.82 465.45 74.42 467.33 73.92 467.8 73.87 468.66 73.31 469.51 72.97 472.58 71.09 473.59 70.77 476.21 70.68 484.39 69.32 485.62 69.33 488.18 69.77 489.79 70.51 490.4 70.67 492.5 70.69 493.2 70.86 494.32 71.33 494.9 71.48 495.54 71.51 501.45 70.66 503.12 70.82 503.32 70.89 Z" id="IRN-3213" data-name="Golestan"/>
<path d="M 401.58 123.16 401.58 123.16 401.63 123.7 402.09 124.73 403.54 126.73 412.66 131.16 417.04 134.8 418.72 136.86 414.56 137.87 411.12 139.5 408.01 142.01 406.55 144.31 405.64 146.8 404.98 150.13 403.35 151.66 399.11 154.71 398.15 155.85 397.64 156.89 396.67 158 394.87 159.29 391.95 160.57 388.79 161.4 386.71 161.64 385.38 161.03 383.23 161.62 380.61 162.85 378.65 163.29 374.46 163.67 373.85 163.89 370.14 161.8 368.34 161.46 367.01 162.11 364.83 162.35 361.68 161.82 356.95 159.74 353.24 159.18 350.29 158.18 347.55 157.89 343.76 160.32 338.4 165.59 335.55 166.53 332.29 166.37 330.26 165.78 329.02 165.18 327.55 163.79 325.15 160.15 320.93 156.45 315.3 154.67 308.97 154.23 304.5 152.1 301.81 149.54 295.03 148.33 293.3 147.72 291.73 146.54 290.98 145.67 288.35 144.82 281.52 143.73 281.48 142.9 281 141.78 274.3 137.67 272.02 136.67 261 129.2 263.14 128.08 265.67 124.44 266.58 121.01 268.24 119.69 270.4 118.77 271.81 117.2 272.2 116.15 272.23 116.02 272.23 116.01 274.2 117.08 275.06 117.24 275.64 117.45 276.86 118.51 277.47 118.94 283.99 121.79 289.94 125.17 293.41 126.44 304.95 128.27 312.32 130 319.96 131.1 327.32 132.82 334.97 132 341.77 130 348.88 128.58 356.24 127.46 363.3 126.3 370.37 124.61 377.2 122.91 390.92 120.45 392.77 120.2 409.04 119.46 412.01 118.89 414.02 117.52 413.93 119.1 411.59 119.75 408.65 120.04 406.76 120.52 406.24 120.72 405.65 120.65 404.54 120.37 403.92 120.45 402.78 120.81 402.14 120.91 399.72 120.66 397.6 120.66 397.92 121.12 398.5 121.27 399.86 121.22 399.03 121.44 398.71 121.48 399.71 122.54 401.4 123.15 401.58 123.16 Z" id="IRN-3214" data-name="Mazandaran"/>
<path d="M 524.19 130.34 525 130.16 526.32 130.19 528 131 529.01 134.25 527.9 138.11 526.23 140.68 525.62 145.19 526.4 152.94 527.73 157.94 528.86 160.25 538.67 166.76 541.37 169.29 540.74 172.18 533.55 182.26 531.8 185.6 530.54 186.4 521.8 189.09 517.11 191.38 511.78 195.38 505.13 202.12 490.27 222.74 485.73 224.68 475.13 224.48 471.33 225.07 470.6 225.34 470.6 225.44 470.22 225.03 469.21 224.32 466.94 223.7 368.29 226.14 366.13 225.86 348.54 221.07 345.72 220.7 334.39 221.3 330.35 220.75 322.36 217.17 323.73 215.55 325.55 212.03 326.67 208.41 326.78 205.04 326.22 203.39 326.38 201.62 327.64 198.3 329.76 195.61 330.28 193.06 328.41 190.28 323.74 185.21 323.43 183.45 323.68 181.56 324.46 179.08 325.02 175.28 325.71 174.69 326.48 174.97 326.98 175.38 327.88 175.64 330.34 175.74 332.62 177.36 340.16 181.12 343.18 181.97 346.33 182.03 355.64 184.24 358.98 184.34 363.69 183.08 367.8 181.28 374.37 176.4 375.7 172.69 375.16 168.52 373.85 163.89 374.46 163.67 378.65 163.29 380.61 162.85 383.23 161.62 385.38 161.03 386.71 161.64 388.79 161.4 391.95 160.57 394.87 159.29 396.67 158 397.64 156.89 398.15 155.85 399.11 154.71 403.35 151.66 404.98 150.13 405.64 146.8 406.55 144.31 408.01 142.01 411.12 139.5 414.56 137.87 418.72 136.86 426.82 136.75 430.05 137.17 432.93 136.64 438.76 134.43 441.31 132.2 448.32 127.79 455.55 124.45 459.07 124.12 473.84 125.74 475.94 124.96 477.32 122.1 478.13 117.57 481.55 111.49 489.24 102.04 490.95 100.92 497.2 107.55 500.14 109.21 501.77 108.98 503.78 109.65 503.35 110.6 500.93 111.18 499.87 111.86 499.61 112.47 499.88 112.8 500.14 113.24 500.35 114.34 500.14 117.14 499.36 119.61 499.21 120.44 499.98 121.74 504.88 126.16 509.57 129.4 511.9 130.02 515.83 130.56 517.89 131.2 524.19 130.34 Z" id="IRN-3215" data-name="Semnan"/>
<path d="M 373.85 163.89 375.16 168.52 375.7 172.69 374.37 176.4 367.8 181.28 363.69 183.08 358.98 184.34 355.64 184.24 346.33 182.03 343.18 181.97 340.16 181.12 332.62 177.36 330.34 175.74 327.88 175.64 326.98 175.38 326.48 174.97 325.71 174.69 325.02 175.28 324.46 179.08 323.68 181.56 323.43 183.45 323.74 185.21 328.41 190.28 330.28 193.06 329.76 195.61 327.64 198.3 326.38 201.62 326.22 203.39 302.66 191.88 292.73 189.43 280.85 189.32 280.85 189.21 284.42 179.75 284.4 176.87 283.34 175.19 281.42 173.24 282.51 171.19 285.18 169.85 287.35 167.69 288.52 165.18 292.19 165.02 292.69 163.02 292.85 160.35 295.35 158.01 298.69 157.01 302.02 157.35 304.36 156.18 304.36 153.84 304.5 152.1 308.97 154.23 315.3 154.67 320.93 156.45 325.15 160.15 327.55 163.79 329.02 165.18 330.26 165.78 332.29 166.37 335.55 166.53 338.4 165.59 343.76 160.32 347.55 157.89 350.29 158.18 353.24 159.18 356.95 159.74 361.68 161.82 364.83 162.35 367.01 162.11 368.34 161.46 370.14 161.8 373.85 163.89 Z" id="IRN-3216" data-name="Tehran"/>
<path d="M 585.21 291.31 585.41 294.48 585.07 295.75 583.96 297.28 583.25 298.77 583.55 299.68 584.18 300.63 585.4 301.79 585.46 303.05 586.72 305.36 588.38 307.68 588.29 309.95 587.34 312.26 586.97 314.28 586.29 316.21 580.79 322.48 579.27 326.09 575.02 331.69 572.86 336.43 572.27 337.25 527.91 321.01 522.64 320.22 521.75 321.37 519.84 323.12 511.25 327.25 508.32 329.89 486.38 339.77 484.54 343.12 484.01 356.13 483.39 359 476.38 361.65 468.58 362.56 465.2 361.97 459.91 361.8 436.67 365.33 433.04 368.82 431.13 371.94 430.21 374.95 430.32 377 432.62 380.77 435.07 386.31 436.05 390.43 437.38 391.84 438.72 392.63 438.19 406.04 438.63 408.39 439.2 410.04 439.25 411.21 437.95 412.02 433.78 412.46 433.36 412.77 431.54 413.47 423.15 409.77 416.72 405.58 415.54 403.1 414.07 394.05 412.27 391.28 405.68 384.3 398.81 373.71 389.16 352.78 383.85 347.26 377.59 342.34 367.07 338.89 365.27 332.82 365.15 329.95 365.59 328.92 366.38 323.91 368.11 318.1 368.49 315.45 367.3 302.74 367.61 301.37 369.26 300.43 372.23 299.7 374.91 298.41 376.74 297.12 379.22 295.78 383.21 294.47 386.23 294.38 399.32 296.92 443.06 284.22 447.43 282.13 449.71 279.79 451.3 277.27 452.65 274.19 454.53 267.27 456.75 264.97 460.85 263.12 464.07 262.84 466.44 261.46 469.97 256.33 471.07 253.41 470.6 225.44 470.6 225.34 471.33 225.07 475.13 224.48 485.73 224.68 490.27 222.74 505.13 202.12 522.03 198.5 538.45 192.11 548.86 189.92 553.46 190.91 565.51 198.49 566.93 201.09 566.37 203.74 562.37 206.97 545.99 216.52 543.17 220.72 537.97 233.68 537.63 240.67 540.2 252.59 542.14 255.14 550.35 255.96 560.91 253.91 562.68 255.79 564.32 258.42 567.41 275.88 570.1 281.05 573.61 282.73 574.6 283.39 577.27 284.4 580.78 286.24 584.12 290.65 585.21 291.31 Z" id="IRN-3217" data-name="Yazd"/>
<path d="M 302.59 356.81 301.18 356.72 298.5 357.16 296.45 358.71 294.21 359.71 289.46 359.17 288.05 359.19 272.68 347.48 271.4 347.34 269.23 347.45 261.98 344.95 259.05 343.42 260.52 340.99 262.77 338.58 262.89 336.66 261.68 334.37 258.17 331.14 257.37 329.95 255.31 328.35 254.05 326.64 252.8 324.16 251.68 320.71 251.13 319.61 250.44 319.03 248.49 318.5 247.89 317.91 246.86 317.28 245.86 316.17 244.56 313.39 238.33 305.04 237.66 302.54 237.5 301.32 245.64 297.61 248.46 297.92 249.95 297.71 251.24 297.15 253.08 296.83 255.61 298 258.13 299.77 260.82 300.04 262.86 299.66 264.12 300.03 266 299.68 270.61 297.15 272.23 296.9 277.67 296.76 279.37 296.27 280.29 295.43 282.07 295.17 283.69 296.35 284.09 298.23 284.5 299.24 285.59 299.48 286.22 300.07 286.57 301.28 287.47 302.48 287.23 305.48 287.65 308.72 292.9 312.17 295.08 314.04 299.88 317.11 302.04 320.45 302.8 324.74 301.49 326.93 299.84 327.9 299.67 329.18 300.48 330.45 301.73 331.8 301.82 333.06 300.08 333.71 298.67 334.56 298.42 336.78 299.34 341.48 303.12 352.17 303.01 355.39 302.59 356.81 Z" id="IRN-3218" data-name="Chahar Mahall and Bakhtiari"/>
<path d="M 225.81 288.82 227.81 292.99 230.04 294 233.63 293.8 237.78 295.13 239.49 297.09 238.6 298.24 237.5 301.32 237.66 302.54 238.33 305.04 244.56 313.39 245.86 316.17 246.86 317.28 247.89 317.91 248.49 318.5 250.44 319.03 251.13 319.61 251.68 320.71 252.8 324.16 254.05 326.64 255.31 328.35 257.37 329.95 258.17 331.14 261.68 334.37 262.89 336.66 262.77 338.58 260.52 340.99 259.05 343.42 256.3 346.57 251.35 350.36 248.16 351.51 246.75 352.43 245.71 353.62 245.03 354.96 245.06 357.38 246.95 363.22 247.07 364.89 246.86 365.51 246.68 366.75 246.26 368.1 246.54 369.11 253.59 368.31 255.26 370.15 258.49 372.91 262.43 374.71 264.76 376.17 265.47 378.35 263.08 383.2 263.37 385.35 264.69 386.64 265.47 389.38 266.17 395.88 259.8 395.59 257.41 394.59 253.16 395.21 250.5 396.35 249.4 395.99 247.92 395.83 246.38 396.04 244.88 396.5 231.9 403.68 230.4 404.23 229.07 403.98 227.91 402.5 227.81 401.83 227.79 399.96 227.47 399.24 227.17 398.87 227.06 398.65 226.91 398.47 226.46 398.24 226.06 398.1 225.67 398.01 224.77 397.96 224.33 398 223.44 398.2 222.94 398.24 222.48 398.16 221.89 397.77 221.54 397.68 220.68 397.8 219.13 398.37 218.28 398.52 217.2 398.46 216.81 398.1 216.87 396.39 216.75 396.27 216.17 395.92 216 395.67 215.98 395.45 216 394.83 216.06 394.52 216.23 394.25 216.21 393.99 215.72 393.7 215.48 394.41 215.04 395.1 214.45 395.59 213.74 395.67 212.99 395.27 212.64 394.74 212.2 394.33 211.48 394.27 210.52 393.98 207.79 392.59 207.22 392.14 206.95 390.8 206.22 389.97 205.14 389.48 203.81 389.19 204.25 388.51 204.94 388.35 206.63 388.6 207.51 388.56 208.88 388.16 209.63 388.06 210.48 388.23 212.17 389.01 212.75 389.19 213.67 389.26 214.36 389.52 214.92 389.95 215.46 390.6 215.7 390.04 216.48 388.84 217.7 387.49 217.94 387.04 217.98 386.34 217.12 386.49 216.51 386.14 216.12 385.51 215.8 383.99 215.31 384.19 214.67 384.79 214.02 385.21 214.08 384.68 214.15 384.54 214.31 384.36 213.96 383.89 213.61 383.97 213.19 384.24 212.61 384.36 212.37 384.21 211.9 383.64 211.62 383.51 211.36 383.56 210.97 383.75 210.76 383.8 209.94 383.69 209.19 383.5 208.49 383.46 207.79 383.8 206.3 383.61 205.13 384.25 204.82 385.09 205.94 385.52 207.25 385.74 208.29 386.31 208.61 387.05 207.79 387.77 207.09 387.76 204.86 387.5 204.38 387.62 202.12 389.44 201.95 389.63 201.59 390.12 201.38 390.64 201.85 391.01 201.68 391.3 201.41 391.63 201.27 391.85 201.57 392.74 202.3 393.38 203.13 393.93 203.81 394.57 204.16 395.31 204.43 396.24 204.66 398.1 204.58 398.62 204.21 399.47 204.09 399.94 204.12 400.38 204.35 401.16 204.38 401.63 204.12 402.44 203.57 403.18 202.82 403.71 201.97 403.91 199.17 403.63 198.45 403.91 197.64 403.59 194.75 403.61 193 402.77 192.33 402.63 192.22 403.35 192.42 403.85 192.97 404.62 193.08 405.19 192.96 405.6 192.66 405.96 192.29 406.25 191.93 406.45 190.98 406.7 187.95 406.45 187.95 406.17 187.73 406.42 187.68 406.52 187.39 406.41 186.11 406.09 185.5 405.77 184.93 405.37 184.66 405.14 184.47 404.87 184.1 404.06 184.01 403.52 183.26 401.47 183.14 401.4 182.91 400.97 182.09 400.16 181.57 399.2 181.49 398.92 181.58 398.46 181.9 398.11 182.3 397.8 182.6 397.45 182.71 397.01 182.63 396.56 182.42 396.14 182.15 395.79 180.54 394.52 179.21 393.21 178.37 391.99 177.98 391.71 177.48 391.56 176.96 391.54 175.45 391.76 174.95 391.78 174.46 391.71 174 391.53 173.67 391.23 173.49 390.84 173.15 389.02 172.78 388.11 172.25 387.3 171.56 386.66 171.13 386.43 170.67 386.29 166.3 385.75 166.23 384.48 166.23 384.48 166.37 364.57 166.24 364.04 165.8 363.81 152.21 363.81 152.36 353.81 152.46 346.73 158.76 332.1 159.01 331.16 158.89 330.28 158.32 329.54 156.7 328.5 156.03 327.87 155.88 327.56 155.67 326.83 155.44 326.46 155.12 326.21 154.38 325.79 154.09 325.46 152.62 323.21 152.42 322.48 152.42 322.47 152.01 321.74 150.57 321.14 149.93 320.52 148.99 318.72 148.38 317.97 149.49 317.6 153.81 315.19 155.29 313.15 154.8 310.51 154.73 308.4 157.75 304.87 161.55 297.39 163.81 294.6 169.46 282.1 171.69 280.67 181.9 280.09 184.8 279.34 189.19 279.07 193.48 280.14 195.6 281.87 198.18 282.53 207.33 283.31 216.96 288.89 222.77 289.36 225.81 288.82 Z" id="IRN-3219" data-name="Khuzestan"/>
<path d="M 153.08 225.12 154.12 225.51 155.89 226.45 156.74 227.48 174.5 237.15 183.67 238.06 185.21 238.54 186.43 238.27 188.6 236.42 189.68 236.17 191.88 236.28 194.59 236.03 205.87 240.03 205.22 240.91 204.92 242.25 205.44 243.36 205.58 244.31 203.93 247.49 203.59 248.4 203.37 249.39 203.91 250.26 206.01 251.28 208.74 252.12 213.41 252.45 214.55 252.81 217.85 251.06 218.64 250.38 220.05 246.77 221.88 245.89 224.16 245.25 226.24 244.26 228.51 244.86 230.32 246.69 231.45 248.3 231.49 249.39 230.83 250.58 230.39 251.8 230.78 252.77 232.13 253.73 235.23 255.04 236.65 256.29 237.93 257.13 238.9 256.59 239.17 255.52 239.98 254.18 241.43 253.31 242.35 253.78 243.01 254.76 244.34 255.62 245.24 256.39 245.17 257.6 245.47 258.78 248.11 259.97 248.47 260.3 247.54 261.95 247.37 264.2 247.47 265.98 243.3 273.02 243.06 273.99 242.98 274.75 241.99 275.25 235.84 276.7 233.47 279.05 232.72 283.95 230.83 285.15 227.53 286.07 226.59 286.59 226.03 287.42 225.78 288.41 225.81 288.82 222.77 289.36 216.96 288.89 207.33 283.31 198.18 282.53 195.6 281.87 193.48 280.14 189.19 279.07 184.8 279.34 181.9 280.09 171.69 280.67 169.46 282.1 163.81 294.6 161.55 297.39 161.04 296.99 160.23 295.98 153.57 284.19 148.71 278.81 147.36 277.55 146.75 277.3 145.97 277.1 145.43 276.59 144.62 275.29 143.63 274.32 143.18 274.15 142.56 274.12 142.03 273.97 141.8 273.46 141.36 273.03 136.28 270.89 134.52 270.53 133.46 269.99 132.71 269.35 132.71 268.8 131.98 268.52 129.94 267.21 129.74 267.02 129.51 266.86 129.19 266.8 128.91 266.85 128.7 267.04 128.48 267.08 128.18 267 128.05 266.8 127.99 266.6 127.91 266.49 126.36 266.08 125.61 265.79 125.07 265.39 124.53 264.84 124.41 264.49 124.89 263.77 124.95 263.35 124.79 263 124.36 262.85 122.1 261.7 121.24 261.44 120.16 260.29 118.86 259.72 117.93 258.34 117.28 258.03 117.23 257.71 117.87 256.11 117.99 255.49 118.7 255.23 119.42 255.16 120.33 253.29 122.89 251.26 137.37 247.86 138.18 246.9 140.49 245.61 141.47 244.74 142.03 243.82 142.24 242.5 141.87 240.48 140.93 238.66 140.36 238.01 141.08 237.59 141.67 236.79 141.51 236.47 141.47 236.03 141.59 235.26 141.51 234.78 141.3 234.45 141.02 234.2 140.77 233.93 140.67 233.52 140.92 232.94 143.3 231.96 146.26 231.84 148.26 230.98 148.5 228.66 148.12 226.43 148.25 225.51 149.04 225.07 150.24 224.8 153.08 225.12 Z" id="IRN-3220" data-name="Lorestan"/>
<path d="M 140.36 238.01 140.93 238.66 141.87 240.48 142.24 242.5 142.03 243.82 141.47 244.74 140.49 245.61 138.18 246.9 137.37 247.86 122.89 251.26 120.33 253.29 119.42 255.16 118.7 255.23 117.99 255.49 117.87 256.11 117.23 257.71 117.28 258.03 117.93 258.34 118.86 259.72 120.16 260.29 121.24 261.44 122.1 261.7 124.36 262.85 124.79 263 124.95 263.35 124.89 263.77 124.41 264.49 124.53 264.84 125.07 265.39 125.61 265.79 126.36 266.08 127.91 266.49 127.99 266.6 128.05 266.8 128.18 267 128.48 267.08 128.7 267.04 128.91 266.85 129.19 266.8 129.51 266.86 129.74 267.02 129.94 267.21 131.98 268.52 132.71 268.8 132.71 269.35 133.46 269.99 134.52 270.53 136.28 270.89 141.36 273.03 141.8 273.46 142.03 273.97 142.56 274.12 143.18 274.15 143.63 274.32 144.62 275.29 145.43 276.59 145.97 277.1 146.75 277.3 147.36 277.55 148.71 278.81 153.57 284.19 160.23 295.98 161.04 296.99 161.55 297.39 157.75 304.87 154.73 308.4 154.8 310.51 155.29 313.15 153.81 315.19 149.49 317.6 148.38 317.97 148.29 317.86 147.49 317.58 146.87 317.51 146.5 317.16 146.17 316.74 145.64 316.45 144.99 316.29 144.71 316.11 144.67 315.78 144.75 315.2 144.92 314.76 145.16 314.39 145.38 313.99 145.45 313.41 145.23 312.88 144.43 312.36 144.2 311.83 143.8 311.66 143.54 311.43 142.81 310.57 142.65 310.34 142.46 310.11 141.22 309.12 141.03 308.88 140.76 308.32 140.76 308.11 140.93 307.96 141.29 307.19 141.52 306.96 141.67 306.69 141.61 306.21 141.38 305.91 140.27 305.2 139.58 304.44 139.12 303.81 138.59 303.29 137.7 302.9 135.36 302.22 134.78 302.18 132.89 303.07 132.16 303.3 130.7 303.44 129.4 303.19 128.14 302.63 126.82 301.81 126.82 301.81 126.81 301.81 114.37 292.65 112.65 291 109.94 289.62 108.04 288.33 107.89 288.25 104.03 286.37 102.87 285.39 98.75 283.73 94.36 282.59 89.49 283.05 87.07 282.8 86.19 281.15 86.19 281.14 86.7 280.64 87.39 280.17 88 279.63 88.27 278.93 88.04 278.36 87.44 277.92 86.66 277.64 84.85 277.46 84.27 277.05 84.31 276.55 85.14 276.16 86.05 276.09 86.74 276.13 87.42 276.02 88.29 275.47 89.4 274.54 89.97 273.96 90.27 273.42 90.24 273.05 89.76 272.8 89.58 272.41 89.61 272.07 89.86 271.28 89.85 270.86 89.48 270.16 88.9 269.67 87.59 268.77 85.94 266.82 84.56 265.7 84.34 265.1 84.32 264.41 84.19 263.57 83.86 262.79 83.39 262.08 82 260.63 81.88 260.54 81.75 260.48 81.59 260.41 81.54 260.39 81.33 260.35 81.12 260.39 80.92 260.48 80.15 261.09 78.9 261.23 77.67 260.99 76.97 260.48 77.61 259.77 79.57 258.77 80.08 258.14 79.79 257.23 78.91 256.73 78.18 256.1 78.35 254.83 77.45 255.02 75.44 255.05 74.69 255.31 73.49 256.28 72.81 256.66 72.09 256.81 71.8 256.52 71.82 255.05 71.68 254.75 72.61 254.09 73.49 248.1 75.06 243.98 75.52 241.33 74.94 239.75 75.7 239.01 78.13 239.06 84.54 238.39 90.74 240.5 94.07 240.7 97.41 241.34 100.18 242.76 103.23 244.95 113.6 247.74 118.43 248.06 125.47 246.57 131.94 246.81 132.81 245.4 133.38 242.73 132.77 241.69 131.64 240.28 131.64 239.01 138.27 237.74 139.68 237.84 140.36 238.01 Z" id="IRN-3221" data-name="Ilam"/>
<path d="M 457.34 575.87 457.01 576.13 456.67 576.15 456.44 576.28 456.04 575.94 455.85 576.08 455.88 575.82 455.74 575.57 455.59 575.17 456.19 574.87 456.9 574.7 457.1 574.99 457.15 575.4 457.34 575.87 Z M 436.62 574.41 436.21 574.69 435.65 574.57 434.99 574.3 434.83 573.84 435.37 573.58 436.35 573.31 436.56 573.67 436.62 574.41 Z M 435.51 559.86 435.29 559.9 434.81 559.76 434.32 559.54 434.1 559.29 434.05 558.75 433.95 558.34 433.93 557.95 433.93 557.95 434.1 557.47 434.36 557.15 434.71 556.99 435.1 557.07 435.51 557.47 435.8 557.59 436.03 557.76 436.23 557.98 436.38 558.27 435.51 559.86 Z M 415.74 549.86 415.28 550.08 412.23 549.93 411.91 549.91 410.58 549.33 409.74 548.11 410.15 547.53 410.76 547.12 411.5 546.91 412.3 546.95 413 547.17 414.53 547.31 415.12 547.52 415.12 547.52 415.2 547.7 415.24 547.79 415.24 547.79 415.22 548.16 415.22 548.17 415.23 548.21 415.26 548.5 415.27 548.5 415.56 548.65 415.74 548.79 415.84 548.87 415.88 549.11 415.92 549.36 415.83 549.61 415.74 549.86 Z M 491.87 544.49 491.03 544.93 490.36 544.6 490.45 543.65 490.99 542.72 491.66 542.26 492.06 542.19 492.38 542.62 492.46 543.6 491.87 544.49 Z M 399.67 542.62 399.13 543.11 398.41 543.02 397.68 542.69 397.27 542.18 397.6 541.73 398.43 541.7 398.85 541.8 399.34 542.01 399.67 542.62 Z M 388.21 537.07 387.61 537.22 386.02 537.1 385.53 537.2 384.78 537.59 383.98 537.59 381.63 537.22 380.9 536.95 380.82 536.9 380.26 536.58 378.97 535.61 378.59 535.22 378.76 535.05 379.05 534.98 379.38 534.87 379.78 534.85 383.27 535.81 386.37 536.02 387.33 536.36 387.87 536.8 388.21 537.07 Z M 512.1 535.6 510.52 536.06 509.75 535.78 509.94 534.68 510.53 533.92 511.58 533.49 513.14 533.36 513.34 534.63 512.1 535.6 Z M 503.51 532.79 502.58 534.64 502.1 535.36 500.39 536.92 500.12 537.47 499.77 537.81 498.2 538.52 497.84 538.9 497.49 539.1 495.45 540.86 494.24 541.49 493.29 541.13 492.39 540.31 491.33 539.56 488.57 540.84 487.8 541.42 487.03 541.82 486.15 541.81 484.27 541.56 483.43 541.73 482.55 542.1 480.32 543.53 478.01 544.41 476.61 545.34 475.88 545.68 473.33 545.94 471.52 546.39 470.75 546.82 470.37 546.95 470.37 546.95 470.24 546.93 470.02 546.89 469.55 546.75 469.13 546.75 468.95 547.11 468.76 547.39 468.31 547.61 467.81 547.75 467.43 547.8 467.42 547.8 467.25 547.69 467.1 547.6 466.89 547.13 466.69 546.1 466.97 545.38 467.05 544.91 466.83 544.69 466.41 543.41 466.86 542.98 468.81 543.6 469.26 543.41 469.52 543.48 469.64 543.51 469.64 543.51 471.83 542.41 477.35 540.8 478.15 540.72 478.67 540.54 478.82 540.48 478.83 540.48 480.74 539.43 481.56 538.83 484.27 537.89 484.69 537.87 485.55 537.93 485.96 537.89 486.27 537.78 486.69 537.46 487.09 537.33 486.97 537.05 486.79 536.77 487.42 536.12 487.57 535.34 487.38 533.5 487.05 532.79 486.35 532.19 485.66 531.71 485.38 531.38 486.42 530.84 492.2 532.79 493.77 532.46 498.12 529.94 503.59 528.84 505.21 528.81 506.02 528.99 507.08 529.4 507.74 529.85 507.98 530.02 508.31 530.79 507.65 531.13 506.98 531.47 504.43 532.05 503.51 532.79 Z M 516.34 527.02 515.7 527.12 514.39 526.67 514.49 525.63 515.25 524.69 515.98 524.55 516.42 524.81 516.9 524.98 517.29 525.26 517.31 525.34 517.45 525.86 517.29 526.39 516.9 526.77 516.61 526.9 516.34 527.02 Z M 359.14 515.61 359.81 514.45 360.05 514.21 360.23 514.22 361.07 513.9 361.52 513.92 364.22 513.67 364.89 513.7 366.94 514.17 368.87 514.24 369.43 514.06 371.21 513.14 372.35 515.09 375.37 517.65 384.59 518.38 386.12 518.92 389.61 521.47 390.31 521.77 391.03 521.86 394.04 521.17 395.11 521.17 407.75 523.17 412.06 521.13 413.18 519.52 412.71 518.31 412.71 517.85 413.59 515.59 414.2 512.31 416.03 510.32 420.3 509 431.33 508.1 433.84 508.39 435.8 509 437.85 508.22 441.62 507.45 452.64 508.83 457.8 507.43 460.2 505.41 461.56 501.74 463.16 499.47 468.81 496.78 472.59 495.91 474.98 496.04 476.22 495.55 477.17 494.95 477.88 493.94 478.13 491.6 476.15 488.75 472.66 486.21 472.46 484.88 472.66 483.16 474.75 476.42 475.24 471.77 474.14 469.17 461.71 458.58 461.5 456.62 462.85 455.76 462.84 454.59 460.45 448.3 463.96 448.52 471.43 450.38 475.13 452.92 476.94 455 478.75 456.11 480.6 456.92 482.72 456.43 490.99 450.93 495.85 448.94 497.08 448.8 498.25 450.31 499.04 466.05 498.01 469.11 498.88 473.15 502.57 477.35 506.12 480.23 510.37 482.5 515.29 483.17 517.93 482.75 522.8 480.63 527.27 476.88 528.54 475.51 530.44 474.19 532.68 474.26 537 476.13 537.32 476.79 536.95 481.02 538.46 487.44 539.06 488.32 539.88 488.93 541.15 489.08 543.3 490.11 544.95 492.01 545.92 493.65 547.8 495.47 549.67 497.99 549.94 500.07 548.8 500.92 548.07 502.19 549.01 503.4 550.12 503.9 551.24 505.93 552.5 509.17 553.79 524.64 554.63 527.03 567.41 533.08 570.2 534.93 571.46 535.27 573.4 533.63 574.4 532.4 576.09 531.38 578.81 531.43 581.65 532.96 584.75 535.28 587.17 537.79 588.36 540.08 588.01 540.87 585.41 539.46 584.52 539.42 584.48 540.25 585.48 542.9 585.53 543.95 585.3 544.64 584.55 545.47 583.98 546.74 583.02 554.81 583.25 556.01 583.26 557.2 582.77 559.51 581.92 560.44 581.99 561.28 587.48 560.94 590.87 561.48 593.1 561.29 594.53 560.69 595.99 560.99 597.57 561.63 600.15 561.99 600.93 562.44 600.87 562.89 600.47 563.65 600.57 564.45 600.99 565.36 601.11 566.66 601.81 567.76 603.51 568.11 605.57 568.18 607.34 567.98 608.56 566.82 609.77 566.56 611.37 567.12 612.5 567.12 613.09 567.56 614.78 569.85 614.29 570.09 613.54 571.12 613.34 572.44 613.5 573.19 614.07 573.4 615.54 574.24 623.37 580.49 624.71 582.46 624.93 583.96 625.84 584.79 627.09 585.23 627.76 585.98 628.04 586.83 628.61 587.49 629.29 588.1 630.75 590.36 631.09 590.76 631.86 591.11 631.75 591.77 631.72 592.39 630.64 592.82 630.82 593.8 630.82 593.8 628.51 594.13 626.16 595.14 625.28 595.32 624.93 595.25 624.63 594.98 624.33 594.81 623.97 594.88 623.59 595.05 623.21 595.14 622.26 595.09 621.44 594.94 620.74 594.67 620.2 594.26 618.29 591.5 617.28 590.39 615.66 589.72 614.22 589.75 613.84 589.58 613.58 589.19 613.44 588.78 613.21 588.45 612.74 588.31 609.2 588.31 601.69 587.07 599.12 587.44 596.9 587.31 596.13 586.97 596.42 586.31 595.21 586.38 593.88 586.62 593.33 586.88 592.37 587.6 591.75 587.75 591.46 587.64 591.32 587.47 591.12 587.48 590.64 587.89 590.31 588.1 589.88 588.22 589.52 588.18 589.37 587.89 589.12 587.99 587.67 588.9 586.15 589.12 584.8 588.88 583.49 588.51 582.12 588.31 581.01 587.84 580.1 586.73 578.87 584.36 577.58 582.96 576.02 582.62 574.31 583.02 572.63 583.8 571.22 584.83 570.32 585.34 569.67 585.34 569.84 583.51 570 583.04 570.11 582.83 570.13 582.68 570.07 582.36 569.65 581.42 569 580.91 568.14 580.7 567.1 580.67 566.17 580.76 563.88 581.23 563.38 581.14 562.52 580.76 562.04 580.67 561.56 580.71 560.74 580.9 560.32 580.95 559.29 580.87 556.47 580.07 556.78 579.82 551.25 579.49 550.64 579.2 550.35 578.55 550.11 576.53 549.11 574.43 548.6 572.76 548.25 571.97 547.84 571.64 547.77 571.48 546.85 570.48 546.67 570.45 546.14 570.53 545.97 570.48 545.9 570.31 545.79 569.82 545.23 568.34 545.06 567.65 544.66 566.84 544.57 566.35 544.83 565.49 546.12 564.23 546.57 563.4 546 562.08 543.27 559.37 543.49 558.27 543.18 558.01 542.94 556.14 542.65 555.21 542.19 554.47 541.4 553.78 541.2 553.47 541.09 553.1 540.94 552.16 540.92 551.78 541.63 546.62 541.49 544.69 538.8 535.1 538.23 534.36 536.83 533.26 536.33 532.61 536.38 531.94 535.11 531.19 534.69 530.79 535.29 530.83 535.74 530.67 536.16 530.43 536.66 530.22 536.31 529.94 536.26 529.55 536.4 529.15 536.66 528.81 535.39 529.3 534.97 529.38 534.59 529.29 534.35 529.1 534.17 528.9 533.97 528.81 533.76 528.67 533.54 528.4 533.26 528.23 532.45 528.59 532.21 528.45 532.1 528.11 532.12 527.69 531.59 527.79 531.31 527.58 531.32 527.27 531.71 527.12 531.91 526.98 532.64 526.27 533 526.02 533 525.71 531.79 525.56 530.8 524.96 530.13 524.1 529.86 523.17 529.38 523.59 528.86 523.76 527.73 523.76 527.12 523.58 526.73 523.18 526.42 522.78 526.03 522.61 521.74 522.56 520.8 522.3 520.52 522.61 519.52 522.11 518.28 521.88 515.7 521.76 514.47 521.54 512.31 520.77 511.02 520.6 508.47 520.73 507.16 521.03 506.21 521.62 505.32 522 502.64 522.1 501.54 522.3 501.21 522.5 500.52 523.11 500.38 523.31 500.29 523.75 500.07 523.88 499.75 523.94 499.4 524.16 498.68 524.69 495.9 526.19 494.91 526.95 494.89 527.12 494.67 527.25 493.92 527.83 493.47 527.97 491.63 528.16 489.92 528.53 489.48 528.57 488.09 528.53 487.64 528.62 487.02 529.01 486.66 529.09 485.12 529.09 483.81 528.82 483.4 528.81 482.62 529.12 481.23 530.28 480.71 530.53 480.25 530.85 478.01 533.07 478.61 532.9 478.86 532.77 479.17 532.51 479.33 533.52 479.08 534.76 478.59 535.93 478.01 536.77 476.66 537.84 475.1 538.55 473.37 538.86 471.52 538.77 468.19 537.74 466.29 537.51 464.72 538.18 464.23 538.96 464 539.7 463.6 540.25 462.6 540.46 461.79 540.55 459.98 541.02 459.36 541.28 456.66 543.45 456.2 543.71 452.23 546.6 447.74 548.95 447.45 549.17 447.19 549.45 446.89 549.68 446.45 549.78 445.94 549.69 445.24 549.32 444.74 549.23 441.2 549.52 439.38 549.26 438.68 548.32 438.17 547.13 436.96 546.1 435.11 545.78 431.35 545.91 429.85 545.26 429.11 544.2 428.5 542.87 427.72 541.61 426.49 540.72 425.61 540.57 424.79 540.69 423.99 540.89 420.84 541.08 419.97 541 417.13 540.26 416.42 540.16 415.98 540.03 415.18 539.46 414.84 539.31 414.41 539.29 413.55 539.45 410.84 540.59 408.94 540.83 407.26 541.25 406.35 541.28 404.5 540.75 403.49 540.67 402.52 541.14 402.02 540.98 399.86 539.31 396.75 537.67 392.74 534.96 392.15 534.31 391.91 533.5 391.81 531.53 391.48 530.71 390.78 529.94 389.45 529.2 375.4 524.93 374.49 524.86 373.6 524.63 373.05 524.09 372.61 523.43 372.1 522.86 369.63 522.31 369.25 521.9 368.89 521 368.05 520.54 366.15 520.04 362.82 517.37 361.35 516.48 359.14 515.61 Z" fill-rule="evenodd" id="IRN-3228" data-name="Hormozgan"/>
<path d="M 163.99 3.66 164.55 3.77 165.35 4.19 167.88 6.02 174.83 12.47 177.66 14.5 178.83 15.73 179.74 17.23 179.31 17.34 178.24 17.6 176.06 18.74 173.47 19.14 172.08 19.7 170.88 20.59 170.12 21.77 170.05 23.18 170.6 24.29 171.61 25.4 173.96 27.18 176.33 27.94 176.95 28.42 178.2 30.49 178.42 31.02 178.39 31.59 178.2 32.15 178.19 32.17 177.87 32.7 177.5 33.14 177.49 33.14 177.49 33.14 177.49 33.15 177.49 33.15 175.79 33.97 168.15 35.03 168.01 35.29 168.02 35.61 167.9 35.87 165.74 36.92 165.35 37.39 165.45 39.09 166.27 40.27 168.96 41.95 174.43 44.06 174.95 44.41 175.06 44.75 175.25 45.35 175.08 46.16 175.16 46.86 177.16 48.11 177.81 48.87 178.56 49.42 179.83 49.44 181.93 48.68 182.9 48.68 183.37 49.57 183.66 50.67 184.2 51.23 184.86 51.7 185.54 52.54 186.23 53.13 186.85 53.82 187.88 54.84 188.41 55.37 189.54 56.85 190.86 57.86 191.07 57.87 191.31 58.3 192.63 59.23 193.49 60.1 193.72 60.88 194.72 61.2 196.28 61.48 196.92 62.01 196.55 62.76 187.21 71.51 186.36 73.1 186 75.29 184.68 76.91 184.59 79.18 188.39 87.51 195.25 96.08 197.53 97.95 200.17 99.6 201.56 101.01 201.59 102.19 201.42 104 201.76 106.17 202.21 107.18 199.43 106 197.98 106.35 196.35 107.24 194.86 107.09 193.68 106.56 192.88 106.8 192.38 107.52 192.38 108.22 191.82 108.95 190.55 109.17 187.46 106.54 185.76 106.05 184.55 106.31 183.98 106.15 183.41 105.9 183.04 105.95 182.45 105 181.86 104.75 180.45 104.81 179.83 104.98 179.46 105.34 179.15 105.34 179.36 104.72 179.46 104.49 177.58 103.27 176.7 102.55 174.17 101.22 173.09 99.19 172.76 96.2 171.66 95.43 168.63 94.18 167.7 94.04 167.44 94.15 163.4 92.17 162.17 87.65 162.54 83.88 163.47 82.31 163.89 81.17 163.46 80.42 160.7 78.4 157.43 74.89 155.34 70.81 155.08 67.52 153.86 64.49 150.97 63.36 141.68 64.43 140.48 64.26 139.9 63.93 138.6 62.92 135.96 63.18 133.97 63.8 133.48 62.51 133.67 60.39 134.52 58.88 135.57 57.81 136.88 55.89 140.18 53.99 141.92 52.52 144.73 51.87 147.69 52.24 149.71 51.17 148.93 49.14 146.76 48.18 146.72 47.02 148.25 45.41 148.69 42.65 146.29 37.99 146.19 34.88 145.55 34.15 146.12 29.46 144.49 28.98 141.82 30.84 139.04 32.14 137.35 32.03 134.24 33.66 129.5 40.1 130.07 40.77 130.68 40.95 130.17 41.48 127.59 43 126.02 44.67 124.29 45.76 118.11 44.39 115.39 44.98 112.56 46.18 109.73 46.98 107.62 46.07 106.44 43.81 107.1 41.23 108.77 39.53 109.87 39.02 110.3 38.43 111.83 38.3 114.03 38.71 114.6 38.32 114.88 37.18 114.91 35.97 115.01 35.34 115.87 35.3 117.78 36.52 119.6 36.25 121.25 35.5 123.82 35.23 127.41 33.31 128.26 32.4 128.54 31.65 128.69 30.83 127.93 28.31 127.32 27.47 126.05 26.99 125.48 26.49 125.43 26.06 125.28 25.98 124.96 25.16 125.24 25.04 125.67 24.64 125.89 24.34 126.58 22.77 128.08 20.91 128.22 20.5 128.62 20.14 130.6 19.2 134.72 17.96 135.2 17.75 136.44 17.2 137.81 16.11 137.81 16.11 139.87 14.06 141.22 13.18 142.95 12.44 145.84 11.68 146.77 11.6 147.3 11.32 149.49 9.6 150.23 9.27 155.2 7.11 156.98 5.71 157.62 5.2 158.42 4.77 159.4 4.57 162.55 4.61 163.06 4.51 163.49 4.21 163.97 3.65 163.99 3.66 Z" id="IRN-3230" data-name="Ardebil"/>
<path d="M 281.42 173.24 283.34 175.19 284.4 176.87 284.42 179.75 280.85 189.21 279.68 190.56 278.3 193.78 277.57 200.13 277.08 201.71 276.32 202.08 272.03 203.28 266.91 203.94 264.45 205.27 260.86 206.12 257.13 205.71 254.77 207.27 254.72 209.97 255.58 210.97 255.14 211.8 251.28 213.59 250.89 215.72 253.12 217.88 254.95 219.24 256.45 219.81 258.1 219.68 259.33 220.3 260.54 221.47 261.17 222.69 260.99 224.39 262 226.44 263.91 228.4 266.64 230.29 277.31 231.11 281.57 233.05 291.11 235.2 290.62 237.67 286.67 245.6 285.57 247.23 283.2 247.24 280.6 247.93 278.27 249.56 275.69 250.89 258.46 254.67 251.9 257.93 248.47 260.3 248.11 259.97 245.47 258.78 245.17 257.6 245.24 256.39 244.34 255.62 243.01 254.76 242.35 253.78 241.43 253.31 239.98 254.18 239.17 255.52 238.9 256.59 237.93 257.13 236.65 256.29 235.23 255.04 232.13 253.73 230.78 252.77 230.39 251.8 230.83 250.58 231.49 249.39 231.45 248.3 230.32 246.69 228.51 244.86 226.24 244.26 224.16 245.25 221.88 245.89 220.05 246.77 218.64 250.38 217.85 251.06 214.55 252.81 213.41 252.45 208.74 252.12 206.01 251.28 203.91 250.26 203.37 249.39 203.59 248.4 203.93 247.49 205.58 244.31 205.44 243.36 204.92 242.25 205.22 240.91 205.87 240.03 210.18 236.81 210.9 235.98 211.03 235.01 210.27 232.34 210.04 230.08 209.39 227.82 206.45 223.05 206.12 218.7 205.41 216.09 203.33 215.41 202.73 214.25 204.18 213.77 208.43 214.14 210.34 214.89 211.27 214.72 210.57 211.52 210.72 208.62 211.81 207.14 212.31 205.68 211.84 203.28 212.87 201.99 220.4 201.66 223.97 202.17 224.96 203.36 224.09 204.9 224.72 206.77 226.34 208.37 227.69 209.38 229.49 209.53 230.51 207.85 229.61 203.4 228.57 201.34 226.58 199.41 224.46 198.58 220.03 197.58 218.17 196.8 217.22 196.04 217.11 195.45 217.86 194.75 219.11 194.65 221.49 194.04 223.49 192.13 222.96 190.23 221.12 187.72 220.34 184.94 221.64 183.6 222.76 183.53 222.85 184.3 222.81 185.35 223.61 186.3 225.03 186.51 226.42 185.25 226.58 183.65 225.6 182.61 225.25 181.13 225.28 180.15 232.53 179.99 233.77 177.66 235.5 176.61 242.78 174.8 244.92 173.93 247.19 173.4 249.1 173.31 256.52 170.68 258.98 170.56 260.21 170.71 261.99 171.05 266.16 171.27 270.22 172.23 272.6 173.98 273.64 174.48 274.07 173.87 274.07 173.18 272.46 171.37 272.99 170.25 275.32 170.28 276.92 171.82 276.9 174.1 277.2 175.48 278.37 175.29 279.52 173.38 281.42 173.24 Z" id="IRN-3231" data-name="Markazi"/>
<path d="M 326.22 203.39 326.78 205.04 326.67 208.41 325.55 212.03 323.73 215.55 322.36 217.17 308.41 220.16 305.21 220.02 296.29 220.87 292.35 222.29 290.8 223.58 290.31 224.78 289.07 232.9 289.94 234.68 291.11 235.2 281.57 233.05 277.31 231.11 266.64 230.29 263.91 228.4 262 226.44 260.99 224.39 261.17 222.69 260.54 221.47 259.33 220.3 258.1 219.68 256.45 219.81 254.95 219.24 253.12 217.88 250.89 215.72 251.28 213.59 255.14 211.8 255.58 210.97 254.72 209.97 254.77 207.27 257.13 205.71 260.86 206.12 264.45 205.27 266.91 203.94 272.03 203.28 276.32 202.08 277.08 201.71 277.57 200.13 278.3 193.78 279.68 190.56 280.85 189.21 280.85 189.32 292.73 189.43 302.66 191.88 326.22 203.39 Z" id="IRN-3232" data-name="Qom"/>
<path d="M 175.06 169.71 176.46 171.78 178.32 172.72 187.19 172.96 190.82 174.57 194.29 175.26 197.42 174.37 198.94 172.69 198.91 171.96 200.83 171.27 205.35 171.34 208.8 172.94 210.37 174.55 209.11 176.11 211.94 177.87 217.23 178.61 218.39 178.35 224.26 179.57 225.28 180.15 225.25 181.13 225.6 182.61 226.58 183.65 226.42 185.25 225.03 186.51 223.61 186.3 222.81 185.35 222.85 184.3 222.76 183.53 221.64 183.6 220.34 184.94 221.12 187.72 222.96 190.23 223.49 192.13 221.49 194.04 219.11 194.65 217.86 194.75 217.11 195.45 217.22 196.04 218.17 196.8 220.03 197.58 224.46 198.58 226.58 199.41 228.57 201.34 229.61 203.4 230.51 207.85 229.49 209.53 227.69 209.38 226.34 208.37 224.72 206.77 224.09 204.9 224.96 203.36 223.97 202.17 220.4 201.66 212.87 201.99 211.84 203.28 212.31 205.68 211.81 207.14 210.72 208.62 210.57 211.52 211.27 214.72 210.34 214.89 208.43 214.14 204.18 213.77 202.73 214.25 203.33 215.41 205.41 216.09 206.12 218.7 206.45 223.05 209.39 227.82 210.04 230.08 210.27 232.34 211.03 235.01 210.9 235.98 210.18 236.81 205.87 240.03 194.59 236.03 191.88 236.28 189.68 236.17 188.6 236.42 186.43 238.27 185.21 238.54 183.67 238.06 174.5 237.15 156.74 227.48 155.89 226.45 154.12 225.51 153.08 225.12 153.8 223.96 155.33 222.05 159.42 221.8 164.06 222.62 165.32 221.76 165.22 219.84 165.67 217.11 165.25 215.43 164.46 214.44 163.51 214.61 161.61 215.3 158.08 218.34 157.03 217.01 156.42 215.3 155.3 214.82 153.94 214.59 150.9 213.22 148.8 211.82 148.4 210.18 148.99 209.53 150.31 209.11 154.45 208.71 156.39 206.36 158.03 203.33 159.39 202.04 159.62 200.88 159.59 200.26 160.85 199.7 163.38 199.1 164.89 198.43 165.36 197.27 166.13 197.11 167.45 199.8 168.35 200.19 169.72 199.2 171.18 197.29 172 194.2 170.86 190.38 168.5 188.46 166.81 187.59 164.78 185.58 160.32 177.45 157.44 173.97 158.09 172.92 160.26 170.95 161.2 170.87 163.16 174.18 164.44 174.46 165.79 173.97 166.98 173.02 169.92 172.21 169.93 171.17 169.44 170.29 168.23 169 167.49 167.34 168.98 167 175.06 169.71 Z" id="IRN-3233" data-name="Hamadan"/>
<path d="M 202.21 107.18 208.45 110.36 213.03 114.23 214.79 116.5 217.23 123.29 213.86 124.22 209.37 126.62 207.68 129.75 208.55 132.37 210.76 134.6 212.1 137.29 213.47 138.96 215.52 139.79 216.77 139.86 217.58 140.21 218.36 140.89 219.43 141.38 220.2 142.51 220.88 144.56 222.18 146.29 223.13 148 223.78 152.39 222.83 153.51 215.29 155.16 211.12 157.07 208.59 159.4 208.37 161.03 208.43 161.5 204.65 160.08 201.95 159.93 198.2 160.78 195.89 162.15 194.39 162.41 192.62 162.46 191.33 162.69 190.47 163.16 190.59 164.44 195.83 168.28 198.91 171.96 198.94 172.69 197.42 174.37 194.29 175.26 190.82 174.57 187.19 172.96 178.32 172.72 176.46 171.78 175.06 169.71 174.7 168.82 173.88 167.69 173.12 167.12 161.75 161.49 161.18 160.4 161.86 158.9 163.49 157.52 164.4 154.49 164.4 150.29 163.62 147.95 162.9 147.88 162.73 147.83 162.68 147.52 162.82 147.25 162.99 146.98 163.04 146.7 162.79 145.7 162.87 145.33 163.3 145.01 162.91 144.55 162.44 143.74 162.05 142.82 161.89 142.02 161.6 141.58 160.3 140.41 160.16 140.23 139.33 136.89 138.13 135.92 132.41 125.62 132.17 124.28 132.15 122.28 132.94 120.98 139.21 115.88 140.95 113.57 142.18 112.85 144.91 111.81 147.17 109.85 148.59 109.17 150.05 108.68 163.05 107.48 166.98 107.96 169.66 107.6 179.55 108.42 182.63 107.45 184.07 106.54 184.55 106.31 185.76 106.05 187.46 106.54 190.55 109.17 191.82 108.95 192.38 108.22 192.38 107.52 192.88 106.8 193.68 106.56 194.86 107.09 196.35 107.24 197.98 106.35 199.43 106 202.21 107.18 Z" id="IRN-3234" data-name="Zanjan"/>
<path d="M 261 129.2 272.02 136.67 274.3 137.67 281 141.78 281.48 142.9 281.52 143.73 271.69 142.88 267 143.19 265.8 144.65 267.91 147 269.43 148.06 272.37 148.76 274.28 150.09 272.98 153.66 270.99 157 270.5 158.52 269.08 159.62 260.71 162.94 258.44 164.72 257.93 166.33 258.27 167.61 259.31 169.51 260.21 170.71 258.98 170.56 256.52 170.68 249.1 173.31 247.19 173.4 244.92 173.93 242.78 174.8 235.5 176.61 233.77 177.66 232.53 179.99 225.28 180.15 224.26 179.57 218.39 178.35 217.23 178.61 211.94 177.87 209.11 176.11 210.37 174.55 208.8 172.94 205.35 171.34 200.83 171.27 198.91 171.96 195.83 168.28 190.59 164.44 190.47 163.16 191.33 162.69 192.62 162.46 194.39 162.41 195.89 162.15 198.2 160.78 201.95 159.93 204.65 160.08 208.43 161.5 208.37 161.03 208.59 159.4 211.12 157.07 215.29 155.16 222.83 153.51 223.78 152.39 223.13 148 222.18 146.29 220.88 144.56 220.2 142.51 219.43 141.38 218.36 140.89 217.58 140.21 216.77 139.86 215.52 139.79 213.47 138.96 212.1 137.29 210.76 134.6 208.55 132.37 207.68 129.75 209.37 126.62 213.86 124.22 217.23 123.29 221.14 124.8 221.22 125.5 221.74 126.82 224.08 129.19 226.59 131.1 232.27 132.46 234.38 132.39 235.65 132.56 236.54 133.06 240.36 133.67 242.41 133.38 250.18 130 251.03 129.76 251.94 129.36 255.38 128.75 261 129.2 Z" id="IRN-3235" data-name="Qazvin"/>
<path d="M 33.74 6.44 33.85 6.56 34.45 6.83 34.61 6.9 35.49 7.03 36.44 7.05 36.32 7.24 36.16 7.36 37.03 7.84 37.52 8.74 38.76 12.71 39.27 13.54 40.14 14.14 39.79 14.64 39.95 14.93 41 15.52 41.22 15.56 41.66 15.55 41.99 15.62 42.13 15.78 42.22 15.97 42.37 16.11 43.84 16.89 43.86 16.9 44.09 17.11 44.22 17.41 44.56 17.84 44.98 18.23 45.36 18.39 45.69 18.79 46.45 20.11 46.7 20.54 47.05 20.93 47.34 21.38 47.77 23.44 48.04 24.07 49.12 23.81 53.43 24.91 53.53 24.84 53.82 24.68 54.19 24.57 54.58 24.6 54.7 24.86 54.59 25.25 54.58 25.61 54.99 25.76 55.57 25.85 56.12 26.12 56.35 26.56 56 27.17 56.27 27.59 56.63 27.8 57.01 27.98 57.4 28.3 57.57 28.62 57.9 29.51 58.11 29.86 58.5 30.09 59.49 30.43 59.68 30.71 59.59 31.14 59.42 31.48 59.3 31.83 59.38 32.28 59.85 32.72 60.73 33.18 61.67 33.54 62.16 33.64 61.9 33.85 57.34 37.64 56.43 39.37 55.23 43.75 55.8 46.11 56.85 48.29 56.84 50.35 55.29 52.54 48.19 58.3 45.87 61.4 45.42 63.19 45.96 64.57 48.58 67.37 48.86 67.37 48.87 67.94 49.11 68.24 49.44 68.47 49.71 68.8 49.97 69.54 50.03 69.99 49.86 70.19 49.74 70.41 49.71 71.78 51.17 82.93 52 83.81 52.18 84.15 52.23 84.31 52.56 86.8 52.39 87.02 52 87.2 51.61 87.45 51.43 87.92 51.74 88.57 52.31 89.39 52.58 90.15 55.35 92.79 56.38 94.68 55.91 99.81 56.47 102.04 58.04 103.92 70.1 110.23 75.48 110.99 79.9 111.05 85.63 115.22 86.32 116.33 91.46 118.65 93.25 119.97 95.17 120.62 96.38 119.95 97.06 119.09 97.19 118.72 97.8 117.56 99.16 116.21 101.64 114.92 103.68 114.57 104.69 114.66 105.82 113.8 107.56 112.88 109.47 113.13 110.78 114.19 112.42 115.01 114.53 115.38 115.83 116.28 116.02 117.16 115.47 117.77 117.11 121.6 117.08 124.35 118.56 126.09 122.6 126.53 132.41 125.62 138.13 135.92 137.13 136.17 135.9 136.77 135.73 137.59 136.02 138.27 135.81 138.92 135.09 140.05 133.34 141.68 130.23 142.8 125.54 142.47 121.25 141.51 119.67 140.62 118.96 139.99 118.13 139.44 117.55 138.81 117.24 138.31 116.76 137.98 95.37 139.58 84.98 138.38 81.36 139.53 80.44 140.49 80.38 142.48 78.39 144.92 71.67 146.67 70.43 147.77 69.94 148.43 69.04 149.18 68.47 151.2 66.18 153.31 65.49 154.66 63.87 155.97 62.47 156.66 62.45 156.68 62.45 156.68 61.53 156.41 60.45 156.42 59.08 156.98 58.35 157.14 58.34 157.15 58.33 157.15 58.32 157.15 58.32 157.15 57.51 157.61 56.59 157.86 55.7 157.76 54.97 157.15 54.96 157.15 54.96 157.15 54.96 157.15 54.96 157.14 54.69 156.47 54.93 155.62 55.44 154.77 55.95 154.11 56.12 153.29 55.6 152.45 54.31 151.1 54.1 150.23 54.21 148.32 54.01 147.53 53.41 147.05 52.64 146.56 52.41 146.06 53.41 145.54 52.63 144.74 52.35 144.02 52.24 142.24 52.04 141.28 51.6 140.24 50.87 139.5 49.82 139.44 47.51 140.19 46.3 140.26 45.18 139.84 44.71 139.4 44.56 139.02 44.49 138.62 44.29 138.08 43.96 137.68 43.6 137.41 43.34 137.07 43.3 136.48 42.77 136.02 42.12 135.57 41.97 135.46 41.37 134.84 41.45 134.18 41.63 134.08 42.15 133.92 42.27 133.84 42.31 132.97 42.75 131.56 43.55 130.06 43.62 129.29 43.18 128.4 42.18 126.91 41.57 126.24 40.87 125.94 40.34 125.93 39.85 125.8 39.42 125.56 39.04 125.19 38.53 124.83 37.93 124.75 36.65 124.81 35.57 124.61 34.75 124.17 34.42 123.45 34.87 122.43 36.33 120.98 36.9 120.24 37.13 119.25 36.93 118.32 36.55 117.65 36.31 116.92 36.55 115.81 37 115.36 37.07 114.91 36.79 114.54 35.89 114.16 35.42 113.75 35.13 113.62 34.73 113.63 33.92 113.83 33.53 113.77 33.34 113.56 33.13 112.93 32.97 112.66 32.67 112.49 32.37 112.41 32.07 112.3 31.83 112.03 31.5 111.3 31.49 110.89 32.06 109.7 32.31 108.9 32.06 108.2 31.67 107.5 31.53 106.67 31.82 105.93 32.34 105.58 32.91 105.31 33.39 104.81 33.52 103.47 32.59 102.6 30.21 101.38 29.86 100.82 29.62 100.23 29.24 99.86 27.74 100.04 27.35 99.69 26.77 98.51 26.13 98.13 24.59 98.01 24.04 97.76 23.78 97.08 24.33 95.85 24.16 95.15 24.16 95.15 23.94 94.3 24.02 93.28 24.29 92.26 24.67 91.43 24.51 90.72 23.57 90.16 22.74 89.41 22.93 88.16 23.27 87.8 24.7 86.88 25.12 86.34 25.03 85.95 23.51 84.48 22.48 83.77 21.32 83.35 20.2 83.45 19.67 83.69 19.01 83.88 18.43 83.83 18.12 83.36 18.15 83.11 18.32 82.45 18.29 82.24 17.97 82.05 17.7 82.1 17.42 82.18 17.1 82.09 16.64 81.63 16.41 81.12 16.25 80.64 16.01 80.26 15.56 80.01 14.08 79.44 13.58 79.32 10.9 79.57 9.46 79.38 8.74 78.48 8.86 78.17 8.92 78.02 9.34 77.59 9.71 77.15 9.67 76.63 9.47 76.04 9.54 75.52 9.79 75.02 10.14 74.48 10.14 74.48 10.15 74.48 10.15 74.48 10.53 73.88 11.53 72.99 11.89 72.36 12.23 71.49 12.62 70.96 13.16 70.62 13.96 70.32 14.18 70.06 13.85 69.28 13.91 68.92 14.25 68.69 14.98 68.44 15.29 68.12 15.56 67.51 15.81 66.7 15.96 65.9 15.78 63.92 16.94 62.88 18.44 61.95 19.37 60.9 19.35 60.24 19.03 59.59 18.52 59.04 17.94 58.64 17.29 58.45 16.77 58.54 15.41 59.16 13.34 58.86 12.73 58.64 12.35 58.43 12.23 58.07 12.37 57.39 12.39 57.01 12.27 55.96 12.27 55.47 12.79 53.81 12.84 53.1 12.46 51 12.65 49.36 12.66 48.5 12.37 47.82 12.07 47.55 11.75 47.39 11 47.2 10.48 46.99 10.61 46.74 10.97 46.45 11.15 46.15 10.95 45.41 10.74 44.91 10.66 44.39 10.83 43.56 11.95 40.57 11.75 39.36 9.56 38.54 8.89 38.03 8.33 37.41 7.93 36.48 7.75 36.17 7.61 35.85 7.63 35.51 7.61 35.13 7.29 34.88 6.92 34.65 6.67 34.35 6.49 33.72 6.37 33.44 6.14 33.15 6.14 33.14 6.72 32.37 7.39 31.94 7.79 31.45 7.41 29.82 7.62 29.16 8.44 27.91 8.1 26.89 6.51 26.01 4.67 25.26 3.6 24.62 3.55 24.27 3.84 23.52 3.8 23.15 3.3 22.33 3.16 21.98 3.14 21.61 3.25 21.34 3.26 21.03 2.77 20.21 2.53 19.33 2.34 18.94 2.34 18.92 1.25 17.93 1 17.43 1.46 16.93 2.3 16.52 2.92 16.35 3.57 16.33 4.49 16.42 5.44 16.34 7.68 15.88 8.67 15.97 11.53 17.07 12.58 17.13 13.49 16.97 15.63 16.21 16.42 15.76 17.12 14.94 17.14 14.19 16.99 13.41 17.2 12.49 17.2 12.48 17.2 12.48 17.61 11.99 17.64 11.5 17.5 10.97 17.42 10.39 17.5 9.71 17.69 9.15 19.06 7.02 19.3 6.49 19.33 6.33 19.41 5.84 19.2 4.49 19.38 4.02 23.77 1.23 24.79 1 25.43 1.35 26.54 2.65 27.11 3.15 29.58 4.04 30.38 4.56 33.74 6.44 Z" id="IRN-3237" data-name="West Azarbaijan"/>
<path d="M 184.55 106.31 184.07 106.54 182.63 107.45 179.55 108.42 169.66 107.6 166.98 107.96 163.05 107.48 150.05 108.68 148.59 109.17 147.17 109.85 144.91 111.81 142.18 112.85 140.95 113.57 139.21 115.88 132.94 120.98 132.15 122.28 132.17 124.28 132.41 125.62 122.6 126.53 118.56 126.09 117.08 124.35 117.11 121.6 115.47 117.77 116.02 117.16 115.83 116.28 114.53 115.38 112.42 115.01 110.78 114.19 109.47 113.13 107.56 112.88 105.82 113.8 104.69 114.66 103.68 114.57 101.64 114.92 99.16 116.21 97.8 117.56 97.19 118.72 97.06 119.09 96.38 119.95 95.17 120.62 93.25 119.97 91.46 118.65 86.32 116.33 85.63 115.22 79.9 111.05 75.48 110.99 70.1 110.23 58.04 103.92 56.47 102.04 55.91 99.81 56.38 94.68 55.35 92.79 52.58 90.15 52.31 89.39 51.74 88.57 51.43 87.92 51.61 87.45 52 87.2 52.39 87.02 52.56 86.8 52.23 84.31 52.18 84.15 52 83.81 51.17 82.93 49.71 71.78 49.74 70.41 49.86 70.19 50.03 69.99 49.97 69.54 49.71 68.8 49.44 68.47 49.11 68.24 48.87 67.94 48.86 67.37 48.58 67.37 45.96 64.57 45.42 63.19 45.87 61.4 48.19 58.3 55.29 52.54 56.84 50.35 56.85 48.29 55.8 46.11 55.23 43.75 56.43 39.37 57.34 37.64 61.9 33.85 62.16 33.64 62.82 33.77 63.67 34.16 63.86 34.2 64.17 34.25 65.32 34.28 67.67 34.73 71.36 34.76 73.47 35.41 74.42 35.7 83.13 37.13 85.87 38.1 88.27 38.57 88.68 38.53 91.43 38.24 92.15 37.97 94.3 36.75 95.1 36.45 95.65 36.35 97.25 36.3 98.25 36.05 98.69 36.01 99.26 36.1 103.56 37.6 104.31 37.76 105.05 37.73 105.95 37.45 106.62 37.12 107.26 36.71 107.83 36.21 108.3 35.62 109.47 33.74 110.02 33.18 110.77 32.69 113.17 31.74 113.85 31.23 114.54 29.97 115.04 29.36 115.37 29.16 116.05 28.87 116.38 28.66 116.61 28.41 117.67 26.97 118.24 26.47 118.86 26.06 118.87 26.05 119.56 25.81 120.21 25.79 121.36 26.19 121.98 26.32 122.48 26.25 124.96 25.16 125.28 25.98 125.43 26.06 125.48 26.49 126.05 26.99 127.32 27.47 127.93 28.31 128.69 30.83 128.54 31.65 128.26 32.4 127.41 33.31 123.82 35.23 121.25 35.5 119.6 36.25 117.78 36.52 115.87 35.3 115.01 35.34 114.91 35.97 114.88 37.18 114.6 38.32 114.03 38.71 111.83 38.3 110.3 38.43 109.87 39.02 108.77 39.53 107.1 41.23 106.44 43.81 107.62 46.07 109.73 46.98 112.56 46.18 115.39 44.98 118.11 44.39 124.29 45.76 126.02 44.67 127.59 43 130.17 41.48 130.68 40.95 130.07 40.77 129.5 40.1 134.24 33.66 137.35 32.03 139.04 32.14 141.82 30.84 144.49 28.98 146.12 29.46 145.55 34.15 146.19 34.88 146.29 37.99 148.69 42.65 148.25 45.41 146.72 47.02 146.76 48.18 148.93 49.14 149.71 51.17 147.69 52.24 144.73 51.87 141.92 52.52 140.18 53.99 136.88 55.89 135.57 57.81 134.52 58.88 133.67 60.39 133.48 62.51 133.97 63.8 135.96 63.18 138.6 62.92 139.9 63.93 140.48 64.26 141.68 64.43 150.97 63.36 153.86 64.49 155.08 67.52 155.34 70.81 157.43 74.89 160.7 78.4 163.46 80.42 163.89 81.17 163.47 82.31 162.54 83.88 162.17 87.65 163.4 92.17 167.44 94.15 167.7 94.04 168.63 94.18 171.66 95.43 172.76 96.2 173.09 99.19 174.17 101.22 176.7 102.55 177.58 103.27 179.46 104.49 179.36 104.72 179.15 105.34 179.46 105.34 179.83 104.98 180.45 104.81 181.86 104.75 182.45 105 183.04 105.95 183.41 105.9 183.98 106.15 184.55 106.31 Z" id="IRN-3238" data-name="East Azarbaijan"/>
<path d="M 159.59 200.26 159.62 200.88 159.39 202.04 158.03 203.33 156.39 206.36 154.45 208.71 150.31 209.11 148.99 209.53 148.4 210.18 148.8 211.82 150.9 213.22 153.94 214.59 155.3 214.82 156.42 215.3 157.03 217.01 158.08 218.34 161.61 215.3 163.51 214.61 164.46 214.44 165.25 215.43 165.67 217.11 165.22 219.84 165.32 221.76 164.06 222.62 159.42 221.8 155.33 222.05 153.8 223.96 153.08 225.12 150.24 224.8 149.04 225.07 148.25 225.51 148.12 226.43 148.5 228.66 148.26 230.98 146.26 231.84 143.3 231.96 140.92 232.94 140.67 233.52 140.77 233.93 141.02 234.2 141.3 234.45 141.51 234.78 141.59 235.26 141.47 236.03 141.51 236.47 141.67 236.79 141.08 237.59 140.36 238.01 139.68 237.84 138.27 237.74 131.64 239.01 131.64 240.28 132.77 241.69 133.38 242.73 132.81 245.4 131.94 246.81 125.47 246.57 118.43 248.06 113.6 247.74 103.23 244.95 100.18 242.76 97.41 241.34 94.07 240.7 90.74 240.5 84.54 238.39 78.13 239.06 75.7 239.01 74.94 239.75 75.52 241.33 75.06 243.98 73.49 248.1 72.61 254.09 71.68 254.75 71.53 254.43 69.58 253.26 68.96 252.74 68.39 252.06 67.98 251.39 67.69 250.66 67.51 249.83 67.22 249.14 66.67 248.64 66.04 248.2 65.48 247.68 61.8 242.11 61.73 242.06 61.64 242.02 61.53 242.01 60.31 242.17 59.24 242.11 58.3 241.67 57.45 240.67 58.33 240.34 58.73 240.11 59.07 239.81 59.08 239.81 59.08 239.81 59.71 238.66 60.06 237.61 60.53 236.69 61.53 235.95 62.14 235.42 63.81 234.28 64.23 233.81 64.23 233.35 63.99 233 63.69 232.64 63.49 232.17 63.58 231.78 64.16 231 64.36 230.63 64.91 228.64 65 227.62 64.77 226.68 64.14 225.87 63.28 225.42 62.36 225.42 61.53 225.97 60.77 225.5 60.24 224.61 58.96 221.21 59.36 220.67 61.53 220.26 61.83 220.04 62.1 219.78 62.34 219.48 62.53 219.15 62.59 217.93 62.25 216.25 62.42 215.12 64.03 215.51 65.45 216.13 66.72 216.38 69.57 216.57 70.48 216.83 70.72 216.79 70.89 216.52 71 216.08 71.01 215.64 70.89 215.37 70.43 214.83 70.3 214.13 70.28 213.36 70.15 212.57 69.98 212.29 69.76 212.08 69.56 211.83 69.43 211.39 69.29 211.06 68.99 210.76 68.61 210.52 68.27 210.36 67.66 209.78 67.97 209.11 69.12 208.03 69.25 207.55 69.15 206.72 69.28 206.22 69.69 205.75 70.21 205.57 71.39 205.47 72.54 204.81 72.74 203.81 72.66 202.76 72.94 201.96 73.89 201.92 74.64 202.25 75.12 202.46 76.24 202.78 76.87 202.09 77.18 201.08 77.53 200.33 77.64 199.55 77.26 198.48 77.26 198.47 77.14 197.91 77.15 197.36 77.35 196.88 77.79 196.53 78.06 196.45 78.64 196.41 78.89 196.3 78.97 196.11 78.86 195.6 78.9 195.4 79.47 194.63 79.76 194.53 80.37 194.71 81.24 195.17 81.67 195.32 82.2 195.28 83.44 195.72 84.1 195.58 84.7 195.12 85.81 194.57 86.23 194.53 86.97 194.69 88.02 194.41 88.53 194.32 88.98 194.13 89.3 193.63 88.45 192.81 89 191.64 89.9 190.39 90.06 189.3 89.43 188.87 87.83 188.88 87.25 188.56 87.14 187.9 87.51 187.38 88.02 186.88 88.24 186.46 89.38 186.77 97.24 191.84 107.17 202.98 108.94 203.99 109.89 203.93 110.06 204.8 109.73 206.02 109.78 207.65 111.15 208.89 113.63 208.66 117.35 209.03 120.16 208.69 121.75 208 121.93 206.64 122.75 205.74 124.09 205.56 124.97 204.73 124.98 203.54 125.51 202.63 127.24 202.15 129.74 200.01 132.31 199.81 133.93 199.9 134.77 199.5 135.02 196.82 135.45 196.02 141.36 195.7 142.78 194.63 142.92 193.23 142.17 192 142.62 191.21 143.82 191.29 145.45 192.44 150.18 194.2 156.53 200.08 158.32 200.29 159.59 200.26 Z" id="IRN-3239" data-name="Kermanshah"/>
<path d="M 201.87 56.29 201.99 59.92 201.53 61.13 201.82 62.01 201.9 64.2 202.68 65.72 203.26 70.78 204.96 75.6 204.64 76.39 204.6 77.33 204.78 78.22 205.09 78.86 206.55 80.74 206.57 81.17 206.44 81.54 206.37 81.84 206.81 83.46 207.67 85.01 209.77 87.5 212.55 89.8 215.57 91.52 222.24 94.28 225.33 95.11 241.22 96.82 242.93 96.61 244.34 96.15 245.67 95.95 247.15 96.56 246.75 96.61 246.3 96.51 246.06 96.48 245.73 96.82 249.18 97.89 254.56 98.87 256.49 99.47 257.8 100.46 257.64 101.95 258 102.53 258.54 104.02 258.92 104.62 259.52 105.36 260.49 107.6 261.73 109.23 263.17 110.34 266.16 112.14 268.2 114.12 268.83 114.42 269.63 114.6 272.23 116.01 272.23 116.02 272.2 116.15 271.81 117.2 270.4 118.77 268.24 119.69 266.58 121.01 265.67 124.44 263.14 128.08 261 129.2 255.38 128.75 251.94 129.36 251.03 129.76 250.18 130 242.41 133.38 240.36 133.67 236.54 133.06 235.65 132.56 234.38 132.39 232.27 132.46 226.59 131.1 224.08 129.19 221.74 126.82 221.22 125.5 221.14 124.8 217.23 123.29 214.79 116.5 213.03 114.23 208.45 110.36 202.21 107.18 201.76 106.17 201.42 104 201.59 102.19 201.56 101.01 200.17 99.6 197.53 97.95 195.25 96.08 188.39 87.51 184.59 79.18 184.68 76.91 186 75.29 186.36 73.1 187.21 71.51 196.55 62.76 196.92 62.01 196.28 61.48 194.72 61.2 193.72 60.88 193.49 60.1 192.63 59.23 191.31 58.3 191.07 57.87 192.98 58 193.98 57.78 195.09 57.4 196.14 56.89 196.96 56.24 197.88 55.84 199.2 55.85 201.87 56.29 Z" id="IRN-3240" data-name="Gilan"/>
<path d="M 175.06 169.71 168.98 167 167.49 167.34 168.23 169 169.44 170.29 169.93 171.17 169.92 172.21 166.98 173.02 165.79 173.97 164.44 174.46 163.16 174.18 161.2 170.87 160.26 170.95 158.09 172.92 157.44 173.97 160.32 177.45 164.78 185.58 166.81 187.59 168.5 188.46 170.86 190.38 172 194.2 171.18 197.29 169.72 199.2 168.35 200.19 167.45 199.8 166.13 197.11 165.36 197.27 164.89 198.43 163.38 199.1 160.85 199.7 159.59 200.26 158.32 200.29 156.53 200.08 150.18 194.2 145.45 192.44 143.82 191.29 142.62 191.21 142.17 192 142.92 193.23 142.78 194.63 141.36 195.7 135.45 196.02 135.02 196.82 134.77 199.5 133.93 199.9 132.31 199.81 129.74 200.01 127.24 202.15 125.51 202.63 124.98 203.54 124.97 204.73 124.09 205.56 122.75 205.74 121.93 206.64 121.75 208 120.16 208.69 117.35 209.03 113.63 208.66 111.15 208.89 109.78 207.65 109.73 206.02 110.06 204.8 109.89 203.93 108.94 203.99 107.17 202.98 97.24 191.84 89.38 186.77 88.24 186.46 88.33 186.29 88.03 185.07 87.04 184.14 84.75 182.47 82.11 179.01 81.57 177.81 81.55 177.43 81.66 177.1 81.87 176.83 82.2 176.62 82.37 176.46 82.42 176.29 82.36 176.11 82.2 175.94 81.74 175.15 81.38 174.32 81.57 174.28 81.77 174.28 83.03 174.59 83.14 174.02 82.74 172.43 82.74 171.75 82.89 171.02 83.22 170.37 83.74 169.89 84.59 169.65 87.48 169.73 88.33 169.57 90.41 168.67 92.03 168.74 92.89 168.66 93.54 168.16 94.1 167.48 95.36 166.83 96.01 166.35 96.5 165.67 96.58 165.03 96.27 164.47 95.58 164.07 94.69 164 93.95 164.3 93.25 164.7 92.46 164.93 90.71 165.25 89.82 165.27 88.99 164.98 88.65 164.76 88.4 164.53 88.22 164.24 88.01 163.4 87.82 163.25 87.51 163.21 86.24 162.82 85.56 162.8 84.89 163.01 84.09 163.38 83.26 163.6 80.63 163.5 79.3 163.88 78.88 163.84 78.45 163.73 78.03 163.71 77.03 164.41 76.23 164.74 75.38 164.78 74.71 164.41 74.24 164.33 72.68 164.72 71.94 164.55 71.43 164 70.38 161.87 68.46 159.66 67.23 158.75 66.11 158.57 65.57 158.3 64.04 157.15 62.45 156.68 62.45 156.68 62.47 156.66 63.87 155.97 65.49 154.66 66.18 153.31 68.47 151.2 69.04 149.18 69.94 148.43 70.43 147.77 71.67 146.67 78.39 144.92 80.38 142.48 80.44 140.49 81.36 139.53 84.98 138.38 95.37 139.58 116.76 137.98 117.24 138.31 117.55 138.81 118.13 139.44 118.96 139.99 119.67 140.62 121.25 141.51 125.54 142.47 130.23 142.8 133.34 141.68 135.09 140.05 135.81 138.92 136.02 138.27 135.73 137.59 135.9 136.77 137.13 136.17 138.13 135.92 139.33 136.89 160.16 140.23 160.3 140.41 161.6 141.58 161.89 142.02 162.05 142.82 162.44 143.74 162.91 144.55 163.3 145.01 162.87 145.33 162.79 145.7 163.04 146.7 162.99 146.98 162.82 147.25 162.68 147.52 162.73 147.83 162.9 147.88 163.62 147.95 164.4 150.29 164.4 154.49 163.49 157.52 161.86 158.9 161.18 160.4 161.75 161.49 173.12 167.12 173.88 167.69 174.7 168.82 175.06 169.71 Z" id="IRN-3241" data-name="Kordestan"/>
<path d="M 681.97 236.23 682.42 239.81 683.6 246.13 683.51 247.76 682.24 250.15 681.9 251.51 682.93 254.53 685.54 256.62 688.88 257.77 692.11 257.98 695.15 257.84 696.75 257.94 698.14 258.23 698.78 258.55 699.47 259.07 699.84 259.66 699.8 259.73 699.48 260.18 698.87 260.37 696.91 260.48 696.18 260.89 696.06 261.48 696.2 262.17 696.28 262.88 696.05 263.71 695.62 264.18 694.26 264.88 693.07 265.77 691.5 267.56 689.49 269.85 687.24 272.39 685.24 274.66 684.99 275.24 685.05 278.51 685.65 281.15 686.83 284.54 688.23 288.54 689.67 292.67 691.2 297.02 692.87 301.81 694.69 307.54 696.1 311.96 696.01 315.33 695.46 318.62 695.21 319.31 694.13 320.49 693.81 321.13 693.95 321.38 694.3 321.55 694.54 321.79 694.19 322.7 694.27 323.12 694.48 323.53 694.64 323.97 694.71 324.87 694.4 327.42 694.49 329.42 695.07 333.25 694.54 336.3 694.64 337.27 695.26 339.27 695.75 343.14 697.12 343.63 701.29 344.16 708.22 345.02 708.29 345.03 709.04 347.44 708.46 352.42 705.81 357.87 703.86 363.93 703 374.73 703.17 377.88 705.27 385.91 705.2 387.2 704.55 388.06 703.15 388.54 697.53 388.71 694.14 386.2 687.63 378.2 682.54 374.97 678.71 374.06 677.77 373.41 676.31 372.08 674.06 371.74 643.05 379.31 641.74 379.85 625.25 359.2 619.32 355.41 572.27 337.25 572.86 336.43 575.02 331.69 579.27 326.09 580.79 322.48 586.29 316.21 586.97 314.28 587.34 312.26 588.29 309.95 588.38 307.68 586.72 305.36 585.46 303.05 585.4 301.79 584.18 300.63 583.55 299.68 583.25 298.77 583.96 297.28 585.07 295.75 585.41 294.48 585.21 291.31 586.25 290.26 588.02 287.71 589.38 282.81 595.12 275.51 608.11 268.29 609.95 266.72 612.01 263.95 612.26 262.77 613.5 260.86 607.22 257.04 606.88 255.86 606.45 254.88 605.48 254.3 604.32 253.36 604.13 251.59 604.75 249.25 605.81 247.13 605.97 245.49 605.53 243.66 606.4 240.62 606.79 237.88 605.17 235.72 604.94 234.64 605.55 233.46 607.77 232.75 614.35 233.44 618.59 234.52 619.71 233.84 620.89 232.75 633.17 231.24 637 229.41 641.31 228.09 643.53 229.66 647.59 235.15 653.01 236.75 678.73 236.68 681.95 236.23 681.97 236.23 Z" id="IRN-3244" data-name="South Khorasan"/>
<path d="M 714.26 172.67 714.56 173.06 715 174.75 715.1 175.59 714.85 176.44 714.3 177.22 713.33 178.19 712.87 178.98 712.51 180.28 712.28 180.7 711.42 181.66 711.18 182.12 710.98 182.96 711.18 185.09 710.85 185.82 710.05 186.2 709.07 186.33 708.19 186.35 707.59 186.75 707.35 187.63 707.31 188.51 707.34 188.91 707.58 189.09 707.78 189.49 707.76 189.89 707.34 190.07 707.1 190.25 707.31 190.67 708.78 192.29 708.9 192.47 708.81 192.94 708.7 193.3 708.77 193.64 709.2 194.02 708.2 195.17 707.9 195.77 707.66 197.47 707.05 199.03 706.92 199.83 706.79 200.23 706.2 201.01 706.07 201.52 706.11 201.95 706.3 202.72 706.33 203.08 706.15 204.54 705.82 205.9 704.55 206.25 704.32 206.93 703.51 208.12 702.2 208.96 701.46 209.68 701.41 210.66 701.54 211.73 701.38 212.73 700.94 213.2 700.46 213.3 699.92 213.26 699.35 213.34 698.79 213.6 698.52 213.88 698.31 214.21 696.44 215.98 695.63 216.43 694.6 216.67 692.34 216.92 691.31 217.36 690.7 218.23 691.14 218.28 691.49 218.45 691.76 218.73 692.11 219.72 692.48 220.01 693.49 220.39 693.99 220.77 694.4 221.25 695.05 222.32 698.12 225.62 698.59 226.39 695.51 226.55 691.31 226.76 688.38 226.9 688.67 227.78 688.03 228.37 686.06 229.23 684.61 230.48 683.31 231.88 682.15 233.83 681.9 235.68 681.97 236.23 681.95 236.23 678.73 236.68 653.01 236.75 647.59 235.15 643.53 229.66 641.31 228.09 637 229.41 633.17 231.24 620.89 232.75 619.71 233.84 618.59 234.52 614.35 233.44 607.77 232.75 605.55 233.46 604.94 234.64 605.17 235.72 606.79 237.88 606.4 240.62 605.53 243.66 605.97 245.49 605.81 247.13 604.75 249.25 604.13 251.59 604.32 253.36 605.48 254.3 606.45 254.88 606.88 255.86 607.22 257.04 613.5 260.86 612.26 262.77 612.01 263.95 609.95 266.72 608.11 268.29 595.12 275.51 589.38 282.81 588.02 287.71 586.25 290.26 585.21 291.31 584.12 290.65 580.78 286.24 577.27 284.4 574.6 283.39 573.61 282.73 570.1 281.05 567.41 275.88 564.32 258.42 562.68 255.79 560.91 253.91 550.35 255.96 542.14 255.14 540.2 252.59 537.63 240.67 537.97 233.68 543.17 220.72 545.99 216.52 562.37 206.97 566.37 203.74 566.93 201.09 565.51 198.49 553.46 190.91 548.86 189.92 538.45 192.11 522.03 198.5 505.13 202.12 511.78 195.38 517.11 191.38 521.8 189.09 530.54 186.4 531.8 185.6 533.55 182.26 540.74 172.18 541.37 169.29 538.67 166.76 528.86 160.25 527.73 157.94 526.4 152.94 525.62 145.19 526.23 140.68 527.9 138.11 529.01 134.25 528 131 526.32 130.19 525 130.16 524.19 130.34 524.32 129.22 524 127.75 524.33 125.87 526.72 123.32 536.67 116.84 543.27 117.1 570.64 129.29 582.09 130.7 585.23 130.08 586.77 128.9 588.15 125.67 587.81 124.38 586.33 123.68 585.79 123.03 586.06 121.87 588.51 119.76 588.36 118.8 586.99 118.27 586.17 117.26 585.81 116.19 585.27 116.39 584.67 117.64 583.57 117.77 582.82 116.61 581.68 115.6 579.66 114.48 579.46 113.03 581.14 111.37 583.62 105.52 585.11 103.86 585.52 102.64 585.56 101.82 585.94 101.1 587.03 100.03 587.94 98.7 587.69 97.04 586.55 95.19 582.8 92.4 581.85 90.68 581.32 89.28 580.55 88.5 562.01 87.8 560.43 86.91 561.1 85.47 561.57 83.94 561.57 82.14 563.13 80.88 568.14 78.43 568.29 78.45 568.96 78.32 569.31 78.39 569.6 78.62 569.97 79.24 570.22 79.5 570.84 79.7 571.52 79.66 572.21 79.53 572.88 79.49 574.31 79.8 580.79 82.26 583.52 82.77 584.91 82.86 585.58 82.99 586.28 83.26 586.59 83.54 586.6 83.82 586.51 84.12 586.54 84.44 587.19 85.41 587.34 85.71 587.45 86.47 587.45 87.04 587.65 87.51 588.36 87.98 589.06 88.19 592.28 88.57 592.8 88.77 593.89 89.39 594.47 89.51 598.21 89.21 598.93 88.94 599.49 88.26 599.87 87.57 600.36 86.98 601 86.61 601.81 86.57 602.49 86.84 604.56 88.3 606.35 88.89 607.28 89 608.21 88.92 608.57 88.75 608.83 88.5 609.13 88.31 609.6 88.31 610.48 88.44 610.9 88.42 611.34 88.3 611.89 87.75 611.99 87.14 612.22 86.85 614.7 87.95 617.9 88.54 619.54 89.13 620.12 89.46 620.67 89.61 621.87 89.75 622.33 89.95 623.68 91.06 629.19 94.22 630.08 94.29 632.4 93.44 633.35 93.64 634.18 94.27 634.98 95.15 635.17 95.7 635.04 96.62 635.29 97.07 635.4 97.41 635.23 97.78 634.98 98.19 634.84 98.65 634.94 99.51 635.75 102.36 636.23 102.93 638.82 104.65 639.6 105.34 639.84 105.62 639.79 105.82 639.64 105.96 639.58 106.07 639.53 106.35 639.41 106.69 639.53 106.98 640.21 107.13 640.47 107.35 640.81 107.56 641.16 107.7 641.5 107.72 642.81 107.31 643.42 107.39 644.11 107.99 644.41 108.63 644.61 109.41 644.89 110.1 645.45 110.45 645.84 110.38 646.13 110.13 646.61 109.52 647 109.36 647.44 109.38 653.39 110.93 656.11 112.76 657.62 113.48 661.02 113.96 662.57 114.5 663.8 115.81 665.35 118.46 667.26 120.8 671.64 125.08 672.51 126.21 673.71 128.75 674.56 129.95 675.93 130.57 682.5 130.47 688.28 130.39 697.1 130.26 702 130.19 706.23 130.13 708.29 130.42 709.97 130.6 710.31 132.01 710.65 132.64 710.8 133.02 710.87 133.54 710.81 134.05 710.65 134.51 710.42 134.91 710.17 135.22 709.99 135.66 710.06 136.16 710.31 136.78 709.42 140.11 709.18 142.14 709.77 143.32 709.63 143.48 709.57 143.6 709.46 143.88 709.86 144.02 710.19 144.24 710.44 144.49 710.61 144.73 710.78 145.16 710.85 145.6 710.87 146.55 711.01 146.96 711.61 147.76 712.23 150.33 712.33 151.58 712.4 151.79 712.32 152.04 711.89 152.51 711.68 152.79 711.55 153.16 711.48 153.57 711.46 153.94 711.3 154.39 710.95 154.6 710.57 154.72 710.31 154.92 710.19 155.42 710.33 156.25 710.31 156.64 709.8 157.07 708.96 157.63 708.48 158.12 709.05 158.33 710.06 158.46 710.9 158.82 711.62 159.36 712.28 160.02 712.71 160.6 713.08 161.29 713.34 162.02 713.53 163.5 713.68 164.12 713.7 164.79 713.44 165.72 713.7 166.02 713.71 166.43 713.44 167.41 713.41 167.64 713.44 168.38 713.31 168.66 712.75 169.11 712.59 169.36 712.69 170.47 713.26 171.4 714.26 172.67 Z" id="IRN-3245" data-name="Razavi Khorasan"/>
<path d="M 568.14 78.43 563.13 80.88 561.57 82.14 561.57 83.94 561.1 85.47 560.43 86.91 562.01 87.8 580.55 88.5 581.32 89.28 581.85 90.68 582.8 92.4 586.55 95.19 587.69 97.04 587.94 98.7 587.03 100.03 585.94 101.1 585.56 101.82 585.52 102.64 585.11 103.86 583.62 105.52 581.14 111.37 579.46 113.03 579.66 114.48 581.68 115.6 582.82 116.61 583.57 117.77 584.67 117.64 585.27 116.39 585.81 116.19 586.17 117.26 586.99 118.27 588.36 118.8 588.51 119.76 586.06 121.87 585.79 123.03 586.33 123.68 587.81 124.38 588.15 125.67 586.77 128.9 585.23 130.08 582.09 130.7 570.64 129.29 543.27 117.1 536.67 116.84 526.72 123.32 524.33 125.87 524 127.75 524.32 129.22 524.19 130.34 517.89 131.2 515.83 130.56 511.9 130.02 509.57 129.4 504.88 126.16 499.98 121.74 499.21 120.44 499.36 119.61 500.14 117.14 500.35 114.34 500.14 113.24 499.88 112.8 499.61 112.47 499.87 111.86 500.93 111.18 503.35 110.6 503.78 109.65 501.77 108.98 500.14 109.21 497.2 107.55 490.95 100.92 492.2 99.95 495.23 95.69 498.23 94.7 499.48 93.78 500.73 93.33 501.84 93.2 506.68 91.86 508.96 89.35 508.19 86.83 506.5 85.81 504.55 85.04 503.15 83.72 503.05 81.84 503.9 79.18 503.93 78.2 503.44 76.46 503.33 74.96 503.6 73.79 503.32 70.89 504.61 71.31 505.28 71.38 508.82 70.91 509.47 70.53 509.88 69.88 510.03 69.11 509.83 68.4 508.71 67.38 508.97 66.81 511.58 64.91 512.97 64.14 514.47 63.69 518.26 63.59 518.97 63.73 519.54 64 520.06 64.33 520.62 64.53 521.29 64.44 524.6 63.29 526.58 63.03 526.98 63.08 528.6 64.12 530.01 64.77 530.65 64.93 536.87 65.85 538.51 66.38 539.35 66.49 540.1 66.16 540.68 65.75 542.02 65.05 542.51 64.63 543.34 63.49 543.47 63.38 543.83 63.08 544.54 62.8 545 62.76 545.45 62.8 546.33 63.04 546.79 63.27 546.91 63.54 546.92 63.85 547.1 64.21 548.05 65.49 548.8 66.92 549.28 67.49 550.64 68.65 551.12 69.88 552 70.88 552.2 71.6 552.1 72.29 551.29 74.47 552.33 75.57 558.28 77.44 558.93 77.37 559.58 77.21 560.28 77.12 560.97 77.2 563.08 77.68 565.09 77.64 565.71 77.52 566.34 77.53 566.89 77.8 567.41 78.15 567.94 78.42 568.14 78.43 Z" id="IRN-3246" data-name="North Khorasan"/>
<path d="M 728.17 347.52 730.44 347.8 731.51 348.16 732.32 348.71 733.8 350.32 734.08 351.09 733.8 352.86 733.82 353.69 734.22 354.53 735.32 356.1 735.67 357.03 735.74 358.24 735.84 358.67 736.57 359.99 737.07 361.34 737.27 362.16 737.28 362.97 736.98 363.84 736.19 365.18 736.37 365.67 736.53 368.49 736.28 368.61 736.18 368.9 736.12 369.65 736.17 369.69 736.28 369.91 735.57 370.56 732.16 374.11 726.93 379.55 722.2 384.48 722.2 384.48 718.84 387.97 714.36 392.59 712.03 395.02 708.61 398.55 702.22 405.16 702.21 405.17 699.07 408.36 696.68 410.79 700.02 414.23 702.2 416.47 704.9 419.29 708.02 422.54 711.25 425.91 714.65 429.45 715.46 430.03 716.33 430.33 717.06 430.79 717.44 431.83 717.36 432.64 716.87 434.09 716.87 434.9 717.26 435.74 718.58 437.01 719.11 437.72 719.24 438.18 719.35 439.22 719.56 439.69 720 440.12 720.38 440.24 720.76 440.28 721.21 440.49 721.63 441.08 721.85 441.78 722.17 442.38 722.87 442.65 723.28 442.93 723.4 443.28 723.25 443.66 722.87 444.02 722.58 444.28 722.46 444.54 722.55 444.78 722.87 444.99 723.41 445.21 723.87 445.53 724.23 445.96 725.98 449.48 726.22 450.28 726.32 450.98 726.53 451.6 727.72 452.76 728.91 455.04 730.11 456.33 734.37 459.74 736.09 461.7 738.71 463.84 740.02 465.17 740.78 465.54 743.26 466.15 745.23 467.15 746.48 467.5 749.23 467.7 750.55 467.95 753.99 469.31 759.45 470.28 760.59 470.81 761.07 471.31 761.43 471.86 761.85 472.36 762.52 472.7 763.21 472.9 763.64 473.14 763.93 473.56 764.2 474.28 764.8 475.17 767.41 477.66 768.25 478.13 775.01 476.92 775.93 477.41 776.13 478.86 775.52 483.1 774.86 487.81 775.63 490.66 776.71 494.64 776.96 497.1 777.3 500.44 777.51 502.51 777.91 506.32 778.13 508.48 777.88 510.2 775.7 514.55 776.51 515.42 776.72 515.87 776.64 516.54 776.45 517.13 776.2 517.59 775.79 517.87 775.14 517.91 776.93 519.33 777.55 519.63 777.87 519.62 778.44 519.33 778.73 519.28 779.07 519.38 780.04 519.86 781.34 520.11 782.46 520.05 784.87 519.63 785.94 519.48 788.11 518.88 789.21 518.83 789.9 518.9 790.43 518.88 792.69 518.24 793.11 518.25 793.62 518.42 794.69 519.3 795.16 519.55 796.18 519.88 796.56 520.1 797 520.53 797.59 521.3 799 524.09 798.29 523.84 797.39 523.84 796.57 524.16 796.12 524.82 795.97 525.24 795.53 525.8 795.35 526.21 795.29 526.7 795.5 531.37 795.87 532.14 796.39 532.81 796.74 533.48 796.6 534.24 795.98 534.74 794.3 534.98 793.62 535.3 793.32 535.95 792.99 541.96 792.56 543.61 791.63 544.42 791.21 544.4 790.89 544.25 790.59 544.06 790.24 543.92 789.84 543.88 788.64 544.13 787 544.09 785.39 543.86 781.65 543.78 778.42 543.71 775.6 543.65 775.15 543.76 774.84 544.14 774.41 544.85 774.13 545.04 773.82 545.19 773.47 545.3 772.19 545.57 771.84 545.54 771.38 545.34 770.93 545.26 770.58 545.45 770.25 545.76 769.91 546 769.06 546.27 762.14 546.93 761.75 547.03 761.43 547.26 761.09 547.79 760.85 547.99 760.42 548.09 759.55 548.05 759.16 548.09 758.82 548.23 758.29 548.58 757.95 548.75 757.14 549.04 756.78 549.24 756.52 549.55 756.44 549.92 756.57 550.19 756.73 550.42 756.76 550.68 756.34 551.4 755.04 552.54 754.74 553.05 754.97 554 755.37 554.76 755.41 555.35 754.51 555.78 752.96 555.58 751.12 555 749.57 554.81 748.87 555.82 748.72 556.83 748.34 557.26 746.63 557.52 745.78 557.75 745.02 558.09 743.53 558.98 738.54 560.25 737.55 560.96 736.94 562.07 736.59 563.35 736.21 565.87 735.88 568.09 735.49 570.66 734.97 574.1 734.53 576.99 734.3 577.71 733.67 578.4 732.96 578.55 732.16 578.54 731.28 578.73 730.41 579.81 730.62 581.34 731.07 582.97 730.95 584.4 730.69 584.72 730.09 585.27 729.84 585.66 729.7 586.26 729.53 588.67 729.28 592.21 728.99 596.32 728.74 599.81 727.43 603.25 727.43 603.26 727.17 602.65 727.08 601.96 726.36 601.49 726.23 601.24 726.03 601.11 725.63 601.35 725.51 601.58 725.45 602.25 725.32 602.5 725.55 602.7 725.96 603.13 726.19 603.32 725.31 603.23 724.64 602.99 723.96 602.98 723.06 603.6 724.04 603.89 724.44 604.09 724.78 604.45 724.56 604.85 723.91 605.61 723.72 606.04 723.72 606.26 723.67 606.42 723.35 606.71 722.75 607 720.5 607.61 721.1 607.98 720.13 609.15 713.18 606.98 710.76 606.52 710.78 605.84 710.15 604.81 704.38 602.94 697.6 601.91 691.86 600.68 687.96 600.24 687.28 599.9 687.92 599.37 686.92 598.07 686.79 597.51 686.78 595.19 686.64 594.83 685.14 593.48 684.5 593.14 683.77 593.05 683.03 593.12 680.2 593.91 679.49 594.26 679.1 594.83 678.45 595.54 678.12 595.99 678.11 596.26 678.23 596.52 678.4 597.36 678.6 597.47 678.88 597.5 679.34 597.71 679.69 597.7 679.87 597.81 680.03 598.07 680.47 598.49 680.02 598.43 680.01 598.52 681.21 599.08 681.09 599.61 680.61 599.51 679.28 599 677.6 598.37 676.76 597.95 674.97 597.97 673.78 597.09 674.16 596.43 674.34 596.27 673.74 596.02 672.99 595.92 671.49 595.98 670.35 596.19 670.11 596.27 669.74 596.65 669.74 596.89 669.84 597.09 670.7 597.63 670.42 598.39 669.3 598.39 668.47 597.89 668.01 597.75 666.6 597.56 666.28 597.34 665.82 596.81 665.17 596.48 663.65 596.57 661.55 596.86 659.33 596.94 657.8 597.97 656.06 597.43 654.33 595.93 652.47 595.49 647.69 595.76 645.82 595.75 642.68 595.09 640.71 593.28 639.2 592.53 636.86 592.93 631.98 593.64 630.82 593.8 630.64 592.82 631.72 592.39 631.75 591.77 631.86 591.11 631.09 590.76 630.75 590.36 629.29 588.1 628.61 587.49 628.04 586.83 627.76 585.98 627.09 585.23 625.84 584.79 624.93 583.96 624.71 582.46 623.37 580.49 615.54 574.24 614.07 573.4 613.5 573.19 613.34 572.44 613.54 571.12 614.29 570.09 614.78 569.85 615.6 568.04 615.84 566.51 615.82 563.96 616.32 562.88 616.88 562.22 616.81 560.87 617.59 560.02 618.25 558.42 617.9 556.84 616.47 555.32 615.7 552.91 616.72 551.01 618.05 549.59 618.01 548.18 616.69 547.1 616.02 546.15 617.18 544.37 618.35 541.23 616.17 537.28 613.03 534.04 612.17 531.22 612.3 528.56 612.14 527.02 611.15 523.55 611.14 519.45 615.9 502.86 616.44 498.13 616.17 483.81 620.93 478.31 622.21 474.57 620.75 472.47 617.35 470.2 615.81 468.11 618.2 466.99 622.9 465.58 632.52 460.66 634.39 459.37 635.6 458.21 635.67 456.68 635.24 455.08 634.02 452.85 633.97 449.46 633.37 446.71 633.97 444.05 637.43 439.42 638.7 435.33 638.82 431.72 637.39 422.99 635.74 419.36 633.87 418.29 632.9 417.39 633.27 413.96 641.74 379.85 643.05 379.31 674.06 371.74 676.31 372.08 677.77 373.41 678.71 374.06 682.54 374.97 687.63 378.2 694.14 386.2 697.53 388.71 703.15 388.54 704.55 388.06 705.2 387.2 705.27 385.91 703.17 377.88 703 374.73 703.86 363.93 705.81 357.87 708.46 352.42 709.04 347.44 708.29 345.03 715.3 345.91 723.4 346.93 728.17 347.52 Z" id="IRN-3247" data-name="Sistan and Baluchestan"/>
<path d="M 572.27 337.25 619.32 355.41 625.25 359.2 641.74 379.85 633.27 413.96 632.9 417.39 633.87 418.29 635.74 419.36 637.39 422.99 638.82 431.72 638.7 435.33 637.43 439.42 633.97 444.05 633.37 446.71 633.97 449.46 634.02 452.85 635.24 455.08 635.67 456.68 635.6 458.21 634.39 459.37 632.52 460.66 622.9 465.58 618.2 466.99 615.81 468.11 617.35 470.2 620.75 472.47 622.21 474.57 620.93 478.31 616.17 483.81 616.44 498.13 615.9 502.86 611.14 519.45 611.15 523.55 612.14 527.02 612.3 528.56 612.17 531.22 613.03 534.04 616.17 537.28 618.35 541.23 617.18 544.37 616.02 546.15 616.69 547.1 618.01 548.18 618.05 549.59 616.72 551.01 615.7 552.91 616.47 555.32 617.9 556.84 618.25 558.42 617.59 560.02 616.81 560.87 616.88 562.22 616.32 562.88 615.82 563.96 615.84 566.51 615.6 568.04 614.78 569.85 613.09 567.56 612.5 567.12 611.37 567.12 609.77 566.56 608.56 566.82 607.34 567.98 605.57 568.18 603.51 568.11 601.81 567.76 601.11 566.66 600.99 565.36 600.57 564.45 600.47 563.65 600.87 562.89 600.93 562.44 600.15 561.99 597.57 561.63 595.99 560.99 594.53 560.69 593.1 561.29 590.87 561.48 587.48 560.94 581.99 561.28 581.92 560.44 582.77 559.51 583.26 557.2 583.25 556.01 583.02 554.81 583.98 546.74 584.55 545.47 585.3 544.64 585.53 543.95 585.48 542.9 584.48 540.25 584.52 539.42 585.41 539.46 588.01 540.87 588.36 540.08 587.17 537.79 584.75 535.28 581.65 532.96 578.81 531.43 576.09 531.38 574.4 532.4 573.4 533.63 571.46 535.27 570.2 534.93 567.41 533.08 554.63 527.03 553.79 524.64 552.5 509.17 551.24 505.93 550.12 503.9 549.01 503.4 548.07 502.19 548.8 500.92 549.94 500.07 549.67 497.99 547.8 495.47 545.92 493.65 544.95 492.01 543.3 490.11 541.15 489.08 539.88 488.93 539.06 488.32 538.46 487.44 536.95 481.02 537.32 476.79 537 476.13 532.68 474.26 530.44 474.19 528.54 475.51 527.27 476.88 522.8 480.63 517.93 482.75 515.29 483.17 510.37 482.5 506.12 480.23 502.57 477.35 498.88 473.15 498.01 469.11 499.04 466.05 498.25 450.31 497.08 448.8 495.85 448.94 490.99 450.93 482.72 456.43 480.6 456.92 478.75 456.11 476.94 455 475.13 452.92 471.43 450.38 463.96 448.52 460.45 448.3 452.1 430.15 449.69 429.26 440.22 428.5 438.37 427.47 437.39 426.6 436.49 425.21 436.02 423.62 432.66 417.56 431.53 414.29 431.54 413.47 433.36 412.77 433.78 412.46 437.95 412.02 439.25 411.21 439.2 410.04 438.63 408.39 438.19 406.04 438.72 392.63 437.38 391.84 436.05 390.43 435.07 386.31 432.62 380.77 430.32 377 430.21 374.95 431.13 371.94 433.04 368.82 436.67 365.33 459.91 361.8 465.2 361.97 468.58 362.56 476.38 361.65 483.39 359 484.01 356.13 484.54 343.12 486.38 339.77 508.32 329.89 511.25 327.25 519.84 323.12 521.75 321.37 522.64 320.22 527.91 321.01 572.27 337.25 Z" id="IRN-3248" data-name="Kerman"/>
<path d="M 281.52 143.73 288.35 144.82 290.98 145.67 291.73 146.54 293.3 147.72 295.03 148.33 301.81 149.54 304.5 152.1 304.36 153.84 304.36 156.18 302.02 157.35 298.69 157.01 295.35 158.01 292.85 160.35 292.69 163.02 292.19 165.02 288.52 165.18 287.35 167.69 285.18 169.85 282.51 171.19 281.42 173.24 279.52 173.38 278.37 175.29 277.2 175.48 276.9 174.1 276.92 171.82 275.32 170.28 272.99 170.25 272.46 171.37 274.07 173.18 274.07 173.87 273.64 174.48 272.6 173.98 270.22 172.23 266.16 171.27 261.99 171.05 260.21 170.71 259.31 169.51 258.27 167.61 257.93 166.33 258.44 164.72 260.71 162.94 269.08 159.62 270.5 158.52 270.99 157 272.98 153.66 274.28 150.09 272.37 148.76 269.43 148.06 267.91 147 265.8 144.65 267 143.19 271.69 142.88 281.52 143.73 Z" id="IRN-5490" data-name="Alborz"/>
</g>
</svg>