<?xml version="1.0"?>
<svg xmlns="http://www.w3.org/2000/svg" version="1.2" baseProfile="tiny" width="800" height="1911" viewBox="0 0 800 1911" stroke-linecap="round" stroke-linejoin="round">
<g id="ne_10m_admin_1_states_provinces">
<path d="M 349.45 32.75 349.77 32.96 352.11 35.71 355.52 37.59 363.87 47.62 365.73 48.69 369.98 53.29 377.1 56.53 401.05 81.57 408.4 84.21 409.96 87.47 410.57 91.87 411.79 96.53 413.21 98.49 418.68 104.09 419.8 104.7 424.26 108.95 424.54 109.97 449.12 140.1 451.92 145.16 459.32 155.52 462.2 163.94 462.53 166.61 462.02 169.44 459.83 174.25 459.32 176.69 461.21 185.09 469.38 203.26 471.72 216.34 473.78 221.71 474.31 224.76 474.24 227.38 469.25 254.26 470.34 259.57 475.08 267.39 476.12 271.97 475.59 274.31 473.3 279.83 472.79 282.99 472.95 284.3 473.19 286.24 474.34 289.65 475.97 292.88 477.95 295.68 480.04 296.65 482.18 296.52 482.99 296.76 481.91 296.96 375.51 297.36 372.29 296.88 366.91 295.15 364.66 295.05 362.29 295.62 359.24 296.68 357.59 296.79 352.32 293.56 317.43 264.64 261.23 178.03 258.44 172.36 256.57 169.95 254.82 169.32 245.95 170.19 240.34 170.23 238.01 169.39 234.9 167.61 226.5 160.63 224.56 159.44 223.57 159.22 220.24 158.88 217.6 158.38 214.93 156.93 213.09 155.15 211.11 152.21 209.89 150.76 208.25 149.53 206.45 148.6 203.5 146.54 202.35 144.77 201.86 142.76 202.01 139.68 202.47 138.79 203.5 138.07 209.77 136.13 221.64 128.72 222.92 127.59 224.41 125.49 225.24 124.62 228.41 124.04 230.4 123.35 233.68 120.48 235.33 118.49 236.98 116 239.19 111.1 240.07 109.88 242.66 107.91 245.79 104.7 247.4 103.33 248.85 102.43 250.69 101.9 254.89 101.1 255.85 99.62 256 96.99 254.36 92.78 253.82 90.28 253.48 85.65 252.45 83.32 250.81 80.52 250.04 78.3 249.89 76.5 250.62 72.24 250.77 69.48 249.74 67.38 248.75 66.25 243.98 57.55 244.1 57.57 250.36 56.76 256.88 53.12 264.78 50.95 271.52 55.1 277.81 61.39 284.19 65.54 289.97 67.88 296.94 72 302.87 76.96 305.54 81.85 308.42 83.91 312.47 79.56 312.47 77.88 316.11 75.51 318.14 72.99 319.01 69.79 319.18 65.28 320.92 57.85 321.37 53.55 316.79 42.56 320.46 36.37 326.26 31.61 329.26 28.23 333.26 24.69 341.81 27.77 349.45 32.75 Z" id="MWI-1194" data-name="Chitipa"/>
<path d="M 243.98 57.55 248.75 66.25 249.74 67.38 250.77 69.48 250.62 72.24 249.89 76.5 250.04 78.3 250.81 80.52 252.45 83.32 253.48 85.65 253.82 90.28 254.36 92.78 256 96.99 255.85 99.62 254.89 101.1 250.69 101.9 248.85 102.43 247.4 103.33 245.79 104.7 242.66 107.91 240.07 109.88 239.19 111.1 236.98 116 235.33 118.49 233.68 120.48 230.4 123.35 228.41 124.04 225.24 124.62 224.41 125.49 222.92 127.59 221.64 128.72 209.77 136.13 203.5 138.07 202.47 138.79 202.01 139.68 201.86 142.76 202.35 144.77 203.5 146.54 206.45 148.6 208.25 149.53 209.89 150.76 211.11 152.21 213.09 155.15 214.93 156.93 217.6 158.38 220.24 158.88 223.57 159.22 224.56 159.44 226.5 160.63 234.9 167.61 238.01 169.39 240.34 170.23 245.95 170.19 254.82 169.32 256.57 169.95 258.44 172.36 261.23 178.03 317.43 264.64 256.8 291.7 249.82 294.45 249.74 293.54 249.52 291.13 247.78 286.65 247.74 280.19 241.03 279.32 237.23 274.99 232.42 263.95 230.54 261.84 223.67 255.78 221.58 252.91 215.12 237.71 214.23 231.81 215.78 218.04 215.21 210.28 211.68 206.29 206.8 202.9 202.21 196.95 195.83 194.73 191.37 191.09 187.35 186.74 182.19 182.39 162.08 173.56 158.78 169.06 158.93 162.69 160.23 156.49 164.86 144.86 172.16 133.63 173.92 128.44 172.34 121.57 168.47 111.85 166.87 109.94 157.76 106.63 154.75 105.06 151.8 102.46 149.69 99.48 146.13 92.79 143.43 89.91 137.26 86.15 134.93 82.66 134.27 79.02 135.07 76.71 136.34 74.72 137.03 72.08 136.66 68.33 135.57 65.05 132.02 58.87 127.09 55.43 113.81 54.75 108.11 52.02 106.68 58.41 105.87 65.69 103.71 70.19 98.26 68.23 96.96 65.89 96.4 62.91 95.41 60.29 92.7 59.05 89.38 59.86 86.66 61.72 83.93 62.94 80.68 61.87 77.67 55.18 82.03 37.42 81.92 30.7 79.74 29.68 76.17 26.4 74.52 25.4 71.66 25.53 70.01 26.73 68.51 27.24 66.12 25.28 64.95 21.94 64.42 7.57 68.21 3.57 72.89 1.2 77.67 1 82 3.49 94.32 15.63 109.48 27.26 111.72 28.15 118.35 29.6 125.57 32.43 126.48 32.96 128.72 32.2 132.11 29.43 133.73 28.64 137.17 28.61 142.29 30.14 145.24 30.42 147.35 29.76 151.24 27.21 153.43 26.8 157.83 28.33 171.68 38.08 176.23 42.33 180.47 51.46 183.43 56.07 187.23 58.72 191.98 60.17 202.21 60.88 209.87 59.05 215.68 55.69 221.66 53.22 230 54.08 237.51 56.43 243.98 57.55 Z" id="MWI-1873" data-name="Chitipa"/>
<path d="M 289.51 820.5 286.18 839.93 285.95 847.63 286.6 850.1 287.71 852.75 288.93 854.11 290.66 854.78 292.76 854.87 306.7 853.22 308.69 853.27 310.86 853.57 313.19 854.26 316.21 856.08 318.4 858.79 320.92 862.99 329.12 872.35 330.34 875.52 330.61 876.86 330.23 877.61 327.75 878.79 318.04 886.54 317.28 887.46 316.21 889.24 314.41 893.69 313.76 894.67 310.63 897.62 292.76 906.24 290.84 907.87 288.47 910.27 288.01 912.1 286.71 914.76 285.15 916.12 282.82 917.46 279.16 918.95 275.87 921.48 274.37 923.29 271.24 928.82 266.32 934.42 263.57 936.7 261.19 938.01 259.4 938.7 258.56 939.95 257.95 941.77 257.07 942.78 255.88 943.35 251.76 944.14 247.59 945.5 243.96 947.6 240.03 949.29 236.29 949.62 232.46 953.44 230.28 958.81 229.33 960.57 228.34 961.81 226.16 963.35 222.61 965.2 221.54 966.19 218.82 971.12 216.83 972.6 215.04 975.23 213.44 976.18 211.95 976.73 210.38 976.64 208.97 976.41 207.78 976.04 206.99 975.7 206.17 975.2 204.38 973.75 203.54 972.91 202.39 972.1 200.98 971.57 198.77 971.65 197.58 972.4 196.9 973.52 196.9 974.86 197.32 976 197.89 977.11 199.22 979.18 199.8 980.29 200.22 981.47 200.26 982.85 200.03 984.27 198.12 989.79 197.28 991.38 194.22 996.22 192.46 1001.75 187.88 1010.32 185.85 1012.91 184.48 1013.49 182.19 1014.17 180.58 1015.17 178.4 1020.38 178.13 1022.2 178.55 1023.51 179.2 1024.53 179.71 1026.21 179.78 1028.46 179.32 1032.55 178.55 1034.58 177.63 1035.97 170.38 1041.87 165.99 1046.71 156.05 1035.78 149.25 1031.86 146.76 1029.57 143.33 1025.52 134.54 1017.49 131.6 1013.89 129.38 1009.83 126.75 1002.86 122.69 994.58 121.55 991.47 121.28 988.46 122.39 983.38 122.31 980.82 121.13 977.21 119.64 975.66 118.26 974.89 64.01 978.16 60.63 978.54 64.11 964.61 68.6 955.02 74.72 947.41 82.13 945.3 83.45 941.86 82.69 939.01 78.74 933.35 76.83 929.18 75.8 925.05 75.51 920.78 79.35 893.53 86.1 878.49 87.24 871.64 85.14 865.66 79.1 860.19 72.46 856.09 70.85 853.42 69.4 835.35 70.27 831.05 73.58 824.36 82.46 811.38 90.02 796.65 92.61 793.31 96.1 790.28 98.11 789.44 99.81 789.83 101.14 791.17 102.18 793.11 103.91 794.71 106.05 793.72 108.29 791.86 110.25 790.74 114.14 789.72 116 789.52 118.35 790.16 120.07 791.86 123 797.31 124.04 798.55 126.56 798.45 127.73 797.23 128.54 795.55 130.02 794.1 131.27 793.29 132.36 792.4 133.86 791.51 136.34 790.72 139.79 788.38 143.89 779.93 146.71 776.77 148.7 775.93 155.24 774.86 158.32 775.09 160.71 776.26 162.77 777.53 164.73 778.17 170.18 776.95 175.8 773.46 180.85 768.48 184.71 762.8 187.51 760.28 194.97 757.33 197.15 754.4 197.35 748.35 198.47 746.51 202.21 745.85 204 741.78 210.43 737.95 214.09 738.78 225.13 741.03 226.73 742.4 228.07 744.11 227.92 745.64 227.54 747.05 226.92 748.26 226.2 749.25 223.76 751.96 223.03 752.98 222.38 754.14 221.89 755.43 221.26 758.4 221.42 771.72 221.85 774.29 222.42 776.11 225.55 779.85 227.31 782.94 227.88 784.99 227.99 786.75 227.46 787.88 226.66 788.76 225.7 789.52 224.71 791.51 223.99 794.51 223.79 801.61 224.67 804.23 225.86 805.44 228.79 805.12 230.4 805.22 231.96 805.45 233.3 805.93 234.34 806.63 235.98 808.42 240.3 814.68 242.97 817.65 244.23 818.76 245.53 819.59 246.75 820.16 249.55 820.92 252.79 821.45 256.11 821.67 257.68 821.6 259.01 821.31 261.55 820.45 262.64 819.89 264.64 818.52 265.52 817.73 266.47 817.14 267.62 816.72 270.48 816.61 271.74 816.36 273.53 816.85 275.59 817.98 280.99 822.59 282.48 823.58 283.62 823.58 284.54 822.98 285.45 822.25 287.44 821.08 289.51 820.5 Z" id="MWI-1899" data-name="Kasungu"/>
<path d="M 344.02 418.53 341.43 436.17 335.51 455.86 335.05 460.24 335.74 463.08 339.36 465.1 341.08 466.32 342.38 468.18 348.08 490.5 349.11 492 352.47 495.75 355.45 504.94 355.26 509.09 354.23 511.15 352.09 512.22 347.58 513.36 344.14 515.07 343.18 515.39 342.04 515.04 339.48 513.87 338.03 513.49 336.81 513.29 332.99 513.53 330.42 515.27 328.09 518.21 325.23 524.92 323.36 528.43 321.34 531.01 319.24 532.16 316.95 532.91 314.95 533 313.23 532.79 303.46 530.13 302.11 529.94 300.2 529.94 298.29 530.46 296.35 531.58 291.12 536.56 289.59 537.51 288.16 538.17 285.76 539.65 283.05 541.75 279.46 545.83 277.67 548.49 276.48 551.23 273.68 564.73 273.07 569.87 273 572.76 273.23 575.29 273.68 577.9 274.79 580.32 276.25 582.34 279.19 584.77 279.96 585.53 280.53 586.68 280.91 588.24 281.45 589.92 282.48 591.44 285.91 594.3 286.87 596.4 286.87 600.55 285.3 604.96 284.23 609.95 282.02 613.39 281.41 615.52 281.29 617.84 282.74 623.6 283.24 627.22 283.09 632.2 283.43 635.6 284.39 638.65 285.45 641.07 286.1 643.97 285.19 646.25 280.11 652.97 278.24 654.88 275.75 656.09 273.07 656.66 270.4 656.98 267.88 657.78 265.59 659.46 263.15 662.22 260.73 666.15 260.04 668.56 260.39 670.57 261.88 671.98 263.8 672.98 267.96 674.33 269.37 675.22 270.55 676.55 271.66 678.38 272.96 679.77 274.64 680.76 276.66 681.24 291.38 681.09 275.49 694.21 271.2 700.9 271.13 703.02 272.08 710 273.15 712.91 275.14 714.88 277.93 715.99 285.76 716.66 289.28 718.69 292.53 721.93 296.23 729.4 298.71 733.09 303.31 738.17 304.07 741.9 304.63 747.35 305.82 750.97 307.47 753.87 309.37 756.45 311.55 758.81 313.96 760 320.38 759.8 323.55 760.33 332.53 764.8 335.36 765.79 338.49 766.47 341.54 766.82 344.56 766.52 350.26 765.07 352.55 765.1 355.07 766.31 355.83 767.38 355.98 768.31 355.64 768.95 355.22 769.48 351.48 772.98 349.38 775.35 347.62 780.88 346.78 782.74 345.52 784.09 344.21 784.72 339.63 785.3 334.36 786.52 332.19 787.36 330.15 788.53 326.26 791.65 323.63 793.26 315.48 796.11 308.23 797.23 306.24 798.02 304.53 799.17 303.1 800.53 301.73 802.09 295.12 813.11 289.51 820.5 287.44 821.08 285.45 822.25 284.54 822.98 283.62 823.58 282.48 823.58 280.99 822.59 275.59 817.98 273.53 816.85 271.74 816.36 270.48 816.61 267.62 816.72 266.47 817.14 265.52 817.73 264.64 818.52 262.64 819.89 261.55 820.45 259.01 821.31 257.68 821.6 256.11 821.67 252.79 821.45 249.55 820.92 246.75 820.16 245.53 819.59 244.23 818.76 242.97 817.65 240.3 814.68 235.98 808.42 234.34 806.63 233.3 805.93 231.96 805.45 230.4 805.22 228.79 805.12 225.86 805.44 224.67 804.23 223.79 801.61 223.99 794.51 224.71 791.51 225.7 789.52 226.66 788.76 227.46 787.88 227.99 786.75 227.88 784.99 227.31 782.94 225.55 779.85 222.42 776.11 221.85 774.29 221.42 771.72 221.26 758.4 221.89 755.43 222.38 754.14 223.03 752.98 223.76 751.96 226.2 749.25 226.92 748.26 227.54 747.05 227.92 745.64 228.07 744.11 226.73 742.4 225.13 741.03 214.09 738.78 210.43 737.95 211.48 737.33 213.69 733.36 213.31 728.34 210.49 727.3 206.36 727.43 196.74 724.12 178.6 729.52 169.95 726.54 165.19 719.23 160.84 702.08 157.76 694.04 154.91 690.66 147.99 684.14 146.13 680.15 145.77 671.85 146.66 663.68 156.35 641.19 158.65 628.62 160.06 624.7 160.89 620.85 159.92 617.34 157.15 611.95 157.12 608 160.38 598.71 161.22 589.71 159.01 558.15 158.42 549.7 156.97 545.73 153.64 541.99 149.61 541.3 145.29 541.84 141.19 541.81 137.07 540.31 136.25 538.4 139.87 530.74 141.47 526.14 141.75 523.11 140.61 502.14 142.92 498.65 149.19 503.74 151.27 500.38 151.32 497.23 150.84 494.05 151.24 490.59 152.36 489.26 156.13 487.66 157.5 486.52 157.83 485.01 156.98 482.24 157.35 480.64 174.63 454.4 178.01 447.5 180.15 440.15 172.26 426.51 166.78 421.09 162.22 414.91 158.67 408.09 156.28 400.68 155.54 393.44 160.25 395.3 171.6 399.85 180.66 401.34 188.94 401.65 191.01 402.56 192.34 404.05 193.37 408.33 194.03 412.63 193.98 415.03 193.5 417.43 192.66 419.26 191.92 421.28 191.65 423.29 192.51 425.8 194.49 426.34 196.67 425.66 201.67 422.16 205.98 418.52 209.66 414.77 211.07 412.93 214.16 407.63 215.5 406 217.25 404.73 220.55 404.01 223.07 404.78 225.51 406.56 228.07 408.98 230.63 410.92 233.99 412.69 236.94 413.28 239.61 413.24 249 411.83 251.15 412.2 252.64 413.32 254.62 417.35 255.92 419.09 258.21 420.52 260.43 420.71 262.39 420.44 264.37 419.74 266.05 418.57 267.58 416.85 268.38 415.03 268.61 413.61 268.19 412.48 267.54 411.45 266.78 409.97 266.32 408.48 266.78 406.98 268.04 406.15 277.02 403.8 284.58 402.92 307.81 406.18 311.28 405.73 313.38 404.33 315.06 393.62 315.6 391.94 316.51 390.64 318.27 391.21 334.06 403.68 337.57 407.74 340.66 412.08 344.02 418.53 Z" id="MWI-1900" data-name="Mzimba"/>
<path d="M 482.25 391.14 477.34 397.35 476.12 403.56 477.19 408.59 480.47 418.7 481.18 424.73 483.04 429.05 494.77 439 496.07 441.42 496.83 443.59 498.01 445.14 502.46 446.23 504.42 447.58 505.94 449.49 506.56 451.7 507.34 457.33 509.53 462.11 512.74 465.72 516.63 467.91 516.63 469.44 515.18 470.25 513.07 471.88 511.59 472.65 517.04 482.67 518.62 484.56 520.25 484.38 523.38 481.68 525.21 481.04 527.22 481.3 537.86 484.84 543.81 487.92 548.42 492.01 550.27 497.08 551.32 498.93 555.92 502.7 558.04 509.37 560.35 511.96 562.67 513.92 563.71 515.73 564.27 517.21 565.44 519.42 566.66 522.32 567.22 525.91 567.22 538.66 567.63 540.8 490.47 539.93 481.97 541.97 479.61 545.12 479.63 549.6 481.29 560.29 480.8 570.24 478.95 579.96 468.94 604.16 450.19 632.03 423.7 671.37 418.46 683.81 417.29 694.91 417.67 696.26 417.62 696.26 337.19 696.2 319.12 691.99 309.11 687.7 305.79 685.5 300.54 680.91 298.14 680.17 296 680.07 291.38 681.09 276.66 681.24 274.64 680.76 272.96 679.77 271.66 678.38 270.55 676.55 269.37 675.22 267.96 674.33 263.8 672.98 261.88 671.98 260.39 670.57 260.04 668.56 260.73 666.15 263.15 662.22 265.59 659.46 267.88 657.78 270.4 656.98 273.07 656.66 275.75 656.09 278.24 654.88 280.11 652.97 285.19 646.25 286.1 643.97 285.45 641.07 284.39 638.65 283.43 635.6 283.09 632.2 283.24 627.22 282.74 623.6 281.29 617.84 281.41 615.52 282.02 613.39 284.23 609.95 285.3 604.96 286.87 600.55 286.87 596.4 285.91 594.3 282.48 591.44 281.45 589.92 280.91 588.24 280.53 586.68 279.96 585.53 279.19 584.77 276.25 582.34 274.79 580.32 273.68 577.9 273.23 575.29 273 572.76 273.07 569.87 273.68 564.73 276.48 551.23 277.67 548.49 279.46 545.83 283.05 541.75 285.76 539.65 288.16 538.17 289.59 537.51 291.12 536.56 296.35 531.58 298.29 530.46 300.2 529.94 302.11 529.94 303.46 530.13 313.23 532.79 314.95 533 316.95 532.91 319.24 532.16 321.34 531.01 323.36 528.43 325.23 524.92 328.09 518.21 330.42 515.27 332.99 513.53 336.81 513.29 338.03 513.49 339.48 513.87 342.04 515.04 343.18 515.39 344.14 515.07 347.58 513.36 352.09 512.22 354.23 511.15 355.26 509.09 355.45 504.94 352.47 495.75 349.11 492 348.08 490.5 342.38 468.18 341.08 466.32 339.36 465.1 335.74 463.08 335.05 460.24 335.51 455.86 341.43 436.17 344.02 418.53 378.07 398.86 387.97 391.13 481.03 391.14 482.16 391.14 482.25 391.14 Z" id="MWI-1901" data-name="Nkhata Bay"/>
<path d="M 417.67 696.26 423.77 717.48 438.25 767.69 451.87 815.04 455.08 842.63 459.12 877.16 462.53 906.63 465.38 931.19 463.78 952.04 464.39 972.22 472.48 990.11 472.79 990.6 473.61 991.4 473.59 991.4 410.81 991.45 389.53 1003.4 379.41 1007.62 373.36 1008.83 370.46 1009.13 363.02 1012.57 360.88 980 355.83 961.01 356.1 957.31 357.09 954.08 358.08 951.84 358.32 949.85 356.25 936.96 355.52 934.42 354.19 932.52 351.4 932.09 349.11 932.03 347.01 931.75 345.6 930.58 344.63 928.19 344.61 925.78 345.01 923.6 345.62 921.58 345.98 919.57 345.45 918.31 344.25 918.22 333.87 921.33 332.91 921.96 332.34 922.94 330.66 929.2 329.81 931.18 328.66 932.59 326.95 933.96 325 934.36 323.21 933.78 320.88 932.21 319.24 930.68 317.89 929.06 318.17 924.9 317.94 922.54 315.21 917.85 313.84 915.91 312.62 914.55 310.86 909.72 310.63 897.62 313.76 894.67 314.41 893.69 316.21 889.24 317.28 887.46 318.04 886.54 327.75 878.79 330.23 877.61 330.61 876.86 330.34 875.52 329.12 872.35 320.92 862.99 318.4 858.79 316.21 856.08 313.19 854.26 310.86 853.57 308.69 853.27 306.7 853.22 292.76 854.87 290.66 854.78 288.93 854.11 287.71 852.75 286.6 850.1 285.95 847.63 286.18 839.93 289.51 820.5 295.12 813.11 301.73 802.09 303.1 800.53 304.53 799.17 306.24 798.02 308.23 797.23 315.48 796.11 323.63 793.26 326.26 791.65 330.15 788.53 332.19 787.36 334.36 786.52 339.63 785.3 344.21 784.72 345.52 784.09 346.78 782.74 347.62 780.88 349.38 775.35 351.48 772.98 355.22 769.48 355.64 768.95 355.98 768.31 355.83 767.38 355.07 766.31 352.55 765.1 350.26 765.07 344.56 766.52 341.54 766.82 338.49 766.47 335.36 765.79 332.53 764.8 323.55 760.33 320.38 759.8 313.96 760 311.55 758.81 309.37 756.45 307.47 753.87 305.82 750.97 304.63 747.35 304.07 741.9 303.31 738.17 298.71 733.09 296.23 729.4 292.53 721.93 289.28 718.69 285.76 716.66 277.93 715.99 275.14 714.88 273.15 712.91 272.08 710 271.13 703.02 271.2 700.9 275.49 694.21 291.38 681.09 296 680.07 298.14 680.17 300.54 680.91 305.79 685.5 309.11 687.7 319.12 691.99 337.19 696.2 417.62 696.26 417.67 696.26 Z" id="MWI-1902" data-name="Nkhotakota"/>
<path d="M 482.99 296.76 483.86 297.01 484.54 299.88 484.34 304.62 485 306.07 490.29 312.25 492.64 317.21 492.84 322.58 489.58 327.77 491.13 330.04 491.57 331.13 492.61 332.53 494.21 333.68 495.69 335.43 496.33 338.61 493.32 340.83 491.82 342.91 492.76 349.35 489.58 364.75 489.58 375.67 489.05 378.21 484.52 388.26 482.25 391.14 482.16 391.14 481.03 391.14 387.97 391.13 378.07 398.86 344.02 418.53 340.66 412.08 337.57 407.74 334.06 403.68 318.27 391.21 316.51 390.64 315.6 391.94 315.06 393.62 313.38 404.33 311.28 405.73 307.81 406.18 284.58 402.92 277.02 403.8 268.04 406.15 266.78 406.98 266.32 408.48 266.78 409.97 267.54 411.45 268.19 412.48 268.61 413.61 268.38 415.03 267.58 416.85 266.05 418.57 264.37 419.74 262.39 420.44 260.43 420.71 258.21 420.52 255.92 419.09 254.62 417.35 252.64 413.32 251.15 412.2 249 411.83 239.61 413.24 236.94 413.28 233.99 412.69 230.63 410.92 228.07 408.98 225.51 406.56 223.07 404.78 220.55 404.01 217.25 404.73 215.5 406 214.16 407.63 211.07 412.93 209.66 414.77 205.98 418.52 201.67 422.16 196.67 425.66 194.49 426.34 192.51 425.8 191.65 423.29 191.92 421.28 192.66 419.26 193.5 417.43 193.98 415.03 194.03 412.63 193.37 408.33 192.34 404.05 191.01 402.56 188.94 401.65 180.66 401.34 171.6 399.85 160.25 395.3 155.54 393.44 154.78 386 152.92 378.24 149.36 375.23 145.98 375.72 142.9 375.72 140.95 374.37 141.17 370.83 143.34 366.5 145.64 365.72 148.21 366.4 151.22 366.48 154.84 364.29 159.46 357.37 162.47 354.8 165.8 353.68 172.01 352.48 175.43 351.13 178.83 350.55 186.98 352.13 190.76 352.33 193.99 350.88 198.47 346.48 202.21 345.79 207.25 342.74 209.96 338.46 213.97 328.56 225.96 315.28 229.24 313.14 232.4 311.74 242.04 304.84 245.86 301.41 249.9 295.43 249.82 294.45 256.8 291.7 317.43 264.64 352.32 293.56 357.59 296.79 359.24 296.68 362.29 295.62 364.66 295.05 366.91 295.15 372.29 296.88 375.51 297.36 481.91 296.96 482.99 296.76 Z" id="MWI-1903" data-name="Rumphi"/>
<path d="M 770.51 1436.52 770.44 1436.51 706.99 1435.45 706.31 1435.84 705.35 1436.59 704.84 1437.09 702.4 1439.11 699.84 1440.64 696.75 1442.01 691.48 1443.6 688.23 1444.03 685.48 1443.96 680.94 1442.65 668.36 1437.58 663.52 1436.57 660.6 1436.72 657.89 1437.58 656.29 1438.7 651.59 1443.39 649.14 1444.82 646.89 1444.95 643.76 1444.38 639.75 1443.04 635.63 1442.23 633.13 1442.62 631.15 1443.92 629.12 1446.01 626.15 1448.07 623.7 1448.02 621.91 1446.82 620.94 1445.18 618.84 1441.13 620.87 1439.3 622.79 1435.26 623.59 1430.11 627.18 1420.9 628.67 1414.43 633.02 1405.76 633.54 1403.31 633.88 1399.51 634.56 1397.35 636.12 1394.34 643.63 1383.04 647.31 1380.54 649.92 1378.27 651.53 1372.93 653.96 1353.07 653.4 1341.47 650.64 1330.82 644.79 1324.76 644.06 1324.3 644.41 1322.33 644.29 1321.83 643.15 1318.74 642.92 1317.42 642.8 1316.12 642.96 1314.76 643.87 1312.5 645.13 1310.56 645.59 1309.44 646.01 1306.91 646.51 1305.94 647.23 1305.54 648.91 1305.75 650.07 1306.11 651.33 1306.72 652.85 1307.71 657.02 1311.35 659.69 1314.25 662.32 1318.53 663.78 1319.7 665.62 1320.47 668.29 1320.97 681.01 1325.23 684.56 1325.91 688.38 1325.23 691.94 1323.39 698.43 1316.77 702.13 1314.82 704.74 1313.95 707.15 1312.58 709.82 1309.29 710.93 1305.99 711.23 1302.56 710.01 1294.29 710.12 1292.66 710.7 1291.39 714.48 1287.39 717.92 1285.23 723.19 1283.21 735.38 1280.36 741.41 1279.59 748.72 1279.32 754.25 1277.38 761.11 1272 761.14 1271.97 770.09 1282.99 782.08 1294.8 784.95 1298.38 786.38 1302.58 788.9 1354.09 790.53 1356.28 793.71 1356.76 799 1356.61 789.76 1377.83 782.99 1393.41 771.06 1420.61 769.43 1426.77 769.51 1432.52 770.51 1436.52 Z" id="MWI-1904" data-name="Machinga"/>
<path d="M 511.34 1157.47 514.39 1202.57 514.36 1212.89 494.44 1224.76 475.92 1238.32 461.9 1243.95 458.04 1244.77 455.48 1244.52 452.61 1242.04 448.56 1240.22 446.77 1239.16 445.35 1238.06 443.64 1237.32 441.54 1236.75 437.78 1236.38 431.98 1235.3 430.61 1235.35 429.46 1235.66 426.85 1237.59 426.82 1237.64 423.79 1240.08 421.74 1237.21 414.84 1233.62 412.68 1233.98 410.82 1235.15 409.04 1236.57 407.16 1237.77 405.2 1238.15 401.25 1237.72 399.4 1237.95 375.04 1246.45 357.1 1246.93 349.21 1250.19 347.41 1252.71 344.56 1258.92 342.62 1260.16 316.72 1256.78 309.51 1256.75 302.77 1258.43 288.47 1266.93 281.47 1269.43 274.52 1268.74 261.28 1258.81 256.06 1260.42 252.33 1265.96 250.23 1273.12 250.21 1281.61 249.42 1286.02 247 1287.7 242.68 1286.4 239.75 1283.85 237.66 1280.57 236.17 1276.57 240.45 1274.37 242.66 1271.12 245.14 1269.55 247.28 1267.61 252.83 1259.27 253.59 1256.68 254.32 1245.98 255.04 1242.13 256.3 1238.58 258.06 1235.68 260.27 1233.3 263.45 1231.39 280.49 1223.34 283.32 1221.25 286.26 1218.39 291.5 1214.7 294.48 1213.85 298.86 1214.19 301.23 1213.54 307.16 1211.19 309.45 1210.86 311.78 1210.81 313.76 1209.87 315.79 1207.75 317.02 1203.66 318.17 1192.29 319.31 1188.9 321.22 1186.42 324.73 1184.53 334.14 1183.31 336.73 1182.05 339.67 1179.57 342.72 1176.44 345.55 1172.55 349.3 1169.73 353.12 1166.07 355.6 1159.1 357.13 1156.11 359.19 1153.02 362.87 1149.05 365.96 1144.74 369.51 1141.21 371.76 1138.18 378.49 1125.84 379.44 1122.86 380.59 1120.43 381.85 1118.76 384.83 1117.22 391.1 1112.9 395.6 1108.69 399.96 1101.5 410.77 1116.47 425.98 1130.86 429.39 1134.87 437.63 1149.35 445.43 1160.62 449.4 1164.63 452.34 1166.39 453.41 1165.96 454.71 1164.92 459.91 1159.52 461.44 1158.27 462.77 1157.34 463.8 1156.76 465.52 1156.17 511.34 1157.47 Z" id="MWI-1907" data-name="Dedza"/>
<path d="M 358.86 1016.26 362.64 1034.43 362.56 1037.3 361.95 1041.17 360.69 1043.08 359.77 1044.8 360.04 1045.64 363.06 1047.47 364.66 1048.68 375.74 1059.36 377.8 1060.98 379.86 1062.21 381.74 1062.71 383.83 1062.71 386.21 1062.24 394.96 1057.65 396.63 1057.06 398.05 1057.19 399.73 1058.4 400.46 1060.84 400.46 1063.52 400.18 1065.88 400.16 1067.41 400.92 1069.46 402.3 1070.79 404.63 1072 405.58 1073.2 405.92 1074.11 405.66 1075.71 405.16 1076.93 404.51 1077.94 403.25 1078.84 402.07 1079.48 398.51 1080.65 396.1 1081.19 394.54 1081.76 393.54 1082.32 393.08 1082.79 392.82 1083.1 391.79 1084.15 384.98 1087.87 382.46 1087.89 373.57 1086.88 370.39 1087.37 367.56 1088.62 364.58 1090.32 360.16 1092.21 355.03 1093.42 342.3 1094.75 338.64 1092.82 336.5 1090.9 335.2 1088.95 334.44 1088 332.46 1086.38 329.43 1084.5 327.82 1083.86 322.86 1082.53 315.63 1079.66 309.64 1078.3 305.79 1078.02 302.49 1078.17 290.66 1079.89 281.98 1080.08 277.51 1078.67 274.64 1076.24 273.53 1073.12 272.65 1067.28 271.05 1061.94 270.55 1059.56 270.33 1057.15 269.75 1055.04 268.46 1054.43 266.2 1054.62 227.31 1065.26 212.79 1065.11 201.29 1059.36 198.88 1055.81 197.93 1052.27 197.51 1048.85 193.42 1030.68 193.42 1026.9 194.95 1018.13 194.95 1016.23 193.83 1014.52 192.61 1013.4 187.88 1010.32 192.46 1001.75 194.22 996.22 197.28 991.38 198.12 989.79 200.03 984.27 200.26 982.85 200.22 981.47 199.8 980.29 199.22 979.18 197.89 977.11 197.32 976 196.9 974.86 196.9 973.52 197.58 972.4 198.77 971.65 200.98 971.57 202.39 972.1 203.54 972.91 204.38 973.75 206.17 975.2 206.99 975.7 207.78 976.04 208.97 976.41 210.38 976.64 211.95 976.73 213.44 976.18 215.04 975.23 216.83 972.6 218.82 971.12 221.54 966.19 222.61 965.2 226.16 963.35 228.34 961.81 229.33 960.57 230.28 958.81 232.46 953.44 236.29 949.62 238.24 958.35 239.46 959.42 241.33 960.78 244.19 962.31 247.66 964.94 254.17 971.29 257.64 976.22 260.5 981.26 265.9 994.86 266.62 998.18 267.27 1009.25 268.04 1013.49 269.41 1015.38 270.71 1016.34 272.46 1016.54 285.23 1016.76 298.64 1012.24 301.42 1011.7 305.25 1011.77 309.11 1012.56 315.29 1014.81 318.82 1015.53 325.76 1014.96 329.58 1015.08 343.6 1020.18 346.06 1020.6 348.12 1020.61 349.8 1020.23 356.63 1017.44 358.86 1016.26 Z" id="MWI-1908" data-name="Dowa"/>
<path d="M 391.79 1084.15 391.29 1090.94 388.54 1093.65 381.74 1096.42 378.41 1098.65 376.81 1100.35 375.78 1102.25 375.59 1103.81 376.01 1105.47 377.27 1106.6 379.41 1106.79 381.96 1105.87 390.49 1101.62 392.44 1101.05 394.34 1100.67 397.44 1100.55 399.96 1101.5 395.6 1108.69 391.1 1112.9 384.83 1117.22 381.85 1118.76 380.59 1120.43 379.44 1122.86 378.49 1125.84 371.76 1138.18 369.51 1141.21 365.96 1144.74 362.87 1149.05 359.19 1153.02 357.13 1156.11 355.6 1159.1 353.12 1166.07 349.3 1169.73 345.55 1172.55 342.72 1176.44 339.67 1179.57 336.73 1182.05 334.14 1183.31 324.73 1184.53 321.22 1186.42 319.31 1188.9 318.17 1192.29 317.02 1203.66 315.79 1207.75 313.76 1209.87 311.78 1210.81 309.45 1210.86 307.16 1211.19 301.23 1213.54 298.86 1214.19 294.48 1213.85 291.5 1214.7 286.26 1218.39 283.32 1221.25 280.49 1223.34 263.45 1231.39 260.27 1233.3 258.06 1235.68 256.3 1238.58 255.04 1242.13 254.32 1245.98 253.59 1256.68 252.83 1259.27 247.28 1267.61 245.14 1269.55 242.66 1271.12 240.45 1274.37 236.17 1276.57 232.68 1267.26 230.59 1264.16 227.76 1261.99 221.15 1258.99 218.32 1256.83 216.24 1253.65 214.98 1250.57 213.36 1247.64 210.08 1244.84 199.7 1240.29 196.51 1237.79 192.04 1231.97 179.58 1207.33 175.25 1201.45 171.83 1195.01 172.44 1190.5 172.4 1190.47 169.54 1178.23 165.84 1168.13 165.3 1164.71 165.68 1161.74 167.63 1156.29 168.09 1152.32 166.47 1144.82 166.37 1142.58 166.64 1140.94 167.44 1138.94 167.97 1135.71 167.44 1132.73 166.37 1130.19 161.47 1122.87 157.69 1113.62 156.74 1111.9 155.1 1110.07 153.3 1108.66 151.15 1106.52 148.94 1103.75 146.5 1099.03 146.19 1096.85 146.54 1095.22 148.14 1093.35 148.83 1091.81 149.4 1089.79 149.7 1083.56 150.09 1081.72 150.7 1080.55 152.2 1078.56 153.04 1077.22 153.76 1075.54 154.18 1072.74 153.99 1070.83 153.42 1069 153.46 1067.59 153.92 1066.44 154.56 1065.35 157.88 1061.72 158.5 1060.54 159.3 1057.71 160.4 1055.28 161.89 1053.26 162.73 1052.34 164.34 1050.24 165.99 1046.71 170.38 1041.87 177.63 1035.97 178.55 1034.58 179.32 1032.55 179.78 1028.46 179.71 1026.21 179.2 1024.53 178.55 1023.51 178.13 1022.2 178.4 1020.38 180.58 1015.17 182.19 1014.17 184.48 1013.49 185.85 1012.91 187.88 1010.32 192.61 1013.4 193.83 1014.52 194.95 1016.23 194.95 1018.13 193.42 1026.9 193.42 1030.68 197.51 1048.85 197.93 1052.27 198.88 1055.81 201.29 1059.36 212.79 1065.11 227.31 1065.26 266.2 1054.62 268.46 1054.43 269.75 1055.04 270.33 1057.15 270.55 1059.56 271.05 1061.94 272.65 1067.28 273.53 1073.12 274.64 1076.24 277.51 1078.67 281.98 1080.08 290.66 1079.89 302.49 1078.17 305.79 1078.02 309.64 1078.3 315.63 1079.66 322.86 1082.53 327.82 1083.86 329.43 1084.5 332.46 1086.38 334.44 1088 335.2 1088.95 336.5 1090.9 338.64 1092.82 342.3 1094.75 355.03 1093.42 360.16 1092.21 364.58 1090.32 367.56 1088.62 370.39 1087.37 373.57 1086.88 382.46 1087.89 384.98 1087.87 391.79 1084.15 Z" id="MWI-1909" data-name="Lilongwe"/>
<path d="M 761.14 1271.97 761.11 1272 754.25 1277.38 748.72 1279.32 741.41 1279.59 735.38 1280.36 723.19 1283.21 717.92 1285.23 714.48 1287.39 710.7 1291.39 710.12 1292.66 710.01 1294.29 711.23 1302.56 710.93 1305.99 709.82 1309.29 707.15 1312.58 704.74 1313.95 702.13 1314.82 698.43 1316.77 691.94 1323.39 688.38 1325.23 684.56 1325.91 681.01 1325.23 668.29 1320.97 665.62 1320.47 663.78 1319.7 662.32 1318.53 659.69 1314.25 657.02 1311.35 652.85 1307.71 651.33 1306.72 650.07 1306.11 648.91 1305.75 647.23 1305.54 646.51 1305.94 646.01 1306.91 645.59 1309.44 645.13 1310.56 643.87 1312.5 642.96 1314.76 642.8 1316.12 642.92 1317.42 643.15 1318.74 644.29 1321.83 644.41 1322.33 644.06 1324.3 576.36 1324.27 573.95 1324.23 565.67 1318.22 558.18 1315.01 554.97 1312.09 526.35 1274.88 519.51 1255.11 516 1237.86 514.36 1212.89 514.39 1202.57 511.34 1157.47 542.83 1019.14 550.35 1023.68 575.49 1046.15 597.05 1065.41 618.47 1090.4 644.97 1121.22 667.46 1147.4 688.56 1171.96 705.07 1202.93 726.4 1229.19 752.25 1261.03 761.14 1271.97 Z" id="MWI-1910" data-name="Mangochi"/>
<path d="M 165.99 1046.71 164.34 1050.24 162.73 1052.34 161.89 1053.26 160.4 1055.28 159.3 1057.71 158.5 1060.54 157.88 1061.72 154.56 1065.35 153.92 1066.44 153.46 1067.59 153.42 1069 153.99 1070.83 154.18 1072.74 153.76 1075.54 153.04 1077.22 152.2 1078.56 150.7 1080.55 150.09 1081.72 149.7 1083.56 149.4 1089.79 148.83 1091.81 148.14 1093.35 146.54 1095.22 146.19 1096.85 146.5 1099.03 148.94 1103.75 151.15 1106.52 153.3 1108.66 155.1 1110.07 156.74 1111.9 157.69 1113.62 161.47 1122.87 166.37 1130.19 167.44 1132.73 167.97 1135.71 167.44 1138.94 166.64 1140.94 166.37 1142.58 166.47 1144.82 168.09 1152.32 167.63 1156.29 165.68 1161.74 165.3 1164.71 165.84 1168.13 169.54 1178.23 172.4 1190.47 172.44 1190.5 171.83 1195.01 171.14 1193.72 169.37 1192.12 167.19 1191.28 163.66 1189.04 161.6 1186.77 155.44 1176.87 154.37 1172.44 155.62 1160.2 152.9 1153.21 147.37 1148.98 133.81 1141.65 129.61 1136.72 121.95 1122.62 118.44 1119.77 115.97 1121.14 113.61 1127.38 111.38 1129.51 102.84 1131.96 99.41 1133.74 96.07 1137.4 88.37 1149.62 83.86 1150.66 78.11 1143.43 76.83 1139.69 77.7 1127.27 78.16 1125.88 78.06 1124.58 76.66 1122.49 74.67 1121.5 70.22 1121.73 68.18 1120.07 66.68 1116.2 66.15 1112.54 65.17 1108.8 52.91 1094.07 49.29 1090.99 41.74 1088.26 32.66 1086.48 25.56 1083.38 24.16 1076.74 26.8 1073.99 35.85 1069.79 37.95 1067.12 36.58 1064.16 27.24 1051.29 20.72 1048.46 11.69 1048.39 3.9 1046.66 1 1038.84 2.07 1033.73 4.44 1031.82 7.97 1032.15 12.55 1033.68 15.66 1033.19 22.3 1027.65 25.6 1025.59 34.67 1024.26 37.87 1022.07 38.97 1016.5 38.82 1012.02 39.35 1008.15 41.41 1005.48 45.94 1004.8 52.94 1001.13 57.34 991.69 60.63 978.54 64.01 978.16 118.26 974.89 119.64 975.66 121.13 977.21 122.31 980.82 122.39 983.38 121.28 988.46 121.55 991.47 122.69 994.58 126.75 1002.86 129.38 1009.83 131.6 1013.89 134.54 1017.49 143.33 1025.52 146.76 1029.57 149.25 1031.86 156.05 1035.78 165.99 1046.71 Z" id="MWI-1911" data-name="Mchinji"/>
<path d="M 573.95 1324.23 572.66 1327.32 573.19 1330.91 574.22 1335.03 574.34 1337.41 573.88 1340.58 569.72 1354.69 568.65 1356.89 556.04 1373.7 555.35 1375.38 555.12 1376.51 555.85 1378.75 556 1380.5 556 1382.6 537.7 1461.71 534.94 1464.8 533.76 1464.83 532.19 1464.46 531.66 1463.58 531.58 1462.42 532.19 1459.85 532.27 1458.46 532.04 1455.99 531.51 1453.26 530.32 1449.81 528.34 1447.79 526.28 1446.04 523.33 1444.79 519.66 1443.69 509.91 1441.88 506.44 1440.68 504.46 1440.22 502.62 1440.1 498.54 1440.75 497.39 1440.68 482.79 1436.25 471.18 1434.05 467.78 1433.75 465.13 1414.91 465.71 1410.71 467.98 1408.01 467.34 1405.21 465.79 1402.13 465.23 1398.65 466.68 1395.19 471.69 1388.42 473.5 1384.78 473.96 1380.63 472.18 1376.89 469.48 1373.2 467.26 1369.26 465.81 1364.34 465.23 1360.22 465.15 1342.05 463.78 1334.29 461.13 1327.04 457.01 1319.1 454.67 1310.68 458 1296.02 457.7 1287.8 453.68 1279.99 440.85 1267.62 435.12 1260.75 427.08 1244.69 423.79 1240.08 426.82 1237.64 426.85 1237.59 429.46 1235.66 430.61 1235.35 431.98 1235.3 437.78 1236.38 441.54 1236.75 443.64 1237.32 445.35 1238.06 446.77 1239.16 448.56 1240.22 452.61 1242.04 455.48 1244.52 458.04 1244.77 461.9 1243.95 475.92 1238.32 494.44 1224.76 514.36 1212.89 516 1237.86 519.51 1255.11 526.35 1274.88 554.97 1312.09 558.18 1315.01 565.67 1318.22 573.95 1324.23 Z" id="MWI-1912" data-name="Ntcheu"/>
<path d="M 363.02 1012.57 358.86 1016.26 356.63 1017.44 349.8 1020.23 348.12 1020.61 346.06 1020.6 343.6 1020.18 329.58 1015.08 325.76 1014.96 318.82 1015.53 315.29 1014.81 309.11 1012.56 305.25 1011.77 301.42 1011.7 298.64 1012.24 285.23 1016.76 272.46 1016.54 270.71 1016.34 269.41 1015.38 268.04 1013.49 267.27 1009.25 266.62 998.18 265.9 994.86 260.5 981.26 257.64 976.22 254.17 971.29 247.66 964.94 244.19 962.31 241.33 960.78 239.46 959.42 238.24 958.35 236.29 949.62 240.03 949.29 243.96 947.6 247.59 945.5 251.76 944.14 255.88 943.35 257.07 942.78 257.95 941.77 258.56 939.95 259.4 938.7 261.19 938.01 263.57 936.7 266.32 934.42 271.24 928.82 274.37 923.29 275.87 921.48 279.16 918.95 282.82 917.46 285.15 916.12 286.71 914.76 288.01 912.1 288.47 910.27 290.84 907.87 292.76 906.24 310.63 897.62 310.86 909.72 312.62 914.55 313.84 915.91 315.21 917.85 317.94 922.54 318.17 924.9 317.89 929.06 319.24 930.68 320.88 932.21 323.21 933.78 325 934.36 326.95 933.96 328.66 932.59 329.81 931.18 330.66 929.2 332.34 922.94 332.91 921.96 333.87 921.33 344.25 918.22 345.45 918.31 345.98 919.57 345.62 921.58 345.01 923.6 344.61 925.78 344.63 928.19 345.6 930.58 347.01 931.75 349.11 932.03 351.4 932.09 354.19 932.52 355.52 934.42 356.25 936.96 358.32 949.85 358.08 951.84 357.09 954.08 356.1 957.31 355.83 961.01 360.88 980 363.02 1012.57 Z" id="MWI-1913" data-name="Ntchisi"/>
<path d="M 542.83 1019.14 511.34 1157.47 465.52 1156.17 463.8 1156.76 462.77 1157.34 461.44 1158.27 459.91 1159.52 454.71 1164.92 453.41 1165.96 452.34 1166.39 449.4 1164.63 445.43 1160.62 437.63 1149.35 429.39 1134.87 425.98 1130.86 410.77 1116.47 399.96 1101.5 397.44 1100.55 394.34 1100.67 392.44 1101.05 390.49 1101.62 381.96 1105.87 379.41 1106.79 377.27 1106.6 376.01 1105.47 375.59 1103.81 375.78 1102.25 376.81 1100.35 378.41 1098.65 381.74 1096.42 388.54 1093.65 391.29 1090.94 391.79 1084.15 392.82 1083.1 393.08 1082.79 393.54 1082.32 394.54 1081.76 396.1 1081.19 398.51 1080.65 402.07 1079.48 403.25 1078.84 404.51 1077.94 405.16 1076.93 405.66 1075.71 405.92 1074.11 405.58 1073.2 404.63 1072 402.3 1070.79 400.92 1069.46 400.16 1067.41 400.18 1065.88 400.46 1063.52 400.46 1060.84 399.73 1058.4 398.05 1057.19 396.63 1057.06 394.96 1057.65 386.21 1062.24 383.83 1062.71 381.74 1062.71 379.86 1062.21 377.8 1060.98 375.74 1059.36 364.66 1048.68 363.06 1047.47 360.04 1045.64 359.77 1044.8 360.69 1043.08 361.95 1041.17 362.56 1037.3 362.64 1034.43 358.86 1016.26 363.02 1012.57 370.46 1009.13 373.36 1008.83 379.41 1007.62 389.53 1003.4 410.81 991.45 473.59 991.4 473.61 991.4 477.8 995.48 480.68 999.32 485.66 1008.03 486.83 1010.75 487.11 1012.23 487.85 1013.24 490.5 1014.59 494.47 1015.36 525.97 1014.82 534.4 1016.09 542.64 1019.02 542.83 1019.14 Z" id="MWI-1914" data-name="Salima"/>
<path d="M 644.06 1324.3 644.79 1324.76 650.64 1330.82 653.4 1341.47 653.96 1353.07 651.53 1372.93 649.92 1378.27 647.31 1380.54 643.63 1383.04 636.12 1394.34 634.56 1397.35 633.88 1399.51 633.54 1403.31 633.02 1405.76 628.67 1414.43 627.18 1420.9 623.59 1430.11 622.79 1435.26 620.87 1439.3 618.84 1441.13 607.66 1451.3 602.82 1458.96 599.71 1461.9 589.8 1464.38 537.7 1461.71 556 1382.6 556 1380.5 555.85 1378.75 555.12 1376.51 555.35 1375.38 556.04 1373.7 568.65 1356.89 569.72 1354.69 573.88 1340.58 574.34 1337.41 574.22 1335.03 573.19 1330.91 572.66 1327.32 573.95 1324.23 576.36 1324.27 644.06 1324.3 Z" id="MWI-1915" data-name="Balaka"/>
<path d="M 514.74 1584.44 539.61 1586.71 542.74 1587.28 543.73 1588.25 544.23 1589.19 545.57 1592.57 546.18 1593.76 546.6 1595.1 546.56 1596.63 545.64 1598.87 542.86 1603.68 542.13 1606.33 542.51 1610.96 542.21 1613.06 538.49 1620.04 538.31 1622.77 539.54 1623.87 541.86 1623.91 544.35 1623.68 546.98 1624.28 547.93 1625.59 547.78 1626.9 545.95 1629.24 545.64 1630.77 545.68 1632.86 546.71 1636.63 547.4 1637.92 548.12 1638.43 549.65 1637.25 563.75 1659.26 596.62 1695.72 597 1697.51 597.11 1700.03 596.81 1701.83 600.01 1712.27 591.95 1748.45 591.26 1750.13 590.46 1751.11 588.66 1752.18 583.93 1756.47 570.59 1770.93 569.11 1773.44 567.77 1777.75 568 1780.31 568.53 1782.32 568.38 1783.74 567.08 1785.03 564.05 1786.37 559.63 1788.96 555.47 1792.81 550.19 1800.65 550.15 1800.66 548.42 1803.24 546.18 1801.66 541.85 1799.88 538.09 1797.72 535.67 1793.95 533.89 1788.63 531.9 1785.25 520.45 1775.88 517.96 1772.6 513.55 1764.36 510.37 1760.97 494.77 1752.96 492.92 1752.29 491.39 1751.17 488.36 1743.87 487.06 1741.61 485.41 1739.85 477.44 1734.02 474.36 1731.1 471.72 1727.28 464.82 1710.23 459.32 1704.73 448.41 1703.18 439.93 1702.87 435.12 1698.12 424.97 1676.59 425.96 1668.22 430.82 1652.31 429.73 1645.39 425.58 1639.79 405.05 1618.9 401.46 1616.76 393.26 1612.99 390.21 1610.4 387.54 1603.55 387.08 1594.77 388.33 1586.17 390.97 1579.99 397.97 1572.66 402.35 1569.4 406.52 1567.47 411.61 1565.94 414.28 1564.41 414.38 1564.28 417.92 1565.69 452.61 1580.15 462.35 1583.11 514.74 1584.44 Z" id="MWI-1916" data-name="Chikwawa"/>
<path d="M 660.22 1552.73 655.49 1566.67 655.3 1575.71 658.77 1616.58 658.54 1620.09 657.24 1622.91 656.06 1624.03 652.78 1631.99 647.76 1629.2 644.86 1626.3 642.96 1623.9 641.85 1621.66 640.55 1616.35 639.14 1612.91 637.65 1610.68 628.93 1602.73 627.1 1600.66 625.5 1598.3 623.86 1597.19 621.53 1596.54 612.35 1596.44 606.9 1586.25 605.32 1581.88 604.97 1577.05 605.51 1553.15 604.9 1546.02 603.91 1541.33 602.26 1539.54 601.96 1536.09 602.19 1533.34 611.4 1516.76 614.84 1516.13 616.52 1516.67 618.16 1515.9 619.76 1514.78 622.52 1513.25 623.89 1513.72 624.35 1515.25 623.93 1518.74 624.16 1521.15 625.88 1523.76 628.36 1525.42 632.25 1527.06 634.56 1528.72 636.24 1530.98 638.18 1536.42 639.9 1539.77 643.41 1544.68 646.35 1547.31 649.06 1548.93 660.22 1552.73 Z" id="MWI-1917" data-name="Chiradzulu"/>
<path d="M 652.78 1631.99 655.76 1654.5 654.8 1661.55 652.7 1663.67 651.33 1664.78 649.88 1666.5 648.27 1668.89 646.51 1673.18 646.05 1675.86 646.43 1678.01 647.31 1679.27 649.95 1682.02 650 1682.07 644.58 1688.29 640.05 1697.53 638.37 1708.93 638.93 1711.53 641.89 1718.45 640.92 1720.94 635.12 1727.71 634.76 1728.94 634.68 1728.92 623.21 1725.45 619.03 1726.4 618.08 1727.95 615.6 1727.58 613.65 1726.81 600.01 1712.27 596.81 1701.83 597.11 1700.03 597 1697.51 596.62 1695.72 563.75 1659.26 549.65 1637.25 556.42 1635.44 558.29 1634.19 564.47 1628.78 566.84 1625.88 571.51 1617.74 573.19 1615.51 574.91 1613.92 576.28 1613.26 577.73 1612.91 582.52 1612.63 585.95 1611.95 612.35 1596.44 621.53 1596.54 623.86 1597.19 625.5 1598.3 627.1 1600.66 628.93 1602.73 637.65 1610.68 639.14 1612.91 640.55 1616.35 641.85 1621.66 642.96 1623.9 644.86 1626.3 647.76 1629.2 652.78 1631.99 Z" id="MWI-1918" data-name="Thyolo"/>
<path d="M 634.76 1728.94 633.79 1732.27 633.87 1742.06 632.52 1746.47 629.14 1749.9 611.96 1760.95 608.83 1763.06 612.88 1774 616.82 1780.08 617.84 1782.63 619.26 1784.69 622.01 1785.55 624.28 1785.94 629.67 1787.95 631.25 1788.79 632.37 1789.96 633.64 1792.5 634.61 1793.82 635.37 1794.31 637.46 1795.2 638.15 1795.66 644.07 1801.92 644.84 1803.22 645.55 1819.5 646.54 1824.39 651.48 1833.98 652.73 1840.11 646.57 1845.15 645.98 1850.34 646.54 1859.68 645.75 1860.83 644.25 1861.92 643.06 1863.17 643.16 1864.72 644.3 1865.87 652.27 1870.42 653.74 1872.53 652.5 1875.74 649.88 1880.25 649.57 1884.21 651.73 1893.48 652.07 1898.47 651.43 1902.56 650.08 1905.95 648.22 1908.75 648.16 1908.75 634.15 1910.22 609.31 1909.41 596.36 1907.45 592.59 1903.94 593.36 1897.6 585.34 1885.74 587.28 1878.06 592.62 1873.78 598.85 1870.83 604.27 1867.11 607.15 1860.37 607.89 1852.46 607.74 1843.52 605.47 1835.89 599.92 1831.92 591.81 1831.69 584.48 1832.38 577.45 1831.26 570.2 1825.71 565.67 1819.86 563.56 1817.64 560.2 1815.28 558.52 1814.67 554.75 1814 553.07 1813.09 551.95 1811.23 551.17 1806.47 550.12 1804.44 548.42 1803.24 550.15 1800.66 550.19 1800.65 555.47 1792.81 559.63 1788.96 564.05 1786.37 567.08 1785.03 568.38 1783.74 568.53 1782.32 568 1780.31 567.77 1777.75 569.11 1773.44 570.59 1770.93 583.93 1756.47 588.66 1752.18 590.46 1751.11 591.26 1750.13 591.95 1748.45 600.01 1712.27 613.65 1726.81 615.6 1727.58 618.08 1727.95 619.03 1726.4 623.21 1725.45 634.68 1728.92 634.76 1728.94 Z" id="MWI-1919" data-name="Nsanje"/>
<path d="M 770.51 1436.52 776.28 1459.52 783.3 1487.18 782.58 1497.3 782.57 1497.52 782.48 1497.53 754.4 1498.58 745.13 1501.38 739.08 1503.99 735.53 1507.81 729.76 1512.98 716.8 1521.27 713.87 1522.57 711.19 1524.39 709.17 1526.2 706 1533.84 700.03 1538.03 698.2 1539.59 690.9 1547.81 688.99 1548.43 685.9 1548.93 675.58 1549.3 672.45 1549.85 669.13 1551.46 667.03 1552.26 660.22 1552.73 649.06 1548.93 646.35 1547.31 643.41 1544.68 639.9 1539.77 638.18 1536.42 636.24 1530.98 634.56 1528.72 632.25 1527.06 628.36 1525.42 625.88 1523.76 624.16 1521.15 623.93 1518.74 624.35 1515.25 623.89 1513.72 622.52 1513.25 619.76 1514.78 618.16 1515.9 616.52 1516.67 614.84 1516.13 611.4 1516.76 608.22 1516.88 606.82 1516.69 605.32 1516.01 604.21 1514.79 603.94 1512.91 604.4 1511.36 605.28 1509.89 610.41 1504.03 610.98 1502.61 610.64 1501.61 609.03 1501.25 604.75 1501.22 602.65 1500.83 600.32 1499.09 598.07 1496.46 589.81 1484.73 584.2 1480.08 579.07 1470.88 589.8 1464.38 599.71 1461.9 602.82 1458.96 607.66 1451.3 618.84 1441.13 620.94 1445.18 621.91 1446.82 623.7 1448.02 626.15 1448.07 629.12 1446.01 631.15 1443.92 633.13 1442.62 635.63 1442.23 639.75 1443.04 643.76 1444.38 646.89 1444.95 649.14 1444.82 651.59 1443.39 656.29 1438.7 657.89 1437.58 660.6 1436.72 663.52 1436.57 668.36 1437.58 680.94 1442.65 685.48 1443.96 688.23 1444.03 691.48 1443.6 696.75 1442.01 699.84 1440.64 702.4 1439.11 704.84 1437.09 705.35 1436.59 706.31 1435.84 706.99 1435.45 770.44 1436.51 770.51 1436.52 Z" id="MWI-1920" data-name="Zomba"/>
<path d="M 611.4 1516.76 602.19 1533.34 601.96 1536.09 602.26 1539.54 603.91 1541.33 604.9 1546.02 605.51 1553.15 604.97 1577.05 605.32 1581.88 606.9 1586.25 612.35 1596.44 585.95 1611.95 582.52 1612.63 577.73 1612.91 576.28 1613.26 574.91 1613.92 573.19 1615.51 571.51 1617.74 566.84 1625.88 564.47 1628.78 558.29 1634.19 556.42 1635.44 549.65 1637.25 548.12 1638.43 547.4 1637.92 546.71 1636.63 545.68 1632.86 545.64 1630.77 545.95 1629.24 547.78 1626.9 547.93 1625.59 546.98 1624.28 544.35 1623.68 541.86 1623.91 539.54 1623.87 538.31 1622.77 538.49 1620.04 542.21 1613.06 542.51 1610.96 542.13 1606.33 542.86 1603.68 545.64 1598.87 546.56 1596.63 546.6 1595.1 546.18 1593.76 545.57 1592.57 544.23 1589.19 543.73 1588.25 542.74 1587.28 539.61 1586.71 514.74 1584.44 513.21 1566.07 511.43 1560.55 511.47 1557.48 515.21 1555.44 516.72 1553.76 518.02 1551.78 518.55 1550.1 517.98 1534.82 518.55 1530.62 521.44 1527.86 533.45 1520.38 537.65 1518.85 541.42 1513.04 550.41 1487.51 554.47 1481.71 556.78 1480.76 563.63 1474.98 566.13 1474.25 573.88 1473.3 578.31 1471.24 579.07 1470.88 584.2 1480.08 589.81 1484.73 598.07 1496.46 600.32 1499.09 602.65 1500.83 604.75 1501.22 609.03 1501.25 610.64 1501.61 610.98 1502.61 610.41 1504.03 605.28 1509.89 604.4 1511.36 603.94 1512.91 604.21 1514.79 605.32 1516.01 606.82 1516.69 608.22 1516.88 611.4 1516.76 Z" id="MWI-1921" data-name="Blantyre"/>
<path d="M 517.98 1534.82 518.55 1550.1 518.02 1551.78 516.72 1553.76 515.21 1555.44 511.47 1557.48 511.43 1560.55 513.21 1566.07 514.74 1584.44 462.35 1583.11 452.61 1580.15 417.92 1565.69 414.38 1564.28 429.6 1543.73 432.53 1535.91 433.32 1526.12 462.48 1529.11 491.52 1532.1 517.98 1534.82 Z" id="MWI-1922" data-name="Mwanza"/>
<path d="M 772.48 1614.23 770.78 1620.5 770.88 1624.39 772.25 1631.9 772 1635.77 769.66 1641.09 765.94 1645.16 748.1 1657.15 745.51 1658.42 743.24 1658.62 738.59 1657.78 736.04 1657.91 712.55 1664.75 706.6 1665.34 705.38 1666.79 704.64 1670.61 703.04 1672.87 699.96 1672.74 696.68 1671.22 694.56 1669.31 692.78 1665.19 688.71 1662.54 683.65 1661.19 678.79 1660.94 673.21 1662.34 668.58 1665.39 651.43 1680.43 650 1682.07 649.95 1682.02 647.31 1679.27 646.43 1678.01 646.05 1675.86 646.51 1673.18 648.27 1668.89 649.88 1666.5 651.33 1664.78 652.7 1663.67 654.8 1661.55 655.76 1654.5 652.78 1631.99 656.06 1624.03 657.24 1622.91 658.54 1620.09 658.77 1616.58 655.3 1575.71 655.49 1566.67 660.22 1552.73 667.03 1552.26 669.13 1551.46 672.45 1549.85 675.58 1549.3 685.9 1548.93 688.99 1548.43 690.9 1547.81 698.2 1539.59 700.03 1538.03 706 1533.84 707.83 1535.93 708.02 1536.35 708.14 1536.82 707.61 1538.03 706.88 1540.53 706.69 1540.96 706.54 1541.14 706.15 1541.77 705.96 1542.03 705.77 1542.26 705.62 1542.38 705.16 1542.52 704.97 1542.64 703.67 1545.02 703.32 1545.52 703.01 1546.05 702.82 1546.28 702.63 1546.47 702.1 1547.2 699.35 1551.89 698.81 1553.33 698.66 1554.57 698.85 1554.86 699.08 1554.97 699.31 1554.95 699.46 1554.94 700.3 1554.97 700.49 1555.01 700.72 1555.09 701.52 1555.25 701.71 1555.37 701.98 1555.55 702.48 1555.85 702.67 1556.02 702.82 1556.21 703.01 1556.4 704.61 1579.09 705.51 1583.75 706.92 1587.66 707.34 1588.42 707.72 1588.81 708.1 1589.04 708.64 1589.46 708.86 1589.58 709.06 1589.73 709.28 1589.87 709.51 1590.08 709.7 1590.22 709.86 1590.26 710.01 1590.15 710.2 1590.12 710.39 1590.19 710.96 1590.91 711.27 1591.17 711.42 1591.49 711.57 1591.64 711.92 1592.11 712.15 1592.65 712.38 1592.84 712.61 1592.97 712.83 1592.95 713.18 1593.08 713.29 1593.12 713.41 1593.12 713.94 1592.88 714.32 1592.84 714.51 1592.81 714.7 1592.81 715.01 1592.92 715.35 1593.26 715.85 1594.21 723 1613.27 724.22 1614.8 733.97 1606.44 740.15 1604.41 741.22 1604.67 744.08 1606.64 747.8 1610.23 752.15 1613.58 753.79 1614.41 755.93 1616.1 756.35 1616.39 757.19 1616.73 758.26 1616.98 758.6 1616.98 758.92 1616.93 759.25 1616.77 759.56 1616.56 759.84 1616.32 760.09 1615.97 760.37 1615.76 760.71 1615.6 761.44 1615.44 761.63 1615.28 761.86 1615.21 762.28 1615.11 762.55 1615.02 763.69 1614.37 764 1614.1 764.19 1613.88 764.53 1613.68 765.07 1613.57 765.91 1613.2 766.36 1613.06 766.67 1613.03 767.28 1613.11 767.55 1613.06 767.85 1612.91 768.27 1612.85 768.73 1612.97 769.95 1613.68 770.3 1613.83 770.6 1613.85 771.17 1613.85 771.48 1613.99 771.86 1614.23 772.05 1614.3 772.24 1614.33 772.39 1614.27 772.48 1614.23 Z" id="MWI-1923" data-name="Mulanje"/>
<path d="M 772.48 1614.23 772.39 1614.27 772.24 1614.33 772.05 1614.3 771.86 1614.23 771.48 1613.99 771.17 1613.85 770.6 1613.85 770.3 1613.83 769.95 1613.68 768.73 1612.97 768.27 1612.85 767.85 1612.91 767.55 1613.06 767.28 1613.11 766.67 1613.03 766.36 1613.06 765.91 1613.2 765.07 1613.57 764.53 1613.68 764.19 1613.88 764 1614.1 763.69 1614.37 762.55 1615.02 762.28 1615.11 761.86 1615.21 761.63 1615.28 761.44 1615.44 760.71 1615.6 760.37 1615.76 760.09 1615.97 759.84 1616.32 759.56 1616.56 759.25 1616.77 758.92 1616.93 758.6 1616.98 758.26 1616.98 757.19 1616.73 756.35 1616.39 755.93 1616.1 753.79 1614.41 752.15 1613.58 747.8 1610.23 744.08 1606.64 741.22 1604.67 740.15 1604.41 733.97 1606.44 724.22 1614.8 723 1613.27 715.85 1594.21 715.35 1593.26 715.01 1592.92 714.7 1592.81 714.51 1592.81 714.32 1592.84 713.94 1592.88 713.41 1593.12 713.29 1593.12 713.18 1593.08 712.83 1592.95 712.61 1592.97 712.38 1592.84 712.15 1592.65 711.92 1592.11 711.57 1591.64 711.42 1591.49 711.27 1591.17 710.96 1590.91 710.39 1590.19 710.2 1590.12 710.01 1590.15 709.86 1590.26 709.7 1590.22 709.51 1590.08 709.28 1589.87 709.06 1589.73 708.86 1589.58 708.64 1589.46 708.1 1589.04 707.72 1588.81 707.34 1588.42 706.92 1587.66 705.51 1583.75 704.61 1579.09 703.01 1556.4 702.82 1556.21 702.67 1556.02 702.48 1555.85 701.98 1555.55 701.71 1555.37 701.52 1555.25 700.72 1555.09 700.49 1555.01 700.3 1554.97 699.46 1554.94 699.31 1554.95 699.08 1554.97 698.85 1554.86 698.66 1554.57 698.81 1553.33 699.35 1551.89 702.1 1547.2 702.63 1546.47 702.82 1546.28 703.01 1546.05 703.32 1545.52 703.67 1545.02 704.97 1542.64 705.16 1542.52 705.62 1542.38 705.77 1542.26 705.96 1542.03 706.15 1541.77 706.54 1541.14 706.69 1540.96 706.88 1540.53 707.61 1538.03 708.14 1536.82 708.02 1536.35 707.83 1535.93 706 1533.84 709.17 1526.2 711.19 1524.39 713.87 1522.57 716.8 1521.27 729.76 1512.98 735.53 1507.81 739.08 1503.99 745.13 1501.38 754.4 1498.58 782.48 1497.53 782.57 1497.52 781.19 1517.03 779 1547.8 777.45 1569.61 774.98 1605.03 772.48 1614.23 Z" id="MWI-1924" data-name="Phalombe"/>
<path d="M 505.33 675.54 499.76 676.46 494.85 674.8 491.69 669.74 491.62 664.57 493.22 658.8 497.78 648.11 501.03 645.89 506.33 646.2 511.9 648.13 515.82 650.75 517.83 655.72 517.07 661.95 514.34 668.06 510.47 672.64 505.33 675.54 Z M 485.66 658.72 480.6 663.66 476.88 663.5 473.8 660.3 470.65 655.9 464.08 648.59 463.52 644.47 468.41 640.52 468.64 640.37 477.47 638.54 484.62 642.66 488 650.19 485.66 658.72 Z" fill-rule="evenodd" id="MWI-5509" data-name="Likoma"/>
<path d="M 537.7 1461.71 589.8 1464.38 579.07 1470.88 578.31 1471.24 573.88 1473.3 566.13 1474.25 563.63 1474.98 556.78 1480.76 554.47 1481.71 550.41 1487.51 541.42 1513.04 537.65 1518.85 533.45 1520.38 521.44 1527.86 518.55 1530.62 517.98 1534.82 491.52 1532.1 462.48 1529.11 433.32 1526.12 431.08 1511.25 431.1 1502.96 434.18 1498.84 438.61 1496.62 443.45 1489.06 448.41 1486.11 450.04 1483.06 451.26 1476.82 452.4 1473.77 455.2 1470.16 458.23 1468.12 461.44 1466.47 464.75 1464.05 469.27 1457.66 470.24 1451.22 467.78 1433.75 471.18 1434.05 482.79 1436.25 497.39 1440.68 498.54 1440.75 502.62 1440.1 504.46 1440.22 506.44 1440.68 509.91 1441.88 519.66 1443.69 523.33 1444.79 526.28 1446.04 528.34 1447.79 530.32 1449.81 531.51 1453.26 532.04 1455.99 532.27 1458.46 532.19 1459.85 531.58 1462.42 531.66 1463.58 532.19 1464.46 533.76 1464.83 534.94 1464.8 537.7 1461.71 Z" id="MWI-5510" data-name="Neno"/>
</g>
</svg>