<?xml version="1.0"?>
<svg xmlns="http://www.w3.org/2000/svg" version="1.2" baseProfile="tiny" width="800" height="1700" viewBox="0 0 800 1700" stroke-linecap="round" stroke-linejoin="round">
<g id="ne_10m_admin_1_states_provinces">
<path d="M 238.28 255.74 252.78 262.62 254.89 264.25 256.7 266.54 255.14 278.99 254.43 281.03 253.08 282.47 247.01 292.49 243.7 295.83 241.13 297.22 238.53 297.45 222.67 296.14 219.44 297.33 216.04 297.1 213.14 295.91 210.74 294.57 209.03 293.95 207.99 292.64 208.99 289.8 211.37 285.15 209.93 272.19 210.51 267.92 212.1 265.87 214.43 264.54 220.06 260 221.75 259.7 223.83 260.12 227.81 259.93 229.88 258.95 233.51 255.81 235.88 255.08 238.28 255.74 Z M 250.24 185.59 251.51 186.15 252.6 185.88 253.31 186.07 253.62 188.02 252.95 188.94 251.51 188.88 249.78 188.59 248.45 188.82 244.59 191.61 240.32 193.65 235.3 194.84 229.29 195.28 230.09 195.95 230.86 196.34 230.8 197.07 229.29 198.51 232.02 204.05 228.79 208.22 223.83 208.64 221.21 202.66 221.06 197.76 220.17 194.72 217.77 192.22 213.16 188.82 207.56 180.54 206.18 175.66 206.56 169.33 208.41 164.26 211.64 160.35 215.95 157.34 226.17 153.01 229.75 152.95 233.09 155.01 237.32 159.64 244.09 172.16 247.01 174.17 244.07 177.96 242.32 179.02 243.84 182.38 245.78 183.63 247.99 184.21 250.24 185.59 Z M 276.65 145.82 271.96 146.78 267.96 146.74 266.27 149.32 264.25 149.49 263.89 147.3 272.5 136.02 275.8 133.23 280.23 132.08 282.38 133.52 283.49 136.9 283.53 140.71 282.65 143.52 280.61 144.53 276.65 145.82 Z M 193.8 109.34 196.2 110.39 198.97 109.82 201.86 107.88 201.34 114.03 198.51 116.39 194.11 116.53 188.8 115.95 186.34 112.45 184.42 108.65 184.32 104.84 187.21 101.46 193.34 99.9 197.24 102.11 197.26 105.19 192.03 106.26 193.8 109.34 Z M 40.73 85.69 36.95 93.15 33.58 83.81 37.22 81.96 40.73 85.69 Z M 26.99 47.48 22.86 49.04 18.76 48.1 16.97 46.73 15.71 45.33 14.76 43.62 13.92 41.48 17.57 38.29 22.51 36.52 27.22 36.87 30.18 40.02 29.89 44.19 26.99 47.48 Z M 10.34 29.53 9.04 30.18 5.23 28.18 3.15 25.8 2.44 22.38 2.61 17.3 4 10.8 4.23 8.27 3.65 6.5 2.38 5.33 1.27 3.81 1 1 9.02 3.15 10.65 4.27 11.9 6.73 12.88 12.07 13.92 14.07 13.92 15.53 12.76 16.88 12.3 18.34 12.61 19.99 13.92 22.14 12.53 22.8 12.25 23.78 12.36 25.16 12.3 26.99 11.84 27.95 11.23 28.8 10.34 29.53 Z" fill-rule="evenodd" id="VUT-560" data-name="Torba"/>
<path d="M 169.47 633.21 162.85 635.53 158.16 635.42 154.89 633.88 148.32 629.11 144.82 627.77 138.21 626.08 135.31 624.27 131.33 617.81 132.14 611.52 136.69 606.79 144.25 604.89 160.97 606.89 169.43 609.62 170.2 613.83 167.39 621.08 169.08 627.92 169.47 633.21 Z M 163.74 598.95 160.28 601.59 154.8 600.05 154.01 601.01 153.24 601.36 151.43 601.7 147.99 601.2 145.51 600.34 140.13 596.86 151.43 585.4 155.93 583.63 159.18 583.67 159.78 584.55 156.41 585.4 156.41 587.02 158.84 587.65 159.76 588.92 159.39 590.48 158.03 592.01 163.47 594.86 163.74 598.95 Z M 149.36 449.96 147.24 450.92 145.21 450.75 143.36 449.5 138.13 443.83 137.04 441.29 141.21 442.46 147.28 447.06 151.43 447.75 149.36 449.96 Z M 70.12 495.98 76.2 496.09 86.73 494.94 92.81 495.15 95.31 494.92 96.8 493.08 99.8 488.35 101.73 486.4 103.84 484.77 105.57 482.69 106.26 479.41 107.63 453.34 107.15 450.31 105.88 446.6 108.57 443.27 112.82 440.81 116.07 439.68 133.83 441.29 133.83 443.04 129.54 443.73 127.52 445.73 127.02 448.73 127.68 458.57 126.75 460.99 124 464.01 127.93 464.45 129.52 467.26 130.46 475.31 134.5 486.9 135.31 491.44 141.02 487.42 143.96 486.75 148.32 488.35 147.19 492.67 151.43 511.66 150.3 515.43 148.32 516.28 147.51 517.08 149.95 520.62 151.01 521.2 154.8 522.54 156.41 523.7 157.28 525 159.55 530.27 159.01 534.77 157.97 538.63 156.51 539.96 154.8 536.73 153.18 536.73 154.82 544.63 159.01 556.62 164.54 567.58 170.2 572.37 172.21 573.37 172.66 575.77 172.04 578.44 171.08 580.4 169.39 581.77 168 581.63 166.31 580.86 163.66 580.4 154.82 580.4 151.43 581.59 147.47 584.59 138.52 595.09 136.48 596.59 134.5 597.57 132.31 598.13 129.66 598.32 126.83 597.89 122.85 595.84 120.66 595.09 111.68 594.05 101.57 594.32 92.52 596.59 86.73 601.7 89.04 604.01 87.12 604.28 82.08 603.32 79.16 605.16 77.99 607.12 77.16 609.2 75.47 611.35 70.7 613.58 65.4 613.12 60.28 610.49 56.13 606.35 59.09 601.89 59.17 596.01 56.67 590.94 48.52 587.36 45.1 583.94 39.87 575.75 37.27 568.64 35.79 566.77 29.55 560.78 28.57 558.64 27.82 555.68 24.36 551.3 23.57 549.03 24.11 546.92 26.3 542.09 27.53 535.17 30.68 525.54 31.6 520.62 31.39 509.66 30.12 504.2 24.45 496.25 23.07 491.59 22.11 481.77 19.68 472.76 19.86 469.53 22.11 465.63 18.03 464.3 15.53 460.78 14.26 456.26 13.92 451.84 12.88 447.75 7.8 440.39 5.84 436.45 1.5 418.43 1.81 414.59 3.5 410.73 4.34 405.02 4.11 399.42 2.61 395.98 9.04 383.07 8.57 377.22 9.42 374.45 16.86 372.2 18.3 370.36 19.4 369.57 22.11 371.8 23.07 373.72 25.37 379.99 26.09 381.32 28.05 382.37 29.3 384.87 29.99 387.83 30.18 390.33 31.1 390.77 36.6 397.6 38.68 403.4 40.14 406.11 44.9 408.42 54.52 415.47 52.21 417.82 53.3 423.3 57.57 434.83 59.9 445.79 60.94 457.55 60.63 460.38 61.84 461.93 63.4 463.15 64.2 464.82 67.43 494.06 70.12 495.98 Z" fill-rule="evenodd" id="VUT-561" data-name="Sanma"/>
<path d="M 784.64 1697.84 782.74 1698.9 780.47 1696.84 777.49 1695.55 771.44 1694.07 764.25 1690.84 760.98 1688.46 760.59 1683 762.27 1677.04 765.13 1673.08 768.17 1672.24 774.2 1671.24 780.62 1671.01 785.16 1672.37 789.93 1675.85 793.62 1677.89 796.62 1680.19 799 1684.54 796.52 1690.48 794.91 1693.34 792.54 1695.67 789.93 1696.84 784.64 1697.84 Z M 691.93 1555.98 689.7 1558.17 685.13 1557.73 675.05 1554.96 671.15 1553.17 661.41 1542.22 658.98 1540.43 654.26 1540.2 652.41 1539.51 651.64 1538.06 650.91 1535.41 649.24 1533.53 647.57 1532.3 646.82 1531.49 646.22 1529.64 638.28 1518.69 637.3 1516.23 637.03 1512.69 637.34 1506.64 638.63 1500.89 641.26 1498.33 643.11 1497.04 643.11 1494.01 642.11 1488.53 643.07 1485.74 644.16 1483.68 645.84 1482.05 648.43 1480.45 653.16 1479.19 662.27 1479.07 666.17 1477.23 670.02 1480.4 670.23 1483.59 668.84 1487.51 667.92 1492.7 671.15 1510.44 673.23 1513.84 678.19 1515.8 684.05 1517.27 688.89 1519.32 696.54 1523.22 700.2 1525.76 705.18 1527.51 703.73 1530.41 695.35 1540.43 693.74 1550.81 691.93 1555.98 Z M 630.78 1340.3 640.36 1341.34 640.26 1341.01 641.4 1340.46 643.03 1339.96 644.3 1339.73 645.26 1340.19 645.11 1342.3 647.16 1343.44 648.45 1344.99 649.56 1346.92 650.05 1348.57 647.28 1348.74 632.3 1352.61 638.03 1359.3 638.74 1361.56 640.3 1362.01 647.62 1365.58 650.05 1367.29 657.2 1370.83 662.21 1375.04 665.17 1380.44 666.17 1387.51 664.1 1393.55 659.39 1396.49 654.45 1398.74 651.64 1402.74 646.87 1399.32 626 1388.55 623.15 1387.84 620.27 1389.05 618.35 1388.94 610.95 1386.9 608.85 1385.9 606.39 1383.69 600.66 1379.75 596.7 1377.9 583.67 1373.75 583.25 1369.75 587.13 1359.22 587.19 1356.07 586.32 1353.36 584.86 1350.91 582.9 1348.57 582.48 1346.84 584.02 1329.83 585.46 1324.89 588.59 1320.24 595.74 1315.31 605.05 1312.74 614.64 1313.01 622.65 1317.01 625.04 1320.77 626 1325.44 626 1334 627.32 1338.3 630.78 1340.3 Z" fill-rule="evenodd" id="VUT-562" data-name="Tafea"/>
<path d="M 433.24 821.66 428.31 821.76 425.09 820.86 423.12 818.2 420.24 811.92 427.1 810.57 430.12 810.48 432.99 811.92 435.77 815.76 435.81 819.34 433.24 821.66 Z M 408.05 811.11 403.9 813.53 400.1 813.49 398.44 811.3 400.81 807.23 403.06 798.37 405.77 796.41 412.11 795.81 409.92 799.35 409.71 807.57 408.05 811.11 Z M 426.58 769.47 418.55 775.55 393.54 776.45 390.29 777.26 386.85 778.82 383.53 779.78 380.57 778.7 377.84 776.45 374.68 774.59 371.51 773.78 368.53 774.7 362.29 770.45 359.11 769.9 355.65 771.44 353.39 768.63 345.54 764.02 341.81 761.05 338.41 759.09 334.32 757.48 331.78 755.44 333.09 752.12 329.88 749.35 332.93 746.22 338.74 743.64 345.66 742.06 349.16 739.72 351.46 739.2 361.96 739.2 366.88 736.76 375.72 728.07 378.95 726.17 380.1 724.78 383.76 715.5 385.87 714.54 391 713.25 395.68 718.21 399.42 726.05 404.04 740.81 404.96 748.08 409.44 752.44 426.35 761.11 428.08 763.13 428.37 766.63 426.58 769.47 Z M 214.52 720.65 219.21 722.19 222.83 725.42 225.27 726.17 226.08 725.24 225.71 723.11 224.44 718.96 225.44 718.57 227.67 721.03 231.03 726.17 230.8 728.26 228.98 730.88 229.29 732.74 234.61 735.16 235.88 735.97 237.32 735.97 238.07 734.68 238.78 734.01 239.59 733.53 240.55 732.74 241.2 735.45 242.22 738.1 243.61 740.56 245.39 742.56 248.1 744.25 253.58 745.77 256.7 747.27 262 752.14 265.06 756.29 268.42 758 274.73 755.46 276.94 756.61 277.8 756.94 277.8 758.69 276.23 762.09 280.46 766.63 290.68 774.7 296.72 773.66 299.95 778.99 301.97 790.66 297.53 798.5 297.06 802.84 300.68 805.46 300.95 800.9 301.91 797.9 303.58 795.66 306.18 793.39 308.6 793.27 310.44 796.19 312 799.96 313.6 802.4 308.02 807.92 306.18 808.69 303.12 809.32 301.68 810.99 300.49 813.3 298.02 815.95 296.53 818.18 296.72 820.18 296.6 821.95 293.91 823.34 290.09 823.37 288.41 821.41 287.49 818.72 285.88 816.61 283.69 816.01 277.46 814.99 276.19 814.49 274.73 812.38 271.34 812.34 267.77 812.96 265.64 812.78 261.16 811.03 255.93 812.9 251.22 816.13 248.45 818.53 250.05 819.93 250.66 820.84 251.51 821.37 253.62 821.76 251.31 824.72 248.51 825.82 242.32 826.6 237.32 831.41 235.94 831.14 234.32 829.99 233.05 829.97 232.52 833.02 231.03 833.02 229.09 830.6 222.62 828.45 219.73 823.03 216.56 820.51 213.72 817.17 213.16 811.92 214.75 811.92 215.7 813.47 217.18 814.84 219.04 815.92 221.21 816.61 220.6 812.84 219.21 808.11 217.18 803.61 211.29 796.06 210.27 793.5 209.93 790 210.1 785.66 209.93 784.35 208.83 782.85 207.28 782.05 205.8 781.62 205.08 781.28 204.37 776.2 204.62 761.71 205.83 758.69 203.34 747.27 203.18 745.89 203.34 741.68 202.8 739.87 201.72 739.31 200.61 739.14 200.11 738.39 198.86 734.24 190.42 721.46 186.65 723.65 185.42 724.69 183.98 722.94 180.17 727.38 169.31 734.36 163.7 729.45 160.55 728.22 158.03 729.51 156.43 727.11 155.86 724.78 155.55 722.38 154.8 719.84 152.97 717.46 150.88 715.79 149.09 713.88 148.32 710.83 149.32 705.23 156.41 692.14 155.39 676.55 155.61 673.52 156.82 671.59 157.2 669.79 158.03 668.48 160.45 667.94 167.7 662.96 193.65 672.79 193.34 681.09 207.49 698.54 203.34 706.79 206.37 707.94 208.83 709.58 209.76 711.86 208.18 714.86 210.27 716.57 212.33 718.77 214.52 720.65 Z" fill-rule="evenodd" id="VUT-563" data-name="Malampa"/>
<path d="M 404.04 692.14 398.71 692.51 395.91 690.87 394.75 687.47 393.89 677.96 389.68 663.67 387.08 645.55 381.43 632.3 379.34 623.92 378.72 614.64 379.87 604.85 385.64 586.4 386.97 567.52 392.16 567.12 393.66 578.08 394.35 580.4 395.94 582.56 397.44 583.17 398.6 584.32 399.06 587.9 397.21 602.39 397.58 606.35 400.81 613.83 400.81 621.04 401.5 624.33 407.04 639.53 408.88 651.66 410.01 655.14 412.82 660.54 413.72 664.71 414.32 674.04 413.71 682.28 410.67 688.57 404.04 692.14 Z M 317.77 570.7 312.33 572.6 287.66 572.48 282.65 570.91 274.57 566.99 273.19 564.33 275.44 560.26 304.27 533.67 309.4 532.04 313.4 531.39 324.86 527.04 345 523.7 351.04 524.66 351.23 526.96 345.81 532.04 342.74 535.63 339.58 540.48 337.14 545.76 336.16 550.65 335.39 554.99 333.43 558.14 317.77 570.7 Z M 394.14 544.42 392.73 551.42 389.68 550.28 387.14 550.28 381.43 551.42 382.8 545.92 382.45 540.02 379.7 528.81 381.3 520.62 381.2 495.32 378.95 489.96 373.24 453.46 373.65 451.61 374.28 450.42 374.18 449.13 372.49 447 371.84 444.75 372.68 441.89 374.49 439.39 376.61 438.2 379.49 439.85 382.03 444 383.85 448.67 384.53 451.84 384.91 457.3 387.77 470.47 387.87 472.89 387.54 477.85 387.77 480.27 390.56 487.98 391 490.67 391 498.9 391.75 500.94 395.06 504.74 395.83 506.82 395.1 522.95 396.37 526.39 395.94 530.85 394.35 537.54 394.14 544.42 Z" fill-rule="evenodd" id="VUT-564" data-name="Penama"/>
<path d="M 428.81 1060.23 429.99 1061.73 434.12 1059.31 450.4 1056.7 454.21 1057.35 457.55 1059.54 458.11 1061 458.92 1065.27 459.88 1066.15 461.88 1066.52 463.26 1067.54 465.61 1071 467.53 1075.38 468.84 1080.01 471.03 1083.76 475.43 1085.49 476.87 1087.84 478.75 1092.3 480.27 1093.72 482.68 1094.22 485.06 1093.85 487.08 1093.05 488.35 1092.1 488.75 1096.14 481.71 1109.83 479.81 1115.82 478.06 1118.67 474.91 1119.92 468.84 1121.13 468.34 1121.67 467.68 1122.78 466.57 1123.86 464.82 1124.36 463.61 1123.84 462.11 1122.74 460.95 1121.65 460.76 1121.13 444 1125.01 442.19 1125.05 438.06 1122.74 437.14 1120.98 436.62 1118.67 435.58 1117.98 433.04 1121.13 432.85 1119.17 431.85 1116.79 431.6 1114.82 430.56 1115.17 430.43 1115.29 430.43 1115.56 429.99 1116.29 428.05 1115.75 426.2 1115.82 424.68 1116.59 423.53 1118.05 425.01 1109.83 423.53 1109.83 421.11 1112.83 417.32 1114.4 408.88 1116.29 408.88 1114.82 412.98 1111.86 418.22 1110.33 422.43 1108.14 423.53 1103.21 421.57 1104.41 419.95 1104.52 418.91 1103.41 418.17 1098.41 417.13 1097.64 415.57 1097.45 413.72 1096.79 409.92 1094.79 406.79 1094.37 403.9 1095.12 400.81 1096.79 399.14 1098.52 395.94 1103.54 394.35 1104.98 391.75 1105.52 390.18 1104.58 389.49 1102.18 386.16 1100.14 386.87 1097.22 392.73 1085.49 395.5 1082.61 401.6 1078.42 404.04 1075.8 413.44 1062.42 419.61 1057.5 426.76 1056.31 427.97 1057.77 428.81 1060.23 Z M 400.87 1065.15 398.98 1067.77 399.56 1060.5 406.9 1053.77 415.57 1050.81 420.24 1054.85 417.24 1055.85 411.98 1058.73 408.82 1059.54 403.33 1063.12 400.87 1065.15 Z M 438.35 1043.66 434.62 1044.85 429.39 1041.51 426.7 1036.17 427.8 1029.55 430.43 1028.4 433.62 1030.88 436.39 1035.36 438.35 1043.66 Z M 431.54 952.57 429.12 952.8 426.7 951.63 427.89 948.94 430.66 946.13 432.99 944.59 442.19 940.23 445.42 940.17 450.88 941.52 448.9 943.05 442.85 946.36 441.58 947.82 440.66 949.4 439.39 950.67 431.54 952.57 Z M 485.17 915.76 482.56 917.18 478.72 916.87 476.29 915.83 475.6 913.83 476.83 910.59 476.58 905.57 481.02 901.94 487.08 901.42 491.48 905.74 485.17 915.76 Z M 394.18 830.2 395.33 831.35 395.96 832.5 396.71 833.02 398.37 835.04 402.48 843.92 404.84 845.94 405.31 847.61 405.86 851.3 406.9 855.21 408.88 857.36 410.73 857.13 414.63 854.71 416.95 854.17 419.01 854.53 420.88 855.4 422.43 856.44 423.53 857.36 426.01 860.93 427.55 864.59 429.64 867.47 433.93 868.66 434.7 869.93 435.7 872.7 437.93 875.47 442.15 876.7 454.67 876.27 460.09 878.06 464.01 883.31 460.9 884.66 461.47 887.87 462.88 891.58 462.4 894.61 459.92 893.54 457.55 894.61 445.04 887.77 441.19 883.85 437.31 882.04 432.74 880.66 429.18 880.12 419.36 882.16 412.36 886.12 405.48 888.67 395.83 886.54 392.83 884.75 385.87 878.2 384.53 875.99 385.06 869.47 384.53 867.05 380.8 863.97 378.89 861.8 378.95 859.78 379.95 856.96 380.39 848.21 381.43 844.48 382.93 842.77 384.43 841.62 385.68 840.02 386.16 837.06 386.04 834.79 385.7 833.2 384.53 829.64 386.85 831.1 388.29 830.95 389.74 830.14 391.87 829.64 394.18 830.2 Z" fill-rule="evenodd" id="VUT-565" data-name="Shefa"/>
</g>
</svg>