<?xml version="1.0"?>
<svg xmlns="http://www.w3.org/2000/svg" version="1.2" baseProfile="tiny" width="800" height="539" viewBox="0 0 800 539" stroke-linecap="round" stroke-linejoin="round">
<g id="ne_10m_admin_1_states_provinces">
<path d="M 768.64 309.65 767.71 313.01 768.64 315.99 770.71 319.19 773.12 321.87 774.94 323.33 780.41 324.54 786.71 323.84 792.83 321.94 797.81 319.62 799 323.31 798.91 329.64 797.64 336.44 795.4 341.39 796.33 349.49 795.93 353.18 793.69 354.73 791.54 355.07 784.9 356.83 779.83 359.56 772.34 358.94 766.22 356.03 766.53 351.13 762.83 349.55 758.19 348.49 753.45 348.45 749.55 349.91 749.12 349.38 748.78 348.79 748.52 348.17 748.35 347.41 750.23 346.22 752.42 344.44 754.11 342.04 754.49 338.98 753.57 337.53 749.61 333.52 748.35 331.77 747.3 328.61 746.79 323.92 746.08 320.93 744.71 318 739.83 311.19 742.4 309.97 744.68 309.48 746.94 309.57 749.55 310 754.06 312.01 756.84 312.74 759.88 310.17 771.44 302.67 771.9 304.98 768.64 309.65 Z M 501.95 194.17 501.04 195.76 499.31 196.56 494.83 197.78 493.86 196.85 492.94 196.22 491.75 195.76 490.03 195.37 491.36 194.53 492.77 194.13 494.32 194.01 496.04 194.17 497.44 194.01 501.95 194.17 Z M 650.46 192.96 651.69 196.1 650.32 199.14 648.11 202.21 646.97 205.54 647.1 207.63 648.18 212.22 650.46 217.04 649.8 219.25 647.48 222.78 646.97 224.9 647.53 226.22 648.91 226.91 650.67 227.51 652.4 228.51 654.2 230.09 655.71 231.1 660.23 232.67 662.29 232.87 664.01 232.79 665.3 233.25 666.23 235.2 666.87 236.07 667.93 237.88 668.74 238.67 666.78 241.75 666.16 243.43 666.23 244.92 667.71 246.91 669.59 247.62 671.63 247.85 673.55 248.42 675.76 250.01 678.34 252.49 679.26 254.74 673.46 256.72 672.31 259.23 672.34 265.97 671.97 269.53 670.85 271.74 668.93 273.31 666.23 275.01 663.25 273.8 659.24 273.8 655.71 272.45 654.19 267.18 652.87 266.36 649.99 265.97 647.08 265.28 645.77 263.56 645.47 260.61 644.52 259.65 628.39 258.01 623.15 256.39 618.54 252.68 614.36 248.42 613.92 247.19 613.63 245.58 612.94 244.2 609.24 242.88 608.21 241.11 608.3 238.78 609.46 236.4 602.39 230.38 601.04 227.97 611.85 228.76 615.47 227.97 618.8 226.18 620.89 224.15 624 219.42 629.29 213.54 631.01 210.04 630.02 206.2 627.83 205.01 618.54 201.27 605.2 202.69 604.86 200.98 605.66 197.22 607.74 193.48 611.31 191.76 617.3 190.86 618.54 191.16 619.74 192.19 621.03 192.72 622.58 192.95 624.56 192.96 626.32 192.45 627.66 191.11 628.52 189.35 628.82 187.5 634.83 185.75 648.08 192.69 650.46 192.96 Z M 531.03 137.91 532.11 140.22 533.44 142.21 535.39 143.57 539.81 145.85 540.67 147.03 539.89 149.01 538 149.67 532.78 149.43 530.54 150.01 528.88 151.4 527.89 153.2 527.55 154.92 527.04 155.41 524.36 162.12 523.23 164.15 523.11 166.85 523.72 171.8 524.71 173.02 527.04 173.07 532.12 172.4 525.38 184.52 522.51 188.05 519.76 189.79 515.83 191.49 511.64 192.69 508.19 192.96 506.77 191.76 505.68 190.55 508.4 189.51 510.84 187.76 515.28 183.34 518.21 179.58 519.53 177.35 520.07 174.21 519.76 163.47 520.71 160.97 522.74 158.46 524.92 155 526.69 151.32 527.55 148.12 526.77 144.78 523.42 140.39 521.85 138.84 521.11 139.09 520.07 139.7 520.49 138.14 522.4 136.45 525.04 135.23 527.55 134.88 529.7 135.93 531.03 137.91 Z" fill-rule="evenodd" id="NCL-1258" data-name="Îles Loyauté"/>
<path d="M 693.35 525.17 695.12 527.63 695.2 532.25 693.05 530.79 690.93 526.46 689.18 526.13 688.32 527.46 688.4 529.73 689.18 534.06 686.77 537.93 681.22 537.3 671.15 533.45 672.09 529.05 672.17 518.73 673.55 515.3 676.7 514.55 681.41 515.5 686.08 517.54 689.18 520.12 691.03 523.2 693.35 525.17 Z M 569.78 494.53 569.28 495.74 568.42 495.88 567.23 494.73 565.88 495.77 564.9 496.37 562.44 497.26 562.44 498.33 565.82 498.84 565.45 500.07 563.56 501.22 562.44 501.35 561.15 500.9 558.65 500.38 556.97 499.15 558.19 496.66 559.51 494.59 559.73 492.9 560.26 491.41 562.44 490.03 564.73 489.37 566.61 489.47 568.17 490.49 569.75 492.44 569.78 494.53 Z M 435.66 335.97 438.42 334.69 441.67 334.68 444.61 336.21 453.71 343.9 454.8 344.44 457.12 345.05 457.95 345.65 459.7 348.72 465.9 352.56 472.43 355.5 486.42 359.65 486.42 360.75 481.5 360.75 481.5 361.95 482.76 362.74 483.15 363.76 483.36 364.81 484.01 365.67 485.17 366.17 487.58 366.36 493.63 367.85 496.14 369.05 498.16 372.44 505 377.17 505.78 378.4 506.38 381.59 507.45 383.12 508.52 383.81 511.67 385.03 510.35 386.13 514.4 389.42 522.2 397.71 525.57 399.37 528.75 401.71 533.48 406.25 537.7 409.11 539.43 406.57 545.57 410.58 547.87 411.39 547.87 412.71 546.52 413.57 545.08 414.23 543.54 414.7 541.87 415 541.87 416.32 543.31 416.94 548.47 416.32 550.76 416.78 552.63 417.64 554.06 418.13 555.08 417.41 556.37 420.59 558.31 422.31 561.1 423.12 564.85 423.55 575.11 425.93 577.62 427.25 586.59 433.82 588.25 435.97 590.2 439.29 590.46 440.76 590.2 445.29 589.48 446.29 588.25 447.55 588.21 448.59 590.8 449.02 592.35 449.73 593.8 451.48 596.21 455.04 602.45 459.71 603.44 461.59 602.96 463.21 601.87 463.47 600.6 463.53 599.74 464.65 600.15 465.77 601.27 467.01 602.15 468.46 601.59 470.07 600.98 471.23 599.74 475.49 598.4 477.86 597.5 479.07 596.21 480.42 595.88 479.58 595.35 478.79 594.32 479.23 593.41 480.09 591.3 480.94 590.46 481.56 590.66 482.46 591.4 484.01 585.84 488.2 582.51 489.46 578.15 488.83 581.8 487.59 583.22 486.72 584.21 485.1 581.48 485.17 580.29 485.53 578.91 484.05 577.95 481.77 576.5 479.25 575.77 478.54 575.21 476.49 574.1 477.77 573.02 480.19 572.7 481.51 571.26 480.8 570.32 479.15 569.49 477.17 568.43 475.49 569.21 475.27 570.84 474.4 569.23 472.25 567.66 472.76 566.48 475.12 565.82 480.19 565.51 481.08 565.45 482.06 566.05 484.01 566.54 484.24 569.75 486.42 567.81 486.85 565.39 486.46 563.3 485.86 562.44 485.77 561.96 486.67 560.84 487.68 559.45 488.48 558.19 488.83 553.77 487.88 551.42 485.7 551.65 483.26 555.08 481.51 555.08 480.42 551.9 480.74 548.02 480.34 545.57 478.73 546.66 475.49 545.49 474.4 542.85 475.27 538.77 473.88 535.07 471.33 533.44 468.86 532.67 468.55 528.65 470.2 526.81 470.67 525.41 470.36 520.99 468.58 519.47 467.66 518.86 465.94 520.05 464.95 520.83 463.92 518.87 462.15 517.29 461.61 512.13 460.9 510.35 461.06 508.4 463.64 507.2 467.57 505.45 470.36 501.95 469.47 501.9 470.18 501.82 470.5 501.52 470.61 500.86 470.67 502.23 473.97 500.43 474.8 498.1 474.03 497.76 472.48 498.28 470.96 498.56 466.48 499.75 464.65 499.75 463.47 497.17 463.62 494.83 463.04 492.83 461.75 491.22 459.71 496.93 459.94 499.41 459.28 500.86 457.45 497.67 457.28 496.61 455.74 497.24 450.11 495.49 450.24 491.68 449.65 490.03 450.11 489.44 451.14 488.7 454.35 488.21 455.04 485.99 455.35 485.13 456.24 484.61 457.55 483.41 459.18 481.77 459.83 480.95 458.75 481.24 456.86 482.8 455.04 481 454.01 476.68 450.11 476.68 449.02 477.81 448.43 478.4 447.78 478.74 446.79 478.97 445.29 477.88 445.29 476.13 447.01 471.53 446.06 471.86 447.7 468.51 448.96 465.58 447.93 462.77 446.49 459.7 446.49 459.56 443.14 457.95 440.5 455.57 438.72 453.1 438.09 450.92 436.94 448.9 435.02 446.75 434.65 444.08 438.09 442.18 437.03 440.34 435.68 441.16 434.76 441.57 433.82 441.69 432.55 441.67 430.75 442.78 430.75 444.26 432.34 446.19 433.11 447.65 432.42 447.7 429.66 446.62 427.95 443.18 426.53 441.67 424.75 446.48 424.78 448.47 425.15 450.11 425.93 449.93 424.08 449.16 422.97 447.8 422.46 445.89 422.34 444.99 421.25 445.27 418.96 445.99 416.85 446.49 416.32 445.07 412.39 442.84 410.73 436.76 408.98 434.62 410.21 433.49 409.71 433.71 408.26 435.65 406.57 433.8 405.74 432.51 404.42 431.85 402.7 431.94 400.57 429.18 402.24 428.18 403.87 428.34 408.37 427.52 409.45 425.66 409.44 423.62 409.06 422.31 408.98 422.99 409.84 422.84 411.96 421.71 413.39 419.3 412.05 416.76 408.76 415.16 407.21 409.68 405.25 406.05 399.47 403.51 398.16 402.31 397.85 400.98 397.07 398.74 395.25 397.66 394.69 396.76 395.01 395.81 395.64 394.65 395.86 389.53 395.77 387.82 394.82 387.42 392.14 391.12 393.69 389.95 391.94 385.01 387.44 385.01 386.06 385.76 384.43 385.96 383.11 384.37 382.52 382.52 382.93 381.79 384 381.87 385.57 382.52 387.44 379.56 386.48 378.96 384.48 379.21 381.87 378.78 379.01 377.3 377.23 375.46 375.74 374.09 373.74 374.09 370.37 372.75 370.37 371.33 373.14 369.5 375.39 367.2 377 364.36 377.7 364.51 374.09 364.32 372.06 362.99 371.33 359.63 371.59 359.52 371.98 359.59 372.81 359.37 373.66 358.31 374.09 357.35 373.96 333.85 363.03 328.44 358.38 330.55 354.73 330.55 353.42 328.02 354.28 326.55 353.82 326.81 352.88 329.34 352.23 326.55 350.25 323.62 350.9 320.68 352.53 317.79 353.42 314.72 352.88 296.17 345.16 293.75 343.3 292.3 340.92 290.67 335.37 290.19 334.29 286.87 333.92 284.69 332.89 279.78 329.36 278.36 329 276.77 328.96 275.51 328.64 274.99 327.49 272.6 324.97 272.04 324.54 265.47 313.61 265.15 311.96 265.73 311.09 265.81 310.28 264.62 309.29 265.49 308.26 268.81 306.01 271.67 304.8 276.17 301.34 280.68 299.84 291.05 299.1 294.36 299.7 296.16 301.5 301.87 303.3 305.47 304.65 308.92 306.82 309.25 308.66 311.6 316.45 319.37 319.98 320.79 320.1 322.68 320.06 323.9 319.48 328.03 316.83 330.11 316.04 331.48 316.32 332.68 317.11 333.75 318.06 335.08 318.94 336.45 318.94 339.95 317.82 341.44 317.93 342.66 318.44 343.26 319.13 344.83 322.85 345.39 323.87 346.37 324.9 350.78 327.28 351.98 328.1 355.64 331.42 360.02 333.05 362.72 335.46 367.83 335.6 370.99 333.95 377.14 336.66 381.21 336.8 386.75 339.96 389.32 341.91 391.12 343.42 393.83 344.62 396.53 347.02 398.34 348.52 402.09 348.52 404.49 347.48 407.5 346.72 409.45 346.58 411.86 348.08 414.56 349.28 417.72 350.18 423.58 350.48 426.28 349.58 427.64 345.97 429.29 343.42 431.55 342.07 434.25 339.81 435.65 335.98 435.66 335.97 Z" fill-rule="evenodd" id="NCL-1259" data-name="Sud"/>
<path d="M 435.66 335.97 435.65 335.98 434.25 339.81 431.55 342.07 429.29 343.42 427.64 345.97 426.28 349.58 423.58 350.48 417.72 350.18 414.56 349.28 411.86 348.08 409.45 346.58 407.5 346.72 404.49 347.48 402.09 348.52 398.34 348.52 396.53 347.02 393.83 344.62 391.12 343.42 389.32 341.91 386.75 339.96 381.21 336.8 377.14 336.66 370.99 333.95 367.83 335.6 362.72 335.46 360.02 333.05 355.64 331.42 351.98 328.1 350.78 327.28 346.37 324.9 345.39 323.87 344.83 322.85 343.26 319.13 342.66 318.44 341.44 317.93 339.95 317.82 336.45 318.94 335.08 318.94 333.75 318.06 332.68 317.11 331.48 316.32 330.11 316.04 328.03 316.83 323.9 319.48 322.68 320.06 320.79 320.1 319.37 319.98 311.6 316.45 309.25 308.66 308.92 306.82 305.47 304.65 301.87 303.3 296.16 301.5 294.36 299.7 291.05 299.1 280.68 299.84 276.17 301.34 271.67 304.8 268.81 306.01 265.49 308.26 264.62 309.29 264.61 309.28 264.17 308.91 262.95 308.94 261.37 309.51 260.28 310.07 260.42 310 259.82 312.49 258.27 313.33 256.68 312.46 255.83 310 254.51 311.09 253.15 311.96 251.6 312.15 249.62 311.19 252.94 307.79 252.54 304.86 249.78 303.29 245.91 303.98 247.39 301.34 246.57 299.57 242.38 296.75 240.8 299.13 241.35 302.84 239.99 305.18 238.09 306.27 236.37 305.87 234.95 304.55 233.96 302.67 234.67 301.28 234.78 299.76 235.36 298.24 236.37 296.75 235.04 295.23 233.79 294.85 232.46 294.67 230.91 293.76 229.92 292.65 228.72 290.64 215.71 275.82 214.85 273.4 214.59 269.63 214.7 266.86 214.48 263.74 213.07 261.87 209.7 262.96 209.91 260.67 210.2 260.12 210.99 259.35 210.99 258.03 209.83 258.01 209 257.74 207.29 256.97 208.32 255.6 208.11 254.87 206.86 254.87 204.88 255.76 204.45 257.8 202.46 258.06 200.84 256.71 200.16 253.95 199.04 253.81 196.88 254.14 195.46 255.13 196.55 256.97 195.42 258.23 194.14 259.35 190.9 251.09 188.66 247.7 185.74 246.01 189.12 243.73 187.59 242.22 183.89 240.79 180.92 238.67 183.7 238.44 185.16 237.32 185.35 235.71 184.42 233.99 182.24 232.8 179.97 232.56 178.47 231.81 178.39 229.06 177.3 229.06 174.55 230.78 171.8 229.53 167.58 225.56 165.73 225.07 162.12 224.97 160.24 224.24 159.49 223.32 157.28 219.42 153.36 218.71 150.2 216.84 142.51 209.38 137.25 206.06 134.88 203.71 133.13 200.89 134.28 200.75 136.89 201.18 139.67 200.19 141.04 197.44 139.96 195.13 137.38 193.55 134.28 192.96 131.66 191.07 127.77 182.81 124.53 180.93 119.22 168.79 118.23 169.43 117.42 169.6 116.6 169.72 115.61 169.99 113.83 166.88 102.65 159.97 99.98 156.12 97.94 148.91 97.57 146.43 96.68 143.53 94.62 142.21 92.24 141.34 90.46 139.7 89.63 136.09 91.65 135.7 96.38 137.29 98.06 135.44 98.75 132.46 98.77 127.07 98.06 125.84 96.25 123.53 94.06 121.33 92.06 120.34 83.77 119.96 81.71 119.14 82.89 116.82 83.03 114.51 81.91 113.33 79.41 114.32 80.16 116.08 79.17 118.06 77.44 119.67 75.8 120.34 73.19 119.65 72.37 118.02 71.9 116.38 70.39 115.62 67.8 113.88 68.4 110.4 71.64 108.02 77.02 109.5 78.65 107.42 77.97 105.29 74.61 101.2 76.68 100.37 77.97 98.65 78.18 96.38 77.02 94 74.4 92.03 72.29 92.39 70.06 93.54 67.3 94 67.3 92.65 68.2 91.95 68.77 91.16 69.69 89.07 67.14 88.26 66.25 86.63 66.45 84.45 67.3 81.95 68.66 82.14 71.1 81.95 74.4 83.85 77.84 86.57 80.59 89.52 82.35 93.71 84 94.7 87.95 96.38 100.95 110.89 103.59 113.22 111.77 117.59 115.3 118.18 119.22 116.83 120.31 116.83 122.62 121.72 124.5 123.54 127.66 123.96 126.06 121.79 123.5 115.8 122.35 110.09 122.72 108.73 124.36 108.68 156.05 120.21 161.67 124.86 171.07 136.19 173.6 138.43 177.13 140.81 180.83 142.64 183.87 143.4 189.35 148.12 191.16 148.91 196.55 150.63 199.07 152.87 204.01 159.08 206.73 160.37 208.24 161.6 214.59 169.99 223.72 177.72 225.45 177.86 230.79 180.99 233.52 183.46 232.66 185.75 235.76 187.79 242.91 188.07 245.91 190.55 249.24 191.67 255.78 196.66 274.39 200.19 274.92 200.54 276.34 202.17 277.37 202.69 277.98 202.47 278.86 201.87 279.93 201.32 281.1 201.27 283.27 202.01 284.06 202.64 284.6 203.5 285.93 204.88 290.19 208.29 291.53 210.62 290.74 213.31 292.52 220.54 294.35 223.07 297.02 224.89 299.74 226.36 301.9 228.16 302.78 230.91 304.26 231.47 313.6 232.67 316.78 233.65 317.73 234.57 316.98 240.45 315.86 244.42 315.4 245.47 314.63 246.74 314.92 247.9 315.62 249.05 316.01 250.27 316.61 253.3 318.07 255.22 323.89 259.3 328.86 261.81 331.15 263.56 333.43 265.93 334.76 266.43 339.32 266.7 340.62 267.26 340.96 268.41 340.27 270.3 341.3 269.9 341.76 269.82 342.08 269.63 342.71 268.98 348.1 273.2 350.42 275.55 351.11 277.39 352.03 277.96 352.52 278.48 353.38 279.91 350.42 279.87 347.71 279.18 345.18 277.98 342.71 276.33 343.48 277.99 345.13 280 347.24 281.63 349.31 282.32 351.11 283.44 352.45 286.02 353.57 288.86 354.73 290.75 358.81 292.45 369.44 295.01 372.75 298.07 377.87 296.8 382.6 299.24 386.1 303.49 387.42 307.59 390.52 306.9 392.37 314.37 395.83 317.31 393.99 313.81 393.82 312.49 394.65 311.19 396.26 310.28 397.92 310.34 399.44 311.45 400.65 313.61 401.62 312.05 401.84 310.14 401.13 308.16 399.33 306.38 402.48 307.16 405 310.14 411.13 320.84 412.32 323.84 411.52 325.34 407.77 324.54 409.05 326.38 416.28 330.55 415.24 332.17 416.65 332.34 418.8 331.77 419.9 331.15 419.46 328.9 418.43 327.24 417.22 325.89 416.28 324.54 414.81 320.32 414.44 317.08 415.76 315.85 419.3 317.81 424.72 323.33 426.54 323.82 430.92 324.34 432.54 325.14 432.91 326.33 431.68 326.89 430.14 327.29 429.64 328.05 430.4 328.81 431.59 329.16 433.14 329.36 433.57 331.22 433.89 334.49 434.35 336.57 435.66 335.97 Z M 108.3 91.56 111.05 95.2 107.67 94.36 102.66 91.82 98.53 89.04 97.67 85.83 97.57 78.22 98.77 78.22 106.6 88.08 108.3 91.56 Z M 66.14 79.06 65.71 80.58 64.87 81.95 63.67 79.43 61.03 80.29 59.4 78.94 57.66 74.64 57.66 73.29 58.86 71.89 59.85 67.7 61.26 67.3 62.92 68.73 64.33 73.55 66.09 75.7 66.26 77.45 66.14 79.06 Z M 15.17 25.91 10.51 29.9 5.27 18.62 4.59 14.72 4.9 7.5 3.93 4.92 1 3.19 2.08 1 4.92 2.42 6.98 4.97 10.59 13.26 11.81 18.94 12.82 21.46 14.77 24.58 15.17 25.91 Z" fill-rule="evenodd" id="NCL-559" data-name="Nord"/>
</g>
</svg>