<?xml version="1.0"?>
<svg xmlns="http://www.w3.org/2000/svg" version="1.2" baseProfile="tiny" width="800" height="770" viewBox="0 0 800 770" stroke-linecap="round" stroke-linejoin="round">
<g id="ne_10m_admin_1_states_provinces">
<path d="M 92.63 508.76 91.58 520.25 87.82 534.8 79.66 557.19 80.03 577.88 78.55 583.23 67.8 601.64 65.69 610.77 65.27 615.61 66.12 619.05 67.09 620.85 68.51 622.97 70.2 624.88 72.45 626.7 74.96 627.98 77.98 628.85 80.92 628.96 83.65 628.66 86.03 627.91 88.39 627.48 93.12 627.37 98.6 628.3 102.02 629.41 105.62 631.15 109.18 633.86 112.48 636.94 115.22 640.63 124.88 659.66 136.8 701.95 145.9 760.13 146.32 761.71 146.33 761.76 124.61 758.46 97.33 754.35 71.79 750.47 43.21 746.15 21.39 742.84 1 739.72 1 739.71 3.39 738.23 4.61 721.5 5.91 716.68 9.9 709.16 9.72 706.24 5.91 702.88 3.39 702.88 3.24 702.28 3.24 701.79 2.99 701.53 2.14 701.62 2.93 696.62 4.24 692.59 6.69 689.12 8.43 684.54 9.4 674.21 10.77 669.63 19.3 649.56 20.07 645.83 20.25 634.66 21.59 628.42 22.32 626.83 23.23 625.41 23.91 623.79 24.03 621.57 26.15 614.33 34.02 604.09 37 597.91 37 592.12 33.24 580.87 33.31 575.62 34.62 572.46 36.35 562.89 37.45 560.59 38.69 558.7 39.69 556.72 40.09 554.17 39.58 551.56 36.94 547.84 36.03 545.95 36.03 541.53 39.22 534.06 40.09 529.68 48.03 507.18 58.78 488.31 58.79 488.28 61.55 490.1 74.1 497.86 76.93 499.15 79.32 501.01 81.51 504.31 83.77 506.84 86.37 507.95 88.45 508.61 92.63 508.76 Z" id="JOR-849" data-name="Aqaba"/>
<path d="M 772.24 231.35 770.38 231.86 766.81 234.15 744.99 251.79 738.62 254.08 738.62 254.1 738.61 254.09 717.73 259.25 676.41 269.44 635.12 279.64 593.81 289.83 559.11 298.38 552.48 300.02 517.74 308.9 517.63 308.87 517.37 308.78 289.24 241.41 282.77 238.21 276.92 233.53 273.71 232.09 263.78 231.18 260.38 231.47 258.02 232.38 256.08 233.64 253.72 234.57 250.95 234.63 248.12 233.92 244.9 231.92 237.49 228.81 230.05 228.2 227.76 228.45 225.86 228.84 222.04 230.16 219.49 230.34 216.67 229.69 212.2 226.8 209.89 225.59 208.06 225.38 205.55 227.5 203.7 228.37 201.54 228.76 199.57 228.47 197.68 227.34 196.77 226.08 196.63 224.33 197.17 223.01 197.99 221.88 198.28 220.69 197.62 219.42 196.06 217.99 192.35 216.92 190.44 213.17 188.02 209.73 186.76 208.75 185.25 207.9 184.37 206.64 184.51 204.83 186.28 201.97 194.63 193.97 197.22 189.49 198.66 187.89 198.91 186.48 198.34 183.76 197.4 181.93 196.43 180.45 196.2 178.95 196.83 177.46 199.46 175.62 201.74 175.29 203.81 175.9 207.18 178.14 208.78 178.42 210.09 178.04 211.37 173.26 209.11 158.19 211.74 158.26 218.54 157.49 219.7 157.59 221.6 158.22 222.7 158.39 223.61 158.02 225.7 156.42 226.65 156.16 228.65 157.09 234.63 162.18 246.48 169.09 262.62 182.05 265.34 183.36 268.97 184.29 279.32 185.18 282.3 186.76 289.01 187.46 314.15 190.06 320.78 194.32 323.97 192.73 327.96 192.83 339.69 195.45 342.28 195.54 344.63 194.85 374.16 177.71 402.29 162.2 402.29 162.19 402.33 162.19 402.33 162.18 422.67 151.19 454.12 134.14 468.71 126.26 485.63 117.11 517.12 100.08 548.61 83.02 572.01 70.35 572.01 70.34 604.01 53.44 619.6 45.2 658.89 24.42 703.91 1 712.45 27.21 720.09 50.79 726.45 70.34 734.83 96.44 743.5 123.4 755.85 161.81 741.66 165.58 741.42 165.65 741.34 165.78 741.42 166.01 741.66 166.31 750.63 192.73 751.99 195.48 753.86 196.37 788.67 188.22 792.45 190.09 795.16 195.74 799 208.13 794.31 213.94 772.2 229.94 772.24 231.35 Z" id="JOR-850" data-name="Mafraq"/>
<path d="M 377.44 344.79 370.39 346.6 394.3 368.82 418.21 391.05 418.57 391.38 221.95 391.13 166.34 389.97 164.52 388.58 163.86 386.37 164.32 382.79 165 380.19 166.49 376.54 166.83 374.88 166.34 372.47 165.09 368.97 160.62 362.23 162.61 360.6 163.72 359.86 165.12 358.61 165.92 357.41 169.06 349.1 170.28 347.1 172.82 343.95 173.39 342.78 173.05 341.65 171.59 340.45 170.51 339.31 170.34 337.85 170.97 336.52 171.11 334.77 170 332.45 162.01 325.08 160.65 322.2 159.22 317.46 158.94 315.68 159.19 314.09 160.1 312.68 163.27 309.44 164.35 307.75 164.75 306.03 164.32 292.72 163.01 291.67 161.79 291.5 159.48 292.31 156.65 292.91 147.36 292.94 140.46 294.47 140.8 291.19 141.23 289.25 143.56 283.62 143.25 282.06 142.19 281.07 137.98 280.48 135.55 279.87 133.58 279.01 132.3 277.73 131.9 276.04 133.18 274.02 135.95 271.91 146.64 267.24 151.23 264.39 159.51 256.06 162.24 254.13 169.23 252.31 172.11 250.93 177.84 246.15 183.26 244.64 187.47 249.36 191.9 252.83 198.09 259.25 201.65 261.43 204.07 262.07 207.66 260.32 209.92 259.92 212.88 259.69 221.9 257.25 233.73 257.32 237.52 256.72 239.89 255.47 243.39 251.84 245.59 250.22 249.5 249.51 268.94 250.95 272.79 252.42 276.58 255.14 287.02 264.89 292.3 270.74 292.61 273.64 290.92 275.88 285.77 278.63 281.63 281.51 280.23 283.15 279.97 284.88 281.12 286.89 286.08 291.71 294.32 298.26 302.31 302.93 306.58 304.3 310.03 304.22 318.76 299.62 321.9 298.89 325.32 299.57 376.79 344.49 377.36 344.75 377.44 344.79 Z" id="JOR-851" data-name="Amman"/>
<path d="M 198.43 479.63 184.45 499.96 177.75 502.1 172.82 500.44 170.88 500.3 168.92 500.67 166.63 502.05 164.8 503.59 162.21 505.01 149.18 507.71 132.01 509.71 125.77 509.23 107.5 509.72 99.99 508.75 92.63 508.76 88.45 508.61 86.37 507.95 83.77 506.84 81.51 504.31 79.32 501.01 76.93 499.15 74.1 497.86 61.55 490.1 58.79 488.28 60.21 483.92 61.04 479.27 61.67 477.2 62.88 474.98 64.31 473.54 67.42 471.13 68.49 469.38 69.11 465.32 69.02 461.2 69.51 457.04 71.85 452.89 74.09 451.02 75.5 451.86 84.69 457.41 87.25 458.01 90.53 458.21 92.58 457.14 93.77 455.32 94.94 447.85 96.8 443.09 97.6 439.35 98.74 437.91 100.48 437.43 102.81 437.52 106.07 437.11 108.41 437.25 110.49 437.78 112.54 439.35 115.1 440.8 117.73 441.68 133.41 442.35 162.87 452.47 164.09 453.4 164.61 454.52 165.37 455.82 167.09 457.25 169.4 458.67 176.07 461.33 177.98 462.31 179.41 463.66 181.32 466.43 182.77 467.83 190.56 472.81 198.43 479.63 Z" id="JOR-852" data-name="Tafilah"/>
<path d="M 418.57 391.38 442.12 413.26 466.03 435.49 466.6 436.07 467.19 436.66 467.76 437.25 468.35 437.83 488.5 458.28 508.67 478.71 528.86 499.14 549.01 519.58 558.1 528.8 558.16 528.92 558.08 529 557.91 529.05 556.68 529.71 543.23 536.22 521.03 547 501.07 556.71 496.82 559.78 494.42 563.11 489.03 574.51 482.42 588.43 476.34 601.23 468.18 618.53 464.23 621.58 442.57 625.49 417.98 629.93 391.75 634.68 365.31 639.46 348.96 642.41 333.03 645.29 327.98 647.5 323.59 651.61 313.43 666.63 304.98 679.11 293.52 696.03 281.73 713.45 267.56 723.69 246.2 739.13 226.77 753.19 206.82 767.59 202.11 769.27 197.08 769.44 177.98 766.55 156.8 763.35 146.33 761.76 146.32 761.71 145.9 760.13 136.8 701.95 124.88 659.66 115.22 640.63 112.48 636.94 109.18 633.86 105.62 631.15 102.02 629.41 98.6 628.3 93.12 627.37 88.39 627.48 86.03 627.91 83.65 628.66 80.92 628.96 77.98 628.85 74.96 627.98 72.45 626.7 70.2 624.88 68.51 622.97 67.09 620.85 66.12 619.05 65.27 615.61 65.69 610.77 67.8 601.64 78.55 583.23 80.03 577.88 79.66 557.19 87.82 534.8 91.58 520.25 92.63 508.76 99.99 508.75 107.5 509.72 125.77 509.23 132.01 509.71 149.18 507.71 162.21 505.01 164.8 503.59 166.63 502.05 168.92 500.67 170.88 500.3 172.82 500.44 177.75 502.1 184.45 499.96 198.43 479.63 219.96 445.08 229.33 419.4 225.03 409.17 221.95 391.13 418.57 391.38 Z" id="JOR-853" data-name="Ma`an"/>
<path d="M 209.11 158.19 211.37 173.26 210.09 178.04 208.78 178.42 207.18 178.14 203.81 175.9 201.74 175.29 199.46 175.62 196.83 177.46 196.2 178.95 196.43 180.45 197.4 181.93 198.34 183.76 198.91 186.48 198.66 187.89 197.22 189.49 191.13 189.27 185.42 187.87 182.97 188.5 176.67 190.79 172.71 186.05 169.09 183.57 168.18 182.06 167.38 179.66 166.14 179.19 164.83 179.91 163.52 181.47 161.33 182.56 158.34 182.94 153 182.68 149.98 183.19 144.39 185.8 139.97 186.87 135.35 186.6 132.16 186.81 129.54 187.76 127.74 189.69 126.45 192.54 123.63 204.04 123.94 206.84 125.05 209.82 127.6 214.78 128.05 216.37 127.91 217.45 127.09 219.28 114.3 217.98 113.13 218.08 115.51 209.4 113.1 209.4 113.4 208.38 113.9 207.71 114.6 207.21 115.51 206.77 114.05 204.62 113.36 201.13 113.42 197.62 114.24 195.48 112.57 192.75 112.72 187.24 111.73 185.45 111.73 184.18 113.1 184.18 113.1 185.45 114.24 185.45 113.93 183.78 113.38 182.37 112.62 181.23 111.73 180.42 111.29 179.83 110.48 177.8 112.26 177.5 113.04 176.99 112.87 176.25 111.73 175.29 111.73 174.15 113.1 174.15 112.81 173.29 112.51 173.16 112.13 173.23 111.73 172.9 114.24 171.53 113.1 170.27 114.35 169.8 115.51 169.13 115.51 167.76 114.69 167.62 114.2 167.37 113.78 167.03 113.1 166.62 113.44 165.39 114.12 164.14 115.23 163.16 116.88 162.75 116.88 161.6 115.15 160.07 114.77 159.29 113.46 157.66 112.7 157.63 111.73 157.72 111.73 156.48 114.24 156.48 113.73 155.3 113.1 151.45 114.24 152.71 115.07 150.74 115.51 150.08 115.76 150.75 115.85 151.19 116.12 151.08 116.88 150.08 115.85 147.81 115.28 143.07 114.24 141.42 114.24 140.05 115.51 140.05 115.51 138.9 113.95 138.12 113.21 136.8 113.31 135.29 113.71 134.68 115.02 134.21 116.65 132.99 119.42 129.88 122.8 127.82 122.82 127.82 127.17 128.26 130.12 126.97 136.21 122.36 146.32 116.98 149.49 116.29 149.52 116.28 150.66 115.8 151.75 115.6 152.7 115.74 153.48 116.25 153.48 116.26 153.46 116.28 153.46 116.29 155.15 118.11 174.9 121.99 176.65 122.85 179.82 125.57 180.73 125.83 183.1 125.81 183.81 126.13 184.09 127.35 183.84 128.54 183.26 129.29 182.57 129.21 184.24 130.96 185.86 132.25 187.78 132.82 190.43 132.4 194.73 132.68 195.58 134.77 195.03 137.9 195.16 141.35 196.89 144.43 205.17 155.07 206.2 157.21 206.24 158 206.9 158.13 209.11 158.19 Z" id="JOR-854" data-name="Irbid"/>
<path d="M 176.67 190.79 172.76 192.61 170.77 193.34 167.91 194.95 165 197.4 161.9 201.56 160.62 204.58 160.1 207.14 160.25 208.89 159.82 210.53 158.17 212.13 145.64 216.95 137.98 224.36 133.18 223.53 130.08 222.45 127.09 219.28 127.91 217.45 128.05 216.37 127.6 214.78 125.05 209.82 123.94 206.84 123.63 204.04 126.45 192.54 127.74 189.69 129.54 187.76 132.16 186.81 135.35 186.6 139.97 186.87 144.39 185.8 149.98 183.19 153 182.68 158.34 182.94 161.33 182.56 163.52 181.47 164.83 179.91 166.14 179.19 167.38 179.66 168.18 182.06 169.09 183.57 172.71 186.05 176.67 190.79 Z" id="JOR-855" data-name="Ajlun"/>
<path d="M 197.22 189.49 194.63 193.97 186.28 201.97 184.51 204.83 184.37 206.64 185.25 207.9 186.76 208.75 188.02 209.73 190.44 213.17 192.35 216.92 191.73 220.79 190.81 222.41 189.25 223.78 186.85 224.73 183.94 226.2 181.8 227.63 174.93 235.48 168.18 231.2 166.8 229.65 164.72 227.87 162.16 226.93 158.54 226.35 142.56 226.69 140.11 226.49 138.23 225.9 137.98 224.36 145.64 216.95 158.17 212.13 159.82 210.53 160.25 208.89 160.1 207.14 160.62 204.58 161.9 201.56 165 197.4 167.91 194.95 170.77 193.34 172.76 192.61 176.67 190.79 182.97 188.5 185.42 187.87 191.13 189.27 197.22 189.49 Z" id="JOR-856" data-name="Jarash"/>
<path d="M 127.09 219.28 130.08 222.45 133.18 223.53 137.98 224.36 138.23 225.9 140.11 226.49 142.56 226.69 158.54 226.35 162.16 226.93 164.72 227.87 166.8 229.65 168.18 231.2 174.93 235.48 175.98 240.23 176.92 241.17 178.41 242.36 179.67 242.83 183.26 244.64 177.84 246.15 172.11 250.93 169.23 252.31 162.24 254.13 159.51 256.06 151.23 264.39 146.64 267.24 135.95 271.91 133.18 274.02 131.9 276.04 132.3 277.73 133.58 279.01 135.55 279.87 137.98 280.48 142.19 281.07 143.25 282.06 143.56 283.62 141.23 289.25 140.8 291.19 140.46 294.47 138.09 295.67 133.18 296.05 130.9 296.64 128.68 297.9 127.57 299.14 125.42 304.09 122.4 308.77 120.1 310.68 117.53 311.72 104.89 311.11 102.64 310.88 107.25 301.75 113.1 296.18 109.22 286.27 109.22 284.9 111.2 282.61 106.72 267.9 107.23 266.41 108.37 265.87 109.64 265.56 110.48 264.71 110.61 263.25 109.53 261.22 109.22 259.69 109.11 257.18 108.71 255.22 106.72 250.91 106.38 242.43 107.38 239.26 110.48 237.11 108.54 234.83 108.65 232.7 111.73 228.22 110.76 227.04 110.76 226.04 111.6 225.22 113.1 224.56 113.1 223.19 112.32 221.01 113.13 218.08 114.3 217.98 127.09 219.28 Z" id="JOR-857" data-name="Balqa"/>
<path d="M 160.62 362.23 152.4 360.61 148.53 360.54 142.25 361.06 136.57 362.62 134.04 362.6 130.56 362 112.14 356.73 98.23 356.25 94.3 357.16 94.56 346.48 94.49 346.42 94.6 346.49 94.68 346.43 94.66 346.26 94.6 345.97 95.61 332.34 98.53 319.01 102.64 310.88 104.89 311.11 117.53 311.72 120.1 310.68 122.4 308.77 125.42 304.09 127.57 299.14 128.68 297.9 130.9 296.64 133.18 296.05 138.09 295.67 140.46 294.47 147.36 292.94 156.65 292.91 159.48 292.31 161.79 291.5 163.01 291.67 164.32 292.72 164.75 306.03 164.35 307.75 163.27 309.44 160.1 312.68 159.19 314.09 158.94 315.68 159.22 317.46 160.65 322.2 162.01 325.08 170 332.45 171.11 334.77 170.97 336.52 170.34 337.85 170.51 339.31 171.59 340.45 173.05 341.65 173.39 342.78 172.82 343.95 170.28 347.1 169.06 349.1 165.92 357.41 165.12 358.61 163.72 359.86 162.61 360.6 160.62 362.23 Z" id="JOR-858" data-name="Madaba"/>
<path d="M 160.62 362.23 165.09 368.97 166.34 372.47 166.83 374.88 166.49 376.54 165 380.19 164.32 382.79 163.86 386.37 164.52 388.58 166.34 389.97 221.95 391.13 225.03 409.17 229.33 419.4 219.96 445.08 198.43 479.63 190.56 472.81 182.77 467.83 181.32 466.43 179.41 463.66 177.98 462.31 176.07 461.33 169.4 458.67 167.09 457.25 165.37 455.82 164.61 454.52 164.09 453.4 162.87 452.47 133.41 442.35 117.73 441.68 115.1 440.8 112.54 439.35 110.49 437.78 108.41 437.25 106.07 437.11 102.81 437.52 100.48 437.43 98.74 437.91 97.6 439.35 96.8 443.09 94.94 447.85 93.77 455.32 92.58 457.14 90.53 458.21 87.25 458.01 84.69 457.41 75.5 451.86 74.09 451.02 79.05 446.9 81.1 443.57 81.08 437.81 82.26 432.42 90.88 417.76 91.75 412.53 90.46 407.5 87.72 402.92 85.77 399.22 84.02 394.5 83.01 389.47 85.31 385 87.9 381.14 88.2 377.17 86.83 375.84 90.25 370.55 93.52 363.17 94.26 359 94.3 357.16 98.23 356.25 112.14 356.73 130.56 362 134.04 362.6 136.57 362.62 142.25 361.06 148.53 360.54 152.4 360.61 160.62 362.23 Z" id="JOR-859" data-name="Karak"/>
<path d="M 517.74 308.9 506.96 311.66 461.43 323.31 415.91 334.95 377.44 344.79 377.36 344.75 376.79 344.49 325.32 299.57 321.9 298.89 318.76 299.62 310.03 304.22 306.58 304.3 302.31 302.93 294.32 298.26 286.08 291.71 281.12 286.89 279.97 284.88 280.23 283.15 281.63 281.51 285.77 278.63 290.92 275.88 292.61 273.64 292.3 270.74 287.02 264.89 276.58 255.14 272.79 252.42 268.94 250.95 249.5 249.51 245.59 250.22 243.39 251.84 239.89 255.47 237.52 256.72 233.73 257.32 221.9 257.25 212.88 259.69 209.92 259.92 207.66 260.32 204.07 262.07 201.65 261.43 198.09 259.25 191.9 252.83 187.47 249.36 183.26 244.64 179.67 242.83 178.41 242.36 176.92 241.17 175.98 240.23 174.93 235.48 181.8 227.63 183.94 226.2 186.85 224.73 189.25 223.78 190.81 222.41 191.73 220.79 192.35 216.92 196.06 217.99 197.62 219.42 198.28 220.69 197.99 221.88 197.17 223.01 196.63 224.33 196.77 226.08 197.68 227.34 199.57 228.47 201.54 228.76 203.7 228.37 205.55 227.5 208.06 225.38 209.89 225.59 212.2 226.8 216.67 229.69 219.49 230.34 222.04 230.16 225.86 228.84 227.76 228.45 230.05 228.2 237.49 228.81 244.9 231.92 248.12 233.92 250.95 234.63 253.72 234.57 256.08 233.64 258.02 232.38 260.38 231.47 263.78 231.18 273.71 232.09 276.92 233.53 282.77 238.21 289.24 241.41 517.37 308.78 517.63 308.87 517.74 308.9 Z" id="JOR-860" data-name="Zarqa"/>
</g>
</svg>