<?xml version="1.0"?>
<svg xmlns="http://www.w3.org/2000/svg" version="1.2" baseProfile="tiny" width="800" height="648" viewBox="0 0 800 648" stroke-linecap="round" stroke-linejoin="round">
<g id="ne_10m_admin_1_states_provinces">
<path d="M 169.69 124.14 167.78 126.42 167.37 129.69 167.7 136.27 167.28 141.23 169.48 149.99 169.21 152.76 167.52 155.99 166.05 157.88 165.22 160.12 165.52 193.28 142.41 194.13 137.88 193.22 133.85 191.36 130.5 189.3 128.67 188.74 121.08 189.6 101.13 195.64 98.98 196.3 88.95 195.44 75.98 192.19 71.17 189.83 68.66 187.42 66.23 189.66 64.97 191.42 61.68 194.96 60.41 194.93 54.5 193.8 50.33 188.32 7.58 184.88 3.43 184.79 3.51 183.02 3.41 181.81 2.82 180.44 1.2 177.9 1 176.29 3.83 172.74 9.72 172.09 21.91 173.1 31.1 172.35 34.01 171.35 41.09 167.33 43.83 166.58 38.52 163.18 35.29 160.08 35.49 156.9 40.31 153.26 55.46 146.03 59.03 143.03 59.64 141.61 59.84 138.51 60.21 136.98 60.94 135.71 63.62 132.43 64.84 129.8 67.43 121.59 70.21 116.77 73.91 113.17 82.59 106.54 84.81 104.04 85.35 102.11 85.28 99.86 85.79 96.4 86.85 94.05 89.98 89.67 91.06 87.24 91.43 84.28 91.47 82.3 91.48 81.63 92.17 79.2 94.5 76.87 97.04 75.71 102.59 74.15 105.16 72.68 106.98 71.16 109.03 72.04 116.09 77.09 117.8 77.89 118.58 78.47 119.37 79.24 120.59 81.4 121.89 84.68 122.84 86.49 123.36 86.98 124.23 87.53 125.84 87.96 133.13 88.87 133.51 89.17 133.58 89.94 133.53 90.62 132.11 98.13 132.18 99.02 132.99 99.13 133.79 99.1 134.51 98.97 135.84 98.93 136.31 98.98 138.23 100.48 144.17 107.01 148.42 101.85 150.57 99.82 154.15 97.57 156.02 106.56 156.18 106.98 157.12 107.88 166.14 114.92 167.26 116 169.3 119.39 169.69 124.14 Z" id="KHM-1777" data-name="Bântéay Méanchey"/>
<path d="M 165.52 193.28 168.41 196.74 169.55 197.62 170.85 198.37 173.11 198.8 178.07 197.94 183.18 199.94 185.5 200.35 186.24 200.66 186.98 201.28 188.73 203.67 189.73 204.51 191.02 205.22 193.25 206.01 205.3 208.28 207.47 210.13 211.55 217.76 217.27 226.45 226.27 235.91 214.51 247.51 208.34 252.19 207.66 252.85 207.05 253.7 206.8 254.87 207.15 256.32 207.92 257.36 208.52 257.93 209.51 258.56 210.37 259.29 210.77 260.52 210.37 262.1 207.78 265.73 207.01 267.12 206.82 268.91 206.84 269.84 207.03 271.07 206.96 272.28 206.54 273.51 205.28 274.95 204.27 275.7 203.29 276.25 200.25 277.5 199.74 277.89 199.01 278.75 198.47 280.1 198.22 282.16 198.57 283.58 199.27 284.49 200.44 284.91 200.76 285.14 201 285.46 201.18 285.83 201.28 286.34 201.25 286.58 201.18 287.16 198.22 295.37 198.31 296.52 199.21 300.45 200.18 302.55 201.18 306.38 201.21 306.97 201.11 307.6 200.11 309.98 196.98 314.63 196.68 315.37 196.58 315.67 195.18 318.6 194.17 319.76 192.74 320.94 190.29 322.29 185.85 323.73 180.59 324.28 170.16 321.68 155.6 319.9 152.52 320.29 139.89 323.75 133.25 326.43 129.84 328.77 127.16 330.21 125.51 330.53 121.19 330.57 118.27 331.2 117.07 331.73 116.42 332.15 115.86 333.04 115.53 333.4 114.83 333.78 113.78 334.15 112.26 334.35 111.09 334.38 110.06 334.29 109.17 334.14 107.4 333.47 105.37 331.75 104.48 330.83 104.15 330.61 103.29 330.71 102.68 330.94 99.78 334.25 98.09 336.44 96.92 337.13 88.81 340.38 85.99 341.97 83.79 342.77 82.22 343.15 80.82 343.36 79.7 344.03 76.96 346.24 75.91 346.73 74.97 346.89 74.3 346.79 73.69 346.62 73.34 346.45 73.1 346.3 72.47 345.78 68.84 344.38 68.59 342.75 66.86 340.8 62.01 338.25 59.96 336.08 59.56 334.91 59.31 332.38 58.75 331.15 57.69 330.15 53.94 327.96 42.45 316.57 37.94 313.35 29.38 310.55 28.49 309.89 28.5 309.89 31.68 308.92 53.26 303.82 65.13 296.71 67.3 292.8 68.01 286.52 67.99 266.92 67.14 257.8 65.34 251.32 62.47 246.35 58.89 242.61 55.33 240.72 51.69 240.39 48.54 241.46 45.49 243.39 43.44 246.26 42.69 248.76 42.64 251.65 42.08 254.86 40.7 256.83 38.2 257.71 36.15 258.03 31.59 258.03 27.62 258.52 27.62 258.38 25.06 256.87 23.56 254.89 21.16 250.14 14.33 242.28 11.34 237.21 3.37 216.72 3.23 216.34 3.06 205.75 4.04 196.59 3.41 185.2 3.43 184.79 7.58 184.88 50.33 188.32 54.5 193.8 60.41 194.93 61.68 194.96 64.97 191.42 66.23 189.66 68.66 187.42 71.17 189.83 75.98 192.19 88.95 195.44 98.98 196.3 101.13 195.64 121.08 189.6 128.67 188.74 130.5 189.3 133.85 191.36 137.88 193.22 142.41 194.13 165.52 193.28 Z" id="KHM-1778" data-name="Batdâmbâng"/>
<path d="M 152.27 623.21 153.35 623.28 154.38 622.43 154.77 621.77 155.04 621.84 155.48 622.4 155.48 623.51 154.85 624.68 154.16 626.35 153.17 627.61 151.55 626.63 148.45 621.89 147.39 619.49 147.98 617.43 150 616.62 151.71 616.42 152.57 616.74 152.87 617.79 151.41 619.86 151.32 620.55 151.25 621.31 151.51 622.5 152.27 623.21 Z M 146.21 598.12 147.06 598.35 148.03 598.27 148.86 598.5 149.19 599.61 149.84 600.19 151.14 600.38 152.27 601.11 152.37 603.26 150.38 603.95 148.61 604.8 147.17 606.15 146.21 608.4 144.92 607.35 144.23 605.61 143.86 603.98 143.6 603.26 143.71 602.9 138.91 601.11 136.62 599.26 134.85 597.11 134.34 594.89 135.82 592.88 138.86 591.83 141.36 592.54 143.42 594.22 145.19 596.06 145.52 596.56 145.81 597.61 146.21 598.12 Z M 103.48 496.26 103.75 496.94 105.44 495.51 106.9 495.35 108.07 496.24 109.95 500.04 110.05 501.67 109.88 503.22 110.02 505.17 110.72 506.87 111.5 508.15 111.76 509.24 110.96 510.32 111.75 512.37 111.64 515.18 110.96 517.9 110.02 519.67 107.96 520.65 105.57 520.66 104.14 519.89 104.87 518.55 103.22 516.91 102.7 513.76 102.82 508.26 101.67 501.83 101.64 498.12 102.82 494.89 103.06 495.54 103.48 496.26 Z M 109.69 494.05 108.99 494.89 107.5 494.77 107.38 493.26 107.96 489.74 106.6 487.3 104.63 484.48 103.81 481.7 105.81 479.36 108.41 480.89 108.99 481.42 109.33 482.2 109.31 482.93 109.14 483.42 108.99 483.48 109.75 484.9 111.45 487.37 112.08 488.62 112.08 489.74 111.38 490.8 109.69 494.05 Z M 246.34 560.76 233.39 571.58 230.92 573.18 229.87 573.59 228.77 573.77 228.04 573.81 224.86 573.56 223.88 574.13 223 575.12 221.88 577.57 221.43 578.84 221.17 579.91 221.11 581.81 220.93 583.04 220.75 583.61 220.28 584.5 218.04 588.08 216.96 590.25 216.75 590.83 216.47 591.41 215.77 592.36 212.25 595.48 208.19 597.79 208.19 597.09 206.21 596.48 205.7 595.57 206.58 589.04 207.08 587.83 208.34 586.79 210.1 585.87 211.9 584.62 213.26 582.51 213.56 580.78 213.26 574.93 211 569.62 206.66 562.07 203.79 554.61 206.06 549.5 203.17 547.27 201.73 546.7 197.26 546.22 195.43 545.43 194.1 544.28 192.34 538.89 189.08 536.15 184.72 534.57 180.16 534.07 180.49 534.6 180.54 534.72 180.68 534.78 181.27 535.1 179.22 538.18 178.1 538.18 177.4 537.15 176.93 536.74 175.01 536.22 175.01 537.15 175.91 538.95 174.98 541.17 171.92 545.47 174.98 544.13 175.27 545.67 174.14 548.41 170.31 555.31 169.34 558.11 168.92 561.46 167.25 565.41 166.88 567.17 167 568.62 167.73 571 167.89 572.78 167.06 575.04 165.01 576.51 162.58 577.03 160.61 576.42 159.97 577.14 159.27 577.63 157.51 578.39 156.27 574.84 153.1 572.71 149.34 571.14 146.21 569.23 140.04 572.93 137.42 575.29 137.98 577.45 135.88 577.38 134.08 577.69 132.68 578.4 131.72 579.51 128.81 578.07 125.32 577.71 123.52 576.97 125.54 574.37 120.91 570.79 119.78 570.25 118.83 569.04 119.54 566.45 120.76 564.06 121.43 563.48 121.09 558.8 119.62 551.09 119.27 546.97 119.77 545.55 120.81 543.96 121.9 541.94 122.36 539.21 122.16 536.63 121.55 534.82 119.27 530.98 118.92 529.83 118.75 528.57 118.48 527.33 117.78 526.3 116.79 526.04 113.81 525.99 113.11 525.83 113.41 524.16 115.14 523.15 116.37 522.15 115.17 520.6 115.17 519.67 116.31 517.89 120.35 514.04 124.63 511.46 126.57 513.49 127.51 513.49 127.35 511.17 125.89 507.33 125.54 505.17 123.37 506.02 122.38 506.53 121.43 507.32 119.54 505.46 118.97 503.78 118.89 501.79 118.34 499 117.36 496.75 115.12 493.63 114.14 491.71 115.39 492.08 115.84 492.15 115.98 492.53 116.3 493.86 117.23 493.86 118.19 492.2 119.73 490.91 121.68 490.06 124 489.74 126.02 490.57 128.41 494.15 130.69 494.89 125.94 486.02 124.52 484.6 125.2 482.97 125.54 482.45 124.52 482.45 124.17 483 123.49 484.6 124.11 485.8 123.82 487.16 122.82 488.26 121.43 488.62 119.93 487.89 118.15 485.19 114.14 483.22 113.06 479.97 112.92 476.19 113.11 473.19 112.08 474.22 112.57 471.14 113.11 470.02 111.72 469.96 110.96 469.56 110.02 467.96 110.07 473.18 109.8 475.54 108.99 477.31 107.96 477.31 106.35 476.78 104.21 477.26 102.12 478.29 100.68 479.36 97.59 475.16 100.68 473.19 101.45 474.16 103.75 476.28 104.87 476.28 104.34 474.79 102.69 472.81 101.79 471.14 101.79 464.96 103.5 463.32 105.61 464.01 108.11 465.16 110.96 464.96 110.96 463.84 109.1 464.01 107.6 463.58 106.47 462.77 105.81 461.79 105.81 460.76 106.96 460.76 106.96 459.73 105.37 460.41 104.87 460.76 103.75 460.76 103.58 459.65 102.82 457.67 101.79 457.67 101.79 460.76 100.68 459.73 100.68 462.9 99.73 462.9 99.97 458.73 100.79 455.55 102.37 453.2 104.87 451.5 106.37 450.84 107.69 450.54 108.99 450.85 110.5 451.97 112.35 452.81 114.47 452.4 116.3 451.16 117.23 449.44 116.3 449.44 114.95 451.35 112.87 451.21 110.66 449.92 108.99 448.41 107.96 448.41 101.79 451.5 100.94 450.57 99.87 448.69 98.99 446.54 98.62 444.82 97.81 443.56 94.28 441.72 89.26 434.01 88.32 434.01 90.56 438.94 97.92 446.58 99.73 451.5 99.39 454.02 97.63 458.48 97.59 460.76 99.16 467.21 98.97 469.85 97.59 473.19 97.3 471.27 95.86 468.55 95.53 466.41 94.98 465.43 92.33 462.92 91.41 461.79 93.7 458.35 93.15 449.75 91.45 443.76 87.13 437.41 80.78 428.62 73.87 415.53 72.36 408.05 69.94 402.81 69.03 401.73 69.05 401.73 71.42 401.76 104.55 404.06 110.43 406.48 113.52 408.2 117.28 409.82 121.11 411.05 123.88 411.48 126.44 411.53 128.18 411.04 132.12 408.68 134.56 407.91 148.68 404.07 154.64 400.78 157.59 398.14 161.95 392.91 163.88 389.79 165.26 388.31 166.52 387.87 170.52 387.87 174.72 387.08 178.44 387.01 182.6 388.23 183.69 388.72 184.75 389.42 186.43 390.96 187.3 391.54 190.97 393.18 191.37 393.45 197.42 399.42 199.91 402.97 201.07 404.2 202.35 405.24 205.58 407.17 208.01 408.36 212.29 409.93 214.84 410.59 217.36 411.65 217.83 412.02 222.44 414.03 223.86 414.85 227.13 417.47 232.86 420.99 234.52 422.23 223.91 423.77 223.25 424.08 222.95 424.29 222.69 424.63 222.51 425.17 222.39 426.17 222.44 427.28 222.62 428.41 222.95 429.49 223.09 430.91 223 432.76 222.02 435.64 221.62 437.48 221.45 439.11 221.71 441.93 224.56 452.62 224.73 454.16 224.62 456.7 224.68 457.93 224.91 458.92 225.33 459.77 225.78 460.24 226.31 460.61 227.81 461.13 228.98 461.42 232.04 464.28 242.65 471 244.15 472.28 245.3 474.23 245.86 474.7 246.39 474.95 248.45 475.38 249.18 475.27 250.72 474.76 251.91 474.51 253.69 474.59 256.36 475.26 258.99 476.7 263.22 478.15 266.03 480.84 266.13 481.7 266.1 482.7 264.42 485.1 263.5 486.92 263.49 488.18 263.77 489.4 265.99 493.84 266.55 494.74 268.51 496.78 269.86 498.7 271.88 502.49 272.63 504.56 272.84 506.12 272.56 506.87 272.07 507.5 270.9 508.57 270.24 509.73 269.72 511.39 269.09 514.9 269 516.48 269.05 517.53 269.54 518.44 269.84 518.83 271.19 520.2 272.17 521.39 276.88 534.85 271.74 535.97 271.13 536.3 270.32 536.86 269.37 540.48 269.23 540.79 264.89 548.28 262.71 550.88 261.96 551.26 260.4 551.86 259.16 551.8 258.01 551.45 257.02 550.96 255.91 550.57 255.14 550.73 254.39 551.15 252.96 552.59 246.34 560.76 Z" fill-rule="evenodd" id="KHM-1779" data-name="Kaôh Kong"/>
<path d="M 283.96 295.59 291.35 304.32 316.11 325.38 315.66 331.52 315.68 333.1 314.51 338.48 314.4 340.46 315.12 343.13 314.87 343.95 314.21 344.99 310.05 348.88 309.18 350.21 307.78 354.23 306.92 356.13 306.62 356.64 305.88 357.49 304.79 358.44 302.05 360.11 301.26 360.41 300.72 360.51 299.65 360.84 298.39 361.66 295.98 363.86 295.2 364.36 294.53 364.71 289.99 365.66 289.04 365.99 288.66 366.18 288.21 366.67 283.94 372.4 283.24 374.61 282.21 380.81 284.99 392.2 282.51 394.83 281.63 395.5 280.33 396 277.72 395.36 276.48 395.35 273.21 395.71 271.89 396.22 270.59 397.65 269.86 398.93 268.25 403.59 267.36 404.86 264.44 407.78 264 408.63 264.19 409.42 265.94 411.34 266.2 411.78 265.71 412.16 257.73 416.22 256.12 416.71 254.35 416.64 253.36 416.36 252.56 415.73 250.63 413.26 249.76 412.48 248.73 411.79 247.66 411.35 246.76 411.1 245.77 411.53 244.64 412.6 242.33 415.48 240.88 416.96 239.49 417.73 238.92 417.86 238.12 418.35 237.62 418.77 234.52 422.23 232.86 420.99 227.13 417.47 223.86 414.85 222.44 414.03 217.83 412.02 217.36 411.65 214.84 410.59 212.29 409.93 208.01 408.36 205.58 407.17 202.35 405.24 201.07 404.2 199.91 402.97 197.42 399.42 191.37 393.45 190.97 393.18 187.3 391.54 186.43 390.96 184.75 389.42 183.69 388.72 182.6 388.23 178.44 387.01 174.72 387.08 170.52 387.87 166.52 387.87 165.26 388.31 163.88 389.79 161.95 392.91 157.59 398.14 154.64 400.78 148.68 404.07 134.56 407.91 132.12 408.68 128.18 411.04 126.44 411.53 123.88 411.48 121.11 411.05 117.28 409.82 113.52 408.2 110.43 406.48 104.55 404.06 71.42 401.76 69.05 401.73 69.03 401.73 66.95 399.26 59.23 387.54 58.06 381.55 61.5 356.89 62.26 354.03 63.86 351.18 67.75 347.84 69.05 345.72 68.84 344.38 72.47 345.78 73.1 346.3 73.34 346.45 73.69 346.62 74.3 346.79 74.97 346.89 75.91 346.73 76.96 346.24 79.7 344.03 80.82 343.36 82.22 343.15 83.79 342.77 85.99 341.97 88.81 340.38 96.92 337.13 98.09 336.44 99.78 334.25 102.68 330.94 103.29 330.71 104.15 330.61 104.48 330.83 105.37 331.75 107.4 333.47 109.17 334.14 110.06 334.29 111.09 334.38 112.26 334.35 113.78 334.15 114.83 333.78 115.53 333.4 115.86 333.04 116.42 332.15 117.07 331.73 118.27 331.2 121.19 330.57 125.51 330.53 127.16 330.21 129.84 328.77 133.25 326.43 139.89 323.75 152.52 320.29 155.6 319.9 170.16 321.68 180.59 324.28 185.85 323.73 190.29 322.29 192.74 320.94 194.17 319.76 195.18 318.6 196.58 315.67 196.68 315.37 196.98 314.63 200.11 309.98 201.11 307.6 201.21 306.97 201.18 306.38 200.18 302.55 199.21 300.45 198.31 296.52 198.22 295.37 201.18 287.16 201.25 286.58 201.28 286.34 201.18 285.83 201 285.46 200.76 285.14 200.44 284.91 199.27 284.49 198.57 283.58 198.22 282.16 198.47 280.1 199.01 278.75 199.74 277.89 200.25 277.5 203.29 276.25 204.27 275.7 205.28 274.95 206.54 273.51 206.96 272.28 207.03 271.07 206.84 269.84 206.82 268.91 207.01 267.12 207.78 265.73 210.37 262.1 210.77 260.52 210.37 259.29 209.51 258.56 208.52 257.93 207.92 257.36 207.15 256.32 206.8 254.87 207.05 253.7 207.66 252.85 208.34 252.19 214.51 247.51 226.27 235.91 278.58 288.25 283.96 295.59 Z" id="KHM-1780" data-name="Pouthisat"/>
<path d="M 324.15 53.36 324.1 56.07 323.54 59.14 323.49 64.04 323.35 65.22 322.98 66.02 322.28 66.46 321.67 66.99 321.13 67.85 321.22 68.63 321.58 69.22 326.16 74.72 329.26 77.02 330.02 77.71 330.17 78.12 329.94 78.73 329.29 79.31 326.6 81.26 325.76 82.15 324.19 84.47 322.99 87.06 322.23 94.14 315.43 112.96 315.08 114.72 315.15 115.81 315.08 117.74 314.59 118.97 313.95 120.18 308.37 127.81 308.3 128.55 308.86 129.07 310.66 129.32 311.45 129.56 312.1 130.11 312.64 131.04 313.7 133.75 314.04 134.27 314.56 134.63 315.17 135.01 315.73 135.6 316.34 138.62 316.71 139.94 317.23 140.92 317.81 141.73 318.42 142.9 318.81 144.17 319.74 151.66 319.56 153.39 319.09 154.95 317.48 158.18 316.81 160.29 316.67 161.75 316.78 162.97 317.09 164 317.48 164.94 318.04 166.02 318.65 166.84 319.3 167.31 319.84 167.55 322.61 168.21 335.86 170.12 348.83 173.49 350.63 173.62 354.37 172.28 354.93 171.97 356.42 170.82 357.53 170.69 357.73 171 357.83 171.6 357.55 172.48 344.87 189.23 343.13 192.47 342.15 195.36 339.95 215.05 338.78 217.93 337.99 218.97 336.07 220.58 334.73 221.29 329.4 223.21 328.51 223.66 328.05 224.3 327.63 225.3 326.97 227.62 325.76 240.82 326.02 244.65 325.84 245.51 325.41 246.02 324.12 245.98 323.31 245.74 322.48 245.73 322.14 246.06 321.87 246.97 321.62 249.42 321.39 250.37 316.2 259.12 314.12 266.94 312.86 270.22 312.24 270.77 311.17 271.59 308.58 273.19 304.42 275.02 303.99 275.27 302.08 276.69 298.2 278.69 296.31 280.1 289.95 287.09 289.19 288.57 287.82 293.19 283.96 295.59 278.58 288.25 226.27 235.91 217.27 226.45 211.55 217.76 207.47 210.13 205.3 208.28 193.25 206.01 191.02 205.22 189.73 204.51 188.73 203.67 186.98 201.28 186.24 200.66 185.5 200.35 183.18 199.94 178.07 197.94 173.11 198.8 170.85 198.37 169.55 197.62 168.41 196.74 165.52 193.28 165.22 160.12 166.05 157.88 167.52 155.99 169.21 152.76 169.48 149.99 167.28 141.23 167.7 136.27 167.37 129.69 167.78 126.42 169.69 124.14 173.86 122.17 176.71 121.48 182.62 120.83 185.61 120.05 188.01 118.74 194.53 113.51 197.28 112.16 205.77 109.25 207.89 107.86 226.91 88.37 232.56 84.78 242.87 80.41 266.2 70.3 266.87 68.41 267.41 67.44 267.57 66.49 267.29 65.59 266.06 64.42 264.02 63.08 263.11 61.68 262.52 60.47 261.89 53.74 261.87 53.37 261.97 53.32 266.19 51.29 271.68 49.83 272.58 50.28 273.35 51.18 274.42 51.95 276.31 52.01 277.44 51.46 281.18 47.48 281.42 46.68 281.75 46.25 283.05 46.29 282.58 46.83 282.72 48.18 283.58 49.55 285.4 50.2 288.09 49.47 290.09 47.92 292.36 46.72 295.94 47.02 304.1 50.26 321.24 52.7 322.27 53.11 323.27 53.37 324.15 53.36 Z" id="KHM-1781" data-name="Siemréab"/>
<path d="M 261.87 53.37 261.89 53.74 262.52 60.47 263.11 61.68 264.02 63.08 266.06 64.42 267.29 65.59 267.57 66.49 267.41 67.44 266.87 68.41 266.2 70.3 242.87 80.41 232.56 84.78 226.91 88.37 207.89 107.86 205.77 109.25 197.28 112.16 194.53 113.51 188.01 118.74 185.61 120.05 182.62 120.83 176.71 121.48 173.86 122.17 169.69 124.14 169.3 119.39 167.26 116 166.14 114.92 157.12 107.88 156.18 106.98 156.02 106.56 154.15 97.57 150.57 99.82 148.42 101.85 144.17 107.01 138.23 100.48 136.31 98.98 135.84 98.93 134.51 98.97 133.79 99.1 132.99 99.13 132.18 99.02 132.11 98.13 133.53 90.62 133.58 89.94 133.51 89.17 133.13 88.87 125.84 87.96 124.23 87.53 123.36 86.98 122.84 86.49 121.89 84.68 120.59 81.4 119.37 79.24 118.58 78.47 117.8 77.89 116.09 77.09 109.03 72.04 106.98 71.16 117.24 62.58 122.21 59.96 125.26 58.97 134.35 57.66 141.08 55.63 145.66 54.26 155.86 54.28 159.1 53.9 161.71 52.75 165.91 49.78 168.08 49.17 168.64 49.52 169.44 50.27 170.6 50.97 172.18 51.17 173.28 50.74 178.98 46.89 184.79 44.01 187.33 43.59 190.02 44.48 192.05 45.77 194.24 46.23 197.35 44.69 198.27 43.5 198.51 42.28 198.96 41.19 200.4 40.36 201.93 40.26 203.43 40.68 204.67 41.47 205.59 42.43 205.95 43.97 205.62 47.55 206.1 48.92 207.21 49.33 212.38 49.67 221.22 51.86 224.08 52.18 226.05 52.01 227.29 51.71 228.57 51.7 230.74 52.4 232.37 53.35 233.86 54.48 235.55 55.43 237.78 55.86 240.44 55.56 241.22 54.67 241.6 53.47 243 52.22 251.16 51.81 255.29 55.16 260.5 54.03 261.87 53.37 Z" id="KHM-1782" data-name="Otdar Mean Chey"/>
<path d="M 28.49 309.89 27.06 308.83 25.98 306.44 25.59 303.22 25.79 300.03 26.5 297.68 28.38 296.05 28.4 296.04 29.94 291.27 30.11 289.8 29.76 287.96 29.18 286.94 28.43 286.01 27.56 284.44 26.6 281.33 25.97 275.55 25.2 272.07 24.27 270.4 23.81 268.71 24.03 267.15 25.73 265.34 25.93 264.78 25.73 264.23 24.45 263.03 24.17 262.39 24.41 261.8 25.2 261.26 26.3 260.72 27.1 260.08 27.56 259.31 27.62 258.52 31.59 258.03 36.15 258.03 38.2 257.71 40.7 256.83 42.08 254.86 42.64 251.65 42.69 248.76 43.44 246.26 45.49 243.39 48.54 241.46 51.69 240.39 55.33 240.72 58.89 242.61 62.47 246.35 65.34 251.32 67.14 257.8 67.99 266.92 68.01 286.52 67.3 292.8 65.13 296.71 53.26 303.82 31.68 308.92 28.5 309.89 28.49 309.89 Z" id="KHM-1783" data-name="Krong Pailin"/>
<path d="M 615.95 413.59 617.17 417.05 621.63 425.26 622.48 428.97 622.09 429.35 619.86 432.91 619.69 433.91 619.6 436.76 619.39 438.06 618.35 440.21 617.11 442.21 616.3 444.28 616.47 446.66 620.57 453.56 621.85 456.89 621.91 457.06 620.53 459.35 618.57 459.4 616.65 458.38 613.34 456.07 611.24 455.36 609.75 455.12 608.15 455.29 599.67 457.46 597.67 457.13 596.32 456.05 594.15 452.72 593.02 451.44 590.07 449.87 579.67 446.66 573.43 446.54 565.6 444.16 558.7 443.02 555.19 446.66 555.07 448.75 554.68 450.78 553.83 452.63 549.64 456.95 548.27 460.1 546.45 462.24 542.14 462.03 534.97 459.43 532.4 459.94 529.41 462.45 529.42 462.39 529.55 461.72 531.05 458.08 531.24 455.71 530.98 454.76 530.16 454.38 524.77 455.25 524.35 455.25 522.56 454.93 521.33 454.54 520.23 454.08 518.97 453.38 515.33 450.67 511.11 446.71 500.21 446.62 481.54 443.4 476.07 442.86 475.04 442.59 473.31 441.92 472.79 441.6 472.37 441.29 471.63 440.36 471.16 439.61 469.38 435.48 467.1 432.31 458.2 428.82 455.36 428.21 453.72 428.49 452.47 429.03 450.94 429.91 448.21 432.04 446.85 433.38 441.03 438.64 429.01 446.55 416.72 444.14 413.72 442.77 413.56 442 413.44 439.41 413.51 438.79 413.67 438.24 413.95 437.69 414.41 437.38 414.89 437.28 416.2 437.13 416.84 436.77 417.09 436.19 416.91 435.32 416.37 434.73 415.9 434.38 410.26 431.63 405.59 425.17 402.78 424.53 402.13 427.75 401.5 428.33 400.77 427.87 400.26 427.72 399.26 427.84 398.6 428.42 398.09 429.18 395.79 434.96 395.16 435.76 394.52 436.1 393.97 435.95 393.27 435.96 392.45 436.18 391.21 436.86 390.51 437.13 389.88 437.06 388.92 436.15 386.02 435.5 385.51 435.07 384.73 434.19 384.29 434.04 383.99 434.18 383.71 434.56 383.36 434.82 382.59 434.97 382.1 434.5 381.91 433.63 381.97 432.55 381.55 429.83 378.42 424.75 383.27 413.99 384.41 412.18 385.04 411.51 385.77 410.97 386.44 410.63 387.14 410.44 387.77 410.37 391.45 411.05 392.15 410.91 392.45 410.52 392.36 409.98 391.61 409.33 390.27 409 390.12 408.66 389.85 407.92 389.71 401.86 389.51 400.98 389.29 400.36 387.05 397.93 385.93 396.89 385.77 396.28 385.77 395.43 387.1 392.29 388.17 387.86 390.68 382.03 390.89 381.29 390.68 379.22 388.76 373.03 392.36 370.11 394.34 369.16 395.47 369.08 401.06 369.42 401.87 369.56 402.34 369.77 402.71 370.02 405.75 373.34 410.45 374.72 420.48 375.56 420.9 375.75 422.66 377.19 423.23 377.46 423.75 377.58 424.53 377.49 425.37 377.15 426.75 376.72 430.65 376.29 434.38 379.2 435.7 379.44 436.26 379.05 436.42 378.81 436.53 378.44 436.49 377.91 436.28 376.84 435.93 375.83 430.83 364.58 430.72 361.39 430.55 360.57 430.32 359.94 426.77 354.59 426.4 353.39 426.41 352.57 426.83 352.29 428.78 351.4 431.02 349.69 431.53 349.45 432.12 349.29 434.55 349.57 435.74 349.5 436.96 349.25 438.06 349.17 439.33 349.3 439.97 349.44 441.26 349.52 445.68 349.37 446.26 349.5 446.8 349.69 447.27 349.91 448.44 350.84 448.91 351.08 449.44 351.28 450.05 351.39 452.05 351.51 452.69 351.62 453.21 351.78 453.7 352.04 454.06 352.35 454.4 352.72 454.68 353.14 455.15 354.03 455.4 354.43 455.73 354.78 456.1 355.08 456.55 355.36 457.22 355.5 458 355.45 459.22 354.85 459.79 354.37 460.97 352.35 465.97 335.57 471.14 335.05 473.12 335.28 474.9 336.04 475.67 336.5 476 336.76 477.78 337.82 480.13 338.95 481.33 339.31 482.24 339.45 483.71 339.1 484.6 338.74 485.35 338.27 487.31 336.44 489.55 335.19 490.33 334.98 519.01 331.98 520.76 337.6 522.88 349.25 523.38 356.84 523.15 357.91 522.66 359.33 521.23 361.32 520.41 362.19 519.71 362.76 519.29 363.5 519.04 364.15 518.71 368.64 519.28 368.77 520.13 368.37 527.62 370.02 530.37 370.15 530.95 370.09 531.69 370.66 533.03 376.79 537.22 376 537.74 375.84 538.93 374.92 539.42 374.75 540.02 374.66 540.66 374.64 541.57 374.77 542.72 375.08 547.34 376.84 552.42 377.79 554.52 378.79 558.52 381.55 558.99 382.1 559.28 382.56 560.04 385.45 562.05 385.99 562.59 385.91 563.26 385.89 563.94 386.16 564.66 386.86 565.79 388.65 566.23 389.7 566.45 390.58 566.37 391.22 566.23 391.75 566.02 392.24 565.48 393.14 565.11 393.5 564.8 393.86 564.64 394.25 564.97 394.7 565.62 395.18 567.19 395.82 569.86 397.19 570.51 397.42 572.38 397.46 572.99 397.54 573.76 397.94 576.43 399.85 578.18 400.87 579.11 401.25 579.6 401.53 580.37 402.37 581.33 403.7 583.75 408.34 583.75 408.45 583.7 408.95 583.48 409.41 583.09 410.07 582.34 410.88 581.92 411.18 581.57 411.53 581.26 411.93 581.03 412.37 580.83 412.86 580.75 413.4 580.75 413.97 580.86 414.51 582.64 415.22 589.75 415.17 590.59 416.3 590.96 416.66 591.36 416.95 591.86 417.15 592.65 417.16 593.75 416.96 597.95 415.4 598.7 415.33 599.68 415.38 603.15 416.12 604.45 416.03 614.95 413.59 615.94 413.59 615.95 413.59 Z" id="KHM-1784" data-name="Kâmpóng Cham"/>
<path d="M 388.76 373.03 390.68 379.22 390.89 381.29 390.68 382.03 388.17 387.86 387.1 392.29 385.77 395.43 385.77 396.28 385.93 396.89 387.05 397.93 389.29 400.36 389.51 400.98 389.71 401.86 389.85 407.92 390.12 408.66 390.27 409 391.61 409.33 392.36 409.98 392.45 410.52 392.15 410.91 391.45 411.05 387.77 410.37 387.14 410.44 386.44 410.63 385.77 410.97 385.04 411.51 384.41 412.18 383.27 413.99 378.42 424.75 375.93 425.73 373.68 426.29 372.91 426.96 370.73 431.15 369.73 435.17 366.41 435.84 363.82 436.92 363.18 437.01 362.06 437.05 360.96 436.93 358.21 436.96 356.78 437.14 349.74 439.3 339.02 444.18 334.59 447.59 333.66 448.03 333.1 448.19 332.42 447.67 332 447.4 330.34 446.67 325.08 445.03 324.59 444.78 320.33 441.81 318.49 440.9 313.05 440.47 311.36 439.87 310.17 438.33 303.92 432.45 303.43 431.79 303.28 431.27 302.92 428.34 302.66 427.27 297.21 419.62 296.17 417.24 295.3 414.04 294.9 411.15 293.57 408.93 293.36 408.68 292.61 408.05 288.8 405.48 287.68 404.5 286.97 403.71 286.83 403.2 286.72 402.02 286.67 398.28 286.37 396.4 284.99 392.2 282.21 380.81 283.24 374.61 283.94 372.4 288.21 366.67 288.66 366.18 289.04 365.99 289.99 365.66 294.53 364.71 295.2 364.36 295.98 363.86 298.39 361.66 299.65 360.84 300.72 360.51 301.26 360.41 302.05 360.11 304.79 358.44 305.88 357.49 306.62 356.64 306.92 356.13 307.78 354.23 309.18 350.21 310.05 348.88 314.21 344.99 314.87 343.95 315.12 343.13 314.4 340.46 314.51 338.48 315.68 333.1 315.66 331.52 316.11 325.38 320.5 328.6 322.23 329.14 324.73 329.64 331.01 330.2 333.44 326.97 334.13 325.82 334.55 324.77 334.85 324.34 335.62 323.73 338.74 321.99 341.14 320.97 343.27 319.68 345.84 318.59 349.09 317.92 349.95 317.9 355.57 319.45 371.18 326.33 380.18 328.21 379.17 333.1 379.1 334.4 379.83 336.14 380.88 337.97 381.79 340.2 385.37 346.3 385.77 347.27 385.77 348.37 385.24 351.62 385.63 351.62 385.98 351.53 389.84 349.46 391.4 349.38 391.87 349.53 392.29 349.87 392.5 350.29 392.87 351.91 392.92 352.5 392.78 353.19 392.03 355.18 391.35 356.39 390.41 357.77 386.14 362.22 383.48 363.28 384.18 366.15 384.5 367.1 386.35 370.6 388.76 373.03 Z" id="KHM-1785" data-name="Kâmpóng Chhnang"/>
<path d="M 429.01 446.55 429.38 447.99 429.45 448.49 429.45 449.78 429.17 450.67 428.61 451.81 426.11 455.5 425.93 455.66 425.76 455.84 425.51 456.39 425.38 457.14 425.53 458.45 425.83 459.76 426.28 460.86 426.44 461.45 425.86 463.74 422.66 469.4 423 470.86 423.42 471.82 426.35 477.08 427.14 478.03 428.19 478.97 435.74 482.98 446.71 491.96 448.83 493.24 450.17 494.84 450.1 498.24 446.68 500.11 445.41 501.21 446.19 507.66 449.3 519.83 449.49 523.98 448.22 527.41 443.32 532.65 441.37 535.74 439.2 543.41 435.77 551.5 434.94 555.72 435.01 559.93 437.24 575.41 422.56 572.71 420.42 571.99 418.7 569.71 418.35 567.74 417.47 567.09 414.13 568.81 412.17 570.18 411.54 570.75 411.53 570.74 410.85 569.67 410.64 569.23 410.43 568.7 409.07 563.84 408.65 562.81 408.21 562.19 407.86 561.85 407.51 561.46 407.28 560.76 407.1 557.65 408.26 552.89 407.65 545.68 407.86 542.09 409.77 534.85 409.73 533.46 408.7 531.18 405.75 529.14 402.81 526.9 401.13 525.16 398 520.62 397.1 520.1 396.35 519.5 396.07 519.12 395.86 518.66 395.63 516.4 395.96 509.53 395.4 508.69 395.07 508.45 394.13 508.08 388.82 506.89 387.96 506.53 387.54 506.25 387.03 505.97 386.28 505.86 385.32 505.88 380.76 507.09 376.11 507.43 374.13 507.77 372.83 508.39 372.59 508.48 371.11 508.13 367.18 505.54 373.71 497.17 373.21 496.54 371.55 496.4 359.54 496.67 355.47 495.25 353.13 491.96 355.44 473.1 356 466.9 360.57 456.22 361.73 450.08 362.13 449.29 362.74 448.36 364.15 446.76 365.59 445.53 367.06 444.93 367.95 444.45 368.7 443.86 369.38 443.11 369.77 441.22 369.73 435.17 370.73 431.15 372.91 426.96 373.68 426.29 375.93 425.73 378.42 424.75 381.55 429.83 381.97 432.55 381.91 433.63 382.1 434.5 382.59 434.97 383.36 434.82 383.71 434.56 383.99 434.18 384.29 434.04 384.73 434.19 385.51 435.07 386.02 435.5 388.92 436.15 389.88 437.06 390.51 437.13 391.21 436.86 392.45 436.18 393.27 435.96 393.97 435.95 394.52 436.1 395.16 435.76 395.79 434.96 398.09 429.18 398.6 428.42 399.26 427.84 400.26 427.72 400.77 427.87 401.5 428.33 402.13 427.75 402.78 424.53 405.59 425.17 410.26 431.63 415.9 434.38 416.37 434.73 416.91 435.32 417.09 436.19 416.84 436.77 416.2 437.13 414.89 437.28 414.41 437.38 413.95 437.69 413.67 438.24 413.51 438.79 413.44 439.41 413.56 442 413.72 442.77 416.72 444.14 429.01 446.55 Z M 377.93 493.67 379.57 493.6 382.61 492.68 383.52 492.26 384.2 491.77 385.84 489.61 387.14 488.69 388.15 488.55 389.04 488.81 392.1 491.37 394.2 491.86 394.62 491.65 395.02 491.27 396.35 487.78 398.28 486.28 400.19 484.44 400.52 482.64 400.84 476.09 397.9 474.9 397.64 474.6 397.29 474.03 396.89 469.58 395.82 465.08 394.39 460.77 394.3 457.68 393.83 457.14 393.11 456.9 386.37 456.49 384.64 456.91 384.62 457.39 384.73 458.11 385.34 459.51 386.09 461.67 377.93 461.77 373.94 468.96 373.21 472.06 373.21 475.92 373.38 477.17 373.71 478.14 374.64 479.58 375.2 480.67 375.01 482.03 372.73 489.97 376.81 493.6 377.93 493.67 Z" fill-rule="evenodd" id="KHM-1786" data-name="Kândal"/>
<path d="M 369.73 435.17 369.77 441.22 369.38 443.11 368.7 443.86 367.95 444.45 367.06 444.93 365.59 445.53 364.15 446.76 362.74 448.36 362.13 449.29 361.73 450.08 360.57 456.22 356 466.9 355.44 473.1 353.13 491.96 355.47 495.25 359.54 496.67 371.55 496.4 373.21 496.54 373.71 497.17 367.18 505.54 362.55 509.73 361.33 511.06 360.92 512.68 358.84 525.48 357.97 529.93 356.5 536.73 356.56 544.01 351.45 544.43 349.79 544.89 348.93 545.4 347.97 545.75 347.41 545.89 339.62 545.95 338.78 545.68 335.37 543.73 333.87 543.36 332.23 543.1 327.84 543.06 325.99 542.7 321.01 540.82 316.99 539.2 306.07 539.61 294.55 541.14 282.63 538.62 280.66 537.74 279.34 536.96 276.88 534.85 272.17 521.39 271.19 520.2 269.84 518.83 269.54 518.44 269.05 517.53 269 516.48 269.09 514.9 269.72 511.39 270.24 509.73 270.9 508.57 272.07 507.5 272.56 506.87 272.84 506.12 272.63 504.56 271.88 502.49 269.86 498.7 268.51 496.78 266.55 494.74 265.99 493.84 263.77 489.4 263.49 488.18 263.5 486.92 264.42 485.1 266.1 482.7 266.13 481.7 266.03 480.84 263.22 478.15 258.99 476.7 256.36 475.26 253.69 474.59 251.91 474.51 250.72 474.76 249.18 475.27 248.45 475.38 246.39 474.95 245.86 474.7 245.3 474.23 244.15 472.28 242.65 471 232.04 464.28 228.98 461.42 227.81 461.13 226.31 460.61 225.78 460.24 225.33 459.77 224.91 458.92 224.68 457.93 224.62 456.7 224.73 454.16 224.56 452.62 221.71 441.93 221.45 439.11 221.62 437.48 222.02 435.64 223 432.76 223.09 430.91 222.95 429.49 222.62 428.41 222.44 427.28 222.39 426.17 222.51 425.17 222.69 424.63 222.95 424.29 223.25 424.08 223.91 423.77 234.52 422.23 237.62 418.77 238.12 418.35 238.92 417.86 239.49 417.73 240.88 416.96 242.33 415.48 244.64 412.6 245.77 411.53 246.76 411.1 247.66 411.35 248.73 411.79 249.76 412.48 250.63 413.26 252.56 415.73 253.36 416.36 254.35 416.64 256.12 416.71 257.73 416.22 265.71 412.16 266.2 411.78 265.94 411.34 264.19 409.42 264 408.63 264.44 407.78 267.36 404.86 268.25 403.59 269.86 398.93 270.59 397.65 271.89 396.22 273.21 395.71 276.48 395.35 277.72 395.36 280.33 396 281.63 395.5 282.51 394.83 284.99 392.2 286.37 396.4 286.67 398.28 286.72 402.02 286.83 403.2 286.97 403.71 287.68 404.5 288.8 405.48 292.61 408.05 293.36 408.68 293.57 408.93 294.9 411.15 295.3 414.04 296.17 417.24 297.21 419.62 302.66 427.27 302.92 428.34 303.28 431.27 303.43 431.79 303.92 432.45 310.17 438.33 311.36 439.87 313.05 440.47 318.49 440.9 320.33 441.81 324.59 444.78 325.08 445.03 330.34 446.67 332 447.4 332.42 447.67 333.1 448.19 333.66 448.03 334.59 447.59 339.02 444.18 349.74 439.3 356.78 437.14 358.21 436.96 360.96 436.93 362.06 437.05 363.18 437.01 363.82 436.92 366.41 435.84 369.73 435.17 Z" id="KHM-1787" data-name="Kâmpóng Spœ"/>
<path d="M 492.76 217.15 497.66 236.89 497.99 237.29 500.12 239.26 501.38 240.9 502.63 242.91 503.07 244.01 503.23 244.93 502.95 246.06 501.93 248.61 501.78 249.45 501.83 250.62 503.48 260.92 503.82 261.83 504.17 262.16 505.01 262.71 505.52 263.15 506.08 263.78 506.9 264.93 507.23 265.73 507.3 266.43 507.19 266.97 506.71 267.92 505.71 269.21 505.43 269.78 505.12 270.7 505.21 271.32 505.45 271.8 507.23 273.49 508.28 275.08 509.24 277.06 509.55 278.18 509.66 279.1 509.55 279.71 509.35 280.26 508.92 281.22 508.64 281.65 508.28 283.31 508.59 288.24 508.26 291.17 510.06 297.39 510.32 300.74 514.96 314.11 519.01 331.98 490.33 334.98 489.55 335.19 487.31 336.44 485.35 338.27 484.6 338.74 483.71 339.1 482.24 339.45 481.33 339.31 480.13 338.95 477.78 337.82 476 336.76 475.67 336.5 474.9 336.04 473.12 335.28 471.14 335.05 465.97 335.57 460.97 352.35 459.79 354.37 459.22 354.85 458 355.45 457.22 355.5 456.55 355.36 456.1 355.08 455.73 354.78 455.4 354.43 455.15 354.03 454.68 353.14 454.4 352.72 454.06 352.35 453.7 352.04 453.21 351.78 452.69 351.62 452.05 351.51 450.05 351.39 449.44 351.28 448.91 351.08 448.44 350.84 447.27 349.91 446.8 349.69 446.26 349.5 445.68 349.37 441.26 349.52 439.97 349.44 439.33 349.3 438.06 349.17 436.96 349.25 435.74 349.5 434.55 349.57 432.12 349.29 431.53 349.45 431.02 349.69 428.78 351.4 426.83 352.29 426.41 352.57 426.4 353.39 426.77 354.59 430.32 359.94 430.55 360.57 430.72 361.39 430.83 364.58 435.93 375.83 436.28 376.84 436.49 377.91 436.53 378.44 436.42 378.81 436.26 379.05 435.7 379.44 434.38 379.2 430.65 376.29 426.75 376.72 425.37 377.15 424.53 377.49 423.75 377.58 423.23 377.46 422.66 377.19 420.9 375.75 420.48 375.56 410.45 374.72 405.75 373.34 402.71 370.02 402.34 369.77 401.87 369.56 401.06 369.42 395.47 369.08 394.34 369.16 392.36 370.11 388.76 373.03 386.35 370.6 384.5 367.1 384.18 366.15 383.48 363.28 386.14 362.22 390.41 357.77 391.35 356.39 392.03 355.18 392.78 353.19 392.92 352.5 392.87 351.91 392.5 350.29 392.29 349.87 391.87 349.53 391.4 349.38 389.84 349.46 385.98 351.53 385.63 351.62 385.24 351.62 385.77 348.37 385.77 347.27 385.37 346.3 381.79 340.2 380.88 337.97 379.83 336.14 379.1 334.4 379.17 333.1 380.18 328.21 371.18 326.33 355.57 319.45 349.95 317.9 349.09 317.92 345.84 318.59 343.27 319.68 341.14 320.97 338.74 321.99 335.62 323.73 334.85 324.34 334.55 324.77 334.13 325.82 333.44 326.97 331.01 330.2 324.73 329.64 322.23 329.14 320.5 328.6 316.11 325.38 291.35 304.32 283.96 295.59 287.82 293.19 289.19 288.57 289.95 287.09 296.31 280.1 298.2 278.69 302.08 276.69 303.99 275.27 304.42 275.02 308.58 273.19 311.17 271.59 312.24 270.77 312.86 270.22 314.12 266.94 316.2 259.12 321.39 250.37 321.62 249.42 321.87 246.97 322.14 246.06 322.48 245.73 323.31 245.74 324.12 245.98 325.41 246.02 325.84 245.51 326.02 244.65 325.76 240.82 326.97 227.62 327.63 225.3 328.05 224.3 328.51 223.66 329.4 223.21 334.73 221.29 336.07 220.58 337.99 218.97 338.78 217.93 339.95 215.05 354.44 207.25 359.65 205.22 364.63 203.77 373.92 203.99 388.4 206.77 389.84 207.25 390.82 207.94 390.96 209.16 390.54 210.28 389.01 213.34 388.19 216.19 387.42 223.07 387.91 228.93 388.52 231.97 389.81 235 390.63 236.12 391.28 236.86 393.08 238.39 396.45 239.51 405.33 240.4 420.1 233.28 430.51 224.4 431.63 223.1 433.67 220.06 434.27 219.4 464.03 198.93 467.56 197.69 487.96 187.19 488.27 198.66 487.92 202.23 488.77 207.29 492.76 217.15 Z" id="KHM-1788" data-name="Kâmpóng Thum"/>
<path d="M 377.93 493.67 376.81 493.6 372.73 489.97 375.01 482.03 375.2 480.67 374.64 479.58 373.71 478.14 373.38 477.17 373.21 475.92 373.21 472.06 373.94 468.96 377.93 461.77 386.09 461.67 385.34 459.51 384.73 458.11 384.62 457.39 384.64 456.91 386.37 456.49 393.11 456.9 393.83 457.14 394.3 457.68 394.39 460.77 395.82 465.08 396.89 469.58 397.29 474.03 397.64 474.6 397.9 474.9 400.84 476.09 400.52 482.64 400.19 484.44 398.28 486.28 396.35 487.78 395.02 491.27 394.62 491.65 394.2 491.86 392.1 491.37 389.04 488.81 388.15 488.55 387.14 488.69 385.84 489.61 384.2 491.77 383.52 492.26 382.61 492.68 379.57 493.6 377.93 493.67 Z" id="KHM-1789" data-name="Phnom Penh"/>
<path d="M 529.41 462.45 528.96 462.83 526.98 464.95 525.26 467.6 524.8 470.6 525.22 471.28 524.22 471.91 523.75 472.14 523.22 472.35 522.68 472.47 521.47 472.57 518.87 472.56 518.26 472.67 517.68 472.9 516.06 473.83 512.09 474.62 511.18 475.02 510.57 475.65 509.87 476.6 507.9 481.46 505.87 490.91 504.89 494.13 504.12 496.05 503.96 496.77 503.82 497.68 503.79 509.7 504.84 517.35 505.19 518.42 505.29 518.88 505.69 519.89 505.48 520.57 503.09 520.27 502.14 520.85 501.78 521.28 501.11 522.5 499.98 523.49 499.68 523.87 499.45 524.32 498.66 528.22 498.25 529.46 497.57 530.91 497.55 532.2 497.66 534.15 498.89 540.45 499.32 541.62 499.68 541.97 499.98 542.37 500.15 542.89 500.06 543.59 499.56 544.72 499.17 545.37 498.81 545.89 497.18 547.69 496.9 548.09 496.41 549.09 496.08 550.16 495.49 555.12 495.1 556.14 494.42 557.32 494.49 557.76 494.86 558.27 496.1 559.28 497.57 560.94 498.7 563.45 498.72 563.48 484.61 566.43 477.11 567.99 475.9 567.85 472.52 566.17 468.25 565.01 467.57 564.66 465.67 565.93 459.55 572.96 455.07 581.95 453.62 583.37 451.38 582.59 446.21 578.12 443.89 576.64 437.24 575.41 435.01 559.93 434.94 555.72 435.77 551.5 439.2 543.41 441.37 535.74 443.32 532.65 448.22 527.41 449.49 523.98 449.3 519.83 446.19 507.66 445.41 501.21 446.68 500.11 450.1 498.24 450.17 494.84 448.83 493.24 446.71 491.96 435.74 482.98 428.19 478.97 427.14 478.03 426.35 477.08 423.42 471.82 423 470.86 422.66 469.4 425.86 463.74 426.44 461.45 426.28 460.86 425.83 459.76 425.53 458.45 425.38 457.14 425.51 456.39 425.76 455.84 425.93 455.66 426.11 455.5 428.61 451.81 429.17 450.67 429.45 449.78 429.45 448.49 429.38 447.99 429.01 446.55 441.03 438.64 446.85 433.38 448.21 432.04 450.94 429.91 452.47 429.03 453.72 428.49 455.36 428.21 458.2 428.82 467.1 432.31 469.38 435.48 471.16 439.61 471.63 440.36 472.37 441.29 472.79 441.6 473.31 441.92 475.04 442.59 476.07 442.86 481.54 443.4 500.21 446.62 511.11 446.71 515.33 450.67 518.97 453.38 520.23 454.08 521.33 454.54 522.56 454.93 524.35 455.25 524.77 455.25 530.16 454.38 530.98 454.76 531.24 455.71 531.05 458.08 529.55 461.72 529.42 462.39 529.41 462.45 Z" id="KHM-1790" data-name="Prey Vêng"/>
<path d="M 393.02 47.91 398.97 48.95 401.79 49.8 402.53 51.63 402.57 53.67 401.86 60.5 402.11 61.78 406.89 70.41 409.55 73.34 412.86 74.9 421.01 72.42 425.65 64.86 429.08 57.36 433.49 55.06 433.49 59.82 434.05 63.3 435.47 66.43 444.43 79.66 447.2 82.31 448.24 82.85 450.41 83.52 451.52 84.19 455.36 89.43 456.62 90.57 458.13 91.17 460.58 91.47 464.85 91.52 469.33 90.89 473.53 89.5 477.11 87.18 479.62 86.52 481.85 85.29 486.05 82.39 487.27 83.16 488.43 84.08 489.42 85.14 490.3 86.33 492.58 85.45 495.3 86.6 497.6 88.95 498.72 91.63 501.08 89.97 502.62 90.05 504.14 91.02 506.56 92.02 508.72 92.25 511.96 91.78 513.59 91.85 517.81 94.05 520.06 97.73 521.75 101.92 524.31 105.61 537.25 116.66 540.65 118.47 539.72 118.98 538.18 119.51 535.24 120.01 517.5 120.12 515.01 120.4 513.87 120.66 513.35 120.85 512.91 121.32 512.49 122.02 512.21 123.59 512.33 124.36 512.54 125.01 512.79 125.42 513.17 126.4 513.04 127 512.65 127.58 511.63 128.2 510.2 128.72 509.64 128.78 509.1 128.76 508.68 128.54 508.31 128.25 507.58 127.58 507.14 127.33 506.6 127.23 506.06 127.3 505.03 127.59 503.14 127.73 502.51 127.9 501.89 128.22 500.73 129.34 500.24 129.69 499.79 129.87 499.23 129.82 498.76 129.6 498.41 129.26 498.09 128.88 496.8 126.82 496.45 126.46 496.06 126.14 495.61 125.87 495.05 125.65 494.47 125.53 493.84 125.47 492.67 125.63 492.19 125.76 491.73 125.96 491.26 126.21 490.33 126.84 488.32 128.84 487.92 129.16 487.06 129.71 486.07 130.54 485.49 131.28 485.14 131.85 484.88 132.4 484.81 133.4 485.44 139.87 485.14 141.58 485.16 142.18 485.37 142.96 485.84 143.9 486.96 145.45 487.64 146.17 488.25 146.65 488.69 146.88 489.11 147.19 489.65 147.88 490.23 148.94 491.82 153.63 493.09 161.86 491.15 183.13 487.96 187.19 467.56 197.69 464.03 198.93 434.27 219.4 433.67 220.06 431.63 223.1 430.51 224.4 420.1 233.28 405.33 240.4 396.45 239.51 393.08 238.39 391.28 236.86 390.63 236.12 389.81 235 388.52 231.97 387.91 228.93 387.42 223.07 388.19 216.19 389.01 213.34 390.54 210.28 390.96 209.16 390.82 207.94 389.84 207.25 388.4 206.77 373.92 203.99 364.63 203.77 359.65 205.22 354.44 207.25 339.95 215.05 342.15 195.36 343.13 192.47 344.87 189.23 357.55 172.48 357.83 171.6 357.73 171 357.53 170.69 356.42 170.82 354.93 171.97 354.37 172.28 350.63 173.62 348.83 173.49 335.86 170.12 322.61 168.21 319.84 167.55 319.3 167.31 318.65 166.84 318.04 166.02 317.48 164.94 317.09 164 316.78 162.97 316.67 161.75 316.81 160.29 317.48 158.18 319.09 154.95 319.56 153.39 319.74 151.66 318.81 144.17 318.42 142.9 317.81 141.73 317.23 140.92 316.71 139.94 316.34 138.62 315.73 135.6 315.17 135.01 314.56 134.63 314.04 134.27 313.7 133.75 312.64 131.04 312.1 130.11 311.45 129.56 310.66 129.32 308.86 129.07 308.3 128.55 308.37 127.81 313.95 120.18 314.59 118.97 315.08 117.74 315.15 115.81 315.08 114.72 315.43 112.96 322.23 94.14 322.99 87.06 324.19 84.47 325.76 82.15 326.6 81.26 329.29 79.31 329.94 78.73 330.17 78.12 330.02 77.71 329.26 77.02 326.16 74.72 321.58 69.22 321.22 68.63 321.13 67.85 321.67 66.99 322.28 66.46 322.98 66.02 323.35 65.22 323.49 64.04 323.54 59.14 324.1 56.07 324.15 53.36 324.68 53.35 325.51 52.9 326.47 52.05 327.69 51.22 329.29 50.8 332.03 51.32 334.4 52.38 336.86 52.85 339.86 51.63 341.53 49.82 342.98 47.52 344.66 45.38 347.04 44.03 349.47 43.98 353.21 45.54 355.77 45.43 356.73 44.68 358.22 42.28 359.46 41.77 360.69 42.35 361.47 45.04 362.47 45.85 364.75 45.39 369.26 41.91 371.33 40.88 373.83 41.13 375.88 42.35 377.87 43.9 380.33 45.11 381.4 45.16 384.24 44.76 385.63 44.81 386.79 45.29 389.19 46.85 390.39 47.45 393.02 47.91 Z" id="KHM-1791" data-name="Preah Vihéar"/>
<path d="M 650.09 38.21 649.79 38.72 649.5 39.48 647.64 45.76 647.44 47.56 647.44 49.04 648.66 52.36 649.29 54.89 650.06 57.01 650.45 59.57 650.5 62.3 649.75 65.69 648.19 69.89 647.84 71.77 646.97 74.05 646.69 75.07 644.92 86.51 644.87 88.41 645.11 90.23 646.06 92.22 647.09 93.64 648.33 94.96 649.37 96.33 651.18 103.03 653.52 123.81 656.09 131.41 656.49 133.3 655.48 134.79 655.67 138.37 655.39 139.32 641.04 165.49 640.09 169.56 639.87 173.12 640.38 174.15 641.03 175.07 641.5 176.24 643.94 180.11 645.21 185.82 646.76 188.11 647.12 189.68 647.19 191.29 646.86 196.92 646.97 198.38 647.64 199.58 648.61 200.74 648.86 201.16 649.03 201.67 649.19 202.29 649.29 202.96 649.19 204.74 648.12 207.24 638.44 203.11 636.43 202.74 634.57 202.14 631.9 200.87 622.5 194.42 619.42 193.82 610.85 194.19 605.32 194.64 602.84 195.23 594.12 198.93 593.07 199.51 592.29 200.07 590.71 202 589.72 202.96 588.77 203.35 587.6 203.46 583.61 202.72 576.71 203.25 575.42 203.58 574.13 204.15 573.27 204.69 571.49 206.07 562.1 219.6 561.72 220.5 560.74 225.42 560.46 226.11 560.18 226.54 559.81 226.79 559.32 226.99 558.77 227.11 558.21 227.16 557.77 227.12 557.39 227.05 554.94 226.15 554.71 226.03 554.26 225.93 553.63 225.92 552.61 226.3 552.21 226.88 552.02 227.47 551.97 229.51 551.55 230.74 548.77 235.71 547.76 237.08 546.97 237.94 546.53 238.16 540.49 240.1 538.34 240.31 536.68 240.33 535.4 240.06 532.05 238.64 527.24 236.06 513.68 225.74 511.7 224.71 505.9 223.31 492.76 217.15 488.77 207.29 487.92 202.23 488.27 198.66 487.96 187.19 491.15 183.13 493.09 161.86 491.82 153.63 490.23 148.94 489.65 147.88 489.11 147.19 488.69 146.88 488.25 146.65 487.64 146.17 486.96 145.45 485.84 143.9 485.37 142.96 485.16 142.18 485.14 141.58 485.44 139.87 484.81 133.4 484.88 132.4 485.14 131.85 485.49 131.28 486.07 130.54 487.06 129.71 487.92 129.16 488.32 128.84 490.33 126.84 491.26 126.21 491.73 125.96 492.19 125.76 492.67 125.63 493.84 125.47 494.47 125.53 495.05 125.65 495.61 125.87 496.06 126.14 496.45 126.46 496.8 126.82 498.09 128.88 498.41 129.26 498.76 129.6 499.23 129.82 499.79 129.87 500.24 129.69 500.73 129.34 501.89 128.22 502.51 127.9 503.14 127.73 505.03 127.59 506.06 127.3 506.6 127.23 507.14 127.33 507.58 127.58 508.31 128.25 508.68 128.54 509.1 128.76 509.64 128.78 510.2 128.72 511.63 128.2 512.65 127.58 513.04 127 513.17 126.4 512.79 125.42 512.54 125.01 512.33 124.36 512.21 123.59 512.49 122.02 512.91 121.32 513.35 120.85 513.87 120.66 515.01 120.4 517.5 120.12 535.24 120.01 538.18 119.51 539.72 118.98 540.65 118.47 541.26 118.8 545.01 119.63 548.72 119.26 552.46 117.8 555.99 117.95 563.79 119.88 566.8 119.72 569.01 117.09 568.73 110.01 570.55 107.72 572.72 105.58 575.42 103.83 577.78 101.87 578.9 99.08 578.16 96.24 576.15 94.04 573.74 92.03 571.7 89.8 567.86 80.85 565.5 78.24 560.34 75.05 558.26 73.13 556.99 70.1 557.58 66.36 557.06 63.46 555.38 61.05 552.46 58.74 551.73 57.13 551.53 55.42 551.77 53.68 552.46 52.03 555.49 52.55 562.13 54.77 564.73 54.65 565.13 53.95 565.5 51.58 565.95 50.96 566.72 50.89 568.35 51 570.69 50.86 574.31 51.48 579.6 51.77 582.48 51.45 584.87 50.06 587.1 46.9 588.11 43.66 589.64 35.81 591.04 33.26 591.93 34.18 601.08 39.67 602.55 40.03 604.61 40.18 606.61 39.64 607.6 39.5 615.7 38.42 619.53 36.87 621.08 33.93 621.68 33.83 622.79 32.93 623.44 31.9 621.7 30.96 621.56 29.95 621.81 28.87 622.13 28.23 623.53 27.44 625.18 27.62 627.1 28.1 629.42 28.23 629.42 27.3 628.31 26.91 627.66 26.17 627.33 25.09 627.27 23.65 627.52 22.17 628.26 21.74 629.26 21.65 630.35 21.12 633.58 18.21 634.48 19.01 636.37 21.88 636.97 23.8 637.77 28.56 638.29 30 639.6 30.77 643.06 31.52 644.61 32.43 647.57 36.85 650.09 38.21 Z" id="KHM-1792" data-name="Stœng Trêng"/>
<path d="M 675.47 398.29 672.67 398.52 669.25 400.56 666.77 404.09 665.01 408.99 662.07 412.84 658.89 413.71 651.38 412.03 652.58 414.3 639.6 412.54 632.39 412.45 627.75 415.66 625.75 415.53 624.94 414.51 624.33 413.19 622.97 412.23 621.03 411.93 619.27 412.08 615.73 412.99 615.95 413.59 615.94 413.59 614.95 413.59 604.45 416.03 603.15 416.12 599.68 415.38 598.7 415.33 597.95 415.4 593.75 416.96 592.65 417.16 591.86 417.15 591.36 416.95 590.96 416.66 590.59 416.3 589.75 415.17 582.64 415.22 580.86 414.51 580.75 413.97 580.75 413.4 580.83 412.86 581.03 412.37 581.26 411.93 581.57 411.53 581.92 411.18 582.34 410.88 583.09 410.07 583.48 409.41 583.7 408.95 583.75 408.45 583.75 408.34 581.33 403.7 580.37 402.37 579.6 401.53 579.11 401.25 578.18 400.87 576.43 399.85 573.76 397.94 572.99 397.54 572.38 397.46 570.51 397.42 569.86 397.19 567.19 395.82 565.62 395.18 564.97 394.7 564.64 394.25 564.8 393.86 565.11 393.5 565.48 393.14 566.02 392.24 566.23 391.75 566.37 391.22 566.45 390.58 566.23 389.7 565.79 388.65 564.66 386.86 563.94 386.16 563.26 385.89 562.59 385.91 562.05 385.99 560.04 385.45 559.28 382.56 558.99 382.1 558.52 381.55 554.52 378.79 552.42 377.79 547.34 376.84 542.72 375.08 541.57 374.77 540.66 374.64 540.02 374.66 539.42 374.75 538.93 374.92 537.74 375.84 537.22 376 533.03 376.79 531.69 370.66 530.95 370.09 530.37 370.15 527.62 370.02 520.13 368.37 519.28 368.77 518.71 368.64 519.04 364.15 519.29 363.5 519.71 362.76 520.41 362.19 521.23 361.32 522.66 359.33 523.15 357.91 523.38 356.84 522.88 349.25 520.76 337.6 519.01 331.98 514.96 314.11 510.32 300.74 510.06 297.39 508.26 291.17 508.59 288.24 508.28 283.31 508.64 281.65 508.92 281.22 509.35 280.26 509.55 279.71 509.66 279.1 509.55 278.18 509.24 277.06 508.28 275.08 507.23 273.49 505.45 271.8 505.21 271.32 505.12 270.7 505.43 269.78 505.71 269.21 506.71 267.92 507.19 266.97 507.3 266.43 507.23 265.73 506.9 264.93 506.08 263.78 505.52 263.15 505.01 262.71 504.17 262.16 503.82 261.83 503.48 260.92 501.83 250.62 501.78 249.45 501.93 248.61 502.95 246.06 503.23 244.93 503.07 244.01 502.63 242.91 501.38 240.9 500.12 239.26 497.99 237.29 497.66 236.89 492.76 217.15 505.9 223.31 511.7 224.71 513.68 225.74 527.24 236.06 532.05 238.64 535.4 240.06 536.68 240.33 538.34 240.31 540.49 240.1 546.53 238.16 546.97 237.94 547.76 237.08 548.77 235.71 551.55 230.74 551.97 229.51 552.02 227.47 552.21 226.88 552.61 226.3 553.63 225.92 554.26 225.93 554.71 226.03 554.94 226.15 557.39 227.05 557.77 227.12 558.21 227.16 558.77 227.11 559.32 226.99 559.81 226.79 560.18 226.54 560.46 226.11 560.74 225.42 561.72 220.5 562.1 219.6 571.49 206.07 573.27 204.69 574.13 204.15 575.42 203.58 576.71 203.25 583.61 202.72 587.6 203.46 588.77 203.35 589.72 202.96 590.71 202 592.29 200.07 593.07 199.51 594.12 198.93 602.84 195.23 605.32 194.64 610.85 194.19 611.28 210.74 610.57 213.58 610.53 214.19 611.33 217.35 613.43 223.09 614.92 225.01 619.56 227.53 620.98 228.66 621.77 229.67 622.06 230.15 622.31 230.67 622.48 231.22 622.62 231.86 622.64 232.67 622.45 233.24 622.13 233.66 621.66 233.87 621.05 233.97 612.43 233.8 611.68 234.13 610.88 234.76 609.67 236.22 609.12 237.12 608.84 237.89 608.8 238.49 608.94 242.52 609.2 243.48 609.54 244.13 610.29 244.78 614.85 251.06 615.3 251.55 615.67 251.86 616.09 252.11 617.98 253.03 618.44 253.36 618.82 253.83 619.9 255.43 620.89 256.43 622.22 257.23 623.81 257.94 624.27 258.08 624.81 258.17 627.39 258.18 628.02 258.24 629.21 258.52 629.69 258.73 630.19 259.06 632.06 261.19 640.99 266.51 646.53 268.73 647.63 269.39 648.17 269.89 648.54 270.42 648.84 271.52 649.01 273.3 649.73 278.94 649.45 280.75 649.12 281.11 648.7 281.43 648.26 281.68 647.3 282.04 646.48 282.71 645.46 283.8 643.57 286.55 642.55 287.71 641.78 288.43 637.44 290.29 634.25 291.19 631.45 292.79 627.83 293.65 621.8 297.3 619.56 299.47 616.16 304.96 612.29 319.3 611.65 323.12 612.05 325.43 612 328.75 612.12 329.29 612.29 329.8 612.82 330.56 613.57 331.07 617.92 333.1 625.04 337.56 627.03 338.44 630.11 340.22 631.29 341.08 631.94 341.46 632.85 341.88 635.03 342.56 635.5 342.8 635.94 343.06 639.63 346.34 640.17 347.04 640.87 348.12 642.54 351.8 644.5 358.42 645.11 359.83 645.6 360.39 646.27 361.01 648.59 362.36 650.99 363.21 654.78 363.76 661.05 365.47 663.07 366.33 664.8 367.42 666.24 368.11 666.8 368.45 667.32 368.94 668.88 370.63 669.91 371.47 671.08 372.68 672.22 374.44 672.92 376.01 675.07 379.31 675.19 380.68 674.53 390.72 675.28 397.34 675.47 398.25 675.47 398.29 Z" id="KHM-1793" data-name="Krâchéh"/>
<path d="M 648.12 207.24 655.6 214.42 656.58 215.17 662.36 218.85 667.64 224.21 674.93 229.02 684.59 232.59 687.09 232.89 693.36 233.01 695.76 233.04 700.32 232.15 702.05 232.23 702.65 232.33 703.69 232.26 707.47 231.52 709.77 231.39 710.28 231.58 710.67 231.89 711.03 232.21 711.45 232.51 711.96 232.67 712.78 232.46 713.81 231.94 717.01 229.35 717.71 228.65 718.01 228.23 718.25 227.75 718.63 224.88 718.86 224.2 719.34 223.34 719.56 222.83 719.72 222.31 719.81 221.69 719.8 221.13 719.62 220.27 719.58 220.15 719 217.94 718.78 217.45 718.27 216.54 717.69 215.76 717.2 214.94 716.87 213.92 716.87 213.34 716.99 212.8 717.17 212.32 717.45 211.9 719.44 209.82 719.72 209.7 720.18 209.67 722.02 209.8 723.27 210.99 728.48 209.09 737.54 210.28 741.88 207.91 743.14 205.64 743.96 203.36 745.28 202.04 748.06 202.67 749.6 204.28 751.63 209.08 753.29 210.99 754.8 210.23 756.4 209.95 759.92 209.96 760.71 210.61 762.15 213.44 762.97 214.08 762.84 214.95 764.26 215.89 767.18 214.53 767.89 214.03 768.86 213.15 769.7 212.17 770.34 211.58 770.71 211.34 771.18 211.12 773 210.6 773.99 210.15 775.82 209.58 776.43 209.25 776.85 208.88 777.3 208.11 777.7 207.91 778.18 207.9 779.01 208.39 780.5 209.77 781.67 210.46 782.25 210.96 782.91 211.67 783.28 211.91 783.8 212.12 785.38 212.59 785.95 212.85 786.79 213.09 790.97 213.6 792.21 213.92 793.61 213.57 793.64 213.56 791.63 218.32 776.38 254.54 776.77 256.69 779.12 258.38 779.5 259.48 779.55 260.47 779.18 261.28 778.4 261.88 777.51 263.36 777.24 265 777.58 266.67 779.28 270.47 779.84 275.03 780.45 277.29 781.49 279.07 785.72 283.78 787.77 287.98 788.17 291.92 788.04 295.97 788.39 300.47 792.16 317.09 792.44 321.98 791.91 326.54 791.08 328.47 790.15 330.09 789.83 331.73 790.89 333.68 790.89 333.69 790.9 333.71 790.89 337.23 786.46 349.52 785.7 353.22 784.5 356.64 782.29 359.36 778.4 360.93 774.77 363.39 769.67 370.16 766.23 370.35 763.34 367.85 758.82 360.97 755.26 358.84 748.63 359.42 741.35 361.65 738.95 362.39 730 366.71 725.55 371.35 724.54 373.47 722.73 375.12 718.71 377.89 713.96 383.68 703.67 393.79 700.01 396.23 694.42 398.36 688.84 398.99 677.34 398.13 675.47 398.29 675.47 398.25 675.28 397.34 674.53 390.72 675.19 380.68 675.07 379.31 672.92 376.01 672.22 374.44 671.08 372.68 669.91 371.47 668.88 370.63 667.32 368.94 666.8 368.45 666.24 368.11 664.8 367.42 663.07 366.33 661.05 365.47 654.78 363.76 650.99 363.21 648.59 362.36 646.27 361.01 645.6 360.39 645.11 359.83 644.5 358.42 642.54 351.8 640.87 348.12 640.17 347.04 639.63 346.34 635.94 343.06 635.5 342.8 635.03 342.56 632.85 341.88 631.94 341.46 631.29 341.08 630.11 340.22 627.03 338.44 625.04 337.56 617.92 333.1 613.57 331.07 612.82 330.56 612.29 329.8 612.12 329.29 612 328.75 612.05 325.43 611.65 323.12 612.29 319.3 616.16 304.96 619.56 299.47 621.8 297.3 627.83 293.65 631.45 292.79 634.25 291.19 637.44 290.29 641.78 288.43 642.55 287.71 643.57 286.55 645.46 283.8 646.48 282.71 647.3 282.04 648.26 281.68 648.7 281.43 649.12 281.11 649.45 280.75 649.73 278.94 649.01 273.3 648.84 271.52 648.54 270.42 648.17 269.89 647.63 269.39 646.53 268.73 640.99 266.51 632.06 261.19 630.19 259.06 629.69 258.73 629.21 258.52 628.02 258.24 627.39 258.18 624.81 258.17 624.27 258.08 623.81 257.94 622.22 257.23 620.89 256.43 619.9 255.43 618.82 253.83 618.44 253.36 617.98 253.03 616.09 252.11 615.67 251.86 615.3 251.55 614.85 251.06 610.29 244.78 609.54 244.13 609.2 243.48 608.94 242.52 608.8 238.49 608.84 237.89 609.12 237.12 609.67 236.22 610.88 234.76 611.68 234.13 612.43 233.8 621.05 233.97 621.66 233.87 622.13 233.66 622.45 233.24 622.64 232.67 622.62 231.86 622.48 231.22 622.31 230.67 622.06 230.15 621.77 229.67 620.98 228.66 619.56 227.53 614.92 225.01 613.43 223.09 611.33 217.35 610.53 214.19 610.57 213.58 611.28 210.74 610.85 194.19 619.42 193.82 622.5 194.42 631.9 200.87 634.57 202.14 636.43 202.74 638.44 203.11 648.12 207.24 Z" id="KHM-1794" data-name="Môndól Kiri"/>
<path d="M 774.21 118.95 774.52 120.81 774.11 122.54 773.29 124.25 772.62 126.77 774.25 131.34 774.06 132.69 773.09 135.93 773.04 137.5 773.8 139.76 776.66 143.12 778.1 145.4 778.4 146.07 781.86 149.77 784.5 153.46 796.95 177.19 798.07 182.69 799 197.48 798.46 202.09 793.64 213.56 793.61 213.57 792.21 213.92 790.97 213.6 786.79 213.09 785.95 212.85 785.38 212.59 783.8 212.12 783.28 211.91 782.91 211.67 782.25 210.96 781.67 210.46 780.5 209.77 779.01 208.39 778.18 207.9 777.7 207.91 777.3 208.11 776.85 208.88 776.43 209.25 775.82 209.58 773.99 210.15 773 210.6 771.18 211.12 770.71 211.34 770.34 211.58 769.7 212.17 768.86 213.15 767.89 214.03 767.18 214.53 764.26 215.89 762.84 214.95 762.97 214.08 762.15 213.44 760.71 210.61 759.92 209.96 756.4 209.95 754.8 210.23 753.29 210.99 751.63 209.08 749.6 204.28 748.06 202.67 745.28 202.04 743.96 203.36 743.14 205.64 741.88 207.91 737.54 210.28 728.48 209.09 723.27 210.99 722.02 209.8 720.18 209.67 719.72 209.7 719.44 209.82 717.45 211.9 717.17 212.32 716.99 212.8 716.87 213.34 716.87 213.92 717.2 214.94 717.69 215.76 718.27 216.54 718.78 217.45 719 217.94 719.58 220.15 719.62 220.27 719.8 221.13 719.81 221.69 719.72 222.31 719.56 222.83 719.34 223.34 718.86 224.2 718.63 224.88 718.25 227.75 718.01 228.23 717.71 228.65 717.01 229.35 713.81 231.94 712.78 232.46 711.96 232.67 711.45 232.51 711.03 232.21 710.67 231.89 710.28 231.58 709.77 231.39 707.47 231.52 703.69 232.26 702.65 232.33 702.05 232.23 700.32 232.15 695.76 233.04 693.36 233.01 687.09 232.89 684.59 232.59 674.93 229.02 667.64 224.21 662.36 218.85 656.58 215.17 655.6 214.42 648.12 207.24 649.19 204.74 649.29 202.96 649.19 202.29 649.03 201.67 648.86 201.16 648.61 200.74 647.64 199.58 646.97 198.38 646.86 196.92 647.19 191.29 647.12 189.68 646.76 188.11 645.21 185.82 643.94 180.11 641.5 176.24 641.03 175.07 640.38 174.15 639.87 173.12 640.09 169.56 641.04 165.49 655.39 139.32 655.67 138.37 655.48 134.79 656.49 133.3 656.09 131.41 653.52 123.81 651.18 103.03 649.37 96.33 648.33 94.96 647.09 93.64 646.06 92.22 645.11 90.23 644.87 88.41 644.92 86.51 646.69 75.07 646.97 74.05 647.84 71.77 648.19 69.89 649.75 65.69 650.5 62.3 650.45 59.57 650.06 57.01 649.29 54.89 648.66 52.36 647.44 49.04 647.44 47.56 647.64 45.76 649.5 39.48 649.79 38.72 650.09 38.21 651.95 39.22 662.91 42.47 663.56 42.99 664.73 44.19 665.43 45.14 666.6 47.38 671.88 54.67 675.84 58.55 677.94 60 680.04 60.81 682.3 60.89 688.13 57.68 688.84 57.02 689.71 56.6 691.31 56.48 692.68 56.93 695.5 58.65 697.02 58.91 698.91 58.41 699.45 57.63 699.52 56.7 701.17 52.85 703.06 52.45 703.7 52.09 706.63 47.62 711.03 42.33 711.13 41.57 711.6 41.45 713.5 42.26 715.97 44.17 717.25 45.96 718.86 46.77 722.21 45.74 726.83 42.74 730.94 39.12 732.16 36.77 733.01 34.19 734.23 32.4 736.48 32.4 736.49 32.41 736.53 32.43 736.55 32.43 738.85 32.81 740.13 32.12 741.72 29.07 742.04 26.05 742.26 25.05 742.86 24.32 744.61 23.29 745.37 22.63 748.03 18.96 750.3 16.98 753.08 17.17 757.15 20.03 759.99 22.54 761.47 23.09 764.29 23.68 767.81 25.21 769.53 25.28 771.48 23.73 771.95 22.57 771.95 21.29 771.77 20.02 771.85 18.83 772.3 17.61 773.38 16.17 773.89 15.32 775.08 11.91 776.06 10.91 778.4 9.79 783.39 2.68 785.42 1 787.24 5.01 786.46 8.8 782.96 16.44 782.74 18.77 783.32 23.25 783.14 25.64 782.36 27.34 780.2 30.38 779.55 32.43 779.41 33.5 778.84 35.55 777.04 39.5 775.68 41.78 773.78 43.32 770.87 44.03 769.9 43.56 769.34 42.56 768.46 41.91 766.51 42.5 765.31 43.58 764.85 44.83 764.61 46.2 764.19 47.57 761.11 52.87 760.02 55.63 759.74 58.7 760.08 60.05 761.4 62.96 761.83 64.47 761.8 65.89 761.05 71.2 755.95 85.47 755.23 89.09 755.86 90.86 757.29 92.3 758.96 94.89 759.28 97.85 758.78 100.98 758.72 104.04 760.44 106.78 763 107.7 768.65 107.16 770.97 108.04 771.92 109.48 772.01 110.96 771.82 112.39 771.96 113.77 774.09 118.2 774.21 118.95 Z" id="KHM-1795" data-name="Rôtânôkiri"/>
<path d="M 321.01 540.82 320.68 545.7 320.8 547.15 321.22 548.32 321.97 549.43 323.47 550.41 324.73 550.85 329.6 551.78 332.51 552.7 334.17 553.63 335.93 555.24 336.35 556.33 338.1 564.62 338.41 565.07 338.78 566.02 338.61 567.87 336.98 572.73 337.19 573.69 337.49 573.98 342.1 575.83 346.96 574.53 349.98 573.43 352.41 573.7 360.92 575.8 366.44 590.31 362.62 593.48 361.33 595.1 360.1 597.01 357.34 602.39 356.97 604.95 358.77 610.67 360 612.11 360.54 612.27 361.01 612.47 361.45 612.76 361.8 613.14 361.97 616.48 360.8 629.71 360.64 630.73 360.63 630.76 349.32 629.39 342.84 629.66 340.47 630.19 338.54 631.65 337.08 633.85 335.82 636.22 329.54 645.3 327.95 646.76 325.82 647.1 323.08 646.52 323.08 646.49 322.76 645.62 320.22 642.51 318.98 641.79 318.98 641.76 318.7 640.49 318.11 639.87 317.11 639.07 316.83 637.89 316.97 633.32 315.87 630.57 313.47 626.22 311.66 624.51 308.34 623.24 302.15 623.6 300.68 623.33 298.83 623.3 297.72 622.97 295.57 626.54 295.55 626.57 295.54 626.57 293.74 624.5 292.72 623.83 291.64 624.01 290.72 624.68 289.78 624.9 288.63 623.83 286.27 626.88 282.37 626.95 274.69 624.95 272.12 625.23 268.49 626.18 265.9 625.98 251.48 621.99 248.94 621.77 246.88 621.14 242.72 617.66 242.56 616.94 242.58 616.92 242.93 616.61 243.61 615.77 246.39 611.46 247.66 608.88 248.13 607.54 248.29 605.33 248.2 602.26 246.61 589.74 246.58 588.5 247.62 581.41 247.68 565.8 246.34 560.76 252.96 552.59 254.39 551.15 255.14 550.73 255.91 550.57 257.02 550.96 258.01 551.45 259.16 551.8 260.4 551.86 261.96 551.26 262.71 550.88 264.89 548.28 269.23 540.79 269.37 540.48 270.32 536.86 271.13 536.3 271.74 535.97 276.88 534.85 279.34 536.96 280.66 537.74 282.63 538.62 294.55 541.14 306.07 539.61 316.99 539.2 321.01 540.82 Z" id="KHM-1797" data-name="Kâmpôt"/>
<path d="M 318.98 641.79 318.66 641.6 316.48 642.53 311.17 637.11 309.79 636.26 305.18 636.26 302.63 637.26 301.2 637.64 299.93 637.3 298.74 634.79 298.21 628.32 296.39 627.01 295.55 626.57 295.57 626.54 297.72 622.97 298.83 623.3 300.68 623.33 302.15 623.6 308.34 623.24 311.66 624.51 313.47 626.22 315.87 630.57 316.97 633.32 316.83 637.89 317.11 639.07 318.11 639.87 318.7 640.49 318.98 641.76 318.98 641.79 Z" id="KHM-1798" data-name="Kep"/>
<path d="M 225.68 639.96 224.15 641.41 221.69 641.37 219.5 640.96 217.71 639.75 216.43 637.3 217.68 636.95 218.3 636.53 219.52 635.24 218.52 633.44 218.99 632.33 220.47 631.92 222.61 632.15 224.74 633.6 225.84 636.78 225.68 639.96 Z M 208.19 597.79 212.25 595.48 215.77 592.36 216.47 591.41 216.75 590.83 216.96 590.25 218.04 588.08 220.28 584.5 220.75 583.61 220.93 583.04 221.11 581.81 221.17 579.91 221.43 578.84 221.88 577.57 223 575.12 223.88 574.13 224.86 573.56 228.04 573.81 228.77 573.77 229.87 573.59 230.92 573.18 233.39 571.58 246.34 560.76 247.68 565.8 247.62 581.41 246.58 588.5 246.61 589.74 248.2 602.26 248.29 605.33 248.13 607.54 247.66 608.88 246.39 611.46 243.61 615.77 242.93 616.61 242.58 616.92 242.56 616.94 242.47 616.55 239.16 610.55 238.7 610.44 236.55 610.55 236.01 610.3 236.05 609.7 236.2 608.99 236.07 608.4 235.63 607.5 235.37 605.26 234.95 604.38 233.82 607.36 233.95 610.6 234.95 616.16 234.41 618.77 233.12 621.38 229.81 625.98 228.05 627.78 226.14 628.7 223.6 629.02 219.99 629.07 218.05 628.73 217.15 627.92 216.5 626.9 215.32 625.98 213.82 625.58 211.29 625.49 210.17 624.95 210.17 625.98 213.37 627.69 216.21 630.46 216.98 633.06 213.82 634.21 208.86 633.9 203.22 635.14 200.45 635.24 198.42 634.28 197.41 632.15 197.14 630.03 197.26 629.07 196.8 628.65 196.42 626.66 195.77 625.98 194.58 625.88 193.92 626.33 193.42 626.86 192.68 627.01 191.72 626.75 190.31 626.12 189.03 625.03 187.82 621.53 186.35 619.93 183.33 617.66 180.82 618.71 180.05 616.77 180.79 614.01 182.77 612.61 183.99 611.49 185.53 608.88 186.86 605.95 187.44 603.82 189.91 600.29 195.72 598.63 207.5 598.14 207.61 598.13 208.19 598.12 208.19 598.11 208.19 597.81 208.19 597.79 Z" fill-rule="evenodd" id="KHM-1800" data-name="Krong Preah Sihanouk"/>
<path d="M 582.05 563.52 578.84 563.41 576.18 563.72 575.69 564.26 574.83 565.79 575.16 566.14 574.97 570.02 574.73 570.36 575.5 572.8 579.21 579.73 583.09 594.21 579.74 591.5 575.79 590.52 567.26 589.69 563.26 588.34 559.07 586.24 555.26 583.52 552.46 580.36 551.06 578.74 546.03 574.7 545.81 577.16 544.4 580.46 542.62 583.44 541.22 584.94 538.1 584.99 535.44 583.3 533.41 580.87 532.28 578.72 530.55 573.48 529.48 571.19 524.35 564.22 521.68 559.62 519.15 556.74 515.12 556.32 510.78 557.55 507.27 559.63 507.23 559.65 504.39 561.46 500.97 563.01 498.72 563.48 498.7 563.45 497.57 560.94 496.1 559.28 494.86 558.27 494.49 557.76 494.42 557.32 495.1 556.14 495.49 555.12 496.08 550.16 496.41 549.09 496.9 548.09 497.18 547.69 498.81 545.89 499.17 545.37 499.56 544.72 500.06 543.59 500.15 542.89 499.98 542.37 499.68 541.97 499.32 541.62 498.89 540.45 497.66 534.15 497.55 532.2 497.57 530.91 498.25 529.46 498.66 528.22 499.45 524.32 499.68 523.87 499.98 523.49 501.11 522.5 501.78 521.28 502.14 520.85 503.09 520.27 505.48 520.57 505.69 519.89 505.29 518.88 505.19 518.42 504.84 517.35 503.79 509.7 503.82 497.68 503.96 496.77 504.12 496.05 504.89 494.13 505.87 490.91 507.9 481.46 509.87 476.6 510.57 475.65 511.18 475.02 512.09 474.62 516.06 473.83 517.68 472.9 518.26 472.67 518.87 472.56 521.47 472.57 522.68 472.47 523.22 472.35 523.75 472.14 524.22 471.91 525.22 471.28 526.75 473.79 528.59 474.76 532.6 475.49 534.26 476.71 534.96 478.4 535.11 480.4 534.79 484.33 537.12 492.28 537.37 494.58 536.95 496.83 535.28 501.95 532.79 513.28 532.94 515.42 534.86 516.91 537.32 517.53 539.32 518.72 539.72 521.97 539.72 521.99 541.29 526.16 544.39 528.46 552.46 530.41 554.68 532.43 558.36 538.11 560.62 540.61 565.88 545.03 567.9 547.49 569.43 550.6 571.16 547.35 573.48 546 576.09 546.4 578.79 548.44 580.53 551.03 582.99 559.66 584.68 562.66 583.62 563.57 582.05 563.52 Z" id="KHM-1801" data-name="Svay Rieng"/>
<path d="M 411.54 570.75 410.11 572.03 408.42 574.22 407.45 576.59 407.96 581.81 410.32 587.47 415.71 597.29 415.78 602.18 412.13 605.67 397.34 613.08 395.39 614.73 393.64 616.64 387.43 625.98 383.8 629.7 378.43 631.83 371.66 632.11 364.21 631.2 360.63 630.76 360.64 630.73 360.8 629.71 361.97 616.48 361.8 613.14 361.45 612.76 361.01 612.47 360.54 612.27 360 612.11 358.77 610.67 356.97 604.95 357.34 602.39 360.1 597.01 361.33 595.1 362.62 593.48 366.44 590.31 360.92 575.8 352.41 573.7 349.98 573.43 346.96 574.53 342.1 575.83 337.49 573.98 337.19 573.69 336.98 572.73 338.61 567.87 338.78 566.02 338.41 565.07 338.1 564.62 336.35 556.33 335.93 555.24 334.17 553.63 332.51 552.7 329.6 551.78 324.73 550.85 323.47 550.41 321.97 549.43 321.22 548.32 320.8 547.15 320.68 545.7 321.01 540.82 325.99 542.7 327.84 543.06 332.23 543.1 333.87 543.36 335.37 543.73 338.78 545.68 339.62 545.95 347.41 545.89 347.97 545.75 348.93 545.4 349.79 544.89 351.45 544.43 356.56 544.01 356.5 536.73 357.97 529.93 358.84 525.48 360.92 512.68 361.33 511.06 362.55 509.73 367.18 505.54 371.11 508.13 372.59 508.48 372.83 508.39 374.13 507.77 376.11 507.43 380.76 507.09 385.32 505.88 386.28 505.86 387.03 505.97 387.54 506.25 387.96 506.53 388.82 506.89 394.13 508.08 395.07 508.45 395.4 508.69 395.96 509.53 395.63 516.4 395.86 518.66 396.07 519.12 396.35 519.5 397.1 520.1 398 520.62 401.13 525.16 402.81 526.9 405.75 529.14 408.7 531.18 409.73 533.46 409.77 534.85 407.86 542.09 407.65 545.68 408.26 552.89 407.1 557.65 407.28 560.76 407.51 561.46 407.86 561.85 408.21 562.19 408.65 562.81 409.07 563.84 410.43 568.7 410.64 569.23 410.85 569.67 411.53 570.74 411.54 570.75 Z" id="KHM-1802" data-name="Takêv"/>
</g>
</svg>