<?xml version="1.0"?>
<svg xmlns="http://www.w3.org/2000/svg" version="1.2" baseProfile="tiny" width="800" height="1169" viewBox="0 0 800 1169" stroke-linecap="round" stroke-linejoin="round">
<g id="ne_10m_admin_1_states_provinces">
<path d="M 1 1.7 1.16 1.39 1.4 1.17 1.78 1.03 2.31 1 3.13 3.58 6.09 8.16 6.17 10.46 3.79 7.65 1.64 4.33 1.05 2.84 1 1.7 Z" id="MUS-5180" data-name="Agaléga"/>
<path d="M 112.13 1137.32 107.8 1138.19 107.7 1136.72 108.11 1133.95 110.79 1133.97 112.13 1137.32 Z" id="MUS-5181" data-name="Beau Bassin-Rose Hill"/>
<path d="M 110.79 1145.74 116.02 1142.82 118.5 1144.9 118.97 1146.24 113.14 1148.59 110.79 1145.74 Z" id="MUS-5183" data-name="Curepipe"/>
<path d="M 144.58 1143.76 142.09 1143.51 138.77 1145.97 134.35 1146.34 132.01 1146.47 133.24 1142.16 127.59 1137.74 131.27 1134.29 127.34 1131.47 125 1130.48 125.08 1130.03 125.25 1129.01 127.22 1127.78 127.71 1126.67 139.48 1119.87 140.76 1120.9 141.09 1121.63 140.72 1125.33 141.6 1126.52 142.79 1127.42 143.89 1130.68 146.09 1133.16 146.59 1134.37 146.38 1137.12 145.81 1140.26 144.58 1143.76 Z" id="MUS-5184" data-name="Flacq"/>
<path d="M 144.58 1143.76 144.31 1145.55 144.96 1147.3 142.16 1148.18 138.98 1150.54 137.03 1153.23 137.91 1155.12 138 1155.93 138.61 1156.91 138.7 1157.53 138.3 1158.59 137.64 1158.8 136.92 1158.76 136.29 1159.1 134.75 1161.71 133.88 1162.86 132.44 1163.79 127.72 1165.2 127.46 1163.92 127.09 1161.34 125.62 1157.53 123.53 1155.32 121.19 1154.83 117.99 1154.95 124.14 1148.19 128.08 1148.31 130.66 1147.57 132.01 1146.47 134.35 1146.34 138.77 1145.97 142.09 1143.51 144.58 1143.76 Z" id="MUS-5185" data-name="Grand Port"/>
<path d="M 118.02 1131.99 119.1 1132.33 121.07 1131.59 123.4 1130.11 125.08 1130.03 125 1130.48 127.34 1131.47 131.27 1134.29 127.59 1137.74 133.24 1142.16 132.01 1146.47 130.66 1147.57 128.08 1148.31 124.14 1148.19 121.68 1146.59 120.58 1144.62 121.07 1143.15 119.1 1140.69 117.99 1139.21 115.78 1138.97 113.08 1136.63 111.48 1132.82 111.11 1130.73 113.32 1129.99 114.8 1130.6 117.13 1131.71 118.02 1131.99 Z" id="MUS-5186" data-name="Moka"/>
<path d="M 127.71 1126.67 127.22 1127.78 125.25 1129.01 125.08 1130.03 123.4 1130.11 121.07 1131.59 119.1 1132.33 118.02 1131.99 118.49 1129.01 118.12 1124.33 117.26 1122.86 115.17 1123.35 112.64 1122.97 112.02 1122.87 112.09 1120.74 113.83 1117.73 115.24 1113.63 115.94 1112.4 116.45 1111.71 119.6 1109.31 120.39 1108.97 121.92 1108.86 125.37 1112.78 125.62 1114.25 124.88 1115.85 128.2 1119.05 126.36 1121.14 127.71 1126.67 Z" id="MUS-5187" data-name="Pamplemousses"/>
<path d="M 111.11 1130.73 111.48 1132.82 113.08 1136.63 115.78 1138.97 117.99 1139.21 119.1 1140.69 121.07 1143.15 120.58 1144.62 121.68 1146.59 124.14 1148.19 117.99 1154.95 116.77 1155.2 115.78 1154.46 114.06 1154.21 113.81 1155.2 113.08 1157.53 111.23 1157.29 111.36 1155.56 110.25 1154.95 108.04 1154.46 107.05 1153.23 108.16 1152.37 107.42 1150.52 106.81 1148.19 107.54 1147.45 109.14 1147.45 109.63 1146.71 109.41 1146.51 110.79 1145.74 113.14 1148.59 118.97 1146.24 118.5 1144.9 116.02 1142.82 114.01 1140.54 112.13 1137.32 110.79 1133.97 108.11 1133.95 108.37 1132.16 109.39 1130.48 111.11 1130.73 Z" id="MUS-5188" data-name="Plaines Wilhems"/>
<path d="M 118.02 1131.99 117.13 1131.71 114.8 1130.6 113.32 1129.99 111.11 1130.73 109.39 1130.48 108.77 1128.05 110.17 1127.86 111.73 1128.12 112.9 1128.5 113.85 1127.9 114.15 1126.87 115.25 1125.88 114.95 1124.33 114.19 1124.18 113.4 1124.78 112.67 1124.03 112.64 1122.97 115.17 1123.35 117.26 1122.86 118.12 1124.33 118.49 1129.01 118.02 1131.99 Z" id="MUS-5189" data-name="Port Louis"/>
<path d="M 112.64 1122.97 112.67 1124.03 113.4 1124.78 114.19 1124.18 114.95 1124.33 115.25 1125.88 114.15 1126.87 113.85 1127.9 112.9 1128.5 111.73 1128.12 110.17 1127.86 108.77 1128.05 108.59 1127.36 109.71 1126.9 111.67 1124.99 112.02 1122.87 112.64 1122.97 Z" id="MUS-5190" data-name="Port Louis city"/>
<path d="M 114.01 1140.54 108.06 1142.17 107.8 1138.19 112.13 1137.32 114.01 1140.54 Z" id="MUS-5191" data-name="Quatre Bornes"/>
<path d="M 139.48 1119.87 127.71 1126.67 126.36 1121.14 128.2 1119.05 124.88 1115.85 125.62 1114.25 125.37 1112.78 121.92 1108.86 122.59 1108.49 123.09 1107.68 123.78 1106.87 124.99 1106.51 126.8 1106.77 131.93 1108.19 133.3 1108.86 133.89 1110.13 133.25 1112.1 133.69 1113.19 134.5 1114.28 135.37 1116.2 136.34 1117.84 136.64 1119.16 137.21 1119.87 137.68 1119.96 139.03 1119.76 139.48 1119.87 Z" id="MUS-5192" data-name="Rivière du Rempart"/>
<path d="M 108.77 1128.05 109.39 1130.48 108.37 1132.16 108.11 1133.95 107.7 1136.72 107.8 1138.19 108.06 1142.17 108.16 1143.76 108.53 1145.73 109.41 1146.51 109.63 1146.71 109.14 1147.45 107.54 1147.45 106.81 1148.19 107.42 1150.52 108.16 1152.37 107.05 1153.23 108.04 1154.46 110.25 1154.95 111.36 1155.56 111.23 1157.29 109.88 1156.55 107.42 1157.29 105.08 1158.15 102.38 1160.11 100.29 1160.73 100.29 1163.06 101.52 1164.17 101.19 1165.88 98.77 1166.92 92.18 1161.33 90.73 1159.73 90.23 1158.2 92.04 1157.53 94.88 1158.08 96.44 1157.8 97.13 1156.32 97.73 1153.11 97.6 1151.93 96.35 1151.27 97.27 1148.48 97.38 1142.16 97.91 1138.69 98.7 1136.7 101.3 1131.84 102.25 1130.89 102.48 1130.53 105.01 1128.54 106.11 1128.03 108.59 1127.36 108.77 1128.05 Z" id="MUS-5193" data-name="Rivière Noire"/>
<path d="M 796.98 1071.98 799 1072.44 798.51 1074.68 796.2 1077.14 792.68 1078.3 790.14 1078.69 788.32 1079.66 786.6 1080.93 784.4 1082.21 781.12 1078.92 780.5 1078.69 780.83 1076.56 781.75 1075.63 783.12 1075.05 787.01 1072.77 790.67 1071.59 794.46 1071.07 796.98 1071.98 Z" id="MUS-5194" data-name="Rodrigues"/>
<path d="M 117.99 1154.95 121.19 1154.83 123.53 1155.32 125.62 1157.53 127.09 1161.34 127.46 1163.92 127.72 1165.2 122.85 1166.66 113.14 1168.1 109.71 1167.84 104.36 1166.22 101.19 1165.88 101.52 1164.17 100.29 1163.06 100.29 1160.73 102.38 1160.11 105.08 1158.15 107.42 1157.29 109.88 1156.55 111.23 1157.29 113.08 1157.53 113.81 1155.2 114.06 1154.21 115.78 1154.46 116.77 1155.2 117.99 1154.95 Z" id="MUS-5195" data-name="Savanne"/>
<path d="M 116.02 1142.82 110.79 1145.74 109.41 1146.51 108.53 1145.73 108.16 1143.76 108.06 1142.17 114.01 1140.54 116.02 1142.82 Z" id="MUS-5196" data-name="Vacoas-Phoenix"/>
</g>
</svg>