<?xml version="1.0"?>
<svg xmlns="http://www.w3.org/2000/svg" version="1.2" baseProfile="tiny" width="800" height="599" viewBox="0 0 800 599" stroke-linecap="round" stroke-linejoin="round">
<g id="ne_10m_admin_1_states_provinces">
<path d="M 471.67 575.79 471.14 575.77 470.66 575.48 467.46 571.21 464.65 567.46 462.21 564.19 460.8 563.41 452.38 564.53 446.12 565.36 436.93 564.45 429.76 563.74 420.35 562.82 412.32 562.02 410.59 561.48 404.43 558.03 402.28 557.61 395.92 557.57 394.97 557.57 390.3 557.53 382.62 557.49 381.8 557.66 379.42 558.52 378.35 558.58 375.76 558.07 373.44 557.98 369.78 558.35 366.87 559 366.15 559.05 364.55 558.6 363.78 558.51 363.22 558.89 362.67 559.83 362.09 560.51 361.37 560.83 360.38 560.7 358.93 559.98 358.28 559.91 357.46 560.33 356.89 560.98 356.4 561.72 355.81 562.28 354.92 562.41 354.47 562.32 354.24 562.2 354.12 562.02 353.97 561.71 354.07 560.96 354.07 560.55 353.84 560.45 352.95 560.7 352.29 560.73 350.79 560.6 349.37 560.75 348.69 560.75 347.93 560.49 346.36 559.3 344.44 557.23 344.44 556.04 345.49 552.24 345.39 550.22 344.63 547.9 344.52 547 344.55 545.95 344.9 544.44 345.87 536.04 345.77 534.45 345.4 532.9 344.82 531.21 344.43 529.56 344.47 528.61 344.8 527.55 345.56 526.18 346.54 524.95 352.67 518.78 356.93 515.34 358.12 514.14 358.58 513.5 359.03 512.72 359.92 510.68 360.45 509.76 361.26 508.91 362.16 508.33 363.03 507.98 365.65 507.47 367.33 506.91 369.07 506.09 370.73 505.03 371.43 504.37 372.03 503.64 372.5 502.9 372.87 501.97 373.12 500.93 373.27 499.51 373.26 498.19 373.09 496.5 371.76 491.7 371.74 490.78 371.99 489.78 372.93 488.41 373.81 487.68 376.32 486.43 376.91 485.98 377.27 485.51 377.57 484.65 377.72 483.42 377.71 478.66 388.25 484.91 390.96 486.17 392.98 486.89 396.56 487.71 406.34 488.34 495.08 479.28 500.01 477.95 488.02 570.29 488.02 570.32 487.98 570.36 483.66 572.79 479.01 575.4 477.89 575.83 476.66 576 471.67 575.79 Z" id="SAU-1096" data-name="Najran"/>
<path d="M 500.01 477.95 495.08 479.28 406.34 488.34 396.56 487.71 392.98 486.89 390.96 486.17 388.25 484.91 377.71 478.66 377.05 478.21 362.16 465.23 358.51 459.49 356.33 457.07 355.74 456.14 355.46 454.96 355.47 454.02 356.95 447.53 357.68 446.08 359.9 442.79 360.22 442.12 360.51 441.34 360.54 441.19 360.55 440.47 360.48 439.77 360.25 438.95 359.75 438.04 356.61 434.8 354.36 431.97 353.16 430.15 351.07 427.86 345.54 423.21 335.64 409.39 335.2 408.61 334.98 407.84 334.93 407.04 334.99 406.29 336.51 400.76 336.77 399.14 336.3 392.81 336.38 392.03 336.68 391.3 337.16 390.59 338.3 389.19 338.76 388.46 339.12 387.71 339.37 386.93 339.48 386.1 339.51 385.35 337.61 372.7 337.62 371.12 338.67 365.57 338.63 365.42 338.07 364.83 337.35 364.47 336.53 364.24 332.03 363.44 331.18 363.41 330.35 363.51 325.88 364.65 324.99 364.72 324.12 364.64 322.48 364.12 321.63 363.63 320.83 362.93 320 361.55 319.75 360.56 319.71 359.65 319.93 355.8 320.5 354.14 320.65 353.46 320.48 352.68 319.95 351.86 318.91 351.08 317.97 350.62 317.06 350.32 315.35 349.99 307.09 349.36 301.22 349.46 299.84 349.25 299.03 349.01 298.2 348.65 297.38 348.19 296.66 347.62 296.12 347.05 295.74 346.52 290.86 335.77 289.75 330.37 289.4 329.41 288.42 327.44 286.42 321.44 285.7 320.28 284.93 319.53 284.12 318.96 282.72 318.19 282.3 317.85 281.86 317.31 281.58 316.54 281.46 314.17 281.85 310.58 281.73 307.08 282.2 300.61 282.87 297.75 283.01 296.3 282.97 295.41 282.43 294.17 282.36 293.87 282.42 293.31 282.63 292.7 283.21 291.81 284.97 289.72 285.06 289.58 285.57 288.48 286.02 286.82 286.01 285.5 286.73 284.05 289.25 280.59 289.77 280.12 290.79 279.39 291.66 279.02 292.55 278.89 293.37 279.03 297.39 280.91 299.06 281.46 301.76 282.07 308.6 282.74 310.49 282.69 315.87 281.96 317.67 282.06 320.63 282.82 321.36 282.83 322.15 282.64 323.04 282.24 323.95 281.53 324.72 280.59 325.33 279.18 325.37 278.17 325.09 277.27 324.11 275.72 323.73 274.95 323.57 274.18 323.76 273.27 324.28 272.22 327.94 267.79 331.52 264.5 332.46 263.91 333.35 263.53 346 260.79 347.53 260.15 348.47 259.53 350.5 257.78 353.19 256.2 353.99 255.47 354.73 254.41 356.13 251.85 357.15 250.58 357.75 250.02 358.24 249.65 358.86 249.29 359.62 248.95 360.45 248.71 361.31 248.56 363.07 248.55 371.13 249.52 380.15 248.93 383.61 249.22 384.41 249.13 385.11 248.86 385.54 248.28 385.81 247.58 385.99 246.78 386.07 245.7 386.02 244.37 385.67 242.11 385.26 240.76 384.75 239.66 383.7 237.95 383.44 237.05 383.6 235.97 384.02 234.21 383.81 233.02 383.74 232.86 380.86 229.37 377.49 224.3 376.6 223.27 373.6 220.59 372.97 219.84 372.55 219.08 372.38 218.31 372.37 217.51 373.17 212.59 373.14 210.92 372.86 209.21 372.97 208.34 373.67 207.49 374.52 207.03 375.43 206.77 376.9 206.5 377.36 206.28 378 205.76 380.77 202.13 382.18 200.71 383.88 199.32 384.82 198.73 385.77 198.27 387.61 197.67 388.48 197.28 389.23 196.75 389.73 196.11 390 195.53 390.14 195.04 390.15 194.96 390.16 194.37 390.07 193.69 389.86 192.91 389.5 192.1 389.02 191.28 388.37 190.5 387.62 189.79 386.06 188.59 384.36 187.56 381.91 186.59 381.68 186.09 381.29 184.76 381.23 183.97 381.27 183.18 381.39 182.43 381.79 181.25 382.4 180.06 383.43 178.54 384.41 177.43 385.61 176.42 386.11 176.07 386.19 176.03 388.4 175.3 389.1 175.86 389.29 176.05 389.34 176.13 389.94 176.77 390.62 177.24 391.42 177.57 392.29 177.65 393.28 177.27 394.07 176.83 395.64 174.83 396.02 175.02 399.26 177.13 400.85 178.49 401.51 179.28 402.01 180.18 403.04 183.45 403.52 184.45 404.44 185.51 405.31 186.23 416.04 191.76 417.78 192.23 420.55 192.45 421.42 192.6 422.25 192.99 422.99 193.6 425.33 196.17 428.94 199.24 430.59 200.25 431.41 200.59 433.04 200.9 439.3 201.07 440.97 201.37 442.63 201.89 445.03 203.12 454.38 209.14 455.25 209.49 456.17 209.76 457.04 209.88 457.91 209.92 463.56 209.01 464.48 209.05 465.35 209.29 466.17 209.78 472.43 215.27 473.44 216.71 474.13 217.41 474.93 217.82 487.05 222.19 487.52 222.5 488.07 222.98 488.57 223.66 488.92 224.36 489.17 225.07 489.4 226.28 490.25 277.08 490.58 278.77 490.86 279.36 491.36 280.12 492.03 280.83 505.44 289.64 515.01 298.43 516.53 300.23 518.12 302.65 519.72 305.97 520.64 308.67 521.2 313.28 521 321.73 510.2 403.36 500.01 477.95 Z" id="SAU-1097" data-name="Ar Riyad"/>
<path d="M 568.97 181.69 569.72 181.97 571.73 182.49 573.64 182.98 572.95 183.21 572.37 183.09 571.81 182.85 571.18 182.72 570.55 182.8 569.97 183.01 569.43 183.33 568.97 183.73 568.67 183.44 568.63 183.46 568.45 183.5 568.14 183.3 567.94 183.21 567.93 183.21 567.93 182.98 568.44 182.78 568.54 182.58 568.54 182.58 568.38 182.34 568.21 182.2 568.06 182.06 567.67 181.9 567.26 181.96 566.85 182.1 566.5 182.18 566.02 182.35 565.54 182.8 565.12 183.4 564.83 184.01 564.73 183.03 565.44 182.06 566.54 181.35 567.67 181.17 568.1 181.23 568.42 181.37 568.97 181.69 Z M 488.69 120.15 490.52 122.88 492.62 127.94 492.79 128.89 492.94 130.93 493.3 132.09 493.82 133.21 494.39 134.07 495.2 134.72 496.07 135.26 496.78 135.91 497.09 136.92 499.13 136.9 505.86 136.84 512.6 136.78 519.33 136.72 526.06 136.65 526.06 136.65 526.95 137.49 527.42 137.78 528.4 138.18 528.55 138.46 528.9 140.11 528.9 141.38 528.57 142.23 527.7 141.95 527.52 142.2 527.47 142.31 527.42 142.46 528.16 142.51 528.79 142.37 529.26 142.01 529.51 141.43 529.95 141.69 529.93 142.03 529.51 142.72 529.28 143.71 529.25 144.16 529.45 145.05 529.93 145.81 533.09 148.9 533.29 149.35 532.74 150.08 532.46 150.79 532.43 151.53 532.64 152.34 533.02 152.94 534.22 154.4 534.47 154.8 534.42 155.24 534.37 155.38 534.96 155.7 536.26 156.22 536.67 156.26 537.97 156.22 538.3 156.31 539.06 156.68 539.51 156.76 539.67 156.86 539.65 157.1 539.53 157.36 539.39 157.54 539.14 157.64 538.89 157.62 538.61 157.54 537.96 157.83 537.79 158.07 537.84 158.59 538.2 159.1 538.96 159.79 539.83 160.4 540.53 160.66 540.55 160.83 541.4 161.97 542.92 163.31 543.1 163.69 542.77 164.46 542.72 164.94 542.75 165.38 542.88 165.58 542.79 165.85 542.45 166.45 541.97 167.07 541.46 167.41 541.72 166.97 541.78 166.65 541.69 165.72 541.81 165.19 542.03 164.88 542.15 164.57 541.97 164.03 541.41 164.55 540.8 165.96 540.16 166.35 540.86 164.72 540.94 164.29 540.75 163.57 540.45 163.62 540.13 164.14 539.41 166.8 539.39 167.41 539.3 167.5 539.17 167.75 539.22 167.96 539.64 167.93 539.85 167.75 540.12 167.11 540.4 166.87 540.4 168.56 540.55 168.97 540.9 168.91 541.26 168.59 541.46 168.19 541.72 168.6 541.77 169.11 541.69 169.74 542.17 169.9 542.54 169.71 542.81 169.35 543.01 168.97 543.02 169.62 542.94 169.85 542.75 170.02 542.93 170.37 542.89 170.6 542.65 170.72 542.23 170.75 542.62 171.58 542.75 171.81 541.83 171.4 541.44 171.4 541.18 171.81 541.97 172.11 542.65 172.07 543.18 171.71 543.53 171.03 543.78 171.03 544.04 171.57 543.58 171.99 543.42 172.73 543.64 173.34 544.3 173.36 544.58 173.08 544.41 172.82 544.12 172.56 544.04 172.3 544.34 171.96 544.75 171.76 545.62 171.57 546.36 171.51 546.86 171.73 548.21 172.84 549.6 173.48 549.97 173.94 549.24 174.4 549.78 174.63 550.26 174.57 550.49 174.31 550.28 173.88 550.92 174.14 551.58 174.3 553.01 174.4 553.33 174.32 554 173.96 554.31 173.88 554.71 173.92 555.46 174.12 555.87 174.16 556.63 174.36 557.21 174.84 558.08 175.95 558.36 176.16 558.63 176.29 558.88 176.45 559.12 176.75 559.21 177.04 559.29 177.71 559.4 178.02 558.92 178.04 558.64 177.85 558.53 177.5 558.6 177.01 558.34 177.01 557.55 177.86 555.46 177.66 554.72 178.3 554.44 178.3 554.18 177.65 553.52 177.64 552.09 178.3 552.4 178.46 553.23 178.67 553.66 178.84 554 179.06 554.22 179.26 554.49 179.44 554.95 179.62 555.2 179.91 555.39 180.04 555.6 179.98 556.24 179.41 556.25 179.33 556.45 179.17 556.54 178.95 556.65 178.83 556.9 178.96 557.19 179.19 557.54 179.33 557.28 179.86 556.92 180.12 556.54 180.31 556.25 180.63 556.14 181.04 556.11 182.03 556.01 182.46 556.42 182.36 556.86 182.15 557.3 181.87 557.68 181.56 558.11 181.42 558.62 181.55 559.4 181.94 559.1 182.68 559.21 183.41 559.49 184.15 559.63 184.92 559.56 186.54 559.77 187.22 560.41 187.14 560.37 187.83 560.63 188.09 561.03 188 561.45 187.66 561.26 187.09 561.6 186.73 562.19 186.69 562.74 187.14 562.97 186.86 563.17 187.28 563.06 187.67 562.85 188.07 562.74 188.56 562.61 188.85 562.28 188.98 561.86 188.98 561.45 188.93 561.75 189.37 562.67 189.53 562.97 189.98 563.35 189.78 563.6 189.46 564.03 188.69 564.06 188.86 564.1 188.88 564.16 188.87 564.29 188.93 563.91 189.6 564.22 189.72 565.19 189.45 565.78 189.54 566.8 189.94 567.42 189.98 566.39 188.99 566.08 188.39 566.64 187.89 567.11 187.88 567.48 188.09 567.81 188.34 568.19 188.43 568.49 188.32 569.22 187.66 569.09 188.26 568.74 189.18 568.71 189.73 568.94 190.59 569.14 191.07 569.35 191.28 570.06 191.58 570.75 192.29 572.94 195.36 574.05 196.59 574.38 196.83 575.46 197.25 575.8 197.5 576.36 198.02 576.75 198.29 579.11 199.26 580.58 200.22 581.42 200.3 582.3 200.26 583.24 200.38 584.41 200.98 585.51 201.95 587.4 204.26 588.05 205.29 590.81 207.08 591.43 207.71 591.56 208.68 589.85 207.31 588.94 206.79 586.87 206.56 586.33 206.4 585.96 205.97 585.67 204.57 585.34 204.81 584.99 205.45 584.82 206.07 584.78 206.54 584.8 206.99 584.92 207.41 585.19 207.77 585.57 208.13 585.67 208.33 585.52 210.64 585.57 211.28 586.59 214.16 587.02 214.77 587.64 215.32 588.33 215.71 591.58 216.72 592.69 217.61 593.36 218.9 593.64 220.62 593.61 224.75 593.47 225.65 593.08 226.4 592.34 226.83 592.32 226.25 592.03 226.05 591.62 226.18 591.29 226.6 591.53 227.55 591.43 229.01 591.13 230.5 590.79 231.53 590.2 231.14 590.03 230.59 590.05 230 589.99 229.44 589.72 228.98 589.38 228.68 589.03 228.44 588.72 228.15 588.51 228.01 588.34 228.01 588.22 227.91 588.14 226.86 588.07 226.61 587.92 226.31 587.62 225.94 587.16 225.53 586.66 225.28 586.23 225.41 585.24 227.13 584.93 227.37 584.52 227.61 584.71 228.12 585.11 228.61 585.33 228.8 585.41 229.07 585.76 229.62 585.83 229.98 585.7 230.08 585.44 230.16 585.17 230.32 585.05 230.61 585.14 231.16 585.28 231.69 585.31 232.24 585.05 232.83 585.69 233.03 586.23 232.73 586.5 232.16 586.34 231.53 586.71 231.63 586.97 231.82 587.4 232.31 587.61 232.4 587.77 232.36 587.88 232.39 587.92 232.69 587.92 232.92 587.97 233.04 588.08 233.08 588.31 233.08 589.27 233.29 589.66 233.8 589.85 234.48 590.27 235.15 590.27 235.41 589.51 236.13 589.91 237.9 590.81 239.86 591.56 241.13 593.84 243.6 594.8 245.04 595.19 246.84 594.95 246.84 594.29 245.04 594.02 244.75 593.56 244.65 593.01 244.42 592.54 244.13 592.06 243.49 591.46 243.06 590.91 243 590.79 243.74 591.06 244.27 592.04 244.9 592.34 245.29 592.54 244.91 592.6 244.75 592.86 244.75 594.3 247.47 598.61 252.51 599.61 253.31 599.5 252.8 599.25 252.21 599.14 251.72 599.48 251.52 599.88 251.35 600.05 251.43 600.21 252.27 600.4 252.47 600.58 252.58 600.66 252.67 600.97 253.2 601.67 253.5 602.97 253.85 603.29 254.22 604.03 255.92 603.74 256.18 604.21 256.76 604.72 257.76 605.14 258.85 605.32 259.69 605.28 260.16 605.08 261 605.04 261.5 605.12 261.99 605.3 262.33 605.47 262.58 605.69 263.24 606.23 264.16 606.33 264.74 606.09 266.29 606.4 267.83 606.73 268.7 607.13 269.15 607.42 268.42 608.4 269.16 609.43 270.35 609.86 270.97 610.5 271.54 611.25 274.04 612.2 274.61 612.95 275.26 613.28 276.71 613.36 279.03 613.52 279.47 613.84 280.13 614.25 280.76 614.65 281.12 615.21 281.11 616.04 280.38 618.81 284.55 620.61 286.42 622.51 287.15 624.79 287.45 626.93 287.44 628.9 286.83 631.47 284.95 631.47 284.95 631.56 285.26 633.5 285 633.85 285.22 634.16 285.61 634.5 285.83 634.92 285.52 634.96 285.81 634.92 286.16 634.77 286.44 634.52 286.55 634.31 286.75 634.39 287.15 634.56 287.52 634.66 287.59 634.55 288.89 634.77 289.07 635.44 288.86 635.96 288.51 636.99 286.84 637.53 286.35 638.01 286.04 638.31 285.62 638.29 284.75 638.85 285.01 639.54 285.07 640.13 285.19 640.38 285.65 640.56 286.15 641.03 286.22 641.62 286.23 642.19 286.55 642.19 286.84 641.58 287.1 640.8 287.32 640.12 287.65 639.84 288.25 639.69 288.25 638.83 289.12 638.65 289.43 638.46 289.93 638.29 290.18 636.05 291.69 635.7 292.14 635.6 292.32 635.11 292.95 634.92 293.28 634.85 293.65 634.77 294.49 634.66 294.86 634.64 295.07 634.68 295.33 634.67 295.54 634.52 295.63 634.12 295.61 633.94 295.65 633.87 295.76 633.84 296.58 633.88 297 634.01 297.18 636.38 297.38 637.25 297.18 637.72 296.92 638.03 296.67 638.38 296.48 638.95 296.41 641.46 296.89 642.14 297.36 643.25 298.5 644.88 298.96 645.12 300.41 645.11 301.39 645.03 303.82 645.23 304.8 645.8 305.69 647.96 308.26 649.93 310.61 651.91 312.96 653.88 315.31 655.86 317.66 657.83 320.01 659.81 322.35 661.79 324.71 663.76 327.05 665.74 329.4 667.71 331.75 669.69 334.1 671.66 336.45 673.64 338.8 675.61 341.15 677.59 343.5 679.56 345.85 681.6 348.26 682.35 348.87 683.29 349.15 689.37 349.9 694.64 350.55 699.91 351.2 705.18 351.85 710.44 352.49 715.71 353.14 720.98 353.79 726.25 354.44 731.51 355.08 736.79 355.73 742.05 356.38 747.32 357.03 752.59 357.68 757.85 358.33 763.12 358.97 768.39 359.62 773.66 360.27 778.84 360.9 779.41 360.81 781.93 357.77 784.33 361.49 787.39 366.22 790.46 370.95 793.51 375.69 796.58 380.41 798.59 383.53 798.98 384.36 799 385.22 797.58 389.5 797.39 390.07 797.14 390.82 796.44 392.94 795.35 396.22 793.93 400.48 792.26 405.53 790.39 411.16 788.39 417.18 787.9 418.64 786.32 423.39 784.25 429.61 782.25 435.62 780.39 441.25 778.71 446.3 777.29 450.56 776.2 453.85 775.5 455.96 775.25 456.71 774.03 460.37 768.33 462.27 761.84 464.43 755.36 466.59 748.88 468.75 742.4 470.91 735.91 473.07 729.43 475.23 722.95 477.39 716.46 479.55 709.99 481.71 703.5 483.87 697.02 486.04 690.53 488.2 684.05 490.36 677.57 492.52 671.09 494.68 664.6 496.84 660.39 498.24 654.41 499.05 648.34 499.86 642.27 500.68 636.2 501.5 630.13 502.31 624.07 503.13 618 503.95 611.93 504.76 605.86 505.58 599.79 506.4 593.73 507.21 587.66 508.03 581.59 508.85 575.52 509.66 569.45 510.48 563.39 511.3 557.32 512.11 552.43 512.77 548.91 514 547.22 514.83 541.77 517.48 535.27 520.66 528.01 524.2 521.51 527.38 516.65 529.75 515.8 530.32 512.86 533.84 509.42 537.95 503.43 545.12 497.78 551.88 494.1 556.29 493.46 557.47 491.66 562.19 489.13 568.88 488.02 570.32 488.02 570.29 500.01 477.95 510.2 403.36 521 321.73 521.2 313.28 520.64 308.67 519.72 305.97 518.12 302.65 516.53 300.23 515.01 298.43 505.44 289.64 492.03 280.83 491.36 280.12 490.86 279.36 490.58 278.77 490.25 277.08 489.4 226.28 489.17 225.07 488.92 224.36 488.57 223.66 488.07 222.98 487.52 222.5 487.05 222.19 474.93 217.82 474.13 217.41 473.44 216.71 472.43 215.27 466.17 209.78 465.35 209.29 464.48 209.05 463.56 209.01 457.91 209.92 457.04 209.88 456.17 209.76 455.25 209.49 454.38 209.14 445.03 203.12 442.63 201.89 440.97 201.37 439.3 201.07 433.04 200.9 431.41 200.59 430.59 200.25 428.94 199.24 425.33 196.17 422.99 193.6 422.25 192.99 421.42 192.6 420.55 192.45 417.78 192.23 416.04 191.76 405.31 186.23 404.44 185.51 403.52 184.45 403.04 183.45 402.01 180.18 401.51 179.28 400.85 178.49 399.26 177.13 396.02 175.02 395.64 174.83 395.15 174.35 394.17 173.06 393.83 172.29 393.69 171.54 393.7 170.85 393.79 170.23 394.08 169.12 395.05 166.99 395.84 165.73 402.21 158.9 404.07 156.51 417.41 134.31 419.68 131.31 422.62 128.4 426.36 125.38 431.66 122.8 449.6 116.86 450.09 116.36 450.75 116.24 452.41 115.93 454.07 115.62 458.3 116.08 462.53 116.54 466.76 117 471 117.46 474.77 117.89 478.54 118.33 482.31 118.77 486.09 119.2 488.2 119.45 488.2 119.45 488.22 119.45 488.23 119.45 488.69 120.15 Z" fill-rule="evenodd" id="SAU-1098" data-name="Ash Sharqiyah"/>
<path d="M 199.64 208.01 200.32 209.63 200.48 210.36 200.59 211.31 200.55 212.16 200.22 213.54 200.05 213.99 198.68 216.24 198.22 217.41 198.27 218.32 198.67 219.12 199.38 219.71 200.19 220.01 201.06 220.07 202.88 219.73 203.77 219.77 204.6 220.39 204.95 221.15 205.07 221.97 202.97 234.68 202.94 235.84 203.09 236.75 204.29 240.92 204.95 244.72 204.61 254.79 204.81 255.82 205.24 256.74 205.75 257.43 206.36 258 206.8 258.3 207.49 258.62 208.29 258.85 209.15 258.96 210.02 258.93 210.91 258.79 220.32 255.79 222.22 255.49 226.73 255.59 228.36 255.45 229.14 255.31 229.89 255.11 230.4 254.92 231.09 254.58 231.82 254.08 232.59 253.42 235.37 250.29 236.23 249.6 237.25 249.02 238.54 248.59 239.61 248.37 246.16 248.12 256.74 249.62 260.01 250.45 260.92 250.75 265.92 251.83 267.6 252.37 268.33 252.84 268.91 253.57 269.22 254.5 269.35 255.38 268.63 265.2 268.78 266.05 269.11 266.91 269.87 267.95 270.68 268.58 271.55 269.01 276.45 270.2 277.07 270.49 277.5 270.75 277.57 270.82 278.22 271.87 278.86 273.34 280.85 280.47 281.58 282.03 282.07 282.7 282.7 283.25 286.01 285.5 286.02 286.82 285.57 288.48 285.06 289.58 284.97 289.72 283.21 291.81 282.63 292.7 282.42 293.31 282.36 293.87 282.43 294.17 282.97 295.41 283.01 296.3 282.87 297.75 282.2 300.61 281.73 307.08 281.85 310.58 276.89 309.9 274.5 310.03 273.64 310.37 272.89 310.88 272.38 311.57 272.2 312.35 272.27 313.14 273.26 315.62 273.43 316.4 273.52 317.21 273.45 318.87 273.17 319.81 272.66 320.82 271.67 322.23 270.74 323.08 269.82 323.72 263.08 326.44 258.17 328.99 256.49 330.14 255.32 331.29 254.92 332.21 255.16 333.01 255.82 333.66 256.65 334.23 260.78 336.29 261.4 336.91 261.64 337.74 261.25 338.8 260.53 339.52 259.65 339.98 255.25 341.49 254.24 342.11 253.07 342.98 247.79 347.88 236.99 355.74 235.48 357.35 232.77 361.24 231.79 362.22 230.89 362.6 229.97 362.65 224.16 360.98 223.25 360.88 222.09 361.08 220.53 361.99 216.67 365.01 215.88 365.45 215.7 365.52 214.74 365.74 213.9 365.82 213.02 365.82 210.58 365.49 210.41 365.45 209.65 365 209.2 364.38 209.03 363.64 209.14 362.87 209.52 361.36 209.74 359.71 209.71 358.89 209.52 358.08 209.15 357.32 208.56 356.59 207.84 355.96 207.16 355.49 206 354.96 203.49 354.24 202.75 353.93 202.25 353.32 202.12 352.57 202.32 351.79 204.41 347.26 204.61 346.57 204.87 344.76 204.83 343.6 204.7 342.91 204.43 342.2 203.98 341.52 203.29 341 202.49 340.77 201.66 340.73 198.12 341.14 190.04 343.47 187.16 343.97 186.29 343.61 185.88 342.98 185.75 341.43 185.56 340.69 185.16 340.06 184.45 339.69 183.32 339.66 179.28 340.34 177.79 340.44 176.55 340.24 175.63 339.69 174.78 339 171.82 335.77 168.77 333.31 168.27 332.82 166.67 330.45 165.93 329.8 164.94 329.53 163.78 329.63 161.11 330.19 156.39 330.52 155.22 330.65 155.11 329.87 154.97 328.81 154.75 327.98 154.66 327.3 154.02 326.68 153.74 326.26 153.62 325.64 153.57 325.02 152.73 325.46 152.35 325.24 152.05 325.24 152.08 325.87 152.44 326.2 153.39 326.53 153.39 326.79 152.13 326.68 151.29 325.97 151.26 324.12 149.58 322.12 148.69 319.52 148.43 318.66 148.26 317.72 147.98 316.84 147.39 316.16 147.01 315.98 146.6 315.9 145.97 315.7 145.61 315.32 145.44 314.78 145.13 314.12 144.67 313.57 144.05 313.39 143.44 313.23 142.92 312.97 142.55 312.7 142.18 312.06 141.57 311.4 141.27 311.17 140.64 310.75 139.87 310.53 139.25 310.46 138.35 309.91 137.86 309.57 137.11 308.93 136.39 308.1 135.61 307.55 134.97 307 133.83 306 133.53 305.86 133.22 305.78 132.88 305.92 132.57 306.11 131.71 305.57 131.12 305.14 129.56 304.23 128.38 303.4 128.6 302.94 129.26 302.52 130.19 302.39 129.82 302.04 129.26 302.21 128.54 302.55 128.27 302.06 128.7 301.41 128.86 300.82 128.46 300.67 128.21 300.96 127.74 301.04 127.52 301.41 127.74 301.61 127.86 301.95 127.92 302.43 127.95 302.77 127.73 302.99 126.89 302.71 125.74 302.98 124.02 301.78 123.5 301.34 122.03 300.27 121.69 299.51 121.2 299.2 120.55 298.91 119.86 298.57 119.31 298.08 118.56 297.63 117.66 297.65 117.23 297.61 116.67 298 116.54 298.5 116.76 299.27 115.14 299.32 114.74 298.75 113.62 298.27 112.75 298.52 111.92 297.73 111.39 296.87 110.55 295.8 109.22 294.75 108.78 293.47 109.16 292.71 109.44 292.79 110.19 293.25 110.5 292.65 110.25 291.95 107.45 288.22 107.54 287.97 108 285.76 108.26 285.05 108.67 284.38 109.29 283.77 110.07 283.42 110.82 283.25 113.93 283.25 115.38 283.07 116.22 282.86 117.12 282.54 118.04 281.98 118.97 281.17 119.98 280 120.79 279.22 121.62 278.77 122.45 278.63 123.29 278.67 125 278.94 126.82 279.02 127.78 278.86 128.7 278.47 129.58 277.83 130.33 276.86 130.7 276.14 130.85 275.61 130.38 263.14 131.72 254.52 131.64 253.77 131.35 253.1 130.87 252.64 130.35 252.38 129.55 252.23 127.16 252.13 126.56 251.97 126.32 251.88 126.2 251.77 125.86 251.02 124.53 246.4 123.38 243.54 122.78 242.48 122.24 241.77 121.55 241.01 116.62 237.28 115.98 236.56 115.51 235.8 115.18 235 114.6 232.93 114.49 232.78 114.25 232.56 113.65 232.15 106.88 228.64 106.03 228.53 105.24 228.8 103.87 229.81 103.27 229.95 102.98 229.5 102.74 228.84 102.35 227.31 101.81 225.76 99.6 221.76 99.35 220.96 99.27 220.19 99.34 219.41 99.51 218.63 100.2 217.09 102.52 213.65 102.82 213.05 103 212.26 102.95 211.36 102.57 210.44 101.9 209.78 101.08 209.36 96.73 208.21 95.83 207.86 94.99 207.36 94.17 206.66 93.54 205.9 93.03 205.12 92.67 204.33 92.4 203.5 92.24 202.6 92.17 201.01 92.97 195.86 93.05 193.75 92.96 192.79 92.39 190.47 92.06 189.79 91.75 189.36 91.19 188.8 90.52 188.4 89.83 188.16 89.38 188.1 88.68 188.12 86.2 188.54 85.39 188.49 84.74 188.1 84.58 187.49 84.82 186.82 85.48 186.24 86.29 185.9 90.64 184.92 100.37 180.83 101.23 180.59 102.25 180.56 103.43 180.77 105.12 181.41 108.32 183.21 109.44 183.63 111.02 183.89 111.87 183.92 112.75 183.8 113.6 183.53 120.69 180.11 121.35 180.07 122.05 180.26 123.06 180.92 123.59 181.57 123.92 182.19 124.99 185.66 125.72 187.24 126.47 188.52 128.58 191.4 129.44 192.07 130.53 192.57 132.17 192.85 136 192.99 136.82 193.11 137.61 193.35 138.25 193.78 138.59 194.33 138.66 194.78 138.66 194.96 138.64 195.13 138.63 195.42 138.69 196.03 138.98 196.69 139.59 197.29 141.92 198.61 142.56 199.24 142.83 199.95 142.83 200.72 142.73 201.51 142.72 202.24 143.07 202.81 143.84 203.02 145.02 202.75 146.01 202.19 149.42 199.76 149.95 199.53 150.75 199.39 151.68 199.45 152.94 199.78 155.74 200.98 156.66 201.25 157.53 201.32 158.49 200.94 158.66 200.32 158.57 199.6 158.39 198.85 158.44 198.18 158.89 197.76 159.6 197.81 160.48 198.49 160.9 199.24 161.53 200.77 162.4 201.49 163.74 202.09 168.54 203.66 173.11 206.8 174.55 207.24 176.45 207.46 180.23 207.44 195.98 205.26 196.83 205.36 197.7 205.83 198.35 206.33 199.64 208.01 Z" id="SAU-845" data-name="Al Madinah"/>
<path d="M 381.91 186.59 384.36 187.56 386.06 188.59 387.62 189.79 388.37 190.5 389.02 191.28 389.5 192.1 389.86 192.91 390.07 193.69 390.16 194.37 390.15 194.96 390.14 195.04 390 195.53 389.73 196.11 389.23 196.75 388.48 197.28 387.61 197.67 385.77 198.27 384.82 198.73 383.88 199.32 382.18 200.71 380.77 202.13 378 205.76 377.36 206.28 376.9 206.5 375.43 206.77 374.52 207.03 373.67 207.49 372.97 208.34 372.86 209.21 373.14 210.92 373.17 212.59 372.37 217.51 372.38 218.31 372.55 219.08 372.97 219.84 373.6 220.59 376.6 223.27 377.49 224.3 380.86 229.37 383.74 232.86 383.81 233.02 384.02 234.21 383.6 235.97 383.44 237.05 383.7 237.95 384.75 239.66 385.26 240.76 385.67 242.11 386.02 244.37 386.07 245.7 385.99 246.78 385.81 247.58 385.54 248.28 385.11 248.86 384.41 249.13 383.61 249.22 380.15 248.93 371.13 249.52 363.07 248.55 361.31 248.56 360.45 248.71 359.62 248.95 358.86 249.29 358.24 249.65 357.75 250.02 357.15 250.58 356.13 251.85 354.73 254.41 353.99 255.47 353.19 256.2 350.5 257.78 348.47 259.53 347.53 260.15 346 260.79 333.35 263.53 332.46 263.91 331.52 264.5 327.94 267.79 324.28 272.22 323.76 273.27 323.57 274.18 323.73 274.95 324.11 275.72 325.09 277.27 325.37 278.17 325.33 279.18 324.72 280.59 323.95 281.53 323.04 282.24 322.15 282.64 321.36 282.83 320.63 282.82 317.67 282.06 315.87 281.96 310.49 282.69 308.6 282.74 301.76 282.07 299.06 281.46 297.39 280.91 293.37 279.03 292.55 278.89 291.66 279.02 290.79 279.39 289.77 280.12 289.25 280.59 286.73 284.05 286.01 285.5 282.7 283.25 282.07 282.7 281.58 282.03 280.85 280.47 278.86 273.34 278.22 271.87 277.57 270.82 277.5 270.75 277.07 270.49 276.45 270.2 271.55 269.01 270.68 268.58 269.87 267.95 269.11 266.91 268.78 266.05 268.63 265.2 269.35 255.38 269.22 254.5 268.91 253.57 268.33 252.84 267.6 252.37 265.92 251.83 260.92 250.75 260.01 250.45 261.48 249.24 263 248.78 265.27 248.54 266.59 248.22 272.65 245.22 274.07 244.68 275.27 244.36 278.92 244.03 279.79 243.8 280.46 243.28 280.67 242.66 280.56 242.07 280.34 241.6 278.58 238.63 278.31 237.8 278.22 236.97 278.43 236.09 278.92 235.24 279.88 234.3 280.79 233.92 281.59 233.84 282.24 234 285.22 235.05 286.13 235.24 287 235.28 287.73 235.07 288.19 234.49 288.31 233.81 288.3 233.22 288.26 232.89 287.58 229.8 287.53 229.05 287.59 228.28 287.75 227.5 288.36 225.9 289.21 224.33 289.76 223.72 290.5 223.39 291.33 223.37 292.23 223.46 293.16 223.39 294.96 223 295.7 222.63 296.21 221.95 296.48 221.15 297.12 219.8 298.19 218.15 302.64 213.56 312.61 206.31 317.16 203.68 325.82 200.36 327.12 199.53 327.93 198.68 328.49 197.82 330.05 194.81 331.39 193.28 333.24 191.68 336.07 190.04 350.44 183.47 352.3 182.83 353.19 182.65 354.06 182.59 354.91 182.7 355.79 182.97 356.64 183.41 358.04 184.45 360.74 187.06 365.58 190.54 367.24 191.45 368.18 191.71 372.1 191.87 374.64 192.35 375.48 192.39 376.25 192.23 376.92 191.86 377.4 191.48 380.34 187.89 381.91 186.59 Z" id="SAU-846" data-name="Al Quassim"/>
<path d="M 388.4 175.3 386.19 176.03 386.11 176.07 385.61 176.42 384.41 177.43 383.43 178.54 382.4 180.06 381.79 181.25 381.39 182.43 381.27 183.18 381.23 183.97 381.29 184.76 381.68 186.09 381.91 186.59 380.34 187.89 377.4 191.48 376.92 191.86 376.25 192.23 375.48 192.39 374.64 192.35 372.1 191.87 368.18 191.71 367.24 191.45 365.58 190.54 360.74 187.06 358.04 184.45 356.64 183.41 355.79 182.97 354.91 182.7 354.06 182.59 353.19 182.65 352.3 182.83 350.44 183.47 336.07 190.04 333.24 191.68 331.39 193.28 330.05 194.81 328.49 197.82 327.93 198.68 327.12 199.53 325.82 200.36 317.16 203.68 312.61 206.31 302.64 213.56 298.19 218.15 297.12 219.8 296.48 221.15 296.21 221.95 295.7 222.63 294.96 223 293.16 223.39 292.23 223.46 291.33 223.37 290.5 223.39 289.76 223.72 289.21 224.33 288.36 225.9 287.75 227.5 287.59 228.28 287.53 229.05 287.58 229.8 288.26 232.89 288.3 233.22 288.31 233.81 288.19 234.49 287.73 235.07 287 235.28 286.13 235.24 285.22 235.05 282.24 234 281.59 233.84 280.79 233.92 279.88 234.3 278.92 235.24 278.43 236.09 278.22 236.97 278.31 237.8 278.58 238.63 280.34 241.6 280.56 242.07 280.67 242.66 280.46 243.28 279.79 243.8 278.92 244.03 275.27 244.36 274.07 244.68 272.65 245.22 266.59 248.22 265.27 248.54 263 248.78 261.48 249.24 260.01 250.45 256.74 249.62 246.16 248.12 239.61 248.37 238.54 248.59 237.25 249.02 236.23 249.6 235.37 250.29 232.59 253.42 231.82 254.08 231.09 254.58 230.4 254.92 229.89 255.11 229.14 255.31 228.36 255.45 226.73 255.59 222.22 255.49 220.32 255.79 210.91 258.79 210.02 258.93 209.15 258.96 208.29 258.85 207.49 258.62 206.8 258.3 206.36 258 205.75 257.43 205.24 256.74 204.81 255.82 204.61 254.79 204.95 244.72 204.29 240.92 203.09 236.75 202.94 235.84 202.97 234.68 205.07 221.97 204.95 221.15 204.6 220.39 203.77 219.77 202.88 219.73 201.06 220.07 200.19 220.01 199.38 219.71 198.67 219.12 198.27 218.32 198.22 217.41 198.68 216.24 200.05 213.99 200.22 213.54 200.55 212.16 200.59 211.31 200.48 210.36 200.32 209.63 199.64 208.01 200.21 207.63 200.85 206.82 201.57 205.62 203.75 199.5 204.9 197.43 206.6 195.38 211.25 191.75 211.98 191.03 212.57 190.26 212.91 189.5 213.04 188.7 212.87 187.92 212.05 187.02 211.19 186.37 206.6 184.19 205.16 183.28 204.57 182.8 203.97 182.07 203.56 181.34 199.45 166.49 199.05 165.67 198.55 164.88 196.31 162.91 191.87 159.66 189.58 158.67 188.42 157.95 187.58 157.2 187.44 157.03 186.6 156.2 185.17 155.51 183.12 154.8 170.92 152.23 170.01 151.91 169.38 151.57 168.72 150.77 172.86 146.75 173.72 146.17 174.64 145.66 188.97 139.66 195.6 138.04 209.65 130.97 223.99 125.79 224.82 125.71 227.19 126.21 231.53 127.81 233.74 128.32 234.62 128.34 254.73 124.25 257.46 123.95 259.01 123.98 260.27 124.16 269.45 126.79 270.77 126.98 271.79 127 272.75 126.87 277.33 125.82 281.45 125.6 282.4 125.65 295.34 128.32 297.08 128.93 297.95 129.41 298.79 130.04 303.4 134.9 304.5 135.74 305.79 136.44 307.68 137.05 309.05 137.24 310.31 137.18 311.43 136.94 312.51 136.57 315.57 135.06 316.62 134.66 317.72 134.44 319.04 134.45 319.83 134.82 320.18 135.17 320.27 135.48 320.43 138.29 320.54 138.82 320.79 139.63 321.39 140.76 322.25 141.65 323.55 142.38 324.61 142.63 325.6 142.73 329.37 142.4 330.68 142.5 331.71 142.78 335.74 144.64 337.2 145.09 338.21 145.17 339.04 145.07 340.58 144.4 344.99 141.89 346.06 141.49 347.36 141.39 348.35 141.73 349.22 142.33 349.89 143.08 356.28 153.31 359.47 160.78 360.78 162.41 361.69 163.18 362.7 163.85 364.01 164.42 365.04 164.74 376.72 166.31 378.02 166.77 379.75 167.61 380.61 168.13 386.89 173.17 387.88 174.2 388.4 175.3 Z" id="SAU-847" data-name="Ha&apos;il"/>
<path d="M 92.92 253 93.29 253.74 93.53 253.71 93.62 253.44 93.77 253.63 93.97 254.88 94.37 255.18 94.55 255.35 94.47 255.38 94.3 255.32 94.02 255.27 93.98 255.43 94.14 255.67 93.83 255.63 93.09 255.19 92.9 254.78 92.96 254.52 92.59 254.48 92.13 254.6 91.87 254.29 91.68 253.77 91.34 253.77 90.93 254.04 90.84 253.78 91.13 253.07 91.49 252.68 91.95 252.68 92.48 252.75 92.92 253 Z M 86.27 253.36 86.97 253.7 88.3 254.23 88.93 254.38 89.41 254.43 89.76 254.61 89.93 254.88 89.14 254.91 89.02 255.4 89.33 255.85 89.78 255.74 90.24 255.28 90.76 254.93 91.37 254.91 91.49 255.08 90.8 255.42 90.5 255.63 90.1 256.04 89.72 256.73 89.15 257.1 88.36 256.62 87.64 255.89 86.95 255.4 85.42 253.92 85.32 253.83 85.19 253.61 85.19 253.47 85.26 253.48 85.34 253.4 85.27 253.18 84.91 252.81 84.47 252.25 84.49 251.97 84.89 252.06 85.26 252.35 85.95 253.13 86.27 253.36 Z M 87.48 250.45 87.25 250.59 86.88 250.48 86.4 250.05 86.47 249.51 86.94 249.18 87.48 249.25 87.9 249.66 87.88 250.1 87.48 250.45 Z M 82.56 249.37 84.43 250.5 84.64 250.79 84.84 251.23 85.41 251.55 86.01 251.75 86.85 252.22 88.2 253.23 88.53 253.57 88.48 253.7 88.33 253.82 88.37 253.98 88.17 253.88 87.59 253.47 87.08 253.19 86.69 253.1 86.54 252.86 86.34 252.44 85.99 252.28 85.74 252.38 85.4 252.27 85 251.92 84.64 251.67 84.46 251.63 84.29 251.57 84.09 251.3 84.06 250.92 83.73 250.81 83.2 250.73 83.1 250.6 83.25 250.65 83.21 250.48 82.89 250.07 82.32 249.73 81.64 249.77 81.33 249.94 81.16 250.08 80.87 250.17 80.88 249.81 81.26 249.29 81.84 249.14 82.56 249.37 Z M 90.24 248.66 90.14 248.94 89.96 248.95 89.73 248.79 89.69 248.85 89.79 249.13 89.76 249.26 89.68 249.22 89.94 249.75 90.21 250.76 90.04 251.1 89.62 250.51 89.37 250.35 89.19 249.97 89.14 248.89 89.09 248.65 89.09 248.22 89.34 247.93 89.71 247.8 90.04 247.94 90.21 248.31 90.24 248.66 Z M 76.67 247.12 77.65 248.04 78.15 248.37 78.67 248.41 78.98 248.34 79.08 248.43 79.11 248.7 79.24 249.01 79.58 249.15 79.92 249.12 79.97 249.09 79.85 249.04 79.87 248.88 80.05 248.73 80.36 248.77 80.95 249.1 80.9 249.32 80.68 249.76 80.36 249.95 80.11 249.84 79.61 249.51 76.58 248.11 75.76 247.93 75.5 248.46 75.13 248.28 74.41 247.65 73.92 247.14 73.69 246.34 74 245.68 74.93 244.8 75.35 244.33 75.66 244.15 75.72 244.39 75.5 244.83 74.87 245.69 74.92 246.04 75.18 246.36 75.45 246.54 75.67 246.55 75.86 246.62 76.05 246.86 76.36 247.02 76.67 247.12 Z M 77.36 243.72 77.65 243.92 78.09 243.83 78.22 243.9 78.01 244.22 77.63 244.39 77.15 244.31 76.4 243.76 75.97 243.51 75.69 243.07 75.63 242.77 75.53 241.97 75.62 240.4 76.22 239.09 77.18 238.28 77.45 238.18 76.94 238.63 76.53 239.22 76.22 239.87 76.11 240.61 76.44 241.28 77.16 241.9 77.45 242.01 77.72 242.05 77.7 242.3 77.37 242.8 77.25 243.29 77.29 243.51 77.36 243.72 Z M 60.84 123.82 70.6 135.04 70.84 135.25 71.09 135.38 72.67 135.83 73.58 135.88 74.2 135.85 78.34 134.45 87.44 132.71 90.44 132.7 92.61 132.98 98.36 134.68 101.51 135.26 108.04 135.59 109.08 135.38 109.98 134.98 110.59 134.32 111.07 133.56 112.58 130.08 113.03 129.29 113.61 128.55 114.37 127.94 116.92 126.51 119.26 124.55 120.09 124.27 120.91 124.43 121.61 124.95 122.04 125.69 122.21 126.56 121.84 132.65 121.95 135.98 122.22 138.17 122.63 139.79 123.21 141.07 123.66 141.85 124.25 142.63 124.94 143.37 127.43 145.23 129.19 146.1 133.35 147.38 135.69 147.81 143.26 148.48 144.62 148.44 145.88 148.09 146.88 147.63 148.11 147.35 148.99 147.55 150.25 148.19 151.06 148.47 151.76 148.53 153.43 148.5 154.5 150.76 155.07 151.34 155.91 151.84 156.81 151.95 157.75 151.81 158.71 151.49 162.68 149.71 163.77 149.43 165.07 149.25 166.03 149.29 166.71 149.49 167.24 149.71 168.72 150.77 169.38 151.57 170.01 151.91 170.92 152.23 183.12 154.8 185.17 155.51 186.6 156.2 187.44 157.03 187.58 157.2 188.42 157.95 189.58 158.67 191.87 159.66 196.31 162.91 198.55 164.88 199.05 165.67 199.45 166.49 203.56 181.34 203.97 182.07 204.57 182.8 205.16 183.28 206.6 184.19 211.19 186.37 212.05 187.02 212.87 187.92 213.04 188.7 212.91 189.5 212.57 190.26 211.98 191.03 211.25 191.75 206.6 195.38 204.9 197.43 203.75 199.5 201.57 205.62 200.85 206.82 200.21 207.63 199.64 208.01 198.35 206.33 197.7 205.83 196.83 205.36 195.98 205.26 180.23 207.44 176.45 207.46 174.55 207.24 173.11 206.8 168.54 203.66 163.74 202.09 162.4 201.49 161.53 200.77 160.9 199.24 160.48 198.49 159.6 197.81 158.89 197.76 158.44 198.18 158.39 198.85 158.57 199.6 158.66 200.32 158.49 200.94 157.53 201.32 156.66 201.25 155.74 200.98 152.94 199.78 151.68 199.45 150.75 199.39 149.95 199.53 149.42 199.76 146.01 202.19 145.02 202.75 143.84 203.02 143.07 202.81 142.72 202.24 142.73 201.51 142.83 200.72 142.83 199.95 142.56 199.24 141.92 198.61 139.59 197.29 138.98 196.69 138.69 196.03 138.63 195.42 138.64 195.13 138.66 194.96 138.66 194.78 138.59 194.33 138.25 193.78 137.61 193.35 136.82 193.11 136 192.99 132.17 192.85 130.53 192.57 129.44 192.07 128.58 191.4 126.47 188.52 125.72 187.24 124.99 185.66 123.92 182.19 123.59 181.57 123.06 180.92 122.05 180.26 121.35 180.07 120.69 180.11 113.6 183.53 112.75 183.8 111.87 183.92 111.02 183.89 109.44 183.63 108.32 183.21 105.12 181.41 103.43 180.77 102.25 180.56 101.23 180.59 100.37 180.83 90.64 184.92 86.29 185.9 85.48 186.24 84.82 186.82 84.58 187.49 84.74 188.1 85.39 188.49 86.2 188.54 88.68 188.12 89.38 188.1 89.83 188.16 90.52 188.4 91.19 188.8 91.75 189.36 92.06 189.79 92.39 190.47 92.96 192.79 93.05 193.75 92.97 195.86 92.17 201.01 92.24 202.6 92.4 203.5 92.67 204.33 93.03 205.12 93.54 205.9 94.17 206.66 94.99 207.36 95.83 207.86 96.73 208.21 101.08 209.36 101.9 209.78 102.57 210.44 102.95 211.36 103 212.26 102.82 213.05 102.52 213.65 100.2 217.09 99.51 218.63 99.34 219.41 99.27 220.19 99.35 220.96 99.6 221.76 101.81 225.76 102.35 227.31 102.74 228.84 102.98 229.5 103.27 229.95 103.87 229.81 105.24 228.8 106.03 228.53 106.88 228.64 113.65 232.15 114.25 232.56 114.49 232.78 114.6 232.93 115.18 235 115.51 235.8 115.98 236.56 116.62 237.28 121.55 241.01 122.24 241.77 122.78 242.48 123.38 243.54 124.53 246.4 125.86 251.02 126.2 251.77 126.32 251.88 126.56 251.97 127.16 252.13 129.55 252.23 130.35 252.38 130.87 252.64 131.35 253.1 131.64 253.77 131.72 254.52 130.38 263.14 130.85 275.61 130.7 276.14 130.33 276.86 129.58 277.83 128.7 278.47 127.78 278.86 126.82 279.02 125 278.94 123.29 278.67 122.45 278.63 121.62 278.77 120.79 279.22 119.98 280 118.97 281.17 118.04 281.98 117.12 282.54 116.22 282.86 115.38 283.07 113.93 283.25 110.82 283.25 110.07 283.42 109.29 283.77 108.67 284.38 108.26 285.05 108 285.76 107.54 287.97 107.45 288.22 105.04 285.01 102.71 282.06 101.61 280.72 101.55 279.67 101.68 279.39 101.71 279.01 101.68 278.64 101.55 278.37 101.28 278.25 100.79 278.7 100.39 278.75 99.72 278.38 99.23 277.77 98.58 276.42 99.55 276.44 100.4 276.57 101.24 276.59 102.2 276.29 102.67 275.66 102.73 273.74 103.56 272.14 103.45 271.28 102.72 269.7 102.48 268.79 102.72 266.56 102.65 265.7 102.45 264.89 102.13 264.14 101.68 263.44 100.97 262.66 100.54 262.29 100.13 262.02 99.77 261.72 99.42 261.01 99.1 260.71 98.34 260.18 97.59 259.43 96.94 258.57 96.48 257.73 96.4 257.35 96.32 256.51 96.23 256.18 95.98 255.83 95.4 255.26 95.22 254.88 95.88 254.45 95.33 253.59 93.64 252.04 93.35 251.56 92.74 249.94 92.54 249.68 92.03 249.37 91.83 249.17 91.78 248.95 91.81 248.48 91.7 248.26 91.37 247.81 90.83 246.72 90.54 246.3 90.05 245.97 88.95 245.56 88.47 245.29 86.98 243.13 86.03 242.06 85.21 242.01 85.14 242.43 85.39 242.87 85.52 243.25 85.08 243.48 84.6 243.35 83.44 242.6 82.87 242.42 82.53 242.22 81.67 241.23 81.44 240.87 81.39 240.64 81.44 239.82 81.35 239.6 80.9 239.5 80.66 239.32 80.2 238.36 80.15 237.48 80.51 236.63 81.31 235.8 81.81 235.03 81.95 233.99 81.8 232.92 81.44 232.05 80.54 231.18 79.34 230.61 78.01 230.31 76.76 230.22 75.4 229.77 74.49 228.69 72.09 223.54 71.22 222.22 69.57 220.22 66.77 214.02 63.77 209.2 61.97 207.13 59.77 205.36 58.77 204.33 58.17 202.69 57.03 200.9 56.28 198.54 55.6 198.71 55.08 198.29 54.19 196.99 51.73 195.03 48.69 191.5 47.61 189.63 47.48 189.33 47.44 188.95 47.52 188.64 47.89 188.1 47.98 187.77 47.79 187.32 46.89 186.09 43.7 182.71 41.91 181.61 41.45 181.24 40.55 180.25 39.53 178.76 38.38 177.75 36.94 175.37 36.52 174.4 36.39 173.63 36.36 172.26 36.14 171.55 35.82 171.06 34.57 169.88 33.88 168.86 32.91 166.55 32.13 165.58 31.77 165.36 31 165.1 30.71 164.92 30.49 164.65 30.32 164.14 29.94 163.43 29.78 162.35 29.41 161.82 27.45 159.86 26.85 158.92 26.49 158.56 25.9 158.31 24.06 157.02 24.06 157.28 23.8 157.28 23.38 156.78 23.87 156.39 24.73 156.06 25.38 155.7 25.78 155.87 25.74 155.66 25.38 155.07 25.15 154.99 24.1 154.78 23.8 154.67 23.54 154.67 23.54 154.93 23.31 154.93 23.16 154.69 22.94 154.44 22.67 154.24 22.38 154.15 21.71 154.18 21.37 154.14 20.92 153.73 19.15 152.6 18.78 152.85 18.33 152.83 17.93 152.83 18.04 153.04 18.18 153.23 18.35 153.38 17.97 153.2 17.55 152.94 17.11 152.8 16.66 152.99 16.27 153.21 15.12 153.52 14.81 153.67 14.58 153.87 14.45 154.15 14.19 154.15 14.19 153.89 13.93 153.89 13.43 154.01 12.66 153.89 11.89 153.89 11.37 154.43 11.27 154.24 11.24 154.24 11.08 154.15 11.08 153.89 11.37 153.89 11.37 153.61 11.22 153.35 11.41 153.13 11.77 152.97 12.12 152.86 11.76 152.72 11.39 152.67 11 152.72 10.57 152.86 10.57 153.12 10.85 153.12 10.85 153.38 10.43 153.5 10.15 153.76 9.79 154.43 9.68 154.27 9.56 154.22 9.43 154.2 9.3 154.15 9.45 153.92 9.67 153.7 9.97 153.52 10.33 153.38 10.31 153.23 10.3 153.07 10.33 152.86 9.8 152.84 9.37 152.92 9.1 153.16 9.02 153.61 8.81 153.5 8.75 153.49 8.7 153.53 8.5 153.61 8.49 153.49 8.5 153.24 8.5 153.12 8.28 153.12 8.28 153.38 7.98 153.38 7.79 153.05 7.61 152.89 7.43 152.9 7.21 153.12 6.86 152.88 6.77 152.77 6.54 152.47 6.4 152.29 6.17 151.82 6.06 151.92 5.91 152.02 5.76 152.15 5.63 152.34 5.14 152.01 5 152.18 4.98 152.55 4.86 152.86 4.57 153.01 4.06 153.21 3.82 153.38 3.82 153.61 4.62 154.15 4.62 154.43 4.37 154.45 4.26 154.51 4.21 154.59 4.13 154.67 3.82 154.43 3.64 155.06 3.6 155.55 3.36 155.87 2.53 155.98 2.59 155.8 2.63 155.78 2.69 155.79 2.81 155.7 2.53 155.44 2.36 154.9 2.29 154.41 2.27 153.49 1.99 153.22 1.06 153.57 1.23 153.12 1 152.86 1.55 152.14 1.92 151.87 2.25 151.73 2.27 151.54 2.5 151.43 2.83 151.17 3.04 151.05 2.81 150.79 2.92 150.59 3.06 150.44 3.26 150.33 3.56 150.27 3.56 150.45 3.47 150.48 3.37 150.47 3.3 150.5 3.68 150.68 3.99 150.77 4.22 150.67 4.34 150.27 4.13 150.27 4.13 150.01 3.85 149.77 3.91 149.52 4.2 149.31 4.62 149.21 4.62 148.96 4.49 148.62 4.86 146.88 5 146.96 5.26 147.05 5.39 147.14 5.37 147.02 5.39 146.62 5.17 146.76 5.08 146.84 4.86 146.63 5.62 145.98 6.39 144.72 6.97 143.36 7.38 141.57 8.12 140.59 8.39 139.46 8.66 138.82 9.75 137.16 9.46 135.45 9.36 133.66 8.79 131.96 9.49 129.63 9.98 128.42 10.57 127.42 10.57 127.18 10.33 127.18 10.98 126.2 11.07 125.74 10.85 125.32 10.85 125.09 11.28 123.93 11.23 123.62 11.24 123.62 14.44 123.56 15.73 123.34 17.05 123.38 20.13 124.05 25.52 124.51 26.46 124.36 27.11 124.05 28.42 122.96 29.73 122.37 31.34 121.92 39.11 120.62 44.14 120.34 47.11 119.85 49.58 119.84 57.01 121.45 57.91 121.83 59.62 122.84 60.84 123.82 Z" fill-rule="evenodd" id="SAU-848" data-name="Tabuk"/>
<path d="M 312.04 60.49 314.9 62.62 314.9 62.63 314.9 62.63 314.91 62.63 318.91 65.45 322.25 67.81 325.59 70.16 328.93 72.52 332.27 74.87 336.61 77.93 340.95 80.99 345.29 84.05 349.63 87.11 351.47 88.41 353.97 90.18 358.31 93.24 362.65 96.3 366.98 99.36 370.59 101.9 374.21 104.45 377.82 107 381.43 109.55 384.34 111.6 384.58 111.68 384.83 111.76 385.06 111.85 385.31 111.93 388.78 112.2 391.8 112.45 394.81 112.68 397.83 112.92 400.84 113.16 404.73 113.47 408.61 113.78 412.49 114.09 416.37 114.39 420.26 114.7 424.14 115.01 428.02 115.32 431.9 115.62 434.79 115.85 437.68 116.08 440.56 116.31 443.45 116.54 447.44 116.85 449.1 116.55 450.09 116.36 449.6 116.86 431.66 122.8 426.36 125.38 422.62 128.4 419.68 131.31 417.41 134.31 404.07 156.51 402.21 158.9 395.84 165.73 395.05 166.99 394.08 169.12 393.79 170.23 393.7 170.85 393.69 171.54 393.83 172.29 394.17 173.06 395.15 174.35 395.64 174.83 394.07 176.83 393.28 177.27 392.29 177.65 391.42 177.57 390.62 177.24 389.94 176.77 389.34 176.13 389.29 176.05 389.1 175.86 388.4 175.3 387.88 174.2 386.89 173.17 380.61 168.13 379.75 167.61 378.02 166.77 376.72 166.31 365.04 164.74 364.01 164.42 362.7 163.85 361.69 163.18 360.78 162.41 359.47 160.78 356.28 153.31 349.89 143.08 349.22 142.33 348.35 141.73 347.36 141.39 346.06 141.49 344.99 141.89 340.58 144.4 339.04 145.07 338.21 145.17 337.2 145.09 335.74 144.64 331.71 142.78 330.68 142.5 329.37 142.4 325.6 142.73 324.61 142.63 323.55 142.38 322.25 141.65 321.39 140.76 320.79 139.63 320.54 138.82 320.43 138.29 320.27 135.48 320.18 135.17 319.83 134.82 319.04 134.45 317.72 134.44 316.62 134.66 315.57 135.06 312.51 136.57 311.43 136.94 310.31 137.18 309.05 137.24 307.68 137.05 305.79 136.44 304.5 135.74 303.4 134.9 298.79 130.04 297.95 129.41 297.08 128.93 295.34 128.32 282.4 125.65 281.45 125.6 277.33 125.82 272.75 126.87 271.79 127 270.77 126.98 269.45 126.79 260.27 124.16 259.01 123.98 257.46 123.95 254.73 124.25 234.62 128.34 233.74 128.32 231.53 127.81 227.19 126.21 232.53 121.55 233.17 120.74 233.52 120.04 233.68 119.5 233.74 119.23 234.7 106.61 234.85 105.81 235.14 105 235.67 104.21 236.42 103.43 237.33 102.64 241.44 99.89 273.08 82.72 276.23 80.54 277.92 79.02 278.57 78.23 278.76 77.48 278.49 76.74 277.79 76.06 272.12 72.25 270.29 70.7 269.61 69.88 268.54 68.19 266.8 64.76 266.34 64.13 265.39 63.1 264.62 62.4 263.21 61.63 262.07 61.29 257.61 60.75 254.54 60.73 252.48 60.5 251.19 60.13 250.18 59.68 242.63 54.43 241.41 53.94 239.94 53.6 236.23 53.64 233.96 53.91 213.24 53.47 209.68 52.82 208.4 52.37 207.41 51.92 204.65 49.75 203.75 49.19 202.85 48.76 201.59 48.47 175.99 45.07 170.95 44.96 159.29 46.45 142.42 47.91 140.6 47.8 138.9 47.48 138.05 47.17 137.22 46.73 136.41 46.13 135.74 45.42 134.47 43.47 134.47 43.47 133.78 42.16 132.71 40.52 131.45 39.01 130.3 38.03 127.04 36.01 126.43 35.35 126.16 34.73 126.03 34.24 125.99 34 125.99 34 125.8 33.01 125.59 30.66 125.76 29.39 130.32 14.94 137.48 13.18 145.99 11.08 154.51 8.97 163.03 6.87 167.33 5.81 167.33 5.81 167.33 5.81 168.64 5.33 173.14 1.7 173.88 1.23 174.26 1.12 174.37 1.09 174.48 1.06 174.59 1.03 174.69 1 182.19 2.09 189.68 3.18 197.17 4.28 204.65 5.37 207.69 5.81 207.7 5.81 207.7 5.81 207.71 5.81 220.63 7.93 222.67 8.61 224.78 9.66 228.67 11.64 231.99 13.34 235.32 15.03 238.65 16.72 241.97 18.42 245.29 20.11 248.61 21.8 251.93 23.49 255.26 25.19 258.58 26.88 261.9 28.58 265.23 30.27 268.56 31.96 271.88 33.65 275.2 35.35 278.52 37.04 281.84 38.73 285.22 40.45 287.73 42.33 290.94 44.71 294.14 47.1 297.34 49.48 300.54 51.87 304.13 54.56 307.72 57.24 311.31 59.94 312.04 60.49 Z" id="SAU-861" data-name="Al Hudud ash Shamaliyah"/>
<path d="M 227.19 126.21 224.82 125.71 223.99 125.79 209.65 130.97 195.6 138.04 188.97 139.66 174.64 145.66 173.72 146.17 172.86 146.75 168.72 150.77 167.24 149.71 166.71 149.49 166.03 149.29 165.07 149.25 163.77 149.43 162.68 149.71 158.71 151.49 157.75 151.81 156.81 151.95 155.91 151.84 155.07 151.34 154.5 150.76 153.43 148.5 151.76 148.53 151.06 148.47 150.25 148.19 148.99 147.55 148.11 147.35 146.88 147.63 145.88 148.09 144.62 148.44 143.26 148.48 135.69 147.81 133.35 147.38 129.19 146.1 127.43 145.23 124.94 143.37 124.25 142.63 123.66 141.85 123.21 141.07 122.63 139.79 122.22 138.17 121.95 135.98 121.84 132.65 122.21 126.56 122.04 125.69 121.61 124.95 120.91 124.43 120.09 124.27 119.26 124.55 116.92 126.51 114.37 127.94 113.61 128.55 113.03 129.29 112.58 130.08 111.07 133.56 110.59 134.32 109.98 134.98 109.08 135.38 108.04 135.59 101.51 135.26 98.36 134.68 92.61 132.98 90.44 132.7 87.44 132.71 78.34 134.45 74.2 135.85 73.58 135.88 72.67 135.83 71.09 135.38 70.84 135.25 70.6 135.04 60.84 123.82 59.62 122.84 57.91 121.83 57.01 121.45 49.58 119.84 47.11 119.85 44.14 120.34 39.11 120.62 31.34 121.92 29.73 122.37 28.42 122.96 27.11 124.05 26.46 124.36 25.52 124.51 20.13 124.05 17.05 123.38 15.73 123.34 14.44 123.56 11.24 123.62 11.23 123.62 11.2 123.43 10.57 123.25 10.57 123.02 11.13 122.18 11.74 120.62 12.02 119.01 11.6 118.06 11.6 117.54 12.03 116.83 12.39 116.02 13.15 112.63 13.33 112.13 13.75 111.29 13.7 111.05 13.75 110.51 14.11 110.19 14.99 109.76 14.73 109.12 14.63 108.29 14.77 107.74 15.22 107.95 15.26 107.82 15.27 107.72 15.32 107.66 15.5 107.69 15.22 107.12 15.11 106.48 15.27 105.92 19.47 106.57 23.97 107.25 29.86 108.14 35.13 108.94 40.75 109.79 45.23 110.47 47.39 110.8 51.75 111.45 55.69 112.05 56.73 112.02 57.7 111.67 61.81 108.7 65.82 105.8 70.22 102.62 73.14 100.51 75.57 96.92 77.93 93.43 79.68 90.86 81.77 87.76 82.68 86.91 83.72 86.46 87 85.86 90.37 85.26 95.82 84.27 101.23 83.29 106.3 82.37 110.76 81.57 111.58 80.94 113.26 77.37 114.51 74.74 115.88 71.87 116.99 69.51 117.48 68.83 118.36 68.19 122.47 66.19 127.05 63.97 129.82 62.63 130.08 62.49 130.11 62.48 130.13 62.47 130.12 62.44 128.24 60.54 124.09 56.33 119.93 52.12 115.77 47.9 111.61 43.69 111.49 43.57 111.37 43.45 111.25 43.32 111.14 43.21 106.21 38.62 101.35 34.11 101.28 34.04 96.35 29.46 91.42 24.88 92.87 24.51 100.8 22.48 110.19 20.08 119.57 17.68 121.8 17.11 128.96 15.28 130.32 14.94 125.76 29.39 125.59 30.66 125.8 33.01 125.99 34 125.99 34 126.03 34.24 126.16 34.73 126.43 35.35 127.04 36.01 130.3 38.03 131.45 39.01 132.71 40.52 133.78 42.16 134.47 43.47 134.47 43.47 135.74 45.42 136.41 46.13 137.22 46.73 138.05 47.17 138.9 47.48 140.6 47.8 142.42 47.91 159.29 46.45 170.95 44.96 175.99 45.07 201.59 48.47 202.85 48.76 203.75 49.19 204.65 49.75 207.41 51.92 208.4 52.37 209.68 52.82 213.24 53.47 233.96 53.91 236.23 53.64 239.94 53.6 241.41 53.94 242.63 54.43 250.18 59.68 251.19 60.13 252.48 60.5 254.54 60.73 257.61 60.75 262.07 61.29 263.21 61.63 264.62 62.4 265.39 63.1 266.34 64.13 266.8 64.76 268.54 68.19 269.61 69.88 270.29 70.7 272.12 72.25 277.79 76.06 278.49 76.74 278.76 77.48 278.57 78.23 277.92 79.02 276.23 80.54 273.08 82.72 241.44 99.89 237.33 102.64 236.42 103.43 235.67 104.21 235.14 105 234.85 105.81 234.7 106.61 233.74 119.23 233.68 119.5 233.52 120.04 233.17 120.74 232.53 121.55 227.19 126.21 Z" id="SAU-862" data-name="Al Jawf"/>
<path d="M 283.58 436.52 281.78 442.34 281.85 443.32 282.12 444.47 283.05 445.37 283.53 446.06 283.65 446.94 283.4 447.88 282.53 449.03 281.74 449.75 277.24 452.71 276.44 453.44 275.84 454.46 275.54 455.48 275.34 458.18 274.78 460.06 270.95 467.88 269.91 468.36 268.6 468.54 265.05 468.53 264.28 468.65 263.63 468.96 263.24 469.25 262.8 469.77 261.78 471.42 259.34 477.49 258.45 481.56 258.16 482.29 257.69 482.98 256.99 483.54 256.22 483.9 255.41 484.14 254.55 484.26 253.67 484.25 252.66 484.06 251.75 483.66 250.94 483.04 248.56 480.02 247.66 479.23 244.74 477.75 244.31 477.44 243.72 476.86 243.31 476.12 243.14 475.35 243.09 474.61 243.31 471.48 243.21 470.7 242.52 468.24 242.47 467.44 242.89 463.56 242.84 462.74 242.62 461.93 242.26 461.18 241.8 460.58 241.48 460.3 241.31 460.18 238.47 459.4 237.72 459.03 237.12 458.43 236.87 457.73 236.98 457.01 237.5 456.29 240.4 453.48 241.24 452.86 242.21 452.41 243.37 452.08 247.06 451.54 247.95 451.3 248.83 450.91 249.74 450.16 250.21 449.4 251.26 446.92 253.95 442.41 254.21 441.41 254.22 441.03 254.14 439.89 253.47 437.63 253.15 436.06 253.1 435.24 253.16 434.52 253.35 433.88 253.56 433.44 253.94 432.88 254.53 432.26 255.29 431.71 256.1 431.39 257.02 431.29 257.95 431.44 259.08 431.93 259.91 432.59 260.52 433.35 261.69 436.47 262.13 437.22 262.63 437.87 263.2 438.33 263.69 438.49 264.48 438.52 265.62 438.2 267.47 437.48 268.49 437.24 269.72 437.07 273.78 437.04 274.6 436.81 275.43 436.47 278.95 434.61 279.78 434.4 280.72 434.54 281.45 434.79 283.58 436.52 Z" id="SAU-885" data-name="Al Bahah"/>
<path d="M 377.71 478.66 377.72 483.42 377.57 484.65 377.27 485.51 376.91 485.98 376.32 486.43 373.81 487.68 372.93 488.41 371.99 489.78 371.74 490.78 371.76 491.7 373.09 496.5 373.26 498.19 373.27 499.51 373.12 500.93 372.87 501.97 372.5 502.9 372.03 503.64 371.43 504.37 370.73 505.03 369.07 506.09 367.33 506.91 365.65 507.47 363.03 507.98 362.16 508.33 361.26 508.91 360.45 509.76 359.92 510.68 359.03 512.72 358.58 513.5 358.12 514.14 356.93 515.34 352.67 518.78 346.54 524.95 345.56 526.18 344.8 527.55 344.47 528.61 344.43 529.56 344.82 531.21 345.4 532.9 345.77 534.45 345.87 536.04 344.9 544.44 344.55 545.95 344.52 547 344.63 547.9 345.39 550.22 345.49 552.24 344.44 556.04 344.44 557.23 343.72 556.46 342.11 555.55 339.32 554.39 338.7 554.24 337.42 554.19 336.73 554.04 335.89 554.15 335.06 554.45 333.21 555.57 330.07 551.02 329.41 550.24 328.64 549.6 325.73 548.62 325.03 548.08 324.46 547.37 323.25 544.96 322.72 544.17 321.76 543.27 318.83 540.99 318.23 540.02 317.98 539.09 318.1 537.53 317.9 536.81 317.41 536.24 315.95 535.96 315.62 536.02 313.88 536.98 312.29 538.11 311.63 538.78 311.1 539.49 310.26 541.01 308.53 547.26 308.22 547.99 307.67 548.55 306.97 548.81 306.2 548.81 305.34 548.49 304.42 547.9 300.88 544.42 300.24 543.48 299.79 542.61 299.48 541.82 299.01 541.02 298.29 540.3 297.22 539.76 296.3 539.56 290.34 539.48 289.49 539.26 288.68 538.85 287.88 537.92 287.5 537.15 287.03 535.77 286.75 535.37 286.18 534.77 285.18 534.21 284.31 533.98 283.48 533.93 280.94 534.25 280.22 534.06 279.59 533.51 279.25 532.48 279.18 531.6 279.23 530.74 280.03 526.19 279.98 525.43 279.83 524.73 279.44 524.14 277.95 523.75 273.68 524.07 275.03 519.26 275.19 518.19 275.16 517.2 274.9 516.06 272.3 508.58 271.88 507.84 271.24 507.22 270.51 506.82 269.72 506.55 268.11 506.26 266.46 506.13 262.32 506.2 261.57 506 260.83 505.61 260.19 504.98 259.75 504.23 259.44 503.45 259.23 502.67 259.02 501.09 259.28 492.27 259.41 491.59 259.72 491.2 260.31 491.49 260.98 491.97 261.73 492.34 262.47 492.36 263.19 492.02 265.09 490.66 266.77 489.72 267.61 489.45 268.43 489.31 269.27 489.29 273.48 489.72 274 489.7 274.58 489.58 275.3 489.29 275.99 488.8 276.53 488.14 276.88 487.41 278.17 483.55 278.18 482.62 277.93 481.69 276.33 479.13 276.11 478.38 276.01 477.37 276.07 476.48 277.23 471.54 277.31 470.78 277.27 470.02 277.01 469.2 276.57 468.45 276 467.81 275.52 467.48 274.97 467.27 274.24 467.15 272.65 467.23 270.95 467.88 274.78 460.06 275.34 458.18 275.54 455.48 275.84 454.46 276.44 453.44 277.24 452.71 281.74 449.75 282.53 449.03 283.4 447.88 283.65 446.94 283.53 446.06 283.05 445.37 282.12 444.47 281.85 443.32 281.78 442.34 283.58 436.52 284.27 437.6 288.15 445.09 288.78 445.85 289.52 446.45 290.29 446.88 291.13 447.13 292.2 447.06 293.47 446.67 295.53 445.59 296.81 444.73 306.4 436.55 313.91 432.72 314.96 431.91 316.42 430.52 317.37 429.92 318.42 429.49 319.8 429.24 322.15 429.19 322.72 429.1 323.49 428.87 325.79 427.94 327.03 427.6 328.64 427.43 329.73 427.48 330.71 427.68 333.15 428.46 334.25 428.38 335.56 427.97 341.52 424.67 345.54 423.21 351.07 427.86 353.16 430.15 354.36 431.97 356.61 434.8 359.75 438.04 360.25 438.95 360.48 439.77 360.55 440.47 360.54 441.19 360.51 441.34 360.22 442.12 359.9 442.79 357.68 446.08 356.95 447.53 355.47 454.02 355.46 454.96 355.74 456.14 356.33 457.07 358.51 459.49 362.16 465.23 377.05 478.21 377.71 478.66 Z" id="SAU-886" data-name="`Asir"/>
<path d="M 278.52 583.26 278.77 583.41 280.15 583.27 280.6 583.95 281.36 584.01 282.12 583.77 282.79 583.73 283.24 584.17 283.24 584.61 283.69 584.61 284.81 584.13 283.75 583.93 283.19 583.09 283.65 582.41 283.93 581.33 284.18 580.96 284.72 580.88 284.96 580.97 285.27 581.09 286.31 581.71 286.35 582.35 286.86 583.13 286.78 583.54 287.71 583.67 287.96 584.4 289.43 585 289.42 585.53 289.32 586.21 289.06 587.04 289.15 587.67 289.5 588.8 289.12 589.56 289.13 589.62 288.27 589.57 287.21 588.34 286.35 588.04 285.54 587.98 285.14 587.64 286.21 587.21 286.82 586.73 286.58 585.95 285.62 585.45 284.65 585.59 283.53 585.68 282.77 585.87 282.05 586.25 281.44 586.59 280.68 586.34 279.82 585.56 279.22 585.02 278.35 584.81 277.34 584.13 276.43 583.44 275.98 582.66 275.73 581.49 275.08 581.04 274.41 581.04 273.96 580.94 274.06 580.69 274.02 579.87 273.46 579.18 273.11 578.45 273.16 577.77 273.72 577.92 273.93 578.21 274.38 578.56 275.85 579.2 276.66 580.08 277.07 580.62 277.21 581.55 277.19 581.98 277.86 582.72 278.52 583.26 Z M 280.29 576.03 280.3 576.75 280.09 577.58 280.24 578.26 281.46 578.56 281.81 579.39 280.25 579.41 279.8 579.97 280.02 580.61 280.95 580.92 281.48 581.23 282.19 581.53 282.44 582.46 282.44 582.9 281.32 582.26 279.95 581.86 279.29 581.76 278.74 581.31 278.18 580.63 277.23 579.45 276.42 578.38 276.11 577.95 276.11 577.94 276.54 577.58 277.46 577.53 278.12 577.34 278.61 576.94 278.99 576.27 279.38 576.3 279.45 576.3 279.45 576.3 279.66 575.55 279.37 574.64 278.86 574.42 278.35 574.2 277.86 574.16 277.01 573.98 276.54 573.94 276.45 573.77 276.45 573.77 276.74 573.47 277.1 573.33 277.19 573.66 278.41 573.77 279.38 574.15 280.02 574.87 280.06 575.02 280.29 576.03 Z M 280.22 534.06 280.94 534.25 283.48 533.93 284.31 533.98 285.18 534.21 286.18 534.77 286.75 535.37 287.03 535.77 287.5 537.15 287.88 537.92 288.68 538.85 289.49 539.26 290.34 539.48 296.3 539.56 297.22 539.76 298.29 540.3 299.01 541.02 299.48 541.82 299.79 542.61 300.24 543.48 300.88 544.42 304.42 547.9 305.34 548.49 306.2 548.81 306.97 548.81 307.67 548.55 308.22 547.99 308.53 547.26 310.26 541.01 311.1 539.49 311.63 538.78 312.29 538.11 313.88 536.98 315.62 536.02 315.95 535.96 317.41 536.24 317.9 536.81 318.1 537.53 317.98 539.09 318.23 540.02 318.83 540.99 321.76 543.27 322.72 544.17 323.25 544.96 324.46 547.37 325.03 548.08 325.73 548.62 328.64 549.6 329.41 550.24 330.07 551.02 333.21 555.57 331.73 556.45 328.43 559.17 326.61 561.32 326.5 561.5 328.67 562.18 329.41 562.73 329.8 563.54 329.67 564.3 328.82 564.7 327.95 564.89 326.95 565.3 326.17 565.9 325.93 566.65 325.97 567.52 325.75 568.29 324.96 569.79 324.74 570.58 324.89 571.19 325.19 571.82 325.4 572.65 325.4 573.48 325.23 574.21 324.62 575.67 324.37 576.61 324.52 577.25 325.32 578.73 325.77 580.11 326.21 580.46 327.62 580.83 328.01 581.13 328.26 581.54 328.31 582.03 328.15 582.43 327.87 582.63 327.52 582.77 327.18 583.01 326.63 583.8 326.72 584.32 327.06 584.9 327.28 585.78 327.3 585.84 327.07 586.55 326.42 586.67 324.9 586.22 323.95 586.05 323.47 586.25 323.28 586.77 323.23 587.57 323.08 588.29 322.1 590.76 321.62 591.41 320.81 592 319.15 592.94 318.59 593.14 317.12 593.4 316.72 593.57 316.57 594.06 316.67 594.64 316.72 595.25 316.39 595.86 315.42 596.51 314.09 597.06 312.27 597.67 312.27 597.67 312.22 597.57 312.23 596.2 311.96 595.81 312.48 594.57 312.23 593.85 310.39 591.85 309.97 591 309.83 590.27 309.87 588.61 310.31 587 310.3 586.3 309.61 586.14 309.87 585.86 309.41 585.45 309.03 584.87 308.94 584.32 309.36 584.05 309.12 583.67 308.06 582.76 307.82 582.48 307.34 581.8 306.45 580.85 306.19 580.67 304.98 580.03 304.6 579.98 304.18 580.2 302.89 578.47 303.42 576.8 303.15 576.19 303.15 574.33 302.98 573.68 302.62 573.45 302.25 573.28 302.09 572.77 301.79 572.44 301.1 572.39 300.32 572.43 299.78 572.39 299.32 571.99 298.94 571.38 298.47 570.32 298.3 569.76 298.11 568.46 297.93 567.94 297.58 567.65 295.88 566.93 295.98 567.59 296.25 568.19 296.92 569.26 296.15 569.73 296.53 572.2 296.12 572.9 295.9 572.12 295.88 569.52 295.72 568.74 295.21 567.27 294.55 562.13 294.31 561.22 294.14 560.55 294.36 558.66 294.31 557.85 294.03 557.01 293.79 556.66 293.42 556.51 293.03 556.5 292.73 556.42 292.54 556.23 292.47 555.9 292.24 555.47 288.16 552.11 287.81 552 287.7 552.21 287.44 551.88 287.04 551.08 286.29 550.07 286.07 549.43 285.91 549.14 285.63 549.01 284.77 549.19 284.38 549.1 284.22 548.63 284.03 548.3 282.39 546.66 282.32 546.74 282.08 546.84 281.79 546.92 281.58 546.92 281.22 546.58 280.05 544.98 279.67 544.78 277.42 542.76 276.6 543.08 275.18 542.14 274.32 542.27 273.97 541.27 273.3 540.64 272.49 540.1 271.73 539.4 270.14 537.45 269.9 536.81 269.96 536.33 270.07 535.91 270 535.61 269.52 535.49 269.24 535.38 269.19 535.1 269.21 534.77 269.15 534.48 267.55 533.11 266.97 532.33 267.31 531.62 267.11 531.37 267.11 531.36 267.11 531.36 267.8 529.78 268.2 529.13 268.78 528.5 269.51 528.03 271.84 526.8 272.52 526.13 272.99 525.55 273.68 524.07 277.95 523.75 279.44 524.14 279.83 524.73 279.98 525.43 280.03 526.19 279.23 530.74 279.18 531.6 279.25 532.48 279.59 533.51 280.22 534.06 Z" fill-rule="evenodd" id="SAU-887" data-name="Jizan"/>
<path d="M 281.85 310.58 281.46 314.17 281.58 316.54 281.86 317.31 282.3 317.85 282.72 318.19 284.12 318.96 284.93 319.53 285.7 320.28 286.42 321.44 288.42 327.44 289.4 329.41 289.75 330.37 290.86 335.77 295.74 346.52 296.12 347.05 296.66 347.62 297.38 348.19 298.2 348.65 299.03 349.01 299.84 349.25 301.22 349.46 307.09 349.36 315.35 349.99 317.06 350.32 317.97 350.62 318.91 351.08 319.95 351.86 320.48 352.68 320.65 353.46 320.5 354.14 319.93 355.8 319.71 359.65 319.75 360.56 320 361.55 320.83 362.93 321.63 363.63 322.48 364.12 324.12 364.64 324.99 364.72 325.88 364.65 330.35 363.51 331.18 363.41 332.03 363.44 336.53 364.24 337.35 364.47 338.07 364.83 338.63 365.42 338.67 365.57 337.62 371.12 337.61 372.7 339.51 385.35 339.48 386.1 339.37 386.93 339.12 387.71 338.76 388.46 338.3 389.19 337.16 390.59 336.68 391.3 336.38 392.03 336.3 392.81 336.77 399.14 336.51 400.76 334.99 406.29 334.93 407.04 334.98 407.84 335.2 408.61 335.64 409.39 345.54 423.21 341.52 424.67 335.56 427.97 334.25 428.38 333.15 428.46 330.71 427.68 329.73 427.48 328.64 427.43 327.03 427.6 325.79 427.94 323.49 428.87 322.72 429.1 322.15 429.19 319.8 429.24 318.42 429.49 317.37 429.92 316.42 430.52 314.96 431.91 313.91 432.72 306.4 436.55 296.81 444.73 295.53 445.59 293.47 446.67 292.2 447.06 291.13 447.13 290.29 446.88 289.52 446.45 288.78 445.85 288.15 445.09 284.27 437.6 283.58 436.52 281.45 434.79 280.72 434.54 279.78 434.4 278.95 434.61 275.43 436.47 274.6 436.81 273.78 437.04 269.72 437.07 268.49 437.24 267.47 437.48 265.62 438.2 264.48 438.52 263.69 438.49 263.2 438.33 262.63 437.87 262.13 437.22 261.69 436.47 260.52 433.35 259.91 432.59 259.08 431.93 257.95 431.44 257.02 431.29 256.1 431.39 255.29 431.71 254.53 432.26 253.94 432.88 253.56 433.44 253.35 433.88 253.16 434.52 253.1 435.24 253.15 436.06 253.47 437.63 254.14 439.89 254.22 441.03 254.21 441.41 253.95 442.41 251.26 446.92 250.21 449.4 249.74 450.16 248.83 450.91 247.95 451.3 247.06 451.54 243.37 452.08 242.21 452.41 241.24 452.86 240.4 453.48 237.5 456.29 236.98 457.01 236.87 457.73 237.12 458.43 237.72 459.03 238.47 459.4 241.31 460.18 241.48 460.3 241.8 460.58 242.26 461.18 242.62 461.93 242.84 462.74 242.89 463.56 242.47 467.44 242.52 468.24 243.21 470.7 243.31 471.48 243.09 474.61 243.14 475.35 243.31 476.12 243.72 476.86 244.31 477.44 244.74 477.75 247.66 479.23 248.56 480.02 250.94 483.04 251.75 483.66 252.66 484.06 253.67 484.25 254.55 484.26 255.41 484.14 256.22 483.9 256.99 483.54 257.69 482.98 258.16 482.29 258.45 481.56 259.34 477.49 261.78 471.42 262.8 469.77 263.24 469.25 263.63 468.96 264.28 468.65 265.05 468.53 268.6 468.54 269.91 468.36 270.95 467.88 272.65 467.23 274.24 467.15 274.97 467.27 275.52 467.48 276 467.81 276.57 468.45 277.01 469.2 277.27 470.02 277.31 470.78 277.23 471.54 276.07 476.48 276.01 477.37 276.11 478.38 276.33 479.13 277.93 481.69 278.18 482.62 278.17 483.55 276.88 487.41 276.53 488.14 275.99 488.8 275.3 489.29 274.58 489.58 274 489.7 273.48 489.72 269.27 489.29 268.43 489.31 267.61 489.45 266.77 489.72 265.09 490.66 263.19 492.02 262.47 492.36 261.73 492.34 260.98 491.97 260.31 491.49 259.72 491.2 259.41 491.59 259.28 492.27 259.02 501.09 259.23 502.67 259.44 503.45 259.75 504.23 260.19 504.98 260.83 505.61 261.57 506 262.32 506.2 266.46 506.13 268.11 506.26 269.72 506.55 270.51 506.82 271.24 507.22 271.88 507.84 272.3 508.58 274.9 516.06 275.16 517.2 275.19 518.19 275.03 519.26 273.68 524.07 272.99 525.55 272.52 526.13 271.84 526.8 269.51 528.03 268.78 528.5 268.2 529.13 267.8 529.78 267.11 531.36 267.11 531.36 267.11 531.37 266.65 530.83 266.38 530.41 266.27 529.92 266.11 529.7 265.77 529.59 265.56 529.36 265.74 528.77 264.97 528.69 264.23 528.51 264.34 528.35 264.4 528.22 264.49 528.11 264.7 527.99 264.47 527.54 264.13 527.32 263.7 527.31 263.17 527.48 263.42 527.12 263.6 526.76 263.64 526.42 263.43 526.16 263.67 525.65 263.44 525.39 262.96 525.32 262.37 525.38 262.49 524.87 262.37 524.14 262.08 523.42 261.74 522.93 261.56 522.47 261.33 521.04 261.22 520.73 261.14 520.41 261.08 518.38 260.99 518.16 260.89 517.99 260.71 517.9 260.44 517.86 260.23 517.72 260.16 517.4 260.14 517.04 260.07 516.8 258.7 515.9 258.49 515.66 258.43 515.27 258.25 514.8 257.96 514.4 257.37 514.15 257.15 513.97 256.98 513.78 256.92 513.7 256.69 513.77 256.29 514.16 256.14 514.24 255.73 514.09 255.31 513.84 254.92 513.53 254.61 513.18 253.6 511.04 253.17 510.45 252.69 509.96 252.45 509.52 252.41 509 252.52 508.27 253.42 505.78 253.56 505.01 253.67 504.71 253.87 504.58 253.92 504.36 253.56 503.82 253.4 503.79 252.56 503.37 252.52 503.31 250.97 502.94 250.58 501.75 250.56 501.53 249.82 500.6 249.65 500.48 249.63 500.09 249.68 499.68 249.91 498.93 250.1 498.51 250.28 498.23 250.42 497.93 250.5 497.24 250.69 496.45 251.17 495.53 250.84 494.96 250.14 494.53 249.4 494.23 247.76 493.77 247.08 493.33 246.69 492.28 246.16 491.48 246.01 491.12 246.03 490.7 246.31 489.83 246.28 489.46 246.06 488.77 246.01 488.39 245.85 488.06 245.16 487.7 245 487.36 244.83 486.56 244.42 486.15 243.84 485.85 242.81 485.07 242.88 484.95 242.93 484.49 242.84 484.11 242.47 483.52 242.39 483.2 242.33 482.8 242.12 482.19 242.15 481.77 242.4 481.38 242.75 481.08 242.94 480.8 242.67 480.5 242.76 480.09 242.68 479.69 242.47 479.37 242.39 478.92 239.15 477.83 238.25 477.37 236.33 475.49 235.41 475.02 235.41 474.78 235.82 474.84 236.7 475.3 236.93 473.75 236.83 471.85 236.56 471.03 234.82 468.64 234.08 468.18 232.13 467.96 231.38 467.99 231.04 468.35 231.47 469.3 230.91 468.86 230.42 468.07 230.1 467.31 230.07 466.98 229.53 466.65 227.98 464.52 226.81 463.83 226.57 463.59 226.6 463.32 227.08 462.32 226.85 461.64 226.4 461.24 225.25 460.77 223.82 459.95 223.48 459.83 223.13 459.31 222.8 459.19 222.45 459.01 221.51 457.76 221.2 457.61 220.27 457.39 219.94 457.36 219.24 457.18 218.48 456.76 216.75 455.45 215.39 454 215.65 453.45 215.01 453.03 214.01 452.77 212.84 452.6 212.62 452.41 212.27 451.93 211.68 451.42 211.34 451.06 211.37 450.89 210.98 450.66 209.78 449.62 209.16 449.34 208.31 449.36 207.37 449.51 206.61 449.77 206.3 450.09 205.39 449.77 203.77 448.85 202.93 448.52 202.98 449 203.2 449.27 203.51 449.45 203.82 449.71 204 449.79 204.37 450.02 204.6 450.26 204.35 450.38 203.69 450.21 199.98 448.07 199.45 447.64 198.96 447.41 198.2 447.21 197.51 446.9 196.93 445.75 196.27 445.16 194.24 443.67 193.21 442.71 190.96 439.28 190.21 438.69 190.21 438.41 190.59 438.43 190.89 438.38 191.11 438.21 191.25 437.89 190.67 437.79 190.18 437.53 189.31 436.74 189.06 436.32 188.83 435.21 188.66 434.79 187.39 433.44 187.28 432.81 187.89 431.92 186.57 431.5 186.05 431.42 186.14 431.72 186.32 431.93 186.55 432.08 186.82 432.2 186.08 431.98 185.25 431.53 184.75 430.96 185.01 430.36 184.66 430.2 184.51 429.97 184.54 429.69 184.76 429.35 184.92 429.65 185.21 429.86 185.6 430.01 186.05 430.11 185.87 429.66 185.81 429.45 185.79 429.21 185.72 428.85 185.54 428.84 185.28 428.91 185.01 428.81 184.51 428.13 184.3 428.11 184.24 428.81 183.43 428.33 182.34 427.52 181.56 426.58 181.63 425.71 181.79 425.9 182.07 426.14 182.34 426.22 182.42 425.97 182.3 425.52 182.08 425.35 181.8 425.26 181.5 425.06 181.14 424.89 180.74 424.96 180.34 425.11 179.97 425.19 179.96 425.04 178.9 423.5 178.66 422.95 178.55 422.32 178.53 421.41 178.4 421.06 177.89 420.73 177.77 420.38 177.73 419.93 177.58 419.77 177.34 419.69 175.74 418.63 175.32 418.19 175.08 417.15 174.73 416.4 174.65 415.96 174.73 415.77 175.09 415.29 175.16 415.06 174.9 414.51 173.48 412.45 172.96 412.15 171.78 410.38 174.78 407.92 175.2 407 175.25 405.79 174.96 404.7 174.39 404.12 174.39 403.91 174.79 403.58 174.74 403.07 174.13 401.82 173.64 402.63 173.26 402.73 172.9 402.3 172.55 401.54 172.83 401.3 172.21 400.47 172.08 399.36 172.13 398.18 172.06 397.14 171.65 396.11 171.72 395.55 172.44 395.31 172.64 395.09 172.83 394.58 172.85 393.98 172.55 393.52 172.26 394.31 172.07 394.64 171.78 394.82 171.25 394.84 171.12 394.65 171.13 394.36 171 394.04 170.76 393.83 170.59 393.72 170.44 393.57 170.25 393.26 170.13 392.91 170.08 392.28 169.97 391.97 169.89 391.95 169.45 391.71 169.37 391.58 169.27 391.29 169.19 391.17 167.91 389.65 166.81 387.39 166.11 384.2 166.17 383.47 167.17 383.12 168.2 384.34 168.93 384.35 169.1 383.51 169.1 382.78 169.19 382.37 169.35 382.23 169.86 381.89 169.97 381.69 170.04 380.98 170.4 379.47 170.48 378.71 170.25 378.71 169.71 380 169.45 379.44 169.58 379.03 169.83 378.62 169.97 378.07 169.97 376.52 170.25 375.5 171.49 374.16 171.88 372.55 172.15 372.18 172.49 371.86 172.83 371.46 173.35 370.4 174 369.79 174.13 369.63 174.13 369.15 173.92 368.72 173.55 368.47 173.07 368.57 172.82 368.94 172.55 370.02 172.31 370.4 171.38 370.57 171.34 369.48 171.83 367.9 171.53 365.83 171.81 363.71 171.52 362.68 171.23 362.17 170.18 360.84 169.19 358.72 168.45 357.59 168.18 356.99 168.27 356.53 169.27 355.68 169.21 355.38 167.39 353.5 166.65 352.94 166.32 353.12 166.46 353.33 167.13 353.98 167.38 354.32 167.5 354.73 167.54 355.11 167.64 355.49 167.89 355.87 167.61 356.13 167.12 355.07 166.06 353.55 165.03 352.49 163.07 349.21 163.08 348.69 164.19 349.25 165.42 351.77 166.09 351.97 166.5 352.21 166.86 352.15 167.16 351.88 167.38 351.45 166.99 351.02 166.34 349.88 165.95 349.64 165.67 349.53 165.36 349.26 165.13 348.88 165.03 348.47 164.7 347.87 163.94 347.58 163.08 347.38 162.44 347.06 161.68 347.2 161.12 346.59 160.35 344.99 160.77 344.6 161.09 344.1 161.31 343.54 161.38 343.01 161.29 341.93 161.11 341.35 161.08 340.88 160.64 340.69 160.29 341.27 159.82 340.44 159.16 339.61 158.46 338.35 157.79 337.61 157.5 336.78 157.04 336.2 156.93 335.69 156.6 335.04 156.61 334.49 156.32 333.36 155.81 332.46 155.33 331.36 155.22 330.65 156.39 330.52 161.11 330.19 163.78 329.63 164.94 329.53 165.93 329.8 166.67 330.45 168.27 332.82 168.77 333.31 171.82 335.77 174.78 339 175.63 339.69 176.55 340.24 177.79 340.44 179.28 340.34 183.32 339.66 184.45 339.69 185.16 340.06 185.56 340.69 185.75 341.43 185.88 342.98 186.29 343.61 187.16 343.97 190.04 343.47 198.12 341.14 201.66 340.73 202.49 340.77 203.29 341 203.98 341.52 204.43 342.2 204.7 342.91 204.83 343.6 204.87 344.76 204.61 346.57 204.41 347.26 202.32 351.79 202.12 352.57 202.25 353.32 202.75 353.93 203.49 354.24 206 354.96 207.16 355.49 207.84 355.96 208.56 356.59 209.15 357.32 209.52 358.08 209.71 358.89 209.74 359.71 209.52 361.36 209.14 362.87 209.03 363.64 209.2 364.38 209.65 365 210.41 365.45 210.58 365.49 213.02 365.82 213.9 365.82 214.74 365.74 215.7 365.52 215.88 365.45 216.67 365.01 220.53 361.99 222.09 361.08 223.25 360.88 224.16 360.98 229.97 362.65 230.89 362.6 231.79 362.22 232.77 361.24 235.48 357.35 236.99 355.74 247.79 347.88 253.07 342.98 254.24 342.11 255.25 341.49 259.65 339.98 260.53 339.52 261.25 338.8 261.64 337.74 261.4 336.91 260.78 336.29 256.65 334.23 255.82 333.66 255.16 333.01 254.92 332.21 255.32 331.29 256.49 330.14 258.17 328.99 263.08 326.44 269.82 323.72 270.74 323.08 271.67 322.23 272.66 320.82 273.17 319.81 273.45 318.87 273.52 317.21 273.43 316.4 273.26 315.62 272.27 313.14 272.2 312.35 272.38 311.57 272.89 310.88 273.64 310.37 274.5 310.03 276.89 309.9 281.85 310.58 Z" id="SAU-888" data-name="Makkah"/>
</g>
</svg>