<?xml version="1.0"?>
<svg xmlns="http://www.w3.org/2000/svg" version="1.2" baseProfile="tiny" width="800" height="649" viewBox="0 0 800 649" stroke-linecap="round" stroke-linejoin="round">
<g id="ne_10m_admin_1_states_provinces">
<path d="M 723.24 543.52 788.85 609.21 799 626.2 782.54 637.33 743.38 644.92 697.38 647.85 660.33 644.47 611.62 621.69 515.11 556.98 420.33 529.09 359.3 494.07 304.51 450.47 280.83 410.64 267.98 373.05 237.69 360.88 202.06 357.65 173.05 346.9 148.47 318.04 91.65 227.24 70 211.91 44.67 198.83 23.55 182.29 14.75 157.19 19.04 90.89 15.66 55.72 1 24.3 11.37 7.76 20.47 1 29.64 2.65 40.01 11.67 119.16 44.74 152.75 64.96 186.13 93.6 206.64 128.33 225.96 214.16 242.95 251.22 310.82 314.73 389.74 352.23 622.52 408.23 649.28 424.32 660.33 447.84 665.81 485.27 680.24 508.05 723.24 543.52 Z" id="CUW-5151" data-name="Curaçao"/>
</g>
</svg>