<?xml version="1.0"?>
<svg xmlns="http://www.w3.org/2000/svg" version="1.2" baseProfile="tiny" width="800" height="576" viewBox="0 0 800 576" stroke-linecap="round" stroke-linejoin="round">
<g id="ne_10m_admin_1_states_provinces">
<path d="M 681.99 340.2 682.74 341.81 682.28 350.42 685.24 354.7 693.02 359.66 700.24 365.42 701.32 366.55 701.46 366.68 701.48 366.7 700.26 367.09 698.95 368.05 698.11 369.25 697.99 370.1 698.95 372.25 697.29 373.26 695.01 374.25 693 375.54 692.12 377.45 692.7 379.17 693.68 380.56 693.88 381.85 692.12 383.33 691.42 382.5 690.7 382.22 689.99 382.5 689.31 383.33 688.67 382.24 687.49 380.92 686.37 380.37 685.87 381.58 686.09 382.38 687.08 383.34 687.31 384.33 687.15 385.12 685.87 387.46 682.52 385.89 680.89 385.43 678.98 385.33 678.1 385.53 677.58 385.85 677.05 386.1 676.16 386.09 676.3 385.57 675.54 384.42 674.57 383.66 673.52 385.24 672.47 386.23 671.97 387.49 673.86 390.55 674.26 393.99 674.78 395.72 673.73 395.36 671.72 394.42 670.65 394.41 670.2 394.92 669.51 396.76 668.93 397.17 665.6 397.91 665.08 398.13 665.19 399.65 665.56 399.52 666.2 398.95 667.15 399.17 667.26 399.58 667.08 400.83 667.15 401.3 667.44 401.49 668.4 401.93 668.59 401.92 668.79 403.12 668.82 404.26 668.98 405.36 669.62 406.43 670.76 407.59 670.65 409.21 670.32 409.67 669.58 408.99 668.86 407.98 668.59 407.49 667.56 407.14 664.46 406.8 664.06 406.91 662.97 407.46 662.33 407.49 662.15 407.26 661.62 406.27 661.33 406.05 660.79 405.83 660.28 405.36 659.6 404.89 657.39 404.54 656.92 404.38 656.47 404.55 655.81 405.45 655.21 406.67 654.36 407.95 654 408.18 653.89 409.2 653.94 410.33 654.3 411.25 655.1 411.62 655.68 412.17 655.78 413.35 655.53 414.53 655.1 415.07 653.3 415.05 651.94 414.87 648.87 413.19 635.76 413.43 626.06 413.62 619.73 414.82 607.13 419.19 608.35 414.91 606.72 414.51 607.08 414.11 607.22 413.69 607.3 413.27 607.43 412.83 607.38 412.51 607.25 412.28 607.03 412.14 595.75 409.86 596.03 409.04 599.87 401.03 601.29 399.68 602.66 400.29 603.8 401.95 605.43 403.83 607.18 404.32 608.15 402.96 608.32 400.16 608.9 397.56 610.11 395.72 613.87 391.49 613.87 390.36 613.73 389.36 614.25 387.72 613.76 385.93 612.8 384.4 611.83 380.05 612.44 378.11 614.98 376.42 616.06 373.71 615.55 371.65 614.45 368.61 612.31 364.83 611.57 362.43 611.18 355.44 610.7 352.79 611.34 345.93 612.43 344.38 615.47 341.9 618.96 340.38 628.2 338.09 630.57 336.18 630.05 333.62 630.83 330.74 633.32 328.21 634.61 327.24 639.04 324.52 645.06 319.87 647.45 320.05 649.55 321.02 652.87 321.52 655.71 321.69 656.84 322.39 658.15 323.47 660.2 323.78 661.36 324.85 662.03 326.45 663.22 327.84 664.46 328.32 667.83 328.51 669.21 328.4 669.91 329.34 670.21 331.1 671.29 332.63 672.78 334.12 674.16 334.85 674.91 335.47 674.89 337.07 675.37 337.86 676.59 337.31 677.59 337.47 678.33 338.04 679.42 337.98 681.02 339.06 681.99 340.2 Z" id="BFA-2183" data-name="Kompienga"/>
<path d="M 681.99 340.2 681.02 339.06 679.42 337.98 678.33 338.04 677.59 337.47 676.59 337.31 675.37 337.86 674.89 337.07 674.91 335.47 674.16 334.85 672.78 334.12 671.29 332.63 670.21 331.1 669.91 329.34 669.21 328.4 667.83 328.51 664.46 328.32 663.22 327.84 662.03 326.45 661.36 324.85 660.2 323.78 658.15 323.47 656.84 322.39 655.71 321.69 652.87 321.52 649.55 321.02 647.45 320.05 645.06 319.87 639.04 324.52 634.61 327.24 633.32 328.21 630.83 330.74 630.05 333.62 630.57 336.18 628.2 338.09 618.96 340.38 615.47 341.9 612.43 344.38 611.34 345.93 603.09 345.78 600.9 345.41 589.79 337.89 586.78 336.9 580.51 337.16 577.27 335.67 575.42 334.14 573.7 334.29 568.23 333.27 566.66 333.74 566.19 336.4 565.36 337.1 563.81 337.02 562.96 336.82 562.82 335.27 561.9 331.27 559.44 327.29 554.72 326.32 551.41 324.08 550.39 320.67 548.22 319.73 546.82 319.38 547.26 317.63 546.87 314.65 547.32 311.03 549.63 306.71 552.68 304.73 555.97 303.71 558.88 302.3 561.04 301.73 560.74 299.02 556.41 294.97 554.13 292.35 550.86 290 549.42 288.34 550.35 287.29 556.15 281.99 558.9 278.55 561.68 277.69 564.95 278.01 572.72 274.16 583.47 273.99 587.73 271.26 593.15 266.84 594.17 266.55 596.21 265.65 603.9 260.59 606.28 259.87 617.92 267.25 619.31 268.9 623.92 278.38 626.25 279.71 627.82 278.52 628.49 277.65 629.63 277.35 631.02 277.4 632.06 276.48 632.83 274.83 633.92 273.91 634.65 273.16 634.63 271.83 634.86 270.55 636.16 269.9 636.82 269.15 636.83 268.13 638.74 267.68 639.42 266.31 641.25 264.39 641.41 262.03 641.94 260.7 642.57 260.78 643.36 260.96 644.1 260.54 644.02 258.76 644.28 256.76 645.83 253.13 646.78 252.04 648.29 251.41 650.56 250.97 652.71 250.84 654.69 250.24 656.33 248.36 657.44 246.04 658.74 244.51 660.01 244.05 661.52 243.71 663.29 243.79 664.97 244.6 666.41 245 667.01 245.1 667.77 245.29 669.26 245.48 670.75 244.52 671.94 242.86 672.35 240.97 673.13 239.66 674.07 238.74 674.21 237.24 674.58 235.97 675.84 235.44 679.04 234.98 683.17 233.98 685.21 233.84 685.91 233.58 685.43 235.37 685.9 237.89 687.03 240.93 686.29 244.19 685.46 246.44 683.28 255.62 680.96 259.62 678.95 264.06 679 269.5 680.84 279.6 680.19 284.05 679.04 288.4 681.36 293.64 685.74 295.93 689.34 296.54 692.19 297.56 692.1 300.68 689.46 317.2 689.48 322.41 688.46 327.29 686.98 331.02 685.8 335.3 683.61 339.14 681.99 340.2 Z" id="BFA-2184" data-name="Gourma"/>
<path d="M 156.47 318.39 156.92 318.91 157.84 319.33 158.59 319.79 159.26 322.73 159.17 324.03 158.78 325.78 159.16 326.71 159.69 326.63 159.07 328.38 158.32 331.42 158.81 338.27 155.49 348.14 155.9 351.54 156.59 354.7 157.62 357.99 159.27 360.73 161.08 362.76 163.08 364.3 163.99 365.42 165.16 370.27 165.63 374.07 167.52 375.94 169.77 376.21 169.68 379.06 166.48 392.39 167.1 395.87 168.72 398.17 171.61 398.12 174.57 397.57 174.99 397.89 175.72 398.36 178.45 402.69 180.57 405.36 182.76 407.32 184.73 408.78 190.66 414.48 192.38 415.61 194.73 415.5 196.29 415.27 193.38 418.14 192.53 418.6 192 418.69 191.42 418.86 190.48 419.62 189.33 422.05 189.06 423.51 189.48 424.86 188.87 425.73 187.33 425.9 185.58 427.23 184.43 426.99 183.34 426.99 182.61 427.75 182.21 429.9 177.9 429.94 176.19 430.61 174.99 432.02 173.83 433.92 170.31 437.34 170.07 439.28 169.64 441 168.26 441.95 164.89 443.02 163.43 443.87 161.59 444.04 159.49 441.85 153.66 440.79 151.39 440.06 149.99 439.23 148.68 437.99 146.35 435.38 145.44 434.88 144.23 435.02 141.31 436.34 137.07 437.72 134.54 438.96 133.61 439.7 128.15 442.66 126.55 442.73 125.61 441.77 124.96 440.61 124.08 439.86 118.17 438.06 115.52 437.85 114.02 437.22 112.83 435.5 110.3 429.02 108.16 426.68 105.68 425.78 103.49 425.57 101.05 425.57 98.46 426.49 95.67 428.27 93.83 429.99 93.03 431.02 87.75 434.86 85.79 435.03 83.52 433.8 80.75 432.87 78.97 432.09 77.88 430.37 75.07 426.89 74.5 425.48 74.99 424.97 76.18 422.36 77.61 420.74 78.31 419.14 77.74 417.17 77.38 414.91 78.09 413.14 80.39 412.09 83.05 411.54 84.46 410.3 86.26 409.29 88.37 408.96 88.97 407.93 89.26 406.59 89.41 405.11 89.08 403.26 88.17 401.26 86.45 399.26 85.04 396.95 83.85 395.51 77.5 391.23 76.29 391.12 75.68 390.56 75.04 389.12 74.49 387.47 75.17 385.14 77.7 380.39 78.13 378.16 78.32 375.89 79.56 373.53 80.91 372.27 88.01 367.35 89.08 368 90.19 370.34 91.07 370.86 92.2 370.98 93.71 370.42 95.82 368.65 97.25 366.73 98.12 365.29 99.11 362.81 99.42 359.99 99.12 357.94 97.79 355.75 96.1 353.59 94.88 350.9 94.2 347.88 94.39 346.06 94.95 343.39 93.65 342.49 91.1 342 88.32 342 86.87 341.36 87.16 339.72 87.56 338.27 88.56 337.27 90.21 336.8 91.42 335.83 91.47 334.6 90.84 333.51 90.65 331.81 90.8 327.34 91.92 322.31 91.68 319.29 90.25 313.33 88.96 311.76 83.86 308.87 82.18 308.12 80.7 307.85 81.42 306.55 82.48 305.66 83.55 305.41 85.6 305.65 86.62 305.58 88.62 304.64 88.72 304.38 89.48 304.81 90.13 305.48 91.92 306.39 94.37 306.09 96.78 305.57 98.88 305.73 100.73 305.51 103.7 303.3 105.23 303.46 106.67 304.16 107.61 305.18 107.58 307.01 107.08 309.43 107.07 311.32 108.38 311.83 110.3 311.98 111.03 313.17 110.5 315.09 109.7 317.11 109.39 319.15 109.33 321.44 108.96 324.6 108.3 327.55 105.55 333.96 105.06 335.66 105.4 338.1 107.31 339.99 109.23 340.16 111.02 339.65 112.66 338.98 113.95 338.19 115.8 337.58 119.36 339.08 121.39 338.82 123.45 337.62 125.04 335.67 126.14 333.47 126.91 330.01 127.44 328.4 130.52 321.68 133.24 319.19 135.24 318.68 137.71 318.97 140.36 319.04 142.86 318.79 144.44 318.19 145.79 317.2 147.98 316.81 150.5 317.41 152.16 318.3 153.42 319.16 154.98 318.98 156.47 318.39 Z" id="BFA-2799" data-name="Houet"/>
<path d="M 74.5 425.48 73.72 424.75 72.35 424.24 63.7 424.3 59.26 423.53 57.25 423.7 52.76 427.34 47.46 429.39 44.82 429.44 39.62 430.8 37.81 431.49 34.88 431.61 33.21 430.14 29.05 425.57 27.82 423.51 26.69 420.89 25.39 418.83 15.49 409.93 12.55 408.32 3.7 407.57 2.71 407.62 2.54 406.72 2.85 405.13 4.31 404.18 14.36 402.91 16.08 402.4 17.77 401.68 20.17 400.2 21.19 398.79 21.82 394.68 22.77 392.35 25.94 389.19 27.19 387.09 27.39 385.46 26.69 374.94 27.13 373.11 28.67 371.8 30.87 370.76 31.69 369.88 31.6 368.57 31.05 366.27 31.04 357.92 30.11 354.37 26.53 351.54 25.39 351.37 24.36 351.5 23.45 351.3 22.68 350.17 22.66 349.02 23.22 347.93 23.97 346.88 24.53 345.85 25.4 341.91 25.61 339.7 25.51 337.93 24.74 335.92 23.55 334.53 21.96 333.54 19.99 332.71 18.94 332.39 18.07 332.33 16.32 332.68 15.93 332.26 13.32 330.75 12.76 330.54 12.13 329.4 12.12 328.9 12.76 328.71 14.14 328.52 14.58 328.67 15.82 329.54 16.4 329.75 16.94 329.58 17.69 328.79 18.02 328.58 21.53 328 21.95 327.81 22.33 327.45 22.79 327.13 23.43 327.1 24.11 327.42 24.66 327.83 25.21 328.1 25.95 328 26.65 327.44 28.67 324.67 32.58 321.54 35.26 318.58 36.78 317.29 39.89 316.34 43.22 314.36 44.69 313.7 46.26 313.57 50.24 313.7 52.08 313.5 53.23 313.56 54.28 313.3 55.26 312.76 56.18 311.98 58.37 311.09 60.55 311.29 62.71 311.8 64.8 311.82 69.11 310.29 71.23 310.33 73.19 311.98 74.93 311.43 77.78 310.94 79.23 310.09 80.03 309.07 80.7 307.85 82.18 308.12 83.86 308.87 88.96 311.76 90.25 313.33 91.68 319.29 91.92 322.31 90.8 327.34 90.65 331.81 90.84 333.51 91.47 334.6 91.42 335.83 90.21 336.8 88.56 337.27 87.56 338.27 87.16 339.72 86.87 341.36 88.32 342 91.1 342 93.65 342.49 94.95 343.39 94.39 346.06 94.2 347.88 94.88 350.9 96.1 353.59 97.79 355.75 99.12 357.94 99.42 359.99 99.11 362.81 98.12 365.29 97.25 366.73 95.82 368.65 93.71 370.42 92.2 370.98 91.07 370.86 90.19 370.34 89.08 368 88.01 367.35 80.91 372.27 79.56 373.53 78.32 375.89 78.13 378.16 77.7 380.39 75.17 385.14 74.49 387.47 75.04 389.12 75.68 390.56 76.29 391.12 77.5 391.23 83.85 395.51 85.04 396.95 86.45 399.26 88.17 401.26 89.08 403.26 89.41 405.11 89.26 406.59 88.97 407.93 88.37 408.96 86.26 409.29 84.46 410.3 83.05 411.54 80.39 412.09 78.09 413.14 77.38 414.91 77.74 417.17 78.31 419.14 77.61 420.74 76.18 422.36 74.99 424.97 74.5 425.48 Z" id="BFA-2800" data-name="Kénédougou"/>
<path d="M 129.8 238.1 131.99 239.97 133.67 239.81 135.14 240.71 136.82 242.24 138.87 243.13 138.97 244.81 137.64 245.87 136.67 247.37 137.02 249.23 136.91 252.99 136.43 254.95 136.66 256.52 138.28 258.93 139.24 263.17 139.47 267.02 141.34 269.83 145.65 272.97 148.04 273.66 151.28 272.6 153.68 271.1 154.94 269.88 155.44 268.79 155.33 267.98 155.3 267.19 155.74 265.29 158.17 261.73 158.87 259.37 160.37 257.74 163.48 257.01 167.13 257.24 170.22 257.93 172.64 258.22 177.55 257.46 185.2 257.72 189.11 258.77 195.39 261.93 198.55 263.02 198.35 264.13 197.44 266.51 197.17 267.89 197.45 270.18 197.13 271.11 195.8 272.02 195.03 271.13 194.25 270.93 193.47 270.82 192.67 270.27 191.32 268.73 190.91 268.55 190.29 268.51 189.08 268.95 185.21 271.14 184.09 272.02 180.59 277.53 179.3 281.52 178.31 283.59 176.86 284.48 173.37 285.35 172.37 287.69 173.01 295.18 172.54 296.68 171.33 298.14 169.66 299.25 167.82 299.69 167.38 300.65 167.09 302.54 166.56 303.85 165.44 303.07 164.68 303.07 164.2 304.24 163.86 306.38 163.51 306.48 163.08 306.39 162.68 306.64 160.55 310.02 161.11 310.42 161.38 310.84 161.93 312.08 160.33 312.68 159.42 314.18 159.25 316.02 159.87 317.65 158.27 317.73 157.39 317.15 156.7 317.08 156.47 318.39 154.98 318.98 153.42 319.16 152.16 318.3 150.5 317.41 147.98 316.81 145.79 317.2 144.44 318.19 142.86 318.79 140.36 319.04 137.71 318.97 135.24 318.68 133.24 319.19 130.52 321.68 127.44 328.4 126.91 330.01 126.14 333.47 125.04 335.67 123.45 337.62 121.39 338.82 119.36 339.08 115.8 337.58 113.95 338.19 112.66 338.98 111.02 339.65 109.23 340.16 107.31 339.99 105.4 338.1 105.06 335.66 105.55 333.96 108.3 327.55 108.96 324.6 109.33 321.44 109.39 319.15 109.7 317.11 110.5 315.09 111.03 313.17 110.3 311.98 108.38 311.83 107.07 311.32 107.08 309.43 107.58 307.01 107.61 305.18 106.67 304.16 105.23 303.46 103.7 303.3 100.73 305.51 98.88 305.73 96.78 305.57 94.37 306.09 91.92 306.39 90.13 305.48 89.48 304.81 88.72 304.38 89.13 303.34 89.34 301.72 90.4 299.75 94.01 297.74 97.04 297.6 98.03 296.53 95.5 291.72 104.39 284.51 104.78 284.09 104.91 283.49 104.73 282.35 105.09 280.77 105.06 279.96 105.32 279.27 106.43 278.6 107.91 278.51 108.9 279.31 109.69 280.4 110.6 281.18 113.59 280.6 112.66 276.28 109 267.71 109.81 265.27 111.53 263.24 113.44 261.39 114.87 259.52 115.53 258.14 115.5 257.76 114.95 257.41 114.07 256.1 111.94 251.38 110.27 249.76 105.89 246.43 105 244.77 105.61 239.53 105.97 239.26 106.65 239.42 107.72 239.27 107.73 239.27 110.66 238.15 114.01 237.33 117.35 237.08 120.32 237.71 123.2 239.4 124.58 239.79 126.69 239.53 128.57 238.9 129.8 238.1 Z" id="BFA-2801" data-name="Banwa"/>
<path d="M 158.03 161.42 158.13 161.56 158.66 163.57 158.98 164.2 159.85 164.55 162.28 165 162.82 165.27 162.76 166.35 162.06 166.76 161.11 166.9 160.33 167.2 158.28 169.09 157.41 169.58 156.16 170.77 157.41 171.75 159.75 172.35 161.73 172.41 163.74 172.24 165.38 172.54 168.86 173.9 173 174.99 174.86 175.75 182.34 181.63 186.95 184.36 195.21 190.65 195.92 190.85 197.25 190.66 197.92 190.91 199.54 192.58 200.43 193.16 201.1 193.27 203.35 193.22 207.61 193.86 208.12 194.63 208.12 196.09 207.32 203.53 208.78 209.99 207.78 215.75 208.93 226.72 210.19 229.67 211.77 231.67 212.42 232.29 212.11 236 210.72 236.13 209.48 236.51 208.94 237.12 208.57 238.61 207.71 238.79 205.87 238.1 203.09 238.1 202.76 238.43 202.68 239.16 202.47 239.89 200.84 240.65 200.9 241.6 201.72 242.55 203.09 242.98 203.62 243.58 203.31 244.93 202.65 246.36 202.12 247.17 202.77 248.15 202.48 248.81 201.83 249.34 201.37 249.93 201.42 251.03 201.67 251.94 201.41 252.54 200.92 253.28 201.37 253.37 201.37 254.06 200.12 254.67 200.01 255.78 200.68 258.53 200.35 259.7 198.88 261.14 198.55 263.02 195.39 261.93 189.11 258.77 185.2 257.72 177.55 257.46 172.64 258.22 170.22 257.93 167.13 257.24 163.48 257.01 160.37 257.74 158.87 259.37 158.17 261.73 155.74 265.29 155.3 267.19 155.33 267.98 155.44 268.79 154.94 269.88 153.68 271.1 151.28 272.6 148.04 273.66 145.65 272.97 141.34 269.83 139.47 267.02 139.24 263.17 138.28 258.93 136.66 256.52 136.43 254.95 136.91 252.99 137.02 249.23 136.67 247.37 137.64 245.87 138.97 244.81 138.87 243.13 136.82 242.24 135.14 240.71 133.67 239.81 131.99 239.97 129.8 238.1 129.95 238 130.94 236.74 133.04 230.2 133.18 228.99 131.9 224.42 132.23 218.7 131.42 215.91 129.56 213.59 126.62 211.14 125.33 209.4 122.64 203.61 119.72 200.97 119.15 200.06 119.15 198.83 119.67 197.94 120.3 197.11 121.57 193.76 123.27 193.05 129.73 193.36 130.87 193.05 131.58 192.16 131.35 191.28 129.22 190.11 128.52 189.16 128.99 187.65 130.47 185.87 132.3 184.25 133.83 183.23 134.8 183.06 135.75 183.24 136.71 183.29 137.81 182.71 139.72 180.54 141.28 178.1 142.99 174 144.04 172.16 145.72 170.62 146.55 170.2 149.25 169.51 150.17 168.96 151.71 167.24 152.94 166.81 154.01 166.43 155.54 165.46 156.88 164.3 157.41 163.36 156.62 162.82 155.34 162.73 154.76 162.3 156.12 160.73 156.44 160.44 156.8 160.34 157.16 160.44 157.54 160.72 158.03 161.42 Z" id="BFA-2802" data-name="Kossi"/>
<path d="M 263.53 306.26 263.84 307.45 264.59 308.31 266.28 309.39 266.78 310.48 266.97 310.77 267.39 310.83 268.67 310.67 269.04 310.77 269.55 312.04 269.49 313.03 269.21 314 269.04 315.21 268.82 315.9 267.87 317.7 267.66 318.66 269.72 321.1 271.45 322.38 272.45 323.56 272.35 324.97 268.41 329.74 267.94 330.62 266.87 330.59 265.69 330.22 264.9 330.11 263.09 332.02 264 333.8 266.47 335.11 269.38 335.62 275.44 335.52 278.29 336.56 279.49 339.37 279.4 339.92 285.22 348.54 287.04 350.67 287.66 350.95 288.01 351.69 288.63 353.83 289.1 360.39 290.52 361.9 293.37 364.05 301.51 369.09 303.28 371.02 303.32 373.23 301.93 374.77 300.18 375.65 297.58 376.08 295.68 378.01 293.33 379.85 289.74 379.76 286.7 379.36 284.01 378.69 281.31 379.72 278.86 382.1 277.32 384.05 275.56 387.96 275.15 388.92 273.15 388.24 268.72 388.14 267.67 387.19 268.6 385.03 269.66 383.44 271.16 381.19 271.37 380 271.16 376.71 271.38 375.58 272.32 373.68 272.54 372.58 272.71 369.09 272.54 368.05 272.04 367.1 270.76 365.51 270.47 364.66 272.15 363.12 272.54 362.6 272.69 361.64 272.62 360.11 270.65 358.68 269.25 357.9 268.1 357.93 267.64 358.9 266.92 359.6 265.58 359.21 263.91 358.08 262.49 357.68 261.14 358.17 259.25 358.6 257.36 357.95 255.48 356.27 252.82 354.83 250.36 354.58 248.94 354.97 247.77 355.65 244.49 358.33 242.21 359.66 239.84 360.35 237.57 361.59 235.54 363.71 233.78 364.3 232.18 363.49 230.08 365.24 227.46 366.13 225.38 364.08 224.68 361.77 224.75 358.07 224.16 357.38 222.23 356.8 219.9 356.47 218.4 355.52 217.06 354.03 213.78 353.17 213.05 351.92 215.23 346.13 215.89 344.81 215.45 344.04 213.66 343.1 210.39 341.83 204.13 340.7 200.43 338.94 196.2 336.12 195.97 334.78 195.12 333.06 193.97 332.2 193.61 331 195.11 328.05 195.39 325.77 196.33 324.14 197.57 322.9 199.24 322.1 202.15 321.73 204.08 320.47 205.46 319.24 206.29 317.5 205.76 315.11 205.98 313.95 214.39 312.56 216.86 312.75 217.77 313.21 219.39 312.81 225.21 315.78 226.06 318.37 226.02 321.24 227.97 322.95 230.8 323.32 232.85 321.82 235.65 321.02 241.74 324.2 244.18 323.87 245.94 322.72 245.74 320.78 244.89 317.86 243.01 316.15 239.28 315.85 237.13 314.72 236.05 312.5 233.58 310.45 232.34 308.65 232.56 303.42 234.31 302.09 237.25 301.55 242.42 304.12 245.4 303.62 248.21 302.66 249.39 302.75 249.71 304.46 251.05 306.42 252.11 307.17 253.29 307.84 256.81 308.67 260.43 308.34 262.37 307.26 263.53 306.26 Z" id="BFA-2803" data-name="Balé"/>
<path d="M 271.47 274.61 271.88 275.43 271.79 277.4 268.61 279.16 267.35 281.24 266.77 283.62 267.31 285.45 271.12 288.43 272.47 290.08 273.17 292.74 273.21 294.27 273.89 296.48 275 298.46 276.33 300 276.3 300.62 275.5 303.08 275.3 304.13 274.77 305.12 273.61 304.93 268.01 301.58 265.85 301.14 264.9 302.75 264.69 303.31 263.74 305.13 263.53 306.26 262.37 307.26 260.43 308.34 256.81 308.67 253.29 307.84 252.11 307.17 251.05 306.42 249.71 304.46 249.39 302.75 248.21 302.66 245.4 303.62 242.42 304.12 237.25 301.55 234.31 302.09 232.56 303.42 232.34 308.65 233.58 310.45 236.05 312.5 237.13 314.72 239.28 315.85 243.01 316.15 244.89 317.86 245.74 320.78 245.94 322.72 244.18 323.87 241.74 324.2 235.65 321.02 232.85 321.82 230.8 323.32 227.97 322.95 226.02 321.24 226.06 318.37 225.21 315.78 219.39 312.81 217.77 313.21 216.86 312.75 214.39 312.56 205.98 313.95 205.76 315.11 206.29 317.5 205.46 319.24 204.08 320.47 202.15 321.73 199.24 322.1 197.57 322.9 196.33 324.14 195.39 325.77 195.11 328.05 193.61 331 193.97 332.2 195.12 333.06 195.97 334.78 196.2 336.12 195.2 336.3 188.89 336.62 187.01 337.08 184.9 338.09 183 339.39 181.54 339.99 179.66 339.85 177.44 339.47 175.96 338.66 174.5 337.61 172.62 336.51 170.41 335.52 168.7 335.07 167.44 334.54 167.03 333.33 167.31 331.94 166.86 331.04 165.02 330.21 163.4 329.06 163.09 328.03 162.69 327.11 160.25 326.92 159.69 326.63 159.16 326.71 158.78 325.78 159.17 324.03 159.26 322.73 158.59 319.79 157.84 319.33 156.92 318.91 156.47 318.39 156.7 317.08 157.39 317.15 158.27 317.73 159.87 317.65 159.25 316.02 159.42 314.18 160.33 312.68 161.93 312.08 161.38 310.84 161.11 310.42 160.55 310.02 162.68 306.64 163.08 306.39 163.51 306.48 163.86 306.38 164.2 304.24 164.68 303.07 165.44 303.07 166.56 303.85 167.09 302.54 167.38 300.65 167.82 299.69 169.66 299.25 171.33 298.14 172.54 296.68 173.01 295.18 172.37 287.69 173.37 285.35 176.86 284.48 178.31 283.59 179.3 281.52 180.59 277.53 184.09 272.02 185.21 271.14 189.08 268.95 190.29 268.51 190.91 268.55 191.32 268.73 192.67 270.27 193.47 270.82 194.25 270.93 195.03 271.13 195.8 272.02 197.13 271.11 197.45 270.18 197.17 267.89 197.44 266.51 198.35 264.13 198.55 263.02 198.88 261.14 200.35 259.7 200.68 258.53 200.01 255.78 200.12 254.67 201.37 254.06 201.37 253.37 200.92 253.28 201.41 252.54 201.67 251.94 201.42 251.03 201.37 249.93 201.83 249.34 202.48 248.81 202.77 248.15 202.12 247.17 202.65 246.36 203.31 244.93 203.62 243.58 203.09 242.98 201.72 242.55 200.9 241.6 200.84 240.65 202.47 239.89 202.68 239.16 202.76 238.43 203.09 238.1 205.87 238.1 207.71 238.79 208.57 238.61 208.94 237.12 209.48 236.51 210.72 236.13 212.11 236 213.07 236.09 214.37 236.58 215.02 236.99 215.38 237.64 216.38 240.17 219.03 244.66 218.97 245.7 217.9 247.17 218.61 247.6 218.76 247.48 219.27 247.17 220.13 247.87 221.05 247.95 221.78 247.37 222.49 244.64 223.5 243.81 226.22 242.98 229.36 242.4 230.32 243.35 229.73 253.05 230.53 257.7 230.35 258.19 231.25 258.68 232.42 258.63 234.83 258.19 236.32 258.46 237.07 259.15 237.64 260.07 238.61 261.01 239.36 260.25 243.5 267.2 244.94 267.89 245.1 268.18 245.39 269.01 245.56 269.27 246.83 270.24 247.57 270.53 248.69 270.64 250.13 271.18 254.25 273.55 256.29 274.09 257.4 274.54 259.2 276.35 259.77 276.53 260.6 275.95 262.04 275.27 262.83 274.77 265.16 272.74 266.86 271.95 269.04 272.02 270.82 273.3 271.47 274.61 Z" id="BFA-2804" data-name="Mou Houn"/>
<path d="M 579.98 18.04 580.22 20.33 579.32 21.68 577.92 22.79 576.69 24.37 576.52 27.26 579.44 33.1 580.11 36.17 573.38 54.77 573.97 59.88 576.98 64.75 578.36 65.98 578.34 66.01 576.08 68.59 574.07 69.56 572.31 69.68 569.19 77.66 566.84 80.09 564.8 83.35 557.85 91.23 554.91 92.01 550.58 91 545.41 90.94 540.81 91.7 536.97 90.86 533 90.39 525.88 93.78 507.16 95.5 500.78 95.52 498.94 94.89 496.22 92.16 494.82 87.82 493.88 77.1 492.61 75.86 491 74.6 488.7 71.99 486.19 67.5 478.8 60.51 478.73 58.1 477.68 55.22 475.15 50.82 468.82 42.17 465.66 40.2 460.79 33.85 454.9 29.58 452.75 27.41 473.6 9.46 473.62 9.45 479 4.18 480.17 3.35 482.02 2.03 485.37 1.15 507.49 1.02 510.76 1 511.7 1.45 514.02 7.53 515.02 8.8 517.85 8.84 521.5 7.27 527.78 3.54 534.08 2.44 541.11 4.05 554.58 9.47 554.6 9.47 579.98 18.04 Z" id="BFA-2805" data-name="Oudalan"/>
<path d="M 500.78 95.52 501.68 97.05 502.4 100.59 501.71 105.08 500.37 109.04 497.64 111.61 494.46 112.77 493.2 112.84 491.59 112.92 486.29 117.84 472.04 124.91 459.04 127.81 451.86 131.34 449.4 130.95 441.78 133.97 436.58 134.03 432.07 134.74 427.7 135.91 423.51 136.24 423.11 135.64 420.12 134.49 414.92 133.33 409.39 130.9 405.61 126.77 404.33 121.91 403.16 119.72 394.99 123.89 390.9 124.32 386.82 127.49 381.76 137.21 378.13 133.8 374.92 130.15 369.3 120.18 369.04 116.19 369.89 112.2 369.99 110.51 363.94 107.29 355.39 101.2 352.24 99.55 347.68 93.81 352.63 91.63 353.5 90.94 353.89 89.88 355.75 65.11 356.55 62.44 359.58 61.12 364.41 60.91 372.69 61.54 379.78 61.18 386.82 59.88 421.78 37.8 426.07 35.82 445.33 31.2 449.18 29.6 452.73 27.42 452.75 27.41 454.9 29.58 460.79 33.85 465.66 40.2 468.82 42.17 475.15 50.82 477.68 55.22 478.73 58.1 478.8 60.51 486.19 67.5 488.7 71.99 491 74.6 492.61 75.86 493.88 77.1 494.82 87.82 496.22 92.16 498.94 94.89 500.78 95.52 Z" id="BFA-2806" data-name="Soum"/>
<path d="M 286.65 218.12 286.01 220.14 284.69 226.85 284.57 230.08 285.62 231.15 288.61 233.53 292 237.37 289.08 241.72 286.59 243.66 283.85 245.33 282.28 246.93 280.85 248.89 280.49 251.93 281.58 255.12 282.86 257.74 283.6 260.01 279.17 267.76 271.47 274.61 270.82 273.3 269.04 272.02 266.86 271.95 265.16 272.74 262.83 274.77 262.04 275.27 260.6 275.95 259.77 276.53 259.2 276.35 257.4 274.54 256.29 274.09 254.25 273.55 250.13 271.18 248.69 270.64 247.57 270.53 246.83 270.24 245.56 269.27 245.39 269.01 245.1 268.18 244.94 267.89 243.5 267.2 239.36 260.25 238.61 261.01 237.64 260.07 237.07 259.15 236.32 258.46 234.83 258.19 232.42 258.63 231.25 258.68 230.35 258.19 230.53 257.7 229.73 253.05 230.32 243.35 229.36 242.4 226.22 242.98 223.5 243.81 222.49 244.64 221.78 247.37 221.05 247.95 220.13 247.87 219.27 247.17 218.76 247.48 218.61 247.6 217.9 247.17 218.97 245.7 219.03 244.66 216.38 240.17 215.38 237.64 215.02 236.99 214.37 236.58 213.07 236.09 212.11 236 212.42 232.29 213.32 231.48 214.68 229.62 215.35 224.9 216.32 222.99 218.39 221.05 223.99 218.03 224.98 216.65 225.36 214.49 227.8 212.49 236.09 210.82 237.61 211.8 239.03 214.28 240.59 216.13 242.44 216.38 244.77 215.98 247.06 215.87 249.5 216.67 251.6 218.06 253.21 217.63 255.24 215.49 258.38 215.43 261.63 217.41 263.94 219.12 266.59 220.41 269.69 221.11 273.16 221.38 276 220.86 279.11 217.81 281.63 217.27 283.18 217.43 286.65 218.12 Z" id="BFA-2807" data-name="Nayala"/>
<path d="M 262.41 146.36 262.59 146.6 263.24 147.6 265.37 150.33 269.55 154.51 273.01 156.15 282.5 158.29 284.89 159.63 285.91 161.78 287.56 163.2 289.75 163.67 291.67 164.58 292.53 165.58 292.86 167.83 292.84 169.68 293.3 174.37 295.99 179.07 296.69 181.2 298.86 182.63 301.57 183.93 304.23 184.06 306.67 183.51 309.68 184.06 311.62 185.23 310.61 188.1 306.14 194.09 303.04 199.28 300.89 201.62 297.39 202.51 294.11 202.4 289.6 201.67 287.38 202.11 286.08 204.89 286.05 208.78 287.08 213.74 287.11 215.17 286.89 217.36 286.65 218.12 283.18 217.43 281.63 217.27 279.11 217.81 276 220.86 273.16 221.38 269.69 221.11 266.59 220.41 263.94 219.12 261.63 217.41 258.38 215.43 255.24 215.49 253.21 217.63 251.6 218.06 249.5 216.67 247.06 215.87 244.77 215.98 242.44 216.38 240.59 216.13 239.03 214.28 237.61 211.8 236.09 210.82 227.8 212.49 225.36 214.49 224.98 216.65 223.99 218.03 218.39 221.05 216.32 222.99 215.35 224.9 214.68 229.62 213.32 231.48 212.42 232.29 211.77 231.67 210.19 229.67 208.93 226.72 207.78 215.75 208.78 209.99 207.32 203.53 208.12 196.09 208.12 194.63 207.61 193.86 208.85 194.04 210.07 193.73 211.08 192.12 210.97 190.3 209.79 186.81 210.17 183.95 212.39 183.1 228.94 182.13 230.33 181.23 226.77 156.08 228.26 152.36 228.79 149.98 229.21 144.37 228.55 141.94 226.46 140.39 228.47 138.44 231.16 139.36 235.65 142.69 238.46 142.98 240.67 142.52 242.79 142.45 245.31 143.92 247.11 145.59 247.61 146.54 247.89 148.02 248.59 149.57 249.75 149.15 251.51 147.27 252.68 146.68 253.47 146.47 255.93 146.72 256.77 147.01 257.49 147.47 258.19 147.78 258.93 147.66 262.41 146.36 Z" id="BFA-2808" data-name="Sourou"/>
<path d="M 423.51 136.24 427.01 141.8 427.95 145.2 426.19 149.52 424.67 152.43 423.24 154.08 423.33 156.47 424.71 160.95 423.59 164.85 420.97 168.07 422.87 172.08 426.58 176.31 429.18 181.84 428.64 184.65 426.97 187.66 426.57 190.14 427.26 194.47 426.91 197.1 423.42 196.64 419.2 196.59 413.64 197.63 407.89 199.66 404.49 202.91 404.28 206.02 406.28 209.36 406.43 211.36 405.53 211.18 400.93 211.05 399.32 210.26 397.67 208.42 396.92 208.42 396.39 208.88 395.7 209.17 395.11 209.02 394.85 208.11 394.49 207.27 393.66 207.28 392.16 207.8 390.81 207.01 388.88 204.92 387.07 202.33 382.98 199.07 382.27 198.41 382.47 197.22 383.79 195.46 384.5 193.41 384.44 190.36 383.5 187.72 381.82 184.61 379.34 182.93 376.99 182.77 376.3 180.95 374.01 178.56 372.38 176.41 372.13 174.02 372.45 163.96 368.55 156.12 368.49 153.89 369.59 149.66 373.09 146.78 377.18 144.65 380.96 143.58 383.4 142 383.38 139.28 382.35 137.76 381.76 137.21 386.82 127.49 390.9 124.32 394.99 123.89 403.16 119.72 404.33 121.91 405.61 126.77 409.39 130.9 414.92 133.33 420.12 134.49 423.11 135.64 423.51 136.24 Z" id="BFA-2811" data-name="Bam"/>
<path d="M 362.19 243.31 362.68 243.77 363.59 244.82 363.61 246.91 364.06 248.98 366.58 249.94 370 250.84 373.47 252.4 375.78 255.2 376.77 258.73 377.44 263.89 376.21 265.48 372.16 267.17 369.17 267.71 366.86 266.32 364.15 265.14 361.44 264.96 357.7 265.08 355.65 266.69 354.3 268.96 352.96 271.96 351.88 275.85 349.61 279.26 348.42 281.6 350.33 283.5 353.59 284.58 357 283 360.96 280.08 364.61 278.04 368.44 277.18 372.42 276.92 374.34 277.06 375.2 277.96 374.86 279.97 374.94 281.86 376.71 283.64 377.17 285.48 377.08 287.52 376.65 289.15 375.54 290.49 373.24 292.27 370.5 295.09 369.33 296.99 366.91 297.18 364.1 298.82 362.63 300.45 360.44 301.29 359.88 303.92 358.62 307.27 354.97 310.12 353.46 311.66 352.04 313.45 351.8 313.97 349.73 315.41 346.41 317.16 337.58 320.3 333.62 320.92 332.09 320.73 330.71 321.5 330.39 320.36 331.46 317.79 332.02 315.14 328.9 315 324.6 317.06 321.35 317.79 319.07 316.55 314.65 312.59 311.46 312.17 308.79 311.23 307.72 307.72 307.69 305.55 308.53 305.01 310.54 303.31 312.72 300.7 310.86 298.19 308.28 295.93 309.74 294.06 313.81 291.87 316.3 288.91 316.34 282.66 314.86 271.43 314 270.4 313.49 268.6 314.37 266.74 317.62 266.4 321.08 264.73 323.39 262.13 330.09 257.84 332.47 254.08 333.84 249.85 332.67 247.96 330.34 249.56 329.07 251.61 327.88 251.98 326.58 250 325.43 247.55 324.96 246.25 326.23 245.5 326.99 245.14 328.8 243.88 331.96 242.81 338.35 241.25 341.34 241.16 347.44 241.82 349.22 241.11 350.44 240.21 355.34 240.24 357.56 241.32 359.06 243.84 360.97 244.15 362.19 243.31 Z" id="BFA-2812" data-name="Boulkiemdé"/>
<path d="M 397.02 243.73 396.43 244.86 395.54 247.11 395.18 249.44 394.49 251.8 392.28 252.97 390.71 253.01 387.67 253.48 385.66 254.14 384.41 254.81 384.21 256.49 388.08 269.67 388.44 271.48 385.48 272.67 379.27 274.44 375.19 276.45 374.34 277.06 372.42 276.92 368.44 277.18 364.61 278.04 360.96 280.08 357 283 353.59 284.58 350.33 283.5 348.42 281.6 349.61 279.26 351.88 275.85 352.96 271.96 354.3 268.96 355.65 266.69 357.7 265.08 361.44 264.96 364.15 265.14 366.86 266.32 369.17 267.71 372.16 267.17 376.21 265.48 377.44 263.89 376.77 258.73 375.78 255.2 373.47 252.4 370 250.84 366.58 249.94 364.06 248.98 363.61 246.91 363.59 244.82 362.68 243.77 362.19 243.31 361.3 241.89 359.9 238.62 360.18 234.87 362.24 231.23 370.28 223.88 383.33 220.77 385.98 223.11 387.07 223.51 388.47 223.64 390.09 224.39 390.48 226.67 390.17 229.67 391.08 235.39 391.7 237.22 392.86 238.17 396.16 238.89 396.97 240.62 397.02 243.73 Z" id="BFA-2813" data-name="Kourwéogo"/>
<path d="M 450.82 293.08 451.26 294.27 452.22 295.22 453.19 295.97 453.63 296.53 454.26 301.07 454.59 302.2 454.84 302.76 455.7 303.82 457.5 305.59 458.3 307.53 461.15 310.84 462.52 312.08 463.77 312.99 464.55 313.43 465.2 313.89 467.34 316.62 467.87 317.8 468.09 319.34 467.85 322.23 468.4 323.11 463.32 323.88 456.81 321.77 452.62 319.68 449.74 319.04 444.54 320.65 437.87 325.07 434.33 328.53 433.09 330.97 424.92 344 422.03 353.55 421.64 352.98 413.97 349.31 411.2 346.17 409.97 344.21 408.38 342.83 401.53 339.59 399.86 337.92 398 336.47 395.61 335.34 393.06 334.54 390.66 332.49 388.23 329.98 386.15 328.3 377.54 319.03 375.13 317.8 372.51 318.35 369.66 320.26 365.92 320.41 362.27 320.24 360.55 321.29 359.38 321.2 355.83 316.2 352.04 313.45 353.46 311.66 354.97 310.12 358.62 307.27 359.88 303.92 360.44 301.29 362.63 300.45 364.1 298.82 366.91 297.18 369.33 296.99 374.28 302.21 376.03 303.4 379.04 303.75 379.87 303.75 381.93 304.55 383.7 305.85 385.04 305.83 388.55 302.4 390.59 301.83 392.7 301.01 395.25 299.19 397.7 298.36 399.66 297.26 401.08 294.83 402.64 293.19 405.1 292.25 406.98 291.99 408.41 292.25 409.47 292.2 410.78 292.01 412.49 293.33 414.45 299.14 415.59 300.58 417.37 300.57 419.47 299.28 421.61 298.34 424.19 297.53 426.29 297.39 428.78 299.15 430.45 298.59 433.27 297.2 437.67 296.49 441.77 296.47 443.81 296.15 446.39 295.08 449.42 294.45 450.82 293.08 Z" id="BFA-2814" data-name="Bazéga"/>
<path d="M 447.24 285.41 447.31 287.23 447.98 288.31 448.74 288.69 449.5 288.85 450.13 289.3 450.65 290.2 450.84 290.95 450.82 293.08 449.42 294.45 446.39 295.08 443.81 296.15 441.77 296.47 437.67 296.49 433.27 297.2 430.45 298.59 428.78 299.15 426.29 297.39 424.19 297.53 421.61 298.34 419.47 299.28 417.37 300.57 415.59 300.58 414.45 299.14 412.49 293.33 410.78 292.01 409.47 292.2 408.41 292.25 406.98 291.99 405.1 292.25 402.64 293.19 401.08 294.83 399.66 297.26 397.7 298.36 395.25 299.19 392.7 301.01 390.59 301.83 388.55 302.4 385.04 305.83 383.7 305.85 381.93 304.55 379.87 303.75 379.04 303.75 376.03 303.4 374.28 302.21 369.33 296.99 370.5 295.09 373.24 292.27 375.54 290.49 376.65 289.15 377.08 287.52 377.17 285.48 376.71 283.64 374.94 281.86 374.86 279.97 375.2 277.96 374.34 277.06 375.19 276.45 379.27 274.44 385.48 272.67 388.44 271.48 388.08 269.67 384.21 256.49 384.41 254.81 385.66 254.14 387.67 253.48 390.71 253.01 392.28 252.97 394.49 251.8 395.18 249.44 395.54 247.11 396.43 244.86 397.02 243.73 398 244.47 399.61 246.34 400.95 248.73 401.03 250.81 399.96 252.72 399.55 255.17 400.13 257.2 401.82 257.59 404.55 256.76 406.87 255.31 408.32 254.58 410.05 256.71 411.33 257.94 411.73 259.86 411.11 261.4 409.31 264.06 409.02 264.61 409.49 265.25 417.2 264.78 419.21 264.04 421.39 261.97 422.95 261.37 424.25 261.04 425.38 261.52 429.83 262.55 431.19 264.72 432.04 267.49 431.9 270.09 430.06 274.41 429.81 276.26 429.88 277.87 431.22 278.1 434.07 279.58 436.49 282.48 437.93 282.67 444.65 285.99 447.24 285.41 Z" id="BFA-2815" data-name="Kadiogo"/>
<path d="M 401.38 220.43 403.04 221.31 405.7 223.08 408.12 224.35 410.75 224.18 414.33 224.33 417.79 225.06 419.57 225.08 420.71 226.57 421.98 228.57 425.13 229.63 430.21 230.84 435.17 233.2 439.78 236.65 441.92 240.22 441.8 241.29 442.14 241.6 442.89 241.83 443.62 242.38 443.93 243.67 443.32 244.62 442.2 245.64 441.6 246.72 442.55 247.86 443.77 248.03 444.38 247.16 444.59 245.85 444.62 244.73 444.96 244.16 445.77 243.72 446.77 243.61 447.69 244.04 447.9 244.55 449.68 244.66 454.04 244.47 458.42 246.74 465.11 254.94 470.24 258.07 473.24 258.74 473.26 260.63 472.29 262.86 469.42 264.21 466.15 264.6 463.09 262.63 459.2 258.73 455.85 258.84 453.45 261.98 451.4 262.45 449.04 262.77 450.33 263.64 451.04 266.45 450.08 269.8 448.06 273.4 447.69 273.54 447.09 273.56 446.44 273.67 445.93 274.09 445.83 274.55 445.96 275.71 445.93 276.21 445.39 278.29 445.5 279.21 446.31 279.59 447.34 280.58 447.45 282.85 447.27 285.11 447.24 285.41 444.65 285.99 437.93 282.67 436.49 282.48 434.07 279.58 431.22 278.1 429.88 277.87 429.81 276.26 430.06 274.41 431.9 270.09 432.04 267.49 431.19 264.72 429.83 262.55 425.38 261.52 424.25 261.04 422.95 261.37 421.39 261.97 419.21 264.04 417.2 264.78 409.49 265.25 409.02 264.61 409.31 264.06 411.11 261.4 411.73 259.86 411.33 257.94 410.05 256.71 408.32 254.58 406.87 255.31 404.55 256.76 401.82 257.59 400.13 257.2 399.55 255.17 399.96 252.72 401.03 250.81 400.95 248.73 399.61 246.34 398 244.47 397.02 243.73 396.97 240.62 396.16 238.89 392.86 238.17 391.7 237.22 391.08 235.39 390.17 229.67 390.48 226.67 390.09 224.39 388.47 223.64 387.07 223.51 385.98 223.11 383.33 220.77 390.07 218.05 393.87 218.3 398.01 220.3 400.74 220.85 401.38 220.43 Z" id="BFA-2816" data-name="Oubritenga"/>
<path d="M 382.27 198.41 382.98 199.07 387.07 202.33 388.88 204.92 390.81 207.01 392.16 207.8 393.66 207.28 394.49 207.27 394.85 208.11 395.11 209.02 395.7 209.17 396.39 208.88 396.92 208.42 397.67 208.42 399.32 210.26 400.93 211.05 405.53 211.18 406.43 211.36 403.57 215.87 402.37 219.73 401.38 220.43 400.74 220.85 398.01 220.3 393.87 218.3 390.07 218.05 383.33 220.77 370.28 223.88 362.24 231.23 360.18 234.87 359.9 238.62 361.3 241.89 362.19 243.31 360.97 244.15 359.06 243.84 357.56 241.32 355.34 240.24 350.44 240.21 349.22 241.11 347.44 241.82 341.34 241.16 338.35 241.25 331.96 242.81 328.8 243.88 326.99 245.14 326.23 245.5 324.96 246.25 324.42 246.16 319.66 247.73 317.94 248.08 315.39 248.86 312.16 249.52 310.8 249.26 310.11 247.61 311.52 244.96 314.03 242.87 314.79 241.35 312.54 240.68 308.19 240.95 305.16 240.55 304.72 238.35 305.69 235.81 307.19 233.51 306.71 230.98 304.78 229.6 303.47 229.5 302.3 229.75 300.26 231.33 298.88 232.61 295.94 234.87 292 237.37 288.61 233.53 285.62 231.15 284.57 230.08 284.69 226.85 286.01 220.14 286.65 218.12 286.89 217.36 287.11 215.17 287.08 213.74 289.23 214.24 293.91 214.6 299.27 214.46 303.01 214.97 306.54 214.66 311.27 213.77 314.13 212.93 318.95 207.81 322.88 205.55 332.4 201.55 335.93 202.35 340.02 204.09 343.24 204.27 345.87 205.63 347.15 207.8 348.41 207.51 354.42 207.8 355.73 206.88 356.96 205.04 358.31 203.61 359.93 203.95 361.74 204.58 364.13 204.08 365.84 199.66 366.84 197.96 369.33 196.49 371.7 197.83 373.45 200.88 378.66 200.26 382.27 198.41 Z" id="BFA-2817" data-name="Passoré"/>
<path d="M 343.24 204.27 340.02 204.09 335.93 202.35 332.4 201.55 322.88 205.55 318.95 207.81 314.13 212.93 311.27 213.77 306.54 214.66 303.01 214.97 299.27 214.46 293.91 214.6 289.23 214.24 287.08 213.74 286.05 208.78 286.08 204.89 287.38 202.11 289.6 201.67 294.11 202.4 297.39 202.51 300.89 201.62 303.04 199.28 306.14 194.09 310.61 188.1 311.62 185.23 309.68 184.06 306.67 183.51 304.23 184.06 301.57 183.93 298.86 182.63 296.69 181.2 297.61 180.65 301.45 179.85 304.08 178.96 306.5 177.75 308.49 175.96 309.28 175.08 310.02 174.08 311.91 172.87 315.84 171.59 316.93 172.49 318.26 173.83 323.57 174.18 332.42 177.2 335.42 177.61 338.16 177.64 339.98 178.25 345.03 176.23 347.2 176.86 347.89 178.17 347.95 179.82 348.36 181.69 349.55 184.24 346.86 187.99 345.78 191.15 345.84 192.05 346.39 193.43 346.53 194.28 346.29 195.13 345.72 195.41 345.02 195.57 344.4 196.03 343.81 198.29 343.71 198.44 343.42 198.69 342.05 199.28 341.65 199.53 341.19 202.6 343.24 204.27 Z" id="BFA-2818" data-name="Zondoma"/>
<path d="M 324.96 246.25 325.43 247.55 326.58 250 327.88 251.98 329.07 251.61 330.34 249.56 332.67 247.96 333.84 249.85 332.47 254.08 330.09 257.84 323.39 262.13 321.08 264.73 317.62 266.4 314.37 266.74 313.49 268.6 314 270.4 314.86 271.43 316.34 282.66 316.3 288.91 313.81 291.87 309.74 294.06 308.28 295.93 310.86 298.19 312.72 300.7 310.54 303.31 308.53 305.01 307.69 305.55 307.72 307.72 308.79 311.23 311.46 312.17 314.65 312.59 319.07 316.55 321.35 317.79 324.6 317.06 328.9 315 332.02 315.14 331.46 317.79 330.39 320.36 330.71 321.5 328.09 321.96 321 324.02 317.74 324.41 314.06 325.56 304.65 330.83 302.16 332.72 300.31 335.7 298.57 339.27 297.6 343.33 297.55 348.36 296.4 350.76 289.85 350.64 287.66 350.95 287.04 350.67 285.22 348.54 279.4 339.92 279.49 339.37 278.29 336.56 275.44 335.52 269.38 335.62 266.47 335.11 264 333.8 263.09 332.02 264.9 330.11 265.69 330.22 266.87 330.59 267.94 330.62 268.41 329.74 272.35 324.97 272.45 323.56 271.45 322.38 269.72 321.1 267.66 318.66 267.87 317.7 268.82 315.9 269.04 315.21 269.21 314 269.49 313.03 269.55 312.04 269.04 310.77 268.67 310.67 267.39 310.83 266.97 310.77 266.78 310.48 266.28 309.39 264.59 308.31 263.84 307.45 263.53 306.26 263.74 305.13 264.69 303.31 264.9 302.75 265.85 301.14 268.01 301.58 273.61 304.93 274.77 305.12 275.3 304.13 275.5 303.08 276.3 300.62 276.33 300 275 298.46 273.89 296.48 273.21 294.27 273.17 292.74 272.47 290.08 271.12 288.43 267.31 285.45 266.77 283.62 267.35 281.24 268.61 279.16 271.79 277.4 271.88 275.43 271.47 274.61 279.17 267.76 283.6 260.01 282.86 257.74 281.58 255.12 280.49 251.93 280.85 248.89 282.28 246.93 283.85 245.33 286.59 243.66 289.08 241.72 292 237.37 295.94 234.87 298.88 232.61 300.26 231.33 302.3 229.75 303.47 229.5 304.78 229.6 306.71 230.98 307.19 233.51 305.69 235.81 304.72 238.35 305.16 240.55 308.19 240.95 312.54 240.68 314.79 241.35 314.03 242.87 311.52 244.96 310.11 247.61 310.8 249.26 312.16 249.52 315.39 248.86 317.94 248.08 319.66 247.73 324.42 246.16 324.96 246.25 Z" id="BFA-2819" data-name="Sanguié"/>
<path d="M 397.79 379.95 397.69 380.98 397.71 385.11 396.66 386.65 395.65 389.34 395.08 391.93 393.66 393.74 392.05 396.24 392.7 398.23 395.29 399.34 397.22 400.9 398.86 401.86 400.25 402.41 401.67 403.19 406 404.8 409.81 404.6 410.35 405.62 410.63 407.18 412.25 408.07 414.25 407.69 415.37 409.7 415.39 411.04 414.38 410.65 413.13 410.17 400.38 409.78 398.63 410.32 397.9 412.09 396.72 412.75 381.05 412.9 358.99 413.11 336.3 413.34 311.9 413.57 292.22 413.77 282.75 413.86 282.75 413.86 282.79 412.81 282.89 411.68 283.37 409.98 284.24 408.4 285.62 407.43 289.04 407.37 290.36 406.86 291.08 405.38 291.69 403.49 292.05 401.33 290.88 399.14 288.95 397.32 284.2 393.86 282.28 393.66 280.08 397.36 278.84 397.95 277.68 398.67 276.67 398.47 276.77 396.42 275.98 390.52 275.15 388.92 275.56 387.96 277.32 384.05 278.86 382.1 281.31 379.72 284.01 378.69 286.7 379.36 289.74 379.76 293.33 379.85 295.68 378.01 297.58 376.08 300.18 375.65 301.93 374.77 303.32 373.23 303.28 371.02 301.51 369.09 293.37 364.05 290.52 361.9 289.1 360.39 288.63 353.83 288.01 351.69 287.66 350.95 289.85 350.64 296.4 350.76 297.55 348.36 297.6 343.33 298.57 339.27 300.31 335.7 302.16 332.72 304.65 330.83 314.06 325.56 317.74 324.41 321 324.02 328.09 321.96 330.71 321.5 332.09 320.73 332.92 324.05 333.53 329.34 333.01 330.61 332.89 332.34 333.87 334.73 334.03 337.04 333.75 339.22 331.62 340.28 327.38 340.19 323.66 339.5 321.96 339.8 320.96 351.6 321.08 354.7 322.41 357.47 324.89 359.47 327.42 360.38 332.36 360.15 334.99 360.41 337.03 361.61 338.92 363.26 340.07 364.48 340.15 364.95 340.23 366.32 340.87 369.11 342.43 371.99 344.39 374.49 346.46 376.27 348.44 377.5 350.77 378.35 352 379.98 352.44 381.78 354.11 382.83 356.13 383.4 357.77 383.55 358.79 382.93 360 380.54 361.44 378.84 364.49 376.28 369.29 377.54 370.12 378.46 370.54 380.13 371.56 381.44 373.28 383.13 375.87 383.41 377.7 382.55 379.34 381.57 382.17 379.37 384.19 376.88 386.89 375.46 388.74 375.3 390.29 375.31 392.94 375.85 394.05 377.24 394.55 378.35 397.79 379.95 Z" id="BFA-2820" data-name="Sissili"/>
<path d="M 422.03 353.55 425.46 358.52 421.66 362.35 419.79 364.62 418.44 365.87 416.84 367.01 414.76 368.08 412.45 368.95 409.72 370.92 405.38 375.88 403.17 376.75 401.6 376.48 399.95 377.22 397.79 379.95 394.55 378.35 394.05 377.24 392.94 375.85 390.29 375.31 388.74 375.3 386.89 375.46 384.19 376.88 382.17 379.37 379.34 381.57 377.7 382.55 375.87 383.41 373.28 383.13 371.56 381.44 370.54 380.13 370.12 378.46 369.29 377.54 364.49 376.28 361.44 378.84 360 380.54 358.79 382.93 357.77 383.55 356.13 383.4 354.11 382.83 352.44 381.78 352 379.98 350.77 378.35 348.44 377.5 346.46 376.27 344.39 374.49 342.43 371.99 340.87 369.11 340.23 366.32 340.15 364.95 340.07 364.48 338.92 363.26 337.03 361.61 334.99 360.41 332.36 360.15 327.42 360.38 324.89 359.47 322.41 357.47 321.08 354.7 320.96 351.6 321.96 339.8 323.66 339.5 327.38 340.19 331.62 340.28 333.75 339.22 334.03 337.04 333.87 334.73 332.89 332.34 333.01 330.61 333.53 329.34 332.92 324.05 332.09 320.73 333.62 320.92 337.58 320.3 346.41 317.16 349.73 315.41 351.8 313.97 352.04 313.45 355.83 316.2 359.38 321.2 360.55 321.29 362.27 320.24 365.92 320.41 369.66 320.26 372.51 318.35 375.13 317.8 377.54 319.03 386.15 328.3 388.23 329.98 390.66 332.49 393.06 334.54 395.61 335.34 398 336.47 399.86 337.92 401.53 339.59 408.38 342.83 409.97 344.21 411.2 346.17 413.97 349.31 421.64 352.98 422.03 353.55 Z" id="BFA-2821" data-name="Ziro"/>
<path d="M 347.68 93.81 352.24 99.55 355.39 101.2 363.94 107.29 369.99 110.51 369.89 112.2 369.04 116.19 369.3 120.18 374.92 130.15 378.13 133.8 381.76 137.21 382.35 137.76 383.38 139.28 383.4 142 380.96 143.58 377.18 144.65 373.09 146.78 369.59 149.66 368.49 153.89 368.55 156.12 364.23 157.17 361.05 157.45 355.8 158.62 353.38 158.03 350.43 157.74 346.74 157.99 344.59 157.51 341.27 144.27 338.19 135.47 337.44 134.38 335.34 130.05 335.47 126.71 336.22 123.54 334.31 121.77 331.25 120.85 329.55 118.36 328.93 112.95 327.35 112.19 324.98 111.45 320.62 107.12 317.28 105.59 313.92 105.52 311.48 106.91 309.71 108.53 308.72 110.08 307.28 110.41 305.51 109.87 303.94 110.48 302.67 111.53 301.18 111.51 298.92 110.81 297.96 109.98 298.09 107.86 297.1 105.26 293.48 100.54 288.05 95.62 293.75 89.38 296.01 87.49 304.2 82.89 309.69 81.58 317.36 83.21 340.93 94.16 344.17 94.9 345.73 94.66 347.68 93.81 Z" id="BFA-2822" data-name="Loroum"/>
<path d="M 368.55 156.12 372.45 163.96 372.13 174.02 372.38 176.41 374.01 178.56 376.3 180.95 376.99 182.77 379.34 182.93 381.82 184.61 383.5 187.72 384.44 190.36 384.5 193.41 383.79 195.46 382.47 197.22 382.27 198.41 378.66 200.26 373.45 200.88 371.7 197.83 369.33 196.49 366.84 197.96 365.84 199.66 364.13 204.08 361.74 204.58 359.93 203.95 358.31 203.61 356.96 205.04 355.73 206.88 354.42 207.8 348.41 207.51 347.15 207.8 345.87 205.63 343.24 204.27 341.19 202.6 341.65 199.53 342.05 199.28 343.42 198.69 343.71 198.44 343.81 198.29 344.4 196.03 345.02 195.57 345.72 195.41 346.29 195.13 346.53 194.28 346.39 193.43 345.84 192.05 345.78 191.15 346.86 187.99 349.55 184.24 348.36 181.69 347.95 179.82 347.89 178.17 347.2 176.86 345.03 176.23 339.98 178.25 338.16 177.64 335.42 177.61 332.42 177.2 323.57 174.18 318.26 173.83 316.93 172.49 315.84 171.59 311.91 172.87 310.02 174.08 309.28 175.08 308.49 175.96 306.5 177.75 304.08 178.96 301.45 179.85 297.61 180.65 296.69 181.2 295.99 179.07 293.3 174.37 292.84 169.68 292.86 167.83 292.53 165.58 291.67 164.58 289.75 163.67 287.56 163.2 285.91 161.78 284.89 159.63 282.5 158.29 273.01 156.15 269.55 154.51 265.37 150.33 263.24 147.6 262.59 146.6 262.41 146.36 265.97 145.04 263.13 135.52 262.66 130.12 264.26 126.25 266.04 123.36 269.99 110.29 269.82 110.13 269.66 109.89 269.36 109.73 268.79 109.85 271.45 105.57 286.34 97.48 288.05 95.62 293.48 100.54 297.1 105.26 298.09 107.86 297.96 109.98 298.92 110.81 301.18 111.51 302.67 111.53 303.94 110.48 305.51 109.87 307.28 110.41 308.72 110.08 309.71 108.53 311.48 106.91 313.92 105.52 317.28 105.59 320.62 107.12 324.98 111.45 327.35 112.19 328.93 112.95 329.55 118.36 331.25 120.85 334.31 121.77 336.22 123.54 335.47 126.71 335.34 130.05 337.44 134.38 338.19 135.47 341.27 144.27 344.59 157.51 346.74 157.99 350.43 157.74 353.38 158.03 355.8 158.62 361.05 157.45 364.23 157.17 368.55 156.12 Z" id="BFA-2823" data-name="Yatenga"/>
<path d="M 535.13 160.68 535.56 161.5 534.75 163.19 531.12 165.31 528.25 168.83 528.67 172.19 530.1 174.78 529.68 178.83 527.26 183.84 526.3 187.75 527.51 191.49 526.64 194.32 523.8 198.09 521.6 202.87 521.04 211.68 521.79 214.34 523.49 217.64 524.02 219.39 525.45 222.8 527.22 225.41 529.49 226.91 533.97 229.33 537.9 232.15 535.54 240.08 536.04 241.51 536.78 243.14 538.05 246.81 538.12 250.68 537.03 255.08 518.71 264.32 513.82 264.54 497.14 260.69 496.06 260.6 495.78 258.84 495.83 251.6 493.91 246.58 491.32 243.56 490.12 243.4 489.81 237.12 487.25 231.82 482.65 226.82 478.91 220.98 476.66 215.49 476.12 212.59 476.74 211.28 478.33 210.73 485.22 214.78 488.04 214.16 489.24 212.22 489.79 208.49 489.09 202.47 489.74 196.21 491.78 190.44 492.4 185.07 491.32 179.52 489.77 174.36 488.53 167.36 486.64 165.7 484.96 162.75 482.45 151.8 482.29 146.05 483.54 142.8 485.88 141.08 488.08 140.28 490.11 136.9 491.18 130.27 490.67 124.84 491.73 121.51 496.6 117.71 498.39 118.28 502.31 120.09 505.15 122.2 510.91 128.3 512.39 131.56 513.11 136.19 515.36 139.62 518.09 141.83 520.81 145.07 524.8 147.13 531.43 147.45 535.8 148.58 535.52 151.39 533.74 154.14 533.21 157.14 535.13 160.68 Z" id="BFA-2824" data-name="Namentenga"/>
<path d="M 496.6 117.71 491.73 121.51 490.67 124.84 491.18 130.27 490.11 136.9 488.08 140.28 485.88 141.08 483.54 142.8 482.29 146.05 482.45 151.8 484.96 162.75 486.64 165.7 488.53 167.36 489.77 174.36 491.32 179.52 492.4 185.07 491.78 190.44 489.74 196.21 489.09 202.47 489.79 208.49 489.24 212.22 488.04 214.16 485.22 214.78 478.33 210.73 476.74 211.28 476.12 212.59 476.66 215.49 478.91 220.98 482.65 226.82 487.25 231.82 489.81 237.12 490.12 243.4 487.68 243.09 483.79 243.57 482.31 246 482.85 249.49 482.9 251.85 479.62 254.82 475.66 257.43 473.24 258.74 470.24 258.07 465.11 254.94 458.42 246.74 454.04 244.47 449.68 244.66 447.9 244.55 447.69 244.04 446.77 243.61 445.77 243.72 444.96 244.16 444.62 244.73 444.59 245.85 444.38 247.16 443.77 248.03 442.55 247.86 441.6 246.72 442.2 245.64 443.32 244.62 443.93 243.67 443.62 242.38 442.89 241.83 442.14 241.6 441.8 241.29 441.92 240.22 439.78 236.65 435.17 233.2 430.21 230.84 425.13 229.63 421.98 228.57 420.71 226.57 419.57 225.08 417.79 225.06 414.33 224.33 410.75 224.18 408.12 224.35 405.7 223.08 403.04 221.31 401.38 220.43 402.37 219.73 403.57 215.87 406.43 211.36 406.28 209.36 404.28 206.02 404.49 202.91 407.89 199.66 413.64 197.63 419.2 196.59 423.42 196.64 426.91 197.1 427.26 194.47 426.57 190.14 426.97 187.66 428.64 184.65 429.18 181.84 426.58 176.31 422.87 172.08 420.97 168.07 423.59 164.85 424.71 160.95 423.33 156.47 423.24 154.08 424.67 152.43 426.19 149.52 427.95 145.2 427.01 141.8 423.51 136.24 427.7 135.91 432.07 134.74 436.58 134.03 441.78 133.97 449.4 130.95 451.86 131.34 459.04 127.81 472.04 124.91 486.29 117.84 491.59 112.92 493.2 112.84 493.57 113.72 494.54 115.54 495.87 117.09 496.6 117.71 Z" id="BFA-2825" data-name="Sanmatenga"/>
<path d="M 511.11 312.87 511.24 313.92 511.27 316.5 510.53 318.95 511.54 322.07 514.64 326.13 519.5 329.65 529.85 332.15 532.45 332.45 535.87 327.03 544.92 319.78 546.3 319.25 546.82 319.38 548.22 319.73 550.39 320.67 551.41 324.08 554.72 326.32 559.44 327.29 561.9 331.27 562.82 335.27 562.96 336.82 563.05 337.82 562.8 339.37 561.52 339.93 559.83 339.96 555.78 339.47 554.09 340.28 550.76 343.1 548.83 347.01 547.01 348.72 545.57 350.35 543.22 355.34 544.04 357.53 545.74 359.76 545.25 361.29 544.6 362.66 544.58 364.23 544.15 367.7 542.93 369.13 541.98 370.53 542.58 372.09 542.3 373.68 541.04 375.15 541.22 377.29 542.45 378.3 544.17 378.4 546.1 378.91 547.78 378.62 549.48 377.88 551.41 377.47 554.28 377.31 557.05 378.31 558.51 379.91 558.43 381.36 557.36 382.81 556.32 383.89 554.87 385.07 553.83 386.46 553.35 387.94 552.6 389.52 551.5 390.71 549.79 391.21 548.91 392.14 548.88 393.62 547.52 396.33 546.56 399.1 546.35 399.88 546.35 399.89 541.2 398.85 527.53 396.03 527.25 397.65 527.64 398.6 527.87 399.51 527.08 401.01 525.8 402.24 520.74 405.88 518.93 403.74 517.02 402.23 515.07 402.23 513.14 404.65 512.67 406.12 512.44 408.4 511.89 409.47 510.7 410.43 508.05 411.67 507.1 412.83 507.1 412.84 506.85 413.1 506.55 413.32 506.22 413.49 505.87 413.6 501.94 413.47 499.84 413.69 498.39 414.23 497.46 415.91 496.72 418.39 495.7 420.66 493.94 421.74 489.09 417.14 489.4 416.43 490.15 415.63 490.58 414.83 489.99 414.12 489.05 414.04 488.34 414.29 487.9 414.2 487.76 413.06 487.05 413.05 487.05 413.04 486.77 409.76 487.78 407.99 488.3 406.45 487.66 404.51 485.81 403.01 484.17 401.27 482.96 398.77 480.65 395.16 479.6 392.64 480.34 391.99 481.77 390.14 482.58 387.04 483.79 384.9 486.54 383.54 490.11 380.57 493.95 378.27 496.79 375.54 499.73 374.37 502.75 375.45 502.85 373.63 502.61 370.87 504.22 367.25 502.38 364.23 501.27 363.22 497.79 361.66 496.76 360.81 494.83 359.9 487.12 358.06 485.32 358.35 485.12 358.24 482.77 359.9 478.27 357.36 473.57 355.58 470.43 353.4 464.77 344.94 466.15 341.08 468.98 337.43 471.51 335.97 477.42 327.98 482.56 327.59 487.9 325.99 491.84 322.14 493.56 319.3 495.6 316.58 497.77 314.3 500.7 313.2 506.28 312.64 510.28 312.93 511.11 312.87 Z" id="BFA-2826" data-name="Boulgou"/>
<path d="M 611.34 345.93 610.7 352.79 611.18 355.44 611.57 362.43 612.31 364.83 614.45 368.61 615.55 371.65 616.06 373.71 614.98 376.42 612.44 378.11 611.83 380.05 612.8 384.4 613.76 385.93 614.25 387.72 613.73 389.36 613.87 390.36 613.87 391.49 610.11 395.72 608.9 397.56 608.32 400.16 608.15 402.96 607.18 404.32 605.43 403.83 603.8 401.95 602.66 400.29 601.29 399.68 599.87 401.03 596.03 409.04 595.75 409.86 586.95 408.08 563.96 403.44 551.59 400.95 546.35 399.89 546.35 399.88 546.56 399.1 547.52 396.33 548.88 393.62 548.91 392.14 549.79 391.21 551.5 390.71 552.6 389.52 553.35 387.94 553.83 386.46 554.87 385.07 556.32 383.89 557.36 382.81 558.43 381.36 558.51 379.91 557.05 378.31 554.28 377.31 551.41 377.47 549.48 377.88 547.78 378.62 546.1 378.91 544.17 378.4 542.45 378.3 541.22 377.29 541.04 375.15 542.3 373.68 542.58 372.09 541.98 370.53 542.93 369.13 544.15 367.7 544.58 364.23 544.6 362.66 545.25 361.29 545.74 359.76 544.04 357.53 543.22 355.34 545.57 350.35 547.01 348.72 548.83 347.01 550.76 343.1 554.09 340.28 555.78 339.47 559.83 339.96 561.52 339.93 562.8 339.37 563.05 337.82 562.96 336.82 563.81 337.02 565.36 337.1 566.19 336.4 566.66 333.74 568.23 333.27 573.7 334.29 575.42 334.14 577.27 335.67 580.51 337.16 586.78 336.9 589.79 337.89 600.9 345.41 603.09 345.78 611.34 345.93 Z" id="BFA-2827" data-name="Koulpélogo"/>
<path d="M 490.12 243.4 491.32 243.56 493.91 246.58 495.83 251.6 495.78 258.84 496.06 260.6 496.16 261.2 496.99 264.29 501.29 266.8 504.68 269.6 506.2 272.55 506.81 275.05 505.83 278.92 508.5 285.68 509.07 288.65 509.8 290.81 515.31 296.13 514.61 297.48 515.49 307.03 513.94 310.86 512.02 312.81 511.11 312.87 510.28 312.93 506.28 312.64 500.7 313.2 497.77 314.3 495.6 316.58 493.56 319.3 491.84 322.14 487.9 325.99 482.56 327.59 477.42 327.98 476.35 327.71 475.36 327 474.64 326.02 473.95 323.49 472.94 323.39 471.59 323.79 470.16 323.85 468.4 323.11 467.85 322.23 468.09 319.34 467.87 317.8 467.34 316.62 465.2 313.89 464.55 313.43 463.77 312.99 462.52 312.08 461.15 310.84 458.3 307.53 457.5 305.59 455.7 303.82 454.84 302.76 454.59 302.2 454.26 301.07 453.63 296.53 453.19 295.97 452.22 295.22 451.26 294.27 450.82 293.08 450.84 290.95 450.65 290.2 450.13 289.3 449.5 288.85 448.74 288.69 447.98 288.31 447.31 287.23 447.24 285.41 447.27 285.11 447.45 282.85 447.34 280.58 446.31 279.59 445.5 279.21 445.39 278.29 445.93 276.21 445.96 275.71 445.83 274.55 445.93 274.09 446.44 273.67 447.09 273.56 447.69 273.54 448.06 273.4 450.08 269.8 451.04 266.45 450.33 263.64 449.04 262.77 451.4 262.45 453.45 261.98 455.85 258.84 459.2 258.73 463.09 262.63 466.15 264.6 469.42 264.21 472.29 262.86 473.26 260.63 473.24 258.74 475.66 257.43 479.62 254.82 482.9 251.85 482.85 249.49 482.31 246 483.79 243.57 487.68 243.09 490.12 243.4 Z" id="BFA-2828" data-name="Ganzourgou"/>
<path d="M 549.42 288.34 550.86 290 554.13 292.35 556.41 294.97 560.74 299.02 561.04 301.73 558.88 302.3 555.97 303.71 552.68 304.73 549.63 306.71 547.32 311.03 546.87 314.65 547.26 317.63 546.82 319.38 546.3 319.25 544.92 319.78 535.87 327.03 532.45 332.45 529.85 332.15 519.5 329.65 514.64 326.13 511.54 322.07 510.53 318.95 511.27 316.5 511.24 313.92 511.11 312.87 512.02 312.81 513.94 310.86 515.49 307.03 514.61 297.48 515.31 296.13 509.8 290.81 509.07 288.65 508.5 285.68 505.83 278.92 506.81 275.05 506.2 272.55 504.68 269.6 501.29 266.8 496.99 264.29 496.16 261.2 496.06 260.6 497.14 260.69 513.82 264.54 518.71 264.32 537.03 255.08 534.29 263.49 535.37 267.57 539.45 269.84 543.31 272.48 543.13 275.94 540.05 279.93 539.44 284.09 542.6 286.34 549.42 288.34 Z" id="BFA-2829" data-name="Kouritenga"/>
<path d="M 479.6 392.64 480.65 395.16 482.96 398.77 484.17 401.27 485.81 403.01 487.66 404.51 488.3 406.45 487.78 407.99 486.77 409.76 487.05 413.04 487.05 413.05 475.56 412.84 475.56 412.82 475.04 412.09 474.47 411.87 473.88 412.11 473.3 412.82 471.14 413.17 468.88 415.62 467.13 415.86 467.8 414.49 466.75 414.53 466.23 414.2 465.53 412.84 464.76 412.31 463.91 412.15 450.01 411.06 447.15 411.49 446.26 413.03 434.1 412.91 421.27 412.79 418.74 412.33 415.39 411.04 415.37 409.7 414.25 407.69 412.25 408.07 410.63 407.18 410.35 405.62 409.81 404.6 406 404.8 401.67 403.19 400.25 402.41 398.86 401.86 397.22 400.9 395.29 399.34 392.7 398.23 392.05 396.24 393.66 393.74 395.08 391.93 395.65 389.34 396.66 386.65 397.71 385.11 397.69 380.98 397.79 379.95 399.95 377.22 401.6 376.48 403.17 376.75 405.38 375.88 409.72 370.92 412.45 368.95 414.76 368.08 416.84 367.01 418.44 365.87 419.79 364.62 421.66 362.35 425.46 358.52 426.65 359.14 428.44 361.7 429.51 364.46 432.24 365 435.56 364.93 437.58 367.55 439.33 370.49 441.26 371.79 444.46 372.53 446.96 374.05 450.49 377.98 452.74 379.37 455.69 378.45 458.68 379.08 459.85 381.21 459.85 383.96 461.26 384.7 463.35 386.05 465.17 388.88 466.76 390.01 469.31 392.8 475.39 395.63 478.08 394.64 479.6 392.64 Z" id="BFA-2830" data-name="Nahouri"/>
<path d="M 468.4 323.11 470.16 323.85 471.59 323.79 472.94 323.39 473.95 323.49 474.64 326.02 475.36 327 476.35 327.71 477.42 327.98 471.51 335.97 468.98 337.43 466.15 341.08 464.77 344.94 470.43 353.4 473.57 355.58 478.27 357.36 482.77 359.9 485.12 358.24 485.32 358.35 487.12 358.06 494.83 359.9 496.76 360.81 497.79 361.66 501.27 363.22 502.38 364.23 504.22 367.25 502.61 370.87 502.85 373.63 502.75 375.45 499.73 374.37 496.79 375.54 493.95 378.27 490.11 380.57 486.54 383.54 483.79 384.9 482.58 387.04 481.77 390.14 480.34 391.99 479.6 392.64 478.08 394.64 475.39 395.63 469.31 392.8 466.76 390.01 465.17 388.88 463.35 386.05 461.26 384.7 459.85 383.96 459.85 381.21 458.68 379.08 455.69 378.45 452.74 379.37 450.49 377.98 446.96 374.05 444.46 372.53 441.26 371.79 439.33 370.49 437.58 367.55 435.56 364.93 432.24 365 429.51 364.46 428.44 361.7 426.65 359.14 425.46 358.52 422.03 353.55 424.92 344 433.09 330.97 434.33 328.53 437.87 325.07 444.54 320.65 449.74 319.04 452.62 319.68 456.81 321.77 463.32 323.88 468.4 323.11 Z" id="BFA-2831" data-name="Zoundwéogo"/>
<path d="M 250.08 438.62 249.63 439.19 248.39 439.76 246.53 440.36 242.37 442.88 235.37 448.97 232.04 450.19 230.13 450.6 228.08 451.32 225.36 452.94 223.34 453.55 219.62 450.32 217.73 449.08 215.43 448.03 212.44 447.86 207.46 449.61 205.42 449.79 204.12 449.46 202.3 448.23 199.08 446.9 195.07 446.41 190.85 446.92 185.36 448.35 183.54 446.19 182.41 445.34 178.52 444.89 176.9 444.35 175.76 443.25 175.31 441.96 175.44 440.85 175.83 439.94 176.74 439.14 178.77 438.73 184.5 438.84 185.91 438.02 185.54 435.99 184.67 433.8 183.12 432.23 182.18 430.75 182.21 429.9 182.61 427.75 183.34 426.99 184.43 426.99 185.58 427.23 187.33 425.9 188.87 425.73 189.48 424.86 189.06 423.51 189.33 422.05 190.48 419.62 191.42 418.86 192 418.69 192.53 418.6 193.38 418.14 196.29 415.27 197.01 412.41 196.61 411.55 195.73 410.66 195.23 409.55 195.64 408.79 196.67 408.3 197.59 407.69 198.22 406.78 198.79 405.67 199.44 404.81 201.31 404.56 202.5 403.48 204.68 399.9 205.73 399.29 207.53 399.1 209.45 398 210.38 396.09 213.24 398 216.64 397.45 218.93 396.01 220.87 395.89 222.68 396.1 224.88 395.19 227.03 394.39 230.11 393.57 235.61 392.71 239.6 393.2 243.36 394.44 243.71 396.82 242.95 400.13 242.05 402.18 242.27 404.28 243.06 406.37 242.38 408.97 241.06 411.5 240.78 413.47 240.39 415.09 239.73 416.25 238.36 420.07 239.34 425 236.11 426.2 235.27 428.16 236.52 429.03 237.1 430.19 236.33 432.27 236.13 434.28 237.34 434.9 238.37 433.63 241.27 433.31 245.19 433.49 246.5 433.85 247.44 434.89 247.75 436.26 248.52 437.3 249.87 437.93 250.08 438.62 Z" id="BFA-2832" data-name="Bougouriba"/>
<path d="M 269.66 383.44 268.6 385.03 267.67 387.19 268.72 388.14 273.15 388.24 275.15 388.92 275.98 390.52 276.77 396.42 276.67 398.47 277.68 398.67 278.84 397.95 280.08 397.36 282.28 393.66 284.2 393.86 288.95 397.32 290.88 399.14 292.05 401.33 291.69 403.49 291.08 405.38 290.36 406.86 289.04 407.37 285.62 407.43 284.24 408.4 283.37 409.98 282.89 411.68 282.79 412.81 282.75 413.86 282.75 413.86 280.54 413.89 280.5 412.82 271.81 412.66 271.95 413.24 271.67 413.96 272.27 415.88 273.38 417.67 273.98 419.6 273.41 421.91 272.06 423.39 270.45 424.61 269.09 426.15 268.35 428.25 267.24 432.92 265.54 435.65 265.17 437.96 264.62 438.91 263.54 439.97 263.24 440.57 263.47 441.6 263.43 441.62 262.03 442.54 260.63 442.88 258.38 442.91 257.29 441.94 256.65 440.31 254.96 438.41 252.45 438.22 250.08 438.62 249.87 437.93 248.52 437.3 247.75 436.26 247.44 434.89 246.5 433.85 245.19 433.49 241.27 433.31 238.37 433.63 237.34 434.9 236.13 434.28 236.33 432.27 237.1 430.19 236.52 429.03 235.27 428.16 236.11 426.2 239.34 425 238.36 420.07 239.73 416.25 240.39 415.09 240.78 413.47 241.06 411.5 242.38 408.97 243.06 406.37 242.27 404.28 242.05 402.18 242.95 400.13 243.71 396.82 243.36 394.44 239.6 393.2 235.61 392.71 230.11 393.57 227.03 394.39 224.88 395.19 225.28 394.13 226.15 389.32 226.83 387.64 228.16 385.7 232.35 380.68 235.42 378.33 239.56 377.17 242.16 378.21 243.75 379.62 246.97 379.17 251.08 377.87 254.88 378.12 257.54 379.47 261.67 380.3 265.38 381.6 268.75 383.13 269.66 383.44 Z" id="BFA-2833" data-name="Ioba"/>
<path d="M 196.2 336.12 200.43 338.94 204.13 340.7 210.39 341.83 213.66 343.1 215.45 344.04 215.89 344.81 215.23 346.13 213.05 351.92 213.78 353.17 217.06 354.03 218.4 355.52 219.9 356.47 222.23 356.8 224.16 357.38 224.75 358.07 224.68 361.77 225.38 364.08 227.46 366.13 230.08 365.24 232.18 363.49 233.78 364.3 235.54 363.71 237.57 361.59 239.84 360.35 242.21 359.66 244.49 358.33 247.77 355.65 248.94 354.97 250.36 354.58 252.82 354.83 255.48 356.27 257.36 357.95 259.25 358.6 261.14 358.17 262.49 357.68 263.91 358.08 265.58 359.21 266.92 359.6 267.64 358.9 268.1 357.93 269.25 357.9 270.65 358.68 272.62 360.11 272.69 361.64 272.54 362.6 272.15 363.12 270.47 364.66 270.76 365.51 272.04 367.1 272.54 368.05 272.71 369.09 272.54 372.58 272.32 373.68 271.38 375.58 271.16 376.71 271.37 380 271.16 381.19 269.66 383.44 268.75 383.13 265.38 381.6 261.67 380.3 257.54 379.47 254.88 378.12 251.08 377.87 246.97 379.17 243.75 379.62 242.16 378.21 239.56 377.17 235.42 378.33 232.35 380.68 228.16 385.7 226.83 387.64 226.15 389.32 225.28 394.13 224.88 395.19 222.68 396.1 220.87 395.89 218.93 396.01 216.64 397.45 213.24 398 210.38 396.09 209.45 398 207.53 399.1 205.73 399.29 204.68 399.9 202.5 403.48 201.31 404.56 199.44 404.81 198.79 405.67 198.22 406.78 197.59 407.69 196.67 408.3 195.64 408.79 195.23 409.55 195.73 410.66 196.61 411.55 197.01 412.41 196.29 415.27 194.73 415.5 192.38 415.61 190.66 414.48 184.73 408.78 182.76 407.32 180.57 405.36 178.45 402.69 175.72 398.36 174.99 397.89 174.57 397.57 171.61 398.12 168.72 398.17 167.1 395.87 166.48 392.39 169.68 379.06 169.77 376.21 167.52 375.94 165.63 374.07 165.16 370.27 163.99 365.42 163.08 364.3 161.08 362.76 159.27 360.73 157.62 357.99 156.59 354.7 155.9 351.54 155.49 348.14 158.81 338.27 158.32 331.42 159.07 328.38 159.69 326.63 160.25 326.92 162.69 327.11 163.09 328.03 163.4 329.06 165.02 330.21 166.86 331.04 167.31 331.94 167.03 333.33 167.44 334.54 168.7 335.07 170.41 335.52 172.62 336.51 174.5 337.61 175.96 338.66 177.44 339.47 179.66 339.85 181.54 339.99 183 339.39 184.9 338.09 187.01 337.08 188.89 336.62 195.2 336.3 196.2 336.12 Z" id="BFA-2834" data-name="Tuy"/>
<path d="M 47.46 429.39 48.58 430.94 51.38 432.08 54.01 432.67 55.57 433.37 57.18 433.02 58.88 434.38 58.66 436.55 57.95 438.76 58.84 441.97 59.03 445.66 58.55 447.6 57.91 449.46 56.37 452.49 55.21 454.25 53.92 454.08 52.32 453.51 50.36 454.1 47.48 454.71 44.43 455.76 42.17 455.49 41.16 454.91 39.97 457.02 38.97 459.26 40.49 460.82 42.58 461.94 43.04 466.15 44.68 467.99 45.34 469.98 45.26 471.69 45.91 475.19 45.68 476.48 44.68 478.06 44.2 479.69 44.26 481.67 41.61 483.66 40.02 482.62 38.37 482.49 37.62 483.83 36.71 483.93 31.76 481.04 30.15 481.47 25.48 480.79 23.79 480.73 23.03 481.2 22.52 481.89 21.88 482.52 20.72 482.79 19.56 482.83 19.03 482.74 18.59 482.45 18.07 482.22 17.69 482.61 17.31 483.18 16.84 483.49 14.8 483.41 13.11 483 11.73 482.29 10.64 481.35 10.33 480.74 9.98 479.84 9.55 479.02 8.95 478.66 8.01 478.62 7.32 478.5 5.88 477.98 5.77 476.22 4.54 473.68 2.76 471.4 1 470.4 1.55 468.94 2.37 463.8 2.76 462.97 5.13 459.32 6.49 454.03 6.2 453.06 5.44 452.37 5.55 450.83 6.25 449.21 7.25 448.3 5.71 447.72 5.58 446.87 5.08 445.21 5.03 444.3 5.99 438.89 6.51 437.4 7.19 436.66 8.02 436.26 8.68 435.79 8.82 434.79 8.79 433.94 10.19 428.12 9.82 426.89 8.62 424.76 6.75 417.71 5.38 414.93 3.1 415.46 3.72 412.84 2.71 407.62 3.7 407.57 12.55 408.32 15.49 409.93 25.39 418.83 26.69 420.89 27.82 423.51 29.05 425.57 33.21 430.14 34.88 431.61 37.81 431.49 39.62 430.8 44.82 429.44 47.46 429.39 Z" id="BFA-2835" data-name="Léraba"/>
<path d="M 74.5 425.48 75.07 426.89 77.88 430.37 78.97 432.09 80.75 432.87 83.52 433.8 85.79 435.03 87.75 434.86 93.03 431.02 93.83 429.99 95.67 428.27 98.46 426.49 101.05 425.57 103.49 425.57 105.68 425.78 108.16 426.68 110.3 429.02 112.83 435.5 114.02 437.22 115.52 437.85 118.17 438.06 124.08 439.86 124.96 440.61 125.61 441.77 126.55 442.73 128.15 442.66 133.61 439.7 134.54 438.96 137.07 437.72 141.31 436.34 144.23 435.02 145.44 434.88 146.35 435.38 148.68 437.99 149.99 439.23 151.39 440.06 153.66 440.79 159.49 441.85 161.59 444.04 163.43 443.87 164.89 443.02 168.26 441.95 169.64 441 170.07 439.28 170.31 437.34 173.83 433.92 174.99 432.02 176.19 430.61 177.9 429.94 182.21 429.9 182.18 430.75 183.12 432.23 184.67 433.8 185.54 435.99 185.91 438.02 184.5 438.84 178.77 438.73 176.74 439.14 175.83 439.94 175.44 440.85 175.31 441.96 175.76 443.25 176.9 444.35 178.52 444.89 182.41 445.34 183.54 446.19 185.36 448.35 185.48 449.09 185.32 450.78 185.05 451.75 184.85 452.86 184.67 461.66 185.07 464.5 185.01 466.16 184.56 466.56 183.7 467.2 182.65 468.35 181.96 470.53 180.87 472.9 177.99 476.5 177.51 477.27 177 477.95 177.02 479.61 177.86 481.1 178.28 482.49 178.96 485.9 179.64 487.67 179.86 489.39 179.16 491.16 175.97 495.55 174.12 499.45 172.98 500.84 169.72 502.58 165.39 503.89 163.03 503.83 160.05 503.16 157.81 503.27 156.96 504.86 155.84 508.07 155.52 509.48 156.44 512.11 162.25 516.72 165.25 519.87 165.52 521.83 165.5 523.43 165.48 523.98 165.48 524.01 163.62 524.55 159.82 526.99 157.66 527.53 156.16 528.32 155.74 529.97 155.1 531.38 151.86 531.43 151.03 531.7 149.48 532.44 149.37 532.72 149.34 533.24 149.14 533.72 148.51 533.85 147.92 533.67 146.87 533.1 141.13 531.42 139.4 531.63 137.58 532.99 134.69 537.01 132.83 538.03 129.03 538.52 127.29 539.13 125.95 540.33 126.4 540.42 127.57 540.81 124.52 543.98 123.96 544.9 123.95 545.79 124.25 548.17 124 549.44 122.69 551.97 122.03 552.74 122.02 552.75 119.29 551.63 117.74 551.21 117.44 552.8 117.46 554.46 117.12 555.37 115.74 554.72 115.06 553.62 114.2 550.31 113.29 548.83 110.85 548.26 107.23 548.43 103.95 548.1 102.52 546.02 102.75 544.17 103.74 541.56 103.96 539.82 103.73 539.33 103.12 539.02 102.33 538.86 100.5 538.86 100.18 539.05 100.1 539.45 99.79 540.13 99.29 541.52 99.24 542.88 98.86 543.92 97.4 544.33 96.23 543.91 94.78 541.77 93.64 540.82 92.33 542.17 91.14 542.79 89.9 542.96 88.41 542.95 88.52 543.21 88.17 543.81 87.5 544.49 86.69 545.02 85.87 545.37 85.79 545.29 85.82 544.9 85.31 544.33 83.95 543.77 83.41 543.35 83.19 542.58 83.04 541.51 82.67 540.86 81.5 539.82 80.93 539.1 80.6 538.56 80.09 538.2 79.05 538.07 78.05 538.19 77.69 538.53 77.86 538.99 78.43 539.51 76.9 539.79 75.57 537.68 74.23 538.07 73.94 537.26 73.75 536.86 72.85 536.07 72.85 535.32 73.83 535.38 74.69 535.26 76.3 534.69 75.34 532.99 74.85 530.7 74.03 529.19 72.1 529.8 71.42 527.73 69.99 526.47 67.99 525.84 65.63 525.67 64.79 525.46 64.44 524.99 63.99 524.51 62.84 524.3 62.06 524.76 61.53 525.67 60.96 526.32 60.09 526.02 57.12 523.29 57 522.15 58.45 518.01 58.26 517.37 57.16 515.01 56.03 513.55 55.58 512.53 57.71 512.45 58.1 511.09 57.4 509.24 56.27 507.71 55.05 506.93 53.72 506.3 52.64 505.34 52.13 503.51 51.13 504.36 49.95 504.86 48.83 504.7 48.01 503.51 49.38 502.89 48.72 502.68 48.14 502.41 47.48 502.21 46.63 502.2 47.55 501.36 49.91 500.55 49.72 499.76 47.17 498.1 46.57 497.07 47.25 495.25 44.55 495.36 44.61 494.27 45.47 492.44 45.19 490.37 44.89 491.04 44.43 491.69 43.83 492.2 43.12 492.44 41.9 492.33 41.78 491.88 42.16 491.29 42.43 490.75 42.43 485.21 41.68 483.71 41.61 483.66 44.26 481.67 44.2 479.69 44.68 478.06 45.68 476.48 45.91 475.19 45.26 471.69 45.34 469.98 44.68 467.99 43.04 466.15 42.58 461.94 40.49 460.82 38.97 459.26 39.97 457.02 41.16 454.91 42.17 455.49 44.43 455.76 47.48 454.71 50.36 454.1 52.32 453.51 53.92 454.08 55.21 454.25 56.37 452.49 57.91 449.46 58.55 447.6 59.03 445.66 58.84 441.97 57.95 438.76 58.66 436.55 58.88 434.38 57.18 433.02 55.57 433.37 54.01 432.67 51.38 432.08 48.58 430.94 47.46 429.39 52.76 427.34 57.25 423.7 59.26 423.53 63.7 424.3 72.35 424.24 73.72 424.75 74.5 425.48 Z" id="BFA-2836" data-name="Komoé"/>
<path d="M 263.47 441.6 263.58 442.05 263.78 442.05 264.21 442.13 264.68 442.35 264.97 442.79 264.97 443.45 264.75 443.89 264.46 444.28 263.85 445.93 262.5 448.34 262.21 449.34 262.64 451.26 265.66 456.57 265.9 457.56 266.07 459.71 266.34 460.7 266.81 461.29 268.17 462.63 268.47 463.11 268.78 465.08 269.57 466.35 273.11 469.44 274.35 470.06 275.99 470.34 278.45 470.4 278.84 470.83 278.41 471.78 277.48 472.72 276.38 473.15 275.07 473.26 274.1 473.6 273.32 474.22 272.6 475.16 271.91 476.63 271.41 478.69 271.41 480.81 272.23 482.45 273.11 482.83 274.14 482.94 275 483.15 275.36 483.83 275.61 484.98 276.26 485.22 277.14 485.19 278.11 485.55 279.12 486.17 279.77 486.47 280.12 487.01 280.17 488.3 279.84 489.64 279.09 490.53 277.05 492.12 275.73 494.19 275.68 496.2 276.73 500.76 276.73 503.99 272.52 503.08 269.25 502.19 266.28 503.08 264.49 506.35 263.6 511.41 261.52 512.9 257.36 512.3 253.19 509.03 250.22 505.76 245.17 505.76 239.81 505.46 236.84 507.84 237.14 512.9 234.46 517.06 234.97 522.56 233.74 521.82 232.18 522.92 228.77 527.72 227.38 529.1 224.97 529.33 223.96 528.02 223.78 525.96 223.86 523.95 223.41 523.26 222.37 523.67 221.19 524.39 220.27 524.7 219.2 524.15 217.43 522.54 216.15 522.06 200.29 520.76 194.26 521.56 192.54 521.2 191.46 520.44 190.8 519.62 190.03 518.9 188.67 518.46 188.33 518.69 187.4 519.84 186.86 520.14 186.22 520.02 184.91 519.28 184.16 519.18 179.26 519.77 177.79 520.23 176.77 520.9 175.15 522.62 174.29 523.25 172.35 523.83 165.68 523.95 165.48 524.01 165.48 523.98 165.5 523.43 165.52 521.83 165.25 519.87 162.25 516.72 156.44 512.11 155.52 509.48 155.84 508.07 156.96 504.86 157.81 503.27 160.05 503.16 163.03 503.83 165.39 503.89 169.72 502.58 172.98 500.84 174.12 499.45 175.97 495.55 179.16 491.16 179.86 489.39 179.64 487.67 178.96 485.9 178.28 482.49 177.86 481.1 177.02 479.61 177 477.95 177.51 477.27 177.99 476.5 180.87 472.9 181.96 470.53 182.65 468.35 183.7 467.2 184.56 466.56 185.01 466.16 185.07 464.5 184.67 461.66 184.85 452.86 185.05 451.75 185.32 450.78 185.48 449.09 185.36 448.35 190.85 446.92 195.07 446.41 199.08 446.9 202.3 448.23 204.12 449.46 205.42 449.79 207.46 449.61 212.44 447.86 215.43 448.03 217.73 449.08 219.62 450.32 223.34 453.55 225.36 452.94 228.08 451.32 230.13 450.6 232.04 450.19 235.37 448.97 242.37 442.88 246.53 440.36 248.39 439.76 249.63 439.19 250.08 438.62 252.45 438.22 254.96 438.41 256.65 440.31 257.29 441.94 258.38 442.91 260.63 442.88 262.03 442.54 263.43 441.62 263.47 441.6 Z" id="BFA-2837" data-name="Poni"/>
<path d="M 615.88 215.4 615.32 215.5 614.39 215.91 613.91 216.71 613.95 217.79 614.31 219.42 613.3 220.7 611.38 221.25 609.67 222.17 607.87 223.43 605.71 224.55 603.33 224.07 600.57 223.91 597.57 223.11 594.39 221.75 591.96 221.35 589.74 219.93 586.99 219.65 586.09 220.76 586.4 222.91 585.76 226.01 583.65 228.5 582.89 229.94 585.5 232.53 588.32 237.58 590.34 254.09 593.15 264.46 593.15 266.84 587.73 271.26 583.47 273.99 572.72 274.16 564.95 278.01 561.68 277.69 558.9 278.55 556.15 281.99 550.35 287.29 549.42 288.34 542.6 286.34 539.44 284.09 540.05 279.93 543.13 275.94 543.31 272.48 539.45 269.84 535.37 267.57 534.29 263.49 537.03 255.08 538.12 250.68 538.05 246.81 536.78 243.14 536.04 241.51 535.54 240.08 537.9 232.15 533.97 229.33 529.49 226.91 527.22 225.41 525.45 222.8 524.02 219.39 523.49 217.64 521.79 214.34 521.04 211.68 521.6 202.87 523.8 198.09 526.64 194.32 527.51 191.49 526.3 187.75 527.26 183.84 529.68 178.83 530.1 174.78 528.67 172.19 528.25 168.83 531.12 165.31 534.75 163.19 535.56 161.5 535.13 160.68 536.83 159.11 538.93 155.51 540.61 153.14 544.08 153.24 548.45 154.54 552.09 156.11 556.45 155.46 559.34 154.12 564.15 152.44 564.56 154.25 564.93 157.57 564.97 160.36 566.88 161.71 570.21 165.53 573.1 171.87 576.49 176.43 582.78 182.27 583.89 185.85 588.41 189.74 601.57 193.86 603.73 196.64 606.74 199.26 609.46 202.1 612.97 206.6 616.92 210.6 618.11 213.56 617.27 215.16 615.88 215.4 Z" id="BFA-2874" data-name="Gnagna"/>
<path d="M 689.54 227.05 689.53 227.07 685.91 233.58 685.21 233.84 683.17 233.98 679.04 234.98 675.84 235.44 674.58 235.97 674.21 237.24 674.07 238.74 673.13 239.66 672.35 240.97 671.94 242.86 670.75 244.52 669.26 245.48 667.77 245.29 667.01 245.1 666.41 245 664.97 244.6 663.29 243.79 661.52 243.71 660.01 244.05 658.74 244.51 657.44 246.04 656.33 248.36 654.69 250.24 652.71 250.84 650.56 250.97 648.29 251.41 646.78 252.04 645.83 253.13 644.28 256.76 644.02 258.76 644.1 260.54 643.36 260.96 642.57 260.78 641.94 260.7 641.41 262.03 641.25 264.39 639.42 266.31 638.74 267.68 636.83 268.13 636.82 269.15 636.16 269.9 634.86 270.55 634.63 271.83 634.65 273.16 633.92 273.91 632.83 274.83 632.06 276.48 631.02 277.4 629.63 277.35 628.49 277.65 627.82 278.52 626.25 279.71 623.92 278.38 619.31 268.9 617.92 267.25 606.28 259.87 603.9 260.59 596.21 265.65 594.17 266.55 593.15 266.84 593.15 264.46 590.34 254.09 588.32 237.58 585.5 232.53 582.89 229.94 583.65 228.5 585.76 226.01 586.4 222.91 586.09 220.76 586.99 219.65 589.74 219.93 591.96 221.35 594.39 221.75 597.57 223.11 600.57 223.91 603.33 224.07 605.71 224.55 607.87 223.43 609.67 222.17 611.38 221.25 613.3 220.7 614.31 219.42 613.95 217.79 613.91 216.71 614.39 215.91 615.32 215.5 615.88 215.4 617.45 215.83 619.91 215.25 622.31 213.76 625.03 214.39 628.47 213.26 631.02 214.25 633.95 214.5 636.35 212.66 638.28 210.55 640.94 210.69 642.87 209.46 644.82 207.8 654 202.88 655.88 202.13 655.94 202.11 655.95 203.97 656.24 205.88 657.14 207.5 660.04 209.06 667.25 209.65 670.3 211.14 676.04 215.88 682.07 220.87 689.54 227.05 Z" id="BFA-2875" data-name="Komondjari"/>
<path d="M 608.37 124.93 608.35 124.97 607.79 126.16 606.89 127.19 605.17 128.77 602.86 129.91 598.31 130.06 597.05 131.66 595.86 133.91 594.11 135.16 589.56 135.31 585.05 136.99 583.59 138.84 582.88 140.31 582.35 141.74 580.29 143.29 577.67 143.63 575.9 144.62 574.68 145.97 573.22 147.28 571 148.38 569.71 148.78 568.69 149.21 566.99 150.23 564.15 152.44 559.34 154.12 556.45 155.46 552.09 156.11 548.45 154.54 544.08 153.24 540.61 153.14 538.93 155.51 536.83 159.11 535.13 160.68 533.21 157.14 533.74 154.14 535.52 151.39 535.8 148.58 531.43 147.45 524.8 147.13 520.81 145.07 518.09 141.83 515.36 139.62 513.11 136.19 512.39 131.56 510.91 128.3 505.15 122.2 502.31 120.09 498.39 118.28 496.6 117.71 495.87 117.09 494.54 115.54 493.57 113.72 493.2 112.84 494.46 112.77 497.64 111.61 500.37 109.04 501.71 105.08 502.4 100.59 501.68 97.05 500.78 95.52 507.16 95.5 525.88 93.78 533 90.39 536.97 90.86 540.81 91.7 545.41 90.94 550.58 91 554.91 92.01 557.85 91.23 564.8 83.35 566.84 80.09 569.19 77.66 572.31 69.68 574.07 69.56 576.08 68.59 578.34 66.01 578.36 65.98 592.88 78.89 597.16 84.53 597.45 85.11 597.34 85.94 596.39 87.15 596.01 88.06 595.48 91.19 595 92.38 592.59 96.04 592.16 97.22 592.6 98.38 593.88 100.26 594.51 100.95 595.14 101.42 595.69 101.95 596.12 102.81 596 103.46 595.17 105.08 595.18 105.97 596.11 107 597.42 107.63 598.48 108.52 598.69 110.3 599.49 112.08 601.15 113.19 602.92 114.09 604.01 115.27 603.97 116.15 603.14 117.97 603.2 119.02 603.82 119.76 605.92 121.11 606.71 121.98 607.57 123.84 608.37 124.93 Z" id="BFA-2876" data-name="Séno"/>
<path d="M 655.94 202.11 655.88 202.13 654 202.88 644.82 207.8 642.87 209.46 640.94 210.69 638.28 210.55 636.35 212.66 633.95 214.5 631.02 214.25 628.47 213.26 625.03 214.39 622.31 213.76 619.91 215.25 617.45 215.83 615.88 215.4 617.27 215.16 618.11 213.56 616.92 210.6 612.97 206.6 609.46 202.1 606.74 199.26 603.73 196.64 601.57 193.86 588.41 189.74 583.89 185.85 582.78 182.27 576.49 176.43 573.1 171.87 570.21 165.53 566.88 161.71 564.97 160.36 564.93 157.57 564.56 154.25 564.15 152.44 566.99 150.23 568.69 149.21 569.71 148.78 571 148.38 573.22 147.28 574.68 145.97 575.9 144.62 577.67 143.63 580.29 143.29 582.35 141.74 582.88 140.31 583.59 138.84 585.05 136.99 589.56 135.31 594.11 135.16 595.86 133.91 597.05 131.66 598.31 130.06 602.86 129.91 605.17 128.77 606.89 127.19 607.79 126.16 608.35 124.97 608.37 124.93 608.79 125.5 610.32 126.89 613.72 129.07 614.75 130.4 615.89 131.59 617.83 132.29 618.51 133.23 617.91 135.14 616.93 137.24 616.49 138.77 617.89 141.28 620.55 142.18 633.93 141.77 634.95 141.98 635.24 142.67 635.22 143.49 635.3 144.11 635.23 144.48 634.89 144.9 634.97 145.57 636.18 146.69 638.16 147.63 639.95 147.72 643.75 147.36 648.41 148.74 653.86 151.94 657.93 156.19 658.45 160.73 660.34 163.8 663.67 166.19 674.65 171.16 676.46 171.74 680.73 172.26 682.43 172.68 683.97 173.74 685.9 175.86 683.16 176.92 681.2 176 679.55 174.56 677.73 174.04 677.2 174.58 676.72 175.7 675.7 179.15 675.01 179.36 672.77 178.45 667.35 177.12 659.28 173.96 657.14 173.6 655.82 177.65 655.86 186.2 655.91 195.69 655.94 202.11 Z" id="BFA-2877" data-name="Yagha"/>
<path d="M 799 322.04 795.36 331.79 793.94 334.42 790.07 338.68 788.98 341.54 788.92 343.3 789 344.41 788.64 345.36 787.24 346.7 781.84 349.67 774.47 355.61 761.21 368.93 760.74 369.41 757.97 370.71 754.41 370.43 750.15 368.81 747.53 367.59 746.3 367.42 745.33 368.05 743.58 367.53 741.65 367.92 737.69 369.49 735.78 369.63 731.32 369.32 729.75 369.81 727.82 370.72 723.16 371.69 721.44 372.6 719.47 373.26 717.36 369.39 715.6 369.49 715.78 368.83 716.01 367.41 716.22 366.74 706.73 365.99 704.79 365.59 703.14 364.68 702.55 366.13 701.52 366.69 701.48 366.7 701.46 366.68 701.32 366.55 700.24 365.42 693.02 359.66 685.24 354.7 682.28 350.42 682.74 341.81 681.99 340.2 683.61 339.14 685.8 335.3 686.98 331.02 688.46 327.29 689.48 322.41 689.46 317.2 692.1 300.68 692.19 297.56 689.34 296.54 685.74 295.93 681.36 293.64 679.04 288.4 680.19 284.05 680.84 279.6 679 269.5 678.95 264.06 680.96 259.62 683.28 255.62 685.46 246.44 686.29 244.19 687.03 240.93 685.9 237.89 685.43 235.37 685.91 233.58 689.53 227.07 689.54 227.05 692.14 229.2 700.36 235.98 705.91 240.57 712.84 246.31 715.67 247.86 719.01 248.71 729.34 249.6 742.11 250.68 743.89 250.48 745.6 249.38 746.81 247.65 747.87 245.66 749.58 243.19 750.27 241.84 750.72 241.35 751.54 241.18 752.25 241.52 753.04 241.66 754.16 240.93 755.87 239.09 756.8 238.57 766.6 239.37 770.65 240.45 773.29 243.47 773.87 245.44 774.26 245.98 775.33 247.06 776.39 247.9 778.24 249.02 779.14 250.14 779.82 251.51 780.14 252.78 780.92 258.86 781.41 260.14 782.23 261.7 782.8 262.48 784.08 263.86 784.49 264.62 784.49 265.05 784.17 266.11 784.16 266.61 784.36 268.83 783.65 269.91 782.17 270.29 776.17 270.79 775.66 270.7 774.58 270.18 774.28 270.08 773.64 270.43 772.91 271.42 772.45 271.76 766.64 272.95 765.11 274.2 764.87 277.12 766.8 280.66 771.13 286.6 778.66 296.94 785.75 306.69 793.75 317.65 799 322.04 Z" id="BFA-2878" data-name="Tapoa"/>
<path d="M 276.73 503.99 276.73 509.4 277.23 511.44 279.52 514.84 280.17 516.66 280.05 519.24 279.12 523.82 279.55 526.36 281.95 530.19 282.24 531.18 281.6 532.21 278.11 536.07 276.42 539.44 276.05 541.55 276.73 543.64 277.56 544.55 278.11 544.64 278.67 544.58 279.55 545.02 280.06 545.83 280.19 546.76 280.51 547.68 281.28 548.27 281.61 548.52 280.32 549.62 279.45 551.1 278.95 552.75 278.8 554.37 278.97 556.02 279.5 557.05 283.11 560.32 286.74 564.87 283.59 567.85 281.13 573 279.24 574.64 276.82 574.45 274.52 572.7 264.46 559.42 259.45 549.75 257.64 545.06 256.41 542.71 254.83 541.13 252.92 540.68 249.45 541.69 247.63 541.61 245.87 540.15 244.88 537.8 243.61 532.94 241.59 530.5 239.25 529.98 236.99 529.93 235.23 528.9 234.79 526.89 235.01 524.51 234.97 522.56 234.46 517.06 237.14 512.9 236.84 507.84 239.81 505.46 245.17 505.76 250.22 505.76 253.19 509.03 257.36 512.3 261.52 512.9 263.6 511.41 264.49 506.35 266.28 503.08 269.25 502.19 272.52 503.08 276.73 503.99 Z" id="BFA-5989" data-name="Noumbiel"/>
</g>
</svg>