<?xml version="1.0"?>
<svg xmlns="http://www.w3.org/2000/svg" version="1.2" baseProfile="tiny" width="800" height="1203" viewBox="0 0 800 1203" stroke-linecap="round" stroke-linejoin="round">
<g id="ne_10m_admin_1_states_provinces">
<path d="M 738.55 1057.91 712.49 1030.76 696.62 983.16 699.79 935.56 661.71 865.74 709.32 868.91 790.08 869 799 891.45 759.48 1039.79 738.55 1057.91 Z M 525.25 995.85 484 992.68 461.78 951.42 411.01 945.08 350.71 913.34 334.85 843.53 328.5 786.4 293.59 754.67 296.76 684.85 318.98 668.99 379.27 668.99 398.32 634.08 414.18 583.3 455.44 624.56 499.87 656.29 487.17 716.59 537.95 741.97 560.16 795.92 572.86 881.61 528.43 887.95 531.6 941.9 525.25 995.85 Z" fill-rule="evenodd" id="LIE-4892" data-name="Triesenberg"/>
<path d="M 642.24 1141.33 602.01 1176.18 484.64 1201.69 327.69 1183.83 322.15 1145.01 306.28 1097.4 268.2 1052.97 265.03 1005.37 207.91 995.85 154.94 960.31 209.2 884.23 206.25 762.43 293.59 754.67 328.5 786.4 334.85 843.53 350.71 913.34 411.01 945.08 461.78 951.42 484 992.68 449.09 1027.59 484 1068.84 541.12 1068.84 547.47 1027.59 525.25 995.85 610.94 1005.37 620.46 1072.02 642.24 1141.33 Z" id="LIE-4893" data-name="Triesen"/>
<path d="M 484 992.68 525.25 995.85 547.47 1027.59 541.12 1068.84 484 1068.84 449.09 1027.59 484 992.68 Z M 322.15 1145.01 327.69 1183.83 136.06 1162.02 7.49 1136.07 1 1082.84 67.65 1021.65 154.94 960.31 207.91 995.85 265.03 1005.37 268.2 1052.97 306.28 1097.4 322.15 1145.01 Z M 763.54 802.16 702.97 808.62 652.19 751.5 598.24 710.24 553.82 678.51 499.87 656.29 521.61 582.94 605.55 616.75 741.2 745.92 763.54 802.16 Z" fill-rule="evenodd" id="LIE-4894" data-name="Balzers"/>
<path d="M 696.62 983.16 610.94 1005.37 525.25 995.85 531.6 941.9 528.43 887.95 572.86 881.61 626.81 875.26 661.71 865.74 699.79 935.56 696.62 983.16 Z M 414.18 583.3 398.32 634.08 379.27 668.99 318.98 668.99 296.76 684.85 293.59 754.67 206.25 762.43 158.48 671.01 113.13 610.76 185.69 627.73 169.83 535.7 211.08 545.22 239.64 580.13 284.07 557.91 357.06 573.78 414.18 583.3 Z" fill-rule="evenodd" id="LIE-4895" data-name="Vaduz"/>
<path d="M 738.55 1057.91 642.24 1141.33 620.46 1072.02 610.94 1005.37 696.62 983.16 712.49 1030.76 738.55 1057.91 Z M 763.54 802.16 790.08 869 709.32 868.91 661.71 865.74 626.81 875.26 572.86 881.61 560.16 795.92 537.95 741.97 487.17 716.59 499.87 656.29 553.82 678.51 598.24 710.24 652.19 751.5 702.97 808.62 763.54 802.16 Z M 315.81 389.72 309.46 440.5 372.93 488.1 435.09 498.79 435.68 548.33 414.18 583.3 357.06 573.78 284.07 557.91 239.64 580.13 211.08 545.22 169.83 535.7 185.69 627.73 113.13 610.76 96.55 588.74 52.9 494.37 61.19 376.97 138.09 405.59 236.47 408.76 315.81 389.72 Z" fill-rule="evenodd" id="LIE-4896" data-name="Schaan"/>
<path d="M 211.08 218.35 185.69 275.48 192.04 332.6 245.99 361.16 315.81 389.72 236.47 408.76 138.09 405.59 61.19 376.97 66.47 302.24 121.74 194.27 160.31 202.49 211.08 218.35 Z" id="LIE-4897" data-name="Gamprin"/>
<path d="M 333.67 67.34 306.28 104.11 287.24 142.19 249.16 180.27 252.34 215.18 211.08 218.35 160.31 202.49 121.74 194.27 164.96 109.82 259.33 1 311.24 53.2 333.67 67.34 Z" id="LIE-4898" data-name="Ruggell"/>
<path d="M 384.75 160.7 309.46 177.1 252.34 215.18 249.16 180.27 287.24 142.19 306.28 104.11 333.67 67.34 407.37 113.8 384.75 160.7 Z" id="LIE-4899" data-name="Schellenberg"/>
<path d="M 448.66 293.1 379.27 297.69 280.9 262.78 252.34 215.18 309.46 177.1 384.75 160.7 369.04 193.27 394.4 243.41 448.66 293.1 Z" id="LIE-4900" data-name="Mauren"/>
<path d="M 521.61 582.94 499.87 656.29 455.44 624.56 414.18 583.3 435.68 548.33 521.61 582.94 Z M 435.09 498.79 372.93 488.1 309.46 440.5 315.81 389.72 366.58 361.16 433.22 373.85 491.71 412.98 435.09 498.79 Z" fill-rule="evenodd" id="LIE-4901" data-name="Planken"/>
<path d="M 448.66 293.1 497.61 372.28 491.71 412.98 433.22 373.85 366.58 361.16 315.81 389.72 245.99 361.16 192.04 332.6 185.69 275.48 211.08 218.35 252.34 215.18 280.9 262.78 379.27 297.69 448.66 293.1 Z" id="LIE-4902" data-name="Eschen"/>
</g>
</svg>