<?xml version="1.0"?>
<svg xmlns="http://www.w3.org/2000/svg" version="1.2" baseProfile="tiny" width="800" height="815" viewBox="0 0 800 815" stroke-linecap="round" stroke-linejoin="round">
<g id="ne_10m_admin_1_states_provinces">
<path d="M 187.42 630.99 190.01 632.34 200.2 631.99 204.92 633.34 208.7 635.71 211.83 638.96 214.61 642.81 211.6 644.66 211.34 647.69 212.99 655.45 212.28 660.16 210.47 662.94 208.12 665.61 205.77 669.89 205.5 674.09 207.77 682.84 207.57 686.13 204.21 689.21 199.63 689.96 195.37 688.37 192.97 684.49 198.37 684.49 194.78 677.87 190.14 671.39 184.86 666.43 179.43 664.48 175.59 664.15 151.49 657.8 142.87 653.39 120.44 650.04 93.37 642.81 93.37 640.85 103.25 638.47 104.3 634.86 107.54 631.52 111.44 630.02 121.62 628.41 150.46 628.4 154.9 627.77 164.88 625.19 180.67 623.86 186.14 624.27 191.32 626.41 187.42 630.99 Z M 455.9 394.32 458.67 405.43 460.7 409.05 463.02 411.03 466.84 415.48 467.74 417.52 468.1 419.28 467.72 423.7 467.96 427.87 468.63 430 469.44 431.63 475.09 436.9 476.23 437.58 480.8 441.95 492.06 456.46 510.08 474.26 511.82 476.84 512.64 478.59 512.56 479.86 512.4 480.83 512.41 482.07 512.64 483.48 513.01 484.93 519.47 502.74 520.5 508.08 520.69 518.11 521.63 525.2 521.73 528.12 521.43 531.03 519.98 536.65 518.87 539.16 518.16 540.25 517.33 541.23 516.36 542.08 514.24 543.46 511.09 547.03 510.17 547.9 493.1 560.17 492.39 561.23 491.84 562.52 489.16 574.67 489.01 581.18 489.3 583.35 489.78 584.73 490.5 584.56 491.27 583.8 495.15 578.69 495.97 577.91 496.76 577.49 497.36 578.04 501.8 589.36 502.11 591.24 501.85 592.82 501.31 593.98 500.83 595.33 499.82 601.46 498.81 604.04 497.41 606.23 496.46 607.12 495.31 607.81 494 608.06 492.78 607.77 492 606.83 490.95 604.21 490.31 603.06 489.53 602.3 488.56 602.24 487.56 602.73 479.03 608.78 471.69 613.03 471.81 613.63 472.66 614.19 475.37 615.26 476.75 618.69 478.18 624.78 479.3 639.07 480.34 644.81 481.6 648.06 482.88 648.52 484.11 649.12 485.45 649.49 486.92 649.49 488.23 649.04 489.42 648.38 490.47 647.61 496.32 642.32 504.65 632.48 506.76 631 509.24 629.78 510.72 629.56 512.25 629.64 513.67 629.98 514.88 630.59 515.96 631.32 516.91 632.21 520.85 637.54 520.39 638.37 514.3 644.75 513.75 646.77 513.48 649.59 514.39 661.43 514.23 663.08 514.24 668.68 514.93 674.88 514.65 680.79 515.16 681.99 516.2 682.74 519.08 683.48 522.27 683.87 525.77 683.98 528.94 684.38 535.85 686.35 544.84 690.06 551.73 694.04 571.01 701.66 571.15 701.71 553.95 723.65 551.67 725.8 529.91 735.58 525.42 736.51 516.21 750.86 511.43 755.26 510.61 756.26 511.31 759.02 515.05 765.11 515.92 768.43 515.39 770.74 513.98 772.17 512.02 772.88 506.25 773.52 505.4 775.29 506.36 780.61 505.77 784.56 504.13 789.57 501.61 793.92 494.37 798.03 493.26 802.51 493.82 809.2 491.77 810.42 483.39 814.26 479.01 810.73 468.13 808.26 462.84 805.5 457.83 802 453.84 798.52 456.22 798.14 457.46 797.56 458.26 796.58 459.26 794.91 451.85 794.73 448.62 795.23 446.47 796.72 444.81 796.72 442.41 790.78 438.72 786.94 424.72 775.24 387.33 753.57 325.44 731.21 261.7 705.99 211.02 689.91 219.06 683.23 228.72 682.86 238.62 686.01 247.27 689.91 246.84 687.59 245.57 685.9 243.58 684.84 240.97 684.49 238.92 683.91 236.77 680.69 234.64 679.08 229.7 677.13 226.9 676.88 222.21 679.39 219.96 678.24 217.8 676.32 215.6 675.31 214.76 673.06 217.09 668.1 220.49 663.13 225.46 658.8 228.22 654.75 231.7 651.91 236.45 653.48 239.35 652.1 242.42 651.65 249.06 651.69 250.42 651.39 253.61 650.28 255.39 650.04 257.31 650.6 260.52 652.98 261.71 653.48 266.93 652.04 271.43 649.32 276.5 646.94 283.54 646.6 283 645.69 282.4 643.73 281.9 642.81 286.72 641.37 291.59 640.7 295.21 638.83 296.34 633.63 294.37 633.63 292.72 634.03 290.94 634.14 289.08 634.42 287.3 635.44 285.75 633.04 285.33 631.99 282.72 632.48 279.71 632.57 277.19 632.99 276.16 634.54 275.47 636.83 273.75 637.96 269.1 639.22 265.98 640.7 260.91 640.85 258.3 641.44 252.87 644.02 247.12 645.12 241.48 647.45 238.25 648.23 236.54 648.06 231.24 646.86 228.34 646.6 222.35 644.4 220.41 639.35 219.02 633.77 214.61 630.02 214.61 628.4 215.93 627.18 216.67 625.63 216.86 623.6 216.59 621 214.6 622.79 212.67 624.02 210.91 624.16 209.38 622.65 207.57 622.65 207.57 626.41 201.15 620.2 204.46 611.34 214.61 597.37 218.94 599.66 220.36 600.98 222.01 599.17 220.44 595.72 220.22 592.07 221.77 589.27 225.46 588.34 220.12 584.75 215.37 588.91 207.57 600.98 194.39 609.1 185.83 612.21 181.98 609.19 179.94 609.3 162.96 606.09 161.26 606.05 159.56 605.79 156.88 604.75 146.36 597.35 142.52 595.61 139.26 593.17 136.85 588.34 135.97 583.5 136.76 580.27 139.42 577.94 144.08 575.71 139.3 576.47 125.87 581.94 113.4 573.91 109.85 567 107.4 564.12 103.4 562.91 100.51 561.68 97.02 558.65 91.4 552.09 96.6 551.06 105.57 546.03 110.54 544.87 114.69 545.4 119.06 546.71 127.83 550.45 122.5 545.02 115.79 540.39 110.09 535.15 105.63 522.26 105.12 521.41 103.91 520.51 104.36 518.5 106.02 515.01 106.63 511.26 108.3 507.59 110.65 504.21 113.4 501.39 104.89 500.23 101.34 496.92 99.24 491.79 95.18 485.14 92.17 483.11 88.6 481.62 85.6 479.39 84.37 475.13 84.53 471.34 85.09 467.87 86.21 464.65 86.87 463.47 86.93 463.43 87.37 463.1 100.32 460.03 103.28 458.84 106.9 456.05 111.33 450.94 114.34 448.44 118.78 443.81 121.71 439.48 123.33 437.49 124.74 435.27 125.91 432.8 126.6 431.68 127.44 430.77 129.19 430.07 131.68 429.8 136.6 430.37 139.08 431.05 140.8 431.93 141.69 432.88 142.44 434 142.99 435.23 143.66 436.41 144.55 437.34 146.02 437.69 147.91 437.45 153.36 434.74 155.72 434.28 171.51 434.06 173.07 434.3 174.38 434.82 175.45 435.53 176.21 436.6 176.84 437.81 178.23 438.87 180.56 439.47 185.4 439.4 190.06 439.99 192.6 441.05 193.7 441.82 194.54 442.77 194.8 444.25 194.9 447.39 195.2 448.85 195.66 450.2 196.4 451.32 197.3 452.23 199.15 452.73 219.29 453.84 220.47 454.44 221.51 455.23 222.22 456.35 222.79 457.61 223.78 458.45 225.24 458.67 227.79 457.36 229.13 456.09 229.99 454.62 231.64 450.83 232.46 449.85 233.38 448.97 234.53 448.28 242.59 444.82 245 443.26 246.57 442.04 248.5 440.15 250.3 439.47 252.84 439 260.36 438.81 262.41 439.17 263.65 439.73 264.81 440.4 266.45 440.63 268.69 440.31 276.23 437.06 278.03 436.59 280.33 436.3 284.18 436.34 289.48 437.09 291.34 437.76 307.5 446.79 320.52 451.87 321.57 452.62 322.35 453.67 323.88 457.72 324.5 458.92 326.09 461 327.06 461.86 328.14 462.59 329.5 463 331.01 463.17 333.66 463.76 334.67 463.73 335.68 462.25 336.22 459.37 336.25 458.02 335.98 456.67 335.02 454.06 334.34 453.02 333.22 452.5 332.15 451.82 331.36 450.83 328.82 446 328.4 444.73 328.33 443.37 328.63 442.02 329.23 440.86 333.96 434.62 334.67 433.88 336.06 433.95 337.81 433.87 340.24 432.91 344.46 432.72 347.81 433.51 349.39 433.48 351.25 432.94 353.98 431.5 355.87 431.01 357.71 431.57 362.42 434.47 372.45 437.06 379.1 437.56 386.14 437.09 390.97 435.72 403.35 430.41 405.1 429.25 411.26 423.53 413.06 421.22 414.2 419.2 415.48 413.29 415.99 406.72 416.25 405.18 416.85 403.98 417.67 403 419.2 401.98 424.96 399.36 427.92 398.62 431.05 398.19 446.02 398.98 449.96 398.24 455.9 394.32 Z" fill-rule="evenodd" id="SLE-760" data-name="Southern"/>
<path d="M 69.37 429.39 70.25 429.84 74.68 430.29 77.49 432.16 79.21 433.7 95.67 436.9 99.62 438.09 102.09 439.4 102.65 440.59 102.83 442.12 102.5 446.97 103.36 450.66 106.9 456.05 103.28 458.84 100.32 460.03 87.37 463.1 86.93 463.43 86.87 463.47 87.97 461.52 85.58 461.98 84.06 463 82.69 464.16 80.74 465.13 78.92 465.52 77.79 465.47 76.53 465.26 74.36 465.13 62.7 466.94 56.68 469.25 49.42 473.42 42.86 478.46 38.9 483.34 37.26 483.34 37.84 479.15 37.26 467.92 36.11 462.35 35.97 459.1 37.26 456.1 34.16 453.61 25.01 438.99 24.48 438.88 23.9 437.93 22.66 437.77 21.41 437.25 20.87 435.26 19.52 432.44 12.81 423.62 10.9 422.44 9.73 419.86 8.12 417.36 4.79 416.41 8.44 411.81 9.6 409.7 10.02 406.31 9.3 403.82 5.86 398.84 4.79 396.39 10.41 397.24 11.99 398.2 13.8 397.1 14.41 397.75 15.61 400 20.08 398.11 24.88 398.2 29.58 399.68 33.66 401.96 37.01 405.71 42.42 414.63 51.51 419.39 57.94 425.41 64.63 430.1 69.37 429.39 Z" id="SLE-761" data-name="Western"/>
<path d="M 716.83 251.7 717.07 253.27 716.96 253.27 706.79 252.95 702.18 253.98 686.24 264.17 686.14 264.29 686.06 264.58 685.92 265.27 686.25 266.12 686.99 266.95 688.08 267.69 692.94 270.25 693.67 271.41 693.74 272.9 692.1 275.66 690.5 276.8 688.71 277.5 685.29 277.73 682.02 277.5 676.02 276.31 674.42 276.26 672.71 276.48 664.89 278.66 661.8 278.98 659.78 278.81 658.17 278.36 654.65 276.43 637.28 264.25 637.16 264.18 634.4 262.11 632.54 260.29 627.62 254.21 623.93 250.63 622.23 249.84 619.81 249.21 592.79 245.73 590.82 246 588.91 246.57 586.37 247.68 584.84 248.61 583.66 249.61 582.83 250.59 579.99 255 578.95 257.57 578.25 260.49 577.9 265.73 577.71 267.04 577.27 268.38 576.67 269.59 575.17 271.72 573.32 273.54 565.55 278.66 563.08 279.88 543.78 286.61 541.41 287.87 540.55 288.85 539.87 289.99 534.99 304.83 532.19 311.12 531.51 312.2 529.87 314.19 527.6 316.09 521.51 320.04 520.25 321.12 519.49 322.13 519 323.25 520.13 334.49 519.98 341.09 520.21 342.48 520.69 343.71 522.11 345.98 522.74 347.26 523.07 348.66 523.09 350.21 522.52 353.16 519.84 361.25 519.24 364.05 519.41 365.44 519.93 366.67 521.46 368.74 522 369.94 522.27 371.1 522.27 372.37 522.17 373.19 518.75 383.57 517.22 386.6 515.7 388.64 514.3 389.55 512.82 389.87 511.67 389.38 510.68 388.6 509.78 387.7 508.75 386.99 507.52 386.52 506.18 386.4 504.82 386.07 503.67 385.46 501.72 383.78 500.61 383.11 499.33 382.71 497.84 382.79 484.57 386.1 482.93 386.18 481.53 386.07 480.08 385.76 476.08 384.39 474.3 384.14 472.22 384.19 469.18 384.64 467.4 385.29 465.94 386.03 461.67 389.09 455.9 394.32 449.96 398.24 446.02 398.98 431.05 398.19 427.92 398.62 424.96 399.36 419.2 401.98 417.67 403 416.85 403.98 416.25 405.18 415.99 406.72 415.48 413.29 414.2 419.2 413.06 421.22 411.26 423.53 405.1 429.25 403.35 430.41 390.97 435.72 386.14 437.09 379.1 437.56 372.45 437.06 362.42 434.47 357.71 431.57 355.87 431.01 353.98 431.5 351.25 432.94 349.39 433.48 347.81 433.51 344.46 432.72 340.24 432.91 337.81 433.87 336.06 433.95 334.67 433.88 333.96 434.62 329.23 440.86 328.63 442.02 328.33 443.37 328.4 444.73 328.82 446 331.36 450.83 332.15 451.82 333.22 452.5 334.34 453.02 335.02 454.06 335.98 456.67 336.25 458.02 336.22 459.37 335.68 462.25 334.67 463.73 333.66 463.76 331.01 463.17 329.5 463 328.14 462.59 327.06 461.86 326.09 461 324.5 458.92 323.88 457.72 322.35 453.67 321.57 452.62 320.52 451.87 307.5 446.79 291.34 437.76 289.48 437.09 284.18 436.34 280.33 436.3 278.03 436.59 276.23 437.06 268.69 440.31 266.45 440.63 264.81 440.4 263.65 439.73 262.41 439.17 260.36 438.81 252.84 439 250.3 439.47 248.5 440.15 246.57 442.04 245 443.26 242.59 444.82 234.53 448.28 233.38 448.97 232.46 449.85 231.64 450.83 229.99 454.62 229.13 456.09 227.79 457.36 225.24 458.67 223.78 458.45 222.79 457.61 222.22 456.35 221.51 455.23 220.47 454.44 219.29 453.84 199.15 452.73 197.3 452.23 196.4 451.32 195.66 450.2 195.2 448.85 194.9 447.39 194.8 444.25 194.54 442.77 193.7 441.82 192.6 441.05 190.06 439.99 185.4 439.4 180.56 439.47 178.23 438.87 176.84 437.81 176.21 436.6 175.45 435.53 174.38 434.82 173.07 434.3 171.51 434.06 155.72 434.28 153.36 434.74 147.91 437.45 146.02 437.69 144.55 437.34 143.66 436.41 142.99 435.23 142.44 434 141.69 432.88 140.8 431.93 139.08 431.05 136.6 430.37 131.68 429.8 129.19 430.07 127.44 430.77 126.6 431.68 125.91 432.8 124.74 435.27 123.33 437.49 121.71 439.48 118.78 443.81 114.34 448.44 111.33 450.94 106.9 456.05 103.36 450.66 102.5 446.97 102.83 442.12 102.65 440.59 102.09 439.4 99.62 438.09 95.67 436.9 79.21 433.7 77.49 432.16 74.68 430.29 70.25 429.84 69.37 429.39 69.38 429.39 71.72 429.05 71.72 427.24 68.49 426.53 65.72 425.22 63.72 423.11 62.7 420.01 66.3 420.01 66.3 418.21 58.56 416.44 51.26 413.94 47.39 409.92 49.9 403.6 53.01 401.31 60.94 398.26 64.33 396.39 66.31 393.76 67.92 390.88 70.03 389.38 73.53 390.98 73.43 387.94 74.21 385.03 75.53 382.41 77.14 380.14 79.72 380.84 97.21 382.09 102.18 383.44 105.12 383.75 107.29 382.98 112.58 379.31 115.03 378.17 110.18 377.14 104.56 377.82 99.6 377.37 99.01 374.39 98.79 374.56 103.87 368.21 113.4 347.49 106.8 355.52 102.56 362.71 97.39 368.17 87.97 370.96 83.27 370.73 79.3 369.97 75.82 369.97 68.98 374.06 64.25 374.46 59.85 372.92 57.12 369.31 63.07 368.21 66.2 365 68.87 361.2 73.53 358.33 73.53 356.52 71.17 356.14 69.73 355.67 68.78 354.68 67.94 352.9 66.3 352.9 63.79 361.05 61.92 364.21 58.93 365.54 54.68 364.23 50.94 361.05 46.13 354.71 43.42 356.21 41.36 355.91 39.87 354.13 38.9 351.26 37.61 355.74 39.81 358.64 43.81 360.49 48.1 361.94 44.49 363.74 51.77 369.14 52.18 375.04 48.3 380.71 42.68 385.4 43.79 387.62 43.78 389.98 42.5 391.85 39.81 392.6 37.66 391.79 36.04 389.79 29.03 378.17 27.06 374 25.38 366.23 23.25 361.41 20.54 356.89 18.06 353.81 16.83 350.94 16.62 346.59 17.09 338.46 18.41 338.32 17.09 310.32 24.48 302.05 27.48 301.34 28.64 302.25 29.52 303.99 31.7 305.65 52 305.5 56.22 304.83 61.6 302.47 69.2 301.73 84.37 302.05 73.46 298.73 71.72 299.5 69.73 300.96 65.2 300.99 60.3 300.04 57.12 298.6 54.2 299.86 49.97 300.66 46.13 300.21 44.49 297.61 43.65 295.63 41.81 295.09 39.9 295.13 38.9 294.82 38.71 292.76 39.39 291.95 40.26 291.48 42.88 286.29 48.18 283.84 54.75 282.66 60.74 282.36 60.74 280.38 56.14 278.91 50.17 279.98 38.9 283.99 32.75 284.63 26.1 283.22 20.92 279.47 19.05 273.17 18.03 274.35 17.44 274.49 17.16 274.91 17.09 276.95 13.22 273.17 11.73 273.46 11.25 274.53 10.66 275.41 10.02 276.95 4.35 272.35 5.25 259.78 1 254.95 1 253.32 7.27 248.79 18.83 245.23 25.73 244.01 29.9 244.99 39.92 251.25 45.95 253.32 49.95 252.67 57.97 246.84 68.17 241.94 72.96 238.91 76.56 234.48 80.05 226.19 82.23 222.33 84.78 218.73 86.28 217.97 90.43 217.57 91.39 217.27 91.11 215.09 87.48 210.68 86.31 208.02 87.53 200.42 91.72 192.27 97.24 188.4 102.39 193.7 108.18 190.66 113.34 190.31 118.42 190.66 123.99 189.75 128.4 186.09 134.71 175.71 139.29 173.39 142.93 172.38 143.09 170.35 142.03 167.96 141.97 165.86 144.1 163.08 145.6 161.77 150.05 159.28 151.19 159.47 152.53 160.37 153.83 160.64 154.86 158.98 155.54 157.38 156.42 156.39 158.25 154.86 159.47 153.2 168.48 124.53 168.53 123.2 168.01 122.01 168.19 120.91 170.21 119.94 171.72 119.49 172.56 119.04 173.13 118.34 173.83 117.14 176.14 108.48 177.38 106.24 179.82 105.34 182.4 105.66 184.52 105.49 185.6 103.2 185.92 92.01 186.7 91.18 191.02 83.64 193.44 81.21 201.65 76.25 202.51 76.1 202.85 75.09 202.81 71.86 203.33 70.58 204.64 70.56 206 70.77 206.82 70.13 206.71 68.82 205.72 65.86 205.55 65.07 209.16 45.46 209.13 42.68 208.8 40.89 208.97 39.25 210.56 36.85 220.07 31.33 232.06 27.01 271.78 18.64 277.9 18.87 282.65 21.95 287.47 26.23 293.74 30.06 298.71 31.88 303.07 32.83 307.57 33.02 315.9 31.22 365.61 20.51 367.41 18.05 368.69 1.92 453.96 1.46 481.1 1.31 490.53 1.26 537.19 1 543.9 1.69 552.85 4.34 556.51 4.66 559.43 7.19 561.36 13.06 564.95 30.49 566.9 33.58 586.55 45.89 597.39 56.21 606.6 67.95 612.88 79.84 615.98 88.82 617.59 91.34 619.07 92.26 623.37 93.83 625.09 95.19 626.24 97.25 628.02 104.17 629.97 106.76 636.75 111.41 639.31 114.03 640.24 116.21 641.6 123.48 643.48 125.93 646.23 127.21 648.23 128.92 647.95 132.68 646.51 139.25 647.63 143.94 650.52 147.91 654.45 152.22 658.59 154.87 659.11 156.36 656.28 158.31 653.74 160.62 657.02 161.7 661.69 161.91 663.4 161.58 665.99 161.92 668.81 161.89 671.26 162.46 674.43 167.12 677.59 169.9 681.11 172.24 683.87 173.53 695.14 183.27 695.48 186.57 694.47 189.5 692.94 192.43 691.73 195.74 691.75 198.01 692.82 202.49 692.48 204.94 690.38 208.02 687.57 209.75 684.61 211.06 682.03 212.87 677.32 221.12 674.43 232.53 676.32 242.13 685.81 244.99 696.74 244.61 707.25 245.69 713.42 247.43 716.56 249.98 716.83 251.7 Z" id="SLE-762" data-name="Northern"/>
<path d="M 717.07 253.27 717.18 253.96 713.12 269.61 711.86 278.78 712.33 298.04 712.76 300.68 715.17 308.15 715.24 309.32 714.95 312.12 715.09 313.08 715.99 314.18 717.89 315.41 718.62 316.07 729.46 330.36 733.45 333.23 734.89 335.77 746.23 350.86 744.17 356.52 740.56 361.67 735.59 365.11 729.5 365.59 724.14 366.64 719.06 370.85 714.87 376.45 710.65 384.16 706.58 387.99 704.73 391.19 704.12 394.7 704.14 397.83 703.41 399.92 700.55 400.28 696.74 423.13 692.85 429.53 688.04 435.16 681.96 444.07 679.24 452.68 684.56 457.36 686.48 448.49 691.7 442.96 699.2 440.53 707.94 440.99 711.86 442.64 719.43 447.49 722.23 448.11 727.07 446.19 736.34 440.12 751.95 424.96 755.19 420.87 761.59 407.93 764.15 404.33 767.24 401.47 770.57 399.33 774.55 397.83 782.59 396.7 784.37 396.83 791.6 399 793.71 400.19 795.97 400.93 799 400.52 798.82 414.18 790.69 446.58 786.04 456.64 785.5 462.6 787.43 470.06 789.51 475.32 788.77 480.22 782.27 486.5 777.14 489.44 771.95 491.05 766.53 491.81 745.21 491.92 739.92 492.71 733.7 495.77 729.81 500.58 723.68 511.91 720.86 514.57 714.17 518.25 711.79 520.2 710.72 522.67 710.33 525.77 710.99 589.67 704.92 590.6 703 591.26 690.53 597.99 680.49 606.48 645.21 649.24 642.41 652.63 639.48 654.93 635.97 656.43 625.91 658.74 615.11 664.78 575.88 695.68 571.15 701.71 571.01 701.66 551.73 694.04 544.84 690.06 535.85 686.35 528.94 684.38 525.77 683.98 522.27 683.87 519.08 683.48 516.2 682.74 515.16 681.99 514.65 680.79 514.93 674.88 514.24 668.68 514.23 663.08 514.39 661.43 513.48 649.59 513.75 646.77 514.3 644.75 520.39 638.37 520.85 637.54 516.91 632.21 515.96 631.32 514.88 630.59 513.67 629.98 512.25 629.64 510.72 629.56 509.24 629.78 506.76 631 504.65 632.48 496.32 642.32 490.47 647.61 489.42 648.38 488.23 649.04 486.92 649.49 485.45 649.49 484.11 649.12 482.88 648.52 481.6 648.06 480.34 644.81 479.3 639.07 478.18 624.78 476.75 618.69 475.37 615.26 472.66 614.19 471.81 613.63 471.69 613.03 479.03 608.78 487.56 602.73 488.56 602.24 489.53 602.3 490.31 603.06 490.95 604.21 492 606.83 492.78 607.77 494 608.06 495.31 607.81 496.46 607.12 497.41 606.23 498.81 604.04 499.82 601.46 500.83 595.33 501.31 593.98 501.85 592.82 502.11 591.24 501.8 589.36 497.36 578.04 496.76 577.49 495.97 577.91 495.15 578.69 491.27 583.8 490.5 584.56 489.78 584.73 489.3 583.35 489.01 581.18 489.16 574.67 491.84 562.52 492.39 561.23 493.1 560.17 510.17 547.9 511.09 547.03 514.24 543.46 516.36 542.08 517.33 541.23 518.16 540.25 518.87 539.16 519.98 536.65 521.43 531.03 521.73 528.12 521.63 525.2 520.69 518.11 520.5 508.08 519.47 502.74 513.01 484.93 512.64 483.48 512.41 482.07 512.4 480.83 512.56 479.86 512.64 478.59 511.82 476.84 510.08 474.26 492.06 456.46 480.8 441.95 476.23 437.58 475.09 436.9 469.44 431.63 468.63 430 467.96 427.87 467.72 423.7 468.1 419.28 467.74 417.52 466.84 415.48 463.02 411.03 460.7 409.05 458.67 405.43 455.9 394.32 461.67 389.09 465.94 386.03 467.4 385.29 469.18 384.64 472.22 384.19 474.3 384.14 476.08 384.39 480.08 385.76 481.53 386.07 482.93 386.18 484.57 386.1 497.84 382.79 499.33 382.71 500.61 383.11 501.72 383.78 503.67 385.46 504.82 386.07 506.18 386.4 507.52 386.52 508.75 386.99 509.78 387.7 510.68 388.6 511.67 389.38 512.82 389.87 514.3 389.55 515.7 388.64 517.22 386.6 518.75 383.57 522.17 373.19 522.27 372.37 522.27 371.1 522 369.94 521.46 368.74 519.93 366.67 519.41 365.44 519.24 364.05 519.84 361.25 522.52 353.16 523.09 350.21 523.07 348.66 522.74 347.26 522.11 345.98 520.69 343.71 520.21 342.48 519.98 341.09 520.13 334.49 519 323.25 519.49 322.13 520.25 321.12 521.51 320.04 527.6 316.09 529.87 314.19 531.51 312.2 532.19 311.12 534.99 304.83 539.87 289.99 540.55 288.85 541.41 287.87 543.78 286.61 563.08 279.88 565.55 278.66 573.32 273.54 575.17 271.72 576.67 269.59 577.27 268.38 577.71 267.04 577.9 265.73 578.25 260.49 578.95 257.57 579.99 255 582.83 250.59 583.66 249.61 584.84 248.61 586.37 247.68 588.91 246.57 590.82 246 592.79 245.73 619.81 249.21 622.23 249.84 623.93 250.63 627.62 254.21 632.54 260.29 634.4 262.11 637.16 264.18 637.28 264.25 654.65 276.43 658.17 278.36 659.78 278.81 661.8 278.98 664.89 278.66 672.71 276.48 674.42 276.26 676.02 276.31 682.02 277.5 685.29 277.73 688.71 277.5 690.5 276.8 692.1 275.66 693.74 272.9 693.67 271.41 692.94 270.25 688.08 267.69 686.99 266.95 686.25 266.12 685.92 265.27 686.06 264.58 686.14 264.29 686.24 264.17 702.18 253.98 706.79 252.95 716.96 253.27 717.07 253.27 Z" id="SLE-790" data-name="Eastern"/>
</g>
</svg>