<?xml version="1.0"?>
<svg xmlns="http://www.w3.org/2000/svg" version="1.2" baseProfile="tiny" width="800" height="613" viewBox="0 0 800 613" stroke-linecap="round" stroke-linejoin="round">
<g id="ne_10m_admin_1_states_provinces">
<path d="M 362.48 137 361.61 139.51 361.51 140.06 361.5 140.63 361.54 141.35 361.93 142.92 363.27 145.67 363.71 147.11 363.7 147.87 363.59 148.54 363.65 149.2 364.63 150.61 364.97 151.35 365.17 152.14 365.27 152.95 365.24 154.5 365.3 155.24 365.59 156.01 365.96 156.69 366.24 157.11 366.64 157.59 367.91 158.33 368 158.59 367.59 163.74 367.65 165.19 367.99 166.27 369.88 169.62 370.83 170.73 371.93 171.65 373.09 172.19 373.37 172.37 373.55 172.74 373.86 173.89 374.22 176.63 374.7 177.82 377 181.48 377.47 182.74 377.9 185.67 377.91 187.23 377.79 188.78 379.43 190.53 380.45 191.42 381.23 192.48 383.37 196.33 383.91 197.69 384.25 199.13 384.4 201.66 384.68 203.51 384.67 204.49 384.44 205.43 384.05 206.2 381.06 210.69 382.42 212.11 383 213.56 382.88 214.99 382.3 216.4 380.77 219.06 380.32 220.21 380.34 221.4 380.96 222.81 382.61 224.82 382.94 225.5 382.95 226.66 382.39 229.27 382.39 230.56 383.63 234.4 383.68 234.73 383.67 235.11 383.47 236.14 382.84 237.29 382.55 238.34 382.01 245.08 381.83 246.05 380.85 248.53 380.64 249.97 380.82 251.37 381.13 252.76 381.31 254.18 381.22 255.24 380.82 255.58 380.04 255.47 378.81 255.17 377.7 255 376.37 254.97 375.12 255.24 374.24 255.94 373.68 257.27 373.78 258.37 374.45 259.32 375.59 260.19 377.23 261.14 378.3 261.92 378.81 263.06 378.74 265.07 378.32 266.22 376.82 268.32 376.35 269.36 374.89 271.2 374.89 271.91 375.18 272.52 375.54 273.11 375.76 273.77 375.03 275.25 372.96 275.24 368.49 274 366.35 274.56 366.51 276.69 368.47 281.71 368.6 284.47 368.26 287.15 367.23 289.55 365.31 291.45 364.19 292.26 363.42 293.1 363.28 293.95 364.04 294.82 364.59 295.04 366.04 295.42 366.74 295.76 368.63 297.22 368.58 299.73 367.15 302.2 365.35 304.52 364.13 306.61 361.76 308.5 361.91 319.33 361.37 320.86 359.72 321.9 354.25 323.85 352.4 324.92 349.87 326.74 348.75 327 347.39 326.25 345.49 323.36 343.87 322.79 343.07 323.08 340.32 325.76 339.17 325.87 338.23 325.63 337.53 325.16 337.17 324.57 335.82 321.69 335.73 320.8 335.84 319.8 335.67 316.74 340.28 309.36 340.9 307.62 340.75 306.04 339.66 305.23 336.81 304.67 335.74 303.75 334.97 302 334.51 300.05 334.36 298.54 334.7 298.09 335.58 298.02 336.82 298.1 341.42 297.77 342.09 297.48 344.71 295.59 346.08 295.35 347.95 296.01 348.04 295.97 344.89 292.77 344.55 292.3 344.76 291 343.63 290.37 342.06 290.07 340.83 290.15 338.88 289.76 337.17 287.5 335.27 284.14 332.7 280.42 326.52 277.75 316.81 275.8 313.41 274.14 311.67 272.02 310.73 269.61 310.33 267.01 310.25 264.34 310.15 263.97 309.13 262.59 308.55 262.03 308.05 261.62 307.6 261.34 304.22 260.09 303.17 259.11 303.05 257.51 305.2 257.95 307.23 257.49 310.74 255.63 311.44 254.85 313.71 244.17 313.77 242.23 312.83 241.47 306.68 240.43 294.24 241.03 293.71 241.44 293.44 241.94 292.02 247.69 291.69 248.3 291.21 248.69 290.73 248.88 290.43 249.18 290.49 249.94 290.82 251.04 290.9 251.59 290.79 252.18 290.03 253.21 288.84 253.79 287.48 254.02 286.21 253.99 284.85 253.64 284.32 253.63 283.8 253.74 282.35 254.26 280.84 254.58 280.39 254.86 280.22 255.08 279.82 256.09 279.73 256.24 278.39 257.55 277.97 257.83 277.47 258.06 274.28 258.88 266.74 262.4 264.26 264.13 263.76 264.33 262.8 264.39 262.28 264.48 261.89 264.69 261.6 265 261.11 265.7 260.65 266.18 256.87 268.26 256.37 268.39 255.95 268.34 255.54 268.22 255.06 268.14 254.27 268.31 252.76 269.1 251.91 269.15 246.93 265.47 246.13 264.54 245.86 263.88 244.6 262.47 243.53 260.98 242.78 260.42 237.7 258.2 235.91 257.66 234.07 257.45 233.28 257.74 233.02 258.41 232.83 259.19 232.25 259.8 231.69 259.87 231.25 259.61 230.89 259.18 230.63 258.69 230.44 258.08 230.42 256.92 230.33 256.28 229.89 255.74 229.08 255.35 228.17 255.13 227.46 255.1 226.82 255.24 226.51 255.27 226.18 255.19 225.67 254.91 224.4 253.62 223.7 251.82 224.32 250.2 225.12 248.69 224.95 247.24 224.13 246.85 220.55 246.84 219.51 246.48 218.51 245.91 216.95 244.66 209.29 243.21 207.11 242.44 206.03 242.2 203.54 242.05 202.99 241.91 202.49 241.65 202.14 241.32 201.86 240.97 201.54 240.72 201.08 240.7 199.79 241.07 199.29 241.1 193.22 240.55 190.77 240.58 189.71 240.19 188.99 239.17 188.91 238.23 189.06 237.28 189.05 236.38 188.5 235.6 187.89 235.37 187.31 235.47 184.68 236.71 183.41 236.61 182.13 235.8 180.95 234.47 179.89 232.75 179.09 230.49 178.7 227.54 182.17 219.73 181.46 218.83 180.26 218.81 179.25 219.17 178.48 219.9 178.01 220.97 177.85 221.04 177.74 220.08 177.73 218.57 177.87 216.97 179.19 213.98 179.17 213.27 179.31 212.43 179.99 211.33 180.89 210.22 181.74 209.36 184.49 207.27 185.97 205.72 187.28 203.4 185.69 200.03 185.9 199.37 186.32 198.44 186.22 197.34 185.93 196.23 185.81 195.28 186.32 194.08 187.29 192.81 188.13 191.23 188.26 189.12 185.03 185.87 184.12 185.32 182.86 184.26 183.3 183.15 184.38 182.11 185 181.24 184.91 180.82 181.82 176.15 180.02 174.35 179.4 173.35 179.16 168.61 179.42 165.08 179.04 164.5 177.81 164.92 175.75 166.38 173.63 168.17 171.4 170.53 170.4 171.14 169.33 171.28 168.26 170.78 167.47 168.38 167.09 165.7 166.54 164.43 165.22 162.92 163.38 159.89 163.14 159.57 160.89 157.73 160.23 157 159.55 155.59 159.08 154.97 157.77 154.23 157.53 153.98 156.66 153.76 155.18 153.74 153.81 153.57 153.29 152.84 153.14 152.55 152.61 152.47 150.99 152.48 148.78 152.28 148.44 152.53 146.98 155.99 146.14 157.15 139.4 162.37 138.1 163.69 137 164.58 135.89 164.73 134.42 164.61 132.89 164.85 129.91 165.8 128.76 165.8 127.52 165.18 126.17 164.04 124.69 162.48 122.65 157.72 121.24 156.54 121.25 156.3 121.4 155.81 121.88 155.34 123.87 154.21 124.91 153.04 125.38 151.77 125.9 148.85 126.85 146.53 127.25 145.92 127.78 145.49 128.94 144.89 129.49 144.45 129.98 143.72 130.14 143.06 130.28 141.58 130.85 140.09 140.86 123.68 141.34 123.15 141.79 122.96 142.82 122.89 143.29 122.7 143.81 122.13 144.01 121.58 144.08 121.01 144.45 119.66 144.44 119.37 144.63 119.2 145.36 118.87 145.43 118.84 146.8 118.4 162.85 116.12 163.3 116.1 163.95 116.21 164.3 116.39 164.61 116.61 165.1 116.87 166.55 117.26 167.38 116.94 167.84 115.89 168.88 109.98 168.87 108.68 168.64 107.88 167.4 105.76 167.35 104.58 167.96 103.67 168.76 102.9 169.23 102.11 169.22 101.66 169.05 101.2 168.62 100.35 168.55 99.34 173.69 81.81 181.6 70.66 182.09 69.15 182.28 66.14 182.47 65.07 184.68 59.74 185.41 60.27 189.19 68.34 189.92 69.17 190.8 69.18 197.82 70.95 198.85 71.36 204.72 76.72 207.69 78.45 208.97 79.95 209.96 80.34 216.2 81.18 217.32 81.21 218.04 80.74 218.66 80.12 221.55 78.58 221.95 78.45 223.09 78.22 224.77 78.08 226.12 78.34 227.69 79 229.09 79.92 229.96 80.95 230.41 81.37 231.19 81.51 240.39 81.8 241.96 81.5 249.33 78.08 250.18 77.43 250.94 76.59 251.45 75.61 252.75 71.88 254.01 70.95 256.08 70.96 261.96 72.34 269.06 75.8 270.85 76.1 271.52 75.87 272.62 75.32 273.66 74.63 274.15 73.99 275 73.12 276.93 73.24 279.6 73.68 282.7 73.77 287.96 73.07 289.05 72.56 289.87 71.71 290.38 70.82 290.93 70.08 291.83 69.65 292.43 69.8 292.96 70.39 293.37 71.31 293.57 72.47 291.95 76.16 292.26 76.39 296.73 75.24 297.99 74.76 298.82 74.58 299.89 74.51 303.67 74.88 303.79 75.27 304.51 76.86 304.9 79.15 305.26 80.11 306.14 80.5 307.45 81.1 319.35 92.63 320.75 94.3 321.04 95.99 320.98 96.98 321.09 98.27 321.36 99.48 321.74 100.27 322.43 100.7 323.38 100.88 326.09 100.86 331.91 99.81 332.91 100.22 333.38 101.25 333.58 102.9 333.98 104.62 334.62 106.54 335.11 108.87 335.01 111.83 331.1 118.85 330.8 120.63 331.2 122.5 333.37 127.87 333.93 133.74 334.17 134.92 334.72 136.36 335.49 137.66 336.4 138.42 336.88 138.53 340.81 138.38 340.88 138.18 341.07 136.99 342.69 136.61 349.38 136.85 349.87 137.68 350.02 138.81 349.91 139.94 349.6 140.77 349.67 140.93 354.49 138.13 355.05 137.98 358.87 137.75 360.71 137.48 362.48 137 Z" id="ETH-3109" data-name="Amhara"/>
<path d="M 280.82 13.09 280.93 13.34 281.18 14.81 281.45 15.33 281.95 15.79 282.58 16.12 283.13 16.53 283.47 17.22 283.98 19.24 284.41 20.18 285.04 20.96 285.87 21.6 288.72 23.11 289.15 23.5 289.51 24.65 289.8 25.13 290.46 25.61 290.9 25.66 291.35 25.54 293.98 25.56 298.04 25.1 300.02 24.59 303.32 22.92 304.36 22.96 305.33 23.27 306.3 23.37 307.28 23.28 308.29 23.04 311.47 21.77 313.84 21.54 314.82 20.87 316.58 19.3 318.8 18.3 319.89 17.63 320.64 16.67 320.8 15.69 320.72 14.7 320.8 13.81 321.49 13.15 321.57 13.34 323.47 13.55 324.99 13.89 325.52 14.1 326.68 14.81 327.76 15.76 328.67 16.86 329.41 18 330.95 22.42 332.05 24.39 333.38 24.38 334.55 22.57 335.27 21.93 336.59 21.72 339.48 22.17 340.49 22.12 344.85 20.93 347.02 19.9 347.97 18.66 348.39 17.59 349.31 17.61 350.36 18.19 351.17 18.85 352.26 20.13 352.58 20.43 352.88 20.59 355.62 21.39 357.05 21.51 359.46 21.11 360.1 21.01 361.8 20.95 363.39 21.47 364.86 22.37 367.66 24.74 368.47 25.12 369.48 25.28 370.52 25 372.16 23.64 373.13 23.4 374.2 23.59 373.78 23.77 373.28 24.12 373.4 24.56 373.44 25.28 373.36 26.65 373.31 26.82 372.97 27.54 372.6 28 372.44 28.14 372.27 28.21 370.85 28.39 366.82 27.94 364.68 27.33 363.8 27.24 360.09 27.94 358.39 28.89 356.93 30.05 356.54 30.55 356.57 31.01 357.81 31.64 361.06 31.36 361.87 32.09 361.73 32.8 359.31 35.32 357.96 38.08 357.73 39.03 358.12 39.37 358.9 39.35 359.8 39.4 360.71 39.62 361.51 40.09 359.75 41.98 359.49 42.43 359.9 43.41 360.65 43.45 361.48 43.12 362.1 42.98 362.76 43.55 363.15 44.52 363.33 45.6 363.38 46.52 363.14 48.47 363.14 49.23 363.48 49.83 364.25 50.44 364.46 50.86 364.57 51.23 364.6 51.54 364.67 54.63 363.66 59.6 363.43 61.92 363.86 63.83 364.57 65.74 365.05 68.34 364.79 70.63 363.24 71.57 361.23 70.64 360.79 71.33 359.52 75.43 359.56 76.76 360.44 78.91 360.59 80.26 360.45 81.55 359.36 86.93 359.47 87.61 359.85 88.48 360 88.7 360.8 89.55 361.12 89.77 361.63 90.01 361.8 90.15 362.13 90.75 362.95 94.82 363.27 95.37 363.9 96.07 363.98 96.39 363.67 97.3 363.1 98.23 362.4 98.91 361.72 99.02 361.96 101.51 361.91 102.57 361.66 104.06 361.69 105.23 361.51 105.83 361.14 106.7 361.24 106.95 362.85 108.26 363.64 108.64 364.81 108.78 365.91 109.11 366.77 109.93 368.1 112.03 368.45 113.78 368.21 116.29 367.58 118.73 366.74 120.25 364.93 122.19 363.79 124.16 363.17 126.38 362.94 129.04 363.1 129.93 363.86 131.57 364.02 132.66 363.99 133.9 363.86 135.11 363.42 136.19 362.48 137 360.71 137.48 358.87 137.75 355.05 137.98 354.49 138.13 349.67 140.93 349.6 140.77 349.91 139.94 350.02 138.81 349.87 137.68 349.38 136.85 342.69 136.61 341.07 136.99 340.88 138.18 340.81 138.38 336.88 138.53 336.4 138.42 335.49 137.66 334.72 136.36 334.17 134.92 333.93 133.74 333.37 127.87 331.2 122.5 330.8 120.63 331.1 118.85 335.01 111.83 335.11 108.87 334.62 106.54 333.98 104.62 333.58 102.9 333.38 101.25 332.91 100.22 331.91 99.81 326.09 100.86 323.38 100.88 322.43 100.7 321.74 100.27 321.36 99.48 321.09 98.27 320.98 96.98 321.04 95.99 320.75 94.3 319.35 92.63 307.45 81.1 306.14 80.5 305.26 80.11 304.9 79.15 304.51 76.86 303.79 75.27 303.67 74.88 299.89 74.51 298.82 74.58 297.99 74.76 296.73 75.24 292.26 76.39 291.95 76.16 293.57 72.47 293.37 71.31 292.96 70.39 292.43 69.8 291.83 69.65 290.93 70.08 290.38 70.82 289.87 71.71 289.05 72.56 287.96 73.07 282.7 73.77 279.6 73.68 276.93 73.24 275 73.12 274.15 73.99 273.66 74.63 272.62 75.32 271.52 75.87 270.85 76.1 269.06 75.8 261.96 72.34 256.08 70.96 254.01 70.95 252.75 71.88 251.45 75.61 250.94 76.59 250.18 77.43 249.33 78.08 241.96 81.5 240.39 81.8 231.19 81.51 230.41 81.37 229.96 80.95 229.09 79.92 227.69 79 226.12 78.34 224.77 78.08 223.09 78.22 221.95 78.45 221.55 78.58 218.66 80.12 218.04 80.74 217.32 81.21 216.2 81.18 209.96 80.34 208.97 79.95 207.69 78.45 204.72 76.72 198.85 71.36 197.82 70.95 190.8 69.18 189.92 69.17 189.19 68.34 185.41 60.27 184.68 59.74 185.65 57.4 185.5 54.74 184.58 52.09 184.28 50.78 184.26 49.43 184.5 48.29 189.28 33.79 190.31 33.81 190.7 32.77 191.37 32.23 192.27 32.03 193.4 32 194.14 31.83 195.78 31.08 196.85 30.91 199.25 30.91 199.7 30.79 200.56 30.27 201.08 30.15 204.72 30.15 206.43 30.37 209.9 31.37 211.67 31.6 211.98 31.8 212.94 33.09 213.37 33.39 213.79 33.62 214.25 33.76 214.79 33.81 215.11 33.71 215.88 33.09 216.32 33.05 217.29 33.17 217.7 33.09 218.36 32.64 218.94 31.97 219.34 31.1 219.49 29.98 219.52 28.7 219.7 27.62 220.13 26.57 220.94 25.42 222.46 24.3 224.3 23.89 228.24 23.97 229.4 23.58 230.13 23.47 231.43 24.55 232.44 25.13 234.45 27.97 235.27 28.76 235.47 29.19 235.55 29.98 235.52 31.19 235.67 31.76 236.44 32.19 238.59 33.95 238.82 34.27 239.21 35.27 239.48 36.6 239.8 37.2 240.48 37.45 241.03 37.54 241.58 37.81 241.99 38.21 242.15 38.72 242.21 40.08 242.46 40.97 243.01 41.6 243.97 42.21 244.57 41.61 246.49 37.13 249.55 29.98 252.89 22.18 256.32 14.17 259.78 6.09 261.95 1 262.88 1.79 263.52 2.7 264.54 4.65 264.77 4.84 265.29 4.9 265.48 5.08 265.5 5.3 265.49 5.86 265.52 6.03 265.72 6.41 265.84 6.77 266.07 7.02 266.67 7.12 267.19 7.51 267.31 7.92 267.35 8.39 267.65 8.91 268.09 9.26 273.87 11.57 274.83 11.74 277.86 11.23 279.12 11.31 279.94 11.64 280.49 12.29 280.82 13.09 Z" id="ETH-3110" data-name="Tigray"/>
<path d="M 393.04 29.98 396.65 33.25 399.75 34.81 405.4 37.46 406.9 37.93 411.71 38.6 415.32 39.93 418.56 42.18 424.13 48.36 429.77 54.61 433.91 61.76 437.67 68.27 439.28 69.83 446.46 74.32 455.7 80.1 461.28 84.59 465.34 87.86 467.41 89.97 469.22 92.3 470.92 95.06 475.06 103.83 477.84 107.65 481.99 110.27 485.03 111.5 487.99 113.13 490.53 115.27 494 121.08 498.34 126.86 500.88 129.5 497.68 133.73 496.05 137.21 488.96 146.73 488.15 148.67 487.73 149.32 486.47 149.93 485.89 150.56 483.73 154.5 479.33 160.64 477.3 163.49 476.71 164.07 475.97 164.63 475.23 164.98 474.63 165.16 474.18 165.47 473.88 166.23 473.35 166.91 471.26 167.82 470.47 168.34 469.63 170.03 468.9 174.07 467.33 178.9 467.36 181.8 468.74 187.92 469.39 193.71 469.27 203.95 468.93 206.22 467.98 207.74 468.25 208.1 468.24 208.1 467.68 208.34 466.78 208.9 465.77 209.29 464.24 209.44 443.01 209.29 441.84 209.66 440.78 210.74 440.34 212.1 440.14 213.55 439.82 214.92 438.31 217.36 434.2 221.34 432.36 223.55 431.88 224.61 431.77 225.62 432.08 227.83 432.06 229.3 424.42 258.27 424.43 259.6 424.89 260.95 425.77 261.71 428.11 262.65 428.61 263.38 427.83 264.55 421.1 270.33 418.18 273.57 413.45 280.81 412.66 282.8 411.69 286.65 411.21 290.35 409.83 291.76 408.37 292.58 406.7 293.01 402.31 293.65 400.48 294.49 398.89 295.76 397.19 297.48 395.79 299.23 392.16 305.05 391.45 305.95 388.09 309.23 387.69 309.98 387.53 310.82 387.43 312.01 386.82 313.68 385.64 314.73 384.21 315.6 382.46 315.73 380.6 319.11 379.54 320.15 376.29 322.38 375.61 322.19 375.31 321 376.58 317.48 376.56 315.16 375.58 314.09 373.84 313.77 371.54 313.7 371.72 312.71 371.46 312.1 370.98 311.63 370.52 311.01 370.24 310.05 369.87 307.71 369.48 306.88 368.39 306.3 366.96 306.27 364.13 306.61 365.35 304.52 367.15 302.2 368.58 299.73 368.63 297.22 366.74 295.76 366.04 295.42 364.59 295.04 364.04 294.82 363.28 293.95 363.42 293.1 364.19 292.26 365.31 291.45 367.23 289.55 368.26 287.15 368.6 284.47 368.47 281.71 366.51 276.69 366.35 274.56 368.49 274 372.96 275.24 375.03 275.25 375.76 273.77 375.54 273.11 375.18 272.52 374.89 271.91 374.89 271.2 376.35 269.36 376.82 268.32 378.32 266.22 378.74 265.07 378.81 263.06 378.3 261.92 377.23 261.14 375.59 260.19 374.45 259.32 373.78 258.37 373.68 257.27 374.24 255.94 375.12 255.24 376.37 254.97 377.7 255 378.81 255.17 380.04 255.47 380.82 255.58 381.22 255.24 381.31 254.18 381.13 252.76 380.82 251.37 380.64 249.97 380.85 248.53 381.83 246.05 382.01 245.08 382.55 238.34 382.84 237.29 383.47 236.14 383.67 235.11 383.68 234.73 383.63 234.4 382.39 230.56 382.39 229.27 382.95 226.66 382.94 225.5 382.61 224.82 380.96 222.81 380.34 221.4 380.32 220.21 380.77 219.06 382.3 216.4 382.88 214.99 383 213.56 382.42 212.11 381.06 210.69 384.05 206.2 384.44 205.43 384.67 204.49 384.68 203.51 384.4 201.66 384.25 199.13 383.91 197.69 383.37 196.33 381.23 192.48 380.45 191.42 379.43 190.53 377.79 188.78 377.91 187.23 377.9 185.67 377.47 182.74 377 181.48 374.7 177.82 374.22 176.63 373.86 173.89 373.55 172.74 373.37 172.37 373.09 172.19 371.93 171.65 370.83 170.73 369.88 169.62 367.99 166.27 367.65 165.19 367.59 163.74 368 158.59 367.91 158.33 366.64 157.59 366.24 157.11 365.96 156.69 365.59 156.01 365.3 155.24 365.24 154.5 365.27 152.95 365.17 152.14 364.97 151.35 364.63 150.61 363.65 149.2 363.59 148.54 363.7 147.87 363.71 147.11 363.27 145.67 361.93 142.92 361.54 141.35 361.5 140.63 361.51 140.06 361.61 139.51 362.48 137 363.42 136.19 363.86 135.11 363.99 133.9 364.02 132.66 363.86 131.57 363.1 129.93 362.94 129.04 363.17 126.38 363.79 124.16 364.93 122.19 366.74 120.25 367.58 118.73 368.21 116.29 368.45 113.78 368.1 112.03 366.77 109.93 365.91 109.11 364.81 108.78 363.64 108.64 362.85 108.26 361.24 106.95 361.14 106.7 361.51 105.83 361.69 105.23 361.66 104.06 361.91 102.57 361.96 101.51 361.72 99.02 362.4 98.91 363.1 98.23 363.67 97.3 363.98 96.39 363.9 96.07 363.27 95.37 362.95 94.82 362.13 90.75 361.8 90.15 361.63 90.01 361.12 89.77 360.8 89.55 360 88.7 359.85 88.48 359.47 87.61 359.36 86.93 360.45 81.55 360.59 80.26 360.44 78.91 359.56 76.76 359.52 75.43 360.79 71.33 361.23 70.64 363.24 71.57 364.79 70.63 365.05 68.34 364.57 65.74 363.86 63.83 363.43 61.92 363.66 59.6 364.67 54.63 364.6 51.54 364.57 51.23 364.46 50.86 364.25 50.44 363.48 49.83 363.14 49.23 363.14 48.47 363.38 46.52 363.33 45.6 363.15 44.52 362.76 43.55 362.1 42.98 361.48 43.12 360.65 43.45 359.9 43.41 359.49 42.43 359.75 41.98 361.51 40.09 360.71 39.62 359.8 39.4 358.9 39.35 358.12 39.37 357.73 39.03 357.96 38.08 359.31 35.32 361.73 32.8 361.87 32.09 361.06 31.36 357.81 31.64 356.57 31.01 356.54 30.55 356.93 30.05 358.39 28.89 360.09 27.94 363.8 27.24 364.68 27.33 366.82 27.94 370.85 28.39 372.27 28.21 372.44 28.14 372.6 28 372.97 27.54 373.31 26.82 373.36 26.65 373.44 25.28 373.4 24.56 373.28 24.12 373.78 23.77 374.2 23.59 375.44 23.81 376.2 23.79 378.83 23.03 379.77 23.02 384.56 24.15 386.86 25.07 388.96 26.29 393.04 29.98 Z" id="ETH-3111" data-name="Afar"/>
<path d="M 195.8 557.25 195.49 557.17 194.7 556.7 194.24 556.6 185.91 556.77 176.01 556.97 175.33 556.87 174.36 556.4 173.83 556.26 173.27 556.27 171.44 556.51 163.67 556.58 163.46 556.58 162.24 556.29 161.1 555.55 159.04 553.75 158.09 553.15 157.73 552.4 157.75 551.5 157.91 550.43 157.85 549.4 157.15 548.15 157.04 547.23 149.78 539.52 148.48 537.31 148.03 534.72 148.26 523.59 148.53 522.9 150.57 520.33 151 519.26 150.99 518.17 150.52 516.89 149.46 514.87 149.29 513.84 149.65 512.6 151.09 510.51 150.83 510.03 147.91 508.91 144.41 506.76 143.07 506.39 142.08 506.62 141.13 507.06 139.86 507.33 138.57 506.98 136.28 505.13 135.07 504.42 134.11 504.18 133 504.03 131.88 504.03 130.92 504.22 129.75 505 127.58 507.37 126.38 508.2 125.1 508.4 124.12 507.94 123.32 507.05 121.57 504.29 121.36 503.8 121.43 503.15 121.81 502.57 122.27 502.02 122.59 501.42 122.36 500.78 121.96 499.71 119.91 498.06 115.65 495.57 113.27 493.82 112.72 492.8 112.25 489.71 111.49 488.29 107.19 482.19 106.66 481.01 106.56 480.31 106.66 479.73 106.83 479.12 106.95 478.37 106.78 477.77 105.91 476.83 105.64 476.25 105.66 475.63 105.85 475.03 106.41 473.9 106.31 473.29 105.86 470.44 105.44 469.4 104.53 468.28 103.52 467.35 102.64 466.34 101.63 463.74 99.75 460.49 99.49 459.42 99.45 456.29 99.11 454.9 96.98 451.28 96.53 450.2 96.1 447.14 94.92 444.1 94.37 441.95 93.83 439.78 93.46 439.55 92.82 438.82 92.56 437.84 92.24 437.26 88.62 434.87 87.71 434.51 86.55 434.37 84.27 434.37 83.33 434.17 82.72 433.65 82.35 431.46 82.29 431.24 82.05 430.7 81.99 430.37 82.11 430.32 82.6 429.98 82.72 429.83 82.64 428.78 82.41 427.85 82.06 427.05 81.59 426.34 78.16 423.96 70.62 422.16 70.46 421.97 70.09 421.8 69.73 421.55 69.46 420.63 69.2 420.31 67.02 418.71 66.49 418.03 66.16 417.72 65.75 417.59 65.34 417.06 65.2 415.86 65.2 415.29 66.39 414.79 67.95 415.67 69.51 417.01 70.74 417.88 72.11 418.01 73.47 417.67 76.05 416.62 78.01 416.21 80.11 416.2 82.1 416.67 83.71 417.72 85.11 418.85 86.65 419.54 88.31 419.85 90.04 419.81 91.75 419.51 92.98 418.99 94.09 418.18 95.41 416.99 96.92 415.86 98.44 415.19 100.08 414.87 101.98 414.78 105.19 414.93 106.59 414.52 107.27 413.25 108.31 413.6 109.57 413.33 110.72 412.64 111.48 411.74 112.42 412.63 113.73 413.41 115.14 414.01 116.39 414.35 117.72 414.28 119.96 413.24 121.24 413 124.33 413.6 125.58 413.44 125.98 412.17 125.84 411.74 125.33 410.73 125.2 410.19 125.23 409.63 125.43 408.53 125.45 407.98 125.56 407.23 126.19 405.85 126.26 405.14 126.22 404.4 126.3 403.69 127.36 400.03 127.48 398.9 127.1 397.81 126.21 396.96 122.53 395.01 122.02 394.32 122.55 392.76 122.05 391.76 121.04 387.04 120.93 384.46 121.68 382.98 122.59 382.25 123.96 380.37 126.15 378.98 126.37 377.96 126.41 376.81 127.01 375.67 127.32 375.54 128.26 375.55 128.88 375.42 130.16 374.58 130.43 374.34 131.34 373.72 132.13 373.69 132.99 373.76 134.12 373.43 136.41 373.49 137 374.7 137.29 375.76 137.86 376.63 139.29 377.23 140.45 377.18 141.6 376.69 143.67 375.36 144.36 375 145.43 374.62 147.15 374.33 147.53 374.2 148.36 373.63 149.45 372.66 150.38 371.57 150.76 370.66 150.39 369.85 149.56 369.07 147.74 367.83 146.8 366.78 146.83 365.8 148.02 363.93 148.83 363.11 149.95 362.75 151.21 362.7 152.45 362.83 153.64 363.12 154.34 363.65 154.76 364.48 156.22 369.48 156.24 370.75 155.87 371.94 155.22 372.95 153.7 374.86 153.75 375.84 154.74 376.82 158.02 378.83 159.81 379.63 160.6 380.13 161.26 380.87 162.49 383.49 163.71 385.4 163.78 386.21 163.52 387.65 163.39 389.07 163.76 390.09 164.7 390.69 168.84 391.29 170.9 392.54 172.87 394.04 175.19 395.24 178.41 396.42 179.62 396.6 180.04 396.73 180.99 397.37 181.7 397.72 183.67 398.3 184.14 398.34 186.45 398.31 187.47 398.47 188.66 398.84 192.81 400.61 193.85 400.6 202.99 406.66 205.3 407.66 207.73 408.29 210.16 408.55 212.11 408.4 215.96 407.7 220.2 407.97 221.91 407.68 223.47 406.82 226.96 404.13 232.26 401.71 234.01 400.64 234.67 400.85 234.82 400.61 235.52 398.98 235.75 396.54 236.04 395.48 236.34 395.09 237.78 389.51 237.74 388.85 236.47 384.73 236.05 382.7 236.08 377.29 236.21 376.26 236.54 375.3 237.52 373.42 237.79 372.49 237.41 371 235.5 368.9 235.5 367.43 238.76 366.53 240.45 366.3 241.82 366.91 242.89 369.08 243.68 369.65 244.76 369.8 245.85 369.57 247.32 369.14 247.47 368.56 247.46 367.73 247.15 366.77 246.23 365.11 246.02 364.08 246.09 360.25 246.7 355.66 246.67 355.03 246.18 354.74 242.21 353.74 241.36 353.39 240.52 352.79 240.09 352.38 239.92 352.11 239.66 351.18 239.37 350.69 239.6 349.17 240.53 346.85 241.17 345.86 242.03 344.96 243.1 344.4 244.35 344.45 245.36 345.38 246.05 346.78 246.79 347.86 247.96 347.84 251.49 348.28 252.53 348.87 253.29 348.85 254.1 348.61 255.28 348.55 258.88 349.32 260.25 349.28 270.27 346.81 277.54 345.9 280.5 345.18 281.57 345.43 282.48 346.03 283.27 346.83 283.49 347.14 283.68 347.54 284 348.69 284.23 350.89 285.02 352.88 286.97 353.22 289.19 352.46 290.8 351.17 291.24 350.26 291.9 346.84 292.03 346.43 292.26 346 293.07 344.91 294.23 343.65 294.57 343.46 295.59 343.15 296.78 342.91 297.92 343.01 298.8 343.76 302.14 345.4 302.81 346.4 303.26 347.58 303.42 348.81 302.86 351.41 303.05 352.32 303.77 353.05 304.98 353.9 304.1 357.47 304.08 358.71 304.25 359.97 304.24 361.19 303.72 362.28 302.37 360.81 301.77 360 301.36 359.14 300.35 354.83 299.88 353.78 296.76 354.8 297.13 355.93 298.75 358.21 299.18 359.52 299.32 360.28 299.9 362.13 300.66 366.17 300.51 366.75 300.05 367.73 299.29 369.89 297.58 372.76 295.21 375.62 294.05 377.75 292.14 379.64 291.64 380.61 291.3 381.68 290.41 383.68 290.21 384.58 290.07 387.12 290.59 391.12 290.61 392.42 290.11 393.16 289.22 393.58 288.05 393.96 286.69 394.55 285.98 395.19 285.57 396.05 285.17 397.27 284.56 398.36 283.09 400.05 282.61 401.14 282.11 403.34 281.55 404.06 274.26 408.64 272.77 409.9 271.97 411.52 271.62 413.39 271.44 415.38 271.71 416.4 272.62 417.33 274.06 418.08 275.92 418.55 280.79 417.48 281.66 416.82 283.81 414.33 284.26 413.49 285.36 411.89 286.72 412.31 288.41 413.4 290.45 413.78 291.95 414.2 293.68 415.27 295.5 415.96 297.26 415.2 298.65 414.94 300.33 416.32 301.96 418.81 303.17 421.91 301.65 429.94 301.81 431.8 302.22 432.39 303.06 433.09 304.06 433.69 305.85 434.26 312.82 437.8 313.7 437.98 316.26 438.17 317.64 438.54 318.45 439.2 319.03 439.93 321.11 441.29 325.05 444.91 325.92 445.86 326.23 446.87 326.53 449.25 327.83 454.04 327.81 456.43 327.26 457.61 326.47 458.63 325.9 459.65 326.01 460.87 326.88 463.17 327.39 464.2 328.16 465.12 322.92 465.84 320.62 465.64 318.05 463.42 318.05 463.08 317.69 461.85 316.69 460.25 315.13 457.5 313.9 456 313.62 455.49 309.6 453.62 309.14 453.14 308.59 452.16 308.45 451.79 306.54 452.04 305.06 452 304.72 451.93 300.66 450.75 298.54 450.37 296.39 450.28 293.71 450.72 291.84 451.78 290.76 453.58 290.43 456.23 291.09 460.77 290.97 462.32 290.36 463.09 289.39 463.65 288.2 464.55 287.56 465.5 286.9 467.67 285.13 470.91 284.44 471.89 283.53 472.7 283.37 473.11 283.69 473.69 285.09 475.1 288.23 476.85 288.79 477.45 288.61 478.08 284.74 480.61 283.64 480.8 282.52 480.85 281.38 481.11 280.2 480.92 279.17 479.57 272.63 468.12 272.4 467.04 272.46 465.54 272.87 464.4 273.69 464.36 274.82 464.97 276.02 465.14 277.13 464.71 278.01 463.52 278.14 462.22 277.15 460.21 277.27 459.09 278.1 457.11 278.72 456.32 282.16 455.05 283.51 453.11 283.4 450.89 281.46 449.15 280.52 448.93 279.49 448.96 278.4 449.17 277.29 449.49 276.65 449.38 275.3 447.83 274.27 446.89 272.05 445.56 271.48 445.35 270.49 444.77 269.71 443.88 268.88 443.14 267.72 442.99 266.41 443.44 265.73 443.54 264.03 443.45 263.71 443.27 262.53 442.27 261.58 442.31 260.69 443.14 258.2 446.64 257.22 448.89 257.32 451.11 259.08 453.2 260.13 455.2 259.92 457.97 259 460.75 257.99 462.76 256.52 464.83 256.02 465.94 255.91 467.24 256.51 471.15 256.42 472.52 256.78 473.26 257.99 473.63 259.73 473.97 265.08 476.19 266.22 476.81 266.7 477.69 266.99 478.99 268.03 481.26 268.57 483.76 269.12 484.9 270 485.76 271.26 486.17 272.25 486.8 272.61 488.06 272.39 489.39 271.62 490.24 268.24 491.97 265.63 492.44 264.75 493.07 264.4 494.04 265.22 497.72 265.21 500.48 264.67 503.2 263.71 505.5 263.02 506.76 262.65 507.78 262.58 508.87 262.87 511.43 262.81 512.63 262.44 513.69 261.65 514.38 260.39 514.44 259.3 513.8 258.3 512.94 257.32 512.33 254.77 511.62 252.21 510.6 251 510.3 249.9 510.55 249 511.22 248.37 512.19 247.64 512.89 246.4 513.47 244.02 514.32 238.76 517.09 235.98 518.17 233.17 518.33 231.9 517.9 229.7 516.61 228.32 516.25 226.69 516.08 225.88 516.1 220.8 516.84 219.51 516.84 215.49 516.22 214.19 516.36 212.98 517.06 211.4 518.96 210.28 521.22 207.81 529.15 207.77 530.34 208.14 531.7 209.3 534.28 209.65 535.68 209.31 538.77 207.92 541.55 204.07 546.44 201.55 550.36 200.55 552.5 199.79 554.67 199.62 555.01 199.31 555.33 198.28 556 196.43 556.66 195.8 557.25 Z" id="ETH-3129" data-name="Southern Nations, Nationalities and Peoples"/>
<path d="M 122.05 391.76 122.55 392.76 122.02 394.32 122.53 395.01 126.21 396.96 127.1 397.81 127.48 398.9 127.36 400.03 126.3 403.69 126.22 404.4 126.26 405.14 126.19 405.85 125.56 407.23 125.45 407.98 125.43 408.53 125.23 409.63 125.2 410.19 125.33 410.73 125.84 411.74 125.98 412.17 125.58 413.44 124.33 413.6 121.24 413 119.96 413.24 117.72 414.28 116.39 414.35 115.14 414.01 113.73 413.41 112.42 412.63 111.48 411.74 110.72 412.64 109.57 413.33 108.31 413.6 107.27 413.25 106.59 414.52 105.19 414.93 101.98 414.78 100.08 414.87 98.44 415.19 96.92 415.86 95.41 416.99 94.09 418.18 92.98 418.99 91.75 419.51 90.04 419.81 88.31 419.85 86.65 419.54 85.11 418.85 83.71 417.72 82.1 416.67 80.11 416.2 78.01 416.21 76.05 416.62 73.47 417.67 72.11 418.01 70.74 417.88 69.51 417.01 67.95 415.67 66.39 414.79 65.2 415.29 65.2 413.62 64.94 412.53 64.44 411.59 63.71 411.15 62.83 411.57 61.83 411.79 60.81 411.04 59.35 409.23 56.91 407.32 56.57 407.17 56.44 406.89 56.41 401.92 56.04 400.13 55.13 398.66 48.52 391.95 46.93 391.02 46.37 390.89 45.27 390.76 44.75 390.62 42.06 388.64 40.38 386.3 39.66 385.5 39.16 385.25 37.48 384.77 36.03 383.83 35.47 383.68 32.01 384.01 30.87 383.68 30.31 383.28 29.57 382.31 29.06 381.83 28.53 381.57 27.55 381.3 27.07 380.93 26.16 380.59 24.78 380.64 22.48 381.11 22.01 381.33 20.7 382.2 20.02 382.21 17.07 381.46 16.1 380.6 15.27 379.63 14.45 378.92 14 378.79 12.27 378.53 10.75 377.92 10.3 377.84 8.58 378.22 8.3 378.35 7.98 378.79 7.27 378.69 6.09 378.17 4.65 378.01 4.27 377.84 4.08 377.51 3.92 377.02 3.71 376.58 2.79 376.03 2.34 375.2 1 371.66 1.2 371.08 1.91 370.31 1.95 370.23 2.18 369.74 2.44 369.47 2.69 369.1 2.93 367.98 3.2 367.45 3.88 366.53 6.9 363.47 7.22 362.97 7.47 362.43 7.58 361.98 7.8 361.71 9.4 361.44 10.32 361.02 10.98 360.48 11.4 359.74 11.54 358.68 11.38 358.4 10.65 357.88 10.49 357.6 10.5 356.85 10.59 356.31 10.81 355.83 11.21 355.23 11.69 354.88 12.18 354.71 12.56 354.43 12.63 353.75 11.92 353.45 11.43 353.17 11.04 352.57 10.67 352.18 10.29 351.66 10.12 351.04 10.23 350.64 10.69 349.64 10.81 348.99 10.72 348.8 10.24 348.46 10.12 348.29 10.16 348 10.43 347.64 10.49 347.4 10.48 346.5 10.57 346.09 10.81 345.72 11.54 345.37 12.35 345.2 12.74 344.85 12.58 344.54 12.53 344.33 14.06 342.99 15 342.86 20.78 344.13 21.29 343.96 22.02 343.4 22.42 343.19 22.85 343.15 23.54 343.31 27.12 342.89 27.63 342.61 27.65 342.41 27.35 342.02 28.43 341.97 29.33 342.48 30.13 343.12 30.94 343.46 31.95 343.29 32.71 342.86 33.49 342.55 34.57 342.72 36.24 344.12 37.28 345.94 38.57 347.4 40.99 347.71 41.57 347.62 41.8 347.55 44.01 345.66 44.56 345.28 45.42 344.92 46.31 344.68 48.14 344.47 51.15 344.46 52.14 344.19 53.22 343.54 58.49 338.84 59.59 337.62 60.27 336.41 60.49 335.23 61.78 335.9 62.75 336.86 63.37 337.31 64.03 337.16 66.54 335.32 67.83 334.9 69.2 335.03 70.84 335.72 73.53 337.55 78.19 342.02 80.79 344.05 86.15 346.71 87.7 348.01 89.61 350.77 90.69 351.9 92.31 352.61 95.45 353.24 96.44 354 97.33 355.65 98.35 357.03 99.77 357.61 101.42 357.62 105.3 357.03 108.34 356.9 111.21 357.26 112.83 358.44 112.42 359.19 111.07 359.83 108.39 360.72 105.16 362.51 102.77 363.54 102.29 364.19 102.76 364.78 105.38 365.59 105.66 366.15 105.38 366.84 102.02 371.58 101.13 373.78 101.17 376.28 102.27 378.57 103.97 380.21 105.89 381.67 107.67 383.4 108.19 384.55 108.53 387.08 108.98 388.15 109.78 388.79 115.14 390.68 115.84 391.33 115.41 392.22 114.68 392.87 113.83 393.86 113.55 394.76 114.52 395.17 116.13 395.21 116.87 395.37 118.15 395.91 118.49 395.81 118.82 395.52 119.34 395.18 120.4 394.62 121.47 393.86 122.15 392.9 122.05 391.76 Z" id="ETH-3130" data-name="Gambela Peoples"/>
<path d="M 364.13 306.61 366.96 306.27 368.39 306.3 369.48 306.88 369.87 307.71 370.24 310.05 370.52 311.01 370.98 311.63 371.46 312.1 371.72 312.71 371.54 313.7 373.84 313.77 375.58 314.09 376.56 315.16 376.58 317.48 375.31 321 375.61 322.19 376.29 322.38 379.54 320.15 380.6 319.11 382.46 315.73 384.21 315.6 385.64 314.73 386.82 313.68 387.43 312.01 387.53 310.82 387.69 309.98 388.09 309.23 391.45 305.95 392.16 305.05 395.79 299.23 397.19 297.48 398.89 295.76 400.48 294.49 402.31 293.65 406.7 293.01 408.37 292.58 409.83 291.76 411.21 290.35 411.5 290.2 411.71 290.13 411.95 290.14 412.3 290.2 415.26 290.21 417.88 289.7 420.36 289.68 422.9 291.16 423.4 292.24 422.68 292.94 421.35 293.3 420.02 293.38 417.63 292.86 416.68 293 416.47 294.06 416.8 295.41 417.29 296.51 418.07 297.29 419.27 297.66 420.39 297.61 421.71 297.34 424.05 296.52 425.73 295.43 426.29 295.15 426.86 295.04 427.46 295.02 428.03 294.94 428.53 294.66 429.5 293.84 430.54 293.13 431.65 292.55 434.21 291.62 435.44 291.05 436.59 290.34 437.73 289.45 439.16 287.95 439.74 287.58 441.81 287.08 444.09 287.17 448.49 288.03 452.55 289.46 453.7 289.54 454.67 289.05 456.53 287.45 457.6 286.9 458.83 286.61 460.19 286.46 461.38 286.65 462.09 287.37 462.83 288.44 463.98 288.99 465.33 289.09 466.68 288.79 468.34 288.04 469.86 288.14 471.39 288.38 473.05 288.05 473.73 287.98 475.22 288.51 475.92 288.66 476.55 288.61 477.13 288.45 480.16 287.12 481.59 287.16 484.77 288.73 485.69 287.57 487.22 286.38 488.53 285.16 488.76 283.89 487.75 282.27 487.53 281.61 487.8 281.15 488.54 280.64 490.12 279.78 491.42 279.3 494.12 279.08 495.03 278.65 495.83 277.84 497.83 276.22 498.84 275.66 500.96 276.3 501.63 278.58 501.29 283.79 502.98 284.12 504.91 286.05 506.63 288.5 510.06 295.3 510.2 295.75 510.29 296.96 510.44 297.79 512.21 302.82 512.81 303.88 513.79 304.84 514 305.27 513.89 306.69 514 307.64 514.97 309.74 518.23 314.91 521.94 318.93 523 319.89 525.34 321.58 526.3 322.51 526.76 324.65 525.04 329.59 525.62 331.99 528.33 334.78 528.91 335.85 529.22 337.15 529.36 338.6 529.31 340.05 528.84 342.64 528.75 344.07 528.43 345.3 527.53 346.01 522.82 347.22 521.7 347.79 520.28 349.83 518.16 357.57 516.27 359.76 514.46 359.39 512.86 357.47 511.58 354.96 510.63 352.18 509.08 343.27 507.49 341.03 504.46 339.77 498.08 338.57 497.36 337.9 495.28 334.1 491.71 335.05 486.68 339.29 484.47 341.55 482.4 344.16 482.02 345.44 482.33 348.54 482.24 349.94 481.59 351.38 478.62 355.54 477.54 358.13 477.03 361.1 476.3 373.98 476.47 375.32 476.97 376.59 477.91 378.16 478.2 380.48 477.3 383.47 474.86 388.9 474.11 391.08 473.96 392.1 474.03 393.3 474.51 396.13 474.93 397.72 475.44 398.54 491.73 404.89 492.1 405.3 492.77 408.63 492.53 411.17 491.78 413.57 490.72 415.22 490.51 415.64 490.46 416.25 490.52 417.42 490.42 418.11 490.15 418.7 489.43 419.79 488.79 421.46 488.67 421.43 488.48 421.71 488.12 421.99 487.85 422.4 487.98 423.07 486.19 424.02 485.64 424.79 485.43 426.17 485.32 426.47 484.82 427.41 484.71 427.99 484.91 429.17 484.82 429.7 484.34 430.37 484.89 431.36 484.38 432.59 482.89 434.76 481.97 438.47 481.43 439.49 480.73 440.53 480.58 440.95 480.32 441.44 479.93 442.01 478.55 443.42 478.17 443.7 477.04 444.31 475.83 444.79 474.57 445.08 473.29 445.13 472.48 443.38 470.4 443.59 468.1 444.91 466.62 446.49 464.81 450.05 463.99 451.02 461.99 452.38 461.16 453.14 460.56 454.35 451.9 445.54 450.81 444.73 449.6 444.08 448.29 443.65 445.62 443.23 439.01 439.74 436.49 438.03 433.94 436.85 431.36 436.98 430.08 437.73 428.96 438.79 426.32 442.31 423.21 445.31 422.36 446.45 420.27 450.18 419.91 451.37 420.35 453.93 420.19 456.13 420.5 457.35 420.93 458.58 421.19 459.69 421.25 461.06 421.19 462.43 421 463.78 420.67 465.11 420.29 467.85 421.02 477.98 420.94 482.22 421.06 483.75 421.44 485.18 423.32 489.72 419.45 492.58 411.7 496.86 403.31 504.42 402.36 504.84 400.97 505.1 400.59 505.33 400.13 505.54 397.66 505.54 393.69 506.44 391.49 506.63 389.84 507 388.47 506.94 388.02 507 385.32 507.95 384.19 508.09 380.35 507.33 378.44 506.54 376.93 505.68 376.13 505.72 374.98 506.56 369.92 513.84 366.66 522.23 364.65 526.16 363.55 530.51 361.98 534.87 360.97 540.68 360.8 543.81 360.47 545.22 352.12 564.56 350.15 567.02 349.8 567.72 348.67 572.4 346.98 576.91 346.73 578.02 346.84 579.08 347.51 581.28 345.98 584.59 338.7 597.02 336.98 599.23 334.9 600.58 330.38 602.53 326.04 604.89 326.41 605.29 325.78 605.84 325.1 605.53 324.59 605.41 321.53 606.05 320.7 606.06 319.9 605.77 319.01 605.64 316.78 606.08 315.39 606.1 311.42 605.02 306.17 603.6 305.2 603.07 304.37 602.23 302.92 600.33 302.95 600.68 302.87 601.43 302.88 601.79 299.78 601.57 299.5 601.38 299.44 601.1 299.34 600.92 298.59 601.21 298.3 601.25 297.6 601.18 296.86 600.99 296.65 600.68 296.55 600.26 296.12 599.75 295.11 598.91 294.83 598.79 294.32 599 294.21 599.44 294.25 599.92 294.19 600.22 291.47 601.41 288.49 601.66 282.8 601.02 277.15 600.38 275.48 600.52 273.81 600.93 273.16 600.82 271.93 599.76 270.34 599.27 269.66 598.89 268.84 597.92 267.48 595.75 266.49 594.77 264.85 593.71 259.54 590.3 254.48 587.04 248.98 583.51 244.1 580.37 239.78 577.59 233.71 573.7 228.52 570.36 223.33 567.02 220.45 565.17 220.14 565.09 219.82 565.1 219.54 565.04 219.37 564.75 219.1 563.57 218.89 563.05 218.54 562.58 218.14 562.45 217.07 562.53 216.68 562.27 215.84 560.86 215.33 560.47 213.15 559.97 209.37 558.07 206.19 557.19 195.93 557.28 195.8 557.25 196.43 556.66 198.28 556 199.31 555.33 199.62 555.01 199.79 554.67 200.55 552.5 201.55 550.36 204.07 546.44 207.92 541.55 209.31 538.77 209.65 535.68 209.3 534.28 208.14 531.7 207.77 530.34 207.81 529.15 210.28 521.22 211.4 518.96 212.98 517.06 214.19 516.36 215.49 516.22 219.51 516.84 220.8 516.84 225.88 516.1 226.69 516.08 228.32 516.25 229.7 516.61 231.9 517.9 233.17 518.33 235.98 518.17 238.76 517.09 244.02 514.32 246.4 513.47 247.64 512.89 248.37 512.19 249 511.22 249.9 510.55 251 510.3 252.21 510.6 254.77 511.62 257.32 512.33 258.3 512.94 259.3 513.8 260.39 514.44 261.65 514.38 262.44 513.69 262.81 512.63 262.87 511.43 262.58 508.87 262.65 507.78 263.02 506.76 263.71 505.5 264.67 503.2 265.21 500.48 265.22 497.72 264.4 494.04 264.75 493.07 265.63 492.44 268.24 491.97 271.62 490.24 272.39 489.39 272.61 488.06 272.25 486.8 271.26 486.17 270 485.76 269.12 484.9 268.57 483.76 268.03 481.26 266.99 478.99 266.7 477.69 266.22 476.81 265.08 476.19 259.73 473.97 257.99 473.63 256.78 473.26 256.42 472.52 256.51 471.15 255.91 467.24 256.02 465.94 256.52 464.83 257.99 462.76 259 460.75 259.92 457.97 260.13 455.2 259.08 453.2 257.32 451.11 257.22 448.89 258.2 446.64 260.69 443.14 261.58 442.31 262.53 442.27 263.71 443.27 264.03 443.45 265.73 443.54 266.41 443.44 267.72 442.99 268.88 443.14 269.71 443.88 270.49 444.77 271.48 445.35 272.05 445.56 274.27 446.89 275.3 447.83 276.65 449.38 277.29 449.49 278.4 449.17 279.49 448.96 280.52 448.93 281.46 449.15 283.4 450.89 283.51 453.11 282.16 455.05 278.72 456.32 278.1 457.11 277.27 459.09 277.15 460.21 278.14 462.22 278.01 463.52 277.13 464.71 276.02 465.14 274.82 464.97 273.69 464.36 272.87 464.4 272.46 465.54 272.4 467.04 272.63 468.12 279.17 479.57 280.2 480.92 281.38 481.11 282.52 480.85 283.64 480.8 284.74 480.61 288.61 478.08 288.79 477.45 288.23 476.85 285.09 475.1 283.69 473.69 283.37 473.11 283.53 472.7 284.44 471.89 285.13 470.91 286.9 467.67 287.56 465.5 288.2 464.55 289.39 463.65 290.36 463.09 290.97 462.32 291.09 460.77 290.43 456.23 290.76 453.58 291.84 451.78 293.71 450.72 296.39 450.28 298.54 450.37 300.66 450.75 304.72 451.93 305.06 452 306.54 452.04 308.45 451.79 308.59 452.16 309.14 453.14 309.6 453.62 313.62 455.49 313.9 456 315.13 457.5 316.69 460.25 317.69 461.85 318.05 463.08 318.05 463.42 320.62 465.64 322.92 465.84 328.16 465.12 327.39 464.2 326.88 463.17 326.01 460.87 325.9 459.65 326.47 458.63 327.26 457.61 327.81 456.43 327.83 454.04 326.53 449.25 326.23 446.87 325.92 445.86 325.05 444.91 321.11 441.29 319.03 439.93 318.45 439.2 317.64 438.54 316.26 438.17 313.7 437.98 312.82 437.8 305.85 434.26 304.06 433.69 303.06 433.09 302.22 432.39 301.81 431.8 301.65 429.94 303.17 421.91 301.96 418.81 300.33 416.32 298.65 414.94 297.26 415.2 295.5 415.96 293.68 415.27 291.95 414.2 290.45 413.78 288.41 413.4 286.72 412.31 285.36 411.89 284.26 413.49 283.81 414.33 281.66 416.82 280.79 417.48 275.92 418.55 274.06 418.08 272.62 417.33 271.71 416.4 271.44 415.38 271.62 413.39 271.97 411.52 272.77 409.9 274.26 408.64 281.55 404.06 282.11 403.34 282.61 401.14 283.09 400.05 284.56 398.36 285.17 397.27 285.57 396.05 285.98 395.19 286.69 394.55 288.05 393.96 289.22 393.58 290.11 393.16 290.61 392.42 290.59 391.12 290.07 387.12 290.21 384.58 290.41 383.68 291.3 381.68 291.64 380.61 292.14 379.64 294.05 377.75 295.21 375.62 297.58 372.76 299.29 369.89 300.05 367.73 300.51 366.75 300.66 366.17 299.9 362.13 299.32 360.28 299.18 359.52 298.75 358.21 297.13 355.93 296.76 354.8 299.88 353.78 300.35 354.83 301.36 359.14 301.77 360 302.37 360.81 303.72 362.28 304.24 361.19 304.25 359.97 304.08 358.71 304.1 357.47 304.98 353.9 303.77 353.05 303.05 352.32 302.86 351.41 303.42 348.81 303.26 347.58 302.81 346.4 302.14 345.4 298.8 343.76 297.92 343.01 296.78 342.91 295.59 343.15 294.57 343.46 294.23 343.65 293.07 344.91 292.26 346 292.03 346.43 291.9 346.84 291.24 350.26 290.8 351.17 289.19 352.46 286.97 353.22 285.02 352.88 284.23 350.89 284 348.69 283.68 347.54 283.49 347.14 283.27 346.83 282.48 346.03 281.57 345.43 280.5 345.18 277.54 345.9 270.27 346.81 260.25 349.28 258.88 349.32 255.28 348.55 254.1 348.61 253.29 348.85 252.53 348.87 251.49 348.28 247.96 347.84 246.79 347.86 246.05 346.78 245.36 345.38 244.35 344.45 243.1 344.4 242.03 344.96 241.17 345.86 240.53 346.85 239.6 349.17 239.37 350.69 239.66 351.18 239.92 352.11 240.09 352.38 240.52 352.79 241.36 353.39 242.21 353.74 246.18 354.74 246.67 355.03 246.7 355.66 246.09 360.25 246.02 364.08 246.23 365.11 247.15 366.77 247.46 367.73 247.47 368.56 247.32 369.14 245.85 369.57 244.76 369.8 243.68 369.65 242.89 369.08 241.82 366.91 240.45 366.3 238.76 366.53 235.5 367.43 235.5 368.9 237.41 371 237.79 372.49 237.52 373.42 236.54 375.3 236.21 376.26 236.08 377.29 236.05 382.7 236.47 384.73 237.74 388.85 237.78 389.51 236.34 395.09 236.04 395.48 235.75 396.54 235.52 398.98 234.82 400.61 234.67 400.85 234.01 400.64 232.26 401.71 226.96 404.13 223.47 406.82 221.91 407.68 220.2 407.97 215.96 407.7 212.11 408.4 210.16 408.55 207.73 408.29 205.3 407.66 202.99 406.66 193.85 400.6 192.81 400.61 188.66 398.84 187.47 398.47 186.45 398.31 184.14 398.34 183.67 398.3 181.7 397.72 180.99 397.37 180.04 396.73 179.62 396.6 178.41 396.42 175.19 395.24 172.87 394.04 170.9 392.54 168.84 391.29 164.7 390.69 163.76 390.09 163.39 389.07 163.52 387.65 163.78 386.21 163.71 385.4 162.49 383.49 161.26 380.87 160.6 380.13 159.81 379.63 158.02 378.83 154.74 376.82 153.75 375.84 153.7 374.86 155.22 372.95 155.87 371.94 156.24 370.75 156.22 369.48 154.76 364.48 154.34 363.65 153.64 363.12 152.45 362.83 151.21 362.7 149.95 362.75 148.83 363.11 148.02 363.93 146.83 365.8 146.8 366.78 147.74 367.83 149.56 369.07 150.39 369.85 150.76 370.66 150.38 371.57 149.45 372.66 148.36 373.63 147.53 374.2 147.15 374.33 145.43 374.62 144.36 375 143.67 375.36 141.6 376.69 140.45 377.18 139.29 377.23 137.86 376.63 137.29 375.76 137 374.7 136.41 373.49 134.12 373.43 132.99 373.76 132.13 373.69 131.34 373.72 130.43 374.34 130.16 374.58 128.88 375.42 128.26 375.55 127.32 375.54 127.01 375.67 126.41 376.81 126.37 377.96 126.15 378.98 123.96 380.37 122.59 382.25 121.68 382.98 120.93 384.46 121.04 387.04 122.05 391.76 122.15 392.9 121.47 393.86 120.4 394.62 119.34 395.18 118.82 395.52 118.49 395.81 118.15 395.91 116.87 395.37 116.13 395.21 114.52 395.17 113.55 394.76 113.83 393.86 114.68 392.87 115.41 392.22 115.84 391.33 115.14 390.68 109.78 388.79 108.98 388.15 108.53 387.08 108.19 384.55 107.67 383.4 105.89 381.67 103.97 380.21 102.27 378.57 101.17 376.28 101.13 373.78 102.02 371.58 105.38 366.84 105.66 366.15 105.38 365.59 102.76 364.78 102.29 364.19 102.77 363.54 105.16 362.51 108.39 360.72 111.07 359.83 112.42 359.19 112.83 358.44 111.21 357.26 108.34 356.9 105.3 357.03 101.42 357.62 99.77 357.61 98.35 357.03 97.33 355.65 96.44 354 95.45 353.24 92.31 352.61 90.69 351.9 89.61 350.77 87.7 348.01 86.15 346.71 80.79 344.05 78.19 342.02 73.53 337.55 70.84 335.72 69.2 335.03 67.83 334.9 66.54 335.32 64.03 337.16 63.37 337.31 62.75 336.86 61.78 335.9 60.49 335.23 60.74 333.89 59.97 318.49 59.2 303.09 61.68 303.13 71.64 303.99 73.11 303.82 74.14 303.16 74.9 302.18 75.48 301.28 75.94 300.29 76.35 299.06 78.41 289.81 79.49 279.99 80.83 279.22 81.99 279.19 83.97 278.84 84.92 279.03 86.19 279.87 88.62 282 90 282.75 91.66 282.53 97.64 276.14 99.7 272.38 102.8 262.74 102.35 261.92 101.61 261.12 101.07 259.88 101.37 259.41 108.15 259.91 109.05 260.18 109.34 260.75 109.23 262.08 109.32 263.38 109.9 264.25 111.3 264.28 115.44 263.71 117.19 263.78 119.69 264.14 120.69 264.17 121.75 264.35 122.88 264.91 124.87 266.42 135.59 277.01 142.84 285.76 145.48 288.38 147.71 288.04 148.41 288.05 149.16 289.04 150.2 291.31 150.35 291.98 150.28 294.92 150.84 295.59 151.49 295.91 152.14 296.01 153.69 295.91 155.77 296.04 156.81 295.98 157.36 296.19 157.76 296.9 158.17 297.92 160.1 301.25 160.63 301.91 161.23 301.99 162.93 301.81 163.77 302.81 164.53 306.13 165.72 306.63 173.49 296.57 174.97 292.28 175.63 288.46 175.29 285.54 173.73 283.96 172.83 283.39 169.21 279.22 167.56 277.8 167.63 277.53 168.66 276.73 169.12 275.86 169.07 274.81 168.5 273.49 168.19 272.41 168.52 267.4 168.07 258.03 168.69 258.02 169.64 258.7 170.68 258.66 171.72 258.25 173.85 257.08 178.58 253.71 180.32 251.72 183.18 247.19 183.97 246.2 185.93 244.15 186.94 243.37 188 242.92 191.33 242.57 191.63 242.79 189.82 247.96 189.66 248.59 189.91 248.88 190.89 249.18 191.77 249.59 192.69 249.83 193.81 249.64 194.98 247.23 195.68 246.67 200.38 244.36 201.31 244.4 203.62 245.8 206.51 246.98 207.65 247.86 213.17 249.52 214.14 249.62 214.84 249.28 215.37 248.54 215.89 247.56 216.27 246.48 216.95 244.66 218.51 245.91 219.51 246.48 220.55 246.84 224.13 246.85 224.95 247.24 225.12 248.69 224.32 250.2 223.7 251.82 224.4 253.62 225.67 254.91 226.18 255.19 226.51 255.27 226.82 255.24 227.46 255.1 228.17 255.13 229.08 255.35 229.89 255.74 230.33 256.28 230.42 256.92 230.44 258.08 230.63 258.69 230.89 259.18 231.25 259.61 231.69 259.87 232.25 259.8 232.83 259.19 233.02 258.41 233.28 257.74 234.07 257.45 235.91 257.66 237.7 258.2 242.78 260.42 243.53 260.98 244.6 262.47 245.86 263.88 246.13 264.54 246.93 265.47 251.91 269.15 252.76 269.1 254.27 268.31 255.06 268.14 255.54 268.22 255.95 268.34 256.37 268.39 256.87 268.26 260.65 266.18 261.11 265.7 261.6 265 261.89 264.69 262.28 264.48 262.8 264.39 263.76 264.33 264.26 264.13 266.74 262.4 274.28 258.88 277.47 258.06 277.97 257.83 278.39 257.55 279.73 256.24 279.82 256.09 280.22 255.08 280.39 254.86 280.84 254.58 282.35 254.26 283.8 253.74 284.32 253.63 284.85 253.64 286.21 253.99 287.48 254.02 288.84 253.79 290.03 253.21 290.79 252.18 290.9 251.59 290.82 251.04 290.49 249.94 290.43 249.18 290.73 248.88 291.21 248.69 291.69 248.3 292.02 247.69 293.44 241.94 293.71 241.44 294.24 241.03 306.68 240.43 312.83 241.47 313.77 242.23 313.71 244.17 311.44 254.85 310.74 255.63 307.23 257.49 305.2 257.95 303.05 257.51 303.17 259.11 304.22 260.09 307.6 261.34 308.05 261.62 308.55 262.03 309.13 262.59 310.15 263.97 310.25 264.34 310.33 267.01 310.73 269.61 311.67 272.02 313.41 274.14 316.81 275.8 326.52 277.75 332.7 280.42 335.27 284.14 337.17 287.5 338.88 289.76 340.83 290.15 342.06 290.07 343.63 290.37 344.76 291 344.55 292.3 344.89 292.77 348.04 295.97 347.95 296.01 346.08 295.35 344.71 295.59 342.09 297.48 341.42 297.77 336.82 298.1 335.58 298.02 334.7 298.09 334.36 298.54 334.51 300.05 334.97 302 335.74 303.75 336.81 304.67 339.66 305.23 340.75 306.04 340.9 307.62 340.28 309.36 335.67 316.74 335.84 319.8 335.73 320.8 335.82 321.69 337.17 324.57 337.53 325.16 338.23 325.63 339.17 325.87 340.32 325.76 343.07 323.08 343.87 322.79 345.49 323.36 347.39 326.25 348.75 327 349.87 326.74 352.4 324.92 354.25 323.85 359.72 321.9 361.37 320.86 361.91 319.33 361.76 308.5 364.13 306.61 Z M 183.17 295.95 183.34 295.92 183.55 294.8 184.22 294.49 186 294.81 184.81 292.34 184.65 291.17 185.2 290.14 187.33 289.21 187.74 288.8 187.75 288.17 187.48 287.73 185.72 286.45 184.78 286.21 183.82 286.43 182.77 287.12 182.12 287.87 181.81 288.67 181.26 290.72 182.51 294.92 183.14 295.95 183.17 295.95 Z M 309.89 310.05 309.61 309.88 309.27 309.13 309 308.92 308.35 308.97 306.24 309.45 305.54 309.67 304.7 310.4 303.77 311.68 302.98 313.09 302.6 314.19 302.71 314.38 303.08 314.87 302.98 315.26 303.19 315.64 303.52 316.06 303.8 316.54 304.12 317.69 304.28 318.1 304.67 318.61 305.21 319.12 305.56 319.26 305.9 319.3 306.36 319.5 306.96 319.96 307.44 320.46 308.45 321.74 309.06 322.22 310.14 322.79 311.2 322.93 311.77 322.12 312.16 321.05 312.86 320.94 313.64 321.05 314.3 320.64 314.36 319.84 313.56 317.86 313.41 316.92 314.51 317.24 315.06 317.34 315.64 317.34 315.5 316.69 315.64 316.14 315.9 315.56 316.07 314.84 316.01 313.79 315.72 312.85 314.4 309.88 313.26 309.76 311.92 309.81 311.49 309.61 311.3 308.85 310.17 309.89 309.89 310.05 Z M 173.46 315.82 172.83 316.05 172.13 316.04 171.44 315.76 170.84 315.16 170.42 314.52 170.42 314.26 170.73 314.03 171.23 313.47 171.03 313.38 170.89 313.29 170.71 313.14 169.9 312.95 169.14 312.7 168.45 312.6 167.85 312.87 166.93 312.72 164.68 312.14 163.86 312.19 163.48 312.73 163.4 313.62 163.41 314.59 163.32 315.39 163.01 315.93 162.09 316.98 161.76 317.65 161.72 318.28 161.98 319.6 161.94 320.24 161.89 320.36 161.83 320.46 161.66 320.66 161.91 321.23 162.27 321.64 162.76 321.94 163.34 322.16 163.45 321.87 163.76 321.77 164.76 321.79 165.02 321.76 165.6 321.64 165.83 321.64 166.08 321.77 166.41 322.24 166.58 322.36 167.73 322.33 168.49 321.87 169.83 320.51 170.32 321.28 171.64 322.32 172.18 322.98 172.27 323.42 172.18 323.82 172.17 324.25 172.5 324.8 172.87 325.06 173.34 325.22 174.34 325.35 174.21 324.74 173.97 324.21 173.35 323.27 174.1 322.92 174.12 322.2 173.62 321.5 172.84 321.19 172.7 320.05 172.78 318.41 173.05 316.82 173.46 315.82 Z M 176.03 317.61 176.99 317.48 177.61 317.29 178.21 317.01 178.74 316.63 179.12 316.12 178.31 315.7 177.32 314.55 176.68 314.17 174.37 315.4 174.04 315.71 173.91 316.03 174 316.34 174.35 316.66 175.11 317.07 175.54 317.43 176.03 317.61 Z M 494.34 293.53 493.21 293.63 491.95 294.25 490.78 294.64 489.38 294.27 488.42 293.66 487.54 293.59 486.35 294.87 484.75 297.58 484.21 299.01 483.94 300.61 484.07 301.78 484.88 301.95 485.98 301.72 487.01 301.67 487.49 301.93 488.28 302.69 488.71 302.91 489.45 302.83 490.18 302.48 490.9 302.23 491.61 302.4 493.1 303.71 493.92 303.97 494.84 303.43 495.28 302.41 494.97 301.45 494.41 300.5 494.08 299.51 494.2 298.84 494.83 297.71 494.94 297.09 494.96 296.52 495.16 295.15 495.16 294.69 494.34 293.53 Z" fill-rule="evenodd" id="ETH-3131" data-name="Oromiya"/>
<path d="M 176.99 317.48 176.03 317.61 175.54 317.43 175.11 317.07 174.35 316.66 174 316.34 173.91 316.03 174.04 315.71 174.37 315.4 176.68 314.17 177.32 314.55 178.31 315.7 179.12 316.12 178.74 316.63 178.21 317.01 177.61 317.29 176.99 317.48 Z M 166.93 312.72 167.85 312.87 168.45 312.6 169.14 312.7 169.9 312.95 170.71 313.14 170.89 313.29 171.03 313.38 171.23 313.47 170.73 314.03 170.42 314.26 170.42 314.52 170.84 315.16 171.44 315.76 172.13 316.04 172.83 316.05 173.46 315.82 173.05 316.82 172.78 318.41 172.7 320.05 172.84 321.19 173.62 321.5 174.12 322.2 174.1 322.92 173.35 323.27 173.97 324.21 174.21 324.74 174.34 325.35 173.34 325.22 172.87 325.06 172.5 324.8 172.17 324.25 172.18 323.82 172.27 323.42 172.18 322.98 171.64 322.32 170.32 321.28 169.83 320.51 168.49 321.87 167.73 322.33 166.58 322.36 166.41 322.24 166.08 321.77 165.83 321.64 165.6 321.64 165.02 321.76 164.76 321.79 163.76 321.77 163.45 321.87 163.34 322.16 162.76 321.94 162.27 321.64 161.91 321.23 161.66 320.66 161.83 320.46 161.89 320.36 161.94 320.24 161.98 319.6 161.72 318.28 161.76 317.65 162.09 316.98 163.01 315.93 163.32 315.39 163.41 314.59 163.4 313.62 163.48 312.73 163.86 312.19 164.68 312.14 166.93 312.72 Z M 184.81 292.34 186 294.81 184.22 294.49 183.55 294.8 183.34 295.92 183.17 295.95 183.14 295.95 182.51 294.92 181.26 290.72 181.81 288.67 182.12 287.87 182.77 287.12 183.82 286.43 184.78 286.21 185.72 286.45 187.48 287.73 187.75 288.17 187.74 288.8 187.33 289.21 185.2 290.14 184.65 291.17 184.81 292.34 Z M 148.78 152.28 150.99 152.48 152.61 152.47 153.14 152.55 153.29 152.84 153.81 153.57 155.18 153.74 156.66 153.76 157.53 153.98 157.77 154.23 159.08 154.97 159.55 155.59 160.23 157 160.89 157.73 163.14 159.57 163.38 159.89 165.22 162.92 166.54 164.43 167.09 165.7 167.47 168.38 168.26 170.78 169.33 171.28 170.4 171.14 171.4 170.53 173.63 168.17 175.75 166.38 177.81 164.92 179.04 164.5 179.42 165.08 179.16 168.61 179.4 173.35 180.02 174.35 181.82 176.15 184.91 180.82 185 181.24 184.38 182.11 183.3 183.15 182.86 184.26 184.12 185.32 185.03 185.87 188.26 189.12 188.13 191.23 187.29 192.81 186.32 194.08 185.81 195.28 185.93 196.23 186.22 197.34 186.32 198.44 185.9 199.37 185.69 200.03 187.28 203.4 185.97 205.72 184.49 207.27 181.74 209.36 180.89 210.22 179.99 211.33 179.31 212.43 179.17 213.27 179.19 213.98 177.87 216.97 177.73 218.57 177.74 220.08 177.85 221.04 178.01 220.97 178.48 219.9 179.25 219.17 180.26 218.81 181.46 218.83 182.17 219.73 178.7 227.54 179.09 230.49 179.89 232.75 180.95 234.47 182.13 235.8 183.41 236.61 184.68 236.71 187.31 235.47 187.89 235.37 188.5 235.6 189.05 236.38 189.06 237.28 188.91 238.23 188.99 239.17 189.71 240.19 190.77 240.58 193.22 240.55 199.29 241.1 199.79 241.07 201.08 240.7 201.54 240.72 201.86 240.97 202.14 241.32 202.49 241.65 202.99 241.91 203.54 242.05 206.03 242.2 207.11 242.44 209.29 243.21 216.95 244.66 216.27 246.48 215.89 247.56 215.37 248.54 214.84 249.28 214.14 249.62 213.17 249.52 207.65 247.86 206.51 246.98 203.62 245.8 201.31 244.4 200.38 244.36 195.68 246.67 194.98 247.23 193.81 249.64 192.69 249.83 191.77 249.59 190.89 249.18 189.91 248.88 189.66 248.59 189.82 247.96 191.63 242.79 191.33 242.57 188 242.92 186.94 243.37 185.93 244.15 183.97 246.2 183.18 247.19 180.32 251.72 178.58 253.71 173.85 257.08 171.72 258.25 170.68 258.66 169.64 258.7 168.69 258.02 168.07 258.03 168.52 267.4 168.19 272.41 168.5 273.49 169.07 274.81 169.12 275.86 168.66 276.73 167.63 277.53 167.56 277.8 169.21 279.22 172.83 283.39 173.73 283.96 175.29 285.54 175.63 288.46 174.97 292.28 173.49 296.57 165.72 306.63 164.53 306.13 163.77 302.81 162.93 301.81 161.23 301.99 160.63 301.91 160.1 301.25 158.17 297.92 157.76 296.9 157.36 296.19 156.81 295.98 155.77 296.04 153.69 295.91 152.14 296.01 151.49 295.91 150.84 295.59 150.28 294.92 150.35 291.98 150.2 291.31 149.16 289.04 148.41 288.05 147.71 288.04 145.48 288.38 142.84 285.76 135.59 277.01 124.87 266.42 122.88 264.91 121.75 264.35 120.69 264.17 119.69 264.14 117.19 263.78 115.44 263.71 111.3 264.28 109.9 264.25 109.32 263.38 109.23 262.08 109.34 260.75 109.05 260.18 108.15 259.91 101.37 259.41 101.07 259.88 101.61 261.12 102.35 261.92 102.8 262.74 99.7 272.38 97.64 276.14 91.66 282.53 90 282.75 88.62 282 86.19 279.87 84.92 279.03 83.97 278.84 81.99 279.19 80.83 279.22 79.49 279.99 78.41 289.81 76.35 299.06 75.94 300.29 75.48 301.28 74.9 302.18 74.14 303.16 73.11 303.82 71.64 303.99 61.68 303.13 59.2 303.09 58.54 289.81 58.34 285.73 60.01 277.83 66.6 259.39 69.73 256.51 70.94 254.73 71.02 254.14 70.84 252.84 70.85 252.24 71 251.96 71.51 251.43 71.68 251.13 72.13 248.87 72.08 246.47 69.48 234.76 69.25 232.55 69.66 230.67 74.24 224.27 76.3 220.32 77.14 219.21 78.06 218.42 84.48 214.04 85.38 213.71 86.03 213.96 92.48 219.57 94.04 220.56 94.75 221.17 95.08 221.98 94.87 223.58 94.94 224.35 95.5 224.56 95.93 224.13 96.64 222.5 97.29 221.93 98.19 221.84 98.84 222.03 99.42 221.96 100.1 221.07 100.42 220.13 100.43 219.48 100.65 218.85 101.62 217.94 104.5 215.77 105.39 214.5 105.8 212.68 105.51 211.88 103.93 210.74 103.42 210.04 103.46 209.46 106.97 199.27 107.17 197.61 106.5 196.52 105.57 195.5 105.05 194.06 105.2 192.9 111.91 178.31 112.11 177.26 111.98 176.27 110.87 174.1 110.48 173.01 110.58 170.83 110.18 168.81 110.21 167.74 110.59 166.47 111.16 165.17 111.89 163.94 112.7 162.91 114.76 161.6 115.93 161.16 119.49 159.81 121.1 158.03 121.21 157.51 121.24 156.54 122.65 157.72 124.69 162.48 126.17 164.04 127.52 165.18 128.76 165.8 129.91 165.8 132.89 164.85 134.42 164.61 135.89 164.73 137 164.58 138.1 163.69 139.4 162.37 146.14 157.15 146.98 155.99 148.44 152.53 148.78 152.28 Z" fill-rule="evenodd" id="ETH-3132" data-name="Benshangul-Gumaz"/>
<path d="M 309.89 310.05 310.17 309.89 311.3 308.85 311.49 309.61 311.92 309.81 313.26 309.76 314.4 309.88 315.72 312.85 316.01 313.79 316.07 314.84 315.9 315.56 315.64 316.14 315.5 316.69 315.64 317.34 315.06 317.34 314.51 317.24 313.41 316.92 313.56 317.86 314.36 319.84 314.3 320.64 313.64 321.05 312.86 320.94 312.16 321.05 311.77 322.12 311.2 322.93 310.14 322.79 309.06 322.22 308.45 321.74 307.44 320.46 306.96 319.96 306.36 319.5 305.9 319.3 305.56 319.26 305.21 319.12 304.67 318.61 304.28 318.1 304.12 317.69 303.8 316.54 303.52 316.06 303.19 315.64 302.98 315.26 303.08 314.87 302.71 314.38 302.6 314.19 302.98 313.09 303.77 311.68 304.7 310.4 305.54 309.67 306.24 309.45 308.35 308.97 309 308.92 309.27 309.13 309.61 309.88 309.89 310.05 Z" id="ETH-3133" data-name="Addis Ababa"/>
<path d="M 529.86 207.6 529.2 208.74 528.66 210.91 528.25 211.81 527.36 212.56 525.13 213.48 524.31 214.32 523.89 215.38 523.68 216.26 523.34 217.08 522.51 217.95 520.6 219.47 519.98 220.33 519.47 221.62 518.96 223.78 518.57 224.83 517.93 225.72 516.9 226.29 515.83 226.62 515.14 227.12 515.21 228.25 516.27 230.63 517.69 232.84 520.63 235.67 521.45 236.71 522.03 238.17 522.71 243.03 523.71 246.45 525.2 249.7 526.59 251.34 531.7 254.62 532.96 255.9 533.91 257.48 534.59 259.22 535.03 260.97 536.04 263.44 537.52 264.9 539.47 265.68 541.9 266.1 543.89 266.99 544.91 268.7 546.45 277.18 547.17 279.28 548.33 280.56 549.77 280.92 550.21 281.14 550.72 281.66 551.23 282.82 551.58 283.4 552.09 283.86 553.17 284.56 553.65 285.04 554.86 287.45 555.19 288.41 555.32 290.19 555.55 291.19 556.23 292.02 559.01 293.68 563.11 296.12 564.1 296.21 565.4 295.72 566.25 295.67 567.01 296.08 571.1 299.79 575.85 304.07 582.63 310.21 586.35 313.57 588.43 314.78 592.7 316.18 597.39 317.72 602.08 319.26 606.78 320.8 611.47 322.34 616.16 323.88 620.86 325.42 625.55 326.96 630.24 328.5 634.93 330.04 639.63 331.58 644.31 333.12 649.01 334.66 653.7 336.2 658.39 337.73 663.08 339.28 667.78 340.82 667.78 340.82 672.26 342.31 676.72 343.81 681.2 345.3 685.66 346.8 690.13 348.3 694.59 349.79 699.06 351.29 703.53 352.79 708 354.28 712.47 355.78 716.94 357.28 721.41 358.77 725.88 360.27 730.34 361.77 734.82 363.26 739.28 364.76 742.64 365.89 745.77 367.43 750.5 367.44 758.08 367.44 766.36 367.44 774.75 367.44 781.68 367.44 791.42 367.44 799 367.43 796.41 369.93 793.82 372.42 791.23 374.92 788.64 377.41 786.06 379.91 783.47 382.4 780.89 384.9 778.3 387.39 775.71 389.89 775.21 390.36 773.12 392.38 770.54 394.88 767.95 397.37 765.36 399.87 762.78 402.37 760.19 404.86 757.6 407.36 755.01 409.85 752.42 412.34 749.83 414.84 747.25 417.34 744.67 419.83 742.08 422.33 739.49 424.82 736.9 427.32 734.31 429.81 731.73 432.31 729.14 434.8 726.56 437.3 725.47 438.34 723.09 440.64 720.7 442.94 719.62 443.99 718.49 445.07 716.2 447.28 712.96 450.61 709.71 453.94 706.46 457.26 703.21 460.59 699.96 463.92 696.71 467.25 693.46 470.57 690.23 473.9 684.51 480.14 678.8 486.38 673.09 492.62 668 498.19 667.38 498.86 661.67 505.1 655.96 511.34 650.25 517.58 644.53 523.82 641.51 527.13 641.49 527.13 637.28 531.68 635.74 532.32 632.86 532.15 630.1 531.99 627.34 531.83 624.58 531.67 621.82 531.52 619.06 531.36 618.93 531.35 616.3 531.2 613.54 531.04 610.78 530.88 608.03 530.72 605.27 530.56 602.51 530.4 599.75 530.24 596.99 530.08 594.23 529.92 591.47 529.76 588.71 529.6 585.51 529.41 583.55 529.88 578.91 531.52 577.32 531.89 572.06 533.1 568.02 534.03 562.06 535.4 558.37 537.14 552.39 539.97 546.31 542.86 540.27 545.72 535.81 549.38 531.81 552.66 531.39 553.18 531.04 553.75 530.33 555.54 529.38 559.26 528.58 560.98 527.01 562.73 526.94 562.81 524.96 564.11 522.73 565 518.94 565.64 510.94 567.01 502.78 568.4 496.51 569.46 492.49 569.5 487.89 569.55 486.16 569.99 484.32 570.91 481.31 573.31 477.55 575.61 476.61 576.45 476.25 577.48 476.29 579.11 476.01 579.78 475.28 580.37 474.56 581.41 471.95 582.89 469.58 582.43 467.23 581.19 464.7 580.37 462.45 581.65 461.68 581.83 460.92 581.69 459.51 581.1 458.66 581.05 454.4 582.1 452.99 582.17 450.31 582.92 444.34 583.27 438.91 583.58 436.12 583.25 433.54 582.21 431.18 580.37 427.76 575.59 426.37 574.31 425.51 573.79 422.97 572.93 422 572.43 421.45 571.89 420.56 570.25 419.25 568.76 416.04 566.58 414.87 565.03 411.51 567.24 407.08 568.94 401.46 571.09 394.58 573.74 394.28 574.02 393.96 574.88 393.68 575.15 389.48 576.61 384.09 578.49 383.94 578.5 383.78 578.45 383.62 578.36 383.11 578.31 383.06 578.53 383.1 578.86 382.85 579.17 380.44 580.37 375.28 582.86 370.7 585.06 366.14 587.27 365.07 588.58 364.02 591.37 362.54 595.29 361.65 596.93 360.64 598.27 356.45 602.1 352.96 605.28 351.58 606.93 350.42 610.48 349.52 611.88 347.82 611.97 346.97 611.4 346.57 610.69 346.29 609.97 345.83 609.38 344.19 608.82 337.54 608.63 338.03 607.64 337.79 607.09 337.09 607.05 336.75 607.25 334.68 608.43 332.65 608.49 330.58 608.04 325.78 605.84 326.41 605.29 326.04 604.89 330.38 602.53 334.9 600.58 336.98 599.23 338.7 597.02 345.98 584.59 347.51 581.28 346.84 579.08 346.73 578.02 346.98 576.91 348.67 572.4 349.8 567.72 350.15 567.02 352.12 564.56 360.47 545.22 360.8 543.81 360.97 540.68 361.98 534.87 363.55 530.51 364.65 526.16 366.66 522.23 369.92 513.84 374.98 506.56 376.13 505.72 376.93 505.68 378.44 506.54 380.35 507.33 384.19 508.09 385.32 507.95 388.02 507 388.47 506.94 389.84 507 391.49 506.63 393.69 506.44 397.66 505.54 400.13 505.54 400.59 505.33 400.97 505.1 402.36 504.84 403.31 504.42 411.7 496.86 419.45 492.58 423.32 489.72 421.44 485.18 421.06 483.75 420.94 482.22 421.02 477.98 420.29 467.85 420.67 465.11 421 463.78 421.19 462.43 421.25 461.06 421.19 459.69 420.93 458.58 420.5 457.35 420.19 456.13 420.35 453.93 419.91 451.37 420.27 450.18 422.36 446.45 423.21 445.31 426.32 442.31 428.96 438.79 430.08 437.73 431.36 436.98 433.94 436.85 436.49 438.03 439.01 439.74 445.62 443.23 448.29 443.65 449.6 444.08 450.81 444.73 451.9 445.54 460.56 454.35 461.16 453.14 461.99 452.38 463.99 451.02 464.81 450.05 466.62 446.49 468.1 444.91 470.4 443.59 472.48 443.38 473.29 445.13 474.57 445.08 475.83 444.79 477.04 444.31 478.17 443.7 478.55 443.42 479.93 442.01 480.32 441.44 480.58 440.95 480.73 440.53 481.43 439.49 481.97 438.47 482.89 434.76 484.38 432.59 484.89 431.36 484.34 430.37 484.82 429.7 484.91 429.17 484.71 427.99 484.82 427.41 485.32 426.47 485.43 426.17 485.64 424.79 486.19 424.02 487.98 423.07 487.85 422.4 488.12 421.99 488.48 421.71 488.67 421.43 488.79 421.46 489.43 419.79 490.15 418.7 490.42 418.11 490.52 417.42 490.46 416.25 490.51 415.64 490.72 415.22 491.78 413.57 492.53 411.17 492.77 408.63 492.1 405.3 491.73 404.89 475.44 398.54 474.93 397.72 474.51 396.13 474.03 393.3 473.96 392.1 474.11 391.08 474.86 388.9 477.3 383.47 478.2 380.48 477.91 378.16 476.97 376.59 476.47 375.32 476.3 373.98 477.03 361.1 477.54 358.13 478.62 355.54 481.59 351.38 482.24 349.94 482.33 348.54 482.02 345.44 482.4 344.16 484.47 341.55 486.68 339.29 491.71 335.05 495.28 334.1 497.36 337.9 498.08 338.57 504.46 339.77 507.49 341.03 509.08 343.27 510.63 352.18 511.58 354.96 512.86 357.47 514.46 359.39 516.27 359.76 518.16 357.57 520.28 349.83 521.7 347.79 522.82 347.22 527.53 346.01 528.43 345.3 528.75 344.07 528.84 342.64 529.31 340.05 529.36 338.6 529.22 337.15 528.91 335.85 528.33 334.78 525.62 331.99 525.04 329.59 526.76 324.65 526.3 322.51 525.34 321.58 523 319.89 521.94 318.93 518.23 314.91 514.97 309.74 514 307.64 513.89 306.69 514 305.27 513.79 304.84 512.81 303.88 512.21 302.82 510.44 297.79 510.29 296.96 510.2 295.75 510.06 295.3 506.63 288.5 504.91 286.05 502.98 284.12 501.29 283.79 501.63 278.58 500.96 276.3 498.84 275.66 496.8 273.41 494.22 272.46 491.5 272.79 489 274.4 482.83 280.53 481.85 280.72 480.44 280.2 476.37 277.99 474.94 277.6 473.58 277.92 471.02 279.54 469.94 279.52 468.06 279.93 466.87 282.87 466.4 286.45 466.68 288.79 465.33 289.09 463.98 288.99 462.83 288.44 462.09 287.37 461.38 286.65 460.19 286.46 458.83 286.61 457.6 286.9 456.53 287.45 454.67 289.05 453.7 289.54 452.55 289.46 448.49 288.03 444.09 287.17 441.81 287.08 439.74 287.58 439.16 287.95 437.73 289.45 436.59 290.34 435.44 291.05 434.21 291.62 431.65 292.55 430.54 293.13 429.5 293.84 428.53 294.66 428.03 294.94 427.46 295.02 426.86 295.04 426.29 295.15 425.73 295.43 424.05 296.52 421.71 297.34 420.39 297.61 419.27 297.66 418.07 297.29 417.29 296.51 416.8 295.41 416.47 294.06 416.68 293 417.63 292.86 420.02 293.38 421.35 293.3 422.68 292.94 423.4 292.24 422.9 291.16 420.36 289.68 417.88 289.7 415.26 290.21 412.3 290.2 411.95 290.14 411.71 290.13 411.5 290.2 411.21 290.35 411.69 286.65 412.66 282.8 413.45 280.81 418.18 273.57 421.1 270.33 427.83 264.55 428.61 263.38 428.11 262.65 425.77 261.71 424.89 260.95 424.43 259.6 424.42 258.27 432.06 229.3 432.08 227.83 431.77 225.62 431.88 224.61 432.36 223.55 434.2 221.34 438.31 217.36 439.82 214.92 440.14 213.55 440.34 212.1 440.78 210.74 441.84 209.66 443.01 209.29 464.24 209.44 465.77 209.29 466.78 208.9 467.68 208.34 468.24 208.1 468.25 208.1 468.64 208.6 469.97 209.1 476.26 210.36 476.44 210.63 476.58 210.94 476.89 211.21 477.36 211.27 477.64 211.08 477.88 210.81 478.24 210.66 481.26 210.54 482.73 210.18 484.38 208.52 485.81 208.06 488.74 207.74 491.48 208.36 492.48 208.37 493.2 208.19 495.1 207.35 495.56 207.3 496.51 207.34 496.97 207.29 498.71 206.71 499.91 206.9 500.74 207.18 501.54 207.22 502.68 206.69 506.22 204.39 511.01 202.95 513.06 202.79 513.46 202.76 517.23 203.65 518.5 203.7 519.53 204.08 520.87 206.98 521.77 207.73 522.96 207.98 525.16 208.21 526.48 208.58 527.17 208.7 527.96 208.41 528.49 207.77 529.03 207.31 529.86 207.6 Z" id="ETH-3134" data-name="Somali"/>
<path d="M 498.84 275.66 497.83 276.22 495.83 277.84 495.03 278.65 494.12 279.08 491.42 279.3 490.12 279.78 488.54 280.64 487.8 281.15 487.53 281.61 487.75 282.27 488.76 283.89 488.53 285.16 487.22 286.38 485.69 287.57 484.77 288.73 481.59 287.16 480.16 287.12 477.13 288.45 476.55 288.61 475.92 288.66 475.22 288.51 473.73 287.98 473.05 288.05 471.39 288.38 469.86 288.14 468.34 288.04 466.68 288.79 466.4 286.45 466.87 282.87 468.06 279.93 469.94 279.52 471.02 279.54 473.58 277.92 474.94 277.6 476.37 277.99 480.44 280.2 481.85 280.72 482.83 280.53 489 274.4 491.5 272.79 494.22 272.46 496.8 273.41 498.84 275.66 Z" id="ETH-3135" data-name="Dire Dawa"/>
<path d="M 494.34 293.53 495.16 294.69 495.16 295.15 494.96 296.52 494.94 297.09 494.83 297.71 494.2 298.84 494.08 299.51 494.41 300.5 494.97 301.45 495.28 302.41 494.84 303.43 493.92 303.97 493.1 303.71 491.61 302.4 490.9 302.23 490.18 302.48 489.45 302.83 488.71 302.91 488.28 302.69 487.49 301.93 487.01 301.67 485.98 301.72 484.88 301.95 484.07 301.78 483.94 300.61 484.21 299.01 484.75 297.58 486.35 294.87 487.54 293.59 488.42 293.66 489.38 294.27 490.78 294.64 491.95 294.25 493.21 293.63 494.34 293.53 Z" id="ETH-3136" data-name="Harari People"/>
</g>
</svg>