<?xml version="1.0"?>
<svg xmlns="http://www.w3.org/2000/svg" version="1.2" baseProfile="tiny" width="800" height="641" viewBox="0 0 800 641" stroke-linecap="round" stroke-linejoin="round">
<g id="ne_10m_admin_1_states_provinces">
<path d="M 728.33 12.72 743.55 33.54 758.76 54.36 762.5 72.06 766.24 89.77 766.33 94.9 766.43 95.22 766.78 96.32 766.76 97.6 766.36 99.63 766.41 100.41 767.01 101.42 767.89 101.94 768.91 102.16 782.59 102.56 786.84 103.59 788.66 104.53 788.87 105.21 788.52 106.19 788.66 106.81 789.13 107.27 791.1 108.73 791.83 109.04 791.83 109.53 791.58 109.63 790.92 109.98 792.23 110.91 793.57 111.61 794.62 112.46 795.05 113.84 795.43 114.15 796.3 113.85 797.22 113.37 797.78 113.16 798.57 113.58 798.89 114.21 799 114.92 797.71 116.2 797.55 116.62 797.22 117.02 796.82 117.79 795.67 122.56 795.82 123.26 794.64 124.03 794.77 125.3 796.02 128.17 796.14 128.9 796.15 129.37 795.91 131.6 795.15 133.7 793.73 140.47 793.23 141.59 790.79 144.77 790.48 145.35 790.58 145.93 791.18 146.73 791.45 146.83 792.59 146.82 793.08 147.12 793.36 147.55 793.59 148.02 793.94 148.46 795.03 149.54 795.77 150.67 796.15 152.01 796.18 153.69 795.93 155.08 795.43 156.73 794.73 158.33 793.93 159.54 792.79 160.15 789.36 161.38 787.96 162.21 785.52 164.37 784.13 165.18 780.19 166.39 778.94 167.09 773.01 172.48 772.49 172.7 770.69 172.91 769.88 173.25 768.06 175.12 766.87 175.98 765.45 176.71 763.97 177.08 762.6 176.88 757.94 174.92 755.32 174.18 753.27 174.18 750.71 176.22 748.21 178.72 746.01 181.48 744.42 184.27 743.28 186.92 742.48 187.95 739.95 189.4 738.88 190.3 738.14 191.45 737.85 192.81 738.29 195.33 737.81 196.39 737.77 196.39 733.94 196.62 724.28 198.74 722.06 198.44 719.94 197.65 719.19 197.07 718.28 196.89 716.01 197.19 715.43 201 715.46 205.53 714.57 210.14 710.9 219.08 708.54 227.95 705.18 229.8 700.65 228.8 696.78 226.31 693.07 223.1 688.55 221.18 682.82 220.39 677.36 221.61 673.79 225.77 669.87 229.26 667.38 229.39 665.74 230.63 664.52 233 662.68 235.03 657.87 237.15 652.55 237.71 647.68 238.78 643.86 241.95 637.01 250.8 628.54 256.67 617.81 256.09 613.08 253.15 608.6 246.01 606.16 244.39 603.29 243.3 600.76 241.56 598.69 239.05 597.3 236.13 597.46 233.2 602.37 225.34 601.55 219.55 604.13 218.84 606.16 217.23 607.72 215.22 608.45 212.91 608.01 207.35 608.92 202.02 612.68 197.94 628.38 192.5 632.52 189.43 634.55 184.86 634.21 179.27 634.57 173.65 635.96 171.48 637.79 169.58 640.54 164.73 647.26 156.51 646.96 154.08 645.75 151.74 643.8 149.55 641.09 148.68 638.87 149 637.11 148.45 637.48 145.85 641.46 138.04 641.81 135.12 640.24 128.48 643.31 106.11 641.94 96.15 649.27 89.35 652.19 85.35 653.86 81.31 653.29 77.23 649.7 74.62 646.76 71.39 645.57 67.18 647.13 54.44 647.15 54.32 648.99 54.38 650.51 54.62 651.78 55.06 652.87 55.28 653.8 54.84 654.1 54.05 654.67 50.5 654.97 50.26 656.48 49.99 656.98 49.84 657.52 49.25 657.87 48.54 658.29 47.07 657.24 46.69 657.69 45.7 658.55 44.48 658.75 43.4 661.17 41.16 661.52 40.92 661.74 41.31 662.22 41.16 662.68 40.83 663.12 40.37 663.25 39.98 663.33 38.9 664.04 39.43 664.61 40.02 665.27 40.48 666.28 40.68 666.86 40.33 667.33 38.8 668.1 38.45 669.61 38.11 670.7 37.28 672.41 35.23 672.86 34.12 672.95 34.09 673.13 33.83 673.53 34.12 673.9 34.57 674.05 34.81 674.98 34.74 674.96 34.48 674.54 33.99 674.27 33.2 674.46 32.97 675.35 32.66 675.64 32.5 675.81 32.46 676.38 32.54 676.58 32.5 676.63 32.32 676.54 31.78 676.58 31.59 678.43 29.57 679.31 28.87 678.89 28.33 678.47 27.93 678 27.66 677.45 27.51 677.45 27.01 678.48 27.3 679.33 27.7 679.94 27.64 680.21 26.56 682.07 26.96 683.9 26.62 689.88 23.69 691.59 23.07 693.42 22.93 693.42 23.34 693.06 23.99 693.81 24.26 695.06 24.19 696.15 23.83 696.17 24.07 696.15 24.78 696.65 24.31 697.14 23.2 697.51 22.93 698.16 23.05 698.3 23.58 698.16 24.25 697.93 24.78 699.71 24 701.5 23.67 703.11 23.1 704.33 21.56 703.38 21.44 703.25 21.12 703.87 20.2 704.15 20.09 704.62 20.12 705.05 20.02 705.23 19.5 705.14 19.12 704.8 18.65 704.82 18.38 705.18 17.71 705.64 17.11 708.29 14.68 709.3 13.98 709.27 12.84 709.88 12.36 711.81 12.04 711.88 12.03 728.33 12.72 Z" id="NGA-2839" data-name="Borno"/>
<path d="M 324.38 526.89 324.49 530.78 323.9 535.05 327.85 537.02 337.51 537.14 341.09 538.8 341.58 541.11 342.66 543.15 344.82 544.79 347.28 545.69 348.38 548.72 347.79 552.43 349.31 559.43 352.55 565.56 351.72 567.91 348.56 567.32 345.11 564.62 341.36 562.54 339.09 559.06 335.81 556.74 333.27 556.35 331.52 557.6 331.92 562.17 330.27 565.79 330.22 566.71 331.86 567.19 332.54 568.45 332.13 569.69 330.19 570.95 326.82 570.48 323.83 571.29 323.7 572.65 324.41 573.85 324.51 575.15 323.61 579.29 323.32 582.19 323.73 585.26 323.33 588.24 321.17 590.42 319.68 592.81 320.57 596.04 320.17 597.25 319.97 598.34 321.43 600.98 321.91 603.74 317.46 600.77 313.94 600.67 311.4 599.67 308.81 599.71 303.34 600.83 300.64 600 299.76 594.83 306.6 584.32 306.95 581.1 305.63 578.65 310.48 564.63 312.99 561.82 313.79 560.17 314.42 558.41 315.33 557.04 315.83 555.47 315.79 553.64 315.53 551.83 315.53 550.01 315.06 548.29 314.31 547.03 314.9 546.09 315.56 543.04 314.7 535.59 312.14 533.32 310.29 532.91 306.95 531.21 305.54 529.99 308.63 526.07 313.09 523.72 313.5 524.03 313.67 524.26 316.84 523.73 320.05 523.61 324.38 526.89 Z" id="NGA-2841" data-name="Abia"/>
<path d="M 348.56 567.32 346.7 569.41 347.78 572.25 348.54 573.48 349.87 574.5 353.77 573.83 355.49 574.28 358.46 576.12 359.56 577.4 359.07 585.54 360 589.22 361.78 592.55 364.16 595.92 371.97 604.04 374.52 605.92 375.3 606.07 375.31 606.07 375.69 606.4 376.69 609.26 377.51 610.37 377.28 610.78 376.75 612.27 376.66 612.88 376.92 613.84 377.57 614.21 378.32 614.44 378.92 614.95 379.11 616.5 378.09 617.43 376.79 618.21 376.16 619.28 375.25 621.3 374.6 621.62 373.97 621.74 371.07 621.73 367.28 621.3 361.59 621.3 358.82 620.9 357.53 620.94 355.32 622.1 354.03 622.25 351.1 622.25 339.74 623.57 339.12 623.2 338.27 623.1 337.48 623.36 336.98 624.07 337.69 624.04 338.31 624.1 338.82 624.27 339.25 624.53 337.82 624.9 335.66 625.01 333.72 624.7 332.85 623.82 331.93 623.58 326.04 623.16 326.26 622.89 326.39 622.67 326.57 622.47 326.94 622.25 326.1 621.99 325.32 622.11 324.77 622.07 324.64 621.3 324.87 620.92 325.32 620.62 325.78 620.23 326.04 619.53 325.85 619.2 324.64 617.67 324.83 617.42 325.13 616.76 324.12 615.61 324.35 613.92 325.55 610.82 325.13 610.82 324.38 611.37 324.38 611.37 324.47 609.78 323.89 607.28 322.72 605.42 321.91 603.74 321.43 600.98 319.97 598.34 320.17 597.25 320.57 596.04 319.68 592.81 321.17 590.42 323.33 588.24 323.73 585.26 323.32 582.19 323.61 579.29 324.51 575.15 324.41 573.85 323.7 572.65 323.83 571.29 326.82 570.48 330.19 570.95 332.13 569.69 332.54 568.45 331.86 567.19 330.22 566.71 330.27 565.79 331.92 562.17 331.52 557.6 333.27 556.35 335.81 556.74 339.09 559.06 341.36 562.54 345.11 564.62 348.56 567.32 Z" id="NGA-2842" data-name="Akwa Ibom"/>
<path d="M 305.63 578.65 303.65 579.21 301.53 579.46 298.02 578.45 289.64 579.28 280.27 578.63 273.26 574.08 272.79 573.2 271.2 572.03 270.57 571.31 270.49 569.01 271.46 566.86 272 562.12 269.26 559.26 266.85 559.85 264.47 559.68 264.04 558.21 266.1 547.73 266.87 545.42 271.33 541.87 276.48 540.45 279.34 541.66 281.97 540.92 284.59 535.59 285.48 532.77 287.97 531.26 290.98 530.53 294.04 530.17 300.04 531.47 302.77 530.56 305.54 529.99 306.95 531.21 310.29 532.91 312.14 533.32 314.7 535.59 315.56 543.04 314.9 546.09 314.31 547.03 315.06 548.29 315.53 550.01 315.53 551.83 315.79 553.64 315.83 555.47 315.33 557.04 314.42 558.41 313.79 560.17 312.99 561.82 310.48 564.63 305.63 578.65 Z" id="NGA-2843" data-name="Imo"/>
<path d="M 318.96 626.48 320.13 626.75 321.34 626.62 323.73 626.02 324.88 625.88 327.09 625.66 327.77 625.87 327.4 626.75 326.81 627.55 325.65 627.8 323.11 627.7 322.09 627.88 318.78 629.07 317.62 629.19 312.72 628.89 311.7 628.37 311.31 627.5 311.93 626.3 312.59 625.96 315.81 624.98 316.59 625.26 318.96 626.48 Z M 306.1 625.01 307.14 625.39 310.16 625.08 311.02 625.39 310.21 626.11 309.8 626.9 309.67 627.8 309.65 628.84 309.37 629.87 308.74 630.52 307.84 631.09 306.9 631.47 300.98 632.7 298.72 632.49 298.08 631.7 298.72 630.44 300.85 628.19 302.35 625.88 303.63 624.41 303.9 623.77 304.16 622.67 305.07 623.23 306.1 625.01 Z M 264.47 559.68 266.85 559.85 269.26 559.26 272 562.12 271.46 566.86 270.49 569.01 270.57 571.31 271.2 572.03 272.79 573.2 273.26 574.08 280.27 578.63 289.64 579.28 298.02 578.45 301.53 579.46 303.65 579.21 305.63 578.65 306.95 581.1 306.6 584.32 299.76 594.83 300.64 600 303.34 600.83 308.81 599.71 311.4 599.67 313.94 600.67 317.46 600.77 321.91 603.74 322.72 605.42 323.89 607.28 324.47 609.78 324.38 611.37 324.01 611.64 323.52 612.23 323.31 612.88 323.46 613.87 323.67 614.6 323.66 615.26 323.11 616.06 323.1 616.47 324.01 617.56 324.22 618.12 324.01 618.29 322.9 619.53 322.28 620.01 321.52 620.44 320.77 620.51 320.13 619.94 319.68 619.94 319.1 621.31 317.66 621.16 315.35 619.94 313.69 619.85 311.96 619.51 310.49 618.81 309.65 617.67 309.25 617.92 308.79 618.06 307.59 618.12 307.38 618.33 307.3 618.79 307.07 619.27 306.44 619.53 306.44 619.94 306.88 620.21 307.35 620.44 306.94 620.86 307.79 621.16 308.92 622.07 310.74 622.44 311.06 622.9 310.97 623.49 310.56 624.07 307.59 624.53 307.27 624.17 305.77 622.01 301.57 617.42 300.98 616.06 300.98 614.25 300.8 613.62 300.36 613.62 299.42 614.07 297.97 614.09 297.76 614 297.2 613.39 296 612.41 295.49 611.73 294.4 608.7 293.67 607.68 293.59 608.33 293.25 608.98 292.91 609.42 292.73 609.5 292.92 610.17 293.27 610.29 293.71 610.34 294.13 610.82 294.8 613.11 295.41 614.09 296.63 614.49 298.69 615.54 300.19 617.8 300.43 620 298.71 620.86 299.56 621.46 300.58 622.43 301.18 623.58 300.75 624.75 298.92 626.8 297.78 627.31 296.4 626.75 296.37 627.78 296.4 628.12 295.17 627.55 294.26 626.81 293.86 625.83 294.13 624.53 293.24 625.32 293.07 626.43 293.43 627.61 294.13 628.61 292.32 629.07 291.82 629.07 291.02 627.52 290.62 625.85 290.45 622.46 289.37 620.65 289.05 619.54 289.79 619.04 290.09 618.49 290.43 617.25 290.61 615.88 290.45 614.95 290.8 615.11 291.41 615.22 291.82 615.36 291.39 614.62 290.05 613.13 289.77 612.4 289.44 610.96 289.14 610.37 287.89 612.07 287.47 612.06 287.2 610.97 286.42 609.5 286.09 610.52 286.25 612.1 285.96 612.63 286.7 613.71 288.19 617.67 287.49 617.67 287.03 617.59 286.68 617.33 286.42 616.76 286.15 616.95 285.51 617.22 284.92 615.93 284.21 614.8 282.29 612.63 282.42 613.75 282.75 614.63 283.68 616.27 284.24 616.96 284.48 617.37 284.6 617.9 284.34 618.47 283.88 618.79 283.66 619.18 284.14 619.94 284.81 618.91 286.04 618.59 287.23 618.89 287.78 619.74 287.14 624.32 287.28 625.88 289.63 630.56 290.48 631.62 290.37 632.26 289.98 632.9 289.34 633.19 288.47 633.08 287.75 632.76 286.51 632.19 286.55 632.5 286.64 632.8 286.87 633.19 285.4 632.73 283.94 632.06 282.46 631.73 280.92 632.29 280.17 631.51 279.65 630.45 279.54 629.27 280.01 628.12 278.88 627.53 277.85 625.79 277.12 623.68 276.84 622.01 276.96 620.8 277.29 620.14 277.75 619.68 278.24 619.04 278.54 618.37 278.82 617.29 278.62 616.3 277.52 615.86 275.81 614.89 274.63 612.66 273.62 608.55 273.42 606.91 273.65 606.07 274.34 605.14 274.79 604.34 274.62 603.76 274.02 603.71 273.2 604.46 272.57 603.7 272.36 603.23 272.25 602.61 271.68 602.89 271.13 602.99 270.56 602.89 269.99 602.61 270.28 603.73 270.41 604.93 270.73 605.89 271.58 606.28 272.17 606.78 272.65 607.97 273.2 610.37 273.46 612.85 273.75 614.01 274.34 614.49 275.18 614.94 276.05 615.99 277.29 618.12 275.8 619.4 275.47 619.94 275.34 620.88 276.67 627.42 277.33 629.37 278.24 630.43 278.1 631.97 279.45 633.14 280.31 634.11 278.66 635.01 276.57 635.38 273.91 635.56 271.45 635.34 269.99 634.51 269.79 633.56 270.03 629.63 270.36 629.15 270.44 628.84 270.29 628.49 269.68 627.97 269.53 627.7 269.53 625.39 269.77 624.32 271.27 620.34 271.41 619.62 271.35 617.67 270.45 618.77 270.45 618.77 269.73 617.71 267.55 616.73 265.66 615.31 264.62 613.12 264.1 610.72 259.98 608.13 254.49 610.18 252.42 610.37 251.7 608.35 252.05 607.1 251.5 606.31 250.49 606.22 249.58 605.76 248.05 603.74 248.09 601.03 248.81 598.76 250.18 596.77 250.36 595.77 251.01 594.36 252.19 593.07 251.66 592.47 251.28 591.8 251.01 591.08 250.83 590.35 250.84 588.99 251.13 587.31 251.56 585.91 251.96 585.31 253.15 584.71 253.7 583.29 254.05 580.28 254.98 578.14 256.43 576.79 258.05 575.59 260.28 572.83 260.69 572.12 260.86 571.4 261.15 571.01 262.39 570.72 262.68 570.51 262.8 570.3 263.42 569.74 263.63 569.38 263.63 568.91 263.47 568.59 263.26 568.31 261.34 566.03 255.19 565.46 254.05 562.57 253.96 562.43 254.36 562.15 255.01 561.43 255.39 561.13 256.6 560.67 256.97 560.42 258.27 559.04 258.77 558.28 259.1 557.42 259.39 555.6 259.63 554.24 260.96 551.18 262.68 543.5 264.68 545.27 266.87 545.42 266.1 547.73 264.04 558.21 264.47 559.68 Z" fill-rule="evenodd" id="NGA-2844" data-name="Rivers"/>
<path d="M 186.5 582.7 188.27 584.21 190.86 585.86 193.91 586.88 197.28 588.73 198.54 589.71 200.17 589.93 201.32 589.77 202.35 589.82 204.78 588.53 207.03 586.94 208.27 586.54 209.48 585.99 210.76 585.58 212 585.87 214.01 585.48 215.86 584.5 218.05 581.39 218.9 580.99 221.18 583 222.58 583.82 223.95 584.4 225.73 584.64 226.83 584.05 228.74 581.43 229.33 581.17 230.1 581.32 230.94 581.57 231.72 581.68 232.61 581.48 233.09 581.13 233.45 580.7 233.99 580.28 235.6 579.78 236.38 579.38 236.71 578.71 236.57 578.11 235.95 577.14 235.8 576.4 236.33 574.8 237.58 574.35 240.39 574.37 241.58 574.06 241.73 573.69 241.75 572.74 241.88 571.95 242.22 571.27 242.73 570.66 243.34 570.08 244.56 569.18 245.65 568.81 254.26 567.52 255.34 566.9 255.19 565.46 261.34 566.03 263.26 568.31 263.47 568.59 263.63 568.91 263.63 569.38 263.42 569.74 262.8 570.3 262.68 570.51 262.39 570.72 261.15 571.01 260.86 571.4 260.69 572.12 260.28 572.83 258.05 575.59 256.43 576.79 254.98 578.14 254.05 580.28 253.7 583.29 253.15 584.71 251.96 585.31 251.56 585.91 251.13 587.31 250.84 588.99 250.83 590.35 251.01 591.08 251.28 591.8 251.66 592.47 252.19 593.07 251.01 594.36 250.36 595.77 250.18 596.77 248.81 598.76 248.09 601.03 248.05 603.74 249.58 605.76 250.49 606.22 251.5 606.31 252.05 607.1 251.7 608.35 252.42 610.37 254.49 610.18 259.98 608.13 264.1 610.72 264.62 613.12 265.66 615.31 267.55 616.73 269.73 617.71 270.45 618.77 270.45 618.77 270.09 619.22 269.07 622.02 268.62 625.03 269.08 627.25 268.78 627.8 268.75 629.11 268.62 629.98 268 628.48 267.79 627.56 267.61 623.48 267.26 622.67 267 623.12 266.7 623.5 266.34 623.81 265.89 624.07 266.25 625.01 266.31 628.12 266.58 629.2 267.38 630.64 267.91 631.92 268.58 634.22 268.62 635.01 268.13 635.72 267.45 635.95 265.4 635.92 263.53 636.1 263.14 635.71 262.41 633.56 262.22 631.5 262.31 628.47 262.02 626.04 261.02 624.32 259 624.53 260.86 625.99 261.53 628.33 261.28 631.04 260.41 633.6 260.28 635.83 256.97 636.61 253.1 636.24 251.28 635.01 250.39 635.17 249.51 635.42 250.01 636.67 248.93 637.09 247.26 637.19 246.04 637.51 244.76 638.07 241.7 638.15 240.39 638.64 238.81 636.79 240.16 633.96 244.51 629.07 243.64 628.99 243.1 628.87 242.69 628.84 242.16 629.07 239.89 631.79 239.58 628.21 238.52 624.98 238.11 624.98 238.04 626.3 238.16 627.99 238.47 629.64 238.98 630.84 238.33 630.19 237.77 629.47 237.02 628.88 235.81 628.61 236.52 630.16 237.25 631.19 237.7 632.3 237.61 634.06 237.18 635.36 236.71 636.33 236.29 636.64 235.74 636.82 235.34 637.21 235.35 638.15 235.88 637.89 236.3 637.89 237.2 638.15 236.83 638.78 234.95 639.41 232.48 639.55 230.81 639.1 230.58 639.42 230.15 639.72 229.9 640 228.82 639.6 228.23 638.93 228 638 228.05 636.79 228.32 635.68 229.21 634.1 229.4 633.19 229.1 633.32 228.36 633.49 228.05 633.6 228.06 632.56 228.29 630.76 227.57 630.68 226.88 630.5 226.08 630.18 225.27 630.43 225.07 631.11 225.2 632.09 225.49 633.03 225.77 633.6 225.49 634.48 225.85 635.21 226.39 635.99 226.68 637.03 226.5 638.47 225.98 638.4 225.2 637.71 224.19 637.28 222.72 637.21 222.19 636.86 222.09 634.51 222.49 634.41 222.61 634.21 221.75 632.92 221.64 632.7 221.56 631.57 221.64 630.43 221.24 630.43 220.74 632.7 220.4 632.4 219.37 631.79 220.38 634.06 220.59 635.17 219.83 635.92 218.82 635.81 217.8 635.15 216.95 634.41 216.42 634.06 215.07 633.57 213.58 632.35 212.79 630.73 213.48 629.07 212.73 629.01 212.25 629.21 212.05 629.69 212.11 630.43 211.69 630.43 210.61 629.32 207.92 627.78 207.12 626.75 207.58 627.04 208.45 627.43 208.93 627.7 208.41 626.86 207.61 626.48 206.68 626.25 205.75 625.88 204.33 624.34 203.82 623.63 202.04 621.82 201.62 621.53 195.45 615.77 193.59 613.19 192.95 610.37 193.23 610.46 193.44 610.55 193.9 610.82 193.89 609.58 190.98 607.79 190.23 606.51 189.9 605.44 188.23 602.57 187.51 601.74 189.78 603.1 189.21 601.51 187.08 599.13 185.23 593.98 184.64 590.87 184.29 589.85 183.44 588.11 183.08 587.1 182.92 585.99 182.71 585.49 182.24 584.98 181.78 584.3 181.56 583.25 181.88 582.44 182.68 582.13 183.72 582.2 184.74 582.54 185.46 583.14 186.66 584.79 187.51 585.31 186.5 582.7 186.5 582.7 Z" id="NGA-2845" data-name="Bayelsa"/>
<path d="M 433.18 397.77 429.5 403.18 430.3 404.67 432.4 404.21 436.9 402.19 439.52 401.69 449.74 401.41 459.9 402.56 467.45 407.75 473.4 415.14 480.22 421.17 483.16 428.9 480.53 436.86 480.08 444.68 477.16 447.38 473.81 449.77 471.11 453.13 469.11 456.98 466.91 468.56 467.16 472.77 466.36 483.95 464.81 490.29 464.8 490.42 464.8 490.42 463.99 490.43 462.02 490.83 461.03 491.65 459.47 494.59 458.42 495.62 457.07 496.29 454.41 497.28 454.4 497.26 453.09 495.13 451.2 491.7 443.26 482.37 437.38 479.41 426.88 481.37 423.11 481.44 421.32 481.05 420.02 479.95 420.66 475.96 419.03 472.54 411.04 467.87 406.25 466.19 401.69 465.79 397.4 467.41 396.54 469.55 397.16 472.06 396.01 473.95 393.81 475.14 390.96 475.87 388.03 475.94 385.38 475.52 382.76 475.47 380.8 476.93 379.01 478.86 377 479.96 374.82 480.16 373.3 478.44 372.47 476.23 371.93 473.65 371.21 472.57 369.89 472.44 369.59 473.15 368.87 474.23 367.32 474.2 365.82 474.52 363.33 477.82 360.77 478.43 358.15 478.46 355.31 478.82 354.28 481.02 353.63 486.6 350.69 490.56 346.12 487.75 343.95 483.18 346.22 476.96 346.24 473.73 345.51 470.54 343.84 467.9 341.09 466.56 338.68 467.18 336.71 468.65 334.02 468.97 331.49 467.75 329.02 465.95 326.8 463.87 324.97 461.6 322.4 456.31 321.74 453.63 324.29 454.87 327.14 457.2 329.27 458.17 331.05 457.63 331.24 454.61 332.32 451.98 341.14 447.2 343.92 442.62 345.09 437.3 345.25 435.17 346.02 433.24 347.38 430.91 345.7 429.75 343.17 430.08 341.02 428.91 340.23 426.33 339.19 418.38 339.35 410.7 339.07 408.29 337.75 405.91 335.8 403.96 333.84 401.06 333.01 397.71 332.82 394.19 333.2 390.37 336.57 391.21 340.85 391.68 344.02 392.75 346.31 393.28 351.01 393.82 353.29 394.44 356.63 396.39 357.75 396.83 363.36 397.79 365.18 398.45 368.73 400.29 370.85 400.91 372.99 401.13 374.92 401.68 376.43 403.32 379.51 405 381.17 406.28 381.92 406.68 382.73 406.95 383.22 407.04 384.07 405.95 383.66 403.62 380.51 396.78 378.97 392 380.05 387.32 383.75 384.2 392.51 383.21 405.94 387.67 410.78 388.7 418.08 388.95 420.51 388.76 420.51 388.39 433.18 397.77 Z" id="NGA-2846" data-name="Benue"/>
<path d="M 454.41 497.28 454.01 497.42 452.05 498.64 450.04 502.52 448.18 503.64 447.13 503.7 446.29 503.63 445.51 503.71 444.59 504.21 443.69 505.24 441.79 509.23 440.09 511.6 430.97 518.94 424.83 525.3 424.83 525.31 423.41 527.36 422.57 528.26 421.5 528.81 421.15 529.26 421 531.15 420.76 532.02 419.59 532.17 418.14 531.65 416.71 531.44 415.57 532.53 414.68 533.66 412.33 535.23 411.62 536.33 411.74 537.68 412.46 538.73 413.04 539.89 412.75 541.56 411.58 542.99 410.4 543.86 409.89 544.81 410.77 546.49 412.11 547.79 413.59 548.94 414.84 550.25 415.52 552.02 415.23 553.62 414.22 554.92 412.97 556.12 411.97 557.41 411.56 558.85 411.65 560.15 411.89 561.44 411.92 562.84 411.48 564.33 410.05 567.14 409.63 568.75 409.7 569.63 410.25 571.24 410.32 571.94 408.54 580.98 408.06 581.84 407.37 582.15 406.58 582.29 405.84 582.63 405.17 583.34 403.88 585.31 403.47 586.2 402.48 589.1 401.87 590.41 400.88 591.79 400.88 591.8 398.26 595.93 397.86 597.13 396.04 598.47 395.46 599.49 395.67 600.9 395.87 601.82 396.12 602.78 394.99 603.88 394.92 603.88 394.92 603.88 394.95 603.87 394.81 603.55 394.36 603.24 393.76 603.1 393.22 603.35 392.53 603.94 391.93 604.62 391.67 605.14 391.54 605.73 390.95 607.01 390.77 607.68 390.83 608.34 391.26 609.3 391.23 609.91 390.64 610.96 389.88 611.28 388.99 611.14 388 610.82 387.7 610.9 387.05 610.95 386.6 610.77 386.89 610.14 387.17 609.7 387.48 609 387.62 608.34 387.34 608.06 386.74 608.21 385.46 608.85 384.59 609 382.62 608.27 382.5 606.44 383.16 604.07 383.47 601.74 383.05 601.74 382.61 604.01 381.14 605.18 379.24 605.07 377.51 603.51 377.73 603.25 378.01 602.61 377.49 602.48 376.16 601.74 376.46 600.84 375.91 600.1 374.11 598.75 372.52 597.86 372.45 597.8 372.07 596.7 371.32 595.27 370.84 594.68 370.02 594.43 369.29 594.12 368.48 593.4 367.82 592.64 367.49 592.17 367.08 592.17 367.08 592.57 370.72 596.01 371.61 597.16 373.34 600.33 373.6 601.87 372.52 602.61 372.95 603.52 373.63 604.58 374.38 605.46 375.02 605.82 375.31 606.07 375.3 606.07 374.52 605.92 371.97 604.04 364.16 595.92 361.78 592.55 360 589.22 359.07 585.54 359.56 577.4 358.46 576.12 355.49 574.28 353.77 573.83 349.87 574.5 348.54 573.48 347.78 572.25 346.7 569.41 348.56 567.32 351.72 567.91 352.55 565.56 349.31 559.43 347.79 552.43 348.38 548.72 347.28 545.69 347.53 544.02 348.12 542.46 349.2 541.22 350.08 539.92 349.84 538.36 349.93 536.79 350.83 535.91 353.2 532.3 354.02 529.34 352.94 527.26 353.72 525.58 356.41 524.72 358.89 525.43 360.21 528.44 361.92 528.36 363.13 527.2 366.2 525.75 367.26 524.46 368.1 523.04 369.9 523.04 371.8 523.9 372.92 522.15 374.13 517.14 375.39 515.15 376.92 513.2 380.67 509.42 381.23 504.9 379.95 502.92 380.47 500.73 384.6 498.41 384.36 496.32 382.95 494.54 382.29 492.71 381.98 490.64 380.83 489.38 380.62 488.63 380.12 487.99 379.18 487.42 378.32 486.72 375.78 483.83 374.82 480.16 377 479.96 379.01 478.86 380.8 476.93 382.76 475.47 385.38 475.52 388.03 475.94 390.96 475.87 393.81 475.14 396.01 473.95 397.16 472.06 396.54 469.55 397.4 467.41 401.69 465.79 406.25 466.19 411.04 467.87 419.03 472.54 420.66 475.96 420.02 479.95 421.32 481.05 423.11 481.44 426.88 481.37 437.38 479.41 443.26 482.37 451.2 491.7 453.09 495.13 454.4 497.26 454.41 497.28 Z" id="NGA-2847" data-name="Cross River"/>
<path d="M 559.49 286.57 566.55 287.15 589.9 286.2 596.06 297.62 597.68 299.14 599.93 299.54 602.11 300.2 605.95 303.62 608.24 308.42 609.48 310.36 610.13 312.43 609.82 314.74 609.84 317.07 612.16 320.94 616.35 322.96 619.13 326.35 619.54 330.96 612.86 344.68 612.35 349.28 612.7 351.71 612.07 353.91 607.61 357.54 590.43 378.01 586.08 381.86 582.43 386.12 581.81 388.19 584.71 395.3 587.38 400.04 589.19 401.91 591.36 402.12 593.11 400.6 594.59 398.82 595.88 396.78 598 395.83 600.35 396.89 602 398.88 608.46 404.95 611.67 412.59 611.66 417.04 612.5 421.47 614.15 425.01 614.95 428.36 614.99 428.4 615.02 428.42 611.11 432.22 606.98 438.33 605.63 439.59 604.45 440.48 603.92 441.07 604.3 441.46 605.88 441.76 606.82 442.55 610.12 447.32 612.71 450.13 613.54 451.8 612.93 453.3 612.3 453.57 611.73 453.41 611.13 453.13 610.39 453.06 609.48 453.34 608.72 453.8 605.9 456.35 604.91 456.99 604.71 457.59 604.6 458.23 604.21 458.75 603.76 458.91 602.72 458.95 601.98 459.13 601.3 459.06 600.98 459.14 600.71 459.45 600.47 460.32 600.23 460.67 596.38 463.09 592.29 466.83 591.08 468.51 590.71 470.29 591.15 471.29 592.61 472.94 592.93 474.13 592.76 475.93 592.33 477.7 590.4 482.19 588.83 484.37 587.02 485.37 584.4 485.63 582.64 487.05 581.65 489.3 581.24 492.05 580.82 493.57 579.52 494.78 577.82 495.62 576.17 496.01 575.45 495.97 574 495.61 573.27 495.55 573.03 495.69 572.32 496.32 571.92 496.49 571.44 496.42 570.7 495.96 570.34 495.84 568.38 496.04 564.26 496.47 562.48 496.23 561.38 495.22 560.08 492.05 558.96 486.92 558.74 484.32 558.85 481.68 558.65 478.51 557.37 475.84 555.1 474.06 548.9 472.93 546.78 470.81 545.44 467.91 544.83 464.88 543.74 462.23 541.57 460.76 536.1 458.71 531.45 456.25 529.69 455.67 528.49 454.72 528.13 451.45 526.9 449.88 525.94 451.75 525.12 454.17 524.55 456.67 524.16 461.77 523.88 461.99 523.5 462.08 523.08 462.39 522.26 463.48 521.72 464.38 521.45 465.42 521.41 466.92 504.28 467.16 502.44 466.62 501.05 465.54 500.35 464.24 499.4 459.35 498.85 458.27 497.93 458.07 496.36 458.96 480.08 472.7 478.52 473.36 477.23 472.98 475.94 472.35 474.36 472.23 473.11 473.63 468.07 489.55 468 489.75 467.17 490.41 464.8 490.42 464.8 490.42 464.81 490.29 466.36 483.95 467.16 472.77 466.91 468.56 469.11 456.98 471.11 453.13 473.81 449.77 477.16 447.38 480.08 444.68 480.53 436.86 483.16 428.9 480.22 421.17 473.4 415.14 467.45 407.75 459.9 402.56 449.74 401.41 439.52 401.69 436.9 402.19 432.4 404.21 430.3 404.67 429.5 403.18 433.18 397.77 435.47 395.82 445.13 389.43 446.49 388.23 446.27 386.47 445.76 385.23 445.88 384.06 445.68 380.68 442.12 376.24 442.4 374.21 443.1 372.48 444.2 371 445.85 370.31 449.13 371.41 450.68 372.23 452.58 372.56 454.56 373.13 456.45 373.41 458.32 373.32 461.04 371.58 462.85 368.72 466.46 368.96 471.47 368.61 476.28 367.26 480.58 363.99 484.45 360.1 488.82 356.96 493.56 354.4 495.43 352.74 498.9 348.59 500.41 346.2 503.64 342.41 519.03 338.69 529.55 333.54 531.85 329.25 531.77 326.69 530.92 322.58 531.38 320.52 531.38 318.58 529.45 312.27 528.36 310.45 527.81 308.48 527.07 303.52 527.58 299.24 527.13 295.75 525.69 292.54 529.26 290.28 537.69 290.03 545.9 286.22 550.29 285.49 554.87 286.58 559.49 286.57 Z" id="NGA-2848" data-name="Taraba"/>
<path d="M 236.75 343.53 233.93 347.14 231.21 356.36 230.18 363.22 229.52 365.17 228.17 366.78 225.95 367.22 218.64 365.6 209.43 365.13 202.85 363.62 196.18 361.11 192.82 357.84 190.18 356.78 187.23 359.49 179.62 368.92 179.11 371.11 181.11 374.88 182.09 376.05 183.24 377.05 183.91 378.27 186.6 380.74 191.06 383.47 191.54 387.45 184.41 387.69 182.03 388.4 180.62 390.11 180.24 392.24 179.41 393.79 178.81 393.97 178.26 393.79 175.47 394.25 173.83 393.92 171.2 393.7 166.79 390.99 162.64 392.21 161.25 391.65 160.91 390.51 160.15 390.04 159.17 389.82 155.35 390.33 153.37 389.02 151.96 386.73 149.19 386.66 146.56 387.75 142.84 388.06 142.38 388.57 142.26 388.12 140.43 388.51 138.69 389.24 134.96 390.04 130.62 389.58 126.33 389.81 125.24 389.12 124.12 388.89 123.3 387.53 121.36 381.25 118.94 377.37 117.21 376.27 115.69 374.87 113.27 371.39 111.02 362.5 108.63 358.96 102.75 345.96 101.86 341.92 102.71 337.89 104.19 336.48 105.27 334.79 106.94 333.11 109.13 331.84 111.42 328.62 110.27 326.06 107.01 328.04 105.17 328.07 100.29 326.96 92.41 324.19 89.46 322.66 86.93 320.48 85.42 317.53 83.49 315.13 80.47 313.76 77.28 314.08 74.29 316.24 72.6 319.47 71.96 323.81 70.68 325.19 69.14 326.29 55.47 333.14 52.58 335.27 49.91 336.58 46.92 338.83 39.08 342.35 38.22 342.48 37.52 341.7 36.74 341.33 36.19 340.59 35.09 340.35 34.04 340.48 32.52 340.94 31.09 341.79 28.36 344.16 27.04 344.95 25.99 345.8 25.5 346.46 23.96 347.06 20.35 349.98 19.1 351.48 17.51 352.53 12.25 353.76 10.96 353.64 9.65 353.65 6.22 356.63 5.75 357 4.45 340.79 4.44 340.71 4.46 340.01 4.84 339.51 5.96 338.99 6.32 338.64 6.4 338.05 6.06 337.03 5.98 336.44 6.22 335.42 7.06 333.52 7.08 332.51 6.83 332.04 6.5 331.93 6.22 331.78 6.1 331.24 6.27 331.1 7.01 329.98 7.23 329.58 7.59 327.75 7.74 323.54 7.52 321.78 12.65 322.19 13.54 322.07 14.18 321.6 14.75 321.01 15.46 320.56 16.17 320.42 18.21 320.36 18.93 320.44 19.66 320.79 20.31 321.23 20.97 321.55 21.75 321.54 26.29 320.37 27.93 319.24 28.95 317.16 31.16 310.34 32.53 307.76 32.94 306.37 32.95 302.06 32.72 300.95 31.88 298.86 31.43 297 31.69 295.16 32.97 293.1 33.45 292.75 34.52 292.39 35.02 291.96 39.07 286.7 39.15 286.36 38.8 285.51 38.72 285.06 39.22 283.43 40.29 283.1 41.59 283.34 42.76 283.41 44.93 282.21 45.4 280.46 44.87 278.44 44.05 276.39 43.82 275.09 43.97 273.58 44.55 272.25 45.62 271.46 50.41 269.52 53 268.83 57 269.27 58.17 268.18 59.93 265.01 62.08 262.47 62.75 261.15 63.17 255.46 63.6 254.39 64.63 253.41 65.6 252.95 66.43 252.34 67.03 250.88 67.09 250.51 67.43 250.43 73.27 249.38 83.9 249.06 88.45 249.66 90.32 251.22 112.68 277.35 113.68 278.12 114.76 278.77 117.03 278.79 118.11 283.27 117.44 288.61 117.36 293.57 119.55 297.28 124.44 296.68 130.24 297.51 130.36 297.96 130.54 300.48 130.46 301.76 130.53 301.75 130.6 301.72 130.65 301.68 130.69 301.62 130.71 302.87 130.95 303.98 131.51 304.91 132.52 305.63 133.58 306.04 136.91 306.59 138.77 307.29 139.58 308.64 139.66 310.42 139.3 312.37 139.43 314.38 140.64 315.68 142.49 316.27 144.54 316.13 147.23 315.33 150.19 313.66 154.5 312.29 155.41 312.29 156.28 312.5 157.94 313.25 158.02 313.61 159.19 314.16 161.42 315.68 164.91 317.32 165.87 318.04 167 319.52 168.15 320.7 168.47 321.4 168.51 322.09 168.47 322.8 168.54 323.56 169.02 324.46 169.82 325.02 170.81 325.32 177.14 326.35 181.59 326.08 182.56 326.27 183.36 326.68 184.06 327.23 185.29 328.46 186.07 329.1 186.89 329.48 187.78 329.67 189.83 329.78 190.77 329.95 191.67 330.27 192.55 330.76 192.95 331.1 193.81 332.21 195.23 333.41 195.83 334.07 196.35 334.76 196.97 335.93 197.21 336.26 198.07 336.94 199.12 337.29 202.97 337.39 203.48 337.47 204.94 338.03 205.5 338.13 206.35 339.53 207.34 340.81 208.04 342.04 208.46 342.48 209.25 342.74 212.79 342.69 215.72 343.14 216.71 343.17 217.51 343 219.61 342.01 221.24 341.7 228.54 341.63 229.57 341.79 230.55 342.16 232.57 344.06 233.08 344.24 236.75 343.53 Z" id="NGA-2849" data-name="Kwara"/>
<path d="M 112.13 500.44 112.12 500.44 97.75 497.8 80.76 496.38 52.38 497.8 50.88 497.56 50.07 496.96 49.42 496.22 48.48 495.53 49.1 495.2 49.55 495.1 49.94 495.2 50.33 495.53 51.37 494.58 51.76 494.94 51.89 495.94 52.15 496.93 54.49 494.79 54.88 494.84 55.11 495.37 55.63 495.4 56.49 495.07 57.75 495.04 58.88 494.84 59.91 494.3 60.82 493.25 60.95 492.53 60.79 491.79 60.84 491.21 61.5 490.98 64.2 490.98 65.62 490.7 68.55 489.77 69.44 490.03 70.94 489.44 72.27 488.66 73.21 487.59 73.57 486.17 74.4 485.85 79.93 485.04 79.42 484.65 79.01 484.47 78.6 484.45 78.11 484.58 74.33 483.7 70.59 485.11 67.02 487.17 63.79 488.22 62.58 488.23 61.89 488.32 59.56 489.56 58.79 489.83 58.01 489.99 57.15 490.03 56.99 489.88 56.15 489.58 55.33 489.62 54.91 489.29 54.7 489.08 54.42 488.22 54.35 487.4 54.81 485.98 54.88 485.04 53.74 485.7 52.93 486.4 51.47 487.99 50.93 488.19 50.23 488.22 49.63 488.37 49.39 488.92 49.48 489.39 49.85 490.37 49.88 490.98 49.61 491.69 48.68 493.12 48.48 493.92 48.22 494.39 47.74 494.75 47.47 495.16 47.82 495.75 48.14 496.1 48.32 496.44 48.42 496.84 48.78 497.16 48.45 498.64 44.57 499.06 37.12 498.71 28.35 499.72 18.07 499.21 3.18 500.59 3.18 500.59 3.21 496.54 3.72 493.56 4.11 493.6 6.33 493.79 8.56 493.58 10.29 494.13 11.96 494.03 13.73 492.86 15 491.4 14.98 490.47 15.7 490.13 30.2 490.76 34.1 490.21 35.09 489.1 35.79 485.88 36.78 484.5 37.81 483.39 38.76 479.98 39.19 479.03 41.28 478.22 42.84 478.69 45.86 480.27 47.41 482.21 49.78 482.32 51.09 482.11 51.87 480.96 52.08 480.02 52.67 479.41 91.52 479.2 95.48 480.24 94.77 481.99 93.15 483.24 92.58 484.9 93.26 486.52 93.32 487.36 95.21 488.89 97.22 487.89 99.25 486.53 101.42 486.07 103.32 486.72 104 488.13 103.41 489.52 99.57 491.63 99.68 493.26 101.23 494.21 103.1 494.72 104.02 495.58 105.14 496.25 106.69 495.89 110.48 496.03 112.31 496.66 112.41 498.44 112.15 500.27 112.13 500.44 Z" id="NGA-2850" data-name="Lagos"/>
<path d="M 224.19 185.16 227.03 188.81 232.13 197.26 233.16 201.69 231.83 202.31 230.52 203.76 229.95 205.45 229.55 210.99 229.65 212.69 230.77 216.03 230.85 216.82 230.8 217.63 230.48 219.12 229.56 221.35 229.38 222.17 229.36 223.97 229.25 224.82 228.86 225.65 228.59 226.97 229.02 229.2 231.17 230.78 232.81 232.8 233.95 235.05 236.24 234.74 237.99 232.85 239.38 230.62 242.83 226.92 250.77 220.92 255.49 219.89 257.23 221.06 258.09 223.13 260.2 223.5 265.04 221.31 267.57 220.81 270.12 221.23 271.6 220.18 271.31 217.57 273.47 216.65 275.86 216.81 277.94 217.63 278.47 218.92 278.92 224.32 280.01 224.58 282.31 223.91 285.97 226.98 286.1 232.3 285.21 234.67 286.63 236.13 291.4 237.86 293.39 239.19 293.23 241.47 291.63 243.57 289.4 244.98 287.27 246.68 285.49 248.84 283.32 250.24 281.73 252.07 284.69 255.93 289.47 257.93 294.39 258.51 304.25 258.33 307.47 260.55 308.74 271.18 308.6 273.63 306.88 274.99 304.81 275.16 303.35 276.29 304.7 278.08 307.13 278.77 308.53 279.95 308 281.8 308.93 283.46 310.97 284.48 311.39 286.56 309.87 288.25 308.88 289.11 308.2 290.18 307.98 291.55 307.63 292.84 303.99 295.4 303.42 297.86 304.77 299.9 305.64 300.43 306.77 301.9 306.64 302.85 305.87 304.85 306.31 305.93 307.99 305.42 309.57 305.79 300.22 318.97 299.8 319.08 296.67 317.34 290.46 311.35 286.45 310.12 274.16 310.59 272.54 311.34 272.25 313.22 272.87 360.67 273.28 361.86 274.89 364.67 277.92 365.02 277.04 367.66 275.08 369.52 273.71 369.99 272.65 371.04 272.78 372.52 272.48 373.61 271.54 373.08 270.71 373.74 269.97 375.39 269.52 377.14 268.38 378.31 268.18 377.88 267.22 377.01 267.15 376.66 266.33 376.25 263.82 373.59 261.23 369.45 260.45 368.56 253.87 363.63 253.34 363.36 251.83 360.28 250.97 357.08 250.8 355.13 250.66 354.55 250.41 353.98 250.05 353.9 249.89 353.37 248.86 351.29 248.73 350.75 248.68 349.54 247.03 346.79 246.18 345.93 245.12 345.35 243.79 345.15 241.32 343.49 240.84 343.08 239.68 342.97 236.75 343.53 233.08 344.24 232.57 344.06 230.55 342.16 229.57 341.79 228.54 341.63 221.24 341.7 219.61 342.01 217.51 343 216.71 343.17 215.72 343.14 212.79 342.69 209.25 342.74 208.46 342.48 208.04 342.04 207.34 340.81 206.35 339.53 205.5 338.13 204.94 338.03 203.48 337.47 202.97 337.39 199.12 337.29 198.07 336.94 197.21 336.26 196.97 335.93 196.35 334.76 195.83 334.07 195.23 333.41 193.81 332.21 192.95 331.1 192.55 330.76 191.67 330.27 190.77 329.95 189.83 329.78 187.78 329.67 186.89 329.48 186.07 329.1 185.29 328.46 184.06 327.23 183.36 326.68 182.56 326.27 181.59 326.08 177.14 326.35 170.81 325.32 169.82 325.02 169.02 324.46 168.54 323.56 168.47 322.8 168.51 322.09 168.47 321.4 168.15 320.7 167 319.52 165.87 318.04 164.91 317.32 161.42 315.68 159.19 314.16 158.02 313.61 157.94 313.25 156.28 312.5 155.41 312.29 154.5 312.29 150.19 313.66 147.23 315.33 144.54 316.13 142.49 316.27 140.64 315.68 139.43 314.38 139.3 312.37 139.66 310.42 139.58 308.64 138.77 307.29 136.91 306.59 133.58 306.04 132.52 305.63 131.51 304.91 130.95 303.98 130.71 302.87 130.69 301.62 130.65 301.68 130.6 301.72 130.53 301.75 130.46 301.76 130.54 300.48 130.36 297.96 130.24 297.51 124.44 296.68 119.55 297.28 117.36 293.57 117.44 288.61 118.11 283.27 117.03 278.79 114.76 278.77 113.68 278.12 112.68 277.35 90.32 251.22 88.45 249.66 83.9 249.06 73.27 249.38 67.43 250.43 67.09 250.51 67.27 249.32 67.08 248.28 66.48 247.44 61.96 242.82 61.01 241.31 60.94 240.06 62.31 237.05 63.99 234.5 64.25 233.71 64.32 232.4 64.51 231.98 64.95 231.35 66.24 230.08 67.55 229.66 68.95 229.91 73.21 232.11 74.25 231.95 75.26 230.71 75.7 229.48 75.77 226.04 76.37 224.27 78.07 220.95 78.57 219.17 78.56 217.12 78.55 215.51 78.22 213.58 77.61 212.29 76.76 211.81 75.82 211.64 74.97 211.38 74.34 210.64 73.72 208.46 73.39 207.75 72.88 207.18 72.3 206.69 71.76 206.14 71.43 205.35 71.51 204.19 72.95 200.69 73.03 198.73 71.66 192.81 71.66 192.79 70.98 191.66 70.49 190.44 70.22 189.11 70.22 187.67 70.9 185.09 70.34 184.56 69.8 184.53 69.81 184.52 70.28 184.05 76.36 184.74 82.28 188.38 89.72 191.75 93.24 192.15 111.44 191.67 118.34 190.66 125.08 192.44 133.13 197.64 137.41 198.93 137.52 200.57 135.31 212.44 135.33 214.96 135.21 216.11 134.69 217.01 133.02 218.68 132.93 219.89 125.19 224.2 122.68 228.44 122.26 233.39 122.53 235.91 123.54 238.22 125.25 239.49 126.69 241.05 126.27 245.87 125.26 250.79 126.87 252.21 131.41 252.46 132.23 250.67 132.27 248 132.97 245.69 135.3 244.91 143.02 243.29 145.28 242.55 147.2 241.16 148.85 236.81 146.82 232.29 143.69 228.25 143.31 226.02 143.62 223.71 143.26 218.72 144.39 214.3 146.5 213.55 151.12 214.18 155.58 212.06 160.29 210.74 162.08 209.33 160.62 204.98 157.9 201.62 161.09 197.63 160.92 194.94 160.3 192.25 159.49 190.33 157.66 189.79 156.79 189.25 156.25 188.07 155.35 187.59 154.22 187.58 149.14 186.79 144.35 184.81 140.13 181.66 141.22 177.46 150.35 173.43 170.01 169.5 174.85 169.65 178.79 171.99 179.7 176.95 182.07 181.19 184.19 182.52 185.25 184.74 184.86 189.85 184.95 192.45 185.8 194.79 187.59 195.41 194.24 195.39 198.65 194.63 210.16 189.8 212.45 189.19 214.76 189.01 216.46 187.66 217.16 186.62 218.84 184.75 219.82 183.98 222.15 183.86 224.19 185.16 Z" id="NGA-2851" data-name="Niger"/>
<path d="M 94.51 451.11 99.22 448.86 100.61 451.66 101.15 454.67 103.84 454.35 106.35 452.74 109.44 452.61 111.63 454.47 112.44 456.12 113.07 457.83 113.25 458.89 113.6 459.88 115.49 459.97 117.83 458.68 119.23 459.1 120.66 459.17 121.77 458.68 122.97 458.34 125.66 458.09 126.7 459.36 125.19 468.07 123.91 469.74 117.93 474.1 114.62 477.62 113.01 482.01 112.99 484.03 113.96 485.74 114.85 486.37 116.96 487.05 118.06 487.24 121.51 487.36 124.37 485.58 125.43 484.06 127.1 483.27 128.35 484.98 128.34 489.72 128.95 492.81 128.77 493.71 128.04 494.56 126.97 494.89 123.6 497.35 121.43 497.64 120.37 498.06 121.51 499.4 123.5 499.39 127.2 500.97 127.3 502.76 126.25 504.02 122.24 503.68 122.17 503.77 116.35 501.22 112.13 500.44 112.15 500.27 112.41 498.44 112.31 496.66 110.48 496.03 106.69 495.89 105.14 496.25 104.02 495.58 103.1 494.72 101.23 494.21 99.68 493.26 99.57 491.63 103.41 489.52 104 488.13 103.32 486.72 101.42 486.07 99.25 486.53 97.22 487.89 95.21 488.89 93.32 487.36 93.26 486.52 92.58 484.9 93.15 483.24 94.77 481.99 95.48 480.24 91.52 479.2 52.67 479.41 52.08 480.02 51.87 480.96 51.09 482.11 49.78 482.32 47.41 482.21 45.86 480.27 42.84 478.69 41.28 478.22 39.19 479.03 38.76 479.98 37.81 483.39 36.78 484.5 35.79 485.88 35.09 489.1 34.1 490.21 30.2 490.76 15.7 490.13 14.98 490.47 15 491.4 13.73 492.86 11.96 494.03 10.29 494.13 8.56 493.58 6.33 493.79 4.11 493.6 3.72 493.56 3.95 492.2 4.17 491.55 5.41 487.98 5.54 486.57 4.97 483.77 4.99 482.4 5.76 480.97 6.96 479.91 7.78 479.37 8.15 478.62 7.93 475.55 7.8 474.87 7.41 474.57 6.58 474.5 5.9 474.29 5.34 473.89 4.83 473.21 4.49 471.9 4.67 470.46 5.38 467.67 5.05 464.89 4.15 462.34 3.93 459.92 5.65 457.53 6.43 457.16 7.28 456.91 7.96 456.55 8.22 455.83 7.84 455.21 6.09 453.78 5.52 453.06 5.27 452.2 5.34 451.74 5.63 451.29 6.24 450.03 6.77 449.35 6.99 448.72 7.06 447.8 5.66 431.44 5.83 430.7 6.33 430.41 7.03 430.42 8.46 430.7 8.68 430.57 8.73 430.19 8.88 429.6 9.06 426.82 7.59 424.38 5.63 422.05 4.29 419.57 3.94 416.96 4.1 414.79 4.73 405.82 4.55 404.87 3.96 403.91 2.36 402.14 1.61 400.23 1.08 399.42 1.04 399.16 1.48 398.91 7.23 394.87 13.68 395.09 15.35 398.21 15.7 405.63 16.84 409.26 18.71 409.53 19.38 406.12 20.32 403.23 22.84 403.14 23.26 409.01 20.81 415.75 20.86 417.14 22.18 420.59 24.95 422.88 27.13 425.67 30.13 431.1 34.8 435.32 38.43 436.54 42.17 436.41 44.82 434.12 47.53 427.53 50.28 425.68 52.72 427.49 53.86 430.74 55.81 431.84 57.73 430.76 59.74 429.91 66.39 430.07 68.65 433.33 68.62 437.01 68.8 438.17 70.73 439.58 72.68 440.63 73.1 441.78 73.09 443.05 73.28 444.08 73.71 445.05 74.5 449.03 72.03 452.38 70.23 455.45 74.24 455.61 82.45 454.61 86.55 453.51 88.38 452.31 90.53 451.59 92.52 451.45 94.51 451.11 Z" id="NGA-2852" data-name="Ogun"/>
<path d="M 224.28 420.45 223.07 422.49 221.55 424.28 220.73 424.66 218.94 425.1 218.04 425.85 217.42 428.17 219.39 429.46 219.73 430.62 218.99 432.05 219.27 434.12 219.66 435.06 219.87 436.52 219.25 438.7 218.34 439.64 217.26 440.36 215.64 441.79 214.19 443.41 214.12 444.29 214.3 444.97 211.24 451.93 210.87 453.52 209.95 454.69 208.17 456.52 207.33 458.93 207.18 461.26 208.14 463.26 208.37 464.08 208.09 464.68 207.8 464.83 207.51 465.28 207.54 466.31 206.03 466.67 205.4 468.35 204.63 472.59 204.28 473.47 203.35 475.07 202.62 475.58 201.5 475.94 199.38 475.46 198.53 474.69 196.63 474.55 193.34 477.18 191.87 477.4 190.12 473.04 190.78 471.14 191.9 469.49 188.85 467.08 170.23 467.07 169.13 467.58 168.33 468.47 168.34 470.14 167.25 471.58 166.39 473.38 164.02 475.65 161.95 478.19 161.2 479.58 160.94 481.75 160.71 482.68 160.71 484.76 161.03 485.32 161.61 485.6 162.75 487.4 163.92 490.9 162.37 494.39 161.25 496.06 160.78 498.03 159.86 499.66 158.17 500.56 156.7 501.04 155.79 502.45 155.46 504.4 155.05 505.23 154.63 505.68 154.51 506.18 154.87 506.83 156.22 507.6 157.85 508.97 159.22 510.62 159.39 511.51 160.03 511.74 160.79 511.75 161.62 512.12 162.34 512.66 163.57 514.56 163.55 516.65 156.13 534.65 156.09 534.75 156.09 534.75 148.3 524.65 146.94 523.39 144.33 522.26 143.12 520.9 141.44 518.27 139.12 515.85 137.07 514.21 132.07 511.06 129.87 509.68 125.79 505.87 123.24 504.24 122.17 503.77 122.17 503.77 122.24 503.68 126.25 504.02 127.3 502.76 127.2 500.97 123.5 499.39 121.51 499.4 120.37 498.06 121.43 497.64 123.6 497.35 126.97 494.89 128.04 494.56 128.77 493.71 128.95 492.81 128.34 489.72 128.35 484.98 127.1 483.27 125.43 484.06 124.37 485.58 121.51 487.36 118.06 487.24 116.96 487.05 114.85 486.37 113.96 485.74 112.99 484.03 113.01 482.01 114.62 477.62 117.93 474.1 123.91 469.74 125.19 468.07 126.7 459.36 129.27 458.03 130.31 456.61 130.81 454.9 132.62 451.82 135.44 449.57 138.07 448.84 140.56 449.88 143.91 452.05 144.73 452.43 146.5 452.57 147.2 452.05 147.37 450.62 147.22 449.09 147.42 447.31 147.39 442.31 147.94 439.14 149.12 436.03 152.02 434.54 155.27 433.65 155.32 430.99 159.98 429.48 162.49 429.39 169.77 429.91 174.5 429.64 177.87 430.66 179.5 433.89 180.9 438.5 184.65 439.96 191.65 434.08 195.3 425.62 196.49 419.3 197.37 417.37 200.25 414.28 202.01 413.29 202.82 412.16 203.47 410.97 205.19 410.02 207.02 410.83 208.67 410.2 209.85 408.3 215.22 407.34 217.23 408.24 216.8 410.84 220.12 415.96 224.28 420.45 Z" id="NGA-2853" data-name="Ondo"/>
<path d="M 209.85 408.3 208.67 410.2 207.02 410.83 205.19 410.02 203.47 410.97 202.82 412.16 202.01 413.29 200.25 414.28 197.37 417.37 196.49 419.3 195.3 425.62 191.65 434.08 184.65 439.96 180.9 438.5 179.5 433.89 177.87 430.66 174.5 429.64 169.77 429.91 162.49 429.39 159.98 429.48 155.32 430.99 150.06 416.87 149.72 413.42 150.43 410.5 150.98 402.51 154.05 398.48 156.59 397.28 158.64 395.45 160.15 390.04 160.91 390.51 161.25 391.65 162.64 392.21 166.79 390.99 171.2 393.7 173.83 393.92 175.47 394.25 178.26 393.79 178.81 393.97 179.41 393.79 180.24 392.24 180.62 390.11 182.03 388.4 184.41 387.69 191.54 387.45 190.21 389.3 190.31 392.11 191.58 392.58 193.38 391.52 195.78 390.96 198.24 390.72 199.48 390.89 200.46 391.6 200.36 393.08 198.88 393.95 196.96 396.34 196.46 399.17 197.44 402.03 199.63 403.98 200.54 403.92 201.62 404.86 206.84 407.41 209.85 408.3 Z" id="NGA-2854" data-name="Ekiti"/>
<path d="M 160.15 390.04 158.64 395.45 156.59 397.28 154.05 398.48 150.98 402.51 150.43 410.5 149.72 413.42 150.06 416.87 155.32 430.99 155.27 433.65 152.02 434.54 149.12 436.03 147.94 439.14 147.39 442.31 147.42 447.31 147.22 449.09 147.37 450.62 147.2 452.05 146.5 452.57 144.73 452.43 143.91 452.05 140.56 449.88 138.07 448.84 135.44 449.57 132.62 451.82 130.81 454.9 130.31 456.61 129.27 458.03 126.7 459.36 125.66 458.09 122.97 458.34 121.77 458.68 120.66 459.17 119.23 459.1 117.83 458.68 115.49 459.97 113.6 459.88 113.25 458.89 113.07 457.83 112.44 456.12 111.63 454.47 109.44 452.61 106.35 452.74 103.84 454.35 101.15 454.67 100.61 451.66 99.22 448.86 94.51 451.11 99.06 427.04 98.69 425.19 97.38 423.61 96.32 421.5 94.87 419.65 93.02 418.53 91.65 417.01 91.74 415.07 92.86 413.4 93.46 411.52 93.8 409.57 94.03 405.23 95.13 402.21 99.62 403.39 103.03 400.95 102.96 399.46 103.53 398.89 104.28 398.34 105.5 396.61 106.91 395.13 108.98 395.93 110.82 397.56 113.26 401.48 115.98 402.01 117.35 400.62 119.27 399.23 119.67 398.83 120.08 398.23 120.59 397.75 120.73 397.96 121.87 397.07 123.12 396.3 124.31 395.83 125.78 395.59 126.13 395.18 126.69 394.34 126.83 392.07 126.33 389.81 130.62 389.58 134.96 390.04 138.69 389.24 140.43 388.51 142.26 388.12 142.38 388.57 142.84 388.06 146.56 387.75 149.19 386.66 151.96 386.73 153.37 389.02 155.35 390.33 159.17 389.82 160.15 390.04 Z" id="NGA-2855" data-name="Osun"/>
<path d="M 126.33 389.81 126.83 392.07 126.69 394.34 126.13 395.18 125.78 395.59 124.31 395.83 123.12 396.3 121.87 397.07 120.73 397.96 120.59 397.75 120.08 398.23 119.67 398.83 119.27 399.23 117.35 400.62 115.98 402.01 113.26 401.48 110.82 397.56 108.98 395.93 106.91 395.13 105.5 396.61 104.28 398.34 103.53 398.89 102.96 399.46 103.03 400.95 99.62 403.39 95.13 402.21 94.03 405.23 93.8 409.57 93.46 411.52 92.86 413.4 91.74 415.07 91.65 417.01 93.02 418.53 94.87 419.65 96.32 421.5 97.38 423.61 98.69 425.19 99.06 427.04 94.51 451.11 92.52 451.45 90.53 451.59 88.38 452.31 86.55 453.51 82.45 454.61 74.24 455.61 70.23 455.45 72.03 452.38 74.5 449.03 73.71 445.05 73.28 444.08 73.09 443.05 73.1 441.78 72.68 440.63 70.73 439.58 68.8 438.17 68.62 437.01 68.65 433.33 66.39 430.07 59.74 429.91 57.73 430.76 55.81 431.84 53.86 430.74 52.72 427.49 50.28 425.68 47.53 427.53 44.82 434.12 42.17 436.41 38.43 436.54 34.8 435.32 30.13 431.1 27.13 425.67 24.95 422.88 22.18 420.59 20.86 417.14 20.81 415.75 23.26 409.01 22.84 403.14 20.32 403.23 19.38 406.12 18.71 409.53 16.84 409.26 15.7 405.63 15.35 398.21 13.68 395.09 7.23 394.87 1.48 398.91 1.04 399.16 1 398.87 1.15 398.36 1.83 397.09 2.07 396.5 2.32 392.31 3.16 388.09 3.3 384.12 3.48 382.9 4 381.77 4.69 380.66 5.21 379.44 5.25 377.98 4.79 376.57 3.49 373.8 2.97 372.33 2.73 370.75 2.81 369.47 3.32 366.72 3.32 366.1 3.16 364.87 3.17 364.28 3.52 363.45 4.85 361.97 5.38 361.18 5.9 358.94 5.75 357 6.22 356.63 9.65 353.65 10.96 353.64 12.25 353.76 17.51 352.53 19.1 351.48 20.35 349.98 23.96 347.06 25.5 346.46 25.99 345.8 27.04 344.95 28.36 344.16 31.09 341.79 32.52 340.94 34.04 340.48 35.09 340.35 36.19 340.59 36.74 341.33 37.52 341.7 38.22 342.48 39.08 342.35 46.92 338.83 49.91 336.58 52.58 335.27 55.47 333.14 69.14 326.29 70.68 325.19 71.96 323.81 72.6 319.47 74.29 316.24 77.28 314.08 80.47 313.76 83.49 315.13 85.42 317.53 86.93 320.48 89.46 322.66 92.41 324.19 100.29 326.96 105.17 328.07 107.01 328.04 110.27 326.06 111.42 328.62 109.13 331.84 106.94 333.11 105.27 334.79 104.19 336.48 102.71 337.89 101.86 341.92 102.75 345.96 108.63 358.96 111.02 362.5 113.27 371.39 115.69 374.87 117.21 376.27 118.94 377.37 121.36 381.25 123.3 387.53 124.12 388.89 125.24 389.12 126.33 389.81 Z" id="NGA-2856" data-name="Oyo"/>
<path d="M 313.09 523.72 308.63 526.07 305.54 529.99 302.77 530.56 300.04 531.47 294.04 530.17 290.98 530.53 287.97 531.26 285.48 532.77 284.59 535.59 281.97 540.92 279.34 541.66 276.48 540.45 271.33 541.87 266.87 545.42 264.68 545.27 262.68 543.5 262.93 540.67 263.37 538.87 264.03 537.16 265.32 534.89 267.97 531.36 268.22 530.79 268.32 530.17 268.22 529.01 268.28 528.41 269.17 525.03 268.91 521.54 269.2 520.04 270.51 518.98 271.38 518.67 272.06 518.33 272.53 517.8 272.78 516.92 273 513.98 272.87 513.05 272.54 512.16 271.66 510.49 271.39 509.57 271.13 506.98 269.94 503.74 269.53 500.08 267.68 493.57 267.39 491.61 267.4 489.5 267.99 489.39 269.47 489.46 271.22 489.82 272.91 489.55 275.09 487.39 276.56 480.89 278.13 477.74 282.65 473.47 283.22 475.33 283.16 477.47 284.03 477.87 287.58 477.74 291.41 479.36 293.53 479.81 295.57 480.68 295.28 485.15 291.58 489.16 289.78 494.16 290.37 495.79 291.35 496.27 293.57 496.69 294.58 497.24 295.94 499.09 298.08 503.91 298.46 504.52 298.61 505.2 298.17 505.71 297.74 505.95 297.77 507.2 297.61 508.36 297.36 509.25 297.91 510.03 298.96 509.82 299.89 509.08 300.99 509.75 301.27 511.36 302.87 512.53 302.5 514.84 303.29 516.78 304.37 518.59 305.08 520.65 306.53 522.32 308.42 522.61 310.18 522.09 310.9 522.19 312.09 522.87 312.42 523.58 313.09 523.72 Z" id="NGA-2857" data-name="Anambra"/>
<path d="M 555.87 172.96 554.53 173.92 553.43 175.43 551.85 177.12 545.61 180.68 542.42 184.97 540.24 186.61 535.19 188.13 533.23 189.81 531.19 194.75 528.92 202.59 527.91 205.07 524.43 209.89 524.24 211.74 531.36 214.75 533.44 219.34 534.15 224.57 538.9 226.8 543.18 229.43 544.55 233.42 544.41 242.66 544.68 244.66 544.5 246.58 536.92 250.4 536.54 252.6 539.3 256.45 553.02 266.52 555.01 270.9 555.46 275.19 556.54 279.31 558.44 283.12 559.91 284.97 559.49 286.57 554.87 286.58 550.29 285.49 545.9 286.22 537.69 290.03 529.26 290.28 525.69 292.54 523.62 291.71 512.52 284.88 479.93 269.9 477.83 270.36 476.87 270.98 476.01 272.51 478.58 276.12 479.47 278.48 478.85 280.65 474.5 282.29 472.81 283.76 470.82 287.84 468.43 288.82 465.86 289.35 455.33 289.88 445.95 288.17 441.81 286.85 439.52 282.86 436.55 279.42 434.13 278.68 432.53 277.09 432.86 275.03 433.74 273.11 434.9 271.33 435.41 269.33 435.14 263.88 433.7 259.33 429.45 257.81 421.73 259.16 419.29 257.53 419.37 246.91 419.03 243.65 417.71 239.99 415.34 237.11 411.44 236.09 407.62 236.74 406.21 235.12 404.64 233.69 402.64 232.62 401.74 230.88 403.98 226.91 404.71 222.55 407.77 219.25 409.64 214.9 409.16 210.32 406.12 206.74 404.22 201.68 404.03 196.11 404.45 191.13 406.46 186.92 410.43 186.68 412.81 185.61 414.61 183.68 417.23 179.85 424.04 172.87 428.48 170.86 429.47 171.5 430.62 172.06 431.84 171.83 436.86 169.78 440.92 169.86 444.9 170.96 449.06 172.67 453.29 172.91 457.42 172.3 460.03 175.58 463.4 176.74 471.98 176.13 475.82 175.17 478.73 177.82 480.2 181.83 480.22 186.13 479.62 190.41 481.18 194.1 484.98 195.64 495.47 194.86 497.78 196.02 500.38 196.99 502.18 195.86 501.43 193.45 502.82 188.96 510.16 186.13 512.46 184.75 514.07 182.9 514.37 180.75 509.58 179.17 503.9 178.96 493.3 177.01 488.46 175.11 482.08 166.73 479.31 161.98 478.17 162.32 475.98 162.3 474.68 160.52 474.96 158.34 477.16 154.29 477.09 152 476.08 147.25 475.03 145.04 472.75 144.51 470.37 144.77 466.32 145.92 463.49 144.05 464.89 139.13 468.45 135.94 474.05 135.48 476.29 134.45 478.47 133.08 498.73 125.48 499.83 123.21 499.23 120.48 499.67 118.31 504.46 105.08 505.08 102.13 506.03 99.27 507.54 97.83 509.6 97.04 514.62 96.2 516.67 97.5 520.17 98.36 528.96 92.64 533.51 95.68 537.31 99.3 538.19 101.82 539.22 107.06 539.31 109.74 539.64 112.08 541.02 114.18 542.32 116.76 542.73 119.63 542.8 124.27 544.81 134.9 552.81 154.3 553.2 159.93 550.89 170.21 552.64 172.46 555.87 172.96 Z" id="NGA-2858" data-name="Bauchi"/>
<path d="M 601.55 219.55 602.37 225.34 597.46 233.2 597.3 236.13 598.69 239.05 600.76 241.56 603.29 243.3 606.16 244.39 608.6 246.01 613.08 253.15 617.81 256.09 617.12 261.88 617.47 270.65 616.45 273.42 613.97 275.44 601.66 282.74 596.02 285.22 589.9 286.2 566.55 287.15 559.49 286.57 559.91 284.97 558.44 283.12 556.54 279.31 555.46 275.19 555.01 270.9 553.02 266.52 539.3 256.45 536.54 252.6 536.92 250.4 544.5 246.58 544.68 244.66 544.41 242.66 544.55 233.42 543.18 229.43 538.9 226.8 534.15 224.57 533.44 219.34 531.36 214.75 524.24 211.74 524.43 209.89 527.91 205.07 528.92 202.59 531.19 194.75 533.23 189.81 535.19 188.13 540.24 186.61 542.42 184.97 545.61 180.68 551.85 177.12 553.43 175.43 554.53 173.92 555.87 172.96 565.09 170.56 574.23 174.95 578.47 178.2 582.14 182.05 585.38 186.37 592.34 193.3 593.75 195.06 594.19 197.33 593.33 212.6 593.78 217.38 594.37 219.35 599.05 219.81 601.55 219.55 Z" id="NGA-2859" data-name="Gombe"/>
<path d="M 262.68 543.5 260.96 551.18 259.63 554.24 259.39 555.6 259.1 557.42 258.77 558.28 258.27 559.04 256.97 560.42 256.6 560.67 255.39 561.13 255.01 561.43 254.36 562.15 253.96 562.43 254.05 562.57 255.19 565.46 255.34 566.9 254.26 567.52 245.65 568.81 244.56 569.18 243.34 570.08 242.73 570.66 242.22 571.27 241.88 571.95 241.75 572.74 241.73 573.69 241.58 574.06 240.39 574.37 237.58 574.35 236.33 574.8 235.8 576.4 235.95 577.14 236.57 578.11 236.71 578.71 236.38 579.38 235.6 579.78 233.99 580.28 233.45 580.7 233.09 581.13 232.61 581.48 231.72 581.68 230.94 581.57 230.1 581.32 229.33 581.17 228.74 581.43 226.83 584.05 225.73 584.64 223.95 584.4 222.58 583.82 221.18 583 218.9 580.99 218.05 581.39 215.86 584.5 214.01 585.48 212 585.87 210.76 585.58 209.48 585.99 208.27 586.54 207.03 586.94 204.78 588.53 202.35 589.82 201.32 589.77 200.17 589.93 198.54 589.71 197.28 588.73 193.91 586.88 190.86 585.86 188.27 584.21 186.5 582.7 186.1 581.68 187.52 581.82 188.87 582.13 188.38 581.34 186.56 579.35 185.87 578.95 185.62 579.23 185.68 580.45 185.44 580.72 184.81 580.75 184.35 580.82 183.38 581.18 182.5 580.8 180.9 581.08 180.2 580.72 180.07 580.18 180.2 577.78 179.9 574.7 178.51 568.72 178.88 567.84 180.43 567.52 184.84 567.43 186.1 567.07 186.27 567.68 186.45 568.12 187.01 568.92 187.55 568.5 188.05 567.5 188.42 567.07 188.8 566.8 191.11 565.9 192.21 565.69 193.22 565.73 193.9 566.19 194.32 566.19 193.82 565.35 192.23 563.96 191.59 562.98 191.35 562.05 191.26 560.96 191.4 559.91 191.82 559.12 192.7 558.55 193.71 558.35 195.93 558.39 196.72 558.01 197.5 557.15 198.45 555.67 197.38 556.11 196.49 556.88 195.54 557.4 194.32 557.03 194.14 557.36 193.72 557.65 193.41 557.98 191.87 557.65 190.28 558.44 189.35 559.91 189.78 561.62 189.01 563.24 188.14 564.23 187.05 564.48 185.65 563.88 185.26 563.43 185.15 563.01 184.89 562.69 184.06 562.57 183.71 562.94 183.89 563.81 184.32 564.73 184.74 565.29 180.89 565.07 173.39 562.57 173.08 562.21 172.77 561.48 172.53 561.12 170.43 559.2 169.06 558.25 168.56 556.82 168.42 555.41 168.6 554.76 169.05 554.51 170.13 553.35 170.71 552.94 171.2 552.86 177.71 553.13 180.18 553.53 181.56 554.31 182.01 554.31 182.66 553.37 183.77 550.99 184.29 550.22 185.15 549.85 186.2 549.87 187.21 550.18 187.92 550.67 188.1 551.16 188.48 552.63 188.64 552.94 189.34 552.9 189.68 552.72 189.78 552.31 189.78 551.58 189.28 550.54 188.15 549.41 186.8 548.46 185.65 547.95 184.38 547.98 183.75 548.64 182.92 550.67 182.22 551.3 181.14 551.83 179.93 552.11 178.83 552.04 177.57 551.33 177.03 550.39 177.05 549.25 178.3 545.63 178.45 544.65 178.34 543.41 177.93 543.41 176.11 548.36 175.39 549.68 174.53 550.53 173.38 550.99 171.79 551.13 171.07 551.32 169.52 552.22 167.84 552.85 167.43 552.66 166.54 552.04 165.52 551.12 164.48 549.82 163.65 548.44 163.02 546.57 162.39 545.65 161.78 544.46 161.54 542.91 161.7 541.58 162.1 540.07 162.72 538.84 163.54 538.33 164.3 538.59 165.63 539.65 166.13 539.77 166.48 539.35 166.33 538.76 166.07 538.08 166.13 537.42 168.22 535.6 173.67 533.61 175.2 531.07 173.81 531.31 171.54 533.34 168.91 534.13 163.87 536.78 162.9 537.48 159.55 540.61 158.86 540.55 156.38 535.12 156.09 534.75 156.09 534.75 156.13 534.65 163.55 516.65 168.19 518.89 171.34 522.53 170.73 526.9 171.27 530.36 172.59 531.36 173.76 530.89 177.59 527.59 177.25 525.4 177.93 523.77 182.23 523.99 184.22 523.67 186.7 523.86 189.28 525.69 190.5 526.13 191.15 526.28 191.8 525.76 192.2 524.86 195.92 522.6 200.01 522.43 207.76 526.63 211.39 530.57 213.61 531.78 215.48 533.18 215.2 535.63 213.77 537.95 214.08 538.7 214.82 539.36 215.18 540.13 214.91 540.89 215 541.97 216.12 542.36 217.31 542.31 223.82 540.92 227.23 538.47 229.95 535.25 233.67 532.46 236.41 529.3 237.19 526.78 237.18 524.19 236.3 523.42 235.06 523.14 231.07 519.47 229.04 516.13 228.25 513.49 228.04 511.26 225.91 507.54 226.12 505.18 227.07 503.28 228.62 501.85 230.89 502.06 232.57 503.8 233.91 505.97 235.78 506 238.54 502.53 240.29 501.44 246.59 498.85 254.68 494.01 258.71 492.28 261.09 492.23 263.44 492.65 265.33 492.01 267.4 489.5 267.39 491.61 267.68 493.57 269.53 500.08 269.94 503.74 271.13 506.98 271.39 509.57 271.66 510.49 272.54 512.16 272.87 513.05 273 513.98 272.78 516.92 272.53 517.8 272.06 518.33 271.38 518.67 270.51 518.98 269.2 520.04 268.91 521.54 269.17 525.03 268.28 528.41 268.22 529.01 268.32 530.17 268.22 530.79 267.97 531.36 265.32 534.89 264.03 537.16 263.37 538.87 262.93 540.67 262.68 543.5 Z" id="NGA-2860" data-name="Delta"/>
<path d="M 267.4 489.5 265.33 492.01 263.44 492.65 261.09 492.23 258.71 492.28 254.68 494.01 246.59 498.85 240.29 501.44 238.54 502.53 235.78 506 233.91 505.97 232.57 503.8 230.89 502.06 228.62 501.85 227.07 503.28 226.12 505.18 225.91 507.54 228.04 511.26 228.25 513.49 229.04 516.13 231.07 519.47 235.06 523.14 236.3 523.42 237.18 524.19 237.19 526.78 236.41 529.3 233.67 532.46 229.95 535.25 227.23 538.47 223.82 540.92 217.31 542.31 216.12 542.36 215 541.97 214.91 540.89 215.18 540.13 214.82 539.36 214.08 538.7 213.77 537.95 215.2 535.63 215.48 533.18 213.61 531.78 211.39 530.57 207.76 526.63 200.01 522.43 195.92 522.6 192.2 524.86 191.8 525.76 191.15 526.28 190.5 526.13 189.28 525.69 186.7 523.86 184.22 523.67 182.23 523.99 177.93 523.77 177.25 525.4 177.59 527.59 173.76 530.89 172.59 531.36 171.27 530.36 170.73 526.9 171.34 522.53 168.19 518.89 163.55 516.65 163.57 514.56 162.34 512.66 161.62 512.12 160.79 511.75 160.03 511.74 159.39 511.51 159.22 510.62 157.85 508.97 156.22 507.6 154.87 506.83 154.51 506.18 154.63 505.68 155.05 505.23 155.46 504.4 155.79 502.45 156.7 501.04 158.17 500.56 159.86 499.66 160.78 498.03 161.25 496.06 162.37 494.39 163.92 490.9 162.75 487.4 161.61 485.6 161.03 485.32 160.71 484.76 160.71 482.68 160.94 481.75 161.2 479.58 161.95 478.19 164.02 475.65 166.39 473.38 167.25 471.58 168.34 470.14 168.33 468.47 169.13 467.58 170.23 467.07 188.85 467.08 191.9 469.49 190.78 471.14 190.12 473.04 191.87 477.4 193.34 477.18 196.63 474.55 198.53 474.69 199.38 475.46 201.5 475.94 202.62 475.58 203.35 475.07 204.28 473.47 204.63 472.59 205.4 468.35 206.03 466.67 207.54 466.31 207.51 465.28 207.8 464.83 208.09 464.68 208.37 464.08 208.14 463.26 207.18 461.26 207.33 458.93 208.17 456.52 209.95 454.69 210.87 453.52 211.24 451.93 214.3 444.97 214.12 444.29 214.19 443.41 215.64 441.79 217.26 440.36 218.34 439.64 219.25 438.7 219.87 436.52 219.66 435.06 219.27 434.12 218.99 432.05 219.73 430.62 219.39 429.46 217.42 428.17 218.04 425.85 218.94 425.1 220.73 424.66 221.55 424.28 223.07 422.49 224.28 420.45 225.42 421.06 226.76 420.78 227.88 421.5 227.63 422.81 229.78 423.53 230.28 425.02 229.55 427.95 231.2 430.2 234.25 430.14 237.35 428.88 238.66 428.05 239.96 427.77 240.67 428.92 241.64 429.75 243.85 431.26 245.74 433.4 247.28 433.5 249.78 432.86 251.17 433.03 252.86 434.53 254.36 438.22 255.24 439.4 255.5 440.66 256.39 441.91 259.72 441.3 262.42 440.17 264.18 440.03 265.19 440.8 265.93 441.73 266.11 442.87 267.01 443.4 268.76 443.93 268.91 444.49 269.97 446.78 270.15 447.39 270.24 448.68 269.97 449.91 269.16 452.35 268.84 455.79 268.27 457.36 268.21 458.04 268.24 460.97 268.11 461.57 266.37 465.26 265.65 467.86 265.57 468.97 265.96 472.46 265.66 480.98 265.94 483.81 267.27 487.56 267.4 488.57 267.4 489.5 Z" id="NGA-2861" data-name="Edo"/>
<path d="M 321.74 453.63 322.4 456.31 324.97 461.6 326.8 463.87 329.02 465.95 331.49 467.75 334.02 468.97 336.71 468.65 338.68 467.18 341.09 466.56 343.84 467.9 345.51 470.54 346.24 473.73 346.22 476.96 343.95 483.18 339.52 483.63 337.29 483.44 335.17 484.75 337.79 493.25 337.73 497.98 334.82 506.8 336.02 508.58 336.12 509.48 336.89 512.28 337.01 514.28 337.49 516.37 337.62 518.37 336.31 520.37 334.69 522.13 334.25 525.47 335 528.95 333.22 529.87 330.84 527.68 329.42 526.7 327.7 525.84 324.38 526.89 320.05 523.61 316.84 523.73 313.67 524.26 313.5 524.03 313.09 523.72 312.42 523.58 312.09 522.87 310.9 522.19 310.18 522.09 308.42 522.61 306.53 522.32 305.08 520.65 304.37 518.59 303.29 516.78 302.5 514.84 302.87 512.53 301.27 511.36 300.99 509.75 299.89 509.08 298.96 509.82 297.91 510.03 297.36 509.25 297.61 508.36 297.77 507.2 297.74 505.95 298.17 505.71 298.61 505.2 298.46 504.52 298.08 503.91 295.94 499.09 294.58 497.24 293.57 496.69 291.35 496.27 290.37 495.79 289.78 494.16 291.58 489.16 295.28 485.15 295.57 480.68 293.53 479.81 291.41 479.36 287.58 477.74 284.03 477.87 283.16 477.47 283.22 475.33 282.65 473.47 284.43 469.95 286.63 468.54 286.81 469.08 286.81 469.68 287.12 470.63 287.57 471.02 288.63 472.58 290.3 473.33 293.24 471.06 295.74 468.02 301.3 464.17 304.61 461.11 308.42 456.17 309.64 455.06 311.72 454.34 313.85 452.67 316.28 451.41 319.53 451.61 321.74 453.63 Z" id="NGA-2862" data-name="Enugu"/>
<path d="M 374.82 480.16 375.78 483.83 378.32 486.72 379.18 487.42 380.12 487.99 380.62 488.63 380.83 489.38 381.98 490.64 382.29 492.71 382.95 494.54 384.36 496.32 384.6 498.41 380.47 500.73 379.95 502.92 381.23 504.9 380.67 509.42 376.92 513.2 375.39 515.15 374.13 517.14 372.92 522.15 371.8 523.9 369.9 523.04 368.1 523.04 367.26 524.46 366.2 525.75 363.13 527.2 361.92 528.36 360.21 528.44 358.89 525.43 356.41 524.72 353.72 525.58 352.94 527.26 354.02 529.34 353.2 532.3 350.83 535.91 349.93 536.79 349.84 538.36 350.08 539.92 349.2 541.22 348.12 542.46 347.53 544.02 347.28 545.69 344.82 544.79 342.66 543.15 341.58 541.11 341.09 538.8 337.51 537.14 327.85 537.02 323.9 535.05 324.49 530.78 324.38 526.89 327.7 525.84 329.42 526.7 330.84 527.68 333.22 529.87 335 528.95 334.25 525.47 334.69 522.13 336.31 520.37 337.62 518.37 337.49 516.37 337.01 514.28 336.89 512.28 336.12 509.48 336.02 508.58 334.82 506.8 337.73 497.98 337.79 493.25 335.17 484.75 337.29 483.44 339.52 483.63 343.95 483.18 346.12 487.75 350.69 490.56 353.63 486.6 354.28 481.02 355.31 478.82 358.15 478.46 360.77 478.43 363.33 477.82 365.82 474.52 367.32 474.2 368.87 474.23 369.59 473.15 369.89 472.44 371.21 472.57 371.93 473.65 372.47 476.23 373.3 478.44 374.82 480.16 Z" id="NGA-2863" data-name="Ebonyi"/>
<path d="M 404.71 222.55 403.98 226.91 401.74 230.88 402.64 232.62 404.64 233.69 406.21 235.12 407.62 236.74 406.98 238.66 406.7 240.9 405.05 242.98 402.63 244.1 399.31 247.81 398.1 252.76 399.82 257.79 397.2 266.53 397.22 271.62 396.85 274.2 397.41 276.44 394.65 280.19 394.67 281.3 394.48 282.52 392.58 283.88 392.6 293.35 395.3 297.29 398.45 300.54 400.96 304.1 400.67 308.15 399.3 311.95 396.85 314.8 395.12 318.77 393.01 322.46 390.16 325.3 387.57 325.62 385.92 324.02 385.05 322.52 383.76 321.27 381.08 317.83 375.09 316.22 372.93 315.38 371.14 317.04 367.32 322.37 362.04 325.24 360.33 318.81 359.62 311.02 357.01 309.46 354.86 307.75 354.9 306.07 354.3 304.56 352.14 302.56 348.06 303.2 345.48 307.9 343.21 308.9 340.92 307.94 339.83 307.92 338.72 307.76 337.09 306.45 334.96 306.62 333.37 305.78 332.39 304.04 330.52 304.91 328.42 305.34 327.19 303.09 324.82 302.2 322.7 305.08 321.26 306.15 319.59 305.46 317.75 305.17 315.89 305.11 309.57 305.79 307.99 305.42 306.31 305.93 305.87 304.85 306.64 302.85 306.77 301.9 305.64 300.43 304.77 299.9 303.42 297.86 303.99 295.4 307.63 292.84 307.98 291.55 308.2 290.18 308.88 289.11 309.87 288.25 311.39 286.56 310.97 284.48 308.93 283.46 308 281.8 308.53 279.95 307.13 278.77 304.7 278.08 303.35 276.29 304.81 275.16 306.88 274.99 308.6 273.63 308.74 271.18 307.47 260.55 304.25 258.33 294.39 258.51 289.47 257.93 284.69 255.93 281.73 252.07 283.32 250.24 285.49 248.84 287.27 246.68 289.4 244.98 291.63 243.57 293.23 241.47 293.39 239.19 291.4 237.86 286.63 236.13 285.21 234.67 286.1 232.3 285.97 226.98 282.31 223.91 280.01 224.58 278.92 224.32 278.47 218.92 277.94 217.63 275.86 216.81 273.47 216.65 271.31 217.57 271.6 220.18 270.12 221.23 267.57 220.81 265.04 221.31 260.2 223.5 258.09 223.13 257.23 221.06 255.49 219.89 250.77 220.92 242.83 226.92 239.38 230.62 237.99 232.85 236.24 234.74 233.95 235.05 232.81 232.8 231.17 230.78 229.02 229.2 228.59 226.97 228.86 225.65 229.25 224.82 229.36 223.97 229.38 222.17 229.56 221.35 230.48 219.12 230.8 217.63 230.85 216.82 230.77 216.03 229.65 212.69 229.55 210.99 229.95 205.45 230.52 203.76 231.83 202.31 233.16 201.69 236.21 200.67 237.18 199.8 237.45 198.9 237.45 198.05 237.55 197.2 238.09 196.34 238.76 195.87 240.36 195.29 241.03 194.89 241.84 193.84 243.05 191.37 243.87 190.42 245.19 189.92 246.59 190.07 250.95 191.61 252.42 191.92 253.92 191.93 258.29 190.69 259.02 190.61 260.12 190.72 260.7 190.6 261.28 190.31 266.86 188.19 268.05 187.48 269.07 186.61 269.92 185.48 270.58 184.06 271.83 178.05 272.57 176.06 273.92 174.39 278.62 171.48 279.97 170.2 281.04 168.21 284.08 169.66 285.71 170.1 289.23 170.17 290.65 171.2 291.46 172.78 291.23 174.01 290.17 174.82 288.36 176.75 288.44 178.61 293.31 179.9 295.64 181.25 299.1 184.82 301.3 185.09 303.48 183.96 305.12 182.2 305.03 180.31 303.89 178.59 305.01 175.04 310.09 175.11 312.46 175.92 314.29 174.96 314.64 172.57 315.77 170.44 319.94 168.03 324.78 168.96 327.35 170.09 329.62 171.72 330.93 173.49 332.84 174.3 338.23 172.13 340.52 168.67 345.11 168.28 352.92 162.55 362.27 159.6 364.64 160.71 364.53 163.23 363.28 165.41 362.99 167.77 364.34 169.94 366.49 171.36 371.19 172.99 373.35 174.68 374.98 176.88 379.6 178.63 384.66 179.94 391.48 187.1 392.78 196.36 391.5 201.45 392.54 209.4 391.58 211.9 388.76 212.59 387.37 214.43 391.01 217.43 396.35 218.1 399.26 221.54 400.56 222.19 403.33 222.84 404.71 222.55 Z" id="NGA-2864" data-name="Kaduna"/>
<path d="M 277.92 365.02 282 364.89 284.48 365.16 286.85 364.76 287.44 364.69 286.88 366.96 285.23 371.26 288.44 376.91 288.72 381.26 287.69 391.03 286.89 393.11 285.68 394.99 284.92 397.65 284.81 400.43 285.36 400.57 286.94 399.91 289.23 398.49 290.52 397.36 290.99 397.14 291.07 396.76 294.49 394.73 307.91 390.21 310.13 389.97 321.83 390.99 331.24 390.08 332.35 390.16 333.2 390.37 332.82 394.19 333.01 397.71 333.84 401.06 335.8 403.96 337.75 405.91 339.07 408.29 339.35 410.7 339.19 418.38 340.23 426.33 341.02 428.91 343.17 430.08 345.7 429.75 347.38 430.91 346.02 433.24 345.25 435.17 345.09 437.3 343.92 442.62 341.14 447.2 332.32 451.98 331.24 454.61 331.05 457.63 329.27 458.17 327.14 457.2 324.29 454.87 321.74 453.63 319.53 451.61 316.28 451.41 313.85 452.67 311.72 454.34 309.64 455.06 308.42 456.17 304.61 461.11 301.3 464.17 295.74 468.02 293.24 471.06 290.3 473.33 288.63 472.58 287.57 471.02 287.12 470.63 286.81 469.68 286.81 469.08 286.63 468.54 284.43 469.95 282.65 473.47 278.13 477.74 276.56 480.89 275.09 487.39 272.91 489.55 271.22 489.82 269.47 489.46 267.99 489.39 267.4 489.5 267.4 488.57 267.27 487.56 265.94 483.81 265.66 480.98 265.96 472.46 265.57 468.97 265.65 467.86 266.37 465.26 268.11 461.57 268.24 460.97 268.21 458.04 268.27 457.36 268.84 455.79 269.16 452.35 269.97 449.91 270.24 448.68 270.15 447.39 269.97 446.78 268.91 444.49 268.76 443.93 267.01 443.4 266.11 442.87 265.93 441.73 265.19 440.8 264.18 440.03 262.42 440.17 259.72 441.3 256.39 441.91 255.5 440.66 255.24 439.4 254.36 438.22 252.86 434.53 251.17 433.03 249.78 432.86 247.28 433.5 245.74 433.4 243.85 431.26 241.64 429.75 240.67 428.92 239.96 427.77 238.66 428.05 237.35 428.88 234.25 430.14 231.2 430.2 229.55 427.95 230.28 425.02 229.78 423.53 227.63 422.81 227.88 421.5 226.76 420.78 225.42 421.06 224.28 420.45 220.12 415.96 216.8 410.84 217.23 408.24 215.22 407.34 209.85 408.3 206.84 407.41 201.62 404.86 200.54 403.92 199.63 403.98 197.44 402.03 196.46 399.17 196.96 396.34 198.88 393.95 200.36 393.08 200.46 391.6 199.48 390.89 198.24 390.72 195.78 390.96 193.38 391.52 191.58 392.58 190.31 392.11 190.21 389.3 191.54 387.45 191.06 383.47 186.6 380.74 183.91 378.27 183.24 377.05 182.09 376.05 181.11 374.88 179.11 371.11 179.62 368.92 187.23 359.49 190.18 356.78 192.82 357.84 196.18 361.11 202.85 363.62 209.43 365.13 218.64 365.6 225.95 367.22 228.17 366.78 229.52 365.17 230.18 363.22 231.21 356.36 233.93 347.14 236.75 343.53 239.68 342.97 240.84 343.08 241.32 343.49 243.79 345.15 245.12 345.35 246.18 345.93 247.03 346.79 248.68 349.54 248.73 350.75 248.86 351.29 249.89 353.37 250.05 353.9 250.41 353.98 250.66 354.55 250.8 355.13 250.97 357.08 251.83 360.28 253.34 363.36 253.87 363.63 260.45 368.56 261.23 369.45 263.82 373.59 266.33 376.25 267.15 376.66 267.22 377.01 268.18 377.88 268.38 378.31 269.52 377.14 269.97 375.39 270.71 373.74 271.54 373.08 272.48 373.61 272.78 372.52 272.65 371.04 273.71 369.99 275.08 369.52 277.04 367.66 277.92 365.02 Z" id="NGA-2865" data-name="Kogi"/>
<path d="M 525.69 292.54 527.13 295.75 527.58 299.24 527.07 303.52 527.81 308.48 528.36 310.45 529.45 312.27 531.38 318.58 531.38 320.52 530.92 322.58 531.77 326.69 531.85 329.25 529.55 333.54 519.03 338.69 503.64 342.41 500.41 346.2 498.9 348.59 495.43 352.74 493.56 354.4 488.82 356.96 484.45 360.1 480.58 363.99 476.28 367.26 471.47 368.61 466.46 368.96 462.85 368.72 460.41 365.24 456.82 363 449.03 359.73 444.88 359.59 440.65 360.86 434.55 361.9 428.29 361.85 424.23 360.76 418.7 357.86 417.25 355.12 417.62 351.92 417.16 349.16 415.54 346.9 414.24 343.7 415.39 340.91 417.07 338.9 418.64 336.54 421.1 335.75 422.65 334.24 425.45 330.48 426.44 328.16 426.77 326.25 425.58 324.76 423.75 323.57 421.65 324.11 420.63 324.59 419.51 324.76 414.98 324.83 410.61 323.98 407.43 320.76 406.39 316.21 403.15 313.84 399.3 311.95 400.67 308.15 400.96 304.1 398.45 300.54 395.3 297.29 392.6 293.35 392.58 283.88 394.48 282.52 394.67 281.3 394.65 280.19 397.41 276.44 396.85 274.2 397.22 271.62 397.2 266.53 399.82 257.79 398.1 252.76 399.31 247.81 402.63 244.1 405.05 242.98 406.7 240.9 406.98 238.66 407.62 236.74 411.44 236.09 415.34 237.11 417.71 239.99 419.03 243.65 419.37 246.91 419.29 257.53 421.73 259.16 429.45 257.81 433.7 259.33 435.14 263.88 435.41 269.33 434.9 271.33 433.74 273.11 432.86 275.03 432.53 277.09 434.13 278.68 436.55 279.42 439.52 282.86 441.81 286.85 445.95 288.17 455.33 289.88 465.86 289.35 468.43 288.82 470.82 287.84 472.81 283.76 474.5 282.29 478.85 280.65 479.47 278.48 478.58 276.12 476.01 272.51 476.87 270.98 477.83 270.36 479.93 269.9 512.52 284.88 523.62 291.71 525.69 292.54 Z" id="NGA-2866" data-name="Plateau"/>
<path d="M 399.3 311.95 403.15 313.84 406.39 316.21 407.43 320.76 410.61 323.98 414.98 324.83 419.51 324.76 420.63 324.59 421.65 324.11 423.75 323.57 425.58 324.76 426.77 326.25 426.44 328.16 425.45 330.48 422.65 334.24 421.1 335.75 418.64 336.54 417.07 338.9 415.39 340.91 414.24 343.7 415.54 346.9 417.16 349.16 417.62 351.92 417.25 355.12 418.7 357.86 424.23 360.76 428.29 361.85 434.55 361.9 440.65 360.86 444.88 359.59 449.03 359.73 456.82 363 460.41 365.24 462.85 368.72 461.04 371.58 458.32 373.32 456.45 373.41 454.56 373.13 452.58 372.56 450.68 372.23 449.13 371.41 445.85 370.31 444.2 371 443.1 372.48 442.4 374.21 442.12 376.24 445.68 380.68 445.88 384.06 445.76 385.23 446.27 386.47 446.49 388.23 445.13 389.43 435.47 395.82 433.18 397.77 420.51 388.39 420.51 388.76 418.08 388.95 410.78 388.7 405.94 387.67 392.51 383.21 383.75 384.2 380.05 387.32 378.97 392 380.51 396.78 383.66 403.62 384.07 405.95 383.22 407.04 382.73 406.95 381.92 406.68 381.17 406.28 379.51 405 376.43 403.32 374.92 401.68 372.99 401.13 370.85 400.91 368.73 400.29 365.18 398.45 363.36 397.79 357.75 396.83 356.63 396.39 353.29 394.44 351.01 393.82 346.31 393.28 344.02 392.75 340.85 391.68 336.57 391.21 333.2 390.37 332.35 390.16 331.24 390.08 321.83 390.99 310.13 389.97 307.91 390.21 294.49 394.73 291.07 396.76 290.99 397.14 290.52 397.36 289.23 398.49 286.94 399.91 285.36 400.57 284.81 400.43 284.92 397.65 285.68 394.99 286.89 393.11 287.69 391.03 288.72 381.26 288.44 376.91 285.23 371.26 286.88 366.96 287.44 364.69 297.03 363.23 306.42 360.72 314.98 356.51 317.89 353.29 320.23 349.57 323.1 341.61 326.22 328.18 325.97 321.69 326.14 317.55 327.67 310.42 328.89 308.24 329.66 308.01 330.45 307.51 330.68 306.23 330.52 304.91 332.39 304.04 333.37 305.78 334.96 306.62 337.09 306.45 338.72 307.76 339.83 307.92 340.92 307.94 343.21 308.9 345.48 307.9 348.06 303.2 352.14 302.56 354.3 304.56 354.9 306.07 354.86 307.75 357.01 309.46 359.62 311.02 360.33 318.81 362.04 325.24 367.32 322.37 371.14 317.04 372.93 315.38 375.09 316.22 381.08 317.83 383.76 321.27 385.05 322.52 385.92 324.02 387.57 325.62 390.16 325.3 393.01 322.46 395.12 318.77 396.85 314.8 399.3 311.95 Z" id="NGA-2867" data-name="Nassarawa"/>
<path d="M 528.96 92.64 520.17 98.36 516.67 97.5 514.62 96.2 509.6 97.04 507.54 97.83 506.03 99.27 505.08 102.13 504.46 105.08 499.67 118.31 499.23 120.48 499.83 123.21 498.73 125.48 478.47 133.08 476.29 134.45 474.05 135.48 468.45 135.94 464.89 139.13 463.49 144.05 466.32 145.92 470.37 144.77 472.75 144.51 475.03 145.04 476.08 147.25 477.09 152 477.16 154.29 474.96 158.34 474.68 160.52 475.98 162.3 478.17 162.32 479.31 161.98 482.08 166.73 488.46 175.11 493.3 177.01 503.9 178.96 509.58 179.17 514.37 180.75 514.07 182.9 512.46 184.75 510.16 186.13 502.82 188.96 501.43 193.45 502.18 195.86 500.38 196.99 497.78 196.02 495.47 194.86 484.98 195.64 481.18 194.1 479.62 190.41 480.22 186.13 480.2 181.83 478.73 177.82 475.82 175.17 471.98 176.13 463.4 176.74 460.03 175.58 457.42 172.3 453.29 172.91 449.06 172.67 444.9 170.96 440.92 169.86 436.86 169.78 437.04 168.93 436.97 167.13 437.08 166.22 437.69 164.2 438.74 162.39 444.63 157.13 445.24 155.65 443.72 154.74 442.87 154.47 441.32 153.56 439.49 151.64 438.54 150.17 437.03 146.41 436.29 145.88 434.47 145.69 431.62 145.91 430.53 144.95 431.45 140.92 433.87 137.43 434.44 135.88 434.75 134.27 435.52 132.19 435.69 129.91 434.7 125.96 433.96 124.04 430.89 123.7 428.53 125.26 424.39 125.25 424.31 123.56 423.86 121.95 423.35 121.72 420.59 122.12 419.01 122.68 418.36 122.43 417.7 121.94 416.81 120.52 417.35 119.48 418.05 118.58 418.38 117.43 418.33 111.3 415.56 107.9 411.35 107.42 407.62 106.19 407.07 104.17 407.16 101.89 406.31 100.05 404.68 98.91 402.89 98 401.31 96.84 400.73 94.46 400.81 91.92 400.52 90.19 398.91 89.52 394.62 88.38 390.66 87.83 386.73 88.59 383.39 90.3 381.38 93.22 380.23 96.51 379.5 97.77 378.31 97.09 378.01 96.17 378.02 95.18 377.56 94.03 374.22 88.17 373.4 86.19 371.99 84.66 366.69 84.53 363.2 82.41 363.05 78.14 363.6 73.66 364.54 71.93 371.63 70.88 376.4 70.78 380.78 71.31 391.02 70.86 392.27 72.06 393.44 75.47 395.26 78.48 396.78 79.45 398.46 80.11 399.98 80 402.06 78.83 402.87 79.87 403.84 80.72 406.49 80.94 410.08 80.13 413.26 78.47 416.22 76.14 416.94 75.04 417.47 73.74 418.06 72.83 418.88 72.09 420.03 71.6 420.38 70.56 420.44 69.97 439.83 72.2 442.3 72.19 445.84 71.21 447.05 71.13 461.17 72.75 462.58 72.65 463.04 72.46 463.76 72 464.53 71.35 464.99 70.82 466.8 71.3 473.11 73.34 478.93 70.87 479.94 69.21 480.72 67.43 481.93 66.56 486.53 64.68 489.77 63.85 496.04 61.36 499.01 60.62 501.79 61.44 503.51 64.02 505.25 70.67 505.89 72.33 508.76 72.76 513.15 71.54 515.33 71.71 517.72 72.82 520.19 73.36 522.45 73.28 524.3 74.65 526.32 78.92 527.54 88.31 528.96 92.64 Z" id="NGA-2868" data-name="Jigawa"/>
<path d="M 436.86 169.78 431.84 171.83 430.62 172.06 429.47 171.5 428.48 170.86 424.04 172.87 417.23 179.85 414.61 183.68 412.81 185.61 410.43 186.68 406.46 186.92 404.45 191.13 404.03 196.11 404.22 201.68 406.12 206.74 409.16 210.32 409.64 214.9 407.77 219.25 404.71 222.55 403.33 222.84 400.56 222.19 399.26 221.54 396.35 218.1 391.01 217.43 387.37 214.43 388.76 212.59 391.58 211.9 392.54 209.4 391.5 201.45 392.78 196.36 391.48 187.1 384.66 179.94 379.6 178.63 374.98 176.88 373.35 174.68 371.19 172.99 366.49 171.36 364.34 169.94 362.99 167.77 363.28 165.41 364.53 163.23 364.64 160.71 362.27 159.6 352.92 162.55 345.11 168.28 340.52 168.67 335.94 164.84 334.93 161.48 335.42 158.24 336.47 155.05 338.55 152.6 341.62 151.84 345.37 149.97 348.34 149.28 348.09 146.65 346.48 142.52 345.82 141.66 345.6 140.64 345.96 139.43 346.05 138.16 345.72 136.01 344.31 131.75 344.73 117.86 344.08 111.35 344.85 108.36 349.96 104.91 361.65 100.6 364.08 98.35 366.28 91.95 367.87 89.1 370.9 88.22 374.22 88.17 377.56 94.03 378.02 95.18 378.01 96.17 378.31 97.09 379.5 97.77 380.23 96.51 381.38 93.22 383.39 90.3 386.73 88.59 390.66 87.83 394.62 88.38 398.91 89.52 400.52 90.19 400.81 91.92 400.73 94.46 401.31 96.84 402.89 98 404.68 98.91 406.31 100.05 407.16 101.89 407.07 104.17 407.62 106.19 411.35 107.42 415.56 107.9 418.33 111.3 418.38 117.43 418.05 118.58 417.35 119.48 416.81 120.52 417.7 121.94 418.36 122.43 419.01 122.68 420.59 122.12 423.35 121.72 423.86 121.95 424.31 123.56 424.39 125.25 428.53 125.26 430.89 123.7 433.96 124.04 434.7 125.96 435.69 129.91 435.52 132.19 434.75 134.27 434.44 135.88 433.87 137.43 431.45 140.92 430.53 144.95 431.62 145.91 434.47 145.69 436.29 145.88 437.03 146.41 438.54 150.17 439.49 151.64 441.32 153.56 442.87 154.47 443.72 154.74 445.24 155.65 444.63 157.13 438.74 162.39 437.69 164.2 437.08 166.22 436.97 167.13 437.04 168.93 436.86 169.78 Z" id="NGA-2869" data-name="Kano"/>
<path d="M 371.82 45.49 372.69 45.9 373.57 46.65 375.22 48.6 381.86 54.53 382.35 54.83 383.02 55.09 383.27 55.11 383.55 54.92 384.3 54.55 385.07 54.31 386.72 54.11 387.51 54.12 389.3 54.5 390.89 55.25 393.8 57.39 395.1 58.79 397.01 61.89 398.15 63.25 400.59 64.63 418.11 69.71 420.44 69.97 420.38 70.56 420.03 71.6 418.88 72.09 418.06 72.83 417.47 73.74 416.94 75.04 416.22 76.14 413.26 78.47 410.08 80.13 406.49 80.94 403.84 80.72 402.87 79.87 402.06 78.83 399.98 80 398.46 80.11 396.78 79.45 395.26 78.48 393.44 75.47 392.27 72.06 391.02 70.86 380.78 71.31 376.4 70.78 371.63 70.88 364.54 71.93 363.6 73.66 363.05 78.14 363.2 82.41 366.69 84.53 371.99 84.66 373.4 86.19 374.22 88.17 370.9 88.22 367.87 89.1 366.28 91.95 364.08 98.35 361.65 100.6 349.96 104.91 344.85 108.36 344.08 111.35 344.73 117.86 344.31 131.75 345.72 136.01 346.05 138.16 345.96 139.43 345.6 140.64 345.82 141.66 346.48 142.52 348.09 146.65 348.34 149.28 345.37 149.97 341.62 151.84 338.55 152.6 336.47 155.05 335.42 158.24 334.93 161.48 335.94 164.84 340.52 168.67 338.23 172.13 332.84 174.3 330.93 173.49 329.62 171.72 327.35 170.09 324.78 168.96 319.94 168.03 315.77 170.44 314.64 172.57 314.29 174.96 312.46 175.92 310.09 175.11 305.01 175.04 303.89 178.59 305.03 180.31 305.12 182.2 303.48 183.96 301.3 185.09 299.1 184.82 295.64 181.25 293.31 179.9 288.44 178.61 288.36 176.75 290.17 174.82 291.23 174.01 291.46 172.78 290.65 171.2 289.23 170.17 285.71 170.1 284.08 169.66 281.04 168.21 282.08 165.23 282.69 162.15 282.48 159.81 282.91 157.59 280.61 153.51 283.14 141.59 287 139.82 291.94 139.82 292.35 139.95 292.93 140.58 293.31 140.73 294.38 140.2 297.2 138.04 298.78 136.53 299.12 134.36 300.33 133.21 302.43 133.76 304.41 133.02 303.67 129.08 300.01 126.15 297.73 125.1 296.41 123.5 297.49 121.41 298.94 117.54 299.38 115.81 298.99 113.8 298.36 111.87 297.97 108.45 297 105.11 295.18 101.59 295.51 97.61 294.08 94.23 291.98 66.84 293.09 59.87 293.47 59.81 294.89 59.12 298.04 56.4 302.08 51.74 303.57 51.46 310.5 52.71 312.89 52.72 314.97 52.06 339.15 37.79 341.42 36.8 343.7 36.58 360.56 38.93 362.4 39.62 363.16 40.19 364.72 41.65 366.56 42.76 368.8 44.49 369.77 44.94 371.75 45.46 371.82 45.49 Z" id="NGA-2870" data-name="Katsina"/>
<path d="M 241.3 15.14 242.49 15.4 246.93 17.89 256.27 26.55 267.12 38.18 272.53 47.91 272.51 47.93 269.19 50.5 264.02 53.41 257.54 53.41 251.06 51.86 249.95 50.84 248.92 49.61 247.74 49.19 246.49 48.89 245.05 48.71 241.95 48.72 240.97 49.54 240.66 51.21 240.57 52.97 239.82 55.71 238.15 56.14 235.56 55.14 230.72 55.74 226.52 58.06 225.77 59.92 226.94 71.3 224.96 74.91 222.58 75.96 220.1 76.63 205.12 78.05 201.76 80.65 199.28 84.57 195.78 88.88 192.64 90.98 192.24 95.35 193.59 100.25 193.85 105.45 190.53 108.9 170.2 109.73 160.42 108.14 157.97 116.11 157.45 147.29 156.14 148.12 154.69 148.24 153.99 147.2 152.98 146.57 152.23 146.87 151.44 147.08 150.38 146.51 148.97 146.18 147.58 146.52 134.94 152.14 132.61 154.97 129.71 156.76 126.73 155.79 124.59 153.38 125.13 147.05 128.07 140.8 130.33 130.43 129.89 104.87 132.27 100.72 137.03 99.55 141.57 100.99 144.55 99.49 144.8 94.47 142.8 83.78 143.11 81.27 143.75 78.81 144.31 74 142.77 69.84 140.58 66.1 140.98 63.43 141.71 60.89 142.12 59.99 142.38 58.97 142.37 57.72 142.6 56.5 143.57 54.52 143.81 52.46 142.64 51.03 140.92 51.59 139.67 53.17 138.67 54.92 136.6 56.12 134.07 55.92 131.68 54.81 129.47 53.3 127.16 52.48 124.75 51.9 120.23 50.25 116.11 47.87 114.09 45.94 112.05 44.37 109.64 44.87 107.34 45.97 103.02 45.28 97.97 45.41 97.38 45.54 97.61 44.01 97.75 28.09 102.05 27.95 104.05 27.58 105.91 26.68 116.37 16.9 119.48 14.74 123.08 13.35 131 11.45 144.24 8.29 146.37 8.06 147.9 8.73 149.39 10.13 150.91 10.79 154.77 11.02 161.5 9.83 171.03 10.24 173.31 9.82 174.08 9.5 176.12 8.07 177.04 7.01 178.15 4.56 178.92 3.58 180.77 2.67 190.59 1 192.75 1.46 211.58 8.75 230.4 16.04 231.01 16.38 231.42 16.74 231.86 16.93 232.56 16.74 236.4 14.64 237.68 14.37 241.3 15.14 Z" id="NGA-2871" data-name="Sokoto"/>
<path d="M 293.09 59.87 291.98 66.84 294.08 94.23 295.51 97.61 295.18 101.59 297 105.11 297.97 108.45 298.36 111.87 298.99 113.8 299.38 115.81 298.94 117.54 297.49 121.41 296.41 123.5 297.73 125.1 300.01 126.15 303.67 129.08 304.41 133.02 302.43 133.76 300.33 133.21 299.12 134.36 298.78 136.53 297.2 138.04 294.38 140.2 293.31 140.73 292.93 140.58 292.35 139.95 291.94 139.82 287 139.82 283.14 141.59 280.61 153.51 282.91 157.59 282.48 159.81 282.69 162.15 282.08 165.23 281.04 168.21 279.97 170.2 278.62 171.48 273.92 174.39 272.57 176.06 271.83 178.05 270.58 184.06 269.92 185.48 269.07 186.61 268.05 187.48 266.86 188.19 261.28 190.31 260.7 190.6 260.12 190.72 259.02 190.61 258.29 190.69 253.92 191.93 252.42 191.92 250.95 191.61 246.59 190.07 245.19 189.92 243.87 190.42 243.05 191.37 241.84 193.84 241.03 194.89 240.36 195.29 238.76 195.87 238.09 196.34 237.55 197.2 237.45 198.05 237.45 198.9 237.18 199.8 236.21 200.67 233.16 201.69 232.13 197.26 227.03 188.81 224.19 185.16 223.6 174.99 218.51 167.02 215.88 166 214.63 163.97 216.29 158.98 216.63 154.44 213.5 151.44 210.98 150.59 206.05 149.77 204.95 150.03 203.92 150.61 193.78 151.29 189.85 150.45 184.07 148.01 183.1 146.09 181.52 144.78 177.74 145.34 176.16 145.24 174.74 144.59 173.28 144.68 172.11 145.81 171.6 147.4 170.4 148.05 168.85 148.16 165.36 149.01 163.98 148.75 162.9 147.84 160.18 146.8 157.45 147.29 157.97 116.11 160.42 108.14 170.2 109.73 190.53 108.9 193.85 105.45 193.59 100.25 192.24 95.35 192.64 90.98 195.78 88.88 199.28 84.57 201.76 80.65 205.12 78.05 220.1 76.63 222.58 75.96 224.96 74.91 226.94 71.3 225.77 59.92 226.52 58.06 230.72 55.74 235.56 55.14 238.15 56.14 239.82 55.71 240.57 52.97 240.66 51.21 240.97 49.54 241.95 48.72 245.05 48.71 246.49 48.89 247.74 49.19 248.92 49.61 249.95 50.84 251.06 51.86 257.54 53.41 264.02 53.41 269.19 50.5 272.51 47.93 272.53 47.91 274.18 50.88 278.12 55.32 280.53 57.52 282.69 59.09 284.72 59.85 286.94 60.09 291.89 60.06 293.09 59.87 Z" id="NGA-2872" data-name="Zamfara"/>
<path d="M 647.15 54.32 647.13 54.44 645.57 67.18 646.76 71.39 649.7 74.62 653.29 77.23 653.86 81.31 652.19 85.35 649.27 89.35 641.94 96.15 643.31 106.11 640.24 128.48 641.81 135.12 641.46 138.04 637.48 145.85 637.11 148.45 638.87 149 641.09 148.68 643.8 149.55 645.75 151.74 646.96 154.08 647.26 156.51 640.54 164.73 637.79 169.58 635.96 171.48 634.57 173.65 634.21 179.27 634.55 184.86 632.52 189.43 628.38 192.5 612.68 197.94 608.92 202.02 608.01 207.35 608.45 212.91 607.72 215.22 606.16 217.23 604.13 218.84 601.55 219.55 599.05 219.81 594.37 219.35 593.78 217.38 593.33 212.6 594.19 197.33 593.75 195.06 592.34 193.3 585.38 186.37 582.14 182.05 578.47 178.2 574.23 174.95 565.09 170.56 555.87 172.96 552.64 172.46 550.89 170.21 553.2 159.93 552.81 154.3 544.81 134.9 542.8 124.27 542.73 119.63 542.32 116.76 541.02 114.18 539.64 112.08 539.31 109.74 539.22 107.06 538.19 101.82 537.31 99.3 533.51 95.68 528.96 92.64 527.54 88.31 526.32 78.92 524.3 74.65 522.45 73.28 520.19 73.36 517.72 72.82 515.33 71.71 513.15 71.54 508.76 72.76 505.89 72.33 505.25 70.67 503.51 64.02 501.79 61.44 499.01 60.62 496.04 61.36 489.77 63.85 486.53 64.68 481.93 66.56 480.72 67.43 479.94 69.21 478.93 70.87 473.11 73.34 466.8 71.3 464.99 70.82 476.4 57.6 478.63 55.53 479.91 54.72 480.62 54.48 480.95 54.52 481.22 54.48 481.75 53.94 482.06 53.27 482.32 51.64 482.6 50.95 483.77 49.84 496.39 42.91 499.16 41.77 531.51 34.98 533.31 34.6 539.72 34.09 551.8 35.48 584.19 35.31 604.29 40.29 611.64 43.22 620.89 48.76 623.96 51.14 625.27 51.78 629.18 52.71 631.38 52.52 632.33 52.36 633.72 51.42 634.83 51.2 638.18 52.36 638.94 52.77 639.19 53.22 639.22 53.58 639.34 53.83 639.87 53.93 640.11 53.77 640.41 53.43 640.82 53.11 641.45 53.02 642.11 53.38 642.61 53.97 643.1 54.3 643.73 53.93 644.81 54.24 647.15 54.32 Z" id="NGA-2873" data-name="Yobe"/>
<path d="M 157.45 147.29 160.18 146.8 162.9 147.84 163.98 148.75 165.36 149.01 168.85 148.16 170.4 148.05 171.6 147.4 172.11 145.81 173.28 144.68 174.74 144.59 176.16 145.24 177.74 145.34 181.52 144.78 183.1 146.09 184.07 148.01 189.85 150.45 193.78 151.29 203.92 150.61 204.95 150.03 206.05 149.77 210.98 150.59 213.5 151.44 216.63 154.44 216.29 158.98 214.63 163.97 215.88 166 218.51 167.02 223.6 174.99 224.19 185.16 222.15 183.86 219.82 183.98 218.84 184.75 217.16 186.62 216.46 187.66 214.76 189.01 212.45 189.19 210.16 189.8 198.65 194.63 194.24 195.39 187.59 195.41 185.8 194.79 184.95 192.45 184.86 189.85 185.25 184.74 184.19 182.52 182.07 181.19 179.7 176.95 178.79 171.99 174.85 169.65 170.01 169.5 150.35 173.43 141.22 177.46 140.13 181.66 144.35 184.81 149.14 186.79 154.22 187.58 155.35 187.59 156.25 188.07 156.79 189.25 157.66 189.79 159.49 190.33 160.3 192.25 160.92 194.94 161.09 197.63 157.9 201.62 160.62 204.98 162.08 209.33 160.29 210.74 155.58 212.06 151.12 214.18 146.5 213.55 144.39 214.3 143.26 218.72 143.62 223.71 143.31 226.02 143.69 228.25 146.82 232.29 148.85 236.81 147.2 241.16 145.28 242.55 143.02 243.29 135.3 244.91 132.97 245.69 132.27 248 132.23 250.67 131.41 252.46 126.87 252.21 125.26 250.79 126.27 245.87 126.69 241.05 125.25 239.49 123.54 238.22 122.53 235.91 122.26 233.39 122.68 228.44 125.19 224.2 132.93 219.89 133.02 218.68 134.69 217.01 135.21 216.11 135.33 214.96 135.31 212.44 137.52 200.57 137.41 198.93 133.13 197.64 125.08 192.44 118.34 190.66 111.44 191.67 93.24 192.15 89.72 191.75 82.28 188.38 76.36 184.74 70.28 184.05 69.81 184.52 69.8 184.53 69.72 184.52 69.1 184.64 68.55 184.54 66.94 183.04 55.02 166.47 54.03 164.66 53.91 163.13 55.25 159.55 55.67 158.54 56.46 155.54 61.08 147.8 62.54 146.28 65.96 144.27 66.76 143.47 67.23 142.03 66.9 140.72 66.09 139.5 64.53 137.85 64.24 137.69 64.02 137.47 63.64 136.76 63.43 136.11 63.04 132.33 63.34 131.24 64.08 130.29 65.21 129.14 66.34 126.93 66.03 124.65 64.37 119.78 64.41 116.9 66.2 108.16 65.54 91.6 65.82 90.9 80.36 80.18 84.67 76.15 95.29 59.8 97.38 45.54 97.97 45.41 103.02 45.28 107.34 45.97 109.64 44.87 112.05 44.37 114.09 45.94 116.11 47.87 120.23 50.25 124.75 51.9 127.16 52.48 129.47 53.3 131.68 54.81 134.07 55.92 136.6 56.12 138.67 54.92 139.67 53.17 140.92 51.59 142.64 51.03 143.81 52.46 143.57 54.52 142.6 56.5 142.37 57.72 142.38 58.97 142.12 59.99 141.71 60.89 140.98 63.43 140.58 66.1 142.77 69.84 144.31 74 143.75 78.81 143.11 81.27 142.8 83.78 144.8 94.47 144.55 99.49 141.57 100.99 137.03 99.55 132.27 100.72 129.89 104.87 130.33 130.43 128.07 140.8 125.13 147.05 124.59 153.38 126.73 155.79 129.71 156.76 132.61 154.97 134.94 152.14 147.58 146.52 148.97 146.18 150.38 146.51 151.44 147.08 152.23 146.87 152.98 146.57 153.99 147.2 154.69 148.24 156.14 148.12 157.45 147.29 Z" id="NGA-2879" data-name="Kebbi"/>
<path d="M 714.05 251.29 713.1 251.84 711.87 252.38 706.65 252.94 704.43 253.78 703.25 256.05 703.27 257.38 704.07 259.55 704.33 260.83 704.05 262.41 702.48 264.85 701.98 266.2 702.09 267.7 702.77 268.77 704.7 270.75 705.43 272.25 705.26 273.32 704.64 274.41 703.99 276 703.13 280.48 702.8 284.79 700.94 289.51 696.61 291.22 691.38 292.02 686.77 294.01 685.88 294.71 683.95 297.17 683.22 297.9 682.67 298.27 678.76 300.11 678.32 300.42 677.86 301.63 678.17 301.85 680.06 302.15 680.71 303.49 681.24 305.48 681.18 308.12 680.93 309.35 680.52 310.49 677.44 315.96 676.11 319.13 676.03 321.82 676.52 324.24 675.02 336.78 674.27 339.63 672.84 341.59 671.95 341.97 671.13 341.96 670.28 341.8 669.33 341.77 668.58 342.14 668.1 342.92 667.51 344.8 666.54 346.94 665.35 348.23 658.54 351.8 657.52 352.04 656.53 351.85 654.39 350.87 653.52 350.63 652.31 350.77 651.48 351.2 650.71 351.73 649.66 352.19 648.74 352.27 647.79 352.12 645.96 351.54 646.51 352.5 648.07 356.27 648.25 357.21 648.29 359.05 647.72 359.67 645.71 361.05 645.21 361.73 644.79 362.53 644.26 363.3 643.47 363.86 642.06 364.05 639.51 363.63 638.06 364.23 636.53 366.38 636.02 369.25 636.18 372.28 637.24 377.65 637.18 378.98 636.98 379.54 636.67 380.41 633.95 384.24 633.58 385.86 633.58 388.44 633.95 391 634.41 392.63 634.59 393.73 634.21 394.69 631.69 397.31 625.09 406.45 622.7 410.77 622.24 412.14 622.04 413.6 622.15 415.01 623.09 418.91 622.83 420.26 622 421.02 620.96 421.74 619.18 424.37 615.02 428.42 614.99 428.4 614.95 428.36 614.15 425.01 612.5 421.47 611.66 417.04 611.67 412.59 608.46 404.95 602 398.88 600.35 396.89 598 395.83 595.88 396.78 594.59 398.82 593.11 400.6 591.36 402.12 589.19 401.91 587.38 400.04 584.71 395.3 581.81 388.19 582.43 386.12 586.08 381.86 590.43 378.01 607.61 357.54 612.07 353.91 612.7 351.71 612.35 349.28 612.86 344.68 619.54 330.96 619.13 326.35 616.35 322.96 612.16 320.94 609.84 317.07 609.82 314.74 610.13 312.43 609.48 310.36 608.24 308.42 605.95 303.62 602.11 300.2 599.93 299.54 597.68 299.14 596.06 297.62 589.9 286.2 596.02 285.22 601.66 282.74 613.97 275.44 616.45 273.42 617.47 270.65 617.12 261.88 617.81 256.09 628.54 256.67 637.01 250.8 643.86 241.95 647.68 238.78 652.55 237.71 657.87 237.15 662.68 235.03 664.52 233 665.74 230.63 667.38 229.39 669.87 229.26 673.79 225.77 677.36 221.61 682.82 220.39 688.55 221.18 693.07 223.1 696.78 226.31 700.65 228.8 705.18 229.8 708.54 227.95 710.9 219.08 714.57 210.14 715.46 205.53 715.43 201 716.01 197.19 718.28 196.89 719.19 197.07 719.94 197.65 722.06 198.44 724.28 198.74 733.94 196.62 737.77 196.39 737.81 196.39 737.45 197.18 725.6 213.91 723.77 217.74 721.28 226.05 719.01 238.61 717.52 242.74 717.5 243.6 717.96 244.96 718.07 245.73 717.92 246.62 716.86 248.86 716.09 249.85 714.67 250.92 714.05 251.29 Z" id="NGA-2881" data-name="Adamawa"/>
<path d="M 330.52 304.91 330.68 306.23 330.45 307.51 329.66 308.01 328.89 308.24 327.67 310.42 326.14 317.55 325.97 321.69 326.22 328.18 323.1 341.61 320.23 349.57 317.89 353.29 314.98 356.51 306.42 360.72 297.03 363.23 287.44 364.69 286.85 364.76 284.48 365.16 282 364.89 277.92 365.02 274.89 364.67 273.28 361.86 272.87 360.67 272.25 313.22 272.54 311.34 274.16 310.59 286.45 310.12 290.46 311.35 296.67 317.34 299.8 319.08 300.22 318.97 309.57 305.79 315.89 305.11 317.75 305.17 319.59 305.46 321.26 306.15 322.7 305.08 324.82 302.2 327.19 303.09 328.42 305.34 330.52 304.91 Z" id="NGA-3470" data-name="Federal Capital Territory"/>
</g>
</svg>