<?xml version="1.0"?>
<svg xmlns="http://www.w3.org/2000/svg" version="1.2" baseProfile="tiny" width="800" height="732" viewBox="0 0 800 732" stroke-linecap="round" stroke-linejoin="round">
<g id="ne_10m_admin_1_states_provinces">
<path d="M 363.77 147.38 364.62 148.55 364.84 148.53 360.85 160.28 359.83 162.46 357.97 165.59 356.43 166.84 354.54 167.83 344.15 170.44 342.14 171.27 340.04 172.51 338.95 173.7 338.33 174.74 338.18 175.6 338.13 176.51 338.47 177.4 339.03 178.2 341.35 180.36 342.65 181.88 341.78 184.68 340.42 187.26 339.3 192.94 338.85 194.42 338.29 195.44 337.6 195.88 335.77 197.49 334.29 199.24 333.33 200.14 332.41 200.79 331.62 201.12 328.83 201.98 327.76 202.56 326.98 203.52 324.45 208.09 323.76 208.96 318.88 212.97 318.17 214.03 313.73 224.53 313.31 226.06 313.6 226.75 314.01 227.4 315.03 228.58 315.9 229.88 316.48 231.35 316.81 233.03 317.26 239.39 317.61 241.04 318.14 242.58 318.43 244.63 318.16 248.77 310.26 250.53 308.01 251.98 307.72 252.82 306.9 254.09 305.59 255.61 301.02 259.78 300.08 260.9 299.66 262.58 299.36 263.3 298.62 264.56 297.89 265.24 297.07 265.78 295.09 266.33 292.63 266.71 291 266.74 290.04 266.65 279.41 263.9 271.7 263.66 270.65 263.52 268.74 263 261.18 258.9 259.94 258.59 258.29 258.39 252.03 258.34 251 258.18 250.08 257.89 247.15 256.2 246.09 255.76 244.66 255.39 242.12 255.07 240.32 255.07 227.37 257.47 225.66 257.53 222.56 256.89 215.98 254.74 214.84 254.77 213.91 255.04 213.26 255.51 212.34 256.06 211.2 256.6 209.13 257.24 207.69 257.43 206.35 257.43 204.42 256.94 191.77 255.62 190.02 255.23 184.5 251.58 182.86 250.85 170.99 247.92 167.6 246.52 165.57 245.13 164.47 244.04 161.2 239.7 160.48 239.08 158.93 238.55 156.17 237.99 151.94 237.87 148.31 237.44 144.73 236.24 143.13 235.46 138.1 232.41 127.4 227.69 105.36 223.58 104.28 223.23 103.52 222.85 102.83 222.38 102.28 221.81 101.86 221.16 101.52 220.47 99.61 215.2 99.19 214.55 98.66 213.99 97.36 213.01 87.46 208.23 83.5 206.93 81.96 206.7 80.78 206.73 75.24 207.93 74.55 208.3 74.06 208.86 73.9 209.65 73.74 211.08 73.71 211.17 73.53 211.29 72.76 211.39 71.09 211.43 68.5 210.85 66.14 210.59 63.89 211.13 61.44 212.2 60.96 212.43 59.19 211.25 55.53 207.42 57.43 202.79 60.28 200.75 65.91 197.8 68.26 196.06 69.72 193.24 70.46 186.44 71.84 183.36 72.87 182.37 75.34 180.7 76.44 179.73 79.55 174.06 81.01 172.34 81.02 168.46 80.02 161.8 81.92 155.19 85.71 150.19 88.48 145.09 87.27 138.09 80.95 130.09 80.02 128.37 81.18 125.72 83.97 124.1 90.34 122.66 93.81 123.01 95.67 122.41 96.47 120.15 97.33 116.54 97.5 114.98 97.35 108.73 96.84 105.02 96.85 105.01 100.43 100.4 101.21 99.83 102.25 99.2 103.75 99.15 107.86 99.55 109.48 100.01 111.54 101.05 121.25 107.33 123.77 109.32 124.89 110.41 127.37 113.38 128.1 114.07 129.09 114.8 130.88 115.79 132.28 116.2 133.6 116.42 138.9 116.4 141.96 116.77 143.57 117.16 144.79 117.59 147.23 119.21 148.14 119.98 153.07 123 172.9 132.08 180.04 134.07 181.2 134.67 183.44 136.27 183.5 136.32 190.4 142.23 193.25 143.96 196.87 145.61 205.87 147.93 207.37 148.04 208.35 147.91 209.24 147.68 210.04 147.37 214.09 144.71 215.53 144.03 216.52 143.71 226.37 142.65 229.97 142.83 246.96 145.48 249.09 145.57 252.64 144.71 259.84 144.11 261.69 143.73 263.34 143.16 264.7 142.53 273.49 136.21 274.89 135.46 276.6 134.96 281.6 134.39 283.36 133.91 284.1 133.52 284.74 133.06 286.89 130.75 287.53 130.27 289.02 129.51 292.39 128.31 293.06 127.98 294.35 127.05 294.89 126.45 295.77 125.09 296.87 122.85 297.73 121.47 298.25 120.87 298.83 120.33 299.9 119.87 301.38 119.57 304.09 119.34 305.58 119.52 306.78 119.77 315.1 122.4 338.87 126.89 339.86 127.22 342.31 128.51 345.39 130.8 346.45 131.95 348.7 135.07 350.42 136.83 354.24 139.65 355.35 140.72 356.86 142.51 358.04 143.55 363.63 147.28 363.77 147.38 Z" id="URY-10" data-name="Salto"/>
<path d="M 197.52 454.21 195.47 458.93 194.5 460.31 183.81 471.77 181.84 473.19 166.13 488.92 164.5 491.33 164.44 492.69 164.6 493.67 164.94 494.47 165.4 495.09 165.98 495.64 169.82 497.78 170.49 498.26 171.07 498.82 171.52 499.46 171.89 500.14 173.57 506.56 173.87 507.3 174.28 507.95 176.71 510.62 176.74 510.68 176.76 510.7 176.94 511.11 177.27 513.02 177.35 514.79 177.55 515.94 177.86 516.85 178.35 517.47 178.92 518.02 179.54 518.53 182.61 522.08 183.92 523.08 185.41 523.94 186.31 524.25 190.44 525.17 191.32 525.6 192.05 526.17 192.53 527.14 192.52 528.04 192.26 528.84 191.94 529.55 191.54 530.22 191.21 531.01 190.95 531.87 188.7 546.55 188.64 548.43 188.81 548.92 189.05 549.45 195.3 558.44 197.07 561.97 197.34 562.82 197.76 565.02 198.36 566.76 198.74 567.62 199.1 568.66 199.76 572.42 200.32 573.95 200.65 574.67 201.08 575.32 203.72 578.33 204.92 579.99 189.3 577.96 176.92 577.96 172.69 577.5 171.87 577.12 169.04 575.29 166.49 573.28 163.66 571.86 160.43 570.61 157.68 569.97 131.86 575.82 122.81 576.56 118.59 576.27 98.15 570.39 96.69 569.5 95.98 568.95 95.01 567.93 95.21 568.1 94.96 567.83 94.66 567.41 93.86 566.76 92.77 566.07 90.74 565.19 89.23 564.85 77.52 564.54 73.04 565.22 70.38 565.31 68.83 565.14 67.67 564.88 67.01 564.58 66.6 564.33 66.06 563.93 65.56 563.41 64.68 562.13 64.32 561.42 63.76 559.92 63.02 558.53 62.61 557.9 61.67 556.87 60.88 556.18 43.98 552.54 41.4 552.28 39 552.88 25.02 560.97 11.52 565.67 9.43 566.18 4.65 566.9 4.57 566.9 4.56 566.91 1.71 553.32 1 540.38 3.04 527.56 2.55 524.44 1.65 521.49 1.15 518.36 1.92 514.81 3.96 511.89 9.09 506.21 10.1 502.96 9.16 500.04 8.16 499.34 8.19 499.33 22.49 492.23 30.55 483.36 33.31 481.91 40.47 481.91 44.74 482.51 46.43 481.85 47.12 479.31 47.19 473.66 47.63 472.15 49.24 470.8 54.28 468.52 56.05 469.44 58.6 471.49 59.39 471.59 60.93 472.7 62.13 471.42 62.74 468.94 62.55 466.48 62.13 466.23 60.22 464.7 59.37 463.85 59.33 462.69 59.44 461.37 59.39 460.34 57.77 457.37 57.84 456.32 59.39 455.23 61.82 454.67 63.97 455.11 66.15 455.8 68.68 456.06 72.03 455.39 72.66 454.13 72.34 452.31 72.87 450.03 74.36 448.81 78.81 447.84 81.05 447.05 83.17 445.42 84.72 443.75 86.49 442.41 89.23 441.76 91.83 442.1 96.02 444.22 98.34 444.91 100.17 444.87 103.3 444.08 105.08 443.89 106.74 444.22 108.92 445.61 113.41 446.54 119.15 448.5 122.04 447.98 123.16 446.79 124.64 443.54 125.66 442.87 130.67 441.72 131.8 441.29 134.7 439.58 137.88 438.98 141.22 439.4 147.79 442.32 149.17 443.26 149.74 444.4 149.75 446.07 149.97 447.92 150.73 449.41 152.34 450.03 154.07 449.63 157.15 447.71 158.94 447.05 160.61 446.95 162.15 447.16 168.27 448.9 170.9 450.07 172.69 451.89 174.35 457.78 176.62 457.24 179.07 455.02 180.6 453.09 181.49 457.08 182.31 458.67 184.09 459.32 185.74 459.08 192.46 456.58 196.2 454.62 197.52 454.21 Z" id="URY-11" data-name="Soriano"/>
<path d="M 788.22 405.81 788.13 405.79 770.09 402.6 766.36 402.22 765.16 402.32 763.64 402.57 761.18 403.84 759.99 404.17 758.69 404.24 756.73 404.04 755.53 403.7 754.58 403.27 752.61 401.83 751.46 401.53 749.82 401.42 746.98 401.58 745.48 401.37 744.46 400.97 743.44 399.79 742.85 399.25 742.16 398.82 741.48 398.52 740.73 398.36 724.62 400 721.03 399.88 715.69 399.04 690.69 400.72 689.2 400.6 687.99 400.37 687.14 400.03 685.6 399.21 676.1 392.67 674.56 391.91 673.64 391.61 672.27 391.65 670.57 392 666.41 394.04 665.65 394.55 664.67 395.55 661.43 397.97 660.89 398.54 660.47 399.18 660.34 399.96 660.53 400.69 660.88 401.37 661.76 402.67 662.14 403.38 662.35 404.15 661.98 404.94 661.13 405.54 659.05 405.66 657.85 405.4 656.85 405 656.18 404.52 648.07 399.86 647.24 399.53 646.35 399.3 645.34 399.26 642.17 399.46 641.04 399.42 639.97 399.28 638.98 399.05 638.21 398.66 636.77 397.8 635.9 397.47 631.72 397.05 628.64 396.17 622.96 395.53 621.99 395.29 621.16 394.94 620.46 394.5 619.21 393.49 618.5 393.05 617 393.17 614.78 393.94 607.35 397.47 604.24 398.29 595.85 398.77 593.74 398.5 592.65 398.59 591.7 399.03 590.82 400.26 590.06 402.19 589.67 402.92 588.88 403.55 587.77 404.04 585.6 404.33 584.28 404.21 583.17 403.99 582.23 403.99 581.4 404.35 580.64 405.22 579.61 406.73 578.56 407.93 577.68 408.52 576.48 408.97 574.19 409.34 572.74 409.3 571.51 409.13 568.79 408.21 566.74 407.8 564.73 407.76 563.38 407.95 556.43 410.37 554.05 410.8 549.21 410.75 544.98 411.13 543.09 411.53 534.28 415.33 531.72 417.2 529.4 419.37 528.09 420.33 527.33 420.7 522.2 422.45 520.44 423.53 519.26 424.56 518.34 425.16 515.01 426.79 514.23 427.32 513.29 428.24 512.51 429.31 511.98 430.22 511.88 431.32 512.21 432.58 514.38 435.77 514.61 436.79 514.59 439.51 506.88 438.57 496.13 438.94 493.76 438.78 492.2 438.42 491.6 437.89 489.93 435.83 489.91 435.79 489.88 435.76 489.48 435.39 475.22 427.68 473.24 426.22 470.43 423.46 468.78 421.05 468.04 419.42 467.68 417.8 467.74 416.89 468.58 413.35 468.81 410.5 468.73 409.65 468.49 408.87 467.91 407.87 465.4 404.68 464.71 403.43 464.44 402.32 464.69 401.55 465.11 400.89 465.76 400.4 466.56 400.07 468.53 399.75 469.34 399.45 469.87 398.88 470.14 398.08 470.15 397.22 469.94 396.32 466.09 388.71 465.83 387.84 465.86 386.03 466.4 384.39 468.42 379.67 470.56 371.8 470.71 369.94 470.63 368.13 469.94 364.87 466.89 359.98 480.19 354.75 485.37 354.47 495.11 357.75 500.23 358.65 505.48 357.99 510.09 356.2 514.02 353.62 517.19 350.57 520.24 346.19 522.53 344.22 527.85 342.86 529.09 341.53 530.12 339.85 531.5 338.29 533.03 337.39 536.17 336.13 537.64 335.23 540.1 332.51 543.27 326.35 545.4 323.33 545.99 321.69 545.38 320.02 544.39 318.36 543.87 316.73 544.09 315.31 544.66 313.82 545.91 311.62 549.37 308.3 550.56 306.28 551.03 302.83 552.67 301.28 556.35 302.34 562.36 305.39 564.58 305.17 567.82 304.41 570.98 303.69 574.12 303.34 577.57 302.43 579.73 300.21 580.24 297.52 578.72 295.16 580.22 293.35 584.03 290.83 584.95 288.93 584.43 286.42 582.54 285.79 580.05 285.46 577.7 283.82 582.81 277.59 584.66 273.21 586.74 269.97 590.34 262.42 591.09 259.75 590.37 256.13 587.76 249.51 587.92 245.9 588.71 244.46 590.05 242.77 591.5 241.37 592.58 240.79 593.03 240.18 595.08 236.6 595.81 235.79 595.87 235.73 596.39 236.87 600.47 240.23 605.38 243.28 609.9 246.92 614.48 251.47 624.77 259.56 633.07 264.55 640.44 270.43 643.93 272.52 645.61 272.38 647.04 270.81 649.77 268.63 652.59 267.77 655.53 268.03 658.39 269.11 660.95 270.75 661.85 271.76 663.19 273.97 664.53 275.01 666 275.49 670.93 275.91 673.51 276.57 675.67 277.41 679.94 279.92 681.69 281.54 682.35 283.07 682.72 284.59 683.6 286.2 685.14 287.73 687.09 289.19 691.23 291.47 700.01 293.06 702.18 294.26 703.07 296.31 703.28 301.59 707.56 310.34 715.17 319.92 716.97 324.1 717.98 329.19 718.45 336.73 719.17 339.27 720.53 341.23 724.35 344.1 725.9 345.91 728.44 349.78 731.54 353.34 735.08 356.43 744.52 362.13 753.36 370.5 761.82 372.92 768.27 376.27 770.81 376.94 775.63 376.97 780.6 379.56 785.43 381.44 787.72 382.87 797.66 391.95 799 394.2 798.52 396.92 796.6 399.06 791.18 402.63 788.22 405.81 Z" id="URY-12" data-name="Cerro Largo"/>
<path d="M 466.89 359.98 469.94 364.87 470.63 368.13 470.71 369.94 470.56 371.8 468.42 379.67 466.4 384.39 465.86 386.03 465.83 387.84 466.09 388.71 469.94 396.32 470.15 397.22 470.14 398.08 469.87 398.88 469.34 399.45 468.53 399.75 466.56 400.07 465.76 400.4 465.11 400.89 464.69 401.55 464.44 402.32 464.71 403.43 465.4 404.68 467.91 407.87 468.49 408.87 468.73 409.65 468.81 410.5 468.58 413.35 467.74 416.89 467.68 417.8 468.04 419.42 468.78 421.05 470.43 423.46 473.24 426.22 475.22 427.68 489.48 435.39 489.88 435.76 489.91 435.79 489.93 435.83 491.6 437.89 492.2 438.42 493.76 438.78 496.13 438.94 506.88 438.57 514.59 439.51 513.18 441.85 512.7 442.45 511.63 443.45 510.3 444.41 501.92 448.98 500.64 450.33 499.44 453.48 491.84 456.99 489.31 458.45 481.08 465.05 479.04 466.27 477.41 466.93 476.34 466.86 475.38 466.63 472.91 465.5 471.9 465.24 470.57 465.17 467.26 466.54 463.86 468.42 455.7 471.95 454.43 473.05 451.47 476.27 422.87 489.85 419.48 491.01 418.38 491.03 412.83 490.2 411.48 490.16 409.65 490.36 408.59 490.77 407.84 491.37 407.33 492 406.36 492.9 404.93 493.96 401 496.1 391.8 499.62 386.79 500.95 385.68 501.08 383.51 500.97 382.48 500.78 381.57 500.5 379.12 499.36 378.17 499.12 377.07 499.02 375.98 499.05 368.13 500.35 363.07 500.72 361.67 501.18 360.87 501.76 360.51 502.57 360.13 504.29 359.65 505.19 358.79 506.04 355.68 507.99 354.24 509.08 353.14 509.46 352 509.55 344.71 507.69 340.54 507.3 332.05 507.85 330.98 507.7 330.01 507.42 329.19 507.05 328.53 506.58 328.01 505.98 327.59 505.32 326.47 502.3 326.12 501.6 325.66 500.97 325.08 500.43 324.35 500.01 323.36 499.79 322.19 499.81 315.22 500.46 314.12 500.36 313.11 500.13 311.35 499.47 309.09 498.21 308.42 497.73 307.11 496.62 306.23 496.15 304.73 495.9 303.93 496.27 303.5 496.99 303.43 497.87 303.48 498.79 303.99 502.32 304.07 506.07 303.71 507.11 302.88 508.13 300.93 509.43 299.55 509.96 298.34 510.22 286.5 509.98 283.65 507.17 282.66 505.4 282.51 504.57 282.25 500.95 282.1 500.12 281.6 498.73 281.14 497.89 280.32 496.83 279.34 495.87 278.66 495.09 269.41 486.56 266.44 481.98 265.91 481.41 264.32 480.57 256.02 477.85 251.04 476.83 245.2 476.6 243.88 476.23 242.52 475.61 240.7 474.18 239.88 473.17 239.43 472.19 239 469.62 238.41 468.13 237.56 466.84 236.44 465.71 235.77 465.24 234.03 464.63 225.4 462.92 220.43 462.41 212.33 463.38 210.7 463.04 204.58 460.1 197.52 454.21 197.52 453.32 196.69 448.83 197.06 447.05 193.8 445.93 192.37 446.51 190.81 446.4 189.75 445.54 189.8 443.89 190.57 443.23 193.19 442.89 194.36 442.31 196.31 440.56 198.81 438.74 201.53 437.31 204.12 436.73 206.88 437.22 212.99 439.4 215.92 439.89 219.33 439.89 221.18 439.59 221.19 438.54 219.04 436.27 218.78 434.81 221.29 434.29 224.59 434.13 226.7 433.76 226.57 433.06 225.97 431.9 225.99 430.63 227.73 429.57 229.29 429.62 230.55 430.36 231.57 431.21 232.38 431.62 234.85 433.49 236.29 433.88 236.93 432.17 236.19 429.38 236.1 427.88 236.93 426.51 239.5 425.91 242.31 426.32 244.24 425.81 244.18 423.44 244.16 422.43 245.83 419.16 247.15 417.98 249.17 416.38 251.8 415.4 256.24 415.26 259.19 414.13 260.88 412.3 263.6 411.52 266.46 412.3 270.93 414.53 273.64 413.95 276.5 412.11 279.01 411.15 282.63 410.61 285.63 410.54 288.21 410.61 292.02 410.17 295.84 410.43 298.93 411.95 302.16 414.72 305.41 414.97 306.99 412.3 308.06 410.82 312.17 408.04 317.03 408.38 322.07 409.29 327.81 409.5 332.64 409.27 333.57 404.86 336.2 400.97 338.97 397.8 340.94 394.73 347.52 393.88 353.77 391.93 359.04 391.65 364.25 390.84 368.34 386.83 372.55 383.31 374.66 380.51 377.24 378.05 380.8 376.41 384.02 376.27 387.67 379.77 391.72 380.93 394.92 379.02 397.34 377.06 398.09 374.55 398.85 372.77 400.31 371.4 400.22 369.32 399.01 366.55 399.34 364.76 401.06 363.96 403.99 364.22 407.19 366.55 409.66 368.04 412.4 367.85 414.84 366.86 416.81 362.52 418.72 360.42 421.09 360.19 424.3 361.36 427.71 362.13 431.55 362.48 434.94 362.2 438.05 361.36 440.05 359.4 440.66 356.89 441.42 354.69 441.77 352.61 443.14 351.03 445.49 350.01 448.08 350.64 449.41 351.68 449.43 351.68 449.66 354.06 449.95 354.86 450.54 355.67 451.65 356.56 452.57 356.66 453.46 356.53 454.54 356.7 459.8 359.28 460.41 359.95 461.06 360.49 462.25 360.7 466.89 359.98 Z" id="URY-13" data-name="Durazno"/>
<path d="M 595.87 235.73 595.81 235.79 595.08 236.6 593.03 240.18 592.58 240.79 591.5 241.37 590.05 242.77 588.71 244.46 587.92 245.9 587.76 249.51 590.37 256.13 591.09 259.75 590.34 262.42 586.74 269.97 584.66 273.21 582.81 277.59 577.7 283.82 580.05 285.46 582.54 285.79 584.43 286.42 584.95 288.93 584.03 290.83 580.22 293.35 578.72 295.16 580.24 297.52 579.73 300.21 577.57 302.43 574.12 303.34 570.98 303.69 567.82 304.41 565.59 302.34 564.6 300.95 562.76 297.48 560.86 295.02 555.35 290.4 552.9 287.38 546.67 281.3 544.06 277.39 541.82 275.23 537.74 272.43 537.16 271.9 534.19 268.3 533.62 267.77 532.97 267.29 529.6 265.82 523.09 263.76 521.27 263.39 509.75 262.53 506.74 261.69 501.04 259.49 498.72 259.07 494.07 258.9 487.89 259.5 478.63 258.87 464.02 255.75 459.68 255.34 457.51 255.45 453.77 256.24 440.65 257.02 436.48 256.59 432.36 255.77 431.27 255.75 430.3 255.89 427.84 256.78 426.88 256.94 425.85 256.97 424.78 256.85 423.61 256.33 422.46 255.41 420.84 253.38 419.46 251.18 418.84 249.71 418.76 248.85 419.1 246.15 418.95 245.36 418.62 244.68 417.73 243.41 417.36 242.72 417.16 241.92 417.09 241 417.28 239.05 417.76 237.27 419.02 234.08 419.19 233.2 419.21 232.29 419 231.5 418.37 230.05 417.02 225.18 416.4 223.68 415.56 222.39 414.59 221.7 413.22 220.95 410.36 219.88 405.42 218.52 404.37 218.07 403.27 217.39 398.26 213.4 397.61 212.73 397.2 212.13 396.68 211.18 396.63 211.11 396.33 210.57 394.07 204.75 393.95 203.9 394.18 201.05 394.06 199.21 393.81 198.42 393.2 196.95 391.65 194.25 391.06 193.56 390.28 192.87 387.75 191.2 376.93 187.3 369.78 183.83 357.53 175.47 356.71 175.1 354.52 174.61 351.69 174.6 350.65 174.79 348.14 175.65 346.23 177.15 342.65 181.88 341.35 180.36 339.03 178.2 338.47 177.4 338.13 176.51 338.18 175.6 338.33 174.74 338.95 173.7 340.04 172.51 342.14 171.27 344.15 170.44 354.54 167.83 356.43 166.84 357.97 165.59 359.83 162.46 360.85 160.28 364.84 148.53 368.54 148.06 378.4 148.6 383.06 147.78 386.65 147.75 388.09 147.42 389.29 146.63 389.96 145.83 390.52 144.96 391.41 144 399.54 139.31 401.72 137.52 402.93 135.2 404.52 130.06 406.47 128.08 409.34 127.78 413 128.43 416.37 128.66 418.32 127.12 418.57 124.27 418.05 118.09 418.78 115.43 421.12 113.43 424.29 112.8 427.44 113.54 431.63 117.75 437.08 120.46 439.51 122.19 442.83 125.72 449.8 131.09 460.88 141.85 463.09 144.68 463.9 147.14 464.42 152.5 465.45 155.07 467.12 156.46 472.09 159.26 473.81 161.57 475.83 167.79 477.14 170.5 479.49 172.88 482 174.22 487.88 176.17 490.68 177.65 497.77 183.21 500.74 184.82 503.01 185.19 504.96 184.26 506.93 181.91 509.74 177.08 511.68 176.51 514.36 179.35 516.78 182.95 520.63 187.29 524.94 191.01 531.01 193.47 532.88 195.14 534.63 197.11 536.54 198.8 538.56 199.91 543.07 201.44 567.88 204.51 573.03 204.49 575.3 205.11 577.25 206.8 579.9 211.5 581.62 213.51 589.51 218.96 591.7 220.96 593.48 223.7 594.11 226.33 594.35 232.41 595.87 235.73 Z" id="URY-14" data-name="Rivera"/>
<path d="M 567.82 304.41 564.58 305.17 562.36 305.39 556.35 302.34 552.67 301.28 551.03 302.83 550.56 306.28 549.37 308.3 545.91 311.62 544.66 313.82 544.09 315.31 543.87 316.73 544.39 318.36 545.38 320.02 545.99 321.69 545.4 323.33 543.27 326.35 540.1 332.51 537.64 335.23 536.17 336.13 533.03 337.39 531.5 338.29 530.12 339.85 529.09 341.53 527.85 342.86 522.53 344.22 520.24 346.19 517.19 350.57 514.02 353.62 510.09 356.2 505.48 357.99 500.23 358.65 495.11 357.75 485.37 354.47 480.19 354.75 466.89 359.98 462.25 360.7 461.06 360.49 460.41 359.95 459.8 359.28 454.54 356.7 453.46 356.53 452.57 356.66 451.65 356.56 450.54 355.67 449.95 354.86 449.66 354.06 449.43 351.68 449.41 351.68 448.08 350.64 445.49 350.01 443.14 351.03 441.77 352.61 441.42 354.69 440.66 356.89 440.05 359.4 438.05 361.36 434.94 362.2 431.55 362.48 427.71 362.13 424.3 361.36 421.09 360.19 418.72 360.42 416.81 362.52 414.84 366.86 412.4 367.85 409.66 368.04 407.19 366.55 403.99 364.22 401.06 363.96 399.34 364.76 399.01 366.55 400.22 369.32 400.31 371.4 398.85 372.77 398.09 374.55 397.34 377.06 394.92 379.02 391.72 380.93 387.67 379.77 384.02 376.27 380.8 376.41 377.24 378.05 374.66 380.51 372.55 383.31 368.34 386.83 364.25 390.84 359.04 391.65 353.77 391.93 347.52 393.88 340.94 394.73 338.97 397.8 336.2 400.97 333.57 404.86 332.64 409.27 327.81 409.5 322.07 409.29 317.03 408.38 312.17 408.04 308.06 410.82 306.99 412.3 305.41 414.97 302.16 414.72 298.93 411.95 295.84 410.43 292.02 410.17 288.21 410.61 285.63 410.54 282.63 410.61 279.01 411.15 276.5 412.11 273.64 413.95 270.93 414.53 266.46 412.3 267.78 407.83 270.38 403.36 271.87 398.34 271.49 395.37 271.49 393.51 272.05 390.72 273.54 388.49 276.51 385.52 277.14 383.31 281.86 366.6 282.55 359.77 290.54 339.41 293.06 336.12 297.47 332.68 303.05 329.22 308.07 325.24 312.59 320.74 313.69 318.11 318 301.46 318.71 299.7 320.43 297.04 321.2 295.53 322.19 292.41 322.83 286.05 322.83 286.03 322.92 284.99 322.87 278.62 323.21 277.1 323.71 276.04 324.37 275.57 325.13 275.2 326.72 274.72 327.99 274.54 328.64 274.35 329.18 273.91 329.54 273.17 329.65 272.1 329.34 271.16 328.77 270.25 325.2 266.45 324.76 265.54 324.41 264.35 324.24 260.83 324.48 257.57 324.42 256.59 323.78 255.11 323.06 253.8 318.16 248.77 318.43 244.63 318.14 242.58 317.61 241.04 317.26 239.39 316.81 233.03 316.48 231.35 315.9 229.88 315.03 228.58 314.01 227.4 313.6 226.75 313.31 226.06 313.73 224.53 318.17 214.03 318.88 212.97 323.76 208.96 324.45 208.09 326.98 203.52 327.76 202.56 328.83 201.98 331.62 201.12 332.41 200.79 333.33 200.14 334.29 199.24 335.77 197.49 337.6 195.88 338.29 195.44 338.85 194.42 339.3 192.94 340.42 187.26 341.78 184.68 342.65 181.88 346.23 177.15 348.14 175.65 350.65 174.79 351.69 174.6 354.52 174.61 356.71 175.1 357.53 175.47 369.78 183.83 376.93 187.3 387.75 191.2 390.28 192.87 391.06 193.56 391.65 194.25 393.2 196.95 393.81 198.42 394.06 199.21 394.18 201.05 393.95 203.9 394.07 204.75 396.33 210.57 396.63 211.11 396.68 211.18 397.2 212.13 397.61 212.73 398.26 213.4 403.27 217.39 404.37 218.07 405.42 218.52 410.36 219.88 413.22 220.95 414.59 221.7 415.56 222.39 416.4 223.68 417.02 225.18 418.37 230.05 419 231.5 419.21 232.29 419.19 233.2 419.02 234.08 417.76 237.27 417.28 239.05 417.09 241 417.16 241.92 417.36 242.72 417.73 243.41 418.62 244.68 418.95 245.36 419.1 246.15 418.76 248.85 418.84 249.71 419.46 251.18 420.84 253.38 422.46 255.41 423.61 256.33 424.78 256.85 425.85 256.97 426.88 256.94 427.84 256.78 430.3 255.89 431.27 255.75 432.36 255.77 436.48 256.59 440.65 257.02 453.77 256.24 457.51 255.45 459.68 255.34 464.02 255.75 478.63 258.87 487.89 259.5 494.07 258.9 498.72 259.07 501.04 259.49 506.74 261.69 509.75 262.53 521.27 263.39 523.09 263.76 529.6 265.82 532.97 267.29 533.62 267.77 534.19 268.3 537.16 271.9 537.74 272.43 541.82 275.23 544.06 277.39 546.67 281.3 552.9 287.38 555.35 290.4 560.86 295.02 562.76 297.48 564.6 300.95 565.59 302.34 567.82 304.41 Z" id="URY-15" data-name="Tacuarembó"/>
<path d="M 788.22 405.81 785.07 409.18 775.04 415.37 770.85 419.16 769.62 421.87 769.24 427.45 768.23 430.19 766.58 431.83 748.34 442.07 743.22 445.85 738.99 450.63 738.98 450.65 738.98 450.66 737.62 454.49 737.52 454.51 723.33 457.3 712.43 461.23 700.5 464.13 699.67 464.75 698.08 466.37 697.37 468.09 696.91 469.81 696.13 471.4 694.55 472.8 690.96 474.1 688.91 475.11 686.21 477.59 681.51 483.11 678.02 485.06 672.9 486.3 671.32 487.6 667.51 494.25 664.49 497.21 660.97 499.64 657.32 501.5 649.42 503.17 647.65 504.54 647.01 505.46 643.31 503.95 639.36 501.81 633.95 499.98 630.76 498.45 629.45 497.52 627.13 495.39 624.89 492.18 623.39 489.4 622.91 488.8 622.21 488.34 621.36 488.01 619.98 487.88 618.27 487.94 613.9 488.83 612.73 489.27 607.88 492.46 607.1 492.82 605.39 493.44 604.58 493.82 603.91 494.32 603.4 494.95 603.08 495.73 602.64 497.42 601.86 498.86 601.34 499.47 600.78 500.04 600.11 500.53 599.39 500.92 593.42 502.97 592.07 503.04 590.31 502.87 580.12 500.18 579.32 499.81 577.35 498.35 576.48 498.03 575.5 497.78 563.31 496.15 558.81 495.09 553.66 492.17 549.54 488.44 548.68 487.93 547.5 487.52 545.58 487.14 543.3 486.42 542.18 486.24 540.68 486.35 536.85 487.58 530.15 490.46 528.96 490.7 527.48 490.77 524.87 490.43 523.56 489.97 522.56 489.43 521.9 488.94 521.06 488.58 518.11 487.85 516.69 487.18 516.24 487.04 515.44 487.08 507.64 488.23 504.73 489.31 497.41 492.96 494.43 489.78 494.08 488.79 493.86 487.25 494.12 486.3 494.54 485.51 495.06 484.89 495.66 484.34 497.88 483.07 498.88 482.06 499.97 480.53 501.65 476.94 502.21 475.04 502.44 473.58 500.96 466.81 500.82 461.63 499.44 453.48 500.64 450.33 501.92 448.98 510.3 444.41 511.63 443.45 512.7 442.45 513.18 441.85 514.59 439.51 514.61 436.79 514.38 435.77 512.21 432.58 511.88 431.32 511.98 430.22 512.51 429.31 513.29 428.24 514.23 427.32 515.01 426.79 518.34 425.16 519.26 424.56 520.44 423.53 522.2 422.45 527.33 420.7 528.09 420.33 529.4 419.37 531.72 417.2 534.28 415.33 543.09 411.53 544.98 411.13 549.21 410.75 554.05 410.8 556.43 410.37 563.38 407.95 564.73 407.76 566.74 407.8 568.79 408.21 571.51 409.13 572.74 409.3 574.19 409.34 576.48 408.97 577.68 408.52 578.56 407.93 579.61 406.73 580.64 405.22 581.4 404.35 582.23 403.99 583.17 403.99 584.28 404.21 585.6 404.33 587.77 404.04 588.88 403.55 589.67 402.92 590.06 402.19 590.82 400.26 591.7 399.03 592.65 398.59 593.74 398.5 595.85 398.77 604.24 398.29 607.35 397.47 614.78 393.94 617 393.17 618.5 393.05 619.21 393.49 620.46 394.5 621.16 394.94 621.99 395.29 622.96 395.53 628.64 396.17 631.72 397.05 635.9 397.47 636.77 397.8 638.21 398.66 638.98 399.05 639.97 399.28 641.04 399.42 642.17 399.46 645.34 399.26 646.35 399.3 647.24 399.53 648.07 399.86 656.18 404.52 656.85 405 657.85 405.4 659.05 405.66 661.13 405.54 661.98 404.94 662.35 404.15 662.14 403.38 661.76 402.67 660.88 401.37 660.53 400.69 660.34 399.96 660.47 399.18 660.89 398.54 661.43 397.97 664.67 395.55 665.65 394.55 666.41 394.04 670.57 392 672.27 391.65 673.64 391.61 674.56 391.91 676.1 392.67 685.6 399.21 687.14 400.03 687.99 400.37 689.2 400.6 690.69 400.72 715.69 399.04 721.03 399.88 724.62 400 740.73 398.36 741.48 398.52 742.16 398.82 742.85 399.25 743.44 399.79 744.46 400.97 745.48 401.37 746.98 401.58 749.82 401.42 751.46 401.53 752.61 401.83 754.58 403.27 755.53 403.7 756.73 404.04 758.69 404.24 759.99 404.17 761.18 403.84 763.64 402.57 765.16 402.32 766.36 402.22 770.09 402.6 788.13 405.79 788.22 405.81 Z" id="URY-16" data-name="Treinta y Tres"/>
<path d="M 445.2 678.67 447.46 682.91 449.03 684.51 451.25 685.93 453.09 687.39 453.84 688.45 454.16 689.49 453.39 693.17 453.3 694.2 453.4 695.46 453.83 696.26 454.39 696.9 455.5 697.86 458.45 701.45 459.72 703.47 459.99 704.61 460.1 705.77 459.63 705.56 455.89 705.34 445.96 704.65 439.76 705.2 432.04 703.52 425.95 701.21 419.22 702.51 412.23 700.06 402.78 702.75 397.46 701.47 387.47 704.3 382.93 705.86 373.14 711.24 365.71 715.69 360.57 718.19 359.48 716.82 358.93 715.33 358.42 712.53 358.41 709.67 358.54 708.71 358.73 707.89 360.3 704.82 360.88 703.19 360.95 702.28 360.5 701.56 359.58 701.12 357.59 701.2 356.33 701.45 355.08 701.55 354 701.36 352.73 700.53 352.1 699.81 351.65 699.18 351.33 698.88 350.69 698.51 349.84 698.25 349.04 697.84 348.35 697.37 347.48 696.01 347.14 695.32 346.49 694.29 345.66 694.09 344.28 694.06 341.31 694.85 339.86 695.53 338.89 696.29 337.84 697.59 337.28 698.18 336.64 698.69 335.94 699.13 335.16 699.49 333.59 699.98 332.76 699.88 331.5 699.61 329.37 698.65 328.43 698.1 327.77 697.53 326.02 695.05 325.49 694.48 324.3 693.41 323.45 692.97 322.37 692.61 320.75 692.4 319.47 692.38 316.74 693.04 311.78 695.47 310.7 693.99 308.42 691.75 303.05 687.86 298.19 685.51 297.5 685.04 296.99 684.26 296.69 683.18 296.47 679.07 295.64 674.89 295.82 673.87 296.29 672.86 297.37 671.72 298.35 671.15 300.14 670.43 300.86 670.03 301.51 669.54 302.07 668.96 303.06 667.64 304.18 666.48 306.71 664.47 307.05 663.53 307.04 662.33 306.33 660.3 305.77 659.27 305.26 658.54 305.16 657.89 305.18 656.79 306.15 653.2 306.22 650.38 308.82 642.78 310.35 640.48 311.86 639.71 313.8 639.05 316.32 638.51 320.8 638.25 322.99 638.32 324.47 638.53 326.17 639.02 332.8 642.07 334.53 642.23 337.03 642.09 344.48 640.72 346.02 640.13 347.15 638.95 348.47 636.86 350.39 632.03 350.8 631.3 351.72 630.43 353.14 629.44 366.52 622.13 367.96 622.01 369.97 622.13 373.06 622.89 380.97 626.12 382.21 626.3 383.94 626.34 387.32 625.97 389.03 625.58 390.31 625.17 400.48 619.99 404.62 618.83 423.36 616.64 427.43 630.21 429.43 635.11 435.66 644.75 436.23 646.14 436.45 647.41 436.34 648.37 434.54 655.8 434.44 657.13 434.58 660.39 434.91 661.01 435.72 662.17 441.91 668.42 444.38 672.32 445.22 674.5 445.2 678.67 Z" id="URY-17" data-name="Canelones"/>
<path d="M 497.41 492.96 498.38 494.11 499.18 495.37 499.48 496.13 499.66 496.96 499.81 499.71 499.62 501.66 499.17 502.86 498.42 504.14 496.63 506.01 495.69 506.79 494.89 507.3 489.75 508.85 488.2 509.56 486.95 510.31 486.54 510.63 486.47 510.71 486.36 510.8 486.02 511.15 485.28 512.19 484.29 513.97 481.62 520.21 480.86 521.17 479.42 522.46 478.4 523.17 477.46 523.69 475.78 524.29 471.04 525.3 469.32 525.88 468.61 526.3 467.92 527.13 467.34 528.32 466.8 530.65 466.75 532.01 466.93 533.08 467.26 533.79 467.66 534.46 471.42 539.46 471.82 540.13 472.13 540.88 472.33 541.71 472.41 542.61 472.39 543.52 471.96 547.46 471.45 549.29 466.34 559 465.77 560.51 465.37 565.45 464.89 566.52 464.05 567.59 462.19 569.02 459.21 570.66 457.87 571.62 457.29 572.18 456.02 574.05 454.16 578.06 452.57 579.95 450.83 581.51 449.81 582.62 449.06 583.64 448.49 585.54 448.5 585.55 448.56 586.68 448.52 587.51 448.34 588.4 448.06 589.22 447.4 590.12 446.44 591.06 439.2 596.29 437.42 597.93 436.69 598.88 435.88 600.16 434.61 602.69 433.62 605.44 432.97 606.56 431.91 607.78 427.72 611.44 423.36 616.64 404.62 618.83 400.48 619.99 390.31 625.17 389.03 625.58 387.32 625.97 383.94 626.34 382.21 626.3 380.97 626.12 373.06 622.89 369.97 622.13 367.96 622.01 366.52 622.13 353.14 629.44 351.72 630.43 350.8 631.3 350.39 632.03 348.47 636.86 347.15 638.95 346.02 640.13 344.48 640.72 337.03 642.09 334.53 642.23 332.8 642.07 326.17 639.02 324.47 638.53 322.99 638.32 320.8 638.25 316.32 638.51 313.8 639.05 311.86 639.71 310.35 640.48 308.82 642.78 306.22 650.38 305.1 648.46 304.35 647.55 296.1 640.16 295.75 639.43 295.77 638.49 296.39 637.21 297.09 636.45 297.91 635.98 300.79 634.69 301.45 634.22 301.99 633.63 302.42 632.93 302.74 631.51 303.4 621.61 303.23 620.16 302.51 617.93 299.76 612.16 299.51 611.38 299.49 610.47 299.86 609.34 300.3 608.48 303.56 603.7 303.91 602.92 304.14 601.66 304.23 600.02 303.61 593.84 299.07 575.8 297.03 570.92 298.85 569.67 300.11 568.57 300.64 567.97 301.11 567.31 301.52 566.6 301.87 565.81 302.15 564.95 302.32 563.99 303.15 550.03 302.82 548.69 302.18 547.11 299.59 542.87 297.35 540.02 288.82 513.93 286.5 509.98 298.34 510.22 299.55 509.96 300.93 509.43 302.88 508.13 303.71 507.11 304.07 506.07 303.99 502.32 303.48 498.79 303.43 497.87 303.5 496.99 303.93 496.27 304.73 495.9 306.23 496.15 307.11 496.62 308.42 497.73 309.09 498.21 311.35 499.47 313.11 500.13 314.12 500.36 315.22 500.46 322.19 499.81 323.36 499.79 324.35 500.01 325.08 500.43 325.66 500.97 326.12 501.6 326.47 502.3 327.59 505.32 328.01 505.98 328.53 506.58 329.19 507.05 330.01 507.42 330.98 507.7 332.05 507.85 340.54 507.3 344.71 507.69 352 509.55 353.14 509.46 354.24 509.08 355.68 507.99 358.79 506.04 359.65 505.19 360.13 504.29 360.51 502.57 360.87 501.76 361.67 501.18 363.07 500.72 368.13 500.35 375.98 499.05 377.07 499.02 378.17 499.12 379.12 499.36 381.57 500.5 382.48 500.78 383.51 500.97 385.68 501.08 386.79 500.95 391.8 499.62 401 496.1 404.93 493.96 406.36 492.9 407.33 492 407.84 491.37 408.59 490.77 409.65 490.36 411.48 490.16 412.83 490.2 418.38 491.03 419.48 491.01 422.87 489.85 451.47 476.27 454.43 473.05 455.7 471.95 463.86 468.42 467.26 466.54 470.57 465.17 471.9 465.24 472.91 465.5 475.38 466.63 476.34 466.86 477.41 466.93 479.04 466.27 481.08 465.05 489.31 458.45 491.84 456.99 499.44 453.48 500.82 461.63 500.96 466.81 502.44 473.58 502.21 475.04 501.65 476.94 499.97 480.53 498.88 482.06 497.88 483.07 495.66 484.34 495.06 484.89 494.54 485.51 494.12 486.3 493.86 487.25 494.08 488.79 494.43 489.78 497.41 492.96 Z" id="URY-18" data-name="Florida"/>
<path d="M 647.01 505.46 646.3 506.17 645.44 506.72 644.39 507.17 640.79 507.67 637.27 507.72 634.62 508.73 631.41 517.99 625.78 522.24 613.75 528.11 610.55 531.08 609.15 533.41 608.48 536.5 609.9 545.03 609.66 546.32 609 547.94 605.69 552.49 604.73 553.52 604.15 554.44 603.61 555.67 603.1 558.08 602.83 562.57 602.45 564.31 601.82 565.24 597.27 569.61 593.63 574.46 587.39 578.38 585.69 580.45 585.45 581.34 585.29 582.27 584.03 585.65 582.11 589.08 580.92 590.55 579.85 591.5 576.38 592.63 569.03 593.42 567.54 593.85 565.74 594.58 562.56 596.3 561.15 597.4 560.24 598.36 559.91 599.16 559.25 600.37 554.92 605.83 552.7 609.96 549.48 614.58 549.03 615.75 549.1 616.22 549.5 617.32 549.63 617.81 549.72 618.44 549.71 619.23 549.56 620.07 549.28 620.9 548.8 623.96 548.27 625.44 547.54 626.37 546.57 627.11 545.17 627.95 544.38 628.73 543.91 629.63 541.26 637.07 540.86 638.88 540.57 642.09 540.05 643.59 539.38 644.37 538.52 644.86 535.85 646 533.6 647.58 532.2 648.31 530.95 648.71 528.19 649.08 523.54 651.09 521.72 651.58 518.51 651.88 516.47 652.83 513.7 654.53 505.49 661 503.64 662.16 502.72 662.4 500.66 662.66 496 662.36 493.8 662.4 492.79 662.54 490.97 663.05 473.97 674.94 472.88 675.53 469.32 676.93 465.41 677.74 445.2 678.67 445.22 674.5 444.38 672.32 441.91 668.42 435.72 662.17 434.91 661.01 434.58 660.39 434.44 657.13 434.54 655.8 436.34 648.37 436.45 647.41 436.23 646.14 435.66 644.75 429.43 635.11 427.43 630.21 423.36 616.64 427.72 611.44 431.91 607.78 432.97 606.56 433.62 605.44 434.61 602.69 435.88 600.16 436.69 598.88 437.42 597.93 439.2 596.29 446.44 591.06 447.4 590.12 448.06 589.22 448.34 588.4 448.52 587.51 448.56 586.68 448.5 585.55 448.49 585.54 449.06 583.64 449.81 582.62 450.83 581.51 452.57 579.95 454.16 578.06 456.02 574.05 457.29 572.18 457.87 571.62 459.21 570.66 462.19 569.02 464.05 567.59 464.89 566.52 465.37 565.45 465.77 560.51 466.34 559 471.45 549.29 471.96 547.46 472.39 543.52 472.41 542.61 472.33 541.71 472.13 540.88 471.82 540.13 471.42 539.46 467.66 534.46 467.26 533.79 466.93 533.08 466.75 532.01 466.8 530.65 467.34 528.32 467.92 527.13 468.61 526.3 469.32 525.88 471.04 525.3 475.78 524.29 477.46 523.69 478.4 523.17 479.42 522.46 480.86 521.17 481.62 520.21 484.29 513.97 485.28 512.19 486.02 511.15 486.36 510.8 486.47 510.71 486.54 510.63 486.95 510.31 488.2 509.56 489.75 508.85 494.89 507.3 495.69 506.79 496.63 506.01 498.42 504.14 499.17 502.86 499.62 501.66 499.81 499.71 499.66 496.96 499.48 496.13 499.18 495.37 498.38 494.11 497.41 492.96 504.73 489.31 507.64 488.23 515.44 487.08 516.24 487.04 516.69 487.18 518.11 487.85 521.06 488.58 521.9 488.94 522.56 489.43 523.56 489.97 524.87 490.43 527.48 490.77 528.96 490.7 530.15 490.46 536.85 487.58 540.68 486.35 542.18 486.24 543.3 486.42 545.58 487.14 547.5 487.52 548.68 487.93 549.54 488.44 553.66 492.17 558.81 495.09 563.31 496.15 575.5 497.78 576.48 498.03 577.35 498.35 579.32 499.81 580.12 500.18 590.31 502.87 592.07 503.04 593.42 502.97 599.39 500.92 600.11 500.53 600.78 500.04 601.34 499.47 601.86 498.86 602.64 497.42 603.08 495.73 603.4 494.95 603.91 494.32 604.58 493.82 605.39 493.44 607.1 492.82 607.88 492.46 612.73 489.27 613.9 488.83 618.27 487.94 619.98 487.88 621.36 488.01 622.21 488.34 622.91 488.8 623.39 489.4 624.89 492.18 627.13 495.39 629.45 497.52 630.76 498.45 633.95 499.98 639.36 501.81 643.31 503.95 647.01 505.46 Z" id="URY-19" data-name="Lavalleja"/>
<path d="M 586.35 706.37 584.66 707.11 575.36 709.3 570.52 712.65 567.46 713.82 561.09 715.44 535.14 725.74 532 726.19 529 727.09 525.17 730.79 522.28 731.31 522.97 729.8 523.3 728.85 523.3 728.24 521.74 726.25 519.71 724.58 517.04 723.46 511.13 722.83 510.77 722.24 510.91 721.29 509.92 719.96 508.4 719.02 507.04 718.49 503.78 717.92 496.64 718.21 482.87 720.88 477.1 719.96 473.17 716.76 465.42 708.15 460.1 705.77 459.99 704.61 459.72 703.47 458.45 701.45 455.5 697.86 454.39 696.9 453.83 696.26 453.4 695.46 453.3 694.2 453.39 693.17 454.16 689.49 453.84 688.45 453.09 687.39 451.25 685.93 449.03 684.51 447.46 682.91 445.2 678.67 465.41 677.74 469.32 676.93 472.88 675.53 473.97 674.94 490.97 663.05 492.79 662.54 493.8 662.4 496 662.36 500.66 662.66 502.72 662.4 503.64 662.16 505.49 661 513.7 654.53 516.47 652.83 518.51 651.88 521.72 651.58 523.54 651.09 528.19 649.08 530.95 648.71 532.2 648.31 533.6 647.58 535.85 646 538.52 644.86 539.38 644.37 540.05 643.59 540.57 642.09 540.86 638.88 541.26 637.07 543.91 629.63 544.38 628.73 545.17 627.95 546.57 627.11 547.54 626.37 548.27 625.44 548.8 623.96 549.28 620.9 549.56 620.07 549.71 619.23 549.72 618.44 549.63 617.81 549.5 617.32 549.1 616.22 549.03 615.75 549.48 614.58 552.7 609.96 554.92 605.83 559.25 600.37 559.91 599.16 560.24 598.36 561.15 597.4 562.56 596.3 565.74 594.58 567.54 593.85 569.03 593.42 576.38 592.63 579.85 591.5 580.92 590.55 582.11 589.08 584.03 585.65 585.29 582.27 585.45 581.34 585.69 580.45 587.39 578.38 593.63 574.46 596.82 599.76 596.72 600.5 596.31 602.12 596 602.94 594.3 605.81 593.95 606.58 593.68 607.42 592.14 615.67 592.51 624.88 593.06 627.44 593.4 630.86 592.83 639.88 592.07 644.05 591.69 644.57 591.33 644.81 590.68 644.96 589.86 644.81 589.01 644.53 587.98 644.54 586.95 644.95 585.85 646.83 585.46 648.64 585.24 651.55 585.42 653.02 585.72 654.12 586.75 655.31 587.24 656.24 587.55 657.58 587.88 661.54 588.13 662.66 588.61 663.28 589.89 664.58 590.53 665.56 591.16 667.35 591.26 668.59 591.11 669.66 590.84 670.51 590.13 672.05 587.83 675.38 587.31 676.42 586.06 680.37 585.64 683.66 585.99 689.65 586.33 691.35 588.32 696.9 588.38 697.72 588.27 698.41 587.89 699.02 586.73 700.3 586.1 701.18 585.53 702.68 585.46 703.84 585.59 704.65 586.31 706.25 586.35 706.37 Z" id="URY-20" data-name="Maldonado"/>
<path d="M 360.57 718.19 355.89 720.47 350.56 720.08 346.01 722.24 343.87 723.36 342.94 726.49 339.77 722.76 337.19 722.34 334.42 721.47 335.67 720.12 335.85 718.45 334.18 717.26 331.79 716.98 330.9 719.25 327.93 721.24 326.51 721.26 323.19 720.84 319.7 721.24 314.99 717.92 305.97 713.54 303.65 711.79 303.3 709.57 305.85 707.74 308.38 705.62 312.21 704.84 311.72 704.37 312.55 703.68 312.99 703.13 313.25 701.87 313.27 700.79 311.78 695.47 316.74 693.04 319.47 692.38 320.75 692.4 322.37 692.61 323.45 692.97 324.3 693.41 325.49 694.48 326.02 695.05 327.77 697.53 328.43 698.1 329.37 698.65 331.5 699.61 332.76 699.88 333.59 699.98 335.16 699.49 335.94 699.13 336.64 698.69 337.28 698.18 337.84 697.59 338.89 696.29 339.86 695.53 341.31 694.85 344.28 694.06 345.66 694.09 346.49 694.29 347.14 695.32 347.48 696.01 348.35 697.37 349.04 697.84 349.84 698.25 350.69 698.51 351.33 698.88 351.65 699.18 352.1 699.81 352.73 700.53 354 701.36 355.08 701.55 356.33 701.45 357.59 701.2 359.58 701.12 360.5 701.56 360.95 702.28 360.88 703.19 360.3 704.82 358.73 707.89 358.54 708.71 358.41 709.67 358.42 712.53 358.93 715.33 359.48 716.82 360.57 718.19 Z" id="URY-21" data-name="Montevideo"/>
<path d="M 758.83 546.7 756.24 548.18 753.48 550.25 748.07 555.81 744.75 560.76 742.88 565.96 739.89 578.39 737.03 585.89 736.24 592.74 734.81 594.88 729.57 597.92 727.06 599.83 719.76 607.64 711.73 612.75 709.12 615.31 703.78 624.08 702.38 625.62 702.04 627.24 698.8 635.86 701.23 641.32 701.05 644 694.93 645.58 681.07 652.02 670 658.5 647.18 676.95 645.35 678.98 644.73 681.54 644.8 683.84 643.99 685.51 630.37 688.04 626.95 688.26 627.56 687 628.47 686.02 631.05 684.1 630 683.34 629.05 682.41 628.33 681.28 627.97 680 628.22 678.14 629.73 674.49 630.11 673.86 627.91 672.03 623.85 670.59 619.57 669.73 616.63 669.67 618.31 670.69 623.88 672.74 622.68 674.61 620.25 676.67 617.45 678.29 615.15 678.98 614.23 679.98 614.2 682.01 615.31 683.58 617.74 683.25 617.53 682.08 619.76 682.49 622.53 684.41 623.88 687.71 622.7 689.62 619.94 691.52 586.35 706.37 586.31 706.25 585.59 704.65 585.46 703.84 585.53 702.68 586.1 701.18 586.73 700.3 587.89 699.02 588.27 698.41 588.38 697.72 588.32 696.9 586.33 691.35 585.99 689.65 585.64 683.66 586.06 680.37 587.31 676.42 587.83 675.38 590.13 672.05 590.84 670.51 591.11 669.66 591.26 668.59 591.16 667.35 590.53 665.56 589.89 664.58 588.61 663.28 588.13 662.66 587.88 661.54 587.55 657.58 587.24 656.24 586.75 655.31 585.72 654.12 585.42 653.02 585.24 651.55 585.46 648.64 585.85 646.83 586.95 644.95 587.98 644.54 589.01 644.53 589.86 644.81 590.68 644.96 591.33 644.81 591.69 644.57 592.07 644.05 592.83 639.88 593.4 630.86 593.06 627.44 592.51 624.88 592.14 615.67 593.68 607.42 593.95 606.58 594.3 605.81 596 602.94 596.31 602.12 596.72 600.5 596.82 599.76 593.63 574.46 597.27 569.61 601.82 565.24 602.45 564.31 602.83 562.57 603.1 558.08 603.61 555.67 604.15 554.44 604.73 553.52 605.69 552.49 609 547.94 609.66 546.32 609.9 545.03 608.48 536.5 609.15 533.41 610.55 531.08 613.75 528.11 625.78 522.24 631.41 517.99 634.62 508.73 637.27 507.72 640.79 507.67 644.39 507.17 645.44 506.72 646.3 506.17 647.01 505.46 647.65 504.54 649.42 503.17 657.32 501.5 660.97 499.64 664.49 497.21 667.51 494.25 671.32 487.6 672.9 486.3 678.02 485.06 681.51 483.11 686.21 477.59 688.91 475.11 690.96 474.1 694.55 472.8 696.13 471.4 696.91 469.81 697.37 468.09 698.08 466.37 699.67 464.75 700.5 464.13 712.43 461.23 723.33 457.3 737.52 454.51 737.62 454.49 735.2 461.36 735.31 472.41 738.62 494.91 735.21 519.62 734.78 533.01 738.99 539.15 742.06 539.15 744.73 538.72 747.2 538.73 749.64 540.17 751.08 542.62 752.16 545.25 754.01 546.94 758.83 546.7 Z" id="URY-22" data-name="Rocha"/>
<path d="M 204.92 579.99 206.92 583.65 208.17 588.12 208.85 589.42 209.56 590.33 210.31 590.76 212.86 591.84 213.92 592.5 218.8 597.33 224.34 604.62 225.17 606.2 225.28 607.19 225.25 607.64 225.07 608.06 224.77 608.44 223.73 609.49 217.08 613.99 216.41 614.34 215.3 614.8 208.9 616.34 206.52 617.42 202.94 619.56 202.25 620.33 201.67 621.43 201.06 623.41 200.99 624.64 201.17 625.63 201.57 626.32 202.02 626.95 204.99 629.86 205.58 630.7 205.51 631.74 204.4 634.84 203.66 636.01 202.76 636.91 201.93 638.51 201.75 640.16 201.88 643.06 201.69 644.47 201.27 645.49 200.69 646.05 191.48 652.66 186.13 651.74 172.81 651.48 164.6 651.95 161.87 650 154.94 650.16 151.12 652.11 149.3 650.16 145.47 649.86 141.28 651.51 136 653.47 131.27 649.41 127.45 649.25 123.08 650 117.07 652.24 108.69 654.93 105.96 654.62 102.12 656.56 97.75 656.25 93.38 656.69 88.46 656.06 89.92 654.87 88.66 652.61 84.47 651.54 81.75 647.91 82.13 641.89 78.37 638.5 75.37 634.39 64.27 623.44 59.34 621.48 57.6 619.18 55.27 614.29 52.63 612.16 48.92 610.87 44.95 610.26 41.47 610.09 37.42 609.41 35.54 607.64 33.8 602.01 32.08 598.83 19.4 583.51 16.65 581.54 11.02 578.7 8.57 576.86 6.49 573.97 5.39 570.9 4.56 566.91 4.57 566.9 4.65 566.9 9.43 566.18 11.52 565.67 25.02 560.97 39 552.88 41.4 552.28 43.98 552.54 60.88 556.18 61.67 556.87 62.61 557.9 63.02 558.53 63.76 559.92 64.32 561.42 64.68 562.13 65.56 563.41 66.06 563.93 66.6 564.33 67.01 564.58 67.67 564.88 68.83 565.14 70.38 565.31 73.04 565.22 77.52 564.54 89.23 564.85 90.74 565.19 92.77 566.07 93.86 566.76 94.66 567.41 94.96 567.83 95.21 568.1 95.01 567.93 95.98 568.95 96.69 569.5 98.15 570.39 118.59 576.27 122.81 576.56 131.86 575.82 157.68 569.97 160.43 570.61 163.66 571.86 166.49 573.28 169.04 575.29 171.87 577.12 172.69 577.5 176.92 577.96 189.3 577.96 204.92 579.99 Z" id="URY-4" data-name="Colonia"/>
<path d="M 297.03 570.92 299.07 575.8 303.61 593.84 304.23 600.02 304.14 601.66 303.91 602.92 303.56 603.7 300.3 608.48 299.86 609.34 299.49 610.47 299.51 611.38 299.76 612.16 302.51 617.93 303.23 620.16 303.4 621.61 302.74 631.51 302.42 632.93 301.99 633.63 301.45 634.22 300.79 634.69 297.91 635.98 297.09 636.45 296.39 637.21 295.77 638.49 295.75 639.43 296.1 640.16 304.35 647.55 305.1 648.46 306.22 650.38 306.15 653.2 305.18 656.79 305.16 657.89 305.26 658.54 305.77 659.27 306.33 660.3 307.04 662.33 307.05 663.53 306.71 664.47 304.18 666.48 303.06 667.64 302.07 668.96 301.51 669.54 300.86 670.03 300.14 670.43 298.35 671.15 297.37 671.72 296.29 672.86 295.82 673.87 295.64 674.89 296.47 679.07 296.69 683.18 296.99 684.26 297.5 685.04 298.19 685.51 303.05 687.86 308.42 691.75 310.7 693.99 311.78 695.47 313.27 700.79 313.25 701.87 312.99 703.13 312.55 703.68 311.72 704.37 309.99 702.75 307.05 701.73 299.16 699.09 293.67 698.38 288.38 698.57 285.16 700.4 282.75 700.11 280.42 699.2 274.82 696.27 272.19 695.25 269.52 693.76 259.46 691.42 247.22 690.14 235.44 685.9 232.93 684.39 230.91 680.71 228.58 678.87 223.62 675.91 220.07 672.55 216.95 670.01 214.19 668.21 210.16 666.12 207.96 664.48 208.19 662.43 207.21 661.39 205.02 660.13 204.1 659.45 201.29 656.8 198.58 654.87 193.8 653.06 191.48 652.66 200.69 646.05 201.27 645.49 201.69 644.47 201.88 643.06 201.75 640.16 201.93 638.51 202.76 636.91 203.66 636.01 204.4 634.84 205.51 631.74 205.58 630.7 204.99 629.86 202.02 626.95 201.57 626.32 201.17 625.63 200.99 624.64 201.06 623.41 201.67 621.43 202.25 620.33 202.94 619.56 206.52 617.42 208.9 616.34 215.3 614.8 216.41 614.34 217.08 613.99 223.73 609.49 224.77 608.44 225.07 608.06 225.25 607.64 225.28 607.19 225.17 606.2 224.34 604.62 218.8 597.33 213.92 592.5 212.86 591.84 210.31 590.76 209.56 590.33 208.85 589.42 208.17 588.12 206.92 583.65 204.92 579.99 211.32 580.3 232.97 583.79 234.68 583.65 236.74 583.23 240.43 582.02 242.18 581.28 243.41 580.6 249.62 574.29 252.12 572.51 252.55 572.26 253.19 572 263.46 569.84 266.89 568.71 269.97 567.2 276.03 563.03 280.64 563.96 297.03 570.92 Z" id="URY-5" data-name="San José"/>
<path d="M 363.77 147.38 363.63 147.28 358.04 143.55 356.86 142.51 355.35 140.72 354.24 139.65 350.42 136.83 348.7 135.07 346.45 131.95 345.39 130.8 342.31 128.51 339.86 127.22 338.87 126.89 315.1 122.4 306.78 119.77 305.58 119.52 304.09 119.34 301.38 119.57 299.9 119.87 298.83 120.33 298.25 120.87 297.73 121.47 296.87 122.85 295.77 125.09 294.89 126.45 294.35 127.05 293.06 127.98 292.39 128.31 289.02 129.51 287.53 130.27 286.89 130.75 284.74 133.06 284.1 133.52 283.36 133.91 281.6 134.39 276.6 134.96 274.89 135.46 273.49 136.21 264.7 142.53 263.34 143.16 261.69 143.73 259.84 144.11 252.64 144.71 249.09 145.57 246.96 145.48 229.97 142.83 226.37 142.65 216.52 143.71 215.53 144.03 214.09 144.71 210.04 147.37 209.24 147.68 208.35 147.91 207.37 148.04 205.87 147.93 196.87 145.61 193.25 143.96 190.4 142.23 183.5 136.32 183.44 136.27 181.2 134.67 180.04 134.07 172.9 132.08 153.07 123 148.14 119.98 147.23 119.21 144.79 117.59 143.57 117.16 141.96 116.77 138.9 116.4 133.6 116.42 132.28 116.2 130.88 115.79 129.09 114.8 128.1 114.07 127.37 113.38 124.89 110.41 123.77 109.32 121.25 107.33 111.54 101.05 109.48 100.01 107.86 99.55 103.75 99.15 102.25 99.2 101.21 99.83 100.43 100.4 96.85 105.01 96.84 105.02 96.47 102.3 95.45 98.41 94.07 93.13 92.83 89.78 89.48 83.53 87.27 80.64 83.9 74.83 83.31 68.98 85.2 63.59 89.32 59.17 118.81 35.78 122.05 30.98 123.15 25.15 121.02 18.71 120.35 15.41 121.62 13.99 124.95 13.89 128.67 17.05 131.58 24.88 136.29 27.59 140.03 27.93 146.59 26.91 150.2 26.85 152.19 27.75 154.44 30.78 156.77 31.29 158.24 30.66 161.66 28.01 163.57 27.22 166.49 27.33 168.37 28.4 169.98 29.67 172.16 30.42 173.34 30.04 175.19 28.09 176.07 27.7 177.25 28.23 179.11 29.99 179.86 30.42 184.72 29.53 189.05 26.55 192.03 22.33 192.85 17.62 193.97 13.8 197.16 8.96 201.24 4.64 205.01 2.38 206.49 2.49 209.29 3.65 210.89 3.66 213.82 2.33 214.87 1.99 220.37 1.09 223.37 1 230.58 2.75 236.15 1.91 241.83 1.77 247.24 5.04 250.01 9.1 251.45 10.66 260.77 16.2 265.42 18.13 267.95 19.64 270.21 21.52 271.58 23.55 272.08 26.59 271.61 28.15 271.77 29.12 274.16 30.42 275.68 30.76 277.12 30.73 278.59 30.9 280.2 31.79 281.01 32.62 282.34 34.49 287.88 40 289.75 41.31 292.25 43.3 300.23 47.71 302.72 49.93 306.35 55.22 308.51 57.74 310.52 59.26 317.42 62.62 326.19 69.03 331.11 71.16 334.11 73.64 338.84 78.53 339.69 80.17 340.09 81.75 340.74 83.2 342.41 84.43 345.31 86.05 346.6 87.12 347.59 88.37 352.56 96.73 354.81 99.16 364.62 106.03 367.02 110.17 367.97 114.66 367.24 119.1 364.62 123.17 364 126.42 363.87 136.23 362.97 143.07 363 146.31 363.77 147.38 Z" id="URY-6" data-name="Artigas"/>
<path d="M 286.5 509.98 288.82 513.93 297.35 540.02 299.59 542.87 302.18 547.11 302.82 548.69 303.15 550.03 302.32 563.99 302.15 564.95 301.87 565.81 301.52 566.6 301.11 567.31 300.64 567.97 300.11 568.57 298.85 569.67 297.03 570.92 280.64 563.96 276.03 563.03 269.97 567.2 266.89 568.71 263.46 569.84 253.19 572 252.55 572.26 252.12 572.51 249.62 574.29 243.41 580.6 242.18 581.28 240.43 582.02 236.74 583.23 234.68 583.65 232.97 583.79 211.32 580.3 204.92 579.99 203.72 578.33 201.08 575.32 200.65 574.67 200.32 573.95 199.76 572.42 199.1 568.66 198.74 567.62 198.36 566.76 197.76 565.02 197.34 562.82 197.07 561.97 195.3 558.44 189.05 549.45 188.81 548.92 188.64 548.43 188.7 546.55 190.95 531.87 191.21 531.01 191.54 530.22 191.94 529.55 192.26 528.84 192.52 528.04 192.53 527.14 192.05 526.17 191.32 525.6 190.44 525.17 186.31 524.25 185.41 523.94 183.92 523.08 182.61 522.08 179.54 518.53 178.92 518.02 178.35 517.47 177.86 516.85 177.55 515.94 177.35 514.79 177.27 513.02 176.94 511.11 176.76 510.7 176.74 510.68 176.71 510.62 174.28 507.95 173.87 507.3 173.57 506.56 171.89 500.14 171.52 499.46 171.07 498.82 170.49 498.26 169.82 497.78 165.98 495.64 165.4 495.09 164.94 494.47 164.6 493.67 164.44 492.69 164.5 491.33 166.13 488.92 181.84 473.19 183.81 471.77 194.5 460.31 195.47 458.93 197.52 454.21 204.58 460.1 210.7 463.04 212.33 463.38 220.43 462.41 225.4 462.92 234.03 464.63 235.77 465.24 236.44 465.71 237.56 466.84 238.41 468.13 239 469.62 239.43 472.19 239.88 473.17 240.7 474.18 242.52 475.61 243.88 476.23 245.2 476.6 251.04 476.83 256.02 477.85 264.32 480.57 265.91 481.41 266.44 481.98 269.41 486.56 278.66 495.09 279.34 495.87 280.32 496.83 281.14 497.89 281.6 498.73 282.1 500.12 282.25 500.95 282.51 504.57 282.66 505.4 283.65 507.17 286.5 509.98 Z" id="URY-7" data-name="Flores"/>
<path d="M 318.16 248.77 323.06 253.8 323.78 255.11 324.42 256.59 324.48 257.57 324.24 260.83 324.41 264.35 324.76 265.54 325.2 266.45 328.77 270.25 329.34 271.16 329.65 272.1 329.54 273.17 329.18 273.91 328.64 274.35 327.99 274.54 326.72 274.72 325.13 275.2 324.37 275.57 323.71 276.04 323.21 277.1 322.87 278.62 322.92 284.99 322.83 286.03 322.83 286.05 322.19 292.41 321.2 295.53 320.43 297.04 318.71 299.7 318 301.46 313.69 318.11 312.59 320.74 308.07 325.24 303.05 329.22 297.47 332.68 293.06 336.12 290.54 339.41 282.55 359.77 277.76 357.62 275.73 356.46 267.5 350.59 265.91 349.78 257.71 347.63 255.11 347.35 254.06 347.39 252.21 347.77 250.75 347.86 248.78 347.73 242.97 346.8 241.38 346.7 237.63 347.45 234.39 347.61 231.08 347.44 227.42 346.7 222.7 344.26 214.51 341.06 212.26 340.57 210.62 340.44 209.86 340.68 208.34 341.39 205.51 343.18 204.01 343.89 203.18 344.2 201.23 344.5 191.73 344.61 190.34 344.86 188.74 345.52 178.95 351.54 177.82 351.97 176.37 352.34 173.66 352.7 172.17 352.57 170.75 352.19 167.54 350.97 166.25 350.88 165.19 351.01 162.9 352.14 160.33 352.93 156.43 353.49 155 353.42 149.63 352.63 147.64 352.55 146.13 352.67 145.35 353.02 144.01 353.93 142.82 354.99 142.35 355.53 140.96 356.64 140.26 356.97 136.73 357.92 135.89 358.22 135.23 358.68 134.67 359.26 133.95 360.46 133.8 360.77 133.75 360.87 132.78 363.02 132.33 363.71 131.26 364.9 130.64 365.45 129.17 366.31 103.15 369.62 102.48 370.1 102 370.73 101.59 371.47 101.35 372.35 100.82 375.36 100.11 376.18 99.06 377.01 96.81 377.89 95.45 378.01 94.34 377.82 93.55 377.41 80.43 376.28 78.61 375.93 77.11 375.06 73.99 374.3 70.44 373.98 68.64 373.62 67.46 373.19 67.04 372.72 66.85 372.41 65.92 369.82 65.12 368.51 64.62 367.91 63.98 367.42 60.72 365.91 60 365.47 59.34 364.98 55.28 360.93 55.26 360.9 54.77 360.42 54.08 359.93 53.11 359.4 51.45 358.8 50.18 358.61 42.52 358.99 38.15 359.67 38.13 359.68 37.23 356.37 36.83 352.99 36.83 352.98 36.89 352.62 38.35 351 42.1 344.34 51.58 332.64 52.34 328.09 50.79 323.73 40.56 312.09 38.86 308.91 39.71 305.85 43.02 301.22 44.59 295.43 45.04 288.69 44.48 282.3 43.02 277.61 38.3 273.03 36.45 270.01 37.45 266.93 41.55 262.95 43.91 261.45 47.2 260.23 54.3 259.02 57.92 257.78 59.48 255.63 68.5 232.52 69.86 225.93 68.77 219.24 64.8 214.97 60.96 212.43 61.44 212.2 63.89 211.13 66.14 210.59 68.5 210.85 71.09 211.43 72.76 211.39 73.53 211.29 73.71 211.17 73.74 211.08 73.9 209.65 74.06 208.86 74.55 208.3 75.24 207.93 80.78 206.73 81.96 206.7 83.5 206.93 87.46 208.23 97.36 213.01 98.66 213.99 99.19 214.55 99.61 215.2 101.52 220.47 101.86 221.16 102.28 221.81 102.83 222.38 103.52 222.85 104.28 223.23 105.36 223.58 127.4 227.69 138.1 232.41 143.13 235.46 144.73 236.24 148.31 237.44 151.94 237.87 156.17 237.99 158.93 238.55 160.48 239.08 161.2 239.7 164.47 244.04 165.57 245.13 167.6 246.52 170.99 247.92 182.86 250.85 184.5 251.58 190.02 255.23 191.77 255.62 204.42 256.94 206.35 257.43 207.69 257.43 209.13 257.24 211.2 256.6 212.34 256.06 213.26 255.51 213.91 255.04 214.84 254.77 215.98 254.74 222.56 256.89 225.66 257.53 227.37 257.47 240.32 255.07 242.12 255.07 244.66 255.39 246.09 255.76 247.15 256.2 250.08 257.89 251 258.18 252.03 258.34 258.29 258.39 259.94 258.59 261.18 258.9 268.74 263 270.65 263.52 271.7 263.66 279.41 263.9 290.04 266.65 291 266.74 292.63 266.71 295.09 266.33 297.07 265.78 297.89 265.24 298.62 264.56 299.36 263.3 299.66 262.58 300.08 260.9 301.02 259.78 305.59 255.61 306.9 254.09 307.72 252.82 308.01 251.98 310.26 250.53 318.16 248.77 Z" id="URY-8" data-name="Paysandú"/>
<path d="M 282.55 359.77 281.86 366.6 277.14 383.31 276.51 385.52 273.54 388.49 272.05 390.72 271.49 393.51 271.49 395.37 271.87 398.34 270.38 403.36 267.78 407.83 266.46 412.3 263.6 411.52 260.88 412.3 259.19 414.13 256.24 415.26 251.8 415.4 249.17 416.38 247.15 417.98 245.83 419.16 244.16 422.43 244.18 423.44 244.24 425.81 242.31 426.32 239.5 425.91 236.93 426.51 236.1 427.88 236.19 429.38 236.93 432.17 236.29 433.88 234.85 433.49 232.38 431.62 231.57 431.21 230.55 430.36 229.29 429.62 227.73 429.57 225.99 430.63 225.97 431.9 226.57 433.06 226.7 433.76 224.59 434.13 221.29 434.29 218.78 434.81 219.04 436.27 221.19 438.54 221.18 439.59 219.33 439.89 215.92 439.89 212.99 439.4 206.88 437.22 204.12 436.73 201.53 437.31 198.81 438.74 196.31 440.56 194.36 442.31 193.19 442.89 190.57 443.23 189.8 443.89 189.75 445.54 190.81 446.4 192.37 446.51 193.8 445.93 197.06 447.05 196.69 448.83 197.52 453.32 197.52 454.21 196.2 454.62 192.46 456.58 185.74 459.08 184.09 459.32 182.31 458.67 181.49 457.08 180.6 453.09 179.07 455.02 176.62 457.24 174.35 457.78 172.69 451.89 170.9 450.07 168.27 448.9 162.15 447.16 160.61 446.95 158.94 447.05 157.15 447.71 154.07 449.63 152.34 450.03 150.73 449.41 149.97 447.92 149.75 446.07 149.74 444.4 149.17 443.26 147.79 442.32 141.22 439.4 137.88 438.98 134.7 439.58 131.8 441.29 130.67 441.72 125.66 442.87 124.64 443.54 123.16 446.79 122.04 447.98 119.15 448.5 113.41 446.54 108.92 445.61 106.74 444.22 105.08 443.89 103.3 444.08 100.17 444.87 98.34 444.91 96.02 444.22 91.83 442.1 89.23 441.76 86.49 442.41 84.72 443.75 83.17 445.42 81.05 447.05 78.81 447.84 74.36 448.81 72.87 450.03 72.34 452.31 72.66 454.13 72.03 455.39 68.68 456.06 66.15 455.8 63.97 455.11 61.82 454.67 59.39 455.23 57.84 456.32 57.77 457.37 59.39 460.34 59.44 461.37 59.33 462.69 59.37 463.85 60.22 464.7 62.13 466.23 62.55 466.48 62.74 468.94 62.13 471.42 60.93 472.7 59.39 471.59 58.6 471.49 56.05 469.44 54.28 468.52 49.24 470.8 47.63 472.15 47.19 473.66 47.12 479.31 46.43 481.85 44.74 482.51 40.47 481.91 33.31 481.91 30.55 483.36 22.49 492.23 8.19 499.33 8.16 499.34 5.01 497.11 4.06 494.17 5.01 491.44 7.31 489.03 12.71 484.56 14.27 481.56 14.5 478.13 11.98 465.13 11.85 458.8 14.17 454 20.33 452.07 34.25 452.78 40.68 452.31 46.17 450.02 51.8 445.6 54.26 442.89 55.27 440.37 55.52 436.9 56.22 434.2 58.44 428.56 59.54 422.55 58.24 418.07 55.23 414.48 48.76 408.71 47.22 406.22 46.41 403.48 46.17 400.35 46.45 393.59 46.18 390.18 45.06 387.57 46.17 386.45 44.9 382.6 43.25 372.14 41.47 370 40.27 367.63 38.13 359.68 38.15 359.67 42.52 358.99 50.18 358.61 51.45 358.8 53.11 359.4 54.08 359.93 54.77 360.42 55.26 360.9 55.28 360.93 59.34 364.98 60 365.47 60.72 365.91 63.98 367.42 64.62 367.91 65.12 368.51 65.92 369.82 66.85 372.41 67.04 372.72 67.46 373.19 68.64 373.62 70.44 373.98 73.99 374.3 77.11 375.06 78.61 375.93 80.43 376.28 93.55 377.41 94.34 377.82 95.45 378.01 96.81 377.89 99.06 377.01 100.11 376.18 100.82 375.36 101.35 372.35 101.59 371.47 102 370.73 102.48 370.1 103.15 369.62 129.17 366.31 130.64 365.45 131.26 364.9 132.33 363.71 132.78 363.02 133.75 360.87 133.8 360.77 133.95 360.46 134.67 359.26 135.23 358.68 135.89 358.22 136.73 357.92 140.26 356.97 140.96 356.64 142.35 355.53 142.82 354.99 144.01 353.93 145.35 353.02 146.13 352.67 147.64 352.55 149.63 352.63 155 353.42 156.43 353.49 160.33 352.93 162.9 352.14 165.19 351.01 166.25 350.88 167.54 350.97 170.75 352.19 172.17 352.57 173.66 352.7 176.37 352.34 177.82 351.97 178.95 351.54 188.74 345.52 190.34 344.86 191.73 344.61 201.23 344.5 203.18 344.2 204.01 343.89 205.51 343.18 208.34 341.39 209.86 340.68 210.62 340.44 212.26 340.57 214.51 341.06 222.7 344.26 227.42 346.7 231.08 347.44 234.39 347.61 237.63 347.45 241.38 346.7 242.97 346.8 248.78 347.73 250.75 347.86 252.21 347.77 254.06 347.39 255.11 347.35 257.71 347.63 265.91 349.78 267.5 350.59 275.73 356.46 277.76 357.62 282.55 359.77 Z" id="URY-9" data-name="Río Negro"/>
</g>
</svg>