<?xml version="1.0"?>
<svg xmlns="http://www.w3.org/2000/svg" version="1.2" baseProfile="tiny" width="800" height="334" viewBox="0 0 800 334" stroke-linecap="round" stroke-linejoin="round">
<g id="ne_10m_admin_1_states_provinces">
<path d="M 442.38 93 438.56 98.07 433.84 101.59 428.51 108.12 422.37 109.84 421.88 109.98 415.25 106.11 405.9 105.51 394.75 110.94 386.51 115.41 380.68 116.56 372.94 119.18 363.4 120.58 361.16 118.94 357.67 116.36 356.16 108.52 355.81 106.3 355.81 106.29 368.37 100.65 374.31 99.94 380.6 101.76 383.44 101.6 390.09 94.95 394.56 96.89 401.76 97.09 414.95 94.95 438.14 87.5 438.14 87.51 442.38 93 Z M 378.46 44.59 376.17 45.31 375.14 44.24 373.53 43.33 365.7 40.98 362.56 39.2 360.01 36.33 359.17 33.99 359.83 31.62 361.73 28.4 364.75 25.49 373.36 19.02 375.14 15.91 377.79 11.68 383.84 5.37 390.49 1 394.9 2.9 392.82 10.65 383.44 33.52 381.78 40.92 380.71 42.87 378.46 44.59 Z" fill-rule="evenodd" id="TLS-541" data-name="Dili"/>
<path d="M 361.16 118.94 358.58 123.4 357.01 126.11 350.54 125.81 341.85 128.77 335.26 133.85 330.94 137.21 321.2 139.07 309.44 141.28 303.11 144.7 291.91 149.07 280.31 151.56 278.59 151.93 271.36 151.98 266.53 149.92 261.82 148.13 261.77 148.11 262.63 135.58 264.71 130.04 267.85 125.1 271.83 121.66 276.69 120.04 287.83 118.33 292.48 115.84 294.43 115.37 303.34 116.67 306.07 115.92 313.27 111.69 329.37 107.08 334.25 106.55 350.25 107.61 355.24 106.55 355.81 106.29 355.81 106.3 356.16 108.52 357.67 116.36 361.16 118.94 Z" id="TLS-542" data-name="Liquica"/>
<path d="M 56.29 333.06 56.06 332.61 55.28 329.47 55.28 328.04 56.14 323.74 56.29 321.93 55.43 317.87 53.7 313.7 51.34 309.73 48.58 306.41 44.91 303.32 41.69 301.94 38.33 302.11 34.35 303.75 31.08 306.49 26.21 313.14 23.13 315 15.64 313.7 8.94 307.94 1 294.36 5.45 293.15 25.09 285.36 29.36 284.86 32.43 283.3 37.77 275.74 40.07 273.25 47.46 269.85 63.64 264.9 87.46 260.41 90.15 258.99 92.21 256.28 97.03 255.37 103.12 255.05 103.2 255.03 103.44 259.99 99.82 273.43 98.65 281.92 97.71 284.03 96.95 285.01 96 285.84 91.33 291.89 84.08 298.02 81.84 299.23 80.73 299.28 79.88 299.75 78.26 302.29 77.65 309.48 76.76 311.33 74.41 314.65 73.57 316.48 73.62 318.14 74.73 322.36 74.48 324.65 72.34 327.99 69.06 330.02 64.93 331.08 60.26 331.53 57.28 332.26 56.29 333.06 Z" id="TLS-543" data-name="Ambeno"/>
<path d="M 422.37 109.84 420.87 118.17 424.29 125.96 427.71 131.03 431.47 139.67 432.47 151.24 426.1 150.73 422.03 152.03 417.66 156.35 408.82 160.82 404.04 161.31 404.8 155.55 400.68 154.85 393.54 155.95 390.53 157.96 387.51 159.97 382.29 161.13 380.68 165.6 375.76 171.53 367.82 174.44 356.41 176 355.36 176.15 353.35 172.43 352.24 168.01 345.71 164.79 342.15 161.18 346.12 156.35 347.97 150.98 344.11 147.11 344.71 144.14 352.55 141.48 357.77 138.52 360.58 131.03 358.12 126.16 357.01 126.11 358.58 123.4 361.16 118.94 363.4 120.58 372.94 119.18 380.68 116.56 386.51 115.41 394.75 110.94 405.9 105.51 415.25 106.11 421.88 109.98 422.37 109.84 Z" id="TLS-544" data-name="Aileu"/>
<path d="M 404.04 161.31 403.99 161.73 401.98 171.22 400.93 177.2 400.78 181.67 400.07 188.56 396.36 190.92 388.32 190.82 382.69 193.73 381.89 198.35 379.88 202.98 377.92 206.39 377.47 211.02 378.12 219.05 381.49 224.68 388.72 227.85 394.75 230.71 398.32 234.08 400.38 239.55 398.92 243.27 397.16 247.59 398.97 256.53 399.62 258.2 399.63 258.21 397.21 258.28 384.87 256.5 380.89 257.33 375.93 261.24 370.94 264.03 355.37 269.76 357.12 263.12 360.99 251.21 357.12 248.95 351.74 247.59 348.53 243.82 347.72 234.33 345.16 228.25 341.69 226.69 340.04 223.07 336.87 219.46 336.56 219.53 336.97 213.48 337.16 206.91 344.36 204.84 344.51 198.96 346.82 195.74 349.73 192.53 351.39 188.36 355.76 184.49 356.52 178.31 355.36 176.15 356.41 176 367.82 174.44 375.76 171.53 380.68 165.6 382.29 161.13 387.51 159.97 390.53 157.96 393.54 155.95 400.68 154.85 404.8 155.55 404.04 161.31 Z" id="TLS-545" data-name="Ainaro"/>
<path d="M 647.08 72.99 647.08 72.99 650.78 78.38 652.53 84.46 655.2 87.22 659.07 89.53 658.41 93.65 656.35 96.92 660.02 100.49 668.56 108.17 675.29 114.95 677.1 118.92 674.09 121.39 667.51 126.21 662.43 133.44 659.42 137.46 656 133.04 651.58 129.73 645.95 128.22 638.07 125.86 632.29 128.62 629.42 134.35 626.26 135.86 622.24 133.49 615.81 132.64 605.91 134.25 599.33 131.03 595.21 120.38 590.49 115.76 588.83 122.14 588.08 129.42 589.03 136.76 584.86 139.87 578.58 137.41 570.79 134.65 560.29 132.34 548.29 133.04 536.78 137.31 523.77 137.06 513.84 133.72 518.94 129.02 521.76 125.15 523.37 119.78 522.91 111.84 522.16 104.5 521.46 98.83 518.94 94.05 514.29 90.4 517.49 89.97 528.43 89.81 538.2 88.45 543.23 85.95 553.95 78.42 561.7 76.2 569.77 71.71 572.46 71.26 577.31 71.18 579.86 70.05 584.25 73.24 589.41 75.29 595.01 76.46 600.69 76.84 604.25 78.06 613.21 86.49 623.24 83.13 641.89 74.38 647.08 72.99 Z" id="TLS-546" data-name="Baucau"/>
<path d="M 280.31 151.56 282.06 155.8 291.05 157.56 294.92 159.47 297.88 164.39 304.72 177.56 311.55 191.32 312.86 196.14 313.56 203.38 316.07 209.16 331.24 208.6 337.16 206.91 336.97 213.48 336.56 219.53 330.19 221.01 324.41 225.89 323.26 232.17 322.4 241.16 319.89 245.93 311.95 245.58 307.73 246.59 314.36 254.83 312.4 262.16 298.69 264.07 289.75 263.27 288.64 260.05 286.93 257.54 283.41 255.63 275.18 253.12 273.86 252.76 273.5 251.35 272.47 248.78 272 246.52 276.13 231.25 276.22 225.97 274.18 221.15 270.64 217.26 266.24 214.12 261.67 211.56 259.91 209.97 259 208.47 257.85 207.89 255.34 208.99 254.5 210.37 253.42 215.1 252.63 216.88 249.35 219.74 237.83 224.74 231.63 228.74 228.46 230.02 224.08 230.32 220.48 229.34 217.62 227.16 215.6 224.07 214.37 220.35 214.67 216.18 217.91 207.91 217.19 202 217.19 202 225.52 197.3 230.62 192.31 242.39 174.55 243.46 170.81 245.72 168.65 256.62 164.66 260.2 161.61 261.15 157.34 261.77 148.11 261.82 148.13 266.53 149.92 271.36 151.98 278.59 151.93 280.31 151.56 Z" id="TLS-547" data-name="Bobonaro"/>
<path d="M 355.37 269.76 355.36 269.77 328.81 279.54 320.07 284.86 307.55 295.21 300.84 298.09 297.88 301.54 293.37 308.26 290.72 311.15 288.07 313.23 284.54 314.47 273.19 315.3 268.48 316.67 264.37 319.26 260.2 323.33 251.73 329.3 249.13 314.46 248.01 310.86 242.53 302.32 242.29 300.61 242.78 296.79 242.44 295.23 241.1 293.62 235.95 290.43 230.15 285.28 228.49 282.55 227.07 278.33 225.6 269.94 226.53 262.75 230.55 257.88 238.51 256.47 243.49 256.52 245.14 256.97 246.83 258.2 249.73 261.47 251.26 262.4 254.73 262.6 256.82 261.19 258.99 259.06 262.75 257.05 265.42 256.82 271.39 257.2 273.37 256.3 274.16 253.96 273.86 252.76 275.18 253.12 283.41 255.63 286.93 257.54 288.64 260.05 289.75 263.27 298.69 264.07 312.4 262.16 314.36 254.83 307.73 246.59 311.95 245.58 319.89 245.93 322.4 241.16 323.26 232.17 324.41 225.89 330.19 221.01 336.56 219.53 336.87 219.46 340.04 223.07 341.69 226.69 345.16 228.25 347.72 234.33 348.53 243.82 351.74 247.59 357.12 248.95 360.99 251.21 357.12 263.12 355.37 269.76 Z" id="TLS-548" data-name="Cova Lima"/>
<path d="M 357.01 126.11 358.12 126.16 360.58 131.03 357.77 138.52 352.55 141.48 344.71 144.14 344.11 147.11 347.97 150.98 346.12 156.35 342.15 161.18 345.71 164.79 352.24 168.01 353.35 172.43 355.36 176.15 356.52 178.31 355.76 184.49 351.39 188.36 349.73 192.53 346.82 195.74 344.51 198.96 344.36 204.84 337.16 206.91 331.24 208.6 316.07 209.16 313.56 203.38 312.86 196.14 311.55 191.32 304.72 177.56 297.88 164.39 294.92 159.47 291.05 157.56 282.06 155.8 280.31 151.56 291.91 149.07 303.11 144.7 309.44 141.28 321.2 139.07 330.94 137.21 335.26 133.85 341.85 128.77 350.54 125.81 357.01 126.11 Z" id="TLS-549" data-name="Ermera"/>
<path d="M 514.29 90.4 518.94 94.05 521.46 98.83 522.16 104.5 522.91 111.84 523.37 119.78 521.76 125.15 518.94 129.02 513.84 133.72 511.71 132.99 506.89 132.24 502.16 135.4 499.25 143.09 496.54 149.37 492.02 152.33 488.8 156.45 488 161.18 493.72 169.92 498.85 179.26 499 184.49 500.05 189.71 502.72 196.95 506.89 202.98 513.27 210.92 513.35 211.21 513.34 211.22 509.44 212.82 491.36 225.17 490.81 222.27 487.59 216.74 477.14 209.41 466.44 203.23 462.67 197.35 457 190.57 448.61 186.5 441.17 182.53 433.74 176.45 430.87 165.55 432.53 151.93 432.47 151.24 431.47 139.67 427.71 131.03 424.29 125.96 420.87 118.17 422.37 109.84 428.51 108.12 433.84 101.59 438.56 98.07 442.38 93 438.14 87.51 438.14 87.5 443.5 85.78 454.95 85.12 480.35 89.57 490.08 94.28 496.61 94.95 501.95 93.89 512.25 90.68 514.29 90.41 514.29 90.4 Z" id="TLS-550" data-name="Manatuto"/>
<path d="M 432.47 151.24 432.53 151.93 430.87 165.55 433.74 176.45 441.17 182.53 448.61 186.5 457 190.57 462.67 197.35 466.44 203.23 477.14 209.41 487.59 216.74 490.81 222.27 491.36 225.17 466.95 241.8 462.43 243.22 448.12 241.05 443.32 241.42 440.61 242.85 435.31 247.26 432.46 248.21 422.37 248.21 417.27 249.48 401.68 258.16 399.63 258.21 399.62 258.2 398.97 256.53 397.16 247.59 398.92 243.27 400.38 239.55 398.32 234.08 394.75 230.71 388.72 227.85 381.49 224.68 378.12 219.05 377.47 211.02 377.92 206.39 379.88 202.98 381.89 198.35 382.69 193.73 388.32 190.82 396.36 190.92 400.07 188.56 400.78 181.67 400.93 177.2 401.98 171.22 403.99 161.73 404.04 161.31 408.82 160.82 417.66 156.35 422.03 152.03 426.1 150.73 432.47 151.24 Z" id="TLS-551" data-name="Manufahi"/>
<path d="M 659.42 137.46 658.56 138.62 656.81 144.7 656.84 153.14 656.84 153.14 648.53 153.74 643.23 155.01 640.39 156.35 633.26 161.61 631.48 162.38 629.41 162.84 624.07 163.12 621.57 164.05 612.06 174.85 603.24 189.82 594.63 197.34 584.37 200.22 520.12 208.41 513.35 211.21 513.27 210.92 506.89 202.98 502.72 196.95 500.05 189.71 499 184.49 498.85 179.26 493.72 169.92 488 161.18 488.8 156.45 492.02 152.33 496.54 149.37 499.25 143.09 502.16 135.4 506.89 132.24 511.71 132.99 513.84 133.72 523.77 137.06 536.78 137.31 548.29 133.04 560.29 132.34 570.79 134.65 578.58 137.41 584.86 139.87 589.03 136.76 588.08 129.42 588.83 122.14 590.49 115.76 595.21 120.38 599.33 131.03 605.91 134.25 615.81 132.64 622.24 133.49 626.26 135.86 629.42 134.35 632.29 128.62 638.07 125.86 645.95 128.22 651.58 129.73 656 133.04 659.42 137.46 Z" id="TLS-552" data-name="Viqueque"/>
<path d="M 656.84 153.14 656.84 153.14 656.81 144.7 658.56 138.62 659.42 137.46 662.43 133.44 667.51 126.21 674.09 121.39 677.1 118.92 675.29 114.95 668.56 108.17 660.02 100.49 656.35 96.92 658.41 93.65 659.07 89.53 655.2 87.22 652.53 84.46 650.78 78.38 647.08 72.99 647.08 72.99 648.28 72.66 652.89 69.44 654.86 68.53 657.55 68.51 661.69 69.79 663.45 70.05 674.09 67.86 684.49 63.23 709.4 45.62 714.86 43.29 718.95 44.24 722.69 46.97 739.78 55.1 744.47 56.34 750.48 56.9 756.39 56.34 760.67 54.27 768.14 48.99 769.8 48.33 772.95 49.03 774.14 50.59 774.79 52.72 776.43 55.1 781.57 58.16 792.59 61.13 797.24 64.24 799 69.1 796.57 73.26 778.8 86.45 767.67 97.57 745.38 114.77 729.67 129.93 728.01 132.42 725.12 132.66 708.09 136.41 692.45 147.67 685.48 151.09 656.84 153.14 Z" id="TLS-553" data-name="Lautem"/>
</g>
</svg>