<?xml version="1.0"?>
<svg xmlns="http://www.w3.org/2000/svg" version="1.2" baseProfile="tiny" width="800" height="660" viewBox="0 0 800 660" stroke-linecap="round" stroke-linejoin="round">
<g id="ne_10m_admin_1_states_provinces">
<path d="M 463.65 295.57 462.99 305.34 463.54 306.76 463.64 307.45 463.58 307.92 463.29 308.22 462.99 308.31 462.1 308.4 461.8 308.52 457.75 313.31 457.56 313.43 457.32 313.48 456.13 313.55 455.81 313.66 455.46 314.06 455.11 314.76 454.76 316.13 454.67 316.76 454.7 317.19 454.8 317.39 455.3 318.15 455.41 318.41 455.48 318.73 455.36 319.19 455.08 319.77 450.83 326.04 450.28 327.35 449.85 330.04 448.93 333.06 448.58 333.73 448.42 334.14 448.4 334.47 448.59 334.74 448.84 334.88 449.37 335.07 449.56 335.21 449.68 335.38 449.73 335.6 449.71 336.63 449.74 336.98 449.77 337.14 449.85 337.31 449.98 337.44 450.14 337.49 450.32 337.44 450.47 337.31 450.95 336.56 451.11 336.39 451.28 336.24 451.46 336.11 451.8 335.95 451.97 335.91 452.18 335.89 452.7 335.89 453.28 335.97 453.55 336.05 453.8 336.19 453.98 336.45 453.93 337.07 453.66 338 452.38 340.17 452.07 340.54 451.48 340.96 450.75 341.61 450.51 341.99 450.26 342.56 450.06 343.49 450 343.99 450 345.17 449.33 347 446.74 351.68 444.37 356.91 443.92 357.66 443.45 358.15 442.53 358.8 441.32 359.49 441.06 359.76 439.48 361.96 438.43 362.75 435.44 363.18 434.52 363.48 433.65 363.85 433.45 363.97 433.24 364.13 432.99 364.39 432.41 365.24 432.18 365.81 432.03 366.45 432.01 367.88 432.16 369.5 430.67 375.57 430.71 376.15 430.83 376.45 431.01 376.63 431.25 376.72 431.51 376.79 433.61 376.97 434.15 377.11 434.38 377.22 434.77 377.46 435.1 377.75 435.25 377.91 435.37 378.1 435.48 378.35 435.52 378.85 435.49 379.56 435.32 380.8 435.34 381.37 435.42 381.74 436.44 383.11 436.59 383.24 436.77 383.32 436.96 383.32 437.14 383.25 437.3 383.12 437.61 382.81 437.95 382.53 438.14 382.41 438.36 382.31 438.59 382.25 438.83 382.23 439.05 382.3 439.23 382.5 439.28 383.03 439.2 383.84 437.46 391.25 436.9 392.21 436.54 392.62 436.24 392.8 435.59 393.09 435.22 393.32 434.87 393.6 434.23 394.21 431.8 397.67 430.72 398.82 430.04 399.37 428.68 400.24 428.49 400.41 428.25 400.7 427.98 401.26 427.65 402.11 427.4 403.36 427.34 403.97 427.36 404.36 427.43 404.53 427.5 404.65 427.58 404.78 427.88 405.07 428.4 405.5 428.56 405.67 428.69 405.91 428.78 406.24 428.54 407.15 425.84 412.75 424.69 414.43 423.4 415.92 423.06 416.19 422.69 416.44 421.85 416.82 419.97 417.43 419.71 417.58 419.43 417.79 419.17 418.12 418.99 418.46 418.93 418.86 418.95 419.14 419.02 419.38 421.59 422.93 415.02 423.08 391.58 423.99 383.14 423.5 378.05 424.11 376.67 424.49 376.37 424.61 375.97 424.84 375.3 425.39 374.95 425.75 372.51 429.32 372.33 429.51 372.18 429.64 371.9 429.83 371.53 430.03 367.3 431.6 365.05 433.03 364.18 433.86 353.35 441.27 351.9 442.79 349.69 445.75 337.8 450.54 331.41 452 325.87 452.67 323.94 453.59 323.33 454.51 320.98 459.51 317.56 463.47 314.27 468.67 313.63 469.96 313.28 470.89 312.99 472.49 311.17 479.71 310.83 481.96 310.76 483.66 311.33 488.46 311.67 509.16 311.79 513.2 312.1 515.6 312.63 517.8 313.05 518.82 325.67 539.9 326.14 541.64 326.31 543 325.51 547.4 325.5 548.34 325.79 550.88 325.8 552.19 325.56 553.71 325.03 555.43 322.54 561.5 321.86 562.49 320.29 564.08 318.52 566.01 317.79 567.35 317.49 568.09 317.16 568.52 316.74 568.85 315.42 569.5 315.03 569.96 312.51 574.08 312.24 574.71 312.11 575.18 312.15 575.46 312.35 576.48 312.41 577.02 312.34 577.46 312.16 578.07 310.91 581.01 310.57 581.54 310.25 581.93 309.36 582.61 307.92 583.7 306.19 585.6 305.73 586.2 305.47 586.66 305.42 586.94 305.4 587.23 305.45 588.1 305.42 588.5 305.14 589.28 304.66 590.05 303.69 591.33 302.48 592.51 301.8 592.93 301.16 593.25 300.5 593.47 298.54 593.69 298.29 593.74 297.96 593.86 297.35 594.16 289.58 599.94 289.58 599.61 288.44 599.03 288.44 597.14 289.22 593.37 289.34 590.43 289.58 589.49 290.03 588.68 290.95 587.57 291.23 586.77 291.19 585.71 290.42 584.16 290.23 583.24 289.86 582.85 288.09 581.38 287.37 581.06 286.82 580.68 284.2 578.36 282.5 577.41 281.87 576.62 282.16 575.65 283.42 575.94 284 574.95 283.8 573.64 282.68 572.99 282 572.12 281.57 570.39 281.04 569.11 280.14 569.59 280.03 569.37 279.87 569.14 279.8 568.92 279.16 569.12 278.85 568.74 278.67 568.12 278.42 567.58 276.76 565.94 276.41 565.19 275.19 565.54 273.98 565.45 273.24 564.89 273.38 563.82 272.55 564.37 271.56 564.68 269.82 564.85 269.23 564.79 268.21 564.51 267.6 564.49 267.41 564.61 267.12 564.85 266.7 565.08 264.93 565.41 263.92 565.99 263.12 566.75 262.56 567.58 261.66 569.32 261.37 569.59 260.84 569.78 260.29 570.23 259.81 570.77 259.54 571.24 260.85 571.23 264.76 570.6 265.38 570.43 265.9 570.03 266.63 569.23 266.79 569.1 266.96 569 267.19 568.94 267.45 568.92 267.63 568.78 267.61 568.46 267.54 568.11 267.6 567.88 268.64 567.54 270.12 567.34 271.46 567.38 272.04 567.73 272.26 568.25 272.79 568.51 273.45 568.67 274.02 568.92 274.45 569.37 275.18 570.44 275.73 570.94 276.42 570.43 277.36 570.2 278.32 570.33 279.13 570.94 277.42 572.28 279.41 573.43 280.08 574.23 279.43 575 278.72 574.9 277.81 574.36 276.41 573.29 272.6 571.72 270.25 571.24 268.61 571.61 267.29 571.34 265.7 571.73 264.1 572.32 262.73 572.62 258.29 572.65 255.12 573.47 251.17 574.01 249.06 573.96 247.92 574.06 246.22 574.82 245.06 575.13 243.34 576.01 241.32 576.35 238.72 577.52 237.76 577.66 236.66 577.54 229.68 575.76 228.68 575.65 227.61 575.86 226.47 576.29 225.38 576.57 224.47 576.35 224.7 576.09 225.11 575.31 223.51 575.39 222.2 575.65 221.07 576.07 220.04 576.65 218.44 575.89 217.08 576.37 216.04 577.5 214.9 579.31 214.52 579.67 214.03 579.88 213.29 580.05 212.71 580.06 211.46 579.76 210.06 579.58 208.54 579.14 207.71 579.04 204.69 579.04 201.74 578.52 200.21 578.46 198.8 579.04 197.72 578.61 196.16 578.45 193.06 578.67 191.78 579.14 190.67 579.97 189.82 581 189.33 582.06 189.04 583.35 189.07 583.94 189.33 584.45 189.88 584.7 190.69 584.92 191.32 585.24 191.37 585.79 190.99 585.82 188.66 586.47 187.95 586.42 186.7 586.1 185.96 586.1 187.27 584.21 187.31 583.38 186.47 582.23 185.6 581.76 184.24 581.32 182.85 581.04 181.93 581.06 181.35 581.48 180.63 582.53 180.05 582.74 179.42 582.79 178.46 583.02 178.03 583.07 176.96 582.76 175.25 581.26 174.16 580.69 172.07 580.23 169.95 580.05 169.49 579.92 168.85 579.28 168.45 579.04 165.46 578.93 161.05 578.09 161.06 577.39 161.51 576.51 161.67 575.65 161.41 575.38 160.94 575.13 160.51 574.76 160.32 574.13 160.52 573.61 161.02 573.36 161.63 573.29 162.18 573.29 163.34 573.51 163.83 573.35 164.05 572.62 163.82 572.4 163.33 572.3 162.67 572.28 160.42 572.77 159.18 572.87 158.64 572.45 155.89 573.68 155.25 574.3 155.98 574.11 156.26 573.96 156.61 574.83 156.98 575.06 157.46 574.79 158.13 574.13 158.8 574.12 159.44 574.97 160.32 576.65 159.69 577.58 159.34 577.66 158.47 577.66 156.64 577.93 155.76 577.97 154.91 577.66 153.65 578.13 151.8 577.82 146.79 576.16 143.49 575.65 140.15 575.74 136.93 576.19 135.35 576.65 134.45 577.09 133.63 577.66 132.29 579.04 131.57 580.28 131.05 580.62 130.27 580.38 130.5 581.18 130.88 581.82 132.37 583.46 132.61 583.62 132.7 583.75 132.66 584.08 132.53 584.44 132.35 584.76 132.1 585 131.8 585.09 130.24 584.82 127.4 583.67 125.72 583.41 122.33 583.77 121.5 583.65 119.18 582.74 115.94 581.92 114.25 581.78 112.73 582.06 109.66 583.59 108.53 583.77 104.32 583.41 95.85 581.73 87.7 581.53 83.88 581.62 81.41 581.87 80.81 582.94 80.94 583.62 82.01 584.08 81.03 584.45 79.79 584.09 78.29 584.46 76.88 585.15 75.93 585.79 75.38 586.28 74.81 586.97 74.46 587.74 74.61 588.48 75.24 589.07 76.29 589.29 76.98 589.62 76.67 590.31 74.64 590.32 72.19 590.19 70.52 589.77 71.71 588.88 71.89 588.72 72.08 588.61 72.23 588.48 72.65 588.28 73.09 588.32 73.43 588.22 73.58 587.64 72.88 586.41 72.56 585.51 71.46 584.78 70.43 584.19 69.03 584.09 67.35 583.79 65.06 583.87 62.97 584.52 61.85 584.92 61.26 585.85 60.81 586.67 61.51 587.21 61.74 588.34 62.29 588.79 62.69 589.35 61.63 589.67 59.67 589.55 57.37 589.3 54.44 589.23 52.05 589.55 51.5 590.5 51.33 590.91 50.89 591.34 50.39 592.76 49.79 592.74 48.79 593.34 47.59 593.75 45.84 593.96 44.59 593.55 44.12 592.78 44.4 591.73 44.9 591.2 44.54 590.54 44.73 590.11 45.57 589.49 46.09 588.94 46.22 588.62 46.28 587.98 46.42 587.45 47.08 586.62 47.26 586.1 47.23 585.37 47.05 585.22 46.76 585.35 46.43 585.46 46.28 585.55 45.85 585.98 45.57 586.1 45.32 586.01 44.67 585.56 44.38 585.46 43.81 585.37 43.51 585.16 43.26 584.92 42.85 584.75 42.29 584.7 40.68 584.75 39.89 584.58 39.4 584.56 38.83 584.75 37.63 584.67 37.63 584.67 39.2 580.57 39.49 576.42 39.84 571.52 40.13 567.3 40.34 564.42 40.51 563.72 40.8 563.24 41.52 562.59 41.83 562.21 41.97 560.51 41.43 558.56 41.18 556.75 42.22 555.45 43.26 555.23 44.22 555.25 45.07 555.07 45.82 554.25 46.09 553.38 46.61 549.94 47.23 545.84 47.7 542.78 48.09 540.13 48.55 537.14 48.96 535.61 49.68 534.28 50.87 533.45 56.81 531.93 58.58 530.87 59.5 530.47 60.51 530.19 62.55 529.88 62.99 529.37 63.17 528.16 64.01 526.96 65.86 527.19 68.05 527.88 69.9 528.11 70.96 527.61 70.92 526.91 70.44 526 70.17 524.87 70.52 524.26 72.07 522.89 72.58 522.04 72.53 521.73 72.34 521.45 72.2 521.13 72.29 520.7 72.6 520.33 73.03 520.09 73.99 519.74 74.39 519.54 75.03 519.12 75.43 518.96 75.9 518.91 76.93 518.96 77.44 518.84 77.73 518.6 78.13 517.96 78.52 517.69 78.99 517.57 87.23 516.78 88.23 516.47 88.64 516.18 89.03 515.81 89.46 515.58 89.98 515.68 90.53 515.92 90.95 515.95 92.48 515.64 92.9 515.49 93.27 515.32 93.6 515.09 94.11 514.25 94.48 513.8 95.02 513.66 98.37 513.74 102.23 513.82 106.68 513.92 108.6 514.18 110.55 514.23 111.98 513.94 112.45 513.98 112.88 514.16 113.23 514.38 113.62 514.56 114.11 514.58 115.22 513.61 115.74 511.65 116.13 504.5 116.49 503.72 117.3 503.34 119.3 503.05 120.04 502.45 120.2 501.55 119.78 500.76 119.17 499.96 118.73 499.03 118.48 493.47 118.55 492.89 118.76 492.4 119.28 491.73 119.46 491.23 120 490.44 120.97 490.07 122.05 490.06 122.89 490.36 121.22 487.04 120.51 486.12 119.99 485.61 119.54 485.35 118.32 484.96 117.76 484.65 116.49 483.61 115.88 483.41 115.38 483.4 112.68 484.16 112.05 484.18 111.23 484.1 109.92 484.16 107.34 484.87 106.06 485.05 103.19 485.55 101.86 485.62 100.3 485.32 99.15 484.75 98.75 484.63 98.4 484.69 97.73 485.04 97.34 485.05 96.6 484.69 94.47 483 95.25 482.95 95.73 482.63 96.03 482.08 96.26 481.37 96.35 480.57 96.11 480.04 95.14 478.99 97.73 473.81 98.03 471.76 97.76 469.2 97.29 464.66 97.04 462.18 96.63 458.2 96.33 455.28 95.05 450.54 94.14 447.14 94.93 441.54 95.65 436.48 95.41 434.75 94.32 434.17 86.26 435.61 85.26 435.06 82.15 432.08 81.43 431.02 81.11 430.16 80.77 429.66 80.26 429.37 79.44 429.14 78.64 428.74 78.14 428.14 77.71 427.48 77.14 426.89 75.77 426.26 69.27 425.1 65.17 423.49 63.6 423.19 60.33 422.94 58.84 422.53 56.49 421.33 53.54 420.61 52.63 420.17 51.07 418.59 47.95 416.03 45.9 413.7 40.82 409.64 39.39 408.1 37.98 405.39 36.56 404 36.31 403.26 36.19 402.44 35.9 401.48 33.82 397.28 33.39 396.77 32.84 396.39 32.2 396.14 31.82 395.88 31.71 395.59 31.85 395.29 32.2 394.97 32.66 394.55 32.83 394.1 32.68 393.67 32.2 393.34 31.36 393.02 30.98 392.31 30.72 391.47 30.22 390.77 29.69 390.52 29.23 390.47 28.78 390.33 28.26 389.81 28.01 389.25 27.87 388.02 27.72 387.47 27.09 386.62 25.52 385.11 25.05 384.11 25.05 383.14 25.64 381.42 25.73 380.46 25.28 379.21 24.41 378.67 23.37 378.31 22.41 377.62 18.36 373.4 14.51 369.38 10.8 365.52 7.58 362.16 4.97 359.48 1 355.38 2.56 356.01 6.07 356.99 10.17 358.14 14.28 359.3 18.38 360.45 22.47 361.6 26.58 362.75 30.67 363.9 34.77 365.05 38.87 366.2 42.97 367.35 47.07 368.5 51.17 369.66 55.28 370.8 59.37 371.96 63.47 373.11 67.58 374.26 71.67 375.41 76.35 376.72 81.42 377.56 87.58 377.06 89 376.94 91.42 376.74 93.83 376.54 96.24 376.35 98.66 376.14 101.07 375.95 103.49 375.75 105.9 375.55 108.32 375.35 110.73 375.15 113.14 374.95 115.56 374.76 117.97 374.56 120.39 374.36 122.8 374.16 125.22 373.96 127.64 373.76 135.16 373.15 145.96 374.96 155.02 376.49 160.64 378.61 161.98 378.13 163.77 375.07 164.9 373.8 166.63 373.02 179.92 369.56 181 369.57 190.08 369.63 196.8 369.68 204.99 370.98 207.44 371.05 214.58 369.23 217.44 368.5 220.3 367.77 223.17 367.04 226.02 366.32 228.88 365.59 231.73 364.86 234.59 364.13 237.45 363.4 240.32 362.67 243.17 361.95 246.03 361.22 248.89 360.49 251.74 359.76 254.61 359.04 257.47 358.31 260.33 357.58 264.52 356.51 268.44 354.06 269.75 352.55 270.77 351.03 271.06 350.88 271.48 350.76 271.66 350.54 271.26 350.07 269.74 349.05 267.72 347.26 265.98 346.21 265.69 345.55 265.81 344.77 266.53 342.9 269.71 337.29 269.92 336.35 269.81 333.37 270.74 326.86 270.62 325.85 270.34 324.85 269.96 324.22 268.77 322.88 267.94 320.93 268.09 318.78 272.93 302.95 273.37 302.27 274.21 301.88 280.87 300.71 281.98 300.29 286.6 296.19 287.54 295.06 289.21 289.51 290.41 288.8 292.29 288.58 293.56 287.74 294.71 286.61 296.18 285.51 299.5 284.11 301.34 283.66 304.24 283.6 304.96 283.93 305.31 284.61 305.41 285.71 305.29 286.11 305.02 286.41 304.82 286.71 304.89 287.11 305.26 287.37 305.87 287.54 307 287.71 308 287.73 309.89 287.32 310.87 287.28 311.85 287.54 313.65 288.39 314.66 288.7 315.48 288.78 318.03 288.68 321.18 288.92 322.09 288.78 325.5 287.53 328.43 287.19 330.25 286.52 332.88 286.09 333.79 285.8 336.93 284.07 337.57 283.56 338.25 283.14 339.05 282.94 341.04 283 341.79 282.7 342.3 281.78 342.07 279.72 340.3 279.22 336.2 279.69 335.23 279.45 334.25 278.93 333.53 278.19 333.24 276.27 332.6 275.41 331.88 274.67 331.52 273.93 332.16 273.06 333.71 273.03 336.91 273.64 338.43 273.51 339.92 272.99 340.98 272.35 342.6 271.37 345.64 268.45 347.01 267.88 347.68 267.85 349.18 268.06 351.18 267.97 351.71 267.73 352.26 267.05 353.09 266.48 355.67 265.25 355.95 264.91 356.12 263.87 356.36 263.42 357.99 262.14 358.22 261.77 358.53 261.3 359.57 259.19 360.2 258.54 361.22 258.48 362.48 258.86 363.57 259.37 364.82 260.24 365.33 260.9 365.94 261.41 367.02 261.55 368.97 261.47 370.92 261.61 376.08 263.18 377.91 263.44 378.75 263.21 379.82 262.66 380.46 262.05 380 261.61 379.05 261.49 376.1 261.55 375.03 261.4 374.17 261.08 374 260.59 374.96 259.95 377.09 258.99 378.25 258.64 379.36 258.63 381.01 259.18 383.89 260.57 386.66 261 387.28 261.3 387.6 261.91 387.75 263.9 388.12 264.62 389.39 265.89 391.66 268.69 392.97 269.48 394.92 269.29 398.05 267.92 399.72 267.46 401.51 267.57 402.82 267.09 404.6 266.01 406.15 264.79 406.8 263.91 407.55 263.5 408.26 262.82 413.65 255.72 414.98 254.49 417.34 252.98 417.46 252.8 418.8 252.89 419.11 253.34 419.81 253.36 420.78 253.15 428.16 252.69 429.02 252.82 430.7 252.44 431.54 251.91 432.38 251.26 433.16 250.51 434.42 248.94 435.24 248.36 437.5 247.6 437.95 247.58 441.66 246.9 443.09 247.07 443.25 247.28 443.17 247.95 442.71 248.96 442.37 249.54 442.3 249.9 442.41 250.26 442.84 250.74 443.39 251.18 444.03 251.57 444.98 252.04 445.18 252.18 445.33 252.38 445.37 252.63 445.29 253.11 445.09 253.47 444.1 254.95 444 255.19 443.96 255.41 443.98 255.66 444.06 255.92 444.21 256.25 444.53 256.66 444.82 256.93 445.12 257.13 445.4 257.27 445.63 257.34 445.82 257.35 446.03 257.3 446.31 257.2 446.6 257.06 446.81 256.9 447.04 256.71 447.52 256.17 448.17 255.11 448.31 254.98 448.51 254.88 448.73 254.86 448.93 254.9 449.09 255.08 449.15 255.31 448.87 257.88 448.54 258.77 448.4 259.86 448.49 262.6 448.45 263.3 448.63 266.65 448.45 267.77 448.25 270.9 448.14 271.51 447.74 272.62 447.65 273.16 447.64 273.49 447.67 273.77 447.85 274.28 448.03 274.48 448.41 274.69 450.03 275.28 450.52 275.35 450.85 275.35 451.36 275.6 452.08 276.79 452.96 282.07 452.99 282.6 453.1 282.9 453.28 283.14 453.68 283.36 453.86 283.34 453.96 283.26 453.98 283.07 453.93 282.21 453.98 281.8 454.11 281.28 454.24 280.97 454.44 280.73 454.9 280.33 454.99 280.2 455.09 279.72 455.32 279.21 455.41 278.92 455.47 278.77 455.58 278.63 455.78 278.6 456.03 278.69 456.44 279.03 456.73 279.11 456.94 279.09 457.09 278.97 457.22 278.83 457.39 278.7 457.58 278.61 457.94 278.61 458.76 278.75 458.95 278.72 459.16 278.64 459.42 278.5 459.66 278.31 459.98 277.9 460.26 277.41 460.56 277.02 460.73 276.92 460.93 276.85 461.15 276.83 461.35 276.78 461.55 276.66 462.11 275.88 462.4 275.57 462.57 275.36 462.68 275.24 462.82 275.22 462.96 275.28 463.15 275.49 463.32 275.75 463.47 276.27 463.5 276.77 463.43 277.5 463.58 278.17 463.75 278.61 464.29 279.29 464.45 279.55 464.56 279.83 464.59 280.16 464.55 280.69 463.94 282.81 463.86 283.3 463.99 286.61 463.22 290.79 463.14 292.77 463.22 293.93 463.65 295.57 Z" id="PAK-1108" data-name="Baluchistan"/>
<path d="M 709.16 119.97 709.16 119.97 708.58 119.66 706.78 119.64 703.56 120.21 698.97 120.41 681.6 117.52 669.15 113.77 666.03 113.33 662.93 113.55 659.77 114.6 656.08 116.86 654.81 117.4 646.99 118.51 646.32 118.78 644.88 119.78 644.79 120.92 645.18 122.2 645.21 123.6 644.47 124.58 642.11 125.96 641.32 127.08 641.32 127.08 641.25 128.94 640.99 129.53 640.56 129.93 639.34 130.48 638.82 130.81 638.01 131.91 637.77 133.15 638.15 134.34 639.21 135.29 640.44 135.89 641.63 136.28 642.9 136.43 644.3 136.31 645.79 136.44 646.61 137.28 647.71 139.72 648.39 140.66 648.77 141.73 648.63 142.73 647.71 143.46 644.76 144.76 643.6 145.77 643.16 147.27 643.62 148.74 644.73 150.04 646.18 150.94 647.71 151.19 651.07 150.46 652.07 150.52 654.68 151.29 656.45 151.22 658.31 150.84 660.1 150.78 661.64 151.7 662.26 153.28 661.78 154.87 660.65 156.29 659.32 157.41 657.59 158.43 655.86 159.09 650.56 159.86 649.41 160.75 647.71 163.29 647.41 163.87 647.19 164.49 647.03 165.13 646.92 166.57 647.03 167.34 647.29 168.06 647.71 168.73 650.05 170.42 653.19 171.84 655.82 173.61 656.62 176.33 655.56 180.08 654.05 183.66 653.58 184.49 653.04 185.19 652.4 185.78 651.58 186.28 649.73 186.9 648.94 187.36 648.45 188.23 648.29 190.39 648.97 191.91 650.3 193.07 652.09 194.13 653.7 195.5 656.43 198.69 658.25 199.58 662.84 200.23 664.18 200.95 664.71 202.04 664.83 204.53 665.43 207.06 665.29 208.09 664.76 209.01 664.46 209.38 648.02 202.19 647.72 201.85 646.89 200.64 646.86 200.58 646.7 200.36 646.44 200.1 646.05 199.77 645.21 199.39 644.29 199.19 642.64 199.25 641.93 199.34 641.44 199.46 641.35 199.5 640.47 199.9 640.44 199.91 640.11 200.01 639.29 199.92 638.31 199.45 637.68 199.16 637.21 198.42 635.65 197.58 632.74 196.48 631.15 195.58 630.26 194.53 631.39 193.62 631.34 193.06 631.61 192.69 631.84 192.14 631.86 191.57 631.58 191.07 631.16 190.76 630.18 190.22 630.02 189.98 629.94 189.65 629.91 189.36 629.88 189.22 629.62 189.21 629.22 189.29 629.15 189.32 628.89 189.43 628.88 189.43 628.55 189.41 628.35 189.45 628.23 189.38 628.17 188.92 628.16 188.88 628.32 188.89 628.58 188.81 628.66 188.78 629 188.64 629.17 188.52 629.11 187.54 628.9 186.59 628.83 185.68 629.04 185.15 629.17 184.82 629.31 184.26 629.08 183.78 628.51 183.15 627.99 182.47 627.87 181.59 628.31 180.97 628.88 180.39 629.36 178.92 629.78 178.68 629.8 178.66 630.17 178.59 630.26 178.57 630.51 178.4 630.54 177.93 630.43 177.54 630.27 177.17 629.89 175.54 629.88 175.07 630.05 174.75 630.36 174.65 630.68 174.51 630.88 174.03 630.77 173.24 630.4 172.33 629.88 171.46 629.34 170.82 627.99 169.82 627.83 169.46 628.09 168.78 627.99 168.46 628.04 168 628.94 166.42 629.17 165.77 629.12 164.84 628.94 163.95 628.59 163.12 627.99 162.39 627.54 161.1 628.29 157.49 628.16 155.83 625.15 151.04 625.14 151.01 625.14 151 625.14 150.95 624.65 148.05 623.78 145.11 623.76 145.04 623.73 144.52 623.71 144.2 623.72 144.05 623.8 142.49 623.76 141.65 622.96 138.17 622.95 138.16 622.24 137.51 622.04 137.03 621.63 136.35 619.66 133.94 619.32 132.93 619.32 132.93 619.49 132.66 620.05 131.84 620.3 131.25 620.55 130.33 620.58 130.23 620.58 130.22 620.63 129.96 620.62 128.47 620.66 128.27 620.66 128.27 620.67 128.25 620.74 128.13 621.05 127.69 621.11 127.55 621.15 127.4 621.17 127.23 621.08 125.94 621.11 125.71 621.18 125.52 621.43 125.15 621.52 124.98 621.55 124.81 621.55 124.38 621.58 124.15 621.63 123.94 621.77 123.71 621.99 123.53 622.44 123.33 622.46 123.32 623.94 123.11 624.11 123.1 624.18 123.1 624.42 123.12 625.45 123.29 625.56 123.29 625.65 123.3 625.86 123.27 625.91 123.27 626.83 122.88 627.47 122.61 627.9 122.5 628.33 122.44 628.72 122.45 628.82 122.45 629.17 122.5 629.42 122.61 629.42 122.61 629.48 122.71 629.54 122.81 629.54 122.81 629.54 122.82 629.65 123.07 629.84 123.39 629.94 123.51 630.06 123.64 630.06 123.65 630.3 123.65 630.31 123.65 630.38 123.58 630.59 123.38 631.07 122.59 632.09 120.21 632.13 119.95 632.1 119.71 632 119.44 631.68 118.97 631.58 118.77 631.52 118.53 631.57 118.3 631.66 118.09 633.13 116.19 633.37 115.8 633.8 114.75 634.14 114.21 634.14 114.2 634.51 113.83 635.01 113.44 636.06 112.77 636.56 112.52 636.57 112.52 636.96 112.39 637.88 112.44 638.2 112.39 638.47 112.31 638.83 112.15 638.88 112.12 639.77 111.57 639.78 111.57 639.96 111.51 641.03 111.33 643.13 111.5 643.14 111.5 643.31 111.44 643.41 111.4 643.43 111.39 644.33 110.81 644.33 110.81 644.47 110.74 644.73 110.62 645.1 110.37 645.17 110.3 645.34 110.15 645.41 110.09 645.41 110.08 645.76 109.59 645.76 109.59 646.02 109.37 646.26 109.17 646.28 109.16 646.61 108.94 646.62 108.93 646.99 108.81 647.78 108.75 648.06 108.69 648.32 108.64 648.88 108.46 649.45 108.27 649.45 108.27 649.46 108.26 649.63 108.13 649.73 108.05 649.74 108.04 649.96 107.79 650.05 107.68 650.05 107.68 650.33 106.85 650.54 106.38 650.54 106.38 650.66 106.25 650.9 105.98 650.91 105.97 651.44 105.65 651.52 105.58 651.65 105.48 651.88 105.05 652.01 104.63 651.96 103.87 652.03 103.44 652.15 103.07 652.58 102.61 653.05 102.19 653.06 102.19 653.38 102.01 653.66 101.85 653.66 101.85 653.79 101.7 653.8 101.68 653.84 101.49 653.67 101.12 653.42 100.86 653.19 100.71 653.19 100.71 652.6 100.48 652.54 100.45 652.43 100.39 652.34 100.3 652.28 100.25 652.25 100.21 652.18 100.09 652.11 99.93 652.1 99.73 652.18 99.45 652.62 98.63 652.85 98.32 652.85 98.32 653.21 97.99 653.75 97.61 654.99 97.29 655.64 97.3 657.47 97.33 657.56 97.33 662.05 97.89 662.11 97.9 666.12 97.57 669.1 96.67 671.66 96.09 671.69 96.08 672.93 96.26 674.5 96.95 675.88 98.23 677.1 99.9 679.03 103.54 680.07 105.1 681.41 106.21 688.2 109.47 691.5 110.62 694.52 111.36 694.53 111.36 696.85 111.39 698.34 111.19 699.48 110.84 701.41 110.52 701.41 110.52 702.38 110.09 704.13 108.74 704.13 108.74 704.98 108.57 705.05 108.56 706.05 108.97 708.34 110.96 709.52 112.29 710.36 113.88 710.67 115.53 710.49 117.1 710.49 117.11 709.26 119.46 709.25 119.47 709.17 119.92 709.16 119.97 Z" id="PAK-1109" data-name="Azad Kashmir"/>
<path d="M 596.04 164.84 598.4 164.45 599.46 163.99 599.97 163.5 600.4 163.15 601.15 162.69 601.74 162.48 602.13 162.4 603.96 162.18 605.03 161.79 605.3 161.6 605.43 161.48 605.82 161.05 606.25 161.29 610.21 162.8 610.87 163.17 611.57 163.7 613.11 165.12 614.99 166.34 615.39 166.83 615.39 167.39 615.03 168 613.75 169.16 613.19 169.82 611.36 173.51 611.02 173.91 609.51 175.26 608.93 175.89 608.84 176.02 608.77 176.1 608.6 176.22 607.67 176.42 606.65 176.22 605.35 175.65 604.74 175.28 604.36 174.81 604.54 174.26 604.86 173.6 604.94 172.86 604.58 171.93 604.07 171.1 603.49 170.44 602.87 170 601.89 169.74 601.08 169.75 600.11 169.94 598.31 170.49 596.61 171.34 595.82 171.87 594.77 172.34 593.64 172.53 592.46 172.38 591.43 171.63 590.61 170.66 590 169.39 590.26 168.07 591.37 166.88 596.04 164.84 Z" id="PAK-1110" data-name="F.C.T."/>
<path d="M 785.62 70.36 792.31 83.55 799 96.73 798.68 96.9 797.73 97.92 797.92 99.12 798.32 100.47 798 102.01 797.23 102.84 794.27 104.81 793.33 105.68 792.7 106.08 791.96 105.96 790.66 105.27 789.33 104.96 787.58 105.09 785.85 105.58 784.65 106.35 784.26 107.49 784.44 110.13 783.98 111.07 779.48 114.63 778.84 114.92 774.59 115.67 773.73 115.66 772.95 115.42 770.81 114.1 768.92 113.85 767.04 114.45 760.25 117.7 754.97 118.84 753.34 118.87 750.22 117.76 748.5 118.07 747.71 118.66 746.69 120.1 746.03 120.77 745.68 120.93 744.35 121.28 741.14 123.28 738.29 125.73 737.29 126.41 736.37 126.61 734.29 126.37 733.24 126.38 730.38 126.95 728.22 126.88 715.24 123.98 713.21 123.15 711.27 121.96 710.48 121.23 709.76 120.3 709.16 119.97 709.17 119.92 709.25 119.47 709.26 119.46 710.49 117.11 710.49 117.1 710.67 115.53 710.36 113.88 709.52 112.29 708.34 110.96 706.05 108.97 705.05 108.56 704.98 108.57 704.13 108.74 704.13 108.74 702.38 110.09 701.41 110.52 701.41 110.52 699.48 110.84 698.34 111.19 696.85 111.39 694.53 111.36 694.52 111.36 691.5 110.62 688.2 109.47 681.41 106.21 680.07 105.1 679.03 103.54 677.1 99.9 675.88 98.23 674.5 96.95 672.93 96.26 671.69 96.08 671.66 96.09 669.1 96.67 666.12 97.57 662.11 97.9 662.05 97.89 657.56 97.33 657.47 97.33 655.64 97.3 654.99 97.29 654.99 97.29 654.99 97.29 654.99 97.29 654.99 97.28 654.99 97.28 654.99 97.27 654.98 97 654.98 97 654.98 97 654.91 96.88 654.73 96.7 654.03 96.2 653.89 95.94 653.86 95.74 653.92 95.53 653.95 95.38 653.89 95.28 653.87 95.26 653.8 95.23 653.69 95.18 653.68 95.18 653.64 95.18 652.76 95.2 652.75 95.2 651.39 95.09 650.68 95.03 650.68 95.03 650.63 95.02 650.4 94.94 650.11 94.8 649.27 94.13 649.17 94.04 649.17 94.04 649.05 93.89 648.98 93.74 648.79 93.61 648.6 93.57 648.59 93.57 648.47 93.54 648.47 93.54 647.71 93.59 647.3 93.68 646.92 93.84 646.82 93.82 646.81 93.82 646.79 93.81 646.59 93.77 646.35 93.67 645.12 92.38 644.67 92.24 644.42 92.16 643.85 91.99 643.81 91.98 643.33 91.93 642.45 92.2 642.17 92.21 642.17 92.21 642.17 92.21 642.12 92.19 641.9 92.1 640.94 91.25 640.04 90.84 639.64 90.72 639.48 90.67 639.48 90.67 639.42 90.66 639.06 90.61 637.84 90.6 637.68 90.63 637.52 90.69 637.36 90.79 636.34 91.65 636.14 91.77 635.98 91.84 635.84 91.87 635.67 91.86 635.66 91.86 635.66 91.86 635.63 91.84 635.45 91.76 635.17 91.55 634.84 91.09 634.81 90.84 634.82 90.65 634.95 90.39 635.08 89.63 635.06 89.42 634.99 89.17 633.53 87.07 633.46 86.9 633.44 86.73 633.45 86.53 633.63 85.18 633.62 85.01 633.58 84.71 633.6 84.57 633.66 84.39 633.8 84.13 634.93 82.57 635.21 82.06 635.28 81.86 635.35 81.73 635.43 81.61 636.17 81.11 637.4 80.54 637.87 80.39 638.09 80.28 638.22 80.15 638.25 80.02 638.22 79.87 638.15 79.68 638.1 79.48 637.94 77.44 637.91 77.27 637.63 76.47 637.62 76.47 637.61 76.46 636.96 76.22 636.93 76.22 630.61 75.43 627.48 75.49 624.47 75.88 624.45 75.87 624.44 75.87 624.4 75.85 622.54 74.72 622.54 74.72 622.53 74.71 622.45 74.7 621.4 74.51 619.78 75.2 619.77 75.18 619.77 75.17 619.75 75.14 619.14 74.11 619.06 73.87 618.93 73.6 618.73 73.42 618.44 73.21 618.43 73.2 618.04 73.01 618.02 73 617.64 72.88 617.62 72.87 617.08 72.78 616.79 72.77 615.82 72.85 615.62 72.83 614.91 72.68 614.87 72.66 614.73 72.61 614.72 72.6 614.71 72.6 614.58 72.51 614.34 71.98 614.23 71.78 613.91 71.5 613.89 71.49 613.51 71.27 612 70.41 611.61 70.12 611.44 69.95 610.83 69.49 606.27 66.96 605.97 66.7 605.79 66.48 605.71 66.21 605.67 65.89 605.67 65.51 605.93 62.96 606.01 62.81 606.14 62.66 607.06 61.92 607.2 61.73 607.23 61.55 607.14 61.39 606.97 61.21 606.94 61.19 605.98 60.66 605.5 60.4 605.49 60.4 605.47 60.38 604.94 60.01 604.25 59.41 604.15 59.27 604.07 59.13 603.96 59.04 603.95 59.04 603.94 59.04 603.86 59.02 603.81 59.01 603.58 59.16 603.18 59.58 602.96 59.74 602.77 59.85 602.54 59.93 602.2 59.99 601.68 60.02 601.17 59.98 600.42 59.77 600.38 59.75 600.04 59.61 599.96 59.57 599.63 59.39 599.63 59.39 598.9 59.09 598.75 59.04 598.51 58.98 598.21 58.93 593.31 59.12 592.94 59.19 592.52 59.32 590.65 60.26 590.48 60.41 590.2 60.74 590.06 60.87 589.68 60.92 589.38 60.93 587.3 60.57 582.66 60.11 582.56 60.08 577.78 58.38 575.75 57.66 575.75 57.66 579.33 52.3 579.37 52.13 579.34 52.01 578.96 51.21 578.88 50.82 578.56 50.46 577.02 49.36 576.86 49.17 576.77 49.01 576.72 48.84 576.52 48.44 576.42 48.13 576.42 47.88 576.48 47.61 576.55 47.4 576.68 47.19 577.95 45.84 578.04 45.54 577.97 45.26 577.6 44.73 577.51 44.55 577.51 44.38 577.64 43.62 578.18 41.6 578.33 41.27 578.53 40.98 578.83 40.62 579.22 40.23 579.63 39.92 580.28 39.5 580.99 39.3 581.56 39.21 582.02 39.19 582.59 39.23 583.89 39.67 584.19 39.67 584.46 39.58 585.52 38.34 585.76 38.15 586.69 37.61 587.43 37.34 588.15 37.17 588.47 37.04 589 36.74 590.82 34.97 591.25 34.69 591.65 34.51 593.17 34.23 593.55 34 593.88 33.62 594.02 33.38 594.06 33.12 594 32.54 593.99 31.31 594.12 30.64 594.19 30.42 594.47 30.2 595 30 595.96 29.86 597.44 29.88 598.66 29.74 598.87 29.65 599.03 29.48 599.09 29.11 599.04 28.84 598.87 28.52 598.71 28.3 598.62 28.09 598.62 27.92 598.77 27.75 599.07 27.59 601.68 26.77 602.02 26.58 602.32 26.35 602.71 25.89 602.87 25.54 603.02 24.92 603.16 24.68 603.81 23.87 604.26 23.22 604.31 23.06 604.31 22.91 604.19 22.51 603.43 20.86 603.22 20.25 603.19 19.15 603.13 18.9 603.12 18.7 603.22 18.53 603.46 18.42 604.4 18.32 606.04 17.99 606.6 17.77 608.06 16.83 608.3 16.74 608.57 16.79 608.58 16.79 609.08 17.07 609.85 17.68 609.87 17.71 610.12 17.82 610.34 17.85 611.58 17.64 612.94 17.55 613.77 17.61 614.2 17.6 615.08 17.42 620.09 15.89 620.77 15.94 621.96 16.13 624.92 16.91 625.21 16.94 626.27 16.84 626.85 16.86 627.06 16.92 627.45 17.08 627.73 17.09 628.01 17.02 628.7 16.73 628.9 16.71 628.91 16.71 629.11 16.85 629.53 17.39 629.82 17.69 630 17.83 630.03 17.86 630.25 17.96 630.55 17.98 631.86 17.94 632.21 18.01 632.77 18.23 633.03 18.26 633.3 18.22 633.85 17.95 634.82 17.23 635.12 17.12 635.49 17.15 635.87 17.26 636.85 17.65 637.11 17.67 637.4 17.59 638.37 17.06 638.55 17.02 639.1 17.06 640.65 17.4 641.67 17.73 642.65 17.91 642.91 17.88 643.23 17.76 643.34 17.48 643.33 17.2 643.27 16.97 643.26 16.78 643.3 16.59 643.51 16.15 643.54 15.92 643.5 15.69 643.49 15.67 643.39 15.29 643.3 14.98 643.3 14.98 643.29 14.97 642.99 14.69 642.4 14.27 642.36 14.25 639.64 12.76 639.6 12.72 638.95 12.15 638.89 12.13 638.29 11.84 637.76 11.66 635.94 11.39 635.57 11.28 635.31 11.16 635.21 11.1 635.08 11.01 634.79 10.75 634.66 10.52 634.65 10.51 634.65 10.49 634.52 9.9 634.66 8.94 634.66 8.9 637.67 9 640.68 9.45 642.21 9.96 646.24 12.01 647.71 12.31 649.17 12.76 650.59 12.76 653.5 11.99 653.97 11.5 654.21 9.81 654.53 9.12 655.24 8.69 656.04 8.52 659.28 8.85 660.46 8.5 662.87 6.92 666.98 4.83 668.26 3.98 670.3 3.52 671.36 3.47 672.32 3.72 672.51 3.83 672.67 3.98 673.56 5.04 674.53 5.73 675.32 5.54 675.65 3.98 675.85 3.6 675.9 3.24 675.81 2.91 675.56 2.62 676.52 2.22 679.68 1.58 681.48 1 682.24 1.14 682.94 1.92 684.27 2.87 687.88 2.94 689.45 3.97 689.46 3.97 690.87 5.7 691.25 6.3 691.54 7.79 691.81 8.26 692.47 8.04 692.78 7.57 693.21 6.15 693.69 5.53 694.4 5.12 695.26 4.82 696.96 4.46 698.81 4.45 703.03 3.97 703.94 4.11 704.64 4.44 706.04 5.45 707.71 6.2 713.53 7.19 715.4 7.83 716.71 8.89 717.53 10.37 717.87 12.26 717.96 14.28 718.31 16.13 719.37 17.33 722.36 17.44 722.67 17.1 722.81 16.59 723.11 16.11 726.19 15.17 730.1 15.8 733.98 17.31 737.03 19.06 739.94 21.18 741.18 22.42 746.19 30.15 746.2 30.19 746.41 30.99 746.72 32.19 745.8 36.1 745.81 38.06 746.19 38.8 747.43 40.05 747.93 40.71 748.05 41.58 747.42 41.99 746.53 42.32 745.87 42.96 745.82 43.49 746.23 44.37 746.19 44.91 745.94 45.3 745.58 45.55 743.14 46.83 742.49 47.33 742.14 48.13 742.42 49.8 743.52 51.37 745.03 52.57 746.57 53.14 750.37 53.34 751.77 54.01 752.99 55.8 753.44 57.68 753.64 59.72 754.15 61.47 755.52 62.47 756.69 62.53 759.02 62.01 760.17 61.9 761.16 62.08 761.95 62.31 762.71 62.3 764.52 61.25 765.39 61.26 766.26 61.39 767.19 61.25 767.55 60.96 768.15 60.1 768.62 59.8 769.15 59.66 769.7 59.59 770.81 59.56 771.97 59.26 773.8 57.73 774.7 57.96 775.18 59.55 774.48 63.56 775.45 65.18 777.1 65.94 780.67 67.02 782.26 68 783.44 69.35 784.05 69.92 784.94 70.31 785.62 70.36 Z" id="PAK-1111" data-name="Northern Areas"/>
<path d="M 471.6 286.99 471.99 289.14 471.76 289.71 471.51 289.77 469.37 289.88 469.05 289.94 468.63 290.05 467.5 290.53 466.63 290.73 464.88 291.52 464.62 291.78 464.51 292.02 464.5 292.24 464.62 293.03 464.95 294.02 465 294.42 464.99 294.78 464.91 295 464.49 295.75 464.25 295.92 463.98 295.89 463.84 295.81 463.65 295.57 463.22 293.93 463.14 292.77 463.22 290.79 463.99 286.61 463.86 283.3 463.94 282.81 464.55 280.69 464.59 280.16 464.56 279.83 464.45 279.55 464.29 279.29 463.75 278.61 463.58 278.17 463.43 277.5 463.5 276.77 463.47 276.27 463.32 275.75 463.15 275.49 462.96 275.28 462.82 275.22 462.68 275.24 462.57 275.36 462.4 275.57 462.11 275.88 461.55 276.66 461.35 276.78 461.15 276.83 460.93 276.85 460.73 276.92 460.56 277.02 460.26 277.41 459.98 277.9 459.66 278.31 459.42 278.5 459.16 278.64 458.95 278.72 458.76 278.75 457.94 278.61 457.58 278.61 457.39 278.7 457.22 278.83 457.09 278.97 456.94 279.09 456.73 279.11 456.44 279.03 456.03 278.69 455.78 278.6 455.58 278.63 455.47 278.77 455.41 278.92 455.32 279.21 455.09 279.72 454.99 280.2 454.9 280.33 454.44 280.73 454.24 280.97 454.11 281.28 453.98 281.8 453.93 282.21 453.98 283.07 453.96 283.26 453.86 283.34 453.68 283.36 453.28 283.14 453.1 282.9 452.99 282.6 452.96 282.07 452.08 276.79 451.36 275.6 450.85 275.35 450.52 275.35 450.03 275.28 448.41 274.69 448.03 274.48 447.85 274.28 447.67 273.77 447.64 273.49 447.65 273.16 447.74 272.62 448.14 271.51 448.25 270.9 448.45 267.77 448.63 266.65 448.45 263.3 448.49 262.6 448.4 259.86 448.54 258.77 448.87 257.88 449.15 255.31 449.09 255.08 448.93 254.9 448.73 254.86 448.51 254.88 448.31 254.98 448.17 255.11 447.52 256.17 447.04 256.71 446.81 256.9 446.6 257.06 446.31 257.2 446.03 257.3 445.82 257.35 445.63 257.34 445.4 257.27 445.12 257.13 444.82 256.93 444.53 256.66 444.21 256.25 444.06 255.92 443.98 255.66 443.96 255.41 444 255.19 444.1 254.95 445.09 253.47 445.29 253.11 445.37 252.63 445.33 252.38 445.18 252.18 444.98 252.04 444.03 251.57 443.39 251.18 442.84 250.74 442.41 250.26 442.3 249.9 442.37 249.54 442.71 248.96 443.17 247.95 443.25 247.28 443.09 247.07 441.66 246.9 437.95 247.58 437.5 247.6 435.24 248.36 434.42 248.94 433.16 250.51 432.38 251.26 431.54 251.91 430.7 252.44 429.02 252.82 428.16 252.69 420.78 253.15 419.81 253.36 419.11 253.34 418.8 252.89 417.46 252.8 417.64 252.52 417.51 251.88 415.95 248.14 414.99 243.48 415.03 242.41 415.41 240.33 415.43 238.25 415.77 236.14 415.83 235.07 415.65 234.03 414.37 231.28 413.85 229.16 414.09 227.13 415.01 225.26 416.51 223.67 417.5 223.13 419.54 222.53 420.41 221.91 423.01 218.62 423.61 217.65 423.76 217.05 423.26 215.42 423.17 214.55 423.05 214.18 422.7 213.96 422.28 213.81 421.85 213.57 421.5 213.25 421.24 212.86 421.16 211.9 421.69 211.24 423.36 210.18 424.57 208.76 425.84 207.94 426.13 207.71 426.62 206.28 425.7 200.95 426.17 200.11 426.64 199.27 427.95 197.87 429.59 196.97 431.57 196.75 432.58 196.77 434.18 196.52 434.65 196.63 435.07 196.8 435.51 196.87 436.41 196.69 438.72 195.28 440.64 195.01 443.93 196.4 446.01 196.27 449.7 194.38 450.18 194.29 451.61 194.39 452.21 194.17 452.59 193.73 454.24 191.11 454.82 190.91 455.99 191.24 457.06 191.32 458.02 190.86 466.37 184.96 466.72 183.34 465.94 181.81 463.35 179.36 463.09 179 462.73 178.21 462.38 177.95 461 177.57 460.62 177.35 459.94 176.6 459.5 175.72 459.32 174.77 459.41 173.84 460.41 170.73 460.44 169.54 460.25 169.21 459.87 168.99 459.06 168.66 458.61 168.34 458.4 168.09 458.1 167.33 457.69 165.38 457.2 164.85 455.1 165.16 452.45 164.21 451.7 164.12 450.52 163.98 449.78 163.6 449.27 162.65 448.92 161.69 448.49 160.95 447.32 159.51 446.89 158.73 446.23 156.86 445.79 156.22 444.35 155.02 444.05 154.28 444.69 153.57 445.57 152.82 445.66 152.09 445.49 151.35 445.6 150.57 446.42 149.88 447.21 149.65 447.74 149.5 450.35 149.17 452.01 149.26 462.65 152.37 465.44 152.59 467.13 153.31 468.03 153.52 472.01 153.66 476.07 154.39 477.58 154.44 484.19 153.65 490.84 153.71 494.33 153.15 495.21 151.7 495.42 151.07 495.91 150.96 497.24 151.31 498.15 151.37 498.85 151.18 499.43 150.74 499.99 150.07 501 149.78 503.42 149.36 504.2 148.75 504.43 147.82 504.26 147.04 504.21 146.23 504.76 145.25 506.13 143.94 506.44 143.28 506.51 142.1 506.36 141.11 505.89 139.39 505.9 138.49 507.34 135.06 507.13 133.85 503.63 132.22 502.09 131.01 500.7 129.6 499.68 128.33 499.21 127.41 498.93 126.3 499 125.22 499.57 124.35 500.3 124.08 500.42 124.03 501.46 124.02 503.46 124.28 504.36 123.92 504.89 122.93 505.05 121.73 504.87 120.71 504.5 119.61 504.57 118.86 505.09 118.28 508.55 115.95 510.45 115.12 511.12 114.58 513.71 111.52 514.45 109.84 515.37 108.33 517.12 107.22 523.04 105.24 523.17 105.37 523.89 106.4 525.54 108.13 525.67 108.22 526.63 108.65 527.71 108.84 528.22 108.99 528.57 109.04 528.64 109.06 528.7 109.14 528.78 109.27 528.87 109.73 528.89 109.77 528.94 109.87 529.08 110.06 529.12 110.14 529.18 110.28 529.2 110.38 529.22 110.62 529.24 110.68 529.25 110.73 529.37 110.97 529.54 111.22 529.68 111.66 529.68 111.7 529.68 111.89 529.65 112.15 529.65 112.26 529.74 112.42 530.62 113.07 531.26 113.33 531.65 113.42 532 113.37 534.11 112.39 534.86 112.18 535.16 112.12 535.45 112.11 537.21 112.34 537.54 112.44 537.87 112.57 538.52 112.74 538.78 112.77 539.01 112.76 539.3 112.71 539.48 112.79 539.71 112.96 539.95 113.46 540.14 113.72 540.45 114.07 540.42 114.2 540.15 114.32 539.88 114.38 539.65 114.5 539.17 115.1 539.03 115.24 538.88 115.29 538.56 115.33 538.39 115.41 538.32 115.53 538.42 115.8 538.49 115.93 538.56 116.02 538.57 116.06 538.59 116.1 538.66 116.4 538.72 116.83 538.71 117.4 538.41 118.91 537.34 119.59 537.21 119.59 537.16 119.57 537.07 119.54 536.84 119.38 536.77 119.35 536.73 119.34 536.68 119.34 536.64 119.35 536.25 119.65 536.14 119.72 535.4 120.4 535.11 120.61 535 120.64 534.95 120.66 534.9 120.68 534.86 120.71 534.73 120.8 534.57 120.83 534.44 121.07 534.27 121.48 533.82 123.03 533.78 123.35 533.84 123.83 533.63 124.08 532.65 124.98 533.37 126.91 533.36 126.95 533.29 127.1 533.29 127.14 533.51 127.63 533.57 127.87 533.57 127.93 533.5 128.17 533.5 128.25 533.5 128.31 533.5 128.38 533.54 128.51 533.62 128.55 533.76 128.6 534.11 128.65 534.27 128.66 534.38 128.64 534.5 128.59 534.52 128.59 534.55 128.59 534.6 128.59 534.79 128.82 535.22 129.87 534.82 129.98 534.61 130.09 534.47 130.2 534.39 130.25 534.31 130.29 534.1 130.33 534.06 130.34 533.97 130.39 533.63 130.68 533.53 130.75 533.47 130.83 533.44 130.93 533.34 131.39 533.26 131.54 533.24 131.59 533.24 131.65 533.25 131.72 533.27 131.78 533.3 131.82 533.42 131.94 533.44 131.98 533.46 132.01 533.39 132.09 533.25 132.18 532.88 132.36 532.7 132.42 532.55 132.45 532.28 132.43 532.17 132.45 531.86 132.53 531.83 132.6 531.8 132.7 531.72 133.16 531.68 133.24 531.68 133.28 531.67 133.34 531.75 133.7 531.75 133.87 531.73 133.94 531.68 133.98 531.59 134 531.39 133.95 531.26 133.91 531.18 133.87 531.13 133.83 530.92 133.63 530.75 133.5 530.67 133.47 530.62 133.46 530.56 133.46 530.42 133.45 530.34 133.43 530.14 133.34 530.1 133.34 530.04 133.36 530 133.38 529.36 133.99 529 134.25 528.9 134.3 528.74 134.39 528.69 134.44 528.65 134.52 528.61 134.64 528.62 134.86 528.62 134.97 528.55 135.09 528.41 135.24 527.48 135.91 527.38 136 527.37 136.06 527.37 136.16 527.44 136.35 527.48 136.43 527.54 136.52 527.57 136.56 527.57 136.59 527.26 137.4 527.25 137.51 527.28 137.54 527.32 137.59 527.37 137.62 527.42 137.65 527.51 137.67 527.54 137.69 527.57 137.72 527.59 137.77 527.6 137.83 527.59 137.9 527.42 138.41 527.25 138.58 525.83 139.55 525.39 140.25 523.81 141.31 523.5 141.48 523.41 141.54 523.37 141.58 522.53 142.05 522.27 142.26 522.28 142.3 522.26 142.34 522.15 142.48 522.03 142.58 518.25 143.46 518.06 143.63 517.96 143.76 517.94 143.81 517.92 143.86 517.93 143.93 517.99 144.16 518 144.23 518 144.3 517.99 144.35 517.87 144.62 517.9 144.68 517.97 144.75 518.2 144.89 518.36 144.95 518.49 145 518.64 145.02 518.88 145.09 519.01 145.15 519.41 145.43 519.66 145.54 519.73 145.67 519.77 145.87 519.81 146.37 519.8 146.58 519.75 146.74 519.7 146.78 519.51 146.89 519.34 147.03 519.23 147.14 519.2 147.19 519.18 147.26 519.14 147.49 519.18 147.57 519.8 148.23 519.86 148.41 520.09 149.42 520.15 149.91 520.02 150.22 519.79 150.65 519.74 150.77 519.72 150.86 519.69 151.33 519.7 151.38 519.65 151.83 519.69 152.07 519.79 152.43 520.15 153.08 520.47 153.36 520.89 153.62 521.28 153.98 521.65 154.4 522.03 155.05 522.27 156.13 522.29 156.44 522.14 157.43 522.14 157.58 522.15 157.72 522.25 157.91 522.41 158.1 523.07 158.6 524.9 159.72 525.4 160.12 525.55 160.29 525.69 160.48 525.76 160.71 525.78 160.97 525.69 161.82 525.72 162.21 525.77 162.48 526.18 163.82 526.47 164.33 526.59 164.49 526.76 164.59 526.98 164.66 527.28 164.71 527.83 164.75 528.28 164.74 530.57 164.39 533.34 163.17 534.89 162.28 535.55 161.7 536.54 160.22 536.77 159.65 537.02 159.3 537.19 159.19 537.38 159.14 537.59 159.27 537.85 159.53 538.28 160.6 538.48 160.97 538.73 161.23 539.3 161.66 539.69 161.82 540.04 161.93 541.65 162.17 542.93 162.2 543.12 162.28 543.27 162.41 543.39 162.69 543.45 162.89 543.28 163.29 543.12 163.57 541.6 165.41 541.35 165.81 541.08 166.18 540.03 167.2 539.91 167.39 539.85 167.55 539.88 167.69 539.93 167.82 540.07 167.94 541.78 168.89 542.3 169.25 542.41 169.36 542.47 169.49 542.45 169.65 542.38 169.82 542.26 169.97 542.08 170.1 541.86 170.21 541.39 170.4 539.67 170.88 539.11 171.13 538.46 171.56 535.64 172.99 534.3 173.5 533.26 173.6 531.22 173.39 530.07 173.04 529.61 172.84 529.28 172.66 528.95 172.33 528.91 172.17 528.97 171.98 529.13 171.79 529.38 171.61 529.94 171.4 531.62 170.92 532.11 170.72 532.57 170.47 532.79 170.3 532.93 170.13 533 169.95 533 169.74 532.96 169.54 532.85 169.31 532.76 169.17 532.6 169.02 532.45 168.91 532.21 168.86 531.86 168.86 531.29 168.98 530.81 169.14 524.51 168.77 523.8 168.63 523.52 168.61 523.17 168.62 522.08 168.88 519.99 169 519.46 169.14 519.07 169.32 518.72 169.63 518.46 169.69 518.12 169.68 517.52 169.46 517.22 169.26 516.82 168.91 516 168.46 513.62 167.43 512.47 166.76 511.67 166.06 511.57 165.93 511.33 165.36 511.19 165.17 511.02 165.05 510.77 164.99 510.52 164.98 510.22 165 509.99 164.93 509.24 164.45 508.88 164.3 508 164.08 507.78 164.07 507.58 164.13 507.5 164.4 507.46 166.41 507.52 166.67 508.22 168.04 508.26 168.63 506.44 169.2 505.83 169.51 505.66 169.63 505.37 169.9 505.28 170.04 505.23 170.2 505.25 170.34 505.32 170.48 505.45 170.58 505.64 170.67 505.85 170.74 506.1 170.85 506.28 170.96 506.36 171.14 506.3 171.27 506.05 171.4 504.13 171.8 503.52 171.99 503.17 172.17 502.69 172.53 502.17 172.86 501.12 173.24 500.73 173.29 492.84 172.64 492.03 172.4 490.4 171.48 489.54 171.57 489.26 171.74 488.99 172.04 488.3 173.46 488.1 174.19 488.07 174.35 488.06 174.52 488.07 174.68 488.18 175.18 488.21 175.6 488.18 175.8 488.04 176.07 487.84 176.25 487.46 176.33 487.2 176.32 486.97 176.34 485.57 176.81 484.7 176.93 483.63 176.97 483.42 176.99 483.24 177.06 482.87 177.32 481.46 178.67 480.98 178.98 480.7 179.09 480.46 179.13 480.17 179.14 479.47 179.11 478.91 179.14 478.37 179.25 477.67 179.32 476.88 179.47 476.59 179.6 475.92 179.98 475.79 180.17 475.7 180.32 475.64 180.51 475.56 180.87 475.54 181.04 475.65 181.25 475.89 181.5 476.52 181.94 478.16 182.77 478.69 182.94 479 183.42 479.45 185.24 480.66 186.71 481.37 186.98 481.79 187.1 482.21 187.16 482.79 187.16 483.04 187.21 484.64 187.73 484.9 187.77 485.5 187.8 485.82 187.86 486.04 187.94 486.15 188.03 485.86 188.83 485.84 188.98 485.87 189.12 485.94 189.24 486.08 189.34 486.63 189.45 488.2 189.6 489.28 189.57 489.47 189.6 490.11 189.77 490.29 189.79 490.79 189.77 491.06 189.79 491.32 189.85 491.99 190.07 492.96 190.26 494.17 190.62 494.41 190.74 494.63 190.95 494.77 191.16 494.82 191.38 494.76 191.68 494.01 192.66 490.85 195.64 489.7 195.86 489.31 196.02 488.95 196.25 488.17 197.09 487.76 197.41 487.13 197.66 486.68 197.78 485.54 197.96 484.57 198.26 483.83 198.39 483.54 198.48 483.02 198.57 482.8 198.57 482.59 198.55 482.35 198.55 481.3 198.42 480.88 198.46 480.63 198.46 480.34 198.43 479.13 198.09 478.9 198.12 478.61 198.21 477.89 198.68 477.23 199.25 476.88 199.43 476.42 199.6 476.28 199.75 475.14 202.99 474.86 203.53 473.5 205.13 472.01 207.5 471.55 208.09 471.22 208.41 471.06 208.4 470.87 208.41 470.66 208.46 470.51 208.78 470.42 209.05 470.42 211.42 470.59 212.84 470.54 213.17 470.51 213.5 470.32 214.28 470.35 214.41 470.48 214.48 470.93 214.55 471.18 214.61 471.94 215.64 480.37 224.65 480.76 225.59 480.86 225.94 480.88 226.1 480.81 226.32 480.61 226.51 480.1 226.77 479.76 226.79 479.46 226.74 476.18 225.15 475.76 225.03 475.41 224.99 475.25 225 475.08 225.02 474.91 225.07 474.7 225.19 474.46 225.49 474.12 226.07 473.65 227.17 473.42 227.93 473.17 228.48 472.88 228.96 471.79 230.03 470.18 231.2 469.96 231.4 468.96 232.83 468.72 233.09 467.43 234.05 466.34 234.66 465.84 234.87 465.64 234.91 465.41 234.95 465.19 234.95 464.94 234.91 464.34 234.74 464.16 234.72 462.61 234.86 462.44 234.9 462.26 234.96 461.96 235.11 461.71 235.29 461.44 235.54 460.9 236.57 460.31 237.33 459.94 237.7 459.69 237.88 457.79 238.95 456.63 239.8 456.12 240.26 455.53 240.97 455.38 241.36 455.23 242.1 455.21 242.26 455.24 242.4 455.39 242.64 456.74 244.42 457.52 246.1 457.94 247.89 458.45 248.8 460.38 250.21 462.26 255.54 462.36 256.03 462.44 257.37 462.42 257.73 462.28 258.5 462.12 259.11 462.09 259.29 462.58 262.12 462.72 262.41 463.49 263.51 471.6 286.99 Z" id="PAK-1112" data-name="F.A.T.A."/>
<path d="M 596.04 164.84 591.37 166.88 590.26 168.07 590 169.39 590.61 170.66 591.43 171.63 592.46 172.38 593.64 172.53 594.77 172.34 595.82 171.87 596.61 171.34 598.31 170.49 600.11 169.94 601.08 169.75 601.89 169.74 602.87 170 603.49 170.44 604.07 171.1 604.58 171.93 604.94 172.86 604.86 173.6 604.54 174.26 604.36 174.81 604.74 175.28 605.35 175.65 606.65 176.22 607.67 176.42 608.6 176.22 608.77 176.1 608.84 176.02 608.93 175.89 609.51 175.26 611.02 173.91 611.36 173.51 613.19 169.82 613.75 169.16 615.03 168 615.39 167.39 615.39 166.83 614.99 166.34 613.11 165.12 611.57 163.7 610.87 163.17 610.21 162.8 606.25 161.29 605.82 161.05 606.75 160.75 609.1 160.85 610.26 160.19 611.46 159.34 612.99 158.83 613.85 158.36 614.97 157.94 615.21 157.78 615.36 157.56 615.42 157.34 615.45 157.13 615.61 156.78 615.9 156.35 617.38 154.62 617.44 154.46 617.39 154.32 617.25 154.12 617.14 153.85 617.25 153.39 617.55 153.11 617.82 152.96 618.12 152.9 618.44 152.89 618.71 152.96 619.27 153.27 619.46 153.32 619.75 153.34 620.15 153.27 620.49 153.08 620.73 152.86 621.62 151.59 621.9 151.36 622.18 151.21 622.49 151.15 623.44 150.79 623.84 150.53 624.16 150.53 624.45 150.68 624.67 150.88 625.15 151.04 628.16 155.83 628.29 157.49 627.54 161.1 627.99 162.39 628.59 163.12 628.94 163.95 629.12 164.84 629.17 165.77 628.94 166.42 628.04 168 627.99 168.46 628.09 168.78 627.83 169.46 627.99 169.82 629.34 170.82 629.88 171.46 630.4 172.33 630.77 173.24 630.88 174.03 630.68 174.51 630.36 174.65 630.05 174.75 629.88 175.07 629.89 175.54 630.27 177.17 630.43 177.54 630.54 177.93 630.51 178.4 630.26 178.57 630.17 178.59 629.8 178.66 629.78 178.68 629.36 178.92 628.88 180.39 628.31 180.97 627.87 181.59 627.99 182.47 628.51 183.15 629.08 183.78 629.31 184.26 629.17 184.82 629.04 185.15 628.83 185.68 628.9 186.59 629.11 187.54 629.17 188.52 629 188.64 628.66 188.78 628.58 188.81 628.32 188.89 628.16 188.88 628.17 188.92 628.23 189.38 628.35 189.45 628.55 189.41 628.88 189.43 628.89 189.43 629.15 189.32 629.22 189.29 629.62 189.21 629.88 189.22 629.91 189.36 629.94 189.65 630.02 189.98 630.18 190.22 631.16 190.76 631.58 191.07 631.86 191.57 631.84 192.14 631.61 192.69 631.34 193.06 631.39 193.62 630.26 194.53 631.15 195.58 632.74 196.48 635.65 197.58 637.21 198.42 637.68 199.16 638.31 199.45 639.29 199.92 640.11 200.01 640.44 199.91 640.47 199.9 641.35 199.5 641.44 199.46 641.93 199.34 642.64 199.25 644.29 199.19 645.21 199.39 646.05 199.77 646.44 200.1 646.7 200.36 646.86 200.58 646.89 200.64 647.72 201.85 648.02 202.19 664.46 209.38 664.41 209.44 663.95 210.03 664.43 210.95 665.07 211.67 665.9 212.14 666.96 212.31 667.88 212.1 669.48 211.27 670.46 211.2 671.28 211.57 672.71 212.8 673.52 213.17 674.51 213.21 677.11 212.85 678.08 212.59 679.09 211.97 679.49 211.23 679.69 210.38 680.17 209.43 681.04 208.67 681.93 208.51 682.6 208.98 682.79 210.08 682.45 211.14 681.21 213.21 680.85 214.3 680.87 215.38 681.22 217.38 681.16 218.36 680.76 219.2 680.22 220.05 679.86 220.95 680 221.93 681.48 225.37 682.8 226.7 684.55 227.22 686.45 227.13 688.22 226.63 690.13 226.52 693.52 227.99 695.56 227.81 697.64 227.09 699.26 226.95 700.8 227.48 702.64 228.77 704.3 229.63 707.76 230.34 709.43 231.19 712.79 233.54 714.2 234.52 715.48 235.9 715.78 237.02 715.27 237.99 713.69 239.53 713.29 240.36 712.78 242.04 712.61 242.58 711.07 242.48 710.4 242.58 709.25 242.91 707.74 243.57 706.62 244.51 706.67 245.63 706.04 245.58 704.91 245.31 704.49 245.47 703.96 245.92 703.53 246.09 703.13 246.06 700.11 245.08 699.21 245.25 699.58 246.64 699.09 246.67 697.88 246.59 697.42 246.8 697.04 247.28 696.82 247.7 696.52 248.04 695.91 248.32 694.72 248.44 693.61 248.34 692.64 248.49 691.85 249.33 689.66 248.66 688.8 249.73 688.37 251.44 687.45 252.72 686.43 252.91 683.25 252.36 681.85 254.63 681.22 255.05 680.42 255.3 676.71 257.76 675.96 258.43 675.48 259.22 675.32 260.3 675.3 260.95 675.2 261.18 674.99 261.34 674.61 261.8 674.52 262.04 674.38 262.62 674.27 262.84 674.13 262.95 673.74 263.11 673.64 263.18 673.11 263.97 672.96 264.13 673.45 264.69 676.21 269.01 677.64 273.67 679.12 275.62 679.25 276.56 678.99 277.48 678.4 278.27 677.6 279.13 677 279.99 675.06 284.22 674.72 285.36 674.71 287.56 673.92 289.52 673.79 290.52 673.95 291.47 674.21 292.17 674.63 292.79 675.29 293.48 676.09 293.79 678.25 293.45 679.24 293.48 679.97 293.86 680.87 294.57 681.3 295.03 678.45 296.37 677.39 297.05 676.64 297.92 676.63 298.94 675.88 299.54 675.19 300.32 674.43 301 673.45 301.3 672.35 301.32 671.43 301.45 670.6 301.81 669.75 302.49 669.21 303.34 669 304.03 668.61 304.42 667.55 304.35 666.27 304.02 665.72 303.98 665.09 304.1 664.57 304.4 664.16 304.84 663.82 305.36 664.19 306.25 663.64 307.12 662.64 307.79 661.67 308.05 661.49 308.25 661.94 309.23 661.99 309.58 661.62 309.94 660.87 310.42 660.46 310.77 659.45 312.08 658.64 312.7 658.27 313.09 657.95 314.08 657.23 314.56 657.07 314.96 656.91 315.66 656.52 315.92 655.39 316.12 654.34 316.58 653.57 317.02 652.9 317.58 652.17 318.33 651.67 319.27 651.72 320.11 651.88 321.04 651.69 322.23 651.02 322.86 649.07 323.34 648.66 323.73 648.35 324.38 645.85 327.42 645.37 327.76 644.75 327.86 643.92 327.61 644.03 327.93 644.14 328.63 644.23 328.96 643.32 328.87 642.34 329.32 641.55 330.05 641.23 330.82 641.09 331.02 643.52 332.16 644.51 333.44 645.63 335.54 646.34 337.7 646.23 338.35 646.11 339.13 637.93 345.09 636.03 346.01 627.08 347.78 618.58 351.24 617.84 351.98 615.73 357.99 613.63 363.97 611.08 371.22 608.37 375.81 605.95 379.9 602.11 386.41 599.05 390.03 597.78 391.89 596.18 395.3 595.58 396.03 594.76 396.53 588.41 399.45 582.79 402.03 576.25 405.04 569.18 408.28 567.82 409.11 564.16 413.05 562.99 415.1 560.1 424.98 559.11 427.34 557.75 429.47 555.83 431.25 549.78 435.66 545.85 440.21 545.29 441.2 545.02 442.11 544.45 448.13 544.18 448.88 543.51 449.34 535.66 451.48 528.73 453.36 524.61 453.67 520.71 453.37 516.45 453.7 512.26 454.51 508.54 455.64 502.47 458.31 496.87 460.79 492.82 461.59 489.38 461.18 486.85 459.64 484.95 457.18 483.42 454.04 483.27 453.09 483.47 451.26 483.05 450.26 482.46 449.64 481.07 448.64 479.44 446.97 478.21 446.1 476.83 445.46 475.37 445.06 474.34 444.93 473.39 445.15 471.48 445.82 469.58 446.09 468.71 446.33 467.82 446.87 465.06 449.59 461.67 451.77 461.18 452.22 461.16 452.21 455.53 449.86 452.47 448.21 451.68 447.65 450.75 446.8 447.69 442.78 446.92 441.41 443.86 433.31 443.7 432.38 443.59 432.02 443.36 431.6 442.91 431.09 442.68 430.72 442.59 430.32 442.59 428.65 442.54 428.31 442.34 427.9 442 427.43 441.38 427.01 440.95 426.81 440.55 426.68 439.78 426.05 438.69 423.93 437.3 423.58 432.65 423.06 432.37 422.96 432.2 422.81 432.12 422.62 432.13 422.25 432.1 422.07 432.02 421.84 431.86 421.67 431.64 421.51 431.36 421.39 430.09 421.05 428.75 420.88 427.51 420.87 426.83 420.93 421.59 422.93 419.02 419.38 418.95 419.14 418.93 418.86 418.99 418.46 419.17 418.12 419.43 417.79 419.71 417.58 419.97 417.43 421.85 416.82 422.69 416.44 423.06 416.19 423.4 415.92 424.69 414.43 425.84 412.75 428.54 407.15 428.78 406.24 428.69 405.91 428.56 405.67 428.4 405.5 427.88 405.07 427.58 404.78 427.5 404.65 427.43 404.53 427.36 404.36 427.34 403.97 427.4 403.36 427.65 402.11 427.98 401.26 428.25 400.7 428.49 400.41 428.68 400.24 430.04 399.37 430.72 398.82 431.8 397.67 434.23 394.21 434.87 393.6 435.22 393.32 435.59 393.09 436.24 392.8 436.54 392.62 436.9 392.21 437.46 391.25 439.2 383.84 439.28 383.03 439.23 382.5 439.05 382.3 438.83 382.23 438.59 382.25 438.36 382.31 438.14 382.41 437.95 382.53 437.61 382.81 437.3 383.12 437.14 383.25 436.96 383.32 436.77 383.32 436.59 383.24 436.44 383.11 435.42 381.74 435.34 381.37 435.32 380.8 435.49 379.56 435.52 378.85 435.48 378.35 435.37 378.1 435.25 377.91 435.1 377.75 434.77 377.46 434.38 377.22 434.15 377.11 433.61 376.97 431.51 376.79 431.25 376.72 431.01 376.63 430.83 376.45 430.71 376.15 430.67 375.57 432.16 369.5 432.01 367.88 432.03 366.45 432.18 365.81 432.41 365.24 432.99 364.39 433.24 364.13 433.45 363.97 433.65 363.85 434.52 363.48 435.44 363.18 438.43 362.75 439.48 361.96 441.06 359.76 441.32 359.49 442.53 358.8 443.45 358.15 443.92 357.66 444.37 356.91 446.74 351.68 449.33 347 450 345.17 450 343.99 450.06 343.49 450.26 342.56 450.51 341.99 450.75 341.61 451.48 340.96 452.07 340.54 452.38 340.17 453.66 338 453.93 337.07 453.98 336.45 453.8 336.19 453.55 336.05 453.28 335.97 452.7 335.89 452.18 335.89 451.97 335.91 451.8 335.95 451.46 336.11 451.28 336.24 451.11 336.39 450.95 336.56 450.47 337.31 450.32 337.44 450.14 337.49 449.98 337.44 449.85 337.31 449.77 337.14 449.74 336.98 449.71 336.63 449.73 335.6 449.68 335.38 449.56 335.21 449.37 335.07 448.84 334.88 448.59 334.74 448.4 334.47 448.42 334.14 448.58 333.73 448.93 333.06 449.85 330.04 450.28 327.35 450.83 326.04 455.08 319.77 455.36 319.19 455.48 318.73 455.41 318.41 455.3 318.15 454.8 317.39 454.7 317.19 454.67 316.76 454.76 316.13 455.11 314.76 455.46 314.06 455.81 313.66 456.13 313.55 457.32 313.48 457.56 313.43 457.75 313.31 461.8 308.52 462.1 308.4 462.99 308.31 463.29 308.22 463.58 307.92 463.64 307.45 463.54 306.76 462.99 305.34 463.65 295.57 463.84 295.81 463.98 295.89 464.25 295.92 464.49 295.75 464.91 295 464.99 294.78 465 294.42 464.95 294.02 464.62 293.03 464.5 292.24 464.51 292.02 464.62 291.78 464.88 291.52 466.63 290.73 467.5 290.53 468.63 290.05 469.05 289.94 469.37 289.88 471.51 289.77 471.76 289.71 471.99 289.14 471.6 286.99 472.42 287.08 472.91 286.83 473 286.74 473.11 286.51 473.23 286.19 473.37 285.88 473.64 285.5 474.23 284.84 474.62 284.58 475.03 284.48 475.81 284.59 476.22 284.58 476.96 284.48 477.34 284.37 477.75 284.15 478.91 283.33 479.44 283.16 479.97 283.12 480.87 283.34 482.52 284.01 483.02 284.14 483.71 284.24 484.18 284.19 486.38 283.38 487.05 283.23 487.46 283.18 487.8 283.24 488.07 283.34 488.3 283.49 488.86 284.02 489.24 284.27 490.19 284.67 490.92 283.4 492.04 282.39 492.23 282.09 492.29 281.8 492.25 281.6 492.07 281.2 492.49 279.67 492.64 279.5 492.87 279.29 493.62 279.08 494.28 278.75 494.58 278.48 494.75 278.24 494.89 277.65 495.03 276.43 494.99 276.13 494.53 275 494.63 274.66 494.85 274.44 495.23 274.31 495.47 274.17 495.46 273.97 495.28 273.7 494.65 273.06 494.41 272.75 493.95 271.95 496.36 266.46 496.44 266.01 496.41 265.72 496.17 264.92 496.17 264.2 496.49 263.62 497.37 262.49 499.5 258.82 499.84 257.85 500.31 255.85 500.78 254.93 501.49 254.19 502.26 253.55 502.95 252.85 503.82 250.78 504.58 249.95 506.39 248.4 506.66 247.98 506.76 247.56 506.77 246.63 506.9 245.91 507.21 245.27 507.64 244.69 509.4 242.97 509.88 242.66 511.31 242.04 511.75 241.75 512.39 240.95 512.78 239.96 513.3 237.91 513.53 237.37 514.51 235.97 514.74 235.49 514.83 235.03 514.85 234.03 515.09 233.17 515.6 232.37 517.45 230.24 517.9 229.46 518.2 228.61 518.35 225.2 518.05 224.65 517.85 224.52 517.76 224.33 517.75 223.99 517.7 223.76 517.53 223.58 517.15 223.44 516.76 223.42 516.5 223.47 516.31 223.62 516.13 223.95 516.07 224.09 515.99 224.22 515.85 224.31 515.64 224.4 515.38 224.46 515.2 224.58 515.08 224.76 514.9 225.11 514.78 225.3 514.56 225.54 514.35 225.64 514.12 225.61 513.91 225.47 513.64 225.21 513.38 224.75 513.22 224.08 513.93 222.01 514 221.14 513.84 220.86 513.67 220.74 513.42 220.69 513.21 220.7 511.04 221.07 510.66 221.06 510.29 221 509.68 220.75 509.4 220.45 509.21 220.01 508.98 218.62 508.46 216.86 508.41 216.45 508.42 215.49 508.21 214.53 506.49 211.41 506.35 210.93 506.51 210.71 506.67 210.6 507.15 210.43 507.7 209.97 507.88 209.22 508.25 205.6 508.46 204.78 508.77 204.12 509.96 202.48 510.38 202.15 510.76 201.91 511.34 201.71 512.09 201.37 512.58 201.08 515.75 200 515.92 199.99 516.08 200.03 516.42 200.26 516.65 200.36 517.24 200.5 517.41 200.58 517.55 200.7 517.76 200.79 518.16 200.86 518.7 200.62 519.11 200.49 519.44 200.45 519.85 200.47 520.24 200.42 520.91 200.13 521.38 200.02 521.95 200.01 522.56 199.87 522.93 199.71 523.22 199.46 523.83 198.65 524.04 198.28 524.13 197.92 524.13 197.71 524.06 197.47 523.92 197.24 523.7 196.98 523.49 196.91 523.28 196.91 523.07 196.96 522.91 196.97 522.75 196.97 522.67 196.75 522.65 196.3 523.15 194.13 523.09 193.91 522.67 193.43 522.25 192.75 522.21 192.58 522.2 192.41 522.21 192.16 522.19 191.97 522.14 191.73 522.06 191.57 521.9 191.43 521.67 191.26 521.43 190.87 521.34 190.27 521.61 189.17 521.74 188.78 522.16 188.48 522.58 188.75 522.76 189.06 523.07 189.3 523.44 189.53 524.79 190.06 525.23 190.16 525.65 190.16 527.63 189.56 527.97 189.65 529.24 190.34 529.83 190.79 530.2 191.18 530.35 191.47 530.42 191.82 530.48 193.3 530.55 193.66 530.66 193.95 530.98 194.52 531.41 195.09 532.26 196.03 532.77 196.46 533.23 196.76 535.61 197.63 536.19 197.08 536.14 196.01 536.23 195.2 536.63 194.3 537.06 193.78 537.58 193.27 538.04 192.61 538.28 191.61 538.12 190.54 537.6 189.85 536.91 189.27 536.23 188.55 536.63 188.55 535.76 188.03 535.55 187.24 535.83 186.39 536.43 185.71 536.83 184.97 536.71 184.11 536.74 183.16 537.61 182.16 540.36 180.96 541.15 180.79 542.58 180.85 543.02 180.79 543.45 180.53 543.65 180.21 543.86 179.93 544.36 179.81 544.1 179.26 544.15 178.82 544.44 178.41 544.87 177.94 545.08 177.61 545.31 176.94 545.54 176.6 547.65 175.27 548.06 174.74 548.19 173.71 548.06 173.08 548.07 172.56 548.98 171.2 549.1 168.65 549.36 167.94 550.33 166.02 550.61 165.63 550.87 165.4 551.45 163.91 551.94 163.53 552.98 163.19 553.47 162.94 554.46 161.85 554.68 161.76 556.02 162.26 557.89 162.38 558.84 162.59 559.55 162.94 560.13 162.57 560.75 162.42 561.36 162.53 561.91 162.94 562.26 161.03 561.5 156.28 562.21 154.47 562.93 154.15 567.53 153.33 568.44 152.92 570.01 151.75 571.58 150.85 573.4 150.4 575.46 150.3 576.24 150.37 577.05 151.96 577.51 153.14 577.87 153.52 578.21 153.81 578.5 153.91 580.67 154.13 581.49 154.31 582.17 154.54 582.46 154.74 582.61 154.98 582.56 155.15 582.41 155.31 582.22 155.42 581.82 155.59 581.49 155.81 580.92 156.36 580.78 156.56 580.71 156.77 580.69 157.07 580.79 157.28 581.03 157.5 582.12 158.25 582.51 158.45 582.86 158.54 583.54 158.44 584.13 158.28 584.35 158.19 584.56 158.05 584.75 157.84 585 157.5 585.43 156.78 585.63 156.52 585.86 156.36 586.41 156.23 586.6 156.16 586.7 156.04 586.7 155.9 586.63 155.59 586.63 155.45 586.7 155.28 586.81 155.13 587.82 154.2 588.12 154.03 588.47 153.9 588.7 153.97 589 154.15 589.23 154.35 589.48 154.62 589.61 154.83 589.63 155 589.31 155.55 589.23 155.75 589.2 155.94 589.26 156.13 589.45 156.36 590.33 157.17 591.42 157.08 591.59 157.2 591.81 157.46 591.85 157.72 591.88 157.92 591.85 158.6 591.8 158.79 591.71 158.95 591.56 159.09 591.17 159.32 590.94 159.61 590.98 159.78 591.16 159.93 591.39 160.01 591.58 160.05 591.82 160.06 592.04 160.01 592.34 159.89 592.66 159.87 593.01 160 593.41 160.2 593.52 160.39 593.52 160.57 593.45 160.76 593.35 160.91 593.21 161.06 593 161.2 592.66 161.36 592.35 161.47 592.07 161.68 591.87 162.01 591.75 162.79 591.81 163.15 591.96 163.38 592.2 163.45 592.55 163.45 593.65 163.33 593.89 163.4 594.43 163.69 594.73 163.78 595.03 163.79 595.7 163.74 596.02 163.78 596.12 163.9 596.08 164.08 595.98 164.23 596.04 164.84 Z" id="PAK-1113" data-name="Punjab"/>
<path d="M 327.66 641.35 328.04 641.48 328.03 641.48 327.04 641.87 326.83 642.56 326.49 643.21 325.16 643.5 324.3 643.21 323.51 642.49 323.12 641.89 322.92 641.6 322.63 640.78 323.36 641.45 324.49 641.47 326.69 640.78 327.66 641.35 Z M 438.69 423.93 439.78 426.05 440.55 426.68 440.95 426.81 441.38 427.01 442 427.43 442.34 427.9 442.54 428.31 442.59 428.65 442.59 430.32 442.68 430.72 442.91 431.09 443.36 431.6 443.59 432.02 443.7 432.38 443.86 433.31 446.92 441.41 447.69 442.78 450.75 446.8 451.68 447.65 452.47 448.21 455.53 449.86 461.16 452.21 461.18 452.22 456.89 456.16 456.34 457.06 452.7 466.56 451.55 468.01 447.34 471.65 444.39 475.93 438.6 480.85 435.43 482.84 430.97 486.86 428.94 489.95 427.62 493.67 426.56 499.74 425.53 505.6 425.91 507.63 427.45 509.18 435.1 512.01 437.11 513.22 440.66 516.08 442.79 516.8 454.63 516.37 456.48 516.8 458.25 517.68 459.66 519.28 459.89 521.09 459.6 525.14 459.78 527.1 459.61 527.95 459.16 528.97 458.89 529.93 458.96 530.89 459.34 532.87 459.11 534.67 458.37 536.49 455.73 540.47 455.51 541.29 455.46 543.04 455.04 545.6 455.05 546.35 455.97 548.83 457.53 551.21 459.47 553.29 461.5 554.89 462.41 555.9 463.42 558.63 464.14 559.78 464.9 560.29 466.83 560.91 469.61 561.46 475.37 561.32 477.31 560.95 479.17 560.21 481.04 559.72 483.01 560.09 484.07 561.41 484.25 563.42 484.02 567.74 483.71 573.38 484.1 575.1 484.89 576.13 486.86 578.09 487.26 579.32 487.48 580.48 488.06 581.46 489.71 583.15 492.81 585.6 493.66 586.58 494.22 587.76 495.86 594.53 496.94 597.26 498.31 599.84 501.27 604.07 502.94 608.38 503.91 609.75 504.26 610.26 503.25 610.92 499.99 612.37 499.28 613.55 498.89 615.09 499.04 616.49 499.99 617.26 500.17 617.54 500.23 617.84 500.16 618.17 499.99 618.51 499.87 619.5 499.8 619.88 499.79 620.25 499.85 620.62 499.99 620.98 501.12 621.57 503.09 621.87 504.81 622.38 505.19 623.61 504.71 624.07 502.35 624.85 501.82 625.39 501.47 625.95 500.95 626.31 499.99 626.28 498.92 625.85 497.98 625.79 497.06 626.06 494.05 627.93 493.28 628.81 493.46 629.68 494.1 630.49 493.8 630.83 492.95 631 491.94 631.34 490.09 632.22 489.07 632.47 482.48 632 480.67 631.17 479.83 630.44 479.46 629.73 479.22 627.77 478.74 626.04 478.78 625.5 479.05 625.19 479.9 624.67 480.2 624.17 479.59 622.99 477.53 622.95 472.37 624.08 470.13 625.53 469.26 625.84 466.57 625.98 465.62 626.39 463.82 627.59 462.84 627.78 461.83 627.84 458.99 628.71 457.27 628.86 456.69 629.16 456.16 629.96 454.97 633.02 454.44 633.92 452.66 635.3 450.49 635.74 440.5 635.87 437.82 635.57 435.65 634.58 431.8 630.84 430.35 630.24 416.45 629.9 412.78 631.14 410.84 631.4 409.92 631.23 407.15 629.99 405.96 629.67 405.01 629.83 403.01 630.84 401.68 631.29 400.79 631.2 400.1 630.56 399.15 628.98 398.78 628.58 398.35 628.25 397.91 628.08 397.22 628.14 396.97 628.43 396.88 628.83 396.72 629.23 395.19 631.85 394.69 632.23 393.74 631.55 393.46 628.68 392.74 627.67 390.18 627.56 389.13 629.63 389.11 633.58 389.09 638.75 389.06 645.59 385.21 645.56 380.36 645.53 374.63 645.49 372.36 645.82 370.8 646.86 370.81 646.47 370.73 646.01 370.56 645.61 370.25 645.42 369.65 645.52 369.63 645.93 369.81 646.43 369.88 646.78 369.43 647.43 368.85 648.01 368.17 648.28 367.47 647.99 367.17 647.53 367.05 647.15 366.87 646.94 366.38 647.03 365.94 647.36 365.82 647.81 365.84 648.24 365.79 648.56 365.88 648.66 366.08 648.82 366.2 649.02 366.03 649.19 365.83 649.21 365.35 649.12 365.2 649.14 364.85 649.33 363.97 649.7 363.59 649.93 362.42 651.59 362.39 651.64 362.4 651.58 361.14 648.55 361.08 650.08 361.14 650.56 361.27 650.87 361.69 651.52 361.78 651.76 361.59 652.74 360.7 654.66 360.44 655.63 360.48 656.52 361 657.94 361.14 658.83 360.72 658.92 359.8 658.24 358.41 656.98 358.25 658.19 357.4 658.22 356.47 657.51 356.03 656.49 356.19 656.14 356.88 655.66 357.04 655.45 356.99 654.54 357.04 654.29 357.4 653.44 357.73 653.25 358.41 653.25 358.41 652.95 357.73 652.44 356.95 651.66 356.31 650.67 356.03 649.55 356.42 648.24 356.52 647.66 355.73 647.75 354.57 647.06 354.05 646.86 355.43 651.15 356.03 652.27 355.14 654.09 354.58 654.97 354.05 655.27 353.77 654.99 353.55 654.44 353.4 653.85 353.35 653.43 353.09 653.17 352.55 653.25 352.07 653.46 352 653.62 351.51 653.49 350.96 653.28 350.51 652.94 350.32 652.42 350.14 652.1 349.74 652.04 349.28 652.06 348.94 651.94 348.68 651.44 348.75 650.8 348.45 650.39 348.06 650.29 347.64 650.53 346.93 651.23 346.71 650.48 346.65 648.66 346.25 648.21 345.95 649.31 345.45 652.57 345.09 653.25 343.66 653.09 342.21 652.68 339.52 651.57 340.12 651.97 340.63 652.59 340.76 653.29 340.2 653.96 339.38 654.13 338.29 654.04 336.47 653.62 335.97 653.58 335.54 653.64 335.24 653.55 335.12 653.1 335.19 652.5 335.37 652.09 335.6 651.72 335.8 651.23 336.2 648.45 336.47 647.84 336.47 647.54 336.24 647.55 336.2 647.47 336.2 647.33 336.16 647.17 335.56 648.01 335.52 650.06 335.12 650.93 334.4 651.25 333.66 651.05 333.16 650.45 333.11 649.55 332.43 650.19 332.01 649.96 331.62 649.36 331.05 648.88 330.36 648.84 330.24 649.23 330.53 649.78 331.05 650.22 328.32 649.63 327.7 649.21 328.17 649.14 328.53 649.18 328.89 649.15 329.38 648.88 329.77 648.45 330.35 647.36 330.75 646.86 330.26 647.05 329.74 647.4 329.2 647.65 328.7 647.54 328.61 647.04 328.75 646.25 329.07 645.15 326.97 644.76 326.35 644.48 327.19 642.79 327.68 642.28 328.37 642.49 329.74 641.65 330.23 641.17 330.39 640.41 329.24 641.31 328.22 641.21 327.15 640.71 325.84 640.41 323.02 640.58 321.57 640.38 320.94 639.62 320.74 638.01 320.21 636.79 318.92 634.7 318.69 634.06 318.58 633.42 318.53 630.98 318.34 630.58 317.88 630.02 318.11 629.69 318.38 629.16 318.56 628.95 318.22 627.64 319.2 626.99 320.7 626.81 321.99 626.93 321 626.45 320.16 626.26 318.07 626.26 317.51 625.7 317.61 624.42 318.25 622.23 317.95 622.58 317.61 622.85 316.88 623.23 316.78 621.96 316.29 620.83 315.5 619.8 314.52 618.83 315.5 618.01 315.3 617.66 314.19 617.52 313.72 616.92 313.43 616.23 313.26 615.5 313.18 614.8 313.96 615.07 314.88 615.19 315.79 615.11 316.58 614.8 315.16 613.97 314.43 613.65 313.51 613.46 312.64 613.54 312.01 613.72 311.63 613.55 311.5 612.6 311.87 611.23 312.78 609.96 313.98 608.88 315.2 608.07 316.59 607.41 316.72 607.04 316.21 606.36 315.59 605.92 315.16 605.97 314.61 606.21 312.8 606.56 312.38 606.44 312.1 605.39 311.82 604.89 311.43 604.49 311.01 604.31 310.14 604.42 309.61 604.59 309.06 604.62 308.14 604.31 307.77 604.68 308.2 605.75 307.27 605.38 305.27 603.98 304.38 603.81 303.51 603.38 302.81 602.84 302.42 602.33 302.05 602.33 302.06 603.22 302.18 603.6 302.42 603.98 301.24 603.86 300.29 603.28 299.37 602.55 298.33 601.96 296.93 601.9 295.63 602.3 294.41 602.53 293.28 601.96 292.77 602.15 290.17 602.43 288.94 602.87 288.36 602.97 287.1 602.55 287.23 601.58 288.23 600.56 289.58 599.94 297.35 594.16 297.96 593.86 298.29 593.74 298.54 593.69 300.5 593.47 301.16 593.25 301.8 592.93 302.48 592.51 303.69 591.33 304.66 590.05 305.14 589.28 305.42 588.5 305.45 588.1 305.4 587.23 305.42 586.94 305.47 586.66 305.73 586.2 306.19 585.6 307.92 583.7 309.36 582.61 310.25 581.93 310.57 581.54 310.91 581.01 312.16 578.07 312.34 577.46 312.41 577.02 312.35 576.48 312.15 575.46 312.11 575.18 312.24 574.71 312.51 574.08 315.03 569.96 315.42 569.5 316.74 568.85 317.16 568.52 317.49 568.09 317.79 567.35 318.52 566.01 320.29 564.08 321.86 562.49 322.54 561.5 325.03 555.43 325.56 553.71 325.8 552.19 325.79 550.88 325.5 548.34 325.51 547.4 326.31 543 326.14 541.64 325.67 539.9 313.05 518.82 312.63 517.8 312.1 515.6 311.79 513.2 311.67 509.16 311.33 488.46 310.76 483.66 310.83 481.96 311.17 479.71 312.99 472.49 313.28 470.89 313.63 469.96 314.27 468.67 317.56 463.47 320.98 459.51 323.33 454.51 323.94 453.59 325.87 452.67 331.41 452 337.8 450.54 349.69 445.75 351.9 442.79 353.35 441.27 364.18 433.86 365.05 433.03 367.3 431.6 371.53 430.03 371.9 429.83 372.18 429.64 372.33 429.51 372.51 429.32 374.95 425.75 375.3 425.39 375.97 424.84 376.37 424.61 376.67 424.49 378.05 424.11 383.14 423.5 391.58 423.99 415.02 423.08 421.59 422.93 426.83 420.93 427.51 420.87 428.75 420.88 430.09 421.05 431.36 421.39 431.64 421.51 431.86 421.67 432.02 421.84 432.1 422.07 432.13 422.25 432.12 422.62 432.2 422.81 432.37 422.96 432.65 423.06 437.3 423.58 438.69 423.93 Z" fill-rule="evenodd" id="PAK-1114" data-name="Sind"/>
<path d="M 634.66 8.9 634.66 8.94 634.52 9.9 634.65 10.49 634.65 10.51 634.66 10.52 634.79 10.75 635.08 11.01 635.21 11.1 635.31 11.16 635.57 11.28 635.94 11.39 637.76 11.66 638.29 11.84 638.89 12.13 638.95 12.15 639.6 12.72 639.64 12.76 642.36 14.25 642.4 14.27 642.99 14.69 643.29 14.97 643.3 14.98 643.3 14.98 643.39 15.29 643.49 15.67 643.5 15.69 643.54 15.92 643.51 16.15 643.3 16.59 643.26 16.78 643.27 16.97 643.33 17.2 643.34 17.48 643.23 17.76 642.91 17.88 642.65 17.91 641.67 17.73 640.65 17.4 639.1 17.06 638.55 17.02 638.37 17.06 637.4 17.59 637.11 17.67 636.85 17.65 635.87 17.26 635.49 17.15 635.12 17.12 634.82 17.23 633.85 17.95 633.3 18.22 633.03 18.26 632.77 18.23 632.21 18.01 631.86 17.94 630.55 17.98 630.25 17.96 630.03 17.86 630 17.83 629.82 17.69 629.53 17.39 629.11 16.85 628.91 16.71 628.9 16.71 628.7 16.73 628.01 17.02 627.73 17.09 627.45 17.08 627.06 16.92 626.85 16.86 626.27 16.84 625.21 16.94 624.92 16.91 621.96 16.13 620.77 15.94 620.09 15.89 615.08 17.42 614.2 17.6 613.77 17.61 612.94 17.55 611.58 17.64 610.34 17.85 610.12 17.82 609.87 17.71 609.85 17.68 609.08 17.07 608.58 16.79 608.57 16.79 608.3 16.74 608.06 16.83 606.6 17.77 606.04 17.99 604.4 18.32 603.46 18.42 603.22 18.53 603.12 18.7 603.13 18.9 603.19 19.15 603.22 20.25 603.43 20.86 604.19 22.51 604.31 22.91 604.31 23.06 604.26 23.22 603.81 23.87 603.16 24.68 603.02 24.92 602.87 25.54 602.71 25.89 602.32 26.35 602.02 26.58 601.68 26.77 599.07 27.59 598.77 27.75 598.62 27.92 598.62 28.09 598.71 28.3 598.87 28.52 599.04 28.84 599.09 29.11 599.03 29.48 598.87 29.65 598.66 29.74 597.44 29.88 595.96 29.86 595 30 594.47 30.2 594.19 30.42 594.12 30.64 593.99 31.31 594 32.54 594.06 33.12 594.02 33.38 593.88 33.62 593.55 34 593.17 34.23 591.65 34.51 591.25 34.69 590.82 34.97 589 36.74 588.47 37.04 588.15 37.17 587.43 37.34 586.69 37.61 585.76 38.15 585.52 38.34 584.46 39.58 584.19 39.67 583.89 39.67 582.59 39.23 582.02 39.19 581.56 39.21 580.99 39.3 580.28 39.5 579.63 39.92 579.22 40.23 578.83 40.62 578.53 40.98 578.33 41.27 578.18 41.6 577.64 43.62 577.51 44.38 577.51 44.55 577.6 44.73 577.97 45.26 578.04 45.54 577.95 45.84 576.68 47.19 576.55 47.4 576.48 47.61 576.42 47.88 576.42 48.13 576.52 48.44 576.72 48.84 576.77 49.01 576.86 49.17 577.02 49.36 578.56 50.46 578.88 50.82 578.96 51.21 579.34 52.01 579.37 52.13 579.33 52.3 575.75 57.66 575.75 57.66 577.78 58.38 582.56 60.08 582.66 60.11 587.3 60.57 589.38 60.93 589.68 60.92 590.06 60.87 590.2 60.74 590.48 60.41 590.65 60.26 592.52 59.32 592.94 59.19 593.31 59.12 598.21 58.93 598.51 58.98 598.75 59.04 598.9 59.09 599.63 59.39 599.63 59.39 599.96 59.57 600.04 59.61 600.38 59.75 600.42 59.77 601.17 59.98 601.68 60.02 602.2 59.99 602.54 59.93 602.77 59.85 602.96 59.74 603.18 59.58 603.58 59.16 603.81 59.01 603.86 59.02 603.94 59.04 603.95 59.04 603.96 59.04 604.07 59.13 604.15 59.27 604.25 59.41 604.94 60.01 605.47 60.38 605.49 60.4 605.5 60.4 605.98 60.66 606.94 61.19 606.97 61.21 607.14 61.39 607.23 61.55 607.2 61.73 607.06 61.92 606.14 62.66 606.01 62.81 605.93 62.96 605.67 65.51 605.67 65.89 605.71 66.21 605.79 66.48 605.97 66.7 606.27 66.96 610.83 69.49 611.44 69.95 611.61 70.12 612 70.41 613.51 71.27 613.89 71.49 613.91 71.5 614.23 71.78 614.34 71.98 614.58 72.51 614.71 72.6 614.72 72.6 614.73 72.61 614.87 72.66 614.91 72.68 615.62 72.83 615.82 72.85 616.79 72.77 617.08 72.78 617.62 72.87 617.64 72.88 618.02 73 618.04 73.01 618.43 73.2 618.44 73.21 618.73 73.42 618.93 73.6 619.06 73.87 619.14 74.11 619.75 75.14 619.77 75.17 619.77 75.18 619.78 75.2 621.4 74.51 622.45 74.7 622.53 74.71 622.54 74.72 622.54 74.72 624.4 75.85 624.44 75.87 624.45 75.87 624.47 75.88 627.48 75.49 630.61 75.43 636.93 76.22 636.96 76.22 637.61 76.46 637.62 76.47 637.63 76.47 637.91 77.27 637.94 77.44 638.1 79.48 638.15 79.68 638.22 79.87 638.25 80.02 638.22 80.15 638.09 80.28 637.87 80.39 637.4 80.54 636.17 81.11 635.43 81.61 635.35 81.73 635.28 81.86 635.21 82.06 634.93 82.57 633.8 84.13 633.66 84.39 633.6 84.57 633.58 84.71 633.62 85.01 633.63 85.18 633.45 86.53 633.44 86.73 633.46 86.9 633.53 87.07 634.99 89.17 635.06 89.42 635.08 89.63 634.95 90.39 634.82 90.65 634.81 90.84 634.84 91.09 635.17 91.55 635.45 91.76 635.63 91.84 635.66 91.86 635.66 91.86 635.67 91.86 635.84 91.87 635.98 91.84 636.14 91.77 636.34 91.65 637.36 90.79 637.52 90.69 637.68 90.63 637.84 90.6 639.06 90.61 639.42 90.66 639.48 90.67 639.48 90.67 639.64 90.72 640.04 90.84 640.94 91.25 641.9 92.1 642.12 92.19 642.17 92.21 642.17 92.21 642.17 92.21 642.45 92.2 643.33 91.93 643.81 91.98 643.85 91.99 644.42 92.16 644.67 92.24 645.12 92.38 646.35 93.67 646.59 93.77 646.79 93.81 646.81 93.82 646.82 93.82 646.92 93.84 647.3 93.68 647.71 93.59 648.47 93.54 648.47 93.54 648.59 93.57 648.6 93.57 648.79 93.61 648.98 93.74 649.05 93.89 649.17 94.04 649.17 94.04 649.27 94.13 650.11 94.8 650.4 94.94 650.63 95.02 650.68 95.03 650.68 95.03 651.39 95.09 652.75 95.2 652.76 95.2 653.64 95.18 653.68 95.18 653.69 95.18 653.8 95.23 653.87 95.26 653.89 95.28 653.95 95.38 653.92 95.53 653.86 95.74 653.89 95.94 654.03 96.2 654.73 96.7 654.91 96.88 654.98 97 654.98 97 654.98 97 654.99 97.27 654.99 97.28 654.99 97.28 654.99 97.29 654.99 97.29 654.99 97.29 654.99 97.29 653.75 97.61 653.21 97.99 652.85 98.32 652.85 98.32 652.62 98.63 652.18 99.45 652.1 99.73 652.11 99.93 652.18 100.09 652.25 100.21 652.28 100.25 652.34 100.3 652.43 100.39 652.54 100.45 652.6 100.48 653.19 100.71 653.19 100.71 653.42 100.86 653.67 101.12 653.84 101.49 653.8 101.68 653.79 101.7 653.66 101.85 653.66 101.85 653.38 102.01 653.06 102.19 653.05 102.19 652.58 102.61 652.15 103.07 652.03 103.44 651.96 103.87 652.01 104.63 651.88 105.05 651.65 105.48 651.52 105.58 651.44 105.65 650.91 105.97 650.9 105.98 650.66 106.25 650.54 106.38 650.54 106.38 650.33 106.85 650.05 107.68 650.05 107.68 649.96 107.79 649.74 108.04 649.73 108.05 649.63 108.13 649.46 108.26 649.45 108.27 649.45 108.27 648.88 108.46 648.32 108.64 648.06 108.69 647.78 108.75 646.99 108.81 646.62 108.93 646.61 108.94 646.28 109.16 646.26 109.17 646.02 109.37 645.76 109.59 645.76 109.59 645.41 110.08 645.41 110.09 645.34 110.15 645.17 110.3 645.1 110.37 644.73 110.62 644.47 110.74 644.33 110.81 644.33 110.81 643.43 111.39 643.41 111.4 643.31 111.44 643.14 111.5 643.13 111.5 641.03 111.33 639.96 111.51 639.78 111.57 639.77 111.57 638.88 112.12 638.83 112.15 638.47 112.31 638.2 112.39 637.88 112.44 636.96 112.39 636.57 112.52 636.56 112.52 636.06 112.77 635.01 113.44 634.51 113.83 634.14 114.2 634.14 114.21 633.8 114.75 633.37 115.8 633.13 116.19 631.66 118.09 631.57 118.3 631.52 118.53 631.58 118.77 631.68 118.97 632 119.44 632.1 119.71 632.13 119.95 632.09 120.21 631.07 122.59 630.59 123.38 630.38 123.58 630.31 123.65 630.3 123.65 630.06 123.65 630.06 123.64 629.94 123.51 629.84 123.39 629.65 123.07 629.54 122.82 629.54 122.81 629.54 122.81 629.48 122.71 629.42 122.61 629.42 122.61 629.17 122.5 628.82 122.45 628.72 122.45 628.33 122.44 627.9 122.5 627.47 122.61 626.83 122.88 625.91 123.27 625.86 123.27 625.65 123.3 625.56 123.29 625.45 123.29 624.42 123.12 624.18 123.1 624.11 123.1 623.94 123.11 622.46 123.32 622.44 123.33 621.99 123.53 621.77 123.71 621.63 123.94 621.58 124.15 621.55 124.38 621.55 124.81 621.52 124.98 621.43 125.15 621.18 125.52 621.11 125.71 621.08 125.94 621.17 127.23 621.15 127.4 621.11 127.55 621.05 127.69 620.74 128.13 620.67 128.25 620.66 128.27 620.66 128.27 620.62 128.47 620.63 129.96 620.58 130.22 620.58 130.23 620.55 130.33 620.3 131.25 620.05 131.84 619.49 132.66 619.32 132.93 619.32 132.93 619.66 133.94 621.63 136.35 622.04 137.03 622.24 137.51 622.95 138.16 622.96 138.17 623.76 141.65 623.8 142.49 623.72 144.05 623.71 144.2 623.73 144.52 623.76 145.04 623.78 145.11 624.65 148.05 625.14 150.95 625.14 151 625.14 151.01 625.15 151.04 624.67 150.88 624.45 150.68 624.16 150.53 623.84 150.53 623.44 150.79 622.49 151.15 622.18 151.21 621.9 151.36 621.62 151.59 620.73 152.86 620.49 153.08 620.15 153.27 619.75 153.34 619.46 153.32 619.27 153.27 618.71 152.96 618.44 152.89 618.12 152.9 617.82 152.96 617.55 153.11 617.25 153.39 617.14 153.85 617.25 154.12 617.39 154.32 617.44 154.46 617.38 154.62 615.9 156.35 615.61 156.78 615.45 157.13 615.42 157.34 615.36 157.56 615.21 157.78 614.97 157.94 613.85 158.36 612.99 158.83 611.46 159.34 610.26 160.19 609.1 160.85 606.75 160.75 605.82 161.05 605.43 161.48 605.3 161.6 605.03 161.79 603.96 162.18 602.13 162.4 601.74 162.48 601.15 162.69 600.4 163.15 599.97 163.5 599.46 163.99 598.4 164.45 596.04 164.84 595.98 164.23 596.08 164.08 596.12 163.9 596.02 163.78 595.7 163.74 595.03 163.79 594.73 163.78 594.43 163.69 593.89 163.4 593.65 163.33 592.55 163.45 592.2 163.45 591.96 163.38 591.81 163.15 591.75 162.79 591.87 162.01 592.07 161.68 592.35 161.47 592.66 161.36 593 161.2 593.21 161.06 593.35 160.91 593.45 160.76 593.52 160.57 593.52 160.39 593.41 160.2 593.01 160 592.66 159.87 592.34 159.89 592.04 160.01 591.82 160.06 591.58 160.05 591.39 160.01 591.16 159.93 590.98 159.78 590.94 159.61 591.17 159.32 591.56 159.09 591.71 158.95 591.8 158.79 591.85 158.6 591.88 157.92 591.85 157.72 591.81 157.46 591.59 157.2 591.42 157.08 590.33 157.17 589.45 156.36 589.26 156.13 589.2 155.94 589.23 155.75 589.31 155.55 589.63 155 589.61 154.83 589.48 154.62 589.23 154.35 589 154.15 588.7 153.97 588.47 153.9 588.12 154.03 587.82 154.2 586.81 155.13 586.7 155.28 586.63 155.45 586.63 155.59 586.7 155.9 586.7 156.04 586.6 156.16 586.41 156.23 585.86 156.36 585.63 156.52 585.43 156.78 585 157.5 584.75 157.84 584.56 158.05 584.35 158.19 584.13 158.28 583.54 158.44 582.86 158.54 582.51 158.45 582.12 158.25 581.03 157.5 580.79 157.28 580.69 157.07 580.71 156.77 580.78 156.56 580.92 156.36 581.49 155.81 581.82 155.59 582.22 155.42 582.41 155.31 582.56 155.15 582.61 154.98 582.46 154.74 582.17 154.54 581.49 154.31 580.67 154.13 578.5 153.91 578.21 153.81 577.87 153.52 577.51 153.14 577.05 151.96 576.24 150.37 575.46 150.3 573.4 150.4 571.58 150.85 570.01 151.75 568.44 152.92 567.53 153.33 562.93 154.15 562.21 154.47 561.5 156.28 562.26 161.03 561.91 162.94 561.36 162.53 560.75 162.42 560.13 162.57 559.55 162.94 558.84 162.59 557.89 162.38 556.02 162.26 554.68 161.76 554.46 161.85 553.47 162.94 552.98 163.19 551.94 163.53 551.45 163.91 550.87 165.4 550.61 165.63 550.33 166.02 549.36 167.94 549.1 168.65 548.98 171.2 548.07 172.56 548.06 173.08 548.19 173.71 548.06 174.74 547.65 175.27 545.54 176.6 545.31 176.94 545.08 177.61 544.87 177.94 544.44 178.41 544.15 178.82 544.1 179.26 544.36 179.81 543.86 179.93 543.65 180.21 543.45 180.53 543.02 180.79 542.58 180.85 541.15 180.79 540.36 180.96 537.61 182.16 536.74 183.16 536.71 184.11 536.83 184.97 536.43 185.71 535.83 186.39 535.55 187.24 535.76 188.03 536.63 188.55 536.23 188.55 536.91 189.27 537.6 189.85 538.12 190.54 538.28 191.61 538.04 192.61 537.58 193.27 537.06 193.78 536.63 194.3 536.23 195.2 536.14 196.01 536.19 197.08 535.61 197.63 533.23 196.76 532.77 196.46 532.26 196.03 531.41 195.09 530.98 194.52 530.66 193.95 530.55 193.66 530.48 193.3 530.42 191.82 530.35 191.47 530.2 191.18 529.83 190.79 529.24 190.34 527.97 189.65 527.63 189.56 525.65 190.16 525.23 190.16 524.79 190.06 523.44 189.53 523.07 189.3 522.76 189.06 522.58 188.75 522.16 188.48 521.74 188.78 521.61 189.17 521.34 190.27 521.43 190.87 521.67 191.26 521.9 191.43 522.06 191.57 522.14 191.73 522.19 191.97 522.21 192.16 522.2 192.41 522.21 192.58 522.25 192.75 522.67 193.43 523.09 193.91 523.15 194.13 522.65 196.3 522.67 196.75 522.75 196.97 522.91 196.97 523.07 196.96 523.28 196.91 523.49 196.91 523.7 196.98 523.92 197.24 524.06 197.47 524.13 197.71 524.13 197.92 524.04 198.28 523.83 198.65 523.22 199.46 522.93 199.71 522.56 199.87 521.95 200.01 521.38 200.02 520.91 200.13 520.24 200.42 519.85 200.47 519.44 200.45 519.11 200.49 518.7 200.62 518.16 200.86 517.76 200.79 517.55 200.7 517.41 200.58 517.24 200.5 516.65 200.36 516.42 200.26 516.08 200.03 515.92 199.99 515.75 200 512.58 201.08 512.09 201.37 511.34 201.71 510.76 201.91 510.38 202.15 509.96 202.48 508.77 204.12 508.46 204.78 508.25 205.6 507.88 209.22 507.7 209.97 507.15 210.43 506.67 210.6 506.51 210.71 506.35 210.93 506.49 211.41 508.21 214.53 508.42 215.49 508.41 216.45 508.46 216.86 508.98 218.62 509.21 220.01 509.4 220.45 509.68 220.75 510.29 221 510.66 221.06 511.04 221.07 513.21 220.7 513.42 220.69 513.67 220.74 513.84 220.86 514 221.14 513.93 222.01 513.22 224.08 513.38 224.75 513.64 225.21 513.91 225.47 514.12 225.61 514.35 225.64 514.56 225.54 514.78 225.3 514.9 225.11 515.08 224.76 515.2 224.58 515.38 224.46 515.64 224.4 515.85 224.31 515.99 224.22 516.07 224.09 516.13 223.95 516.31 223.62 516.5 223.47 516.76 223.42 517.15 223.44 517.53 223.58 517.7 223.76 517.75 223.99 517.76 224.33 517.85 224.52 518.05 224.65 518.35 225.2 518.2 228.61 517.9 229.46 517.45 230.24 515.6 232.37 515.09 233.17 514.85 234.03 514.83 235.03 514.74 235.49 514.51 235.97 513.53 237.37 513.3 237.91 512.78 239.96 512.39 240.95 511.75 241.75 511.31 242.04 509.88 242.66 509.4 242.97 507.64 244.69 507.21 245.27 506.9 245.91 506.77 246.63 506.76 247.56 506.66 247.98 506.39 248.4 504.58 249.95 503.82 250.78 502.95 252.85 502.26 253.55 501.49 254.19 500.78 254.93 500.31 255.85 499.84 257.85 499.5 258.82 497.37 262.49 496.49 263.62 496.17 264.2 496.17 264.92 496.41 265.72 496.44 266.01 496.36 266.46 493.95 271.95 494.41 272.75 494.65 273.06 495.28 273.7 495.46 273.97 495.47 274.17 495.23 274.31 494.85 274.44 494.63 274.66 494.53 275 494.99 276.13 495.03 276.43 494.89 277.65 494.75 278.24 494.58 278.48 494.28 278.75 493.62 279.08 492.87 279.29 492.64 279.5 492.49 279.67 492.07 281.2 492.25 281.6 492.29 281.8 492.23 282.09 492.04 282.39 490.92 283.4 490.19 284.67 489.24 284.27 488.86 284.02 488.3 283.49 488.07 283.34 487.8 283.24 487.46 283.18 487.05 283.23 486.38 283.38 484.18 284.19 483.71 284.24 483.02 284.14 482.52 284.01 480.87 283.34 479.97 283.12 479.44 283.16 478.91 283.33 477.75 284.15 477.34 284.37 476.96 284.48 476.22 284.58 475.81 284.59 475.03 284.48 474.62 284.58 474.23 284.84 473.64 285.5 473.37 285.88 473.23 286.19 473.11 286.51 473 286.74 472.91 286.83 472.42 287.08 471.6 286.99 463.49 263.51 462.72 262.41 462.58 262.12 462.09 259.29 462.12 259.11 462.28 258.5 462.42 257.73 462.44 257.37 462.36 256.03 462.26 255.54 460.38 250.21 458.45 248.8 457.94 247.89 457.52 246.1 456.74 244.42 455.39 242.64 455.24 242.4 455.21 242.26 455.23 242.1 455.38 241.36 455.53 240.97 456.12 240.26 456.63 239.8 457.79 238.95 459.69 237.88 459.94 237.7 460.31 237.33 460.9 236.57 461.44 235.54 461.71 235.29 461.96 235.11 462.26 234.96 462.44 234.9 462.61 234.86 464.16 234.72 464.34 234.74 464.94 234.91 465.19 234.95 465.41 234.95 465.64 234.91 465.84 234.87 466.34 234.66 467.43 234.05 468.72 233.09 468.96 232.83 469.96 231.4 470.18 231.2 471.79 230.03 472.88 228.96 473.17 228.48 473.42 227.93 473.65 227.17 474.12 226.07 474.46 225.49 474.7 225.19 474.91 225.07 475.08 225.02 475.25 225 475.41 224.99 475.76 225.03 476.18 225.15 479.46 226.74 479.76 226.79 480.1 226.77 480.61 226.51 480.81 226.32 480.88 226.1 480.86 225.94 480.76 225.59 480.37 224.65 471.94 215.64 471.18 214.61 470.93 214.55 470.48 214.48 470.35 214.41 470.32 214.28 470.51 213.5 470.54 213.17 470.59 212.84 470.42 211.42 470.42 209.05 470.51 208.78 470.66 208.46 470.87 208.41 471.06 208.4 471.22 208.41 471.55 208.09 472.01 207.5 473.5 205.13 474.86 203.53 475.14 202.99 476.28 199.75 476.42 199.6 476.88 199.43 477.23 199.25 477.89 198.68 478.61 198.21 478.9 198.12 479.13 198.09 480.34 198.43 480.63 198.46 480.88 198.46 481.3 198.42 482.35 198.55 482.59 198.55 482.8 198.57 483.02 198.57 483.54 198.48 483.83 198.39 484.57 198.26 485.54 197.96 486.68 197.78 487.13 197.66 487.76 197.41 488.17 197.09 488.95 196.25 489.31 196.02 489.7 195.86 490.85 195.64 494.01 192.66 494.76 191.68 494.82 191.38 494.77 191.16 494.63 190.95 494.41 190.74 494.17 190.62 492.96 190.26 491.99 190.07 491.32 189.85 491.06 189.79 490.79 189.77 490.29 189.79 490.11 189.77 489.47 189.6 489.28 189.57 488.2 189.6 486.63 189.45 486.08 189.34 485.94 189.24 485.87 189.12 485.84 188.98 485.86 188.83 486.15 188.03 486.04 187.94 485.82 187.86 485.5 187.8 484.9 187.77 484.64 187.73 483.04 187.21 482.79 187.16 482.21 187.16 481.79 187.1 481.37 186.98 480.66 186.71 479.45 185.24 479 183.42 478.69 182.94 478.16 182.77 476.52 181.94 475.89 181.5 475.65 181.25 475.54 181.04 475.56 180.87 475.64 180.51 475.7 180.32 475.79 180.17 475.92 179.98 476.59 179.6 476.88 179.47 477.67 179.32 478.37 179.25 478.91 179.14 479.47 179.11 480.17 179.14 480.46 179.13 480.7 179.09 480.98 178.98 481.46 178.67 482.87 177.32 483.24 177.06 483.42 176.99 483.63 176.97 484.7 176.93 485.57 176.81 486.97 176.34 487.2 176.32 487.46 176.33 487.84 176.25 488.04 176.07 488.18 175.8 488.21 175.6 488.18 175.18 488.07 174.68 488.06 174.52 488.07 174.35 488.1 174.19 488.3 173.46 488.99 172.04 489.26 171.74 489.54 171.57 490.4 171.48 492.03 172.4 492.84 172.64 500.73 173.29 501.12 173.24 502.17 172.86 502.69 172.53 503.17 172.17 503.52 171.99 504.13 171.8 506.05 171.4 506.3 171.27 506.36 171.14 506.28 170.96 506.1 170.85 505.85 170.74 505.64 170.67 505.45 170.58 505.32 170.48 505.25 170.34 505.23 170.2 505.28 170.04 505.37 169.9 505.66 169.63 505.83 169.51 506.44 169.2 508.26 168.63 508.22 168.04 507.52 166.67 507.46 166.41 507.5 164.4 507.58 164.13 507.78 164.07 508 164.08 508.88 164.3 509.24 164.45 509.99 164.93 510.22 165 510.52 164.98 510.77 164.99 511.02 165.05 511.19 165.17 511.33 165.36 511.57 165.93 511.67 166.06 512.47 166.76 513.62 167.43 516 168.46 516.82 168.91 517.22 169.26 517.52 169.46 518.12 169.68 518.46 169.69 518.72 169.63 519.07 169.32 519.46 169.14 519.99 169 522.08 168.88 523.17 168.62 523.52 168.61 523.8 168.63 524.51 168.77 530.81 169.14 531.29 168.98 531.86 168.86 532.21 168.86 532.45 168.91 532.6 169.02 532.76 169.17 532.85 169.31 532.96 169.54 533 169.74 533 169.95 532.93 170.13 532.79 170.3 532.57 170.47 532.11 170.72 531.62 170.92 529.94 171.4 529.38 171.61 529.13 171.79 528.97 171.98 528.91 172.17 528.95 172.33 529.28 172.66 529.61 172.84 530.07 173.04 531.22 173.39 533.26 173.6 534.3 173.5 535.64 172.99 538.46 171.56 539.11 171.13 539.67 170.88 541.39 170.4 541.86 170.21 542.08 170.1 542.26 169.97 542.38 169.82 542.45 169.65 542.47 169.49 542.41 169.36 542.3 169.25 541.78 168.89 540.07 167.94 539.93 167.82 539.88 167.69 539.85 167.55 539.91 167.39 540.03 167.2 541.08 166.18 541.35 165.81 541.6 165.41 543.12 163.57 543.28 163.29 543.45 162.89 543.39 162.69 543.27 162.41 543.12 162.28 542.93 162.2 541.65 162.17 540.04 161.93 539.69 161.82 539.3 161.66 538.73 161.23 538.48 160.97 538.28 160.6 537.85 159.53 537.59 159.27 537.38 159.14 537.19 159.19 537.02 159.3 536.77 159.65 536.54 160.22 535.55 161.7 534.89 162.28 533.34 163.17 530.57 164.39 528.28 164.74 527.83 164.75 527.28 164.71 526.98 164.66 526.76 164.59 526.59 164.49 526.47 164.33 526.18 163.82 525.77 162.48 525.72 162.21 525.69 161.82 525.78 160.97 525.76 160.71 525.69 160.48 525.55 160.29 525.4 160.12 524.9 159.72 523.07 158.6 522.41 158.1 522.25 157.91 522.15 157.72 522.14 157.58 522.14 157.43 522.29 156.44 522.27 156.13 522.03 155.05 521.65 154.4 521.28 153.98 520.89 153.62 520.47 153.36 520.15 153.08 519.79 152.43 519.69 152.07 519.65 151.83 519.7 151.38 519.69 151.33 519.72 150.86 519.74 150.77 519.79 150.65 520.02 150.22 520.15 149.91 520.09 149.42 519.86 148.41 519.8 148.23 519.18 147.57 519.14 147.49 519.18 147.26 519.2 147.19 519.23 147.14 519.34 147.03 519.51 146.89 519.7 146.78 519.75 146.74 519.8 146.58 519.81 146.37 519.77 145.87 519.73 145.67 519.66 145.54 519.41 145.43 519.01 145.15 518.88 145.09 518.64 145.02 518.49 145 518.36 144.95 518.2 144.89 517.97 144.75 517.9 144.68 517.87 144.62 517.99 144.35 518 144.3 518 144.23 517.99 144.16 517.93 143.93 517.92 143.86 517.94 143.81 517.96 143.76 518.06 143.63 518.25 143.46 522.03 142.58 522.15 142.48 522.26 142.34 522.28 142.3 522.27 142.26 522.53 142.05 523.37 141.58 523.41 141.54 523.5 141.48 523.81 141.31 525.39 140.25 525.83 139.55 527.25 138.58 527.42 138.41 527.59 137.9 527.6 137.83 527.59 137.77 527.57 137.72 527.54 137.69 527.51 137.67 527.42 137.65 527.37 137.62 527.32 137.59 527.28 137.54 527.25 137.51 527.26 137.4 527.57 136.59 527.57 136.56 527.54 136.52 527.48 136.43 527.44 136.35 527.37 136.16 527.37 136.06 527.38 136 527.48 135.91 528.41 135.24 528.55 135.09 528.62 134.97 528.62 134.86 528.61 134.64 528.65 134.52 528.69 134.44 528.74 134.39 528.9 134.3 529 134.25 529.36 133.99 530 133.38 530.04 133.36 530.1 133.34 530.14 133.34 530.34 133.43 530.42 133.45 530.56 133.46 530.62 133.46 530.67 133.47 530.75 133.5 530.92 133.63 531.13 133.83 531.18 133.87 531.26 133.91 531.39 133.95 531.59 134 531.68 133.98 531.73 133.94 531.75 133.87 531.75 133.7 531.67 133.34 531.68 133.28 531.68 133.24 531.72 133.16 531.8 132.7 531.83 132.6 531.86 132.53 532.17 132.45 532.28 132.43 532.55 132.45 532.7 132.42 532.88 132.36 533.25 132.18 533.39 132.09 533.46 132.01 533.44 131.98 533.42 131.94 533.3 131.82 533.27 131.78 533.25 131.72 533.24 131.65 533.24 131.59 533.26 131.54 533.34 131.39 533.44 130.93 533.47 130.83 533.53 130.75 533.63 130.68 533.97 130.39 534.06 130.34 534.1 130.33 534.31 130.29 534.39 130.25 534.47 130.2 534.61 130.09 534.82 129.98 535.22 129.87 534.79 128.82 534.6 128.59 534.55 128.59 534.52 128.59 534.5 128.59 534.38 128.64 534.27 128.66 534.11 128.65 533.76 128.6 533.62 128.55 533.54 128.51 533.5 128.38 533.5 128.31 533.5 128.25 533.5 128.17 533.57 127.93 533.57 127.87 533.51 127.63 533.29 127.14 533.29 127.1 533.36 126.95 533.37 126.91 532.65 124.98 533.63 124.08 533.84 123.83 533.78 123.35 533.82 123.03 534.27 121.48 534.44 121.07 534.57 120.83 534.73 120.8 534.86 120.71 534.9 120.68 534.95 120.66 535 120.64 535.11 120.61 535.4 120.4 536.14 119.72 536.25 119.65 536.64 119.35 536.68 119.34 536.73 119.34 536.77 119.35 536.84 119.38 537.07 119.54 537.16 119.57 537.21 119.59 537.34 119.59 538.41 118.91 538.71 117.4 538.72 116.83 538.66 116.4 538.59 116.1 538.57 116.06 538.56 116.02 538.49 115.93 538.42 115.8 538.32 115.53 538.39 115.41 538.56 115.33 538.88 115.29 539.03 115.24 539.17 115.1 539.65 114.5 539.88 114.38 540.15 114.32 540.42 114.2 540.45 114.07 540.14 113.72 539.95 113.46 539.71 112.96 539.48 112.79 539.3 112.71 539.01 112.76 538.78 112.77 538.52 112.74 537.87 112.57 537.54 112.44 537.21 112.34 535.45 112.11 535.16 112.12 534.86 112.18 534.11 112.39 532 113.37 531.65 113.42 531.26 113.33 530.62 113.07 529.74 112.42 529.65 112.26 529.65 112.15 529.68 111.89 529.68 111.7 529.68 111.66 529.54 111.22 529.37 110.97 529.25 110.73 529.24 110.68 529.22 110.62 529.2 110.38 529.18 110.28 529.12 110.14 529.08 110.06 528.94 109.87 528.89 109.77 528.87 109.73 528.78 109.27 528.7 109.14 528.64 109.06 528.57 109.04 528.22 108.99 527.71 108.84 526.63 108.65 525.67 108.22 525.54 108.13 523.89 106.4 523.17 105.37 523.04 105.24 523.77 105 524.24 104.65 524.59 104.13 525.02 102.99 525.41 102.47 525.41 102.46 525.42 102.46 525.42 102.46 525.95 102.14 526.3 101.74 526.38 101.28 526.11 100.79 526.18 98.63 527.46 97.32 530.87 95.37 532.1 93.8 532.53 92.83 532.32 92.17 530.82 91.17 528.09 88.6 527.21 87.36 527.29 86.03 528.81 84.42 531.21 82.7 531.69 81.98 531.77 81.02 531.35 80.35 530.7 79.74 530.34 79.31 530.06 78.98 529.76 77.89 529.98 76.96 530.31 76.06 530.34 75.12 529.89 74.39 529.08 73.9 526.37 72.81 525.38 72.16 524.92 71.32 525.54 70.33 526.43 69.4 526.71 68.5 526.5 67.63 525.87 66.76 525.55 66.49 524.82 66.02 524.54 65.68 524.32 65.13 524.31 64.68 524.36 64.26 524.31 63.77 523.99 63.04 522.34 60.63 521.64 59.88 519.4 58.58 518.88 57.84 518.67 56.23 517.94 55.53 516.51 55.03 515.12 54.78 513.79 54.33 512.54 53.22 511.84 52.79 510.07 52 509.53 51.6 509.48 51.41 509.29 50.68 509.75 49.92 511.34 48.61 511.59 48.16 511.84 47.11 512.1 46.75 514.03 45.73 515.53 45.15 515.99 44.89 516.33 44.42 516.58 43.37 516.83 43.05 519.95 42.17 520.95 41.53 524.71 38.13 525.53 37.68 526.46 37.41 527.66 37.21 528.61 36.78 528.33 36.14 527.82 35.38 528.06 34.63 529.3 33.64 529.7 33.12 530.11 32.32 530.7 30.8 531.18 30.38 532.1 30.3 533.09 30.63 535.93 32.17 537.38 33.43 538.1 33.67 538.88 33.63 539.66 33.4 540.24 32.86 540.1 32.18 539.26 30.85 539.19 29.29 540.21 28.76 543.4 28.59 544.19 28.35 544.83 27.91 545.42 27.4 546.1 26.95 548.44 25.86 549.23 25.2 550.25 24.74 552.27 24.34 553.07 23.73 553.13 23.29 552.93 22.87 552.84 22.46 553.27 22.05 553.85 21.79 555.09 21.47 557.95 21.14 558.81 20.74 558.47 19.93 557.73 18.98 557.92 18.35 558.72 17.9 560.88 17.15 565.23 16.35 567.41 16.25 569.44 15.71 571.69 15.83 572.72 15.6 575.81 13.5 578.2 12.52 581.37 11.91 584.63 11.72 588.74 12.21 593.09 12.03 594.53 11.71 595.72 11.2 596.94 10.96 598.46 11.46 599.14 11.48 599.72 11.26 600.9 10.6 601.7 10.37 609.05 9.74 610.61 9.87 612.05 10.18 612.78 10.26 613.49 10.18 615.95 9.49 618.31 9.63 621.56 9.27 623.09 9.45 624.69 9.66 631.13 8.77 634.55 8.89 634.63 8.9 634.64 8.9 634.66 8.9 Z" id="PAK-1123" data-name="N.W.F.P."/>
</g>
</svg>