<?xml version="1.0"?>
<svg xmlns="http://www.w3.org/2000/svg" version="1.2" baseProfile="tiny" width="800" height="633" viewBox="0 0 800 633" stroke-linecap="round" stroke-linejoin="round">
<g id="ne_10m_admin_1_states_provinces">
<path d="M 429.72 36.72 429.29 36.6 429.17 36.49 429 36.4 428.92 36.53 428.45 39.62 427.83 41.35 427.75 41.87 428.08 42.24 428.46 42.39 428.86 42.49 429.47 42.71 429.65 42.74 430.38 42.54 430.93 42.25 431.6 42.09 432.24 41.99 432.84 41.75 433.18 41.8 433.44 41.96 433.35 42.3 433.46 42.79 433.04 44.65 432.88 44.93 432.17 45.33 431.4 45.43 430.7 45.61 430.16 46.27 430.01 47.1 430.24 47.61 430.55 48.13 430.61 48.95 430.17 49.5 429.51 49.97 429.28 50.49 430.16 51.18 429.82 51.31 429.59 51.44 429.32 51.55 428.82 51.63 429.22 51.85 429.65 52.17 430.02 52.51 430.16 52.76 430.13 53.46 429.99 53.65 429.71 53.67 429.27 53.9 427.78 54.27 427.46 54.55 427.63 55.02 427.95 55.48 428.57 56.06 428.82 58.81 429.27 60.41 429.41 60.62 429.72 60.66 430.02 60.8 430.16 61.28 430.38 63.05 431.15 66.05 431.06 67.81 430.06 70.8 429.89 72.32 428.49 71.54 427.98 70.77 426.62 69.69 426.07 69.35 425.78 68.86 425.64 68.4 425.21 68.05 424.73 67.76 423.8 67.32 422.99 67.08 420.69 66.83 419.73 67 419.38 67.02 419.22 66.8 419.02 66.41 417.68 64.48 417.44 64.28 417.24 64.25 416.13 64.72 415.82 64.8 415.33 64.83 414.98 64.81 414.41 64.72 413.25 64.84 412.94 64.76 412.33 64.09 411.8 64.03 411.24 63.83 410.18 62.73 409.5 62.48 408.75 62.41 407.97 62.52 407.26 62.71 406.52 63.01 405.87 63.35 402.52 63.7 401.85 63.88 400.99 64.35 400.15 64.8 399.99 63.86 399.65 63.15 399.05 62.86 398.74 62.43 399.18 61.51 399.84 60.65 400.19 60.41 399.91 59.35 399.23 59.33 398.35 59.58 397.47 59.29 397.35 58.57 397.83 57.69 398.47 56.93 398.85 56.58 400.57 56.17 401.39 55.81 401.49 55.2 400.85 54.79 399.93 54.84 397.92 55.2 399.44 54.28 399.74 53.9 399.95 53.26 400 52.51 399.75 51.89 399.05 51.63 397.61 51.35 397.8 50.67 398.68 49.8 399.25 48.95 398.94 47.87 397.38 45.8 397.25 45.42 398.03 44.97 398.64 43.69 399.11 43.61 399.59 43.74 399.76 43.84 403.61 45.05 404.38 44.92 405.51 44.53 406.46 44.44 407.5 44.55 407.99 44.35 408.17 44.23 408.06 43.99 408.13 43.89 408.38 43.72 409.11 43.41 409.75 43.06 410.33 42.91 415.03 42.66 416.1 42.22 416.68 41.66 417.05 40.39 417.33 39.81 417.54 39.28 417.59 38.91 417.48 37.84 417.48 37.17 417.58 36.56 418.1 35.98 421.6 36.13 423.06 36.7 423.75 36.68 425.15 35.56 425.9 35.25 426.66 35.2 427.35 35.26 427.98 35.42 428.38 35.63 429.72 36.72 Z" id="EGY-1530" data-name="Al Gharbiyah"/>
<path d="M 518.18 45.62 520.85 68.29 520.99 74.09 521.21 75.43 521.44 76.31 521.57 76.57 521.57 76.58 527.56 84.88 531.02 92.65 518.61 91.89 516.56 92.05 514.46 92.59 513.95 92.84 511.37 94.94 511.08 95.1 509.17 95.87 508.84 95.94 508.01 95.93 504.64 95.48 503.48 95.18 502.57 94.85 500.66 93.76 495.01 93.38 471.47 94.07 468.58 87.1 466.64 80.31 466.39 77.94 465.79 76.29 465.15 75.54 464.41 75.02 463.68 74.21 463.37 73.52 463.39 72.84 463.54 72.61 463.71 72.52 464 72.55 464.41 72.65 464.54 72.66 464.76 72.63 467.76 73.42 467.97 73.46 470.81 73.44 472.56 73.25 473.55 72.95 475.23 72.74 477.13 72.68 478.91 71.72 480.93 69.93 485.28 64.99 486.65 62.46 487.33 60.76 486.49 57.31 486.54 54.79 487.36 53.18 487.76 52.02 488.67 50.69 489.6 48.24 491.53 46.15 491.93 45.12 492.02 44.31 492 43.54 491.39 41.55 490.25 40.81 489.28 40.31 488.19 39.05 488.15 38.66 488.15 38.66 488.39 38.7 488.1 38.19 488.12 38.19 493.76 37.64 496.11 37.17 497.78 36.47 499.17 36.14 518.18 45.62 Z" id="EGY-1531" data-name="Al Isma`iliyah"/>
<path d="M 429.89 72.32 430.61 73.17 429.76 73.45 429.18 73.16 428.75 72.76 428.38 72.68 428 73.16 427.87 73.83 428.01 74.51 428.38 74.99 428.38 75.4 426.55 76.74 425.53 77.11 425.46 77.18 425.18 77.35 425.2 77.74 425.29 78.2 425.21 78.56 424.69 78.93 423.6 79.1 422.98 79.41 422.37 80.08 422.28 80.63 422.31 81.25 422.09 82.13 421.66 82.93 421.48 82.84 421.27 82.39 420.75 82.13 420.15 82.08 420.1 82.04 420.25 82.27 420.27 83.02 420.34 83.47 420.51 83.86 420.45 84.26 419.86 84.77 419.17 85.05 418.57 85.07 417.14 84.77 417.86 85.68 419.56 86.77 420.27 87.53 420.29 88.19 420.06 91.09 420.54 91.55 420.74 92.58 420.75 94.42 421.03 95.17 422.26 96.67 422.98 97.79 421.96 97.28 421.2 96.9 419.58 95.74 418.8 95.41 417.91 94.77 417.39 94.62 416.81 94.76 415.91 95.37 415.4 95.56 414.06 95.54 412.9 95.18 412.09 94.5 411.79 93.53 411.72 92.07 411.51 91.38 411.1 91.09 411.02 90.93 410.25 90.62 409.52 90.43 408.9 90.23 408.71 90.18 408.26 89.27 408.13 88.61 408.15 87.87 408.05 87.28 407.57 87.04 405.82 86.65 403.76 87.93 402.57 87.44 402.14 86.51 402.58 85.62 405.6 84.88 405.19 84.15 403.31 83.02 403.13 82.09 403.31 81.15 403.6 80.3 403.76 79.64 403.63 78.95 403.31 78.21 402.42 76.74 402.9 76.13 403.37 75.38 403.69 74.52 403.76 73.57 403.23 73.41 402.74 73.49 402.32 73.51 401.97 73.17 401.78 72.62 401.8 72.09 402.12 71.65 402.86 71.38 402.86 70.89 401.53 70.33 400.71 69.16 400.3 67.58 400.15 64.8 400.99 64.35 401.85 63.88 402.52 63.7 405.87 63.35 406.52 63.01 407.26 62.71 407.97 62.52 408.75 62.41 409.5 62.48 410.18 62.73 411.24 63.83 411.8 64.03 412.33 64.09 412.94 64.76 413.25 64.84 414.41 64.72 414.98 64.81 415.33 64.83 415.82 64.8 416.13 64.72 417.24 64.25 417.44 64.28 417.68 64.48 419.02 66.41 419.22 66.8 419.38 67.02 419.73 67 420.69 66.83 422.99 67.08 423.8 67.32 424.73 67.76 425.21 68.05 425.64 68.4 425.78 68.86 426.07 69.35 426.62 69.69 427.98 70.77 428.49 71.54 429.89 72.32 Z" id="EGY-1532" data-name="Al Minufiyah"/>
<path d="M 471.47 94.07 471.55 97.79 473.26 104.16 474.67 117.59 474.19 123.42 432.54 124.95 432.01 124.11 432.46 123.34 432.88 121.96 432.87 119.49 432.35 116.76 431.53 114.3 430.61 112.59 428.94 110.92 428.23 109.94 427.93 108.74 429.01 101.75 433.49 100.29 433.71 100.16 433.88 100.03 434.04 99.86 434.17 99.64 434.28 99.37 434.41 98.84 434.49 98.65 434.61 98.54 434.8 98.5 435.05 98.53 435.47 98.71 435.72 98.85 436.01 98.89 436.41 98.82 437.18 98.52 437.58 98.28 439.03 97.72 442.25 97.2 452.29 96.81 468.58 87.1 471.47 94.07 Z" id="EGY-1533" data-name="Al Qahirah"/>
<path d="M 452.29 96.81 442.25 97.2 439.03 97.72 437.58 98.28 437.18 98.52 436.41 98.82 436.01 98.89 435.72 98.85 435.47 98.71 435.05 98.53 434.8 98.5 434.61 98.54 434.49 98.65 434.41 98.84 434.28 99.37 434.17 99.64 434.04 99.86 433.88 100.03 433.71 100.16 433.49 100.29 429.01 101.75 428.98 101.15 428.8 100.53 428.42 100.03 427.77 99.69 425.21 99.44 424.36 99.06 422.98 97.79 422.26 96.67 421.03 95.17 420.75 94.42 420.74 92.58 420.54 91.55 420.06 91.09 420.29 88.19 420.27 87.53 419.56 86.77 417.86 85.68 417.14 84.77 418.57 85.07 419.17 85.05 419.86 84.77 420.45 84.26 420.51 83.86 420.34 83.47 420.27 83.02 420.25 82.27 420.1 82.04 420.15 82.08 420.75 82.13 421.27 82.39 421.48 82.84 421.66 82.93 422.09 82.13 422.31 81.25 422.28 80.63 422.37 80.08 422.98 79.41 423.6 79.1 424.69 78.93 425.21 78.56 425.29 78.2 425.2 77.74 425.18 77.35 425.46 77.18 425.53 77.11 426.55 76.74 428.38 75.4 428.38 74.99 428.01 74.51 427.87 73.83 428 73.16 428.38 72.68 428.75 72.76 429.18 73.16 429.76 73.45 430.61 73.17 429.89 72.32 430.06 70.8 431.98 71.43 432.81 71.98 433.7 71.95 434.55 71.74 435.11 71.39 436.54 71.76 435.1 72.89 433.43 73.9 432.7 74.73 432.33 75.47 432.23 76.59 431.4 78.89 431.29 80.7 431.76 81.17 432.87 81.96 433.51 83.13 433.98 83.73 434.6 84.24 435.24 84.93 435.87 85.78 436.36 87.39 436.95 88.43 437.5 89.77 438.04 90.38 438.68 90.93 452.29 96.81 Z" id="EGY-1534" data-name="Al Qalyubiyah"/>
<path d="M 436.54 71.76 438.05 70.27 438.36 68.95 438.29 67.68 438.13 67.07 437.72 65.89 437.42 64.05 436.84 61.79 436.89 60.47 437.08 59.56 437.48 58.82 438.02 58.27 438.66 57.83 439.72 57.5 440.98 57.25 444.17 57.2 444.78 57.3 445.43 57.32 446.44 57.18 447.06 57.01 449.24 57.25 450.07 57.15 451.1 56.62 451.75 55.89 453.76 54.41 454.15 53.82 454.22 53.25 453.98 52.21 454.01 51.46 454.51 50.99 455.09 50.79 455.81 50.62 456.31 50.42 457.15 49.88 457.57 49.22 457.9 48.45 458.52 47.36 461.94 43.85 464.35 39.96 464.68 39.6 464.81 39.57 465.13 39.54 465.45 39.56 465.9 39.64 466.22 39.64 466.36 39.62 466.63 39.54 466.93 39.51 467.43 39.49 467.55 39.46 468.12 39.2 468.41 39.17 468.58 39.17 468.72 39.2 469.21 39.38 469.49 39.44 469.64 39.45 469.79 39.45 470.09 39.37 470.53 39.2 470.67 39.17 471.6 39.1 474.66 38.47 475.44 38.41 475.58 38.37 475.73 38.32 477.73 36.95 477.99 36.87 478.29 36.84 479.45 36.88 479.61 36.87 480.26 36.62 482.25 35.49 482.25 35.49 482.39 35.86 482.79 36.23 483.41 36.43 483.41 36.91 482.74 37.06 482.27 37.32 481.94 37.7 481.7 38.25 482.03 38.38 482.55 38.7 483.18 38.35 483.77 38.26 484.3 38.39 484.75 38.7 484.75 39.1 484.3 39.1 484.3 39.59 484.96 40.08 485.79 40.41 486.66 40.44 487.46 39.99 487.46 39.59 486.5 39.57 485.85 39.14 485.45 38.49 485.23 37.8 486.21 37.98 487.53 38.56 488.15 38.66 488.19 39.05 489.28 40.31 490.25 40.81 491.39 41.55 492 43.54 492.02 44.31 491.93 45.12 491.53 46.15 489.6 48.24 488.67 50.69 487.76 52.02 487.36 53.18 486.54 54.79 486.49 57.31 487.33 60.76 486.65 62.46 485.28 64.99 480.93 69.93 478.91 71.72 477.13 72.68 475.23 72.74 473.55 72.95 472.56 73.25 470.81 73.44 467.97 73.46 467.76 73.42 464.76 72.63 464.54 72.66 464.41 72.65 464 72.55 463.71 72.52 463.54 72.61 463.39 72.84 463.37 73.52 463.68 74.21 464.41 75.02 465.15 75.54 465.79 76.29 466.39 77.94 466.64 80.31 468.58 87.1 452.29 96.81 438.68 90.93 438.04 90.38 437.5 89.77 436.95 88.43 436.36 87.39 435.87 85.78 435.24 84.93 434.6 84.24 433.98 83.73 433.51 83.13 432.87 81.96 431.76 81.17 431.29 80.7 431.4 78.89 432.23 76.59 432.33 75.47 432.7 74.73 433.43 73.9 435.1 72.89 436.54 71.76 Z M 497.78 36.47 496.11 37.17 493.76 37.64 488.12 38.19 488.1 38.19 487.87 37.8 488.91 37.77 489.25 37.8 489.25 37.32 488.96 37.25 488.9 37.2 488.91 37.11 488.82 36.94 488.91 36.86 489.7 36.43 489.73 36.82 489.92 36.9 490.21 36.87 490.59 36.91 490.33 36.2 490.84 35.74 491.56 35.68 492.28 36.77 493.11 37.03 494.13 37.05 495.05 36.91 496.62 36.13 497.35 34.98 497.16 33.77 495.98 32.82 497.55 32.77 497.61 32.78 497.61 32.78 497.66 32.86 497.78 36.47 Z" fill-rule="evenodd" id="EGY-1535" data-name="Ash Sharqiyah"/>
<path d="M 531.02 92.65 532.26 98.73 533.06 112.03 533.64 113.4 534.21 114.28 534.69 114.89 521.44 122.97 521.42 122.98 521.21 122.68 519.71 121.33 518.34 120.75 518.66 120.11 519.35 119.5 519.71 119.3 519.7 117.47 518.86 116.2 516.18 113.9 516.76 113.57 517.02 113.26 516.96 112.95 516.59 112.6 516.96 112.48 517.09 112.36 516.96 112.24 516.59 112.12 516.32 111.73 516.02 111.37 515.65 111.06 515.53 110.8 515.61 110.63 515.82 110.49 516.09 110.39 516.59 110.33 516.59 109.93 516.44 109.45 516.44 109.07 516.59 108.51 516.18 108.51 515.34 110.1 515.26 110.79 515.43 111.31 515.79 111.67 516.11 112.15 516.18 113.01 515.7 113.01 515.54 112.18 515.03 111.73 514.3 111.7 513.47 112.12 512.38 111.77 511.11 112.48 510 113.69 509.41 114.79 509.34 115.99 509.74 116.97 510.66 117.65 512.13 117.96 510.95 118.79 505.49 125.47 505.17 125.99 504.5 126.61 502.61 129.63 502.23 130.69 502.19 133.4 501.81 134.5 500.9 135.4 500.9 135.89 501.59 136.37 502.33 137.27 502.92 138.19 503.45 139.57 504.17 140.26 507.5 142.14 508.33 142.76 511.33 145.85 513.37 146.92 515.23 148.61 516.81 150.48 517.48 151.76 517.74 153.37 518.4 155.53 519.26 157.54 520.15 158.72 520.15 159.13 519.91 160.3 521.71 166.72 515.42 166.78 514.17 166.92 511.48 167.67 509.63 168.67 489.71 176.31 488.31 176.7 487.32 176.88 482.02 176.62 473.05 177.79 470.28 176.68 474.43 126.46 474.19 123.42 474.67 117.59 473.26 104.16 471.55 97.79 471.47 94.07 495.01 93.38 500.66 93.76 502.57 94.85 503.48 95.18 504.64 95.48 508.01 95.93 508.84 95.94 509.17 95.87 511.08 95.1 511.37 94.94 513.95 92.84 514.46 92.59 516.56 92.05 518.61 91.89 531.02 92.65 Z" id="EGY-1536" data-name="As Suways"/>
<path d="M 495.6 25.03 495.59 25.49 495.59 25.84 495.59 25.85 494.96 25.65 493.62 25.47 492.82 25.72 492.36 24.62 493.17 24.7 494.04 24.76 495.6 25.03 495.6 25.03 Z M 485.64 20.28 487.27 21.85 487.67 22.11 488.61 22.48 491.21 24.25 491.87 24.62 489.87 24.25 483.41 20.77 483.78 20.8 484.06 20.77 484.24 20.85 484.75 21.22 484.59 20.74 484.29 20.45 484.25 20.44 484.26 20.43 484.5 20.31 484.96 20.01 485.64 20.28 Z M 482.25 35.49 480.26 36.62 479.61 36.87 479.45 36.88 478.29 36.84 477.99 36.87 477.73 36.95 475.73 38.32 475.58 38.37 475.44 38.41 474.66 38.47 471.6 39.1 470.67 39.17 470.53 39.2 470.09 39.37 469.79 39.45 469.64 39.45 469.49 39.44 469.21 39.38 468.72 39.2 468.58 39.17 468.41 39.17 468.12 39.2 467.55 39.46 467.43 39.49 466.93 39.51 466.63 39.54 466.36 39.62 466.22 39.64 465.9 39.64 465.45 39.56 465.13 39.54 464.81 39.57 464.68 39.6 464.35 39.96 461.94 43.85 458.52 47.36 457.9 48.45 457.57 49.22 457.15 49.88 456.31 50.42 455.81 50.62 455.09 50.79 454.51 50.99 454.01 51.46 453.98 52.21 454.22 53.25 454.15 53.82 453.76 54.41 451.75 55.89 451.1 56.62 450.07 57.15 449.24 57.25 447.06 57.01 446.44 57.18 445.43 57.32 444.78 57.3 444.17 57.2 440.98 57.25 439.72 57.5 438.66 57.83 438.02 58.27 437.48 58.82 437.08 59.56 436.89 60.47 436.84 61.79 437.42 64.05 437.72 65.89 438.13 67.07 438.29 67.68 438.36 68.95 438.05 70.27 436.54 71.76 435.11 71.39 434.55 71.74 433.7 71.95 432.81 71.98 431.98 71.43 430.06 70.8 431.06 67.81 431.15 66.05 430.38 63.05 430.16 61.28 430.02 60.8 429.72 60.66 429.41 60.62 429.27 60.41 428.82 58.81 428.57 56.06 427.95 55.48 427.63 55.02 427.46 54.55 427.78 54.27 429.27 53.9 429.71 53.67 429.99 53.65 430.13 53.46 430.16 52.76 430.02 52.51 429.65 52.17 429.22 51.85 428.82 51.63 429.32 51.55 429.59 51.44 429.82 51.31 430.16 51.18 429.28 50.49 429.51 49.97 430.17 49.5 430.61 48.95 430.55 48.13 430.24 47.61 430.01 47.1 430.16 46.27 430.7 45.61 431.4 45.43 432.17 45.33 432.88 44.93 433.04 44.65 433.46 42.79 433.35 42.3 433.44 41.96 433.18 41.8 432.84 41.75 432.24 41.99 431.6 42.09 430.93 42.25 430.38 42.54 429.65 42.74 429.47 42.71 428.86 42.49 428.46 42.39 428.08 42.24 427.75 41.87 427.83 41.35 428.45 39.62 428.92 36.53 429 36.4 429.17 36.49 429.29 36.6 429.72 36.72 430.8 36.21 431.33 35.85 432.07 35.51 432.66 35.51 433.05 35.34 432.83 34.74 431.72 33.84 431.35 33.31 431.28 32.71 431.91 31.24 432.13 30.16 432.06 28.28 431.85 27.17 431.78 26.04 431.99 23.14 431.94 21.09 431.35 17.15 431.15 16.52 430.86 15.93 429.95 15.03 429.66 14.68 429.49 14.14 429.55 13.59 429.7 13.01 429.93 12.63 431.57 11.49 436.34 9.29 436.35 9.29 436.35 9.29 438.22 10.02 440.9 11.8 447.7 14.52 449.87 14.93 450.83 14.9 450.81 15.01 450.6 15.62 450.42 15.99 450.1 16.45 449.64 16.88 447.4 18.31 446.27 19.44 446.1 19.69 446.18 20.05 446.71 20.38 449.66 20.78 450.05 20.94 450.23 21.37 450.12 21.82 450.16 22.28 450.35 22.61 450.79 22.79 451.28 22.68 451.76 22.75 452.59 23.34 453.05 23.55 453.49 23.58 453.79 23.84 454.25 24.67 454.47 24.78 454.91 24.91 455.55 24.65 455.97 24.32 456.13 23.94 456.11 23.68 455.91 23.07 455.92 22.86 456.03 22.6 457.3 22.15 457.64 22.11 458.05 22.11 458.32 22.61 458.42 23.07 458.6 23.6 458.35 23.88 458.35 24.37 458.78 24.88 458.56 25.17 458.01 25.17 457.46 24.77 457.02 24.77 456.86 24.97 456.75 25.2 456.57 25.71 457.79 26.23 457.67 26.98 456.74 27.65 455.47 27.94 454.37 28.01 454.35 28.27 454.72 28.82 454.78 29.72 453.58 31.12 452.48 31.43 452.63 32.23 452.89 32.83 453.35 33.13 454.15 33.08 457.8 30.4 459.51 29.61 462.42 28.98 464.43 27.82 465.43 25.75 465.52 25.72 465.4 25.6 465.31 25.57 465.23 25.51 465.12 25.27 466.05 25.61 466.49 25.69 467.1 25.72 467.63 25.99 467.74 26.59 467.74 27.19 467.99 27.46 468.73 27.63 469.75 28.06 470.73 28.66 471.36 29.29 471.86 28.22 472.2 27.78 472.7 27.46 472.43 28.07 472.34 28.47 472.43 28.83 472.7 29.29 471.81 29.29 471.81 29.74 472.7 29.74 472.49 29.88 472.3 29.98 472.19 30.18 472.26 30.62 472.57 30.58 472.75 30.46 472.9 30.3 473.14 30.14 473.23 30.25 473.2 30.41 473.28 30.55 473.59 30.62 473.59 30.14 474.03 30.14 473.71 31.06 474.02 31.68 474.57 31.64 474.93 30.62 475.69 30.53 476.71 29.6 477.95 28.85 479.44 29.29 478.5 29.29 478.5 29.74 479.44 30.14 479.61 29.87 480.02 29.59 480.32 29.29 481.26 29.74 481.26 30.14 480.98 30.43 480.87 30.64 480.77 31.52 481.5 31.23 481.7 31.07 481.6 31.62 481.47 31.99 481.23 32.23 480.77 32.41 480.77 32.82 481.21 33.38 481.24 34.08 479.88 35.09 479.88 35.53 480.59 35.56 481.13 35.43 481.51 35.13 481.7 34.64 482.11 34.64 482.19 35.33 482.25 35.49 Z" fill-rule="evenodd" id="EGY-1537" data-name="Ad Daqahliyah"/>
<path d="M 518.18 45.62 499.17 36.14 497.78 36.47 497.66 32.86 497.61 32.78 497.77 32.82 498.09 30.87 498.11 29.96 497.77 28.84 496.67 27.64 496.51 27.07 497.32 26.57 496.34 26.08 495.59 25.85 495.59 25.84 495.59 25.49 495.6 25.03 498.47 25.51 499.34 26.08 499.75 26.08 500.49 26.16 500.65 27.26 501.33 28.09 502.3 28.64 504.31 29.1 505.06 29.71 506.29 31.07 509.07 33.38 510.28 34.17 512.13 36.91 513.85 38.24 515.8 39.29 518.02 39.88 518.01 39.95 518.18 45.62 Z" id="EGY-1538" data-name="Bur Sa`id"/>
<path d="M 484.96 20.01 484.5 20.31 484.26 20.43 484.25 20.44 483.83 20.32 482.49 20.19 482.19 19.95 482.02 19.66 481.7 19.39 479.96 18.58 479.26 18.07 478.99 18.09 478.5 18.09 478.3 17.2 477.89 16.43 477.36 15.81 476.76 15.38 477.61 15.38 478.41 15.29 475.11 11.77 474.41 10.72 473.47 9.66 472.73 9.29 472.7 9.57 471.61 9.13 471.18 9.36 470.92 10.02 470.02 9.57 470.01 9.78 470.06 10.22 470.02 10.42 469.79 10.29 469.34 10.15 469.09 10.02 469.11 10.53 468.99 10.89 468.68 11.36 470.02 11.36 469.66 12.08 470.66 13.62 470.47 14.52 470.92 14.52 470.92 14.93 470.47 14.93 470.61 15.22 470.82 15.53 470.92 15.86 470.47 15.86 470.25 15.06 469.82 14.46 469.15 14.09 468.24 14.04 468.48 13.55 468.22 13.48 467.75 13.92 467.34 14.93 467.75 14.98 467.97 14.9 468.24 14.52 468.7 14.83 469.07 14.96 469.58 14.93 469.58 15.38 469.09 15.38 469.09 15.86 469.34 16.25 469.72 16.52 470.23 16.68 470.92 16.71 470.45 17.12 469.79 17.26 469.14 17.13 468.68 16.71 468.24 16.71 468.28 17.05 468.16 17.13 467.96 17.12 467.75 17.2 468.04 17.39 468.28 17.6 468.68 18.09 467.77 19.08 467.58 19.83 468.17 20.25 469.58 20.28 469.58 20.77 468.7 20.62 467.99 20.38 467.4 20.33 466.85 20.77 466.45 20.77 466.01 20.37 465.58 20.41 465.25 20.79 465.12 21.46 465.39 21.78 465.84 22.02 465.94 22.25 465.12 22.56 465.12 22.96 465.49 23.58 465.03 23.81 464.29 23.97 463.74 24.38 463.6 25.3 464.01 25.87 464.73 26.04 465.43 25.75 465.43 25.75 464.43 27.82 462.42 28.98 459.51 29.61 457.8 30.4 454.15 33.08 453.35 33.13 452.89 32.83 452.63 32.23 452.48 31.43 453.58 31.12 454.78 29.72 454.72 28.82 454.35 28.27 454.37 28.01 455.47 27.94 456.74 27.65 457.67 26.98 457.79 26.23 456.57 25.71 456.75 25.2 456.86 24.97 457.02 24.77 457.46 24.77 458.01 25.17 458.56 25.17 458.78 24.88 458.35 24.37 458.35 23.88 458.6 23.6 458.42 23.07 458.32 22.61 458.05 22.11 457.64 22.11 457.3 22.15 456.03 22.6 455.92 22.86 455.91 23.07 456.11 23.68 456.13 23.94 455.97 24.32 455.55 24.65 454.91 24.91 454.47 24.78 454.25 24.67 453.79 23.84 453.49 23.58 453.05 23.55 452.59 23.34 451.76 22.75 451.28 22.68 450.79 22.79 450.35 22.61 450.16 22.28 450.12 21.82 450.23 21.37 450.05 20.94 449.66 20.78 446.71 20.38 446.18 20.05 446.1 19.69 446.27 19.44 447.4 18.31 449.64 16.88 450.1 16.45 450.42 15.99 450.6 15.62 450.81 15.01 450.83 14.9 450.83 14.9 452.52 14.85 462.38 12.43 468.24 9.57 470.62 8.9 473.14 8.95 475.22 9.86 476.16 11.6 476.49 12.38 478.55 14.77 479.42 16.64 480.46 17.76 482.55 19.39 483.24 19.65 484.84 19.96 484.96 20.01 484.96 20.01 Z" id="EGY-1539" data-name="Dumyat"/>
<path d="M 321.86 43.28 321.86 43.33 323.61 87.22 326.68 92.79 369.6 115.91 318.76 143.05 276.31 180.56 263.11 189.3 211.3 201.21 206.44 202.94 203.35 205.94 201.55 208.36 173.3 261.66 21.37 261.75 20.14 261.75 20.14 238.75 20.14 233.64 20.14 207.83 20.14 181.78 20.14 170.82 20.14 162.75 19.69 158.99 18.53 155.48 13.12 144 12.47 141.74 12.32 139.21 12.91 134.48 12.91 132.89 11.97 130.2 8.62 125.28 8.18 122.56 9.27 119.15 9.36 117.85 9.06 116.38 3.43 104.13 1.59 101.24 1 99.83 1.02 97.31 2.07 95.01 4.78 90.78 5.87 88.53 6.49 87.62 8.26 85.67 10.24 83.93 14.06 78.91 15.33 76.67 15.95 74.46 16.16 73.16 18.14 68.66 18.83 65.06 19.64 62.44 20.62 60.2 21.03 57.95 20.14 55.31 17.29 50.06 16.44 46.73 14.15 42.67 13.7 41.35 12.19 34.36 12.12 29.01 11.48 23.51 11.5 21.12 12.3 19.05 22.92 11.59 25.32 6.04 27.15 3.81 31.23 1 31.13 1.5 31.94 5.77 32.66 7.86 33.84 9.17 35.26 9.5 38.58 9.68 41.11 10.8 42.46 10.81 45.45 10.42 46.08 10.59 46.83 10.89 47.63 11.02 48.83 10.43 50.44 10.07 52.34 9.89 62.96 7.26 75.22 3.72 78.15 3.32 84.55 3.61 110.39 9.79 129.24 11.96 130.32 12.47 131.36 12.78 134.62 12.58 135.94 12.7 140.62 14.64 143.3 15.35 146.3 15.38 148.67 14.61 149.82 14.52 150.93 15.15 151.84 15.89 152.5 16.13 153.1 16.16 153.84 16.31 155.62 17.2 159.74 18.39 164.17 18.78 165.79 19.19 166.86 19.87 167.26 19.57 167.89 19.24 168.15 18.98 168.93 19.07 173.03 19 173.47 19.12 173.95 19.39 174.44 19.84 174.42 20.07 174.3 20.31 174.44 20.77 174.93 21.6 175.23 21.96 175.56 22.11 175.75 22.3 175.84 23.28 176.02 23.67 176.48 24.4 177.13 26.36 177.79 27.26 179.35 28.4 181.24 29.31 183.31 29.92 187.4 30.46 189.02 31.03 190.48 31.28 191.93 30.62 195.22 32.12 199.09 31.53 206.69 28.35 207.81 28.2 208.49 28.64 208.83 29.56 208.92 30.85 209.11 31.38 210.25 33.74 210.51 35.89 210.7 36.43 212.65 37.43 215.8 37.82 227.52 37.8 228.29 37.97 228.88 38.35 229.4 38.78 229.93 39.1 230.75 39.29 232.69 39.1 234.18 39.24 236.97 39.85 238.23 39.99 239.55 39.71 242.39 38.49 243.89 38.25 245.15 38.45 246.32 38.91 247.34 39.53 248.12 40.24 248.7 40.52 251.02 40.48 251.9 40.63 252.6 40.86 253.69 41.37 265.3 44.94 267.63 46.08 268.9 46.54 270.49 46.73 270.88 47.09 271.34 48.84 271.59 49.44 272.04 49.73 273.26 50.05 284.61 55.2 295.14 54.8 297.08 54.49 306.02 50.76 315.66 46.73 319.13 44.5 321.86 43.28 Z" id="EGY-1540" data-name="Matruh"/>
<path d="M 374.15 14.91 374.18 14.92 375.27 15.08 375.89 15.86 376.01 17.13 375.97 18.75 376.25 18.96 376.84 19.1 377.44 19.39 377.71 20.07 377.81 20.69 378.08 21.16 378.5 21.49 379.09 21.69 379.13 21.45 379.34 21.01 379.71 20.73 380.23 20.98 380.51 21.23 381.07 21.52 381.32 21.69 381.7 22.05 381.99 22.46 382.19 22.98 382.26 23.66 382.12 24.99 381.76 26.24 381.18 27.27 380.43 27.94 380.43 28.34 380.7 28.49 380.75 28.55 380.77 28.63 380.92 28.83 381.32 28.83 381.32 28.34 381.77 28.34 382.07 28.91 382.47 30.68 382.46 31.06 383.58 31.09 383.6 31.06 383.93 31.02 384.14 30.83 384.4 30.65 384.89 30.62 385.39 30.86 386.11 31.72 386.49 31.91 387.21 32.13 387.73 32.6 390.74 36.42 393.83 37.88 394.31 38.47 394.49 38.76 395.39 39.83 395.68 40.47 395.71 41.14 395.5 42.11 395.68 42.66 396.25 43.04 397.36 44 398.03 44.97 397.25 45.42 397.38 45.8 398.94 47.87 399.25 48.95 398.68 49.8 397.8 50.67 397.61 51.35 399.05 51.63 399.75 51.89 400 52.51 399.95 53.26 399.74 53.9 399.44 54.28 397.92 55.2 399.93 54.84 400.85 54.79 401.49 55.2 401.39 55.81 400.57 56.17 398.85 56.58 398.47 56.93 397.83 57.69 397.35 58.57 397.47 59.29 398.35 59.58 399.23 59.33 399.91 59.35 400.19 60.41 399.84 60.65 399.18 61.51 398.74 62.43 399.05 62.86 399.65 63.15 399.99 63.86 400.15 64.8 400.3 67.58 400.71 69.16 401.53 70.33 402.86 70.89 402.86 71.38 402.12 71.65 401.8 72.09 401.78 72.62 401.97 73.17 402.32 73.51 402.74 73.49 403.23 73.41 403.76 73.57 403.69 74.52 403.37 75.38 402.9 76.13 402.42 76.74 403.31 78.21 403.63 78.95 403.76 79.64 403.6 80.3 403.31 81.15 403.13 82.09 403.31 83.02 405.19 84.15 405.6 84.88 402.58 85.62 402.14 86.51 402.57 87.44 372.24 111.16 369.6 115.91 326.68 92.79 323.61 87.22 327.51 79.05 330.4 76.4 341.1 72.04 343.45 70.64 345.57 68.66 347.19 66.51 348.95 63.62 348.06 61.18 347.13 59.55 344.11 56.39 339.92 50.49 339.44 49.34 339.25 47.85 340.19 46.27 341.39 45.08 342.19 43.94 342.23 43.57 341.64 41.84 340.35 41.17 339.93 40.51 339.67 40.19 339.61 39.96 339.53 39.75 339.44 39.23 339.47 38.96 339.56 38.73 339.65 38.63 339.97 38.4 343.69 36.96 348.13 34.7 348.87 34.18 350.64 32.06 354.41 25.7 354.56 25.3 357.01 25.94 359.41 26.16 358.87 26.45 358.13 27.18 357.58 27.46 357.54 27.79 357.64 27.88 357.84 27.89 358.07 27.95 357.29 28.4 357.52 28.91 358.23 29.38 358.92 29.74 361.64 28.35 361.31 29.1 361.67 29.47 362.23 29.56 362.53 29.51 362.79 29.08 364.76 27.46 364.94 27.77 364.99 27.8 365.21 27.95 365.37 27.57 365.51 27.35 365.62 27.09 365.69 26.57 366.1 26.57 366.07 27.27 366.2 27.8 366.52 28.16 367 28.35 367.26 27.92 367.93 26.16 366.92 25.72 366 25.91 365.03 26.33 363.87 26.57 363.87 26.16 364.07 26.13 364.55 26.19 364.76 26.16 364.76 25.72 363.71 26 359.85 26.16 359.85 25.72 362.28 25.18 364.58 24.07 368.57 20.99 369.99 19 370.89 16.37 371.16 13.63 370.6 11.36 371.05 11.36 371.37 12.61 371.95 13.83 372.86 14.71 374.18 14.93 374.15 14.91 Z" id="EGY-1541" data-name="Al Buhayrah"/>
<path d="M 420.13 148.46 417.52 150.76 414.99 155.11 412.32 157.67 411.12 159.72 409.05 162.45 404.61 166.72 399.11 169.22 371.9 175.93 368.8 176.16 364.45 173.42 336.03 168.83 366.53 142.91 371.32 139.55 383.17 133.41 396.88 127.93 410.59 126.44 413.63 128.51 415.47 130.13 420.13 148.46 Z" id="EGY-1542" data-name="Al Fayyum"/>
<path d="M 354.56 25.3 354.41 25.7 350.64 32.06 348.87 34.18 348.13 34.7 343.69 36.96 339.97 38.4 339.65 38.63 339.56 38.73 339.47 38.96 339.44 39.23 339.53 39.75 339.61 39.96 339.67 40.19 339.93 40.51 340.35 41.17 341.64 41.84 342.23 43.57 342.19 43.94 341.39 45.08 340.19 46.27 339.25 47.85 339.44 49.34 339.92 50.49 344.11 56.39 347.13 59.55 348.06 61.18 348.95 63.62 347.19 66.51 345.57 68.66 343.45 70.64 341.1 72.04 330.4 76.4 327.51 79.05 323.61 87.22 321.86 43.33 321.86 43.28 321.86 43.28 322.23 43.12 322.71 42.47 323.21 41.99 332.83 35.96 333.85 34.23 335.67 34.6 337.56 33.83 340.59 31.52 340 30.77 339.75 30.82 339.21 31.07 339.58 30.41 340.09 29.95 340.6 29.93 341 30.62 341.47 30.62 342.22 29.91 345.27 27.56 346.16 27.05 347.03 26.7 348.33 25.14 348.86 24.78 349.77 24.63 350.28 24.27 350.71 23.83 351.33 23.44 351.13 23.37 350.95 23.37 350.85 23.28 350.89 22.96 352.67 22.11 352.48 23.98 354.33 25.24 354.56 25.3 354.56 25.3 Z" id="EGY-1543" data-name="Al Iskandariyah"/>
<path d="M 422.98 97.79 424.36 99.06 425.21 99.44 427.77 99.69 428.42 100.03 428.8 100.53 428.98 101.15 429.01 101.75 427.93 108.74 428.23 109.94 428.94 110.92 430.61 112.59 431.53 114.3 432.35 116.76 432.87 119.49 432.88 121.96 432.46 123.34 432.01 124.11 432.54 124.95 474.19 123.42 474.43 126.46 470.28 176.68 446.23 170.3 444.99 169.78 443.04 168.74 441.78 167.87 439.19 165.49 438.42 164.63 438.12 164.15 437.22 162.34 436.75 161.73 436.32 161.29 434.94 160.24 430.16 155.08 430.34 154.33 430.4 153.8 430.38 153.09 430.2 152.43 429.89 151.78 429.27 150.82 428.82 150.32 428.27 149.91 427.68 149.56 426.7 149.13 424.76 148.6 423.08 148.38 420.13 148.46 415.47 130.13 413.63 128.51 410.59 126.44 396.88 127.93 383.17 133.41 371.32 139.55 366.53 142.91 336.03 168.83 333.37 185.33 331.74 190.34 321.14 214.83 312.83 224.53 302.94 231.04 272.72 245.13 268.06 248.25 264.79 252.62 260.11 261.66 173.3 261.66 201.55 208.36 203.35 205.94 206.44 202.94 211.3 201.21 263.11 189.3 276.31 180.56 318.76 143.05 369.6 115.91 372.24 111.16 402.57 87.44 403.76 87.93 405.82 86.65 407.57 87.04 408.05 87.28 408.15 87.87 408.13 88.61 408.26 89.27 408.71 90.18 408.9 90.23 409.52 90.43 410.25 90.62 411.02 90.93 411.1 91.09 411.51 91.38 411.72 92.07 411.79 93.53 412.09 94.5 412.9 95.18 414.06 95.54 415.4 95.56 415.91 95.37 416.81 94.76 417.39 94.62 417.91 94.77 418.8 95.41 419.58 95.74 421.2 96.9 421.96 97.28 422.98 97.79 Z" id="EGY-1544" data-name="Al Jizah"/>
<path d="M 409.83 193.19 407.75 209.12 407.42 210.49 407.03 211.24 403.85 216.04 401.96 220.39 401.57 221.88 401.41 223.05 401.51 223.76 402.16 226.71 402.45 229.53 402.59 230.28 402.87 231.05 406.4 237.17 407.43 239.78 407.77 241.56 408.31 247.73 408.69 249.2 410.2 252.69 410.52 253.96 410.81 255.95 410.86 257.49 410.81 258.54 409.64 264.78 402.66 265.53 401.97 265.42 398.15 264.08 397.72 264.07 397.09 264.12 395.01 264.53 393.77 264.56 391.99 263.87 392.31 263.08 393.08 261.68 260.11 261.66 264.79 252.62 268.06 248.25 272.72 245.13 302.94 231.04 312.83 224.53 321.14 214.83 331.74 190.34 398.36 188.92 399.53 190.02 409.83 193.19 Z" id="EGY-1545" data-name="Al Minya"/>
<path d="M 430.16 155.08 429.9 157.84 430.14 160.43 430.03 161.36 429.55 162.57 428.81 163.94 427.66 166.63 426.84 168.06 425.93 169.26 423.02 172.01 421.18 174.14 417.41 179.5 413.02 184.67 411.63 186.92 410.41 189.94 409.95 191.86 409.83 193.19 399.53 190.02 398.36 188.92 331.74 190.34 333.37 185.33 336.03 168.83 364.45 173.42 368.8 176.16 371.9 175.93 399.11 169.22 404.61 166.72 409.05 162.45 411.12 159.72 412.32 157.67 414.99 155.11 417.52 150.76 420.13 148.46 423.08 148.38 424.76 148.6 426.7 149.13 427.68 149.56 428.27 149.91 428.82 150.32 429.27 150.82 429.89 151.78 430.2 152.43 430.38 153.09 430.4 153.8 430.34 154.33 430.16 155.08 Z" id="EGY-1546" data-name="Bani Suwayf"/>
<path d="M 429.72 36.72 428.38 35.63 427.98 35.42 427.35 35.26 426.66 35.2 425.9 35.25 425.15 35.56 423.75 36.68 423.06 36.7 421.6 36.13 418.1 35.98 417.58 36.56 417.48 37.17 417.48 37.84 417.59 38.91 417.54 39.28 417.33 39.81 417.05 40.39 416.68 41.66 416.1 42.22 415.03 42.66 410.33 42.91 409.75 43.06 409.11 43.41 408.38 43.72 408.13 43.89 408.06 43.99 408.17 44.23 407.99 44.35 407.5 44.55 406.46 44.44 405.51 44.53 404.38 44.92 403.61 45.05 399.76 43.84 399.59 43.74 399.11 43.61 398.64 43.69 398.03 44.97 397.36 44 396.25 43.04 395.68 42.66 395.5 42.11 395.71 41.14 395.68 40.47 395.39 39.83 394.49 38.76 394.31 38.47 393.83 37.88 390.74 36.42 387.73 32.6 387.21 32.13 386.49 31.91 386.11 31.72 385.39 30.86 384.89 30.62 384.4 30.65 384.14 30.83 383.93 31.02 383.6 31.06 383.58 31.09 382.46 31.06 382.47 30.68 382.07 28.91 381.77 28.34 381.32 28.34 381.32 28.83 380.92 28.83 380.77 28.63 380.75 28.55 380.7 28.49 380.43 28.34 380.43 27.94 381.18 27.27 381.76 26.24 382.12 24.99 382.26 23.66 382.19 22.98 381.99 22.46 381.7 22.05 381.32 21.69 381.07 21.52 380.51 21.23 380.23 20.98 379.71 20.73 379.34 21.01 379.13 21.45 379.09 21.69 378.5 21.49 378.08 21.16 377.81 20.69 377.71 20.07 377.44 19.39 376.84 19.1 376.25 18.96 375.97 18.75 376.01 17.13 375.89 15.86 375.27 15.08 374.18 14.92 374.15 14.91 372.35 13.73 371.37 11.81 371.79 10.66 374.18 11.8 375.94 12.95 377.95 13.66 380.31 13.89 383.14 13.59 392.34 11.48 411.77 5.56 411.77 6 410.78 6.12 404.75 8.07 399.69 10.55 396.23 11.96 393.44 13.59 393.07 13.73 392.18 13.86 391.65 14.04 389.17 15.52 388.04 15.86 385.44 16.02 384.88 16.31 384.58 16.31 383.59 17.6 383.59 18.09 384.94 18.4 385.4 18.41 385.81 18.09 386.26 18.09 387.25 18.59 389.08 18.5 390.85 18.03 391.65 17.4 392.24 16.35 393.55 16.66 394.92 17.63 395.67 18.54 396.12 18.54 396.53 17.4 397.55 16.26 398.75 15.35 399.73 14.93 400.31 14.72 401.03 15.01 401.88 15.49 402.85 15.86 403.47 15.79 404.31 15.58 405.22 15.51 406.01 15.86 405.81 15.92 405.63 15.92 405.53 16 405.57 16.31 406.45 16.51 407.56 16.21 408.67 15.6 409.54 14.93 409.38 14.86 409.22 14.87 409.12 14.81 409.14 14.52 409.36 14.38 409.39 14.32 409.4 14.25 409.54 14.04 411.78 14.88 412.22 15.38 412.82 14.93 413.28 14.42 414.01 13.1 413.62 12.56 413.85 12.13 414.9 11.36 415.09 10.96 415.02 10.63 415 10.32 415.38 10.02 415.76 9.94 418.14 10.09 418.75 10.3 419.84 10.91 420.02 11.16 420 11.46 420.12 11.72 420.74 11.8 421.26 11.68 421.66 11.37 421.92 10.93 420.74 10.42 421.16 10.18 421.55 10.06 422 10.12 420.74 8.63 418.11 6.95 414.99 5.8 412.04 5.72 412.67 5.41 414.29 4.89 419.84 4.18 421.89 4.37 427.92 6 436.35 9.29 436.34 9.29 431.57 11.49 429.93 12.63 429.7 13.01 429.55 13.59 429.49 14.14 429.66 14.68 429.95 15.03 430.86 15.93 431.15 16.52 431.35 17.15 431.94 21.09 431.99 23.14 431.78 26.04 431.85 27.17 432.06 28.28 432.13 30.16 431.91 31.24 431.28 32.71 431.35 33.31 431.72 33.84 432.83 34.74 433.05 35.34 432.66 35.51 432.07 35.51 431.33 35.85 430.8 36.21 429.72 36.72 Z" id="EGY-1547" data-name="Kafr ash Shaykh"/>
<path d="M 445.81 632.37 441.94 632.37 444.02 626.57 445.54 622.38 445.62 620.75 445.04 619.3 443.6 617.99 442.4 617.42 441.14 617.24 439.88 617.45 438.66 618.05 436.97 619.78 434.02 625.38 434.01 625.36 433.92 625.16 433.44 624.45 432.79 623.8 429.91 621.85 429.24 621.24 428.66 620.61 428.32 619.9 428.19 619.2 428.4 618.3 428.88 617.33 429.87 615.95 430.73 615.12 431.61 614.48 433.24 613.74 434.86 613.29 436.5 613.07 439.82 612.9 441.37 612.66 442.98 612.15 444.56 611.48 445.62 610.91 447.92 609.23 452.51 603.8 453.06 602.78 453.48 601.74 453.97 599.65 454.01 599.22 453.6 595.66 452.51 591.81 452.27 590.38 452.27 589.69 452.53 588.73 453.04 587.69 454.19 586.01 455.1 585.07 456.05 584.35 456.93 583.97 457.81 583.69 458.63 583.51 459.43 583.43 460.92 583.48 466.54 584.86 467.25 584.92 467.98 584.85 488.77 575.67 490.6 575.19 491.46 575.08 492.24 575.15 493.05 575.4 494.49 576.28 497.46 578.55 498.24 578.89 499.11 579.06 499.99 579.06 501.8 578.76 502.57 578.73 503.33 578.9 504.01 579.28 504.58 579.85 505.39 581.11 505.92 581.65 506.6 581.82 507.32 581.57 507.93 580.92 509.25 578.4 509.72 577.75 510.29 577.1 510.96 575.87 511.57 574.1 512.36 570.41 513.02 568.59 513.68 567.35 514.3 566.62 514.52 566.27 515.11 565.06 517.06 559.17 520.24 552.63 521.92 550.52 527.66 544.86 528.22 543.95 528.62 543.08 528.86 541.87 528.81 540.82 528.37 539.64 527.7 539.3 526.92 539.21 518.1 540.41 511.57 540.2 508.92 539.73 508.15 539.47 507.44 539.1 506.91 538.38 506.69 537.38 507.04 535.76 507.34 534.85 507.9 533.7 508.39 531.98 509.32 527.03 510.13 524.16 510.52 523.49 512.09 521.37 513.32 520.05 514.76 518.78 515.52 518.3 516.27 517.92 517.04 517.64 518.69 517.27 526.72 516.23 527.54 515.95 528.27 515.53 528.69 514.82 528.72 513.97 528.16 512.74 527.52 512.08 526.79 511.6 525.28 510.96 522.33 509.36 521.62 508.82 521.02 508.18 520.7 507.26 520.57 506.15 520.76 504.28 521.22 502.27 521.65 501.42 521.84 501.18 522.17 500.8 522.75 500.33 523.44 500.01 524.22 499.78 525.77 499.56 529.96 499.7 531.54 499.47 532.33 499.24 533.14 498.9 533.88 498.45 534.58 497.87 535.12 497.15 535.34 496.67 535.95 496.12 536.06 495.46 536.76 493.11 536.72 491.9 535.87 489.18 535.73 488.35 535.87 486.26 536.01 485.49 536.05 483.98 536.51 480.71 536.52 479.95 535.94 475.39 536.1 471.8 536.3 470.41 536.3 469.5 536.21 469.34 536.56 466.73 538.99 461.44 539.63 458.95 539.41 458.06 539.37 457.69 538.85 455.26 537.59 451.79 534.81 446.46 534.36 445.35 534.12 444.42 533.39 437.72 532.44 435.28 531.66 433.86 530.54 432.34 529.17 430.88 526.88 429.28 521.56 426.49 522.7 425.62 523.25 425.34 523.88 424.9 524.17 424.3 524.38 423.37 524.4 419.9 524.89 418.38 538.14 427.58 540.59 430.45 542.85 433.97 543.69 435.91 544.21 437.78 544.77 441.65 544.96 450.41 545.4 452.73 545.73 453.68 552.78 467.13 552.87 467.65 552.78 468.88 552.3 470.5 552.06 471.08 551.25 472.51 550.27 473.93 544.93 480.38 544.32 481.55 542.94 486.72 542.36 491.18 544.21 502.34 544.81 503.84 546.35 506.46 548.08 510.93 548.66 512.07 549.71 513.36 550.96 514.37 552.31 515.2 553.04 515.78 553.75 516.55 554.53 517.95 554.79 518.93 554.85 519.8 554.76 520.79 554.78 522.03 555.19 525.49 555.1 526.56 554.8 527.24 553.47 529.24 553.3 530.3 553.33 531.99 554.77 538.08 555.18 539.09 557.02 541.74 557.78 543.24 558.03 544.26 558.09 545.17 557.97 545.89 557.47 547.52 555.15 553.07 554.78 553.74 554.35 554.32 552.35 555.8 551.71 556.45 551.25 557.21 550.34 559.46 549.99 560.12 549.5 560.76 548.22 562.06 547.84 562.99 547.98 563.79 548.43 564.51 549.1 565.06 553.6 567.59 557.48 568.93 558.23 569.31 558.89 569.83 559.44 570.47 560.29 571.93 560.87 572.57 562.13 573.62 562.68 574.29 563.08 574.97 565.85 583.5 565.99 585.17 565.73 585.91 565.17 586.24 564.52 586.21 563.83 586.01 563.15 585.71 558.91 582.8 553.65 577.79 552.12 576.91 550.6 576.44 548.94 576.29 543.6 577.11 542.96 577.1 542.26 577 541.56 576.82 540.83 576.52 539.28 575.42 536.43 572.58 535.68 571.97 534.93 571.51 534.23 571.35 533.58 571.45 533.04 571.91 532.7 572.53 532.04 574.5 531.59 575.1 530.3 576.26 529.8 577.16 529.75 578.04 530.17 580.87 530.09 582.76 529.86 583.93 529.48 584.82 528.6 586.17 526.91 588.21 518.44 595.31 516.36 597.44 513.94 599.44 512.81 600.13 511.51 600.75 508.55 601.63 505.43 602.12 501.8 602.04 500.94 601.91 499.27 601.41 497.67 600.71 496.97 600.29 496.36 599.84 493.67 596.94 490.67 594.69 489.95 594.28 489.2 593.97 488.48 593.89 487.78 594.12 487.14 594.59 486.68 595.22 485.96 596.64 481.72 607.73 480.63 609.4 479.48 610.79 478.58 611.68 475.94 613.47 475.21 613.86 474.43 614.12 473.64 614.26 471.41 614.32 470.57 614.46 469.7 614.76 468.96 615.38 468.42 616.06 467.54 617.51 466.42 618.85 465.67 619.4 452.13 625.3 450.7 626.1 449.22 627.17 447.75 628.77 445.9 632.06 445.81 632.35 445.81 632.37 Z" id="EGY-1548" data-name="Aswan"/>
<path d="M 409.64 264.78 409.41 270.56 409.51 272.47 409.72 273.36 410.35 275.19 410.76 276.05 411.23 276.79 411.81 277.46 412.45 277.97 418.18 280.92 424.81 283.43 428.95 284.58 429.87 285.02 430.88 285.63 432.32 286.79 433.12 287.73 433.71 288.67 434.75 291.32 435.25 292.28 435.74 292.86 436.21 293.26 437.71 294.07 440.41 296.11 444.51 299.87 445.44 300.88 446.95 303.15 453.93 316.21 451.32 316.5 450.57 316.3 449.6 315.95 448.85 315.39 448.21 314.68 447.68 313.89 446.64 311.81 446.17 311.07 445.64 310.5 444.5 309.54 443.67 309.22 442.95 309.24 442.55 309.47 442.04 309.91 441.39 310.71 440.95 311.38 440.52 311.92 439.9 312.47 439.17 312.99 433.08 315.94 424.87 301.11 424.07 300.09 421.02 297.1 419.79 296.19 418.73 295.54 412.69 293.33 409.52 291.65 400.83 284.37 399.81 283.26 398.69 281.78 392.63 270.24 391.93 268.18 391.73 266.4 391.99 263.87 393.77 264.56 395.01 264.53 397.09 264.12 397.72 264.07 398.15 264.08 401.97 265.42 402.66 265.53 409.64 264.78 Z" id="EGY-1549" data-name="Asyut"/>
<path d="M 391.99 263.87 391.73 266.4 391.93 268.18 392.63 270.24 398.69 281.78 399.81 283.26 400.83 284.37 409.52 291.65 412.69 293.33 418.73 295.54 419.79 296.19 421.02 297.1 424.07 300.09 424.87 301.11 433.08 315.94 442.16 326 448.37 330.76 475.72 361.52 486.07 370.31 486.73 370.77 487.87 371.38 489.48 372.05 490.43 372.32 491.63 372.54 493.47 372.62 496.65 372.15 502.43 370.65 517.49 364.3 519.26 363.86 522.26 363.54 523.38 363.59 524.32 363.74 525.03 364.02 525.72 364.46 526.36 365.01 526.92 365.66 527.34 366.35 527.63 367.03 527.87 368.36 527.87 369.7 527.72 370.59 527.47 371.25 526.84 372.56 524.09 376.82 523.73 377.58 523.49 378.35 522.98 381.43 522.55 382.88 522.25 383.55 521.86 384.21 521.38 384.85 520.13 386.13 511.12 392.57 509.2 394.36 508.25 395.64 507.95 396.3 507.78 396.99 507.71 398.35 507.81 399.35 510.04 407.27 511.79 416.64 512.77 419 513.38 420.01 514 420.84 515.36 422.18 521.56 426.49 526.88 429.28 529.17 430.88 530.54 432.34 531.66 433.86 532.44 435.28 533.39 437.72 534.12 444.42 534.36 445.35 534.81 446.46 537.59 451.79 538.85 455.26 539.37 457.69 539.41 458.06 539.63 458.95 538.99 461.44 536.56 466.73 536.21 469.34 536.3 469.5 536.3 470.41 536.1 471.8 535.94 475.39 536.52 479.95 536.51 480.71 536.05 483.98 536.01 485.49 535.87 486.26 535.73 488.35 535.87 489.18 536.72 491.9 536.76 493.11 536.06 495.46 535.95 496.12 535.34 496.67 535.12 497.15 534.58 497.87 533.88 498.45 533.14 498.9 532.33 499.24 531.54 499.47 529.96 499.7 525.77 499.56 524.22 499.78 523.44 500.01 522.75 500.33 522.17 500.8 521.84 501.18 521.65 501.42 521.22 502.27 520.76 504.28 520.57 506.15 520.7 507.26 521.02 508.18 521.62 508.82 522.33 509.36 525.28 510.96 526.79 511.6 527.52 512.08 528.16 512.74 528.72 513.97 528.69 514.82 528.27 515.53 527.54 515.95 526.72 516.23 518.69 517.27 517.04 517.64 516.27 517.92 515.52 518.3 514.76 518.78 513.32 520.05 512.09 521.37 510.52 523.49 510.13 524.16 509.32 527.03 508.39 531.98 507.9 533.7 507.34 534.85 507.04 535.76 506.69 537.38 506.91 538.38 507.44 539.1 508.15 539.47 508.92 539.73 511.57 540.2 518.1 540.41 526.92 539.21 527.7 539.3 528.37 539.64 528.81 540.82 528.86 541.87 528.62 543.08 528.22 543.95 527.66 544.86 521.92 550.52 520.24 552.63 517.06 559.17 515.11 565.06 514.52 566.27 514.3 566.62 513.68 567.35 513.02 568.59 512.36 570.41 511.57 574.1 510.96 575.87 510.29 577.1 509.72 577.75 509.25 578.4 507.93 580.92 507.32 581.57 506.6 581.82 505.92 581.65 505.39 581.11 504.58 579.85 504.01 579.28 503.33 578.9 502.57 578.73 501.8 578.76 499.99 579.06 499.11 579.06 498.24 578.89 497.46 578.55 494.49 576.28 493.05 575.4 492.24 575.15 491.46 575.08 490.6 575.19 488.77 575.67 467.98 584.85 467.25 584.92 466.54 584.86 460.92 583.48 459.43 583.43 458.63 583.51 457.81 583.69 456.93 583.97 456.05 584.35 455.1 585.07 454.19 586.01 453.04 587.69 452.53 588.73 452.27 589.69 452.27 590.38 452.51 591.81 453.6 595.66 454.01 599.22 453.97 599.65 453.48 601.74 453.06 602.78 452.51 603.8 447.92 609.23 445.62 610.91 444.56 611.48 442.98 612.15 441.37 612.66 439.82 612.9 436.5 613.07 434.86 613.29 433.24 613.74 431.61 614.48 430.73 615.12 429.87 615.95 428.88 617.33 428.4 618.3 428.19 619.2 428.32 619.9 428.66 620.61 429.24 621.24 429.91 621.85 432.79 623.8 433.44 624.45 433.92 625.16 434.01 625.36 434.02 625.38 433.8 625.81 430.58 631.95 429.71 632.44 427.21 632.44 420.86 632.44 414.49 632.43 408.13 632.43 401.76 632.43 395.41 632.43 389.04 632.43 382.68 632.43 376.33 632.43 369.97 632.43 363.61 632.43 357.24 632.43 350.88 632.43 344.52 632.43 338.16 632.42 331.81 632.42 325.45 632.42 319.08 632.42 312.72 632.42 306.35 632.42 300 632.42 293.65 632.42 287.28 632.42 280.92 632.42 274.57 632.41 268.2 632.41 261.84 632.41 255.48 632.41 249.11 632.41 242.76 632.41 236.4 632.41 230.03 632.41 223.68 632.41 217.32 632.41 210.95 632.4 204.59 632.4 198.24 632.4 191.87 632.4 185.51 632.4 179.15 632.4 172.79 632.4 166.43 632.4 160.07 632.4 153.7 632.4 147.35 632.4 140.99 632.4 134.63 632.39 128.27 632.39 121.91 632.39 115.54 632.39 109.19 632.39 102.83 632.39 96.47 632.39 90.11 632.39 83.74 632.38 77.38 632.38 71.03 632.38 64.67 632.38 58.31 632.38 51.95 632.38 45.59 632.38 39.22 632.38 32.86 632.38 26.5 632.38 20.14 632.37 20.14 613.3 20.14 594.23 20.14 575.16 20.14 556.09 20.14 537.02 20.14 517.95 20.14 498.87 20.14 479.8 20.14 460.73 20.14 441.66 20.14 422.59 20.14 403.52 20.14 384.45 20.14 365.38 20.14 346.3 20.14 327.23 20.14 314.46 20.14 302.09 20.14 296.29 20.14 274.24 20.14 264.28 20.14 261.75 21.37 261.75 173.3 261.66 260.11 261.66 393.08 261.68 392.31 263.08 391.99 263.87 Z" id="EGY-1550" data-name="Al Wadi at Jadid"/>
<path d="M 524.89 418.38 524.4 419.9 524.38 423.37 524.17 424.3 523.88 424.9 523.25 425.34 522.7 425.62 521.56 426.49 515.36 422.18 514 420.84 513.38 420.01 512.77 419 511.79 416.64 510.04 407.27 507.81 399.35 507.71 398.35 507.78 396.99 507.95 396.3 508.25 395.64 509.2 394.36 511.12 392.57 520.13 386.13 521.38 384.85 521.86 384.21 522.25 383.55 522.55 382.88 522.98 381.43 523.49 378.35 523.73 377.58 524.09 376.82 526.84 372.56 527.47 371.25 527.72 370.59 527.87 369.7 527.87 368.36 527.63 367.03 527.34 366.35 526.92 365.66 526.36 365.01 525.72 364.46 525.03 364.02 524.32 363.74 523.38 363.59 522.26 363.54 519.26 363.86 517.49 364.3 502.43 370.65 496.65 372.15 493.47 372.62 491.63 372.54 490.43 372.32 489.48 372.05 487.87 371.38 486.73 370.77 486.07 370.31 475.72 361.52 478.28 359.37 478.99 358.95 479.68 358.63 483.42 358.2 484.42 357.92 485.23 357.45 486.73 355.74 487.09 355.45 487.79 355.19 488.58 355.31 489.41 356.05 491.33 358.95 492.63 360.28 494.04 361.3 495.59 362.06 496.47 362.09 497.16 362.03 498.93 360.32 500.95 359.92 514.11 354.22 517.49 353.64 519.4 353.51 523.56 353.74 528.66 355.08 529.92 355.68 531.53 356.71 533.78 358.59 536.36 361.72 537.28 363.21 537.97 364.7 538.9 367.75 539.6 372.54 539.68 374.87 539.57 376.41 539.24 378.17 538.63 379.91 535.29 386.16 534.07 387.68 532.62 389.16 526.3 394.31 522 398.64 521.01 399.93 520.32 401.23 519.54 403.4 519.42 404.34 519.54 407.81 520.67 412.71 521.4 414.55 522.23 415.94 522.81 416.61 524.89 418.38 Z M 521.29 388.31 519.67 391.1 520.47 391.28 521.4 391.37 521.87 390.33 522.51 389.42 522.57 388.89 521.29 388.31 Z" fill-rule="evenodd" id="EGY-1551" data-name="Qina"/>
<path d="M 453.93 316.21 464.91 323.06 467.79 325.57 468.8 327.75 470.32 330.05 472.02 332.16 472.71 333.35 473.07 334.37 473.4 337.28 473.56 338.02 474.56 339.78 476.14 341.97 477.16 343.14 478.08 344.01 479.25 344.76 480.97 345.57 482.85 346.22 487.13 347.09 487.96 347.38 488.98 347.99 489.66 348.73 490.25 349.52 492.01 352.49 498.93 360.32 497.16 362.03 496.47 362.09 495.59 362.06 494.04 361.3 492.63 360.28 491.33 358.95 489.41 356.05 488.58 355.31 487.79 355.19 487.09 355.45 486.73 355.74 485.23 357.45 484.42 357.92 483.42 358.2 479.68 358.63 478.99 358.95 478.28 359.37 475.72 361.52 448.37 330.76 442.16 326 433.08 315.94 439.17 312.99 439.9 312.47 440.52 311.92 440.95 311.38 441.39 310.71 442.04 309.91 442.55 309.47 442.95 309.24 443.67 309.22 444.5 309.54 445.64 310.5 446.17 311.07 446.64 311.81 447.68 313.89 448.21 314.68 448.85 315.39 449.6 315.95 450.57 316.3 451.32 316.5 453.93 316.21 Z" id="EGY-1552" data-name="Suhaj"/>
<path d="M 609.73 322.85 609.77 324.38 608.85 323.59 608.41 322.69 606.6 319.03 607.61 318.99 607.61 318.99 607.94 319.03 609.24 321.54 609.73 322.85 Z M 609.96 272.01 611.4 272.5 611.82 273.61 612.04 274.81 612.88 275.59 612.88 275.99 612.42 275.93 611.57 275.8 610.39 274.6 610 274.2 608.61 273.8 607.97 273.46 607.35 272.79 606.68 272.35 606.68 272.35 605.21 272.98 604.6 272.54 604.14 271.77 603.89 271.08 603.89 271.08 604.25 270.66 604.68 270.39 605.16 270.26 605.7 270.23 607.19 270.4 607.7 270.7 608.27 271.03 608.8 271.44 609.14 271.7 609.96 272.01 Z M 797.98 632.35 782.71 632.35 767.5 632.35 752.3 632.36 737.09 632.36 721.89 632.36 706.68 632.36 691.47 632.36 676.27 632.36 661.06 632.36 645.85 632.36 630.65 632.37 615.44 632.37 615.03 632.37 600.23 632.37 585.03 632.37 569.82 632.37 556.02 632.37 554.63 632.37 554.62 632.37 547.93 632.37 541.25 632.37 534.55 632.37 527.87 632.37 521.17 632.37 514.47 632.37 513.11 632.37 507.78 632.37 501.1 632.37 494.4 632.37 487.72 632.37 481.02 632.37 474.34 632.37 467.64 632.37 460.96 632.37 454.26 632.37 447.58 632.37 445.81 632.37 445.81 632.35 445.9 632.06 447.75 628.77 449.22 627.17 450.7 626.1 452.13 625.3 465.67 619.4 466.42 618.85 467.54 617.51 468.42 616.06 468.96 615.38 469.7 614.76 470.57 614.46 471.41 614.32 473.64 614.26 474.43 614.12 475.21 613.86 475.94 613.47 478.58 611.68 479.48 610.79 480.63 609.4 481.72 607.73 485.96 596.64 486.68 595.22 487.14 594.59 487.78 594.12 488.48 593.89 489.2 593.97 489.95 594.28 490.67 594.69 493.67 596.94 496.36 599.84 496.97 600.29 497.67 600.71 499.27 601.41 500.94 601.91 501.8 602.04 505.43 602.12 508.55 601.63 511.51 600.75 512.81 600.13 513.94 599.44 516.36 597.44 518.44 595.31 526.91 588.21 528.6 586.17 529.48 584.82 529.86 583.93 530.09 582.76 530.17 580.87 529.75 578.04 529.8 577.16 530.3 576.26 531.59 575.1 532.04 574.5 532.7 572.53 533.04 571.91 533.58 571.45 534.23 571.35 534.93 571.51 535.68 571.97 536.43 572.58 539.28 575.42 540.83 576.52 541.56 576.82 542.26 577 542.96 577.1 543.6 577.11 548.94 576.29 550.6 576.44 552.12 576.91 553.65 577.79 558.91 582.8 563.15 585.71 563.83 586.01 564.52 586.21 565.17 586.24 565.73 585.91 565.99 585.17 565.85 583.5 563.08 574.97 562.68 574.29 562.13 573.62 560.87 572.57 560.29 571.93 559.44 570.47 558.89 569.83 558.23 569.31 557.48 568.93 553.6 567.59 549.1 565.06 548.43 564.51 547.98 563.79 547.84 562.99 548.22 562.06 549.5 560.76 549.99 560.12 550.34 559.46 551.25 557.21 551.71 556.45 552.35 555.8 554.35 554.32 554.78 553.74 555.15 553.07 557.47 547.52 557.97 545.89 558.09 545.17 558.03 544.26 557.78 543.24 557.02 541.74 555.18 539.09 554.77 538.08 553.33 531.99 553.3 530.3 553.47 529.24 554.8 527.24 555.1 526.56 555.19 525.49 554.78 522.03 554.76 520.79 554.85 519.8 554.79 518.93 554.53 517.95 553.75 516.55 553.04 515.78 552.31 515.2 550.96 514.37 549.71 513.36 548.66 512.07 548.08 510.93 546.35 506.46 544.81 503.84 544.21 502.34 542.36 491.18 542.94 486.72 544.32 481.55 544.93 480.38 550.27 473.93 551.25 472.51 552.06 471.08 552.3 470.5 552.78 468.88 552.87 467.65 552.78 467.13 545.73 453.68 545.4 452.73 544.96 450.41 544.77 441.65 544.21 437.78 543.69 435.91 542.85 433.97 540.59 430.45 538.14 427.58 524.89 418.38 522.81 416.61 522.23 415.94 521.4 414.55 520.67 412.71 519.54 407.81 519.42 404.34 519.54 403.4 520.32 401.23 521.01 399.93 522 398.64 526.3 394.31 532.62 389.16 534.07 387.68 535.29 386.16 538.63 379.91 539.24 378.17 539.57 376.41 539.68 374.87 539.6 372.54 538.9 367.75 537.97 364.7 537.28 363.21 536.36 361.72 533.78 358.59 531.53 356.71 529.92 355.68 528.66 355.08 523.56 353.74 519.4 353.51 517.49 353.64 514.11 354.22 500.95 359.92 498.93 360.32 492.01 352.49 490.25 349.52 489.66 348.73 488.98 347.99 487.96 347.38 487.13 347.09 482.85 346.22 480.97 345.57 479.25 344.76 478.08 344.01 477.16 343.14 476.14 341.97 474.56 339.78 473.56 338.02 473.4 337.28 473.07 334.37 472.71 333.35 472.02 332.16 470.32 330.05 468.8 327.75 467.79 325.57 464.91 323.06 453.93 316.21 446.95 303.15 445.44 300.88 444.51 299.87 440.41 296.11 437.71 294.07 436.21 293.26 435.74 292.86 435.25 292.28 434.75 291.32 433.71 288.67 433.12 287.73 432.32 286.79 430.88 285.63 429.87 285.02 428.95 284.58 424.81 283.43 418.18 280.92 412.45 277.97 411.81 277.46 411.23 276.79 410.76 276.05 410.35 275.19 409.72 273.36 409.51 272.47 409.41 270.56 409.64 264.78 410.81 258.54 410.86 257.49 410.81 255.95 410.52 253.96 410.2 252.69 408.69 249.2 408.31 247.73 407.77 241.56 407.43 239.78 406.4 237.17 402.87 231.05 402.59 230.28 402.45 229.53 402.16 226.71 401.51 223.76 401.41 223.05 401.57 221.88 401.96 220.39 403.85 216.04 407.03 211.24 407.42 210.49 407.75 209.12 409.83 193.19 409.95 191.86 410.41 189.94 411.63 186.92 413.02 184.67 417.41 179.5 421.18 174.14 423.02 172.01 425.93 169.26 426.84 168.06 427.66 166.63 428.81 163.94 429.55 162.57 430.03 161.36 430.14 160.43 429.9 157.84 430.16 155.08 434.94 160.24 436.32 161.29 436.75 161.73 437.22 162.34 438.12 164.15 438.42 164.63 439.19 165.49 441.78 167.87 443.04 168.74 444.99 169.78 446.23 170.3 470.28 176.68 473.05 177.79 482.02 176.62 487.32 176.88 488.31 176.7 489.71 176.31 509.63 168.67 511.48 167.67 514.17 166.92 515.42 166.78 521.71 166.72 521.71 166.72 521.89 167.37 521.94 168.78 521.58 169.32 520.93 169.84 520.58 170.6 519.88 170.88 519.65 171.46 520.15 172.15 519.82 174.09 519.71 176.39 520.14 177.1 522.14 178.91 522.83 179.73 523.04 180.42 523.09 181.74 523.32 182.41 524.8 183.84 525.07 183.99 527.79 187.36 530.1 187.72 531.56 189.1 532.46 191.08 535.38 200.78 535.61 202.12 536.31 202.35 539.43 203.91 541.01 205.26 541.8 206.12 542.41 207.29 543.04 207.51 543.78 207.66 544.37 207.97 544.59 208.37 545.03 209.7 546.91 212.89 547.5 213.36 547.52 213.65 547.42 213.73 547.24 213.72 547.01 213.77 549.9 215.87 551.15 217.27 551.06 218.68 551.56 219.04 552.01 219.78 552.33 220.59 552.45 221.17 552.71 221.39 554.19 223.22 557.29 226.14 558.05 227.55 558.7 227.89 559.45 228.17 559.99 228.53 560.31 229.4 560.27 230.12 560.48 230.62 561.57 230.8 562.69 231.31 564.86 233.66 566.28 234.37 566.19 234.78 566.28 235.32 566.28 235.71 566.15 236.25 566.64 236.65 567.41 236.82 568.1 236.65 568.67 237.61 570.1 238.18 573.05 238.88 577.68 242.63 579.17 245.42 579.95 246.06 580.41 246.72 581.84 249.73 581.98 250.52 581.98 250.92 582.3 251.42 582.55 252.69 582.87 253.2 582.87 253.6 582.43 253.6 581.53 253.6 580.78 252.15 579.24 251.32 577.5 250.74 576.13 250.03 575.69 250.03 575.29 250.96 575.12 251.51 575.25 251.99 575.69 252.71 576.94 253.84 577.62 254.66 577.92 255.65 578.34 256.17 579.28 255.92 580.22 255.54 580.64 255.65 580.54 256.54 580.29 257.48 579.86 258.35 579.26 259.04 579.52 259.27 579.87 259.68 580.16 259.89 581.34 260.66 581.76 260.78 581.95 261.04 582.58 262.24 582.87 262.6 582.87 263.05 582.19 262.54 580.64 260.78 580.16 260.78 580.16 261.26 580.38 261.61 580.64 262.2 580.16 262.2 579.75 260.92 578.59 261.03 577.33 261.93 576.62 263.05 578.15 263.76 579.23 265.04 581.09 267.96 580.83 268.37 580.67 268.9 580.58 269.52 580.64 270.23 581.72 270.94 584.58 272.1 585.55 272.91 585.74 273.5 585.82 274.93 586.03 275.59 586.47 276.13 587.58 277.19 588.04 277.84 588.46 279.16 588.94 282.06 589.38 282.97 591.55 284.81 594.07 286.33 596.83 287.53 598.12 288.34 598.97 289.46 599.11 290.14 598.97 292.62 598.82 292.84 598.23 293.27 598.08 293.51 598.12 293.9 598.45 294.47 598.53 294.85 598.59 296.3 598.87 297.42 599.55 298.32 600.77 299.09 601.9 300.03 603.09 301.47 603.57 302.56 602.59 302.44 602.6 303.49 603.06 304.38 604.36 306.01 604.92 307 605.75 308.93 606.38 309.82 607.2 310.42 608.15 310.87 608.94 311.36 609.28 312.07 609.71 314.14 609.77 315.18 609.28 315.9 608.2 315.95 607.49 315.35 606.9 315.13 606.15 316.35 605.99 317.22 605.99 318.38 606.12 319.53 606.38 320.39 606.39 322.08 605.1 326.05 605.7 327.95 606.62 328.64 608.74 329.22 609.77 329.77 610.45 330.69 611.1 332.71 613.22 335.22 614.15 337.01 616.38 342.78 617.35 344.5 618.68 346.33 619.55 347.98 621.13 350.09 626.65 361.55 629.21 364.92 631.67 370.55 636.82 376.99 637.31 377.84 637.94 379.69 642.33 385.59 644.71 387.94 645.25 388.63 650.93 398.8 651.83 401.9 653.41 404.66 654.1 408 655.28 409.81 658.11 413.05 658.51 413.87 659.12 415.78 659.53 416.66 661.48 419.39 662.27 422.18 665.29 426.94 670.91 435.79 671.16 437.89 671.86 439.66 672.92 440.82 674.22 442.22 674.43 443.42 674.49 445.86 674.66 447.09 675.03 448.06 675.56 448.79 676.31 449.4 677.34 450.01 679.03 451.43 680.16 453.3 681.68 458.44 682.04 459.29 683.18 461 684.43 463.08 685.36 463.81 685.38 464.87 684.32 466.88 684.33 468.68 687.02 469.63 690.27 475.22 699.11 481.36 700.49 482.88 702.9 489.21 704.67 490.97 707.16 494.25 708.25 494.1 707.76 493.19 707.15 492.28 707.82 492.18 709.14 493.44 710.96 494.14 713.34 496.41 714.27 498.22 714.44 500.13 716.42 501.24 718.47 500.89 720.06 501.29 721.77 501.8 723.15 502.45 724.14 503.41 725.52 506.34 726.68 507.75 726.24 508.35 725.25 507.09 723.92 505.78 722.98 505.73 720.61 506.73 719.62 507.19 718.3 506.68 717.09 506.23 715.87 506.03 714.99 506.13 714 505.98 712.79 505.52 712.35 504.97 711.6 504.16 710.92 503.95 710.86 503.62 709.87 503.21 708.47 502.86 707.88 503.26 706.99 504.79 706.51 506.74 706.95 509.86 706.35 512.58 705.91 514.57 706.46 516.23 707.67 516.48 708.22 517.29 708.17 518.24 707.96 518.71 708.06 519.8 708.12 520.56 708.23 522.02 707.92 524.73 707.8 530.4 707.66 531.43 707.02 533.25 706.87 534.24 707.13 535.19 707.73 536.18 709.14 538.03 710.26 539.95 710.67 540.97 710.92 542.05 710.85 545.14 711.36 548.28 711.97 550.68 712.44 552.82 715.47 557.61 716.39 559.47 717.67 561.9 718.53 567.85 719 568.9 720.32 571.15 723.05 574.3 724.79 575.18 724.01 574.17 722.16 571.17 723.44 571.21 724.27 571.79 724.84 572.75 725.28 573.89 725.98 577.1 726.18 577.62 727.25 578.31 727.79 579.05 728.26 579.86 729.1 580.78 730.27 582.21 732.78 583.99 735.15 584.88 736.33 585.24 736.52 585.49 737.35 586.03 738.24 586.45 739.22 586.73 742.85 586.96 748.12 587.91 753.16 589.48 755.01 590.54 758.19 593.36 759.22 594.94 759.61 597.95 760.72 599.94 762.66 601.54 764.71 602.97 765.72 603.4 766.69 603.78 766.48 602.75 766.83 602.75 768.21 604.23 767.87 606.08 768.98 608.77 773.42 610.63 775.56 611.78 777.02 612.68 780.97 615.76 786.88 621.01 788.12 621.64 789.09 621.55 789.34 621.16 789.46 620.75 789.7 620.51 790.22 620.63 791.36 621.32 791.89 621.77 792.24 622.21 793.13 624.18 793.71 624.96 794.69 625.8 797.22 627.22 798.75 627.75 799 630.12 798.95 630.93 798.52 631.63 797.99 632.29 797.98 632.35 Z" fill-rule="evenodd" id="EGY-1556" data-name="Al Bahr al Ahmar"/>
<path d="M 657.38 245.25 655.59 245.95 654.04 245.5 652.78 244.52 654.09 242.66 657.36 242.76 657.38 245.25 Z M 645.1 240.22 643.4 240.52 642.66 240.86 642.42 241.55 642.73 241.84 642.99 242.08 644.09 242.19 646 241.91 646.82 241.65 646.96 241.78 647.1 241.78 647.41 242.21 647.7 242.71 647.77 242.89 647.78 242.89 648.83 243.71 650.08 244.68 650.08 245.16 647.58 245.32 645.29 245.21 643.39 244.51 642.09 243.02 641.97 242.89 642.07 242 641.84 240.73 641.52 240.22 641.75 239.91 641.84 239.84 641.85 239.85 641.97 240.22 641.98 240.21 642.21 239.71 642.53 239.31 642.91 239.03 643.34 238.88 643.35 238.88 644.49 239.42 644.86 239.75 645.1 240.22 Z M 534.69 114.89 552.69 114.14 594.39 120.56 611.13 128.39 624.39 132.75 631.97 136.3 640.13 138.89 667.4 142.61 667.41 142.62 666.74 142.92 666.19 143.29 665.72 143.75 665.25 144.36 664.89 145.12 664.67 145.8 664.31 146.31 663.47 146.59 663.7 146.65 663.89 146.66 663.99 146.75 663.96 147.08 663.4 147.33 662.97 147.67 662.81 148.05 663.06 148.42 662.44 148.52 662.15 148.7 662.2 148.95 662.62 149.27 661.86 149.91 660.35 151.99 660.03 152.26 659.33 152.59 659.01 152.84 658.74 153.23 658.53 153.62 658.22 153.97 657.67 154.26 657.67 154.67 658.24 155.57 658.02 156.5 657.51 157.41 657.18 158.24 657.18 161.61 656.82 162.41 656.07 163.01 655.3 163.47 654.95 163.86 654.88 164.77 654.63 165.82 654.22 166.83 653.62 167.64 653.78 168.4 653.62 172.36 653.75 172.98 654.4 173.79 654.54 174.58 654.35 175.35 653.86 175.71 653.26 175.9 651.8 176.73 651.57 177.09 651.38 177.95 651.42 178.35 651.75 179.68 651.83 183.57 650.08 184.68 650.08 185.09 650.27 185.68 650.46 186.57 650.46 187.52 650.08 188.29 650.32 188.52 650.53 188.82 650.93 189.59 650.34 189.94 650.24 190.3 650.38 190.7 650.49 191.17 650.35 191.86 650.04 192.3 649.74 192.63 649.6 192.96 649.25 194.11 647.71 196.02 646.8 199.04 644.18 202.53 643.34 204.4 643.28 204.57 643.28 204.74 643.21 204.84 642.9 204.8 643.75 206.8 642.97 208.08 641.48 209.06 640.18 210.2 640.38 210.34 640.43 210.36 640.59 210.68 639.71 211.07 639.22 211.93 638.6 214.83 638.36 215.55 637.59 216.64 637.47 216.69 637.26 217.43 636.34 219.04 636.13 219.83 636.19 220.93 636.37 221.78 636.66 222.5 637.02 223.22 637.02 223.62 636.52 224.72 637.06 225.7 637.92 226.6 638.49 227.65 639.1 228.17 639.29 228.53 639.28 229.01 639.11 229.29 638.94 229.48 638.85 229.69 638.8 230.5 638.2 232.8 637.42 234.63 638.55 236.46 637.47 241.06 637.96 241.55 636.25 241.78 635.72 242 635.51 242.37 635.31 242.98 635.02 243.54 634.17 244 633.77 244.95 633.23 245.16 632.73 245.22 631.83 245.48 631.19 245.57 631.32 245.83 631.33 245.9 631.39 245.92 631.67 246.06 631.18 247.05 630.51 249.02 629.88 249.63 629.43 249.63 629.22 249.28 628.68 249.12 628.25 248.82 627.8 249.22 627.36 250.66 626.75 251.41 627.29 252.21 626.47 252.92 625.19 253.41 624.31 253.6 623.7 253.55 623.53 253.58 623.79 254.61 623.99 255 626.35 255.02 626.35 255.42 625.86 255.42 625.86 255.87 626.2 256.14 626.43 256.44 626.75 257.21 626.12 256.92 625.86 256.76 625.95 257.01 625.95 257.13 626.03 257.18 626.35 257.21 626.35 257.7 625.86 257.7 625.54 257.12 624.4 255.76 623.16 254.6 622.6 254.19 621.94 253.89 620.96 253.6 614.66 252.98 613.09 252.08 608.72 247.36 608.39 247.15 607.82 247.2 604.09 244.16 603.26 243.76 602.4 243.71 601.65 244.23 600.75 242.48 600.31 242.89 599.72 242.26 597.45 240.54 596.91 240.31 596.74 240.22 596.49 239.93 596.26 239.37 596.05 239.1 595.6 238.78 595.1 238.6 594.07 238.39 594.11 236.75 590.97 235.04 590.94 233.88 590.02 233.17 588.9 231.83 588.13 230.42 588.27 229.47 587.95 229.26 587.69 229.13 587.47 228.93 587.34 228.53 586.93 228.53 586.93 229.02 586.44 229.02 586.24 228.7 585.67 228.11 585.55 227.9 584.58 224.71 584.23 224.23 583.76 224.52 583.26 223.64 581.72 221.61 581.09 220.54 572.54 216.01 572.12 215.33 571.84 215.24 570.33 212.87 569.07 211.84 568.3 211.05 568.31 210.68 564.13 207.95 563.45 207.32 563.15 206.83 562.95 206.3 562.4 205.48 561.68 204.74 560.92 204.4 561.33 203.91 561.33 204.4 561.81 204.4 561.37 202.25 560.27 202.09 559.71 202.96 560.92 203.91 559.83 203.58 559.13 202.75 558.77 201.54 558.49 198.92 558.07 197.81 556.91 195.84 557.56 194.54 558.41 191.53 559.1 190.04 558.29 189.17 557.91 188.65 557.56 187.34 557.09 187.02 556.52 186.83 556.01 186.47 555.59 185.26 555.38 182.36 555.12 181.52 555.12 181.12 555.69 180.5 555.79 179.94 555.53 178.44 555.39 178.09 555.14 177.15 555.02 176.17 555.33 175.72 555.81 175.29 555.34 174.4 554.59 173.68 554.19 173.73 554.05 173.03 553.66 172.53 553.1 172.34 552.45 172.55 551.77 171.79 550 170.95 549.32 170.37 548.51 168.72 548.38 168.34 548.18 167.98 547.23 167.32 547.01 167 546.81 166.89 545.71 165.42 545.51 165.29 544.97 165.08 544.78 164.97 544.67 164.78 544.5 164.25 544.37 164.08 541.43 161.4 540.4 161.1 538.94 160.39 537.56 159.51 536.7 158.72 536.35 157.69 536.05 156.34 535.58 155.17 534.72 154.67 534.11 154.46 533.68 153.94 532.36 151.14 532.25 151.09 532.49 148.66 532.24 147.55 530.48 146.8 527.29 144.81 527.79 144.81 527.54 144.34 527.26 144.1 526.91 144 526.44 143.91 526.6 143.77 526.78 143.64 526.89 143.41 526.84 142.99 526.44 142.99 526.13 143.54 525.98 144.06 526.07 144.49 526.44 144.81 525.56 144.81 526.05 142.4 526.15 139.35 525.39 136.67 523.32 135.4 523.32 134.99 523.72 134.21 523.66 133.29 523.43 132.32 523.32 131.38 523.48 130.42 524.05 129.09 524.17 128.46 524.13 127.37 523.97 126.66 523.71 126.12 523.32 125.54 521.73 123.82 521.5 123.09 521.42 122.98 521.44 122.97 534.69 114.89 Z" fill-rule="evenodd" id="EGY-1557" data-name="Janub Sina&apos;"/>
<path d="M 543.33 38.44 543.48 39.1 542.78 38.56 542.55 38.25 542.2 38.24 542.68 37.94 543.08 38.03 543.33 38.44 Z M 572.48 32.66 575.28 34.64 573.87 33.79 563.7 30 561.81 29.74 563.86 29.79 567.22 31.17 568.75 31.52 570.72 31.85 572.48 32.66 Z M 551.03 28.2 561.33 29.29 560.92 29.57 560.09 29.57 558.07 29.24 556.13 29 554.19 28.76 551.96 29.29 550.88 29.08 549.18 29.61 541.3 33.24 539.92 34.23 540.68 33.23 542.2 32.59 543.47 32 544.28 31.6 545.15 31.05 548.55 29.69 549.32 29.06 551.03 28.2 Z M 667.41 142.62 667.4 142.61 640.13 138.89 631.97 136.3 624.39 132.75 611.13 128.39 594.39 120.56 552.69 114.14 534.69 114.89 534.21 114.28 533.64 113.4 533.06 112.03 532.26 98.73 531.02 92.65 527.56 84.88 521.57 76.58 521.57 76.57 521.44 76.31 521.21 75.43 520.99 74.09 520.85 68.29 518.18 45.62 518.01 39.95 518.02 39.88 518.02 39.88 518.14 39.92 521.02 39.99 523.76 39.69 528.63 38.6 534.43 36.14 535.56 35.39 538.25 34.22 538.98 33.74 539.43 33.74 539.43 34.23 537.34 34.92 533.7 37.29 531.58 37.8 528 39.24 522.39 40.48 525.56 40.48 525.56 40.92 524.62 41.37 526.62 41.37 527.38 41.12 527.79 40.48 528.2 40.48 528.25 40.86 528.46 40.92 528.75 40.87 529.12 40.92 533.14 38.7 536.52 37.79 537.19 37.32 537.6 37.32 537.87 37.66 538.81 37.87 538.59 38.2 538.09 38.25 538.09 38.7 538.77 38.49 540.32 37.8 540.32 37.32 538.53 37.32 538.53 36.91 539.42 36.6 540.52 36.85 541.53 37.47 542.14 38.25 542.3 38.62 542.44 39.26 542.55 39.59 541.65 39.59 543.82 40.27 544.83 40.22 545.71 39.59 545.71 39.1 545.09 38.79 544.78 38.7 544.78 38.25 547.31 37.69 547.94 37.32 547.61 36.82 547.76 36.35 548.11 35.8 548.38 35.09 547.94 35.09 547.52 35.53 546.16 36.43 545.95 36.66 545.74 36.86 545.74 37.06 546.16 37.32 545.29 37.49 543.8 37.47 542.26 37.27 541.2 36.91 543.18 36.74 544.3 35.74 545.12 34.43 546.16 33.3 546.95 32.97 548.56 32.73 549.32 32.41 550.57 31.38 551.33 31.06 552.45 31.07 552.45 31.52 550.63 31.52 550.63 31.92 551.44 32.44 553.79 35.09 554.49 36.2 554.22 36.56 553.39 36.74 552.45 37.32 552.37 37.15 552.37 36.98 552.29 36.87 551.96 36.91 551.96 37.32 553.05 37.97 553.64 38.81 553.61 39.81 552.89 40.92 555.23 40.11 556.45 39.87 557.31 39.99 557.75 39.91 558.06 39.92 558.65 39.99 558.65 39.59 557.76 39.1 557.31 39.1 557.31 39.59 556.91 39.59 556.91 39.1 560.38 37.94 561.33 37.32 561.81 37.32 561.33 37.8 561.81 38.25 562.3 37.88 562.83 37.84 563.3 38.12 563.56 38.7 564.05 38.7 564.1 38.14 564.08 37.48 564 37.38 564.94 37.32 564.32 37.03 563.67 37.11 563.05 37.05 562.3 36.91 569.44 36.43 568.86 35.24 569.71 35 570.74 34.93 570.74 33.74 571.45 34.05 571.67 34.23 572.12 34.23 573 34.02 575.6 35.19 576.83 35.53 581.6 35.96 582.87 36.43 582.87 35.98 584.36 36.36 586.53 36.24 600.01 33.22 612.61 28.92 622.51 23.43 622.62 23.36 624.21 25.88 624.59 26.96 625.76 30.08 626.43 31.87 629.01 38.75 631.07 44.26 633.57 49.95 636.9 57.54 640.93 66.7 642.35 71.89 642.5 74.6 642.89 75.71 643.93 76.93 643.93 76.94 644.58 77.74 644.56 78.63 643.94 80.58 643.83 81.73 643.97 82.48 644.42 83.1 647.99 85.8 648.71 86.74 650.88 92.13 654.73 101.77 657.27 108.07 657.45 108.43 657.56 108.82 657.61 109.21 657.57 109.61 657.98 113.16 660.85 119.99 663.41 126.13 665.09 132.86 664.97 137.38 665.43 138.94 666.92 141.65 667.48 142.58 667.41 142.62 Z" fill-rule="evenodd" id="EGY-1558" data-name="Shamal Sina&apos;"/>
<path d="M 521.29 388.31 522.57 388.89 522.51 389.42 521.87 390.33 521.4 391.37 520.47 391.28 519.67 391.1 521.29 388.31 Z" id="EGY-5494" data-name="Luxor"/>
</g>
</svg>