<?xml version="1.0"?>
<svg xmlns="http://www.w3.org/2000/svg" version="1.2" baseProfile="tiny" width="800" height="1606" viewBox="0 0 800 1606" stroke-linecap="round" stroke-linejoin="round">
<g id="ne_10m_admin_1_states_provinces">
<path d="M 754.25 589.76 754.03 591.21 751.67 596.9 748.43 599.29 744.65 601.08 740.63 604.89 738.94 609.09 737.34 631.24 734.71 636.39 726.32 646.31 719.49 658.65 714.9 662.89 699.31 661.21 689.2 663.87 670.55 671.46 666.37 674.53 664.09 679.72 663.5 685.59 664.41 690.68 667.6 698.67 669.67 706.56 667.84 713.35 659.4 718.03 654.82 717.76 649.76 716.83 645.57 718.1 643.62 724.49 643.94 726.24 645.31 729.54 645.01 730.88 629.2 751.38 627.27 753.06 623.09 754.46 621.21 755.84 616.23 763.85 615.21 771.03 616.95 778.26 620.25 786.41 621.13 790.74 621.11 807.58 619.5 812.96 614.17 823.04 605.54 849.64 601.57 857.74 595.19 862.14 577.48 866.7 574.45 866.73 571.85 865.48 569.33 863.77 566.49 862.43 563.68 862.1 555.72 862.35 552.93 862.88 550.17 864.64 547.97 866.94 545.48 868.77 542 869.25 522 867.63 522.83 874.5 522.27 890.93 520.85 898.04 520.02 899.61 517.1 903.97 516.46 904.51 516.91 906.63 518.01 907.2 519.3 907.66 520.29 909.47 520.18 913.43 516.94 920.81 515.97 924.81 516.3 927.11 517.64 931.09 517.31 933.39 515.92 934.76 511.55 936.75 510.08 938.7 510 941.46 510.02 941.74 509.92 941.74 373.03 940.33 375.22 931.18 373.7 929.61 372.91 929.12 371.3 928.46 345.38 921.26 340.2 918.79 337.83 917.28 335.78 915.63 334.01 913.71 332.43 911.64 331.46 909.79 330.62 907.64 329.45 902.31 329.09 898.1 329.65 885.29 330.17 882.37 330.17 882.33 331.5 873.46 333.12 867.22 335.29 861.89 335.66 860.42 335.74 858.72 335.37 856.9 334.25 854.89 333.4 853.91 332.55 853.22 324.91 849.62 322.94 848.33 321.69 847.25 320.08 845.5 318.54 843.49 317.26 841.25 316.74 839.9 315.61 834.35 314.85 826.14 314.97 811.35 316.21 802.62 320 791.42 322.42 789.63 324.35 788.5 325.59 788.06 329.81 787.34 335.9 786.93 345.66 787.18 347.11 786.89 348.45 786.47 349.58 785.85 350.58 785.1 352.11 783.66 353.2 782.18 354.16 778.77 364.38 712.2 364.34 708.51 362.01 703.9 357.7 700.1 352.39 694.51 348.97 689.12 348.45 687.95 343.45 673.57 343.17 670.19 343.37 665.74 345.58 652.08 347.59 644.72 347.59 639.67 345.3 626.98 347.51 623.05 347.69 622.93 348.05 622.59 348.37 621.4 348.61 620.2 346.39 614.94 345.26 610.1 345.18 609.07 345.62 607.56 346.47 605.65 348.49 603.22 349.9 601.87 351.31 600.96 353.76 599.86 356.37 599.09 370.53 598.63 374.72 597.74 385.02 594.1 387.31 592.79 389.28 591.19 391.06 589.3 391.95 588.13 392.47 584.97 392.71 579.78 390.69 561.29 386.99 549.38 386.15 545.3 382.21 535.34 381 533.37 379.39 531.32 372.75 525.16 371.26 523.15 370.29 521.17 370.05 520.47 369.81 519.14 369.69 515.18 370.21 511.48 371.9 507.29 375.04 501.72 381.56 493.29 382.29 492.77 383.13 492 388.68 488.85 401.19 488.81 414.75 485.66 427.87 484.82 441.07 482.51 481.91 485.54 523.52 479.94 537.68 480.36 575.58 488.06 638.18 482.89 700.63 470.35 798.85 459.62 798.96 459.6 799 467.57 797.04 474.52 790.42 487.47 788.09 494.38 787.82 507.77 786.11 512.56 782.17 517.42 778.12 518.04 761.51 509.45 756.04 508.49 750.95 510.12 745.88 515.08 744.17 517.51 743.45 519.16 743.18 524.27 742.16 527.35 735.62 537.31 730.29 549.04 730.53 553.89 734.23 559.8 751.86 577.8 754.19 581.06 754.94 585.12 754.25 589.76 Z" id="BEN-2169" data-name="Borgou"/>
<path d="M 736.5 183.41 730.8 189.3 712.79 219.51 709.71 231.19 708.07 235.14 702.87 249.09 703.33 255.05 707.19 262.1 753.66 326.7 759.93 332.58 762.07 332.94 764.51 332.5 764.82 332.52 766.92 332.63 769.09 334.69 766.44 344.76 766.44 350.37 767.48 355.55 769.41 360.31 772.07 364.74 772.07 364.81 777.4 387.9 777.11 395.54 771.48 409.19 771.16 413.68 772.47 416.78 774.56 418.93 776.84 420.82 778.79 423.05 780.08 425.83 782.52 434.34 784.96 437.21 788.28 438.21 791.95 438.89 795.25 440.77 797.63 445.78 798.92 453.32 798.96 459.6 798.85 459.62 700.63 470.35 638.18 482.89 575.58 488.06 537.68 480.36 523.52 479.94 481.91 485.54 441.07 482.51 427.87 484.82 414.75 485.66 401.19 488.81 388.68 488.85 391.59 487.24 390.29 404.67 390.77 400.41 391.71 397.23 394.36 392.7 399.5 386.87 414.91 374.17 406.47 366.15 403.44 364.06 402.76 363.85 401.55 363.73 400.27 363.17 398.98 362.43 396.69 361.36 393.47 360.75 391.01 360.67 378.23 342.63 327.76 253.29 326.56 251.91 360.67 217.64 379.62 202.4 393.5 194.74 397.09 191.31 398.03 188.85 397.82 186.01 397.98 181.48 400.76 174.14 410.73 163.16 414.38 156.42 423.73 131.35 423.22 128.7 420.19 124.21 419.84 121.37 421.32 118.03 423.52 117.47 425.96 117.8 428.21 117.17 429.95 115.23 431.98 111.48 433.78 109.62 436.38 109.38 439.09 110.35 440.99 109.95 441.15 105.5 440.61 102.27 438.93 101.05 436.46 100.48 433.7 99.25 431.02 97.09 429.17 94.98 427.72 92.41 418.99 68.11 416.44 53.66 416.23 47.76 418.5 43.26 424.78 40.42 428.34 39.98 434.29 40.22 437.61 39.9 438.23 39.23 440.37 36.32 441.71 35.36 443.64 35.8 445.12 37.3 446.43 37.73 447.9 35.02 449.11 31.82 450.93 31.08 453.37 31.44 456.43 31.55 457.15 32.14 457.55 33.56 458.36 34.73 460.31 34.59 461.79 33.72 464.14 31.5 465.32 30.75 474.54 28.28 475.56 28.47 477.78 29.76 479.07 29.89 480.65 29.13 483.76 26.86 485.56 26.53 494.7 28.92 497.05 27.58 500.67 21.96 501.53 19.95 502.04 17.91 502.79 16.05 504.18 14.52 507 13.45 509.73 15.26 512.44 14.6 514.82 12.7 518.98 7.82 521.84 5.97 524.33 5.49 529.59 5.68 532.24 5.15 538.4 4.94 541.49 1 553.92 11.93 559.2 14.72 561.8 17.49 563.81 20.68 565.47 26.51 567.59 28.68 570.46 30.14 573.51 31.26 582.11 32.21 584.28 32.88 585.25 34.23 587.8 39.05 598.3 54.28 642.89 94.27 643.7 95.65 647.21 98.27 648.01 99.66 648.66 105.2 649.94 111.08 651.85 115.79 657.77 125.62 661.47 129.84 663.66 131.86 666.85 133.98 670.44 134.89 673.93 133.29 677.57 131.15 680.63 131.74 683.42 133.35 686.31 134.27 697.94 141.35 707.43 144.67 710.32 146.65 712.41 148.61 721.09 160.82 722.84 162.33 724.28 163.19 725.44 164.25 726.4 166.28 727.71 170.38 728.68 172.37 729.19 174.66 730.1 176.64 732.27 177.81 734.68 181.92 736.5 183.41 Z" id="BEN-2170" data-name="Alibori"/>
<path d="M 510.02 941.74 515.07 1004.94 515.68 1012.51 513.64 1021.27 511.58 1024.32 506.41 1030.12 505.04 1033.36 504.99 1035.66 505.63 1040.45 505.63 1042.85 503.65 1053.59 503.32 1058.56 504.26 1064.73 506.27 1070.46 511.36 1081.25 513.13 1086.77 513 1092.46 510.96 1097.22 508.26 1101.55 506.25 1105.94 505.55 1110.68 504.99 1126.18 501.72 1142.61 500.72 1158.95 499.81 1161.26 497.16 1166.2 496.57 1168.19 496.73 1169.35 496.87 1170.34 498.96 1173.52 501.88 1180.96 508.09 1187.86 510.4 1191.58 511.12 1195.31 508.64 1230.25 508.55 1230.25 455.19 1229.95 451.74 1230.12 447.82 1240.89 447.22 1248.24 448.99 1254.98 448.39 1257.84 444.65 1259.02 442.08 1260.73 433.94 1272.22 430.89 1277.88 431.56 1284.11 433.42 1290.54 386.91 1269.4 368.6 1263.64 353.52 1262.3 339.84 1262.64 327.56 1260.59 317.74 1253.87 308.05 1245.32 293.89 1239.45 282.3 1237.03 229.87 1240.07 224.77 1239.61 224.75 1235.05 224.53 1183.65 224.37 1142.61 225.01 1101.3 225.47 1071.58 222.71 1049.34 221.4 1046.95 219.87 1046.44 219.86 1046.43 219.12 1045.35 220.41 1039.03 220.41 1034.52 220.81 1032.33 229.33 1018.34 230.29 1013.76 229.2 1011.22 222.5 1002.79 221.18 999.89 220.81 996.83 220.71 989.09 225.4 989.42 239.33 989.92 244.23 989.48 245.6 989.52 248.46 989.24 270.99 983.24 275.26 982.52 278.4 982.28 280.01 982.68 282.78 983.83 284.99 985.21 286.96 986.82 293.97 994.33 295.01 995.08 296.22 995.76 297.59 996.3 299.03 996.7 300.64 996.93 308.53 996.85 310.06 997.09 311.31 997.57 312.43 998.31 313.36 999.18 317.22 1004.15 319.12 1005.94 321.37 1007.42 323.82 1008.69 331.42 1010.97 332.55 1011.59 335.53 1014.02 336.78 1014.55 338.19 1014.81 344.5 1014.79 347.59 1015.33 354.76 1017.93 356.33 1018.25 357.9 1018.39 364.02 1018.17 368.44 1016.92 371.54 1015.45 373.79 1014.02 377.46 1011.26 379.47 1008.15 378.02 1006.66 376.15 1000.4 379.63 978.17 375.39 955.01 373.51 951.46 371.1 948.35 373.03 940.33 509.92 941.74 510.02 941.74 Z" id="BEN-2171" data-name="Collines"/>
<path d="M 443.8 1557.67 431.57 1559.18 426.06 1560.71 421.48 1563.67 418.25 1566.74 415.87 1573.08 402.16 1574.36 381.37 1578.98 319.37 1586.02 319.37 1586 319.52 1583.76 318.64 1579.1 316.41 1572.34 312.43 1566.58 311.63 1558.58 312.96 1553.16 318.64 1538.54 320.08 1534.82 320.81 1531.72 321.09 1526.39 320.21 1511.73 319.92 1504.7 320.25 1502.29 321.05 1500.09 323.02 1496.92 324.35 1495.22 326.48 1493.09 327.08 1491.34 327.56 1488.54 327.28 1483.82 328.69 1477.12 332.14 1470.06 331.9 1464.97 331.42 1461.75 331.78 1459.53 332.72 1456.94 336.46 1450.44 338.59 1447.97 339.76 1445.69 343.86 1435.25 345.46 1432.22 346.71 1428.27 344.34 1421.93 422.36 1421.61 431.25 1436.02 433.82 1446.58 434.64 1461.53 435.68 1489.35 435.96 1497.12 437.81 1520.74 440.67 1525.81 442.12 1526.15 443.64 1526.73 444.77 1527.34 447.82 1529.49 448.95 1541.3 447.9 1547.65 443.8 1557.67 Z" id="BEN-2174" data-name="Atlantique"/>
<path d="M 448.05 1570.09 415.87 1573.08 418.25 1566.74 421.48 1563.67 426.06 1560.71 431.57 1559.18 443.8 1557.67 442.96 1563.03 444.92 1564.7 446.2 1564.9 447.47 1565.68 448.05 1570.09 Z" id="BEN-2175" data-name="Littoral"/>
<path d="M 344.34 1421.93 346.71 1428.27 345.46 1432.22 343.86 1435.25 339.76 1445.69 338.59 1447.97 336.46 1450.44 332.72 1456.94 331.78 1459.53 331.42 1461.75 331.9 1464.97 332.14 1470.06 328.69 1477.12 312.88 1469.21 304.88 1466.96 296.22 1466.62 282.1 1469.68 265.72 1475.67 241.34 1481.4 235.67 1481.3 231.29 1480.76 217.12 1474 216.04 1473.5 218.07 1470.78 219.12 1466.76 217.59 1460.5 215.61 1455.2 214.48 1450.73 214.32 1446.3 216.28 1435.41 215.74 1431.81 213.41 1429.01 209.56 1426.14 209.15 1425.83 206.23 1421.53 201.19 1403.11 220.78 1403.24 225.5 1401.85 225.31 1363.77 225.15 1326.13 224.99 1287.42 224.87 1261.93 233.26 1263.63 238.76 1270.24 240.73 1273.45 254.33 1302.22 255.82 1308.88 256.75 1310.89 258.23 1313.04 258.71 1314.8 259.12 1319.72 260.12 1321.77 262.19 1324.26 266.21 1327.26 276.23 1340.12 277.47 1342.99 278.44 1344.61 281.74 1346.68 285.71 1353.58 289.09 1365.68 291.56 1376.97 294.77 1382.39 296.54 1383.67 298.03 1384.34 302.17 1387.47 307.61 1395.77 311.83 1401.7 316.01 1403.87 319.52 1409.14 320.73 1413.73 321.29 1414.89 322.7 1416.2 331.54 1422.74 333.81 1423.66 335.49 1423.85 338.23 1422.74 342.53 1420.37 344.34 1421.93 Z" id="BEN-2176" data-name="Kouffo"/>
<path d="M 457.4 1402.79 456.96 1415.98 459.45 1429.12 471.85 1459.07 477.2 1489.47 482.19 1497.6 494.79 1508.18 498.77 1512.43 508.87 1529.43 508.95 1529.55 508.07 1532.09 507.16 1537.39 505.17 1549 505.07 1564.8 504.92 1564.81 448.05 1570.09 447.47 1565.68 446.2 1564.9 444.92 1564.7 442.96 1563.03 443.8 1557.67 447.9 1547.65 448.95 1541.3 447.82 1529.49 444.77 1527.34 443.64 1526.73 442.12 1526.15 440.67 1525.81 437.81 1520.74 435.96 1497.12 435.68 1489.35 434.64 1461.53 433.82 1446.58 431.25 1436.02 422.36 1421.61 422.81 1416.36 425.66 1411.32 429.88 1405.6 434.06 1403.41 441.31 1402.69 457.4 1402.79 Z" id="BEN-2177" data-name="Ouémé"/>
<path d="M 433.42 1290.54 434.83 1295.4 434.83 1306.98 435.72 1309.3 437.17 1311.23 438.35 1313.72 438.38 1317.77 439.22 1320.82 443.28 1336.15 447.22 1344.73 459.49 1353.05 460.98 1354.74 461.1 1356.19 460.78 1360.56 466.54 1389.43 467.79 1400.97 467.79 1400.99 467.71 1401.13 467.51 1401.51 466.9 1402.28 465.78 1402.85 464.25 1403.11 462.35 1403.15 457.4 1402.79 441.31 1402.69 434.06 1403.41 429.88 1405.6 425.66 1411.32 422.81 1416.36 422.36 1421.61 344.34 1421.93 342.53 1420.37 338.23 1422.74 335.49 1423.85 333.81 1423.66 331.54 1422.74 322.7 1416.2 321.29 1414.89 320.73 1413.73 319.52 1409.14 316.01 1403.87 311.83 1401.7 307.61 1395.77 302.17 1387.47 298.03 1384.34 296.54 1383.67 294.77 1382.39 291.56 1376.97 289.09 1365.68 285.71 1353.58 281.74 1346.68 278.44 1344.61 277.47 1342.99 276.23 1340.12 266.21 1327.26 262.19 1324.26 260.12 1321.77 259.12 1319.72 258.71 1314.8 258.23 1313.04 256.75 1310.89 255.82 1308.88 254.33 1302.22 240.73 1273.45 238.76 1270.24 233.26 1263.63 224.87 1261.93 224.77 1239.61 229.87 1240.07 282.3 1237.03 293.89 1239.45 308.05 1245.32 317.74 1253.87 327.56 1260.59 339.84 1262.64 353.52 1262.3 368.6 1263.64 386.91 1269.4 433.42 1290.54 Z" id="BEN-2178" data-name="Zou"/>
<path d="M 508.64 1230.25 508.04 1238.75 509.41 1248.92 514.61 1258.57 522.27 1267.66 528.01 1277.16 527.31 1288.01 526.69 1290.32 526.51 1291.78 525.67 1292.31 520.07 1291.19 517.37 1291.17 515.38 1292.31 514.74 1295.17 520.18 1358.96 519.91 1362.55 519.06 1365 516.99 1367.68 514.61 1372.6 513.48 1374.33 513.21 1376.12 514.2 1379.5 516.43 1382.28 523.24 1387.85 524.74 1390.3 523.72 1393.1 521.07 1394.51 517.74 1395.48 514.71 1396.92 507.99 1406.24 508.85 1415.65 512.36 1425.59 513.64 1436.46 510.88 1447.33 510.18 1452.95 511.5 1458.06 513.48 1460.69 515.68 1462.27 518.33 1463.06 521.55 1463.36 523.08 1464.53 523.58 1467.16 524.44 1479.12 523 1482.05 519.81 1484.15 515.12 1488.31 512.14 1493.88 512.06 1499.2 514.29 1510.13 513.75 1515.62 508.95 1529.55 508.87 1529.43 498.77 1512.43 494.79 1508.18 482.19 1497.6 477.2 1489.47 471.85 1459.07 459.45 1429.12 456.96 1415.98 457.4 1402.79 462.35 1403.15 464.25 1403.11 465.78 1402.85 466.9 1402.28 467.51 1401.51 467.71 1401.13 467.79 1400.99 467.79 1400.97 466.54 1389.43 460.78 1360.56 461.1 1356.19 460.98 1354.74 459.49 1353.05 447.22 1344.73 443.28 1336.15 439.22 1320.82 438.38 1317.77 438.35 1313.72 437.17 1311.23 435.72 1309.3 434.83 1306.98 434.83 1295.4 433.42 1290.54 431.56 1284.11 430.89 1277.88 433.94 1272.22 442.08 1260.73 444.65 1259.02 448.39 1257.84 448.99 1254.98 447.22 1248.24 447.82 1240.89 451.74 1230.12 455.19 1229.95 508.55 1230.25 508.64 1230.25 Z" id="BEN-2179" data-name="Plateau"/>
<path d="M 328.69 1477.12 327.28 1483.82 327.56 1488.54 327.08 1491.34 326.48 1493.09 324.35 1495.22 323.02 1496.92 321.05 1500.09 320.25 1502.29 319.92 1504.7 320.21 1511.73 321.09 1526.39 320.81 1531.72 320.08 1534.82 318.64 1538.54 312.96 1553.16 311.63 1558.58 312.43 1566.58 316.41 1572.34 318.64 1579.1 319.52 1583.76 319.37 1586 319.37 1586.02 292.62 1589.06 223.94 1604.85 222.07 1599.44 227.43 1596.6 260.74 1588.74 266.12 1588.42 261.25 1569.39 256.21 1549.92 249.54 1539.22 247.31 1537.56 241.74 1534.7 240.02 1533.3 239.46 1531.03 240.1 1525.47 239.78 1522.87 238.15 1520.66 233.83 1517.11 233.16 1515.31 232.81 1512.34 230.94 1511.68 228.39 1511.93 225.95 1511.64 223.92 1510.44 221.75 1508.7 219.71 1506.65 218.15 1504.52 217.32 1501.87 217.48 1499.48 217.94 1497.31 217.89 1495.29 215.05 1490.1 211.7 1487.38 210.03 1484.47 212.18 1478.65 216.04 1473.5 217.12 1474 231.29 1480.76 235.67 1481.3 241.34 1481.4 265.72 1475.67 282.1 1469.68 296.22 1466.62 304.88 1466.96 312.88 1469.21 328.69 1477.12 Z" id="BEN-2180" data-name="Mono"/>
<path d="M 326.56 251.91 327.76 253.29 378.23 342.63 391.01 360.67 393.47 360.75 396.69 361.36 398.98 362.43 400.27 363.17 401.55 363.73 402.76 363.85 403.44 364.06 406.47 366.15 414.91 374.17 399.5 386.87 394.36 392.7 391.71 397.23 390.77 400.41 390.29 404.67 391.59 487.24 388.68 488.85 383.13 492 382.29 492.77 381.56 493.29 375.04 501.72 371.9 507.29 370.21 511.48 369.69 515.18 369.81 519.14 370.05 520.47 370.29 521.17 371.26 523.15 372.75 525.16 379.39 531.32 381 533.37 382.21 535.34 386.15 545.3 386.99 549.38 390.69 561.29 392.71 579.78 392.47 584.97 391.95 588.13 391.06 589.3 389.28 591.19 387.31 592.79 385.02 594.1 374.72 597.74 370.53 598.63 356.37 599.09 353.76 599.86 351.31 600.96 349.9 601.87 348.49 603.22 346.47 605.65 345.62 607.56 345.18 609.07 345.26 610.1 346.39 614.94 272.76 612.63 263.03 616.25 253.93 621.44 245.4 628.32 234.38 633.76 221.34 636.89 204.97 635.1 193.94 632.59 181.35 631.1 170.4 630.77 155.71 633.66 152.45 634.85 152.42 632.86 149.09 624.03 121.73 605.99 84.59 581.52 62.51 566.97 47.58 557.12 22.92 540.88 3.3 527.93 1.21 524.03 1 518.06 4.62 491.36 8.42 476.91 8.61 466.78 6.55 443.41 10.27 434.75 24.37 421.47 27.72 416.7 28.52 414.03 28.92 408.11 29.43 405.33 33.48 397.69 33.11 394.88 30.93 389.62 30.32 386.82 31.07 381.67 37.71 365.7 45.62 370.02 49.1 370.49 53.74 370.53 54.84 369.14 55.48 366.11 55.24 363.07 53.74 361.68 51.68 360.71 50.77 358.35 50.63 355.45 50.93 352.83 51.84 352.22 54.04 348.93 55.56 345.81 57.28 343.5 58.43 343.05 59.64 343.47 65.32 344.36 67.06 345.58 68.37 346.79 69.77 347.35 70.52 347.92 71.88 350.45 72.34 351.04 73.97 350.96 76.79 349.56 77.81 349.28 85.79 350.15 88.42 351.04 89.12 352.32 90.96 354.9 92.87 356.65 93.73 355.47 94.02 351.31 91.07 348.32 89.44 345.56 89.01 342.74 88.96 339.81 88.42 336.73 87.94 336.74 85.47 335.63 84.72 335.12 84.56 333.93 85.02 330.7 84.72 329.65 82.28 329.09 80.65 330.54 79.68 330.9 79.41 326.99 80.75 326.41 89.3 324.51 90.8 323.46 92.57 318.74 93.73 317.41 96.49 317.44 101.66 319.87 104.34 320.79 103 316.33 101.98 307.49 97.13 299.62 98.42 296.37 101.1 293.85 103.8 289.78 106.29 291.74 108.25 294.69 107.9 296.02 110.18 296.05 111.55 295.4 112.89 294.59 115.14 294.08 120.04 294.32 124.25 295.5 132.85 299.54 136.15 293.53 136.55 291.51 135.96 288.96 133.41 286.48 132.85 284.42 134.14 281.31 137.03 282.73 140.06 286.13 141.7 288.92 143.46 286.79 145.29 286.06 147.14 286.79 148.93 288.92 153.46 285.13 152.95 281.8 150.43 278.24 148.93 273.8 151.18 268.89 156.35 265.58 162.22 263.04 166.49 260.44 164.02 254.92 164.34 252.74 166.49 249.65 169.86 247.18 173 246.17 173.1 246.13 175.76 244.7 177.26 240.97 181.49 243.33 186.5 244.34 210.89 246.28 210.36 247.99 209.77 251.64 209.31 253.35 213.81 253.09 219.25 263.04 224.32 261.33 228.74 259.01 240.72 256.51 245.68 254.16 249.72 252.9 261.19 253.7 266.1 253.35 276.28 249.31 281.24 248.31 285.74 249.65 288.23 248.02 291.4 248.47 298.12 251.59 309.08 255.77 318.25 256.47 325.35 253.13 326.56 251.91 Z" id="BEN-2181" data-name="Atakora"/>
<path d="M 346.39 614.94 348.61 620.2 348.37 621.4 348.05 622.59 347.69 622.93 347.51 623.05 345.3 626.98 347.59 639.67 347.59 644.72 345.58 652.08 343.37 665.74 343.17 670.19 343.45 673.57 348.45 687.95 348.97 689.12 352.39 694.51 357.7 700.1 362.01 703.9 364.34 708.51 364.38 712.2 354.16 778.77 353.2 782.18 352.11 783.66 350.58 785.1 349.58 785.85 348.45 786.47 347.11 786.89 345.66 787.18 335.9 786.93 329.81 787.34 325.59 788.06 324.35 788.5 322.42 789.63 320 791.42 316.21 802.62 314.97 811.35 314.85 826.14 315.61 834.35 316.74 839.9 317.26 841.25 318.54 843.49 320.08 845.5 321.69 847.25 322.94 848.33 324.91 849.62 332.55 853.22 333.4 853.91 334.25 854.89 335.37 856.9 335.74 858.72 335.66 860.42 335.29 861.89 333.12 867.22 331.5 873.46 330.17 882.33 330.17 882.37 329.65 885.29 329.09 898.1 329.45 902.31 330.62 907.64 331.46 909.79 332.43 911.64 334.01 913.71 335.78 915.63 337.83 917.28 340.2 918.79 345.38 921.26 371.3 928.46 372.91 929.12 373.7 929.61 375.22 931.18 373.03 940.33 371.1 948.35 373.51 951.46 375.39 955.01 379.63 978.17 376.15 1000.4 378.02 1006.66 379.47 1008.15 377.46 1011.26 373.79 1014.02 371.54 1015.45 368.44 1016.92 364.02 1018.17 357.9 1018.39 356.33 1018.25 354.76 1017.93 347.59 1015.33 344.5 1014.79 338.19 1014.81 336.78 1014.55 335.53 1014.02 332.55 1011.59 331.42 1010.97 323.82 1008.69 321.37 1007.42 319.12 1005.94 317.22 1004.15 313.36 999.18 312.43 998.31 311.31 997.57 310.06 997.09 308.53 996.85 300.64 996.93 299.03 996.7 297.59 996.3 296.22 995.76 295.01 995.08 293.97 994.33 286.96 986.82 284.99 985.21 282.78 983.83 280.01 982.68 278.4 982.28 275.26 982.52 270.99 983.24 248.46 989.24 245.6 989.52 244.23 989.48 239.33 989.92 225.4 989.42 220.71 989.09 220.27 954.38 219.95 930.33 219.57 902.02 219.15 869.58 217.75 862.5 215.69 856.26 210.36 846.96 194.25 830.18 173.53 808.65 172.21 806.62 167.29 799.11 163.54 788.78 161.77 762.5 158.79 755.14 154.35 757.29 150.51 753.41 147.89 747.08 147.06 741.8 148.13 738.43 152.74 731.41 154.35 728.12 154.67 725.47 154.59 720.26 155.2 717.68 155.58 714.53 153.54 702.42 153.22 682.28 152.74 653.95 152.45 634.85 155.71 633.66 170.4 630.77 181.35 631.1 193.94 632.59 204.97 635.1 221.34 636.89 234.38 633.76 245.4 628.32 253.93 621.44 263.03 616.25 272.76 612.63 346.39 614.94 Z" id="BEN-2182" data-name="Donga"/>
</g>
</svg>