<?xml version="1.0"?>
<svg xmlns="http://www.w3.org/2000/svg" version="1.2" baseProfile="tiny" width="800" height="156" viewBox="0 0 800 156" stroke-linecap="round" stroke-linejoin="round">
<g id="ne_10m_admin_1_states_provinces">
<path d="M 90.06 154.69 88.77 154.95 87.51 154.9 86.4 154.51 85.51 153.77 86.83 153.25 88.07 153.25 89.16 153.73 90.06 154.69 Z M 798.01 99.78 798.66 99.86 798.89 100.23 799 100.92 798.9 100.41 798.66 100.12 798.02 99.84 797.92 99.85 796.46 100.19 797.87 99.78 798.01 99.78 Z M 329.94 64.3 328.61 66.34 325.86 64.6 322.99 60.75 321.91 56.67 324.59 54.41 328.13 55.79 329.85 59.93 329.94 64.3 Z M 2.57 1 2.47 1.46 1.82 2.12 1.3 2.37 1 1.7 1.3 1.37 1.67 1.39 2.04 1 2.57 1 Z" fill-rule="evenodd" id="PCN+00?" data-name="Pitcairn Islands"/>
</g>
</svg>