<?xml version="1.0"?>
<svg xmlns="http://www.w3.org/2000/svg" version="1.2" baseProfile="tiny" width="800" height="1000" viewBox="0 0 800 1000" stroke-linecap="round" stroke-linejoin="round">
<g id="ne_10m_admin_1_states_provinces">
<path d="M 637.11 306.26 618.67 295.18 618.22 295.03 616.5 294.21 614.98 292.96 610.5 288.33 608.43 288.96 607.73 289.73 606.86 291.29 606.6 291.64 606.27 291.92 605.94 292.16 605.56 292.35 605.11 292.52 604.63 292.64 604.11 292.7 603.51 292.72 601.48 292.53 600.97 292.64 600.09 292.97 597.67 294.15 597.29 294.12 596.99 293.84 596.62 291.53 596.09 289.66 595.91 289.23 595.43 288.77 594.65 288.32 591.99 287.43 591.12 286.89 590.66 286.53 588.68 283.81 585.33 284.18 584.49 284.23 580.64 283.43 580.17 283.27 579.63 282.84 579.05 282.18 578.17 280.81 577.43 279.41 577.09 278.6 576.96 278.16 575.77 275.67 574.45 273.51 574.17 273.18 573.65 272.83 572.94 272.58 571.54 272.42 570.82 272.55 570.3 272.8 569.92 273.02 569.49 273.17 568.61 272.97 565.01 271.19 562.88 270.43 562.37 270.31 561.45 269.47 557.56 264.47 556 261.89 555.95 261.55 555.84 261.14 554.89 260.31 551.5 259.21 550.34 257.09 550.04 256.2 549.67 255.35 549.29 253.68 547.84 253.48 541.38 254.91 540.37 254.68 539.32 254.53 538.81 254.58 537.39 254.95 535.26 255.77 534.76 255.82 534.26 255.8 533.87 255.6 533.61 255.28 533.42 254.84 533.34 254.35 533.32 253.81 533.44 253.04 533.98 251.91 535.15 250.01 538.23 247.25 540.4 245.79 541.7 244.39 546.75 236.31 543.25 234.8 542.58 234.41 542.29 234.18 542.6 232.75 547.22 225.19 555.28 222.36 555.44 222.27 560.06 222.21 561.66 222.47 562.08 222.67 562.59 222.83 563.24 222.68 563.81 222.5 566.01 220.12 568.13 219.88 569.11 219.53 569.77 218.95 570.3 218.26 570.69 216.83 569.91 212.97 569.57 208.41 569.1 206.88 568.44 205.89 564.94 201.96 564.58 201.71 563.79 201.3 562.3 200.27 560.77 198.93 560.11 198.14 559.71 197.44 557.25 189.11 579.19 198.89 586.88 202.48 597.45 207.42 614.62 215.33 619.21 216.98 644.46 217.18 663.02 217.6 666.54 218.3 666.12 218.98 663.96 222.1 662.57 224.96 661.99 228.06 662.25 231.92 664.27 238.13 664.73 241.32 663.56 244.34 656.09 253.57 650.8 259.91 649.42 262.08 645.48 271.97 635.34 284.01 632.9 288.94 632.3 294.3 632.68 295.95 633.05 298.12 634.11 300.49 634.43 300.97 634.99 301.57 635.36 302.07 636.49 304.38 637.11 306.26 Z" id="CRI-1327" data-name="Cartago"/>
<path d="M 588.59 77.43 589.12 77.82 591.12 78.37 591.67 78.58 592.09 78.84 592.49 79.13 593.37 79.98 594.03 80.77 594.51 81.61 594.61 82.19 594.64 82.8 594.12 86.32 594.18 87.17 594.34 87.78 594.88 88.45 595.47 89.05 596.15 89.61 597.67 90.53 598.32 91.07 598.76 91.57 599.12 92.13 599.15 92.43 598.97 92.59 598.16 92.33 597.53 92.27 596.86 92.29 595.01 92.75 589.9 93.19 588.88 93.4 587.05 94 584.08 95.9 582.33 97.76 581.64 98.29 579.95 99.16 578.47 100.11 577.8 100.67 577.52 100.98 577.23 102.02 577 103.61 576.76 108.95 576.87 110.6 575.88 118.11 575.91 119.15 576.08 119.56 576.33 119.92 576.89 120.58 577.14 120.95 577.34 121.35 577.41 121.86 577.39 122.44 577.23 123.87 577.26 124.47 577.37 124.99 578.07 126.72 578.15 127.2 578.15 128.07 577.16 131.75 575.59 134.12 574.88 134.84 574.54 135.11 574.15 135.32 573.66 135.44 573.2 135.5 572.8 135.68 572.45 136.09 571.05 138.76 570.55 139.48 569.94 140.74 569.8 141.49 569.69 142.53 570.09 145.08 570.31 145.75 572.65 150.04 573.18 151.94 573.51 152.83 573.98 153.53 574.52 154.2 574.73 154.6 574.76 155.46 574.61 156.7 574.04 159.21 573.89 161.34 573.98 161.82 573.77 162.78 573.3 164.05 571.14 168.56 570.6 169.4 562.36 178.12 555.88 178.79 552.48 183.12 551.42 184.21 550.58 184.49 546.7 184.78 543.31 185.51 535.58 186.11 534.7 186.43 534.84 187.3 535.46 188.7 539.49 194.6 541.8 197.06 542.25 198.46 542.54 202.67 543.97 204.21 544.81 204.96 545.38 205.57 545.56 206.86 544.49 210.33 542.31 216.13 538.89 218.15 534.26 219.6 532.46 219.95 527.95 219.58 527.14 219.63 520.7 222.5 518.7 221.67 515.25 219.95 512.18 220.47 511.86 218.93 511.85 217.99 511.89 217.5 512 216.98 512.87 215.59 516.09 212.22 516.14 211.78 518.17 185.23 518.45 161.17 518.71 141.13 519.09 112.92 519.53 75.58 519.58 74.85 521.1 75.07 523.21 74.72 526.46 77.86 528.48 78.62 530.49 77.11 531.7 77.11 533.82 79.16 538.16 76.4 541.16 77.11 543.23 75.06 545.59 74.67 547.53 75.96 548.33 78.95 558.89 87.18 560.07 87.73 561.7 87.98 563.42 87.65 565.86 85.97 567.03 85.58 571.82 86.53 572.47 86.14 576.06 82 587.69 77.64 588.59 77.43 Z" id="CRI-1328" data-name="Heredia"/>
<path d="M 609.52 50.76 613.04 54.79 617.52 62.91 620.7 71.54 620.29 77.08 617.72 73.94 613.11 62.73 616.08 76.71 615.78 82.37 610.72 86.64 613.4 86.16 615.21 84.93 616.91 83.41 619.2 81.97 618.4 82.87 618.22 83.94 618.52 85.2 619.2 86.64 619.87 84.58 620.61 80.56 621.6 78.38 630.09 101.54 640.74 126.34 653.29 147.1 686.72 190.32 689.4 192.35 700.57 205.87 707.46 212.6 711.63 210.29 713.23 211.3 717.85 212.1 718.8 213.44 718.93 216.71 719.49 219.44 720.77 221.86 723.05 224.2 731.21 236.18 733.82 238.02 743.91 251.51 751.53 258.62 756 257.27 757.01 260.02 757.98 267.08 759.6 270.31 762.3 272.37 774.05 276.41 778.23 276.84 782.34 276.7 786.2 277.01 789.61 278.8 793.99 285.34 796.94 287.12 797.11 287.23 797.12 287.23 799 293.8 797.64 293.88 794.96 292.48 792.3 292.05 791.05 293.94 790.32 300.67 789.19 302.91 786.86 303.27 783.6 302.71 780.54 301.78 778.81 300.97 776.95 298.92 774.71 294.7 772.92 292.69 771.51 293.34 769.82 292.71 762.51 286.59 752.36 282.58 749.13 282.94 745.88 285.67 743.89 288.46 743.56 290.08 745.69 293.81 746.9 298.62 747.65 299.63 748.8 299.97 749.6 300.46 749.32 301.88 746.71 303.36 737.37 304.63 734.09 305.78 732.62 308.23 732.17 311.59 732.36 326.1 732.63 347.11 733.01 375.8 732.88 375.7 731.26 374.35 730.7 373.99 727.87 373.1 724.9 370.16 724 368.86 722.91 365.84 721.98 364.38 721.25 363.94 720.16 363.43 714.12 361.77 713.6 361.46 713.11 361.02 712.58 360.12 712.34 359.47 710.43 350.05 709.8 348.33 709.4 347.57 709.14 347.23 708.82 346.94 708.46 346.66 702.19 343.13 701.49 342.63 700.23 341.44 693.38 332.67 692.62 332.45 691.47 332.32 687.71 332.59 685.28 333.04 684.68 333.04 683.76 332.88 682.52 332.5 679.78 331.12 678.11 330.01 677.26 329.57 674.03 328.5 673.13 328.1 672.73 327.86 672.33 327.67 669.09 324.88 668.32 324.37 667.49 323.96 666.91 323.93 666.15 324.07 664.87 324.74 664.22 325.15 663.77 325.59 661.72 328.43 661.43 328.73 660.69 328.97 657.41 329.28 656.43 329.52 655.78 329.82 655.16 330.46 654.83 330.71 654.44 330.95 654.06 330.98 653.67 330.82 653.2 329.46 653.1 328.89 652.96 328.43 652.32 327.89 651.76 327.54 647.18 326.21 645.03 324.7 644.42 324.1 642.93 322.07 637.11 306.26 636.49 304.38 635.36 302.07 634.99 301.57 634.43 300.97 634.11 300.49 633.05 298.12 632.68 295.95 632.3 294.3 632.9 288.94 635.34 284.01 645.48 271.97 649.42 262.08 650.8 259.91 656.09 253.57 663.56 244.34 664.73 241.32 664.27 238.13 662.25 231.92 661.99 228.06 662.57 224.96 663.96 222.1 666.12 218.98 666.54 218.3 663.02 217.6 644.46 217.18 619.21 216.98 614.62 215.33 597.45 207.42 586.88 202.48 579.19 198.89 557.25 189.11 559.64 181.24 560.78 179.67 562.36 178.12 570.6 169.4 571.14 168.56 573.3 164.05 573.77 162.78 573.98 161.82 573.89 161.34 574.04 159.21 574.61 156.7 574.76 155.46 574.73 154.6 574.52 154.2 573.98 153.53 573.51 152.83 573.18 151.94 572.65 150.04 570.31 145.75 570.09 145.08 569.69 142.53 569.8 141.49 569.94 140.74 570.55 139.48 571.05 138.76 572.45 136.09 572.8 135.68 573.2 135.5 573.66 135.44 574.15 135.32 574.54 135.11 574.88 134.84 575.59 134.12 577.16 131.75 578.15 128.07 578.15 127.2 578.07 126.72 577.37 124.99 577.26 124.47 577.23 123.87 577.39 122.44 577.41 121.86 577.34 121.35 577.14 120.95 576.89 120.58 576.33 119.92 576.08 119.56 575.91 119.15 575.88 118.11 576.87 110.6 576.76 108.95 577 103.61 577.23 102.02 577.52 100.98 577.8 100.67 578.47 100.11 579.95 99.16 581.64 98.29 582.33 97.76 584.08 95.9 587.05 94 588.88 93.4 589.9 93.19 595.01 92.75 596.86 92.29 597.53 92.27 598.16 92.33 598.97 92.59 599.15 92.43 599.12 92.13 598.76 91.57 598.32 91.07 597.67 90.53 596.15 89.61 595.47 89.05 594.88 88.45 594.34 87.78 594.18 87.17 594.12 86.32 594.64 82.8 594.61 82.19 594.51 81.61 594.03 80.77 593.37 79.98 592.49 79.13 592.09 78.84 591.67 78.58 591.12 78.37 589.12 77.82 588.59 77.43 600.1 74.72 606.25 71.59 606.75 66.83 605.15 60.6 604.98 53.08 605.07 52.23 604.86 51.34 606.13 50.45 607.16 50.66 608.27 50.64 609.52 50.76 Z" id="CRI-1329" data-name="Limón"/>
<path d="M 4.26 998.57 1 998.73 3.29 994.82 5.41 993.19 7.86 991.72 10.3 991.24 10.3 993.04 10.13 995.31 7.86 997.75 4.26 998.57 Z M 569.93 440.43 568.57 440.94 566.37 440.53 565.32 439.6 567.63 438.46 570.14 438.36 569.93 440.43 Z M 357.32 217.37 358.66 218.12 359.91 217.64 362.7 218.77 369.47 222.62 372.59 223.62 375.94 223.7 379.09 222.36 381.16 223.99 385.57 226.74 387.58 228.45 387.58 229.54 384.09 230.38 384.25 232.9 386.36 235.84 388.67 238.02 387.24 238.5 385.89 239.44 383.78 241.6 386.36 242.76 389.42 243.1 395.73 242.91 395.73 244 393.27 245.65 390.13 246.95 387.43 248.75 386.27 251.83 385.62 252.54 381.49 254.87 380.71 256.15 379.81 259.38 379.09 260.75 373.6 258.05 370.68 257.82 369.42 260.15 370.2 261.58 372.89 264.97 372.46 265.64 366.79 268.39 365.83 268.62 365.19 269.52 361.04 271.62 360.19 273.01 356.36 285.06 354.76 288.13 352.66 290.86 351.37 290.86 346.47 280.85 331.87 261.27 331.84 261.19 331.86 261.17 332.31 260.71 333.34 260.24 333.71 260.17 334.14 259.89 335.26 257.58 335.78 257.16 336.23 256.86 336.65 256.4 337.03 255.67 337.53 254.14 337.91 253.38 338.26 252.85 339.26 252.05 339.42 251.73 339.35 251.33 338.85 250.77 338.61 250.04 338.65 248.97 340.45 242.25 341.12 240.45 341.63 239.37 341.56 238.94 341.23 238.61 338.66 238.01 338.21 237.86 337.85 237.6 337.62 237.24 337.36 236.26 337.21 235.22 336.86 234.4 336.62 234.02 336.43 233.6 335.96 232.87 334.99 232 334.24 230.97 333.91 230.69 333.5 230.48 332.15 230.02 330.98 229.36 329.98 229.15 328.32 229.17 327.83 229.06 327.4 228.88 326.64 228.44 326.21 228.25 324.65 227.97 324.12 227.95 323.55 227.96 321.92 228.18 321.18 228.06 320.43 227.69 319.76 227.1 319.18 226.3 318.88 225.3 319.61 223.95 321.22 222.48 325.53 220.42 327.36 219.85 328.55 219.73 328.87 220.01 329.14 220.31 329.47 220.6 329.83 220.78 330.64 220.56 335.16 217.98 336.04 217.6 339.89 216.69 340.91 215.26 342.68 209.58 342.69 209.58 346.69 213.1 357.32 217.37 Z M 346.59 194.85 348.25 195.73 349 195.69 350.71 196.09 351.68 196.91 353.11 197.29 354.96 197.24 354.96 198.32 352.83 199.09 350.14 199.73 347.16 199.99 344.19 199.64 341.15 198.4 339.55 196.79 337.13 192.35 340.43 191.25 341.9 191.15 347.49 192.09 352.66 193.66 352.66 194.85 346.59 194.85 Z M 733.01 375.8 733.03 377.74 738.27 375.56 739.89 375.55 741.11 376.45 741.74 377.78 742.23 379.16 743.01 380.23 744.04 380.83 747.97 382.57 756.02 388.46 763.99 391.16 766.36 392.72 770.88 400.28 771.58 401.93 771.44 402.15 769.04 406.05 763.79 409.21 745.72 416.55 743.68 418 741.98 420.25 742.81 421.05 744.2 421.9 744.17 424.29 742.54 426.16 737.32 429.39 735.91 430.9 735.7 433.52 736.56 436 738.12 438.3 743.62 444.41 746.55 448.5 748.73 453.03 750.11 458.35 751.15 470.56 750.63 476.72 748.99 481.88 745.11 486.62 740.54 488.86 735.59 490.36 730.55 492.93 722.8 500.28 714.82 504.73 713.28 505.98 713.08 508.17 714.69 509.88 719.6 512.74 720.52 513.73 722.22 516.21 723.19 516.98 724.3 517.04 726.42 516.21 728.01 516.43 731.08 518.03 732.28 519.83 733.08 525.39 742.31 545.47 741.44 553.29 740.34 557.29 737.96 555.43 738.23 552.76 739.56 549.81 740.35 547.12 739.86 544.97 727.93 524.62 723.71 520.21 701.94 504.49 695.98 498.68 701.12 492.43 702.07 491.93 703.06 490.14 704.96 487.81 706.17 485.12 705.06 482.31 699.34 475.22 698.37 473.23 698.28 470.64 699.53 469.73 701.71 469.09 704.46 467.36 702.39 466.7 697.28 466.98 694.78 466.06 693.48 464.61 689.99 457.79 690.57 456.88 690.84 456.27 691.19 455.28 692.38 455.28 694.07 458.13 694.59 459.52 694.78 461.86 695.55 462.26 700.76 460.18 700.76 458.88 698.37 457.87 695.83 456 693.67 453.77 692.38 451.69 691.19 451.69 689.86 453.84 686.67 453.97 683.03 453.55 680.32 454.09 679.03 451.73 676.98 449.27 674.55 448.01 672.06 449.31 666.51 446.07 664.88 443.44 665.97 439.74 664.77 439.65 663.58 439.74 664.3 436.87 661.82 435.49 658.12 434.73 655.19 433.76 654.17 435.82 653.24 435.67 652.09 434.83 650.31 434.84 649.48 435.78 649.26 437.01 648.54 438.08 646.17 438.54 640.37 437.68 638.01 438.53 637.14 442.02 638.47 441.01 638.45 440.93 639.54 440.93 645.69 450.12 646.5 452.91 650.1 458.53 651.49 460.18 653.8 461.36 660.35 463.33 662.98 463.66 665.39 465.09 667.68 467.88 669.9 469.76 672.06 468.45 672.15 472.77 671.8 474.55 670.74 475.73 670.74 476.93 673.39 480.52 674.46 486.65 673.99 493.02 672.06 497.37 668.13 497.52 661.72 495.47 655.68 492.58 652.81 490.2 653.89 490.2 654.67 490.82 655.31 491.11 657.7 491.38 654.32 489.88 652.95 488.99 651.49 487.7 651.49 490.2 641.39 485.82 637.8 485.3 627.07 486.59 624.1 486.61 621.57 485.42 619.24 483.04 614.97 477.53 599.73 463.45 598.75 461.86 598 461.67 594.41 460.22 593.32 459.53 592.78 454.09 598.11 445.93 599.35 444.52 602.1 442.89 603.99 442.17 604.85 442.68 605.41 443.73 606.62 442.52 610.88 436.05 612.03 434.84 609.83 432.06 612.48 428.93 617.29 426.36 621.6 425.27 621.6 424.19 617.8 423.74 615.9 423.91 614.59 424.95 612.57 427.12 610.52 428.07 609.83 426.39 610.67 423.42 613.12 420.49 617.46 418.39 619.46 417.02 620.29 415.05 619.2 413.27 616.93 412.04 614.86 410.39 614.42 407.33 617.81 409.05 619.45 409.55 621.6 409.62 620.55 408.33 619.22 407.36 616.7 406.02 615.63 405.15 615.02 404.33 614.09 403.78 612.03 403.64 614.15 402.37 613.85 401.45 612.63 400.75 612.03 400.15 612.82 398.23 613.72 396.79 614.94 395.52 616.7 394.07 612.06 381.99 611.2 380.45 608.33 377.32 607.13 378.51 603.2 373.44 599.61 367.53 595 362.89 588 361.65 588.4 357.13 584.55 353.27 579.25 350.6 575.33 349.58 561.56 336.54 548.07 330.32 545.91 328.65 529.06 322.08 527.96 322.08 526.83 322.9 525.85 322.89 525.03 322.15 524.37 320.78 521.97 321.8 520.54 320.67 518.91 319.02 515.9 318.49 517.78 315.26 515.28 310.7 510.71 306.71 506.32 305.23 506.32 306.41 507.86 306.71 508.9 307.14 511.22 308.81 506.66 308.02 499.44 303.8 494.85 302.83 490.41 302.49 466.98 296.02 462.5 295.66 460.4 296.02 458.16 296.72 455.83 297.2 453.48 296.85 451.42 295.13 450.73 293.07 449.9 291.4 447.5 290.86 447.95 291.57 448.21 292.1 448.58 293.37 445.68 291.06 439.19 286.9 437.93 284.29 437.31 281.88 435.77 280.72 433.82 279.96 431.94 278.8 431.34 277.02 431.59 275.19 431.11 274 428.36 274.12 429.05 272.13 428.86 270.22 428.41 268.42 428.36 266.84 429.39 264.87 432.41 261.9 433.6 258.93 434.83 257.46 436.06 255.55 436.62 253.02 436.04 250.93 434.67 249.11 431.94 246.39 424.85 235.96 422.87 234.43 420.03 233.22 420.4 230.57 422.87 226.55 418.57 223.04 417.77 221.34 418.68 218.77 413.65 217.24 398.13 218.77 398.13 217.47 400.28 216.63 403.04 216.33 409.11 216.38 409.11 215.18 403.53 214.91 398.55 214.04 394.04 212.52 389.86 210.29 384.58 205.95 383.78 205.01 382.64 204.76 380.42 203.27 378.85 201.61 379.69 200.83 376.76 199.32 369.58 192.66 365.75 190.78 363.94 189.13 362.84 188.76 361.96 189.15 361.21 189.81 360.21 189.96 358.66 188.76 359.7 186.9 360.04 185.71 360 185.68 360.03 185.67 363.54 184.63 364.98 184.66 365.52 184.75 366.08 184.77 367.17 184.66 368.16 184.47 368.65 184.46 369.11 184.57 369.5 184.75 370.16 185.29 370.52 185.55 370.93 185.72 371.4 185.83 371.82 185.8 372.1 185.74 373 185.47 373.7 185.36 374.26 185.39 374.78 185.5 375.65 185.83 377.26 186.7 377.61 186.96 378.92 188.08 381.06 190.74 381.7 191.38 383.08 192.42 384.7 193.28 385.14 193.42 385.62 193.53 386.04 193.49 386.32 193.22 386.23 192.55 385.57 190.68 385.38 189.67 385.39 189.13 385.54 188.06 386.01 187.28 386.83 186.29 390 183.54 390.76 183.04 394.12 181.6 394.48 181.14 394.77 180.54 394.87 179.27 394.75 178.61 394.5 178.1 393.94 177.47 393.7 177.11 393.54 176.73 393.4 176.29 393.4 175.82 393.56 175.22 394.63 173.01 394.81 172.49 395.2 169.12 396.02 166.8 396.1 166.33 396.04 165.87 395.91 165.41 395.68 165.07 394.39 163.89 394.13 163.54 393.93 163.16 393.84 162.7 393.84 162.19 393.94 161.67 394.27 161.07 394.75 160.37 395.52 159.58 396.56 158.88 398.15 158.07 398.8 157.52 400.32 155.92 401.36 155.22 401.94 155.03 402.69 154.87 404 154.82 404.88 154.87 405.88 155.2 406.66 155.54 409.39 157.73 413.31 163.91 414.44 165.25 414.75 165.52 415.89 166.25 416.88 166.32 418.31 166.25 421.65 165.66 424.05 164.98 425.19 164.3 425.6 164.12 426.05 163.95 427.39 164.14 430.52 166.15 431.49 168.87 432.2 169.86 433.25 170.67 433.53 170.97 433.6 171.62 433.4 172.51 431.54 175.86 431.02 177.15 430.01 181.08 430.01 181.72 430.15 182.44 431.12 184.2 431.31 185.17 431.38 185.83 430.72 190.24 431.5 193.04 433.44 197 434.48 198.56 437.34 202.08 438.76 204.36 441.62 207.76 442.72 209.45 442.83 209.86 443.07 210.41 443.23 210.66 443.6 210.77 444.18 210.79 445.54 210.42 446.92 209.36 447.35 209.18 448.61 209.77 450.83 213.38 450.7 214.68 450.54 215.06 449.96 215.59 449.1 216.04 446.35 217.12 437.73 222.68 435.79 223.27 434.44 224.57 431.2 229.61 429.96 230.15 429.68 230.41 429.38 230.8 429.29 231.28 429.31 232.32 429.05 233.24 429.64 233.89 430.84 234.72 434.51 236.17 437.4 236.95 439.68 237.08 441.78 237.49 443.35 238.71 447.16 243.72 445.6 244.98 447.27 245.73 448.53 246.42 449.23 246.95 449.88 247.54 450.18 247.89 451.19 249.28 452.05 250.89 452.19 251.57 452.29 252.54 452.03 253.99 451.74 254.69 451.39 255.13 451.05 255.37 450.63 255.55 450.15 255.67 449.61 255.73 446.24 255.55 445.2 255.67 444.71 255.82 444.29 256.05 443.95 256.32 443.72 256.67 443.58 257.09 443.56 257.57 443.61 258.03 444.96 262.45 445.38 264.56 445.26 267.94 445.31 268.49 445.73 269.52 449.62 276.28 449.75 276.68 450.9 282.5 451.38 283.81 452.15 285.44 453.24 286.9 454.49 288.06 455.04 288.44 456.84 288.66 462.25 287.78 463.49 288.28 463.93 288.34 464.64 288.33 467.37 287.62 467.9 287.62 468.43 287.67 468.85 287.85 469.23 288.1 470.06 289.04 470.4 289.34 470.79 289.55 471.21 289.7 471.72 289.74 472.2 289.68 472.74 289.44 473.22 289.01 474.28 286.89 474.53 286.53 475.01 286.08 476.98 284.5 477.6 283.9 477.99 283.37 478.15 282.93 478.25 281.88 477.64 278.42 477.66 277.97 478.1 277.68 479.1 277.48 481.14 277.52 485.74 276.65 493.23 276.26 495.83 276.5 496.74 277.33 497.42 277.81 498.6 279.28 498.88 279.54 500.75 279.87 506.98 279.71 509.27 280.69 511.88 280.91 519.72 280.21 521.3 280.39 521.72 280.54 522.31 281.02 522.79 281.79 523.16 283.16 523.21 283.98 523.15 284.66 522.82 286.13 522.72 287.25 522.76 287.79 523.06 288.43 523.68 289.15 525.01 290.35 526.35 290.83 527.16 290.99 528.75 290.72 531.04 290.68 532.63 290.91 533.53 291.24 533.95 291.49 534.34 292.13 534.7 293.08 535.06 295.28 535.05 296.33 534.92 297.07 534.46 297.87 534.1 298.74 534.76 299.83 538.56 301.54 541.43 306.99 545.42 310.84 556.9 318.42 559.59 319.27 559.82 318.87 560.12 318.56 560.44 318.29 560.81 318.05 561.21 317.87 561.66 317.73 562.16 317.66 562.7 317.66 563.18 317.75 563.72 318.14 564.31 318.76 565.56 320.99 565.83 321.68 566.56 325.06 566.75 325.5 572.41 331.18 573.57 332.71 574.2 333.83 573.98 335.55 574 336.61 574.28 338.54 575.4 342.06 576.25 343.77 576.73 344.47 577.38 345.22 578.58 346.29 587.29 350.18 588.6 350.52 589.09 350.45 589.52 350.31 589.85 350.05 590.15 349.72 591.68 347.62 592 347.37 592.41 347.15 592.87 346.97 593.38 346.84 593.95 346.75 594.42 346.75 594.91 346.84 595.38 346.97 597.09 347.79 599.53 350.1 603.51 354.96 604.13 356.01 604.18 356.48 604.27 356.93 605.6 361.44 605.79 361.82 606.25 362.49 607.45 363.89 623.36 374.1 623.76 374.28 625.67 374.15 627.15 373.93 627.61 373.92 628.22 373.98 628.66 374.15 629.4 374.69 630.19 375.63 630.48 375.91 631.25 376.36 631.74 376.5 632.21 376.6 632.67 376.56 633.08 376.44 633.44 376.21 633.76 375.9 635.65 373.27 636.28 372.68 636.83 372.32 637.21 372.14 637.58 371.91 637.91 371.6 638.14 370.96 638.27 370.05 637.76 366.03 637.87 365.28 638.16 364.39 639.5 361.95 639.84 360.86 639.73 358.78 639.52 357.8 639.26 357.09 639.01 356.73 638.89 356.27 638.69 355.89 638.39 355.66 637.94 355.65 637.48 355.74 637.01 355.74 636.61 355.59 636.28 355.34 636.01 355.03 635.68 354.74 635.28 354.54 633.75 354.23 633.38 354.02 633.16 353.67 633.12 353.2 634.84 344.36 634.99 343.91 635.56 343.06 640.35 337.73 640.75 337.03 641.2 336.03 642.37 331.76 642.88 330.86 643.35 330.2 647.18 326.21 651.76 327.54 652.32 327.89 652.96 328.43 653.1 328.89 653.2 329.46 653.67 330.82 654.06 330.98 654.44 330.95 654.83 330.71 655.16 330.46 655.78 329.82 656.43 329.52 657.41 329.28 660.69 328.97 661.43 328.73 661.72 328.43 663.77 325.59 664.22 325.15 664.87 324.74 666.15 324.07 666.91 323.93 667.49 323.96 668.32 324.37 669.09 324.88 672.33 327.67 672.73 327.86 673.13 328.1 674.03 328.5 677.26 329.57 678.11 330.01 679.78 331.12 682.52 332.5 683.76 332.88 684.68 333.04 685.28 333.04 687.71 332.59 691.47 332.32 692.62 332.45 693.38 332.67 700.23 341.44 701.49 342.63 702.19 343.13 708.46 346.66 708.82 346.94 709.14 347.23 709.4 347.57 709.8 348.33 710.43 350.05 712.34 359.47 712.58 360.12 713.11 361.02 713.6 361.46 714.12 361.77 720.16 363.43 721.25 363.94 721.98 364.38 722.91 365.84 724 368.86 724.9 370.16 727.87 373.1 730.7 373.99 731.26 374.35 732.88 375.7 733.01 375.8 Z" fill-rule="evenodd" id="CRI-1330" data-name="Puntarenas"/>
<path d="M 557.25 189.11 559.71 197.44 560.11 198.14 560.77 198.93 562.3 200.27 563.79 201.3 564.58 201.71 564.94 201.96 568.44 205.89 569.1 206.88 569.57 208.41 569.91 212.97 570.69 216.83 570.3 218.26 569.77 218.95 569.11 219.53 568.13 219.88 566.01 220.12 563.81 222.5 563.24 222.68 562.59 222.83 562.08 222.67 561.66 222.47 560.06 222.21 555.44 222.27 555.28 222.36 547.22 225.19 542.6 232.75 542.29 234.18 542.58 234.41 543.25 234.8 546.75 236.31 541.7 244.39 540.4 245.79 538.23 247.25 535.15 250.01 533.98 251.91 533.44 253.04 533.32 253.81 533.34 254.35 533.42 254.84 533.61 255.28 533.87 255.6 534.26 255.8 534.76 255.82 535.26 255.77 537.39 254.95 538.81 254.58 539.32 254.53 540.37 254.68 541.38 254.91 547.84 253.48 549.29 253.68 549.67 255.35 550.04 256.2 550.34 257.09 551.5 259.21 554.89 260.31 555.84 261.14 555.95 261.55 556 261.89 557.56 264.47 561.45 269.47 562.37 270.31 562.88 270.43 565.01 271.19 568.61 272.97 569.49 273.17 569.92 273.02 570.3 272.8 570.82 272.55 571.54 272.42 572.94 272.58 573.65 272.83 574.17 273.18 574.45 273.51 575.77 275.67 576.96 278.16 577.09 278.6 577.43 279.41 578.17 280.81 579.05 282.18 579.63 282.84 580.17 283.27 580.64 283.43 584.49 284.23 585.33 284.18 588.68 283.81 590.66 286.53 591.12 286.89 591.99 287.43 594.65 288.32 595.43 288.77 595.91 289.23 596.09 289.66 596.62 291.53 596.99 293.84 597.29 294.12 597.67 294.15 600.09 292.97 600.97 292.64 601.48 292.53 603.51 292.72 604.11 292.7 604.63 292.64 605.11 292.52 605.56 292.35 605.94 292.16 606.27 291.92 606.6 291.64 606.86 291.29 607.73 289.73 608.43 288.96 610.5 288.33 614.98 292.96 616.5 294.21 618.22 295.03 618.67 295.18 637.11 306.26 642.93 322.07 644.42 324.1 645.03 324.7 647.18 326.21 643.35 330.2 642.88 330.86 642.37 331.76 641.2 336.03 640.75 337.03 640.35 337.73 635.56 343.06 634.99 343.91 634.84 344.36 633.12 353.2 633.16 353.67 633.38 354.02 633.75 354.23 635.28 354.54 635.68 354.74 636.01 355.03 636.28 355.34 636.61 355.59 637.01 355.74 637.48 355.74 637.94 355.65 638.39 355.66 638.69 355.89 638.89 356.27 639.01 356.73 639.26 357.09 639.52 357.8 639.73 358.78 639.84 360.86 639.5 361.95 638.16 364.39 637.87 365.28 637.76 366.03 638.27 370.05 638.14 370.96 637.91 371.6 637.58 371.91 637.21 372.14 636.83 372.32 636.28 372.68 635.65 373.27 633.76 375.9 633.44 376.21 633.08 376.44 632.67 376.56 632.21 376.6 631.74 376.5 631.25 376.36 630.48 375.91 630.19 375.63 629.4 374.69 628.66 374.15 628.22 373.98 627.61 373.92 627.15 373.93 625.67 374.15 623.76 374.28 623.36 374.1 607.45 363.89 606.25 362.49 605.79 361.82 605.6 361.44 604.27 356.93 604.18 356.48 604.13 356.01 603.51 354.96 599.53 350.1 597.09 347.79 595.38 346.97 594.91 346.84 594.42 346.75 593.95 346.75 593.38 346.84 592.87 346.97 592.41 347.15 592 347.37 591.68 347.62 590.15 349.72 589.85 350.05 589.52 350.31 589.09 350.45 588.6 350.52 587.29 350.18 578.58 346.29 577.38 345.22 576.73 344.47 576.25 343.77 575.4 342.06 574.28 338.54 574 336.61 573.98 335.55 574.2 333.83 573.57 332.71 572.41 331.18 566.75 325.5 566.56 325.06 565.83 321.68 565.56 320.99 564.31 318.76 563.72 318.14 563.18 317.75 562.7 317.66 562.16 317.66 561.66 317.73 561.21 317.87 560.81 318.05 560.44 318.29 560.12 318.56 559.82 318.87 559.59 319.27 556.9 318.42 545.42 310.84 541.43 306.99 538.56 301.54 534.76 299.83 534.1 298.74 534.46 297.87 534.92 297.07 535.05 296.33 535.06 295.28 534.7 293.08 534.34 292.13 533.95 291.49 533.53 291.24 532.63 290.91 531.04 290.68 528.75 290.72 527.16 290.99 526.35 290.83 525.01 290.35 523.68 289.15 523.06 288.43 522.76 287.79 522.72 287.25 522.82 286.13 523.15 284.66 523.21 283.98 523.16 283.16 522.79 281.79 522.31 281.02 521.72 280.54 521.3 280.39 519.72 280.21 511.88 280.91 509.27 280.69 506.98 279.71 500.75 279.87 498.88 279.54 498.6 279.28 497.42 277.81 496.74 277.33 495.83 276.5 493.23 276.26 485.74 276.65 481.14 277.52 479.1 277.48 478.1 277.68 477.66 277.97 477.64 278.42 478.25 281.88 478.15 282.93 477.99 283.37 477.6 283.9 476.98 284.5 475.01 286.08 474.53 286.53 474.28 286.89 473.22 289.01 472.74 289.44 472.2 289.68 471.72 289.74 471.21 289.7 470.79 289.55 470.4 289.34 470.06 289.04 469.23 288.1 468.85 287.85 468.43 287.67 467.9 287.62 467.37 287.62 464.64 288.33 463.93 288.34 463.49 288.28 462.25 287.78 456.84 288.66 455.04 288.44 454.49 288.06 453.24 286.9 452.15 285.44 451.38 283.81 450.9 282.5 449.75 276.68 449.62 276.28 445.73 269.52 445.31 268.49 445.26 267.94 445.38 264.56 444.96 262.45 443.61 258.03 443.56 257.57 443.58 257.09 443.72 256.67 443.95 256.32 444.29 256.05 444.71 255.82 445.2 255.67 446.24 255.55 449.61 255.73 450.15 255.67 450.63 255.55 451.05 255.37 451.39 255.13 451.74 254.69 452.03 253.99 452.29 252.54 452.19 251.57 452.05 250.89 451.19 249.28 450.18 247.89 449.88 247.54 449.23 246.95 448.53 246.42 447.27 245.73 445.6 244.98 447.16 243.72 448.44 243.69 448.72 243.36 448.95 242.03 449.24 241.37 452.48 237.4 452.56 236.82 452.51 236.37 453.02 235.76 454.17 234.91 457.19 233.35 459.23 231.36 459.45 230.94 459.62 230.69 461.04 229.83 466.44 227.47 474.23 226.83 478.51 226.01 481.91 226.97 485.37 227.53 486.04 227.75 486.88 227.95 488.99 228.2 489.91 228.48 493.03 228.04 504.73 224.8 509.6 223.24 512.18 220.47 515.25 219.95 518.7 221.67 520.7 222.5 527.14 219.63 527.95 219.58 532.46 219.95 534.26 219.6 538.89 218.15 542.31 216.13 544.49 210.33 545.56 206.86 545.38 205.57 544.81 204.96 543.97 204.21 542.54 202.67 542.25 198.46 541.8 197.06 539.49 194.6 535.46 188.7 534.84 187.3 534.7 186.43 535.58 186.11 543.31 185.51 546.7 184.78 550.58 184.49 551.42 184.21 552.48 183.12 555.88 178.79 562.36 178.12 560.78 179.67 559.64 181.24 557.25 189.11 Z" id="CRI-1331" data-name="San José"/>
<path d="M 519.58 74.85 519.53 75.58 519.09 112.92 518.71 141.13 518.45 161.17 518.17 185.23 516.14 211.78 516.09 212.22 512.87 215.59 512 216.98 511.89 217.5 511.85 217.99 511.86 218.93 512.18 220.47 509.6 223.24 504.73 224.8 493.03 228.04 489.91 228.48 488.99 228.2 486.88 227.95 486.04 227.75 485.37 227.53 481.91 226.97 478.51 226.01 474.23 226.83 466.44 227.47 461.04 229.83 459.62 230.69 459.45 230.94 459.23 231.36 457.19 233.35 454.17 234.91 453.02 235.76 452.51 236.37 452.56 236.82 452.48 237.4 449.24 241.37 448.95 242.03 448.72 243.36 448.44 243.69 447.16 243.72 443.35 238.71 441.78 237.49 439.68 237.08 437.4 236.95 434.51 236.17 430.84 234.72 429.64 233.89 429.05 233.24 429.31 232.32 429.29 231.28 429.38 230.8 429.68 230.41 429.96 230.15 431.2 229.61 434.44 224.57 435.79 223.27 437.73 222.68 446.35 217.12 449.1 216.04 449.96 215.59 450.54 215.06 450.7 214.68 450.83 213.38 448.61 209.77 447.35 209.18 446.92 209.36 445.54 210.42 444.18 210.79 443.6 210.77 443.23 210.66 443.07 210.41 442.83 209.86 442.72 209.45 441.62 207.76 438.76 204.36 437.34 202.08 434.48 198.56 433.44 197 431.5 193.04 430.72 190.24 431.38 185.83 431.31 185.17 431.12 184.2 430.15 182.44 430.01 181.72 430.01 181.08 431.02 177.15 431.54 175.86 433.4 172.51 433.6 171.62 433.53 170.97 433.25 170.67 432.2 169.86 431.49 168.87 430.52 166.15 427.39 164.14 426.05 163.95 425.6 164.12 425.19 164.3 424.05 164.98 421.65 165.66 418.31 166.25 416.88 166.32 415.89 166.25 414.75 165.52 414.44 165.25 413.31 163.91 409.39 157.73 412.2 152.45 412.5 150.72 412.08 149.96 411.84 149.61 411.35 148.41 410.66 145.17 413.36 135.51 409.54 127.98 408.23 125.97 398.22 118.37 395.06 116.77 385.43 114.29 382.99 113.33 381.12 111.27 376.44 107.14 375.88 106.51 374.89 105.01 374.37 103.79 373.57 99.07 371.57 95.52 369.08 91.61 367.98 90.45 366.87 89.78 364.51 88.78 362.55 88.22 353.25 86.03 350.51 85.11 349.43 84.33 348.12 83.11 342.92 79.61 341.57 78.93 340.55 78.51 339.44 78.42 338.28 78.46 336.13 78.73 332.29 79.65 327.72 80.09 322.48 79.91 318.17 71.47 316.64 69.15 315.87 68.59 315.46 68.35 315.03 68.16 314.58 68.01 310.63 67.52 309.56 67.14 305.29 64.7 303.3 63.19 295.36 54.1 295.14 53.8 294.75 53.06 294.72 52.6 294.8 52.2 295.45 51.44 301.4 51.01 303.01 50.32 303.51 49.52 303.87 48.74 317.62 39.49 325.99 30.18 326.64 29.73 327.12 29.59 327.8 29.5 328.86 29.13 330.17 28.83 330.58 28.48 355.75 37.67 384.03 47.96 388.06 48.4 392.17 46.95 410.25 35.17 423.21 26.74 428.7 25.44 431.8 26.79 438.47 31.52 441.53 31.95 445.3 31.74 449.34 33.01 458.08 36.81 459.03 37.07 459.93 37.43 460.78 37.88 461.52 38.42 465.5 43.31 467 44.55 468.57 45.43 470.44 46.16 472.36 46.35 474.02 45.66 483.44 39.6 484.93 38.72 486.6 39.55 487 40.87 486.97 42.64 487.33 44.81 488.1 46.07 490.43 48.96 490.92 50.19 492.77 51.9 500.91 54.98 502.77 56.23 504.34 57.94 507.68 59.63 510.7 62.14 511.36 66.34 508.93 67.59 508.2 68.08 507.42 69.44 507.75 70.42 508.46 71.17 508.86 71.78 512.72 74.83 513.64 76.02 515.6 74.62 518.33 74.67 519.58 74.85 Z" id="CRI-1333" data-name="Alajuela"/>
<path d="M 330.58 28.48 330.17 28.83 328.86 29.13 327.8 29.5 327.12 29.59 326.64 29.73 325.99 30.18 317.62 39.49 303.87 48.74 303.51 49.52 303.01 50.32 301.4 51.01 295.45 51.44 294.8 52.2 294.72 52.6 294.75 53.06 295.14 53.8 295.36 54.1 303.3 63.19 305.29 64.7 309.56 67.14 310.63 67.52 314.58 68.01 315.03 68.16 315.46 68.35 315.87 68.59 316.64 69.15 318.17 71.47 322.48 79.91 327.72 80.09 332.29 79.65 336.13 78.73 338.28 78.46 339.44 78.42 340.55 78.51 341.57 78.93 342.92 79.61 348.12 83.11 349.43 84.33 350.51 85.11 353.25 86.03 362.55 88.22 364.51 88.78 366.87 89.78 367.98 90.45 369.08 91.61 371.57 95.52 373.57 99.07 374.37 103.79 374.89 105.01 375.88 106.51 376.44 107.14 381.12 111.27 382.99 113.33 385.43 114.29 395.06 116.77 398.22 118.37 408.23 125.97 409.54 127.98 413.36 135.51 410.66 145.17 411.35 148.41 411.84 149.61 412.08 149.96 412.5 150.72 412.2 152.45 409.39 157.73 406.66 155.54 405.88 155.2 404.88 154.87 404 154.82 402.69 154.87 401.94 155.03 401.36 155.22 400.32 155.92 398.8 157.52 398.15 158.07 396.56 158.88 395.52 159.58 394.75 160.37 394.27 161.07 393.94 161.67 393.84 162.19 393.84 162.7 393.93 163.16 394.13 163.54 394.39 163.89 395.68 165.07 395.91 165.41 396.04 165.87 396.1 166.33 396.02 166.8 395.2 169.12 394.81 172.49 394.63 173.01 393.56 175.22 393.4 175.82 393.4 176.29 393.54 176.73 393.7 177.11 393.94 177.47 394.5 178.1 394.75 178.61 394.87 179.27 394.77 180.54 394.48 181.14 394.12 181.6 390.76 183.04 390 183.54 386.83 186.29 386.01 187.28 385.54 188.06 385.39 189.13 385.38 189.67 385.57 190.68 386.23 192.55 386.32 193.22 386.04 193.49 385.62 193.53 385.14 193.42 384.7 193.28 383.08 192.42 381.7 191.38 381.06 190.74 378.92 188.08 377.61 186.96 377.26 186.7 375.65 185.83 374.78 185.5 374.26 185.39 373.7 185.36 373 185.47 372.1 185.74 371.82 185.8 371.4 185.83 370.93 185.72 370.52 185.55 370.16 185.29 369.5 184.75 369.11 184.57 368.65 184.46 368.16 184.47 367.17 184.66 366.08 184.77 365.52 184.75 364.98 184.66 363.54 184.63 360.03 185.67 360 185.68 359.25 185.17 358.56 184.84 356.27 182.78 353.11 183.8 341.25 183.97 338.12 183.18 335.31 181.24 330.92 176.7 330.92 175.61 331.93 172.4 328.87 168.72 321.35 163.53 322.42 167.07 327.48 170.73 328.64 175.01 329.11 183.13 330.16 187.9 332.23 191.15 329.95 192.61 330.27 195.03 332.33 197.32 337.69 199.18 339.59 201.23 341.9 205.61 342.99 205.61 344.4 205.03 345.02 205.5 345.28 206.7 343.76 206.82 342.18 206.62 340.68 206.17 339.4 205.61 339.4 206.7 342.68 209.58 340.91 215.26 339.89 216.69 336.04 217.6 335.16 217.98 330.64 220.56 329.83 220.78 329.47 220.6 329.14 220.31 328.87 220.01 328.55 219.73 327.36 219.85 325.53 220.42 321.22 222.48 319.61 223.95 318.88 225.3 319.18 226.3 319.76 227.1 320.43 227.69 321.18 228.06 321.92 228.18 323.55 227.96 324.12 227.95 324.65 227.97 326.21 228.25 326.64 228.44 327.4 228.88 327.83 229.06 328.32 229.17 329.98 229.15 330.98 229.36 332.15 230.02 333.5 230.48 333.91 230.69 334.24 230.97 334.99 232 335.96 232.87 336.43 233.6 336.62 234.02 336.86 234.4 337.21 235.22 337.36 236.26 337.62 237.24 337.85 237.6 338.21 237.86 338.66 238.01 341.23 238.61 341.56 238.94 341.63 239.37 341.12 240.45 340.45 242.25 338.65 248.97 338.61 250.04 338.85 250.77 339.35 251.33 339.42 251.73 339.26 252.05 338.26 252.85 337.91 253.38 337.53 254.14 337.03 255.67 336.65 256.4 336.23 256.86 335.78 257.16 335.26 257.58 334.14 259.89 333.71 260.17 333.34 260.24 332.31 260.71 331.86 261.17 331.84 261.19 330.92 259 330.2 258.18 328.58 257.17 324.19 255.38 323.82 253.99 323.89 252.39 323.74 251.17 319.57 246.62 313.77 243.36 294.93 236.71 293.25 237.07 290.74 238.8 289.6 239.22 287.92 238.82 285.54 237.11 283.62 236.71 282.49 236.62 282.1 236.34 281.87 235.82 281.23 235.02 280 234.46 278.98 234.72 278.31 235.28 278.18 235.62 268.28 232.47 263.54 231.75 262.42 231.06 261.53 230.23 260.13 229.54 258.17 229.63 256.87 230.4 255.71 230.48 254.15 228.45 255.41 225.19 253.55 220.77 235.61 198.98 234.54 197.06 233.13 192.34 230.97 189.04 224.14 172.5 223.52 167.54 222.77 164.53 221.74 162.33 224.16 159.99 225.17 158.31 224.79 156.89 221.06 152.19 218.72 150.78 220.01 149.05 223.05 146.67 225.1 143.7 226.54 140.8 229.53 141.97 231.16 140.11 232.42 137.39 236.15 134.61 234.71 131.47 232.06 128.19 230.24 126.34 231.33 125.59 231.8 125.33 232.62 125.14 232.62 123.94 230.24 123.94 230.24 122.74 232.23 122.37 233.51 121.16 235.01 117.85 236.21 117.85 238.65 119.81 242.08 118.4 245.59 116.46 248.27 116.77 249.36 116.77 249.13 114.47 249.73 113.36 250.72 112.75 251.65 111.98 253.25 109.24 253.89 109.39 256.06 109.59 261.33 104.15 260.93 102.7 260.01 101.59 257.74 100.03 250.56 107.2 250.39 106.62 250.41 106.11 250.22 105.82 249.36 105.89 249.36 104.8 251.39 102.61 252.63 101.69 254.15 101.22 252.96 100.03 252.8 100.18 252.56 100.52 252.2 100.89 251.65 101.22 252.09 99.77 252.18 99.26 254.15 98.72 254.15 97.63 252.96 97.63 252.96 96.33 255.88 94.02 256.46 88.07 255.46 76.53 252.83 73.46 247.03 70.92 241.23 69.98 238.6 71.75 237.55 71.75 232.72 67.8 231.31 66.31 232.15 66.58 233.19 66.11 233.62 65.13 232.62 63.91 231.33 63.63 227.95 63.95 226.54 63.91 221.38 62 217.33 59.65 212.79 57.68 206.2 56.85 206.2 55.55 210.16 54.56 217.57 51.24 221.74 50.76 221.08 49.68 220.55 49.02 219.74 48.62 218.16 48.36 218.16 47.18 226.82 46.67 229.02 47.18 229.94 48.53 229.72 50.09 229.29 51.4 229.64 51.96 230.36 52.29 232.62 54.34 233.71 54.34 235.01 53.05 235.01 51.96 233.02 50 234.93 48.74 238.66 48.19 242.19 48.36 243.39 48.92 244.96 50.45 246.38 50.76 247.52 50.34 248.01 49.34 247.82 48.15 246.97 47.18 246.97 45.87 249.57 44.92 250.3 42.99 249.7 40.72 248.27 38.69 247 37.78 244.05 36.57 242.79 35.7 241.31 34.16 241.31 33.75 242.2 33.56 243.39 32.71 246.07 30.26 247.62 31.1 249.44 32.76 252.96 32.71 255.07 30.8 254.59 28.25 252.7 25.8 250.56 24.23 249.07 23.61 249.07 23.61 253.3 16.82 256.5 9.95 261.44 3.4 267.28 1 272.3 3.55 277.24 7.94 282.9 11.08 300.63 17.55 324.29 26.18 330.58 28.48 Z" id="CRI-1334" data-name="Guanacaste"/>
</g>
</svg>