<?xml version="1.0"?>
<svg xmlns="http://www.w3.org/2000/svg" version="1.2" baseProfile="tiny" width="800" height="592" viewBox="0 0 800 592" stroke-linecap="round" stroke-linejoin="round">
<g id="ne_10m_admin_1_states_provinces">
<path d="M 789.78 388.02 788.06 389.29 785.49 389.67 783.36 389.67 781.3 389.91 771.65 394.8 770.03 396.5 770.02 396.5 770.02 396.51 770.02 396.51 768.97 399.12 768.45 401.66 767.99 406.94 766.03 416.26 767.11 419.58 772.04 421.06 774.42 421.34 780.87 423.28 781.35 423.22 782.48 422.65 783.11 422.66 783.81 423.13 784.67 424.48 785.18 425.07 787.21 426.84 787.96 427.75 790.53 432.39 791.54 433.56 794.54 435.56 795.3 436.49 795.86 438.5 795.61 442.63 795.85 444.9 797.19 449.37 797.19 451.24 796.42 453.94 796.08 456.51 796.77 458.81 799 463.38 792.73 464.06 789.76 463.65 787.32 462.12 783.94 455.38 781.64 452.3 779.28 452.68 778.89 454.3 779.17 456.08 778.98 457.59 777.15 458.43 775.35 458.37 773.6 457.85 772.06 457 770.88 455.96 770.05 454.54 769.47 452.99 768.73 451.57 767.39 450.52 765.86 450.24 764.21 450.46 761 451.29 760.01 451.14 758.12 451.3 757.24 451.24 756.54 450.9 755.36 449.87 754.45 449.57 752.27 449.73 748.69 451.14 746.5 451.37 742.65 450.59 741.15 450.79 735.92 454.91 735.33 455.67 735.34 456.96 735.9 458.12 736.65 459.3 737.21 460.66 737.38 462.88 736.05 469 736.05 471.02 736.3 473.03 735.99 474.27 734.23 476.11 734.08 477.24 743.01 483.08 753.49 486.27 754.52 486.13 761 483.92 762.34 483.9 762.43 484.95 761.8 486.44 761 487.76 760.36 491.04 760.4 492.66 761 494.18 763.01 495.38 764.8 497.35 766.11 499.72 766.39 500.8 766.71 502.07 764.8 501.92 763.5 501.1 762.46 500.21 761.4 499.87 756.9 500.61 755.26 500.55 755.46 501.47 750.72 498.46 740.38 489.09 732.63 482.62 722.93 480.04 716.47 480.36 714.85 477.78 711.3 475.19 704.83 474.54 703.54 470.67 699.34 466.14 692.55 464.53 683.5 465.17 674.13 469.37 664.76 471.64 666.38 467.11 668.64 460.97 670.58 453.86 668.96 444.49 665.41 435.44 660.24 428.33 658.62 423.48 658.44 400.23 663.04 395.94 667.64 393.79 675.91 392.26 680.51 390.11 684.39 388.38 684.45 387.8 684.65 387.2 685.56 385.39 685.79 384.31 686.17 383.3 690.91 375.16 695.83 371.73 698.28 367.13 701.96 362.22 705.64 361 706.56 356.71 711.16 355.18 716.67 355.48 721.27 357.01 728.32 360.08 733.53 359.47 739.96 356.1 746.71 353.03 755.11 353.37 756.88 354.28 759.22 354.76 761.63 354.87 763.6 354.69 765.8 353.86 769.89 351.57 772.17 351.1 776.61 351.11 777.17 352.04 774.34 360.61 773.99 363.1 770.15 372.44 770.27 376.35 775.74 378.5 777.07 378.27 778.16 377.82 779.05 378 780.52 380.75 781.69 381.94 784.09 383.78 788.57 386.27 789.93 387.91 789.78 388.02 Z" id="GIN-5627" data-name="Beyla"/>
<path d="M 158.98 211.68 157.7 228.93 152.53 232.81 150.59 234.1 146.07 235.72 143.48 239.6 137.67 246.06 135.73 250.59 136.77 256.72 134.39 262.84 131.33 268.62 127.21 274.69 126.76 275.23 126.6 275.99 126.93 277.35 127.24 278.1 127.65 278.83 128.14 279.43 140.41 289.68 140.94 289.97 141.47 290.18 142.74 290.41 146.97 290.43 147.62 290.55 148.69 291.03 149.58 291.89 150.61 293.68 150.6 293.84 150.6 293.86 150.21 293.54 149.83 294.98 149.65 297.03 149.35 298.07 148.19 298.77 146.07 301.82 144.54 302.47 144.68 302.92 144.21 303.25 140.46 304.68 140.02 304.7 137.76 304.53 135.83 304.12 134.2 303.54 133.51 302.81 132.88 301.6 131.37 299.73 129.54 298.01 127.98 297.26 125.08 295.46 124.48 294.66 123.17 292.12 122.21 291.69 120.4 291.6 119.5 291.33 118.69 290.67 116.57 288.45 114.96 287.78 113.82 287.6 112.67 287.18 111.02 285.85 110.64 283.18 112.33 280.02 115.11 278.41 117.96 280.37 117.18 279.08 115.7 277.29 114.26 276.02 113.63 276.3 112.82 277.67 111.19 277.1 109.94 275.86 110.25 275.17 112.58 274.23 114.39 272.01 117.3 267.09 115.73 267.83 114.62 268.8 112.49 271.12 111.32 271.86 108.38 273.2 107.68 273.7 107.49 275.01 107.68 279.97 107.37 281.19 106.47 282.3 105.09 283.08 103.28 283.31 100.81 282.58 98.95 280.95 97.95 278.86 98.06 276.7 99.79 274.95 102.43 273.03 103.99 271.08 102.47 269.29 102.05 270.87 100.82 271.75 99.16 272.14 97.4 272.22 97.66 274.63 95.76 276.44 93.37 277.15 92.19 276.3 91.85 275.56 91.09 274.65 90.34 273.45 89.99 271.86 90.35 271.08 91.04 270.4 91.47 269.73 91.06 268.96 90.48 268.75 89.89 268.9 89.43 269.25 89.26 269.66 88.24 271.38 85.87 270.09 79.39 264.23 78.28 263.7 76.77 263.35 75.14 263.46 73.67 263.89 72.27 264.04 70.83 263.35 68.61 265.48 67.53 264.35 67.18 261.71 67.15 259.3 68 255.84 67.96 254.47 67.48 253.07 66.89 252.4 66.16 251.96 59.5 245.15 58.35 242.79 58.04 240.53 58.07 237.78 58.61 235.32 59.68 233.98 63.66 230.87 67.86 227.32 73.68 224.73 87.57 224.09 95.01 221.82 101.75 216.6 111.95 216.6 113.99 219.66 118.75 218.98 125.03 215.94 125.82 216.71 126.35 216.87 126.73 216.66 127.03 216.14 127.42 215.7 128.8 215.17 129.29 214.93 133.37 214.22 134.27 210.88 135.28 210.62 136.09 210.15 136.83 209.44 137.72 208.99 138.81 208.88 141.63 210 142.69 210.24 144.66 210.02 145.87 210.14 146.96 210.86 158.98 211.68 Z" id="GIN-5628" data-name="Boffa"/>
<path d="M 115.66 112.47 114.72 117.12 112.13 120.35 112.13 123.58 115.04 125.84 120.54 125.84 124.41 128.75 126.03 134.89 127 140.38 129.91 142.97 134.43 143.94 138.1 149.6 136.16 151.4 134.06 151.77 134.56 152.83 134.99 153.03 135.65 153.18 137.01 153.3 137.49 153.55 138.46 154.86 139.23 155.59 140.52 157.24 140.66 157.94 140.5 160.35 140.76 161.04 141.22 161.46 141.68 161.73 142.88 162.76 143.09 163.3 143.15 164 143.11 164.93 143.24 167.23 143.11 168.25 142.03 172.67 141.78 173.07 141.4 173.33 140.37 173.78 139.46 174.47 137.36 176.37 137.02 177.04 137.1 178.08 136.09 182.94 134.39 187.02 132.34 192.84 124.77 196.31 118.41 195.86 112.97 203.34 106.51 209.8 101.75 216.6 95.01 221.82 87.57 224.09 73.68 224.73 67.86 227.32 63.66 230.87 59.68 233.98 59.74 233.9 59.7 233.91 57.98 234.05 56.8 234.85 55.81 235.92 54.6 236.84 53.14 237.37 51.3 237.65 49.64 237.34 48.73 236.1 47.99 236.1 47.25 237.46 46.54 236.98 46.01 235.42 45.79 233.53 45.89 231.64 46.18 230.2 47.33 227.23 48.52 227.62 49.96 226.46 51.53 224.78 53.14 223.62 50.54 223.56 49.67 222.17 49.8 220.21 51.12 214.2 51.97 212.69 53.14 213.34 53.8 213.34 54.01 211.73 54.83 210.9 55.72 210.44 56.14 209.93 57.54 205.13 60.14 199.99 61.63 199.39 62.47 197.94 62.61 196.22 62.01 194.78 62.43 194.29 63.48 192.71 61.37 193.33 61.08 194.16 61.45 195.36 61.21 197.05 57.6 199.54 57.17 199.99 55.61 201.18 53.79 203.88 52.28 206.77 51.04 210.26 49.56 212.58 46.53 216.21 43.49 218.84 42.02 219.39 41.38 218.08 41.6 216.41 42.2 215.22 43.13 214.46 44.33 214.01 43.53 213.84 42.88 213.86 42.23 214.15 41.38 214.74 39.91 213.34 41.25 209.05 42.09 207.22 43.25 205.53 43.91 204.9 45.43 203.9 46.16 203.29 46.73 202.45 47.02 201.7 47.23 201.44 46.67 201.23 45.79 200.72 44.37 202.55 39.51 206.27 38.26 208.09 37 212.11 35.51 213.34 34.47 211.25 33.1 209.91 32.01 208.43 31.77 205.93 33.22 205.98 34.47 205 35.45 203.54 36.17 202.19 36.7 200.78 37.04 199.16 37.16 197.77 36.97 197.05 37.28 196.43 37.43 195.95 37.64 194.78 35.66 196.22 34.97 197.1 34.71 198.12 34.19 198.59 31.1 199.99 30.3 199.99 30.2 198.77 30.26 197.61 30.54 196.55 31.1 195.58 30.46 194.6 30.38 193.64 30.83 192.74 31.77 191.91 29.75 191.72 29.12 190.46 29.44 188.83 30.3 187.5 31.66 186.64 33.54 185.94 35.55 185.47 37.31 185.3 38.58 184.61 39.31 183.09 39.78 181.58 40.24 180.9 42.06 180.41 44.06 178.04 45.79 177.15 44.98 176.54 44.45 175.88 43.59 174.15 43.39 175.16 43.06 176.13 42.54 176.86 41.75 177.15 41.15 177.29 39.46 177.96 39.11 178.22 38.68 180.37 37.53 182.17 35.88 183.02 33.98 182.29 33.45 182.8 32.9 183.03 32.16 183.11 31.1 183.09 31.73 181.03 31.1 179.72 30.09 179.44 29.57 180.49 26.56 184.5 23.21 183.87 21.08 177.75 18.49 177.89 20.32 179.75 20.61 181.73 20.04 183.64 19.29 185.3 17.05 183.62 15.76 183.15 14.07 183.09 17.65 185.78 18.93 187.2 19.29 188.97 18.24 190.93 16.2 192.93 14.23 194.32 13.34 194.45 13.12 194.14 12.61 194.03 12.1 194.14 11.87 194.45 11.99 195.11 12.5 196.14 12.61 196.68 12.61 200.36 13.06 200.97 14.07 201.44 15.08 202.11 15.54 203.29 15.36 203.85 14.07 205.93 12.14 204.98 8.23 204.38 6.33 203.29 4.07 200.96 2.26 198.52 1.18 196.2 1 194.1 1.73 192.09 3.39 190.04 4.17 189.65 6.3 189.02 6.73 188.6 6.86 187.81 7.19 187.07 7.64 186.43 8.13 185.97 8.13 185.3 7.65 185.33 7.54 185.16 7.56 184.85 7.47 184.5 10.52 181.41 10.52 181.39 14.13 177.15 24.45 157.48 26.59 149.03 28.21 144.99 38.88 129.58 40.81 127.48 43.42 126.06 47.87 125.6 56.81 126.61 61.26 125.83 70.8 120.7 80.8 115.32 82.17 114.25 82.89 113.18 84.14 110.59 84.98 109.67 86.13 109.05 86.69 109.13 87.31 109.46 96.32 110.04 98.79 109.71 99.88 109.91 100.83 110.56 101.75 111.36 102.78 111.97 104.54 112.37 106.03 112.31 109.26 111.76 110.96 111.72 115.66 112.47 Z" id="GIN-5629" data-name="Boke"/>
<path d="M 155.67 337.77 151.93 339.91 148.94 340.79 148.8 341.04 148.02 341.53 147.15 341.73 146.74 341.16 146.97 340.25 147.53 339.95 148.24 339.8 148.94 339.33 152.43 334.41 152.44 334.4 152.45 334.41 155.67 337.77 Z" id="GIN-5630" data-name="Conakry"/>
<path d="M 215.23 335.58 210.7 336.23 202.62 335.58 199.39 333.64 195.19 329.44 190.67 327.5 185.17 330.09 179.35 332.03 175.8 332.35 172.51 334.92 171.77 334.92 169.4 339.72 168.69 333.96 168.04 326.21 171.28 322.01 173.86 317.16 173.86 313.6 172.57 307.46 173.86 299.38 177.42 293.57 182.59 289.37 191.31 288.72 194.54 288.72 199.07 292.6 201.33 295.18 202.3 304.56 200.68 308.11 198.42 311.34 199.71 315.87 203.92 318.45 208.44 320.07 213.29 326.21 214.9 331.06 215.23 335.58 Z" id="GIN-5631" data-name="Coyah"/>
<path d="M 483.22 217.35 480.55 218.91 477.32 222.79 469.24 223.76 460.51 223.12 456.64 219.24 452.76 217.95 445.65 220.53 437.89 223.12 428.52 232.49 422.7 237.66 413.33 238.63 407.51 243.48 399.44 246.06 397.82 270.62 394.59 281.93 391.68 289.1 387.84 289.12 376.79 289.18 374.76 281.2 376.12 271.68 378.5 268.28 379.18 262.5 379.11 248.53 380.54 209.46 380.48 202.98 377.17 201.51 375.98 200.45 376.28 199.76 376.73 195.36 376.61 191.88 375.14 184.73 376.02 183.55 376.56 183.17 377.34 182.45 387.34 174.1 394.48 174.1 395.23 177.87 419.15 178.19 421.41 180.78 424.97 184.66 431.11 186.92 437.25 185.3 449.2 177.55 457.93 171.41 466.01 169.79 471.93 168.89 472.87 170.28 472.67 171.16 471.02 174.99 470.3 176.1 469.61 176.79 469.08 177.02 468.16 177.6 467.12 178.64 466.33 179.64 465.71 180.15 465.11 180.52 464.05 180.93 463.76 181.18 462.26 182.79 461.77 183.58 461.44 184.32 460.68 187.3 459.72 189.75 459.04 190.8 458.33 191.41 457.08 191.68 456 192.12 454.53 192.9 451.76 194.84 451.22 195.78 450.98 196.74 451.15 197.77 451.57 198.76 452.29 199.76 453.22 200.71 454.59 201.65 468.93 206.12 469.81 206.8 470.3 207.07 470.9 207.23 472.45 207.36 473.07 207.55 473.65 207.93 474.68 209.27 475.18 209.66 477.87 210.91 478.34 211.36 478.77 211.95 480.2 214.44 480.54 214.86 483.22 217.35 Z" id="GIN-5632" data-name="Dabola"/>
<path d="M 326.46 149.7 327.16 149.72 329.19 150.27 331.83 150.17 332.82 154.4 333.86 156.48 334.85 157.78 335.9 158.33 337.09 158.67 338.62 159.4 340.12 160.5 341.95 162.34 342.66 163.94 342.81 165.73 342.3 169.05 342.14 171.39 342.22 173.69 342.78 177.32 343.53 179.11 344.46 180.34 345.51 180.82 346.73 181.05 351.38 180.94 352.52 180.74 355.48 184.34 356.13 192.09 353.87 197.26 351.61 202.11 347.4 204.05 338.03 204.69 329.31 206.63 321.55 212.45 313.79 220.21 311.21 224.73 302.81 226.02 298.93 227.96 293.76 232.16 287.77 235.73 286.38 235.12 285.85 234.2 285.57 232.08 284.83 231.43 283.79 231.03 281.73 230.47 280.97 230.16 279.69 229.44 279.09 228.55 278.94 227.45 279.62 225.21 279.41 222.45 278.63 221.98 278.09 222 277.25 222.24 276.02 223.02 270.96 227.96 266.86 230.07 262.56 231.69 263.06 216.01 265.96 209.87 273.07 205.02 279.21 199.85 285.03 198.55 289.23 191.77 291.17 185.95 296.02 182.4 300.87 180.13 304.75 177.87 318 177.55 316.7 173.02 313.79 170.76 312.82 166.56 315.41 162.68 315.73 157.51 318 154.28 319.32 149.48 321.16 148.45 322.44 148.09 323.2 148.37 324.36 149.4 324.97 149.7 325.71 149.76 326.46 149.7 Z" id="GIN-5633" data-name="Dalaba"/>
<path d="M 559.52 66.92 552.43 71.44 548.22 77.19 538.64 84.47 527.84 90.13 527.04 91.23 526.09 92.23 525.21 93.35 531.36 102.85 535.2 106.3 540.56 112.05 544.77 122.39 544.39 140.39 532.51 140.78 521.41 132.35 512.98 130.82 506.08 133.5 504.55 138.09 510.62 152.01 510.68 158.78 507.23 161.84 498.42 162.23 488.46 162.23 485.01 161.46 483.27 158.56 477.74 155.71 472.76 156.48 471.99 161.08 471.93 168.89 466.01 169.79 457.93 171.41 449.2 177.55 437.25 185.3 431.11 186.92 424.97 184.66 421.41 180.78 419.15 178.19 395.23 177.87 394.48 174.1 406.38 165.94 413.18 161.18 413.18 156.42 410.8 150.64 407.06 145.91 411.35 139.56 413.02 137.95 414.02 137.21 415.15 136.62 418.93 135.33 419.56 134.78 420.11 134.03 421.43 132.92 423.01 131.92 424.3 131.48 425.02 130.72 425.75 129.05 425.22 128.27 418.95 125.29 418.11 124.65 417.32 123.94 416.96 123.51 416.67 123.07 416.52 122.45 416.52 121.68 416.78 120.56 425.03 110.27 425.49 105.49 425.77 102.42 425.91 98.67 427.16 96.29 427.16 91.7 427.16 85.15 422.14 80.42 420.47 76.52 420.13 71.17 421.02 70.26 422.17 68.2 422.85 65.1 423.56 64.74 424.48 64.69 425.33 64.28 426.86 61.89 427.36 61.31 427.45 61.2 430.92 58.74 432.16 57.35 433.56 52.73 434.36 51.65 435.82 51.36 438.33 51.44 443 49.92 445.14 49.83 447.77 50.53 449.69 51.91 454.01 58.54 456.52 60.38 459.04 61.55 460.97 63.11 461.66 66.11 461.37 67.06 460.32 68.97 460.17 69.84 460.67 70.98 463.55 73.84 467.92 82.05 471.04 85.22 475.49 85.05 477.09 84.3 478.16 83.29 479.34 81.46 480.3 79.47 480.7 77.99 481.53 76.91 483.49 75.6 485.71 74.47 487.38 73.95 486.62 71.58 487.81 70.28 489.97 69.27 492.15 67.74 492.17 66.96 491.87 65.82 491.91 64.79 492.92 64.34 493.3 63.93 492.41 61.77 492.52 60.73 494.48 60.05 499.62 60.45 500.66 58.89 501.42 58.01 505.11 54.97 506.53 54.06 507.24 54.63 507.95 54.99 509.54 55.52 509.47 53.98 510.08 53.56 511.06 53.48 512.07 52.95 512.54 51.95 512.75 51.71 513.51 52.26 513.82 52.87 514.1 52.88 514.75 51.61 518.84 50.01 519.7 50.44 520.22 51.14 520.9 51.81 524.45 52.5 528.22 54.26 530.32 54.66 532.95 54.56 533.72 54.66 534.78 55.13 536.24 56.37 537.09 56.9 537.84 57.13 538.2 57.24 539.99 57.31 541.08 57.56 542.39 58.23 544.58 59.92 545.89 60.54 547.94 61.16 551.69 63.11 553.85 63.46 555.82 64.01 559.52 66.92 Z" id="GIN-5634" data-name="Dinguiraye"/>
<path d="M 194.54 288.72 191.31 288.72 182.59 289.37 177.42 293.57 173.86 299.38 172.57 307.46 173.86 313.6 173.86 317.16 171.28 322.01 168.04 326.21 168.69 333.96 169.4 339.72 167.95 341.74 165.97 342.33 164.47 341.38 162.98 339.42 161.88 337.06 161.56 334.92 158.27 336.28 155.67 337.77 155.67 337.77 152.45 334.41 152.44 334.4 154.65 331.9 155.93 329.04 157.54 326.51 157.84 324.83 157.7 318.65 157.82 317.89 158.32 317.39 159.79 316.82 160.09 316.12 160.81 314.92 162.39 314.16 163.92 313.19 164.5 311.35 162.28 312.54 160.93 312.85 159.88 312.21 155.18 306.69 154.81 305.47 154.38 305.59 154.07 305.72 153.35 306.14 154.53 309.52 154.88 312.55 153.73 314.97 150.41 316.49 146.45 316.09 144.49 313.55 144.2 310.09 145.27 306.94 149.74 301.39 151.5 297.87 151.14 294.32 150.6 293.86 150.6 293.84 150.61 293.68 149.58 291.89 148.69 291.03 147.62 290.55 146.97 290.43 142.74 290.41 141.47 290.18 140.94 289.97 140.41 289.68 128.14 279.43 127.65 278.83 127.24 278.1 126.93 277.35 126.6 275.99 126.76 275.23 127.21 274.69 131.33 268.62 134.39 262.84 136.77 256.72 143.57 256.72 151.98 258.42 172.81 262.84 180.97 260.8 185.39 254.34 193.17 248.07 202.04 245.84 210.38 245.09 210.38 256.73 211.99 258.99 212.64 262.54 210.7 265.77 208.12 268.36 208.12 276.76 202.95 278.7 199.71 281.61 198.74 284.52 194.54 288.72 Z" id="GIN-5635" data-name="Dubréka"/>
<path d="M 502.62 330.33 502.2 336.55 503.82 341.4 505.76 345.92 506.73 354.65 505.44 364.67 500.91 367.9 498 371.78 496.12 376.21 495.19 380.37 493.95 383.74 493.59 384.34 492.03 385.69 486.08 389.74 483.76 391.01 483.65 390.31 482.37 389.27 479.86 388.57 475.59 388.13 471.14 388.28 467.28 387.12 466.51 383.21 467.68 378.57 469.6 375.21 470.65 374.47 471.86 373.94 473 373.24 473.85 371.98 473.99 370.99 473.56 369.17 473.55 368.24 474.04 366.9 474.66 365.7 475.08 364.51 474.94 363.17 470.35 359.2 469.23 358.68 467.79 357.73 466.51 356.59 465.22 354.7 464.22 354.47 463.07 354.48 462.02 354.34 461.32 354.47 459.42 354.39 458.09 353.95 459.12 353.01 460.27 352.22 460.06 351.61 458.38 350.53 456.78 348.78 455.6 347.16 455.15 345.26 455.73 342.58 455.85 341.05 455.03 340.36 453.91 339.83 453.15 338.84 452.6 335.88 452.22 334.99 451.17 333.93 448.42 332.03 447.62 330.98 446.9 328.16 446.43 327.32 445.73 326.77 443.98 326.13 443.38 325.76 442.72 324.73 441.46 321.08 438.91 316.24 435.16 311.46 430.75 307.26 422.75 302.25 421.96 300.99 420.5 293.9 419.71 291.51 418.52 290.49 417.03 290.36 413.39 289.28 410.66 289 391.68 289.1 394.59 281.93 397.82 270.62 399.44 246.06 407.51 243.48 413.33 238.63 422.7 237.66 428.52 232.49 437.89 223.12 445.65 220.53 452.76 217.95 456.64 219.24 460.51 223.12 469.24 223.76 477.32 222.79 480.55 218.91 483.22 217.35 484.61 218.92 485.3 219.96 485.54 220.72 485.56 221.55 485.49 222.61 485.63 223.32 485.95 223.99 486.35 224.4 486.82 224.7 487.4 224.82 489.77 225.02 490.57 225.3 491.3 225.67 491.94 226.19 496.92 231.55 498.05 232.23 498.62 232.5 500.05 234.14 500.95 233.9 501.95 233.74 502.72 233.29 503.25 232.58 503.55 231.63 504.67 231.99 507.74 232.38 509.82 232.41 510.71 232.3 514.78 231.32 515.68 231.66 516.39 232.36 517.5 233.16 519.12 233.58 522.01 233.44 523.45 233.9 522.13 235.08 522.3 236.04 524.58 237.97 525 238.71 525.79 240.86 526.05 241.31 527 240.95 527.18 240.17 527.17 239.39 527.55 239.04 528.33 238.65 530.85 236.79 531.52 236.1 531.87 234.21 531.77 232.45 532.7 231.9 533.13 232.23 533.51 235.17 533.66 235.62 533.9 236.09 534.22 236.53 534.39 237.1 534.29 237.85 533.42 239.22 532.81 239.91 532.29 240.6 532.05 241.27 532.04 242.43 532.26 243.11 532.59 243.65 532.93 244.05 533.06 244.59 532.77 245.66 529.26 252.64 528.5 253.64 527.8 253.98 527.08 254.03 525.7 253.96 523.44 253.41 523.01 253.66 522.79 254.2 522.86 255.24 523.01 255.96 523.04 256.96 522.54 260.15 522.56 261.22 522.7 262.02 522.92 262.56 523.44 264.28 523.99 265.24 524.31 265.65 524.9 266.55 525.11 267.07 525.1 267.82 524.88 268.77 523.91 270.51 523.27 271.34 522.65 271.87 521.64 272.38 521.2 272.83 518.86 276.32 517.63 277.16 517.25 277.53 516.95 277.96 516.61 278.37 516.23 278.75 515.8 279.05 515.32 279.3 514.82 279.39 513.69 279.33 513.14 279.38 512.78 279.87 512.56 280.62 512.62 283.05 512.52 284.01 512.31 284.88 511.68 286.03 511.17 286.65 510.28 287.47 509.74 288.2 509.51 288.67 509.44 289.08 509.42 289.74 509.62 290.86 510.6 293.19 510.77 293.79 511.03 295.81 511.25 296.34 511.85 297.24 512.27 298.3 512.82 299.26 512.96 299.81 512.85 300.55 512.6 301.38 511.16 303.79 510.73 304.1 510.15 304.28 508.77 304.44 508.15 304.59 507.68 305.21 507.38 306.25 507.21 309.72 507.36 310.62 507.57 311.16 507.87 311.61 508.1 312.03 508.16 312.42 507.67 312.83 506.48 313.29 506.04 313.65 505.13 314.72 504.07 315.36 503.66 315.68 503.32 316.08 503.02 316.53 502.87 317.25 502.85 318.37 503.72 323.6 503.74 325.14 503.46 327.86 502.62 330.33 Z" id="GIN-5636" data-name="Faranah"/>
<path d="M 267.72 326.03 267.59 330.59 267.15 331.52 266.29 331.58 265.24 331.46 264.24 331.82 263.74 332.73 262.8 336.26 262.52 336.74 262.29 337.03 261.94 337.21 261.33 337.4 260.5 337.79 260.43 338.24 260.65 338.72 260.62 339.26 256.96 350.93 256.46 351.61 255.72 352.23 255.36 352.63 255.08 353.28 254.66 353.96 254.13 353.85 253.59 353.48 253.12 353.4 251.31 354.42 250.7 354.95 249.84 356.08 249.86 356.94 250.29 357.91 250.23 358.73 248.75 359.15 246.88 360.09 244.31 364.32 242.52 365.8 240.25 366.18 238.19 366.03 236.08 366.18 233.73 367.41 231.63 365.25 229.39 366.83 227.68 370.15 227.19 373.24 227.66 374.32 229.14 376.12 229.25 377 228.86 377.13 227.17 377.29 226.56 377.6 225.53 379.06 224.64 380.63 223.22 384 221.75 385.81 219.8 387.04 215.65 389.04 212.39 391.41 210.76 391.67 208.31 390.83 204.23 388.28 202.54 387.88 199.73 388.38 195.02 389.83 192.47 391.67 191.26 390.93 190.27 390.04 189.81 388.84 190.2 387.2 190.5 387.14 192.1 387.2 192.52 387.03 192.49 386.65 192.36 386.18 192.47 385.79 195.41 382.79 197.44 379.47 198.71 377.87 200.56 376.85 202.46 376.76 205.91 377.45 207.9 376.85 207.9 376.18 201.36 376.42 198.26 376.12 196.94 375.01 197.14 374.59 198.09 373.72 198.42 373.17 198.42 371.77 199.27 369.6 199.82 367.37 197.44 369.8 196.4 372.42 195.78 375.26 194.67 378.38 192.06 377.26 190.94 376.55 190.2 375.38 191.13 374.84 191.34 373.84 191.01 371.04 191.13 371.05 191.39 370.53 191.63 369.8 191.74 369.21 191.51 368.83 190.48 368.24 190.2 368.03 189.89 365.87 189.86 362.68 190.58 360.69 192.47 362.16 192.18 359.8 192.23 358.8 192.47 357.75 191.74 357.75 191.09 358.53 190.2 358.98 189.06 359.18 187.67 359.22 186.9 359.69 186.37 360.8 185.28 365.78 184.58 366.79 182.1 365.6 181 365.26 180.54 364.57 181.39 362.96 180.32 362.01 179.27 360.32 178.52 358.27 178.39 356.22 179.13 354.2 181.48 351.15 182.19 348.87 181.39 348.87 178.78 350.88 174.8 351.15 171.16 350.01 169.57 347.77 168.83 344.56 168.84 342.88 169.97 341.16 171.01 340.01 171.8 338.6 172.32 336.91 172.51 334.92 175.8 332.35 179.35 332.03 185.17 330.09 190.67 327.5 195.19 329.44 199.39 333.64 202.62 335.58 210.7 336.23 215.23 335.58 219.75 333.32 222.34 329.44 226.54 326.21 233 322.65 239.14 321.04 255.95 321.36 262.09 324.27 267.72 326.03 Z" id="GIN-5637" data-name="Forécariah"/>
<path d="M 202.04 245.84 193.17 248.07 185.39 254.34 180.97 260.8 172.81 262.84 151.98 258.42 143.57 256.72 136.77 256.72 135.73 250.59 137.67 246.06 143.48 239.6 146.07 235.72 150.59 234.1 152.53 232.81 157.7 228.93 158.98 211.68 181.31 213.2 202.38 224.42 203.74 233.26 201.36 237.34 201.7 241.42 202.04 245.84 Z" id="GIN-5638" data-name="Fria"/>
<path d="M 243.39 56.84 244.87 59.37 245.44 61.21 245.54 61.89 245.58 62.71 243.81 74.29 243.32 75.85 239.63 82.54 239.6 83.23 240.07 83.79 240.79 84.08 241.61 84.32 242.18 84.41 242.73 84.23 243.26 83.7 244.21 82.13 244.79 81.53 245.41 81.21 246.18 81.21 246.7 81.44 247.08 81.89 247.81 83.06 248.34 84.21 248.5 85.07 248.45 85.75 248.27 86.29 245.7 91.14 244.75 96.19 244.66 98.84 245.44 103.32 245.5 105.18 245.62 106.09 245.8 106.6 246.07 107.13 246.49 107.49 247.56 107.94 247.95 108.29 248.48 109.25 248.93 110.34 249.11 110.91 249.35 111.38 249.97 111.85 250.18 112.13 250.41 112.51 250.71 112.92 251.11 113.31 251.54 113.66 251.96 113.95 255.79 115.44 256.28 115.74 256.55 116.28 256.64 117.01 256.4 118.19 256.47 118.91 256.65 119.53 256.68 120.09 256.38 120.84 255.26 121.76 254.51 122.25 252.16 123.22 251.2 123.81 250.55 124.54 246.29 130.54 243.86 132.23 237.66 135.07 237.2 135.37 234.71 137.88 233.31 139 232.81 139.25 232.36 139.55 231.82 140.36 231.26 141.58 229.66 146.91 228.53 149.16 226.48 152.36 225.97 153.45 228.22 162.88 220.5 162.53 219.51 162.99 215.37 164.49 205.92 166.73 200.43 167.07 199.72 166.99 198.61 166.19 198.43 165.68 196.44 145.39 194.77 144.91 194.31 144.72 193.22 144.68 186.75 143.5 182.33 142.14 177.57 142.34 176.95 141.95 176.06 141.72 174.91 141.62 165.58 141.82 164 142.1 162.38 142.65 159.74 143.95 158.57 144.85 157.77 145.6 157.12 146.1 156.17 146.43 154.43 146.58 153.11 146.58 151.17 146.33 150.6 146.12 150.14 145.89 149.69 145.74 148.8 145.65 144.72 146.31 139.72 148.08 138.1 149.6 134.43 143.94 129.91 142.97 127 140.38 126.03 134.89 124.41 128.75 120.54 125.84 115.04 125.84 112.13 123.58 112.13 120.35 114.72 117.12 115.66 112.47 117.67 111.74 122.31 108.97 123.16 108.32 125.5 109.47 127.66 109.43 129.51 108.33 130.9 106.29 131.2 105.26 131.43 102.8 130.95 101.58 131.27 101.01 132.89 101.03 133.83 101.69 134.18 103.85 135.09 104.4 136.64 104.84 136.71 105.52 136.47 106.33 137.11 107.12 139.27 107.42 142.03 106.92 144.64 105.9 146.34 104.65 146.9 103.22 147.46 98.59 147.48 96.66 145.84 83.99 146.19 79.52 147.13 75.17 146.99 73.13 145.81 71.36 144.78 70.86 141 70.28 139.25 69.53 137.97 68.67 135.62 66.11 135.02 65.07 134.75 64.25 134.24 63.61 131.31 62.6 130.23 61.85 128.12 59.85 126.07 58.62 123.89 57.92 121.07 57.53 120.25 57.13 120.7 55.95 120.71 53.65 120.98 52.54 123.32 49.92 129.86 46.93 132.46 44.82 134.5 43.62 137.45 42.93 139.27 43.45 137.89 45.89 145.17 45.8 148.29 44.66 150.07 41.97 152.96 47.57 153.11 48.47 154.4 48.19 161.01 45.04 162.61 43.67 163.41 43.2 164.38 43.02 166.99 43.28 167.49 42.25 168.11 42.14 169.46 43.13 173.53 44.16 172.52 41.1 172.73 40.11 173.81 40.89 174.66 41.95 175.84 43.16 177.03 43.6 179.54 40.21 180.75 40.11 182.05 40 184.24 41.02 184.93 42.46 184.21 43.48 183.38 43.75 182.86 44.25 183.13 45.9 184.02 47.27 185.16 48 186.66 48.98 187.65 50.1 188.44 51.8 188.99 53.44 189.11 55.11 188.02 58.77 187.82 60.51 188.09 62.15 188.89 63.67 189.67 64.73 190.64 65.77 191.77 66.42 193.02 66.28 192.99 65.52 192.46 64.24 192.37 63.18 193.65 63.08 195.09 63.92 195.48 65.18 195.38 66.67 195.26 68.22 195.5 68.84 196.45 70.19 198.64 70.82 202.16 71.77 222.92 71.61 224.35 68.9 226.91 67.14 229.14 64.59 236.17 64.27 239.21 62.19 241.6 59.16 243.39 56.84 Z" id="GIN-5639" data-name="Gaoual"/>
<path d="M 572.3 406.86 571.04 411.2 569.75 414.76 564.9 416.7 561.02 418.96 557.47 422.51 556.17 429.3 561.24 449.88 559.72 450.28 559.19 450.36 557.09 450.38 555.29 450.62 553.56 451.17 551.74 452.11 547.54 455.37 543.21 457.91 540.92 458.29 539.49 457.81 539.02 456.38 540.11 451.33 539.37 449.75 537.76 448.83 531.64 447.3 529.82 447.26 528 447.81 524.36 451.36 522.56 452.38 521.71 450.59 519.5 451.43 518.37 451.63 517.2 451.57 515.96 451.74 515.05 451.44 514.19 450.95 511.25 450.07 510.52 450.02 507.25 450.48 505.63 451.09 504.28 451.96 503.02 453.12 501.97 454.59 499.37 459.85 498.06 461.52 491.7 467.69 487.93 470.16 485.96 470.94 484.82 470.69 481.74 468.71 480.15 468.04 476.59 467.85 473.54 468.84 471.41 471.09 470.63 474.7 468.47 472.8 469.57 469.29 472.05 465.67 474 463.38 475.59 460.77 477.14 451.48 478.3 451.33 478.6 450.48 478.59 449.2 478.84 447.78 479.59 446.47 481.25 444.91 482.96 441.78 484.67 439.5 486.74 437.78 488.92 437.36 491.4 437.16 493.42 435.76 494.89 433.67 495.73 431.36 491.11 425.22 490.52 424.19 488.9 423.02 484.49 417.21 484.19 416.94 483.42 416.44 483.05 415.99 483 415.6 483.11 414.46 483.09 413.99 482.11 410.94 481.93 409.87 481.74 402.03 482.25 398.3 483.9 391.93 483.86 391.65 483.76 391.01 486.08 389.74 492.03 385.69 493.59 384.34 493.95 383.74 495.19 380.37 496.12 376.21 499.99 378.49 500.56 379.17 501.06 380.29 500.05 386.99 500.25 387.69 500.62 388.14 504.56 391.08 506.17 391.54 515.9 402.94 516.07 403.56 516.3 404.08 516.6 404.46 517.49 404.81 521.91 405.89 523.53 406.67 524.58 407.47 525.62 409.55 525.81 409.87 527.19 409.99 529.58 409.95 538.19 408.7 540.01 408.16 541.49 407.32 542.2 406.79 543.12 405.93 548.66 402.67 549.71 402.26 554.27 402.82 572.3 406.86 Z" id="GIN-5640" data-name="Guéckédou"/>
<path d="M 746.3 293.95 743.99 294.82 743.9 295.77 744.24 296.87 744.63 297.74 744.99 297.96 745.59 297.99 746.21 298.15 746.6 298.75 746.85 300.62 747.02 301.21 746.84 301.46 746.33 301.6 746.01 301.99 746.45 302.96 746.89 303.12 748.91 302.95 749.41 305.26 745.45 333.23 745.31 334.21 745.37 336.58 745.74 339.03 746.25 340.94 747.05 342.66 753.31 351.45 755.11 353.37 746.71 353.03 739.96 356.1 733.53 359.47 728.32 360.08 721.27 357.01 716.67 355.48 711.16 355.18 712.59 346.89 711.62 340.1 706.45 333.32 701.28 328.79 694.82 326.21 690.29 324.27 679.3 323.62 675.1 322.65 672.52 318.45 667.67 316.51 652.48 317.48 641.82 322.98 636 327.5 632.12 342.69 631.33 350.29 618.09 345.87 596.02 346.76 587.44 338.41 587.05 338.44 583.91 337.88 582.94 337.87 573.88 336.13 565.48 336.64 559.05 332 552.38 324.17 555.85 322.01 563.61 320.71 567.49 315.54 571.36 312.96 571.69 307.14 575.56 302.29 579.77 299.06 580.74 288.4 577.83 283.55 577.83 266.74 581.7 258.02 583.32 241.54 588.49 235.72 600.13 223.76 605.62 215.68 609.5 210.84 614.99 207.93 622.75 210.84 632.12 212.77 637.94 215.36 658.94 216.98 659.91 228.29 660.88 234.43 666.05 240.24 670.58 241.86 678.33 243.48 682.21 246.38 684.15 252.85 684.8 258.02 690.29 263.51 700.96 265.13 711.3 267.07 716.47 269.33 717.44 274.82 720.67 282.26 726.16 288.07 734.57 290.98 739.74 293.24 746.3 293.95 Z" id="GIN-5641" data-name="Kankan"/>
<path d="M 711.16 355.18 706.56 356.71 705.64 361 701.96 362.22 698.28 367.13 695.83 371.73 690.91 375.16 686.17 383.3 685.79 384.31 685.56 385.39 684.65 387.2 684.45 387.8 684.39 388.38 680.51 390.11 675.91 392.26 667.64 393.79 663.04 395.94 658.44 400.23 639.14 405.74 629.33 404.82 625.96 396.24 624.12 387.36 618.97 386.48 620.74 375.01 629.56 369.71 631.33 350.29 632.12 342.69 636 327.5 641.82 322.98 652.48 317.48 667.67 316.51 672.52 318.45 675.1 322.65 679.3 323.62 690.29 324.27 694.82 326.21 701.28 328.79 706.45 333.32 711.62 340.1 712.59 346.89 711.16 355.18 Z" id="GIN-5642" data-name="Kérouané"/>
<path d="M 287.77 235.73 289.44 236.63 291.25 238.5 289.25 240.73 288.89 241.26 288.71 242.03 288.77 243.8 288.65 244.99 287.9 247.18 286.9 249.3 286.6 250.46 286.62 251.95 288.36 258.77 288.64 259.33 289.07 259.76 289.95 260.07 290.93 260.17 292 260.16 293 260.04 296.14 258.96 297.26 258.74 298.41 258.72 299.5 258.85 302.44 259.54 304.01 259.66 304.73 259.61 305.87 259.36 306.21 259.32 306.57 259.42 307 259.68 307.8 260.84 312.39 269.53 318.93 277.83 319.18 278.92 319.34 280.55 319.26 284.19 319.09 285.8 318.84 286.92 317.24 290.46 316.91 291.57 316.98 292.58 318.24 296.76 320.6 301.26 320.61 301.29 317.22 302.03 315.39 301.95 313.62 301.56 311.6 300.82 309.04 299.26 307.08 297.52 305.15 296.27 302.66 296.18 286.5 299.58 281.62 301.34 277.75 303.58 277.1 304.56 277.03 305.23 277.17 305.96 277.18 307.09 275.71 315.07 275.78 315.39 276.18 316.59 276.23 317.13 275.89 317.39 275.34 317.3 274.8 317.31 274.59 317.83 274.61 319.15 274.47 319.55 274.12 319.62 270.78 321.64 269.79 322.63 268.04 325.69 267.72 326.03 262.09 324.27 255.95 321.36 239.14 321.04 233 322.65 226.54 326.21 222.34 329.44 219.75 333.32 215.23 335.58 214.9 331.06 213.29 326.21 208.44 320.07 203.92 318.45 199.71 315.87 198.42 311.34 200.68 308.11 202.3 304.56 201.33 295.18 199.07 292.6 194.54 288.72 198.74 284.52 199.71 281.61 202.95 278.7 208.12 276.76 208.12 268.36 210.7 265.77 212.64 262.54 211.99 258.99 210.38 256.73 210.38 245.09 220.07 242.83 232.03 239.27 236.04 238.02 240.8 236.66 242.36 232.68 243.61 232.51 245 232.2 246.02 232.5 247.74 233.83 249.55 234.76 250.43 235.33 251.16 235.93 253.43 237.3 255.63 237.85 256.82 237.42 257.7 236.59 258.89 234.38 260.36 233.14 262.56 231.69 266.86 230.07 270.96 227.96 276.02 223.02 277.25 222.24 278.09 222 278.63 221.98 279.41 222.45 279.62 225.21 278.94 227.45 279.09 228.55 279.69 229.44 280.97 230.16 281.73 230.47 283.79 231.03 284.83 231.43 285.57 232.08 285.85 234.2 286.38 235.12 287.77 235.73 Z" id="GIN-5643" data-name="Kindia"/>
<path d="M 552.38 324.17 559.05 332 565.48 336.64 573.88 336.13 582.94 337.87 583.91 337.88 587.05 338.44 587.44 338.41 596.02 346.76 618.09 345.87 631.33 350.29 629.56 369.71 620.74 375.01 618.97 386.48 617.38 389.81 616.15 396.86 609.76 403.8 598.85 409.89 596.29 410.69 593.35 411.16 591.38 411.19 572.3 406.86 554.27 402.82 549.71 402.26 548.66 402.67 543.12 405.93 542.2 406.79 541.49 407.32 540.01 408.16 538.19 408.7 529.58 409.95 527.19 409.99 525.81 409.87 525.62 409.55 524.58 407.47 523.53 406.67 521.91 405.89 517.49 404.81 516.6 404.46 516.3 404.08 516.07 403.56 515.9 402.94 506.17 391.54 504.56 391.08 500.62 388.14 500.25 387.69 500.05 386.99 501.06 380.29 500.56 379.17 499.99 378.49 496.12 376.21 498 371.78 500.91 367.9 505.44 364.67 506.73 354.65 505.76 345.92 503.82 341.4 502.2 336.55 502.62 330.33 516.34 332.04 517.29 332 518.42 331.8 520.35 331.02 521.29 330.47 521.94 329.96 523.02 328.73 525.31 325.06 528.06 321.79 529.37 320.56 529.71 320.33 530.13 320.1 531.38 319.69 533.14 319.35 538.47 319.05 544.31 319.28 545.3 319.45 548.37 320.83 552.38 324.17 Z" id="GIN-5644" data-name="Kissidougou"/>
<path d="M 402.2 69.09 402.99 105.16 402.02 109.36 392 111.3 383.6 113.88 380.69 120.35 372.94 126.16 353.87 134.24 338.36 142.97 332.86 146.52 331.83 150.17 329.19 150.27 327.16 149.72 326.46 149.7 325.75 145.88 325.11 142 321.23 138.12 315.92 130.02 306.68 117.12 300.22 108.07 298.28 102.72 310.89 102.57 314.12 104.51 320.58 106.77 324.14 109.68 329.63 110.65 337.11 110.77 339.89 108.59 341.93 108.88 344.01 108.51 345.12 107.44 349.34 106.13 353.22 104.19 360.33 102.9 372.61 102.57 373.9 98.37 376.49 89.97 381.34 85.44 384.25 77.36 389.09 67.35 389.35 58.95 395.94 61.83 397.85 63.35 402.2 69.09 Z" id="GIN-5645" data-name="Koubia"/>
<path d="M 186.16 3.54 186.5 3.63 186.99 3.84 187.92 4.49 188.44 4.67 189.06 4.63 189.36 4.37 189.61 4.06 190.13 3.89 193.35 3.22 194.29 3.16 195.2 3.4 196.53 4.25 197.46 4.4 198.4 4.25 200.22 3.75 201.03 3.69 201.62 3.97 202.65 5.06 203.14 5.3 203.57 5.23 204.94 4.83 205.9 4.84 206.66 4.72 207.37 4.79 208.22 5.36 209.23 4.17 211.17 5.15 213.14 5.09 214.99 4.79 216.63 5.03 218.01 6.5 218.48 8.52 218.36 10.68 217.95 12.53 216.35 16.19 215.96 17.97 216.44 20.06 217.68 21.79 219.27 22.63 221.13 22.82 223.22 22.59 225.14 23.32 226.9 23.2 228.14 22.15 228.49 20.07 230.29 15.79 234.2 15.74 238.41 17.89 241.08 20.19 241.03 20.61 240.86 21.33 241.09 22.25 242.22 23.27 243.25 23.66 246.43 23.88 248.15 24.7 248.61 25.75 249.25 26.64 251.47 26.92 258.41 26.54 260.62 26.79 262.72 27.64 264.49 29.04 267.52 32.35 268.09 33.37 268.17 34.12 268.57 34.54 270.1 34.59 270.24 34.55 270.16 34.73 266.77 36.96 261.82 39.2 258.38 41.4 256.88 42.68 255.67 43.42 254.5 43.96 248.91 45.81 247.43 46.73 246.49 47.65 243.62 55.78 243.39 56.84 241.6 59.16 239.21 62.19 236.17 64.27 229.14 64.59 226.91 67.14 224.35 68.9 222.92 71.61 202.16 71.77 198.64 70.82 196.45 70.19 195.5 68.84 195.26 68.22 195.38 66.67 195.48 65.18 195.09 63.92 193.65 63.08 192.37 63.18 192.46 64.24 192.99 65.52 193.02 66.28 191.77 66.42 190.64 65.77 189.67 64.73 188.89 63.67 188.09 62.15 187.82 60.51 188.02 58.77 189.11 55.11 188.99 53.44 188.44 51.8 187.65 50.1 186.66 48.98 185.16 48 184.02 47.27 183.13 45.9 182.86 44.25 183.38 43.75 184.21 43.48 184.93 42.46 184.24 41.02 182.05 40 180.75 40.11 179.54 40.21 177.03 43.6 175.84 43.16 174.66 41.95 173.81 40.89 172.73 40.11 172.52 41.1 173.53 44.16 169.46 43.13 168.11 42.14 167.49 42.25 166.99 43.28 164.38 43.02 163.41 43.2 162.61 43.67 161.01 45.04 154.4 48.19 153.11 48.47 152.96 47.57 150.07 41.97 150.1 41.92 150.53 39.09 151.39 37 151.5 35.75 151.16 32.65 151.27 31.27 151.5 30.37 153.39 25.94 153.79 24.1 153.5 22.26 152.29 20.07 146.87 13.4 145.84 10.47 145.66 8.08 146.52 1 181.32 2.25 186.16 3.54 Z" id="GIN-5646" data-name="Koundara"/>
<path d="M 544.39 140.39 551.97 141.68 555.53 145.55 561.02 148.46 562.64 152.66 564.58 163.65 565.55 176.9 568.13 180.13 572.33 182.4 576.21 187.89 581.06 194.68 586.55 195.65 618.22 195.32 615.96 199.85 615.31 203.4 614.99 207.93 609.5 210.84 605.62 215.68 600.13 223.76 588.49 235.72 583.32 241.54 581.7 258.02 577.83 266.74 577.83 283.55 580.74 288.4 579.77 299.06 575.56 302.29 571.69 307.14 571.36 312.96 567.49 315.54 563.61 320.71 555.85 322.01 552.38 324.17 548.37 320.83 545.3 319.45 544.31 319.28 538.47 319.05 533.14 319.35 531.38 319.69 530.13 320.1 529.71 320.33 529.37 320.56 528.06 321.79 525.31 325.06 523.02 328.73 521.94 329.96 521.29 330.47 520.35 331.02 518.42 331.8 517.29 332 516.34 332.04 502.62 330.33 503.46 327.86 503.74 325.14 503.72 323.6 502.85 318.37 502.87 317.25 503.02 316.53 503.32 316.08 503.66 315.68 504.07 315.36 505.13 314.72 506.04 313.65 506.48 313.29 507.67 312.83 508.16 312.42 508.1 312.03 507.87 311.61 507.57 311.16 507.36 310.62 507.21 309.72 507.38 306.25 507.68 305.21 508.15 304.59 508.77 304.44 510.15 304.28 510.73 304.1 511.16 303.79 512.6 301.38 512.85 300.55 512.96 299.81 512.82 299.26 512.27 298.3 511.85 297.24 511.25 296.34 511.03 295.81 510.77 293.79 510.6 293.19 509.62 290.86 509.42 289.74 509.44 289.08 509.51 288.67 509.74 288.2 510.28 287.47 511.17 286.65 511.68 286.03 512.31 284.88 512.52 284.01 512.62 283.05 512.56 280.62 512.78 279.87 513.14 279.38 513.69 279.33 514.82 279.39 515.32 279.3 515.8 279.05 516.23 278.75 516.61 278.37 516.95 277.96 517.25 277.53 517.63 277.16 518.86 276.32 521.2 272.83 521.64 272.38 522.65 271.87 523.27 271.34 523.91 270.51 524.88 268.77 525.1 267.82 525.11 267.07 524.9 266.55 524.31 265.65 523.99 265.24 523.44 264.28 522.92 262.56 522.7 262.02 522.56 261.22 522.54 260.15 523.04 256.96 523.01 255.96 522.86 255.24 522.79 254.2 523.01 253.66 523.44 253.41 525.7 253.96 527.08 254.03 527.8 253.98 528.5 253.64 529.26 252.64 532.77 245.66 533.06 244.59 532.93 244.05 532.59 243.65 532.26 243.11 532.04 242.43 532.05 241.27 532.29 240.6 532.81 239.91 533.42 239.22 534.29 237.85 534.39 237.1 534.22 236.53 533.9 236.09 533.66 235.62 533.51 235.17 533.13 232.23 532.7 231.9 531.77 232.45 531.87 234.21 531.52 236.1 530.85 236.79 528.33 238.65 527.55 239.04 527.17 239.39 527.18 240.17 527 240.95 526.05 241.31 525.79 240.86 525 238.71 524.58 237.97 522.3 236.04 522.13 235.08 523.45 233.9 522.01 233.44 519.12 233.58 517.5 233.16 516.39 232.36 515.68 231.66 514.78 231.32 510.71 232.3 509.82 232.41 507.74 232.38 504.67 231.99 503.55 231.63 503.25 232.58 502.72 233.29 501.95 233.74 500.95 233.9 500.05 234.14 498.62 232.5 498.05 232.23 496.92 231.55 491.94 226.19 491.3 225.67 490.57 225.3 489.77 225.02 487.4 224.82 486.82 224.7 486.35 224.4 485.95 223.99 485.63 223.32 485.49 222.61 485.56 221.55 485.54 220.72 485.3 219.96 484.61 218.92 483.22 217.35 480.54 214.86 480.2 214.44 478.77 211.95 478.34 211.36 477.87 210.91 475.18 209.66 474.68 209.27 473.65 207.93 473.07 207.55 472.45 207.36 470.9 207.23 470.3 207.07 469.81 206.8 468.93 206.12 454.59 201.65 453.22 200.71 452.29 199.76 451.57 198.76 451.15 197.77 450.98 196.74 451.22 195.78 451.76 194.84 454.53 192.9 456 192.12 457.08 191.68 458.33 191.41 459.04 190.8 459.72 189.75 460.68 187.3 461.44 184.32 461.77 183.58 462.26 182.79 463.76 181.18 464.05 180.93 465.11 180.52 465.71 180.15 466.33 179.64 467.12 178.64 468.16 177.6 469.08 177.02 469.61 176.79 470.3 176.1 471.02 174.99 472.67 171.16 472.87 170.28 471.93 168.89 471.99 161.08 472.76 156.48 477.74 155.71 483.27 158.56 485.01 161.46 488.46 162.23 498.42 162.23 507.23 161.84 510.68 158.78 510.62 152.01 504.55 138.09 506.08 133.5 512.98 130.82 521.41 132.35 532.51 140.78 544.39 140.39 Z" id="GIN-5647" data-name="Kouroussa"/>
<path d="M 326.46 149.7 325.71 149.76 324.97 149.7 324.36 149.4 323.2 148.37 322.44 148.09 321.16 148.45 319.32 149.48 307.1 152.34 305.06 159.87 293.09 163.8 287.64 165.04 285.33 164.67 282.8 163.85 282.07 163.47 281.04 162.77 280.63 162.38 280.28 161.85 280.04 161.13 279.96 160 280.09 158.47 280.07 157.83 279.88 156.89 278.91 153.64 277.74 151.06 275.88 148.82 276.31 139.74 277.92 134.89 279.54 128.75 282.77 125.84 282.77 118.73 281.15 113.24 277.92 110.33 278.58 102.94 298.28 102.72 300.22 108.07 306.68 117.12 315.92 130.02 321.23 138.12 325.11 142 325.75 145.88 326.46 149.7 Z" id="GIN-5648" data-name="Labé"/>
<path d="M 275.88 148.82 274.44 147.08 267.44 147.23 264.65 146.4 262.69 147.28 262.3 147.87 262.28 148.4 262.6 149.48 262.56 150.15 262.29 150.8 261.73 151.68 261.18 152.12 260.62 152.45 257.68 153.18 256.14 153.73 255.33 154.48 254.26 155.67 251.59 160.45 251.4 161 251.29 161.62 251.14 163.63 251.01 164.24 250.6 165.3 250.11 166.26 249.91 166.76 249.73 167.96 249.59 168.51 249.39 169.02 249.28 169.57 248.9 170.58 248.59 171.76 246.55 175.14 245.79 177.3 245.01 180.99 244.9 181.06 244.65 181.17 244.23 181.24 243.82 181.16 243.57 181.05 243.47 180.99 242.51 180.1 242.03 179.8 241.52 179.66 240.89 179.8 240.66 180.22 240.64 180.64 240.71 180.87 240.74 181.08 240.68 181.34 240.45 181.97 240.02 182.3 239.44 182.5 238.86 182.52 238.32 182.5 234.68 173.42 230.21 168.43 228.22 162.88 225.97 153.45 226.48 152.36 228.53 149.16 229.66 146.91 231.26 141.58 231.82 140.36 232.36 139.55 232.81 139.25 233.31 139 234.71 137.88 237.2 135.37 237.66 135.07 243.86 132.23 246.29 130.54 250.55 124.54 251.2 123.81 252.16 123.22 254.51 122.25 255.26 121.76 256.38 120.84 256.68 120.09 256.65 119.53 256.47 118.91 256.4 118.19 256.64 117.01 256.55 116.28 256.28 115.74 255.79 115.44 251.96 113.95 251.54 113.66 251.11 113.31 250.71 112.92 250.41 112.51 250.18 112.13 249.97 111.85 249.35 111.38 249.11 110.91 248.93 110.34 248.48 109.25 247.95 108.29 247.56 107.94 246.49 107.49 246.07 107.13 245.8 106.6 245.62 106.09 245.5 105.18 245.44 103.32 278.58 102.94 277.92 110.33 281.15 113.24 282.77 118.73 282.77 125.84 279.54 128.75 277.92 134.89 276.31 139.74 275.88 148.82 Z" id="GIN-5649" data-name="Lélouma"/>
<path d="M 755.46 501.47 755.28 504.07 754.18 508.25 748.83 516.33 748.58 520.65 749.38 521.77 751.78 523.84 752.33 525.01 752.12 526.09 751.51 526.68 750.81 527.1 750.31 527.7 749.89 529.43 749.5 533.01 748.99 534.57 745.53 538.52 745.46 538.96 745.76 540.02 745.69 540.46 745.25 540.9 744.04 541.58 743.56 542.01 741.41 544.73 740.9 545.95 740.85 546.77 741.2 548.52 741.15 549.27 738.06 552.72 734.15 551.02 730.07 547.88 726.47 546.96 722.65 548.09 720.65 548.25 718.07 545.34 715.36 546.74 710.47 551.24 707.23 549.18 703.76 546.64 701.75 544.21 701.08 541.27 701.66 537.24 705.48 533.69 707.74 529.16 705.48 523.34 703.54 517.53 703.54 510.74 706.45 504.28 710 498.46 711.62 493.29 714.85 490.38 715.82 486.5 716.47 480.36 722.93 480.04 732.63 482.62 740.38 489.09 750.72 498.46 755.46 501.47 Z" id="GIN-5650" data-name="Lola"/>
<path d="M 658.44 400.23 658.62 423.48 660.24 428.33 665.41 435.44 668.96 444.49 670.58 453.86 668.64 460.97 666.38 467.11 664.76 471.64 661.53 474.22 656.36 484.24 654.1 491.67 649.48 494.82 647.66 497.97 645.88 501.05 643.42 504.39 640.97 505.84 636.2 509.65 634.22 514.04 626.28 521.1 622.58 524 619.74 530.1 617.83 529.48 615.57 529.78 614.14 527.97 613.21 526.13 610.41 522.58 607.94 518.09 606.89 513.61 607.15 509.07 608.54 504.4 608.68 504.07 609.46 503.07 609.69 502 609.5 500.88 608.95 499.73 607.69 498.26 606.55 498.13 605.41 499.02 604.11 500.6 604.27 499.36 605.44 497.41 605.66 496.3 603.7 488.5 603.7 487.26 603.34 485.98 602.27 485.42 599.66 484.89 598.1 483.75 597.91 480.86 598.61 477.8 599.66 476.1 600.18 475.62 600.36 475.13 600.18 474.65 599.66 474.18 599.06 473.11 598.64 471.92 598.09 470.79 597.1 469.86 598.28 468.66 598.94 468.13 599.66 467.73 600.11 467.54 601.43 466.75 600.87 466.46 600.11 465.64 598.22 464.3 592.82 462.04 591.44 460.12 590.57 459.5 589.79 460.36 589.28 461.07 588.48 461.46 587.57 461.57 586.7 461.47 584.84 461.52 583.23 461.88 582.27 461.58 582.42 459.64 583.43 458.27 584.84 457.29 585.73 456 585.15 453.7 583.75 452.3 581.6 451.31 579.48 451.29 578.16 452.78 577.89 455.01 577.87 456.56 577.45 456.84 575.97 455.24 574.85 453.35 574.35 451.44 573.66 446.4 573.05 444.54 571.91 443.14 570.08 442.88 570.15 444.21 569.63 445.12 568.86 445.92 568.12 446.85 568.12 447.71 568.48 448.54 568.34 449.24 565.67 450.02 563.72 451.03 562.76 451.31 562.24 450.61 561.74 450.12 561.24 449.88 556.17 429.3 557.47 422.51 561.02 418.96 564.9 416.7 569.75 414.76 571.04 411.2 572.3 406.86 591.38 411.19 593.35 411.16 596.29 410.69 598.85 409.89 609.76 403.8 616.15 396.86 617.38 389.81 618.97 386.48 624.12 387.36 625.96 396.24 629.33 404.82 639.14 405.74 658.44 400.23 Z" id="GIN-5651" data-name="Macenta"/>
<path d="M 398.21 29.99 398.19 32.08 396.15 32.35 393.56 32.24 391.88 33.15 391.43 35.56 392.14 39.82 392.17 42.3 390.16 46.55 387.1 49.67 385.37 52.82 387.33 57.17 389.35 58.95 389.09 67.35 384.25 77.36 381.34 85.44 376.49 89.97 373.9 98.37 372.61 102.57 360.33 102.9 353.22 104.19 349.34 106.13 345.12 107.44 344.01 108.51 341.93 108.88 339.89 108.59 337.11 110.77 329.63 110.65 324.14 109.68 320.58 106.77 314.12 104.51 310.89 102.57 298.28 102.72 278.58 102.94 245.44 103.32 244.66 98.84 244.75 96.19 245.7 91.14 248.27 86.29 248.45 85.75 248.5 85.07 248.34 84.21 247.81 83.06 247.08 81.89 246.7 81.44 246.18 81.21 245.41 81.21 244.79 81.53 244.21 82.13 243.26 83.7 242.73 84.23 242.18 84.41 241.61 84.32 240.79 84.08 240.07 83.79 239.6 83.23 239.63 82.54 243.32 75.85 243.81 74.29 245.58 62.71 245.54 61.89 245.44 61.21 244.87 59.37 243.39 56.84 243.62 55.78 246.49 47.65 247.43 46.73 248.91 45.81 254.5 43.96 255.67 43.42 256.88 42.68 258.38 41.4 261.82 39.2 266.77 36.96 270.16 34.73 270.24 34.55 271.04 34.31 274.18 32.62 276.28 31.82 278.1 31.46 279.96 31.54 282.22 32.08 286.88 33.73 288.81 35.09 291.86 39.69 293.6 40.56 311.77 35.92 315.75 33.74 319.31 30.54 321.24 29.62 323.91 29.53 330.4 31.65 332.69 31.87 334.11 31.59 338.21 29.39 339.39 28.58 339.86 28.39 340.61 28.39 340.82 28.5 340.96 28.68 347.47 31.37 349.68 31.84 358.48 32.2 362.54 31.54 370.82 28.51 375.29 27.69 384.55 27 388.18 27.37 395.24 29.87 398.21 29.99 Z" id="GIN-5652" data-name="Mali"/>
<path d="M 394.48 174.1 387.34 174.1 377.34 182.45 376.56 183.17 376.02 183.55 375.14 184.73 376.61 191.88 376.73 195.36 376.28 199.76 375.98 200.45 377.17 201.51 380.48 202.98 380.54 209.46 379.11 248.53 379.18 262.5 378.5 268.28 376.12 271.68 374.76 281.2 376.79 289.18 342.1 289.37 341.57 295.94 340.84 296.93 320.61 301.29 320.6 301.26 318.24 296.76 316.98 292.58 316.91 291.57 317.24 290.46 318.84 286.92 319.09 285.8 319.26 284.19 319.34 280.55 319.18 278.92 318.93 277.83 312.39 269.53 307.8 260.84 307 259.68 306.57 259.42 306.21 259.32 305.87 259.36 304.73 259.61 304.01 259.66 302.44 259.54 299.5 258.85 298.41 258.72 297.26 258.74 296.14 258.96 293 260.04 292 260.16 290.93 260.17 289.95 260.07 289.07 259.76 288.64 259.33 288.36 258.77 286.62 251.95 286.6 250.46 286.9 249.3 287.9 247.18 288.65 244.99 288.77 243.8 288.71 242.03 288.89 241.26 289.25 240.73 291.25 238.5 289.44 236.63 287.77 235.73 293.76 232.16 298.93 227.96 302.81 226.02 311.21 224.73 313.79 220.21 321.55 212.45 329.31 206.63 338.03 204.69 347.4 204.05 351.61 202.11 353.87 197.26 356.13 192.09 355.48 184.34 352.52 180.74 355.53 179.44 360.31 178.63 365.03 178.32 368.61 177.69 370.4 176.39 373.45 173.44 373.76 173 378.39 168.02 379.08 166.6 385.9 162.79 387.02 161.88 387.61 160.58 387.91 156.78 388.34 155.5 389.14 154.64 390.38 154.31 391.36 154.22 392.06 153.99 392.99 153.51 393.65 152.83 394.08 151.91 394.7 151.42 395.93 152.04 397.31 151.02 398.61 151.35 400.04 152.03 401.8 152.04 403.01 150.98 404.81 147.61 407.06 145.91 410.8 150.64 413.18 156.42 413.18 161.18 406.38 165.94 394.48 174.1 Z" id="GIN-5653" data-name="Mamou"/>
<path d="M 704.67 131.92 705.09 133.88 705.94 135.46 707.21 135.93 710.18 136.02 716.68 137.97 719.92 139.49 722.32 141.45 720.38 141.95 718.14 142.98 716.86 144.38 717.73 145.99 719.71 146.35 721.68 146.03 722.78 146.52 722.17 149.3 720.91 150.73 718.94 151.39 716.77 151.51 714.87 151.28 710.71 150.35 709.71 151.12 708.57 153.53 708.66 153.93 708.99 154.46 709.23 155.11 709.04 155.88 708.68 156.13 707.61 156.23 707.23 156.36 706.32 156.93 704.11 157.88 703.34 158.33 702.03 160.19 701.41 164.03 700.5 165.72 699.55 166.21 697.37 166.25 696.49 166.58 695.5 167.87 695.47 168.93 695.74 169.96 695.66 171.18 694.53 173.33 689.57 178.29 688.61 179.65 687.73 181.43 687.32 183.32 687.8 185.01 689.44 186.13 691.13 185.63 692.99 184.68 695.11 184.46 696.93 184.75 698.87 184.8 700.77 184.58 702.5 184.05 704.44 182.75 705.5 181.1 708.29 175.32 710.08 175.33 712.24 176.01 714.43 175.93 715.56 175.65 716.54 175.81 718.54 176.49 719.59 176.34 721.67 175.2 722.96 175.17 725.33 176.36 727.56 178.43 729.22 180.91 729.87 183.34 730.03 194.46 729.79 196.46 729.15 197.43 728.39 198.26 726.14 204.25 725.91 206.47 728.74 207.56 729.22 209.47 730.9 230.76 732.1 233.57 735.38 238.03 738.07 243.02 740.04 244.03 742.36 244.07 744.84 243.59 746.49 242.9 747.41 242.35 748.12 242.6 749.2 244.29 749.56 245.59 749.68 248.44 750.27 249.82 752.35 251.27 755.15 251.79 761 252.06 763.09 253.26 764.68 255.54 765.79 258.25 766.5 260.71 766.72 263.48 766.13 265.98 763.8 271.14 762.71 272.36 761.91 273.69 761.36 275.14 761 276.69 758.94 279.34 756.47 280.71 750.99 282.74 748.97 284.57 746.8 287.49 745.64 290.19 746.68 291.38 748.03 291.85 747.62 292.9 746.3 293.95 739.74 293.24 734.57 290.98 726.16 288.07 720.67 282.26 717.44 274.82 716.47 269.33 711.3 267.07 700.96 265.13 690.29 263.51 684.8 258.02 684.15 252.85 682.21 246.38 678.33 243.48 670.58 241.86 666.05 240.24 660.88 234.43 659.91 228.29 658.94 216.98 637.94 215.36 632.12 212.77 622.75 210.84 614.99 207.93 615.31 203.4 615.96 199.85 618.22 195.32 621.46 191.77 629.53 185.95 638.91 182.72 647.63 179.16 657.65 172.38 663.47 166.88 667.35 156.22 668.64 144.58 670.9 134.89 675.42 124.34 678.02 120.99 678.94 118.02 680.17 115.38 682.36 114 684.54 111.14 686.01 112.15 688.39 119.9 688.76 121.84 689.65 124.01 690.84 126.05 692.05 127.6 697.92 130.22 700.82 130.41 703.57 128.28 704.18 129.62 704.67 131.92 Z" id="GIN-5654" data-name="Mandiana"/>
<path d="M 716.47 480.36 715.82 486.5 714.85 490.38 711.62 493.29 710 498.46 706.45 504.28 703.54 510.74 703.54 517.53 705.48 523.34 707.74 529.16 705.48 533.69 701.66 537.24 688.84 536.58 687.99 538.72 685.17 542.13 684.43 544.36 675.72 543.13 667.55 539.62 664.63 533.2 661.71 524.45 657.04 515.69 655.87 507.52 653.54 502.26 647.66 497.97 649.48 494.82 654.1 491.67 656.36 484.24 661.53 474.22 664.76 471.64 674.13 469.37 683.5 465.17 692.55 464.53 699.34 466.14 703.54 470.67 704.83 474.54 711.3 475.19 714.85 477.78 716.47 480.36 Z" id="GIN-5655" data-name="Nzérékoré"/>
<path d="M 275.88 148.82 277.74 151.06 278.91 153.64 279.88 156.89 280.07 157.83 280.09 158.47 279.96 160 280.04 161.13 280.28 161.85 280.63 162.38 281.04 162.77 282.07 163.47 282.8 163.85 285.33 164.67 287.64 165.04 293.09 163.8 305.06 159.87 307.1 152.34 319.32 149.48 318 154.28 315.73 157.51 315.41 162.68 312.82 166.56 313.79 170.76 316.7 173.02 318 177.55 304.75 177.87 300.87 180.13 296.02 182.4 291.17 185.95 289.23 191.77 285.03 198.55 279.21 199.85 273.07 205.02 265.96 209.87 263.06 216.01 262.56 231.69 260.36 233.14 258.89 234.38 257.7 236.59 256.82 237.42 255.63 237.85 253.43 237.3 251.16 235.93 250.43 235.33 249.55 234.76 247.74 233.83 246.02 232.5 245 232.2 243.61 232.51 242.36 232.68 240.8 236.66 236.04 238.02 233.32 230.2 229.74 226.95 229.44 226.54 229.1 226.14 228.83 225.67 228.73 225.07 228.79 223.84 228.99 223.33 229.59 222.89 230.22 222.33 230.85 221.52 232.1 219.01 232.21 218.37 231.82 218.09 231.42 217.97 231.2 217.59 231.33 217 231.89 216.19 232.3 215.48 232.62 214.62 233.34 210.71 233.28 210.09 233.06 209.59 232.64 209.28 232.14 209.04 231.67 208.76 230.86 208.08 230.51 207.71 230.32 207.18 230.23 205.94 229.96 204.76 229.87 204.12 229.91 202.88 229.83 202.34 229.59 201.9 229.26 201.52 229.03 201.11 229.08 200.61 229.37 200.02 230.16 199.39 230.51 198.81 230.46 198.03 230.07 196.83 230 196.16 230.01 194.6 229.89 193.97 229.86 193.39 230.09 192.77 230.95 192.08 232.3 190.5 232.69 188 232.92 187.1 232.91 186.49 233.19 185.93 233.8 185.31 237.73 182.73 238.32 182.5 238.86 182.52 239.44 182.5 240.02 182.3 240.45 181.97 240.68 181.34 240.74 181.08 240.71 180.87 240.64 180.64 240.66 180.22 240.89 179.8 241.52 179.66 242.03 179.8 242.51 180.1 243.47 180.99 243.57 181.05 243.82 181.16 244.23 181.24 244.65 181.17 244.9 181.06 245.01 180.99 245.79 177.3 246.55 175.14 248.59 171.76 248.9 170.58 249.28 169.57 249.39 169.02 249.59 168.51 249.73 167.96 249.91 166.76 250.11 166.26 250.6 165.3 251.01 164.24 251.14 163.63 251.29 161.62 251.4 161 251.59 160.45 254.26 155.67 255.33 154.48 256.14 153.73 257.68 153.18 260.62 152.45 261.18 152.12 261.73 151.68 262.29 150.8 262.56 150.15 262.6 149.48 262.28 148.4 262.3 147.87 262.69 147.28 264.65 146.4 267.44 147.23 274.44 147.08 275.88 148.82 Z" id="GIN-5656" data-name="Pita"/>
<path d="M 652.14 29.9 655.79 31.75 657.72 33.77 658.92 36.19 659.09 38.56 658.12 40.95 656.71 43.09 655.56 45.36 655.39 48.18 655.74 49.25 656.79 50.96 657.15 52.03 657.94 53.26 659.24 53.21 661.36 52.37 662.97 53.28 664.39 55.16 665.23 57.54 665.13 59.95 663.52 64.18 663.05 66.52 663.5 68.55 665.48 70.17 667.85 70.29 670.32 70.01 672.55 70.41 674.51 72.07 674.98 73.9 674.87 75.93 675.03 78.23 675.56 79.41 676.29 80.43 676.87 81.49 676.96 82.77 671.56 110.23 673.57 110.09 675.38 110.89 677.15 111.95 679.09 112.6 681.31 112.28 683.05 111.49 684.54 111.14 682.36 114 680.17 115.38 678.94 118.02 678.02 120.99 675.42 124.34 670.9 134.89 668.64 144.58 667.35 156.22 663.47 166.88 657.65 172.38 647.63 179.16 638.91 182.72 629.53 185.95 621.46 191.77 618.22 195.32 586.55 195.65 581.06 194.68 576.21 187.89 572.33 182.4 568.13 180.13 565.55 176.9 564.58 163.65 562.64 152.66 561.02 148.46 555.53 145.55 551.97 141.68 544.39 140.39 544.77 122.39 540.56 112.05 535.2 106.3 531.36 102.85 525.21 93.35 526.09 92.23 527.04 91.23 527.84 90.13 538.64 84.47 548.22 77.19 552.43 71.44 559.52 66.92 561.46 67.83 562.5 67.85 564.7 67.51 565.45 67.5 566.59 67.96 568.34 69.3 569.43 69.96 571.37 70.57 577.35 70.7 579.96 67.95 581.3 66.1 581.81 64.74 581.58 62.52 581.73 60.68 582.5 59.02 584.13 57.32 587.55 55.13 599.66 51.16 601.78 49.27 603.54 48.07 607.92 46.03 609.78 45.78 616.38 46.9 618.89 44.41 619.42 43.02 619.09 40.46 620.51 40.07 621.47 38.36 621.94 36.32 621.87 34.95 621.26 34.42 619.45 34.03 618.64 33.57 618.13 32.55 618.07 31.59 617.78 30.79 614.82 29.21 612.87 27.39 611.32 25.55 610.75 24.45 612.3 22.53 617.38 21.31 619.18 20.05 619.92 19.92 620.54 20.02 621.97 20.84 623.49 21.39 624.32 20.93 625.12 20.25 626.53 20.17 634.74 21.88 639.28 23.36 652.14 29.9 Z" id="GIN-5657" data-name="Siguiri"/>
<path d="M 420.13 71.17 420.47 76.52 422.14 80.42 427.16 85.15 427.16 91.7 427.16 96.29 425.91 98.67 425.77 102.42 425.49 105.49 425.03 110.27 416.78 120.56 416.52 121.68 416.52 122.45 416.67 123.07 416.96 123.51 417.32 123.94 418.11 124.65 418.95 125.29 425.22 128.27 425.75 129.05 425.02 130.72 424.3 131.48 423.01 131.92 421.43 132.92 420.11 134.03 419.56 134.78 418.93 135.33 415.15 136.62 414.02 137.21 413.02 137.95 411.35 139.56 407.06 145.91 404.81 147.61 403.01 150.98 401.8 152.04 400.04 152.03 398.61 151.35 397.31 151.02 395.93 152.04 394.7 151.42 394.08 151.91 393.65 152.83 392.99 153.51 392.06 153.99 391.36 154.22 390.38 154.31 389.14 154.64 388.34 155.5 387.91 156.78 387.61 160.58 387.02 161.88 385.9 162.79 379.08 166.6 378.39 168.02 373.76 173 373.45 173.44 370.4 176.39 368.61 177.69 365.03 178.32 360.31 178.63 355.53 179.44 352.52 180.74 351.38 180.94 346.73 181.05 345.51 180.82 344.46 180.34 343.53 179.11 342.78 177.32 342.22 173.69 342.14 171.39 342.3 169.05 342.81 165.73 342.66 163.94 341.95 162.34 340.12 160.5 338.62 159.4 337.09 158.67 335.9 158.33 334.85 157.78 333.86 156.48 332.82 154.4 331.83 150.17 332.86 146.52 338.36 142.97 353.87 134.24 372.94 126.16 380.69 120.35 383.6 113.88 392 111.3 402.02 109.36 402.99 105.16 402.2 69.09 403.99 70.62 406.09 72 408.29 73.1 410.41 73.83 412.51 73.85 415.97 72.43 417.73 72.34 419.43 71.88 420.13 71.17 Z" id="GIN-5658" data-name="Tougué"/>
<path d="M 684.43 544.36 684.16 548.08 684.01 548.69 683.37 549.8 683.18 550.42 683.3 551.08 683.74 551.28 684.22 551.42 684.51 551.91 684.63 554.41 684.21 556.55 683.14 558.5 681.32 560.45 678.32 562.25 677.67 562.77 677.29 563.77 677.13 565.97 676.72 566.93 675.81 567.75 674.05 568.26 673.04 568.9 671.08 571.31 670.12 572.8 669.61 573.95 669.83 575.78 670.62 577.72 671.11 579.76 670.42 581.9 669.23 582.58 664.57 584.36 663.15 584.52 661.11 581.29 659.73 580.45 659.15 582.98 658.02 582.47 657.52 582.63 657.17 584.31 656.69 584.37 654.3 585.07 653.44 585.57 651.59 585.42 650.11 586.23 648.75 587.45 647.26 588.53 645.83 588.98 644.32 589.23 643.71 589.43 642.87 589.71 641.63 590.81 642.64 587.1 642.26 585.67 640.16 584.6 639.32 583.93 639.26 582.07 638.66 581.63 636.25 581.73 635.6 581.61 632.94 579.17 631.47 572.43 629.92 570.25 628.26 570.06 624.6 571.03 622.91 570.76 622.26 570.02 621.52 567.88 620.77 566.95 619.87 566.4 619.09 566.13 617.56 565.92 615.76 565.97 614.77 566.16 614.33 566.54 614.1 567.7 613.55 568.06 612.93 568.25 611.31 570.6 610.08 569.55 608 565.92 606.8 567.69 603.67 570.72 602.78 571.16 602.73 571.12 602.34 570.82 603.52 569.81 604.19 568.72 604.48 567.45 604.54 565.98 604.98 564.64 606 563.61 608.22 561.94 610.66 558.32 611.57 556.02 611.16 554.53 613.09 552.3 613.86 551.08 614.38 548.2 615 546.58 615.93 545.19 617.1 544.31 614.82 541.68 614.65 538.06 615.71 534.23 616.89 531.46 615.57 529.78 617.83 529.48 619.74 530.1 622.58 524 626.28 521.1 634.22 514.04 636.2 509.65 640.97 505.84 643.42 504.39 645.88 501.05 647.66 497.97 653.54 502.26 655.87 507.52 657.04 515.69 661.71 524.45 664.63 533.2 667.55 539.62 675.72 543.13 684.43 544.36 Z" id="GIN-5659" data-name="Yomou"/>
<path d="M 228.22 162.88 230.21 168.43 234.68 173.42 238.32 182.5 237.73 182.73 233.8 185.31 233.19 185.93 232.91 186.49 232.92 187.1 232.69 188 232.3 190.5 230.95 192.08 230.09 192.77 229.86 193.39 229.89 193.97 230.01 194.6 230 196.16 230.07 196.83 230.46 198.03 230.51 198.81 230.16 199.39 229.37 200.02 229.08 200.61 229.03 201.11 229.26 201.52 229.59 201.9 229.83 202.34 229.91 202.88 229.87 204.12 229.96 204.76 230.23 205.94 230.32 207.18 230.51 207.71 230.86 208.08 231.67 208.76 232.14 209.04 232.64 209.28 233.06 209.59 233.28 210.09 233.34 210.71 232.62 214.62 232.3 215.48 231.89 216.19 231.33 217 231.2 217.59 231.42 217.97 231.82 218.09 232.21 218.37 232.1 219.01 230.85 221.52 230.22 222.33 229.59 222.89 228.99 223.33 228.79 223.84 228.73 225.07 228.83 225.67 229.1 226.14 229.44 226.54 229.74 226.95 233.32 230.2 236.04 238.02 232.03 239.27 220.07 242.83 210.38 245.09 202.04 245.84 201.7 241.42 201.36 237.34 203.74 233.26 202.38 224.42 181.31 213.2 158.98 211.68 146.96 210.86 145.87 210.14 144.66 210.02 142.69 210.24 141.63 210 138.81 208.88 137.72 208.99 136.83 209.44 136.09 210.15 135.28 210.62 134.27 210.88 133.37 214.22 129.29 214.93 128.8 215.17 127.42 215.7 127.03 216.14 126.73 216.66 126.35 216.87 125.82 216.71 125.03 215.94 118.75 218.98 113.99 219.66 111.95 216.6 101.75 216.6 106.51 209.8 112.97 203.34 118.41 195.86 124.77 196.31 132.34 192.84 134.39 187.02 136.09 182.94 137.1 178.08 137.02 177.04 137.36 176.37 139.46 174.47 140.37 173.78 141.4 173.33 141.78 173.07 142.03 172.67 143.11 168.25 143.24 167.23 143.11 164.93 143.15 164 143.09 163.3 142.88 162.76 141.68 161.73 141.22 161.46 140.76 161.04 140.5 160.35 140.66 157.94 140.52 157.24 139.23 155.59 138.46 154.86 137.49 153.55 137.01 153.3 135.65 153.18 134.99 153.03 134.56 152.83 134.06 151.77 136.16 151.4 138.1 149.6 139.72 148.08 144.72 146.31 148.8 145.65 149.69 145.74 150.14 145.89 150.6 146.12 151.17 146.33 153.11 146.58 154.43 146.58 156.17 146.43 157.12 146.1 157.77 145.6 158.57 144.85 159.74 143.95 162.38 142.65 164 142.1 165.58 141.82 174.91 141.62 176.06 141.72 176.95 141.95 177.57 142.34 182.33 142.14 186.75 143.5 193.22 144.68 194.31 144.72 194.77 144.91 196.44 145.39 198.43 165.68 198.61 166.19 199.72 166.99 200.43 167.07 205.92 166.73 215.37 164.49 219.51 162.99 220.5 162.53 228.22 162.88 Z" id="GIN-5660" data-name="Télimélé"/>
</g>
</svg>