<?xml version="1.0"?>
<svg xmlns="http://www.w3.org/2000/svg" version="1.2" baseProfile="tiny" width="800" height="330" viewBox="0 0 800 330" stroke-linecap="round" stroke-linejoin="round">
<g id="ne_10m_admin_1_states_provinces">
<path d="M 96.62 209.78 94.65 209.98 95.03 208.33 95.95 206.56 97.21 205.03 98.67 204.17 100.25 204.09 100.57 204.95 100.42 206.42 100.58 208.21 98.1 209.3 96.62 209.78 Z M 113.88 193.01 115.01 194.75 112.13 193.93 110.23 193.73 109.37 194.33 109.38 195.56 109.48 196.22 110.37 198.54 106.6 195.76 105.58 195.52 102.87 195.17 101.97 194.75 100.93 192.63 102.18 191.39 106.6 190.13 108.53 190.98 111.33 191.85 113.88 193.01 Z M 100.72 185.49 99.39 186.13 97.26 185.5 97.26 186.52 101.05 189.2 98.33 189.89 93.61 192.36 91.34 192.9 89.73 192.18 87.81 190.44 86.16 188.34 85.32 186.52 86.16 186.52 89.24 186.9 96.28 181.96 99.19 182.73 100.82 184.17 100.72 185.49 Z M 94.52 112.17 94.77 112.28 100.64 114.56 103.08 115.78 105.53 116.47 109.71 117.11 113.42 117.56 114.15 117.37 116.06 117.09 117.12 117.21 122.72 118.42 122.94 118.42 124.78 126.4 123.51 137.83 122.49 141.83 123 144.69 124.34 146.24 119.95 156.38 119.29 159.71 121.48 160.95 125.7 160.88 130.12 159.68 132.36 158.83 133.67 158.41 134.96 159.22 136.47 161.2 138.72 165.11 140.79 167.3 141.29 171.49 144.09 175.68 150.59 177.33 163.14 177.46 166.73 178.6 168.98 182.79 172.92 185.97 180 186.23 182.19 184.07 183.72 181.78 185.75 181.52 186.99 184.16 190.32 183.56 193.34 181.49 194.64 179.24 196.57 174.62 198.96 171.36 204.96 169.49 208.39 170.35 208.82 175.44 209.65 179.65 210.02 183.64 209.66 187.73 209.34 188.4 209.12 188.72 208.33 189.36 201.53 197.88 198.18 201.14 197.64 202.09 197.06 203.47 193.59 217 193.32 218.67 192.74 220.22 192.14 221.34 189.42 222.06 189.28 222.11 189.28 222.11 188.34 220.83 186.4 215.7 185.56 214.34 184.73 216.44 184.57 217.54 184.63 218.89 183.21 217.5 183.19 215.53 182.94 213.64 180.86 212.5 180.86 211.49 182 212.15 183.06 212.45 183.95 212.26 184.63 211.49 185.56 211.49 186.02 211.88 186.32 212.04 187.41 212.5 182.79 204.09 179.8 200.38 178.46 198.28 178.08 195.76 177.23 195.76 176.46 197.27 176.13 198.77 176.56 199.91 178.08 200.38 177.24 201.56 175.2 203.76 174.29 205.01 173.45 205.01 171.02 203.17 160.42 199 159.23 198.27 153.58 196.93 151.67 196.68 150.23 195.81 150.76 193.8 153.02 190.13 151.38 190.63 149.57 191.8 148.08 193.42 147.47 195.26 146.63 195.66 144.76 194.5 141.91 192.06 139.92 193.53 135.53 193.26 131.08 191.89 128.88 190.13 128.04 190.13 127.81 192.59 124.4 200.06 124.11 199.81 123.52 199.51 123.34 199.46 123.34 200.38 122.49 200.38 123.75 197.23 123.7 196.23 122.49 196.68 122.65 195.57 122.86 194.74 123.32 194.2 124.26 193.92 124.26 192.9 122.44 193.06 120.11 194.41 118.24 194.75 117.07 194.35 115.35 192.54 114 192.06 114 191.14 114.69 190.93 115.3 190.43 115.93 190.13 114.36 185.95 114.22 184.05 115.01 182.73 115.01 181.8 114.21 181.19 114.06 180.51 114.38 179.78 115.01 179.03 115.17 179.38 115.13 179.76 115.27 180.01 115.93 179.95 115.27 178.14 115.43 176.75 116.53 175.77 118.71 175.24 115.53 175.15 113.88 175.28 113.15 175.75 110.99 180.19 110.85 180.96 108.21 180.72 106.16 179.84 105.16 178.09 105.75 175.24 103.53 176.19 101.16 176.92 98.76 177.06 96.43 176.25 96.68 177.15 96.96 179.06 97.26 179.95 95.1 180.27 91.24 182.26 89.49 182.73 86.94 182.04 85 180.51 84.72 178.92 87.17 178.01 87.17 177.18 86.02 176.72 85.4 175.93 85.2 174.84 85.32 173.47 83.95 174.5 83.73 176.18 83.14 177.91 80.62 179.03 80.62 179.95 81.18 180.7 81.72 181.63 82.17 182.65 82.46 183.65 79.9 184.2 78.97 184.16 77.84 183.65 74.37 184.29 68.82 182.81 59.34 179.03 54.42 178.01 49.05 178.01 43.71 178.73 34.13 181.68 30.02 184.01 26.85 187.32 24.85 192.06 24.49 197.64 25.44 203.33 28.64 212.5 28.64 213.34 26.9 215.12 26.07 217.36 24.89 218.51 22.09 217.04 22.08 217.04 22.93 213.95 23.6 207.9 16.47 192.37 15.85 188.07 14.92 186.68 12.55 185.44 11.31 185.27 9.68 185.91 8.82 185.86 8.06 185.27 6.76 183.35 6.04 182.59 2.24 180.37 1 179.05 1.15 177.35 2.35 176.39 8.52 172.95 14.51 167.27 18.41 165.28 22.24 164.12 25.77 162.39 28.77 158.72 30.04 154.73 30.44 149.97 29.64 140.52 28.56 136.41 26.88 132.91 24.62 129.74 20.36 125.02 19.16 123.24 18.49 121.32 18.65 119.3 19.75 118.13 23.78 115.63 25.04 114.18 25.06 112.34 23.99 111.68 23.34 111.06 24.66 109.32 26.24 108.2 40.22 102.52 44.27 100.08 46.13 97.07 46.89 97.61 49.84 100.58 59.03 99.43 66.78 99.84 68.96 100.66 70.43 101.87 71.93 104.82 77 105.06 83.28 107.05 94.52 112.17 Z" fill-rule="evenodd" id="PAN-1332" data-name="Chiriquí"/>
<path d="M 396.04 93.14 396.63 96.79 393.57 101.31 392.75 103.56 392.38 105.98 392.49 109.2 396.02 119.4 399.42 134.63 400.2 136.87 400.7 141.55 400.52 142.75 400.49 147.05 401.71 150.39 402.2 157.95 402.95 160.06 403.6 161.38 409.14 167.82 409.14 167.82 403.71 171.37 397.62 174.51 388.17 179.35 384.19 180.96 377.72 181.8 376.51 181.65 374.77 181.04 374.02 180.96 372.83 181.28 370.46 182.41 369.39 182.73 365.69 181.8 363.91 180.64 363.08 179.69 363.76 179.03 362.4 179.56 362.34 180.16 362.54 180.88 361.99 181.8 359.52 183.4 350.96 191.85 349.88 194.33 350.33 207.32 350.16 208.89 349.84 209.36 348.09 208.85 344.95 206.77 343.34 205.98 342.56 206.12 341.02 207.28 340.22 207.37 339 206.46 336.45 203.75 334.57 202.97 332.06 203.14 327.09 204.77 324.88 204.94 321.59 203.78 315.21 199.59 314.67 197.26 318.21 190.98 320.17 184.19 320.71 179.84 317.39 174.47 312.15 160.75 308.98 155.16 306.21 151.48 303.29 148.89 304.89 147.46 309.16 146.78 312.88 142.3 314.49 138.39 317.69 138.58 319.06 136.4 320.51 134.79 320.83 133.41 320.53 131.88 320.36 130.23 320.52 127.75 321.82 124.86 322.88 121.72 324.3 119.81 326.37 117.83 327.93 117.13 329.26 116.89 331.75 117.38 333.27 117.51 335.26 117.46 337.52 116.8 339.46 115.85 341.17 114.58 342.07 112.56 342.5 110.49 342.23 106.25 341.79 105.06 341.31 104.35 341.04 103.76 341.21 102.44 342.73 97.51 343.68 96.44 344.81 96.21 357.15 100.8 358.92 101.89 361.87 102.74 365.25 103.24 366.51 103.62 368.37 102.98 370.56 101.32 381.27 91.2 383.12 89.88 384.58 89.18 385.59 88.19 386.54 86.47 387.25 82.56 388.62 79.83 390.52 83.31 390.64 84.79 391.57 89.47 392.41 90.91 393.33 91.75 394.37 92.42 396.04 93.14 Z" id="PAN-1336" data-name="Coclé"/>
<path d="M 540.05 10.11 540.05 12.92 539.99 24.31 539.46 25.16 538.36 25.46 537.21 25.6 536.3 25.85 534.89 26.72 533.77 27.8 532.24 30 531.78 31.32 531.55 33.43 531.3 34.3 530.9 35.07 530.09 35.86 528.87 36.59 526.27 37.46 524.05 38.48 520.3 40.8 517.73 42.84 517.16 42.83 516.69 41.45 517.66 40.23 517.82 39.64 517.89 38.88 517.72 37.93 517.27 37 516.54 36.28 515.32 35.83 514.71 35.36 514.72 34.65 515.77 33.24 516 32.52 515.37 31.74 513.99 31.08 510.84 30.02 508.45 30.05 507.04 30.41 505.63 31.54 504.78 31.75 501.54 31.73 500.27 31.99 498.06 32.76 497.12 32.88 496.48 32.62 496.12 31.66 496.33 30.84 496.8 30.15 497.54 29.69 499.21 28.96 499.83 28.63 500.06 28.24 499.85 27.66 498.51 25.93 498.04 25.17 497.15 24 496 23.1 493.77 22.24 490.43 21.36 484.42 22.66 479.36 24.71 475.84 36.69 475.56 38.08 475.65 39.06 476.02 39.59 475.97 41.02 475.38 43.13 473.59 47.7 472.93 50.54 472.66 52.55 473.26 54.97 473.09 55.92 472.42 56.69 470.52 57.52 468.22 58.2 465.84 59.3 464.89 60.03 464.1 60.54 463.23 64.23 459.41 68.9 456.95 70.55 454.67 71.35 447.69 71.46 444.71 70.77 443.18 69.16 440.6 64.84 439.18 63.51 437.7 62.79 433.91 61.97 429.67 59.98 427.41 60.43 425.42 62.53 419.72 74.95 420.45 77.3 421.58 79.38 422.05 80.96 422.09 83.04 421.36 85.18 420.64 86.67 416.65 89.27 411.65 90.84 407.87 90.55 402.11 88.47 396.04 93.14 394.37 92.42 393.33 91.75 392.41 90.91 391.57 89.47 390.64 84.79 390.52 83.31 388.62 79.83 387.25 82.56 386.54 86.47 385.59 88.19 384.58 89.18 383.12 89.88 381.27 91.2 370.56 101.32 368.37 102.98 366.51 103.62 365.25 103.24 361.87 102.74 358.92 101.89 357.15 100.8 344.81 96.21 343.68 96.44 342.73 97.51 341.21 102.44 341.04 103.76 341.31 104.35 341.79 105.06 342.23 106.25 342.5 110.49 342.07 112.56 341.17 114.58 339.46 115.85 337.52 116.8 335.26 117.46 333.27 117.51 331.75 117.38 329.26 116.89 327.93 117.13 326.37 117.83 324.3 119.81 322.88 121.72 321.82 124.86 320.52 127.75 320.36 130.23 320.53 131.88 320.83 133.41 320.51 134.79 319.06 136.4 317.69 138.58 314.49 138.39 316.59 134.21 316.33 133.27 316.04 132.51 315.31 131.72 314.66 130.63 314.14 128.15 314.59 126.52 315.37 124.89 316.01 122.82 315.28 120.86 314.35 119.35 311.49 116.14 310.48 115.52 308.95 114.86 306.57 114.09 304.24 113 301.75 111.38 300.77 110.53 299.35 108.92 298.58 107.38 298.11 106.1 297.92 103.31 297.88 102.94 297.8 101.83 300.2 101.91 303.24 101.07 304.53 99.45 305.7 98.13 308.51 94.5 310 92.57 311.36 91.74 311.82 91.31 312.26 90.35 312.97 89.39 314.18 88.96 316.19 86.64 319.36 85.16 324.29 82.23 326.17 81.48 328.35 79.26 336.18 75.33 346.01 71.24 359.35 66.99 375.03 65.75 377.08 65.07 381.5 62.53 382.84 61.97 387.58 61.44 392.6 60.12 397.09 58.32 401.01 56.14 405.83 50.7 411.12 46.07 414.56 42.83 414.87 41.31 417.52 37.03 420.94 35.66 421.79 35.74 422.29 37 422 42.11 422.29 43.46 423.04 44.37 424.23 45.05 425.62 45.18 426.99 44.47 428 42 428.18 39.27 428.94 37.97 431.62 39.77 431.32 38.62 430.99 36.29 430.69 35.15 431.02 35.39 431.62 35.98 432.55 35.15 430.87 32.79 432.12 31.5 433.66 32.19 436.22 31.97 439.24 33.28 441.71 37.38 442.72 38.93 442.17 35.96 441.47 33.87 441.4 31.99 442.72 29.6 444.72 27.79 448.77 26.3 451.04 24.88 451.33 24.48 451.7 23.48 451.96 23.03 452.43 22.69 453.33 21.25 454.57 20.49 456.58 19.09 457.44 15.61 458.38 12.34 460.77 11.42 461.86 10.43 461.21 9.72 459.69 10.28 458.5 10.6 457.73 9.77 458.6 9.21 459.4 8.64 460.12 7.22 462.08 6.38 463.6 5.17 464.75 3.82 467.21 3.12 469.37 3.41 472.04 2.56 475.5 1 477.96 1.67 478.62 3.28 479.35 4.58 479.37 5.61 477.96 6.39 477.96 7.23 479.29 7.81 479.32 8.12 479.81 9.16 480.47 8.7 480.96 8.42 481.34 8.03 481.73 7.23 482.66 7.23 483.49 7.86 484.59 8.35 487.29 9.16 487.36 7.99 488.3 5.46 489.02 6.68 489.92 7.16 490.91 7.04 491.92 6.39 497.06 7.61 504.62 8.44 513.2 10.79 517.67 12.35 523.9 13.15 526.44 11.82 528.98 11.07 532.09 11.28 534.43 11.49 536.77 10.93 539.3 10.17 540.05 10.11 Z" id="PAN-1337" data-name="Colón"/>
<path d="M 349.84 209.36 349.84 209.36 349.04 210.56 351.24 211.6 352.22 214.19 352.87 216.84 354.08 218.05 356.08 218.46 361.25 220.71 362.83 221.83 363.79 222.12 363.79 222.13 362.92 223.98 362.01 225.1 361.41 227.58 359.87 229.62 358.48 230.69 356.75 231.06 352.48 230.88 348.09 232.12 346.36 233.77 342.25 241.28 340.66 243.24 338.71 244.84 336.93 245.93 336.25 246.77 336.09 247.31 336.71 248.12 336.83 250.24 336.79 251.21 337 252.43 337.37 253.44 339.12 255.76 339.57 256.81 339.73 257.84 339.76 259.4 339.23 261.19 337.8 263.64 336.1 265.24 334.98 266.11 334.02 266.5 332.28 266.69 331.49 267.39 324.62 278.22 317.16 285.48 313.63 281.93 312.8 281.46 310.03 280.86 306 278.49 295.55 263.02 294.77 261.22 293.86 257.32 293.06 255.17 292.08 253.82 291.45 253.22 290.09 252.66 286.94 253.47 286.36 250.41 286.85 235.09 287.62 233.79 288.27 233.2 291.73 232.33 294.58 229.28 298.45 225.87 299.51 224.34 300.97 221.69 301.13 219.59 299.02 213.62 303.97 211.77 308.86 209.83 311.06 207.85 314.13 204.16 315.44 203.68 317.29 203.73 318.51 204.03 321.59 203.78 324.88 204.94 327.09 204.77 332.06 203.14 334.57 202.97 336.45 203.75 339 206.46 340.22 207.37 341.02 207.28 342.56 206.12 343.34 205.98 344.95 206.77 348.09 208.85 349.84 209.36 Z" id="PAN-1338" data-name="Herrera"/>
<path d="M 317.16 285.48 324.62 278.22 331.49 267.39 332.28 266.69 334.02 266.5 334.98 266.11 336.1 265.24 337.8 263.64 339.23 261.19 339.76 259.4 339.73 257.84 339.57 256.81 339.12 255.76 337.37 253.44 337 252.43 336.79 251.21 336.83 250.24 336.71 248.12 336.09 247.31 336.25 246.77 336.93 245.93 338.71 244.84 340.66 243.24 342.25 241.28 346.36 233.77 348.09 232.12 352.48 230.88 356.75 231.06 358.48 230.69 359.87 229.62 361.41 227.58 362.01 225.1 362.92 223.98 363.79 222.13 363.79 222.12 367.4 223.2 370.26 228.07 372.21 233.74 374.02 237.55 386.97 247.82 395.19 255.24 407.57 270.91 413.89 282.4 415.55 286.4 415.39 289.02 413.31 294.2 412.25 295.34 410.59 295.73 406.97 295.92 405.86 296.13 396.31 299.7 387.77 299.69 386.12 300.62 384.48 299.87 380.84 299.02 379.57 297.85 378.64 297.85 377.43 298.45 373.09 299.7 373.09 300.62 374.84 300.43 376.25 300.08 377.47 299.55 378.64 298.86 379.57 299.7 369.83 302.87 366.22 305.47 365.69 309.03 368.01 312.87 367.58 314.11 364.22 314.58 363.28 314.85 362.22 315.49 361.34 316.26 360.98 316.9 360.63 318.39 359.74 318.92 358.52 319.25 357.2 320.14 356.61 321.26 356.66 322.21 356.53 323.04 355.43 323.83 354.4 323.92 351.84 323.13 350.38 322.91 333.81 324.97 332.82 325.16 332.82 325.16 332.46 320.4 331.58 318.51 330.19 316.96 327.38 314.88 326.15 314.14 324.15 313.49 324.06 312.88 324.35 311.46 324.28 309.47 323.42 306.29 319.93 301.58 317.79 295.05 316.84 289.25 317.16 285.48 Z" id="PAN-1339" data-name="Los Santos"/>
<path d="M 541.24 186.41 540.69 186.92 539.26 187.22 537.79 186.56 536.09 187.47 535.99 188.63 536.81 189.43 536.81 190.6 535.94 190.75 535.43 191.41 535.31 193.23 533.53 193.43 531.18 188.63 531.59 186.86 532.46 186.97 532.57 185.96 533.13 184.14 532.62 182.83 533.28 180.66 534.92 178.74 535.94 178.59 536.55 178.74 537.3 179.51 537.41 179.95 538.3 181.67 538.91 184.6 539.87 185.71 540.53 185.91 541.24 186.41 Z M 535.92 165.01 537.3 166.67 537.94 166.16 538.24 164.9 538.98 165.38 538.46 167.08 539.47 167.75 539.28 168.78 538.72 169.92 537.57 170.64 534.95 168.7 532.53 166.89 534.13 163.61 535.92 165.01 Z M 568.74 160.28 569.36 161.73 569.75 163.3 569.87 164.69 569.84 165.75 571.53 166.05 572.44 167.82 572.19 169.33 571.06 170.09 570.75 171.8 572.58 175.3 571.39 178.33 570.16 179.44 570.17 180.65 569.39 181.66 567.71 181.55 567.04 180.9 566.07 181.05 565.16 181.22 564.19 181.45 563.83 180.74 563.52 179.88 563.06 180.74 562.05 181.95 560.93 183.46 560.97 184.62 560.61 185.78 561.94 187.35 562.19 190.02 563.01 190.68 564.03 190.73 564.03 191.34 563.16 192.04 561.27 190.98 559.85 189.81 560.05 187.9 559.14 184.72 558.27 183.46 555.84 182.39 554.98 181.8 554.23 180.41 554.84 178.28 555.81 177.16 556.28 174.8 555.78 173.94 554.59 172.64 554.23 171.63 554.79 170.62 555.35 169.77 555.41 168.86 554.8 166.44 554.98 165.16 553.58 161.54 554.09 159.63 555.82 159.58 557.05 160.4 562.51 158.06 563.73 159.2 564.11 159.87 564.32 160.53 564.75 159.69 564.55 158.16 565.06 157.51 566.39 158.27 567.88 159.2 568.74 160.28 Z M 473.83 112.73 474.7 113.02 475.12 112.89 475.2 113.3 474.91 113.63 475.28 114.45 475.91 114.86 476.74 115.15 476.82 115.89 476.53 116.67 475.91 116.87 475.45 116.18 474.91 115.68 473.91 115.89 473.04 115.64 472.71 114.82 472.87 113.55 473.83 112.73 Z M 532.94 93.94 532.35 93.98 532.19 93.76 532.54 93.26 532.45 92.96 532.21 92.79 532.17 92.32 532.19 92.1 532.47 91.75 532.61 91.89 532.7 92.38 533.47 92.83 532.94 93.2 532.94 93.94 Z M 496.48 32.62 497.12 32.88 498.06 32.76 500.27 31.99 501.54 31.73 504.78 31.75 505.63 31.54 507.04 30.41 508.45 30.05 510.84 30.02 513.99 31.08 515.37 31.74 516 32.52 515.77 33.24 514.72 34.65 514.71 35.36 515.32 35.83 516.54 36.28 517.27 37 517.72 37.93 517.89 38.88 517.82 39.64 517.66 40.23 516.69 41.45 514.1 42.69 513.23 43.68 512.35 45.16 512.07 46.56 512.21 47.44 513.29 48.39 517.75 47.45 527.05 44.56 528.92 44.28 530.74 44.25 532.72 44.38 534.52 44.76 537.46 45.95 538.63 47 539.55 48.02 540.42 48.68 542.46 48.82 548.64 48.65 549.85 48.26 550.4 47.76 550.4 47.19 550.06 46.41 549.59 45.62 549.39 44.75 549.77 43.9 550.55 43.29 553.84 41.86 554.94 41.7 556.1 41.82 557.51 42.27 558.36 41.85 558.6 41.09 558.56 40.16 558.66 39.58 559.26 39.34 560.13 39.48 561.62 40.05 563.68 40.03 564.95 39.59 566.64 38.06 567.58 37.57 569.52 37.36 571.83 37.34 576.03 37.93 577.8 37.66 578.94 37.02 579.74 36.37 580.26 36.05 581.23 35.93 581.93 35.92 582.83 36.32 585.14 38.74 586.98 39.58 587.95 39.24 588.49 38.33 588.78 35.96 589.48 35.56 590.95 36.03 593.91 37.88 598.68 41.52 600.59 42.71 602.98 43.21 605.09 43.02 612.2 41.36 612.86 40.87 614.05 39.12 614.94 38.67 616.15 38.88 617.87 40.47 618.56 41.7 619.15 44.04 619.73 44.43 620.67 44.08 621.69 43.28 622.63 42.76 623.63 42.85 624.81 43.96 625.31 45.01 625.79 45.83 626.33 46.35 627.33 46.71 628.09 47.32 628.77 48.47 629.2 49.74 629.3 50.77 629.16 51.74 629.5 52.67 630.26 53.25 632.14 53.66 636.04 53.5 638.63 54.01 639.71 54.08 640.76 53.75 645.59 51.39 646.47 51.61 647.04 52.58 647.64 54.88 648.95 58.5 649.77 59.7 650.82 60.4 653.84 60.1 657.3 60.15 660.34 60.6 661.47 60.51 662.06 60.15 662.42 59.48 662.66 58.86 663.2 58.39 664.14 58.75 665.2 59.94 665.88 62.85 665.25 64.42 663.85 66.56 664.12 67.3 665 67.97 674.35 70.18 675.83 70.98 676.82 71.65 679.87 76.34 679.11 77.96 676.35 81.57 675.43 83.58 674.81 86.11 674.51 89.41 674.57 91.85 674.91 93.88 674.25 95.15 672.79 96.04 669.42 96.81 667.05 97.88 664.77 99.85 663 102.83 661.93 103.61 660.45 103.96 657.86 103.75 655.58 103.83 652.76 104.41 648.88 106.22 647.56 107.59 647.06 108.89 646.91 110.03 646.3 111.19 645.04 112.12 643.77 112.45 642.05 111.72 640.69 109.65 639.82 108.88 636.55 107.71 634.28 107.29 632.39 107.2 626.18 109.29 625.21 109.92 624.51 110.69 624.88 112.55 626.44 120.36 626.92 121.7 627.54 124.94 627.62 126.55 627.14 128.64 626.62 130.1 625.81 131.64 625.34 133.19 624.92 135.2 624.38 140.71 623.61 144.7 623.52 145.82 624 146.34 624.49 146.72 624.95 147.73 624.79 149.46 625.31 152.87 627.05 157.03 627.43 160.01 629.65 167.88 630.13 173.92 630.13 173.92 629.32 173.47 626.2 169.66 624.7 168.77 625.43 167.11 625.32 164.69 624.68 162.25 623.77 160.53 622.77 161.29 622.22 162.11 621.96 163.08 621.84 164.23 621.21 162.94 619.74 161.07 619.14 159.52 619.06 157.61 620.07 153.04 619.14 150.68 615.18 145.4 613.6 143.71 615.63 143.8 617.11 144.25 618.45 144.42 620.07 143.71 617.85 141.99 617.1 140.58 617.3 135.84 608.89 133.53 609.59 131.45 609.9 130.84 609.01 130.73 608.55 130.94 607.96 131.68 606.85 130.95 605.81 131.03 604.81 131.44 603.84 131.68 602.65 131 601.79 129.42 600.56 126.13 602.49 124.57 603.21 122.12 603.06 119.33 602.42 116.8 601.41 116.8 601.21 118.98 601.75 121.78 601.67 123.72 599.64 123.35 597.37 125.83 593.21 120.44 589.46 120.5 586.81 118.86 584.11 113.11 581.97 111.25 581.97 110.32 582.99 110.32 582.99 109.39 580.98 108.81 579.71 107.55 578.65 106.05 577.27 104.77 578.35 107.03 578.58 108.81 577.73 110.18 575.51 111.25 573.47 111.58 572.1 111.06 569.45 107.97 568.5 105.82 567.96 103.21 567.24 101 549.44 91.74 542.35 90.19 538.91 87.77 538.33 87.03 538.16 85.7 538.54 84.94 539.07 84.18 539.34 82.91 539.4 80.11 539.19 77.75 538.11 76.26 535.55 76.01 535.55 75 538.46 74.79 540.68 73.61 542.21 71.74 543.04 69.46 543.89 69.46 545.08 71.29 546.4 71.22 548.59 69.46 551.34 68.49 552.57 67.78 553.22 66.59 552.35 67.02 550.53 67.16 549.44 67.52 548.53 68.22 546.8 70.09 546.23 70.46 545.15 70.05 544.79 69.2 544.38 68.5 543.04 68.53 542.2 69.24 540.55 71.7 539.77 72.23 539.45 72.51 539.02 73.15 538.26 73.79 536.94 74.08 535.69 74.14 534.68 74.4 534.02 74.99 533.8 76.01 534.63 76.94 536.38 77.45 537.96 78.62 538.33 81.48 537.72 83.14 536.32 85.45 534.42 87.06 532.32 86.6 531.44 86.15 528.16 85.26 528.01 84.66 527.35 83.57 526.65 83.21 526.3 84.81 524.01 85.56 513.12 83.65 509.58 84.34 508.73 84.34 508.73 83.42 505.4 84.44 497.74 83.7 494.69 85.26 493.49 84.34 492.23 84.45 490.93 84.96 488.58 85.41 486.89 86.04 485.86 86.18 484.85 86.48 484.57 87.11 484.48 87.75 484.05 88.04 483.62 88.5 479.81 90.81 479.53 92.03 479.67 93.19 479.4 94.08 477.96 94.51 480.31 98.46 480.81 100.06 479.03 98.82 476.84 96.65 475 94.11 474.26 91.74 473.41 91.74 473.6 92.52 473.84 93.03 474.26 93.67 474.26 94.51 473.41 94.51 474.39 97.87 473.76 100.79 471.78 102.21 468.7 101.07 462.52 102.16 460.57 103.16 461.31 104.77 461.31 105.62 459.8 105.12 458.84 104.48 457.93 104.19 456.59 104.77 456.2 104.33 456.04 104.1 455.72 103.98 454.82 103.85 454.82 104.77 455.2 105.24 455.42 105.93 455.75 106.63 453.42 106.23 451.22 107.35 449.41 109.28 448.26 111.25 447.69 113.86 448.26 121.92 448.56 122.7 449.19 123.11 449.83 123.38 450.12 123.81 449.98 124.67 449.71 125.4 449.28 126.13 448.97 127.18 448.43 128.31 447.72 129.4 446.92 130.33 446.38 130.72 444.69 131.53 442.98 131.89 442.88 132.39 443.05 133 442.72 133.53 440.41 134.14 438.2 135.23 439.91 136.92 444.53 137.96 448.9 136.22 452.97 134.18 454.53 133.33 455.03 132.69 455.68 132.69 455.73 133.83 455.23 134.82 450.66 138.35 445.23 143.22 442.62 144.22 438.2 145.66 433.08 146.91 432.07 148.2 432.31 149.69 432.05 150.73 431.62 151.2 430.93 151.48 429.4 151.79 428.84 152.03 426.79 153.94 425.83 154.62 424.59 154.9 423.86 155.47 422.55 158.01 421.86 158.59 421.58 159.11 418.7 161.58 409.14 167.82 403.6 161.38 402.95 160.06 402.2 157.95 401.71 150.39 400.49 147.05 400.52 142.75 400.7 141.55 400.2 136.87 399.42 134.63 396.02 119.4 392.49 109.2 392.38 105.98 392.75 103.56 393.57 101.31 396.63 96.79 396.04 93.14 402.11 88.47 407.87 90.55 411.65 90.84 416.65 89.27 420.64 86.67 421.36 85.18 422.09 83.04 422.05 80.96 421.58 79.38 420.45 77.3 419.72 74.95 425.42 62.53 427.41 60.43 429.67 59.98 433.91 61.97 437.7 62.79 439.18 63.51 440.6 64.84 443.18 69.16 444.71 70.77 447.69 71.46 454.67 71.35 456.95 70.55 459.41 68.9 463.23 64.23 464.1 60.54 464.89 60.03 465.84 59.3 468.22 58.2 470.52 57.52 472.42 56.69 473.09 55.92 473.26 54.97 472.66 52.55 472.93 50.54 473.59 47.7 475.38 43.13 475.97 41.02 476.02 39.59 475.65 39.06 475.56 38.08 475.84 36.69 479.36 24.71 484.42 22.66 490.43 21.36 493.77 22.24 496 23.1 497.15 24 498.04 25.17 498.51 25.93 499.85 27.66 500.06 28.24 499.83 28.63 499.21 28.96 497.54 29.69 496.8 30.15 496.33 30.84 496.12 31.66 496.48 32.62 Z" fill-rule="evenodd" id="PAN-1340" data-name="Panama"/>
<path d="M 169.82 317.72 169.75 318.29 171.07 317.79 172.16 317.92 173.44 318.23 175.31 318.29 173.63 319.63 171.83 323.13 170.67 324.85 171.2 325.53 171.68 326.61 170.67 326.61 168.6 320.47 168.82 319.3 168.25 318.53 168.2 318.11 168.82 317.36 169.33 317.38 169.68 317.47 169.82 317.72 Z M 273.09 282.15 272.02 283.44 270.5 283.98 269.02 284.7 267.97 284.9 266.8 284.4 265.94 283.72 265.18 283.31 264.3 283.11 263.05 283.05 261.67 283.35 260.98 284.07 260.51 284.96 259.81 285.74 256.03 287.67 254.13 289.9 253.34 290.37 252.2 290.37 250.93 290.08 249.94 289.72 249.64 289.53 245.9 290.83 245.05 290.78 246.32 289.02 247.63 287.67 249.01 286.63 250.67 285.97 255.56 285.23 256.96 284 257.83 282.5 258.97 281.2 260.82 280.25 263.19 279.39 267.3 278.43 269.02 279.01 270.84 279.24 274.7 279.27 273.09 282.15 Z M 179.08 269.94 182.15 278.69 182.28 280.27 182.54 280.56 183.62 282.21 183.69 282.56 183.54 283.64 183.62 283.98 184.05 284.04 185.18 283.88 185.56 283.98 186.78 284.8 187.64 285.13 188.17 285.92 188.34 288.1 187.54 288.74 183.21 290.37 183.08 291.3 182.07 295.24 181.77 295.92 182.62 297.6 185.06 299.79 185.56 301.13 185.81 302.52 186.45 303.71 187.34 304.17 188.34 303.4 189.17 303.4 190.78 304.25 194.9 303.87 195.74 304.84 199.52 311.82 196.99 312.85 194.08 313.66 191.2 313.67 186.48 310.98 180.67 310.56 178.08 309.96 176.66 308.76 173.4 305.17 170.79 303.63 165.12 298.86 162.04 292.4 160.92 291.38 160.62 290.78 159.58 287.21 160.11 287.12 162.93 287.11 164.2 286.75 164.16 286.22 165.88 283.16 166.14 283.05 166.49 281.46 166.54 280.25 166.73 279.17 167.48 277.92 168.52 277.24 171.02 276.72 174.84 273.93 176.17 273.2 176.23 273.72 177.23 273.72 176.86 272.68 176.58 271 176.23 269.94 177.23 269.94 177.23 270.94 178.08 270.94 178 270.27 178.2 270.07 178.6 270.05 179.08 269.94 Z M 189.28 222.11 189.42 222.06 192.14 221.34 192.74 220.22 193.32 218.67 193.59 217 197.06 203.47 197.64 202.09 198.18 201.14 201.53 197.88 208.33 189.36 209.12 188.72 209.34 188.4 209.66 187.73 210.02 183.64 209.65 179.65 208.82 175.44 208.39 170.35 207.83 163.59 207.96 161.61 208.39 159.36 211.53 151.82 212.75 146.43 212.98 140.87 216.43 142.62 220.6 143.61 222.11 144.26 222.93 144.78 223.56 146.07 229.94 146.56 233.46 145.84 234.67 146.14 240.93 150.99 243.2 152.43 248.68 153.87 251.65 155.06 253.16 155.44 254.31 155.44 258.04 154.61 255.93 152.51 254.76 150.4 254.28 149.16 253.67 148.03 252.64 146.91 251.47 145.16 250.66 142.31 250.12 137.31 250.56 129.09 249.01 119.08 249.93 115.67 249.93 114.95 249.9 114.49 250.31 114.47 255.5 113.79 261.52 113.12 267.3 112.17 268.36 112.7 269.6 112.43 270.85 111.57 271.92 110.32 282.55 106.84 292.88 102.57 295.21 101.75 297.8 101.83 297.88 102.94 297.92 103.31 298.11 106.1 298.58 107.38 299.35 108.92 300.77 110.53 301.75 111.38 304.24 113 306.57 114.09 308.95 114.86 310.48 115.52 311.49 116.14 314.35 119.35 315.28 120.86 316.01 122.82 315.37 124.89 314.59 126.52 314.14 128.15 314.66 130.63 315.31 131.72 316.04 132.51 316.33 133.27 316.59 134.21 314.49 138.39 312.88 142.3 309.16 146.78 304.89 147.46 303.29 148.89 306.21 151.48 308.98 155.16 312.15 160.75 317.39 174.47 320.71 179.84 320.17 184.19 318.21 190.98 314.67 197.26 315.21 199.59 321.59 203.78 318.51 204.03 317.29 203.73 315.44 203.68 314.13 204.16 311.06 207.85 308.86 209.83 303.97 211.77 299.02 213.62 301.13 219.59 300.97 221.69 299.51 224.34 298.45 225.87 294.58 229.28 291.73 232.33 288.27 233.2 287.62 233.79 286.85 235.09 286.36 250.41 286.94 253.47 290.09 252.66 291.45 253.22 292.08 253.82 293.06 255.17 293.86 257.32 294.77 261.22 295.55 263.02 306 278.49 310.03 280.86 312.8 281.46 313.63 281.93 317.16 285.48 316.84 289.25 317.79 295.05 319.93 301.58 323.42 306.29 324.28 309.47 324.35 311.46 324.06 312.88 324.15 313.49 326.15 314.14 327.38 314.88 330.19 316.96 331.58 318.51 332.46 320.4 332.82 325.16 318.05 327.9 307.18 328.29 304.38 327.54 303.46 327.54 302.76 328.33 302.07 328.59 301.37 328.33 300.68 327.54 299.76 327.54 297.91 329.36 296.38 328.43 294.21 324.84 293.48 324.25 292.49 323.61 291.3 323.12 290.01 322.91 288.71 322.48 288.64 321.52 289.27 320.57 290.01 320.14 290.56 319.54 290.41 316.63 290.51 315.51 291.22 314.55 292.74 313.4 293.28 312.74 293.77 310.93 293.87 308.43 293.32 306.2 289.86 304.11 289.91 301.57 291.35 297.39 290.69 295.63 285.8 290.37 285.33 290.09 284.31 289.15 283.67 288.14 285.32 287.19 285.58 286.04 285.73 284.66 286.26 283.51 286.46 281.94 285.18 280.05 283.39 278.37 282.01 277.42 282.01 276.49 283.02 276.49 283.02 275.57 276.47 269.09 275.13 268.34 274.1 268.04 273.59 267.58 273.78 266.31 274.42 265.1 275.41 264.26 276.76 263.96 278.4 264.38 277.75 263.21 276.22 262.03 274.51 261.13 273.31 260.77 273.11 260.13 275.63 256.06 274.15 256.16 272.83 255.99 271.75 255.61 270.92 255.05 271.38 254.94 271.76 254.96 271.97 254.81 271.92 254.21 268.79 253.61 267.52 251.67 267.61 249.61 268.6 248.66 269.36 248.36 270.04 247.73 270.94 247.09 272.39 246.81 274.08 246.81 275.45 246.56 276.3 245.77 276.47 244.03 275.63 244.03 272.56 245.77 271.61 242.15 271.92 233.77 268.99 239.18 266.93 241 265.37 238.39 264.53 238.39 264.83 239.84 265.34 240.9 266.14 241.65 267.3 242.18 267.3 243.11 261.16 243.11 259.89 242.82 258.21 241.55 256.54 241.26 253.11 240.26 252.44 238.13 252.09 236.16 249.64 235.63 250.98 236.18 251.38 236.66 251.49 237.55 249.7 238.14 250.03 239.22 252.42 241.26 254.77 242.49 255.19 242.64 254.97 243.85 254.57 244.82 254.35 245.63 256.87 250.33 255.55 253.85 252.54 256.74 249.64 258.83 249.05 257.73 248.95 257.08 249.18 256.6 249.64 256.06 249.64 255.05 247.74 254.93 245.86 255.05 245.86 256.06 247.29 256.45 248.09 257.27 249.64 259.76 247.81 260.44 247.02 260.34 245.86 259.76 246.85 261.38 247.79 262.54 248.63 262.54 250.44 261.56 252.42 260.77 253 262.29 252.42 268.16 252.7 269.75 252.74 270.67 252.42 271.86 251.91 272.52 250.27 273.85 249.64 274.72 248.63 274.72 247.47 273.87 243.11 271.55 242.15 271.4 241.42 269.7 239.73 269.07 236.61 269.09 225.4 265.98 221.72 266.31 221.17 264.75 220.26 263.38 219.18 262.33 218.11 261.69 214.98 262.47 210.97 262.12 207.95 260.84 207.77 258.83 208.91 258.47 211.44 257.15 212.96 255.72 207.64 254.18 206.15 254.62 206 256.98 202.88 254.76 201.29 254.21 201.29 253.28 202.17 252.09 201.43 250.96 200.18 249.73 199.52 248.24 199.75 246.01 200.36 244.56 202.3 242.18 202.3 241.26 201.33 240.62 200.34 240.37 199.39 240.56 198.51 241.26 197.68 241.26 196.66 240.33 196.66 239.32 197.92 238.3 197.91 237.32 196.81 236.67 194.82 236.64 195.23 234.57 195.36 232.31 196.14 231.03 198.51 231.92 198.16 230.72 197.61 229.87 195.74 228.22 196.37 227.21 196.14 225.24 196.66 223.59 195 224.27 194.22 224.07 193.98 224.2 193.97 225.91 194.62 227.79 194.83 228.8 194.39 229.23 193.38 229.08 192.68 228.62 192.26 227.89 192.12 226.88 191.67 225.39 189.28 222.11 Z" fill-rule="evenodd" id="PAN-1341" data-name="Veraguas"/>
<path d="M 727.3 117.09 726.05 117.19 723.2 116.52 719.88 116.96 716.9 118.46 715.67 120.22 714.07 121.47 711.89 121.84 709.78 122.45 707.88 124.73 706.33 127.61 702.23 133.31 699.58 134.82 698.02 137.52 698.46 140.3 699.39 142.65 701.1 144.73 702.95 146.43 703.32 148.94 702.43 150.51 702.47 150.85 702.47 151.08 702.79 151.6 704.49 153.26 705.79 153.76 707.3 154.19 707.71 155.07 707.3 155.73 707.28 156.47 710.68 159.99 711.33 161.31 711.52 162.81 711.05 164.26 710.59 165.2 710.43 166.23 710.38 167.37 712.73 170.96 713.1 172.79 713.64 174.55 714.5 175.66 715.79 176.86 716.59 177.79 717.56 179.25 717.79 179.72 717.75 180.46 718.61 181.67 719.98 182.34 720.8 182.45 721.51 182.78 721.56 183.79 721.43 184.87 721.99 186.75 723.46 187.73 727.41 188.69 731.22 190.51 736.37 194.69 738.83 200.47 738.32 202.67 739.65 204.75 742.39 205.58 743.64 206.76 746.26 210.25 748.15 210.68 750.67 209.19 753.52 208.73 754.36 209 755.22 209.16 758.36 208.65 759.81 208.05 760.8 206.84 761.63 205.62 763.5 204.45 766.31 203.69 769.18 203.22 784.54 199.05 784.62 199.02 785.88 200.88 789.81 208.37 792.72 218.94 792.97 222.21 793.86 224.18 795.17 225.42 796.62 226.47 797.94 227.85 799 229.97 798.22 230.54 793.2 230.48 789.13 231.33 784.58 232.84 780.42 235.01 777.55 237.86 774.08 245.61 770.09 250.66 769.65 252.31 771.46 256.28 774.24 258.9 775.09 261.41 771.11 264.99 752.11 276.74 745.94 282.92 742.54 285.64 739.47 285.96 738.03 284.41 736.38 277.64 735.35 275.85 731.6 270.78 731.24 270.53 730.09 270.25 729.69 269.89 729.7 269.38 730.26 268.17 730.32 267.82 729 266.32 722.23 260.58 720.83 259.83 717.58 261.61 716.73 266.59 717.36 272.35 718.58 276.54 721.64 282.47 722.05 285.38 720.83 288.86 718.81 291.37 716.22 292.91 713.23 293.38 710 292.66 705.28 307.72 699.75 325.38 699.65 325.35 696.64 324.49 692.73 320.97 686.93 313.74 684.76 312.18 683.69 311.03 683.22 309.5 683.53 308.08 684.07 306.67 684.31 305.27 683.69 303.91 682.91 303.33 682.54 303.58 682.26 304.11 681.84 304.41 680.78 303.98 680.47 303.12 680.74 302.41 681.37 302.48 679.75 300.01 678.87 299.52 677.59 300.62 676.76 300.62 673.48 296.91 671.33 294.98 669.73 294.15 669.29 293.56 668.95 292.27 668.31 290.95 666.96 290.37 666.11 289.77 665.44 288.42 664.56 285.74 663.72 285.74 663.13 287.77 662.83 286.45 662.7 281.7 662.03 279.27 660.6 278.73 659.29 279.81 659.01 282.21 658.27 280.43 658.5 279.17 658.99 277.98 659.01 276.49 658.5 275.07 657.94 274.29 656.31 272.88 653.43 269.18 651.45 267.68 648.83 267.33 649.15 265.84 648.57 264.72 647.41 263.95 646.06 263.54 647.35 260.95 648.04 259.09 647.95 257.33 646.99 255.05 642.91 248.86 642.27 247.31 641.01 242.98 638.06 239.33 634.7 236.08 632.18 232.93 630.42 228.76 629.32 224.44 629.27 222.8 629.59 221.25 629.32 219.9 626.89 215.54 626.54 213.85 627.27 211.29 628.86 208.82 630.45 207.9 632.02 212.27 633.97 213.12 636.15 212.8 637.73 211.49 641.58 213.49 646.83 210.81 651.47 205.82 653.46 200.88 653.21 198.12 652.48 196.42 651.32 195.22 649.76 193.92 645.8 189.34 644.21 188.36 644.21 187.35 647.89 187.74 649.04 187.55 650.76 186.52 650.76 185.5 649.98 185.12 649.58 184.72 649.3 184.26 648.83 183.65 649.91 183.22 650.23 183.17 650.76 181.8 651.91 182.56 653.46 184.01 654.38 184.57 655.57 184.9 656.61 184.87 658.58 184.57 658.8 184.04 660.45 181.76 660.85 181.38 660.65 177.66 660.85 176.25 661.24 176.01 663.72 173.47 664.29 172.22 664.53 171.03 664.56 168.35 665.13 167.62 666.41 167 667.69 166.83 668.26 167.42 668.93 172.36 669.26 173.47 670.6 174.6 672.83 175.81 675.25 176.78 677.17 177.18 678.72 178.05 679.88 180.1 682.26 186.56 683.59 188.34 685.29 189.63 687.34 190.13 687.99 189.86 689.42 189.43 690.88 189.5 691.93 191.42 692.87 192.15 694.07 192.69 695.25 192.9 697.1 192.9 697.1 192.06 695.02 191.61 693.12 190.51 691.61 189 690.71 187.35 697.48 188.64 701.08 189.95 703.38 192.55 706.63 194.3 707.36 195.26 707.49 197.27 707.92 198.7 708.77 199.69 710.13 200.38 711.59 199.56 713.1 200.38 714.28 202.24 714.76 204.55 715.69 206.06 717.8 206.59 719.99 205.98 721.24 204.09 717.46 204.12 712.48 198.12 710.13 198.54 703.17 189.8 701.8 188.78 699.81 187.67 687.77 185.5 684.83 184.35 682.5 182.39 680.93 179.79 680.36 176.72 677.41 170.81 676.55 167.18 678.6 165.16 677.14 164.2 675.5 162.87 673.99 161.27 672.88 159.52 672.29 157.28 672.69 156.01 673.44 155.1 673.9 153.97 673.7 152.27 672.92 151.84 671.7 151.56 670.19 150.27 669.53 148.75 669.39 147.46 668.96 146.41 667.42 145.64 667.97 146.89 668.08 150.3 668.77 151.61 670.57 152.78 671.25 152.91 671.3 153.32 671.2 157.78 671.44 158.97 673.32 163.37 673.5 164.79 672.88 166.08 672.04 166.08 669.48 161.79 667.83 159.68 666.5 158.59 664.39 158.58 662.58 159.74 661.33 161.85 660.85 164.69 660.05 166.77 658.03 168.37 655.48 169.41 653.04 169.78 651.88 169.32 651.38 168.27 651.35 167.04 651.61 166.08 652.39 165.16 656.31 163.22 656.84 163.67 657.21 163.89 658.17 164.23 658.33 159.78 657.63 155.66 655.39 148.34 654.38 148.34 653.43 150.27 654.09 151.51 655.38 152.57 656.31 153.97 656.12 156.37 655.07 158.3 654.41 159.9 655.39 161.37 655.39 162.38 654.96 162.68 654.5 162.89 653.46 163.22 652.87 162.13 652.05 161.52 651.28 161.07 650.76 160.53 650.32 159.33 650.55 159.2 651.09 159.24 651.61 158.59 653.07 155.99 652.91 154.71 650.76 153.97 651.41 155.66 651.12 156.46 650.4 156.93 649.76 157.66 647.91 161.37 645.73 161.69 644.54 160.19 643.28 155.82 642.27 156.83 642.14 158.57 640.27 161.29 637.81 163.63 635.88 164.23 634.63 161.95 633.22 153.94 632.18 151.2 632.7 150.28 633.02 149.35 632.18 149.35 632.18 150.27 631.18 150.27 631.18 147.49 630.33 147.49 629.81 150.82 632.28 157.54 633.6 164.03 636.14 166.11 636.73 168.35 633.02 176.25 632.48 175.08 631.51 174.48 630.38 174.05 630.13 173.92 629.65 167.88 627.43 160.01 627.05 157.03 625.31 152.87 624.79 149.46 624.95 147.73 624.49 146.72 624 146.34 623.52 145.82 623.61 144.7 624.38 140.71 624.92 135.2 625.34 133.19 625.81 131.64 626.62 130.1 627.14 128.64 627.62 126.55 627.54 124.94 626.92 121.7 626.44 120.36 624.88 112.55 624.51 110.69 625.21 109.92 626.18 109.29 632.39 107.2 634.28 107.29 636.55 107.71 639.82 108.88 640.69 109.65 642.05 111.72 643.77 112.45 645.04 112.12 646.3 111.19 646.91 110.03 647.06 108.89 647.56 107.59 648.88 106.22 652.76 104.41 655.58 103.83 657.86 103.75 660.45 103.96 661.93 103.61 663 102.83 664.77 99.85 667.05 97.88 669.42 96.81 672.79 96.04 674.25 95.15 674.91 93.88 674.57 91.85 674.51 89.41 674.81 86.11 675.43 83.58 676.35 81.57 679.11 77.96 679.87 76.34 683.56 76.34 693.48 83.45 697.57 86.67 705.06 94.22 706.44 96.52 707.26 98.27 708.17 99.76 709.53 100.7 711.82 101.74 715.55 104.34 717.58 105.35 719.23 106.57 724.6 111.48 726.13 113.32 726.98 115.24 727.3 117.09 Z M 655.05 223.85 650.76 222.28 647.96 224.08 645.55 226.38 643.18 226.56 641.02 227.2 640.32 229.18 640.98 230.4 640.59 233.13 640.78 236.26 641.31 238.03 642.12 239.64 643.51 240.44 644.46 240.76 647.08 246.21 649.12 252.62 652.43 258.2 658.95 265.39 661.31 267.09 666.9 265.46 669.21 266.75 671.27 268.28 673.44 268.88 674.63 269.86 675.82 275.73 679.09 277.31 680.46 274.93 683.08 273.54 685.02 275.15 686.87 277.26 689.92 275.72 692.45 273.39 693.12 268.94 691.61 257.08 692.12 255.78 692.62 253.99 692 251.66 690.83 249.6 689.57 249.12 688.21 248.3 687.63 244.01 683.44 231.04 680.89 228.4 677.61 231.05 674.38 232.89 673.19 225.45 671.85 224.69 670.51 223.55 669.62 219.55 668.37 217.79 667.05 216.35 662.96 210.64 660.78 209.07 658.53 210.81 655.09 212.35 654.78 214.94 656.81 215.98 657.15 217.14 656.93 218.41 657.75 220.01 658.27 221.58 655.05 223.85 Z" fill-rule="evenodd" id="PAN-1418" data-name="Darién"/>
<path d="M 727.3 117.09 726.98 115.24 726.13 113.32 724.6 111.48 719.23 106.57 717.58 105.35 715.55 104.34 711.82 101.74 709.53 100.7 708.17 99.76 707.26 98.27 706.44 96.52 705.06 94.22 697.57 86.67 693.48 83.45 683.56 76.34 679.87 76.34 676.82 71.65 675.83 70.98 674.35 70.18 665 67.97 664.12 67.3 663.85 66.56 665.25 64.42 665.88 62.85 665.2 59.94 664.14 58.75 663.2 58.39 662.66 58.86 662.42 59.48 662.06 60.15 661.47 60.51 660.34 60.6 657.3 60.15 653.84 60.1 650.82 60.4 649.77 59.7 648.95 58.5 647.64 54.88 647.04 52.58 646.47 51.61 645.59 51.39 640.76 53.75 639.71 54.08 638.63 54.01 636.04 53.5 632.14 53.66 630.26 53.25 629.5 52.67 629.16 51.74 629.3 50.77 629.2 49.74 628.77 48.47 628.09 47.32 627.33 46.71 626.33 46.35 625.79 45.83 625.31 45.01 624.81 43.96 623.63 42.85 622.63 42.76 621.69 43.28 620.67 44.08 619.73 44.43 619.15 44.04 618.56 41.7 617.87 40.47 616.15 38.88 614.94 38.67 614.05 39.12 612.86 40.87 612.2 41.36 605.09 43.02 602.98 43.21 600.59 42.71 598.68 41.52 593.91 37.88 590.95 36.03 589.48 35.56 588.78 35.96 588.49 38.33 587.95 39.24 586.98 39.58 585.14 38.74 582.83 36.32 581.93 35.92 581.23 35.93 580.26 36.05 579.74 36.37 578.94 37.02 577.8 37.66 576.03 37.93 571.83 37.34 569.52 37.36 567.58 37.57 566.64 38.06 564.95 39.59 563.68 40.03 561.62 40.05 560.13 39.48 559.26 39.34 558.66 39.58 558.56 40.16 558.6 41.09 558.36 41.85 557.51 42.27 556.1 41.82 554.94 41.7 553.84 41.86 550.55 43.29 549.77 43.9 549.39 44.75 549.59 45.62 550.06 46.41 550.4 47.19 550.4 47.76 549.85 48.26 548.64 48.65 542.46 48.82 540.42 48.68 539.55 48.02 538.63 47 537.46 45.95 534.52 44.76 532.72 44.38 530.74 44.25 528.92 44.28 527.05 44.56 517.75 47.45 513.29 48.39 512.21 47.44 512.07 46.56 512.35 45.16 513.23 43.68 514.1 42.69 516.69 41.45 517.16 42.83 517.73 42.84 520.3 40.8 524.05 38.48 526.27 37.46 528.87 36.59 530.09 35.86 530.9 35.07 531.3 34.3 531.55 33.43 531.78 31.32 532.24 30 533.77 27.8 534.89 26.72 536.3 25.85 537.21 25.6 538.36 25.46 539.46 25.16 539.99 24.31 540.05 12.92 540.05 10.11 543.59 9.82 548.4 9 554.14 8.58 555.94 9.67 555.93 11.2 553.6 12.46 551.93 12.13 550.58 13.14 549.09 13.26 544.97 13.75 542.72 14.19 541.23 16.66 541.6 19.83 542.29 24.22 544.66 24.99 546.86 24.49 548.27 25.13 550.01 24.82 551.75 24.57 553.23 24.33 554.71 24.65 556.58 24.66 558.95 25.62 560.36 26.07 561.58 27.08 562.61 27.89 563.25 28.96 564.28 28.76 566.02 28.64 567.11 28.71 568.46 29.03 570.13 28.85 570.85 27.58 572.33 27.27 574.83 27.85 578.69 27.11 579.8 25.85 582.11 26.3 583.66 26.06 585.16 25.5 586.97 24.62 588.37 26.4 590.57 27.42 592.31 27.25 596.81 28.48 599.84 28.17 601.63 29.52 603.82 29.84 605.75 29.03 607.31 27.74 609.59 26.91 611.61 27.41 614.22 29.15 616.16 29.9 620.62 29.9 622.85 31.44 624.31 30.87 626.33 31.48 627.75 32.89 629.28 34.19 632.97 35.88 634.38 36.71 636.29 37.32 639.8 38.03 642.62 39.56 644.62 41.1 646.74 42.05 648.04 42.65 649.34 42.78 651.11 43.26 652.87 44.32 654.98 45.5 657.45 46.92 659.58 47.29 661.7 46.96 663 47.44 664.65 48.39 666.41 48.63 668.88 50.17 670.19 51.87 673.69 52.66 678.05 53.28 680.64 54.23 682.31 55.58 682.81 57.32 685.74 60.41 687.5 60.67 689.88 61.79 694.39 66.9 696.67 70.46 698.5 72.8 700.52 75.8 705.18 78.9 704.49 77.03 703.9 75.38 702.38 72.23 702.21 70.15 704.59 71.3 706.33 74.4 707.42 75.89 711.13 78.4 711.63 81.47 712.97 82.97 714.66 83.97 716.7 85.72 717.17 87.3 718.35 88.76 719.84 89.98 720.26 91.19 718.94 93.62 721.58 96.63 723.47 100.85 724.88 102.34 726.14 101.26 726.72 101.51 726.89 103.42 729.49 105.01 732.26 107.5 735.3 110.99 737.89 112.17 737.19 111.06 736.3 110.22 735.53 109.31 735.2 107.97 735.89 107.33 737.39 108.59 738.83 110.35 739.31 111.25 743.34 114.34 742.83 116.74 745.34 118.82 746.11 116.51 747.46 116.76 748.62 119.08 748.18 121.31 747.92 123.37 747.32 124.93 749.02 126.47 753.28 129.37 756.5 130.98 760.94 131.73 765.14 131.42 767.66 129.83 768.19 130.49 768.85 131.03 769.63 131.42 770.51 131.68 770.32 133.55 768.91 134.54 766.72 134.76 764.53 135.24 762.32 136.62 762.18 137.66 762.83 139.04 762.99 141.45 761.35 144.83 757.53 148.88 757.47 148.81 753.94 144.5 752.24 144.01 747.11 141.79 745.39 139.58 744.06 135.05 742.65 133.03 738.5 129.04 736.29 126.01 732.57 122.77 729.16 120.3 728.16 119.06 727.42 117.85 727.3 117.09 Z" id="PAN-1419" data-name="Kuna Yala"/>
<path d="M 141.04 67.63 140.03 68.25 139.25 68.02 138 67.18 136.91 66.49 136.21 65.41 136.29 64.34 137.3 62.88 136.6 62.19 136.67 61.58 137.53 61.96 138.08 62.8 138.85 63.26 139.79 63.34 140.26 64.49 140.57 65.41 141.5 65.79 142.51 66.25 142.28 67.09 141.04 67.63 Z M 118.97 39.4 120.07 39.64 121.21 39.52 122.49 38.93 123.82 39.57 127.03 42.54 130.46 44.1 132.14 45.25 133.59 47.17 130.97 46.8 128.23 47.88 126.06 49.91 124.89 53.02 124.24 52.78 122.78 51.25 122.84 51.14 123.14 51.05 123.34 50.44 123.34 47.34 122.83 46.12 121.48 45.32 121.48 44.47 123.34 45.32 122.11 42.48 120.08 41.5 117.6 41.02 115.01 39.77 115.01 38.93 115.77 38.27 116.47 38 117.14 38.19 117.78 38.93 118.97 39.4 Z M 110.95 40.45 110.37 41.54 108.52 38.41 105.66 35.49 99.19 30.43 102.83 27.69 105.02 26.8 107.6 26.73 111.35 32.24 112.29 35.68 110.37 37.91 110.37 38.93 110.97 39.58 111.16 39.93 110.95 40.45 Z M 142.78 93.5 142.78 93.51 142.56 94.14 141.55 97.18 139.01 98.71 135.45 99.47 129.86 99.47 125.8 99.72 123.26 100.99 121.48 103.79 120.72 106.84 119.45 107.34 118.43 105.82 117.67 102.27 117.16 100.99 115.38 99.98 115.13 97.44 116.65 96.42 117.16 94.13 116.4 92.36 113.1 90.32 108.27 89.31 106.75 88.04 105.73 86.52 102.93 86 100.14 84.99 99.88 82.96 100.65 80.93 102.68 79.4 104.46 77.12 105.73 75.34 104.71 74.83 101.92 73.81 100.9 72.8 101.66 70.76 101.15 69.24 99.88 68.98 97.85 71.02 96.08 74.57 95.82 77.88 92.26 80.93 90.48 82.7 85.91 84.48 84.13 86.26 85.66 87.78 88.45 88.8 93.53 90.58 96.58 93.12 98.36 96.42 98.87 99.22 97.85 101.25 96.58 105.57 95.57 109.63 94.52 112.17 83.28 107.05 77 105.06 71.93 104.82 70.43 101.87 68.96 100.66 66.78 99.84 59.03 99.43 49.84 100.58 46.89 97.61 46.13 97.07 46.24 96.89 45.7 95.62 42.2 89.77 40.37 88.56 34.2 86.48 27.98 81.93 24.94 80.58 24.14 80.12 23.54 79.28 23.16 78.22 22.67 77.19 21.73 76.5 20.48 76.5 16.43 78.19 16.41 76.69 16.12 54.5 15.91 38.26 15.76 27.03 16.11 24.43 17.25 22.54 19.78 21.65 27.01 20.67 29.03 19.53 29.24 18.42 28.62 18.05 27.73 17.78 27.15 17 26.22 13.28 24.57 10.4 24.83 9.14 26.36 6.99 28.88 4.88 31.38 4.6 39.23 7.7 44.88 12.43 46.19 12.92 47.28 12.42 48.66 13.97 50.39 17.24 51.83 18.82 53.17 19.44 55.54 20.16 58.05 20.59 59.85 20.32 60.73 18.59 61.3 13.39 62.26 11.92 64.32 12.25 66.39 13.34 67.44 13.27 65.99 8.19 67.57 9.16 80.61 19.33 88.61 27.29 93.71 30.04 97.26 27.66 96.95 29.97 96.33 31.79 92.65 38.14 92.29 39.68 92.72 41.54 93.87 42.8 95.41 43.8 96.53 44.86 96.42 46.33 94.59 47.76 91.18 47.5 90.86 49.02 90.19 50.07 90.36 50.75 91.02 51.02 91.8 50.87 93.14 51.77 94.32 53.35 95.18 55.17 95.49 56.89 96.2 58.18 101.05 61.13 101.97 61.13 102.99 59.56 104.65 59.36 105.43 58.88 103.83 56.41 105.63 56.91 106.31 58.29 106.7 59.91 107.6 61.13 109.08 61.52 110.11 60.92 110.58 59.49 110.37 57.34 111.31 57.34 111.43 59.13 112.39 60.01 113.48 60.14 114 59.66 114.06 57.99 114.32 56.79 114.91 56.45 115.93 57.34 116.06 56.92 116.06 56.56 116.22 56.36 116.86 56.41 117.12 57.65 117.49 58.61 118.01 59.39 118.71 60.12 119.63 60.12 119.63 59.19 120.56 59.19 120.2 61.23 120.44 64.93 119.63 66.59 115.5 64.07 113.34 63.27 109.88 62.98 108.37 64.03 107.96 66.4 108.37 68.93 109.37 70.46 109.37 71.3 108.62 70.99 106.6 70.46 107.33 72.39 110.57 74.08 111.31 75.51 110.37 84.34 109.76 84.2 109.35 84.05 108.99 83.82 108.45 83.42 110.77 85.65 114.05 87.16 117.32 87.49 119.63 86.18 124.49 87.76 126.22 88.78 126.19 89.89 128.2 92.93 128.88 93.67 129.2 94.13 129.42 95.04 129.89 95.52 130.45 95.66 131.96 95.51 134.54 95.64 140.99 93.67 142.78 93.5 Z" fill-rule="evenodd" id="PAN-1958" data-name="Bocas del Toro"/>
<path d="M 202.57 71.97 203.32 72.17 203.62 71.88 204.25 71.93 205.04 72.34 205.76 72.84 206.3 73.38 206.47 73.87 206.85 74.25 206.77 74.62 206.18 74.62 205.5 74.29 204.37 74.12 202.98 73.95 202.36 73.95 201.73 74.12 201.56 73.25 201.27 72.63 200.97 72.09 201.23 71.68 202.19 71.59 202.57 71.97 Z M 249.9 114.49 249.93 114.95 249.93 115.67 249.01 119.08 250.56 129.09 250.12 137.31 250.66 142.31 251.47 145.16 252.64 146.91 253.67 148.03 254.28 149.16 254.76 150.4 255.93 152.51 258.04 154.61 254.31 155.44 253.16 155.44 251.65 155.06 248.68 153.87 243.2 152.43 240.93 150.99 234.67 146.14 233.46 145.84 229.94 146.56 223.56 146.07 222.93 144.78 222.11 144.26 220.6 143.61 216.43 142.62 212.98 140.87 212.75 146.43 211.53 151.82 208.39 159.36 207.96 161.61 207.83 163.59 208.39 170.35 204.96 169.49 198.96 171.36 196.57 174.62 194.64 179.24 193.34 181.49 190.32 183.56 186.99 184.16 185.75 181.52 183.72 181.78 182.19 184.07 180 186.23 172.92 185.97 168.98 182.79 166.73 178.6 163.14 177.46 150.59 177.33 144.09 175.68 141.29 171.49 140.79 167.3 138.72 165.11 136.47 161.2 134.96 159.22 133.67 158.41 132.36 158.83 130.12 159.68 125.7 160.88 121.48 160.95 119.29 159.71 119.95 156.38 124.34 146.24 123 144.69 122.49 141.83 123.51 137.83 124.78 126.4 122.94 118.42 122.72 118.42 117.12 117.21 116.06 117.09 114.15 117.37 113.42 117.56 109.71 117.11 105.53 116.47 103.08 115.78 100.64 114.56 94.77 112.28 94.52 112.17 95.57 109.63 96.58 105.57 97.85 101.25 98.87 99.22 98.36 96.42 96.58 93.12 93.53 90.58 88.45 88.8 85.66 87.78 84.13 86.26 85.91 84.48 90.48 82.7 92.26 80.93 95.82 77.88 96.08 74.57 97.85 71.02 99.88 68.98 101.15 69.24 101.66 70.76 100.9 72.8 101.92 73.81 104.71 74.83 105.73 75.34 104.46 77.12 102.68 79.4 100.65 80.93 99.88 82.96 100.14 84.99 102.93 86 105.73 86.52 106.75 88.04 108.27 89.31 113.1 90.32 116.4 92.36 117.16 94.13 116.65 96.42 115.13 97.44 115.38 99.98 117.16 100.99 117.67 102.27 118.43 105.82 119.45 107.34 120.72 106.84 121.48 103.79 123.26 100.99 125.8 99.72 129.86 99.47 135.45 99.47 139.01 98.71 141.55 97.18 142.56 94.14 142.78 93.51 142.78 93.5 144.01 93.38 145.7 94.07 147.12 95.04 149.31 95.52 151.29 95.05 153.26 93.87 154.43 92.34 154.03 90.81 155.56 90.18 156.74 90.17 158.65 90.81 158.92 91.33 160.22 92.46 161.67 93.13 162.34 92.25 163.71 91.91 171.68 95.52 174.11 94.35 174.78 92.02 174.29 86.6 165.12 81.48 160.35 74.43 159.11 73.23 157.34 72.46 154.83 70.68 152.72 68.75 152.18 67.52 154.26 67.55 157.7 68.41 160.92 68.71 162.34 67.05 157.96 65 155.85 63.48 156.8 61.97 159.58 61.94 161.93 63.68 165.12 67.52 168.25 69.85 168.82 70.46 168.62 71.62 167.52 71.97 166.14 71.76 165.12 71.3 165.12 72.23 166.23 73.55 167.3 74.7 167.97 76.69 168.97 77.07 170.76 77.07 173.94 77.46 175.95 77.62 179.35 81.26 181.48 81.92 183.47 86.37 184.13 87.03 186.04 88.4 194.16 99.93 199.61 105.72 202.3 107.46 203.1 108.7 204.56 110.26 206.15 111.6 207.34 112.17 208.53 112.44 210.99 113.23 212.63 113.22 215.03 112.46 222.08 113.84 223.71 113.34 227.49 113.34 230.68 115.37 237.93 115.81 243.11 114.81 249.9 114.49 Z" fill-rule="evenodd" id="PAN-3454" data-name="Ngöbe Buglé"/>
<path d="M 670.51 223.55 671.85 224.69 673.19 225.45 674.38 232.89 677.61 231.05 680.89 228.4 683.44 231.04 687.63 244.01 688.21 248.3 689.57 249.12 690.83 249.6 692 251.66 692.62 253.99 692.12 255.78 691.61 257.08 693.12 268.94 692.45 273.39 689.92 275.72 686.87 277.26 685.02 275.15 683.08 273.54 680.46 274.93 679.09 277.31 675.82 275.73 674.63 269.86 673.44 268.88 671.27 268.28 669.21 266.75 666.9 265.46 661.31 267.09 658.95 265.39 652.43 258.2 649.12 252.62 647.08 246.21 644.46 240.76 643.51 240.44 642.12 239.64 641.31 238.03 640.78 236.26 640.59 233.13 640.98 230.4 640.32 229.18 641.02 227.2 643.18 226.56 645.55 226.38 647.96 224.08 650.76 222.28 655.05 223.85 658.27 221.58 657.75 220.01 656.93 218.41 657.15 217.14 656.81 215.98 654.78 214.94 655.09 212.35 658.53 210.81 660.78 209.07 662.96 210.64 667.05 216.35 668.37 217.79 669.62 219.55 670.51 223.55 Z M 757.53 148.88 756.04 150.45 754.91 154.47 754.91 157.57 756.13 158.36 760.21 157.98 762.5 158.73 763.9 159.91 766.14 163.7 768.11 168.42 769.23 177.72 770.4 182.55 771.91 184.88 773.63 185.51 775.44 185.62 777.18 186.35 778.19 187.76 781.13 193.9 784.62 199.02 784.54 199.05 769.18 203.22 766.31 203.69 763.5 204.45 761.63 205.62 760.8 206.84 759.81 208.05 758.36 208.65 755.22 209.16 754.36 209 753.52 208.73 750.67 209.19 748.15 210.68 746.26 210.25 743.64 206.76 742.39 205.58 739.65 204.75 738.32 202.67 738.83 200.47 736.37 194.69 731.22 190.51 727.41 188.69 723.46 187.73 721.99 186.75 721.43 184.87 721.56 183.79 721.51 182.78 720.8 182.45 719.98 182.34 718.61 181.67 717.75 180.46 717.79 179.72 717.56 179.25 716.59 177.79 715.79 176.86 714.5 175.66 713.64 174.55 713.1 172.79 712.73 170.96 710.38 167.37 710.43 166.23 710.59 165.2 711.05 164.26 711.52 162.81 711.33 161.31 710.68 159.99 707.28 156.47 707.3 155.73 707.71 155.07 707.3 154.19 705.79 153.76 704.49 153.26 702.79 151.6 702.47 151.08 702.47 150.85 702.43 150.51 703.32 148.94 702.95 146.43 701.1 144.73 699.39 142.65 698.46 140.3 698.02 137.52 699.58 134.82 702.23 133.31 706.33 127.61 707.88 124.73 709.78 122.45 711.89 121.84 714.07 121.47 715.67 120.22 716.9 118.46 719.88 116.96 723.2 116.52 726.05 117.19 727.3 117.09 727.42 117.85 728.16 119.06 729.16 120.3 732.57 122.77 736.29 126.01 738.5 129.04 742.65 133.03 744.06 135.05 745.39 139.58 747.11 141.79 752.24 144.01 753.94 144.5 757.47 148.81 757.53 148.88 Z" fill-rule="evenodd" id="PAN-3455" data-name="Emberá"/>
</g>
</svg>