<?xml version="1.0"?>
<svg xmlns="http://www.w3.org/2000/svg" version="1.2" baseProfile="tiny" width="800" height="1007" viewBox="0 0 800 1007" stroke-linecap="round" stroke-linejoin="round">
<g id="ne_10m_admin_1_states_provinces">
<path d="M 639 34.86 663.95 88.92 706.92 119.51 755.83 133.08 798.41 136.15 799 164.66 763.75 228.72 689.1 335.45 603.56 412.08 448.91 507.92 388.52 569.5 354.26 670.09 331.68 897.61 272.08 986.32 229.31 1004.14 179.41 1006.12 138.42 992.16 113.47 948.2 80.21 906.32 72.48 894.25 57.63 802.07 49.91 785.73 38.23 771.48 23.97 760.19 6.15 752.27 31.1 727.81 46.94 702.76 55.26 671.68 57.63 628.51 52.88 608.41 40.6 583.36 26.74 562.08 1 543.36 11.89 524.95 30.9 514.45 41 527.32 74.66 524.06 221.59 440.59 255.45 411.09 388.52 335.45 414.46 310.1 436.63 280.8 456.04 245.55 507.13 82.38 522.77 52.98 551.48 26.25 591.08 3.67 624.94 1 639 34.86 Z" id="GUM+00?" data-name="Guam"/>
</g>
</svg>