<?xml version="1.0"?>
<svg xmlns="http://www.w3.org/2000/svg" version="1.2" baseProfile="tiny" width="800" height="352" viewBox="0 0 800 352" stroke-linecap="round" stroke-linejoin="round">
<g id="ne_10m_admin_1_states_provinces">
<path d="M 672.9 243.36 663.8 278.31 671.59 346.55 652.83 342.01 643.27 342.88 617.85 350.51 611.74 350.31 606.55 348.67 602.98 345.39 601.62 340.41 599.14 335.34 593.3 332.93 581.39 330.27 570.84 324.77 561.5 321.63 551.94 320.86 555.59 286.36 557.87 264.73 552.44 244.36 549.67 204.83 563.53 205.45 575.18 207.96 576.88 240.28 589.11 243 588.59 210.86 672.9 243.36 Z" id="WSM-4984" data-name="Tuamasaga"/>
<path d="M 454.66 238.93 446.51 243 432.35 237.8 439.21 228.58 448.71 225.23 454.66 238.93 Z M 555.59 286.36 541.58 285.1 539.14 322.52 528.54 323.9 518.09 323.56 508.89 320.42 500.37 314.05 487.96 294.88 481.73 287.83 476.03 289.71 471.97 289.71 461.61 275.23 454.66 271.02 441.24 269.43 481.82 244.36 469.74 217.81 486 212.06 536.44 204.24 549.67 204.83 552.44 244.36 557.87 264.73 555.59 286.36 Z" fill-rule="evenodd" id="WSM-4985" data-name="A&apos;ana"/>
<path d="M 441.24 269.43 429.14 264.07 427.57 251.52 432.35 237.8 446.51 243 454.66 238.93 448.71 225.23 469.74 217.81 481.82 244.36 441.24 269.43 Z" id="WSM-4986" data-name="Aiga-i-le-Tai"/>
<path d="M 671.59 346.55 663.8 278.31 672.9 243.36 698.59 246.25 711.5 250.84 703.18 264.73 709.97 266.09 721.93 258.47 727.94 269.43 726.98 275.47 711.33 276.95 707.26 301.4 727.63 309.54 750.71 305.47 771.08 314.98 780.22 301.59 799 323.37 792.77 342.01 794.49 344.32 797.19 350.51 782.1 351.08 740.11 346.84 715.03 349.1 703.39 348.09 691.13 342.01 681.44 347.13 671.59 346.55 Z" id="WSM-4987" data-name="Atua"/>
<path d="M 720.48 283.05 723.89 289.71 750.47 286.96 780.22 301.59 771.08 314.98 750.71 305.47 727.63 309.54 707.26 301.4 711.33 276.95 726.98 275.47 723.02 279.04 720.48 283.05 Z M 721.93 258.47 709.97 266.09 703.18 264.73 711.5 250.84 721.93 258.47 Z" fill-rule="evenodd" id="WSM-4988" data-name="Va&apos;a-o-Fonoti"/>
<path d="M 346.06 77.97 348.12 84.25 349.25 90.62 349.71 104.29 352.46 115.63 357.72 122.54 361.13 130.02 358.18 143.16 352.22 152.38 345.41 159.62 339.86 168.17 337.59 181.89 339.35 195.5 338.99 201.63 325.65 184.61 314.79 175.1 280.84 105.84 288.98 59.67 333.17 57.69 333.7 60.2 332.69 66.91 333.17 69.52 336.28 72.18 343.53 75.07 346.06 77.97 Z" id="WSM-4989" data-name="Fa&apos;asaleleaga"/>
<path d="M 539.14 322.52 541.58 285.1 555.59 286.36 551.94 320.86 539.14 322.52 Z M 588.59 210.86 589.11 243 576.88 240.28 575.18 207.96 588.59 210.86 Z M 280.84 105.84 259.19 105.29 233.34 104.62 219.59 104.27 248.09 1 260.98 1.1 274.07 3.41 286.89 9.11 298.91 19.25 333.17 57.69 288.98 59.67 280.84 105.84 Z" fill-rule="evenodd" id="WSM-4990" data-name="Gaga&apos;emauga"/>
<path d="M 90.46 82.32 86.2 36.15 100.23 28.62 106.97 26.88 120.1 25.72 127.61 23.89 143.62 15.87 150.5 13.55 197.24 13.55 209.34 11.72 234.4 3.46 248.09 1 219.59 104.27 121.95 101.77 90.46 82.32 Z" id="WSM-4991" data-name="Gaga&apos;ifomauga"/>
<path d="M 86.2 36.15 90.46 82.32 75.77 73.25 47.94 92.26 38.88 84.05 37.02 81.11 36.35 74.88 34.83 71.69 31.45 69.86 23.6 70.53 20.48 69.52 13.7 61.65 4.62 48.03 1 35.09 10.51 29.3 30.79 29.3 52.89 37.41 73.02 37.99 86.2 36.15 Z" id="WSM-4992" data-name="Vaisigano"/>
<path d="M 276.41 184.01 255.01 191.57 233.34 104.62 259.19 105.29 276.41 184.01 Z M 121.95 101.77 104.02 137.61 95.96 134.47 89.73 130.99 76.98 111.58 69.3 102.5 53.95 96.71 47.94 92.26 75.77 73.25 90.46 82.32 121.95 101.77 Z" fill-rule="evenodd" id="WSM-4993" data-name="Satupa&apos;itea"/>
<path d="M 276.41 184.01 259.19 105.29 280.84 105.84 314.79 175.1 325.65 184.61 338.99 201.63 335.37 204.24 321.29 204.1 315.09 202.79 308.83 199.9 299.49 192.07 294.64 186.23 288.79 183.14 276.41 184.01 Z M 104.02 137.61 121.95 101.77 219.59 104.27 233.34 104.62 255.01 191.57 246.61 194.54 154.92 204.24 149.15 200.23 143.06 192.32 138.33 187.73 128.7 182.56 124.09 178.99 122.11 173.77 120.87 168.32 115.3 156.44 114.02 149.24 111.05 142.1 104.02 137.61 Z" fill-rule="evenodd" id="WSM-4994" data-name="Palauli"/>
</g>
</svg>