<?xml version="1.0"?>
<svg xmlns="http://www.w3.org/2000/svg" version="1.2" baseProfile="tiny" width="800" height="1287" viewBox="0 0 800 1287" stroke-linecap="round" stroke-linejoin="round">
<g id="ne_10m_admin_1_states_provinces">
<path d="M 790.95 1182.69 784.06 1191.89 777.16 1189.59 767.96 1187.29 755.32 1189.59 746.13 1194.19 738.08 1179.25 741.53 1170.05 735.78 1162 739.23 1153.96 750.72 1155.11 762.22 1156.26 784.06 1159.71 793.25 1168.9 790.95 1182.69 Z M 793.25 1124.07 778.31 1133.27 770.26 1122.92 766.82 1113.73 771.41 1105.68 799 1106.83 793.25 1124.07 Z M 764.52 1022.92 759.92 1039.01 746.13 1057.4 732.33 1073.5 741.53 1081.54 755.32 1095.34 748.42 1104.53 726.58 1099.93 716.24 1106.83 701.3 1119.47 694.4 1126.37 702.45 1150.51 716.24 1167.75 719.69 1179.25 707.04 1183.84 700.15 1195.34 697.85 1210.28 708.19 1217.18 716.24 1227.52 704.74 1237.87 694.4 1253.96 685.2 1270.05 689.8 1281.55 684.05 1286.15 663.36 1276.95 649.57 1257.41 656.47 1240.17 670.26 1211.43 669.11 1194.19 669.11 1168.9 653.02 1152.81 654.17 1136.72 656.47 1114.88 663.36 1090.74 681.76 1064.3 705.89 1037.86 716.24 1028.67 731.18 1030.97 746.13 1020.62 764.52 1011.43 764.52 1022.92 Z M 747.27 979.24 727.73 986.14 718.54 972.34 732.33 966.6 744.98 967.75 747.27 979.24 Z M 262.47 288.95 344.08 312.95 365.68 300.95 429.22 348.84 437.08 426.88 433.09 587.11 406.04 787.25 389.63 826.94 336.86 905.06 336.56 905.36 324.44 850.45 303.75 790.21 275.07 731.53 238.71 681.05 159.48 600.12 146.18 549.87 146.18 549.79 181.66 488.82 191.56 462.36 201.46 435.9 245.67 437.76 288.87 420.96 274.47 334.56 262.47 288.95 Z" fill-rule="evenodd" id="BHR-4926" data-name="Al Janūbīyah"/>
<path d="M 75.09 277.85 78.99 305.15 45.84 297.35 10.75 299.3 1 270.05 4.9 233.01 32.19 205.71 51.69 211.56 71.19 221.31 71.19 252.51 75.09 277.85 Z M 262.47 288.95 274.47 334.56 288.87 420.96 245.67 437.76 201.46 435.9 201.46 435.83 191.12 367.54 163.47 300.36 132.58 251.43 125.19 229.55 126.37 199.84 147.51 113.96 160.81 92.82 184.32 82.48 184.61 82.55 186.39 82.55 225.11 83.51 221.67 130.55 281.67 135.35 311.73 170.28 257.67 180.95 236.07 200.15 262.47 288.95 Z" fill-rule="evenodd" id="BHR-4927" data-name="Ash Shamālīyah"/>
<path d="M 311.73 170.28 390.07 231.92 408.48 205.71 435.77 186.22 447.47 213.51 459.17 256.41 482.57 258.36 464.12 279 463.07 312.95 426.44 321.2 429.22 348.84 365.68 300.95 344.08 312.95 262.47 288.95 236.07 200.15 257.67 180.95 311.73 170.28 Z" id="BHR-4928" data-name="Al Wusţá"/>
<path d="M 311.73 170.28 281.67 135.35 221.67 130.55 225.11 83.51 247.73 87.73 276.85 99.7 300.5 109.45 300.65 109.38 375.44 82.63 387.41 89.72 394.95 113.44 408.25 129.85 412.25 137.32 416.24 144.71 416.24 144.78 406.04 164.07 388.89 168.36 337.16 161.85 311.73 170.28 Z" id="BHR-4929" data-name="Al Manāmah"/>
<path d="M 402.63 16.6 459.17 1 500.11 20.5 502.06 47.79 502.06 75.09 529.36 110.18 552.75 119.93 543.01 145.27 533.26 155.02 504.01 139.43 496.21 114.08 486.47 88.73 461.12 82.89 437.72 78.99 422.13 84.84 398.73 45.84 402.63 16.6 Z" id="BHR-4930" data-name="Al Muḩarraq"/>
</g>
</svg>