<?xml version="1.0"?>
<svg xmlns="http://www.w3.org/2000/svg" version="1.2" baseProfile="tiny" width="800" height="614" viewBox="0 0 800 614" stroke-linecap="round" stroke-linejoin="round">
<g id="ne_10m_admin_1_states_provinces">
<path d="M 248.52 154.41 250.32 163.06 250.32 165.36 249.18 168.87 249.34 169.88 251.1 171.63 267.3 180.77 269.53 181.54 279.06 182.74 280.79 183.25 282.51 184.03 282.32 187.92 280.43 194.38 268.28 221.31 268.71 223.54 270.74 226.95 270.93 228.65 270.23 230.44 267.92 232.06 264.16 233.88 254.82 246.62 252.58 248.34 250.43 249.31 248.56 249.68 246.88 250.23 245.98 251.45 246.14 252.99 248.09 255.53 249.77 256.77 252.63 258.39 253.21 259.34 253.1 260.42 252 261.71 250.63 262.57 247.46 264.14 246.8 265.15 246.8 266.93 247.23 269.76 250.43 275.62 248.52 278.53 233.74 276.04 228.23 274.06 223.64 271.35 222.47 270.88 221.1 270.5 216.96 268.69 215.52 267.26 214.15 266.15 212.27 265.58 209.53 265.65 204.41 266.62 201.52 267.85 199.37 269.02 197.92 269.59 196.27 269.57 194.47 268.67 192.32 266.58 191.34 265.85 190.09 265.44 188.65 265.19 187.09 265.06 185.56 265.22 184.04 266.21 183.84 267.71 184.23 269.42 185.56 273.17 185.76 275.6 182.85 277.86 177.46 279.56 147.55 279.4 145.63 278.9 143.68 277.94 139.8 275.47 135.89 271.98 133.51 270.86 123.88 268.25 120.33 266.67 113.92 262.57 112.9 262.1 111.07 261.6 104.49 260.61 102.22 259.9 100.85 259.17 97.73 255.4 96.58 254.51 95.22 254.42 93.5 255.02 91 257.33 89.51 259.02 87.87 260.29 86.15 260.46 83.48 259.36 81.61 258.23 79.5 257.92 77.46 258.59 71.64 262.7 65.34 265.61 65.03 265.63 61.4 259.2 50.19 248.02 43.38 243.11 40.8 239.17 42.52 235.04 44.67 232.23 48.42 222.61 52.78 223.07 53.84 222.75 54.93 221.98 56.82 219.99 58.58 218.72 63.74 216.44 65.53 215.18 66.86 213.28 67.49 211.91 67.96 210.46 68.95 209 70.59 207.8 73.99 206.56 81.02 205.12 83.25 204.39 90.92 200.72 92.83 200.29 94.55 200.42 98.55 202.23 99.84 202.52 102.93 202.68 104.53 202.97 105.97 203.48 111.17 206.48 112.55 207.08 113.84 207.38 118.02 207.66 128.47 207.44 129.87 207.01 130.73 206.3 131.12 204.95 131.51 204.03 132.26 203.38 133.82 203.12 144.26 203.55 144.77 203.86 145.28 204.28 146.8 205.91 150.83 211.18 151.84 212.14 152.86 212.81 153.97 213.25 155.18 213.38 156.62 213.21 158.26 212.69 165.1 209.32 171.91 207.3 175.74 204.82 176.76 204.43 177.93 204.15 182.2 203.75 183.57 203.34 184.62 202.77 185.84 201.87 188.14 200.93 189 200.4 190.29 199.09 191.27 198.46 193.14 197.58 193.38 197.3 192.59 196.85 189.94 195.67 189.16 195.17 188.45 194.5 188.02 193.21 188.02 191.44 188.84 188.04 191.38 181.59 191.66 180.22 191.42 179.21 190.09 178.54 188.61 178.45 180.55 179.51 176.91 179.6 175.86 179.44 175.08 178.91 174.65 178.03 173.91 175.16 173.32 173.85 172.66 172.69 171.05 170.57 169.3 168.81 167.09 167.13 163.23 164.81 163.07 163.9 163.77 162.74 172.3 156.42 176.48 152.08 184.86 139.59 188.14 139.04 189.35 139 191.07 139.22 192.63 139.85 194.55 141.29 197.02 143.73 198.27 144.74 200.3 145.42 202.96 145.68 207.34 145.01 210.05 143.87 211.96 142.54 213.84 140.38 214.62 139.79 215.52 139.44 216.73 139.29 220.17 139.42 224.16 140.18 237.41 144.33 243.75 147.3 245.47 148.73 247.27 150.53 248.52 154.41 Z" id="ARM-1553" data-name="Aragatsotn"/>
<path d="M 248.52 278.53 250.82 281.05 251.25 284.4 251.61 285.45 254.08 287.58 253.52 289.71 251.25 290.7 244.34 292.84 241.96 294 240.24 295.5 236.47 300.24 233.11 302.61 231.86 304.18 231.59 305.32 236.08 312.02 238.31 316.8 238.91 319.33 239.09 323.52 239.08 323.71 239.07 323.76 225.14 317.49 215.92 315.29 207.4 315.29 192.22 318.47 185 319.16 179.84 320.33 177.21 320.61 175.08 320.06 171.87 317.68 169.4 317.17 164.02 318.26 155.26 322.99 151.24 324.06 120.92 320.1 93.37 308.4 70.29 303.36 58.75 298.47 55.49 291.2 58.98 288.7 70.39 286.8 72.85 283.54 71.22 280.7 63.36 273.28 60.68 268.84 65.29 266.09 65.03 265.63 65.34 265.61 71.64 262.7 77.46 258.59 79.5 257.92 81.61 258.23 83.48 259.36 86.15 260.46 87.87 260.29 89.51 259.02 91 257.33 93.5 255.02 95.22 254.42 96.58 254.51 97.73 255.4 100.85 259.17 102.22 259.9 104.49 260.61 111.07 261.6 112.9 262.1 113.92 262.57 120.33 266.67 123.88 268.25 133.51 270.86 135.89 271.98 139.8 275.47 143.68 277.94 145.63 278.9 147.55 279.4 177.46 279.56 182.85 277.86 185.76 275.6 185.56 273.17 184.23 269.42 183.84 267.71 184.04 266.21 185.56 265.22 187.09 265.06 188.65 265.19 190.09 265.44 191.34 265.85 192.32 266.58 194.47 268.67 196.27 269.57 197.92 269.59 199.37 269.02 201.52 267.85 204.41 266.62 209.53 265.65 212.27 265.58 214.15 266.15 215.52 267.26 216.96 268.69 221.1 270.5 222.47 270.88 223.64 271.35 228.23 274.06 233.74 276.04 248.52 278.53 Z" id="ARM-1554" data-name="Armavir"/>
<path d="M 184.86 139.59 176.48 152.08 172.3 156.42 163.77 162.74 163.07 163.9 163.23 164.81 167.09 167.13 169.3 168.81 171.05 170.57 172.66 172.69 173.32 173.85 173.91 175.16 174.65 178.03 175.08 178.91 175.86 179.44 176.91 179.6 180.55 179.51 188.61 178.45 190.09 178.54 191.42 179.21 191.66 180.22 191.38 181.59 188.84 188.04 188.02 191.44 188.02 193.21 188.45 194.5 189.16 195.17 189.94 195.67 192.59 196.85 193.38 197.3 193.14 197.58 191.27 198.46 190.29 199.09 189 200.4 188.14 200.93 185.84 201.87 184.62 202.77 183.57 203.34 182.2 203.75 177.93 204.15 176.76 204.43 175.74 204.82 171.91 207.3 165.1 209.32 158.26 212.69 156.62 213.21 155.18 213.38 153.97 213.25 152.86 212.81 151.84 212.14 150.83 211.18 146.8 205.91 145.28 204.28 144.77 203.86 144.26 203.55 133.82 203.12 132.26 203.38 131.51 204.03 131.12 204.95 130.73 206.3 129.87 207.01 128.47 207.44 118.02 207.66 113.84 207.38 112.55 207.08 111.17 206.48 105.97 203.48 104.53 202.97 102.93 202.68 99.84 202.52 98.55 202.23 94.55 200.42 92.83 200.29 90.92 200.72 83.25 204.39 81.02 205.12 73.99 206.56 70.59 207.8 68.95 209 67.96 210.46 67.49 211.91 66.86 213.28 65.53 215.18 63.74 216.44 58.58 218.72 56.82 219.99 54.93 221.98 53.84 222.75 52.78 223.07 48.42 222.61 48.64 222.05 48.64 220.34 38.44 213.68 33.09 209.11 32.05 205.79 40.67 197.95 46.11 195.07 52.08 194.52 51.4 192.71 50.99 191.96 50.19 190.93 51.73 191.36 52.85 191.55 53.97 191.89 55.49 192.8 55.23 186.76 58.59 181.55 69.27 172 67.34 166.3 68.88 164.74 74.12 157.63 74.86 155.58 73.54 138.13 72.66 133.96 70.31 129.23 59.84 116.51 57.26 111.51 55.91 105.78 55.35 100.72 54.27 95.91 51.38 90.96 43.48 83.44 33.55 77.19 22.7 73.07 11.91 71.9 7.1 68.44 3.08 61.24 1 53.23 2.04 47.34 4.57 47.82 7.06 47.86 9.53 47.44 23.14 43.25 33.85 42.94 74.95 47.31 81.11 46.92 86.05 45.35 97.79 37.53 108.6 34.13 131.94 33.76 137.46 32.73 137.41 33.08 134.52 51.9 134.68 53.36 135.42 54.44 137.61 55.99 139.38 56.7 145.24 58.5 146.49 59.24 148.05 60.74 152.7 66.46 154.83 68.4 156.78 69.83 161.35 72.07 162.05 72.5 162.56 73.31 162.8 74.38 162.56 76.24 161.78 77.36 160.8 78.15 158.58 79.34 157.91 79.99 157.64 80.95 158.03 81.96 159.44 83.2 160.96 83.9 162.68 84.38 168.34 84.93 174.06 84.69 174.8 85.12 175.23 86.03 173.36 94.1 172.38 95.38 169.49 97.48 168.58 98.89 168.16 100.59 167.85 103.28 166.86 104.49 165.37 105.3 163.34 105.79 161.43 105.88 159.67 105.6 155.61 103.94 154.62 103.72 153.84 103.75 153.21 103.94 152.82 104.21 152.55 104.46 151.8 105.63 151.18 107 149.15 113.84 148.8 114.52 146.92 117.12 146.92 118.71 147.66 120.42 149.69 123.05 150.87 124.94 151.8 126.86 152.43 128.5 153.73 129.9 155.65 130.87 164.55 131.85 166.35 132.69 168.08 134.54 169.8 137.73 170.58 138.78 172.62 139.48 174.34 139.91 184.86 139.59 Z" id="ARM-1555" data-name="Shirak"/>
<path d="M 491.36 71.32 493.77 70.4 500.73 69.83 502.26 75.8 500.05 83.95 503.15 86.5 506.71 87.21 509.22 87.71 515.89 91.87 526.67 102.39 530.66 105.48 535.79 106.73 541.73 107.05 546.1 108.81 546.56 114.39 541.83 124.77 535.19 130.51 515.65 137.67 505.47 141.4 495.61 147.56 489.27 156.04 489.25 162.08 489.19 162.07 484.38 160.71 481.22 158.33 478.94 155.96 476.09 153.9 474.44 153.05 472.88 152.46 468.43 151.52 467.02 151.07 465.68 150.31 459.9 144.82 458.41 143.82 456.07 143.22 447.34 142.57 442.34 141.45 440.78 141.29 439.02 141.72 431.66 146.11 429.55 147.05 419.85 150.15 418.48 150.94 417.27 152 416.33 153.28 413.32 159.24 412.43 160.4 411.37 161.36 410.08 162.14 408.58 162.82 404.87 163.9 394.31 165.52 392.39 165.39 390.48 165.06 387.63 164.09 386.1 163.28 382.98 161.01 381.22 159.97 377.49 158.43 373.78 157.57 343.83 162.39 337.76 158.59 337.99 143.91 336 139.03 335.02 137.56 333.7 134.26 332.95 132.76 332.56 131.51 332.6 130.28 334.32 128.61 336.2 127.45 340.94 125.7 349.53 123.95 351.33 123.29 352.89 122.28 354.27 120.85 355.68 118.87 360.99 105.8 362.05 104.07 363.18 102.77 364.39 101.96 365.5 101.49 366.31 100.96 368.39 99.13 369.95 98.18 371.24 97.12 371.83 95.83 370.46 93.83 367.57 91.87 366.62 91.09 365.5 89.28 364.67 88.7 361.66 87.6 360.92 87.23 360.06 86.89 359.16 86.75 355.68 86.78 352.01 86.46 350.35 86.1 347.11 84.72 340.82 80.46 338.44 78.36 337.5 77.18 337.29 75.83 337.73 74.31 345.94 67.13 347.5 66.26 349.1 65.91 350.86 66.02 352.55 66.64 355.8 68.39 357.79 68.91 359.98 68.77 362.67 67.88 378.98 58.33 379.64 56.7 379.18 54.73 376.24 51.31 373.67 49.75 370.97 48.71 368.9 48.28 367.01 46.9 365.81 44.42 364.78 39.15 365.21 35.72 365.84 33.92 366.93 33.2 370.54 31.66 374.06 29.69 375.23 28.73 375.85 27.53 376.01 26.27 375.46 24.74 372.88 22.67 364.31 18.36 358.28 17.87 358.26 17.87 356.55 16.04 347.1 12.6 345.01 9.05 349.91 5.31 374.24 8.23 383.8 7.99 386.87 6.4 392.58 2.51 395.7 1 405.03 15.94 402.49 21.25 403.88 24.38 408.21 25.78 424.67 25.8 428.98 26.85 442.17 34.67 445.44 38.25 445.77 42.26 437.12 47.04 412.19 46.25 409.51 54.35 412.75 58.55 418.21 61.34 423.08 61.72 424.62 58.72 425.34 54.14 429.51 55.83 437.74 62.32 442.9 64.74 446.81 67.93 450.95 70.56 462.83 71.62 473.87 75.05 479.62 75.76 491.36 71.32 Z M 399.06 68.35 402.66 62.54 399.86 55.32 389.92 53.53 386.01 55.61 385.19 59.1 386.77 62.9 389.92 65.98 399.06 68.35 Z M 448.01 82.27 450.66 79.48 443.45 74.75 442.41 74.61 441.42 74.73 440.53 75.11 439.75 75.76 442.17 81.55 448.01 82.27 Z" fill-rule="evenodd" id="ARM-1670" data-name="Tavush"/>
<path d="M 402.61 285.06 401.35 292.31 398.54 300.62 398.35 303.8 398.82 306.22 409.53 326.25 410.47 328.49 411.02 329.38 411.6 329.99 412.27 330.38 415.04 331.34 416.06 332.2 416.33 333.83 416.14 339.5 416.64 341.77 417.54 343.95 419.07 346.85 419.69 349.1 420.2 354.53 420.55 356.25 422.7 360.06 416.72 370.39 414.93 374.49 414.73 375.39 414.73 383.77 414 389.27 414 389.28 412.11 387.42 403.54 384.1 394.09 386.6 384.79 392.13 383.31 392.77 376.74 395.61 368.14 397.2 357.13 397.07 345.43 398.71 338.28 401.13 334.39 396.01 318.93 380.35 317.48 378.39 316.26 377.55 315.06 377.34 312.25 377.68 310.97 377.55 306.31 375.35 297.19 367.23 293.83 368.82 292.89 367.36 292.81 364.52 292.03 362.06 288.23 359.91 286.09 358.23 285.16 356.04 283.98 352.22 281.14 348.54 274.67 342.98 260.1 333.21 239.07 323.76 239.08 323.71 239.09 323.52 238.91 319.33 238.31 316.8 236.08 312.02 231.59 305.32 231.86 304.18 233.11 302.61 236.47 300.24 240.24 295.5 241.96 294 244.34 292.84 251.25 290.7 253.52 289.71 254.08 287.58 257.13 287.02 258.22 287.38 259.98 288.58 260.57 289.49 260.8 290.64 260.68 291.77 259.98 294.82 259.86 296.27 259.98 297.15 260.29 298.22 260.88 299.3 261.66 300.32 262.6 301.13 263.22 301.59 263.85 301.89 272.69 303.45 275.19 304.35 276.91 305.51 279.14 309.59 279.69 310.21 280.47 310.84 283.02 312.41 283.92 312.6 285.32 312.54 288.41 311.95 295.22 308.44 306.28 297.09 308.66 298.02 311.1 302.46 312.86 303.79 315.9 305.06 317.62 305.24 330.18 303.53 340.47 300.95 359.39 292.76 366.59 290.46 375.74 288.44 385.52 285.34 393.18 284.65 402.61 285.06 Z" id="ARM-1671" data-name="Ararat"/>
<path d="M 533 169.58 524.56 174.52 515.89 172.54 514.38 170.12 513.88 167.48 514.4 164.85 515.89 162.35 519.04 160.62 522.52 159.84 526.2 159.79 529.85 160.17 536.41 163 533 169.58 Z M 489.25 162.08 489.24 166.77 492.83 172.62 497.68 176.25 502.77 179.31 507.16 183.49 508.15 185.98 508.72 191.55 509.88 194.26 512.21 196.25 517.44 198.89 519.56 201.82 527.71 215.07 542.64 225.74 601.35 251.18 601.55 251.34 612.26 260.38 617.32 260.59 619.03 260.21 622.6 259.41 628.13 259.15 631.8 260.63 635.42 263.33 641.89 269.88 642.36 271.34 642.53 272.82 642.36 274.32 637.79 290.52 634.72 296.69 629.91 301.64 624.32 305.39 623.39 307.31 620.42 318.9 618.7 321.58 615.31 323.77 597.7 325.1 556.29 319.82 540.33 327.77 540.66 330.27 540.63 330.26 539.72 330.19 537.45 329.03 536.17 327.7 535.57 327.18 534.78 326.68 533.85 326.47 532.71 326.55 531.15 327.67 530.29 328.43 527.67 331.6 524.12 334.03 515.24 337.64 510.98 338.67 493.81 340.95 487.51 340.93 479.72 342.03 461.19 341.25 458.88 341.61 450.94 343.98 447.81 345.31 444.69 346.98 434.63 354.13 422.7 360.06 420.55 356.25 420.2 354.53 419.69 349.1 419.07 346.85 417.54 343.95 416.64 341.77 416.14 339.5 416.33 333.83 416.06 332.2 415.04 331.34 412.27 330.38 411.6 329.99 411.02 329.38 410.47 328.49 409.53 326.25 398.82 306.22 398.35 303.8 398.54 300.62 401.35 292.31 402.61 285.06 398.82 280.68 381.65 265.25 380.74 263.63 380.56 261.99 381.18 259.17 382.55 257.54 384.85 255.45 384.38 252.52 372.61 219.09 371.75 217.38 369.68 215.68 362.24 211.82 361.38 210.85 360.95 209.66 361.38 207.85 362.44 204.72 362.87 202.97 362.56 200.82 361.46 198.53 358.77 195.13 356.97 193.43 355.48 192.45 354.12 192.24 348.4 192.45 346.8 192.24 345.51 191.04 344.45 189.14 341.72 175.67 341.68 173.35 342.15 171.25 343.83 168.67 344.57 167.28 343.83 162.39 373.78 157.57 377.49 158.43 381.22 159.97 382.98 161.01 386.1 163.28 387.63 164.09 390.48 165.06 392.39 165.39 394.31 165.52 404.87 163.9 408.58 162.82 410.08 162.14 411.37 161.36 412.43 160.4 413.32 159.24 416.33 153.28 417.27 152 418.48 150.94 419.85 150.15 429.55 147.05 431.66 146.11 439.02 141.72 440.78 141.29 442.34 141.45 447.34 142.57 456.07 143.22 458.41 143.82 459.9 144.82 465.68 150.31 467.02 151.07 468.43 151.52 472.88 152.46 474.44 153.05 476.09 153.9 478.94 155.96 481.22 158.33 484.38 160.71 489.19 162.07 489.25 162.08 Z" fill-rule="evenodd" id="ARM-1672" data-name="Gegharkunik"/>
<path d="M 337.76 158.59 343.83 162.39 344.57 167.28 343.83 168.67 342.15 171.25 341.68 173.35 341.72 175.67 344.45 189.14 345.51 191.04 346.8 192.24 348.4 192.45 354.12 192.24 355.48 192.45 356.97 193.43 358.77 195.13 361.46 198.53 362.56 200.82 362.87 202.97 362.44 204.72 361.38 207.85 360.95 209.66 361.38 210.85 362.24 211.82 369.68 215.68 371.75 217.38 372.61 219.09 384.38 252.52 384.85 255.45 382.55 257.54 381.18 259.17 380.56 261.99 380.74 263.63 381.65 265.25 398.82 280.68 402.61 285.06 393.18 284.65 385.52 285.34 375.74 288.44 366.59 290.46 359.39 292.76 340.47 300.95 330.18 303.53 317.62 305.24 315.9 305.06 312.86 303.79 311.1 302.46 308.66 298.02 306.28 297.09 304.33 293.3 302.69 292.41 301.04 291.95 296.11 292.47 291.85 292.23 290.13 291.28 289.47 289.84 289.9 288.14 290.6 286.38 291.38 284.81 292.28 283.48 293.06 282.58 297.14 279.21 298.19 278.15 298.86 277.07 298.54 276.43 297.33 275.28 295.17 273.77 291.54 270.06 289.19 268.97 287.2 268.47 284.35 269.09 277.26 271.79 275.7 272.11 265.88 272.82 262.79 272.2 262.01 272.22 261.31 272.48 259.71 273.26 258.93 273.5 257.6 273.66 256.19 273.59 253.65 273.21 252.79 273.28 252.19 273.5 251.68 273.83 251.33 274.2 251.1 274.49 250.43 275.62 247.23 269.76 246.8 266.93 246.8 265.15 247.46 264.14 250.63 262.57 252 261.71 253.1 260.42 253.21 259.34 252.63 258.39 249.77 256.77 248.09 255.53 246.14 252.99 245.98 251.45 246.88 250.23 248.56 249.68 250.43 249.31 252.58 248.34 254.82 246.62 264.16 233.88 267.92 232.06 270.23 230.44 270.93 228.65 270.74 226.95 268.71 223.54 268.28 221.31 280.43 194.38 282.32 187.92 282.51 184.03 280.79 183.25 279.06 182.74 269.53 181.54 267.3 180.77 251.1 171.63 249.34 169.88 249.18 168.87 250.32 165.36 250.32 163.06 248.52 154.41 269.57 150.27 275.82 149.89 279.96 152.01 282.36 152.85 284.39 152.58 289.31 150.89 291.15 150.81 292.79 151.14 305.38 156.18 315.71 158.65 327.72 159.51 330.37 159.46 337.76 158.59 Z" id="ARM-1673" data-name="Kotayk"/>
<path d="M 358.26 17.87 358.28 17.87 364.31 18.36 372.88 22.67 375.46 24.74 376.01 26.27 375.85 27.53 375.23 28.73 374.06 29.69 370.54 31.66 366.93 33.2 365.84 33.92 365.21 35.72 364.78 39.15 365.81 44.42 367.01 46.9 368.9 48.28 370.97 48.71 373.67 49.75 376.24 51.31 379.18 54.73 379.64 56.7 378.98 58.33 362.67 67.88 359.98 68.77 357.79 68.91 355.8 68.39 352.55 66.64 350.86 66.02 349.1 65.91 347.5 66.26 345.94 67.13 337.73 74.31 337.29 75.83 337.5 77.18 338.44 78.36 340.82 80.46 347.11 84.72 350.35 86.1 352.01 86.46 355.68 86.78 359.16 86.75 360.06 86.89 360.92 87.23 361.66 87.6 364.67 88.7 365.5 89.28 366.62 91.09 367.57 91.87 370.46 93.83 371.83 95.83 371.24 97.12 369.95 98.18 368.39 99.13 366.31 100.96 365.5 101.49 364.39 101.96 363.18 102.77 362.05 104.07 360.99 105.8 355.68 118.87 354.27 120.85 352.89 122.28 351.33 123.29 349.53 123.95 340.94 125.7 336.2 127.45 334.32 128.61 332.6 130.28 332.56 131.51 332.95 132.76 333.7 134.26 335.02 137.56 336 139.03 337.99 143.91 337.76 158.59 330.37 159.46 327.72 159.51 315.71 158.65 305.38 156.18 292.79 151.14 291.15 150.81 289.31 150.89 284.39 152.58 282.36 152.85 279.96 152.01 275.82 149.89 269.57 150.27 248.52 154.41 247.27 150.53 245.47 148.73 243.75 147.3 237.41 144.33 224.16 140.18 220.17 139.42 216.73 139.29 215.52 139.44 214.62 139.79 213.84 140.38 211.96 142.54 210.05 143.87 207.34 145.01 202.96 145.68 200.3 145.42 198.27 144.74 197.02 143.73 194.55 141.29 192.63 139.85 191.07 139.22 189.35 139 188.14 139.04 184.86 139.59 174.34 139.91 172.62 139.48 170.58 138.78 169.8 137.73 168.08 134.54 166.35 132.69 164.55 131.85 155.65 130.87 153.73 129.9 152.43 128.5 151.8 126.86 150.87 124.94 149.69 123.05 147.66 120.42 146.92 118.71 146.92 117.12 148.8 114.52 149.15 113.84 151.18 107 151.8 105.63 152.55 104.46 152.82 104.21 153.21 103.94 153.84 103.75 154.62 103.72 155.61 103.94 159.67 105.6 161.43 105.88 163.34 105.79 165.37 105.3 166.86 104.49 167.85 103.28 168.16 100.59 168.58 98.89 169.49 97.48 172.38 95.38 173.36 94.1 175.23 86.03 174.8 85.12 174.06 84.69 168.34 84.93 162.68 84.38 160.96 83.9 159.44 83.2 158.03 81.96 157.64 80.95 157.91 79.99 158.58 79.34 160.8 78.15 161.78 77.36 162.56 76.24 162.8 74.38 162.56 73.31 162.05 72.5 161.35 72.07 156.78 69.83 154.83 68.4 152.7 66.46 148.05 60.74 146.49 59.24 145.24 58.5 139.38 56.7 137.61 55.99 135.42 54.44 134.68 53.36 134.52 51.9 137.41 33.08 137.46 32.73 137.57 32.71 143.35 31.65 153.48 28.19 158.51 27.79 169.19 30.06 174.5 29.33 179.45 27.31 183.41 24.33 184.7 21.86 184.87 19.73 185.52 17.85 188.52 16.25 191.2 16.22 198.04 18.36 210.23 24.76 214.89 26.1 220.82 25.35 223.15 24.16 224.96 22.58 227.02 21.19 230 20.46 233.11 20.73 246.55 26.89 252.06 28.42 257.73 28.71 263.85 27.37 268.93 23.09 270.57 22.14 273.28 22.07 274.61 23.97 275.52 26.55 276.9 28.47 282.07 29.59 285.78 27.09 288.85 23.09 292.11 19.82 297.53 17.97 302.63 18.49 313.17 21.66 350.12 22.23 356.73 21.55 359.24 18.92 358.26 17.87 Z" id="ARM-1674" data-name="Lori"/>
<path d="M 306.28 297.09 295.22 308.44 288.41 311.95 285.32 312.54 283.92 312.6 283.02 312.41 280.47 310.84 279.69 310.21 279.14 309.59 276.91 305.51 275.19 304.35 272.69 303.45 263.85 301.89 263.22 301.59 262.6 301.13 261.66 300.32 260.88 299.3 260.29 298.22 259.98 297.15 259.86 296.27 259.98 294.82 260.68 291.77 260.8 290.64 260.57 289.49 259.98 288.58 258.22 287.38 257.13 287.02 254.08 287.58 251.61 285.45 251.25 284.4 250.82 281.05 248.52 278.53 250.43 275.62 251.1 274.49 251.33 274.2 251.68 273.83 252.19 273.5 252.79 273.28 253.65 273.21 256.19 273.59 257.6 273.66 258.93 273.5 259.71 273.26 261.31 272.48 262.01 272.22 262.79 272.2 265.88 272.82 275.7 272.11 277.26 271.79 284.35 269.09 287.2 268.47 289.19 268.97 291.54 270.06 295.17 273.77 297.33 275.28 298.54 276.43 298.86 277.07 298.19 278.15 297.14 279.21 293.06 282.58 292.28 283.48 291.38 284.81 290.6 286.38 289.9 288.14 289.47 289.84 290.13 291.28 291.85 292.23 296.11 292.47 301.04 291.95 302.69 292.41 304.33 293.3 306.28 297.09 Z" id="ARM-1675" data-name="Erevan"/>
<path d="M 617.68 377.61 625.99 380.88 641.89 384.58 648.78 389.76 658.5 404.98 666.42 409.87 675.98 412.01 680.31 413.9 683.95 417.35 689.86 426.01 693.56 428.74 699.16 430.09 707.91 428.68 725.13 421.87 733.75 422.35 737.32 424.6 743.26 430.81 747.03 432.92 752.01 433.59 767.93 432.42 771.99 433.11 776.17 435.22 779.26 438.47 780.01 442.63 777.75 445.83 774.07 447.59 771.13 449.67 771.05 453.84 772.78 456.5 772.69 458.86 770.97 460.7 767.93 461.85 767.83 461.86 749.38 464.55 741.38 468.38 738.07 474.86 741.54 482.78 749.8 487.74 767.93 494.02 771.95 496.6 773.81 500.26 775.14 504.27 777.59 507.98 783.68 512.97 794.44 518.84 796.11 520.02 797.8 521.53 798.13 522.18 799 523.95 796.79 524.79 791.49 524.95 779.8 531.42 776.7 531.78 761.39 525.73 752.56 524.85 746.75 529.07 747 536.82 753.44 541.8 761.83 545.51 767.93 549.33 771.1 557.62 772.51 564.77 771.78 571.82 768.47 579.83 768.29 580.62 767.93 581.34 767.04 584.41 766.61 587.52 766.86 590.59 767.93 593.54 776.68 607.95 772.14 606.97 745.89 597.83 742.45 597.23 739.77 597.51 733.66 599.06 723.88 599.36 720.54 599.95 715.66 601.81 702.56 609.22 698.16 610.88 681.37 612.61 666.68 590.73 653.55 562.19 648.44 554.2 641.89 546.9 636.57 540.07 634.27 533.45 635.81 527.04 641.89 520.81 643.6 519.11 644.12 517.29 643.55 515.39 641.89 513.41 636.75 509.6 622.37 504.13 618.7 502.73 612.68 499.11 607.89 495.07 602.7 491.79 588.4 488.94 587.74 487.74 586.29 485.14 587.9 480.1 596.37 469.27 597.49 465.3 595.22 453.79 595.22 453.78 595.22 453.76 596.04 447.35 595.98 443.08 593.72 439.91 588.01 436.73 581.06 434.66 575.21 434.73 573.8 435 573.77 434.93 573.58 434.59 572.37 432.03 572.06 431 571.82 429.66 578.6 409.31 579.57 403.96 579.46 400.07 574.68 393.23 575.26 390.48 577.42 386.72 590.79 369.22 594.59 365.67 599.02 363.72 599.03 363.72 600.96 366.76 612.32 375.49 617.68 377.61 Z" id="ARM-1732" data-name="Syunik"/>
<path d="M 540.66 330.27 541.13 333.75 549.12 336.52 575.41 338.61 582.3 341.22 587.75 345.87 599.03 363.72 599.02 363.72 594.59 365.67 590.79 369.22 577.42 386.72 575.26 390.48 574.68 393.23 579.46 400.07 579.57 403.96 578.6 409.31 571.82 429.66 572.06 431 572.37 432.03 573.58 434.59 573.77 434.93 573.8 435 542.9 440.8 536.15 442.97 515.89 452.96 513.2 453.84 510.39 454.95 507.53 455.39 504.69 455.05 501.98 453.83 501.94 453.8 493.98 447.51 489.58 445.73 477.65 444.87 473.98 443.72 471.44 440.88 468.45 435.65 462.18 428.83 460.61 427.12 453.87 428.87 446.7 434.02 437.42 435.72 432.48 433.28 431.49 429.6 433.97 420.53 434.38 414.64 433.29 409.98 430.7 405.77 414 389.28 414 389.27 414.73 383.77 414.73 375.39 414.93 374.49 416.72 370.39 422.7 360.06 434.63 354.13 444.69 346.98 447.81 345.31 450.94 343.98 458.88 341.61 461.19 341.25 479.72 342.03 487.51 340.93 493.81 340.95 510.98 338.67 515.24 337.64 524.12 334.03 527.67 331.6 530.29 328.43 531.15 327.67 532.71 326.55 533.85 326.47 534.78 326.68 535.57 327.18 536.17 327.7 537.45 329.03 539.72 330.19 540.63 330.26 540.66 330.27 Z" id="ARM-1733" data-name="Vayots Dzor"/>
</g>
</svg>