<?xml version="1.0"?>
<svg xmlns="http://www.w3.org/2000/svg" version="1.2" baseProfile="tiny" width="800" height="1284" viewBox="0 0 800 1284" stroke-linecap="round" stroke-linejoin="round">
<g id="ne_10m_admin_1_states_provinces">
<path d="M 370.62 716.67 456.71 802.76 549.43 855.74 707.68 882.35 736.31 922.22 768.92 983.82 793.2 1047.24 799 1095.08 767.83 1168.65 716.74 1225.9 644.98 1265.77 555.47 1283.16 101.38 1164.3 1 817.84 42.64 637.93 251.41 663.69 370.62 716.67 Z" id="MSR-5087" data-name="Saint Anthony"/>
<path d="M 707.68 882.35 549.43 855.74 456.71 802.76 370.62 716.67 410.35 577.59 469.96 458.38 536.26 377.89 658.39 526.48 738.12 669.26 735.22 733.77 698.98 845.39 707.68 882.35 Z" id="MSR-5088" data-name="Saint Georges"/>
<path d="M 536.26 377.89 469.96 458.38 410.35 577.59 370.62 716.67 251.41 663.69 42.64 637.93 101.38 384.05 251.42 1 363.4 44.49 421.38 59.71 494.95 56.08 453.63 222.06 536.26 377.89 Z" id="MSR-5089" data-name="Saint Peter"/>
</g>
</svg>