<?xml version="1.0"?>
<svg xmlns="http://www.w3.org/2000/svg" version="1.2" baseProfile="tiny" width="800" height="362" viewBox="0 0 800 362" stroke-linecap="round" stroke-linejoin="round">
<g id="ne_10m_admin_1_states_provinces">
<path d="M 286.78 212.59 288.73 214.15 290.09 213.7 291.05 212.49 291.85 211.82 292.19 212.58 290.58 214.23 287.56 216.45 287 218.49 287.12 222.26 286.01 224.24 282.35 226.18 278.38 225.56 275.35 222.92 274.36 218.77 275.01 216.48 276.18 215.53 277.82 215.05 279.77 214.13 281.32 212.71 282.22 210.94 282.13 209.01 280.62 207.12 278.55 206.28 276.26 205.72 274.79 204.52 275.15 201.71 276.31 200.23 278.02 199.24 279.48 199.49 280.32 204.23 282.13 206.19 284.68 207.46 287.56 207.96 286.55 209.08 286.1 210.28 286.21 211.47 286.78 212.59 Z M 395.29 121.98 393.39 122.41 391.07 122.27 388.91 121.59 387.51 120.37 387.2 118.71 388.48 118.12 398.13 117.55 403.02 116.51 403.02 117.35 402.54 117.37 402.18 117.52 401.48 118.05 399.47 118.58 397.92 119.73 396.59 121.01 395.29 121.98 Z M 140.31 123.32 148.41 125.53 152.68 126.81 155.41 124.25 154.41 122.66 155.32 121.54 158.59 121.69 160.26 122.72 159.56 125.41 162.7 127.36 175.55 127.43 177.77 128.63 174.82 130.51 174.01 132.98 176.18 133.38 179.87 132.25 185.47 135.79 190.43 135.05 193.46 135.98 195.38 136.23 200.08 135.81 203.84 133.35 208.34 131.9 211.09 131.43 217.83 130.99 225.58 128.32 229.35 125.37 234.61 122.92 238.37 120.58 243.88 121.17 248.58 121.02 251.61 119.99 254.31 119.42 256.41 121.91 256.96 125.65 255 128.87 247.38 132.1 241.77 135.62 240.76 135.88 239.96 139.56 239.57 140.59 240.42 141.87 239.9 143.5 238.62 145 237.25 145.92 240.73 145.82 242.03 145.22 241.89 140.93 242.25 137.83 243.39 136.32 248.13 134.34 251.87 131.55 253.87 130.8 256.2 131.63 256.6 132.35 257.21 134.77 257.32 135.5 257.82 135.87 261.17 137.42 269.65 140.11 278.88 140.71 305.74 138.36 309.49 138.6 313.19 139.74 314.88 140.81 318.52 144.37 325.53 148.3 325.53 149.01 322.91 150.44 321.5 153.05 320.94 156.06 320.84 158.73 319.6 161.24 309.19 169.51 303.92 171.53 301.93 173.08 301.32 174.58 301.62 178.1 300.03 181.54 296.46 181.95 292.53 180.33 289.89 177.71 292.8 177.43 294 176.82 294.59 175.39 294.27 173.88 293.13 173.42 291.66 173.27 290.31 172.69 287.59 172.15 284.79 174.02 282.24 176.49 278.61 178.86 279.4 181.49 280.89 184.37 281.39 186.28 280.29 187.07 278.48 187.56 276.56 187.68 275.15 187.39 274.01 186.46 272.89 184.29 272.06 183.18 272.96 182.65 274.88 181.87 275.93 181.64 275.12 180.38 274.12 179.78 269.45 178.99 268.42 179.1 265.9 180.02 262.73 180.37 260.78 179.49 259.06 177.9 256.62 176.16 259.14 176.02 262.92 174.3 265.05 173.85 266.65 174.52 268.61 175.69 270.54 176.13 272.06 174.55 270.15 172.75 270.28 171.34 273.59 167.6 272.06 167.61 270.43 167.25 268.94 166.57 267.81 165.71 266.57 165.24 263.64 166 262.09 165.29 261.66 166.8 261.05 167.74 260.05 168.24 258.48 168.37 257.65 168.98 254.61 172.69 251.85 174.68 245.74 177.5 243 179.64 241.42 182.29 242.17 183.94 244.04 185.49 245.81 187.81 246.55 190.67 246.08 192.86 244.69 194.83 242.65 197.08 245.37 196.34 247.35 196.2 247.9 197 245.06 200.57 244.79 202.01 244.97 204.87 244.87 206.84 244.7 207.71 244.26 208.66 241.55 210.67 241.12 211.47 240.56 211.46 239.34 211.91 238.02 212.61 237.25 213.29 237.81 213.58 238.63 214.69 239.06 215.89 238.07 216.71 237.7 217.26 237.11 217.82 236.04 218.06 234.66 217.86 233.6 217.31 231.84 215.75 231.33 215.01 231 214.18 230.51 213.34 229.47 212.59 228.03 212.31 217.04 212.59 215.58 212.88 214.67 213.55 213.96 214.32 213.18 214.9 210.24 215.57 204.28 215.36 201.53 215.75 204.37 217.53 220.55 219.54 221.69 220.05 221.28 221.24 219.42 223.54 218.48 225.52 218.75 226.39 220.33 226.59 223.28 226.55 223.28 227.34 218.64 228.83 217.29 230.1 218.58 231.96 218.16 232.16 217.11 232.81 214.45 231.87 202.03 233.92 196.37 235.65 193.03 235.82 186.1 234.27 182.1 232.28 181.07 231.96 179.83 231.96 179.83 231.95 180.3 230.71 180.4 229.71 179.83 228.74 178.52 228.08 176 227.63 172.28 227.34 171.05 226.89 170.87 226.05 171.1 225.37 171.58 224.72 171.91 224.01 171.37 223.37 169.21 223.11 165.21 223.38 163.42 223.03 161.84 221.9 158.98 219.17 156.45 217.46 155.79 216.41 155.42 215.6 155.26 215.02 154.4 214.19 148.66 210.13 145.82 208.69 142.24 207.44 131.64 205.46 127.38 205.98 124.29 209.51 119.05 213.27 117.13 214.16 115.08 214.48 114.06 214.92 113.06 215.57 112.47 216.17 111.47 217.59 110.01 217.48 108.8 218.13 104.92 218.37 103.36 217.7 98.85 214.39 95.43 212.58 89.88 212.29 85.74 213.45 84.03 216.78 82.83 217.81 83.42 219.73 83.44 220.46 81.62 221.11 77.96 221.76 76.02 221.42 68.07 218.24 64.39 217.69 63.2 217.79 61.34 218.26 59.44 218.47 58.09 218.32 56.91 218.07 55.81 217.64 54.78 217.62 53.78 217.77 52.97 218.06 52.39 218.38 52.46 218.75 53.04 219.46 53.23 219.81 53.18 220.1 52.93 220.35 47.25 223.97 45.79 224.85 43.74 225.08 42.35 224.9 38.37 223.46 35.51 222.74 32.02 221.34 10.25 221.46 10.23 221.46 5.7 202.85 5.15 201.71 4.82 201.47 4.71 200.93 4.82 200.41 5.15 200.17 5.83 200.3 6.13 200.59 6.33 200.88 6.66 201.01 7.4 201.61 10.21 210.28 12.24 213.27 12.53 214.53 12.26 215.61 11.16 217.16 10.91 218.42 11.3 219.97 12.26 220.29 17.34 218.68 22.74 216.26 25.29 215.75 29.7 213.79 34.21 211.12 34.84 209.28 34.12 207.32 32.53 205.41 30.73 203.68 26.5 200.59 26.5 197.08 25.21 193.03 22.3 190.43 18.38 188.85 9.66 186.62 7.29 186.44 6.27 187.39 6.38 192.23 6.19 194.52 5.5 197.08 5.91 198.97 5.61 199.69 3.95 199.4 3.48 198.8 3 197.62 2.57 196.26 2.06 188.06 2.41 185.5 5.14 178.44 5.5 175.78 4.21 136.63 4.69 134.74 5.5 132.79 10.58 123.02 12.87 119.99 14.55 118.52 15.24 118.82 15.7 119.81 16.74 120.37 16.65 121.17 14.11 124.84 13.23 125.85 13.23 126.62 13.93 127.01 14.69 127.21 16.74 127.32 17.12 127.81 17.56 128.9 18.16 129.99 19.08 130.48 23.72 130.94 24.96 131.41 23.33 131.96 23.75 133 23.44 134.82 24.11 135.88 25.13 136.33 26.01 136.04 26.33 135.28 25.65 134.34 25.65 133.56 29.21 132.91 34.71 132.83 39.73 133.4 41.92 134.72 42.97 134.91 48.56 137.42 50.13 137.03 51.58 136.05 52.8 134.78 53.64 133.56 54.34 133.56 57.77 138.88 57.86 139.74 57.43 140.22 57.6 141.29 58.34 142.35 60.19 143.17 62.4 144.77 63.69 145.22 65.63 145.2 72.53 144.37 73.27 144.16 73.88 143.6 74.27 142.73 74.43 141.67 74.46 140.02 74.61 138.9 75.27 136.59 75.76 135.94 76.35 135.67 76.59 135.31 76.03 134.34 72.53 132.79 71.39 132.73 70.54 132.46 70.02 131.88 69.86 130.9 69.35 129.9 67.43 129.33 67.47 128.17 68.97 127.41 74.15 127.21 81.44 120.37 83.15 119.82 87.79 119.01 94.03 118.86 94.25 118.61 91.55 118.05 86.61 117.96 85.45 117.33 86.5 115.32 88.15 113.54 89.49 112.59 93.09 111.11 98.44 108.22 100.54 107.94 101.77 108.08 103.86 108.66 105.13 108.8 106.45 108.59 107.14 108.12 107.7 107.59 108.6 107.17 110.59 107.13 113.18 107.6 115.43 108.54 116.39 109.91 117.06 112.55 118.65 114.12 120.47 115.23 121.86 116.51 123.35 118.89 120.2 119.32 116.88 122.26 114.01 122.69 114.01 123.53 114.47 124.56 113.25 125.56 110.15 127.32 109.1 128.93 108.97 130.36 109.44 133.95 110.29 135.04 112.15 134.86 114.01 133.65 115.52 129.95 117.19 129.69 119.24 129.92 121.02 129.7 120.31 128.62 119.4 128.22 118.32 128.36 117.17 128.87 118.02 127.63 118.9 126.75 119.7 125.77 120.25 124.23 121.02 124.23 120.34 126.77 123.29 127.16 127.32 126.77 129.86 126.97 131.4 127.54 133.12 127.35 134.68 127.44 135.71 128.87 135.38 129.97 132.78 132.08 131.75 133.56 132.98 133.84 133.22 134.34 133.3 135.02 134.07 135.88 135.17 136.5 138.01 137.42 138.47 137.89 138.74 138.5 139.22 138.99 140.33 139.04 141.96 137.15 142.65 136.59 144.25 137.41 145.63 136.51 145.59 135.08 143.06 134.34 139.55 135.5 139.33 135.84 138.82 135.94 137.62 135.88 136.65 135.57 136.59 134.92 136.93 134.38 137.23 134.34 137.44 130.14 139.3 126.52 140.31 123.32 Z" fill-rule="evenodd" id="DNK-3416" data-name="Midtjylland"/>
<path d="M 256.05 323.76 257.71 324.18 259.42 324.18 260.77 323.9 261.28 323 260.49 321.09 262.1 322.44 263.47 325.82 264.69 326.5 267.04 326.51 268.64 326.27 268.94 325.37 267.42 323.41 269.28 324.46 271.44 325.23 272.96 326.27 272.91 328.04 273.98 328.49 275.15 328.82 266.28 330.01 263.85 331.55 262.45 331.91 259.88 331.22 240.42 318.94 238.58 316.4 237.91 314.63 239.57 315.69 249.17 318.78 251.99 320.26 254.65 322.72 256.05 323.76 Z M 193.16 302.95 199.9 307.55 203.49 308.67 208.49 309.12 212.1 310.38 215 312.34 217.81 314.85 219.44 316.63 223.88 324.43 223.81 325.54 222.22 325.78 219 325.73 217.32 326.24 215.11 327.25 212.9 327.97 211.27 327.62 209.41 326.68 204.21 325.73 202.3 324.95 202.3 324.18 205.31 323.31 208.86 324.2 212.43 325.66 215.56 326.5 215.56 325.73 210.15 322.98 205.02 321.92 203.85 321.86 202.72 322.11 201.09 323.04 199.98 323.41 195.57 323.27 191.75 321.49 189.52 318.52 189.88 314.85 189.17 314.85 189.17 314.15 191.67 315.15 194.36 316.93 197 318.25 199.27 317.94 198.8 317.54 198.05 316.77 197.61 316.02 198.05 315.69 198.67 315.44 197.88 314.89 193.19 312.97 192.41 312.07 193.8 310.99 193.8 310.21 184.92 310.7 183.37 310.6 182.25 310.1 180.88 309.99 179.67 309.7 179.07 308.67 179.47 308.16 181.61 307.24 182.21 306.35 180.13 306.41 178.26 306.82 176.43 307.01 174.5 306.35 174.5 305.52 184.48 302.79 188.47 302.43 193.16 302.95 Z M 311.24 319.18 300.31 340.08 299.21 341.48 297.65 341.96 294.97 342.01 293.62 340.94 290.74 334.28 289.51 333.05 287.99 332.05 284.48 330.36 287.23 330.25 288.98 329.81 290.41 328.86 292.19 327.2 293.24 325.31 293.91 324.77 294.97 325.34 295.54 325.52 298.43 324.95 298.18 323.84 297.68 322.57 296.69 323.05 295.71 323.21 294.75 323.05 293.74 322.57 295.33 319.85 297.73 317.83 304.05 313.6 306.77 312.47 313.19 307.13 313.99 303.93 317.78 298.34 322.16 294.03 324.7 294.7 319.29 308.67 317.14 312.38 311.24 319.18 Z M 36.95 262.48 38.83 263.06 41.13 262.84 42.77 263.75 42.73 265.08 41.28 267.6 41.58 268.73 42.44 269.98 43.23 272.09 44.24 273.02 41.44 273.67 38.46 271.88 35.87 269.11 32.31 263.75 31.56 261.31 32.7 259.7 36.53 259.12 36.95 262.48 Z M 254.78 243.1 262.58 246.17 264.35 247.4 265.75 248.79 266.74 249.53 267.81 249.86 269.88 250 271.76 250.4 275.18 251.77 273.33 251.34 271.56 251.34 270.26 251.93 269.74 253.26 270.16 253.76 271.82 254.52 272.06 255.19 271.47 256.14 270.54 256.39 269.41 256.44 268.2 256.74 263.96 260.2 265.82 262.09 269.83 261.99 272.06 259.47 273.33 259.67 280.62 257.51 284.9 256.74 285.39 256.39 285.17 255.61 284.62 254.84 284.1 254.49 283.08 254.34 282 253.95 281.09 253.43 280.62 252.88 280.95 251.88 282.36 252.25 283.86 253.13 284.48 253.65 285.92 252.39 285.55 250.61 284.46 248.62 283.71 246.7 284.26 247.22 286.01 248.24 286.06 246.34 285.31 243.53 285.33 242.77 287.48 242.7 290.8 244.82 296.13 249.86 296.35 250.58 296.46 251.59 296.71 252.49 297.29 252.88 297.57 253.12 299.98 254.49 300.7 256.05 300.46 256.96 299.41 257.6 296.11 258.81 290.86 260.1 283.05 259.69 281.12 259.93 279.77 260.6 279.16 262.04 280.21 262.76 282.04 262.8 283.71 262.21 283.19 261.63 283.07 261.27 283.9 260.11 286.14 260.43 293.74 261.44 295.43 262.3 306.6 271.54 307.32 272.54 310.18 277.42 310.86 279.26 310.02 279.26 308.68 278.07 306.62 277.29 304.75 277.61 303.92 279.62 304.56 281.01 307.58 283.77 308.48 285.45 308.69 287.88 308.41 290.12 307.65 292.02 305.93 294.34 305.6 295.18 305.46 297.44 305.1 298.04 302.32 300.18 301.25 301.56 300.5 302.85 299.47 303.96 297.68 304.82 296.3 305.01 291.85 304.82 286.78 304.82 284.9 305.01 282.79 305.58 280.84 306.44 279.43 307.55 277.38 308.72 274.96 308.54 270.52 307.13 262.95 306.78 260.49 306.35 259.39 305.92 258.51 305.41 257.51 304.99 256.2 304.82 253.37 304.97 251.88 304.88 243 301.65 239.73 301.49 238.86 302.35 238.8 304.82 237.08 304.07 234.43 302.28 232.55 301.65 230.23 301.63 225.96 302.25 223.97 301.65 232.64 297.86 234.16 296.24 232.2 294.64 230.78 292.79 229.29 291.3 227.15 290.78 225.44 291.06 224.16 291.47 222.83 291.76 220.96 291.62 218.4 290.12 216.92 289.77 215.56 290.78 215.89 292.54 219.81 295.98 219.42 297.87 218.86 298.01 214.88 297.64 214.59 297.32 214.75 296.86 214.72 296.24 215.05 296.33 215.36 295.87 215.25 294.91 213.61 292.41 213.35 291.2 213.61 290 214.34 288.91 214.2 288.02 212.46 287.41 207.92 286.76 206.5 286.25 205.23 285.61 204.68 285.06 204.45 284.44 203.4 283.42 203.14 282.74 203.4 282.05 204.45 281.03 204.68 280.39 204.45 279.15 203.4 277.17 203.14 276.53 203.49 272.64 202.33 272.13 200.56 272.05 197.28 272.25 195.78 271.92 194.18 271.11 191.42 269.08 193.33 268.68 195.45 268.53 197.3 268.11 198.44 266.84 192.26 265.3 193.19 265.41 196.12 265.3 194.95 263.97 192.89 263.25 188.4 262.91 186.81 262.54 182.99 259.83 182.99 259.12 186.01 259.9 189.21 261.48 192.35 262.65 195.28 262.21 184.11 256.56 179.91 256.04 180.78 254.86 181.86 254.39 183.13 254.14 184.61 253.65 188.83 250.56 194.93 249.86 197 250.07 197.39 250.67 197.44 251.62 198.44 252.88 203.87 254.56 209.76 253.37 220.96 249.01 235.58 246.25 240.56 244.17 243.35 243.61 246.39 243.49 247.29 243.61 247.36 243.95 248.07 245.56 248.13 245.92 249.72 245.59 250.11 244.73 249.74 242.42 251.3 242.18 254.78 243.1 Z M 179.83 231.96 169.37 231.93 166.72 231.19 166.36 231.62 166.15 231.94 166.03 232.28 165.94 232.81 168.3 233.45 176.43 233.51 177.91 234.02 183.76 237.44 184.96 238.78 185.78 240 186.92 240.88 189.17 241.23 199.98 241.23 198.13 242.52 192.26 245.15 189.11 247.45 187.59 248.04 184.96 248.24 184 248.73 183.8 249.79 183.76 250.85 183.37 251.33 176.25 252.35 173.67 253.4 172.11 253.65 170.75 253.47 168.21 252.84 166.72 252.88 167.01 253.34 167.49 253.65 165.85 254.97 161.67 255.75 159.76 256.74 161.75 257.45 163.87 257.37 169.44 256.55 170.47 256.19 171.56 256.02 178.09 258.04 178.55 259.31 178.06 260.86 176.82 262.21 175.28 262.81 171.45 263.25 169.79 263.75 170.39 265.01 171.78 266.72 172.18 267.62 171.87 268.89 171.21 269.87 171.38 270.71 173.67 271.54 175.07 272.28 176.41 273.33 176.75 274.44 175.2 275.33 175.2 276.17 176.36 276.92 180.55 281.03 181.94 281.37 183.28 282.11 183.76 283.96 183.34 285.28 182.54 286.1 181.79 287.09 181.44 288.91 180.83 289.74 179.38 290.32 177.59 290.66 176.05 290.78 169.4 290.07 167.88 290.31 166.94 290.92 166.19 291.67 165.17 292.39 162.45 293.38 160.79 293.77 159.35 293.93 158.44 294.42 158.44 295.42 159.37 296.24 161.33 296.24 161.33 297.02 157.99 296.96 156.45 297.18 155.07 297.87 156.21 298.36 157.63 298.55 160.89 298.57 162.39 298.98 164.03 300 166.72 302.43 163.79 304.64 161.86 305.69 159.76 306.35 154.6 306.95 152.56 307.84 153.52 309.44 154.92 309.46 161.33 307.97 164.21 308.08 165.17 307.97 166 307.6 166.79 307.06 167.73 306.57 169.02 306.35 171.47 306.95 176.02 309.85 178.37 310.99 184.58 311.95 186.1 312.6 186.96 314.25 189.46 322.83 189.74 323.34 189.56 323.68 188.47 324.18 186.79 324.21 185.19 323.66 183.89 323.55 182.99 324.95 184.4 325.23 185.75 325.71 186.87 326.38 187.62 327.2 188.06 328.16 188.28 329.47 187.79 330.63 186.12 331.13 184.81 330.65 183.2 328.53 182.21 328.04 177.51 328.24 176.05 328.04 173.92 327.31 174.08 326.86 175 326.43 175.2 325.73 173.2 324.04 172.46 323.03 173.27 322.57 176.29 321.89 175.68 320.59 172.98 319.69 169.79 320.26 169.17 320.93 167.67 323.23 166.4 324.48 165.7 325.34 165.17 325.73 164.32 325.89 162.48 325.73 161.69 326.11 159.76 327.42 155.05 329.74 153.52 331.13 152.78 333.52 152.91 333.52 152.85 333.55 151.18 333.88 149.26 333.75 146.98 332.51 144.94 332.77 143.7 333.42 142.08 333.67 140.99 334.33 139.29 334.52 131.04 334.5 129.04 334.03 128.21 332.69 127.87 331.11 127.36 329.97 125.47 329 101.49 325.73 92.6 323.62 83.57 322.72 80.93 322.96 73.23 324.63 69.06 324.52 65.09 323.81 65.09 323.81 65.99 321.86 65.16 321.09 66.67 317.97 65.72 315.1 63.91 312.31 62.85 309.44 63.28 305.78 64.6 302.75 66.23 299.97 67.47 297.02 55.45 295.79 54.1 295.87 53.68 296.81 53.4 301.19 52.69 301.75 51.58 301.88 50.14 302.81 48.58 304.08 46.83 304.67 45.09 304.44 43.54 303.2 42.25 300.38 42.41 297.68 43.12 294.94 43.54 292.01 45.66 289.79 50.36 289.38 55.12 290.18 57.51 291.62 55.99 291.85 54.77 292.43 52.8 293.93 53.15 295.19 59.88 295.76 66.05 296.6 68.33 296.07 68.07 293.92 65.99 290.07 64.54 285.23 63.69 280.39 63.91 279.1 64.93 277.5 65.16 276.53 64.96 275.08 63.69 272.25 62.67 267.15 61.84 264.73 60.21 262.56 57.37 261.28 53.31 260.72 45.78 260.6 40.34 259.62 35.73 257.17 25.47 248.46 25.56 247.66 27.95 247.4 27.95 246.7 25.78 246.19 23.19 246.07 20.66 246.44 18.7 247.4 17.4 249 17.74 250.06 21.1 252.1 20.05 252.24 19.36 252.52 17.92 253.65 20.54 253.92 23.61 255.06 26.19 256.74 27.25 258.7 25.8 259.02 12.26 252.61 9.5 251.69 2.88 251 1.14 250 1 248.32 7.36 238.67 9.49 234.3 10.91 229.64 11.1 225.06 10.23 221.46 10.25 221.46 32.02 221.34 35.51 222.74 38.37 223.46 42.35 224.9 43.74 225.08 45.79 224.85 47.25 223.97 52.93 220.35 53.18 220.1 53.23 219.81 53.04 219.46 52.46 218.75 52.39 218.38 52.97 218.06 53.78 217.77 54.78 217.62 55.81 217.64 56.91 218.07 58.09 218.32 59.44 218.47 61.34 218.26 63.2 217.79 64.39 217.69 68.07 218.24 76.02 221.42 77.96 221.76 81.62 221.11 83.44 220.46 83.42 219.73 82.83 217.81 84.03 216.78 85.74 213.45 89.88 212.29 95.43 212.58 98.85 214.39 103.36 217.7 104.92 218.37 108.8 218.13 110.01 217.48 111.47 217.59 112.47 216.17 113.06 215.57 114.06 214.92 115.08 214.48 117.13 214.16 119.05 213.27 124.29 209.51 127.38 205.98 131.64 205.46 142.24 207.44 145.82 208.69 148.66 210.13 154.4 214.19 155.26 215.02 155.42 215.6 155.79 216.41 156.45 217.46 158.98 219.17 161.84 221.9 163.42 223.03 165.21 223.38 169.21 223.11 171.37 223.37 171.91 224.01 171.58 224.72 171.1 225.37 170.87 226.05 171.05 226.89 172.28 227.34 176 227.63 178.52 228.08 179.83 228.74 180.4 229.71 180.3 230.71 179.83 231.95 179.83 231.96 Z" fill-rule="evenodd" id="DNK-3417" data-name="Syddanmark"/>
<path d="M 93.42 90.9 93.09 91.74 93.31 92.22 94.45 93.8 94.7 94.75 94.45 94.99 93.09 98.68 92.18 100.09 91.6 100.6 90.77 100.99 90.75 99.65 90.18 98.78 89.31 98.25 88.46 97.91 85.78 99.12 85.31 99.53 84.95 100.72 85.24 101.44 85.76 101.97 86.15 102.55 87.07 106.32 88.06 107.48 90 107.94 89.28 108.51 88.57 108.77 87.76 108.83 86.85 108.8 87.69 109.13 88.46 109.56 86.96 110.82 85.25 113.38 83.75 114.9 82.26 115.95 77.58 118.05 77 120 67.98 121.38 64.82 122.33 63.69 122 60.67 118.28 59.44 117.35 56.66 115.73 53.95 114.97 53.23 114.9 49.72 115.64 48.56 115.54 48.95 114.2 49.48 113.63 50.33 113.15 51.34 112.79 52.41 112.65 52.93 112.15 52.74 111.06 52.34 109.99 52.02 109.56 55.16 108.26 63.17 107.64 65.99 105.63 64.58 105.71 63.17 105.63 61.83 105.38 60.6 104.93 61.24 103.85 63.5 102.18 64.45 100.99 64.08 101.08 63.84 100.16 63.69 98.3 64.05 97.9 64.93 97.87 65.93 97.95 66.7 97.91 69.95 97.24 76.58 96.63 79.9 95.6 82.37 96.07 84.65 94.45 88.46 90.13 91.05 91.05 92.71 89.78 93.98 88.3 95.4 88.58 94.75 89.49 93.42 90.9 Z M 351.09 49.13 351.9 50.5 351.81 51.7 350.97 52.66 348.46 52.38 345.79 51.86 337.12 53 338.94 53.84 340.24 55.52 339.89 57.35 337.19 58.98 335.64 60.36 334.69 61.88 332.85 63.11 329.35 63.56 327.1 62.56 324.14 59.51 320.15 59.1 317.02 58.19 315.02 57.15 313.19 56.01 313.19 55.31 316.97 54.86 320.69 52.89 323.55 51.49 328.11 51.34 330.73 50.9 332.73 49.68 341.12 49.71 345.69 48.36 348.81 48.32 350.11 48.59 351.09 49.13 Z M 238.37 120.58 234.61 122.92 229.35 125.37 225.58 128.32 217.83 130.99 211.09 131.43 208.34 131.9 203.84 133.35 200.08 135.81 195.38 136.23 193.46 135.98 190.43 135.05 185.47 135.79 179.87 132.25 176.18 133.38 174.01 132.98 174.82 130.51 177.77 128.63 175.55 127.43 162.7 127.36 159.56 125.41 160.26 122.72 158.59 121.69 155.32 121.54 154.41 122.66 155.41 124.25 152.68 126.81 148.41 125.53 140.31 123.32 140.3 123.29 138.01 120.37 136.9 119.68 136.31 119.42 134.07 119.59 129.52 120.75 128.4 121.64 125.95 122.51 123.56 122.59 122.57 121.14 123.84 119.77 129.04 118.02 130.22 116.12 130.87 114.54 130.64 113.76 127.81 113.2 126.65 112.64 125.67 111.89 124.89 111.11 124.3 110.36 123.65 109.21 123.23 107.87 123.35 106.47 123.93 106.1 126.52 103.85 126.82 103.31 127.35 102.73 127.26 101.42 126.73 100.12 126.01 99.53 124.68 99.37 123.68 98.99 121.86 97.91 123.97 95.09 126.08 92.84 128.37 91.02 131.88 89.04 132.67 88.78 133.52 88.63 134.5 88.58 135.1 88.22 135.73 86.62 136.09 86.26 152.86 83.18 156.6 83.24 169.79 86.26 169.79 87.1 168.35 87.63 168.25 88.33 169.12 88.99 170.64 89.42 172.18 89.34 173.29 88.76 177.41 85.17 179.28 83.13 181.35 81.51 185.78 80.61 189.52 79.31 194.93 80.09 206.99 79.31 200.3 75.91 196.92 75.21 194.63 74.15 193.41 73.91 192.5 74.18 188.53 77.14 186.35 78.38 183.94 79.01 181.83 78.12 179.78 76.98 177.63 77.3 173.67 79.31 169.12 80.36 159.3 80.44 133.42 85.55 131.19 85.67 129.04 85.14 116.39 79.31 117.11 80.8 116.2 81.57 112.47 82.4 109.71 83.55 108.27 83.93 106.35 83.95 107.06 83.24 105.03 82.52 103.08 82.76 101.14 83.62 99.28 84.78 97.45 84.67 95.13 85.92 93.16 87.27 92.32 87.49 91.35 85.98 89.11 85.39 86.53 85.54 84.6 86.26 86.26 87.24 82.15 89.34 76.54 90.97 72.51 90.32 69.86 90.64 67.21 91.3 65.99 92.12 65.38 94.31 63.86 95.65 62.07 96.66 60.6 97.91 59.96 101.13 59.83 101.39 59.63 102.37 59.11 102.93 58.36 103.4 54.78 106.47 52.23 106.59 51.01 106.91 50.5 107.56 49.65 108.01 47.79 108.43 45.93 109.2 45.09 110.68 46.05 114.51 45.94 116.31 44.24 117.35 44.24 118.05 48.76 117.8 49.8 118.05 50.64 119.43 49.96 120.39 48.49 120.96 47.02 121.14 45.69 120.91 43.04 119.84 41.58 119.59 40.23 119.82 37.96 120.84 36.53 121.14 36.53 121.98 41.92 121.14 43.54 121.43 45.91 122.46 47.02 122.69 55 120.77 56.66 121.14 56.98 121.97 56.66 124.12 56.66 125.07 58.36 126.57 59.13 127.66 57.45 129.32 56.29 130.11 54.78 130.48 53.17 130.61 52.18 130.97 52.23 131.45 53.64 131.96 51.35 131.98 48.21 130.37 45.44 128.3 44.24 126.97 43.21 125.28 40.67 123.92 37.49 123.02 34.6 122.69 32.59 122.09 30.2 120.66 27.97 118.91 26.5 117.35 25.24 113.28 24.52 112.65 22.98 112.36 19.8 111.19 17.92 111.11 19.55 115.27 20.13 117.72 19.85 119.25 18.17 119.41 17.32 117.03 17.08 111.81 18.4 107.14 20.94 103.66 41.22 85.49 47.31 82.02 56.66 73.91 60.25 72.04 64.3 72.08 73.72 73.91 79.01 74.09 89.24 72.81 93.78 71.53 99.21 68.23 101.24 67.73 129.52 69.98 139.8 69.31 150.04 67.23 159.73 63.66 168.26 58.47 192.59 34 196.89 30.54 204.68 25.83 208.59 21.77 210.09 21.2 212.78 19.07 218.26 18.47 228.69 18.89 238.86 17.95 248.13 15.73 256.16 12.55 269.94 4.86 277.47 1.83 280.53 1.19 283.91 1 287.19 1.41 289.89 2.6 283.73 3.86 277.86 6.91 268.58 14.64 265.19 21.42 268.34 26.52 274.07 31.21 278.32 36.72 275.02 41.69 275.08 47.58 277.47 59.17 275.54 60.86 269.76 63.19 267.04 65.03 263.04 69.6 261.24 72.68 259.94 77.55 257.14 82.98 255.77 84.78 254.82 85.57 253.9 86.01 252.66 86.22 247.33 86.18 245.69 86.41 243.63 86.75 234.16 83.24 227.15 79.1 222.48 78.05 218.71 75.94 215.91 75.45 213.63 76.16 210.43 79.02 208.25 79.31 210.35 79.46 212.74 77.77 214.72 77 216.74 76.45 219.08 76.99 230.23 83.44 233.93 84.44 238.27 86.61 240.76 87.1 249.88 87.23 251.99 87.88 248.82 90.04 248.13 90.97 247.58 92.46 246.97 95.55 246.58 96.37 247.4 98.22 248.63 103.99 249.12 108.54 249.92 110.94 252.7 115.73 253.66 116.49 254.76 117.15 255.03 117.9 253.47 118.89 252.55 118.93 249.89 118.24 248.47 118.05 243.38 118.05 241.6 118.49 239.57 119.59 237.66 118.48 235.53 117.59 233.08 117.33 230.23 118.05 227.71 119.17 226.65 119.4 224.83 119.59 223.12 120.06 219.63 121.64 215.49 122.47 210.36 124.59 194.57 125.85 194.57 126.62 199.71 127.13 216.68 124.23 220.47 122.93 222.12 122.69 222.5 122.44 222.56 121.91 222.78 121.38 223.62 121.14 224.54 121.27 226.05 121.85 226.76 121.98 227.97 121.82 229.36 121.36 230.51 120.73 231 119.99 231.76 118.46 233.54 118.23 237.25 118.89 236.96 119.3 236.39 120.37 238.36 120.58 238.37 120.58 Z" fill-rule="evenodd" id="DNK-3418" data-name="Nordjylland"/>
<path d="M 769.33 285.71 773.61 287.68 776.72 287.29 778.88 287.64 780.73 289.92 781.94 290.78 783.34 291.3 791.44 294.6 796.76 295.64 799 297.02 798.47 297.58 798.23 297.97 797.98 298.27 797.45 298.57 798.28 300.22 798.59 301.27 798.25 302.23 797.07 303.62 794.64 305.91 793.94 307.03 794.36 307.97 794.36 308.67 794.69 310.01 792.89 311.2 791.69 312.17 790.1 313.03 784.56 312.16 779.95 311.97 773.66 310.54 765.9 307.76 757.1 306.3 747.91 302 746.17 300.62 747.63 298.21 748.12 293.46 748.61 286.57 749.01 285.42 749.94 284.18 752.15 281.93 753.06 280.25 753.86 278.3 754.85 277.11 756.4 277.72 760.96 281.51 762.54 282.49 765.08 284.02 769.33 285.71 Z M 508.02 249.44 505.57 249.84 503.14 247.71 501.52 244.61 501.48 242.07 502.71 240.63 504.17 239.67 505.62 238.93 506.82 238.13 508.04 236.73 509.95 233.91 511.46 232.81 511.93 233.48 512.1 233.79 512.29 234.27 518.86 243.61 518.94 244.1 514.96 246.7 513.24 247 511.15 247.71 509.25 248.61 508.02 249.44 Z M 439.57 230.51 434.17 228.64 432.38 228.34 432.21 228.47 432.01 228.76 430.62 229.13 426.34 229.31 426.2 229.3 426.2 229.3 426.32 229.22 426.07 228.41 425.02 226.98 424.78 226.55 425.14 225.26 426.01 223.63 427.87 221.09 429.55 220.08 433.55 219.43 435.58 218.77 437.42 215.58 435.1 211.89 432.43 208.57 433.26 206.41 435.28 206.51 439.27 208.89 441.38 209.51 442.46 210 442.43 211.14 441.97 212.41 441.76 213.29 442.25 214.72 442.68 215.23 443.22 215.58 444.07 216.45 446.2 219.75 448.2 224.41 448.54 228.79 445.62 231.19 441.53 230.35 439.57 230.51 Z M 483.28 243.72 483.27 243.72 478.47 242.37 474.47 242.09 471.16 242.39 469.78 241.8 467.56 242.55 465.4 242.62 461.91 241.73 461.79 240.39 461.26 239.9 461.05 239.29 461.19 238.51 461.33 238.06 461.5 237.71 461.56 237.44 461.47 237.18 461.38 236.97 460.52 236.26 464.45 234.48 467.05 233.89 471.49 232.05 471.84 231.55 471.58 231.29 469.4 230.54 469 230.28 468.73 230.01 468.49 229.72 468.29 229.11 469.85 228.27 461.64 227.44 459.8 226.42 455.43 224.02 451.29 224.01 451.27 224.01 448.71 217.29 448.71 213.29 448.3 211.67 445.62 205.64 443.86 204.07 441.81 203.47 439.35 203.55 430.71 205.54 427.45 205.87 425.55 204.87 427.46 202.09 433.32 199.28 444.07 195.54 461.36 187.28 470.38 184.45 479.8 184.66 489.58 187.81 497.63 187.81 499.81 188.48 503.77 190.49 507.12 191.29 512.99 194.06 511.46 195.84 506.82 199.4 505.16 201.31 502.09 205.81 500.64 207.12 500.64 207.96 503.76 210.51 505.36 212.25 506.05 213.72 506.56 215.84 507.8 218.33 509.34 220.55 510.76 221.92 510.28 223.03 510.04 224.54 509.91 226.94 509.27 228.89 509.14 229.64 509.29 230.19 509.69 230.77 510.76 231.96 508.38 233.72 503.84 238.71 499.57 240.39 498.83 241.78 497.75 243.13 495.24 243.61 493.39 243.24 492.05 242.61 490.57 242.11 488.3 242.07 483.28 243.72 Z" fill-rule="evenodd" id="DNK-3419" data-name="Hovedstaden"/>
<path d="M 358.54 317.22 363.91 319.72 365.89 320.26 367.91 321.23 371.3 325.53 374 326.5 376.71 326.86 396.84 333.44 395.75 331.47 394.45 330.25 394.35 329.27 396.84 328.04 399.93 328.04 402.67 327.3 403.8 327.2 402.77 325.98 402.5 324.56 402.67 323.13 403.02 321.86 411.65 326.4 412.35 328.04 415.03 330.05 416.73 330.82 418.61 331.13 417.47 331.76 416.99 331.91 418.65 333.92 424.32 336.64 425.55 337.73 425.85 339.58 426.32 340.41 426.32 341.08 425.16 342.4 423.87 343.23 422.71 343.5 421.71 343.89 420.84 345.1 425.3 346.25 424.87 348.69 421.26 351.08 416.22 352.05 398.62 349.8 392.92 350.57 387.51 352.05 383.23 354.36 380.68 354.11 370.15 350.47 363.25 346.96 350.82 342.36 345.22 341.64 339.16 340 333.04 339.15 330.64 337.91 329.5 336.19 330.24 334.28 333.07 333.32 336.52 333.64 339.73 333.5 341.82 331.13 339.99 330.74 338.45 330.05 332.44 325.71 331.72 324.95 331.72 323.01 333.25 321.21 337.96 317.94 339.56 318.4 355.79 316.46 358.54 317.22 Z M 503.45 311.81 505.27 315.69 505.05 316.93 504.02 317.61 502.16 317.89 499.51 317.94 486.15 316.26 482.06 316.6 478.17 317.64 474.33 319.48 468.31 324.22 466.16 324.95 462.87 324.64 455.67 322.57 455.67 321.86 457.27 321.86 456.76 320.71 457.24 319.81 458.29 319.18 459.52 318.77 458.95 318.44 457.88 317.56 457.27 317.24 459.78 315.6 461.25 315.18 462.68 315.69 463.51 314.85 462.68 313.3 464.5 313.4 467.23 314.5 468.92 314.85 470.05 314.73 473.73 313.84 475.1 313.3 474.49 312.19 474.47 311.28 474.96 310.6 475.93 310.21 475.93 309.44 472.24 307.92 471.24 307.13 470.66 305.99 471.04 305.22 472.29 304.82 474.33 304.82 476.79 307.33 480.58 308.32 489.83 308.67 499.74 309.85 503.45 311.81 Z M 426.2 229.3 426.34 229.31 430.62 229.13 432.01 228.76 432.21 228.47 432.38 228.34 434.17 228.64 439.57 230.51 438.74 232.38 437.93 233.68 433.96 235.86 432.51 237.44 434.8 237.72 438.05 236.88 440.65 235.32 440.99 233.51 442.79 233.08 444.65 233.42 446.27 234.38 447.23 235.82 443.71 235.14 443.24 235.4 443.95 236.44 445.67 237.22 449.48 238.13 450.48 235.76 453.07 232.17 453.41 229.64 451.27 224.01 451.29 224.01 455.43 224.02 459.8 226.42 461.64 227.44 469.85 228.27 468.29 229.11 468.49 229.72 468.73 230.01 469 230.28 469.4 230.54 471.58 231.29 471.84 231.55 471.49 232.05 467.05 233.89 464.45 234.48 460.52 236.26 461.38 236.97 461.47 237.18 461.56 237.44 461.5 237.71 461.33 238.06 461.19 238.51 461.05 239.29 461.26 239.9 461.79 240.39 461.91 241.73 465.4 242.62 467.56 242.55 469.78 241.8 471.16 242.39 474.47 242.09 478.47 242.37 483.27 243.72 483.28 243.72 480.13 244.76 477.94 246.05 470.75 250.32 470.73 250.33 465.06 256.96 468.09 262.91 473.58 265.7 475.52 266.07 482.47 266.35 484.37 266.84 489.26 269.21 491.82 270.96 492.93 272.64 493.13 274.58 493.64 276.22 495.24 279.26 493.57 280.46 492.93 280.81 487.04 283.21 463.33 286.39 461.55 287.51 458.65 288.56 456.36 290.48 455 292.78 455.67 294.7 454.81 295.68 453.85 296.09 452.85 296 451.79 295.48 452.63 293.05 451.33 291.51 449.04 291.09 446.82 292.01 445.81 292.56 444.93 292.75 444.32 293.15 444.07 294.32 444.69 294.78 447.94 296.24 457.42 296.72 461.73 297.56 462.68 300.18 462.04 301.29 461.33 301.76 460.5 302 459.52 302.43 457.19 303.17 456.06 303.77 456.88 304.04 461.13 309.44 461.01 311.59 459.5 312.75 457.19 313.22 454.54 313.3 452.79 313.7 448.99 315.39 446.39 315.69 442.44 314.74 436.32 311.39 432.51 310.99 432.43 311.52 432.62 311.65 432.92 311.65 433.26 311.76 432.64 311.98 432.3 312.24 431.88 312.47 431.03 312.6 431.53 314.75 430.72 316.04 429.66 317.16 429.41 318.77 430.24 320.04 431.73 320.79 433.44 320.91 434.88 320.26 434.59 319.84 434.03 318.77 435.02 318.7 437.9 317.94 438.82 318.57 440.43 320.65 440.65 321.09 441.7 321.54 445.37 323.61 447.23 324.18 449.33 324.03 451.52 323.63 453.57 323.61 455.31 324.57 458.48 327.36 461.91 329.66 461.91 330.36 451.9 335.1 450.26 336.19 445.83 341.08 445.23 342.01 444.1 342.49 441.06 344.61 439.87 345.1 438.22 346.67 438.17 350.26 439.43 356.68 439.16 360.73 436.9 360.86 434.55 359.13 434.03 357.52 432.41 356.24 428.71 352 427.87 350.57 428.03 348.23 429.4 346.41 432.51 343.56 430.21 343.27 428.62 342.64 428.23 341.49 429.41 339.63 428.13 339.18 427.43 338.6 426.32 337.31 421.08 334.14 420.66 333.62 420.16 332.68 419.92 331.77 420.06 331.17 420.03 330.56 419.31 329.66 417.34 328.35 415.59 327.55 414.36 326.43 413.9 324.18 413.87 322.11 413.49 320.51 412.35 319.4 410.03 318.77 410.03 317.94 414.37 315.96 415.45 315.69 417.07 316.04 419.26 317.59 420.5 317.94 421.72 317.5 424.3 315.91 424.78 316.08 425.51 316.7 427.11 316.19 429.41 314.85 429.41 314.15 428.23 313.26 426.1 309.81 424.78 308.67 417.18 306.59 415.03 306.35 414.42 306.11 412.92 305.05 411.99 304.82 404.84 304.58 402.71 303.9 400.87 302.91 399.23 301.65 405.3 302.4 417.25 305.59 423.16 306.35 420.65 303.73 413.65 300.72 410.73 297.87 420.5 296.84 421.13 296.38 420.84 295.48 418.4 294.31 411.97 294.58 410.03 293.1 411.71 292.08 412.67 290.75 412.48 289.45 410.73 288.53 408.19 288.56 406.28 289.54 404.65 290.79 403.02 291.62 401.53 291.55 397.36 290.45 388.86 289.23 386.81 288.53 385.26 289 377.44 286.99 375.99 287.19 372.9 288.21 371.3 288.53 363.51 288.53 363.51 289.3 365.83 290.07 361.92 289.99 359.1 289.4 357.34 287.8 356.56 284.67 358.21 285.37 359.88 285.41 361.26 284.68 361.96 283.13 360.8 283.63 359.6 283.88 356.95 283.96 356.59 283.35 356.9 280.59 356.18 279.97 354.14 279.27 347.92 275.99 346.87 274.95 347.9 274.67 349.54 274.56 350.88 274.17 351.09 273.02 350.2 272.46 348.58 272.19 346.85 272.14 345.69 272.25 344.9 272.86 344.39 273.81 343.56 274.56 341.82 274.56 341.11 274.05 339.51 271.54 339.51 270.7 342.55 270.88 344.17 270.79 345.3 270.32 346.29 269.58 347.59 268.97 349.01 268.54 350.31 268.39 352.7 267.78 353.81 266.42 353.69 265.07 352.31 264.46 352.75 263.31 351.8 260.77 349.54 256.74 348.12 255.33 346.68 254.38 344.92 253.84 342.59 253.65 340.58 254.47 339.29 254.69 338.74 254.07 338.95 252.54 339.6 251.72 340.69 251.4 342.21 251.33 345.19 250.69 346.38 249.07 346.06 246.94 344.53 244.77 339.53 241.19 334.03 239.33 321.67 237.44 321.67 236.59 339.51 237.44 337.62 235.54 330.57 233.8 327.85 232.81 326.68 231.71 326 230.85 325.09 230.18 323.21 229.64 317.32 229.4 315.51 228.8 315.51 228.1 333.33 229.64 337.02 229.29 344.08 227.69 348 227.34 348 228.1 346.74 228 345.55 228.04 344.39 228.29 343.37 228.8 345.14 230.78 348.07 232.32 351.37 232.89 354.24 231.96 349.54 229.64 351.09 228.8 352.15 229.41 354.03 229.68 358.11 229.64 359.94 229.23 363.79 227.67 367.66 227.17 369.42 226.62 370.75 225.57 371.3 223.89 371.42 223.01 371.96 221.45 372.07 220.73 371.66 219.83 369.69 218.21 368.98 217.29 371.87 218.37 374.64 218.64 377.28 218.01 379.72 216.45 383.59 216.93 386.72 213.85 387.32 209.38 383.57 205.64 380.29 204.87 373.04 204.57 364.03 202.65 361.47 201.39 360.42 199.4 374.88 203.31 377.86 202.91 395.29 204.45 397.36 205.56 402.06 205.41 410.03 204.03 414.15 202.6 416.47 202.34 417.76 203.32 417.27 204.45 414.09 206.61 413.13 207.96 414.45 209.14 413.72 209.89 411.89 210.06 410.03 209.51 410.27 209.09 410.73 207.96 407.14 208.07 405.67 208.52 404.57 209.51 410.17 215.06 412.32 218.15 410.73 220.38 409.01 220.55 405.49 220.01 403.8 220.38 401.73 222.07 400.4 222.69 398.31 222.7 398.31 223.54 400.18 223.88 405.76 223.54 407.27 223.16 409.06 222.37 411.05 221.78 413.13 221.92 413.88 222.83 415.06 224.69 415.94 226.51 415.83 227.34 406.74 228.26 404.73 228.73 403.91 229.44 405.34 230.35 406.97 230.49 412.05 230.27 413.13 229.99 413.98 229.42 415.87 230.51 418.61 232.81 419.42 234.3 419.35 234.85 418.68 235.54 417.76 237.44 419.78 236.37 421.24 235.29 425.96 229.44 426.2 229.3 Z" fill-rule="evenodd" id="DNK-3420" data-name="Sjaælland"/>
</g>
</svg>