<?xml version="1.0"?>
<svg xmlns="http://www.w3.org/2000/svg" version="1.2" baseProfile="tiny" width="800" height="703" viewBox="0 0 800 703" stroke-linecap="round" stroke-linejoin="round">
<g id="ne_10m_admin_1_states_provinces">
<path d="M 247.38 226.72 245.62 225.79 243.36 225.58 241.21 225.63 239.75 225.49 237.84 223.51 239.1 221.28 241.88 219.37 244.52 218.34 246.23 218.07 250.17 216.74 251.94 216.56 256.93 216.74 261.87 215.92 263.69 215.95 265.32 216.47 268.11 218.01 272.57 218.94 271.3 220.34 259.09 225.53 256.27 225.46 252.55 223.98 251.88 224.95 250.54 226.34 248.92 227.23 247.38 226.72 Z" id="BHS-5009" data-name="New Providence"/>
<path d="M 117.09 47.26 115.98 47.92 113.49 49.05 111.46 50.36 110.26 48.51 112.68 45.54 115.38 45.54 117.09 47.26 Z" id="BHS-5010" data-name="City of Freeport"/>
<path d="M 117.09 47.26 115.38 45.54 112.68 45.54 110.26 48.51 111.46 50.36 110.37 51.18 107.93 51.37 106.83 51.86 102.07 51.45 97.43 49.98 94.6 47.46 89.54 44.67 77.3 33.35 71.74 29.22 70.51 27.46 71.76 27.44 72.78 27.69 73.64 28.21 74.41 29.05 89.39 37.57 92.86 41.85 95.17 41.47 97.02 41.21 100.77 42.67 103.55 42.7 106.18 41.6 108.57 40.09 110.17 39.43 111.53 38.67 112.44 38.14 112.88 37.19 114.35 36.12 114.65 34.66 116.35 33.38 117.78 30.76 119.94 29.46 119.67 28.23 116.87 26.66 112.02 25.87 112.83 24.36 116.01 21.1 116.69 19.66 117.59 14.74 119.81 16.16 121.86 18.46 123.36 20.97 123.96 23.05 126.16 24.24 131.5 26.13 134.83 32.14 138.87 39.94 128.12 42.41 126.02 42.72 123.84 43.35 120.31 46.08 118.03 46.7 117.09 47.26 Z" id="BHS-5011" data-name="West Grand Bahama"/>
<path d="M 204.61 39.87 204.6 40.37 204.05 41.21 203.61 42.45 202.87 43.45 202.12 43.48 201.87 43.15 201.6 42.7 200 40.95 199.47 39.96 199.24 38.97 199.86 38.5 203.38 37.9 203.9 38.45 202.82 39.66 202.58 40.01 203.44 39.52 203.82 39.18 204.44 38.62 205.72 37.69 206.06 38.04 205.01 39.18 204.61 39.87 Z M 196.01 25.64 198.09 29.76 198.19 32 197.21 33.87 195.05 34.7 194.21 34.4 192.24 32.88 191.15 32.31 189.65 32.07 182.04 32.46 175.09 33.9 159.09 36.78 152.6 36.79 138.87 39.94 134.83 32.14 131.5 26.13 135.77 27.64 138.19 27.06 143.56 28.25 149.5 29.19 153.33 29.31 154.9 27.2 157.31 26.11 160.95 27.58 163.17 27.95 167.32 26.4 172.92 27.11 176.62 26.09 180.33 24.58 182.69 24.29 190.09 24.17 191.88 23.49 192.98 22.19 193.77 20.69 194.81 19.4 196.64 18.71 196.91 20.87 196.33 23.25 196.01 25.64 Z" fill-rule="evenodd" id="BHS-5012" data-name="East Grand Bahama"/>
<path d="M 265.1 26.55 259.57 27.67 259.03 28.12 258.46 28.74 257.77 29.05 255.39 28.85 253.56 28.18 252.74 26.97 253.42 25.15 251.49 21.2 246.19 13.25 243.01 9.88 241.04 8.6 238.5 7.74 235.9 7.67 233.75 8.73 231.73 9.38 228.96 8.98 222.11 6.95 220 6.71 215.38 6.7 214 6.32 210.71 4.34 208.65 3.52 206.52 3.21 197.3 3.84 193.6 5.06 191.15 5.12 191.49 4.67 191.84 4.49 192.68 4.32 196.87 1.87 202.15 1 213.06 1.14 223.8 3.33 229.92 3.82 232.6 1.93 238.81 4.54 243.73 7.86 265.1 26.55 Z" id="BHS-5014" data-name="North Abaco"/>
<path d="M 275.62 53.94 275.8 54.38 275.75 54.49 275.53 54.4 275.1 54.35 275 54.53 275.26 54.73 275.29 54.81 275.05 54.86 274.94 56.23 275.22 57.59 274.57 58.07 274.12 58.12 273.65 58.13 272.63 57.66 272.15 56.37 271.58 55.5 270.89 54.91 271.07 54.42 271.57 54.48 272.13 54.12 272.8 53.5 273.74 53.25 274.85 53.43 275.62 53.94 Z M 273.12 30.33 271.55 30.76 267.74 30.64 269.45 33.8 271.86 36.35 274.89 38.05 282.01 39.24 285.22 40.66 290.82 44.31 295.09 46.43 296.46 47.5 297.51 49.02 298.38 51.15 298.4 53.04 296.86 53.86 296.49 54.67 296.46 59.87 296.86 61.77 297.92 63 299.47 63.75 301.31 64.21 299.81 66.92 299.63 67.78 276.44 75.96 276.12 74.46 274.14 72.71 277.84 67.78 277.69 66.66 276.67 65.26 276.5 57.04 278.21 57.02 279.47 56.36 280.45 55.25 281.27 53.86 281.39 53.28 281.27 51.04 281.59 50.23 282.32 49.75 283.15 49.43 283.73 49.08 284.91 47.26 285.42 45.16 284.58 43.44 280.45 42.46 277.73 41.32 266.94 39.89 264.89 38.74 263.58 36.76 262.18 33.9 262.71 33.19 262.84 32.24 262.52 31.23 261.19 29.68 260.6 28.43 260.18 27.86 259.57 27.67 265.1 26.55 267.52 28.03 270.26 28.82 274.11 29.05 273.12 30.33 Z" fill-rule="evenodd" id="BHS-5015" data-name="Central Abaco"/>
<path d="M 276.44 75.96 299.63 67.78 299.9 69.05 300.47 69.85 301.05 70.42 301.31 71.01 301.44 71.95 301.59 72.4 301.39 72.86 300.43 73.82 299.5 74.53 298.53 74.95 296.46 75.34 296.7 74.85 297.25 73.1 293.47 73.51 289.88 75.34 286.69 77.93 284.09 80.59 282.99 83.47 281.96 92.37 282.14 94.58 280.91 101.15 281.5 110.53 281.09 118.94 276.9 122.58 273.83 121.12 271.12 117.81 269.2 114.17 268.47 111.76 266.6 110.24 258.08 108.55 255.74 105.72 257.62 105.71 259.74 105.05 261.47 103.84 262.77 100.96 264.21 100.6 265.9 100.42 267.31 99.79 271.57 95.4 274.31 93.33 277.29 92.19 276.53 91.24 276.07 90.28 275.83 89.18 275.77 87.78 275.31 86.98 274.32 86.29 273.43 85.42 273.24 84.16 273.97 82.85 275.05 81.86 276.06 80.75 276.5 79.04 276.44 75.96 Z" id="BHS-5016" data-name="South Abaco"/>
<path d="M 240.62 73.46 240.12 74.35 236.57 77.87 237.24 75.28 236.64 73.66 235.8 72.13 235.78 69.85 236.85 70.42 239.97 72.77 240.62 73.46 Z" id="BHS-5017" data-name="Moore&apos;s Island"/>
<path d="M 205.18 176.39 204.03 177.62 202.62 178.18 200.83 178.19 199.79 178.08 197.65 178.04 197.75 177.82 198.44 177.3 199.32 176.92 200.03 176.87 201.37 176.97 203.2 176.86 204.58 176.09 205.48 175.03 205.8 175.08 205.18 176.39 Z M 207.66 142.21 207.85 143.26 206.43 143.13 204.96 141.57 203.09 138.49 200.71 136.1 199.92 134.65 200.69 133.71 202.16 133.96 203.3 135.14 207.66 142.21 Z" fill-rule="evenodd" id="BHS-5018" data-name="Berry Islands"/>
<path d="M 216.87 268.28 206.12 266.61 193.49 267.84 183.31 270.28 178.42 272.73 175.16 278.43 171.12 283.79 169.02 285.29 167.58 286.84 165.81 288.06 162.73 288.56 160.4 288 145.81 280.43 138.84 274.53 136.62 272.11 135.17 269.47 136.73 269.12 139.14 268.11 141.36 266.88 142.33 265.86 142.69 264.23 143.54 264.38 144.62 265.16 145.58 265.42 146.83 264.71 147.74 263.84 147.94 262.75 147.1 261.44 148.63 259.43 150.49 259.49 152.07 261.04 152.74 263.47 152.6 265.47 152.17 267.22 151.42 268.79 150.36 270.27 148.31 271.57 147.97 271.86 148.2 273.01 148.76 274.03 149.61 274.45 152.75 272.63 154.48 272.18 155.43 271.25 155.13 268.67 157.4 269.67 157.42 271.76 156.81 274.21 157.16 276.27 159.09 277.35 160.19 275.88 160.46 273.31 159.9 271.06 161.02 271.52 162.23 272.18 163.28 272.47 163.88 271.86 163.81 270.18 162.96 269.02 161.78 268.09 160.77 267.08 160.62 266.39 160.89 264.62 160.77 263.9 160.06 263.03 158.24 261.5 157.52 260.65 157.06 259.02 156.73 257.18 156.02 256.09 154.34 256.67 155.57 257.63 156 259.45 155.93 263.9 154.83 262.66 154.08 260.76 153.17 259.02 151.55 258.26 151.35 257.38 151.69 255.39 152.74 251.89 154.53 250.19 157.08 248.26 158.86 245.95 158.38 243.07 159.49 242.36 162.53 241.82 163.16 241.11 163.52 239.64 165.11 236.81 165.47 235.19 166.52 235.08 166.1 234.17 165.17 232.95 164.68 231.93 164.92 231.01 165.55 229.38 166.45 227.85 167.5 227.16 168.41 225.69 168.15 222.41 167.06 217.18 165.81 213.49 163.37 208.65 161.81 204.2 163.16 201.62 165.12 201.72 169.36 202.46 171.12 203.14 172.55 204.37 173.34 205.67 174.31 206.71 176.25 207.13 178.02 206.44 179.74 205.16 181.52 204.38 183.52 205.17 185.01 206.16 186.64 206.96 188.22 207.97 189.48 209.58 187.74 211.4 187.45 213.46 188.37 215.37 190.29 216.74 188.82 221.34 188.35 224.21 189.05 225.49 191.18 225.79 192.93 226.74 194.45 228.48 201.54 244.52 206.69 251.56 208.63 253.46 210.61 254.28 212.01 255.05 216.33 258.98 217.41 260.65 217.53 262.75 217.34 265.6 216.87 268.28 Z" id="BHS-5019" data-name="North Andros"/>
<path d="M 209.81 313.75 209.11 314.34 207.06 314.89 206.1 314.91 205.6 314.51 205.01 314.31 203.81 314.89 203 315.99 201.88 319.18 200.69 320.53 199.18 321.54 193.24 324.27 191.15 324.51 190.39 323.65 189.79 322.1 189.56 320.47 189.89 319.38 190.95 319.26 192.41 319.63 193.71 319.68 194.26 318.58 195.42 318.18 201.82 314.17 202.37 313.95 204.26 312.94 205.47 312.57 210.24 312.57 209.81 313.75 Z M 193.56 314.22 194.26 315.76 192.58 315.38 189.63 315.77 187.9 315.76 186.63 315.27 185.28 314.31 184.81 313.29 186.23 312.57 189.26 312.03 192.28 310.72 194.69 310.11 195.92 311.71 194.2 311.76 193.47 312.74 193.56 314.22 Z M 204.42 304.07 202.25 305.01 200.34 304.1 200.35 302.49 202.03 301.82 205.46 301.45 206.26 301.51 205.78 302.37 204.42 304.07 Z M 223.79 301.13 223.77 302.16 222.87 302.8 221.67 302.45 220.43 301.75 219.43 301.36 217.37 301.49 216.15 301.93 213.86 304.18 211.62 305.58 210.11 305.27 209.57 304.11 210.24 302.96 212.81 301.79 214.98 300.36 217.17 299.46 219.5 298.92 221.38 299.06 222.19 299.46 223.13 300.2 223.79 301.13 Z M 184.71 310.19 183.59 310.44 182.48 310.08 181.48 309.38 180.74 308.6 179.41 305.39 178.66 301.41 177.45 298.02 174.73 296.59 171.15 295.17 170.37 291.73 171.12 283.79 175.16 278.43 178.42 272.73 183.31 270.28 193.49 267.84 206.12 266.61 216.87 268.28 216.17 269.87 215.5 272.09 216.44 274.94 219 279.89 219.56 284 218.49 286.98 215.79 288.81 211.4 289.43 209.61 289.94 208.39 291.12 207.37 292.45 206.19 293.4 202.65 293.83 201.74 294.84 203.09 297.39 201.69 298.69 197.44 301.36 195.34 301.95 191.28 301.98 189.89 302.56 185.3 305.63 184.71 306.57 184.95 307.59 185.34 308.53 185.42 309.39 184.71 310.19 Z" fill-rule="evenodd" id="BHS-5020" data-name="Central Andros"/>
<path d="M 216.61 338.11 212.24 341.27 207.46 344.55 205.75 344.01 205.69 342.72 206.19 341.12 206.19 339.7 204.87 338.35 203.26 337.47 202.34 336.7 203.09 335.72 203.09 334.93 200.81 333.62 193.54 330.95 194.23 330.07 195.05 329.28 196.72 330.29 197.38 329.97 197.47 329.12 197.44 328.56 197.51 327.47 197.18 326.94 197.16 326.41 198.17 325.38 199.35 324.8 202.5 323.83 203.81 322.92 204.27 321.93 205.03 319.06 205.47 318.15 209.46 317.89 210.97 317.35 212.14 316.42 212.55 315.69 212.8 314.79 213.5 313.37 215.25 312.03 220.06 310.18 221.38 308.6 224.64 306.94 225.72 308.51 226.58 310.37 227.54 311.92 228.98 312.57 229.76 313.21 228.65 314.59 221.46 320.07 218.6 321.52 215.02 322.13 215.02 322.92 217.08 323.07 217.95 323.94 217.44 324.92 215.38 325.38 214.92 325.84 216.14 326.88 219 328.56 220.85 327.82 221.48 329.1 221.18 331.21 219.27 334.52 218.88 336.03 218.27 337.27 216.61 338.11 Z" id="BHS-5021" data-name="Mangrove Cay"/>
<path d="M 207.46 344.55 212.24 341.27 216.61 338.11 218.78 338.67 220.63 337.15 224.24 330.38 226.67 327.85 227.82 326.17 228.28 323.88 228.42 320.94 228.83 318.18 230.21 316.48 232.52 316.81 234.26 319.14 235.67 322.06 236.97 324.15 238.45 325.8 239.28 327.57 239.66 329.62 239.89 333.47 240.48 335.93 240.62 336.95 240.48 338.29 239.89 340.52 239.75 341.73 240.13 342.37 241.76 344.58 242.14 345.69 241.76 347.07 240.94 348 240.13 348.58 239.75 348.92 238.55 349.43 236.01 349.49 233.74 350.35 233.31 353.3 237.39 350.63 239.8 349.63 242.14 350.04 243.12 351.7 242.41 356.11 243.01 358.07 241.02 362.22 239.46 362.95 236.57 362.12 236.96 363.58 239.07 365.18 239.75 366.9 239.58 368.46 238.92 370.18 238.08 371.64 237.37 372.46 233.71 373.63 230.93 372.53 228.39 370.8 225.43 370.07 227.44 372.31 227.4 373.34 226.3 374.85 225.43 374.85 223.5 372.37 220.04 371.52 212.63 371.74 216.61 370.07 216.02 368.08 218.52 368.14 224.64 370.07 225.35 367.96 226.53 366.47 228.15 365.38 234.41 362.64 236.17 361.37 236.17 360.06 234.09 359.32 232.04 360.4 230.07 362.02 228.18 362.84 221.38 366.9 221.84 367.22 222.18 367.62 219.39 367.31 216.58 363.64 214.22 362.84 221.88 360.29 225.75 358.15 226.3 355.68 224.63 357.33 222.35 358.01 216.17 358.07 214.51 358.37 213.09 358.93 211.74 359.29 210.24 358.94 209.3 358.01 208.59 356.61 206.89 348.78 206.74 345.83 207.46 344.55 Z" id="BHS-5022" data-name="South Andros"/>
<path d="M 382.67 344.55 381.95 345.27 380.2 343.62 378.05 339.48 376.14 336.81 374.71 333.34 373.51 331.46 373.06 330.25 373.06 328.56 375.93 330.43 382.67 344.55 Z M 364.88 315.72 365.89 317.35 363.7 317.33 362.37 316.74 357.47 310.97 356.38 309.26 356.34 307.8 358.13 308.75 359.2 310.2 360.01 311.84 361.12 313.37 362.5 314.37 363.75 314.94 364.88 315.72 Z M 329.81 281.75 329.07 282.3 327.87 281.82 327.19 280.31 327.5 278.25 328.41 277.8 329.24 278.87 329.61 279.47 329.76 280.28 329.81 281.75 Z" fill-rule="evenodd" id="BHS-5023" data-name="Black Point"/>
<path d="M 473.47 408.93 475.33 411.59 471.13 410.34 466.23 409.43 462.1 408.02 460.21 405.23 464.12 405.5 469.13 406.81 473.47 408.93 Z M 422.52 379.83 423.54 381.28 424.83 382.46 426.25 383.16 428.08 383.51 430.55 383.61 430.16 384.1 429.95 384.48 429.64 384.81 428.96 385.19 436.58 392.66 442.1 395.61 443.35 396 445.18 399.62 449.56 402.52 459.34 406.02 457.67 407.66 455 407 449.79 404.36 443.87 403.94 441.66 402.89 442.63 400.45 440.47 399.06 438.26 397.18 436.24 396.13 434.6 397.2 430.55 393.23 426.19 390.24 421.27 388.76 415.51 389.24 415.51 388.45 418.94 387.48 419.49 387.22 419.26 386.18 418.49 385.12 418.61 384.47 417.38 383.71 416.41 382.36 416.17 380.87 417.1 379.62 418.53 379.88 419.54 379.51 420.3 379 421.01 378.83 421.91 379.22 422.52 379.83 Z" fill-rule="evenodd" id="BHS-5024" data-name="Exuma"/>
<path d="M 323.24 163.75 324.52 163.66 325.53 164.03 325.34 164.67 323.24 165.49 320.96 165.49 319.5 166.49 318.22 166.68 318.13 165.76 319.96 164.67 321.42 164.39 323.24 163.75 Z" id="BHS-5025" data-name="Spanish Wells"/>
<path d="M 330.09 161.47 331.46 161.74 332.92 162.2 332.47 162.84 331.19 162.75 328.08 162.57 328.81 161.84 330.09 161.47 Z" id="BHS-5026" data-name="Harbour Island"/>
<path d="M 383.25 190.8 381.09 192.47 379.49 190.34 376.54 188.13 372.12 186.65 362.79 184.78 357.98 182.55 350.95 176.47 346.37 175.23 343.83 174.98 339.01 173.88 336.78 173.63 334.28 174.23 330.18 176.3 328.42 176.02 331.34 173.27 332.97 168.7 334.79 160.03 334 160.03 338 160 339.81 160.22 341.16 160.83 339.88 162.63 339.32 164.43 339.28 166.42 339.57 168.86 341.4 166.67 342.7 167.77 343.75 170.02 344.81 171.25 347.06 171.82 361.85 182.19 366.13 184.4 371.53 185.57 376.93 185.78 378.86 186.26 380.71 187.6 383.25 190.8 Z" id="BHS-5027" data-name="North Eleuthera"/>
<path d="M 401.84 227.88 399.99 227.01 401.28 225.92 401.84 225.09 402.74 218.44 402.71 215.95 400.62 210.58 396.96 207.73 392.77 205.79 389.11 203.14 381.09 192.47 383.25 190.8 386.73 195.19 393.77 201.47 401.05 206.4 404.54 208.49 406.06 210.11 406.68 212.32 405.7 222.21 405.2 224.07 405.09 225.09 404.62 226.31 403.55 227.06 402.44 227.52 401.84 227.88 Z" id="BHS-5028" data-name="Central Eleuthera"/>
<path d="M 401.84 227.88 401.43 230.12 401.95 232.2 403.43 235.19 403.88 237.11 403.43 242.67 402.81 245.03 400.07 249.04 399.45 250.66 399.16 258.83 399.57 263.31 401.05 267.08 397.18 265.52 395.16 261.81 393.9 257.53 392.29 254.28 390.36 253.01 385.27 251.11 383.1 249.87 380.65 247.28 380.95 246.2 382.85 246.07 394.28 247.85 395.05 247.53 395.59 246.79 396.07 245.88 396.67 245.09 398.58 243.33 399.14 242.3 399.45 240.68 399.36 238 398.4 238.61 397.07 240.48 395.84 241.55 395.13 240.23 395.26 237.25 396.27 231.93 396.93 229.97 397.25 229.51 397.94 228.75 399.99 227.01 401.84 227.88 Z" id="BHS-5029" data-name="South Eleuthera"/>
<path d="M 499.7 316.91 500.59 318.64 502.52 325.38 497.24 323.77 494.83 323.58 492.1 323.78 486.83 324.76 484.99 325.69 482.95 327.33 480.07 327.59 476.95 325.68 475.62 323.29 478.15 322.13 479.86 321.71 482.34 320.61 484.64 319.08 485.8 317.35 488.05 317.41 489.09 314.24 488.58 310.44 486.17 308.6 482.77 307.91 480.37 306.19 474.14 296.88 473.22 293.59 470.98 290.57 470.47 288.99 469.77 285.29 467.79 282.5 464.78 280.88 460.93 280.6 461.39 279.38 461.48 277.98 461.31 276.5 460.93 275.11 460.3 273.68 459.71 273.15 458.91 272.79 453.77 268.67 450.01 266.95 448.99 266.29 448.2 265.3 448.09 264.41 448.62 263.47 451.05 260.83 452.02 260.46 453.77 260.65 454.54 261.17 457.67 263.9 460.7 264.97 462.1 265.69 463.38 267.08 464.29 274.51 464.98 276.7 466.12 277.93 467.99 279.49 469.71 281.33 471.12 284.97 474.35 290.4 480.89 299.06 482.98 300.6 487.54 302.87 489.71 304.55 492.6 310.08 493.3 310.98 494.59 311.78 499.7 316.91 Z" id="BHS-5030" data-name="Cat Island"/>
<path d="M 598.28 339.7 597.32 341.07 595.65 345.83 595.53 346.85 587.86 347.65 587.86 346.85 589.84 344.56 591.18 340.95 591.66 336.91 591.12 333.34 591.17 330.54 592.45 328.85 594.48 327.81 596.76 326.97 597.4 326.49 598.04 325.85 598.73 325.47 599.51 325.77 601.25 328.64 601.53 328.93 601.76 330.14 602.83 331.78 603.12 332.54 603.05 333.6 602.41 335.9 602.26 336.95 597.49 344.55 597.14 343.21 597.34 342.05 598.28 339.7 Z" id="BHS-5031" data-name="San Salvador"/>
<path d="M 561.16 379.05 560.41 380.54 559.23 381.39 556.77 381.28 556.77 382.01 557.49 382.9 555.39 382.93 552.59 382.1 551.19 380.42 549.08 381.31 545.23 381.34 543.17 382.01 542.73 379.34 543.52 377.86 545.33 377.05 548.01 376.44 553.88 374.85 558.23 374.91 559.72 375.5 562.33 377.24 561.16 379.05 Z M 523.47 363.37 522.68 363.78 521.96 361.93 522.7 360.25 523.66 360.08 524.01 360.61 524.04 361.88 523.47 363.37 Z" fill-rule="evenodd" id="BHS-5032" data-name="Rum Cay"/>
<path d="M 552.78 461.06 554.19 462.25 555.19 465.25 555.78 468.77 555.94 473.34 555.71 474.58 555.02 475.09 553.58 474.66 552.91 473.85 552.06 469.89 551.63 470.17 550.47 470.68 549.71 467.64 546.38 462.16 545.17 457.4 544.07 455.77 540.14 451.32 538.93 450.27 537.47 449.61 524.14 447.17 521.25 445.48 519.75 444.35 511.43 439.48 509.61 438.79 509.95 437.65 510.49 436.62 511.22 435.67 512.14 434.73 512.86 434.73 514.03 436.42 517.31 437.91 518.5 439.51 515.5 439.12 514.53 438.79 515.33 440.14 516.52 441.29 517.92 441.96 519.3 441.9 520.72 442.77 522.94 444.51 524 445.08 525.32 445.37 527.2 445.52 528.39 445.17 527.62 443.92 520.96 437.1 520.1 435.13 520.54 431.99 521.52 429.72 522.58 427.87 523.21 425.99 523.11 423.22 522.34 420.09 521.02 417.31 519.3 415.56 518.88 416.1 517.63 417.17 517.83 414.42 513.42 410.97 513.66 408.41 512.09 408.05 510.66 407.52 509.93 406.65 510.47 405.23 508.11 403.5 507.23 401.65 506.5 396.41 504.11 390.84 502.98 390.29 502.22 390.55 501.39 391.13 500.06 391.55 500.85 385.94 500.19 384.26 497.75 386.06 498.84 384.52 499.33 384.01 500.06 383.61 498.6 383.18 497.64 384.01 496.71 385.26 495.28 386.06 495.28 385.19 496.47 384.02 497.38 382.66 497.86 380.97 497.75 378.83 498.46 379 499.04 379.34 499.56 379.82 500.06 380.42 506.89 390.84 508.48 391.75 510.58 393.97 512.53 396.62 513.66 398.86 515.07 406.74 516.47 408.76 518.51 410.85 525.41 423.19 525.23 424.39 526.15 425.46 526.45 428 526.46 433.15 527.41 438.76 529.38 442.26 532.68 444.39 542.62 447.84 546.89 450.92 554.45 458.75 553.95 459.35 553.31 460.49 552.78 461.06 Z" id="BHS-5033" data-name="Long Island"/>
<path d="M 452.23 551.69 452.68 552.48 453.08 553.98 452.24 554.86 450.79 554.9 449.83 553.94 449.14 552.38 449 551.46 449.55 551.32 450.24 551.53 450.95 552.02 450.84 551.29 450.2 549.33 450.58 549.1 451.13 549.87 452.23 551.69 Z M 449.44 547.79 449.01 547.93 448.57 547.63 448.75 544.62 449.26 544.83 449.57 546.78 449.44 547.79 Z M 442.84 534.14 442.51 534.79 441.61 533.78 440.79 532.02 440.39 530.35 440.86 530.03 441.56 531.26 441.78 532 442.23 532.68 442.84 534.14 Z" fill-rule="evenodd" id="BHS-5034" data-name="Ragged Island"/>
<path d="M 611.56 509.65 607.96 512.2 609 507.2 612.38 503.87 616.54 500.91 619.83 497.01 619.23 500.28 615.89 505.09 611.56 509.65 Z M 630.32 486.6 630.73 486.71 632.16 486.53 632.63 486.6 632.88 486.94 633.43 488.26 635.7 488.99 639.88 489.26 642.33 489.84 641.46 488.26 644.05 488.84 651 491.37 642.33 498.67 641.93 497.72 641.87 497.47 640.66 497.01 640.77 495.09 638.63 495.45 635.6 496.31 626.99 494.24 625.79 493.32 623.89 491.37 623.24 492.74 621.85 493.89 620.46 494.52 619.83 494.26 620.5 491.74 620.48 490.41 619.47 489.84 611.88 479.43 612.32 479.06 612.51 478.67 612.59 478.28 612.74 477.85 614.02 477.78 615.97 477.15 616.72 477.04 618.12 477.41 621.42 479.43 622.59 479.72 625.12 479.93 626.27 480.23 629.52 482.69 629.88 483.69 630.01 485.74 630.32 486.6 Z M 674.22 446.67 682.98 447.46 689.52 446.82 691.79 447.46 691.79 448.33 681.42 450.26 676.51 450.17 674.22 446.67 Z" fill-rule="evenodd" id="BHS-5035" data-name="Crooked Island and Long Cay"/>
<path d="M 698.62 508.03 696.53 508.38 697.39 505.23 698.81 504.27 700.23 505.15 698.62 508.03 Z M 714.8 506.82 714.04 506.99 709.13 505.59 706.95 504.97 704.58 504.62 704.3 504.01 706.38 503.75 708.37 503.49 711.02 504.1 713.67 505.24 714.8 506.82 Z M 670.97 491.37 668.22 495.89 666.91 497.01 666.85 495.84 666.45 494.91 665.68 494.25 664.6 493.9 665.01 495.49 665.97 497.01 667.23 497.75 668.58 497.01 669.37 498.72 670.43 507.42 671.07 509.21 672.56 512.2 670.56 512.65 669.72 514.62 669.31 517.18 668.58 519.36 667.44 520.7 665.76 522.27 663.99 523.59 662.58 524.14 661.24 525.17 657.37 532.16 651.29 536.83 650.21 537.34 648.98 537.42 641.9 540.11 638.98 540.7 637.2 542.21 634.29 546.55 633.35 547.51 630.27 550.02 629.09 550.54 626.45 550.92 624.38 551.94 620.62 555.31 620.47 554.25 620.62 550.14 621.15 548.99 622.37 548.67 626.96 549.01 627.95 548.59 631.46 545.69 631.56 544.94 630.32 544.09 630.32 543.38 632.6 542.02 633.43 541.71 632.74 541.52 632.21 541.3 631.86 540.88 631.77 540.11 634.11 539.26 637.53 537.32 640.23 536.94 640.85 536.56 642.13 534.92 643.67 533.91 643.54 532.44 643.1 530.83 643.12 529.78 645.27 528.97 648.46 528.66 651.34 528 652.6 526.15 653.08 523.34 654.42 521.98 656.47 521.43 659.03 521.02 663.65 519.43 666.85 516.69 667.94 512.92 666.19 508.22 662.98 506.02 654.7 505.89 651 504.17 649.25 502.62 649.45 502.18 650.86 500.08 651.63 499.4 652.48 498.96 653.39 498.67 652.65 497.91 651 495.49 654.86 496.53 655.78 497.01 656.17 495.71 657.03 494.72 658.07 494.26 659.03 494.62 659.74 494.14 660.05 493.97 660.55 493.9 660.55 493.03 659.6 492.78 659.2 492.54 658.89 492.12 658.17 491.37 664.18 491.43 667.05 491.01 670.17 489.84 670.3 490.29 670.35 490.67 670.51 491.03 670.97 491.37 Z" fill-rule="evenodd" id="BHS-5036" data-name="Acklins"/>
<path d="M 753.21 532.95 751.2 532.45 750.08 531.69 750.34 530.58 752.48 529.05 751.81 528.22 751.77 527.68 752.48 526.52 753.03 525.01 752.82 523.76 752.85 522.7 754.07 521.75 756.07 524.19 757.06 524.78 758.84 525 758.83 524.76 759.5 524.23 760.44 523.69 761.24 523.41 762.06 523.47 763.8 524.01 764.77 524.14 767.65 525.13 773.65 528.96 776.42 529.05 775.85 528.39 774.83 526.52 778.71 528.35 780.65 528.79 781.91 528.18 783.74 529.5 785.54 530.21 787.63 530.51 790.34 530.57 791.12 530.9 792.03 531.68 793.56 533.39 794.67 534.13 796.96 534.13 797.97 534.55 799 536.69 798.45 539.03 796.94 540.93 795.12 541.71 793.05 541.08 787.63 536.14 785.27 534.52 783.41 533.55 781.36 533.08 778.4 532.95 777.09 533.1 775.35 533.69 774.43 533.82 773.05 533.57 772.3 533 771.7 532.43 770.78 532.16 768.27 532.65 763.65 534.9 760.83 535.42 759.6 535.16 758.82 534.62 758.24 534.08 757.62 533.82 753.21 532.95 Z" id="BHS-5037" data-name="Mayaguana"/>
<path d="M 765.47 673.56 758.05 682.34 754.29 692.56 751.8 693.9 743.14 697.36 738.09 696.63 736.61 697.06 735.5 697.58 733.24 699.09 732.45 699.09 732.45 698.22 733.22 697.59 731.5 696.33 729 696.04 722.93 699.31 718.92 699.09 712.02 700.62 706.87 698.67 699.41 698.05 697.73 698.28 695.84 699.2 695.35 700.06 694.67 701.11 694.25 702.03 693.49 701.87 692.12 701.02 690.63 699.38 690.3 698.11 690.02 696.1 689.92 693.48 687.86 690.15 687.48 689.52 687.86 688.69 691.34 688.35 693.29 687.17 694.02 684.65 694.24 682.44 692.87 680.87 691.6 679.59 691.6 678.39 695.61 680.2 697.98 679.37 699.99 678.7 701.36 677.68 704.99 676.65 705.82 674.37 708.4 672.21 709.46 670.05 712.02 670.6 714.33 669.37 717.73 669.34 718.93 669.3 720.11 668.76 721.31 667.92 723.02 665.62 723.99 664.64 724.42 665.14 725.17 667.56 727.02 669.65 729.36 672.55 732.37 673.87 739.69 676.08 742.26 674.58 744.83 673.4 750.66 672.03 753.37 668.79 755.74 664.24 761.48 655.71 763.24 653.45 765.49 652.16 768 653.13 768.88 655.18 768.75 657.86 766.44 670.32 765.47 673.56 Z M 764.33 642.17 763.24 642.31 763.02 641.08 763.34 639.64 762.51 637.4 760.98 635.15 760.54 632.77 761.71 631.91 764.43 631.06 766.62 629.81 768.66 627.49 770.41 626.33 771.5 626.97 772.91 628.68 774.15 629.7 776.46 630.87 778.77 631.83 779.86 632.99 779.37 635.3 777.18 636.65 772.83 637.12 770.79 638.91 769.47 639.19 765.5 641.03 764.33 642.17 Z" fill-rule="evenodd" id="BHS-5038" data-name="Inagua"/>
<path d="M 10.36 401.01 9.95 401.2 7.73 399.75 7.52 399.31 10.36 401.01 Z M 5.83 396.57 5.64 396.64 1 391.8 1.66 392.19 4.61 395.06 5.83 396.57 Z M 39.2 163.04 39.71 164.18 39.46 164.09 38.95 162.96 39.2 163.04 Z M 37.7 161.43 37.64 161.88 36.59 160.56 36.65 160.11 37.7 161.43 Z M 41.58 136.7 41.91 139.14 41.6 140.12 41.35 139.6 40.59 139.95 39.15 140.36 38.95 139.3 39.76 137.54 39.32 136.96 37.74 138.32 36.9 139.31 36.28 140.2 36.02 141.73 37.24 142.65 39.01 143.32 40.19 144.26 39.75 144.87 36.56 144.42 35.22 144.38 34.8 143.87 35.15 142.18 36.02 139.95 37.59 137.47 39.84 135.76 41.12 135.44 41.58 136.7 Z" fill-rule="evenodd" id="BHS-5039" data-name="Bimini"/>
</g>
</svg>