<?xml version="1.0"?>
<svg xmlns="http://www.w3.org/2000/svg" version="1.2" baseProfile="tiny" width="800" height="209" viewBox="0 0 800 209" stroke-linecap="round" stroke-linejoin="round">
<g id="ne_10m_admin_1_states_provinces">
<path d="M 1.07 109.66 1.07 109.7 1.05 109.72 1.02 109.69 1 109.64 1.02 109.63 1.07 109.66 Z" id="CLP+00?" data-name="Clipperton Island"/>
<path d="M 797.1 207.52 797.1 207.53 797.1 207.53 797.1 207.52 Z M 797.98 207.45 797.97 207.45 797.97 207.45 797.98 207.44 797.98 207.45 Z M 792.23 206.65 792.23 206.65 792.23 206.65 792.23 206.65 Z M 792.24 206.64 792.24 206.65 792.24 206.65 792.24 206.64 Z M 792.1 206.59 792.09 206.59 792.09 206.59 792.09 206.59 792.1 206.59 792.1 206.59 Z M 792.5 206.49 792.5 206.49 792.5 206.49 792.5 206.49 Z M 792.04 206.46 792.04 206.46 792.04 206.46 792.04 206.46 792.04 206.47 792.03 206.47 792.03 206.47 792.03 206.46 792.04 206.46 Z M 792.86 205.82 792.86 205.82 792.86 205.82 792.86 205.82 792.86 205.82 Z M 798.79 204.76 798.79 204.77 798.79 204.77 798.79 204.76 798.79 204.76 Z M 799 204.73 798.99 204.73 798.99 204.72 799 204.73 799 204.73 Z M 794.76 204 794.76 204 794.75 204 794.76 204 Z M 777.07 194.47 777.07 194.47 777.07 194.47 777.07 194.48 777.06 194.48 777.06 194.48 777.06 194.48 777.06 194.47 777.07 194.47 Z M 776.85 194.07 776.84 194.08 776.83 194.07 776.85 194.07 Z M 776.81 193.84 776.81 193.84 776.8 193.84 776.81 193.83 776.81 193.84 Z M 781.29 191.75 781.29 191.75 781.29 191.75 781.3 191.76 781.29 191.76 781.29 191.76 781.29 191.76 781.29 191.76 781.29 191.75 Z M 781.53 191.67 781.53 191.68 781.52 191.67 781.53 191.67 Z M 775.16 190.3 775.16 190.3 775.16 190.3 775.16 190.3 775.15 190.31 775.15 190.3 775.15 190.3 775.15 190.3 775.16 190.3 Z M 781.46 189.74 781.46 189.75 781.46 189.74 781.46 189.74 Z M 781.54 189.55 781.53 189.55 781.53 189.55 781.53 189.55 781.54 189.55 Z M 781.56 189.26 781.56 189.27 781.53 189.26 781.53 189.26 781.54 189.26 781.55 189.26 781.56 189.26 Z M 781.52 189.26 781.51 189.26 781.51 189.25 781.52 189.26 Z" fill-rule="evenodd" id="CSI+00?" data-name="Coral Sea Islands"/>
<path d="M 428.06 34.76 428.11 34.74 428.17 34.73 428.17 34.74 428.16 34.78 428.13 34.8 428.1 34.8 428.06 34.77 428.06 34.76 Z M 432.3 35.1 432.29 35.12 432.16 35.09 432.09 35.12 432.04 35.11 432 35.1 431.99 35.09 431.99 35.09 431.99 35.09 431.99 35.08 432.01 35.08 432.03 35.05 432.01 35.02 431.98 35.02 431.98 35.01 431.98 35 431.96 34.97 431.94 34.96 431.93 34.94 431.89 34.94 431.88 35 431.88 35.04 431.9 35.07 431.88 35.08 431.87 35.1 431.83 35.12 431.79 35.13 431.77 35.11 431.74 35.1 431.66 35.14 431.65 35.18 431.62 35.18 431.59 35.18 431.56 35.2 431.48 35.15 431.42 35.2 431.39 35.21 431.4 35.17 431.42 35.11 431.41 35.1 431.38 35.1 431.35 35.12 431.3 35.13 431.29 35.16 431.29 35.19 431.3 35.19 431.3 35.19 431.28 35.2 431.23 35.2 431.22 35.2 431.18 35.2 431.1 35.16 431.07 35.17 431.04 35.19 431 35.19 430.96 35.17 430.95 35.12 430.93 35.1 430.9 35.08 430.88 35.08 430.87 35.1 430.87 35.13 430.85 35.13 430.81 35.12 430.78 35.11 430.76 35.11 430.74 35.13 430.72 35.18 430.71 35.2 430.7 35.24 430.69 35.27 430.69 35.29 430.66 35.28 430.66 35.25 430.68 35.18 430.69 35.12 430.69 35.07 430.69 35.01 430.67 34.98 430.61 34.9 430.58 34.85 430.54 34.79 430.53 34.75 430.52 34.71 430.5 34.7 430.46 34.7 430.43 34.73 430.4 34.76 430.38 34.77 430.29 34.8 430.24 34.8 430.21 34.81 430.16 34.81 430.07 34.79 429.98 34.78 429.93 34.76 429.83 34.73 429.73 34.74 429.68 34.75 429.62 34.81 429.58 34.82 429.54 34.79 429.49 34.8 429.42 34.83 429.35 34.85 429.3 34.87 429.22 34.9 429.16 34.96 429.1 34.99 429.06 35 429.02 35 428.99 35 428.92 34.99 428.88 35 428.87 35 428.84 35.03 428.82 35.06 428.77 35.06 428.74 35 428.7 34.95 428.64 34.92 428.53 34.89 428.49 34.88 428.45 34.87 428.41 34.84 428.39 34.8 428.38 34.77 428.39 34.75 428.39 34.75 428.49 34.76 428.58 34.78 428.66 34.82 428.74 34.85 428.85 34.82 428.93 34.77 429 34.69 429.04 34.6 429.06 34.48 429.06 34.28 429.05 34.19 429.02 34.1 429.09 34.11 429.21 34.17 429.27 34.18 429.47 34.22 429.68 34.21 430.05 34.24 430.1 34.27 430.54 34.31 431.24 34.22 431.49 34.1 431.62 34.04 431.77 34.06 431.93 34.02 432.37 33.88 432.5 33.81 432.66 33.76 432.81 33.63 432.9 33.61 433.07 33.57 433.23 33.53 433.36 33.47 433.91 33.25 434.01 33.22 434.05 33.21 434.03 33.22 434.02 33.23 434.02 33.25 434.01 33.25 434 33.34 433.99 33.36 433.97 33.37 433.9 33.38 433.88 33.39 433.6 33.54 433.33 33.73 432.68 34.05 432.6 34.11 432.52 34.18 432.47 34.28 432.44 34.32 432.4 34.35 432.33 34.35 432.25 34.34 432.18 34.33 432.12 34.36 432.04 34.46 432 34.51 431.99 34.57 431.97 34.8 432.01 34.83 432.13 34.93 432.15 34.96 432.17 35 432.2 35.03 432.3 35.1 Z" fill-rule="evenodd" id="CYN+00?" data-name="Northern Cyprus"/>
<path d="M 431.98 35.02 432.01 35.02 432.03 35.05 432.01 35.08 431.99 35.08 431.99 35.09 431.99 35.09 431.96 35.11 431.91 35.08 431.89 35.09 431.87 35.11 431.83 35.14 431.79 35.14 431.77 35.13 431.75 35.11 431.71 35.13 431.68 35.15 431.66 35.18 431.73 35.21 431.76 35.23 431.75 35.29 431.79 35.32 431.84 35.32 431.84 35.37 431.82 35.38 431.78 35.41 431.8 35.42 431.86 35.41 431.94 35.42 431.92 35.45 431.89 35.47 431.85 35.48 431.81 35.47 431.72 35.4 431.68 35.38 431.61 35.37 431.62 35.37 431.63 35.37 431.64 35.36 431.65 35.36 431.64 35.35 431.62 35.34 431.61 35.34 431.6 35.34 431.59 35.33 431.56 35.33 431.55 35.33 431.54 35.33 431.56 35.34 431.57 35.35 431.58 35.36 431.59 35.36 431.61 35.36 431.61 35.37 431.61 35.37 431.55 35.36 431.42 35.36 431.37 35.38 431.37 35.33 431.4 35.34 431.41 35.31 431.36 35.29 431.35 35.27 431.38 35.25 431.37 35.23 431.32 35.21 431.3 35.19 431.3 35.19 431.29 35.19 431.29 35.16 431.3 35.13 431.35 35.12 431.38 35.1 431.41 35.1 431.42 35.11 431.4 35.17 431.39 35.21 431.42 35.2 431.48 35.15 431.56 35.2 431.59 35.18 431.62 35.18 431.65 35.18 431.66 35.14 431.74 35.1 431.77 35.11 431.79 35.13 431.83 35.12 431.87 35.1 431.88 35.08 431.9 35.07 431.88 35.04 431.88 35 431.89 34.94 431.93 34.94 431.94 34.96 431.96 34.97 431.98 35 431.98 35.01 431.98 35.02 Z M 431.49 35.29 431.5 35.29 431.52 35.28 431.52 35.25 431.5 35.25 431.49 35.26 431.48 35.27 431.48 35.28 431.48 35.29 431.49 35.29 Z" fill-rule="evenodd" id="ESB-5132" data-name="Dhekelia"/>
<path d="M 621.7 177.4 621.66 177.41 621.63 177.4 621.62 177.39 621.62 177.37 621.65 177.37 621.68 177.36 621.7 177.33 621.7 177.3 621.72 177.33 621.71 177.37 621.7 177.4 Z M 621.46 177.36 621.5 177.37 621.54 177.36 621.56 177.38 621.49 177.41 621.44 177.35 621.42 177.26 621.42 177.19 621.44 177.19 621.44 177.22 621.44 177.25 621.46 177.29 621.45 177.33 621.46 177.36 Z" fill-rule="evenodd" id="IOA-1928" data-name="Cocos (Keeling) Islands"/>
<path d="M 648.16 172.09 648.19 172.1 648.19 172.15 648.18 172.2 648.17 172.28 648.17 172.34 648.14 172.38 648.15 172.45 648.13 172.49 648.09 172.49 648.07 172.44 648.05 172.39 648.04 172.35 648 172.33 647.93 172.32 647.86 172.32 647.8 172.34 647.79 172.31 647.83 172.29 647.85 172.24 647.83 172.19 647.83 172.16 647.87 172.17 647.93 172.2 648.01 172.2 648.06 172.16 648.11 172.11 648.16 172.09 Z" id="IOA-2652" data-name="Christmas Island"/>
<path d="M 520.74 3.48 520.56 3.48 520.39 3.46 520.22 3.43 520.06 3.39 519.9 3.33 519.76 3.27 519.62 3.2 519.5 3.12 519.38 3.03 519.28 2.94 519.2 2.83 519.12 2.73 519.06 2.61 519.02 2.49 518.99 2.37 518.98 2.24 518.99 2.12 519.02 1.99 519.06 1.87 519.12 1.76 519.2 1.65 519.28 1.55 519.38 1.45 519.5 1.36 519.62 1.28 519.76 1.21 519.9 1.15 520.06 1.1 520.22 1.06 520.39 1.03 520.56 1.01 520.74 1 520.92 1.01 521.09 1.03 521.26 1.06 521.42 1.1 521.58 1.15 521.72 1.21 521.86 1.28 521.98 1.36 522.09 1.45 522.2 1.55 522.28 1.65 522.36 1.76 522.42 1.87 522.46 1.99 522.49 2.12 522.5 2.24 522.49 2.37 522.46 2.49 522.42 2.61 522.36 2.73 522.28 2.83 522.2 2.94 522.09 3.03 521.98 3.12 521.86 3.2 521.72 3.27 521.58 3.33 521.42 3.39 521.26 3.43 521.09 3.46 520.92 3.48 520.74 3.48 Z" id="KAB+00?" data-name="Baykonur lease in Qyzylorda"/>
<path d="M 564.15 33.81 563.02 34.38 561.88 34.96 561.47 34.16 561.07 33.35 561.08 33.35 561.21 33.35 561.26 33.37 561.31 33.4 561.38 33.49 561.42 33.52 561.48 33.54 561.54 33.55 561.67 33.55 561.79 33.54 561.85 33.54 561.91 33.55 561.95 33.58 562.01 33.65 562.05 33.68 562.16 33.72 562.27 33.72 562.49 33.7 562.58 33.71 562.66 33.74 562.8 33.83 562.89 33.88 562.98 33.88 563.17 33.86 563.28 33.86 563.3 33.86 563.73 33.92 563.81 33.9 563.89 33.87 563.99 33.81 564.03 33.8 564.07 33.79 564.15 33.81 Z" id="KAS+00?" data-name="Kashmir"/>
<path d="M 674.27 111.53 674.26 111.53 674.26 111.53 674.26 111.52 674.26 111.51 674.27 111.5 674.28 111.5 674.29 111.5 674.29 111.5 674.29 111.5 674.29 111.51 674.27 111.53 Z M 673.24 110.53 673.23 110.53 673.22 110.52 673.23 110.52 673.25 110.51 673.26 110.51 673.24 110.53 Z M 674.26 110.03 674.24 110.04 674.23 110.04 674.22 110.03 674.22 110.02 674.23 110.01 674.24 110.01 674.25 110.02 674.26 110.03 Z M 677.26 109.85 677.26 109.85 677.25 109.85 677.26 109.85 Z M 674.55 109.46 674.54 109.46 674.53 109.45 674.54 109.43 674.55 109.43 674.55 109.44 674.56 109.45 674.55 109.46 Z M 674.25 109.46 674.24 109.46 674.22 109.45 674.22 109.43 674.23 109.43 674.24 109.44 674.25 109.45 674.25 109.46 Z M 674.52 109.39 674.51 109.4 674.5 109.4 674.5 109.38 674.5 109.38 674.51 109.37 674.52 109.38 674.52 109.39 Z M 678.64 108.38 678.62 108.4 678.6 108.39 678.6 108.38 678.6 108.36 678.61 108.36 678.64 108.35 678.65 108.36 678.65 108.36 678.66 108.37 678.66 108.38 678.65 108.38 678.64 108.38 Z M 678.7 108.09 678.7 108.09 678.68 108.09 678.66 108.09 678.65 108.08 678.65 108.07 678.65 108.06 678.69 108.06 678.69 108.07 678.7 108.07 678.71 108.08 678.7 108.09 Z M 673.99 107.44 673.98 107.44 673.96 107.43 673.96 107.42 673.98 107.41 673.99 107.41 674 107.42 673.99 107.44 Z M 676.21 107.2 676.22 107.21 676.21 107.23 676.21 107.24 676.19 107.23 676.18 107.22 676.18 107.21 676.19 107.21 676.21 107.2 Z" fill-rule="evenodd" id="PGA+00?" data-name="Spratly Islands"/>
<path d="M 477.25 106.81 477.25 107.15 477.25 107.49 477.25 107.82 477.25 108.16 477.25 108.5 477.25 108.84 477.25 109.18 477.25 109.52 477.25 109.85 477.25 110.19 477.25 110.53 477.25 110.87 477.25 111.21 477.25 111.55 477.25 111.88 477.25 111.89 477.25 112.22 477.07 112.5 476.89 112.77 476.71 113.04 476.53 113.32 476.34 113.59 476.16 113.86 475.98 114.14 475.8 114.41 475.62 114.69 475.44 114.96 475.26 115.23 475.08 115.51 474.9 115.78 474.72 116.05 474.54 116.33 474.36 116.6 473.93 116.6 473.38 116.6 472.99 116.6 472.51 116.6 472.04 116.6 471.61 116.6 471.35 116.6 471.17 116.51 470.98 116.45 470.73 116.37 470.47 116.28 470.22 116.2 469.97 116.11 469.72 116.03 469.46 115.94 469.21 115.86 468.96 115.77 468.7 115.69 468.45 115.6 468.2 115.52 467.95 115.44 467.69 115.35 467.44 115.27 467.19 115.18 466.94 115.1 466.94 115.1 466.67 115.01 466.4 114.92 466.14 114.84 465.87 114.75 465.61 114.66 465.34 114.57 465.08 114.49 464.81 114.4 464.55 114.31 464.28 114.23 464.02 114.14 463.75 114.05 463.49 113.96 463.22 113.88 462.95 113.79 462.69 113.7 462.45 113.62 462.33 113.56 462.12 113.37 461.74 113.02 461.47 112.78 461.24 112.57 461.19 112.54 461.15 112.55 461.07 112.57 461.02 112.57 460.78 112.43 460.63 112.34 460.59 112.29 460.58 112.23 460.57 112.13 460.55 112.08 460.48 111.94 460.45 111.92 460.39 111.88 460.36 111.85 460.34 111.82 460.32 111.75 460.29 111.72 460.26 111.71 460.18 111.69 460.11 111.62 460.07 111.5 459.99 111.02 459.93 110.92 459.82 110.87 459.68 110.85 459.57 110.8 459.49 110.72 459.43 110.58 459.4 110.48 459.36 110.38 459.31 110.29 459.24 110.22 458.95 110.04 458.87 109.94 458.79 109.76 458.73 109.57 458.69 109.29 458.66 109.21 458.61 109.15 458.45 108.99 458.37 108.87 458.31 108.73 458.3 108.67 458.34 108.64 458.4 108.62 458.46 108.59 458.5 108.54 458.52 108.48 458.55 108.36 458.58 108.28 458.61 108.23 458.72 108.15 458.77 108.1 458.79 108.05 458.8 108 458.82 107.94 458.87 107.9 458.99 107.84 459.04 107.8 459.07 107.75 459.1 107.63 459.14 107.56 459.93 106.33 460.09 106.09 460.13 106.13 460.17 106.17 460.23 106.17 460.22 106.06 460.26 106.11 460.33 106.22 460.39 106.28 460.43 106.3 460.5 106.38 460.55 106.4 460.61 106.41 460.7 106.48 460.75 106.5 460.77 106.45 460.8 106.42 460.84 106.41 460.85 106.46 460.81 106.74 460.83 106.84 460.89 106.93 460.96 107 460.98 107.01 461.03 107.02 461.05 107.03 461.06 107.05 461.08 107.09 461.12 107.15 461.15 107.24 461.22 107.35 461.35 107.6 461.64 107.88 461.86 108.15 462.14 108.39 462.46 108.61 462.67 108.8 462.83 108.89 463.2 109.19 463.29 109.25 463.42 109.32 463.55 109.37 463.78 109.36 464.01 109.39 464.14 109.42 464.26 109.39 464.37 109.36 464.55 109.31 464.64 109.28 464.76 109.29 464.95 109.32 465.08 109.33 465.27 109.32 465.37 109.24 465.35 109.18 465.39 109.18 465.72 108.99 465.77 108.97 465.86 108.94 466.15 108.76 466.35 108.58 466.4 108.55 466.46 108.56 466.51 108.58 466.57 108.59 466.62 108.58 466.73 108.56 466.85 108.51 466.94 108.46 467.02 108.4 467.11 108.29 467.15 108.26 467.38 108.19 467.41 108.17 467.45 108.13 467.48 108.09 467.51 108.06 467.57 108.05 467.61 108.03 467.66 107.95 467.7 107.93 467.76 107.93 467.8 107.93 467.85 107.95 467.89 107.99 467.92 108.03 467.94 108.06 467.96 108.09 468.01 108.09 468 108.04 468.05 108.04 468.33 108.16 468.44 108.18 468.54 108.21 468.59 108.23 468.71 108.25 468.81 108.23 469.02 108.17 469.11 108.18 469.19 108.23 469.32 108.37 469.41 108.43 469.51 108.47 469.63 108.49 469.75 108.48 469.85 108.46 469.9 108.44 469.99 108.38 470.09 108.37 470.17 108.33 470.29 108.33 470.34 108.32 470.38 108.3 470.49 108.22 470.75 108.1 470.87 108 471.01 107.94 471.02 107.93 471.05 107.88 471.07 107.86 471.09 107.86 471.13 107.85 471.15 107.84 471.43 107.74 471.66 107.57 471.81 107.45 471.91 107.34 471.95 107.32 472.09 107.28 472.13 107.25 472.2 107.2 472.51 107.04 472.57 107.02 472.63 107 472.72 107.02 472.88 106.98 472.98 107 473.45 107.23 473.55 107.25 473.72 107.17 474.1 107.16 474.26 107.18 474.81 107.15 474.9 107.12 474.94 107.09 475.01 107 475.07 106.97 475.07 106.95 475.08 106.92 475.11 106.91 475.16 106.91 475.19 106.91 475.24 106.9 475.31 106.89 475.34 106.87 475.35 106.85 475.36 106.83 475.37 106.81 475.38 106.79 475.42 106.75 475.45 106.73 475.54 106.71 475.76 106.69 475.86 106.67 475.95 106.61 475.99 106.6 476.18 106.6 476.34 106.57 476.39 106.56 476.6 106.61 476.72 106.65 476.83 106.72 477.1 106.8 477.14 106.81 477.19 106.81 477.25 106.81 Z" id="SOL+00?" data-name="Somaliland"/>
<path d="M 103.52 80.66 103.5 80.68 103.49 80.7 103.47 80.69 103.46 80.68 103.45 80.67 103.43 80.68 103.42 80.69 103.42 80.7 103.46 80.73 103.5 80.73 103.5 80.74 103.45 80.74 103.38 80.76 103.38 80.76 103.39 80.65 103.54 80.55 103.59 80.55 103.57 80.56 103.56 80.59 103.58 80.61 103.6 80.64 103.56 80.65 103.52 80.66 Z M 103.79 80.55 103.79 80.77 103.75 80.77 103.66 80.78 103.59 80.79 103.58 80.77 103.58 80.72 103.6 80.71 103.64 80.69 103.71 80.64 103.72 80.63 103.76 80.63 103.77 80.6 103.76 80.58 103.73 80.56 103.69 80.59 103.67 80.59 103.66 80.57 103.66 80.55 103.79 80.55 Z" fill-rule="evenodd" id="USG+00?" data-name="Guantanamo Bay USNB"/>
<path d="M 429.3 36.4 429.29 36.43 429.28 36.51 429.35 36.58 429.35 36.6 429.08 36.6 429.08 36.58 429.09 36.52 429 36.38 429 36.33 428.83 36.29 428.76 36.29 428.69 36.29 428.54 36.34 428.53 36.29 428.55 36.27 428.59 36.28 428.65 36.29 428.67 36.24 428.71 36.24 428.72 36.23 428.74 36.21 428.75 36.2 428.76 36.2 428.78 36.2 428.79 36.2 428.82 36.2 428.83 36.2 428.84 36.24 428.85 36.26 428.91 36.3 429 36.32 429.01 36.3 429.04 36.31 429.06 36.33 429.08 36.3 429.12 36.27 429.22 36.28 429.23 36.36 429.17 36.36 429.15 36.35 429.12 36.37 429.12 36.41 429.14 36.43 429.16 36.4 429.23 36.4 429.3 36.4 Z" id="WSB-5133" data-name="Akrotiri"/>
</g>
</svg>