<?xml version="1.0"?>
<svg xmlns="http://www.w3.org/2000/svg" version="1.2" baseProfile="tiny" width="800" height="440" viewBox="0 0 800 440" stroke-linecap="round" stroke-linejoin="round">
<g id="ne_10m_admin_1_states_provinces">
<path d="M 784.9 19.98 785.11 20.05 785.08 20.17 785.17 20.3 785.34 20.37 785.77 20.4 785.93 20.48 786.07 20.86 786.23 20.97 786.16 21.07 786.22 21.13 786.32 21.17 786.42 21.23 786.63 21.45 786.64 21.48 786.68 21.53 786.81 21.84 786.87 21.93 786.87 22.02 786.71 22.11 786.45 22 786.35 21.98 785.83 22.09 785.55 22.12 785.42 22.12 785.02 22.04 784.64 22.01 784.8 22.68 785.04 23.28 785.4 23.59 785.66 23.93 785.28 24.13 785.03 24.26 784.71 24.31 783.96 24.46 782.93 24.66 782.71 24.84 782.63 24.91 782.45 25.12 782.35 25.47 782.29 25.55 782.22 25.6 782.14 25.62 782.05 25.62 781.8 25.66 781.62 25.71 781.62 25.71 781.56 25.68 781.52 25.44 781.45 25.23 781.25 25.07 781 24.97 780.78 24.96 780.57 25.02 780.12 25.22 779.9 25.27 778.66 25.23 778.33 25.28 778.26 25.3 778.07 25.27 778.07 24.89 777.88 24.74 777.69 24.73 777.28 24.75 777.1 24.69 777.04 24.62 776.94 24.39 776.88 24.3 776.52 24.04 776.45 23.94 776.49 23.71 776.6 23.54 776.64 23.37 776.43 23.12 776.12 22.99 776.09 22.96 775.93 22.99 775.86 23.05 775.83 23.15 775.75 23.28 775.59 23.45 775.35 23.66 775.08 23.82 774.85 23.86 774.44 23.74 774.25 23.71 773.51 23.69 773.29 23.63 773.35 23.51 773.47 23.5 773.93 23.63 773.85 23.45 773.9 23.29 773.96 23.14 773.94 22.98 773.83 22.89 773.65 22.81 773.46 22.77 773.31 22.76 772.96 22.87 772.15 23.5 772.04 23.55 771.9 23.58 771.73 23.59 771.39 23.54 771.09 23.57 770.95 23.56 770.75 23.47 770.77 23.37 770.86 23.24 770.87 23.06 770.79 22.97 770.66 22.96 770.34 22.99 769.78 23.12 769.23 23.32 769.35 23.41 769.33 23.49 769.26 23.57 769.25 23.67 769.34 23.77 769.57 23.95 769.64 24.05 769.59 24.23 769.38 24.3 768.89 24.28 768.69 24.23 768.31 24.1 768.21 24.1 768.21 24.1 768.2 24.02 768.16 23.95 768.06 23.9 768.02 23.7 768.01 23.58 768.03 23.54 768.04 23.51 768.08 23.47 768.03 23.31 768.03 23.31 768.03 23.31 768.23 23.27 768.38 23.03 768.29 22.8 768.07 22.63 767.78 22.52 767.68 22.51 767.81 22.3 767.82 22.26 767.82 22.14 767.75 22 767.71 21.97 767.44 21.77 767.43 21.76 767.43 21.76 767.43 21.76 767.43 21.77 767.38 21.57 767.25 21.49 767.21 21.49 767.33 21.27 767.33 21.26 767.77 21.18 768.2 21.16 768.77 21.06 769.18 20.89 769.5 20.52 770.59 20.66 771 20.65 771.36 20.58 771.8 20.45 772.04 20.41 772.37 20.4 772.9 20.01 773.05 19.82 773.28 19.67 773.59 19.53 774.17 19.52 774.43 19.47 774.84 19.24 775.11 19.24 775.65 19.3 775.9 19.29 775.9 19.35 775.93 19.43 776.09 19.55 776.48 19.73 776.74 19.74 776.86 19.71 777.25 19.88 777.25 20.05 777.13 20.22 777.22 20.24 779.15 20.11 779.36 20.05 779.54 19.95 779.68 19.81 779.73 19.64 779.82 19.43 780.03 19.36 780.46 19.38 780.67 19.33 780.88 19.23 781.08 19.18 781.29 19.27 781.44 19.3 782.11 19.24 782.59 19.3 782.65 19.35 782.78 19.55 782.88 19.6 783.08 19.63 783.82 19.95 784.9 19.98 Z" id="NLD-3483" data-name="Noord-Brabant"/>
<path d="M 779.66 14.45 780.09 14.61 780.11 14.62 780.11 14.62 780.05 14.83 780.01 15.01 779.99 15.12 780.05 15.18 780.43 15.38 780.41 15.48 780.37 15.52 780.3 15.56 780.28 15.57 780.27 15.59 780.34 15.66 780.59 15.71 780.81 15.75 780.88 15.78 780.97 15.87 781.02 15.89 781.1 15.92 781.18 15.98 781.21 16.01 781.21 16.04 781.16 16.11 781.16 16.18 781.17 16.21 781.17 16.23 781.16 16.25 781.05 16.24 780.97 16.35 780.91 16.46 780.88 16.5 780.82 16.53 780.74 16.57 780.76 16.6 780.78 16.62 781.08 16.71 781.17 16.69 781.28 16.63 781.32 16.62 781.36 16.62 781.4 16.6 781.44 16.57 781.49 16.52 781.5 16.48 781.51 16.44 781.46 16.36 781.64 16.34 781.73 16.55 781.74 16.61 781.76 16.67 781.74 16.92 781.84 17.24 781.97 17.39 782.19 17.53 782.26 17.63 782.3 17.68 782.32 17.72 782.34 17.77 782.33 17.94 782.3 17.99 781.94 17.94 781.13 17.63 780.67 17.57 780.54 17.6 780.33 17.69 780.23 17.72 780.12 17.71 779.84 17.65 779.6 17.69 779.29 17.83 779.08 17.87 778.48 17.66 778.33 17.68 778.14 17.78 777.88 17.81 777.73 17.79 777.62 17.78 777.42 17.72 777.33 17.64 777.18 17.48 777.05 17.42 776.91 17.4 776.81 17.43 776.71 17.48 776.47 17.52 776.38 17.56 776.23 17.68 776.12 17.71 775.68 17.65 775.66 17.67 775.32 17.79 775.03 17.98 774.92 18.01 774.68 18 774.61 18.06 774.38 17.84 774.04 17.58 773.94 17.48 773.98 17.44 774.05 17.43 774.12 17.41 774.26 17.36 774.21 17.23 773.73 17.27 773.68 17.2 774.02 16.89 774.43 16.76 774.51 16.69 774.03 16.69 773.9 16.29 773.74 16.26 773.59 16.18 773.66 16.14 773.91 15.97 773.96 15.96 774.01 15.95 774.05 15.97 774.09 15.98 774.14 15.99 774.31 16.04 774.36 16.03 774.38 16.01 774.38 15.99 774.36 15.95 774.3 15.84 774.25 15.72 774.35 15.67 773.84 15.4 773.6 15.34 773.54 15.3 773.49 15.26 773.35 15.11 773.84 15.02 774.05 14.95 774.21 14.85 774.44 14.78 774.86 14.75 775.01 14.57 775.04 14.55 775.09 14.54 775.19 14.54 775.39 14.52 775.65 14.43 775.73 14.43 775.8 14.45 775.85 14.47 775.89 14.52 776.07 14.47 776.49 14.5 776.17 14.57 776.12 14.62 776.16 14.67 776.17 14.7 776.18 14.74 776.2 14.77 776.22 14.78 776.25 14.79 776.29 14.81 776.31 14.83 776.33 14.85 776.36 14.87 776.41 14.94 776.24 15.07 776.16 15.28 776.22 15.45 776.27 15.67 776.55 15.63 776.74 15.58 777.14 15.53 777.72 15.55 777.93 15.47 778.01 15.37 778.08 15.26 778.14 15.18 778.18 15.06 778.39 14.73 778.58 14.53 778.63 14.51 778.71 14.5 779.3 14.49 779.66 14.45 Z" id="NLD-3484" data-name="Utrecht"/>
<path d="M 773.35 15.11 773.49 15.26 773.54 15.3 773.6 15.34 773.84 15.4 774.35 15.67 774.25 15.72 774.3 15.84 774.36 15.95 774.38 15.99 774.38 16.01 774.36 16.03 774.31 16.04 774.14 15.99 774.09 15.98 774.05 15.97 774.01 15.95 773.96 15.96 773.91 15.97 773.66 16.14 773.59 16.18 773.74 16.26 773.9 16.29 774.03 16.69 774.51 16.69 774.43 16.76 774.02 16.89 773.68 17.2 773.73 17.27 774.21 17.23 774.26 17.36 774.12 17.41 774.05 17.43 773.98 17.44 773.94 17.48 774.04 17.58 774.38 17.84 774.61 18.06 774.68 18 774.92 18.01 775.03 17.98 775.32 17.79 775.66 17.67 775.68 17.65 776.12 17.71 776.23 17.68 776.38 17.56 776.47 17.52 776.71 17.48 776.81 17.43 776.91 17.4 777.05 17.42 777.18 17.48 777.33 17.64 777.42 17.72 777.62 17.78 777.73 17.79 777.46 18.13 777.41 18.18 777.04 18.59 777.06 18.65 777.08 18.69 777.08 18.73 777.07 18.75 776.96 18.79 776.15 19 775.85 19.02 775.91 19.08 775.91 19.1 775.88 19.19 775.9 19.29 775.65 19.3 775.11 19.24 774.84 19.24 774.43 19.47 774.17 19.52 773.59 19.53 773.28 19.67 773.05 19.82 772.9 20.01 772.37 20.4 772.04 20.41 771.8 20.45 771.36 20.58 771 20.65 770.59 20.66 769.5 20.52 769.18 20.89 768.77 21.06 768.2 21.16 767.77 21.18 767.33 21.26 767.32 21.27 767.09 21.21 766.86 21.11 766.62 21.05 766.45 21.14 766.42 21.17 766.42 21.17 766.4 21.13 766.4 21.01 766.43 20.92 766.57 20.82 766.75 20.78 767.11 20.76 767 20.69 766.73 20.57 766 20.43 765.85 20.29 765.78 19.94 765.6 19.72 765.35 19.58 765.05 19.45 764.85 19.54 764.58 19.59 764.31 19.59 764.1 19.63 764.07 19.67 763.99 19.68 763.89 19.68 763.79 19.38 764.1 19.26 764.76 19.13 764.85 19.05 765.06 19.04 765.41 19.09 765.7 19.19 765.75 19.2 765.83 19.19 765.94 19.16 766.06 19.09 765.98 19 765.72 18.77 765.64 18.73 765.58 18.69 765.56 18.62 765.58 18.54 765.63 18.48 765.68 18.44 765.7 18.41 765.67 18.24 765.47 17.83 765.35 17.65 765.41 17.57 765.48 17.5 765.97 17.57 766.38 17.53 766.74 17.38 768.25 16.25 769.54 15.08 770.51 14 770.51 14 770.97 14.13 771.03 14.15 771.22 14.17 771.44 14.1 771.68 14.14 771.24 14.59 771.22 14.61 771.21 14.66 771.2 14.76 771.15 14.9 771.01 15.04 771.03 15.12 771.15 15.11 771.25 15.17 771.3 15.19 771.38 15.2 771.64 15.19 772.09 15.12 772.31 15.05 772.74 14.97 772.8 14.99 772.82 15.01 772.87 15.16 772.9 15.21 773.01 15.24 773.35 15.11 Z" id="NLD-3485" data-name="Zuid-Holland"/>
<path d="M 779.71 9.1 779.71 9.11 779.59 10.17 779.06 10.07 778.73 10.21 778.56 10.6 776.8 11.3 777.06 12 777.57 12.46 777.84 12.92 777.49 12.92 776.89 13.26 776.91 13.6 777.49 13.98 777.81 14.03 778.2 14.01 778.42 14.01 778.78 14.08 779.68 14.45 779.66 14.45 779.3 14.49 778.71 14.5 778.63 14.51 778.58 14.53 778.39 14.73 778.18 15.06 778.14 15.18 778.08 15.26 778.01 15.37 777.93 15.47 777.72 15.55 777.14 15.53 776.74 15.58 776.55 15.63 776.27 15.67 776.22 15.45 776.16 15.28 776.24 15.07 776.41 14.94 776.36 14.87 776.33 14.85 776.31 14.83 776.29 14.81 776.25 14.79 776.22 14.78 776.2 14.77 776.18 14.74 776.17 14.7 776.16 14.67 776.12 14.62 776.17 14.57 776.49 14.5 776.07 14.47 775.89 14.52 775.85 14.47 775.8 14.45 775.73 14.43 775.65 14.43 775.39 14.52 775.19 14.54 775.09 14.54 775.04 14.55 775.01 14.57 774.86 14.75 774.44 14.78 774.21 14.85 774.05 14.95 773.84 15.02 773.35 15.11 773.01 15.24 772.9 15.21 772.87 15.16 772.82 15.01 772.8 14.99 772.74 14.97 772.31 15.05 772.09 15.12 771.64 15.19 771.38 15.2 771.3 15.19 771.25 15.17 771.15 15.11 771.03 15.12 771.01 15.04 771.15 14.9 771.2 14.76 771.21 14.66 771.22 14.61 771.24 14.59 771.68 14.14 771.44 14.1 771.22 14.17 771.03 14.15 770.97 14.13 770.51 14 770.51 14 770.61 13.89 771.25 12.74 771.34 12.45 771.34 12.37 771.54 12.1 771.99 10.05 772.18 9.53 772.21 9.37 772.31 9.04 772.76 8.33 772.86 7.99 772.87 7.79 772.91 7.54 772.99 7.32 773.11 7.23 773.76 7.29 773.87 7.23 773.95 7.31 773.79 7.63 774.03 7.83 774.47 7.9 774.88 7.89 775.12 7.8 775.57 7.57 775.79 7.52 776.21 7.49 776.62 7.38 777.7 6.79 777.7 6.81 777.72 6.84 777.76 6.94 777.78 6.98 777.78 6.98 778.54 8.31 779.71 9.1 Z M 774.66 5.72 774.66 5.78 774.88 5.78 774.81 5.92 774.67 6.09 774.38 6.36 773.88 6.61 773.64 6.89 773.29 6.95 772.92 6.86 772.71 6.59 772.78 6.31 772.99 6 773.25 5.75 773.75 5.49 774 5.17 774.26 4.91 774.59 4.92 774.64 4.98 774.66 5.04 774.65 5.09 774.59 5.14 774.74 5.28 774.85 5.47 774.85 5.64 774.66 5.72 Z" fill-rule="evenodd" id="NLD-3486" data-name="Noord-Holland"/>
<path d="M 55.66 379.98 55.74 380.03 55.81 380.17 55.75 380.29 55.66 380.32 55.52 380.23 55.54 380.05 55.66 379.98 Z" id="NLD-5147" data-name="Saba"/>
<path d="M 58.2 381.26 58.34 381.35 58.41 381.49 58.54 381.54 58.75 381.69 58.71 381.82 58.61 381.91 58.37 381.87 58.23 381.62 58.2 381.26 Z" id="NLD-5148" data-name="St. Eustatius"/>
<path d="M 3.17 437.17 3.25 437.22 3.36 437.32 3.4 437.42 3.28 437.46 3.18 437.57 3.26 438.12 3.24 438.33 3.15 438.4 2.95 438.41 2.88 438.47 2.89 438.57 3 438.84 3.02 438.94 3 439.04 2.96 439.18 2.9 439.29 2.85 439.34 2.72 439.33 2.66 439.28 2.44 438.81 2.39 438.63 2.37 438.43 2.42 438.1 2.43 437.89 2.37 437.67 2.21 437.43 2.01 437.32 1.5 437.24 1.27 437.17 1.07 437.04 1 436.86 1.15 436.66 1.07 436.59 1.12 436.47 1.18 436.36 1.28 436.3 1.43 436.3 1.59 436.39 1.81 436.67 1.9 436.74 2.08 436.78 2.74 437.09 3.08 437.14 3.17 437.17 Z" id="NLD-5149" data-name="Bonaire"/>
<path d="M 793.94 10.83 793.93 10.83 793.82 10.78 793.8 10.7 793.8 10.62 793.76 10.59 793.7 10.56 792.94 10.35 792.8 10.34 792.49 10.38 791.98 10.54 791.85 10.63 791.83 10.68 791.86 10.99 791.42 10.86 791.36 10.85 791.28 10.85 791.23 10.88 791.14 10.92 791.08 10.92 791.03 10.91 790.99 10.88 790.94 10.83 790.9 10.82 790.88 10.82 790.82 10.85 790.75 10.87 790.5 10.92 790.43 10.92 790.39 10.9 790.38 10.89 790.29 10.75 790.21 10.67 790.02 10.56 789.86 10.48 789.78 10.4 789.74 10.39 789.23 10.39 789.14 10.38 788.82 10.24 788.65 10.2 788.58 10.21 788.52 10.25 788.43 10.28 788.37 10.28 788.29 10.27 788.24 10.25 788.21 10.23 788.14 10.15 788.09 10.13 787.73 9.54 787.83 9.44 788.11 9.35 788.49 9.12 788.54 9.03 788.44 8.94 788.33 8.87 788.25 8.82 787.72 8.44 788.61 8.02 788.96 7.77 789.04 7.73 789.15 7.67 789.43 7.67 789.67 7.71 790.02 7.86 790.53 7.65 790.59 7.61 790.88 7.32 790.91 7.26 790.93 7.21 790.8 7.05 790.23 6.59 790.19 6.47 790.13 6.37 790.14 6.31 790.12 6.25 790.09 6.22 789.8 6.14 789.63 6.08 789.6 6.06 789.62 5.92 789.84 5.96 789.92 5.93 790.09 5.75 790.13 5.64 790.18 5.57 790.31 5.4 790.34 5.35 790.35 5.32 790.42 5.22 790.58 5.1 790.72 5.01 790.91 4.94 791.29 4.73 791.64 4.83 791.84 4.88 791.95 4.87 792.13 5.02 792.3 5.2 792.34 5.22 792.39 5.23 792.5 5.29 792.86 5.58 792.98 5.74 793 5.75 793.02 5.78 793.07 5.76 793.73 5.63 794.01 5.65 794.11 5.68 794.17 5.71 794.54 5.95 795 6.26 795.25 6.4 795.45 6.52 795.82 6.75 796.22 7.01 796.72 7.42 797.23 7.81 797.31 7.82 797.32 7.86 797.32 7.9 797.09 8.26 797.3 8.3 797.41 8.36 797.6 8.5 797.66 8.56 797.67 8.56 797.56 8.75 797.47 9.1 797.37 10.24 797.29 10.61 797.1 10.84 796.72 10.77 796.56 10.72 796.04 10.77 795.48 10.67 794.48 10.68 794.13 10.74 793.94 10.83 Z" id="NLD-894" data-name="Drenthe"/>
<path d="M 775.12 4.5 774.85 4.65 774.52 4.56 774.97 4.21 775.66 3.83 776.37 3.58 776.9 3.62 776.9 3.69 776.62 3.69 776.49 3.74 776.18 3.81 775.35 4.3 775.12 4.5 Z M 789.62 5.92 789.6 6.06 789.63 6.08 789.8 6.14 790.09 6.22 790.12 6.25 790.14 6.31 790.13 6.37 790.19 6.47 790.23 6.59 790.8 7.05 790.93 7.21 790.91 7.26 790.88 7.32 790.59 7.61 790.53 7.65 790.02 7.86 789.67 7.71 789.43 7.67 789.15 7.67 789.04 7.73 788.96 7.77 788.61 8.02 787.72 8.44 787.27 8.54 787.07 8.56 786.9 8.59 786.88 8.6 786.86 8.61 786.85 8.66 786.84 8.67 786.69 8.78 786.28 8.76 786.23 8.74 786.13 8.69 786.01 8.58 785.95 8.56 785.92 8.56 785.9 8.58 785.86 8.6 785.64 8.63 785.59 8.65 785.55 8.67 785.53 8.71 785.49 8.75 785.44 8.79 785.39 8.82 785.08 8.94 785 8.95 784.94 8.95 784.64 8.92 784.6 8.91 784.48 8.84 784.08 8.96 783.98 8.8 783.71 8.63 783.61 8.59 783.4 8.61 783.37 8.62 783.22 8.6 782.98 8.6 782.73 8.64 782.47 8.7 782.13 8.87 781.69 9.08 779.72 9.11 779.71 9.1 778.54 8.31 777.78 6.98 777.78 6.98 777.76 6.94 777.72 6.84 777.7 6.81 777.7 6.79 778.75 6.23 778.9 6.11 779.1 6.02 779.59 5.95 779.8 5.86 780.02 5.6 780.31 4.88 780.52 4.56 780.89 4.3 781.12 4.18 781.51 4.08 781.69 3.96 781.85 3.81 782.04 3.69 782.26 3.65 782.76 3.6 783.13 3.41 784.82 3 785.2 2.83 785.44 2.82 786.15 2.6 787.17 2.57 788.31 2.55 788.2 2.69 788.15 2.82 788.25 3.04 788.4 3.08 788.6 3.12 788.64 3.13 788.68 3.16 788.74 3.21 788.79 3.24 788.82 3.25 788.85 3.26 788.88 3.25 788.92 3.25 788.98 3.22 789.01 3.21 789.05 3.21 789.24 3.25 789.28 3.29 789.3 3.35 789.27 3.48 789.27 3.58 789.28 3.59 789.31 3.6 789.38 3.62 789.38 3.63 789.35 3.65 789.18 3.75 789.03 3.85 788.99 3.9 788.94 4.03 788.78 4.19 788.65 4.35 788.67 4.4 788.68 4.44 788.7 4.47 788.72 4.5 788.73 4.53 788.74 4.56 788.71 4.6 788.32 4.92 788.21 5.05 788.14 5.28 788.19 5.5 788.28 5.58 788.42 5.65 788.51 5.67 788.96 5.7 789.15 5.74 789.53 5.89 789.62 5.92 Z M 780.3 2.6 779.84 2.72 779.46 2.78 778 3.17 777.7 3.16 777.57 3 777.69 2.82 778.25 2.7 778.44 2.6 778.68 2.6 780.1 2.43 780.27 2.35 780.41 2.28 781.98 2.1 781.73 2.31 781.43 2.37 780.82 2.38 780.84 2.42 780.86 2.5 780.88 2.53 780.74 2.58 780.3 2.6 Z M 785.44 1.89 785.87 2.02 784.83 2.17 783.74 2.17 783.47 2.21 782.96 2.35 782.7 2.31 782.51 2.15 782.57 2 782.75 1.91 782.91 1.95 785.44 1.89 Z M 787.97 1.94 787.76 2.1 787.7 2.04 787.69 2 787.76 1.95 787.65 1.81 787.91 1.67 788.31 1.56 788.59 1.52 789.63 1.46 789.93 1.52 789.93 1.59 789.78 1.59 787.97 1.94 Z" fill-rule="evenodd" id="NLD-895" data-name="Friesland"/>
<path d="M 794.49 16.29 794.43 16.3 794.27 16.36 794.09 16.47 794.03 16.53 793.94 16.67 793.86 16.73 793.73 16.77 793.62 16.78 793.53 16.8 793.45 16.91 793.48 17.08 793.64 17.15 793.87 17.19 794.56 17.43 794.84 17.61 794.89 17.66 794.92 17.73 794.91 17.86 794.85 17.89 794.77 17.9 794.69 17.96 794.45 18.23 794.2 18.41 793.92 18.51 792.98 18.52 791.93 18.75 791.41 18.99 791.24 19.04 791.02 19.04 790.35 18.92 790.43 19.16 790.39 19.26 789.99 19.33 789.96 19.17 789.79 19.1 789.38 19.07 789.34 19.03 789.22 18.9 789.14 18.86 789.06 18.85 788.73 18.89 788.37 18.8 788.03 18.63 787.69 18.53 787.33 18.65 787.46 18.72 787.86 18.97 788 19.11 787.83 19.08 787.58 19.04 787.24 18.99 786.81 19.06 786.66 19.11 786.44 19.21 786.23 19.26 785.8 19.31 785.63 19.39 785.59 19.48 785.83 19.6 785.97 19.8 785.95 20.01 785.78 20.12 785.77 20.12 785.73 20.13 785.46 20.02 785.43 20 785.24 19.83 785.19 19.79 785.16 19.79 785.11 19.79 785 19.8 784.91 19.84 784.9 19.98 783.82 19.95 783.08 19.63 782.88 19.6 782.78 19.55 782.65 19.35 782.59 19.3 782.11 19.24 781.44 19.3 781.29 19.27 781.08 19.18 780.88 19.23 780.67 19.33 780.46 19.38 780.03 19.36 779.82 19.43 779.73 19.64 779.68 19.81 779.54 19.95 779.36 20.05 779.15 20.11 777.22 20.24 777.13 20.22 777.25 20.05 777.25 19.88 776.86 19.71 776.74 19.74 776.48 19.73 776.09 19.55 775.93 19.43 775.9 19.35 775.9 19.29 775.88 19.19 775.91 19.1 775.91 19.08 775.85 19.02 776.15 19 776.96 18.79 777.07 18.75 777.08 18.73 777.08 18.69 777.06 18.65 777.04 18.59 777.41 18.18 777.46 18.13 777.73 17.79 777.88 17.81 778.14 17.78 778.33 17.68 778.48 17.66 779.08 17.87 779.29 17.83 779.6 17.69 779.84 17.65 780.12 17.71 780.23 17.72 780.33 17.69 780.54 17.6 780.67 17.57 781.13 17.63 781.94 17.94 782.3 17.99 782.33 17.94 782.34 17.77 782.32 17.72 782.3 17.68 782.26 17.63 782.19 17.53 781.97 17.39 781.84 17.24 781.74 16.92 781.76 16.67 781.74 16.61 781.73 16.55 781.64 16.34 781.46 16.36 781.51 16.44 781.5 16.48 781.49 16.52 781.44 16.57 781.4 16.6 781.36 16.62 781.32 16.62 781.28 16.63 781.17 16.69 781.08 16.71 780.78 16.62 780.76 16.6 780.74 16.57 780.82 16.53 780.88 16.5 780.91 16.46 780.97 16.35 781.05 16.24 781.16 16.25 781.17 16.23 781.17 16.21 781.16 16.18 781.16 16.11 781.21 16.04 781.21 16.01 781.18 15.98 781.1 15.92 781.02 15.89 780.97 15.87 780.88 15.78 780.81 15.75 780.59 15.71 780.34 15.66 780.27 15.59 780.28 15.57 780.3 15.56 780.37 15.52 780.41 15.48 780.43 15.38 780.05 15.18 779.99 15.12 780.01 15.01 780.05 14.83 780.11 14.62 780.11 14.62 780.29 14.66 781.05 14.6 781.42 14.52 781.63 14.29 781.74 14.07 781.91 13.8 782.14 13.67 782.42 13.52 782.71 13.42 783.07 13.33 783.54 13.19 783.94 13.08 784.2 12.94 784.4 12.79 784.64 12.56 784.82 12.37 784.94 12.11 784.95 11.94 784.95 11.94 785.1 11.94 785.21 11.95 785.34 12.07 785.56 12.33 785.63 12.37 785.71 12.38 786.03 12.33 786.37 12.15 786.68 12.05 786.8 12.08 786.88 12.11 786.95 12.18 787.03 12.28 787.21 12.4 787.29 12.44 787.36 12.51 787.45 12.67 787.53 12.8 787.75 13 787.77 13.02 787.79 13.06 787.77 13.17 787.62 13.43 787.27 13.5 787.23 13.52 787.21 13.53 787.27 13.6 787.27 13.65 787.18 13.74 787.08 13.97 787.07 14.05 787.1 14.08 787.21 14.18 787.26 14.22 787.48 14.28 787.67 14.58 787.66 14.67 787.64 14.7 787.66 14.74 787.7 14.76 787.82 14.79 787.87 14.82 787.89 14.87 787.85 14.94 787.85 14.95 787.85 14.96 787.86 14.99 787.89 15.01 787.98 15.06 788.02 15.07 788.04 15.07 788.11 14.99 788.21 14.94 788.25 14.93 788.35 14.94 789.09 15.03 789.76 15.02 789.86 15 790.02 14.93 790.38 14.84 790.69 14.86 790.76 14.93 790.77 14.94 791.27 15.39 791.58 15.57 791.83 15.56 792.24 15.59 792.53 15.55 792.6 15.55 792.66 15.56 792.69 15.61 792.7 15.66 792.7 15.69 792.75 15.7 792.79 15.71 793.17 15.65 793.25 15.66 793.35 15.69 793.39 15.71 793.42 15.74 793.43 15.78 793.45 15.89 793.44 15.94 793.34 16.1 794.37 16.23 794.49 16.29 794.49 16.29 Z" id="NLD-896" data-name="Gelderland"/>
<path d="M 798.96 4.3 798.99 4.6 799 4.77 798.97 4.94 798.9 5.12 798.75 5.35 798.72 5.44 798.73 5.56 798.77 5.63 798.82 5.68 798.86 5.78 798.96 6.53 798.94 6.91 798.84 7.25 798.61 7.6 797.75 8.43 797.67 8.56 797.66 8.56 797.6 8.5 797.41 8.36 797.3 8.3 797.09 8.26 797.32 7.9 797.32 7.86 797.31 7.82 797.23 7.81 796.72 7.42 796.22 7.01 795.82 6.75 795.45 6.52 795.25 6.4 795 6.26 794.54 5.95 794.17 5.71 794.11 5.68 794.01 5.65 793.73 5.63 793.07 5.76 793.02 5.78 793 5.75 792.98 5.74 792.86 5.58 792.5 5.29 792.39 5.23 792.34 5.22 792.3 5.2 792.13 5.02 791.95 4.87 791.84 4.88 791.64 4.83 791.29 4.73 790.91 4.94 790.72 5.01 790.58 5.1 790.42 5.22 790.35 5.32 790.34 5.35 790.31 5.4 790.18 5.57 790.13 5.64 790.09 5.75 789.92 5.93 789.84 5.96 789.62 5.92 789.53 5.89 789.15 5.74 788.96 5.7 788.51 5.67 788.42 5.65 788.28 5.58 788.19 5.5 788.14 5.28 788.21 5.05 788.32 4.92 788.71 4.6 788.74 4.56 788.73 4.53 788.72 4.5 788.7 4.47 788.68 4.44 788.67 4.4 788.65 4.35 788.78 4.19 788.94 4.03 788.99 3.9 789.03 3.85 789.18 3.75 789.35 3.65 789.38 3.63 789.38 3.62 789.31 3.6 789.28 3.59 789.27 3.58 789.27 3.48 789.3 3.35 789.28 3.29 789.24 3.25 789.05 3.21 789.01 3.21 788.98 3.22 788.92 3.25 788.88 3.25 788.85 3.26 788.82 3.25 788.79 3.24 788.74 3.21 788.68 3.16 788.64 3.13 788.6 3.12 788.4 3.08 788.25 3.04 788.15 2.82 788.2 2.69 788.31 2.55 788.32 2.55 789.24 2.53 789.35 2.56 789.54 2.66 789.64 2.68 789.73 2.66 790 2.53 791.57 2.26 794.06 2.03 795.1 2.13 795.32 2.19 795.5 2.31 795.86 3.18 795.91 3.19 796.17 3.3 796.19 3.33 796.24 3.35 796.29 3.4 796.36 3.45 796.7 3.52 797.12 3.66 797.3 3.62 797.39 3.68 797.52 3.7 797.64 3.68 797.73 3.62 797.81 3.62 797.81 3.69 797.72 3.74 797.68 3.77 797.68 3.82 797.73 3.9 797.76 4.07 798.08 4.18 798.84 4.3 798.96 4.3 Z M 791.15 1 791.74 1.15 791.69 1.15 791.65 1.16 791.62 1.19 791.59 1.23 791.21 1.16 791.03 1.09 791.01 1.02 791.15 1 Z" fill-rule="evenodd" id="NLD-897" data-name="Groningen"/>
<path d="M 785.78 20.12 785.72 20.16 785.71 20.27 785.82 20.3 786.12 20.29 786.24 20.33 786.48 20.44 786.58 20.51 786.44 20.81 786.68 21 787.4 21.2 787.28 21.43 787.22 21.58 787.26 21.71 787.97 22.31 788.39 22.62 788.47 22.97 788.52 23.16 788.48 23.37 788.4 23.59 788.39 23.79 788.54 23.91 788.48 24 788.45 24.23 788.39 24.36 788.29 24.45 788.02 24.57 787.91 24.64 787.37 25.27 787.15 25.44 787.04 25.55 786.95 25.76 786.92 26 786.99 26.19 787.24 26.28 787.77 26.05 788.01 26.1 787.93 26.14 787.68 26.26 787.91 26.39 787.75 26.52 787.15 26.73 786.17 27.21 786.03 27.31 785.83 27.58 785.7 27.67 785.5 27.68 785.36 27.6 785.24 27.5 785.09 27.45 784.8 27.55 784.86 27.79 785.02 28.1 785.03 28.36 785.17 28.34 785.45 28.26 785.59 28.23 785.74 28.24 786.01 28.3 786.39 28.27 786.41 28.33 786.35 28.42 786.31 28.51 786.32 28.66 786.35 28.74 786.43 28.8 786.68 28.9 787.02 28.97 787 29.01 786.95 29.07 786.93 29.14 787.02 29.36 787.01 29.44 786.95 29.55 786.83 29.64 786.59 29.63 786.45 29.68 786.36 29.79 786.37 29.88 786.39 29.97 786.33 30.1 786.18 30.19 786.02 30.16 786.07 30.3 786.15 30.39 786.25 30.43 786.32 30.5 786.3 30.64 786.09 30.66 785.32 30.64 785.2 30.62 785.2 30.62 785.08 30.6 784.17 30.61 784.06 30.56 783.85 30.41 783.74 30.39 783.65 30.43 783.53 30.54 783.48 30.59 783.37 30.61 783.25 30.59 783.06 30.52 783.17 30.28 783.19 30.15 783.03 30.12 782.8 30.05 782.74 30.03 782.56 29.95 782.39 29.79 782.37 29.55 783.13 29.01 783.25 28.98 783.37 28.95 783.42 28.93 783.56 28.8 783.74 28.55 783.86 28.42 783.76 28.39 783.66 28.38 783.42 28.42 783.84 28.01 784 27.75 783.86 27.63 783.89 27.49 783.94 27.38 784.03 27.35 784.15 27.42 784.23 27.35 784.29 27.27 784.37 27.13 784.34 27.09 784.32 27.05 784.29 26.98 784.41 26.98 784.52 26.97 784.63 26.95 784.73 26.91 784.49 26.74 784.52 26.62 784.67 26.53 784.64 26.48 784.55 26.35 784.37 26.34 784.04 26.39 783.9 26.31 783.68 26.12 783.51 26.06 783.38 26.05 782.93 26.11 782.75 26.11 782.64 26.06 782.54 25.98 782.39 25.92 781.8 25.81 781.62 25.71 781.62 25.71 781.8 25.66 782.05 25.62 782.14 25.62 782.22 25.6 782.29 25.55 782.35 25.47 782.45 25.12 782.63 24.91 782.71 24.84 782.93 24.66 783.96 24.46 784.71 24.31 785.03 24.26 785.28 24.13 785.66 23.93 785.4 23.59 785.04 23.28 784.8 22.68 784.64 22.01 785.02 22.04 785.42 22.12 785.55 22.12 785.83 22.09 786.35 21.98 786.45 22 786.71 22.11 786.87 22.02 786.87 21.93 786.81 21.84 786.68 21.53 786.64 21.48 786.63 21.45 786.42 21.23 786.32 21.17 786.22 21.13 786.16 21.07 786.23 20.97 786.07 20.86 785.93 20.48 785.77 20.4 785.34 20.37 785.17 20.3 785.08 20.17 785.11 20.05 784.9 19.98 784.91 19.84 785 19.8 785.11 19.79 785.16 19.79 785.19 19.79 785.24 19.83 785.43 20 785.46 20.02 785.73 20.13 785.77 20.12 785.78 20.12 Z" id="NLD-898" data-name="Limburg"/>
<path d="M 793.94 10.83 793.76 10.91 793.85 11.02 793.83 11.11 793.78 11.2 793.78 11.29 793.86 11.36 794.2 11.54 793.62 11.72 793.44 11.73 793.57 11.89 793.61 12.08 793.62 12.27 793.69 12.42 793.9 12.57 794.17 12.66 795.01 12.73 795.55 12.86 795.85 12.88 796.13 12.87 796.39 12.83 796.49 12.77 796.56 12.7 796.62 12.68 797.27 13.32 797.41 13.59 797.32 13.98 797.11 14.28 797.04 14.44 797.03 14.63 797.12 14.85 797.19 14.92 797.21 14.95 797.18 15.01 796.71 15.18 796.6 15.27 796.35 15.51 796.14 15.63 795.69 15.75 795.48 15.88 795.25 16.18 795.12 16.25 794.49 16.29 794.49 16.29 794.37 16.23 793.34 16.1 793.44 15.94 793.45 15.89 793.43 15.78 793.42 15.74 793.39 15.71 793.35 15.69 793.25 15.66 793.17 15.65 792.79 15.71 792.75 15.7 792.7 15.69 792.7 15.66 792.69 15.61 792.66 15.56 792.6 15.55 792.53 15.55 792.24 15.59 791.83 15.56 791.58 15.57 791.27 15.39 790.77 14.94 790.76 14.93 790.69 14.86 790.38 14.84 790.02 14.93 789.86 15 789.76 15.02 789.09 15.03 788.35 14.94 788.25 14.93 788.21 14.94 788.11 14.99 788.04 15.07 788.02 15.07 787.98 15.06 787.89 15.01 787.86 14.99 787.85 14.96 787.85 14.95 787.85 14.94 787.89 14.87 787.87 14.82 787.82 14.79 787.7 14.76 787.66 14.74 787.64 14.7 787.66 14.67 787.67 14.58 787.48 14.28 787.26 14.22 787.21 14.18 787.1 14.08 787.07 14.05 787.08 13.97 787.18 13.74 787.27 13.65 787.27 13.6 787.21 13.53 787.23 13.52 787.27 13.5 787.62 13.43 787.77 13.17 787.79 13.06 787.77 13.02 787.75 13 787.53 12.8 787.45 12.67 787.36 12.51 787.29 12.44 787.21 12.4 787.03 12.28 786.95 12.18 786.88 12.11 786.8 12.08 786.68 12.05 786.37 12.15 786.03 12.33 785.71 12.38 785.63 12.37 785.56 12.33 785.34 12.07 785.21 11.95 785.1 11.94 784.95 11.94 784.73 11.35 784.58 11.27 784.58 11.14 784.7 11.06 784.71 11.05 785.24 10.91 785.38 10.9 785.44 10.92 785.61 10.94 785.71 10.94 786.22 10.83 786.56 10.71 786.33 10.54 786.12 10.47 785.7 10.4 785.61 10.37 785.58 10.35 785.6 10.34 785.67 10.29 785.72 10.23 785.77 10.17 785.69 9.9 785.54 9.63 785.47 9.56 785.35 9.46 784.86 9.22 784.08 8.96 784.48 8.84 784.6 8.91 784.64 8.92 784.94 8.95 785 8.95 785.08 8.94 785.39 8.82 785.44 8.79 785.49 8.75 785.53 8.71 785.55 8.67 785.59 8.65 785.64 8.63 785.86 8.6 785.9 8.58 785.92 8.56 785.95 8.56 786.01 8.58 786.13 8.69 786.23 8.74 786.28 8.76 786.69 8.78 786.84 8.67 786.85 8.66 786.86 8.61 786.88 8.6 786.9 8.59 787.07 8.56 787.27 8.54 787.72 8.44 788.25 8.82 788.33 8.87 788.44 8.94 788.54 9.03 788.49 9.12 788.11 9.35 787.83 9.44 787.73 9.54 788.09 10.13 788.14 10.15 788.21 10.23 788.24 10.25 788.29 10.27 788.37 10.28 788.43 10.28 788.52 10.25 788.58 10.21 788.65 10.2 788.82 10.24 789.14 10.38 789.23 10.39 789.74 10.39 789.78 10.4 789.86 10.48 790.02 10.56 790.21 10.67 790.29 10.75 790.38 10.89 790.39 10.9 790.43 10.92 790.5 10.92 790.75 10.87 790.82 10.85 790.88 10.82 790.9 10.82 790.94 10.83 790.99 10.88 791.03 10.91 791.08 10.92 791.14 10.92 791.23 10.88 791.28 10.85 791.36 10.85 791.42 10.86 791.86 10.99 791.83 10.68 791.85 10.63 791.98 10.54 792.49 10.38 792.8 10.34 792.94 10.35 793.7 10.56 793.76 10.59 793.8 10.62 793.8 10.7 793.82 10.78 793.93 10.83 793.94 10.83 Z" id="NLD-899" data-name="Overijssel"/>
<path d="M 784.08 8.96 784.86 9.22 785.35 9.46 785.47 9.56 785.54 9.63 785.69 9.9 785.77 10.17 785.72 10.23 785.67 10.29 785.6 10.34 785.58 10.35 785.61 10.37 785.7 10.4 786.12 10.47 786.33 10.54 786.56 10.71 786.22 10.83 785.71 10.94 785.61 10.94 785.44 10.92 785.38 10.9 785.24 10.91 784.71 11.05 784.7 11.06 784.58 11.14 784.58 11.27 784.73 11.35 784.95 11.94 784.95 11.94 784.94 12.11 784.82 12.37 784.64 12.56 784.4 12.79 784.2 12.94 783.94 13.08 783.54 13.19 783.07 13.33 782.71 13.42 782.42 13.52 782.14 13.67 781.91 13.8 781.74 14.07 781.63 14.29 781.42 14.52 781.05 14.6 780.29 14.66 780.11 14.62 780.09 14.61 779.66 14.45 779.68 14.45 778.78 14.08 778.42 14.01 778.2 14.01 777.81 14.03 777.49 13.98 776.91 13.6 776.89 13.26 777.49 12.92 777.84 12.92 777.57 12.46 777.06 12 776.8 11.3 778.56 10.6 778.73 10.21 779.06 10.07 779.59 10.17 779.71 9.11 779.71 9.1 779.72 9.11 781.69 9.08 782.13 8.87 782.47 8.7 782.73 8.64 782.98 8.6 783.22 8.6 783.37 8.62 783.4 8.61 783.61 8.59 783.71 8.63 783.98 8.8 784.08 8.96 Z" id="NLD-902" data-name="Flevoland"/>
<path d="M 762.44 24.24 762.67 24.3 763.09 24.3 763.49 24.37 763.75 24.35 764.78 24.07 764.92 23.97 764.98 23.76 765.08 23.66 765.31 23.67 765.55 23.73 765.7 23.79 765.77 23.86 765.89 24.02 765.99 24.09 766.1 24.11 766.36 24.13 766.46 24.19 766.53 24.2 766.9 24.22 767.08 24.05 767.14 24.01 767.35 24.03 767.58 24.11 767.58 24.16 767.5 24.4 767.44 24.51 767.02 24.86 766.5 25.12 765.19 25.54 764.71 25.77 764.48 25.82 763.23 25.83 763.1 25.79 762.94 25.68 762.92 25.57 762.94 25.45 762.88 25.31 762.68 25.23 761.39 24.96 761.12 24.93 760.86 24.94 760.44 25 760.27 25.01 760.12 25.03 760 25.11 759.98 25.23 760.01 25.36 759.98 25.46 759.48 25.51 759.14 25.48 758.9 25.41 758.83 25.39 758.57 25.22 758.42 24.95 758.43 24.7 758.47 24.44 758.38 24.04 758.38 24.04 760.08 23.69 760.24 23.61 760.4 23.6 761.07 23.87 762.1 24.05 762.44 24.24 Z M 767.81 22.3 767.68 22.51 767.3 22.47 766.86 22.35 766.7 22.34 766.37 22.37 766.21 22.35 765.95 22.26 765.12 21.77 765.68 21.6 765.96 21.55 766.9 21.58 767.18 21.63 767.43 21.76 767.43 21.76 767.44 21.77 767.71 21.97 767.75 22 767.82 22.14 767.82 22.26 767.81 22.3 Z M 766.2 23.16 766.35 23.29 766.6 23.34 767.15 23.29 767.36 23.36 767.57 23.32 767.91 23.33 768.03 23.31 768.03 23.31 768.03 23.31 768.08 23.47 768.04 23.51 768.03 23.54 768.01 23.58 768.02 23.7 768.06 23.9 768.16 23.95 768.2 24.02 768.21 24.1 768.21 24.1 768 24.1 767.96 24.07 767.87 23.94 767.84 23.81 767.85 23.7 767.83 23.62 767.72 23.57 767.6 23.67 767.37 23.72 766.42 23.7 766.2 23.66 765.99 23.57 765.4 23.26 765.23 23.21 764.79 23.19 764.64 23.24 764.33 23.61 764.21 23.72 764.05 23.78 763.67 23.8 763.53 23.86 763.42 23.87 763.31 23.84 763.02 23.65 762.38 23.45 761.97 23.2 761.8 23.19 761.37 23.29 761.13 23.3 760.53 23.21 760.34 23.15 760.18 23 760.04 22.83 759.91 22.71 759.57 22.52 759.45 22.41 759.41 22.23 759.52 22.14 760.61 21.72 763.44 21.53 763.67 21.55 763.83 21.61 764 21.71 764.15 21.84 764.25 21.99 764.14 22.02 763.96 22.09 763.89 22.13 763.89 22.2 764.9 22.26 765.41 22.39 765.85 22.63 765.99 22.8 766.2 23.16 Z M 767.09 21.21 767.32 21.27 767.33 21.26 767.33 21.27 767.21 21.49 766.79 21.48 766.68 21.45 766.57 21.4 766.49 21.34 766.44 21.25 766.42 21.17 766.42 21.17 766.45 21.14 766.62 21.05 766.86 21.11 767.09 21.21 Z M 765.41 20.59 765.46 20.65 765.53 20.7 765.63 20.76 766.07 20.83 766.27 20.92 766.29 21.09 766.18 21.2 766.01 21.27 765.82 21.32 765.01 21.42 764.83 21.41 764.43 21.32 764.21 21.22 764.1 21.08 764.04 20.94 763.87 20.86 763.46 20.76 763.39 20.72 763.32 20.66 763.23 20.61 763.09 20.61 762.83 20.8 762.77 20.84 762.3 20.85 762.08 20.81 761.94 20.69 761.97 20.34 762.35 20.19 763.24 20.11 763.28 20.1 763.46 20.11 763.6 20.16 764.61 20.17 764.84 20.21 765.01 20.29 765.41 20.59 Z" fill-rule="evenodd" id="NLD-903" data-name="Zeeland"/>
</g>
</svg>