<?xml version="1.0"?>
<svg xmlns="http://www.w3.org/2000/svg" version="1.2" baseProfile="tiny" width="800" height="1018" viewBox="0 0 800 1018" stroke-linecap="round" stroke-linejoin="round">
<g id="ne_10m_admin_1_states_provinces">
<path d="M 435.76 566.3 442.36 570.85 443.84 574.63 437.52 570.4 434.06 569.14 433.12 571.09 430.01 572.48 426.72 571.65 423.56 569.48 418.12 564.26 416.28 561.82 416.82 560.23 421.31 560.26 427.55 562.32 435.76 566.3 Z M 541.8 409.77 539.55 411.24 536.6 412.14 533.21 412.44 531.67 413.22 531.67 415.02 532.03 417 531.55 418.33 530.34 418.53 529.07 418.05 526.7 416.4 521.01 423.64 519.06 424.34 517.04 424.81 516.01 425.41 516.77 428.8 516.52 429.61 519.59 433.65 518.36 436.12 521.72 437.98 520.42 441.61 517.08 445.14 514.24 446.74 512.26 448.47 510.72 452.54 511.49 455.84 510.62 460.1 507.08 467.32 500.48 475.69 498.13 477.5 496.5 478.31 495.45 478.12 494.54 477.78 493.29 477.13 489.38 474.73 488.29 475.36 487.09 475.84 486.02 476.15 484.7 476.34 479.43 476.13 478.2 476.3 477.05 476.71 475.92 477.41 474.83 478.29 473.85 479.34 473.2 480.56 473.08 481.95 474.05 485.69 474.1 487.05 473.83 488.24 470.26 496.75 467.59 500.55 467.21 502.07 467.83 503.18 470.32 504.8 471.28 505.61 472.03 506.7 472.43 507.93 472.32 509.18 470.98 511.5 469.46 512.87 474.06 517.22 475.57 519.17 475.17 520.05 472.48 520.39 470.48 521.34 469.74 522.82 470.99 524.77 469.26 526.56 465.44 528.8 463.91 530.88 463.9 530.91 463.89 530.93 462.77 530.82 459.73 530.89 459.26 531.6 460.79 533.19 463.87 535.5 462.69 539.04 459.65 537.41 457.75 537.25 454.42 539.04 450.04 540.39 447.56 541.93 446.81 541.31 444.18 534.5 444.85 529.61 447.63 525.59 451.98 523.71 450.91 522.53 450.6 523.24 450.59 523.42 450.38 523.46 449.62 523.71 448.3 522.07 445.44 522.37 439.1 524.79 440.09 527.2 439.22 528.67 437.11 529.38 434.4 529.61 431.49 529.38 429.25 528.67 424.87 526.07 426.26 528.75 428.68 530.51 431.54 531.52 434.4 531.97 440.82 532.19 442.22 533.58 442.59 549.06 442.07 550.94 440.72 551.98 439.3 554.49 438.23 557.54 437.92 560.26 432.12 557.97 398.29 551.92 391.73 549.69 385.84 546.11 385.67 548.1 387.3 549.97 409.7 562.44 412.4 564.5 414.01 566.65 415.09 568.79 416.61 570.42 422.09 571.53 426.88 573.76 429.58 574.63 440.89 575.8 442.31 576.94 447.37 584.05 448.1 586.89 448.73 592.99 448.01 592 446.69 590.3 445.11 588.77 445.95 592.13 446.72 602.34 446.08 606.45 441.38 612.63 440.29 613.64 438.23 613.17 437.81 611.73 438.61 610.02 440.29 608.81 440.29 607.63 439.1 607.63 437.18 610.03 435.28 611.75 432.89 612.9 429.58 613.64 423.1 613.47 420.95 614.25 420.13 617.12 420.34 618.22 419.94 618.53 419.14 620.15 418.49 620.81 415.52 622.43 410.99 620.46 408.65 618.36 404.74 615.6 401.26 614.82 399.15 614.38 398.72 614.78 396.59 615.38 394.66 616.52 393.11 619.33 394.79 619.59 397.46 619.22 398.85 620.16 398.99 623.16 398.85 623.06 398.56 623.99 397.84 624.9 397.46 625.93 396.14 627.06 394.27 629.93 392.55 630.99 391.48 631.18 390.01 631.3 387.97 630.57 385.52 628.99 382.18 625.21 381.24 622.37 380.85 617.97 380.23 616.58 379.19 615.29 377.76 614.67 375.83 614.37 367.39 615.89 365.81 618.54 364.47 621.76 361.26 623.35 358.36 626.06 356.91 628.13 353.51 631.1 352.6 632.17 350.22 637.01 345.9 642.53 341.8 646.39 339.37 647.62 336.47 648.2 330.31 649.15 330.25 649.1 323.18 645.67 321.87 644.6 318.36 640.85 317.31 640.24 314.71 639.16 313.75 638.49 312.98 637.25 312.01 634.1 311.28 632.49 308.99 629.65 303.44 624.94 300.67 621.88 296.48 613.55 294.77 611.27 293.39 610.53 290.47 609.99 288.98 608.8 288.25 607.73 287.7 606.43 287.45 604.85 287.59 602.91 290.98 605.57 292.74 606.17 294.02 603.7 296.69 600.23 297.77 599.48 299.98 598.8 300.52 597.28 299.53 595.68 297.13 594.76 295.12 595.21 293.65 596.4 292.11 597.37 289.95 597.12 287.4 594.06 287.96 590.48 287.56 587.53 278.35 585.22 279.84 582.64 283.29 579.53 285.23 576.86 280.08 576.96 275.72 572.3 273.16 565.77 273.34 560.25 274.62 560.25 275.24 561.21 275.91 561.8 278.16 562.71 274.9 548.5 273.34 545.03 269.92 542.09 264.63 539.4 259.57 538.93 256.82 542.67 256.16 541.66 255.71 540.49 255.54 539.23 255.76 537.95 256.88 537.32 259.16 535.65 260.76 533.93 259.78 533.13 257.98 532.33 256.98 530.46 256.21 528.29 255.12 526.59 252.93 524.32 242.69 510.26 240.92 509.44 238.63 509.63 235.8 510.43 230.83 510.73 223.71 502.37 223.2 500.8 232.16 479.44 232.33 475.99 232.01 474.56 229.49 467.75 229.55 467.77 235.21 471.31 250.66 477.38 254.58 479.47 261.48 485.21 265.91 486.02 268.94 485.14 274.15 482.06 276.95 481.03 286.52 480.21 290.47 479.24 290.43 477.21 288.66 469.19 288.21 466.61 288.93 462.82 291.18 457.5 305.97 446.26 308.09 444.4 309.7 442 311.02 439.64 311.45 433.5 313.2 430.64 312.68 430.28 313.02 427.82 313.69 425.35 313.1 424.23 312.94 423.51 313.27 421.92 312.62 420.34 309.51 419.62 309.44 415.84 309.28 414.92 308.76 414.39 306.83 413.02 302.19 408.4 301.88 407.76 300.9 407.15 300.62 406.92 300.42 406.65 300.3 405.13 300.41 398.36 299.32 391.74 299.3 390.05 300.94 377.61 301.1 371.18 302.49 365.76 302.76 362.36 302.6 359.13 302.15 357.02 303.03 355.19 304.93 353.05 306.21 348.73 306.21 346.51 305.36 343.2 305.6 341.29 307.5 333.42 307.39 329.8 306.54 326.62 305.41 324.82 303.99 323.17 300.83 320.52 295.74 318.07 292.77 316.2 291 314.48 288.69 310.26 287.19 306.84 282.99 288.18 282.74 286.74 283.74 272.24 285.34 263.12 287.62 253.82 291.48 246.42 293.11 244.11 295.15 241.9 297.69 238.52 298.69 234.15 297.16 224.76 301.1 216.25 301.56 215.08 302.6 213.7 305.06 212.31 307.92 211.8 307.94 211.79 307.21 216.75 307.82 222.64 309.35 228.78 311.36 232.16 314.05 232.59 320.2 230.33 326.75 230.09 365.08 244.83 392.16 250.27 405.58 255.46 411.65 255.63 429.19 252.22 443.35 253.39 450.27 251.76 452.72 251.82 454.68 252.39 458.41 253.95 464.82 254.95 466.32 254.85 467.3 254.32 469.14 252.55 470.05 252.11 472.81 252.43 475.05 253.64 477.2 255.13 479.72 256.26 484.56 256.79 504.04 254.36 503.51 261.8 506.09 269.36 506.01 271.63 505.45 273.34 503.6 275.88 502.12 278.78 500.17 285 511.45 301.98 516.43 304.01 536.93 302.08 539.24 309.82 540.39 313.4 541.01 321.08 539.8 330.12 540.9 333.24 541.83 333.56 542.64 333.54 543.63 333.35 544.97 333.24 550.27 333.41 552.09 334.24 553.04 335.55 553.79 337.64 553.65 338.97 553.09 339.92 552.36 340.85 551.88 341.86 551.72 343.05 551.72 344.04 551.59 345.15 551.08 346.07 549.79 346.79 548 347.32 547.03 347.91 547.11 349.19 549.26 351.65 550.14 353.51 551.27 354.59 552.18 355.29 555.26 356.81 552.85 362.61 551.02 365.79 549.52 367.71 548.37 368.88 547.88 369.25 547.65 369.84 547.7 370.54 549.02 371.99 550.36 372.7 552.25 372.8 554.33 373.68 554.97 376.87 555.26 377.78 555.07 379.87 552.2 381.76 555.95 384.84 557.06 385.96 557.93 387.27 558.26 388.58 557.35 390.14 556.17 390.5 554.27 392.4 556.61 395.86 552.88 398.25 547.01 400.66 544.51 406.54 543.13 407.72 541.8 409.77 Z" fill-rule="evenodd" id="BGD-1806" data-name="Dhaka"/>
<path d="M 194.91 844.44 192.81 847.5 187.59 844.89 178.82 835.14 178.81 834.47 179.9 833.4 181.01 830.15 180.94 826.81 179.2 821.06 178.75 818.37 177.64 815.35 177.81 813.75 179.83 813.65 180.55 814.12 181.14 814.93 181.61 815.94 182.28 818.37 183.97 830 185.95 835.11 189.91 837.22 193.93 839.69 194.91 844.44 Z M 229.49 467.75 232.01 474.56 232.33 475.99 232.16 479.44 223.2 500.8 223.71 502.37 230.83 510.73 235.8 510.43 238.63 509.63 240.92 509.44 242.69 510.26 252.93 524.32 255.12 526.59 256.21 528.29 256.98 530.46 257.98 532.33 259.78 533.13 260.76 533.93 259.16 535.65 256.88 537.32 255.76 537.95 255.54 539.23 255.71 540.49 256.16 541.66 256.82 542.67 259.57 538.93 264.63 539.4 269.92 542.09 273.34 545.03 274.9 548.5 278.16 562.71 275.91 561.8 275.24 561.21 274.62 560.25 273.34 560.25 273.16 565.77 275.72 572.3 280.08 576.96 285.23 576.86 283.29 579.53 279.84 582.64 278.35 585.22 287.56 587.53 287.96 590.48 287.4 594.06 289.95 597.12 292.11 597.37 293.65 596.4 295.12 595.21 297.13 594.76 299.53 595.68 300.52 597.28 299.98 598.8 297.77 599.48 296.69 600.23 294.02 603.7 292.74 606.17 290.98 605.57 287.59 602.91 287.45 604.85 287.7 606.43 288.25 607.73 288.98 608.8 290.47 609.99 293.39 610.53 294.77 611.27 296.48 613.55 300.67 621.88 303.44 624.94 308.99 629.65 311.28 632.49 312.01 634.1 312.98 637.25 313.75 638.49 314.71 639.16 317.31 640.24 318.36 640.85 321.87 644.6 323.18 645.67 330.25 649.1 330.31 649.15 332.8 651.37 336.07 656.54 333.63 658.33 333.23 658.49 331.91 658.23 331.42 658.28 330.87 658.72 330.31 659.55 329.66 660.77 329.53 661.39 329.69 661.83 330.18 662.19 330.87 662.86 330.92 663.44 330.5 664.13 329.71 664.55 328.75 664.93 327.94 665.42 327.3 666.64 327.3 667.9 327.55 668.86 328 669.47 329.53 670.27 330.34 671.1 330.23 671.81 329.48 672.58 324.2 675.78 322.64 677.53 322.7 678.43 323.77 678.92 328.14 679.32 329.6 679.83 330.5 681.03 330.66 682.28 330.39 683.48 329.91 683.93 329.16 683.95 328.41 683.56 327.52 683.34 326.55 683.43 325.59 684.09 325.64 684.8 327.49 686.39 328.64 687.81 330.63 693.09 331.19 693.63 333.41 694.98 334.41 695.9 334.97 697.04 335.77 699.61 335.85 701.77 335.69 703.48 335.45 704.33 333.98 707.49 333.57 708.64 333.28 710.19 333.49 711.04 334.05 711.7 336.79 713.03 336.92 713.13 337.24 713.71 337.62 714.29 339.07 718.25 339.07 718.25 333.54 723.5 331.15 726.29 330.22 729.02 328.87 731.76 325.88 730.97 320.66 727.14 321 730.76 321.98 733.7 322.6 736.65 321.96 740.33 314.76 753.19 316.85 756.86 318.67 762.99 320.66 774.63 320.9 780.63 320.4 783.56 318.95 785.78 316.05 787.23 313.52 787 310.87 786.31 307.59 786.31 307.59 787.6 311.25 789.06 314.28 790.89 316.35 793.58 317.12 797.63 316.9 799.28 316.01 802.38 316.05 804.21 316.76 805.8 319.09 809.22 320.48 812.51 322.17 814.45 323.14 816.68 321.96 819.43 320.72 819.88 316.87 820.58 312.43 824.25 311.46 825.41 311.12 826.21 310.53 826.92 308.89 827.79 305.72 828.97 303.88 829.2 303.1 828.38 302.18 825.89 300.03 826.39 297.45 828.02 295.27 828.97 292.39 828.77 289.16 828.14 286.2 827.05 284.12 825.44 283.37 824.1 282.72 822.27 282.62 820.35 284.48 817.34 284.12 815.69 281.65 812.36 276.82 821.9 278.78 825.08 282.13 829.41 285.98 833.23 289.44 834.86 290.93 836.58 289.07 839.98 285.32 842.45 281.06 841.41 278.98 840.17 277.06 840.12 272.76 840.87 272.29 841.84 274.19 846.45 274.57 847.94 271.28 851.09 267.61 848.93 262.68 841.94 262.99 838.89 260.99 831.75 261.5 827.79 262.89 825.57 266.09 822.09 267.4 819.43 267.95 816.58 267.23 804.07 268.58 794.03 269.51 790.5 273.64 783.67 274.57 779.88 273.98 776.2 272.46 772.59 270.32 769.37 267.99 766.81 267.88 764.4 273.18 757.93 274.57 755.06 274.76 751.38 275.37 747.81 276.47 744.44 278.11 741.4 276.21 742.74 274.61 744.93 272.24 749.65 270.23 751.55 269.59 753.06 271.15 757.05 270.14 758.54 266.81 760.9 264.76 763.98 264.96 766.25 268.58 772.16 269.45 774.3 269.87 775.96 269.97 779.88 269.56 781.94 267.79 785.25 267.4 786.96 266.02 797.97 265.15 800.46 261.95 802.07 260.54 799.4 260.32 791.72 260.78 789.91 262.57 786.33 262.68 784.06 254.89 766.9 254.44 763.37 255.26 755.64 255.06 752.2 253.36 748.47 252.08 748.47 250.65 759.89 252.08 781.71 253.36 781.71 253.52 779.28 254.33 777.05 255.26 775.79 255.72 776.29 255.96 777.79 256.57 779.9 257.45 781.98 258.5 783.47 259.43 785.44 259.28 787.95 257.84 792.31 256.99 793.09 254.87 793.46 254.44 794.03 254.61 795.29 255.01 796.11 255.72 797.04 256.35 798.98 258.46 803.21 259.73 804.75 260.04 805.94 258.43 815.12 256.66 817.12 254.39 818.71 252.08 820.72 250.16 823.74 249.99 826.19 250.58 829.03 251 833.21 250.37 837.19 248.71 840.46 246.38 843.18 240.11 848.24 238.17 848.41 233.76 843.76 232.83 841.18 232.58 836.76 233.11 828.97 234.04 825.82 236.29 820.53 236.75 816.49 236.01 813.01 232.79 807.19 232.03 804.21 230.75 804.21 229.67 806.85 230.16 809.07 231.27 811.24 232.03 813.65 232.03 816.41 231.4 817.99 228.49 820.72 226.72 822.8 225.63 824.53 222.8 830.92 221.95 832.34 221.08 832.4 220.13 830.15 218.96 830.15 219.04 834.52 220.81 841.25 220.13 845.48 217.19 851.44 217.69 853.38 221.31 855.01 219.3 857.18 216.33 859.18 212.87 860.58 209.51 860.91 206.27 859.16 205.23 855.95 205.89 852.85 207.67 851.48 208.04 849.61 202.69 835.48 202.43 834.02 202.33 831.98 201.59 831.27 199.99 832.23 198.34 833.93 197.63 835.46 196.61 836.24 194.32 835.65 190.54 833.8 188.76 832.32 188 831.23 183.73 817.15 183.36 814.24 183.81 810.67 185.65 803.44 185.72 799.39 184.47 795.77 180.64 790.88 179.83 788.19 180.89 780.26 180.36 777.01 180.41 776.9 183.42 773.38 183.08 769.2 182.14 765.79 180.68 762.89 173.14 753.72 171.5 750.11 173.99 748.52 171.12 743.92 170.19 741.81 168.13 732.62 168.11 730.93 168.57 729.15 170.05 726.88 170.36 725.52 169.64 721.51 166.47 714.65 164.91 708.26 162.85 706.73 157.49 704.77 161.34 702.38 162.4 698.41 161.64 693.76 159.97 689.34 157.84 685.69 157.13 681.86 156.54 679.63 154.48 674.65 154.06 671.5 155.24 669.15 157.19 666.97 159.02 664.33 159.77 662.03 160.45 658.67 160.74 655.32 160.34 652.99 158.37 651.24 153.54 649.81 151.53 647.53 147.85 639.39 146.05 636.69 142.77 632.86 142.09 630.92 142.19 627.54 143.8 622.62 144.25 613.77 146.58 609.43 155.95 600.17 160.58 596.63 162.1 595 162.99 593.16 163.01 591.74 162.02 590.92 157.31 591.08 155.78 590.72 154.32 590.06 142.23 586.19 139.3 585.65 137.04 585.98 135.55 586.89 134.39 587.89 133 588.49 131.19 588.47 119.85 585.09 117.53 583.16 115.81 579.84 115.69 576.09 117.26 572.76 121.45 566.6 129.84 546.05 130.24 542.33 127.93 540.6 125.67 542.24 123.63 545.12 121.47 545.91 118.92 541.23 117.05 540.43 111.99 537.24 109.08 534.34 105.03 527.64 102.45 525.06 101.07 524.8 97.66 525.14 95.91 524.45 94.24 522.78 94.13 521.64 94.7 520.33 95.04 518.17 94.16 517.52 92.38 517.18 90.76 516.43 90.51 514.5 94.15 498.78 93.9 497.18 92.65 494.56 92.68 492.91 93.54 491.06 96.08 487.4 96.97 485.39 96.99 483.82 96.61 482.28 96.42 480.71 96.99 479.07 99.74 477.04 103.12 476.87 106.71 477.17 110.02 476.54 112.33 474.86 118.88 468.95 120.56 466.98 121.08 463.87 120.6 460.2 119.56 456.89 118.39 454.87 120.51 451.52 122.52 449.06 122.44 447.43 118.28 446.52 117.74 444.34 114.49 441.75 113.65 439.78 113.87 438.19 114.98 434.6 115.18 432.59 114.37 429.07 114.33 427.41 115.31 425.29 117.05 423.78 120.87 422.47 123.55 421.28 123.72 422.54 124.36 423.89 127.06 427.67 128.18 428.58 132.39 430.6 134.9 432.29 136.28 432.96 139.67 433.47 142.81 432.76 153.97 427.97 156.3 426.51 158.01 424.42 159.82 424.35 161.45 424.61 163.01 425.19 164.62 426.06 165.97 427.11 169.94 431.97 173.88 435.53 175.62 436.76 176.28 437.58 176.95 439.18 177.3 440.55 177.81 441.86 178.93 443.27 180.2 444.53 181.32 445.91 182.01 447.48 182.01 449.3 181.45 451.48 181.21 453.12 181.72 454.65 183.36 456.48 190.03 461.68 193.73 463.87 197.48 465.51 202.17 466.32 216.5 464.95 221.16 465.26 225.48 466.15 229.49 467.75 Z" fill-rule="evenodd" id="BGD-2432" data-name="Khulna"/>
<path d="M 444.64 810.63 442.91 814.54 441.48 813.65 440.29 813.65 438.82 817.12 436 820.86 432.63 823.35 429.58 823.18 429.58 821.9 430.81 821.64 433.01 820.9 434.4 820.72 432.92 818.75 432.05 817.86 430.76 817.07 431.88 815.92 431.87 814.59 431.61 813.02 432.04 811.18 432.75 810 433.51 809.17 445.11 801.75 445.11 805.28 445.77 806.11 446.37 807.27 447.37 810 444.64 810.63 Z M 399.98 825.42 398.38 826.39 397.63 825.98 397.63 817.94 398.31 813.81 399.98 810 403.75 803.44 406.75 800.33 410.7 799.39 410.07 803.18 405.73 810.01 401.6 823.55 399.98 825.42 Z M 402.36 804.21 401.26 804.21 402.34 800.53 404.55 795.51 407.18 791.56 409.52 791.13 408.43 795.44 403.54 800.64 402.36 804.21 Z M 417.2 815.35 414.37 816.6 412.09 815.51 410.74 812.99 410.7 810 411.64 807.55 412.8 805.76 413.74 803.57 414.15 799.92 413.74 794.47 414.37 792.81 416.61 791.13 417.77 792.31 424.35 798.8 426.57 803.44 424.87 808.92 421.16 810.99 417.2 815.35 Z M 448.55 771.1 445.11 781.71 445.09 780 444.81 778.86 443.84 776.88 441.83 782.83 440.82 789.4 439.27 795.33 435.58 799.39 432.33 800.34 430.52 799.53 429.76 797.62 429.58 795.26 430.5 793.7 436.63 788.78 435.58 787.6 428.16 791.66 427.22 793.39 426.13 793.39 426.47 789.35 427.52 785.59 429.49 782.79 432.56 781.71 434.73 780.42 439.33 775.65 441.48 775.7 442.96 773.72 444.98 771.9 447 770.83 448.55 771.1 Z M 507.38 763.5 507.83 765.08 507.83 774.42 506.49 778.42 503.1 779.24 501.35 776.61 501.53 771.79 502.78 766.57 504.17 762.74 505.24 764.02 506.17 762.89 506.87 762.74 507.38 763.5 Z M 513.19 765.69 511.23 767.35 511.34 758.12 512.35 754.67 514.77 755.65 514.92 758.83 514.4 762.51 513.19 765.69 Z M 513.59 750.83 507.16 760.27 504.45 759.24 504.97 756.81 506.76 753.91 507.83 751.48 508.43 743.65 509.46 739.44 511.23 736.68 512.52 737.97 513.49 740.58 514.18 743.77 514.33 747.27 513.59 750.83 Z M 451.95 724.89 454.46 729.11 456.36 733.89 456.78 737.97 454.89 734.47 454.42 733.16 453.2 736.22 454.3 743.12 453.16 746.11 452.27 744.58 452.1 742.73 452.15 740.79 451.98 739.04 453.16 739.04 452.06 735.95 450.74 729.15 449.62 726.08 448.58 725.41 447.42 725.62 446.47 725.31 446.08 723.08 446.5 722.01 447.54 721.66 448.72 721.88 449.62 722.54 451.95 724.89 Z M 455.49 724.99 454.42 726.08 455.46 715.94 455.9 716.42 456.78 716.53 457.5 718.41 457.8 720.26 457.85 723.61 456.08 724.54 455.49 724.99 Z M 485.58 773.11 476.4 786.32 473.39 788.78 473.14 788.03 472.13 786.31 468.17 790.16 466.56 791.07 462.05 798.22 460.54 798.74 458.39 799.82 456.19 800.66 454.42 800.46 453.03 796.65 455.07 791.72 458.3 786.49 460.35 781.71 450.71 794.74 447.96 795.26 446.83 791.83 447.56 786.94 449.5 781.93 451.98 778.17 450.07 774.37 451.72 767.98 458.92 753.42 459.78 750.6 460.35 747.29 460.37 737.19 461.42 734.22 460.03 729.12 459.65 725.74 460.35 723.61 460.35 722.54 458.41 719.33 456.4 708.87 454.42 704.75 451.64 702.45 441.9 696.01 439.1 695.31 438.28 688.94 438.68 682.91 442.53 668.7 443.71 666.8 445.57 665.53 448.55 664.44 451.58 663.76 454.96 663.45 456.69 668.57 458.58 674.68 460.75 679.52 463.73 685.13 466.17 689.21 468.89 692.27 471.61 696.35 472.91 704.72 475.05 710.06 479.13 713.89 486.74 720.29 490.26 724.37 486.81 740.78 487.01 768.66 485.58 773.11 Z M 447.37 647.94 450.85 651.4 454.04 652.77 457.21 656.28 459.73 659.84 456.99 660.33 451.07 659.19 444.66 658.88 439.62 663.21 437 664.1 434.41 666.59 434.08 670.89 434.93 673.58 432.58 676.52 430.85 674.62 428.65 672.71 428.4 671.1 427.72 669.35 426.01 668.23 421.31 666.91 422.77 664.93 423.03 663.34 422.51 658.55 422.59 655.4 423.1 652.34 424.36 650.03 426.68 649.12 432.61 650.11 435.45 649.75 436.63 647.35 438.06 647.16 444.89 647.13 447.37 647.94 Z M 454.06 631.09 457.85 633.79 457.85 634.85 453.41 634.98 451.98 634.85 453.94 636.07 455.66 637.56 456.99 639.21 457.85 640.87 452.48 640.33 450.91 639.69 449.62 638.39 447.55 634.93 446.08 633.79 444.28 633.29 443.59 633.58 442.98 634.25 441.48 634.85 439.61 635.11 434.92 635.16 433.12 634.85 430.35 630.92 433.79 625.42 439.54 621.11 443.84 620.71 447.48 623.61 454.06 631.09 Z M 425.12 624.6 423.69 625.42 422.21 618.37 421.31 615.89 427.99 615.87 429.38 615.54 430.76 614.82 431.91 616.5 431.66 617.77 428.99 620.17 425.12 624.6 Z M 420.34 618.22 421.07 621.99 423.48 627.42 426.71 632.59 430.17 636.74 430.56 637.62 430.27 639.63 430.76 640.87 431.19 641.06 431.87 641.11 432.58 641.3 433.12 641.94 435.17 643.42 435.87 644.61 434.99 646.23 432.42 647.43 429.84 647.18 427.31 646.57 424.87 646.76 421.57 650.61 419.99 656.37 417.91 661.17 413.06 662.2 415.83 664.44 415.13 666.76 412.8 667.65 410.7 665.62 406.95 667.94 409.48 669.69 414.41 671.21 417.77 672.8 419.39 669.63 422.34 670.11 425.33 672.5 427.22 675.06 427.74 676.84 428.4 682.23 430.5 687.8 431.15 693.83 430.69 695.08 428.99 697.14 427.47 697.92 423.53 698.46 421.92 699.39 420.92 702 418.97 711.58 418.95 714.18 419.46 712.37 420.53 711.33 421.71 710.56 422.51 709.46 422.66 707.66 422.13 704.25 422.51 702.39 424.21 700.03 426.77 698.63 429.84 698.19 433.12 698.74 439.27 702.32 442.39 707.27 444.44 713.01 447.37 719 444.73 718.17 443.84 717.71 443.88 721.62 445.12 724.77 448.55 730.89 449.41 734.39 449.56 737.97 448.55 745.05 443.04 758.29 438.96 764.31 435.58 765.08 430.98 767.43 429.15 768.91 428.4 770.45 427.99 772.79 426.93 775.49 421.99 783.55 420.33 785.48 418.36 786.31 416.09 785.81 413.15 784.59 410.62 783.07 409.52 781.71 410.52 777.43 414.71 769.2 415.42 765.08 413.42 760.18 413.06 757.91 414.12 752.49 413.57 750.34 410.7 749.65 411.46 753.24 409.73 760.88 410.11 763.37 411.53 764.51 412.64 764.97 413.5 765.63 414.15 767.35 413.91 768.68 413.11 769.86 411.78 771.1 411.55 771.39 411.19 771.69 410.86 772.28 410.41 774.73 409.73 774.66 408.89 774.26 408.24 774.63 407.74 776.36 407.16 781.71 406.49 783.92 405.77 785.41 402.61 789.87 400.42 792.21 399.98 792.85 399.24 795.89 395.9 802.19 395.17 805.34 394.41 811.92 392.81 818.37 391.46 821.74 389.71 824.05 380.19 831.64 377.8 833.17 374.53 833.8 371 833.23 364.51 830.72 361.45 830.15 358.66 828.74 357.9 825.89 359.08 823.7 362.04 824.25 360.74 821.83 361.75 820.13 363.48 818.54 364.41 816.49 364.12 815.02 363.65 814.05 363.57 812.97 364.41 811.18 362.68 813.36 359.62 820.39 357.96 821.9 356.32 822.41 354.17 824.74 352.61 825.44 351.13 825.16 348.88 823.41 346.83 823.18 348.01 818.56 348.47 809.18 350.37 805.28 351.97 804.03 353.97 802.9 355.94 801.5 357.43 799.39 358.26 796.76 358.59 794.6 359.18 792.5 360.86 790.06 367.95 784.06 368.8 783.04 370.05 780.97 370.95 779.88 372.46 779.22 374.01 779.6 375.37 780.29 376.3 780.52 379.94 778.15 382.62 774.28 383.9 769.68 383.38 765.08 380.31 772.54 378.16 776.47 375.71 778.17 371.07 778.74 368.22 780.3 357.96 790.59 356.74 792.35 355.35 796.11 353.15 799.29 352.62 800.51 351.66 801.33 349.19 801.75 347.48 801.48 341.98 799.39 342.98 796.99 343.16 794.36 344.47 792.31 346.1 791 347.62 790.28 348.73 789.1 349.19 786.42 348.6 781.27 349.36 779.35 349.99 776.76 351.61 775.06 353.53 774.26 355.15 773.17 356.15 771.1 351.69 772.58 349.53 775.58 346.83 784.06 345.27 785.98 340.63 790.27 339.63 791.72 340.06 799.53 339.63 801.75 337.05 803.82 333.93 802.73 331.29 799.82 330.22 796.44 329.88 794.74 328.36 790.82 327.86 788.78 327.48 776.02 325.88 768.88 325.5 764.55 325.05 762.88 322.84 759.6 321.96 757.91 321.31 755.65 321.08 753.84 321.34 751.99 321.96 749.65 325.37 741.76 339.63 722.54 340.59 720.38 341.22 718.29 342.25 716.39 344.36 714.77 339.63 717.71 339.07 718.25 337.62 714.29 337.24 713.71 336.92 713.13 336.79 713.03 334.05 711.7 333.49 711.04 333.28 710.19 333.57 708.64 333.98 707.49 335.45 704.33 335.69 703.48 335.85 701.77 335.77 699.61 334.97 697.04 334.41 695.9 333.41 694.98 331.19 693.63 330.63 693.09 328.64 687.81 327.49 686.39 325.64 684.8 325.59 684.09 326.55 683.43 327.52 683.34 328.41 683.56 329.16 683.95 329.91 683.93 330.39 683.48 330.66 682.28 330.5 681.03 329.6 679.83 328.14 679.32 323.77 678.92 322.7 678.43 322.64 677.53 324.2 675.78 329.48 672.58 330.23 671.81 330.34 671.1 329.53 670.27 328 669.47 327.55 668.86 327.3 667.9 327.3 666.64 327.94 665.42 328.75 664.93 329.71 664.55 330.5 664.13 330.92 663.44 330.87 662.86 330.18 662.19 329.69 661.83 329.53 661.39 329.66 660.77 330.31 659.55 330.87 658.72 331.42 658.28 331.91 658.23 333.23 658.49 333.63 658.33 336.07 656.54 332.8 651.37 330.31 649.15 336.47 648.2 339.37 647.62 341.8 646.39 345.9 642.53 350.22 637.01 352.6 632.17 353.51 631.1 356.91 628.13 358.36 626.06 361.26 623.35 364.47 621.76 365.81 618.54 367.39 615.89 375.83 614.37 377.76 614.67 379.19 615.29 380.23 616.58 380.85 617.97 381.24 622.37 382.18 625.21 385.52 628.99 387.97 630.57 390.01 631.3 391.48 631.18 392.55 630.99 394.27 629.93 396.14 627.06 397.46 625.93 397.84 624.9 398.56 623.99 398.85 623.06 398.99 623.16 398.85 620.16 397.46 619.22 394.79 619.59 393.11 619.33 394.66 616.52 396.59 615.38 398.72 614.78 399.15 614.38 401.26 614.82 404.74 615.6 408.65 618.36 410.99 620.46 415.52 622.43 418.49 620.81 419.14 620.15 419.94 618.53 420.34 618.22 Z" fill-rule="evenodd" id="BGD-2475" data-name="Barisal"/>
<path d="M 677.41 848.67 683.65 860.09 685.21 866.92 684.83 870.56 683.23 877.81 682.85 881.7 681.27 884.71 677.49 884.85 673.15 884.14 669.78 884.6 669.78 885.53 670.58 886.84 670.66 888.19 668.6 889.2 666.77 889.05 665.27 888.06 664.25 886.65 663.51 883.59 662.99 882.41 663.03 881.17 665.73 877.54 666.18 875.75 666.23 871.64 665.35 864.67 661.72 853.17 662.69 846.78 664.32 843.36 665.94 841.77 667.84 841.93 670.37 843.76 671.21 846 670.41 848.67 669.14 851.41 668.6 853.83 671.29 850.74 672.36 846.61 672.17 842.22 670.93 838.4 674.02 837.97 676.86 837.22 676.92 839.99 676.86 840.87 677.41 848.67 Z M 660.54 845.12 659.07 846.78 657.59 843.87 660.33 829.56 659.07 820.72 659.7 817.71 660.95 815.49 665.05 811.18 665.73 811.71 666.01 812.28 666.23 813.65 668.31 820.1 668.6 822.54 668.03 825.28 665.6 829.72 664.3 835.7 660.54 845.12 Z M 529.53 781.92 526.23 783.91 521.96 783.69 519.18 783.04 517.24 781.8 516.18 779.26 521.16 773.74 524.32 769.13 525.5 766.27 527.09 757.86 527.24 745.72 528.22 732.32 531.23 731.85 537.21 734.69 541 737.77 542.32 742.08 544.9 744.23 546.63 750.46 546.71 754.47 547.56 760.1 544.76 765.38 543.09 767.99 541.95 770.13 539.73 774.18 536.15 776.93 533.67 778.42 531.48 778.9 529.53 781.92 Z M 542.85 721.6 538.47 721.81 534.94 719.75 536.64 714.96 542.69 712.49 549.84 710.55 551.71 713.86 550.01 717.89 546.43 720.12 542.85 721.6 Z M 611.17 730 602.94 730.91 597.51 728.05 592.41 721.16 589.5 714.29 588.48 708.72 592.45 699.91 596.04 698.18 611.38 716.85 612.63 724.2 611.17 730 Z M 798.69 918.83 799 920.58 797.43 923.38 794.07 926.67 790.02 929.14 786.52 929.41 784.47 927.25 783.24 923.68 781.92 916.7 778.56 909.75 774.1 908.81 768.36 909.98 761.06 909.32 757.11 908.05 755.27 907.09 753.81 905.67 752.61 902.64 752.26 899.75 751.53 896.92 749.24 894.09 743.71 892.35 737.12 899.75 731.66 899.67 728.79 900.09 726.86 903.48 724.52 910.83 719.7 917.34 718.77 920.36 718.74 923.74 719.97 930.6 719.76 933.97 718.79 939.09 718.2 941.79 719.2 944.85 720.51 947.23 724.56 950.79 725.7 953.36 726.72 956.02 733.78 961.56 732.64 968.23 732.38 975.38 733.14 982.43 734.96 988.78 739.9 995.88 740.73 997.68 741.11 1000.92 744.27 1010.01 745.54 1012.23 746.06 1014.05 745.66 1015.91 744.2 1017.24 743.13 1016.67 742.25 1015.42 741.36 1014.73 739.97 1013.17 736.01 1004.22 724.2 984.06 721.3 972.86 720.16 971.11 711.15 963.91 709.46 961.68 706.65 956.59 704.71 953.84 697.05 945.39 695.83 942.59 695.58 938.95 697.01 927.79 696.7 923.68 695.8 920.39 686.22 904.04 684.62 902.39 682.71 901.38 681.03 898.9 679.87 895.82 679.3 892.96 680.37 892.96 680.74 893.54 680.88 893.64 681.1 893.67 681.67 894.04 682.96 890.95 685.04 887.7 687.82 885.86 691.08 886.96 688.92 885.03 687.19 881.87 686.22 878.28 686.26 875.07 687.74 873.13 690.14 871.03 691.81 868.62 691.08 865.73 693.68 862.8 694.17 861.52 693.47 859.85 694.51 858.22 694.19 856.73 692.92 855.59 691.92 855.24 692.4 853.44 693.05 851.89 693.05 850.39 692.37 849.02 692.12 850.43 691.81 850.96 691.08 851.48 692.37 851.48 690.13 857.42 688.12 859.9 685.21 859.85 683.86 857.79 684.34 855.08 685.26 852.36 685.21 850.3 684.03 850.3 683.14 853.27 681.54 853.04 679.98 850.99 679.3 848.48 679.87 844.61 681.41 843.66 683.63 843.21 686.26 840.87 685.21 839.69 682.34 841.66 681.13 840.21 682.21 837.61 686.26 836.05 686.26 834.86 678.26 835.45 674.88 836.52 672.22 837.22 670.59 835.78 670.87 831.67 672.69 827.97 675.79 826.51 674.46 824.74 675.13 823.11 676.99 821.73 679.3 820.72 679.3 819.43 677.49 819.63 675.89 820.38 674.54 821.61 673.43 823.18 672.5 821.03 671.69 817.46 670.93 810.59 670.41 808.95 667.96 806.31 667.42 804.75 667.42 798.22 662.99 780.57 662.69 774.63 664.49 775.32 665.05 775.7 664.17 773.42 662.65 773.74 661.4 775.95 661.4 779.24 660.33 779.24 658.48 776.27 656.79 772.5 655.69 768.29 655.53 764.02 656.37 761.39 657.92 759.7 659.45 758.4 660.33 756.84 660.08 754 658.6 752.58 656.76 751.8 655.53 750.83 654.98 746.53 658.03 744.47 662.5 743.25 666.23 741.4 668.12 738.33 672.11 726.08 671.04 726.2 668.6 726.08 668.22 728.69 666.53 735.35 666.83 736.68 665.62 737.59 663.66 739.57 661.05 741.59 658 742.59 657.47 743.45 653.21 745.56 651.96 747.29 652.41 750.03 654.23 751.34 656.43 752.1 658 753.19 657.93 756.52 654.99 758.63 651.23 758.34 648.56 754.47 645.58 734.73 643.72 728.44 632.04 707.11 609.95 678.49 604.47 676.44 601.42 673.84 598.99 670.69 597.64 667.98 596.29 668.69 595.15 667.86 594.39 666.06 594.1 663.9 594.45 661.79 596.08 659.67 597.15 654.66 599.92 647.37 600 643.23 598.72 643.23 598.13 646.45 595.15 655.5 593.44 657.37 589.63 658.46 587.27 661.28 586.38 665.11 586.92 669.27 584.32 667.44 581.79 666.34 578.91 665.77 575.13 665.62 575.13 666.91 578.75 667.9 579.22 669.54 577.49 671.05 574.47 671.74 565.51 671.91 568.63 672.83 571.43 674.03 572.77 675.06 572.27 677.56 570.11 679.03 567.2 679.71 564.42 679.88 564.25 679.7 558.95 678.67 558.19 678.85 557.57 678.83 557.34 678.16 557.42 675.54 557.34 675.06 555.23 674.35 552.61 674.05 546.71 673.98 546.71 675.06 548.9 676.88 549.7 678.76 548.48 679.99 544.48 679.88 544.48 681.16 554.48 683.54 559.06 685.33 560.98 688.77 560.39 691 559.01 693.43 557.02 700.07 553.53 703.21 550.31 705.62 545.79 706.8 537.29 708.42 530.7 705.41 527.32 700.73 525.42 693.34 523.71 691.3 521.85 688.24 519.91 682.99 518.46 681.47 515.95 682.23 518.53 684.69 520.87 689.45 522.24 694.48 521.85 697.78 518.34 699.39 512.73 700.24 507.52 699.99 505.24 698.25 504.17 695.87 499.45 692.73 498.38 691.14 497.82 689.57 495.29 686.41 493.97 681.52 492.07 680.76 486.97 681.16 486.17 680.17 484.13 673.98 482.8 672.96 481.21 672.26 479.89 671.41 478.75 668.32 476.3 665.07 475.76 663.9 475.5 662.08 473.39 657.37 472.13 651.48 470.74 648.46 469.18 645.9 467.91 643.02 467.41 639.1 466.51 637 453.16 620.17 451.3 615.62 450.91 613.64 450.92 611.78 452.9 601.2 453.16 594.13 454.14 590.32 456.08 586.96 457.49 583.78 456.78 580.52 457.85 580.52 455.01 574.89 454.89 572.6 456.78 571.09 456.19 570.92 455.69 570.91 455.41 570.68 455.49 569.8 451.13 571.22 448.18 567.6 446.52 562.42 446.08 559.19 446.27 549.04 447.73 545.11 451.98 542.68 462.04 542.73 466.09 540.68 466.23 534.33 465.43 531.97 464.46 530.98 463.89 530.93 463.9 530.91 463.91 530.88 465.44 528.8 469.26 526.56 470.99 524.77 469.74 522.82 470.48 521.34 472.48 520.39 475.17 520.05 475.57 519.17 474.06 517.22 469.46 512.87 470.98 511.5 472.32 509.18 472.43 507.93 472.03 506.7 471.28 505.61 470.32 504.8 467.83 503.18 467.21 502.07 467.59 500.55 470.26 496.75 473.83 488.24 474.1 487.05 474.05 485.69 473.08 481.95 473.2 480.56 473.85 479.34 474.83 478.29 475.92 477.41 477.05 476.71 478.2 476.3 479.43 476.13 484.7 476.34 486.02 476.15 487.09 475.84 488.29 475.36 489.38 474.73 493.29 477.13 494.54 477.78 495.45 478.12 496.5 478.31 498.13 477.5 500.48 475.69 507.08 467.32 510.62 460.1 511.49 455.84 510.72 452.54 512.26 448.47 514.24 446.74 517.08 445.14 520.42 441.61 521.72 437.98 518.36 436.12 519.59 433.65 516.52 429.61 516.77 428.8 516.01 425.41 517.04 424.81 519.06 424.34 521.01 423.64 526.7 416.4 529.07 418.05 530.34 418.53 531.55 418.33 532.03 417 531.67 415.02 531.67 413.22 533.21 412.44 536.6 412.14 539.55 411.24 541.8 409.77 555.99 416.53 560.32 417.28 566.11 412.86 567.18 412.27 568.44 411.84 570.46 411.55 571.71 411.75 572.65 412.4 572.84 412.96 572.63 413.54 571.96 414.22 569.62 415.97 564.88 418.55 564.18 419.1 563.78 419.73 563.81 420.54 564.77 421 568.92 422.06 569.76 422.65 570.05 423.06 569.62 423.39 568.95 423.62 565.2 424.31 564.56 424.52 563.97 424.83 563.27 425.41 562.74 426.12 562.5 427.4 562.62 429.02 563.92 431.6 564.43 433.07 564.72 434.54 564.56 436.73 564.88 439.85 565.12 441.08 565.79 442.92 566.01 444.16 566.89 446.91 568.39 448.52 569.33 449.79 569.35 450.01 569.27 451.35 568.71 454.28 568.57 455.31 568.56 455.35 567.96 455.11 565.66 454.95 562.64 456.09 560.36 457.98 558.54 460.26 552.65 469.87 551.9 472.28 552.04 474.65 553.99 478.66 554.7 480.82 554.2 484.08 550.74 493.5 548.97 496.33 545.79 497.82 542.51 498.09 539.78 498.97 538.16 502.29 538.89 506.05 541.62 507.41 544.47 508.39 545.56 510.99 544.04 513.79 541.6 513.61 539.42 513.88 538.83 518.03 539.62 521.04 544.63 529.7 545.95 532.75 547.4 538.4 548.99 541.23 550.42 542.48 553.43 544.21 554.56 545.79 554.97 547.1 555.79 551.4 558.11 558.74 559.88 562.22 562.09 563.78 564.34 564.32 564.91 565.34 564.16 566.71 562.43 568.29 561.2 569.87 561.5 571.21 562.43 572.61 563.18 574.37 567.19 602.17 569.44 609.29 573.57 614.47 579.35 615.9 579.99 610.21 576.76 595.72 576.72 588.04 577.63 584 579.56 581.52 583.4 581.38 586.72 583.81 589.24 587.11 590.68 589.64 590.63 589.49 591.22 588.29 591.27 588.14 592.39 589.52 592.45 590.69 592.22 591.68 592.39 592.57 594.95 594.89 595.36 594.95 596.54 600.27 597.34 602.03 601.32 614.66 602.21 619.07 602.69 619.63 604.33 620.04 604.78 620.68 604.99 625.77 605.73 627.57 607.96 629.87 610.24 630.67 612.54 631.06 614.9 632.13 615.99 634.03 615.97 635.74 616.51 636.33 619.33 634.86 620.34 633.59 620.99 631.95 621.79 630.53 623.36 629.93 624.57 630.14 625.81 630.54 627.02 630.78 628.25 630.53 630.59 629.74 635.26 628.79 637.39 627.54 638.67 626.2 641.58 623.75 642.8 622.48 645.69 618.41 645.9 617.73 645.78 616.93 645.85 616.11 646.71 615.43 647.28 615.4 648.92 615.53 649.35 615.47 651.95 612.86 652.68 611.29 652.06 609.27 649.83 603.99 647.22 592.1 644.67 586.61 643.72 579.71 646.99 571.21 652.01 563.13 656.5 557.51 659.29 555.27 668.84 551.46 671.6 549.61 673.85 547.32 677.76 541.23 678.03 534.45 673.48 514.47 673.21 507.88 673.57 504.16 674.64 501.89 677.05 501.79 679.21 504.17 681.37 507.39 688.59 514.94 691.27 516.21 695.3 515.26 698.29 512.86 703.91 505.63 706.71 502.71 714.03 500.39 717.45 505.23 719.2 511.84 721.54 514.81 724.15 512.49 726.34 504.52 729.22 502.95 732.77 504.74 732.84 505.4 733.18 508.43 731.16 515.77 731.64 521.52 738.25 541.21 739.25 549.62 740.05 552.17 740.96 553.54 743.21 555.57 744.17 557.06 744.44 558.35 744.17 560.75 744.4 561.94 745.26 563.08 747.54 564.73 748.19 565.59 748.35 567.17 747.87 570.57 747.92 572.27 748.81 575.14 749.62 576.81 749.72 578.57 748.54 581.67 745.44 587.67 744.73 590.27 744.56 597.14 748.95 621.58 748.81 633.59 750.13 639.41 753.38 643.93 759.11 646.09 761.61 649.01 763.11 662.44 764.32 667.68 766.34 670.26 771 674.03 772.87 676.64 773.62 679.3 774.83 692.6 774.48 702.63 775.12 705.52 777.33 710.91 777.6 713.88 787.63 770.3 787.38 774.68 785.42 775.54 782.85 775.51 780.78 777.22 784.69 788.84 786.95 800.22 787.31 801.75 787.43 803.3 789.92 813.73 790.4 818.95 787.38 845.37 789.92 886.54 790.34 890.92 792.16 899.57 798.38 917.08 798.69 918.83 Z" fill-rule="evenodd" id="BGD-2476" data-name="Chittagong"/>
<path d="M 754.46 280.54 754.8 282.15 754.81 282.19 754.81 282.21 756.15 282.54 759.11 283.52 759.16 283.54 759.18 283.54 759.21 284.07 759.22 284.11 764.74 287.85 764.75 287.86 766.35 288.58 766.39 288.6 767.05 289.39 767.09 289.43 765.7 290.58 765.66 290.61 765.66 290.62 769.89 292.29 769.91 292.3 771.53 293.76 772.82 296.49 772.84 296.51 773.39 299.52 772.87 301.44 770.48 304.87 764.32 306.33 753.74 309.57 752.04 309.36 750.78 308.82 750.76 308.8 750.04 307.93 750.04 307.89 749.87 306.64 749.84 306.62 738.14 300.14 738.11 300.13 731.54 298.12 726.5 300.12 725.57 303.02 726.28 306.05 726.29 306.08 728.56 311.59 728.57 311.63 728.89 314.42 728.82 317.11 728.36 319.78 719.58 342.28 717.94 348.99 717.15 354.88 716.24 357.49 714.44 360.02 713.89 360.43 711.92 361.89 709.26 363.33 707.14 365.24 706.28 368.53 707.19 379.06 706.57 383.95 703.23 388.15 698.82 389.98 693.75 390.36 679.35 389.23 679.15 391.28 683.04 397.12 683.19 399.47 679.88 398.28 676.06 395.86 674.49 394.56 670.69 395.68 670.1 398.77 671.91 405.64 671.75 409.04 668.02 423.74 666.77 426.76 664.59 428.05 661.09 427.23 655.83 422.43 655.41 420.89 655.13 417 654.67 415.87 652.86 415.79 641.87 413.6 640.16 415.89 640.64 419.16 641.71 422.68 641.81 425.68 639.83 428.32 636.82 429.37 633.44 428.93 630.34 427.13 628.79 424.46 625.73 417.5 623.93 416.87 623.15 418.92 621.29 429.86 619.95 433.53 618.31 435.92 615.77 437.46 611.78 438.57 604.67 439.34 598.27 438.85 585.17 436.24 577.99 436.81 575.89 441.23 575.62 447.83 573.85 454.88 571.78 456.15 569.91 455.87 568.56 455.35 568.57 455.31 568.71 454.28 569.27 451.35 569.35 450.01 569.33 449.79 568.39 448.52 566.89 446.91 566.01 444.16 565.79 442.92 565.12 441.08 564.88 439.85 564.56 436.73 564.72 434.54 564.43 433.07 563.92 431.6 562.62 429.02 562.5 427.4 562.74 426.12 563.27 425.41 563.97 424.83 564.56 424.52 565.2 424.31 568.95 423.62 569.62 423.39 570.05 423.06 569.76 422.65 568.92 422.06 564.77 421 563.81 420.54 563.78 419.73 564.18 419.1 564.88 418.55 569.62 415.97 571.96 414.22 572.63 413.54 572.84 412.96 572.65 412.4 571.71 411.75 570.46 411.55 568.44 411.84 567.18 412.27 566.11 412.86 560.32 417.28 555.99 416.53 541.8 409.77 543.13 407.72 544.51 406.54 547.01 400.66 552.88 398.25 556.61 395.86 554.27 392.4 556.17 390.5 557.35 390.14 558.26 388.58 557.93 387.27 557.06 385.96 555.95 384.84 552.2 381.76 555.07 379.87 555.26 377.78 554.97 376.87 554.33 373.68 552.25 372.8 550.36 372.7 549.02 371.99 547.7 370.54 547.65 369.84 547.88 369.25 548.37 368.88 549.52 367.71 551.02 365.79 552.85 362.61 555.26 356.81 552.18 355.29 551.27 354.59 550.14 353.51 549.26 351.65 547.11 349.19 547.03 347.91 548 347.32 549.79 346.79 551.08 346.07 551.59 345.15 551.72 344.04 551.72 343.05 551.88 341.86 552.36 340.85 553.09 339.92 553.65 338.97 553.79 337.64 553.04 335.55 552.09 334.24 550.27 333.41 544.97 333.24 543.63 333.35 542.64 333.54 541.83 333.56 540.9 333.24 539.8 330.12 541.01 321.08 540.39 313.4 539.24 309.82 536.93 302.08 516.43 304.01 511.45 301.98 500.17 285 502.12 278.78 503.6 275.88 505.45 273.34 506.01 271.63 506.09 269.36 503.51 261.8 504.04 254.36 505.53 254.18 511.01 252.39 538.67 248.34 548.26 248.65 550.38 248.33 554.15 246.55 556 246.5 564.34 250.46 589.88 257.54 596.64 258.24 598.32 258.01 601.8 256.99 603.66 256.76 605.69 256.29 608.58 254.14 610.06 253.55 613.06 253.74 614.33 255.07 615.49 257.04 618.26 259.11 621.18 259.76 625.59 259.94 629.62 259.4 631.39 257.79 632.28 255.01 634.27 254.95 636.5 255.96 638.03 256.38 639.24 255.49 640.28 253.4 641.39 252.45 644.01 252.12 652.36 252.81 670.82 250.7 680.44 252.05 683.69 251.08 688.29 249.77 693.86 249.99 699.39 251.23 704.03 252.92 705.34 253.89 707.05 256.35 708.05 257.28 709.42 257.71 711.92 257.81 713.12 258.62 714.06 258.96 716.44 258.3 717.81 258.58 718.94 259.49 721.51 262.51 723.91 264.42 726 265.76 728.34 266.7 731.43 267.41 740.41 268.54 741.89 269.52 744.65 273.08 749.51 274.98 753.79 277.32 754.46 280.54 Z" id="BGD-2488" data-name="Sylhet"/>
<path d="M 287.62 253.82 285.34 263.12 283.74 272.24 282.74 286.74 282.99 288.18 287.19 306.84 288.69 310.26 291 314.48 292.77 316.2 295.74 318.07 300.83 320.52 303.99 323.17 305.41 324.82 306.54 326.62 307.39 329.8 307.5 333.42 305.6 341.29 305.36 343.2 306.21 346.51 306.21 348.73 304.93 353.05 303.03 355.19 302.15 357.02 302.6 359.13 302.76 362.36 302.49 365.76 301.1 371.18 300.94 377.61 299.3 390.05 299.32 391.74 300.41 398.36 300.3 405.13 300.42 406.65 300.62 406.92 300.9 407.15 301.88 407.76 302.19 408.4 306.83 413.02 308.76 414.39 309.28 414.92 309.44 415.84 309.51 419.62 312.62 420.34 313.27 421.92 312.94 423.51 313.1 424.23 313.69 425.35 313.02 427.82 312.68 430.28 313.2 430.64 311.45 433.5 311.02 439.64 309.7 442 308.09 444.4 305.97 446.26 291.18 457.5 288.93 462.82 288.21 466.61 288.66 469.19 290.43 477.21 290.47 479.24 286.52 480.21 276.95 481.03 274.15 482.06 268.94 485.14 265.91 486.02 261.48 485.21 254.58 479.47 250.66 477.38 235.21 471.31 229.55 467.77 229.49 467.75 225.48 466.15 221.16 465.26 216.5 464.95 202.17 466.32 197.48 465.51 193.73 463.87 190.03 461.68 183.36 456.48 181.72 454.65 181.21 453.12 181.45 451.48 182.01 449.3 182.01 447.48 181.32 445.91 180.2 444.53 178.93 443.27 177.81 441.86 177.3 440.55 176.95 439.18 176.28 437.58 175.62 436.76 173.88 435.53 169.94 431.97 165.97 427.11 164.62 426.06 163.01 425.19 161.45 424.61 159.82 424.35 158.01 424.42 156.3 426.51 153.97 427.97 142.81 432.76 139.67 433.47 136.28 432.96 134.9 432.29 132.39 430.6 128.18 428.58 127.06 427.67 124.36 423.89 123.72 422.54 123.55 421.28 123.58 421.27 124.13 419.79 126.13 417.08 126.72 415.5 126.32 414.86 125.88 412.02 125.55 411.31 124.6 404.48 120.63 399.59 114.98 396.39 111.24 395.64 109.4 399.59 106.81 403.26 103 403.48 94.48 400.83 83.3 400.35 79.33 399.58 66.54 390.26 21.2 368.53 16.22 367.54 15.88 366.33 14.3 363.83 12.78 362.01 12.09 361.37 11.91 360.5 11.91 351.5 11.37 350.46 8.85 348.08 7.12 344.55 4.3 343.46 1 342.57 1.93 337.36 3.36 334.24 5.6 331.24 6.43 323.68 8.34 322.96 10.53 322.61 11.74 321.01 11.98 318.66 12.48 316.57 13.61 315.37 15.85 315.71 17.51 312.58 19.9 310.42 21.58 308.2 21.08 304.94 18.81 298.95 18.02 297.46 17.08 296.56 17.08 295.8 25.65 291.53 28.84 290.52 32.2 290.81 35.02 292.57 37.45 295.48 39.01 298.85 39.16 301.98 41.25 302.1 48.49 303.87 51.39 304.11 52.97 303.01 56.11 297.92 62.11 290.76 64.22 286.76 64.76 282.21 68.75 277.65 70.77 272.55 72.21 261.22 71.75 251.48 73.44 248.6 79.33 247.67 82.17 248.36 87.58 250.32 92.22 251.47 93.02 251.81 93.84 251.88 95.79 251.45 97 250.72 99.14 248.53 100.7 248.01 106.77 248.16 112 249.09 122.36 252.62 132.66 253.57 134.06 252.6 135.82 248.88 136.96 247.65 138.34 247.38 139.46 247.72 140.61 248.33 152.42 252.13 156.83 252.38 154.32 248.7 157.47 248.08 157.97 246.37 157.49 244.08 157.68 241.75 159.18 239.89 165.66 235.56 166.88 233.9 167.32 232.16 166.94 230.51 165.66 229.1 182.71 229.59 201.38 229.59 208.52 231.23 209.07 237.82 213.46 246.61 218.95 251.55 230.48 245.51 240.91 247.7 257.38 252.64 274.4 252.64 287.62 253.82 Z" id="BGD-3255" data-name="Rajshahi"/>
<path d="M 283.52 76.36 283.42 80.12 283.17 80.82 283.58 81.18 285.69 82.06 286.96 82.23 290.4 81.95 291.94 82.06 294 83.55 295.01 86.12 295.77 88.96 297.15 91.31 299.41 94.19 299.64 96.32 299.22 98.48 299.48 101.5 300.45 103.08 304 107.26 305.3 109.52 306.25 110.75 307.3 111.1 308.43 110.64 309.61 109.52 309.66 109.52 309.69 109.51 309.98 109.36 310.27 109.31 310.52 109.34 310.71 109.52 313.02 112.24 312.5 114.6 310.07 116.41 306.7 117.47 309.93 119.25 312.64 119.47 314.01 120.46 313.26 124.57 305.82 136.46 305.16 140.72 308.34 156.22 312.26 164.96 314.01 171.75 312.41 183.89 312.09 196.9 309.55 205.47 308.2 210.07 307.94 211.79 307.92 211.8 305.06 212.31 302.6 213.7 301.56 215.08 301.1 216.25 297.16 224.76 298.69 234.15 297.69 238.52 295.15 241.9 293.11 244.11 291.48 246.42 287.62 253.82 274.4 252.64 257.38 252.64 240.91 247.7 230.48 245.51 218.95 251.55 213.46 246.61 209.07 237.82 208.52 231.23 201.38 229.59 182.71 229.59 165.66 229.1 157.23 229.48 153.15 228.97 150.26 226.27 149.23 225.51 145.62 225.29 143.85 224.86 142.64 223.89 138.55 219.26 137.81 217.4 137.68 215.74 137.18 214.29 135.32 213.05 135.27 212 138.2 205.87 137.96 202.17 136.39 199.91 134.2 198.14 132.1 195.85 130.61 194.68 125.36 192.82 125.47 195.85 123.76 196.58 122.11 196.5 120.56 196.26 119.19 196.46 117.37 197.85 115.89 199.53 114.33 200.91 112.31 201.43 108.69 200.66 103.12 197.37 99.74 195.87 92.38 195.63 88.81 194.99 87.12 193.42 85.79 190.93 81.09 187.66 79.33 184.22 72.84 181.24 70.42 179.09 69.67 168.47 65.1 163.81 52.54 156.12 42.12 145.11 36.52 142.48 28.79 144.52 25.94 146.04 22.52 147.41 19.29 147.55 17.08 145.42 15.89 142.13 15.08 140.66 12.36 137.87 12.36 136.31 12.6 134.81 11.41 132.19 10.08 124.54 10.6 123.74 11.51 123.19 12.44 121.94 15.64 112.14 18.97 106.36 23.32 103.27 24.51 99.97 24.25 98.07 23.31 97.11 22.24 96.5 21.61 95.65 21.4 93.94 21.65 93.05 22.19 92.12 24.11 86.49 25.52 84.42 31.24 81.11 32.75 79.94 33.84 78.67 35.04 77.57 36.92 76.9 40.46 76.21 50.55 73.09 53.58 71.39 55.01 68.82 54.73 62.53 55.36 60.01 57.97 56.7 60.58 54.55 68.7 49.93 69.97 48.46 70.8 46.87 71.78 46.13 73.57 47.18 74.71 47.65 76.33 47.72 78.04 47.54 79.33 47.23 83.17 47.77 82.8 43.39 79.33 34.07 76.87 30.3 72.28 28.35 62.32 26.59 58.29 25 57.08 25.09 56.47 26.27 55.99 30.25 55.19 31.28 52.94 30.66 51.65 28.37 51.44 25.52 52.38 23.22 52.38 23.21 54.63 19.8 58.17 8.75 59.45 6.26 61.57 3.06 63.77 1 65.34 1.95 65.61 5.14 65.45 8.8 65.95 12.2 68.21 14.55 74.34 16.2 77.08 17.36 79.33 19.75 81.49 21.34 83.35 23.22 84.76 24.47 88.21 26.58 92.18 28.09 93.59 28.25 97.25 28.2 99.32 29.03 100.48 30.72 101.47 32.66 102.84 34.28 104.71 35.37 106.55 36.13 110.57 36.99 109.82 38.38 109.46 39.88 109.87 41.07 111.4 41.52 112.68 42.07 112.49 45.1 113.52 46.39 117.47 48.19 119.79 49.86 120.23 51.99 118.63 55.2 116.41 56.9 110.05 59.79 108.76 61.01 111.8 63.01 126.4 58.17 132.63 60.33 134.01 62.99 135.13 65.91 136.77 68.37 139.68 69.55 142.41 68.61 145 62.9 148.48 60.78 153.13 61.55 160.75 68.46 165.66 69.94 173.28 68.19 176.78 65.99 175.85 62.78 173.99 62.25 171.93 62.19 170.68 61.07 171.3 57.36 169.69 58.34 168.14 58.7 166.77 58.28 165.66 56.88 164.06 51.96 159.77 49.95 154.8 48.42 151.25 44.99 151.14 42.06 152.56 38.83 154.72 35.94 156.9 34.05 159.74 32.8 161.32 33.22 162.9 34.67 165.66 36.52 167.6 37.41 170.23 40.1 171.8 41.3 173.69 41.98 177.48 42.87 179.01 43.99 179.82 46.06 179.26 47.56 179.46 48.75 182.33 49.86 186.46 50.91 187.7 52.15 187.8 54.51 186.3 55.23 183.8 54.18 181.82 54.41 181.91 59.05 183.03 61.87 186.48 67.05 187.78 69.79 189.21 80.27 190.51 83.36 192.65 85.58 204.09 90.08 206.64 91.59 208.44 93.73 209.52 97.07 210.96 98.65 217.06 101.17 221.2 105.54 224.35 107.51 227.83 108.93 230.62 109.22 233.43 107.74 235.5 106.03 237.52 106.01 240.14 109.53 240.95 109.85 241.78 109.95 242.66 109.85 243.55 109.56 243.55 109.55 243.56 109.54 243.56 109.53 252.92 108.81 253.79 108.9 254.65 109.14 255.46 109.53 257.9 113.41 259.41 115.23 261.18 116.08 263.47 115.64 264.75 114.06 265.22 111.87 265.02 109.53 266.49 104.84 274.04 99.14 275.5 96.21 274.2 94.06 271.95 94 269.56 94.41 267.84 93.64 267.82 91.59 269.72 90.16 272.25 89 274.27 87.83 271.08 87.45 268.25 86.21 267.11 84.05 268.95 80.92 270.07 79.99 271.25 79.46 272.5 79.37 276.02 80.32 276.18 79.48 275 77.48 274.64 72.24 275.84 70.79 279.57 69.68 282.69 70.22 283.62 72.78 283.52 76.36 Z" id="BGD-5492" data-name="Rangpur"/>
</g>
</svg>