<?xml version="1.0"?>
<svg xmlns="http://www.w3.org/2000/svg" version="1.2" baseProfile="tiny" width="800" height="5322" viewBox="0 0 800 5322" stroke-linecap="round" stroke-linejoin="round">
<g id="ne_10m_admin_1_states_provinces">
<path d="M 251.62 5262.16 290.17 5246.47 312.88 5244.49 321.61 5262.16 318.99 5271.9 314.62 5278.95 307.64 5283.25 296.76 5284.66 288.02 5288.02 282.25 5296.01 277.28 5305.32 270.83 5312.87 255.11 5320.53 246.45 5317.84 238.32 5311.36 223.47 5307.73 199.22 5310.59 185.99 5310.15 180.28 5304.91 189.69 5290.6 211.58 5276.7 235.63 5266.26 251.62 5262.16 Z" id="MNP-4937" data-name="Rota"/>
<path d="M 616.09 4526.96 620.46 4537.54 619.32 4548.02 616.63 4559.27 616.09 4572.04 619.45 4579.26 630.73 4592.25 633.02 4600.72 627.71 4621.98 614.82 4644.45 598.36 4656.4 582.37 4645.79 578.54 4635.08 575.32 4612.34 570.55 4600.72 560.41 4587.62 558.19 4581.64 559.26 4572.04 568.87 4553.09 586.2 4531.33 604.34 4518.7 616.09 4526.96 Z" id="MNP-4938" data-name="Tinian"/>
<path d="M 732.1 4365.85 743.05 4361.82 755.81 4363.47 761.72 4369.88 751.91 4379.92 742.51 4385.7 736.13 4394.77 722.22 4430.03 722.76 4437.19 729.34 4447.57 725.45 4455.09 720.34 4458.85 714.16 4458.52 706.77 4453.71 696.7 4462.78 691.59 4473.66 692.13 4485.18 698.31 4496.23 703.01 4507.21 691.39 4506.88 676.95 4501.98 673.05 4499.29 654.72 4503.52 647.66 4501.87 644.84 4490.29 646.25 4478.1 656.13 4447.57 657.07 4435.78 656.66 4426.61 658.14 4418.75 664.39 4411.19 668.75 4408.57 684.34 4402.49 687.16 4398.53 687.7 4388.99 689.38 4385.57 699.52 4380.66 721.01 4374.01 732.1 4365.85 Z" id="MNP-4939" data-name="Saipan"/>
<path d="M 657.13 3478.95 634.09 3481.1 623.28 3480.19 613.2 3476.6 604.94 3469.51 600.31 3460.54 601.31 3452.62 608.17 3447.45 621.73 3446.44 632.48 3449.53 657.87 3452.59 667.41 3457.72 674.13 3470.02 668.82 3476.33 657.13 3478.95 Z M 745.87 3189 733.24 3203.51 716.58 3187.59 730.48 3183.19 745.87 3189 Z M 798.4 2686.59 787.51 2699.76 771.8 2683.77 784.42 2680.28 798.4 2686.59 Z M 797.39 2461.03 786.91 2467.75 768.71 2459.01 764.34 2446.02 770.38 2435.64 783.89 2434.73 794.1 2441.62 799 2451.36 797.39 2461.03 Z M 707.58 2059.75 695.62 2066.26 675.67 2065.52 670.37 2046.31 692.2 2035.16 701.49 2016.38 706.38 1976.74 718.28 1965.63 751.78 1966.71 762.73 1971.82 771.19 1979.88 774.42 1990.49 771.53 2004.33 763.94 2011.75 753.93 2016.96 743.78 2024.25 707.58 2059.75 Z M 654.31 1509.58 641.62 1513.81 627.91 1512.43 606.36 1493.49 603.91 1460.72 618.62 1442.57 649.95 1443.85 661.16 1456.81 666.2 1466.69 667.55 1477.3 667.41 1492.48 663.78 1501.82 654.31 1509.58 Z M 423.31 738.08 416.59 746.04 405.17 739.62 397.18 729.51 397.18 720.14 409.67 716.21 420.15 719.87 424.65 728.2 423.31 738.08 Z M 284.33 429.89 284.73 434.32 290.17 433.49 297.63 430.87 304.15 429.56 306.97 432.71 305.29 439.5 301.19 444.94 295.28 449 288.76 451.42 279.9 448.5 272.58 442.75 268.95 434.86 271.03 425.63 278.89 417.8 282.72 421.83 284.33 429.89 Z M 20.55 25.82 12.22 32.57 3.49 24.78 1 13.7 4.83 4.22 15.51 1 25.52 6.11 26.06 15.78 20.55 25.82 Z" fill-rule="evenodd" id="MNP-4940" data-name="Northern Islands"/>
</g>
</svg>