<?xml version="1.0"?>
<svg xmlns="http://www.w3.org/2000/svg" version="1.2" baseProfile="tiny" width="800" height="852" viewBox="0 0 800 852" stroke-linecap="round" stroke-linejoin="round">
<g id="ne_10m_admin_1_states_provinces">
<path d="M 689.12 622.42 562.41 817.89 554.95 815.31 550.16 819.37 545.37 825.16 538.31 827.71 532.03 826.67 520.23 823.31 500.47 821.32 489.8 819 481.7 812.27 469.64 786.24 460.45 782.84 449.04 782.4 415.16 774.46 411.58 774.73 411.6 774.61 411.75 773.49 413.97 725.36 420.05 712.3 458.63 690.42 519.21 655.35 534.11 643.63 557.03 602.35 626.83 588.57 641.89 594.51 689.12 622.42 Z" id="DJI-1566" data-name="Ali Sabieh"/>
<path d="M 681.62 558.43 679.78 558.85 623.05 569.26 605.46 569.34 578.02 566.53 551.99 539.3 551.42 538.16 551.42 538.16 618.25 537.26 628.44 535.24 637.97 535.53 648.28 541.54 657.69 539.38 662.71 532.79 666.32 526.43 671.46 524.91 674.34 529.91 681.18 557.84 681.61 558.42 681.62 558.43 Z" id="DJI-1567" data-name="Djibouti"/>
<path d="M 375.42 555.64 375.69 567.1 378.41 576.9 394.13 582.89 403.66 591.49 409.49 593.74 416.14 592.54 423.73 585.59 429.1 583.96 433.26 585.07 437.73 587.11 442.36 588.02 446.72 585.73 449.52 579.66 446.25 576.04 441.35 573.57 438.9 570.89 443.1 562.97 452.67 556.36 474.49 548.04 506.85 544.27 517.2 541.54 522.17 537.96 525.99 534.02 529.95 532.56 535.28 536.47 539.21 538.33 551.42 538.16 551.99 539.3 578.02 566.53 605.46 569.34 623.05 569.26 679.78 558.85 681.62 558.43 686.75 565.64 692.15 569.59 707.05 577.42 713.93 584.13 689.12 622.42 641.89 594.51 626.83 588.57 557.03 602.35 534.11 643.63 519.21 655.35 458.63 690.42 359.53 673.22 320.36 616.3 308.21 578.43 297.39 524.63 295.54 504.62 312.43 525 319.72 530.69 375.42 555.64 Z" id="DJI-1568" data-name="Arta"/>
<path d="M 295.54 504.62 297.39 524.63 308.21 578.43 320.36 616.3 359.53 673.22 458.63 690.42 420.05 712.3 413.97 725.36 411.75 773.49 411.6 774.61 411.58 774.73 393.22 776.14 350.2 789.05 318.43 809.69 308.16 814.49 300.95 814.12 293.54 811.63 282.72 809.9 267.11 815.11 263.01 815.51 254.46 815.21 250.36 815.63 233.32 823.19 226.85 824.79 217.81 824.7 193.26 819.13 166.93 821.97 154.09 826.15 139.27 841 126.08 844.27 99.01 845.38 95.75 846.69 93.57 849.07 91.05 850.85 86.9 850.26 84.04 847.89 82.8 845.06 81.17 842.61 24.71 831.33 12.81 826.84 9.32 822.35 6.83 819.13 15.42 805.52 18.44 785.1 19.57 693.17 13.7 641.22 1.35 586.27 1 560.19 15.13 516.84 21.7 480.61 29.26 465.42 36.32 460.7 55.09 452.6 59.83 446.48 62.5 439.66 66.55 436.84 71.94 435.24 78.6 432.1 85.22 427.09 90.51 421.83 108.81 396.27 116.64 397.8 194.07 416.02 213.96 423.72 295.54 504.62 Z" id="DJI-1569" data-name="Dikhil"/>
<path d="M 639.98 416.38 628.61 405.11 624.61 399.18 611.09 370.61 605.54 362.02 506.89 254.4 494.66 251.08 489.7 249.09 485.33 246.39 461.59 226.35 458.03 222.43 455.51 218.95 444.3 196.46 443.19 192.79 443.04 189.1 443.86 185.54 445.26 182.6 447.04 180.2 453.44 174.93 454.82 165.4 453.66 157.67 468.75 153.52 475.27 144.31 479.32 140.01 493.6 137.37 499.58 134.23 502.34 121.36 497.9 106.37 496.22 92.14 517.06 72.83 528.18 46.97 536.18 40.08 540.43 40.6 546.36 45.21 551.25 44.74 655.12 1 662.9 6.11 667.37 14.57 671.11 24.03 676.2 32.16 722.96 84.43 734.24 102.03 741.01 108.98 748.47 111.04 756.29 105.75 756.29 122.57 757.19 130.62 759.56 138.65 763.33 145.23 767.69 150.46 771.19 156.29 772.63 164.75 773.21 183 774.69 192.68 777.65 199.33 795.5 223.8 796.9 231.85 795.5 259.7 799 295.74 796.43 311.02 789.47 325.24 779.12 337.05 766.37 345.12 762.59 346.21 749.76 348.38 736.69 354.92 727.16 356.65 706.62 357.1 697.6 359.51 682.04 370.42 645.32 413.65 642.83 415.21 639.99 416.37 639.98 416.38 Z" id="DJI-1570" data-name="Obock"/>
<path d="M 453.66 157.67 454.82 165.4 453.44 174.93 447.04 180.2 445.26 182.6 443.86 185.54 443.04 189.1 443.19 192.79 444.3 196.46 455.51 218.95 458.03 222.43 461.59 226.35 485.33 246.39 489.7 249.09 494.66 251.08 506.89 254.4 605.54 362.02 611.09 370.61 624.61 399.18 628.61 405.11 639.98 416.38 635.29 418.36 631.94 420.48 629.8 423.75 627.97 430.38 625.41 433.22 618.72 435.65 592.58 436.81 585.73 439.32 578.57 444.28 571.46 447.45 558.5 442.78 549.4 444.22 504.9 459.8 492.38 467.33 481.33 478.94 447.88 539.01 444.69 543.12 440.18 545.57 425.36 549.87 420.93 550.1 409.49 548.04 396.89 548.51 392.88 548.04 390.24 546.21 385.73 539.97 383.12 538.28 372.73 538.92 367.13 542.9 367.06 546.21 373.32 544.77 375.42 555.16 375.42 555.64 375.42 555.64 319.72 530.69 312.43 525 295.54 504.62 213.96 423.72 194.07 416.02 116.64 397.8 108.81 396.27 148.31 341.13 167.62 305.81 172.91 300.11 184.17 294.68 187.97 288.77 195.23 271.36 258.91 185.93 273.48 154.68 302.28 116.67 326.88 90.66 335.28 89.2 348.27 92.56 370.2 102.17 445.09 167.28 451.41 158.29 453.66 157.67 Z" id="DJI-1571" data-name="Tadjourah"/>
</g>
</svg>