<?xml version="1.0"?>
<svg xmlns="http://www.w3.org/2000/svg" version="1.2" baseProfile="tiny" width="800" height="1477" viewBox="0 0 800 1477" stroke-linecap="round" stroke-linejoin="round">
<g id="ne_10m_admin_1_states_provinces">
<path d="M 669.96 914.28 656.15 925.68 626.33 888.95 647.92 872.16 685.63 904.64 669.96 914.28 Z M 790.75 835.35 793.97 851.56 793.97 851.56 787.68 850.87 759.67 846.32 731.46 869.43 715.03 841.72 701.88 830.74 640.89 738.93 706.04 717.58 706.04 717.59 702.59 766.1 703.71 786.36 708.89 796.67 720.37 801.18 774.54 808.94 782.94 817.12 790.75 835.35 Z" fill-rule="evenodd" id="QAT-1099" data-name="Ad Dawhah"/>
<path d="M 184.07 355.77 327.11 355.84 327.11 395.34 427.53 395.34 434.3 443.86 458.66 499.93 495.58 548.93 495.3 621.95 511.15 716.19 583.39 721.21 640.89 738.93 701.88 830.74 715.03 841.72 731.46 869.43 708.45 890.61 685.63 904.64 647.92 872.16 626.33 888.95 656.15 925.68 634.61 943.47 620.17 983.27 602.59 1014.45 536.46 987.7 537.54 1061.72 434.36 1061.72 434.29 1398.55 426.56 1408.27 428.66 1414.27 429.03 1415.5 366.52 1461.2 318.59 1476.04 266.42 1476.33 211.11 1469.09 164.75 1451.12 120.87 1405.77 53.44 1304.13 70.78 1302.25 94.86 1282.59 101.16 1259 93.28 1171.21 85.63 1147.92 46.17 1080.92 43.09 1067.23 52.99 1041.38 55.17 1023.33 54.12 1006.79 48.42 999.59 23.81 985.86 17.06 954.57 15.71 920.66 7.3 898.86 13.9 882.21 12.48 862.85 8.43 842.37 7.3 822.22 14.66 772.25 14.05 752.97 1 683.68 11.58 643.95 12.85 625.8 1 614.47 25.91 584.64 43.51 582.02 54.01 593.68 56.93 610.6 65.09 617.61 65.07 635.55 89.68 639.68 75.05 602.39 71.9 586.48 70.78 569.83 72.58 559.47 75.88 548.59 76.48 537.19 70.78 525.78 63.27 521.28 43.02 517.76 32.36 513.18 42.87 501.48 55.02 498.4 67.85 496.97 80.23 490.82 83.23 485.57 89.08 471.43 92.83 468.54 98.91 470.53 104.76 479.19 111.59 481.14 116.39 488.08 114.67 503.61 108.59 528.6 108.59 547.77 109.49 554.67 116.92 572.15 121.35 577.18 127.95 582.39 137.18 579.88 139.05 577.44 138.45 572.94 142.2 551.37 142.8 529.31 146.85 519.48 157.36 509.69 163.74 512.62 171.31 518.92 184.07 519.48 189.92 513.07 202.83 486.17 209.88 474.84 184.37 483.77 160.81 487.6 141.3 480.39 127.95 455.93 126.9 442.8 133.65 399.29 135.9 395.16 144.83 388.37 146.85 383.61 145.73 379.78 141 374.23 139.95 370.36 139.95 342.64 152.71 345.49 157.06 338.18 160.13 328.24 168.69 323.21 174.99 326.36 180.39 334.39 183.77 344.97 184.07 355.77 Z" id="QAT-1100" data-name="Ar RayyÄn"/>
<path d="M 434.29 1398.55 434.36 1061.72 537.54 1061.72 536.46 987.7 602.59 1014.45 620.17 983.27 634.61 943.47 656.15 925.68 669.96 914.28 685.63 904.64 708.45 890.61 731.46 869.43 759.67 846.32 787.68 850.87 793.97 851.56 797.2 867.91 799 944.07 789.02 1038.98 793.9 1049.93 785.87 1057.81 771.69 1113.48 759.84 1131.04 727.87 1163.79 718.12 1186.33 710.77 1189.86 702.36 1192.37 696.29 1195.86 691.78 1203.89 667.78 1287.68 667.78 1287.7 666.5 1292.35 661.62 1302.25 650.82 1309.64 645.79 1327.16 639.57 1365.8 627.41 1379.87 590.12 1400.16 582.32 1406.99 577.37 1428.37 565.74 1442.7 553.06 1454.26 544.58 1467.09 533.85 1453.36 537.3 1440.38 545.55 1425.79 550.36 1406.99 543.23 1396.75 526.65 1394.91 494.24 1397.84 492.81 1381.71 486.96 1381.26 477.58 1387.52 465.27 1391.57 449.07 1393.19 434.29 1398.55 Z" id="QAT-1101" data-name="Al Wakrah"/>
<path d="M 724.65 496.75 700.71 483.43 647.92 464.23 604.73 507.42 599.94 562.67 509.02 562.42 495.58 548.93 458.66 499.93 434.3 443.86 427.53 395.34 327.11 395.34 327.11 355.84 184.07 355.77 197.12 347.86 205.68 335.29 208.38 320.28 205.13 309.85 205.3 309.79 326.38 310.66 326.38 214.68 455.96 214.68 455.94 241.38 504.67 241.38 504.81 270.75 549.33 270.81 549.52 306.17 614.88 305.62 614.45 196.45 614.59 192.77 621.78 193.9 661.62 190.97 684.13 192.96 702.59 198.29 718.72 206.39 734.03 216.74 746.33 228.11 756.38 242.29 762.99 258.46 778.89 358.92 778.67 371.49 775.97 382.18 768.54 386.68 763.14 383.64 757.96 370.33 749.93 367.21 742.65 371.08 736.13 380.16 732.68 390.73 734.03 399.29 742.28 406.15 750.23 405.25 756.38 399.85 759.76 392.98 774.62 414.22 762.39 435.64 743.93 442.13 740.33 418.19 727.8 421.57 696.29 437.03 709.72 442.05 723.75 449.86 735 459.16 740.33 468.54 737.18 488.65 724.65 496.75 Z" id="QAT-1105" data-name="Al Khawr"/>
<path d="M 614.59 192.77 614.45 196.45 614.88 305.62 549.52 306.17 549.33 270.81 504.81 270.75 504.67 241.38 455.94 241.38 455.96 214.68 326.38 214.68 326.38 310.66 205.3 309.79 205.13 309.85 203.58 304.86 197.27 311.17 183.92 298 185.57 278.34 209.65 225.63 213.48 207.74 216.03 165.8 223.68 170.98 226.53 173.64 229.24 179 234.94 179 255.8 123.78 274.25 99.7 300.59 89.68 314.54 86.87 353.33 72.91 361.36 67.66 366.31 53.56 387.85 33.75 392.95 19.91 409.75 25.5 428.66 20.13 462.2 1 535.5 36.9 550.36 51.91 551.86 69.65 549.91 92.65 550.66 112.64 560.34 121.2 577.82 127.5 583.22 142.92 584.12 161.9 588.7 179 603.03 190.93 614.58 192.77 614.59 192.77 Z" id="QAT-1106" data-name="Madinat ach Shamal"/>
<path d="M 599.94 562.67 604.73 613.01 607.13 677.79 640.89 738.93 583.39 721.21 511.15 716.19 495.3 621.95 495.58 548.93 509.02 562.42 599.94 562.67 Z" id="QAT-1107" data-name="Umm Salal"/>
<path d="M 724.65 496.75 708.89 500.13 696.29 506.32 689.98 502.71 683.61 500.58 685.71 548.89 683.76 562.89 683.61 564.12 678.5 572.23 670.85 580.93 665.67 589.86 667.85 598.41 701.69 651.72 707.17 664.74 708.89 677.6 706.04 717.58 640.89 738.93 607.13 677.79 604.73 613.01 599.94 562.67 604.73 507.42 647.92 464.23 700.71 483.43 724.65 496.75 Z" id="QAT-5487" data-name="Al Daayen"/>
</g>
</svg>