<?xml version="1.0"?>
<svg xmlns="http://www.w3.org/2000/svg" version="1.2" baseProfile="tiny" width="800" height="1220" viewBox="0 0 800 1220" stroke-linecap="round" stroke-linejoin="round">
<g id="ne_10m_admin_1_states_provinces">
<path d="M 726.91 1038.48 725.52 1039.13 723.78 1038.75 722.39 1037.35 721.9 1035.08 723.29 1034.73 725.45 1035.55 727.23 1036.74 726.91 1038.48 Z M 708.95 1020.99 709.42 1021.59 708.22 1020.59 708.67 1020.73 708.95 1020.99 Z M 707.03 1020.08 706.7 1020.15 706.83 1019.89 707.6 1019.53 707.03 1020.08 Z" fill-rule="evenodd" id="COK-4950" data-name="Atiu"/>
<path d="M 647.84 968.77 646.69 968.3 645.49 967.39 644.99 966.52 645.92 966.23 646.38 966.71 646.64 967.63 647.18 968.3 648.5 968.01 648.43 968.29 648.29 968.47 647.84 968.77 Z" id="COK-4951" data-name="Aitutaki"/>
<path d="M 740.71 1213.31 741.95 1213.75 742.98 1214.63 744.9 1216.85 745.16 1217.88 744.09 1218.57 742.53 1218.94 741.35 1219.06 739.97 1218.9 738.99 1218.44 738.23 1217.65 737.51 1216.56 737.94 1215.46 738.78 1214.37 739.78 1213.58 740.71 1213.31 Z" id="COK-4952" data-name="Mangaia"/>
<path d="M 566.02 1148.48 567.84 1148.56 569.72 1149.02 571.19 1149.93 571.78 1151.35 571.82 1153.25 571.64 1154.12 571.14 1154.88 568.55 1154.49 568.23 1154.56 566.45 1153.69 562.72 1153.96 561.48 1152.95 562.18 1152.25 562.74 1150.5 562.87 1149.37 563.62 1148.76 566.02 1148.48 Z" id="COK-4953" data-name="Rarotonga"/>
<path d="M 761.95 1015.45 761.77 1017.44 762.02 1020.02 761.93 1022.4 760.67 1023.77 760.67 1022.49 760.18 1021.56 759.54 1020.96 758.99 1020.26 758.75 1018.96 759.18 1018.21 761.24 1016.02 761.95 1015.45 Z" id="COK-4954" data-name="Mitiaro"/>
<path d="M 799 1051.83 798.52 1053.39 797.52 1054.07 796.42 1053.75 795.57 1052.35 795.61 1050.72 796.59 1050.16 797.91 1050.56 799 1051.83 Z" id="COK-4955" data-name="Mauke"/>
<path d="M 567.22 927.67 568.39 927.49 569.38 928.27 569.44 929.03 569.1 928.69 568.95 928.08 568.66 927.99 567.76 929.73 567.73 930.06 568.02 932.11 567.42 933.02 566.42 932.98 565.74 932.11 565.6 930.95 566.02 929.14 566.4 928.52 567.22 927.67 Z" id="COK-4956" data-name="Palmerston"/>
<path d="M 1 182.42 1.81 182.28 2.2 182.27 2.58 182.37 1.98 183.1 1.55 183.33 1.23 183.1 1 182.42 Z" id="COK-4959" data-name="Pukapuka"/>
<path d="M 445.06 103.04 446.75 102.32 446.23 103.16 445.13 103.93 445.06 103.04 Z" id="COK-4960" data-name="Rakahanga"/>
<path d="M 454.61 135.57 453.85 134.88 453.65 134.58 455.2 135.46 459.12 139.39 454.61 135.57 454.61 135.57 Z" id="COK-4961" data-name="Manihiki"/>
<path d="M 740.13 4.19 738.15 4.19 736.58 3.75 734.84 2.68 733.8 1.58 734.3 1 740.13 3.61 740.13 4.19 Z" id="COK-4962" data-name="Penrhyn"/>
</g>
</svg>