<?xml version="1.0"?>
<svg xmlns="http://www.w3.org/2000/svg" version="1.2" baseProfile="tiny" width="800" height="297" viewBox="0 0 800 297" stroke-linecap="round" stroke-linejoin="round">
<g id="ne_10m_admin_1_states_provinces">
<path d="M 391.89 34 390.78 33.87 389.81 34.61 389.29 35.52 388.86 35.93 388.42 35.94 387.94 35.56 387.53 34.95 387.46 34 387.65 33.36 387.58 32.44 386.5 31.98 383.55 30.16 382.77 28.98 383.88 28.07 387.76 27.37 389.12 26.56 390.02 25.71 390.73 24.51 391.02 24.43 391.24 24.58 391.78 25.9 392.37 26.9 393.57 27.82 394.5 28.7 394.73 29.03 394.92 29.39 394.76 29.79 393.94 30.11 393.48 30.77 392.72 31.22 392.58 32.11 392.58 32.94 392.81 33.81 392.59 33.99 391.89 34 Z" id="KGZ-1115" data-name="Bishkek"/>
<path d="M 477.05 24.51 480.81 24.29 483.63 24.58 489.31 25.81 490.94 25.89 495.68 24.71 497.56 24.69 502.85 25.64 509.42 25.64 515.64 27.04 516.41 26.96 517.85 26.47 518.71 26.44 519.46 26.78 520.27 27.94 520.96 28.21 522.26 27.92 524.42 26.37 525.77 25.94 527.68 26.12 531.43 27.3 533.33 27.54 534.84 27.27 537.62 26.36 540.84 26.42 542.22 26.18 544.99 25.08 545.29 24.81 545.38 24.48 545.55 24.22 546.08 24.12 547.4 24.32 547.81 24.3 548.37 24.05 549.9 22.72 551.3 21.98 552.75 21.8 555.95 21.77 558.82 20.94 560.23 20.76 561.64 21.22 569.85 22.24 572.32 22.9 573.12 23.42 575.19 25.58 576.27 26.21 577.46 26.44 578.68 26.45 579.43 28.26 579.29 28.87 579.07 29.38 578.62 29.52 578.12 29.5 577.12 29.28 576.68 29.29 576.29 29.44 575.92 29.67 574.08 31.14 573.77 31.72 573.37 33.04 572.98 33.48 572.4 33.83 570.46 34.31 569 34.52 551.95 34.26 551.02 34.37 550.6 34.7 550.32 35.1 550.14 35.54 549.9 36 549.59 36.44 549.15 36.92 548.64 37.09 548.09 37.15 545.78 36.88 542.39 35.84 541.66 35.73 541.15 35.81 537.3 37.34 536.29 37.54 535.46 37.53 533.19 36.93 531.31 37 526.73 36.23 525.99 36.18 525.53 36.35 525.17 36.68 523.8 38.92 523.37 39.15 522.9 39.31 517.49 40.23 512.46 41.92 510.85 42.66 509.34 43.53 505.42 47.04 504.94 47.39 503.17 48.33 502.45 48.58 501.79 48.68 501.25 48.67 500.79 48.63 499.91 48.45 498.69 47.93 497 47.92 486.92 49.74 485.67 49.82 480.18 49.45 479.19 49.59 478.55 49.87 477.84 51.09 477.42 51.38 476.7 51.74 474.91 52.35 473.96 52.79 472.23 53.89 471.27 54.17 470.44 54.33 469.43 54.39 469.02 54.63 468.83 54.97 468.82 56.09 468.75 56.31 468.46 57.02 468.17 57.33 467.6 57.68 464.75 59.01 463.43 59.49 463.18 59.81 462.24 60.64 458.44 62.48 457.41 62.72 456.91 62.61 456.93 62.21 457.14 60.92 457.12 60.53 456.98 60.19 456.78 59.85 456.5 59.57 456.1 59.34 455.7 59.37 454.53 59.79 449.25 60.75 448.22 60.77 447.69 60.66 444.67 59.62 444.13 59.66 443.67 59.81 443.3 60.03 442.75 60.29 440.7 60.83 439.87 60.91 428.89 60.59 425.96 59.84 425.36 59.91 424.9 60.08 424.58 60.36 423.6 60.92 421.24 61.52 419.35 59.76 418.61 59.52 417.98 59.45 417.62 59.72 417 60.08 416.07 60.42 405.6 61.63 404.77 61.98 406.19 64.55 409.53 68.57 410.05 69.52 410.16 70.31 409.78 70.52 409.27 70.57 408.7 70.47 407.08 70.03 406.55 70.01 400.93 70.4 399.53 70.97 396.7 73.8 395.01 75.64 394.56 75.67 394.11 75.65 393.92 75.32 393.8 74.97 393.56 74.61 393.15 74.33 391.45 74.28 378.61 75.74 377.86 75.58 377.4 75.37 376.65 75.17 373.78 74.8 372.01 74.8 371.55 74.85 371.16 74.97 370.98 75.06 370.77 75.8 369.43 81.81 369.5 82.61 369.68 83.45 371.53 83.77 372.14 84.03 372.67 84.52 372.79 84.79 372.67 85.02 371.76 85.5 371.09 85.99 370.17 86.89 369.85 87.3 369.57 87.77 369.27 88.47 369.19 88.9 369.24 89.32 369.56 90.55 369.46 91.14 369.13 91.71 367.33 93.19 366.73 93.86 366.51 94.36 366.46 94.88 366.57 96.09 366.33 96.62 365.88 97.1 365.07 97.61 364.28 97.86 363.66 97.91 363.18 97.78 362.82 97.6 362.18 97.16 361.86 96.99 361.54 96.9 361.14 96.91 360.7 97.02 358.64 98.07 358.01 98.55 357.7 98.99 357.52 99.6 357.17 101.37 356.82 101.84 356.36 102.08 355.96 102.04 355.68 101.91 355.43 101.66 355.26 101.34 355.16 100.92 355.16 100.43 355.53 98.85 355.58 98.35 355.48 97.95 355.26 97.67 354.97 97.52 354.57 97.53 352.85 97.96 352.29 98.05 351.65 98.02 351.12 97.9 350.49 97.68 350.04 97.38 349.66 97.02 348.84 95.86 348.51 95.55 347.79 95.09 347.47 94.76 347.24 94.35 346.81 93.45 346.63 93.16 346.14 92.55 343.17 94.35 341.75 94.73 340.58 94.68 331.93 95.34 330.79 92.3 330.03 91.31 329.03 90.91 328.39 90.74 326.84 90.52 326.23 90.5 325.73 90.56 325.29 90.67 323.63 91.32 323.25 91.53 322.67 92.01 322.23 92.48 321.85 92.73 321.24 92.94 320.09 93.06 319.32 93 312.66 91.07 311.71 90.93 310.72 90.98 308.57 91.36 307.5 91.39 305.17 90.68 304.32 90.51 303.65 90.46 301.61 90.89 301.3 90.79 301.12 90.52 300.62 89.13 300.29 88.47 300.06 88.15 299.61 87.78 298.95 87.4 297.65 86.8 296.78 86.54 296.01 86.41 294.74 86.41 294.28 86.18 293.24 85.37 292.41 85.16 289.16 84.7 285.46 83.68 284.43 83.51 283.66 83.48 283.18 83.6 282.85 83.44 282.58 83.14 282.11 82.19 282.9 81.09 283.07 80.7 283.07 80.43 282.95 80.21 282.7 80.05 282.39 79.93 279.73 79.32 279.28 79.04 279.03 78.66 278.98 78.18 279.02 77.77 279.63 75.64 279.86 75.08 280.37 74.69 281.18 74.45 283.55 74.48 284.5 74.34 285.33 73.87 286.13 73.07 286.42 72.85 286.71 72.71 288.74 71.97 290.45 71.58 291.81 71.47 293.19 71.16 294.22 71.08 295.56 71.23 296.42 71.5 297.5 71.66 298.58 71.55 301.4 70.66 302.65 70.43 304.37 70.38 307.12 70.67 307.66 70.82 309.62 71.65 310.83 71.65 312.39 71.37 316.78 69.97 317.83 69.51 319.89 67.47 320.06 66.31 320.48 65.66 321.67 64.42 323.6 63.06 323.91 62.63 324.11 62.05 324.02 61.21 323.86 60.68 322.94 59.71 322.14 59.52 321.81 59.5 319.75 59.7 319.04 59.69 318.36 59.58 317.82 59.38 317.39 59.16 317.09 58.92 316.85 58.64 316.66 58.29 316.21 57.05 315.98 56.78 315.63 56.78 315.08 57.35 314.73 57.99 314.6 58.87 314.71 59.29 314.83 59.62 314.89 59.92 314.39 60.77 312.6 61.96 310.54 61.78 310.53 61.78 305.31 54.3 304.2 52.04 303.65 49.62 303.84 46.89 304.65 44.33 308.49 37.95 310.42 34.83 310.67 33.72 310.47 32.4 309.58 29.99 309.4 28.77 309.65 27.53 310.24 26.49 311.73 24.55 314.48 18.68 315.29 17.62 316.43 16.87 319.86 15.41 332.26 11.63 333.51 11.44 336.51 11.53 339.22 10.46 341.63 5.48 343.82 4.24 345.27 4.62 347.88 6.45 349.21 6.78 360.61 5.77 361.8 5.27 362 4.24 361.23 3 359.26 1 361.35 1.86 365.04 4.32 367.09 4.94 369.48 5.34 371.56 6.11 375.31 8.39 376.76 8.95 379.81 9.18 382.37 10.45 385.34 11.04 386.71 11.61 387.71 12.54 389.52 14.84 390.55 15.72 397.97 19.94 400.49 20.65 408.75 21.68 414.95 23.92 416.99 25.25 419.06 25.98 423.45 26.98 425.49 27.87 427.21 28.86 431.59 30.81 433.47 31.13 438.29 31.09 454.59 32.67 457.44 32.44 458.89 32.58 463.55 34.02 465.41 33.96 467.52 33.29 469.58 32.19 471.3 30.88 472.07 29.95 474.41 25.31 475.24 24.75 476.34 24.55 477.05 24.51 Z M 391.89 34 392.59 33.99 392.81 33.81 392.58 32.94 392.58 32.11 392.72 31.22 393.48 30.77 393.94 30.11 394.76 29.79 394.92 29.39 394.73 29.03 394.5 28.7 393.57 27.82 392.37 26.9 391.78 25.9 391.24 24.58 391.02 24.43 390.73 24.51 390.02 25.71 389.12 26.56 387.76 27.37 383.88 28.07 382.77 28.98 383.55 30.16 386.5 31.98 387.58 32.44 387.65 33.36 387.46 34 387.53 34.95 387.94 35.56 388.42 35.94 388.86 35.93 389.29 35.52 389.81 34.61 390.78 33.87 391.89 34 Z" fill-rule="evenodd" id="KGZ-1116" data-name="Chuy"/>
<path d="M 795.58 78.56 796.03 79.66 796.27 82.01 796.62 83.19 797.38 84.25 798.27 85.15 798.93 86.17 799 87.55 797.09 89.83 793.53 90.75 775.37 90.59 771.65 91.32 769 92.14 767.84 92.83 766.83 93.89 766.18 95.17 765.36 97.85 764.69 99.14 762.1 100.97 758.88 101.32 755.46 101.25 752.23 101.85 748.15 104.02 743.46 105.35 737.76 108.29 736.3 108.71 734.6 108.74 730.03 107.64 728.45 107.93 727.19 108.58 723.76 110.99 722.2 111.84 720.65 112.34 717.28 112.94 714.45 113.79 706.31 118.18 701.94 118.81 700.61 119.31 694.09 122.77 684.31 125.66 683.31 126.09 682.35 126.73 681.8 127.51 681.2 129.31 680.48 130.03 677.93 130.9 672.61 131.74 665.9 135.64 663.01 136.64 661.72 137.3 660.53 138.42 660.24 139.72 661.51 142.51 661.71 143.82 660.97 145.05 659.67 145.9 656.78 147.19 655.61 148.06 653.8 150.1 652.42 152.11 652.4 152.1 650.92 151.34 650.08 150.59 649.7 149.95 649.19 148.84 648.56 147.77 648.09 147.23 647.56 146.82 646.96 146.62 646.17 146.44 645.56 146.38 645.03 146.41 644.19 146.7 642.63 147.45 641.54 148.13 638.32 149.49 636.51 149.83 633.11 150.15 627.74 150.17 618.47 148.29 611.67 148.36 610.7 148.21 610.03 147.99 609.78 147.69 609.58 146.98 609.58 146.2 609.69 145.76 609.86 145.33 610.82 143.72 610.98 143.32 610.97 142.89 610.71 142.49 610.06 142.05 608.97 141.89 606.55 141.82 605.73 141.91 603.26 142.81 591.37 145.34 589.03 145.57 588.7 145.34 588.67 145.02 588.94 144.67 589.28 144.4 590 143.96 590.33 143.67 590.61 143.34 590.85 142.92 591.68 140.62 591.79 139.79 591.9 139.39 592.1 139.01 593.25 137.68 593.46 137.36 593.53 137.06 593.4 136.76 592.91 136.4 592.47 136.12 590.08 135.01 586.36 133.72 585.38 132.93 585.3 132.57 585.28 132.19 584.92 130.74 584.54 129.86 584.18 129.22 583.85 128.46 583.83 128.21 584.08 128.18 584.72 128.41 584.76 128.43 584.85 128.45 585.05 128.49 585.48 128.52 586.02 128.34 586.56 127.98 587.84 125.45 588.38 123.66 588.79 120.64 588.25 119.26 587.93 119.23 587.53 119.24 586.41 119.88 584.98 120.3 582.58 120.76 581.96 120.97 581.11 121.47 580.52 121.76 579.52 122.14 578.81 122.27 565.78 122.48 561.7 121.73 556.57 121.34 555.72 121.36 554.81 121.57 552.56 122.34 551.03 122.65 549.37 122.77 545.79 122.41 545.17 122.27 544.75 122.04 544.5 121.75 544.3 121.43 543.98 121.1 543.53 120.8 542.68 120.54 542.08 120.52 540.75 120.93 539.55 121.17 539.02 121.04 538.83 120.75 539 120.37 539.24 120.02 540.42 118.7 541.22 117.62 541.59 116.72 541.7 116.28 541.88 115.01 542.03 114.56 542.22 114.12 542.47 113.72 543.59 112.36 543.81 111.96 544.17 110.67 544.21 110.25 544.15 109.88 543.96 109.55 543.67 109.28 542.08 108.51 540.15 107.79 539.07 107.49 538.26 107.35 537.8 107.44 536.57 107.94 535.12 108.17 525.46 107.84 525.15 107.58 524.88 107.16 524.79 106.8 523.61 105.73 524.72 104.18 525.48 103.72 526.3 103.37 526.86 103.26 528.5 103.14 533.08 103.36 535.33 103.19 535.91 102.89 536.24 102.5 536.37 101.29 536.46 100.91 537.16 99.14 538.56 96.75 538.33 96.51 537.99 96.44 537.52 96.53 535.86 97.17 535.37 97.23 534.84 97.22 533.65 97.02 531.4 96.35 525.48 94 524.37 93.82 519 93.69 518.44 93.61 516.3 92.94 514.68 92.17 511.84 91.59 511.28 91.53 510.75 91.53 508.96 91.99 508.48 92.05 507.95 92.05 507.15 91.82 506.13 91.4 504.37 90.43 503.4 90.02 502.68 89.81 502.23 89.89 500.54 90.49 494.99 91.66 494.39 91.72 493.7 91.71 492.63 91.46 492.18 91.14 491.98 90.75 492.07 90.35 492.27 89.97 492.57 89.66 492.92 89.41 494.48 88.64 495.96 87.69 496.63 87.14 496.91 86.8 497.15 86.44 497.48 85.57 497.59 85.12 497.55 84.58 497.35 84 496.67 83.12 496.13 82.67 495.57 82.34 492.9 81.07 492.38 80.61 492.12 80.17 492.27 79.21 492.18 78.66 491.87 78.36 491.45 78.22 490.65 78.12 490.08 77.93 489.79 77.64 489.68 77.26 489.7 76.86 490.11 75.09 490.28 74.64 491.51 72.12 491.56 71.74 491.54 71.26 491.24 70.51 491.04 70.14 490.8 69.85 489.95 69.12 488.7 68.46 488.43 68.13 488.31 67.75 488.26 67.37 488.25 66.97 488.05 65.93 487.68 65.12 487.2 64.71 486.62 64.45 484.77 64.09 484.2 64.05 483.69 64.08 483.37 64.37 483.13 64.74 482.93 65.13 482.67 65.47 482.38 65.78 481.69 66.2 481.29 66.36 480.41 66.62 475.18 66.87 474.55 66.82 474.18 66.59 473.9 66.32 472.79 64.58 472.35 64.23 471.86 63.96 469.77 63.22 469.32 63.01 468.8 62.83 468.27 62.7 466.43 62.57 466.1 62.33 465.88 62.02 464.9 59.68 464.75 59.01 467.6 57.68 468.17 57.33 468.46 57.02 468.75 56.31 468.82 56.09 468.83 54.97 469.02 54.63 469.43 54.39 470.44 54.33 471.27 54.17 472.23 53.89 473.96 52.79 474.91 52.35 476.7 51.74 477.42 51.38 477.84 51.09 478.55 49.87 479.19 49.59 480.18 49.45 485.67 49.82 486.92 49.74 497 47.92 498.69 47.93 499.91 48.45 500.79 48.63 501.25 48.67 501.79 48.68 502.45 48.58 503.17 48.33 504.94 47.39 505.42 47.04 509.34 43.53 510.85 42.66 512.46 41.92 517.49 40.23 522.9 39.31 523.37 39.15 523.8 38.92 525.17 36.68 525.53 36.35 525.99 36.18 526.73 36.23 531.31 37 533.19 36.93 535.46 37.53 536.29 37.54 537.3 37.34 541.15 35.81 541.66 35.73 542.39 35.84 545.78 36.88 548.09 37.15 548.64 37.09 549.15 36.92 549.59 36.44 549.9 36 550.14 35.54 550.32 35.1 550.6 34.7 551.02 34.37 551.95 34.26 569 34.52 570.46 34.31 572.4 33.83 572.98 33.48 573.37 33.04 573.77 31.72 574.08 31.14 575.92 29.67 576.29 29.44 576.68 29.29 577.12 29.28 578.12 29.5 578.62 29.52 579.07 29.38 579.29 28.87 579.43 28.26 578.68 26.45 579.96 26.46 587.09 27.34 589.46 26.84 592.52 25.74 593.63 25.56 594.74 25.62 596.75 26.12 599.63 26.11 601.04 26.67 602.3 27.44 603.7 28.02 604.9 28.04 608.7 26.69 610.21 26.48 614.99 26.62 619.86 27.48 620.32 27.91 620.62 28.39 621.09 28.79 621.94 29.24 623.79 28.62 625 28.04 625.65 27.83 627.29 27.66 628.96 27.8 630.58 28.25 634.69 30.04 637.9 30.44 645.66 29.92 648.97 30.05 652.31 29.7 653.71 29.89 656.68 30.68 658.2 30.75 659.44 30.4 662.07 29.15 663.58 28.74 666.76 28.56 671.58 28.93 678.68 30.77 681.66 32.05 684.15 33.59 685.39 34.07 694.13 34.72 699.94 36.48 704.72 36.68 707.52 37.5 710.26 37.57 715.9 35.46 718.75 35.05 720.57 35.44 721.11 36.17 720.7 38.95 720.77 40.63 721.18 42.1 721.93 43.45 722.96 44.78 725.54 46.71 731.27 48.71 733.57 50.51 736.85 56.32 738.82 58.3 742.49 59.43 749.4 59.75 755.23 58.92 758.41 59.01 774.43 61.57 777.48 63.08 778.48 63.95 781.24 66.99 785.94 70.15 788.33 72.5 790.25 74.99 792.42 77.17 795.58 78.56 Z" id="KGZ-1117" data-name="Ysyk-Köl"/>
<path d="M 652.42 152.11 650.48 154.94 649.47 156.09 648.42 156.98 641.11 161.75 639.82 162.13 638.33 162 635.52 161.01 626.05 159.98 623.47 160.06 621.04 160.65 611.5 164.52 610.39 164.82 609.05 164.92 605.36 164.78 599.77 165.98 597.7 165.91 595.56 165.07 591.47 163.77 587.44 163.12 585.13 163.21 580.94 164.2 571.95 163.77 569.75 163.2 565.88 161.69 563.91 161.41 556.12 162.75 553.29 163.66 551.41 165.08 550.39 166.22 547.72 167.71 546.48 168.61 545.8 169.98 546.05 171.37 546.59 172.78 546.77 174.22 546.17 175.68 545.04 176.59 542.17 177.81 539.78 179.41 537.87 181.62 536.64 184.22 536.16 191.55 535.92 192.73 535.09 193.76 531.26 196.03 529.43 198.25 527.1 203.34 525.48 205.4 523.5 206.89 517.19 210.05 514.89 211.77 513.69 212.11 512.66 211.22 511.51 206.77 510.79 205.55 508.67 205.03 506.59 206.82 504.39 209.16 501.96 210.32 500.6 210.07 497.9 208.93 496.51 208.6 494.74 208.72 488.29 211.1 487.34 212.13 486.53 213.35 485.33 214.59 483.91 215.33 482.36 215.59 480.78 215.51 476.09 214.6 474.52 214.51 472.96 214.65 469.63 215.74 467.99 215.85 466.77 214.84 466.14 213.58 464.98 210.38 464.84 209.02 465.43 207.63 466.38 206.63 467.09 205.67 466.91 204.38 466.21 203.6 464.17 202.13 463.37 201.22 462.86 199.85 462.48 195.76 461.18 192.68 459.17 191.17 456.56 191.15 453.52 192.53 437.71 202.22 436.99 202.52 436.14 202.66 435.25 202.93 434.87 203.5 434.59 204.18 434.04 204.78 432.69 205.03 431.35 204.53 430 203.81 428.66 203.39 426.86 203.62 423.33 204.84 421.5 205.04 418.84 204.59 416.22 203.73 409.93 200.41 408.28 199.83 406.76 199.94 406.54 200.19 406.52 200.19 404.62 199.58 399.01 199.67 397.74 199.56 396.85 199.37 396.52 199.13 395.87 198.43 395.34 197.96 390 197.26 388.93 196.88 388.41 196.45 388.74 195.6 388.95 195.2 389.12 194.78 389.23 194.36 389.24 193.95 389.2 193.57 388.97 193.12 388.56 192.62 387.6 191.87 386.83 191.5 376.79 188.71 375.29 188.03 372.35 186.11 371.11 185.04 370.6 184.46 369.98 183.52 369.42 182.96 367.04 181.18 364.37 179.19 363.17 178.65 362.39 178.11 362.04 177.75 361.93 177.39 361.85 176.48 361.69 175.92 361.29 175.12 360.91 174.67 360.38 174.29 358.54 173.38 350.63 168.05 350.34 167.77 349.35 166.64 355.76 160.78 356.73 159.66 356.86 159.03 351.3 155.6 351.12 155.07 351.28 154.59 351.87 153.54 352.32 153.13 352.87 152.89 353.45 152.9 354.04 152.98 354.75 152.95 355.41 152.73 356.2 151.99 356.67 151.68 357.18 151.49 358.39 151.27 358.98 151.06 360.91 150.09 361.2 150.01 364.88 149.93 370.67 148.96 371.11 148.98 371.7 149.09 373 149.51 373.78 149.66 374.82 149.46 375.17 149.3 375.26 149.1 375.1 148.93 374.82 148.67 374.4 148.35 372.46 146.26 372.07 145.7 371.15 143.88 371.11 143.33 371.48 142.99 372.22 142.68 377.98 141.15 379.87 140.3 381.01 139.93 382.09 139.69 386.61 139.17 387.79 138.9 390.36 137.91 392.52 137.35 393.14 137.04 393.71 136.59 396.24 133.94 396.63 133.29 397.55 131.27 398.42 128.54 399.08 127.01 399.28 126.25 399.4 123.88 399.58 123.13 400.55 121.54 400.79 121.02 400.8 120.59 400.73 120.36 400.05 119.88 398.02 118.85 397.46 118.8 396.53 118.82 395.99 118.97 395.56 119.19 395.36 119.4 395.19 119.89 395.11 120.04 394.98 120.17 394.83 120.29 394.24 120.6 385.2 123.47 384.01 123.6 383.51 123.42 382.79 123.26 381.93 123.17 380.5 123.23 379.75 123.48 378.24 124.45 376.69 125.03 375.78 125.1 375.05 124.92 374.55 124.62 374.06 124.46 370.16 124.08 366.47 124.19 364.82 124.42 363.69 124.71 363.01 125.04 362.53 125.13 362.04 125.08 361.59 124.85 360.49 124.08 359.7 123.69 358.71 123.36 357.03 123.19 355.84 123.25 353.54 123.78 352.71 123.84 351.85 123.74 351.09 123.49 350.34 123.14 348.77 122.02 348.39 121.82 347.97 121.72 347.42 121.65 346.97 121.52 346.53 121.27 345.83 120.55 345.29 120.18 344.59 119.89 343.69 119.65 342.46 119.87 342.04 119.29 341.01 117.32 340.25 116.43 339.95 116.39 339.83 115.95 340.22 115.72 342 114.48 342.39 114.27 342.86 114.15 343.38 114.11 346.35 114.43 347.71 114.71 348.36 114.93 349.02 115.28 349.62 115.73 350.02 116.28 350.31 116.91 350.45 117.47 350.49 118.02 350.46 118.44 350.28 119.52 350.73 120.09 351.66 120.59 354 121.19 354.95 121.2 355.48 120.98 355.49 120.47 354.58 114.71 354.17 113.21 353.89 112.58 353.58 112.25 353.08 112.04 350.76 111.62 347.6 111.51 345.06 111.11 344.83 110.98 344.7 110.79 344.68 110.45 345.04 106.49 345.03 105.36 344.83 104.32 344.57 103.76 344.27 103.36 343.98 103.11 343.66 102.94 341.97 102.52 341.15 102.21 340.84 102.12 340.59 102.15 338.65 102.94 338.19 103.01 337.82 102.86 336.92 102.28 336.4 102.02 334.05 101.19 333.83 101.17 333.79 101.34 333.89 102.05 333.8 102.52 333.56 102.94 333.12 103.37 332.55 103.69 331.94 103.85 331.3 103.8 330.51 103.47 329.65 102.91 328 101.41 327.47 101.02 326.99 100.77 326.45 100.42 326.23 100.07 326.26 99.82 326.47 99.68 326.81 99.63 327.78 99.6 328.3 99.52 328.7 99.37 329.09 99.08 329.35 98.75 329.81 98.03 331.48 96.21 331.93 95.34 340.58 94.68 341.75 94.73 343.17 94.35 346.14 92.55 346.63 93.16 346.81 93.45 347.24 94.35 347.47 94.76 347.79 95.09 348.51 95.55 348.84 95.86 349.66 97.02 350.04 97.38 350.49 97.68 351.12 97.9 351.65 98.02 352.29 98.05 352.85 97.96 354.57 97.53 354.97 97.52 355.26 97.67 355.48 97.95 355.58 98.35 355.53 98.85 355.16 100.43 355.16 100.92 355.26 101.34 355.43 101.66 355.68 101.91 355.96 102.04 356.36 102.08 356.82 101.84 357.17 101.37 357.52 99.6 357.7 98.99 358.01 98.55 358.64 98.07 360.7 97.02 361.14 96.91 361.54 96.9 361.86 96.99 362.18 97.16 362.82 97.6 363.18 97.78 363.66 97.91 364.28 97.86 365.07 97.61 365.88 97.1 366.33 96.62 366.57 96.09 366.46 94.88 366.51 94.36 366.73 93.86 367.33 93.19 369.13 91.71 369.46 91.14 369.56 90.55 369.24 89.32 369.19 88.9 369.27 88.47 369.57 87.77 369.85 87.3 370.17 86.89 371.09 85.99 371.76 85.5 372.67 85.02 372.79 84.79 372.67 84.52 372.14 84.03 371.53 83.77 369.68 83.45 369.5 82.61 369.43 81.81 370.77 75.8 370.98 75.06 371.16 74.97 371.55 74.85 372.01 74.8 373.78 74.8 376.65 75.17 377.4 75.37 377.86 75.58 378.61 75.74 391.45 74.28 393.15 74.33 393.56 74.61 393.8 74.97 393.92 75.32 394.11 75.65 394.56 75.67 395.01 75.64 396.7 73.8 399.53 70.97 400.93 70.4 406.55 70.01 407.08 70.03 408.7 70.47 409.27 70.57 409.78 70.52 410.16 70.31 410.05 69.52 409.53 68.57 406.19 64.55 404.77 61.98 405.6 61.63 416.07 60.42 417 60.08 417.62 59.72 417.98 59.45 418.61 59.52 419.35 59.76 421.24 61.52 423.6 60.92 424.58 60.36 424.9 60.08 425.36 59.91 425.96 59.84 428.89 60.59 439.87 60.91 440.7 60.83 442.75 60.29 443.3 60.03 443.67 59.81 444.13 59.66 444.67 59.62 447.69 60.66 448.22 60.77 449.25 60.75 454.53 59.79 455.7 59.37 456.1 59.34 456.5 59.57 456.78 59.85 456.98 60.19 457.12 60.53 457.14 60.92 456.93 62.21 456.91 62.61 457.41 62.72 458.44 62.48 462.24 60.64 463.18 59.81 463.43 59.49 464.75 59.01 464.9 59.68 465.88 62.02 466.1 62.33 466.43 62.57 468.27 62.7 468.8 62.83 469.32 63.01 469.77 63.22 471.86 63.96 472.35 64.23 472.79 64.58 473.9 66.32 474.18 66.59 474.55 66.82 475.18 66.87 480.41 66.62 481.29 66.36 481.69 66.2 482.38 65.78 482.67 65.47 482.93 65.13 483.13 64.74 483.37 64.37 483.69 64.08 484.2 64.05 484.77 64.09 486.62 64.45 487.2 64.71 487.68 65.12 488.05 65.93 488.25 66.97 488.26 67.37 488.31 67.75 488.43 68.13 488.7 68.46 489.95 69.12 490.8 69.85 491.04 70.14 491.24 70.51 491.54 71.26 491.56 71.74 491.51 72.12 490.28 74.64 490.11 75.09 489.7 76.86 489.68 77.26 489.79 77.64 490.08 77.93 490.65 78.12 491.45 78.22 491.87 78.36 492.18 78.66 492.27 79.21 492.12 80.17 492.38 80.61 492.9 81.07 495.57 82.34 496.13 82.67 496.67 83.12 497.35 84 497.55 84.58 497.59 85.12 497.48 85.57 497.15 86.44 496.91 86.8 496.63 87.14 495.96 87.69 494.48 88.64 492.92 89.41 492.57 89.66 492.27 89.97 492.07 90.35 491.98 90.75 492.18 91.14 492.63 91.46 493.7 91.71 494.39 91.72 494.99 91.66 500.54 90.49 502.23 89.89 502.68 89.81 503.4 90.02 504.37 90.43 506.13 91.4 507.15 91.82 507.95 92.05 508.48 92.05 508.96 91.99 510.75 91.53 511.28 91.53 511.84 91.59 514.68 92.17 516.3 92.94 518.44 93.61 519 93.69 524.37 93.82 525.48 94 531.4 96.35 533.65 97.02 534.84 97.22 535.37 97.23 535.86 97.17 537.52 96.53 537.99 96.44 538.33 96.51 538.56 96.75 537.16 99.14 536.46 100.91 536.37 101.29 536.24 102.5 535.91 102.89 535.33 103.19 533.08 103.36 528.5 103.14 526.86 103.26 526.3 103.37 525.48 103.72 524.72 104.18 523.61 105.73 524.79 106.8 524.88 107.16 525.15 107.58 525.46 107.84 535.12 108.17 536.57 107.94 537.8 107.44 538.26 107.35 539.07 107.49 540.15 107.79 542.08 108.51 543.67 109.28 543.96 109.55 544.15 109.88 544.21 110.25 544.17 110.67 543.81 111.96 543.59 112.36 542.47 113.72 542.22 114.12 542.03 114.56 541.88 115.01 541.7 116.28 541.59 116.72 541.22 117.62 540.42 118.7 539.24 120.02 539 120.37 538.83 120.75 539.02 121.04 539.55 121.17 540.75 120.93 542.08 120.52 542.68 120.54 543.53 120.8 543.98 121.1 544.3 121.43 544.5 121.75 544.75 122.04 545.17 122.27 545.79 122.41 549.37 122.77 551.03 122.65 552.56 122.34 554.81 121.57 555.72 121.36 556.57 121.34 561.7 121.73 565.78 122.48 578.81 122.27 579.52 122.14 580.52 121.76 581.11 121.47 581.96 120.97 582.58 120.76 584.98 120.3 586.41 119.88 587.53 119.24 587.93 119.23 588.25 119.26 588.79 120.64 588.38 123.66 587.84 125.45 586.56 127.98 586.02 128.34 585.48 128.52 585.05 128.49 584.85 128.45 584.76 128.43 584.72 128.41 584.08 128.18 583.83 128.21 583.85 128.46 584.18 129.22 584.54 129.86 584.92 130.74 585.28 132.19 585.3 132.57 585.38 132.93 586.36 133.72 590.08 135.01 592.47 136.12 592.91 136.4 593.4 136.76 593.53 137.06 593.46 137.36 593.25 137.68 592.1 139.01 591.9 139.39 591.79 139.79 591.68 140.62 590.85 142.92 590.61 143.34 590.33 143.67 590 143.96 589.28 144.4 588.94 144.67 588.67 145.02 588.7 145.34 589.03 145.57 591.37 145.34 603.26 142.81 605.73 141.91 606.55 141.82 608.97 141.89 610.06 142.05 610.71 142.49 610.97 142.89 610.98 143.32 610.82 143.72 609.86 145.33 609.69 145.76 609.58 146.2 609.58 146.98 609.78 147.69 610.03 147.99 610.7 148.21 611.67 148.36 618.47 148.29 627.74 150.17 633.11 150.15 636.51 149.83 638.32 149.49 641.54 148.13 642.63 147.45 644.19 146.7 645.03 146.41 645.56 146.38 646.17 146.44 646.96 146.62 647.56 146.82 648.09 147.23 648.56 147.77 649.19 148.84 649.7 149.95 650.08 150.59 650.92 151.34 652.4 152.1 652.42 152.11 Z" id="KGZ-1118" data-name="Naryn"/>
<path d="M 202.61 217.99 202.64 217.99 205.23 217.89 208.74 216.83 215.13 215.49 216.24 215.66 216.99 216.15 217.51 217.3 217.42 217.99 216.98 219.33 217 220.09 217.16 220.69 217.62 221.48 217.43 222.17 216.94 222.62 216.23 222.93 215.88 223.26 216.06 223.73 216.76 224.22 219.76 225.21 220.79 225.83 221.3 226.57 221.39 227.68 220.92 228.49 219.36 229.56 219.08 229.87 219.21 230.23 221.54 231.07 222.22 231.57 222.62 232.09 222.69 232.84 222.53 233.33 222.14 233.79 222.11 234.39 222.32 235.09 223 236.22 223.1 236.97 222.9 237.64 222.48 238.24 222.16 238.97 222.03 239.54 222.09 240.07 222.37 240.49 223.13 240.77 225 241.11 226 241.4 227.18 242 228 242.52 228.72 243.38 229.81 245.1 231.37 246.96 232.55 247.42 233.27 247.38 234.57 246.68 235.25 246.44 235.99 246.56 236.47 246.99 236.91 248.53 237.3 249.21 238.24 249.93 239.8 251.39 241.45 253.7 240.51 254.64 240.13 255.45 239.85 255.81 239.39 256.11 238.76 256.45 236.21 257.47 232.63 258.37 229.17 259.57 227.26 260.9 226.44 261.31 225.37 261.67 223.06 262.2 221.42 262.76 218.85 263.09 214.33 262.5 212.06 262.68 210.9 262.91 209.34 263.4 208.59 263.53 207.83 263.49 206.44 262.76 205.88 262.57 204.8 262.69 203.73 262.64 202.19 262.36 201.22 262.05 199.66 261.13 199.1 260.87 198.64 260.58 197.52 260.19 186.89 258.51 185.78 258.18 184.75 257.74 184.21 257.31 183.76 256.36 183.21 256.01 182.21 255.85 180.92 255.87 180.01 256.12 179.42 256.47 178.69 257.36 177.82 258.02 176.52 258.63 170.93 259.67 169.18 260.91 167.63 263.26 167.41 263.72 166.81 265.76 166.18 266.96 166.18 266.97 164.98 266.16 162.55 265.01 161.23 265.12 158.73 266.02 156.68 266.31 155.97 266.5 155.47 266.79 154.47 267.61 153.95 267.93 151.44 268.99 150.43 269.58 148.12 271.63 147.34 272.08 146.45 272.07 142.33 271.46 139.25 271.59 136.25 272.23 133.86 273.44 132.37 275.44 131.3 277.81 129.98 279.8 127.66 280.72 125.68 280.3 123.9 279.42 122.32 278.85 120.95 279.35 120.07 280.14 119.48 280.31 118.84 280.23 117.74 280.25 116.87 280.46 114.67 281.41 112.68 281.65 110.48 281.35 108.57 280.47 107.47 278.98 107.51 278.08 107.83 277.12 108 276.12 107.59 275.13 106.89 274.63 105.2 274.07 104.42 273.58 104.42 273.58 104.42 273.56 104.4 273.51 102.98 270.05 101.97 268.53 100.22 267.49 98.95 267.37 96.29 267.75 95.03 267.65 94.12 267.22 92.49 266.11 91.49 265.8 90.24 265.92 87.9 266.6 86.71 266.79 86.01 266.99 85.57 267.37 85.21 267.77 84.77 267.99 84.05 267.98 82.54 267.63 81.8 267.56 80.86 267.83 74.41 271.5 73.12 271.74 71.87 271.38 71.75 270.36 72.52 267.76 72.51 266.53 72.18 265.18 71.49 264.48 70.37 265.14 68.35 268.5 67.75 269.19 66.55 269.5 65.38 269.17 62.95 268.07 61.47 267.81 59.89 267.8 58.39 268.16 57.17 269.01 56.04 270.26 55.43 270.63 53.25 269.86 50.3 269.61 44.7 270.5 41.89 269.84 38.87 268.5 36.02 267.76 33.06 267.49 26.75 267.8 25.5 268.19 23.07 269.82 21.84 270.4 20.52 270.76 19.16 270.92 17.56 270.92 14.45 271.31 12.95 270.91 11.19 269.51 10.79 269.3 10.1 269.53 9.83 270 9.65 270.56 9.21 271.09 6.36 271.99 5.33 270.25 5.69 261.63 5.43 260.26 4.89 259.07 3.87 258.09 2.6 257.25 1.51 256.29 1 254.96 1.24 252.1 2.04 249.33 5.35 241.6 6.74 239.22 7.06 238.5 7.08 238.05 7.34 237.9 8.35 238.05 10.48 239.88 13.95 244.47 20.91 242.56 20.83 241.6 19.16 239.25 19.22 238.76 19.16 238.28 19 237.84 18.72 237.41 18.13 235.11 18.6 233.26 19.77 231.62 21.26 229.94 21.47 229.47 21.77 228.22 22.1 227.9 22.69 228.04 23.45 229.15 23.91 229.49 25.06 229.59 26.26 229.46 54.77 221.64 57.3 221.85 67.62 227.04 69.18 227.43 72.78 227.25 74.44 227.35 76.03 227.96 77.07 228.84 77.97 229.85 79.13 230.82 80.43 231.34 82.98 231.59 85.74 232.52 91.49 233.19 93.29 233.62 94.98 234.51 95.72 235.8 94.65 237.4 93.5 238.03 92.31 238.5 91.2 239.11 90.26 240.13 89.59 241.48 89.38 242.74 89.93 243.69 91.49 244.12 92.12 243.49 92.72 241.89 93.2 241.25 94.05 240.92 97.12 240.84 98.68 240.41 100.13 239.7 101.38 238.71 102.36 237.39 102.98 234.89 102.89 232.66 103.23 230.81 105.14 229.42 109.76 228.22 110.75 227.76 113.58 225.91 114.03 225.45 114.27 225.28 114.68 225.24 115.04 225.37 115.28 225.55 115.33 225.65 116.64 225.12 117.14 224.78 118.11 224.52 121.97 225.19 124.19 224.61 126.62 223.23 127.83 221.46 126.34 219.71 128.96 217.67 133.16 217.11 141.56 218.04 143.85 217.86 144.87 216.64 145.51 215.04 146.64 213.72 147.67 213.48 148.4 213.93 149.05 214.69 149.8 215.36 150.8 215.7 151.99 215.78 154.26 215.6 155.72 215.67 158 217.31 161.24 218.08 161.93 218.94 162.51 220.01 163.82 220.98 165.36 221.72 167.02 222.21 170.42 222.73 172.21 222.6 172.83 221.76 173.01 220.51 173.45 219.13 174.76 218.22 176.04 219.08 177.06 220.71 177.57 222.18 177.55 225.15 178 226.25 179.46 226.74 180.47 226.51 184.27 224.79 185.44 223.94 186.22 222.95 187.58 220.65 189.82 218.93 192.46 218.81 195.31 219.34 198.16 219.52 199 219.32 199.42 219.27 199.99 219.37 200.86 219.64 202 219.79 203.02 219.59 203.49 218.8 203.08 218.23 202.61 217.99 Z M 130.89 245.57 131.92 245.09 132.91 244.33 133.72 243.89 135.1 243.94 135.44 244.56 135.62 245.36 136.46 245.96 137.53 246.03 140.96 245.33 143.39 245.28 144.39 245 145.16 244.12 145.3 241.89 142.12 239.25 141.95 237.39 143.13 236.5 146.47 234.7 146.96 233.57 146.41 232.9 145.5 232.77 143.65 233.15 143.27 233.31 142.47 233.81 142.11 233.91 141.56 233.85 141.28 233.72 141.03 233.56 136.98 232.25 135.01 231.26 133.78 230.07 132.78 228.09 131.57 226.32 129.93 225.54 127.66 226.49 126.41 228.75 125.99 230.02 125.91 231.22 126.3 232.39 128.09 235.4 128.91 236.31 129.86 236.7 131.79 237.02 132.62 237.53 132.95 239.64 129.86 243.38 129.98 245.22 130.89 245.57 Z M 93.05 245.49 91.96 245.47 91.88 246.59 92.43 247.79 93.39 248.85 95.84 250.17 96.56 250.87 98.63 253.58 99.04 253.84 102.76 251.53 104.83 250.71 107.21 250.35 107.96 249.82 108.07 248.53 107.53 247.19 106.64 247.02 104.35 247.82 101.81 247.75 93.05 245.49 Z M 182.97 244.13 184.09 243.96 184.8 243.07 186.44 238.45 186.13 237.7 184.33 238.13 181.69 239.65 180.44 240.13 178.63 240.2 177.45 241.28 178.16 242.32 179.72 243.18 181.12 243.7 182.97 244.13 Z" fill-rule="evenodd" id="KGZ-1119" data-name="Batken"/>
<path d="M 282.11 82.19 282.58 83.14 282.85 83.44 283.18 83.6 283.66 83.48 284.43 83.51 285.46 83.68 289.16 84.7 292.41 85.16 293.24 85.37 294.28 86.18 294.74 86.41 296.01 86.41 296.78 86.54 297.65 86.8 298.95 87.4 299.61 87.78 300.06 88.15 300.29 88.47 300.62 89.13 301.12 90.52 301.3 90.79 301.61 90.89 303.65 90.46 304.32 90.51 305.17 90.68 307.5 91.39 308.57 91.36 310.72 90.98 311.71 90.93 312.66 91.07 319.32 93 320.09 93.06 321.24 92.94 321.85 92.73 322.23 92.48 322.67 92.01 323.25 91.53 323.63 91.32 325.29 90.67 325.73 90.56 326.23 90.5 326.84 90.52 328.39 90.74 329.03 90.91 330.03 91.31 330.79 92.3 331.93 95.34 331.48 96.21 329.81 98.03 329.35 98.75 329.09 99.08 328.7 99.37 328.3 99.52 327.78 99.6 326.81 99.63 326.47 99.68 326.26 99.82 326.23 100.07 326.45 100.42 326.99 100.77 327.47 101.02 328 101.41 329.65 102.91 330.51 103.47 331.3 103.8 331.94 103.85 332.55 103.69 333.12 103.37 333.56 102.94 333.8 102.52 333.89 102.05 333.79 101.34 333.83 101.17 334.05 101.19 336.4 102.02 336.92 102.28 337.82 102.86 338.19 103.01 338.65 102.94 340.59 102.15 340.84 102.12 341.15 102.21 341.97 102.52 343.66 102.94 343.98 103.11 344.27 103.36 344.57 103.76 344.83 104.32 345.03 105.36 345.04 106.49 344.68 110.45 344.7 110.79 344.83 110.98 345.06 111.11 347.6 111.51 350.76 111.62 353.08 112.04 353.58 112.25 353.89 112.58 354.17 113.21 354.58 114.71 355.49 120.47 355.48 120.98 354.95 121.2 354 121.19 351.66 120.59 350.73 120.09 350.28 119.52 350.46 118.44 350.49 118.02 350.45 117.47 350.31 116.91 350.02 116.28 349.62 115.73 349.02 115.28 348.36 114.93 347.71 114.71 346.35 114.43 343.38 114.11 342.86 114.15 342.39 114.27 342 114.48 340.22 115.72 339.83 115.95 339.95 116.39 340.25 116.43 341.01 117.32 342.04 119.29 342.46 119.87 343.69 119.65 344.59 119.89 345.29 120.18 345.83 120.55 346.53 121.27 346.97 121.52 347.42 121.65 347.97 121.72 348.39 121.82 348.77 122.02 350.34 123.14 351.09 123.49 351.85 123.74 352.71 123.84 353.54 123.78 355.84 123.25 357.03 123.19 358.71 123.36 359.7 123.69 360.49 124.08 361.59 124.85 362.04 125.08 362.53 125.13 363.01 125.04 363.69 124.71 364.82 124.42 366.47 124.19 370.16 124.08 374.06 124.46 374.55 124.62 375.05 124.92 375.78 125.1 376.69 125.03 378.24 124.45 379.75 123.48 380.5 123.23 381.93 123.17 382.79 123.26 383.51 123.42 384.01 123.6 385.2 123.47 394.24 120.6 394.83 120.29 394.98 120.17 395.11 120.04 395.19 119.89 395.36 119.4 395.56 119.19 395.99 118.97 396.53 118.82 397.46 118.8 398.02 118.85 400.05 119.88 400.73 120.36 400.8 120.59 400.79 121.02 400.55 121.54 399.58 123.13 399.4 123.88 399.28 126.25 399.08 127.01 398.42 128.54 397.55 131.27 396.63 133.29 396.24 133.94 393.71 136.59 393.14 137.04 392.52 137.35 390.36 137.91 387.79 138.9 386.61 139.17 382.09 139.69 381.01 139.93 379.87 140.3 377.98 141.15 372.22 142.68 371.48 142.99 371.11 143.33 371.15 143.88 372.07 145.7 372.46 146.26 374.4 148.35 374.82 148.67 375.1 148.93 375.26 149.1 375.17 149.3 374.82 149.46 373.78 149.66 373 149.51 371.7 149.09 371.11 148.98 370.67 148.96 364.88 149.93 361.2 150.01 360.91 150.09 358.98 151.06 358.39 151.27 357.18 151.49 356.67 151.68 356.2 151.99 355.41 152.73 354.75 152.95 354.04 152.98 353.45 152.9 352.87 152.89 352.32 153.13 351.87 153.54 351.28 154.59 351.12 155.07 351.3 155.6 356.86 159.03 356.73 159.66 355.76 160.78 349.35 166.64 341.1 163.35 340.73 163.01 340.43 162.47 340.28 161.38 340.36 160.45 340.29 159.74 339.99 159.24 338.47 158.36 338.03 157.95 337.9 157.27 338.11 156.31 338.05 155.93 337.68 155.69 336.94 155.44 335.78 155.57 334.6 156.61 330.74 161.44 330.28 161.78 327.53 163.21 326.69 163.83 326.07 164.47 325.8 165.04 325.68 165.6 325.7 166.15 325.83 167.13 325.82 167.5 325.74 167.79 325.47 167.98 325.03 168.03 324.07 167.81 323.47 167.51 322.6 166.95 322.23 166.77 321.76 166.66 320.48 166.51 319.97 166.33 319.7 166.05 319.59 165.62 319.55 165.18 319.44 164.8 319.25 164.51 318.92 164.36 317.09 164.25 316.73 164.1 316.65 163.85 316.79 163.53 317.11 163.14 317.99 162.38 324.11 157.98 324.48 157.49 324.61 157.09 324.54 156.74 324.4 156.48 324.19 156.25 323.26 155.35 322.71 154.72 322.46 154.54 322.06 154.5 319.89 154.83 319.41 154.98 319.12 155.21 318.84 155.83 318.94 156.24 319.1 156.61 319.26 156.9 319.33 157.23 319.33 157.47 319.1 157.78 318.7 157.95 317.66 158.19 316.87 158.25 310.72 157.87 308.3 157.93 307.93 157.87 307.47 157.74 307.2 157.92 306.77 158.32 305.42 160.01 304.91 160.47 304.03 160.92 303.48 161.32 302.98 161.98 302.34 163.01 301.72 163.22 301.21 163.31 300.72 163.29 300.47 163.2 300.29 163.02 299.83 162.36 299.5 161.98 299.13 161.68 298.73 161.53 298.34 161.55 297.9 161.7 294.1 163.82 293.47 164.32 292.94 164.89 292.65 165.7 292.66 166.32 292.85 167.36 292.79 167.81 292.55 168.64 292.57 169 292.73 169.39 292.93 169.78 293.1 170.23 293.13 170.63 293.06 171.08 292.86 171.53 292.23 172.09 291.25 172.67 287 174.12 285.03 175.66 283.78 176.51 283.76 176.53 282.13 176.25 277.86 176.45 276.4 175.66 275.4 174.6 274.24 174 268.88 175.88 265.53 177.66 264.61 177.76 264.8 176.56 264.49 174.44 261.7 173.86 252.38 174.5 249.27 174.22 246.46 173.29 244.22 171.42 241.12 167.76 239.72 167.35 237.92 167.25 236.62 166.74 236.63 165.08 236.75 164.64 236.71 164.27 236.51 163.97 236.14 163.76 232.29 163.47 230.24 163.02 228.73 162.3 226.66 159.84 225.69 159.34 224.37 160.15 223.99 160.67 223.16 162.58 222.61 162.91 219.95 163.19 215.79 164.15 213.6 164.66 214.58 162.93 215.08 161.64 215.08 160.22 214.41 156.44 214.28 154.38 213.94 152.41 213.11 151.02 211.26 150.19 209.5 150.4 207.82 151.24 206.25 152.3 204.09 153.28 202.84 152.78 201.74 151.59 199.99 150.49 194.25 151.23 192.36 150.54 191.98 147.5 192.16 144.41 191.74 142.03 190.58 139.88 183.79 132.25 183.22 131.85 182.61 131.67 182.15 131.97 182.1 133.5 181.51 133.88 180.83 133.65 180.44 132.49 179.67 132.24 179.33 132.64 179.03 133.43 178.61 134.02 177.92 133.83 177.86 132.95 179.19 128.89 179.18 127.38 178.8 125.98 177.88 125.01 176.29 124.83 174.69 125.32 173.82 126.12 172.38 128.89 172.38 128.89 172.39 128.9 172.39 128.91 173.12 130.12 175.15 132.09 175.42 133.41 175.11 134.86 174.07 137.28 171.67 141.21 169.67 142.78 167.2 143.15 164.08 142.13 160.59 139.67 159.6 139.48 159.15 140.4 159.8 152.89 159.41 155.4 157.79 156.46 152.84 153.23 151.03 154.99 150.25 156.37 149.29 156.43 148.36 155.68 147.67 154.67 146.78 151.94 145.96 151.07 144.24 150.96 142.74 151.57 142.55 152.58 142.9 153.87 143.05 155.39 142.34 156.79 141.2 156.21 139.37 153.88 138.21 153.17 135.51 152.89 134.2 152.33 132.71 151.44 131.1 150.88 127.66 150.41 124.55 150.76 123.1 150.65 121.78 149.7 120.79 148.66 119.6 147.74 118.3 147.03 116.9 146.59 115.28 146.71 113.87 147.22 112.7 147.36 111.81 146.37 111.68 145.11 112.75 140.67 112.61 139.14 111.93 137.66 107.87 132.39 106.65 131.16 105.28 130.51 102.82 130.79 93.96 134.63 91.49 135.34 91.03 135.32 89.75 135.28 88.66 134.51 86.89 132.01 85.83 130.98 84.62 130.15 81.92 128.91 81.91 128.9 81.89 128.9 81.88 128.89 71.69 128.03 69.02 126.98 67.69 124.65 69.22 122.77 80.93 117.62 85.24 115.05 87.6 114.2 89.79 113.1 91.49 111.19 93.61 107.78 96.76 105 103.91 100.42 106.14 99.42 113.35 98.81 115.85 98.09 116.66 96.88 116.87 92.72 118.13 90.08 121.11 89.49 124.67 89.6 127.66 89.07 137.88 83.38 143.85 82.09 146.54 80.68 147.63 77.98 147.38 77.92 147.43 77.91 149.21 77.49 158.86 79.13 159.75 79.19 160.79 79.15 163.38 78.56 164.9 78 165.65 77.82 174.68 77.6 176.67 78.01 188.74 82.08 189.8 82.29 190.67 82.17 191.2 82.03 193.54 82.39 201.66 84.93 203.02 85.29 204.34 85.92 206.13 87.08 210.83 87.22 212.16 86.98 213.55 86.4 215.13 84.95 215.88 83.6 216.6 81.35 217.03 80.39 217.7 79.51 218.65 78.83 220.34 78.27 221.64 77.96 227.07 77.35 229.37 77.34 230.33 77.59 231.4 78.33 231.94 79.13 232.32 79.84 233.21 80.3 234.51 80.51 236.77 80.42 239.3 80.54 241.79 81.73 243.01 82.03 245.93 81.31 247.09 81.26 249.46 82.31 253.4 83.41 254.93 84.03 256.35 84.81 259.76 87.51 260.8 87.85 262.03 87.94 264.26 87.69 265.73 87.3 266.6 86.59 266.82 85.97 266.85 85.16 267.01 84.37 268.22 83.6 270.11 83 277.1 81.7 277.64 81.79 278.25 82.25 279.13 82.58 279.85 82.76 282.11 82.19 Z" id="KGZ-1120" data-name="Jalal-Abad"/>
<path d="M 310.53 61.78 310.54 61.78 312.6 61.96 314.39 60.77 314.89 59.92 314.83 59.62 314.71 59.29 314.6 58.87 314.73 57.99 315.08 57.35 315.63 56.78 315.98 56.78 316.21 57.05 316.66 58.29 316.85 58.64 317.09 58.92 317.39 59.16 317.82 59.38 318.36 59.58 319.04 59.69 319.75 59.7 321.81 59.5 322.14 59.52 322.94 59.71 323.86 60.68 324.02 61.21 324.11 62.05 323.91 62.63 323.6 63.06 321.67 64.42 320.48 65.66 320.06 66.31 319.89 67.47 317.83 69.51 316.78 69.97 312.39 71.37 310.83 71.65 309.62 71.65 307.66 70.82 307.12 70.67 304.37 70.38 302.65 70.43 301.4 70.66 298.58 71.55 297.5 71.66 296.42 71.5 295.56 71.23 294.22 71.08 293.19 71.16 291.81 71.47 290.45 71.58 288.74 71.97 286.71 72.71 286.42 72.85 286.13 73.07 285.33 73.87 284.5 74.34 283.55 74.48 281.18 74.45 280.37 74.69 279.86 75.08 279.63 75.64 279.02 77.77 278.98 78.18 279.03 78.66 279.28 79.04 279.73 79.32 282.39 79.93 282.7 80.05 282.95 80.21 283.07 80.43 283.07 80.7 282.9 81.09 282.11 82.19 279.85 82.76 279.13 82.58 278.25 82.25 277.64 81.79 277.1 81.7 270.11 83 268.22 83.6 267.01 84.37 266.85 85.16 266.82 85.97 266.6 86.59 265.73 87.3 264.26 87.69 262.03 87.94 260.8 87.85 259.76 87.51 256.35 84.81 254.93 84.03 253.4 83.41 249.46 82.31 247.09 81.26 245.93 81.31 243.01 82.03 241.79 81.73 239.3 80.54 236.77 80.42 234.51 80.51 233.21 80.3 232.32 79.84 231.94 79.13 231.4 78.33 230.33 77.59 229.37 77.34 227.07 77.35 221.64 77.96 220.34 78.27 218.65 78.83 217.7 79.51 217.03 80.39 216.6 81.35 215.88 83.6 215.13 84.95 213.55 86.4 212.16 86.98 210.83 87.22 206.13 87.08 204.34 85.92 203.02 85.29 201.66 84.93 193.54 82.39 191.2 82.03 190.67 82.17 189.8 82.29 188.74 82.08 176.67 78.01 174.68 77.6 165.65 77.82 164.9 78 163.38 78.56 160.79 79.15 159.75 79.19 158.86 79.13 149.21 77.49 147.43 77.91 147.38 77.92 145.07 77.34 134.92 71.93 132.62 71.22 130.33 71.46 127.11 73.21 125.53 74.32 123.42 73.94 121.92 73.35 119.05 71.22 118.65 70.13 119.53 69.01 121.27 67.78 122.1 67.19 124.44 65.06 124.96 64.22 124.78 63.71 124.37 63.23 124.24 62.45 124.69 61.05 125.52 59.63 126.56 58.41 127.66 57.64 131.1 59.29 132.28 59.37 133.27 58.97 133.95 58.25 134.1 57.39 133.5 56.58 133.48 56.58 133.47 56.57 133.47 56.56 130.95 54.91 130.23 54.22 129.54 51.51 132.25 50.28 138.5 49.55 139.64 48.68 140.02 47.61 139.9 44.75 140.09 43.23 140.71 42.51 143.43 41.83 144.61 41.26 145.5 40.34 147.07 38.22 148.3 37.76 149.91 38.13 151.63 38.73 153.17 38.95 154.45 38.53 155.57 37.72 156.53 36.69 157.3 35.62 158.58 34.77 160.33 34.72 163.82 35.59 165.02 35.2 165.78 35.15 166.52 35.43 169.37 37.23 170.28 37.49 171.52 37.32 179.48 33.55 181.86 32.98 186.94 32.79 189.45 32.12 190.63 31.94 191.76 32.3 192.89 32.86 194.08 33.24 198.54 34.07 206.91 37.5 209.24 37.99 210.33 37.89 212.41 37.15 213.52 36.92 222.8 37.22 227.58 38.64 236.14 42.89 238.67 43.26 243.88 43.21 254.16 45.04 256.41 45.96 258.12 47.39 260.62 50.82 262.47 52.07 264.91 52.92 267.36 53.43 269.82 53.49 279.1 52.35 282.31 52.42 285.03 53.26 286.48 54.09 287.67 54.6 288.95 54.86 294.12 55.13 295.79 55.59 296.89 56.56 296.66 58.77 296.73 60.33 297.59 61.26 304.19 62.1 308.49 63.4 310.53 63.12 310.56 61.82 310.53 61.78 Z" id="KGZ-1121" data-name="Talas"/>
<path d="M 349.35 166.64 350.34 167.77 350.63 168.05 358.54 173.38 360.38 174.29 360.91 174.67 361.29 175.12 361.69 175.92 361.85 176.48 361.93 177.39 362.04 177.75 362.39 178.11 363.17 178.65 364.37 179.19 367.04 181.18 369.42 182.96 369.98 183.52 370.6 184.46 371.11 185.04 372.35 186.11 375.29 188.03 376.79 188.71 386.83 191.5 387.6 191.87 388.56 192.62 388.97 193.12 389.2 193.57 389.24 193.95 389.23 194.36 389.12 194.78 388.95 195.2 388.74 195.6 388.41 196.45 388.93 196.88 390 197.26 395.34 197.96 395.87 198.43 396.52 199.13 396.85 199.37 397.74 199.56 399.01 199.67 404.62 199.58 406.52 200.19 406.54 200.19 405.65 201.22 405.36 201.96 405.29 202.22 404.71 203.55 403.81 205.07 403.29 206.51 403.81 207.61 407.21 210.04 408.1 210.99 408.7 213.36 406.44 213.81 400.34 212.61 398.75 212.53 397.38 212.99 393.67 215.86 392.46 216.55 389.64 217.7 387.23 219.09 380.81 224.48 373.08 229.3 370.48 230.17 368.24 230.44 366.03 230.16 363.54 229.43 361.02 229 358.45 229.25 355.94 230.05 353.65 231.25 351.36 232.05 346.62 232.55 344.64 233.8 343.9 234.54 343.28 235.4 342.86 236.35 342.69 237.41 342.28 239.12 341.07 240.33 339.64 241.45 338.6 242.87 338.04 245.88 337.7 246.72 337.14 247.31 335.05 248.66 334.18 249.7 333.53 251.01 333.2 252.43 333.29 253.83 334 255.25 334.98 255.73 336.2 255.96 337.6 256.63 338.63 257.9 339.07 259.42 339.4 262.53 341.03 266.4 340.66 267.18 339.04 267.95 337.87 268.69 336.96 269.74 336.14 271.37 335.34 273.86 334.63 274.88 333.36 275.42 319.75 276.86 317.71 276.04 311.04 275.48 308.49 275.67 300.58 277.19 298.81 278.14 298.26 279.26 298.1 280.27 297.6 281.01 293.47 281.62 286.13 283.58 283.83 283.72 281.3 283.16 280.02 282.68 279.13 282.47 278.21 282.61 274.66 284.07 273.58 284.13 272.31 283.81 267.79 283.05 266.3 282.97 263.17 283.49 262.07 283.52 248.7 280.81 247.49 280.75 246.24 281.05 245.5 281.55 244.11 282.9 243.3 283.3 242.12 283.28 240.29 282.36 239.19 282.11 238.4 282.38 236.14 284.25 234.96 284.4 233.74 284.35 231.36 283.87 230.1 283.91 227.4 284.98 225.82 285.14 224.53 285.5 223.66 286.61 222.01 290.5 219.03 295.55 218.21 295.6 218.19 295.58 217.46 294.76 216.78 293.57 216.59 292.88 216.58 292.32 216.35 291.87 214.84 291.25 213.74 290.57 213.12 290.29 210.01 289.89 208.5 289.39 207.85 288.3 207.73 286.78 207.3 284.94 206.49 283.36 205.25 282.61 203.93 282.76 201.39 283.84 198.69 284.27 197.48 284.76 190.33 288.67 187.69 289.55 185.04 289.79 183.65 289.45 182.33 288.67 181.27 287.51 180.74 286.07 180.89 284.58 181.63 283.68 182.6 282.92 183.43 281.83 183.7 280.38 183.51 278.51 182.86 276.86 181.72 276.06 180.28 276.09 172.92 277.29 169.41 277.16 166.41 276.1 164.91 273.58 165.52 272.45 167.36 270.36 167.75 269.28 167.32 268.12 166.27 267.03 166.18 266.97 166.18 266.96 166.81 265.76 167.41 263.72 167.63 263.26 169.18 260.91 170.93 259.67 176.52 258.63 177.82 258.02 178.69 257.36 179.42 256.47 180.01 256.12 180.92 255.87 182.21 255.85 183.21 256.01 183.76 256.36 184.21 257.31 184.75 257.74 185.78 258.18 186.89 258.51 197.52 260.19 198.64 260.58 199.1 260.87 199.66 261.13 201.22 262.05 202.19 262.36 203.73 262.64 204.8 262.69 205.88 262.57 206.44 262.76 207.83 263.49 208.59 263.53 209.34 263.4 210.9 262.91 212.06 262.68 214.33 262.5 218.85 263.09 221.42 262.76 223.06 262.2 225.37 261.67 226.44 261.31 227.26 260.9 229.17 259.57 232.63 258.37 236.21 257.47 238.76 256.45 239.39 256.11 239.85 255.81 240.13 255.45 240.51 254.64 241.45 253.7 239.8 251.39 238.24 249.93 237.3 249.21 236.91 248.53 236.47 246.99 235.99 246.56 235.25 246.44 234.57 246.68 233.27 247.38 232.55 247.42 231.37 246.96 229.81 245.1 228.72 243.38 228 242.52 227.18 242 226 241.4 225 241.11 223.13 240.77 222.37 240.49 222.09 240.07 222.03 239.54 222.16 238.97 222.48 238.24 222.9 237.64 223.1 236.97 223 236.22 222.32 235.09 222.11 234.39 222.14 233.79 222.53 233.33 222.69 232.84 222.62 232.09 222.22 231.57 221.54 231.07 219.21 230.23 219.08 229.87 219.36 229.56 220.92 228.49 221.39 227.68 221.3 226.57 220.79 225.83 219.76 225.21 216.76 224.22 216.06 223.73 215.88 223.26 216.23 222.93 216.94 222.62 217.43 222.17 217.62 221.48 217.16 220.69 217 220.09 216.98 219.33 217.42 217.99 217.51 217.3 216.99 216.15 216.24 215.66 215.13 215.49 208.74 216.83 205.23 217.89 202.64 217.99 202.61 217.99 202.08 217.73 199.99 216.98 198.63 216.22 198.11 215.14 198.11 215.14 198.52 214.11 204.77 211.68 206.69 210.23 207.73 208.2 208.17 206.86 208.83 206.11 213.65 204.08 214.87 203.83 218.17 203.7 218.72 203.68 220.04 203.8 220.7 204.21 220.72 204.22 220.43 204.95 219.38 205.21 218.15 205.3 217.31 205.49 216.97 206.15 216.96 206.16 217.88 206.39 221.15 206.28 222.22 206.58 226.49 208.49 228.45 209.05 230.16 208.78 231.63 207.24 232.41 205.41 232.48 203.72 232.47 203.71 232.03 202.88 231.72 202.28 231.71 202.28 228.58 200.54 227.94 199.89 227.94 199.88 227.93 199.08 228.41 197.9 228.42 196.6 228.41 196.59 226.86 194.6 226.86 194.6 227.11 193.4 229.25 192.67 231.66 194.28 234.05 196.41 236.14 197.2 238.93 197.48 244.02 200.15 246.9 200.02 248.01 199.34 248.7 198.46 249.04 197.43 249.14 196.36 249.7 195.15 251.02 195.16 253.68 196.09 255.79 195.35 256.63 190.53 258.36 188.51 260.89 187.68 266.1 186.67 272.31 183.7 279.1 181.79 282.53 180.31 284.74 178.09 284.36 176.63 284.35 176.63 283.76 176.53 283.78 176.51 285.03 175.66 287 174.12 291.25 172.67 292.23 172.09 292.86 171.53 293.06 171.08 293.13 170.63 293.1 170.23 292.93 169.78 292.73 169.39 292.57 169 292.55 168.64 292.79 167.81 292.85 167.36 292.66 166.32 292.65 165.7 292.94 164.89 293.47 164.32 294.1 163.82 297.9 161.7 298.34 161.55 298.73 161.53 299.13 161.68 299.5 161.98 299.83 162.36 300.29 163.02 300.47 163.2 300.72 163.29 301.21 163.31 301.72 163.22 302.34 163.01 302.98 161.98 303.48 161.32 304.03 160.92 304.91 160.47 305.42 160.01 306.77 158.32 307.2 157.92 307.47 157.74 307.93 157.87 308.3 157.93 310.72 157.87 316.87 158.25 317.66 158.19 318.7 157.95 319.1 157.78 319.33 157.47 319.33 157.23 319.26 156.9 319.1 156.61 318.94 156.24 318.84 155.83 319.12 155.21 319.41 154.98 319.89 154.83 322.06 154.5 322.46 154.54 322.71 154.72 323.26 155.35 324.19 156.25 324.4 156.48 324.54 156.74 324.61 157.09 324.48 157.49 324.11 157.98 317.99 162.38 317.11 163.14 316.79 163.53 316.65 163.85 316.73 164.1 317.09 164.25 318.92 164.36 319.25 164.51 319.44 164.8 319.55 165.18 319.59 165.62 319.7 166.05 319.97 166.33 320.48 166.51 321.76 166.66 322.23 166.77 322.6 166.95 323.47 167.51 324.07 167.81 325.03 168.03 325.47 167.98 325.74 167.79 325.82 167.5 325.83 167.13 325.7 166.15 325.68 165.6 325.8 165.04 326.07 164.47 326.69 163.83 327.53 163.21 330.28 161.78 330.74 161.44 334.6 156.61 335.78 155.57 336.94 155.44 337.68 155.69 338.05 155.93 338.11 156.31 337.9 157.27 338.03 157.95 338.47 158.36 339.99 159.24 340.29 159.74 340.36 160.45 340.28 161.38 340.43 162.47 340.73 163.01 341.1 163.35 349.35 166.64 Z" id="KGZ-1122" data-name="Osh"/>
</g>
</svg>