<?xml version="1.0"?>
<svg xmlns="http://www.w3.org/2000/svg" version="1.2" baseProfile="tiny" width="800" height="447" viewBox="0 0 800 447" stroke-linecap="round" stroke-linejoin="round">
<g id="ne_10m_admin_1_states_provinces">
<path d="M 642.75 163.39 642.67 165.38 643.76 171.2 643.89 173.29 643.63 174.93 640.45 182.05 639.65 185.08 640.22 187.98 642.62 191.27 646.94 194.58 647.88 196 648.79 199.5 649.43 201.13 650.57 202.45 656.62 206.08 659.99 208.99 661.45 209.77 662.49 211.49 662.79 213.2 662.27 214.75 660.8 216 658.59 216.57 653.69 216.59 651.37 217.44 649.92 218.62 648.49 220.25 647.66 222.09 647.96 223.93 649.19 225.45 652.16 228.05 653.28 229.5 653.6 231.47 652.95 235.95 653.33 237.53 656.99 242.33 657.69 243.8 658.66 248.05 659.56 249.65 661.5 251.31 663.25 252.19 666.94 253.33 668.71 254.12 671.79 256.36 673.38 257.12 683.18 257.37 684.87 257.04 686.22 255.35 685.41 253.75 684.11 252.06 684.03 250.1 684.81 249.59 688.84 248.51 689.56 247.86 689.7 247.01 689.68 246.1 689.92 245.28 691.36 243.59 692.81 242.86 694.55 242.88 700.84 244.61 702.82 244.87 705.1 244.82 712.21 242.88 714.33 243.11 728.86 248.71 746.15 253.91 748.01 255.15 749.57 256.59 751.28 257.7 753.59 257.95 755.94 257.79 757.8 258.11 759.44 259.06 761.05 260.76 761.05 260.76 761.06 260.77 761.06 260.78 761.98 261.9 762.72 262.43 764.52 263.24 765.2 263.86 765.5 264.72 765.64 265.68 766.37 268.59 766.35 270.58 765.75 272.45 764.57 274.1 760.25 277.93 759.28 279.57 758.9 281.42 758.92 291.14 760.9 302.85 762.86 305.73 770.05 308.95 771.32 311.77 770.91 318.21 771.15 320.93 771.11 321.6 771.44 322.15 772.59 322.7 773.45 323.32 773.24 324.04 771.5 326.25 770.76 326.57 770.34 327.09 770.63 328.45 771.15 329.22 771.89 329.77 777.08 332.04 778.32 333.05 778.7 334.89 778.35 335.84 777.6 336.9 775.99 338.62 775.31 339.57 774.99 340.5 774.8 341.4 774.46 342.25 773.17 343.79 771.75 345.08 770.63 346.52 770.23 348.46 771.23 352.05 773.59 354.96 776.67 357.22 785.91 361.52 787.71 362.8 792.86 368.23 795.77 370.49 799 372.31 794.01 373.62 791.62 374.58 790.37 376.33 790.12 380.11 789.24 381.34 779.75 384.18 777.31 384.49 775.41 385.38 774.47 387.15 773.34 388.8 771.27 389.61 768.24 388.23 763.57 381.87 760.68 379.4 747.6 372.99 744.65 374.31 734.29 374.85 733.4 374.87 732.54 374.7 728.86 373.8 726.63 373.03 724.7 373.16 722.91 373.48 719.96 373.05 718.81 373.01 717.79 372.75 716.31 370.75 715.31 370.23 714.15 370.3 712.96 370.96 712.43 369.63 711.23 372.36 708.74 372.63 705.77 372 703.07 372.04 701.42 373.41 701.25 376.9 699.37 378.66 696.88 379.51 685.55 381.33 677.85 383.57 675.7 383.93 669.95 386.1 665.58 386.5 663.52 386.99 659.64 389.87 658.18 390.14 656.62 389.83 654.33 389.67 653.31 389.96 651.66 390.99 650.56 391.05 649.86 390.62 648.4 389.02 647.63 388.45 645.53 388.32 641.22 389.4 639.58 388.61 639.14 386.48 640.43 384.48 642.58 382.99 644.72 382.37 648.64 382.05 650.13 381.46 651.89 380.29 653.61 378.67 654.28 377.19 654.3 372.9 654.42 372.06 655.07 369.48 651.44 369.13 647.02 369.21 639.93 367.71 627.71 364.12 623.15 364.22 616.81 367.02 615.12 366.62 613.4 365.8 610.98 365.54 608.43 365.75 606.37 366.31 604.75 367.27 599.78 371.53 598.67 371.95 596.47 371.28 595.57 371.53 591.68 373.97 590.08 375.53 588.33 378.51 587.15 379.92 585.09 381.04 577.75 381.63 570.47 385.15 568.23 387.29 565.7 388 560.91 388.73 556.85 390.72 553.81 394.06 549.06 401.97 544.81 407.31 544.18 409.28 543.28 410.25 528.07 412.06 524.63 413.44 517.59 412.41 513 413.16 502.68 416.52 498.65 418.74 497.64 419.66 496.16 421.45 495.24 422.23 491.77 423.83 489.1 426.17 459.5 443.88 455.52 445.22 450.51 445.98 445.56 445.98 440.77 445.12 436.49 443.3 433.05 440.4 431.68 438.63 430.55 436.7 429.78 434.61 429.09 429.91 428.07 427.86 422.28 420.33 421.39 418.49 421.07 416.27 421.07 412.09 420.72 410.89 418.95 408.69 418.34 407.6 418.13 406.35 418.34 400.2 419.14 396 419.73 394.46 420.44 393.54 420.07 391.08 423.84 385.94 423.92 383.09 424.53 381.81 424.81 379.67 424.62 375.37 423.85 371.45 424.16 369.99 425.31 367.71 426.3 363.62 424.87 355.38 425.31 350.92 425.68 350.34 426.92 348.99 427.41 348.13 427.69 347.1 428.17 343.95 429.33 340.78 429.5 339.77 429.27 338.66 428.34 336.49 428.17 335.53 429.01 333.7 432.78 331.77 434.37 329.96 434.77 328.12 434.86 325.7 434.69 323.47 434.37 322.24 435.13 321.53 432.03 318.5 428.94 316.83 425.28 316.65 412.83 320.04 410.98 321.16 408.95 322.05 406.77 321.3 402.9 318.81 401.81 318.69 401.03 318.88 400.5 318.66 400.12 317.36 400.24 316.27 401.28 313.96 401.96 311.37 405 306.84 406.39 302.66 408.28 299.77 408.93 296.78 410.78 292.38 411.34 290.06 410.69 285.53 408.26 282.53 404.77 280.69 396.36 277.92 390.06 272.78 386.12 270.49 383.27 269.34 382 269.11 380.77 269.14 379.98 269.43 379.23 269.47 378.17 268.79 377.51 267.94 376.65 266.07 376.05 265.27 375.02 264.37 373.96 263.65 372.8 263.12 371.5 262.83 369.12 262.9 368.38 263.62 368.71 265.94 367.64 266.98 365.19 266.51 360.98 264.92 359.79 265.08 359.21 265.51 358.82 265.98 358.13 266.25 357.22 266.21 355.57 265.76 354.65 265.62 351.42 265.61 349.77 265.91 349.07 266.63 347.8 268.37 341.83 268.86 339.95 269.8 339.95 270.49 341.98 271.71 341.16 272.91 337.55 275.02 336.61 275.44 334.28 275.33 333.34 275.75 332.9 276.66 332.88 277.72 333 278.76 332.99 279.62 331.61 283.09 330.58 283.51 329.19 283.8 327.95 284.36 327 286.87 324 291.52 321.36 297.15 320.1 298.86 319.06 299.71 315.58 300.89 314.5 301.52 309.99 305.21 305.41 310.01 304.56 310.52 302.58 311.35 302.55 311.32 300.83 309.54 300.17 308.71 300.06 307.54 301.16 305.4 305.44 299.42 306.7 296.48 306.94 295.25 306.97 289.56 306.74 286.62 306.44 285.01 306.42 284.27 306.53 283.37 307.31 280.94 308.51 278.57 308.7 277.78 308.75 276.79 308.36 275.06 307.99 274.16 307.61 273.49 306.86 272.71 306.63 271.92 306.63 270.73 307.01 268.49 308.4 266.06 315.38 261.38 316.57 260.04 316.92 258.55 321.92 255.12 323.03 254.15 323.63 253.2 324.06 251.92 324.85 250.69 326.29 249.54 329.61 247.41 330.77 246.4 332.67 244.02 332.83 242.68 332.37 241.47 331.25 240.38 328.19 238.58 327.73 237.98 328.11 237.57 330.81 236.72 332.59 235.9 338.21 232.04 339.78 231.23 343.93 230.12 345.51 229.51 346.87 229.13 348.14 229.35 349.45 230.67 350.5 233.15 350.94 233.6 351.84 233.69 354.98 233.34 358.21 233.53 359.73 233.41 360.88 233.12 364.33 231.11 369.32 229.41 371.38 229.03 373.45 228.91 374.8 229.26 375.43 229.88 375.35 231.01 375.13 231.95 375.21 232.84 375.67 233.79 378.93 238.47 379.37 239.87 378.96 242.04 379.03 243.11 378.92 244.25 378.49 245.42 377.54 247.01 377.49 248.21 378.41 249.27 381.46 249.98 385.9 249.82 389.52 249.09 391.07 248.92 392.32 249.1 393.67 249.82 394.8 250.94 395.35 252.51 395.63 254.51 396.2 255.98 397.15 257.09 399.96 258.64 401.81 260.74 402.49 261.27 403.15 261.55 404.32 261.5 405.93 261.07 408.55 259.72 410.33 259 412.12 258.75 413.57 259.11 414.85 259.82 415.93 260.78 417.2 262.42 417.7 262.69 418.1 262.45 418.43 261.82 418.8 260.82 419.3 260.06 420.84 258.6 421.61 258.14 423.04 257.87 426.2 257.95 427.06 257.75 427.92 257.19 428.31 256.24 428.28 253.52 428.52 252.59 429.1 252.07 430.39 251.65 431.38 251.19 432.11 250.33 432.82 249.05 433.28 248.56 434.01 247.93 435.12 246.63 435.83 246.12 436.81 245.81 438.6 245.72 440.06 245.9 441.64 245.83 442.99 245.62 447.61 244.43 448.31 244.41 448.94 244.58 449.87 245.19 450.24 245.35 450.75 245.25 451.35 244.83 452.09 243.82 452.69 242.78 453.5 242.2 455.1 241.86 456.76 241.35 457.95 240.46 459.17 239.36 460.61 238.47 463.38 237.79 464.98 237.57 470.01 237.36 471.67 236.89 473.54 236.07 476.46 234.05 477.82 232.85 479.64 230.52 482.57 228.72 479.61 226.18 478.54 224.68 477.29 222.29 476.93 220.9 477.02 219.48 477.42 218.46 477.77 216.26 478.92 213.55 482.08 210.7 487.87 206.33 488.69 205.22 488.96 204.32 488.76 203.51 488.65 202.34 488.9 201.17 489.55 200.37 490.63 199.68 493.05 198.62 496.53 197.55 497.94 196.89 498.67 196.06 499.03 195.09 499.11 192.12 499.5 189.8 499.53 189.83 500.69 189.76 504.88 182.63 507.21 177.14 508.45 175.59 510.26 175.07 512.49 174.84 516.29 173.34 518.08 173.29 521.43 173.96 523.15 174.02 524.81 173.82 528.01 171.18 529.13 170.8 530.67 171.15 533.25 172.45 534.92 172.47 536.07 171.91 538.02 170.01 539.06 169.3 540.83 168.88 542.54 168.96 561.39 172.79 562.94 172.74 567.35 172.01 569.46 172.13 575.83 173.2 577.62 173.65 579.15 173.57 584.16 171.5 585.46 171.31 586.71 171.6 588.5 172.28 592.08 173.07 595.33 172.88 605.68 170.1 611.5 169.25 612.21 168.21 612.43 166.78 613.21 165.19 615.71 163.85 626.86 161.71 630.46 161.44 639.86 162.24 642.75 163.39 Z" id="TJK-366" data-name="Gorno-Badakhshan"/>
<path d="M 316.92 258.55 316.57 260.04 315.38 261.38 308.4 266.06 307.01 268.49 306.63 270.73 306.63 271.92 306.86 272.71 307.61 273.49 307.99 274.16 308.36 275.06 308.75 276.79 308.7 277.78 308.51 278.57 307.31 280.94 306.53 283.37 306.42 284.27 306.44 285.01 306.74 286.62 306.97 289.56 306.94 295.25 306.7 296.48 305.44 299.42 301.16 305.4 300.06 307.54 300.17 308.71 300.83 309.54 302.55 311.32 302.58 311.35 302.09 311.56 301.57 312.1 301.07 313.01 299.94 313.39 298.74 313.56 298.03 313.88 297.67 314.82 297.64 315.69 298 316.53 298.8 317.36 296.41 318.06 294.02 318.38 291.73 318.01 289.68 316.66 288.49 319.26 288.97 322.39 290.4 325.36 292.12 327.49 293.29 327.93 296.64 328.75 297.34 329.61 297.61 331.07 298.29 332.4 299.21 333.48 300.19 334.2 299.62 335.38 299.85 336.8 300.88 339.77 301 341.28 300.74 342.17 300.38 342.99 300.19 344.27 298.91 345.76 298.41 346.04 297.99 346.4 298.02 347.22 298.16 348.15 298.03 348.83 297.45 349.59 297.23 349.8 296.7 350.22 296.37 350.12 294.4 350.19 294.2 350.22 292.72 353.2 292.46 354.09 291.78 354.42 288.23 357.95 285.29 358.88 282.23 358.44 279.18 357.56 276.37 357.19 277.02 357.95 273.84 357.48 272.89 357.19 272.55 356.93 271.96 356.5 271.57 355.82 271.05 355.31 269.73 355.1 267.57 354.47 266.46 353.02 265.51 351.39 263.83 350.22 261.43 350.12 257.15 351.85 255.07 352.31 254.06 352.69 253.01 353.42 251.94 353.86 250.88 353.39 250.13 352.95 247.86 352.4 247.05 352.31 244.53 352.57 240.21 354.05 237.94 354.4 224.03 353.4 221.99 354.12 220.23 358.4 218.02 360.12 213.49 362.76 213.12 363.25 212.49 364.47 212.1 364.98 211.31 365.56 209.85 366.38 209.32 366.94 208.7 368.56 208.49 370.45 208.56 374.35 208.75 374.71 209.71 374.92 210 375.37 209.97 375.92 209.73 376.07 209.46 376.14 209.32 376.44 209.36 377.39 209.52 378.34 209.82 379.22 210.35 379.92 211.22 381.44 211.89 384.95 212.73 385.88 211.91 388.12 213.64 388.76 215.51 389.07 215.2 390.37 211.69 395.08 210 396.39 205.89 398.48 204.25 400.02 203.14 400.84 201.93 401.2 201.58 401.26 199.23 401.67 197.21 402.43 195.16 402.59 185.5 397.37 184.96 397.17 182.7 395.92 181.75 395.08 179.93 391.45 178.09 390.21 175.76 389 173.74 387.52 172.24 383.81 170.65 382.02 168.58 380.5 166.56 379.61 159.6 378.91 159.24 378.79 158.65 378.69 158.37 379.03 158.9 380.24 159.56 380.9 161.21 381.89 161.69 382.33 162.05 383.81 161.5 384.72 160.37 384.96 158.9 384.42 157.54 382.98 156.63 381.34 155.48 380.04 153.34 379.61 151.09 380.19 150.73 381.35 151.93 384.42 152.2 386.6 151.76 387.59 150.55 387.51 146.76 385.57 145.56 385.11 144.23 385.01 142.13 385.18 138.15 384.72 136.31 384.79 135.15 385.88 135.67 386.28 135.96 386.72 136.55 387.97 134.24 388.26 132.99 389.73 132.42 391.37 132.02 392.14 130.18 392.37 126.36 393.32 124.33 393.54 123.83 393.98 122.42 395.95 121.51 396.39 120.44 396.46 115.59 397.34 109.25 397.72 110.71 400.1 110.04 401.62 108.05 402.43 105.39 402.66 103.37 402.28 101.39 401.66 99.41 401.53 97.48 402.66 96.71 404.35 96.79 406.41 97.48 410.7 96.4 412.16 93.95 412.15 89.75 411.02 87.08 411.32 85.2 412.57 83.57 413.92 81.67 414.56 80.42 415.2 73.67 419.86 72.63 420.41 71.4 420.82 70.6 420.79 70.13 420.77 69.2 420.24 68.68 419.44 68.27 418.55 67.67 417.7 64.17 414.21 63.26 413.57 60.85 412.55 59.74 411.78 58.12 409.68 57.04 407.88 55.63 406.61 51.01 405.73 48.48 404.7 46.16 403.34 44.91 401.97 44.8 400.44 45.67 393.92 46.14 392.42 48.06 389.37 49.23 385.91 49.76 382.24 49.41 377.95 47.39 369.88 47.78 365.6 50.64 359.32 54.99 353.32 60.25 348.01 65.75 343.84 73.18 335.61 76.19 330.93 80.53 320.51 82.34 319.05 85.52 318.19 90.28 317.68 91.84 317.3 92.35 317.01 92.39 317.04 95.14 318.73 96.18 319.66 97.63 320.69 100.16 320.88 107.96 319.89 109.85 319.51 110.27 319.76 110.69 320.1 110.95 320.56 111.28 320.93 111.85 321.1 112.45 321.04 114.4 320.65 115.06 320.33 115.6 319.69 117.23 314.98 118.24 312.9 119.59 311.42 122.77 310.26 123.26 309.9 123.53 309.18 123.78 307.26 123.85 304.93 124.22 303.08 124.1 302.58 123.56 302.28 122.01 301.89 121.35 301.64 120.98 301.25 121 300.73 121.19 300.2 122.8 297.55 127.13 292 127.44 291.34 127.66 290.73 127.89 289.51 127.93 288.31 127.78 286.62 127.55 285.58 126.24 282.13 126.19 281.62 126.41 281.06 126.81 280.52 128.36 278.99 130.23 277.68 130.98 277.51 131.96 277.52 135.68 278.38 139.16 278.85 139.93 278.86 140.9 278.73 142.26 278.18 143.04 277.74 143.61 277.26 144.78 275.92 145.24 275.56 145.87 275.34 146.63 275.2 147.65 275.13 148.56 275.37 149.23 275.66 150.86 277.72 151.93 277.82 155.77 277.06 156.48 276.84 157.19 276.48 157.98 275.67 158.46 275.02 159.76 272.85 160.15 272.41 160.58 272.03 162.64 271.07 169.51 269.09 183.44 268.44 188.16 266.69 188.57 266.62 189.19 266.64 189.95 266.76 190.74 267.01 191.56 267.45 192.1 267.87 192.54 268.3 193.18 269.08 193.45 269.58 193.56 269.86 193.94 271.75 202.26 271.98 203.23 272.34 204.24 272.85 204.26 273.38 204.04 273.85 203.69 274.28 202.69 275.02 202.3 275.53 202.15 276.17 202.71 277.3 203.31 277.79 204.24 278.08 205.35 278.05 207.2 278.17 208.23 277.98 208.99 277.69 210.08 276.99 211.39 275.79 213.44 274.32 215.24 272.73 215.89 271.85 216.3 271.43 216.85 271.08 217.31 270.69 218.25 269.39 218.76 269.02 220.69 268.16 221.07 267.92 221.91 267.2 222.28 266.8 224.71 265.46 227.41 264.2 231.95 260.85 232.93 259.6 242.25 248.73 242.86 248.33 243.52 248.11 244.96 248.21 245.65 248.35 246.25 248.59 246.72 248.92 247.43 249.73 247.72 250.17 248.07 250.57 248.7 250.86 249.62 250.93 251.41 250.49 252.34 250.08 253.02 249.62 256.76 244.3 262.89 239.23 263.85 238.57 264.39 238.31 269.19 236.92 270.78 236.3 272.13 236.19 274.03 236.62 275.49 237.27 276.37 237.98 277.13 238.77 280.74 241.55 282.01 243 284.32 244.88 286.95 246.02 288.48 246.7 289.21 248.27 289.13 249.57 288.55 251.89 288.17 254.32 288.45 255.2 288.85 255.46 289.31 255.15 292.22 252.4 294.97 250.28 295.5 249.99 296.28 249.76 297.34 249.62 302.13 249.73 308.17 249.26 308.83 249.49 309.34 249.81 309.6 250.14 310.17 250.64 314.31 253.12 314.75 253.48 315.1 253.89 315.37 254.33 315.81 255.29 316.32 256.99 316.92 258.55 Z" id="TJK-367" data-name="Khatlon"/>
<path d="M 426.14 149.45 426.27 149.53 427.75 151.06 428.36 152.7 427.81 154.23 425.22 157.18 424.35 158.77 426.47 162.32 430.7 163.82 435.65 164 446.03 162.3 448.06 162.26 449.67 163.39 450.59 165.72 450.85 168.36 450.47 170.41 449.3 171.94 447.93 173.02 446.89 174.29 446.68 176.39 447.44 178.42 448.92 180.05 450.79 181.15 452.75 181.63 456.48 181.3 460.21 180.05 470.29 174.54 472.01 173.85 475.81 173.23 479.39 171.72 481.25 171.5 483 172.56 484.14 174.79 484.75 177.38 484.92 179.53 485.84 181.07 487.96 181.78 492.36 182.34 493.22 182.73 494.78 183.69 496.91 184.56 497.23 185.2 497.24 185.99 497.51 186.96 498.47 188.64 499.5 189.8 499.11 192.12 499.03 195.09 498.67 196.06 497.94 196.89 496.53 197.55 493.05 198.62 490.63 199.68 489.55 200.37 488.9 201.17 488.65 202.34 488.76 203.51 488.96 204.32 488.69 205.22 487.87 206.33 482.08 210.7 478.92 213.55 477.77 216.26 477.42 218.46 477.02 219.48 476.93 220.9 477.29 222.29 478.54 224.68 479.61 226.18 482.57 228.72 479.64 230.52 477.82 232.85 476.46 234.05 473.54 236.07 471.67 236.89 470.01 237.36 464.98 237.57 463.38 237.79 460.61 238.47 459.17 239.36 457.95 240.46 456.76 241.35 455.1 241.86 453.5 242.2 452.69 242.78 452.09 243.82 451.35 244.83 450.75 245.25 450.24 245.35 449.87 245.19 448.94 244.58 448.31 244.41 447.61 244.43 442.99 245.62 441.64 245.83 440.06 245.9 438.6 245.72 436.81 245.81 435.83 246.12 435.12 246.63 434.01 247.93 433.28 248.56 432.82 249.05 432.11 250.33 431.38 251.19 430.39 251.65 429.1 252.07 428.52 252.59 428.28 253.52 428.31 256.24 427.92 257.19 427.06 257.75 426.2 257.95 423.04 257.87 421.61 258.14 420.84 258.6 419.3 260.06 418.8 260.82 418.43 261.82 418.1 262.45 417.7 262.69 417.2 262.42 415.93 260.78 414.85 259.82 413.57 259.11 412.12 258.75 410.33 259 408.55 259.72 405.93 261.07 404.32 261.5 403.15 261.55 402.49 261.27 401.81 260.74 399.96 258.64 397.15 257.09 396.2 255.98 395.63 254.51 395.35 252.51 394.8 250.94 393.67 249.82 392.32 249.1 391.07 248.92 389.52 249.09 385.9 249.82 381.46 249.98 378.41 249.27 377.49 248.21 377.54 247.01 378.49 245.42 378.92 244.25 379.03 243.11 378.96 242.04 379.37 239.87 378.93 238.47 375.67 233.79 375.21 232.84 375.13 231.95 375.35 231.01 375.43 229.88 374.8 229.26 373.45 228.91 371.38 229.03 369.32 229.41 364.33 231.11 360.88 233.12 359.73 233.41 358.21 233.53 354.98 233.34 351.84 233.69 350.94 233.6 350.5 233.15 349.45 230.67 348.14 229.35 346.87 229.13 345.51 229.51 343.93 230.12 339.78 231.23 338.21 232.04 332.59 235.9 330.81 236.72 328.11 237.57 327.73 237.98 328.19 238.58 331.25 240.38 332.37 241.47 332.83 242.68 332.67 244.02 330.77 246.4 329.61 247.41 326.29 249.54 324.85 250.69 324.06 251.92 323.63 253.2 323.03 254.15 321.92 255.12 316.92 258.55 316.32 256.99 315.81 255.29 315.37 254.33 315.1 253.89 314.75 253.48 314.31 253.12 310.17 250.64 309.6 250.14 309.34 249.81 308.83 249.49 308.17 249.26 302.13 249.73 297.34 249.62 296.28 249.76 295.5 249.99 294.97 250.28 292.22 252.4 289.31 255.15 288.85 255.46 288.45 255.2 288.17 254.32 288.55 251.89 289.13 249.57 289.21 248.27 288.48 246.7 286.95 246.02 284.32 244.88 282.01 243 280.74 241.55 277.13 238.77 276.37 237.98 275.49 237.27 274.03 236.62 272.13 236.19 270.78 236.3 269.19 236.92 264.39 238.31 263.85 238.57 262.89 239.23 256.76 244.3 253.02 249.62 252.34 250.08 251.41 250.49 249.62 250.93 248.7 250.86 248.07 250.57 247.72 250.17 247.43 249.73 246.72 248.92 246.25 248.59 245.65 248.35 244.96 248.21 243.52 248.11 242.86 248.33 242.25 248.73 232.93 259.6 231.95 260.85 227.41 264.2 224.71 265.46 222.28 266.8 221.91 267.2 221.07 267.92 220.69 268.16 218.76 269.02 218.25 269.39 217.31 270.69 216.85 271.08 216.3 271.43 215.89 271.85 215.24 272.73 213.44 274.32 211.39 275.79 210.08 276.99 208.99 277.69 208.23 277.98 207.2 278.17 205.35 278.05 204.24 278.08 203.31 277.79 202.71 277.3 202.15 276.17 202.3 275.53 202.69 275.02 203.69 274.28 204.04 273.85 204.26 273.38 204.24 272.85 203.23 272.34 202.26 271.98 193.94 271.75 193.56 269.86 193.45 269.58 193.18 269.08 192.54 268.3 192.1 267.87 191.56 267.45 190.74 267.01 189.95 266.76 189.19 266.64 188.57 266.62 188.16 266.69 183.44 268.44 169.51 269.09 162.64 271.07 160.58 272.03 160.15 272.41 159.76 272.85 158.46 275.02 157.98 275.67 157.19 276.48 156.48 276.84 155.77 277.06 151.93 277.82 150.86 277.72 149.23 275.66 148.56 275.37 147.65 275.13 146.63 275.2 145.87 275.34 145.24 275.56 144.78 275.92 143.61 277.26 143.04 277.74 142.26 278.18 140.9 278.73 139.93 278.86 139.16 278.85 135.68 278.38 131.96 277.52 130.98 277.51 130.23 277.68 128.36 278.99 126.81 280.52 126.41 281.06 126.19 281.62 126.24 282.13 127.55 285.58 127.78 286.62 127.93 288.31 127.89 289.51 127.66 290.73 127.44 291.34 127.13 292 122.8 297.55 121.19 300.2 121 300.73 120.98 301.25 121.35 301.64 122.01 301.89 123.56 302.28 124.1 302.58 124.22 303.08 123.85 304.93 123.78 307.26 123.53 309.18 123.26 309.9 122.77 310.26 119.59 311.42 118.24 312.9 117.23 314.98 115.6 319.69 115.06 320.33 114.4 320.65 112.45 321.04 111.85 321.1 111.28 320.93 110.95 320.56 110.69 320.1 110.27 319.76 109.85 319.51 107.96 319.89 100.16 320.88 97.63 320.69 96.18 319.66 95.14 318.73 92.39 317.04 92.35 317.01 93.44 316.37 94.21 315.08 94.67 313.53 95.43 311.79 95.44 311.78 95.46 311.77 95.46 311.76 95.47 311.75 96.69 309.81 100.66 305.02 103.2 299.38 104.86 293.4 104.41 289.47 101.94 286.37 93.84 280.68 88.55 278.34 86.81 276.93 83.03 271.5 79.04 268.49 78.07 267.04 77.72 265.56 77.51 262.31 76.93 260.76 74.45 257.79 73.69 256.44 73.42 254.2 73.76 248.34 73.54 246.28 72.18 242.46 71.9 240.59 72.7 239.06 75.28 237.63 75.81 237 75.88 235.85 75.43 234.91 74.83 234.01 74.52 232.98 74.87 230.77 76.01 230.21 77.82 230.26 80.21 229.88 81.94 229.08 83.5 228 84.76 226.62 85.67 224.92 85.79 222.67 84.77 220.61 83.71 219.4 83.73 219.39 86.47 218.84 91.51 218.72 93.37 218.32 99.06 216.5 100.7 216.21 102 216.16 102.75 216.34 104.76 217.12 105.59 217.34 106.26 217.27 107.2 216.98 107.86 216.7 111.55 215.56 114.46 215.66 116.5 215.25 120.08 214.13 121.19 213.16 122.66 210.89 125.89 209.13 125.92 209.08 126.13 208.67 127 205.92 127.59 204.69 128.27 204.23 129.04 204.05 135.99 204.35 145.68 201.43 147.09 201.24 147.59 201.54 147.92 201.96 148.18 202.41 148.9 202.78 150.1 202.99 156.32 202.62 162.04 203.01 168.48 204.31 169.1 204.59 170.6 204.89 171.03 205.05 173.53 205.52 176.78 206.03 179.89 204.94 180.6 204.45 181.02 204.05 182.38 203.24 189.82 200.03 192.19 199.25 193.91 198.86 203.77 199.13 205.48 199.02 206.22 198.62 206.62 198.08 206.86 194.38 206.98 193.72 207.35 192.94 207.95 192.16 209.29 191.21 210.26 190.86 211.2 190.74 212 190.79 219.68 190 220.77 190.02 221.15 190.18 224.76 192.77 225.47 193.59 225.95 194.51 226.23 195.56 226.31 196.7 226.17 197.95 225.57 199.79 225.47 200.38 225.62 200.92 225.95 201.35 226.53 201.76 227.12 201.78 227.63 201.56 228.09 201.21 228.89 200.4 229.91 199.85 231.39 199.28 234.88 198.47 236.07 197.94 236.57 197.4 236.38 196.93 236.25 196.4 236.19 195.97 236.24 195.23 238.56 193.67 239.01 193.22 239.6 192.48 239.95 191.74 240.37 190.6 240.88 186.43 240.69 185.63 240.36 185.04 239.06 184 238.5 183.42 238.09 182.44 245.22 179.2 246.18 179.08 247.31 179.04 248.13 180.38 248.81 181.21 249.43 181.6 250.22 181.95 251.66 182.27 252.55 182.24 253.27 182.08 254.41 181.65 255.46 181.11 256.41 180.44 257.55 179.18 258.58 177.7 259.1 177.16 259.97 176.56 260.81 176.38 271.1 175.27 272.13 175.36 272.52 176.2 272.88 176.71 273.72 177.18 274.36 177.18 274.92 176.97 275.33 176.56 276.15 175.96 277.4 175.33 280.22 174.46 281.76 174.26 282.91 174.31 283.45 174.63 283.78 175.05 283.91 175.57 283.94 176.78 284.02 177.35 284.35 177.84 284.82 177.84 285.3 177.64 287.33 176.45 298.16 172.38 298.65 172.06 299.01 171.62 299.76 170.36 300.55 169.6 301.27 169.3 302.02 169.19 302.69 169.31 303.21 169.58 304.1 170.29 304.59 170.59 305.6 170.75 309.73 170.61 320.34 168.18 321.6 168.12 322.22 167.75 322.68 167.3 323.31 166.06 323.61 165.65 324.15 165.45 329.74 164.84 331.12 164.51 332.01 164.08 332.36 163.6 332.89 162.45 333.24 161.96 333.68 161.58 335.31 160.85 339 158.67 339.01 158.66 339.04 158.75 339.05 158.76 339.05 158.77 340.14 159.46 342.53 160.24 343.51 160.96 344.09 162.35 343.85 163.76 343.4 165.12 343.34 166.38 344.89 168.48 347.59 169.73 350.69 170.15 353.5 169.82 356.6 168.47 357.83 168.18 359.38 168.15 360.29 168.26 361.11 168.02 362.36 166.91 364.28 166.2 366.51 167 369.02 168.25 371.81 168.84 375.09 167.54 376.96 164.73 378.46 161.4 380.57 158.57 383.93 156.86 388.17 155.96 392.51 155.77 398.32 156.64 399.58 156.65 400.68 156.01 403.93 153.12 405.36 152.29 408.89 150.8 409.64 150.34 411.04 149.19 411.75 148.79 412.74 148.51 415.64 148.11 419.17 146.83 421.03 146.68 424.45 148.3 426.14 149.45 Z M 139.03 255.65 141.36 254.87 142 256.06 141.32 257.25 142.37 258.48 142.23 259.99 142.51 262.23 144.38 263.28 146.34 263.19 148.26 262.82 148.44 261.77 148.21 260.08 151.05 258.07 154.06 257.11 154.7 255.79 155.93 254.33 154.15 254.01 153.56 252.68 151.78 252.36 150.73 251.91 150.86 250.72 149.77 250.76 149.4 249.16 148.72 247.7 147.67 246.24 146.94 244.69 146.07 244 145.7 244.78 145.52 246.2 145.93 248.07 145.38 249.26 142.69 250.31 140.45 250.85 140.08 251.77 141.04 253.6 138.39 255.06 139.03 255.65 Z" fill-rule="evenodd" id="TJK-368" data-name="Tadzhikistan Territories"/>
<path d="M 335.37 122.34 338.95 122.43 342.17 121.3 343.43 121.55 344.19 123.43 344.03 125.26 342.98 126 339.62 126.51 336.7 127.67 331.46 130.92 330.87 130.56 327.96 126.73 326.95 125.75 323.49 123.89 322.13 122.39 321.36 120.7 321.47 119.12 323 119.15 335.37 122.34 Z M 337.76 9.95 337.93 11.69 335.91 11.33 334.19 10.08 331.21 7.03 329.51 5.71 329.4 5.63 328.21 3.53 329.86 3.2 332.67 4.12 335.03 5.74 336.45 7.49 337.76 9.95 Z M 349.28 36.14 349.27 36.18 347.69 36.94 347.33 37.36 347.16 37.84 346.81 38.24 345.14 38.53 344.28 38.85 342.82 39.73 341.29 40.8 335.09 44.67 331.51 48.06 330.2 48.91 328.66 49.46 327.16 49.78 325.73 50.27 324.35 51.32 321.89 54.5 320.87 55.53 319.89 55.84 312.86 57.09 309.83 58.59 308.22 60.57 308.38 62.71 308.54 63.19 308.72 63.47 310.07 64.97 310.01 64.93 310.23 65.09 311.11 65.89 311.39 66.33 310.01 69.87 315.09 71.6 317.23 72.08 319.47 71.92 321.39 71.47 323.33 71.31 325.59 72.04 328.3 75.43 329.66 80.15 331.48 84.48 335.59 86.75 339.89 86.96 344.27 86.68 358.81 83.25 367.85 82.63 369.96 82.79 372.06 85.26 370.36 87.75 366.93 89.7 363.79 90.51 358.35 89.58 356.99 89.95 356.28 90.42 354.43 91.17 354.36 91.02 354.01 90.77 353.51 90.58 352.94 90.64 352.59 90.88 351.96 91.54 347.97 94.14 346.58 94.79 340.06 96.48 337.36 98.44 336.88 101.05 337.01 104.2 336.13 107.73 334.76 109.58 332.99 110.99 330.95 111.98 328.75 112.59 324.41 112.7 323.22 113.17 322.54 114.08 321.7 116.33 320.81 117.21 318.6 116.61 317.83 115.27 318.12 113.49 319.07 111.58 320.4 110.15 321.96 109.3 323.65 108.63 325.27 107.75 326.77 105.48 325.73 103.67 323.35 102.41 320.81 101.8 312.69 100.86 308.8 99.55 305.2 99.2 303.37 98.46 301.73 97.09 300.46 95.67 299 94.43 296.76 93.56 294.41 93.42 289.34 93.67 287.13 93.13 272.59 85.81 269.01 85.52 228.8 96.54 227.11 96.73 225.49 96.59 224.84 96.1 223.76 94.54 222.94 94.34 222.48 94.79 222.05 96.55 221.75 97.22 219.65 99.58 218.01 101.9 217.34 104.51 218.17 107.75 218.57 108.36 218.79 108.98 218.87 109.65 218.79 110.36 221.15 113.67 221.27 115.02 211.45 117.7 206.54 111.24 203.54 108.66 202.13 108.44 201.75 108.66 201.73 109.28 201.28 110.31 199.32 113.66 194.65 124.56 193.51 128.48 193.18 132.51 193.9 134.38 195.43 135.74 197.22 136.92 198.67 138.3 199.43 139.98 199.8 141.91 199.29 154.07 200.73 156.53 204.75 155.25 205.38 154.51 205.64 153.72 206.01 153.06 206.99 152.72 207.56 153.02 210.03 155.01 212.14 155.57 216.54 155.01 218.79 155.02 220.71 154.8 222.57 154.28 224.31 153.46 227.73 151.17 229.5 150.62 238.39 150.18 242.57 150.56 246.59 151.61 250.85 153.49 254.82 154.42 262.71 153.17 266.88 153.52 269.95 154.61 270.8 154.08 272.4 152.32 274.13 151.12 276.24 150.61 278.47 150.63 280.56 151 283.98 152.54 285.63 153.01 287.32 152.58 288.17 151.6 291.01 146.86 292.59 145.93 293.57 146.92 294.04 148.82 294.06 150.56 292.97 154.23 293.14 155.66 294.9 156.17 296.71 155.83 305.81 150.66 307.13 150.28 308.18 150.37 310.31 150.87 311.33 150.89 311.95 150.57 312.46 150.01 313.08 149.47 314.06 149.2 315.75 148.93 319.05 147.96 320.81 147.79 322.21 148.24 324.51 149.8 325.8 150.4 327.58 150.54 331.32 150 333.11 150.18 335.59 151.64 337.01 153.78 339.01 158.66 339 158.67 335.31 160.85 333.68 161.58 333.24 161.96 332.89 162.45 332.36 163.6 332.01 164.08 331.12 164.51 329.74 164.84 324.15 165.45 323.61 165.65 323.31 166.06 322.68 167.3 322.22 167.75 321.6 168.12 320.34 168.18 309.73 170.61 305.6 170.75 304.59 170.59 304.1 170.29 303.21 169.58 302.69 169.31 302.02 169.19 301.27 169.3 300.55 169.6 299.76 170.36 299.01 171.62 298.65 172.06 298.16 172.38 287.33 176.45 285.3 177.64 284.82 177.84 284.35 177.84 284.02 177.35 283.94 176.78 283.91 175.57 283.78 175.05 283.45 174.63 282.91 174.31 281.76 174.26 280.22 174.46 277.4 175.33 276.15 175.96 275.33 176.56 274.92 176.97 274.36 177.18 273.72 177.18 272.88 176.71 272.52 176.2 272.13 175.36 271.1 175.27 260.81 176.38 259.97 176.56 259.1 177.16 258.58 177.7 257.55 179.18 256.41 180.44 255.46 181.11 254.41 181.65 253.27 182.08 252.55 182.24 251.66 182.27 250.22 181.95 249.43 181.6 248.81 181.21 248.13 180.38 247.31 179.04 246.18 179.08 245.22 179.2 238.09 182.44 238.5 183.42 239.06 184 240.36 185.04 240.69 185.63 240.88 186.43 240.37 190.6 239.95 191.74 239.6 192.48 239.01 193.22 238.56 193.67 236.24 195.23 236.19 195.97 236.25 196.4 236.38 196.93 236.57 197.4 236.07 197.94 234.88 198.47 231.39 199.28 229.91 199.85 228.89 200.4 228.09 201.21 227.63 201.56 227.12 201.78 226.53 201.76 225.95 201.35 225.62 200.92 225.47 200.38 225.57 199.79 226.17 197.95 226.31 196.7 226.23 195.56 225.95 194.51 225.47 193.59 224.76 192.77 221.15 190.18 220.77 190.02 219.68 190 212 190.79 211.2 190.74 210.26 190.86 209.29 191.21 207.95 192.16 207.35 192.94 206.98 193.72 206.86 194.38 206.62 198.08 206.22 198.62 205.48 199.02 203.77 199.13 193.91 198.86 192.19 199.25 189.82 200.03 182.38 203.24 181.02 204.05 180.6 204.45 179.89 204.94 176.78 206.03 173.53 205.52 171.03 205.05 170.6 204.89 169.1 204.59 168.48 204.31 162.04 203.01 156.32 202.62 150.1 202.99 148.9 202.78 148.18 202.41 147.92 201.96 147.59 201.54 147.09 201.24 145.68 201.43 135.99 204.35 129.04 204.05 128.27 204.23 127.59 204.69 127 205.92 126.13 208.67 125.92 209.08 125.89 209.13 122.66 210.89 121.19 213.16 120.08 214.13 116.5 215.25 114.46 215.66 111.55 215.56 107.86 216.7 107.2 216.98 106.26 217.27 105.59 217.34 104.76 217.12 102.75 216.34 102 216.16 100.7 216.21 99.06 216.5 93.37 218.32 91.51 218.72 86.47 218.84 83.73 219.39 83.71 219.4 81.8 217.2 78.36 211.25 76.8 209.77 76.78 209.77 76.76 209.75 76.74 209.75 75.95 209.59 75.11 209.53 74.28 209.59 73.48 209.75 71.78 210.73 70.08 211.21 68.41 210.96 66.84 209.77 66.04 209.4 64.32 208.94 62.85 208.93 61.42 209.23 60.06 209.76 60.03 209.76 60.03 209.77 60.02 209.77 60.02 209.77 52.27 211.81 49.53 211.85 36.49 210.19 34.73 208.83 34.62 208.75 34.62 208.73 34.11 206.24 35.27 198.33 35.08 196.93 35.07 196.91 34.15 195.69 33.49 195.53 31.8 195.81 31.1 195.71 30.53 195.24 29.72 194.1 29.28 193.7 25.25 192.44 16.95 192.2 4.62 188.78 1.75 186.7 1.75 186.68 1 182.65 1.17 181.2 1.38 180.48 1.87 180.03 2.63 179.5 2.83 179.37 3.92 179.09 4.83 179.31 5.51 179.12 6.28 175.73 7.57 172.3 7.68 168.54 8.36 164.43 9.63 160.51 10.57 159.58 12.12 159.43 14.75 159.71 15.25 159.62 15.73 159.43 16.15 159.13 16.5 158.77 16.5 158.76 15.79 154.24 17.81 152.72 25.96 151.73 35.46 146.48 39.25 145.53 44.04 145.61 78.9 152.6 94.17 152.96 102.5 155.27 107.51 155.55 112.57 155.18 118.84 153.89 120.86 153.18 120.84 153.14 120.11 151.85 119.76 151.23 121.14 149.7 125.5 147.55 127.95 145.55 129.31 143.54 129.87 141.09 130.9 124.64 131.95 122.45 133.13 122.52 133.39 122.6 134.49 122.95 137.96 120.57 139.64 121.55 142.36 124.96 143.73 125.51 144.41 124.84 144.64 123.83 144.65 123.32 144.63 123.18 145.35 121.64 145.7 121.48 146.77 121.34 147.16 121.13 148.4 119.18 148.42 117.74 146.14 114 145.15 111.79 144.79 109.89 145.49 109.09 147.62 110.22 149.7 113.72 151.25 118.14 153.59 120.92 157.93 119.52 157.59 117.25 148.6 107.72 148.09 106.7 147.94 105.74 148.16 103.64 147.81 102.87 146 101.75 145.78 100.83 147.1 98.96 148.71 99.95 151.03 103.14 152.34 102.82 155.96 100.39 158.03 99.88 165.45 100.78 167.77 100.49 168.6 99.24 168.76 97.75 168.44 96.19 167.77 94.76 163.02 92.13 139.13 95.71 138.16 95.85 134.56 94.79 129.99 92.59 127.35 90.35 129.48 89.21 133.64 88.36 139.31 87.21 141.58 87.06 147.49 87.85 149.88 87.6 153.43 86.04 155.46 85.4 172.05 83.43 174.38 83.72 177.6 84.97 181.11 86.33 190.28 88.44 195.36 88.56 199.2 87.21 199.2 84.8 191.77 79.69 191.35 76.67 194.03 76.41 197.96 77.56 201.24 77.13 201.99 72.13 201.35 69.87 200.24 67.93 197.58 64.27 196.59 62.46 194.41 56.71 194.4 56.71 190.3 51.41 190.34 49.31 193.99 47.39 200.19 47 201.65 46.32 202.07 44.94 201.37 39.51 201.43 35.76 202.15 32.7 203.72 30.04 206.32 27.49 207.77 26.57 209.4 25.88 212.71 25.05 214.56 25.21 215.92 26.05 217.2 27.08 218.79 27.83 222.05 28.07 224.36 29.71 228.33 34.42 229.53 35.24 232.11 36.53 233.23 37.56 235.1 39.98 236.15 41.05 237.44 41.94 240.58 42.83 243.31 42.19 245.75 40.54 250.03 36.4 252.05 35.11 254.3 34.26 273.1 29.77 282.75 24.12 293.34 20.94 300.73 17.56 306.39 12.53 309.21 1.77 313.05 1 317.59 2.43 318.85 3.47 320.81 5.1 321.07 5.44 321.39 5.74 324.6 7.88 343.22 23.83 344.06 24.73 343.86 26.61 341.85 26.04 338.3 23.7 336.27 23.87 335.31 25.16 335.56 26.91 337.15 28.49 346.49 30.13 350.39 31.85 349.51 35.29 349.28 36.14 Z" fill-rule="evenodd" id="TJK-369" data-name="Leninabad"/>
<path d="M 139.03 255.65 138.39 255.06 141.04 253.6 140.08 251.77 140.45 250.85 142.69 250.31 145.38 249.26 145.93 248.07 145.52 246.2 145.7 244.78 146.07 244 146.94 244.69 147.67 246.24 148.72 247.7 149.4 249.16 149.77 250.76 150.86 250.72 150.73 251.91 151.78 252.36 153.56 252.68 154.15 254.01 155.93 254.33 154.7 255.79 154.06 257.11 151.05 258.07 148.21 260.08 148.44 261.77 148.26 262.82 146.34 263.19 144.38 263.28 142.51 262.23 142.23 259.99 142.37 258.48 141.32 257.25 142 256.06 141.36 254.87 139.03 255.65 Z" id="TJK-5491" data-name="Dushanbe"/>
</g>
</svg>