<?xml version="1.0"?>
<svg xmlns="http://www.w3.org/2000/svg" version="1.2" baseProfile="tiny" width="800" height="1232" viewBox="0 0 800 1232" stroke-linecap="round" stroke-linejoin="round">
<g id="ne_10m_admin_1_states_provinces">
<path d="M 236.87 283.27 237.92 285.24 239.24 287.03 243.03 294.54 244.4 296.31 245.37 297.07 248.53 298.46 249.53 299.31 250.02 300.21 250.41 301.14 251.04 302.11 251.91 302.77 253.92 303.69 254.78 304.35 255.42 305.29 256.48 308.13 256.94 309.35 257.58 310.35 258.47 311.13 259.79 311.52 260.52 311.01 260.76 309.67 260.77 307.08 261.41 304.9 262.55 303.21 264.14 302.72 268.17 305.74 270.29 305.95 272.42 305.19 276.78 302.6 278.84 302.09 281.03 302.1 288.93 303.13 289.52 302.75 290.39 300.86 290.94 300.09 293.34 299.1 298.81 298.95 306.23 296.36 306.8 296.29 308 296.42 308.6 296.3 309.17 295.94 309.71 295.51 310.28 295.15 310.94 295.04 313.04 296.13 313.67 297.01 314.67 298.41 317.12 303.31 318.86 305.4 322.77 309.17 324 311.55 324.09 314.06 323.08 318.52 323.79 321.09 325.05 323.51 325.85 325.72 326.27 328.09 326.29 333.63 326.47 334.88 326.92 336.38 327.59 337.58 328.41 338.71 328.96 339.85 328.82 341.11 328.26 342.22 326.74 344.28 326.29 345.34 326.47 346.4 326.94 347.34 327.13 348.19 326.44 349.01 326.26 350.29 327.07 356.03 327.82 361.36 327.53 363.32 326.15 365.27 325.14 366.01 324.16 366.51 323.24 367.13 322.39 368.23 322.04 369.16 321.66 371.06 321.17 371.99 319.66 372.89 318.18 375.2 316.83 375.87 315.89 377.13 315.89 379.66 316.57 384.18 316.33 387.17 315.44 389.55 310.8 395.82 310.77 395.86 309.95 396.32 308.4 396.79 307.13 397.38 305.8 398.37 303.66 400.6 302.86 402.49 302.48 405.11 302.62 407.79 303.43 409.87 304.36 410.66 306.86 411.81 307.95 412.46 314.21 418.83 315.48 420.54 315.81 422.65 314.33 427.49 314.03 430.04 317.12 436.61 318.59 438.06 321.17 438.15 324.5 438.62 326.17 440.3 328.27 445.49 329.08 446.66 330.02 447.55 332.45 449.33 332.95 449.86 333.34 450.55 334.27 452.78 334.73 453.12 335.3 453.32 340.05 455.76 341.02 456.79 342.36 459.31 343.12 460.31 346.61 463.16 347.22 464.19 347.76 465.81 348.5 466.96 349.65 467.62 350.97 468.16 351.65 468.65 352.17 469.01 352.49 469.63 352.73 471.08 353.07 471.65 353.58 471.93 354.73 472.13 355.24 472.31 356.26 473.03 356.91 473.71 358.29 475.49 360.5 477.18 362.64 477.52 364.87 477.32 367.35 477.39 369.04 478.6 369.73 480.92 369.77 483.64 369.55 486.06 368.67 488.11 367.02 489.24 365.12 490.14 363.49 491.45 362.9 493.79 365.34 497.4 365.11 499.33 366.26 500.4 370.21 501 377.78 501.25 382.05 500.8 382.35 501.94 382.73 510.63 383.12 512.06 384.88 515.41 385.42 518.11 385.39 518.73 384.47 520.12 384.25 520.64 384.16 521.26 384.09 523.07 384.12 523.4 384.97 527.65 384.89 542.21 384.18 545.4 383.31 544.88 381.61 543.57 376.79 541.22 375.83 540.55 375.28 539.75 374.56 539.44 372.62 537.73 370.28 536.17 369.07 534.95 368.08 533.68 367.73 533 367.63 532.54 367.64 531.12 367.56 530.69 366.59 528.02 366.2 527.44 365.03 526.21 364.7 525.6 364.04 522.41 361.85 517.21 361.07 516.19 360.92 515.82 360.64 514.77 359.42 512.86 359.13 512.17 358.72 512.08 358.57 510.58 357.7 507.7 356.26 504.57 353.26 499.69 351.42 492.22 350.35 489.95 349.72 489.2 342.95 483.72 341.2 482.89 335.49 481.33 329.85 478.35 315.73 470.92 311.67 469.68 306.68 468.76 301.65 468.5 300.32 468.01 299.13 467.24 295.32 464.14 294.74 463.83 293.95 463.58 292.31 463.27 291.52 462.99 290.3 462.87 287.64 463.53 286.42 463.25 285.85 462.44 285.58 461.4 285.21 460.51 284.32 460.13 283.01 460.03 282.11 459.77 280.23 458.82 278.79 457.66 276.51 454.13 273.96 451.08 271.81 447.78 270.45 446.25 270.26 446.5 267.44 446.5 266.51 446.68 263.14 447.87 261.91 448 254.36 447.36 251.85 447.68 249.83 448.43 247.97 449.6 246.38 451.11 243.9 454.7 243.29 455.15 243.46 456.87 243.43 457.41 243.22 458.52 243.27 458.93 243.67 459.57 243.78 459.93 243.67 460.51 243.3 461.2 239 466.44 238.75 466.9 238.63 467.48 238.45 467.92 238 468.25 237.13 468.53 236.78 468.7 235.84 469.35 234.56 470.73 234.32 471.13 234.16 471.65 234.09 472.5 234.16 473.56 234.13 473.97 233.81 475.19 233.8 475.62 233.86 476.01 233.73 476.63 233.37 477.41 230.87 480.91 230.62 481.41 228.15 488.34 227.75 490.07 227.67 490.95 227.51 491.25 227.21 491.68 226.56 492.25 226.07 492.55 225.58 492.72 222.95 493.14 222.54 493.27 222.19 493.46 221.92 493.73 221.45 494.32 221.18 494.59 220.55 495 219.76 495.71 219.16 496.41 218.23 497.81 217.33 500.12 217.22 501.77 217.08 502.38 216.72 503.09 216.57 503.69 216.61 504.5 217.24 506.29 217.22 506.75 217.04 507.37 214.25 512.69 213.62 513.61 212.88 514.51 212.79 514.92 213.03 515.57 213.24 516.02 213.38 516.6 213.43 517.03 212.9 519.15 210.95 519.91 211.3 519.4 211.76 518.22 211.7 517.02 211.18 516.36 209.51 515.46 208.85 514.94 208.07 513.45 207.78 511.81 207.76 511.06 207.66 508.27 206.64 503.64 204.71 499.31 201.58 493.96 197.33 486.71 197.23 486.23 202.61 481.17 203.79 479.68 205.08 477.27 207.19 469.36 207.71 467.2 206.79 467.31 205.54 467.81 203.29 469.19 202.08 469.51 199.72 469.37 195.12 468.38 192.77 468.24 191.6 468.43 190.56 468.82 189.91 469.24 189.89 469.23 189.46 469.06 187.46 467.59 186.71 464.63 186.66 462.9 186.3 461.82 185.45 461.06 176.47 457.58 164.58 452.95 156.83 449.95 150.93 449.08 136.1 449.44 128.3 448.24 127.11 447.68 126.45 446.54 126.08 443.67 125.43 442.34 124.53 441.62 121.38 440.03 119.93 438.84 115.39 434.05 113.33 432.4 111.48 431.6 98.95 430.8 96.06 429.41 94.94 428.64 93.44 428.43 91.82 428.42 90.35 428.23 90.21 428.01 90.32 427.65 90.33 427.3 89.98 427.1 89.68 427.14 89.09 427.28 88.81 427.22 88.34 426.72 88.1 426.03 87.78 425.34 87.03 424.82 85.58 424.06 84.63 423.02 83.23 420.48 82.16 419.18 80.92 418.33 79.5 417.81 71.89 416.07 68.56 415.82 66.68 416.94 66.06 418 65.5 417.97 64.9 417.53 64.26 417.37 63.16 417.92 61.77 419.44 60.9 420.17 59.23 420.88 57.97 420.71 56.86 419.88 55.65 418.64 52.63 416.59 49.29 415.91 41.21 415.97 28.97 416.05 23.58 416.08 15.16 416.15 15.07 410.93 14.91 401.95 14.8 394.8 14.69 388.74 15.75 388.32 15.92 388.13 15.06 385.92 14.67 385.33 12.53 383.13 12.36 382.09 12.85 380.44 14.23 377.84 14.43 377.09 14.19 376.37 13.09 374.88 12.85 374.02 12.66 369.13 12.34 367.59 11.81 366.2 11.03 364.87 10.08 363.88 9 363.48 6.56 361.94 4.7 358.37 1.9 348.99 1.54 345.74 1.54 342.39 1 340.15 1.04 339.66 1.05 339.62 2.28 339.3 8.85 338.53 14.41 335.84 21.39 332.45 29.36 329.62 35.75 327.33 46.17 323.62 53.62 321.95 64.24 319.58 65.58 319.48 73.35 317.64 83.02 315.36 90.83 313.51 97.26 311.19 104.24 307.6 109.4 304.96 120.13 301.51 130 298.32 137.53 295.89 143.2 293.35 146.07 292.49 152.1 291.41 159.08 289.08 166.96 286.45 178.32 282.67 190.94 278.46 203.86 274.15 213.3 271.01 219.84 268.83 225.29 267.01 229.42 269.24 231.1 270.53 231.93 272.67 231.55 276.4 231.88 277.75 233.76 280.76 234.39 281.45 235.46 282.13 236.13 282.39 236.67 282.88 236.87 283.27 Z" id="MOZ-1190" data-name="Tete"/>
<path d="M 329.85 478.35 325.37 483.34 323.95 486.41 323.09 487.72 322.24 488.58 320.71 489.84 320.23 490.17 314.73 492.66 310.97 493.58 310.34 493.81 308.09 494.98 306.92 495.83 306.44 496.41 301.99 505.28 301.81 505.86 301.73 506.37 301.7 506.88 301.95 511.13 301.76 512.53 301.19 514.11 299.84 516.94 298.77 520.12 298.18 523.9 298.2 527.82 297.92 528.82 294.89 535.81 294.71 536.77 294.79 537.83 296.98 545.82 297.12 546.85 296.11 554.12 296.09 555.1 296.27 555.95 296.99 556.49 303.19 558.74 303.61 559.07 303.89 559.38 304.1 559.72 305.04 560.8 305.41 561.14 306.01 561.5 306.27 561.98 306.42 562.75 306.02 566.02 306.05 566.24 306.51 567.27 306.49 569.38 306.15 572.4 304.35 578.97 303.39 581.3 302.17 582.44 299.01 582.03 298.02 582.17 297.2 582.82 294.91 585.84 294.76 585.94 294.64 585.99 294.4 586.11 293.83 586.22 293.45 586.17 292.69 585.95 291.93 585.66 290.88 585.03 290.15 584.29 289.84 584.06 288.88 583.46 288.57 583.22 288.06 582.68 287.88 582.33 287.75 581.92 287.59 580.98 287.32 580.16 286.56 578.77 286.32 578.48 285.28 577.51 285.09 577.36 284.86 577.22 284.14 576.99 281.92 576.65 281.48 576.52 280.66 576.41 280.18 577.43 279.71 579.78 279.52 580.27 279.28 580.65 278.48 581.42 277.54 582.1 275.74 583.03 274.52 583.95 274.27 584.22 273.4 585.44 271.32 587.58 271.2 588.07 271.26 588.49 271.42 588.86 273.2 591.93 273.51 592.69 273.64 593.1 273.68 593.56 273.67 594.01 273.53 594.86 272.76 597.13 272.7 597.53 272.74 597.92 272.91 598.2 273.67 598.33 274.04 598.46 274.22 598.81 274.39 599.73 274.52 600.14 274.71 600.5 275.15 601.13 275.35 601.54 275.49 602 275.48 602.73 275.21 603.22 273.94 604.85 273.54 605.11 273.14 605.16 272.72 605.28 272.26 605.56 271.68 606.41 270.9 607.23 270.25 607.65 269.88 608.01 269.48 608.49 268.25 610.36 266.01 612.54 264.93 613.86 264.53 614.66 263.77 617.33 263.67 618.23 264.5 620.02 266.9 620.17 267.96 620.42 270.55 621.98 273.22 622.77 273.97 623.29 274.49 624.1 274.77 624.9 275.14 625.66 275.9 626.29 276.76 626.62 277.57 626.82 278.32 627.12 279.03 627.74 279.5 628.55 280.01 630.27 280.4 631.12 281.08 631.88 281.81 632.18 283.6 632.48 284.5 632.97 284.99 633.64 285.41 634.37 286.11 635.09 287.02 635.41 287.6 635.34 287.19 637.76 279.66 664.31 279.63 683.08 279.46 684.32 278.95 684.76 278.06 684.97 276.14 685.02 275.34 685.12 274.71 685.32 273.95 685.8 273.72 686.27 273.64 686.76 273.82 687.59 273.95 687.98 274.13 688.37 275.98 691.2 276.07 692.16 276.06 693.68 275.6 697.3 275.64 698.76 275.74 699.53 276.25 699.57 277.86 699.54 278.29 699.65 278.64 699.83 278.91 700.08 279.42 701.13 279.67 701.41 280 701.65 280.4 701.8 280.85 701.84 281.77 701.83 282.16 701.94 282.51 702.12 282.84 702.38 283.49 703.11 283.66 703.27 283.93 703.45 285.15 703.97 285.34 704.07 285.03 704.25 283.75 704.75 282.98 704.88 282.03 704.91 281.85 704.95 281.73 705.02 281.31 705.56 281.08 705.74 279.21 706.77 278.85 707.11 278.55 707.54 277.96 708.68 277.71 708.99 277.47 709.21 276.84 709.65 274.36 710.55 273.79 710.84 273.37 711.11 272.53 711.86 272.39 711.96 272.16 712.09 271.66 712.27 269.82 712.59 268.79 713.02 268.64 713.11 268.55 713.19 266.58 716.38 266.36 716.54 266.06 716.51 265.18 716.48 264.85 716.41 264.66 716.31 264.57 716.25 263.14 714.77 262.55 714.3 262.21 714.12 261.47 713.81 261.14 713.61 260.96 713.26 260.62 711.94 260.41 711.62 260.14 711.36 259.78 711.24 259.38 711.25 259 711.38 257.26 712.38 256.85 712.51 256.39 712.59 254.93 712.56 254.43 712.6 253.57 712.84 253.21 713.03 252.9 713.26 252.12 714.07 251.78 714.27 251.01 714.6 250.15 714.87 249.77 715.04 249.4 715.23 249.09 715.46 248.35 716.14 247.97 716.66 241.04 722.09 240.78 722.52 240.73 722.97 242.6 729.28 242.81 729.6 243.1 729.84 245.04 730.53 245.67 730.97 245.9 731.28 246.05 731.65 246.15 732.1 246.31 733.6 246.53 734.48 246.74 734.83 247.67 736.04 248.08 736.75 248.23 737.16 248.32 737.69 248.25 738.11 246.76 741.88 246.53 742.92 246.5 743.67 246.62 744.15 246.66 744.83 246.6 745.75 246.66 746.74 246.91 747.72 265.71 766.23 266.75 766.77 275.68 769.8 276.5 770.43 276.81 771.32 276.95 772.3 277.28 787.73 277.53 788.51 278.13 788.83 279.07 788.98 285.14 789.46 285.9 789.7 293.45 795.2 293.95 795.72 294.28 796.2 294.52 796.97 294.53 797.51 294.45 797.96 294.02 799.06 293.81 799.39 293.58 799.69 293.31 799.95 292.69 800.41 291.18 801.14 290.37 801.44 289.95 801.72 289.58 802.16 289.14 802.97 289.03 803.65 289.05 804.34 289.2 805.18 289.17 805.74 289.03 806.16 288.75 806.42 287.62 807 287.27 807.33 286.89 808.39 286.7 809.37 286.29 814.64 282.53 814.95 281.25 815.67 279.71 817.29 277.62 820.08 277.37 820.67 277.17 821.35 276.88 821.9 276.34 822.12 276.08 822.32 275.27 822.67 274.43 822.82 274.03 822.4 273.36 821.21 271.76 820.78 269.89 820.83 265.67 821.52 252.65 820.97 249.65 821.28 247.03 822.15 241.9 825.96 240.32 826.87 237.26 827.52 234.47 828.84 232.9 829.3 231.12 829.22 230.86 829.12 228.16 828.09 226.46 827.81 225.1 828.03 220.56 829.9 219.19 830.74 217.69 832.03 216.49 833.47 216 834.75 215.33 836.01 213.89 835.6 212.46 834.57 211.85 834 210.12 833.89 209 833.94 208.4 833.3 208.22 831.11 207.71 829.98 206.53 828.96 205.16 828.19 204.12 827.81 202.99 827.78 198.69 828.32 197.26 828.19 195.99 827.85 194.86 827.36 186.41 821.26 183.48 820.08 181.98 819.88 177.13 820.08 175.95 819.6 171.72 817.1 168.49 814.45 168.4 814.12 162.93 805.36 163.03 805.07 163.32 804.65 163.59 804.18 163.6 803.68 163.38 803.52 163.05 803.54 162.71 803.49 162.04 802.62 160.95 801.98 160.54 801.32 166.34 794.33 170.13 789.77 171.88 786.48 172.35 783.61 171.32 775.82 170.24 767.76 170.39 764.66 171.18 761.47 173.54 758.58 176.8 758.19 180.34 758.6 183.55 758.09 185.45 756.13 187.9 751.62 190.26 747.3 195.13 741.62 198.46 737.73 199.04 736.77 199.45 735.69 199.99 733.39 199.95 732.8 199.45 731.79 199.35 731.27 199.52 730.54 200.54 728.76 200.91 727.6 201.47 723.95 202.15 723.27 203.37 723.06 204.56 722.71 205.15 721.63 205.58 719.33 206.6 718.49 210.62 718.62 210.4 718.04 209.95 716.29 210.23 710.74 211.68 706.32 211.79 703.22 212.3 701.46 212.54 700.02 211.79 699.19 210.12 698.53 208.5 697.56 207.26 696.36 206.64 695.04 207.26 692.13 207.15 690.61 205.81 689.9 204.42 690.35 202.18 692.53 200.49 692.97 198.76 692.89 197.4 692.59 196.54 691.78 196.29 690.11 196.53 689.35 196.97 688.7 197.29 687.98 197.18 687 197 686.26 196.97 685.57 197.51 680.14 197.48 678.76 196.97 677.13 195.92 676.79 194.55 676.95 193.11 676.89 192.32 675.99 192.23 674.45 192.71 671.4 192.55 669.2 192.73 668.46 195.53 665.45 196.62 663.79 197.22 662.53 197.48 661.19 197.56 659.33 199.74 650.04 199.26 647.46 198.63 646.72 197.93 646.2 197.34 645.61 196.96 644.69 196.79 643.82 196.57 643.3 196.13 642.96 195.32 642.64 194.02 642.5 189.36 643.17 188.34 643.13 187.49 642.85 186.89 642.25 186.71 641.25 186.84 640.29 186.71 639.47 186.14 637.8 186.25 636.87 186.98 636.25 187.94 635.73 188.75 635.16 187.8 634.56 187.32 633.46 186.8 629.41 186.92 628.74 194.14 625.51 196.41 625.19 199.48 625.42 201.46 625.26 202.76 624.26 203.57 622.64 204.09 620.63 204.25 618.15 203.67 616.1 201.41 611.84 200.45 609.15 200.19 607.6 200.38 606.34 201.31 605.32 202.59 604.8 204.02 604.41 205.36 603.73 206.82 602.9 208.47 602.16 209.81 601.19 210.3 599.67 210.04 598.9 209.09 597.82 208.98 597.09 209.19 597.14 210.77 594.95 212.93 593.38 213.29 592.55 212.7 591.12 211.34 589.67 207.84 586.96 206.7 585.37 206.36 584.24 206.5 583.62 206.94 583.05 207.52 582.06 208.19 580.45 208.24 579.89 208 577.41 205.36 569.67 205.19 567.98 205.6 566.5 205.67 565.86 204.75 564.81 204.63 564.1 205.01 563.51 205.6 563.13 206.19 562.63 206.48 561.65 206.34 560.33 205.46 558.22 205.34 556.76 205.55 555.29 206.03 553.73 206.85 552.48 208.09 551.93 210.01 550.7 210.32 547.95 210.09 544.67 210.38 541.79 211.62 539 211.92 537.56 211.61 536.01 210.58 534.69 207.76 533.46 206.45 532.47 206.12 531.85 205.32 529.32 205.32 528.49 205.8 527.98 206.45 527.58 206.94 527 209.89 521.48 210.95 519.91 212.9 519.15 213.43 517.03 213.38 516.6 213.24 516.02 213.03 515.57 212.79 514.92 212.88 514.51 213.62 513.61 214.25 512.69 217.04 507.37 217.22 506.75 217.24 506.29 216.61 504.5 216.57 503.69 216.72 503.09 217.08 502.38 217.22 501.77 217.33 500.12 218.23 497.81 219.16 496.41 219.76 495.71 220.55 495 221.18 494.59 221.45 494.32 221.92 493.73 222.19 493.46 222.54 493.27 222.95 493.14 225.58 492.72 226.07 492.55 226.56 492.25 227.21 491.68 227.51 491.25 227.67 490.95 227.75 490.07 228.15 488.34 230.62 481.41 230.87 480.91 233.37 477.41 233.73 476.63 233.86 476.01 233.8 475.62 233.81 475.19 234.13 473.97 234.16 473.56 234.09 472.5 234.16 471.65 234.32 471.13 234.56 470.73 235.84 469.35 236.78 468.7 237.13 468.53 238 468.25 238.45 467.92 238.63 467.48 238.75 466.9 239 466.44 243.3 461.2 243.67 460.51 243.78 459.93 243.67 459.57 243.27 458.93 243.22 458.52 243.43 457.41 243.46 456.87 243.29 455.15 243.9 454.7 246.38 451.11 247.97 449.6 249.83 448.43 251.85 447.68 254.36 447.36 261.91 448 263.14 447.87 266.51 446.68 267.44 446.5 270.26 446.5 270.45 446.25 271.81 447.78 273.96 451.08 276.51 454.13 278.79 457.66 280.23 458.82 282.11 459.77 283.01 460.03 284.32 460.13 285.21 460.51 285.58 461.4 285.85 462.44 286.42 463.25 287.64 463.53 290.3 462.87 291.52 462.99 292.31 463.27 293.95 463.58 294.74 463.83 295.32 464.14 299.13 467.24 300.32 468.01 301.65 468.5 306.68 468.76 311.67 469.68 315.73 470.92 329.85 478.35 Z" id="MOZ-1192" data-name="Manica"/>
<path d="M 616.83 275.49 612.33 271.69 611.28 270.35 611.07 269.54 610.73 268.86 606.28 262.45 605.8 260.88 605.44 260.38 604.81 259.71 604.57 259.21 604.49 258.71 604.51 258.27 604.45 257.86 604.32 257.48 603.36 255.42 603.02 254.89 602.6 254.44 601.52 253.45 601.16 252.88 598.8 247.07 598.7 246.62 598.37 245.61 598.27 245.13 598.23 244.66 598.34 243.72 598.29 243.02 598.13 242.19 597.65 240.73 597.28 239.89 596.22 238.16 595.1 236.69 594.84 236.17 594.73 235.65 594.72 235.18 595.22 232.39 595.24 231.82 595.15 230.99 594.68 230.16 594.22 228.95 593.73 227.16 593.4 226.63 592.99 226.36 592.59 226.36 592.2 226.47 591.84 226.63 591.5 226.81 591.19 227.02 590.78 227.11 590.33 227.08 589.64 226.63 589.34 226.21 589.14 225.64 588.51 222.43 588.51 221.99 588.59 221.59 588.69 221.26 588.83 221.03 588.98 220.8 590.21 219.46 591.75 218.34 593.15 217.12 594.11 216.53 594.67 216.05 595.98 214.73 596.21 214.42 596.38 214.06 596.61 213.21 596.77 212.82 596.98 212.49 597.21 212.21 598.01 211.44 598.23 211.12 598.68 209.95 598.9 209.63 599.39 209.06 599.54 208.71 599.6 208.27 599.54 207.41 599.57 207 599.72 206.65 600.14 206.05 600.21 205.68 600.2 204.83 600.27 204.44 600.42 204.1 601.17 203.27 601.34 202.91 601.4 202.29 601.3 200.22 601.07 199.63 600.76 199.36 599.89 199.32 598.99 199.43 598.63 199.55 598.28 199.71 595.59 201.45 595.28 201.54 595 201.49 594.19 201.25 593.26 201.08 592.42 200.81 592.06 200.64 591.72 200.44 591.19 199.92 590.73 199.34 590.47 199.08 590.16 198.85 589.8 198.66 588.16 198.13 584.3 197.41 583.83 197.2 583.39 196.72 583.34 196.33 583.44 195.95 585.1 193.9 585.5 193.2 585.62 192.73 585.7 192.21 585.74 190.81 585.93 190.2 586.03 189.59 586.08 188.77 585.93 186.28 585.95 185.56 586.17 184.7 586.23 184.18 586.25 183.59 586.16 182.77 586.16 182.16 586.43 180.31 586.31 178.84 586.39 178.1 586.57 177.57 587.07 177.02 587.25 176.67 587.39 176.27 587.47 175.82 587.52 175.34 587.32 173.1 587.37 172.66 587.47 172.26 588.41 170.51 588.49 170.01 588.34 166.57 588.12 165.93 587.75 165.21 587.59 164.71 587.54 164.19 588.31 160.61 588.57 159.81 588.8 158.52 588.85 157.27 588.78 156.58 588.65 156.06 588.19 155.29 587.53 153.76 587.52 153.2 587.67 152.8 587.98 152.59 589.04 152.02 590.27 151.15 590.8 150.62 591.26 150.03 591.65 149.36 592.12 148.78 594.24 146.7 595.62 144.91 596.46 144.19 597.78 143.45 598.13 143.03 598.43 142.36 599.03 137.72 599.35 136.42 600.47 133.79 600.83 132.46 601 131.98 601.34 131.75 602.05 131.41 602.36 131.2 603.33 130.23 604.18 129.11 604.44 128.87 604.72 128.65 605.03 128.47 606.49 127.87 607.44 127.32 610.17 125.09 610.41 124.37 610.6 123.24 610.8 120.66 611.01 119.54 611.26 118.83 611.57 118.67 613.1 118.08 613.43 117.83 613.72 117.5 614.4 115.8 614.71 114.04 614.87 113.66 615.11 113.41 616.03 112.83 617.01 111.82 617.19 111.51 617.32 111.17 617.64 109.12 617.77 108.74 617.95 108.42 618.18 107.65 618.68 103.88 618.71 102.7 618.65 101.9 618.3 101.25 617.47 100.05 616.76 99.27 616.07 97.97 615.87 97.68 615.49 96.89 615.05 95.17 615.01 94.5 615.47 89.18 616 87.02 616.2 85.46 616.37 84.68 616.57 84.12 616.96 83.55 617.15 83.13 617.32 82.56 617.58 80.98 618.48 78.83 618.89 76.77 619.02 76.41 619.17 76.07 619.36 75.76 622.18 72.01 622.22 71.87 624.09 69.59 631.48 64.65 633.17 62.55 634.38 61.54 636.61 60.95 638.13 60.25 638.94 60.09 639.84 60.19 641.46 60.57 642.29 60.6 643.67 59.88 646.65 57.08 647.65 56.45 649.21 56.07 650.53 55.16 652.54 53.43 655.08 52.86 664.89 52.86 667.48 52.36 669.8 51.33 671.56 51.68 674.62 53.32 676.2 53.9 678.2 53.92 680.08 53.36 681.83 52.41 696.55 40.79 697.73 40.14 699.02 39.73 704.81 39.3 717.39 36.58 719.29 35.79 726.81 30.67 734.55 27.41 735.98 26.67 745.36 19.43 747.45 18.66 748.33 17.82 749.74 15.99 754.18 11.65 757.02 9.56 761.88 7.88 764.57 5.97 766.96 3.61 768.15 1.43 769.43 1 770.59 1.27 771.04 2.03 770.25 3.02 771.67 3.33 773.67 1.65 774.91 2.46 775.29 4.04 774.5 5.29 773.38 6.28 772.81 7.11 773.38 8.3 774.74 8.8 776.31 9.1 777.47 9.68 778 10.81 778.18 13.37 778.73 14.57 779.8 15.17 782.74 15.55 783.9 16.11 784.51 17.35 783.42 17.68 780.55 17.41 778.13 18.09 771.79 23 772.3 25.61 772.89 25.21 773.31 24.74 773.61 24.22 773.84 23.56 775.29 24.77 780.55 27.38 781.91 28.91 780.51 30.34 776.39 32.27 775.03 33.49 773.51 35.42 772.59 37.53 773.38 40.3 772.76 42.89 773.38 43.64 774.23 43.43 775.21 41.56 775.93 41.08 777.85 41.89 777.82 44.03 776.79 46.42 775.65 47.99 773.25 50.5 772.81 51.32 772.76 52.29 773.33 54.17 773.38 54.91 772.45 56.21 767.45 59.82 766.89 60.8 765.79 63.41 765.17 64.17 764.22 64.5 762.42 64.5 761.54 64.64 762.31 65.77 762.96 67.2 763.54 67.76 764.11 66.22 765.24 66.87 766.42 67.97 767.45 69.2 768.15 70.28 770.32 69.75 770.74 72.12 770.27 74.64 769.74 77.54 768.95 79.88 768.34 80.9 767.45 81.92 767.13 83.11 768.01 84.27 769.17 85.34 769.74 86.25 769.28 87.09 767.59 88.99 767.45 89.63 768.26 90.72 768.5 91.6 768.71 94.03 769.06 95.51 770.44 96.82 770.69 97.22 770.79 97.7 770.92 101.35 771.35 102.64 772.3 103.81 772.95 103.45 773.35 103.38 774.4 103.81 772.36 105.84 771.85 108.02 772.36 110.26 773.38 112.47 775.65 115.65 775.65 116.34 774.52 117.52 774.05 118.3 773.84 120.72 772.95 124.33 772.81 125.38 773.11 126.72 774.49 128.78 774.91 129.99 774.76 131.24 774.19 132.77 773.33 134.09 772.3 134.66 771.23 134.33 770.16 133.89 769.41 134.09 769.22 135.67 771.07 135.25 772.72 136.46 773.91 138.44 774.4 140.33 774.17 141.37 773.69 142.28 773.38 143.23 773.6 144.43 774.26 145.04 775.29 145.21 777.47 144.94 777.25 145.72 776.81 146.35 776.2 146.79 774.47 147.22 773.99 147.91 773.38 149.5 771.41 152.23 771.25 153.49 772.3 154.67 773.09 155.02 774 155.16 777.16 155.31 777.54 155.66 777.47 160.8 777.75 161.89 778.42 162.37 779.27 162.58 781.45 163.67 781.86 164.3 781.34 165.23 780.59 165.34 779.31 163.9 778.49 163.9 777.99 164.63 778.04 165.59 778.75 168.89 779.37 168.91 780.2 168.49 781.06 168.55 781.6 169.33 782.23 171.28 782.6 171.67 783.5 171.93 783.9 172.57 783.9 173.39 783.62 174.23 782.41 175.44 780.8 175.79 779.19 175.37 777.98 174.23 777.92 174.84 778.05 175.59 778.29 176.18 778.49 176.29 777.39 176.96 775.29 176.78 774.91 177.34 775.38 177.97 776.31 178.56 776.97 179.44 776.68 180.9 775.84 182.9 775.38 183.5 774.72 184.13 774.52 184.19 774.34 183.91 773.84 183.5 773.91 182.87 773.66 182.37 772.81 181.97 772.15 181.9 771.69 182.02 769.53 183.14 768 184.2 766.73 185.44 766.2 186.58 766.33 188 766.71 188.82 770.51 192.21 771.64 192.57 772.81 192.17 773.82 190.85 773.42 189.79 772.61 188.75 772.3 187.55 772.9 187.03 774.05 186.98 775.29 187.3 776.17 187.81 777.25 188.1 778.52 187.76 779.58 187.77 780.03 189.1 779.61 191.53 777.82 195.88 777.47 198.36 777.65 199.7 778.35 202.23 778.49 203.54 777.98 209.19 777.56 210.66 776.6 211.53 775.55 212.27 774.91 213.31 775.11 214.21 776.1 213.84 777.98 212.3 777.98 218.44 778.33 218.31 779.17 218.11 779.52 217.98 779.23 219.69 776.95 222.08 776.39 223.33 776.24 226.55 775.79 228.11 774.91 229.24 774.91 229.24 774.92 229.25 773.27 229.99 771.22 229.95 769.47 229.11 768.73 227.47 768.22 225.81 766.91 225.15 763.37 225.14 760.53 225.68 754.31 227.55 751.26 227.24 750.23 226.62 749.51 225.93 748.56 225.37 745.8 224.94 745.38 224.62 745 224.56 744.04 225.14 742.21 227.13 741.48 227.71 738.33 228.72 736.93 229.37 735.91 231.38 734.88 232.18 732.73 233.34 730.71 235.19 726.47 240.29 724.02 241.58 723.09 241.58 720.71 241.07 717.59 241.07 715.99 241.52 711.67 244.66 710.23 245.17 708.83 245.49 705.76 245.68 705.01 245.88 704.43 246.34 703.93 246.85 703.43 247.22 702.66 247.44 700.31 247.78 699.14 248.23 697.79 248.92 696.67 249.74 696.21 250.57 695.65 251.94 694.3 253.24 692.62 254.3 691.09 254.95 688.24 255.47 687.56 255.7 686.8 256.76 686.2 257 684.65 257.29 682.97 258 680.32 259.61 677.71 261.74 675.93 262.48 673.18 261.37 671.24 261.25 667.93 261.61 666.29 262.25 664.83 263.31 663.77 264.75 663.37 266.53 662.64 266.9 658.15 267.86 654.94 270.08 652.57 270.85 648.42 273.96 647.01 274.4 641.97 275.03 640.86 275.35 638.36 276.77 636.59 277.03 627.16 277.29 624.25 276.52 621.42 275.42 619.12 275.07 616.83 275.49 Z" id="MOZ-1198" data-name="Cabo Delgado"/>
<path d="M 622.22 71.87 622.18 72.01 619.36 75.76 619.17 76.07 619.02 76.41 618.89 76.77 618.48 78.83 617.58 80.98 617.32 82.56 617.15 83.13 616.96 83.55 616.57 84.12 616.37 84.68 616.2 85.46 616 87.02 615.47 89.18 615.01 94.5 615.05 95.17 615.49 96.89 615.87 97.68 616.07 97.97 616.76 99.27 617.47 100.05 618.3 101.25 618.65 101.9 618.71 102.7 618.68 103.88 618.18 107.65 617.95 108.42 617.77 108.74 617.64 109.12 617.32 111.17 617.19 111.51 617.01 111.82 616.03 112.83 615.11 113.41 614.87 113.66 614.71 114.04 614.4 115.8 613.72 117.5 613.43 117.83 613.1 118.08 611.57 118.67 611.26 118.83 611.01 119.54 610.8 120.66 610.6 123.24 610.41 124.37 610.17 125.09 607.44 127.32 606.49 127.87 605.03 128.47 604.72 128.65 604.44 128.87 604.18 129.11 603.33 130.23 602.36 131.2 602.05 131.41 601.34 131.75 601 131.98 600.83 132.46 600.47 133.79 599.35 136.42 599.03 137.72 598.43 142.36 598.13 143.03 597.78 143.45 596.46 144.19 595.62 144.91 594.24 146.7 592.12 148.78 591.65 149.36 591.26 150.03 590.8 150.62 590.27 151.15 589.04 152.02 587.98 152.59 587.67 152.8 587.52 153.2 587.53 153.76 588.19 155.29 588.65 156.06 588.78 156.58 588.85 157.27 588.8 158.52 588.57 159.81 588.31 160.61 587.54 164.19 587.59 164.71 587.75 165.21 588.12 165.93 588.34 166.57 588.49 170.01 588.41 170.51 587.47 172.26 587.37 172.66 587.32 173.1 587.52 175.34 587.47 175.82 587.39 176.27 587.25 176.67 587.07 177.02 586.57 177.57 586.39 178.1 586.31 178.84 586.43 180.31 586.16 182.16 586.16 182.77 586.25 183.59 586.23 184.18 586.17 184.7 585.95 185.56 585.93 186.28 586.08 188.77 586.03 189.59 585.93 190.2 585.74 190.81 585.7 192.21 585.62 192.73 585.5 193.2 585.1 193.9 583.44 195.95 583.34 196.33 583.39 196.72 583.83 197.2 584.3 197.41 588.16 198.13 589.8 198.66 590.16 198.85 590.47 199.08 590.73 199.34 591.19 199.92 591.72 200.44 592.06 200.64 592.42 200.81 593.26 201.08 594.19 201.25 595 201.49 595.28 201.54 595.59 201.45 598.28 199.71 598.63 199.55 598.99 199.43 599.89 199.32 600.76 199.36 601.07 199.63 601.3 200.22 601.4 202.29 601.34 202.91 601.17 203.27 600.42 204.1 600.27 204.44 600.2 204.83 600.21 205.68 600.14 206.05 599.72 206.65 599.57 207 599.54 207.41 599.6 208.27 599.54 208.71 599.39 209.06 598.9 209.63 598.68 209.95 598.23 211.12 598.01 211.44 597.21 212.21 596.98 212.49 596.77 212.82 596.61 213.21 596.38 214.06 596.21 214.42 595.98 214.73 594.67 216.05 594.11 216.53 593.15 217.12 591.75 218.34 590.21 219.46 588.98 220.8 588.83 221.03 588.69 221.26 588.59 221.59 588.51 221.99 588.51 222.43 589.14 225.64 589.34 226.21 589.64 226.63 590.33 227.08 590.78 227.11 591.19 227.02 591.5 226.81 591.84 226.63 592.2 226.47 592.59 226.36 592.99 226.36 593.4 226.63 593.73 227.16 594.22 228.95 594.68 230.16 595.15 230.99 595.24 231.82 595.22 232.39 594.72 235.18 594.73 235.65 594.84 236.17 595.1 236.69 596.22 238.16 597.28 239.89 597.65 240.73 598.13 242.19 598.29 243.02 598.34 243.72 598.23 244.66 598.27 245.13 598.37 245.61 598.7 246.62 598.8 247.07 601.16 252.88 601.52 253.45 602.6 254.44 603.02 254.89 603.36 255.42 604.32 257.48 604.45 257.86 604.51 258.27 604.49 258.71 604.57 259.21 604.81 259.71 605.44 260.38 605.8 260.88 606.28 262.45 610.73 268.86 611.07 269.54 611.28 270.35 612.33 271.69 616.83 275.49 614.51 276.52 611.58 277.35 605.07 278.08 602.12 279.59 599.54 282.19 598.02 283.28 585.38 285.61 584.66 286.07 584.18 286.82 583.03 287.77 581.66 288.56 580.51 288.86 577.79 287.54 576.23 285.19 574.49 283.26 571.24 283.22 569.9 284.06 567.95 286.35 566.89 286.81 560.99 286.3 559.51 286.44 557.87 287.04 556.97 288.12 557.66 289.68 557.68 291.05 556.44 292.91 554.72 294.63 553.31 295.57 547.4 295.57 546.26 296.16 543.34 299.1 540.66 302.7 538.51 305.02 535.9 307.14 528.23 311.27 526.78 311.54 526.33 311.37 524.88 310.63 523.97 310.47 523.05 310.58 522.62 310.82 522.36 311.15 517.47 315.11 516.02 315.64 515.12 315.8 514.45 316.2 513.21 317.18 512.42 317.5 510.83 317.9 510.09 318.21 509.16 318.94 506.94 321.3 506.5 322.05 506.02 322.54 502 324.12 500.01 326.7 498.82 328.98 498.52 329.76 497.82 331.22 494.48 334.58 493.92 335.53 493.75 336.07 492.74 337.56 488.84 341.32 488.93 344.44 488.63 345.58 485.56 350.18 485.04 350.68 484.5 351 483.98 351.4 483.64 351.96 483.28 352.96 482.94 353.44 481.93 354.26 477.76 358.77 475.38 360.17 475 360.32 474.57 360.39 473.63 360.45 473.22 360.52 472.68 360.74 470 362.58 469.67 362.75 468.74 362.88 468.26 363 467 363.71 466.63 363.85 466.18 363.89 465.73 363.88 464.41 363.57 463.95 363.54 463.39 363.68 463.08 363.96 462.82 364.3 460.74 368.24 459.13 370.28 458.96 370.62 458.83 371 458.81 371.41 458.84 371.83 458.93 372.24 459.01 373.14 458.91 374.64 458.68 375.32 458.27 376.09 457.35 377.46 456.71 377.93 456.14 378.11 455.72 377.98 454.99 377.62 454.33 377.2 453.95 377.03 453.54 376.89 453.07 376.79 452.68 376.64 452.34 376.44 451.48 375.65 451.14 375.45 450.67 375.29 449.99 375.2 424.93 375.4 423.02 375.4 423.23 372.32 421.09 363.89 419.34 356.88 419.03 355.66 419.01 353.91 419.5 352.03 423.14 343.74 425.2 338.99 428.02 332.52 426.41 332.57 425.44 332.42 424.94 331.76 424.17 316.06 423.74 314.78 422.86 313.69 419.21 310.09 416.48 306.73 413.77 303.39 405.89 293.69 399.39 285.69 394.36 276.25 387.93 268.76 381.07 260.78 373 251.39 366.47 243.78 359.9 237.9 352.24 231.06 349.95 229.67 349.89 229.64 347.37 228.74 344.81 228.36 335.21 228.52 334 228.29 333.19 227.88 332.96 227.57 332.88 227.12 332.52 226.29 331 223.63 330.13 222.46 328.85 221.22 328.6 220.97 328.51 220.83 326.04 215.37 325.85 209.22 326.34 202.87 325.47 195.38 324.43 186.4 323.2 175.88 322.22 167.47 318.07 153.04 313.66 137.73 311.8 131.27 311.68 130.86 312.04 127.47 313.64 123.68 321.71 111.69 327.43 103.2 330.48 95.82 331.04 92.86 331.19 89.83 330.68 86.57 330.68 85.21 331.4 84.24 333.99 83.62 357.5 83.89 388.81 84.2 391.94 84.11 392.07 84.52 392.57 85 393.27 85.23 395.11 85.31 395.44 85.28 396.44 84.89 396.45 84.82 396.94 84.68 397.24 84.51 397.59 84.55 398.25 85.05 398.66 85.62 398.85 86.14 399.19 86.55 400.04 86.83 400.14 85.54 400.96 85.48 402.17 85.95 403.4 86.26 405.16 85.28 405.25 85.29 409.3 84.24 410.05 83.77 410.58 82.23 411.2 81.19 412.03 80.19 412.94 79.61 412.36 77.96 413.74 77.15 417.51 76.48 418.84 75.46 421.18 72.54 422.17 71.87 425.24 72.43 427.37 73.32 427.85 73.46 430.68 73.42 431.68 73.91 432.97 75.46 432.26 77.13 432.94 78.55 434.34 79.28 435.79 78.86 436.87 78.79 438.43 79.48 441.17 81.14 441.91 81.44 443.57 81.86 444.29 82.16 444.92 82.65 445.41 83.16 445.92 83.55 446.6 83.7 447.81 84.27 448.23 85.68 448.4 87.38 448.91 88.87 448.42 90 448.65 91.54 449.32 92.9 450.18 93.49 453.28 92.97 454.18 93.12 455.34 93.82 456.12 94.04 457.22 93.92 459.95 93.15 462.31 92.81 462.83 92.46 463.21 92.11 463.57 91.94 472.34 91.94 472.92 92.35 473.37 94.11 473.85 94.5 474.27 94.66 476.15 95.58 477.45 95.72 482.15 94.98 483.27 94.6 485.27 94.38 485.82 94.04 486.23 93.56 486.95 92.97 489.72 91.93 490.58 91.48 491.26 90.86 493.35 87.84 496.74 83.89 498.01 83.47 498.73 83.82 500.21 83.93 502.07 85.12 503.18 85.33 510.12 84.72 510.83 84.41 511.49 83.92 512.67 83.24 513.57 85.55 515.61 88.06 518.23 90.23 520.87 91.48 527.25 92.91 530.52 93.26 533.21 92.97 533.94 92.64 534.53 92.27 535.11 91.99 535.82 91.94 536.68 92.35 538.02 93.74 538.63 94.04 542.35 95.07 544.06 95.07 545.49 94.84 545.99 94.57 546.62 94.04 547.04 93.29 547.46 92.26 548.05 91.32 548.95 90.92 550.52 90.6 553.24 89.18 554.86 88.87 557.24 88.85 558.85 88.57 560.25 87.79 563.59 85.15 569.05 82.79 570.61 81.71 571.55 80.89 572.16 79.88 572.02 78.96 571.57 78.04 571.27 77.04 571.66 75.36 573.46 72.2 573.35 70.85 574.06 69.93 575.21 66.54 575.41 65.44 575.92 64.79 580.64 62.16 581.88 61.86 584.93 61.67 585.6 61.5 586.31 60.77 590.59 60.05 592.29 60.08 592.87 60.09 592.87 59.98 593.11 59.76 593.49 59.58 593.95 59.57 594.08 59.76 594.47 60.45 594.71 60.6 595.44 60.84 596.92 61.9 597.81 62.14 598.67 61.99 600.33 61.31 601.07 61.11 604.54 61.64 607.23 63.48 611.37 67.77 614.03 69.11 619.98 70.59 622.18 71.85 622.22 71.87 Z M 327.33 114.23 327.26 114.28 325.78 115.48 325.95 116.74 327.95 118.97 328.91 120.31 329.85 121.28 330.98 121.33 332.52 119.83 333.24 117.23 332.2 114.93 330.03 113.68 327.33 114.23 Z M 336.82 125.23 338.52 124.95 340.08 124.07 341.26 122.67 342.09 120.81 342.33 118.91 341.71 117.4 340.52 116.6 338.82 116.01 337.21 115.92 336.21 116.59 334.83 119.85 334.34 121.61 334.36 123.19 335.32 124.73 336.82 125.23 Z" fill-rule="evenodd" id="MOZ-1199" data-name="Niassa"/>
<path d="M 728.11 446.81 726.25 447.34 724.59 446.81 722.79 445.36 721.69 442.78 721.96 439.87 722.78 438.55 724.92 437.55 728.58 436.75 731.13 437.01 731.34 438.73 731 440.25 729 442.24 728.38 444.42 728.52 445.75 728.11 446.81 Z M 751.26 227.24 754.31 227.55 760.53 225.68 763.37 225.14 766.91 225.15 768.22 225.81 768.73 227.47 769.47 229.11 771.22 229.95 773.27 229.99 774.92 229.25 776.22 230.3 777.32 231.67 778.48 232.84 780.03 233.34 780.12 233.83 779.14 234.98 776.68 237.21 775.84 238.69 776.09 240.37 778.14 244.69 778.51 246.05 779.68 254.96 780.65 256.98 780.7 257.79 780.86 258.62 782.02 259.72 782.52 260.35 782.94 261.06 783.11 261.66 783.28 263.53 784.04 266.82 784.18 268.37 783.82 270.37 782.96 271.28 780.03 272.38 780.89 272.88 781.63 273.59 782.01 274.48 781.85 275.52 781.11 276.37 780.14 276.71 777.98 277.03 775.78 278.31 776.29 279.58 777.39 281.12 776.95 283.24 777.98 282.91 778.82 281.48 779.49 281.44 780.01 282.08 779.78 282.83 779.65 283.59 780.55 284.25 779.42 285.07 778.96 285.27 779.75 285.73 780.53 285.71 781.3 285.35 782.08 284.76 782.07 282.58 783.93 281.17 787.62 279.67 788.53 280.28 789.45 281.34 789.86 282.47 789.71 284.74 790.1 285.59 791.35 286.3 790.52 287.38 790.16 288.79 790.15 290.26 790.33 291.48 789.3 291.81 787.53 293.19 786.74 293.52 785.7 293.21 784.26 291.75 783.11 291.48 784.64 299.68 783.31 299.25 782.62 299.73 782.69 300.57 783.62 301.25 782.08 302.79 782.23 303.2 782.57 303.61 782.93 303.85 783.11 303.82 782.55 307.3 782.6 308.47 784.18 307.02 785.29 305.28 787.34 298.97 787.93 298.39 792.45 296.27 793.39 296.08 795.51 296.79 797.53 298.56 798.59 300.82 797.8 303.05 796.83 303.68 794.53 304.19 793.39 304.6 792.4 305.45 792.47 306.11 793.28 306.47 794.42 306.43 795.18 305.9 795.86 305.16 796.61 304.78 797.55 305.35 797.93 306.4 797.82 307.68 796.25 311.97 796.39 312.77 797.03 314.06 797.28 314.31 797.72 314.61 798.19 315.03 798.57 315.65 798.66 316.14 798.67 317.17 798.83 317.69 799 318.88 797.96 323.27 797.82 323.69 797.85 324.05 798.32 324.61 798.58 325.04 798.59 325.47 798.41 325.87 798.06 326.18 794.47 327.65 793.91 328.22 793.53 328.86 790.84 331.58 789.86 332.52 788.62 333.15 787.27 333.51 785.95 333.62 785.32 333.17 784.48 330.89 783.62 330.04 783.92 331.46 784 332.87 784.42 334.14 785.71 335.16 786.91 335.35 790.47 335.35 791.35 335.16 792.12 336.37 792.93 338.04 793.48 339.69 793.44 340.84 792.33 339.93 791.56 339.85 790.84 340.14 789.86 340.33 785.71 339.26 785.04 340.63 785.99 342.78 788.79 346.48 786.46 347.29 784.12 347.59 782.06 348.37 780.55 350.62 779.46 350.23 777.94 349.89 776.43 349.79 775.38 350.07 774.99 350.84 774.36 353.56 773.84 354.67 776.51 355.08 777.85 355.53 778.96 356.26 779.6 354 781.11 353.12 783.05 353.37 784.92 354.44 785.96 356.1 786.52 358.5 786.21 360.59 784.64 361.39 785.59 362.53 785.41 363.47 782.6 366.45 782.25 366.95 782.39 368.13 782.16 368.76 781.77 369.4 781.34 369.9 779.9 371.2 779.52 371.68 779.39 372.24 779.51 373.45 779.24 374.01 778.62 375.01 778.35 376.15 778.6 376.93 779.52 376.85 779.02 377.94 778.38 378.91 777.53 379.72 776.39 380.43 775.39 380.85 774.71 380.91 772.81 380.43 772.58 382.4 771.44 383.72 768.44 385.84 767.32 387.16 762.65 394.65 747.71 409.72 744.54 411.52 744.07 412.18 743.92 413.13 743.6 413.97 742.75 414.34 742.05 414.45 741.08 414.74 740.24 415.24 739.93 415.93 740.77 416.77 742.38 415.9 745.05 413.32 745.48 415.04 744.88 416.36 744.01 417.57 743.56 419 743.23 420.86 742.35 422.02 739.93 424.17 736.81 429.93 734.79 432.74 732.2 433.95 727.39 434.04 726 434.42 721.36 436.84 719.11 438.71 718.93 439.03 719.05 439.68 719.56 439.95 720.4 440.06 720.45 440.95 720.34 442.8 720.4 443.69 720.95 445.24 721.91 446.57 723.14 447.61 724.56 448.3 721.15 450.39 719.89 450.86 719.81 450.33 719.43 449.34 719.34 448.8 718.62 449.13 717.88 449.32 717.11 449.38 716.31 449.32 716.7 449.67 717.41 450.5 717.8 450.86 715.79 451.55 715.03 452.01 714.22 452.91 714.32 453.04 714.41 453.51 714.35 454.12 713.99 454.7 712.72 455.99 711.23 457.03 708.16 458.7 705.93 460.47 702.9 461.41 702.18 461.9 700.29 463.77 687.05 470.37 675.66 477.36 674.4 478.41 672.44 481.18 671.39 481.84 670.02 481.18 670.01 481.47 669.9 481.38 669.82 480.64 669.99 478.77 669.97 478.31 669.92 477.88 669.72 477.51 669.11 476.73 668.88 476.36 668.39 475.25 666.48 472.98 666.13 472.26 665.92 471.63 665.86 471.22 665.18 469.85 664.56 468.9 663.78 467.12 663.37 466.48 662.99 466.15 662.44 465.79 660.35 464.89 660.04 464.67 659.67 464.31 659.2 463.55 658.98 463 658.84 462.48 658.76 461.59 658.88 459.1 658.98 458.66 659.14 458.29 659.35 457.97 659.61 457.69 659.88 457.47 660.67 457.09 661.45 456.87 662.64 456.67 663.1 456.51 663.46 456.29 663.7 455.99 663.85 455.62 663.91 455.18 663.95 454.25 663.86 453.24 663.75 452.7 663.74 452.49 663.5 450.89 663.06 449.3 662.77 448.57 662.37 447.93 661.46 446.74 661.28 446.41 661.14 446.05 660.69 443.97 660.33 443.01 660.23 442.8 659.39 441.61 658.82 440.14 658.46 439.46 657.62 438.22 656.69 437.09 656.32 436.44 656.07 435.66 655.36 434.32 654.39 431.71 654.29 431.32 654.3 430.86 654.45 429.94 654.47 429.47 654.42 428.58 654.46 428.13 654.57 427.73 655.35 426.36 655.49 425.98 655.6 425.56 655.67 424.67 655.59 424.24 655.49 423.86 654.03 420.2 652.43 417.65 650.9 415.81 650.47 415.13 650.29 414.75 650.24 414.35 650.25 413.89 650.43 413.01 650.47 412.54 650.46 412.09 650.36 411.69 650.2 411.34 649.85 410.91 648.56 409.54 648.33 408.99 648.26 408.53 648.3 408.16 648.18 407.71 647.89 407.24 647.28 406.57 647 406.06 646.84 405.59 646.45 403.96 646.32 403.59 646.14 403.25 644.61 401.12 644.14 400.05 643.76 399.41 643.22 398.97 639.23 396.4 639 396.1 638.74 395.83 637.77 395.16 637.47 394.92 637.23 394.64 636.89 393.95 636.59 392.74 636.45 392.37 635.97 392.01 635.23 391.69 631.55 390.82 628.1 389.32 627.12 388.76 626.54 388.25 626.41 387.88 626.17 386.63 625.75 385.51 625.56 385.18 625.06 384.63 624.77 384.39 624.13 383.95 623.61 383.77 621.73 383.42 620.99 383.16 619.87 382.38 618.52 381.61 618.26 381.25 618.07 380.87 617.84 380.09 617.57 379.74 617.19 379.42 616.48 379.06 615.79 378.62 615.7 378.52 615.46 378.17 614.97 377.66 614.07 377.03 613.54 376.58 613.25 376.39 611.01 375.25 610.61 375.12 610.04 375.2 608.34 375.65 607.44 375.77 606.97 375.79 602.97 375.22 602.23 374.97 601.02 374.38 599.92 373.69 598.92 372.57 598.52 371.94 597.84 370.57 597.64 370.26 597.3 369.97 596.22 369.3 595.97 368.92 595.94 368.51 596.04 368.12 596.09 367.72 595.98 367.35 595.68 367.03 594.39 366.32 593.53 365.73 592.56 365.36 591.72 365.18 590.68 364.35 589.9 363.88 586.17 362.44 585.13 361.87 584.51 361.38 584.35 361.02 584.16 360.7 583.91 360.42 583.05 359.68 582.79 359.41 582.4 358.83 582.04 358.59 581.52 358.4 578.82 358.35 577.96 358.7 577.53 358.76 576.99 358.66 576.33 358.3 575.9 358.01 575.58 357.7 575.09 357.14 574.04 355.59 573.79 355.32 573.37 355.09 572.79 354.95 571.73 354.98 571.12 355.09 570.66 355.27 570.04 355.71 569.37 356.07 568.98 356.19 568.53 356.27 567.39 356.34 566.94 356.47 566.61 356.7 565.86 357.56 565.58 357.8 563.57 358.91 562.79 359.16 562.36 359.23 561.79 359.19 561.16 359.01 560.33 358.55 559.58 357.83 559.18 357.62 558.64 357.5 557.76 357.43 557.21 357.23 556.71 356.68 556.42 355.71 556.05 355.35 555.41 355.02 554.16 354.58 553.59 354.21 553.2 353.85 553.03 353.5 552.22 352.25 551.9 351.94 551.45 351.66 550.21 351.03 549.63 350.85 548.67 350.9 548.15 351.02 547.78 351.16 546.72 351.93 546.21 352.48 544.75 354.83 544.29 355.4 543.99 355.64 543.66 355.83 543.28 355.98 542.89 356.09 541.57 356.31 541.19 356.44 539.49 357.35 539.13 357.44 538.71 357.33 538.27 356.86 538.02 356.45 537.66 355.7 537.41 355.42 534.94 354.25 534.37 353.83 534.02 353.41 532.51 349.34 532.13 348.68 531.62 348.14 531.4 347.85 531.22 347.5 531.03 346.7 530.89 346.33 530.72 345.99 530.28 345.38 529.26 344.29 528.15 343.3 526.89 342.4 526.37 341.87 488.84 341.32 492.74 337.56 493.75 336.07 493.92 335.53 494.48 334.58 497.82 331.22 498.52 329.76 498.82 328.98 500.01 326.7 502 324.12 506.02 322.54 506.5 322.05 506.94 321.3 509.16 318.94 510.09 318.21 510.83 317.9 512.42 317.5 513.21 317.18 514.45 316.2 515.12 315.8 516.02 315.64 517.47 315.11 522.36 311.15 522.62 310.82 523.05 310.58 523.97 310.47 524.88 310.63 526.33 311.37 526.78 311.54 528.23 311.27 535.9 307.14 538.51 305.02 540.66 302.7 543.34 299.1 546.26 296.16 547.4 295.57 553.31 295.57 554.72 294.63 556.44 292.91 557.68 291.05 557.66 289.68 556.97 288.12 557.87 287.04 559.51 286.44 560.99 286.3 566.89 286.81 567.95 286.35 569.9 284.06 571.24 283.22 574.49 283.26 576.23 285.19 577.79 287.54 580.51 288.86 581.66 288.56 583.03 287.77 584.18 286.82 584.66 286.07 585.38 285.61 598.02 283.28 599.54 282.19 602.12 279.59 605.07 278.08 611.58 277.35 614.51 276.52 616.83 275.49 619.12 275.07 621.42 275.42 624.25 276.52 627.16 277.29 636.59 277.03 638.36 276.77 640.86 275.35 641.97 275.03 647.01 274.4 648.42 273.96 652.57 270.85 654.94 270.08 658.15 267.86 662.64 266.9 663.37 266.53 663.77 264.75 664.83 263.31 666.29 262.25 667.93 261.61 671.24 261.25 673.18 261.37 675.93 262.48 677.71 261.74 680.32 259.61 682.97 258 684.65 257.29 686.2 257 686.8 256.76 687.56 255.7 688.24 255.47 691.09 254.95 692.62 254.3 694.3 253.24 695.65 251.94 696.21 250.57 696.67 249.74 697.79 248.92 699.14 248.23 700.31 247.78 702.66 247.44 703.43 247.22 703.93 246.85 704.43 246.34 705.01 245.88 705.76 245.68 708.83 245.49 710.23 245.17 711.67 244.66 715.99 241.52 717.59 241.07 720.71 241.07 723.09 241.58 724.02 241.58 726.47 240.29 730.71 235.19 732.73 233.34 734.88 232.18 735.91 231.38 736.93 229.37 738.33 228.72 741.48 227.71 742.21 227.13 744.04 225.14 745 224.56 745.38 224.62 745.8 224.94 748.56 225.37 749.51 225.93 750.23 226.62 751.26 227.24 Z" fill-rule="evenodd" id="MOZ-1200" data-name="Nampula"/>
<path d="M 168.49 814.45 171.72 817.1 175.95 819.6 177.13 820.08 181.98 819.88 183.48 820.08 186.41 821.26 194.86 827.36 195.99 827.85 197.26 828.19 198.69 828.32 202.99 827.78 204.12 827.81 205.16 828.19 206.53 828.96 207.71 829.98 208.22 831.11 208.4 833.3 209 833.94 210.12 833.89 211.85 834 212.46 834.57 213.89 835.6 215.33 836.01 216 834.75 216.49 833.47 217.69 832.03 219.19 830.74 220.56 829.9 225.1 828.03 226.46 827.81 228.16 828.09 230.86 829.12 230.42 830.74 230.09 831.52 229.71 832.19 227.49 834.75 226.3 836.69 225.81 837.27 225.29 837.81 224.11 838.79 222.56 840.46 221.98 841.44 221.75 841.73 221.36 842.39 221.22 842.76 221.12 843.17 221.06 843.6 221.04 844.06 221.07 844.54 222.08 848.46 222.21 849.32 222.17 849.92 221.9 850.7 221.72 851.52 221.71 852.44 221.85 852.97 222.17 853.49 229.83 862.5 234.96 866.29 235.1 866.51 235.2 866.91 235.19 868.78 235.3 869.9 235.62 871.04 238 874.47 238.14 875.31 238.18 875.91 237.95 877.77 236.77 882.62 236.79 883.11 237.15 884.92 237.25 886.33 237.14 887.69 237.21 888.65 238.04 891.68 238.21 893.12 238.17 893.56 238.04 893.94 237.76 894.2 237.39 894.4 235.22 895.08 234.54 895.51 234.28 895.77 234.09 896.09 233.99 896.5 233.83 899.3 233.77 899.73 232.97 902 232.25 906.27 232.26 906.74 232.31 907.23 232.52 908.18 233.3 909.98 237.79 916.53 238.27 916.99 238.7 917.33 239.69 917.95 239.99 918.2 240.5 918.76 241.4 919.99 242.03 921.03 243.42 922.87 244.82 924.17 247.05 925.62 247.55 925.83 248.19 926.18 249.97 927.62 251.34 928.41 251.94 928.89 252.44 929.47 252.88 930.14 253.36 930.73 253.68 930.96 255.35 931.98 255.93 932.48 256.93 933.65 258.13 935.69 260.77 939.13 261.27 940.62 261.46 941.97 261.43 943.32 261.55 943.78 262.04 944.3 262.45 944.61 262.85 944.84 263.16 945.08 263.91 945.96 264.19 946.22 264.82 946.67 265.72 947.57 266.52 948.56 267.1 948.93 267.65 949.16 268.05 949.29 268.43 949.54 269.31 950.45 269.71 950.75 270.17 951.26 270.63 951.9 272.33 954.79 272.57 955.09 272.84 955.36 273.35 955.96 273.52 956.35 273.65 956.79 273.65 957.96 273.75 958.59 273.99 959.25 274.99 960.83 275.28 961.48 275.39 962.43 275.39 964.51 275.55 965.05 275.81 965.55 276.45 966.21 276.92 966.55 277.72 966.98 277.99 967.26 278.17 967.57 278.09 968.05 277.86 968.38 277.5 968.61 275.34 969.24 274.47 969.26 274.08 969.33 273.79 969.54 273.63 969.88 273.58 970.31 273.6 970.77 273.71 971.29 273.92 971.85 274.74 973.15 274.85 973.77 274.84 974.19 274.88 974.61 275.07 975.01 275.84 975.64 276.16 976.06 276.41 976.6 276.64 977.64 276.85 978.26 277.19 978.7 277.32 978.84 277.42 978.9 277.83 979.03 278.25 979.07 279.25 979.06 279.78 979.31 280.26 979.82 281.27 981.65 281.41 982.21 281.23 982.68 280.96 983.02 280.68 983.31 280.49 983.62 280.47 984.02 280.66 984.46 281.1 985.04 281.33 985.47 281.24 985.99 280.98 986.3 280.62 986.56 280.24 986.75 279.9 986.96 279.7 987.28 279.57 987.65 279.23 988.35 278.99 988.65 278.74 988.92 277.47 989.87 277.27 990.19 277.13 990.56 277.16 990.96 277.34 991.29 277.85 991.45 278.28 991.39 278.71 991.24 279.45 990.86 279.84 990.72 280.25 990.69 280.61 990.83 280.94 991.19 282.07 993.15 282.24 993.67 282.21 994.21 282.01 994.58 281.47 995.15 281.27 995.48 281.22 996.34 281.13 996.7 280.26 997.92 280.11 998.29 280.04 1000.17 279.84 1001.48 279.89 1002.67 279.61 1003.5 279.54 1004.05 279.62 1004.79 279.93 1006.19 279.9 1006.88 279.78 1007.42 279.66 1007.78 279.61 1008.21 280.12 1013.33 279.92 1014.72 280.02 1015.5 279.92 1015.95 279.81 1016.26 279.73 1016.35 279.63 1016.5 279.09 1017.61 278.84 1018.37 278.79 1018.82 278.82 1019.26 279.39 1021.47 279.43 1022.02 279.42 1022.71 279.5 1022.91 279.68 1022.87 280.2 1022.38 280.7 1022.19 281.22 1022.12 281.65 1022.21 282.06 1022.34 282.8 1022.68 283.18 1022.82 283.6 1022.86 284.34 1022.74 284.55 1022.87 284.89 1039.01 285.06 1040.15 285.38 1041.35 294.6 1055.99 295.14 1056.62 295.68 1056.8 298.78 1055.83 301.95 1055.23 302.84 1054.97 303.61 1054.59 303.94 1054.36 304.56 1054.02 304.71 1053.96 304.87 1053.93 305.74 1053.8 306.16 1053.68 306.54 1053.5 307.55 1052.84 307.98 1052.7 308.49 1052.64 309.45 1052.62 309.9 1052.53 310.95 1051.94 311.42 1051.83 312.94 1051.77 313.41 1051.71 313.83 1051.57 315.78 1050.7 316.22 1050.65 316.63 1050.74 317 1050.89 317.23 1051.18 317.24 1051.6 316.71 1052.38 314.44 1054.47 313.84 1055.21 313.48 1056.12 314.18 1057.23 319.84 1062.5 320.12 1063.02 319.73 1063.42 309.03 1068.51 308.1 1069.09 307.45 1069.72 307.57 1070.56 307.85 1071.68 307.99 1072.74 308.29 1073.79 308.73 1074.61 309.41 1075.35 310.71 1075.65 316.58 1075.83 318.84 1076.65 321.15 1080.33 321.15 1080.34 311.34 1084.15 309.38 1084.68 301.04 1087.88 296.86 1088.49 280.15 1094.14 264.8 1099.31 253.99 1104.52 244.95 1107.42 233.91 1112.96 230.88 1113.7 230.88 1113.18 232.1 1112.68 233.34 1111.92 234.4 1111.02 235.03 1110.07 234.03 1110.36 230.98 1111.74 230.32 1112.44 229.41 1113.06 227.56 1113.25 226.18 1113.73 226.69 1115.29 227.13 1115.03 228.23 1114.67 227.13 1116.34 225.41 1117.34 221.56 1118.88 219.98 1119.88 219.98 1119.88 219.85 1116.54 219.91 1116.12 220.25 1114.92 220.55 1113.22 220.56 1112.76 220.35 1111.37 220.22 1110.95 219.87 1110.19 219.23 1109.18 218.87 1108.79 218.35 1108.41 217.29 1107.89 216.02 1107.5 210.69 1106.96 210.37 1106.86 210.12 1106.2 210 1105.51 210.01 1105.16 210.06 1104.9 210.37 1103.93 210.43 1103.51 210.04 1101.22 210.07 1099.91 209.95 1099.22 209.83 1098.89 209.79 1098.6 209.87 1098.27 210 1097.48 209.93 1097.05 209.63 1096.61 209.09 1096.23 207.99 1095.77 207.24 1095.6 205.58 1095.45 205.14 1095.31 204.78 1095.01 204.6 1094.23 204.1 1086.33 204.2 1086.01 204.4 1085.71 204.65 1085.45 204.91 1085.16 205.12 1084.85 205.08 1084.34 204.86 1083.61 204.14 1082.35 204.08 1081.21 204.2 1080.08 205.45 1075.95 205.32 1075.05 204.68 1074.5 200.85 1073.06 199.83 1072.47 198.67 1071.59 198.1 1071.04 197.75 1070.55 197.4 1068.69 197.12 1067.87 196.75 1067.14 192.11 1060.66 189.24 1057.55 189.03 1057.2 188.86 1056.83 188.72 1056.4 188.36 1048.97 188.43 1047.83 188.39 1047.5 188.24 1047.13 187.98 1046.77 187.53 1046.41 187.1 1046.21 185.21 1045.64 184.3 1045.18 183.97 1044.96 183.61 1044.78 183.15 1044.66 182.54 1044.62 181.03 1044.91 179.22 1045.52 178.75 1045.62 178.22 1045.68 177.55 1045.63 176.8 1045.47 175.67 1045.02 173.58 1043.81 171.33 1043.01 170.91 1042.74 166.86 1038.57 166.25 1038.09 165.58 1037.69 164.39 1037.25 155.59 1036.09 153.76 1035.22 153.12 1035.07 150.7 1034.68 149.33 1034.25 149.01 1034.03 148.06 1033.51 143.69 1032.89 141.89 1032.38 141.2 1032.27 140.63 1032.23 140.08 1032.27 130.69 1036.47 129.51 1037.15 125.24 1028.67 124.76 1025.49 124.27 1013.6 124.22 1012.37 123.81 1011.18 122.93 1010.22 118.08 1006.94 116.67 1005.71 115.61 1004.14 112.57 997.55 109.67 988.17 108.19 985.46 100.99 978.29 99.59 975.62 99.13 972.53 100.7 955.39 100.24 953.12 95.08 938.26 91.99 929.34 88.13 918.2 84.26 907.04 80.94 897.47 81.68 896.12 87.66 892.19 92.55 888.97 96.45 884.93 100.38 880.85 104.32 876.77 108.25 872.7 112.19 868.61 116.11 864.53 120.05 860.45 123.98 856.36 127.92 852.28 131.85 848.2 135.79 844.12 139.72 840.04 143.65 835.96 147.59 831.88 151.52 827.8 155.46 823.72 159.39 819.64 163.03 815.87 165.69 813.05 168.59 814.8 168.49 814.45 Z" id="MOZ-1207" data-name="Gaza"/>
<path d="M 384.18 545.4 385.12 545.97 385.94 546.65 388.44 549.63 389.44 550.18 389.88 550.91 391.18 551.99 391.51 552.57 391.92 552.66 392.36 553.89 392.83 556.57 393.21 557.8 393.84 558.62 396.59 560.07 397.51 560.85 398.14 561.71 399.04 563.74 399.65 564.62 400.49 565.13 401.44 565.53 402.39 566.07 404.69 568.25 405.71 568.65 406.67 568.65 408.58 568.19 409.29 568.09 410.38 568.4 412.17 569.41 414.54 569.95 416.06 570.76 418.79 572.98 422.53 574.63 424.02 575.84 423.22 577.36 425.19 579.26 425.73 579.92 426.88 581.94 427.36 582.48 427.17 584.41 428.68 585.9 433.27 588.1 436.49 589.24 437.29 589.76 438.3 591.05 439.1 591.8 440.71 592.55 441.79 593.79 442.55 595.18 443.2 596.92 443.63 598.75 443.99 599.66 444.5 600.05 444.54 600.66 445.58 603.51 446.07 604.4 446.42 605.25 446.32 608.71 446.68 609.74 447.06 610.56 446.88 611.08 445.55 611.27 444.12 612.3 443.83 614.63 444.19 617.09 444.74 618.49 443.32 619.11 443.62 619.86 444.99 620.18 446.83 619.51 448.15 621.36 449.49 622.74 449.6 623.2 448.28 625.11 447.4 625.92 446.37 626.49 445.3 626.73 445.2 626.8 445.19 626.81 445.19 626.48 444.49 626.22 443.78 626.33 443.35 626.61 441.09 629.01 437.5 634.1 435.92 635.24 433.45 635.54 433.91 634.01 433.61 633.2 432.87 633.15 431.96 633.95 431.52 635.04 431.21 636.38 430.76 637.67 429.87 638.56 428.26 638.91 427.36 638.28 426.68 637.39 425.71 636.98 424.99 637.15 424.34 637.53 423.9 638.11 423.71 638.84 423.96 639.58 424.53 639.44 425.21 639.07 425.71 639.12 425.25 640.31 414.44 647.36 413.77 648.11 412.61 649.75 411.84 650.39 410.9 650.17 409.86 651.16 408.25 653.98 408.8 653.72 409.22 653.61 410.3 653.47 410.3 653.98 408.22 655.1 406.24 656.62 402.57 660.13 404.11 660.13 403.48 661.17 400.14 664.83 399.59 665.2 398.72 665.34 398.07 665.59 397.79 666.19 397.58 666.93 397.17 667.63 393.3 672.52 385.66 680.25 376.86 686.96 369.67 694.08 367.07 695.16 365.19 695.66 361.1 699.67 358.83 701.31 358.14 700.53 357.29 701.09 355.25 703.41 351.16 705.97 348.79 705.09 348.15 704.54 347.61 703.41 347.21 701.25 346.88 700.21 346.33 699.77 345.7 699.38 342.52 696.7 338.93 695.44 338.08 694.88 335.12 690.65 334.5 689.99 333.36 689.49 332.86 688.33 332.59 686.96 332.15 685.89 331.41 685.41 330.22 684.92 328.91 684.54 327.79 684.4 326.63 684.87 325.85 686.96 324.92 687.43 324.92 687.98 326.1 687.91 327.52 686.7 328.8 686.41 330.11 686.57 331.18 687.07 331.89 687.95 332.41 690.27 333.06 691.42 337.04 696.93 337.5 697.21 338.26 697.46 339.59 697.72 340.28 697.97 340.74 698.56 341.41 699.77 343.17 701.67 343.47 702.34 343.12 704.32 341.97 706.39 340.28 707.73 338.34 707.5 338.53 708.79 339.24 708.79 340.14 708.26 340.9 707.97 342.23 708.35 342.51 708.96 341.92 711.1 341.97 712.31 342.46 714.73 342.52 715.7 342.44 716.32 342.3 716.73 342.06 717.07 341.67 717.51 341.31 718.23 341.45 718.87 341.75 719.47 341.92 720.08 341.82 721.72 341.92 722.45 342.15 723.02 342.81 724.12 343.05 725.24 343.41 726.35 343.47 727.01 343.27 727.63 342.66 728.34 342.52 728.85 341.89 729.75 340.43 729.35 338.08 728.04 336.84 728.34 335.78 728.8 334.93 728.76 334.29 727.58 334.38 728.15 334.36 728.57 334.29 729.11 335.45 730.37 340.9 733.21 340.9 733.68 340.28 734.29 339.71 735.19 339.22 736.26 338.42 738.77 338.08 739.55 336.54 741.15 336.14 742.25 337.91 743.42 337.55 744.23 336.39 745.03 335.41 745.36 334.41 745.2 333.17 744.44 333.44 745.54 333.84 746.65 334.36 747.63 334.99 748.37 335.96 749.02 337.56 749.3 338.34 749.65 338.57 750.17 338.87 751.26 338.96 752.51 338.6 753.53 335.63 755.91 335.27 756.82 337.9 755.53 339.47 755.17 340.64 755.57 340.83 757.51 341.38 758.25 342.52 757.39 343.13 758.95 344.14 759.66 345.43 760.18 346.81 761.23 347.59 762.15 348.16 763.11 348.51 764.3 348.64 765.86 349.04 766.56 351.18 765.08 352.17 765.63 352.1 766.81 351.11 767.53 350.25 768.33 350.58 769.73 351.01 769.09 351.61 768.66 352.37 768.38 353.25 768.19 356.83 768.44 357.21 769.07 359.66 771.01 359.96 771.74 360.01 772.81 359.9 774.8 360.72 774.34 361.37 774.39 361.81 774.89 361.96 775.83 361.71 776.35 360.65 777.37 360.42 778.16 360.88 779.47 363.18 781.48 364.06 782.55 363.54 783.44 363.15 784.44 362.94 785.5 362.98 786.64 365.08 785.03 366.14 784.79 367.63 785.61 368.15 786.04 368.28 786.22 368.35 786.49 368.66 787.2 368.6 787.7 368.16 787.7 366.88 787.83 365.3 788.93 364.3 789.19 358.46 790.03 350.78 793.04 349.97 793.51 349.63 794.13 349.14 794.7 345.09 797.31 343.85 799.11 342.24 800.74 339.84 801.07 339.08 800.72 335.79 798.23 335.12 798.2 334.38 798.39 333.44 798.51 332.19 798.91 328.58 801.58 319.87 804.1 317.77 805.68 314.49 810.59 312.33 813.11 309.99 814.48 308.67 814.48 307.48 814 305.19 812.13 303.4 811.41 301.89 812.13 299.79 814.48 298.04 815.41 296.79 815.1 295.82 814.35 294.9 813.93 286.29 814.64 286.7 809.37 286.89 808.39 287.27 807.33 287.62 807 288.75 806.42 289.03 806.16 289.17 805.74 289.2 805.18 289.05 804.34 289.03 803.65 289.14 802.97 289.58 802.16 289.95 801.72 290.37 801.44 291.18 801.14 292.69 800.41 293.31 799.95 293.58 799.69 293.81 799.39 294.02 799.06 294.45 797.96 294.53 797.51 294.52 796.97 294.28 796.2 293.95 795.72 293.45 795.2 285.9 789.7 285.14 789.46 279.07 788.98 278.13 788.83 277.53 788.51 277.28 787.73 276.95 772.3 276.81 771.32 276.5 770.43 275.68 769.8 266.75 766.77 265.71 766.23 246.91 747.72 246.66 746.74 246.6 745.75 246.66 744.83 246.62 744.15 246.5 743.67 246.53 742.92 246.76 741.88 248.25 738.11 248.32 737.69 248.23 737.16 248.08 736.75 247.67 736.04 246.74 734.83 246.53 734.48 246.31 733.6 246.15 732.1 246.05 731.65 245.9 731.28 245.67 730.97 245.04 730.53 243.1 729.84 242.81 729.6 242.6 729.28 240.73 722.97 240.78 722.52 241.04 722.09 247.97 716.66 248.35 716.14 249.09 715.46 249.4 715.23 249.77 715.04 250.15 714.87 251.01 714.6 251.78 714.27 252.12 714.07 252.9 713.26 253.21 713.03 253.57 712.84 254.43 712.6 254.93 712.56 256.39 712.59 256.85 712.51 257.26 712.38 259 711.38 259.38 711.25 259.78 711.24 260.14 711.36 260.41 711.62 260.62 711.94 260.96 713.26 261.14 713.61 261.47 713.81 262.21 714.12 262.55 714.3 263.14 714.77 264.57 716.25 264.66 716.31 264.85 716.41 265.18 716.48 266.06 716.51 266.36 716.54 266.58 716.38 268.55 713.19 268.64 713.11 268.79 713.02 269.82 712.59 271.66 712.27 272.16 712.09 272.39 711.96 272.53 711.86 273.37 711.11 273.79 710.84 274.36 710.55 276.84 709.65 277.47 709.21 277.71 708.99 277.96 708.68 278.55 707.54 278.85 707.11 279.21 706.77 281.08 705.74 281.31 705.56 281.73 705.02 281.85 704.95 282.03 704.91 282.98 704.88 283.75 704.75 285.03 704.25 285.34 704.07 285.15 703.97 283.93 703.45 283.66 703.27 283.49 703.11 282.84 702.38 282.51 702.12 282.16 701.94 281.77 701.83 280.85 701.84 280.4 701.8 280 701.65 279.67 701.41 279.42 701.13 278.91 700.08 278.64 699.83 278.29 699.65 277.86 699.54 276.25 699.57 275.74 699.53 275.64 698.76 275.6 697.3 276.06 693.68 276.07 692.16 275.98 691.2 274.13 688.37 273.95 687.98 273.82 687.59 273.64 686.76 273.72 686.27 273.95 685.8 274.71 685.32 275.34 685.12 276.14 685.02 278.06 684.97 278.95 684.76 279.46 684.32 279.63 683.08 279.66 664.31 287.19 637.76 287.6 635.34 287.02 635.41 286.11 635.09 285.41 634.37 284.99 633.64 284.5 632.97 283.6 632.48 281.81 632.18 281.08 631.88 280.4 631.12 280.01 630.27 279.5 628.55 279.03 627.74 278.32 627.12 277.57 626.82 276.76 626.62 275.9 626.29 275.14 625.66 274.77 624.9 274.49 624.1 273.97 623.29 273.22 622.77 270.55 621.98 267.96 620.42 266.9 620.17 264.5 620.02 263.67 618.23 263.77 617.33 264.53 614.66 264.93 613.86 266.01 612.54 268.25 610.36 269.48 608.49 269.88 608.01 270.25 607.65 270.9 607.23 271.68 606.41 272.26 605.56 272.72 605.28 273.14 605.16 273.54 605.11 273.94 604.85 275.21 603.22 275.48 602.73 275.49 602 275.35 601.54 275.15 601.13 274.71 600.5 274.52 600.14 274.39 599.73 274.22 598.81 274.04 598.46 273.67 598.33 272.91 598.2 272.74 597.92 272.7 597.53 272.76 597.13 273.53 594.86 273.67 594.01 273.68 593.56 273.64 593.1 273.51 592.69 273.2 591.93 271.42 588.86 271.26 588.49 271.2 588.07 271.32 587.58 273.4 585.44 274.27 584.22 274.52 583.95 275.74 583.03 277.54 582.1 278.48 581.42 279.28 580.65 279.52 580.27 279.71 579.78 280.18 577.43 280.66 576.41 281.48 576.52 281.92 576.65 284.14 576.99 284.86 577.22 285.09 577.36 285.28 577.51 286.32 578.48 286.56 578.77 287.32 580.16 287.59 580.98 287.75 581.92 287.88 582.33 288.06 582.68 288.57 583.22 288.88 583.46 289.84 584.06 290.15 584.29 290.88 585.03 291.93 585.66 292.69 585.95 293.45 586.17 293.83 586.22 294.4 586.11 294.64 585.99 294.76 585.94 294.91 585.84 297.2 582.82 298.02 582.17 299.01 582.03 302.17 582.44 303.39 581.3 304.35 578.97 306.15 572.4 306.49 569.38 306.51 567.27 306.05 566.24 306.02 566.02 306.42 562.75 306.27 561.98 306.01 561.5 305.41 561.14 305.04 560.8 304.1 559.72 303.89 559.38 303.61 559.07 303.19 558.74 296.99 556.49 296.27 555.95 296.09 555.1 296.11 554.12 297.12 546.85 296.98 545.82 294.79 537.83 294.71 536.77 294.89 535.81 297.92 528.82 298.2 527.82 298.18 523.9 298.77 520.12 299.84 516.94 301.19 514.11 301.76 512.53 301.95 511.13 301.7 506.88 301.73 506.37 301.81 505.86 301.99 505.28 306.44 496.41 306.92 495.83 308.09 494.98 310.34 493.81 310.97 493.58 314.73 492.66 320.23 490.17 320.71 489.84 322.24 488.58 323.09 487.72 323.95 486.41 325.37 483.34 329.85 478.35 335.49 481.33 341.2 482.89 342.95 483.72 349.72 489.2 350.35 489.95 351.42 492.22 353.26 499.69 356.26 504.57 357.7 507.7 358.57 510.58 358.72 512.08 359.13 512.17 359.42 512.86 360.64 514.77 360.92 515.82 361.07 516.19 361.85 517.21 364.04 522.41 364.7 525.6 365.03 526.21 366.2 527.44 366.59 528.02 367.56 530.69 367.64 531.12 367.63 532.54 367.73 533 368.08 533.68 369.07 534.95 370.28 536.17 372.62 537.73 374.56 539.44 375.28 539.75 375.83 540.55 376.79 541.22 381.61 543.57 383.31 544.88 384.18 545.4 Z" id="MOZ-1905" data-name="Sofala"/>
<path d="M 445.19 626.81 445.2 626.8 445.3 626.73 446.37 626.49 447.4 625.92 448.28 625.11 449.6 623.2 449.49 622.74 448.15 621.36 446.83 619.51 444.99 620.18 443.62 619.86 443.32 619.11 444.74 618.49 444.19 617.09 443.83 614.63 444.12 612.3 445.55 611.27 446.88 611.08 447.06 610.56 446.68 609.74 446.32 608.71 446.42 605.25 446.07 604.4 445.58 603.51 444.54 600.66 444.5 600.05 443.99 599.66 443.63 598.75 443.2 596.92 442.55 595.18 441.79 593.79 440.71 592.55 439.1 591.8 438.3 591.05 437.29 589.76 436.49 589.24 433.27 588.1 428.68 585.9 427.17 584.41 427.36 582.48 426.88 581.94 425.73 579.92 425.19 579.26 423.22 577.36 424.02 575.84 422.53 574.63 418.79 572.98 416.06 570.76 414.54 569.95 412.17 569.41 410.38 568.4 409.29 568.09 408.58 568.19 406.67 568.65 405.71 568.65 404.69 568.25 402.39 566.07 401.44 565.53 400.49 565.13 399.65 564.62 399.04 563.74 398.14 561.71 397.51 560.85 396.59 560.07 393.84 558.62 393.21 557.8 392.83 556.57 392.36 553.89 391.92 552.66 391.51 552.57 391.18 551.99 389.88 550.91 389.44 550.18 388.44 549.63 385.94 546.65 385.12 545.97 384.18 545.4 384.89 542.21 384.97 527.65 384.12 523.4 384.09 523.07 384.16 521.26 384.25 520.64 384.47 520.12 385.39 518.73 385.42 518.11 384.88 515.41 383.12 512.06 382.73 510.63 382.35 501.94 382.05 500.8 382.07 500.8 382.63 499.95 383.04 498.92 383.24 497.67 383.14 496.15 382.48 493.32 382.57 492.11 383.37 490.74 383.75 489.76 383.3 489.12 380.87 487.73 380.52 487.38 380.49 486.91 380.86 486.53 381.31 486.2 381.55 485.85 381.38 483 381.56 481.42 383.44 479.88 383.06 478.01 381.55 475.09 381.25 473.6 381.03 468.64 380.8 468.24 378.99 466.33 378.79 466.19 378.15 465.92 377.92 465.78 377.62 465.37 377.23 464.6 376.89 464.24 376.41 463.98 374.77 463.37 374.08 463.25 373.24 462.99 372.81 462.36 372.5 461.59 371.29 459.73 370.06 456.4 371.01 455.75 376.25 452.39 377.28 451.34 377.69 450 377.67 447.01 377.96 446 378.07 445.63 379.84 443.56 380.14 442.8 379.24 440.69 379.06 439.9 379.58 436.43 380.96 433.61 382.61 431.72 383.04 431.22 388.27 426.63 389.68 425.7 391.38 425.27 392.86 425.35 394.41 425.76 395.65 426.57 396.19 427.83 396.83 428.41 397.83 428.87 398.77 428.91 399.26 428.22 399.49 427.06 399.86 426.62 401.67 426.44 408.83 424.35 409.61 424.31 411.03 424.57 411.72 424.51 412.51 424.12 417.94 420.47 419.08 419.23 419.79 417.6 419.87 416.43 419.45 414.14 419.42 412.95 419.94 411.04 420.7 408.24 421.45 397.44 421.92 390.79 422.59 381.42 423.01 375.47 423.02 375.4 424.93 375.4 449.99 375.2 450.67 375.29 451.14 375.45 451.48 375.65 452.34 376.44 452.68 376.64 453.07 376.79 453.54 376.89 453.95 377.03 454.33 377.2 454.99 377.62 455.72 377.98 456.14 378.11 456.71 377.93 457.35 377.46 458.27 376.09 458.68 375.32 458.91 374.64 459.01 373.14 458.93 372.24 458.84 371.83 458.81 371.41 458.83 371 458.96 370.62 459.13 370.28 460.74 368.24 462.82 364.3 463.08 363.96 463.39 363.68 463.95 363.54 464.41 363.57 465.73 363.88 466.18 363.89 466.63 363.85 467 363.71 468.26 363 468.74 362.88 469.67 362.75 470 362.58 472.68 360.74 473.22 360.52 473.63 360.45 474.57 360.39 475 360.32 475.38 360.17 477.76 358.77 481.93 354.26 482.94 353.44 483.28 352.96 483.64 351.96 483.98 351.4 484.5 351 485.04 350.68 485.56 350.18 488.63 345.58 488.93 344.44 488.84 341.32 526.37 341.87 526.89 342.4 528.15 343.3 529.26 344.29 530.28 345.38 530.72 345.99 530.89 346.33 531.03 346.7 531.22 347.5 531.4 347.85 531.62 348.14 532.13 348.68 532.51 349.34 534.02 353.41 534.37 353.83 534.94 354.25 537.41 355.42 537.66 355.7 538.02 356.45 538.27 356.86 538.71 357.33 539.13 357.44 539.49 357.35 541.19 356.44 541.57 356.31 542.89 356.09 543.28 355.98 543.66 355.83 543.99 355.64 544.29 355.4 544.75 354.83 546.21 352.48 546.72 351.93 547.78 351.16 548.15 351.02 548.67 350.9 549.63 350.85 550.21 351.03 551.45 351.66 551.9 351.94 552.22 352.25 553.03 353.5 553.2 353.85 553.59 354.21 554.16 354.58 555.41 355.02 556.05 355.35 556.42 355.71 556.71 356.68 557.21 357.23 557.76 357.43 558.64 357.5 559.18 357.62 559.58 357.83 560.33 358.55 561.16 359.01 561.79 359.19 562.36 359.23 562.79 359.16 563.57 358.91 565.58 357.8 565.86 357.56 566.61 356.7 566.94 356.47 567.39 356.34 568.53 356.27 568.98 356.19 569.37 356.07 570.04 355.71 570.66 355.27 571.12 355.09 571.73 354.98 572.79 354.95 573.37 355.09 573.79 355.32 574.04 355.59 575.09 357.14 575.58 357.7 575.9 358.01 576.33 358.3 576.99 358.66 577.53 358.76 577.96 358.7 578.82 358.35 581.52 358.4 582.04 358.59 582.4 358.83 582.79 359.41 583.05 359.68 583.91 360.42 584.16 360.7 584.35 361.02 584.51 361.38 585.13 361.87 586.17 362.44 589.9 363.88 590.68 364.35 591.72 365.18 592.56 365.36 593.53 365.73 594.39 366.32 595.68 367.03 595.98 367.35 596.09 367.72 596.04 368.12 595.94 368.51 595.97 368.92 596.22 369.3 597.3 369.97 597.64 370.26 597.84 370.57 598.52 371.94 598.92 372.57 599.92 373.69 601.02 374.38 602.23 374.97 602.97 375.22 606.97 375.79 607.44 375.77 608.34 375.65 610.04 375.2 610.61 375.12 611.01 375.25 613.25 376.39 613.54 376.58 614.07 377.03 614.97 377.66 615.46 378.17 615.7 378.52 615.79 378.62 616.48 379.06 617.19 379.42 617.57 379.74 617.84 380.09 618.07 380.87 618.26 381.25 618.52 381.61 619.87 382.38 620.99 383.16 621.73 383.42 623.61 383.77 624.13 383.95 624.77 384.39 625.06 384.63 625.56 385.18 625.75 385.51 626.17 386.63 626.41 387.88 626.54 388.25 627.12 388.76 628.1 389.32 631.55 390.82 635.23 391.69 635.97 392.01 636.45 392.37 636.59 392.74 636.89 393.95 637.23 394.64 637.47 394.92 637.77 395.16 638.74 395.83 639 396.1 639.23 396.4 643.22 398.97 643.76 399.41 644.14 400.05 644.61 401.12 646.14 403.25 646.32 403.59 646.45 403.96 646.84 405.59 647 406.06 647.28 406.57 647.89 407.24 648.18 407.71 648.3 408.16 648.26 408.53 648.33 408.99 648.56 409.54 649.85 410.91 650.2 411.34 650.36 411.69 650.46 412.09 650.47 412.54 650.43 413.01 650.25 413.89 650.24 414.35 650.29 414.75 650.47 415.13 650.9 415.81 652.43 417.65 654.03 420.2 655.49 423.86 655.59 424.24 655.67 424.67 655.6 425.56 655.49 425.98 655.35 426.36 654.57 427.73 654.46 428.13 654.42 428.58 654.47 429.47 654.45 429.94 654.3 430.86 654.29 431.32 654.39 431.71 655.36 434.32 656.07 435.66 656.32 436.44 656.69 437.09 657.62 438.22 658.46 439.46 658.82 440.14 659.39 441.61 660.23 442.8 660.33 443.01 660.69 443.97 661.14 446.05 661.28 446.41 661.46 446.74 662.37 447.93 662.77 448.57 663.06 449.3 663.5 450.89 663.74 452.49 663.75 452.7 663.86 453.24 663.95 454.25 663.91 455.18 663.85 455.62 663.7 455.99 663.46 456.29 663.1 456.51 662.64 456.67 661.45 456.87 660.67 457.09 659.88 457.47 659.61 457.69 659.35 457.97 659.14 458.29 658.98 458.66 658.88 459.1 658.76 461.59 658.84 462.48 658.98 463 659.2 463.55 659.67 464.31 660.04 464.67 660.35 464.89 662.44 465.79 662.99 466.15 663.37 466.48 663.78 467.12 664.56 468.9 665.18 469.85 665.86 471.22 665.92 471.63 666.13 472.26 666.48 472.98 668.39 475.25 668.88 476.36 669.11 476.73 669.72 477.51 669.92 477.88 669.97 478.31 669.99 478.77 669.82 480.64 669.9 481.38 670.01 481.47 670.01 481.48 670 482.7 669.17 483.72 667.86 484.37 666.38 484.77 667.7 485.23 668.83 484.88 669.5 484.9 669.5 486.35 669.05 487.7 668.2 488.91 667.12 489.88 665.92 490.45 663.22 490.74 660.6 490.59 658.11 490.81 653.77 493.64 650.98 494.51 639.18 495.57 638.05 495.16 636.27 493.36 635.03 493.01 636.68 495.16 635.32 496.75 632.55 497.77 629.97 498.18 630.29 496.81 626.79 500.23 625.61 500.21 624.8 499.66 624.22 499.09 623.72 498.95 623.12 499.42 622.83 499.99 622.87 500.63 623.21 501.26 602 509.37 601.03 510.06 599.32 511.96 598.25 512.67 596.98 512.62 595.62 510.89 595.51 505.84 594.42 504.37 594.93 505.91 594.04 506.25 593.09 506.19 592.17 505.86 591.35 505.4 592.39 506.94 594.15 508.7 595.01 510.35 593.39 511.6 594.88 512.58 593.14 513.88 588.28 515.69 578.44 517.75 574.3 519.87 564.61 526.24 563.85 526.36 564.05 525.39 562.18 526.14 559.4 528.45 556.41 530.41 553.81 530.04 551.96 532.04 542.32 537.53 540.31 539.46 539.18 540.24 538.09 540.51 537.32 539.87 536.05 541.61 535.31 542.2 534.24 542.44 532.24 542.48 531.48 542.92 531.18 543.94 530.34 545.15 528.42 546.36 526.18 547 524.46 546.53 524.13 549.3 521.99 551.9 516.73 556.31 511.26 565.05 509.05 567.06 509.02 566.48 508.53 565.02 508.02 565.53 507.35 564.57 506.69 563.85 505.92 563.28 504.93 562.78 503.87 562 503.6 561.07 503.61 560.03 503.37 558.88 501.83 557.21 499.67 556.48 497.69 556.95 496.7 558.88 499.12 557.35 500.75 558.56 501.8 561.07 502.38 563.48 502.74 566.26 503.3 567.22 505.81 567.8 506.68 568.33 507.51 569.01 508.53 569.63 506.24 573.78 505.2 575.05 503.26 576.99 502.62 578.06 502.38 579.41 501.79 580.32 500.37 580.11 498.65 579.57 497.22 579.46 496.07 580.16 495.31 581.24 494.14 583.55 495.55 583.05 497.75 581.5 498.8 580.99 497.91 582.57 492.7 588.66 489.65 591.12 482.6 598.98 479.1 602.08 476.62 602.61 476.08 605.63 475.6 606.71 475.12 606.37 473.55 605.68 473.8 607.17 474.07 607.68 473.1 607.59 471.72 607.63 470.69 607.89 470.73 608.48 471.18 609.39 470.8 610.27 469.46 611.83 466.53 617.82 465.36 619.52 465.49 618.53 465.34 617.87 464.94 617.65 464.33 617.98 464.04 618.56 463.8 620.2 463.15 621.8 463.76 622.01 464.46 621.7 464.33 621.1 464.61 621.26 465.12 621.47 465.36 621.62 465.44 621.85 465.45 622.58 466.43 624.29 465.78 625.03 464.53 625.48 463.54 625.97 462.13 626.48 460.43 625.97 458.74 625.12 457.37 624.68 455.63 623.05 453.07 618.22 452.97 620.54 454.6 625.75 455.02 628.44 453.99 630.89 454.64 631.08 455.12 631.44 455.42 631.96 455.52 632.65 455.23 632.99 454.57 632.87 453.53 632.41 451.07 632.79 448.87 633.44 446.21 633.71 445.09 632.65 444.73 628.32 444.89 627.76 445.19 627.06 445.19 626.81 Z" id="MOZ-1906" data-name="Zambezia"/>
<path d="M 394.33 849.89 392.8 850.01 392.21 848.95 392.17 847.46 392.99 841.76 395.4 832.46 396.25 831 396.93 831.05 397.34 832.19 397.44 834 396.98 839.43 394.33 849.89 Z M 368.24 791.16 367.63 791.85 366.82 791.35 365.99 791.27 365.34 791.68 365.07 792.6 365.3 793.14 365.81 793.27 366.33 793.26 366.61 793.34 366.68 793.8 366.59 794.41 366.6 796.51 366.07 797.64 365.09 798.3 363.77 798.51 363.26 798.22 362.65 797.73 362.03 797.63 361.49 798.51 361.39 799.6 361.83 800.11 362.54 800.4 363.66 801.11 363.97 801.16 364.24 801.23 364.51 801.59 364.56 801.98 364.41 802.42 364.21 802.71 364.06 802.66 364.18 803.52 364.15 804.19 364.32 804.72 365.07 805.23 364.62 806.11 365.12 806.52 365.99 806.78 366.61 807.27 366.8 808.32 366.28 808.71 365.39 808.9 364.51 809.32 363.73 810.23 364.02 810.53 364.83 810.73 365.58 811.37 365.78 812.23 365.58 815.42 367.45 813.56 369.69 804.66 369.8 805.97 369.27 810.82 368.55 812.99 369.17 819.57 371.54 825.32 376.09 832.64 377.18 833.93 378.17 834.47 380.5 839.6 380.68 842.8 380.31 849.31 381.01 852.54 383.26 857.16 383.56 858.39 383.92 863.16 384.69 866.72 385.36 872.99 383.12 892.26 383.1 895.46 383.54 897.29 384.6 898.17 385.94 898.66 387.2 899.31 388.65 901.78 389.73 902.9 390.22 902.11 390.01 898.82 390.56 897.71 392.28 896.74 390.52 894.02 389.51 890.36 389.49 886.68 390.78 883.9 390.47 883.21 390.52 882.66 390.81 882.18 391.29 881.79 392.17 884.01 392.87 884.52 393.86 883.32 391.98 880.16 391.29 879.74 391.67 878.84 393.3 876.68 393.37 876.24 393.28 875.72 393.28 875.27 393.59 875.09 393.91 874.99 394.35 874.78 394.72 874.54 394.88 874.37 395.21 873.49 395.98 873.17 396.85 873.24 397.44 873.55 397.74 874.26 397.72 875.14 397.44 876.92 398.98 889.57 399.57 888.29 399.86 887 400.15 882.81 400.81 881 401.03 879.74 401.54 879.74 400.52 889.01 400.52 890.53 401.03 895.46 400.85 897.06 397.13 908.69 396.89 918.08 399.24 934.41 400.52 937.36 401.25 936.43 401.47 935.99 401.54 935.31 402.85 935.85 404.07 935.88 404.68 935.47 404.11 934.75 404.11 934.28 405.64 934.94 405.25 937.11 402.53 942.28 400.87 944.51 397.96 951.19 396.59 953.42 396.07 954.61 395.87 956.13 396.03 957.7 396.76 960.46 396.89 962 396.34 965.15 391.98 977.41 390.78 987.19 390.78 993.65 390.61 995.16 390.12 996.81 389.45 997.47 388.69 995.95 388.76 994.52 389.09 993.18 388.8 992.19 386.94 991.81 385.7 992.08 385.94 992.69 386.76 993.24 387.2 993.39 387.65 995.13 387.71 995.95 387.55 997.37 386.85 1000.32 386.69 1001.87 386.82 1004.34 386.69 1005.26 386.43 1006.03 385.86 1007.07 385.66 1007.83 385.71 1008.28 386.05 1009.73 386.13 1010.63 385.97 1011.48 385.27 1012.91 385.1 1013.72 385.76 1013.65 389.25 1009.83 388.04 1007.24 387.92 1005.86 388.69 1004.71 389.78 1004.52 390.87 1005.12 392.83 1006.76 394.25 1007.38 395.13 1007.39 395.62 1006.72 396.18 1001.45 395.87 1000.61 395.87 1000.05 398.94 1000.76 399.73 1001.6 400.08 1004.93 400.31 1005.51 400.78 1005.73 400.92 1006.12 396.61 1019.11 396.42 1020.64 396.58 1021.62 397.29 1023.14 397.44 1023.99 397.19 1024.68 396.65 1025.19 396.11 1025.61 395.87 1026 395.47 1027.48 394.58 1028.88 383 1044.58 374.51 1053.08 374.29 1053.83 374.27 1054.8 374.1 1055.55 373.72 1056.21 368.15 1061.25 346.07 1072.02 333.81 1077.37 321.34 1080.26 321.15 1080.33 318.84 1076.65 316.58 1075.83 310.71 1075.65 309.41 1075.35 308.73 1074.61 308.29 1073.79 307.99 1072.74 307.85 1071.68 307.57 1070.56 307.45 1069.72 308.1 1069.09 309.03 1068.51 319.73 1063.42 320.12 1063.02 319.84 1062.5 314.18 1057.23 313.48 1056.12 313.84 1055.21 314.44 1054.47 316.71 1052.38 317.24 1051.6 317.23 1051.18 317 1050.89 316.63 1050.74 316.22 1050.65 315.78 1050.7 313.83 1051.57 313.41 1051.71 312.94 1051.77 311.42 1051.83 310.95 1051.94 309.9 1052.53 309.45 1052.62 308.49 1052.64 307.98 1052.7 307.55 1052.84 306.54 1053.5 306.16 1053.68 305.74 1053.8 304.87 1053.93 304.71 1053.96 304.56 1054.02 303.94 1054.36 303.61 1054.59 302.84 1054.97 301.95 1055.23 298.78 1055.83 295.68 1056.8 295.14 1056.62 294.6 1055.99 285.38 1041.35 285.06 1040.15 284.89 1039.01 284.55 1022.87 284.34 1022.74 283.6 1022.86 283.18 1022.82 282.8 1022.68 282.06 1022.34 281.65 1022.21 281.22 1022.12 280.7 1022.19 280.2 1022.38 279.68 1022.87 279.5 1022.91 279.42 1022.71 279.43 1022.02 279.39 1021.47 278.82 1019.26 278.79 1018.82 278.84 1018.37 279.09 1017.61 279.63 1016.5 279.73 1016.35 279.81 1016.26 279.92 1015.95 280.02 1015.5 279.92 1014.72 280.12 1013.33 279.61 1008.21 279.66 1007.78 279.78 1007.42 279.9 1006.88 279.93 1006.19 279.62 1004.79 279.54 1004.05 279.61 1003.5 279.89 1002.67 279.84 1001.48 280.04 1000.17 280.11 998.29 280.26 997.92 281.13 996.7 281.22 996.34 281.27 995.48 281.47 995.15 282.01 994.58 282.21 994.21 282.24 993.67 282.07 993.15 280.94 991.19 280.61 990.83 280.25 990.69 279.84 990.72 279.45 990.86 278.71 991.24 278.28 991.39 277.85 991.45 277.34 991.29 277.16 990.96 277.13 990.56 277.27 990.19 277.47 989.87 278.74 988.92 278.99 988.65 279.23 988.35 279.57 987.65 279.7 987.28 279.9 986.96 280.24 986.75 280.62 986.56 280.98 986.3 281.24 985.99 281.33 985.47 281.1 985.04 280.66 984.46 280.47 984.02 280.49 983.62 280.68 983.31 280.96 983.02 281.23 982.68 281.41 982.21 281.27 981.65 280.26 979.82 279.78 979.31 279.25 979.06 278.25 979.07 277.83 979.03 277.42 978.9 277.32 978.84 277.19 978.7 276.85 978.26 276.64 977.64 276.41 976.6 276.16 976.06 275.84 975.64 275.07 975.01 274.88 974.61 274.84 974.19 274.85 973.77 274.74 973.15 273.92 971.85 273.71 971.29 273.6 970.77 273.58 970.31 273.63 969.88 273.79 969.54 274.08 969.33 274.47 969.26 275.34 969.24 277.5 968.61 277.86 968.38 278.09 968.05 278.17 967.57 277.99 967.26 277.72 966.98 276.92 966.55 276.45 966.21 275.81 965.55 275.55 965.05 275.39 964.51 275.39 962.43 275.28 961.48 274.99 960.83 273.99 959.25 273.75 958.59 273.65 957.96 273.65 956.79 273.52 956.35 273.35 955.96 272.84 955.36 272.57 955.09 272.33 954.79 270.63 951.9 270.17 951.26 269.71 950.75 269.31 950.45 268.43 949.54 268.05 949.29 267.65 949.16 267.1 948.93 266.52 948.56 265.72 947.57 264.82 946.67 264.19 946.22 263.91 945.96 263.16 945.08 262.85 944.84 262.45 944.61 262.04 944.3 261.55 943.78 261.43 943.32 261.46 941.97 261.27 940.62 260.77 939.13 258.13 935.69 256.93 933.65 255.93 932.48 255.35 931.98 253.68 930.96 253.36 930.73 252.88 930.14 252.44 929.47 251.94 928.89 251.34 928.41 249.97 927.62 248.19 926.18 247.55 925.83 247.05 925.62 244.82 924.17 243.42 922.87 242.03 921.03 241.4 919.99 240.5 918.76 239.99 918.2 239.69 917.95 238.7 917.33 238.27 916.99 237.79 916.53 233.3 909.98 232.52 908.18 232.31 907.23 232.26 906.74 232.25 906.27 232.97 902 233.77 899.73 233.83 899.3 233.99 896.5 234.09 896.09 234.28 895.77 234.54 895.51 235.22 895.08 237.39 894.4 237.76 894.2 238.04 893.94 238.17 893.56 238.21 893.12 238.04 891.68 237.21 888.65 237.14 887.69 237.25 886.33 237.15 884.92 236.79 883.11 236.77 882.62 237.95 877.77 238.18 875.91 238.14 875.31 238 874.47 235.62 871.04 235.3 869.9 235.19 868.78 235.2 866.91 235.1 866.51 234.96 866.29 229.83 862.5 222.17 853.49 221.85 852.97 221.71 852.44 221.72 851.52 221.9 850.7 222.17 849.92 222.21 849.32 222.08 848.46 221.07 844.54 221.04 844.06 221.06 843.6 221.12 843.17 221.22 842.76 221.36 842.39 221.75 841.73 221.98 841.44 222.56 840.46 224.11 838.79 225.29 837.81 225.81 837.27 226.3 836.69 227.49 834.75 229.71 832.19 230.09 831.52 230.42 830.74 230.86 829.12 231.12 829.22 232.9 829.3 234.47 828.84 237.26 827.52 240.32 826.87 241.9 825.96 247.03 822.15 249.65 821.28 252.65 820.97 265.67 821.52 269.89 820.83 271.76 820.78 273.36 821.21 274.03 822.4 274.43 822.82 275.27 822.67 276.08 822.32 276.34 822.12 276.88 821.9 277.17 821.35 277.37 820.67 277.62 820.08 279.71 817.29 281.25 815.67 282.53 814.95 286.29 814.64 294.9 813.93 295.82 814.35 296.79 815.1 298.04 815.41 299.79 814.48 301.89 812.13 303.4 811.41 305.19 812.13 307.48 814 308.67 814.48 309.99 814.48 312.33 813.11 314.49 810.59 317.77 805.68 319.87 804.1 328.58 801.58 332.19 798.91 333.44 798.51 334.38 798.39 335.12 798.2 335.79 798.23 339.08 800.72 339.84 801.07 342.24 800.74 343.85 799.11 345.09 797.31 349.14 794.7 349.63 794.13 349.97 793.51 350.78 793.04 358.46 790.03 364.3 789.19 365.3 788.93 366.88 787.83 368.16 787.7 368.6 787.7 368.6 787.71 368.6 787.72 368.26 788.2 368.25 788.57 369.17 788.74 368.66 790.39 368.24 791.16 Z" fill-rule="evenodd" id="MOZ-1925" data-name="Inhambane"/>
<path d="M 208.21 1167.17 207.41 1169.32 207.17 1169.78 206.47 1170.44 206.28 1170.52 206.03 1170.21 205.18 1169.78 204.89 1169.43 204.85 1168.92 204.58 1168.59 203.59 1168.75 203.61 1169.06 203.08 1170.8 202.22 1168.6 203.95 1166.57 206.65 1165.01 208.77 1164.14 208.72 1164.98 208.21 1167.17 Z M 177.55 1045.63 178.22 1045.68 178.75 1045.62 179.22 1045.52 181.03 1044.91 182.54 1044.62 183.15 1044.66 183.61 1044.78 183.97 1044.96 184.3 1045.18 185.21 1045.64 187.1 1046.21 187.53 1046.41 187.98 1046.77 188.24 1047.13 188.39 1047.5 188.43 1047.83 188.36 1048.97 188.72 1056.4 188.86 1056.83 189.03 1057.2 189.24 1057.55 192.11 1060.66 196.75 1067.14 197.12 1067.87 197.4 1068.69 197.75 1070.55 198.1 1071.04 198.67 1071.59 199.83 1072.47 200.85 1073.06 204.68 1074.5 205.32 1075.05 205.45 1075.95 204.2 1080.08 204.08 1081.21 204.14 1082.35 204.86 1083.61 205.08 1084.34 205.12 1084.85 204.91 1085.16 204.65 1085.45 204.4 1085.71 204.2 1086.01 204.1 1086.33 204.6 1094.23 204.78 1095.01 205.14 1095.31 205.58 1095.45 207.24 1095.6 207.99 1095.77 209.09 1096.23 209.63 1096.61 209.93 1097.05 210 1097.48 209.87 1098.27 209.79 1098.6 209.83 1098.89 209.95 1099.22 210.07 1099.91 210.04 1101.22 210.43 1103.51 210.37 1103.93 210.06 1104.9 210.01 1105.16 210 1105.51 210.12 1106.2 210.37 1106.86 210.69 1106.96 216.02 1107.5 217.29 1107.89 218.35 1108.41 218.87 1108.79 219.23 1109.18 219.87 1110.19 220.22 1110.95 220.35 1111.37 220.56 1112.76 220.55 1113.22 220.25 1114.92 219.91 1116.12 219.85 1116.54 219.98 1119.88 200.53 1132.24 198.43 1134.4 194.49 1139.46 192.78 1142.58 191.41 1147.39 190.36 1149.01 190.91 1152.73 190.56 1153.4 190.62 1152.96 190.47 1152.44 190.17 1151.76 189.7 1151.76 189.18 1152.37 188.48 1152.79 187.89 1153.27 187.62 1154.06 187.54 1155.13 187.34 1156.14 187.03 1157.06 186.59 1157.9 184.47 1159.75 182.33 1158.01 176.51 1156.4 174.57 1160.38 173.8 1162.71 172.57 1163.07 171.45 1163.87 170.82 1165.31 171.12 1166.7 171.91 1167.52 172.7 1167.17 172.63 1166.81 172.7 1164.37 173.22 1164.1 174.33 1164.27 175.47 1164.61 176.09 1164.88 176.47 1165.46 177.01 1166.7 177.37 1167.17 178.1 1167.58 179.71 1168.15 180.49 1168.75 181.02 1169.57 181.69 1171.28 182.23 1172.12 182.88 1172.67 183.46 1173.04 183.87 1173.47 184.31 1175.77 185.66 1178.97 186.13 1180.59 187.42 1179.48 189.33 1179.85 191.17 1180.84 192.28 1181.61 193.9 1183.4 194.87 1185.11 195.95 1186.61 197.4 1187.76 198.25 1188.13 199.03 1187.82 199.91 1187.38 201.03 1187.29 200.33 1184.91 200.23 1182.93 200.64 1180.93 201.49 1178.53 202.18 1175.07 202.8 1174.17 203.72 1173.55 206.66 1172.38 206.71 1174.39 204.78 1186.43 203.94 1207.3 202.92 1212.98 202.24 1214.68 202.05 1215.56 202.52 1218.64 202.05 1224.57 201.89 1225.32 201.03 1227.39 201.16 1228.15 201.81 1229.25 202.05 1229.96 190.45 1230.27 179.92 1230.55 170.22 1230.8 161.47 1231.02 157.24 1230.4 151.77 1229.6 149.6 1229.52 145.78 1229.93 143.58 1229.5 143.85 1210.16 143.07 1204.01 139.53 1197.59 138.96 1195.49 138.03 1187.75 138.39 1185.57 140.87 1179.63 141.15 1177.63 140.63 1175.03 139.74 1172.26 139.35 1169.56 140.33 1167.2 135.34 1166.04 133.18 1165 131.23 1163.32 128.28 1154.68 127.97 1152.43 128.43 1150.35 131.61 1142.82 132.2 1141.92 133.17 1141.08 133.89 1140.67 134.41 1140.22 134.72 1139.22 134.71 1137.59 134.01 1132.88 133.58 1131.31 132.79 1129.76 132.51 1127.42 132.61 1124.95 132.91 1123.05 134.19 1119.39 134.08 1103.08 134.01 1091.15 133.96 1082.19 133.88 1069.55 133.82 1059.09 134.43 1053.93 134.03 1048.13 132.13 1042.37 129.51 1037.15 130.69 1036.47 140.08 1032.27 140.63 1032.23 141.2 1032.27 141.89 1032.38 143.69 1032.89 148.06 1033.51 149.01 1034.03 149.33 1034.25 150.7 1034.68 153.12 1035.07 153.76 1035.22 155.59 1036.09 164.39 1037.25 165.58 1037.69 166.25 1038.09 166.86 1038.57 170.91 1042.74 171.33 1043.01 173.58 1043.81 175.67 1045.02 176.8 1045.47 177.55 1045.63 Z" fill-rule="evenodd" id="MOZ-1927" data-name="Maputo"/>
<path d="M 184.47 1159.75 183.06 1160.98 182.49 1161.82 182.08 1162.27 180.1 1163.77 179.42 1164.14 178.53 1164.2 177.89 1163.99 176.35 1163.11 175.09 1162.74 173.8 1162.71 174.57 1160.38 176.51 1156.4 182.33 1158.01 184.47 1159.75 Z" id="MOZ-5854" data-name="Maputo"/>
</g>
</svg>