<?xml version="1.0"?>
<svg xmlns="http://www.w3.org/2000/svg" version="1.2" baseProfile="tiny" width="800" height="689" viewBox="0 0 800 689" stroke-linecap="round" stroke-linejoin="round">
<g id="ne_10m_admin_1_states_provinces">
<path d="M 363.96 285.66 362.65 282.29 362.43 280.03 360.87 279.39 361.09 277.95 359.33 277.6 357.85 279.32 353.77 280.05 349.95 279.18 350.44 276.96 349.7 275.54 348.61 275.11 347.7 274.32 347.26 273.4 347.55 272.43 348.08 271.19 348.33 269.87 348.19 269.23 348.1 268.59 347.68 267.78 347.93 266.82 348.57 265.63 348.66 264.26 339.03 263.77 329.72 265.27 330.31 261.38 331.89 257.75 331.66 255.62 334.13 251.3 337.63 247.22 340.3 243.5 341.36 242.59 342.56 242.74 343.74 242.48 344.38 241.51 344.55 240.42 344.94 239.04 345.56 237.7 345.87 236.28 345.6 234.84 344.76 233.57 343.71 232.8 343.85 230.2 342.18 229.26 340.01 225.76 338.31 224.97 336.82 223.71 335.83 221.84 341.5 220.5 346.88 218.43 351.09 217.3 352.23 213.57 354.29 211.78 357.54 210.66 359.07 209.08 360.11 206.97 362.07 205.31 364.55 205.72 365.27 206.48 368.44 204.71 374.48 195.73 375.1 194.66 375.83 193.67 376.81 193.04 377.83 192.47 378.85 191.25 379.74 189.9 393.11 186.98 406.56 185.51 405.48 191.62 409.32 190.89 413.19 191.11 414.26 191.64 415.35 192.04 416.33 191.36 417.18 190.53 419.74 189.13 419.05 182.98 421.44 180.64 427.89 178.9 432.7 182.97 432.7 185.68 434.27 187.44 438.47 186.63 442.65 184.77 445.19 183.2 448.21 183.71 450.71 182.66 453.64 180.86 460.7 182.87 467.92 183.78 470.19 184.32 468.73 186.99 465.08 189.06 462.91 191.75 464.3 193 466.09 193.79 467.21 193.81 468.36 193.37 472.21 192.35 478.24 191.8 479.49 192.9 479.27 194.71 481.78 196.79 482.69 198.45 485 198.32 487.72 197.93 490.76 197.15 493.78 197.14 496.79 198.96 500.13 200.68 503.42 201.2 506.64 201.5 509.2 202.39 511.74 203.7 510.19 205.1 508.48 205.9 506.98 205.43 505.75 206.06 502.83 208.53 499.62 210.68 497.51 212.32 494.89 212.97 493.33 214.02 492.21 215.63 488.3 217.85 485.52 221.04 484.2 223.42 482.59 225.78 483.48 227.02 485.15 228.25 483.28 233.22 472.69 236.79 468.18 235.6 466.3 232.54 463.31 230.47 461.21 229.27 459.56 227.79 457.91 229.09 456.59 230.76 455.97 232.74 455.08 234.82 451.43 234.59 447.52 233.49 445.48 232.43 443.32 233.55 441.24 235.8 438.72 235.97 436.69 234.89 435.16 236.97 433.58 239.74 432.73 242.33 435.15 244.84 436.99 247.68 428.02 246.54 423.2 244.86 420.45 248.15 416.03 249.83 412.09 251.98 411.77 253.48 411.84 254.66 411.14 255.95 408.29 259.03 406.46 260.61 404.6 260.88 402.73 261.58 404.16 264.47 409.11 265.15 415.31 272.39 413.01 274.2 411.75 277.09 411.24 283.98 410.48 287.02 411.28 289.2 412.68 291.2 410.86 294.12 408.07 296.07 408.82 302.08 413.91 301.11 416.97 301.92 420.55 304.34 423.01 305.28 429.47 304.03 432.34 305.73 433.77 312.33 431.08 312.2 428.05 311.75 424.99 313.86 425.69 317.26 425.72 319 425.44 321.08 424.23 322.27 423.25 323.68 422.19 326.93 420.23 330.03 417.05 330.89 413.98 332.11 412.35 333.49 410.73 334.69 408.88 333.88 407.03 332.46 402.36 334.16 398.3 336.18 396.27 335.71 395.09 334.52 389.43 333.01 387.53 331.19 385.39 330.16 384.57 331.06 383.55 331.26 382.34 330.37 381.26 329.31 378.38 325.69 375.8 321.98 374.72 317.64 374.89 313.27 373.58 309.51 369.7 307.58 365.95 306.6 361.87 307.28 361.53 303.68 361.75 300.19 363.26 295.29 366.13 291.14 367.28 289.02 368.56 287.13 370.64 285.87 371.12 283.68 369.5 283.24 367.75 282.6 365.62 283.86 363.96 285.66 Z" id="KOR-2494" data-name="North Chungcheong"/>
<path d="M 249.35 142.96 249.87 143.81 250.18 144.47 249.5 144.7 248.43 145.33 248 145.79 245.78 146.21 244.81 146.08 243.46 146.59 240.51 147.61 238.91 148.75 238.03 149.99 232.52 153.3 231.27 153.07 230.11 153.18 229.61 153.08 229.08 151.54 228.08 151.03 227.62 151.43 227.2 151.55 227.06 151.29 227.27 150.84 226.96 150.22 226.19 150.15 225.68 150.68 224.9 151.17 223.95 150.83 222.59 150.56 223.39 149.92 223.11 149.24 221.73 148.19 221.39 147.53 221.88 146.59 222.63 146.41 223.68 146.84 229.41 143.65 233.52 143.3 236.31 143.35 238.88 142.27 239.76 139.44 241.55 138.91 243.01 140.08 243.72 140.3 244.45 140.63 245.17 140.87 245.89 140.9 246.65 141.02 247.68 141.43 248.18 141.84 248.68 142.45 249.35 142.96 Z M 267.52 158.81 267.15 157.95 260.52 157.28 257.43 160.41 254.24 158.47 255.54 156.17 257.21 154.16 256.16 152.74 253.9 151.77 251.82 150.89 252.11 148.58 251.7 146.76 252.93 145.07 256.56 144.2 257.64 143.75 257.92 142.7 256.21 142.33 255.75 143.43 253.14 143.66 252.47 142.4 252.19 140.08 252.81 137.02 258.57 136.86 265.06 136.67 272.51 142.36 272.5 145.35 273.86 147.83 275.9 148.89 277.1 150.46 275.91 153.58 274.11 156.35 272.45 157.33 271.5 157.88 267.52 158.81 Z" fill-rule="evenodd" id="KOR-2495" data-name="Incheon"/>
<path d="M 609.46 255.02 608.19 254.98 603.97 254.2 599.91 255.64 591.15 253.04 592.55 250.03 592.16 247.21 591.05 244.08 590.71 240.54 592.39 237.18 593.75 233.99 592.76 233.05 591.68 232.22 592.19 229.35 582.91 228.79 580.19 227.55 577.29 226.56 576.1 224.23 575.17 221.54 571 219.95 568.4 216.8 567.84 212.7 568.75 209.56 570.91 208.26 573.28 207.55 576.96 208.71 579.96 206.92 578.73 204.01 574.78 202.1 570.45 201.3 567.01 202.75 563.7 203.42 559.04 201.7 554.08 201.04 552.41 201.58 551.02 201.45 549.95 200.3 548.4 199.79 544.81 202.02 541.02 203.21 540.73 201 541.04 198.8 538.85 197.93 536.4 197.48 534.62 194.98 531.17 194.77 527.73 196.06 525.43 198.3 526.27 201.41 525.86 204.32 525.12 207.02 521.89 206.78 518.11 206.13 514.98 205.08 511.74 203.7 509.2 202.39 506.64 201.5 503.42 201.2 500.13 200.68 496.79 198.96 493.78 197.14 490.76 197.15 487.72 197.93 485 198.32 482.69 198.45 481.78 196.79 479.27 194.71 479.49 192.9 478.24 191.8 472.21 192.35 468.36 193.37 467.21 193.81 466.09 193.79 464.3 193 462.91 191.75 465.08 189.06 468.73 186.99 470.19 184.32 467.92 183.78 460.7 182.87 453.64 180.86 450.71 182.66 448.21 183.71 445.19 183.2 442.65 184.77 438.47 186.63 434.27 187.44 432.7 185.68 432.7 182.97 427.89 178.9 421.44 180.64 419.05 182.98 419.74 189.13 417.18 190.53 416.33 191.36 415.35 192.04 414.26 191.64 413.19 191.11 409.32 190.89 405.48 191.62 406.56 185.51 393.11 186.98 379.74 189.9 386.61 179.76 392.23 168.75 400.02 155.51 400.99 152.67 400.26 149.83 401.92 147.53 404.26 145.26 406.77 144.43 408.09 142.18 406.65 140.24 404.77 138.96 401.76 138.69 398.68 137.76 394.41 137.31 387.3 134.18 384.1 133.14 380.92 131.49 377.43 131.06 374.04 131.91 371.23 130.02 371.45 127.97 372.78 125.82 373.31 123.33 373.35 120.77 370 121.62 368.5 120.08 372.18 116.65 371.57 114.36 370.55 112.09 371.28 110.36 371.24 108.3 370.99 106.36 377.41 102.61 380.02 101.94 381.47 100.17 382.12 95.04 379.13 91.41 376.67 91.01 374.33 90.16 372.56 86.42 369.76 86.31 366.77 86.47 363.5 84.58 361.94 81.23 361.3 75.28 360.09 72.28 359.24 71.7 358.24 71.83 357.58 72.34 356.74 72.44 354.58 71.23 349.3 72.71 344.45 71.78 342.49 70.84 340.48 69.41 340.42 67.03 341.4 64.78 342.12 63.92 342.63 63.1 341.79 62.55 340.72 62.35 339.7 62.52 338.81 63.06 337.14 64.77 335.27 66.27 332.39 66.65 329.85 65.29 329.38 64.06 329.19 62.81 328.27 62.37 327.3 63.17 326.98 64.46 326.95 68.62 325.3 70.66 320.66 68.92 316.41 65.9 314.92 64.66 313.35 64.82 311.95 63.22 311.08 61.13 309.92 60.03 308.55 59.17 307.49 57.18 305.61 56.24 301.15 54.01 298.64 53.04 299.38 52.3 306.32 47.8 314.38 43.83 322.86 41.12 331.02 40.43 335.05 40.77 350.65 39.69 362.65 42.55 366.46 42.28 373.9 40.51 398.3 38.83 399.34 39.38 400.96 41.22 402.51 42.46 404.25 42.81 412.62 41.42 425.89 42.03 434.51 41.49 443.19 39.06 451.27 34.96 458.01 29.41 460.93 26.12 463.38 22.61 465.03 18.71 465.58 14.22 464.5 9.89 464.23 7.68 465.03 6.05 468.48 3.91 475.63 1 479.41 6.85 479.41 6.85 485.31 16 486.49 20.01 489.49 26.08 500.67 43.43 509.38 61.65 510.8 63.63 515.34 68.06 517.08 71.78 538.17 95.58 546.35 105.01 556.15 113.6 557.54 114.5 564.11 120.63 564.45 123.21 564.48 126.32 565.27 128.96 569.75 130.93 571.04 133.05 574.74 142.61 576.39 144.82 578.36 145.77 580.02 147.13 585.78 156.13 589.24 159.59 590.43 161.49 590.89 163.51 591.77 165.47 597.88 170.82 599.82 175.2 601.55 184.78 603.93 190.06 610.42 197.27 610.91 198.79 610.17 200.25 609 201.65 608.25 203.01 608.2 204.23 609.12 208.19 610.23 219.5 611.41 224.72 615.61 235.38 615.95 240.6 614.63 245.43 611.78 249.82 609.46 255.02 Z" id="KOR-2496" data-name="Gangwon"/>
<path d="M 317.6 136.86 321.07 136.82 324.03 135.97 326.61 135.94 327.58 137.79 327.24 139.67 325.47 140.38 323.55 141.39 323.59 143.68 324.61 144.59 322.44 146.95 321.24 148.6 317.95 150.15 314.34 150.82 310.63 152.3 309.18 149.65 306.01 150.23 302.88 151.01 300.65 152.03 298.34 152.33 292.91 152.18 289.2 148.3 285.54 147.42 283.01 146.1 282.35 142.47 279.83 139.63 276.84 136.72 278.74 133.49 282.28 133.67 286.33 135.63 289.34 134.82 292.02 133.52 292.23 131.35 292.96 129.34 298.64 128.91 301.56 125.96 303.33 122.98 305.86 120.83 309.81 120.09 314.36 120.38 316.53 123.34 317.37 127.37 318.69 130.18 318.76 133.27 317.6 136.86 Z" id="KOR-2497" data-name="Seoul"/>
<path d="M 196.55 177.18 196.03 177.96 194.42 179.27 193.28 179.65 191.8 179.83 190.54 179.37 189.72 178.23 189.39 177.59 189.05 177.67 188.15 178.07 187.63 177.93 187.64 177.47 188.03 175.4 188.74 173.69 189.67 172.67 190.68 173.23 191.57 174.43 192.48 175.02 195.6 176.33 196.55 177.18 Z M 236.92 175.95 235.81 176.98 234.38 177.26 233.41 176.68 232.37 176.76 231.54 176.35 231.25 174.76 231.49 173.12 232.53 171.96 234.76 171.02 237.66 171.22 238.97 171.91 239.46 173.44 238.9 173.97 237.54 174.34 237.02 175.17 236.92 175.95 Z M 249 171.22 249.53 172.21 251.01 172.89 253.42 173.69 254.09 174.23 254.4 174.82 254.71 175.9 254.04 177.06 247.58 181.16 244.65 181.46 244.68 180.82 246.06 179.33 246.25 178.47 245.67 177.74 247.32 176.24 247.37 174.72 246.69 172.86 245.75 171.56 244.83 170.72 245.11 170.46 247.19 171.26 248.97 170.02 249.38 170.12 249 171.22 Z M 137.65 123.78 136.92 124.05 136.5 123.35 135.82 121.79 135.98 120.7 136.97 120.57 138.36 120.72 139.24 121.45 138.85 122.83 137.65 123.78 Z M 223.24 123.22 220.68 123.34 212.09 118.04 213.2 117.24 213.73 116.23 214.45 113.86 214.84 113.24 215.46 112.59 216.17 112.12 216.9 111.98 217.37 112.19 217.68 112.57 217.87 113.11 218.26 115.43 218.4 115.86 219.01 116.7 219.81 117.41 221.54 118.57 223.12 119.56 224.33 120.65 224.58 121.85 223.24 123.22 Z M 211.4 103.84 213.77 104.99 216.26 104.95 218.58 105.24 219.75 106.29 218.92 108.54 216.67 110.07 213.89 110.22 208.62 109.32 207.46 109.68 206.04 110.28 204.81 110.3 204.31 108.93 204.59 108.5 206.04 105.01 207.59 103.81 209.37 103.43 211.4 103.84 Z M 243.35 127.45 241.93 130.12 240.66 131 239.7 131.09 238.93 130.81 237.61 129.67 236.65 129.2 235.97 129.39 235.44 129.82 234.96 130.06 228.31 130.35 225.84 129.43 223.24 126.68 227.13 125.87 228.06 125.38 229.13 124.04 228.99 123.43 228.28 123.05 227.63 122.36 223.12 115.54 222.84 114.5 223.3 113.15 223.18 107.15 223.71 105.79 224.93 105.42 227.92 102.68 230.22 102.21 232.24 103.36 234.15 105.14 236.06 106.53 240.13 108.16 241.75 109.44 242.39 111.48 242.25 112.5 241.59 114.21 241.45 114.97 241.74 115.83 242.91 117.54 243.18 118.47 243.59 123.03 243.18 124.09 243.88 124.77 244.59 126.12 244.99 126.68 243.35 127.45 Z M 13.73 104.09 12.79 104.5 11.8 104.43 10.97 104.67 10.32 105.2 9.98 105.3 9.98 104.96 10 104.8 9.59 104.18 8.58 103.14 8.96 102.15 11.09 100.8 12.45 99.68 13.09 99.28 14.02 99.36 15.02 99.78 15.2 100.57 14.63 101.7 14.24 103 13.73 104.09 Z M 16.06 82.47 17.45 83.83 17.25 85.68 15.5 86.7 13.04 85.52 9.81 85.75 9.14 86 9.2 87.33 10.43 87.82 11.91 88.03 12.6 88.51 10.02 90.12 4.85 89.55 1 86.95 2.32 82.47 5.53 83.37 12.55 81.43 16.06 82.47 Z M 379.74 189.9 378.85 191.25 377.83 192.47 376.81 193.04 375.83 193.67 375.1 194.66 374.48 195.73 368.44 204.71 365.27 206.48 364.55 205.72 362.07 205.31 360.11 206.97 359.07 209.08 357.54 210.66 354.29 211.78 352.23 213.57 351.09 217.3 346.88 218.43 341.5 220.5 335.83 221.84 329.85 221.19 324.96 217.9 319.5 215.91 308.98 219.51 304.03 219.5 298.13 218.53 298.09 218.52 299.71 217.54 301.61 216.82 302.98 215.58 303.84 212.51 303.6 211.97 302.42 210.97 302.2 210.71 302.88 210.2 303.56 210.13 304.21 210.16 305.97 209.37 307.09 209.24 307.92 208.8 308.25 207.33 300.68 209.03 299.54 210.32 299.94 214.23 299.03 215.12 296.08 215.89 291.89 215.42 286.92 213.1 282.43 209.57 280.72 206.19 288.3 205.52 288.3 204.73 287.77 204.53 286.58 203.8 288 203.65 289.35 203.71 290.58 204.05 291.67 204.73 291.14 202.32 289.41 200.18 288.15 197.72 289.08 194.38 287.65 193.87 286.55 195.03 285.87 197.05 285.64 199.08 285.05 201.29 283.85 201.8 282.65 200.84 280.23 201.24 277.79 201.74 271.97 200.34 272.01 198.91 271.46 197.65 271.92 195.95 271.67 193.78 273.13 191.63 274.88 189.72 276.9 188.94 279.05 188.28 282.25 188.24 285.67 187.5 286.38 186.66 286.58 184.32 285.79 183.86 284.03 184.62 281.41 186.44 279.77 186.17 278.57 185.61 277.92 184.61 277.93 183.06 274.92 184.29 272.48 185.68 267.97 189.58 266.81 190.32 265.35 190.74 263.99 190.7 263.16 190.06 263.21 188.89 263.99 187.76 265.85 185.66 262.16 186.34 260.99 186.05 260.59 184.32 261.27 183.03 262.81 182.31 264.57 181.83 265.85 181.26 267.38 179.58 266.98 179.15 263.6 179.53 262.47 178.98 261.59 177.62 260.74 175.92 259.72 174.34 260.29 174.21 260.65 174.01 261.45 173.41 262.38 173.97 263.78 173.91 266.24 173.41 268.25 173.85 269.93 174.68 271.59 175.11 273.53 174.34 273.38 175.75 273.53 177.12 274.15 178.18 275.35 178.66 276.68 178.25 277.3 177.06 277.93 174.34 280.06 171.8 281.81 172 283.79 172.95 286.58 172.62 285.98 171.59 285.21 170.82 284.23 170.31 283.05 170.03 281.29 170.08 280.48 169.12 278.59 168.84 277.07 169.23 275.55 169.16 273.16 168.78 269.19 167.78 263.69 164.45 263.4 162.99 265.85 160.15 267.52 158.81 271.5 157.88 272.45 157.33 274.11 156.35 275.91 153.58 277.1 150.46 275.9 148.89 273.86 147.83 272.5 145.35 272.51 142.36 265.06 136.67 258.57 136.86 252.81 137.02 252.19 135.91 251.2 134.04 250.08 132.57 248.78 130.79 247.33 129.67 247.3 127.97 246.78 125.41 245.42 121.43 243.6 111.03 244.09 109.32 245.77 109.07 252.74 111.05 254.97 110.67 256.82 109.98 258.47 109.72 260.16 110.62 260.78 112.11 261.03 114.44 260.85 116.84 260.16 118.47 260.1 121.44 263.99 124.02 268.91 125.66 271.97 125.81 269.59 123.86 262.3 119.69 264.42 115.2 265.05 112.51 264.51 110.62 263.32 108.64 263.21 107.55 263.21 107.55 263.07 106.11 263.65 103.57 264.98 101.55 264.03 100.6 262.78 100.74 260.87 101.78 260.86 101.78 259.98 90.9 260.65 87.88 262.17 87.01 264.52 86.8 267.78 85.82 272.81 82.65 283.62 69.62 285.83 67.84 290.71 64.86 292.79 62.96 295.36 57.96 297.08 54.6 298.64 53.04 301.15 54.01 305.61 56.24 307.49 57.18 308.55 59.17 309.92 60.03 311.08 61.13 311.95 63.22 313.35 64.82 314.92 64.66 316.41 65.9 320.66 68.92 325.3 70.66 326.95 68.62 326.98 64.46 327.3 63.17 328.27 62.37 329.19 62.81 329.38 64.06 329.85 65.29 332.39 66.65 335.27 66.27 337.14 64.77 338.81 63.06 339.7 62.52 340.72 62.35 341.79 62.55 342.63 63.1 342.12 63.92 341.4 64.78 340.42 67.03 340.48 69.41 342.49 70.84 344.45 71.78 349.3 72.71 354.58 71.23 356.74 72.44 357.58 72.34 358.24 71.83 359.24 71.7 360.09 72.28 361.3 75.28 361.94 81.23 363.5 84.58 366.77 86.47 369.76 86.31 372.56 86.42 374.33 90.16 376.67 91.01 379.13 91.41 382.12 95.04 381.47 100.17 380.02 101.94 377.41 102.61 370.99 106.36 371.24 108.3 371.28 110.36 370.55 112.09 371.57 114.36 372.18 116.65 368.5 120.08 370 121.62 373.35 120.77 373.31 123.33 372.78 125.82 371.45 127.97 371.23 130.02 374.04 131.91 377.43 131.06 380.92 131.49 384.1 133.14 387.3 134.18 394.41 137.31 398.68 137.76 401.76 138.69 404.77 138.96 406.65 140.24 408.09 142.18 406.77 144.43 404.26 145.26 401.92 147.53 400.26 149.83 400.99 152.67 400.02 155.51 392.23 168.75 386.61 179.76 379.74 189.9 Z M 303.33 122.98 301.56 125.96 298.64 128.91 292.96 129.34 292.23 131.35 292.02 133.52 289.34 134.82 286.33 135.63 282.28 133.67 278.74 133.49 276.84 136.72 279.83 139.63 282.35 142.47 283.01 146.1 285.54 147.42 289.2 148.3 292.91 152.18 298.34 152.33 300.65 152.03 302.88 151.01 306.01 150.23 309.18 149.65 310.63 152.3 314.34 150.82 317.95 150.15 321.24 148.6 322.44 146.95 324.61 144.59 323.59 143.68 323.55 141.39 325.47 140.38 327.24 139.67 327.58 137.79 326.61 135.94 324.03 135.97 321.07 136.82 317.6 136.86 318.76 133.27 318.69 130.18 317.37 127.37 316.53 123.34 314.36 120.38 309.81 120.09 305.86 120.83 303.33 122.98 Z" fill-rule="evenodd" id="KOR-2498" data-name="Gyeonggi"/>
<path d="M 215.29 381.55 215.56 382.3 215.09 383.25 212.76 384.88 211.2 386.3 210.21 386.93 209.8 387.24 209.06 387.37 208.51 386.9 208.11 386.06 208.35 385.26 209.68 384.69 209.5 384.49 208.87 384.16 209.18 383.86 209.88 383.54 210.35 382.99 211.11 382.89 211.57 382.72 211.35 382.03 211.9 382.05 213.33 382.26 214.28 381.63 214.75 381.21 215.29 381.55 Z M 381.26 329.31 382.34 330.37 383.55 331.26 384.57 331.06 385.39 330.16 387.53 331.19 389.43 333.01 395.09 334.52 396.27 335.71 398.3 336.18 402.36 334.16 407.03 332.46 408.88 333.88 410.73 334.69 412.35 333.49 413.98 332.11 419.15 339.27 418.57 347.33 413.94 351.36 412.71 354.02 406.42 356.74 403.31 357.51 401.58 357.36 400.34 358.01 397.96 362.19 395.22 364.51 392.33 366.6 390.92 369.91 390.56 373.8 388.96 376.64 387 379.62 385.52 383.44 384.44 387.38 382.67 390.32 382.54 393.5 385.78 394.62 386.25 396.01 386.49 397.61 387.89 400.6 387.67 403.83 388.96 406.22 390.78 407.21 390.02 410.68 384.74 415.84 383.9 419.23 383.72 422.35 381.06 424.57 373.84 419.81 365.75 417.42 361.16 419.51 357.47 422.75 353.51 423.2 349.31 423.23 344.72 423.73 340.07 423.67 337.91 422.64 335.99 421.42 333.76 421.89 331.13 421.86 327.32 422.37 323.68 424.15 318.97 423.58 315.93 420.93 316.1 416.74 313.52 414.37 312.75 412.02 313.87 408.37 311.32 405.2 307.6 405.37 306.68 406.67 305.44 407.64 304.63 409.32 304.33 411.12 300.42 411.16 294.48 404.6 290.61 402.01 288.4 401.25 286.1 401.11 283.99 403.15 279.7 402.81 276.53 405.14 276.51 406.85 276.63 408.56 275.47 410 273.87 410.96 273.96 412.31 274.21 413.6 273.15 415.39 271.48 416.58 269.41 417.39 267.24 417.91 265.41 418.82 263.71 419.84 259.47 420.36 255.46 421.55 251.69 422.32 248.54 421.46 248.73 418.03 249.54 414.62 250.27 409.99 246.62 409.19 234.33 411.99 231.71 412.68 231.69 412.68 229.95 411.06 229.33 409.71 230.25 406.72 232.43 403.02 235.86 396.49 238.75 393.1 242.87 391.9 247.58 391.11 251.6 390.93 253.45 389.72 255.23 387.63 257.75 387.1 260.01 389.16 262.33 391.49 264.03 391.96 262.38 387.23 261.21 385.08 259.29 384.19 241.34 386.58 235.09 383.4 235.47 380 235.57 378.64 238.53 377.44 241.12 375.36 243.51 373.13 247.31 371.33 251.97 369.24 255.51 365.23 256.05 361.45 257.99 360.51 259.43 359.77 260.19 359.23 264.73 358.86 269.17 359.31 271.99 361.07 274.01 361.48 275.35 363.38 275.88 362.35 276.31 360.92 276.5 359.43 274.81 358.34 273.64 357.65 271.22 356.67 268.47 355.15 266.24 353.79 265.07 353.31 265.41 352.22 266.46 351.04 267.51 350.34 268.66 350.13 275.72 350.5 277.27 350.4 278.41 349.91 279.18 348.77 279.47 347.84 280.08 347.2 281.82 346.96 282.38 346.54 281.72 345.62 280.37 344.67 278.88 344.22 278.47 344.47 269.18 347.52 266.06 347.65 259.93 347.32 253.88 346.93 253.83 344.76 253.44 341.76 252.27 340.93 248.5 339.88 242.93 340.59 242.38 336.77 253.85 335.77 260.09 335.14 266.4 334.84 268.43 333.85 270.61 334.36 273.26 333.26 277.93 330.39 283.85 328.48 286.35 327.03 286.58 325.2 279.16 327.06 279.16 327.06 284.86 321.38 290.91 320.84 298.02 319.6 311.13 316.26 315.8 317.02 314.67 322.6 317.37 326 321.1 325.43 324.65 324.32 331.62 323.22 333.45 322.7 335.24 322.06 337.9 321.61 339.6 319.47 341.71 317.71 345.75 320.62 351.44 328.91 355.64 330.62 357.26 330.95 358.02 332.22 357.13 333.66 357.65 334.68 364.98 335.46 367.71 334.91 371.44 334.77 375.19 333.93 378.26 331.74 381.26 329.31 Z" fill-rule="evenodd" id="KOR-2499" data-name="North Jeolla"/>
<path d="M 301.11 429.36 303.67 435.14 298.69 440.58 290.88 439.56 283.99 436.18 280.53 429.95 283.26 427.84 287.8 428.82 291.12 428.21 294.59 427.36 301.11 429.36 Z" id="KOR-2500" data-name="Gwangju"/>
<path d="M 227.63 272.36 227.49 273.15 227.36 273.78 227.71 274.99 228.66 277.33 230.37 279.45 231.09 281.43 229.88 280.98 224.26 281.23 222.44 281 222.09 279.1 222.7 278.43 223.68 277.71 224.19 276.59 221.17 278.12 219.76 277.58 220.15 275.69 222.44 273.14 221.57 272.36 219.84 274 219.26 272.87 217.93 273.44 218.62 270.4 218.14 265.77 217.55 262.97 216.24 259.43 217.34 258.28 219.58 256.61 221.99 255.94 223.68 258.11 223.9 258.89 223.35 259.82 222.39 260.44 222.5 261.31 224.63 265.19 224.97 266.43 224.42 267.46 225.07 268.36 226.5 269.05 227.63 270.63 224.97 270.63 224.97 271.41 225.84 271.55 227.63 272.36 Z M 298.09 218.52 298.13 218.53 304.03 219.5 308.98 219.51 319.5 215.91 324.96 217.9 329.85 221.19 335.83 221.84 336.82 223.71 338.31 224.97 340.01 225.76 342.18 229.26 343.85 230.2 343.71 232.8 344.76 233.57 345.6 234.84 345.87 236.28 345.56 237.7 344.94 239.04 344.55 240.42 344.38 241.51 343.74 242.48 342.56 242.74 341.36 242.59 340.3 243.5 337.63 247.22 334.13 251.3 316.13 245.54 313.18 252.1 313.57 271.26 311.65 272.74 310.5 275.4 322.02 277.22 330.65 275.32 337.42 283.88 339.72 287.48 340.37 296.66 342.99 303.54 349.22 302.23 354.73 298.9 356.54 298.41 359.85 296.25 361.68 290.78 363.34 288.63 363.96 285.66 365.62 283.86 367.75 282.6 369.5 283.24 371.12 283.68 370.64 285.87 368.56 287.13 367.28 289.02 366.13 291.14 363.26 295.29 361.75 300.19 361.53 303.68 361.87 307.28 365.95 306.6 369.7 307.58 373.58 309.51 374.89 313.27 374.72 317.64 375.8 321.98 378.38 325.69 381.26 329.31 378.26 331.74 375.19 333.93 371.44 334.77 367.71 334.91 364.98 335.46 357.65 334.68 357.13 333.66 358.02 332.22 357.26 330.95 355.64 330.62 351.44 328.91 345.75 320.62 341.71 317.71 339.6 319.47 337.9 321.61 335.24 322.06 333.45 322.7 331.62 323.22 324.65 324.32 321.1 325.43 317.37 326 314.67 322.6 315.8 317.02 311.13 316.26 298.02 319.6 290.91 320.84 284.86 321.38 279.16 327.06 276.56 327.71 274.01 329.13 271.86 330.8 269.5 331.72 266.67 332.11 264.03 333.06 262.1 332.29 261.45 331.41 261.25 330.26 260.59 328.66 259.54 327.29 257.41 325.02 256.26 323.48 258.02 322.33 257.2 321.53 255.47 320.95 253.89 320.52 250.99 316.49 248.77 315.71 247.09 316.5 246.29 316.49 246.22 315.1 243.37 313.62 240.9 313.94 240.13 316.32 239.71 317.14 238.84 316.49 239.35 312.8 243.64 311.04 247.44 310.07 252.74 311.3 250.87 308.8 249.81 307.82 248.4 306.98 247.55 306.83 246.54 307.3 245.82 306.98 244.88 306.15 244.09 305.25 246.75 299.35 248.27 296.76 250.13 295.76 248.73 294.38 243.35 293.05 241.42 292.22 243.32 290.8 248.95 289.7 250.13 288.38 249.31 286.7 247.32 286.28 243.15 286.26 242.28 285.77 240.79 284.31 239.77 283.58 239.77 282.73 241.42 282.73 239.52 279.89 241.81 278.87 244.42 278.23 246.86 275.37 252.07 274.2 254.53 273.14 247.15 273.14 245.37 273.96 242.64 277.23 240.63 277.54 239.38 276.31 238.22 273.97 237.49 271.57 237.58 270.16 240.21 267.67 241.44 266.14 241.04 265.45 238.61 266.15 237.51 265.32 236.52 264.79 235.92 264.7 235.33 263.53 235.89 262.47 235.78 261.31 235.14 259.14 234.37 258.22 234.32 257.69 236.06 257.6 238.59 256.65 241.23 256.72 241.43 255.18 242.19 253.82 241.16 252.72 239.66 252.47 237.62 250.85 238.91 249.37 240.69 248.22 239.49 246.47 236.45 246.01 235.84 243.9 236.81 242.34 239.77 241.96 238.07 240.41 237.48 239.62 237.09 238.51 236.03 239.24 234.24 240.81 232.23 241.5 231.83 242.39 231.9 243.28 232.8 244.38 232.95 246.53 232.02 249 232.58 252.31 231.23 255.14 230.09 256.3 227.75 254.83 225.3 254.74 222.87 253.45 223.48 246.62 224.23 244.15 222.77 243.59 223.21 240.39 221.85 239.08 219.81 239.37 218.67 241.01 218.36 243.04 217.45 244.52 214.56 244.56 215.75 246.5 218.05 249.46 218.89 251.55 217.5 252.49 217.68 253.54 219.81 255.86 217.88 256.17 216.24 256.92 214.87 258 213.77 259.32 213.79 258.39 213.65 257.45 213.36 256.59 212.93 255.86 214.67 252.77 210.95 247.87 212.06 245.42 211.1 241.96 208.77 243.01 205.42 246.41 202.95 247.15 201.5 247.38 200.2 247.79 198.9 247.86 197.37 247.15 197 246.56 196.47 245.38 196.28 244.22 196.89 243.69 202.11 243.73 203.44 243.01 203.41 241.1 202.05 239.11 200.11 238.34 198.07 237.86 196.43 236.78 195.78 238.3 195.41 241.45 194.7 242.91 193.22 243.99 192.72 242.97 192.88 239.8 192.63 236.72 192.98 235.87 196.22 232.56 196.86 231.41 197.37 229.79 197.77 231.02 198.31 232.12 198.99 233.16 199.87 234.19 200.54 233.68 201.37 233.73 202.33 234 203.41 234.19 202.08 232.68 200.73 230.74 204.34 231.6 205.82 231.29 206.78 229.79 203.55 229.61 201.56 228.88 201.32 227.31 203.41 224.61 200.55 222.71 200.73 220.95 202.92 219.53 206.01 218.64 205.2 221.73 205.51 222.58 207.25 222.88 210.39 222.84 211.24 222.37 212.06 221.23 212.29 218.38 211.97 214.56 212.55 211.44 215.5 210.71 215.12 212.46 215.21 215.19 215.77 217.96 217.34 221.29 216.57 222.46 215.33 223.52 214.56 224.61 214.6 225.78 215.4 227.64 215.5 228.14 214.81 228.74 212.53 229.94 212.06 230.26 212.18 231.36 212.6 232.51 213.27 233.18 214.17 232.85 216.3 231.27 217.9 231.24 221.54 233.25 218.93 228.7 218 225.88 219.35 224.61 221.39 226.7 222.64 227.35 223.21 225.98 223.75 225.55 225.07 225.13 227.6 224.61 227.6 223.82 226.59 223.7 224.15 222.88 224.15 222.09 227.2 221.52 228.99 219.19 229.45 216.35 228.46 214.25 227.36 213.95 224.05 213.91 222.41 213.38 221.18 212.18 220.78 211.01 221.39 210.6 223.21 211.65 224.05 209.69 223.15 208.53 221.2 208.05 218.89 208.19 219.82 207.22 221.08 206.52 222.44 206.34 223.68 206.9 224.88 207.64 225.94 207.81 226.42 207.42 225.87 206.46 225.87 205.52 230.53 205.46 232.77 206.09 233.71 207.76 233.08 208.8 231.86 209.89 231.12 211.33 231.92 213.38 233.03 212.49 234.47 211.86 235.7 211.89 236.23 212.95 236.37 213.83 236.96 214.63 237.09 215.5 236.87 215.83 235.72 216.92 235.36 217.7 235.36 223.36 235.78 224.99 236.71 226.14 237.64 226.57 238.05 225.98 238.56 222.83 240.88 216.79 241.42 213.81 242.1 213.11 243.63 213.94 245.82 215.89 246.72 217.26 247.37 218.53 248.33 219.36 250.13 219.42 250.13 218.64 249.22 217.68 248.12 215.1 247.15 213.81 239.4 207.25 238.84 206.9 239.27 205.53 240.36 205.69 241.65 206.66 243.67 208.68 244.74 209.44 246.04 209.92 247.61 209.92 248.8 209.37 248.91 208.5 248.05 207.68 246.26 207.33 243.85 206.4 241.23 204.44 240.04 201.52 239.77 199.56 242.09 199.51 244.1 200.29 245.92 201.56 248.45 203 250.87 204.34 251.86 205.15 253.78 206.19 255.63 207.01 256.89 208.74 256.3 210.45 255.07 211.61 255.32 212.51 256.57 214.44 256.73 215.62 256.26 217.7 257.65 216.93 258.21 215.99 258.55 214.94 258.07 211.84 258.58 210.81 259.39 209.73 260.56 207.97 262.64 207.19 264.6 207.17 266.8 207.4 269.22 208.11 272.29 208.77 274.49 209.92 277.16 212.12 277.34 214.82 275.35 220.29 276.87 219.48 279.25 217.03 280.54 216.84 281.45 217.88 281.97 219.74 282.25 223.36 282.12 224.13 281.53 225.85 281.41 226.85 281.66 227.89 282.78 229.4 283.85 233.34 283.49 234.47 281.41 234.98 281.79 236.04 282.28 236.77 283.01 237.26 284.07 237.65 284.81 234.81 286.05 233.12 286.69 231.31 285.64 228.14 288.2 228.74 290.89 229.01 286.55 225.15 285.25 223.02 287.83 222.09 290.16 221.79 295.66 220.01 298.09 218.52 Z" fill-rule="evenodd" id="KOR-2502" data-name="South Chungcheong"/>
<path d="M 347.55 272.43 347.26 273.4 347.7 274.32 348.61 275.11 349.7 275.54 350.44 276.96 349.95 279.18 353.77 280.05 357.85 279.32 359.33 277.6 361.09 277.95 360.87 279.39 362.43 280.03 362.65 282.29 363.96 285.66 363.34 288.63 361.68 290.78 359.85 296.25 356.54 298.41 354.73 298.9 349.22 302.23 342.99 303.54 340.37 296.66 339.72 287.48 337.42 283.88 330.65 275.32 336.44 274.04 344.66 272.23 347.55 272.43 Z" id="KOR-2503" data-name="Daejeon"/>
<path d="M 523.26 352.17 522.3 351.94 521.11 352.03 521.18 352.86 521.01 353.93 519.82 356.46 519.81 357.28 519.43 358.46 516.6 359.85 509.29 358.3 505.2 357.97 503.39 359.13 501.59 361.69 500.62 362.36 499.46 361.58 497.9 360.76 495.67 359.29 494.16 356.93 492.32 355.46 490.36 354.84 489.6 352.5 491.35 350.52 493.25 350.51 495.29 350.24 495.82 349.04 496.06 347.78 494.95 347.44 493.74 347.28 495.1 344.8 497.27 342.86 496.48 337.09 502.43 333.09 510.48 332.22 517.16 331.86 522.24 334.88 523.85 337.15 523.78 338.15 523.17 338.99 523.21 342.19 524.23 343.43 525.59 344.37 525.85 346.38 525.91 348.52 525.23 350.52 523.26 352.17 Z" id="KOR-2504" data-name="Daegu"/>
<path d="M 463.78 506.09 464.36 506.14 466.74 505.17 467.06 505.46 466.87 506.13 465.66 507.37 465.11 507.67 464.3 507.76 463.1 507.54 462.11 507.66 460.77 508.21 460.11 508.72 459.36 508.86 459.23 508.38 459.67 507.57 459.55 506.92 458.99 506.46 458.52 506.37 457.96 506.02 458.02 505.39 458.36 504.81 458.41 504.12 458.91 503.72 459.77 503.55 463.77 505.31 463.78 506.09 Z M 477.42 481.98 478.28 482.33 479.49 481.92 481.43 481.52 483.64 481.4 484.88 482.4 485.21 484.02 484.54 485.04 485 485.65 484.45 486.41 483.18 485.98 482.68 486.24 482.72 486.55 483.75 486.72 484.8 487.43 484.29 488.19 482.99 489.52 480.9 489.54 479.98 488.58 479.49 487.59 478.43 487.56 478.68 486.73 478.33 485.9 476.69 485.7 476.11 485.31 477.32 484.52 477.55 483.56 476.33 482.76 474.05 482.12 472.6 482.49 471.75 482.45 471.48 481.62 472.49 480.7 473.98 480.39 475.93 481.04 477.42 481.98 Z M 460.01 484.87 459.63 485.26 458.44 484.98 457.7 484.68 456.31 483.89 455.5 482.9 455.66 482.21 456.52 481.05 458.22 479.99 459.82 480.3 461.71 482.04 462.42 483.02 461.92 483.7 460.56 483.7 459.92 483.98 460.01 484.87 Z M 431.16 476.13 431.83 476.5 432.57 475.13 434.06 473.2 435.27 473.03 435.64 473.91 436.29 474.42 436.92 474.71 437.21 476.23 437.93 478.33 438.67 479.17 439.18 479.5 439.88 480.37 438.55 480.65 432.82 479.41 429.69 480.24 427.86 480.06 425.97 479.11 424.86 477.31 425.73 475.36 427.46 473.52 428.56 471.79 429.71 470.57 431.72 470.12 432.37 471.53 431.48 473.57 431.04 474.96 431.16 476.13 Z M 423.12 481.75 424.65 483.99 427.1 483.64 430.21 482.64 433.14 482.12 437.4 482.71 438.27 482.97 438.92 484.41 438.55 485.68 437.85 487.02 437.47 488.67 437.82 491.28 437.72 492.78 437 493.43 435.99 493.89 437.06 496.46 436.54 497.75 434.59 498.05 432.74 497.13 430.74 496.41 428.39 497.31 426.33 497.53 425.08 495.08 423.66 489.97 421.58 489.04 419.92 489.99 418.8 492.12 418.37 494.76 417.6 495.87 415.81 495.92 413.92 495.38 412.76 494.76 411.98 493.62 411.79 492.68 411.76 491.58 411.49 489.97 408 480.63 407.53 478.37 407.87 476.15 409.32 473.87 410.29 473.29 411.28 473.14 412.04 472.72 412.64 469.92 413.38 469.13 415.41 467.82 417.08 467.16 418.99 467.64 420.67 468.87 421.65 470.45 421.47 472.12 420.36 473.71 417.52 476.15 418.03 477.02 418.62 479.24 419.33 480.39 420.41 481.01 423.12 481.75 Z M 521.05 465.32 521.82 466.51 522.38 467.74 522.35 469.4 521.85 470.91 519.85 475.21 522.41 474.46 523.64 473.77 524.05 474.02 524.17 476.15 524.03 477.65 523.46 479.24 522.35 480.12 520.63 479.53 521.33 481.22 522.97 484.09 523.31 486.05 522.34 486.36 520.13 485.73 517.75 484.7 516.31 483.85 515.91 485.62 515.52 486.57 513.33 488.67 512.62 490.32 514.12 491.26 516.2 491.98 517.25 492.95 515.28 494.38 506.11 496.72 503.35 496.88 507.68 494.29 505.89 493.59 505.21 492.47 505.31 490.96 505.95 489.11 502.02 490.76 500.86 490.1 500.29 488.64 500.37 487.18 501.16 486.51 504.31 485.99 505.21 484.59 505.27 482.62 505.95 480.39 504.22 479.53 502.92 480.84 498.38 482.5 496.37 483.85 494.93 482.01 493.13 480.38 491.66 478.56 491.26 476.15 492.08 474.7 493.75 473.36 495.67 472.33 497.32 471.75 502.06 470.95 503.35 470.97 505.43 471.69 507.09 472.58 508.79 473.27 511.14 473.4 511.14 472.61 508.79 471.34 507.45 469.46 506.85 467.3 506.72 465.28 508.39 465.44 517.25 461.31 515.74 458.98 516.45 456.68 518.4 455.4 520.63 456.12 521.19 457.17 521.23 458.4 520.4 463.09 520.47 463.83 521.05 465.32 Z M 534.71 460.35 534.06 460.53 533.75 459.98 533.13 457.77 532.17 456.95 531.83 456.3 531.99 455.4 531.55 454.35 530.89 453.35 531.24 452.44 532.57 451.82 534.03 451.69 535.29 452 536.16 453.6 536.1 456.8 535.54 459.42 534.71 460.35 Z M 557.06 386.25 557.6 391.28 554.43 396.48 556.33 399.6 564.12 400.58 567.41 402.61 572.87 407.71 579.38 410.63 582.29 412.48 583.14 415.99 585.9 418.22 589.49 419.26 590 419.62 589.41 421.3 589.19 423.64 588.44 424.85 587.59 425.88 588.3 427.61 588.34 428.32 586.91 430.69 584.9 434.2 582.65 436.41 581.43 438.49 581.2 438.86 580.95 438.41 578.4 436.28 576.11 433.87 573.22 431.95 570.96 429.38 570.26 426.61 567.77 425.31 564.57 425.21 561.59 426.19 559.18 427.61 557.38 429.44 556.05 436.92 554.25 439.16 552.33 441.12 551.28 442.69 550.67 442.25 549.53 443.63 545.67 449.21 543.92 449.31 543.8 446.74 543.92 444.32 543.07 444.22 541.98 446.23 541.08 449.26 537.95 448.96 529.61 449.07 529.14 446.75 528.29 445.52 527.14 449.03 525.87 449.52 522.93 448.44 521.55 446.32 520.03 446.17 518.09 447.41 518.09 441.87 517.56 441.41 516.48 441.78 515.56 442.94 515.49 444.9 513.48 443.61 511.92 441.76 510.19 440.61 507.65 441.44 508.2 439.66 507.15 437.12 507.65 436.18 506.38 432.85 505.64 432.5 504.19 433.58 502.61 435.61 502.58 436.96 504.19 439.71 505.08 443.05 505.61 444.23 506.69 445.75 508.8 448.08 509.11 449.26 508.51 450.94 509.51 451.06 511.08 451.61 511.97 451.81 510.86 452.41 509.75 452.66 507.18 452.66 505.83 452.4 505.45 451.73 505.39 450.89 504.97 450.08 503.75 449.03 502.89 448.45 496.06 446.48 494.15 446.38 489.96 447.03 488.81 447.5 488.9 448.39 490.36 450.08 488.01 450.46 483.68 452.25 478.7 453.37 478.05 454.97 477.81 456.71 476.46 457.85 476.46 458.71 489.08 453.21 491.22 453.09 491.66 455.32 492.42 456.95 492.67 458.4 491.66 460.09 490.04 460.83 487.57 461.17 485.1 461.07 483.46 460.52 482.6 461.75 483.19 462.35 484.33 462.9 485.19 463.98 485.31 464.64 485.35 465.58 485.19 468.22 484.24 473.4 485.41 474.31 486.52 474.01 487.39 473 487.78 471.75 489.49 473.4 487.73 475.99 484.54 479.41 481.71 480.11 477.91 479.9 477.97 477.97 480.41 477.94 481.45 477.79 482.08 476.94 474.22 476.21 472.59 475.67 470.77 473.61 470.52 472.57 471.81 471.9 474.73 470.97 471.86 466.23 469.79 467.91 467.71 471.21 464.77 471.36 462.09 468.41 460.69 467.67 457.82 467.43 456.55 468.06 455.85 469.58 455.6 471.53 455.66 473.4 452.98 473.03 447.1 473.24 444.79 472.18 444.52 471.5 444.49 469.65 444.35 469.16 443.77 469.03 442.36 469.24 440.53 468.9 437.56 468.69 436.51 468.22 435.92 467.21 435.98 466.21 436.3 465.26 436.51 464.41 436.3 455.04 436.51 453.53 436.88 452.83 437.53 451.9 438.08 450.68 438.24 449.14 436.26 451.08 434.63 453.34 432.62 455.04 429.59 455.26 431.9 459.74 430.33 460.61 426.9 460.55 423.63 462.25 422.3 459.21 421.49 457.97 420.07 457.07 419.7 461.15 418.34 464.37 415.7 466.32 412.32 466.56 410.97 466.12 409.77 465.87 408.77 465.96 408 466.56 406.11 465.29 404.79 464.99 404.79 464.99 404.47 464.43 404.48 462.08 402.78 458.65 394.9 451.61 393.54 449.27 392.44 446.6 389.61 444.17 386.5 442.32 384.79 439.8 384.25 433.07 382.98 429.83 380.38 427.33 381.06 424.57 383.72 422.35 383.9 419.23 384.74 415.84 390.02 410.68 390.78 407.21 388.96 406.22 387.67 403.83 387.89 400.6 386.49 397.61 386.25 396.01 385.78 394.62 382.54 393.5 382.67 390.32 384.44 387.38 385.52 383.44 387 379.62 388.96 376.64 390.56 373.8 390.92 369.91 392.33 366.6 395.22 364.51 397.96 362.19 400.34 358.01 401.58 357.36 403.31 357.51 406.42 356.74 412.71 354.02 413.94 351.36 418.57 347.33 419.59 350.15 422.15 351.35 423.33 352.07 424.49 352.88 424.59 353.88 425.1 354.9 426.12 355.28 427.16 355.56 430.99 355.8 432.65 356.93 434.7 358.06 438.34 358.29 441.92 358.26 445.19 359.15 447.6 361.28 449.28 363.88 452.08 365.49 452.79 366.67 453.22 367.76 455.17 368.74 456.85 370.36 456.78 373.34 455.26 376.19 457.25 382.04 465.05 382.31 468.87 381.87 472.52 382.37 475.95 383.71 479.19 385.69 482.79 386.28 489.56 383.44 493.02 384.02 496.15 380.39 499.07 378.55 500.11 385.55 503.3 388.72 507.27 390.76 511.86 390.34 516.59 389.65 520.72 390.68 524.67 392.38 529.39 392.49 533.51 389.83 535.33 389.28 537.16 389.08 538.9 387.86 540.35 386.33 544.93 384.8 549.79 385.78 553.52 387.21 557.06 386.25 Z" fill-rule="evenodd" id="KOR-2505" data-name="South Gyeongsang"/>
<path d="M 340.35 578.32 340.66 578.86 340.22 580.03 340.44 581.34 342.05 583.55 342.79 584.1 343.69 584.31 344.02 584.74 343.87 585.36 342.08 584.64 340.35 584.31 340.04 583.91 339.61 583.05 339.33 581.99 338.85 581.71 338.46 581.31 338.15 580.45 338.34 579.94 338.28 579.35 338.37 578.83 338.77 578.72 339.23 578.85 339.82 578.69 340.16 578.36 340.35 578.32 Z M 67.27 579.6 66.88 580.16 66.32 580.08 66.04 579.95 65.43 579.62 62.95 577.73 61.54 577.01 61.24 576.03 61.85 574.7 62.82 573.96 64.22 574.35 65.33 575.49 67.15 578.59 67.27 579.6 Z M 248.26 564.76 249 564.83 250.06 564.57 251.48 564.59 252.2 564.76 253.3 565.14 254.35 566.23 254.04 566.79 253.51 566.4 253.06 566.34 252.84 566.83 252.36 566.68 251.21 566.15 250.02 566.18 249.34 566.73 248.91 567.41 247.5 568.2 246.25 569.14 244.34 570.09 241.92 570.01 240.57 568.52 240.48 566.61 241.59 564.73 243.84 563.43 245.76 563.43 248.26 564.76 Z M 260.6 571.03 259.35 571.31 258.7 570.99 258.48 570.4 257.87 570 257.22 569.88 256.94 568.18 257.75 565.27 258.02 563.64 257.19 563 256.94 562.41 257.99 561.58 258.06 561.15 259.14 561.16 261.28 562.07 261.58 563.3 260.37 564.16 260.16 565.13 261.44 566.7 261.95 566.93 262.38 567.55 261.98 567.93 261.42 568 261.24 568.76 261.24 570.03 260.6 571.03 Z M 292.81 564.97 292 566.15 290.52 566.81 288.64 566.94 287.25 566.35 286.1 565.49 285.27 565.57 284.84 566.21 284.36 565.98 283.85 564.03 284.63 562.72 284.84 561.51 285.33 560.55 286.23 559.84 288.03 559.11 290.19 559.57 291.47 561.08 292.68 561.99 293.45 562.7 293.12 564.29 292.81 564.97 Z M 250.92 563.43 250.28 563.88 248.36 563.44 247.36 562.67 247.11 562.16 246.57 562 245.98 561.9 245.85 561.48 246.5 559.96 246.87 559.4 246.93 559.01 246.68 558.71 246.78 558.43 247.24 558.24 247.54 557.97 247.46 557.61 246.81 556.72 247.23 556.42 248.23 556.69 249.21 557.13 251.85 557.5 253.21 558.08 253.86 558.49 254.38 559.11 254.48 560.22 253.61 560.83 253.16 562.27 251.32 562.35 250.3 562.53 250.92 563.43 Z M 180.61 546.25 184.97 547.01 186.79 546.78 187.64 547.13 187.51 548.54 187.72 549.45 187.12 550.18 185.9 550.3 185.19 550.79 184.63 550.58 184.11 549.9 183.67 549.91 183.46 550.54 182.65 550.64 180.04 549.74 179.15 548.69 179.07 548 179.61 547.4 179.67 546.77 180.61 546.25 Z M 283.14 541.8 284.05 542.01 284.59 541.97 285.13 541.89 286.54 542.02 288.33 542.38 289.44 542.92 289.19 543.84 288.46 544.55 288.27 544.99 288.14 545.87 287.35 546.59 286.26 546.41 285.08 546.59 284.45 547.06 283.91 547.51 282.77 547.71 282.15 546.98 281.89 546.01 281.21 545.24 280.23 544.89 278.94 545.05 277.42 545.5 276.21 545.49 275.72 545.28 275.24 545.02 272.44 543.99 272.27 543.57 273.56 543.43 274.83 543.12 275.38 542.85 275.85 542.66 276.85 542.79 278 543.24 279.4 542.76 281.11 541.6 282.4 541.34 283.14 541.8 Z M 308.75 540.84 309.73 541.2 311.46 540.75 312.73 540.63 313.32 541.06 313.75 541.63 314.52 542.45 314.95 542.76 315.2 543.35 314.43 543.49 313.36 543.04 312.1 542.81 311.2 543.1 311.53 543.45 312.3 543.81 311.38 544.57 309.15 546.02 307.85 546.51 307.73 545.39 308.35 544.6 309.16 544.16 308.7 543.65 305.94 543.18 306.31 542.67 306.01 542.04 305.16 541.61 303.04 541.45 302.22 541.22 301.86 541.02 302.16 540.78 303.09 540.63 303.82 540.21 305 539.04 306.25 538.18 306.15 537.85 306.55 537.96 307.45 538.68 308.27 539.7 308.75 540.84 Z M 270.75 545.07 273.07 546.97 273.32 547.75 274.03 549.16 273.59 549.5 272.98 549.43 272.36 549.29 271.23 548.88 270.26 548.36 269.72 548.45 269.6 549.19 268.99 549.48 267.88 549.06 265.96 548.69 263.58 548 263.56 547.18 264.74 546.44 264.43 545.51 263.34 545.26 262.02 545.55 260.37 545.17 258.89 544.37 258 543.44 257.63 542.07 257.51 540.5 257.61 538.91 258.12 537.31 259.12 536.09 260.48 535.55 261.21 535.41 263.43 535.23 264.88 535.62 266.24 536.38 267.74 537.85 268.92 540.29 269.27 542.29 269.67 543.22 270.36 543.99 270.75 545.07 Z M 285.25 535.63 285.36 536.4 284.44 536.53 281.84 535.87 280.76 536.09 280.12 536.87 276.79 538.15 275.61 539.46 275.24 540.82 274.56 541.21 273.74 540.42 273.76 539.11 273.49 538.01 272.88 537.64 272.27 537.6 271.71 537.14 272.17 536.38 272.76 535.64 273.63 534.05 275.42 532.1 277.92 530.96 280.54 530.44 282.12 530.67 282.72 531.43 282.82 532.26 282.16 532.82 282.26 533.12 283.44 533.72 284.4 534.61 285.25 535.63 Z M 364.53 527.41 364.56 527.73 365.15 527.61 366.29 526.67 367.46 526.62 370.24 529.08 370.8 530.34 370.8 531.09 369.85 531.94 367.54 533.17 365.52 533.68 364.8 533.34 364.75 532.26 363.89 531.52 362.62 531.18 362.03 530.52 362.37 530.02 360.99 529.29 360.15 528.77 360.6 527.83 360.52 527.12 360.3 526.55 360.92 526.26 361.81 526.58 362.76 527.03 364.53 527.41 Z M 329.53 532.45 324.31 533.24 322.3 533.01 320.81 532.41 317.79 530.73 317.79 529.79 318.48 529.08 318.6 528.5 318.11 527.93 316.92 527.27 318.67 526.21 320.69 525.53 324.83 524.89 328.78 524.51 330.84 524.64 332.57 525.33 333.95 527.38 333.54 529.73 331.87 531.66 329.53 532.45 Z M 401.54 524.29 400.51 524.33 400.24 524.1 399.83 523.6 398.66 523.05 396.81 522.54 395.58 521.76 395.01 520.68 394.39 519.9 393.35 519.44 392.46 518.54 393.14 517.46 395.27 516.62 397.59 516.37 399.23 517.38 401.15 520.45 400.92 521.34 400.98 521.79 402 521.95 402.84 522.33 403.39 523.05 403.11 523.84 401.54 524.29 Z M 216.34 517.99 217.19 518.55 217.76 518.4 220.63 516.91 220.74 518 224.5 523.03 224.69 524.77 224.35 526.72 223.68 528.6 221.18 533.01 220.17 534.34 218.92 535.05 218.7 534.65 216.54 532.97 215.54 532.45 215.54 533.24 215.03 535.27 202.98 540.7 201.53 541.11 196.2 541.48 194.73 541.17 194.45 540.07 195.16 539.14 196.1 538.37 196.46 537.72 195.78 536.94 192.14 535.05 192.14 537.72 189.48 535.13 191.06 530.91 194.66 527.49 198.19 527.27 199.33 524.54 200.08 523.56 201.25 522.48 202.61 521.87 203.81 521.7 204.73 521.13 205.08 519.34 206.56 520.85 208.57 521.02 210.36 520.04 211.13 518.12 210.17 516.54 206.91 514.42 207.76 513.37 209.81 513.25 211.9 514.19 213.71 515.38 215.06 515.97 215.37 516.32 215.74 517.12 216.34 517.99 Z M 183.7 518.71 182.32 518.89 180.86 518.54 180.41 517.89 181.14 517.68 181.91 517.65 182.55 517.12 183.3 516.65 183.18 516.21 180.37 515.7 181.05 515.03 182.8 514.81 184.63 514.76 186.07 513.85 186.7 512.61 186.08 511.35 184.82 509.67 184.01 507.55 184.97 506.96 186.51 507.98 187.43 508.77 188.99 509.49 189.08 510.59 189.37 510.83 189.6 511.47 189.49 512.78 189.1 514.19 188.99 515.41 188.28 516.04 187.26 516.67 186.2 517.49 183.7 518.71 Z M 181.23 514.04 180.03 514.5 179.01 513.79 178.51 509.4 178.97 506.96 180.03 505.85 181.64 508.77 182.99 510.39 184.05 512.17 183.7 513.65 182.56 513.97 181.23 514.04 Z M 104.79 498.09 105.21 499.01 106.29 498.99 107.75 498.68 107.99 499.19 106.88 500.1 106.29 500.67 105.96 501.4 103.97 503.32 103.58 504.21 102.74 505.35 102.09 506.09 101.58 506.56 100.34 506.13 99.53 504.32 99.66 502.63 100.36 501.09 101.21 499.73 102.12 498.54 103.18 497.89 104.22 497.72 104.79 498.09 Z M 403.89 512.74 402.47 512.84 401.05 512.21 396.57 508.45 396.04 506.99 396.8 504.66 397.36 504.05 399.73 502.57 400.15 501.82 401.11 498.61 399.19 496.93 399.42 495.9 400.8 495.38 402.37 495.23 403.73 495.73 404.07 496.92 403.42 498.31 401.89 499.48 403.21 499.76 404.36 501.26 405.27 503.12 406.34 506.29 406.45 508.13 406.07 509.93 405.15 511.67 403.89 512.74 Z M 176.29 500.38 174.37 502.51 173.49 503.04 172.61 503.1 171.32 503.01 171.31 502.61 169.47 501.73 167.49 501.03 166.93 501.2 165.79 499.09 166.65 498.11 170.39 496.88 172.69 494.28 173.47 493.95 173.94 494.21 175.02 495.84 176.54 496.97 176.93 497.49 177.09 498.46 176.82 499.45 176.29 500.38 Z M 191.32 488.67 192.51 489.11 193.26 489.78 194.37 490.24 195.87 490.33 197.11 490.57 197.95 491.21 198.41 491.9 198.31 492.54 198.44 493.37 198.87 494.48 198.92 495.84 198.19 497.05 196.58 497.17 195.1 495.96 193.93 494.56 192.57 494.54 191.89 495.04 191.45 495.22 190.5 495.28 189.6 494.74 189.39 493.66 188.23 491.92 185.74 489.76 185.22 488.71 186.44 488.98 187.44 488.98 188.38 488.59 189.73 488.47 191.32 488.67 Z M 177.32 487.28 177.37 489.97 176.78 489.75 175.34 489.42 174.7 489.11 173.61 490.3 171.88 490.31 170.3 490.03 169.6 490.36 169.34 492.06 168.66 493.55 167.56 494.67 166.06 495.23 164.57 495.08 163.48 494.23 162.82 492.89 162.61 491.22 162.99 489.65 164 488.54 165.39 487.79 166.93 487.3 168.65 487.85 170.92 487.44 175.05 486.14 175.9 486.04 176.51 486.13 176.97 486.5 177.32 487.28 Z M 196.43 489.37 194.92 489.7 193.44 489.01 191.8 487.85 189.68 487.2 188.12 486.44 189.37 485.59 192.52 485.16 194.36 484.5 195.32 483.85 196.53 484.29 197.45 485.32 197.76 485.85 197.36 486.18 196.92 486.99 197.19 488.7 196.43 489.37 Z M 194.41 474.86 195.04 475.15 195.65 475.87 195.78 476.65 194.08 477.55 194.7 479.52 194.39 480.71 193.5 481.17 192.25 481.12 191.46 481.86 191.49 483.27 191.08 484.48 189.73 485.11 188.58 485.03 188.31 484.28 188.36 483.78 186.46 482.01 185.4 480.8 184.53 479.48 184.91 478.48 186.76 477.71 188.28 477.58 189.48 478.15 190.65 478.11 190.99 477.35 190.75 475.87 191.95 474.9 193.61 474.93 194.41 474.86 Z M 221.91 477.46 222.17 480.14 219.69 482.03 218.33 481.61 219.13 480.86 219.54 480.13 219.21 479.63 215.67 478.03 215.15 477.8 211.41 478.3 209.75 478.97 207.88 479.22 206.38 478.79 205.6 477.97 206.28 477.31 208.29 477.2 210.87 476.43 211.32 475.95 211.73 475.6 211.85 475.07 213.44 474.67 214.01 473.88 214.07 472.95 213.08 471.84 212.66 470.59 214.04 470 216.23 470.43 218.49 471.37 220.09 472.7 219.93 473.45 218.83 473.56 216.9 474.61 216.66 475.2 216.74 475.95 216.91 476.54 217.72 476.75 219.52 476.77 221.91 477.46 Z M 187.69 470.79 187.99 472.61 187.6 474.38 186.63 475.89 185.16 476.94 183.33 477.38 182.28 477.05 181.46 476.47 180.39 476.15 176.26 476.91 174.7 476.94 174.7 476.15 175.95 475.25 178.23 472.27 179.96 470.97 180.77 471.01 181.97 471.28 183.02 471.27 183.5 470.5 184.04 468.82 185.28 468.56 186.69 469.36 187.69 470.79 Z M 207.59 470.17 206.47 470.57 204.93 470.53 204.3 469.38 204.55 468.18 205.54 467.74 207.71 467.74 208.45 467.98 208.48 468.53 208.07 469.84 207.59 470.17 Z M 194.61 452.27 195.71 452.69 197.33 452.58 198.45 452.84 198.98 453.43 199.3 454 199.43 454.65 199.4 455.88 198.86 456.29 198.22 456.58 197.54 456.37 196.41 455.34 195.89 455.05 195.22 455.33 194.61 455.28 194.42 454.73 193.94 454.53 193.31 454.54 193.14 454.26 194.05 453.69 193.69 453.53 193.13 453.61 192.58 453.48 192.82 452.9 193.79 452.37 194.61 452.27 Z M 200.35 446.63 201.54 447.28 202.61 446.98 203.82 446.45 204.61 446.77 204.87 447.33 205.49 447.31 206.27 447.12 206.59 447.95 205.72 448.67 204.55 448.73 204.06 449.2 204.06 449.88 205.45 451.05 206.62 451.49 207.94 451.56 208.69 452.44 209.07 453.56 209.71 454.27 209.94 455.24 209.45 456.46 208.95 456.79 208.62 456.39 207.15 456.12 206.53 455.47 206.03 454.72 206.05 453.61 206.28 453 205.42 452.78 202.18 452.33 201.46 451.82 200.34 451.73 199.8 451.64 199.25 451.23 198.53 450.93 197.85 450.25 196.49 447.65 197.26 446.63 198.87 446.19 200.35 446.63 Z M 190.87 452.06 190.41 453.09 189.73 453.24 186.36 452.5 185.16 452.66 184.69 452.38 184.38 452.1 184.05 451.88 183.5 451.81 184.49 447.79 185.16 446.62 186.03 446.21 187.53 445.79 188.92 445.24 189.54 444.42 190.5 442.7 192.79 441.49 195.38 440.99 197.32 441.41 193.46 443.25 192.58 444.32 192.48 445.58 193.03 446.89 194.73 449.14 193.37 449.6 191.95 450.74 190.87 452.06 Z M 381.06 424.57 380.38 427.33 382.98 429.83 384.25 433.07 384.79 439.8 386.5 442.32 389.61 444.17 392.44 446.6 393.54 449.27 394.9 451.61 402.78 458.65 404.48 462.08 404.47 464.43 404.79 464.99 403.96 464.8 398.83 464.84 397.12 464.61 396.44 463.96 396.13 463 395.39 461.77 393.94 460.83 393.6 461.8 393.82 463.31 394.09 463.98 393.18 466.31 392.67 467.11 391.5 468.22 386.71 471.36 384.06 472.33 382.15 470.99 379.76 466.99 377.79 466.35 376.41 467.96 375.73 470.5 375.87 472.61 377.04 474.85 379 477.74 381.24 480.27 383.25 481.33 384.67 482.84 386 483.37 387.58 482.55 391.5 479.53 394.22 479.23 396.54 479.6 398.7 479.71 401.08 478.67 400.93 481.16 400.52 482.93 399.26 486.51 397.81 492.83 396.76 494.29 392.31 495.52 388.79 494.06 385.97 493.57 383.65 497.75 382.91 497.35 382.73 497.39 382.55 497.62 381.92 497.75 382.91 499.42 383.65 501.2 384.58 506.85 384 507.9 382.7 507.31 380.63 505.51 377.6 505.21 375.34 504.18 373.89 502.31 373.28 499.48 374.05 496.8 375.69 494.17 376.89 491.68 376.3 489.54 375.28 488.35 373.28 484.78 372.75 484.5 372.04 484.49 371.3 484.4 370.68 483.85 370.62 483.2 370.83 482.44 371.21 481.96 369.29 478.64 368.96 477.4 369.07 476.66 369.63 475.42 369.75 474.77 369.48 474.06 368.89 473.51 368.3 473.35 368.02 473.87 367.59 474.16 365.43 478.67 364.6 479.62 364.16 479.87 363.51 479.93 359.2 481.18 356.69 481.44 351.22 481.33 349.16 481.83 350.83 482.96 354.09 484.13 356.78 484.78 356.78 485.58 351.41 486.99 348.69 488.25 348.22 489.97 349.3 490.7 351.68 489.91 352.95 490.36 353.85 491.56 353.58 492.01 352.9 492.15 352.55 492.49 354.31 497.52 357.96 500.22 361.92 502.31 364.63 505.51 363.33 505.35 361.1 505.34 360.16 505.51 365.59 507.24 366.3 508.64 366.65 511.28 365.5 512.23 364.19 513.14 361.72 513.05 360.16 513.37 354.4 510.42 352.55 509.92 350.91 510.18 348.87 510.95 347.14 511.97 346.41 512.94 346.71 513.34 348.22 515.97 350 516.29 351.07 516.87 355.88 515.84 358.51 517.68 352.51 522.23 350.38 524.72 348.06 523.85 344.41 526.13 344.79 528.34 346.41 529.79 342.91 529.8 337.74 524.17 335.96 521.14 331.21 516.91 329.76 517.18 324.75 519.34 325.25 520.64 325.61 521.14 323.55 520.56 321.57 520.24 319.87 519.5 318.69 517.68 318.54 515.83 319.34 514.75 322.15 513.37 323.06 512.71 325.61 509.92 327.19 507.19 328.09 506.26 329.94 505.51 329.81 507.63 329.2 509.67 327.34 513.37 331.05 513.17 334.15 512.24 336 510.13 335.96 506.39 335.22 504.93 334.24 504.09 333.49 503.12 333.38 501.2 334.06 500.2 337.7 496.88 339.02 497.45 339.88 498.22 340.1 499.21 339.43 500.41 340.19 502.06 341.27 503.22 342.72 503.61 344.68 503.01 345.51 502.13 347.23 499.07 348.22 497.75 346.46 495.59 345.78 493.34 344.89 492.32 342.49 493.86 339.73 494.82 337.44 493.25 334.32 489.11 332.53 491.42 329.98 496.82 328.21 498.61 326.38 499.21 324.84 499.15 321.67 498.61 320.18 499.04 318.79 500.09 316.5 502.57 315.48 503.29 310.85 505.51 308.34 507.08 306.74 507.86 305.19 508.19 304.24 508.6 304.02 509.64 304.08 511.04 303.84 512.52 303.01 513.56 301.84 514.69 301.25 516.04 302.2 517.68 295.22 523.35 295.44 528.58 294.26 529.45 290.89 528.06 289.78 529.17 289.25 530.41 289.32 531.77 290.03 533.24 288.39 532.82 284.85 530.73 279.99 529.56 278.88 529 277.89 526.58 278.41 520.17 277.93 517.68 278.63 516.1 278.47 514.16 277.64 512.45 276.2 511.56 274.83 511.89 273.45 512.96 272.39 514.33 271.97 515.53 272.48 517.28 273.28 518.81 273.33 519.87 269.42 520.95 269.93 522.49 272.76 525.46 267.91 527.79 266.09 529.17 267.97 529.79 268.4 530.07 268.53 530.69 268.38 531.31 267.97 531.59 267.2 531.46 266.03 530.87 265.41 530.73 263.74 530.94 263.4 531.52 263.38 532.46 262.73 533.71 261.74 534.26 257.99 535.05 256.58 536.03 256.08 536.85 253 545.39 252.74 546.62 252.74 548.08 249.65 547.53 243.83 549.12 242.36 548.87 242.19 547.38 243.38 544.34 243.15 542.9 241.99 542.08 240.4 541.82 237.09 541.96 237.09 541.17 237.76 540.44 237.98 539.94 238.22 537.94 238.66 537.88 239.22 538.03 239.77 537.72 241.56 535.03 241.9 533.74 241.42 532.45 240.79 532.04 239.86 531.77 237.98 531.59 236.62 531.28 236.43 530.59 236.8 529.97 237.09 529.79 237.14 528.17 237.62 526.61 237.39 525.77 235.36 526.33 235.92 523.28 238.44 521.74 241.81 521.21 244.96 521.14 244.38 520.17 243.6 519.41 242.61 518.89 241.42 518.55 243.41 517.4 244.65 516.05 244.69 514.86 243.15 514.16 242.58 514.34 241.44 515.52 240.63 515.97 239.58 515.96 237.95 515.12 237.09 515.1 236.32 515.68 235.79 516.54 235.36 517.68 234.24 517.89 233.16 517.86 231.92 517.68 229.21 517.73 227.73 517.94 225.87 518.55 225.63 516.54 224.55 515.38 221.54 514.16 221.58 513.76 220.96 512.74 220.19 512.12 219.81 512.94 219.44 513.42 218.55 513.85 217.53 514.02 216.72 513.76 214.1 511.69 213.77 511.56 213.34 510.29 213.55 509.93 214.07 509.76 214.56 509.06 215.07 509.65 216.33 509.66 217.25 509.06 216.72 507.76 213.34 506.39 210.71 504.8 210.5 501.16 211.6 497.11 212.93 494.29 213.06 493.33 212.96 492.16 213.14 491.17 214.17 490.76 215.12 490.84 216.11 491.07 216.85 491.49 217.68 492.99 221.54 497.75 220.34 499.06 219.97 500.32 220.18 501.62 220.6 503.01 223.21 509.06 224.79 509.83 231.06 510.7 233.75 512.23 235.2 512.12 236.23 509.92 234.81 510.1 234.05 509.79 231.45 509.32 230.22 507.74 228.61 506.41 229.06 503.51 227.39 503.76 226.58 505.55 225.27 505.64 224.47 503.28 224.08 500.12 225.05 498.32 224.32 496.11 227.78 495.83 233.08 496.78 233.77 497.79 233.44 499.44 233.47 499.95 233.42 500.44 233.71 501.2 235.03 501.9 235.8 502.76 237.45 503.64 239.72 504.38 241.09 505.48 242.85 506.52 244.19 507.25 244.74 506.69 242.09 503.81 243.67 503.52 246.01 504.63 249.02 505.99 252.67 506.95 255.32 506.39 252.65 506.02 250.49 504.89 246.69 502.14 247.61 501.2 244.88 499.55 240.74 495.19 238.44 494.29 235.29 493.77 231.55 493.97 228.97 492.59 225.78 493.3 222.85 492.51 222.47 491.31 224.28 489.44 226.05 488.85 229.82 489.33 234.63 487.56 240.42 491.07 242.36 490.76 242.86 491.04 243.17 491.29 243.51 491.52 244.09 491.7 243.54 489.27 243.78 487.04 245.3 485.42 248.4 484.78 254.19 486.21 257.16 486.39 256.26 484.78 258.22 483.97 259.27 483.79 260.59 483.85 258.7 482.07 255.83 481.64 249.26 482.12 249.76 480.9 249.59 480.06 249.26 479.2 249.26 477.88 249.73 477.04 250.39 476.43 250.95 475.65 250.99 474.34 249.97 472.47 248.23 472.04 246.35 472.77 244.96 474.34 244.8 475.39 245.64 477.52 245.82 478.67 245.61 478.84 244.09 481.33 242.67 485.64 241.35 487.11 238.84 487.3 238.84 487.01 238.05 486.51 238.56 485.84 239.24 484.52 239.77 483.85 238.05 483.13 236.9 483.55 235.78 484.35 234.12 484.78 230.75 484.16 229.68 484.58 229.47 485.89 227.73 485.86 225 486.6 223.68 486.05 223.24 484.7 224.15 483.45 226.73 481.33 227.67 480.16 228.2 479.25 228.41 478.39 228.46 477.4 228.12 475.52 228.56 474.58 230.19 473.4 228.62 472.38 227.24 470.26 226.49 467.79 226.73 465.71 228.49 464.38 230.88 463.04 231.62 461.92 228.46 461.31 227.02 461.52 226.18 462.12 225.5 462.75 224.54 463.04 223.3 463.56 223.49 464.79 224.11 466.24 224.15 467.43 222.38 468.75 220.09 468.88 217.88 468.29 216.29 467.43 217.5 466.75 218.02 466.56 216.91 465.91 215.96 465.12 215.18 464.18 214.56 463.04 216.01 462.42 217.44 462.48 220.6 463.04 220.22 460.32 223.75 457.44 222.81 454.79 219.21 450.7 216.98 449.03 214.56 448.35 215.56 451.19 214.69 452.82 212.89 452.87 211.1 450.94 212.29 449.59 209.03 446.05 208.58 443.95 210.4 442.22 212.99 441.93 215.28 442.9 216.29 444.9 217.9 444.05 218.79 442.6 219.81 439.71 220.71 441.15 220.87 442.37 220.53 444.7 219.97 445.89 219.81 446.62 220.06 447.37 220.57 447.37 221.15 447.19 221.54 447.41 222.05 449.07 222.17 449.79 222.64 450.2 224.15 450.94 225.37 451.3 227.51 451.36 228.46 451.81 227.73 453.25 227.94 454.64 228.84 455.93 230.19 457.07 233.38 451.14 233.71 449.14 233.65 446.88 233.03 446.07 230.66 445.58 229.65 445.12 228.81 444.42 227.52 441.58 223.37 437.61 222.41 435.79 222.69 435.17 223.27 434.65 223.87 433.96 224.15 432.79 222.81 432.02 222.16 431.02 222.41 429.27 220.78 429.79 219.1 430.01 215.5 430.05 216.91 428.62 219.23 428.19 221.85 428.07 224.15 427.61 223.4 427.37 223 427.08 222.53 426.83 221.54 426.67 222.16 425.53 222.9 424.86 223.72 424.35 224.54 423.61 224.97 422.66 224.77 421.83 224.37 421.03 224.15 420.16 224.58 418.18 225.68 416.24 228.46 412.77 229.2 413.4 231.06 415.37 233.29 415.92 234.42 415.86 234.12 414.93 231.69 412.68 231.71 412.68 234.33 411.99 246.62 409.19 250.27 409.99 249.54 414.62 248.73 418.03 248.54 421.46 251.69 422.32 255.46 421.55 259.47 420.36 263.71 419.84 265.41 418.82 267.24 417.91 269.41 417.39 271.48 416.58 273.15 415.39 274.21 413.6 273.96 412.31 273.87 410.96 275.47 410 276.63 408.56 276.51 406.85 276.53 405.14 279.7 402.81 283.99 403.15 286.1 401.11 288.4 401.25 290.61 402.01 294.48 404.6 300.42 411.16 304.33 411.12 304.63 409.32 305.44 407.64 306.68 406.67 307.6 405.37 311.32 405.2 313.87 408.37 312.75 412.02 313.52 414.37 316.1 416.74 315.93 420.93 318.97 423.58 323.68 424.15 327.32 422.37 331.13 421.86 333.76 421.89 335.99 421.42 337.91 422.64 340.07 423.67 344.72 423.73 349.31 423.23 353.51 423.2 357.47 422.75 361.16 419.51 365.75 417.42 373.84 419.81 381.06 424.57 Z M 294.59 427.36 291.12 428.21 287.8 428.82 283.26 427.84 280.53 429.95 283.99 436.18 290.88 439.56 298.69 440.58 303.67 435.14 301.11 429.36 294.59 427.36 Z" fill-rule="evenodd" id="KOR-2506" data-name="South Jeolla"/>
<path d="M 581.2 438.86 580.58 439.89 578.62 439.86 577.18 439.81 575.4 440.05 574.09 439.99 572.71 440.49 571.2 440.64 571.08 442.42 572.09 443.65 572.26 445.13 571.61 446.81 568.78 447.89 566.49 446.26 565.1 445.32 564.07 444.28 560.75 447.19 559.24 449.51 558.75 451.98 557.73 452.57 557.12 451.33 555.61 449.99 555.74 451.18 556.04 453.76 555.07 453.75 554.65 452.9 554.1 452.7 552.81 453.41 551.58 454.05 550.73 453.19 549.71 450.34 550.13 447.78 551.1 444.52 551.28 442.69 552.33 441.12 554.25 439.16 556.05 436.92 557.38 429.44 559.18 427.61 561.59 426.19 564.57 425.21 567.77 425.31 570.26 426.61 570.96 429.38 573.22 431.95 576.11 433.87 578.4 436.28 580.95 438.41 581.2 438.86 Z" id="KOR-2507" data-name="Busan"/>
<path d="M 592.17 382.05 603.94 380.32 613.96 382.31 614.07 382.29 614.26 382.48 615.11 383.7 614.63 386.45 614.36 389.72 613.51 394.63 612.22 396.71 610.14 399 608.22 399.84 607.39 397.61 606.65 394.71 605.01 392.53 603.25 392.16 602.2 394.63 603.93 394.95 604.96 396.02 605.45 397.58 605.57 399.38 605.01 401.08 603.71 401.47 602.26 401.58 601.25 402.4 601.44 403.31 601.6 405.66 602.12 408.09 600.94 409.65 599.86 411.2 600.92 412.42 601.77 413.11 601.59 414.83 598.99 415.53 596.54 416.73 593.02 419.58 590.05 419.49 590 419.62 589.49 419.26 585.9 418.22 583.14 415.99 582.29 412.48 579.38 410.63 572.87 407.71 567.41 402.61 564.12 400.58 556.33 399.6 554.43 396.48 557.6 391.28 557.06 386.25 560.11 384.24 563.36 382.69 565.31 382.65 566.11 381.41 564.89 379.78 564.2 378.01 568.46 375.31 573.81 373.79 578.19 373.25 582.48 373.99 586.94 375.55 588.11 377.11 588.17 379 588.48 380.68 590.05 381.6 592.17 382.05 Z" id="KOR-2508" data-name="Ulsan"/>
<path d="M 609.46 255.02 609.49 255.23 610.14 260.21 611.87 265.4 612.56 270.63 611.78 281.43 611 283.75 607.09 287.57 605.57 289.71 604.9 292.21 604.36 307.5 604.79 309.58 605.57 310.73 606.41 311.2 607.09 311.83 607.82 316.14 608.76 319.43 609.78 320.01 610.46 320.72 609.98 322.7 608.97 323.81 607.65 324.32 606.4 324.65 604.29 326.06 604.18 327.79 606.84 329.8 608.76 331.54 610.78 333.54 613.35 333.89 616.6 331.83 624.64 324.71 626.18 322.61 628.27 323.95 628.73 326.13 629.63 328.39 630.29 330.9 628.31 333.41 623.75 340.76 623.41 344.05 622.05 352.71 618.77 360.24 618.95 364.94 615.6 373.12 613.12 377.1 612.04 379.09 613.1 381.35 614.07 382.29 613.96 382.31 603.94 380.32 592.17 382.05 590.05 381.6 588.48 380.68 588.17 379 588.11 377.11 586.94 375.55 582.48 373.99 578.19 373.25 573.81 373.79 568.46 375.31 564.2 378.01 564.89 379.78 566.11 381.41 565.31 382.65 563.36 382.69 560.11 384.24 557.06 386.25 553.52 387.21 549.79 385.78 544.93 384.8 540.35 386.33 538.9 387.86 537.16 389.08 535.33 389.28 533.51 389.83 529.39 392.49 524.67 392.38 520.72 390.68 516.59 389.65 511.86 390.34 507.27 390.76 503.3 388.72 500.11 385.55 499.07 378.55 496.15 380.39 493.02 384.02 489.56 383.44 482.79 386.28 479.19 385.69 475.95 383.71 472.52 382.37 468.87 381.87 465.05 382.31 457.25 382.04 455.26 376.19 456.78 373.34 456.85 370.36 455.17 368.74 453.22 367.76 452.79 366.67 452.08 365.49 449.28 363.88 447.6 361.28 445.19 359.15 441.92 358.26 438.34 358.29 434.7 358.06 432.65 356.93 430.99 355.8 427.16 355.56 426.12 355.28 425.1 354.9 424.59 353.88 424.49 352.88 423.33 352.07 422.15 351.35 419.59 350.15 418.57 347.33 419.15 339.27 413.98 332.11 417.05 330.89 420.23 330.03 422.19 326.93 423.25 323.68 424.23 322.27 425.44 321.08 425.72 319 425.69 317.26 424.99 313.86 428.05 311.75 431.08 312.2 433.77 312.33 432.34 305.73 429.47 304.03 423.01 305.28 420.55 304.34 416.97 301.92 413.91 301.11 408.82 302.08 408.07 296.07 410.86 294.12 412.68 291.2 411.28 289.2 410.48 287.02 411.24 283.98 411.75 277.09 413.01 274.2 415.31 272.39 409.11 265.15 404.16 264.47 402.73 261.58 404.6 260.88 406.46 260.61 408.29 259.03 411.14 255.95 411.84 254.66 411.77 253.48 412.09 251.98 416.03 249.83 420.45 248.15 423.2 244.86 428.02 246.54 436.99 247.68 435.15 244.84 432.73 242.33 433.58 239.74 435.16 236.97 436.69 234.89 438.72 235.97 441.24 235.8 443.32 233.55 445.48 232.43 447.52 233.49 451.43 234.59 455.08 234.82 455.97 232.74 456.59 230.76 457.91 229.09 459.56 227.79 461.21 229.27 463.31 230.47 466.3 232.54 468.18 235.6 472.69 236.79 483.28 233.22 485.15 228.25 483.48 227.02 482.59 225.78 484.2 223.42 485.52 221.04 488.3 217.85 492.21 215.63 493.33 214.02 494.89 212.97 497.51 212.32 499.62 210.68 502.83 208.53 505.75 206.06 506.98 205.43 508.48 205.9 510.19 205.1 511.74 203.7 514.98 205.08 518.11 206.13 521.89 206.78 525.12 207.02 525.86 204.32 526.27 201.41 525.43 198.3 527.73 196.06 531.17 194.77 534.62 194.98 536.4 197.48 538.85 197.93 541.04 198.8 540.73 201 541.02 203.21 544.81 202.02 548.4 199.79 549.95 200.3 551.02 201.45 552.41 201.58 554.08 201.04 559.04 201.7 563.7 203.42 567.01 202.75 570.45 201.3 574.78 202.1 578.73 204.01 579.96 206.92 576.96 208.71 573.28 207.55 570.91 208.26 568.75 209.56 567.84 212.7 568.4 216.8 571 219.95 575.17 221.54 576.1 224.23 577.29 226.56 580.19 227.55 582.91 228.79 592.19 229.35 591.68 232.22 592.76 233.05 593.75 233.99 592.39 237.18 590.71 240.54 591.05 244.08 592.16 247.21 592.55 250.03 591.15 253.04 599.91 255.64 603.97 254.2 608.19 254.98 609.46 255.02 Z M 494.16 356.93 495.67 359.29 497.9 360.76 499.46 361.58 500.62 362.36 501.59 361.69 503.39 359.13 505.2 357.97 509.29 358.3 516.6 359.85 519.43 358.46 519.81 357.28 519.82 356.46 521.01 353.93 521.18 352.86 521.11 352.03 522.3 351.94 523.26 352.17 525.23 350.52 525.91 348.52 525.85 346.38 525.59 344.37 524.23 343.43 523.21 342.19 523.17 338.99 523.78 338.15 523.85 337.15 522.24 334.88 517.16 331.86 510.48 332.22 502.43 333.09 496.48 337.09 497.27 342.86 495.1 344.8 493.74 347.28 494.95 347.44 496.06 347.78 495.82 349.04 495.29 350.24 493.25 350.51 491.35 350.52 489.6 352.5 490.36 354.84 492.32 355.46 494.16 356.93 Z M 795.97 147.92 793.56 148.89 790.34 148.39 787.21 146.89 785.13 144.9 784.47 142.32 785.54 140.4 787.82 139.19 792.32 138.58 795.32 137.7 796.84 137.46 799 138.75 798.85 141.97 797.45 145.54 795.97 147.92 Z" fill-rule="evenodd" id="KOR-2509" data-name="North Gyeongsang"/>
<path d="M 296.11 652.14 297.07 653.78 296.48 654.34 295.26 654.64 294.38 655.52 294.44 656.25 295.25 657.42 295.25 658.11 294.81 658.78 293.73 659.97 293.52 660.34 291.23 662.55 286.94 665.42 285.6 667.81 283.7 670.6 283.61 671.72 282.77 673.37 279.65 673.67 278.44 674.2 275.12 673.96 270.27 677.17 257.48 679.13 253.2 682.18 247.97 683.15 242.36 682.68 235.95 683.68 230.62 682.34 218.6 682.48 214.85 683.95 212.62 687.27 210.58 687.62 208.54 686.8 205.66 682.9 201.82 681.8 198.1 678.54 196.8 674.56 199.06 669.42 201.19 666.22 202.51 665.1 206.9 662.92 210.66 657.47 214.11 656.73 215.71 653.85 221.63 652.15 234.54 649.06 237.77 646.73 250.1 645.65 258.5 642.6 260.51 643.07 270.74 641.69 276.67 641.28 280.59 641.84 282.09 643.72 283.95 644.93 290.06 646.95 291.91 648.52 293.16 652.31 294.38 653.8 294.97 653.22 295.77 652.67 296.11 652.14 Z" id="KOR-2510" data-name="Jeju"/>
<path d="M 334.13 251.3 331.66 255.62 331.89 257.75 330.31 261.38 329.72 265.27 339.03 263.77 348.66 264.26 348.57 265.63 347.93 266.82 347.68 267.78 348.1 268.59 348.19 269.23 348.33 269.87 348.08 271.19 347.55 272.43 344.66 272.23 336.44 274.04 330.65 275.32 322.02 277.22 310.5 275.4 311.65 272.74 313.57 271.26 313.18 252.1 316.13 245.54 334.13 251.3 Z" id="KOR-5129" data-name="Sejong"/>
</g>
</svg>