<?xml version="1.0"?>
<svg xmlns="http://www.w3.org/2000/svg" version="1.2" baseProfile="tiny" width="800" height="1144" viewBox="0 0 800 1144" stroke-linecap="round" stroke-linejoin="round">
<g id="ne_10m_admin_1_states_provinces">
<path d="M 763.14 148.48 760.24 152.83 755.26 156.15 750.89 154.65 749.86 150.25 748.39 147.1 746.6 145.69 745.34 145.78 744.76 145.42 745.09 142.55 745.79 140.06 753.61 139.98 757.96 142.05 759.62 146.41 763.14 148.48 Z" id="PLW-5244" data-name="Aimeliik"/>
<path d="M 769.47 150.89 770.98 159.22 769.9 162.25 768.89 162.93 767.79 162.55 765.19 162.33 763.11 161.06 761.72 160.87 760.69 161.67 758.36 164.78 757.17 165.41 754.77 164.99 753.83 164.23 753.5 162.9 751.53 157.4 750.89 154.65 755.26 156.15 760.24 152.83 763.14 148.48 769.47 150.89 Z" id="PLW-5245" data-name="Airai"/>
<path d="M 673.04 269.98 669.84 266.72 667.94 262.29 668.59 258.92 673.07 258.76 676.03 261.01 677.04 264.49 676.07 267.92 673.04 269.98 Z" id="PLW-5246" data-name="Angaur"/>
<path d="M 152.31 1140.71 148.35 1143.24 144.73 1142.4 143.97 1139.91 146.1 1137.69 147.54 1136.88 150.85 1137.64 152.31 1140.71 Z M 7.52 1126.88 2.63 1127.73 1 1125.39 3.44 1121.44 7.61 1118.89 12.65 1118.56 14.53 1121.1 11.94 1124.55 7.52 1126.88 Z" fill-rule="evenodd" id="PLW-5247" data-name="Hatobohei"/>
<path d="M 795.08 1 797.87 1.03 799 4.05 796.95 9.42 793.21 11.29 791.27 8.95 791.34 5.68 795.08 1 Z" id="PLW-5248" data-name="Kayangel"/>
<path d="M 730.03 189.32 724.79 194.52 721.47 195.71 718.58 195.19 716.43 193.74 715.08 191.58 714.64 188.88 714.8 184.91 715.45 184.16 722.5 191.54 723.92 191.32 726.74 189.64 734.54 182.67 736.1 180.56 736.26 177.94 735.55 175.49 735.48 174.06 737.34 174.49 738.53 175.2 739.45 176.06 740.16 177.29 740.54 179.04 737.29 179.98 737.67 181.84 739.45 184.01 740.54 185.85 739.31 187.37 736.6 188.02 732.12 188.13 730.03 189.32 Z M 751.19 167.27 754.62 170.77 753.49 175.25 751.19 175.86 749.28 173.48 747.8 170.27 746.6 168.3 743.63 167.37 741.46 168.05 737.34 171.48 736.96 168.18 737.36 165.47 738.98 163.86 742.2 163.9 746.03 164.93 751.19 167.27 Z" fill-rule="evenodd" id="PLW-5249" data-name="Koror"/>
<path d="M 776.46 126.62 776.26 128.08 778.73 131.29 778.73 132.69 777.7 133.68 777 135.83 774.95 135.21 772.88 136.04 771.84 133.76 769.56 130.66 772.47 124.02 776.46 126.62 Z" id="PLW-5250" data-name="Melekeok"/>
<path d="M 783.66 113.18 775.99 111.17 775.84 105.45 778.51 104.69 779.83 101 778.54 92.54 784.09 92.11 784.8 102.64 783.66 113.18 Z" id="PLW-5251" data-name="Ngaraard"/>
<path d="M 784.09 92.11 778.54 92.54 778.06 89.41 776 85.02 775.5 82.42 776.36 81.45 778.35 81.87 780.36 83.14 781.44 84.7 784.09 92.11 Z" id="PLW-5252" data-name="Ngarchelong"/>
<path d="M 775.99 111.17 775.16 117.18 773.29 116.98 770.39 113.45 767.49 116.56 759.01 115.55 758.85 115.28 761.2 110.95 763.89 108.16 767.66 106.64 773.22 106.2 775.84 105.45 775.99 111.17 Z" id="PLW-5253" data-name="Ngardmau"/>
<path d="M 766.46 139.15 763.14 148.48 759.62 146.41 757.96 142.05 753.61 139.98 745.79 140.06 747.07 137.8 748.84 135.97 751.12 134.84 751.99 137.71 753.97 138.09 756.07 136.5 757.17 133.46 756.57 131.62 754.84 129.82 758.37 128.17 766.46 139.15 Z" id="PLW-5254" data-name="Ngatpang"/>
<path d="M 777 135.83 775.82 139.42 770.66 146.13 769.47 150.89 763.14 148.48 766.46 139.15 769.56 130.66 771.84 133.76 772.88 136.04 774.95 135.21 777 135.83 Z" id="PLW-5255" data-name="Ngchesar"/>
<path d="M 775.16 117.18 772.47 124.02 769.56 130.66 766.46 139.15 758.37 128.17 754.84 129.82 751.12 127.25 752.83 125.65 755.81 121.47 758.49 119.67 758.85 119.81 759.03 118.58 759.01 115.55 767.49 116.56 770.39 113.45 773.29 116.98 775.16 117.18 Z" id="PLW-5256" data-name="Ngeremlengui"/>
<path d="M 783.66 113.18 780.81 120.64 776.46 126.62 772.47 124.02 775.16 117.18 775.99 111.17 783.66 113.18 Z" id="PLW-5257" data-name="Ngiwal"/>
<path d="M 697.85 227.8 699.58 228.2 700.45 229.08 700.72 230.44 700.85 232.22 699.94 233.33 697.85 236.88 699.73 239.79 698.86 240.59 696.73 240.69 694.81 241.43 691.6 245.93 689.61 247.82 688.75 246.73 689.9 242.45 697.85 227.8 Z" id="PLW-5258" data-name="Peleliu"/>
<path d="M 242.71 623.29 241.26 619.99 242.67 619.29 244.12 620.6 242.71 623.29 Z" id="PLW-5259" data-name="Sonsorol"/>
</g>
</svg>