<?xml version="1.0"?>
<svg xmlns="http://www.w3.org/2000/svg" version="1.2" baseProfile="tiny" width="800" height="335" viewBox="0 0 800 335" stroke-linecap="round" stroke-linejoin="round">
<g id="ne_10m_admin_1_states_provinces">
<path d="M 131.32 138.73 136.6 143.17 143.14 146.28 135.31 148.68 134.33 149.37 134.34 151.13 133.48 152.47 132 153.48 130.62 156.39 131.54 159.72 131.08 165.39 133.5 177.71 119.1 180.09 115.83 183.2 114.52 182.97 113.2 183.12 112.38 182.5 112.02 181.55 109.22 181.52 107.61 183.2 108.11 184.64 107.14 185.91 102.25 187.9 96.83 188.73 93.96 188.44 88.54 189.25 87.2 191.43 84.99 191.51 82.41 190.89 78.25 192.89 66.5 193.41 62.08 194.87 60.11 197.03 58.71 199.81 56.62 201.97 51.25 205.38 48.85 208.47 43.91 210.72 38.34 210.74 39.36 214.83 33.68 220.83 33.02 221.3 33.02 221.31 32.92 221.28 32 221.01 31.97 219.03 30.34 219.22 29.24 218.33 28.23 216.98 26.9 215.79 25.28 212.41 25.01 211.97 25.17 211.54 25.49 210.66 26.53 209.42 26.98 208.89 27.8 207.57 28.47 206.13 28.73 205.08 28.21 204.49 26.48 204.42 25.45 204.04 24.92 203.59 23.14 202.08 21.94 201.6 11.05 202.25 5.86 202.56 5.26 202.46 1 201.74 2.88 201.14 4.39 200.14 8.66 196.15 10.02 195.18 13.01 193.68 15.47 192.97 16.28 192.53 17.07 191.68 17.13 190.96 17.04 190.31 17.34 189.59 18.53 188.89 19.7 188.72 20.65 188.18 21.16 186.39 22.28 185.09 23.88 184.94 28.27 185.55 33.06 185.15 35.55 185.36 37.58 186.41 38.22 186.73 38.82 186.84 39.4 186.75 39.91 186.42 39.91 186.41 41.86 186.16 44.93 186.14 47.15 185.77 46.63 184.5 44.94 183.43 43.26 183.05 39.89 182.77 41.37 181.86 46.63 180.4 47.95 179.82 48.43 179.17 48.02 178.56 46.63 178.08 44.26 177.54 43.38 175.99 44.15 174.27 46.63 173.22 49.32 170.8 49.88 169.42 48.44 167.99 46.51 167.86 42.53 169.17 40.95 168.45 40.99 167.8 41.95 165.8 41.91 164.76 41.12 164 40.14 163.94 39.2 164 38.5 163.58 38.08 161.64 39.89 159.06 39.5 157.01 39.5 157.01 39.5 157 43.16 155.65 44.83 154.61 45.61 153.04 45.13 151.1 41.56 146.01 41.24 145.77 40.72 145.64 40.19 145.44 39.86 144.99 39.93 144.3 40.44 143.98 41.02 143.77 41.28 143.43 40.99 138.92 42.18 137.43 43.65 137.15 45.22 137.89 46.63 139.45 59.27 135.53 63.69 133.19 63.98 133.4 65.41 134.62 67.03 135.48 73.11 136.41 76.32 138.6 79.72 138.15 88.58 134.38 91.46 136.02 101.01 137.13 113.62 132.17 116.56 132.75 115.35 135.15 114.36 138.22 125.52 134.17 128.61 135.71 131.32 138.73 Z M 56.88 153.24 55.49 152.48 52.47 152.48 51.97 153.86 53.26 156.79 54.64 160.94 57.16 166.22 60.68 168.23 63.95 166.09 66.72 166.35 69.99 166.85 70.24 163.2 71.12 160.56 71.87 157.42 69.36 151.76 67.47 151.88 64.45 151.38 56.88 153.24 Z" fill-rule="evenodd" id="HUN-3138" data-name="Vas"/>
<path d="M 317.65 291.51 319.81 291.36 321.91 291.6 322.69 292.87 322.66 294.51 324.58 297.37 324.67 300.19 325.49 301.92 324.6 304.42 323.01 306.68 322.16 310.27 319.49 312.65 321.94 314.33 321.96 314.34 321.42 314.36 319.9 313.4 318.72 314.64 318.19 315.72 317.67 316.54 316.44 317.02 315.01 316.89 310.36 315.18 304.54 313.78 302.34 314.11 299.68 315.95 299.24 316.55 298.89 317.96 298.57 318.69 298.4 318.72 296.66 320.1 294.08 323.6 292.67 324.8 287.59 327.84 284.53 328.64 281.89 327.77 279.97 328.68 275.88 332.22 273.65 333.45 272.78 333.61 271.98 333.67 271.18 333.61 270.4 333.46 270.36 333.45 268.41 331.68 266.52 331.66 264.61 332.41 262.58 332.97 260.56 332.43 258.53 330.89 255.86 330.87 252.25 328.97 250.06 328.49 240.38 328.49 239.35 328.72 237.32 329.75 236.04 330.09 234.68 330.09 222.31 327.69 214.18 327.69 212.25 327.69 211.15 328.12 210.59 329.04 209.93 329.88 208.52 330.09 208.5 329.6 206.18 326.81 202.76 325.07 188.43 321.99 185.77 321.87 184.81 321.42 184.59 320.63 187.79 320.81 190.52 319.81 190.91 316.38 188.99 313.98 185.62 311.86 183.13 309.05 181.74 305.47 183.57 303.12 180.16 295.91 187.14 293.42 189.16 289.73 188.86 282.49 192.26 279.77 197.72 278.4 203.46 278.28 207.09 276.32 217.94 266.43 231.37 265.28 233.66 263.49 234.47 260.93 236.7 259.57 239.73 260.22 242.75 260.35 245.04 258.25 247.03 255.7 260.9 254.82 264.48 255.26 264.99 256.77 264.65 258.67 269.15 262.26 271.4 266.44 273.2 276.51 277.8 274.22 279.83 272.61 282.7 272.25 288.59 276.18 290.9 276.19 293.26 275.15 295.19 276.65 298.21 281.14 301.78 284.94 305.56 287.96 311.41 290.21 317.65 291.51 Z M 257.88 285.31 253.31 284.61 248.38 284.26 243.62 286.6 241.15 288.71 239.93 293.41 242.04 295.87 240.28 298.69 244.15 300.45 248.73 303.62 252.95 305.03 256.12 303.62 258.23 301.15 259.64 298.34 261.76 295.87 263.87 295.87 267.74 296.58 268.8 295.17 267.04 290.59 262.81 283.2 257.88 285.31 Z" fill-rule="evenodd" id="HUN-3155" data-name="Baranya"/>
<path d="M 138.43 67.11 139.65 67.33 147.32 68.11 151.03 70.17 163.1 81.04 164.26 81.76 165.48 82.1 168.43 82.52 169.52 83.01 173.5 87.02 174.93 88.02 176.15 87.99 177.33 87.6 178.65 87.46 180.41 88.05 182.85 89.23 185.03 90.63 185.95 91.84 187.18 92.76 192.19 94.59 194.86 95.56 204.71 97.37 211.51 97.08 211.82 98.64 212.84 101.14 212.98 103.71 212.48 105.79 213.38 107.87 213.17 111.45 216.64 113.51 214.1 118.25 216.87 120.9 215.54 122.95 212.93 122.32 211.88 123.03 213.2 126.33 211.38 129.72 211.38 132.1 207.74 129.43 203.62 127.58 203.51 129.8 201.38 129.15 199.17 128.95 197.12 130.22 192.97 128.86 187.54 130.1 182.56 132.73 177.85 131.3 174.47 132.73 168.41 132.13 166.03 134.59 163.37 135.15 160.76 135.19 159.07 136.21 156.95 136.17 155.01 135.68 151.03 133.73 146.64 134 142.28 134.94 140.15 134.64 139.13 135.87 135.91 137.6 131.32 138.73 128.61 135.71 125.52 134.17 114.36 138.22 115.35 135.15 116.56 132.75 113.62 132.17 101.01 137.13 91.46 136.02 88.58 134.38 79.72 138.15 76.32 138.6 73.11 136.41 67.03 135.48 65.41 134.62 63.98 133.4 63.69 133.19 65.33 132.32 64.85 127.58 66.19 126.6 69.62 125.62 70.87 124.12 71.01 122.31 70.09 120.83 68.47 119.71 66.47 118.95 67.13 116.67 66.13 114.3 64.08 112.43 61.51 111.63 57.63 112.08 55.55 111.51 59.44 109.47 63.86 109.39 70.42 110.5 71.31 109.47 70.86 106.67 74.26 103.6 74.54 103.99 75.86 104.91 77.12 105.44 83.75 106.14 84.78 105.97 86.08 105.11 88.39 102.62 89.95 101.73 91.66 104.82 96.13 105.37 105.45 103.79 114.02 103.02 116.44 102.26 115.1 101.69 114.11 100.79 113.52 99.61 113.3 95.77 112.51 93.38 112.36 91.36 114.12 90.04 113.35 89.29 112.22 87.09 111.3 86.63 108.83 85.86 108.09 85.33 108.05 84.05 109.52 83.53 113.6 82.92 115.53 81.89 116.7 80.7 117.38 79.16 117.86 77.06 117.62 76.83 117 76.7 116.42 76.46 116.3 75.95 116.61 75.61 117.71 75.11 117.94 74.92 118.27 73.91 118.84 73.17 118.89 72.44 117.65 71.47 125.03 67.32 129.32 65.58 133.56 66.19 138.43 67.11 Z M 170.81 114.99 172.55 114.66 176.7 116.56 181.34 114.24 188.89 114.24 193.87 112.5 201.25 109.43 202.17 107.27 200.84 103.37 198.35 99.39 193.04 99.72 187.48 98.89 176.03 101.55 173.79 107.36 166.96 110.91 170.81 114.99 Z" fill-rule="evenodd" id="HUN-3156" data-name="Gyor-Moson-Sopron"/>
<path d="M 246.05 191.12 248.63 195.69 251 198.7 250.7 199.49 250.17 200.21 250.07 206.92 250.86 210.22 245.45 211.85 244.09 212 243.03 212.66 241.71 214.61 240.05 216.24 239.26 217.87 239.01 219.87 236.7 223.43 235.73 227.82 235.43 232.41 231.92 237.11 229.67 242.58 230.79 247.4 233.33 248.4 236.7 259.57 234.47 260.93 233.66 263.49 231.37 265.28 217.94 266.43 207.09 276.32 203.46 278.28 197.72 278.4 192.26 279.77 188.86 282.49 189.16 289.73 187.14 293.42 180.16 295.91 183.57 303.12 181.74 305.47 183.13 309.05 185.62 311.86 188.99 313.98 190.91 316.38 190.52 319.81 187.79 320.81 184.59 320.63 184.42 320.02 184.28 318.67 183.68 316.92 183.54 315.96 182.68 314.84 177.11 310.74 172.78 309.38 167.8 308.66 157.77 308.33 156.77 308.77 156.44 309.15 155.99 309.52 155.36 309.87 154.59 307.95 153.35 307.58 150.55 308.33 148.2 308.45 147.82 308.1 148 307.06 147.32 305.04 146.06 306.53 144.82 306.32 143.64 305.6 143.43 305.47 141.71 305.04 141.71 304.24 142.51 304.1 143.97 303.63 144.84 303.51 143.79 302.49 141.86 302.3 140.03 301.82 139.21 299.86 138.93 298.67 137.46 294.9 136.82 293.8 132.11 289.52 130.79 288.98 121.24 288.75 119.48 288.16 113.8 285.18 112.43 284.16 111.85 282.89 110.87 282.01 104.61 278.47 103.49 277.42 100.6 273.65 96.2 270.07 95.35 269.56 94.54 268.87 93.38 266.53 97.88 265.34 100.82 267.74 109.06 265.59 111.06 265.48 113.13 265.01 115.31 263.1 115.93 260.46 113.91 257.4 112.87 253.92 115.64 253.45 128.9 251.21 130.36 247.38 132.37 244.76 134.23 240.55 133.5 225.06 138 219.7 142.78 216.97 150.63 217.31 155.41 215.6 161.49 215.06 185.44 208.09 206.63 199.42 211.91 198.4 216.54 195.02 219.31 193.8 222.42 193.25 233.76 188.9 240.13 189.27 246.05 191.12 Z M 194.96 274.11 199.54 271.65 203.41 273.41 204.82 270.59 207.29 266.72 211.16 264.61 210.1 258.27 206.58 251.58 206.58 250.88 198.91 251.58 195.74 249.82 194.33 251.94 194.26 255.1 193.56 258.27 190.74 260.74 193.91 267.07 194.96 274.11 Z" fill-rule="evenodd" id="HUN-3157" data-name="Somogy"/>
<path d="M 211.38 132.1 211.74 135.43 210.98 138.69 215.46 139.9 219.25 140.31 219.93 142.79 221.26 144.93 223.94 145.32 237.35 143.35 241.27 148.54 237.07 149.34 236.37 152.54 237.74 155.69 242.76 159.03 247.03 165.63 250.3 166.96 251.97 169.85 251 177.61 252.22 180.6 250.53 186.36 246.05 191.12 240.13 189.27 233.76 188.9 222.42 193.25 219.31 193.8 216.54 195.02 211.91 198.4 206.63 199.42 185.44 208.09 161.49 215.06 155.41 215.6 150.63 217.31 142.78 216.97 138 219.7 133.5 225.06 127.18 226.86 123.55 223.12 125.06 214.95 123.54 188.41 124 186.93 124.98 185.76 125.58 184.46 124.84 183.32 121.77 182.41 120.34 181.35 119.1 180.09 133.5 177.71 131.08 165.39 131.54 159.72 130.62 156.39 132 153.48 133.48 152.47 134.34 151.13 134.33 149.37 135.31 148.68 143.14 146.28 136.6 143.17 131.32 138.73 135.91 137.6 139.13 135.87 140.15 134.64 142.28 134.94 146.64 134 151.03 133.73 155.01 135.68 156.95 136.17 159.07 136.21 160.76 135.19 163.37 135.15 166.03 134.59 168.41 132.13 174.47 132.73 177.85 131.3 182.56 132.73 187.54 130.1 192.97 128.86 197.12 130.22 199.17 128.95 201.38 129.15 203.51 129.8 203.62 127.58 207.74 129.43 211.38 132.1 Z M 216.41 184.4 218.94 182.71 221.19 177.64 225.98 178.77 225.7 171.44 224.29 166.37 220.63 161.3 217.25 158.77 213.31 159.61 211.9 163.28 205.14 163.56 204.86 165.53 207.11 167.5 206.83 170.6 204.58 174.26 207.68 178.77 211.06 183.55 216.41 184.4 Z" fill-rule="evenodd" id="HUN-3158" data-name="Veszprém"/>
<path d="M 133.5 225.06 134.23 240.55 132.37 244.76 130.36 247.38 128.9 251.21 115.64 253.45 112.3 248.73 111.31 244.41 108.17 242.24 106.98 237.17 102.07 237.37 101.28 242.09 97.94 242.48 97.95 245.98 98.15 250.5 98.54 256 103.26 258.36 109.35 258.95 113.91 257.4 115.93 260.46 115.31 263.1 113.13 265.01 111.06 265.48 109.06 265.59 100.82 267.74 97.88 265.34 93.38 266.53 92.49 264.75 92.88 262.9 91.75 260.99 91.04 260.33 89.99 259.35 88.48 258.32 87.86 258.31 87.6 258.85 87.29 259.24 86.51 258.76 86 258.3 85.5 257.94 84.98 257.67 84.45 257.51 81.28 257.02 80.44 256.64 79.57 258.32 78.76 258.32 77.33 256.23 73.74 254.69 71.53 252.7 69.63 250.45 67.49 248.63 64.95 247.42 61.83 247 60.77 246.53 59.85 246.42 59.12 246.82 58.61 247.87 57.89 247.87 56.32 246.78 51.24 244.59 50.56 244.22 48.85 239.15 44.89 236.81 40.55 232.14 36.36 230.42 34.22 229.23 33.73 228.38 33.28 227.6 34.36 226.44 36.6 225.7 37.3 225.23 38.23 224.61 37.58 222.39 35.82 221.58 33.63 221.49 33.02 221.31 33.02 221.3 33.68 220.83 39.36 214.83 38.34 210.74 43.91 210.72 48.85 208.47 51.25 205.38 56.62 201.97 58.71 199.81 60.11 197.03 62.08 194.87 66.5 193.41 78.25 192.89 82.41 190.89 84.99 191.51 87.2 191.43 88.54 189.25 93.96 188.44 96.83 188.73 102.25 187.9 107.14 185.91 108.11 184.64 107.61 183.2 109.22 181.52 112.02 181.55 112.38 182.5 113.2 183.12 114.52 182.97 115.83 183.2 119.1 180.09 120.34 181.35 121.77 182.41 124.84 183.32 125.58 184.46 124.98 185.76 124 186.93 123.54 188.41 125.06 214.95 123.55 223.12 127.18 226.86 133.5 225.06 Z M 89.44 196.34 80.61 197.37 81.09 204.7 85.27 206.66 85.27 211.33 92.88 210.34 97.3 209.12 95.34 200.03 89.44 196.34 Z" fill-rule="evenodd" id="HUN-3159" data-name="Zala"/>
<path d="M 336.84 142.16 337.61 138.02 339.87 134.53 339.77 133.03 335.63 125.01 334.57 118.11 341.71 117.38 344.93 116.34 347.67 114.47 353.27 114.22 358.41 116.4 361.04 118.69 365.43 120.72 365.82 122.14 368.42 121.83 377.36 126.51 379.65 127.13 381.28 128.42 378.63 132.95 373.08 135.86 370.81 137.82 359.63 143.23 356.15 142.93 350.23 140.45 336.84 142.16 Z" id="HUN-3160" data-name="Budapest"/>
<path d="M 418.93 184.18 416.6 185.94 410.6 183.86 408.98 185.94 408.29 188.71 410.37 192.41 412.68 196.8 416.6 201.65 419.37 208.35 423.99 210.89 427.69 206.04 427.69 200.72 431.15 197.03 435.31 197.03 439.01 195.18 439.2 192.01 441.51 191.89 443.54 190.01 446.88 187.88 450.6 187.28 454.07 189.09 457.79 189.97 462.67 185.88 466.01 184.26 469.47 183.2 473.36 184.81 477.71 188.04 473.65 190.11 472.92 191.04 473.66 192 475.36 192.39 477.27 192.61 478.61 193.02 478.61 193.75 476.51 195.93 475.42 195.8 473.28 194.51 470.65 194.33 470.68 196.23 472.99 197.23 471.3 199.44 467.74 199.29 463.73 200.33 461.17 202.9 461.88 203.16 460.25 206.2 460.71 207.79 462.35 208.73 464.61 208.32 467.7 209.05 461.85 212.62 456.78 217.53 459.2 218.8 460.18 220.92 458.01 233.77 453.89 236.88 443.68 235.77 439.25 237.93 439.42 242.76 444.99 245.46 446.33 250.93 444.35 256.27 442.8 258.62 440.29 258.52 436.64 259.35 433.36 261.02 429.93 261.26 426.72 260.54 423.99 260.75 421.64 261.99 421.93 264.76 421.82 267.41 420.03 269.91 419.68 273.25 421.9 277.31 424.82 281.09 426.59 284.57 424.03 283.43 421.59 282.87 419.06 282.78 412.23 283.71 409.72 283.66 407.54 283.93 404.64 284.84 401.9 286.11 400.2 287.45 400.41 288.41 401.28 289.49 401.59 290.46 398.49 291.63 397.66 292.42 397.06 293.3 396.22 294.11 394.24 295.24 393.23 295.53 391.93 295.67 390.46 296.15 389.5 297.17 388.63 298.35 387.42 299.28 385.45 299.75 381.1 299.77 378.96 300.1 377.94 300.64 376.6 301.34 375.73 302.79 375.18 304.22 373.84 305.42 370.57 305.86 360.26 305.11 357.65 304.05 357.65 304.03 355.91 301.71 353.26 301.02 350.55 301.82 348.7 304.05 348.57 307.54 346.49 307.94 343.51 307.64 340.71 309.03 340.35 309.45 340.22 309.88 340.36 310.32 341.26 311.32 341.53 311.82 341.38 312.2 340.71 312.43 338.46 311.71 331.24 311.33 329.5 311.42 328.33 312.36 327.02 312.87 324.66 313.36 322.66 314.33 321.96 314.34 321.94 314.33 319.49 312.65 322.16 310.27 323.01 306.68 324.6 304.42 325.49 301.92 324.67 300.19 324.58 297.37 322.66 294.51 322.69 292.87 321.91 291.6 319.81 291.36 317.65 291.51 320.37 290.52 322.75 288.78 320.16 287.78 318.74 285.45 319.63 284.25 321.42 284.93 323.26 284.21 325.66 280.51 324.86 279.06 323.43 279.4 322.06 278.97 321.73 278.28 322.16 277.7 324.22 276.69 330.9 275.71 332.78 274.33 332.65 264.35 332.27 262.9 330.56 260.55 330.17 258.73 330.96 254.5 333.76 248.11 333.45 244.56 331.98 240.69 328.41 233.69 326.16 230.91 329.36 228.51 337.31 226.05 340.69 223.68 342.43 221.49 343.06 219.9 342.72 218.17 341.56 215.58 341.38 214.55 341.31 213.19 341.05 212 340.32 211.49 339.96 211.01 337.95 209.03 337.48 208.72 337.04 208.3 334.98 206.72 334.33 205.94 334.15 204.98 334.23 203.43 334.33 201.49 334.72 200.05 335.67 198.34 336.83 196.9 337.91 196.3 338.91 195.34 338.96 193.15 338.21 188.25 337.57 186.22 337.48 184.98 337.78 184.23 338.39 183.58 338.94 182.81 339.08 181.7 341.6 177.76 347.17 177.54 352.64 176.42 361.38 171.62 374.06 167.76 378.3 168.51 381.7 170.97 382.18 174.38 379.39 177.48 378.47 180.77 380.84 183.3 384.32 182.48 386.89 179.04 390.23 177.53 393.82 176.56 395.25 174.9 395.5 172.55 397.23 171.07 405.27 171.93 409.71 174.95 416.21 182.32 418.93 184.18 Z" id="HUN-3161" data-name="Bács-Kiskun"/>
<path d="M 321.6 143.69 325 146.5 325.93 148.2 327.36 149.48 331.41 149.87 333.29 151.82 331.98 157.67 329.55 161.12 328.89 163.3 328.6 165.72 328.64 168.04 329.82 172.62 330.72 174.98 331.45 176 333.29 176.89 339.08 181.7 338.94 182.81 338.39 183.58 337.78 184.23 337.48 184.98 337.57 186.22 330.75 183.73 324.28 188.35 322.67 194.82 324.51 198.75 334.23 203.43 328.82 204.61 323.7 207.02 312.21 217.05 307.2 219.3 305 219.81 302.87 220.65 299.36 220.02 291.06 210.96 288.72 211.12 286.29 212.35 284.84 214.19 283.43 215.41 281.9 215.58 277 214.96 272.1 213.38 263.97 208.76 262.97 209.08 256.97 209.05 250.86 210.22 250.07 206.92 250.17 200.21 250.7 199.49 251 198.7 248.63 195.69 246.05 191.12 250.53 186.36 252.22 180.6 251 177.61 251.97 169.85 250.3 166.96 247.03 165.63 242.76 159.03 237.74 155.69 236.37 152.54 237.07 149.34 241.27 148.54 237.35 143.35 238.12 141.44 239.41 140.06 239.14 136.58 240.3 133.82 243.07 133.73 245.89 133.2 247.86 131.03 250.33 131.08 257.18 135.1 258.79 136.85 260.83 137.75 267.09 136.65 265.96 135.2 264.46 134.13 266.18 132.42 272.11 130.4 275.47 128.08 277.74 127.47 279.56 126.15 281.97 122.22 285.91 120.28 305.79 119.51 310.45 125.89 316.46 130.96 317.79 133.96 317.01 137.31 320.15 142.49 321.6 143.69 Z M 275.7 177.88 282.86 174.87 286.79 176.26 290.94 171.64 293.02 168.41 293.02 165.17 290.25 162.63 290.25 159.63 291.41 155.47 287.02 153.16 283.78 153.16 281.47 149.93 279.16 149.47 276.16 152.7 269.7 157.09 263.91 161.6 269.46 165.87 272.93 170.02 274.31 174.41 275.7 177.88 Z" fill-rule="evenodd" id="HUN-3162" data-name="Fejér"/>
<path d="M 305.79 119.51 285.91 120.28 286.86 117.89 282.93 113.96 276.93 113.04 272.31 112.58 269.08 114.89 270.46 117.89 269.31 120.2 273.46 123.66 279.56 126.15 277.74 127.47 275.47 128.08 272.11 130.4 266.18 132.42 264.46 134.13 265.96 135.2 267.09 136.65 260.83 137.75 258.79 136.85 257.18 135.1 250.33 131.08 247.86 131.03 245.89 133.2 243.07 133.73 240.3 133.82 239.14 136.58 239.41 140.06 238.12 141.44 237.35 143.35 223.94 145.32 221.26 144.93 219.93 142.79 219.25 140.31 215.46 139.9 210.98 138.69 211.74 135.43 211.38 132.1 211.38 129.72 213.2 126.33 211.88 123.03 212.93 122.32 215.54 122.95 216.87 120.9 214.1 118.25 216.64 113.51 213.17 111.45 213.38 107.87 212.48 105.79 212.98 103.71 212.84 101.14 211.82 98.64 211.51 97.08 238.46 95.9 252.97 96.92 257.33 96.64 266.13 94.22 290.22 92.33 295.49 92.59 299.77 93.86 303.29 94.33 306.72 94.08 309.59 92.89 313.48 89.89 315.52 88.87 318.18 88.39 321.08 87.7 321.36 87.74 324.99 89.48 329.12 90.06 331.76 92.87 332.93 94.88 333.61 98.39 335.17 99.44 333.03 100.7 330.35 100.1 325.56 101.24 326.81 107.24 320.65 106.76 314.51 107.39 315.67 108.84 316.38 110.54 313.16 112.16 310.61 114.43 308.78 117.52 305.79 119.51 Z" id="HUN-3163" data-name="Komárom-Esztergom"/>
<path d="M 411.17 98.87 412.88 100.7 414.29 101.17 415.78 101.42 415.07 102.97 413.66 104.5 414.91 106.69 417.15 108.38 420.4 112.06 420.54 114.04 422.23 115.51 421.03 118.98 423.28 122.23 427.01 123.89 431.42 123.6 432.03 125.77 432.02 127.69 436.92 130.62 439.14 132.66 460.32 146.9 461.27 148.56 461.27 150.68 460.78 152.47 461.05 154.11 463.12 156.29 466.07 157.7 470.24 162.37 467.12 167.72 466.5 173.41 470.3 178.76 476.85 182.72 484.26 184.7 477.71 188.04 473.36 184.81 469.47 183.2 466.01 184.26 462.67 185.88 457.79 189.97 454.07 189.09 450.6 187.28 446.88 187.88 443.54 190.01 441.51 191.89 439.2 192.01 437.14 191.58 433.33 191.69 424.33 187.89 418.93 184.18 416.21 182.32 409.71 174.95 405.27 171.93 397.23 171.07 395.5 172.55 395.25 174.9 393.82 176.56 390.23 177.53 386.89 179.04 384.32 182.48 380.84 183.3 378.47 180.77 379.39 177.48 382.18 174.38 381.7 170.97 378.3 168.51 374.06 167.76 361.38 171.62 352.64 176.42 347.17 177.54 341.6 177.76 339.08 181.7 333.29 176.89 331.45 176 330.72 174.98 329.82 172.62 328.64 168.04 328.6 165.72 328.89 163.3 329.55 161.12 331.98 157.67 333.29 151.82 331.41 149.87 334.45 148.13 336.07 145.13 336.84 142.16 350.23 140.45 356.15 142.93 359.63 143.23 370.81 137.82 373.08 135.86 378.63 132.95 381.28 128.42 379.65 127.13 377.36 126.51 368.42 121.83 365.82 122.14 365.43 120.72 361.04 118.69 358.41 116.4 353.27 114.22 347.67 114.47 344.93 116.34 341.71 117.38 334.57 118.11 335.63 125.01 339.77 133.03 339.87 134.53 337.61 138.02 333.99 135.2 330.06 133.58 326.83 131.27 323.83 132.2 324.52 136.12 326.6 140.05 321.6 143.69 320.15 142.49 317.01 137.31 317.79 133.96 316.46 130.96 310.45 125.89 305.79 119.51 308.78 117.52 310.61 114.43 313.16 112.16 316.38 110.54 315.67 108.84 314.51 107.39 320.65 106.76 326.81 107.24 325.56 101.24 330.35 100.1 333.03 100.7 335.17 99.44 333.61 98.39 332.93 94.88 331.76 92.87 329.12 90.06 324.99 89.48 321.36 87.74 321.08 87.7 321.26 87.66 316.73 85.44 313.29 83.17 312.53 80.97 312.82 78.49 314 73.63 313.61 72.27 312.8 71.8 312.64 71.37 314.17 70.1 315.24 69.68 317.53 69.42 318.64 68.77 321.79 64.38 323.85 63.26 335.04 61.57 339 65.34 339.34 70.83 335.24 73.29 338.01 77.44 352.6 84.42 362.11 84.26 387.23 87.47 391.79 88.88 395.67 94.82 396.8 102.54 403.9 99.8 411.17 98.87 Z" id="HUN-3164" data-name="Pest"/>
<path d="M 317.65 291.51 311.41 290.21 305.56 287.96 301.78 284.94 298.21 281.14 295.19 276.65 293.26 275.15 290.9 276.19 288.59 276.18 282.7 272.25 279.83 272.61 277.8 274.22 273.2 276.51 271.4 266.44 269.15 262.26 264.65 258.67 264.99 256.77 264.48 255.26 260.9 254.82 247.03 255.7 245.04 258.25 242.75 260.35 239.73 260.22 236.7 259.57 233.33 248.4 230.79 247.4 229.67 242.58 231.92 237.11 235.43 232.41 235.73 227.82 236.7 223.43 239.01 219.87 239.26 217.87 240.05 216.24 241.71 214.61 243.03 212.66 244.09 212 245.45 211.85 250.86 210.22 256.97 209.05 262.97 209.08 263.97 208.76 272.1 213.38 277 214.96 281.9 215.58 283.43 215.41 284.84 214.19 286.29 212.35 288.72 211.12 291.06 210.96 299.36 220.02 302.87 220.65 305 219.81 307.2 219.3 312.21 217.05 323.7 207.02 328.82 204.61 334.23 203.43 334.15 204.98 334.33 205.94 334.98 206.72 337.04 208.3 337.48 208.72 337.95 209.03 339.96 211.01 340.32 211.49 341.05 212 341.31 213.19 341.38 214.55 341.56 215.58 342.72 218.17 343.06 219.9 342.43 221.49 340.69 223.68 337.31 226.05 329.36 228.51 326.16 230.91 328.41 233.69 331.98 240.69 333.45 244.56 333.76 248.11 330.96 254.5 330.17 258.73 330.56 260.55 332.27 262.9 332.65 264.35 332.78 274.33 330.9 275.71 324.22 276.69 322.16 277.7 321.73 278.28 322.06 278.97 323.43 279.4 324.86 279.06 325.66 280.51 323.26 284.21 321.42 284.93 319.63 284.25 318.74 285.45 320.16 287.78 322.75 288.78 320.37 290.52 317.65 291.51 Z M 311.82 262.99 314.46 263.77 317.35 264.43 320 264.67 323.06 265.21 325.77 265.75 328.53 265.69 329.61 264.31 329.43 263.17 328.49 262.33 326.91 262.56 325.44 263.11 325.32 261.93 324.86 261.32 324.09 261.01 323.02 260.77 321.96 261.49 321.4 262.01 321.4 262.3 320.84 262.01 320.19 261.49 319.73 260.98 319.73 260.77 315.71 260.77 314.89 258.47 314.38 256.61 312.18 254.24 309.47 254.58 308.46 256.78 305.41 257.12 303.27 256.6 301.52 258.3 298.98 259.83 297.8 261.52 297.51 263.11 298.17 264.37 299.32 265.39 301.9 264.31 302.44 263.35 303.04 263.35 303.34 264.91 303.82 266.65 305.33 267.56 307.61 268.1 309.6 266.11 310.68 264.19 311.82 262.99 Z" fill-rule="evenodd" id="HUN-3165" data-name="Tolna"/>
<path d="M 433.04 49.26 429.12 52.54 428.22 57.3 426.44 62.06 435.66 63.25 438.93 59.38 444.59 56.7 449.32 53.34 452.09 52.66 457.42 49.33 460.13 48.21 464.6 47.27 464.99 47.11 466.21 48.22 469.5 49.8 471.76 51.36 470.55 51.85 469.61 52.71 466.32 53.76 463.71 55.56 460.32 56.16 458.73 56.86 458.11 58.44 458.95 59.12 460.4 59.58 462.91 62.73 463.76 66.61 460.21 66.9 457.36 68.62 455.79 71.58 455.41 74.28 452.37 76.37 449.13 77.76 447.54 76.68 445.54 76.73 443.9 78.53 442.66 80.62 439.7 82.06 435.88 80.6 432.6 82.16 426.66 89.01 422.24 89.99 411.17 98.87 403.9 99.8 396.8 102.54 395.67 94.82 391.79 88.88 387.23 87.47 362.11 84.26 352.6 84.42 338.01 77.44 335.24 73.29 339.34 70.83 339 65.34 335.04 61.57 340.71 60.71 342.44 60.17 345.09 60.26 347.4 60.33 354.44 59.64 369.03 60.84 370.32 60.66 377.34 57.64 393.22 57.86 399.52 54.87 399.7 54.26 399.76 53.64 399.7 53 399.52 52.36 399.48 52.28 399.46 52.2 399.48 52.15 399.52 52.09 400.92 50.23 402.02 45.68 403.31 43.97 405.34 43.18 416.16 41.26 417.42 41.29 418.6 41.52 419.93 42.28 422.49 44.39 423.67 44.8 429.09 44.09 431.85 44.4 433.94 46.09 434 47.25 433.33 48.26 433.04 49.26 Z" id="HUN-3166" data-name="Nógrád"/>
<path d="M 711.39 20.34 714.17 20.67 714.38 20.65 711.9 22.45 707.52 28.62 705.08 31.32 701.82 32.67 700.73 32.52 698.44 31.69 697.08 31.8 696.39 32.3 692.41 36.23 689.08 38.81 687.36 39.75 685.08 40.31 677.65 40.63 675.92 41.54 673.77 43.01 671.58 44.2 669.7 44.25 668.26 44.5 659.32 48.26 657.08 48.5 654.84 48.23 650.21 46.75 648.21 46.71 643.85 47.13 636.31 46.89 634.14 47.13 632.38 47.95 630.69 49.39 629.33 51.08 628.52 52.68 628.28 54.74 628.91 55.82 629.77 56.73 630.2 58.34 628.99 62.02 625.99 64 622.04 64.78 618 64.87 618.88 64.87 613.25 65.14 611.57 64.87 610.16 64.06 609.1 63.06 607.87 62.37 605.95 62.46 605.14 63.02 604.79 63.83 604.31 64.56 603.14 64.87 600.26 64.77 599.45 64.87 594.33 67.17 593.03 68.09 592.24 69.52 591.5 72.61 591.25 73.61 590.62 75.24 589.66 76.25 585.79 79.33 584.76 80.84 584.68 81.73 584.96 82.84 584.99 85.03 584.63 86.88 583.93 87.8 581.48 89.58 582.14 93.15 582.11 93.86 575.65 94.66 575.61 95.55 572.8 99.3 572.07 99.92 571.33 101.07 565.43 105.1 556.86 105.68 553.6 105.91 551.55 106.51 547.72 106.08 545.02 104.9 532.12 103.13 529.67 100.38 528.1 96.75 522.66 92.44 515.13 83.46 514.22 83.03 513.24 82 514.39 80.91 515.19 79.82 514.71 77.51 513.13 75.69 510.94 74.01 510.13 71.6 511.58 69.87 516.81 66.2 518.34 61.5 522.71 59.61 528.67 58.71 535.81 58.42 539.67 61.99 545.92 64.96 552.17 67.64 556.93 67.34 562.88 66.15 566.75 63.18 566.16 60.5 563.48 57.23 563.48 53.66 561.1 49.19 557.83 45.92 553.36 44.14 549.2 44.14 544.14 41.75 538.78 44.43 531.85 47.98 526.2 51.26 519.95 51.55 516.11 54.62 509.71 50.15 502.22 56.78 498.22 54.84 493.98 55.02 490.61 57.04 486.47 57.04 484.54 55.97 483.01 54.3 481.33 53.89 479.44 54.06 477.2 52.17 474.39 50.57 471.76 51.36 469.5 49.8 466.21 48.22 464.99 47.11 469.67 45.19 471.9 44.62 472.87 44.11 473.73 43.06 474.38 40.94 474.84 40.11 476.31 38.95 477.32 38.81 478.52 39.11 480.59 39.26 482.56 38.67 486.11 36.48 487.44 36.09 489.78 36.88 491.11 37.86 492.53 38.26 495.22 37.33 498.63 35.03 501.58 32.03 504.03 28.63 508.6 19.3 509.96 17.47 511.73 15.92 515.3 13.4 515.57 13.22 517.15 11.64 517.25 11.23 517.3 10.81 517.28 10.4 517.21 9.98 516.98 7.94 517.02 6.96 517.15 6.08 520.54 5.17 527.84 4.84 552.72 1.02 554.63 1 556.46 1.64 559.95 3.75 561.65 4.05 565.34 4.31 571.75 6.91 575.95 7.16 578.89 7.01 582.35 7.42 585.64 8.41 588.01 9.97 590.99 10.43 600.09 7.53 604 6.94 606.12 7.56 607.58 8.38 608.92 8.77 610.66 8.12 612.03 6.8 612.7 5.55 613.69 4.45 615.98 3.55 617.95 3.28 621.97 3.22 628.07 1.94 629.78 2.28 633.73 3.85 635.86 4.41 636.87 5.02 637.65 6.03 638.72 8.31 639.51 9.13 641.38 9.71 645.72 9.67 647.73 9.97 648.75 11.3 650.28 16.16 651.24 17.42 657.83 24.16 660.62 26.33 663.73 27.86 667.41 28.7 670.99 28.49 677.08 26.42 682.15 25.91 685.73 24.54 687.45 24.09 693.59 23.88 695.75 23.38 697.88 23.29 704.92 23.75 707.11 23.33 709.16 22.24 711.39 20.34 Z" id="HUN-3168" data-name="Borsod-Abaúj-Zemplén"/>
<path d="M 799 74.23 797.07 75.75 794.11 79.44 792.19 80.63 787.47 81.81 785.59 82.7 784.33 84.29 784.37 85.29 784.97 86.05 785.2 86.91 784.2 88.23 783.5 88.55 780.96 88.73 778.56 89.47 777.13 90.23 774.22 92.81 770.78 94.84 766.49 96.09 761.99 96.52 757.93 96.07 749.21 92.97 745.6 93.54 743.68 98.19 742.33 99.06 740.77 99.49 739.08 99.59 733.65 99.03 732.15 99.13 730.06 99.64 727.89 100.46 726.55 101.39 723.97 104.02 723.07 104.64 721.08 105.61 720.22 106.34 719.78 107.22 719.38 109.38 719.01 110.39 716.09 113.21 715.74 113.99 715.66 114.86 715.48 115.62 715.45 115.75 714.83 116.64 713.9 117.11 713.86 117.07 711.34 114.89 708.99 108.09 706.95 106.04 701.49 110.13 698.42 108.09 699.1 105.01 695.69 100.92 687.51 97.82 683.49 97.97 680.64 101.29 679.23 103.74 677.04 105.24 674.55 104.26 672.46 102.5 670.06 101.8 667.57 101.79 662.61 100.57 660.31 99.09 654.56 98.27 652.63 96.47 641.61 90.61 642.1 84 643.55 77.74 642.37 75.25 638.66 74.37 634.14 76.2 615.08 77.18 609.82 78.58 600.09 73.37 591.5 72.61 592.24 69.52 593.03 68.09 594.33 67.17 599.45 64.87 600.26 64.77 603.14 64.87 604.31 64.56 604.79 63.83 605.14 63.02 605.95 62.46 607.87 62.37 609.1 63.06 610.16 64.06 611.57 64.87 613.25 65.14 618.88 64.87 618 64.87 622.04 64.78 625.99 64 628.99 62.02 630.2 58.34 629.77 56.73 628.91 55.82 628.28 54.74 628.52 52.68 629.33 51.08 630.69 49.39 632.38 47.95 634.14 47.13 636.31 46.89 643.85 47.13 648.21 46.71 650.21 46.75 654.84 48.23 657.08 48.5 659.32 48.26 668.26 44.5 669.7 44.25 671.58 44.2 673.77 43.01 675.92 41.54 677.65 40.63 685.08 40.31 687.36 39.75 689.08 38.81 692.41 36.23 696.39 32.3 697.08 31.8 698.44 31.69 700.73 32.52 701.82 32.67 705.08 31.32 707.52 28.62 711.9 22.45 714.38 20.65 714.39 20.65 714.5 20.64 715.67 19.79 719.52 18.77 723.53 19.11 727.74 20.5 725.99 24.06 725.97 25.93 729.21 25.8 730.03 25.9 730.9 26.89 730.9 28.05 730.63 29.4 730.74 31.02 732.01 33.41 737.77 39.37 738.54 39.88 739.39 40.04 740.3 39.86 741.22 39.37 741.7 39.22 742.17 39.17 742.67 39.22 744.98 39.85 746.84 40.11 748.67 40 750.94 39.24 751.44 39.2 751.92 39.27 752.4 39.43 761.14 47.12 762.68 49.55 764.35 53.28 766.36 56.07 766.99 56.55 767.29 56.57 768.84 55.99 777.31 55.99 779.47 55.51 781.47 54.65 783.49 54.28 785.41 55.11 785.82 55.67 790.04 57.26 793.52 59.44 795.09 60.78 796.31 62.4 797.12 64.62 796.69 65.84 795.91 66.93 795.69 68.77 793.69 70.44 794.67 71.87 799 74.23 Z M 664.02 65.72 661.94 64.23 655.99 64.53 653.91 67.21 652.83 69.7 651.94 75.65 651.04 82.79 658.18 84.28 666.22 85.76 670.09 87.55 676.63 86.66 679.31 82.79 679.61 78.62 683.48 78.03 683.77 73.57 683.48 69.4 681.09 67.61 678.12 69.1 671.87 68.8 671.87 65.23 668.49 63.63 664.02 65.72 Z" fill-rule="evenodd" id="HUN-3169" data-name="Szabolcs-Szatmár-Bereg"/>
<path d="M 652.74 183.32 653.02 183.94 654.03 184.28 655.16 184.43 655.97 184.89 657.03 186.26 657.1 186.38 656.65 186.5 654.42 192.31 653.42 193.17 648.04 196.19 647.52 196.32 647.38 196.64 647.19 198.02 647.3 199.46 647.7 200.71 647.74 201.99 646.76 203.49 645.54 204.21 641.25 205.01 638.79 206.59 637.28 208.5 634.77 213.25 634.24 213.81 633.84 214.44 633.58 215.12 633.47 215.83 633.72 216.16 634.03 216.44 634.38 216.66 637.55 218.16 637.15 220.48 635.01 222.67 632.65 223.59 629.44 223.98 628.18 225.36 627.95 225.81 627.16 227.34 624.71 229.55 622.17 230.49 617.84 230.25 615.33 230.7 613.53 232.19 612.86 234.42 612.4 238.92 610.94 241.08 608.91 242.85 607.25 244.72 606.96 247.14 610.4 251.67 611.14 254.25 608.42 255.69 603.44 255.84 601.14 256.41 599.16 258.01 597.97 260.56 597.48 265.8 596.47 268.07 595.12 269.86 593.99 270.47 590.55 270.45 589.79 270.73 584.18 275.46 582.06 276.02 579.76 274.64 578.95 273.96 578.03 273.64 577.02 273.64 575.95 273.96 573.62 274.02 569.24 272.7 567.13 272.39 566.33 272.57 564.6 273.24 563.44 273.31 562.48 272.99 560.36 271.74 559.27 271.35 556.91 271.28 554.44 271.76 553.11 272.25 553.08 272.22 551.69 270.78 549.49 269.59 548.62 267.77 549.59 264.91 549.78 262.12 548.41 259.85 546.45 258.11 544.14 258.28 543.07 256.92 536.88 258.03 530.99 258.01 533.06 254.76 529.3 255.45 529.38 250.53 530.57 249.01 529.79 246.65 532.36 243.66 533.92 239.85 530.48 238.8 528.63 236.44 528.21 227.68 529.82 222.08 529.48 214.58 525.72 212.18 519.85 211.11 510.27 208.73 508.47 204.84 509.75 201.44 514.35 198.66 518.51 198.38 522.48 199.06 525.81 195.85 529.21 196.5 531.93 194.87 533.73 195.71 535.22 197.11 537.51 196.73 539.78 195.65 541.67 195.4 543.51 194.58 544.75 191.07 544.14 187.21 543.01 185.74 542.89 183.91 547.4 180.24 547.3 178.67 546.86 177.97 548.09 176.42 550 175.5 557.11 169.51 559.42 168.93 561.82 169.42 563.42 168.72 564.47 167.22 566.17 166.81 567.47 165.34 568.41 163.79 571.29 163.04 572.59 161.83 573.48 160.23 575.21 158.63 577.48 157.84 592.02 164.31 597.04 165.53 602.34 165.92 610.01 168.5 612.41 171.91 612.3 180.4 612.04 183.74 613.56 185.63 616.35 186.16 618.59 187.64 617.53 190.51 619.73 192 623.63 192.57 631.81 190.99 636.79 191.05 644.8 185.46 649.84 183.8 652.69 183.32 652.74 183.32 Z M 578.45 224.93 584.92 224.87 590.46 224.18 597.85 224.41 602.47 220.48 600.39 216.55 601.78 211.93 596.47 206.62 585.15 202.99 580.3 208.99 575.22 212.69 577.07 218.69 578.45 224.93 Z" fill-rule="evenodd" id="HUN-3171" data-name="Békés"/>
<path d="M 543.07 256.92 544.14 258.28 546.45 258.11 548.41 259.85 549.78 262.12 549.59 264.91 548.62 267.77 549.49 269.59 551.69 270.78 553.08 272.22 553.11 272.25 552.07 272.64 547.46 275.3 546.95 275.96 547.01 277.06 548.1 279.68 548.09 280.62 547.14 281.28 546.03 281.15 544.93 280.89 544.04 281.11 543.46 281.99 543.35 283.41 543.33 283.67 542.69 284.83 540.89 286.22 538.6 287.03 531.96 288.01 531.08 287.99 529.66 287.61 528.49 287.06 525.06 284.87 520.41 283.51 515.61 282.75 512.74 285.96 493.81 286.32 489.05 290.52 482.66 286.72 480.54 286.12 477.59 287.11 476.72 287.18 475.82 286.84 474.62 285.68 473.99 285.33 475.5 281.1 477.11 279.71 479.89 279.94 482.66 282.25 484.74 285.26 487.51 284.79 487.74 282.25 485.43 280.87 483.81 278.79 483.58 276.94 485.02 275.14 489.09 275.71 492.36 275.56 492.13 272.78 498.91 272 503.99 272 509.07 273.85 516 274.31 521.55 271.31 524.78 264.84 528.94 261.37 530.99 258.01 536.88 258.03 543.07 256.92 Z M 525.72 212.18 529.48 214.58 529.82 222.08 528.21 227.68 528.63 236.44 530.48 238.8 533.92 239.85 532.36 243.66 529.79 246.65 530.57 249.01 529.38 250.53 527.09 248.67 522.93 245.67 519.01 242.44 514.85 240.59 504.69 243.36 499.6 242.21 495.45 241.97 493.6 244.75 491.29 251.67 488.52 254.45 486.44 249.6 483.81 248.26 482.63 252.22 482.72 255 483.44 257.48 483.84 260.18 484.43 261.41 485.85 262.3 485.3 264.22 485.98 265.97 482.43 266.09 480.12 263.08 477.81 261.47 473.65 264.7 466.72 263.78 462.1 265.85 461.64 272.09 468.57 273.48 469.72 276.48 468.57 277.86 467.95 286.15 464.6 286.42 459.68 284.49 452.15 284 447.42 284.72 445.62 285.24 435.84 288.05 433.78 287.76 426.59 284.57 424.82 281.09 421.9 277.31 419.68 273.25 420.03 269.91 421.82 267.41 421.93 264.76 421.64 261.99 423.99 260.75 426.72 260.54 429.93 261.26 433.36 261.02 436.64 259.35 440.29 258.52 442.8 258.62 444.35 256.27 446.33 250.93 444.99 245.46 439.42 242.76 439.25 237.93 443.68 235.77 453.89 236.88 458.01 233.77 460.18 220.92 459.2 218.8 456.78 217.53 461.85 212.62 467.7 209.05 476.34 212.86 489.89 209.78 494.11 212.49 498.43 213.32 502.22 211.24 506.35 210.37 510.27 208.73 519.85 211.11 525.72 212.18 Z" fill-rule="evenodd" id="HUN-3172" data-name="Csongrád"/>
<path d="M 713.9 117.11 713.24 117.45 707.47 118.44 700.17 122.16 696.69 124.73 694.45 127.61 694.76 131.27 695.79 135.35 695.95 139.27 693.59 142.53 688.35 143.58 686.23 144.47 684.09 146.1 679.55 150.61 678.83 151.99 677.48 156.2 676.86 157.27 675.5 159.01 675.01 160.32 674.97 161.68 675.25 162.75 675.29 163.83 674.57 165.28 673.59 166.23 670.99 167.92 669.87 169.04 669.35 170.11 668.76 172.19 667.97 173.22 665.59 174.83 659.79 177.46 657.16 179.16 652.57 182.93 652.74 183.32 652.69 183.32 649.84 183.8 644.8 185.46 636.79 191.05 631.81 190.99 623.63 192.57 619.73 192 617.53 190.51 618.59 187.64 616.35 186.16 613.56 185.63 612.04 183.74 612.3 180.4 612.41 171.91 610.01 168.5 602.34 165.92 597.04 165.53 592.02 164.31 577.48 157.84 580.82 151.95 581.41 144.48 580.32 138.92 578.33 133.35 576.93 123.39 575.38 118.67 571.74 116.33 567.92 115.99 564.14 114.82 559.61 111.66 556.86 105.68 565.43 105.1 571.33 101.07 572.07 99.92 572.8 99.3 575.61 95.55 575.65 94.66 582.11 93.86 582.14 93.15 581.48 89.58 583.93 87.8 584.63 86.88 584.99 85.03 584.96 82.84 584.68 81.73 584.76 80.84 585.79 79.33 589.66 76.25 590.62 75.24 591.25 73.61 591.5 72.61 600.09 73.37 609.82 78.58 615.08 77.18 634.14 76.2 638.66 74.37 642.37 75.25 643.55 77.74 642.1 84 641.61 90.61 652.63 96.47 654.56 98.27 660.31 99.09 662.61 100.57 667.57 101.79 670.06 101.8 672.46 102.5 674.55 104.26 677.04 105.24 679.23 103.74 680.64 101.29 683.49 97.97 687.51 97.82 695.69 100.92 699.1 105.01 698.42 108.09 701.49 110.13 706.95 106.04 708.99 108.09 711.34 114.89 713.86 117.07 713.9 117.11 Z M 627.37 126.66 635.41 126.66 637.79 132.32 641.5 133.4 644.48 134.89 645.97 139.65 653.12 139.65 659.67 134 664.13 133.4 668.9 136.68 676.94 130.42 679.32 125.96 679.62 118.51 675.75 113.75 671.28 109.88 667.11 110.77 663.24 114.05 657.88 116.13 654.61 113.15 651.93 107.79 649.84 102.43 643.89 103.03 642.4 106.6 640.61 105.71 642.1 99.46 639.72 100.65 634.66 104.22 629.75 113.86 627.07 120.71 627.37 126.66 Z" fill-rule="evenodd" id="HUN-3173" data-name="Hajdú-Bihar"/>
<path d="M 516.11 54.62 518.13 56.04 518.73 58.79 518.34 61.5 516.81 66.2 511.58 69.87 510.13 71.6 506.92 68.94 506.92 65.59 505.8 63.35 500.22 62.61 498.36 66.7 495.38 67.82 496.12 71.54 497.61 76.01 496.12 80.85 496.12 85.68 498.73 90.15 503.94 90.15 506.54 87.92 506.54 84.57 509.15 82.71 513.24 82 514.22 83.03 515.13 83.46 522.66 92.44 528.1 96.75 529.67 100.38 532.12 103.13 545.02 104.9 547.72 106.08 551.55 106.51 550.84 107.37 550.28 108.51 548.71 110 545.19 110.98 543.98 111.74 544.69 113.13 544.29 113.89 543.92 114.38 543.34 114.67 542.28 114.82 542.28 115.55 541.58 117.62 520.76 127.16 519.72 128.1 519.08 130.57 517.49 131.58 513.22 132.56 512.59 133.01 511.12 134.36 510.01 134.97 507.13 135.58 504.53 135.06 497.77 132.01 495.7 130.21 494.39 128.13 495.12 125.53 493.14 121.81 488.65 120.18 486.41 118.12 485.16 115.06 483.53 114.22 472.41 116.3 473.53 117.97 475.36 118.86 469.56 119.92 463.3 117.03 461.33 112.56 460.47 107.77 455.86 106.74 450.2 107.95 447.52 107.46 445.51 108.73 439.07 114.69 437.62 114.49 434.99 113.08 428.58 113.52 422.23 115.51 420.54 114.04 420.4 112.06 417.15 108.38 414.91 106.69 413.66 104.5 415.07 102.97 415.78 101.42 414.29 101.17 412.88 100.7 411.17 98.87 422.24 89.99 426.66 89.01 432.6 82.16 435.88 80.6 439.7 82.06 442.66 80.62 443.9 78.53 445.54 76.73 447.54 76.68 449.13 77.76 452.37 76.37 455.41 74.28 455.79 71.58 457.36 68.62 460.21 66.9 463.76 66.61 462.91 62.73 460.4 59.58 458.95 59.12 458.11 58.44 458.73 56.86 460.32 56.16 463.71 55.56 466.32 53.76 469.61 52.71 470.55 51.85 471.76 51.36 474.39 50.57 477.2 52.17 479.44 54.06 481.33 53.89 483.01 54.3 484.54 55.97 486.47 57.04 490.61 57.04 493.98 55.02 498.22 54.84 502.22 56.78 509.71 50.15 516.11 54.62 Z" id="HUN-3174" data-name="Heves"/>
<path d="M 577.48 157.84 575.21 158.63 573.48 160.23 572.59 161.83 571.29 163.04 568.41 163.79 567.47 165.34 566.17 166.81 564.47 167.22 563.42 168.72 561.82 169.42 559.42 168.93 557.11 169.51 550 175.5 548.09 176.42 546.86 177.97 547.3 178.67 547.4 180.24 542.89 183.91 543.01 185.74 544.14 187.21 544.75 191.07 543.51 194.58 541.67 195.4 539.78 195.65 537.51 196.73 535.22 197.11 533.73 195.71 531.93 194.87 529.21 196.5 525.81 195.85 522.48 199.06 518.51 198.38 514.35 198.66 509.75 201.44 508.47 204.84 510.27 208.73 506.35 210.37 502.22 211.24 498.43 213.32 494.11 212.49 489.89 209.78 476.34 212.86 467.7 209.05 464.61 208.32 462.35 208.73 460.71 207.79 460.25 206.2 461.88 203.16 461.17 202.9 463.73 200.33 467.74 199.29 471.3 199.44 472.99 197.23 470.68 196.23 470.65 194.33 473.28 194.51 475.42 195.8 476.51 195.93 478.61 193.75 478.61 193.02 477.27 192.61 475.36 192.39 473.66 192 472.92 191.04 473.65 190.11 477.71 188.04 484.26 184.7 476.85 182.72 470.3 178.76 466.5 173.41 467.12 167.72 473.96 168.66 479.84 171.68 481.43 172.05 483.25 172.74 486.47 174.02 492.42 173.42 496 171.64 496.29 167.77 492.12 166.58 489.74 163.19 493.39 161.32 494.29 159.84 491.23 155.86 483.19 151.39 476.05 145.43 467.71 151.99 463.12 156.29 461.05 154.11 460.78 152.47 461.27 150.68 461.27 148.56 460.32 146.9 439.14 132.66 436.92 130.62 432.02 127.69 432.03 125.77 431.42 123.6 427.01 123.89 423.28 122.23 421.03 118.98 422.23 115.51 428.58 113.52 434.99 113.08 437.62 114.49 439.07 114.69 445.51 108.73 447.52 107.46 450.2 107.95 455.86 106.74 460.47 107.77 461.33 112.56 463.3 117.03 469.56 119.92 475.36 118.86 473.53 117.97 472.41 116.3 483.53 114.22 485.16 115.06 486.41 118.12 488.65 120.18 493.14 121.81 495.12 125.53 494.39 128.13 495.7 130.21 497.77 132.01 504.53 135.06 507.13 135.58 510.01 134.97 511.12 134.36 512.59 133.01 513.22 132.56 517.49 131.58 519.08 130.57 519.72 128.1 520.76 127.16 541.58 117.62 542.28 115.55 542.28 114.82 543.34 114.67 543.92 114.38 544.29 113.89 544.69 113.13 543.98 111.74 545.19 110.98 548.71 110 550.28 108.51 550.84 107.37 551.55 106.51 553.6 105.91 556.86 105.68 559.61 111.66 564.14 114.82 567.92 115.99 571.74 116.33 575.38 118.67 576.93 123.39 578.33 133.35 580.32 138.92 581.41 144.48 580.82 151.95 577.48 157.84 Z" id="HUN-3175" data-name="Jász-Nagykun-Szolnok"/>
<path d="M 56.88 153.24 64.45 151.38 67.47 151.88 69.36 151.76 71.87 157.42 71.12 160.56 70.24 163.2 69.99 166.85 66.72 166.35 63.95 166.09 60.68 168.23 57.16 166.22 54.64 160.94 53.26 156.79 51.97 153.86 52.47 152.48 55.49 152.48 56.88 153.24 Z" id="HUN-4903" data-name="Szombathely"/>
<path d="M 74.26 103.6 70.86 106.67 71.31 109.47 70.42 110.5 63.86 109.39 59.44 109.47 55.55 111.51 49.89 109.94 46.63 110.44 40.04 108.63 37.91 107.8 38.95 106.92 40.73 104.96 41.6 104.37 42.28 104.96 42.86 105.32 43.41 105.4 44.19 105.07 45.58 104.22 50.28 102.55 51.27 101.9 51.92 100.89 51.71 99.34 52.42 98.2 56.73 96.88 61.67 97.3 71.09 99.78 72.58 100.48 73.21 101.54 73.64 102.78 74.26 103.6 Z" id="HUN-4904" data-name="Sopron"/>
<path d="M 170.81 114.99 166.96 110.91 173.79 107.36 176.03 101.55 187.48 98.89 193.04 99.72 198.35 99.39 200.84 103.37 202.17 107.27 201.25 109.43 193.87 112.5 188.89 114.24 181.34 114.24 176.7 116.56 172.55 114.66 170.81 114.99 Z" id="HUN-4905" data-name="Gyôr"/>
<path d="M 285.91 120.28 281.97 122.22 279.56 126.15 273.46 123.66 269.31 120.2 270.46 117.89 269.08 114.89 272.31 112.58 276.93 113.04 282.93 113.96 286.86 117.89 285.91 120.28 Z" id="HUN-4906" data-name="Tatabánya"/>
<path d="M 337.61 138.02 336.84 142.16 336.07 145.13 334.45 148.13 331.41 149.87 327.36 149.48 325.93 148.2 325 146.5 321.6 143.69 326.6 140.05 324.52 136.12 323.83 132.2 326.83 131.27 330.06 133.58 333.99 135.2 337.61 138.02 Z" id="HUN-4907" data-name="Érd"/>
<path d="M 275.7 177.88 274.31 174.41 272.93 170.02 269.46 165.87 263.91 161.6 269.7 157.09 276.16 152.7 279.16 149.47 281.47 149.93 283.78 153.16 287.02 153.16 291.41 155.47 290.25 159.63 290.25 162.63 293.02 165.17 293.02 168.41 290.94 171.64 286.79 176.26 282.86 174.87 275.7 177.88 Z" id="HUN-4908" data-name="Székesfehérvár"/>
<path d="M 216.41 184.4 211.06 183.55 207.68 178.77 204.58 174.26 206.83 170.6 207.11 167.5 204.86 165.53 205.14 163.56 211.9 163.28 213.31 159.61 217.25 158.77 220.63 161.3 224.29 166.37 225.7 171.44 225.98 178.77 221.19 177.64 218.94 182.71 216.41 184.4 Z" id="HUN-4909" data-name="Veszprém"/>
<path d="M 89.44 196.34 95.34 200.03 97.3 209.12 92.88 210.34 85.27 211.33 85.27 206.66 81.09 204.7 80.61 197.37 89.44 196.34 Z" id="HUN-4910" data-name="Zalaegerszeg"/>
<path d="M 115.64 253.45 112.87 253.92 113.91 257.4 109.35 258.95 103.26 258.36 98.54 256 98.15 250.5 97.95 245.98 97.94 242.48 101.28 242.09 102.07 237.37 106.98 237.17 108.17 242.24 111.31 244.41 112.3 248.73 115.64 253.45 Z" id="HUN-4911" data-name="Nagykanizsa"/>
<path d="M 194.96 274.11 193.91 267.07 190.74 260.74 193.56 258.27 194.26 255.1 194.33 251.94 195.74 249.82 198.91 251.58 206.58 250.88 206.58 251.58 210.1 258.27 211.16 264.61 207.29 266.72 204.82 270.59 203.41 273.41 199.54 271.65 194.96 274.11 Z" id="HUN-4912" data-name="Kaposvár"/>
<path d="M 257.88 285.31 262.81 283.2 267.04 290.59 268.8 295.17 267.74 296.58 263.87 295.87 261.76 295.87 259.64 298.34 258.23 301.15 256.12 303.62 252.95 305.03 248.73 303.62 244.15 300.45 240.28 298.69 242.04 295.87 239.93 293.41 241.15 288.71 243.62 286.6 248.38 284.26 253.31 284.61 257.88 285.31 Z" id="HUN-4913" data-name="Pécs"/>
<path d="M 311.82 262.99 310.68 264.19 309.6 266.11 307.61 268.1 305.33 267.56 303.82 266.65 303.34 264.91 303.04 263.35 302.44 263.35 301.9 264.31 299.32 265.39 298.17 264.37 297.51 263.11 297.8 261.52 298.98 259.83 301.52 258.3 303.27 256.6 305.41 257.12 308.46 256.78 309.47 254.58 312.18 254.24 314.38 256.61 314.89 258.47 315.71 260.77 319.73 260.77 319.73 260.98 320.19 261.49 320.84 262.01 321.4 262.3 321.4 262.01 321.96 261.49 323.02 260.77 324.09 261.01 324.86 261.32 325.32 261.93 325.44 263.11 326.91 262.56 328.49 262.33 329.43 263.17 329.61 264.31 328.53 265.69 325.77 265.75 323.06 265.21 320 264.67 317.35 264.43 314.46 263.77 311.82 262.99 Z" id="HUN-4914" data-name="Szekszárd"/>
<path d="M 418.93 184.18 424.33 187.89 433.33 191.69 437.14 191.58 439.2 192.01 439.01 195.18 435.31 197.03 431.15 197.03 427.69 200.72 427.69 206.04 423.99 210.89 419.37 208.35 416.6 201.65 412.68 196.8 410.37 192.41 408.29 188.71 408.98 185.94 410.6 183.86 416.6 185.94 418.93 184.18 Z" id="HUN-4915" data-name="Kecskemét"/>
<path d="M 485.98 265.97 486.99 267.59 487.51 269.13 486.59 270.81 489.59 272.32 492.13 272.78 492.36 275.56 489.09 275.71 485.02 275.14 483.58 276.94 483.81 278.79 485.43 280.87 487.74 282.25 487.51 284.79 484.74 285.26 482.66 282.25 479.89 279.94 477.11 279.71 475.5 281.1 473.99 285.33 472.07 285.01 470.91 285.11 467.95 286.15 468.57 277.86 469.72 276.48 468.57 273.48 461.64 272.09 462.1 265.85 466.72 263.78 473.65 264.7 477.81 261.47 480.12 263.08 482.43 266.09 485.98 265.97 Z" id="HUN-4916" data-name="Szeged"/>
<path d="M 529.38 250.53 529.3 255.45 533.06 254.76 530.99 258.01 528.94 261.37 524.78 264.84 521.55 271.31 516 274.31 509.07 273.85 503.99 272 498.91 272 492.13 272.78 489.59 272.32 486.59 270.81 487.51 269.13 486.99 267.59 485.98 265.97 485.3 264.22 485.85 262.3 484.43 261.41 483.84 260.18 483.44 257.48 482.72 255 482.63 252.22 483.81 248.26 486.44 249.6 488.52 254.45 491.29 251.67 493.6 244.75 495.45 241.97 499.6 242.21 504.69 243.36 514.85 240.59 519.01 242.44 522.93 245.67 527.09 248.67 529.38 250.53 Z" id="HUN-4917" data-name="Hódmezôvásárhely"/>
<path d="M 467.12 167.72 470.24 162.37 466.07 157.7 463.12 156.29 467.71 151.99 476.05 145.43 483.19 151.39 491.23 155.86 494.29 159.84 493.39 161.32 489.74 163.19 492.12 166.58 496.29 167.77 496 171.64 492.42 173.42 486.47 174.02 483.25 172.74 481.43 172.05 479.84 171.68 473.96 168.66 467.12 167.72 Z" id="HUN-4918" data-name="Szolnok"/>
<path d="M 578.45 224.93 577.07 218.69 575.22 212.69 580.3 208.99 585.15 202.99 596.47 206.62 601.78 211.93 600.39 216.55 602.47 220.48 597.85 224.41 590.46 224.18 584.92 224.87 578.45 224.93 Z" id="HUN-4919" data-name="Békéscsaba"/>
<path d="M 510.13 71.6 510.94 74.01 513.13 75.69 514.71 77.51 515.19 79.82 514.39 80.91 513.24 82 509.15 82.71 506.54 84.57 506.54 87.92 503.94 90.15 498.73 90.15 496.12 85.68 496.12 80.85 497.61 76.01 496.12 71.54 495.38 67.82 498.36 66.7 500.22 62.61 505.8 63.35 506.92 65.59 506.92 68.94 510.13 71.6 Z" id="HUN-4920" data-name="Eger"/>
<path d="M 449.32 53.34 444.59 56.7 438.93 59.38 435.66 63.25 426.44 62.06 428.22 57.3 429.12 52.54 433.04 49.26 434.15 50.37 435.26 50.47 439.51 49.39 442.4 50 446.88 52.71 449.32 53.34 Z" id="HUN-4921" data-name="Salgótarján"/>
<path d="M 518.34 61.5 518.73 58.79 518.13 56.04 516.11 54.62 519.95 51.55 526.2 51.26 531.85 47.98 538.78 44.43 544.14 41.75 549.2 44.14 553.36 44.14 557.83 45.92 561.1 49.19 563.48 53.66 563.48 57.23 566.16 60.5 566.75 63.18 562.88 66.15 556.93 67.34 552.17 67.64 545.92 64.96 539.67 61.99 535.81 58.42 528.67 58.71 522.71 59.61 518.34 61.5 Z" id="HUN-4922" data-name="Miskolc"/>
<path d="M 664.02 65.72 668.49 63.63 671.87 65.23 671.87 68.8 678.12 69.1 681.09 67.61 683.48 69.4 683.77 73.57 683.48 78.03 679.61 78.62 679.31 82.79 676.63 86.66 670.09 87.55 666.22 85.76 658.18 84.28 651.04 82.79 651.94 75.65 652.83 69.7 653.91 67.21 655.99 64.53 661.94 64.23 664.02 65.72 Z" id="HUN-4923" data-name="Nyíregyháza"/>
<path d="M 627.37 126.66 627.07 120.71 629.75 113.86 634.66 104.22 639.72 100.65 642.1 99.46 640.61 105.71 642.4 106.6 643.89 103.03 649.84 102.43 651.93 107.79 654.61 113.15 657.88 116.13 663.24 114.05 667.11 110.77 671.28 109.88 675.75 113.75 679.62 118.51 679.32 125.96 676.94 130.42 668.9 136.68 664.13 133.4 659.67 134 653.12 139.65 645.97 139.65 644.48 134.89 641.5 133.4 637.79 132.32 635.41 126.66 627.37 126.66 Z" id="HUN-4924" data-name="Debrecen"/>
<path d="M 337.57 186.22 338.21 188.25 338.96 193.15 338.91 195.34 337.91 196.3 336.83 196.9 335.67 198.34 334.72 200.05 334.33 201.49 334.23 203.43 324.51 198.75 322.67 194.82 324.28 188.35 330.75 183.73 337.57 186.22 Z" id="HUN-4925" data-name="Dunaújváros"/>
</g>
</svg>