<?xml version="1.0"?>
<svg xmlns="http://www.w3.org/2000/svg" version="1.2" baseProfile="tiny" width="800" height="538" viewBox="0 0 800 538" stroke-linecap="round" stroke-linejoin="round">
<g id="ne_10m_admin_1_states_provinces">
<path d="M 258.27 406.27 257.09 406.18 255.89 407.31 254.98 408.92 254.68 410.25 253.17 409.08 252.83 408.33 253.51 407.08 252.4 406.15 251.96 405.24 252.22 404.56 252.74 403.52 253.67 402.49 254.66 402.18 256.11 402.18 256.83 402.7 257.41 403.73 257.87 404.98 258.27 406.27 Z" id="CAF-1460" data-name="Bangui"/>
<path d="M 260.64 323.17 263.84 326.97 266.06 327.86 267.12 327.9 274.04 328.98 274.7 329.53 275.14 330.55 276.04 336.51 276.71 337.72 277.67 338.78 279.79 340.36 281.13 341.07 281.75 341.6 282.5 342.64 283.8 344.92 284.32 346.34 284.48 347.44 284.23 348.89 282.61 353.51 282.3 355.01 282.41 356.46 282.89 357.92 288.57 365.62 289.52 367.88 289.55 368.16 289.3 370.18 289.48 371.95 289.5 372 289.5 372.02 288.07 373.38 287.2 374.48 286.51 375.92 285.97 377.83 285.68 378.42 285.17 378.96 284.62 379.36 284.19 379.86 283.69 382.2 282.86 383.08 281.79 383.76 280.67 384.68 278.59 388.22 278.32 388.44 277.14 388.87 276.88 389.1 276.74 389.19 276.04 390.98 273.96 392.65 272.48 394.73 269.35 402.47 267.9 404.47 265.93 405.9 263.07 406.88 261.83 407.13 260.6 407.2 259.4 406.97 258.27 406.27 257.87 404.98 257.41 403.73 256.83 402.7 256.11 402.18 254.66 402.18 253.67 402.49 252.74 403.52 252.22 404.56 251.96 405.24 252.4 406.15 253.51 407.08 252.83 408.33 253.17 409.08 254.68 410.25 255.17 411.3 256.85 412.72 257.22 413.38 257.54 414.55 259.73 418.6 260.53 420.99 261.37 426.15 261.3 430.04 261.07 431.52 260.64 432.89 259.36 434.99 259.24 436.36 259.26 437.12 259.24 437.11 259.19 437.09 254.5 435.01 252.92 434.72 252.35 434.38 251.83 433.86 250.85 432.6 250.47 431.88 250.01 431.29 249.43 430.89 248.52 430.51 247.58 429.98 246.95 429.3 246.68 428.92 246.51 428.5 245.97 427.59 243.41 424.75 242.76 423.68 242.49 422.86 242.95 421.26 243.08 420.51 243.02 419.7 242.67 417.81 242.64 416.98 242.82 415.8 242.77 415.28 240.49 410.52 239.85 409.8 239.06 409.32 237.74 409.01 235.93 408.76 235.21 408.49 234.37 407.95 233.45 406.94 231.66 403.33 230.86 402.3 229.9 401.57 228.63 401.27 227.69 401.48 226.66 401.83 225.77 401.95 225 401.74 224.36 401.08 223.63 400.8 222.86 400.65 222.22 400.6 221.72 400.5 220.15 400.01 218.8 399.74 217.98 399.77 217.67 399.85 217.32 400 216.99 400.23 216.65 400.57 216.33 400.96 215.83 401.13 215.19 401.08 213.86 400.55 213.2 400.44 212.4 400.45 212 400.26 211.58 399.71 211.35 399.16 211.14 398.28 210.89 397.86 210.44 397.54 207.46 396.3 206.83 396.27 206.18 396.41 205.59 396.67 204.81 396.83 202.02 396.85 201.53 397 201.25 397.22 200.98 397.52 200.65 397.72 200.03 397.74 199.25 397.57 197.44 396.87 196.52 396.34 194.79 394.54 194.24 393.75 193.82 392.86 191.85 384.53 191.24 383.2 189.13 380.43 188.53 379.95 187.69 379.46 182.84 377.2 180.29 375.53 177.71 372.96 176.19 371.79 174.86 370.32 174.17 369.74 171.29 368.2 170.48 367.6 169.82 366.71 169.53 366.11 168.69 365.76 168.06 365.64 163.01 366.35 160.49 362.76 160.41 362.55 160.41 362.34 160.49 362.2 160.59 362.09 160.74 362 160.94 361.96 161.83 361.84 162.24 361.71 162.59 361.47 163.47 360.69 164.11 360.27 164.95 359.89 167.16 359.2 167.67 358.83 167.96 358.33 167.96 357.74 164 351.65 162.74 350.25 156.53 345.69 155.75 345.3 154.74 345.25 153.29 345.46 150.87 346.06 148.5 346.25 146.85 346 145.72 345.42 144.23 344.38 142.86 344.64 140.73 345.62 131.73 351.03 130.86 347.06 130.13 345.22 129.94 344.14 129.98 342.63 131.2 336.1 131.07 333.1 133.24 332.21 136.32 329.94 139.82 326.58 140.73 325.5 141.81 323.52 142.87 322.08 145.38 320.19 152.91 317.58 156.3 317.13 156.85 316.86 157.38 316.51 157.95 315.96 159.43 315.33 159.31 318.32 159.55 319.32 160.83 321.06 162 323.46 163.4 323.84 166.81 324.26 196.36 323.77 198.74 322.92 210.51 316.4 211.06 315.96 211.53 315.44 211.99 314.78 212.7 314.06 213.66 313.46 215.47 312.96 216.52 313.09 217.34 313.38 218.54 314.27 221.75 315.7 222.08 316.09 222.29 316.76 222.28 317.78 222.42 318.17 222.76 318.49 223.49 318.86 224.18 318.93 224.88 318.82 226.18 318.33 226.99 318.19 227.6 318.31 228.18 318.62 229.25 319.42 229.61 319.53 229.9 319.5 230.16 319.38 230.66 319.23 235.55 318.81 236.76 318.91 237.5 319.12 237.83 319.45 238 319.8 238.08 320.29 238.1 320.84 238.18 321.37 238.33 321.76 238.64 322.05 238.89 322.09 239.64 321.8 240.57 321.64 242.48 321.6 243.88 321.8 244.97 322.07 245.65 322.4 246.12 322.71 246.4 323.05 246.5 323.34 246.49 323.68 246.41 324 246.26 324.31 246.09 324.51 245.87 324.67 245.29 324.98 245 325.17 244.76 325.42 244.64 325.87 244.73 326.39 245 327.12 245.82 328.51 246.09 329.18 246.26 329.98 246.18 332.15 246.28 332.73 246.68 333.3 247.07 333.44 247.69 333.29 249.87 332.27 252.74 331.24 257.95 328.46 258.62 327.95 259.02 327.33 259.26 326.68 259.44 325.83 259.53 325 259.47 323.57 259.57 323.13 259.9 322.89 260.64 323.17 Z" id="CAF-4856" data-name="Ombella-M&apos;Poko"/>
<path d="M 445.76 334.26 450.95 334.89 454.94 336.24 460.32 338.83 460.21 341.84 460.36 343.42 460.35 344.03 460.47 344.33 460.62 344.46 460.73 344.61 460.77 344.9 460.61 345.64 460.05 346.54 459.93 347.2 459.8 353.77 459.1 357.21 458.75 358.25 457.93 358.97 456.14 359.96 454.05 361.83 453.64 362.47 453.83 363.44 455.55 365.22 456.14 366.23 456.17 367.51 455.69 368.58 453.41 371.3 453.03 372.15 452.42 378.59 452.22 379.54 451.33 380.6 451 382.02 450.76 382.54 450.66 383.08 451.11 384.06 450.85 384.41 450.46 384.78 450.26 385.29 450.64 386.3 451.52 386.85 452.52 386.88 453.26 386.34 453.64 386.34 453.76 386.68 453.99 387.01 454.31 387.16 455.27 386.7 455.54 387.07 455.76 388 457 388.8 457.76 388.89 458.68 388.42 458.97 389.06 459.26 389.47 459.93 390.13 460.05 389.97 460.44 389.74 460.89 389.6 461.22 389.67 461.35 390.05 461.17 390.35 460.9 390.58 460.77 390.74 461.16 392.03 462.04 392.72 463.02 393.33 463.69 394.34 463.6 394.97 462.8 395.85 462.85 396.39 463.34 396.63 465.01 396.81 465.59 397.04 466.43 397.22 469.99 396.01 472.41 395.86 474.42 396.3 475.36 397.64 474.54 400.15 472.94 402.26 472.32 403.32 472.07 404.57 471.88 404.88 470.58 406.25 470.35 406.76 470.28 407.52 470.53 410.56 470.41 411.14 469.99 411.95 469.45 412.63 468.98 413.1 468.7 413.71 468.7 414.83 468.61 414.93 468.61 414.94 466.92 414.15 466.46 414.01 465.73 414.03 465.42 414.11 465.17 414.26 464.58 414.47 463.31 414.69 459.74 414.47 458.29 414.2 457.32 413.58 456.47 412.87 455.36 412.34 454.82 412.26 453.05 412.34 452.37 412.25 452.07 412.02 451.9 411.75 451.61 411.51 450.31 411.03 449.43 410.92 447.36 411.09 445.04 410.89 444.01 410.98 438.14 414.01 437.51 413.73 436.3 413.72 435.64 413.59 435.19 413.3 434.73 412.88 434.16 412.5 433.37 412.34 430.73 412.45 429.55 412.36 428.15 411.96 427.14 411.51 424.21 409.64 423.92 409.21 423.51 408.78 422.87 408.58 422.07 408.64 421.5 408.79 421.03 409.04 420.57 409.38 420.19 409.78 419.86 410.28 419.45 410.76 418.9 411.09 418.13 411.14 417.65 410.83 417.21 410.45 416.59 410.25 415.36 410.19 414.91 410 414.41 408.99 413.67 408.63 412.18 408.13 411.56 407.37 410.39 405.23 409.89 404.79 408.88 404.6 403.01 402.45 397.39 401.25 394.99 401.41 394.16 401.85 393.44 402.42 392.51 402.91 391.05 403.12 386.19 403.12 380.98 403.92 379.58 403.6 378.33 402.78 372.03 396.88 377.64 393.93 378.98 392.92 382.42 389.52 386.86 383.99 387.65 383.25 390.25 382.04 392.58 380.55 393.51 380.18 394.29 380.13 395.58 380.43 396.32 380.52 397.16 380.43 398.05 379.99 398.83 379.27 399.35 378.1 399.52 377.05 399.51 376.04 398.93 372.55 398.89 371.56 399.04 370.68 399.46 369.77 400.84 367.74 401.27 366.94 401.4 366.46 401.39 365.83 401.17 365.08 399.64 361.92 399.36 361.09 399.29 360.32 399.42 359.5 399.76 358.68 400.26 357.84 401.76 355.89 402.29 354.8 402.63 353.71 402.91 348.61 402.61 344.82 402.88 343.96 403.34 343.33 404.35 342.42 404.52 342.15 404.53 341.84 404.2 340.53 404.15 340.02 404.17 338.76 404.1 338.44 403.91 338.11 403.62 337.85 403.25 337.67 402.26 337.29 402.12 337.2 401.91 337.03 401.7 336.78 401.57 336.49 401.52 336.17 401.56 335.88 401.95 335.62 402.62 335.39 405.71 334.76 406.17 334.56 406.55 334.31 406.79 334.01 406.92 333.59 406.92 333.15 406.59 331.59 406.59 331.22 406.7 330.94 406.92 330.63 408.17 329.42 408.44 329.04 408.64 328.56 408.73 328.12 408.69 327.71 408.56 327.4 408.29 327.03 407.67 326.28 407.35 325.82 407.17 325.32 407.14 324.77 407.27 324.37 407.5 324.1 407.94 323.95 408.33 323.93 408.87 324.05 409.46 324.26 410.35 324.75 410.95 325.21 411.42 325.76 412.29 327.39 412.7 327.73 413.21 327.89 414.18 327.88 414.78 327.79 415.21 327.67 415.44 327.49 415.78 327.15 415.96 327 416.33 326.9 416.8 327 418.75 327.98 419.44 328.11 420.4 327.99 421.01 327.75 423.23 326.61 423.67 326.27 424.89 324.81 425.29 324.44 425.62 324.21 425.94 324.19 426.26 324.36 427.05 325.21 427.39 325.37 427.92 325.22 428.27 324.88 428.55 324.45 428.96 323.64 429.14 323.4 429.4 323.32 429.68 323.5 430.49 324.65 431.03 325.14 431.84 325.54 432.43 325.95 433.04 326.77 433.71 328.07 434.69 329.3 434.92 329.81 435.06 330.4 435.07 331.05 434.96 331.49 434.83 331.85 434.8 332.25 434.95 332.69 436.17 334.82 436.38 335.45 436.92 336.66 438.42 337.24 438.61 337.43 439.63 339.02 440.08 339.34 440.58 339.46 441.2 339.39 442.07 339.16 444 337.84 445.76 334.26 Z" id="CAF-794" data-name="Basse-Kotto"/>
<path d="M 259.26 437.12 259.31 439.13 258.1 446.71 260.14 460.94 257.45 460.91 256.71 460.16 255.74 457.92 253.23 453.89 252.24 452.72 250.71 451.46 249.91 451.5 249.23 452.31 248.12 453.4 247.56 453.64 246.52 453.58 245.83 453.67 245.56 453.93 245.31 454.76 245.07 454.98 244.64 454.97 243.95 454.63 243.59 454.55 238.72 454.98 238.04 454.96 237.49 454.81 237.04 454.95 236.67 455.79 236.24 457.64 236 458.24 235.3 459.29 234.23 460.3 232.95 460.91 231.62 460.73 230.82 459.84 230.04 457.4 228.97 456.35 226.86 455.65 224.73 455.67 222.65 456.23 220.74 457.16 219.98 457.24 219.39 457.02 217.23 455.65 216.91 455.52 216.56 455.78 214.23 456.92 213.07 457.25 212.2 457.08 211.78 456.12 211.49 454.9 210.92 453.78 210.13 452.89 209.2 452.35 208.67 452.3 207.49 452.54 206.93 452.53 206.54 452.31 205.95 451.63 205.54 451.45 205.1 451.47 204.4 451.74 204.07 451.8 199.06 451.81 196.59 451.45 194.37 450.47 192.11 448.58 191.83 448.42 190.98 448.33 190.68 448.09 190.44 447.29 190.17 447.01 188.77 446.8 187.78 447.23 186.85 447.91 186.06 448.32 186.05 448.3 181.34 441.1 180.95 440.79 180.41 440.43 177.25 438.95 174.88 437.46 174.13 437.08 172.16 436.54 170.78 435.84 170.44 435.72 170.1 435.64 168.19 435.47 166.24 434.9 165.94 434.76 162.8 432.64 162.37 432.52 161.7 432.42 159.31 432.29 158.88 432.11 156.69 430.4 156.45 430.11 156.17 429.67 154.48 426.28 150.65 420.6 150.53 420.3 150.39 420.03 146.13 415.02 144.68 414.01 147.45 408.23 149.14 406.19 149.93 405.47 151.46 403.72 152.13 403.09 152.69 402.85 153.26 402.84 153.96 402.96 154.65 403.24 158.31 405.53 158.74 405.96 159.16 406.5 160.09 407.46 160.55 407.75 160.85 407.87 163.76 408.22 164.37 408.1 164.83 407.84 164.99 406.75 163.62 406.31 163.29 406.25 163.13 405.97 162.08 404.77 161.77 404.15 161.21 402.27 160.6 400.95 159.76 399.6 158.66 398.53 157.28 398.1 156.7 397.54 151.8 388.46 151.28 387.37 150.54 385.07 150.35 383.83 150.35 375.91 150.76 375.5 151.18 375.33 152.36 375.05 154.79 373.99 159.43 370.93 160.14 370.57 160.73 370.34 161.17 370.24 161.81 370.01 162.35 369.72 162.81 369.23 163.07 368.6 163.2 368.09 163.01 366.35 168.06 365.64 168.69 365.76 169.53 366.11 169.82 366.71 170.48 367.6 171.29 368.2 174.17 369.74 174.86 370.32 176.19 371.79 177.71 372.96 180.29 375.53 182.84 377.2 187.69 379.46 188.53 379.95 189.13 380.43 191.24 383.2 191.85 384.53 193.82 392.86 194.24 393.75 194.79 394.54 196.52 396.34 197.44 396.87 199.25 397.57 200.03 397.74 200.65 397.72 200.98 397.52 201.25 397.22 201.53 397 202.02 396.85 204.81 396.83 205.59 396.67 206.18 396.41 206.83 396.27 207.46 396.3 210.44 397.54 210.89 397.86 211.14 398.28 211.35 399.16 211.58 399.71 212 400.26 212.4 400.45 213.2 400.44 213.86 400.55 215.19 401.08 215.83 401.13 216.33 400.96 216.65 400.57 216.99 400.23 217.32 400 217.67 399.85 217.98 399.77 218.8 399.74 220.15 400.01 221.72 400.5 222.22 400.6 222.86 400.65 223.63 400.8 224.36 401.08 225 401.74 225.77 401.95 226.66 401.83 227.69 401.48 228.63 401.27 229.9 401.57 230.86 402.3 231.66 403.33 233.45 406.94 234.37 407.95 235.21 408.49 235.93 408.76 237.74 409.01 239.06 409.32 239.85 409.8 240.49 410.52 242.77 415.28 242.82 415.8 242.64 416.98 242.67 417.81 243.02 419.7 243.08 420.51 242.95 421.26 242.49 422.86 242.76 423.68 243.41 424.75 245.97 427.59 246.51 428.5 246.68 428.92 246.95 429.3 247.58 429.98 248.52 430.51 249.43 430.89 250.01 431.29 250.47 431.88 250.85 432.6 251.83 433.86 252.35 434.38 252.92 434.72 254.5 435.01 259.19 437.09 259.24 437.11 259.26 437.12 Z" id="CAF-795" data-name="Lobaye"/>
<path d="M 163.01 366.35 163.2 368.09 163.07 368.6 162.81 369.23 162.35 369.72 161.81 370.01 161.17 370.24 160.73 370.34 160.14 370.57 159.43 370.93 154.79 373.99 152.36 375.05 151.18 375.33 150.76 375.5 150.35 375.91 150.35 383.83 150.54 385.07 151.28 387.37 151.8 388.46 156.7 397.54 157.28 398.1 158.66 398.53 159.76 399.6 160.6 400.95 161.21 402.27 161.77 404.15 162.08 404.77 163.13 405.97 163.29 406.25 163.62 406.31 164.99 406.75 164.83 407.84 164.37 408.1 163.76 408.22 160.85 407.87 160.55 407.75 160.09 407.46 159.16 406.5 158.74 405.96 158.31 405.53 154.65 403.24 153.96 402.96 153.26 402.84 152.69 402.85 152.13 403.09 151.46 403.72 149.93 405.47 149.14 406.19 147.45 408.23 144.68 414.01 144.15 413.8 142.4 413.51 141.06 413.15 140.54 413.44 139.8 414.17 137.39 417.97 136.7 419.33 136.34 420.28 136.16 421.21 136.04 423.1 136.24 425.71 136.2 426.46 136.04 427.27 135.83 427.99 135.37 428.99 133 431.99 130.65 434.29 129.28 435.31 128.92 435.64 128.63 436.04 128.04 438.12 127.78 438.63 127.47 439.02 127.05 439.26 126.61 439.31 125.99 439 123.82 436.61 123.13 436.08 122.41 435.73 121.6 435.61 119.32 435.71 118.52 435.61 117.91 435.37 117.5 434.99 117.09 434.54 116.45 434.07 113.85 432.75 112.45 432.24 107.21 430.93 106.68 430.7 106.16 430.39 105.72 430.01 105.3 429.71 104.8 429.52 103.94 429.47 102.69 429.52 92.7 430.85 90.25 431.56 83.18 434.64 76.29 438.76 75.28 439.61 73.83 443.19 73.5 443.66 72.84 444.09 71.94 444.42 70.23 444.75 69.41 444.74 68.92 444.49 68.5 443.06 68.31 442.79 68.02 442.57 67.6 442.37 67.07 442.27 66.49 442.26 65.65 442.52 64.41 443.16 54.79 449.32 54.49 449.59 53.9 448.96 48.93 443.7 43.65 435.94 40.05 427.37 41.09 427.37 43.05 427.87 44.06 428 45.26 427.75 47.65 426.61 49 426.29 50.2 425.77 50.06 425.11 49.32 424.6 48.39 424.44 47.53 424.44 47.17 424.05 46.97 423.18 46.58 422.33 45.66 421.98 44.73 422.09 44.03 421.52 43.62 419.88 43.53 416.4 42.91 412.71 42.36 411.03 41.42 409.3 39.31 406.7 38.91 405.87 38.49 404.32 38.09 403.7 37.36 403.26 34.69 402.32 24.99 395.65 22.79 393.51 21.17 390.94 20.38 388.05 19.95 383.41 19.55 382.37 19.62 381.97 19.88 381.3 20.16 379.8 20.21 379.18 19.32 373.4 18.99 372.67 18.64 372.07 18.41 371.45 18.56 369.82 18.27 369.23 17.88 368.71 17.64 368.02 17.68 367.13 18.54 367.1 23.49 367.3 28.93 368.23 30.26 368.22 31.48 368.06 33.64 367.42 34.32 367.32 35.08 367.44 35.83 367.76 35.93 367.84 38.13 370.38 38.86 371.07 39.19 371.27 39.59 371.35 40.15 371.2 41.12 370.55 43.73 368.43 45.44 368 46.92 367.83 56.91 367.67 57.85 367.35 58.23 367.1 58.64 366.96 59.35 367.02 60.76 367.76 61.03 367.85 61.52 367.95 63.27 367.83 63.62 367.73 64.16 367.5 67.91 364.94 68.58 364.67 68.91 364.61 69.26 364.77 70.03 365.23 72.45 366.4 72.57 366.42 73.8 366.34 74.25 366.38 74.62 366.46 75.23 366.69 75.69 366.75 80.37 366.71 80.75 366.6 80.01 359.8 79.84 359.16 79.56 358.67 79.34 358.35 79.17 357.97 79.32 357.55 79.56 357.14 81.29 355.01 81.49 354.47 81.52 354.06 81.49 353.75 81.84 353.58 82.53 353.44 84.4 353.48 85.12 353.56 85.49 353.82 85.35 354.99 85.39 355.48 85.55 356.01 86.27 357.39 86.51 357.98 86.56 358.38 86.54 358.81 86.44 359.14 86.38 359.57 86.37 359.9 86.43 360.43 86.58 360.89 87.75 362.82 88.41 363.13 89.42 363.19 92.88 361.97 94.63 361.07 95.23 360.88 95.85 361.02 96.24 361.36 96.98 362.36 97.56 362.97 98.46 363.5 99.63 363.65 101.22 363.44 103.19 362.83 131.73 351.03 140.73 345.62 142.86 344.64 144.23 344.38 145.72 345.42 146.85 346 148.5 346.25 150.87 346.06 153.29 345.46 154.74 345.25 155.75 345.3 156.53 345.69 162.74 350.25 164 351.65 167.96 357.74 167.96 358.33 167.67 358.83 167.16 359.2 164.95 359.89 164.11 360.27 163.47 360.69 162.59 361.47 162.24 361.71 161.83 361.84 160.94 361.96 160.74 362 160.59 362.09 160.49 362.2 160.41 362.34 160.41 362.55 160.49 362.76 163.01 366.35 Z" id="CAF-801" data-name="Mambéré-Kadéï"/>
<path d="M 144.68 414.01 146.13 415.02 150.39 420.03 150.53 420.3 150.65 420.6 154.48 426.28 156.17 429.67 156.45 430.11 156.69 430.4 158.88 432.11 159.31 432.29 161.7 432.42 162.37 432.52 162.8 432.64 165.94 434.76 166.24 434.9 168.19 435.47 170.1 435.64 170.44 435.72 170.78 435.84 172.16 436.54 174.13 437.08 174.88 437.46 177.25 438.95 180.41 440.43 180.95 440.79 181.34 441.1 186.05 448.3 186.06 448.32 183.69 449.54 182.47 451.07 181.16 452.28 178.94 452.44 177.36 451.92 176.58 451.83 175.69 452.16 174.85 452.86 174.35 453.51 173.8 454.07 172.77 454.53 171.9 454.66 169.44 454.59 168.6 454.82 166.96 455.46 166.12 455.59 164.47 455.49 163.92 455.62 162.91 456.1 162.48 456.38 161.79 456.97 161.28 457.2 160.91 457.22 160.09 457.12 159.61 457.21 158.8 457.48 158.31 457.18 157.86 456.66 157.19 456.28 156.59 456.23 154.89 456.43 154.33 456.33 153.21 455.91 152.64 455.77 151.74 455.86 151.66 456.36 151.83 457 151.71 457.52 150.51 458.13 149.22 458.2 144.19 456.95 142.95 456.86 141.54 456.95 138.68 457.78 136.17 459.43 134.29 461.71 133.31 464.43 132.77 469.55 131.24 473.39 131.2 474.89 130.85 476.2 128.75 479.13 128.04 480.53 128 482.04 128.48 483.33 129.12 484.58 129.59 485.95 129.19 488.14 126.82 492.68 126.99 495.38 127.74 496.54 128.62 497.53 129.16 498.63 128.88 500.1 127.13 503.81 125.72 506.81 124.88 508.61 122.27 514.12 119.49 520.02 117.53 524.2 114.75 530.1 111.61 536.77 111.38 536.58 110.57 536.13 110.67 535.54 111.02 534.76 110.99 534.25 110.77 534.04 109.92 533.5 109.73 533.2 109.66 531.98 109.54 531.43 109.32 530.87 108.9 530.24 107.74 528.92 106.98 527.41 106.49 526.13 106.4 525.64 106.4 523.36 106.13 522.24 105.35 520.81 105.11 520.02 105.17 518.66 106.12 516.56 106.4 515.39 106.22 514.14 105.28 512.01 105.11 510.76 105.32 510.08 105.78 509.18 106.34 508.35 105.65 508.19 104.86 508.13 104.04 508.26 103.42 508.24 103.21 507.71 103.26 506.86 103.02 504.78 103.25 503.17 104.9 501.52 105.41 500.07 105.23 498.45 104.63 497.08 103.88 495.8 102.97 493.78 101.68 491.89 101.19 491.38 100.55 491.1 99.96 491.08 99.31 491.23 98.49 491.52 98.23 491.26 98.01 490.97 97.85 490.63 97.03 487.56 96.53 486.37 95.52 485.1 94.33 484.11 93.34 483.77 90.71 484.04 90.48 483.96 89.82 483.53 89.45 483.46 89.14 483.58 88.44 483.97 88.19 484.04 87.42 483.93 86.94 483.78 86.48 483.49 81.9 478.64 76.17 472.56 70.12 466.16 63.76 459.41 58.61 453.97 54.49 449.59 54.79 449.32 64.41 443.16 65.65 442.52 66.49 442.26 67.07 442.27 67.6 442.37 68.02 442.57 68.31 442.79 68.5 443.06 68.92 444.49 69.41 444.74 70.23 444.75 71.94 444.42 72.84 444.09 73.5 443.66 73.83 443.19 75.28 439.61 76.29 438.76 83.18 434.64 90.25 431.56 92.7 430.85 102.69 429.52 103.94 429.47 104.8 429.52 105.3 429.71 105.72 430.01 106.16 430.39 106.68 430.7 107.21 430.93 112.45 432.24 113.85 432.75 116.45 434.07 117.09 434.54 117.5 434.99 117.91 435.37 118.52 435.61 119.32 435.71 121.6 435.61 122.41 435.73 123.13 436.08 123.82 436.61 125.99 439 126.61 439.31 127.05 439.26 127.47 439.02 127.78 438.63 128.04 438.12 128.63 436.04 128.92 435.64 129.28 435.31 130.65 434.29 133 431.99 135.37 428.99 135.83 427.99 136.04 427.27 136.2 426.46 136.24 425.71 136.04 423.1 136.16 421.21 136.34 420.28 136.7 419.33 137.39 417.97 139.8 414.17 140.54 413.44 141.06 413.15 142.4 413.51 144.15 413.8 144.68 414.01 Z" id="CAF-802" data-name="Sangha-Mbaéré"/>
<path d="M 131.07 333.1 131.2 336.1 129.98 342.63 129.94 344.14 130.13 345.22 130.86 347.06 131.73 351.03 103.19 362.83 101.22 363.44 99.63 363.65 98.46 363.5 97.56 362.97 96.98 362.36 96.24 361.36 95.85 361.02 95.23 360.88 94.63 361.07 92.88 361.97 89.42 363.19 88.41 363.13 87.75 362.82 86.58 360.89 86.43 360.43 86.37 359.9 86.38 359.57 86.44 359.14 86.54 358.81 86.56 358.38 86.51 357.98 86.27 357.39 85.55 356.01 85.39 355.48 85.35 354.99 85.49 353.82 85.12 353.56 84.4 353.48 82.53 353.44 81.84 353.58 81.49 353.75 81.52 354.06 81.49 354.47 81.29 355.01 79.56 357.14 79.32 357.55 79.17 357.97 79.34 358.35 79.56 358.67 79.84 359.16 80.01 359.8 80.75 366.6 80.37 366.71 75.69 366.75 75.23 366.69 74.62 366.46 74.25 366.38 73.8 366.34 72.57 366.42 72.45 366.4 70.03 365.23 69.26 364.77 68.91 364.61 68.58 364.67 67.91 364.94 64.16 367.5 63.62 367.73 63.27 367.83 61.52 367.95 61.03 367.85 60.76 367.76 59.35 367.02 58.64 366.96 58.23 367.1 57.85 367.35 56.91 367.67 46.92 367.83 45.44 368 43.73 368.43 41.12 370.55 40.15 371.2 39.59 371.35 39.19 371.27 38.86 371.07 38.13 370.38 35.93 367.84 35.83 367.76 35.08 367.44 34.32 367.32 33.64 367.42 31.48 368.06 30.26 368.22 28.93 368.23 23.49 367.3 18.54 367.1 17.68 367.13 17.69 366.87 18.13 364.61 17.86 362.24 17.87 359.16 17.6 357.78 17.16 356.37 16.48 355.1 15.5 354.14 14.22 353.51 11.59 352.64 10.32 351.83 9.35 350.74 9.11 350.07 9.61 349.92 10.31 349.28 10.85 348.24 11.19 347.16 11.31 346.36 11.61 346.1 12.22 345.16 12.74 344.14 12.76 343.66 13.57 343.38 13.84 342.68 13.78 340.93 13.98 339.92 14.87 338.19 15.07 337.56 15.16 335.71 15.06 334.95 14.65 333.99 13.79 332.55 13.48 331.71 13.4 330.65 13.57 329.7 14.65 326.93 15.49 323.6 15.9 322.72 15.47 321.48 15.07 314.96 14.19 313.83 13.88 312.6 13.07 311.39 12.32 311.34 10.67 312.35 9.76 312.45 7.84 312.23 6.8 312.23 5.8 311.55 5.33 310.59 5.07 309.52 4.65 308.54 3.75 307.59 2.85 306.87 2.15 306.03 1.64 305.53 1.13 304.8 1 304.32 1.18 303.9 1.64 303.41 1.93 303.35 2.57 303.83 2.89 303.82 3.15 303.56 3.37 303.04 3.56 302.78 3.83 302.19 3.78 301.87 3.72 301.53 3.65 301.32 4.46 300.58 5.88 299.21 6.8 298.94 8.56 297.21 9.48 296.06 10.03 295.08 12.56 295.1 21.28 290.94 22.25 290.17 24.53 287.24 25.15 286.12 25.29 285.44 25.27 284.78 25.01 283.34 25.14 282.64 26.68 280.55 33.68 264.74 34.68 264.74 36.05 264.89 37.78 264.84 38.43 264.71 38.99 264.54 43.37 262.35 49.18 260.53 49.62 260.57 49.89 260.88 50.07 261.61 50.07 262.28 49.9 263.79 50 264.23 50.59 264.9 54.13 267.86 55.76 269.75 56.84 271.33 57.27 272.43 57.55 273.38 58.04 276.24 58.09 277.77 58.19 278.46 58.26 278.97 58.54 279.9 58.61 280.59 58.73 280.9 59 281.24 59.63 281.8 59.85 282.15 59.83 282.54 59.78 282.94 59.86 283.32 61.44 285.61 62.99 287.3 64.38 288.25 65.4 287.95 66.44 287.16 67.83 286.66 69.65 287.37 70.3 287.53 71.52 287.67 72.23 286.87 73.24 286.11 77.01 284.15 81.38 283.03 82.09 282.66 83.28 281.85 83.63 281.64 83.86 281.45 84.04 281.2 84.34 281.07 84.86 281.23 85.81 282.01 86.46 283.18 86.37 284.2 85.64 285.25 82.37 288.37 81.85 289.1 81.58 289.69 81.86 290.52 82.67 291.7 84.7 294.04 85.87 295.74 86.68 297.34 86.88 298.69 87.12 304.15 87.34 305.28 88.1 306.72 88.23 307.22 88.11 309.7 88.33 310.59 88.86 311.32 91.42 313.54 92.17 313.95 93.52 314.45 94.96 315.14 96.64 316.32 98.56 318.33 99.23 318.82 99.66 318.98 101.09 318.99 102.06 319.12 103.48 319.44 104.7 319.38 106 319.06 107.18 318.46 108.26 317.75 109.15 316.97 109.8 316.08 111.07 313.02 111.52 312.44 112.19 312.17 113.07 312.16 114.04 312.45 114.83 313.07 115.31 314.3 115.46 315.32 115.94 316.45 116.94 317.78 118.88 319.9 123.31 322.93 126.28 325.57 127.16 326.69 128.6 329.53 129.87 331.19 131.07 333.1 Z" id="CAF-804" data-name="Nana-Mambéré"/>
<path d="M 149.41 211.98 149.57 212.17 149.86 213.57 149.83 213.93 149.37 216.01 149.35 216.57 149.44 216.99 150.13 217.88 150.4 218.57 150.45 219.04 150.42 219.46 150.31 219.77 150.16 220.06 149.97 220.28 149.73 220.46 148.9 220.87 148.61 221.09 148.39 221.45 148.16 222.06 148.13 222.74 147.94 223.22 147.61 223.82 147.46 224.36 147.34 225.12 147.07 229.51 146.94 230.09 145.9 232.84 145.73 233.62 145.71 234.19 146.2 235.35 146.41 236.08 146.63 237.4 146.59 238.01 146.48 238.61 146.08 239.9 145.87 240.25 145.66 240.46 144.93 240.98 144.73 241.24 144.54 241.56 144.24 242.37 144.07 242.66 143.84 242.83 143.53 242.89 143.17 242.92 142.8 243.01 142.41 243.22 142.25 243.53 142.22 243.96 142.36 244.99 142.24 245.31 142 245.49 141.73 245.54 141.56 245.61 141.4 245.75 141.15 246.11 141.11 246.43 141.19 246.84 141.35 247.31 141.48 248.16 141.6 248.65 141.78 249 142.02 249.2 142.26 249.37 142.54 249.52 142.8 249.82 143 250.25 143.23 251.66 143.37 252.05 143.73 252.54 143.86 252.82 143.91 253.18 143.84 257.48 144.03 259.09 144.25 259.93 145.15 262.13 145.64 264.4 145.76 266.58 146.01 268.37 146.27 269.15 146.58 269.38 146.9 269.38 147.23 269.66 147.51 270.19 147.94 272.1 148.09 272.58 148.28 272.8 148.52 273 148.83 273.11 149.93 273.32 150.22 273.46 150.43 273.66 150.6 273.91 150.89 274.55 151.44 276.2 151.53 276.36 151.68 276.56 151.87 276.76 152.11 276.95 152.39 277.08 153.04 277.18 153.32 277.3 153.52 277.51 153.86 278 154.06 278.22 154.3 278.41 154.56 278.58 155.15 278.84 155.45 278.93 155.75 278.97 156.03 278.88 156.59 278.64 156.91 278.6 157.52 278.62 157.72 278.5 157.86 278.31 157.92 277.68 158 277.38 158.19 277.17 158.45 277.05 158.76 277.07 159.05 277.17 159.32 277.28 159.63 277.29 160.23 277.14 160.54 277.13 160.74 277.16 160.98 277.24 161.23 277.37 161.54 277.48 161.86 277.51 162.18 277.46 162.45 277.33 162.94 276.99 163.22 276.89 163.51 276.93 163.77 277.06 164 277.25 164.26 277.41 164.49 277.61 164.87 278.03 165.12 278.17 165.33 278.25 165.79 278.36 166.15 278.53 166.48 278.77 166.78 279.2 166.84 279.62 166.7 281.55 166.61 281.91 166.48 282.2 166.3 282.43 166.07 282.55 165.8 282.51 165.59 282.35 165.33 282.23 165.05 282.25 164.77 282.35 164.27 282.68 163.84 283.1 163.43 283.95 163.23 284.1 162.97 284.11 162.71 284.04 162.41 284.05 162.17 284.24 161.99 284.57 161.92 285.19 162.03 285.64 162.27 286.17 162.27 286.51 162.12 286.79 161.9 287.06 161.62 287.83 161.4 288.01 161.16 288.02 160.88 287.98 160.69 287.97 160.48 288.01 160.09 288.32 159.9 288.4 159.7 288.29 159.48 288.13 159.23 287.98 158.92 287.91 158.62 287.96 158.36 288.1 158.15 288.32 157.98 288.56 157.71 289.14 157.51 289.78 157.39 290.48 157.36 291.6 157.2 292.48 157.04 294.68 157.17 296.64 157.27 297.12 157.42 297.49 157.81 298.15 157.83 298.45 157.72 298.71 157.08 299.33 156.84 299.49 156.56 299.57 156.25 299.54 155.96 299.42 155.67 299.41 155.36 299.57 155.09 300.19 155.03 300.64 155.07 301.12 155.5 303.05 155.89 303.69 156.13 304.25 156.14 304.74 156.06 305.38 156.05 305.81 156.6 309.33 156.76 309.95 156.96 310.37 157.15 310.6 157.36 310.81 157.72 311.28 157.88 311.54 158.08 311.97 158.29 312.54 158.52 313.75 158.89 314.8 159.43 315.33 157.95 315.96 157.38 316.51 156.85 316.86 156.3 317.13 152.91 317.58 145.38 320.19 142.87 322.08 141.81 323.52 140.73 325.5 139.82 326.58 136.32 329.94 133.24 332.21 131.07 333.1 129.87 331.19 128.6 329.53 127.16 326.69 126.28 325.57 123.31 322.93 118.88 319.9 116.94 317.78 115.94 316.45 115.46 315.32 115.31 314.3 114.83 313.07 114.04 312.45 113.07 312.16 112.19 312.17 111.52 312.44 111.07 313.02 109.8 316.08 109.15 316.97 108.26 317.75 107.18 318.46 106 319.06 104.7 319.38 103.48 319.44 102.06 319.12 101.09 318.99 99.66 318.98 99.23 318.82 98.56 318.33 96.64 316.32 94.96 315.14 93.52 314.45 92.17 313.95 91.42 313.54 88.86 311.32 88.33 310.59 88.11 309.7 88.23 307.22 88.1 306.72 87.34 305.28 87.12 304.15 86.88 298.69 86.68 297.34 85.87 295.74 84.7 294.04 82.67 291.7 81.86 290.52 81.58 289.69 81.85 289.1 82.37 288.37 85.64 285.25 86.37 284.2 86.46 283.18 85.81 282.01 84.86 281.23 84.34 281.07 84.04 281.2 83.86 281.45 83.63 281.64 83.28 281.85 82.09 282.66 81.38 283.03 77.01 284.15 73.24 286.11 72.23 286.87 71.52 287.67 70.3 287.53 69.65 287.37 67.83 286.66 66.44 287.16 65.4 287.95 64.38 288.25 62.99 287.3 61.44 285.61 59.86 283.32 59.78 282.94 59.83 282.54 59.85 282.15 59.63 281.8 59 281.24 58.73 280.9 58.61 280.59 58.54 279.9 58.26 278.97 58.19 278.46 58.09 277.77 58.04 276.24 57.55 273.38 57.27 272.43 56.84 271.33 55.76 269.75 54.13 267.86 50.59 264.9 50 264.23 49.9 263.79 50.07 262.28 50.07 261.61 49.89 260.88 49.62 260.57 49.18 260.53 43.37 262.35 38.99 264.54 38.43 264.71 37.78 264.84 36.05 264.89 34.68 264.74 33.68 264.74 34.33 263.28 35.16 262.34 36.15 261.67 39.82 259.84 40.57 259.22 41.04 258.36 42.07 255.58 43.36 253.03 45.38 247.73 46.34 243.95 46.78 242.8 47.44 241.79 48 241.43 49.4 240.78 49.92 240.16 50.08 239.53 49.79 235.98 49.86 235.4 50.15 234.73 50.99 233.33 52.14 230.44 53.53 229.27 54.43 228.5 59.13 225.88 62.01 223.67 62.25 223.31 62.75 222.3 63.11 221.95 63.5 221.87 64.65 221.81 64.91 221.75 65.05 220.94 63.86 219.85 64.1 218.89 67.39 214.45 67.86 213.59 69.97 214.26 72.2 214.4 76.65 213.8 79.32 214.01 82.47 216.92 84.81 217.72 86.99 217.58 95.02 215.73 96.11 215.29 98.1 214.08 99 213.21 100.34 211.32 101.2 210.43 102.21 209.88 103.57 209.43 107.46 208.93 109.53 208.22 110.93 208.24 112.25 208.07 113.48 207.33 115.6 205.72 116.87 205.22 122.26 204.46 123 203.96 123.25 203.11 123.25 198.95 123.56 197.67 124.49 196.91 125.15 196.92 125.71 197.19 126.32 197.38 127.15 197.15 127.54 196.69 128.28 195.09 128.67 194.48 129.65 193.66 130.72 193.11 133.13 192.39 133.22 192.9 133.26 193.45 133.22 194.01 132.89 195.87 133.17 196.99 133.83 197.91 134.82 198.64 135.46 198.9 136.05 199.04 136.58 199.28 137.06 199.83 137.37 200.68 137.25 201.32 136.99 201.93 136.87 202.68 137.13 204.03 137.77 204.7 140.13 205.38 141.58 206.1 142.98 207.2 145.23 209.72 146.57 211.94 147.41 212.49 148.83 212.34 149.28 212.09 149.41 211.98 Z" id="CAF-805" data-name="Ouham-Pendé"/>
<path d="M 490.29 148.27 489.14 149.52 488.62 149.67 487.73 149.78 475.79 148.59 474.69 148.28 472.34 147.03 470.98 146.68 469.61 146.76 468.32 146.97 466.67 147.46 466.21 147.75 465.66 148.27 464.89 149.19 464.37 150.14 463.98 151.24 463.82 152.35 463.87 153.87 463.98 154.34 464.24 155.03 466.15 158.45 466.33 159.12 466.42 159.75 466.36 160.56 466.22 161.1 464.15 165.78 463.95 166.62 463.96 167.31 464.2 167.97 464.62 168.47 465.45 169.21 465.73 169.64 465.75 170.2 465.21 170.93 463.95 171.48 462.14 171.97 460.45 172.27 459.06 172.27 458.08 171.91 457.48 171.25 457.06 170.35 456.71 169.35 456.25 168.52 455.69 167.93 454.22 166.95 453.55 166.39 453.07 165.81 452.81 165.29 452.51 164.49 452.21 164.19 451.69 164.12 450.56 164.31 446.46 166.49 445.39 166.89 443.6 167.17 443.15 167.37 442.81 167.79 442.18 169.23 441.75 169.82 441.23 169.92 440.54 169.73 438.98 169.08 438.28 168.87 437.4 168.79 436.4 168.93 435.21 169.27 434.43 170.52 433.77 171.31 432.65 172.16 430.35 173.56 429.24 174.46 428.7 175.52 429.01 176.82 430.82 181.17 430.88 183.35 428.17 184.15 418.4 184.72 414.61 185.34 413.34 187 413.07 188.35 413.15 189.47 413.05 190.32 412.82 191 411.73 192.91 411.59 193.66 411.66 194.33 412.78 197.03 413.24 202.57 412.05 203.65 411.78 204.19 411.44 205.08 411 206.99 410.73 207.53 410.28 207.99 409.73 208.44 408.99 209.21 408.69 209.98 408.66 210.87 408.83 211.39 409.76 213.02 409.94 213.53 409.99 214.13 409.84 214.59 409.63 214.89 409.45 215.07 407.17 216.84 406.45 217.54 402.24 223.56 401.27 224.62 398.74 227.91 398.35 228.23 397.68 229 393.34 230.96 392.86 231.26 392.67 231.4 392.39 231.42 391.64 231.34 390.97 231.17 389.55 230.62 388.96 230.5 386.81 230.48 386.09 230.84 385.38 231.75 383.7 236.16 383.46 237.14 382.83 237.96 379.07 241.01 377.65 241.6 376.34 241.22 376 241.25 375.41 241.59 373.89 242.74 372.4 243.93 371.31 244.31 370.9 244.35 370.45 244.23 370.3 243.97 370.18 243.68 369.86 243.52 367.85 243.63 367.54 243.73 366.85 243.38 366.25 243.64 365.77 244.1 365.45 244.35 364.59 244.1 363.21 243.27 362.72 243.52 361.74 243.43 360.2 243.56 358.79 243.51 358.17 242.87 357.75 242.1 356.72 241.69 355.48 241.41 354.38 241.01 354.1 240.7 354.03 240.3 354.01 239.94 353.92 239.72 353.62 239.63 353.12 239.53 352.71 239.53 352.71 239.72 351.6 238.26 351.23 238.05 349.99 237.77 348.76 237.08 346.82 235.51 346.28 234.95 345.59 233.98 345.12 233.46 344.43 232.99 343.05 232.39 341.66 231.52 340.11 231.13 339.27 230.5 338.28 228.58 337.1 223.97 335.93 222.57 335.66 222.58 335.42 222.8 335.06 223.41 334.34 222.88 332.91 221.39 332.56 220.87 332.28 220.27 332.21 219.93 332.18 219.42 332.03 218.8 331.67 218.8 331.2 219.06 330.72 219.23 329.64 218.21 329.31 214.42 328 214.57 327.65 213.96 327.79 212.7 327.55 212.1 326.87 212.09 326.05 211.66 325.37 211.41 325.08 211.91 324.67 211.97 322.72 211.32 322.08 211.27 321.29 210.39 320.53 210.74 319.58 210.46 319.16 210.85 318.24 209.78 318.59 208.45 319.33 207.06 319.58 205.8 319.24 205.39 318.67 205.29 318.09 205.29 317.7 205.2 317.58 204.63 318.04 203.97 319.16 202.84 317.49 203.17 316.81 203.11 316.21 202.46 315.56 202.33 314.34 200.74 313.51 200.34 312.96 200.51 312.48 200.87 311.93 201.17 311.2 201.17 310.87 200.89 309.57 199.09 309.45 200.49 308.61 200.26 306.61 198.25 305.9 199.44 305.77 199.92 304.8 199.35 302.62 196.39 302.58 195.84 304.14 194.67 304.48 194.08 303.99 193.74 303.05 192.72 302.57 191.65 304.47 190.7 304.37 189.65 303.77 188.53 303.27 187.82 304.14 187.26 304.48 186.62 304.48 185.07 304.12 184.33 303.96 183.76 304.06 183.15 304.53 182.66 305.76 182.09 306.19 181.48 304.98 181.28 304.65 180.56 304.93 178.94 304.74 177 304.93 176.47 304.11 175.97 303.95 175.43 303.97 174.78 303.68 173.97 300.48 171.25 299.21 169.92 298.28 168.61 298.22 167.67 297.34 167.44 297.48 167.08 297.98 166.6 298.22 166.04 297.97 165.68 297.18 165.39 297.01 164.94 297 164.48 296.94 164.15 296.82 163.84 296.59 163.46 295.62 162.33 293.32 160.6 292.38 159.7 289.46 154.69 289.11 153.24 288.92 151.6 288.47 150.14 286.91 148.81 286.9 147.83 287.54 146.13 287.4 145.82 287.97 145.49 288.57 144.53 290.57 143.17 289.33 141.77 287.47 140.4 286.51 139.84 285.96 138.86 278.65 135.75 277.92 135.22 277.63 134.41 277.46 133.38 277.05 132.8 276.04 133.35 275.02 132.52 275.01 131.62 276.42 129.55 276.95 129.79 277.51 129.78 277.95 129.5 278.13 128.94 278.27 128.31 278.61 128.1 279.09 128 280.05 127.47 281.26 127.09 281.51 126.86 281.67 126.4 282.05 125.98 282.95 125.17 284.32 124.22 286.69 123.06 289.13 122.38 290.73 122.87 291.15 122.87 291.67 122.78 293.3 123.18 293.65 123.08 293.96 122.38 294.72 122.08 297.21 121.95 298.47 121.6 299.07 121.58 299.8 121.97 300.45 122.53 301.04 122.73 301.61 122.04 302.31 122.51 303.35 122.91 304.51 123.19 305.56 123.29 306.37 123.12 308.71 122.25 309.27 122.53 313.95 122.46 314.27 122.56 314.51 122.73 314.85 122.77 315.43 122.46 316.83 122.5 318.63 121.76 320.49 121.38 322.11 122.46 323.11 122.01 325.77 122.05 326.32 121.81 326.62 121.53 328.1 120.9 328.63 120.79 329.34 120.75 330.95 120.33 332.22 120.19 337.35 120.48 338.13 120.15 338.88 119.08 339.75 119.49 339.96 119.44 340.65 119.28 342.22 118.25 342.67 118.17 343.22 118.23 343.68 118.14 343.89 117.64 343.94 117.28 344.08 116.94 344.29 116.68 344.53 116.57 344.99 116.81 345.21 117.75 345.6 117.82 345.96 117.57 345.94 117.26 345.84 116.92 346.01 116.57 347.81 115.1 348.31 114.87 348.81 114.95 349.65 115.3 350.18 115.32 350.25 115.11 350.2 114.68 350.29 114.26 350.81 114.07 351.27 114.4 351.8 115.13 352.52 115.86 353.56 116.19 354.47 115.92 356.21 114.72 357.11 114.45 357.74 114.63 358.44 115.09 359.82 116.19 361.03 115.93 366.08 116.19 367.24 115.97 367.61 115.76 368.74 114.94 369.32 114.63 369.97 114.56 370.71 114.87 371.95 113.57 372.7 112.05 373.56 110.8 375.11 110.27 375.47 109.63 374.84 108.19 374.44 106.75 375.54 106.1 376.29 105.97 376.73 105.61 376.95 105.02 377.01 104.24 377.23 103.65 377.79 103.73 379.1 104.47 379.17 104.41 380.31 104.48 380.35 104.47 381.38 104.8 381.81 104.85 384.94 104.85 384.14 102.35 386.65 101.09 389.4 100.26 389.99 99.8 390.44 100.26 390.97 99.68 391.24 98.98 391.58 98.38 392.3 98.13 392.55 98 392.91 97.43 393.13 97.3 393.42 97.43 393.82 97.69 393.86 97.71 394.05 97.9 395.69 99.6 396.98 99.99 398.02 100.12 398.55 100.05 398.92 99.9 399.12 99.67 399.76 98.58 400.19 98.17 400.38 97.93 400.71 97.4 400.89 97.16 401.11 96.95 401.45 96.71 403.03 96.16 404.02 96.06 404.58 95.89 404.92 95.74 405.64 95.16 405.83 94.94 406.01 94.69 406.15 94.4 406.47 93.41 406.59 93.13 406.83 92.78 407.18 92.39 408.59 91.29 410.69 90.03 411.7 89.61 412.66 89.34 413.43 89.24 414.93 88.84 415.69 88.73 416.94 88.7 417.89 88.55 420.71 87.67 421.26 87.36 421.45 87.12 422.15 86.56 422.57 86.13 423.05 85.77 423.26 85.57 423.43 85.3 423.68 84.67 423.88 84 424.13 83.63 424.52 83.23 425.79 82.31 427.02 81.04 428.36 80.12 429.14 79.7 430.01 79.39 430.43 79.19 430.84 78.94 431.3 78.6 431.6 78.33 431.82 78.04 431.99 77.77 432.27 77.1 432.48 76.73 432.82 76.26 433.15 76.06 433.47 76.03 434.97 76.36 435.49 76.57 435.82 77.04 436.14 77.78 436.29 78.28 436.33 78.76 436.13 79.95 436.16 80.64 436.3 81.47 436.86 83.6 436.96 84.3 436.99 85.48 437.05 86.03 437.23 86.49 437.54 86.85 438.12 87.11 439.01 87.17 440.55 87.03 442.15 87.05 442.96 87.31 443.52 87.93 443.95 88.66 444.57 89.48 448.15 92.72 448.4 93.12 448.69 94.33 448.94 95.04 449.4 95.77 450.02 96.42 452.25 98.21 452.69 98.9 453.04 100.02 453.65 104.04 453.84 104.78 454.23 105.41 454.72 105.92 455.25 106.59 455.7 107.45 456.98 111.32 457.31 112 457.85 112.48 459.49 113.28 460.21 113.74 460.82 114.32 462.33 116.32 463.21 117.02 465.43 118.34 466.12 118.88 466.42 119.29 466.75 119.94 466.96 120.8 467.47 121.79 468.24 122.76 471.09 124.64 471.68 125.23 471.74 125.82 471.62 127.5 473.33 135.39 473.92 136.85 474.74 137.99 479.34 141.31 480.29 141.72 483.74 142.67 488.32 143.28 489.32 143.68 489.97 144.15 490.31 144.67 490.41 145.37 490.47 146.11 490.29 148.27 Z" id="CAF-806" data-name="Bamingui-Bangoran"/>
<path d="M 353.62 239.63 353.19 241.93 353.2 245.24 352.73 247.25 351.05 251.65 350.34 252.91 349.56 253.91 347.89 255.3 347.12 256.26 346.56 257.47 346.04 258.25 345.45 258.8 344.78 259.3 341.89 262.2 339.97 263.71 339.29 264.43 336.24 268.43 335.75 269.65 335.57 271.16 336.66 277.99 336.69 278.75 336.57 279.15 336.43 279.3 336.09 279.33 335.55 279.14 333.92 278.09 332.78 277.58 330.29 277.3 328.4 277.59 315.61 276.01 311.61 276.25 301.64 278.78 297.51 279.25 294.96 279.89 293.75 279.98 292.24 279.78 289.96 279.02 288.5 278.25 287.44 277.42 286.53 276.08 285.83 274.67 285.28 273.89 283.82 273.48 281.53 273.5 267.82 275.27 268.8 271.92 269.31 271.09 270.16 270.06 271.22 269.35 274.33 267.77 274.87 267.34 275.12 266.85 275.16 266.23 274.89 265.32 274.56 264.82 274.14 264.48 271.31 263.39 270.05 262.64 268.86 261.77 267.83 260.83 267.36 259.97 267.28 259.05 267.6 258.05 268.02 257.13 267.84 256.93 267.53 256.83 266.81 256.81 266.55 256.76 266.33 256.61 266.12 256.14 265.1 252.78 264.52 251.85 263.69 251.03 262.18 249.85 261.86 249.16 261.9 248.45 262.44 247.54 263.01 247.09 264.01 246.48 264.35 246.09 264.56 245.66 265.23 242.93 265.75 241.95 266.2 241.44 267.05 241.02 267.31 240.72 267.34 240.31 267.04 239.79 265.42 239.11 265.29 238.81 265.38 238.41 265.89 237.84 266.38 237.5 268.02 236.58 268.43 236.23 268.71 235.9 268.87 235.52 268.94 235.04 268.92 234.16 268.98 233.59 269.13 233.1 269.59 232.62 270.06 232.34 272.5 231.37 272.96 231.08 273.26 230.69 273.15 229.44 266.62 210.7 267.37 208.65 270.31 206.06 283.17 199.58 283.84 198.92 283.71 198.74 283.44 198.77 283.19 198.85 282.96 198.88 282.71 198.87 282.44 198.81 282.18 198.66 281.96 198.47 281.82 198.19 281.63 197.18 281.61 196.81 281.68 196.43 281.91 196.04 282.31 195.48 282.41 195.17 282.41 194.81 282.24 194.41 281.84 193.87 281.72 193.59 281.73 193.25 282.02 192.79 282.31 192.55 282.86 192.29 283.01 192.2 283.18 192.04 283.28 191.77 283.31 191.45 283.18 191.08 283.01 190.89 282.47 190.5 282.32 190.3 282.27 190.06 282.48 189.8 282.72 189.64 283.67 189.26 283.93 189.1 284.38 188.71 284.57 188.47 284.74 188.19 284.82 187.89 284.79 187.56 284.53 187.23 284.37 186.91 284.34 186.51 284.66 185.48 284.72 184.99 284.69 184.27 284.78 183.72 285.13 183.05 285.43 182.77 285.68 182.38 286.31 180.75 286.37 180.33 286.14 179.85 285.9 179.56 285.72 179.29 285.73 179.01 286.04 178.65 286.33 178.42 286.5 178.08 286.55 177.68 286.41 177.08 286.13 176.33 286.08 176.01 286.14 175.68 286.47 175.3 286.74 175.05 286.93 174.76 286.97 174.44 286.85 174.03 286.73 173.49 286.46 170.46 286.21 170.02 285.97 169.91 285.68 169.89 285.4 169.78 285.15 169.66 284.41 169.08 284.23 168.85 284.1 168.56 284.11 168.07 284.26 167.46 284.74 166.4 285.4 165.54 285.57 165.14 285.65 164.49 285.55 163.12 285.59 162.76 285.88 162.57 286.17 162.46 286.4 162.2 286.48 161.81 286.32 160.59 286.37 160.19 286.69 159.92 287.05 159.8 287.31 159.63 287.41 159.36 286.76 157.6 286.68 157.17 286.73 156.72 287.23 155.59 287.33 155.19 287.17 154.69 286.74 154.15 286.62 153.97 286.65 153.81 286.79 153.61 287.19 153.14 287.44 152.58 287.59 152.11 287.55 149.61 286.91 148.81 288.47 150.14 288.92 151.6 289.11 153.24 289.46 154.69 292.38 159.7 293.32 160.6 295.62 162.33 296.59 163.46 296.82 163.84 296.94 164.15 297 164.48 297.01 164.94 297.18 165.39 297.97 165.68 298.22 166.04 297.98 166.6 297.48 167.08 297.34 167.44 298.22 167.67 298.28 168.61 299.21 169.92 300.48 171.25 303.68 173.97 303.97 174.78 303.95 175.43 304.11 175.97 304.93 176.47 304.74 177 304.93 178.94 304.65 180.56 304.98 181.28 306.19 181.48 305.76 182.09 304.53 182.66 304.06 183.15 303.96 183.76 304.12 184.33 304.48 185.07 304.48 186.62 304.14 187.26 303.27 187.82 303.77 188.53 304.37 189.65 304.47 190.7 302.57 191.65 303.05 192.72 303.99 193.74 304.48 194.08 304.14 194.67 302.58 195.84 302.62 196.39 304.8 199.35 305.77 199.92 305.9 199.44 306.61 198.25 308.61 200.26 309.45 200.49 309.57 199.09 310.87 200.89 311.2 201.17 311.93 201.17 312.48 200.87 312.96 200.51 313.51 200.34 314.34 200.74 315.56 202.33 316.21 202.46 316.81 203.11 317.49 203.17 319.16 202.84 318.04 203.97 317.58 204.63 317.7 205.2 318.09 205.29 318.67 205.29 319.24 205.39 319.58 205.8 319.33 207.06 318.59 208.45 318.24 209.78 319.16 210.85 319.58 210.46 320.53 210.74 321.29 210.39 322.08 211.27 322.72 211.32 324.67 211.97 325.08 211.91 325.37 211.41 326.05 211.66 326.87 212.09 327.55 212.1 327.79 212.7 327.65 213.96 328 214.57 329.31 214.42 329.64 218.21 330.72 219.23 331.2 219.06 331.67 218.8 332.03 218.8 332.18 219.42 332.21 219.93 332.28 220.27 332.56 220.87 332.91 221.39 334.34 222.88 335.06 223.41 335.42 222.8 335.66 222.58 335.93 222.57 337.1 223.97 338.28 228.58 339.27 230.5 340.11 231.13 341.66 231.52 343.05 232.39 344.43 232.99 345.12 233.46 345.59 233.98 346.28 234.95 346.82 235.51 348.76 237.08 349.99 237.77 351.23 238.05 351.6 238.26 352.71 239.72 352.71 239.53 353.12 239.53 353.62 239.63 Z" id="CAF-807" data-name="Nana-Grébizi"/>
<path d="M 328.4 277.59 328.14 279.11 328.18 279.49 328.34 280.02 328.63 280.5 329.07 281.01 329.62 281.54 330.24 282.03 330.86 282.39 332.8 283.12 333.7 283.62 335.03 284.63 335.95 285.9 336.22 286.97 335.93 288.25 334.86 291.2 334.64 292.46 334.79 293.2 335.54 294.39 335.54 294.92 335.17 295.47 333.98 296.59 333.67 297.31 333.73 297.84 334.29 298.99 334.27 299.37 334.03 299.69 333.71 299.93 333.41 300.29 332.89 301.21 332.08 302.34 331.24 303.85 330.92 304.18 330.51 304.39 329.97 304.38 328.91 304.14 328.52 304.11 328.16 304.12 327.77 304.21 327.42 304.32 327.07 304.48 326.81 304.64 326.63 304.83 326.47 305.05 326.18 305.69 325.44 306.58 320.28 310.62 319.39 311.74 319.44 312.54 320.89 318.12 320.99 318.88 320.97 319.25 320.87 319.46 320.15 320.21 320.06 320.55 320.08 320.84 320.26 321.02 320.55 321.18 323.04 321.92 323.47 322.41 323.75 323.26 323.79 325.19 323.47 326.48 322.79 327.63 317.12 332.24 316.33 332.66 313.5 333.05 312.89 333.26 312.28 333.59 311.77 334.29 311.75 334.74 311.97 335.13 312.37 335.45 312.77 335.87 313.11 336.33 313.74 337.59 314.88 337.88 340.83 338.09 343.94 338.58 345.03 339.38 344.97 340.32 344.79 341.13 344.56 341.7 344.27 342.13 343.72 342.76 343.4 343.24 342.65 345.09 342.07 345.98 341.8 346.66 341.61 347.78 341.53 351.7 341.26 352.77 341.14 353.63 341.08 355.45 340.05 359.71 338.98 361.56 338.18 362.5 337.36 363 336.79 363.21 335.47 364.11 335.44 364.15 334.95 363.33 334.24 362.48 333.39 361.91 330.61 360.61 328.75 360.23 327.53 359.65 326.97 359.52 320 359.38 317.75 358.35 316.52 358.58 314.59 359.52 313.33 359.65 309.36 359.52 307.98 359.86 307.08 360.68 305.79 362.48 300.33 365.86 297.47 367.17 297.02 367.7 296.1 369.29 294.94 370.87 293.92 371.11 291.11 371.08 290.08 371.47 289.5 372.02 289.5 372 289.48 371.95 289.3 370.18 289.55 368.16 289.52 367.88 288.57 365.62 282.89 357.92 282.41 356.46 282.3 355.01 282.61 353.51 284.23 348.89 284.48 347.44 284.32 346.34 283.8 344.92 282.5 342.64 281.75 341.6 281.13 341.07 279.79 340.36 277.67 338.78 276.71 337.72 276.04 336.51 275.14 330.55 274.7 329.53 274.04 328.98 267.12 327.9 266.06 327.86 263.84 326.97 260.64 323.17 260.03 319.96 260.05 317.12 259.86 316.09 259.36 314.53 259.36 313.39 259.59 312.24 260.25 310.51 260.34 309.46 260.26 308.52 260.04 307.44 260.05 306.93 260.17 306.64 263.41 305.3 264.59 304.49 266.54 303.44 267.62 302.72 270.95 299.51 273.07 297.89 274.25 296.79 274.68 296.48 276.56 295.69 277.32 294.98 277.52 294.46 277.4 294.04 276.92 293.77 275.61 293.24 275.08 292.78 274.76 292 274.6 290.85 274.51 289.22 274.68 285.77 274.43 284.89 273.81 283.98 268.24 278.49 267.47 277.28 267.27 276.6 267.33 276.18 267.41 276.01 267.82 275.27 281.53 273.5 283.82 273.48 285.28 273.89 285.83 274.67 286.53 276.08 287.44 277.42 288.5 278.25 289.96 279.02 292.24 279.78 293.75 279.98 294.96 279.89 297.51 279.25 301.64 278.78 311.61 276.25 315.61 276.01 328.4 277.59 Z" id="CAF-808" data-name="Kémo"/>
<path d="M 445.76 334.26 444 337.84 442.07 339.16 441.2 339.39 440.58 339.46 440.08 339.34 439.63 339.02 438.61 337.43 438.42 337.24 436.92 336.66 436.38 335.45 436.17 334.82 434.95 332.69 434.8 332.25 434.83 331.85 434.96 331.49 435.07 331.05 435.06 330.4 434.92 329.81 434.69 329.3 433.71 328.07 433.04 326.77 432.43 325.95 431.84 325.54 431.03 325.14 430.49 324.65 429.68 323.5 429.4 323.32 429.14 323.4 428.96 323.64 428.55 324.45 428.27 324.88 427.92 325.22 427.39 325.37 427.05 325.21 426.26 324.36 425.94 324.19 425.62 324.21 425.29 324.44 424.89 324.81 423.67 326.27 423.23 326.61 421.01 327.75 420.4 327.99 419.44 328.11 418.75 327.98 416.8 327 416.33 326.9 415.96 327 415.78 327.15 415.44 327.49 415.21 327.67 414.78 327.79 414.18 327.88 413.21 327.89 412.7 327.73 412.29 327.39 411.42 325.76 410.95 325.21 410.35 324.75 409.46 324.26 408.87 324.05 408.33 323.93 407.94 323.95 407.5 324.1 407.27 324.37 407.14 324.77 407.17 325.32 407.35 325.82 407.67 326.28 408.29 327.03 408.56 327.4 408.69 327.71 408.73 328.12 408.64 328.56 408.44 329.04 408.17 329.42 406.92 330.63 406.7 330.94 406.59 331.22 406.59 331.59 406.92 333.15 406.92 333.59 406.79 334.01 406.55 334.31 406.17 334.56 405.71 334.76 402.62 335.39 401.95 335.62 401.56 335.88 401.52 336.17 401.57 336.49 401.7 336.78 401.91 337.03 402.12 337.2 402.26 337.29 403.25 337.67 403.62 337.85 403.91 338.11 404.1 338.44 404.17 338.76 404.15 340.02 404.2 340.53 404.53 341.84 404.52 342.15 404.35 342.42 403.34 343.33 402.88 343.96 402.61 344.82 402.91 348.61 402.63 353.71 402.29 354.8 401.76 355.89 400.26 357.84 399.76 358.68 399.42 359.5 399.29 360.32 399.36 361.09 399.64 361.92 401.17 365.08 401.39 365.83 401.4 366.46 401.27 366.94 400.84 367.74 399.46 369.77 399.04 370.68 398.89 371.56 398.93 372.55 399.51 376.04 399.52 377.05 399.35 378.1 398.83 379.27 398.05 379.99 397.16 380.43 396.32 380.52 395.58 380.43 394.29 380.13 393.51 380.18 392.58 380.55 390.25 382.04 387.65 383.25 386.86 383.99 382.42 389.52 378.98 392.92 377.64 393.93 372.03 396.88 371.76 396.63 371.13 395.31 371.44 394.14 372.06 393.11 372.42 392.23 372.01 390.97 371.02 389.59 369.82 388.47 368.79 388.02 368.29 387.57 366.95 384.68 365.75 382.79 364.83 381.78 363.82 381.34 362.55 381.18 359.69 380.24 358.57 379.67 357.39 378.69 354.61 375.27 353.44 374.52 349.39 372.95 347.45 371.64 346.01 370.4 344.35 369.39 338.94 368.26 337.44 367.7 336.8 366.88 336.5 365.93 335.44 364.15 335.47 364.11 336.79 363.21 337.36 363 338.18 362.5 338.98 361.56 340.05 359.71 341.08 355.45 341.14 353.63 341.26 352.77 341.53 351.7 341.61 347.78 341.8 346.66 342.07 345.98 342.65 345.09 343.4 343.24 343.72 342.76 344.27 342.13 344.56 341.7 344.79 341.13 344.97 340.32 345.03 339.38 343.94 338.58 340.83 338.09 314.88 337.88 313.74 337.59 313.11 336.33 312.77 335.87 312.37 335.45 311.97 335.13 311.75 334.74 311.77 334.29 312.28 333.59 312.89 333.26 313.5 333.05 316.33 332.66 317.12 332.24 322.79 327.63 323.47 326.48 323.79 325.19 323.75 323.26 323.47 322.41 323.04 321.92 320.55 321.18 320.26 321.02 320.08 320.84 320.06 320.55 320.15 320.21 320.87 319.46 320.97 319.25 320.99 318.88 320.89 318.12 319.44 312.54 319.39 311.74 320.28 310.62 325.44 306.58 326.18 305.69 326.47 305.05 326.63 304.83 326.81 304.64 327.07 304.48 327.42 304.32 327.77 304.21 328.16 304.12 328.52 304.11 328.91 304.14 329.97 304.38 330.51 304.39 330.92 304.18 331.24 303.85 332.08 302.34 332.89 301.21 333.41 300.29 333.71 299.93 334.03 299.69 334.27 299.37 334.29 298.99 333.73 297.84 333.67 297.31 333.98 296.59 335.17 295.47 335.54 294.92 335.54 294.39 334.79 293.2 334.64 292.46 334.86 291.2 335.93 288.25 336.22 286.97 335.95 285.9 335.03 284.63 333.7 283.62 332.8 283.12 330.86 282.39 330.24 282.03 329.62 281.54 329.07 281.01 328.63 280.5 328.34 280.02 328.18 279.49 328.14 279.11 328.4 277.59 330.29 277.3 332.78 277.58 333.92 278.09 335.55 279.14 336.09 279.33 336.43 279.3 336.57 279.15 336.69 278.75 336.66 277.99 335.57 271.16 335.75 269.65 336.24 268.43 339.29 264.43 339.97 263.71 341.89 262.2 344.78 259.3 345.45 258.8 346.04 258.25 346.56 257.47 347.12 256.26 347.89 255.3 349.56 253.91 350.34 252.91 351.05 251.65 352.73 247.25 353.2 245.24 353.19 241.93 353.62 239.63 353.92 239.72 354.01 239.94 354.03 240.3 354.1 240.7 354.38 241.01 355.48 241.41 356.72 241.69 357.75 242.1 358.17 242.87 358.79 243.51 360.2 243.56 361.74 243.43 362.72 243.52 363.21 243.27 364.59 244.1 365.45 244.35 365.77 244.1 366.25 243.64 366.85 243.38 367.54 243.73 367.85 243.63 369.86 243.52 370.18 243.68 370.3 243.97 370.45 244.23 370.9 244.35 371.31 244.31 372.4 243.93 373.89 242.74 375.41 241.59 376 241.25 376.34 241.22 377.65 241.6 379.07 241.01 382.83 237.96 383.46 237.14 383.7 236.16 385.38 231.75 386.09 230.84 386.81 230.48 388.96 230.5 389.55 230.62 390.97 231.17 391.64 231.34 392.39 231.42 392.67 231.4 392.86 231.26 393.34 230.96 397.68 229 398.35 228.23 398.74 227.91 401.27 224.62 402.24 223.56 406.45 217.54 407.17 216.84 409.45 215.07 409.63 214.89 409.84 214.59 409.99 214.13 409.94 213.53 409.76 213.02 408.83 211.39 408.66 210.87 408.69 209.98 408.99 209.21 409.73 208.44 410.28 207.99 410.73 207.53 411 206.99 411.44 205.08 411.78 204.19 412.05 203.65 413.24 202.57 415.83 204.73 417.62 206.69 419 207.75 420.25 208.38 424.51 209.27 425.87 209.99 427.38 211.01 428.81 212.3 429.72 213.37 430.33 214.23 430.78 215.16 430.95 215.68 431.1 216.5 431.14 217.59 430.47 224.06 430.55 224.92 431.04 226.01 431.67 226.58 432.58 226.91 435.86 227.05 436.44 226.98 436.96 226.86 437.71 226.8 438.58 226.9 439.88 227.46 440.52 228.1 440.82 228.91 440.65 234.78 442.28 245.42 442.65 246.03 443.79 246.86 444.06 247.42 444.19 249.79 445.13 252.83 445.12 253.34 444.99 253.69 444.77 254.02 444.54 254.28 444.41 254.62 444.4 254.98 444.6 255.71 444.66 256.27 444.64 256.73 444.5 257.09 444.22 257.42 442.96 258.21 442.65 258.51 442.51 258.87 442.52 259.5 442.8 259.98 443.23 260.45 443.75 261.14 445.48 266.16 445.97 267.19 446.53 267.94 447 268.38 447.56 269.08 447.99 270.02 448.29 270.48 448.63 270.74 449.07 270.81 451.06 270.83 451.75 270.99 452.54 271.34 453.38 272.15 453.7 272.73 453.82 273.38 453.74 273.93 453.07 276.01 452.97 276.55 453.32 279.66 454.63 284.54 454.68 285.9 454.24 287.02 453.62 288.23 451.13 291.85 450.73 292.67 450.71 293.56 451.09 294.11 452.7 295.34 453.57 296.42 453.97 297.34 454.5 299.33 455.01 300.36 455.26 301.27 455.51 303.24 455.98 303.79 456.73 304.04 457.72 304.08 458.66 304.27 459.36 304.7 459.82 305.46 460.82 309.1 461.28 309.99 462.69 312.17 462.83 313.15 462.55 318.05 461.8 321.42 460.73 323.87 460.39 326.15 460.14 326.78 459.65 327.41 458.38 328.69 457.67 329.87 457.23 329.9 456.52 329.46 454.18 327.5 453.15 326.8 452.44 326.52 451.84 326.57 451.18 326.89 448.98 328.58 446.35 331.26 445.76 334.26 Z" id="CAF-809" data-name="Ouaka"/>
<path d="M 286.91 148.81 287.55 149.61 287.59 152.11 287.44 152.58 287.19 153.14 286.79 153.61 286.65 153.81 286.62 153.97 286.74 154.15 287.17 154.69 287.33 155.19 287.23 155.59 286.73 156.72 286.68 157.17 286.76 157.6 287.41 159.36 287.31 159.63 287.05 159.8 286.69 159.92 286.37 160.19 286.32 160.59 286.48 161.81 286.4 162.2 286.17 162.46 285.88 162.57 285.59 162.76 285.55 163.12 285.65 164.49 285.57 165.14 285.4 165.54 284.74 166.4 284.26 167.46 284.11 168.07 284.1 168.56 284.23 168.85 284.41 169.08 285.15 169.66 285.4 169.78 285.68 169.89 285.97 169.91 286.21 170.02 286.46 170.46 286.73 173.49 286.85 174.03 286.97 174.44 286.93 174.76 286.74 175.05 286.47 175.3 286.14 175.68 286.08 176.01 286.13 176.33 286.41 177.08 286.55 177.68 286.5 178.08 286.33 178.42 286.04 178.65 285.73 179.01 285.72 179.29 285.9 179.56 286.14 179.85 286.37 180.33 286.31 180.75 285.68 182.38 285.43 182.77 285.13 183.05 284.78 183.72 284.69 184.27 284.72 184.99 284.66 185.48 284.34 186.51 284.37 186.91 284.53 187.23 284.79 187.56 284.82 187.89 284.74 188.19 284.57 188.47 284.38 188.71 283.93 189.1 283.67 189.26 282.72 189.64 282.48 189.8 282.27 190.06 282.32 190.3 282.47 190.5 283.01 190.89 283.18 191.08 283.31 191.45 283.28 191.77 283.18 192.04 283.01 192.2 282.86 192.29 282.31 192.55 282.02 192.79 281.73 193.25 281.72 193.59 281.84 193.87 282.24 194.41 282.41 194.81 282.41 195.17 282.31 195.48 281.91 196.04 281.68 196.43 281.61 196.81 281.63 197.18 281.82 198.19 281.96 198.47 282.18 198.66 282.44 198.81 282.71 198.87 282.96 198.88 283.19 198.85 283.44 198.77 283.71 198.74 283.84 198.92 283.17 199.58 270.31 206.06 267.37 208.65 266.62 210.7 273.15 229.44 273.26 230.69 272.96 231.08 272.5 231.37 270.06 232.34 269.59 232.62 269.13 233.1 268.98 233.59 268.92 234.16 268.94 235.04 268.87 235.52 268.71 235.9 268.43 236.23 268.02 236.58 266.38 237.5 265.89 237.84 265.38 238.41 265.29 238.81 265.42 239.11 267.04 239.79 267.34 240.31 267.31 240.72 267.05 241.02 266.2 241.44 265.75 241.95 265.23 242.93 264.56 245.66 264.35 246.09 264.01 246.48 263.01 247.09 262.44 247.54 261.9 248.45 261.86 249.16 262.18 249.85 263.69 251.03 264.52 251.85 265.1 252.78 266.12 256.14 266.33 256.61 266.55 256.76 266.81 256.81 267.53 256.83 267.84 256.93 268.02 257.13 267.6 258.05 267.28 259.05 267.36 259.97 267.83 260.83 268.86 261.77 270.05 262.64 271.31 263.39 274.14 264.48 274.56 264.82 274.89 265.32 275.16 266.23 275.12 266.85 274.87 267.34 274.33 267.77 271.22 269.35 270.16 270.06 269.31 271.09 268.8 271.92 267.82 275.27 267.41 276.01 267.33 276.18 267.27 276.6 267.47 277.28 268.24 278.49 273.81 283.98 274.43 284.89 274.68 285.77 274.51 289.22 274.6 290.85 274.76 292 275.08 292.78 275.61 293.24 276.92 293.77 277.4 294.04 277.52 294.46 277.32 294.98 276.56 295.69 274.68 296.48 274.25 296.79 273.07 297.89 270.95 299.51 267.62 302.72 266.54 303.44 264.59 304.49 263.41 305.3 260.17 306.64 260.05 306.93 260.04 307.44 260.26 308.52 260.34 309.46 260.25 310.51 259.59 312.24 259.36 313.39 259.36 314.53 259.86 316.09 260.05 317.12 260.03 319.96 260.64 323.17 259.9 322.89 259.57 323.13 259.47 323.57 259.53 325 259.44 325.83 259.26 326.68 259.02 327.33 258.62 327.95 257.95 328.46 252.74 331.24 249.87 332.27 247.69 333.29 247.07 333.44 246.68 333.3 246.28 332.73 246.18 332.15 246.26 329.98 246.09 329.18 245.82 328.51 245 327.12 244.73 326.39 244.64 325.87 244.76 325.42 245 325.17 245.29 324.98 245.87 324.67 246.09 324.51 246.26 324.31 246.41 324 246.49 323.68 246.5 323.34 246.4 323.05 246.12 322.71 245.65 322.4 244.97 322.07 243.88 321.8 242.48 321.6 240.57 321.64 239.64 321.8 238.89 322.09 238.64 322.05 238.33 321.76 238.18 321.37 238.1 320.84 238.08 320.29 238 319.8 237.83 319.45 237.5 319.12 236.76 318.91 235.55 318.81 230.66 319.23 230.16 319.38 229.9 319.5 229.61 319.53 229.25 319.42 228.18 318.62 227.6 318.31 226.99 318.19 226.18 318.33 224.88 318.82 224.18 318.93 223.49 318.86 222.76 318.49 222.42 318.17 222.28 317.78 222.29 316.76 222.08 316.09 221.75 315.7 218.54 314.27 217.34 313.38 216.52 313.09 215.47 312.96 213.66 313.46 212.7 314.06 211.99 314.78 211.53 315.44 211.06 315.96 210.51 316.4 198.74 322.92 196.36 323.77 166.81 324.26 163.4 323.84 162 323.46 160.83 321.06 159.55 319.32 159.31 318.32 159.43 315.33 158.89 314.8 158.52 313.75 158.29 312.54 158.08 311.97 157.88 311.54 157.72 311.28 157.36 310.81 157.15 310.6 156.96 310.37 156.76 309.95 156.6 309.33 156.05 305.81 156.06 305.38 156.14 304.74 156.13 304.25 155.89 303.69 155.5 303.05 155.07 301.12 155.03 300.64 155.09 300.19 155.36 299.57 155.67 299.41 155.96 299.42 156.25 299.54 156.56 299.57 156.84 299.49 157.08 299.33 157.72 298.71 157.83 298.45 157.81 298.15 157.42 297.49 157.27 297.12 157.17 296.64 157.04 294.68 157.2 292.48 157.36 291.6 157.39 290.48 157.51 289.78 157.71 289.14 157.98 288.56 158.15 288.32 158.36 288.1 158.62 287.96 158.92 287.91 159.23 287.98 159.48 288.13 159.7 288.29 159.9 288.4 160.09 288.32 160.48 288.01 160.69 287.97 160.88 287.98 161.16 288.02 161.4 288.01 161.62 287.83 161.9 287.06 162.12 286.79 162.27 286.51 162.27 286.17 162.03 285.64 161.92 285.19 161.99 284.57 162.17 284.24 162.41 284.05 162.71 284.04 162.97 284.11 163.23 284.1 163.43 283.95 163.84 283.1 164.27 282.68 164.77 282.35 165.05 282.25 165.33 282.23 165.59 282.35 165.8 282.51 166.07 282.55 166.3 282.43 166.48 282.2 166.61 281.91 166.7 281.55 166.84 279.62 166.78 279.2 166.48 278.77 166.15 278.53 165.79 278.36 165.33 278.25 165.12 278.17 164.87 278.03 164.49 277.61 164.26 277.41 164 277.25 163.77 277.06 163.51 276.93 163.22 276.89 162.94 276.99 162.45 277.33 162.18 277.46 161.86 277.51 161.54 277.48 161.23 277.37 160.98 277.24 160.74 277.16 160.54 277.13 160.23 277.14 159.63 277.29 159.32 277.28 159.05 277.17 158.76 277.07 158.45 277.05 158.19 277.17 158 277.38 157.92 277.68 157.86 278.31 157.72 278.5 157.52 278.62 156.91 278.6 156.59 278.64 156.03 278.88 155.75 278.97 155.45 278.93 155.15 278.84 154.56 278.58 154.3 278.41 154.06 278.22 153.86 278 153.52 277.51 153.32 277.3 153.04 277.18 152.39 277.08 152.11 276.95 151.87 276.76 151.68 276.56 151.53 276.36 151.44 276.2 150.89 274.55 150.6 273.91 150.43 273.66 150.22 273.46 149.93 273.32 148.83 273.11 148.52 273 148.28 272.8 148.09 272.58 147.94 272.1 147.51 270.19 147.23 269.66 146.9 269.38 146.58 269.38 146.27 269.15 146.01 268.37 145.76 266.58 145.64 264.4 145.15 262.13 144.25 259.93 144.03 259.09 143.84 257.48 143.91 253.18 143.86 252.82 143.73 252.54 143.37 252.05 143.23 251.66 143 250.25 142.8 249.82 142.54 249.52 142.26 249.37 142.02 249.2 141.78 249 141.6 248.65 141.48 248.16 141.35 247.31 141.19 246.84 141.11 246.43 141.15 246.11 141.4 245.75 141.56 245.61 141.73 245.54 142 245.49 142.24 245.31 142.36 244.99 142.22 243.96 142.25 243.53 142.41 243.22 142.8 243.01 143.17 242.92 143.53 242.89 143.84 242.83 144.07 242.66 144.24 242.37 144.54 241.56 144.73 241.24 144.93 240.98 145.66 240.46 145.87 240.25 146.08 239.9 146.48 238.61 146.59 238.01 146.63 237.4 146.41 236.08 146.2 235.35 145.71 234.19 145.73 233.62 145.9 232.84 146.94 230.09 147.07 229.51 147.34 225.12 147.46 224.36 147.61 223.82 147.94 223.22 148.13 222.74 148.16 222.06 148.39 221.45 148.61 221.09 148.9 220.87 149.73 220.46 149.97 220.28 150.16 220.06 150.31 219.77 150.42 219.46 150.45 219.04 150.4 218.57 150.13 217.88 149.44 216.99 149.35 216.57 149.37 216.01 149.83 213.93 149.86 213.57 149.57 212.17 149.41 211.98 150.74 210.88 150.91 210.88 151.57 210.98 151.79 210.88 151.91 210.4 151.7 210.1 151.43 209.83 151.38 209.41 151.84 208.19 152.49 207.4 153.42 206.89 155.8 206.2 158.44 205.8 159.61 205.92 160.04 205.18 160.57 204.82 161.22 204.76 163.1 205.08 163.29 204.8 163.23 204.28 163.51 203.72 164.35 202.99 165.55 203.4 166.24 203.77 166.56 204.11 166.95 204.14 167.83 203.58 169 202.47 171.14 199.88 172.25 198.86 172.72 198.8 173.22 198.88 173.62 198.61 173.83 197.47 174.21 196.78 175.01 196.01 175.06 195.96 176.05 195.27 184.3 192.36 185.54 191.59 186.34 190.66 189.23 191.53 189.96 191.06 190.5 189.67 191.51 188.95 192.74 188.66 194.94 188.43 196.22 188.07 197.4 187.48 198.66 185.74 199.83 185.36 201.17 185.28 202.27 185.35 210.68 186.76 213.22 186.86 215.6 186.43 220.46 184.61 226.16 183.27 232.57 183.1 252.92 182.57 257.87 181.52 259.62 178.93 259.67 175.97 260.89 173.58 262.96 171.76 265.56 170.46 269.15 169.24 270.22 168.71 271.55 167.54 274.11 163.67 276.1 161.76 276.95 160.68 277.5 159.2 278.12 158.03 284.23 151.09 286.73 146.2 287.4 145.82 287.54 146.13 286.9 147.83 286.91 148.81 Z" id="CAF-810" data-name="Ouham"/>
<path d="M 519.01 5.99 519.14 7.66 527.84 20.2 534.19 24.62 545.3 35.3 555.48 51.56 565.65 67.82 566.92 70.55 568.71 81.11 568.4 83.45 567.57 85.26 565.31 88.71 564.55 90.47 564.59 91.14 565.19 92.66 565.31 93.46 565.23 95.36 565.4 95.94 565.86 96.71 566.32 96.7 566.68 96.83 567.01 97.33 567.04 97.74 565.51 102.49 565.43 103.57 566.06 105.45 566.15 106.34 565.6 107.07 564.79 107.7 562.43 110.64 561.09 111.99 560.38 112.42 559.4 112.59 557.42 112.51 556.49 112.88 555.79 113.91 555.78 113.89 555.23 112.59 555.14 111.08 555.58 109.8 555.86 109.17 555.66 108.86 555.25 108.64 554.56 108.57 553.86 108.6 553 108.74 552.24 109 551.51 109.35 550.9 109.74 550.31 110.26 549.79 110.91 549.27 111.85 548.78 113.05 547.5 119.65 547.12 120.82 546.7 121.57 545.79 122.65 544.92 123.38 544.52 123.57 543.97 123.76 543.35 123.89 541.05 124.17 539.96 124.5 538.68 125.26 534.44 128.41 533.26 129.72 532.51 131.22 532.21 135.05 531.96 136.42 531.16 137.77 530.54 138.24 529.85 138.41 528.09 137.94 527.43 137.96 516.08 140.81 508.31 141.89 505.93 142.56 502.91 144.34 501.96 145.04 498.61 148.21 497.95 148.61 497.38 148.81 496.94 148.84 496.46 148.83 495.88 148.72 493.82 147.94 493.04 147.89 492.28 147.98 491.64 148.13 490.29 148.27 490.47 146.11 490.41 145.37 490.31 144.67 489.97 144.15 489.32 143.68 488.32 143.28 483.74 142.67 480.29 141.72 479.34 141.31 474.74 137.99 473.92 136.85 473.33 135.39 471.62 127.5 471.74 125.82 471.68 125.23 471.09 124.64 468.24 122.76 467.47 121.79 466.96 120.8 466.75 119.94 466.42 119.29 466.12 118.88 465.43 118.34 463.21 117.02 462.33 116.32 460.82 114.32 460.21 113.74 459.49 113.28 457.85 112.48 457.31 112 456.98 111.32 455.7 107.45 455.25 106.59 454.72 105.92 454.23 105.41 453.84 104.78 453.65 104.04 453.04 100.02 452.69 98.9 452.25 98.21 450.02 96.42 449.4 95.77 448.94 95.04 448.69 94.33 448.4 93.12 448.15 92.72 444.57 89.48 443.95 88.66 443.52 87.93 442.96 87.31 442.15 87.05 440.55 87.03 439.01 87.17 438.12 87.11 437.54 86.85 437.23 86.49 437.05 86.03 436.99 85.48 436.96 84.3 436.86 83.6 436.3 81.47 436.16 80.64 436.13 79.95 436.33 78.76 436.29 78.28 436.14 77.78 435.82 77.04 435.49 76.57 434.97 76.36 433.47 76.03 433.15 76.06 432.82 76.26 432.48 76.73 432.27 77.1 431.99 77.77 431.82 78.04 431.6 78.33 431.3 78.6 430.84 78.94 430.43 79.19 430.01 79.39 429.14 79.7 428.36 80.12 427.02 81.04 425.79 82.31 424.52 83.23 424.13 83.63 423.88 84 423.68 84.67 423.43 85.3 423.26 85.57 423.05 85.77 422.57 86.13 422.15 86.56 421.45 87.12 421.26 87.36 420.71 87.67 417.89 88.55 416.94 88.7 415.69 88.73 414.93 88.84 413.43 89.24 412.66 89.34 411.7 89.61 410.69 90.03 408.59 91.29 407.18 92.39 406.83 92.78 406.59 93.13 406.47 93.41 406.15 94.4 406.01 94.69 405.83 94.94 405.64 95.16 404.92 95.74 404.58 95.89 404.02 96.06 403.03 96.16 401.45 96.71 401.11 96.95 400.89 97.16 400.71 97.4 400.38 97.93 400.19 98.17 399.76 98.58 399.12 99.67 398.92 99.9 398.55 100.05 398.02 100.12 396.98 99.99 395.69 99.6 394.05 97.9 393.86 97.71 394.25 97.87 394.61 97.75 395.01 96.58 395.11 95.04 395.55 93.7 396.91 93.13 397.55 92.59 399.9 90.04 400.42 89.14 400.66 88.49 401.22 88.04 402.55 87.28 402.83 86.75 402.93 86.21 403.26 85.99 404.21 86.41 404.13 85.61 404.03 85.42 403.76 85.16 403.76 84.74 404.63 84.46 405 83.68 405.05 81.61 405.25 80.68 406.11 79.02 406.3 77.86 406.46 77.59 406.81 77.26 407.22 76.97 407.55 76.81 407.63 76.72 407.69 76.56 407.85 76.42 408.2 76.35 408.47 76.49 409.04 77.08 409.26 77.19 409.71 77 410.15 76.69 410.93 75.98 411.17 75.91 411.45 75.98 411.67 75.99 411.77 75.75 411.72 74.9 411.77 74.69 412.68 72.46 413.31 71.39 416.69 69.2 417.19 69.07 417.37 68.11 417.81 67.26 420.95 63.66 421.82 62.96 422.67 63.49 425.17 64.46 425.99 64.63 428.12 63.82 430.11 61.84 431.73 59.37 434.91 52.14 436.61 49.92 438.55 48.73 439.14 48.81 439.88 49.07 440.65 49.2 441.29 48.94 441.52 49.07 443.46 48.46 443.79 48.28 445.36 47.9 446.13 46.95 446.62 45.73 447.36 44.52 447.87 44.31 448.57 44.24 449.18 44.05 449.44 43.48 449.38 42.98 449.12 42.07 449.06 41.41 449.28 40.12 451.15 37.01 450.7 36.57 450.65 36.15 450.75 35.75 450.74 35.34 450.36 34.79 449.28 33.57 449.06 33 448.93 32 448.37 29.66 448.23 28.41 448.37 27.23 448.93 25.42 449.06 24.22 449.41 23.26 450.26 22.68 451.3 22.4 452.21 22.32 452.57 22.13 452.85 21.7 453.22 21.27 453.86 21.07 454.36 21 455.52 20.69 456.16 20.62 457.37 21.21 458.03 21.35 458.32 20.84 458.55 20.76 459.95 19.44 461.82 18.16 462.89 17.66 466.61 16.74 467.26 16.05 466.67 14.77 467.07 13.93 467.49 12.67 468.17 11.52 469.34 11.02 474.47 11.53 475.43 11.4 477.15 12.29 477.97 11 478.64 9.08 480.39 7.65 481.05 6.8 481.84 6.23 482.78 6.61 483.27 6.64 483.93 6.19 485.07 5.17 485.86 4.76 487.12 4.25 488.45 3.88 488.66 3.85 490.32 3.59 491.25 3.31 492 2.84 493.12 1.57 493.7 1.16 494.52 1 495.49 1.18 496.37 1.47 497.11 1.53 497.67 1 499.06 2.24 500.34 2.34 501.65 1.96 503.1 1.8 503.6 1.95 504.77 2.51 505.39 2.63 507.52 2.57 508.1 2.63 510.38 3.21 511.92 4.49 515.64 5.67 519.01 5.99 Z" id="CAF-812" data-name="Vakaga"/>
<path d="M 555.79 113.91 555.48 114.38 554.14 122.15 554.29 123.65 555.1 124.89 556.73 125.82 558.4 125.69 560.67 123.48 561.74 123.53 562.19 124.85 562.1 126.98 561.34 130.45 560.31 132.14 557.79 134.96 556.99 136.55 556.95 138.02 557.46 139.66 558.39 140.99 559.64 141.56 560.54 141.36 561.98 140.26 562.84 139.79 563.96 139.56 565 139.68 565.96 140.09 566.87 140.72 567.67 141.04 569.63 141 571.59 141.53 572.58 141.23 574.51 140.35 576.62 140.3 580.48 141.17 583.88 140.83 586.31 141.83 587.49 142.01 589.22 141.72 595.6 142.77 599.04 142.3 599.66 142.22 601.94 142.17 603.04 142.75 602.9 143.62 601.78 145.24 601.55 146.11 601.98 146.97 603.64 148.26 603.95 149.01 603.53 149.59 601.05 151.22 600.44 151.89 597.02 157.61 596.28 159.69 596.06 161.68 596.66 163.47 597.98 165.01 599.63 166.24 601.26 167.13 602.23 167.5 604.35 167.99 604.72 168.03 607.01 170.3 610.34 173.04 611.34 173.64 612.01 173.89 613.05 174.14 613.5 174.32 613.89 174.82 614.19 175.59 614.41 176.92 614.69 177.55 615.04 177.94 615.4 178.16 615.77 178.45 616.38 179.14 616.75 179.43 617.55 179.93 617.72 180.84 617.69 182.43 616.32 188.53 616.49 189.16 616.69 189.72 616.85 190.37 617.05 192.85 617.32 194.27 617.72 195.45 618.23 196.5 618.42 197.27 618.48 198 618.38 199.48 618.46 200.16 618.61 200.64 618.8 200.86 618.96 201.09 619.18 201.53 619.25 201.76 619 206.81 619.47 208.4 619.62 208.66 619.95 209.15 620.68 209.94 621.03 210.52 621.84 212.89 622.08 213.12 622.39 213.28 622.68 213.39 622.89 213.55 622.98 213.8 622.83 214.19 622.94 214.57 623.08 214.8 623.29 214.94 623.68 215.14 624.16 215.44 624.74 215.67 624.94 215.79 624.97 215.95 624.62 216.42 624.22 217.11 623.14 219.59 622.4 220.52 622 221.6 621.32 222.54 620.32 224.87 619.99 226.11 619.91 226.76 619.95 227.22 620.02 227.55 620.14 227.86 620.27 228.13 620.37 228.42 620.39 228.82 620.32 229.27 620.12 230.01 620.2 230.36 620.41 230.52 620.69 230.45 621.23 230.24 621.5 230.29 621.69 230.47 621.74 230.79 621.68 231.16 621.56 231.59 621.52 231.93 621.65 232.19 621.87 232.37 622.45 232.61 622.69 232.79 622.87 233.03 622.91 233.44 622.82 233.99 622.51 234.98 622.43 235.57 622.42 236.04 622.49 236.39 622.53 236.75 622.53 237.13 622.49 237.49 622.41 237.82 621.78 239.65 621.78 240.11 621.87 240.46 622.29 241.27 622.39 241.59 622.56 242.66 622.56 243.09 622.49 243.59 621.92 244.85 621.65 245.12 621.27 245.11 620.7 244.87 620.37 244.93 620.03 245.22 619.06 246.66 618.83 246.85 617.4 247.29 616.39 247.39 616.07 247.33 615.77 247.23 615.51 247.09 615.21 247.02 614.52 247.03 613.86 246.98 613.53 247.02 611.76 247.76 611.39 247.75 610.71 247.65 610.25 247.81 609.77 248.15 608.56 249.33 608.31 249.69 608.58 251.1 608.79 251.72 608.96 251.96 609.21 252.13 609.51 252.23 609.78 252.37 609.89 252.57 609.81 252.8 609.46 252.93 609.1 253.11 608.82 253.4 608.67 254.05 608.75 254.83 608.69 255.14 608.02 255.75 607.69 255.95 607.36 256.07 606.65 256.19 606.34 256.33 606.16 256.6 606.19 257.1 606.39 257.37 606.64 257.58 606.77 257.86 607 258.42 607.21 258.57 607.43 258.7 607.41 258.92 607.13 259.17 606.25 259.33 605.77 259.3 605.36 259.36 605.09 259.44 604.58 260.67 555.14 288.27 554.3 288.94 554.15 289.19 553.57 289.85 553.08 290.6 552.97 290.89 552.88 291.22 552.82 291.97 552.7 292.44 552.41 292.9 551.74 293.54 551.24 293.79 550.77 293.92 550.38 293.94 549.67 294.06 549.32 294.08 548.97 294.03 548.39 293.75 548 293.65 547.32 293.73 546.97 293.92 546.77 294.2 546.42 295 545.85 295.59 545.55 295.96 545.38 296.33 545.39 296.66 545.47 296.98 545.58 297.26 545.63 297.54 545.58 297.83 545.47 298.11 545.41 298.43 545.39 298.77 545.49 299.48 545.46 299.86 545.27 300.33 544.05 300.72 542.28 300.88 526.32 296.96 521.71 295.38 519.84 294.05 518.7 292.9 518.03 291.47 517.72 290.97 517.47 290.7 517.07 290.42 516.58 290.19 515.84 290.09 514.9 290.16 512.31 290.67 511.33 290.69 509.53 290.34 508.29 290.25 500.61 291.75 499.44 292.52 498.53 293.51 497.51 295.67 496.6 298.91 495.82 300.25 495.24 301.04 494.33 301.84 490.85 303.82 489.81 304.24 489 304.3 488.36 304.13 487.59 304 486.87 304.01 484.6 304.39 484.07 304.32 483.62 304.01 483.3 303.58 482.9 303.13 482.43 302.88 481.52 302.87 480.72 303.15 474.91 306.42 474.03 307.18 473.33 307.62 472.94 307.95 473.05 308.38 473.52 308.97 473.31 310.25 471.24 312.61 470.82 314.45 471.05 318.86 470.79 321 470.34 322 469.94 322.58 469.65 323.26 469.53 324.54 469.76 324.97 471.01 326.46 471.13 326.74 471.62 328.55 470.5 328.84 469.23 328.71 468.22 328.92 467.9 330.22 469.02 330.03 468.44 331.12 467.29 332.43 466.39 333.11 465.24 333.54 464.98 333.77 464.79 333.88 463.69 335.23 460.35 337.98 460.32 338.83 454.94 336.24 450.95 334.89 445.76 334.26 446.35 331.26 448.98 328.58 451.18 326.89 451.84 326.57 452.44 326.52 453.15 326.8 454.18 327.5 456.52 329.46 457.23 329.9 457.67 329.87 458.38 328.69 459.65 327.41 460.14 326.78 460.39 326.15 460.73 323.87 461.8 321.42 462.55 318.05 462.83 313.15 462.69 312.17 461.28 309.99 460.82 309.1 459.82 305.46 459.36 304.7 458.66 304.27 457.72 304.08 456.73 304.04 455.98 303.79 455.51 303.24 455.26 301.27 455.01 300.36 454.5 299.33 453.97 297.34 453.57 296.42 452.7 295.34 451.09 294.11 450.71 293.56 450.73 292.67 451.13 291.85 453.62 288.23 454.24 287.02 454.68 285.9 454.63 284.54 453.32 279.66 452.97 276.55 453.07 276.01 453.74 273.93 453.82 273.38 453.7 272.73 453.38 272.15 452.54 271.34 451.75 270.99 451.06 270.83 449.07 270.81 448.63 270.74 448.29 270.48 447.99 270.02 447.56 269.08 447 268.38 446.53 267.94 445.97 267.19 445.48 266.16 443.75 261.14 443.23 260.45 442.8 259.98 442.52 259.5 442.51 258.87 442.65 258.51 442.96 258.21 444.22 257.42 444.5 257.09 444.64 256.73 444.66 256.27 444.6 255.71 444.4 254.98 444.41 254.62 444.54 254.28 444.77 254.02 444.99 253.69 445.12 253.34 445.13 252.83 444.19 249.79 444.06 247.42 443.79 246.86 442.65 246.03 442.28 245.42 440.65 234.78 440.82 228.91 440.52 228.1 439.88 227.46 438.58 226.9 437.71 226.8 436.96 226.86 436.44 226.98 435.86 227.05 432.58 226.91 431.67 226.58 431.04 226.01 430.55 224.92 430.47 224.06 431.14 217.59 431.1 216.5 430.95 215.68 430.78 215.16 430.33 214.23 429.72 213.37 428.81 212.3 427.38 211.01 425.87 209.99 424.51 209.27 420.25 208.38 419 207.75 417.62 206.69 415.83 204.73 413.24 202.57 412.78 197.03 411.66 194.33 411.59 193.66 411.73 192.91 412.82 191 413.05 190.32 413.15 189.47 413.07 188.35 413.34 187 414.61 185.34 418.4 184.72 428.17 184.15 430.88 183.35 430.82 181.17 429.01 176.82 428.7 175.52 429.24 174.46 430.35 173.56 432.65 172.16 433.77 171.31 434.43 170.52 435.21 169.27 436.4 168.93 437.4 168.79 438.28 168.87 438.98 169.08 440.54 169.73 441.23 169.92 441.75 169.82 442.18 169.23 442.81 167.79 443.15 167.37 443.6 167.17 445.39 166.89 446.46 166.49 450.56 164.31 451.69 164.12 452.21 164.19 452.51 164.49 452.81 165.29 453.07 165.81 453.55 166.39 454.22 166.95 455.69 167.93 456.25 168.52 456.71 169.35 457.06 170.35 457.48 171.25 458.08 171.91 459.06 172.27 460.45 172.27 462.14 171.97 463.95 171.48 465.21 170.93 465.75 170.2 465.73 169.64 465.45 169.21 464.62 168.47 464.2 167.97 463.96 167.31 463.95 166.62 464.15 165.78 466.22 161.1 466.36 160.56 466.42 159.75 466.33 159.12 466.15 158.45 464.24 155.03 463.98 154.34 463.87 153.87 463.82 152.35 463.98 151.24 464.37 150.14 464.89 149.19 465.66 148.27 466.21 147.75 466.67 147.46 468.32 146.97 469.61 146.76 470.98 146.68 472.34 147.03 474.69 148.28 475.79 148.59 487.73 149.78 488.62 149.67 489.14 149.52 490.29 148.27 491.64 148.13 492.28 147.98 493.04 147.89 493.82 147.94 495.88 148.72 496.46 148.83 496.94 148.84 497.38 148.81 497.95 148.61 498.61 148.21 501.96 145.04 502.91 144.34 505.93 142.56 508.31 141.89 516.08 140.81 527.43 137.96 528.09 137.94 529.85 138.41 530.54 138.24 531.16 137.77 531.96 136.42 532.21 135.05 532.51 131.22 533.26 129.72 534.44 128.41 538.68 125.26 539.96 124.5 541.05 124.17 543.35 123.89 543.97 123.76 544.52 123.57 544.92 123.38 545.79 122.65 546.7 121.57 547.12 120.82 547.5 119.65 548.78 113.05 549.27 111.85 549.79 110.91 550.31 110.26 550.9 109.74 551.51 109.35 552.24 109 553 108.74 553.86 108.6 554.56 108.57 555.25 108.64 555.66 108.86 555.86 109.17 555.58 109.8 555.14 111.08 555.23 112.59 555.78 113.89 555.79 113.91 Z" id="CAF-866" data-name="Haute-Kotto"/>
<path d="M 734.07 268.11 734.11 268.82 733.65 269.43 732.66 271.28 730.72 273.86 729.54 276.33 729.02 276.78 728.4 277.11 727.83 277.52 727.41 278.24 728.57 278.62 728.66 279.52 728.32 280.67 728.18 281.77 728.6 283.03 729.27 283.61 730.2 283.99 731.38 284.66 732.4 285.65 733.87 287.59 735.02 288.33 737.56 288.87 738.52 289.57 738.73 291.15 738.75 292.61 739.31 292.99 740.2 292.94 741.2 293.18 742.01 294.14 742.04 295.31 741.46 296.44 740.45 297.26 739.34 297.88 738.13 298.74 737.13 299.79 736.65 300.98 736.86 302.27 737.83 302 740.3 300.29 741.39 300.6 742.06 301.65 742.56 302.96 743.17 304.06 744.12 304.82 747.7 306.05 749.67 306.31 753.99 306.1 758.35 307.81 759.45 308.51 760.11 309.32 760.46 312.06 760.95 313.14 762.37 313.78 763.79 313.67 764.81 313.31 765.56 313.45 766.14 314.83 766.92 315.89 768.2 315.96 770.87 315.31 771.52 316.01 772.24 317.75 773.37 318.62 773.83 319.55 774.23 319.84 774.8 319.85 775.91 319.49 776.47 319.47 779.04 320.44 779.59 320.84 780.03 321.86 780.06 322.51 780.36 322.96 781.57 323.36 782.44 323.8 783.17 324.59 783.69 325.54 783.87 326.49 783.9 327.04 784.03 327.4 784.32 327.67 785.37 328.39 785.42 328.71 785.27 329.11 785.18 330.17 784.9 331.06 784.94 331.47 785.31 332.05 785.63 332.11 785.92 331.97 786.15 331.91 786.36 331.84 786.7 331.65 787.15 331.61 787.74 332.01 787.98 332.53 787.85 333.6 787.96 334.2 785.48 340.88 785.35 341.82 785.48 342.58 785.98 344.14 786.31 347.15 786.56 348.08 788.19 351.93 789.19 353.74 790.44 355.29 793.94 357.64 795.61 359.04 796.61 361.45 798.38 362.72 799 363.51 797.38 362.9 796.8 362.77 795.95 362.2 795.27 362.06 794.1 362 793.5 361.88 792.98 361.68 792.11 361.06 791.32 360.35 790.48 359.77 789.41 359.52 788.09 359.37 786.68 358.98 781.65 356.5 779.14 355.59 776.53 355.4 773.7 356.22 771.52 357.36 769.68 358.59 767.97 360.1 766.15 362.06 765.86 362.58 765.27 364.04 764.94 364.57 764.24 365.28 763.9 365.54 762.81 365.44 762.75 365.3 762.55 365 762.21 364.71 761.79 364.57 761.4 364.73 760.76 365.38 760.31 365.44 759.91 365.11 757.39 362.45 756.97 362.19 756.09 362.06 753.18 362.06 752.54 362.38 751.7 363.04 751.09 363.36 750.26 363.04 749.75 363.09 749.38 363.73 749.01 363.73 748.52 363.05 747.47 362.91 746.34 363.29 745.63 364.19 745.21 363.73 744.77 364.18 744 364.59 743.19 364.89 742.67 365.02 741.61 364.93 739.94 364.33 739.17 364.19 739.05 363.8 737.9 361.46 737.14 360.88 736.22 360.33 735.35 359.66 734.77 358.72 733.48 359.24 733.07 359.52 732.49 358.8 731.45 358.75 730.29 358.88 728.73 358.6 727.55 358.11 726.42 357.3 725.97 356.22 725.69 356.34 725 356.51 724.72 356.64 724.69 355.67 724.72 355.35 723.95 355.66 723.56 355.14 723.01 353.26 722.82 353.48 722.17 354.06 722 353.8 721.61 353.55 721.34 353.26 720.51 353.62 720.11 353.16 719.71 352.44 718.84 352.01 718.54 352.64 718.21 353.07 717.77 353.26 717.28 353.25 716.91 353.19 716.6 353.07 716.3 352.88 716.5 354.44 716.71 354.93 716.15 354.68 715.61 354.61 715.2 354.86 715.04 355.56 714.72 355.6 714.01 355.59 713.18 355.73 712.54 356.22 711.74 355.65 710.69 354.43 710.04 354.06 709.18 353.92 708.62 354.11 708.35 354.7 708.36 355.77 707.42 355.36 706.35 355.5 705.54 356.2 705.44 357.44 704.35 356.51 703.77 355.39 703.09 354.56 701.68 354.52 701.48 354.89 700.88 355.61 700.26 355.93 699.83 354.72 699.54 354.29 699.36 353.72 699.56 352.88 699.29 353 698.63 353.16 698.34 353.26 698.2 351.77 697.34 351.38 696.79 351.62 697.51 352.01 696.94 352.83 696.1 352.89 695.23 352.51 694.56 352.01 692.86 350.13 692.01 349.51 690.65 349.12 690.57 349.05 690.3 348.93 689.85 348.41 689.5 348.25 688.76 348.4 688.34 348.77 687.87 348.89 687 348.25 687 347.87 687.31 347.66 687.49 347.44 687.65 347.22 687.84 347 686.47 347.02 685.97 346.49 685.77 345.69 685.29 344.91 684.92 344.91 684.11 345.03 683 344.89 682.33 345.08 682.82 346.17 682.1 346.32 680.6 346.91 680.06 346.77 679.41 346.11 679.23 346.02 679.1 346.24 676.36 347.74 675.03 348.05 673.95 347.42 673.32 348.18 672.42 348.47 671.99 348.85 672.78 349.92 671.52 350.32 670.75 351.21 670.37 352.44 670.27 353.87 669.87 354.63 669.09 355.47 668.57 356.51 668.98 357.85 669.41 358.1 670.62 358.32 671.07 358.72 671.11 359.17 670.78 360.38 670.69 361.02 670.49 361.4 669.63 362.45 669.44 363.13 669.38 364.64 669.13 365.25 668.57 365.86 667.63 366.11 664.95 366.36 664.39 366.88 663.67 367.25 659.77 367.49 659.21 367.26 658.79 366.97 658.33 366.74 657.68 366.69 657.2 367.31 656.75 367.72 656.2 367.91 655.93 368.17 655.29 369.39 654.95 370.63 654.42 370.78 652.24 370.15 650.16 369 647.89 368.36 647.2 368.36 646.76 368.59 645.63 369.4 645.3 369.58 643.91 369.86 641.7 371.23 640.49 371.7 639.79 371.64 639.23 371.38 638.73 371.23 638.21 371.47 637.54 372.18 636.89 372.73 636.21 372.81 635.48 372.12 634.47 372.8 633.29 372.88 629.24 372.46 628.63 372.15 628.82 371.52 629.64 370.45 628.79 369.83 626.99 369.25 626.26 368.74 625.92 368.03 625.93 366.81 625.38 366.24 624.61 365.93 623.07 365.7 622.47 365.44 622.09 364.99 621.56 363.83 621.21 363.36 620.03 362.5 618.42 361.67 618.03 361.58 618.04 361.57 618.81 360.92 619.09 360.48 619.19 360.37 619.28 360.3 619.41 360.25 619.58 360.21 619.69 360.2 619.81 360.23 620.03 360.32 620.92 361.05 621.18 361.2 621.47 361.27 621.78 361.23 622.04 361.08 622.5 360.76 622.67 360.6 622.77 360.46 622.84 360.24 622.88 360.04 622.86 359.89 622.77 359.78 622.47 359.61 621.82 359.52 621.55 359.37 621.43 359.07 621.4 358.63 621.62 358.29 621.81 358.1 621.88 357.93 621.86 357.74 621.65 357.43 621.53 357.13 621.61 356.71 621.73 356.39 621.91 356.12 622.15 355.99 622.43 356 622.69 356.12 622.9 356.32 623.08 356.56 623.21 356.8 623.39 356.93 623.51 356.92 623.63 356.69 623.66 355.2 623.72 354.96 623.84 354.83 624.2 354.5 624.4 354.22 624.47 354.09 624.51 353.95 624.52 353.01 624.62 352.76 624.83 352.58 625.06 352.42 625.28 352.22 625.42 351.95 625.49 351.65 625.52 351.37 625.55 351.23 625.63 351.13 625.73 351.1 625.83 351.12 626.02 351.24 626.43 351.61 626.65 351.76 626.92 351.79 627.21 351.73 627.5 351.64 627.86 351.62 628.57 351.66 629.28 351.6 630 351.67 630.91 351.92 631.16 351.94 631.35 351.92 631.5 351.88 631.83 351.74 632.29 351.47 632.59 351.21 632.74 351.02 633.19 350.32 633.32 350.18 633.48 350.06 634.5 349.69 634.63 349.66 634.75 349.68 634.99 349.75 635.25 349.87 635.51 350.02 635.74 350.2 636 350.32 636.26 350.37 636.48 350.29 636.61 350.16 636.68 349.95 636.73 349.29 636.79 348.99 636.95 348.81 637.09 348.73 637.7 348.63 638.06 348.52 638.29 348.42 638.49 348.29 638.61 348.18 639.38 346.96 639.56 346.75 639.79 346.63 640.05 346.67 640.28 346.83 640.47 347.02 640.65 347.18 640.92 347.3 641.2 347.37 641.64 347.58 641.8 347.54 641.87 347.49 641.94 347.4 642.01 347.26 642.37 345.63 642.29 344.04 642.4 343.88 642.52 343.94 642.71 344.13 642.91 344.25 643.08 344.19 643.14 344.04 643.14 343.26 643.24 342.99 643.34 342.84 643.56 342.73 644.4 342.4 644.5 342.1 644.53 341.83 644.52 341.23 644.7 341.11 644.94 341.1 645.74 341.49 646.01 341.51 646.15 341.46 646.6 340.99 646.68 340.94 646.79 340.9 647.29 340.81 647.67 340.7 647.95 340.56 648.07 340.44 648.15 340.34 648.19 340.19 648.13 340.07 647.64 339.57 647.43 339.25 647.38 338.78 647.48 338.54 647.69 338.34 647.93 338.24 648.16 338.18 648.3 338.16 648.43 338.17 648.64 338.19 648.87 338.17 649.03 338.1 649.19 337.96 649.34 337.75 649.44 337.51 649.6 337.27 649.67 337.22 650.41 336.85 650.61 336.64 650.77 336.43 650.95 336.14 650.99 335.98 651.01 335.72 651 335.08 651.03 334.86 651.12 334.56 651.27 334.35 651.51 334.16 652.04 333.86 652.5 333.55 652.56 333.37 652.43 333.26 651.93 333.09 651.17 332.92 651.01 332.77 651.02 332.64 651.24 332.39 652.34 331.83 652.42 331.65 652.34 331.54 651.99 331.29 651.72 330.98 651.51 330.35 651.47 329.89 651.52 329.51 651.7 329.28 651.93 329.11 652.09 328.83 652.11 328.4 651.87 327.58 651.82 327.06 651.87 326.66 652.15 326.12 652.25 325.77 652.3 325.33 652.23 324.67 652.25 324.21 652.32 323.83 652.61 323.3 652.67 322.91 652.64 322.41 652.37 321.59 652.48 321.23 652.7 321.04 653.01 320.94 653.47 320.6 653.76 320.48 654.8 320.42 655.11 320.32 655.41 320.21 655.65 320.03 655.83 319.8 656.24 318.98 656.42 318.75 656.65 318.58 656.95 318.54 657.22 318.63 657.45 318.8 657.62 319.04 658.36 320.56 658.57 320.59 658.69 320.39 658.77 320.07 658.88 319.35 658.98 319.05 659.11 318.81 659.2 318.5 659.21 318.17 659.14 317.44 659.24 316.31 659.76 314.68 660.84 313.05 660.99 312.18 660.64 311.22 659.42 309.66 658.35 309.19 657.58 309.05 656.96 309.19 656.39 309.19 655.81 308.94 655.35 308.3 655.12 307.72 654.77 307.07 654.34 306.42 653.37 305.32 653.06 304.73 652.94 304.24 652.96 303.88 652.8 303.49 652.43 303.16 651.8 303 650.66 303.02 650.23 302.85 649.24 301.31 641.39 294.42 640.6 293.33 640.67 293.02 640.97 292.88 643.07 293.62 644.15 293.89 645.18 294 646.06 293.83 647.36 292.94 648 292.63 649.21 292.27 649.6 292.05 649.79 291.76 650.15 290.19 650.52 289.38 651.06 288.99 651.76 288.84 652.89 288.84 653.67 288.6 654.13 288.11 654.3 287.23 654.27 286.17 654.1 285.4 653.55 284.58 652.79 283.76 649.98 281.41 647.82 279.92 646.25 279.2 645.21 278.45 643.64 277.09 642.84 276.67 641.65 276.5 638.22 276.79 637.27 277.04 635.89 277.88 632.18 281.5 631.08 282.27 630.18 282.49 628.37 282.21 627.45 282.21 626.64 282.48 626.02 282.81 621.79 279.38 604.58 260.67 605.09 259.44 605.36 259.36 605.77 259.3 606.25 259.33 607.13 259.17 607.41 258.92 607.43 258.7 607.21 258.57 607 258.42 606.77 257.86 606.64 257.58 606.39 257.37 606.19 257.1 606.16 256.6 606.34 256.33 606.65 256.19 607.36 256.07 607.69 255.95 608.02 255.75 608.69 255.14 608.75 254.83 608.67 254.05 608.82 253.4 609.1 253.11 609.46 252.93 609.81 252.8 609.89 252.57 609.78 252.37 609.51 252.23 609.21 252.13 608.96 251.96 608.79 251.72 608.58 251.1 608.31 249.69 608.56 249.33 609.77 248.15 610.25 247.81 610.71 247.65 611.39 247.75 611.76 247.76 613.53 247.02 613.86 246.98 614.52 247.03 615.21 247.02 615.51 247.09 615.77 247.23 616.07 247.33 616.39 247.39 617.4 247.29 618.83 246.85 619.06 246.66 620.03 245.22 620.37 244.93 620.7 244.87 621.27 245.11 621.65 245.12 621.92 244.85 622.49 243.59 622.56 243.09 622.56 242.66 622.39 241.59 622.29 241.27 621.87 240.46 621.78 240.11 621.78 239.65 622.41 237.82 622.49 237.49 622.53 237.13 622.53 236.75 622.49 236.39 622.42 236.04 622.43 235.57 622.51 234.98 622.82 233.99 622.91 233.44 622.87 233.03 622.69 232.79 622.45 232.61 621.87 232.37 621.65 232.19 621.52 231.93 621.56 231.59 621.68 231.16 621.74 230.79 621.69 230.47 621.5 230.29 621.23 230.24 620.69 230.45 620.41 230.52 620.2 230.36 620.12 230.01 620.32 229.27 620.39 228.82 620.37 228.42 620.27 228.13 620.14 227.86 620.02 227.55 619.95 227.22 619.91 226.76 619.99 226.11 620.32 224.87 621.32 222.54 622 221.6 622.4 220.52 623.14 219.59 624.22 217.11 624.62 216.42 624.97 215.95 624.94 215.79 624.74 215.67 624.16 215.44 623.68 215.14 623.29 214.94 623.08 214.8 622.94 214.57 622.83 214.19 622.98 213.8 622.89 213.55 622.68 213.39 622.39 213.28 622.08 213.12 621.84 212.89 621.03 210.52 620.68 209.94 619.95 209.15 619.62 208.66 619.47 208.4 619 206.81 619.25 201.76 619.18 201.53 618.96 201.09 618.8 200.86 618.61 200.64 618.46 200.16 618.38 199.48 618.48 198 618.42 197.27 618.23 196.5 617.72 195.45 617.32 194.27 617.05 192.85 616.85 190.37 616.69 189.72 616.49 189.16 616.32 188.53 617.69 182.43 617.72 180.84 617.55 179.93 616.75 179.43 616.38 179.14 615.77 178.45 615.4 178.16 615.04 177.94 614.69 177.55 614.41 176.92 614.19 175.59 613.89 174.82 613.5 174.32 613.05 174.14 612.01 173.89 611.34 173.64 610.34 173.04 607.01 170.3 604.72 168.03 605.81 168.15 606.7 168.15 607.14 168.22 607.6 168.45 608.61 169.25 608.93 169.42 612.87 168.07 614.98 167.85 616.44 169.24 616.68 169.79 617.01 170.19 617.46 170.45 618.06 170.59 619.98 171.78 621.93 171.84 626.22 171.17 629.64 171.8 630.84 171.81 632.07 171.95 634.01 173.02 637.55 173.42 639.5 174.31 644.75 179.12 645.35 180.1 645.49 182.27 646.74 183.56 646.87 184.65 647.2 185.1 647.61 185.51 648.09 185.85 648.62 186.13 651.55 189.4 653.38 190.79 655.24 191.48 656.08 191.43 657.98 191.01 658.84 191.01 660.35 191.25 660.8 191.53 661.1 191.91 661.47 192.24 663.02 192.75 663.8 193.51 664.4 194.47 665.02 196.4 665.93 198.03 666.26 199.07 666.31 199.96 666.07 202.59 666.31 203.51 666.66 204.35 666.84 205.26 666.57 206.33 665.2 207.52 661.16 208.89 659.86 210.12 659.82 210.89 660.1 211.88 661.4 214.93 665.04 216.84 665.86 217.39 666.24 217.81 666.83 218.78 667.19 219.19 667.67 219.46 668.69 219.77 669.09 220.07 669.58 220.94 669.97 222.7 670.3 223.59 670.96 224.48 671.77 225.06 675.2 226.76 677.58 228.57 679.18 229.3 680.35 228.9 681.35 229.07 682.26 229.64 685.01 232.14 685.98 232.66 689.74 233.63 690.89 234.09 692.37 235.27 692.86 235.4 694.05 235.38 694.66 235.64 695.62 236.61 696.3 236.79 697.82 236.85 698.15 237.36 698.16 238.17 698.71 239.16 699.63 239.47 702.38 239.73 703.4 240.21 703.66 240.69 703.81 241.84 704.09 242.4 706.02 243.49 706.64 243.65 707.86 243.83 708.48 244.08 708.83 244.51 708.86 244.97 709.03 245.36 709.74 245.55 712.49 245.78 712.87 247.16 713.08 250.32 713.67 251.71 713.98 251.89 714.37 251.84 714.77 251.74 715.12 251.74 715.39 251.98 715.36 252.31 715.24 252.69 715.27 253.06 715.52 253.85 715.62 254.54 715.84 255.21 716.47 255.94 717.85 256.79 718.95 257.08 719.92 257.51 721.82 259.88 724.31 261.62 725.33 262.69 727.44 263.76 731.05 265.1 734 266.77 734.07 268.11 Z" id="CAF-867" data-name="Haut-Mbomou"/>
<path d="M 618.03 361.58 616.73 361.27 615.33 361.68 615.1 362.37 615.13 363.22 614.96 363.71 614.12 363.36 613.78 362.83 613.18 361.02 612.86 360.36 612.02 361.24 611.12 362.67 610.71 363.99 611.37 364.57 612.89 364.89 613 365.63 612.24 366.47 611.16 367.07 606.76 367.63 606.15 368.14 606.03 368.3 605.32 370.03 605.12 370.74 605.11 371.31 605 371.76 604.48 372.12 604.1 372.12 603.68 370.64 602.68 370.21 601.45 370.51 600.3 371.25 598.59 373.47 597.97 373.79 597.14 373.61 595.96 372.79 595.26 372.54 594.11 372.71 593.06 373.32 591.5 374.62 588.37 376.08 587.29 376.75 586.38 375.86 586.01 375.73 585.62 375.92 585.36 376.29 585.16 376.9 585.13 377.58 585.42 378.19 585.47 378.98 584.01 378.97 581.41 378.42 580.97 378.53 580.34 379.08 579.78 379.25 579.33 379.2 578.13 378.88 577.42 378.8 576.31 379.16 573.96 380.83 572.61 381.34 569.86 381.69 568.62 382.06 566.26 383.41 563.45 384.1 562.13 384.68 558.44 387.61 557.36 388.02 555.93 388.18 554.91 388.65 554.22 389.44 553.79 390.52 553.68 391.23 553.69 391.76 553.63 392.2 553.33 392.65 552.84 392.85 551.71 392.8 551.24 393.06 550.19 392.45 549.14 392.07 548.03 391.87 546.84 391.81 546.64 391.66 545.96 390.96 545.82 390.75 545.54 390.6 544.2 390.33 543.69 390.14 542.9 388.44 541.21 387.39 541 387.18 540.26 386.75 538.73 384.63 537.82 383.84 535.07 385.22 533.58 385.46 532.23 384.89 531.57 384.33 530.87 383.86 530.11 383.55 529.29 383.43 528.56 383.09 528.18 382.28 527.94 381.38 527.27 380.09 526.63 378.44 526.12 377.96 525.36 377.9 524.63 378.18 523.92 378.55 523.2 378.8 522.32 378.77 521.75 378.58 521.29 378.62 520.7 379.25 520.34 380.01 520.31 380.76 520.58 381.49 521.12 382.18 520.61 382.78 519.27 383.81 518.57 385.48 517.55 385.3 516.38 384.67 515.45 384.3 514.42 384.67 513.83 385.56 513.14 387.64 512.67 388.57 512.14 389.34 511.48 389.98 510.6 390.52 510.62 391.24 510.98 392.48 511.07 393.06 510.91 393.49 510.32 394.56 510.19 394.94 510 395.27 509.17 395.89 508.98 396.21 508.99 397.66 508.86 398.31 508.52 398.91 507.67 399.33 506.37 399.45 503.68 399.36 502.59 400.01 502.25 401.49 502.38 403.17 502.68 404.37 503.74 405.62 503.89 406.08 503.62 406.75 503.04 407.41 502.32 407.92 501.61 408.13 501.13 408.7 499.34 411.96 499.37 412.65 499.73 413.93 499.76 414.47 499.41 415.07 498.29 416.04 498.05 416.32 497.58 417.27 496.49 418.33 494.33 419.85 493.97 420 492.77 420.49 492.21 420.72 484.91 421.1 479.04 419.78 477.66 418.9 476.27 418.38 475.64 417.99 474.5 416.82 474.19 416.55 473 416.14 469.9 415.54 468.61 414.94 468.61 414.93 468.7 414.83 468.7 413.71 468.98 413.1 469.45 412.63 469.99 411.95 470.41 411.14 470.53 410.56 470.28 407.52 470.35 406.76 470.58 406.25 471.88 404.88 472.07 404.57 472.32 403.32 472.94 402.26 474.54 400.15 475.36 397.64 474.42 396.3 472.41 395.86 469.99 396.01 466.43 397.22 465.59 397.04 465.01 396.81 463.34 396.63 462.85 396.39 462.8 395.85 463.6 394.97 463.69 394.34 463.02 393.33 462.04 392.72 461.16 392.03 460.77 390.74 460.9 390.58 461.17 390.35 461.35 390.05 461.22 389.67 460.89 389.6 460.44 389.74 460.05 389.97 459.93 390.13 459.26 389.47 458.97 389.06 458.68 388.42 457.76 388.89 457 388.8 455.76 388 455.54 387.07 455.27 386.7 454.31 387.16 453.99 387.01 453.76 386.68 453.64 386.34 453.26 386.34 452.52 386.88 451.52 386.85 450.64 386.3 450.26 385.29 450.46 384.78 450.85 384.41 451.11 384.06 450.66 383.08 450.76 382.54 451 382.02 451.33 380.6 452.22 379.54 452.42 378.59 453.03 372.15 453.41 371.3 455.69 368.58 456.17 367.51 456.14 366.23 455.55 365.22 453.83 363.44 453.64 362.47 454.05 361.83 456.14 359.96 457.93 358.97 458.75 358.25 459.1 357.21 459.8 353.77 459.93 347.2 460.05 346.54 460.61 345.64 460.77 344.9 460.73 344.61 460.62 344.46 460.47 344.33 460.35 344.03 460.36 343.42 460.21 341.84 460.32 338.83 460.35 337.98 463.69 335.23 464.79 333.88 464.98 333.77 465.24 333.54 466.39 333.11 467.29 332.43 468.44 331.12 469.02 330.03 467.9 330.22 468.22 328.92 469.23 328.71 470.5 328.84 471.62 328.55 471.13 326.74 471.01 326.46 469.76 324.97 469.53 324.54 469.65 323.26 469.94 322.58 470.34 322 470.79 321 471.05 318.86 470.82 314.45 471.24 312.61 473.31 310.25 473.52 308.97 473.05 308.38 472.94 307.95 473.33 307.62 474.03 307.18 474.91 306.42 480.72 303.15 481.52 302.87 482.43 302.88 482.9 303.13 483.3 303.58 483.62 304.01 484.07 304.32 484.6 304.39 486.87 304.01 487.59 304 488.36 304.13 489 304.3 489.81 304.24 490.85 303.82 494.33 301.84 495.24 301.04 495.82 300.25 496.6 298.91 497.51 295.67 498.53 293.51 499.44 292.52 500.61 291.75 508.29 290.25 509.53 290.34 511.33 290.69 512.31 290.67 514.9 290.16 515.84 290.09 516.58 290.19 517.07 290.42 517.47 290.7 517.72 290.97 518.03 291.47 518.7 292.9 519.84 294.05 521.71 295.38 526.32 296.96 542.28 300.88 544.05 300.72 545.27 300.33 545.46 299.86 545.49 299.48 545.39 298.77 545.41 298.43 545.47 298.11 545.58 297.83 545.63 297.54 545.58 297.26 545.47 296.98 545.39 296.66 545.38 296.33 545.55 295.96 545.85 295.59 546.42 295 546.77 294.2 546.97 293.92 547.32 293.73 548 293.65 548.39 293.75 548.97 294.03 549.32 294.08 549.67 294.06 550.38 293.94 550.77 293.92 551.24 293.79 551.74 293.54 552.41 292.9 552.7 292.44 552.82 291.97 552.88 291.22 552.97 290.89 553.08 290.6 553.57 289.85 554.15 289.19 554.3 288.94 555.14 288.27 604.58 260.67 621.79 279.38 626.02 282.81 626.64 282.48 627.45 282.21 628.37 282.21 630.18 282.49 631.08 282.27 632.18 281.5 635.89 277.88 637.27 277.04 638.22 276.79 641.65 276.5 642.84 276.67 643.64 277.09 645.21 278.45 646.25 279.2 647.82 279.92 649.98 281.41 652.79 283.76 653.55 284.58 654.1 285.4 654.27 286.17 654.3 287.23 654.13 288.11 653.67 288.6 652.89 288.84 651.76 288.84 651.06 288.99 650.52 289.38 650.15 290.19 649.79 291.76 649.6 292.05 649.21 292.27 648 292.63 647.36 292.94 646.06 293.83 645.18 294 644.15 293.89 643.07 293.62 640.97 292.88 640.67 293.02 640.6 293.33 641.39 294.42 649.24 301.31 650.23 302.85 650.66 303.02 651.8 303 652.43 303.16 652.8 303.49 652.96 303.88 652.94 304.24 653.06 304.73 653.37 305.32 654.34 306.42 654.77 307.07 655.12 307.72 655.35 308.3 655.81 308.94 656.39 309.19 656.96 309.19 657.58 309.05 658.35 309.19 659.42 309.66 660.64 311.22 660.99 312.18 660.84 313.05 659.76 314.68 659.24 316.31 659.14 317.44 659.21 318.17 659.2 318.5 659.11 318.81 658.98 319.05 658.88 319.35 658.77 320.07 658.69 320.39 658.57 320.59 658.36 320.56 657.62 319.04 657.45 318.8 657.22 318.63 656.95 318.54 656.65 318.58 656.42 318.75 656.24 318.98 655.83 319.8 655.65 320.03 655.41 320.21 655.11 320.32 654.8 320.42 653.76 320.48 653.47 320.6 653.01 320.94 652.7 321.04 652.48 321.23 652.37 321.59 652.64 322.41 652.67 322.91 652.61 323.3 652.32 323.83 652.25 324.21 652.23 324.67 652.3 325.33 652.25 325.77 652.15 326.12 651.87 326.66 651.82 327.06 651.87 327.58 652.11 328.4 652.09 328.83 651.93 329.11 651.7 329.28 651.52 329.51 651.47 329.89 651.51 330.35 651.72 330.98 651.99 331.29 652.34 331.54 652.42 331.65 652.34 331.83 651.24 332.39 651.02 332.64 651.01 332.77 651.17 332.92 651.93 333.09 652.43 333.26 652.56 333.37 652.5 333.55 652.04 333.86 651.51 334.16 651.27 334.35 651.12 334.56 651.03 334.86 651 335.08 651.01 335.72 650.99 335.98 650.95 336.14 650.77 336.43 650.61 336.64 650.41 336.85 649.67 337.22 649.6 337.27 649.44 337.51 649.34 337.75 649.19 337.96 649.03 338.1 648.87 338.17 648.64 338.19 648.43 338.17 648.3 338.16 648.16 338.18 647.93 338.24 647.69 338.34 647.48 338.54 647.38 338.78 647.43 339.25 647.64 339.57 648.13 340.07 648.19 340.19 648.15 340.34 648.07 340.44 647.95 340.56 647.67 340.7 647.29 340.81 646.79 340.9 646.68 340.94 646.6 340.99 646.15 341.46 646.01 341.51 645.74 341.49 644.94 341.1 644.7 341.11 644.52 341.23 644.53 341.83 644.5 342.1 644.4 342.4 643.56 342.73 643.34 342.84 643.24 342.99 643.14 343.26 643.14 344.04 643.08 344.19 642.91 344.25 642.71 344.13 642.52 343.94 642.4 343.88 642.29 344.04 642.37 345.63 642.01 347.26 641.94 347.4 641.87 347.49 641.8 347.54 641.64 347.58 641.2 347.37 640.92 347.3 640.65 347.18 640.47 347.02 640.28 346.83 640.05 346.67 639.79 346.63 639.56 346.75 639.38 346.96 638.61 348.18 638.49 348.29 638.29 348.42 638.06 348.52 637.7 348.63 637.09 348.73 636.95 348.81 636.79 348.99 636.73 349.29 636.68 349.95 636.61 350.16 636.48 350.29 636.26 350.37 636 350.32 635.74 350.2 635.51 350.02 635.25 349.87 634.99 349.75 634.75 349.68 634.63 349.66 634.5 349.69 633.48 350.06 633.32 350.18 633.19 350.32 632.74 351.02 632.59 351.21 632.29 351.47 631.83 351.74 631.5 351.88 631.35 351.92 631.16 351.94 630.91 351.92 630 351.67 629.28 351.6 628.57 351.66 627.86 351.62 627.5 351.64 627.21 351.73 626.92 351.79 626.65 351.76 626.43 351.61 626.02 351.24 625.83 351.12 625.73 351.1 625.63 351.13 625.55 351.23 625.52 351.37 625.49 351.65 625.42 351.95 625.28 352.22 625.06 352.42 624.83 352.58 624.62 352.76 624.52 353.01 624.51 353.95 624.47 354.09 624.4 354.22 624.2 354.5 623.84 354.83 623.72 354.96 623.66 355.2 623.63 356.69 623.51 356.92 623.39 356.93 623.21 356.8 623.08 356.56 622.9 356.32 622.69 356.12 622.43 356 622.15 355.99 621.91 356.12 621.73 356.39 621.61 356.71 621.53 357.13 621.65 357.43 621.86 357.74 621.88 357.93 621.81 358.1 621.62 358.29 621.4 358.63 621.43 359.07 621.55 359.37 621.82 359.52 622.47 359.61 622.77 359.78 622.86 359.89 622.88 360.04 622.84 360.24 622.77 360.46 622.67 360.6 622.5 360.76 622.04 361.08 621.78 361.23 621.47 361.27 621.18 361.2 620.92 361.05 620.03 360.32 619.81 360.23 619.69 360.2 619.58 360.21 619.41 360.25 619.28 360.3 619.19 360.37 619.09 360.48 618.81 360.92 618.04 361.57 618.03 361.58 Z" id="CAF-868" data-name="Mbomou"/>
</g>
</svg>