<?xml version="1.0"?>
<svg xmlns="http://www.w3.org/2000/svg" version="1.2" baseProfile="tiny" width="800" height="773" viewBox="0 0 800 773" stroke-linecap="round" stroke-linejoin="round">
<g id="ne_10m_admin_1_states_provinces">
<path d="M 299.59 428.17 301.77 430.01 303.4 432.36 304.41 436.08 304.96 440 306.69 442.86 309.75 444 312.24 446.4 313.93 449.57 315.07 451.22 316.47 452.66 320.59 453.9 321.5 455.56 321.73 457.5 323.01 460.5 323.29 463.44 324.46 464.12 325.87 464.49 328.86 466.6 332.11 468.05 333.96 469.28 335.12 470.61 334.09 472.6 332.66 474.31 330.7 478.91 329.06 481.69 327.11 484.26 325.8 486.91 325.18 489.83 326.22 491.92 328.96 492.28 362.33 490.61 366.01 490.91 376.63 493.41 379.27 495.25 382.33 496.25 401.75 499.32 402.46 501.5 402.2 503.34 404.11 503.67 407.56 503.39 410.82 504.54 412.79 506.53 411.05 508.87 407.92 511.29 403.97 512.46 402.23 514.59 399.65 520.53 397.77 523.64 395.24 525.57 392.21 526.58 389.58 529.02 387.54 532.12 386.05 535.1 387.19 538.01 388.72 540.24 389.89 542.69 389.05 547.37 387.25 552.04 385.64 553.15 383.29 552.87 380.61 553.85 378.3 555.46 376.43 559.2 373.91 561.86 370.59 563.17 366.89 563.25 360.01 562.27 352.85 564.01 348.72 564.1 344.53 563.73 340.89 565.2 340.16 567.26 338.15 567.91 332.86 566.1 328.96 566.87 326 569.49 321.89 576.14 322.3 579.55 324.69 582.28 326.35 585.31 327.56 588.55 326.03 589.36 325.64 590.85 328.08 591.38 328.87 592.34 329.06 594.58 330.67 596.64 334.59 603.35 336.76 606.3 338.1 606.87 339.55 607.07 342.43 609.93 342.15 612.27 339.93 610.82 337.44 609.92 336.27 610.95 335.4 611.94 333.71 613.33 332.64 615.13 333.97 618.33 333.84 619.58 333.34 621.74 333.29 623.06 333.03 623.99 332.44 624.72 331.38 625.41 331.38 625.9 330.2 627.17 329.36 626.57 328.59 625.15 326.86 623.7 324.83 622.5 323.15 621.82 321.29 620.61 319.46 618.78 317.49 617.57 315.19 618.2 313.29 619.26 311.47 619.5 311.43 619.49 309.55 619.17 307.36 618.48 304.93 618.23 303.19 618.95 301.5 619.93 299.27 620.46 296.29 620.25 294.91 619.83 293.8 619.06 292.94 617.72 291.7 615.06 290.38 613.82 286.35 610.98 285.06 610.54 284.43 610.66 283.29 611.4 282.68 611.59 281.82 611.51 280.33 611.06 279.33 611.07 278.85 611.3 277.87 612.11 277.22 612.33 276.95 612.18 274.85 611.35 272.92 610.93 272.26 610.67 267.85 607.28 264.26 603.75 263 603.02 261.61 603.08 260.24 603.77 259.14 604.94 258.03 604.24 252.68 602.23 249.35 600.04 248.82 599.94 247.58 600.07 247.05 599.88 246.64 599.35 246.41 598.27 246.15 597.72 245.15 596.66 244.25 596.18 239.11 595.75 232.95 594.42 230.25 594.2 229.28 593.56 228.25 591.99 226.86 588.73 226.07 587.73 223.47 586 220.57 585.29 211.23 585.47 209.7 585.28 208.26 584.78 206.85 583.73 204.21 581.08 203.54 580.72 203.57 580.26 202.91 575.97 203.6 575.13 204.75 574.99 203.83 572.09 201.04 569.54 199.42 568.4 198.13 566.97 199.6 564.94 197.05 562.31 193.75 560.1 195.27 557.23 204.2 554.06 208.34 551.56 213.71 544.79 214.04 536.7 212.8 532.81 213.04 528.73 215.68 525.57 220.09 525.42 229.09 519.36 230.97 520.24 231.27 521.67 230.97 523.81 232.05 525.59 232.12 527.72 232.46 529.79 238.44 537.31 241.42 537.56 244.2 537.2 246.89 537.7 246.34 533 229.77 511.05 226.41 507.69 213.1 498.87 193.83 488.85 192.57 486.34 194.55 480.19 197.36 474.4 199.87 470.59 207.23 467.8 209.84 462.71 212.7 454.92 212.74 447.33 229.06 441.73 232.74 439.7 237.75 439.82 242.62 438.99 244.48 437.63 249.09 430.26 249.92 428.46 251.71 427.74 254.85 428.06 257.27 426.53 258.98 424.97 261.25 424.16 267.41 422.73 273.26 424.45 278.23 427.77 284.01 429.08 299.59 428.17 Z" id="TZA-3335" data-name="Mbeya"/>
<path d="M 193.83 488.85 213.1 498.87 226.41 507.69 229.77 511.05 246.34 533 246.89 537.7 244.2 537.2 241.42 537.56 238.44 537.31 232.46 529.79 232.12 527.72 232.05 525.59 230.97 523.81 231.27 521.67 230.97 520.24 229.09 519.36 220.09 525.42 215.68 525.57 213.04 528.73 212.8 532.81 214.04 536.7 213.71 544.79 208.34 551.56 204.2 554.06 195.27 557.23 193.75 560.1 197.05 562.31 199.6 564.94 198.13 566.97 199.42 568.4 201.04 569.54 203.83 572.09 204.75 574.99 203.6 575.13 202.91 575.97 203.57 580.26 203.54 580.72 202.72 580.29 202.07 580.26 200.69 580.58 200.02 580.64 199.27 580.43 197.21 579.24 195.38 578.98 194.24 579.46 193.2 580.23 191.71 580.84 188.67 580.12 187.21 577.3 187.21 573.76 188.56 570.85 177.87 567.95 176.21 568.09 173.76 569.41 172.29 569.92 170.85 569.92 169.63 569.45 162.73 564.19 161.08 561.99 160.54 558.93 160.55 556.25 160.05 554.43 158.62 553.24 155.86 552.46 154.72 551.74 153.18 549.98 152.05 549.4 150.97 549.32 150 549.42 149.07 549.34 148.12 548.71 147.87 548.21 147.64 546.91 147.37 546.45 146.73 546.08 146.5 546.18 146.32 546.46 145.81 546.66 144.98 546.84 141.27 548.15 140.71 548.51 140.11 548.72 139.18 548.57 138.42 548 137.06 546.19 136.22 545.62 134.5 545.62 132.97 546.41 131.51 547.45 129.99 548.19 126.98 548.17 123.81 547.02 120.85 545.27 118.5 543.45 113.64 538.34 109.08 531.81 105.5 524.71 103.62 517.9 101.9 511.44 96.65 498.77 81.36 475.03 79.43 468.26 78.73 463.54 76.19 454.52 70.8 442.98 91.12 428.37 98.93 426.03 114.55 425.25 120.8 427.59 123.93 436.97 123.93 443.22 127.05 447.9 137.21 448.68 148.92 449.46 152.83 454.15 153.61 461.96 155.17 472.9 156.74 483.05 166.11 484.62 177.83 486.18 193.83 488.85 Z" id="TZA-3336" data-name="Rukwa"/>
<path d="M 717.16 378.18 717.09 377.75 716.87 376.27 715.61 374.94 714.89 373.32 714.76 371.49 715.2 365.86 714.83 364.44 714.72 362.99 719.93 362.64 722.68 360.83 723.08 360.59 723.08 360.59 723.16 360.72 723.95 364 724.39 364.25 725.91 364.49 726.07 365.46 725.89 366.33 725.58 367.22 725.42 368.19 725.46 369.33 725.6 370.2 725.89 371 726.4 371.88 725.55 372.94 725.18 373.52 724.93 374.33 725.97 373.9 726.61 374.33 727.16 375.14 727.87 375.76 727.93 374.7 728.4 374 728.98 373.95 729.33 374.82 729.66 374.78 729.75 374.74 729.75 374.61 729.84 374.33 730.99 374.63 731 373.14 730.66 371.01 730.82 369.44 732.06 371.08 732.71 373.11 734.04 383.59 734.3 384.24 736.23 387.64 735.9 390.74 734.1 392.89 731.53 393.75 728.89 392.98 727.85 392.05 726.88 390.79 726.18 389.35 724.77 383.24 724.93 382.17 723.32 382.66 723.33 383.44 724.01 384.38 724.44 385.36 724.36 386.97 724.01 387.36 722 386.62 722.32 385.24 721.91 384.14 720.04 382.17 717.79 378.7 717.16 378.18 Z" id="TZA-3337" data-name="Zanzibar South and Central"/>
<path d="M 290.49 85.76 299.63 103.07 301.76 105.9 307.25 112.25 310.4 115.36 313.01 117.68 316.27 119.17 319.55 121.18 321.27 124.46 321.03 126.5 319.64 127.89 318.2 127.81 316.94 128.34 314.21 130.48 309.27 129.04 307.3 130.31 305.59 130.8 304.38 131.88 303.29 133.21 301.59 133.63 300.56 135.45 302.78 143.49 302.17 146.38 300.11 152.6 299.63 156.01 298.69 158.23 296.9 159.91 295.14 165.08 291.23 167.44 288.4 168.26 285.33 168.68 282.64 168.04 280.15 168.92 277.43 174.24 272.7 176.46 271.01 175.47 269.6 174.09 268.26 173.48 266.79 173.29 264.58 172.16 262.23 171.46 260.31 169.95 259.17 167.32 257.14 165.39 254.93 163.72 252.85 164.15 250.49 164.9 248.63 164.37 247.19 165.23 246.11 167.49 243.99 168.49 241.93 168.36 241.42 170.33 240.41 173.03 240.75 175.29 242.42 175.56 242.34 177.55 239.67 177.46 233.92 173.96 231.38 172.05 231.35 168.38 231.88 164.39 231.28 161.73 229.71 159.62 235.9 142.59 229.64 137.34 231.46 131.89 218.95 124.63 222.78 117.36 210.67 115.34 208.45 112.32 204.75 111.07 201.79 109.09 197.15 106.06 191.7 103.24 189.69 101.62 188.48 99.4 188.68 97.59 187.87 95.97 186.46 94.61 186.18 92.34 185.61 88.65 184.3 84.34 243.58 35.63 244.79 36.69 288.8 35.98 297.52 39.39 298.28 43.06 297.94 46.98 298.12 50.96 297.47 54.68 295.61 53.14 292.43 52.79 289.42 54.98 286.38 61.84 286.68 62.92 287.69 64.41 287.13 65.38 287.06 65.9 287.11 66.96 286.84 67.08 285.1 68.16 287.36 69.75 290.12 68.34 292.97 66.36 295.47 66.2 295.67 65.47 296.21 65.14 297.01 65.1 297.92 65.22 297.44 66.09 297.86 66.67 299.39 67.67 299.96 68.48 299.84 68.87 297.92 70.12 300.99 70.41 303.84 71.1 303.7 71.39 303.66 71.44 303.58 71.44 303.31 71.59 303.85 71.82 304.04 71.96 304.25 71.92 304.82 71.59 305.93 72.8 305.61 73.84 304.77 74.8 304.29 75.79 303.74 75.57 300.41 75.55 295.75 72.38 293.49 71.74 291.51 73.59 293.51 76.53 292.5 76.78 292.26 77.04 292.04 77.55 289.23 75.1 288.06 74.91 288.08 77.02 287.59 77.02 287.08 75.95 286.1 74.55 285.01 73.77 284.16 74.57 285.24 75.09 285.78 76 285.8 76.99 285.31 77.77 284.96 77.49 283.19 77.02 283.2 77.11 281.18 77.02 280.83 76.93 280.67 76.72 280.52 76.8 280.21 77.55 280.37 77.56 280.54 78.16 280.67 78.93 280.7 79.47 280.44 80.22 279.78 81.21 279.72 81.96 279.87 82.56 280.12 83.08 280.7 83.92 281.99 82.45 283.41 81.7 285.08 81.7 287.11 82.45 288.96 83.47 289.73 84.21 290.04 85.14 290.49 85.76 Z" id="TZA-3357" data-name="Mwanza"/>
<path d="M 295.14 165.08 298.86 165.51 302.28 168.55 307.41 173.3 313.68 176.34 317.29 177.29 319.95 176.72 322.42 175.39 324.51 176.34 326.6 180.33 330.02 182.42 335.34 182.99 341.99 183.18 347.87 184.89 350.15 188.68 352.62 196.85 355.66 203.88 359.65 209.01 362.69 211.86 366.13 214.34 364.32 216.28 359.97 217.41 357.23 219.76 355.17 219.47 353.53 220.36 352.58 222.09 350.61 222.14 348.16 221.13 345.59 220.95 344.14 220.53 343.04 219.49 341.65 218.93 340.02 219.41 337.72 219.36 335.38 218.73 333.43 217.34 331.96 215.37 330.06 214.19 327.79 213.88 323.48 213.75 318.11 211.91 315.65 211.98 313.28 212.36 311.85 211.25 311.53 209.42 307.52 208.51 303.38 209.55 301.4 210.26 296.53 210.27 292.52 209.22 284.23 211.22 277.86 214.22 274.05 214.4 269.76 214.05 266.51 211.33 263.6 210.35 260.15 211.84 255.04 210.73 253.8 211.36 252.78 212.4 248.17 214.38 244.23 215.69 245.02 219.79 243.96 223.72 242.25 223.98 241.44 225.28 240.21 226.37 239.69 227.63 240.93 229.09 242.37 230.36 245.58 231.45 244.26 235.26 237.3 237.31 235.58 237.37 235.46 236.16 235.55 234.82 234.77 232.79 233.43 231.37 231.05 230.27 228.53 231.81 226.64 232.11 225.5 233.95 225.01 236.77 225.5 239.48 225.24 241.03 224.13 241.89 222.29 244.2 219.71 244.74 216.84 243.38 214.12 241.7 208.26 239.87 202.31 241.03 196.42 245.5 191.08 247.99 191.62 245.26 191.82 242.29 190.8 238.75 190.51 235.06 190.69 231.16 190.18 227.47 188.08 225.48 185.67 223.74 179.3 222.43 170.92 219.86 169.94 214.85 170.95 210.31 174.98 204.26 181.29 198.71 188.85 195.18 196.17 194.17 202.73 193.66 203.74 188.11 202.48 181.05 201.47 173.74 202.98 168.94 206.08 164.95 208.31 163.17 211.04 162.38 213.21 163.88 213.83 166.56 215.68 168.08 217.94 168.31 219.1 165.93 220.79 163.97 222.92 162.24 227.39 160.08 229.71 159.62 231.28 161.73 231.88 164.39 231.35 168.38 231.38 172.05 233.92 173.96 239.67 177.46 242.34 177.55 242.42 175.56 240.75 175.29 240.41 173.03 241.42 170.33 241.93 168.36 243.99 168.49 246.11 167.49 247.19 165.23 248.63 164.37 250.49 164.9 252.85 164.15 254.93 163.72 257.14 165.39 259.17 167.32 260.31 169.95 262.23 171.46 264.58 172.16 266.79 173.29 268.26 173.48 269.6 174.09 271.01 175.47 272.7 176.46 277.43 174.24 280.15 168.92 282.64 168.04 285.33 168.68 288.4 168.26 291.23 167.44 295.14 165.08 Z" id="TZA-3358" data-name="Shinyanga"/>
<path d="M 357.23 219.76 356.98 222.9 356.41 224.19 355.71 225.34 355.19 227.61 352.93 227.83 350.64 227.06 348.97 228.47 345.28 234.81 342.18 241.46 333.66 252.46 332.11 259 332.91 265.06 333.06 271.22 330.49 278.14 330.54 281.74 331.74 285.17 332.35 287.98 330.32 293.6 330.75 296.61 331.46 299.64 333.55 301.75 337.19 303.1 340.42 305.02 342.73 306.88 345.19 308.46 351.55 314.86 353.11 316.81 351.1 319.93 348.43 322.64 343.77 326.58 340.6 331.41 342.17 333.27 344.33 334.87 344.55 338.09 343.07 341.09 341.15 342.6 340.73 343.89 340.55 345.29 340.49 351.56 336.73 365.5 336.53 371.48 337.34 373.94 337.62 376.26 332.68 379.93 328.48 383.43 325.96 387.48 325.18 388.09 323.41 388.33 321.87 388.98 319.02 391.03 311.72 398.42 306.53 400.37 305.43 401.01 302 405.06 302.76 406.64 302.28 414.25 302.7 421.84 299.59 428.17 284.01 429.08 278.23 427.77 273.26 424.45 267.41 422.73 261.25 424.16 258.98 424.97 257.27 426.53 254.85 428.06 251.71 427.74 249.92 428.46 249.09 430.26 244.48 437.63 242.62 438.99 237.75 439.82 232.74 439.7 234.44 432.51 235.19 425.18 234.74 417.71 235.09 410.25 237.17 403.64 241.39 398.32 243.4 397.13 244.84 395.27 245.54 393.99 245.96 392.63 245.42 391.61 244.78 390.64 244.44 389.15 243.2 388.45 232.78 387.55 229.84 386.44 227.64 384.17 225.02 380.04 223.97 378.99 223.27 378.68 221.67 378.44 220.32 377.44 217.8 376.34 217.05 375.83 216.65 375.46 215.89 374.34 215.82 374.01 215.96 373.19 215.89 372.87 215.47 372.51 214.56 372.37 214.13 372.13 213.15 371.42 209.44 369.44 207.72 368.09 205.89 366.07 204.23 363.63 203.02 361.03 201.76 356.21 200.85 354.91 200.38 353.72 200.43 350.19 200.13 348.79 199.62 348.18 198.25 346.96 197.68 346.3 197.41 345.62 197.19 344.81 196.91 344.13 196.48 343.85 194.96 343.66 190.83 342.38 190.83 341.89 189.71 342.48 188.46 342.41 185.14 341.77 183.44 340.91 183.18 340.98 182.93 341.21 182.61 341.35 182.2 341.13 181.52 340.39 181.15 340.06 180.72 339.93 178.6 340.38 177.02 341.46 175.62 342.75 174.1 343.85 172.65 344.47 172.09 344.83 171.31 345.58 170.9 346.07 170.89 346.3 169.96 346.5 167.27 347.56 166.46 348.03 165.72 348.14 160.37 346.51 159.58 346.7 158.83 347.81 157.76 347.02 156.52 347.11 155.16 347.55 153.71 347.81 152.11 347.57 150.71 346.97 148.06 345.32 146.73 345.83 143.76 345.5 142.41 346.05 141.13 346.32 140.09 345.24 138.71 342.82 137.3 342.32 135.84 342.57 134.4 343.08 133.03 343.36 132.08 343.15 131.92 342.65 132.3 341.62 132.22 341.19 131.89 340.52 131.81 340.15 132.3 338.51 131.99 337.32 131.73 336.64 131.36 336.01 131.55 335.48 131.59 335.02 131.36 334.55 131.02 334.43 130.02 334.47 129.61 334.3 124.85 330.7 124.52 330.6 124.27 330.37 123.78 329.22 123.57 328.36 123.61 327.53 125.67 326.39 125.86 324.61 131.41 323.13 136.57 321.96 137.91 319.47 135.23 308.09 135.86 299.82 139.35 290.15 139.04 288.23 138.18 287.11 137.72 285.92 138.17 285.68 141.73 282.97 143.38 282.42 143.88 282.1 144.2 281.62 144.48 280.49 144.76 280.01 146.04 279.22 149.34 277.67 149.92 276.81 149.14 269.3 149.5 268.03 150.85 267.1 154.85 265.61 155.49 264.9 156.6 261.64 155.32 256.2 154.66 250.83 153.79 249.07 151.81 249.27 151.3 246.02 151.27 242.69 152.91 240.18 153.65 237.16 155.5 234.86 158.42 234.06 165.34 234.81 170.29 232.37 169.89 230.36 169.03 228.47 167.65 227.62 167.08 226.31 168.09 224.14 170.92 219.86 179.3 222.43 185.67 223.74 188.08 225.48 190.18 227.47 190.69 231.16 190.51 235.06 190.8 238.75 191.82 242.29 191.62 245.26 191.08 247.99 196.42 245.5 202.31 241.03 208.26 239.87 214.12 241.7 216.84 243.38 219.71 244.74 222.29 244.2 224.13 241.89 225.24 241.03 225.5 239.48 225.01 236.77 225.5 233.95 226.64 232.11 228.53 231.81 231.05 230.27 233.43 231.37 234.77 232.79 235.55 234.82 235.46 236.16 235.58 237.37 237.3 237.31 244.26 235.26 245.58 231.45 242.37 230.36 240.93 229.09 239.69 227.63 240.21 226.37 241.44 225.28 242.25 223.98 243.96 223.72 245.02 219.79 244.23 215.69 248.17 214.38 252.78 212.4 253.8 211.36 255.04 210.73 260.15 211.84 263.6 210.35 266.51 211.33 269.76 214.05 274.05 214.4 277.86 214.22 284.23 211.22 292.52 209.22 296.53 210.27 301.4 210.26 303.38 209.55 307.52 208.51 311.53 209.42 311.85 211.25 313.28 212.36 315.65 211.98 318.11 211.91 323.48 213.75 327.79 213.88 330.06 214.19 331.96 215.37 333.43 217.34 335.38 218.73 337.72 219.36 340.02 219.41 341.65 218.93 343.04 219.49 344.14 220.53 345.59 220.95 348.16 221.13 350.61 222.14 352.58 222.09 353.53 220.36 355.17 219.47 357.23 219.76 Z" id="TZA-3359" data-name="Tabora"/>
<path d="M 141.51 2.2 153.11 2.2 166.24 2.2 179.36 2.2 192.12 2.2 192.49 2.2 205.62 2.2 218.75 2.2 231.89 2.2 244.9 2.2 243.58 35.63 184.3 84.34 180.1 86.12 174.93 86.66 174.01 87.94 174.44 90.03 174.56 91.45 174.12 92.77 173.61 93.31 173.59 94.04 170.44 95.54 166.84 99.27 161.87 99.07 147.49 92.77 144.21 92.26 140.43 93.53 135.63 94.28 133.36 93.78 122.77 111.94 114.95 115.72 112.43 122.78 115.71 126.32 119.24 129.34 120.11 133.87 113.06 140.28 111.73 142.13 110.29 143.75 108.4 144.75 108.88 143.9 107.21 143.88 103.86 144.82 102.18 144.96 101.24 144.68 99.6 143.61 98.71 143.28 97.83 143.34 97.11 143.62 96.36 143.81 95.41 143.6 95.22 143.29 95.02 142.12 94.83 141.68 94.52 141.47 93.57 141.07 88.91 138.29 88.33 138.19 87.33 138.56 86.48 139.27 85.06 141.22 84.71 141.38 84.71 141.36 84.4 140.47 83.78 139.85 83.37 139.28 83.69 138.49 82.39 138.14 81.3 137.12 79.5 134.8 79.35 133.56 80.17 131.97 81.74 129.85 81.76 128.03 81.99 126.92 82.57 125.98 86.7 121.65 87.16 120.29 85.51 120.9 82.94 122.07 81.43 122.57 80.04 122.55 79.24 121.78 79.52 120.02 80.1 119.13 81.82 117.51 82.51 116.61 82.82 115.85 83.4 113.58 86.12 106.96 87.08 105.44 89.46 102.45 90.84 101.64 92.37 101.83 93.93 102.28 95.43 102.19 96.23 101.52 97.25 99.59 98.08 98.95 99 98.82 99.77 99.07 103.52 100.91 104.1 101.05 104.75 100.87 105.27 100.58 106.27 100.33 107.38 99.7 108.59 99.16 109.52 98.49 110.26 97.15 110.56 95.69 110.26 90.78 110.88 87.62 113.35 79.64 112.75 77.56 111.98 76.52 110.89 75.42 109.6 74.78 108.26 75.07 109.2 70.9 108.99 69 106.84 68.66 107.19 68.08 107.63 67.61 108.79 66.7 108.25 65.42 108.65 64.31 109.38 63.24 109.77 62.02 109.2 59.15 108.95 58.39 109.77 56.42 109.59 55.76 108.96 54.78 108.79 54.41 108.82 53.64 109.74 47.99 109.8 46.14 109.28 44.62 107.57 45.28 106.45 44.39 105.76 42.78 105.07 40.2 104.75 39.65 103.86 38.7 102.67 37.12 102.25 36.18 102.63 35.77 102.85 34.92 102.98 33.05 102.58 31.18 101.18 30.33 99.77 30.13 95.04 28.38 94.38 27.98 93.3 26.95 92.55 26.42 90.44 25.55 89.51 24.85 89.12 23.7 89.2 23.17 89.37 22.74 89.53 22.43 89.6 22.21 89.46 21.63 88.79 20.76 88.37 19.3 87.06 17.13 86.63 16.09 86.34 14.24 86.04 13.79 85.16 13.15 84.86 13.24 84.4 13.49 83.83 13.58 83.2 13.15 83.08 12.72 83.27 12.29 83.54 11.89 83.69 11.46 83.45 10.49 82.41 9.77 82.17 9 82.4 8.19 82.95 7.4 83.52 6.81 83.6 6.72 84.18 6.25 85.07 6.34 85.6 6.69 85.97 7.09 86.38 7.28 87.24 7.21 88.58 6.9 92.19 6.57 93.76 6.74 95.48 7.28 96.39 6.52 98.96 3.81 100 3.27 102.72 2.41 105.41 1 107.95 1.64 109.09 2.2 113.72 2.2 126.85 2.2 139.98 2.2 141.51 2.2 Z" id="TZA-3360" data-name="Kagera"/>
<path d="M 151.27 242.69 151.3 246.02 151.81 249.27 153.79 249.07 154.66 250.83 155.32 256.2 156.6 261.64 155.49 264.9 154.85 265.61 150.85 267.1 149.5 268.03 149.14 269.3 149.92 276.81 149.34 277.67 146.04 279.22 144.76 280.01 144.48 280.49 144.2 281.62 143.88 282.1 143.38 282.42 141.73 282.97 138.17 285.68 137.72 285.92 138.18 287.11 139.04 288.23 139.35 290.15 135.86 299.82 135.23 308.09 137.91 319.47 136.57 321.96 131.41 323.13 125.86 324.61 124.12 318.8 123.44 317.87 122.22 316.58 121.91 316.12 121.04 314.34 120.49 313.76 119.94 313.3 119.43 312.74 119.04 311.89 118.77 308.81 118.34 307.52 117.1 306.99 115.85 307.59 114.29 310.46 113.21 311.44 111.67 310.27 109.55 307.26 107.77 306.02 107.3 305.95 106.23 306.1 105.77 306.02 105.28 305.58 104.31 304.01 102.03 302.58 98.76 302.36 79 302.49 76.54 304.19 71.9 309.43 69.07 311.85 65.55 312.67 50.22 312.85 48.94 314.46 55.46 319.97 58.21 326.16 62.9 353.47 64.94 359.34 69.27 367.36 71.49 373.54 74.81 375.53 77.11 378.15 76.37 382.63 77.63 385.54 77.88 388.79 71.09 393.42 68.95 399.72 67.1 402.2 50.03 416.4 47.47 418.14 40.59 414.64 30.95 407.34 28.68 404.97 27.05 402.26 23.44 392.61 18.57 386.34 16.54 382.96 15.66 380.14 14.47 371.58 12.31 363.56 12.12 360.71 13.55 356.16 18.92 348.94 21.22 344.9 21.9 339.36 20.54 333.33 13.57 316.94 10.65 305.34 5.07 295.13 2.66 289.28 2.56 288.85 1.2 283.13 1 277.12 2.42 271.05 6.76 259.22 7.44 253.16 7.18 250.32 6.96 249.4 23.75 249.18 27.28 250.01 30.2 250.24 30.53 250.37 31.36 249.73 31.58 248.92 31.61 248 31.88 246.98 32.33 246.56 33.55 245.99 33.92 245.37 34.08 244.2 34.21 243.95 35.37 243.24 36.13 243.33 36.91 243.73 38.11 243.93 38.74 243.71 42.55 241.93 45.12 239.52 47.58 238.12 48.31 237.54 49.9 236.64 50.81 235.5 52.64 231.13 53.38 230.06 58.26 226 60.43 223.37 62.11 220.46 62.3 220.01 63.41 217.32 64.66 212.16 65.52 210.69 69.28 206.83 72.04 202.08 73.85 200.92 77.05 201.96 77.3 200.7 77.07 199.59 76.67 198.48 76.36 197.27 76.44 195.94 76.44 195.89 76.95 194.6 79.9 189.95 80.44 188.62 80.47 187.31 80.3 185.87 80.69 185.01 82.68 183.58 82.86 183.29 83.13 182.44 83.31 182.22 84.51 182.04 84.65 182.06 84.68 182.19 86.06 182.08 86.13 181.92 86.26 181.3 86.37 181.12 88.28 180.69 88.77 180.51 89.34 180.01 90.27 178.9 93.64 177.34 95.52 175.51 95.61 173.6 93.45 172.42 92.95 172.15 94.27 170.56 95.62 169.3 97.2 168.32 99.16 167.58 100.04 167.47 100.74 167.08 101.2 166.44 101.42 165.58 103.32 166.52 105.31 166.3 107.04 165.12 108.12 163.2 108.08 162.78 107.76 161.51 107.73 160.98 108.74 159.54 109.36 157.82 109.49 156.93 109.42 156.02 109.12 155.51 108.19 154.83 107.93 154.29 107.99 153.87 108.33 152.92 108.32 152.54 107.62 151.55 105.85 149.89 105.5 148.83 105.97 147.69 108.19 145.13 108.4 144.75 110.29 143.75 111.73 142.13 113.06 140.28 120.11 133.87 123.13 135.07 124.81 138.25 124.89 139.37 125.43 140.24 126.01 140.48 126.34 141.03 126.5 146.45 124.49 151.59 121.78 155.79 121.64 159.75 122.27 160.49 123.15 160.51 124.18 159.29 125.53 158.43 129.3 161.22 130.11 166.38 131.94 171.37 133.25 173.84 134.79 176.14 134.8 176.11 134.89 176.3 136.12 178.73 135.89 181.39 136.2 183.67 136.86 186.15 137.02 191.07 138.76 195.56 142.79 199.39 147.11 208.9 148.37 214.77 147.98 218.25 145.6 224.87 145.4 228.41 145.99 230.61 146.28 232.88 147.14 233.96 147.37 235.22 148.9 238.94 151.27 242.69 Z" id="TZA-3363" data-name="Kigoma"/>
<path d="M 726.24 445.3 726.19 445.24 725.37 444.14 724.41 444.44 724.3 434.26 722.73 431.7 720.73 429.41 718.87 428.88 717.09 428.64 716.05 428.74 715.12 428.66 712.72 428.94 711.08 431.31 709.95 431.41 708.91 431.26 708.28 432.52 707.19 433.44 705.9 433 704.81 432.5 703.35 433.61 702.38 435.22 700.72 436.28 699.25 434.9 697.87 435.39 697.02 434.61 697.88 432.91 699.16 431.39 699.52 429.67 700.37 428.19 701.8 427.35 702.58 425.99 701.94 424.45 701.57 423.03 699.54 421.75 699 419.27 698.97 417.91 698.07 417.13 696.34 417.03 696.51 415.95 698.53 413.41 699.44 410.29 699.8 406.8 701.11 403.62 702.43 402.51 703.66 401.13 704.16 400.66 704.16 400.66 704.33 400.86 706.22 402.2 706.78 402.82 707.86 404.66 708.49 405.32 709.71 406.05 710.32 406.58 710.8 407.39 711.09 408.33 711.18 409.24 711.63 411.02 712.7 412.98 713.99 413.94 715.15 412.7 715.46 414.78 715.13 417.57 715.16 420.11 716.61 421.47 716.57 420.16 716.45 419.61 716.13 419.02 717.44 419.1 718.48 419.5 720.52 420.73 721.62 421.02 723.79 421.22 724.69 421.71 725.75 422.09 728.38 422.06 728.89 422.47 729.19 423.46 730.51 425.19 731.11 427.31 734.55 431.83 734.77 432.32 734.69 433.02 734.34 433.45 733.97 433.83 733.79 434.28 734.41 438.86 734.33 440.75 733.26 440.65 732.53 441.56 731.99 443.5 731.57 444.34 730.77 444.97 730.09 444.96 729.58 444.32 729.33 443.1 726.32 445.2 726.24 445.3 Z" id="TZA-3378" data-name="Dar-Es-Salaam"/>
<path d="M 609.13 353 612.52 355.58 614.69 359.26 614.8 361.31 615.27 363.28 616.56 364.64 618.5 368.83 620.33 371.2 621.17 372.92 622.23 374.47 624.14 375.06 625.79 375.36 624.76 375.56 624.29 376.17 626.14 377.06 627.45 378.62 627.68 384.4 626.19 395.36 624.36 399.58 623.06 401.01 622.99 402.58 622.72 402.54 623.42 403.71 624.34 404.89 625.02 406.51 626.34 407.1 628.41 407.39 630.49 408.44 637.67 411.12 639.37 411.3 641.04 411 641.73 410.41 642.51 410.02 643.87 409.91 645.14 410.17 646.37 415.56 644.53 419.83 643.86 424.05 646.66 428.03 648.23 427.97 649.5 428.76 650.19 429.43 651.04 429.81 652.17 429.54 653.26 429.11 654.72 429.41 655.82 430.14 657.63 430.01 658.98 431.06 659.21 433.6 659.91 434.42 660.33 435.35 658.54 438.98 655.94 442.2 654.36 445.25 651.51 445.59 648.84 447.19 646.81 449.82 645.06 455.15 648.17 464.05 649.58 467.09 649.2 469.69 637.65 471.67 634.15 472.88 630.56 473.54 628.06 472.92 625.43 472.63 619.06 473.85 616.29 474.79 614.16 476.71 613.58 480.3 613.6 484.05 612.82 487.41 612.98 490.91 612.67 491.23 612.26 491.84 611.99 492.43 611.74 492.56 611.48 492.81 611.06 493.33 610.85 493.73 610.06 496.76 609.88 498.41 609.68 499.21 609.1 499.92 608.64 500.49 607.93 501.89 607.47 502.52 606.89 503 605.03 504.03 603.88 504.98 603.06 505.98 601.6 508.48 601.17 508.98 600.69 509.37 600.29 509.8 600.13 510.45 600.11 511.16 600.02 511.67 599.79 512.13 597.97 514.25 597.42 515.2 597.19 516.32 596.71 517.42 595.59 518 594.28 518.37 593.28 518.81 592.73 519.43 590.24 523.33 589.38 525.41 588.32 526.86 587.98 527.87 587.63 528.38 587.1 528.75 586.08 529.1 585.65 529.38 584.27 531.13 582.23 534.82 580.99 536.48 579.53 537.94 578.08 539.79 577.51 541.89 578.75 544.09 579.04 545 579 546.52 578.78 548.11 577.12 553.62 574.02 559.92 573.56 562.01 574.58 568.51 574.54 570.89 576.44 575.54 575.82 580.01 577.94 583.09 577.43 585.89 573.43 587.16 570.14 589.87 569.52 594.43 568.68 596.57 567.5 598.54 561.91 615.93 556.57 617.48 550.18 622.21 547.88 623.23 542.22 626.78 537.46 631.02 533.32 635.9 527.57 640.86 520.93 644.47 516.06 644.6 514.25 641.2 518.16 636.13 520.4 630.34 517.51 625.11 515.28 619.65 515.35 617.33 514.42 615.32 513.61 615.72 512.13 616.13 512.16 619.36 511.51 621.15 508.34 625.6 506.49 627.52 506.07 627.84 500.14 628.68 495.76 627.95 489.51 629.54 487.6 628.41 487.21 627.8 486.55 627.99 486.03 627.44 486.23 626.54 483.08 627.43 479.84 630.23 479.17 632.17 477.98 633.67 475.43 633.84 472.86 633.46 462.86 633.82 459.74 631.44 460.21 627.09 461.36 626.16 462.95 626.07 464.32 624.94 467.49 619.97 469.95 616.95 470.45 615.44 469.79 613.93 470.08 611.66 471.17 609.46 474.07 606.83 475.17 603.23 473.94 600.84 473.13 598.32 472.88 593.21 472.55 591.75 472.54 590.58 473 589.9 472.75 589.22 468.15 594.37 463.92 598.3 461.12 599.37 458.21 600.06 458 596.65 457.01 593.39 443.44 582.82 438.53 575.39 436.98 574.66 435.79 575.66 434.43 576.31 433.57 573.5 433.83 568.39 433.18 566.95 431.89 566.34 431.78 565.21 433.6 562.57 433.52 559.38 432.34 556.48 432.7 553.32 438.45 553.14 445 555.01 453.22 556.38 454.37 558.06 454.71 564.13 456.25 565.43 457.12 562.19 457.01 558.78 459.68 549.65 461.8 547.63 468.45 544.58 473.54 540.04 476.23 532.6 481.16 526.48 486.71 521.36 492.99 517.56 495.65 518.11 497.96 517.54 502.12 516.91 503.36 514.81 502.9 512.41 502.52 511.23 502.42 509.99 502.46 509.07 502.57 508.31 504.82 506.17 510.05 502.19 516.35 499.88 523.1 500.54 529.43 502.4 534.86 500.84 537.47 494.47 540.71 488.47 545.86 483.76 549.38 479.15 547.88 478.81 547.14 478.81 546.9 478.78 545.83 478.32 542.24 477.98 541.65 478 540.67 478.34 539.68 478.84 538.56 479.03 537.24 478.44 536.71 477.79 536.56 477.03 536.84 474.79 536.77 474.53 536.58 474.27 536.17 473.94 535.66 473.71 534.59 473.47 532.74 473.26 531.31 472.68 529.63 472.31 529.34 472.13 528.68 471.29 527.43 470.28 525.92 469.66 522.65 468.89 521.71 468.78 520.12 469.07 519.15 469.12 517.03 468.18 515.8 466.07 514.2 458.83 516.85 456.1 517.39 452.74 516.5 449.29 516.05 445.77 516.95 442.53 520.01 436.15 525.9 432.52 526.25 429.31 525.89 416.42 527.58 411.09 528.68 409.52 528.65 407.74 527.83 406.59 528.04 405.45 529.06 405.73 530.07 405.88 530.89 404.59 531.32 403.08 532.83 399.49 534.59 392.48 537.55 391.02 541.43 385.19 539.48 368.29 539.59 364.18 541.73 360.71 545.56 359.46 556 351.09 557.08 358.66 559.25 359.77 561.15 360.4 559.67 362.51 559.95 364.39 560.2 364.85 560.2 365.53 561.81 367.26 563.73 368.52 565.65 366.61 567.07 363.71 570.11 361.46 572.38 358.71 574.98 357.66 577.29 355.6 578.59 347.37 579.67 345.45 581.96 346.22 582.35 346.52 582.53 347.04 583.45 347.37 584.56 347.25 585.79 347.9 587.03 348.04 589.46 349.04 590.29 352.34 594.95 357.66 596.68 359.14 598.62 357.18 602.37 357.38 605.27 356.45 605.18 354.44 606.25 353.54 607.97 354.06 609.13 353 Z" id="TZA-3379" data-name="Morogoro"/>
<path d="M 756.44 301.92 756.44 301.92 754.43 302.6 753.06 303.31 751.64 303.01 751.4 302.01 751.64 301 751.05 300.17 748.97 300.11 748.31 300.45 747.54 300.07 746.57 301.08 746.95 299.62 747.15 299.16 746.73 298.63 746.17 298.28 745.45 298.25 744.6 298.71 744.76 297.91 744.87 297.59 745.14 297.16 744.85 296.3 744.94 295.29 745.31 294.53 745.85 294.47 746.7 294.87 747.09 294.62 747.03 294 746.57 293.28 745.95 292.92 743.63 292.03 743.84 291.35 744.83 290.55 745.14 289.81 744.11 290.3 743.53 288.97 743.91 287.94 744.88 287.6 746.13 288.34 746.41 287.19 745.6 286.52 744.44 285.89 743.63 284.91 743.6 284.08 744.03 282.08 744.12 280.99 744.28 281.35 744.45 281.65 744.66 281.86 744.87 281.93 745.43 282.25 745.82 282.93 746.06 283.62 746.13 283.93 746.92 283.82 747.19 283.29 747.34 282.7 747.79 282.42 748.15 282.67 749.3 283.82 749.55 284.15 752.86 286.04 753.46 286.61 753.51 287.43 753.68 288.15 753.98 288.41 754.45 287.85 754.4 287.27 754.12 286.58 754.14 285.78 754.99 284.91 755.06 285.44 755.31 285.97 755.42 286.38 756.01 285.2 756.43 283.77 756.59 282.42 756.45 281.48 757.42 282.11 757.42 283.58 757.23 285.29 758.04 287.97 757.23 289.27 755.96 290.27 754.99 290.75 755.34 292.02 755.12 293.41 754.68 294.82 754.45 296.18 755.14 298.32 755.2 298.71 755.86 298.4 755.92 297.72 755.79 297.02 755.91 296.67 756.82 297.06 756.94 298.32 756.45 301.08 756.44 301.92 Z" id="TZA-3380" data-name="Kaskazini-Pemba"/>
<path d="M 742.38 322.98 740.45 323.11 739.19 322.11 738.1 320.82 737.47 319.9 736.63 319.02 735.87 317.98 736.33 317.14 736.96 317.48 738.01 318.14 738.77 319.19 739.61 320.48 740.74 320.9 741.83 321.19 742.55 322.1 742.38 322.98 Z M 751.64 303.01 753.06 303.31 754.43 302.6 756.44 301.92 756.44 301.92 756.42 305.3 755.91 306.46 756.45 306.99 755.59 308 753.46 314.34 752.91 315.11 752.61 315.41 752.51 315.87 752.48 317.08 752.15 318.02 751.52 318.19 751.11 317.61 751.46 316.33 751.07 316.33 750.58 317.5 750.33 317.93 749.99 318.29 750.23 319.05 749.85 319.85 749.05 320.59 748.03 321.23 747.34 321.42 747.15 321.15 747.4 320.7 748.03 320.3 748.03 319.76 747.01 320.02 746.24 320.5 745.65 320.62 745.14 319.76 742.64 319.85 741.6 319.51 741.18 318.54 741.22 316.03 741.5 314.88 742.16 313.89 741.72 313.12 742.62 312.97 745.14 313.4 744.56 312.39 743.06 310.55 742.65 309.45 743.77 309.73 745.18 309.84 746.45 309.62 747.15 308.96 746.33 308.77 745.63 308.51 745.05 308.1 744.6 307.49 745.72 307.5 747.44 307.05 748.57 306.99 749.86 307.67 750.58 307.46 751.07 306.01 749.62 306.55 747.87 306.06 744.6 304.01 743.89 304.46 743.02 304.19 742.21 303.46 741.67 302.54 742.44 302.85 742.95 303.22 743.43 303.36 744.11 303.03 744.8 303.24 747.24 303.6 748.57 303.56 748.03 303.03 748.58 301.64 748.31 300.45 748.97 300.11 751.05 300.17 751.64 301 751.4 302.01 751.64 303.01 Z" fill-rule="evenodd" id="TZA-3381" data-name="Kusini-Pemba"/>
<path d="M 748.79 508.67 746.66 510.62 745.46 510.53 745.04 509.35 745.46 507.49 746.32 505.97 748.28 503.61 750.58 503.35 752.2 503.44 752.54 504.45 751.77 505.38 748.79 508.67 Z M 759.13 486.34 757.09 491 756.13 492.29 755.99 492.83 756 493.28 755.91 493.75 755.42 495.22 755.2 495.6 754.58 496.44 754.45 496.95 754.1 497.81 753.25 497.81 751.26 497.23 749.18 497.9 748.27 499.46 747.83 501.1 747.15 502.07 744.31 503.18 742.86 503.51 741.67 503.54 740.22 502.96 738.33 500.94 737.17 500.07 737.84 499.91 739.06 499.86 739.66 499.62 739.67 499.42 739.86 498.91 740.09 498.44 740.2 498.42 740.36 497.88 740.77 497.75 741.26 497.79 741.67 497.66 744.76 494.68 745.8 493.04 745.14 492.23 745.54 491.03 746.36 490.47 747.48 490.32 748.8 490.33 749.99 490.09 752.23 489.06 753.46 488.81 753.06 488.23 752.38 488.13 750.53 488.32 750.53 487.88 751.39 487.67 752.15 487.27 753.46 486.36 754.99 485.73 755.65 485.17 756.15 483.33 756.73 482.26 757.44 481.33 758.07 480.93 758.42 480.56 759.15 478.71 759.29 477.99 760.39 479.2 760.27 481.51 759.13 486.34 Z M 633.9 350.39 638.39 352.62 640.41 354.83 643.09 355.81 646.14 356.6 648.01 359.23 649.99 360.06 652.27 359.93 653.36 361.01 654.58 361.74 656.98 362.24 657.7 361.64 658.49 361.12 659.77 361.62 661.22 361.61 662.25 361.35 663.19 361.86 667.31 360.08 668.88 359.59 670.17 358.25 671.16 358.14 672.15 358.34 673.58 357.86 674.75 356.92 680.75 357.91 680.36 359.74 679.68 361.2 679.15 362.76 679.22 364.49 679.49 364.95 680.38 365.98 680.69 366.45 681.38 369.21 681.67 369.93 682.09 370.34 683.68 371.35 684.8 372.3 684.92 372.74 685.2 375.45 685.03 377.17 684.53 378.72 683.68 379.76 684.22 381.55 684.47 385.57 685.37 387.35 686.15 387.92 687.03 388.37 687.77 388.86 688.08 389.56 688.19 390.33 688.51 391.13 688.97 391.87 689.55 392.49 689.97 392.79 690.33 392.93 691.27 392.98 691.76 393.19 692 393.65 692.21 394.16 692.53 394.49 693.44 394.66 695.43 394.76 696.2 395.21 696.93 395.48 697.71 395.21 697.64 394.63 697.02 394.36 695.86 393.91 694.45 392.98 696.5 393.61 698 394.27 701.96 398.02 704.16 400.66 704.16 400.66 703.66 401.13 702.43 402.51 701.11 403.62 699.8 406.8 699.44 410.29 698.53 413.41 696.51 415.95 696.34 417.03 698.07 417.13 698.97 417.91 699 419.27 699.54 421.75 701.57 423.03 701.94 424.45 702.58 425.99 701.8 427.35 700.37 428.19 699.52 429.67 699.16 431.39 697.88 432.91 697.02 434.61 697.87 435.39 699.25 434.9 700.72 436.28 702.38 435.22 703.35 433.61 704.81 432.5 705.9 433 707.19 433.44 708.28 432.52 708.91 431.26 709.95 431.41 711.08 431.31 712.72 428.94 715.12 428.66 716.05 428.74 717.09 428.64 718.87 428.88 720.73 429.41 722.73 431.7 724.3 434.26 724.41 444.44 725.37 444.14 726.19 445.24 726.24 445.3 726.24 445.3 725.67 446.06 725.27 447.34 725.1 448.49 724.78 449.54 723.95 450.53 723.03 451.26 722.58 451.44 721.98 451.51 721.41 451.73 721.48 452.27 721.81 452.9 722 453.46 721.58 454.28 720.59 454.46 719.45 454.39 718.57 454.44 719.27 455.6 719.99 456.4 720.47 457.32 720.48 458.86 720.16 459.91 719.52 461.38 718.76 462.69 716.86 464.43 716.03 467.14 714.77 475.04 714.85 476.51 715.15 477.99 716.06 480.29 716.31 481.63 715.88 482.71 715.64 483.72 716.72 486.34 716.37 487.6 713.18 491.31 715.37 490.82 716.94 489.04 717.97 486.66 718.57 484.35 719.68 485.26 720.54 486.23 720.64 487.26 719.51 488.32 722.2 488.06 723.43 488.19 724.69 489.07 726.64 490.96 726.87 491.97 726.4 493.75 725.34 496.07 725.25 496.95 726.02 499.46 726.09 502.26 726.4 503.54 727.51 502.86 727.87 502.52 727.65 504.72 726.75 506.75 724.44 510.4 722.06 516.85 721.01 518.81 720.52 518.57 720.3 518.59 720.07 518.71 719.51 518.81 720.01 519.87 719.85 522.44 720.04 523.7 719.02 523.25 719 523.82 718.57 525.17 717.41 523.9 716.81 523.46 716.13 523.25 716.69 524.3 716.73 525.14 716.22 525.76 715.15 526.15 715.48 526.82 715.48 526.82 714.46 526.45 711.79 524.35 708.21 524.46 694.29 527.49 685.37 530.47 680.88 531.42 679.68 531 679 529.94 677.62 529.53 672.62 530.64 670.77 533.63 669.24 537.59 665.9 539.6 661.82 539.48 660.65 536.56 659.49 529.77 654.19 524.73 650.69 522.35 644.09 516.59 640.11 514.58 631.26 512.65 622.76 509.71 619.12 507.5 609.1 499.92 609.68 499.21 609.88 498.41 610.06 496.76 610.85 493.73 611.06 493.33 611.48 492.81 611.74 492.56 611.99 492.43 612.26 491.84 612.67 491.23 612.98 490.91 612.82 487.41 613.6 484.05 613.58 480.3 614.16 476.71 616.29 474.79 619.06 473.85 625.43 472.63 628.06 472.92 630.56 473.54 634.15 472.88 637.65 471.67 649.2 469.69 649.58 467.09 648.17 464.05 645.06 455.15 646.81 449.82 648.84 447.19 651.51 445.59 654.36 445.25 655.94 442.2 658.54 438.98 660.33 435.35 659.91 434.42 659.21 433.6 658.98 431.06 657.63 430.01 655.82 430.14 654.72 429.41 653.26 429.11 652.17 429.54 651.04 429.81 650.19 429.43 649.5 428.76 648.23 427.97 646.66 428.03 643.86 424.05 644.53 419.83 646.37 415.56 645.14 410.17 643.87 409.91 642.51 410.02 641.73 410.41 641.04 411 639.37 411.3 637.67 411.12 630.49 408.44 628.41 407.39 626.34 407.1 625.02 406.51 624.34 404.89 623.42 403.71 622.72 402.54 622.99 402.58 623.06 401.01 624.36 399.58 626.19 395.36 627.68 384.4 627.45 378.62 626.14 377.06 624.29 376.17 624.76 375.56 625.79 375.36 624.14 375.06 622.23 374.47 621.17 372.92 620.33 371.2 618.5 368.83 616.56 364.64 615.27 363.28 614.8 361.31 614.69 359.26 612.52 355.58 609.13 353 619.99 350.1 624.85 351.21 626.94 350.87 628.78 349.98 633.9 350.39 Z" fill-rule="evenodd" id="TZA-3382" data-name="Pwani"/>
<path d="M 712.12 350.24 711.23 350.43 710.45 350.38 710.3 349.35 710.44 348.08 710.64 346.07 710.44 344.6 711.28 344.01 711.23 344.99 711.58 346.26 712.17 347.15 711.68 347.88 712.12 348.81 712.12 350.24 Z M 720.7 354.25 721.33 356.29 721.46 357.35 721.78 358.47 723.08 360.59 723.08 360.59 722.68 360.83 719.93 362.64 714.72 362.99 712.13 362.76 709.52 362.98 709.26 362.97 708.42 360.15 708.73 356.13 708.65 355.25 708.72 354.41 708.92 353.68 709.22 353.15 709.44 353.53 709.99 354.26 710.2 354.66 711.4 352.72 713.96 350.6 715.15 349.23 715.74 346.97 716.24 341.66 717.55 340.37 718.39 342.56 720.57 346.49 721.01 349.01 720.5 352.03 720.48 353.15 720.7 354.25 Z" fill-rule="evenodd" id="TZA-3383" data-name="Kaskazini-Unguja"/>
<path d="M 714.72 362.99 714.83 364.44 715.2 365.86 714.76 371.49 714.89 373.32 715.61 374.94 716.87 376.27 717.09 377.75 717.16 378.18 717.16 378.18 716.61 377.72 715.64 378.25 715.64 378.78 716.06 378.84 716.11 379.05 716.05 379.37 716.13 379.76 715.16 379.09 714.86 380.22 715.11 381.83 715.88 382.66 715.71 382.75 715.6 382.91 715.32 382.95 714.66 382.66 714.01 382.25 713.76 381.97 713.6 381.68 709.98 377.52 709.31 376.39 708.39 373.17 707.76 371.88 710.33 368.75 709.75 364.6 709.26 362.97 709.52 362.98 712.13 362.76 714.72 362.99 Z" id="TZA-3384" data-name="Zanzibar West"/>
<path d="M 541.73 360.71 539.59 364.18 539.48 368.29 541.43 385.19 537.55 391.02 534.59 392.48 532.83 399.49 531.32 403.08 530.89 404.59 530.07 405.88 529.06 405.73 528.04 405.45 527.83 406.59 528.65 407.74 528.68 409.52 527.58 411.09 525.89 416.42 526.25 429.31 525.9 432.52 520.01 436.15 516.95 442.53 516.05 445.77 516.5 449.29 517.39 452.74 516.85 456.1 514.2 458.83 513.82 457.1 513.37 456.07 512.14 455.28 510.42 454.93 507.1 454.98 505.18 455.6 504.22 455.72 503.32 455.25 503.06 454.71 502.86 453.3 502.59 452.74 502.19 452.2 501.37 450.54 500.83 450.01 499.73 449.34 499.37 449.02 498.71 447.55 498.21 445.93 497.36 444.62 495.69 444.08 494.3 443.85 487.82 441.28 486.86 441.19 485.28 441.27 484.47 441.21 483.9 440.92 482.86 440.64 478.71 441.64 477.21 441.36 474.37 440.38 473.13 440.16 472.06 439.69 470.78 438.87 470.05 438.69 463.75 437.15 461.44 437.31 458.91 437.11 453.79 434.3 450.34 433.05 446.89 432.67 445.86 432.07 445.87 430.93 444.97 429.49 443.37 428.62 440 427.48 436.56 427.18 434.16 427.57 431.73 427.58 429.68 428.09 428.22 429.64 420.99 430.76 414.03 426.56 413.7 418.94 412.53 412.26 421.57 411.85 423.56 407.07 422.29 394.78 423.03 388.34 424.22 386.05 424.25 383.47 423.58 380.64 422.12 378.11 421.53 371.88 423.09 365.43 423.36 357.11 425.9 351.14 427.75 348.45 428.45 345.71 428.8 342.81 431.03 340.87 432.51 339.07 431.71 336.99 429.33 334.42 427.51 331.44 427.35 330.06 427.04 328.9 426.36 328.74 425.85 328.29 425.08 327.37 424.01 326.69 422.74 324.6 421.86 322.34 419.9 320.26 418.25 317.87 417.11 313 415.81 310.2 414.89 307.29 414.96 304.61 414.74 301.95 413.27 299.55 413.65 297.15 431.14 285.19 431.78 283.33 432.97 280.94 432.68 278.42 433.64 278.53 434.52 278.95 441.08 279.55 444.83 278.92 446.4 276.37 451.33 266.38 454.97 260.64 455.65 257.9 454.39 255.37 453.99 254.22 453.85 253.01 454.19 251.75 454.83 251.38 456.41 251.98 462.05 248.12 465.14 245.17 465.9 243.95 467.06 243.13 468.3 243.65 469.51 244.32 471.25 243.46 473 242.26 476.56 242.35 478.75 238.7 479.56 238.11 481.33 237.08 483.46 235.45 501.4 230.39 501.9 251.66 502.6 255.69 503.75 259.61 505.41 263.26 505.81 265.61 504.97 280.19 502.32 297.43 500.79 302.47 498.51 306 496.95 309.84 497.73 314.36 496.5 318.39 497.45 321.68 500.2 324.56 503.92 327.54 507.27 330.86 509.33 334.44 511.85 337.71 516.21 340.37 520.82 342.55 523.7 346.04 525.76 350.21 528.37 354.24 531.94 357.39 536.75 359.26 541.73 360.71 Z" id="TZA-3385" data-name="Dodoma"/>
<path d="M 414.03 426.56 420.99 430.76 428.22 429.64 429.68 428.09 431.73 427.58 434.16 427.57 436.56 427.18 440 427.48 443.37 428.62 444.97 429.49 445.87 430.93 445.86 432.07 446.89 432.67 450.34 433.05 453.79 434.3 458.91 437.11 461.44 437.31 463.75 437.15 470.05 438.69 470.78 438.87 472.06 439.69 473.13 440.16 474.37 440.38 477.21 441.36 478.71 441.64 482.86 440.64 483.9 440.92 484.47 441.21 485.28 441.27 486.86 441.19 487.82 441.28 494.3 443.85 495.69 444.08 497.36 444.62 498.21 445.93 498.71 447.55 499.37 449.02 499.73 449.34 500.83 450.01 501.37 450.54 502.19 452.2 502.59 452.74 502.86 453.3 503.06 454.71 503.32 455.25 504.22 455.72 505.18 455.6 507.1 454.98 510.42 454.93 512.14 455.28 513.37 456.07 513.82 457.1 514.2 458.83 515.8 466.07 517.03 468.18 519.15 469.12 520.12 469.07 521.71 468.78 522.65 468.89 525.92 469.66 527.43 470.28 528.68 471.29 529.34 472.13 529.63 472.31 531.31 472.68 532.74 473.26 534.59 473.47 535.66 473.71 536.17 473.94 536.58 474.27 536.77 474.53 536.84 474.79 536.56 477.03 536.71 477.79 537.24 478.44 538.56 479.03 539.68 478.84 540.67 478.34 541.65 478 542.24 477.98 545.83 478.32 546.9 478.78 547.14 478.81 547.88 478.81 549.38 479.15 545.86 483.76 540.71 488.47 537.47 494.47 534.86 500.84 529.43 502.4 523.1 500.54 516.35 499.88 510.05 502.19 504.82 506.17 502.57 508.31 502.46 509.07 502.42 509.99 502.52 511.23 502.9 512.41 503.36 514.81 502.12 516.91 497.96 517.54 495.65 518.11 492.99 517.56 486.71 521.36 481.16 526.48 476.23 532.6 473.54 540.04 468.45 544.58 461.8 547.63 459.68 549.65 457.01 558.78 457.12 562.19 456.25 565.43 454.71 564.13 454.37 558.06 453.22 556.38 445 555.01 438.45 553.14 432.7 553.32 432.34 556.48 433.52 559.38 433.6 562.57 431.78 565.21 431.89 566.34 433.18 566.95 433.83 568.39 433.57 573.5 434.43 576.31 429.2 578.03 422.4 577.63 415.6 572.83 416.4 560.03 399.2 554.03 399.2 550.43 389.05 547.37 389.89 542.69 388.72 540.24 387.19 538.01 386.05 535.1 387.54 532.12 389.58 529.02 392.21 526.58 395.24 525.57 397.77 523.64 399.65 520.53 402.23 514.59 403.97 512.46 407.92 511.29 411.05 508.87 412.79 506.53 410.82 504.54 407.56 503.39 404.11 503.67 402.2 503.34 402.46 501.5 401.75 499.32 382.33 496.25 379.27 495.25 376.63 493.41 366.01 490.91 362.33 490.61 328.96 492.28 326.22 491.92 325.18 489.83 325.8 486.91 327.11 484.26 329.06 481.69 330.7 478.91 332.66 474.31 334.09 472.6 335.12 470.61 333.96 469.28 332.11 468.05 338.41 464.56 344.33 460.55 346.54 457.47 349 454.77 352.29 454.8 355.5 455.97 358.85 456.12 362.2 455.63 363.61 454.47 363.49 452.23 367.1 447.91 388.2 443.53 390.88 438.5 391.7 431.56 394.35 429.44 397.4 427.71 398.63 426.78 400.06 426.23 401.37 425.4 402.46 424.36 405.2 424.6 408.18 425.34 411.16 425.69 414.03 426.56 Z" id="TZA-3386" data-name="Iringa"/>
<path d="M 765.08 660.18 765.08 660.18 762.79 661.59 760.28 663.48 748.7 669.98 745.69 671.06 743.86 673.46 743.4 676.52 742.16 679.3 742.2 681.23 744.04 682.78 744.43 685.35 742.74 687.87 740.37 690.05 737.45 688.52 735.36 683.49 734.2 682.73 733.18 681.45 730.81 674.88 725.31 671.41 723.55 671.46 721.74 671.76 719.91 673.78 717.69 674.84 715.38 674.7 714.58 676.35 713.86 679.37 710.68 680 709.79 678.09 709.32 675.82 706.96 675.33 704.06 676.53 698.11 679.8 694.78 680.89 689.24 683.4 687.27 684.81 685.94 686.28 680.93 686.69 678.15 685.91 676.07 684.47 673.63 684.4 671.37 685.47 664.95 685.96 645.89 693.74 641.45 698.18 637.92 703.42 635.4 705.1 622.85 705.98 619.28 699.46 617.69 697.69 616.46 695.84 615.43 692.48 613.59 689.31 613.11 687.73 612.34 686.04 610.57 683.14 608.62 681.61 606.46 680.4 603.1 678 563.29 668.39 545.95 661.82 542.41 658.83 542.63 653.67 542.36 648.45 542.85 644.09 544.67 640.16 550.61 634.83 556.08 628.85 559.22 624.38 560.93 620.21 561.91 615.93 567.5 598.54 568.68 596.57 569.52 594.43 570.14 589.87 573.43 587.16 577.43 585.89 577.94 583.09 575.82 580.01 576.44 575.54 574.54 570.89 574.58 568.51 573.56 562.01 574.02 559.92 577.12 553.62 578.78 548.11 579 546.52 579.04 545 578.75 544.09 577.51 541.89 578.08 539.79 579.53 537.94 580.99 536.48 582.23 534.82 584.27 531.13 585.65 529.38 586.08 529.1 587.1 528.75 587.63 528.38 587.98 527.87 588.32 526.86 589.38 525.41 590.24 523.33 592.73 519.43 593.28 518.81 594.28 518.37 595.59 518 596.71 517.42 597.19 516.32 597.42 515.2 597.97 514.25 599.79 512.13 600.02 511.67 600.11 511.16 600.13 510.45 600.29 509.8 600.69 509.37 601.17 508.98 601.6 508.48 603.06 505.98 603.88 504.98 605.03 504.03 606.89 503 607.47 502.52 607.93 501.89 608.64 500.49 609.1 499.92 619.12 507.5 622.76 509.71 631.26 512.65 640.11 514.58 644.09 516.59 650.69 522.35 654.19 524.73 659.49 529.77 660.65 536.56 661.82 539.48 665.9 539.6 669.24 537.59 670.77 533.63 672.62 530.64 677.62 529.53 679 529.94 679.68 531 680.88 531.42 685.37 530.47 694.29 527.49 708.21 524.46 711.79 524.35 714.46 526.45 715.48 526.82 715.48 526.82 716.06 527.99 716.65 529.87 716.96 531.87 717.06 534.05 716.58 538.2 716.8 540.22 719.19 542.66 720.09 544.32 720.71 546.16 721.01 547.79 720.88 553.77 720.48 555.17 722.98 555.88 723.41 556.33 723.61 556.9 723.91 557.4 724.69 557.63 726.12 557.73 726.56 558.15 726.59 559.04 726.89 560.55 727.52 561.73 728.31 562.26 729.17 562.63 730.1 563.27 730.71 564.28 731.53 566.79 732.32 567.94 734.34 569.46 734.77 570.11 733.77 570.39 732.92 570.34 732.4 570.17 731.35 569.37 731.21 569.21 729.84 567.94 728.38 566.18 727.29 565.55 725.91 565.74 725.11 566.06 724.69 566.17 724.39 566.38 722.94 568.43 724.02 568.84 728.35 568.43 727.4 569.6 727.16 570.35 727.72 570.76 729.12 570.88 730.34 571.27 730.35 572.27 729.93 573.68 729.84 575.28 730.01 575.55 730.65 576.04 730.82 576.31 730.83 577.66 730.82 577.78 730.43 578.51 730.37 578.76 730.52 578.94 730.86 579.07 731.19 579.29 731.35 579.72 731.14 580.41 730.73 580.87 730.44 581.39 730.59 582.18 731.11 583.33 731.11 583.87 730.82 584.59 731.83 584.38 733.07 583.79 734.22 583.07 735.02 582.42 735.88 582.36 736.92 583.3 740.01 587.18 741.23 589.24 741.58 591.45 740.44 593.71 740.39 594.22 740.81 594.81 741.36 595.41 741.67 595.94 741.67 596.74 741.27 598.18 741.18 598.88 741.41 601.26 741.16 602.12 740.2 603.33 739.24 604.16 738.61 604.3 737.91 604.2 736.77 604.31 735.88 604.72 735.51 605.39 735.53 606.39 735.75 607.78 736.4 607.46 737.21 607.32 738.69 607.25 738.87 606.46 739.23 606.15 739.94 606.51 740.39 606.98 740.64 607.18 740.94 607.25 741.73 607.58 741.85 608.33 741.69 609.14 741.67 609.7 742.16 610.36 743.88 611.92 744.48 613.33 745.33 617.24 746.08 618.33 747.05 619 746.86 619.47 746.29 619.92 746.13 620.51 746.48 621.29 746.84 621.78 747.79 622.72 748.19 623.5 747.95 624.96 748.6 626.35 748.02 626.81 746.57 627.36 745.36 628.49 745.04 629.1 745.63 629.37 748.47 629.3 749.01 629.37 749.25 629.88 749.81 631.82 750.26 632.56 751.44 633.41 752 633.94 752.48 634.76 752.96 636.8 752.44 638.26 751.09 638.96 749.01 638.72 749.62 639.69 751.66 641.24 751.73 641.87 750.96 642.38 748.49 643.42 746.28 643.96 746.25 644.78 747.15 646.6 747.01 647.93 746.48 648.94 745.65 649.75 744.6 650.51 746.44 650.17 749.79 646.16 751.26 646.32 752.22 646.85 754.36 646.7 755.89 648.21 756.83 648.33 757.88 648.29 758.84 648.46 760.63 649.82 764.98 656.96 765.08 660.18 Z" id="TZA-3387" data-name="Lindi"/>
<path d="M 798.1 681.44 796.97 683.52 794.68 685.78 792.11 687.6 787.46 689.2 784.75 691.2 780.51 695.35 779.16 697.1 778.33 697.9 776.33 698.64 767.36 705.56 765.99 706.26 758.6 709.38 751.42 714.27 749.6 715.02 737.57 717.62 732.04 718.03 730.81 718.43 729.68 719.05 715.62 730.16 713.94 731.06 712.14 731.59 710.24 731.57 708.73 731.02 705.81 729.45 704.12 729.12 701.91 730.1 699.43 730.59 690.05 730.58 687.63 731.13 685.71 732.78 684.45 733.65 682.95 734.02 682 734.61 679.15 737.29 677.84 737.98 677.04 737.95 675.49 737.58 674.64 737.49 673.86 737.64 672.4 738.31 670.27 738.88 669.12 739.84 667.51 741.85 660.44 746.57 658.66 748.75 658.62 748.73 656.51 747.52 650.83 746.11 648.29 744.83 644.33 740.73 641.76 738.98 638.45 738.46 637.73 738.66 636.15 739.31 635.33 739.45 634.47 739.22 633.07 738.21 632.37 737.98 632.14 737.83 631.76 737.18 631.63 737 631.2 737 630.83 737.18 630.61 737.38 630.61 737.49 630.05 737.48 630.05 737.47 625.1 720.55 622.85 705.98 635.4 705.1 637.92 703.42 641.45 698.18 645.89 693.74 664.95 685.96 671.37 685.47 673.63 684.4 676.07 684.47 678.15 685.91 680.93 686.69 685.94 686.28 687.27 684.81 689.24 683.4 694.78 680.89 698.11 679.8 704.06 676.53 706.96 675.33 709.32 675.82 709.79 678.09 710.68 680 713.86 679.37 714.58 676.35 715.38 674.7 717.69 674.84 719.91 673.78 721.74 671.76 723.55 671.46 725.31 671.41 730.81 674.88 733.18 681.45 734.2 682.73 735.36 683.49 737.45 688.52 740.37 690.05 742.74 687.87 744.43 685.35 744.04 682.78 742.2 681.23 742.16 679.3 743.4 676.52 743.86 673.46 745.69 671.06 748.7 669.98 760.28 663.48 762.79 661.59 765.08 660.18 765.08 660.18 765.11 661.09 765.71 663.24 766.44 662.39 766.81 661.21 766.82 659.96 766.46 658.86 765.81 657.42 765.97 656.81 766.82 656.73 768.19 656.92 769.24 657.23 771.46 658.19 772.86 658.51 775.72 659.54 776.07 659.46 776.29 659.56 776.52 660.34 776.39 661.27 775.91 662.24 775.69 663.29 776.28 664.49 776.49 665.15 775.96 665.51 775.27 665.82 775.05 666.26 775.42 666.84 775.8 666.88 776.18 666.72 776.52 666.66 777.72 667.39 778.28 667.5 778.52 666.94 778.58 666.19 778.8 665.77 779.24 665.69 779.99 666 780.87 666.59 782.53 668.06 783.42 668.67 783.41 668.01 783.53 667.56 783.72 667.17 783.91 666.66 784.48 667.05 784.9 667.15 785.33 667.02 785.91 666.66 784.69 666.31 780.97 664.76 783.42 661.77 784.37 662.07 784.78 662.88 785 663.88 785.38 664.76 786.01 665.26 787.62 666.03 788.36 666.66 788.75 667.3 791.06 672.41 791.79 673.07 791.97 672.95 794.38 673.43 794.73 673.56 797.05 672.9 797.38 671.48 796.52 670.37 795.26 670.62 794.93 669.78 795.17 669.16 795.83 668.79 796.73 668.67 797.4 668.91 797.71 669.5 797.96 670.23 798.38 670.87 799 672.16 798.34 673.31 797.16 674.4 796.24 675.52 796.69 675.48 797.65 675.56 798.1 675.52 797.33 677.96 797.22 678.74 797.41 679.29 797.82 679.83 798.15 680.5 798.1 681.44 Z" id="TZA-3388" data-name="Mtwara"/>
<path d="M 561.91 615.93 560.93 620.21 559.22 624.38 556.08 628.85 550.61 634.83 544.67 640.16 542.85 644.09 542.36 648.45 542.63 653.67 542.41 658.83 545.95 661.82 563.29 668.39 603.1 678 606.46 680.4 608.62 681.61 610.57 683.14 612.34 686.04 613.11 687.73 613.59 689.31 615.43 692.48 616.46 695.84 617.69 697.69 619.28 699.46 622.85 705.98 625.1 720.55 630.05 737.47 630.05 737.48 628.43 737.45 624.33 738.14 623.66 738.84 623.02 739.01 620.1 739.18 618.92 739.47 614.41 741.99 613.92 742.61 613.74 743.66 612.63 746.9 611.96 747.77 612.06 749.06 610.34 752.08 609.96 753.69 610.25 754.64 610.68 755.53 610.82 756.41 610.23 757.36 609.33 758.15 607.84 759.18 602.63 761.44 599.43 763.96 598.1 764.71 596.56 764.98 594.29 765 592.73 765.29 590.14 766.64 588.64 766.95 587.77 767.34 587.22 768.23 586.81 769.22 586.41 769.93 585.81 770.44 585.33 770.7 583.97 770.92 582.33 770.92 578.78 769.93 578.19 769.64 576.92 768.32 576.09 767.93 575.41 767.98 574.86 768.24 574.29 768.6 573.6 768.91 571.03 769.18 567.9 768.85 561.81 767.49 559.29 766.29 556.78 764.22 554.83 761.82 553.97 759.61 552.85 760.26 552.21 760.74 551.53 761.02 544.9 761.61 543.84 761.41 542.06 760.28 540.65 760.17 539.96 759.83 538.75 760.23 535.5 764.01 533.51 766.89 532.86 767.49 532.04 767.92 529.4 768.91 528.7 769.47 528.31 769.93 527.79 770.26 525.88 770.47 524.81 770.83 520.31 771.54 519.07 771.41 517.27 770.53 516.87 770.38 516.42 770 515.99 768.32 515.43 767.93 507.05 767.93 506.71 768.09 506.34 768.42 505.84 768.75 503.59 769.09 500.98 769.82 499.93 769.93 499.19 769.73 498.08 769.06 497.22 768.91 494.26 769.41 493.44 768.84 492.79 767.55 492.58 766.07 493.04 765 492.55 763.57 492.39 761.94 491.99 760.6 490.83 760.05 490.18 759.91 489.69 759.54 489.23 759.05 488.63 758.59 487.94 758.3 486.35 757.89 485.65 757.61 483.03 756.02 481.53 755.36 480.5 755.43 479.12 755.83 477.78 755.13 477.13 753.78 477.81 752.18 476.58 750.7 475.62 750.23 472.91 750.26 472.45 750.14 470.42 749.29 467.49 748.75 466.54 749.39 464.3 752.18 463.04 753.15 459.43 753.8 458.11 754.57 458.67 756.14 457.8 756.7 457.01 757.65 456.41 758.65 455.91 760.12 455.19 760.57 451.32 761.57 451.24 761.57 449.55 762.5 448.38 762.2 447.22 761.75 446.43 761.81 446.34 763.04 445.53 762.78 445.2 762.38 445.02 761.88 444.63 761.34 444 760.86 443.66 760.82 443.38 760.99 442.91 761.12 442.9 761.19 441.94 761.57 441.63 761.6 439.87 761.51 439.2 761.3 438.73 760.84 438.6 760.45 435.61 760.53 405.69 760.23 405.58 759.61 405.58 755.9 405.41 754.85 405.06 754.01 404.72 753.36 404.55 752.93 404.25 752.41 403.57 751.83 402.9 751.08 402.28 749.14 400.94 748.04 400.64 747.5 400.1 746.02 398.76 744.83 397.02 743.93 393.92 742.9 393.34 742.83 392.81 743.02 391.89 743.8 391.42 743.85 390.96 743.3 389.37 740.38 389.8 740.16 390.42 739.69 390.84 739.45 390.84 739.01 389.71 738.37 388.77 737.32 388.14 735.92 387.91 734.28 387.73 733.64 387.28 733.08 386.71 732.69 385.42 732.37 385.08 731.92 384.85 731.29 384.48 730.59 381.06 727.69 380.52 726.43 380.31 724.67 379.35 721.73 379.04 720.26 379.4 718.45 380.83 716.65 381.49 715.81 382.81 712.88 382.96 712.14 382.96 708.96 383.89 704.48 383.62 702.6 384.05 701.99 384.93 701.35 384.74 700.42 384.31 699.91 383.85 699.58 383.54 699.17 383.42 698.85 382.96 698.19 383.91 696.68 383.85 695.12 383.17 693.67 381.63 691.87 381.44 691.45 381.5 690.07 381.3 689.23 381.04 689.16 380.81 689.09 380.18 689.13 379.58 688.85 379 688.03 378.52 687.09 378.19 686.1 378.12 685.53 378.27 685.53 380.13 685.19 381.01 685.38 381.84 685.92 384.09 685.78 386.11 684.87 392.32 680.93 395.63 676.33 400.92 673.77 407.07 669.07 407.44 664.35 409.16 662.5 411.58 661.63 414.2 661.65 416.78 661.11 417.69 658.7 423.72 650.41 423.04 645.71 420.2 641.61 420.42 638.11 419.33 635.55 417.74 634.08 416.42 632.14 417.11 630.18 419.48 628.91 424.7 626.78 431.69 619.41 436.33 616.94 442.57 611.21 445.29 609.45 447.45 607.23 450.18 605.53 453.47 603.97 456.05 602.11 458.21 600.06 461.12 599.37 463.92 598.3 468.15 594.37 472.75 589.22 473 589.9 472.54 590.58 472.55 591.75 472.88 593.21 473.13 598.32 473.94 600.84 475.17 603.23 474.07 606.83 471.17 609.46 470.08 611.66 469.79 613.93 470.45 615.44 469.95 616.95 467.49 619.97 464.32 624.94 462.95 626.07 461.36 626.16 460.21 627.09 459.74 631.44 462.86 633.82 472.86 633.46 475.43 633.84 477.98 633.67 479.17 632.17 479.84 630.23 483.08 627.43 486.23 626.54 486.03 627.44 486.55 627.99 487.21 627.8 487.6 628.41 489.51 629.54 495.76 627.95 500.14 628.68 506.07 627.84 506.49 627.52 508.34 625.6 511.51 621.15 512.16 619.36 512.13 616.13 513.61 615.72 514.42 615.32 515.35 617.33 515.28 619.65 517.51 625.11 520.4 630.34 518.16 636.13 514.25 641.2 516.06 644.6 520.93 644.47 527.57 640.86 533.32 635.9 537.46 631.02 542.22 626.78 547.88 623.23 550.18 622.21 556.57 617.48 561.91 615.93 Z" id="TZA-3389" data-name="Ruvuma"/>
<path d="M 400.5 210.65 403.14 216.07 409.27 222.72 409.45 224.85 405.35 230.31 401.52 237.22 398.85 244.47 402.09 248.06 406.98 250.95 410.55 255.05 413.18 260.85 417.96 263.17 418.64 266.01 418.61 269.03 421.49 271 425.7 271.74 428.4 276.78 432.68 278.42 432.97 280.94 431.78 283.33 431.14 285.19 413.65 297.15 413.27 299.55 414.74 301.95 414.96 304.61 414.89 307.29 415.81 310.2 417.11 313 418.25 317.87 419.9 320.26 421.86 322.34 422.74 324.6 424.01 326.69 425.08 327.37 425.85 328.29 426.36 328.74 427.04 328.9 427.35 330.06 427.51 331.44 429.33 334.42 431.71 336.99 432.51 339.07 431.03 340.87 428.8 342.81 428.45 345.71 427.75 348.45 425.9 351.14 423.36 357.11 423.09 365.43 421.53 371.88 422.12 378.11 423.58 380.64 424.25 383.47 424.22 386.05 423.03 388.34 422.29 394.78 423.56 407.07 421.57 411.85 412.53 412.26 413.7 418.94 414.03 426.56 411.16 425.69 408.18 425.34 405.2 424.6 402.46 424.36 401.37 425.4 400.06 426.23 398.63 426.78 397.4 427.71 394.35 429.44 391.7 431.56 390.88 438.5 388.2 443.53 367.1 447.91 363.49 452.23 363.61 454.47 362.2 455.63 358.85 456.12 355.5 455.97 352.29 454.8 349 454.77 346.54 457.47 344.33 460.55 338.41 464.56 332.11 468.05 328.86 466.6 325.87 464.49 324.46 464.12 323.29 463.44 323.01 460.5 321.73 457.5 321.5 455.56 320.59 453.9 316.47 452.66 315.07 451.22 313.93 449.57 312.24 446.4 309.75 444 306.69 442.86 304.96 440 304.41 436.08 303.4 432.36 301.77 430.01 299.59 428.17 302.7 421.84 302.28 414.25 302.76 406.64 302 405.06 305.43 401.01 306.53 400.37 311.72 398.42 319.02 391.03 321.87 388.98 323.41 388.33 325.18 388.09 325.96 387.48 328.48 383.43 332.68 379.93 337.62 376.26 337.34 373.94 336.53 371.48 336.73 365.5 340.49 351.56 340.55 345.29 340.73 343.89 341.15 342.6 343.07 341.09 344.55 338.09 344.33 334.87 342.17 333.27 340.6 331.41 343.77 326.58 348.43 322.64 351.1 319.93 353.11 316.81 351.55 314.86 345.19 308.46 342.73 306.88 340.42 305.02 337.19 303.1 333.55 301.75 331.46 299.64 330.75 296.61 330.32 293.6 332.35 287.98 331.74 285.17 330.54 281.74 330.49 278.14 333.06 271.22 332.91 265.06 332.11 259 333.66 252.46 342.18 241.46 345.28 234.81 348.97 228.47 350.64 227.06 352.93 227.83 355.19 227.61 355.71 225.34 356.41 224.19 356.98 222.9 357.23 219.76 359.97 217.41 364.32 216.28 366.13 214.34 368.27 212.75 370.84 211.97 373.45 211.44 385.65 206.5 386.56 204.98 388.48 203.41 391.06 202.93 395.58 207.05 400.5 210.65 Z" id="TZA-3390" data-name="Singida"/>
<path d="M 582.07 139.89 582.02 139.88 578.87 139.17 572.94 136.72 570.61 135.35 568.02 135.05 566.62 135.53 565.38 135.08 561.73 135.2 558.42 137.39 554.13 140.9 552.32 142.8 549.93 143.83 545.14 145.24 543.48 149.95 543.6 153.39 544.26 156.74 546 158.43 548.29 159.44 553.3 162.73 555.97 167.64 556.12 180.64 553.62 181.58 551.35 183.11 550.01 184.99 548.38 186.46 542.99 186.52 541.11 188.6 539.34 190.97 537.15 191.48 535.79 189.08 534.5 188.2 533.18 187.83 527.94 188.1 527.43 188.65 527.44 189.39 526.91 190.58 525.5 191.07 524.01 192.36 522.62 192.65 521.33 193.15 517.04 198.76 515.86 201.67 516.49 209.87 518.09 218.93 518 223.03 516.97 223.56 515.8 223.08 513.77 223 511.8 223.62 508.44 223.91 505.21 224.54 504.52 226 501.18 226.43 497.62 224.93 481.42 201.45 478.01 195.04 475.65 191.67 471.51 193.07 468.04 197.66 465.48 199.89 463.58 202.3 463.36 204.45 461.9 204.86 460.34 199.93 460.84 194.71 462.61 189.55 461.66 186.15 459.77 185.89 459.34 190.88 458.1 193.45 449.58 195.72 449.81 198.48 448.55 200.37 445.31 199.93 443.14 197.69 444.55 195.26 446.37 193.19 444.14 192.24 441.25 191.68 438.47 190.17 435.44 190.2 430.68 195 427.82 196.04 425.33 197.76 423.31 198.42 421.11 198.39 414.28 202.57 413.62 203.45 413.39 204.5 412.39 205.57 408.18 206.86 405.69 208.19 402.97 209.32 400.5 210.65 395.58 207.05 391.06 202.93 390.26 200.16 390.54 197.29 392.46 194.57 394.92 192.33 395.36 191.31 395.47 190.22 396.88 189.63 398.57 190.08 400.52 188.24 401.14 137.05 403.64 137.42 406.35 139.6 408.05 142.23 410.79 143.1 412.01 142.35 413.12 141.42 417.03 139.67 419 136.01 423.73 115.58 423.12 108.65 426.08 100.26 427.82 99.44 429.83 98.79 431.65 94.95 432.72 90.72 431.71 87.16 427.63 85.95 424.93 84.19 424.36 80.98 425.9 52.72 425.9 52.7 438.04 59.48 453.42 68.07 468.82 76.67 484.21 85.27 499.6 93.86 515 102.45 530.39 111.04 545.78 119.64 561.18 128.23 576.58 136.83 582.07 139.89 Z" id="TZA-3391" data-name="Arusha"/>
<path d="M 625.5 262.93 621.92 266.71 621.36 271.45 621.31 274.91 622.3 277.98 623.72 279.85 624.22 282.2 625.05 284.21 626.25 286.06 626.88 288.77 623.42 288.64 621.44 287.51 619.55 286.14 618.29 286.21 613.38 287.24 609.81 288.44 605.4 289.47 601.14 288.46 597.65 287.3 594.08 287.29 590.12 290.84 579.56 303.59 578.96 305.26 579.56 307.13 579.48 309.18 577.9 316.1 576.29 320.86 569.7 329.35 568.33 333.2 566.79 341.6 564.53 345.29 556 351.09 545.56 359.46 541.73 360.71 536.75 359.26 531.94 357.39 528.37 354.24 525.76 350.21 523.7 346.04 520.82 342.55 516.21 340.37 511.85 337.71 509.33 334.44 507.27 330.86 503.92 327.54 500.2 324.56 497.45 321.68 496.5 318.39 497.73 314.36 496.95 309.84 498.51 306 500.79 302.47 502.32 297.43 504.97 280.19 505.81 265.61 505.41 263.26 503.75 259.61 502.6 255.69 501.9 251.66 501.4 230.39 483.46 235.45 481.33 237.08 479.56 238.11 478.75 238.7 476.56 242.35 473 242.26 471.25 243.46 469.51 244.32 468.3 243.65 467.06 243.13 465.9 243.95 465.14 245.17 462.05 248.12 456.41 251.98 454.83 251.38 454.19 251.75 453.85 253.01 453.99 254.22 454.39 255.37 455.65 257.9 454.97 260.64 451.33 266.38 446.4 276.37 444.83 278.92 441.08 279.55 434.52 278.95 433.64 278.53 432.68 278.42 428.4 276.78 425.7 271.74 421.49 271 418.61 269.03 418.64 266.01 417.96 263.17 413.18 260.85 410.55 255.05 406.98 250.95 402.09 248.06 398.85 244.47 401.52 237.22 405.35 230.31 409.45 224.85 409.27 222.72 403.14 216.07 400.5 210.65 402.97 209.32 405.69 208.19 408.18 206.86 412.39 205.57 413.39 204.5 413.62 203.45 414.28 202.57 421.11 198.39 423.31 198.42 425.33 197.76 427.82 196.04 430.68 195 435.44 190.2 438.47 190.17 441.25 191.68 444.14 192.24 446.37 193.19 444.55 195.26 443.14 197.69 445.31 199.93 448.55 200.37 449.81 198.48 449.58 195.72 458.1 193.45 459.34 190.88 459.77 185.89 461.66 186.15 462.61 189.55 460.84 194.71 460.34 199.93 461.9 204.86 463.36 204.45 463.58 202.3 465.48 199.89 468.04 197.66 471.51 193.07 475.65 191.67 478.01 195.04 481.42 201.45 497.62 224.93 501.18 226.43 504.52 226 505.21 224.54 508.44 223.91 511.8 223.62 513.77 223 515.8 223.08 516.97 223.56 518 223.03 518.09 218.93 516.49 209.87 515.86 201.67 517.04 198.76 521.33 193.15 522.62 192.65 524.01 192.36 525.5 191.07 526.91 190.58 527.44 189.39 527.43 188.65 527.94 188.1 533.18 187.83 534.5 188.2 535.79 189.08 537.15 191.48 539.34 190.97 541.11 188.6 542.99 186.52 548.38 186.46 550.01 184.99 551.35 183.11 553.62 181.58 556.12 180.64 557.88 180.19 559.7 180.01 561.66 180.21 563.57 178.3 565 177.89 566.42 177.75 567.33 178.83 568.22 180.13 570.2 180.77 572.3 180.9 573.34 181.8 573.06 183.17 575.27 188.41 579.13 192.59 581.77 197.1 583.9 200.83 585.17 204.02 584.91 211.99 585.55 215.62 586.42 217.08 588 222.52 588.43 224.45 588.5 226.44 587.43 229.06 587.37 231.3 587.53 233.6 587.13 239.14 587.27 244.64 589.65 248.7 593.34 251.73 595 251.95 601.25 255.43 606.22 259.22 607.95 259.85 609.59 259.59 612.22 257.94 613.83 257.72 618.15 257.87 619.15 258.27 619.87 258.74 621.29 259.02 622.04 259.33 623.6 260.7 625.5 262.93 Z" id="TZA-3392" data-name="Manyara"/>
<path d="M 582.07 139.89 591.97 145.42 597.89 148.73 598.99 150.49 600.26 158.27 600.41 159.21 601.85 167.98 600.54 168.07 599.83 168.69 599.58 169.69 599.68 170.97 598.33 171.07 596.62 171.99 595.02 173.25 593.98 174.41 593.61 175.05 593.27 175.85 593.09 176.68 593.2 177.44 593.72 177.97 594.9 178.12 595.26 178.68 594.97 179.86 594.4 181.27 594.61 182.25 598.04 182.05 599.57 182.18 601.09 182.58 602.44 183.24 603.44 184.16 603.98 185.26 605.23 189.68 605.95 191.14 606.93 192.43 610.84 195.24 616.96 199.65 623.07 204.05 629.2 208.46 635.32 212.87 641.43 217.28 647.56 221.68 653.2 225.75 653.19 225.76 628.74 260.69 625.5 262.93 623.6 260.7 622.04 259.33 621.29 259.02 619.87 258.74 619.15 258.27 618.15 257.87 613.83 257.72 612.22 257.94 609.59 259.59 607.95 259.85 606.22 259.22 601.25 255.43 595 251.95 593.34 251.73 589.65 248.7 587.27 244.64 587.13 239.14 587.53 233.6 587.37 231.3 587.43 229.06 588.5 226.44 588.43 224.45 588 222.52 586.42 217.08 585.55 215.62 584.91 211.99 585.17 204.02 583.9 200.83 581.77 197.1 579.13 192.59 575.27 188.41 573.06 183.17 573.34 181.8 572.3 180.9 570.2 180.77 568.22 180.13 567.33 178.83 566.42 177.75 565 177.89 563.57 178.3 561.66 180.21 559.7 180.01 557.88 180.19 556.12 180.64 555.97 167.64 553.3 162.73 548.29 159.44 546 158.43 544.26 156.74 543.6 153.39 543.48 149.95 545.14 145.24 549.93 143.83 552.32 142.8 554.13 140.9 558.42 137.39 561.73 135.2 565.38 135.08 566.62 135.53 568.02 135.05 570.61 135.35 572.94 136.72 578.87 139.17 582.02 139.88 582.07 139.89 Z" id="TZA-3393" data-name="Kilimanjaro"/>
<path d="M 388.07 31.59 391.85 33.7 407.24 42.29 422.64 50.89 425.9 52.7 425.9 52.72 424.36 80.98 424.93 84.19 427.63 85.95 431.71 87.16 432.72 90.72 431.65 94.95 429.83 98.79 427.82 99.44 426.08 100.26 423.12 108.65 383.69 108.96 381.05 107.79 377.03 105.04 375.21 104.94 372.89 105.23 370.84 104.19 369.22 101.68 367.24 99.38 361.95 96.29 359.58 94.56 357.91 92.15 356.26 91.18 354.29 90.78 348.69 87.78 346.17 87.77 343.66 87.46 339.07 83.22 337.32 84.28 336.83 86.78 333.98 87.04 329.13 86.76 327.25 87.64 324.41 86.06 324.44 85.39 323.32 82.57 321.21 80.54 318.55 79.89 315.88 81.22 312.62 83.6 311.94 83.92 310.87 84.25 309.91 85.07 308.24 86.85 305.4 85.43 301.34 84.71 297.04 84.57 293.51 84.9 291.53 85.64 290.49 85.76 290.04 85.14 289.73 84.21 288.96 83.47 287.11 82.45 285.08 81.7 283.41 81.7 281.99 82.45 280.7 83.92 280.12 83.08 279.87 82.56 279.72 81.96 279.78 81.21 280.44 80.22 280.7 79.47 280.67 78.93 280.54 78.16 280.37 77.56 280.21 77.55 280.52 76.8 280.67 76.72 280.83 76.93 281.18 77.02 283.2 77.11 283.19 77.02 284.96 77.49 285.31 77.77 285.8 76.99 285.78 76 285.24 75.09 284.16 74.57 285.01 73.77 286.1 74.55 287.08 75.95 287.59 77.02 288.08 77.02 288.06 74.91 289.23 75.1 292.04 77.55 292.26 77.04 292.5 76.78 293.51 76.53 291.51 73.59 293.49 71.74 295.75 72.38 300.41 75.55 303.74 75.57 304.29 75.79 304.77 74.8 305.61 73.84 305.93 72.8 304.82 71.59 304.25 71.92 304.04 71.96 303.85 71.82 303.31 71.59 303.58 71.44 303.66 71.44 303.7 71.39 303.84 71.1 300.99 70.41 297.92 70.12 299.84 68.87 299.96 68.48 299.39 67.67 297.86 66.67 297.44 66.09 297.92 65.22 297.01 65.1 296.21 65.14 295.67 65.47 295.47 66.2 292.97 66.36 290.12 68.34 287.36 69.75 285.1 68.16 286.84 67.08 287.11 66.96 287.06 65.9 287.13 65.38 287.69 64.41 286.68 62.92 286.38 61.84 289.42 54.98 292.43 52.79 295.61 53.14 297.47 54.68 298.12 50.96 297.94 46.98 298.28 43.06 297.52 39.39 288.8 35.98 244.79 36.69 243.58 35.63 244.9 2.2 245.01 2.2 253.86 2.2 258.14 2.2 271.26 2.2 284.4 2.2 295.39 2.2 297.52 2.2 310.12 2.2 310.66 2.2 323.78 2.2 329.65 2.2 335.12 2.2 335.41 2.16 336.52 2.2 336.67 4.08 337.63 4.71 340.29 4.91 345.66 7.91 361.06 16.51 376.46 25.1 388.07 31.59 Z" id="TZA-3394" data-name="Mara"/>
<path d="M 609.13 353 607.97 354.06 606.25 353.54 605.18 354.44 605.27 356.45 602.37 357.38 598.62 357.18 596.68 359.14 594.95 357.66 590.29 352.34 589.46 349.04 587.03 348.04 585.79 347.9 584.56 347.25 583.45 347.37 582.53 347.04 582.35 346.52 581.96 346.22 579.67 345.45 578.59 347.37 577.29 355.6 574.98 357.66 572.38 358.71 570.11 361.46 567.07 363.71 565.65 366.61 563.73 368.52 561.81 367.26 560.2 365.53 560.2 364.85 559.95 364.39 559.67 362.51 561.15 360.4 559.25 359.77 557.08 358.66 556 351.09 564.53 345.29 566.79 341.6 568.33 333.2 569.7 329.35 576.29 320.86 577.9 316.1 579.48 309.18 579.56 307.13 578.96 305.26 579.56 303.59 590.12 290.84 594.08 287.29 597.65 287.3 601.14 288.46 605.4 289.47 609.81 288.44 613.38 287.24 618.29 286.21 619.55 286.14 621.44 287.51 623.42 288.64 626.88 288.77 626.25 286.06 625.05 284.21 624.22 282.2 623.72 279.85 622.3 277.98 621.31 274.91 621.36 271.45 621.92 266.71 625.5 262.93 628.74 260.69 653.19 225.76 653.2 225.75 653.68 226.09 659.81 230.49 665.92 234.89 672.03 239.3 678.16 243.71 684.28 248.11 690.41 252.52 696.53 256.93 702.65 261.34 708.73 265.73 709.22 266.17 710.49 266.52 710.95 268.54 710.56 270.86 709.22 272.09 707.27 273.07 708.85 273.71 709.93 273.8 710.55 274.2 710.74 275.79 710.65 277.31 710.38 278.55 709.91 279.7 707.63 283.58 706.7 284.45 706.29 283.4 706.53 281.98 706.99 280.59 707.23 279.23 706.78 277.97 705.51 281.67 704.42 282.98 702.86 282.87 704.1 284.8 704.29 285.51 704.54 289.58 704.33 290.3 703.84 290.61 702.72 290.26 702.1 290.53 701.84 290.89 701.12 292.28 701 293.26 702.03 293.2 704.33 292.26 704.38 293.34 705.17 295.06 705.3 295.73 705.01 296.25 702.28 298.63 701.81 299.25 700.39 302.21 698.19 305.5 697.96 306.01 698.52 306.54 699.3 305.94 700.41 304.54 700.84 305.43 697.74 314.42 696.96 315.99 695.96 317.32 695.21 317.82 694.38 318.22 693.72 318.78 693.51 319.76 693.82 320.37 694.38 320.64 694.88 321.08 694.98 322.21 694.02 325.06 691.95 329.27 689.45 333.05 687.1 334.54 688.08 334.98 687.61 336.47 687.55 339.8 686.86 341.13 685.95 342.28 684.64 344.94 683.06 347.34 682.54 348.88 682.28 350.56 682.25 355.18 681.95 355.88 681.48 356.38 681.08 357 680.8 357.67 680.75 357.91 680.75 357.91 674.75 356.92 673.58 357.86 672.15 358.34 671.16 358.14 670.17 358.25 668.88 359.59 667.31 360.08 663.19 361.86 662.25 361.35 661.22 361.61 659.77 361.62 658.49 361.12 657.7 361.64 656.98 362.24 654.58 361.74 653.36 361.01 652.27 359.93 649.99 360.06 648.01 359.23 646.14 356.6 643.09 355.81 640.41 354.83 638.39 352.62 633.9 350.39 628.78 349.98 626.94 350.87 624.85 351.21 619.99 350.1 609.13 353 Z" id="TZA-3395" data-name="Tanga"/>
<path d="M 125.86 324.61 125.67 326.39 123.61 327.53 123.57 328.36 123.78 329.22 124.27 330.37 124.52 330.6 124.85 330.7 129.61 334.3 130.02 334.47 131.02 334.43 131.36 334.55 131.59 335.02 131.55 335.48 131.36 336.01 131.73 336.64 131.99 337.32 132.3 338.51 131.81 340.15 131.89 340.52 132.22 341.19 132.3 341.62 131.92 342.65 132.08 343.15 133.03 343.36 134.4 343.08 135.84 342.57 137.3 342.32 138.71 342.82 140.09 345.24 141.13 346.32 142.41 346.05 143.76 345.5 146.73 345.83 148.06 345.32 150.71 346.97 152.11 347.57 153.71 347.81 155.16 347.55 156.52 347.11 157.76 347.02 158.83 347.81 159.58 346.7 160.37 346.51 165.72 348.14 166.46 348.03 167.27 347.56 169.96 346.5 170.89 346.3 170.9 346.07 171.31 345.58 172.09 344.83 172.65 344.47 174.1 343.85 175.62 342.75 177.02 341.46 178.6 340.38 180.72 339.93 181.15 340.06 181.52 340.39 182.2 341.13 182.61 341.35 182.93 341.21 183.18 340.98 183.44 340.91 185.14 341.77 188.46 342.41 189.71 342.48 190.83 341.89 190.83 342.38 194.96 343.66 196.48 343.85 196.91 344.13 197.19 344.81 197.41 345.62 197.68 346.3 198.25 346.96 199.62 348.18 200.13 348.79 200.43 350.19 200.38 353.72 200.85 354.91 201.76 356.21 203.02 361.03 204.23 363.63 205.89 366.07 207.72 368.09 209.44 369.44 213.15 371.42 214.13 372.13 214.56 372.37 215.47 372.51 215.89 372.87 215.96 373.19 215.82 374.01 215.89 374.34 216.65 375.46 217.05 375.83 217.8 376.34 220.32 377.44 221.67 378.44 223.27 378.68 223.97 378.99 225.02 380.04 227.64 384.17 229.84 386.44 232.78 387.55 243.2 388.45 244.44 389.15 244.78 390.64 245.42 391.61 245.96 392.63 245.54 393.99 244.84 395.27 243.4 397.13 241.39 398.32 237.17 403.64 235.09 410.25 234.74 417.71 235.19 425.18 234.44 432.51 232.74 439.7 229.06 441.73 212.74 447.33 212.7 454.92 209.84 462.71 207.23 467.8 199.87 470.59 197.36 474.4 194.55 480.19 192.57 486.34 193.83 488.85 177.83 486.18 166.11 484.62 156.74 483.05 155.17 472.9 153.61 461.96 152.83 454.15 148.92 449.46 137.21 448.68 127.05 447.9 123.93 443.22 123.93 436.97 120.8 427.59 114.55 425.25 98.93 426.03 91.12 428.37 70.8 442.98 66.52 436.37 56.2 424.38 50.6 419.73 47.47 418.14 50.03 416.4 67.1 402.2 68.95 399.72 71.09 393.42 77.88 388.79 77.63 385.54 76.37 382.63 77.11 378.15 74.81 375.53 71.49 373.54 69.27 367.36 64.94 359.34 62.9 353.47 58.21 326.16 55.46 319.97 48.94 314.46 50.22 312.85 65.55 312.67 69.07 311.85 71.9 309.43 76.54 304.19 79 302.49 98.76 302.36 102.03 302.58 104.31 304.01 105.28 305.58 105.77 306.02 106.23 306.1 107.3 305.95 107.77 306.02 109.55 307.26 111.67 310.27 113.21 311.44 114.29 310.46 115.85 307.59 117.1 306.99 118.34 307.52 118.77 308.81 119.04 311.89 119.43 312.74 119.94 313.3 120.49 313.76 121.04 314.34 121.91 316.12 122.22 316.58 123.44 317.87 124.12 318.8 125.86 324.61 Z" id="TZA-5584" data-name="Katavi"/>
<path d="M 423.12 108.65 423.73 115.58 419 136.01 417.03 139.67 413.12 141.42 412.01 142.35 410.79 143.1 408.05 142.23 406.35 139.6 403.64 137.42 401.14 137.05 400.52 188.24 398.57 190.08 396.88 189.63 395.47 190.22 395.36 191.31 394.92 192.33 392.46 194.57 390.54 197.29 390.26 200.16 391.06 202.93 388.48 203.41 386.56 204.98 385.65 206.5 373.45 211.44 370.84 211.97 368.27 212.75 366.13 214.34 362.69 211.86 359.65 209.01 355.66 203.88 352.62 196.85 350.15 188.68 347.87 184.89 341.99 183.18 335.34 182.99 330.02 182.42 326.6 180.33 324.51 176.34 322.42 175.39 319.95 176.72 317.29 177.29 313.68 176.34 307.41 173.3 302.28 168.55 298.86 165.51 295.14 165.08 296.9 159.91 298.69 158.23 299.63 156.01 300.11 152.6 302.17 146.38 302.78 143.49 300.56 135.45 301.59 133.63 303.29 133.21 304.38 131.88 305.59 130.8 307.3 130.31 309.27 129.04 314.21 130.48 316.94 128.34 318.2 127.81 319.64 127.89 321.03 126.5 321.27 124.46 319.55 121.18 316.27 119.17 313.01 117.68 310.4 115.36 307.25 112.25 301.76 105.9 299.63 103.07 290.49 85.76 291.53 85.64 293.51 84.9 297.04 84.57 301.34 84.71 305.4 85.43 308.24 86.85 309.91 85.07 310.87 84.25 311.94 83.92 312.62 83.6 315.88 81.22 318.55 79.89 321.21 80.54 323.32 82.57 324.44 85.39 324.41 86.06 327.25 87.64 329.13 86.76 333.98 87.04 336.83 86.78 337.32 84.28 339.07 83.22 343.66 87.46 346.17 87.77 348.69 87.78 354.29 90.78 356.26 91.18 357.91 92.15 359.58 94.56 361.95 96.29 367.24 99.38 369.22 101.68 370.84 104.19 372.89 105.23 375.21 104.94 377.03 105.04 381.05 107.79 383.69 108.96 423.12 108.65 Z" id="TZA-5585" data-name="Simiyu"/>
<path d="M 229.71 159.62 227.39 160.08 222.92 162.24 220.79 163.97 219.1 165.93 217.94 168.31 215.68 168.08 213.83 166.56 213.21 163.88 211.04 162.38 208.31 163.17 206.08 164.95 202.98 168.94 201.47 173.74 202.48 181.05 203.74 188.11 202.73 193.66 196.17 194.17 188.85 195.18 181.29 198.71 174.98 204.26 170.95 210.31 169.94 214.85 170.92 219.86 168.09 224.14 167.08 226.31 167.65 227.62 169.03 228.47 169.89 230.36 170.29 232.37 165.34 234.81 158.42 234.06 155.5 234.86 153.65 237.16 152.91 240.18 151.27 242.69 148.9 238.94 147.37 235.22 147.14 233.96 146.28 232.88 145.99 230.61 145.4 228.41 145.6 224.87 147.98 218.25 148.37 214.77 147.11 208.9 142.79 199.39 138.76 195.56 137.02 191.07 136.86 186.15 136.2 183.67 135.89 181.39 136.12 178.73 134.89 176.3 134.8 176.11 134.79 176.14 133.25 173.84 131.94 171.37 130.11 166.38 129.3 161.22 125.53 158.43 124.18 159.29 123.15 160.51 122.27 160.49 121.64 159.75 121.78 155.79 124.49 151.59 126.5 146.45 126.34 141.03 126.01 140.48 125.43 140.24 124.89 139.37 124.81 138.25 123.13 135.07 120.11 133.87 119.24 129.34 115.71 126.32 112.43 122.78 114.95 115.72 122.77 111.94 133.36 93.78 135.63 94.28 140.43 93.53 144.21 92.26 147.49 92.77 161.87 99.07 166.84 99.27 170.44 95.54 173.59 94.04 173.61 93.31 174.12 92.77 174.56 91.45 174.44 90.03 174.01 87.94 174.93 86.66 180.1 86.12 184.3 84.34 185.61 88.65 186.18 92.34 186.46 94.61 187.87 95.97 188.68 97.59 188.48 99.4 189.69 101.62 191.7 103.24 197.15 106.06 201.79 109.09 204.75 111.07 208.45 112.32 210.67 115.34 222.78 117.36 218.95 124.63 231.46 131.89 229.64 137.34 235.9 142.59 229.71 159.62 Z" id="TZA-5586" data-name="Geita"/>
<path d="M 434.43 576.31 435.79 575.66 436.98 574.66 438.53 575.39 443.44 582.82 457.01 593.39 458 596.65 458.21 600.06 456.05 602.11 453.47 603.97 450.18 605.53 447.45 607.23 445.29 609.45 442.57 611.21 436.33 616.94 431.69 619.41 424.7 626.78 419.48 628.91 417.11 630.18 416.42 632.14 417.74 634.08 419.33 635.55 420.42 638.11 420.2 641.61 423.04 645.71 423.72 650.41 417.69 658.7 416.78 661.11 414.2 661.65 411.58 661.63 409.16 662.5 407.44 664.35 407.07 669.07 400.92 673.77 395.63 676.33 392.32 680.93 386.11 684.87 384.09 685.78 381.84 685.92 381.01 685.38 380.13 685.19 378.27 685.53 378.12 685.53 378.07 685.15 378.22 684.23 378.89 682.62 379.04 681.94 378.74 680.6 377.36 678.33 377.04 676.78 378.49 668.95 378.52 668.19 378.36 667.3 377.76 665.74 377.08 661.93 374.7 656.64 374.15 654.19 374.3 653.48 374.94 652.08 375.09 651.26 374.99 650.48 374.15 648.02 371.99 645.01 371.18 643.53 364.02 634.76 363.94 634.46 362.64 633.22 362.32 633.05 360.72 631.42 360.31 630.85 359.95 629.49 359.77 628.21 359.32 627.26 357.18 626.49 350.21 619.19 348.13 618.25 346.89 616.91 346.35 616.6 343.92 613.68 342.93 613.13 342.25 612.33 342.15 612.27 342.43 609.93 339.55 607.07 338.1 606.87 336.76 606.3 334.59 603.35 330.67 596.64 329.06 594.58 328.87 592.34 328.08 591.38 325.64 590.85 326.03 589.36 327.56 588.55 326.35 585.31 324.69 582.28 322.3 579.55 321.89 576.14 326 569.49 328.96 566.87 332.86 566.1 338.15 567.91 340.16 567.26 340.89 565.2 344.53 563.73 348.72 564.1 352.85 564.01 360.01 562.27 366.89 563.25 370.59 563.17 373.91 561.86 376.43 559.2 378.3 555.46 380.61 553.85 383.29 552.87 385.64 553.15 387.25 552.04 389.05 547.37 399.2 550.43 399.2 554.03 416.4 560.03 415.6 572.83 422.4 577.63 429.2 578.03 434.43 576.31 Z" id="TZA-5587" data-name="Njombe"/>
</g>
</svg>