<?xml version="1.0"?>
<svg xmlns="http://www.w3.org/2000/svg" version="1.2" baseProfile="tiny" width="800" height="958" viewBox="0 0 800 958" stroke-linecap="round" stroke-linejoin="round">
<g id="ne_10m_admin_1_states_provinces">
<path d="M 454.6 542.41 444.32 614.33 285.82 685.38 204.91 754.15 171.05 696.31 143.72 603.4 154.65 526.88 209.31 472.23 335.01 505.02 454.6 542.41 Z" id="NRU-4970" data-name="Buada"/>
<path d="M 204.91 754.15 176.52 778.29 146.67 890.2 78.82 725.61 171.05 696.31 204.91 754.15 Z" id="NRU-4971" data-name="Boe"/>
<path d="M 171.05 696.31 78.82 725.61 1 536.8 154.65 526.88 143.72 603.4 171.05 696.31 Z" id="NRU-4972" data-name="Aiwo"/>
<path d="M 209.31 472.23 154.65 526.88 1 536.8 52.65 338.69 209.31 472.23 Z" id="NRU-4973" data-name="Denigomodu"/>
<path d="M 464.91 464.64 460.72 499.56 454.6 542.41 335.01 505.02 209.31 472.23 52.65 338.69 101.07 153 464.91 464.64 Z" id="NRU-4974" data-name="Nibok"/>
<path d="M 471.79 407.32 464.91 464.64 101.07 153 173.37 125.19 471.79 407.32 Z" id="NRU-4975" data-name="Uaboe"/>
<path d="M 484.36 314 477.11 362.92 471.79 407.32 173.37 125.19 283.24 82.93 484.36 314 Z" id="NRU-4976" data-name="Baiti"/>
<path d="M 498.97 215.36 484.36 314 283.24 82.93 377.73 46.59 498.97 215.36 Z" id="NRU-4977" data-name="Ewa"/>
<path d="M 498.97 215.36 377.73 46.59 496.27 1 498.97 215.36 Z" id="NRU-4978" data-name="Anetan"/>
<path d="M 757.2 118.8 498.97 215.36 496.27 1 757.2 118.8 Z" id="NRU-4979" data-name="Anabar"/>
<path d="M 785.53 326.58 619.21 286.41 498.97 215.36 757.2 118.8 785.53 326.58 Z" id="NRU-4980" data-name="Ijuw"/>
<path d="M 785.53 326.58 799 425.33 720.27 669.85 597.35 652.59 444.32 614.33 454.6 542.41 460.72 499.56 464.91 464.64 471.79 407.32 477.11 362.92 484.36 314 498.97 215.36 619.21 286.41 785.53 326.58 Z" id="NRU-4981" data-name="Anibare"/>
<path d="M 720.27 669.85 691.33 759.73 496.27 957.33 400.19 938.88 285.82 685.38 444.32 614.33 597.35 652.59 720.27 669.85 Z" id="NRU-4982" data-name="Meneng"/>
<path d="M 400.19 938.88 146.67 890.2 176.52 778.29 204.91 754.15 285.82 685.38 400.19 938.88 Z" id="NRU-4983" data-name="Yaren"/>
</g>
</svg>