<?xml version="1.0"?>
<svg xmlns="http://www.w3.org/2000/svg" version="1.2" baseProfile="tiny" width="800" height="792" viewBox="0 0 800 792" stroke-linecap="round" stroke-linejoin="round">
<g id="ne_10m_admin_1_states_provinces">
<path d="M 798.86 790.48 798.69 790.91 798.43 786.65 797.28 783.77 797.83 784.01 799 786.41 798.86 790.48 Z M 793.02 778.27 792.71 778.74 791.62 776.04 790.71 774.8 790.79 774.56 791.94 775.33 793.02 778.27 Z M 651.91 602.95 648.01 605.51 649.87 602.86 650.72 600.63 650.35 598.67 649.45 596.16 649.33 592.73 649.73 588.32 651.21 591.15 651.38 596.3 653.13 599.01 653.56 600.97 651.91 602.95 Z M 479.06 496.71 476.93 505.88 475.4 505.68 475.86 502.95 477.48 499.39 479.06 496.71 Z M 543.1 384.29 542.53 385.31 540.71 383.8 537.59 377.92 537 375.9 541.88 380.19 542.46 380.4 542.94 382.22 543.1 384.29 Z M 217.95 322.11 217.8 322.35 217.8 321.73 217.75 321.25 217.33 320.26 217.27 319.79 217.88 321.23 217.95 322.11 Z M 42.61 131.33 40.89 132.86 41.92 130.09 42.71 130.01 42.61 131.33 Z M 260.78 94.11 258.21 94.6 257.31 93.22 256.95 92.48 256.75 91.88 259.2 92.38 260.85 93.22 260.78 94.11 Z M 4.19 3.04 5.89 7.17 3.11 4.23 1 1.34 1.98 1 4.19 3.04 Z" fill-rule="evenodd" id="TUV+00?" data-name="Tuvalu"/>
</g>
</svg>