<?xml version="1.0"?>
<svg xmlns="http://www.w3.org/2000/svg" version="1.2" baseProfile="tiny" width="800" height="309" viewBox="0 0 800 309" stroke-linecap="round" stroke-linejoin="round">
<g id="ne_10m_admin_1_states_provinces">
<path d="M 351.85 297.19 356.8 299.24 365.5 298.5 371.53 296.62 374.23 299.37 368.59 301.95 364.09 304.75 362.24 308 356.15 306.18 351.19 304.13 347.75 301.83 342.07 302.32 339.39 299.56 334.44 297.27 341.2 293.77 346.86 292.82 346.07 290.28 349.8 286.33 355.46 285.15 363.02 285.11 363.82 287.64 358.53 288.6 358.58 291.6 354.45 294.17 351.85 297.19 Z M 343.09 248.38 346.64 254.54 357.63 253.78 362.38 254.5 365.73 257.44 364.69 258.51 363.79 260.03 363.03 261.82 362.55 263.82 366.46 265.48 365.94 268.53 362.81 271.46 358.8 272.77 356.92 273.08 354.64 273.89 352.72 275.12 350.91 278.49 348.84 278.4 347.01 276.79 346.84 274.11 346.73 273.75 346.54 273.42 346.26 273.09 345.83 272.77 348.24 271.1 350.29 268.2 351.29 264.58 350.53 260.63 347.73 257.76 344.16 256.33 341.05 254.59 339.74 250.77 340.79 246.55 343.09 248.38 Z M 640.97 218.59 642.19 218.72 644.2 218.52 645.47 217.5 645.18 216 646.14 215.78 647.3 216.16 650.28 217.95 650.32 218.26 649.33 218.61 649.03 220.18 648.37 221.98 645.77 222.03 641.58 220.91 639.58 220.94 639.58 221.87 640.93 224.06 639.87 225 637.39 224.8 637.13 225.4 639.47 226.38 641.9 225.69 643.8 224.35 644.2 224.82 643.16 226.85 642.66 228.99 643.04 231.06 644.94 233.63 644.74 234.93 644.08 235.88 644.23 237.25 645.7 238.94 644.62 239.9 640.01 239.37 638.26 238.19 639.87 236.98 640 235.46 638.74 235.44 636.35 235.95 632.83 234.79 629.62 233.28 624.5 231.65 623.96 230.51 623.89 228.55 622.8 226.76 619.95 225.11 618.1 223.17 619.68 221.71 622.42 220.47 625.53 219.42 628.76 218.88 630.97 217.95 633.04 217.68 633.63 217.39 632.04 216.38 632.83 215.76 636.15 215.87 638.75 216.54 640.03 217.61 640.97 218.59 Z M 367.1 210.89 367.61 213.15 365.7 214.75 363.5 215.24 362.23 214.96 361.84 214.31 361.3 213.59 360.47 212.95 359.34 212.9 358.01 213.06 357.1 212.17 358.41 209.46 357.99 207.75 358.79 205.43 361.56 203.77 363.82 204.26 363.91 205.72 363.17 207.54 364.35 209.2 365.78 209.82 367.1 210.89 Z M 19.53 179.92 19.53 181.3 21.6 182.06 23.85 182.28 26.21 181.99 28.65 181.3 23.41 186.77 15.68 186.75 7.54 183.27 1 178.4 2.09 177.71 3.19 177.24 5.57 176.75 7.56 177.35 12.33 178.22 16.04 180.46 17.05 179.56 17.87 176.75 18.59 175.66 19.03 174.14 19.99 172.74 22.35 172.18 24.3 172.49 25.94 173.38 27.38 174.85 28.65 176.75 26.21 177.24 19.53 179.92 Z M 98.72 185.99 97.31 188.62 92.49 195.12 101.75 195.12 99.99 197.17 98.43 201.23 97.06 202.86 93.94 204.26 83.51 205.76 77.1 207.1 72.58 206.96 62.09 204.26 63.04 202.03 63.61 201.21 60.42 201.16 59.02 199.74 58.37 197.93 57.39 196.64 55.19 196.08 50.49 195.78 48.28 195.12 47.47 194.58 46.95 194.02 46.33 193.6 45.23 193.6 46.95 188.71 45.43 185.54 41.93 183.71 37.77 182.95 41.64 180.01 44.71 178.71 48.26 178.36 57.32 178.47 58.6 178.27 61.33 174.52 65.53 170.39 68.14 168.76 71.34 167.74 72.37 167.62 74.77 167.62 75.78 167.74 77.5 168.5 78.12 169.36 78.32 170.12 78.83 170.66 83.34 172.07 85.25 173.7 84.27 176.04 80.06 178.27 69.13 182.2 65.13 185.99 64.58 187.84 65.73 188.36 81.88 184.92 88.65 181.08 93.03 179.56 96.67 177.24 98.72 172.18 97.75 170.33 95.61 169.63 94.57 168.69 97.06 166.09 99.9 164.46 102.38 164.25 104.12 165.53 104.79 168.47 104.38 170.44 103.34 172.71 102.06 174.74 100.93 176.04 99.68 178.07 99.21 183.54 98.72 185.99 Z M 28.65 149.24 24.83 150.66 16.08 150.31 12.47 151.58 10.77 153.81 10.1 156.4 10.12 163.05 7.38 162.38 4.58 161.29 2.29 159.57 1 156.96 2.38 152.52 4.08 149.55 6.87 147.61 11.65 146.32 16.44 146.25 24.43 148.64 28.65 149.24 Z M 435.93 73.84 437.61 75.29 460.18 81.07 466.17 83.68 469.52 86.89 459.97 86.56 456.06 87.71 454.19 91.18 455.01 94.54 457.87 94.66 461.54 93.88 464.81 94.36 458.87 96.57 448.54 103.92 443.39 106.53 441.91 104.07 439.58 103.27 436.88 103.74 434.27 105.01 434.27 106.53 435.09 107.71 434.82 109.02 432.89 112.6 434.47 112.01 439.11 111.21 439.11 112.6 432.06 118.82 431.27 120.23 430.54 126.41 428.97 127.82 426.21 128.82 420.72 133.17 417.56 134.02 415.06 133.13 413.83 131.19 413.74 128.78 414.65 126.43 407.72 131.63 403.92 133.57 400.82 132.5 388.67 140.11 394.84 139.8 393.91 142.23 386.25 148.48 376.36 159.88 370.32 164.41 355.6 172.78 332.06 194.09 327.58 199.82 325.47 203.28 323.07 206.12 319.66 208.08 309.86 209.69 295.65 216.27 293.95 209.75 293.24 208.8 287.63 208.28 284.65 207.61 283.35 206.59 282.41 204.16 280.22 204.26 277.9 205.45 276.5 206.59 275.99 208.91 278.64 213.48 278.02 215.58 273.56 217.19 254.34 216.27 249.18 218.08 246.54 218.28 245.21 216.27 245.95 214.93 249.95 212.28 251.3 210.45 236.65 214.24 233.05 216.27 230.71 220.33 232.02 223.73 234.57 227.47 235.95 232.43 234.81 235.77 232.09 238.52 214.26 251.68 211.63 253.02 206.72 252.84 199.8 249.72 194.91 249.97 195.82 250.3 196.12 251.46 195.97 252.85 195.59 253.78 194.08 254.36 192.55 253.45 191.03 252.18 187.31 250.55 183.15 246.39 181.85 245.44 179.27 244.81 174.92 242.42 171.97 242.4 170.59 243.34 170.19 244.86 170.87 246.31 176.86 248.18 180.25 251.24 182.69 255.19 184.12 259.11 175.03 265.81 162.52 270.2 150.51 269.38 142.81 260.63 145.7 260.81 147.88 261.32 149.88 261.46 152.21 260.63 148.03 258.63 142.54 254.79 137.65 250.46 135.34 246.97 137.03 246.28 139.98 244.1 141.19 241.78 137.7 240.73 115.28 240.13 112.4 240.73 110.57 242.36 111.9 243.3 114.8 243.78 117.65 243.92 122.15 245.26 127.19 248.6 131.47 252.64 133.69 256.21 120.76 256.21 117.1 255.79 115.26 254.72 114.11 253.2 104.03 244.68 101.4 243.12 98.51 242.83 95.5 242.91 92.49 242.4 88.57 240.04 81.29 233.74 77.29 231.74 67.04 230.29 63.62 227.85 65.13 222.5 67.45 220.26 73.03 221.02 85.03 224.15 94.74 224.59 97.06 225.55 98.03 227.72 97.93 230.24 98.94 232 103.27 231.74 100.09 224.15 115.16 222.9 129.26 219.46 129.26 217.94 122.17 215.44 116.15 214.75 110.95 213.01 106.32 207.41 125.64 207.3 135.76 208.88 139.89 213.5 141.41 213.5 142.28 211.87 143.21 210.83 145.98 208.8 146.35 211.1 147.49 213.06 149.23 213.88 151.43 212.74 153.75 211.2 155.89 211.09 158.26 211.63 164.46 212.28 166.75 213.01 170.44 214.89 174.13 217.41 176.04 217.47 178.04 214.89 175 213.5 175 211.97 180.66 212.07 186.96 211.3 192.97 209.71 197.8 207.41 203.57 200.83 204.79 199.82 205.47 198.91 204.22 197.17 201.74 196.16 198.64 197.41 190.57 201.99 179.9 204.53 168.86 204.38 159.67 201.21 177.35 201.95 181.85 200.5 183.48 199.78 187.8 198.6 188.69 197.41 189.41 195.39 191.1 193.38 193.16 191.66 194.91 190.56 192.83 187.93 193.06 186.19 194.22 184.74 194.91 182.95 194.63 180.83 193.49 175.99 193.26 172.94 195.54 169.14 200.92 166.37 207.03 165.22 211.63 166.09 209.91 167.96 208.04 169.59 204.03 172.18 210.85 171.15 213.66 171.15 214.8 172.94 214.19 175.03 209.96 181.3 212.57 182.35 219.09 185.99 219.42 182.38 221.18 179.63 224.19 178.16 228.36 178.4 225.71 175.12 224.89 172.56 225.31 165.33 226.15 163.25 228.21 161.91 230.75 161.36 233.05 161.53 234.52 162.56 236.1 166.11 237.47 167.74 238.99 167.51 241.02 166.44 242.79 166.2 243.55 168.47 244.52 169.05 246.7 168.16 253.52 164.3 254.16 160.21 253.91 155.55 254.34 152.29 248.38 150.98 242.89 151.72 237.58 153.16 232.22 153.94 219.15 152.72 213.46 153.83 214.8 158.48 213.03 161.04 211.39 161.04 209.52 160.11 207.07 159.88 197.08 163.94 194.08 164.57 184.05 164.57 180.92 165.35 179.23 167.18 178.04 169.19 176.39 170.66 171.9 170.68 169.62 167.38 167.51 163.43 163.53 161.53 158.65 160.21 154.46 156.8 151.98 152.3 152.21 147.72 155.35 143.91 158.94 144.33 163.14 146.43 185.38 150.76 191.73 150.89 196.99 149.41 207.23 144.37 212.39 143.28 229.95 144.4 245.62 140.49 250.24 140.98 259.56 146.85 264.87 148.43 277.28 149.24 274.04 145.11 268.67 142.83 262.48 141.85 256.68 141.63 252.25 140.27 239.12 131 236.75 130.13 232.25 129.04 229.88 127.82 223.79 121.86 218.01 121.46 185.32 112.04 182.61 110.41 180.27 105.81 179.77 103.14 181.85 101.97 194.91 101.97 205.61 103.74 207.94 102.69 204.79 98.16 200.21 95.15 194.29 93.12 188.07 91.84 179.59 91.13 173.43 91.46 170.44 91.18 163.47 88.67 160.43 88.27 158.23 87.76 155.75 86.42 154.07 84.68 154.34 82.98 155.16 80.55 154.02 77.87 150.67 73.08 153.19 73.25 155.51 73.12 157.66 72.54 159.67 71.42 167 74.57 191.73 80.69 199.49 83.68 222.27 95.75 240.42 101.46 260.41 103.36 297.04 98.92 291.69 94.99 275.89 94.12 278.02 89.06 282.69 85.21 287.92 82.22 289.16 79.28 290.62 78.36 293.24 79.93 294.05 81.29 295.65 86.89 309.11 79.82 316.45 77.83 323.02 79.17 323.02 80.69 321.77 81.4 321.13 82.11 320.69 82.9 319.98 83.74 340.91 86.24 347.49 88.27 343.96 89.35 340.2 89.83 332.28 89.83 338.64 94.36 350.5 94.36 392.4 88.27 396.37 87.25 403.87 82.92 408.43 82.22 408.43 83.74 392.76 90.86 387.01 92.71 397.09 96.29 407.77 96.4 429.71 91.18 428.19 89.1 425.52 87.18 422.46 85.77 419.76 85.22 418.32 83.95 418.18 77.4 417.56 74.6 419.43 74.75 423.29 74.44 425.16 74.6 424.74 73.59 424.18 71.07 423.76 70.04 426.94 70 430.99 70.55 434.46 71.78 435.93 73.84 Z M 357.57 72.09 363.67 74.91 364.01 70.4 368.96 70.86 370.13 74.42 375.09 76.3 383.47 76.98 384.26 79.58 377.79 80.56 369.44 83.2 362.61 85.6 356.15 86.09 349.66 83.5 350.4 80.18 354.95 77.79 349.62 76.86 340.88 77.83 334.03 75.23 332.49 72.86 338.57 72.37 345.03 71.88 346.9 67.84 351.46 68.07 354.51 70.2 357.57 72.09 Z M 312.76 70.29 307.65 71.52 303.12 71.42 298.77 69.71 294.91 67.21 291.72 64.17 289.43 60.76 299.91 58.7 303.35 58.68 306.77 59.27 315.47 62.37 316.94 62.43 313.7 63.73 312.25 63.84 312.25 65.51 315.33 68.12 312.76 70.29 Z M 248.69 62.26 254.81 62.68 260.41 62.43 272.42 60.63 277.97 61.61 280.32 66.23 281.32 67.16 283.04 69.53 283.57 71.96 281 73.08 272.58 79.17 269.09 84.32 268.01 85.22 265.7 85.1 259.25 82.8 256.68 82.22 240.79 84.14 237.49 83.79 233.41 82.65 230.23 80.58 229.61 77.58 232.73 74.39 238.23 72.54 248.94 71.42 251.39 72.39 255.89 76.67 258.2 77.65 261.49 77.49 264.36 77 267.02 76.05 269.67 74.6 265.63 72.14 253.42 67.76 244.86 66.05 234.42 61.23 231.38 59.27 227.76 56.05 227.51 54.55 229.88 53.19 233.52 52.91 235.51 54.35 236.81 56.56 238.3 58.57 242.9 61.01 248.69 62.26 Z M 178.48 64.96 177.17 65.31 176.46 64.06 176.24 62.81 175.52 61.83 172.83 61.18 168.47 60.51 163.96 58.19 161.65 53.46 164.73 51.59 170.88 54.78 173.99 57.14 175.73 57.92 178.69 60 179.49 62.68 178.48 64.96 Z M 576.51 67.92 581.74 68.52 593.08 68.52 595.64 69.22 597.86 70.36 600.35 71.29 603.7 71.42 603.7 70.04 602.87 67.28 606.25 64.87 611.46 63.12 632.64 61.83 636.53 63.13 640.22 65 649.3 66.92 653.26 69.28 663.32 76.85 664.79 79.93 665.61 84.44 666.56 87.51 665.51 90.01 660.23 92.71 655.89 93.92 650.12 94.88 644.46 95.15 640.33 94.36 638.15 91.82 634.41 84.24 631.21 82.22 627.45 82.83 623.89 85.31 617.54 91.18 625.06 91.31 626.42 94.32 623.61 104.18 626.52 105.75 640.65 100.86 645.79 101.21 646.77 103.52 646.39 106.35 645.52 109.29 645.03 111.93 645.28 115.77 646.05 117.15 649.45 117.17 650.32 116.83 651.88 114.76 653.26 114.29 654.18 114.98 655.58 118.27 656.37 119.54 659.36 120.78 662.88 120.65 665.99 119.36 667.7 117.17 672.38 118.91 675.17 121.19 676.59 124.33 676.96 128.64 678.27 131.65 681.42 135.45 685.2 138.75 688.43 140.11 692.33 138.68 690.5 135.34 684.7 129.47 687.08 126.75 691.87 127.37 701.42 131 699.77 125.76 694.42 123.53 688.72 122.15 686.07 119.54 687.58 117.91 690.53 116.52 692.58 114.72 691.47 111.93 688.61 110.95 681.81 112.93 678.49 112.6 676.27 110.85 676.07 109.14 676.31 107.29 675.45 105.01 674.39 103.78 672.81 102.38 671.37 102.11 670.74 104.18 669.84 106.32 667.65 107.49 664.9 107.98 662.39 108.04 659.82 107.19 660.87 105.21 664.79 101.97 674.98 88.9 677.72 86.89 680.23 86.18 686.2 82.92 689.19 82.22 735.85 80.04 748.1 77.61 754.77 77.65 760.68 78.68 763.16 79.93 765.55 82.22 769.32 91.35 770.8 92.71 773.14 93.88 779.99 101.21 782.35 102.73 785.45 103.85 791.53 105.01 789.71 107.22 785.45 108.89 783.79 111.21 789.47 111.17 791.24 113.2 789.28 115.74 783.79 117.17 756.04 114.8 737.31 107.76 732.69 107.11 730.73 108.89 733.48 114.29 721.59 111.14 707.51 115.65 711.44 119.76 718.94 123.15 727.21 125.49 733.48 126.43 746.28 124.45 752.5 126.86 773.31 128.2 781.62 129.73 788.6 132.73 791.53 137.83 787.44 140.67 778.19 142.81 762.37 144.68 762.37 146.32 775.75 149.37 780.75 149.24 789.61 147.27 793.96 146.9 799 147.72 799 149.24 792.75 149.57 770.15 156.53 765.57 157.07 750.46 157.27 747.5 157.94 747.31 159.66 744.49 161.26 741.52 162.05 707.68 164.55 690.4 162.83 681.65 163.05 681.65 164.57 684.39 164.92 692.16 167.74 695.83 168.58 707.51 169.14 707.51 170.66 701.27 171.86 688.14 171.33 681.65 172.18 666.21 178.25 660.23 178.4 665.04 179.85 669.62 179.63 683.47 175.43 698.39 175.35 695.33 177.85 689.74 180.34 683.66 182.2 674.14 183.92 657.19 190.56 646.53 193.47 626.01 191.43 614.5 191.95 606.47 193.6 571.1 193.27 565.69 191.95 558.11 187.51 547.81 185.1 542.85 182.42 538.05 180.77 535.79 179.16 534.68 177.27 533.86 174.99 532.67 173.07 530.47 172.18 527.68 173.49 525.25 176.62 523.52 180.01 522.86 182.13 524.05 184.92 526.98 187.64 530.73 189.74 541.09 191.73 550.09 194.67 558.25 198.62 562.53 202.86 559.39 206.77 565.23 207.93 577.87 205.76 584.31 206.01 592.72 207.46 599.04 210.34 599.15 214.89 605.24 217.94 593.66 222.83 590.02 225.55 592.63 227.09 594.24 229.1 595.26 231.64 597.16 239.25 597.06 241.49 595.35 242.29 591.56 242.4 589.51 241.33 582.57 233.12 580.02 230.78 577.42 228.84 574.29 227.52 570.2 227.07 568.22 226.6 565.54 224.59 564.12 224.15 562.76 224.59 562.17 225.58 561.23 226.6 558.79 227.07 556.83 226.82 553.57 225.76 551.88 225.55 548.99 226.31 549.14 228.05 550.31 230.13 550.36 231.74 547.35 233.77 540.41 236.44 537.37 238.5 533.7 240.12 531.36 237.52 528.81 230.08 524.17 233.28 521.65 231.42 520.07 227.4 518.3 224.15 513.5 222.63 508.57 223.39 504.73 223.34 503.1 219.46 499.05 220.8 495.76 220.18 489.27 216.27 487.63 214.6 486.38 213.77 484.72 213.5 482.04 214.2 481.02 215.35 480.34 216.67 478.63 217.94 475.44 218.93 472.58 219.17 469.72 218.77 466.48 217.94 464.5 217.07 463.01 216.02 461.32 215.22 458.74 214.89 457.14 215.36 453.88 217.43 451.97 217.94 449.64 219.24 450.93 221.76 454.25 223.3 460.82 220.67 472.49 222.5 475.75 223.93 476.19 227.11 476.1 230.29 477.8 231.74 482.18 231.24 485.19 230.4 488.15 230.22 492.31 231.74 484.72 237.69 492.8 237.36 496.76 237.8 500.07 239.35 496.33 241.55 487.66 243.74 484.72 245.44 483.01 249.59 486.24 250.92 491.39 250.63 504.16 247.87 508.51 247.73 509.18 249.97 506.82 251.86 495.36 256.21 498.18 259.14 503.22 261.86 506.27 264.8 503.1 268.38 498.31 269.04 492.79 267.59 483.2 263.82 477.38 263.38 472.35 263.93 467.82 263.62 463.44 260.63 462.3 258.71 461.8 256.86 460.95 255.01 458.74 253.02 456.15 252.07 453.45 251.68 450.78 250.81 448.25 248.45 444.39 249.54 435.49 243.12 431.23 242.4 430.28 243.78 429.29 246.42 428.19 250.77 427.03 252.2 424.47 250.68 420.59 246.97 415.63 249.14 417.79 253.09 425.16 259.11 424.33 259.07 422.78 260.45 421.26 262.48 420.59 264.51 421.74 266.01 424.44 266.53 429.71 266.86 435.22 268.85 438.76 271.39 440.15 274.69 439.11 279 437.75 279.82 435.14 281.9 433.92 284.08 436.69 285.09 437.18 285.96 442.18 289.38 443.39 289.66 441.7 293.57 437.25 292.23 429.71 286.61 424.58 284.73 413.26 283.31 408.43 280.67 409.3 276.36 406.55 273.6 402.09 272.04 391.85 270.45 387.99 268.62 387.89 265.85 393.23 262.15 389.45 260.92 381.79 262.51 378.64 261.39 378.09 260.14 378.25 257.26 377.88 256.21 370.92 251.31 362.68 247.44 360.56 246.06 358.1 243.92 356.51 241.44 357 239.05 358.51 238.29 360.45 238.48 362.43 239.17 363.99 239.97 368.66 243.29 370.29 243.92 374.4 243.74 377.28 242.11 377.79 239.5 374.84 236.31 384.02 235.11 388.1 233.37 390.19 230.08 386.19 228.88 381.74 226.82 378.07 224.13 376.36 220.98 376.63 218.99 377.76 218.06 379.52 218.37 381.76 220.22 383.91 221.13 387.14 221.31 393.23 220.98 389.73 216.63 387.92 215.04 385.49 213.5 389.19 212.36 397.12 211.54 400.82 210.45 400.82 208.8 388.34 206.63 382.52 204.24 382.44 199.82 387.74 197.73 395.11 199.42 402.65 202.08 408.43 202.86 413.1 200.14 409.79 197.39 403.91 194.63 400.82 191.95 402.13 189.49 405 189.34 408.44 189.78 411.47 189.03 412.86 187.2 412.77 185.25 411.26 183.71 408.43 182.95 412.29 181.42 428.97 177.56 433.43 180.28 436.18 177.93 439.11 167.74 442.61 169.95 446.2 170.39 454.19 169.14 450.42 163.87 449.62 161.53 471.04 152.29 474.75 155.33 477.62 153.9 480.43 150.89 483.96 149.24 500.96 147.27 504.62 147.72 505.9 149.44 505.94 151.42 505.67 153.46 506 155.46 507.2 157.12 508.72 158.61 510.03 160.24 510.57 162.29 509.92 164.37 508.69 166.37 507.84 168.21 509.13 171.48 508.98 173.36 508.37 175.23 507.66 176.75 511.39 175.77 515.67 175.12 519.38 173.76 521.34 170.66 520.29 167.45 517.61 163.59 515.49 159.59 516.31 153.72 513.4 151.87 510.87 149.3 512.23 144.68 514.2 143.53 516.74 143.32 518.9 142.81 519.82 140.87 519.13 138.79 517.37 138.57 515.14 138.75 510.47 137.01 494.75 133.26 484.72 127.82 479.8 122.55 483.76 118.8 490.09 114.22 492.31 106.53 503.6 120.12 510.69 124.83 515.4 118.82 509.47 113.64 508.02 108.56 511.36 105.92 519.82 108.04 513.99 104.32 493.71 98.52 489.27 96.57 490.08 93.2 492.2 89.61 495.12 86.67 498.4 85.22 499.76 85.62 504.15 87.69 506 88.27 508.78 88.3 516.09 86.89 518.03 85.95 519.16 83.79 519.89 81.64 520.58 80.69 535.64 80.42 540.89 79.44 545.32 77.59 547.32 74.6 546.01 71.56 539.65 65.64 537.31 61.78 535.22 60.04 532.87 58.51 531.23 57.9 530.14 56.92 527.42 50.14 532.14 51.34 539.25 56.67 542.63 57.9 547.53 58.33 558.04 60.87 576.51 67.92 Z M 357.97 52.03 363.37 53.19 386.25 51.66 388.21 51.99 388.37 52.81 388.07 53.88 388.67 54.98 390.13 56.5 390.87 57.9 392.22 58.89 395.5 59.27 397.04 58.68 398 57.28 398.65 55.85 399.3 54.98 401.58 53.84 403.2 53.37 405.39 53.19 410.41 54.38 414.19 57.54 416.61 61.96 417.56 66.99 412.15 67.83 406.96 69.64 393.99 70.04 388.75 68.35 381.33 60.96 375.6 59.27 350.53 57.9 341.15 56.41 339.05 55.61 337.57 53.73 337.1 51.81 338.18 50.41 341.4 50.14 346.45 48.51 352.14 49.78 357.97 52.03 Z M 61.01 12.71 59.26 13.01 56.21 12.45 48.89 10.31 45.84 9.88 43.84 9.34 43.72 8.18 45.57 7.12 46.86 6.15 46.7 5.08 45.18 2.92 45.3 1 48.33 1.49 51.27 3.36 54.36 6.16 55.4 7.45 56.29 8.94 56.79 9.63 59.47 10.62 60.8 11.6 61.01 12.71 Z" fill-rule="evenodd" id="FLK-5152" data-name="Falkland Islands"/>
</g>
</svg>