<?xml version="1.0"?>
<svg xmlns="http://www.w3.org/2000/svg" version="1.2" baseProfile="tiny" width="800" height="349" viewBox="0 0 800 349" stroke-linecap="round" stroke-linejoin="round">
<g id="ne_10m_admin_1_states_provinces">
<path d="M 474.71 258.86 476.07 261.96 475.75 262.8 475.67 264.07 474.97 264.49 474.59 264.91 474.73 265.25 477.08 266.73 477.69 267.73 477.1 269.75 476.55 270.92 476.51 272.01 477.04 272.92 479.75 273.93 491.77 274.88 494.02 274.77 498.55 274.01 500.26 273.3 503.5 272.48 505.84 271.65 507.74 271.59 511.49 272.04 515.45 273.11 516.34 273.57 516.69 274.34 516.5 275.14 516.08 276.04 516.32 276.86 517.26 277.56 518.74 277.62 519.87 277.38 522.03 276.55 523.71 276.35 526.36 276.65 528.18 277.02 529.61 276.89 535.99 274.15 547.1 271.75 553.91 271.42 554.18 277.61 553.99 278.24 553.61 279.12 551.11 279.86 547.46 280.32 546.11 280.79 545.5 281.19 545.06 281.8 544.45 283.71 543.68 287.85 542.74 289.87 537.85 293.59 523.21 302.1 522.76 303.41 523.42 304.48 524.76 305.19 528.05 306.11 529.34 306.61 530.2 307.31 530.79 308.21 531.76 310.19 534.18 312.98 534.22 313.03 530.22 314.44 529.68 315.3 529.66 316.33 529.83 317.24 529.76 317.76 527.22 318.7 526.01 319.6 525.16 319.64 524.92 320.1 525.55 322.17 527.16 325.1 528.99 327.43 530.2 330.01 529.93 333.72 529.92 333.73 529.9 333.74 529.89 333.76 528.16 336.07 525.76 336.83 516.96 337.68 514.48 337.57 512.47 336.4 510.71 333.76 510.22 333.57 509.72 333.49 509.21 333.55 505.97 335.02 497.3 336.02 490.45 338.37 474.88 346.61 469.97 348.08 465.09 348.05 460.78 347.29 456.19 347.41 453.56 347.11 452.12 345.8 449.77 341.9 445.97 339.17 441.69 338.29 437.22 338.77 428.83 341.44 424.82 342.1 416.11 342.16 413.88 341.85 409.88 340.33 407.76 339.81 405.71 340.04 395.34 343.57 394.29 343.67 393.14 343.46 390.7 342.61 389.76 342.5 387.66 342.99 385.31 344.02 376.81 344.73 370.12 346.43 368.01 346.54 365.68 346.05 353.49 341.68 348.8 340.96 349.36 340.16 349.45 339.42 349.05 338.74 348.25 338.13 346.81 337.43 345.71 336.44 345.14 335.21 345.22 333.76 345.88 333.15 346.61 332.62 348.25 331.81 350.27 329.73 350.23 326.66 348.25 320.33 347.21 317.43 345.73 314.39 343.83 311.67 341.59 309.72 340.34 309.29 337.42 308.82 336.01 308.25 334.76 307.2 332.29 304.43 330.99 303.24 328.48 301.98 328.48 301.96 328.91 299.48 330.2 295.1 330.07 294.24 329.67 293.33 329.67 292.39 330.03 291.45 331.09 290.02 331.49 288.84 333.02 286.49 335.4 284.7 337.36 283.78 340.67 283 344.97 282.56 346.15 282.17 346.32 281.45 346.01 281.08 344.34 280.41 343.7 279.86 344.74 278.93 346.01 278.24 356.29 275.95 356.46 274.99 356.48 274.54 356.18 273.11 356.1 272.04 356.46 270.84 357.36 269.82 358.5 269.07 369.9 263.75 371.19 263.57 372.66 263.81 374.87 265.17 376.03 266.31 378.52 267.8 385.56 268.91 386.99 269.75 399.66 269.44 399.99 269.85 399.64 270.28 400.29 270.38 402.16 270.03 405.81 268.77 410.4 266.57 418.35 264.79 418.89 264.56 419.13 264.25 419.13 263.82 418.98 263.45 418.66 263.17 417.61 262.53 417.34 262.29 417.04 261.95 416.81 261.53 416.66 261.04 416.68 260.53 416.91 260.07 417.31 259.68 417.78 259.34 418.64 258.87 419.61 258.5 422.71 257.89 425.36 257.94 428.06 258.39 429.28 258.79 430.55 259.07 431.73 259.19 446.67 257.42 449.41 256.83 452.02 256.55 454.15 256.8 457.01 257.93 458.26 258.88 460.71 259.52 462.64 259.77 474.71 258.86 Z" id="LTU-1067" data-name="Alytaus"/>
<path d="M 400.61 119.6 403.24 119.66 404.21 119.81 405.3 120.2 406.02 121.05 406.44 122.01 407.05 124.39 407.67 125.52 409.03 126.38 410.97 126.86 413.5 126.71 414.61 126.2 415.82 126.13 417.4 126.46 420.11 127.88 421.59 128.98 425.55 131.29 426.27 132.3 426.33 133.48 426.04 134.57 425.22 136.66 425.3 137.39 425.95 137.75 427.39 137.42 429.83 136.1 431.06 135.76 432.78 135.67 435.03 136 437.65 135.59 444.31 133.73 445.66 133.06 447.13 132.81 448.25 133.08 449.91 134.25 451.24 135.36 452.8 136.21 455.73 136.71 457.54 136.71 458.49 136.23 458.59 135.57 458.8 134.92 459.74 134.89 466.12 136.86 468.02 137.76 469.7 138.93 471.45 141.38 475.09 143.51 472.99 147.54 472.44 148.36 471.89 149.62 472.06 150.98 471.7 152.23 471.43 153.93 472.36 155.5 474.97 157.95 476.05 162.74 477.18 163.93 478.83 164.75 484.18 165.86 485.95 166.56 486.1 167.05 485.25 167.34 483.91 167.53 482.94 168.12 482.49 169.14 482.95 171.08 483.91 172.33 485.23 173.32 486.41 173.95 488.64 174.86 489.82 175.48 490.12 176.26 489.95 177.33 490.08 178.98 491.56 180.57 493.14 181.15 494.78 181.08 497.47 180.29 498.72 180.43 499.42 181.02 501.21 184.61 505.31 185.76 506.73 187.18 507.21 188.63 507.21 189.28 506.83 189.97 506.06 190.49 504.89 190.99 502.49 191.79 501.71 192.14 501 192.68 500.3 193.05 498.62 193.66 497.91 194.03 497.43 194.4 496.65 195.24 495.79 196.37 493.18 198.57 494.35 198.85 496.16 200.13 503.12 202.16 510.39 206.13 512.9 206.71 518.71 206.95 521.19 207.52 523.61 208.64 526.58 210.93 527.29 211.8 523.35 213.59 520.99 216.43 519.18 217.48 510.24 220.36 508.69 221.11 507.8 221.8 507.4 222.63 506.48 225.19 506.1 225.82 505.21 226.97 504.57 227.98 504.09 229.25 503.88 230.52 503.8 231.88 503.48 233.45 502.53 234.09 501.04 234.29 496.04 233.6 494.52 233.56 493.7 234.03 492.02 235.66 486.43 236.64 484.14 237.47 482.98 238.5 482.74 239.82 483.11 240.89 483.61 241.99 483.95 243 484.05 243.7 483.74 245.28 485.7 246.61 485.86 247.16 485.93 247.93 485.55 248.72 485.19 250 484.5 250.79 483.46 251.35 482.22 251.48 480.97 251.32 479.92 250.98 478.62 251.12 477.94 251.96 477.54 253.23 477.14 256.1 476.59 257.16 476.17 257.8 474.71 258.86 462.64 259.77 460.71 259.52 458.26 258.88 457.01 257.93 454.15 256.8 452.02 256.55 449.41 256.83 446.67 257.42 431.73 259.19 430.55 259.07 429.28 258.79 428.06 258.39 425.36 257.94 422.71 257.89 419.61 258.5 418.64 258.87 417.78 259.34 417.31 259.68 416.91 260.07 416.68 260.53 416.66 261.04 416.81 261.53 417.04 261.95 417.34 262.29 417.61 262.53 418.66 263.17 418.98 263.45 419.13 263.82 419.13 264.25 418.89 264.56 418.35 264.79 410.4 266.57 405.81 268.77 402.16 270.03 400.29 270.38 399.64 270.28 399.99 269.85 399.66 269.44 386.99 269.75 385.56 268.91 386.38 267.86 387.12 267.06 388.28 266.14 388.61 265.15 388.36 263.75 386 259.74 385.1 258.83 384.17 258.6 381.68 258.78 380.1 258.58 378.69 257.83 377.09 256.57 374.03 255.14 373.1 254.53 372.89 253.7 373.63 252.7 374.83 251.96 375.8 251.18 375.85 250.43 374.74 249.53 370.87 248.69 370.22 248.31 369.69 247.87 369.01 247.55 368.15 247.26 367.54 246.87 367.56 246.35 368.51 245.66 369.9 245.22 373.29 244.51 374.6 244.06 375.31 242.86 375.48 241.5 372.93 235.21 373.31 233.48 373.25 232.47 372.56 231.55 371.99 231.17 371.31 230.48 370.83 229.63 371.06 228.17 370.01 227.37 368.95 227.15 367.64 227.18 366.63 227.09 366.21 226.63 366.44 225.95 367.87 224.95 368.42 224.08 369 223.48 369.27 223.09 370.83 222.64 370.34 221.21 369.94 220.52 369.12 219.41 368.67 217.86 368.76 217.12 369.01 216.26 369.08 215.51 368.63 214.75 367.62 213.9 364.67 212.15 361.01 210.45 358.52 209.75 356.54 209.6 353.29 210.62 350.01 211.01 347 205.43 345.75 204.52 344.25 203.6 337.61 202.62 337.02 201.85 337.21 201.13 338.02 200.31 339.03 199.7 340 199.25 341.45 198.85 342.95 198.67 348.81 199.05 350.03 198.96 351.08 198.76 351.9 198.35 352.66 197.75 354.18 196.03 355.07 195.29 355.66 194.97 356.35 194.76 357.19 194.64 358.96 194.61 359.95 194.47 360.98 193.91 361.05 192.67 360.25 191.45 357.7 190.12 354.69 190 351.56 190.25 348.62 190.02 341.64 186.71 338.84 186.22 340.34 182.01 342.59 179.59 344.29 178.19 344.78 177.15 344.8 175.86 344.53 174.42 344.38 171.91 344.61 170.58 345.26 169.49 347.69 167.71 345.01 165.79 341.56 165.48 333.84 166.46 332.67 166.35 331.63 165.79 330.96 164.92 328.72 163.85 327.14 163.57 321.75 164.14 313.15 164.13 310.66 163.62 309.84 163.04 309.3 161.41 308.6 160.48 306.28 159.45 304.97 159.15 303.96 159.17 303.23 159.55 302.26 159.9 300.83 160.14 298.31 160.32 296.48 159.91 295.03 159.83 293.85 159.99 293.24 160.22 292.21 160.8 291.44 161.04 287.53 161.48 284.05 161.46 282.57 160.92 282.32 160.1 283.08 159.25 284.91 158.12 285.11 157.53 284.64 157.02 275.37 152.88 273.68 151.77 272.86 151.44 272.23 151.42 272 151.64 271.98 152.01 272.08 152.47 272.12 152.94 271.85 153.35 271.34 153.58 270.69 153.79 270.31 154.04 269.99 154.49 269.6 154.89 268.87 155.2 268.12 155.43 267.65 155.69 267.08 156.17 266.37 156.64 264.96 157.07 264.12 156.88 263.55 156.28 263.36 155.46 263 154.69 260.47 153.07 257.83 151.88 256.53 150.88 255.83 149.83 255.75 148.88 256.28 146.88 256.36 145.74 256.15 144.7 255.29 143.7 254.38 143.35 253.28 143.37 251.07 143.88 249.36 143.9 248.61 143.78 245.71 142.29 245.46 140.92 245.97 139.71 245.61 138.87 244.89 138.44 242.03 138.11 239.29 137.01 237.79 135.88 234.74 132.5 238.96 130.45 246.79 128.72 256.87 127.87 258.59 128.15 259.56 128.72 259.86 129.76 260.26 130.56 261.2 131.12 264.73 131.62 285.67 126.9 290.58 125 291.8 124.28 292.6 123.47 293.05 122.44 295.53 120.12 298.36 118.92 306.81 118.33 309.76 118.41 312.18 118.73 313.13 119.14 313.8 119.88 314.95 122.05 315.83 122.91 317.07 123.3 318.86 122.91 320.06 122.28 326.95 119.87 337.26 124.84 340.21 125.88 344.8 126.61 347.08 126.63 348.47 126.27 348.7 125.71 348.81 124.92 349 124.53 349.54 124.25 351.12 124.08 351.94 123.9 352.74 123.51 353.32 123.15 353.93 122.86 354.79 122.69 355.95 122.83 357.36 123.22 359.09 124.28 361.68 124.79 362.42 125.07 362.59 125.66 361.94 126.68 361.11 127.45 360.5 128.44 360.14 129.12 361.75 131.29 365.68 131.39 367.87 132.2 368.97 132.46 369.86 132.21 371.9 129.91 373.27 128.89 375.89 127.38 382.12 124.85 400.61 119.6 Z" id="LTU-1069" data-name="Kauno"/>
<path d="M 338.84 186.22 341.64 186.71 348.62 190.02 351.56 190.25 354.69 190 357.7 190.12 360.25 191.45 361.05 192.67 360.98 193.91 359.95 194.47 358.96 194.61 357.19 194.64 356.35 194.76 355.66 194.97 355.07 195.29 354.18 196.03 352.66 197.75 351.9 198.35 351.08 198.76 350.03 198.96 348.81 199.05 342.95 198.67 341.45 198.85 340 199.25 339.03 199.7 338.02 200.31 337.21 201.13 337.02 201.85 337.61 202.62 344.25 203.6 345.75 204.52 347 205.43 350.01 211.01 353.29 210.62 356.54 209.6 358.52 209.75 361.01 210.45 364.67 212.15 367.62 213.9 368.63 214.75 369.08 215.51 369.01 216.26 368.76 217.12 368.67 217.86 369.12 219.41 369.94 220.52 370.34 221.21 370.83 222.64 369.27 223.09 369 223.48 368.42 224.08 367.87 224.95 366.44 225.95 366.21 226.63 366.63 227.09 367.64 227.18 368.95 227.15 370.01 227.37 371.06 228.17 370.83 229.63 371.31 230.48 371.99 231.17 372.56 231.55 373.25 232.47 373.31 233.48 372.93 235.21 375.48 241.5 375.31 242.86 374.6 244.06 373.29 244.51 369.9 245.22 368.51 245.66 367.56 246.35 367.54 246.87 368.15 247.26 369.01 247.55 369.69 247.87 370.22 248.31 370.87 248.69 374.74 249.53 375.85 250.43 375.8 251.18 374.83 251.96 373.63 252.7 372.89 253.7 373.1 254.53 374.03 255.14 377.09 256.57 378.69 257.83 380.1 258.58 381.68 258.78 384.17 258.6 385.1 258.83 386 259.74 388.36 263.75 388.61 265.15 388.28 266.14 387.12 267.06 386.38 267.86 385.56 268.91 378.52 267.8 376.03 266.31 374.87 265.17 372.66 263.81 371.19 263.57 369.9 263.75 358.5 269.07 357.36 269.82 356.46 270.84 356.1 272.04 356.18 273.11 356.48 274.54 356.46 274.99 356.29 275.95 346.01 278.24 344.74 278.93 343.7 279.86 344.34 280.41 346.01 281.08 346.32 281.45 346.15 282.17 344.97 282.56 340.67 283 337.36 283.78 335.4 284.7 333.02 286.49 331.49 288.84 331.09 290.02 330.03 291.45 329.67 292.39 329.67 293.33 330.07 294.24 330.2 295.1 328.91 299.48 328.48 301.96 328.48 301.98 325.77 300.63 314.82 298.2 309.64 296.34 301.22 292.2 298.75 291.5 296.01 291.86 292.77 292.67 289.65 292.67 287.21 290.67 287.23 289.24 288.01 287.7 288.5 286.41 287.65 285.66 282.99 285.33 281.46 284.72 280.6 283.85 280 282.79 279.22 281.73 277.78 280.88 276.39 280.69 273.3 281.07 271.83 280.96 263.69 278.5 260.8 278.27 257.41 279.19 257.23 279.39 253.79 283.12 251.24 284.33 243.06 275.85 239.45 271.17 238.66 265.86 239.63 255.32 242.61 248.85 243.21 246.39 243.06 244.92 242.21 241.82 242.23 240.43 242.8 239.48 245.78 236.93 245.85 236.38 245.48 235.78 245.2 235.13 245.48 234.48 245.95 234.24 247.1 234.08 248.53 233.36 250.92 232.61 252.02 231.88 253.88 230.05 258.1 228.26 260.15 226.97 261.9 224.59 262.26 222.19 261.71 219.69 259.67 214.19 258.58 212.46 256.89 211.34 248.8 209.15 247.67 208.1 249.19 206.26 247.38 205.86 246.07 205.01 245.1 204.08 244.22 203.51 242.94 203.27 235.31 203.31 233.08 202.62 231.48 200.98 229.67 197.94 227.39 191.8 225.9 189.08 224.61 188.22 224.63 188.21 228.44 187.2 229.49 187.9 231.98 188.94 232.76 189.13 234.53 189.16 246.01 187.95 250.12 186.94 251.64 186.21 258.42 184.91 265.34 184.37 272.71 185.57 274.65 184.83 276.33 183.95 278.9 183.24 283.08 182.6 326.28 187.24 338.84 186.22 Z" id="LTU-1070" data-name="Marijampoles"/>
<path d="M 601.86 39.4 616.22 40.78 625.45 39.84 632.26 41.68 634.59 41.94 642.68 41.58 644.34 41.98 645.34 43.18 647.86 47.75 649.06 49.17 650.71 50.1 658.52 53.14 662.49 55.66 672.78 62.17 685 66.75 682.29 69.46 682.27 71.9 682.08 73.26 681.25 74.16 679.54 75.47 678.17 76.28 675.35 77.48 673.58 78.72 672.69 79.94 672.04 81.46 668.36 84.59 667.11 86.48 664.96 90.72 664.22 91.52 663.34 91.81 660.81 91.6 658.16 90.94 657.12 90.85 655.9 91.3 653.92 93.55 652.89 94.44 647.81 97.76 647.53 96.98 647.34 96.6 647.03 96.11 646.54 95.78 644.9 95.57 630.24 95.82 628.34 96.11 626.31 96.96 620.71 98.56 618.18 96.36 617.65 95.74 616.47 95.15 615.13 95.21 614.14 95.6 612.6 96.45 611.81 96.56 610.97 96.26 610.07 95.59 609.08 94.19 608.55 93.2 605.88 91.72 595.57 95.03 594.62 95.68 593.67 96.65 594.45 98.68 594.24 99.64 593.48 99.96 592.22 99.87 589.27 99.31 587.75 99.35 586.68 99.47 571.04 102.96 567.15 103.4 565.12 103.42 563.88 103.17 563.66 102.74 564.04 101.54 563.71 100.98 561.71 99.99 560.84 99.44 559.81 98.41 559.43 98.11 557.43 97.28 556.88 97.16 548.32 96.78 544.23 97.37 541.71 98.15 539.79 98.31 535.49 98.08 534.31 98.25 533.59 98.59 533.17 99.08 532.67 99.54 531.57 99.99 530.31 99.9 526.41 98.95 524.72 99.04 522.68 99.54 521.16 99.73 512.27 98.96 512.41 100.69 512.16 101.31 511.82 102.35 512.56 102.98 515.41 104.23 516.04 105.05 516.1 105.66 515.45 106.63 514.29 107.33 512.77 107.55 511.26 107.15 510.35 106.56 509.38 106.25 505.4 106.87 504.38 107.41 504.85 107.95 506.14 108.53 507.91 109.14 509.47 109.97 510.83 111.15 511.72 112.84 511.8 113.76 511.34 114.43 508.88 115.54 507.47 116.34 506.37 117.51 505.98 118.75 506.07 121.05 506.22 121.59 506.48 122.06 506.92 122.56 506.94 123.42 504.28 125.94 501.63 126.38 500.95 126.65 500.24 127.17 500.32 127.85 501.06 128.54 503.52 129.59 504.51 130.19 504.66 130.86 503.86 131.45 501.67 131.69 500.01 131.47 496.86 130.51 495.35 130.37 493.94 130.75 492.38 132.25 491.56 133.59 490.67 135.95 489.76 137.26 488.18 138.72 483.29 141.71 482.07 142.07 480.99 141.71 479.92 141.7 478.93 141.8 475.09 143.51 471.45 141.38 469.7 138.93 468.02 137.76 466.12 136.86 459.74 134.89 458.8 134.92 458.59 135.57 458.49 136.23 457.54 136.71 455.73 136.71 452.8 136.21 451.24 135.36 449.91 134.25 448.25 133.08 447.13 132.81 445.66 133.06 444.31 133.73 437.65 135.59 435.03 136 432.78 135.67 431.06 135.76 429.83 136.1 427.39 137.42 425.95 137.75 425.3 137.39 425.22 136.66 426.04 134.57 426.33 133.48 426.27 132.3 425.55 131.29 421.59 128.98 420.11 127.88 417.4 126.46 415.82 126.13 414.61 126.2 413.5 126.71 410.97 126.86 409.03 126.38 407.67 125.52 407.05 124.39 406.44 122.01 406.02 121.05 405.3 120.2 404.21 119.81 403.24 119.66 400.61 119.6 401.85 117.95 402.39 117.45 403.97 116.24 406.02 113.99 407.17 112.23 408.55 111.78 411.54 111.89 412.84 111.56 414.73 110.53 415.86 110.42 417.19 110.49 418.47 110.43 419.34 109.73 419.31 108.58 417.53 104.49 417.74 102.97 418.87 102.25 420.37 101.69 421.66 100.87 422.37 99.88 422.14 97.85 422.22 96.73 421.55 93.35 420.87 92.53 418.68 91.05 418.33 90.08 418.35 89.41 418.03 88.84 417.29 88.34 415.57 87.8 414.11 87.59 411.88 86.32 410.15 82.36 415.38 82.01 415.84 81.75 416.37 81.16 416.22 80.31 416.22 79.47 417.19 78.42 418.91 77.78 422.67 76.78 425.6 75.53 426.84 74.13 426.48 72.09 427.13 71.45 428.19 70.09 428.37 68.7 427.91 66.58 427.11 65.75 425.91 65.27 424.63 65.09 423.07 64.67 421.63 64.09 420.22 63.11 419.57 62.15 419.27 61.15 419.08 57.54 419.15 56.75 419.29 56.03 419.61 55.44 419.99 54.98 420.62 54.63 421.27 54.61 422.01 54.81 422.86 55.17 423.47 55.28 424.25 55.3 425.17 54.52 425.81 53.44 426.71 50.74 427.91 49.26 431.03 46.67 431.41 45.37 431.52 44 431.86 43.04 432.7 41.82 433.6 41.09 434.99 40.56 439.17 39.91 440.07 39.15 440.35 38.06 440.49 36 440.24 35.01 439.57 34.45 438.92 34.48 437.93 34.85 437.22 34.81 436.23 34.45 435.56 32.98 436.02 31.68 436.89 30.65 438.01 29.73 438.28 28.9 437.99 28.25 437.72 26.12 441.31 25.76 457.72 20.97 461.91 20.56 466.29 21.51 474.92 25.05 479.39 25.73 484.02 24.6 491.85 22.05 494.42 20.56 496.44 19.03 505.45 12.22 510.81 9.87 515.76 8.65 528.05 5.62 529.41 5.59 532.41 6.25 533.52 6.12 534.38 4.93 534.55 3.43 535.05 1.98 536.93 1 539.82 1.53 542.25 3.8 545.8 9.51 549.31 17.75 550.81 20.26 552.18 21.66 556.7 24.45 558.02 25.77 560.43 30.15 564.39 34.24 569.29 36.24 601.86 39.4 Z" id="LTU-1071" data-name="Panevezio"/>
<path d="M 306.29 12.5 322.02 10.45 325.04 10.78 334.19 12.95 348.25 16.28 353.14 16.47 361.31 13.77 365.67 13.06 375.12 13.32 378.82 12.97 379.96 13.2 381.11 14.14 381.28 15.15 381.12 16 381.31 16.45 385.53 16.84 394.89 15.63 399.38 15.7 401.15 16.01 416.11 18.68 428.86 24.28 433.41 25.7 437.52 26.14 437.72 26.12 437.99 28.25 438.28 28.9 438.01 29.73 436.89 30.65 436.02 31.68 435.56 32.98 436.23 34.45 437.22 34.81 437.93 34.85 438.92 34.48 439.57 34.45 440.24 35.01 440.49 36 440.35 38.06 440.07 39.15 439.17 39.91 434.99 40.56 433.6 41.09 432.7 41.82 431.86 43.04 431.52 44 431.41 45.37 431.03 46.67 427.91 49.26 426.71 50.74 425.81 53.44 425.17 54.52 424.25 55.3 423.47 55.28 422.86 55.17 422.01 54.81 421.27 54.61 420.62 54.63 419.99 54.98 419.61 55.44 419.29 56.03 419.15 56.75 419.08 57.54 419.27 61.15 419.57 62.15 420.22 63.11 421.63 64.09 423.07 64.67 424.63 65.09 425.91 65.27 427.11 65.75 427.91 66.58 428.37 68.7 428.19 70.09 427.13 71.45 426.48 72.09 426.84 74.13 425.6 75.53 422.67 76.78 418.91 77.78 417.19 78.42 416.22 79.47 416.22 80.31 416.37 81.16 415.84 81.75 415.38 82.01 410.15 82.36 411.88 86.32 414.11 87.59 415.57 87.8 417.29 88.34 418.03 88.84 418.35 89.41 418.33 90.08 418.68 91.05 420.87 92.53 421.55 93.35 422.22 96.73 422.14 97.85 422.37 99.88 421.66 100.87 420.37 101.69 418.87 102.25 417.74 102.97 417.53 104.49 419.31 108.58 419.34 109.73 418.47 110.43 417.19 110.49 415.86 110.42 414.73 110.53 412.84 111.56 411.54 111.89 408.55 111.78 407.17 112.23 406.02 113.99 403.97 116.24 402.39 117.45 401.85 117.95 400.61 119.6 382.12 124.85 375.89 127.38 373.27 128.89 371.9 129.91 369.86 132.21 368.97 132.46 367.87 132.2 365.68 131.39 361.75 131.29 360.14 129.12 360.5 128.44 361.11 127.45 361.94 126.68 362.59 125.66 362.42 125.07 361.68 124.79 359.09 124.28 357.36 123.22 355.95 122.83 354.79 122.69 353.93 122.86 353.32 123.15 352.74 123.51 351.94 123.9 351.12 124.08 349.54 124.25 349 124.53 348.81 124.92 348.7 125.71 348.47 126.27 347.08 126.63 344.8 126.61 340.21 125.88 337.26 124.84 326.95 119.87 320.06 122.28 318.86 122.91 317.07 123.3 315.83 122.91 314.95 122.05 313.8 119.88 313.13 119.14 312.18 118.73 309.76 118.41 306.81 118.33 298.36 118.92 295.53 120.12 293.05 122.44 292.6 123.47 291.8 124.28 290.58 125 285.67 126.9 264.73 131.62 261.2 131.12 260.26 130.56 259.86 129.76 259.56 128.72 258.59 128.15 256.87 127.87 246.79 128.72 238.96 130.45 234.74 132.5 231.43 131.56 230.65 128.36 233.52 125.86 233.27 125.25 232.34 124.74 230.96 124.22 225.83 119.83 224.35 118.89 218.07 116.67 216.19 115.64 215.29 114.65 214.15 113.12 213.9 112.26 214.02 111.48 214.59 110.77 214.99 109.9 214.4 109.36 211.54 108.59 209.98 107.66 209.33 106.72 209.09 106.02 209.12 104.84 213.35 102.68 214.53 102.32 215.64 101.55 215.79 100.51 215.01 98.29 214.82 97.19 215.03 96 215.43 94.7 215.81 92.91 215.37 91.66 213.73 89.41 213.85 88.53 215.62 87.61 217.15 87.23 219 86.93 220.62 86.53 222.58 85.73 223.97 84.96 224.56 83.64 224.16 81.14 224.42 80.04 225.43 79.25 227.57 78.9 229.47 78.77 231.49 78.2 232.82 77.19 234.8 73.87 238.8 71.15 238.32 69.66 239.97 68.97 241.74 68.43 241.88 67.99 241.17 67.61 239.8 67.12 238.63 66.46 237.1 65.03 236 64.55 235.03 64.7 234.44 65.27 233.85 65.96 232.78 66.51 231.35 66.77 229.6 66.6 228.33 65.81 226.44 64.37 225.91 63.36 225.93 62.69 226.61 62.21 228.58 61.36 229.32 60.81 229.81 60.15 229.83 59.07 229.72 57.31 228.58 55.11 228.77 54.01 230.1 53.25 236.49 52.46 237.1 52.28 237.62 52 238.21 51.3 238.49 51.11 240.16 50.92 242.39 50.29 240.2 48.78 239.59 47.9 239.21 46.76 239.5 45.68 240.01 44.66 239.97 43.96 239 43.33 237.2 43.06 234.21 43.26 230.12 43.96 228.71 44.45 227.66 45.15 225.85 45.62 223.42 45.85 218.26 45.43 212.36 47.05 210.51 47.04 208.61 46.66 206.94 45.98 206.31 44.88 206.08 43.93 205.49 43.33 204.5 43.27 203.34 43.31 202.67 43.07 202.79 42.11 204.1 40.77 203.66 40.18 202.92 39.72 197.92 38.82 199.82 30.91 203.62 27.78 205.89 26.65 208.06 24.91 208.86 23.44 208.84 22.3 207.4 21.14 207.09 20.66 207.59 19.87 208.7 19.02 209.69 17.64 211.31 17.09 212.97 17.09 216.57 17.7 218.51 17.76 220.39 17.51 222.32 16.69 223.42 15.57 224.12 14.38 224.16 13.2 223.4 12.16 222.51 11.35 222.16 10.49 222.83 9.84 223.84 9.48 225.57 8.55 229.17 9.62 235.2 13.15 237.54 13.7 239.59 13.53 258.8 9.11 263.78 7.18 267.77 5.64 272.6 5.14 277.01 6.52 280.32 10.43 285.12 17.13 291.31 19.8 298.16 18.89 304.97 14.8 303.79 13.39 306.29 12.5 Z" id="LTU-1072" data-name="Šiauliai"/>
<path d="M 209.12 104.84 209.09 106.02 209.33 106.72 209.98 107.66 211.54 108.59 214.4 109.36 214.99 109.9 214.59 110.77 214.02 111.48 213.9 112.26 214.15 113.12 215.29 114.65 216.19 115.64 218.07 116.67 224.35 118.89 225.83 119.83 230.96 124.22 232.34 124.74 233.27 125.25 233.52 125.86 230.65 128.36 231.43 131.56 234.74 132.5 237.79 135.88 239.29 137.01 242.03 138.11 244.89 138.44 245.61 138.87 245.97 139.71 245.46 140.92 245.71 142.29 248.61 143.78 249.36 143.9 251.07 143.88 253.28 143.37 254.38 143.35 255.29 143.7 256.15 144.7 256.36 145.74 256.28 146.88 255.75 148.88 255.83 149.83 256.53 150.88 257.83 151.88 260.47 153.07 263 154.69 263.36 155.46 263.55 156.28 264.12 156.88 264.96 157.07 266.37 156.64 267.08 156.17 267.65 155.69 268.12 155.43 268.87 155.2 269.6 154.89 269.99 154.49 270.31 154.04 270.69 153.79 271.34 153.58 271.85 153.35 272.12 152.94 272.08 152.47 271.98 152.01 272 151.64 272.23 151.42 272.86 151.44 273.68 151.77 275.37 152.88 284.64 157.02 285.11 157.53 284.91 158.12 283.08 159.25 282.32 160.1 282.57 160.92 284.05 161.46 287.53 161.48 291.44 161.04 292.21 160.8 293.24 160.22 293.85 159.99 295.03 159.83 296.48 159.91 298.31 160.32 300.83 160.14 302.26 159.9 303.23 159.55 303.96 159.17 304.97 159.15 306.28 159.45 308.6 160.48 309.3 161.41 309.84 163.04 310.66 163.62 313.15 164.13 321.75 164.14 327.14 163.57 328.72 163.85 330.96 164.92 331.63 165.79 332.67 166.35 333.84 166.46 341.56 165.48 345.01 165.79 347.69 167.71 345.26 169.49 344.61 170.58 344.38 171.91 344.53 174.42 344.8 175.86 344.78 177.15 344.29 178.19 342.59 179.59 340.34 182.01 338.84 186.22 326.28 187.24 283.08 182.6 278.9 183.24 276.33 183.95 274.65 184.83 272.71 185.57 265.34 184.37 258.42 184.91 251.64 186.21 250.12 186.94 246.01 187.95 234.53 189.16 232.76 189.13 231.98 188.94 229.49 187.9 228.44 187.2 224.63 188.21 224.61 188.22 223.84 187.7 220.53 186.62 206.3 189.06 183.7 187.47 183.7 187.41 183.72 184.49 183.93 183.62 185.45 181.62 186 180.33 187.12 179.3 187.64 178.63 187.45 177.03 185.09 176.27 183.95 176.38 182.69 176.35 181.57 176.2 180.48 175.9 179.26 175.77 176.41 176.08 174.93 176.01 173.46 175.6 170.95 174.18 169.62 173.74 168.25 173.67 164.76 173.99 163.79 174.28 161.32 175.65 159.72 176.23 158.48 176.1 157.91 175.44 158.69 173.25 158.77 172.57 158.52 171.75 156.46 169.09 154.76 166.06 153.94 165.22 152.7 164.49 139.77 161.21 135.46 160.84 133.89 160.38 133.53 159.29 134.88 157.48 145.05 150.87 147.35 149.73 149.16 148.57 150.17 147.4 151.21 143.66 153.33 142.97 153.25 141.82 152.83 141.45 152.03 141.02 147.6 140.35 142.15 138.88 139.32 137.59 137.99 137.2 136.79 137.35 134.39 138.51 133 138.58 131.58 137.65 128.74 131.01 128.13 129.97 126.15 128.68 125.39 127.71 124.51 123.23 124.08 122.5 122.08 121.55 121.81 120.23 128.89 118.48 129.86 117.95 130.66 117.08 131.06 116.38 130.43 115.19 145.85 113.94 147.64 114.3 149.44 114.4 150.89 114.09 154.24 112.2 154.95 111.58 155.08 110.99 154.94 110.16 155 109.37 155.44 108.39 155.95 107.64 156.5 107.05 157.09 106.8 158.16 106.67 159.89 106.96 161.63 106.98 163.36 106.76 165.7 105.78 170.41 104.6 181.61 103.83 184.98 103.63 189.05 104.78 190.67 105 194.03 104.87 195.52 105.15 197.14 105.64 198.77 105.8 209.12 104.84 Z" id="LTU-1073" data-name="Taurages"/>
<path d="M 721.07 88.68 728.25 95.98 736.75 99.63 755.59 104.79 763.25 105.99 771 106.33 772.26 109.55 772.78 113.19 772.44 116.77 771.14 119.77 768.5 122.14 765.17 124.32 762.52 126.8 761.92 130.07 764.47 132.91 764.04 134.49 759.22 137.27 758.06 138.77 756.26 143.83 755.32 145.12 752.08 148.55 750.76 151.08 751.38 152.49 753.51 153.34 761.61 155.07 763.91 155.14 772.11 153.88 794.64 156.14 797.76 157.5 799 159.79 797.5 161.98 794.23 163.41 790.74 163.94 790.71 163.89 790.33 163.36 787.48 160.37 786.28 159.84 784.4 159.29 782.47 159.26 776.25 160.36 775.01 160.82 774.08 161.4 767.34 163.82 752.16 166.34 733.81 165.82 727 164.92 722.2 163.17 719.59 162.52 717.98 162.54 716.7 162.89 715.37 163.44 712.95 163.7 711.24 163.14 710.31 161.81 710.48 160.5 711.41 159.2 712.34 158.22 712.44 157.27 711.51 156.31 709.8 155.37 706.16 154.37 704.31 154.12 695.79 154.27 695.3 154.33 694.48 154.52 693.68 154.84 692.76 155.37 692.19 155.86 691.3 157 690.86 157.47 690.08 158.04 688.76 158.69 686.98 159.23 684.6 159.55 683.11 159.32 682.43 158.85 682.16 158.28 681.84 157.74 680.9 157.06 679.96 156.96 675.98 157.55 674.43 157.31 673.26 156.68 671.85 155.13 670.25 153.96 665.11 155.6 660.08 154.66 654.17 152.5 651.46 157.95 650.65 159.08 646.54 161.81 642.71 163.24 641.97 164 641.53 164.93 641.09 166.99 641.59 168.15 642.14 169.07 644.19 170.58 648.29 172.74 649.2 173.51 649.93 174.3 652.15 175.88 653.56 176.57 656.07 177.34 657.14 177.88 658.38 178.32 659.78 178.62 660.54 179.19 660.08 180.04 656.87 181.58 656.36 182.36 656.59 182.97 657.46 183.4 657.91 183.77 657.5 184.33 656.41 185.01 653.71 186.4 653.46 187.47 653.75 188.45 654.4 189.18 653.71 189.54 651.88 189.6 644.54 188.8 643.32 188.4 643 187.84 642.5 187.34 638.26 187.28 624.19 189.21 605.69 192.52 603.93 193.07 601.87 193.28 599.68 193.11 591.1 191.37 584.65 191.25 583.81 188.17 583.45 187.51 582.68 186.51 580.35 185.46 578.37 184.85 572.85 184.06 571.9 183.59 571.57 182.86 572.32 181.32 573.12 179.2 572.85 176.48 577.47 175.43 578.71 174.99 580.69 174.01 583.03 173.16 584.53 172.06 585.79 171.66 587.43 171.39 588.49 171.05 588.72 170.43 586.89 169.61 580.31 167.39 578.71 167.36 577.38 167.53 576.02 167.48 575.11 166.92 574.61 165.29 575.22 164.45 577.32 162.93 577.97 162.13 578.48 161.25 578.37 160.49 577.55 159.88 575.38 159.62 573.55 159.8 571.92 160.17 570.66 160.29 569.29 159.92 567.61 158.47 563.88 156.8 562.63 156.07 562.02 155.46 562.36 152.75 552.01 153.24 550.74 153.07 549.44 152.68 549.42 152.01 549.54 151.06 549.59 150.01 549.44 148.87 548.85 147.97 548.18 147.67 547.23 147.74 541.79 149.27 539.16 149.68 537.94 149.5 537.47 149.03 537.66 148.17 537.71 147.3 537.05 146.49 535.66 146.25 529.07 146.14 526.87 145.68 525.23 144.95 524.41 144.1 523.71 143.22 523.25 142.35 523.12 141.55 523.27 140.65 523.78 139.88 524.55 139.31 526.53 138.62 527.23 138.17 527.27 137.38 526.36 136.21 523.06 134.03 504.28 125.94 506.94 123.42 506.92 122.56 506.48 122.06 506.22 121.59 506.07 121.05 505.98 118.75 506.37 117.51 507.47 116.34 508.88 115.54 511.34 114.43 511.8 113.76 511.72 112.84 510.83 111.15 509.47 109.97 507.91 109.14 506.14 108.53 504.85 107.95 504.38 107.41 505.4 106.87 509.38 106.25 510.35 106.56 511.26 107.15 512.77 107.55 514.29 107.33 515.45 106.63 516.1 105.66 516.04 105.05 515.41 104.23 512.56 102.98 511.82 102.35 512.16 101.31 512.41 100.69 512.27 98.96 521.16 99.73 522.68 99.54 524.72 99.04 526.41 98.95 530.31 99.9 531.57 99.99 532.67 99.54 533.17 99.08 533.59 98.59 534.31 98.25 535.49 98.08 539.79 98.31 541.71 98.15 544.23 97.37 548.32 96.78 556.88 97.16 557.43 97.28 559.43 98.11 559.81 98.41 560.84 99.44 561.71 99.99 563.71 100.98 564.04 101.54 563.66 102.74 563.88 103.17 565.12 103.42 567.15 103.4 571.04 102.96 586.68 99.47 587.75 99.35 589.27 99.31 592.22 99.87 593.48 99.96 594.24 99.64 594.45 98.68 593.67 96.65 594.62 95.68 595.57 95.03 605.88 91.72 608.55 93.2 609.08 94.19 610.07 95.59 610.97 96.26 611.81 96.56 612.6 96.45 614.14 95.6 615.13 95.21 616.47 95.15 617.65 95.74 618.18 96.36 620.71 98.56 626.31 96.96 628.34 96.11 630.24 95.82 644.9 95.57 646.54 95.78 647.03 96.11 647.34 96.6 647.53 96.98 647.81 97.76 652.89 94.44 653.92 93.55 655.9 91.3 657.12 90.85 658.16 90.94 660.81 91.6 663.34 91.81 664.22 91.52 664.96 90.72 667.11 86.48 668.36 84.59 672.04 81.46 672.69 79.94 673.58 78.72 675.35 77.48 678.17 76.28 679.54 75.47 681.25 74.16 682.08 73.26 682.27 71.9 682.29 69.46 685 66.75 692.65 69.61 701.05 74.94 714.52 81.53 717.93 84.54 721.07 88.68 Z" id="LTU-1074" data-name="Utenos"/>
<path d="M 790.74 163.94 785.47 164.75 783.38 165.46 779.48 167.67 777.33 169.36 776.35 170.81 775.48 174.58 773.96 178.52 771.87 180.5 768.88 180.81 754.55 177.13 752.61 177.25 751.46 177.92 750.66 178.72 749.82 179.25 748.49 179.5 747.33 179.51 732.29 177.27 726.17 177.88 721.9 181.75 721.54 183.3 721.66 186.66 721.41 188.3 720.77 189.46 715.77 195.72 713.39 197.83 711.12 199.83 709.09 201.13 704.19 202.75 687.7 204.69 685.17 204.66 680.23 204 677.75 203.96 672.64 205.22 671.04 206.01 670.55 207.03 670.31 208.26 669.44 209.65 666.6 211.58 663.44 212.99 660.75 214.61 659.33 217.16 659.53 218.38 660.69 221.09 660.78 222.21 660.17 223.35 659.49 223.61 658.56 223.63 657.23 224.02 654.26 225.56 652.82 226.77 652.4 228.59 652.86 235.52 652.65 236.93 652.12 238.36 651.4 239.61 650.81 240.96 650.66 242.67 651.57 245.36 654.94 250.18 655.71 252.81 655.01 255.51 653.11 257.62 650.52 259.17 642.21 262.04 640.13 263.68 638.64 266.43 638.05 269.99 638.15 272.81 637.65 275.43 635.22 278.38 628.99 282.77 626.43 285.71 626.25 289.12 628.1 290.88 631.05 291.54 636.94 291.31 645.09 288.81 647.12 288.49 648.97 289.12 649.76 290.24 650.17 291.57 651.61 293.98 652.13 294.48 652.68 294.56 654.24 294.25 654.85 294.34 656.16 295.19 657.37 296.18 658.43 297.4 659.33 298.91 659.88 299.36 660.62 299.52 661.28 299.8 661.63 300.63 661.31 301.24 659.71 302.5 659.29 303.12 659.16 309.34 658.08 311.47 654.95 312.85 653.34 312.99 648.24 312.58 646.77 312.98 644.62 314.74 643.2 315.23 640.23 315.29 628.2 314.11 624.54 313.05 621.45 311.32 620.42 308.89 621.43 307.94 625.31 307.15 626.29 306.14 625.53 304.98 622.26 303.95 622.59 302.6 625.37 301.66 628.54 301.82 629.69 301.31 620.12 293.64 619.46 292.88 618.56 292.36 616.84 292.12 613.41 293.08 607.97 297.79 604.67 299.05 593.51 299.41 584.89 297.6 582.47 297.84 580.74 299.62 577.96 306.02 575.71 308.85 570.16 312.51 564.23 314.76 558.14 315.35 547.43 312.9 541.19 312.37 534.9 312.79 534.22 313.03 534.18 312.98 531.76 310.19 530.79 308.21 530.2 307.31 529.34 306.61 528.05 306.11 524.76 305.19 523.42 304.48 522.76 303.41 523.21 302.1 537.85 293.59 542.74 289.87 543.68 287.85 544.45 283.71 545.06 281.8 545.5 281.19 546.11 280.79 547.46 280.32 551.11 279.86 553.61 279.12 553.99 278.24 554.18 277.61 553.91 271.42 547.1 271.75 535.99 274.15 529.61 276.89 528.18 277.02 526.36 276.65 523.71 276.35 522.03 276.55 519.87 277.38 518.74 277.62 517.26 277.56 516.32 276.86 516.08 276.04 516.5 275.14 516.69 274.34 516.34 273.57 515.45 273.11 511.49 272.04 507.74 271.59 505.84 271.65 503.5 272.48 500.26 273.3 498.55 274.01 494.02 274.77 491.77 274.88 479.75 273.93 477.04 272.92 476.51 272.01 476.55 270.92 477.1 269.75 477.69 267.73 477.08 266.73 474.73 265.25 474.59 264.91 474.97 264.49 475.67 264.07 475.75 262.8 476.07 261.96 474.71 258.86 476.17 257.8 476.59 257.16 477.14 256.1 477.54 253.23 477.94 251.96 478.62 251.12 479.92 250.98 480.97 251.32 482.22 251.48 483.46 251.35 484.5 250.79 485.19 250 485.55 248.72 485.93 247.93 485.86 247.16 485.7 246.61 483.74 245.28 484.05 243.7 483.95 243 483.61 241.99 483.11 240.89 482.74 239.82 482.98 238.5 484.14 237.47 486.43 236.64 492.02 235.66 493.7 234.03 494.52 233.56 496.04 233.6 501.04 234.29 502.53 234.09 503.48 233.45 503.8 231.88 503.88 230.52 504.09 229.25 504.57 227.98 505.21 226.97 506.1 225.82 506.48 225.19 507.4 222.63 507.8 221.8 508.69 221.11 510.24 220.36 519.18 217.48 520.99 216.43 523.35 213.59 527.29 211.8 526.58 210.93 523.61 208.64 521.19 207.52 518.71 206.95 512.9 206.71 510.39 206.13 503.12 202.16 496.16 200.13 494.35 198.85 493.18 198.57 495.79 196.37 496.65 195.24 497.43 194.4 497.91 194.03 498.62 193.66 500.3 193.05 501 192.68 501.71 192.14 502.49 191.79 504.89 190.99 506.06 190.49 506.83 189.97 507.21 189.28 507.21 188.63 506.73 187.18 505.31 185.76 501.21 184.61 499.42 181.02 498.72 180.43 497.47 180.29 494.78 181.08 493.14 181.15 491.56 180.57 490.08 178.98 489.95 177.33 490.12 176.26 489.82 175.48 488.64 174.86 486.41 173.95 485.23 173.32 483.91 172.33 482.95 171.08 482.49 169.14 482.94 168.12 483.91 167.53 485.25 167.34 486.1 167.05 485.95 166.56 484.18 165.86 478.83 164.75 477.18 163.93 476.05 162.74 474.97 157.95 472.36 155.5 471.43 153.93 471.7 152.23 472.06 150.98 471.89 149.62 472.44 148.36 472.99 147.54 475.09 143.51 478.93 141.8 479.92 141.7 480.99 141.71 482.07 142.07 483.29 141.71 488.18 138.72 489.76 137.26 490.67 135.95 491.56 133.59 492.38 132.25 493.94 130.75 495.35 130.37 496.86 130.51 500.01 131.47 501.67 131.69 503.86 131.45 504.66 130.86 504.51 130.19 503.52 129.59 501.06 128.54 500.32 127.85 500.24 127.17 500.95 126.65 501.63 126.38 504.28 125.94 523.06 134.03 526.36 136.21 527.27 137.38 527.23 138.17 526.53 138.62 524.55 139.31 523.78 139.88 523.27 140.65 523.12 141.55 523.25 142.35 523.71 143.22 524.41 144.1 525.23 144.95 526.87 145.68 529.07 146.14 535.66 146.25 537.05 146.49 537.71 147.3 537.66 148.17 537.47 149.03 537.94 149.5 539.16 149.68 541.79 149.27 547.23 147.74 548.18 147.67 548.85 147.97 549.44 148.87 549.59 150.01 549.54 151.06 549.42 152.01 549.44 152.68 550.74 153.07 552.01 153.24 562.36 152.75 562.02 155.46 562.63 156.07 563.88 156.8 567.61 158.47 569.29 159.92 570.66 160.29 571.92 160.17 573.55 159.8 575.38 159.62 577.55 159.88 578.37 160.49 578.48 161.25 577.97 162.13 577.32 162.93 575.22 164.45 574.61 165.29 575.11 166.92 576.02 167.48 577.38 167.53 578.71 167.36 580.31 167.39 586.89 169.61 588.72 170.43 588.49 171.05 587.43 171.39 585.79 171.66 584.53 172.06 583.03 173.16 580.69 174.01 578.71 174.99 577.47 175.43 572.85 176.48 573.12 179.2 572.32 181.32 571.57 182.86 571.9 183.59 572.85 184.06 578.37 184.85 580.35 185.46 582.68 186.51 583.45 187.51 583.81 188.17 584.65 191.25 591.1 191.37 599.68 193.11 601.87 193.28 603.93 193.07 605.69 192.52 624.19 189.21 638.26 187.28 642.5 187.34 643 187.84 643.32 188.4 644.54 188.8 651.88 189.6 653.71 189.54 654.4 189.18 653.75 188.45 653.46 187.47 653.71 186.4 656.41 185.01 657.5 184.33 657.91 183.77 657.46 183.4 656.59 182.97 656.36 182.36 656.87 181.58 660.08 180.04 660.54 179.19 659.78 178.62 658.38 178.32 657.14 177.88 656.07 177.34 653.56 176.57 652.15 175.88 649.93 174.3 649.2 173.51 648.29 172.74 644.19 170.58 642.14 169.07 641.59 168.15 641.09 166.99 641.53 164.93 641.97 164 642.71 163.24 646.54 161.81 650.65 159.08 651.46 157.95 654.17 152.5 660.08 154.66 665.11 155.6 670.25 153.96 671.85 155.13 673.26 156.68 674.43 157.31 675.98 157.55 679.96 156.96 680.9 157.06 681.84 157.74 682.16 158.28 682.43 158.85 683.11 159.32 684.6 159.55 686.98 159.23 688.76 158.69 690.08 158.04 690.86 157.47 691.3 157 692.19 155.86 692.76 155.37 693.68 154.84 694.48 154.52 695.3 154.33 695.79 154.27 704.31 154.12 706.16 154.37 709.8 155.37 711.51 156.31 712.44 157.27 712.34 158.22 711.41 159.2 710.48 160.5 710.31 161.81 711.24 163.14 712.95 163.7 715.37 163.44 716.7 162.89 717.98 162.54 719.59 162.52 722.2 163.17 727 164.92 733.81 165.82 752.16 166.34 767.34 163.82 774.08 161.4 775.01 160.82 776.25 160.36 782.47 159.26 784.4 159.29 786.28 159.84 787.48 160.37 790.33 163.36 790.71 163.89 790.74 163.94 Z" id="LTU-1075" data-name="Vilniaus"/>
<path d="M 9.74 157.35 9.81 159.82 1 158.52 1 158.52 1.03 158.49 11.18 148.43 16.88 140.4 22.43 129.33 23.89 117.91 24.74 115.6 24 114.96 24.74 113.67 23.56 110.93 23.94 102.45 22.82 98.75 27.19 101.88 29.1 107.88 29.38 119.73 29.08 121.44 27.82 123.71 27.52 125.34 27.52 130.44 25.97 132.66 23.82 134.9 23.08 137.01 25.67 138.86 25.67 139.71 23.71 141.13 21.22 143.7 19.07 146.74 18.16 149.53 16.38 152.29 9.74 157.35 Z M 113.18 179.53 110.84 178.4 108.51 176.61 98.95 172.33 93.42 170.77 79.68 170.51 74.75 168.23 66.32 159.92 62.15 157.53 58.75 157.83 47.59 163.14 47.58 163.14 47.78 162.47 47.16 159.35 47.15 158.34 48.03 157.79 49.01 157.99 49.99 157.93 50.79 156.57 50.52 155.46 49.61 153.88 48.48 152.46 47.58 151.84 46.48 151.25 46.06 149.82 46.16 146.75 44.73 146.64 36.89 150.93 36.14 149.9 36.13 149.6 36.51 149.49 41.7 142.68 42.85 141.65 44.96 140.16 44.98 136.84 43.37 131.36 41.7 127.32 41.52 126.26 40.92 125.8 39.63 124.99 38.32 123.89 37.74 122.6 37.87 120.94 38.1 119.87 38.15 118.85 37.74 117.45 32.64 109.76 31.64 107.37 31.24 104.81 30.36 103.46 24.74 97.9 23.4 97.06 22.21 96.61 21.35 95.74 20.73 92.38 19.47 89.73 17.31 78.26 17.31 72.28 17.61 70.8 18.87 68.91 19.17 67.65 19.17 56.01 18.5 51.25 23.65 50.53 31.64 50.49 37.1 49.64 39.13 47.06 40.11 43.32 42.43 38.95 45.85 35.96 50.68 33 55.74 30.64 59.9 29.43 66.07 29.26 68.18 28.87 77.18 25.01 87.15 20.73 92.19 19.3 104.2 18.99 111.26 17.14 142.34 9 141.87 10.36 140.1 11.2 135.19 12.63 134.29 13.27 133.86 14.26 134.14 15.07 134.85 15.86 135.93 16.4 137.13 17.23 138.01 18.38 138.05 21.2 138.37 22.59 138.81 23.67 140.4 24.83 141.16 25.56 145.05 30.63 145.64 31.96 145.28 32.54 144.12 32.9 142.76 32.98 141.49 33.3 140.61 33.88 139.74 35.34 138.88 36.27 138.2 36.83 136.64 39.09 133.36 43.08 132.29 43.61 130.85 44.15 124.19 44.12 122.31 44.33 121.2 44.9 119.81 45.94 118.69 46.45 117.3 46.7 112.03 46.84 110.56 47.32 104.09 50.78 103.2 53.58 98.48 58.78 97.09 59.84 95.83 60.43 92.68 60.85 91 61.59 90.47 62.44 90.52 63.19 90.85 64.01 91.15 64.9 90.58 70.41 90.68 71.69 91.17 72.88 91.82 73.69 94.29 75.85 94.81 76.58 95.18 77.6 94.63 78.29 92.66 79.23 92.22 79.92 91.57 80.4 84.4 83.72 82.53 84.94 81.71 85.75 81.27 86.36 81.2 87.08 81.41 87.93 87.15 88.25 88.41 88.03 90.12 87.59 92.71 86.29 93.44 86.46 93.67 87.11 93.57 88.02 93.69 88.82 95.26 90.23 96.29 90.97 96.94 91.54 97.11 92.13 96.69 92.67 95.93 93.31 95.62 93.95 96.17 94.79 97.26 94.98 98.82 94.86 100.5 94.55 106.97 94.46 110.15 93.82 112.37 93.73 113.38 94.13 113.74 94.64 113.38 95.36 113.23 96.12 113.15 96.9 112.87 97.58 112.35 98.34 112.52 99.14 115.17 101.74 115.63 102.46 115.95 103.09 116.56 105.03 117.2 105.84 118.27 106.77 118.78 107.38 119.16 108.28 123.24 111.62 130.43 115.19 131.06 116.38 130.66 117.08 129.86 117.95 128.89 118.48 121.81 120.23 122.08 121.55 124.08 122.5 124.51 123.23 125.39 127.71 126.15 128.68 128.13 129.97 128.74 131.01 131.58 137.65 133 138.58 134.39 138.51 136.79 137.35 137.99 137.2 139.32 137.59 142.15 138.88 147.6 140.35 152.03 141.02 152.83 141.45 153.25 141.82 153.33 142.97 151.21 143.66 150.17 147.4 149.16 148.57 147.35 149.73 145.05 150.87 134.88 157.48 133.53 159.29 133.89 160.38 135.46 160.84 139.77 161.21 152.7 164.49 153.94 165.22 154.76 166.06 156.46 169.09 158.52 171.75 158.77 172.57 158.69 173.25 157.91 175.44 158.48 176.1 159.72 176.23 161.32 175.65 163.79 174.28 164.76 173.99 168.25 173.67 169.62 173.74 170.95 174.18 173.46 175.6 174.93 176.01 176.41 176.08 179.26 175.77 180.48 175.9 181.57 176.2 182.69 176.35 183.95 176.38 185.09 176.27 187.45 177.03 187.64 178.63 187.12 179.3 186 180.33 185.45 181.62 183.93 183.62 183.72 184.49 183.7 187.41 183.7 187.47 181.17 187.29 166.42 189.49 164.68 190.53 163.14 191.78 160.61 192.85 157.48 193.03 153.83 192.36 150.81 190.88 149.58 188.64 149.58 186.41 149.14 184.9 147.51 184.21 143.99 184.42 140.44 185.98 139.28 186.28 137.94 185.98 134.63 184.71 129.83 184.02 127.2 183.03 122.59 180.71 113.18 179.53 Z" fill-rule="evenodd" id="LTU-935" data-name="Klaipedos"/>
<path d="M 225.57 8.55 223.84 9.48 222.83 9.84 222.16 10.49 222.51 11.35 223.4 12.16 224.16 13.2 224.12 14.38 223.42 15.57 222.32 16.69 220.39 17.51 218.51 17.76 216.57 17.7 212.97 17.09 211.31 17.09 209.69 17.64 208.7 19.02 207.59 19.87 207.09 20.66 207.4 21.14 208.84 22.3 208.86 23.44 208.06 24.91 205.89 26.65 203.62 27.78 199.82 30.91 197.92 38.82 202.92 39.72 203.66 40.18 204.1 40.77 202.79 42.11 202.67 43.07 203.34 43.31 204.5 43.27 205.49 43.33 206.08 43.93 206.31 44.88 206.94 45.98 208.61 46.66 210.51 47.04 212.36 47.05 218.26 45.43 223.42 45.85 225.85 45.62 227.66 45.15 228.71 44.45 230.12 43.96 234.21 43.26 237.2 43.06 239 43.33 239.97 43.96 240.01 44.66 239.5 45.68 239.21 46.76 239.59 47.9 240.2 48.78 242.39 50.29 240.16 50.92 238.49 51.11 238.21 51.3 237.62 52 237.1 52.28 236.49 52.46 230.1 53.25 228.77 54.01 228.58 55.11 229.72 57.31 229.83 59.07 229.81 60.15 229.32 60.81 228.58 61.36 226.61 62.21 225.93 62.69 225.91 63.36 226.44 64.37 228.33 65.81 229.6 66.6 231.35 66.77 232.78 66.51 233.85 65.96 234.44 65.27 235.03 64.7 236 64.55 237.1 65.03 238.63 66.46 239.8 67.12 241.17 67.61 241.88 67.99 241.74 68.43 239.97 68.97 238.32 69.66 238.8 71.15 234.8 73.87 232.82 77.19 231.49 78.2 229.47 78.77 227.57 78.9 225.43 79.25 224.42 80.04 224.16 81.14 224.56 83.64 223.97 84.96 222.58 85.73 220.62 86.53 219 86.93 217.15 87.23 215.62 87.61 213.85 88.53 213.73 89.41 215.37 91.66 215.81 92.91 215.43 94.7 215.03 96 214.82 97.19 215.01 98.29 215.79 100.51 215.64 101.55 214.53 102.32 213.35 102.68 209.12 104.84 198.77 105.8 197.14 105.64 195.52 105.15 194.03 104.87 190.67 105 189.05 104.78 184.98 103.63 181.61 103.83 170.41 104.6 165.7 105.78 163.36 106.76 161.63 106.98 159.89 106.96 158.16 106.67 157.09 106.8 156.5 107.05 155.95 107.64 155.44 108.39 155 109.37 154.94 110.16 155.08 110.99 154.95 111.58 154.24 112.2 150.89 114.09 149.44 114.4 147.64 114.3 145.85 113.94 130.43 115.19 123.24 111.62 119.16 108.28 118.78 107.38 118.27 106.77 117.2 105.84 116.56 105.03 115.95 103.09 115.63 102.46 115.17 101.74 112.52 99.14 112.35 98.34 112.87 97.58 113.15 96.9 113.23 96.12 113.38 95.36 113.74 94.64 113.38 94.13 112.37 93.73 110.15 93.82 106.97 94.46 100.5 94.55 98.82 94.86 97.26 94.98 96.17 94.79 95.62 93.95 95.93 93.31 96.69 92.67 97.11 92.13 96.94 91.54 96.29 90.97 95.26 90.23 93.69 88.82 93.57 88.02 93.67 87.11 93.44 86.46 92.71 86.29 90.12 87.59 88.41 88.03 87.15 88.25 81.41 87.93 81.2 87.08 81.27 86.36 81.71 85.75 82.53 84.94 84.4 83.72 91.57 80.4 92.22 79.92 92.66 79.23 94.63 78.29 95.18 77.6 94.81 76.58 94.29 75.85 91.82 73.69 91.17 72.88 90.68 71.69 90.58 70.41 91.15 64.9 90.85 64.01 90.52 63.19 90.47 62.44 91 61.59 92.68 60.85 95.83 60.43 97.09 59.84 98.48 58.78 103.2 53.58 104.09 50.78 110.56 47.32 112.03 46.84 117.3 46.7 118.69 46.45 119.81 45.94 121.2 44.9 122.31 44.33 124.19 44.12 130.85 44.15 132.29 43.61 133.36 43.08 136.64 39.09 138.2 36.83 138.88 36.27 139.74 35.34 140.61 33.88 141.49 33.3 142.76 32.98 144.12 32.9 145.28 32.54 145.64 31.96 145.05 30.63 141.16 25.56 140.4 24.83 138.81 23.67 138.37 22.59 138.05 21.2 138.01 18.38 137.13 17.23 135.93 16.4 134.85 15.86 134.14 15.07 133.86 14.26 134.29 13.27 135.19 12.63 140.1 11.2 141.87 10.36 142.34 9 144.76 8.37 159.82 4.42 165.94 4.65 168.53 5.39 173.56 7.48 176.23 8.09 216.54 7.33 225.24 8.45 225.57 8.55 Z" id="LTU-936" data-name="Telšiai"/>
</g>
</svg>