<?xml version="1.0"?>
<svg xmlns="http://www.w3.org/2000/svg" version="1.2" baseProfile="tiny" width="800" height="776" viewBox="0 0 800 776" stroke-linecap="round" stroke-linejoin="round">
<g id="ne_10m_admin_1_states_provinces">
<path d="M 28.96 775.11 18.52 747.33 15.15 737.74 1 715.32 1.01 715.32 14.02 708.12 22.16 698.99 48.19 679.02 59.93 660.99 87.14 643.57 98.64 625.83 142.37 587.21 162.95 561.8 164.37 558.97 181.94 571.5 192.99 583.25 191.73 595.6 172.8 610.57 172.68 610.57 163.91 615.68 98.15 669.65 85.65 690.05 85.47 699.94 90.28 719.92 88.6 729.87 68.22 748.68 38.29 767.7 28.96 775.11 Z" id="GAZ+00?" data-name="Gaza Strip"/>
<path d="M 588.39 1.45 596.16 4.92 612.74 16.52 623.32 19.71 659.92 18.19 677.23 19.92 694.54 29.01 699.71 42.68 699.47 60.68 702.66 75.35 717.74 79.15 731.63 79.52 745.27 82.54 792.27 92.84 794.01 97.3 794.97 102.59 791.37 102.59 791.37 98.59 787.04 98.59 787.04 102.59 790.17 108.25 789.68 125.7 794.97 134.34 792.39 141.11 792.21 152.2 794.37 163.27 799 170.07 796.12 171.46 793.89 173.03 792.33 175.16 791.37 178.39 799 178.39 791.46 205.85 788.9 215.14 791.37 222.04 791.37 226.37 786.62 228.44 783.97 231.05 783.97 234.21 787.04 237.94 777.3 252.12 776.94 258.85 783.07 266.06 773.28 272.89 770.09 282.92 771.17 309.76 777.48 323.4 778.75 329.59 779.11 337.52 780.07 342.36 783.49 348.79 783.07 353.42 780.43 356.1 776.4 357.09 772.8 358.8 771.17 363.52 785.36 410.07 779.11 417.31 779.11 421.64 791.37 453.01 772.86 470.62 758.26 499.52 745.27 525.25 736.01 567.44 732.83 610.57 733.01 611.5 733.07 612.04 732.83 612.22 732.47 612.01 692.92 614.83 659.32 631.27 595.92 676.5 561.96 687.41 489.42 686.87 454.62 690.95 439.83 695.34 423.85 697.5 408.46 695.43 395.6 687.08 388.81 667.54 397.28 648.1 423.48 610.57 426.79 591.63 427.03 575.38 429.61 559.63 438.83 544.33 440.07 542.26 450.71 531.5 497.47 501.36 517.72 483.69 528.12 476.51 539.18 471.76 575.06 465.15 578.37 467.83 581.37 469.09 584.02 468.37 586.18 465.06 587.02 452.56 586 442.88 581.43 435.67 571.58 430.47 531.13 422.36 500.78 409.95 492.54 408.78 488.21 411.12 477.94 420.56 472.17 423.62 468.02 424.34 458.94 424.25 439.77 421.37 434.3 411.63 435.43 409.06 438.87 401.2 454.62 396.45 470.54 388.85 463.63 369.38 452.15 346.66 454.62 329.23 455.1 327.25 455.28 325.14 455.1 323.04 454.62 321.12 454.2 320.88 453.84 320.58 453.66 320.22 453.66 319.82 454.68 306.93 454.38 296.08 447.04 241.27 444.16 231.45 434.72 213.47 435.87 207.89 443.62 199.34 466.22 181.64 470.48 174.44 472.53 167.05 471.51 160.92 467.48 156.56 460.21 154.62 462.01 147 464.05 128.7 466.46 121.32 468.68 119.97 476.43 117.55 478.6 116.17 482.8 104.21 485.09 94.3 492.06 64.11 503.48 47.23 518.81 37.87 536.24 30.84 554.27 21.19 568.87 6.78 576.98 1.54 587.38 1 588.39 1.45 Z" id="WEB+00?" data-name="West Bank"/>
</g>
</svg>