<?xml version="1.0"?>
<svg xmlns="http://www.w3.org/2000/svg" version="1.2" baseProfile="tiny" width="800" height="1186" viewBox="0 0 800 1186" stroke-linecap="round" stroke-linejoin="round">
<g id="ne_10m_admin_1_states_provinces">
<path d="M 620.11 9.35 620.23 9.53 621.7 11.08 622.56 12.62 622.87 14.33 622.71 16.44 621.11 21.18 621.05 22.5 622.12 24 625.29 26.37 627.16 28.24 627.16 32.15 627.37 33.07 627.76 33.56 628.37 33.63 629.27 33.3 629.27 34.31 629.41 35.27 629.88 35.83 630.87 35.68 632.85 34.19 633.54 34.03 634.34 34.35 634.54 34.89 634.59 35.53 634.95 36.15 636.76 37.28 637.43 37.88 639.12 38.83 642.18 38.03 643.83 38.6 644.54 40.3 643.01 43.7 644.21 45.41 645.79 42.85 646.33 42.52 647.29 42.85 648.2 43.7 648.88 44.75 649.16 45.73 649.93 47.4 651.73 47.61 655.15 46.83 656.35 48.96 659.77 61.68 659.39 62.23 658.55 63.83 658.36 64.51 658.29 65.66 658.44 65.85 658.9 65.92 659.77 66.69 659.57 66.18 659.99 66.12 660.66 66.34 661.19 66.69 661.29 67.1 661.12 68.29 661.19 68.75 662.61 71.29 664.38 79.14 664.17 80.07 664.02 87.24 664.02 87.27 663.84 88.53 663.32 90.27 663.32 91.51 663.62 92.28 664.13 92.74 664.57 93.28 664.72 94.34 664.29 95.04 663.51 95.21 662.98 95.67 663.32 97.18 663.84 97.89 666.5 99.68 668.78 102.3 670.23 103.43 671.47 103.25 673.24 101.95 675.1 101.75 677.03 102.55 679 104.24 678.5 104.89 678.11 106 678.08 107.24 678.62 108.23 679.38 109.07 679.44 109.7 679.18 110.5 679 111.77 680.06 113.29 681.84 114.78 682.29 115.94 679.32 116.4 678.88 116.86 679.12 117.89 679.63 118.97 680.03 119.56 680.45 120.54 679.74 121.46 678.75 122.31 678.23 123.12 678.46 125.72 679.16 127.34 680.38 128.19 682.15 128.42 682.82 129.53 685.37 135.5 684.79 136.55 683.11 138.12 682.54 139.1 682.72 139.52 683.82 140.55 683.95 141.22 683.52 141.71 682.82 141.79 682.15 141.75 681.76 141.86 680.95 144.07 680.77 146.09 681.07 148.15 682.71 152.8 683.8 154.64 686.71 158.26 687.93 161.61 686.55 164.47 681.76 169.64 680.82 171.48 680.16 173.5 679.51 178.89 679 180.48 679 181.67 679.32 182.44 679.87 182.9 680.33 183.45 680.42 184.5 679.72 186.21 677.33 189.64 676.81 191.28 676.08 197.7 676.87 208.3 677.52 217.16 680.35 223.79 681.41 225.33 682.06 227.16 681.71 229.71 680.42 234.14 680.7 238.04 688.62 253.16 689.41 255.65 689.26 257.29 688.22 259.12 687.59 261.63 687.53 264.19 688.2 266.16 688.84 266.72 689.8 267.17 690.94 267.47 692.12 267.58 693.21 267.8 693.91 268.28 694.41 268.77 696.5 269.73 697.42 271.5 698.86 275.36 700.36 277 701.72 278.11 702.72 279.36 703.12 281.4 703.33 284.02 703.98 286.12 705.11 287.91 719.38 301.02 723.23 306.46 724.71 307.31 724.66 307.76 729.42 311.87 736.33 315.96 739.97 317.1 744.46 321.11 742.65 321.65 719.4 327.28 713.55 327.44 696.14 321.86 689.99 321.6 685.23 322.12 684.31 322.39 683.15 323.09 681.3 324.77 680.22 325.47 677.3 326.13 674.13 325.9 668.09 324.47 663.33 324.3 650.32 328.31 646.16 328.1 615.91 320.69 590.62 322.37 590.61 322.35 590.45 322.1 591.38 315.77 590.36 314.14 580.78 311.34 579.13 311.35 576.03 310.6 573.91 307.79 570.6 305.48 570.18 305.08 567.62 301.28 566.18 300.36 562.82 299.28 557.23 298.16 555.12 298.02 550.84 298.5 546.78 298.04 540.23 296.74 538.7 296.86 537.18 297.32 535.43 298.76 534.54 299.97 534.06 301.22 534.02 302.34 534.48 303.46 536.05 305.73 536.52 306.84 536.02 307.9 534.74 308.65 528.11 310.82 525.68 311.96 524.14 312.44 522.1 312.17 518.31 312.12 513.29 313.66 511.99 313.68 510.75 313.05 509.78 312.25 507.69 308.77 507.36 308.09 508.32 307.53 510.53 305.86 511.74 304.31 513.39 300.82 513.61 299.43 513.44 298.23 512.73 296.12 512.76 294.78 515.08 288.34 518.61 268.79 522.5 255.83 525.35 249.86 543.8 223.81 544.36 222.57 545.11 220.93 544.42 217 544.88 214.88 546.03 213.1 547.7 211.68 551.64 209.43 552.88 207.82 554.66 203.7 557.14 199.36 560.57 195.06 564.47 191.15 568.45 187.99 571.64 187.98 575.72 189.14 582.98 192.19 585.12 192.5 587.42 191.92 589.63 190.79 591.48 189.45 594.33 186.53 595.59 186 598.39 185.67 599.2 185.34 608.43 176.93 610.38 175.85 616.51 173.96 618.69 172.7 622.49 169.33 624.66 168.04 630.02 166.12 631.79 165.18 633.04 163.28 634.12 160.8 634.91 158.23 635.29 156.07 635.25 153.44 634.65 151.36 633.5 149.59 631.8 147.92 631.26 147.23 630.89 146.49 630.47 145.82 629.69 145.36 627.93 145.38 627.51 145.23 626.57 143.97 626.42 143.07 626.9 142.16 630.7 137.21 631.47 135.47 633.69 124.92 634.87 121.65 635.25 118.18 635.23 117.44 635.05 116.31 633.09 111.84 632.89 109.85 634.74 108.65 634.5 107.57 636.29 100.14 636.91 98.93 637.43 98.31 637.68 97.66 639.68 95.66 639.51 94.56 639.01 93.57 637.78 92.93 636.91 93.26 635.48 94 634.13 94.47 633.54 93.99 632.86 91.84 631.23 90.51 629.14 89.41 627.1 87.98 628.12 87.43 628.52 87.27 628.52 86.5 627.38 86.02 624.31 83.75 623.57 83.03 623.37 82.07 623.9 80.54 623.57 79.49 620.74 78.01 614.12 76.42 592.82 75.78 591.22 75.45 589.85 74.63 588.91 73.06 588.84 71.85 589.46 68.68 589.49 66.69 588.95 64.98 588.79 64.49 588.65 56.48 582.83 28.9 577 1.33 613.6 1 615.39 2.12 620.11 9.35 Z" id="CMR-1462" data-name="Extrême-Nord"/>
<path d="M 102.56 936.08 103.62 938.55 104.8 939.79 106.52 941.18 107.44 942.9 106 944.87 104.52 944.28 103.77 944.12 103.05 943.81 101.68 942.75 100.35 940.56 99.76 940.13 99.3 939.88 99.02 939.45 98.93 938.5 97.65 938.65 96.74 939.06 96.21 939.79 96.03 940.94 98.83 942.63 99.58 943.46 99.81 944.67 99.56 945.59 99.15 946.58 98.93 948.05 99.24 948.84 100.87 949.75 101.68 950.53 100.35 951.14 98.72 951.58 94.97 951.95 93.03 951.73 89.49 950.75 87.86 950.53 86.63 949.91 86.64 949.89 86.65 949.87 90.04 946.75 91.92 945.68 92.92 945.36 93.24 945.07 93.45 944.63 93.66 943.59 94.75 941.03 98.87 934.27 99.2 933.84 99.2 933.84 99.65 934.44 100.47 934.76 101.41 934.96 102.46 935.61 102.56 936.08 Z M 143.38 811.09 144.47 811.2 145.55 810.81 146.5 810.05 147.56 809.37 148.69 809.25 150.08 809.78 153.48 812.19 154.2 813.11 154.57 813.9 154.87 815.54 156.29 818.26 156.44 822.52 155.36 824.92 155.47 825.37 155.65 825.87 156.39 827.2 157.06 829.16 157.53 830.08 158 830.71 161.88 832.84 162.31 833.41 162.56 834.26 163 836.93 163.33 838.12 163.46 838.34 163.94 838.96 164.84 839.66 165.31 839.93 166.75 841.4 167.43 844.74 168.27 845.78 168.78 845.9 169.19 845.92 169.44 845.92 170.13 845.81 170.53 845.69 171.56 845.6 174.17 840.06 174.91 839.13 175.42 838.32 179.26 835.68 180.66 834.47 181.34 833.05 181.84 831.64 182.83 829.95 183.88 829.71 185.05 829.92 186.18 830.32 187.3 830.54 188.41 830.35 190.66 829.58 191.85 829.31 194.66 828.99 196.01 830.68 196.86 834.32 198.03 836.05 198.92 837.94 200.77 842.84 201.93 844.03 204.28 844.93 205.23 846.1 206.11 846.86 208.05 847.7 206.06 852.27 203.89 854.84 200.37 857.69 196.14 859.85 195.23 860.67 194.34 862.63 193.6 868.18 194.36 868.81 195.35 869.06 200.42 865.98 203.89 864.37 206.24 863.93 207.41 865.45 207.8 866.87 207.96 868.24 207.86 869.5 207.46 871.24 207.03 872.32 206.33 873.4 201.8 878.08 197.77 884.65 197.01 886.55 196.64 888.14 196.7 889.16 196.83 889.8 197.05 890.19 197.48 890.65 198.39 891.08 199.54 891.07 200.71 890.77 201.88 890.58 202.96 890.88 204.94 892.54 205.98 893.05 206.83 893.16 207.89 893.18 208.64 893.34 209.7 893.9 210.79 894.66 211.66 895.41 212.89 896.26 217.06 896.88 218.36 896.48 219.87 895.81 224.02 891.88 225.69 891.13 227.07 889.96 227.41 889.41 228.05 888.55 229.11 887.65 229.9 888.01 230.29 888.75 230.53 890 231.3 890.88 233.01 891.6 236.07 888.53 237.29 885.91 238.41 880.56 238.91 878.98 239.89 878 241.03 877.43 242.33 877.33 243.6 877.59 244.76 878.03 245.87 878.17 246.72 877.92 248.66 877.04 249.77 876.9 250.69 876.94 251.61 877.52 252.01 880.46 251.38 890.11 254.79 898.85 259.88 907.44 270.62 917.11 271.04 917.73 272.04 919.13 269.56 921.33 266.39 923.52 265.46 924.02 264.66 924.33 259.1 925.73 257.81 926.47 256.49 927.83 254.74 927.42 250.68 929.37 245.93 930.35 242.21 932.24 240.16 932.84 237.76 932.69 236.62 932.84 235.83 933.17 235.29 933.6 234.62 933.97 233.47 934.13 232.84 934.36 231.45 935.37 230.61 935.6 229.74 936.95 228.58 938.84 227.64 940.94 225.24 944.88 224.19 947.02 223.57 948.88 223.62 950.17 224.19 952.87 224.32 954.3 224.31 955.21 223.23 959.21 223.52 961.93 222.44 965.07 221.69 966.37 220.84 967.5 219.74 968.33 218.65 968.66 217.49 968.25 216.58 967.35 214.79 964.93 213.63 963.8 212.2 962.87 208.73 961.97 207.73 961.61 207.03 961.16 206.08 960.32 205.32 959.52 203.97 958.32 198.25 961.07 195.85 963.38 194.65 965.9 194.29 967.15 193.6 972 191.4 977.73 190.9 979.43 190.48 984.34 190.1 984.82 189.81 985.14 189.42 985.43 188.47 986.01 185.87 988.28 185.34 988.6 184.63 988.88 184.36 988.96 183.94 989 183.63 989 183.1 988.94 182.61 988.76 182.21 988.57 181.53 987.98 180.79 985.94 179.07 984.61 177.12 983.41 175.63 982.83 175.37 982.96 175.18 983.11 174.54 983.8 174.23 984.01 173.99 984.12 173.55 984.27 171.18 984.62 170.55 984.78 169.88 985.04 169.49 985.27 169.2 985.49 168.57 986.15 167.98 986.91 167.61 987.49 167.25 988.23 165.73 990.43 165 991.23 163.19 992.72 162.85 993.06 162.63 993.43 162.24 995.19 162.15 997.29 162.24 998.56 162.66 1000.05 162.68 1000.34 162.66 1000.72 162.45 1001.11 162.18 1001.48 161.22 1002.47 161.06 1002.78 161.05 1003.23 161.18 1004.28 161.14 1004.8 161.05 1005.13 160.94 1005.39 158.46 1009.81 158.08 1010.32 157.4 1010.84 154.75 1012.47 153.61 1013.45 152.59 1014.46 151.63 1015.7 150.99 1016.32 150.34 1016.78 148.59 1017.53 148.57 1017.54 148.57 1017.28 146.96 1017.4 145.84 1017.14 145 1016.58 144.27 1015.86 143.6 1014.92 140.89 1009.82 133.18 1000.16 128.84 996.4 118.8 989.57 121.09 989.06 123.62 987.8 132.13 981.31 134.41 980.43 137.19 980.36 133.87 979.41 130.97 980.54 128.28 982.29 125.51 983.2 118.42 983.83 117.15 983.25 116.65 981.93 117.13 980.51 118.8 979.66 115.74 972.37 110.82 965.55 109.41 962.92 108.83 960.5 111.43 963 112.02 963.33 112.53 963.79 113.36 966.04 113.84 966.86 115.16 967.48 116.95 967.69 120.92 967.64 119.88 967.08 116.62 966.16 115.58 965.58 115.17 965.15 114.88 964.61 114.17 963.68 113.32 961.53 113.62 958.89 114.83 956.41 116.62 954.78 120.55 958.28 122.69 958.79 123.74 956.25 127.23 957.99 128.56 958.99 129.4 960.5 130.01 959.39 130.03 958.31 129.55 957.26 128.76 956.25 129.09 956.21 130.18 956.25 125.31 954.5 123.02 953.16 122.34 951.24 123.68 949.85 126.35 948.92 129.29 948.45 131.47 948.41 131.46 947.95 131.32 947.63 130.82 946.99 131.09 946.85 131.32 946.86 131.47 946.75 131.47 946.22 121.15 947.99 118.02 947.7 116.4 945.92 116.89 943.28 118.57 940.9 120.57 939.86 122.27 938.3 126.76 931.5 129.8 929.95 130.23 929.4 130.69 928.36 130.45 927.75 128.76 928.47 126.82 929.9 125.93 930.86 125.16 932.08 124.45 932.08 124.45 929.95 122.61 931.34 119.24 936.48 117.38 938.5 115.12 939.67 112.3 940.46 110.22 940.07 110.25 937.73 108.83 939.15 106.83 938.1 104.96 936.2 103.93 933.81 104.52 931.37 104.37 931.21 104.39 931.2 105.06 931.01 105.8 930.6 106.68 929.8 107.82 927.7 108.53 926.72 109.9 925.5 110.51 924.69 110.43 923.6 109.56 921.22 108.74 920.14 107.27 919.17 99.99 917.86 97.8 916.6 98.01 913.92 98.61 910.98 105.78 899.6 106.36 897.39 105.38 894.55 105.19 893.02 105.67 887.09 106.38 884.2 109.72 878.39 111.34 876.07 112.15 875.37 114.56 875.29 115.89 875.64 116.75 875.58 117.71 875.23 118.45 874.31 119.14 870.84 122.04 866.64 124.8 864.42 125.87 862 125.89 859.3 126.05 858.14 126.5 856.54 127.57 854.92 130.92 851.82 132.82 849.32 133.88 848.32 134.57 847.28 134.77 846.11 132.46 843.68 131.74 842.29 132.06 840.82 132.87 838.23 134.22 835.07 135.99 832.95 139.59 832.25 140.67 831 140.34 829.12 138.35 824.69 136.92 822.21 132.98 817.42 131.28 813.23 130.44 809.35 130.41 808.31 130.84 807.43 131.73 807.24 132.82 807.24 134.06 807.05 135.28 806.34 138.95 802.01 142.45 801.22 141.73 808.82 143.38 811.09 Z" fill-rule="evenodd" id="CMR-1476" data-name="Littoral"/>
<path d="M 280.43 689.36 281.09 694.71 280.96 697.6 279.87 702.09 278.92 704.47 274.96 708.36 273.63 709.13 271.65 709.99 270.22 710.17 268.92 710.18 260.65 709.28 259.93 711.7 260.56 716.56 259.08 723.19 258.31 724.72 257.33 725.93 256.17 726.92 251.35 729.54 246.69 731.12 244.4 731.44 242.66 733.83 238.15 732.73 230.83 731.38 229.4 731.6 227.72 732.15 227.09 732.9 226.59 733.95 222.57 743.72 218.29 750.64 217.38 751.21 215.05 752.03 209.54 751.57 207.68 751.63 189.44 754.98 187.77 761.26 186.87 762.34 185.7 763.27 184.66 763 183.91 762.14 183.38 761.08 182.69 759.98 181.74 759.17 180.63 758.71 175.68 757.39 174.07 757.17 172.99 757.43 172.14 757.85 165.79 762.75 162.59 761.61 157.39 760.5 153.43 759.12 147.56 762.24 141.1 759.22 134.97 757.37 131.93 755.81 130.65 754.49 129.7 753.28 128.87 751.45 128.29 750.82 127.24 750.38 124.54 750.92 122.16 750.23 119.57 746.72 118.46 745.57 117.37 744.95 116.23 744.48 115.34 743.56 114.97 742.13 116.14 736.95 115.09 735.51 114.38 734.89 114.22 734.73 114.11 734.63 114.04 734.51 113.9 734.26 113.59 733.56 114.06 732.21 115.42 730.54 125.54 724.25 127.98 721.22 130.17 720.6 131.1 721.02 132.29 721.21 133.35 720.86 134.11 719.67 134.7 717.89 134.59 714.59 135.22 712.38 135.75 707.07 130.7 690.95 129.65 688.91 128.32 684.61 125.71 680.59 124.17 679.26 132.03 654.45 133.97 652.27 136.43 652.45 138.44 653.43 140.46 654.02 142.89 653 168.25 631.59 170.68 630.21 172.13 630.52 172.98 632.2 174.46 639.82 175.55 641.84 177.72 643.53 180.58 644.37 207.26 643.99 207.32 641.66 207.75 640.04 208.6 638.64 209.87 636.94 210.53 636.45 211.12 636.31 211.55 635.97 212.16 628.03 213.04 624.14 214.33 620.37 215.83 617.45 217.74 619.9 218.3 624.99 220.17 626.48 222.9 627.38 230.15 631.2 238.67 634.39 242.06 636.69 243.75 640.82 244.7 645.54 246.78 650.06 250.09 653.36 259.75 655.12 263.28 657.89 265.27 662.05 265.59 666.99 265.42 671.1 265.76 675.15 267.5 683.15 269.53 688.08 271.24 689.65 274.02 690.03 280.43 689.36 Z" id="CMR-1477" data-name="Nord-Ouest"/>
<path d="M 454.55 734.6 454.26 735.85 454.05 737.62 454.45 739.76 454.53 740.89 453.86 744.27 453.89 744.73 454.21 745.72 454.82 746.88 457.58 749.97 460.16 753.82 460.91 755.38 462.38 760.1 462.91 761.18 463.6 762.3 466.32 765.33 466.72 765.92 467.1 766.76 467.39 768.29 468.89 772.17 470.96 775.67 471.99 778.09 473.69 780.46 473.92 782.15 473.4 784.82 468.89 795.84 464 804.23 463.27 805.07 461.99 805.76 460.26 806.08 453.75 805.88 448.47 807.21 449.56 809.04 456.6 814.48 468.24 826.62 469.61 828.6 471.56 832.08 472.15 834.16 472.3 835.82 471.77 838.09 471.54 838.71 471.44 839.63 471.7 840.6 472.99 841.42 478.29 843.42 479.53 843.7 480.81 843.86 483.18 843.96 484.5 844.58 486.04 846.23 489.82 853.75 491.33 857.63 488.47 880.91 487.5 882.49 486.62 882.97 485.54 883.04 483.23 882.32 482.01 882.17 480.86 882.3 478.5 883.16 477.23 883.46 475.99 883.41 473.53 882.65 472.31 882.54 469.58 882.87 468.1 882.9 466.96 882.71 466.16 882.52 465.24 882.17 464.45 881.98 463.64 881.9 462.57 882.07 461.36 882.54 456.49 885.48 455.22 886.89 453.95 889.02 452.38 893.25 450.69 900.19 449.37 902.76 445.96 905.54 447.06 909.01 447.22 910.16 447.25 911.39 446.43 915.67 442.75 927.58 442.8 929.24 443.91 931.21 445.08 932.93 445.45 933.81 445.54 934.9 445.11 936.04 444.34 937.04 442.32 938.03 441.23 938.33 439.66 938.97 438.97 939.41 438.31 939.91 436.22 941.91 435.42 943.07 435.24 943.45 435.16 943.55 432.86 945.36 432.51 945.72 432.25 946.17 432.15 946.3 431.93 946.5 431.64 946.63 431.16 946.78 428.86 946.73 422.62 949.16 421.9 949.35 421.22 949.72 420.68 950.23 420.1 951.35 419.18 952.65 417.41 953.51 416.72 953.54 416.41 953.74 415.77 954.29 415.29 955.39 415.19 956.6 415.42 957.94 416.8 960.77 418.88 962.81 425.1 965.49 425.98 966.27 426.48 967.59 426.22 969.45 426.38 975.51 426.16 978.11 425.16 981.26 422.07 987.56 420.45 985.86 418.31 983.17 415.82 978.24 415.14 977.34 414.61 976.88 413.76 976.44 412.66 976.5 411.4 977.12 405.63 983.24 394.6 992.1 391 995.85 389.71 998.04 386.16 1011.26 384.12 1012.53 379.12 1014 377.35 1014.19 376.14 1013.83 375.92 1012.65 376.27 1011.93 376.43 1011.67 376.97 1010.41 376.82 1009.56 375.31 1008.52 363.62 1002.9 361.29 1001.25 359.95 1000.63 356.32 999.81 354.54 998.45 352.64 997.55 349.3 1003.96 348.51 1005.02 343.8 1007.52 341.74 1008.96 340.49 1009.65 338.22 1010.33 337.13 1011.31 333.78 1017.28 332.97 1020.14 331.44 1023.99 330.32 1024.83 322.58 1028.53 317.56 1030.11 315.19 1030.34 299.03 1030.22 294.73 1031.18 293.03 1031.32 288.69 1030.5 285.86 1030.81 281.99 1031.49 277.61 1026.96 276.36 1025.96 275.8 1024.97 275.33 1021.98 274.8 1020.88 273.89 1020.28 272.8 1019.94 271.67 1019.08 270.54 1017.52 268.81 1009.77 267.73 1007.13 264.66 1003.3 263.32 1002.36 262.18 1002.32 258.95 1002.86 257.73 1002.93 256.83 1002.35 255.32 1001.75 252.97 1001.3 248.05 1002.05 243.71 1002.28 243.16 1001.75 242.76 999.36 242.17 997.19 241.69 996.41 240.85 995.81 238.97 995.53 236.7 995.56 229.97 997 227.28 997.77 194.66 1007.38 186.5 1008.68 185.78 1008.33 180.6 991.3 181.53 987.98 182.21 988.57 182.61 988.76 183.1 988.94 183.63 989 183.94 989 184.36 988.96 184.63 988.88 185.34 988.6 185.87 988.28 188.47 986.01 189.42 985.43 189.81 985.14 190.1 984.82 190.48 984.34 190.9 979.43 191.4 977.73 193.6 972 194.29 967.15 194.65 965.9 195.85 963.38 198.25 961.07 203.97 958.32 205.32 959.52 206.08 960.32 207.03 961.16 207.73 961.61 208.73 961.97 212.2 962.87 213.63 963.8 214.79 964.93 216.58 967.35 217.49 968.25 218.65 968.66 219.74 968.33 220.84 967.5 221.69 966.37 222.44 965.07 223.52 961.93 223.23 959.21 224.31 955.21 224.32 954.3 224.19 952.87 223.62 950.17 223.57 948.88 224.19 947.02 225.24 944.88 227.64 940.94 228.58 938.84 229.74 936.95 230.61 935.6 231.45 935.37 232.84 934.36 233.47 934.13 234.62 933.97 235.29 933.6 235.83 933.17 236.62 932.84 237.76 932.69 240.16 932.84 242.21 932.24 245.93 930.35 250.68 929.37 254.74 927.42 256.49 927.83 257.81 926.47 259.1 925.73 264.66 924.33 265.46 924.02 266.39 923.52 269.56 921.33 272.04 919.13 271.04 917.73 270.62 917.11 259.88 907.44 254.79 898.85 251.38 890.11 252.01 880.46 251.61 877.52 250.69 876.94 249.77 876.9 248.66 877.04 246.72 877.92 245.87 878.17 244.76 878.03 243.6 877.59 242.33 877.33 241.03 877.43 239.89 878 238.91 878.98 238.41 880.56 237.29 885.91 236.07 888.53 233.01 891.6 231.3 890.88 230.53 890 230.29 888.75 229.9 888.01 229.11 887.65 228.05 888.55 227.41 889.41 227.07 889.96 225.69 891.13 224.02 891.88 219.87 895.81 218.36 896.48 217.06 896.88 212.89 896.26 211.66 895.41 210.79 894.66 209.7 893.9 208.64 893.34 207.89 893.18 206.83 893.16 205.98 893.05 204.94 892.54 202.96 890.88 201.88 890.58 200.71 890.77 199.54 891.07 198.39 891.08 197.48 890.65 197.05 890.19 196.83 889.8 196.7 889.16 196.64 888.14 197.01 886.55 197.77 884.65 201.8 878.08 206.33 873.4 207.03 872.32 207.46 871.24 207.86 869.5 207.96 868.24 207.8 866.87 207.41 865.45 206.24 863.93 203.89 864.37 200.42 865.98 195.35 869.06 194.36 868.81 193.6 868.18 194.34 862.63 195.23 860.67 196.14 859.85 200.37 857.69 203.89 854.84 206.06 852.27 208.05 847.7 215.76 849.08 217.2 848.99 218.82 848.63 233.09 841.81 234.15 841.12 235.16 840.2 235.74 839.27 236.06 838.55 236.17 838.26 236.32 838 236.64 837.6 237.46 836.87 238.49 836.58 239.97 837.11 241.2 837.88 245.59 842.12 246.97 842.5 249.17 842.73 251.7 842.72 252.86 842.24 253.89 841.38 255.06 838.64 255.26 837.81 257.46 832.07 258.44 828.53 258.81 826.12 259.18 824.78 259.79 823.32 261.32 821.42 263.07 820.07 265.81 818.78 267.99 818.04 267.51 816.77 267.22 815.94 267.15 814.75 267.25 813.89 268 810.95 268 810.28 267.62 807.99 267.62 806.69 267.89 805.91 268.37 805.09 269.61 803.97 270.46 803.53 271.2 803.27 271.84 803.21 272.41 803.1 272.84 802.91 273.39 802.28 276.02 797.98 276.25 797.86 277.76 797.31 278.16 796.98 278.44 796.5 278.81 795.37 279.13 794.72 279.27 794.03 279.26 793.53 277.85 791.61 279.13 789.76 279.43 789.41 279.88 788.72 280.25 787.9 281.2 784.95 281.39 783.22 281.26 779.47 281.01 778.34 280.82 777.85 279.8 776.1 279.59 775.62 279.56 774.9 279.19 773.75 280.03 772.16 281.38 770.42 282.16 768.77 281.31 767.39 283.61 766.13 284.54 765.23 285.26 763.33 286.06 763 287 762.79 287.74 762.37 288.31 761.52 290.26 757.65 291.72 756.96 292.05 756.36 291.64 754.88 290.66 754.74 289.49 754.95 288.51 754.59 287.87 753.32 287.94 752.3 288.3 751.27 288.51 749.96 288.32 748.62 287.89 747.86 287.39 747.35 287.04 746.75 286.86 745.59 286.81 743.57 286.33 742.5 287.83 741.5 288.5 739.85 288.27 738.3 287.04 737.61 288.01 736.54 289.7 735.34 291.39 734.48 292.37 734.37 294.09 735 296.19 734.4 299.83 732.6 323.3 727.4 325 726.55 325.8 725.99 328.19 724.75 333.22 720.16 337.31 717.57 339.22 715.88 341.17 714.61 343.27 714.36 345.39 714.43 347.42 714.14 348.04 713.74 348.5 713.25 349.22 712.84 350.6 712.67 351.88 712.22 353.28 710.28 354.14 709.83 354.96 710.07 355.34 710.52 355.75 710.83 356.61 710.61 356.69 710.22 356.53 708.81 356.61 708.42 357.7 708.03 360.46 707.82 361.13 708.65 361.61 709.36 365 713.03 367.37 714.77 369.78 716.03 371.16 716.52 372.95 716.96 375.57 717.21 377.93 717.1 379.1 716.86 380.28 716.49 381.45 715.9 383.86 714.4 385.58 713.7 387.73 713.26 391.58 713.23 393.68 713.64 395.42 714.34 408.65 723.99 409.69 724.99 410.45 726.08 410.9 727.23 411.17 728.24 411.48 729.09 411.9 729.78 413.67 731.67 414.42 732.65 414.79 733.38 417.23 734.37 427.96 734.6 454.55 734.6 Z" id="CMR-1480" data-name="Centre"/>
<path d="M 615.11 726.41 615.2 726.96 614.74 727.96 614.42 728.41 614.05 729.29 613.6 729.73 613.06 729.74 611.97 728.92 611.48 729.02 610.71 729.87 610.4 730.57 610.62 731.39 611.48 732.62 612.35 733.47 613.54 734.89 615.07 736.12 616.58 737.72 617.3 739.39 617.75 741.2 618.53 742.83 620.23 743.97 622 743.98 625.25 744.36 626.78 744.19 629.59 742.46 630.86 742.54 632.23 744.61 632.75 746.69 634.25 748.6 634.93 759.65 635.66 761.75 634.96 763.24 633.54 768.89 631.7 773.58 631.42 775.19 631.56 776.99 632.08 778.41 633.54 780.85 634.22 782.49 634.4 783.77 634.25 786.9 633.9 787.98 632.39 790.9 632.05 792.61 632.16 795.58 631.7 796.77 630.33 797.25 630.29 798.05 629.42 799.78 628.38 801.38 627.87 801.81 627.67 803.17 627.09 805.01 626.18 806.76 624.98 807.85 624.14 808.11 624.55 809.24 626.19 811.09 628.35 812.46 632.81 813.94 634.97 815 636.63 816.64 637.78 818.78 638.54 821.16 638.99 823.52 638.97 828.74 639.43 832.74 638.69 836.57 638.67 837.02 638.6 838.52 639.01 839.69 639.67 840.58 640.16 841.57 639.91 844.34 640.29 845.38 640.89 846.4 641.45 847.65 642.95 857.44 642.86 858.49 642.39 861.03 641.95 862.17 641.84 862.85 642.52 864.61 643.24 872.47 644.59 877.37 647.33 881.72 651.06 885.34 667.49 896.65 672.02 898.25 673.25 898.99 673.94 900.04 674.64 902.67 675.32 904.07 678.91 908.49 680.49 911.41 681.42 914.26 682.47 920.52 682.63 926.41 683.33 929.19 684.51 930.16 686.08 929.97 687.64 930.57 688.31 932.01 688.65 933.48 689.26 934.15 690.71 934.15 692.29 934.41 693.54 935.27 693.78 936.4 691.74 937.27 689.46 937.82 685.41 939.75 683.38 940.17 681.67 939.95 678.35 939.1 676.57 939.11 682.67 953.64 691.63 966.78 700.05 975.7 701.05 976.77 708.04 984.18 716.77 993.42 727.54 1004.84 737.79 1015.7 747.51 1025.99 755.27 1034.22 756.05 1034.71 756.87 1034.96 758.16 1035.16 758.58 1035.04 759.78 1034.36 760.3 1034.17 760.92 1034.28 762.04 1035.01 762.43 1035.16 766.89 1034.69 768.57 1035.26 770.58 1036.94 772.31 1039.09 773.15 1041.11 774.53 1046.32 774.81 1046.89 775.18 1047.38 775.62 1047.82 777.01 1047.33 778.11 1047.07 779.12 1047.12 780.2 1047.59 781.02 1048.45 783.22 1051.65 784.75 1055.09 786.02 1057.26 787.05 1059.57 787.34 1062.32 786.48 1064.77 783.69 1067.56 783.3 1070.29 783.7 1073.82 783.62 1075.27 783.97 1076.16 785.03 1076.2 786.42 1075.98 787.75 1076.08 788.92 1076.34 787.98 1077.75 787.19 1079.28 786.84 1080.44 787.13 1082.55 788.72 1086.17 789.03 1088.28 788.55 1090.27 786.93 1093.82 786.84 1096.12 787.25 1097.47 788.57 1099.89 789.03 1101.78 789.03 1105.65 789.18 1106.49 790.01 1108.65 791.3 1111.22 793.26 1113.45 793.98 1114.52 794.35 1115.46 794.55 1116.4 794.67 1118.47 795 1118.98 796.43 1119.88 796.81 1120.24 796.85 1121.11 796.26 1122.43 796.1 1123.42 797.46 1124.2 797.85 1124.51 798.44 1124.98 799 1125.9 798.14 1127.03 793.98 1130.15 792.05 1128.31 789.95 1127.95 788.29 1128.96 787.61 1131.24 786.37 1133.56 786.13 1134.74 786.34 1136.07 786.78 1136.98 787.06 1137.94 786.84 1139.4 786.61 1139.51 786.19 1139.52 785.73 1139.66 785.42 1140.11 785.31 1140.73 785.31 1141.19 785.37 1141.47 785.42 1141.53 785.57 1142.44 785.93 1143.25 785.95 1144.16 784.36 1146.37 784.08 1147.37 784.2 1151.19 784.6 1151.75 785.24 1152.06 786.13 1152.84 787.98 1155.97 791.47 1165.04 793.96 1176.49 793.62 1178.12 792.51 1178.61 790.28 1177.85 789.37 1178.12 784.72 1184.8 780.64 1179.53 779.76 1177.73 779.76 1176.67 780.06 1175.69 780.21 1174.67 779.76 1173.48 778.91 1172.7 777.77 1172.23 776.53 1172.2 775.45 1172.78 773.67 1172.08 771.65 1171.64 770.12 1170.88 769.8 1169.24 768.7 1169.84 767.31 1170.38 766.07 1170.43 765.56 1169.56 765.29 1168 764.6 1167.27 763.59 1166.78 761.12 1165.16 758.35 1164.2 757.06 1163.52 753.1 1158.47 752.35 1158.03 749.93 1157.64 748.63 1157.13 747.55 1156.54 747.1 1156.06 737.26 1154.96 728.44 1152.35 723.91 1151.51 719.38 1152.14 714.09 1155.27 712 1155.97 710.05 1156.96 708.83 1157.15 708.88 1156.91 706.45 1155.82 705.94 1155.74 705.13 1154.86 704.98 1154.43 705.16 1153.85 705.3 1152.49 705.07 1151.73 704.49 1150.92 703.67 1150.28 700.15 1148.98 699.58 1148.67 699.17 1147.97 698.61 1146.39 698.09 1145.77 695.91 1144.91 694.29 1145.39 692.9 1145.97 689.59 1144.77 688.23 1147.82 686.71 1147.25 686.08 1147.25 685.03 1148.92 683.37 1150.62 681.64 1151.15 680.42 1149.31 678.4 1149.96 676.81 1149.5 671.88 1145.58 670.88 1145.44 670.05 1147.93 669.1 1148.41 666.85 1148.67 662.74 1148.35 663.17 1145.81 664.28 1142.91 662.26 1141.53 661.92 1140.51 660.56 1138.48 659.06 1137 658.36 1137.64 658.36 1138.92 658.15 1140.19 657.43 1141.15 655.88 1141.53 649.51 1142.23 649.18 1141.74 649.28 1139.42 649.16 1138.69 648.64 1138.69 647.73 1138.94 646.64 1139.06 645.63 1138.69 646.27 1138.44 647.76 1137.28 644.96 1135.79 644.21 1136.17 644.92 1138.69 643.39 1138.08 641.34 1135.97 639.9 1135.09 637.21 1135.2 636.2 1134.68 637.08 1133.04 634.61 1131.94 631.18 1128.11 628.52 1127.38 627.99 1128.04 627.03 1128.95 627.05 1129.91 627.29 1130.86 626.95 1131.76 626.02 1132.08 617.85 1133.83 615.73 1135.13 615.13 1135.32 613.65 1135 611.65 1133.14 610.03 1132.22 603.46 1131.33 598.9 1133.1 597.94 1133.22 587.04 1133.12 570.57 1132.97 552.04 1132.81 535.29 1132.67 535.29 1132.64 535.27 1132.37 531.98 1061.52 531 1055.12 529.87 1055.58 528.5 1055.98 527.37 1056.66 523.42 1059.84 521.82 1060.39 521.71 1061.06 522.78 1062.73 521.36 1062.4 519.96 1061.74 518.89 1061.65 518.47 1063.05 519.16 1065.91 518.95 1067.12 517.44 1067.62 511.39 1067.62 510.26 1067.2 506.38 1064.85 506.11 1064.4 505.4 1063.57 504.65 1063.3 504.32 1064.5 504.01 1064.82 503.28 1064.92 501.78 1064.85 500.91 1064.4 498.95 1061.96 497.95 1061.54 496.95 1060.85 495.95 1060.71 495 1061.96 495.12 1062.78 496.36 1065.91 497.12 1066.97 495.75 1067.03 494.63 1066.82 493.86 1066.26 493.31 1063.66 492.56 1062.91 490.04 1061.96 490.27 1060.45 489.23 1059.14 487.72 1058.7 486.5 1059.84 485.59 1059.43 485.09 1059.31 484.59 1059.45 483.68 1059.84 482.41 1059.01 480.73 1058.74 479.28 1059.11 478.66 1060.23 478.34 1061.04 477.63 1061.38 476.93 1061.13 476.32 1059.21 475.67 1059.24 474.96 1059.86 474.48 1060.61 472.99 1060 468.34 1058.72 467.02 1058.81 466.36 1058.74 464.6 1056.88 463.8 1056.3 463.7 1056.64 461.68 1058.49 460.26 1057.46 458.75 1057.15 455.32 1057.01 453.87 1056.62 452.02 1055.76 449.61 1055.48 449.21 1055.17 448.91 1054.72 448.18 1054.18 446.17 1053.4 445.67 1053.12 442.56 1048.66 442.23 1047.37 441.91 1035.7 440.94 1030.58 439.29 1025.99 435.45 1019.35 432.78 1016 425.52 1009.14 422.23 1004.91 421.03 1002.87 420.55 1001.74 420.32 1000.9 420.21 1000.01 422.07 987.56 425.16 981.26 426.16 978.11 426.38 975.51 426.22 969.45 426.48 967.59 425.98 966.27 425.1 965.49 418.88 962.81 416.8 960.77 415.42 957.94 415.19 956.6 415.29 955.39 415.77 954.29 416.41 953.74 416.72 953.54 417.41 953.51 419.18 952.65 420.1 951.35 420.68 950.23 421.22 949.72 421.9 949.35 422.62 949.16 428.86 946.73 431.16 946.78 431.64 946.63 431.93 946.5 432.15 946.3 432.25 946.17 432.51 945.72 432.86 945.36 435.16 943.55 435.24 943.45 435.42 943.07 436.22 941.91 438.31 939.91 438.97 939.41 439.66 938.97 441.23 938.33 442.32 938.03 444.34 937.04 445.11 936.04 445.54 934.9 445.45 933.81 445.08 932.93 443.91 931.21 442.8 929.24 442.75 927.58 446.43 915.67 447.25 911.39 447.22 910.16 447.06 909.01 445.96 905.54 449.37 902.76 450.69 900.19 452.38 893.25 453.95 889.02 455.22 886.89 456.49 885.48 461.36 882.54 462.57 882.07 463.64 881.9 464.45 881.98 465.24 882.17 466.16 882.52 466.96 882.71 468.1 882.9 469.58 882.87 472.31 882.54 473.53 882.65 475.99 883.41 477.23 883.46 478.5 883.16 480.86 882.3 482.01 882.17 483.23 882.32 485.54 883.04 486.62 882.97 487.5 882.49 488.47 880.91 491.33 857.63 489.82 853.75 486.04 846.23 484.5 844.58 483.18 843.96 480.81 843.86 479.53 843.7 478.29 843.42 472.99 841.42 471.7 840.6 471.44 839.63 471.54 838.71 471.77 838.09 472.3 835.82 472.15 834.16 471.56 832.08 469.61 828.6 468.24 826.62 456.6 814.48 449.56 809.04 448.47 807.21 453.75 805.88 460.26 806.08 461.99 805.76 463.27 805.07 464 804.23 468.89 795.84 473.4 784.82 473.92 782.15 473.69 780.46 471.99 778.09 470.96 775.67 468.89 772.17 467.39 768.29 467.1 766.76 466.72 765.92 466.32 765.33 463.6 762.3 462.91 761.18 462.38 760.1 460.91 755.38 460.16 753.82 457.58 749.97 454.82 746.88 454.21 745.72 453.89 744.73 453.86 744.27 454.53 740.89 454.45 739.76 454.05 737.62 454.26 735.85 454.55 734.6 504.85 734.6 545.59 734.28 555.15 733.09 565.95 729.02 567.5 728.7 569.22 728.84 574.38 730.62 576.23 731.01 584.73 729.8 590.15 729.1 599.97 726.66 605.31 726.34 606.66 725.8 607.3 724.99 607.83 724.12 608.25 723.57 608.97 722.86 609.91 722.67 610.9 722.99 612.67 725.24 614.81 726.34 615.07 726.4 615.11 726.41 Z" id="CMR-1481" data-name="Est"/>
<path d="M 699.42 603.38 697.08 605.37 695.13 610.26 693.69 612.64 693.21 613.78 693.08 614.76 693.59 620.77 693.31 621.83 692.43 622.89 690.05 623.99 689.11 624.6 687.99 626.32 687.24 628.26 685.61 634.67 682.19 643.64 680 647.97 678.25 652.68 677.46 654.14 676.2 655.2 669.98 658.29 668.29 659.42 666.88 661.02 665.79 663.5 653.91 690.29 651.31 693.83 651.09 695.01 651.54 697.45 651.57 698.58 651.33 699.72 650.28 701.63 646.41 706.59 644.77 707.89 629.99 714.95 625.7 714.92 624.77 716.58 623.22 718.52 620.23 721.45 618.67 721.91 616.27 724.22 614.89 725.48 615.01 725.84 615.11 726.41 615.07 726.4 614.81 726.34 612.67 725.24 610.9 722.99 609.91 722.67 608.97 722.86 608.25 723.57 607.83 724.12 607.3 724.99 606.66 725.8 605.31 726.34 599.97 726.66 590.15 729.1 584.73 729.8 576.23 731.01 574.38 730.62 569.22 728.84 567.5 728.7 565.95 729.02 555.15 733.09 545.59 734.28 504.85 734.6 454.55 734.6 427.96 734.6 417.23 734.37 414.79 733.38 414.42 732.65 413.67 731.67 411.9 729.78 411.48 729.09 411.17 728.24 410.9 727.23 410.45 726.08 409.69 724.99 408.65 723.99 395.42 714.34 393.68 713.64 391.58 713.23 387.73 713.26 385.58 713.7 383.86 714.4 381.45 715.9 380.28 716.49 379.1 716.86 377.93 717.1 375.57 717.21 372.95 716.96 371.16 716.52 369.78 716.03 367.37 714.77 365 713.03 361.61 709.36 361.13 708.65 360.46 707.82 357.7 708.03 356.61 708.42 356.53 708.81 356.69 710.22 356.61 710.61 355.75 710.83 355.34 710.52 354.96 710.07 354.14 709.83 353.28 710.28 351.88 712.22 350.6 712.67 349.22 712.84 348.5 713.25 348.04 713.74 347.42 714.14 345.39 714.43 343.27 714.36 341.17 714.61 339.22 715.88 337.31 717.57 333.22 720.16 328.19 724.75 325.8 725.99 325 726.55 323.3 727.4 299.83 732.6 296.19 734.4 294.09 735 292.37 734.37 291.39 734.48 289.7 735.34 290.22 733.29 291.86 729.06 291.83 727.26 291.28 724.93 289.56 720.54 289.01 718.19 288.8 716.4 289.04 714.08 289.32 712.87 290.37 710.52 290.48 709.4 290.12 708.31 288.56 707.19 287.16 706.48 278.92 704.47 279.87 702.09 280.96 697.6 281.09 694.71 280.43 689.36 283.49 689.04 284.04 689.23 285.2 689.96 285.95 690.06 286.57 689.8 287.67 688.81 288.06 688.59 289.19 688.69 291.44 689.24 292.58 689.31 295.14 688.7 297.79 687.39 299.82 685.51 300.47 683.15 301.1 678.85 302.65 675.35 305.38 673.15 309.47 672.74 312.29 671.17 314.74 667.78 317.74 660.8 318.41 658.04 318.68 655.23 318.18 653.37 315.9 650.8 315.22 649.25 315.8 646.48 317.68 643.85 324.05 638.02 330.04 634.26 330.43 633.72 330.8 632.36 331.22 631.88 331.71 631.75 332.77 631.86 333.93 631.58 335.55 631.52 336.25 631.27 336.85 630.45 337.03 629.46 337.33 628.53 338.88 627.54 343.28 623.56 344.47 622.85 345.88 622.41 347.04 622.52 347.97 622.95 348.84 623.19 349.84 622.79 350.78 620.44 349.5 617.84 345.46 613.46 340.31 606.04 338.85 604.8 336.39 604.34 335.79 603.73 336.62 602.81 338.47 601.43 340.57 599.46 346.99 589.94 353.09 584.02 359.57 577.71 362.34 573.61 363.96 572.49 365.26 571.31 365.67 569.2 364.19 563.13 364.02 560.94 364.34 558.66 365.04 556.54 368.77 549.79 379.06 535.56 382.98 531.49 383.57 529.98 383.29 528.27 382.57 525.72 382.01 521.75 381.99 517.72 382.58 515.21 386.81 509.23 387.29 507.88 388.52 509.04 392.88 515.01 412.66 532.84 415.13 534.12 417.41 534.78 419.97 535.22 423.89 535.31 425.31 535.47 426.93 535.95 427.88 537 430.03 540.49 430.32 541.63 430.19 542.66 429.65 543.68 428.98 544.54 428.66 545.64 428.98 547.96 429.11 551.12 429.82 552.81 430.82 553.89 432.09 554.6 434.58 555.54 435.93 555.9 436.98 556.04 439.56 557.3 441.29 558.9 449.66 561.32 466.25 563.75 467.76 564.17 476.62 568.85 478.21 569.27 479.66 569.34 481.99 568.91 484.4 568.21 487.34 567.78 492.79 568.06 493.5 566.85 493.77 562.76 494 561.43 494.32 560.58 495.38 559.44 496.12 558.33 497.23 557.66 504.51 559.21 507.36 561.34 508.39 562.6 510.14 564.14 511.89 565.1 514.19 566.07 519.64 569.64 521.04 569.91 522.09 569.44 523.42 568.02 524.45 567.32 528.15 565.98 529.3 565.44 531.81 563.94 533.24 563.33 535.11 562.94 536.58 563.05 539.12 563.93 540.3 564.05 541.55 563.93 553.38 561.23 555.71 561.08 556.98 561.29 558.22 562.56 558.37 567.1 559.15 568.02 560.28 568.95 563 569.64 581.03 571.56 582.03 572.04 582.77 572.84 583.6 576.58 584.05 577.71 584.63 578.58 585.23 579.22 589.52 582.52 590.63 583.62 591.26 584.48 591.46 586.16 593.46 589.54 598.99 595.42 600.82 596.84 602.09 597.58 603.59 598.83 605.2 602.16 605.55 607.83 605.34 609.14 604.99 610.53 605.2 612.1 606.03 613.09 607.17 613.69 608.42 613.93 611 614.02 618.47 613.31 619.85 613.49 621.29 613.96 622.93 614.99 624.1 616.3 625.08 617.94 625.69 619.3 628.27 623.01 634.66 624.3 636.2 626.62 636.96 627.23 638.36 628.1 639.58 628.44 640.8 628.52 641.96 628.34 643.16 628.02 644.45 627.53 645.71 626.91 653.39 622.21 674.98 612.81 676.62 612.29 678.29 612.04 679.92 612.03 682.29 611.77 683.9 611.21 685.33 610.32 691.77 604.75 694.05 603.38 695.73 602.8 697.12 602.67 698.29 602.91 699.16 603.2 699.39 603.35 699.42 603.38 Z" id="CMR-1482" data-name="Adamaoua"/>
<path d="M 590.62 322.37 589.1 322.47 588.26 322.8 588.01 323.56 587.96 324.58 587.72 325.62 582.69 335.54 579.44 339.93 570.98 347.22 564.68 356.19 564.85 357.74 574.06 364.88 603.57 398.62 604.59 403.07 606.49 406.37 629.51 424.74 652.52 443.12 654.18 443.64 655.15 443.33 656.06 443.17 656.97 443.18 657.93 443.39 659.36 444.18 663.45 447.19 664.38 448.17 664.9 449.46 665.59 449.95 666.35 450.22 667.08 450.85 667.67 451.82 668.61 454.45 668.85 455.71 668.85 456.67 669.23 457.35 670.62 457.77 674.48 458.35 677.12 459.16 679.26 460.71 680.98 462.78 685.35 469.9 691.34 475.75 692.91 477.77 695.71 483.71 709.66 513.32 716 535.53 719.54 544.04 724.42 547.62 726.65 547.71 729.91 548.46 732.2 548.91 732.12 559.51 730.75 565.66 727.96 571.33 723.72 576.8 722.91 578.27 717.33 585.78 716.93 587.41 718.94 589.27 718.72 590.63 718.27 590.73 716.32 590.85 715.65 590.98 715.05 591.56 714.2 593.28 713.8 593.88 708.92 597.63 700.95 602.08 699.42 603.38 699.39 603.35 699.16 603.2 698.29 602.91 697.12 602.67 695.73 602.8 694.05 603.38 691.77 604.75 685.33 610.32 683.9 611.21 682.29 611.77 679.92 612.03 678.29 612.04 676.62 612.29 674.98 612.81 653.39 622.21 645.71 626.91 644.45 627.53 643.16 628.02 641.96 628.34 640.8 628.52 639.58 628.44 638.36 628.1 636.96 627.23 636.2 626.62 634.66 624.3 628.27 623.01 625.69 619.3 625.08 617.94 624.1 616.3 622.93 614.99 621.29 613.96 619.85 613.49 618.47 613.31 611 614.02 608.42 613.93 607.17 613.69 606.03 613.09 605.2 612.1 604.99 610.53 605.34 609.14 605.55 607.83 605.2 602.16 603.59 598.83 602.09 597.58 600.82 596.84 598.99 595.42 593.46 589.54 591.46 586.16 591.26 584.48 590.63 583.62 589.52 582.52 585.23 579.22 584.63 578.58 584.05 577.71 583.6 576.58 582.77 572.84 582.03 572.04 581.03 571.56 563 569.64 560.28 568.95 559.15 568.02 558.37 567.1 558.22 562.56 556.98 561.29 555.71 561.08 553.38 561.23 541.55 563.93 540.3 564.05 539.12 563.93 536.58 563.05 535.11 562.94 533.24 563.33 531.81 563.94 529.3 565.44 528.15 565.98 524.45 567.32 523.42 568.02 522.09 569.44 521.04 569.91 519.64 569.64 514.19 566.07 511.89 565.1 510.14 564.14 508.39 562.6 507.36 561.34 504.51 559.21 497.23 557.66 496.12 558.33 495.38 559.44 494.32 560.58 494 561.43 493.77 562.76 493.5 566.85 492.79 568.06 487.34 567.78 484.4 568.21 481.99 568.91 479.66 569.34 478.21 569.27 476.62 568.85 467.76 564.17 466.25 563.75 449.66 561.32 441.29 558.9 439.56 557.3 436.98 556.04 435.93 555.9 434.58 555.54 432.09 554.6 430.82 553.89 429.82 552.81 429.11 551.12 428.98 547.96 428.66 545.64 428.98 544.54 429.65 543.68 430.19 542.66 430.32 541.63 430.03 540.49 427.88 537 426.93 535.95 425.31 535.47 423.89 535.31 419.97 535.22 417.41 534.78 415.13 534.12 412.66 532.84 392.88 515.01 388.52 509.04 387.29 507.88 387.61 507 387.7 504.94 386.05 496.57 385.8 491.86 386.6 487.39 388.98 484.02 391.24 483.09 395.22 483.76 397.4 483.45 398.63 482.58 399.46 481.39 400.12 480.13 400.9 479.07 404.02 476.92 404.92 475.97 404.86 473.1 404.57 471.63 402.14 465.76 401.29 464.26 404.14 465.17 405.62 465.4 407.05 465.27 408.69 464.56 409.89 463.73 411.18 463.06 413.07 462.84 414.42 463.22 417.76 464.75 419.29 465.04 420.88 464.66 431.5 459.1 433.34 457.1 434.86 453.76 435.77 450.83 436.52 449.61 437.69 449.04 439.17 449.1 440.49 449.33 441.77 449.35 443.16 448.77 445.39 445.71 446.55 441.26 448.88 421.74 448.13 417.96 448.25 413.78 450.33 408.85 455.12 400.32 455.76 398.53 456.15 396.62 456.25 392.52 455.42 389.41 454.41 387.32 451.46 386.86 450.97 386.52 451.7 384.64 452.39 384.14 458.47 381.28 459.32 380.7 460.47 379.56 463.47 375.73 464.86 374.64 472.03 371.54 480.18 370.3 486.93 367.64 489.83 360.29 490.34 353.58 491.68 346.59 492.69 344.11 493.66 342.41 493.92 340.75 492.78 338.42 489.78 335.32 488.72 333.66 488.54 331.32 489.34 329.22 491.78 325.41 492.21 322.96 491.8 320.97 490.56 317.58 490.53 315.51 492.37 311.98 495.83 310.67 503.95 309.79 505.88 308.96 507.36 308.09 507.69 308.77 509.78 312.25 510.75 313.05 511.99 313.68 513.29 313.66 518.31 312.12 522.1 312.17 524.14 312.44 525.68 311.96 528.11 310.82 534.74 308.65 536.02 307.9 536.52 306.84 536.05 305.73 534.48 303.46 534.02 302.34 534.06 301.22 534.54 299.97 535.43 298.76 537.18 297.32 538.7 296.86 540.23 296.74 546.78 298.04 550.84 298.5 555.12 298.02 557.23 298.16 562.82 299.28 566.18 300.36 567.62 301.28 570.18 305.08 570.6 305.48 573.91 307.79 576.03 310.6 579.13 311.35 580.78 311.34 590.36 314.14 591.38 315.77 590.45 322.1 590.61 322.35 590.62 322.37 Z" id="CMR-1483" data-name="Nord"/>
<path d="M 289.7 735.34 288.01 736.54 287.04 737.61 288.27 738.3 288.5 739.85 287.83 741.5 286.33 742.5 286.81 743.57 286.86 745.59 287.04 746.75 287.39 747.35 287.89 747.86 288.32 748.62 288.51 749.96 288.3 751.27 287.94 752.3 287.87 753.32 288.51 754.59 289.49 754.95 290.66 754.74 291.64 754.88 292.05 756.36 291.72 756.96 290.26 757.65 288.31 761.52 287.74 762.37 287 762.79 286.06 763 285.26 763.33 284.54 765.23 283.61 766.13 281.31 767.39 282.16 768.77 281.38 770.42 280.03 772.16 279.19 773.75 279.56 774.9 279.59 775.62 279.8 776.1 280.82 777.85 281.01 778.34 281.26 779.47 281.39 783.22 281.2 784.95 280.25 787.9 279.88 788.72 279.43 789.41 279.13 789.76 277.85 791.61 279.26 793.53 279.27 794.03 279.13 794.72 278.81 795.37 278.44 796.5 278.16 796.98 277.76 797.31 276.25 797.86 276.02 797.98 273.39 802.28 272.84 802.91 272.41 803.1 271.84 803.21 271.2 803.27 270.46 803.53 269.61 803.97 268.37 805.09 267.89 805.91 267.62 806.69 267.62 807.99 268 810.28 268 810.95 267.25 813.89 267.15 814.75 267.22 815.94 267.51 816.77 267.99 818.04 265.81 818.78 263.07 820.07 261.32 821.42 259.79 823.32 259.18 824.78 258.81 826.12 258.44 828.53 257.46 832.07 255.26 837.81 255.06 838.64 253.89 841.38 252.86 842.24 251.7 842.72 249.17 842.73 246.97 842.5 245.59 842.12 241.2 837.88 239.97 837.11 238.49 836.58 237.46 836.87 236.64 837.6 236.32 838 236.17 838.26 236.06 838.55 235.74 839.27 235.16 840.2 234.15 841.12 233.09 841.81 218.82 848.63 217.2 848.99 215.76 849.08 208.05 847.7 206.11 846.86 205.23 846.1 204.28 844.93 201.93 844.03 200.77 842.84 198.92 837.94 198.03 836.05 196.86 834.32 196.01 830.68 194.66 828.99 191.85 829.31 190.66 829.58 188.41 830.35 187.3 830.54 186.18 830.32 185.05 829.92 183.88 829.71 182.83 829.95 181.84 831.64 181.34 833.05 180.66 834.47 179.26 835.68 175.42 838.32 174.91 839.13 174.17 840.06 171.56 845.6 170.53 845.69 170.13 845.81 169.44 845.92 169.19 845.92 168.78 845.9 168.27 845.78 167.43 844.74 166.75 841.4 165.31 839.93 164.84 839.66 163.94 838.96 163.46 838.34 163.33 838.12 163 836.93 162.56 834.26 162.31 833.41 161.88 832.84 158 830.71 157.53 830.08 157.06 829.16 156.39 827.2 155.65 825.87 155.47 825.37 155.36 824.92 156.44 822.52 156.29 818.26 154.87 815.54 154.57 813.9 154.2 813.11 153.48 812.19 150.08 809.78 148.69 809.25 147.56 809.37 146.5 810.05 145.55 810.81 144.47 811.2 143.38 811.09 141.73 808.82 142.45 801.22 146.39 798.23 150.7 787.5 151.23 785.71 151.69 781.15 152.64 779.49 154.33 777.47 162.45 770.44 167.06 768.73 167.45 767.57 167.54 766.79 165.79 762.75 172.14 757.85 172.99 757.43 174.07 757.17 175.68 757.39 180.63 758.71 181.74 759.17 182.69 759.98 183.38 761.08 183.91 762.14 184.66 763 185.7 763.27 186.87 762.34 187.77 761.26 189.44 754.98 207.68 751.63 209.54 751.57 215.05 752.03 217.38 751.21 218.29 750.64 222.57 743.72 226.59 733.95 227.09 732.9 227.72 732.15 229.4 731.6 230.83 731.38 238.15 732.73 242.66 733.83 244.4 731.44 246.69 731.12 251.35 729.54 256.17 726.92 257.33 725.93 258.31 724.72 259.08 723.19 260.56 716.56 259.93 711.7 260.65 709.28 268.92 710.18 270.22 710.17 271.65 709.99 273.63 709.13 274.96 708.36 278.92 704.47 287.16 706.48 288.56 707.19 290.12 708.31 290.48 709.4 290.37 710.52 289.32 712.87 289.04 714.08 288.8 716.4 289.01 718.19 289.56 720.54 291.28 724.93 291.83 727.26 291.86 729.06 290.22 733.29 289.7 735.34 Z" id="CMR-798" data-name="Ouest"/>
<path d="M 165.79 762.75 167.54 766.79 167.45 767.57 167.06 768.73 162.45 770.44 154.33 777.47 152.64 779.49 151.69 781.15 151.23 785.71 150.7 787.5 146.39 798.23 142.45 801.22 138.95 802.01 135.28 806.34 134.06 807.05 132.82 807.24 131.73 807.24 130.84 807.43 130.41 808.31 130.44 809.35 131.28 813.23 132.98 817.42 136.92 822.21 138.35 824.69 140.34 829.12 140.67 831 139.59 832.25 135.99 832.95 134.22 835.07 132.87 838.23 132.06 840.82 131.74 842.29 132.46 843.68 134.77 846.11 134.57 847.28 133.88 848.32 132.82 849.32 130.92 851.82 127.57 854.92 126.5 856.54 126.05 858.14 125.89 859.3 125.87 862 124.8 864.42 122.04 866.64 119.14 870.84 118.45 874.31 117.71 875.23 116.75 875.58 115.89 875.64 114.56 875.29 112.15 875.37 111.34 876.07 109.72 878.39 106.38 884.2 105.67 887.09 105.19 893.02 105.38 894.55 106.36 897.39 105.78 899.6 98.61 910.98 98.01 913.92 97.8 916.6 99.99 917.86 107.27 919.17 108.74 920.14 109.56 921.22 110.43 923.6 110.51 924.69 109.9 925.5 108.53 926.72 107.82 927.7 106.68 929.8 105.8 930.6 105.06 931.01 104.39 931.2 104.37 931.21 103.05 929.81 101.85 930.27 98.93 933.49 99.2 933.84 98.87 934.27 94.75 941.03 93.66 943.59 93.45 944.63 93.24 945.07 92.92 945.36 91.92 945.68 90.04 946.75 86.65 949.87 86.64 949.89 86.63 949.91 84.78 948.97 83.62 945.44 84.15 941.61 86.07 939.15 86.07 938.5 83.51 939.08 82.35 940.8 81.74 942.61 78.21 945.87 75.14 945.33 74.11 945.51 74.15 943.62 74.37 942.17 74.1 940.97 72.63 939.86 71.42 939.65 69.53 939.65 67.69 939.84 66.64 940.21 65.06 939.96 59.55 936.48 50.56 932.23 49.29 931.37 49.11 928.45 51.08 922.24 51.34 919.28 48.16 916.33 45.68 912.85 43.88 908.86 41.38 894.1 41.92 891.55 44.61 886.94 45.62 884.49 43.32 887.04 41.97 887.77 41.38 886.29 41.63 885.04 42.08 883.77 42.36 882.43 42.08 880.96 41.28 880.21 39.01 879.39 38.2 877.71 37.39 876.55 36.43 875.54 35.66 875.23 35.26 876.58 38.47 881.44 39.19 883.79 38.59 885.39 37.64 885.78 36.8 885.1 36.43 883.46 31.41 879.53 31.35 880.86 31.5 881.95 31.99 882.74 32.89 883.14 31.51 885.64 31.06 885.97 30.36 885.72 28.3 884.51 27.87 884.14 27.1 883.27 25.4 882.63 23.7 881.67 22.91 879.89 21.81 876.06 17.19 869.41 16.55 865.33 14.84 867.94 15.54 870.94 17.1 874.06 19.72 883.67 20.66 884.49 21.85 885.07 22.91 885.97 23.54 888.65 21.37 889.88 8.42 890.85 7.26 890.29 7.76 889.01 9.04 887.59 10.19 886.61 8.94 886.02 7.79 886.02 6.97 886.57 6.32 888.8 5.49 889.2 4.35 889.13 3.12 888.8 1.54 887.21 1 884.73 1.51 882.88 3.12 883.14 3.66 881.8 5.87 878.12 4.45 879.17 3.14 879.19 2.15 878.31 1.64 876.64 1.89 875.27 2.67 873.85 4.47 871.75 7.48 869.71 8.07 868.87 8.1 867.59 7.69 866.35 7.48 865.12 8.07 863.85 8.77 864.62 8.4 860.52 8.6 858.45 9.8 857.54 10.23 857.35 10.23 857.35 10.23 857.35 10.33 857.34 12.1 855.63 11.71 854.14 11.4 852.71 11.07 850.5 11.98 848.92 14.81 846.83 15.44 844.96 19.51 838.53 19.51 838.52 21.05 836.37 22.01 834.32 23.54 829.8 24.19 828.41 26.2 825.34 27.24 824.24 28.39 823.71 29.61 823.5 30.7 823.01 31.45 821.67 34.22 807.6 34.11 806.49 33.25 803.99 33.14 802.62 33.8 800.12 36.03 795.74 36.71 793.42 36.66 791.23 36.3 789.23 36.15 787.2 36.79 784.96 38.34 782.94 40.29 781.08 41.86 779.06 42.32 776.56 41.26 773.8 39.31 771.76 37 769.97 34.91 767.95 33.55 765.33 34.35 763.84 36.18 762.49 38 760.27 38.46 757.67 37.55 755.86 36.43 754.22 36.24 752.11 37.34 750.41 41.01 747.96 42.4 746.2 44.17 744.51 46.39 744.82 48.65 745.63 50.48 745.41 50.86 744.06 51.08 741.11 51.64 740.4 53.3 739.55 54.61 738.15 56.82 734.95 56.82 734.94 66.38 725.02 80.59 713.6 83.24 709.91 86.19 703.68 87.61 702.08 89.03 701.3 90.25 701.18 91.56 701.29 93.19 701.19 96.09 699.45 99.22 693.41 102.27 691.51 102.89 691.28 107.04 689.75 109.15 688.7 110.79 687.1 113.21 682.53 114.75 681.24 117.82 680.62 119.08 680.61 122.78 680.59 124.07 679.57 124.17 679.26 125.71 680.59 128.32 684.61 129.65 688.91 130.7 690.95 135.75 707.07 135.22 712.38 134.59 714.59 134.7 717.89 134.11 719.67 133.35 720.86 132.29 721.21 131.1 721.02 130.17 720.6 127.98 721.22 125.54 724.25 115.42 730.54 114.06 732.21 113.59 733.56 113.9 734.26 114.04 734.51 114.11 734.63 114.22 734.73 114.38 734.89 115.09 735.51 116.14 736.95 114.97 742.13 115.34 743.56 116.23 744.48 117.37 744.95 118.46 745.57 119.57 746.72 122.16 750.23 124.54 750.92 127.24 750.38 128.29 750.82 128.87 751.45 129.7 753.28 130.65 754.49 131.93 755.81 134.97 757.37 141.1 759.22 147.56 762.24 153.43 759.12 157.39 760.5 162.59 761.61 165.79 762.75 Z" id="CMR-799" data-name="Sud-Ouest"/>
<path d="M 422.07 987.56 420.21 1000.01 420.32 1000.9 420.55 1001.74 421.03 1002.87 422.23 1004.91 425.52 1009.14 432.78 1016 435.45 1019.35 439.29 1025.99 440.94 1030.58 441.91 1035.7 442.23 1047.37 442.56 1048.66 445.67 1053.12 446.17 1053.4 448.18 1054.18 448.91 1054.72 449.21 1055.17 449.61 1055.48 452.02 1055.76 453.87 1056.62 455.32 1057.01 458.75 1057.15 460.26 1057.46 461.68 1058.49 463.7 1056.64 463.8 1056.3 464.6 1056.88 466.36 1058.74 467.02 1058.81 468.34 1058.72 472.99 1060 474.48 1060.61 474.96 1059.86 475.67 1059.24 476.32 1059.21 476.93 1061.13 477.63 1061.38 478.34 1061.04 478.66 1060.23 479.28 1059.11 480.73 1058.74 482.41 1059.01 483.68 1059.84 484.59 1059.45 485.09 1059.31 485.59 1059.43 486.5 1059.84 487.72 1058.7 489.23 1059.14 490.27 1060.45 490.04 1061.96 492.56 1062.91 493.31 1063.66 493.86 1066.26 494.63 1066.82 495.75 1067.03 497.12 1066.97 496.36 1065.91 495.12 1062.78 495 1061.96 495.95 1060.71 496.95 1060.85 497.95 1061.54 498.95 1061.96 500.91 1064.4 501.78 1064.85 503.28 1064.92 504.01 1064.82 504.32 1064.5 504.65 1063.3 505.4 1063.57 506.11 1064.4 506.38 1064.85 510.26 1067.2 511.39 1067.62 517.44 1067.62 518.95 1067.12 519.16 1065.91 518.47 1063.05 518.89 1061.65 519.96 1061.74 521.36 1062.4 522.78 1062.73 521.71 1061.06 521.82 1060.39 523.42 1059.84 527.37 1056.66 528.5 1055.98 529.87 1055.58 531 1055.12 531.98 1061.52 535.27 1132.37 535.29 1132.64 535.29 1132.67 530.95 1132.63 515.01 1132.49 497.2 1132.33 497.16 1129.77 497.59 1126.65 497.15 1125.13 496.17 1123.92 494.62 1122.52 493.01 1121.36 491.84 1120.88 491.12 1121.05 489.64 1121.67 488.67 1121.66 487.99 1121.36 486.54 1120.24 483.65 1119.68 480.49 1119.54 479.59 1119.89 478.39 1120.76 476.32 1122.75 475.33 1123.16 470.92 1123.71 468.02 1122.46 466.36 1122.07 464.93 1122.75 463.8 1123.07 462 1122.77 458.88 1121.66 457.82 1122.64 456.65 1123.07 455.33 1122.97 453.87 1122.37 452.98 1123.63 450.94 1123.18 448.57 1122.15 446.81 1121.66 445.5 1122.2 444.31 1123.16 442.87 1124.08 440.77 1124.49 426.75 1122.39 424.28 1121.48 422.63 1120.24 420.21 1120.8 418.42 1120.24 412.64 1118.36 408.66 1118.08 402.95 1119.39 401.08 1119.01 397.68 1116.94 396.4 1116.47 395.41 1116.59 393.25 1117.75 392.17 1118.03 390.12 1118.33 386.14 1119.66 384.07 1120.05 379.57 1119.86 375.39 1119.19 373.51 1119.12 367.42 1119.59 359.57 1119.1 351.66 1119.79 342.58 1119.5 339.06 1119.99 337.46 1119.81 332.14 1118.06 330.03 1116.33 329.01 1115.76 327.57 1115.6 326.26 1115.9 323.56 1116.85 295.91 1117.87 295.71 1118.81 296.19 1120.16 296.36 1121.54 295.74 1122.99 294.93 1124.09 294.28 1125.27 294.1 1126.97 294.1 1128.26 293.92 1129.53 293.51 1130.75 292.84 1131.84 261.86 1131.84 230.86 1131.85 199.87 1131.85 198.32 1131.85 175.56 1131.85 168.89 1131.85 154.94 1131.85 152.85 1131.51 146.29 1128.24 144.49 1127.82 142.63 1127.13 140.01 1125.33 137.61 1123.21 136.28 1121.57 136.06 1119.43 136.39 1117.29 136.3 1115.35 135.11 1113.61 136.42 1112.38 136.42 1111.74 137.14 1109.96 137.53 1090.69 140.67 1076.81 142.46 1072.54 142.85 1070.84 143.21 1057.7 144.27 1052.98 145.86 1048.69 147.8 1045.69 150.01 1043.01 151.29 1040.18 151.53 1036.89 147.56 1021.78 145.74 1019.34 145.74 1018.69 146.72 1018.71 147.38 1018.53 148.57 1017.98 148.57 1017.54 148.59 1017.53 150.34 1016.78 150.99 1016.32 151.63 1015.7 152.59 1014.46 153.61 1013.45 154.75 1012.47 157.4 1010.84 158.08 1010.32 158.46 1009.81 160.94 1005.39 161.05 1005.13 161.14 1004.8 161.18 1004.28 161.05 1003.23 161.06 1002.78 161.22 1002.47 162.18 1001.48 162.45 1001.11 162.66 1000.72 162.68 1000.34 162.66 1000.05 162.24 998.56 162.15 997.29 162.24 995.19 162.63 993.43 162.85 993.06 163.19 992.72 165 991.23 165.73 990.43 167.25 988.23 167.61 987.49 167.98 986.91 168.57 986.15 169.2 985.49 169.49 985.27 169.88 985.04 170.55 984.78 171.18 984.62 173.55 984.27 173.99 984.12 174.23 984.01 174.54 983.8 175.18 983.11 175.37 982.96 175.63 982.83 177.12 983.41 179.07 984.61 180.79 985.94 181.53 987.98 180.6 991.3 185.78 1008.33 186.5 1008.68 194.66 1007.38 227.28 997.77 229.97 997 236.7 995.56 238.97 995.53 240.85 995.81 241.69 996.41 242.17 997.19 242.76 999.36 243.16 1001.75 243.71 1002.28 248.05 1002.05 252.97 1001.3 255.32 1001.75 256.83 1002.35 257.73 1002.93 258.95 1002.86 262.18 1002.32 263.32 1002.36 264.66 1003.3 267.73 1007.13 268.81 1009.77 270.54 1017.52 271.67 1019.08 272.8 1019.94 273.89 1020.28 274.8 1020.88 275.33 1021.98 275.8 1024.97 276.36 1025.96 277.61 1026.96 281.99 1031.49 285.86 1030.81 288.69 1030.5 293.03 1031.32 294.73 1031.18 299.03 1030.22 315.19 1030.34 317.56 1030.11 322.58 1028.53 330.32 1024.83 331.44 1023.99 332.97 1020.14 333.78 1017.28 337.13 1011.31 338.22 1010.33 340.49 1009.65 341.74 1008.96 343.8 1007.52 348.51 1005.02 349.3 1003.96 352.64 997.55 354.54 998.45 356.32 999.81 359.95 1000.63 361.29 1001.25 363.62 1002.9 375.31 1008.52 376.82 1009.56 376.97 1010.41 376.43 1011.67 376.27 1011.93 375.92 1012.65 376.14 1013.83 377.35 1014.19 379.12 1014 384.12 1012.53 386.16 1011.26 389.71 998.04 391 995.85 394.6 992.1 405.63 983.24 411.4 977.12 412.66 976.5 413.76 976.44 414.61 976.88 415.14 977.34 415.82 978.24 418.31 983.17 420.45 985.86 422.07 987.56 Z" id="CMR-803" data-name="Sud"/>
</g>
</svg>