<?xml version="1.0"?>
<svg xmlns="http://www.w3.org/2000/svg" version="1.2" baseProfile="tiny" width="800" height="868" viewBox="0 0 800 868" stroke-linecap="round" stroke-linejoin="round">
<g id="ne_10m_admin_1_states_provinces">
<path d="M 798.71 259.55 799 260.08 784.03 273.78 771.75 290.9 748.02 307.77 737.66 318.67 734.59 326.16 733.55 332.4 730.64 337.31 721.98 340.91 714.69 341.21 703.28 337.68 697.2 337.24 686.02 341.97 668.36 360.62 647.26 376.02 638.93 384.58 631.63 394.06 620.29 413.22 621.22 415.14 624.62 420.21 627.96 423.44 643.59 433.58 664.42 436.54 673.57 441.25 674.61 452.14 668.2 459.16 658 460.53 637.99 456.55 610.75 445.38 601.54 443.9 593.48 446.44 586.08 451.46 577.53 455.75 566.45 455.96 562.18 453.7 555.43 446.62 551.93 444.92 532.9 454.65 523.69 457.95 513.83 460.1 505.33 463.05 500.07 468.79 492.94 480.1 475.4 492.61 468.11 501.71 464.87 507.76 455.17 515.2 451.22 519.93 450.45 524.37 451.99 533.99 450.56 539.09 448.04 541.14 441.14 543.33 439 545.14 436.97 556.48 443.99 560.14 455.72 561.97 468.11 567.77 475.67 569.52 485.43 573.59 494.31 579.1 498.97 585.09 497.27 594.93 489.1 602.98 478.19 609.01 468.11 612.89 455.66 612.75 443.16 616.13 437.13 623.17 444.31 633.94 435.87 650.86 419.43 662.5 409.67 667.36 396.42 673.99 396.07 673.92 387.44 671.97 363.07 669.34 361.21 668.08 358.96 665.77 353.78 656.51 352.22 652.69 349.18 649.4 338.4 644.01 328.01 641.12 325.38 642.05 321.77 644.15 314.45 650.38 308.77 656.22 304.33 662.24 299.12 667.83 295.01 669.2 284.9 666.27 283.09 654.89 280.71 652.07 278.07 647.23 277.17 645.22 275.03 638.32 273.61 625.73 278.24 622.48 280.46 620.51 284.41 615.86 285.8 613.49 287.2 610.17 294.52 584.68 300.63 571.05 304.17 565.44 334.79 526.81 339.97 524.5 342.02 523.16 344.73 520.01 349.09 515.98 349.5 514.5 349.42 513.36 341.2 506.39 355.75 488.71 359.7 488.69 365.73 489.25 367.29 489.23 368.86 489.06 370.5 488.53 371.9 487.71 373.05 486.64 376.5 481.88 374.2 477.96 356.66 467.49 391.14 433.3 400.13 420.19 402.43 415.85 402.84 414.62 408.76 408.55 432.72 390.41 438.89 388.07 453.72 369.34 477.48 329.73 479.4 297.52 480.28 293.75 484.58 284.94 496.75 284.08 498.23 283.75 499.55 283.16 501.6 281.32 512.65 265.75 514.29 261.07 516.1 247.38 535.84 226.58 552.06 212.61 557.98 195.39 559.05 193.61 560.94 191.4 565.55 187.43 576.35 180.36 580.71 176.75 583.34 174.12 597.89 149.3 598.41 147.97 596.25 141.45 606.39 130.66 607.13 129.39 607.46 128.21 607.54 125.91 607.71 124.87 608.04 123.99 608.61 123.14 610.67 120.86 634.29 105.76 635.53 104.61 642.19 102.39 653.34 101.24 653.53 101.22 655.04 103.57 656.47 103.94 657.95 104.03 659.43 103.94 660.85 103.57 671.16 100.99 686.67 100.4 701.2 101.36 708.49 103.49 708.49 103.57 711.89 112.44 717.15 119.29 724.28 124.22 733.27 127.46 740.95 135.35 744.78 137.45 748.68 136.32 757.12 141.35 760.02 146 759.58 151.88 757.72 160.58 756.3 164.24 754.38 166.75 752.68 169.5 752.24 173.86 753.66 178.11 756.3 182.22 767.75 195.57 773.4 200.68 777.18 202.05 781.07 201.81 784.53 202.49 787.27 206.62 786.17 213.51 781.07 219.36 777.07 226.21 779.59 236.19 783.05 243.83 795.88 254.38 798.71 259.55 Z" id="LBN-3022" data-name="Beqaa"/>
<path d="M 653.53 101.22 653.34 101.24 642.19 102.39 635.53 104.61 634.29 105.76 610.67 120.86 608.61 123.14 608.04 123.99 607.71 124.87 607.54 125.91 607.46 128.21 607.13 129.39 606.39 130.66 596.25 141.45 598.41 147.97 597.89 149.3 583.34 174.12 580.71 176.75 576.35 180.36 565.55 187.43 560.94 191.4 559.05 193.61 557.98 195.39 552.06 212.61 535.84 226.58 516.1 247.38 514.29 261.07 512.65 265.75 501.6 281.32 499.55 283.16 498.23 283.75 496.75 284.08 484.58 284.94 479.45 282.72 476.17 283.6 472.71 283.42 469.09 282.84 451.39 275.66 448.43 273.36 447.44 272.91 444.73 272.11 443.25 271.98 441.85 272.22 440.62 273.81 439.3 276.42 438.31 277.35 437.08 277.92 435.6 278.16 434.2 278.16 430.25 277.21 427.05 275.92 423.18 276.07 420.14 275.25 409.59 269.73 405.48 268.23 398.81 263.97 395.94 263.29 391.96 263.05 384.89 263.63 378.23 264.94 374.45 266.19 372.06 266.42 358.96 266.05 351.31 267.48 349.42 267.54 339.8 266.38 304.58 251.58 290.9 250.46 290.27 250.24 290.26 250.23 291.72 247.85 292.02 231.17 294.52 214.59 301 200.54 313.47 191.54 322.54 197.76 331.21 186.69 339.24 169.85 346.37 158.93 375.76 145.57 385 135.21 375.37 122.39 375.37 119.09 385.21 121.25 427.3 112.16 455.66 89.82 464.21 84.69 469.65 79.98 472.62 72.51 473.06 47.61 471.59 36.41 468.31 27.02 462.61 21 462.61 21 469.37 20.79 474.03 21.86 477.92 23.37 487.18 29.59 498.7 32.36 510.81 32.63 524.85 30.99 538.06 31.77 561.25 33.15 563.55 32.55 569.91 29.37 573.14 28.71 575.83 29.67 582.08 33.54 585.31 34.47 617.33 32.99 622.59 31.01 627.47 26.68 629.44 21.8 629.66 11.42 631.42 7.36 642.43 1 650.33 5.28 662.83 24.02 673.52 31.95 686.07 35.51 699.23 35.29 712.06 31.86 709.97 48.58 706.19 51.05 700.54 47.27 692.7 45.4 684.86 49.43 683.77 55.79 684.43 63.6 682.01 71.94 671.65 78.68 657.13 85.18 648.25 92.99 653.53 101.22 Z" id="LBN-3023" data-name="North Lebanon"/>
<path d="M 238.88 415.44 238.8 417.85 232.63 433.58 226.79 434.02 225.39 435.34 223.42 437.78 221.53 438.77 214.46 438.98 204.35 437.2 204.35 437.2 204.48 433.33 202.75 427.07 199.47 421.98 197.7 417.62 200.55 413.43 206.25 411.84 213.24 412.79 219.33 414.99 222.57 417.38 226.19 417.38 231.33 414.99 238.88 415.44 Z" id="LBN-3024" data-name="Beirut"/>
<path d="M 484.58 284.94 480.28 293.75 479.4 297.52 477.48 329.73 453.72 369.34 438.89 388.07 432.72 390.41 408.76 408.55 402.84 414.62 402.43 415.85 400.13 420.19 391.14 433.3 356.66 467.49 374.2 477.96 376.5 481.88 373.05 486.64 371.9 487.71 370.5 488.53 368.86 489.06 367.29 489.23 365.73 489.25 359.7 488.69 355.75 488.71 341.2 506.39 349.42 513.36 349.5 514.5 349.09 515.98 344.73 520.01 342.02 523.16 339.97 524.5 334.79 526.81 304.17 565.44 300.63 571.05 294.52 584.68 287.2 610.17 285.8 613.49 284.41 615.86 280.46 620.51 278.24 622.48 273.61 625.73 276.76 610.71 276.26 609.31 275.77 607.34 273.77 606.54 271.08 605.77 269.41 604.91 266.95 602.95 266.21 601.2 266.37 599.69 267.44 596.45 267.93 591.99 268.18 581.3 266.62 577.17 264.48 574.55 262.09 574.18 260.37 574.58 258.72 575.38 257.41 576.35 256.17 576.86 254.86 577.05 253.54 577.08 248.77 577.87 246.22 577.95 245.15 578.16 244.17 578.61 243.51 579.3 243.02 580.09 242.36 580.75 241.37 581.12 239.04 581.65 238.38 582.27 237.32 583.86 236.58 584.45 234.03 585.93 232.96 586.23 230.57 586.42 227.04 587.16 224.16 587.03 222.84 587.14 220.87 587.79 219.88 588.23 213.69 590.14 209.91 590.86 204.64 590.63 203.24 590.81 202.42 591.37 201.85 592.15 201.02 592.86 198.97 592.7 193.13 592.85 180.11 590.84 166.46 584.92 150.81 584.35 148.18 583.43 148.16 583.43 160.67 554.97 157.34 551.35 165.59 545.35 171.81 523.57 180.74 518.78 180.4 512.41 201.33 469.7 203.45 459.21 204.35 437.2 214.46 438.98 221.53 438.77 223.42 437.78 225.39 435.34 226.79 434.02 232.63 433.58 238.8 417.85 238.88 415.44 238.88 415.44 243.85 415.72 251.57 413.43 254.94 409.87 259.99 399.32 262.75 394.98 262.93 392.78 262.15 391.98 258.83 391.72 263.36 387.28 269.75 374.59 273.59 369.32 277.09 368.28 285.89 368.18 288.09 366 287.83 361.16 285.37 358.66 282.52 357.15 280.84 355.16 280.71 342.21 289.39 318.97 291.72 302.5 290.04 296.28 282.52 284.63 280.84 277.14 280.84 259.01 282.52 255.13 290.04 250.59 290.26 250.23 290.27 250.24 290.9 250.46 304.58 251.58 339.8 266.38 349.42 267.54 351.31 267.48 358.96 266.05 372.06 266.42 374.45 266.19 378.23 264.94 384.89 263.63 391.96 263.05 395.94 263.29 398.81 263.97 405.48 268.23 409.59 269.73 420.14 275.25 423.18 276.07 427.05 275.92 430.25 277.21 434.2 278.16 435.6 278.16 437.08 277.92 438.31 277.35 439.3 276.42 440.62 273.81 441.85 272.22 443.25 271.98 444.73 272.11 447.44 272.91 448.43 273.36 451.39 275.66 469.09 282.84 472.71 283.42 476.17 283.6 479.45 282.72 484.58 284.94 Z" id="LBN-3025" data-name="Mount Lebanon"/>
<path d="M 284.9 666.27 295.01 669.2 299.12 667.83 304.33 662.24 308.77 656.22 314.45 650.38 321.77 644.15 325.38 642.05 328.01 641.12 338.4 644.01 349.18 649.4 352.22 652.69 353.78 656.51 358.96 665.77 361.21 668.08 363.07 669.34 387.44 671.97 396.07 673.92 396.42 673.99 383.68 680.37 375.52 688.52 364.94 706.27 356.27 714.36 349.97 717.72 342.62 720.44 335.06 722.23 328.04 722.8 318.67 724.95 298.49 742.67 287.91 749.79 279.52 751.34 271.91 752.75 267.19 756.75 268.84 766.49 268.84 766.52 268.84 766.55 268.47 768.63 268.45 768.75 265.38 766.55 265.27 766.48 265.22 766.49 258.48 762.33 248.88 749.61 245.81 746.46 239.62 747.04 236.05 752.07 232.93 759.32 228.11 766.55 223.99 778.25 222.73 804.4 219.88 817.91 215.33 826.82 205.46 841.68 202.83 849.75 186.55 850.9 161.17 860.07 131.24 866.62 124.22 865.78 119.29 860.37 115.61 854.08 110.35 848.69 104.43 844.67 101.36 843.48 101.36 843.46 102.1 839.66 102.51 833.61 102.27 832.24 102.02 829.4 102.18 828.22 102.92 825.74 103.09 823.3 103.25 822.11 109.75 807.61 111.23 805.68 114.11 805.4 118.14 806.14 119.45 806.14 120.52 805.73 121.43 805.22 123.89 803.22 125.21 801.5 126.14 799.45 126.55 794.07 127.04 792.71 129.27 792.26 134.2 792.23 135.68 791.97 137.32 791.35 142.5 788.65 143.24 787.87 142.5 785.98 141.35 785.08 139.96 784.35 138.56 783.9 137.24 783.31 136.25 782.4 136.42 781.21 137.41 779.91 140.37 778.36 142.5 777.57 145.96 776.55 148.51 774.91 151.47 772.28 166.13 756.69 168.6 754.67 170.33 752.07 171.31 749.29 171.23 740.66 170.82 738.52 171.23 735.56 176.33 729.6 168.11 730.91 165.72 732.41 163.58 732.71 160.13 732.57 146.12 730.38 135.84 727.58 127.54 720.18 129.92 711.8 128.61 708.4 127.29 707.33 125.89 706.49 120.19 703.79 118.79 703.6 117.4 703.76 111.48 703.55 110 703.33 108.52 702.81 107.12 702.12 105.97 701.37 105.47 700.83 106.54 700.28 111.56 700.09 113.53 699.31 115.09 697.76 116.82 694.46 117.48 692.58 117.73 691.06 117.64 690.36 117.81 688.11 118.14 686.88 119.53 685.56 122.08 684.33 127.46 683.07 130.17 683.3 132.06 684.08 132.88 685.26 133.87 687.61 134.53 688.69 135.68 689.66 138.15 691.29 139.05 692.2 139.63 693.13 140.86 694.69 142.01 695.28 143.16 694.99 144.07 693.62 143.41 689.1 144.23 686.52 153.77 671.97 154.21 670.75 154.37 669.43 154.26 668.32 153.44 667.46 152.29 667.34 149.49 667.99 148.42 667.72 148.18 666.88 148.92 665.2 153.22 659.36 154.43 657.22 155.77 655.61 157.25 654.7 163.25 654.26 166.62 653.74 168.02 653.14 169.26 652.07 169.75 649.52 169.17 648.04 167.94 647.05 166.62 646.51 165.8 645.82 170.9 643.27 193.87 638.86 197.9 639.6 201.27 639.56 202.92 639.27 205.96 638.42 211.88 635.61 213.36 635.13 215.03 634.83 218.07 634.79 219.47 634.58 220.95 634.09 222.27 633.18 223.25 632.2 224.41 630.88 224.49 630.77 225.89 630.22 227.04 630.22 228.02 630.55 228.43 630.74 228.6 630.85 228.6 630.88 228.68 630.96 228.27 635.46 225.72 648.59 225.64 650.01 227.37 684.41 226.3 691.54 227.94 695.86 236.16 711.19 242.08 697.05 244.74 693.49 246.96 692.95 248.03 692.55 249.84 691.65 250.83 691.35 251.98 691.31 253.13 691.54 254.12 691.95 255.43 692.36 257.08 692.53 260.12 692.14 261.85 691.29 263.16 689.92 263.74 688.85 266.04 683.18 275.2 675.88 278.32 674.82 280.46 673.18 284.9 666.27 Z" id="LBN-3059" data-name="An Nabatiyah"/>
<path d="M 273.61 625.73 275.03 638.32 277.17 645.22 278.07 647.23 280.71 652.07 283.09 654.89 284.9 666.27 280.46 673.18 278.32 674.82 275.2 675.88 266.04 683.18 263.74 688.85 263.16 689.92 261.85 691.29 260.12 692.14 257.08 692.53 255.43 692.36 254.12 691.95 253.13 691.54 251.98 691.31 250.83 691.35 249.84 691.65 248.03 692.55 246.96 692.95 244.74 693.49 242.08 697.05 236.16 711.19 227.94 695.86 226.3 691.54 227.37 684.41 225.64 650.01 225.72 648.59 228.27 635.46 228.68 630.96 228.6 630.88 228.6 630.85 228.43 630.74 228.02 630.55 227.04 630.22 225.89 630.22 224.49 630.77 224.41 630.88 223.25 632.2 222.27 633.18 220.95 634.09 219.47 634.58 218.07 634.79 215.03 634.83 213.36 635.13 211.88 635.61 205.96 638.42 202.92 639.27 201.27 639.56 197.9 639.6 193.87 638.86 170.9 643.27 165.8 645.82 166.62 646.51 167.94 647.05 169.17 648.04 169.75 649.52 169.26 652.07 168.02 653.14 166.62 653.74 163.25 654.26 157.25 654.7 155.77 655.61 154.43 657.22 153.22 659.36 148.92 665.2 148.18 666.88 148.42 667.72 149.49 667.99 152.29 667.34 153.44 667.46 154.26 668.32 154.37 669.43 154.21 670.75 153.77 671.97 144.23 686.52 143.41 689.1 144.07 693.62 143.16 694.99 142.01 695.28 140.86 694.69 139.63 693.13 139.05 692.2 138.15 691.29 135.68 689.66 134.53 688.69 133.87 687.61 132.88 685.26 132.06 684.08 130.17 683.3 127.46 683.07 122.08 684.33 119.53 685.56 118.14 686.88 117.81 688.11 117.64 690.36 117.73 691.06 117.48 692.58 116.82 694.46 115.09 697.76 113.53 699.31 111.56 700.09 106.54 700.28 105.47 700.83 105.97 701.37 107.12 702.12 108.52 702.81 110 703.33 111.48 703.55 117.4 703.76 118.79 703.6 120.19 703.79 125.89 706.49 127.29 707.33 128.61 708.4 129.92 711.8 127.54 720.18 135.84 727.58 146.12 730.38 160.13 732.57 163.58 732.71 165.72 732.41 168.11 730.91 176.33 729.6 171.23 735.56 170.82 738.52 171.23 740.66 171.31 749.29 170.33 752.07 168.6 754.67 166.13 756.69 151.47 772.28 148.51 774.91 145.96 776.55 142.5 777.57 140.37 778.36 137.41 779.91 136.42 781.21 136.25 782.4 137.24 783.31 138.56 783.9 139.96 784.35 141.35 785.08 142.5 785.98 143.24 787.87 142.5 788.65 137.32 791.35 135.68 791.97 134.2 792.23 129.27 792.26 127.04 792.71 126.55 794.07 126.14 799.45 125.21 801.5 123.89 803.22 121.43 805.22 120.52 805.73 119.45 806.14 118.14 806.14 114.11 805.4 111.23 805.68 109.75 807.61 103.25 822.11 103.09 823.3 102.92 825.74 102.18 828.22 102.02 829.4 102.27 832.24 102.51 833.61 102.1 839.66 101.36 843.46 101.36 843.48 98.62 842.43 92.15 842.43 72.53 847.87 68.74 847.64 61.23 846.01 58.05 845.82 54.6 846.91 48.73 850.74 46.43 851.56 3.98 848.89 3.98 848.02 4.63 845.69 2.21 845.99 1.43 845.35 1.43 844.01 1 842.39 4.28 836.45 9.03 830.48 14.73 825.81 26.47 821.67 30.27 816.38 33.55 810.34 37.17 805.85 33.98 802.25 37.17 801.75 38.9 802.44 40.8 805.85 56.77 776.86 59.1 761.04 48.05 747.58 59.4 740.48 67.39 730.61 77.4 707.43 78.7 700.44 79.04 686.15 81.03 678.77 90.7 666.64 94.06 660.08 91.91 653.43 119.49 635.71 133.34 623.54 139.3 607.85 140.42 601.01 148.16 583.43 148.18 583.43 150.81 584.35 166.46 584.92 180.11 590.84 193.13 592.85 198.97 592.7 201.02 592.86 201.85 592.15 202.42 591.37 203.24 590.81 204.64 590.63 209.91 590.86 213.69 590.14 219.88 588.23 220.87 587.79 222.84 587.14 224.16 587.03 227.04 587.16 230.57 586.42 232.96 586.23 234.03 585.93 236.58 584.45 237.32 583.86 238.38 582.27 239.04 581.65 241.37 581.12 242.36 580.75 243.02 580.09 243.51 579.3 244.17 578.61 245.15 578.16 246.22 577.95 248.77 577.87 253.54 577.08 254.86 577.05 256.17 576.86 257.41 576.35 258.72 575.38 260.37 574.58 262.09 574.18 264.48 574.55 266.62 577.17 268.18 581.3 267.93 591.99 267.44 596.45 266.37 599.69 266.21 601.2 266.95 602.95 269.41 604.91 271.08 605.77 273.77 606.54 275.77 607.34 276.26 609.31 276.76 610.71 273.61 625.73 Z" id="LBN-3060" data-name="South Lebanon"/>
</g>
</svg>