<?xml version="1.0"?>
<svg xmlns="http://www.w3.org/2000/svg" version="1.2" baseProfile="tiny" width="800" height="734" viewBox="0 0 800 734" stroke-linecap="round" stroke-linejoin="round">
<g id="ne_10m_admin_1_states_provinces">
<path d="M 2.99 729.9 2.11 728.27 1.93 726.66 2.51 725.26 3.94 724.26 5.78 727.41 5.29 730.81 3.36 732.61 1 730.93 1.7 730.71 2.3 730.18 2.99 729.9 Z" id="GNQ-1467" data-name="Annobón"/>
<path d="M 684.83 259.94 688.43 264.27 697.8 271.75 698.55 274.04 698.32 277.27 697.54 280.6 696.63 283.15 693.04 288.49 692.47 290.49 692.75 292.33 694.47 295 695.01 296.55 694.26 300.46 692.66 303.33 692.85 305.62 697.45 307.85 701.77 308.98 705.59 309.41 709.29 309.05 713.28 307.79 717.88 305.49 719.51 305.14 720.83 305.25 723.25 306.03 724.63 306.23 725.99 305.61 727.11 304.56 728.06 304.28 729.9 307.61 731 307.19 732.7 305.25 733.73 304.81 734.73 304.15 735.72 303.8 736.65 304.25 736.93 304.89 737.17 306.37 737.62 306.81 739.83 307.47 746.91 308.65 747.6 308.56 748.14 308.24 749.46 307.6 749.46 308.42 748.59 309.93 747.21 310.65 742.25 312.56 740.68 313.69 734.38 320.5 733.3 322.15 731.25 326.07 725.49 333.82 722.85 338.18 721.05 342.57 720.82 344.09 721.12 346 722.18 348.2 731.23 358.24 732.93 359.42 738.72 362.06 740.33 364 741.74 366.84 744.03 375.97 745.28 378.38 746.39 379.14 747.54 379.72 748.51 380.49 749.31 381.48 749.42 382.98 749.29 384.22 747.34 387.03 747.09 387.4 747.07 387.43 715.51 387.33 673.78 387.18 670.57 387.17 632.03 387.05 616.81 387 612.76 387.52 612.76 387.49 612.72 387.21 613.64 384.33 614.95 381.59 615.73 380.48 616.51 379.62 617.25 379.01 620.49 377.23 623.87 375.92 624.51 375.56 626.2 374.91 627.5 374.74 628.77 374.87 631.63 375.67 633.34 376 635.48 376.1 638.14 375.88 643.35 374.82 645.54 374.07 647.68 372.99 649.52 371.55 650.75 369.77 651.23 368.02 651.1 366.24 650.56 364.59 649.8 363.31 648.59 362.61 647.75 362.73 646.88 363.5 645.91 364.55 644.72 365.07 643.27 364.9 641.75 364.09 641.02 363.05 640.3 359.54 639.83 358.41 639.05 357.48 638.62 356.32 638.51 354.41 638.55 352.8 638.29 351.48 637.52 350.65 635.95 350.6 634.68 350.19 633.53 349.17 632.73 346.43 632.34 344.25 631.96 335.13 631.42 333.6 628.64 332.11 627.41 330.98 626.39 328.78 626.16 326.9 626.39 325.24 627.84 322.09 628.84 320.33 628.71 319.68 628.23 318.96 625.77 316.87 621.64 314.96 612.72 312.35 602.92 309.7 601.93 309.1 601.39 308.25 601.26 307.04 602.02 305.49 603.27 304.4 605.61 303.59 608.31 303.02 610.15 301.8 612.72 298.15 621.32 282.94 626.31 276.31 627.5 273.54 628.25 258.49 628.77 255.97 629.6 253.77 631.22 251.09 632.5 249.62 637.82 244.94 638.84 243.56 639.55 241.81 640.11 239.37 640.26 232.7 639.19 224.99 669.82 224.99 670.03 231.93 671.22 236.44 673.36 242.38 673.66 244.38 673.44 246.09 672.3 248.86 671.76 250.94 671.41 254.18 671.67 255.96 672.3 257.2 672.56 257.33 674.11 258.73 675.64 258.94 681.55 258.43 684.08 259.03 684.83 259.94 Z" id="GNQ-1468" data-name="Centro Sur"/>
<path d="M 798.39 285.36 798.34 285.35 783.85 283.42 777.8 284.33 776.21 285.07 774.53 285.33 765.64 284.38 762.57 284.53 759.77 285.13 757.03 285.44 754.72 285.31 752.38 284.12 751.21 282.9 750.5 281.2 746.4 255.12 745.8 253.24 744.85 252.13 743.64 251.64 741.74 252.39 740.35 253.46 738.15 255.81 736.78 256.91 734.88 257.6 732.61 257.82 729.06 257.16 726.62 256.39 710.63 249.59 706.8 248.8 705.44 248.7 700.4 250.67 684.83 259.94 684.08 259.03 681.55 258.43 675.64 258.94 674.11 258.73 672.56 257.33 672.3 257.2 671.67 255.96 671.41 254.18 671.76 250.94 672.3 248.86 673.44 246.09 673.66 244.38 673.36 242.38 671.22 236.44 670.03 231.93 669.82 224.99 671.91 224.99 713.6 224.99 755.32 224.98 797.01 224.97 798.08 230.32 798.14 241.51 798.35 278.04 798.39 285.36 Z" id="GNQ-1469" data-name="Kié-Ntem"/>
<path d="M 639.19 224.99 640.26 232.7 640.11 239.37 639.55 241.81 638.84 243.56 637.82 244.94 632.5 249.62 631.22 251.09 629.6 253.77 628.77 255.97 628.25 258.49 627.5 273.54 626.31 276.31 621.32 282.94 612.72 298.15 610.15 301.8 608.31 303.02 605.61 303.59 603.27 304.4 602.02 305.49 601.26 307.04 601.39 308.25 601.93 309.1 602.92 309.7 612.72 312.35 621.64 314.96 625.77 316.87 628.23 318.96 628.71 319.68 628.84 320.33 627.84 322.09 626.39 325.24 626.16 326.9 626.39 328.78 627.41 330.98 628.64 332.11 631.42 333.6 631.96 335.13 632.34 344.25 632.73 346.43 633.53 349.17 634.68 350.19 635.95 350.6 637.52 350.65 638.29 351.48 638.55 352.8 638.51 354.41 638.62 356.32 639.05 357.48 639.83 358.41 640.3 359.54 641.02 363.05 641.75 364.09 643.27 364.9 644.72 365.07 645.91 364.55 646.88 363.5 647.75 362.73 648.59 362.61 649.8 363.31 650.56 364.59 651.1 366.24 651.23 368.02 650.75 369.77 649.52 371.55 647.68 372.99 645.54 374.07 643.35 374.82 638.14 375.88 635.48 376.1 633.34 376 631.63 375.67 628.77 374.87 627.5 374.74 626.2 374.91 624.51 375.56 623.87 375.92 620.49 377.23 617.25 379.01 616.51 379.62 615.73 380.48 614.95 381.59 613.64 384.33 612.72 387.21 612.76 387.49 612.76 387.52 610.03 387.88 609.29 389.91 609.28 394.04 608.77 395.87 607.13 397.47 604.91 397.96 602.43 397.59 599.97 396.54 597.66 394.75 594.05 390.61 591.74 388.99 589.58 388.19 585.44 387.72 585.44 387.71 585.65 386.98 585.46 384.59 584.39 381.03 584.7 379.38 585.78 378.51 587.59 377.88 589.67 377.5 591.45 377.39 590.61 376.65 588.91 376.07 586.89 375.7 585.18 375.56 583.75 375.12 580.26 373.15 578.57 372.72 572.86 373.95 571.37 373.57 570.8 372.18 571.41 370.67 572.5 369.46 573.37 368.91 570.78 369.99 567.6 372.79 564.9 375.89 563.77 377.9 562.82 378.9 558.22 380.03 554.76 381.5 553.51 379.85 551.33 373.16 550.2 371.4 548.69 370.05 546.46 368.91 543.91 368.3 542.1 368.72 540.47 369.46 536.03 370.3 531.91 372.26 529.8 372.72 528.58 371.95 525.31 368.29 523.52 367 523.79 365.6 523.44 364.5 521.63 362.15 523.81 361.26 525.45 359.62 526.63 357.58 528.89 350.45 530.12 347.92 531.71 346.84 533.84 345.7 535.79 343 537.29 339.85 537.99 337.32 537.63 331.98 538.17 329.7 542.01 328.02 547.5 323.04 549.92 319.9 550.36 319.67 550.67 318.92 551.31 318.24 551.96 317.31 552.26 315.82 553.9 311.84 556.14 307.72 559 305.51 560.82 306.11 562.57 307.75 565.2 308.68 568.92 308.19 571.55 306.95 573.98 305.37 577.09 303.84 574.27 303.98 568.58 307.84 566.11 307.25 560.06 301.51 557.96 297.65 559.39 293.88 567.58 285.76 567.95 285.24 568.77 283.68 569.46 282.9 572.32 280.99 573.41 279.89 574.01 278.91 575.2 276.14 575.79 275.29 576.43 274.7 576.88 273.77 577.4 270.4 578.04 269.47 578.7 268.79 578.99 268.06 579.76 266.75 584.7 261.87 586.19 257.15 585.64 251.37 581.77 239.98 580.45 237.37 580.01 236.18 579.87 234.65 580.17 233.18 580.82 232.25 581.47 231.55 581.77 230.8 582.93 213.49 582.52 210.35 581.33 207.92 580.22 204.8 582.01 202.38 584.77 200.44 586.37 202.79 586.48 205.4 586.04 208.28 586.34 211.16 588.13 213.37 591.35 216.22 594.88 218.63 597.39 219.56 599.81 220.13 608.63 224.53 611.45 225 630.21 225 639.19 224.99 Z" id="GNQ-1470" data-name="Litoral"/>
<path d="M 798.39 285.36 798.57 314.56 798.78 351.08 799 387.6 757.25 387.46 747.07 387.43 747.09 387.4 747.34 387.03 749.29 384.22 749.42 382.98 749.31 381.48 748.51 380.49 747.54 379.72 746.39 379.14 745.28 378.38 744.03 375.97 741.74 366.84 740.33 364 738.72 362.06 732.93 359.42 731.23 358.24 722.18 348.2 721.12 346 720.82 344.09 721.05 342.57 722.85 338.18 725.49 333.82 731.25 326.07 733.3 322.15 734.38 320.5 740.68 313.69 742.25 312.56 747.21 310.65 748.59 309.93 749.46 308.42 749.46 307.6 748.14 308.24 747.6 308.56 746.91 308.65 739.83 307.47 737.62 306.81 737.17 306.37 736.93 304.89 736.65 304.25 735.72 303.8 734.73 304.15 733.73 304.81 732.7 305.25 731 307.19 729.9 307.61 728.06 304.28 727.11 304.56 725.99 305.61 724.63 306.23 723.25 306.03 720.83 305.25 719.51 305.14 717.88 305.49 713.28 307.79 709.29 309.05 705.59 309.41 701.77 308.98 697.45 307.85 692.85 305.62 692.66 303.33 694.26 300.46 695.01 296.55 694.47 295 692.75 292.33 692.47 290.49 693.04 288.49 696.63 283.15 697.54 280.6 698.32 277.27 698.55 274.04 697.8 271.75 688.43 264.27 684.83 259.94 700.4 250.67 705.44 248.7 706.8 248.8 710.63 249.59 726.62 256.39 729.06 257.16 732.61 257.82 734.88 257.6 736.78 256.91 738.15 255.81 740.35 253.46 741.74 252.39 743.64 251.64 744.85 252.13 745.8 253.24 746.4 255.12 750.5 281.2 751.21 282.9 752.38 284.12 754.72 285.31 757.03 285.44 759.77 285.13 762.57 284.53 765.64 284.38 774.53 285.33 776.21 285.07 777.8 284.33 783.85 283.42 798.34 285.35 798.39 285.36 Z" id="GNQ-1471" data-name="Wele-Nzás"/>
<path d="M 454.28 36.87 452.07 31.42 451.7 30.81 451.29 30.28 449.99 29.42 448.17 28.74 444.39 27.98 440.86 27.81 439.8 27.94 438.61 27.97 436.95 27.64 435.04 26.89 428.94 22.59 427.1 21.55 423.34 20.31 421.29 20.42 421.28 20.42 421.44 18.3 423.25 13.39 426.91 7.43 431.82 2.6 437.54 1 437.23 1.53 436.66 2.98 441 3.89 442.9 3.99 444.27 2.98 447.42 3.94 451.93 4.62 456.66 4.5 460.54 2.98 460.96 3.59 461.39 3.82 462.53 4.02 466.23 8.6 467.61 10.98 468.17 13.93 467.95 16.6 467.38 19.04 466.5 21.21 465.38 23.05 460.34 27.53 458.91 31.39 454.28 36.87 Z" id="GNQ-1478" data-name="Bioko Norte"/>
<path d="M 454.28 36.87 454.28 36.87 453.88 37.33 451.09 44.82 448.69 46.73 448.03 50 447.64 50.75 447.33 51.22 443.32 53.6 442.83 55.85 442.77 62.27 441.89 64.55 435.63 71.76 430.85 79.6 429.56 81.17 428.22 80.27 425.02 78.9 424.3 78 423.41 78.38 421.39 77.65 417.52 75.5 416.51 75.84 413.31 76.56 411.91 76.53 410.41 75.88 407.46 73.99 405.65 73.59 402.65 73.49 399.34 72.72 396.66 70.63 395.55 66.53 394.91 65.02 393.64 63.2 392.73 61.38 393.19 59.83 393.73 58.55 394.6 52.65 395.54 49.94 397.36 46.43 399.96 44.12 403.26 45.03 405.03 44.02 407.38 44.13 412.35 45.03 414.7 44.09 415.47 41.86 415.07 39.29 413.81 37.33 415.55 36.4 417.74 34.83 419.67 32.96 420.48 31.19 421.28 20.42 421.29 20.42 423.34 20.31 427.1 21.55 428.94 22.59 435.04 26.89 436.95 27.64 438.61 27.97 439.8 27.94 440.86 27.81 444.39 27.98 448.17 28.74 449.99 29.42 451.29 30.28 451.7 30.81 452.07 31.42 454.28 36.87 Z" id="GNQ-1479" data-name="Bioko Sur"/>
</g>
</svg>