<?xml version="1.0"?>
<svg xmlns="http://www.w3.org/2000/svg" version="1.2" baseProfile="tiny" width="800" height="1047" viewBox="0 0 800 1047" stroke-linecap="round" stroke-linejoin="round">
<g id="ne_10m_admin_1_states_provinces">
<path d="M 703.48 280.12 694.62 271.98 685.46 270.46 682.41 275.04 678.59 280.38 674 265.11 666.37 261.3 648.81 260.53 636.59 252.9 628.2 246.79 622.85 236.86 620.57 218.54 619.04 185.71 609.81 186.26 609.81 186.26 609.81 186.19 609.81 177.61 609.81 169.03 609.81 160.45 609.81 151.88 609.81 143.3 609.81 134.72 609.81 126.14 609.81 117.55 609.81 108.98 609.81 100.39 609.81 91.82 609.81 83.24 609.81 74.66 609.81 66.08 609.81 57.5 609.81 57.5 612.69 57.33 622.73 55.4 632.75 53.59 635.69 52.32 636.85 50.72 637.63 50.15 638.58 50.52 639.3 50.93 640.09 50.97 645 50.52 646.46 50.2 647.67 49.72 651.76 47.37 653.19 47.11 654.29 46.45 656.02 43.18 657.11 41.89 658.5 41.4 660.24 41.27 663.67 41.37 664.09 41.24 665.31 40.55 666.02 40.33 666.89 40.3 669.15 40.81 675.91 41.52 679.45 41.02 681.7 39.24 682.3 39.32 683.66 38.44 684.54 38.2 684.84 38.05 685.8 37.36 686.39 37.16 686.95 37.2 687.47 37.39 687.84 37.58 687.96 37.68 694.92 37.48 696.34 37.68 700.85 35.3 702.35 33.92 703.17 33.51 705.89 33.56 706.58 33.24 707.17 32.8 708.02 32.38 711.29 31.53 712.87 30.52 719.23 25.45 722.73 24.75 724.17 23.79 726.72 20.95 729.05 18.89 729.95 17.64 730.33 16 730.43 14.27 730.74 12.54 731.23 10.89 731.93 9.43 733.66 7.2 734.78 6.2 735.84 5.78 736.78 5.67 738.71 4.74 739.07 4.23 739.4 3.86 739.76 3.65 740.22 3.68 740.89 4.11 741.31 4.17 742.95 3.73 746.15 2.37 748.95 1.79 749.75 1.25 751.73 1 757.01 4.53 764.87 5.34 769.4 8.94 770.89 9.43 776.91 9.43 778.4 9.82 780.99 11.21 782.41 11.52 784.18 11.56 786.02 11.81 787.57 12.43 789.51 12.91 788.34 15.39 787.5 18.55 786.2 20.88 786.68 24.48 786.08 26.71 784.68 27.97 783.39 30.1 781 32.33 778.47 35.59 776.68 37.45 776.39 37.94 776.47 38.79 776.83 39.96 776.91 40.57 776.7 42.32 776.2 43.98 773.74 49.25 773.37 50.45 773.22 55.45 772.7 58.67 773.72 62.17 777.16 64.25 780.48 64.4 781.63 65.96 779.71 67.61 778.02 71.3 777.19 72.48 776.61 73.56 776.19 75.23 775.95 77.03 776.67 87.63 777.71 101.2 779.42 107.18 778.94 108 777.19 108.29 775.36 108.85 774.94 110.22 775.34 113.55 774.96 115.1 774.21 116.06 773.03 116.54 771.41 116.68 769.89 117.18 768.56 118.35 767.93 119.73 768.56 120.85 770.07 121.1 781.7 118.81 782.5 118.91 783.34 119.14 783.99 119.12 784.25 118.53 783.92 117.67 783.21 117.21 782.49 116.87 782.16 116.42 782.11 114.67 781.9 113.08 781.42 111.52 780.61 109.9 781.8 110.96 782.99 111.79 784.01 112.79 785.33 113.55 785.99 114 786.85 114.41 788.58 115.66 789.49 116.22 790.92 116.52 792.04 116.78 792.8 116.63 793.57 116.19 794.43 115.94 796.01 116.09 797.33 116.3 797.93 118 799 118.71 798.54 120.06 797.51 122.65 796.56 122.98 796.18 123.3 795.6 123.75 795.87 124.8 795.21 124.8 793.84 124.24 792.82 124.29 791.6 123.97 790.13 124.43 787.99 124.02 787.42 122.57 787.24 121.68 786.75 120.78 785.56 120.38 774.04 121.77 768.47 123.71 761.61 127.84 760.28 130.3 759.65 134.97 760.5 139.37 758.29 145.14 758.66 148.62 759.55 151.03 759.65 151.98 759.5 152.82 758.82 153.94 757.82 159.24 758.09 160.09 757.21 161.69 756.71 163.1 756.01 166.91 754.99 169.69 754.43 170.53 754.84 172.65 754.71 173.43 754.31 174.86 753.76 179.51 752.36 181.55 752.31 183.88 752.88 187.91 754.7 192.8 754.97 194.4 754.74 195.84 754.2 197.19 749.47 204.85 747.94 206.05 744.73 207.41 743.45 208.24 742.48 209.43 740.21 213.09 739.76 214.23 740.37 219.11 740.32 220.79 739.19 223.64 736.96 226.33 728.59 232.89 726.24 235.29 724.38 237.76 723.03 240.13 721.96 243.25 720.57 249.57 719.38 252.21 715.74 256.63 715.21 258.21 715.44 262.84 715.21 264.21 713.98 267.05 712.97 268.41 711.8 268.99 710.37 269.49 709.6 270.73 709.06 272.26 708.38 273.69 703.48 280.12 Z" id="SOM-1" data-name="Bari"/>
<path d="M 278.26 540.92 284.62 579.68 289.96 605.64 293.78 621.68 291.49 633.89 292.25 666.72 283.09 668.25 279.27 666.72 264 667.49 254.08 661.38 256.37 657.56 256.37 643.82 254.83 640.76 246.44 622.44 228.88 617.09 223.53 617.09 216.67 620.15 213.61 622.44 208.26 632.36 200.63 640.76 187.65 643.82 165.51 636.18 167.03 622.44 163.98 616.33 147.95 588.84 146.44 585.93 148.68 583.41 149.84 580.95 151.19 575.61 152.22 573.05 152.72 572.23 153.32 571.48 159.05 566.78 165.45 561.53 174.12 557.42 182.84 553.29 191.42 549.23 196.7 546.73 205.25 544.76 211.05 543.43 218.59 541.69 220.88 541.17 227.53 538.81 230.33 538.15 234.92 538.41 238.88 538.64 242.84 538.87 246.8 539.1 250.75 539.33 254.71 539.56 258.67 539.79 262.63 540.02 266.58 540.25 270.53 540.47 274.5 540.7 278.26 540.92 Z" id="SOM-2312" data-name="Bakool"/>
<path d="M 283.09 668.25 285.38 683.52 281.56 701.84 283.09 706.42 280.03 727.04 282.33 746.89 223.53 772.85 200.63 782.01 180.78 791.94 154.81 804.92 148.71 800.34 119.7 772.85 110.54 767.51 118.93 720.17 121.22 707.19 125.81 681.99 151 684.28 163.98 682.76 163.98 669.78 165.51 636.18 187.65 643.82 200.63 640.76 208.26 632.36 213.61 622.44 216.67 620.15 223.53 617.09 228.88 617.09 246.44 622.44 254.83 640.76 256.37 643.82 256.37 657.56 254.08 661.38 264 667.49 279.27 666.72 283.09 668.25 Z" id="SOM-2313" data-name="Bay"/>
<path d="M 165.51 636.18 163.98 669.78 163.98 682.76 151 684.28 125.81 681.99 121.22 707.19 118.93 720.17 110.54 767.51 52.51 768.27 35.71 820.19 1.24 822.45 1.24 821.16 1.24 811.62 1.24 802.08 1.24 792.53 1.24 782.99 1.24 773.45 1.24 763.9 1.24 755.77 1.24 747.65 1.24 739.52 1.24 731.39 1.24 725.73 1.13 715.45 1.04 705.61 1 701.52 2.1 699.4 4.71 696.82 10.98 690.61 17.26 684.4 23.55 678.19 29.81 671.98 33.76 666.33 37.71 660.68 41.66 655.03 45.61 649.38 52.02 640.22 58.42 631.05 64.82 621.89 71.22 612.72 72.24 611.22 73.29 610.37 73.69 609.42 73.63 607.08 74.15 605.59 75.51 604.4 80.9 601.09 85.21 597.65 87.85 596.33 90.33 595.71 96.93 595.64 102.69 595.58 111.68 594.05 123.38 592.06 134.87 590.1 140.29 589.18 143.49 587.9 146.34 586.03 146.44 585.93 147.95 588.84 163.98 616.33 167.03 622.44 165.51 636.18 Z" id="SOM-2314" data-name="Gedo"/>
<path d="M 154.81 804.92 176.96 837.75 183.06 846.15 195.93 864.8 196.15 865.06 192.05 869.01 178.14 884.7 170.46 892.24 170.46 892.24 170.05 892.24 135.73 892.72 128.1 861.42 112.83 815.61 95.26 816.37 35.71 820.19 52.51 768.27 110.54 767.51 119.7 772.85 148.71 800.34 154.81 804.92 Z" id="SOM-2315" data-name="Jubbada Dhexe"/>
<path d="M 314.39 668.25 318.21 684.28 335.01 708.72 334.24 749.95 338.83 752.24 329.39 764.57 329.38 764.65 329.37 764.66 326.78 766.15 325.14 766.5 324.3 766.77 309.16 773.89 296.19 782.8 295.61 783.51 294.71 783.87 284.33 791.35 274.7 797.35 258.11 810.26 249.6 818.99 247.85 819.75 244.75 821.65 243.81 822.51 243.55 823.13 243.36 823.91 243.24 825.41 242.93 825.72 241.48 826.14 241.16 826.42 240.62 827.18 235.21 832.59 233.66 833.61 232.01 834.04 231.08 834.79 227.55 839.29 218.94 843.9 216.05 846.02 212.41 851.11 211.11 851.85 210.06 852.21 206.66 854.93 196.15 865.06 195.93 864.8 183.06 846.15 176.96 837.75 154.81 804.92 180.78 791.94 200.63 782.01 223.53 772.85 282.33 746.89 280.03 727.04 283.09 706.42 281.56 701.84 285.38 683.52 283.09 668.25 292.25 666.72 314.39 668.25 Z" id="SOM-2316" data-name="Shabeellaha Hoose"/>
<path d="M 329.38 764.65 329.39 764.57 338.83 752.24 344.17 750.71 355.12 749.71 355.29 749.71 329.38 764.65 Z" id="SOM-2407" data-name="Banaadir"/>
<path d="M 464.79 651.5 464.48 651.31 415.18 619.38 415.94 593.42 396.85 578.15 393.8 554.49 401.44 539.21 402.96 528.53 388.46 532.34 363.26 526.24 360.21 520.13 348.64 493.36 355.94 485.38 364.13 476.42 372.32 467.48 380.51 458.53 385.16 453.76 389.82 448.99 394.47 444.21 399.14 439.44 403.8 434.67 408.46 429.9 413.11 425.12 417.77 420.35 421.05 417.18 449.89 423.75 478.73 430.33 507.56 436.91 488.48 477.37 497.64 491.11 508.32 520.13 499.93 573.57 525.49 584.78 525.93 584.92 525.93 584.92 505.88 606.41 499.11 615.84 487.38 627.87 477.54 638.12 464.79 651.5 Z" id="SOM-2408" data-name="Galguduud"/>
<path d="M 415.18 619.38 391.51 643.82 391.42 644.08 387.82 647.68 387.69 647.64 380.82 668.25 329.66 672.07 320.5 671.3 314.39 668.25 292.25 666.72 291.49 633.89 293.78 621.68 289.96 605.64 284.62 579.68 278.26 540.92 278.45 540.93 282.41 541.16 286.36 541.38 290.33 541.61 294.28 541.84 298.24 542.07 302.38 542.31 304.58 541.39 310.63 534.87 310.64 534.87 314.99 530.12 323.18 521.17 331.37 512.22 339.56 503.27 347.75 494.33 348.64 493.36 360.21 520.13 363.26 526.24 388.46 532.34 402.96 528.53 401.44 539.21 393.8 554.49 396.85 578.15 415.94 593.42 415.18 619.38 Z" id="SOM-2409" data-name="Hiiraan"/>
<path d="M 464.79 651.5 464.79 651.5 462.74 653.66 449.1 669.58 438.85 678.69 433.18 685.51 422.65 694.29 417.03 700.05 412.24 703.47 412.09 704.12 411.73 704.89 411.3 705.53 410.94 705.79 409.65 706.28 408.89 707.49 408.29 709.04 407.5 710.53 406.43 711.32 403.46 712.71 396.27 720.25 395.39 721.38 394.14 723.73 393.42 724.7 390.21 726.73 389.04 728.94 387.46 730.23 372.14 740.11 363.41 745.03 355.29 749.71 355.29 749.71 355.12 749.71 344.17 750.71 338.83 752.24 334.24 749.95 335.01 708.72 318.21 684.28 314.39 668.25 320.5 671.3 329.66 672.07 380.82 668.25 387.69 647.64 387.82 647.68 391.42 644.08 391.51 643.82 415.18 619.38 464.48 651.31 464.79 651.5 Z" id="SOM-2410" data-name="Shabeellaha Dhexe"/>
<path d="M 652.63 338.41 663.38 350.69 659.24 357.89 654.2 363.63 642.48 379.96 636.84 391.02 633.34 396.39 629.57 406.85 620.16 426.57 619.96 428.25 620.11 429.97 620.83 433.16 620.99 434.81 619.9 441.49 617.22 447.27 610.75 458.38 603.01 471.68 591.23 489.79 587.48 497.98 585.45 500.73 579.95 505.99 572.31 518.69 563.21 528.55 553.56 541.58 542.35 564.18 534.17 576.08 525.93 584.92 525.49 584.78 499.93 573.57 508.32 520.13 497.64 491.11 488.48 477.37 507.56 436.91 478.73 430.33 449.89 423.75 421.05 417.18 422.66 415.63 424.22 414.12 427.64 410.83 431.06 407.53 432.62 406.04 436.33 402.46 440.04 398.88 443.74 395.3 447.45 391.72 451.17 388.14 454.88 384.56 458.59 380.99 462.29 377.41 466 373.83 469.71 370.25 473.42 366.67 477.13 363.09 480.85 359.52 484.57 355.94 488.27 352.36 491.98 348.78 495.69 345.2 499.4 341.62 502.4 338.72 504.33 339.15 504.94 339.21 576.28 350.63 616.75 327.72 628.96 328.49 648.05 337.65 652.63 338.41 Z" id="SOM-2412" data-name="Mudug"/>
<path d="M 703.48 280.12 703.48 280.12 702.75 281.1 701.6 283.59 699.44 290.34 697.76 293.28 695.26 295.63 685.41 301.62 678.75 308.42 677.39 310.62 676.49 313.4 675.78 318.79 676.19 319.7 677.32 320.44 677.65 322.15 677.45 324.07 677.01 325.43 674.83 328.52 672.55 330.98 671.89 332.28 671.59 335.61 671.27 336.95 663.38 350.69 663.38 350.69 652.63 338.41 648.05 337.65 628.96 328.49 616.75 327.72 576.28 350.63 504.94 339.21 504.33 339.15 502.4 338.72 503.11 338.04 506.82 334.46 510.54 330.88 514.24 327.31 517.95 323.73 521.66 320.15 525.37 316.57 529.08 312.99 532.8 309.42 536.51 305.84 541.09 298.9 545.67 291.95 550.24 285 554.84 278.06 559.41 271.13 564 264.19 568.59 257.24 573.17 250.31 577.74 243.36 582.33 236.41 586.92 229.48 591.49 222.53 596.07 215.59 600.66 208.66 605.23 201.71 609.81 194.77 609.81 186.26 609.81 186.26 619.04 185.71 620.57 218.54 622.85 236.86 628.2 246.79 636.59 252.9 648.81 260.53 666.37 261.3 674 265.11 678.59 280.38 682.41 275.04 685.46 270.46 694.62 271.98 703.48 280.12 Z" id="SOM-2413" data-name="Nugaal"/>
<path d="M 170.46 892.24 163.23 899.33 148.03 916.15 138.81 926.26 134.36 929.88 129.45 933.87 124.3 939.11 122.44 941.75 122.26 942.53 122.29 943.21 122.05 943.69 120.2 944.08 119.64 944.59 116.62 948.61 116.22 949.88 117.14 950.7 116.37 951.97 116.1 952.27 116.1 951.8 116.06 951.41 115.92 951.05 115.57 950.7 111.5 953.88 110.88 954.63 110.38 955.89 109.21 957.26 106.71 959.57 99.1 968.74 98.83 969.4 98.83 969.98 98.72 970.4 98.04 970.56 97.75 970.83 94.67 975.65 92.71 977.67 91.57 978.53 90.34 979.13 88.89 979.47 86.61 979.43 85.46 979.66 84.77 980.47 86.23 980.79 86.17 982.27 85.49 983.92 85.01 984.68 83.92 985.26 82.82 986.63 81.95 988.28 81.59 989.69 81.24 990.3 78.71 992.29 77.85 992.72 77.55 992.19 77.22 988.99 77.3 985.99 76.85 984.68 76.39 984.68 76.59 985.84 76.36 986.69 75.99 987.46 75.81 988.38 75.91 989.29 76.29 990.4 76.39 991.24 76.6 992.2 77.11 992.66 77.65 992.98 77.94 993.59 77.83 994.54 77.05 996.11 76.85 997 76.44 997.98 74.65 999.61 74.24 1000.15 74.12 1001.15 73.76 1001.98 73.25 1002.74 70.36 1006.18 70.03 1006.96 70.29 1007.67 70.89 1007.62 71.61 1007.2 72.17 1006.73 71.25 1008.75 69.52 1008.95 67.93 1007.78 67.42 1005.63 66.95 1005.63 67.03 1007.19 67.93 1009.91 67.99 1011.36 67.52 1012.77 59.55 1025.65 57.76 1027.87 56.3 1030.11 53.43 1035.89 52 1037.05 50.26 1038.03 47.55 1042.57 46.01 1043.87 46.48 1043.87 44.5 1045.9 44.5 1045.9 44.56 1044.38 44.76 1039.6 44.49 1038.15 43.56 1036.47 40.64 1032.68 36.79 1027.71 32.94 1022.75 29.01 1017.66 25.25 1012.81 21.76 1008.31 17.56 1002.87 13.65 997.81 9.87 992.94 7.93 990.42 5.98 987.91 4.05 985.39 2.1 982.87 2.03 977.07 1.95 971.69 1.88 966.31 1.77 958.02 1.66 949.73 1.55 941.45 1.44 933.16 1.39 928.01 1.32 922.85 1.24 916.6 1.24 907.05 1.24 897.51 1.24 887.96 1.24 878.42 1.24 868.87 1.24 859.33 1.24 849.79 1.24 840.25 1.24 830.71 1.24 822.45 35.71 820.19 95.26 816.37 112.83 815.61 128.1 861.42 135.73 892.72 170.05 892.24 170.46 892.24 Z" id="SOM-2645" data-name="Jubbada Hoose"/>
</g>
</svg>