<?xml version="1.0"?>
<svg xmlns="http://www.w3.org/2000/svg" version="1.2" baseProfile="tiny" width="800" height="574" viewBox="0 0 800 574" stroke-linecap="round" stroke-linejoin="round">
<g id="ne_10m_admin_1_states_provinces">
<path d="M 774.13 127.35 774.47 130.04 775.01 131.71 776 133.08 774.38 134.82 769.95 136.82 769.58 140.93 769.68 141.58 767.61 142.33 762.94 142.73 761.95 143.37 761.85 144.51 762.7 147.95 762.83 149.82 762.78 151.66 760.85 162.15 760.69 164.13 760.9 165.59 761.37 166.91 761.88 167.98 762.6 170.31 760.72 171.29 760.54 172.1 760.64 173.22 763.89 178.04 766.1 182.64 766.76 184.69 766.82 186.01 766.3 187.03 765.68 188.64 765.43 192 766.28 193.83 767.66 195.09 769.26 195.63 777.33 196.59 780.2 198.52 780.91 200.32 780.94 200.38 775.47 205.27 772.49 206.59 766.28 207.29 763.81 208.32 763.73 208.32 752.93 208.93 743.85 201.33 739.6 198.62 738.22 191.32 736.34 186.42 731.83 183.84 731.41 183.78 731.41 183.74 731.55 182.13 730.55 178.62 727.7 173.59 727.13 171.92 726.87 169.39 726.87 167.38 727.23 165.21 730.88 157.16 731.86 155.75 731.88 155.07 731.27 153.88 730.42 152.72 728.29 150.63 727.64 149.74 727.46 148.93 727.44 148.16 728.93 145.84 731.35 144.16 733.12 141.8 739.32 142.18 741.84 142.85 743.88 142.9 745.32 142.56 746.91 142.02 748.48 142.06 753.44 142.99 755.19 142.78 756.22 142.28 756.68 141.55 757.12 141.1 758.04 140.54 758.56 140.04 758.87 139.34 758.87 138.49 758.69 137.58 758.94 136.49 759.64 135.27 762.29 133.6 763.5 132.63 764.4 131.77 765.17 130.42 765.22 130.21 765.15 130.05 765.02 129.96 764.84 129.87 762.6 130 761.98 129.95 761.47 129.86 760.95 129.64 760.64 129.37 759.79 128.4 759.15 128.13 758.3 128.07 757.17 128.2 756.73 127.85 756.86 127.06 759.1 124.91 760.41 124.05 761.69 123.61 762.37 123.67 767.69 124.98 768.2 125.25 768.38 125.61 768.23 126.08 767.95 126.6 767.92 127.11 768.1 127.53 769.49 128.12 774.13 127.35 Z M 760.69 70.09 758.46 71.47 751.53 73.21 749.25 73.31 747.81 73.14 746.81 72.77 746.04 73.01 745.14 73.52 743.12 74.97 739.09 78.92 737.24 79.88 735.8 80.25 734.77 80.22 733.46 80.04 731.73 80.25 730.39 81.21 729.8 82.31 729.73 83.56 730.6 86.97 730.6 88.25 731.96 93.66 732.37 96.35 732.53 97 732.89 97.46 733.53 97.77 735.13 98.05 735.62 98.19 736.75 98.64 737.34 98.72 742.4 98.27 745.96 98.43 747.01 98.2 747.94 97.78 750.15 96.25 750.15 96.24 750.3 96.18 750.63 96.06 751.3 95.93 752.05 95.96 752.55 96.13 752.72 96.2 752.77 96.24 752.77 96.25 752.82 96.29 753.55 96.96 755.71 99.62 756.25 100.59 756.61 101.95 756.19 103.39 755.22 104.88 751.2 108.93 750.74 109.56 750.61 109.94 750.87 110.29 751.05 110.49 751.28 110.81 751.46 111.19 751.61 111.7 751.88 112.19 752.49 112.59 753.39 112.81 754.5 112.8 755.81 112.52 756.99 112.97 757.76 114.05 758.04 117.45 757.53 118.71 756.76 119.21 755.81 119.19 754.93 119.47 753.78 120.76 752.75 121.6 751.46 122.24 749.97 122.47 748.22 122.28 740.12 120.08 739.04 119.52 738.19 118.66 737.52 117.7 736.88 116.97 735.62 116.01 732.06 114.57 730.99 114.73 729.73 115.4 729.16 116.95 728.42 120.74 726.18 125.13 723.5 121.54 719.98 117.6 715.61 113.9 715.4 112.52 716.05 111.25 716.87 109.97 716.95 108.32 715.87 106.8 709.64 100.67 708.48 98.61 707.99 97 707.92 96.44 707.99 94.83 707.74 92.21 707.04 88.73 702.59 75.35 701.69 74.06 700.46 73.48 698.81 73.08 697.53 72.9 693.51 69.56 693.32 69.39 693.3 69.37 695.55 66.49 697.37 65.25 698.87 65.04 700.97 64.44 702.83 63.55 703.64 62.43 704.39 62.04 709.3 60.83 715.2 56.48 724.22 46.12 728.73 42.62 727.75 44.13 726.7 47.53 725 50.41 725.67 51.41 726.87 51.7 727.51 51.17 727.86 48.69 729.4 44 729.77 40.88 730.83 39.45 737.8 33.48 739.26 31.76 740.51 29.83 741.52 27.47 742.21 24.41 741.08 24.41 740.48 25.95 739.5 27.25 738.22 28.24 736.67 28.83 741 22.28 744.58 15.26 747.55 4.73 748.24 3.28 752.08 2.98 760.49 1 762.38 1.21 764.98 7.6 765.82 10.99 765.46 14.02 764.37 18.95 763.68 33.82 762.57 36.2 759.36 40.27 758.56 42.74 759.29 45.57 763.15 50.24 763.92 52.31 762.74 54.48 760.6 55.97 758.82 57.71 758.68 60.55 759.47 67.96 760.41 69.95 760.69 70.09 Z" fill-rule="evenodd" id="ARE-338" data-name="Ras Al Khaymah"/>
<path d="M 723.5 121.54 720.47 121.48 719.98 121.85 719.72 122.44 720.52 124.52 720.9 125.92 721.11 127.38 720.95 128.64 720.44 129.58 719.54 130.24 718.31 130.71 715.89 131.37 714.01 132.26 712.75 132.71 710.49 133.16 708.12 133.23 706.03 133.11 704.47 132.56 703.36 131.73 702.05 129.97 700.35 126.44 699.28 122.12 697.96 120.16 695.87 118 688.19 111.79 685.07 109.8 673.4 105.49 671.37 104.26 666.4 100.39 655.55 94.28 655.07 94.09 655.04 94.08 655.89 92.02 656.62 89.21 658.44 85.93 660.99 83.25 663.82 82.24 662.41 84.95 660.59 87.18 659.53 89.22 660.52 91.39 663.1 92.34 666.35 91.83 669.96 90.81 673.47 90.25 674.51 88.95 677.08 82.49 678.54 80.08 682.94 75.8 685.6 73.95 691.3 71.94 693.3 69.37 693.32 69.39 693.51 69.56 697.53 72.9 698.81 73.08 700.46 73.48 701.69 74.06 702.59 75.35 707.04 88.73 707.74 92.21 707.99 94.83 707.92 96.44 707.99 97 708.48 98.61 709.64 100.67 715.87 106.8 716.95 108.32 716.87 109.97 716.05 111.25 715.4 112.52 715.61 113.9 719.98 117.6 723.5 121.54 Z" id="ARE-339" data-name="Umm Al Qaywayn"/>
<path d="M 781.09 193.42 786.23 194.32 787.47 193.76 787.5 193.75 787.39 194.89 786.52 196.53 781.87 199.54 780.94 200.38 780.91 200.32 780.2 198.52 777.33 196.59 778.39 193.23 781.09 193.42 Z M 795.45 167.84 794.54 167.68 785.75 165.86 784.31 165.83 782.74 166.15 782.66 166.85 782.94 167.5 783.51 168.38 784.05 169.53 784.46 170.86 784.74 173.22 785.03 174.23 785.57 175.09 786.11 175.75 786.26 176.86 786.08 178.35 785.41 180.55 784.51 181.82 783.54 182.61 782.2 187.2 780.25 189.24 777.46 182.97 765.63 171.46 764.63 170.75 762.6 170.31 761.88 167.98 761.37 166.91 760.9 165.59 760.69 164.13 760.85 162.15 762.78 151.66 762.83 149.82 762.7 147.95 761.85 144.51 761.95 143.37 762.94 142.73 767.61 142.33 769.68 141.58 769.82 142.55 771.87 143.47 774.49 144.15 777.21 143.08 782.11 139.88 784 138.4 787.86 137.16 792.49 134.98 793.28 130.42 794.47 128.92 798.68 125.96 798.89 125.9 799 127.2 798.84 129.06 798.14 132.31 797.61 137.26 796.07 144.48 795.45 167.84 Z M 781.66 75.15 781.67 75.15 785.19 77.02 788.99 78.4 791.77 78.94 793.09 80.85 796.73 92.02 795.71 107.34 795.91 109.01 795.13 109.34 788.44 114.91 782.28 118.28 780.57 119.61 779.63 121.42 779.16 123.07 778.61 124.28 774.13 127.35 769.49 128.12 768.1 127.53 767.92 127.11 767.95 126.6 768.23 126.08 768.38 125.61 768.2 125.25 767.69 124.98 762.37 123.67 761.69 123.61 760.41 124.05 759.1 124.91 756.86 127.06 756.73 127.85 757.17 128.2 758.3 128.07 759.15 128.13 759.79 128.4 760.64 129.37 760.95 129.64 761.47 129.86 761.98 129.95 762.6 130 764.84 129.87 765.02 129.96 765.15 130.05 765.22 130.21 765.17 130.42 764.4 131.77 763.5 132.63 762.29 133.6 759.64 135.27 758.94 136.49 758.69 137.58 758.87 138.49 758.87 139.34 758.56 140.04 758.04 140.54 757.12 141.1 756.68 141.55 756.22 142.28 755.19 142.78 753.44 142.99 748.48 142.06 746.91 142.02 745.32 142.56 743.88 142.9 741.84 142.85 739.32 142.18 733.12 141.8 733.56 138.31 733.53 137.38 731.65 132.4 735.85 129.21 736.57 127.49 736.44 126.85 736.21 126.27 735.88 125.81 735.44 125.46 734.93 125.18 732.6 124.16 735.62 116.01 736.88 116.97 737.52 117.7 738.19 118.66 739.04 119.52 740.12 120.08 748.22 122.28 749.97 122.47 751.46 122.24 752.75 121.6 753.78 120.76 754.93 119.47 755.81 119.19 756.76 119.21 757.53 118.71 758.04 117.45 757.76 114.05 756.99 112.97 755.81 112.52 754.5 112.8 753.39 112.81 752.49 112.59 751.88 112.19 751.61 111.7 751.46 111.19 751.28 110.81 751.05 110.49 750.87 110.29 750.61 109.94 750.74 109.56 751.2 108.93 755.22 104.88 756.19 103.39 756.61 101.95 756.25 100.59 755.71 99.62 753.55 96.96 752.82 96.29 752.77 96.25 752.77 96.24 752.72 96.2 752.55 96.13 752.05 95.96 751.3 95.93 750.63 96.06 750.3 96.18 750.15 96.24 750.15 96.25 747.94 97.78 747.01 98.2 745.96 98.43 742.4 98.27 737.34 98.72 736.75 98.64 735.62 98.19 735.13 98.05 733.53 97.77 732.89 97.46 732.53 97 732.37 96.35 731.96 93.66 730.6 88.25 730.6 86.97 729.73 83.56 729.8 82.31 730.39 81.21 731.73 80.25 733.46 80.04 734.77 80.22 735.8 80.25 737.24 79.88 739.09 78.92 743.12 74.97 745.14 73.52 746.04 73.01 746.81 72.77 747.81 73.14 749.25 73.31 751.53 73.21 758.46 71.47 760.69 70.09 761.33 70.43 765.22 71.07 766.71 72.17 768.36 75.51 769.52 76.76 772.13 77.41 774.78 76.95 781.66 75.15 Z" fill-rule="evenodd" id="ARE-341" data-name="Fujayrah"/>
<path d="M 787.8 190.77 787.5 193.75 787.47 193.76 786.23 194.32 781.09 193.42 780.45 190.78 780.25 189.24 782.2 187.2 784.62 189.91 786.83 190.7 787.77 190.77 787.8 190.77 Z" id="ARE-344" data-name="Neutral Zone"/>
<path d="M 731.65 132.4 729.57 128.35 729.67 127.38 729.93 126.25 730.68 125.49 731.29 124.98 732.6 124.16 734.93 125.18 735.44 125.46 735.88 125.81 736.21 126.27 736.44 126.85 736.57 127.49 735.85 129.21 731.65 132.4 Z M 640.02 113.76 642.42 110.73 643.44 110.73 644.17 112.75 645.13 112.87 646.1 111.63 646.84 109.6 647.97 110.73 650.23 104.57 651.22 102.88 651.24 102.89 651.38 102.98 653.34 104.21 655.98 104.72 657.65 105.45 660.16 106.93 662.03 107.6 672.01 109.24 673.73 109.87 674.45 110.67 672.27 116.21 670.73 118.63 669.8 119.33 668.69 119.55 654.67 118.86 648.88 117.69 643.87 116.06 640.11 113.8 640.03 113.77 640.02 113.76 Z" fill-rule="evenodd" id="ARE-346" data-name="Ajman"/>
<path d="M 739.6 198.62 743.85 201.33 752.93 208.93 749.07 217.01 747.99 220.32 748.19 222.56 748.06 223.87 748.05 223.91 745.71 223.61 740.64 219.91 735.76 208.49 729.57 203.38 728.39 200.92 728.92 198.84 731.83 198.03 734.15 198.55 736.29 199.54 740.26 202.17 739.6 198.62 Z" id="ARE-347" data-name="Neutral Zone"/>
<path d="M 781.09 193.42 778.39 193.23 777.33 196.59 769.26 195.63 767.66 195.09 766.28 193.83 765.43 192 765.68 188.64 766.3 187.03 766.82 186.01 766.76 184.69 766.1 182.64 763.89 178.04 760.64 173.22 760.54 172.1 760.72 171.29 762.6 170.31 764.63 170.75 765.63 171.46 777.46 182.97 780.25 189.24 780.45 190.78 781.09 193.42 Z M 782.2 187.2 783.54 182.61 784.51 181.82 785.41 180.55 786.08 178.35 786.26 176.86 786.11 175.75 785.57 175.09 785.03 174.23 784.74 173.22 784.46 170.86 784.05 169.53 783.51 168.38 782.94 167.5 782.66 166.85 782.74 166.15 784.31 165.83 785.75 165.86 794.54 167.68 795.45 167.84 795.45 167.84 795.41 169.66 798.95 182.76 789.94 183.68 789.19 184.47 788.33 185.36 787.8 190.77 787.77 190.77 786.83 190.7 784.62 189.91 782.2 187.2 Z M 782.32 136.81 779.01 137.84 778.44 133.41 779.35 132.55 780.8 132.53 783.2 134.08 782.32 136.81 Z M 793.28 130.42 786.69 129.21 783.59 124.86 778.61 124.28 779.16 123.07 779.63 121.42 780.57 119.61 782.28 118.28 788.44 114.91 795.13 109.34 795.91 109.01 795.91 109.01 796.46 113.46 796.23 114.7 794.95 116.76 795.12 118.28 796.73 120.92 797.52 122.6 798.26 123.69 798.81 124.98 798.89 125.9 798.68 125.96 794.47 128.92 793.28 130.42 Z M 723.5 121.54 726.18 125.13 728.42 120.74 729.16 116.95 729.73 115.4 730.99 114.73 732.06 114.57 735.62 116.01 732.6 124.16 731.29 124.98 730.68 125.49 729.93 126.25 729.67 127.38 729.57 128.35 731.65 132.4 733.53 137.38 733.56 138.31 733.12 141.8 731.35 144.16 728.93 145.84 727.44 148.16 727.46 148.93 727.64 149.74 728.29 150.63 730.42 152.72 731.27 153.88 731.88 155.07 731.86 155.75 730.88 157.16 727.23 165.21 726.87 167.38 726.87 169.39 727.13 171.92 727.7 173.59 730.55 178.62 731.55 182.13 731.41 183.74 731.41 183.78 724.71 182.85 718.33 184.36 712.56 187.7 711.84 188.3 707.13 192.22 702.11 198.03 700.38 203.15 701.77 215.89 701.77 219.01 701.05 225.19 701.39 228.23 702.26 230 702.25 230 700.56 230.37 693.79 230.4 680.86 227.39 681.76 225.49 682.12 224.2 682.43 222.38 682.58 220.21 682.53 217.4 681.71 212.21 679.78 205.28 679.19 200.38 679.24 196.49 679.01 195.24 678.42 193.15 676.53 188.47 673.65 183.06 672.34 179.27 672.42 179.12 672.42 179.11 672.42 179.08 673.37 177.31 673.94 176.62 674.76 175.79 676.84 174.12 677.75 173.2 678.42 172.16 678.73 171.14 678.67 170.07 673.86 151.9 671.88 148.48 669.24 145.94 657.4 138.72 656.16 137.38 654.85 136.27 653.57 135.43 648.19 132.62 646.8 131.46 645.03 129.09 644.05 128.3 642.54 128.58 637.03 130.38 632.3 130.64 623.81 128.5 623.51 128.27 623.49 128.25 625.91 125.87 627.36 125.32 629.87 125.44 629.1 123.36 629.22 121.37 630.24 119.72 632.14 118.66 633.81 119.97 637.16 117.37 640.02 113.76 640.03 113.77 640.11 113.8 643.87 116.06 648.88 117.69 654.67 118.86 668.69 119.55 669.8 119.33 670.73 118.63 672.27 116.21 674.45 110.67 673.73 109.87 672.01 109.24 662.03 107.6 660.16 106.93 657.65 105.45 655.98 104.72 653.34 104.21 651.38 102.98 651.24 102.89 651.22 102.88 651.8 101.89 653.63 100.45 651.56 99.46 652.61 97.44 654.75 94.81 655.04 94.08 655.07 94.09 655.55 94.28 666.4 100.39 671.37 104.26 673.4 105.49 685.07 109.8 688.19 111.79 695.87 118 697.96 120.16 699.28 122.12 700.35 126.44 702.05 129.97 703.36 131.73 704.47 132.56 706.03 133.11 708.12 133.23 710.49 133.16 712.75 132.71 714.01 132.26 715.89 131.37 718.31 130.71 719.54 130.24 720.44 129.58 720.95 128.64 721.11 127.38 720.9 125.92 720.52 124.52 719.72 122.44 719.98 121.85 720.47 121.48 723.5 121.54 Z" fill-rule="evenodd" id="ARE-348" data-name="Sharjah"/>
<path d="M 75.35 308.37 73.69 309.96 73.13 309.48 72.02 309.04 71.44 308.58 72.16 307.4 72.16 305.63 73.17 303 75.14 302.22 76.59 304.18 76.49 304.81 76.18 305.32 76.49 306 75.35 308.37 Z M 381.2 306.01 385.43 308.45 386.05 308.8 391.73 309.87 392.95 310.33 396.37 311.59 398.07 316.3 395.78 320.09 390.71 321.73 384.77 321.51 379.86 319.69 380.21 318.15 378.93 316.03 376.95 315.5 375.22 318.66 376.46 319.69 371.96 322.37 366.55 323.34 361.04 322.78 356.09 320.92 353.23 319.45 353.21 319.44 351.56 318.93 347.04 318.66 344.14 318.31 342.27 317.69 342.2 316.41 344.77 314.04 346.65 312.98 346.89 312.85 346.89 312.83 350.97 311.45 352.71 310.64 355.86 308.06 356.79 307.5 357.95 306.81 358.67 306.6 360.62 306.01 362.18 306.05 364.6 307 364.97 307.08 365.82 307.24 366.95 306.81 370.92 303.84 375.49 302.07 377.31 301.09 378.73 299.32 379.62 301.37 379.42 301.85 378.73 302.71 378.73 302.72 380.43 305.26 381.2 306.01 Z M 436.85 302.96 435.52 307.24 433.87 304.29 430.31 302.84 426.13 301.75 422.55 299.88 420.73 295.57 420.73 295.56 423 292.12 426.6 290.73 427.45 291.42 428.83 292.53 433.05 296.82 435.11 298.91 436.87 302.95 436.85 302.96 Z M 444.97 297.97 443.56 298.3 441.74 298.27 440.72 297.75 437.89 294.7 435.79 293.34 434.25 292.7 433.64 291.63 434.49 289.04 435.71 287.53 437.68 286.27 440.04 285.57 442.42 285.64 443.88 288.43 445.53 290.78 449.22 294.7 448.05 296.09 446.55 297.21 444.97 297.97 Z M 173.27 300.45 170.54 302.91 168.37 300.78 166.56 297.98 164.56 294.03 164.92 290.74 167.61 287.9 169.71 285.15 173.68 283.04 177.55 284.14 179.36 286.78 180.27 291.06 179.92 293.61 176.35 297.9 173.27 300.45 Z M 459.47 284.58 459.61 286.84 457.84 291.66 455.1 292.88 450.57 285.65 450.15 284.5 451.33 284.32 453.16 284.76 454.77 285.69 455.51 286.02 455.72 285.26 455.27 284.38 452.82 282.71 452.3 281.18 454.43 280.94 457.91 283.08 459.47 284.58 Z M 309.02 290.42 302.51 293.18 299.43 294.98 295.46 295.46 293.1 297.1 293.1 298.91 291.64 301.37 289.3 298.73 286.96 298.55 283.89 297.06 282.26 299.52 275.93 298.68 273.59 298.35 270.08 299 269.49 299.18 269.06 299.17 268.65 298.29 268.74 297.34 269.25 296.14 269.84 295.12 270.35 294.69 276.56 295.92 278.23 295.55 282.49 293.82 283.34 293.1 284.23 292.51 289.7 290.5 292.77 289.2 294.22 289.2 295.83 291.84 297.46 292.67 298.92 291.99 299.29 290.19 299.09 288.41 298.07 286.77 298.07 286.77 304.29 278.37 307.22 276.48 307.37 277.44 308.11 279.08 308.35 279.98 312.2 281.93 312.24 281.95 311.15 288.35 309.02 290.42 Z M 481.89 274.46 479.6 275.16 475.24 274.42 467.31 272.06 459.39 269.79 459.39 267.18 459.39 267.17 466.11 261.43 468.44 258.27 469.58 258.27 469.58 258.28 468.44 261.76 468.44 261.77 469.65 264.77 472.57 266.9 478.72 269.79 481.76 272.56 481.89 274.46 Z M 126.46 265.24 124.47 266.07 122.05 264.87 121.19 263.86 120.38 263.42 119.33 262.53 119.18 260.31 120.62 258.49 121.88 256.51 123.73 255.49 127.51 257.82 128.61 261.77 126.46 265.24 Z M 28.52 245.54 29.21 246.99 28.9 248.02 28.81 248.5 28.11 249.95 27.67 251.22 26.82 250.6 26.63 248.34 27.05 247.32 26.43 247.61 26.35 247.03 26.33 246.36 26.2 246.57 25.96 246.58 25.71 246.53 25.78 246.81 25.59 246.85 25.77 247.48 24.78 246.68 24.59 245.1 25.91 244.17 26.66 244.23 28.52 245.54 Z M 251.91 200.06 251.29 203.44 250.23 202.52 249.99 201.74 248.61 200.16 247.79 198 248.22 196.8 251.29 197.22 251.91 200.06 Z M 680.86 227.39 693.79 230.4 700.56 230.37 702.25 230 702.26 230 704.73 235.06 705.28 238.27 700.64 242.16 699.61 247.72 697.28 250.03 695.6 252.33 695.82 255.83 697.9 262.81 697.9 262.82 697.52 271.8 698.05 274.31 699.11 275.48 702.44 277.54 703.69 279 704.06 280.39 703.48 288.42 702.42 290.83 695.98 301.32 694.66 304.22 694.91 306.73 696.9 307.64 707.28 309.73 710.08 309.87 719.36 306.41 724.33 308.32 726.95 314.27 728.9 321.3 735.05 331.44 733.22 334.07 722.74 336.43 703.43 343.67 700.35 343.32 696.03 340.24 693.05 340.72 690.32 341.66 687.77 341.72 682.37 340.89 676.88 340.76 672.15 341.57 667.62 343.25 662.76 345.7 659.54 347.32 652.5 349.78 645.37 351.02 644.7 353.44 646.16 356.42 648.93 358.74 654.95 362.05 657.6 365.68 658.36 370.46 658.89 383.03 658.19 385.23 650.44 395.75 648.93 398.56 643.47 419.13 641.17 422.33 634.99 428.57 634.95 428.59 631.85 432.87 630 438.39 626.54 454.93 622.88 465.07 607.1 490.57 601.94 506.51 601.36 511.42 601.36 511.43 602.41 535.62 600.62 559.8 589.61 573.09 587.11 573.5 564.44 570.71 541.38 567.87 518.32 565.04 495.28 562.22 472.26 559.37 449.2 556.54 426.16 553.71 403.12 550.87 380.04 548.03 357 545.2 333.96 542.37 310.9 539.53 287.86 536.69 264.81 533.86 241.75 531.03 218.71 528.2 195.67 525.36 169.03 522.09 164.95 520.85 161.64 518.17 152.75 507.63 144.1 497.34 135.45 487.06 126.8 476.78 118.18 466.51 109.53 456.23 100.89 445.94 92.24 435.66 83.61 425.39 74.95 415.11 66.32 404.82 57.67 394.55 49.02 384.27 40.37 374 31.73 363.71 23.08 353.43 14.45 343.15 5.01 331.93 2.52 328.03 1.63 323.72 1.98 313.1 2.03 308.82 1 302.45 4.53 297.77 4.7 290.44 1.77 284.5 5.05 281.11 6.48 283.93 10.02 288.66 10.71 291.91 10.71 301.48 11.79 307.3 14.15 308.68 16.51 306.32 18.12 298.82 19.24 300.86 20.88 306.01 21.99 307.72 22.77 308.13 24.28 308.26 25.69 307.93 26.58 307.16 26.78 306.36 26.12 306.01 29.3 298.91 32.4 296.76 35.83 301.48 36.29 305.07 34.59 315.68 34.83 319.51 36.85 327.71 37.04 329.49 36.85 335.08 37.21 336.86 38.76 340.23 39.09 341.86 40.79 344.8 44.75 345.75 52.8 345.92 54.74 346.5 56.23 347.29 59.07 349.82 60.57 350.75 61.84 350.75 62.3 350.02 61.34 348.7 61.01 346.9 64.58 346.42 74.04 346.92 75.19 346.62 76.35 346.92 78.42 348.7 83.55 350.97 84.93 350.91 91.93 349.74 94.86 350.46 96.5 349.55 98.16 350.46 100.74 349.32 103.59 349.18 106.58 349.36 109.58 349.22 112.33 348.28 118.64 344.68 121.43 344.29 126.72 344.27 128.92 343.66 130.82 342.2 132.84 340.29 135.06 338.61 137.42 337.9 140.16 337.41 143.34 336.19 146.01 334.52 147.13 332.76 148.06 330.88 153.11 328.89 155.56 327.09 157.75 325.05 160.65 323.06 163.56 321.53 165.81 320.92 167.62 319.7 168.13 316.9 168.19 313.84 168.65 311.86 171.88 310.18 174.89 311.15 177.49 313.44 183.46 320.92 185.32 321.57 185.99 321.13 186.53 320.28 187.99 319.69 191.74 319.8 198.52 321.6 202.13 322.06 204.23 321.72 207.79 320.16 209.57 319.69 211.49 319.71 212.92 320.11 214.06 320.6 215.26 320.92 229.37 322.06 230.97 321.77 236.85 319.69 237.63 319.07 237.86 318.16 238.1 317.45 239.11 317.42 239.96 317.93 240.6 318.65 241.06 319.32 241.38 319.69 246.24 323.37 249.28 324.71 255.91 322.06 259.31 323.25 262.42 324.8 265.23 324.22 262.95 322.99 262.3 321.41 262.23 319.54 261.75 317.42 265.54 316.68 269.9 318.49 273.88 321.45 276.56 324.22 278.85 327.65 280.2 328.54 289.37 329.04 310.58 325.05 312.04 325.05 313.49 325.95 315.76 328.28 317.5 329.38 319.86 329.89 322.32 329.74 324.22 328.85 327.23 330.94 329.01 331.86 330.53 332.25 331.22 332.88 333.35 335.9 334.5 336.87 335.87 337.11 337.77 337.09 339.59 336.79 342.43 335.46 344.13 335.83 345.71 336.56 347.04 336.87 352.15 334.62 353.27 333.89 354.64 333.22 356.23 333.5 357.89 334.12 359.49 334.51 379.66 334.63 383.83 334.16 385.63 332.76 395.8 327.71 406.27 326.14 409.56 324.56 413.04 323.96 417.41 322.06 422.47 321.41 424.21 320.92 426.34 319.71 429.37 317.52 432.09 314.89 433.25 312.39 434.9 311.16 445.8 308.26 454.6 302.35 456.1 302.1 457.44 300.05 460.58 300.2 467.31 302.71 468.57 300.84 474.72 296.49 477.82 292.51 484.39 280.54 483.46 276.39 483.98 274.44 486.66 273.19 485.12 272.25 484.39 272.06 484.39 270.82 486.97 271.05 491.04 272.77 493.45 273.19 492.4 271.11 489.57 268.27 489 266.29 491.47 267.34 494.11 268.07 496.49 269.04 498.07 270.82 499.11 270.82 498.59 266.45 495.48 265.08 491.09 264.87 486.66 264.03 476.94 258.07 473.07 257.23 473.07 256.21 475.07 255.69 477.1 254.45 478.8 252.66 479.09 253.71 479.65 255.09 480.99 256.21 480.54 254.51 481.11 253.02 483.26 250.45 484.39 250.45 485.7 255.02 488.91 259.5 492.98 262.29 496.93 261.76 495.92 261.27 493.45 259.4 495.36 259.49 498.92 260.54 500.33 260.63 500.89 260.05 502.32 257.75 503.17 257.23 509.38 245.82 506.63 244.74 505.36 243.26 505.99 241.95 508.82 241.4 510.54 240.39 511.03 238.12 511.99 235.78 515.05 234.5 515.05 233.47 513.61 232.51 512.92 230.81 512.43 228.72 511.66 226.58 512.55 225.38 511.35 224.68 510.06 223.48 510.53 220.81 512.06 219.27 518.54 215.26 519.35 214.15 520.15 212.59 521.09 211.66 526.19 213.81 526.46 214.03 528.9 213.56 531.29 212.06 532.13 209.86 529.88 207.24 547.91 197.61 556.02 192.27 561.05 188.03 564.37 186.01 568.47 184.79 568.82 184.68 569.55 184.46 570.21 184.27 570.62 184.14 570.63 184.14 572.08 185.83 592.5 239.34 594.2 242.55 596.24 244.96 599.48 245.89 602.89 246.27 638 244.99 642.61 244.08 647.62 242.38 658.78 236.51 677.05 229.68 680.86 227.39 Z M 442.21 138.8 443.65 144.57 441.52 143.65 439.42 143.65 436.7 140.7 438.89 137.81 442.21 138.8 Z" fill-rule="evenodd" id="ARE-349" data-name="Abu Dhabi"/>
<path d="M 752.93 208.93 763.73 208.32 763.81 208.32 763.78 208.33 761.08 214.51 757.51 218.47 756.5 221.31 755.01 223.01 751.84 223.82 748.33 223.95 748.05 223.91 748.06 223.87 748.19 222.56 747.99 220.32 749.07 217.01 752.93 208.93 Z M 680.86 227.39 677.05 229.68 658.78 236.51 647.62 242.38 642.61 244.08 638 244.99 602.89 246.27 599.48 245.89 596.24 244.96 594.2 242.55 592.5 239.34 572.08 185.83 570.63 184.14 570.62 184.14 570.63 184.14 571.44 183.7 571.98 183.41 572.27 183.24 572.64 183.05 573.34 182.66 577.94 180.25 577.05 176.85 582.52 175.8 583.29 176.36 595.66 163.12 612.59 143.47 613.44 140.83 613.31 138.55 616.46 135.94 619.11 136.31 621.59 139.55 622.43 141.81 621.74 144 619.57 147.05 624.17 145.76 625.06 142.82 623.77 139.17 620.44 133.56 620 132.24 620.91 130.8 623.49 128.25 623.51 128.27 623.81 128.5 632.3 130.64 637.03 130.38 642.54 128.58 644.05 128.3 645.03 129.09 646.8 131.46 648.19 132.62 653.57 135.43 654.85 136.27 656.16 137.38 657.4 138.72 669.24 145.94 671.88 148.48 673.86 151.9 678.67 170.07 678.73 171.14 678.42 172.16 677.75 173.2 676.84 174.12 674.76 175.79 673.94 176.62 673.37 177.31 672.42 179.08 672.42 179.11 672.42 179.12 672.34 179.27 673.65 183.06 676.53 188.47 678.42 193.15 679.01 195.24 679.24 196.49 679.19 200.38 679.78 205.28 681.71 212.21 682.53 217.4 682.58 220.21 682.43 222.38 682.12 224.2 681.76 225.49 680.86 227.39 Z" fill-rule="evenodd" id="ARE-350" data-name="Dubay"/>
</g>
</svg>