<?xml version="1.0"?>
<svg xmlns="http://www.w3.org/2000/svg" version="1.2" baseProfile="tiny" width="800" height="322" viewBox="0 0 800 322" stroke-linecap="round" stroke-linejoin="round">
<g id="ne_10m_admin_1_states_provinces">
<path d="M 692.26 209.86 729.34 218.87 766.99 221.13 799 218.31 590.48 257.31 518.35 303.29 478.56 314 376.78 320.88 329.78 316.26 283.79 294.16 270.27 283.12 233.86 247.16 187.88 179.54 177.96 157.78 188.33 143.69 172.32 135.69 163.42 125.77 164.66 115.4 178.86 105.82 151.58 94.66 129.6 88.92 49.47 84.29 25.46 75.05 8.89 57.24 1 29.29 47.21 19.94 85.31 1 132.42 33.12 141.1 34.48 151.36 49.35 174.24 66.94 196.89 77.76 207.26 72.35 213.12 51.16 227.55 41.69 246.04 44.28 264.86 58.6 245.92 67.16 263.62 89.25 293.26 93.09 325.38 84.07 349.96 67.16 377.23 75.39 455.57 77.42 487.92 91.28 503.02 101.09 534.13 109.09 550.24 115.29 560.73 124.42 582.14 148.31 592.85 153.16 628.35 179.2 642.89 193.85 692.26 209.86 Z" id="HMD+00?" data-name="Heard Island and McDonald Islands"/>
</g>
</svg>