<?xml version="1.0"?>
<svg xmlns="http://www.w3.org/2000/svg" version="1.2" baseProfile="tiny" width="800" height="819" viewBox="0 0 800 819" stroke-linecap="round" stroke-linejoin="round">
<g id="ne_10m_admin_1_states_provinces">
<path d="M 744.33 116.64 745.93 117.58 753.8 122.21 765.11 129.18 776.4 136.15 787.7 143.12 799 150.08 784.58 150.09 770.17 150.1 755.76 150.11 741.35 150.11 726.93 150.12 712.52 150.13 698.1 150.14 683.69 150.14 684.32 155.33 684.95 160.51 685.57 165.69 686.21 170.88 686.83 176.06 687.46 181.24 688.09 186.43 688.72 191.61 689.34 196.89 689.3 196.92 410.65 376.28 307.14 387.24 266.33 372.8 264.7 372.29 264.56 372.25 262.72 345.34 261.65 329.06 260.58 312.79 259.73 308.57 256.56 300.2 255.88 296.04 256.74 291.66 258.85 287.53 264.42 280.26 264.42 280.26 265.66 278.77 272.18 274.61 280.33 269.41 287.34 264.93 291.42 262.32 295.4 261.05 306.36 259.6 308.71 258.96 322.98 252.65 329.61 250.98 330.49 249.94 330.75 247.71 330.75 242.46 330.75 237.54 330.75 232.62 330.75 227.69 330.75 222.78 330.75 217.85 330.75 212.93 330.75 208.01 330.75 203.09 330.75 198.17 330.75 193.25 330.75 188.33 330.75 183.41 330.75 178.49 330.75 173.57 330.75 168.65 330.75 163.73 330.75 158.81 330.75 153.89 330.75 148.97 330.75 144.05 330.75 139.13 330.75 134.21 330.75 129.29 330.75 124.36 330.75 119.45 330.75 114.53 330.75 109.6 330.75 104.69 330.75 99.77 330.75 94.84 330.75 89.93 330.75 85 337.3 85 343.86 85 350.41 85 356.97 85 363.53 85 370.09 85 376.64 85 383.2 85 389.76 85 396.31 85 402.87 85 409.43 85 415.98 85 422.54 85 429.09 85 435.65 85 442.21 85 448.76 85 455.32 85 461.88 85 468.44 85 474.99 85 481.54 85 488.1 85 494.66 85 501.21 85 507.77 85 514.33 85 520.89 85 527.44 85 533.99 85 540.56 85 546.08 85 547.35 84.67 547.8 83.81 547.8 80.87 547.79 79.97 547.79 77.44 547.79 73.5 547.78 68.39 547.78 62.34 547.77 55.6 547.76 48.38 547.75 40.93 547.74 33.49 547.73 26.27 547.72 19.52 547.71 13.48 547.7 8.37 547.7 4.43 547.7 1.89 547.69 1 560.58 8.58 573.47 16.15 586.34 23.73 599.22 31.3 612.11 38.88 624.99 46.45 637.87 54.03 650.75 61.6 663.64 69.18 676.52 76.76 689.4 84.33 702.28 91.91 713.19 98.33 724.1 104.74 735.01 111.17 744.33 116.64 Z" id="MRT-2783" data-name="Tiris Zemmour"/>
<path d="M 311.55 652.57 310.53 653.09 309.81 653.81 309.7 654.99 309.08 655.7 306.54 656.15 304.42 656.96 303.21 658.15 301.21 658.39 299.75 659.56 298.03 662.61 296.31 663.36 294.94 663.68 293.74 664.29 293.02 664.8 292.21 665.17 291.4 664.98 290.53 664.98 287.63 665.81 287.06 666.41 286.33 666.99 284.36 667.43 279.7 672.61 278.99 673.8 278.47 675.15 278.57 677.47 278.17 679.72 278.02 682.13 274.94 686.42 273.69 688.98 272.68 692.37 271.11 695.47 265.6 697.5 259.49 698.1 256.37 701.71 256.01 706.93 254.83 708.64 228.26 715.55 225.48 716.74 224.72 719.37 224.38 722.21 223.13 723.73 221.24 724.75 219.9 725.22 220.27 724.13 220.4 723.3 219.78 723.23 219.17 723.26 218.6 723.41 218.05 723.72 217.56 724.18 216.4 725.8 215.96 726.27 214.91 727.05 213.84 727.65 213.33 727.83 212.8 727.88 212.25 727.74 211.66 727.39 211.14 726.9 210.73 726.33 210.42 725.71 209.87 723.96 209.55 723.43 209.12 722.98 208.1 722.23 207.56 721.92 205.01 721.2 203.9 720.62 203.66 719.58 203.99 718.41 203.97 717.86 203.68 717.27 203.04 716.46 202.91 716.04 203.03 715.49 203.44 714.49 203.39 714.03 203 713.59 202.4 713.27 201.12 712.79 200.54 712.43 199.41 711.11 198.97 710.72 196.81 709.51 192.94 706.13 190.73 703.64 189.19 702.58 188.72 702.17 187.62 700.77 187.09 700.47 186.35 700.34 184.79 700.23 184.11 699.93 183.77 699.42 183.69 698.26 183.47 697.76 182.84 697.47 180.34 697.68 179.73 697.42 179.62 696.92 179.97 695.68 179.99 694.97 179.72 694.48 179.22 694.15 175.09 692.58 173.81 692.66 173.19 692.89 171.48 693.88 170.84 694.17 170.16 694.34 169.46 694.42 168.76 694.41 166.12 693.88 165.43 693.89 162.7 694.64 161.98 694.66 161.26 694.54 159.43 693.7 158.86 693.55 158.22 693.56 156.02 694.12 155.27 694.21 144.15 693.43 142.16 693.89 140.96 693.71 140.29 692.89 139.79 691.94 140.86 690.64 147.22 686.66 156.13 681.93 161.19 679.9 163.16 678.19 164.51 676.4 164.94 676.08 180.72 664.77 204.25 631.21 218.9 618.43 237.16 605.42 288.19 569.15 300.58 587.56 298.8 605.55 297.88 616.48 298.11 616.48 296.28 638.48 305.08 647.35 311.55 652.57 Z" id="MRT-2784" data-name="Brakna"/>
<path d="M 45.7 501.26 45.49 501.26 45.81 500.14 48.04 496.22 50.49 492.9 51.23 492.75 51.74 493.28 50.98 494.45 49.91 495.41 49.1 496.29 48.03 498.14 45.7 501.26 Z M 40.27 495.69 39.86 496.2 39.36 495.79 39.03 494.39 39.41 493.12 40.32 492.7 40.81 492.8 40.85 493.47 40.68 494.77 40.27 495.69 Z M 49.45 484.62 47.48 493.38 45.84 497.46 43.22 501.18 42.1 499.78 41.89 499.36 41.91 498.83 42.06 498.23 42.07 497.58 41.65 496.92 41.17 495.75 41.62 494.53 43.49 491.85 43.63 491.56 43.56 489.67 43.63 489.1 44.15 487.88 44.99 486.87 45.93 486.54 46.78 487.36 48.05 484.78 48.86 483.79 49.45 484.62 Z M 42.21 437.83 41.81 438.05 40.96 437.71 40.51 436.55 40.84 435.58 41.48 435.21 42.04 435.35 42.32 435.69 42.21 437.83 Z M 182.32 388.44 190.29 400.72 81.81 400.31 98.82 427.22 56.58 501.81 52.96 508.09 50.6 510.84 50.18 510.7 50.17 510.7 50.34 510.51 51.88 507.99 52.25 506.72 52.83 505.86 52.97 505.42 52.77 504.99 52.33 504.74 51.9 504.71 51.71 504.96 51.37 504.93 47.75 508.69 45.89 510.11 48.56 504.73 47.64 505.21 45 507.3 44.07 508.29 43.63 508.91 43.24 509.63 43.11 510.4 43.43 511.16 43.46 511.56 42.9 512.79 42.74 513.42 42.58 513.6 42.19 513.72 41.75 513.74 41.41 513.66 41.1 513.46 41.06 513.33 41.08 513.15 40.97 512.77 40.86 512.25 40.88 510.65 40.97 510.11 41.58 509.09 43.28 507.38 43.63 506.27 43.87 504.91 44.5 504.24 45.37 503.75 46.34 502.96 52.56 494.03 52.95 493.68 53.39 493.42 53.75 493.06 53.89 492.45 53.97 491.15 54.17 490.66 54.58 490.47 54.71 490.23 55.86 489.04 56.16 488.65 56.18 487.96 56.02 487.38 55.69 486.87 55.23 486.43 55.74 486 56.07 485.48 56.21 484.88 56.16 484.21 55.13 484.76 54.79 485.1 54.6 484.06 55.53 482.46 55.23 481.54 54.03 480.84 53.2 481.39 52.73 482.35 52.56 482.87 51.49 483.49 51.02 483.19 50.98 482.4 51.23 481.54 51.59 480.82 51.98 480.27 55.81 476.58 56.89 474.99 57.45 473.06 57.16 471.45 55.19 468.16 54.38 466.39 54.89 466.42 55.36 466.39 55.78 466.23 56.16 465.91 57.6 463.79 58.15 462.5 58.38 461.22 58.21 460.04 57.77 459.06 55.91 456.35 55.51 456.14 54.58 456.09 53.96 455.81 53.66 455.2 53.47 454.59 53.2 454.31 52.17 453.71 50.34 449.42 49.74 448.83 49.17 448.45 48.73 448.04 48.56 447.4 48.74 447.18 49.11 447.05 49.37 446.88 49.25 446.51 49.06 446.25 48.64 445.45 48.37 444.21 45.91 438.15 45.27 437.26 44.32 436.9 43.78 436.09 43.7 434.47 43.42 433.29 42.3 433.79 40.97 432.94 40.97 432.45 43.91 431.67 44.77 431.28 43.43 431.12 41.13 431.48 40.08 431.28 39.19 430.23 39.67 429.79 38.74 427.97 38.31 427.67 36.92 427.12 36.47 429.96 36.98 436.26 36.07 438.72 35.41 437.7 34.57 436.99 32.92 436.01 32.39 435.45 31.55 433.92 30.94 433.14 30.13 432.59 28.09 431.57 27.59 431.12 27.54 430.38 27.85 430.07 28.26 429.96 28.48 429.79 28.46 429.23 28.09 428.7 28 428.22 27.69 427.24 26.95 426.45 25.15 425.1 24.9 424.6 24.92 423.4 24.68 422.88 23.59 421.75 22.85 418.68 22.46 417.95 21.77 417.16 21.32 416.2 21.05 415.17 20.93 414.19 20.64 414.5 20.23 414.82 20.04 415.08 19.09 414.2 18.72 413.22 18.54 412.16 18.22 411.04 17.81 410.58 17.21 410.12 16.67 409.51 16.44 408.58 16.09 407.94 14.53 405.92 14.18 405.02 14.04 404.1 13.72 403.06 12.89 401.22 11.65 399.77 10.76 400.27 9.07 403.24 6.28 406.81 5.63 407.33 5.25 408.1 5.74 409.26 6.47 408.93 6.55 410.04 6.14 412.41 6 414.53 5.74 415.08 5.11 415.47 3.6 415.9 3.07 416.41 3.02 416.98 3.32 417.47 3.96 418.15 4.43 419.19 4.47 419.62 4.4 420.41 3.78 423.16 3.23 424.59 2.58 425.3 1 418.28 1.24 416.35 2.77 410.43 3.2 408.35 5.96 400.89 7.21 394.65 8.34 389 8.96 388.46 16.52 388.46 19.21 388.46 26.81 388.46 38.62 388.46 53.95 388.46 72.09 388.45 92.33 388.45 113.98 388.45 136.32 388.44 158.67 388.44 180.31 388.44 182.32 388.44 Z" fill-rule="evenodd" id="MRT-2785" data-name="Dakhlet Nouadhibou"/>
<path d="M 190.29 400.72 191.5 402.45 187.26 512.42 187.19 522.31 187.12 540.28 184.49 540.29 57.68 540.58 57.68 540.58 55.82 536.34 52.97 531.82 49.12 527.57 47.9 526.48 47.63 526.35 47.4 525.9 46.86 525.76 46.22 525.7 45.67 525.44 44.57 524.74 42.02 524.03 40.97 523.44 40.48 522.69 39.4 519.94 39.19 518.77 38.52 517.53 37.26 516.5 36.52 515.53 37.41 514.51 41.19 515.48 44.83 514.98 47.99 513.25 50.17 510.7 50.18 510.7 50.6 510.84 52.96 508.09 56.58 501.81 98.82 427.22 81.81 400.31 190.29 400.72 Z" id="MRT-2786" data-name="Inchiri"/>
<path d="M 69.29 612.8 69.8 608 69.08 596.2 67.46 579.96 67.47 579.96 68.11 580 85.62 579.82 85.7 594.68 85.6 612.79 69.29 612.8 69.29 612.8 Z" id="MRT-2787" data-name="Nouakchott"/>
<path d="M 288.19 569.15 237.16 605.42 218.9 618.43 204.25 631.21 180.72 664.77 164.94 676.08 164.51 676.4 163.16 678.19 161.19 679.9 156.13 681.93 147.22 686.66 140.86 690.64 139.79 691.94 139.73 691.83 138.88 690.95 138.14 690.59 136.69 691.17 136.02 691.6 135.6 692.2 135.39 693.11 135.25 693.53 134.93 693.93 134.52 694.23 134.06 694.42 133.58 694.46 133.11 694.31 132.43 693.69 131.92 692.94 131.33 692.31 130.39 692.03 129.47 692.28 128.9 692.92 128.77 693.76 129.16 694.63 130.21 695.63 130.42 696.04 130.4 696.52 130.12 696.89 129.7 697.16 128.33 697.66 121.34 698.72 120.29 698.76 117.2 698.29 115.12 698.36 114.1 698.57 111.36 699.68 110.44 699.9 109.49 699.92 108.68 699.59 108.24 698.98 107.86 698.31 107.25 697.83 106.27 697.74 105.32 698.15 104.51 698.85 102.93 701.03 102.31 701.6 101.53 701.97 100.57 702.06 97.78 701.51 96.78 701.66 96.01 702.12 94.57 703.39 93.68 703.94 92.71 704.26 91.71 704.31 90.7 704.06 89.16 703.35 88.61 703.19 86.49 703.08 83.55 702.15 82.51 702.1 80.91 702.38 80.36 702.38 78.08 701.85 77.17 701.95 74.59 703.06 74.11 703.15 73.7 703.11 72.85 702.79 72.31 702.66 71.82 702.74 71.36 702.98 70.9 703.3 69.35 703.51 67.88 703.34 66.56 702.73 65.45 701.6 64.67 700.47 64.19 699.99 63.59 699.64 62.77 699.48 61.98 699.62 61.24 699.95 59.32 701.27 58.66 701.57 57.92 701.69 57.19 701.64 55.04 701.25 53.55 701.54 52.17 702.35 50.97 703.48 50.07 704.7 49.57 705.92 49.23 708.52 46.57 719.54 46.29 720.3 45.88 720.96 44.86 721.61 42.46 722.16 41.51 722.95 41.04 724.26 40.75 728.67 39.62 731.29 38.73 734.17 38.34 734.91 38.18 742 37.55 745.59 36.07 748.03 37.05 737.06 36.92 731.31 36.28 718.2 36.92 713.93 37.38 712.77 39.19 709.45 39.73 706.19 40.28 705.23 40.97 703.51 40.97 696.52 41.48 693.68 46.7 680.85 48.08 678.66 49.04 674.26 50.16 672.11 53.28 667.85 58.84 656.22 59.22 654.63 60.14 653.42 66.24 635.03 68.19 627.07 68.68 618.43 69.29 612.8 69.29 612.8 85.6 612.79 85.7 594.68 85.62 579.82 68.11 580 67.47 579.96 67.46 579.96 66.86 573.9 66.13 571.58 62.78 564.49 61.24 556.42 60.12 553.78 60.7 552.24 60.6 550.46 58.06 541.44 57.68 540.58 184.49 540.29 187.12 540.28 250.75 540.28 288.19 569.15 Z" id="MRT-2788" data-name="Trarza"/>
<path d="M 391.66 623.45 390.88 625.56 390.74 627.69 391.74 629.8 393.02 636.39 397.39 645.02 397.7 647.31 397.23 649.66 398.11 652.02 397.74 653.26 397.19 654.45 396.15 660.03 396.7 661.36 397.77 662.35 398.16 664.01 397.12 671.84 397.11 673.65 397.46 675.41 397.49 676.56 397.28 677.71 398.17 679.28 397.67 680.21 397.03 681.06 397.46 682.45 398.83 683.34 400.21 684.98 400.54 685.95 401.05 686.77 402.27 686.88 403.49 687.41 404.47 688.49 405.18 689.6 405 691.79 405.97 693.76 407.34 695.62 409.27 696.5 410.31 696.66 411.37 696.96 413.25 695.99 414 696.83 415.06 696.45 416.01 696.26 416.37 696.86 416.33 697.69 415.51 698.61 414 698.73 413.96 700.35 412.5 701.29 411.91 702.44 408.53 704.24 407.18 704.23 406.04 704.56 405.14 705.33 405.75 706.81 408.42 707.6 409.23 708.08 409.34 709.46 408.81 710.86 408.27 711.49 407.85 712.2 407.54 714.02 407.14 714.96 406.94 715.94 407.78 717.46 407.21 718.37 407.44 719.43 409.62 720.19 411.44 721.59 412.46 723.54 412.66 725.73 412.3 727.5 412.26 729.34 411.49 730.44 411.49 732.26 411.24 732.67 412.54 734 416.67 737.14 418.52 739.62 423.86 772.79 423.87 772.82 423.69 772.87 422.41 773.06 419.69 773.03 415.77 772.44 414.71 772.49 414 773.17 413.75 774.41 413.83 777.11 413.32 778.48 412.82 778.97 411.76 779.55 411.04 780.61 410.5 780.71 409.84 780.71 409.14 780.95 408.08 781.96 407.62 783.02 406.99 785.42 406.25 786.52 404.5 788.13 403.94 789.18 402.94 792.89 402.36 793.98 400.22 790.79 397.8 788.48 396.01 785.09 393.88 783.09 377.43 771.32 376.21 769.98 370.18 761.48 368.53 760.11 367.01 759.48 363.29 758.74 362.7 758.8 362.51 758.86 362.62 759.13 362.79 759.33 363.02 759.5 363.29 759.66 363.44 759.98 363.49 760.31 363.44 760.65 363.29 760.97 362.71 761.61 361.95 761.96 360.22 762.46 359.13 763.06 356.81 765.46 354.91 766.42 353.17 766.29 351.43 765.74 351.16 765.7 351.16 765.7 351.71 762.95 353.27 759.95 353.66 756.63 354.46 753.4 356.95 750.73 357.54 749.1 357.9 747.53 357.94 746.63 358.32 745.79 359.82 744.73 360.61 743.13 360.42 742.53 360.31 741.79 360.79 740.81 361.52 740 363.22 739.13 364.27 737.59 357.3 736.53 352.76 733.57 351.8 733.4 350.83 733.59 349.69 733.37 348.86 732.7 345.44 733.11 344.71 732.46 343.94 731.98 343.4 733.01 343.73 734.53 344.45 735.92 345.01 737.37 344.54 738.44 343.6 739.03 342.72 739.4 342.35 740.45 342.54 741.51 341.16 741.5 339.38 741.3 337.57 741.54 335.9 741.98 334.68 741.29 333.4 739.87 331.43 739.54 330.48 736.93 331.07 732.2 329.61 732.29 328.37 731.94 327.62 730.95 325.34 728.64 322.45 727.75 322 728.21 321.7 728.59 320.62 728.26 319.57 727.64 317.28 727.67 316.51 726.39 316.11 721.24 315.08 720.17 313.59 719.83 312.56 719.17 311.41 718.88 310.09 719.24 308.91 719.89 306.46 721.99 303.9 722.22 303.56 720.27 304.88 715.78 304.77 713.14 304.41 712.09 304.21 709.86 303.71 708.82 303.79 706.77 301.34 706.06 288.94 704.02 287.31 704.56 285.86 705.91 284.93 706.08 284.1 705.72 282.99 705.65 282.13 705.72 281.82 704.56 281.85 703.43 283.12 702.33 283.83 700.86 283.86 699.6 282.82 698.79 282.34 697.32 282.07 695.75 281.05 693.79 279.06 692.76 277.62 691.74 277.3 690.18 277.41 687.27 278.3 684.55 279.57 682.06 278.17 679.72 278.57 677.47 278.47 675.15 278.99 673.8 279.7 672.61 284.36 667.43 286.33 666.99 287.06 666.41 287.63 665.81 290.53 664.98 291.4 664.98 292.21 665.17 293.02 664.8 293.74 664.29 294.94 663.68 296.31 663.36 298.03 662.61 299.75 659.56 301.21 658.39 303.21 658.15 304.42 656.96 306.54 656.15 309.08 655.7 309.7 654.99 309.81 653.81 310.53 653.09 311.55 652.57 317.84 658.34 328.32 662.08 337.61 664.89 347.85 661.44 359.71 662.43 362.52 658.96 362.57 654.69 363.08 645.61 364.78 641.98 363.71 638.39 366.32 637.32 365.98 634.84 363.34 634.24 365.3 633.05 367.37 631.8 369.38 631.28 369.81 629.3 368.85 627.5 369.2 627.08 369.17 626.56 368.51 625.47 367.28 623.83 364.83 621.36 364.48 620.55 362.38 617.34 363.87 617.43 361.4 612.93 359.79 610.18 359.45 609.53 358.09 608.29 359.01 606.36 361.08 605.3 361.17 602.12 364.82 602.37 365.18 600.34 367.07 600.23 371.2 600.34 373.01 600.65 373.7 600.47 374.28 601.05 375.78 601.21 377.42 600.15 381.21 598.99 383 599.13 383.58 597.82 385.84 594.89 384.2 593.35 385.97 592.09 387.98 589.71 390.07 588.28 394.83 586.38 396.72 586.51 398.74 585.17 391.66 623.45 Z" id="MRT-2789" data-name="Assaba"/>
<path d="M 351.16 765.7 349.51 765.46 349.51 767.68 349.36 768.39 347.7 770.15 346.87 772.22 345.84 776.87 343.66 781.41 343.39 782.45 343.02 785.55 341.79 789.03 341.63 790.39 341.68 791 341.88 791.91 341.82 792.58 341.07 795.2 340.91 797.16 340.8 797.49 341.44 797.95 341.87 797.8 342.21 797.49 342.62 797.49 343.39 798.1 343.87 798.83 344.04 799.75 343.9 800.94 343.9 800.95 343.42 801.97 343.08 803.13 342.75 805.47 342.8 805.87 342.98 806.18 343.43 806.78 343.44 807.19 343.07 807.42 342.61 807.54 342.35 807.64 342.13 807.94 341.79 808.28 341.45 808.72 341.2 809.32 340.69 810.18 339.72 811 338.53 811.61 335.91 812.16 334.98 812.95 333.44 815.01 332.3 815.78 331.02 816.13 329.72 816.12 328.51 815.84 328.03 816.18 327.69 817.2 327.16 817.97 326.44 817.6 323.69 815.22 322.71 814.71 321.32 814.94 318.51 815.9 317.11 816.08 315.68 815.85 314.55 815.33 310.94 812.58 306.85 810.71 305.7 809.77 303.5 807.23 302.61 806.71 302.57 806.01 301.05 800.81 300.74 800.18 300.18 799.56 299.49 799.19 297.96 798.84 297.27 798.45 296.13 797.61 292.55 795.56 291.71 794.52 291.2 794.03 290.59 793.82 289.59 793.97 287.53 794.58 286.86 794.66 286.81 794.67 285.07 793.95 283.14 792.15 285.83 783.05 287.81 778.78 293.49 769.83 297.05 765.52 298.47 764.78 299.58 763.7 300.06 761.11 301.6 757.82 312.69 748.09 314.06 746.23 314.86 744.62 316.28 743.36 319.21 742.59 322.52 743.03 326.89 740.97 331.43 739.54 333.4 739.87 334.68 741.29 335.9 741.98 337.57 741.54 339.38 741.3 341.16 741.5 342.54 741.51 342.35 740.45 342.72 739.4 343.6 739.03 344.54 738.44 345.01 737.37 344.45 735.92 343.73 734.53 343.4 733.01 343.94 731.98 344.71 732.46 345.44 733.11 348.86 732.7 349.69 733.37 350.83 733.59 351.8 733.4 352.76 733.57 357.3 736.53 364.27 737.59 363.22 739.13 361.52 740 360.79 740.81 360.31 741.79 360.42 742.53 360.61 743.13 359.82 744.73 358.32 745.79 357.94 746.63 357.9 747.53 357.54 749.1 356.95 750.73 354.46 753.4 353.66 756.63 353.27 759.95 351.71 762.95 351.16 765.7 351.16 765.7 Z" id="MRT-2790" data-name="Guidimaka"/>
<path d="M 331.43 739.54 326.89 740.97 322.52 743.03 319.21 742.59 316.28 743.36 314.86 744.62 314.06 746.23 312.69 748.09 301.6 757.82 300.06 761.11 299.58 763.7 298.47 764.78 297.05 765.52 293.49 769.83 287.81 778.78 285.83 783.05 283.14 792.15 282.63 791.66 280.99 791.15 280.91 790.98 280.71 790.39 280.67 789.88 281.02 788.22 281.01 787.69 280.84 787.19 280.5 786.74 279.91 786.34 279.25 786.16 278.57 786.16 277.18 786.44 276.55 786.43 275.97 786.23 275.41 785.8 273.92 784.35 273.53 783.54 274.19 783.05 276.41 783.28 277.49 783.11 277.84 782.2 277.42 781.14 276.59 780.29 272.72 777.73 271.93 776.9 271.39 775.9 271.14 774.84 271.13 772.66 271.01 772.15 270.72 771.67 270.06 770.83 269.85 770.39 269.58 768.59 269.38 768.02 268.97 767.54 267.94 767.08 266.92 767.21 265.97 767.73 265.1 768.4 264.12 768.99 263.19 769.11 261.19 768.61 260.82 768.33 260.59 767.73 260.47 767.18 260.46 766.61 260.83 764.16 260.68 763.25 260.21 762.48 259.51 761.86 258.7 761.4 257.2 761.01 256.72 760.82 255.52 759.98 255.05 759.79 254.1 759.74 252.15 760.08 251.17 760.1 250.55 758.48 250.46 757.94 250.53 757.36 250.77 756.83 251.75 755.34 251.87 754.86 251.79 754.38 251.52 753.84 250.77 752.79 250.34 752.34 249.81 751.94 248.82 751.38 248.36 751.03 248.03 750.59 247.94 750.03 248.09 749.48 248.3 748.93 248.45 748.38 248.43 747.12 248.12 746.01 247.54 745.01 246.36 743.68 246.08 743.29 245.94 742.85 245.94 742.31 246.19 741.21 246.23 740.66 246.09 740.12 245.71 739.62 244.06 738.41 243.49 737.83 243 737.21 242.58 736.54 241.68 734.34 241.59 733.84 241.52 732.7 241.36 732.2 240.97 731.73 239.18 730.57 238.86 730.18 238.33 729.31 238.01 728.96 237.03 728.94 234.66 729.84 234 729.4 234.11 728.39 235.21 726.41 235.09 725.5 234.66 725.42 234.28 725.43 233.92 725.54 233.04 725.89 229.61 726.6 227.64 727.42 227.14 727.57 226.91 727.59 225.69 727.6 225.32 727.68 223.53 728.6 223.11 728.71 222.65 728.63 222.51 728.55 222.08 728.18 221.9 728.09 221.51 727.94 221.35 727.85 221.26 727.76 221.16 727.52 221.09 727.41 220.8 727.2 220.12 726.95 219.81 726.76 219.61 726.08 219.9 725.22 221.24 724.75 223.13 723.73 224.38 722.21 224.72 719.37 225.48 716.74 228.26 715.55 254.83 708.64 256.01 706.93 256.37 701.71 259.49 698.1 265.6 697.5 271.11 695.47 272.68 692.37 273.69 688.98 274.94 686.42 278.02 682.13 278.17 679.72 279.57 682.06 278.3 684.55 277.41 687.27 277.3 690.18 277.62 691.74 279.06 692.76 281.05 693.79 282.07 695.75 282.34 697.32 282.82 698.79 283.86 699.6 283.83 700.86 283.12 702.33 281.85 703.43 281.82 704.56 282.13 705.72 282.99 705.65 284.1 705.72 284.93 706.08 285.86 705.91 287.31 704.56 288.94 704.02 301.34 706.06 303.79 706.77 303.71 708.82 304.21 709.86 304.41 712.09 304.77 713.14 304.88 715.78 303.56 720.27 303.9 722.22 306.46 721.99 308.91 719.89 310.09 719.24 311.41 718.88 312.56 719.17 313.59 719.83 315.08 720.17 316.11 721.24 316.51 726.39 317.28 727.67 319.57 727.64 320.62 728.26 321.7 728.59 322 728.21 322.45 727.75 325.34 728.64 327.62 730.95 328.37 731.94 329.61 732.29 331.07 732.2 330.48 736.93 331.43 739.54 Z" id="MRT-2791" data-name="Gorgol"/>
<path d="M 698.11 271.88 698.08 271.94 697.62 272.94 593.79 491.25 592.91 493.1 395.96 494 394.57 494.01 370.62 512.7 369.33 513.7 367.83 524.74 367.5 527.1 352.71 519.5 338.85 528.61 309.47 546.85 301.97 554.75 288.19 569.15 250.75 540.28 187.12 540.28 187.19 522.31 187.26 512.42 191.5 402.45 190.29 400.72 182.32 388.44 200.55 388.44 218.69 388.43 234.01 388.43 245.83 388.43 253.43 388.43 256.13 388.43 265.66 388.43 264.95 377.89 264.56 372.25 264.7 372.29 266.33 372.8 307.14 387.24 410.65 376.28 689.3 196.92 689.34 196.89 689.38 197.26 689.85 201.29 690.88 210.15 691.92 219 692.39 223.03 693.31 230.89 694.23 238.74 695.15 246.6 696.07 254.45 696.99 262.31 697.9 270.16 698.11 271.88 Z" id="MRT-2795" data-name="Adrar"/>
<path d="M 754.27 767.69 754.26 767.77 754.2 768.08 754.13 768.4 754.13 768.42 754.13 768.43 754.13 768.44 754.13 768.46 754.13 768.47 754.13 768.48 754.13 768.49 754.13 768.51 754.13 768.51 754.12 768.52 754.11 768.53 754.11 768.53 754.1 768.54 754.09 768.55 754.09 768.56 754.08 768.57 754.07 768.57 754.05 768.57 754.04 768.57 754.03 768.57 754.01 768.57 754 768.57 753.99 768.57 753.97 768.57 753.95 768.56 753.93 768.55 753.91 768.54 753.89 768.54 753.87 768.53 753.85 768.52 753.83 768.52 753.8 768.51 743.57 768.51 734.84 768.5 730.74 768.5 726.32 768.5 721.59 768.5 716.58 768.5 707.87 768.49 701.46 768.49 698.55 768.49 688.71 768.49 678.43 768.48 667.8 768.48 656.91 768.47 645.84 768.47 634.69 768.47 623.54 768.46 612.47 768.46 601.58 768.46 590.95 768.45 580.67 768.45 570.83 768.44 561.51 768.44 552.8 768.44 547.24 768.43 542.04 768.43 537.21 768.43 532.8 768.43 526.81 768.43 526.82 768.42 526.97 768.3 527.31 767.9 529.66 765.59 529 744.9 525.36 737.26 522.63 731.54 535.54 714.65 533.94 710.09 543.26 700.98 547.42 696.46 558.39 684.77 573.29 669 562.16 657.21 553.17 647.68 517.27 652.12 517.45 651.75 592.91 493.1 593.79 491.25 697.62 272.94 698.08 271.94 698.11 271.88 698.83 278.02 699.74 285.87 700.67 293.73 701.58 301.58 702.5 309.43 703.42 317.29 704.34 325.15 705.26 333 706.18 340.86 707.1 348.71 708.02 356.57 708.94 364.42 709.86 372.27 710.77 380.13 711.69 387.99 712.61 395.84 713.53 403.7 714.45 411.55 714.9 415.37 715.88 423.75 716.86 432.14 717.3 435.95 718.12 442.97 719.06 451.11 719.99 459.24 720.93 467.38 721.87 475.51 722.81 483.65 723.74 491.78 724.67 499.92 725.61 508.05 725.61 508.06 725.61 508.06 725.61 508.06 726.59 517.02 727.01 520.82 727.43 524.61 727.84 528.41 728.26 532.21 728.92 538.25 729.58 544.28 730.25 550.32 730.91 556.35 731.57 562.39 732.23 568.43 732.9 574.47 733.56 580.51 734.22 586.54 734.89 592.58 735.55 598.61 736.21 604.65 736.85 610.52 737.5 616.39 738.15 622.26 738.79 628.14 739.44 634.01 740.08 639.88 740.72 645.75 741.37 651.63 742.02 657.5 742.66 663.37 743.3 669.24 743.95 675.11 744.59 680.99 745.24 686.86 745.89 692.74 746.53 698.61 746.81 701.23 747.39 702.27 747.95 703.31 750.51 705.03 752.91 706.63 755.79 708.55 758.36 710.27 761.03 712.05 763.64 713.79 763.95 714.12 764.26 714.45 764.33 714.87 764.39 715.28 764.03 717.21 762.83 723.37 761.65 729.53 760.45 735.68 759.27 741.84 758.05 748.16 756.82 754.48 755.6 760.8 754.38 767.13 754.32 767.44 754.27 767.69 Z" id="MRT-2796" data-name="Hodh ech Chargui"/>
<path d="M 517.27 652.12 553.17 647.68 562.16 657.21 573.29 669 558.39 684.77 547.42 696.46 543.26 700.98 533.94 710.09 535.54 714.65 522.63 731.54 525.36 737.26 529 744.9 529.66 765.59 527.31 767.9 526.97 768.3 526.82 768.42 526.81 768.43 525.81 768.43 517.82 768.42 515.57 768.42 504.29 768.42 504.7 762.48 505.58 758.03 505.38 755.93 503.82 755.26 502.55 756.04 498.57 760.66 497.62 762.39 497.61 764.28 498.65 768.4 498.65 768.4 499.43 772.01 483.27 772.65 480.1 773.28 478.81 773.83 475.12 775.93 472.63 776.53 465.09 775.87 457.53 776.94 454.88 776.87 453.36 776.43 450.99 774.96 449.67 774.34 449.16 774.3 447.97 774.52 447.4 774.51 441.83 772.35 440.93 772.23 437.79 772.47 436 772.13 429.36 772.02 428.37 772.19 427.1 771.93 426.03 772.1 423.87 772.82 423.86 772.79 418.52 739.62 416.67 737.14 412.54 734 411.24 732.67 411.49 732.26 411.49 730.44 412.26 729.34 412.3 727.5 412.66 725.73 412.46 723.54 411.44 721.59 409.62 720.19 407.44 719.43 407.21 718.37 407.78 717.46 406.94 715.94 407.14 714.96 407.54 714.02 407.85 712.2 408.27 711.49 408.81 710.86 409.34 709.46 409.23 708.08 408.42 707.6 405.75 706.81 405.14 705.33 406.04 704.56 407.18 704.23 408.53 704.24 411.91 702.44 412.5 701.29 413.96 700.35 414 698.73 415.51 698.61 416.33 697.69 416.37 696.86 416.01 696.26 415.06 696.45 414 696.83 413.25 695.99 411.37 696.96 410.31 696.66 409.27 696.5 407.34 695.62 405.97 693.76 405 691.79 405.18 689.6 404.47 688.49 403.49 687.41 402.27 686.88 401.05 686.77 400.54 685.95 400.21 684.98 398.83 683.34 397.46 682.45 397.03 681.06 397.67 680.21 398.17 679.28 397.28 677.71 397.49 676.56 397.46 675.41 397.11 673.65 397.12 671.84 398.16 664.01 397.77 662.35 396.7 661.36 396.15 660.03 397.19 654.45 397.74 653.26 398.11 652.02 397.23 649.66 397.7 647.31 397.39 645.02 393.02 636.39 391.74 629.8 390.74 627.69 390.88 625.56 391.66 623.45 412.46 629.23 440.28 636.77 479.98 634.29 480.47 634.65 517.27 652.12 Z" id="MRT-2797" data-name="Hodh el Gharbi"/>
<path d="M 517.27 652.12 480.47 634.65 479.98 634.29 440.28 636.77 412.46 629.23 391.66 623.45 398.74 585.17 396.72 586.51 394.83 586.38 390.07 588.28 387.98 589.71 385.97 592.09 384.2 593.35 385.84 594.89 383.58 597.82 383 599.13 381.21 598.99 377.42 600.15 375.78 601.21 374.28 601.05 373.7 600.47 373.01 600.65 371.2 600.34 367.07 600.23 365.18 600.34 364.82 602.37 361.17 602.12 361.08 605.3 359.01 606.36 358.09 608.29 359.45 609.53 359.79 610.18 361.4 612.93 363.87 617.43 362.38 617.34 364.48 620.55 364.83 621.36 367.28 623.83 368.51 625.47 369.17 626.56 369.2 627.08 368.85 627.5 369.81 629.3 369.38 631.28 367.37 631.8 365.3 633.05 363.34 634.24 365.98 634.84 366.32 637.32 363.71 638.39 364.78 641.98 363.08 645.61 362.57 654.69 362.52 658.96 359.71 662.43 347.85 661.44 337.61 664.89 328.32 662.08 317.84 658.34 311.55 652.57 305.08 647.35 296.28 638.48 298.11 616.48 297.88 616.48 298.8 605.55 300.58 587.56 288.19 569.15 301.97 554.75 309.47 546.85 338.85 528.61 352.71 519.5 367.5 527.1 367.83 524.74 369.33 513.7 370.62 512.7 394.57 494.01 395.96 494 592.91 493.1 517.45 651.75 517.27 652.12 Z" id="MRT-2798" data-name="Tagant"/>
</g>
</svg>