<?xml version="1.0"?>
<svg xmlns="http://www.w3.org/2000/svg" version="1.2" baseProfile="tiny" width="800" height="927" viewBox="0 0 800 927" stroke-linecap="round" stroke-linejoin="round">
<g id="ne_10m_admin_1_states_provinces">
<path d="M 443.15 350.46 443.15 350.46 440.63 354.1 438 356.41 434.81 358.18 430.75 359.97 427.11 362.16 430.18 368.23 437.03 373.24 438.63 380.43 433.35 386.12 425.47 388.67 417.36 390.21 415.38 390.16 413.39 389.86 409.26 390.53 405.52 390.17 402.05 390.58 401.07 394.52 401.98 398.58 402.01 400.28 401.84 402.02 402.54 404.45 405.42 410.48 406.39 414.59 407.64 417.98 410.98 419.6 418.78 420.6 422.36 421.69 423.92 425.33 428.83 444.25 428.11 447.92 426.54 451.62 424.49 455.09 418.48 461.13 413.94 466.99 430.6 481.49 432.56 484.98 430.3 488.59 428.35 493.22 417.93 505.08 412.1 510.06 404.15 511.86 384.26 512.64 379.88 511.67 377.25 512.82 374.75 515.27 367.23 517.36 353.49 519.76 353.05 519.33 352.31 518.04 352.28 517.13 352.87 515.3 352.96 514.39 352.59 513.15 351.47 510.86 348.44 502.55 348.46 501.02 349.58 498.77 350.11 494.19 350.67 491.76 352.3 489.15 354.17 487.09 355.37 484.82 354.92 481.6 354.2 478.9 354.18 476.3 354.77 473.7 359.08 464.39 359.8 460.95 358.85 457.77 356.36 452.66 355.06 451.26 350.84 448.36 348.5 445.21 344.93 442.97 340.89 441.19 337.94 440.33 336.12 440.62 334.47 441.39 332.85 441.94 331.13 441.54 329.19 440.75 327.38 440.76 325.62 441.36 323.84 442.31 323.65 438.35 322.87 433.98 321.57 429.73 319.78 426.1 317.02 423.39 313.14 421.51 308.89 420.85 305.04 421.87 304.27 420.84 303.42 420.13 302.39 419.72 298.6 419.29 297.77 419.57 297.37 420.27 297.08 421.04 296.63 421.51 295.23 422.02 294.55 422.16 293.92 421.69 289.02 415.85 289.12 412.84 290.24 410.22 295.04 403.83 296.36 402.09 297.45 401.06 298.55 399.69 298.44 398.57 297.89 397.39 297.69 395.83 298.14 394.78 299.64 392.84 299.8 391.73 298.97 390.43 297.7 390.2 296.46 390.17 295.77 389.44 295.32 381.79 294.82 379.2 293.79 375.91 293.26 373.25 293.74 370.72 297.35 365.35 301.1 356.93 303.36 354.53 311.19 350.21 313.18 347.93 313.59 345.74 312.94 343.57 311.74 341.36 314.96 336.89 320.21 336.18 326.16 336.85 331.48 336.56 332.91 336.02 333.51 335.58 333.9 335.02 341.76 328.23 342.46 325.96 342.78 320.52 345.85 316.11 350.73 311.92 354.36 307.55 353.66 302.62 353.3 301.31 354.1 300.45 355.36 299.7 356.33 298.71 356.53 297.27 355.72 296.42 353.19 295.15 351.17 293.31 349.4 291.22 347.91 288.9 346.73 286.42 345.08 281 343.63 278.84 338.55 276.5 336.9 274.28 336.03 271.58 336.14 263.58 335.85 260.81 334.28 254.19 333.64 253.01 332.5 252.12 331.3 251.62 330.39 251.03 330.22 250.44 331.92 249.56 333.64 249.02 335.66 248.73 339.68 247.8 340.3 247.72 340.98 247.72 345.67 248.09 346.99 247.98 348.92 247.62 349.84 247.29 350.43 247.16 351.09 247.11 352.98 247.46 354.17 247.58 359.29 246.62 359.88 246.76 360.39 247.11 361 248.11 361.18 249.03 361.28 250.79 361.46 251.62 362.02 253.29 362.93 260.02 363.2 260.81 363.66 261.5 366.8 263.71 369.09 264.71 380.59 268.2 386.31 268.99 387.18 268.79 387.97 268.72 388.85 268.79 389.86 269.08 391.18 269.62 393.53 271.27 394.32 272.25 395.56 274.4 396.46 275.28 397.63 276.01 403.55 278.98 407.58 281.67 410.37 282.61 413.12 283.14 415.88 283.28 419.29 283.08 420.08 283.18 420.82 283.47 422.04 285.05 422.4 285.4 423.14 285.8 426.12 287.07 427.02 287.56 427.55 287.94 427.66 288.09 429 290.99 429.24 291.98 429.24 292.29 429.17 292.8 429.01 293.3 428.74 293.74 428.32 294.06 427.78 294.22 426.51 294.39 425.39 294.71 424.93 294.99 424.53 295.3 424.23 295.71 423.81 296.47 423.6 296.7 423.27 296.95 422.83 297.1 422.5 297.29 422.27 297.5 421.72 298.44 421.43 298.76 420.66 299.25 420.44 299.54 420.33 299.9 420.34 300.47 420.64 302.26 420.97 303.37 421.2 303.86 422.61 306.06 422.87 307.03 422.89 307.93 421.92 313.49 421.97 321.24 422.3 323.06 423.69 327.42 423.79 328.01 423.78 328.63 423.63 329.16 422.24 331.33 422.08 331.68 422.01 331.92 421.95 332.19 421.88 333.26 421.92 334.57 422.27 337.13 422.4 337.7 422.61 338.21 423.06 338.69 423.72 339.12 429.26 341.06 429.76 341.3 430.15 341.66 430.86 342.12 431.06 342.62 431.09 343.11 431.35 343.61 431.94 343.99 433.62 344.53 434.65 345.18 434.55 345.79 434.57 346.33 434.81 346.71 435.33 347.03 436.25 346.93 439.63 347.89 440.21 348.16 440.64 348.54 440.88 349.02 441 349.63 441.05 350.3 441.17 350.84 441.43 351.09 441.96 350.77 442.25 350.39 442.52 350.24 442.9 350.24 443.15 350.46 Z" id="COG-2185" data-name="Cuvette-Ouest"/>
<path d="M 296.89 870.02 296.78 869.99 293.8 870.18 292.82 869.93 291.66 868.91 290.17 866.13 289.2 864.84 286.82 863.29 284.65 863.07 277.92 865.42 276.7 866.09 276.28 867.3 277.42 877.53 277.04 879.58 275.39 883.87 275.01 886.19 276.43 890.75 275.73 891.67 274.94 891.58 274.06 891.33 273.2 891.78 272.76 892.94 273.05 894.89 272.5 895.63 271.56 895.73 269.14 895.05 268.11 894.99 265.9 896.42 263.6 900.68 262.38 901.07 262.37 901.03 262.28 900.66 261.8 897.54 261.59 896.76 261.19 895.96 260.54 895.12 259.45 894.26 257.66 893.13 253.52 891.11 245.8 885.83 244.96 885.55 243.28 885.23 242.54 884.79 241.94 883.99 241.54 882.81 241.34 880.97 241.12 880.17 240.52 879.27 239.42 878.15 238.27 876.72 237.22 874.88 236.16 873.51 235.6 871.97 234.68 870.1 230.17 863.8 227.9 861.73 226.36 860.84 224.58 860.75 222.95 860.13 222.15 860.02 221.34 859.99 220.55 859.74 218.94 859.04 218.15 859 216.61 859.15 215.85 859.04 215.05 858.71 214.33 858.26 213.56 858.05 212.77 858.11 211.93 858.29 211.13 858.34 209.41 858.04 207.72 858.09 206.75 857.67 205.65 856.83 203.99 854.84 202.85 854.07 201.93 853.62 201.27 853.56 200.81 853.41 199.72 851.94 192.2 837.18 188.54 831.79 186.52 827.92 185.19 826.09 182.9 823.76 178.13 820.17 177.39 819.49 171.71 813 167.9 806.39 165.51 803.25 164.72 802.52 163.07 801.27 159.89 799.33 159.28 798.68 159 797.85 159.64 796.35 160.25 795.33 160.91 794.49 161.61 794.01 162.36 793.69 162.95 793.23 163.27 792.49 161.99 789.59 161.78 788.78 161.7 787.05 162.59 785.31 162.71 784.41 161.5 781.56 160.35 776.17 160.29 774.33 160.42 773.17 160.61 772.34 160.89 771.64 161.81 770.35 164.55 768.05 164.89 768.58 166.17 768.34 168.28 767.35 169.24 767.12 171.61 767.67 171.03 770.35 173.28 771.41 177.53 771.19 179.28 771.67 180.52 773.64 179.06 774.36 180.66 774.93 181.02 775.9 180.96 777.2 181.24 778.77 181.65 779.06 183.03 779.23 183.48 779.42 183.74 780.01 183.88 781.18 184.14 781.67 185.01 782.67 185.48 783.41 187.08 788.23 187.93 789.27 189.26 789.62 188.56 791.66 188.14 792.15 187.64 792.93 188.1 793.48 189.26 794.04 189.26 798.02 190.29 800.28 193.58 802.85 194.83 803.22 195.12 803.5 196.09 804.06 198.6 804.84 199.3 805.52 199.72 806.25 200.05 806.96 200.57 807.37 201 807.56 201.53 807.72 202.08 808.01 202.51 808.6 202.88 809.28 203.39 809.95 204.14 810.39 205.16 810.5 206.35 810.44 208.28 810.08 213.79 809.56 214.61 809.6 215.48 809.74 218.03 810.63 219.31 810.42 224 808.82 225.61 808.62 226.86 808.72 229.21 810.27 229.97 810.63 230.96 810.65 233.59 810.24 235.6 810.65 236.36 810.73 236.99 810.25 237.67 810.44 238.14 810.96 238.67 811.72 238.92 812.51 238.74 813.31 238.46 814.11 238.33 814.92 238.41 815.74 240.17 820.84 240.63 821.6 241.29 822.24 242.03 822.59 242.82 822.77 244.44 822.91 247.87 823.6 249.03 823.53 250.84 823.17 252.41 822.68 253.75 822.07 254.17 821.77 254.74 821.12 255.27 820.25 256.11 816.3 256.16 815.5 256.09 813.87 256.16 813.07 256.64 812.11 257.49 811.03 260.31 808.2 261.01 806.88 261.16 805.95 261.14 805.07 261.21 804.3 261.56 803.54 262.58 802.64 263.45 801.64 264.27 800.24 264.54 799.58 264.51 799.22 263.65 798.87 263.28 798.57 263.2 798.13 263.55 796.83 263.53 796.67 263.4 796.57 263 796.49 262.45 796.51 261.92 796.45 261.46 796.22 261.26 795.7 261.11 793.95 261.13 793.71 261.19 793.49 261.52 793.25 262.05 793.05 263.45 792.69 264.25 792.74 264.96 792.88 265.43 793.12 265.95 793.28 266.64 793.24 267.37 792.95 269.14 791.86 269.6 791.41 269.6 790.34 269.76 789.91 270.7 789.61 271.49 789.53 272.23 789.57 273.86 790.08 274.38 790.13 275.46 790.03 276 790.13 276.49 790.08 276.94 789.78 277.08 788.86 277.04 787.45 277.15 786.81 277.73 785.96 278.43 785.21 279.91 784.18 280.82 783.73 282.03 783.29 282.39 782.91 282.74 782.29 283.24 780.95 283.31 780.11 283.25 779.42 283.15 778.93 283.2 778.37 283.37 777.87 283.6 777.35 283.97 776.88 284.5 776.43 285.47 776.07 286.24 775.92 288.07 774.56 292.1 769.14 295.88 771.28 296.89 771.48 299.87 771.74 301.16 772.14 302.82 772.95 303.92 773.27 304.86 773.39 309.37 772.99 310.35 772.73 311.16 772.34 317.12 765.11 317.95 764.43 320.09 763.01 320.68 762.44 321.46 760.94 322.18 760.38 322.86 760.63 324.12 761.84 324.84 762.33 328.88 763.97 331.14 764.39 332.68 765.09 333.35 765.96 334.16 766.66 334.72 767.45 335.66 769.18 336.41 770.22 336.92 771.08 337.08 771.88 337.05 773.4 337.57 775.83 337.96 776.73 338.76 777.75 339.24 778.53 339.5 779.1 339.06 779.23 336.38 780.66 335.59 780.88 334.78 781.22 333.3 782.98 332.29 783.77 330.74 783.98 329.68 783.59 329.23 783.65 329.47 785.29 332.29 790.41 334.58 793.06 338.09 798.74 338.1 800.63 338.39 802.38 339.35 803.67 341.38 804.17 343.37 805.22 344.56 807.71 345.55 810.63 346.91 812.91 345.62 813.34 344.75 814 343.22 815.81 341.56 818.26 341.05 818.78 336.64 818.78 333.21 816.74 332.29 816.54 331.77 817.09 331.25 819.26 330.91 820.16 330.2 820.92 324.8 824.68 323.42 826.06 322.16 828.12 324.05 832.34 323.95 834.11 322.16 835.35 322.96 836.14 321.27 836.86 317.73 837.74 316.31 838.31 315.2 839.16 312.04 842.66 309.62 844.48 305.8 846.35 304.24 846.65 303.62 847.16 303.12 847.76 302.89 848.14 301.98 851.27 301.38 858.42 301.15 859.49 299.9 861.93 299.58 862.75 299.15 864.31 298.79 865.09 297.69 866.9 296.89 869.95 296.89 870.01 296.89 870.02 Z" id="COG-2626" data-name="Bouenza"/>
<path d="M 797.3 25.53 798.17 28.46 799 41.75 797.81 57.1 796.82 59.47 796.59 60.73 795.89 62.49 794.22 63.92 790.49 65.81 788.3 67.3 786.92 69.21 783.41 79.67 781.75 82.29 781.34 83.37 780.91 85.7 780.44 86.79 778.52 89.54 775.97 94.93 775.62 96.34 775.25 99.21 772.59 106.43 764.48 120.14 764.16 121.02 763.08 121.38 757 127.07 755.61 128.8 754.77 130.51 753.6 136.74 752.93 138.83 752.01 140.83 750.83 142.76 749.35 146.45 748.27 148.04 746.46 148.59 746.03 149.67 743.48 152.72 742.69 153.95 738.58 165.11 738.58 166.68 739.21 169.91 739.47 173.15 738.97 183.3 739.57 188.18 739.55 189.86 739.21 191.69 738.13 195.2 737.91 197.02 738.71 227.41 738.47 229.62 732.21 243.35 731.61 245.42 731.12 249.3 727.41 261.18 727.02 267.78 726.27 269.88 721.87 277.26 719.51 279.87 717.47 283.87 716.77 286.31 718 293.67 717.96 302.08 721.12 315.58 721.11 318.49 719.52 326.67 719.59 329.66 720.23 332.25 722.26 337.34 723.81 338.21 724.93 339.93 725.6 341.97 725.82 343.79 725.13 354.08 724.54 355.78 715.43 368.52 707.1 391.27 705.16 395.07 700.84 414.83 700.56 417.49 700.83 420.17 703.43 430.77 704.36 449.56 703.56 450.61 702.08 452.7 695.31 459.02 694.73 459.77 694.28 460.59 694.07 462.14 693.91 462.58 693.56 462.96 692.31 463.87 690.95 465.44 688.74 467.07 682.77 474.26 682.72 474.23 682.33 474 681.23 473.62 654.64 473.16 652.73 472.83 651.64 472.42 650.52 471.33 650.39 469.28 650.14 468.72 649.71 468.46 649.02 467.83 648.11 467.3 647.41 467.33 646.95 467 646.46 463.13 646.54 461.94 647.72 459.87 647.57 458.57 646.17 454.06 646.26 453.38 648.33 448.56 648.75 446.25 647.94 444.25 646.32 442.74 644.19 441.27 642.2 441.04 640.99 443.23 639.67 440.79 640.44 437.95 643.96 432.96 642.11 431.43 640 430.88 639.21 430.03 643 425.59 642.96 424.68 641.35 424.29 641.03 423.72 641.16 415.53 641.89 414.01 643.56 413.43 644.76 412.39 644.54 410.05 643.16 406.12 642.73 404.14 642.5 397.01 642.12 394.92 640.52 389.93 640.33 387.97 640.94 386.61 641.97 385.89 643.17 385.37 644.32 384.67 645.2 383.52 645.23 382.59 644.89 381.59 644.41 379.05 643.29 376.63 643.16 375.67 643.76 374.44 644.52 374.41 645.33 374.63 646.13 374.15 646.43 373.04 646.56 372.18 646.43 371.77 643.65 366.78 636.19 355.98 634.59 354.37 630.16 352.3 594.77 306.5 593.79 304.75 593.03 303.03 592.47 300.09 592.37 289.47 592.69 288.12 593.22 287.31 594.51 285.82 595.32 285.1 596.15 284.56 598.67 283.35 600.21 282.43 600.9 281.79 601.4 281.03 601.75 280.24 601.88 279.44 601.89 273.89 602.3 272.35 602.8 271.14 603.36 270.31 603.55 268.82 603.28 266.83 600.96 257.58 600.12 256.26 599.33 255.33 598.57 254.59 598 253.82 597.23 252.16 594.96 245.76 594.71 244.34 594.83 242.7 595.03 241.62 595.07 240.67 594.84 239.92 593.36 238.61 592.95 237.78 593.16 236.73 593.52 235.91 593.94 235.28 595.79 233.12 596.24 232.33 596.46 231.51 596.43 230.53 595.13 221.61 594.04 218.96 593.74 217.91 593.97 216.71 595 214.88 599.07 203.65 599.25 202.67 599.19 201.25 598.38 199.18 597.02 193.84 596.9 192.92 596.92 192 597.19 189.9 596.9 185.5 596.22 183.05 595.43 176.5 595.53 174.79 595.79 173.07 596.05 172.22 596.47 171.49 597.12 170.94 598.56 170.27 599.16 169.82 599.46 169.15 599.58 168.38 599.19 166.3 598.15 164.71 597.06 161.45 596.75 156.4 597.65 149.57 597.32 146.22 597.44 143.67 597.25 142.45 596.72 140.95 591.54 131.73 590.92 130.93 590.18 130.18 588.28 129.17 584.58 127.78 583.69 127.86 582.85 128.09 580.32 129.04 579.6 129.16 579.07 129.16 578.76 129.06 578.55 128.8 578.24 128.22 578.17 125.39 577.93 124.47 577.42 123.51 573.57 119.24 572.71 118.49 572 118.02 571.54 117.81 570.91 117.25 570.32 116.32 569.99 114.47 570.12 113.3 570.53 112.4 570.75 111.51 570.56 110.47 569.86 108.95 568.51 107.08 565.67 105.76 564.22 105.07 566.67 99.86 569.7 93.43 570.19 90.87 569.26 88.97 567.72 87.25 566.43 85.25 566.13 80.57 570.23 72.69 570.93 68.89 570.12 66.52 569.02 64.35 568.17 62.11 568.25 59.49 569.48 57.06 573.12 51.99 573.73 49.72 573.79 47.11 576.44 40.44 577.39 31.58 579.08 26.85 582.35 22.9 586.69 20.05 591.66 18.6 594.1 18.44 596.24 18.6 604.97 20.78 607.21 20.65 609.29 19.6 609.5 18.7 609.2 17.58 609.34 16.71 610.9 16.55 611.89 16.81 613.83 17.53 614.81 17.71 617.75 17.36 618.79 17.45 619.95 18.11 620.72 19 621.58 19.53 622.99 19.05 623.81 18.89 625.24 19.08 625.88 19.04 626.77 18.65 627.97 17.61 628.7 17.13 630.46 16.3 631.42 16.07 634.28 16.25 635.73 16.02 638.58 14.91 640.04 14.51 644.29 14.64 645.81 14.41 647.59 13.61 648.54 12.63 649.41 11.51 650.87 10.29 652.41 9.73 653.77 9.87 656.5 10.79 660.35 10.51 662.62 8.4 664.73 5.75 668.84 3.64 670.22 2.93 671.83 1.74 673.55 1 675.98 1.37 676.44 1.85 676.86 3.24 677.37 3.66 678.85 3.81 679.34 4.08 683.26 7.37 687.1 9.06 691.4 9.69 700.07 9.68 700.64 9.56 701.87 9.1 702.63 9.06 703.34 9.39 704.37 10.56 705.04 10.94 706.01 10.96 708.06 10.54 708.98 10.62 710.59 11.57 711.95 13.11 712.95 15.06 713.45 17.16 714.17 18.82 715.69 19.12 717.69 18.55 721.74 16.58 722.35 16.12 722.9 16.35 726.65 18.72 727.67 19.1 728.98 18.96 732.29 17.36 735.9 16.38 739.6 16.35 743.25 17.56 745.11 19.39 746.46 23.62 747.85 25.16 750.15 25.47 752.37 24.42 754.23 22.66 755.45 20.83 755.86 19.8 756.61 16.6 757.25 15.14 758.03 14.89 758.98 15.15 760.15 15.19 768.6 14.44 769.23 14.58 770.43 15.18 771.17 15.19 771.58 14.81 772.02 13.36 772.49 12.92 773.69 12.76 775.49 12.86 776.45 12.45 778.39 10.57 779.57 9.15 780.95 9.08 783.6 11.26 785.33 13.3 789.67 20.28 791.35 24.18 792.65 25.47 797.3 25.53 Z" id="COG-2838" data-name="Likouala"/>
<path d="M 630.16 352.3 555.1 389.61 554.77 389.29 554.45 388.89 554.19 388.4 554 387.87 553.89 387.35 553.73 386.92 553.63 386.71 553.49 386.55 552.98 386.51 549.78 386.78 549.12 386.63 548.76 386.34 548.42 385.94 547.59 384.61 547.23 384.25 546.8 383.95 545.27 383.29 544.83 383.02 544.41 382.7 543.59 381.96 543.03 381.66 542.04 381.51 541.45 381.59 540.83 381.81 538.87 382.78 537.97 382.96 537.22 382.99 536.64 382.82 534.59 381.86 533.95 381.64 533 381.47 532.66 381.21 532.5 380.94 532.73 378.51 532.72 377.59 532.5 376.56 532.3 376.08 532.01 375.71 531.75 375.5 530.99 375.05 530.61 374.77 530.3 374.41 530.08 373.96 529.95 373.49 529.92 373.16 530.07 367.31 529.98 366.8 528.07 362.92 527.44 362.08 526.17 361.16 524.7 359.73 524.24 359.46 523.75 359.23 519.34 357.88 516.79 357.37 516.07 357.13 515.64 356.84 515.24 356.51 514.94 356.09 514.71 355.61 514.59 355 514.55 353.02 514.36 352.49 514.03 352.09 513.66 351.73 512.68 351.26 510.55 350.48 510.07 350.24 509.18 349.66 508.78 349.33 508.09 348.59 507.63 348.32 507.16 348.08 506.72 347.79 506.35 347.44 505.69 347.06 502.21 346.45 499.59 346.41 497.01 345.79 496.48 345.75 496.11 345.82 495.2 346.34 494.54 346.64 493.5 346.93 492.8 346.9 492.32 346.64 492.04 346.2 491.81 345.63 491.46 345.15 490.71 344.75 489.89 344.66 488.68 344.71 488.12 344.83 487.72 344.98 486.97 345.39 486.76 345.48 483.54 345.72 483.13 345.82 482.28 346.33 481.75 346.58 481.09 346.76 480.17 346.9 479.52 347.11 479.03 347.37 478.46 347.89 478.24 348.04 477.67 348.24 476.4 348.42 475.94 348.53 475.58 348.66 475.35 348.77 475.15 348.96 474.95 349.21 474.54 350.14 474.04 351.81 473.81 352.32 473.55 352.79 473.21 353.17 471.91 354.04 471.55 354.37 470.1 356.12 469.44 356.5 468.79 356.59 468.17 356.5 467.67 356.29 466.73 355.63 466.04 355.32 464.93 355.05 463.85 355.2 463.28 355.22 462.73 355.15 462.32 354.92 461.91 354.63 461.41 354.46 460.92 354.25 459.56 353.87 458.42 353.71 457.68 353.54 456.1 353.02 454.79 352.75 454.06 352.88 453.38 353.14 452.81 353.51 451.89 353.94 451.18 354 450.48 353.99 448.52 353.76 445.24 352.88 444.81 352.97 443.92 353.34 443.49 353.2 443.24 352.81 443.24 352.27 443.44 351.36 443.46 351.01 443.3 350.6 443.15 350.46 442.9 350.24 442.52 350.24 442.25 350.39 441.96 350.77 441.43 351.09 441.17 350.84 441.05 350.3 441 349.63 440.88 349.02 440.64 348.54 440.21 348.16 439.63 347.89 436.25 346.93 435.33 347.03 434.81 346.71 434.57 346.33 434.55 345.79 434.65 345.18 433.62 344.53 431.94 343.99 431.35 343.61 431.09 343.11 431.06 342.62 430.86 342.12 430.15 341.66 429.76 341.3 429.26 341.06 423.72 339.12 423.06 338.69 422.61 338.21 422.4 337.7 422.27 337.13 421.92 334.57 421.88 333.26 421.95 332.19 422.01 331.92 422.08 331.68 422.24 331.33 423.63 329.16 423.78 328.63 423.79 328.01 423.69 327.42 422.3 323.06 421.97 321.24 421.92 313.49 422.89 307.93 422.87 307.03 422.61 306.06 421.2 303.86 420.97 303.37 420.64 302.26 420.34 300.47 420.33 299.9 420.44 299.54 420.66 299.25 421.43 298.76 421.72 298.44 422.27 297.5 422.5 297.29 422.83 297.1 423.27 296.95 423.6 296.7 423.81 296.47 424.23 295.71 424.53 295.3 424.93 294.99 425.39 294.71 426.51 294.39 427.78 294.22 428.32 294.06 428.74 293.74 429.01 293.3 429.17 292.8 429.24 292.29 429.24 291.98 429 290.99 427.66 288.09 427.55 287.94 427.02 287.56 426.12 287.07 423.14 285.8 422.4 285.4 422.04 285.05 420.82 283.47 420.08 283.18 419.29 283.08 415.88 283.28 413.12 283.14 410.37 282.61 407.58 281.67 403.55 278.98 397.63 276.01 396.46 275.28 395.56 274.4 394.32 272.25 393.53 271.27 391.18 269.62 389.86 269.08 388.85 268.79 387.97 268.72 387.18 268.79 386.31 268.99 380.59 268.2 369.09 264.71 366.8 263.71 363.66 261.5 363.2 260.81 362.93 260.02 362.02 253.29 361.46 251.62 361.28 250.79 361.18 249.03 361 248.11 360.39 247.11 359.88 246.76 359.29 246.62 354.17 247.58 352.98 247.46 351.09 247.11 350.43 247.16 349.84 247.29 348.92 247.62 346.99 247.98 345.67 248.09 340.98 247.72 340.3 247.72 339.68 247.8 335.66 248.73 333.64 249.02 331.92 249.56 330.22 250.44 330.06 249.85 328.8 249.61 328 249.03 327.32 248.33 326.4 247.7 322.23 246.56 320.1 246.35 318.19 246.85 314.4 248.31 312.16 248.18 310.49 246.98 308.93 245.45 307 244.29 305.17 243.89 285.15 242.02 283.65 242.39 283.57 242.89 282.57 245.63 281.28 248.16 280.93 248.39 279.79 248.82 279.47 248.72 278.23 248.12 277.69 248.01 276.97 248.29 275.7 249.28 275.01 249.62 273.06 249.98 272.09 250.04 271.09 250 268.99 250.19 267.49 251.17 266.11 252.31 262.31 253.78 259.89 257.04 258.52 258.02 254.97 258.68 251.77 258.7 248.49 258.07 244.79 256.75 243.18 256.6 240.87 256.86 238.8 257.43 237.94 258.23 237.26 260.11 235.47 260.59 233.54 260.86 231.57 263.27 229.63 264.12 227.44 264.56 223.79 264.29 221.63 264.64 220.51 264.49 220.51 264.48 220.18 263.01 219.18 262.33 217.9 261.82 216.83 260.87 218.85 260.66 219.64 259.36 220.03 257.88 220.87 257.18 222.36 256.97 224.16 256.36 225.67 255.34 226.67 253.22 227.32 252.84 227.55 252.28 226.66 251 226.31 250.28 226.26 249.47 226.33 248.61 226.19 243.59 226.3 242.71 224.6 241.65 222.69 236.52 220.51 235.4 221.15 233.9 221.02 232.45 220.27 231.2 219.07 230.28 218.34 231.06 216.38 228.35 214.65 225.27 216.47 223.18 216.81 220.63 216.17 215.8 216.58 213.57 217.3 211.58 217.61 209.73 216.83 207.91 218.17 207.13 219.25 205.72 220.06 204.12 221.16 200.23 221.31 198.53 220.87 197.28 220.33 196.49 219.47 194.57 218.1 192.69 218.54 192.21 219.8 191.85 220.51 190.19 221.24 188.96 221.95 188.11 222.65 187.45 223.2 186.71 223.42 185.63 222.81 183.65 222.85 182.76 223.81 182.38 224.37 181.99 226.3 179.88 226.93 179.39 230.71 177.31 231.8 174.77 232.17 171.36 232.14 165 250.37 165.17 266.67 165.32 271.11 165.35 288.25 165.5 307.21 165.67 324.06 165.81 335.21 165.92 336.19 165.8 340.86 163.98 347.58 164.89 349.24 165.84 351.29 167.74 352.8 168.07 353.42 167.87 355.59 166.54 363.94 164.76 364.9 164.42 365.24 163.51 365 162.53 364.97 161.55 365.96 160.62 366.5 159.94 369.22 160.69 372.73 164.6 375.26 165.73 374.36 167.41 375.39 167.94 378.14 167.84 379.62 168.73 381.71 170.89 383.28 171.52 382.56 168.93 383.32 168.55 386.18 170.08 384.66 171.26 384 171.52 385.04 171.89 386.15 171.77 387.08 171.52 387.62 171.52 387.74 172.27 387.64 174.64 387.98 175.14 394.5 174.42 396.08 174.03 396.82 173.04 397.03 171.75 397.03 170.44 397.75 169.79 399.29 171.3 400.68 173.37 401.02 174.42 403.09 175.83 401.95 178.8 401.51 181.4 405.72 181.72 408.02 181.46 408.99 180.97 409.84 178.42 410.87 178.57 415.91 182.57 417.54 183.04 419.6 182.38 420.85 184.26 422.62 183.73 424.32 181.99 425.39 180.27 426.04 180.27 427.59 180.86 428.99 177.73 432.37 178.97 433.8 178.37 435.45 177.88 437.68 178.76 438.21 179.39 438.79 181.01 439.21 181.72 439.79 182.04 443.39 183.37 444.22 184.03 444.83 184.86 445.06 185.63 444.91 187.02 444.73 187.62 444.88 188.06 445.71 188.96 446.23 189.04 448.72 190.16 448.67 190.4 449.92 190.21 451.92 189.19 454.05 188.48 459.46 185.27 464.1 184.64 468.73 185.49 477.76 188.17 487.83 189.29 488.29 189.77 489.39 190.38 490.72 190.9 493.19 191.3 493.96 191.75 498.01 196.92 499.34 197.61 502.17 198.59 504.7 200.26 505.73 200.76 506.44 201.5 506.71 203.1 507.24 203.99 508.5 203.94 509.92 203.39 511.05 202.77 511.38 204.44 512.95 205.22 515.01 205.67 516.84 206.39 517.93 205.8 519.2 205.83 520.37 206.32 521.24 207.11 521.7 208.33 521.55 209.37 521.24 210.37 521.24 211.46 522.14 213.3 526.31 218.69 531.08 211.85 532.01 211.59 534.29 212.36 535.43 211.85 535.77 210.19 533.23 198.47 529.65 189.2 527.76 186 526.85 185.19 526.19 184.87 525.79 184.31 525.67 180.39 525.95 179.37 527.57 177.11 527.55 176.18 527.19 175.35 527.04 174.42 526.98 174.36 526.91 174.08 526.91 173.6 527.04 172.97 527.35 172.51 527.82 172.37 528.25 172.35 528.48 172.24 528.71 170.74 528.43 169.76 527.98 168.83 527.76 167.47 528 166.26 529.27 163.89 529.97 161.56 531.67 160.52 533.82 160.9 535.79 162.77 540.05 159.59 540.93 158.43 540.36 157.48 539.75 157.01 545.2 145.44 550.02 135.22 553.43 127.96 558.25 117.74 562.76 108.17 564.22 105.07 565.67 105.76 568.51 107.08 569.86 108.95 570.56 110.47 570.75 111.51 570.53 112.4 570.12 113.3 569.99 114.47 570.32 116.32 570.91 117.25 571.54 117.81 572 118.02 572.71 118.49 573.57 119.24 577.42 123.51 577.93 124.47 578.17 125.39 578.24 128.22 578.55 128.8 578.76 129.06 579.07 129.16 579.6 129.16 580.32 129.04 582.85 128.09 583.69 127.86 584.58 127.78 588.28 129.17 590.18 130.18 590.92 130.93 591.54 131.73 596.72 140.95 597.25 142.45 597.44 143.67 597.32 146.22 597.65 149.57 596.75 156.4 597.06 161.45 598.15 164.71 599.19 166.3 599.58 168.38 599.46 169.15 599.16 169.82 598.56 170.27 597.12 170.94 596.47 171.49 596.05 172.22 595.79 173.07 595.53 174.79 595.43 176.5 596.22 183.05 596.9 185.5 597.19 189.9 596.92 192 596.9 192.92 597.02 193.84 598.38 199.18 599.19 201.25 599.25 202.67 599.07 203.65 595 214.88 593.97 216.71 593.74 217.91 594.04 218.96 595.13 221.61 596.43 230.53 596.46 231.51 596.24 232.33 595.79 233.12 593.94 235.28 593.52 235.91 593.16 236.73 592.95 237.78 593.36 238.61 594.84 239.92 595.07 240.67 595.03 241.62 594.83 242.7 594.71 244.34 594.96 245.76 597.23 252.16 598 253.82 598.57 254.59 599.33 255.33 600.12 256.26 600.96 257.58 603.28 266.83 603.55 268.82 603.36 270.31 602.8 271.14 602.3 272.35 601.89 273.89 601.88 279.44 601.75 280.24 601.4 281.03 600.9 281.79 600.21 282.43 598.67 283.35 596.15 284.56 595.32 285.1 594.51 285.82 593.22 287.31 592.69 288.12 592.37 289.47 592.47 300.09 593.03 303.03 593.79 304.75 594.77 306.5 630.16 352.3 Z" id="COG-2880" data-name="Sangha"/>
<path d="M 538.41 705.76 538.87 709.57 538.46 714.84 539.03 720.8 538.59 726.53 539.04 728.29 540.03 730.28 540.05 732.72 539.4 737.34 539.96 739.57 541.21 740.8 542.45 741.66 543.02 742.8 542.82 745.27 542.31 747.23 540.93 750.43 535.7 759.48 533.52 765.14 531.15 769.76 524.56 777.79 520.25 786.51 519.47 788.9 517.96 790.4 516.18 795.44 514.44 798.47 512.23 795.82 510.55 793.71 508.86 791.18 508.44 787.38 506.75 782.74 504.22 777.67 500.84 772.19 498.06 768.67 492.16 766.56 488.36 764.87 484.56 765.71 481.61 768.67 479.5 772.47 476.96 777.95 474.43 780.48 471.63 779.81 468.25 776.43 464.45 771.79 461.5 768.84 458.97 765.88 454.32 764.2 448.38 762.51 445 759.98 442.05 759.56 439.94 763.36 439.1 770.11 438.67 777.28 437.83 784.03 435.72 790.36 431.73 794.6 425.83 797.97 422.87 803.46 422.87 808.94 424.98 815.7 425.4 821.18 423.72 829.2 420.34 834.69 417.81 841.02 415.7 846.08 411.06 851.99 408.25 856.66 412.05 860.45 415 863.83 417.53 868.89 420.98 873.2 415.32 876.06 414.46 877.22 413.78 878.6 405.6 886.64 396.91 901.14 396.1 902.88 395.01 904.46 393.35 905.83 388.36 907.98 381.34 912.36 378.22 913.46 374.17 913.85 372.98 913.41 369.67 911.41 368.35 910.96 367.87 910.67 367 909.28 366.5 908.79 365.62 908.71 363.35 908.82 362.88 908.4 362.02 907.25 360.07 907.18 358 907.73 356.74 908.4 354.56 910.71 353.26 911.36 351.24 911.68 349.38 912.01 348.94 908.79 350.64 900.55 350.24 899.46 349.7 898.5 349.28 897.49 349.21 896.25 349.47 895.25 350.28 893.39 350.47 892.38 350.04 889.73 348.87 888.04 347.29 886.56 345.68 884.56 344.81 880.51 344.01 878.16 344.09 877.33 344.96 875.79 346.63 874.27 350.64 872.6 351.92 871.31 353.1 869.66 354.87 867.67 356.36 865.56 356.7 863.58 356.01 862.87 352.34 860.51 350.27 858.09 348.54 855.46 347.83 853.93 347.8 853.36 348.16 852.79 348.62 851.26 348.8 849.91 348.81 848.78 348.55 847.93 347.94 847.44 345.98 847.58 341.41 850.06 336.59 851.22 334.43 852.72 330.46 856.2 326.49 858.08 322.42 859.39 313.1 860.52 309.15 862.1 306.02 866.31 305.84 866.61 305.61 866.84 303.92 868.06 302.13 870.21 301.03 870.86 299.98 870.91 296.89 870.02 296.89 870.01 296.89 869.95 297.69 866.9 298.79 865.09 299.15 864.31 299.58 862.75 299.9 861.93 301.15 859.49 301.38 858.42 301.98 851.27 302.89 848.14 303.12 847.76 303.62 847.16 304.24 846.65 305.8 846.35 309.62 844.48 312.04 842.66 315.2 839.16 316.31 838.31 317.73 837.74 321.27 836.86 322.96 836.14 322.16 835.35 323.95 834.11 324.05 832.34 322.16 828.12 323.42 826.06 324.8 824.68 330.2 820.92 330.91 820.16 331.25 819.26 331.77 817.09 332.29 816.54 333.21 816.74 336.64 818.78 341.05 818.78 341.56 818.26 343.22 815.81 344.75 814 345.62 813.34 346.91 812.91 345.55 810.63 344.56 807.71 343.37 805.22 341.38 804.17 339.35 803.67 338.39 802.38 338.1 800.63 338.09 798.74 334.58 793.06 332.29 790.41 329.47 785.29 329.23 783.65 329.68 783.59 330.74 783.98 332.29 783.77 333.3 782.98 334.78 781.22 335.59 780.88 336.38 780.66 339.06 779.23 339.5 779.1 339.24 778.53 338.76 777.75 337.96 776.73 337.57 775.83 337.05 773.4 337.08 771.88 336.92 771.08 336.41 770.22 335.66 769.18 334.72 767.45 334.16 766.66 333.35 765.96 332.68 765.09 331.14 764.39 328.88 763.97 324.84 762.33 324.12 761.84 322.86 760.63 322.18 760.38 321.46 760.94 320.68 762.44 320.09 763.01 317.95 764.43 317.12 765.11 311.16 772.34 310.35 772.73 309.37 772.99 304.86 773.39 303.92 773.27 302.82 772.95 301.16 772.14 299.87 771.74 296.89 771.48 295.88 771.28 292.1 769.14 293.32 768.4 293.61 768.04 293.83 767.6 293.93 766.69 293.83 765.51 293.84 765.2 293.99 764.97 295.16 763.92 295.85 763.1 297.08 760.79 297.58 759.57 298.37 758.03 298.51 757.36 298.46 756.89 298.41 756.68 298.43 756.48 298.51 756.13 298.9 755.62 301.19 753.49 302.82 752.36 303.53 752.03 303.78 751.85 307.69 747.46 308.15 746.8 308.83 745.48 309.27 744.79 309.75 744.26 311.45 743.23 311.68 742.94 312.41 741.06 312.77 740.57 313.22 740.19 314.22 739.55 315.6 738.92 315.96 738.58 316.03 737.91 315.86 737.45 315.88 736.99 316.05 736.74 316.67 736.35 317.17 735.84 317.69 735.08 318.6 732.84 318.96 732.32 320.01 731.68 320.34 731.32 320.41 730.97 320.35 730.16 320.44 728.76 320.77 727.67 322.35 724.07 324.09 717.75 324.44 716.97 324.84 716.25 326.85 714.63 334.56 710.09 337.15 713.58 339.32 714.47 342.63 714.25 344.06 714.5 346.33 715.86 347.15 716.11 347.87 716.14 349.05 715.86 352.63 715.74 353.24 715.93 353.77 716.22 354.17 716.55 354.5 716.95 355.29 717.64 356.56 718.5 359.47 720.12 361.08 720.57 362.08 720.62 362.48 720.22 363.73 718.12 365.36 716.53 366 715.71 367.56 712.87 367.89 712.52 368.21 712.26 370.06 711.14 372.61 708.6 373.42 707.93 375.16 706.78 375.43 706.55 375.66 706.27 376.16 704.85 376.29 704.58 376.48 704.3 376.87 703.92 379.76 701.89 382.84 699.05 383.49 698.17 383.63 697.87 384.97 696.8 388.68 694.71 389.54 693.92 390.61 693.12 390.72 693.01 390.84 692.86 390.98 692.63 391.27 692.01 391.61 690.66 391.66 690.25 391.63 688.33 391.73 687.71 392.15 687.14 392.84 686.6 395.4 685.18 396.35 684.41 399.55 682.53 400.75 682.14 401.6 682.12 401.99 682.47 402.29 682.9 403.04 684.32 403.68 685.14 403.88 685.65 403.96 686.24 403.8 688 403.97 688.48 404.3 688.85 405.05 689.55 405.39 689.95 405.62 690.42 405.75 691.04 405.8 691.68 405.8 694.42 406.56 697.92 406.63 698.41 406.62 698.72 406.36 699.7 406.33 700.29 406.46 700.85 407.05 701.31 408.07 701.61 410.2 701.8 412.06 701.72 414.23 701.05 416.57 700.05 417.35 699.99 424.1 700.65 425.06 700.88 425.49 701.18 425.81 701.6 426.35 702.51 427.5 703.53 427.79 703.98 428.01 704.49 428.44 707.67 429.06 709.29 429.34 709.73 429.72 710.1 430.17 710.38 430.79 710.56 432.47 710.84 433.07 711.06 433.5 711.38 433.7 711.72 433.82 711.98 433.92 712.14 434.09 712.35 434.47 712.56 435.79 712.96 436.17 713.13 436.57 713.39 438.65 714.16 442.78 714.85 443.83 714.84 445.76 714.37 447.85 714.1 449 714.07 449.9 714.14 453.77 715.27 454.72 715.35 455.51 715.3 463.11 712.75 464.46 712.13 467.09 710.35 467.73 710.02 468.53 709.48 470.07 708.07 470.89 707.44 471.33 707.16 471.73 706.86 472.83 705.7 473.54 705.15 475.02 704.29 476.05 703.88 478.39 703.26 479.28 702.87 479.54 702.69 480.14 702.15 480.54 701.96 481.15 701.76 482.48 701.52 483.2 701.21 483.71 700.79 483.87 700.22 484.34 699.23 484.63 698.85 485.03 698.41 485.98 697.83 487.16 696.92 488.78 696.1 489.74 695.74 496.6 694.26 497.3 694.46 498.35 695.05 498.74 694.88 499.5 693.94 500.16 693.5 500.68 693.68 501.2 694.05 502.9 694.58 504.23 695.23 505.5 695.45 508.39 696.65 509.66 697.44 510.85 698.43 511.31 698.71 511.83 698.9 512.43 699.03 512.95 699.26 513.36 699.58 514 700.39 514.39 700.73 514.72 701.14 515.02 701.58 515.5 703.26 515.86 703.62 516.33 703.89 516.86 704.1 517.32 704.37 517.7 704.71 518 705.16 518.57 705.6 519.41 705.96 521.11 706.28 522.47 706.36 522.7 706.28 523.01 706.1 523.38 705.82 524.04 705.45 525.04 705.09 527.01 704.64 528.17 704.52 529.12 704.52 531.81 704.81 534.21 705.29 538.35 705.75 538.41 705.76 Z" id="COG-3341" data-name="Pool"/>
<path d="M 630.16 352.3 634.59 354.37 636.19 355.98 643.65 366.78 646.43 371.77 646.56 372.18 646.43 373.04 646.13 374.15 645.33 374.63 644.52 374.41 643.76 374.44 643.16 375.67 643.29 376.63 644.41 379.05 644.89 381.59 645.23 382.59 645.2 383.52 644.32 384.67 643.17 385.37 641.97 385.89 640.94 386.61 640.33 387.97 640.52 389.93 642.12 394.92 642.5 397.01 642.73 404.14 643.16 406.12 644.54 410.05 644.76 412.39 643.56 413.43 641.89 414.01 641.16 415.53 641.03 423.72 641.35 424.29 642.96 424.68 643 425.59 639.21 430.03 640 430.88 642.11 431.43 643.96 432.96 640.44 437.95 639.67 440.79 640.99 443.23 642.2 441.04 644.19 441.27 646.32 442.74 647.94 444.25 648.75 446.25 648.33 448.56 646.26 453.38 646.17 454.06 647.57 458.57 647.72 459.87 646.54 461.94 646.46 463.13 646.95 467 647.41 467.33 648.11 467.3 649.02 467.83 649.71 468.46 650.14 468.72 650.39 469.28 650.52 471.33 651.64 472.42 652.73 472.83 654.64 473.16 681.23 473.62 682.33 474 682.72 474.23 682.77 474.26 668.52 491.42 665.76 493.97 663.59 496.6 662.78 497.27 659.93 498.65 659.64 499.19 657.56 501.66 656.46 502.31 650.92 503.87 645.56 504.63 643.5 505.19 636.42 508.09 631.32 509.52 627.94 510.08 627.3 510.36 626.18 511.12 625.53 511.39 625.24 512.03 622.74 514.94 618.6 518.6 615.28 522.45 610.34 526.45 607.92 527.9 607.23 528.59 606.75 529.35 605.6 532.31 603.14 536.69 601.51 540.6 599.76 543.09 595.81 550.95 592.32 555.5 589.87 560.42 588.44 562.64 588.37 562.64 584.99 562.64 582.57 562.93 582.23 561.93 582.73 560.34 582.83 558.87 582.34 557.69 582.21 557.57 581.84 557.71 578.72 556.45 576.56 555.95 574.41 556.13 572.49 557.35 570.76 557.85 567.98 557.92 565.69 557.56 565.44 556.74 565.04 556.18 563.23 555.61 561.76 554.63 562.41 552.9 557.93 552.69 555.3 550.26 551.91 540.92 549.63 537.92 547.98 534.38 547.52 533.62 546.67 532.81 546.01 532.42 541.92 531.92 541.16 531.47 540.53 530.84 528.8 523.45 525.51 521.81 522.11 520.55 515.3 519.88 513.4 518.93 513.33 516.49 512.99 515.48 511.81 516.11 511 516.1 510.13 515.04 508.63 512.77 507.82 512.41 502.91 510.99 502.36 510.4 501.99 509.67 501.28 508.96 499.02 507.99 494.15 506.89 492.15 506.09 490.51 504.09 490.11 501.63 490.06 499.13 489.51 497.03 488.09 495.72 486.29 495.24 482.13 494.87 476.41 493.39 474.4 493.52 472.72 494.09 469.58 495.67 467.9 496.25 467.32 496.2 466.21 495.61 465.76 495.51 465.02 495.77 463.63 496.54 459.86 497.74 458.17 499.12 455.18 503.7 453.66 505.45 451.89 506.96 451.39 507.07 450.28 506.75 449.86 506.81 449 507.69 447.76 509.68 446.97 510.61 444.6 512.14 439.35 514.44 437.14 516.29 430.19 525.44 428.02 529.99 422.52 547.19 415.24 556.58 411.25 560.35 409.58 561.3 406.69 562.53 405.38 562.84 401.27 562.53 400.38 562.63 399.52 562.83 394.29 565.11 392.91 566.02 387.76 570.29 386.36 571.89 385.5 573.19 385.13 575.67 384.87 576.46 383.46 578.81 382.7 579.76 379.75 582.62 378.83 583.83 377.58 585.82 375.49 588.19 374.98 588.99 373.79 592.14 373.37 592.92 369.19 598.71 366.8 600.92 365.22 602.06 363.43 602.86 362.28 603.14 361.48 603.68 360.9 604.37 360.08 606.11 359.78 606.51 359.34 606.97 358.63 607.55 357.84 607.92 353.87 608.72 353.04 608.81 352.17 608.81 350.47 608.59 348.88 608.2 348.04 607.66 347.28 606.27 346.66 604.21 346.26 598.5 345.98 597.82 346.21 597.73 349.02 596.19 349.79 594.73 348.98 590.11 349.05 589.21 349.69 586.49 350.02 578.04 350.7 575.75 351.98 574.33 354.48 572.81 353.67 572.11 351.43 571.74 349.63 571.18 348.34 566.89 346.28 565.74 345.58 564.95 346.54 564.1 348.71 563.34 349.7 562.84 350.71 562.11 351.42 561.04 351.85 559.81 352.53 558.89 356 558.23 355.96 556.63 354.77 554.73 353.38 553.35 354.72 550.28 354.9 547.73 355.28 546.73 356.51 545.55 357.85 544.68 358.61 543.46 358.02 541.26 354.29 538.8 352.74 537.19 352.1 535.16 352.4 533.99 353.13 533.22 354.01 532.54 354.77 531.68 355.37 530.56 355.75 529.54 356.18 527.16 356.29 523.85 356.11 522.9 355.29 521.53 353.49 519.76 367.23 517.36 374.75 515.27 377.25 512.82 379.88 511.67 384.26 512.64 404.15 511.86 412.1 510.06 417.93 505.08 428.35 493.22 430.3 488.59 432.56 484.98 430.6 481.49 413.94 466.99 418.48 461.13 424.49 455.09 426.54 451.62 428.11 447.92 428.83 444.25 423.92 425.33 422.36 421.69 418.78 420.6 410.98 419.6 407.64 417.98 406.39 414.59 405.42 410.48 402.54 404.45 401.84 402.02 402.01 400.28 401.98 398.58 401.07 394.52 402.05 390.58 405.52 390.17 409.26 390.53 413.39 389.86 415.38 390.16 417.36 390.21 425.47 388.67 433.35 386.12 438.63 380.43 437.03 373.24 430.18 368.23 427.11 362.16 430.75 359.97 434.81 358.18 438 356.41 440.63 354.1 443.15 350.46 443.15 350.46 443.3 350.6 443.46 351.01 443.44 351.36 443.24 352.27 443.24 352.81 443.49 353.2 443.92 353.34 444.81 352.97 445.24 352.88 448.52 353.76 450.48 353.99 451.18 354 451.89 353.94 452.81 353.51 453.38 353.14 454.06 352.88 454.79 352.75 456.1 353.02 457.68 353.54 458.42 353.71 459.56 353.87 460.92 354.25 461.41 354.46 461.91 354.63 462.32 354.92 462.73 355.15 463.28 355.22 463.85 355.2 464.93 355.05 466.04 355.32 466.73 355.63 467.67 356.29 468.17 356.5 468.79 356.59 469.44 356.5 470.1 356.12 471.55 354.37 471.91 354.04 473.21 353.17 473.55 352.79 473.81 352.32 474.04 351.81 474.54 350.14 474.95 349.21 475.15 348.96 475.35 348.77 475.58 348.66 475.94 348.53 476.4 348.42 477.67 348.24 478.24 348.04 478.46 347.89 479.03 347.37 479.52 347.11 480.17 346.9 481.09 346.76 481.75 346.58 482.28 346.33 483.13 345.82 483.54 345.72 486.76 345.48 486.97 345.39 487.72 344.98 488.12 344.83 488.68 344.71 489.89 344.66 490.71 344.75 491.46 345.15 491.81 345.63 492.04 346.2 492.32 346.64 492.8 346.9 493.5 346.93 494.54 346.64 495.2 346.34 496.11 345.82 496.48 345.75 497.01 345.79 499.59 346.41 502.21 346.45 505.69 347.06 506.35 347.44 506.72 347.79 507.16 348.08 507.63 348.32 508.09 348.59 508.78 349.33 509.18 349.66 510.07 350.24 510.55 350.48 512.68 351.26 513.66 351.73 514.03 352.09 514.36 352.49 514.55 353.02 514.59 355 514.71 355.61 514.94 356.09 515.24 356.51 515.64 356.84 516.07 357.13 516.79 357.37 519.34 357.88 523.75 359.23 524.24 359.46 524.7 359.73 526.17 361.16 527.44 362.08 528.07 362.92 529.98 366.8 530.07 367.31 529.92 373.16 529.95 373.49 530.08 373.96 530.3 374.41 530.61 374.77 530.99 375.05 531.75 375.5 532.01 375.71 532.3 376.08 532.5 376.56 532.72 377.59 532.73 378.51 532.5 380.94 532.66 381.21 533 381.47 533.95 381.64 534.59 381.86 536.64 382.82 537.22 382.99 537.97 382.96 538.87 382.78 540.83 381.81 541.45 381.59 542.04 381.51 543.03 381.66 543.59 381.96 544.41 382.7 544.83 383.02 545.27 383.29 546.8 383.95 547.23 384.25 547.59 384.61 548.42 385.94 548.76 386.34 549.12 386.63 549.78 386.78 552.98 386.51 553.49 386.55 553.63 386.71 553.73 386.92 553.89 387.35 554 387.87 554.19 388.4 554.45 388.89 554.77 389.29 555.1 389.61 630.16 352.3 Z" id="COG-3342" data-name="Cuvette"/>
<path d="M 78.04 787.33 80.17 790.63 80.9 791.17 81.88 791.72 84.18 792.06 87.26 793.56 101.48 803.92 105.2 805.48 106.16 805.74 109.64 806.01 112.82 807.05 114.67 808.29 116.37 809.07 116.95 809.57 117.11 810.03 117.09 811.33 117.21 811.96 117.45 812.5 118.06 812.77 120.27 813.17 123.48 814.25 126.24 814.73 128.79 815.58 130.81 815.78 132.21 816.08 134.51 816.9 135.66 817.49 136.25 817.95 136.34 818.21 136.32 818.61 136.18 819.25 136.21 819.95 136.53 820.64 137.16 821.08 140.77 821.89 141.91 822.54 142.84 823.37 151.69 833.47 152.74 835.24 153.44 836.21 153.67 836.99 153.69 837.68 152.75 842.72 152.72 843.52 152.78 844.37 153.01 845.25 153.79 846.95 157.54 851.94 158.49 852.69 159.38 853.13 160.2 853.28 160.99 853.35 167.78 853.02 168.72 853.13 169.79 853.45 171.38 854.14 172.52 854.81 174.55 856.42 177.49 859.29 177.87 860.47 177.11 860.06 175.65 859.53 173.13 860.99 171.93 863.43 171.07 865.97 169.64 867.67 167.72 868.77 165.99 870.15 164.51 871.85 162.21 876.12 161.04 877.35 159.37 877.96 147.62 880.11 140.4 882.46 138.81 882.61 135.94 882.25 134.94 883.72 135.07 888.27 134.57 890.48 130.14 899.25 129.04 900.55 127.52 901.13 123.93 901.5 122.32 901.89 120.79 902.48 119.84 903.29 118.51 900.81 117.54 899.6 116.55 899 115.29 899 114.79 899.48 111.57 910.35 108.78 914.84 96.83 924.98 95.93 926.15 94.31 924.68 92.84 922.95 90.45 918.97 86.46 914.15 83.86 911.63 82.85 908.72 84.06 908.74 84.13 896.69 78.13 896.67 76.26 894.25 71.77 890.19 71.27 888.86 71.35 887.78 73.85 887.81 75.85 885.62 76.32 883.23 74.39 879.24 62.37 867.2 51.36 857.78 41.69 849.24 36.68 846.13 31.46 841.53 29.46 838.31 28.95 837.64 27.58 835.32 27.29 834.3 27.41 831.97 27.3 830.77 26.89 829.93 17.55 822.49 7.19 815.68 3.66 813.1 1 811.37 2.65 808.3 9.7 789.32 11.44 785.98 14.2 783.63 17.82 781.28 20.97 778.68 24.39 776.58 28.75 775.71 32.79 774.36 35.16 771.32 37.14 768.06 40.07 766.05 45.38 766.82 49.31 769.83 57.73 783.44 59.5 785.36 61.8 786.13 67.58 785.39 69.7 785.63 75.8 787.37 77.78 787.43 78.04 787.33 Z" id="COG-3343" data-name="Kouilou"/>
<path d="M 317.57 656.74 318.64 658.34 319.68 661.23 322.74 664.08 323.12 664.87 323.23 665.35 322.94 665.83 322.59 666.11 322.06 666.34 320.64 666.66 320.06 667.32 320.31 668.03 320.87 668.7 322.48 669.81 323.22 670.16 323.85 670.2 324.28 669.76 324.9 669.36 325.7 669.29 326.75 670.03 326.97 670.81 326.65 671.61 325.95 672.22 324.45 673.17 323.07 674.46 321.66 675.54 321.24 676.2 321.44 676.95 321.87 677.65 322.54 678.22 323.33 678.43 325.03 678.44 325.92 678.57 326.78 678.91 327.87 679.58 328.78 679.82 329.67 679.7 331.49 678.72 332.38 678.54 333.27 678.65 334.26 679.23 335.11 679.64 336.1 679.68 337.1 679.52 338.46 679.8 338.86 680.47 338.91 681.29 338.56 682.14 337.17 684.66 336.84 685.63 336.74 686.63 337.17 687.1 337.67 686.81 338.59 685.79 339.05 685.8 339.28 686.38 339.5 688.06 342.89 697.49 343.24 698.95 343.05 699.93 342.46 700.68 341.74 701.2 340.23 701.99 339.51 702.5 338.98 703.13 338.65 703.79 338.43 704.97 338.23 705.5 337.94 705.96 337.57 706.34 336.32 707.26 335.64 707.92 335.26 708.62 335.11 709.03 334.56 710.09 326.85 714.63 324.84 716.25 324.44 716.97 324.09 717.75 322.35 724.07 320.77 727.67 320.44 728.76 320.35 730.16 320.41 730.97 320.34 731.32 320.01 731.68 318.96 732.32 318.6 732.84 317.69 735.08 317.17 735.84 316.67 736.35 316.05 736.74 315.88 736.99 315.86 737.45 316.03 737.91 315.96 738.58 315.6 738.92 314.22 739.55 313.22 740.19 312.77 740.57 312.41 741.06 311.68 742.94 311.45 743.23 309.75 744.26 309.27 744.79 308.83 745.48 308.15 746.8 307.69 747.46 303.78 751.85 303.53 752.03 302.82 752.36 301.19 753.49 298.9 755.62 298.51 756.13 298.43 756.48 298.41 756.68 298.46 756.89 298.51 757.36 298.37 758.03 297.58 759.57 297.08 760.79 295.85 763.1 295.16 763.92 293.99 764.97 293.84 765.2 293.83 765.51 293.93 766.69 293.83 767.6 293.61 768.04 293.32 768.4 292.1 769.14 288.07 774.56 286.24 775.92 285.47 776.07 284.5 776.43 283.97 776.88 283.6 777.35 283.37 777.87 283.2 778.37 283.15 778.93 283.25 779.42 283.31 780.11 283.24 780.95 282.74 782.29 282.39 782.91 282.03 783.29 280.82 783.73 279.91 784.18 278.43 785.21 277.73 785.96 277.15 786.81 277.04 787.45 277.08 788.86 276.94 789.78 276.49 790.08 276 790.13 275.46 790.03 274.38 790.13 273.86 790.08 272.23 789.57 271.49 789.53 270.7 789.61 269.76 789.91 269.6 790.34 269.6 791.41 269.14 791.86 267.37 792.95 266.64 793.24 265.95 793.28 265.43 793.12 264.96 792.88 264.25 792.74 263.45 792.69 262.05 793.05 261.52 793.25 261.19 793.49 261.13 793.71 261.11 793.95 261.26 795.7 261.46 796.22 261.92 796.45 262.45 796.51 263 796.49 263.4 796.57 263.53 796.67 263.55 796.83 263.2 798.13 263.28 798.57 263.65 798.87 264.51 799.22 264.54 799.58 264.27 800.24 263.45 801.64 262.58 802.64 261.56 803.54 261.21 804.3 261.14 805.07 261.16 805.95 261.01 806.88 260.31 808.2 257.49 811.03 256.64 812.11 256.16 813.07 256.09 813.87 256.16 815.5 256.11 816.3 255.27 820.25 254.74 821.12 254.17 821.77 253.75 822.07 252.41 822.68 250.84 823.17 249.03 823.53 247.87 823.6 244.44 822.91 242.82 822.77 242.03 822.59 241.29 822.24 240.63 821.6 240.17 820.84 238.41 815.74 238.33 814.92 238.46 814.11 238.74 813.31 238.92 812.51 238.67 811.72 238.14 810.96 237.67 810.44 236.99 810.25 236.36 810.73 235.6 810.65 233.59 810.24 230.96 810.65 229.97 810.63 229.21 810.27 226.86 808.72 225.61 808.62 224 808.82 219.31 810.42 218.03 810.63 215.48 809.74 214.61 809.6 213.79 809.56 208.28 810.08 206.35 810.44 205.16 810.5 204.14 810.39 203.39 809.95 202.88 809.28 202.51 808.6 202.08 808.01 201.53 807.72 201 807.56 200.57 807.37 200.05 806.96 199.72 806.25 199.3 805.52 198.6 804.84 196.09 804.06 195.12 803.5 194.83 803.22 193.58 802.85 190.29 800.28 189.26 798.02 189.26 794.04 188.1 793.48 187.64 792.93 188.14 792.15 188.56 791.66 189.26 789.62 187.93 789.27 187.08 788.23 185.48 783.41 185.01 782.67 184.14 781.67 183.88 781.18 183.74 780.01 183.48 779.42 183.03 779.23 181.65 779.06 181.24 778.77 180.96 777.2 181.02 775.9 180.66 774.93 179.06 774.36 180.52 773.64 179.28 771.67 177.53 771.19 173.28 771.41 171.03 770.35 171.61 767.67 169.24 767.12 168.28 767.35 166.17 768.34 164.89 768.58 164.55 768.05 164.53 764.56 164.08 764.12 163.08 764.19 162.08 764.09 161.63 763.14 161.55 761.97 161.22 761.16 160.53 760.7 159.4 760.61 159.4 759.89 160.1 758.54 158.81 757.26 158.97 756.16 159.31 755.83 159.69 755.56 160.3 755.28 160.65 755.19 162.71 755.26 163.27 755.11 163.67 754.88 163.97 754.57 164.15 754.29 164.89 752.5 165.91 747.93 166.1 747.5 166.39 747.06 166.82 746.54 167.12 746.27 167.52 746.05 168.92 745.46 170.53 744.35 171.12 744.06 171.68 743.89 172.39 743.78 173.74 743.78 176.92 744.27 177.61 744.26 178.23 744.19 178.77 744 180.62 743.14 180.93 743.05 182 742.9 182.63 742.87 183.28 742.91 183.81 743.11 185.13 743.97 185.66 744.14 186.46 744 187.35 743.58 188.8 742.65 189.66 742.32 190.28 742.34 191 743.11 191.46 743.37 192.26 743.27 192.59 742.84 192.74 742.29 192.67 739.39 192.8 738.64 193.15 738.45 193.78 738.52 195.29 738.92 196.08 738.96 196.87 738.82 199.32 737.86 200.05 737.66 200.78 737.59 202.45 736.75 203.43 735.49 204.5 734.73 207.39 733.2 211.07 729.45 211.9 728.03 212.36 726.88 212.09 720.63 213.17 715.8 214.51 712.24 214.61 711.7 214.66 710.86 214.32 710.02 213.74 709.2 213.05 708.42 208.18 704.46 207.43 704.19 205.88 704.09 203.57 703.45 202.91 703.06 202.49 702.44 202.21 701.71 201.8 700.06 201.03 698.73 200.78 698.16 200.78 697.23 201.06 696.79 201.59 696.39 203.07 695.87 203.83 695.4 205.3 694.12 206.06 693.71 207.75 693.51 208.68 693.13 208.94 692.51 208.85 691.73 206.6 686.76 206.14 685 204.93 670.03 205.37 651.88 206.32 647.02 206.34 646.02 205.96 645.3 205.33 644.9 204.61 644.89 203.82 645.21 203.04 645.62 202.31 645.79 201.73 645.66 201.04 645.05 200.28 644.24 202.2 642.32 203.56 641.92 206.19 642.39 213.03 645.49 215.24 646.03 216.4 645.79 218.43 644.6 219.66 644.44 220.7 644.67 239.18 651.53 241.06 651.75 243.1 651.24 245.4 651.61 245.95 651.63 247.44 651.17 248.12 651.34 249.01 652.64 249.55 652.82 250.67 652.18 251.15 651.33 251.45 650.34 252.03 649.32 253.08 648.31 256.52 645.93 257.42 645.04 258.97 643.1 260.02 642.16 261.28 641.52 263.81 640.71 264.87 639.99 265.34 639.05 265.65 636.8 266.36 635.71 274.42 627.9 275.28 626.71 275.67 625.61 275.83 623.51 276.12 622.34 277.23 620.23 279.45 616.93 279.69 616.36 280.03 616.49 281.14 617.29 282.6 618.69 283.88 620.7 284.8 622.93 285.77 627.32 288.18 632.23 289.48 634.18 291.42 636.16 292.13 637.2 292.48 640.14 293.3 640.92 294.42 641.46 295.52 642.24 296.96 644.21 296.51 644.9 295.25 645.68 293.75 648.88 291.55 649.98 290.76 650.91 290.69 655 290.57 655.53 292.3 657.05 294.72 657.85 297.31 657.98 299.54 657.52 301.37 656.41 302.39 655.95 303.42 655.95 304.39 656.67 304.71 658.6 305.39 659.23 306.2 659.24 311.07 657.72 311.74 657.6 312.8 657.68 314.44 658.63 315.49 659.06 316.45 658.92 317.09 658.12 317.57 656.74 Z" id="COG-3344" data-name="Lékoumou"/>
<path d="M 173.46 594.48 173.93 594.82 178.41 596.27 180.2 597.5 181.42 600.08 183.76 607.77 184.71 610.02 185.32 610.8 186.98 612.42 187.45 613.05 187.87 615.47 187.68 615.52 187.68 616.01 187.57 616.65 187.8 617.19 189.79 617.71 189.73 618.32 189.31 619.02 189.11 619.53 188.67 620.33 188.48 620.99 188.73 621.7 190.12 623.05 190.53 623.8 190.6 624.89 191.06 626.78 192.58 626.72 195.15 625.41 196.07 626.31 198.05 629.55 199.05 630.77 199.59 633.63 199.87 634.48 200.63 635.29 201.27 635.27 201.78 635.38 202.04 636.57 201.15 637.52 200.56 638.38 200.34 639.45 200.27 640.36 199.97 641.29 199.54 642.18 199.05 642.93 197.87 643.92 197.32 644.91 197.63 645.55 199.05 645.47 200.28 644.24 201.04 645.05 201.73 645.66 202.31 645.79 203.04 645.62 203.82 645.21 204.61 644.89 205.33 644.9 205.96 645.3 206.34 646.02 206.32 647.02 205.37 651.88 204.93 670.03 206.14 685 206.6 686.76 208.85 691.73 208.94 692.51 208.68 693.13 207.75 693.51 206.06 693.71 205.3 694.12 203.83 695.4 203.07 695.87 201.59 696.39 201.06 696.79 200.78 697.23 200.78 698.16 201.03 698.73 201.8 700.06 202.21 701.71 202.49 702.44 202.91 703.06 203.57 703.45 205.88 704.09 207.43 704.19 208.18 704.46 213.05 708.42 213.74 709.2 214.32 710.02 214.66 710.86 214.61 711.7 214.51 712.24 213.17 715.8 212.09 720.63 212.36 726.88 211.9 728.03 211.07 729.45 207.39 733.2 204.5 734.73 203.43 735.49 202.45 736.75 200.78 737.59 200.05 737.66 199.32 737.86 196.87 738.82 196.08 738.96 195.29 738.92 193.78 738.52 193.15 738.45 192.8 738.64 192.67 739.39 192.74 742.29 192.59 742.84 192.26 743.27 191.46 743.37 191 743.11 190.28 742.34 189.66 742.32 188.8 742.65 187.35 743.58 186.46 744 185.66 744.14 185.13 743.97 183.81 743.11 183.28 742.91 182.63 742.87 182 742.9 180.93 743.05 180.62 743.14 178.77 744 178.23 744.19 177.61 744.26 176.92 744.27 173.74 743.78 172.39 743.78 171.68 743.89 171.12 744.06 170.53 744.35 168.92 745.46 167.52 746.05 167.12 746.27 166.82 746.54 166.39 747.06 166.1 747.5 165.91 747.93 164.89 752.5 164.15 754.29 163.97 754.57 163.67 754.88 163.27 755.11 162.71 755.26 160.65 755.19 160.3 755.28 159.69 755.56 159.31 755.83 158.97 756.16 158.81 757.26 160.1 758.54 159.4 759.89 159.4 760.61 160.53 760.7 161.22 761.16 161.55 761.97 161.63 763.14 162.08 764.09 163.08 764.19 164.08 764.12 164.53 764.56 164.55 768.05 161.81 770.35 160.89 771.64 160.61 772.34 160.42 773.17 160.29 774.33 160.35 776.17 161.5 781.56 162.71 784.41 162.59 785.31 161.7 787.05 161.78 788.78 161.99 789.59 163.27 792.49 162.95 793.23 162.36 793.69 161.61 794.01 160.91 794.49 160.25 795.33 159.64 796.35 159 797.85 159.28 798.68 159.89 799.33 163.07 801.27 164.72 802.52 165.51 803.25 167.9 806.39 171.71 813 177.39 819.49 178.13 820.17 182.9 823.76 185.19 826.09 186.52 827.92 188.54 831.79 192.2 837.18 199.72 851.94 200.81 853.41 201.27 853.56 201.93 853.62 202.85 854.07 203.99 854.84 205.65 856.83 206.75 857.67 207.72 858.09 209.41 858.04 211.13 858.34 211.93 858.29 212.77 858.11 213.56 858.05 214.33 858.26 215.05 858.71 215.85 859.04 216.61 859.15 218.15 859 218.94 859.04 220.55 859.74 221.34 859.99 222.15 860.02 222.95 860.13 224.58 860.75 226.36 860.84 227.9 861.73 230.17 863.8 234.68 870.1 235.6 871.97 236.16 873.51 237.22 874.88 238.27 876.72 239.42 878.15 240.52 879.27 241.12 880.17 241.34 880.97 241.54 882.81 241.94 883.99 242.54 884.79 243.28 885.23 244.96 885.55 245.8 885.83 253.52 891.11 257.66 893.13 259.45 894.26 260.54 895.12 261.19 895.96 261.59 896.76 261.8 897.54 262.28 900.66 262.37 901.03 262.38 901.07 261.41 901.37 260.13 900.79 258.03 898.62 256.69 898.02 255.47 898.2 252.03 900.2 253.1 901.12 253.53 902.03 253.22 902.83 252.03 903.45 246.57 907.46 243.65 911.01 242.53 911.91 240.28 907.29 239.51 903.6 238.94 902.32 237.94 901.34 236.38 900.49 229.96 898.19 228.03 896.93 223.04 892.6 220.22 890.79 219.19 889.74 217.87 886.27 215.98 883.5 215.12 881.92 212.82 879.22 210.24 879.5 208.49 881.84 208.72 885.41 203.79 882.96 196.84 874.65 192.64 871.31 190.57 868.97 188.67 863.87 187.12 861.74 185.47 860.79 184.2 860.93 182.92 861.5 181.28 861.84 179.82 861.53 177.87 860.47 177.49 859.29 174.55 856.42 172.52 854.81 171.38 854.14 169.79 853.45 168.72 853.13 167.78 853.02 160.99 853.35 160.2 853.28 159.38 853.13 158.49 852.69 157.54 851.94 153.79 846.95 153.01 845.25 152.78 844.37 152.72 843.52 152.75 842.72 153.69 837.68 153.67 836.99 153.44 836.21 152.74 835.24 151.69 833.47 142.84 823.37 141.91 822.54 140.77 821.89 137.16 821.08 136.53 820.64 136.21 819.95 136.18 819.25 136.32 818.61 136.34 818.21 136.25 817.95 135.66 817.49 134.51 816.9 132.21 816.08 130.81 815.78 128.79 815.58 126.24 814.73 123.48 814.25 120.27 813.17 118.06 812.77 117.45 812.5 117.21 811.96 117.09 811.33 117.11 810.03 116.95 809.57 116.37 809.07 114.67 808.29 112.82 807.05 109.64 806.01 106.16 805.74 105.2 805.48 101.48 803.92 87.26 793.56 84.18 792.06 81.88 791.72 80.9 791.17 80.17 790.63 78.04 787.33 79.9 786.62 82.19 784.91 84.06 782.67 84.9 780.28 84.15 778.04 82.11 776.94 79.61 776.13 77.41 774.83 76.36 772.62 76.66 770.16 82.71 755.88 84.14 753.32 88.71 749.91 90.13 747.63 89.02 744.21 84.92 742.29 79.89 740.91 76.03 739.08 71.76 735.56 69.53 734.23 63.52 731.72 62.7 731.11 61.79 730.2 61.6 729.79 61.77 729.19 61.87 721.85 62.39 719.99 63.8 717.36 64.9 716.69 66.36 716.81 68.8 716.56 71.42 714.95 71.42 712.67 69.87 710.23 61.8 701.66 58.14 696.35 56.41 694.39 54.3 693.7 51.29 694.63 46.99 697.64 45.17 697.94 44.63 695.46 45.68 691.4 45.89 690.63 53.61 678.03 54.58 675.34 55.1 673.14 55.1 670.94 54.53 668.23 53.53 665.86 50.85 661.57 50.03 659.34 49.98 657.49 50.75 651.61 50.37 649.28 48.09 643.1 48.93 641.02 49.16 640.96 53.08 641.09 58.44 642.71 59.9 643.45 60.55 644.27 60.98 645.16 61.79 646.1 65.37 648.91 67.3 649.93 69.06 650.07 70.82 649.04 74.41 645.73 76.77 644.79 80.59 644.03 85.06 642.6 88.38 640.96 89.48 641.6 91.39 643.01 94.99 647.47 98.23 649.7 101.52 650.06 143.6 641.04 142.39 638.71 143.16 635.28 144.58 631.63 145.32 628.59 144.56 624.2 144.76 622.64 145.51 621.03 147.42 618.03 147.89 616.2 143.76 614.32 141.56 610.93 140.65 606.64 139.76 595.22 140.17 593.78 141.35 594.06 142.61 595.4 144.63 597.53 146.49 598.11 147.86 597.36 148.32 596.29 148.39 595.14 148.58 594.22 149.23 592.87 149.75 592.18 150.4 591.58 155.59 588.1 156.73 587.68 161.95 587.54 166.46 589.41 173.46 594.48 Z" id="COG-3345" data-name="Niari"/>
<path d="M 588.44 562.64 586.35 565.88 585.57 567.62 585.03 569.37 584.89 570.58 584.96 574.18 584.33 577.32 582.95 580 574.55 591.08 574.3 591.42 573.73 592.69 573.39 594.13 572.73 594.44 570.88 595.85 569.24 596.54 568.73 596.82 567.77 597.68 566.15 599.76 559.46 606.3 554.97 609.69 549.06 615.35 546.05 617.39 543.42 619.75 540.83 623.13 539.54 625.37 538.77 627.75 538.9 630.21 539.05 631.03 539.04 631.71 537.66 636.47 537.44 638.19 537.8 639.83 538.78 641.29 539.03 641.84 539.23 642.84 539.29 647.96 542.82 673.4 540.59 689.04 538.08 696.61 537.79 698.09 537.67 699.61 538.41 705.76 538.35 705.75 534.21 705.29 531.81 704.81 529.12 704.52 528.17 704.52 527.01 704.64 525.04 705.09 524.04 705.45 523.38 705.82 523.01 706.1 522.7 706.28 522.47 706.36 521.11 706.28 519.41 705.96 518.57 705.6 518 705.16 517.7 704.71 517.32 704.37 516.86 704.1 516.33 703.89 515.86 703.62 515.5 703.26 515.02 701.58 514.72 701.14 514.39 700.73 514 700.39 513.36 699.58 512.95 699.26 512.43 699.03 511.83 698.9 511.31 698.71 510.85 698.43 509.66 697.44 508.39 696.65 505.5 695.45 504.23 695.23 502.9 694.58 501.2 694.05 500.68 693.68 500.16 693.5 499.5 693.94 498.74 694.88 498.35 695.05 497.3 694.46 496.6 694.26 489.74 695.74 488.78 696.1 487.16 696.92 485.98 697.83 485.03 698.41 484.63 698.85 484.34 699.23 483.87 700.22 483.71 700.79 483.2 701.21 482.48 701.52 481.15 701.76 480.54 701.96 480.14 702.15 479.54 702.69 479.28 702.87 478.39 703.26 476.05 703.88 475.02 704.29 473.54 705.15 472.83 705.7 471.73 706.86 471.33 707.16 470.89 707.44 470.07 708.07 468.53 709.48 467.73 710.02 467.09 710.35 464.46 712.13 463.11 712.75 455.51 715.3 454.72 715.35 453.77 715.27 449.9 714.14 449 714.07 447.85 714.1 445.76 714.37 443.83 714.84 442.78 714.85 438.65 714.16 436.57 713.39 436.17 713.13 435.79 712.96 434.47 712.56 434.09 712.35 433.92 712.14 433.82 711.98 433.7 711.72 433.5 711.38 433.07 711.06 432.47 710.84 430.79 710.56 430.17 710.38 429.72 710.1 429.34 709.73 429.06 709.29 428.44 707.67 428.01 704.49 427.79 703.98 427.5 703.53 426.35 702.51 425.81 701.6 425.49 701.18 425.06 700.88 424.1 700.65 417.35 699.99 416.57 700.05 414.23 701.05 412.06 701.72 410.2 701.8 408.07 701.61 407.05 701.31 406.46 700.85 406.33 700.29 406.36 699.7 406.62 698.72 406.63 698.41 406.56 697.92 405.8 694.42 405.8 691.68 405.75 691.04 405.62 690.42 405.39 689.95 405.05 689.55 404.3 688.85 403.97 688.48 403.8 688 403.96 686.24 403.88 685.65 403.68 685.14 403.04 684.32 402.29 682.9 401.99 682.47 401.6 682.12 400.75 682.14 399.55 682.53 396.35 684.41 395.4 685.18 392.84 686.6 392.15 687.14 391.73 687.71 391.63 688.33 391.66 690.25 391.61 690.66 391.27 692.01 390.98 692.63 390.84 692.86 390.72 693.01 390.61 693.12 389.54 693.92 388.68 694.71 384.97 696.8 383.63 697.87 383.49 698.17 382.84 699.05 379.76 701.89 376.87 703.92 376.48 704.3 376.29 704.58 376.16 704.85 375.66 706.27 375.43 706.55 375.16 706.78 373.42 707.93 372.61 708.6 370.06 711.14 368.21 712.26 367.89 712.52 367.56 712.87 366 715.71 365.36 716.53 363.73 718.12 362.48 720.22 362.08 720.62 361.08 720.57 359.47 720.12 356.56 718.5 355.29 717.64 354.5 716.95 354.17 716.55 353.77 716.22 353.24 715.93 352.63 715.74 349.05 715.86 347.87 716.14 347.15 716.11 346.33 715.86 344.06 714.5 342.63 714.25 339.32 714.47 337.15 713.58 334.56 710.09 335.11 709.03 335.26 708.62 335.64 707.92 336.32 707.26 337.57 706.34 337.94 705.96 338.23 705.5 338.43 704.97 338.65 703.79 338.98 703.13 339.51 702.5 340.23 701.99 341.74 701.2 342.46 700.68 343.05 699.93 343.24 698.95 342.89 697.49 339.5 688.06 339.28 686.38 339.05 685.8 338.59 685.79 337.67 686.81 337.17 687.1 336.74 686.63 336.84 685.63 337.17 684.66 338.56 682.14 338.91 681.29 338.86 680.47 338.46 679.8 337.1 679.52 336.1 679.68 335.11 679.64 334.26 679.23 333.27 678.65 332.38 678.54 331.49 678.72 329.67 679.7 328.78 679.82 327.87 679.58 326.78 678.91 325.92 678.57 325.03 678.44 323.33 678.43 322.54 678.22 321.87 677.65 321.44 676.95 321.24 676.2 321.66 675.54 323.07 674.46 324.45 673.17 325.95 672.22 326.65 671.61 326.97 670.81 326.75 670.03 325.7 669.29 324.9 669.36 324.28 669.76 323.85 670.2 323.22 670.16 322.48 669.81 320.87 668.7 320.31 668.03 320.06 667.32 320.64 666.66 322.06 666.34 322.59 666.11 322.94 665.83 323.23 665.35 323.12 664.87 322.74 664.08 319.68 661.23 318.64 658.34 317.57 656.74 318.23 654.86 319.13 653.92 320.14 653.12 320.89 652.2 320.85 649.41 321.33 648.34 322.19 647.43 324.22 645.71 325.18 645.06 326.24 644.58 331.3 643.4 331.76 643.69 330.97 640.32 322.94 633.53 322.6 629.9 324.03 628.78 327.67 627.46 329.08 625.91 329.11 625.14 328.45 623.24 328.57 622.2 329.14 621.7 330.97 621.05 331.69 620.33 332.18 618.81 332.78 613.23 333.48 611.13 333.59 610.08 333.07 609.18 332.21 608.55 331.66 608 331.59 607.34 332.15 606.35 332.1 605.13 332.36 604.19 332.89 603.4 333.64 602.63 345.98 597.82 346.26 598.5 346.66 604.21 347.28 606.27 348.04 607.66 348.88 608.2 350.47 608.59 352.17 608.81 353.04 608.81 353.87 608.72 357.84 607.92 358.63 607.55 359.34 606.97 359.78 606.51 360.08 606.11 360.9 604.37 361.48 603.68 362.28 603.14 363.43 602.86 365.22 602.06 366.8 600.92 369.19 598.71 373.37 592.92 373.79 592.14 374.98 588.99 375.49 588.19 377.58 585.82 378.83 583.83 379.75 582.62 382.7 579.76 383.46 578.81 384.87 576.46 385.13 575.67 385.5 573.19 386.36 571.89 387.76 570.29 392.91 566.02 394.29 565.11 399.52 562.83 400.38 562.63 401.27 562.53 405.38 562.84 406.69 562.53 409.58 561.3 411.25 560.35 415.24 556.58 422.52 547.19 428.02 529.99 430.19 525.44 437.14 516.29 439.35 514.44 444.6 512.14 446.97 510.61 447.76 509.68 449 507.69 449.86 506.81 450.28 506.75 451.39 507.07 451.89 506.96 453.66 505.45 455.18 503.7 458.17 499.12 459.86 497.74 463.63 496.54 465.02 495.77 465.76 495.51 466.21 495.61 467.32 496.2 467.9 496.25 469.58 495.67 472.72 494.09 474.4 493.52 476.41 493.39 482.13 494.87 486.29 495.24 488.09 495.72 489.51 497.03 490.06 499.13 490.11 501.63 490.51 504.09 492.15 506.09 494.15 506.89 499.02 507.99 501.28 508.96 501.99 509.67 502.36 510.4 502.91 510.99 507.82 512.41 508.63 512.77 510.13 515.04 511 516.1 511.81 516.11 512.99 515.48 513.33 516.49 513.4 518.93 515.3 519.88 522.11 520.55 525.51 521.81 528.8 523.45 540.53 530.84 541.16 531.47 541.92 531.92 546.01 532.42 546.67 532.81 547.52 533.62 547.98 534.38 549.63 537.92 551.91 540.92 555.3 550.26 557.93 552.69 562.41 552.9 561.76 554.63 563.23 555.61 565.04 556.18 565.44 556.74 565.69 557.56 567.98 557.92 570.76 557.85 572.49 557.35 574.41 556.13 576.56 555.95 578.72 556.45 581.84 557.71 582.21 557.57 582.34 557.69 582.83 558.87 582.73 560.34 582.23 561.93 582.57 562.93 584.99 562.64 588.37 562.64 588.44 562.64 Z" id="COG-3346" data-name="Plateaux"/>
<path d="M 514.44 798.47 512.88 801.19 512.14 802.01 511.52 803.08 509.59 809.32 507.04 811.76 506.51 812.27 502.4 814.42 497.71 815.82 492.95 816.55 488.3 817.24 472.99 822.1 471.11 822.97 469.49 824.21 468.15 826.21 464.89 836.64 464.32 837.56 461.97 840.02 461.56 840.74 460.64 841.1 458.01 842.47 453.89 843.97 442.09 849.91 440.02 851.25 437.11 852.5 434.53 854 433.41 856.09 432.84 857.52 428.88 863.13 423.29 871.06 420.98 873.2 417.53 868.89 415 863.83 412.05 860.45 408.25 856.66 411.06 851.99 415.7 846.08 417.81 841.02 420.34 834.69 423.72 829.2 425.4 821.18 424.98 815.7 422.87 808.94 422.87 803.46 425.83 797.97 431.73 794.6 435.72 790.36 437.83 784.03 438.67 777.28 439.1 770.11 439.94 763.36 442.05 759.56 445 759.98 448.38 762.51 454.32 764.2 458.97 765.88 461.5 768.84 464.45 771.79 468.25 776.43 471.63 779.81 474.43 780.48 476.96 777.95 479.5 772.47 481.61 768.67 484.56 765.71 488.36 764.87 492.16 766.56 498.06 768.67 500.84 772.19 504.22 777.67 506.75 782.74 508.44 787.38 508.86 791.18 510.55 793.71 512.23 795.82 514.44 798.47 Z" id="COG-4855" data-name="Brazzaville"/>
<path d="M 82.85 908.72 76.96 902.55 75.86 901.26 75.76 900.66 76.26 899.94 76.89 900.06 78.31 901.68 78.85 901.39 79.35 900.1 79.05 897.87 78.13 896.67 84.13 896.69 84.06 908.74 82.85 908.72 Z" id="COG-5855" data-name="Pointe Noire"/>
</g>
</svg>