<?xml version="1.0"?>
<svg xmlns="http://www.w3.org/2000/svg" version="1.2" baseProfile="tiny" width="800" height="835" viewBox="0 0 800 835" stroke-linecap="round" stroke-linejoin="round">
<g id="ne_10m_admin_1_states_provinces">
<path d="M 405.22 40.3 407.5 41.59 409.8 44.55 411.39 47.84 411.54 50.11 413.39 50.78 414.3 50.94 415.5 51 416.28 51.45 416.85 52.52 417.29 53.68 417.7 54.48 419.1 55.69 420.89 56.61 423.08 57.14 425.72 57.24 426.33 56.84 426.82 56.11 427.31 55.6 427.98 55.9 428.56 56.27 429.25 56.39 430.74 56.34 432.25 55.99 433.07 55.18 433.73 54.27 434.71 53.67 436.91 53.75 442.95 54.63 445.03 54.08 451.45 57.81 452.62 57.68 453.59 55.94 455.73 56.12 457.79 57.46 457.88 57.52 458.84 59.47 458.84 66.64 458.5 67.35 458.01 68.1 458.16 68.69 459.74 68.83 460.67 68.52 461.44 67.86 462.04 67.02 462.42 66.15 462.79 68.83 461.67 71.19 461.6 72.61 465.09 72.47 464.21 74.82 464.99 76.16 468.29 78.31 468.53 79.33 465.47 80.38 464.29 81.46 465.38 81.48 466.24 81.74 466.99 82.09 467.84 82.35 466.07 83.17 467.13 84.7 468.58 84.91 470.11 84.26 471.41 83.17 472.07 85.52 473.47 86.78 475.18 87.59 476.77 88.59 478.23 90.58 479.13 92.97 478.63 94.74 475.87 94.83 476.45 96.16 477.92 98.05 479.34 101.11 479.58 101.93 477.71 107.29 477.87 108.77 481.71 112.3 482.84 112.69 483.58 111.84 484.26 110.67 485.27 110.07 486.75 110.35 487.34 110.96 487.79 111.58 488.88 111.85 491.94 112.07 494.53 112.89 496.38 114.52 497.26 117.2 499.75 116.4 500.81 118.36 501.46 121.33 502.7 123.52 500.61 124.26 499.5 124.42 498.23 124.33 498.23 125.31 499.39 126.33 499.64 126.85 500.01 127.9 501.75 127.39 503.47 130.13 505.46 129.76 504.71 129.09 504.49 128.49 504.96 128.05 506.26 127.9 507.6 128.07 508.26 128.53 508.69 129.24 509.42 130.17 510.93 131.51 511.42 132.36 511.61 133.74 511.89 134.74 512.59 135.28 514.35 136 515.02 136.74 514.98 137.25 515.08 137.35 516.14 136.89 517.2 136.21 518.06 135.32 518.52 134.55 518.38 134.22 520.29 134.22 521.91 134.01 523.45 133.2 525.14 131.47 526.61 132.68 528.49 135.47 530.01 136 531.9 135.47 532.4 134.12 532.46 132.37 533.1 130.57 533.51 129.69 533.61 129.18 534.02 128.93 536.4 128.93 537.42 129.13 538.2 129.53 538.51 130.17 538.22 132.41 536.94 135.79 536.64 138.19 538.49 140.88 542.74 141.31 547.42 141.09 550.58 141.84 551.75 143.74 552.87 148.03 553.75 149.45 555.54 150.29 555.97 149.11 555.95 146.97 556.34 144.91 558.34 145.45 561.88 146.91 561.89 146.89 563.49 147.56 569.29 155.26 570.3 156.02 571.32 156.57 572.09 157.34 572.41 158.78 572.41 160.17 572.54 161.22 572.95 162.16 573.79 163.24 577.32 166.55 578.35 168.36 579.01 172.63 580.24 174.75 580.51 175.72 580.36 176.75 579.69 178.09 579.53 179.36 579.39 179.85 579.07 180.53 578.78 181.41 578.72 182.48 579.07 183.64 579.59 184.24 580.14 184.64 580.51 185.16 580.87 187.37 580.44 188.8 579.81 190.19 579.53 192.29 579.77 193.26 580.28 194.41 580.87 195.42 581.32 195.94 582.85 196.51 583.18 196.1 583.27 195.17 584.08 194.15 586.51 192.91 588.53 192.29 589.76 192.17 590.69 192.2 591.46 192.08 592.18 191.48 595.75 194.53 599.23 196.83 604.59 197.93 607.26 199.21 608.67 199.5 609.68 200.1 610.09 201.46 610.35 202.96 610.9 203.96 611.88 204.19 615.8 203.96 617.88 204.79 616.28 209.16 618.11 211.17 617.61 211.42 617.46 211.43 617.4 211.5 617.14 211.98 619.82 211.63 621.94 210.84 623.47 210.85 624.35 212.87 624.41 216.21 623.41 216.42 621.96 214.84 620.7 212.87 619.43 215.9 618.97 218.78 619.94 220.94 624.59 222.07 626.75 222.85 628.7 224.01 629.7 225.43 629.4 227.21 628 227.77 626.1 227.83 624.35 228.1 621.14 229.46 618.37 231.13 617.36 233.41 619.41 236.57 621.51 238.41 625.42 242.99 627.92 245.04 627.92 246.01 626.75 246.15 626.29 246.43 625.98 246.94 625.24 247.8 625.77 247.99 625.86 248.05 625.84 248.21 626.05 248.69 627.69 248.54 629.5 249.45 630.96 251 631.56 252.74 631.25 255.6 630.4 256.1 629.1 255.48 627.47 255.01 626.72 255.89 623.37 261.17 620.91 263.09 620.5 264.22 622.56 264.81 621.47 265.95 619.73 266.44 615.8 266.52 613.58 267.24 612.28 269.04 610.9 273.73 612.2 274.83 612.91 276.81 610.99 277.13 609.73 277.48 607.69 278.27 607 278.36 606.28 278.16 605.6 277.56 604.31 276.07 603.98 275.8 603.52 275.56 601.45 275.06 599.81 275.04 598.75 275.14 596.47 275.73 595.29 275.74 593.75 275.6 590.85 274.96 589.38 274.89 588.24 274.92 587.54 275.14 586.77 275.28 585.96 275.27 585.07 275.02 584.11 274.25 583.03 273.06 582.41 272.68 581.63 272.46 580.32 272.59 579.44 272.84 578.02 273.4 577.31 273.55 576.48 273.5 575.66 273.18 574.73 272.39 574.25 271.67 573.64 270.29 573 269.67 570.39 268.2 569.63 267.43 569.18 266.63 568.92 265.1 568.6 264.52 568 264.08 567.14 263.82 565.68 263.82 564.69 263.94 561.64 264.63 560.82 264.55 560.1 264.25 559.47 263.55 559.15 262.83 558.93 262.07 557.82 254.21 557.4 252.85 557.08 252.28 556.69 251.76 555.7 250.92 553.36 249.65 552.88 249.23 552.45 248.75 551.18 246.43 550.01 245.78 548.17 245.08 543.79 244.04 542 243.3 540.88 242.61 540.21 241.48 539.8 240.98 539.35 240.62 534.57 238.8 533.49 238.51 532.55 238.51 531.02 238.99 529.43 239.81 481.79 238.28 481.79 233.47 482.79 232.81 483.73 232.42 484.74 231.42 486.44 228.94 486.97 227.6 487.13 226.71 487.06 226.47 487.02 226.39 487.01 226.32 488.74 214.38 488.7 212.88 488.5 211.82 488.13 211.27 487.69 210.85 487.16 210.53 485.89 210.32 484.83 209.71 484.23 209.47 482.26 209.16 481.65 208.88 480.21 207.62 478.98 207.05 478.29 206.81 477.59 206.26 476.92 205.42 475.41 201.59 475.08 201.03 474.67 200.51 473.37 199.3 472.92 198.69 472.2 197.37 471.91 196.38 471.82 195.43 471.82 193.63 471.34 189.62 470.94 188.11 469.45 187.37 467.49 186.8 454.1 184.55 453.06 184.79 452.45 185.19 451.69 186.12 450.69 187.11 450.23 187.49 449.63 187.78 448.95 187.98 448.07 187.88 447.16 187.6 446.1 186.86 445.56 186.21 445.2 185.52 442.04 177.98 441.24 176.79 440.47 176.08 439.72 175.92 438.13 175.92 432.16 176.85 429.3 176.16 424.92 181.42 422.97 184.89 422.17 188.32 421.81 192.52 420.53 196.38 418.05 198.77 414.07 198.53 415.86 200.47 416.65 202.44 416.62 204.67 415.01 210.4 413.66 213.34 411.65 215.14 408.72 214.65 408.53 218.13 416.36 223.19 418.52 227.13 417.33 226.67 416.04 226.36 414.66 226.24 413.26 226.32 413.26 227.13 414.03 227.49 415.93 229 412.7 230.96 413.43 236.01 410.06 237.02 409.21 237.7 410.57 239.13 412.47 240.42 413.26 240.67 413.48 242.3 412.52 243.63 411.61 243.9 410.3 244.37 409.05 244.32 408.28 244.81 407.58 244.85 406.17 244.72 404.95 244.05 403.89 243.84 403.03 243.78 400.72 243.96 399.3 244.26 398.62 244.48 398.04 244.75 397.53 245.14 395.69 246.93 395.19 247.31 394.64 247.65 393.44 248.19 392.76 248.4 392.09 248.56 391.36 248.56 389.92 248.23 387.49 248.01 386.81 247.79 385.76 247.1 385 246.89 384.18 246.89 383.15 247.14 382.45 248.07 380.62 252.62 379.29 257.29 379.23 258.4 379.42 259.15 379.82 259.17 380.45 258.58 380.87 257.61 381.45 257.1 382.13 256.95 382.75 257.17 383.28 257.56 383.64 258.11 384.05 259.51 384.4 260.04 385.62 260.66 386.05 261.11 386.1 261.9 385.66 262.3 385.04 262.49 383.61 262.52 382.83 263.05 382.72 263.65 382.9 264.23 383.28 264.74 383.55 265.42 383.68 266.25 383.26 268.68 383.21 269.63 382.97 270.72 382.45 271.04 381.87 271.2 381.66 271.66 381.71 273.77 381.83 274.48 382.2 274.98 383.53 276.33 384.03 276.56 384.62 276.47 385.68 275.78 386.26 275.5 386.97 275.4 387.68 275.49 388.37 275.67 389.02 275.94 389.59 276.28 390.05 276.78 390.37 277.47 390.32 281.07 390.2 281.83 390.17 282.59 390.29 283.26 390.6 283.74 390.99 284.11 391.48 284.45 392.01 284.73 392.68 284.73 393.31 284.61 393.98 284.61 394.5 285.01 394.73 285.71 394.8 286.81 393.75 287.86 376.53 283.73 349.62 273.92 348.58 273.32 328.7 242.46 326.39 237.74 326.2 237.05 326 235.36 325.71 234.21 325.24 233.56 324.62 233.09 322.08 231.85 313.58 226.4 313.56 226.37 313.53 226.34 313.23 225.94 312.98 225.45 312.26 223.47 311.9 222.77 310.55 220.8 309.95 219.59 309.73 218.91 309.62 218.24 309.6 217.46 309.7 216.71 309.9 215.96 311.82 212.37 312.62 211.37 314.06 210.07 314.47 209.53 314.78 208.9 314.92 208.16 314.91 207.39 314.81 206.62 314.26 205.52 311.13 201.6 308.36 199.96 306.83 199.64 305.84 199.53 305.1 199.53 302.53 198.86 298.95 199.55 297.63 200.51 297.3 201.06 296.74 202.38 296 205.27 295.23 206.68 294.5 207.2 293.57 207.39 292.59 207.46 291.12 208.07 290.39 208.66 288.02 211.91 285.4 214.9 283.96 216.02 282.8 216.55 282.09 216.36 281.48 216.06 280.93 215.67 280 214.72 279.26 213.68 278.61 212.56 277.54 209.75 277.08 208.82 276.34 207.73 274.97 206.44 274.2 206.1 273.17 205.9 271.36 205.9 270.36 206.12 269.58 206.43 269.1 206.81 268.7 207.3 268.41 207.91 268.23 208.58 268.26 209.29 268.43 209.96 269.57 212.39 269.35 213.33 268.58 214.51 266.29 216.46 264.95 217.21 263.77 217.61 252.65 216.82 251.92 216.58 251.42 216.29 250.45 215.4 248.93 213.72 249.07 212.48 250.1 211.64 245.42 211.02 246.5 207.35 246.45 206.58 246.23 205.58 245.19 203.75 245.31 201.96 246.81 194.54 246.94 192.4 246.68 191.07 246.16 190.68 245.29 189.63 244.94 189.12 244.47 188.68 242.6 185.3 241.05 179.91 240.59 177.46 240.53 175.8 241.66 174.09 241.86 172.99 241.61 172.02 241.04 170.53 240.89 169.68 240.92 169.15 241.23 168.69 241.64 168.3 241.99 167.76 242.25 167.07 242.56 165.51 242.79 164.8 243.2 164.3 243.78 163.98 244.42 163.72 245.04 163.18 245.56 162.32 246.08 160.6 246.16 159.51 246 158.66 245.64 158.3 244.87 157.81 243.07 156.32 241.93 154.76 241.12 153.98 238.74 152.59 240.28 146.22 241.09 143.97 241.45 143.41 243.43 140.96 243.69 139.91 243.88 138.39 244.3 137.48 244.91 136.77 245.78 136.05 245.9 135.42 245.71 134.88 245.31 134.24 244.98 133.51 244.92 132.23 245.33 131.34 246.02 130.23 246.27 129.35 246.24 128.6 245.9 128.03 245.36 127.59 244.11 126.8 243.59 126.05 243.7 124.85 244.34 122.78 244.71 120.26 245.19 118.95 245.73 118.08 246.35 117.41 247.12 116.18 247.16 115.37 246.99 114.69 246.25 113.66 245.92 113.09 245.12 109.84 244.79 109.02 244.38 108.39 243.9 107.99 243.38 107.65 242.82 107.08 242.27 106.27 241.26 103.79 240.81 103.08 240.28 102.65 239.64 102.34 238.87 102.18 238.08 102.13 221.49 102.65 220.67 102.49 219.89 102.23 219.24 101.65 219.18 101.04 219.39 100.42 221.65 97.01 222.66 95.84 225.43 93.3 225.74 92.56 226.09 91.44 226.08 90.41 226.34 88.74 226.89 87.48 228 85.77 228.42 84.69 228.5 83.67 228.37 83.04 227.35 81.84 228.89 79.9 231.22 78.75 234.75 78.17 236.5 78.32 241.38 77.44 242.73 79.88 244.26 81.25 245.69 82 246.73 82.35 247.72 82.51 248.52 82.48 249.98 82.24 255.17 80.58 265.8 74.86 266.29 74.46 266.71 74.02 266.79 73.35 266.44 71.11 266.51 69.49 267.1 66.65 266.92 65.84 262.82 64.64 262.03 64.03 260.92 62.94 260.62 62.07 260.49 61.24 260.55 60.44 260.91 58.76 260.87 57.74 260.35 55.62 259.45 54.27 257.22 49.61 255.64 48.08 256.2 43.88 256.77 42.92 257.63 41.92 258.29 40.77 258.31 39.35 257.51 38.4 256.12 37.81 254.68 37.37 253.71 36.88 252.05 34.33 251.82 32.1 253.09 27.9 253.74 21.95 253.38 20.91 252.9 20 252.66 18.89 252.94 16.49 253.56 14.04 253.86 13.94 255.69 10.87 255.52 10.44 258.4 9.5 260.12 10.59 262.77 15.1 264.74 16.87 267.42 18.67 272.71 21.47 274.82 22.18 281.92 23.58 284.66 23.75 287.86 23.18 290.3 21.54 290.77 18.49 289.79 17.27 288.18 16.51 286.66 15.56 285.98 13.76 286.23 8.64 287.14 6.27 289.38 5.19 292.22 5.04 294.9 5.47 298.27 5.57 300.82 4.39 303.25 2.74 306.33 1.42 309.47 1 310.79 1.75 310.97 3.56 310.32 8.95 310.69 9.99 313.15 10.87 314.57 11.63 315.76 12.61 316.19 13.65 315.5 15.19 314.19 15.96 312.77 16.61 311.73 17.78 312.48 19.59 312.85 21.16 312.68 22.7 311.82 23.79 309.43 25.71 308.82 26.76 308.77 28.73 309.46 29.05 310.55 28.76 311.73 28.9 312.4 29.58 313.1 30.49 313.85 31.27 314.73 31.53 316.23 31.3 317.28 31.26 318.04 31.72 318.63 33.01 318.41 33.78 317.01 36.13 316.73 37.26 317.18 38.51 319.31 40.98 317.34 45.03 316.94 47.43 318.87 49 315.69 52.5 315.76 52.96 316.07 53.72 316.25 54.58 315.97 55.27 314.9 55.66 314.01 55.33 313.39 54.79 313.08 54.58 311.46 56.34 311.12 58.11 311.55 62.95 313.54 62.55 314.95 63.49 317.52 66.58 319.27 67.67 329.13 71.13 340.81 71.06 343.26 68.66 344.81 66.17 345.72 63.39 346.18 60.12 347.71 58.93 353.8 61.03 355.32 59.9 354.77 52.75 355.31 50.37 356.82 48.19 358.81 46.75 368.18 41.86 384.98 38.2 392.26 37.5 395.88 36.58 397.15 36.54 398.8 37.11 401.67 38.97 405.22 40.3 Z" id="CIV-3431" data-name="Savanes"/>
<path d="M 255.64 48.08 257.22 49.61 259.45 54.27 260.35 55.62 260.87 57.74 260.91 58.76 260.55 60.44 260.49 61.24 260.62 62.07 260.92 62.94 262.03 64.03 262.82 64.64 266.92 65.84 267.1 66.65 266.51 69.49 266.44 71.11 266.79 73.35 266.71 74.02 266.29 74.46 265.8 74.86 255.17 80.58 249.98 82.24 248.52 82.48 247.72 82.51 246.73 82.35 245.69 82 244.26 81.25 242.73 79.88 241.38 77.44 236.5 78.32 234.75 78.17 231.22 78.75 228.89 79.9 227.35 81.84 228.37 83.04 228.5 83.67 228.42 84.69 228 85.77 226.89 87.48 226.34 88.74 226.08 90.41 226.09 91.44 225.74 92.56 225.43 93.3 222.66 95.84 221.65 97.01 219.39 100.42 219.18 101.04 219.24 101.65 219.89 102.23 220.67 102.49 221.49 102.65 238.08 102.13 238.87 102.18 239.64 102.34 240.28 102.65 240.81 103.08 241.26 103.79 242.27 106.27 242.82 107.08 243.38 107.65 243.9 107.99 244.38 108.39 244.79 109.02 245.12 109.84 245.92 113.09 246.25 113.66 246.99 114.69 247.16 115.37 247.12 116.18 246.35 117.41 245.73 118.08 245.19 118.95 244.71 120.26 244.34 122.78 243.7 124.85 243.59 126.05 244.11 126.8 245.36 127.59 245.9 128.03 246.24 128.6 246.27 129.35 246.02 130.23 245.33 131.34 244.92 132.23 244.98 133.51 245.31 134.24 245.71 134.88 245.9 135.42 245.78 136.05 244.91 136.77 244.3 137.48 243.88 138.39 243.69 139.91 243.43 140.96 241.45 143.41 241.09 143.97 240.28 146.22 238.74 152.59 241.12 153.98 241.93 154.76 243.07 156.32 244.87 157.81 245.64 158.3 246 158.66 246.16 159.51 246.08 160.6 245.56 162.32 245.04 163.18 244.42 163.72 243.78 163.98 243.2 164.3 242.79 164.8 242.56 165.51 242.25 167.07 241.99 167.76 241.64 168.3 241.23 168.69 240.92 169.15 240.89 169.68 241.04 170.53 241.61 172.02 241.86 172.99 241.66 174.09 240.53 175.8 240.59 177.46 241.05 179.91 242.6 185.3 244.47 188.68 244.94 189.12 245.29 189.63 246.16 190.68 246.68 191.07 246.94 192.4 246.81 194.54 245.31 201.96 245.19 203.75 246.23 205.58 246.45 206.58 246.5 207.35 245.42 211.02 240.65 213.84 237.43 214.72 236.25 215.28 234.63 216.37 233.04 216.92 227.86 218.14 226.51 218.8 225.74 219.58 225.54 220.41 225.17 221.36 224.35 222.62 224.06 223.58 223.97 224.46 224.07 226.33 224.08 226.38 224.08 226.41 224.7 232.28 224.66 233.07 224.42 233.88 223.98 233.89 223.5 233.68 222.56 232.78 221.92 232.42 221.09 232.2 219.63 232.28 218.65 232.19 217.91 231.88 217.42 231.45 216.7 231.12 215.82 230.93 212.11 231.67 209.98 231.88 209.16 231.84 208.42 231.71 207.73 231.49 207.12 231.16 206.6 230.75 206.16 230.25 204.72 228.12 204.3 227.64 203.72 227.34 202.99 227.25 200.71 227.43 199.94 227.29 199.33 227 198.86 226.7 198.57 226.4 198.55 226.38 198.53 226.35 198.45 226.26 198.1 226.02 197.43 225.68 196.24 225.38 195.42 225.45 194.78 225.74 194.4 226.05 194.16 226.35 194.15 226.37 193.94 226.86 192.74 228.31 191.15 229.31 189.05 231.21 187.25 232.57 183.95 233.52 182.2 233.59 181.95 233.84 181.84 234.4 182.16 234.95 182.71 235.23 183.72 235.32 184.98 235.64 184.99 236.4 184.17 237.91 184.15 239.66 183.87 241.04 183.27 242.21 182.31 243.34 184.15 244.09 185.26 245.59 185.81 247.65 185.96 250.02 186.23 250.77 187.42 253.03 187.66 254.04 187.35 254.99 186.21 256.08 185.96 257.2 185.72 259.44 184.17 265.71 184.03 270.57 183.58 273.1 182.31 275.51 184.09 275.56 185.03 276.07 184.86 276.74 183.28 277.29 184.96 278.55 186.36 280.98 187.3 283.69 187.99 288.59 183.75 284.76 182.63 282.81 182.14 281.51 181.8 280.85 181.05 280.02 179.86 278.95 176.57 276.77 175.62 276.3 174.23 275.9 172.97 275.36 171.84 274.69 170.1 272.95 166.62 268.19 165.31 265.89 164.67 265.19 163.78 264.41 160.89 262.61 159.39 261.86 158.28 261.16 152.53 254.49 147.76 251.78 147.32 251.43 146.85 250.9 143.25 245.28 142.27 244.23 134.68 237.63 130.62 236.27 128.18 235.12 127.11 234.41 126.15 233.53 125.33 232.33 119.47 221.41 116.2 216.92 114.65 216.56 114.84 216.42 113.19 214.43 107.75 211.41 104.84 209.17 103.42 207.73 101.63 204.39 100.55 204.18 99.23 204.72 97.61 205 90.97 202.39 90.83 197.64 95.49 186.3 95.91 183.29 99.35 172.88 98.67 171.75 93.28 171.74 90.52 172.32 85.56 175.1 82.88 176.09 80.49 176.32 77.56 176.18 74.72 175.6 72.58 174.5 70.4 172.17 62.8 161.49 61.82 159.41 61.2 157.09 60.75 154.12 60.68 151.25 60.85 150.05 65.65 116.1 65.05 113.31 62.6 113.51 62.06 113.32 61.53 112.13 61.91 111.66 62.54 111.5 62.76 111.19 62.56 110.48 62.25 108.2 61.77 107.47 61.02 107.29 60.3 107.25 59.86 106.98 59.39 105.92 58.97 104.59 59.08 103.43 61.88 102.37 63.49 101.11 63.99 99.83 62.34 99.25 61.09 97.81 62.49 94.53 65.13 91 67.58 88.77 74.22 86.3 77.22 84.64 79.73 81.44 80.16 79.54 80.83 77.79 81.8 76.17 83.13 74.7 85.58 75.6 88.32 75.55 91.04 74.83 93.4 73.73 95.84 71.71 97.07 70.93 100.42 70.46 101.7 70 102.84 69.25 104.1 68.21 107.23 64.27 107.72 63.28 108.18 61.86 109.03 61.15 110 60.54 110.73 59.51 110.98 57.63 112.53 54.99 110.81 52.78 113.45 52.23 116.33 50.53 117.81 48.37 116.24 46.46 117.45 45.86 118.03 45.65 118.03 44.76 119.81 43.3 120.97 43.03 122.52 43.22 123.68 42.85 124.34 41.48 124.85 39.87 125.59 38.77 128.29 38.34 132.98 41.18 136.03 41.47 137.35 41.33 139.69 41.37 140.86 40.95 141.88 40.02 144.99 36.08 146.86 35.97 148.38 36.3 149.63 37.06 150.76 38.26 151.47 39.77 151.58 41.27 151.47 42.65 151.56 43.8 152.08 45.11 154.28 48.74 154.46 50.16 154.13 51.41 154.31 52.21 156.01 52.27 157.21 51.97 160.76 50.64 163.72 50.83 164.5 52.83 163.67 58.17 163.79 61.31 164.89 62.92 167.03 63.48 175.25 63.66 185.6 65.23 198.45 68.79 200.65 70.05 202.78 72.54 204.73 75.48 207.04 77.56 210.27 77.45 213.32 76.38 216.03 74.38 217.63 71.63 217.34 68.29 216.09 66.85 214.38 65.77 213 64.59 212.71 62.85 215.84 52.46 217.39 50.82 220.33 50.37 227.73 51.29 230.25 50.96 237.93 47.43 240.78 47.14 243.63 48.05 248.55 50.93 251.45 51.24 254.45 50.28 255.56 48.71 255.64 48.08 Z" id="CIV-3437" data-name="Denguélé"/>
<path d="M 187.99 288.59 189.7 292.23 190.5 295.2 190.5 300.55 191.78 308.58 193.1 311.14 195.1 313.22 197.62 314.81 196.12 315.84 195.71 316.56 195.81 317.32 195.83 323.12 194.47 325.26 195.3 328.51 196.95 331.88 198.51 333.69 197.69 336.16 198.31 337.97 199.46 339.66 200.22 341.8 200.02 342.83 198.81 344.57 198.51 345.69 198.51 350.22 199.15 352.89 201.39 358.36 184.93 358.44 181.07 357.63 179.89 355.25 175.48 348.14 175.06 347.6 174.56 347.18 169.77 344.11 167.57 343.06 163.01 341.99 161.99 341.6 161.29 341.12 160.88 340.59 160.25 339.43 159.73 338.8 159.06 338.13 157.68 337.18 155.69 335.45 154.75 335.14 153.62 335.18 152.94 335.58 152.43 336.05 151.65 337.04 150.75 337.9 148.7 339.43 147.76 340.26 147.39 340.68 147.11 341.09 146.65 341.95 145.46 346.37 145.28 349.67 145.4 350.46 145.65 351.12 146.01 351.65 146.79 352.5 146.99 352.82 147.06 353.08 146.94 353.31 146.34 354.19 146.09 354.8 145.97 355.5 146 356.21 146.13 356.69 146.23 356.93 147.05 358.34 147.2 358.73 147.35 359.32 147.5 363.37 147.66 364.06 147.67 364.76 147.46 365.44 146.54 366.2 145.86 366.64 145.41 367.08 145.32 367.59 145.53 368.13 145.78 368.65 145.93 369.13 145.67 369.54 145.21 369.82 144.8 370.15 144.37 370.62 143.96 371.19 143.41 371.82 142.58 371.86 141.91 372.09 141.36 372.42 140.09 373.59 138.82 374.34 137.9 374.55 136.94 374.61 135.82 374.49 134.66 374.96 133.72 375.04 133.13 374.9 132.77 374.33 132.49 373.67 132.03 373.24 131.64 373.26 131.21 373.65 130.78 374.17 130.1 374.67 128.67 376.09 126.68 377.15 125.76 377.46 125.06 377.48 124.69 377.09 124.31 376.58 123.91 376.15 123.38 376 122.43 376.97 121.9 377.09 121.43 376.83 121.06 375.59 120.66 375.02 119.93 374.57 119.38 374.12 118.84 373.43 117.86 372.7 115.65 371.99 112.95 371.56 111.61 371.15 110.93 370.59 110.63 370.01 109.58 368.38 109.18 367.88 108.23 367.03 107.92 366.42 107.68 365.73 107.37 365.09 106.67 364.72 106.11 364.31 105.15 363.45 104.59 363.09 103.91 362.82 103.27 362.45 102.36 362.2 101.89 361.88 101.82 361.37 102.06 360.85 102.23 360.3 102.1 359.74 101.33 358.79 101.05 358.18 100.88 357.57 100.64 356.99 100.61 356.93 100.6 356.92 100.54 356.89 98.66 355.16 96.96 354.52 96.05 354.63 95.47 355.14 95.02 355.84 94.14 356.02 91.11 355.53 88.71 354.52 86.26 353.44 85.93 352.12 84.33 349.25 82.16 346.86 79.73 345.4 79 343.55 78.94 341.58 79.73 337.61 80.7 336.01 81.46 334.2 81.35 332.93 79.73 332.95 71.86 335.62 70.61 335.8 57.89 331.93 47.05 324.84 47.23 323.47 49.37 321.24 49.75 319.74 49.45 317.29 49.45 314.84 51.06 307.41 50.85 304.72 50.17 303.07 49.26 301.63 48.58 300.23 48.56 298.66 49.29 297.74 55.63 292.74 57.45 292.5 62.12 293.44 64.79 293.16 69.13 291.45 71.77 291.25 72.88 291.62 74.31 292.87 75.16 293.29 76.23 293.35 78.53 293.16 79.73 293.35 83.62 292.34 85.62 292.07 87.48 292.41 89.1 293.68 90.01 295.41 90.71 297.29 91.72 299.02 93.15 300.27 95.02 301.3 97.14 301.93 99.32 302.01 101.54 300.99 101.78 299.16 101.44 297 101.92 295.03 104.78 294.57 107.57 298.31 111.67 306.49 114.63 308.35 118.24 308.84 125.85 308.01 123.13 302.47 122.3 299.69 122.71 296.56 123.65 293.28 123.65 291.01 122.03 285.58 121.73 282.83 122.04 277.82 121.36 275.38 120.43 274.25 116.79 271.82 115.56 270.41 112.44 264.77 111.54 263.67 109.07 261.53 108.45 260.8 107.41 259.16 106.56 258.6 105.79 258.58 104.42 259.27 103.84 259.34 96.01 256.99 93.12 256.66 87.14 254.86 85.83 250.83 88.21 239.52 88.77 233.11 89.4 230.03 90.67 226.86 90.68 226.86 90.68 226.85 90.68 226.85 92.65 224.79 104.36 218.85 106.87 218.56 109.44 218.56 112.56 218.1 114.65 216.56 116.2 216.92 119.47 221.41 125.33 232.33 126.15 233.53 127.11 234.41 128.18 235.12 130.62 236.27 134.68 237.63 142.27 244.23 143.25 245.28 146.85 250.9 147.32 251.43 147.76 251.78 152.53 254.49 158.28 261.16 159.39 261.86 160.89 262.61 163.78 264.41 164.67 265.19 165.31 265.89 166.62 268.19 170.1 272.95 171.84 274.69 172.97 275.36 174.23 275.9 175.62 276.3 176.57 276.77 179.86 278.95 181.05 280.02 181.8 280.85 182.14 281.51 182.63 282.81 183.75 284.76 187.99 288.59 Z" id="CIV-3440" data-name="Bafing"/>
<path d="M 201.39 358.36 202.98 362.38 202.97 365.05 202.08 366.6 200.75 367.83 199.41 369.51 198.92 370.48 198.66 371.33 198.51 373.44 198.78 374.77 199.95 376.16 200.22 377.09 200.71 385.62 201.54 390.14 202.98 393.58 203.09 395.07 203.02 396.49 202.68 397.8 202 399.01 202.86 401.1 204.29 406.82 205.17 408 208.03 407.12 209.48 407.12 210.68 409.42 213.52 409.77 214.56 410.59 214.6 413.19 212.67 414.55 210.34 415.63 209.21 417.32 209.97 420.44 210.1 421.77 209.97 422.19 209.66 422.43 209.35 422.78 209.21 423.56 209.59 424.04 211.35 425.06 211.89 425.83 211.56 429.34 209.31 430.77 206.77 431.64 205.57 433.45 205.17 434.9 204.27 436.18 203.38 437.2 202.7 438.34 202.08 438.58 201.47 438.93 201.19 439.72 201.31 440.59 201.85 441.96 203.05 448.48 203.29 451.68 202.49 453.95 201.83 455.33 202.08 456.77 202.65 458.16 202.98 459.38 202.08 463.83 202 465.21 207.02 477.19 207.2 479.17 206.77 481.01 204.48 488.45 203.87 492.57 203.88 494.03 204.14 496.71 203.24 496.67 197.1 495.62 195.18 494.83 191.98 492.67 191.36 492.37 190 492.32 179.99 493.37 175.56 492.3 174.77 492.22 172.99 492.18 160.73 494.2 157.02 495.2 155.69 495.4 141.91 495.46 133.5 496.74 131.87 499.76 131.64 500.67 131.11 507.48 129.35 507.84 107.54 508.15 105.39 507.98 103.51 507.58 102.31 506.43 101.75 505.58 100.26 501.44 99.66 500.23 99.01 499.65 98.03 499.11 94.87 498.22 93.04 497.92 92.07 497.49 90.95 496.79 88.19 494.26 87.13 493.47 86.49 493.08 83.13 491.64 80.2 492.64 75.05 497.55 73.57 498.33 72.49 498.57 71.83 498.39 71.43 498.79 71.1 499.46 70.52 500.28 69.8 500.73 68.8 501.16 68.64 501.57 69.05 502.47 68.48 504.21 67.41 506.41 67.18 507.24 67.16 507.89 67.37 508.38 67.79 508.5 68.26 508.58 68.6 509.02 69.84 512.2 69.75 513 69.21 513.32 68.43 513.62 67.39 514.19 66.18 515.16 64.65 516.05 63.89 516.4 63.17 517.42 61.67 518.53 61.39 519.08 61.35 520.37 60.88 523.03 60.33 524.45 59.31 525.48 58.52 525.99 57.77 526.06 57.29 525.76 57.02 525.27 56.96 524.71 56.66 524.31 55.88 524.34 53.26 525.95 52.84 526.69 52.98 527.21 53.84 529.03 53.89 529.93 53.43 530.27 52.11 530.48 51.49 530.66 50.81 530.78 49.44 530.57 49.12 530.86 49.4 531.92 49.44 532.65 49.17 533.5 49.09 534.22 49.2 534.91 49.22 535.54 49.12 536.34 48.16 536.81 44.99 539.3 44.11 539.44 42.45 540.02 41.4 540.53 39.95 541.56 39 541.53 37.78 541.04 24.99 532.86 24.12 532.51 35.85 519.45 37.71 516.59 39.35 512.8 40.44 508.88 40.66 507.05 40.56 505.29 39.92 504.52 38.86 503.82 38.21 502.84 39.88 499.24 40 497.19 39.84 495.05 40 492.73 40.71 491.61 43.38 489.55 44.35 488.32 44.68 485.18 42.45 472.73 42.27 469.54 41.91 468.33 41.11 466.97 39.19 465.04 38.73 464.23 38.62 463.39 38.9 461.74 38.83 460.87 38.3 459.85 36.74 457.9 36.12 456.87 35.1 452.82 34.25 451.1 32.03 447.95 31.16 446.39 30.46 443.86 28.88 431.2 26.21 421.98 23.86 417.39 18.4 414.66 24.33 409.19 27.62 407.49 30.75 411.03 33.17 410.84 37.81 409.46 42.19 410.57 47.13 414.39 51.88 416.45 55.63 412.27 55.69 411.35 55.27 409.23 55.32 408.24 55.94 406.75 58.56 403.45 59.14 402.93 60.61 402.1 61.15 401.57 61.23 401.03 60.86 399.75 60.95 399.21 65.15 394.42 65.77 392.53 66.24 388.18 66.75 386.08 67.35 385.36 68.21 384.85 68.95 384.13 69.2 382.82 68.53 381.39 65.62 378.88 64.65 377.53 64.95 372.29 71.45 362.48 72.78 357.4 73 354.24 72.76 353.13 74.75 353.2 80.21 352.31 81.49 352.72 82.76 353.8 84.34 354.79 86.65 354.97 86.26 353.44 88.71 354.52 91.11 355.53 94.14 356.02 95.02 355.84 95.47 355.14 96.05 354.63 96.96 354.52 98.66 355.16 100.54 356.89 100.6 356.92 100.61 356.93 100.64 356.99 100.88 357.57 101.05 358.18 101.33 358.79 102.1 359.74 102.23 360.3 102.06 360.85 101.82 361.37 101.89 361.88 102.36 362.2 103.27 362.45 103.91 362.82 104.59 363.09 105.15 363.45 106.11 364.31 106.67 364.72 107.37 365.09 107.68 365.73 107.92 366.42 108.23 367.03 109.18 367.88 109.58 368.38 110.63 370.01 110.93 370.59 111.61 371.15 112.95 371.56 115.65 371.99 117.86 372.7 118.84 373.43 119.38 374.12 119.93 374.57 120.66 375.02 121.06 375.59 121.43 376.83 121.9 377.09 122.43 376.97 123.38 376 123.91 376.15 124.31 376.58 124.69 377.09 125.06 377.48 125.76 377.46 126.68 377.15 128.67 376.09 130.1 374.67 130.78 374.17 131.21 373.65 131.64 373.26 132.03 373.24 132.49 373.67 132.77 374.33 133.13 374.9 133.72 375.04 134.66 374.96 135.82 374.49 136.94 374.61 137.9 374.55 138.82 374.34 140.09 373.59 141.36 372.42 141.91 372.09 142.58 371.86 143.41 371.82 143.96 371.19 144.37 370.62 144.8 370.15 145.21 369.82 145.67 369.54 145.93 369.13 145.78 368.65 145.53 368.13 145.32 367.59 145.41 367.08 145.86 366.64 146.54 366.2 147.46 365.44 147.67 364.76 147.66 364.06 147.5 363.37 147.35 359.32 147.2 358.73 147.05 358.34 146.23 356.93 146.13 356.69 146 356.21 145.97 355.5 146.09 354.8 146.34 354.19 146.94 353.31 147.06 353.08 146.99 352.82 146.79 352.5 146.01 351.65 145.65 351.12 145.4 350.46 145.28 349.67 145.46 346.37 146.65 341.95 147.11 341.09 147.39 340.68 147.76 340.26 148.7 339.43 150.75 337.9 151.65 337.04 152.43 336.05 152.94 335.58 153.62 335.18 154.75 335.14 155.69 335.45 157.68 337.18 159.06 338.13 159.73 338.8 160.25 339.43 160.88 340.59 161.29 341.12 161.99 341.6 163.01 341.99 167.57 343.06 169.77 344.11 174.56 347.18 175.06 347.6 175.48 348.14 179.89 355.25 181.07 357.63 184.93 358.44 201.39 358.36 Z" id="CIV-3441" data-name="Dix-Huit Montagnes"/>
<path d="M 393.75 287.86 394.45 290.01 405.15 296.09 403.7 297.7 402.54 298.19 399.32 297.96 396.89 297.13 395.72 296.98 394.54 297.26 393.31 297.88 392.62 298.49 393.04 298.77 394.23 299.76 397.89 304.1 399.32 305.09 399.93 305.37 400.4 305.98 400.99 306.59 402.03 306.87 406.53 306.87 407.17 307.23 407.42 308.05 407.56 308.94 407.83 309.46 414.12 310.93 414.96 311.25 417.63 313.11 419.11 313.81 419.76 314.22 420.31 314.81 421.64 317.67 422.17 318.46 423.63 319.19 425.48 319.7 427.22 320.73 428.33 322.99 425.66 322.99 428.09 329.34 428.33 332.68 426.55 335.48 424.59 335.48 422.68 335.57 420.91 336.16 422.37 339.23 422.1 341.05 421.06 342.22 419.42 341.8 418.43 343.58 416.62 342.68 414.44 342.11 412.54 342.48 411.48 344.47 409.35 343.93 405.46 343.84 404 344.26 403.27 344.55 403.43 346.57 403.36 347.65 402.96 348.4 402.19 349.23 394.6 354.19 391.21 355.65 385.6 356.55 381.22 356.23 379.98 356.27 378.01 356.5 376.84 356.89 376.83 356.93 376.81 356.95 375.64 363.09 375.68 364.33 376.25 366.68 376.7 368.01 376.87 368.75 376.89 369.55 376.79 370.3 376.4 371.71 375.87 372.97 373.98 375.55 373.71 376.15 373.14 378.33 373.08 379.12 373.18 380.75 373.52 382.17 374.21 384.18 374.11 385.18 373.72 386.35 372.44 388.25 371.73 389.09 369.55 390.39 365.69 390.54 364.33 390.79 362.47 391.42 359.97 393.1 357.52 394.39 355.12 395.25 345.06 391.33 343.25 390.93 341.86 391.2 337.63 394.25 333.97 397.63 333.52 399.06 333.43 400.09 333.76 402.43 333.77 403 333.31 403.84 332.89 404.47 329.08 406.77 326.75 403.5 324.56 402.08 321.09 401.01 316.15 398.96 314.96 398.15 314.38 397.41 313.91 393.38 313.72 392.67 313.46 392.04 311.98 389.57 310.4 386.1 306.38 385.94 286.91 390.59 282.98 390.77 280 390.55 260.58 384.95 212.69 387.75 208.98 388.59 206.11 390.32 202.98 393.58 201.54 390.14 200.71 385.62 200.22 377.09 199.95 376.16 198.78 374.77 198.51 373.44 198.66 371.33 198.92 370.48 199.41 369.51 200.75 367.83 202.08 366.6 202.97 365.05 202.98 362.38 201.39 358.36 199.15 352.89 198.51 350.22 198.51 345.69 198.81 344.57 200.02 342.83 200.22 341.8 199.46 339.66 198.31 337.97 197.69 336.16 198.51 333.69 196.95 331.88 195.3 328.51 194.47 325.26 195.83 323.12 195.81 317.32 195.71 316.56 196.12 315.84 197.62 314.81 195.1 313.22 193.1 311.14 191.78 308.58 190.5 300.55 190.5 295.2 189.7 292.23 187.99 288.59 187.3 283.69 186.36 280.98 184.96 278.55 183.28 277.29 184.86 276.74 185.03 276.07 184.09 275.56 182.31 275.51 183.58 273.1 184.03 270.57 184.17 265.71 185.72 259.44 185.96 257.2 186.21 256.08 187.35 254.99 187.66 254.04 187.42 253.03 186.23 250.77 185.96 250.02 185.81 247.65 185.26 245.59 184.15 244.09 182.31 243.34 183.27 242.21 183.87 241.04 184.15 239.66 184.17 237.91 184.99 236.4 184.98 235.64 183.72 235.32 182.71 235.23 182.16 234.95 181.84 234.4 181.95 233.84 182.2 233.59 183.95 233.52 187.25 232.57 189.05 231.21 191.15 229.31 192.74 228.31 193.94 226.86 194.15 226.37 194.16 226.35 194.4 226.05 194.78 225.74 195.42 225.45 196.24 225.38 197.43 225.68 198.1 226.02 198.45 226.26 198.53 226.35 198.55 226.38 198.57 226.4 198.86 226.7 199.33 227 199.94 227.29 200.71 227.43 202.99 227.25 203.72 227.34 204.3 227.64 204.72 228.12 206.16 230.25 206.6 230.75 207.12 231.16 207.73 231.49 208.42 231.71 209.16 231.84 209.98 231.88 212.11 231.67 215.82 230.93 216.7 231.12 217.42 231.45 217.91 231.88 218.65 232.19 219.63 232.28 221.09 232.2 221.92 232.42 222.56 232.78 223.5 233.68 223.98 233.89 224.42 233.88 224.66 233.07 224.7 232.28 224.08 226.41 224.08 226.38 224.07 226.33 223.97 224.46 224.06 223.58 224.35 222.62 225.17 221.36 225.54 220.41 225.74 219.58 226.51 218.8 227.86 218.14 233.04 216.92 234.63 216.37 236.25 215.28 237.43 214.72 240.65 213.84 245.42 211.02 250.1 211.64 249.07 212.48 248.93 213.72 250.45 215.4 251.42 216.29 251.92 216.58 252.65 216.82 263.77 217.61 264.95 217.21 266.29 216.46 268.58 214.51 269.35 213.33 269.57 212.39 268.43 209.96 268.26 209.29 268.23 208.58 268.41 207.91 268.7 207.3 269.1 206.81 269.58 206.43 270.36 206.12 271.36 205.9 273.17 205.9 274.2 206.1 274.97 206.44 276.34 207.73 277.08 208.82 277.54 209.75 278.61 212.56 279.26 213.68 280 214.72 280.93 215.67 281.48 216.06 282.09 216.36 282.8 216.55 283.96 216.02 285.4 214.9 288.02 211.91 290.39 208.66 291.12 208.07 292.59 207.46 293.57 207.39 294.5 207.2 295.23 206.68 296 205.27 296.74 202.38 297.3 201.06 297.63 200.51 298.95 199.55 302.53 198.86 305.1 199.53 305.84 199.53 306.83 199.64 308.36 199.96 311.13 201.6 314.26 205.52 314.81 206.62 314.91 207.39 314.92 208.16 314.78 208.9 314.47 209.53 314.06 210.07 312.62 211.37 311.82 212.37 309.9 215.96 309.7 216.71 309.6 217.46 309.62 218.24 309.73 218.91 309.95 219.59 310.55 220.8 311.9 222.77 312.26 223.47 312.98 225.45 313.23 225.94 313.53 226.34 313.56 226.37 313.58 226.4 322.08 231.85 324.62 233.09 325.24 233.56 325.71 234.21 326 235.36 326.2 237.05 326.39 237.74 328.7 242.46 348.58 273.32 349.62 273.92 376.53 283.73 393.75 287.86 Z" id="CIV-3443" data-name="Worodougou"/>
<path d="M 386.99 453.96 386.64 455.12 386.89 455.77 386.55 456.34 386.04 456.73 385.31 457.13 385.16 457.67 385.35 458.31 386.19 459.86 386.69 460.42 387.31 460.74 387.97 460.85 388.73 460.82 389.58 460.9 390.56 461.25 392.8 463.06 394.35 464.09 394.54 464.87 394.59 465.68 394.99 467.05 395.66 467.79 396.78 468.58 397.58 468.94 398.4 469.1 399.1 469.11 399.79 468.93 400.38 468.64 400.93 468.3 401.34 467.98 402.02 467.71 403.25 467.51 404.09 467.6 404.99 467.83 408.52 469.19 408.95 469.84 409.1 470.62 408.1 474.37 407.38 476.08 407.23 476.88 407.3 477.87 407.7 479.28 408.35 480.24 408.93 480.88 409.49 481.31 410.05 481.63 410.68 481.9 413.24 482.65 413.55 483.18 413.49 483.73 413.08 484.22 412.55 484.63 410.96 485.41 409.63 485.9 408.71 487.43 408.3 488.44 407.16 492.15 406.94 494.26 406.25 496.47 403.53 498.63 403.29 501.03 404.41 503.45 407.97 507.54 408.72 510.39 409.99 511.91 416.37 517.96 416.66 519.08 418.07 522.16 419.42 525.1 419.92 527.79 419.48 534.34 419.47 534.5 419.23 534.49 410.55 534.41 406.58 535.91 380.7 553.43 376.84 554.27 337.56 550.21 331.29 543.68 330.43 539.2 330.93 536.02 326.39 529.78 321.33 523.07 320.3 518.26 320.24 513.83 319.97 511.64 315.2 501.94 314.45 499.02 314.18 496.41 314.34 491.91 314.63 489.67 315.32 487.45 316.98 485.71 340.49 470.62 343.36 470.12 347.07 469.81 348.8 469.47 349.78 469.07 350.04 468.07 350.39 467.52 351.78 465.92 346.61 463.46 343.36 463.01 342.93 462.82 340.48 460.92 338.92 460.29 332.96 457.11 329.52 455.85 328.7 455.43 328.24 455 327.93 454.45 327.29 452.69 326.27 451.36 320.45 449.89 317.9 449.63 316.13 449.67 315.34 449.79 314.1 450.29 313.7 450.79 313.56 451.5 313.58 455.21 313.29 457.21 312.48 459.05 309.83 459.71 307.15 459.98 303.62 459.94 299.23 459.14 297.28 459.05 296.1 458.55 295.25 457.89 294.45 456.8 293.49 455.74 292.25 454.7 291.03 454.54 289.39 455.04 287.96 455.82 284.98 456.96 284.69 454.24 290.93 441.86 297.86 431.44 299.5 428.41 300.43 425.11 301.84 422.2 303.62 420.76 329.08 406.77 332.89 404.47 333.31 403.84 333.77 403 333.76 402.43 333.43 400.09 333.52 399.06 333.97 397.63 337.63 394.25 341.86 391.2 343.25 390.93 345.06 391.33 355.12 395.25 357.52 394.39 359.97 393.1 362.47 391.42 364.33 390.79 365.69 390.54 369.55 390.39 371.16 395.19 371.54 397.39 370.81 406.05 370.97 407.35 371.25 408.23 371.7 408.67 372.29 408.99 372.98 409.23 373.78 409.4 375 410.48 376.47 412.4 378.95 417.41 379.84 419.71 380.22 421.32 379.96 421.94 379.55 422.34 379 422.66 377.71 422.92 376.55 422.91 377.08 425.35 377.39 425.84 379.16 428.03 378.17 436.38 378.43 439.02 379.21 440.03 379.69 440.32 380.97 440.73 381.97 441.82 382.2 442.65 382.1 443.4 381.71 443.95 380.66 444.86 380.22 445.53 380.32 446.11 380.61 446.64 381.58 447.49 382 447.98 382.45 448.42 382.98 448.78 384.92 449.49 385.68 450.01 386.34 450.83 387.22 452.36 387.4 453.16 386.99 453.96 Z" id="CIV-3444" data-name="Marahoué"/>
<path d="M 419.47 534.5 419.42 535.38 419.99 537.9 421.47 538.8 428.58 538.67 431.55 539.46 433.16 541.15 431.97 543.98 432.44 546.03 431.14 547.9 429.46 550.31 431.57 551.11 433.21 551.3 433.54 551.84 432.86 553.78 432.61 555.46 432.27 556.08 431.57 556.86 431.09 557.88 431.63 558.61 432.46 559.25 432.86 560.02 432.69 563.53 432.85 566.03 433.82 568.1 436.03 570.31 438.19 570.97 442.77 569.39 445.33 570.18 445.46 574.73 445.67 575.55 445.38 578.99 441.54 589.59 435.49 587.96 432.63 587.52 407.48 596.29 378.29 592.45 374.63 599.82 373.84 602.62 374.38 607.37 375.03 610.15 375.03 611.35 371.43 618.02 371.62 620.38 371.43 622.81 370.98 623.69 370.24 624.58 368.46 625.79 367.26 626.19 366.23 626.31 360.24 631.78 336.14 660.07 335.77 658.62 335.43 658.21 334.75 657.94 334.24 657.5 334.01 656.64 334.05 655.86 334.28 654.42 334.17 653.77 333.9 653.17 333.49 652.68 330.63 650.33 329.53 647.9 329.01 647.17 325.91 645.25 324.93 644.84 321.88 644.91 314.35 647.03 310.43 638.38 309.73 637.22 309.11 636.45 308.56 636.09 307.54 635.25 307.11 634.45 306.71 633.22 306.06 625.91 305.82 624.87 305.41 623.72 304.39 621.78 303.76 620.79 302.73 619.57 301.02 618.05 301.01 618.04 300.98 618.02 300.68 617.78 299.92 617.05 299.1 616.07 296.54 611.53 293.98 604.57 292.32 598.37 290.67 578.27 294.52 577.78 299.31 576.5 303.27 574.85 305.53 574.32 307.39 574.07 313.95 574.53 315.36 574.25 316.54 573.61 324.14 567.28 324.69 566.99 325.32 566.93 325.97 567.07 326.6 567.33 329.01 568.6 330.02 569.28 330.85 568.72 331.92 567.33 335.06 561.3 336.21 558.08 337.56 550.21 376.84 554.27 380.7 553.43 406.58 535.91 410.55 534.41 419.23 534.49 419.47 534.5 Z" id="CIV-3445" data-name="Fromager"/>
<path d="M 329.08 406.77 303.62 420.76 301.84 422.2 300.43 425.11 299.5 428.41 297.86 431.44 290.93 441.86 284.69 454.24 284.98 456.96 287.96 455.82 289.39 455.04 291.03 454.54 292.25 454.7 293.49 455.74 294.45 456.8 295.25 457.89 296.1 458.55 297.28 459.05 299.23 459.14 303.62 459.94 307.15 459.98 309.83 459.71 312.48 459.05 313.29 457.21 313.58 455.21 313.56 451.5 313.7 450.79 314.1 450.29 315.34 449.79 316.13 449.67 317.9 449.63 320.45 449.89 326.27 451.36 327.29 452.69 327.93 454.45 328.24 455 328.7 455.43 329.52 455.85 332.96 457.11 338.92 460.29 340.48 460.92 342.93 462.82 343.36 463.01 346.61 463.46 351.78 465.92 350.39 467.52 350.04 468.07 349.78 469.07 348.8 469.47 347.07 469.81 343.36 470.12 340.49 470.62 316.98 485.71 315.32 487.45 314.63 489.67 314.34 491.91 314.18 496.41 314.45 499.02 315.2 501.94 319.97 511.64 320.24 513.83 320.3 518.26 321.33 523.07 326.39 529.78 330.93 536.02 330.43 539.2 331.29 543.68 337.56 550.21 336.21 558.08 335.06 561.3 331.92 567.33 330.85 568.72 330.02 569.28 329.01 568.6 326.6 567.33 325.97 567.07 325.32 566.93 324.69 566.99 324.14 567.28 316.54 573.61 315.36 574.25 313.95 574.53 307.39 574.07 305.53 574.32 303.27 574.85 299.31 576.5 294.52 577.78 290.67 578.27 287.46 578.8 279.45 582.05 277.21 582.07 274.89 581.34 268.39 577.41 266.92 576.86 265.86 577.46 256.13 584.69 254.75 585.47 253.48 585.75 234.73 585.86 233.24 585.45 231.37 584.18 216.27 566.1 213.61 559.31 213.58 558.59 214.17 557.58 214.76 557.1 215.45 556.75 216.14 556.62 217.43 556.23 217.92 555.91 218.21 555.46 218.4 554.8 218.44 553.9 218.4 552.83 218.16 551.35 217.08 549 212.67 545.23 211.48 544.28 211.04 543.77 211.49 541.52 215.57 535.29 215.18 531.57 215.47 529.82 215.78 529.22 216.02 528.57 216.18 527.86 216.26 527.1 214.03 515.94 213.45 514.4 212.72 513.13 211.07 511.1 210.12 510.19 209.29 509.51 206.66 508.57 206.07 508.27 205.54 507.72 205.06 507 204.48 505.86 204.25 504.84 204.23 503.79 204.83 502.36 205.33 501.56 205.83 500.92 206.07 499.59 204.14 496.71 203.88 494.03 203.87 492.57 204.48 488.45 206.77 481.01 207.2 479.17 207.02 477.19 202 465.21 202.08 463.83 202.98 459.38 202.65 458.16 202.08 456.77 201.83 455.33 202.49 453.95 203.29 451.68 203.05 448.48 201.85 441.96 201.31 440.59 201.19 439.72 201.47 438.93 202.08 438.58 202.7 438.34 203.38 437.2 204.27 436.18 205.17 434.9 205.57 433.45 206.77 431.64 209.31 430.77 211.56 429.34 211.89 425.83 211.35 425.06 209.59 424.04 209.21 423.56 209.35 422.78 209.66 422.43 209.97 422.19 210.1 421.77 209.97 420.44 209.21 417.32 210.34 415.63 212.67 414.55 214.6 413.19 214.56 410.59 213.52 409.77 210.68 409.42 209.48 407.12 208.03 407.12 205.17 408 204.29 406.82 202.86 401.1 202 399.01 202.68 397.8 203.02 396.49 203.09 395.07 202.98 393.58 206.11 390.32 208.98 388.59 212.69 387.75 260.58 384.95 280 390.55 282.98 390.77 286.91 390.59 306.38 385.94 310.4 386.1 311.98 389.57 313.46 392.04 313.72 392.67 313.91 393.38 314.38 397.41 314.96 398.15 316.15 398.96 321.09 401.01 324.56 402.08 326.75 403.5 329.08 406.77 Z" id="CIV-3446" data-name="Haut-Sassandra"/>
<path d="M 441.54 589.59 450.45 598.03 455.73 600.15 469.12 601.73 471.08 602.4 472.42 603.6 472.92 606.34 473.54 622.39 475.12 632.51 481.57 644.74 474.34 663.34 474.07 664.41 474.19 665.07 474.45 665.64 475.14 666.7 476.34 668.98 476.57 669.66 477.15 672.42 477.12 674.05 476.81 675.85 475.39 680.64 467.14 700.39 466.7 701.8 466.56 702.79 466.51 703.71 466.74 706.8 466.69 707.59 466.56 708.33 461.94 718.4 461.34 719.23 460.82 719.77 460.29 720.18 459.54 720.41 458.59 720.4 457.14 719.88 455.27 718.45 454.06 718.24 452.29 718.24 444.13 718.92 442.89 719.47 442.88 719.49 442.88 719.5 442.65 719.18 441.84 719.18 440.4 720.67 438.08 719.98 435.59 718.89 433.65 719.18 432.85 719.18 431.46 718.56 430.71 719.1 430.59 720.36 431.15 721.93 430.74 721.79 429.28 721.05 429.34 722.42 429.28 722.82 430.35 722.52 430.55 722.92 431.08 723.7 430.88 723.65 429.03 722.8 427.57 721.81 420.8 716.06 419.63 715.42 418.22 714.96 416.56 714.69 415.61 718.15 417.52 735.7 417.52 735.71 408.73 736.18 404.92 735.59 401.57 733.61 397.92 736.27 400.63 737.07 401.57 737.17 391.16 740.36 362.3 744.7 361.34 745 361.33 745 361.24 744.62 359.46 731.68 359.53 730.08 360.1 728 360.55 726.98 361.01 726.2 362.32 724.84 363.41 724.13 364.67 723.59 375.17 720.94 376.31 712.6 365.23 675.57 348.91 681.12 346.86 681.41 346.52 680.93 346.14 680.21 345.58 679.53 344.24 678.98 343.46 678.53 342.97 678.11 342.42 677.38 341.59 676.5 341.2 676 340.88 675.43 340.3 672.78 340.06 672.19 339.76 671.65 339.5 671.06 339.33 669.6 339.31 668.91 339.5 668.27 339.79 667.71 339.99 667.05 340.06 665.74 338.71 663.57 338.21 663.01 337.7 662.27 336.99 661.49 336.14 660.07 360.24 631.78 366.23 626.31 367.26 626.19 368.46 625.79 370.24 624.58 370.98 623.69 371.43 622.81 371.62 620.38 371.43 618.02 375.03 611.35 375.03 610.15 374.38 607.37 373.84 602.62 374.63 599.82 378.29 592.45 407.48 596.29 432.63 587.52 435.49 587.96 441.54 589.59 Z" id="CIV-3447" data-name="Sud-Bandama"/>
<path d="M 290.67 578.27 292.32 598.37 293.98 604.57 296.54 611.53 299.1 616.07 299.92 617.05 300.68 617.78 300.98 618.02 301.01 618.04 301.02 618.05 302.73 619.57 303.76 620.79 304.39 621.78 305.41 623.72 305.82 624.87 306.06 625.91 306.71 633.22 307.11 634.45 307.54 635.25 308.56 636.09 309.11 636.45 309.73 637.22 310.43 638.38 314.35 647.03 321.88 644.91 324.93 644.84 325.91 645.25 329.01 647.17 329.53 647.9 330.63 650.33 333.49 652.68 333.9 653.17 334.17 653.77 334.28 654.42 334.05 655.86 334.01 656.64 334.24 657.5 334.75 657.94 335.43 658.21 335.77 658.62 336.14 660.07 336.99 661.49 337.7 662.27 338.21 663.01 338.71 663.57 340.06 665.74 339.99 667.05 339.79 667.71 339.5 668.27 339.31 668.91 339.33 669.6 339.5 671.06 339.76 671.65 340.06 672.19 340.3 672.78 340.88 675.43 341.2 676 341.59 676.5 342.42 677.38 342.97 678.11 343.46 678.53 344.24 678.98 345.58 679.53 346.14 680.21 346.52 680.93 346.86 681.41 348.91 681.12 365.23 675.57 376.31 712.6 375.17 720.94 364.67 723.59 363.41 724.13 362.32 724.84 361.01 726.2 360.55 726.98 360.1 728 359.53 730.08 359.46 731.68 361.24 744.62 361.33 745 346.62 749.58 344.4 750.72 343.46 751.91 341.91 751.85 335.09 754.39 324.79 759.68 289.07 771.61 287.95 772.49 287.19 774.47 285.24 775.52 271.45 778.9 268.75 779.22 266.66 779.9 263.15 783.24 261.05 784.57 244.54 789.44 231.44 790.32 228.06 791.97 224.98 792.74 223.54 793.57 219.89 798.02 212.85 803.91 204.73 808.8 199.38 810.43 189.69 811.44 181.94 814.77 180.32 815.86 179.01 818.4 177.6 818.65 175.98 818.62 174.71 819.05 172.38 821.01 165.35 824.85 155.06 833.35 152.7 834.25 149.55 833.98 143.88 832.87 141.75 833.11 141.74 833.11 137.42 830.16 136.71 828.63 136.89 827.31 138.25 824.87 138.66 823.58 138.48 822.35 137.54 819.72 137.79 816.41 137.56 815.05 137.21 813.85 137.02 812.68 137.59 784.73 137.02 777.95 136.67 776.78 135.88 775.83 134.86 775.06 133.87 774.12 133.21 772.61 133.22 772.46 133.23 771.45 133.97 768.75 134.15 767.27 133.22 763.24 133.28 762.01 137.27 758.86 138.99 759.04 140.07 759.81 140.59 759.86 140.58 757.88 139.83 755.35 138.62 753.63 137.71 751.83 137.89 749.02 137.87 749.02 136.85 741.47 137.16 739.21 138.8 736.85 140.94 735.86 143.15 735.9 144.99 736.63 148.5 730.25 149.27 727.96 149.37 725.76 148.3 719.61 149.67 715.31 150.23 714.12 151.2 712.92 154.57 711.1 154.9 710.73 156.39 711 156.18 711.51 155.52 712.15 155.66 712.84 156.08 713.69 156.08 714.67 156.39 715.18 157.66 714.61 158.31 713.8 158.79 711.65 159.11 710.77 160.69 708.57 161.45 707.21 161.57 705.75 161.22 703.23 160.51 700.78 159.54 700.57 158.17 700.84 156.23 699.75 155 697.99 154.1 695.75 153.59 693.42 153.55 691.34 155.38 692.31 155.97 690.92 155.88 686.01 156.83 684.1 158.35 682.88 159.05 681.8 158.82 681.59 157.5 680.32 158.35 680.36 160.94 680.21 159.18 677.94 158.55 675.46 159.44 673.89 162.18 674.34 160.54 672.23 157.76 666.66 160.16 666.17 200.05 658.46 201.68 618.16 201.07 606.51 199.61 600.94 197.87 575.33 197.26 558.07 197.93 553.96 199.4 552.73 200.44 552.05 201.35 551.67 201.93 551.53 202.49 551.25 203.01 550.86 203.45 550.4 205.14 547.93 205.45 547.61 207.51 546.41 208.14 546.15 211.66 545.33 212.67 545.23 217.08 549 218.16 551.35 218.4 552.83 218.44 553.9 218.4 554.8 218.21 555.46 217.92 555.91 217.43 556.23 216.14 556.62 215.45 556.75 214.76 557.1 214.17 557.58 213.58 558.59 213.61 559.31 216.27 566.1 231.37 584.18 233.24 585.45 234.73 585.86 253.48 585.75 254.75 585.47 256.13 584.69 265.86 577.46 266.92 576.86 268.39 577.41 274.89 581.34 277.21 582.07 279.45 582.05 287.46 578.8 290.67 578.27 Z" id="CIV-3448" data-name="Bas-Sassandra"/>
<path d="M 708.1 107.83 708.15 110.34 707.86 113.42 708.44 116.03 710.71 117.37 713.65 117.43 716.67 118.1 719.29 121.26 720.92 127.55 722.2 130.59 724.48 132.48 726.84 132.59 731.33 131.28 733.81 131.86 735.86 133.91 737.44 136.95 739.79 143.03 746.28 155.54 759.3 172.73 762.28 175 765.4 175.24 767.85 173.12 771.04 166.45 775.12 162.59 776.89 164.81 777.03 166.67 776.5 170.84 776.67 171.86 777.32 174.05 777.32 177.57 776.65 179.79 775.1 180.77 773.32 181.59 771.97 183.33 771.76 185.79 772.78 187.8 774.63 189.15 776.91 189.65 778.96 190.77 778.79 193.25 777.23 195.73 773.09 197.89 771.56 200.25 769.29 204.88 766.51 207.71 765.96 208.8 765.71 215.33 765.17 217.38 763.94 219.22 765.22 219.94 766.06 220.8 767.08 221.52 768.89 221.81 772.24 221.97 775.54 222.71 778.83 224.45 779.68 226.55 779.81 229.22 781.85 235.35 782.63 235.93 783.5 236.06 784.23 236.37 784.53 237.49 784.69 239.74 787.35 248.85 787.21 250.63 785.82 251.39 784.86 252.26 784.52 253.92 785.15 254.95 785.18 255 786.36 254.45 786.98 256.5 792.99 293.06 799 329.63 798.1 331.62 792.24 335.06 790.46 335.66 788.95 335.5 787.29 334.72 786.22 334.66 785.38 335.43 784.47 337.18 783.91 339.23 784.23 340.88 785.96 344.64 786.8 347.76 786.68 350.04 785.39 351.73 782.7 353.09 774.91 355.68 772.51 357.38 766.55 364.22 764.42 366 764.23 365.58 763.57 364.84 762.7 364.26 761.88 364.36 761.5 365.32 760.94 375.06 760.5 376.51 759.47 377.62 756.56 379.36 755.44 380.42 755.33 381.08 755.71 382.77 755.68 383.48 755.17 384.33 753.86 385.92 753.36 386.78 743.93 406.87 742.18 412.16 735.79 452.17 735.92 453.7 736.74 455.52 737.61 456.6 738.19 457.66 738.1 459.44 736.94 461.98 730.95 469.44 730.29 470.75 729.21 477.28 728.55 478.21 722.09 480.3 721.94 480.4 721.93 480.33 721.77 477.92 716.34 467.6 714.82 465.88 712.75 464.06 708.37 461.38 705.42 459.11 703.86 458.18 694.39 455.26 691.61 454.86 689.93 454.94 688.86 456.67 688.09 457.69 687.6 458.11 686.95 458.2 686.17 457.89 684.05 455.42 682.74 454.24 682.27 453.69 681.89 453.11 681.63 452.55 679.64 445.89 679.11 445.23 678.32 444.56 676.72 443.73 675.89 443.2 675.16 442.96 674.53 443.17 674 443.21 672.85 442.5 672.03 442.72 669.94 442.04 669.49 441.97 668.86 442.1 664.7 443.39 666.63 440.41 666.4 437.42 668.53 436.32 668.91 434.25 668.11 428.91 667.72 428.82 664.86 424.62 664.43 423.6 663.87 422.8 662.76 422.26 661.29 422.02 659.6 421.5 658.05 420.8 657.01 420.03 656.81 418.78 659.37 416.3 660.09 414.73 658.99 410.86 656.43 410.24 651.25 411.57 650.1 410.84 649.44 409.63 648.66 408.5 647.12 408 646.66 407.15 646.53 405.29 646.02 403.42 644.49 402.57 641.24 402.01 639.78 400.55 638.61 396.25 639.62 393.24 637.93 391.83 635.04 391.52 632.45 391.79 631.63 390.86 630.59 390.29 629.34 390.25 627.92 390.9 627.04 388.26 625.67 386.94 623.61 386.49 620.7 386.45 620.7 385.56 622.09 384.94 622.32 384.01 621.51 381.45 621.2 380.88 620.3 379.76 620.11 378.95 620.66 378.14 621.36 377.36 621.67 376.64 621.03 374.41 620.22 372.96 619.67 371.96 617.96 370.74 616.25 372.18 614.9 371.1 611.03 370.18 609.12 369.51 607.05 368.32 606.95 367.89 608.14 367.58 609.93 366.75 612.23 364.84 613.26 363.58 613.58 362.38 612.59 359.86 611.32 360.02 609.96 361 608.67 360.96 606.83 360.6 604.59 361.24 602.7 361.28 601.91 359.14 602.67 353.26 603.3 348.45 604.74 345.24 606.98 343.53 609.93 344.47 610.45 343.9 611.47 342.47 611.79 341.8 610.06 340.27 605.06 334.14 603.67 333.47 602.36 333.36 601.39 332.96 601.01 331.42 601.47 329.83 603.43 327.14 603.77 325.59 602.98 324.31 599.92 322.46 599.23 321.58 599.1 320.27 598.55 318.42 598.42 317.16 599.82 316.97 606.31 317.02 608.22 316.68 609.24 315.33 609.56 313.95 609.33 312.7 608.67 311.69 607.32 310.22 607.31 309.77 607.87 309.42 608.22 308.25 608.42 307.8 608.83 307.42 609.15 306.87 609.12 305.9 608.73 305.31 608.17 305.2 607.64 305.24 607.33 305.09 606.65 304.09 605.86 303.29 605.58 302.26 606.44 300.55 606.83 300.98 608.61 300.64 611.34 299.74 612.18 297.33 612.76 295.65 611.55 293.06 606.77 290.4 606.44 288.07 607.2 287.36 609.45 286.65 610.42 284.92 614.06 282.19 614.31 280.37 613.52 277.48 612.91 276.81 612.2 274.83 610.9 273.73 612.28 269.04 613.58 267.24 615.8 266.52 619.73 266.44 621.47 265.95 622.56 264.81 620.5 264.22 620.91 263.09 623.37 261.17 626.72 255.89 627.47 255.01 629.1 255.48 630.4 256.1 631.25 255.6 631.56 252.74 630.96 251 629.5 249.45 627.69 248.54 626.05 248.69 625.84 248.21 625.86 248.05 625.77 247.99 625.24 247.8 625.98 246.94 626.29 246.43 626.75 246.15 627.92 246.01 627.92 245.04 625.42 242.99 621.51 238.41 619.41 236.57 617.36 233.41 618.37 231.13 621.14 229.46 624.35 228.1 626.1 227.83 628 227.77 629.4 227.21 629.7 225.43 628.7 224.01 626.75 222.85 624.59 222.07 619.94 220.94 618.97 218.78 619.43 215.9 620.7 212.87 621.96 214.84 623.41 216.42 624.41 216.21 624.35 212.87 623.47 210.85 621.94 210.84 619.82 211.63 617.14 211.98 617.4 211.5 617.46 211.43 617.61 211.42 618.11 211.17 616.28 209.16 617.88 204.79 615.8 203.96 611.88 204.19 610.9 203.96 610.35 202.96 610.09 201.46 609.68 200.1 608.67 199.5 607.26 199.21 604.59 197.93 599.23 196.83 595.75 194.53 592.18 191.48 591.46 192.08 590.69 192.2 589.76 192.17 588.53 192.29 586.51 192.91 584.08 194.15 583.27 195.17 583.18 196.1 582.85 196.51 581.32 195.94 580.87 195.42 580.28 194.41 579.77 193.26 579.53 192.29 579.81 190.19 580.44 188.8 580.87 187.37 580.51 185.16 580.14 184.64 579.59 184.24 579.07 183.64 578.72 182.48 578.78 181.41 579.07 180.53 579.39 179.85 579.53 179.36 579.69 178.09 580.36 176.75 580.51 175.72 580.24 174.75 579.01 172.63 578.35 168.36 577.32 166.55 573.79 163.24 572.95 162.16 572.54 161.22 572.41 160.17 572.41 158.78 572.09 157.34 571.32 156.57 570.3 156.02 569.29 155.26 563.49 147.56 561.89 146.89 562.75 145.9 564.44 142.62 564.77 140.98 564.38 137.9 564.4 136.74 565.12 135.55 569.07 131.45 567.54 130.95 566.96 130.83 568.7 129.28 570.95 128.48 575.87 127.85 578.28 126.53 582.02 121.33 584.38 119.57 586.62 119.29 594.05 121.46 595.41 122.21 596.18 122.44 596.99 122.27 597.24 121.65 597.29 120.97 597.43 120.61 599.43 119.66 600.51 119.3 604.7 119.24 605.53 117.41 606.08 115.28 608.02 114.26 610.82 113.55 615.73 110.4 618.14 109.7 618.39 109.62 627.04 109.46 629.55 108.72 630.66 107.9 632.75 105.68 634.07 104.81 635.98 104.22 642.32 103.44 643.29 103.58 645 104.53 645.82 104.7 646.51 104.3 647.72 102.82 648.17 102.51 649.93 103.08 650.92 104.02 651.78 105.08 653.17 106.06 655.4 106.53 663.2 105.49 683.74 107.17 685.39 107.79 687.68 109.88 689.07 110.6 690.26 110.19 691.79 109.25 693.14 108.73 693.72 109.62 693.61 112.22 693.84 114.89 695.16 116.59 698.27 116.28 700.07 114.5 704.49 108.28 706.51 106.86 708.1 107.83 Z" id="CIV-3449" data-name="Zanzan"/>
<path d="M 612.91 276.81 613.52 277.48 614.31 280.37 614.06 282.19 610.42 284.92 609.45 286.65 607.2 287.36 606.44 288.07 606.77 290.4 611.55 293.06 612.76 295.65 612.18 297.33 611.34 299.74 608.61 300.64 606.83 300.98 606.44 300.55 605.58 302.26 605.86 303.29 606.65 304.09 607.33 305.09 607.64 305.24 608.17 305.2 608.73 305.31 609.12 305.9 609.15 306.87 608.83 307.42 608.42 307.8 608.22 308.25 607.87 309.42 607.31 309.77 607.32 310.22 608.67 311.69 609.33 312.7 609.56 313.95 609.24 315.33 608.22 316.68 606.31 317.02 599.82 316.97 598.42 317.16 598.55 318.42 599.1 320.27 599.23 321.58 599.92 322.46 602.98 324.31 603.77 325.59 603.43 327.14 601.47 329.83 601.01 331.42 601.39 332.96 602.36 333.36 603.67 333.47 605.06 334.14 610.06 340.27 611.79 341.8 611.47 342.47 610.45 343.9 609.93 344.47 606.98 343.53 604.74 345.24 603.3 348.45 602.67 353.26 583.48 357.07 580.68 357.89 579.61 358.72 578.97 359.37 576.07 363.78 568.6 371.8 566.19 373.67 555.92 378.68 552.55 381.62 550.62 382.48 548.49 383.01 546.93 383.15 545.24 383.09 542.54 382.1 541.19 381.95 540.23 381.96 535.17 383.09 533.97 388.1 534.16 390.32 534.49 391.06 534.88 392.44 536.87 407.86 536.51 409.31 535.87 410.09 535.06 410.06 530.9 408.95 530.09 408.89 529.29 408.97 528.54 409.26 527.81 409.8 527.13 410.56 525.88 412.29 524.54 413.76 523.81 414.4 520.48 416.74 517.69 420.12 507.22 420.5 503.9 420.14 503.16 419.65 500.76 417.27 499.07 416.24 497.99 415.87 496.98 415.8 489.26 416.28 487.24 416.79 485.72 417.56 483.45 420.36 481.51 423.96 480.47 424.95 478.85 425.93 471.49 428.66 469.67 429.76 468.82 430.42 468.09 431.14 467.47 431.88 466.95 432.69 466.14 434.36 465.85 435.18 465.04 436.15 463.68 437.25 449.04 444.31 446.67 446.97 445.28 450.04 444.55 450.91 443.78 451.15 442.82 451.12 441.77 451.23 440.18 451.95 439.16 452.96 436.76 456.01 435.76 456.66 434.85 456.89 432.39 456.5 431.53 456.52 427.42 457.62 426.2 457.79 425.21 457.75 424.39 457.47 423.59 457.05 422.82 456.47 420.54 453.97 417.9 450.16 417.26 449.43 416.46 448.77 415.29 448.29 414.32 448.25 413.4 448.41 407.97 450.66 392.96 454.39 390.82 454.43 386.99 453.96 387.4 453.16 387.22 452.36 386.34 450.83 385.68 450.01 384.92 449.49 382.98 448.78 382.45 448.42 382 447.98 381.58 447.49 380.61 446.64 380.32 446.11 380.22 445.53 380.66 444.86 381.71 443.95 382.1 443.4 382.2 442.65 381.97 441.82 380.97 440.73 379.69 440.32 379.21 440.03 378.43 439.02 378.17 436.38 379.16 428.03 377.39 425.84 377.08 425.35 376.55 422.91 377.71 422.92 379 422.66 379.55 422.34 379.96 421.94 380.22 421.32 379.84 419.71 378.95 417.41 376.47 412.4 375 410.48 373.78 409.4 372.98 409.23 372.29 408.99 371.7 408.67 371.25 408.23 370.97 407.35 370.81 406.05 371.54 397.39 371.16 395.19 369.55 390.39 371.73 389.09 372.44 388.25 373.72 386.35 374.11 385.18 374.21 384.18 373.52 382.17 373.18 380.75 373.08 379.12 373.14 378.33 373.71 376.15 373.98 375.55 375.87 372.97 376.4 371.71 376.79 370.3 376.89 369.55 376.87 368.75 376.7 368.01 376.25 366.68 375.68 364.33 375.64 363.09 376.81 356.95 376.83 356.93 376.84 356.89 378.01 356.5 379.98 356.27 381.22 356.23 385.6 356.55 391.21 355.65 394.6 354.19 402.19 349.23 402.96 348.4 403.36 347.65 403.43 346.57 403.27 344.55 404 344.26 405.46 343.84 409.35 343.93 411.48 344.47 412.54 342.48 414.44 342.11 416.62 342.68 418.43 343.58 419.42 341.8 421.06 342.22 422.1 341.05 422.37 339.23 420.91 336.16 422.68 335.57 424.59 335.48 426.55 335.48 428.33 332.68 428.09 329.34 425.66 322.99 428.33 322.99 427.22 320.73 425.48 319.7 423.63 319.19 422.17 318.46 421.64 317.67 420.31 314.81 419.76 314.22 419.11 313.81 417.63 313.11 414.96 311.25 414.12 310.93 407.83 309.46 407.56 308.94 407.42 308.05 407.17 307.23 406.53 306.87 402.03 306.87 400.99 306.59 400.4 305.98 399.93 305.37 399.32 305.09 397.89 304.1 394.23 299.76 393.04 298.77 392.62 298.49 393.31 297.88 394.54 297.26 395.72 296.98 396.89 297.13 399.32 297.96 402.54 298.19 403.7 297.7 405.15 296.09 394.45 290.01 393.75 287.86 394.8 286.81 394.73 285.71 394.5 285.01 393.98 284.61 393.31 284.61 392.68 284.73 392.01 284.73 391.48 284.45 390.99 284.11 390.6 283.74 390.29 283.26 390.17 282.59 390.2 281.83 390.32 281.07 390.37 277.47 390.05 276.78 389.59 276.28 389.02 275.94 388.37 275.67 387.68 275.49 386.97 275.4 386.26 275.5 385.68 275.78 384.62 276.47 384.03 276.56 383.53 276.33 382.2 274.98 381.83 274.48 381.71 273.77 381.66 271.66 381.87 271.2 382.45 271.04 382.97 270.72 383.21 269.63 383.26 268.68 383.68 266.25 383.55 265.42 383.28 264.74 382.9 264.23 382.72 263.65 382.83 263.05 383.61 262.52 385.04 262.49 385.66 262.3 386.1 261.9 386.05 261.11 385.62 260.66 384.4 260.04 384.05 259.51 383.64 258.11 383.28 257.56 382.75 257.17 382.13 256.95 381.45 257.1 380.87 257.61 380.45 258.58 379.82 259.17 379.42 259.15 379.23 258.4 379.29 257.29 380.62 252.62 382.45 248.07 383.15 247.14 384.18 246.89 385 246.89 385.76 247.1 386.81 247.79 387.49 248.01 389.92 248.23 391.36 248.56 392.09 248.56 392.76 248.4 393.44 248.19 394.64 247.65 395.19 247.31 395.69 246.93 397.53 245.14 398.04 244.75 398.62 244.48 399.3 244.26 400.72 243.96 403.03 243.78 403.89 243.84 404.95 244.05 406.17 244.72 407.58 244.85 408.28 244.81 409.05 244.32 410.3 244.37 411.61 243.9 412.52 243.63 413.48 242.3 413.26 240.67 412.47 240.42 410.57 239.13 409.21 237.7 410.06 237.02 413.43 236.01 412.7 230.96 415.93 229 414.03 227.49 413.26 227.13 413.26 226.32 414.66 226.24 416.04 226.36 417.33 226.67 418.52 227.13 416.36 223.19 408.53 218.13 408.72 214.65 411.65 215.14 413.66 213.34 415.01 210.4 416.62 204.67 416.65 202.44 415.86 200.47 414.07 198.53 418.05 198.77 420.53 196.38 421.81 192.52 422.17 188.32 422.97 184.89 424.92 181.42 429.3 176.16 432.16 176.85 438.13 175.92 439.72 175.92 440.47 176.08 441.24 176.79 442.04 177.98 445.2 185.52 445.56 186.21 446.1 186.86 447.16 187.6 448.07 187.88 448.95 187.98 449.63 187.78 450.23 187.49 450.69 187.11 451.69 186.12 452.45 185.19 453.06 184.79 454.1 184.55 467.49 186.8 469.45 187.37 470.94 188.11 471.34 189.62 471.82 193.63 471.82 195.43 471.91 196.38 472.2 197.37 472.92 198.69 473.37 199.3 474.67 200.51 475.08 201.03 475.41 201.59 476.92 205.42 477.59 206.26 478.29 206.81 478.98 207.05 480.21 207.62 481.65 208.88 482.26 209.16 484.23 209.47 484.83 209.71 485.89 210.32 487.16 210.53 487.69 210.85 488.13 211.27 488.5 211.82 488.7 212.88 488.74 214.38 487.01 226.32 487.02 226.39 487.06 226.47 487.13 226.71 486.97 227.6 486.44 228.94 484.74 231.42 483.73 232.42 482.79 232.81 481.79 233.47 481.79 238.28 529.43 239.81 531.02 238.99 532.55 238.51 533.49 238.51 534.57 238.8 539.35 240.62 539.8 240.98 540.21 241.48 540.88 242.61 542 243.3 543.79 244.04 548.17 245.08 550.01 245.78 551.18 246.43 552.45 248.75 552.88 249.23 553.36 249.65 555.7 250.92 556.69 251.76 557.08 252.28 557.4 252.85 557.82 254.21 558.93 262.07 559.15 262.83 559.47 263.55 560.1 264.25 560.82 264.55 561.64 264.63 564.69 263.94 565.68 263.82 567.14 263.82 568 264.08 568.6 264.52 568.92 265.1 569.18 266.63 569.63 267.43 570.39 268.2 573 269.67 573.64 270.29 574.25 271.67 574.73 272.39 575.66 273.18 576.48 273.5 577.31 273.55 578.02 273.4 579.44 272.84 580.32 272.59 581.63 272.46 582.41 272.68 583.03 273.06 584.11 274.25 585.07 275.02 585.96 275.27 586.77 275.28 587.54 275.14 588.24 274.92 589.38 274.89 590.85 274.96 593.75 275.6 595.29 275.74 596.47 275.73 598.75 275.14 599.81 275.04 601.45 275.06 603.52 275.56 603.98 275.8 604.31 276.07 605.6 277.56 606.28 278.16 607 278.36 607.69 278.27 609.73 277.48 610.99 277.13 612.91 276.81 Z" id="CIV-3450" data-name="Vallée du Bandama"/>
<path d="M 673.49 639.27 640.75 630.32 639.91 630.19 638.88 630.38 637.7 630.8 628.13 636.96 622.64 642.68 621.01 644.07 619.5 644.68 618.45 644.92 616.5 645.81 613.83 649.67 614.68 664.35 614.6 665.21 614.36 666.13 612.97 667.46 563.85 670.13 559.63 669.95 555.78 668.26 549.63 664.83 547.58 663.39 546.33 661.87 546.91 659.87 543.72 653.17 517.94 636.59 543.55 588.82 547.58 582.02 548.15 581.66 548.88 581.57 549.81 582.24 550.32 582.85 550.69 583.54 551.22 584.81 551.63 585.27 552.12 585.71 553.89 586.62 557.1 588.75 558.08 589.61 558.61 589.98 559.44 590.37 563.81 591.4 568.15 592.91 570.95 593.51 571.59 593.86 574.42 593.23 584.86 587.48 585.09 585.63 585.07 583.95 584.88 583.22 584.34 581.98 583.72 579.18 583.86 577.83 583.84 576.37 584.01 574.89 584.01 574.1 583.65 571.83 583.61 571 583.7 569.35 584.34 566.4 585.42 563.9 586.15 562.84 589.45 559.25 590.01 558.22 590.36 557.27 590.52 556.6 591.25 555.8 592.42 554.95 599.5 552.58 633.38 536.19 634.15 537.65 635.84 537.1 637.72 536.76 640.62 536.82 641.29 536.76 643.17 534.58 644.41 533.9 645.74 534.98 646.03 536.67 645.02 540.45 644.93 542.11 645.43 542.98 647.07 544.24 647.61 544.79 647.92 545.78 648.28 547.94 648.9 548.84 649.5 550.1 650.28 556.01 649.99 556.89 649.35 557.63 648.71 558.23 648.42 558.68 648.56 559.67 648.9 560.42 649.24 560.97 649.39 561.36 649.93 562.2 652.5 564.75 653.36 565.29 654.74 571.61 657.5 571.18 659.95 571.98 662.04 571.92 663.73 568.93 669.18 575.01 672.15 579.36 674.04 584.67 674.92 585.91 674.73 586.61 672.16 586.84 671.42 587.35 671.71 588.43 672.34 589.4 673.01 589.81 673.92 591.2 674.63 592.68 674.43 593.16 675.91 593.33 676.56 591.19 677.99 590.41 679.68 591.26 681.86 595.76 682.9 596.81 683.34 603.41 682.51 605.01 680.77 606.13 679.17 607.57 678.8 610.1 679.57 609.75 681.64 609.21 681.37 609.81 680.93 611.26 680.66 611.88 682.78 613.06 684.15 615.21 684.34 617.84 682.9 620.43 681.69 621.07 680.34 621.33 679.25 621.82 678.8 623.1 678.69 624.81 678.37 626.24 674.15 634.33 673.61 636.64 673.49 639.27 Z" id="CIV-3451" data-name="Agnéby"/>
<path d="M 664.7 443.39 663.45 445.32 663.73 448.19 664.66 447.83 665.59 447.3 665.71 447.74 665.7 448.06 665.84 448.21 666.4 448.19 665.58 450.18 664.58 450.84 661.95 450.95 658.52 451.64 658.37 452.42 658.48 456.24 658.75 457.66 658.83 459.03 658.39 460.67 657.64 462.35 657.11 463.14 656.31 463.62 654.74 464.32 654.33 462.12 652.96 461.69 651.36 462.57 650.28 464.32 650.31 465.92 651.51 470.15 652.06 471.45 653.2 472.8 654.62 473.46 658.39 474.12 658.45 473.72 659.37 473.15 660.45 472.94 660.98 473.64 660.86 474.57 660.51 475.23 659.94 475.68 659.2 475.99 660.14 478.13 658.43 478.27 653.77 476.8 653.44 479.61 651.74 480.83 647.61 481.34 645.23 482.34 643.86 483.73 642.79 485.27 641.29 486.68 636.42 487.49 633.34 490.25 632.62 493.59 633.86 495.7 635.11 495.82 635.94 492.84 637.78 494.18 639.03 496.63 639.28 499 638.16 500.06 636.89 500.84 635.14 502.75 633.69 505.1 633.34 507.19 634.45 507.9 636.62 509.75 637.92 511.66 636.42 512.53 636.12 513.48 630.59 518.85 633.97 525.92 633.76 528.73 629.7 530.44 631.56 531.92 632.41 533.6 633.03 535.51 633.38 536.19 599.5 552.58 592.42 554.95 591.25 555.8 590.52 556.6 590.36 557.27 590.01 558.22 589.45 559.25 586.15 562.84 585.42 563.9 584.34 566.4 583.7 569.35 583.61 571 583.65 571.83 584.01 574.1 584.01 574.89 583.84 576.37 583.86 577.83 583.72 579.18 584.34 581.98 584.88 583.22 585.07 583.95 585.09 585.63 584.86 587.48 574.42 593.23 571.59 593.86 570.95 593.51 568.15 592.91 563.81 591.4 559.44 590.37 558.61 589.98 558.08 589.61 557.1 588.75 553.89 586.62 552.12 585.71 551.63 585.27 551.22 584.81 550.69 583.54 550.32 582.85 549.81 582.24 548.88 581.57 548.15 581.66 547.58 582.02 543.55 588.82 512.41 581.24 513.26 580.97 513.36 580.44 513 579.4 512.64 578.66 512.11 578.2 511.45 578.15 510.1 578.35 509.56 578.2 509.4 577.78 510.59 575.21 511.06 574.81 511.6 574.19 511.99 573.16 512.34 571.19 512.73 570.19 512.86 569.3 512.65 568.61 511.32 567.36 511.23 566.93 511.89 566.55 512.35 566.2 512.39 565.75 511.91 565.54 510.45 565.47 509.85 565.18 509.64 564.55 509.72 563.33 509.61 562.54 508.95 562.01 508.25 561.81 507.72 561.45 507.61 560.91 508.03 560.23 508.49 560.11 508.88 559.61 508.82 558.58 508.13 556.47 507.43 555.54 506.63 555.01 504.62 554.49 503.97 554.59 502.72 555.1 502.06 555.3 501.34 555.34 500.75 554.99 500.36 554.25 500.45 552.43 500.68 550.97 501.26 548.97 501.44 547.02 501.65 546.46 502.41 546.15 504.45 546.49 505.01 546.23 505.3 545.73 505.05 544.73 504.69 544.1 504.42 543.43 504.31 542.2 504 541.73 503.55 541.34 503.66 540.86 503.97 540.41 507.36 539.58 498.37 536.31 497.81 536.28 497.18 536.42 496.54 536.46 494.72 536.08 494.08 536.14 493.4 536.27 492.79 536.54 492.22 536.89 491.23 537.69 490.68 538.01 490 538.18 488.4 538.27 487.69 538.38 487.22 538.73 487.09 539.24 487.11 539.84 486.96 540.43 486.5 540.75 485.84 540.8 485.14 540.69 484.37 540.37 483.69 539.73 482.96 538.71 482.96 537.45 483.24 537.08 483.64 536.78 483.77 536.29 483.71 535.63 483.48 535.01 483.1 534.55 482.3 534.36 481.45 533.95 479.79 532.08 479.44 531.2 479.55 529.61 480.3 528.06 480.67 526.54 481.02 525.97 481.11 525.36 480.79 524.6 479.47 523.7 478.45 522.76 477.73 522.27 477.15 520.38 478.77 515.11 479.28 512.05 479.29 511.48 479.44 510.82 482.4 509.32 483.45 509.84 484.04 509.97 485.04 509.97 496.98 504.57 498.13 503.92 498.62 503.46 499.08 502.86 499.41 501.92 499.36 500.96 498.55 499.08 498.41 498.2 498.48 497.3 499.34 495.32 499.55 494.36 499.63 493.61 498.45 490.5 497.27 487.61 497.22 487.43 497.17 486.84 497.28 486.16 497.62 485.52 499.36 483.92 503.39 477.57 503.74 476.3 504.84 473.86 511.51 452.37 511.44 450.87 508.48 434.49 508.63 433.11 509.23 431.78 511.38 430.54 513.05 429.76 516.44 428.88 521.47 428.9 521.14 426.92 520.84 426.11 517.69 420.12 520.48 416.74 523.81 414.4 524.54 413.76 525.88 412.29 527.13 410.56 527.81 409.8 528.54 409.26 529.29 408.97 530.09 408.89 530.9 408.95 535.06 410.06 535.87 410.09 536.51 409.31 536.87 407.86 534.88 392.44 534.49 391.06 534.16 390.32 533.97 388.1 535.17 383.09 540.23 381.96 541.19 381.95 542.54 382.1 545.24 383.09 546.93 383.15 548.49 383.01 550.62 382.48 552.55 381.62 555.92 378.68 566.19 373.67 568.6 371.8 576.07 363.78 578.97 359.37 579.61 358.72 580.68 357.89 583.48 357.07 602.67 353.26 601.91 359.14 602.7 361.28 604.59 361.24 606.83 360.6 608.67 360.96 609.96 361 611.32 360.02 612.59 359.86 613.58 362.38 613.26 363.58 612.23 364.84 609.93 366.75 608.14 367.58 606.95 367.89 607.05 368.32 609.12 369.51 611.03 370.18 614.9 371.1 616.25 372.18 617.96 370.74 619.67 371.96 620.22 372.96 621.03 374.41 621.67 376.64 621.36 377.36 620.66 378.14 620.11 378.95 620.3 379.76 621.2 380.88 621.51 381.45 622.32 384.01 622.09 384.94 620.7 385.56 620.7 386.45 623.61 386.49 625.67 386.94 627.04 388.26 627.92 390.9 629.34 390.25 630.59 390.29 631.63 390.86 632.45 391.79 635.04 391.52 637.93 391.83 639.62 393.24 638.61 396.25 639.78 400.55 641.24 402.01 644.49 402.57 646.02 403.42 646.53 405.29 646.66 407.15 647.12 408 648.66 408.5 649.44 409.63 650.1 410.84 651.25 411.57 656.43 410.24 658.99 410.86 660.09 414.73 659.37 416.3 656.81 418.78 657.01 420.03 658.05 420.8 659.6 421.5 661.29 422.02 662.76 422.26 663.87 422.8 664.43 423.6 664.86 424.62 667.72 428.82 668.11 428.91 668.91 434.25 668.53 436.32 666.4 437.42 666.63 440.41 664.7 443.39 Z" id="CIV-3452" data-name="N&apos;zi-Comoé"/>
<path d="M 431.08 723.71 431.15 723.79 432.06 723.27 432.77 723.06 434.62 722.82 434.62 723.79 433.62 724.91 430.56 726.41 429.28 727.27 429.28 724.69 427.42 730.1 426.52 731.82 422.15 725.5 421.17 725.5 421.12 725.9 421.17 727.27 419.4 726.38 421.35 730.08 426.71 732.49 433.12 733.19 438.27 731.82 436.17 730.24 433.97 730.28 431.64 730.65 429.28 730.04 429.28 729.15 430.6 729.23 431.67 729.06 432.63 728.7 433.65 728.17 434.34 727.6 435.99 725.89 436.48 725.5 438.43 725.94 440.59 727.02 442.7 727.56 444.51 726.38 446.11 727.36 447.7 727.71 449.04 727.17 449.85 725.5 447.46 725.85 446.41 724.8 445.53 723.42 443.62 722.82 443.62 721.93 445.4 722.82 449.76 722.2 457.67 726.82 461.04 725.94 462.88 724.5 464.6 724.21 469.11 724.69 469.64 725.68 470.38 727.92 471.5 730.33 473.12 731.82 440.1 732.82 435.02 734.78 417.52 735.71 417.52 735.7 415.61 718.15 416.56 714.69 418.22 714.96 419.63 715.42 420.8 716.06 427.57 721.81 429.03 722.8 430.88 723.65 431.08 723.7 431.08 723.71 Z M 677.87 646.75 679.88 649.32 680.43 650.4 680.35 651.05 679.81 652.12 678.3 653.77 677.91 654.74 677.21 665.03 677.35 666.38 677.87 666.94 678.52 667.28 679.04 667.62 679.44 668.15 679.72 668.74 679.95 669.85 680.61 675.67 680.93 676.69 681.2 677.26 681.43 677.94 681.43 678.98 681.25 680.27 680.05 683.78 677.63 689.23 677.24 690.65 677.16 693.75 678.07 703.06 677.03 708.88 677.03 709.63 677.1 710.37 677.26 711.03 677.49 711.65 677.85 712.17 678.26 712.64 680.74 714.69 681.17 715.17 681.54 715.68 681.79 716.26 681.97 716.9 682.03 717.65 678.72 720.55 664.23 728.07 664.21 728.08 652.04 725.5 645.96 725.14 641.84 724.32 640.81 723.98 640.36 723.31 640.6 722.1 640.91 721.18 640.69 720.28 639.39 719.18 640.36 717.48 639.03 718.58 637.98 720.27 637.26 722.15 636.89 723.79 635.91 723.79 634.35 722.9 631.82 722.64 626.51 722.82 624.77 722.36 618.9 719.18 609.77 717.99 605.69 716.77 603.74 713.82 606.16 714.63 608.92 714.35 611.33 713.13 612.75 711.16 614.64 713.5 615.58 714.43 616.67 714.81 617.53 714.47 617.88 713.7 617.72 712.78 617.11 712.04 617.11 711.16 618.91 711.56 623.42 713.4 624.32 713.42 625.65 713 628.59 714.14 633.32 716.66 633.01 715.82 632.79 714.52 632.43 713.82 634.46 713.88 637.96 714.36 639.39 713.82 641.11 711.76 640.3 710.63 638.62 709.64 637.7 708.08 636.2 703.73 635.91 701.83 635.47 700.81 634.38 700.11 632.96 699.95 631.55 700.46 630.69 699.89 629.46 699.53 628.37 699.74 627.89 700.9 628.27 701.64 631.06 703.62 634.36 708.07 636.33 710.16 638.59 711.16 637.42 712.85 635.4 712.67 633.2 712.19 631.55 713.02 630.56 713.02 628.93 711.05 627.71 710.54 626.36 710.6 624.32 710.34 622.94 709.86 621.4 708.98 620.2 707.7 619.87 705.97 619.25 706.55 618.47 707.13 618.09 707.67 617.55 706.6 617.2 705.58 617.04 704.48 617.11 703.14 616.22 703.14 616.04 704.97 615.41 706.55 614.31 707.33 612.75 706.78 611.73 707.54 610.31 707.76 608.76 707.5 607.31 706.78 604.26 707.25 602.77 707.67 604.04 708.85 606.08 709.33 608.25 709.2 609.9 708.48 611.76 710.34 610.02 711.68 607.78 712.97 605.42 713.48 603.26 712.53 601.63 711.59 598.77 710.31 596.04 709.51 594.83 709.9 593.74 711.05 591.34 710.41 587.61 708.48 585.88 709.01 584.49 709.9 583.09 710.31 581.29 709.45 580.54 710.21 579.69 710.22 578.76 709.61 577.81 708.48 574.26 710.88 572.53 711.55 570.6 711.16 570.86 710.56 571.24 709.06 571.5 708.48 568.15 707.83 566.7 708.08 565.17 709.45 564.2 708.56 563.02 707.99 562.03 708.02 561.22 710.07 559.15 711.72 558.13 713.02 557.19 712.06 555.63 710.86 553.95 709.84 552.76 709.45 551.39 710.19 550.02 711.4 548.66 711.86 547.35 710.34 547.74 710.05 547.9 710.02 548.03 709.92 548.31 709.45 543.48 709.68 541.63 710.58 541.11 713.02 542.35 712.39 543.45 712.57 544.28 713.42 544.76 714.81 542.27 714.23 533 713.82 532.49 712.58 531.87 711.48 530.41 709.45 529.67 710.7 529.62 711.73 530.16 712.52 531.21 713.02 531.21 713.82 528.86 714.28 527.07 715.12 524.08 717.48 521.67 715.91 518.88 716.09 516.45 717.19 515.18 718.37 514.28 718.37 513.41 717.99 512.28 717.3 511.28 716.48 510.72 715.69 512.24 715.01 513.52 715.16 514.94 715.59 516.87 715.69 516.6 714.43 516.18 713.62 515.46 713.19 514.28 713.02 514.28 712.04 515.62 711.43 516.47 710.51 516.87 709.26 516.87 707.67 516.07 707.67 514.46 710.68 512.28 712.28 509.52 712.91 506.18 713.02 509.71 715.68 507.1 717.99 502.24 720.04 499.05 721.93 498.24 723.82 498.43 725.05 499.61 725.83 501.72 726.38 504.06 726.51 506.38 726.12 507.72 725.2 507.07 723.79 507.07 722.82 510.37 721.93 511.99 721.03 512.57 721.63 513.21 722.48 514.28 722.82 515.9 722.42 518.54 721.28 520.52 721.05 524.58 721.05 525.81 721.31 526.64 721.88 527.2 722.49 527.65 722.82 529.59 723.09 530.94 722.9 533.97 721.93 532.62 722.09 531.04 721.96 529.79 721.37 529.44 720.16 530.24 719.48 534.78 718.37 534.78 720.16 535.75 720.16 538.64 718.76 546.34 719.24 550.1 717.48 550.72 719.42 551.73 718.63 552.81 716.82 553.66 715.69 556.05 715.76 558.08 716.71 559.9 717.17 561.6 715.69 564.07 716.69 566.62 716.26 569.23 715.32 574.59 714.37 577.94 712.47 580 712.04 596.1 711.62 600.18 713.02 598.96 713.58 597.65 713.87 596.27 713.93 594.83 713.82 604.55 718.37 563.77 721.7 522.98 725.02 501.55 729.82 489.71 730.83 487.46 731.82 486.04 731.08 484.51 730.81 477.47 730.68 475.79 730.84 475.79 730.04 476.21 730 477.08 730.07 477.49 730.04 477.49 729.15 473.82 729.2 472.95 727.65 473.01 725.28 472.15 722.82 473.82 720.84 472.17 720.41 465.05 721.3 462.72 722.04 460.55 723.19 458.78 724.69 456.6 722.81 452.83 720.91 448.45 720 444.51 721.05 444.01 720.49 443.11 719.79 442.89 719.5 442.88 719.5 442.88 719.49 442.89 719.47 444.13 718.92 452.29 718.24 454.06 718.24 455.27 718.45 457.14 719.88 458.59 720.4 459.54 720.41 460.29 720.18 460.82 719.77 461.34 719.23 461.94 718.4 466.56 708.33 466.69 707.59 466.74 706.8 466.51 703.71 466.56 702.79 466.7 701.8 467.14 700.39 475.39 680.64 476.81 675.85 477.12 674.05 477.15 672.42 476.57 669.66 476.34 668.98 475.14 666.7 474.45 665.64 474.19 665.07 474.07 664.41 474.34 663.34 481.57 644.74 475.12 632.51 473.54 622.39 472.92 606.34 472.42 603.6 471.08 602.4 469.12 601.73 455.73 600.15 450.45 598.03 441.54 589.59 445.38 578.99 445.67 575.55 445.46 574.73 445.33 570.18 447.6 568.63 448.2 568.35 449 568.35 450.11 568.84 470.18 585.18 472.55 586.53 476.92 587.22 480.43 587.3 481.67 587.13 489.66 584.76 490.75 584.67 492.61 584.84 494.62 585.29 495.24 585.52 496.39 585.83 497.09 585.94 498.33 586.37 502.43 586.59 506.19 586.33 509.22 585 512.41 581.24 543.55 588.82 517.94 636.59 543.72 653.17 546.91 659.87 546.33 661.87 547.58 663.39 549.63 664.83 555.78 668.26 559.63 669.95 563.85 670.13 612.97 667.46 614.36 666.13 614.6 665.21 614.68 664.35 613.83 649.67 616.5 645.81 618.45 644.92 619.5 644.68 621.01 644.07 622.64 642.68 628.13 636.96 637.7 630.8 638.88 630.38 639.91 630.19 640.75 630.32 673.49 639.27 673.46 640.12 673.81 643.27 674.77 644.68 676.21 645.5 677.87 646.75 Z" fill-rule="evenodd" id="CIV-3458" data-name="Lagunes"/>
<path d="M 204.14 496.71 206.07 499.59 205.83 500.92 205.33 501.56 204.83 502.36 204.23 503.79 204.25 504.84 204.48 505.86 205.06 507 205.54 507.72 206.07 508.27 206.66 508.57 209.29 509.51 210.12 510.19 211.07 511.1 212.72 513.13 213.45 514.4 214.03 515.94 216.26 527.1 216.18 527.86 216.02 528.57 215.78 529.22 215.47 529.82 215.18 531.57 215.57 535.29 211.49 541.52 211.04 543.77 211.48 544.28 212.67 545.23 211.66 545.33 208.14 546.15 207.51 546.41 205.45 547.61 205.14 547.93 203.45 550.4 203.01 550.86 202.49 551.25 201.93 551.53 201.35 551.67 200.44 552.05 199.4 552.73 197.93 553.96 197.26 558.07 197.87 575.33 199.61 600.94 201.07 606.51 201.68 618.16 200.05 658.46 160.16 666.17 157.76 666.66 156.06 663.24 153.65 653 153.77 648.21 154.62 642.7 154.03 638.17 149.85 636.36 149.45 640.23 148.8 642.37 147.79 643.37 146.54 642.59 145.9 640.76 145.02 639.05 143 638.69 143.43 636.49 142.46 636.88 140.84 638.24 139.33 638.97 138.4 638.46 136.67 636.3 135.67 635.46 136.73 634.1 136.07 633.25 133.25 632.02 132.89 631.94 130.2 630.47 130 629.99 127.69 629.64 125.76 628.1 124.33 626.45 123.49 625.77 122.05 627.5 120.52 630.09 118.7 631.02 116.38 627.77 114.79 626.21 109.63 623.52 107.93 621.4 107.8 620.45 107.89 616.74 108.18 616.14 109.38 615.48 109.65 614.78 109.36 613.95 108.69 613.61 107.99 613.4 107.57 612.94 107.14 609.96 106.62 608.77 105.36 607.61 104.18 607.53 102.55 607.96 101.29 608.63 101.24 609.24 99.82 607.42 99.47 604.79 99.79 601.82 100.4 599.08 102.12 594.05 101.8 592.28 99.78 589.81 93.97 585.16 93.52 584.54 93.18 583.02 92.96 582.59 92.15 582.32 91.54 582.49 90.98 582.71 90.28 582.63 81.86 580.63 79.73 579.19 77.47 578.67 73.93 578.75 67.86 579.59 66.33 580.21 63.42 581.82 61.62 582.26 59.51 582.29 58.4 581.92 57.53 581.27 56.11 580.44 54.56 579.87 44.44 577.58 43.25 577.15 43.06 576.61 43.06 575.71 42.91 574.64 42.26 573.59 41.3 573.07 40.76 573.48 40.33 574.07 39.69 574.14 38.31 572.89 37.05 571.46 35.7 570.92 34 572.36 32.61 571.75 31.02 571.7 29.42 572.31 28.01 573.67 26.46 572.11 26.92 571.31 28.12 570.65 28.78 569.46 28.48 568.46 27.3 566.08 27.07 564.84 27.74 562.68 28.71 561.85 28.89 561.1 27.17 559.16 23.07 556.97 21.56 555.02 20.74 554.47 20.11 555.57 19.51 557.99 18.49 560.41 16.86 561.75 14.46 560.93 10.58 555.76 9.12 554.48 7.61 554.04 4.47 554.13 3.2 553.86 1 553.72 4.21 549.67 4.83 549.38 6.4 549.13 7 548.76 7.28 548.2 7.87 546.38 7.73 546.18 7.87 546.14 10.04 544.93 10.34 544.95 12.12 542.82 21.55 535.37 24.12 532.51 24.99 532.86 37.78 541.04 39 541.53 39.95 541.56 41.4 540.53 42.45 540.02 44.11 539.44 44.99 539.3 48.16 536.81 49.12 536.34 49.22 535.54 49.2 534.91 49.09 534.22 49.17 533.5 49.44 532.65 49.4 531.92 49.12 530.86 49.44 530.57 50.81 530.78 51.49 530.66 52.11 530.48 53.43 530.27 53.89 529.93 53.84 529.03 52.98 527.21 52.84 526.69 53.26 525.95 55.88 524.34 56.66 524.31 56.96 524.71 57.02 525.27 57.29 525.76 57.77 526.06 58.52 525.99 59.31 525.48 60.33 524.45 60.88 523.03 61.35 520.37 61.39 519.08 61.67 518.53 63.17 517.42 63.89 516.4 64.65 516.05 66.18 515.16 67.39 514.19 68.43 513.62 69.21 513.32 69.75 513 69.84 512.2 68.6 509.02 68.26 508.58 67.79 508.5 67.37 508.38 67.16 507.89 67.18 507.24 67.41 506.41 68.48 504.21 69.05 502.47 68.64 501.57 68.8 501.16 69.8 500.73 70.52 500.28 71.1 499.46 71.43 498.79 71.83 498.39 72.49 498.57 73.57 498.33 75.05 497.55 80.2 492.64 83.13 491.64 86.49 493.08 87.13 493.47 88.19 494.26 90.95 496.79 92.07 497.49 93.04 497.92 94.87 498.22 98.03 499.11 99.01 499.65 99.66 500.23 100.26 501.44 101.75 505.58 102.31 506.43 103.51 507.58 105.39 507.98 107.54 508.15 129.35 507.84 131.11 507.48 131.64 500.67 131.87 499.76 133.5 496.74 141.91 495.46 155.69 495.4 157.02 495.2 160.73 494.2 172.99 492.18 174.77 492.22 175.56 492.3 179.99 493.37 190 492.32 191.36 492.37 191.98 492.67 195.18 494.83 197.1 495.62 203.24 496.67 204.14 496.71 Z" id="CIV-3459" data-name="Cavally"/>
<path d="M 721.94 480.4 721.85 480.45 720.24 481.45 705.18 507.17 703 512.2 702.81 516.92 703.38 518.24 705.01 520.33 706.77 523.72 707.08 524.59 704.51 531.75 703.81 532.6 701.4 533.93 700.46 535.3 700.28 537.49 710.58 583.61 712.13 585.48 712.12 585.5 706.99 594.87 705.73 598.15 705.74 598.94 706.2 601.57 706.32 603.11 706.05 604.31 705.75 605.18 705.38 605.74 704.52 606.65 703.29 607.71 702.05 609.75 694.21 628.67 684.7 644.24 684.28 644.74 683.79 645.12 683.14 645.38 677.87 646.75 676.21 645.5 674.77 644.68 673.81 643.27 673.46 640.12 673.49 639.27 673.61 636.64 674.15 634.33 678.37 626.24 678.69 624.81 678.8 623.1 679.25 621.82 680.34 621.33 681.69 621.07 682.9 620.43 684.34 617.84 684.15 615.21 682.78 613.06 680.66 611.88 680.93 611.26 681.37 609.81 681.64 609.21 679.57 609.75 678.8 610.1 679.17 607.57 680.77 606.13 682.51 605.01 683.34 603.41 682.9 596.81 681.86 595.76 679.68 591.26 677.99 590.41 676.56 591.19 675.91 593.33 674.43 593.16 674.63 592.68 673.92 591.2 673.01 589.81 672.34 589.4 671.71 588.43 671.42 587.35 672.16 586.84 674.73 586.61 674.92 585.91 674.04 584.67 672.15 579.36 669.18 575.01 663.73 568.93 662.04 571.92 659.95 571.98 657.5 571.18 654.74 571.61 653.36 565.29 652.5 564.75 649.93 562.2 649.39 561.36 649.24 560.97 648.9 560.42 648.56 559.67 648.42 558.68 648.71 558.23 649.35 557.63 649.99 556.89 650.28 556.01 649.5 550.1 648.9 548.84 648.28 547.94 647.92 545.78 647.61 544.79 647.07 544.24 645.43 542.98 644.93 542.11 645.02 540.45 646.03 536.67 645.74 534.98 644.41 533.9 643.17 534.58 641.29 536.76 640.62 536.82 637.72 536.76 635.84 537.1 634.15 537.65 633.38 536.19 633.03 535.51 632.41 533.6 631.56 531.92 629.7 530.44 633.76 528.73 633.97 525.92 630.59 518.85 636.12 513.48 636.42 512.53 637.92 511.66 636.62 509.75 634.45 507.9 633.34 507.19 633.69 505.1 635.14 502.75 636.89 500.84 638.16 500.06 639.28 499 639.03 496.63 637.78 494.18 635.94 492.84 635.11 495.82 633.86 495.7 632.62 493.59 633.34 490.25 636.42 487.49 641.29 486.68 642.79 485.27 643.86 483.73 645.23 482.34 647.61 481.34 651.74 480.83 653.44 479.61 653.77 476.8 658.43 478.27 660.14 478.13 659.2 475.99 659.94 475.68 660.51 475.23 660.86 474.57 660.98 473.64 660.45 472.94 659.37 473.15 658.45 473.72 658.39 474.12 654.62 473.46 653.2 472.8 652.06 471.45 651.51 470.15 650.31 465.92 650.28 464.32 651.36 462.57 652.96 461.69 654.33 462.12 654.74 464.32 656.31 463.62 657.11 463.14 657.64 462.35 658.39 460.67 658.83 459.03 658.75 457.66 658.48 456.24 658.37 452.42 658.52 451.64 661.95 450.95 664.58 450.84 665.58 450.18 666.4 448.19 665.84 448.21 665.7 448.06 665.71 447.74 665.59 447.3 664.66 447.83 663.73 448.19 663.45 445.32 664.7 443.39 668.86 442.1 669.49 441.97 669.94 442.04 672.03 442.72 672.85 442.5 674 443.21 674.53 443.17 675.16 442.96 675.89 443.2 676.72 443.73 678.32 444.56 679.11 445.23 679.64 445.89 681.63 452.55 681.89 453.11 682.27 453.69 682.74 454.24 684.05 455.42 686.17 457.89 686.95 458.2 687.6 458.11 688.09 457.69 688.86 456.67 689.93 454.94 691.61 454.86 694.39 455.26 703.86 458.18 705.42 459.11 708.37 461.38 712.75 464.06 714.82 465.88 716.34 467.6 721.77 477.92 721.93 480.33 721.94 480.4 Z" id="CIV-3460" data-name="Comoe"/>
<path d="M 517.69 420.12 520.84 426.11 521.14 426.92 521.47 428.9 516.44 428.88 513.05 429.76 511.38 430.54 509.23 431.78 508.63 433.11 508.48 434.49 511.44 450.87 511.51 452.37 504.84 473.86 503.74 476.3 503.39 477.57 499.36 483.92 497.62 485.52 497.28 486.16 497.17 486.84 497.22 487.43 497.27 487.61 498.45 490.5 499.63 493.61 499.55 494.36 499.34 495.32 498.48 497.3 498.41 498.2 498.55 499.08 499.36 500.96 499.41 501.92 499.08 502.86 498.62 503.46 498.13 503.92 496.98 504.57 485.04 509.97 484.04 509.97 483.45 509.84 482.4 509.32 479.44 510.82 479.29 511.48 479.28 512.05 478.77 515.11 477.15 520.38 477.73 522.27 478.45 522.76 479.47 523.7 480.79 524.6 481.11 525.36 481.02 525.97 480.67 526.54 480.3 528.06 479.55 529.61 479.44 531.2 479.79 532.08 481.45 533.95 482.3 534.36 483.1 534.55 483.48 535.01 483.71 535.63 483.77 536.29 483.64 536.78 483.24 537.08 482.96 537.45 482.96 538.71 483.69 539.73 484.37 540.37 485.14 540.69 485.84 540.8 486.5 540.75 486.96 540.43 487.11 539.84 487.09 539.24 487.22 538.73 487.69 538.38 488.4 538.27 490 538.18 490.68 538.01 491.23 537.69 492.22 536.89 492.79 536.54 493.4 536.27 494.08 536.14 494.72 536.08 496.54 536.46 497.18 536.42 497.81 536.28 498.37 536.31 507.36 539.58 503.97 540.41 503.66 540.86 503.55 541.34 504 541.73 504.31 542.2 504.42 543.43 504.69 544.1 505.05 544.73 505.3 545.73 505.01 546.23 504.45 546.49 502.41 546.15 501.65 546.46 501.44 547.02 501.26 548.97 500.68 550.97 500.45 552.43 500.36 554.25 500.75 554.99 501.34 555.34 502.06 555.3 502.72 555.1 503.97 554.59 504.62 554.49 506.63 555.01 507.43 555.54 508.13 556.47 508.82 558.58 508.88 559.61 508.49 560.11 508.03 560.23 507.61 560.91 507.72 561.45 508.25 561.81 508.95 562.01 509.61 562.54 509.72 563.33 509.64 564.55 509.85 565.18 510.45 565.47 511.91 565.54 512.39 565.75 512.35 566.2 511.89 566.55 511.23 566.93 511.32 567.36 512.65 568.61 512.86 569.3 512.73 570.19 512.34 571.19 511.99 573.16 511.6 574.19 511.06 574.81 510.59 575.21 509.4 577.78 509.56 578.2 510.1 578.35 511.45 578.15 512.11 578.2 512.64 578.66 513 579.4 513.36 580.44 513.26 580.97 512.41 581.24 509.22 585 506.19 586.33 502.43 586.59 498.33 586.37 497.09 585.94 496.39 585.83 495.24 585.52 494.62 585.29 492.61 584.84 490.75 584.67 489.66 584.76 481.67 587.13 480.43 587.3 476.92 587.22 472.55 586.53 470.18 585.18 450.11 568.84 449 568.35 448.2 568.35 447.6 568.63 445.33 570.18 442.77 569.39 438.19 570.97 436.03 570.31 433.82 568.1 432.85 566.03 432.69 563.53 432.86 560.02 432.46 559.25 431.63 558.61 431.09 557.88 431.57 556.86 432.27 556.08 432.61 555.46 432.86 553.78 433.54 551.84 433.21 551.3 431.57 551.11 429.46 550.31 431.14 547.9 432.44 546.03 431.97 543.98 433.16 541.15 431.55 539.46 428.58 538.67 421.47 538.8 419.99 537.9 419.42 535.38 419.47 534.5 419.48 534.34 419.92 527.79 419.42 525.1 418.07 522.16 416.66 519.08 416.37 517.96 409.99 511.91 408.72 510.39 407.97 507.54 404.41 503.45 403.29 501.03 403.53 498.63 406.25 496.47 406.94 494.26 407.16 492.15 408.3 488.44 408.71 487.43 409.63 485.9 410.96 485.41 412.55 484.63 413.08 484.22 413.49 483.73 413.55 483.18 413.24 482.65 410.68 481.9 410.05 481.63 409.49 481.31 408.93 480.88 408.35 480.24 407.7 479.28 407.3 477.87 407.23 476.88 407.38 476.08 408.1 474.37 409.1 470.62 408.95 469.84 408.52 469.19 404.99 467.83 404.09 467.6 403.25 467.51 402.02 467.71 401.34 467.98 400.93 468.3 400.38 468.64 399.79 468.93 399.1 469.11 398.4 469.1 397.58 468.94 396.78 468.58 395.66 467.79 394.99 467.05 394.59 465.68 394.54 464.87 394.35 464.09 392.8 463.06 390.56 461.25 389.58 460.9 388.73 460.82 387.97 460.85 387.31 460.74 386.69 460.42 386.19 459.86 385.35 458.31 385.16 457.67 385.31 457.13 386.04 456.73 386.55 456.34 386.89 455.77 386.64 455.12 386.99 453.96 390.82 454.43 392.96 454.39 407.97 450.66 413.4 448.41 414.32 448.25 415.29 448.29 416.46 448.77 417.26 449.43 417.9 450.16 420.54 453.97 422.82 456.47 423.59 457.05 424.39 457.47 425.21 457.75 426.2 457.79 427.42 457.62 431.53 456.52 432.39 456.5 434.85 456.89 435.76 456.66 436.76 456.01 439.16 452.96 440.18 451.95 441.77 451.23 442.82 451.12 443.78 451.15 444.55 450.91 445.28 450.04 446.67 446.97 449.04 444.31 463.68 437.25 465.04 436.15 465.85 435.18 466.14 434.36 466.95 432.69 467.47 431.88 468.09 431.14 468.82 430.42 469.67 429.76 471.49 428.66 478.85 425.93 480.47 424.95 481.51 423.96 483.45 420.36 485.72 417.56 487.24 416.79 489.26 416.28 496.98 415.8 497.99 415.87 499.07 416.24 500.76 417.27 503.16 419.65 503.9 420.14 507.22 420.5 517.69 420.12 Z" id="CIV-3461" data-name="Lacs"/>
<path d="M 710.4 731.35 713.22 732.24 713.78 732.23 714.29 731.92 715.44 732.75 717.35 734.5 719.1 734.65 719.5 734.54 719.5 734.54 718.93 736.69 718.93 736.69 718.85 736.67 713.16 735.36 700.33 734.13 698.47 733.2 699 731.33 701.48 729.09 703.98 727.27 707.47 728.17 708.4 728.8 708.78 729.57 708.97 730.31 709.33 730.84 710.4 731.35 Z M 664.21 728.08 664.23 728.07 678.72 720.55 682.03 717.65 681.97 716.9 681.79 716.26 681.54 715.68 681.17 715.17 680.74 714.69 678.26 712.64 677.85 712.17 677.49 711.65 677.26 711.03 677.1 710.37 677.03 709.63 677.03 708.88 678.07 703.06 677.16 693.75 677.24 690.65 677.63 689.23 680.05 683.78 681.25 680.27 681.43 678.98 681.43 677.94 681.2 677.26 680.93 676.69 680.61 675.67 679.95 669.85 679.72 668.74 679.44 668.15 679.04 667.62 678.52 667.28 677.87 666.94 677.35 666.38 677.21 665.03 677.91 654.74 678.3 653.77 679.81 652.12 680.35 651.05 680.43 650.4 679.88 649.32 677.87 646.75 683.14 645.38 683.79 645.12 684.28 644.74 684.7 644.24 694.21 628.67 702.05 609.75 703.29 607.71 704.52 606.65 705.38 605.74 705.75 605.18 706.05 604.31 706.32 603.11 706.2 601.57 705.74 598.94 705.73 598.15 706.99 594.87 712.12 585.5 712.13 585.48 712.51 585.94 716.35 589.43 719.13 596.72 723.09 618.5 724.99 623.16 730.02 632.33 731.61 637.06 731.94 641.78 730.66 656.67 739.14 655.95 737.83 664.11 738.53 667.49 741.62 669.2 744.17 668.89 748.42 666.32 750.54 665.48 759.84 667.87 761.52 669.22 762.54 670.93 763.03 673.04 763.34 679.88 765.66 689.23 769.22 697.55 769.78 699.9 769.45 702.18 768.15 703.82 766.42 704.14 762.02 703.33 761.17 711.41 761.54 713.22 763.36 715.84 763.94 717.34 763.87 718.46 763.32 721.18 763.43 722.38 763.84 722.83 765.56 724.3 766.27 725.14 765.02 727.59 763.16 728.92 760.16 729.35 754.96 729.15 754.63 725.51 750.3 724.94 744.94 725.57 741.51 725.5 742.58 728.13 741.92 730.76 740.03 732.8 737.45 733.61 735.41 733.01 728.5 729.8 726.35 728.17 723.75 728.89 718.57 729.04 716.38 730.04 715.38 727.56 713.34 724.58 710.93 722.09 708.84 721.05 707.78 720.07 709.18 718.01 711.2 716.13 712 715.69 712.62 713.85 713 709.99 713.78 708.48 715.57 707.36 716.96 707.02 717.85 706.2 718.17 703.62 717.87 701.67 717 700.73 715.48 700.46 713.3 700.46 712.7 700.75 711.92 701.39 710.95 702.03 709.77 702.32 708.68 702.15 706.89 701.42 705.76 701.35 704.49 701.8 701.99 703.53 700.33 704.11 701.64 707.09 702.31 709.77 701.35 711.59 697.65 712.04 698.23 713.04 698.23 713.96 697.72 714.84 696.76 715.69 697.96 716.48 698.54 716.66 697.65 716.66 698.9 717.13 700.24 717.44 701.65 717.56 703.09 717.48 703.09 718.37 701.86 718.93 699.86 718.76 698.54 719.18 697.43 720.02 696.43 721.13 695.6 722.42 694.98 723.79 693.61 722.87 692.68 723.35 692.9 724.49 694.98 725.5 694.21 727.24 694.98 728.29 696.62 728.86 698.54 729.15 693.79 732.96 685.19 732.53 664.21 728.08 Z" fill-rule="evenodd" id="CIV-3462" data-name="Sud-Comoé"/>
</g>
</svg>