<?xml version="1.0"?>
<svg xmlns="http://www.w3.org/2000/svg" version="1.2" baseProfile="tiny" width="800" height="22" viewBox="0 0 800 22" stroke-linecap="round" stroke-linejoin="round">
<g id="ne_10m_admin_1_states_provinces">
<path d="M 794.88 14.16 794.85 14.17 794.81 14.14 794.83 14.14 794.84 14.13 794.83 14.12 794.82 14.11 794.83 14.1 794.84 14.09 794.84 14.08 794.84 14.07 794.85 14.03 794.87 14.02 794.9 14.04 794.91 14.08 794.9 14.13 794.88 14.16 Z M 795.56 12.25 795.58 12.25 795.6 12.25 795.63 12.26 795.67 12.28 795.73 12.36 795.74 12.38 795.79 12.38 795.84 12.4 795.88 12.43 795.9 12.47 795.9 12.53 795.88 12.57 795.85 12.6 795.84 12.64 795.84 12.67 795.83 12.68 795.83 12.7 795.83 12.72 795.85 12.73 795.89 12.76 795.9 12.77 795.9 12.8 795.9 12.82 795.89 12.85 795.92 12.87 795.94 12.86 795.96 12.86 795.96 12.88 795.93 12.89 795.96 12.9 795.97 12.92 795.98 12.94 795.96 12.97 795.95 12.97 795.93 12.96 795.94 12.97 795.95 13 795.88 13.02 795.89 13.08 795.93 13.15 795.95 13.18 796 13.19 796.02 13.2 796.03 13.22 796.05 13.24 796.06 13.26 796.06 13.27 796.07 13.27 796.09 13.27 796.1 13.27 796.12 13.26 796.13 13.24 796.13 13.23 796.14 13.23 796.14 13.24 796.12 13.28 796.11 13.29 796.11 13.32 796.11 13.34 796.11 13.37 796.08 13.4 796.06 13.43 796.04 13.44 795.93 13.5 795.87 13.55 795.87 13.5 795.81 13.53 795.78 13.53 795.81 13.5 795.81 13.49 795.8 13.47 795.79 13.46 795.78 13.46 795.76 13.45 795.74 13.45 795.67 13.48 795.64 13.49 795.65 13.53 795.61 13.56 795.56 13.57 795.54 13.57 795.54 13.54 795.54 13.53 795.54 13.52 795.5 13.49 795.48 13.48 795.46 13.47 795.43 13.47 795.44 13.48 795.44 13.48 795.44 13.49 795.43 13.51 795.42 13.52 795.41 13.53 795.38 13.53 795.39 13.53 795.38 13.52 795.37 13.51 795.35 13.5 795.34 13.51 795.31 13.52 795.3 13.52 795.28 13.52 795.27 13.54 795.25 13.56 795.22 13.56 795.2 13.57 795.18 13.57 795.17 13.58 795.16 13.59 795.15 13.61 795.14 13.64 795.13 13.65 795.11 13.66 795.06 13.68 795.04 13.69 794.98 13.76 794.94 13.8 794.9 13.81 794.88 13.81 794.87 13.82 794.82 13.78 794.65 13.83 794.58 13.82 794.55 13.82 794.53 13.82 794.52 13.81 794.5 13.82 794.48 13.84 794.45 13.84 794.42 13.83 794.39 13.82 794.36 13.84 794.33 13.85 794.32 13.81 794.31 13.8 794.3 13.81 794.28 13.82 794.27 13.83 794.26 13.84 794.24 13.83 794.2 13.79 794.19 13.78 794.18 13.77 794.09 13.74 794.1 13.71 794.11 13.68 794.12 13.62 794.12 13.61 794.13 13.59 794.18 13.52 794.18 13.51 794.18 13.5 794.16 13.49 794.11 13.49 794.1 13.49 794.08 13.48 794.08 13.47 794.07 13.46 794.06 13.41 794.05 13.39 794.06 13.37 794.06 13.36 794.1 13.32 794.11 13.29 794.12 13.25 794.14 13.23 794.16 13.21 794.2 13.2 794.23 13.2 794.25 13.2 794.42 13.25 794.44 13.25 794.47 13.25 794.52 13.23 794.54 13.22 794.56 13.21 794.58 13.14 794.58 13.13 794.58 13.11 794.56 13.1 794.55 13.09 794.54 13.07 794.54 13.06 794.54 13.04 794.55 13.01 794.55 12.99 794.53 12.97 794.51 12.96 794.5 12.94 794.5 12.93 794.51 12.91 794.52 12.9 794.53 12.88 794.53 12.86 794.54 12.83 794.55 12.82 794.65 12.71 794.7 12.67 794.74 12.65 794.77 12.63 794.78 12.61 794.79 12.59 794.79 12.57 794.78 12.56 794.76 12.55 794.75 12.56 794.73 12.56 794.71 12.58 794.69 12.6 794.62 12.67 794.61 12.67 794.6 12.68 794.59 12.68 794.58 12.68 794.58 12.67 794.58 12.66 794.58 12.53 794.59 12.51 794.6 12.49 794.63 12.45 794.64 12.42 794.64 12.4 794.64 12.38 794.62 12.34 794.62 12.32 794.62 12.3 794.64 12.29 794.66 12.3 794.68 12.31 794.73 12.36 794.78 12.45 794.8 12.47 794.82 12.49 794.84 12.5 794.88 12.51 794.92 12.51 795.04 12.51 795.11 12.49 795.15 12.48 795.17 12.47 795.18 12.45 795.18 12.44 795.18 12.44 795.18 12.42 795.19 12.42 795.19 12.41 795.21 12.41 795.23 12.42 795.28 12.46 795.3 12.46 795.32 12.47 795.37 12.46 795.38 12.47 795.4 12.47 795.42 12.48 795.47 12.5 795.49 12.51 795.51 12.5 795.53 12.49 795.54 12.46 795.56 12.36 795.56 12.27 795.56 12.25 Z" fill-rule="evenodd" id="FJI-2617" data-name="Central"/>
<path d="M 3.85 19.16 3.86 19.17 3.86 19.17 3.84 19.17 3.84 19.17 3.82 19.15 3.81 19.14 3.81 19.12 3.83 19.1 3.83 19.12 3.84 19.14 3.85 19.16 Z M 4.95 17.3 4.93 17.33 4.92 17.31 4.93 17.3 4.94 17.29 4.95 17.27 4.95 17.29 4.95 17.3 Z M 4.53 15.84 4.51 15.86 4.5 15.85 4.5 15.85 4.5 15.83 4.54 15.76 4.56 15.75 4.57 15.79 4.56 15.83 4.55 15.84 4.53 15.84 Z M 798.55 15.84 798.56 15.87 798.49 15.89 798.47 15.89 798.44 15.88 798.43 15.88 798.42 15.86 798.44 15.85 798.44 15.85 798.44 15.84 798.45 15.83 798.46 15.83 798.49 15.84 798.5 15.84 798.49 15.81 798.46 15.77 798.46 15.75 798.51 15.74 798.53 15.75 798.54 15.79 798.55 15.84 Z M 4.19 15.73 4.18 15.73 4.16 15.73 4.13 15.74 4.13 15.74 4.14 15.77 4.18 15.8 4.22 15.82 4.25 15.81 4.24 15.86 4.2 15.85 4.12 15.81 4.1 15.79 4.11 15.75 4.14 15.71 4.21 15.71 4.19 15.73 Z M 3.37 15.4 3.34 15.43 3.3 15.43 3.28 15.39 3.29 15.34 3.31 15.3 3.34 15.3 3.37 15.34 3.37 15.4 Z M 795.41 15.3 795.43 15.33 795.5 15.33 795.52 15.36 795.54 15.36 795.62 15.38 795.64 15.39 795.66 15.41 795.67 15.46 795.67 15.49 795.62 15.51 795.59 15.54 795.57 15.52 795.55 15.52 795.51 15.51 795.52 15.53 795.52 15.54 795.51 15.56 795.49 15.57 795.46 15.56 795.41 15.56 795.36 15.56 795.32 15.57 795.33 15.55 795.33 15.52 795.34 15.51 795.32 15.52 795.3 15.52 795.29 15.52 795.28 15.51 795.29 15.5 795.3 15.48 795.31 15.48 795.25 15.46 795.19 15.48 795.1 15.55 795.06 15.56 795.03 15.56 795 15.57 794.99 15.59 794.99 15.64 794.99 15.65 794.97 15.62 794.95 15.63 794.95 15.66 794.95 15.68 794.97 15.69 795 15.7 795.01 15.72 795 15.77 795 15.79 794.98 15.8 794.96 15.81 794.94 15.81 794.93 15.8 794.92 15.78 794.93 15.72 794.9 15.75 794.88 15.75 794.85 15.75 794.83 15.77 794.82 15.79 794.8 15.81 794.77 15.81 794.74 15.81 794.68 15.78 794.65 15.78 794.6 15.81 794.57 15.81 794.56 15.78 794.55 15.78 794.53 15.79 794.51 15.78 794.48 15.77 794.46 15.75 794.53 15.69 794.57 15.67 794.61 15.69 794.63 15.67 794.64 15.62 794.66 15.6 794.68 15.59 794.71 15.59 794.83 15.62 794.85 15.62 794.87 15.6 794.87 15.58 794.88 15.56 794.9 15.54 794.93 15.56 794.95 15.54 794.96 15.5 794.96 15.46 794.99 15.41 795.07 15.38 795.16 15.38 795.22 15.4 795.24 15.34 795.25 15.33 795.29 15.33 795.3 15.32 795.3 15.31 795.31 15.3 795.33 15.3 795.35 15.3 795.37 15.31 795.39 15.31 795.41 15.3 Z M 1.42 15.3 1.47 15.36 1.43 15.43 1.41 15.36 1.36 15.35 1.32 15.38 1.33 15.42 1.35 15.47 1.31 15.48 1.28 15.45 1.3 15.39 1.3 15.39 1.33 15.29 1.42 15.3 Z M 795.76 15.24 795.75 15.26 795.72 15.26 795.71 15.28 795.69 15.3 795.67 15.3 795.61 15.26 795.62 15.23 795.64 15.2 795.64 15.18 795.67 15.16 795.71 15.15 795.75 15.15 795.73 15.19 795.75 15.21 795.76 15.22 795.76 15.24 Z M 3.41 15.21 3.39 15.21 3.37 15.2 3.4 15.18 3.42 15.16 3.45 15.15 3.48 15.14 3.47 15.15 3.46 15.17 3.45 15.18 3.44 15.19 3.42 15.2 3.41 15.21 Z M 4.35 14.71 4.33 14.72 4.31 14.72 4.31 14.72 4.29 14.69 4.3 14.66 4.33 14.65 4.35 14.67 4.36 14.69 4.35 14.71 Z M 798.76 14.6 798.78 14.62 798.81 14.6 798.82 14.6 798.82 14.63 798.78 14.66 798.78 14.71 798.74 14.72 798.72 14.68 798.72 14.64 798.69 14.62 798.67 14.6 798.63 14.58 798.62 14.55 798.67 14.53 798.75 14.5 798.84 14.48 798.87 14.48 798.89 14.5 798.89 14.51 798.88 14.53 798.82 14.55 798.8 14.57 798.76 14.6 Z M 3.74 13.79 3.67 13.79 3.65 13.79 3.63 13.78 3.62 13.77 3.61 13.76 3.56 13.73 3.6 13.67 3.68 13.63 3.73 13.67 3.73 13.67 3.77 13.7 3.78 13.74 3.77 13.78 3.74 13.79 Z M 3.15 13.25 3.11 13.26 3.09 13.25 3.06 13.22 3.04 13.17 3.08 13.14 3.11 13.15 3.15 13.17 3.15 13.22 3.15 13.25 Z M 797.48 13.13 797.53 13.22 797.55 13.24 797.58 13.3 797.59 13.42 797.56 13.51 797.49 13.47 797.47 13.45 797.46 13.38 797.44 13.36 797.4 13.31 797.39 13.28 797.38 13.24 797.37 13.27 797.37 13.31 797.37 13.33 797.35 13.33 797.34 13.32 797.33 13.25 797.33 13.19 797.33 13.18 797.3 13.15 797.3 13.12 797.32 13.14 797.34 13.14 797.39 13.1 797.4 13.1 797.41 13.11 797.44 13.11 797.48 13.13 Z M 4.83 13.16 4.77 13.17 4.72 13.15 4.65 13.13 4.64 13.06 4.68 12.99 4.78 12.99 4.81 13 4.85 13.03 4.89 13.06 4.9 13.1 4.88 13.14 4.83 13.16 Z M 797.74 12.89 797.72 12.92 797.71 12.9 797.69 12.87 797.68 12.84 797.66 12.82 797.65 12.79 797.66 12.76 797.7 12.78 797.74 12.79 797.74 12.8 797.74 12.81 797.72 12.82 797.73 12.83 797.74 12.85 797.74 12.88 797.74 12.89 Z M 2.59 12.71 2.56 12.75 2.5 12.74 2.47 12.71 2.48 12.67 2.51 12.64 2.56 12.63 2.6 12.67 2.59 12.71 Z M 796.29 12.73 796.29 12.74 796.29 12.75 796.28 12.76 796.26 12.74 796.25 12.75 796.24 12.75 796.22 12.74 796.2 12.73 796.16 12.65 796.15 12.61 796.18 12.64 796.21 12.69 796.26 12.72 796.29 12.73 Z M 796.31 12.67 796.27 12.69 796.25 12.65 796.24 12.61 796.21 12.52 796.23 12.46 796.29 12.42 796.3 12.41 796.34 12.4 796.38 12.42 796.4 12.48 796.41 12.51 796.41 12.54 796.42 12.57 796.41 12.6 796.4 12.62 796.39 12.65 796.33 12.66 796.31 12.67 Z M 796.87 12.48 796.86 12.48 796.85 12.46 796.83 12.44 796.82 12.42 796.8 12.41 796.78 12.38 796.78 12.35 796.8 12.34 796.83 12.36 796.84 12.38 796.87 12.45 796.87 12.48 Z M 2.91 12.07 2.87 12.07 2.83 12.04 2.83 12 2.85 11.97 2.89 11.97 2.92 11.99 2.93 12.04 2.91 12.07 Z M 2.93 11.64 2.91 11.66 2.89 11.66 2.87 11.63 2.87 11.59 2.89 11.58 2.92 11.59 2.93 11.62 2.93 11.64 Z M 797.71 11.86 797.65 11.91 797.63 11.9 797.63 11.76 797.63 11.73 797.62 11.7 797.6 11.67 797.61 11.64 797.61 11.61 797.62 11.58 797.71 11.57 797.73 11.56 797.75 11.57 797.78 11.58 797.78 11.6 797.79 11.67 797.78 11.73 797.77 11.78 797.74 11.82 797.71 11.86 Z M 3.26 11.68 3.25 11.72 3.22 11.7 3.22 11.66 3.25 11.61 3.28 11.59 3.27 11.56 3.28 11.55 3.3 11.54 3.31 11.53 3.31 11.5 3.3 11.49 3.28 11.47 3.26 11.46 3.21 11.45 3.19 11.44 3.18 11.42 3.18 11.38 3.17 11.36 3.2 11.37 3.22 11.4 3.25 11.42 3.29 11.42 3.37 11.45 3.4 11.48 3.41 11.51 3.38 11.58 3.38 11.59 3.34 11.6 3.29 11.64 3.26 11.68 Z" fill-rule="evenodd" id="FJI-2618" data-name="Eastern"/>
<path d="M 795.22 10.57 795.25 10.57 795.31 10.57 795.3 10.62 795.31 10.64 795.31 10.65 795.25 10.65 795.21 10.66 795.19 10.64 795.19 10.56 795.2 10.56 795.22 10.57 Z M 798.87 11.03 798.84 11.03 798.82 11.03 798.81 10.99 798.77 10.96 798.76 10.93 798.77 10.89 798.79 10.87 798.85 10.83 798.93 10.72 798.94 10.69 798.95 10.65 799 10.56 799 10.55 799 10.95 799 10.95 798.98 10.97 798.96 11 798.93 11.02 798.9 11.03 798.87 11.03 Z M 1.28 10.73 1.28 10.73 1.26 10.73 1.24 10.74 1.11 10.82 1.04 10.88 1 10.95 1 10.56 1 10.56 1.02 10.52 1.19 10.35 1.23 10.33 1.27 10.32 1.3 10.32 1.32 10.35 1.34 10.41 1.35 10.45 1.35 10.47 1.38 10.49 1.4 10.51 1.41 10.52 1.4 10.54 1.32 10.62 1.3 10.66 1.29 10.68 1.28 10.73 Z M 798.82 10.27 798.74 10.27 798.78 10.25 798.79 10.25 798.8 10.25 798.8 10.21 798.81 10.21 798.83 10.21 798.86 10.2 798.88 10.18 798.89 10.16 798.9 10.21 798.88 10.24 798.86 10.26 798.82 10.27 Z M 795.95 10.08 795.93 10.11 795.91 10.12 795.88 10.13 795.84 10.13 795.82 10.13 795.82 10.12 795.81 10.12 795.87 10.08 795.89 10.1 795.91 10.1 795.93 10.09 795.95 10.08 Z M 799 10.01 798.98 10.02 798.97 10.02 798.97 10.01 798.97 9.99 798.97 9.96 799 9.9 799 9.9 799 9.96 799 10.01 799 10.01 Z M 1 10.01 1 9.9 1 9.9 1.02 9.87 1.08 9.83 1.09 9.8 1.11 9.8 1.2 9.77 1.23 9.77 1.23 9.78 1.21 9.78 1.2 9.79 1.2 9.8 1.21 9.81 1.21 9.83 1.2 9.83 1.19 9.84 1.18 9.84 1.16 9.84 1.15 9.85 1.14 9.87 1.14 9.89 1.16 9.9 1.17 9.92 1.14 9.95 1.11 9.97 1 10.01 Z M 797.62 9.56 797.58 9.57 797.55 9.56 797.51 9.55 797.51 9.54 797.59 9.54 797.62 9.54 797.65 9.55 797.62 9.56 Z M 798.79 9.33 798.77 9.34 798.75 9.38 798.73 9.39 798.7 9.42 798.69 9.44 798.69 9.45 798.67 9.46 798.64 9.51 798.55 9.63 798.51 9.66 798.51 9.71 798.48 9.77 798.42 9.83 798.37 9.86 798.32 9.87 798.11 10.01 798.1 10.02 798.09 10.04 798.07 10.07 798.07 10.1 798.07 10.13 798.07 10.17 798.05 10.2 798.02 10.22 797.97 10.26 797.94 10.27 797.93 10.29 797.91 10.33 797.89 10.34 797.86 10.35 797.84 10.36 797.87 10.38 797.87 10.42 797.87 10.46 797.84 10.5 797.86 10.51 797.9 10.49 797.94 10.47 797.97 10.48 798 10.51 798.03 10.49 798.08 10.43 798.11 10.42 798.13 10.42 798.16 10.4 798.19 10.39 798.2 10.37 798.2 10.34 798.23 10.33 798.25 10.32 798.27 10.31 798.27 10.3 798.28 10.27 798.29 10.27 798.3 10.26 798.32 10.26 798.33 10.25 798.35 10.23 798.37 10.17 798.39 10.15 798.41 10.14 798.43 10.14 798.45 10.13 798.45 10.11 798.46 10.09 798.48 10.08 798.51 10.07 798.59 10.02 798.63 9.99 798.65 9.95 798.67 9.94 798.79 9.89 798.8 9.87 798.81 9.86 798.82 9.85 798.83 9.84 798.87 9.84 798.87 9.85 798.87 9.87 798.9 9.92 798.89 9.94 798.87 9.96 798.86 9.98 798.83 10.04 798.76 10.18 798.75 10.19 798.76 10.21 798.76 10.22 798.75 10.22 798.72 10.22 798.71 10.22 798.66 10.28 798.72 10.29 798.76 10.31 798.78 10.35 798.79 10.4 798.82 10.4 798.86 10.41 798.89 10.43 798.89 10.47 798.87 10.48 798.84 10.47 798.77 10.45 798.78 10.46 798.79 10.5 798.8 10.51 798.77 10.5 798.76 10.5 798.72 10.52 798.7 10.51 798.69 10.48 798.69 10.45 798.62 10.45 798.58 10.43 798.56 10.4 798.51 10.42 798.47 10.42 798.42 10.41 798.39 10.4 798.37 10.41 798.33 10.44 798.31 10.45 798.28 10.45 798.26 10.45 798.25 10.47 798.24 10.5 798.23 10.47 798.23 10.47 798.21 10.47 798.19 10.51 798.11 10.56 798.07 10.6 798.04 10.57 797.99 10.57 797.9 10.59 797.83 10.59 797.79 10.6 797.75 10.62 797.68 10.59 797.62 10.59 797.44 10.6 797.44 10.6 797.47 10.58 797.48 10.55 797.5 10.52 797.54 10.51 797.57 10.49 797.56 10.47 797.56 10.43 797.54 10.42 797.47 10.4 797.41 10.36 797.37 10.34 797.36 10.35 797.33 10.35 797.16 10.41 797.12 10.44 797.06 10.5 797.07 10.53 797.06 10.56 797.03 10.59 797 10.6 796.93 10.58 796.88 10.64 796.83 10.8 796.88 10.76 796.91 10.76 796.95 10.77 796.93 10.79 796.87 10.84 796.84 10.86 796.83 10.86 796.8 10.85 796.71 10.82 796.68 10.81 796.67 10.79 796.67 10.77 796.66 10.76 796.62 10.75 796.61 10.73 796.6 10.72 796.6 10.69 796.58 10.69 796.58 10.74 796.55 10.72 796.53 10.71 796.5 10.72 796.48 10.74 796.39 10.81 796.38 10.83 796.36 10.92 796.34 10.94 796.32 10.95 796.31 10.96 796.34 10.98 796.26 11.03 796.26 11.04 796.19 11.05 796.16 11.04 796.13 11.03 796.1 11 796.08 10.94 796.06 10.87 796.05 10.81 796.03 10.76 795.99 10.72 795.96 10.67 795.98 10.6 795.93 10.59 795.91 10.57 795.9 10.54 795.77 10.61 795.7 10.62 795.64 10.57 795.65 10.57 795.65 10.56 795.66 10.56 795.63 10.54 795.63 10.51 795.64 10.5 795.66 10.51 795.67 10.51 795.67 10.47 795.69 10.43 795.76 10.37 795.76 10.42 795.78 10.4 795.79 10.38 795.8 10.36 795.83 10.37 795.84 10.34 795.86 10.29 795.87 10.25 795.82 10.28 795.79 10.27 795.77 10.25 795.75 10.21 795.83 10.18 795.86 10.18 795.87 10.19 795.9 10.22 795.92 10.24 795.94 10.24 796.01 10.25 796.08 10.29 796.1 10.3 796.13 10.29 796.14 10.28 796.14 10.27 796.16 10.25 796.28 10.15 796.31 10.14 796.33 10.16 796.34 10.22 796.37 10.21 796.38 10.19 796.37 10.14 796.38 10.11 796.45 10.02 796.45 10.04 796.46 10.06 796.46 10.07 796.48 10.06 796.49 10.05 796.49 10.03 796.49 10.01 796.51 10.01 796.53 10.04 796.56 10.02 796.58 9.98 796.61 9.96 796.63 9.95 796.62 9.92 796.61 9.89 796.6 9.86 796.61 9.86 796.63 9.87 796.64 9.87 796.66 9.83 796.68 9.83 796.7 9.85 796.71 9.86 796.74 9.85 796.8 9.83 796.9 9.82 797.02 9.78 797.09 9.77 797.15 9.77 797.18 9.77 797.18 9.76 797.2 9.73 797.21 9.72 797.22 9.71 797.26 9.71 797.28 9.7 797.32 9.7 797.38 9.71 797.44 9.72 797.48 9.69 797.51 9.72 797.53 9.71 797.55 9.69 797.58 9.67 797.59 9.68 797.61 9.71 797.62 9.72 797.64 9.72 797.65 9.71 797.66 9.71 797.68 9.72 797.67 9.68 797.66 9.65 797.64 9.63 797.62 9.61 797.64 9.59 797.66 9.58 797.69 9.59 797.71 9.6 797.72 9.56 797.74 9.52 797.77 9.5 797.8 9.52 797.81 9.48 797.82 9.45 797.83 9.42 797.86 9.4 797.94 9.41 797.97 9.39 797.94 9.36 797.97 9.36 797.99 9.37 798 9.39 798.01 9.42 798.03 9.34 798.04 9.31 798.05 9.34 798.07 9.35 798.1 9.36 798.12 9.37 798.14 9.35 798.16 9.35 798.17 9.36 798.18 9.39 798.18 9.35 798.19 9.34 798.2 9.34 798.22 9.34 798.23 9.33 798.24 9.32 798.24 9.3 798.24 9.3 798.25 9.3 798.26 9.3 798.27 9.31 798.28 9.31 798.32 9.31 798.34 9.31 798.35 9.29 798.36 9.27 798.41 9.25 798.48 9.22 798.49 9.25 798.5 9.3 798.51 9.33 798.54 9.32 798.59 9.27 798.62 9.27 798.64 9.27 798.65 9.29 798.64 9.3 798.62 9.31 798.64 9.32 798.67 9.32 798.68 9.33 798.71 9.29 798.79 9.23 798.8 9.21 798.96 9.14 799 9.14 799 9.14 799 9.19 799 9.19 798.86 9.31 798.84 9.32 798.81 9.32 798.79 9.33 Z M 1 9.19 1 9.14 1 9.14 1.03 9.12 1.06 9.1 1.14 9.08 1.11 9.13 1.08 9.16 1.05 9.17 1 9.19 Z" fill-rule="evenodd" id="FJI-2619" data-name="Northern"/>
<path d="M 787.09 21.45 787.07 21.47 787.02 21.44 787.01 21.41 787.02 21.38 787.06 21.38 787.09 21.4 787.1 21.43 787.09 21.45 Z M 793.8 14.45 793.82 14.55 793.79 14.53 793.76 14.49 793.74 14.45 793.73 14.41 793.72 14.38 793.73 14.36 793.76 14.32 793.77 14.33 793.77 14.33 793.78 14.34 793.79 14.34 793.8 14.36 793.8 14.39 793.8 14.45 Z M 795.56 12.25 795.56 12.27 795.56 12.36 795.54 12.46 795.53 12.49 795.51 12.5 795.49 12.51 795.47 12.5 795.42 12.48 795.4 12.47 795.38 12.47 795.37 12.46 795.32 12.47 795.3 12.46 795.28 12.46 795.23 12.42 795.21 12.41 795.19 12.41 795.19 12.42 795.18 12.42 795.18 12.44 795.18 12.44 795.18 12.45 795.17 12.47 795.15 12.48 795.11 12.49 795.04 12.51 794.92 12.51 794.88 12.51 794.84 12.5 794.82 12.49 794.8 12.47 794.78 12.45 794.73 12.36 794.68 12.31 794.66 12.3 794.64 12.29 794.62 12.3 794.62 12.32 794.62 12.34 794.64 12.38 794.64 12.4 794.64 12.42 794.63 12.45 794.6 12.49 794.59 12.51 794.58 12.53 794.58 12.66 794.58 12.67 794.58 12.68 794.59 12.68 794.6 12.68 794.61 12.67 794.62 12.67 794.69 12.6 794.71 12.58 794.73 12.56 794.75 12.56 794.76 12.55 794.78 12.56 794.79 12.57 794.79 12.59 794.78 12.61 794.77 12.63 794.74 12.65 794.7 12.67 794.65 12.71 794.55 12.82 794.54 12.83 794.53 12.86 794.53 12.88 794.52 12.9 794.51 12.91 794.5 12.93 794.5 12.94 794.51 12.96 794.53 12.97 794.55 12.99 794.55 13.01 794.54 13.04 794.54 13.06 794.54 13.07 794.55 13.09 794.56 13.1 794.58 13.11 794.58 13.13 794.58 13.14 794.56 13.21 794.54 13.22 794.52 13.23 794.47 13.25 794.44 13.25 794.42 13.25 794.25 13.2 794.23 13.2 794.2 13.2 794.16 13.21 794.14 13.23 794.12 13.25 794.11 13.29 794.1 13.32 794.06 13.36 794.06 13.37 794.05 13.39 794.06 13.41 794.07 13.46 794.08 13.47 794.08 13.48 794.1 13.49 794.11 13.49 794.16 13.49 794.18 13.5 794.18 13.51 794.18 13.52 794.13 13.59 794.12 13.61 794.12 13.62 794.11 13.68 794.1 13.71 794.09 13.74 794.09 13.74 793.9 13.69 793.84 13.69 793.78 13.67 793.66 13.62 793.61 13.62 793.54 13.59 793.51 13.59 793.4 13.6 793.38 13.59 793.36 13.58 793.34 13.57 793.33 13.56 793.32 13.55 793.16 13.51 793.09 13.48 793.05 13.41 793.03 13.43 793.02 13.4 793.02 13.36 793.02 13.33 793.01 13.32 793 13.31 792.99 13.3 792.98 13.27 792.97 13.25 792.93 13.23 792.93 13.22 792.94 13.2 792.93 13.18 792.92 13.16 792.91 13.14 792.91 13.12 792.94 13.09 792.95 13.06 792.95 13.03 792.94 13.02 792.93 13 792.92 12.98 792.94 12.94 792.98 12.92 793.08 12.91 793.14 12.89 793.15 12.88 793.17 12.86 793.18 12.84 793.17 12.82 793.17 12.8 793.17 12.72 793.17 12.69 793.18 12.69 793.19 12.69 793.27 12.71 793.29 12.71 793.31 12.69 793.31 12.68 793.31 12.66 793.3 12.64 793.3 12.62 793.29 12.58 793.29 12.55 793.28 12.53 793.27 12.52 793.25 12.52 793.23 12.5 793.21 12.45 793.24 12.43 793.28 12.41 793.3 12.37 793.31 12.36 793.36 12.34 793.38 12.33 793.39 12.31 793.39 12.28 793.39 12.26 793.41 12.24 793.44 12.27 793.46 12.26 793.47 12.24 793.46 12.21 793.47 12.18 793.49 12.15 793.51 12.14 793.53 12.17 793.55 12.17 793.64 12.09 793.73 12.04 793.74 12.03 793.74 12.02 793.74 12.01 793.75 12 793.77 12 793.78 12 793.8 12.01 793.8 12.01 793.8 12.01 793.78 12.03 793.79 12.07 793.81 12.11 793.82 12.13 793.83 12.12 793.82 12.09 793.81 12.07 793.81 12.04 793.82 12.01 793.84 12 793.91 11.96 793.92 11.96 794.01 11.98 794.02 11.97 794.03 11.95 794.04 11.92 794.05 11.91 794.06 11.9 794.08 11.89 794.1 11.88 794.14 11.87 794.15 11.86 794.15 11.85 794.18 11.84 794.19 11.84 794.2 11.84 794.2 11.87 794.2 11.89 794.19 11.92 794.18 11.94 794.17 11.95 794.2 11.96 794.23 11.95 794.26 11.92 794.29 11.89 794.34 11.92 794.4 11.93 794.47 11.92 794.52 11.91 794.58 11.88 794.61 11.86 794.63 11.84 794.66 11.82 794.71 11.82 794.75 11.8 794.82 11.81 794.9 11.8 794.97 11.76 794.99 11.7 795.04 11.71 795.1 11.74 795.15 11.77 795.17 11.81 795.18 11.84 795.2 11.88 795.2 11.91 795.19 11.93 795.13 11.99 795.11 12.01 795.13 12.03 795.14 12.04 795.13 12.06 795.11 12.07 795.14 12.07 795.2 12 795.24 11.98 795.29 11.99 795.34 12.01 795.37 12.03 795.4 12.07 795.4 12.09 795.4 12.12 795.4 12.13 795.41 12.14 795.45 12.17 795.45 12.18 795.46 12.19 795.55 12.25 795.56 12.25 Z M 792.68 11.57 792.71 11.62 792.7 11.62 792.69 11.63 792.69 11.64 792.66 11.68 792.63 11.71 792.6 11.72 792.57 11.7 792.57 11.66 792.58 11.63 792.58 11.61 792.56 11.59 792.56 11.57 792.62 11.6 792.64 11.59 792.68 11.57 Z M 793 11.19 792.99 11.22 792.97 11.24 792.95 11.28 792.89 11.32 792.88 11.36 792.87 11.35 792.86 11.35 792.85 11.34 792.85 11.33 792.83 11.34 792.81 11.36 792.8 11.38 792.8 11.41 792.74 11.39 792.74 11.38 792.76 11.38 792.77 11.38 792.76 11.35 792.76 11.32 792.76 11.3 792.78 11.28 792.8 11.28 792.81 11.25 792.81 11.23 792.82 11.21 792.83 11.19 792.88 11.16 792.9 11.15 792.9 11.16 792.93 11.2 792.94 11.21 792.95 11.21 792.96 11.19 792.98 11.13 793 11.16 793 11.19 Z M 793.24 10.88 793.23 10.89 793.22 10.88 793.2 10.86 793.18 10.81 793.19 10.79 793.24 10.77 793.23 10.73 793.25 10.72 793.3 10.73 793.33 10.74 793.27 10.79 793.24 10.81 793.27 10.83 793.27 10.85 793.26 10.86 793.24 10.88 Z M 793.44 10.59 793.41 10.62 793.39 10.66 793.37 10.65 793.36 10.65 793.35 10.66 793.34 10.67 793.32 10.68 793.3 10.66 793.3 10.65 793.32 10.59 793.32 10.57 793.33 10.57 793.36 10.6 793.4 10.58 793.49 10.5 793.59 10.41 793.62 10.36 793.59 10.31 793.64 10.32 793.66 10.33 793.67 10.36 793.65 10.4 793.64 10.43 793.6 10.45 793.59 10.47 793.58 10.48 793.44 10.59 Z" fill-rule="evenodd" id="FJI-2620" data-name="Western"/>
<path d="M 792.63 1.02 792.64 1.06 792.6 1.08 792.55 1.09 792.51 1.09 792.48 1.08 792.45 1.07 792.41 1.07 792.38 1.08 792.36 1.04 792.36 1.03 792.4 1.04 792.42 1.04 792.48 1 792.52 1.01 792.6 1.01 792.63 1.02 Z" id="FJI-2658" data-name="Rotuma"/>
</g>
</svg>