<?xml version="1.0"?>
<svg xmlns="http://www.w3.org/2000/svg" version="1.2" baseProfile="tiny" width="800" height="2162" viewBox="0 0 800 2162" stroke-linecap="round" stroke-linejoin="round">
<g id="ne_10m_admin_1_states_provinces">
<path d="M 4.92 2161.44 3.9 2161.44 2.09 2160.27 1 2158.58 1.34 2157 2.85 2156.69 5.81 2157.65 7.76 2159.26 6.56 2160.58 4.92 2161.44 Z M 289.05 1773.46 291.89 1773.56 309.96 1770.24 312.9 1771.02 315.29 1772.81 317.8 1774.24 319.82 1776.23 320.61 1779.73 315.86 1782.61 313.65 1785.26 314.97 1788.53 318.32 1789.77 321.51 1788.45 324.7 1786.27 328.03 1785.18 331.96 1785.8 337.6 1788.76 340.18 1789.54 344.92 1788.45 346.8 1785.1 348.65 1780.72 353.25 1776.47 356.52 1775.01 360.63 1773.9 364.91 1773.51 368.68 1774.29 372.16 1776.7 373.35 1779.19 373.04 1784.17 370.29 1786.97 352.16 1799.5 351.02 1802.24 351.54 1805.64 352.63 1809.22 353.25 1812.57 352.09 1816.35 349.25 1818.53 345.65 1819.62 342.17 1820.19 335.28 1818.71 332.05 1816.07 326.94 1806.91 322.75 1803.13 307.57 1796.02 305.17 1798.41 297.27 1794.05 292.76 1792.39 288.78 1791.72 285.76 1790.11 277.89 1779.73 273.31 1771.1 276.35 1763.34 283.72 1757.48 292.13 1754.73 288.16 1759.27 283.11 1763.34 280.96 1767.49 285.6 1772.11 289.05 1773.46 Z" fill-rule="evenodd" id="TON-4945" data-name="Tongatapu"/>
<path d="M 504.15 1038.97 499.9 1039.26 496.61 1034.12 497.53 1029.5 501.23 1027.17 506.25 1029.01 508.5 1032.9 507.41 1036.56 504.15 1038.97 Z M 735.58 971.9 735.29 978.52 732.8 981.73 726.71 974.99 723.25 976.55 721.44 978.47 721.75 980.85 724.52 983.7 721.88 986.84 720.17 990.19 715.7 989.25 712.73 992.57 711.25 998.02 711.26 1003.47 707.28 1001.34 705.08 997.71 702.77 990.19 707.88 988.24 708.14 984.51 706.19 980.9 704.75 979.35 701.14 982.33 700.09 987.08 698.65 990.14 693.86 988.06 693.55 989.83 692.62 990.19 691.18 990.08 689.31 990.19 685.15 980.77 691.18 976.03 700.14 971.52 704.75 962.91 706.93 960.7 712.04 959.53 717.86 959.17 722.16 959.53 726.97 961.3 729.2 963.35 731.21 965.71 735.21 968.46 735.58 971.9 Z" fill-rule="evenodd" id="TON-4946" data-name="Vava&apos;u"/>
<path d="M 795.38 129.58 790.71 133.97 785.73 133.91 783.08 130.57 783.23 128.18 786.55 125.3 793.22 122.17 797.41 119.65 799 119.73 798.81 124.08 795.38 129.58 Z M 192.69 14.38 185.89 21.64 176.41 20.76 170.87 14.64 171.8 8.21 178.04 3.07 188.38 1 194.34 5.41 192.69 14.38 Z" fill-rule="evenodd" id="TON-4947" data-name="Niuas"/>
<path d="M 606.22 1358.51 600.11 1359.34 597.67 1358.14 595.71 1356.74 594.21 1355.03 593.18 1352.8 597.5 1351.35 600.86 1348.47 603.2 1344.4 604.47 1339.52 606.04 1339.84 609.52 1341.13 610.78 1341.91 608.25 1347.51 607.82 1353.79 606.22 1358.51 Z M 374.33 1346.37 370.67 1352.8 370.67 1350.42 368.68 1352.8 367.1 1350.96 365.43 1349.9 361.76 1348.45 362.01 1348.32 361.64 1347.51 361.76 1346.27 357.87 1336.36 357.6 1333.2 358.76 1327.13 360.68 1324.53 363.55 1324.12 367.49 1324.33 372.57 1328.09 374.91 1336.8 374.33 1346.37 Z M 621.67 1336.15 616.62 1336.62 611.95 1334.54 610.79 1331.02 616.41 1328.06 619.6 1323.89 622.22 1319.5 626.21 1315.61 627.89 1320.28 626.93 1324.38 625.06 1328.24 624.03 1332.11 621.67 1336.15 Z M 630.49 1303.37 628.82 1305.76 624.03 1304.72 620.55 1300 616.33 1292.17 614.87 1286.31 619.69 1287.32 621.32 1289.99 622.92 1296.97 625.12 1298.37 629.22 1300.08 630.49 1303.37 Z" fill-rule="evenodd" id="TON-4948" data-name="Ha&apos;apai"/>
<path d="M 416.74 1827.89 418.72 1839.75 418.56 1844.57 416.74 1856.34 417 1876.31 414.98 1879.53 410.01 1876.75 407.99 1871.9 403.94 1868.01 394.79 1861.53 394.79 1859.35 396.05 1858.89 399.14 1857.15 397.28 1853.7 396.94 1849.37 398.57 1845.66 404.91 1843.07 406.94 1840.63 410.01 1835.39 410.75 1833.42 413.11 1828.67 415.57 1825.43 416.74 1827.89 Z" id="TON-4949" data-name="&apos;Eua"/>
</g>
</svg>