<?xml version="1.0"?>
<svg xmlns="http://www.w3.org/2000/svg" version="1.2" baseProfile="tiny" width="800" height="588" viewBox="0 0 800 588" stroke-linecap="round" stroke-linejoin="round">
<g id="ne_10m_admin_1_states_provinces">
<path d="M 442.11 453.95 448.37 454.23 454.9 453.78 426.71 466.1 426.71 469.71 478.32 466.81 493.84 476.56 529.76 479.13 542.53 485.65 543.91 493.48 537.45 498.13 527.91 499.06 520.25 495.78 513.06 491.39 503.43 489.31 494.62 489.88 490.04 493.62 501.34 495.07 508.15 499.98 512.87 505.63 518.26 509.52 524.07 510.09 536.84 508.62 542.53 509.52 548.27 512.94 550.65 516.64 548.89 519.77 542.53 521.84 542.53 525.83 566.78 531.95 564.67 536.93 559.43 537.81 552.74 537.14 546.14 537.38 526.16 542.74 515.98 543.36 502.71 541.37 502.71 545.73 509.36 546.47 515.05 548.53 519.42 552.24 522.24 557.69 528.96 551.05 539.26 548.91 562.46 549.72 561.04 551.88 558.43 557.69 571.29 560.3 580.05 568.82 582.9 578.79 577.98 585.91 564.67 586.98 551.74 581.07 530.22 565.62 477.28 541.63 452.19 524.33 454.9 509.52 439.5 500.48 421.51 486.67 408.13 472.32 406.42 461.76 403.76 458.93 398.49 450.15 410.41 450.15 409.12 448.02 408.91 447.45 406.42 445.83 427.85 438.98 438.1 438.26 446.62 442.23 434.85 448.49 430.69 450.15 436.22 452.72 442.11 453.95 Z M 468.87 292.61 480.64 293.77 499.3 292.3 506.32 293.77 511.83 296.74 520.08 303.72 526.59 305.71 570.94 311.76 577.98 315.89 581.83 324.15 598.72 332.26 602.61 337.96 594.5 344.15 590.58 348.12 592.51 349.92 593.79 353 592.51 369.78 589.73 371.66 585.48 375.76 580.17 379.87 574.38 381.74 570.25 380.1 532.23 342.16 524.4 337.96 470.96 333.36 461.59 331.48 453.83 327.33 450.56 319.88 448.06 309.7 435.51 295.53 430.69 286.21 444.15 287.37 468.87 292.61 Z M 58.09 177.07 50.83 177.57 3.02 175.41 1 171.24 16.69 166.89 33.72 166.49 50.24 170.81 58.24 174.27 63.65 176.03 58.09 177.07 Z M 283.26 156.33 292.59 165.9 298.57 170 313.07 172.45 328.47 171.99 342.85 173.47 354.31 181.96 347.1 189.41 341.78 196.96 334.76 202.99 322.42 205.83 311.98 204.88 302.44 202.7 292.94 202.13 282.65 205.83 287.3 207.9 292.09 209.32 297.26 210.03 302.91 210.18 268.84 218.15 258.77 222.14 263.76 215.8 266.37 213.81 262.33 205.69 255.69 198.52 247.53 195.01 238.84 197.86 243.68 199.78 250.87 203.79 256.16 208.82 255.12 213.81 248.95 214.47 222.94 205.83 186.68 202.2 163.1 194.3 154.89 193.87 154.89 189.93 210.56 189.93 197.55 185.12 182.55 181.44 152.89 178.31 137.11 171.99 126.15 158.71 124.99 147.22 138.94 146.11 159.68 156.1 166.8 158.07 171.14 158.49 184.69 158.07 189.25 156.81 190.72 154.08 191.19 151.35 192.85 150.09 199.59 148.79 209.8 143.09 250.75 138.13 250.75 141.76 246.81 141.76 246.81 146.11 269.4 153.49 276.86 154.44 283.26 156.33 Z M 769.67 89.51 760.46 91.15 750.76 90.27 743.85 84.39 737.8 76.7 735.69 70.22 742.62 65.69 752.44 63.41 772.38 53.96 789.94 54.2 799 57.1 798.38 60.85 781.3 69.29 785.14 75.27 785.21 80.68 782.48 84.34 777.22 87.38 769.67 89.51 Z M 265.7 52.97 268.41 53.54 271.21 53.35 274.63 54.15 314.59 58.66 334.3 64.36 342.71 72.28 350.13 86.45 378.28 112.81 378.18 126.2 397.78 129.31 431.12 142.97 460.59 147.39 465.7 150.8 466.26 155.86 462.56 162.05 457.01 166.32 449.27 170.1 441.21 172.8 434.68 173.99 485.72 172.85 494.41 180.13 502.57 188.89 505.32 195.08 500.53 197.86 466.5 197.86 466.5 202.2 487.15 206.62 526.59 206.17 542.53 213.81 536.36 220.97 531.76 230.51 532.99 238.82 552.28 244.09 551.17 248.97 548.18 256.52 550.5 266.27 531.5 269.67 513.7 260.65 496.88 248.5 460.1 236.68 429.06 211.53 408.41 205.83 400.08 204.48 394.65 200.42 391.75 193.64 390.83 184.12 387.06 178.78 378.01 173.13 367.31 168.39 358.65 165.64 312.83 162.05 302.63 159.49 296.69 153.94 297.26 148.41 306.54 146.11 301.53 139.13 293.56 139.87 284.19 143.76 274.63 146.11 268.41 144.75 252.03 137.56 246.81 134.15 241.31 130.75 239.48 128.57 238.84 124.2 240.22 117.94 243.54 116.35 247.43 116.18 250.75 114.24 253.98 106.24 254.5 100.26 257.07 96.2 266.37 94 255.26 85.38 255.29 73.14 262.69 50.17 265.7 52.97 Z M 442.25 46.18 444.77 52.14 434.56 56.27 421.32 59.9 414.77 64.31 415.01 74.09 416.72 81.97 421.44 88.42 430.69 94 424.83 76.22 427.42 69.29 470.84 62.08 485.22 62.53 494.41 70.08 489.8 70.65 478.84 74.42 524.4 78.05 529.95 80.78 525.11 86.66 514.58 92.26 502.71 94 502.71 98.34 509.45 99.41 520.51 104.7 526.59 106.26 531.35 105.81 542.44 102.68 548.32 101.95 580.21 107.52 604.89 115.61 606.7 119.34 598.98 121.5 584.3 122.21 549.29 119.84 538.54 122.21 538.54 126.2 609.88 144.18 630.85 154.44 600.48 152.49 570.39 146.11 570.39 150.09 583.2 151.4 595.07 155.81 614.57 165.64 614.57 170 604.04 169.24 592.03 170.03 581.26 172.87 574.38 178.31 576.92 179.42 579.45 181.13 582.33 181.96 582.33 186.26 577.41 188.7 575.21 191.1 575.47 193.94 577.98 197.86 556.63 190.84 550.88 178.71 550.72 164.16 546.14 150.09 535.98 139.58 520.37 127.67 502.71 120.03 486.39 122.21 500.06 129.8 517.4 137.07 532.35 146.84 538.54 162.05 528.1 174.65 504.45 165.59 458.53 138.13 434.82 138.84 428.7 136.14 425.07 133.58 412.83 127.43 408.41 126.2 401.44 123.06 364.8 93.85 344.53 64.31 339.57 60.8 332.9 57.55 327.64 54.15 326.76 50.17 331.67 46.09 337.79 46.73 344.44 49.12 350.65 50.17 363.33 47.6 384.56 39.87 411.26 37.12 418.38 38.26 424.41 40.58 429.53 43.38 434.99 45.61 442.25 46.18 Z M 734.38 82.04 723.49 90.98 705.27 92.29 686.57 88.47 674.28 82.04 670.29 86.38 691.96 100.62 703.32 105.27 714.45 101.95 716.18 112.15 718.22 115.49 722.42 118.27 722.42 122.21 712.67 125.46 700.81 126.86 689.32 125.44 680.45 120.22 664.48 104.32 655.34 99.76 646.4 101.95 658.9 121.78 664.17 128.02 666.4 132.13 662.46 132.27 656.93 130.75 651.12 128.31 649.53 126.39 648.37 124.25 646.4 122.21 626.68 109.23 619.98 100.33 622.55 90.37 626.63 86.81 628.88 87.19 630.45 89.18 632.66 90.37 637.28 89.58 638.21 87.33 638.26 84.05 640.27 80.04 641.41 75.04 639.73 58.97 638.45 54.15 631.33 42.17 626.44 31.42 629.45 22.95 646.4 17.97 642.05 22.31 658.38 45.23 678.31 61.53 703.13 73.19 734.38 82.04 Z M 621.76 78.05 613.15 81.32 600.48 78.33 588.71 70.29 582.92 64.74 567.16 46.42 560.76 32.99 562.8 20.13 572.43 15.4 581.9 19.89 587.02 28.36 612.11 55.91 618.51 64.6 621.17 69.44 621.76 78.05 Z M 584.67 94.54 575.75 95.73 565.22 92.86 556.84 86.52 552.21 77.08 546.38 68.44 542.25 64.74 530.71 56.27 515.29 42.53 511.11 37.69 500.74 22.95 499.68 14.76 505.47 12.27 513.53 15.69 521.32 22.45 537.41 41.86 578.03 79.64 581.83 82.11 587.1 88.42 584.67 94.54 Z M 694.59 44.57 697.91 48.29 704.13 47.56 710.54 43.59 717.51 43.38 721.21 44.66 725.68 47.01 729.71 52.92 726.91 58.05 723.11 62.03 712.74 64.31 694.07 61.04 676.72 52.85 662.84 41.32 654.2 31.56 648.74 16.76 641.25 13.13 635.65 5.65 643.43 1 657.14 3.09 665.55 7.6 671.31 14.98 675.8 23.5 682.96 29.9 691.32 35.46 694.66 40.58 694.59 44.57 Z" fill-rule="evenodd" id="FRO-1443" data-name="Eysturoyar"/>
</g>
</svg>