<?xml version="1.0"?>
<svg xmlns="http://www.w3.org/2000/svg" version="1.2" baseProfile="tiny" width="800" height="806" viewBox="0 0 800 806" stroke-linecap="round" stroke-linejoin="round">
<g id="ne_10m_admin_1_states_provinces">
<path d="M 639.59 801.58 639.4 801.83 639.11 801.8 638.11 801.11 637.75 801.09 637.5 800.99 637.27 800.83 636.96 800.68 636.63 800.6 636.05 800.53 635.79 800.39 635.79 800.25 636.72 800.06 637.58 800.16 638.68 800.97 639.35 801.31 639.59 801.58 Z M 612.76 796.62 613.13 796.64 613.8 796.51 613.95 796.59 613.88 796.93 613.69 797.21 613.42 797.35 613.08 797.35 612.71 797.2 611.65 797.2 611.15 797.12 610.68 796.93 611.09 796.48 611.32 796.37 611.69 796.34 612.06 796.4 612.76 796.62 Z M 631.71 793.73 631.34 794.08 630.61 793.9 630.3 794 629.99 794.04 629.7 793.97 629.44 793.75 631.71 792.94 632.47 792.89 632.47 793.03 632 793.25 631.71 793.73 Z M 625.09 788.09 624.83 788.41 626.57 788.19 626.86 788.19 626.75 788.5 626.5 788.82 626.21 789.11 625.99 789.28 625.25 789.65 624.97 789.91 625.05 790.22 625.24 790.61 624.98 790.82 624.51 790.96 624.75 791.16 622.88 791.68 622.53 791.52 622.53 790.43 622.47 790.15 622.27 789.56 622.24 789.41 622.38 789.18 622.59 789.03 622.83 788.91 623.02 788.77 623.75 788.05 624.19 787.71 624.78 787.43 625.42 787.25 625.99 787.25 625.75 787.7 625.09 788.09 Z M 622.96 786.68 623.06 787.12 623.29 787.1 623.39 787.18 623.33 787.38 623.18 787.47 622.99 787.55 622.8 787.69 622.6 787.98 622.29 788.6 621.94 789.04 621.69 789.24 621.43 789.34 621.22 789.28 621.08 789.09 621.14 789.02 621.39 788.29 621.37 788.26 621.62 787.72 622 787.19 622.46 786.79 622.96 786.68 Z M 628.38 787.22 628.01 787.25 627.6 787.09 627.22 786.84 626.9 786.51 626.71 786.09 627.41 786.1 628.43 786.65 629.14 786.68 628.98 786.96 628.71 787.13 628.38 787.22 Z M 617.83 785.45 616.26 787.46 616.57 787.25 616.87 787.03 617.36 786.93 617.9 787.11 617.64 786.39 618.35 786.17 618.62 786.68 619.76 785.28 621.37 784.52 621.86 784.57 622.17 784.91 621.43 785.32 620.49 785.66 621.07 786.14 621.65 785.66 621.64 786.45 620.95 787.18 619.89 787.72 619.34 788.56 619.93 788.25 620.54 787.99 619.96 789.13 618.66 789.91 618.35 790.69 618.19 791.6 618.92 791.81 619.63 792.03 619.39 790.52 620.42 789.55 621.22 789.87 621.75 790.61 621.85 791.37 621.95 792.02 622.71 792.25 623.39 792 625.61 791.4 627.42 790 627.69 790.32 627.83 790.72 627.64 791.15 627.41 791.35 627.72 791.57 628.12 791.4 629.17 789.6 630.61 788.69 630.6 789.27 630.79 789.82 631.17 790 630.45 790.29 630.16 790.72 631.21 790.7 632.04 791.01 631.38 791.29 630.45 791.6 631.76 791.81 631.76 792.31 630.56 792.5 629.37 792.6 628.89 792.45 628.4 792.31 626.62 792.09 625.35 792.86 624.77 793.21 624.14 793.57 624.45 793.81 625.02 793.57 625.6 793.29 627.04 792.58 628.14 792.89 627.19 793.26 626.22 793.54 627.58 793.83 627.41 794.22 628.14 794.33 628.64 794.74 629.44 794.75 629.44 794.83 629.44 794.9 628.13 795.04 626.86 795.48 628.64 795.38 630.43 795.27 632.02 795.04 633.48 794.9 632.17 795.68 630.45 796.05 631.86 796.2 633.19 796.15 634.01 795.62 634.79 795.05 634.88 795.43 635.08 795.76 635.66 795.14 636.32 794.76 636.25 794.39 636.17 794.1 636.63 794 637.1 794.03 637.09 793.64 637.53 793.49 638.02 793.38 638.32 793.05 639.1 792.79 639.92 792.53 641.15 792.24 642.44 792.6 642.36 792.83 642.27 793.05 643.34 793 644.21 792.48 645 791.3 646.33 790.83 647.85 790.88 649.3 791.24 650.25 791.71 650.39 792.75 650.81 793.55 651.23 794.31 650.96 795.31 650.28 796.17 649.02 797.2 647.5 797.04 646.82 796.81 646.33 797.1 646.23 797.47 645.81 797.66 647.55 798.2 649.08 798.94 647.16 798.76 645.33 798.94 644.38 797.27 642.2 796.83 641.39 797.01 640.58 797.24 639.6 797.28 638.62 797.13 637.05 796.89 635.51 797.06 636.62 797.42 637.68 797.93 637.42 798.03 637.16 798.12 637.62 798.47 638.11 798.8 637.6 798.94 637.11 799.03 636.49 798.58 635.9 798.06 635.37 797.94 634.93 798.21 634.99 798.57 635.37 799.24 634.12 798.6 632.76 798.21 633.24 798.7 633.87 799 634.32 799.31 634.5 799.63 634.8 799.78 635.08 799.96 635.16 800.46 635.33 800.91 637 801.49 638.78 801.71 640.45 802.22 642.14 802.71 640.63 801.77 640.29 800.65 641.2 800.44 642.17 800.34 643.04 800.51 643.89 800.77 645.49 800.86 646.08 801.79 644.66 802.64 642.72 802.71 644.06 802.97 645.07 803.47 644.4 804.13 643.31 804.12 642.49 804.28 641.85 804.72 640.69 804.75 639.52 804.41 637.75 804.47 636.21 804 635.48 803.19 634.79 802.41 634.68 801.52 634.59 800.65 633.75 800.2 632.76 800.25 633.09 800.55 633.05 800.97 632.37 800.49 631.61 800.32 632.35 801.16 633.25 801.94 633.2 803.11 632.18 803.7 631.39 803.53 630.67 803.26 629.37 803.19 628.09 802.99 627.02 802.36 626.06 801.62 625.06 801.55 624.11 801.54 623.63 800.69 622.98 799.98 622.48 800.14 622.66 800.59 622.52 800.63 622.37 800.68 622.79 801.19 623.08 801.76 622.07 801.39 621.22 800.53 621.47 801.1 621.72 801.69 621.94 801.99 621.43 802.3 621.37 802.84 620.6 802.4 620.42 801.49 619.99 801.07 619.72 801.94 620.38 803.26 619.6 804.25 618.73 804.64 617.81 804.89 617.58 804.8 617.41 804.7 617.08 804.73 616.68 804.76 615.66 804.78 614.65 804.8 613.79 804.65 613.23 803.91 613.26 803.41 613.49 802.97 613.52 802.17 613.96 801.59 614.48 800.96 614.88 800.39 614.45 799.9 615.36 799.43 616.12 798.77 615.57 798.05 615.44 797.44 614.97 797.35 614.12 797.4 615.19 796.61 616.59 796.48 616.52 796.12 616.59 795.76 615.92 795.94 614.74 796.08 614.29 795.62 614.66 795.52 615.03 795.48 613.83 794.92 613.43 794.03 613.23 793.67 613.36 793.39 613.69 793.7 614.16 794.03 615.2 793.35 616.74 792.75 615.13 792.83 614 792.46 614.49 792.18 615.03 792.03 614.2 792.02 613.39 792.03 613.48 791.73 613.57 791.44 612.9 791.31 613.04 790.7 613.87 790.55 614.56 790.83 614.25 790.04 614.26 788.96 615.26 788.97 616.15 789.16 615.64 788.53 615.04 787.93 614.46 787.36 613.94 786.84 613.81 786.46 614.3 786.28 615.15 785.94 616.02 785.96 616.05 785.51 616.15 785.09 616.75 784.77 616.82 784.14 616.52 783.86 616.89 783.35 617.28 782.77 618.52 782.42 619.78 782.5 619.47 782.77 619.93 783.22 619.78 783.65 620.65 783.94 617.83 785.45 Z M 611.2 782.22 610.7 782.29 610.25 782.2 609.98 782.06 610.32 781.9 610.87 781.78 611.26 781.78 611.49 782.04 611.2 782.22 Z M 614.16 781.35 613.77 781.6 613.56 781.37 613.58 780.94 613.88 780.62 614.37 780.57 614.63 780.79 614.58 781.12 614.16 781.35 Z" fill-rule="evenodd" id="ATF-5916" data-name="Archipel des Kerguelen"/>
<path d="M 257.39 735.15 256.45 736.02 255.72 735.9 255.37 735.89 255.08 736.02 254.45 735.94 253.97 735.73 253.57 735.41 253.21 735.02 252.93 734.48 253.17 734.17 254.61 733.41 255.1 733.45 255.5 733.73 255.65 734.22 255.81 734.35 256.15 734.42 256.68 734.44 256.9 734.57 257.07 734.74 257.39 735.15 Z M 223.9 729.19 223.54 729.19 222.75 728.96 222.29 728.9 221.97 728.69 221.8 728.34 221.75 727.88 222.04 727.71 223.69 727.43 223.98 727.73 224.22 728.12 224.33 728.54 224.2 728.96 223.9 729.19 Z" fill-rule="evenodd" id="ATF-5917" data-name="Archipel des Crozet"/>
<path d="M 798.15 573.56 797.97 573.58 797.55 573.52 797.47 573.4 797.34 573.05 797.44 572.89 797.61 572.82 797.78 572.89 797.9 572.97 798.16 573.27 798.24 573.43 798.15 573.56 Z M 798.58 555.78 797.98 555.95 797.3 555.55 796.94 554.91 797.28 554.31 798.13 554.24 798.78 554.74 799 555.38 798.58 555.78 Z" fill-rule="evenodd" id="ATF-5918" data-name="Iles Saint-Paul et Nouvelle-Amsterdam"/>
<path d="M 15.57 228.22 15.21 228.7 14.79 228.76 14.59 228.64 14.43 228.4 14.39 228.04 14.53 227.82 14.77 227.74 15 227.72 15.12 227.78 15.18 228.01 15.1 228.12 15 228.2 14.93 228.33 15.05 228.46 15.32 228.43 15.48 228.21 15.44 227.89 15.43 227.7 15.56 227.76 15.57 228.22 Z M 1.07 210.49 1 210.52 1 210.44 1.07 210.49 Z M 1.89 209.44 1.84 209.45 1.86 209.4 1.89 209.44 Z M 1.78 209.36 1.72 209.37 1.74 209.31 1.78 209.36 Z M 65.55 117.04 65.4 117.37 64.82 117.1 65.11 116.97 65.55 117.04 Z M 313.26 92.29 313.27 92.47 313.12 92.38 313.26 92.29 Z M 161.18 1 161.32 1.41 160.93 1.31 161.18 1 Z" fill-rule="evenodd" id="ATF-5919" data-name="Iles Eparses de l&apos;ocean Indien"/>
</g>
</svg>