<?xml version="1.0"?>
<svg xmlns="http://www.w3.org/2000/svg" version="1.2" baseProfile="tiny" width="800" height="1908" viewBox="0 0 800 1908" stroke-linecap="round" stroke-linejoin="round">
<g id="ne_10m_admin_1_states_provinces">
<path d="M 282.99 786.84 296.14 801.15 300.59 804.08 301.72 804.22 303.53 804.83 304.21 805.39 304.82 806.27 305.19 807.5 305.04 809.69 304.67 810.97 303.84 812.78 303.61 813.64 303.61 814.52 303.84 815.38 305.8 820.46 306.1 822.45 306.1 823.51 306.02 824.51 305.8 825.43 304.59 827.83 304.36 828.71 304.21 829.72 304.21 830.76 304.82 836.99 304.52 839.85 304.59 840.83 305.42 843.43 305.57 844.41 305.5 848.69 304.97 851.51 309.14 854.81 343.82 876.11 344.02 876.22 336.3 889.03 334.14 902.21 333.94 915.82 331.17 931.66 309.24 963.07 302.15 979.34 307.83 995.69 318.6 1002.68 331.48 1004.42 344.85 1002.61 357.23 998.94 386.35 995.52 447.06 995.97 475.48 986.84 528.54 948.99 556.66 935.23 589.76 932.87 589.96 933.02 589.27 961.29 589.15 966.17 587.19 977.21 578.54 996.77 569.49 1010.78 573.11 1014.3 572.3 1024.81 565.46 1035.02 559.38 1046.87 562.04 1060.2 566.67 1072.7 571.85 1082.48 579.09 1094.63 582.52 1107.93 580.2 1121.79 557.37 1160.62 554.25 1174.88 554.3 1190.15 548.87 1198.97 535.73 1209.89 529.8 1214.82 523.62 1225.83 522.31 1236.85 522.56 1247.74 520.9 1258.5 518.08 1263.13 509.83 1269.52 506.06 1273.34 502.84 1279.22 501.18 1284.71 498.97 1297 495.23 1308.56 495.2 1308.65 466.73 1358.62 445.7 1418.2 443.39 1429.79 434.94 1449.59 434.94 1461.28 437.35 1466.28 444.35 1476.14 445.7 1483.06 444.65 1489.82 441.98 1495.05 438.71 1500.06 435.79 1506.15 431.22 1531.5 427.75 1539.87 427.55 1553.78 437.5 1583.56 437.5 1598.9 429.61 1615.27 408.78 1642.38 403.15 1661.57 402.85 1667.43 401.04 1671.73 398.62 1675.5 396.71 1679.7 393.14 1696.22 392.69 1725.8 390.63 1735.68 368.04 1788.84 364.42 1800.97 361.86 1828.32 357.23 1840.47 350.74 1849.66 347.27 1860.32 345.19 1873.57 345.18 1873.57 343.12 1880.06 340.04 1884.34 331.64 1893.51 327.76 1898.68 325.82 1902.16 324.99 1905.29 323.4 1907.17 319.6 1907.29 315.08 1906.88 311.68 1907.11 307.48 1900.18 296.37 1880.03 292.95 1868.38 293.85 1834.75 281.33 1784.65 262.26 1738.9 240.94 1688.03 237.87 1661.59 238.12 1658.6 237.82 1655.68 236.96 1652.82 235.61 1650.1 216.74 1603.2 188.02 1531.42 171.88 1491.28 166.5 1484.32 139.94 1464.17 136.57 1459.59 135.51 1453.99 136.37 1445.44 140.99 1430.9 141.1 1424.28 136.27 1418.27 136.27 1418.25 128.52 1409.12 125.6 1400.85 124.55 1380.73 113.93 1342.02 83.96 1273.84 59.16 1217.33 40.5 1174.96 25.16 1133.94 5.99 1082.66 1 1069.37 8.81 1063.17 33.86 1047.25 50.91 1031.5 52.32 1023.18 48.29 1006.46 48.45 998.18 58.91 981.1 113.93 935.94 121.28 931.66 121.38 931.66 137.22 919.14 138.28 908.8 129.02 898.97 114.32 888.48 114.33 888.47 118.37 880.07 130.25 867.06 173.46 803.5 176.82 799.72 204.23 746.98 204.23 746.97 206.13 746.44 210.36 745.37 211.34 744.99 213.3 744.97 215.56 745.34 219.56 746.69 221.52 746.93 223.03 746.92 224.01 746.66 224.99 746.99 225.85 747.85 226.3 750.07 226.05 751.22 225.6 752.07 224.24 753.32 223.71 753.88 223.48 754.62 223.56 755.34 224.09 758.33 224.01 759.24 223.79 760.07 223.18 761.7 223.18 765.85 222.96 766.77 222.35 767.4 221.67 767.81 220.77 768 219.94 768.04 219.11 768 217.15 767.71 214.2 766.8 212.17 766.47 211.11 766.58 210.21 766.85 209.53 767.21 209.15 767.56 208.4 768.56 208.17 769.08 207.94 769.62 207.87 770.42 207.94 771.2 208.17 771.93 208.32 772.42 209.23 773.36 210.66 774.49 213.9 776.47 215.94 778.24 216.17 778.92 216.09 779.75 215.79 780.54 215.26 781.26 214.66 781.82 213.9 782.34 213.15 782.73 210.36 783.81 208.77 784.61 208.09 785.17 207.57 785.82 207.19 786.58 207.04 787.44 207.19 788.08 207.34 788.6 207.64 789.17 208.02 789.58 219.71 793 221.9 793.2 223.64 792.64 228.62 789.39 230.6 788.5 233.32 787.81 234.07 787.03 234.07 786.39 233.47 785.81 232.71 785.28 232.26 784.58 231.81 783.82 231.51 782.95 230.98 782.27 230.22 781.77 229.32 781.37 228.31 781.11 227.56 780.67 227.11 780.17 227.36 779.6 228.77 779.22 236.79 778.2 237.92 777.65 239.43 776.05 240.86 776.31 243.35 777.07 251.58 781.18 253.16 782.27 254.77 784.27 255.98 786.69 259.22 795.08 260.28 796.84 261.11 797.93 262.32 799.1 262.92 799.57 266.92 797.78 282.99 786.84 Z" id="ISR-3053" data-name="HaDarom"/>
<path d="M 469.18 421.9 468.34 421.52 459.64 421.97 452.85 426.36 440.62 438.42 425.53 446.49 410.95 452.38 398.12 460.21 388.56 474.33 382.73 499.6 382.5 499.62 377.17 500.1 373.85 499.42 373.32 498.74 372.8 498.03 372.19 497.3 371.21 496.63 369.63 495.8 361.91 489.84 359.87 488.8 358.28 488.25 334.04 486.54 329.36 487.07 328.31 487.3 322.72 487.7 302.7 487.29 302.46 487.29 305.1 476.18 320.15 412.77 322.93 408.08 325.86 386.36 328.31 379.86 327.44 372.69 338.61 333.01 341.26 289.38 345.18 279.54 352.43 276.14 358.61 277.4 368.47 282.87 375.92 284.1 380.27 283.32 397.34 267.88 399.44 263.74 403.56 250.98 404.58 251.26 408.06 252.17 409.34 253 410.54 254.33 412.28 257.62 413.26 259.09 414.09 260.05 416.05 261.09 416.51 262.07 416.66 263.55 415.45 269.61 415.68 270.54 416.43 271.49 420.45 273.83 421.81 274.84 422.49 275.44 424 276.49 424.75 276.9 426.56 277.55 433.73 279.29 435.47 280.11 436.22 280.64 436.68 281.67 436.75 283.21 435.47 289.26 435.39 290.23 435.92 292.02 436.9 294.39 441.96 303.62 442.11 305.04 442.11 306.97 441.58 310.94 440.98 312.79 440.45 314.11 435.62 320.48 435.54 320.52 435.09 321.08 434.41 322.45 434.26 323.38 435.09 330.19 434.86 331.73 434.19 332.68 431.77 333.95 431.24 334.87 430.94 336.15 431.24 338.62 431.24 339.71 431.17 340.69 430.41 342.09 429.28 343.41 428 344.51 427.24 344.99 426.41 345.33 425.58 345.37 424.75 345.07 424.15 344.5 423.55 343.86 422.11 341.79 421.43 341.26 420.68 340.88 419.75 340.93 419 341.3 418.49 341.94 417.79 343.56 417.34 346.49 417.34 347.39 419.7 356.02 419.75 358.02 419.4 359.23 412.43 362.43 411.75 362.95 411.15 363.51 410.09 364.85 406.47 371.81 404.96 373.83 404.21 374.35 403.38 374.78 402.4 374.93 401.42 374.82 395.08 372.44 392.97 372.03 391.73 371.95 390.63 372.05 389.57 372.29 388.64 372.59 387.89 373.01 386.53 374.18 386 374.82 385.02 376.21 384.72 377.02 384.26 378.81 384.19 379.81 385.02 381.36 386.45 383.32 390.32 386.89 391.08 388.26 390.93 388.94 388.72 388.66 386 387.73 384.64 387.39 383.58 387.31 381.32 387.42 380.34 387.66 379.44 388.04 378.91 388.66 378.91 389.77 379.59 391.39 381.7 394.23 382.45 395.94 382.91 397.37 382.91 398.35 383.06 399.3 383.36 400.14 383.74 400.84 385.77 402.31 392.29 406 393.04 406.85 393.34 407.9 393.04 409.86 391.88 413.3 391.73 414.2 391.83 415.13 392.14 415.94 392.97 416.68 396.13 418.38 397.04 419.3 397.64 420.21 398.55 421.23 399.98 422.21 403.08 423.7 404.66 424.64 406.85 425.49 420.98 427.83 421.96 428.14 423.02 428.35 424.53 428.16 426.49 427.48 429.73 425.46 431.17 424.21 432.15 423.19 432.6 422.44 433.05 421.8 433.88 421.17 436.52 419.75 437.35 418.94 437.88 418.01 438.03 417.07 438.26 416.24 438.64 415.45 439.32 414.88 440.07 414.38 444.45 412.51 445.2 412.03 445.8 411.41 446.36 410.73 447.72 408.52 448.92 407.35 449.68 406.93 450.51 406.63 452.7 407.71 454.28 408.62 468.01 419.7 469.18 421.9 Z" id="ISR-3054" data-name="Haifa"/>
<path d="M 382.73 499.6 380.82 507.9 377.3 517.91 375.49 519.06 369 521.09 367.14 522.22 365.12 528.39 363.41 543.71 361.91 550.08 367.99 551.71 371.36 555.35 372.22 560.48 370.51 566.67 366.94 572.69 348.02 587.51 341.53 594.66 340.58 599.34 348.48 614.38 350.89 622.6 357.03 668.47 357.28 677.55 356.42 688.34 356.42 688.67 356.57 688.97 356.88 689.22 357.23 689.42 357.63 691.03 357.78 692.79 357.63 694.55 357.23 696.21 355.17 710.8 364.77 729.81 370.56 746.11 357.23 752.47 344.05 756.45 341.17 763.02 340.66 763.58 340.33 763.93 333.14 766.58 325.67 766.54 323.63 767.19 322.35 768.67 318.72 775.86 315.63 778.39 312.61 779.86 282.99 786.84 266.92 797.78 262.92 799.57 262.32 799.1 261.11 797.93 260.28 796.84 259.22 795.08 255.98 786.69 254.77 784.27 253.16 782.27 251.58 781.18 243.35 777.07 240.86 776.31 239.43 776.05 237.92 777.65 236.79 778.2 228.77 779.22 227.36 779.6 227.11 780.17 227.56 780.67 228.31 781.11 229.32 781.37 230.22 781.77 230.98 782.27 231.51 782.95 231.81 783.82 232.26 784.58 232.71 785.28 233.47 785.81 234.07 786.39 234.07 787.03 233.32 787.81 230.6 788.5 228.62 789.39 223.64 792.64 221.9 793.2 219.71 793 208.02 789.58 207.64 789.17 207.34 788.6 207.19 788.08 207.04 787.44 207.19 786.58 207.57 785.82 208.09 785.17 208.77 784.61 210.36 783.81 213.15 782.73 213.9 782.34 214.66 781.82 215.26 781.26 215.79 780.54 216.09 779.75 216.17 778.92 215.94 778.24 213.9 776.47 210.66 774.49 209.23 773.36 208.32 772.42 208.17 771.93 207.94 771.2 207.87 770.42 207.94 769.62 208.17 769.08 208.4 768.56 209.15 767.56 209.53 767.21 210.21 766.85 211.11 766.58 212.17 766.47 214.2 766.8 217.15 767.71 219.11 768 219.94 768.04 220.77 768 221.67 767.81 222.35 767.4 222.96 766.77 223.18 765.85 223.18 761.7 223.79 760.07 224.01 759.24 224.09 758.33 223.56 755.34 223.48 754.62 223.71 753.88 224.24 753.32 225.6 752.07 226.05 751.22 226.3 750.07 225.85 747.85 224.99 746.99 224.01 746.66 223.03 746.92 221.52 746.93 219.56 746.69 215.56 745.34 213.3 744.97 211.34 744.99 210.36 745.37 206.13 746.44 204.23 746.97 217.5 721.4 226.61 709.16 237.29 679.13 237.32 679.15 241.69 683.39 244.11 684.63 259.75 686.37 269.71 686.56 271.37 686.33 273.03 685.8 273.41 685.65 273.56 685.61 273.56 685.58 273.63 685.55 280.98 678.85 281.43 678.31 282.23 677.68 283.54 676.87 286.56 675.42 288.37 675 289.8 674.95 290.71 675.26 291.46 675.72 293.35 677.49 295.31 678.89 296.59 679.23 298.78 678.89 307.31 675.91 309.44 674.5 310.5 673.25 310.35 672.4 310.05 671.76 309.75 671.38 308.59 670.4 307.84 669.88 303.46 668.11 302.7 667.64 302.33 666.97 302.03 666.11 299.91 654.58 299.54 653.72 299.16 652.97 298.63 652.32 297.27 651.21 295.01 649.85 294.25 649.32 292.82 648.46 292.37 648.04 291.99 647.7 291.54 647.16 291.16 646.46 290.86 645.63 290.71 644.7 290.71 643.82 291.16 641.98 291.69 640.28 291.99 635.43 292.37 633.24 292.82 632.26 295.99 628.86 297.05 627.37 300.37 621.56 301.65 617.84 301.65 616.82 301.5 615.84 300.59 613.72 300.44 613.05 300.52 611.96 300.97 610.32 301.35 608.28 301.35 604.62 301.27 603.64 300.97 602.78 300.52 602.06 299.91 601.5 297.27 600.36 296.52 599.94 295.91 599.39 294.78 598.06 292.44 596.75 289.58 594.65 288.75 594.16 287.01 593.44 284.9 592.98 274.61 591.84 271.63 591.92 287.8 549 302.46 487.29 302.7 487.29 322.72 487.7 328.31 487.3 329.36 487.07 334.04 486.54 358.28 488.25 359.87 488.8 361.91 489.84 369.63 495.8 371.21 496.63 372.19 497.3 372.8 498.03 373.32 498.74 373.85 499.42 377.17 500.1 382.5 499.62 382.73 499.6 Z" id="ISR-3055" data-name="HaMerkaz"/>
<path d="M 735.5 323.36 735.42 323.39 727.02 325.21 700.26 339.47 684.12 351.67 676.32 355.09 664.81 353.93 664.75 353.92 655.8 359.36 648.46 367.6 644.13 370.85 640.66 372.09 639.6 373.7 639.35 377.7 641.31 381.21 645.44 383.27 645.44 386.3 642.07 386.3 642.07 389.93 644.84 394.31 646.34 406.86 649.06 412.88 647.05 415.52 646.34 415.8 646.09 414.66 645.44 412.88 644.28 414.62 642.07 419.84 639.05 416.5 640.71 426.69 642.07 429.82 635.43 429.82 635.43 433.11 637.99 432.86 640.01 432.94 643.48 437.28 644.48 439.34 649.06 443.38 649.06 446.42 644.68 447.53 641.77 450.1 639.96 453.42 639.05 456.68 640.86 457.76 641.97 458.67 643.28 459.32 645.44 459.7 645.44 463.33 642.37 465.09 639.05 466.35 642.07 469.67 635.43 473.32 636.49 474.17 637.49 474.01 638.3 474.33 639.05 476.61 635.43 476.61 635.43 479.63 638.45 482.18 638.9 484.14 636.84 485.5 632.11 486.28 634.27 491.65 635.43 493.23 637.79 495.36 639.81 498.38 600.47 489.76 589.05 487.24 577.43 486.92 564.81 483.74 562.14 471.47 562.35 456.4 558.02 444.96 543.53 437.35 529.05 435.91 498.42 437.18 489.56 434.51 475.68 424.8 469.18 421.9 468.01 419.7 454.28 408.62 452.7 407.71 450.51 406.63 449.68 406.93 448.92 407.35 447.72 408.52 446.36 410.73 445.8 411.41 445.2 412.03 444.45 412.51 440.07 414.38 439.32 414.88 438.64 415.45 438.26 416.24 438.03 417.07 437.88 418.01 437.35 418.94 436.52 419.75 433.88 421.17 433.05 421.8 432.6 422.44 432.15 423.19 431.17 424.21 429.73 425.46 426.49 427.48 424.53 428.16 423.02 428.35 421.96 428.14 420.98 427.83 406.85 425.49 404.66 424.64 403.08 423.7 399.98 422.21 398.55 421.23 397.64 420.21 397.04 419.3 396.13 418.38 392.97 416.68 392.14 415.94 391.83 415.13 391.73 414.2 391.88 413.3 393.04 409.86 393.34 407.9 393.04 406.85 392.29 406 385.77 402.31 383.74 400.84 383.36 400.14 383.06 399.3 382.91 398.35 382.91 397.37 382.45 395.94 381.7 394.23 379.59 391.39 378.91 389.77 378.91 388.66 379.44 388.04 380.34 387.66 381.32 387.42 383.58 387.31 384.64 387.39 386 387.73 388.72 388.66 390.93 388.94 391.08 388.26 390.32 386.89 386.45 383.32 385.02 381.36 384.19 379.81 384.26 378.81 384.72 377.02 385.02 376.21 386 374.82 386.53 374.18 387.89 373.01 388.64 372.59 389.57 372.29 390.63 372.05 391.73 371.95 392.97 372.03 395.08 372.44 401.42 374.82 402.4 374.93 403.38 374.78 404.21 374.35 404.96 373.83 406.47 371.81 410.09 364.85 411.15 363.51 411.75 362.95 412.43 362.43 419.4 359.23 419.75 358.02 419.7 356.02 417.34 347.39 417.34 346.49 417.79 343.56 418.49 341.94 419 341.3 419.75 340.93 420.68 340.88 421.43 341.26 422.11 341.79 423.55 343.86 424.15 344.5 424.75 345.07 425.58 345.37 426.41 345.33 427.24 344.99 428 344.51 429.28 343.41 430.41 342.09 431.17 340.69 431.24 339.71 431.24 338.62 430.94 336.15 431.24 334.87 431.77 333.95 434.19 332.68 434.86 331.73 435.09 330.19 434.26 323.38 434.41 322.45 435.09 321.08 435.54 320.52 435.62 320.48 440.45 314.11 440.98 312.79 441.58 310.94 442.11 306.97 442.11 305.04 441.96 303.62 436.9 294.39 435.92 292.02 435.39 290.23 435.47 289.26 436.75 283.21 436.68 281.67 436.22 280.64 435.47 280.11 433.73 279.29 426.56 277.55 424.75 276.9 424 276.49 422.49 275.44 421.81 274.84 420.45 273.83 416.43 271.49 415.68 270.54 415.45 269.61 416.66 263.55 416.51 262.07 416.05 261.09 414.09 260.05 413.26 259.09 412.28 257.62 410.54 254.33 409.34 253 408.06 252.17 404.58 251.26 403.56 250.98 403.56 250.97 405.54 244.77 404.67 238.91 398.65 236.37 401.62 229.14 404.99 199.5 411.56 183.76 413.62 174.43 411.64 165.99 413.74 164.21 416.35 161.16 418.61 159.64 415.29 156.31 417.54 155.85 418.02 155.62 456.97 158.07 459.08 157.32 464.46 153.81 467.63 152.8 470.55 152.98 477.44 154.47 480.91 154.69 498.92 149.7 504.85 149.7 507.37 150.66 510.19 151.74 515.62 155.44 520.45 160.38 523.82 166.16 528.34 171.12 534.78 171.89 562.24 165.88 585.53 157.47 600.47 156.41 602.89 149 611.94 135.37 616.11 127.2 618.73 114.8 619.89 90.81 623.66 80.07 628.09 73.44 630.95 66.79 634.22 62.18 639.91 61.63 642.72 64.53 651.52 76.2 657.71 80.02 657.76 80.01 657.86 80.07 660.68 82.09 660.7 81.98 661.03 80.07 661.03 80.04 661.03 80.02 659.52 71.08 663.85 67.41 670.83 66.11 678.54 64.69 688.24 58.16 706.75 41.91 715.35 39.93 721.79 39.4 728.73 37.77 735.47 35.27 741.26 32.19 749.2 24.77 758.91 8.48 766.41 1 767.06 3.6 764.39 6.61 763.64 14.56 762.13 17.23 760.97 23.72 752.98 28.64 749.2 32.07 738.54 36.2 757.15 46.86 740.85 66.22 744.28 70.02 757.91 78.02 759.87 100.77 770.83 106.48 772.39 120.52 767.06 130.04 761.73 137.25 761.73 144.48 779.94 150.91 778.43 157.37 784.87 203.7 787.58 209.78 799 225.73 792.16 236.74 788.69 237.49 780.34 249.64 774.66 264.14 776.52 270.2 772.79 282.67 748.45 307 735.5 323.36 Z" id="ISR-3056" data-name="HaZafon"/>
<path d="M 237.29 679.13 241.89 666.21 242.21 663.89 241.58 658.54 241.89 656.23 248.55 653.2 271.63 591.92 274.61 591.84 284.9 592.98 287.01 593.44 288.75 594.16 289.58 594.65 292.44 596.75 294.78 598.06 295.91 599.39 296.52 599.94 297.27 600.36 299.91 601.5 300.52 602.06 300.97 602.78 301.27 603.64 301.35 604.62 301.35 608.28 300.97 610.32 300.52 611.96 300.44 613.05 300.59 613.72 301.5 615.84 301.65 616.82 301.65 617.84 300.37 621.56 297.05 627.37 295.99 628.86 292.82 632.26 292.37 633.24 291.99 635.43 291.69 640.28 291.16 641.98 290.71 643.82 290.71 644.7 290.86 645.63 291.16 646.46 291.54 647.16 291.99 647.7 292.37 648.04 292.82 648.46 294.25 649.32 295.01 649.85 297.27 651.21 298.63 652.32 299.16 652.97 299.54 653.72 299.91 654.58 302.03 666.11 302.33 666.97 302.7 667.64 303.46 668.11 307.84 669.88 308.59 670.4 309.75 671.38 310.05 671.76 310.35 672.4 310.5 673.25 309.44 674.5 307.31 675.91 298.78 678.89 296.59 679.23 295.31 678.89 293.35 677.49 291.46 675.72 290.71 675.26 289.8 674.95 288.37 675 286.56 675.42 283.54 676.87 282.23 677.68 281.43 678.31 280.98 678.85 273.63 685.55 273.56 685.58 273.56 685.61 273.41 685.65 273.03 685.8 271.37 686.33 269.71 686.56 259.75 686.37 244.11 684.63 241.69 683.39 237.32 679.15 237.29 679.13 Z" id="ISR-3057" data-name="Tel Aviv"/>
<path d="M 344.02 876.22 343.82 876.11 309.14 854.81 304.97 851.51 305.5 848.69 305.57 844.41 305.42 843.43 304.59 840.83 304.52 839.85 304.82 836.99 304.21 830.76 304.21 829.72 304.36 828.71 304.59 827.83 305.8 825.43 306.02 824.51 306.1 823.51 306.1 822.45 305.8 820.46 303.84 815.38 303.61 814.52 303.61 813.64 303.84 812.78 304.67 810.97 305.04 809.69 305.19 807.5 304.82 806.27 304.21 805.39 303.53 804.83 301.72 804.22 300.59 804.08 296.14 801.15 282.99 786.84 312.61 779.86 315.63 778.39 318.72 775.86 322.35 768.67 323.63 767.19 325.67 766.54 333.14 766.58 340.33 763.93 340.66 763.58 341.17 763.02 340.23 765.17 344.8 773.32 360.85 775.74 368.44 775.81 371.92 775.21 376.74 772.64 385.34 764.75 388.97 762.78 395.86 763.76 421.26 774.15 455.11 780.94 463.36 785.29 467.18 791.33 468.04 799.43 467.33 809.89 465.52 812.65 463.31 813.26 460.79 812.2 458.03 809.96 428 815.5 418.74 819.47 410.04 825.48 393.09 840.27 353.96 865.49 345.06 874.5 344.02 876.22 Z" id="ISR-3058" data-name="Jerusalem"/>
</g>
</svg>