<?xml version="1.0"?>
<svg xmlns="http://www.w3.org/2000/svg" version="1.2" baseProfile="tiny" width="800" height="1154" viewBox="0 0 800 1154" stroke-linecap="round" stroke-linejoin="round">
<g id="ne_10m_admin_1_states_provinces">
<path d="M 656.74 203.15 656.62 203.7 654.62 204.22 651.85 203.76 648.71 204.35 649.77 206.12 649.67 207.26 649.06 208.37 648.71 210.03 649 211.23 651.15 215.48 652.37 219.02 652.26 220.49 651 221.59 648.71 224.05 647.26 226.77 646.9 229.28 647.71 236.46 647.65 238.5 643.8 252.44 644.06 255.77 645.01 257.7 646.29 259.1 647.48 260.89 648.32 263.52 648.73 266.78 648.22 269.92 646.35 272.13 643.14 272.53 640.13 270.87 635.35 265.9 632.78 271 632.91 276.24 635.77 279.99 641.36 280.59 648.63 278.75 652.18 279.43 653.72 283.14 652.48 285.61 649.57 286.43 646.27 285.87 643.8 284.27 640.6 286.34 636.29 286.59 627.27 285.59 626.83 286.74 625.99 291.79 626.05 292.94 626.5 293.45 627.81 294.59 629.58 295.82 631.44 296.62 636.02 295.77 638.55 295.9 640.13 297.84 639.44 299.7 637.15 301.26 634.35 302.34 626.88 303.84 626.86 306.4 628.12 309.26 626.66 311.31 627.47 313.71 630.8 314.07 634.13 313.41 642.33 310.57 643.69 309.43 644.4 307.9 644.94 304.27 645.84 302.86 648.56 301.68 652.59 300.97 659.8 300.57 663.17 301.11 672.69 304.55 673.84 306.15 674.15 307.91 673.74 309.75 672.56 311.76 672.52 311.93 672.56 312.11 672.69 312.29 678.02 314.1 681.27 316.91 682.38 321.11 680.71 330.2 680.41 335.46 679.67 337.71 677.86 339.57 675.84 340.74 674.37 342.46 674.21 345.99 676.43 352.41 676.49 355.27 674.32 358.93 670.26 362.52 669.12 364.25 669.14 367.05 668.2 372.83 665.16 378.4 663.32 383.88 665.72 389.45 665.76 389.45 665.76 389.46 674.41 404.03 676.65 412.8 672.71 418.42 672.69 418.45 671.78 420.69 671.52 423.48 670.89 425.85 668.92 426.79 666.59 426.42 664.78 425.87 663.12 425.63 661.23 426.26 662.19 426.96 660.99 429.96 659.11 432.03 657.19 428 655.07 427.19 652.81 427.6 651.59 429.3 651.99 431.6 651.92 431.6 651.86 431.6 644.87 430.64 643.76 430.71 638.05 431.85 636.97 431.95 635.86 431.95 634.74 431.78 633.8 431.46 629.62 429.08 628.73 428.76 627.73 428.58 626.76 428.62 624.92 429.04 620.53 430.85 619.89 431.32 619.27 431.99 618.94 433.17 618.82 434.15 619.52 434.91 620.06 435.67 620.36 436.55 620.33 437.58 619.52 439 618.35 442.1 616.88 444.94 613.29 449.53 612.57 451.02 612.26 452.36 612.46 453.36 612.76 454.3 613.15 455.08 614.15 456.56 616.13 458.31 616.74 458.95 617.16 459.76 617.38 460.72 617.16 461.79 616.52 462.67 614.96 463.25 613.79 463.25 612.79 462.94 611.18 462.05 610.29 461.8 609.25 462.14 608.25 462.93 606.33 465.86 605 468.61 603.05 474.2 602.8 475.17 602.69 476.2 602.69 477.18 602.94 478.11 603.44 478.82 604.14 479.34 607.53 480.96 608.2 481.57 608.64 482.35 608.75 483.3 608.28 484.2 607.42 484.94 605.58 485.55 604.3 485.85 603.19 486.41 602.47 487.18 602.08 488.64 602.19 489.71 602.86 491.55 603.22 493.51 603.22 494.59 602.86 496.57 602.97 497.47 603.39 498.07 604.08 498.6 604.92 498.95 606.86 499.5 608.89 499.75 609.79 499.72 613.99 499.13 617.91 498.14 623.31 497.49 624.45 497.57 625.42 497.83 626.31 498.21 627.09 498.7 627.7 499.34 629.62 502.27 629.99 503.18 630.24 505.25 630.16 506.32 629.99 507.29 629.29 508 628.15 508.5 622.59 508.74 621.45 508.95 620.53 509.5 620 510.67 619.91 511.76 621.09 519.05 621.5 519.8 621.64 520.59 621.67 521.55 621.42 522.58 619.74 523.6 616.82 524.38 609.61 525.2 606.47 525.22 604.47 525.03 602.3 523.45 598.4 519.67 596.76 517.67 594.2 515.21 587.91 511.2 585.05 509.96 581.23 508.74 576.85 507.95 573.15 508.03 565.17 510.8 563.77 511.61 561.94 512.89 559.26 515.31 558.42 516.63 558.11 517.88 558.28 518.87 558.29 519.91 558.12 520.9 556.2 524.06 555.82 525.03 555.27 525.81 553.86 526.25 552.83 526.81 552.06 528.12 550.93 529.29 549.51 530.22 546.47 530.82 544.73 530.86 543.36 530.66 542.43 530.37 538.16 528.4 537.2 528.09 536.03 528.06 529.79 530.14 528.14 530.33 526.78 530.33 524.79 529.91 523.74 530.44 522.55 531.61 518.97 539.37 515.18 543.16 513.27 543.8 510.05 543.98 502.72 542.87 499.41 541.72 489.44 535.95 470.87 521.02 470.34 520.31 469.74 519.66 469.2 518.97 468.59 518.34 466.52 515.54 463.57 512.46 462.2 511.38 461.36 510.98 460.37 510.67 459.21 510.48 455.16 510.74 451.17 511.51 449.36 511.62 447.08 511.48 443.63 510.91 441.39 510.78 440.38 510.88 439.57 511.02 439.01 511.23 438.47 511.53 437.87 511.98 436.7 513.25 434.45 516.19 433.26 517.46 431.97 518.62 431.2 519.06 430.37 519.45 427.76 520.27 426.05 521.05 424.42 521.99 422.91 523.2 422.39 523.77 421.87 524.46 421.42 525.21 418.58 532.68 417.71 534.28 416.56 535.63 413.92 538.05 412.48 539.05 411.63 539.42 405.9 540.79 404.26 541.44 403.47 541.92 402.8 542.51 402.26 543.3 401.83 544.09 401.5 545.02 401.28 546.04 401.14 547.16 401.14 548.32 401.5 550.29 402.24 551.88 404.15 554.91 404.85 556.51 405.1 557.42 405.28 558.38 405.34 562.71 405.18 563.84 404.9 564.89 404.36 565.75 403.57 566.39 402.71 566.81 401.98 567.27 401.42 567.7 401.09 568.09 399.55 571.09 398.47 572.51 397.57 574.04 396.98 574.5 396.09 574.32 394.75 573.36 393.54 572.69 391.69 572.19 390.41 571.45 389.4 569.83 370.3 516.72 368.41 513.51 365.96 510.34 361.05 507.14 359.22 505.44 358.28 504.16 358.52 503.25 358.92 502.41 359.4 501.66 360.52 500.23 361.77 499 362.48 498.47 363.77 497.29 364.31 496.68 364.86 495.94 365.28 495.13 365.59 494.17 365.74 493.1 365.86 487.22 366.06 486.17 366.34 485.23 367.2 483.57 368.26 482.18 377.43 473.96 378.49 472.7 380.37 469.23 381.01 467.41 381.17 466.41 381.17 465.43 381.08 464.57 380.37 461.69 377.74 455.71 376.88 451.74 375.91 449.02 374.96 448.34 373.44 447.91 369.64 447.91 366.91 447.67 363.07 446.9 359.98 445.91 358.46 445.12 349.52 439.17 346.89 436.99 345.26 435.23 344.57 434.67 343.32 433.45 342.62 432.91 340.96 432.12 338.91 431.59 336.69 431.46 327.06 431.82 322.68 432.44 319.77 434.31 319.11 434.91 318.54 435.59 318.06 436.37 317.67 437.24 317.41 438.17 316.38 443.42 315.97 444.29 315.39 444.94 314.67 445.48 313.11 446.36 309.68 447.84 307.63 448.29 303.24 448.74 301.42 448.66 290.79 446.58 289.38 446.6 287.16 447.22 285.91 447.79 284.97 448.49 284.47 449.2 284.06 450.03 283.46 451.87 283.01 452.73 282.46 453.4 281.2 454.47 278.9 455.05 273.64 457.38 260.28 453.15 252.97 456.28 250.63 459.33 249.12 462.82 248.32 466.58 248.08 470.41 248.58 481.19 248.08 484.55 247.32 486.64 246.34 488.39 243.85 491.33 242.95 493.04 243.29 494.61 244.07 496.07 244.51 497.46 244.86 500.75 245.86 503.81 247.36 506.31 249.3 507.92 256.11 509.05 262.98 508.49 268.56 509.78 271.56 516.49 271.68 519.71 271.05 522.89 269.25 525.32 265.88 526.28 262.02 525.43 254.87 521.94 250.52 521.5 246.81 523.28 243.86 526.62 241.64 529.84 240.12 531.29 237.17 536.19 236.02 537.33 235.27 537.82 218.18 541.31 210.38 541.44 203.9 539.86 200.79 536.92 196.16 529.19 190.67 526.35 185.61 520.09 183.08 517.71 180.35 516.19 177.96 514.47 176.27 512.08 174.85 500.83 173.17 494.45 171.01 490.51 170.72 488.89 169.96 487.39 166.59 486.3 165.83 485.16 164.71 482.49 162.53 479.82 161.08 476.9 162.15 473.53 158.91 467.28 158.48 465.46 157.51 463.94 153.23 461.34 152.25 459.39 150.72 455.31 143.99 450.14 138.78 440.36 136.33 437.92 135.6 437.63 134.66 437.57 133.92 437.69 133.77 437.92 126.55 430.14 122.76 428.12 121.37 427.84 120.83 427.56 120.31 426.79 119.23 427.35 117.61 428.1 117.57 428.04 116.7 426.63 117.17 424.35 118.49 423.16 120.39 422.11 120.59 419.66 116.94 407.15 116.71 404.07 116.31 402.53 115.3 402.1 114.1 401.92 113.03 401.12 110.24 392.7 110.05 389.04 108.89 386.16 104.36 383.76 99.83 382.75 95.23 382.53 92.75 382.12 91.34 381.14 90.19 379.96 88.44 378.97 90.13 376.44 90.87 373.62 91.21 364.66 91.96 363.16 95.78 359.27 98.9 352.92 101 349.67 106.69 346.71 108.83 343.3 109.07 339.9 106.25 338.35 103.12 337.67 100.58 335.82 99.17 333.05 99.47 329.67 101.31 327.28 103.76 326.16 105.89 324.82 106.81 321.76 106.81 316.93 105.92 313.92 105.69 312.52 106.42 306.8 106.22 304.25 103.8 301.2 97.33 293.1 90.91 287.3 89.98 285.45 89.67 282.54 89.94 279.65 90.83 276.72 92.37 274.09 94.66 272.13 94.08 271.68 114.37 268.93 115.65 268.43 117.14 267.44 118.63 265.76 119.47 264.59 120.5 262.85 121.04 262.13 121.91 261.5 123.06 260.95 126.32 260.2 127.56 259.7 128.5 258.98 129.41 257.51 130.52 254.18 130.95 253.35 131.94 251.92 132.61 251.32 133.69 250.68 135.13 250.04 137.89 249.26 140.57 248.77 149.5 248.65 151.65 248.33 168.26 243.23 169.28 243.12 185.21 244.29 186.3 244.18 192.09 242.5 194.21 242.19 196.62 242.14 201.36 242.5 203.46 242.97 207.82 243.55 214.61 243.32 237.95 238.18 249.58 238.92 251.85 238.73 254.72 238.18 255.41 238.18 265.41 239.45 269.76 239.32 270.86 238.73 271.92 237.71 273.41 235.17 274.56 233.72 276.2 232.55 280.38 231.31 281.24 230.9 281.89 230.16 282.47 229 282.83 227.03 283.51 225.07 283.77 223.58 283.83 222.35 283.65 221.3 283.36 220.36 281.88 218.17 281.61 217.33 281.54 216.41 281.61 215.5 281.36 212.45 281.5 211.41 282.22 209.5 282.23 209.48 282.6 208.66 283.15 207.9 283.97 207.2 285.43 206.51 286.58 206.2 288.98 204.84 289.97 204.79 291.04 204.87 292.06 205.07 293.14 205.05 294.1 204.66 294.72 203.91 294.9 202.5 294.37 201.78 293.51 201.28 290.5 200.54 290.03 200.1 290.23 199.55 291.35 199.13 293.59 198.76 294.47 198.49 295.35 198.33 296.24 198.49 298 199.16 299.09 199.3 300.15 199.33 301 199.27 301.79 199.05 304.07 197.88 305.97 197.19 306.68 196.56 307.14 195.52 306.4 194.22 305.04 192.78 291.38 180.77 290.25 179.46 290.3 178.29 290.82 177.07 293.73 171.85 294.12 170.63 294.32 169.56 294.78 162.6 295.24 160.49 295.58 159.53 296.58 157.62 298.31 155.25 300.53 153 307.72 147.74 310.25 145.27 311.36 143.83 314.92 137.17 317.32 134.1 317.96 133.57 318.8 133.1 320.14 132.72 321.37 132.58 322.59 132.55 325 132.8 328.85 134.32 335.33 137.66 341.1 139.48 341.39 141.08 341.99 142.76 342.46 143.53 343.07 144.14 343.83 144.64 344.66 145.08 345.37 145.6 345.97 146.26 346.65 148.02 347.08 148.81 347.76 149.37 348.71 149.63 349.74 149.76 350.7 150.02 351.51 150.45 352.23 150.99 355.43 152.74 356.33 153.09 357.43 153.25 360.3 153.14 361.49 153.27 362.33 153.75 362.75 154.55 363.09 155.44 363.9 155.93 365.02 155.98 367.43 154.63 368.59 153.63 369.37 152.56 369.64 151.57 369.8 150.49 369.83 149.33 369.62 147.13 368.31 141.1 368.26 140.05 368.31 139.06 368.53 138.12 368.9 137.26 369.89 135.78 371.16 134.57 377.36 131.58 378.74 130.43 379.57 129.31 380.35 126.32 381.14 124.61 381.65 123.88 382.27 123.23 382.92 122.65 384.42 121.7 403.23 114.81 405.3 114.31 406.64 114.23 408.58 114.47 410.98 115.14 413.27 115.4 414.32 115.62 415.14 116.06 415.89 116.57 417.03 116.96 418.64 117.13 421.36 117.04 422.45 117.5 422.69 118.15 422.3 118.83 421.41 119.81 421.37 119.84 421.34 119.88 419.19 121.98 418.78 122.65 418.79 123.4 419.5 123.76 420.68 123.59 422.57 122.65 424.52 121.17 425.06 120.56 425.92 119.85 425.94 119.84 433.03 113.49 433.53 112.74 433.92 111.88 434.58 110.05 435.06 109.35 435.88 108.42 436.27 107.86 436.55 107.08 436.73 105.12 436.98 104.17 437.77 103.45 438.95 102.84 440.92 102.06 442.04 101.35 442.87 100.56 443.26 99.66 443.67 96.33 443.99 95.38 445.13 94.8 446.96 94.5 457.72 94.75 459.26 95.2 460.32 95.8 460.78 96.59 461.03 97.47 460.95 98.41 460.57 99.18 459.98 99.77 459.59 100.43 459.44 101.24 459.59 102.14 460.02 102.88 460.69 103.46 461.43 103.96 462.11 104.54 462.61 105.27 462.91 106.21 463.09 107.22 463.06 108.32 462.9 109.34 462.61 110.31 462.24 111.19 461.68 111.89 459.83 113.77 459.47 114.58 459.39 115.49 459.73 116.28 460.38 116.65 461.15 116.54 462.7 115.35 463.68 115.58 464.37 116.14 465.25 116.54 466.31 116.49 467.93 115.4 468.81 114.51 469.96 112.8 470.8 112.21 471.97 111.81 477.82 111.77 480.49 112.69 481.53 112.6 482.63 112.19 484.89 110.41 486 109.81 487.19 109.49 489.17 109.51 490.29 109.89 491.15 110.45 491.93 110.82 492.97 110.73 494.05 110.25 495.26 109.07 495.89 108.15 496.27 107.26 497.36 101.77 497.72 100.86 498.14 100.04 498.69 99.33 499.42 98.82 500.31 98.61 501.52 98.97 502.27 99.58 503.57 100.88 504.38 101.31 505.4 101.53 508.64 101.81 509.85 101.77 514.23 100.6 522.51 96.95 524 96.77 525.35 95.88 527.69 95.12 546.01 91.28 554.69 90.58 566.04 84.81 569.49 83.98 569.57 83.96 568.47 88.49 568.36 92.23 570.19 95.93 571.76 97.23 573.73 98.16 575.87 98.71 580.01 99.24 581.29 100.08 582.41 101.16 584.03 102.25 589.64 104.08 591.27 105.07 592.68 106.75 594.78 110.73 596.26 112.5 605.75 118.39 608.59 121.37 617.72 138.21 618.24 138.84 619.61 138.71 620.37 137.65 620.85 136.48 621.33 135.96 626.08 137.81 627.81 138.05 629.84 137.52 631.52 136.71 633.15 136.2 634.98 136.62 636.75 138.37 636.83 140.35 636.23 142.25 635.98 143.78 638 147.04 641.05 149.76 642.93 152.62 641.36 156.25 643.86 156.22 651.72 154.93 653.44 155.74 657.1 158.74 652.7 161.98 651.85 164.73 651.33 167.67 650.04 170.08 650.33 176.11 649.39 188.81 651.15 193.44 653.42 194.89 655.4 195.37 656.84 196.55 657.38 200.18 656.74 203.15 Z" id="GHA-2155" data-name="Northern"/>
<path d="M 556.21 6.01 557.54 8.98 560.51 11.69 564.16 13.69 567.46 14.52 570.74 14.19 576.83 12.6 580.2 12.54 586.19 14.8 588.9 18.99 589.47 24.54 588.96 30.9 588.53 33.14 587.28 34.38 585.71 35.36 584.27 36.85 583.4 38.54 579.52 56.55 579.66 58.29 580.57 61.81 580.24 63.72 578.69 65.18 575.03 67.63 572.5 70.8 571.14 73.93 570.19 81.42 569.57 83.96 569.49 83.98 566.04 84.81 554.69 90.58 546.01 91.28 527.69 95.12 525.35 95.88 524 96.77 522.51 96.95 514.23 100.6 509.85 101.77 508.64 101.81 505.4 101.53 504.38 101.31 503.57 100.88 502.27 99.58 501.52 98.97 500.31 98.61 499.42 98.82 498.69 99.33 498.14 100.04 497.72 100.86 497.36 101.77 496.27 107.26 495.89 108.15 495.26 109.07 494.05 110.25 492.97 110.73 491.93 110.82 491.15 110.45 490.29 109.89 489.17 109.51 487.19 109.49 486 109.81 484.89 110.41 482.63 112.19 481.53 112.6 480.49 112.69 477.82 111.77 471.97 111.81 470.8 112.21 469.96 112.8 468.81 114.51 467.93 115.4 466.31 116.49 465.25 116.54 464.37 116.14 463.68 115.58 462.7 115.35 461.15 116.54 460.38 116.65 459.73 116.28 459.39 115.49 459.47 114.58 459.83 113.77 461.68 111.89 462.24 111.19 462.61 110.31 462.9 109.34 463.06 108.32 463.09 107.22 462.91 106.21 462.61 105.27 462.11 104.54 461.43 103.96 460.69 103.46 460.02 102.88 459.59 102.14 459.44 101.24 459.59 100.43 459.98 99.77 460.57 99.18 460.95 98.41 461.03 97.47 460.78 96.59 460.32 95.8 459.26 95.2 457.72 94.75 446.96 94.5 445.13 94.8 443.99 95.38 443.67 96.33 443.26 99.66 442.87 100.56 442.04 101.35 440.92 102.06 438.95 102.84 437.77 103.45 436.98 104.17 436.73 105.12 436.55 107.08 436.27 107.86 435.88 108.42 435.06 109.35 434.58 110.05 433.92 111.88 433.53 112.74 433.03 113.49 425.94 119.84 425.92 119.85 425.06 120.56 424.52 121.17 422.57 122.65 420.68 123.59 419.5 123.76 418.79 123.4 418.78 122.65 419.19 121.98 421.34 119.88 421.37 119.84 421.41 119.81 422.3 118.83 422.69 118.15 422.45 117.5 421.36 117.04 418.64 117.13 417.03 116.96 415.89 116.57 415.14 116.06 414.32 115.62 413.27 115.4 410.98 115.14 408.58 114.47 406.64 114.23 405.3 114.31 403.23 114.81 384.42 121.7 382.92 122.65 382.27 123.23 381.65 123.88 381.14 124.61 380.35 126.32 379.57 129.31 378.74 130.43 377.36 131.58 371.16 134.57 369.89 135.78 368.9 137.26 368.53 138.12 368.31 139.06 368.26 140.05 368.31 141.1 369.62 147.13 369.83 149.33 369.8 150.49 369.64 151.57 369.37 152.56 368.59 153.63 367.43 154.63 365.02 155.98 363.9 155.93 363.09 155.44 362.75 154.55 362.33 153.75 361.49 153.27 360.3 153.14 357.43 153.25 356.33 153.09 355.43 152.74 352.23 150.99 351.51 150.45 350.7 150.02 349.74 149.76 348.71 149.63 347.76 149.37 347.08 148.81 346.65 148.02 345.97 146.26 345.37 145.6 344.66 145.08 343.83 144.64 343.07 144.14 342.46 143.53 341.99 142.76 341.39 141.08 341.1 139.48 342.35 138.34 342.56 137.33 342.84 134.39 342.4 130.76 341.46 127.6 340.69 126.09 339.85 125.1 338.15 124.33 337.16 124.22 336.27 124.4 335.51 124.85 333.8 126.84 333.21 127.34 332.71 127.56 332.29 127.56 331.87 127.27 330.04 125.63 328.51 124.77 327.13 123.73 326.52 123.09 326.09 122.3 325.51 120.41 325.35 119.38 325.7 117.71 325.78 116.56 325.31 115.35 324.66 114.72 322.15 113.45 321.17 113.22 319.04 112.97 318.18 112.62 317.61 112.08 316.87 111.1 316.35 110.57 315.7 110.09 314.82 109.73 314.14 109.17 313.71 108.36 313.38 107.46 312.97 106.62 312.38 105.97 311.54 105.58 310.43 105.45 309.36 105.41 308.3 105.23 307.58 104.73 307.05 104 306.38 102.23 305.95 101.42 305.58 100.54 305.32 99.6 304.29 93.27 303.96 92.35 303.19 90.72 303.01 89.5 302.95 87.85 303.86 82.78 304.39 81.03 305.04 79.57 306.71 77.66 307.91 76.74 308.98 76.13 310.7 75.35 311.69 74.63 314.24 71.65 316.73 69.44 317 68.7 317.15 67.64 317.24 65.35 317.57 63.79 318.89 62.02 321.58 60.09 322.19 59.45 323.01 59 323.95 58.68 324.8 57.96 325.45 56.76 325.52 49.28 325.26 48.25 325.17 47.23 325.41 46.25 326.12 44.93 326.51 43.46 326.58 41.04 326.26 38.27 327.2 34.76 330.73 27 332.53 27.7 338.48 29.99 342.98 30.8 365.79 31.03 387.4 31.23 388.98 28.5 394.07 27.72 418.79 29.66 420.3 29.96 421.66 30.9 422.91 33.32 423.83 33.89 425.7 33.82 424.51 36.27 427.63 35.84 431.64 31.48 435.48 30.85 436.51 29.6 437.56 29.17 438.57 29.57 439.5 30.85 439.5 30.9 459.93 31.26 461.19 31.29 461.43 33.31 462.23 33.48 463.48 33.02 465.15 33.17 466.21 34.43 465.45 35.86 464.1 37.29 463.56 38.54 472.17 46.72 475.31 44.8 477.13 40.76 478.44 36.35 480.09 33.37 482.67 32.41 486.4 32.02 493.38 32.25 494.01 32.05 494.6 31.75 495.13 31.35 495.58 30.9 495.58 30.87 497.26 28.82 501.98 26.61 504.1 24.91 505.08 23.01 505.47 18.94 506.31 16.33 509.75 12.02 513.21 12.02 516.61 14.72 519.84 18.52 528.82 12.04 531.1 9.86 532.5 7.19 532.1 5.58 531.4 3.9 531.9 1 556.21 6.01 Z" id="GHA-2156" data-name="Upper East"/>
<path d="M 330.73 27 327.2 34.76 326.26 38.27 326.58 41.04 326.51 43.46 326.12 44.93 325.41 46.25 325.17 47.23 325.26 48.25 325.52 49.28 325.45 56.76 324.8 57.96 323.95 58.68 323.01 59 322.19 59.45 321.58 60.09 318.89 62.02 317.57 63.79 317.24 65.35 317.15 67.64 317 68.7 316.73 69.44 314.24 71.65 311.69 74.63 310.7 75.35 308.98 76.13 307.91 76.74 306.71 77.66 305.04 79.57 304.39 81.03 303.86 82.78 302.95 87.85 303.01 89.5 303.19 90.72 303.96 92.35 304.29 93.27 305.32 99.6 305.58 100.54 305.95 101.42 306.38 102.23 307.05 104 307.58 104.73 308.3 105.23 309.36 105.41 310.43 105.45 311.54 105.58 312.38 105.97 312.97 106.62 313.38 107.46 313.71 108.36 314.14 109.17 314.82 109.73 315.7 110.09 316.35 110.57 316.87 111.1 317.61 112.08 318.18 112.62 319.04 112.97 321.17 113.22 322.15 113.45 324.66 114.72 325.31 115.35 325.78 116.56 325.7 117.71 325.35 119.38 325.51 120.41 326.09 122.3 326.52 123.09 327.13 123.73 328.51 124.77 330.04 125.63 331.87 127.27 332.29 127.56 332.71 127.56 333.21 127.34 333.8 126.84 335.51 124.85 336.27 124.4 337.16 124.22 338.15 124.33 339.85 125.1 340.69 126.09 341.46 127.6 342.4 130.76 342.84 134.39 342.56 137.33 342.35 138.34 341.1 139.48 335.33 137.66 328.85 134.32 325 132.8 322.59 132.55 321.37 132.58 320.14 132.72 318.8 133.1 317.96 133.57 317.32 134.1 314.92 137.17 311.36 143.83 310.25 145.27 307.72 147.74 300.53 153 298.31 155.25 296.58 157.62 295.58 159.53 295.24 160.49 294.78 162.6 294.32 169.56 294.12 170.63 293.73 171.85 290.82 177.07 290.3 178.29 290.25 179.46 291.38 180.77 305.04 192.78 306.4 194.22 307.14 195.52 306.68 196.56 305.97 197.19 304.07 197.88 301.79 199.05 301 199.27 300.15 199.33 299.09 199.3 298 199.16 296.24 198.49 295.35 198.33 294.47 198.49 293.59 198.76 291.35 199.13 290.23 199.55 290.03 200.1 290.5 200.54 293.51 201.28 294.37 201.78 294.9 202.5 294.72 203.91 294.1 204.66 293.14 205.05 292.06 205.07 291.04 204.87 289.97 204.79 288.98 204.84 286.58 206.2 285.43 206.51 283.97 207.2 283.15 207.9 282.6 208.66 282.23 209.48 282.22 209.5 281.5 211.41 281.36 212.45 281.61 215.5 281.54 216.41 281.61 217.33 281.88 218.17 283.36 220.36 283.65 221.3 283.83 222.35 283.77 223.58 283.51 225.07 282.83 227.03 282.47 229 281.89 230.16 281.24 230.9 280.38 231.31 276.2 232.55 274.56 233.72 273.41 235.17 271.92 237.71 270.86 238.73 269.76 239.32 265.41 239.45 255.41 238.18 254.72 238.18 251.85 238.73 249.58 238.92 237.95 238.18 214.61 243.32 207.82 243.55 203.46 242.97 201.36 242.5 196.62 242.14 194.21 242.19 192.09 242.5 186.3 244.18 185.21 244.29 169.28 243.12 168.26 243.23 151.65 248.33 149.5 248.65 140.57 248.77 137.89 249.26 135.13 250.04 133.69 250.68 132.61 251.32 131.94 251.92 130.95 253.35 130.52 254.18 129.41 257.51 128.5 258.98 127.56 259.7 126.32 260.2 123.06 260.95 121.91 261.5 121.04 262.13 120.5 262.85 119.47 264.59 118.63 265.76 117.14 267.44 115.65 268.43 114.37 268.93 94.08 271.68 92.71 270.63 92.14 268.99 91.92 267.35 91.01 265.9 89.44 265.12 88.44 265.23 87.46 265.07 86 263.45 84.77 259.73 85.44 255.98 88.44 249.98 94.64 243.12 95.78 241.3 95.27 239.54 91.01 232.74 90.23 228.21 91.9 220.07 92.11 215.48 90.94 212.25 86.88 206.2 86 202.57 86 192.96 86 187.21 84.12 179.11 84.21 175.54 86.55 171.85 90.18 169.03 91.52 167.45 92.11 165.06 92.01 162.76 91.4 161.81 90.23 161.27 88.44 160.17 86.72 159.53 85.15 159.58 83.99 159.15 83.55 157.11 82.91 155.91 81.38 155.54 79.55 155.33 77.98 154.66 76.53 151.73 76.53 147.97 77.43 144.32 78.65 141.69 79.93 140.03 81.31 138.93 83.05 138.32 85.37 138.13 87.33 137.37 88.97 135.68 89.75 134 89.05 133.23 84.67 133.12 81.75 132.63 79.55 131.52 73.25 126.03 71.85 123.77 71.3 120.27 70.77 119.42 68.35 117.04 67.52 115.99 67.04 114.23 66.74 110.41 66.31 108.64 60.93 99.21 60.17 95.79 60.68 94.01 63.09 89.73 64.18 86.79 64.68 86.1 65.08 85.31 65.08 84.15 64.56 83.36 63.73 82.97 62.96 82.82 62.61 82.82 62.42 82.02 62 80.21 62.54 79.13 64.46 77.25 65.44 75.55 66.09 71.46 69.11 66.6 71.09 58.29 72.41 54.55 74.82 51.81 77.68 49.65 80.09 47.02 81.1 42.92 80.03 39.49 78.06 36.31 76.99 32.88 77.49 31.61 77.24 30.57 92.7 30.85 92.77 32.75 96.7 32.72 113.53 32.55 148.52 32.2 191.9 31.78 232.24 31.38 271.47 31 299.33 30.73 301.43 29.56 302.72 26.41 305.84 25.45 328.49 26.14 330.73 27 Z" id="GHA-2157" data-name="Upper West"/>
<path d="M 547.66 712.86 537.35 714.7 534.12 715.84 532.75 716.91 531.5 718.13 527.96 722.57 526.82 723.72 524.62 725.53 522.47 726.82 513.55 729.78 511.55 730.66 510.2 731.45 508.97 732.7 508.4 733.6 506.44 735.76 504.73 736.27 480.78 736.71 478.06 737.28 476.03 739.01 443.81 783.85 442.33 785.11 441.18 785.82 440.27 786.13 427.33 787.93 423.4 789.38 419.05 791.44 417.23 792.73 416.07 793.86 415.36 795.63 414.87 797.57 414.78 798.63 414.84 799.68 415.04 800.65 415.38 801.51 416.28 803.04 417.38 804.43 418.64 805.66 422.83 808.89 423.46 809.47 424.05 810.14 425 811.61 425.81 813.25 426.28 815.15 426.32 816.09 426.27 816.7 425.63 817.87 424.48 819.31 419.44 824.29 418.43 825.72 418.01 826.52 417.15 827.71 393.9 851.66 386.21 863.69 383.49 870.88 381.4 878.7 380.99 881.14 380.52 882.52 379.53 884.52 378.74 885.61 378.01 886.44 376.62 887.51 372.61 889.8 372.25 890.52 372.53 891.09 373.08 891.74 373.55 892.48 373.87 893.38 373.98 894.4 373.98 895.5 373.63 897.71 373.2 899.12 371.17 902.54 370.74 903.52 370.87 904.32 371.15 905.04 371.03 906.78 371.44 907.35 372.22 907.59 372.99 908.1 373.44 908.83 373.38 909.94 372.71 910.55 370.5 911.18 369.89 911.89 369.59 912.89 369.4 913.94 368.15 917.9 367.64 919.04 366.11 921.57 364.76 925.3 364.59 926.54 364.59 926.69 364.35 927.66 363.26 930.02 363.02 930.85 363.08 931.6 363.44 932.14 364.09 932.17 364.85 932.03 365.73 932.07 366.36 932.49 366.92 933.14 366.99 935.57 363.74 941.94 363.53 942.85 363.3 943.17 362.91 943.58 361.69 944.41 361.4 945.26 361.23 946.14 361 946.76 360.52 946.68 359.98 946.1 359.43 945.8 358.49 946.01 357.02 947.06 356.18 947.43 355.25 947.72 354.29 947.74 353.52 947.6 353.03 946.68 352.66 945.78 352.38 944.76 351.99 943.96 351.27 943.52 350.06 943.67 349.06 943.92 348.04 943.88 347.09 943.51 345.89 942.6 341.8 941.53 340.35 941.55 339.31 941.83 338.72 942.42 337.9 942.77 336.99 942.95 335.96 942.99 332.56 943.62 331.95 944.29 331.45 945 330.89 945.53 329.32 945.78 328.59 946.08 327.77 946.33 325.77 946.29 324.03 946.67 323.69 947.25 323.8 947.97 324.08 948.71 324.16 949.56 323.14 951.97 322.65 952.65 321.9 952.98 321.03 952.9 319.42 952.34 317.78 951.59 314.92 949.91 314.23 948.75 314.17 947.86 314.89 947.43 315.73 947.32 316.45 947.11 316.79 946.54 316.78 945.72 316.37 944.78 315.62 943.78 314.23 942.41 313.16 941.77 310.27 941.24 308.56 940.67 307.58 940.8 306.68 941.01 305.72 941.09 303.79 941.03 302.12 941.53 301.1 941.55 299.66 941.02 297.43 940.91 295.53 941.26 291.48 941.53 289.49 941.92 288.27 941.89 287.36 942.23 286.2 942.3 284.57 941.92 281.86 940.52 280.35 939.92 279.14 939.22 278.29 937.82 277.41 936.96 272.52 934.98 270.56 934.9 268.03 934.37 267.4 933.81 266.88 932.75 266.27 932.09 262.39 930.14 261.55 929.43 261.25 928.13 261.22 927.23 261.28 926.61 261.5 925.58 261.76 924.77 261.79 923.9 261.42 923.1 259 922 257.11 921.82 256.27 921.93 255.61 922.26 254.53 923.34 253.86 923.75 253.02 924.06 251.83 924.07 250.37 923.84 248.09 922.74 246.92 922.78 246.14 923.21 245.71 923.95 245.17 924.55 244.31 924.59 243.18 924.27 241.56 922.79 238.64 919.11 237.99 918.45 237.28 918.22 236.5 918.24 235.39 917.3 234.27 915.41 231.73 908.35 230.86 906.81 229.71 906.36 228.79 906.43 227.39 906.93 226.81 906.99 225.88 905.91 225.06 903.76 222.42 889.85 222.8 888.71 223.33 887.8 223.94 887.18 224.3 886.37 224.47 885.34 224.19 882.74 224.26 881.59 224.55 880.61 225.36 878.93 225.62 878.05 225.72 877.12 225.59 876.3 225.22 875.04 223.07 873.77 214.78 873.38 210.62 873.56 209.25 873.36 208.14 872.88 207.03 871.63 206.48 870.57 206.08 869.56 205.3 866.67 204.93 865.8 203.52 863.57 202.88 862.97 202.14 862.46 201.27 862.07 188.12 859.03 186.5 858.24 186.04 857.44 185.82 856.52 185.77 855.42 186.02 853.21 189.45 843.09 189.45 842.12 189.36 841.19 189.23 840.59 189 839.88 188.49 839.24 187.63 838.7 186.21 838.47 184.79 838.69 180.95 839.99 179.59 839.99 178.46 839.74 172.94 836.36 171.21 835.58 170.3 835.32 169.24 835.26 168.25 835.73 167.3 836.6 166.32 838.66 165.86 840.09 164.05 852.61 163.55 854.57 162.88 856.44 162.02 858.23 161.45 859.11 159.14 861.33 158.46 861.8 156.84 862.58 155.89 862.86 154.77 862.97 153.49 862.96 151.89 862.78 150.91 862.14 150.48 861.69 151.03 857.41 151.34 855.67 151.34 854.84 151.07 853.92 150.47 853.32 148.61 852.68 147.9 852.18 147.51 851.48 147.54 850.58 147.9 849.8 148.9 848.56 148.91 847.81 148.23 846.52 148.29 845.79 149.68 843.65 150.25 841.77 150.69 840.85 151.33 840.08 152.31 839.26 153.2 837.31 153.69 836.46 154.41 835.73 155.41 834.96 156.57 833.36 157.21 832.76 157.92 832.23 158.46 831.55 159.15 829.78 159.72 829 159.65 828.19 159.4 827.37 158.53 825.84 158.37 824.98 158.55 824.12 158.97 823.35 159.94 821.95 160.08 821.16 159.78 820.42 159.23 819.78 156.92 818.38 156.32 817.77 156 816.9 155.75 813.72 155.38 812.89 154.71 812.35 153.04 811.69 152.52 811.06 152.35 810.08 152.43 809.04 153.06 806.02 153.16 805 153.35 804.18 153.85 803.67 155.25 803.8 159.71 804.82 162.07 805.05 163.76 804.8 165.77 804.3 169.45 802.86 171.21 801.97 172.39 801.21 173 800.57 173.54 799.91 174.43 798.16 175.14 796.17 175.38 795.15 176.69 784.74 177.26 782.84 177.66 782.02 178.2 781.27 178.81 780.64 179.67 780.02 180.72 779.42 182.33 778.74 183.35 778.18 184.03 777.55 184.21 776.76 183.94 775.98 183.46 775.23 182.79 774.58 182.06 774.08 181.16 773.66 179.09 773.09 175.58 772.68 166.51 772.46 160.09 774.27 159.03 774.37 158.06 774.3 157.11 773.9 157.14 773.29 157.34 772.48 157.68 771.55 158.25 770.88 158.99 770.42 160.66 769.66 161.44 769.21 163.5 767.54 164.1 766.91 165.13 765.47 166.47 764.34 167.04 763.69 167.42 762.84 167.86 762.04 168.4 761.39 168.87 760.68 169.08 759.86 168.97 757.02 169.2 756.16 169.96 754.6 170.17 753.77 170.6 753.03 170.64 751.01 170.9 750.15 171.34 749.39 182.66 737.02 184.86 735.56 186.01 735.2 187.45 735.11 190.03 735.53 191.27 736.15 192.09 736.93 192.42 737.8 192.93 739.63 193.28 740.51 193.81 741.19 195.58 741.43 217.44 740.2 220.9 738.98 225.81 736.2 230.68 732.66 233.13 730.02 237.33 724.39 239.27 722.46 240.51 721.91 242.3 721.45 246.1 721.02 248.01 720.62 249.42 720.18 250.12 719.64 250.61 718.92 251.89 715.31 252.05 714.4 251.61 711.54 251.74 710.56 252.08 709.68 253.47 707.3 253.65 706.45 253.64 705.83 253.13 705.47 244.31 703.27 242.52 702.62 241.03 701.58 236.3 696.49 229.52 690.91 228.81 690.55 227.99 690.5 227.34 690.55 220.67 691.89 219.64 691.91 218.69 691.66 217.92 691.26 217.23 690.66 213.23 686.03 212.51 685.52 211.6 685.15 210.6 684.96 208.41 684.96 206.27 685.17 204.14 684.89 203.21 684.6 202.47 684.25 202.01 683.9 201.88 683.32 201.94 682.44 202.14 681.45 202.85 679.73 203.11 678.84 203.11 675.72 203.27 674.69 203.52 673.82 204.64 672.55 205.08 671.77 205.63 669.84 205.98 668.95 206.42 668.14 206.71 667.19 206.9 666.12 207.17 665.19 208.54 664.65 210.89 664.66 219.35 665.98 222 665.68 223.06 665.15 224.56 663.98 225.79 663.72 230.2 663.8 231.68 663.56 233.04 663.48 234.07 663.66 236.07 664.84 237.3 665.23 239 665.4 245.71 665.16 246.72 664.95 248.55 664.29 252.5 663.31 253.69 663.26 254.9 663.45 256.38 664.3 257.05 665.26 257.41 666.37 257.85 674.23 258.27 676.26 258.63 677.1 259.12 677.82 260.73 678.66 263.6 679.56 267.56 681.77 269.68 683.47 271.35 685.46 271.98 686.06 272.88 686.54 274.01 686.72 275.75 686.41 276.94 686.07 280.65 684.65 281.61 684.42 282.71 684.35 283.96 684.49 286.71 685.77 288.15 686.16 289.81 686.28 292.77 685.92 294.19 685.36 295.24 684.71 296.46 683.43 299.25 678.85 301.12 677 302.66 676.08 303.58 675.76 304.88 675.61 309.04 675.54 310.8 675.22 312.76 674.54 313.35 673.53 313.57 672.44 313.45 671.35 312.43 667.47 311.05 663.98 310.8 663.06 310.79 662.13 311.04 661.43 311.27 661.02 311.77 660.46 317.06 656.63 324.3 652.35 325.67 651.25 327.86 648.48 333.72 639.18 334.95 637.87 335.63 637.31 337.18 636.43 338.08 636.07 338.99 635.81 339.98 635.66 341.27 635.85 342.88 636.41 345.45 637.97 346.68 639.02 347.54 639.97 348.36 641.57 349.66 645.13 349.98 647.02 350.36 655.72 350.78 657.45 351.45 659.13 351.87 659.92 352.9 661.36 353.86 662.48 354.82 663.29 356.22 663.77 358.24 664.29 362.44 664.83 366.3 664.94 370.28 664.34 373.75 664.36 374.76 664.15 375.76 663.81 376.59 663.45 377.51 663.18 379.46 662.89 380.43 662.61 381.57 662.39 383.22 662.31 385.93 661.74 387.95 661.6 391.28 660.75 392 660.24 392.5 659.52 393.17 657.67 393.6 656.84 394.13 656.18 395.41 654.98 397.67 653.48 398.22 652.84 399.21 651.35 399.75 650.72 400.89 650.36 402.48 650.37 407.61 651.1 408.5 651.46 410.09 653.09 410.98 653.56 412.38 653.55 414.57 653.1 415.49 653.06 416.38 653.35 417.75 655.11 418.55 655.8 419.47 656.19 421.16 656.18 423.54 655.91 425.59 656.04 426.46 655.91 427.71 654.87 428.59 654.44 429.81 654.28 431.38 654.33 432.57 654.2 433.72 654.37 435.6 655.48 437.2 656.16 439.67 656.79 440.99 656.94 441.93 657.3 442.2 657.99 442.73 658.63 443.48 658.9 444.55 658.57 445.27 657.97 445.89 657.23 446.73 655.56 447.2 655.05 447.9 654.91 449.02 655.83 450.32 656.04 451.33 655.88 453.99 653.52 455.58 652.64 459.24 651.4 460.06 650.99 460.75 650.49 462.18 650.74 464.28 651.93 468.61 655.56 471.75 658.78 475.85 665.43 479.06 673.16 480.9 676.21 482.05 677.49 483.18 678.26 484.74 679.05 490.22 680.76 508.93 684.04 534.22 693.28 535.19 693.73 536.19 694.34 539.68 698.79 547.66 712.86 Z" id="GHA-2158" data-name="Ashanti"/>
<path d="M 515.18 543.16 525.41 545.86 528.94 547.56 553.92 567.49 556.04 570.02 558.14 573.32 565.86 591.3 566.35 593.23 567.11 599.68 567.69 601.49 568.14 602.43 572.52 609.39 573.97 610.89 575.61 612.16 577.39 612.9 579.31 613.36 583.33 613.96 584.65 614.43 586.77 615.75 587.77 617.1 588.44 618.92 588.69 621.2 592.98 632.99 604.8 653.17 606.92 658.36 607.17 659.36 607.72 670.02 608.06 671.52 608.84 673.66 609.56 674.8 610.35 675.61 616.96 678.92 621.86 680.29 623.09 680.9 624.5 681.77 626.76 683.68 627.78 684.9 628.45 686.02 629.26 691.36 629.23 693.73 628.51 699.18 625.48 708.68 625.25 710.78 625.25 711.82 626.09 717.44 617.66 714.48 616.46 714.41 615.18 714.52 612.43 715.69 609.2 717.62 606.58 718.7 605.58 718.92 604.33 718.95 602.83 718.67 600.72 717.83 596.79 715.82 594.98 715.12 592.98 714.62 547.66 712.86 539.68 698.79 536.19 694.34 535.19 693.73 534.22 693.28 508.93 684.04 490.22 680.76 484.74 679.05 483.18 678.26 482.05 677.49 480.9 676.21 479.06 673.16 475.85 665.43 471.75 658.78 468.61 655.56 464.28 651.93 462.18 650.74 460.75 650.49 460.06 650.99 459.24 651.4 455.58 652.64 453.99 653.52 451.33 655.88 450.32 656.04 449.02 655.83 447.9 654.91 447.2 655.05 446.73 655.56 445.89 657.23 445.27 657.97 444.55 658.57 443.48 658.9 442.73 658.63 442.2 657.99 441.93 657.3 440.99 656.94 439.67 656.79 437.2 656.16 435.6 655.48 433.72 654.37 432.57 654.2 431.38 654.33 429.81 654.28 428.59 654.44 427.71 654.87 426.46 655.91 425.59 656.04 423.54 655.91 421.16 656.18 419.47 656.19 418.55 655.8 417.75 655.11 416.38 653.35 415.49 653.06 414.57 653.1 412.38 653.55 410.98 653.56 410.09 653.09 408.5 651.46 407.61 651.1 402.48 650.37 400.89 650.36 399.75 650.72 399.21 651.35 398.22 652.84 397.67 653.48 395.41 654.98 394.13 656.18 393.6 656.84 393.17 657.67 392.5 659.52 392 660.24 391.28 660.75 387.95 661.6 385.93 661.74 383.22 662.31 381.57 662.39 380.43 662.61 379.46 662.89 377.51 663.18 376.59 663.45 375.76 663.81 374.76 664.15 373.75 664.36 370.28 664.34 366.3 664.94 362.44 664.83 358.24 664.29 356.22 663.77 354.82 663.29 353.86 662.48 352.9 661.36 351.87 659.92 351.45 659.13 350.78 657.45 350.36 655.72 349.98 647.02 349.66 645.13 348.36 641.57 347.54 639.97 346.68 639.02 345.45 637.97 342.88 636.41 341.27 635.85 339.98 635.66 338.99 635.81 338.08 636.07 337.18 636.43 335.63 637.31 334.95 637.87 333.72 639.18 327.86 648.48 325.67 651.25 324.3 652.35 317.06 656.63 311.77 660.46 311.27 661.02 311.04 661.43 310.79 662.13 310.8 663.06 311.05 663.98 312.43 667.47 313.45 671.35 313.57 672.44 313.35 673.53 312.76 674.54 310.8 675.22 309.04 675.54 304.88 675.61 303.58 675.76 302.66 676.08 301.12 677 299.25 678.85 296.46 683.43 295.24 684.71 294.19 685.36 292.77 685.92 289.81 686.28 288.15 686.16 286.71 685.77 283.96 684.49 282.71 684.35 281.61 684.42 280.65 684.65 276.94 686.07 275.75 686.41 274.01 686.72 272.88 686.54 271.98 686.06 271.35 685.46 269.68 683.47 267.56 681.77 263.6 679.56 260.73 678.66 259.12 677.82 258.63 677.1 258.27 676.26 257.85 674.23 257.41 666.37 257.05 665.26 256.38 664.3 254.9 663.45 253.69 663.26 252.5 663.31 248.55 664.29 246.72 664.95 245.71 665.16 239 665.4 237.3 665.23 236.07 664.84 234.07 663.66 233.04 663.48 231.68 663.56 230.2 663.8 225.79 663.72 224.56 663.98 223.06 665.15 222 665.68 219.35 665.98 210.89 664.66 208.54 664.65 207.17 665.19 206.9 666.12 206.71 667.19 206.42 668.14 205.98 668.95 205.63 669.84 205.08 671.77 204.64 672.55 203.52 673.82 203.27 674.69 203.11 675.72 203.11 678.84 202.85 679.73 202.14 681.45 201.94 682.44 201.88 683.32 202.01 683.9 202.47 684.25 203.21 684.6 204.14 684.89 206.27 685.17 208.41 684.96 210.6 684.96 211.6 685.15 212.51 685.52 213.23 686.03 217.23 690.66 217.92 691.26 218.69 691.66 219.64 691.91 220.67 691.89 227.34 690.55 227.99 690.5 228.81 690.55 229.52 690.91 236.3 696.49 241.03 701.58 242.52 702.62 244.31 703.27 253.13 705.47 253.64 705.83 253.65 706.45 253.47 707.3 252.08 709.68 251.74 710.56 251.61 711.54 252.05 714.4 251.89 715.31 250.61 718.92 250.12 719.64 249.42 720.18 248.01 720.62 246.1 721.02 242.3 721.45 240.51 721.91 239.27 722.46 237.33 724.39 233.13 730.02 230.68 732.66 225.81 736.2 220.9 738.98 217.44 740.2 195.58 741.43 193.81 741.19 193.28 740.51 192.93 739.63 192.42 737.8 192.09 736.93 191.27 736.15 190.03 735.53 187.45 735.11 186.01 735.2 184.86 735.56 182.66 737.02 171.34 749.39 170.9 750.15 170.64 751.01 170.6 753.03 170.17 753.77 169.96 754.6 169.2 756.16 168.97 757.02 169.08 759.86 168.87 760.68 168.4 761.39 167.86 762.04 167.42 762.84 167.04 763.69 166.47 764.34 165.13 765.47 164.1 766.91 163.5 767.54 161.44 769.21 160.66 769.66 158.99 770.42 158.25 770.88 157.68 771.55 157.34 772.48 157.14 773.29 157.11 773.9 158.06 774.3 159.03 774.37 160.09 774.27 166.51 772.46 175.58 772.68 179.09 773.09 181.16 773.66 182.06 774.08 182.79 774.58 183.46 775.23 183.94 775.98 184.21 776.76 184.03 777.55 183.35 778.18 182.33 778.74 180.72 779.42 179.67 780.02 178.81 780.64 178.2 781.27 177.66 782.02 177.26 782.84 176.69 784.74 175.38 795.15 175.14 796.17 174.43 798.16 173.54 799.91 173 800.57 172.39 801.21 171.21 801.97 169.45 802.86 165.77 804.3 163.76 804.8 162.07 805.05 159.71 804.82 155.25 803.8 153.85 803.67 153.35 804.18 153.16 805 153.06 806.02 152.43 809.04 152.35 810.08 152.52 811.06 153.04 811.69 154.71 812.35 155.38 812.89 155.75 813.72 156 816.9 156.32 817.77 156.92 818.38 159.23 819.78 159.78 820.42 160.08 821.16 159.94 821.95 158.97 823.35 158.55 824.12 158.37 824.98 158.53 825.84 159.4 827.37 159.65 828.19 159.72 829 159.15 829.78 158.46 831.55 157.92 832.23 157.21 832.76 156.57 833.36 155.41 834.96 154.41 835.73 153.69 836.46 153.2 837.31 152.31 839.26 151.33 840.08 150.69 840.85 150.25 841.77 149.68 843.65 148.29 845.79 148.23 846.52 148.91 847.81 148.9 848.56 147.9 849.8 147.54 850.58 147.51 851.48 147.9 852.18 148.61 852.68 150.47 853.32 151.07 853.92 151.34 854.84 151.34 855.67 151.03 857.41 149.63 857.35 148.01 856.55 145.67 854.85 143.68 853.73 142.76 853.45 141.7 853.25 136.77 853 135.78 852.82 134.76 852.4 133.93 851.62 125.97 834.78 125.22 833.94 124.14 833.16 122.05 832.24 118.46 831.2 117.58 830.84 116.71 830.3 115.87 829.48 114.92 828.19 114.18 826.3 113.41 822.7 112.71 821.71 111.58 820.78 109.22 819.64 107.55 819.22 106.05 819.04 99.27 819.6 96.95 819.57 94.98 819.07 94.16 818.65 87.15 813.31 85.47 812.5 80.62 811.21 79.74 810.75 79.02 810.19 78.46 809.29 78.55 808.03 78.37 806.53 77.93 804.8 76.72 801.93 76.28 800.12 76.08 798.59 76.21 797.5 76.47 796.53 77.94 793.11 78.12 792.16 78.08 791.16 77.52 789.28 77.16 788.44 76.89 787.5 76.72 786.51 76.65 783.33 76.35 782.19 73.57 776.05 72.68 772.27 68.42 764.42 66.41 762.15 63.76 759.83 58.32 756.84 55.63 755.74 53.66 755.3 51.72 755.69 44.93 758.45 44 758.68 43 758.72 40.76 758.5 39.63 758.06 38.56 757.47 37.19 756.4 36.39 755.56 35.76 754.77 33.88 751.4 32.65 747.75 30.8 738.35 30.63 737.75 30.75 737.67 30.95 737.55 39.83 734.67 40.74 733.4 42.22 724.43 43.13 722.62 51.35 712.38 52.94 708.9 53.07 706.45 52.28 705 51.08 703.51 49.95 701.01 49.78 698.91 58.56 643.95 60.95 636.69 73.9 609.09 74.59 607.92 76.4 605.74 77.09 604.56 77.13 603.59 76.61 601.27 76.76 600.37 78.3 598.91 82.29 596.52 83.72 594.99 84.31 593.01 85.09 579.62 85.61 578.3 86.74 578.17 87.93 578.96 88.84 579.98 89.09 580.56 92.02 578.11 100.2 568.72 103.5 566.39 114.2 562.83 117.9 560.96 119.67 558.64 119.84 555.51 118.68 551.22 116.31 546.06 115.87 543.8 116.63 540.97 117.88 538.58 119.03 537.51 120.51 537.6 122.79 538.67 124.86 538.89 127.3 538.07 135.36 533.35 136.59 530.61 128.34 480.39 120.09 430.17 119.23 427.35 120.31 426.79 120.83 427.56 121.37 427.84 122.76 428.12 126.55 430.14 133.77 437.92 133.92 437.69 134.66 437.57 135.6 437.63 136.33 437.92 138.78 440.36 143.99 450.14 150.72 455.31 152.25 459.39 153.23 461.34 157.51 463.94 158.48 465.46 158.91 467.28 162.15 473.53 161.08 476.9 162.53 479.82 164.71 482.49 165.83 485.16 166.59 486.3 169.96 487.39 170.72 488.89 171.01 490.51 173.17 494.45 174.85 500.83 176.27 512.08 177.96 514.47 180.35 516.19 183.08 517.71 185.61 520.09 190.67 526.35 196.16 529.19 200.79 536.92 203.9 539.86 210.38 541.44 218.18 541.31 235.27 537.82 236.02 537.33 237.17 536.19 240.12 531.29 241.64 529.84 243.86 526.62 246.81 523.28 250.52 521.5 254.87 521.94 262.02 525.43 265.88 526.28 269.25 525.32 271.05 522.89 271.68 519.71 271.56 516.49 268.56 509.78 262.98 508.49 256.11 509.05 249.3 507.92 247.36 506.31 245.86 503.81 244.86 500.75 244.51 497.46 244.07 496.07 243.29 494.61 242.95 493.04 243.85 491.33 246.34 488.39 247.32 486.64 248.08 484.55 248.58 481.19 248.08 470.41 248.32 466.58 249.12 462.82 250.63 459.33 252.97 456.28 260.28 453.15 273.64 457.38 278.9 455.05 281.2 454.47 282.46 453.4 283.01 452.73 283.46 451.87 284.06 450.03 284.47 449.2 284.97 448.49 285.91 447.79 287.16 447.22 289.38 446.6 290.79 446.58 301.42 448.66 303.24 448.74 307.63 448.29 309.68 447.84 313.11 446.36 314.67 445.48 315.39 444.94 315.97 444.29 316.38 443.42 317.41 438.17 317.67 437.24 318.06 436.37 318.54 435.59 319.11 434.91 319.77 434.31 322.68 432.44 327.06 431.82 336.69 431.46 338.91 431.59 340.96 432.12 342.62 432.91 343.32 433.45 344.57 434.67 345.26 435.23 346.89 436.99 349.52 439.17 358.46 445.12 359.98 445.91 363.07 446.9 366.91 447.67 369.64 447.91 373.44 447.91 374.96 448.34 375.91 449.02 376.88 451.74 377.74 455.71 380.37 461.69 381.08 464.57 381.17 465.43 381.17 466.41 381.01 467.41 380.37 469.23 378.49 472.7 377.43 473.96 368.26 482.18 367.2 483.57 366.34 485.23 366.06 486.17 365.86 487.22 365.74 493.1 365.59 494.17 365.28 495.13 364.86 495.94 364.31 496.68 363.77 497.29 362.48 498.47 361.77 499 360.52 500.23 359.4 501.66 358.92 502.41 358.52 503.25 358.28 504.16 359.22 505.44 361.05 507.14 365.96 510.34 368.41 513.51 370.3 516.72 389.4 569.83 390.41 571.45 391.69 572.19 393.54 572.69 394.75 573.36 396.09 574.32 396.98 574.5 397.57 574.04 398.47 572.51 399.55 571.09 401.09 568.09 401.42 567.7 401.98 567.27 402.71 566.81 403.57 566.39 404.36 565.75 404.9 564.89 405.18 563.84 405.34 562.71 405.28 558.38 405.1 557.42 404.85 556.51 404.15 554.91 402.24 551.88 401.5 550.29 401.14 548.32 401.14 547.16 401.28 546.04 401.5 545.02 401.83 544.09 402.26 543.3 402.8 542.51 403.47 541.92 404.26 541.44 405.9 540.79 411.63 539.42 412.48 539.05 413.92 538.05 416.56 535.63 417.71 534.28 418.58 532.68 421.42 525.21 421.87 524.46 422.39 523.77 422.91 523.2 424.42 521.99 426.05 521.05 427.76 520.27 430.37 519.45 431.2 519.06 431.97 518.62 433.26 517.46 434.45 516.19 436.7 513.25 437.87 511.98 438.47 511.53 439.01 511.23 439.57 511.02 440.38 510.88 441.39 510.78 443.63 510.91 447.08 511.48 449.36 511.62 451.17 511.51 455.16 510.74 459.21 510.48 460.37 510.67 461.36 510.98 462.2 511.38 463.57 512.46 466.52 515.54 468.59 518.34 469.2 518.97 469.74 519.66 470.34 520.31 470.87 521.02 489.44 535.95 499.41 541.72 502.72 542.87 510.05 543.98 513.27 543.8 515.18 543.16 Z" id="GHA-2159" data-name="Brong Ahafo"/>
<path d="M 363.74 941.94 369.62 945.04 374.88 947 375.73 947.75 376.21 948.56 381.81 960.65 384.42 965.13 385.37 966.16 385.81 966.49 386.95 966.78 388.58 966.94 404.05 966.71 405.34 966.85 407 967.2 409.67 968.09 411.06 968.84 412.81 970.12 413.99 970.51 415.6 970.65 420.05 970.11 422.25 969.62 424.27 969.37 427.77 969.72 445.21 973.5 446.13 973.88 448.19 974.39 452.03 974.42 482.3 972 487.1 972.76 495.16 975.9 501.82 988.98 504.48 992.98 506.03 994.2 507.8 995.03 508.77 995.33 511.58 996.78 514.05 998.53 515.19 999.7 516 1000.73 518.83 1007.09 521.56 1016.64 519.36 1017.7 506.19 1028.71 504.79 1030.73 503.85 1033.48 501.43 1035.98 495 1039.92 482.46 1043.01 480.32 1043.03 479 1044.32 476.1 1046.52 473.12 1047.47 471.63 1044.93 462.35 1051.41 460.06 1052.26 449.59 1060.84 445.32 1065.84 442.62 1067.53 429.3 1069.48 425.18 1069.29 422.55 1066.97 421.34 1068.51 419.64 1069.1 415.21 1069.4 410.89 1070.5 408.76 1070.41 407.85 1068.8 407.21 1067.18 405.78 1067.59 403.58 1069.4 400.62 1069.67 397.75 1070.43 379.05 1078.46 377.15 1081.09 375.55 1082.64 371.88 1084.79 364.79 1087.99 361.11 1088.75 349.44 1089.1 347.51 1089.64 343.36 1092.11 341.41 1092.89 339.6 1093.03 335.9 1092.8 334.07 1092.89 330.76 1093.96 324.25 1097.13 311.78 1098.91 307.73 1100.43 304.69 1102.6 304.69 1102.6 304.69 1102.56 303.15 1090.93 303.22 1089.02 303.93 1084.64 304.51 1082.64 305.29 1080.8 308.81 1074.29 309.93 1072.96 310.61 1072.4 311.34 1071.89 312.12 1071.47 312.93 1071.15 314.71 1070.64 315.62 1070.5 318.11 1070.54 319.09 1070.44 320.04 1070.23 320.83 1069.93 321.58 1069.49 322.31 1068.99 322.94 1068.39 325.15 1065.67 330.52 1061.51 331.08 1060.9 331.17 1059.91 330.62 1058.54 328.76 1056.43 327.59 1055.32 320.35 1050.7 314.48 1045.41 312.19 1042.75 311.57 1041.71 311 1040.38 309.75 1036.41 309.11 1035.09 308.33 1034.06 306.82 1032.61 305.72 1031.86 304.6 1031.29 302.79 1030.58 301.33 1029.5 300.69 1028.87 297.81 1025.41 296.65 1022.26 296.11 1020.16 296.03 1019.12 296.11 1018.05 296.48 1015.96 297.04 1014.05 297.45 1013.25 298.02 1012.59 298.82 1012.19 299.65 1011.94 300.41 1011.5 300.95 1010.84 301.84 1009.38 302.06 1008.66 301.98 1007.85 301.77 1006.99 300.07 1004.39 297.79 1001.95 295.39 999.88 292.17 998.06 290.46 997.32 288.55 996.69 286.34 996.33 282.03 996.25 280.99 996.05 280.06 995.72 279.21 995.29 277.14 993.62 276.32 993.17 275.39 992.8 274.28 992.63 273.2 992.59 271.13 992.81 269.3 993.31 263.32 995.68 262.37 995.8 261.37 995.73 260.5 994.8 259.77 993.23 259.15 989.63 259.09 987.73 259.26 986.12 260.4 983.24 261.38 979.39 261.61 977.42 261.47 973.83 261.59 972.78 261.9 971.83 262.35 971.07 262.9 970.37 264.14 969.12 264.64 968.45 264.71 967.52 264.32 966.45 263 965.42 260.71 964.39 260 963.65 259.58 962.54 259.41 960.61 259.64 957.86 260.37 954.64 260.48 953.58 260.08 951.98 259.16 950.12 256.72 946.76 255.38 945.25 254.24 944.27 253.33 943.91 249.14 942.9 248.22 942.49 247.4 942.03 244.18 939.55 243.58 938.96 243.08 938.39 234.96 926.69 231.56 923.18 230.84 922.7 230.15 922.14 227.42 920.72 221.78 918.37 221.01 917.95 220.39 917.47 219.73 916.65 217.79 911.85 217.2 910.75 215.41 908.84 213.91 907.85 210.23 906.61 209.27 906.41 207.83 905.92 204.9 904.54 199.63 901.04 198.94 900.31 197.59 898.07 197.09 896.65 196.8 895.5 196.57 893.19 196.68 890.94 197.02 888.8 197.28 887.85 198.15 886.79 199.54 885.66 202.59 884.03 207.46 882.07 209.68 880.52 212.6 877.83 213.88 876.05 214.78 873.38 223.07 873.77 225.22 875.04 225.59 876.3 225.72 877.12 225.62 878.05 225.36 878.93 224.55 880.61 224.26 881.59 224.19 882.74 224.47 885.34 224.3 886.37 223.94 887.18 223.33 887.8 222.8 888.71 222.42 889.85 225.06 903.76 225.88 905.91 226.81 906.99 227.39 906.93 228.79 906.43 229.71 906.36 230.86 906.81 231.73 908.35 234.27 915.41 235.39 917.3 236.5 918.24 237.28 918.22 237.99 918.45 238.64 919.11 241.56 922.79 243.18 924.27 244.31 924.59 245.17 924.55 245.71 923.95 246.14 923.21 246.92 922.78 248.09 922.74 250.37 923.84 251.83 924.07 253.02 924.06 253.86 923.75 254.53 923.34 255.61 922.26 256.27 921.93 257.11 921.82 259 922 261.42 923.1 261.79 923.9 261.76 924.77 261.5 925.58 261.28 926.61 261.22 927.23 261.25 928.13 261.55 929.43 262.39 930.14 266.27 932.09 266.88 932.75 267.4 933.81 268.03 934.37 270.56 934.9 272.52 934.98 277.41 936.96 278.29 937.82 279.14 939.22 280.35 939.92 281.86 940.52 284.57 941.92 286.2 942.3 287.36 942.23 288.27 941.89 289.49 941.92 291.48 941.53 295.53 941.26 297.43 940.91 299.66 941.02 301.1 941.55 302.12 941.53 303.79 941.03 305.72 941.09 306.68 941.01 307.58 940.8 308.56 940.67 310.27 941.24 313.16 941.77 314.23 942.41 315.62 943.78 316.37 944.78 316.78 945.72 316.79 946.54 316.45 947.11 315.73 947.32 314.89 947.43 314.17 947.86 314.23 948.75 314.92 949.91 317.78 951.59 319.42 952.34 321.03 952.9 321.9 952.98 322.65 952.65 323.14 951.97 324.16 949.56 324.08 948.71 323.8 947.97 323.69 947.25 324.03 946.67 325.77 946.29 327.77 946.33 328.59 946.08 329.32 945.78 330.89 945.53 331.45 945 331.95 944.29 332.56 943.62 335.96 942.99 336.99 942.95 337.9 942.77 338.72 942.42 339.31 941.83 340.35 941.55 341.8 941.53 345.89 942.6 347.09 943.51 348.04 943.88 349.06 943.92 350.06 943.67 351.27 943.52 351.99 943.96 352.38 944.76 352.66 945.78 353.03 946.68 353.52 947.6 354.29 947.74 355.25 947.72 356.18 947.43 357.02 947.06 358.49 946.01 359.43 945.8 359.98 946.1 360.52 946.68 361 946.76 361.23 946.14 361.4 945.26 361.69 944.41 362.91 943.58 363.3 943.17 363.53 942.85 363.74 941.94 Z" id="GHA-2160" data-name="Central"/>
<path d="M 626.09 717.44 626.87 727.04 626.42 730.23 625.95 730.98 624.59 734.06 623.45 737.63 623.11 739.65 623.11 741.16 623.42 742.07 624.17 746.21 624.59 751.3 624.42 754.13 624.09 756.01 623.64 756.94 622.11 759.08 619.6 761.51 618.91 762.04 615.74 765.01 614.88 766.45 613.9 768.55 612.24 773.23 611.74 775.55 611.62 777.32 612.21 779.24 613.01 780.84 613.57 781.51 614.24 782.08 615.02 782.53 617.74 783.48 619.46 784.29 620.86 785.37 622.03 786.65 623 788.19 623.73 789.87 624.75 797.56 624.64 799.59 624.34 801.02 623.78 801.72 623.17 802.29 616.1 806.38 615.38 806.94 612.96 809.42 612.43 810.1 611.82 810.72 611.29 811.43 610.71 812.07 610.18 812.76 609.34 814.83 606.5 825.37 605.94 828.73 605.86 830.98 606.39 831.63 607.31 831.89 612.6 831.52 613.51 831.69 614.4 831.98 615.21 832.45 615.82 833.06 616.27 833.86 616.77 835.75 617.49 839.91 617.77 840.87 618.07 841.7 619.02 843.23 620.28 844.46 622.56 845.89 623.36 846.74 624.14 847.93 624.87 850.45 624.95 852.08 624.81 853.56 619.63 869.24 619.21 870.06 618.24 871.56 617.68 872.22 617.1 872.82 614.24 874.94 611.21 876.7 603.16 879.78 602.37 880.8 603.33 882.69 604.55 886.13 604.93 889.28 604.05 891.54 602.76 893.91 602.14 897.1 602.33 900.12 603.44 901.98 611.9 908.37 615.1 909.34 627.4 909.03 630.52 909.46 632.81 910.8 636.61 913.94 642.84 917.6 643.56 918.87 643.84 920.32 643.37 936.75 635.6 945.54 632.85 948.11 630.49 949.57 629.48 949.91 628.06 950.01 626.95 949.84 625.98 949.46 625.25 948.95 623.39 947.18 622.25 945.89 619.89 942.24 619.32 941.51 618.55 940.75 613.63 938.65 612.85 938.19 611.4 937.15 610.12 935.97 609.09 934.57 606.7 929.6 606.03 928.83 604.89 928.11 602.58 927.88 600.09 927.88 597.99 928.3 596.68 928.69 590.2 933.05 588.08 934.08 586.69 934.52 586.08 934.59 585.46 934.34 584.25 932.91 583.35 932.23 582.21 931.61 580.26 930.92 579.21 931.13 578.54 931.78 575.6 942.24 574.89 943.31 573.53 944.41 565.99 947.47 565.03 948.08 564.34 948.92 562.35 953.06 560.42 960 558.71 963.48 558.25 964.22 557.71 964.92 556.79 965.82 555.5 966.84 552.99 968.34 551.34 968.78 549.96 968.88 548.08 968.24 546.55 967.32 545.87 966.76 545.25 966.13 544.32 965.46 543.13 964.93 541.07 964.64 539.91 964.92 538.95 965.41 535.55 969.48 534.49 970.29 532.97 971.22 529.91 972.71 528.16 973.29 526.7 973.63 522.22 973.46 520.41 973.19 517.15 971.94 516.31 971.54 513.54 970.54 511.9 969.62 511.27 968.99 510.93 968.19 510.93 965.1 509.8 964.41 507.79 964.17 500.06 964.75 498.25 965.07 496.71 965.59 496.27 965.82 495.8 966.17 495.52 966.74 495.32 967.3 494.56 971.22 494.54 972.76 494.61 973.75 494.76 974.53 495.16 975.9 487.1 972.76 482.3 972 452.03 974.42 448.19 974.39 446.13 973.88 445.21 973.5 427.77 969.72 424.27 969.37 422.25 969.62 420.05 970.11 415.6 970.65 413.99 970.51 412.81 970.12 411.06 968.84 409.67 968.09 407 967.2 405.34 966.85 404.05 966.71 388.58 966.94 386.95 966.78 385.81 966.49 385.37 966.16 384.42 965.13 381.81 960.65 376.21 948.56 375.73 947.75 374.88 947 369.62 945.04 363.74 941.94 366.99 935.57 366.92 933.14 366.36 932.49 365.73 932.07 364.85 932.03 364.09 932.17 363.44 932.14 363.08 931.6 363.02 930.85 363.26 930.02 364.35 927.66 364.59 926.69 364.59 926.54 364.76 925.3 366.11 921.57 367.64 919.04 368.15 917.9 369.4 913.94 369.59 912.89 369.89 911.89 370.5 911.18 372.71 910.55 373.38 909.94 373.44 908.83 372.99 908.1 372.22 907.59 371.44 907.35 371.03 906.78 371.15 905.04 370.87 904.32 370.74 903.52 371.17 902.54 373.2 899.12 373.63 897.71 373.98 895.5 373.98 894.4 373.87 893.38 373.55 892.48 373.08 891.74 372.53 891.09 372.25 890.52 372.61 889.8 376.62 887.51 378.01 886.44 378.74 885.61 379.53 884.52 380.52 882.52 380.99 881.14 381.4 878.7 383.49 870.88 386.21 863.69 393.9 851.66 417.15 827.71 418.01 826.52 418.43 825.72 419.44 824.29 424.48 819.31 425.63 817.87 426.27 816.7 426.32 816.09 426.28 815.15 425.81 813.25 425 811.61 424.05 810.14 423.46 809.47 422.83 808.89 418.64 805.66 417.38 804.43 416.28 803.04 415.38 801.51 415.04 800.65 414.84 799.68 414.78 798.63 414.87 797.57 415.36 795.63 416.07 793.86 417.23 792.73 419.05 791.44 423.4 789.38 427.33 787.93 440.27 786.13 441.18 785.82 442.33 785.11 443.81 783.85 476.03 739.01 478.06 737.28 480.78 736.71 504.73 736.27 506.44 735.76 508.4 733.6 508.97 732.7 510.2 731.45 511.55 730.66 513.55 729.78 522.47 726.82 524.62 725.53 526.82 723.72 527.96 722.57 531.5 718.13 532.75 716.91 534.12 715.84 537.35 714.7 547.66 712.86 592.98 714.62 594.98 715.12 596.79 715.82 600.72 717.83 602.83 718.67 604.33 718.95 605.58 718.92 606.58 718.7 609.2 717.62 612.43 715.69 615.18 714.52 616.46 714.41 617.66 714.48 626.09 717.44 Z" id="GHA-2161" data-name="Eastern"/>
<path d="M 151.03 857.41 150.48 861.69 150.91 862.14 151.89 862.78 153.49 862.96 154.77 862.97 155.89 862.86 156.84 862.58 158.46 861.8 159.14 861.33 161.45 859.11 162.02 858.23 162.88 856.44 163.55 854.57 164.05 852.61 165.86 840.09 166.32 838.66 167.3 836.6 168.25 835.73 169.24 835.26 170.3 835.32 171.21 835.58 172.94 836.36 178.46 839.74 179.59 839.99 180.95 839.99 184.79 838.69 186.21 838.47 187.63 838.7 188.49 839.24 189 839.88 189.23 840.59 189.36 841.19 189.45 842.12 189.45 843.09 186.02 853.21 185.77 855.42 185.82 856.52 186.04 857.44 186.5 858.24 188.12 859.03 201.27 862.07 202.14 862.46 202.88 862.97 203.52 863.57 204.93 865.8 205.3 866.67 206.08 869.56 206.48 870.57 207.03 871.63 208.14 872.88 209.25 873.36 210.62 873.56 214.78 873.38 213.88 876.05 212.6 877.83 209.68 880.52 207.46 882.07 202.59 884.03 199.54 885.66 198.15 886.79 197.28 887.85 197.02 888.8 196.68 890.94 196.57 893.19 196.8 895.5 197.09 896.65 197.59 898.07 198.94 900.31 199.63 901.04 204.9 904.54 207.83 905.92 209.27 906.41 210.23 906.61 213.91 907.85 215.41 908.84 217.2 910.75 217.79 911.85 219.73 916.65 220.39 917.47 221.01 917.95 221.78 918.37 227.42 920.72 230.15 922.14 230.84 922.7 231.56 923.18 234.96 926.69 243.08 938.39 243.58 938.96 244.18 939.55 247.4 942.03 248.22 942.49 249.14 942.9 253.33 943.91 254.24 944.27 255.38 945.25 256.72 946.76 259.16 950.12 260.08 951.98 260.48 953.58 260.37 954.64 259.64 957.86 259.41 960.61 259.58 962.54 260 963.65 260.71 964.39 263 965.42 264.32 966.45 264.71 967.52 264.64 968.45 264.14 969.12 262.9 970.37 262.35 971.07 261.9 971.83 261.59 972.78 261.47 973.83 261.61 977.42 261.38 979.39 260.4 983.24 259.26 986.12 259.09 987.73 259.15 989.63 259.77 993.23 260.5 994.8 261.37 995.73 262.37 995.8 263.32 995.68 269.3 993.31 271.13 992.81 273.2 992.59 274.28 992.63 275.39 992.8 276.32 993.17 277.14 993.62 279.21 995.29 280.06 995.72 280.99 996.05 282.03 996.25 286.34 996.33 288.55 996.69 290.46 997.32 292.17 998.06 295.39 999.88 297.79 1001.95 300.07 1004.39 301.77 1006.99 301.98 1007.85 302.06 1008.66 301.84 1009.38 300.95 1010.84 300.41 1011.5 299.65 1011.94 298.82 1012.19 298.02 1012.59 297.45 1013.25 297.04 1014.05 296.48 1015.96 296.11 1018.05 296.03 1019.12 296.11 1020.16 296.65 1022.26 297.81 1025.41 300.69 1028.87 301.33 1029.5 302.79 1030.58 304.6 1031.29 305.72 1031.86 306.82 1032.61 308.33 1034.06 309.11 1035.09 309.75 1036.41 311 1040.38 311.57 1041.71 312.19 1042.75 314.48 1045.41 320.35 1050.7 327.59 1055.32 328.76 1056.43 330.62 1058.54 331.17 1059.91 331.08 1060.9 330.52 1061.51 325.15 1065.67 322.94 1068.39 322.31 1068.99 321.58 1069.49 320.83 1069.93 320.04 1070.23 319.09 1070.44 318.11 1070.54 315.62 1070.5 314.71 1070.64 312.93 1071.15 312.12 1071.47 311.34 1071.89 310.61 1072.4 309.93 1072.96 308.81 1074.29 305.29 1080.8 304.51 1082.64 303.93 1084.64 303.22 1089.02 303.15 1090.93 304.69 1102.56 304.69 1102.6 304.57 1102.69 301.99 1101.51 298.84 1101.27 295.79 1102.03 293.57 1103.79 293.28 1105.24 294.53 1107.94 294.12 1109.36 293 1110.64 292.25 1111.31 279.98 1117.37 277.79 1119.02 272.62 1124.72 272.22 1126.03 272.54 1127.23 272.45 1128.08 270.87 1128.39 269.2 1128.52 256.88 1132.03 243.14 1138.17 240.27 1140.7 235.94 1146.86 233.24 1149.43 230.71 1150.45 218.35 1152.02 215.93 1153 211.14 1153.19 210.06 1152.95 208.75 1151.77 208.25 1149.92 208.44 1147.92 208.01 1146.3 205.69 1145.65 204.24 1145.44 201.53 1144.61 199.51 1144.41 199.7 1143.59 198.02 1141.82 190.39 1135.74 186.6 1134.13 184.87 1133.1 184.14 1131.51 183.84 1130.19 183.05 1128.82 182.06 1127.73 163.44 1120.47 133.1 1114.23 103.58 1104.23 80.19 1102.45 54.35 1097.93 29.47 1090.33 26.62 1089.68 27.4 1086.72 28.65 1086.4 30.32 1085.75 32.36 1085.44 45.18 1085.53 49.06 1086.67 50.13 1087.72 52.32 1090.88 53.28 1091.55 55.64 1091.23 59.32 1089.69 61.28 1089.1 60.8 1084.18 65.78 1082.1 72.22 1081.08 76.1 1079.32 76.1 1079.32 83.24 1079.6 87.36 1079 89.92 1077.18 91.64 1073.8 90.66 1072.65 88.29 1070.64 87.73 1070.01 87.58 1068.38 88.34 1064.63 88.43 1063.1 87.64 1061.04 85.13 1057.45 84.63 1054.96 85.8 1043.86 91.84 1044.96 94.22 1044.53 96 1042.27 96.46 1039.15 95.69 1035.92 90.8 1024.49 87.62 1011.65 87.19 1002.26 86.52 999.36 85.11 997.01 82.81 995.16 70.04 991.87 67.12 993.03 61.28 996.55 57.78 996.99 53.54 994.63 52.57 989.99 54.38 978.79 42.73 979.78 44.49 959.32 44.03 952.84 41.84 946.35 34.94 933.75 32.33 927.34 26.9 897.44 23.08 887.43 17.8 882.63 17.28 882 15.15 879.43 1 816.09 1.25 813.08 2.54 811.2 5.85 809.38 6.82 808.21 10.34 798.37 9.92 797.17 7.5 792.52 5.26 789.65 4.48 787.83 4.73 781.35 7.74 774.45 28.42 739.12 30.63 737.75 30.8 738.35 32.65 747.75 33.88 751.4 35.76 754.77 36.39 755.56 37.19 756.4 38.56 757.47 39.63 758.06 40.76 758.5 43 758.72 44 758.68 44.93 758.45 51.72 755.69 53.66 755.3 55.63 755.74 58.32 756.84 63.76 759.83 66.41 762.15 68.42 764.42 72.68 772.27 73.57 776.05 76.35 782.19 76.65 783.33 76.72 786.51 76.89 787.5 77.16 788.44 77.52 789.28 78.08 791.16 78.12 792.16 77.94 793.11 76.47 796.53 76.21 797.5 76.08 798.59 76.28 800.12 76.72 801.93 77.93 804.8 78.37 806.53 78.55 808.03 78.46 809.29 79.02 810.19 79.74 810.75 80.62 811.21 85.47 812.5 87.15 813.31 94.16 818.65 94.98 819.07 96.95 819.57 99.27 819.6 106.05 819.04 107.55 819.22 109.22 819.64 111.58 820.78 112.71 821.71 113.41 822.7 114.18 826.3 114.92 828.19 115.87 829.48 116.71 830.3 117.58 830.84 118.46 831.2 122.05 832.24 124.14 833.16 125.22 833.94 125.97 834.78 133.93 851.62 134.76 852.4 135.78 852.82 136.77 853 141.7 853.25 142.76 853.45 143.68 853.73 145.67 854.85 148.01 856.55 149.63 857.35 151.03 857.41 Z" id="GHA-2162" data-name="Western"/>
<path d="M 706.77 969.95 651.42 965.93 643.72 966.34 639.44 967.33 637.27 968.19 636.36 969.24 635.46 969.75 631.12 969.94 629.62 970.47 626.22 972.9 614.21 976.14 611.47 977.98 606.54 982.57 599.56 984.56 597.05 987.21 595.07 990.45 592.18 993.39 577.91 998.18 577.08 998.68 574.74 1001.01 573.69 1001.84 572.11 1002.4 569.27 1002.66 530.79 1015.08 522.68 1016.1 521.57 1016.64 521.56 1016.64 518.83 1007.09 516 1000.73 515.19 999.7 514.05 998.53 511.58 996.78 508.77 995.33 507.8 995.03 506.03 994.2 504.48 992.98 501.82 988.98 495.16 975.9 494.76 974.53 494.61 973.75 494.54 972.76 494.56 971.22 495.32 967.3 495.52 966.74 495.8 966.17 496.27 965.82 496.71 965.59 498.25 965.07 500.06 964.75 507.79 964.17 509.8 964.41 510.93 965.1 510.93 968.19 511.27 968.99 511.9 969.62 513.54 970.54 516.31 971.54 517.15 971.94 520.41 973.19 522.22 973.46 526.7 973.63 528.16 973.29 529.91 972.71 532.97 971.22 534.49 970.29 535.55 969.48 538.95 965.41 539.91 964.92 541.07 964.64 543.13 964.93 544.32 965.46 545.25 966.13 545.87 966.76 546.55 967.32 548.08 968.24 549.96 968.88 551.34 968.78 552.99 968.34 555.5 966.84 556.79 965.82 557.71 964.92 558.25 964.22 558.71 963.48 560.42 960 562.35 953.06 564.34 948.92 565.03 948.08 565.99 947.47 573.53 944.41 574.89 943.31 575.6 942.24 578.54 931.78 579.21 931.13 580.26 930.92 582.21 931.61 583.35 932.23 584.25 932.91 585.46 934.34 586.08 934.59 586.69 934.52 588.08 934.08 590.2 933.05 596.68 928.69 597.99 928.3 600.09 927.88 602.58 927.88 604.89 928.11 606.03 928.83 606.7 929.6 609.09 934.57 610.12 935.97 611.4 937.15 612.85 938.19 613.63 938.65 618.55 940.75 619.32 941.51 619.89 942.24 622.25 945.89 623.39 947.18 625.25 948.95 625.98 949.46 626.95 949.84 628.06 950.01 629.48 949.91 630.49 949.57 632.85 948.11 635.6 945.54 643.37 936.75 644.76 934.03 645.32 933.25 646.57 931.92 649.93 929.45 653.08 927.73 654.83 927.16 656.64 926.8 657.86 926.73 658 926.7 672.59 927.38 686.58 930.52 689.05 931.73 690.53 932.85 692.34 934.76 698.65 951.94 700.66 954.43 702.66 955.93 705.16 957.5 709.03 958.99 711.59 960.26 713.07 961.27 713.76 961.83 714.37 962.5 714.9 963.37 715.21 964.61 714.71 965.63 714.15 966.3 710.57 967.37 706.78 969.94 706.77 969.95 Z" id="GHA-2172" data-name="Greater Accra"/>
<path d="M 651.99 431.6 653.13 438.18 658.38 449.42 665.52 459.32 672.69 464.18 675.74 467.69 680.08 471.66 684.75 475.02 696.5 480.5 699.63 487.09 701.95 493.87 708.82 499.54 709.21 501.4 709.16 503.45 709.6 506.09 709.45 507.88 709.57 508.73 710.27 509.34 712.42 509.69 713.09 510.3 713.79 514.71 712.44 517.44 709.57 519.21 701.65 522.69 698.65 524.66 692.68 529.99 691.18 530.71 689.81 530.87 688.88 531.57 688.68 533.89 689.42 535.77 690.81 537.1 692.05 538.64 692.37 541.12 691.39 543.44 689.98 544.52 689.09 545.79 690.03 550.19 690.7 558.62 692.35 565.31 692.44 568.75 692.29 575.43 694.06 587.3 694.18 588.16 694.04 598.9 695.67 609.15 695.28 618.53 695.78 622.03 690.59 621.16 688.29 624.81 687.73 630.37 687.79 635.24 686.77 637.65 684.34 638.89 681.47 639.67 679.12 640.72 677.3 642.48 676.19 644.4 675.54 646.6 674.86 657.02 675.74 665.85 678.64 673.74 684.29 678.72 687.55 679.16 691.11 678.52 697.7 676.1 698.89 677.66 701.76 689.42 701.54 693.3 699.15 699.88 697.48 708.2 693.16 718.95 692.55 725.98 693.35 734.05 693.22 741.85 689.79 748.02 687.48 749.3 679.91 751.26 677.28 751.46 674.67 752.26 676.73 755.01 681.82 758.93 683.94 762.72 683.51 765.74 679.73 772.04 678.52 775.81 679.1 777.52 680.82 778.55 683.01 780.22 688.2 789.85 689.38 791.42 692.46 792.07 695.59 793.79 698.21 796.26 699.72 799.15 699.91 802.06 698.35 811.12 699.35 814.86 701.71 817.01 704.23 818.86 705.8 821.71 707.49 821.87 712.49 821.72 714.12 822.05 716.42 824.29 716.31 825.96 715.05 827.64 713.92 829.93 713.85 831.01 713.61 834.7 714.72 839.1 716.87 843.36 719.7 847.69 723.48 851.56 732.34 855.91 736.84 858.75 742.68 865.76 745 867.51 748.67 868.49 762.34 868.55 767.03 882.92 769.81 886.88 771.24 887.92 772.57 888.47 773.93 889.2 775.3 890.77 777.65 894.41 779.58 896.64 782.04 897.9 796.89 899.58 799 902.43 798.54 908.73 798.54 908.73 798.44 908.76 797.28 909.18 789.16 913.55 783.01 918.32 773.91 928.06 771.82 931.2 767.4 939.97 766.57 943.48 766.3 947.18 764.45 955.56 762.89 958.89 757.2 964.21 749.95 966.72 715.71 970.6 706.77 969.95 706.78 969.94 710.57 967.37 714.15 966.3 714.71 965.63 715.21 964.61 714.9 963.37 714.37 962.5 713.76 961.83 713.07 961.27 711.59 960.26 709.03 958.99 705.16 957.5 702.66 955.93 700.66 954.43 698.65 951.94 692.34 934.76 690.53 932.85 689.05 931.73 686.58 930.52 672.59 927.38 658 926.7 657.86 926.73 656.64 926.8 654.83 927.16 653.08 927.73 649.93 929.45 646.57 931.92 645.32 933.25 644.76 934.03 643.37 936.75 643.84 920.32 643.56 918.87 642.84 917.6 636.61 913.94 632.81 910.8 630.52 909.46 627.4 909.03 615.1 909.34 611.9 908.37 603.44 901.98 602.33 900.12 602.14 897.1 602.76 893.91 604.05 891.54 604.93 889.28 604.55 886.13 603.33 882.69 602.37 880.8 603.16 879.78 611.21 876.7 614.24 874.94 617.1 872.82 617.68 872.22 618.24 871.56 619.21 870.06 619.63 869.24 624.81 853.56 624.95 852.08 624.87 850.45 624.14 847.93 623.36 846.74 622.56 845.89 620.28 844.46 619.02 843.23 618.07 841.7 617.77 840.87 617.49 839.91 616.77 835.75 616.27 833.86 615.82 833.06 615.21 832.45 614.4 831.98 613.51 831.69 612.6 831.52 607.31 831.89 606.39 831.63 605.86 830.98 605.94 828.73 606.5 825.37 609.34 814.83 610.18 812.76 610.71 812.07 611.29 811.43 611.82 810.72 612.43 810.1 612.96 809.42 615.38 806.94 616.1 806.38 623.17 802.29 623.78 801.72 624.34 801.02 624.64 799.59 624.75 797.56 623.73 789.87 623 788.19 622.03 786.65 620.86 785.37 619.46 784.29 617.74 783.48 615.02 782.53 614.24 782.08 613.57 781.51 613.01 780.84 612.21 779.24 611.62 777.32 611.74 775.55 612.24 773.23 613.9 768.55 614.88 766.45 615.74 765.01 618.91 762.04 619.6 761.51 622.11 759.08 623.64 756.94 624.09 756.01 624.42 754.13 624.59 751.3 624.17 746.21 623.42 742.07 623.11 741.16 623.11 739.65 623.45 737.63 624.59 734.06 625.95 730.98 626.42 730.23 626.87 727.04 626.09 717.44 625.25 711.82 625.25 710.78 625.48 708.68 628.51 699.18 629.23 693.73 629.26 691.36 628.45 686.02 627.78 684.9 626.76 683.68 624.5 681.77 623.09 680.9 621.86 680.29 616.96 678.92 610.35 675.61 609.56 674.8 608.84 673.66 608.06 671.52 607.72 670.02 607.17 659.36 606.92 658.36 604.8 653.17 592.98 632.99 588.69 621.2 588.44 618.92 587.77 617.1 586.77 615.75 584.65 614.43 583.33 613.96 579.31 613.36 577.39 612.9 575.61 612.16 573.97 610.89 572.52 609.39 568.14 602.43 567.69 601.49 567.11 599.68 566.35 593.23 565.86 591.3 558.14 573.32 556.04 570.02 553.92 567.49 528.94 547.56 525.41 545.86 515.18 543.16 518.97 539.37 522.55 531.61 523.74 530.44 524.79 529.91 526.78 530.33 528.14 530.33 529.79 530.14 536.03 528.06 537.2 528.09 538.16 528.4 542.43 530.37 543.36 530.66 544.73 530.86 546.47 530.82 549.51 530.22 550.93 529.29 552.06 528.12 552.83 526.81 553.86 526.25 555.27 525.81 555.82 525.03 556.2 524.06 558.12 520.9 558.29 519.91 558.28 518.87 558.11 517.88 558.42 516.63 559.26 515.31 561.94 512.89 563.77 511.61 565.17 510.8 573.15 508.03 576.85 507.95 581.23 508.74 585.05 509.96 587.91 511.2 594.2 515.21 596.76 517.67 598.4 519.67 602.3 523.45 604.47 525.03 606.47 525.22 609.61 525.2 616.82 524.38 619.74 523.6 621.42 522.58 621.67 521.55 621.64 520.59 621.5 519.8 621.09 519.05 619.91 511.76 620 510.67 620.53 509.5 621.45 508.95 622.59 508.74 628.15 508.5 629.29 508 629.99 507.29 630.16 506.32 630.24 505.25 629.99 503.18 629.62 502.27 627.7 499.34 627.09 498.7 626.31 498.21 625.42 497.83 624.45 497.57 623.31 497.49 617.91 498.14 613.99 499.13 609.79 499.72 608.89 499.75 606.86 499.5 604.92 498.95 604.08 498.6 603.39 498.07 602.97 497.47 602.86 496.57 603.22 494.59 603.22 493.51 602.86 491.55 602.19 489.71 602.08 488.64 602.47 487.18 603.19 486.41 604.3 485.85 605.58 485.55 607.42 484.94 608.28 484.2 608.75 483.3 608.64 482.35 608.2 481.57 607.53 480.96 604.14 479.34 603.44 478.82 602.94 478.11 602.69 477.18 602.69 476.2 602.8 475.17 603.05 474.2 605 468.61 606.33 465.86 608.25 462.93 609.25 462.14 610.29 461.8 611.18 462.05 612.79 462.94 613.79 463.25 614.96 463.25 616.52 462.67 617.16 461.79 617.38 460.72 617.16 459.76 616.74 458.95 616.13 458.31 614.15 456.56 613.15 455.08 612.76 454.3 612.46 453.36 612.26 452.36 612.57 451.02 613.29 449.53 616.88 444.94 618.35 442.1 619.52 439 620.33 437.58 620.36 436.55 620.06 435.67 619.52 434.91 618.82 434.15 618.94 433.17 619.27 431.99 619.89 431.32 620.53 430.85 624.92 429.04 626.76 428.62 627.73 428.58 628.73 428.76 629.62 429.08 633.8 431.46 634.74 431.78 635.86 431.95 636.97 431.95 638.05 431.85 643.76 430.71 644.87 430.64 651.86 431.6 651.92 431.6 651.99 431.6 Z" id="GHA-2173" data-name="Volta"/>
</g>
</svg>