<?xml version="1.0"?>
<svg xmlns="http://www.w3.org/2000/svg" version="1.2" baseProfile="tiny" width="800" height="1892" viewBox="0 0 800 1892" stroke-linecap="round" stroke-linejoin="round">
<g id="ne_10m_admin_1_states_provinces">
<path d="M 771.43 435.56 742.49 424.3 706.67 418.07 678.64 422.74 647.49 400.94 635.45 390.8 617.9 376.02 621.01 337.09 630.36 313.72 647.49 281.02 678.64 287.25 684.87 256.1 687.98 210.93 684.87 172 683.31 139.29 691.1 95.68 711.34 92.57 709.79 61.42 686.42 52.08 686.56 2.93 734.14 10.47 751.25 16.85 760.72 32.8 775.61 67.51 799 173.26 797.84 318.85 771.43 435.56 Z" id="VCT-5063" data-name="Charlotte"/>
<path d="M 65.38 1884.78 40.44 1891.16 10.28 1888.94 1 1876.18 10.86 1864 13.28 1854.04 8.25 1845.34 11.15 1839.06 28.36 1832.29 44.79 1837.13 73.4 1854.72 79.88 1875.21 65.38 1884.78 Z M 300.19 1633.54 275.93 1634.8 254.56 1626.68 260.36 1619.43 287.43 1613.63 300 1597.97 295.55 1576.89 296.71 1553.69 318.17 1539.58 334.6 1538.03 341.95 1546.93 346.59 1568.68 333.93 1585.21 320.1 1598.84 313.34 1619.62 300.19 1633.54 Z M 647.71 1246.77 640.08 1248.03 637.85 1218.64 658.25 1182.39 677.78 1186.45 657.28 1233.43 647.71 1246.77 Z M 555.49 921.87 517.5 947.77 535.19 947.77 517.5 965.46 505.32 948.06 486.47 937.14 462.4 932.4 434.85 932.98 434.85 915.29 470.23 926.12 524.17 915.58 524.27 896.44 508.51 878.95 501.26 866.76 520.98 848.01 587.1 806.25 614.75 784.02 618.13 793.2 619.2 801.8 622.48 810.02 632.54 818.04 598.51 850.33 555.49 921.87 Z" fill-rule="evenodd" id="VCT-5064" data-name="Grenadines"/>
<path d="M 635.45 390.8 621.01 419.63 568.06 477.25 528.23 517.48 448.77 462.5 479.29 430.53 527.57 396.27 571.17 349.54 589.86 341.76 621.01 337.09 617.9 376.02 635.45 390.8 Z" id="VCT-5065" data-name="Saint Andrew"/>
<path d="M 686.56 2.93 686.42 52.08 709.79 61.42 711.34 92.57 691.1 95.68 683.31 139.29 684.87 172 687.98 210.93 684.87 256.1 678.64 287.25 647.49 281.02 616.34 249.87 583.63 277.9 552.01 298.99 499.53 287.25 455.82 273.87 468.78 248.86 462.59 239.87 451.09 216.38 515.18 206.23 542.63 152.58 558.97 84.14 589.71 29.23 620.36 9.89 648.87 1.77 674.39 1 686.56 2.93 Z" id="VCT-5066" data-name="Saint David"/>
<path d="M 771.43 435.56 765.55 461.53 695.85 558.59 653.42 590.78 594.06 563.03 528.23 517.48 568.06 477.25 621.01 419.63 635.45 390.8 647.49 400.94 678.64 422.74 706.67 418.07 742.49 424.3 771.43 435.56 Z" id="VCT-5067" data-name="Saint George"/>
<path d="M 647.49 281.02 630.36 313.72 621.01 337.09 589.86 341.76 571.17 349.54 527.57 396.27 479.29 430.53 448.77 462.5 429.73 392.7 436.11 311.89 455.82 273.87 499.53 287.25 552.01 298.99 583.63 277.9 616.34 249.87 647.49 281.02 Z" id="VCT-5068" data-name="Saint Patrick"/>
</g>
</svg>