<?xml version="1.0"?>
<svg xmlns="http://www.w3.org/2000/svg" version="1.2" baseProfile="tiny" width="800" height="401" viewBox="0 0 800 401" stroke-linecap="round" stroke-linejoin="round">
<g id="ne_10m_admin_1_states_provinces">
<path d="M 496.3 205.45 496.29 205.46 494.44 206.31 493.05 207.66 491.11 211.13 490.1 212.05 486.16 214.87 484.81 216.31 483.83 217.83 482.22 223.38 481.06 225.47 480.03 226.47 479.01 227.01 476.39 227.47 474.43 228.15 472.7 229.13 471.69 229.98 470.96 230.82 465.88 239.41 464.48 240.91 461.47 243.54 460.92 244.48 460.78 245.55 461 246.19 461.39 247.09 463.26 250.01 463.72 251.46 463.87 252.84 463.58 254.85 463.01 255.84 462.29 256.46 461.54 256.67 460.74 256.79 459.85 256.79 458.87 256.67 458.04 256.42 457.3 256.03 456.68 255.42 456.23 254.85 455.75 254.32 455.46 254.09 454.42 253.5 453.26 251.86 452.14 250.7 451.17 250.09 450.3 249.7 449.35 249.44 448.29 249.29 447.42 249.48 446.8 249.68 444.75 251.18 439.48 254.39 435.04 256.05 434.29 256.81 434.05 258.37 434.43 259.33 434.9 259.99 435.33 260.33 435.75 260.75 435.88 261.32 435.47 261.61 432.12 261.25 430.69 261.68 429.56 260.02 428.59 259.17 426.87 259.3 425.52 260.27 424.37 261.36 423.23 261.84 422.35 261.77 421.72 261.57 421.34 261.1 421.22 260.2 420.97 259.36 419.69 258.61 419.16 257.83 418.88 256.19 418.82 254.94 418.26 253.94 416.54 253.08 412.32 252.36 403.49 252.27 399.3 251.42 397.41 250.37 393.88 247.7 391.91 246.96 389.49 247.19 385.1 249.38 382.78 249.92 381.43 249.79 378.78 249.22 377.44 249.08 376.35 249.26 374.08 250.04 373.12 250.11 371.73 249.39 369 246.87 367.34 246.03 365.01 245.78 357.06 245.86 355.32 246.75 354.58 246.9 351.1 245.77 349.96 245.78 348.68 245.18 347.07 244.98 344.27 245.05 341.41 244.59 340.3 244.73 339.19 245.78 337.75 244.7 336.14 243.93 335.22 243.08 335.84 241.76 337.33 241.02 339.01 241.1 341.93 241.76 345.5 241.24 348.59 239.76 350.01 237.6 355.58 236.1 356.79 235.11 357.96 233.49 360.53 227.86 361.22 225.6 361.68 224.83 363.67 222.61 364.85 220.76 366.14 219.49 367.28 218.63 368.74 215.58 368.67 213.16 368.31 212.3 366.62 210.81 365.92 209.92 365.1 208.12 364.05 206.87 363.33 205.83 362.41 202.53 360.16 199.2 361.86 198.28 362.6 197.67 363.44 196.71 364.91 192.59 365.65 191.22 367.58 188.9 367.79 188.72 369.24 187.22 369.97 185.98 370.24 184.55 369.91 182.19 370.39 180.72 370.88 179.81 374.99 176.53 374.67 175.12 374.32 174.37 370.16 170.08 369.72 169.11 369.95 168.65 370.67 168.02 372.01 167.26 374.44 166.16 380.72 161.38 381.65 160.42 382.89 158.54 383.72 157.79 385.03 157.33 386.93 157.27 388.85 157.55 390.43 157.41 392.01 156.93 394.59 155.41 397.05 153.6 397.78 152.92 398.91 152.22 400.37 151.66 404.49 151.19 405.78 150.82 408.43 149.32 411.46 148.7 412.32 148.35 413.28 149.73 418.27 152.31 424.94 153.53 426.14 153.97 427.15 154.75 428.77 157.15 430.85 158.73 431.68 159.62 433.15 164.11 434.43 166.02 436.87 166.67 439.11 166.61 440.79 167.24 442.39 168.1 444.33 168.71 449.76 169.52 450.65 169.96 451.59 171.69 452.26 172.4 454.18 173.03 456.03 173.37 457.19 174.17 456.68 178.71 457.96 179.52 462.45 179.72 464.32 180.58 466.88 183.18 468.58 184.38 469.84 184.83 471.01 184.98 476.44 184.67 477.63 184.85 479.24 185.32 480.31 185.45 481.26 185.18 482.04 184.56 483.27 182.26 483.86 181.67 486.78 180.26 487.69 180.05 488.52 179.69 489.17 178.9 490.12 177.2 490.75 176.36 491.42 175.81 493.66 175.35 495.63 176.04 499.25 178.28 504.06 179.64 504.75 180.79 503.66 185.7 503.35 186.51 502.75 187.4 502.04 187.88 500.35 188.5 499.77 189.21 499.62 189.78 499.61 191.62 499.01 192.94 496.48 194.29 495.88 195.26 496.68 200.62 496.68 202.53 496.3 205.45 Z" id="NPL-1095" data-name="Gandaki"/>
<path d="M 249.83 141.38 245.3 144.99 244.08 147.57 243.69 148.93 242.82 150.67 241.6 152 230.92 159.42 225.25 162.51 224.14 163.46 220.55 168.12 218.58 169.94 217.33 170.88 215.55 171.79 214.98 172.38 214.37 173.17 212.35 176.72 209.86 177.91 205.59 178.04 204.14 177.89 202.82 177.59 198.42 176.04 194.94 179.77 194.24 181.23 193.84 182.73 193.98 183.56 195.52 186.54 195.92 188.02 196.04 190.15 195.61 191.42 195.02 192.48 194.39 193.06 193.93 193.35 191.49 194.2 190.59 194.64 189.9 195.44 189.78 196.15 190.14 197 190.74 197.62 191.26 198.47 191.62 199.6 191.62 203.22 192.23 204.13 198.21 206.31 200.19 208.33 201.27 210.54 203.45 213.61 198.26 216.03 196.87 219.55 195.58 221.39 195.42 222.31 195.81 223.37 196.58 224.21 199.64 226.35 200.48 227.05 202.11 228.98 202.78 229.53 203.63 229.73 204.42 229.76 205.31 229.9 206.1 230.37 210.58 233.93 211.4 235.21 211.83 236.46 211.87 238.05 211.71 240.17 211.59 240.68 211.37 241.17 211.05 241.59 210.43 242.13 209.83 242.48 208.82 242.85 206.78 243.21 205.94 243.23 204.1 243.03 203.6 243.03 203.05 243.22 202.59 243.5 199.56 246.14 199.06 247.21 199.05 247.23 196.8 246.56 191.77 246.12 188.87 247.26 184.92 251.4 182.68 252.78 179.98 252.59 177.25 251.15 174.53 249.34 169.63 246.83 165.73 243.12 163.63 241.58 161.32 240.84 156.38 239.81 154.45 238.49 154.45 238.49 154.43 238.48 153.16 236.67 151.18 235.43 142.5 231.46 141.01 230.4 140.6 229.48 140.49 228.46 140.03 227.05 138.76 225.25 137 223.56 134.91 222.23 132.67 221.52 131.17 221.7 130.54 222.6 130.13 223.81 129.23 224.96 127.82 225.6 126.19 225.84 125.12 225.39 125.44 224 123.84 223.65 123.22 222.9 123.61 222.09 125.1 221.56 123.76 219.19 118.07 213.39 116.74 210.66 114.75 204.82 112.72 202.55 110.43 201.48 100.69 199.83 100.7 199.8 100.75 198.22 101.9 194.4 102.99 193.11 106.25 191.33 107.42 190.52 121.13 177.3 121.8 176.48 122.74 175.61 123.35 173.4 123.57 171.44 123.25 169.61 120.06 163.3 118.98 160.21 118.44 156.94 117.48 155.48 116.16 154.38 114.75 153.7 115.15 154.95 116.37 157.13 116.75 158.39 112.79 156.38 111.91 156.6 110.58 154 109.39 153.03 108.07 153.22 106.77 153.91 105.38 154.25 103.76 153.36 100.15 150.75 95.33 146.27 95.8 145.11 97.42 143.79 99.49 142.71 101.38 142.26 103.36 142.51 105.45 143.15 109.39 144.94 114.44 148.46 116.45 148.95 122.76 148.18 124.91 148.28 125.99 148.69 128.27 150.01 129.23 150.29 137.82 149.37 139.46 149.88 141.04 151.63 142.5 154.4 146.73 158.72 146.39 161.79 147.49 162.37 147.63 162.93 146.39 163.8 146.39 164.47 147.38 164.52 148.2 164.37 149.8 163.8 152.16 162.51 151.91 161.4 150.59 160.23 149.8 158.72 149.25 156.35 147.88 154.37 144.38 151.02 139.33 144.26 137.97 143.56 136.75 141.8 136.07 139.61 136.29 137.57 140.92 132.98 142.01 132.22 143.42 131.77 149.87 127.6 152.37 130.26 152.52 132.71 152.39 133.65 152.39 134.35 152.99 134.78 154.79 135.35 158.27 135.9 166.29 138.31 171.6 139.13 173.3 139.55 174.77 140.33 176.96 141.22 178.92 141.77 186.8 142.4 195.6 138.85 197.56 139.43 197.95 139.72 198.24 139.86 198.3 139.93 198.91 140.98 199.47 141.62 200.37 142.05 201.65 141.98 202.82 141.58 204.31 140.12 204.9 139.06 205.51 138.29 206.28 137.69 207.24 137.1 207.9 136.44 209.04 134.73 209.77 134.07 210.7 133.47 220.41 129.65 221.94 129.35 229.37 129.51 233.84 131.31 234.24 132.48 234.36 133.34 234.32 134.28 234.13 135.22 233.92 135.93 233.65 136.61 233.39 137.63 233.42 138.21 233.6 138.79 234.01 139.31 234.62 139.7 236.64 140.46 237.46 140.64 238.32 140.65 239.46 140.31 240.27 139.95 240.33 139.89 240.69 139.6 241.71 139.04 243.88 139.2 249.83 141.38 Z" id="NPL-1124" data-name="Bheri"/>
<path d="M 412.32 148.35 411.46 148.7 408.43 149.32 405.78 150.82 404.49 151.19 400.37 151.66 398.91 152.22 397.78 152.92 397.05 153.6 394.59 155.41 392.01 156.93 390.43 157.41 388.85 157.55 386.93 157.27 385.03 157.33 383.72 157.79 382.89 158.54 381.65 160.42 380.72 161.38 374.44 166.16 372.01 167.26 370.67 168.02 369.95 168.65 369.72 169.11 370.16 170.08 374.32 174.37 374.67 175.12 374.99 176.53 370.88 179.81 370.39 180.72 369.91 182.19 370.24 184.55 369.97 185.98 369.24 187.22 367.79 188.72 367.58 188.9 365.65 191.22 364.91 192.59 363.44 196.71 362.6 197.67 361.86 198.28 360.16 199.2 362.41 202.53 363.33 205.83 364.05 206.87 365.1 208.12 365.92 209.92 366.62 210.81 368.31 212.3 368.67 213.16 368.74 215.58 367.28 218.63 366.14 219.49 364.85 220.76 363.67 222.61 361.68 224.83 361.22 225.6 360.53 227.86 357.96 233.49 356.79 235.11 355.58 236.1 350.01 237.6 348.62 235 347.79 234.7 347.03 234.8 346.38 234.65 345.88 233.61 345.78 232.52 346.07 231.97 345.91 231.21 345.31 230.63 340.76 227.16 339.69 226.56 338.4 226.12 336.4 225.79 333.67 225.66 332.28 225.28 330.74 224.28 329.85 223.35 329.18 222.37 328.33 221.59 327.09 220.85 324.92 219.87 323.63 219.47 321.04 219.37 319.61 219 317.69 217.98 312.31 213.77 310.26 213.03 308.62 212.63 300.91 213.9 300.44 211.25 299.16 209.69 296.97 207.84 287.87 201.61 286.82 198.94 286.12 198.17 284.84 197.1 284.07 196.21 282.86 193.84 281.9 193.09 281.31 192.12 283.69 188.94 282.5 188.04 282.44 187.28 283.02 186.29 284.74 184.82 286.27 184.29 287.46 184.16 288.55 184.21 289.3 183.87 289.79 182.89 289.74 182.07 289.42 181.41 288.37 180.19 288.05 179.49 289.15 178.72 291.48 177.74 296.73 176.48 301.91 174.43 305.11 170.47 306.22 168.48 306.68 165.71 309.46 166.07 312.08 166.86 313.63 167.02 315.92 166.96 319.09 167.37 320.88 167.35 325.59 166.5 327.66 165.81 329.88 164.71 338.64 161.8 340 160.19 343.31 152.11 345.05 149.35 350.49 143.2 351.35 142.52 351.95 141.58 352.41 140.11 353.22 132.54 353.67 131.38 354.66 130.25 355.71 129.39 356.64 128.35 357.01 127.59 356.41 124.23 356.4 124.2 356.5 124.16 357.22 122.79 357.65 121.07 358.37 119.46 360.37 117.75 362.75 117.02 365.26 116.94 367.74 117.15 369.95 116.91 374.33 115.02 376.66 114.41 377.37 114.1 378.21 112.79 378.8 112.28 381.83 111.55 383.67 111.32 384.89 111.31 386.1 111.59 387.02 112.01 387.6 112.76 387.86 114.07 389.07 113.5 390.31 113.2 391.45 113.43 392.34 114.46 393.68 115.65 395.43 115.38 397.29 114.73 399.02 114.77 399.95 115.71 400.55 118.36 401.24 119.42 402.58 119.7 404.15 119.51 405.47 119.67 406.08 121.05 405.44 122.67 404.12 124.21 403.19 125.83 403.76 127.7 405.93 129.58 406.52 130.27 406.87 131.21 407.43 134.3 409.66 135.48 411.85 136.11 412.92 137.38 410.5 145.74 412.32 148.35 Z" id="NPL-1125" data-name="Dhawalagiri"/>
<path d="M 356.4 124.2 356.41 124.23 357.01 127.59 356.64 128.35 355.71 129.39 354.66 130.25 353.67 131.38 353.22 132.54 352.41 140.11 351.95 141.58 351.35 142.52 350.49 143.2 345.05 149.35 343.31 152.11 340 160.19 338.64 161.8 329.88 164.71 327.66 165.81 325.59 166.5 320.88 167.35 319.09 167.37 315.92 166.96 313.63 167.02 312.08 166.86 309.46 166.07 306.68 165.71 302.86 164.9 288.25 158.42 286.2 157.78 284.8 157.54 278.85 157.93 273.8 157.53 272.53 157.64 271.51 157.97 269.83 158.23 268.41 157.8 263.8 154.98 263.16 154.16 263.03 153.17 263.1 151.85 263.09 150.35 262.8 149.09 262.28 148.29 258.48 144.82 256.82 143.57 255.5 142.91 249.83 141.38 243.88 139.2 241.71 139.04 240.69 139.6 240.33 139.89 240.27 139.95 239.46 140.31 238.32 140.65 237.46 140.64 236.64 140.46 234.62 139.7 234.01 139.31 233.6 138.79 233.42 138.21 233.39 137.63 233.65 136.61 233.92 135.93 234.13 135.22 234.32 134.28 234.36 133.34 234.24 132.48 233.84 131.31 229.37 129.51 221.94 129.35 220.41 129.65 210.7 133.47 209.77 134.07 209.04 134.73 207.9 136.44 207.24 137.1 206.28 137.69 205.51 138.29 204.9 139.06 204.31 140.12 202.82 141.58 201.65 141.98 200.37 142.05 199.47 141.62 198.91 140.98 198.3 139.93 198.24 139.86 197.95 139.72 197.56 139.43 195.6 138.85 186.8 142.4 178.92 141.77 176.96 141.22 174.77 140.33 173.3 139.55 171.6 139.13 166.29 138.31 158.27 135.9 154.79 135.35 152.99 134.78 152.39 134.35 152.39 133.65 152.52 132.71 152.37 130.26 149.87 127.6 148.57 126.41 147.3 125.5 144.38 123.88 143.65 123.36 143.24 122.11 142.95 120.54 143.79 114.52 142.98 112.96 142.59 111.98 142.53 110.98 142.95 110.05 143.88 108.99 146.89 106.3 148.44 105.29 152.49 104.18 153.86 103.97 155.75 103.92 156.48 104.09 157.21 104.43 159.69 106.42 160.71 106.81 161.92 106.86 163.61 106.64 167.05 105.72 167.63 103.96 166.58 102.39 165.62 100.51 165.2 98.26 165.27 95.97 165.56 94.03 166.17 92.43 167.2 91.14 171.09 88.84 172.66 87.52 173.29 85.45 173.39 83.91 173.29 81.83 172.87 80.94 172.36 80.33 170.44 79.82 169.94 79.74 168.33 79.09 167.1 78.34 165.99 77.4 165.04 76.23 164.42 74.53 164.28 73.35 164.36 72.52 167.08 64.94 167.53 62.45 167.77 59.32 168.01 58.13 168.35 57.36 168.91 56.81 170.22 55.92 170.95 55.33 171.54 54.67 171.92 53.96 172.12 53.17 172.06 52.04 171.63 51.12 170.64 50.4 169.32 50.03 165.55 49.34 163.9 48.79 162.62 47.95 161.42 47.51 159.67 47.26 152.34 47.38 151.21 47.53 150.13 47.79 148.06 48.84 145.6 52.06 144.96 52.4 144.49 52.42 143.73 52.24 142.82 51.79 140.76 50.46 140.34 49.65 140.26 48.82 140.55 46.96 140.62 45.87 140.43 44.94 140.01 44.07 139.6 43.4 139.15 42.79 138.17 41.02 137.55 39.44 137.23 39.24 136.64 39.08 134.49 39.08 131.28 39.43 130.37 39.21 129.6 38.83 128.38 37.92 127.49 37.4 125.4 36.65 123.25 35.31 122.35 34.81 122.75 34.04 123.14 32.53 122.99 31.86 122.19 30.33 122.25 29.61 123.31 28.95 124.83 28.85 126.43 28.93 127.69 28.76 129.25 27.8 130.4 26.46 131.11 24.86 131.56 21.8 132.79 20 133.13 19.07 133.04 18.23 132.41 16.65 132.26 15.79 132.17 12.36 132.51 10.8 133.55 9.4 134.05 8.04 133.82 6.49 134.08 5.22 136.03 4.7 137.86 5.35 141.46 8.41 143.44 9.33 146.02 9.68 147.13 9.33 148.24 5.57 148.71 4.76 149.44 4.36 151.31 4.07 152.62 3.54 153.14 2.71 153.45 1.86 154.08 1.26 156.28 1 158.41 1.58 170.34 6.29 172.46 6.77 174.67 6.45 176.75 5.78 178.87 5.48 183.07 7.07 186.43 6.84 188.37 7.17 189.24 7.72 190.41 9.16 191.09 9.69 192.05 9.83 193 9.54 193.95 9.12 194.88 8.85 199.02 8.62 201.31 8.81 202.83 9.51 203.27 11.02 202.18 16.65 202.46 19.25 203.53 20.95 205.33 22.05 207.89 22.85 209.39 24.09 208.93 25.97 206.64 29.68 206.75 31.02 207.39 33.08 208.3 35.07 209.21 36.17 211.21 36.44 212.97 35.85 214.78 35.56 219.2 37.99 221.19 38.26 223.2 38.27 225.39 38.76 226.21 39.36 227.38 40.97 228.18 41.54 229.79 41.76 231.3 41.56 232.8 41.57 234.31 42.41 235.59 43.87 237.16 45.23 238.94 46.38 240.78 47.22 245.53 48.51 247.25 49.4 254.77 57.58 256.47 58.64 257.51 58.61 259.52 58.05 260.54 58.11 261.68 58.77 261.7 59.57 261.26 60.54 260.97 61.71 261.88 63.38 267.81 67.44 269.64 69.9 270.71 70.79 271.89 71.34 273.07 71.69 274.09 72.26 274.76 73.45 276.15 75.23 278.2 74.61 280.42 73.14 282.35 72.43 283.27 72.8 284.7 74.27 285.5 74.8 286.5 74.93 288.68 74.64 289.81 74.82 295.4 79.09 296.19 80.09 297.52 82.46 298.54 83.18 299.98 83.09 300.57 82.04 300.85 80.66 301.33 79.61 302.01 79.36 304.6 78.8 306.89 78.58 308.07 78.63 309.19 79.01 310.54 79.91 310.89 80.42 311.25 81.72 311.51 82.17 312.27 82.58 313.93 83.08 314.66 83.46 316.94 85.49 317.75 86.78 318 88.25 317.66 89.06 317.08 89.6 316.57 90.26 316.42 91.42 318.06 93.55 324.33 92.37 327 94.75 327.26 96.51 327 97.96 327.18 99.2 330.15 101.34 330.36 102.43 330.25 103.63 330.72 105 331.89 105.95 333.14 106.5 334.16 107.23 335.05 110 336.13 110.83 338.83 111.79 340.55 112.85 341.5 114.33 342.43 118.01 342.63 120.14 342.87 121.13 343.53 121.92 344.73 122.35 347.22 122.65 348.27 123.41 349.42 124.03 353.4 124.68 354.86 124.75 356.4 124.2 Z" id="NPL-1126" data-name="Karnali"/>
<path d="M 350.01 237.6 348.59 239.76 345.5 241.24 341.93 241.76 339.01 241.1 337.33 241.02 335.84 241.76 335.22 243.08 336.14 243.93 337.75 244.7 339.19 245.78 340.3 244.73 341.41 244.59 344.27 245.05 347.07 244.98 348.68 245.18 349.96 245.78 351.1 245.77 354.58 246.9 355.32 246.75 357.06 245.86 365.01 245.78 367.34 246.03 369 246.87 371.73 249.39 373.12 250.11 374.08 250.04 376.35 249.26 377.44 249.08 378.78 249.22 381.43 249.79 382.78 249.92 385.1 249.38 389.49 247.19 391.91 246.96 393.88 247.7 397.41 250.37 399.3 251.42 403.49 252.27 412.32 252.36 416.54 253.08 418.26 253.94 418.82 254.94 418.88 256.19 419.16 257.83 419.69 258.61 420.97 259.36 421.22 260.2 421.34 261.1 421.72 261.57 422.35 261.77 423.23 261.84 424.37 261.36 425.52 260.27 426.87 259.3 428.59 259.17 429.56 260.02 430.69 261.68 431.62 263.44 431.99 264.58 431.59 266.02 430.63 267.08 427.92 268.6 425.18 267.7 422.69 268.79 420.22 270.47 417.51 271.34 415.93 271.19 414.73 270.93 413.66 270.88 412.46 271.34 410.65 273.71 409.42 274.57 407.78 273.96 405.57 276.26 401.56 282.19 400.35 283.39 397 281.32 395.03 282.49 392.82 282.68 386.21 281.87 385.05 281.87 384.22 282.05 383.46 282.7 382.92 283.57 382.94 284.33 383.89 284.66 385.94 284.68 386.27 285.16 385.2 286.37 384.46 287.46 384.43 288.59 384.54 289.7 384.22 290.75 382.66 291.87 382.58 291.93 380.41 292.5 375.86 292.79 373.96 293.47 374.81 295.03 377.6 297.84 377.84 298.76 378.23 299.76 378.21 300.56 377.24 300.89 376.67 301.27 375.97 302.19 375.85 302.08 375.32 301.6 370.81 300.15 357.22 293.64 350.07 291.25 339.34 289.97 330.13 289.9 327.57 290.71 327.08 291.66 326.87 292.85 327.07 293.99 328.55 295.8 328.41 296.98 327.74 298.21 325.63 301.03 323.98 302.52 322.07 303.48 319.87 303.58 317.62 302.87 316.63 301.89 316.01 300.52 314.88 298.65 313.67 297.41 308.81 293.75 305.2 292.47 293.2 292.55 287 291.18 282.5 288.93 280.05 288.22 267.87 287.49 265.68 285.22 264.61 281.5 263.67 274.16 262.47 270.39 260.77 267.94 260.2 267.74 260.21 267.72 260.44 266.87 261.14 264.65 261.72 263.53 262.13 262.94 262.63 262.4 263.36 261.94 264.38 261.46 266.22 260.93 267.74 260.76 272.61 261.18 276.88 259.95 274.62 257.84 270.1 255.97 268.88 255.16 269.08 254.6 269.34 254.21 272.7 250.95 277.08 247.55 279.46 246.91 281.77 247.32 282.99 247.38 284.25 247.21 285.42 246.84 288.31 245.27 291.51 244.29 292.08 243.85 292.51 243.23 292.24 242.18 291.93 241.62 291.26 241 290.41 240.46 289.74 239.52 289.45 237.95 290.38 234.86 290.87 232.24 292.11 228.85 294.72 226.83 295.48 226.11 295.98 225.3 295.84 224.08 295.4 223.17 293.54 220.99 293.16 220.02 293.25 219.06 293.97 218.08 295.24 217.08 299.68 215.2 300.91 213.9 308.62 212.63 310.26 213.03 312.31 213.77 317.69 217.98 319.61 219 321.04 219.37 323.63 219.47 324.92 219.87 327.09 220.85 328.33 221.59 329.18 222.37 329.85 223.35 330.74 224.28 332.28 225.28 333.67 225.66 336.4 225.79 338.4 226.12 339.69 226.56 340.76 227.16 345.31 230.63 345.91 231.21 346.07 231.97 345.78 232.52 345.88 233.61 346.38 234.65 347.03 234.8 347.79 234.7 348.62 235 350.01 237.6 Z" id="NPL-1127" data-name="Lumbini"/>
<path d="M 95.69 22.56 96.72 23.35 97.98 24.99 99.11 26.9 100.36 30.09 102.61 33.33 103.36 34.83 104.36 39.14 104.35 39.15 102.26 40.49 100.72 41.75 97.84 45.38 96.53 47.58 96.07 48.85 96.17 49.49 96.61 49.85 97.36 50.28 98.12 50.9 98.74 51.69 99.18 52.6 99.42 53.57 99.82 55.97 101.43 61.45 101.54 64.75 100.94 66.37 99.83 67.43 98.53 67.77 96.4 67.95 95.74 68.11 92.65 69.64 91.71 69.87 90.95 69.94 90.05 69.9 89.06 69.96 85.35 70.68 82.49 71.79 80.53 73.13 79.2 73.63 78 73.77 76.36 73.52 75.08 73.8 72.6 75.55 72.23 76.08 71.93 76.97 72.16 77.59 72.66 78.47 73.07 79.61 73.41 81.14 73.39 83.39 72.99 84.56 72.33 85.52 71.32 86.37 70.53 87.83 70.73 88.79 71.79 89.45 74.59 90.07 76.72 90.32 77.3 90.48 77.7 90.73 77.89 90.92 80.01 93.52 84.86 97.71 81.79 101.21 78.62 102.79 74.44 103.99 72.99 105.23 71.58 108.34 70.26 110.37 69.6 111.83 69.21 113.21 69.03 114.46 68.4 116.36 67.27 117.99 65.42 120.24 64.13 121.28 62.72 122.06 58.01 123.34 56.29 124.17 53.63 126.41 52.62 127.66 52.09 128.96 51.95 129.71 51.24 130.42 50.93 131.06 50.52 133.62 49.12 135.04 48.55 136.43 47.94 138.45 46.34 141.22 47.27 146.69 46.7 153.99 46.79 155.26 47.01 156.3 47.26 156.89 47.74 157.74 49.14 159.75 49.7 160.86 50.37 162.79 50.58 163.97 50.43 171.12 50.43 171.32 50.43 171.35 48.78 171.3 46.81 172.27 45.84 173.61 45.58 175.29 46.41 181.53 45.92 182.83 44 181.91 39.85 177.5 38.07 176.56 36.1 176.47 34.22 176.93 32.32 177.16 30.36 176.45 29.24 175.21 26.57 170.35 25.82 169.8 24.03 169.41 23.23 169.07 22.48 168.34 21.46 166.77 20.9 166.13 19.25 165.23 15.8 164.7 13.92 164.12 12.5 163.13 9.23 159.28 6.06 157.64 5.19 157.48 3.4 157.16 1.6 155.91 1 151.92 1.08 149.95 1.35 148.17 2 146.51 3.22 144.92 4.74 143.85 6.38 143.11 7.78 142.15 8.61 140.46 8.61 140.44 8.3 137.22 9.12 132.85 11.03 129.12 14.06 127.83 15.73 128.03 17.78 128.05 19.67 127.56 20.88 126.27 20.63 124.75 18.99 120.65 19.48 119.23 21.18 119.03 22.41 119.89 23.34 120.08 25.36 113.64 25.76 111.36 25.49 109.52 24.77 108.97 23.87 109.01 23.03 108.88 22.49 107.86 21.77 103.9 19.7 100.69 18.99 99.05 19.37 97.31 20.42 96.62 23.27 95.8 23.86 94.9 24.14 93.63 24.8 92.99 25.69 92.44 26.58 91.43 26.61 91.42 28.57 90.11 29.41 89.35 30.11 88.47 30.15 87.97 29.9 87.42 29.76 86.82 30.11 86.14 30.65 85.76 31.87 85.18 32.42 84.82 34.63 82.65 35.8 80.62 35.95 78.47 35.05 75.91 33.71 73.28 32.78 70.81 32.77 68.32 34.21 65.61 36.78 63.78 42.63 62.41 44.72 60.88 49.73 55.37 51.91 52.3 53.22 48.77 54.05 47.09 55.51 46.37 59.05 45.98 60.92 45.46 62.17 44.76 64.72 42.65 68.22 40.57 69.19 39.64 72.13 35.55 73.5 34.3 79.39 30.39 81.34 27.82 80.04 25.2 81.41 24.04 83.13 22.25 84.69 21.25 85.65 22.45 86.6 24.19 88.32 24.56 94.92 22.61 95.69 22.56 Z" id="NPL-1128" data-name="Mahakali"/>
<path d="M 149.87 127.6 143.42 131.77 142.01 132.22 140.92 132.98 136.29 137.57 136.07 139.61 136.75 141.8 137.97 143.56 139.33 144.26 144.38 151.02 147.88 154.37 149.25 156.35 149.8 158.72 150.59 160.23 151.91 161.4 152.16 162.51 149.8 163.8 148.2 164.37 147.38 164.52 146.39 164.47 146.39 163.8 147.63 162.93 147.49 162.37 146.39 161.79 146.73 158.72 142.5 154.4 141.04 151.63 139.46 149.88 137.82 149.37 129.23 150.29 128.27 150.01 125.99 148.69 124.91 148.28 122.76 148.18 116.45 148.95 114.44 148.46 109.39 144.94 105.45 143.15 103.36 142.51 101.38 142.26 99.49 142.71 97.42 143.79 95.8 145.11 95.33 146.27 100.15 150.75 103.76 153.36 105.38 154.25 106.77 153.91 108.07 153.22 109.39 153.03 110.58 154 111.91 156.6 112.79 156.38 116.75 158.39 116.37 157.13 115.15 154.95 114.75 153.7 116.16 154.38 117.48 155.48 118.44 156.94 118.98 160.21 120.06 163.3 123.25 169.61 123.57 171.44 123.35 173.4 122.74 175.61 121.8 176.48 121.13 177.3 107.42 190.52 106.25 191.33 102.99 193.11 101.9 194.4 100.75 198.22 100.7 199.8 100.69 199.83 96.12 199.05 95.41 197.99 95.23 196.77 94.88 195.72 93.73 195.14 92.21 195.59 90.31 195.55 88.37 195.21 86.79 194.75 84.97 193.58 84.5 192.2 84.35 190.73 83.55 189.26 82.16 188.71 78.14 188.7 76.31 188.39 74.67 187.5 70.93 184.05 69.32 183.1 66.25 182.33 64.57 181.62 63.54 180.48 61.6 177.21 60.35 176.41 56.71 175.83 55.03 175.33 53.29 174.53 52.63 173.75 52.68 172.84 52.84 171.99 52.53 171.41 50.43 171.35 50.43 171.32 50.43 171.12 50.58 163.97 50.37 162.79 49.7 160.86 49.14 159.75 47.74 157.74 47.26 156.89 47.01 156.3 46.79 155.26 46.7 153.99 47.27 146.69 46.34 141.22 47.94 138.45 48.55 136.43 49.12 135.04 50.52 133.62 50.93 131.06 51.24 130.42 51.95 129.71 52.09 128.96 52.62 127.66 53.63 126.41 56.29 124.17 58.01 123.34 62.72 122.06 64.13 121.28 65.42 120.24 67.27 117.99 68.4 116.36 69.03 114.46 69.21 113.21 69.6 111.83 70.26 110.37 71.58 108.34 72.99 105.23 74.44 103.99 78.62 102.79 81.79 101.21 84.86 97.71 80.01 93.52 77.89 90.92 77.7 90.73 77.3 90.48 76.72 90.32 74.59 90.07 71.79 89.45 70.73 88.79 70.53 87.83 71.32 86.37 72.33 85.52 72.99 84.56 73.39 83.39 73.41 81.14 73.07 79.61 72.66 78.47 72.16 77.59 71.93 76.97 72.23 76.08 72.6 75.55 75.08 73.8 76.36 73.52 78 73.77 79.2 73.63 80.53 73.13 82.49 71.79 85.35 70.68 89.06 69.96 90.05 69.9 90.95 69.94 91.71 69.87 92.65 69.64 95.74 68.11 96.4 67.95 98.53 67.77 99.83 67.43 100.94 66.37 101.54 64.75 101.43 61.45 99.82 55.97 99.42 53.57 99.18 52.6 98.74 51.69 98.12 50.9 97.36 50.28 96.61 49.85 96.17 49.49 96.07 48.85 96.53 47.58 97.84 45.38 100.72 41.75 102.26 40.49 104.35 39.15 104.36 39.14 104.4 39.31 105.67 40.22 108.3 39.64 110.6 39.6 115.15 41.44 117.34 41.07 118.36 39.68 118.21 36.93 119.56 36.11 121.29 35.65 122.24 35.02 122.35 34.81 123.25 35.31 125.4 36.65 127.49 37.4 128.38 37.92 129.6 38.83 130.37 39.21 131.28 39.43 134.49 39.08 136.64 39.08 137.23 39.24 137.55 39.44 138.17 41.02 139.15 42.79 139.6 43.4 140.01 44.07 140.43 44.94 140.62 45.87 140.55 46.96 140.26 48.82 140.34 49.65 140.76 50.46 142.82 51.79 143.73 52.24 144.49 52.42 144.96 52.4 145.6 52.06 148.06 48.84 150.13 47.79 151.21 47.53 152.34 47.38 159.67 47.26 161.42 47.51 162.62 47.95 163.9 48.79 165.55 49.34 169.32 50.03 170.64 50.4 171.63 51.12 172.06 52.04 172.12 53.17 171.92 53.96 171.54 54.67 170.95 55.33 170.22 55.92 168.91 56.81 168.35 57.36 168.01 58.13 167.77 59.32 167.53 62.45 167.08 64.94 164.36 72.52 164.28 73.35 164.42 74.53 165.04 76.23 165.99 77.4 167.1 78.34 168.33 79.09 169.94 79.74 170.44 79.82 172.36 80.33 172.87 80.94 173.29 81.83 173.39 83.91 173.29 85.45 172.66 87.52 171.09 88.84 167.2 91.14 166.17 92.43 165.56 94.03 165.27 95.97 165.2 98.26 165.62 100.51 166.58 102.39 167.63 103.96 167.05 105.72 163.61 106.64 161.92 106.86 160.71 106.81 159.69 106.42 157.21 104.43 156.48 104.09 155.75 103.92 153.86 103.97 152.49 104.18 148.44 105.29 146.89 106.3 143.88 108.99 142.95 110.05 142.53 110.98 142.59 111.98 142.98 112.96 143.79 114.52 142.95 120.54 143.24 122.11 143.65 123.36 144.38 123.88 147.3 125.5 148.57 126.41 149.87 127.6 Z" id="NPL-1129" data-name="Seti"/>
<path d="M 591.68 248.96 589.88 253.35 589.5 255.69 589.74 259.19 589.69 261.31 589.34 262.26 588.72 262.79 586.5 263.18 585.9 263.39 584.96 264.24 583.61 265.96 582.04 269.05 580.87 270.81 579.68 272.24 575.84 275.95 571.17 281.11 570.69 282.51 569.61 284.37 568.97 285.28 567.88 286.31 567.38 286.95 567.39 286.98 567.4 287 567.91 288.39 568.06 288.99 568.55 292.98 566.22 295.25 560.5 296.13 559.36 296.73 558.86 297.4 558.81 298.25 558.53 299.25 557.62 300.58 556.56 301.04 555.22 301.13 541.11 300.31 540.44 300.1 539.82 299.8 537.69 298.3 535.29 296.24 532.82 295.1 529.89 294.32 526.74 293.82 522.49 293.17 516.35 290.07 514.99 289.01 514.02 288.01 513.62 287.07 513.59 286.93 513.27 284.66 513.03 284.06 512.65 283.53 512.18 282.98 511.74 282.33 511.4 281.73 511.23 280.61 510.41 274.45 509.13 270.81 508.64 270.04 508.1 269.51 507.03 269.15 502.3 268.29 497.22 266.24 495.56 265.8 494.24 265.6 487.52 265.89 486.45 266.08 483.74 266.87 481.7 267.03 479.5 267.52 477.38 268.74 475.8 269.18 474.63 269.28 468.45 268.71 467.28 265.58 466.81 265.02 466.08 264.35 465.06 263.91 457.85 263.65 456.25 263.36 455.79 262.94 455.75 262.47 456.2 261.76 456.14 261.19 455.84 260.4 454.58 258.88 453.87 257.85 453.48 257.08 453.39 256.42 453.45 255.89 453.62 255.33 454.2 254.14 454.42 253.5 455.46 254.09 455.75 254.32 456.23 254.85 456.68 255.42 457.3 256.03 458.04 256.42 458.87 256.67 459.85 256.79 460.74 256.79 461.54 256.67 462.29 256.46 463.01 255.84 463.58 254.85 463.87 252.84 463.72 251.46 463.26 250.01 461.39 247.09 461 246.19 460.78 245.55 460.92 244.48 461.47 243.54 464.48 240.91 465.88 239.41 470.96 230.82 471.69 229.98 472.7 229.13 474.43 228.15 476.39 227.47 479.01 227.01 480.03 226.47 481.06 225.47 482.22 223.38 483.83 217.83 484.81 216.31 486.16 214.87 490.1 212.05 491.11 211.13 493.05 207.66 494.44 206.31 496.29 205.46 496.3 205.45 496.14 206.72 496.84 208.16 499 209.32 501.43 209.35 503.43 208.48 505.3 208.14 508.45 210.69 510.23 211.34 512.14 211.71 513.73 211.8 515.05 211.52 517.79 210.42 518.93 210.25 520.21 210.78 521.1 211.63 522.14 212.36 523.83 212.51 525.32 211.9 527.63 209.66 528.99 208.91 530.59 208.85 532.07 209.33 534.92 210.61 537.06 210.27 539.33 210.23 541.58 210.48 543.7 210.97 545.68 212.17 547 213.38 548.26 213.35 550.94 209.75 551.71 209.18 553.79 208.51 554.46 207.93 554.58 207.08 554.56 206.14 554.87 205.34 556.22 205.11 556.71 207.24 556.89 211.59 558.44 214.11 560.29 216.25 562.46 218.05 565.02 219.53 569.35 221.26 571.45 222.39 572.93 223.92 573.29 224.94 573.75 227.1 575.45 229.12 575.64 230.04 575.52 230.99 575.58 232.17 576.35 234.44 577.4 235.78 580.83 238.49 582.07 240.31 582.04 242.2 581.6 244.17 581.54 246.19 582.67 248.63 584.39 249.23 588.92 248.77 591.37 249 591.68 248.96 Z" id="NPL-1130" data-name="Bagmati"/>
<path d="M 636.99 240.78 638.79 242.38 641.69 246.44 642.37 248.96 642.34 251.61 642.89 256.59 643.78 259.36 643.84 261.39 644.15 263 643.78 264.02 643.31 264.78 642.58 265.76 641.82 267.19 640.83 270.06 639.84 272.06 638.76 273.38 637.52 274.12 635.2 274.83 633.12 275.2 632.21 275.47 631.51 275.8 628.29 278.64 626.86 279.59 621.97 284.49 613.21 291.78 611.71 293.74 610.03 297.06 609.2 299.25 608.97 300.12 608.96 300.91 609.11 301.63 610.02 303.77 610.16 304.62 609.92 305.84 609.43 307.41 606.9 311.3 606.9 311.93 608.5 312.33 613.96 312.22 617.14 312.85 618.61 313.28 619.44 313.78 620.07 314.64 620.79 315.39 621.24 315.74 624.32 317.4 624.72 317.78 624.98 318.1 624.41 319.04 621.44 322.27 618.77 324.34 618.74 324.89 619.04 325.37 619.55 325.73 620 326.14 620.46 326.7 621.33 329.15 622.03 331.99 622.09 334.87 621.74 336.31 621.14 337.16 617.02 338.27 614.44 339.85 611.59 343.51 609.23 344.32 608.29 344.2 607 343.92 604.44 342.89 603.53 342.9 602.66 343.28 601.35 344.7 600.91 345.43 600.68 346.06 600.63 346.71 600.76 347.31 601.55 349.34 601.8 350.59 601.82 355.51 601.92 356.54 602.16 357.52 602.59 358.64 603.24 359.73 605 362.13 605.52 363.06 605.84 364.23 605.72 365.15 605.38 366.02 600.82 374.83 600.69 375.08 600.67 375.11 600.52 375.09 598.29 375.22 597.68 374.99 597.18 374.58 590.41 370.79 587.44 369.91 583.94 370.89 581.63 371.12 579.92 372.02 573.22 377.21 571.1 378.33 569.51 378.56 568.83 378.02 568.65 377.25 568.63 376.39 568.44 375.57 567.67 374.95 566.72 375.18 565.73 375.53 564.85 375.32 559.56 371.56 558.17 370.03 557.13 366.57 557.85 359.32 557.09 355.97 555.71 354.47 548.02 350.63 546.97 350.3 539.21 353.04 534.92 355.12 531.38 356.84 529.61 357.33 527.81 356.85 526.11 356.77 524.48 358.08 523.12 359.56 523.12 359.52 522.98 355.52 523.15 353.52 524.03 350.42 525.55 346.83 528.74 342.58 529.32 341.5 529.68 340.37 529.82 338.65 529.67 337.41 529.46 336.5 529.26 335.93 529.1 335.06 529.03 334.3 529.25 333.17 529.68 332.04 531.09 329.73 537.33 321.98 537.95 319.78 538.21 317.27 538.39 316.52 538.58 316.01 538.83 315.58 539.02 314.76 538.96 313.63 538.41 311.36 537.86 310.06 537.33 309.17 536.84 308.66 536.25 308.17 535.47 307.69 533.07 306.54 532.2 305.96 531.71 305.32 531.43 304.47 531.43 303.59 531.59 302.91 533.14 301.22 537.69 298.3 539.82 299.8 540.44 300.1 541.11 300.31 555.22 301.13 556.56 301.04 557.62 300.58 558.53 299.25 558.81 298.25 558.86 297.4 559.36 296.73 560.5 296.13 566.22 295.25 568.55 292.98 568.06 288.99 567.91 288.39 567.4 287 567.39 286.98 567.38 286.95 567.88 286.31 568.97 285.28 569.61 284.37 570.69 282.51 571.17 281.11 575.84 275.95 579.68 272.24 580.87 270.81 582.04 269.05 583.61 265.96 584.96 264.24 585.9 263.39 586.5 263.18 588.72 262.79 589.34 262.26 589.69 261.31 589.74 259.19 589.5 255.69 589.88 253.35 591.68 248.96 592.37 248.85 593.74 248.29 596.83 245.54 597.39 245.15 597.33 244.13 596.83 243.44 596.18 242.85 595.7 242.11 595.65 241.03 595.94 240.18 595.95 239.38 595.09 238.49 595.09 238.48 595.08 238.47 595.08 238.48 594.09 237.86 593.94 237.29 594.12 236.67 594.12 235.85 594.55 234.2 594.63 233.67 594.32 232.91 593.21 231.43 593.06 230.45 601.62 222.63 603.58 222.97 604.57 224.88 604.68 227.32 604.05 229.27 603.21 230.93 603.43 231.85 604.16 232.59 604.87 233.7 605.54 236.55 606.23 237.72 607.68 238.47 607.69 238.47 607.74 238.49 609.71 239 611.72 239.19 613.59 239.57 615.22 240.68 617.53 243.29 618.46 243.89 619.42 244.05 620.21 243.77 621 243.39 621.91 243.26 622.8 243.67 626.1 246.11 628.03 246.81 629.35 246.72 632.94 245.07 635.05 244.07 636.38 242.64 636.99 240.78 636.99 240.78 Z" id="NPL-1131" data-name="Janakpur"/>
<path d="M 454.42 253.5 454.2 254.14 453.62 255.33 453.45 255.89 453.39 256.42 453.48 257.08 453.87 257.85 454.58 258.88 455.84 260.4 456.14 261.19 456.2 261.76 455.75 262.47 455.79 262.94 456.25 263.36 457.85 263.65 465.06 263.91 466.08 264.35 466.81 265.02 467.28 265.58 468.45 268.71 474.63 269.28 475.8 269.18 477.38 268.74 479.5 267.52 481.7 267.03 483.74 266.87 486.45 266.08 487.52 265.89 494.24 265.6 495.56 265.8 497.22 266.24 502.3 268.29 507.03 269.15 508.1 269.51 508.64 270.04 509.13 270.81 510.41 274.45 511.23 280.61 511.4 281.73 511.74 282.33 512.18 282.98 512.65 283.53 513.03 284.06 513.27 284.66 513.59 286.93 513.62 287.07 514.02 288.01 514.99 289.01 516.35 290.07 522.49 293.17 526.74 293.82 529.89 294.32 532.82 295.1 535.29 296.24 537.69 298.3 533.14 301.22 531.59 302.91 531.43 303.59 531.43 304.47 531.71 305.32 532.2 305.96 533.07 306.54 535.47 307.69 536.25 308.17 536.84 308.66 537.33 309.17 537.86 310.06 538.41 311.36 538.96 313.63 539.02 314.76 538.83 315.58 538.58 316.01 538.39 316.52 538.21 317.27 537.95 319.78 537.33 321.98 531.09 329.73 529.68 332.04 529.25 333.17 529.03 334.3 529.1 335.06 529.26 335.93 529.46 336.5 529.67 337.41 529.82 338.65 529.68 340.37 529.32 341.5 528.74 342.58 525.55 346.83 524.03 350.42 523.15 353.52 522.98 355.52 523.12 359.52 523.12 359.56 522.91 359.79 521.32 360.85 517.92 361.78 516.44 361.81 507.39 359.67 504.52 356.98 504.51 353.6 504.16 350.63 500.32 349.19 498.1 349.41 492.59 351.35 490.1 351.14 489.93 349.83 490.05 348.34 488.36 347.57 487.12 347.42 485.9 347.12 483.64 346.06 482.81 344.29 482.25 342.24 480.83 340.37 478.62 339.24 473.74 337.78 471.44 336.53 471.42 336.52 470.38 334.99 468.86 334.68 467.24 335.19 465.92 336.1 464.81 336.12 453 333.24 451.73 332.45 451.16 330.34 452.03 328.1 453.42 325.85 454.39 323.73 454.92 319.84 454.71 316.08 453.78 312.42 452.19 308.86 449.7 305.58 446.8 303.76 418.6 299.15 416.47 297.93 414.63 295.59 413.66 293.75 412.34 292.84 409.37 293.27 408.45 293.02 407.4 290.63 406.48 289.73 404.12 288.89 403.07 288.33 402.15 287.49 401.72 285.7 399.99 285.35 398.03 286.06 393.06 291.54 390.98 292.8 387.86 292.91 383.95 292.29 382.68 291.91 382.58 291.93 382.66 291.87 384.22 290.75 384.54 289.7 384.43 288.59 384.46 287.46 385.2 286.37 386.27 285.16 385.94 284.68 383.89 284.66 382.94 284.33 382.92 283.57 383.46 282.7 384.22 282.05 385.05 281.87 386.21 281.87 392.82 282.68 395.03 282.49 397 281.32 400.35 283.39 401.56 282.19 405.57 276.26 407.78 273.96 409.42 274.57 410.65 273.71 412.46 271.34 413.66 270.88 414.73 270.93 415.93 271.19 417.51 271.34 420.22 270.47 422.69 268.79 425.18 267.7 427.92 268.6 430.63 267.08 431.59 266.02 431.99 264.58 431.62 263.44 430.69 261.68 432.12 261.25 435.47 261.61 435.88 261.32 435.75 260.75 435.33 260.33 434.9 259.99 434.43 259.33 434.05 258.37 434.29 256.81 435.04 256.05 439.48 254.39 444.75 251.18 446.8 249.68 447.42 249.48 448.29 249.29 449.35 249.44 450.3 249.7 451.17 250.09 452.14 250.7 453.26 251.86 454.42 253.5 Z" id="NPL-1132" data-name="Narayani"/>
<path d="M 682.62 242.81 682.61 242.95 682.37 249.11 683.45 253.52 684.13 255.49 684.3 256.44 684.31 256.99 683.8 258.9 683.61 261.17 684.4 265.22 684.39 266.58 684.22 267.56 682.43 273.3 680.53 283.17 680.07 284.5 679.14 288.45 678.76 289.48 677.64 290.67 675.86 292.45 675.58 293.03 675.17 294.46 676.31 298.03 680.21 303.99 680.53 305.63 680.47 306.96 680.18 307.59 679.66 308.17 678.93 308.55 678.06 308.88 677.32 309.29 676.79 309.87 676.46 311.37 677.06 315.74 676.98 317.51 676.16 323.46 676.42 324.94 676.97 326.16 678.85 327.96 679.87 329.14 680.28 330.31 681.12 345.2 684.43 345.7 696.08 343.3 699.54 343.2 701.16 343.78 701.57 345.52 701.05 347.5 700.69 348.2 700.16 350.26 700.08 350.88 699.49 352.04 698.11 353.05 695.39 354.59 688.54 361.07 686.32 361.96 684.78 363.18 682.55 371.39 681.12 373.54 680.62 374.76 680.91 375.74 681.23 376.42 681.39 377.51 681.41 378.65 681.27 379.48 680.49 380.49 678.31 382.28 678.03 383.02 678.02 383.06 675.27 383.92 672.21 385.55 671.2 387.75 669.31 389.69 666.91 391.12 664.41 391.76 663.51 391.61 660.05 390.39 658.7 390.57 657.97 391.54 657.32 392.7 656.29 393.43 654.49 393.07 647.64 389.33 641.03 386.62 639.07 385.55 639.05 385.55 637.73 384.16 636.39 383.07 634.85 382.32 632.94 381.91 629.94 380.82 623.94 377.91 621 376.95 620.14 376.95 618.01 377.2 617.31 377.11 616.62 376.42 616.58 375.03 615.87 374.36 614.21 374.07 612.12 374.35 608.4 375.5 606.22 376.76 605.53 376.94 604.5 376.77 603.9 376.36 603.43 375.9 602.78 375.58 601.29 375.18 600.67 375.11 600.69 375.08 600.82 374.83 605.38 366.02 605.72 365.15 605.84 364.23 605.52 363.06 605 362.13 603.24 359.73 602.59 358.64 602.16 357.52 601.92 356.54 601.82 355.51 601.8 350.59 601.55 349.34 600.76 347.31 600.63 346.71 600.68 346.06 600.91 345.43 601.35 344.7 602.66 343.28 603.53 342.9 604.44 342.89 607 343.92 608.29 344.2 609.23 344.32 611.59 343.51 614.44 339.85 617.02 338.27 621.14 337.16 621.74 336.31 622.09 334.87 622.03 331.99 621.33 329.15 620.46 326.7 620 326.14 619.55 325.73 619.04 325.37 618.74 324.89 618.77 324.34 621.44 322.27 624.41 319.04 624.98 318.1 624.72 317.78 624.32 317.4 621.24 315.74 620.79 315.39 620.07 314.64 619.44 313.78 618.61 313.28 617.14 312.85 613.96 312.22 608.5 312.33 606.9 311.93 606.9 311.3 609.43 307.41 609.92 305.84 610.16 304.62 610.02 303.77 609.11 301.63 608.96 300.91 608.97 300.12 609.2 299.25 610.03 297.06 611.71 293.74 613.21 291.78 621.97 284.49 626.86 279.59 628.29 278.64 631.51 275.8 632.21 275.47 633.12 275.2 635.2 274.83 637.52 274.12 638.76 273.38 639.84 272.06 640.83 270.06 641.82 267.19 642.58 265.76 643.31 264.78 643.78 264.02 644.15 263 643.84 261.39 643.78 259.36 642.89 256.59 642.34 251.61 642.37 248.96 641.69 246.44 638.79 242.38 636.99 240.78 636.96 238.49 636.94 236.77 637.54 235.65 638.38 234.67 639.11 233.35 639.34 231.88 639.39 230.31 639.68 228.86 640.6 227.76 642.17 227.52 643.5 228.36 644.85 229.49 646.36 230.1 647.82 229.79 650 228.05 651.23 227.5 653 227.61 654.92 228.29 656.69 229.32 658.07 230.43 658.49 231.62 658.12 234.55 658.86 235.87 661.82 236.79 668.73 236.53 671.45 238.48 671.45 238.49 672.3 240.85 673.89 242.47 676.01 243.36 678.53 243.55 681.45 243.13 682.62 242.81 Z" id="NPL-1133" data-name="Sagarmatha"/>
<path d="M 750.9 256.28 748.55 262.19 746.44 266.12 744.85 268.22 743.79 269.31 742.8 269.85 742.1 269.85 741.32 269.54 740.72 269.12 740.02 268.77 739.32 268.65 738.54 268.88 738.09 269.63 737.29 273.15 736.18 275.79 735.06 277.56 733.2 279.72 732.13 281.37 731.39 282.95 730.23 286.92 729.26 292.74 728.52 295.21 728.18 296.96 728.12 298.45 728.5 299.58 729.09 300.5 734.99 306.2 735.7 306.69 736.76 307.14 741.12 307.89 750.64 311.4 754.82 312.81 756.32 313.79 756.71 314.45 756.9 315.07 756.9 315.7 756.71 316.22 756.1 316.87 754.6 318.08 754.18 318.84 753.97 319.8 753.69 320.63 753.19 321.39 752.46 321.94 751.56 322.37 747.21 323.75 746.03 324.3 743.51 326 738.02 331.11 733.41 336.22 731.49 337.87 733.64 340.66 735.84 346.35 736.64 347.49 737.47 348.3 739.17 349.15 743.03 350.55 743.24 350.65 748.06 356.56 749.52 359.19 749.67 359.92 749.72 361.47 747.62 369.68 747.34 391.04 747.5 392.53 747.97 393.84 747.98 393.87 745.56 395.55 741.93 397.01 738.5 396.16 731.47 392.56 728.46 392.05 725.21 392.21 722.05 393.03 719.32 394.49 718.19 395.9 716.36 399.43 715.16 400.37 713.84 400.15 709.71 398.49 708.43 397.77 707.54 396.49 706.87 394.98 705.86 394.06 702.85 394.9 697.61 395.42 694.8 394.39 692.54 391.71 690.91 388.42 689.93 385.55 689.91 385.55 689.91 385.55 688.79 380.71 688.73 379.05 688.43 377.19 687.31 377.23 685.89 378.29 682.92 381.06 681.67 381.91 678.02 383.06 678.03 383.02 678.31 382.28 680.49 380.49 681.27 379.48 681.41 378.65 681.39 377.51 681.23 376.42 680.91 375.74 680.62 374.76 681.12 373.54 682.55 371.39 684.78 363.18 686.32 361.96 688.54 361.07 695.39 354.59 698.11 353.05 699.49 352.04 700.08 350.88 700.16 350.26 700.69 348.2 701.05 347.5 701.57 345.52 701.16 343.78 699.54 343.2 696.08 343.3 684.43 345.7 681.12 345.2 680.28 330.31 679.87 329.14 678.85 327.96 676.97 326.16 676.42 324.94 676.16 323.46 676.98 317.51 677.06 315.74 676.46 311.37 676.79 309.87 677.32 309.29 678.06 308.88 678.93 308.55 679.66 308.17 680.18 307.59 680.47 306.96 680.53 305.63 680.21 303.99 676.31 298.03 675.17 294.46 675.58 293.03 675.86 292.45 677.64 290.67 678.76 289.48 679.14 288.45 680.07 284.5 680.53 283.17 682.43 273.3 684.22 267.56 684.39 266.58 684.4 265.22 683.61 261.17 683.8 258.9 684.31 256.99 684.3 256.44 684.13 255.49 683.45 253.52 682.37 249.11 682.61 242.95 682.62 242.81 683.27 242.63 684.93 242.73 687.37 244.05 690.45 246.95 695.8 253.21 699.65 255.06 702.22 255.18 707.21 254.67 712.86 256.01 715.15 254.78 717.3 253.04 720.05 252.17 722.16 252.74 721.7 254.07 720.57 255.71 720.57 257.2 722.3 257.15 731 254.97 734.82 254.13 736.5 253.98 738.43 254.46 738.89 254.93 739.26 255.71 739.78 256.52 740.59 257.09 742.22 257.13 745.27 255.67 746.74 255.27 749.08 255.64 750.9 256.28 Z" id="NPL-1134" data-name="Bhojpur"/>
<path d="M 794.01 251.62 796.45 252.12 797.76 252.56 798.56 253.14 798.76 254.29 797.58 256.1 798.08 260.12 797.06 262.61 795.65 265.12 793.29 273.32 787.2 282.55 784.71 287.5 784.59 288.55 784.71 289.48 785.18 291.4 785.44 291.83 786.32 292.65 786.51 293.07 786.28 293.91 785.84 294.47 785.32 294.97 784.95 295.62 784.11 297.86 783.87 298.95 783.97 300.31 784.4 301.38 785.61 303.29 785.87 304.4 785.27 306.8 782.88 311.59 781.38 314.61 781 321.48 779.56 324.33 779.4 325.16 779.55 325.95 780.02 326.7 781.57 328.03 783.35 331.55 785.11 332.56 786.62 333.19 787.91 334.26 789.96 336.83 791.92 340.01 793.39 343.45 794.23 344.96 796.43 347.95 797.27 349.48 797.65 351.16 798.02 355.38 798.88 359.27 799 361.12 798.85 362.98 798.44 364.94 796.8 369.24 792.39 377.01 790.97 381.22 790.25 383.33 790.18 384.33 790.49 385.55 790.49 385.55 789.7 389.56 786.77 394.3 783.08 397.81 780.02 398.13 778.62 396.92 775.46 395.2 774.07 394.04 773.45 393.11 772.81 391.39 772.35 390.59 772.11 390.64 769.74 388.9 769.66 388.52 767.92 388.91 764.93 391.18 763.25 391.19 761.43 390.35 759.77 389.81 758.52 390.25 757.86 392.33 757.15 393.83 755.71 394.48 754.08 394.3 752.77 393.26 751.16 392.48 749.05 393.14 747.98 393.87 747.97 393.84 747.5 392.53 747.34 391.04 747.62 369.68 749.72 361.47 749.67 359.92 749.52 359.19 748.06 356.56 743.24 350.65 743.03 350.55 739.17 349.15 737.47 348.3 736.64 347.49 735.84 346.35 733.64 340.66 731.49 337.87 733.41 336.22 738.02 331.11 743.51 326 746.03 324.3 747.21 323.75 751.56 322.37 752.46 321.94 753.19 321.39 753.69 320.63 753.97 319.8 754.18 318.84 754.6 318.08 756.1 316.87 756.71 316.22 756.9 315.7 756.9 315.07 756.71 314.45 756.32 313.79 754.82 312.81 750.64 311.4 741.12 307.89 736.76 307.14 735.7 306.69 734.99 306.2 729.09 300.5 728.5 299.58 728.12 298.45 728.18 296.96 728.52 295.21 729.26 292.74 730.23 286.92 731.39 282.95 732.13 281.37 733.2 279.72 735.06 277.56 736.18 275.79 737.29 273.15 738.09 269.63 738.54 268.88 739.32 268.65 740.02 268.77 740.72 269.12 741.32 269.54 742.1 269.85 742.8 269.85 743.79 269.31 744.85 268.22 746.44 266.12 748.55 262.19 750.9 256.28 753.05 257.03 755.64 256.82 758.54 255.59 760.84 253.72 762.68 251.36 764.2 248.67 765.35 247.14 766.41 246.96 768.32 247.92 776.01 248.24 777.05 248.53 779.13 249.47 780.31 249.69 781.62 249.48 784.2 248.55 785.36 248.43 787.6 249.1 791.81 251.18 794.01 251.62 Z" id="NPL-1135" data-name="Mechi"/>
<path d="M 306.68 165.71 306.22 168.48 305.11 170.47 301.91 174.43 296.73 176.48 291.48 177.74 289.15 178.72 288.05 179.49 288.37 180.19 289.42 181.41 289.74 182.07 289.79 182.89 289.3 183.87 288.55 184.21 287.46 184.16 286.27 184.29 284.74 184.82 283.02 186.29 282.44 187.28 282.5 188.04 283.69 188.94 281.31 192.12 281.9 193.09 282.86 193.84 284.07 196.21 284.84 197.1 286.12 198.17 286.82 198.94 287.87 201.61 296.97 207.84 299.16 209.69 300.44 211.25 300.91 213.9 299.68 215.2 295.24 217.08 293.97 218.08 293.25 219.06 293.16 220.02 293.54 220.99 295.4 223.17 295.84 224.08 295.98 225.3 295.48 226.11 294.72 226.83 292.11 228.85 290.87 232.24 290.38 234.86 289.45 237.95 289.74 239.52 290.41 240.46 291.26 241 291.93 241.62 292.24 242.18 292.51 243.23 292.08 243.85 291.51 244.29 288.31 245.27 285.42 246.84 284.25 247.21 282.99 247.38 281.77 247.32 279.46 246.91 277.08 247.55 272.7 250.95 269.34 254.21 269.08 254.6 268.88 255.16 270.1 255.97 274.62 257.84 276.88 259.95 272.61 261.18 267.74 260.76 266.22 260.93 264.38 261.46 263.36 261.94 262.63 262.4 262.13 262.94 261.72 263.53 261.14 264.65 260.44 266.87 260.21 267.72 260.2 267.74 258.07 266.98 245.72 269.82 237.34 270.68 233.54 269.63 228.24 264.84 220.64 261.46 208.94 252.85 204.66 251.35 202.99 250.49 201.15 248.76 199.19 247.27 199.05 247.23 199.06 247.21 199.56 246.14 202.59 243.5 203.05 243.22 203.6 243.03 204.1 243.03 205.94 243.23 206.78 243.21 208.82 242.85 209.83 242.48 210.43 242.13 211.05 241.59 211.37 241.17 211.59 240.68 211.71 240.17 211.87 238.05 211.83 236.46 211.4 235.21 210.58 233.93 206.1 230.37 205.31 229.9 204.42 229.76 203.63 229.73 202.78 229.53 202.11 228.98 200.48 227.05 199.64 226.35 196.58 224.21 195.81 223.37 195.42 222.31 195.58 221.39 196.87 219.55 198.26 216.03 203.45 213.61 201.27 210.54 200.19 208.33 198.21 206.31 192.23 204.13 191.62 203.22 191.62 199.6 191.26 198.47 190.74 197.62 190.14 197 189.78 196.15 189.9 195.44 190.59 194.64 191.49 194.2 193.93 193.35 194.39 193.06 195.02 192.48 195.61 191.42 196.04 190.15 195.92 188.02 195.52 186.54 193.98 183.56 193.84 182.73 194.24 181.23 194.94 179.77 198.42 176.04 202.82 177.59 204.14 177.89 205.59 178.04 209.86 177.91 212.35 176.72 214.37 173.17 214.98 172.38 215.55 171.79 217.33 170.88 218.58 169.94 220.55 168.12 224.14 163.46 225.25 162.51 230.92 159.42 241.6 152 242.82 150.67 243.69 148.93 244.08 147.57 245.3 144.99 249.83 141.38 255.5 142.91 256.82 143.57 258.48 144.82 262.28 148.29 262.8 149.09 263.09 150.35 263.1 151.85 263.03 153.17 263.16 154.16 263.8 154.98 268.41 157.8 269.83 158.23 271.51 157.97 272.53 157.64 273.8 157.53 278.85 157.93 284.8 157.54 286.2 157.78 288.25 158.42 302.86 164.9 306.68 165.71 Z" id="NPL-373" data-name="Rapti"/>
</g>
</svg>