<?xml version="1.0"?>
<svg xmlns="http://www.w3.org/2000/svg" version="1.2" baseProfile="tiny" width="800" height="726" viewBox="0 0 800 726" stroke-linecap="round" stroke-linejoin="round">
<g id="ne_10m_admin_1_states_provinces">
<path d="M 580.95 1.1 581.41 2.22 581.98 3.24 582.75 4.13 583.86 4.95 583.86 4.95 583.85 4.96 583.61 5.69 583.78 6.93 584.52 9.52 584.76 11.62 584.95 12.22 585.26 12.69 585.65 13.05 585.95 13.09 586.79 12.98 587.05 13.05 587.12 13.34 587.02 14.1 587.05 14.41 587.89 17.07 588.42 18.07 589.46 18.88 591.57 20.11 593.34 21.49 597.56 26.42 598.33 26.91 599.55 27.09 600.46 27.33 601.44 27.9 603.13 29.16 604.54 30.77 605.4 31.56 607.61 32.18 610.33 34.28 612.33 35.23 619.43 37.01 626.06 38.24 626.07 38.24 626.06 38.54 626.05 40.32 626.95 40.91 627.06 42.13 627.62 43.31 627.06 44.71 625.58 46.27 623.83 47.82 621.86 49.09 620.07 49.58 618.56 49.83 617.56 49.88 616.59 50.46 615.85 51.2 613.57 52.23 611.53 53.91 610.46 54.12 609.24 54.97 606.7 55.53 604.76 56.39 602.2 57.25 598.51 57.63 594.35 58.86 591.37 61.42 588.92 60.95 585.52 61.13 583.42 61.51 581.91 60.9 579.89 60.36 578.41 58.96 576.36 57.44 575.25 56.26 573.96 55.89 571.65 56.38 570.67 56.19 569.26 56.1 566.03 53.2 563.17 51.63 561.84 50.72 560.04 50.26 555.16 49.48 553.06 48.93 551.18 48.13 549.35 48.07 547.85 47.79 546.66 47.39 545.29 46.76 544.25 46.85 541.71 47.36 538.74 47.18 538.5 47.19 538.49 47.19 540.68 41.04 549.74 22.24 550.01 21.29 550.11 20.07 550.32 19.36 551.4 17.38 552.43 14.68 552.52 14.26 552.67 13.8 553.33 13.03 553.48 12.54 553.78 10.19 554.12 9.03 554.57 8.28 555.53 7.45 557.26 7.22 561.85 7.77 562.46 7.68 563.8 6.57 564.43 6.19 565.33 5.79 566.24 5.6 566.87 5.86 567.74 5.53 568.93 5.5 570.11 5.74 570.96 6.2 573.91 4.77 574.74 4.16 576.53 2.48 577.46 1.81 578.49 1.4 578.9 1.42 579.13 1.6 579.72 1.88 580.19 1.85 580.38 1.47 580.5 1.09 580.62 1 580.93 1.1 580.95 1.1 Z" id="MAR-1445" data-name="Tanger - Tétouan"/>
<path d="M 695.62 107.93 697.24 108.69 698.2 109.46 697.71 111.3 695.15 114.37 689.75 118.66 688.88 119.97 690.03 121.53 696.25 125.18 701.58 130.05 703.75 133.79 704.42 136.59 701.85 138.42 699.05 139.71 684.79 142.05 679.14 142.29 676.16 142 673.47 142.23 670.86 142.77 666.88 145.65 657.74 155.97 655.41 159.49 652.99 162.4 651.79 164.16 650.84 166.23 647.36 166.38 645.48 166.13 641.45 166.44 638.96 165.65 636.85 164.47 635.83 162.83 630.96 157 626.16 152.9 623.03 152.02 618.91 151.76 614.88 150.85 613.11 149.6 612.7 147.91 611.83 145.95 607.66 140.78 601.16 126.31 601.87 124.2 605.97 120.13 605.66 117.46 604.23 115.24 602.03 113.87 594.92 112.52 593.46 111.28 593.29 109.73 595.73 106.57 596.48 105.37 595.52 103.39 591.28 97.12 589.15 92.82 588.5 91.76 587.38 92.03 586.54 92.57 585.22 92.71 584.42 92.09 584.29 90.86 583.87 89.07 583.29 87.32 581.96 85.76 579.87 83.18 580.76 83.59 581.78 83.73 584.88 83.77 586.68 83.49 591.16 81.88 592.11 81.68 593.08 81.72 594.06 82.09 595.04 83.14 595.54 83.41 596.4 82.69 596.79 82.65 597.21 82.72 601.32 82.55 602.17 82.65 602.66 83.03 603.06 83.52 603.63 83.96 604.07 84.04 605.08 83.98 605.26 83.94 605.84 84.57 605.8 84.75 606.15 85.37 606.35 85.65 607.06 86.21 608.72 86.17 610.56 87.58 611.79 88.99 613.27 91.27 614.82 92.79 618.16 94.45 621.02 95.4 622.58 96.81 622.97 98.34 622.86 99.56 624.04 100.47 627.01 102 628.43 101.91 632.12 102.33 632.87 101.9 634.23 101.93 636.88 102.26 638.63 101.65 640.53 101.46 641.55 101.95 641.28 102.66 641.49 103.67 644.08 106.8 645.42 108.93 647.58 111.73 646.75 113.74 646.96 115.84 646.64 117.24 647.19 118.58 648.22 119.27 649.42 119.74 650.66 119.92 652.1 120.34 655.38 119.48 656.51 119.56 657.27 120.71 657.55 121.49 658.25 121.36 660.2 118.44 659.93 117.17 660.2 116 660.88 114.97 664.77 110.94 665.35 110.17 666.17 109.63 671.96 104.22 673.84 102.77 675.82 101.81 677.74 101.88 679.47 102.41 680.73 103.28 681.67 104.31 683.62 105.29 695.62 107.93 Z" id="MAR-1446" data-name="Fès - Boulemane"/>
<path d="M 659.69 36.94 659.7 37.29 660.08 39.09 659.57 40.85 660.26 50.71 661.72 52.23 664.27 53.68 666.23 54.04 670.21 55.21 670.98 57.45 670.79 58.82 670.39 60.27 670.33 61.37 669.5 62.15 669.1 63.04 669.15 64.08 669.64 65.09 671.05 65.72 673.53 67.6 675.2 67.56 682.55 62.84 684.24 61.18 685.36 59.84 687.15 58.58 690.83 58.38 701.45 61.91 702.21 62.93 702.4 64.16 702.64 65.17 703.28 66.19 702.68 66.71 701.87 66.48 700.71 66.42 699.49 66.74 698.72 67.44 698.76 68.41 697.55 71.75 697.39 71.88 697.27 72.32 697.04 72.49 696.5 72.71 696.31 73.04 696.19 73.43 695.85 73.85 692.21 75.91 691.47 76.53 691.05 77.14 691.04 77.67 690.94 79.03 692.11 80.78 695.24 84.31 696.01 87.09 697.26 89.92 696.57 92.42 695.24 94.16 690.61 95.93 690.23 97.39 691.02 99.89 695.62 107.93 683.62 105.29 681.67 104.31 680.73 103.28 679.47 102.41 677.74 101.88 675.82 101.81 673.84 102.77 671.96 104.22 666.17 109.63 665.35 110.17 664.77 110.94 660.88 114.97 660.2 116 659.93 117.17 660.2 118.44 658.25 121.36 657.55 121.49 657.27 120.71 656.51 119.56 655.38 119.48 652.1 120.34 650.66 119.92 649.42 119.74 648.22 119.27 647.19 118.58 646.64 117.24 646.96 115.84 646.75 113.74 647.58 111.73 645.42 108.93 644.08 106.8 641.49 103.67 641.28 102.66 641.55 101.95 640.53 101.46 638.63 101.65 636.88 102.26 634.23 101.93 632.87 101.9 632.12 102.33 628.43 101.91 627.01 102 624.04 100.47 622.86 99.56 622.97 98.34 622.58 96.81 621.02 95.4 618.16 94.45 614.82 92.79 613.27 91.27 611.79 88.99 610.56 87.58 608.72 86.17 607.06 86.21 606.35 85.65 606.15 85.37 605.8 84.75 605.84 84.57 605.26 83.94 605.08 83.98 604.07 84.04 603.63 83.96 603.06 83.52 602.66 83.03 602.17 82.65 601.32 82.55 597.21 82.72 596.79 82.65 596.4 82.69 595.54 83.41 595.04 83.14 594.06 82.09 593.08 81.72 592.11 81.68 591.16 81.88 586.68 83.49 584.88 83.77 581.78 83.73 580.76 83.59 579.87 83.18 577.46 80.4 576.95 79.98 576.65 79.47 576.37 78.72 577.43 77.87 583.41 74.31 584.75 72.42 587.41 70.65 588.41 69.79 589.99 69.25 591.03 68.43 591.64 67.2 591.99 65.67 591.93 63.07 591.37 61.42 594.35 58.86 598.51 57.63 602.2 57.25 604.76 56.39 606.7 55.53 609.24 54.97 610.46 54.12 611.53 53.91 613.57 52.23 615.85 51.2 616.59 50.46 617.56 49.88 618.56 49.83 620.07 49.58 621.86 49.09 623.83 47.82 625.58 46.27 627.06 44.71 627.62 43.31 627.06 42.13 626.95 40.91 626.05 40.32 626.06 38.54 626.07 38.24 626.12 38.25 632.03 39.68 633.44 39.77 634.47 39.53 637.35 38.03 644.28 37.04 648.47 35.48 652.73 34.76 654.83 33.94 655.33 34.52 655.17 34.73 654.56 34.9 654.32 35.09 654.54 35.39 654.87 35.73 655.6 36.57 656.33 36.86 657.36 36.91 658.75 37.01 659.69 36.94 659.69 36.94 Z" id="MAR-1447" data-name="Taza - Al Hoceima - Taounate"/>
<path d="M 591.37 61.42 591.93 63.07 591.99 65.67 591.64 67.2 591.03 68.43 589.99 69.25 588.41 69.79 587.41 70.65 584.75 72.42 583.41 74.31 577.43 77.87 576.37 78.72 576.65 79.47 576.95 79.98 577.46 80.4 579.87 83.18 578.18 86.57 578.53 87.46 578.37 88.29 577.47 88.94 572.35 90.73 570.55 90.63 568.5 90.72 566.99 90.53 565.78 90.08 565.42 88.98 564.49 88.37 563.82 87.61 561.48 86.62 560.9 87.15 560.01 87.72 559.42 88.85 557.82 89.79 556.68 91.37 555.08 91.94 553.89 91.82 552.34 92.02 550.08 91.84 547.45 91.38 544.25 90.08 540.84 89.33 537.09 89.06 534.69 89.11 532.82 88.78 531.07 89.28 529.13 89.21 526.82 90.34 524.73 90.68 523.22 91.19 521.59 90.67 519.6 90.39 517.79 89.41 516.59 89.34 514.86 88.09 514.85 88.09 517.59 83.19 523.08 76.34 523.59 75.49 524.43 73.53 525.58 71.99 536.35 53.21 538.49 47.19 538.5 47.19 538.74 47.18 541.71 47.36 544.25 46.85 545.29 46.76 546.66 47.39 547.85 47.79 549.35 48.07 551.18 48.13 553.06 48.93 555.16 49.48 560.04 50.26 561.84 50.72 563.17 51.63 566.03 53.2 569.26 56.1 570.67 56.19 571.65 56.38 573.96 55.89 575.25 56.26 576.36 57.44 578.41 58.96 579.89 60.36 581.91 60.9 583.42 61.51 585.52 61.13 588.92 60.95 591.37 61.42 Z" id="MAR-1448" data-name="Gharb - Chrarda - Béni Hssen"/>
<path d="M 529.98 135.23 530.79 137.37 532.96 138.77 534.83 139.59 540.81 143.24 544.31 146.54 543.88 147.97 543.49 148.93 543.27 150.83 544.11 151.58 546.61 151.61 548.07 152.26 549.09 154.26 548.8 155.35 548.86 157.46 547.78 159.07 546.36 159.74 540.2 161.39 536.35 162.02 522.05 161.06 520.45 161.79 518.92 162.14 517.91 162.87 516.99 162.64 515.77 162.58 514.73 162.38 511.65 162.31 509.04 162.73 508.12 162.58 503.69 164.77 502.05 165.16 501.24 166.6 499.77 172.01 497.52 176.72 494.68 179.75 491.22 179.28 486.01 176.28 484.27 175.47 482.44 174.14 478.76 173.36 472.22 173.11 470.98 172.77 469.99 172.63 468.76 171.87 463.56 165.78 459.6 163.02 457.43 161.95 455.63 160.29 452.67 157.02 451.56 155.41 450.99 153.73 450.34 153.34 449.35 153.11 448.8 152.27 448.39 151.43 448.38 150.33 447.87 149.25 447.87 147.4 447.3 142.96 445.19 138.75 445.83 137.53 446.56 136.49 447.9 135.92 449.19 135.53 450.08 134.84 450.35 134.14 450.9 133.3 451.88 132.55 452.65 130.39 452.62 128.08 452.16 126.4 450.58 123.93 450.5 123.84 450.5 123.84 452.94 122.92 455.26 122.43 456.5 121.99 456.77 121.7 456.77 121.71 456.84 121.74 458 122.37 460.51 122.74 461.82 123.24 463.67 123.58 466.99 125.06 468.46 124.84 471.53 124.87 472.2 125.53 470.48 126.91 470.36 128 470.86 128.71 471.97 129.03 472.74 128.69 473.54 128.22 475.18 126.18 479.72 123.54 481.36 120.87 481.29 119.58 481.12 118.59 481.13 117.76 481.05 116.95 481.32 115.45 481.68 114.54 482.66 113.4 483.02 112.33 483.71 111.6 483.98 110.74 483.97 110.62 487.65 108.56 489.56 107.13 491.37 106.3 493.39 105.68 495.16 105.44 495.28 105.53 497.17 107.39 498.09 107.96 499.11 109.59 499.96 111.5 500.43 113.24 502.07 116.46 503.51 117.08 508.28 118.57 509.56 119.1 511.59 119.54 511.85 120.43 511.28 121.59 510.51 122.46 510.2 123.85 510.9 125.08 510.92 126.02 510.59 126.55 509.97 130.65 510.64 133.01 512.2 134.06 514.41 135 520.32 136.55 523.2 137.74 525.73 137.25 529.98 135.23 Z" id="MAR-1449" data-name="Chaouia - Ouardigha"/>
<path d="M 483.97 110.62 483.98 110.74 483.71 111.6 483.02 112.33 482.66 113.4 481.68 114.54 481.32 115.45 481.05 116.95 481.13 117.76 481.12 118.59 481.29 119.58 481.36 120.87 479.72 123.54 475.18 126.18 473.54 128.22 472.74 128.69 471.97 129.03 470.86 128.71 470.36 128 470.48 126.91 472.2 125.53 471.53 124.87 468.46 124.84 466.99 125.06 463.67 123.58 461.82 123.24 460.51 122.74 458 122.37 456.84 121.74 456.77 121.71 456.77 121.7 457.58 120.83 458.82 120.37 462.16 119.5 464.15 118.63 465.08 118.46 466 118.03 466.83 117.17 467.67 116.53 468.66 116.75 469.24 116.44 469.72 116.51 470.19 116.7 470.74 116.75 471.21 116.59 472.08 116.13 473.55 115.89 474.59 115.54 475.53 115.09 476.19 114.67 477.87 112.85 479.32 112.26 480.72 110.83 481.68 110.55 481.34 110.92 482.34 111.21 483.4 110.94 483.97 110.62 483.97 110.62 Z" id="MAR-1450" data-name="Grand Casablanca"/>
<path d="M 556.68 91.37 558.5 92.17 559.07 92.8 560.24 94.69 560.32 95.74 561.21 96.94 562.33 98.16 562.93 99.42 561.6 102.89 562.02 103.78 562.83 104.68 563.24 105.73 564.14 106.56 564.69 107.78 563.94 111.23 562.55 113.33 561.47 116.19 561.47 117.26 561.61 118.86 561.43 120.56 560.74 122.09 560.95 123.37 560.6 124.75 560.67 125.86 560.57 127.1 560.64 128 560.96 128.91 561.52 129.64 560.55 130.31 559.16 130.77 553.46 130.53 552.04 130.81 551.03 131.36 549.73 131.37 546.94 130.67 546.02 130.09 544.72 129.74 543.48 129.56 541.08 128.86 540.46 128.15 540.54 127.22 540.37 126.3 540.3 125.25 539.21 124.48 535.89 123.53 534.53 123.39 533.28 123.74 532.54 125.51 531 128.03 530.87 129.02 530.54 130.4 530.84 131.45 531.3 133.74 529.98 135.23 525.73 137.25 523.2 137.74 520.32 136.55 514.41 135 512.2 134.06 510.64 133.01 509.97 130.65 510.59 126.55 510.92 126.02 510.9 125.08 510.2 123.85 510.51 122.46 511.28 121.59 511.85 120.43 511.59 119.54 509.56 119.1 508.28 118.57 503.51 117.08 502.07 116.46 500.43 113.24 499.96 111.5 499.11 109.59 498.09 107.96 497.17 107.39 495.28 105.53 495.16 105.44 495.19 105.44 496.04 105.17 497.62 104 499.42 103.47 504.63 99.98 509.89 95.22 514.3 89.08 514.85 88.09 514.86 88.09 516.59 89.34 517.79 89.41 519.6 90.39 521.59 90.67 523.22 91.19 524.73 90.68 526.82 90.34 529.13 89.21 531.07 89.28 532.82 88.78 534.69 89.11 537.09 89.06 540.84 89.33 544.25 90.08 547.45 91.38 550.08 91.84 552.34 92.02 553.89 91.82 555.08 91.94 556.68 91.37 Z" id="MAR-1451" data-name="Rabat - Salé - Zemmour - Zaer"/>
<path d="M 650.84 166.23 653.91 170.16 655.25 172.46 658.55 176.61 660.68 180.33 661.39 182.86 663.43 183.95 664.07 186.05 665.98 187.62 666.55 189.42 667.9 190.01 670.75 189.48 672.94 188.63 674.31 187.83 676.35 187.79 678.74 188.37 680.42 188.97 682.63 189.43 684.95 189.01 687.29 188.86 689.29 189.35 688.34 191.82 688.25 195.99 688.76 199.17 691.15 203.83 693.13 205.11 692.74 207.67 692.66 210.41 689.79 211.15 675.19 213.4 673.33 213.54 671.21 213.12 667.8 214.64 667.11 227.56 663.41 227.76 660.66 229.48 660.03 230.16 659.83 231.07 660.14 234.84 660.04 235.98 658.98 237.51 658.65 238.49 658.82 239.36 659.42 239.81 660.25 239.86 661.14 239.52 662.6 238.33 663.34 237.99 664.21 238.19 664.93 238.84 666.29 240.72 667.18 241.46 668.98 242.21 669.57 242.67 670.05 243.59 670.27 244.48 670.34 245.45 673.04 249.19 670.25 253.03 667.8 255.12 668.15 258.26 668.5 261.41 659.08 265.59 650.7 267.34 643.03 267.69 637.09 269.08 632.21 271.53 626.63 277.81 619.65 282.69 612.32 285.48 604.61 281 599.3 277.9 595.34 275.06 592.75 274.22 589.93 272.06 589.53 268.97 590.5 266.82 590.59 264.31 588.74 262.49 586.91 260.27 586.08 258.41 584.39 256.81 582.85 255.77 582.74 253.41 582.92 251.67 584.26 250.53 585.75 247.05 585.38 244.56 585.67 241.45 589.22 231.93 590.2 226.4 588.26 223.3 580.6 218.75 578.2 216.59 575.22 215.61 572.65 215.11 568.92 215.87 566.22 215.78 564.14 215.11 565.28 211.8 569.86 207.05 572.32 203.31 571.48 200.15 567.99 198.57 560.63 200.54 559.49 197.8 557.95 196.39 558.35 194.18 559.87 191.96 563.55 189.99 569.02 186.34 571.11 185.48 573.11 184.89 577.1 184.82 577.48 183.97 576.02 181.14 575.71 179.46 574.54 177.59 575.51 175.08 577.04 173.6 578.89 172.37 579.03 171.7 574.79 170.65 568.3 166.94 562.19 164.94 555.96 159.9 548.86 157.46 548.8 155.35 549.09 154.26 548.07 152.26 546.61 151.61 544.11 151.58 543.27 150.83 543.49 148.93 543.88 147.97 544.31 146.54 540.81 143.24 534.83 139.59 532.96 138.77 530.79 137.37 529.98 135.23 531.3 133.74 530.84 131.45 530.54 130.4 530.87 129.02 531 128.03 532.54 125.51 533.28 123.74 534.53 123.39 535.89 123.53 539.21 124.48 540.3 125.25 540.37 126.3 540.54 127.22 540.46 128.15 541.08 128.86 543.48 129.56 544.72 129.74 546.02 130.09 546.94 130.67 549.73 131.37 551.03 131.36 552.04 130.81 553.46 130.53 559.16 130.77 560.55 130.31 561.52 129.64 560.96 128.91 560.64 128 560.57 127.1 560.67 125.86 560.6 124.75 560.95 123.37 560.74 122.09 561.43 120.56 561.61 118.86 561.47 117.26 561.47 116.19 562.55 113.33 563.94 111.23 564.69 107.78 564.14 106.56 563.24 105.73 562.83 104.68 562.02 103.78 561.6 102.89 562.93 99.42 562.33 98.16 561.21 96.94 560.32 95.74 560.24 94.69 559.07 92.8 558.5 92.17 556.68 91.37 557.82 89.79 559.42 88.85 560.01 87.72 560.9 87.15 561.48 86.62 563.82 87.61 564.49 88.37 565.42 88.98 565.78 90.08 566.99 90.53 568.5 90.72 570.55 90.63 572.35 90.73 577.47 88.94 578.37 88.29 578.53 87.46 578.18 86.57 579.87 83.18 581.96 85.76 583.29 87.32 583.87 89.07 584.29 90.86 584.42 92.09 585.22 92.71 586.54 92.57 587.38 92.03 588.5 91.76 589.15 92.82 591.28 97.12 595.52 103.39 596.48 105.37 595.73 106.57 593.29 109.73 593.46 111.28 594.92 112.52 602.03 113.87 604.23 115.24 605.66 117.46 605.97 120.13 601.87 124.2 601.16 126.31 607.66 140.78 611.83 145.95 612.7 147.91 613.11 149.6 614.88 150.85 618.91 151.76 623.03 152.02 626.16 152.9 630.96 157 635.83 162.83 636.85 164.47 638.96 165.65 641.45 166.44 645.48 166.13 647.36 166.38 650.84 166.23 Z" id="MAR-1452" data-name="Meknès - Tafilalet"/>
<path d="M 560.63 200.54 557.88 203.63 548.13 209.4 532.62 216 529.4 217.85 526.91 218.32 515.86 222.29 513.55 225.43 510.8 227.4 506.5 228.42 501.82 228.36 498.64 227.43 495.54 226.9 493.77 225.73 491.7 224.66 493.52 218.92 492.09 217.93 488.18 214.21 486.8 212.19 487.58 210.31 489.83 209.07 496.99 207.75 498.97 205.59 499.63 202.96 498.11 198.11 496.13 193.79 495.35 189.4 495.56 186.17 495.29 183.74 495.56 181.82 494.68 179.75 497.52 176.72 499.77 172.01 501.24 166.6 502.05 165.16 503.69 164.77 508.12 162.58 509.04 162.73 511.65 162.31 514.73 162.38 515.77 162.58 516.99 162.64 517.91 162.87 518.92 162.14 520.45 161.79 522.05 161.06 536.35 162.02 540.2 161.39 546.36 159.74 547.78 159.07 548.86 157.46 555.96 159.9 562.19 164.94 568.3 166.94 574.79 170.65 579.03 171.7 578.89 172.37 577.04 173.6 575.51 175.08 574.54 177.59 575.71 179.46 576.02 181.14 577.48 183.97 577.1 184.82 573.11 184.89 571.11 185.48 569.02 186.34 563.55 189.99 559.87 191.96 558.35 194.18 557.95 196.39 559.49 197.8 560.63 200.54 Z" id="MAR-1453" data-name="Tadla - Azilal"/>
<path d="M 703.34 30.8 702.39 31.59 702.54 32.97 703.58 33.89 705.08 33.44 705.78 34.28 705.33 34.73 705.11 35.49 705.06 36.32 705.24 37.94 705.47 38.6 705.91 39.18 706.63 39.94 707.92 40.71 709.67 41.18 713.31 41.47 711.13 40.01 707.31 36.41 706.57 35.35 706.81 34.96 707.48 35.4 709.9 37.55 710.29 38.09 712.66 40.11 714.8 41.12 717.37 41.86 722.54 42.46 724.83 42.3 726.03 42.05 726.84 41.64 727.89 40.65 728.84 40.02 729.86 39.82 734.62 41.33 735.73 41.47 736.92 41.79 738.25 42.41 739.55 42.8 739.62 44.77 740.1 46.09 740.99 47.08 742.51 47.56 744.37 48.66 745.93 49.88 747.61 50.77 749.85 50.95 750.49 51.35 750.68 51.94 750.75 52.62 750.99 53.31 751.68 53.99 754.32 55.35 756.02 56.67 761.27 59.41 762.17 60.18 761.99 60.54 761.35 60.95 760.13 63.2 757.51 66.56 757.1 67.4 763.12 72.52 764.93 72.98 765.5 73.24 760.17 78.6 762.08 80.48 763.35 82.7 766.91 91.9 767.04 92.6 767.16 93.24 767.04 94.24 764.71 102.28 764.54 104.63 764.99 107.08 765.52 108.54 765.48 109.09 765.11 109.82 764.6 110.36 764.02 110.78 763.54 111.29 763.31 112.06 763.61 112.84 764.38 113.29 766.11 113.81 766.98 114.35 767.52 114.94 769.77 119.44 770 121.09 769.37 122.45 768.62 123.38 767.69 126.17 767 127.42 766.48 128.69 766.48 133.6 766.93 135.24 769.46 137.31 770.36 138.74 771.03 140.31 772.07 141.54 773.36 142.54 774.81 143.43 775.66 144.12 775.98 145.16 775.96 146.32 775.81 147.41 775.69 147.93 775.48 148.39 775.19 148.81 774.81 149.15 772.7 150.44 779.46 159.99 781.1 161.17 784.27 162.16 798.23 171.24 799 172.37 796.1 175.12 794.45 176.19 792.6 176.84 790.53 177.09 789.71 177.45 788.91 178.35 788.41 179.24 787.74 181.04 786.95 185.6 786.84 186.2 786.86 186.62 786.78 187.03 786.47 187.56 786.16 187.83 785.33 188.38 785.14 188.7 785.36 189.51 786.17 189.52 788.02 188.89 788.98 188.88 790.02 189.15 790.83 189.77 791.08 190.81 790.1 192.58 788.14 192.98 784.37 192.83 783.95 192.81 782.75 192.76 780.86 192.69 778.35 192.59 775.32 192.47 771.85 192.33 768.02 192.17 763.93 192.01 759.66 191.84 755.28 191.67 750.89 191.49 746.58 191.32 742.42 191.15 738.51 191 734.93 190.85 731.76 190.73 724.89 190.46 715.93 192.58 706.67 193.25 703.79 194.63 707.24 202.43 709.33 207.32 700.61 208.36 692.66 210.41 692.74 207.67 693.13 205.11 691.15 203.83 688.76 199.17 688.25 195.99 688.34 191.82 689.29 189.35 687.29 188.86 684.95 189.01 682.63 189.43 680.42 188.97 678.74 188.37 676.35 187.79 674.31 187.83 672.94 188.63 670.75 189.48 667.9 190.01 666.55 189.42 665.98 187.62 664.07 186.05 663.43 183.95 661.39 182.86 660.68 180.33 658.55 176.61 655.25 172.46 653.91 170.16 650.84 166.23 651.79 164.16 652.99 162.4 655.41 159.49 657.74 155.97 666.88 145.65 670.86 142.77 673.47 142.23 676.16 142 679.14 142.29 684.79 142.05 699.05 139.71 701.85 138.42 704.42 136.59 703.75 133.79 701.58 130.05 696.25 125.18 690.03 121.53 688.88 119.97 689.75 118.66 695.15 114.37 697.71 111.3 698.2 109.46 697.24 108.69 695.62 107.93 691.02 99.89 690.23 97.39 690.61 95.93 695.24 94.16 696.57 92.42 697.26 89.92 696.01 87.09 695.24 84.31 692.11 80.78 690.94 79.03 691.04 77.67 691.05 77.14 691.47 76.53 692.21 75.91 695.85 73.85 696.19 73.43 696.31 73.04 696.5 72.71 697.04 72.49 697.27 72.32 697.39 71.88 697.55 71.75 698.76 68.41 698.72 67.44 699.49 66.74 700.71 66.42 701.87 66.48 702.68 66.71 703.28 66.19 702.64 65.17 702.4 64.16 702.21 62.93 701.45 61.91 690.83 58.38 687.15 58.58 685.36 59.84 684.24 61.18 682.55 62.84 675.2 67.56 673.53 67.6 671.05 65.72 669.64 65.09 669.15 64.08 669.1 63.04 669.5 62.15 670.33 61.37 670.39 60.27 670.79 58.82 670.98 57.45 670.21 55.21 666.23 54.04 664.27 53.68 661.72 52.23 660.26 50.71 659.57 40.85 660.08 39.09 659.7 37.29 659.69 36.94 661.41 36.82 662.55 36.36 663.01 35.46 663.43 34.1 664.47 33.17 665.8 32.74 667.1 32.89 668.07 33.43 670.16 35.01 671.23 35.61 674.97 36.1 676.3 36.73 676.9 36.74 677.53 36.69 678.07 36.7 678.62 36.84 679.6 37.24 680.12 37.38 682.66 37.55 684.79 37.19 690.99 35.37 692.05 34.83 694.31 32.85 694.84 32.58 695.25 32.6 695.72 32.81 696.26 32.97 696.89 32.89 698.47 31.56 700.42 27.61 701.69 26.07 701.59 25.54 701.84 25.13 702.3 24.97 702.9 25.23 703.12 25.64 702.85 26.5 703.08 27.09 702.58 28.61 703.24 30.54 703.32 30.77 703.34 30.8 703.34 30.8 Z" id="MAR-1454" data-name="Oriental"/>
<path d="M 612.32 285.48 607.08 287.93 602.9 290.72 597.31 294.91 592.08 298.05 587.19 302.58 583.7 308.52 579.17 314.8 573.93 320.73 569.05 322.13 564.86 320.73 563.11 316.19 556.83 316.89 550.9 317.94 544.62 317.94 537.29 317.94 533.77 318.29 527.21 305.28 526.23 302.44 526.72 300.65 530.01 295.95 530.22 294.52 528.32 293.87 525.41 293.39 524 291.65 522.54 286.77 522.31 284.63 523.72 280.96 524.64 279.32 521.86 276.13 517.95 273.52 515.21 272.6 511.07 273.45 508.82 274.33 507.19 276.85 505.46 278.13 503.01 278.43 499.26 278.51 496 277.52 492.16 277.34 490.08 279.18 487.99 282.37 486.55 285.09 484.79 287.4 479.5 286.51 477.68 285.75 475.85 285.71 474.08 285.42 469.69 285.99 467.14 287.29 464.98 288.67 463.06 290.46 455.02 290.49 452.71 291.14 451.16 293.1 450.12 295.59 448.31 297.1 446.07 297.86 443.33 296.58 440.2 296.53 436.15 297.07 432.76 299.14 425.51 299.43 422.46 298.57 418.91 298.75 417.57 300.55 416.76 302.05 416.94 303.6 417.58 304.7 416.44 305.99 416.08 307.29 416.27 308.73 416.37 317.66 417.21 320.55 418.55 323.23 418.83 324.77 417.63 325.54 415.95 325.87 414.15 326.64 407.38 324.04 402.05 324.35 397.28 325.64 395.01 327.99 393.7 330.23 392.65 330.06 391.73 329.08 390.19 329.18 385.88 329.99 383.28 330.73 380.43 331.06 377.98 330.74 375.68 330.83 372.06 333.04 369.63 333.41 367.21 332.73 364.93 331.82 361.85 332.86 360.59 334.26 359.84 336.33 357.61 338.56 355 338.18 352.5 338.83 350.03 339.92 346.32 342.91 343.95 343.06 341.97 341.92 340.79 340.9 339.38 340.44 338.11 340.15 334.58 340.31 331.29 338.81 331.28 338.8 333.84 335.4 335.19 333.97 336.13 333.28 338.03 332.67 338.81 331.91 340.01 330.22 341.27 328.82 341.84 327.93 342.09 327.02 342.34 326.59 344.13 325.45 344.37 325.14 344.81 324.09 346.87 321.39 347.17 320.83 347.28 319.78 347.58 318.66 348.03 317.65 348.57 316.9 350.95 314.98 351.32 314.36 351.63 313.56 353.71 311.1 360.19 304.97 365.29 297.09 368.43 290.59 368.92 288.73 369.76 282.37 370.68 279.06 370.82 278.07 370.6 276.73 370.05 276.08 369.28 275.62 368.43 274.84 367.87 273.99 366.6 271.48 366.19 269.82 365.77 269.58 365.21 269.53 364.65 269.36 364.2 268.97 363.29 267.62 359.72 265.54 358.65 265.48 357.5 265.27 356.78 264.55 356.87 262.64 357.92 260.76 359.25 258.98 360.19 257.36 360.51 256.24 360.55 255.62 360.36 255.15 360.01 254.7 359.98 254.38 360.1 254.03 360.19 253.43 360.02 248.99 360.03 249 362.79 250.69 364.85 253.89 366.67 255.51 369.02 255.48 371.83 254.21 373.8 252.89 378.79 253.15 384.63 252.85 389.32 254.62 394.97 254.7 398.72 254.21 400.9 253.38 402.94 251.87 408.12 249.12 410.12 248.55 411.5 249.34 412.36 250.53 412.66 252.27 413.59 253.09 414.84 253.04 417.65 252.45 421.3 252.1 433.08 252.05 440.02 250.24 442.87 249.21 447.01 249.78 449.39 249.67 451.61 248.23 453.81 244.98 456.56 242.22 459.81 239.99 463.28 238.52 465.7 238.07 467.64 236.89 484.71 229.98 487.59 227.95 489.28 226.19 490.77 225.34 491.7 224.66 493.77 225.73 495.54 226.9 498.64 227.43 501.82 228.36 506.5 228.42 510.8 227.4 513.55 225.43 515.86 222.29 526.91 218.32 529.4 217.85 532.62 216 548.13 209.4 557.88 203.63 560.63 200.54 567.99 198.57 571.48 200.15 572.32 203.31 569.86 207.05 565.28 211.8 564.14 215.11 566.22 215.78 568.92 215.87 572.65 215.11 575.22 215.61 578.2 216.59 580.6 218.75 588.26 223.3 590.2 226.4 589.22 231.93 585.67 241.45 585.38 244.56 585.75 247.05 584.26 250.53 582.92 251.67 582.74 253.41 582.85 255.77 584.39 256.81 586.08 258.41 586.91 260.27 588.74 262.49 590.59 264.31 590.5 266.82 589.53 268.97 589.93 272.06 592.75 274.22 595.34 275.06 599.3 277.9 604.61 281 612.32 285.48 Z" id="MAR-1455" data-name="Souss - Massa - Draâ"/>
<path d="M 494.68 179.75 495.56 181.82 495.29 183.74 495.56 186.17 495.35 189.4 496.13 193.79 498.11 198.11 499.63 202.96 498.97 205.59 496.99 207.75 489.83 209.07 487.58 210.31 486.8 212.19 488.18 214.21 492.09 217.93 493.52 218.92 491.7 224.66 490.77 225.34 489.28 226.19 487.59 227.95 484.71 229.98 467.64 236.89 465.7 238.07 463.28 238.52 459.81 239.99 456.56 242.22 453.81 244.98 451.61 248.23 449.39 249.67 447.01 249.78 442.87 249.21 440.02 250.24 433.08 252.05 421.3 252.1 417.65 252.45 414.84 253.04 413.59 253.09 412.66 252.27 412.36 250.53 411.5 249.34 410.12 248.55 408.12 249.12 402.94 251.87 400.9 253.38 398.72 254.21 394.97 254.7 389.32 254.62 384.63 252.85 378.79 253.15 373.8 252.89 371.83 254.21 369.02 255.48 366.67 255.51 364.85 253.89 362.79 250.69 360.03 249 360.02 248.99 359.81 243.62 359.63 242.73 358.82 240.93 359.45 239.76 360.75 232.7 360.87 229.84 360.65 228.67 360.12 228.04 359.46 227.58 358.82 226.9 360.39 225.18 361.55 223.46 362.71 220.45 363.29 219.74 364.21 219.03 364.53 218.66 364.81 217.77 365.51 217.14 365.81 216.57 366.48 215.75 366.72 215.27 367.43 211.27 367.82 210.48 372.39 206.24 374.41 203.83 374.78 203.49 375.51 203.01 375.93 202.63 376.3 202.15 376.74 201.29 376.99 200.93 378.23 199.82 378.24 199.83 378.39 199.93 380.31 200.96 382 201.49 384.48 201.91 391.93 200.54 398.36 201.61 400.04 203.34 400.74 205.11 402.69 207.13 408.27 208.79 411.11 208.68 417.06 208.97 422.77 209.8 425.97 209.52 428.63 208.36 434.42 197.58 437.34 194.26 437.91 191.48 437.19 189.92 431.52 187.03 429.89 184.9 428.63 182.64 428.58 180.33 430.59 178.62 432.4 177.65 434.47 176.11 436.48 175.32 438.81 173.71 441.13 172.55 443.91 170.57 446.51 167.97 447.44 165.11 447.32 162.52 448.52 157.74 449.5 156.48 451.56 155.41 452.67 157.02 455.63 160.29 457.43 161.95 459.6 163.02 463.56 165.78 468.76 171.87 469.99 172.63 470.98 172.77 472.22 173.11 478.76 173.36 482.44 174.14 484.27 175.47 486.01 176.28 491.22 179.28 494.68 179.75 Z" id="MAR-1456" data-name="Marrakech - Tensift - Al Haouz"/>
<path d="M 451.56 155.41 449.5 156.48 448.52 157.74 447.32 162.52 447.44 165.11 446.51 167.97 443.91 170.57 441.13 172.55 438.81 173.71 436.48 175.32 434.47 176.11 432.4 177.65 430.59 178.62 428.58 180.33 428.63 182.64 429.89 184.9 431.52 187.03 437.19 189.92 437.91 191.48 437.34 194.26 434.42 197.58 428.63 208.36 425.97 209.52 422.77 209.8 417.06 208.97 411.11 208.68 408.27 208.79 402.69 207.13 400.74 205.11 400.04 203.34 398.36 201.61 391.93 200.54 384.48 201.91 382 201.49 380.31 200.96 378.39 199.93 378.24 199.83 378.23 199.82 382.86 195.75 383.46 194.73 383.84 193.99 384.42 191.98 384.51 191.16 384.76 190.55 386.56 188.62 387.27 187.24 387.66 185.7 387.92 180.55 387.71 180.31 386.77 179.91 386.56 179.54 386.68 178.46 386.99 177.7 388.35 175.46 388.72 174.46 388.81 173.48 388.42 172.68 387.98 172.17 387.54 171.45 387.25 170.62 387.21 169.78 388.16 168.25 395.54 162.96 401.22 157.26 406.05 154.38 407.74 153.02 413.39 146.6 419.66 140.75 420.04 140.17 420.1 139.54 420.07 138.46 420.52 137.83 424.65 133.71 425.05 133.52 425.48 133.62 425.97 134.07 426.4 134.17 427.62 134.11 428.52 133.93 430.35 133.15 432.16 131.91 435.08 128.88 436.86 127.66 438.93 126.93 445.75 125.61 450.5 123.84 450.58 123.93 452.16 126.4 452.62 128.08 452.65 130.39 451.88 132.55 450.9 133.3 450.35 134.14 450.08 134.84 449.19 135.53 447.9 135.92 446.56 136.49 445.83 137.53 445.19 138.75 447.3 142.96 447.87 147.4 447.87 149.25 448.38 150.33 448.39 151.43 448.8 152.27 449.35 153.11 450.34 153.34 450.99 153.73 451.56 155.41 Z" id="MAR-1457" data-name="Doukkala - Abda"/>
<path d="M 248.56 496.86 248.35 497.14 247.35 500.65 247.35 503.13 246.35 505.13 244.86 510.1 242.86 514.64 241.35 520.64 239.86 525.61 237.87 533.61 235.87 541.07 233.38 548.09 231.38 552.58 229.87 555.06 226.38 558.09 223.38 560.04 219.9 562.57 215.9 565.06 210.41 568.03 205.9 570.57 204.07 571.71 198.21 570.62 193.89 570.34 189.75 570.56 185.72 571.26 169.29 576.42 167.22 576.84 165.14 576.64 160.95 575.15 154.02 573.5 148.53 572.54 144.38 572.33 136.18 573.01 132.2 573.88 121.96 576.16 119.88 576.25 117.6 575.5 115.85 573.89 114.36 571.74 112.26 570.25 106.96 568.48 101.53 567.2 100.94 566.98 101.55 565.83 102.74 564.49 103.94 563.6 105.2 562.97 106.15 562.29 106.76 561.28 107.25 558.03 108.44 555.06 108.87 552.74 109.56 551.31 109.74 550.64 109.64 549.82 109.44 549.07 109.38 548.32 109.74 547.51 109.36 547.2 109.68 546.5 109.91 545.71 110.05 544.87 110.08 544.07 109.94 543.3 109.47 542.21 109.36 541.56 109.42 537.14 109.05 535.89 110.58 530.09 110.93 529.3 112.43 524.27 114.72 521.34 115.37 520.83 115.79 520.34 117.27 517.08 117.61 514.85 117.72 514.53 118.18 513.64 118.46 512.06 120.48 507.46 124.2 502.68 125.54 500.46 125.82 499.8 125.96 498.81 126.77 496.57 127.19 495.88 127 495.08 127.5 492.27 127.35 491.53 126.87 490.02 127.01 489.52 127.4 488.97 127.92 487.51 128.21 486.95 131 483.66 131.47 483.35 133.85 482.87 136.56 481.56 140.7 477.9 141.39 477.07 141.86 476.2 142.48 475.46 143.64 474.99 149.14 474.46 150.1 474.06 155.29 471.64 164.36 465.79 170.46 462.25 173.4 459.25 176.4 453.79 177.43 451.13 178.39 447.08 179.84 444.18 181.32 437.87 182.26 435.97 186.38 430.52 186.4 430.24 186.05 429.77 186.04 429.49 186.72 429.16 189.39 423.48 191.05 418.38 191.16 417.33 191.39 416.43 192.38 414.52 192.51 413.64 192.52 413.62 192.55 413.41 192.86 412.52 193.4 412.03 194.91 411.36 196.52 410.16 198.35 409.62 199.16 408.78 201.26 405.72 202.43 402.09 203.01 401.05 203.79 400.35 204.75 399.85 209.46 398.26 218.5 396.89 225.7 397.02 234.62 394.43 248.28 392.34 248.83 391.99 249.95 390.95 250.19 390.82 251.07 390.64 262.21 386.3 262.22 386.29 262.33 386.45 266.06 393.24 268.24 396.1 273.63 405.05 274.13 407.27 267.79 409.83 261.39 413.43 260.68 413.65 254.99 418 249.65 424.72 243.71 440.77 238.28 451.14 235.74 454.51 227.05 462.59 224.94 465.84 223.34 469.64 222.81 471.56 222.52 473.68 222.71 475.45 223.35 477.2 226.51 485.08 229.13 496.94 248.56 496.86 Z" id="MAR-3456" data-name="Laâyoune - Boujdour - Sakia El Hamra"/>
<path d="M 533.77 318.29 530.31 318.64 522.98 320.38 516 321.08 511.82 324.57 503.09 321.43 497.51 321.08 493.67 321.43 488.09 323.52 483.55 327.71 477.87 327.42 476.84 327.76 475.73 327.87 474.62 327.83 472.41 327.5 470.08 327.41 468.37 328.07 465.32 330.79 464.56 331.32 462.16 332.41 459.11 334.92 453.82 338.06 449.26 341.87 447.6 342.89 441.97 345.08 438.57 347.12 435.26 349.9 434.43 350.33 432.68 351.02 431.93 351.56 430.21 354.23 429.58 354.79 427.31 355.9 425.07 357.49 418.68 360.54 417.74 361.25 417.18 362.19 417 363.54 417 365.82 417 368.81 417 371.8 417 374.79 417 377.79 417 380.78 417 383.77 417 386.76 417 389.75 417 392.74 417 395.74 417 398.73 417 401.72 417 404.71 417 407.7 417 410.7 417 413.69 413.5 413.69 410.3 413.69 410.28 413.69 410.28 413.69 410.21 413.79 410.48 416.09 411.95 420.24 412.46 423.75 411.73 425.94 411.04 428.72 411.34 431.36 412.46 434.23 413.48 437.21 413.48 439.21 411.43 440.72 406.73 441.55 401.1 442.23 396.98 442.23 390.78 441.74 386.93 441.84 383.57 441.84 380.57 442.33 376.86 444.23 372.74 447.2 367.57 451.2 364.47 453.69 360.35 454.22 356.23 454.22 352.21 452.22 349.63 451.2 347.92 451.3 345.12 452.71 341.8 453.69 338.7 453.69 333.54 451.69 327.34 448.71 323.73 447.2 318.59 446.72 313.42 445.74 309.81 446.23 305.18 446.23 298.99 448.23 293.82 449.69 288.16 451.2 281.73 452.57 283.29 457.05 285.51 459.49 285.51 462.52 284.46 465.05 281.36 467.54 277.82 470.71 275.78 473.19 273.71 476.66 272.17 478.65 269.51 481.92 267.15 486.02 266.41 488.55 265.46 491.48 263.64 492.36 257.34 493.14 253.35 494.16 249.86 495.14 248.56 496.86 248.56 496.86 229.13 496.94 226.51 485.08 223.35 477.2 222.71 475.45 222.52 473.68 222.81 471.56 223.34 469.64 224.94 465.84 227.05 462.59 235.74 454.51 238.28 451.14 243.71 440.77 249.65 424.72 254.99 418 260.68 413.65 261.39 413.43 267.79 409.83 274.13 407.27 273.63 405.05 268.24 396.1 266.06 393.24 262.33 386.45 262.22 386.29 277.03 380.53 278.67 379.39 279.87 378.02 281.84 375.07 282.6 374.33 283.51 373.63 284.25 372.84 284.57 371.83 285 371.06 287.97 369.25 290.31 366.7 290.7 365.99 292.77 364.84 293.17 364.46 293.58 363.78 293.83 363.45 295.54 362.24 295.71 362.05 296.73 360.52 298.13 359.22 298.9 358.75 313.13 352.34 316.55 350.32 320.63 348.47 322.56 347.33 328.69 342.25 331.28 338.8 331.29 338.81 334.58 340.31 338.11 340.15 339.38 340.44 340.79 340.9 341.97 341.92 343.95 343.06 346.32 342.91 350.03 339.92 352.5 338.83 355 338.18 357.61 338.56 359.84 336.33 360.59 334.26 361.85 332.86 364.93 331.82 367.21 332.73 369.63 333.41 372.06 333.04 375.68 330.83 377.98 330.74 380.43 331.06 383.28 330.73 385.88 329.99 390.19 329.18 391.73 329.08 392.65 330.06 393.7 330.23 395.01 327.99 397.28 325.64 402.05 324.35 407.38 324.04 414.15 326.64 415.95 325.87 417.63 325.54 418.83 324.77 418.55 323.23 417.21 320.55 416.37 317.66 416.27 308.73 416.08 307.29 416.44 305.99 417.58 304.7 416.94 303.6 416.76 302.05 417.57 300.55 418.91 298.75 422.46 298.57 425.51 299.43 432.76 299.14 436.15 297.07 440.2 296.53 443.33 296.58 446.07 297.86 448.31 297.1 450.12 295.59 451.16 293.1 452.71 291.14 455.02 290.49 463.06 290.46 464.98 288.67 467.14 287.29 469.69 285.99 474.08 285.42 475.85 285.71 477.68 285.75 479.5 286.51 484.79 287.4 486.55 285.09 487.99 282.37 490.08 279.18 492.16 277.34 496 277.52 499.26 278.51 503.01 278.43 505.46 278.13 507.19 276.85 508.82 274.33 511.07 273.45 515.21 272.6 517.95 273.52 521.86 276.13 524.64 279.32 523.72 280.96 522.31 284.63 522.54 286.77 524 291.65 525.41 293.39 528.32 293.87 530.22 294.52 530.01 295.95 526.72 300.65 526.23 302.44 527.21 305.28 533.77 318.29 Z" id="MAR-3457" data-name="Guelmim - Es-Semara"/>
<path d="M 204.07 571.71 201.9 573.06 198.42 576.52 195.42 581.54 193.42 585.54 189.93 592.03 187.45 595.54 185.93 597.49 181.94 599.49 177.45 601 172.45 603 168.45 605 162.97 606.99 159.48 608.99 156.97 611.97 154.97 615.48 152.48 620.5 150.48 625.96 149.49 629.47 146.49 641.47 145.49 648.44 144.49 652.93 143 658.44 142 666.92 142 673.9 141 677.89 140.49 680.92 138 684.38 136 686.87 132.52 690.38 129.52 692.38 128.52 694.38 125.52 696.86 122.52 700.86 120.03 703.35 120.52 705.35 121.03 708.86 119.52 712.37 118.03 716.37 114.03 721.34 109.55 723.83 103.04 724.32 94.07 724.32 87.07 723.83 78.58 723.83 71.1 722.85 64.1 721.83 55.62 721.34 49.62 721.34 42.14 722.32 22.66 722.32 15.17 722.85 4.18 724.85 1 725.34 1 725.34 1.05 724.08 3.13 716.72 3.34 714.53 3.17 712.63 3.28 711.5 4.13 710.12 4.3 709.56 4.36 708.95 4.33 708.36 4.17 708.09 3.52 707.58 3.34 707.31 3.61 706.57 3.84 705.08 4.79 703.04 5.19 700.98 5.63 699.81 10.84 689.86 12.64 688.1 12.92 687.64 13 687.34 13.57 686.14 13.85 685.88 14.67 685.34 14.96 685.06 15.77 683.35 16.33 682.62 17.53 682.19 17.81 681.92 18.15 681.68 18.71 681.65 19.15 681.81 19.53 682.1 20.08 682.7 25.56 680.66 26.54 679.91 27.54 678.79 28.32 677.53 30.07 671.76 30.18 670.89 30.67 670.32 33.15 668 33.78 667.26 34.42 664.07 34.57 659.83 34.8 658.74 35.4 656.96 35.82 656.13 36.82 654.83 36.83 654.33 36.64 653.93 36.53 653.6 36.53 653.02 36.61 652.68 37.05 651.77 37.16 651.45 37.4 651.27 38.51 651.16 39.7 650.86 41.31 649.54 42.98 647.77 43.47 646.78 43.8 645.77 44 644.69 44.06 643.5 43.65 642.33 42.68 642.15 40.62 642.66 40.98 641.73 41.83 640.15 42.3 639.56 44.66 637.53 44.87 637.2 48.6 629.24 49.16 628.57 49.7 628.28 50.34 627.72 52.56 624.19 53.26 620.84 53.79 619.9 54.55 618.92 56.34 615.97 58.75 613.4 58.91 613.1 59.74 612.53 60.09 612.19 60.35 611.66 60.6 610.63 60.8 610.12 61.57 608.97 62.36 608.05 62.97 607.11 63.22 605.87 63.33 603.67 63.14 602.72 62.5 601.59 62.67 601.32 62.85 600.91 62.27 601.31 62.21 601.9 62.3 602.59 62.19 603.3 61.84 603.67 60.56 604.49 60.09 604.69 59.43 604.71 59 604.6 58.52 604.7 57.73 605.34 57.2 605.96 56.84 606.56 56.09 608.23 55.45 609.32 55.32 609.63 55.21 610.24 54.74 611.23 54.63 611.68 54.2 612.28 51.87 614.24 51.13 613.72 51.46 612.89 52.56 611.68 52.83 610.96 54.63 607.76 57.73 603.83 58.05 603.05 58.77 602.16 59.56 601.38 63.2 598.52 64.81 597.95 66.97 596.72 67.62 596.14 69.26 596 70.59 595.2 71.63 594.1 72.42 593.01 74.47 590.81 75.87 588.92 77.78 587.64 78.6 586.93 78.93 586.02 79.35 585.44 83.91 581.98 86.66 579.28 90.09 574.51 91.37 573.17 92.97 571.84 93.88 571.27 94.89 570.82 95.92 570.52 98.08 570.19 99.14 569.64 100.81 568.43 100.78 567.27 100.94 566.98 100.94 566.98 101.53 567.2 106.96 568.48 112.26 570.25 114.36 571.74 115.85 573.89 117.6 575.5 119.88 576.25 121.96 576.16 132.2 573.88 136.18 573.01 144.38 572.33 148.53 572.54 154.02 573.5 160.95 575.15 165.14 576.64 167.22 576.84 169.29 576.42 185.72 571.26 189.75 570.56 193.89 570.34 198.21 570.62 204.07 571.71 Z" id="MAR-3469" data-name="Oued el Dahab"/>
</g>
</svg>