<?xml version="1.0"?>
<svg xmlns="http://www.w3.org/2000/svg" version="1.2" baseProfile="tiny" width="800" height="620" viewBox="0 0 800 620" stroke-linecap="round" stroke-linejoin="round">
<g id="ne_10m_admin_1_states_provinces">
<path d="M 350.03 575.18 355.06 577.35 387.24 598.28 394.2 608.74 392.13 613.58 382.9 614.86 368.59 614.86 327.43 606.67 284.93 605.53 275.11 602.13 272.45 597.59 273.04 587.12 271.31 581.4 266.03 576.51 260.5 574.19 256.16 570.94 254.38 562.89 253.69 541.03 257.24 532.05 267.16 535.5 275.8 540.04 301.27 544.78 312.72 548.23 344.3 568.86 350.03 575.18 Z" id="COM-4934" data-name="Moûhîlî"/>
<path d="M 154.64 280.24 156.17 286.31 159.97 293.17 174.18 311.73 173.89 316.81 167.03 327.62 165.05 333.74 164.36 338.14 162.78 341.54 158.34 344.65 152.57 346.48 144.32 347.66 137.12 346.87 133.91 342.33 130.01 334.73 96.06 303.83 87.07 300.18 61.06 298.7 54.7 297.12 47.74 293.37 36.04 284.19 31.11 278.02 29.43 272.64 28.64 267.36 25.87 261.44 10.43 246.63 3.76 236.91 1 222.06 2.68 216.13 6.63 208.78 19.75 190.02 19.9 183.56 18.18 177.04 17.58 169.94 25.97 62.74 24.69 55.63 21.38 49.12 27.31 38.61 33.08 23.7 39.4 12.1 46.55 11.86 72.32 3.27 87.42 1 98.52 5.44 105.78 14.82 111.16 24.59 113.92 35.65 100.4 148.86 105.83 173.44 132.77 211.39 142.55 236.22 142.84 242.44 141.9 255.27 142.55 261.44 145.31 265.88 149.31 269.73 153.01 274.12 154.64 280.24 Z" id="COM-4935" data-name="Andjazîdja"/>
<path d="M 799 529.58 798.65 603.51 795.3 614.47 788.34 619.01 783.01 616.84 776.79 611.7 771.76 605.48 769.68 600.2 768.5 592.65 765.19 588.36 720.48 558.15 715.49 550.31 711.79 541.03 702.61 536.54 678.63 531.65 640.92 512.7 635.84 508.7 611.51 494.49 603.31 485.75 613.08 485.46 621.18 487.43 636.77 494.04 647.34 496.71 666.93 499.52 674.09 502.33 677.29 499.82 683.36 496.71 686.47 494.04 704.69 497.75 720.77 483.28 730 460.73 727.88 440.25 733.8 438.52 742.14 433.73 748.66 431.96 751.67 430.67 754.29 428.75 757.2 427.27 761.39 427.42 764.9 429.93 769.68 438.37 771.76 440.25 797.37 521.09 799 529.58 Z" id="COM-4936" data-name="Andjouân"/>
</g>
</svg>