<?xml version="1.0"?>
<svg xmlns="http://www.w3.org/2000/svg" version="1.2" baseProfile="tiny" width="800" height="658" viewBox="0 0 800 658" stroke-linecap="round" stroke-linejoin="round">
<g id="ne_10m_admin_1_states_provinces">
<path d="M 341.72 485.7 342.26 490.22 343.14 492.18 344.36 493.55 345.1 494.16 345.26 494.36 345.77 495.2 346.05 495.77 346.24 496.37 346.32 496.98 346.18 497.83 345.86 498.88 345.02 500.59 343.99 502.17 341.92 504.24 341.22 504.75 340.47 505.13 339.71 505.4 338.95 505.54 333.13 505.85 332.39 506.02 331.64 506.3 330.86 506.73 330.14 507.24 329.44 507.83 328.91 508.42 328.49 509.06 328.3 510.03 328.28 511.25 328.6 513.56 328.64 516.82 328.28 519.27 327.95 520.58 327.6 521.59 325.82 524.13 321.63 529.03 319.38 532.86 318.27 534.08 317.54 534.65 315.99 535.63 314.44 536.33 307.16 538.1 306.37 538.44 305.64 538.85 305.02 539.42 304.62 540.03 304.37 541.04 304.35 541.22 305.03 542.33 307.67 545.43 308.15 546.2 308.5 547.12 308.66 548.59 308.47 549.49 308.22 550.26 307.92 550.88 307.48 552.19 307.17 553.44 307.12 554.06 307.25 555.89 307.92 558.3 308.83 559.85 317.06 571.12 317.5 571.94 317.63 572.78 318.05 573.5 318.93 574.19 319.69 574.49 320.64 574.72 321.7 575.07 322.8 575.63 324.25 576.71 325.23 576.91 325.91 576.82 327.23 575.95 327.84 575.67 328.52 575.49 329.27 575.47 329.73 576 329.83 576.86 329.05 578.67 328.33 579.54 327.84 580.39 327.69 581.05 328.05 581.95 328.36 582.42 329.32 583.51 329.48 584.16 329.39 584.98 328.66 586.28 328.05 587.68 328.4 589.35 330.46 591.65 331.19 592.01 331.22 592.02 332.3 592.43 334.35 592.67 334.8 593.14 335.18 593.66 335.48 594.24 336.57 595.72 336.6 595.76 334.1 600.63 332.08 602.48 327.34 605.37 325.19 607.1 314.68 619.77 309.79 622.85 306.62 623.8 304.34 624 302.86 624.85 302.21 627.78 303.07 638.36 303.01 638.39 301.63 639.99 301.12 641.87 299.95 642.03 297.33 643.29 297.33 643.29 293.94 644.93 291.84 644.54 274.68 635.83 273.68 635.12 270.7 631.06 270.37 630.83 270.39 630.82 271.11 629.79 271.35 629.27 271.53 628.55 271.34 627.91 270.59 627.25 269.84 626.79 269.24 626 269.05 624.78 269.52 620.88 269.81 619.98 270.13 619.44 270.35 618.72 270.27 617.73 269.42 616.35 268.95 614.39 269.93 612.39 268.55 609.74 268.94 606.59 268.55 605.68 267.92 605.17 267.13 604.37 267.08 603.47 267.5 602.04 268.15 601.27 269.71 600.43 270.39 599.92 270.97 599.39 271.57 599.05 272.11 599.12 272.43 599.51 273.09 601.28 273.41 601.87 273.89 602.34 274.25 602.5 274.8 602.23 275 601.55 275.02 600.32 274.64 599.44 273.74 598.11 272.83 596.23 272.02 595.03 270.88 593.82 270.19 593.26 269.47 592.79 268.72 592.45 262.4 590.31 258.87 588.74 256.05 587.84 254.45 587.57 251.7 587.63 246.34 588.53 245.7 588.76 244.98 589.12 241.12 591.62 240.36 592.02 239.6 592.17 238.8 592.09 237.27 591.73 236.49 591.73 235.71 591.93 234.96 592.29 234.31 592.81 233.1 594.02 232.06 594.4 230.73 594.56 226.85 593.82 225.68 593.81 224.88 594.06 221.89 595.36 217.33 596.26 216.3 596.32 215.07 596.26 213.15 595.95 212.08 595.46 211.36 594.88 211.01 594.29 210.76 593.67 209.65 588.87 209.2 587.68 208.5 586.97 205.09 584.72 204.16 583.81 203.51 582.99 203.41 582.36 203.17 581.75 201.66 580.23 201.05 578.99 200.44 578.25 199.7 578 198.98 578.08 198.34 578.36 197.7 578.72 197.01 578.95 194.25 578.5 193.28 578.57 191.27 579.17 189.48 578.96 189.18 578.53 189.4 578.09 189.96 577.67 190.24 577.38 190.38 576.93 190.17 576.34 189.43 575.69 187.9 574.61 185.43 573.61 184.57 572.9 184.57 572.48 185.54 571.99 186.13 571.53 186.65 570.98 187 570.38 187.18 569.86 187.03 569.37 186.8 568.99 184.61 566.81 184.31 566.43 184.07 565.98 183.89 565.45 183.66 564.26 183.61 562.29 183.66 561.64 183.8 560.97 184.08 560.33 184.22 559.69 184.12 559.07 183.15 557.43 182.1 556.03 181.74 554.99 181.23 553.99 180.21 552.72 179.77 551.88 179.57 551.1 179.73 548.5 179.69 547.84 179.48 547.17 178.82 545.92 178.66 545.29 178.61 541.93 178.23 540.39 177.59 539.88 178.9 539.58 177.75 538.66 176.31 536.75 175.55 536.15 175.49 536.14 173.95 532.52 173.72 529.35 173.48 528.42 173.03 527.74 170.78 525.95 169.4 524.56 168.85 523.56 168.57 522.8 168.72 521.19 172.35 520.18 181.23 515.57 185.21 514.02 188.49 513.72 196.56 514.07 198.45 514.44 210.86 519.5 211.56 519.92 212.21 520.44 212.73 521 213.02 521.61 213.15 522.24 213 524.19 213.3 524.86 213.97 525.47 218.7 527.23 220.79 528.29 225.64 529.97 228.8 530.52 230.63 530.38 233.22 529.93 234.24 529.6 235.11 529.14 235.76 528.59 237.9 526.12 238.53 525.53 239.54 524.94 240.86 524.45 245.62 523.45 246.35 523.13 247.05 522.64 247.49 522.07 247.81 521.47 247.94 520.84 247.86 516.82 247.75 516.19 247.59 515.61 247.33 515.01 246.96 514.41 242.54 509.34 242.12 508.99 241.46 508.59 238.49 507.35 237.02 506.57 236.37 506.03 235.89 505.45 235.53 504.85 235.3 504.22 235.18 503.6 235.14 502.96 235.49 500.44 235.65 499.81 235.91 499.08 236.47 498.32 237.53 497.4 238.2 497.2 239.04 497.83 240.06 497.93 241.42 497.36 242.28 496.57 243.36 496.17 243.95 495.5 244.94 495.43 245.59 495.63 249.41 496.08 250.04 496.27 250.82 497.11 252.23 498.07 252.67 498.51 254.2 499.21 256.48 499.79 257.37 499.43 258.18 499.41 260.65 499.77 261.47 499.97 265.36 501.35 266.17 501.78 266.9 502.1 267.51 502.29 268.61 502.74 277.27 505.03 278.69 505.12 280.67 505.04 281.43 504.53 282 503.99 282.3 503.47 282.42 503.03 282.49 502.62 282.49 502.14 282.37 501.3 282.1 500.23 281.57 499.03 280.76 497.83 280.63 497.02 280.91 496.09 282.37 494.61 283.38 494.09 284.29 493.91 285.14 494.15 291.26 497.24 292.82 497.43 294.95 497.45 299.43 497.07 301.18 496.55 302.1 495.94 301.96 495.33 301.72 494.8 301.27 494.15 300.32 493.29 299.21 492.04 298.76 491.35 298.4 490.71 297.65 488.74 297.27 488.12 296.73 487.52 293.87 485.29 293.35 484.66 292.97 484.02 292.39 482.71 291.94 482.03 290.3 480.08 289.96 479.45 289.73 478.77 289.59 478.06 289.62 477.15 289.92 476.1 290.75 474.56 291.93 473.72 292.92 473.59 293.81 474.03 295.69 475.98 296.42 476.53 297.26 476.96 298.18 477.31 299.12 477.51 301.12 477.56 302.94 477.36 308.81 476.15 309.76 476.14 310.74 476.27 311.68 476.56 313.11 477.22 314.96 478.49 315.8 478.91 316.64 479.17 320.55 479.7 322.35 480.3 324.18 481.1 330.52 485.21 332.2 486.06 334.84 486.4 341.72 485.7 Z" id="PRK-3303" data-name="Hwanghae-bukto"/>
<path d="M 136.46 648.99 134.37 650.68 131.12 652.34 130.09 653.17 128.35 654.1 125.83 654.53 125.12 653.62 128.76 650.18 130.5 649.5 131.77 649.92 132.08 649.1 132.37 648 133.03 647.99 133.35 647.85 133.51 647.48 134 647.26 134.81 647.17 138.43 645.88 139.53 645.63 136.46 648.99 Z M 117.21 643.42 116.16 643.55 115.56 642.5 115.38 641.84 116.01 641.51 118.43 640.09 120.61 639.46 121.18 639.43 121.54 639.87 121.72 640.41 121.4 640.67 120.76 640.78 119.11 642.13 117.21 643.42 Z M 103.48 638.75 103.13 639.65 102.86 639.61 102.47 639.63 101.15 640.76 99.95 641.09 98.62 641.1 97.72 640.75 97.73 640.17 98.32 639.88 98.84 639.41 99.47 639.09 100.34 639.28 101.12 639.58 101.5 639.46 101.62 638.95 101.7 638.69 101.42 638.09 101.74 637.33 103.01 637.54 103.48 638.75 Z M 83.66 552.18 85.75 555.04 86.19 556.38 80.91 555.22 78.42 554.38 76.11 552.94 73.34 554.65 72.21 553.55 72.72 551.52 77.36 549.17 78.84 548.91 79.47 550.05 81.48 550.59 82.89 551.22 83.66 552.18 Z M 177.59 539.88 178.23 540.39 178.61 541.93 178.66 545.29 178.82 545.92 179.48 547.17 179.69 547.84 179.73 548.5 179.57 551.1 179.77 551.88 180.21 552.72 181.23 553.99 181.74 554.99 182.1 556.03 183.15 557.43 184.12 559.07 184.22 559.69 184.08 560.33 183.8 560.97 183.66 561.64 183.61 562.29 183.66 564.26 183.89 565.45 184.07 565.98 184.31 566.43 184.61 566.81 186.8 568.99 187.03 569.37 187.18 569.86 187 570.38 186.65 570.98 186.13 571.53 185.54 571.99 184.57 572.48 184.57 572.9 185.43 573.61 187.9 574.61 189.43 575.69 190.17 576.34 190.38 576.93 190.24 577.38 189.96 577.67 189.4 578.09 189.18 578.53 189.48 578.96 191.27 579.17 193.28 578.57 194.25 578.5 197.01 578.95 197.7 578.72 198.34 578.36 198.98 578.08 199.7 578 200.44 578.25 201.05 578.99 201.66 580.23 203.17 581.75 203.41 582.36 203.51 582.99 204.16 583.81 205.09 584.72 208.5 586.97 209.2 587.68 209.65 588.87 210.76 593.67 211.01 594.29 211.36 594.88 212.08 595.46 213.15 595.95 215.07 596.26 216.3 596.32 217.33 596.26 221.89 595.36 224.88 594.06 225.68 593.81 226.85 593.82 230.73 594.56 232.06 594.4 233.1 594.02 234.31 592.81 234.96 592.29 235.71 591.93 236.49 591.73 237.27 591.73 238.8 592.09 239.6 592.17 240.36 592.02 241.12 591.62 244.98 589.12 245.7 588.76 246.34 588.53 251.7 587.63 254.45 587.57 256.05 587.84 258.87 588.74 262.4 590.31 268.72 592.45 269.47 592.79 270.19 593.26 270.88 593.82 272.02 595.03 272.83 596.23 273.74 598.11 274.64 599.44 275.02 600.32 275 601.55 274.8 602.23 274.25 602.5 273.89 602.34 273.41 601.87 273.09 601.28 272.43 599.51 272.11 599.12 271.57 599.05 270.97 599.39 270.39 599.92 269.71 600.43 268.15 601.27 267.5 602.04 267.08 603.47 267.13 604.37 267.92 605.17 268.55 605.68 268.94 606.59 268.55 609.74 269.93 612.39 268.95 614.39 269.42 616.35 270.27 617.73 270.35 618.72 270.13 619.44 269.81 619.98 269.52 620.88 269.05 624.78 269.24 626 269.84 626.79 270.59 627.25 271.34 627.91 271.53 628.55 271.35 629.27 271.11 629.79 270.39 630.82 270.37 630.83 269.89 630.5 267.55 630.76 265.01 631.41 255.36 635.48 252.9 636.19 250.12 636.45 245.57 636.34 242.93 636.8 240.44 638.13 239.33 639.05 239.15 639.44 239.4 639.9 239.78 641.82 240.62 644.38 241.32 645.68 241.19 647.36 240.81 649.08 240.44 649.96 234.55 649.05 232.9 644.07 231.67 641.74 229.85 641.87 228.71 641.51 228.19 638.74 227.84 633.1 224.19 635.18 222.55 635.1 221.88 632.64 221.07 631.26 219.25 629.68 217.27 628.41 216 627.98 214.11 629.25 214.9 630.79 216.63 632.11 217.6 632.64 217.84 633.89 218.97 637.22 219.28 638.97 218.26 638.17 216.94 637.42 215.56 636.82 214.33 636.45 212.78 636.29 212 636.37 211.34 636.26 210.11 635.54 208.13 633.81 201.97 626.22 201.43 625.01 200.68 624.13 197.77 623.63 197.02 623.14 196.69 622.23 196.6 620.85 196.87 618.54 196.3 618.06 194.44 617.91 193.16 617.67 191.02 616.56 189.81 616.23 184.72 616.03 182.53 615.67 177.6 613.83 174.51 613.26 171.41 613.22 169.2 614.09 169.11 616.07 171.36 618.14 174.42 619.77 176.79 620.43 181.06 619.94 182.28 620.61 181.42 623.02 182.71 622.59 183.96 622.32 185.17 622.42 186.46 623.02 185.01 624.59 183.94 626.38 186.24 626.37 187.18 626.1 188.13 625.46 188.97 626.38 187.5 627.52 185.97 628.46 184.27 629.18 182.25 629.66 180.27 629.59 178.81 628.76 177.38 627.58 175.55 626.38 175.16 629.22 176.31 632.11 176.85 634.85 174.62 637.22 176.43 638.66 177.21 638.97 176.72 640.13 175.91 640.6 173.45 640.65 172.92 641.01 173.15 641.81 173.87 643.17 174.29 644.96 174.26 646.04 173.45 646.53 172.13 646.48 170.93 646.25 169.82 645.77 168.74 644.93 169.25 644.65 169.34 644.53 169.38 644.39 169.67 644.01 168.17 643.37 166.82 643.29 165.83 643.91 165.46 645.31 164.63 645.41 163.04 645.16 162.01 644.22 162.88 642.26 159.92 644.39 158.38 647.43 156.37 650.24 151.95 651.64 147.64 651.73 145.38 652.06 144.4 652.83 143.83 654.87 142.46 656.53 140.73 657.08 139.2 655.77 140.87 649.41 142.73 646.59 146.01 647.37 152.71 644.93 150.81 644.05 146.59 644.68 144.4 644.01 145.95 642.26 148.54 640.62 151.48 639.44 154.05 638.97 160.12 640.16 162.46 639.59 162.88 636.45 160.82 637.14 159.16 636.9 157.85 635.99 156.92 634.69 160.55 631.48 160.73 630.19 157.42 629.66 155.05 628.98 153.96 627.68 152.8 626.97 150.19 627.98 150.57 628.45 150.88 629.24 151.11 629.66 147.96 629.65 146.52 629.89 145.17 630.5 147.54 631.26 150.63 632.62 152.88 634.4 152.71 636.45 150.42 634.89 147.15 633.73 143.73 633.28 140.96 633.86 141.53 634.77 142.31 635.5 143.26 636.05 144.4 636.45 140.54 639 138.17 640.18 135.92 640.65 136.01 640.41 135.89 639.87 135.56 639.29 135.02 638.97 127.45 638.97 128.95 637.13 134.27 634.42 135.92 632.18 134.97 630.07 129.61 627.68 129.97 625.46 127.52 625.84 126.1 627.61 125 629.89 123.64 631.8 121.75 632.95 119.72 633.46 117.45 633.47 110.34 632.55 108.99 632.18 105.63 629.96 104.33 629.66 101.61 629.47 99.62 628.74 98.81 627.21 99.66 624.62 96.65 626.11 95.47 626.38 95.99 624.28 97.04 622.97 98.67 622.29 100.97 622.1 102.5 621.66 105.62 619.82 107.3 619.59 109.02 620.16 112.26 621.77 114.45 622.1 116.43 622.01 118.14 621.64 119.57 620.88 120.74 619.59 119.83 618.67 118.47 619.49 117.09 619.65 115.74 619.22 113.16 617.38 112.57 617.25 112.18 616.89 111.49 615.3 111.12 612.93 112.29 612.03 117.37 611.95 122.8 611.11 124.22 611.56 124.72 612.61 125 613.76 125.69 614.55 128.29 614.71 129.13 610.55 131.66 609.51 130.57 607.6 128.53 606.88 123.64 606.92 121.42 606.64 117.16 605.44 115.29 605.15 113.31 605.49 107.3 607.83 101.36 608.7 99.66 609.51 90.35 605.15 86.3 601.83 83.88 600.99 82.8 603.17 81.45 604.01 78.33 604.64 72.64 605.15 58.28 602.99 57.07 601.72 57.85 600.31 60.83 599.36 66.65 598.99 69.11 597.99 70.11 595.54 70.94 595.22 76.08 594.32 76.98 593.35 78.99 590.32 80.28 589.27 83.13 588.82 85.12 589.94 88.27 593.9 89.51 593.46 97.14 589.27 94.01 588.24 87.55 589.01 84.05 587.1 82.29 585.5 82.02 584.54 81.96 582.49 83.2 574.73 83.71 573.49 89.14 566.87 90.01 565.46 91.51 561.78 92.95 560.5 93.88 560.2 94.57 560.35 94.9 561.21 94.63 563.02 96.18 561.67 98.25 558.94 100.01 555.94 100.58 553.86 99.81 552.62 97.61 551.28 97.14 550.05 97.37 548.6 97.64 547.56 97.47 546.59 95.64 545.34 96.02 544.38 97.72 544.31 100.17 545.42 101.59 544.68 102.62 544.47 103.28 545.65 105.16 547.27 107.8 545.36 110.63 544.19 113.74 545.82 114.54 544.47 114.48 542.16 114.87 540.35 113.5 539.3 112.56 537.84 112.33 536.36 113.17 535.24 114.91 535.73 116.23 537.72 117.25 539.49 120.09 539.13 120.56 538.17 119.91 536.4 120.11 534.78 121.24 535.16 121.8 536.34 123.02 536.93 125.1 536.49 126.99 536.28 129.92 534.82 130.87 534.75 132.18 535.64 135.02 536.41 136.28 535.4 137.32 534.96 138.65 533.71 140.55 532.68 143.39 531.74 146.85 531.87 148.02 531.97 150.84 532.63 152.34 532.79 152.65 532.38 152.86 531.5 153.46 530.6 154.9 530.2 160.36 532.79 160.94 533.96 161.29 536.28 162.04 536.92 163.51 536.74 164.15 535.57 164.5 534.26 165.04 533.63 166.27 533.96 167.48 534.77 168.39 535.73 168.74 536.54 170.06 538.24 173.06 539.57 176.45 540.14 177.59 539.88 Z" fill-rule="evenodd" id="PRK-3304" data-name="Hwanghae-namdo"/>
<path d="M 268.61 502.74 267.51 502.29 266.9 502.1 266.17 501.78 265.36 501.35 261.47 499.97 260.65 499.77 258.18 499.41 257.37 499.43 256.48 499.79 254.2 499.21 252.67 498.51 252.23 498.07 250.82 497.11 250.04 496.27 249.41 496.08 245.59 495.63 244.94 495.43 243.95 495.5 243.36 496.17 242.28 496.57 241.42 497.36 240.06 497.93 239.04 497.83 238.2 497.2 237.53 497.4 236.47 498.32 235.91 499.08 235.65 499.81 235.49 500.44 235.14 502.96 235.18 503.6 235.3 504.22 235.53 504.85 235.89 505.45 236.37 506.03 237.02 506.57 238.49 507.35 241.46 508.59 242.12 508.99 242.54 509.34 246.96 514.41 247.33 515.01 247.59 515.61 247.75 516.19 247.86 516.82 247.94 520.84 247.81 521.47 247.49 522.07 247.05 522.64 246.35 523.13 245.62 523.45 240.86 524.45 239.54 524.94 238.53 525.53 237.9 526.12 235.76 528.59 235.11 529.14 234.24 529.6 233.22 529.93 230.63 530.38 228.8 530.52 225.64 529.97 220.79 528.29 218.7 527.23 213.97 525.47 213.3 524.86 213 524.19 213.15 522.24 213.02 521.61 212.73 521 212.21 520.44 211.56 519.92 210.86 519.5 198.45 514.44 196.56 514.07 188.49 513.72 185.21 514.02 181.23 515.57 172.35 520.18 168.72 521.19 167.81 518.98 167.08 518.48 165.94 517.89 164.38 517.27 163.53 516.74 162.9 516.06 162.56 515.26 162.22 514.05 162.22 513.12 162.45 512.33 162.84 511.73 163.37 511.27 164.02 510.93 167.81 509.88 169.11 509.23 169.72 508.45 170.33 507.33 172.27 501.77 172.33 501.01 172.3 500.45 171.47 498.32 170.82 497.16 169.94 496.22 169.33 494.37 168.72 487.55 168.78 487.07 168.95 486.56 169.16 486.19 169.64 485.64 178.58 480.04 178.8 479.94 179.26 479.7 179.76 479.32 179.88 479.11 179.94 478.88 179.88 478.68 179.8 478.52 179.68 478.4 179.24 478.11 178.27 477.7 176.39 476.59 176.19 476.41 176.01 476.15 175.96 475.89 175.97 475.63 176.13 474.91 176.24 474.69 176.73 472.78 176.81 472.26 176.8 471.62 176.73 471.22 176.61 470.77 175.38 468.11 174.37 466.67 174.18 466.25 174.14 465.77 174.2 465.25 174.27 465.04 174.37 464.84 174.5 464.66 175.12 464.08 175.58 463.79 180.65 462.45 184.33 460.54 185.24 459.85 185.67 459.62 186.19 459.47 186.77 459.37 187.54 459.66 188.63 460.21 192.43 462.84 192.58 462.99 193.08 463.7 193.21 463.87 194.12 465.13 194.57 465.61 194.95 465.92 195.38 466.12 196.13 466.38 199.87 467.2 200.25 467.41 200.67 467.75 201.38 468.51 201.7 468.92 201.91 469.26 202.29 470.08 202.95 471.92 203.22 473.2 203.37 473.65 203.68 474.25 203.93 474.41 204.31 474.49 205.04 474.43 205.36 474.26 205.53 474.03 205.57 473.79 205.55 472.99 205.15 471.1 205.09 470.59 205.12 470.07 205.17 469.82 205.47 468.9 205.88 468.08 206.14 467.73 206.92 466.94 207.81 466.26 208.28 466 208.78 465.83 211.09 465.41 211.71 465.37 212.35 465.45 213.19 465.69 214.13 466.05 215.18 466.9 217.1 468.71 217.64 469.06 222.48 468.35 223.85 467.87 224.31 467.51 224.64 467.33 224.84 467.11 224.98 466.9 225.17 466.42 225.44 465.95 225.67 465.73 225.94 465.55 226.24 465.48 226.56 465.46 227.54 465.58 228.25 465.77 228.82 466.18 229.51 466.86 230.73 468.46 231.19 469.26 231.45 469.86 231.54 470.47 231.66 470.75 231.81 471.01 232.02 471.26 232.37 471.5 232.86 471.7 233.85 471.83 237.96 471.65 238.58 471.98 241.24 474.09 242.68 475 242.94 475.03 243.69 475.04 247.39 474.68 248.56 474.71 249.26 474.85 249.65 475.24 250.1 475.89 250.71 477.5 250.82 478.31 250.79 479.01 250.54 479.64 250.43 480.2 250.49 480.94 250.59 481.35 250.75 481.75 251.1 482.5 252.48 483.92 255.54 486.33 256.34 486.76 261.6 487.51 262.43 487.74 262.78 487.94 263.32 488.65 266.47 494.07 266.55 494.16 267.21 495.06 267.98 496.4 268.3 497.86 268.61 502.74 Z" id="PRK-3305" data-name="P&apos;yŏngyang"/>
<path d="M 768.52 57.66 768.08 63.35 766.17 69.57 760.9 71.49 751.81 73.4 745.11 73.88 744.63 77.23 747.5 79.62 746.55 84.41 739.85 90.63 736.5 96.37 737.79 103.9 738.04 105.61 737.43 112.79 736.76 112.83 735.71 112.47 734.31 113.1 732.62 114.78 733.03 114.98 733.4 115.77 732.52 116.29 731.38 116.13 729.3 114.83 727.68 114.17 724.33 114.2 721.9 115.6 721.27 117.94 721.16 118.86 719.34 119.05 719.03 120.05 718.44 120.82 717.4 123.82 717.08 125.8 716.21 126.14 714.75 123.48 713.27 123.91 713.08 126.42 710.73 127.38 711.57 127.93 712.2 128.56 713.25 129.89 712.05 130.19 711.15 130.75 709.82 132.42 710.24 132.16 709.92 133.37 709.35 134.83 709.05 135.4 708.57 137.7 707.31 138.53 706.37 138.17 705.22 137.07 702.29 136.17 700.22 137.02 699.44 139.64 698.58 142.78 698.72 146.87 696.89 150.89 695.1 152.08 694.77 154.16 693.58 154.91 691.58 152.49 689.96 152.58 685.21 154.83 683.74 158.33 682.14 162.6 681.11 164.11 677.87 165.18 674.89 168.33 673.95 172.26 672.26 177.4 669.72 180.66 671.18 183.55 670.82 185.6 670.21 187.46 671.03 191.09 673.77 193.74 676.23 195.51 677.82 196.62 680.45 196.42 681.45 198.18 683.18 199.95 684.54 200.74 685.32 200.82 687.23 200.54 687.91 200.74 689.08 201.98 688.96 202.38 688.31 202.9 687.91 204.52 687.67 204.91 686.71 207.64 686.61 208.29 684.67 209.48 683.29 212.21 678.43 227.7 677.49 233.15 679.5 237.76 678.73 239.4 678.46 241.32 678.58 245.32 679.5 250.85 680.02 252.05 682.27 254.17 684 255.07 682.86 255.74 682.08 258.44 682.54 259.31 680.24 261.62 680.61 264.04 679.12 266.95 678.06 268.57 676.77 268.44 675.82 267.22 674.12 267.68 671.45 268.06 669.12 267.71 666.94 268.12 664.93 267.79 663.47 268.09 660.25 267.94 658.06 269.27 657.7 271.58 655.36 271.93 653.65 273.39 652.19 273.8 648.54 273.58 642.44 275.13 637.8 277.65 633.18 279.55 631.72 280.89 630.25 282.9 628.21 286.67 627.22 288.37 626.35 288.05 625.18 287.15 624.11 285.37 623.15 284.14 621.07 284 618.65 284.42 616.71 285.57 616.05 286.85 615.32 288.13 615.31 288.81 615.39 289.6 614.74 290.51 614.57 291.18 614.25 292.75 613.71 293.41 613.36 294.66 612.94 295.39 611.97 296.24 611.4 296.97 611.29 298.23 611.16 301.25 609.76 301.66 609.68 301.78 603.24 301.43 600.97 300.96 598.96 300.02 597.59 298.38 597.27 296.18 597.69 294.43 597.59 292.75 595.72 290.8 590.81 287.8 588.48 285.97 586.97 283.76 586.59 282.18 586.48 279.04 586.2 277.51 585.51 276.2 584.48 274.97 582.22 272.82 580.64 270.93 579.83 268.98 580.08 267.08 581.7 265.31 582.46 263.61 581.39 261.64 579.98 259.57 579.71 257.58 580.95 255.52 583.72 251.95 584.47 249.68 584.4 246.36 583.51 243.22 580.5 237.37 582.14 234.06 580.87 230.81 578.85 227.47 578.3 223.91 579.22 222.21 581.9 218.94 582.38 216.99 581.7 215.12 580.24 213.72 578.49 212.5 576.94 211.2 571.64 204.54 569.67 200.67 568.83 196.55 570.18 192.55 573.42 190.04 577.03 187.81 579.45 184.62 579.31 181.2 577.36 177.66 574.38 174.7 571.1 173.02 564.63 172.55 562.96 171.81 562.35 170.39 563.33 169.2 564.77 167.94 565.59 166.29 565.31 164.85 563.5 162.54 562.81 161.19 562.53 159.51 562.47 155.3 562.66 153.62 563.39 150.39 563.27 149.04 562.31 148 561.18 147.93 558.22 148.68 557.18 148.51 556.66 147.67 556.49 146.58 556.43 144.46 556.19 143.32 555.83 142.29 554.32 139.03 554.01 137.87 553.64 135.21 555.33 134.81 558.53 135.81 560.24 135.72 561.46 134.97 562.34 133.88 563.8 131.47 566.06 129.54 571.52 127.06 573.77 125.25 575.25 122.58 575.56 121.51 578.06 122.02 582.56 120.9 584.38 115.99 585.48 114.36 588.09 113.82 591.03 113.55 593.2 112.72 596.49 110.14 597.74 108.51 597.89 106.34 600.81 107.64 602.91 107.77 604.67 106.88 608.14 103.88 611.78 101.46 614.08 99.52 615.05 98.89 615.9 98.2 616.28 97.49 615.67 96.38 612.91 96.22 612.16 95.35 612.48 93.94 613.56 93.29 614.88 92.93 615.9 92.41 616.35 91.35 616.27 90.36 616.51 89.45 617.97 88.63 617.07 87.9 616.05 87.4 614.99 87.1 613.78 87.03 613.78 86.11 617.74 86.12 618.99 85.42 619.73 83.59 619.49 82.94 618.74 82.63 618.05 82.18 617.97 81.07 618.35 80.03 618.96 79.21 619.83 78.67 626.41 77.62 627.29 77.33 627.7 75.12 628.73 73.31 630.09 72.76 631.48 74.28 633.24 73.52 632.21 72.46 631.57 71.33 631.76 70.46 633.24 70.16 634.59 70.52 635.69 72.05 637.43 72.6 638.56 72.34 639.89 71.63 641.44 71 643.32 71 649.27 74.74 650.06 75.74 653.53 77.17 654.3 78.1 654.72 79.36 655.75 79.8 657 79.58 658.09 78.9 658.74 77.65 658.84 76.45 659.19 75.55 662.21 74.66 663.05 73.32 663.19 71.68 662.7 70.16 667.84 70.47 672.48 71.39 676.43 70.84 679.57 66.72 680.15 62.3 679.89 57.49 680.51 53.28 683.78 50.69 683.78 49.93 681.7 49.55 681.13 47.89 682.3 46.18 685.45 45.65 684.91 43.87 685.79 42.8 686.79 42 686.66 41.04 685.19 39.98 683.94 39.55 683.1 38.71 682.86 36.42 683.07 34.89 683.56 33.49 685.06 30.92 687.03 27.78 687.7 26.06 688.2 22.35 692.52 13.64 693.42 12.37 694.06 11.09 694.17 8.25 694.68 6.95 696.08 6.08 699.79 5.76 701.48 5.2 700.34 4.88 699.4 4.38 698.66 3.68 698.13 2.75 699.47 2.33 701.75 1.23 703.16 1 704.81 1.23 705.73 1.82 709.44 5.49 710.62 6.35 712.39 6.95 713.93 7.11 718.73 6.95 724.51 5.1 727.86 4.5 729.34 5.62 728.96 7.25 727.98 9.23 726.64 10.99 725.06 11.92 730.18 13.69 736.76 13.55 742.31 14.29 744.46 18.63 742.7 29.07 742.81 33.83 745.22 38.1 751.92 43.17 752.86 45.27 761.25 50.69 762.6 50.96 763.68 50.89 764.63 50.93 765.52 51.53 765.8 52.5 765.35 54.89 765.95 56.19 768.52 57.66 Z" id="PRK-3307" data-name="Hamgyŏng-bukto"/>
<path d="M 511.83 540.4 504.87 543.23 501.52 545.31 500.74 546.9 501.01 549.04 502.05 553.25 501.52 557.61 499.92 561.41 497.54 564.82 494.69 568.02 488.15 573.41 480.29 577.4 471.85 579.76 463.47 580.28 450.57 579.69 442.44 581.04 440.75 580.7 439.24 579.5 437.67 577.71 436.66 577.17 412.94 578.8 405.71 580.52 402 580.79 390.34 578.01 375.18 579.05 371.26 578.73 363.33 579.4 355.09 582.03 347.25 585.89 340.51 590.26 339.79 590.98 338.27 592.5 336.6 595.76 336.57 595.72 335.48 594.24 335.18 593.66 334.8 593.14 334.35 592.67 332.3 592.43 331.22 592.02 331.19 592.01 330.46 591.65 328.4 589.35 328.05 587.68 328.66 586.28 329.39 584.98 329.48 584.16 329.32 583.51 328.36 582.42 328.05 581.95 327.69 581.05 327.84 580.39 328.33 579.54 329.05 578.67 329.83 576.86 329.73 576 329.27 575.47 328.52 575.49 327.84 575.67 327.23 575.95 325.91 576.82 325.23 576.91 324.25 576.71 322.8 575.63 321.7 575.07 320.64 574.72 319.69 574.49 318.93 574.19 318.05 573.5 317.63 572.78 317.5 571.94 317.06 571.12 308.83 559.85 307.92 558.3 307.25 555.89 307.12 554.06 307.17 553.44 307.48 552.19 307.92 550.88 308.22 550.26 308.47 549.49 308.66 548.59 308.5 547.12 308.15 546.2 307.67 545.43 305.03 542.33 304.35 541.22 304.37 541.04 304.62 540.03 305.02 539.42 305.64 538.85 306.37 538.44 307.16 538.1 314.44 536.33 315.99 535.63 317.54 534.65 318.27 534.08 319.38 532.86 321.63 529.03 325.82 524.13 327.6 521.59 327.95 520.58 328.28 519.27 328.64 516.82 328.6 513.56 328.28 511.25 328.3 510.03 328.49 509.06 328.91 508.42 329.44 507.83 330.14 507.24 330.86 506.73 331.64 506.3 332.39 506.02 333.13 505.85 338.95 505.54 339.71 505.4 340.47 505.13 341.22 504.75 341.92 504.24 343.99 502.17 345.02 500.59 345.86 498.88 346.18 497.83 346.32 496.98 346.24 496.37 346.05 495.77 345.77 495.2 345.26 494.36 345.1 494.16 344.36 493.55 343.14 492.18 342.26 490.22 341.72 485.7 343.18 480.58 345.65 477.76 346.6 477.25 350.74 475.59 351.42 475.07 351.76 474.46 351.45 473.41 351.01 472.65 347.07 469.06 348.58 468.09 348.81 467.26 348.8 466.51 347.95 464.42 347.54 462.47 347.86 461.44 348.53 460.77 352.15 459.95 353.21 459.55 354.52 458.68 355.08 457.86 355.32 457.02 355.42 455.43 355.55 454.58 356.39 451.97 357.02 448.09 357.43 447.05 358.05 446.11 358.88 445.39 360.03 444.56 361.03 444.03 361.93 443.68 362.78 443.51 363.69 443.47 368.18 444.06 374.38 443.3 378.45 443.47 384.55 444.35 390.48 443.72 393.55 443.85 394.51 443.7 395.33 443.7 396.16 443.8 397.84 444.37 396.97 445.34 396.3 445.93 390.5 447.61 390.5 448.51 391.92 449.06 394.89 449.7 396.3 450.28 397.81 449.4 399.78 448.94 401.46 449.45 402.18 451.45 401.37 452.37 397.51 453.03 396.3 453.56 395.65 452.83 394.95 452.31 394.18 451.99 393.33 451.88 392.17 452.16 392.26 452.83 392.79 453.66 392.95 454.39 391.53 457.65 390.5 461.12 389.72 464.63 391.05 466.9 392.35 469.39 394.21 470.43 395.64 470.93 398.23 473.19 399.58 473.79 402 473.5 402.51 472.42 402.21 471.18 402.18 470.43 404.39 470.23 406.9 474.96 409.36 476.23 418.61 475.5 421.65 476.23 423.05 477.16 424.11 478.3 425.3 479.26 427.06 479.67 435.48 479.61 437.34 479.81 438.62 480.77 441.44 484.66 445.27 488.91 446.08 490.16 446.84 491.92 448.69 494.03 452.87 497.37 453.26 498.95 453.78 499.43 454.92 498.63 455.72 498.23 456.41 498.6 456.89 499.4 457.29 501.29 457.88 502.26 458.81 502.97 460.01 503.25 462.25 504.29 466.39 509.53 468.75 511.65 478.16 513.42 492.8 527.68 494.63 527.12 500.2 524.74 501.73 524.32 505.47 528.98 506.43 529.69 508.53 530.66 509.71 531.5 511.18 533.72 511.22 534.12 511.22 534.12 511.39 535.93 511.27 538.13 511.79 540.35 511.83 540.4 511.83 540.4 Z" id="PRK-3308" data-name="Kangwŏn-do"/>
<path d="M 343.92 155.74 343.92 155.74 343.52 156.46 341.29 159.6 339.39 162.88 338.57 166.64 338.68 169.55 339.21 172.27 339.9 174.07 340.12 174.94 340.08 175.98 339 177.82 337.09 178.85 334.93 179.65 333.07 180.79 331.8 182.47 330.99 183.89 329.88 184.89 327.67 185.3 324.13 184.91 322.55 185.18 321.16 186.5 320.85 188.04 321.18 190.01 321.91 191.9 322.78 193.22 325.03 194.62 327.19 194.58 331.66 193.04 332.76 192.84 334.08 192.81 335.25 193.17 335.88 194.16 335.64 195.12 334 196.46 333.61 197.3 333.95 198.1 336.2 200.91 337.08 202.89 337.7 204.97 338.53 209.23 339.84 211.64 343.95 214.2 344.84 216.13 344.5 217.33 343.98 218.1 344.08 218.9 345.59 220.21 346.85 221.53 347.4 223.04 348.06 226.46 349.61 228.83 351.9 230.39 358.99 233.95 360.61 234.36 364.34 234.68 369.16 235.69 370.81 235.53 373.33 234.35 374.84 232.72 376.07 230.88 377.82 229.08 380.57 227.59 384.15 226.62 387.69 226.63 390.36 228.09 391.44 230.39 392.07 233.55 392.28 236.83 392.14 239.46 391.57 244.03 389.82 247 383.69 252.18 381.65 255.42 380.71 259.86 381.34 264.12 384.03 266.84 388.72 268.55 390.2 270.02 390.35 272.53 389.76 274.16 388.79 275.5 387.49 276.56 385.96 277.3 380.64 278.56 371.07 282.9 368.46 285.72 366.63 292.94 364.37 295.74 362.84 296.31 357.39 296.87 355.1 297.39 353.3 298.13 351.64 299.16 349.78 300.56 346.04 302.58 343.01 303.82 341.48 305.9 342.25 310.43 342.14 313.89 339.89 316.5 336.9 318.92 334.61 321.84 333.88 323.89 333.34 326.11 333.09 328.36 333.14 330.05 333.01 330.05 330.1 334.95 328.26 336.75 323.63 339.73 322.69 340.63 322.09 341.32 321.09 344.1 320.29 345.72 319.42 346.54 318.47 346.95 316.46 347.09 314.67 347.4 313.68 347.69 312.65 348.12 311 349.09 309.79 350.12 308.26 351.7 307.23 352.48 306.29 352.96 303.55 353.4 302.47 353.69 301.34 354.18 293.53 358.46 292.12 359.4 291.14 360.27 290.79 360.92 290.52 361.61 290.07 363.99 289.81 364.95 289.07 366.18 288.17 366.82 287.25 367.17 283.59 367.35 282.18 367.84 274.91 371.79 273.36 372.31 272.41 372.27 271.47 372.14 270.63 371.89 265.26 369.07 260.55 367.34 258.11 366.8 246.76 365.74 244.16 364.9 238.72 362.16 236.98 360.81 231.73 355.62 223.61 349.82 220.3 346.39 218.14 344.62 217.15 344.21 216.34 344.11 214.71 344.2 213.07 343.87 211.85 343.27 210.38 342.37 209.27 342.01 208.24 341.89 206.44 341.92 204.67 342.16 202.92 342.79 201.23 343.61 200.25 343.86 199.05 343.93 197.25 343.71 196.07 343.32 195.1 342.83 193.17 341.42 178.82 334.11 174.86 331.27 173.95 330.39 173.49 329.6 173.64 328.92 174.16 328.31 174.79 327.7 175.31 327.08 175.47 326.41 175.31 325.75 174.77 325.12 169.64 320.98 169.23 320.38 168.97 319.75 168.81 319.09 168.85 318.39 169.11 317.72 170 316.35 170.26 315.64 170.83 312.18 170.9 312.02 171.05 311.7 172.45 309.97 172.8 309.31 173.1 308.66 173.29 308.02 173.29 307.32 173.03 306.69 172.11 305.11 171.93 304.67 171.19 301.88 170.67 301.03 169.91 300.61 168.98 300.59 166.97 301.02 165.9 300.98 164.61 300.61 163.75 300.05 159.93 296.27 158.75 295.38 157.72 294.78 149.05 290.95 149.51 289.24 150.43 288.67 152.56 288.97 153.71 288.4 154.11 287.62 154.19 285.9 154.55 284.96 155.68 283.54 156.88 282.82 158.46 282.55 163.56 282.44 165.2 281.94 166.05 280.56 166.3 277.9 166.87 275.49 168.31 274.68 170.13 275.06 171.83 276.18 172.79 277.23 173.01 277.59 180.23 277.48 181.95 276.65 180.81 274.79 177.3 271.53 182.02 266.94 184.59 265.55 184.87 265.39 188.64 264.81 189.73 264.45 190.33 263.63 190.82 262.78 191.58 262.29 192.79 262.22 193.82 262.42 199.08 264.25 200.28 264.12 205.32 261.43 206.86 260.84 208.87 260.61 210.19 261.25 211.64 262.49 213.13 263.31 214.78 262.67 216.59 261.6 220.37 261.25 221.94 260.61 222.87 259.41 222.21 258.82 220.57 258.69 218.59 258.85 220 257.04 222.15 256.51 224.49 256.19 226.58 255.03 229.07 252.09 229.83 250.62 229.5 249.54 230.28 248.59 231.27 247.92 232.46 247.46 233.78 247.1 233.44 245.51 234.69 244.24 236.53 242.91 237.97 241.22 236.2 238.94 239.11 236.88 253.04 230.63 254.77 229.47 255.95 228.05 259.05 222.67 260.46 221.31 263.55 219 264.93 217.56 267.79 212.47 269.13 210.91 275.2 205.39 279.09 203.16 282.63 203.21 282.25 203.74 282.04 204.2 281.7 204.6 280.95 204.97 280.95 205.88 285.19 204.95 285.19 201.79 283.49 197.91 282.63 194.81 283.41 193.23 287.67 188.09 289.7 182.54 291.97 179.14 292.42 177.49 291.97 175.88 290.65 174.2 290.72 172.7 295.02 169.27 296.97 166.33 298.95 166 303.29 166.19 304.62 165.6 308.57 162.86 310.51 161.99 308.81 160.92 307.02 160.12 305.49 159.19 304.55 157.72 306.65 157.07 308.61 157.07 310.42 157.6 312.18 158.55 315.84 161.59 317.97 162.65 318.91 161.53 320.46 158.47 327.34 156.33 328.89 153.1 330.08 151.7 332.71 150.32 335.33 149.72 336.54 150.62 336.67 153.32 337.34 154 338.87 153.93 341.65 154.36 343.92 155.74 Z" id="PRK-3310" data-name="Chagang-do"/>
<path d="M 580.5 237.37 583.51 243.22 584.4 246.36 584.47 249.68 583.72 251.95 580.95 255.52 579.71 257.58 579.98 259.57 581.39 261.64 582.46 263.61 581.7 265.31 580.08 267.08 579.83 268.98 580.64 270.93 582.22 272.82 584.48 274.97 585.51 276.2 586.2 277.51 586.48 279.04 586.59 282.18 586.97 283.76 588.48 285.97 590.81 287.8 595.72 290.8 597.59 292.75 597.69 294.43 597.27 296.18 597.59 298.38 598.96 300.02 600.97 300.96 603.24 301.43 609.68 301.78 609.03 302.76 608.49 304.08 604.08 308.35 599.47 313.1 593.64 312.92 586.96 314.65 577.6 322.25 572.78 325.48 569.09 326.03 567 327.56 563 328.54 560.91 328.6 559.43 330 555.7 329.53 551.54 330.48 549.31 333 547.71 333 547.54 331.84 545.23 332.69 543.07 334.65 542.76 337.83 544.28 338.5 547.71 339.59 548.19 340.75 549.07 341.66 548.44 343.49 548.68 346.47 547 346.97 545.88 347.76 545.01 348.56 544.29 349.05 543.41 348.99 541.73 348.38 539.34 348.26 537.98 349.05 533.75 350.71 532.88 352.6 531.84 353.58 529.69 354.56 525.96 354.64 524.29 355.92 522.11 357.75 520.44 358.42 517.54 359.36 515.14 358.97 511.81 359.3 508.49 362.97 507.26 367.75 504.1 367.1 501.4 363.16 499.35 361.73 496.01 362.86 494.97 364.3 495.77 367.6 494.63 367.82 491.94 367.57 490.73 367.6 489.38 368 487.16 369.01 486.03 369.21 485 368.97 484.6 368.4 484.09 367.85 467.79 365.66 467.23 366.24 467.07 368.02 466.68 368.7 465.69 369.39 464.47 369.92 463.33 370.13 462.49 370.71 460.46 373.47 459.57 374.32 458.37 374.67 455.47 373.19 453.55 375.98 453.57 378.12 452.69 383.26 451.53 384.4 440.12 385.31 441.91 386.51 441.62 387.74 437.73 389.23 433.42 388.78 429.53 389.88 427.55 393.79 425.54 394.98 423.74 393.24 420.67 392.01 418.64 394.55 416.9 395.05 414.8 396.27 413.06 397.78 411.53 400.6 408.02 402.33 407.23 403.36 406.99 404.28 405.92 406.2 405.62 407.22 405.67 408.3 406.24 410.1 406.51 413.02 406.96 414.32 407.74 414.89 408.91 414.77 411.94 415.88 414.1 418.21 414.62 421.02 409.98 426.31 407.97 431.42 409.81 439.62 413.2 451.93 413.09 455.31 412.15 456.57 410.8 457.06 409.37 456.67 408.14 455.31 407.99 453.69 408.77 451.87 410.65 448.51 406.39 443.87 405.95 442.2 404.86 440.9 403.36 440.46 401.76 441.35 398.13 444.04 397.84 444.37 397.84 444.37 396.16 443.8 395.33 443.7 394.51 443.7 393.55 443.85 390.48 443.72 384.55 444.35 378.45 443.47 374.38 443.3 368.18 444.06 363.69 443.47 362.78 443.51 361.93 443.68 361.03 444.03 360.03 444.56 358.88 445.39 358.05 446.11 357.43 447.05 357.02 448.09 356.39 451.97 355.55 454.58 355.42 455.43 355.32 457.02 355.08 457.86 354.52 458.68 353.21 459.55 352.15 459.95 348.53 460.77 347.86 461.44 347.54 462.47 347.95 464.42 348.8 466.51 348.81 467.26 348.58 468.09 347.07 469.06 344.43 467.96 343.88 467.81 343.2 467.71 341.41 467.66 337.92 468.2 337.03 468.2 336.14 468.04 335.29 467.7 334.68 467.13 334.52 466.42 334.79 465.49 335.36 464.02 335.48 463.2 335.36 462.24 334.87 460.97 334.27 460.13 333.52 459.51 332.76 459.17 331.89 458.97 330.95 458.91 330.02 458.96 329.13 459.16 328.32 459.57 326.99 460.68 326.27 461.02 325.58 460.98 325.04 460.53 324.72 459.9 324.3 458.55 324.02 457.92 323.67 457.3 323.15 456.71 322.54 456.24 321.97 455.94 321.6 455.79 321.06 455.66 320.63 455.58 318.91 455.52 317.99 455.66 317.14 455.87 313.11 457.4 312.44 457.52 311.66 457.57 310.74 457.49 309.85 457.23 308.99 456.81 308.19 456.19 307.58 455.54 307.08 454.84 306.78 454.19 306.79 452.71 307.17 450.61 309.74 442.54 311.58 438.75 311.77 437.98 311.73 437.08 311.2 435.78 310.51 434.96 309.7 434.32 308.83 433.83 305.8 431.64 304.53 430.42 304.04 429.75 303.73 429.1 303.7 428.11 303.97 426.85 305.06 424.59 305.95 423.45 306.86 422.6 307.65 422.09 308.3 421.37 308.7 420.45 308.76 419.05 308.64 418.12 308.38 417.33 307.42 415.39 307.35 414.57 307.58 413.66 308.45 412.4 313.22 408.42 313.55 407.89 313.68 407.25 313.4 406.43 312.99 406.1 312.29 405.92 311.42 405.83 310.51 405.65 309.81 405.31 309.45 404.58 309.67 403.57 311.34 400.98 313.4 398.66 313.79 398.01 314.16 397.3 315.85 392.81 316.45 391.74 317.17 390.91 317.92 390.38 318.74 389.94 319.61 389.55 321.28 389.06 328.1 387.73 336.01 387.73 337.9 388.02 339.52 388.51 340.24 388.84 340.99 389.35 341.57 389.97 343.17 392.01 343.74 392.45 344.22 392.59 344.98 392.6 345.77 392.31 346.52 391.88 347.58 390.83 348.3 390.42 349.22 390.24 354.14 389.92 354.92 389.63 355.65 389.17 356.22 388.58 356.65 387.99 357.38 386.78 357.67 386.05 357.85 385.25 357.67 384 357.15 382.85 353.49 377.72 352.95 376.62 351.47 371.77 351.12 370.17 351.07 369.49 351.16 368.8 351.68 368.25 352.46 367.98 353.37 367.8 354.1 367.52 354.5 366.89 354.45 366.04 354.17 364.78 354.17 363.87 354.44 363.15 354.94 362.62 355.43 362.24 363.91 357.01 365.17 355.8 365.58 355.17 365.82 354.49 365.88 353.76 365.84 353.02 365.21 352.14 364.03 351.21 359.45 348.99 358.23 348.19 357.54 346.98 357.03 345.22 356.53 341.74 356.54 341.58 356.84 340.8 357.54 339.5 357.77 338.84 357.85 338.19 357.73 337.57 357.47 336.93 356.84 336.19 350.96 331.77 349.92 331.18 348.26 330.57 345.99 330.02 344.34 329.82 333.14 330.05 333.09 328.36 333.34 326.11 333.88 323.89 334.61 321.84 336.9 318.92 339.89 316.5 342.14 313.89 342.25 310.43 341.48 305.9 343.01 303.82 346.04 302.58 349.78 300.56 351.64 299.16 353.3 298.13 355.1 297.39 357.39 296.87 362.84 296.31 364.37 295.74 366.63 292.94 368.46 285.72 371.07 282.9 380.64 278.56 385.96 277.3 387.49 276.56 388.79 275.5 389.76 274.16 390.35 272.53 390.2 270.02 388.72 268.55 384.03 266.84 381.34 264.12 380.71 259.86 381.65 255.42 383.69 252.18 389.82 247 391.57 244.03 392.14 239.46 397.2 240.33 402.32 240.61 404.72 239.98 406.1 238.5 406.83 236.41 407.36 233.99 409.35 230.34 412.58 229.35 420.87 230.68 425.32 232.34 426.93 235.34 426.79 239.34 425.98 244.01 425.44 245.76 424.49 247.13 423.1 248.09 421.31 248.57 417.63 248.8 415.96 249.48 416.51 250.94 419.56 254.64 419.94 257.81 417.89 260.62 410.29 265.18 408.6 266.46 407.6 267.83 407.85 269.38 409.52 269.97 411.68 270.45 413.41 271.64 414.11 273.2 414.78 276.5 415.4 278.01 420.4 284.74 421.72 286.16 423.07 286.86 424.48 287.42 425.95 288.41 427.06 290.21 427.85 294.73 428.54 296.7 429.5 297.89 430.59 298.63 431.88 299.03 433.41 299.26 437.33 299.35 438.85 299.88 438.07 301.21 436.78 302.63 436.77 303.85 437.28 305.18 437.57 306.95 437.25 308.6 436.51 309.62 434.2 311.63 433.21 313.11 432.82 314.6 432.7 317.94 432.87 320.28 433.64 321.52 435.09 321.82 437.26 321.34 445.2 317.87 456.41 311.05 458.02 309.43 459.09 307.54 459.8 305.61 460.65 303.94 461.83 302.56 463.58 301.48 473.16 298.88 475.04 298.77 476.83 299.09 478.35 300.01 481.51 302.38 485.03 303.65 488.55 303.31 491.74 300.86 496.62 295.14 498.49 293.5 504.26 289.73 505.71 288.16 506.31 286.72 506.98 281.99 507.69 280.51 509.6 278.02 510.43 276.59 511.13 274.44 511.5 272.32 511.83 267.94 512.28 265.77 513.82 261.61 514.14 259.58 513.24 256.31 511.66 252.49 511.06 249.17 513.07 247.39 517.01 247.26 521.49 247.51 525.85 247.34 529.39 245.98 530.9 244.45 533.15 240.99 534.53 239.43 536.57 238.43 541.62 237.06 543.15 235.76 543.63 234.23 544.01 232.15 544.19 230.08 544.06 228.56 544.45 227.04 546.32 226.89 551.47 228.12 552.87 228.1 555.89 227.41 557.76 227.29 559.58 227.67 572.44 232.16 577.1 234.35 580.5 237.37 Z" id="PRK-3311" data-name="Hamgyŏng-namdo"/>
<path d="M 49.62 441.56 49.06 441.64 48.31 441.29 47.95 440.21 47.92 439.25 49.02 438.94 50.35 437.98 50.58 438.95 50.66 439.16 51 439.56 51.15 440.95 49.62 441.56 Z M 61.7 431.63 60.83 432.39 59.2 432.31 58.66 431.76 59.1 430.73 58.88 430.1 59.58 429.37 60.32 428.39 61.68 428.15 62.06 428.97 62.05 430.33 61.7 431.63 Z M 60.02 424.14 60.87 424.97 60.57 426.09 59.5 427.2 58.09 427.97 56.38 427.99 54.31 426.84 49.24 427.97 48.85 428.26 48.29 428.05 48.49 427.22 49.38 426.65 50.56 426.14 52.6 424.7 53.11 424.84 54.8 424.68 57.88 424.02 60.02 424.14 Z M 83.63 429.33 80.98 431.77 78.64 432.07 75.68 433.27 77.94 430.13 79.53 430.67 80.41 429.28 78.66 427.98 78.93 427.4 80.36 427.27 80.41 426.77 80.75 426.17 80.09 425.75 80.1 423.64 82.07 422.75 81.97 420.94 83.46 419.93 83.3 418.88 85.6 418.67 88.99 419.82 88.43 420.62 86.89 421.2 88.19 423.82 89.83 426.49 87.18 427.69 83.63 429.33 Z M 2.98 396.47 2.81 396.87 2.46 396.85 2.22 396.57 1.59 396.46 1.04 396.41 1.03 396.36 1 395.87 1.16 395.31 1.41 394.92 1.98 394.47 1.77 393.98 2.1 393.94 2.45 393.75 2.19 393.48 2.49 393.35 2.94 393.19 3.3 393.21 3.53 393.45 3.84 393.64 4.02 394.15 4.51 394.26 4.48 394.6 4.47 394.87 4.87 394.91 4.87 395.24 4.73 395.58 4.26 395.69 3.94 396.01 3.35 396.03 2.98 396.47 Z M 149.05 290.95 157.72 294.78 158.75 295.38 159.93 296.27 163.75 300.05 164.61 300.61 165.9 300.98 166.97 301.02 168.98 300.59 169.91 300.61 170.67 301.03 171.19 301.88 171.93 304.67 172.11 305.11 173.03 306.69 173.29 307.32 173.29 308.02 173.1 308.66 172.8 309.31 172.45 309.97 171.05 311.7 170.9 312.02 170.83 312.18 170.26 315.64 170 316.35 169.11 317.72 168.85 318.39 168.81 319.09 168.97 319.75 169.23 320.38 169.64 320.98 174.77 325.12 175.31 325.75 175.47 326.41 175.31 327.08 174.79 327.7 174.16 328.31 173.64 328.92 173.49 329.6 173.95 330.39 174.86 331.27 178.82 334.11 193.17 341.42 195.1 342.83 196.07 343.32 197.25 343.71 199.05 343.93 200.25 343.86 201.23 343.61 202.92 342.79 204.67 342.16 206.44 341.92 208.24 341.89 209.27 342.01 210.38 342.37 211.85 343.27 213.07 343.87 214.71 344.2 216.34 344.11 217.15 344.21 218.14 344.62 220.3 346.39 223.61 349.82 231.73 355.62 236.98 360.81 238.72 362.16 244.16 364.9 246.76 365.74 258.11 366.8 260.55 367.34 265.26 369.07 263.56 371.19 263.5 371.33 263.2 372.17 262.94 373.6 262.8 375.1 262.96 375.82 263.27 376.49 265.86 379.92 266.25 380.67 266.47 381.39 266.55 382.15 266.52 382.9 266.33 383.61 265.61 384.29 264.37 384.92 261.56 385.75 252.88 389.34 233.36 393.3 232.33 393.34 231.41 393.21 230.54 392.99 229.7 392.68 227.99 391.82 227.26 391.3 224.31 388.8 223.61 388.57 222.87 388.58 222.05 389.3 221.58 389.99 221.3 390.76 221.17 391.4 221.02 391.86 220.71 392.09 220.03 392.47 218.37 393.12 216.96 394.33 215.51 396.3 214.52 397.31 212.13 398.88 209.91 400.73 209.04 401.33 207.96 401.77 204.02 402.37 203.34 403 203.11 403.43 203.06 403.81 203.03 404.12 202.79 404.83 202.19 405.65 198.09 409.76 192.29 412.92 184.73 415.82 182.59 416.33 180.41 416.29 177.84 415.92 176.85 415.98 175.89 416.29 173.4 417.93 167.14 420.77 159.98 423.04 153.5 423.79 153.47 423.79 152.71 422.33 150.84 423.44 138.05 428.63 135.33 429.35 134.27 429.88 133.17 430.1 132.08 429.51 128.83 426.41 128.29 426.11 127.15 424.97 125 424.53 123.86 423.72 125.69 421.49 117.37 421.49 117.79 422.23 118.63 424.13 119.05 424.85 113.59 424.85 112.38 424.61 112.05 423.98 111.96 423.17 111.49 422.33 110.76 421.33 110.5 420.57 109.99 420.07 108.52 419.89 106.61 420.22 105.41 420.27 103.86 419.89 102.92 419.36 100.22 417.46 99.66 416.88 99.3 416.06 98.4 415.87 97.31 415.87 96.32 415.61 92.86 412.78 91.51 412.66 90.35 414.77 88.96 413.89 87.31 413.49 85.9 412.78 84.8 409.1 83.43 407.6 81.55 406.41 79.44 405.47 77.53 404.92 74.79 404.63 73.78 404.37 73.3 403.21 69.79 402.97 68.53 402.21 68.04 399.42 66.77 397.91 66.05 399.24 65.96 400.47 66.38 401.59 67.19 402.57 67.83 403.96 67.28 405.36 67.25 406.89 66.53 407.95 66.59 409.17 68.12 409.6 67.62 411.5 66.09 411.58 64.77 412.38 65.31 413.65 66.5 414.95 65.42 415.29 63.12 414.61 60.49 415.79 58.02 417.69 54.84 418.92 53.79 421.07 53.41 421.58 51.73 420.66 51.77 420.14 51.92 419.77 52.42 418.98 51.5 418.8 51.1 418.6 50.74 418.21 50.13 416.89 52.32 414.91 52.76 412.67 54.35 411.87 54.94 410.12 54.58 408.41 53.71 408.35 52.67 408.86 51.73 408.9 51.25 408.36 50.45 406.91 49.97 406.31 48.85 405.74 47.76 405.55 46.93 405.21 46.62 404.2 46.74 403.12 47.31 401.19 47.46 400.01 46.92 399.39 44.62 398.41 44.08 397.45 44.55 394.94 44.38 394.06 43.26 393.71 38.94 393.59 28.44 392.03 27.9 392.2 27.45 392.56 26.99 392.84 26.39 392.8 25.89 392.39 25.41 391.39 25.1 391.19 24.64 390.71 24.1 388.46 23.78 387.75 22.93 387.47 19.6 386.99 17.92 384.4 17.05 383.52 16.19 382.83 15.35 382.32 14.56 381.96 15.86 380.42 17.53 379.79 19.21 379.39 20.51 378.59 21.26 376.86 22.12 370.89 24.92 367.8 28.4 368.19 32.3 369.34 36.45 368.44 33.95 367.43 28.25 367.18 25.47 366.76 23.15 365.28 22.28 363.24 21.79 361.05 20.51 359.13 22.43 357.63 39.97 344.88 40.49 344.65 41.79 344.45 42.49 344.05 42.68 343.58 42.87 342.17 43.25 341.52 45.22 340.17 50.18 337.74 52.15 336.03 54.04 335.02 60.24 333.97 62.63 333.05 63.92 331.04 64.95 328.2 66.17 325.67 68.09 324.58 70.92 324.05 73.5 322.75 79.53 318.14 83.71 313.96 84.55 312.44 85.14 311.74 86.39 312.61 87.56 313.92 87.9 314.51 88.88 314.9 90.04 315.19 93.03 315.42 96.35 314.97 98.81 315.12 101.23 314.97 103.07 314.51 103.69 313.28 102.77 311.76 101.4 310.23 99.88 308.71 99.88 307.02 101.08 305.5 104.15 304.58 107.05 303.82 109.02 302.9 112.09 301.83 114.36 300.76 116.82 299.39 120.32 298.17 124.61 297.1 127.81 296.03 129.49 295.57 130.57 294.66 131.32 293.43 132.09 292.06 134.07 291.45 135.9 291.3 137.74 291.91 139.4 292.37 141.78 291.76 142.71 291.68 143.8 292.02 145.29 293.11 146.07 293.43 148.82 293.52 149.3 292.59 149.03 291.04 149.05 290.95 Z" fill-rule="evenodd" id="PRK-3312" data-name="P&apos;yŏngan-bukto"/>
<path d="M 347.07 469.06 351.01 472.65 351.45 473.41 351.76 474.46 351.42 475.07 350.74 475.59 346.6 477.25 345.65 477.76 343.18 480.58 341.72 485.7 334.84 486.4 332.2 486.06 330.52 485.21 324.18 481.1 322.35 480.3 320.55 479.7 316.64 479.17 315.8 478.91 314.96 478.49 313.11 477.22 311.68 476.56 310.74 476.27 309.76 476.14 308.81 476.15 302.94 477.36 301.12 477.56 299.12 477.51 298.18 477.31 297.26 476.96 296.42 476.53 295.69 475.98 293.81 474.03 292.92 473.59 291.93 473.72 290.75 474.56 289.92 476.1 289.62 477.15 289.59 478.06 289.73 478.77 289.96 479.45 290.3 480.08 291.94 482.03 292.39 482.71 292.97 484.02 293.35 484.66 293.87 485.29 296.73 487.52 297.27 488.12 297.65 488.74 298.4 490.71 298.76 491.35 299.21 492.04 300.32 493.29 301.27 494.15 301.72 494.8 301.96 495.33 302.1 495.94 301.18 496.55 299.43 497.07 294.95 497.45 292.82 497.43 291.26 497.24 285.14 494.15 284.29 493.91 283.38 494.09 282.37 494.61 280.91 496.09 280.63 497.02 280.76 497.83 281.57 499.03 282.1 500.23 282.37 501.3 282.49 502.14 282.49 502.62 282.42 503.03 282.3 503.47 282 503.99 281.43 504.53 280.67 505.04 278.69 505.12 277.27 505.03 268.61 502.74 268.3 497.86 267.98 496.4 267.21 495.06 266.55 494.16 266.47 494.07 263.32 488.65 262.78 487.94 262.43 487.74 261.6 487.51 256.34 486.76 255.54 486.33 252.48 483.92 251.1 482.5 250.75 481.75 250.59 481.35 250.49 480.94 250.43 480.2 250.54 479.64 250.79 479.01 250.82 478.31 250.71 477.5 250.1 475.89 249.65 475.24 249.26 474.85 248.56 474.71 247.39 474.68 243.69 475.04 242.94 475.03 242.68 475 241.24 474.09 238.58 471.98 237.96 471.65 233.85 471.83 232.86 471.7 232.37 471.5 232.02 471.26 231.81 471.01 231.66 470.75 231.54 470.47 231.45 469.86 231.19 469.26 230.73 468.46 229.51 466.86 228.82 466.18 228.25 465.77 227.54 465.58 226.56 465.46 226.24 465.48 225.94 465.55 225.67 465.73 225.44 465.95 225.17 466.42 224.98 466.9 224.84 467.11 224.64 467.33 224.31 467.51 223.85 467.87 222.48 468.35 217.64 469.06 217.1 468.71 215.18 466.9 214.13 466.05 213.19 465.69 212.35 465.45 211.71 465.37 211.09 465.41 208.78 465.83 208.28 466 207.81 466.26 206.92 466.94 206.14 467.73 205.88 468.08 205.47 468.9 205.17 469.82 205.12 470.07 205.09 470.59 205.15 471.1 205.55 472.99 205.57 473.79 205.53 474.03 205.36 474.26 205.04 474.43 204.31 474.49 203.93 474.41 203.68 474.25 203.37 473.65 203.22 473.2 202.95 471.92 202.29 470.08 201.91 469.26 201.7 468.92 201.38 468.51 200.67 467.75 200.25 467.41 199.87 467.2 196.13 466.38 195.38 466.12 194.95 465.92 194.57 465.61 194.12 465.13 193.21 463.87 193.08 463.7 192.58 462.99 192.43 462.84 188.63 460.21 187.54 459.66 186.77 459.37 186.19 459.47 185.67 459.62 185.24 459.85 184.33 460.54 180.65 462.45 175.58 463.79 175.12 464.08 174.5 464.66 174.37 464.84 174.27 465.04 174.2 465.25 174.14 465.77 174.18 466.25 174.37 466.67 175.38 468.11 176.61 470.77 176.73 471.22 176.8 471.62 176.81 472.26 176.73 472.78 176.24 474.69 176.13 474.91 175.97 475.63 175.96 475.89 176.01 476.15 176.19 476.41 176.39 476.59 178.27 477.7 179.24 478.11 179.68 478.4 179.8 478.52 179.88 478.68 179.94 478.88 179.88 479.11 179.76 479.32 179.26 479.7 178.8 479.94 178.58 480.04 169.64 485.64 169.16 486.19 168.95 486.56 168.78 487.07 168.72 487.55 169.33 494.37 169.94 496.22 170.82 497.16 171.47 498.32 172.3 500.45 172.33 501.01 172.27 501.77 170.33 507.33 169.72 508.45 169.11 509.23 167.81 509.88 164.02 510.93 163.37 511.27 162.84 511.73 162.45 512.33 162.22 513.12 162.22 514.05 162.56 515.26 162.9 516.06 163.53 516.74 164.38 517.27 165.94 517.89 167.08 518.48 167.81 518.98 168.72 521.19 168.57 522.8 168.85 523.56 169.4 524.56 170.78 525.95 173.03 527.74 173.48 528.42 173.72 529.35 173.95 532.52 175.49 536.14 174.23 535.84 171.74 535.74 170.43 535.24 164.86 529.73 162.88 528.52 161.3 528.29 158.38 528.28 156.92 527.68 156.16 526.87 152.97 522.29 153.09 521.72 153.06 521.59 151.95 521.8 151.6 522.32 151.14 523.34 150.21 524.22 148.53 524.32 149.65 524.92 150.61 525.67 151.39 526.57 149.56 527.5 145.87 528.95 143.88 528.57 142.64 526.84 141.8 526.84 141.08 528.48 139.94 528.95 136.68 528.52 136.46 528.16 136.16 527.43 135.68 526.84 135.02 526.84 134.39 527.59 134.64 528.37 135.32 529.04 135.92 529.43 135.92 530.2 134.12 530.7 132.15 530.69 130.27 530.12 128.71 528.98 127.94 527.61 128.36 526.58 130.81 524.32 129.94 523.93 129.13 523.41 129.41 522.85 129.7 522.25 129.07 520.81 127.63 519.64 125.69 519.28 126.34 522.25 124.63 526.21 121.13 526.35 119.72 524.79 119.16 523.32 117.28 522.58 115.86 521.61 114.87 518.36 115.62 516.29 116.14 514.23 116.53 509.62 116.69 507.54 118.12 504.6 119.27 501.73 121.37 499.3 122.7 497.24 122.43 495.91 124.09 494.01 126.7 490.52 128.99 488.09 129.97 486.04 131.3 484.29 133.8 484.3 136.86 484.42 139.2 483.94 132.93 483.19 133.25 482.26 133.74 481.34 133.7 480.51 133.19 479.8 133.43 479.01 133.34 477.99 133.56 477.1 134.07 476.55 134.21 476.08 133.34 475.47 134.49 474.33 135.77 473.85 138.83 473.79 140.24 473.43 139.82 472.55 138.83 471.45 138.44 470.43 140.25 468.02 142.89 467.03 145.84 467.11 148.53 467.9 147.79 466.04 146.7 465.11 146.4 463.97 151.11 457.21 152.71 456 150.78 455.8 149.19 454.81 148.56 453.19 149.43 451.03 148.84 450.61 147.76 449.35 149.01 449.68 149.52 449.86 150.19 450.28 152.8 449.07 153.85 448.16 154.47 446.84 151.92 446.85 144.3 445.93 141.9 445.16 142.26 443.39 145.17 440.05 143.82 439.97 142.49 440.1 141.24 440.41 140.12 440.88 140.55 437.67 142.31 435.82 144.66 434.4 146.85 432.49 147.51 431.02 148 429.33 148.87 427.94 152.35 426.86 153.37 425.58 153.55 423.94 153.47 423.79 153.5 423.79 159.98 423.04 167.14 420.77 173.4 417.93 175.89 416.29 176.85 415.98 177.84 415.92 180.41 416.29 182.59 416.33 184.73 415.82 192.29 412.92 198.09 409.76 202.19 405.65 202.79 404.83 203.03 404.12 203.06 403.81 203.11 403.43 203.34 403 204.02 402.37 207.96 401.77 209.04 401.33 209.91 400.73 212.13 398.88 214.52 397.31 215.51 396.3 216.96 394.33 218.37 393.12 220.03 392.47 220.71 392.09 221.02 391.86 221.17 391.4 221.3 390.76 221.58 389.99 222.05 389.3 222.87 388.58 223.61 388.57 224.31 388.8 227.26 391.3 227.99 391.82 229.7 392.68 230.54 392.99 231.41 393.21 232.33 393.34 233.36 393.3 252.88 389.34 261.56 385.75 264.37 384.92 265.61 384.29 266.33 383.61 266.52 382.9 266.55 382.15 266.47 381.39 266.25 380.67 265.86 379.92 263.27 376.49 262.96 375.82 262.8 375.1 262.94 373.6 263.2 372.17 263.5 371.33 263.56 371.19 265.26 369.07 270.63 371.89 271.47 372.14 272.41 372.27 273.36 372.31 274.91 371.79 282.18 367.84 283.59 367.35 287.25 367.17 288.17 366.82 289.07 366.18 289.81 364.95 290.07 363.99 290.52 361.61 290.79 360.92 291.14 360.27 292.12 359.4 293.53 358.46 301.34 354.18 302.47 353.69 303.55 353.4 306.29 352.96 307.23 352.48 308.26 351.7 309.79 350.12 311 349.09 312.65 348.12 313.68 347.69 314.67 347.4 316.46 347.09 318.47 346.95 319.42 346.54 320.29 345.72 321.09 344.1 322.09 341.32 322.69 340.63 323.63 339.73 328.26 336.75 330.1 334.95 333.01 330.05 333.14 330.05 344.34 329.82 345.99 330.02 348.26 330.57 349.92 331.18 350.96 331.77 356.84 336.19 357.47 336.93 357.73 337.57 357.85 338.19 357.77 338.84 357.54 339.5 356.84 340.8 356.54 341.58 356.53 341.74 357.03 345.22 357.54 346.98 358.23 348.19 359.45 348.99 364.03 351.21 365.21 352.14 365.84 353.02 365.88 353.76 365.82 354.49 365.58 355.17 365.17 355.8 363.91 357.01 355.43 362.24 354.94 362.62 354.44 363.15 354.17 363.87 354.17 364.78 354.45 366.04 354.5 366.89 354.1 367.52 353.37 367.8 352.46 367.98 351.68 368.25 351.16 368.8 351.07 369.49 351.12 370.17 351.47 371.77 352.95 376.62 353.49 377.72 357.15 382.85 357.67 384 357.85 385.25 357.67 386.05 357.38 386.78 356.65 387.99 356.22 388.58 355.65 389.17 354.92 389.63 354.14 389.92 349.22 390.24 348.3 390.42 347.58 390.83 346.52 391.88 345.77 392.31 344.98 392.6 344.22 392.59 343.74 392.45 343.17 392.01 341.57 389.97 340.99 389.35 340.24 388.84 339.52 388.51 337.9 388.02 336.01 387.73 328.1 387.73 321.28 389.06 319.61 389.55 318.74 389.94 317.92 390.38 317.17 390.91 316.45 391.74 315.85 392.81 314.16 397.3 313.79 398.01 313.4 398.66 311.34 400.98 309.67 403.57 309.45 404.58 309.81 405.31 310.51 405.65 311.42 405.83 312.29 405.92 312.99 406.1 313.4 406.43 313.68 407.25 313.55 407.89 313.22 408.42 308.45 412.4 307.58 413.66 307.35 414.57 307.42 415.39 308.38 417.33 308.64 418.12 308.76 419.05 308.7 420.45 308.3 421.37 307.65 422.09 306.86 422.6 305.95 423.45 305.06 424.59 303.97 426.85 303.7 428.11 303.73 429.1 304.04 429.75 304.53 430.42 305.8 431.64 308.83 433.83 309.7 434.32 310.51 434.96 311.2 435.78 311.73 437.08 311.77 437.98 311.58 438.75 309.74 442.54 307.17 450.61 306.79 452.71 306.78 454.19 307.08 454.84 307.58 455.54 308.19 456.19 308.99 456.81 309.85 457.23 310.74 457.49 311.66 457.57 312.44 457.52 313.11 457.4 317.14 455.87 317.99 455.66 318.91 455.52 320.63 455.58 321.06 455.66 321.6 455.79 321.97 455.94 322.54 456.24 323.15 456.71 323.67 457.3 324.02 457.92 324.3 458.55 324.72 459.9 325.04 460.53 325.58 460.98 326.27 461.02 326.99 460.68 328.32 459.57 329.13 459.16 330.02 458.96 330.95 458.91 331.89 458.97 332.76 459.17 333.52 459.51 334.27 460.13 334.87 460.97 335.36 462.24 335.48 463.2 335.36 464.02 334.79 465.49 334.52 466.42 334.68 467.13 335.29 467.7 336.14 468.04 337.03 468.2 337.92 468.2 341.41 467.66 343.2 467.71 343.88 467.81 344.43 467.96 347.07 469.06 Z" id="PRK-3313" data-name="P&apos;yŏngan-namdo"/>
<path d="M 575.56 121.51 575.25 122.58 573.77 125.25 571.52 127.06 566.06 129.54 563.8 131.47 562.34 133.88 561.46 134.97 560.24 135.72 558.53 135.81 555.33 134.81 553.64 135.21 554.01 137.87 554.32 139.03 555.83 142.29 556.19 143.32 556.43 144.46 556.49 146.58 556.66 147.67 557.18 148.51 558.22 148.68 561.18 147.93 562.31 148 563.27 149.04 563.39 150.39 562.66 153.62 562.47 155.3 562.53 159.51 562.81 161.19 563.5 162.54 565.31 164.85 565.59 166.29 564.77 167.94 563.33 169.2 562.35 170.39 562.96 171.81 564.63 172.55 571.1 173.02 574.38 174.7 577.36 177.66 579.31 181.2 579.45 184.62 577.03 187.81 573.42 190.04 570.18 192.55 568.83 196.55 569.67 200.67 571.64 204.54 576.94 211.2 578.49 212.5 580.24 213.72 581.7 215.12 582.38 216.99 581.9 218.94 579.22 222.21 578.3 223.91 578.85 227.47 580.87 230.81 582.14 234.06 580.5 237.37 577.1 234.35 572.44 232.16 559.58 227.67 557.76 227.29 555.89 227.41 552.87 228.1 551.47 228.12 546.32 226.89 544.45 227.04 544.06 228.56 544.19 230.08 544.01 232.15 543.63 234.23 543.15 235.76 541.62 237.06 536.57 238.43 534.53 239.43 533.15 240.99 530.9 244.45 529.39 245.98 525.85 247.34 521.49 247.51 517.01 247.26 513.07 247.39 511.06 249.17 511.66 252.49 513.24 256.31 514.14 259.58 513.82 261.61 512.28 265.77 511.83 267.94 511.5 272.32 511.13 274.44 510.43 276.59 509.6 278.02 507.69 280.51 506.98 281.99 506.31 286.72 505.71 288.16 504.26 289.73 498.49 293.5 496.62 295.14 491.74 300.86 488.55 303.31 485.03 303.65 481.51 302.38 478.35 300.01 476.83 299.09 475.04 298.77 473.16 298.88 463.58 301.48 461.83 302.56 460.65 303.94 459.8 305.61 459.09 307.54 458.02 309.43 456.41 311.05 445.2 317.87 437.26 321.34 435.09 321.82 433.64 321.52 432.87 320.28 432.7 317.94 432.82 314.6 433.21 313.11 434.2 311.63 436.51 309.62 437.25 308.6 437.57 306.95 437.28 305.18 436.77 303.85 436.78 302.63 438.07 301.21 438.85 299.88 437.33 299.35 433.41 299.26 431.88 299.03 430.59 298.63 429.5 297.89 428.54 296.7 427.85 294.73 427.06 290.21 425.95 288.41 424.48 287.42 423.07 286.86 421.72 286.16 420.4 284.74 415.4 278.01 414.78 276.5 414.11 273.2 413.41 271.64 411.68 270.45 409.52 269.97 407.85 269.38 407.6 267.83 408.6 266.46 410.29 265.18 417.89 260.62 419.94 257.81 419.56 254.64 416.51 250.94 415.96 249.48 417.63 248.8 421.31 248.57 423.1 248.09 424.49 247.13 425.44 245.76 425.98 244.01 426.79 239.34 426.93 235.34 425.32 232.34 420.87 230.68 412.58 229.35 409.35 230.34 407.36 233.99 406.83 236.41 406.1 238.5 404.72 239.98 402.32 240.61 397.2 240.33 392.14 239.46 392.28 236.83 392.07 233.55 391.44 230.39 390.36 228.09 387.69 226.63 384.15 226.62 380.57 227.59 377.82 229.08 376.07 230.88 374.84 232.72 373.33 234.35 370.81 235.53 369.16 235.69 364.34 234.68 360.61 234.36 358.99 233.95 351.9 230.39 349.61 228.83 348.06 226.46 347.4 223.04 346.85 221.53 345.59 220.21 344.08 218.9 343.98 218.1 344.5 217.33 344.84 216.13 343.95 214.2 339.84 211.64 338.53 209.23 337.7 204.97 337.08 202.89 336.2 200.91 333.95 198.1 333.61 197.3 334 196.46 335.64 195.12 335.88 194.16 335.25 193.17 334.08 192.81 332.76 192.84 331.66 193.04 327.19 194.58 325.03 194.62 322.78 193.22 321.91 191.9 321.18 190.01 320.85 188.04 321.16 186.5 322.55 185.18 324.13 184.91 327.67 185.3 329.88 184.89 330.99 183.89 331.8 182.47 333.07 180.79 334.93 179.65 337.09 178.85 339 177.82 340.08 175.98 340.12 174.94 339.9 174.07 339.21 172.27 338.68 169.55 338.57 166.64 339.39 162.88 341.29 159.6 343.52 156.46 343.92 155.74 343.92 155.74 348.04 158.26 349.21 158.13 349.72 159.78 352.37 162.93 353.39 164.5 351.3 164.33 349.99 164.88 349.55 166.08 350.04 167.87 351.22 169.12 353.07 170.05 356.84 171.22 356.49 171.7 355.92 172.91 357.98 173.17 364.39 175.06 366.07 176.27 363.38 177.07 360.75 178.22 358.48 179.88 356.84 182.14 357.73 182.23 358.83 182.46 359.74 182.86 360.52 184.03 361.48 183.8 363.14 182.98 364.27 183.23 364.91 183.8 365.4 184.37 366.07 184.65 366.99 184.1 368.6 181.57 369.43 181.09 371.26 181.72 374.03 183.29 375.73 183.61 376.86 183.38 377.75 183 378.58 182.92 379.5 183.61 379.6 184.46 378.84 185.24 377.8 185.84 377.05 186.13 379.18 186.86 381.49 187.39 386.3 187.81 387.46 187.64 389.61 186.97 390.57 186.89 391.74 187.23 392.66 187.8 393.32 188.36 393.79 188.65 396.52 188.82 398.45 188.21 400.18 187.39 402.27 186.89 404.35 187.3 406.5 188.19 408.63 188.66 410.73 187.81 410.96 190.57 412.69 191.87 417.45 192.85 421.53 194.99 422.47 195.36 423.54 194.98 424.9 193.31 425.46 193.26 428.86 194.24 440.46 194.5 443.63 193.68 445.9 194.86 448.36 195.19 450.36 194.44 451.19 192.43 452.37 191.55 455.09 190.89 460.09 190.32 463.78 192.85 465.04 192.4 466.05 191.52 467.12 190.32 468.47 191.65 468.56 193.84 468.37 196.04 468.81 197.4 469.88 197.63 471.09 197.35 473.17 196.49 472.71 199.19 474.84 200.46 477.79 200.4 479.73 199.09 481.49 199.84 479.73 201.6 484.92 201.95 489.79 198.49 502.32 181.24 504.21 176.48 501.78 173.82 501.56 171.61 500.03 169.11 497.81 167.05 494.51 165.9 489.82 163.01 486.52 160.69 486 157.99 484.69 155.41 478.88 147.06 478.14 144.71 474.04 143.71 472.83 141.98 471.86 140.06 469.46 129.54 469.59 127.73 471.2 126.02 473.67 125.45 479.31 125.36 499.17 121.21 511.69 121.99 514.56 122.7 517.08 124.22 522.78 123.98 527 125.55 528.73 125.73 533.82 124.26 535 124.43 536.36 125.15 537.5 124.72 539.23 122.79 540.44 121.91 541.71 121.54 550.89 122.08 554.18 121.54 555.61 119.39 567.44 119.85 575.56 121.51 Z" id="PRK-3314" data-name="Ryanggang"/>
<path d="M 778.19 60.01 779.65 62.46 779.88 62.98 780.07 64.33 780.54 64.94 781.14 65.28 781.64 65.88 783.71 70.43 785.16 72.12 787.43 73.52 790.22 74.23 792.34 75.95 793.67 78.11 794.16 81.07 794.12 84.18 794.42 85.82 795.67 86.98 799 88.95 798.46 89.7 794.96 90.43 790.59 91.5 788.75 91.76 787.18 92.87 786.4 92.93 786.52 90.69 786.42 89.34 786.09 88.58 784.5 87.38 782.94 86.48 779.39 86.09 776.75 84.96 775.66 83.95 772.03 83.46 770.18 84.08 770.64 85.64 769.05 86.9 767.04 87.23 766.03 86.12 764.47 85.35 763.03 85.33 762.97 86.42 762.83 87.48 761.37 88.36 760.16 89.43 760.43 91.1 760.42 91.96 761.02 92.77 762.02 92.88 762.83 93.17 762.85 94.55 762.22 95.42 761.29 95.23 759.43 93.54 758.17 93.8 757.27 95.28 758.4 96.71 757.05 97.05 756.15 98.67 754.12 98.93 753.58 101.69 752.12 102.53 750.68 102.72 750.81 100.95 751.73 98.33 750.72 96.19 749.1 96.09 743.83 100 741.08 102.81 739.35 103.77 737.79 103.9 736.5 96.37 739.85 90.63 746.55 84.41 747.5 79.62 744.63 77.23 745.11 73.88 751.81 73.4 760.9 71.49 766.17 69.57 768.08 63.35 768.52 57.66 768.57 57.69 770.46 57 770.85 55.18 768.89 53.28 770.45 51.41 772.46 50.23 774.58 50.13 776.44 51.53 776.81 52.86 777.51 57.7 778.19 60.01 Z" id="PRK-5495" data-name="Rasŏn"/>
</g>
</svg>