<?xml version="1.0"?>
<svg xmlns="http://www.w3.org/2000/svg" version="1.2" baseProfile="tiny" width="800" height="68" viewBox="0 0 800 68" stroke-linecap="round" stroke-linejoin="round">
<g id="ne_10m_admin_1_states_provinces">
<path d="M 3.12 66 3.11 66 3.11 66 3.1 65.99 3.1 65.99 3.1 65.99 3.11 65.99 3.12 65.99 3.12 66 Z M 3.16 65.92 3.16 65.94 3.15 65.93 3.16 65.92 Z" fill-rule="evenodd" id="UMI-5171" data-name="Baker Island"/>
<path d="M 2.75 64.61 2.74 64.58 2.74 64.58 2.74 64.58 2.74 64.57 2.75 64.58 2.75 64.61 Z" id="UMI-5172" data-name="Howland Island"/>
<path d="M 41.27 67.32 41.27 67.32 41.31 67.31 41.31 67.33 41.28 67.35 41.27 67.32 Z" id="UMI-5173" data-name="Jarvis Island"/>
<path d="M 19.2 27.66 19.19 27.66 19.18 27.66 19.19 27.65 19.22 27.63 19.25 27.64 19.2 27.66 Z M 19.27 27.61 19.27 27.61 19.27 27.6 19.27 27.61 Z M 19.22 27.58 19.21 27.58 19.21 27.58 19.22 27.57 19.23 27.57 19.25 27.56 19.26 27.56 19.25 27.57 19.23 27.58 19.22 27.58 Z" fill-rule="evenodd" id="UMI-5174" data-name="Johnston Atoll"/>
<path d="M 1.15 1.02 1.13 1.03 1.14 1.01 1.15 1.02 1.16 1.02 1.15 1.02 Z M 1.02 1.04 1 1.04 1.01 1.02 1.03 1.01 1.05 1 1.07 1 1.06 1.02 1.04 1.03 1.02 1.04 Z" fill-rule="evenodd" id="UMI-5176" data-name="Midway Islands"/>
<path d="M 238.43 23.73 238.44 23.73 238.47 23.73 238.47 23.73 238.47 23.73 238.48 23.74 238.49 23.74 238.49 23.75 238.49 23.76 238.48 23.76 238.48 23.77 238.48 23.78 238.47 23.78 238.47 23.78 238.47 23.78 238.46 23.78 238.46 23.78 238.45 23.77 238.45 23.77 238.45 23.77 238.45 23.77 238.44 23.77 238.44 23.76 238.44 23.75 238.44 23.75 238.43 23.75 238.42 23.74 238.42 23.73 238.43 23.73 Z" id="UMI-5177" data-name="Navassa Island"/>
<path d="M 36.55 52.79 36.56 52.8 36.55 52.82 36.53 52.83 36.48 52.83 36.48 52.82 36.49 52.82 36.49 52.81 36.52 52.79 36.51 52.79 36.5 52.8 36.49 52.8 36.48 52.79 36.46 52.79 36.46 52.79 36.46 52.78 36.53 52.78 36.55 52.79 Z" id="UMI-5178" data-name="Palmyra Atoll"/>
<path d="M 798.92 21.72 798.95 21.72 798.97 21.71 798.97 21.69 798.96 21.67 798.99 21.68 799 21.72 798.98 21.74 798.92 21.72 Z" id="UMI-5179" data-name="Wake Atoll"/>
</g>
</svg>