<?xml version="1.0"?>
<svg xmlns="http://www.w3.org/2000/svg" version="1.2" baseProfile="tiny" width="800" height="679" viewBox="0 0 800 679" stroke-linecap="round" stroke-linejoin="round">
<g id="ne_10m_admin_1_states_provinces">
<path d="M 467.73 209.5 453.62 265.95 443.54 316.35 473.78 346.59 536.27 368.76 566.51 388.92 604.82 388.92 606.83 409.08 590.7 435.29 538.29 487.7 479.83 509.88 415.32 509.88 411.29 463.51 383.06 409.08 342.74 368.76 286.3 346.59 243.96 314.33 245.98 263.93 245.98 245.79 270.17 255.87 306.46 235.71 300.41 193.38 268.15 163.14 232.27 142.04 268.29 115.72 312.08 99.49 364.92 118.79 419.35 102.66 439.51 110.72 437.49 159.11 467.73 209.5 Z" id="SMR-4883" data-name="Borgo Maggiore"/>
<path d="M 415.32 509.88 403.22 558.26 370.97 588.5 306.46 588.5 274.2 570.36 274.2 546.16 268.15 519.96 175.42 489.72 102.85 481.65 33.4 484.26 1 434.76 94.78 425.21 165.34 407.07 215.74 384.89 245.98 356.67 243.96 314.33 286.3 346.59 342.74 368.76 383.06 409.08 411.29 463.51 415.32 509.88 Z" id="SMR-4884" data-name="San Marino"/>
<path d="M 243.96 314.33 245.98 356.67 215.74 384.89 165.34 407.07 94.78 425.21 1 434.76 75.93 256.31 191 172.21 232.27 142.04 268.15 163.14 300.41 193.38 306.46 235.71 270.17 255.87 245.98 245.79 245.98 263.93 243.96 314.33 Z" id="SMR-4885" data-name="Acquaviva"/>
<path d="M 786.62 131.97 723.76 153.06 653.2 171.2 590.7 229.66 532.24 167.17 467.73 209.5 437.49 159.11 439.51 110.72 419.35 102.66 364.92 118.79 312.08 99.49 506.99 27.27 722.52 1 775.05 71.68 786.62 131.97 Z" id="SMR-4886" data-name="Serravalle"/>
<path d="M 792.45 251.13 766.09 272 719.72 292.16 697.55 304.25 639.09 306.27 600.78 344.57 536.27 368.76 473.78 346.59 443.54 316.35 453.62 265.95 467.73 209.5 532.24 167.17 590.7 229.66 653.2 171.2 723.76 153.06 786.62 131.97 799 196.44 792.45 251.13 Z" id="SMR-4887" data-name="Domagnano"/>
<path d="M 729.48 399.88 722.52 409.46 703.21 425.3 691.62 444.61 645.13 441.34 616.91 449.4 590.7 435.29 606.83 409.08 604.82 388.92 566.51 388.92 536.27 368.76 600.78 344.57 639.09 306.27 697.55 304.25 719.72 292.16 766.09 272 792.45 251.13 783.55 325.45 729.5 399.85 729.48 399.88 Z" id="SMR-4888" data-name="Faetano"/>
<path d="M 691.62 444.61 687.64 468.27 693.57 490.79 589.75 617.6 580.62 564.31 586.67 517.94 594.74 489.72 612.88 467.54 616.91 449.4 645.13 441.34 691.62 444.61 Z" id="SMR-4889" data-name="Montegiardino"/>
<path d="M 616.91 449.4 612.88 467.54 594.74 489.72 586.67 517.94 580.62 564.31 589.75 617.6 560.3 653.58 416.84 668.4 401.21 618.74 370.97 588.5 403.22 558.26 415.32 509.88 479.83 509.88 538.29 487.7 590.7 435.29 616.91 449.4 Z" id="SMR-4890" data-name="Fiorentino"/>
<path d="M 370.97 588.5 401.21 618.74 416.84 668.4 328.54 677.52 266.18 654.22 105.29 594.09 33.4 484.26 102.85 481.65 175.42 489.72 268.15 519.96 274.2 546.16 274.2 570.36 306.46 588.5 370.97 588.5 Z" id="SMR-4891" data-name="Chiesanuova"/>
</g>
</svg>