<?xml version="1.0"?>
<svg xmlns="http://www.w3.org/2000/svg" version="1.2" baseProfile="tiny" width="800" height="509" viewBox="0 0 800 509" stroke-linecap="round" stroke-linejoin="round">
<g id="ne_10m_admin_1_states_provinces">
<path d="M 490.77 498.26 476.7 508.26 469.47 506.39 474.64 496.19 477.35 488.13 472.96 478.38 473.6 470.38 478.12 466.25 482.51 459.86 488.45 454.05 492.19 452.31 503.94 462.57 507.03 482.51 490.77 498.26 Z M 209.52 477.61 193.51 484.25 182.99 483.48 173.25 479.8 160.15 477.61 7.52 477.61 1 473.48 5.26 465.09 17.65 457.15 35.27 454.89 27.78 432.37 37.79 425.59 57.34 425.33 78.44 422.36 148.85 378.15 181.64 369.05 215.52 352.4 247.21 343.37 273.41 357.44 266.96 371.18 241.01 399.77 233.72 433.85 223.85 458.63 224.1 464.89 222.04 469.15 209.52 477.61 Z M 750.6 41.72 725.17 45.98 710.33 38.37 722.59 21.14 744.47 12.55 760.15 11.46 785.83 1.77 792.42 1 799 5.19 799 13.97 771.12 33.91 750.6 41.72 Z" fill-rule="evenodd" id="GGY+00?" data-name="Sark"/>
</g>
</svg>