<?xml version="1.0"?>
<svg xmlns="http://www.w3.org/2000/svg" version="1.2" baseProfile="tiny" width="800" height="304" viewBox="0 0 800 304" stroke-linecap="round" stroke-linejoin="round">
<g id="ne_10m_admin_1_states_provinces">
<path d="M 753.09 303.2 750.01 303.26 748.98 303.06 748.06 302.57 748.21 301.99 748.54 301.69 749.15 301.57 753.9 301.52 753.9 301.86 753.42 302.3 753.33 302.81 753.09 303.2 Z M 745.63 303.26 745.09 303.3 744.56 303.26 744.05 303.12 743.57 302.89 742.11 302.45 740.71 301.84 740.31 301.24 741.83 300.83 744.14 300.88 744.19 301.03 744.14 301.25 744.26 301.52 744.53 302.03 744.62 302.55 744.87 302.99 745.63 303.26 Z M 782.41 282.77 781.1 282.93 779.38 282.7 778.18 281.84 778.01 280.74 779.38 279.84 781.12 279.64 782.75 279.94 785.93 281.21 784.79 281.89 783.63 282.42 782.41 282.77 Z M 798.68 253.84 798.65 254.35 798.49 254.15 798.34 254.1 798.16 254.07 795.9 253.27 789.4 252.03 788.02 250.74 788.18 250.47 788.52 250.09 788.86 249.59 789.02 249.01 789.37 248.64 790.2 248.49 795.33 248.49 797.11 248.74 798.65 249.52 797.97 251.24 798.21 251.65 798.87 252.47 799 252.8 798.68 253.84 Z M 790.77 218.46 791.52 218.56 793.14 218.55 792.34 219.09 791.5 219.42 789.7 219.88 788.29 219.83 786.97 219.38 785.9 218.66 785.24 217.86 787.02 216.47 787.97 216.15 789.02 216.46 789.26 216.78 789.68 217.76 790.08 218.17 790.77 218.46 Z M 778.35 183.05 778.11 183.06 777.97 183.15 777.85 183.27 777.66 183.4 777.32 183.05 776.69 183.13 775.87 182.85 774.2 182.02 775.19 181.47 776.34 181.58 777.45 182.18 778.35 183.05 Z M 702.05 164.77 701.12 165.28 699.96 165.22 699.8 164.67 700.82 164.17 701.9 164.21 702.05 164.77 Z M 755.39 164.71 752.52 165.18 750.91 164.94 750.34 164.62 750.12 163.95 750.49 163.47 751.36 163.09 752.38 162.83 753.21 162.74 753.99 162.89 755.14 163.26 756.04 163.76 756.13 164.29 755.39 164.71 Z M 732.81 144.41 732.18 144.9 731.5 144.53 730.51 143.69 730.13 143.47 730.96 142.72 732 142.48 733.14 142.63 734.25 143.1 734.25 143.47 733.48 143.72 732.81 144.41 Z M 380.5 82.44 379.87 82.46 379.45 82.17 379.41 81.69 379.8 81.38 380.57 81.52 380.94 82.04 380.5 82.44 Z M 377.12 80.9 376.29 81.29 375.4 81.02 375.01 80.27 375.58 79.53 376.5 79.12 377.33 79.29 377.63 80.06 377.12 80.9 Z M 373.17 78.7 372.3 78.72 371.54 78.4 371.34 77.82 372.38 77.42 373.56 77.61 373.9 78.01 373.79 78.39 373.17 78.7 Z M 257.33 53.23 257.33 53.58 256.96 53.55 256.74 53.66 256.55 53.81 256.3 53.95 255.08 54.11 254.5 54.08 253.9 53.95 253.9 53.58 254.9 53.58 252.84 52.89 252.72 52.25 253.07 51.99 253.62 51.87 254.07 51.69 254.81 51.61 255.8 52.13 257.33 53.23 Z M 204.69 28.4 204.16 28.47 203.62 28.47 204.07 27.88 204.86 27.68 206.68 27.75 204.69 28.4 Z M 223.71 27.97 223.58 28.47 233.5 28.3 237.06 27.57 239.05 27.41 239.05 27.75 235.97 28.78 236.31 29.15 235.97 29.81 234.93 29.81 235.99 30.44 236.82 30.75 237.7 30.86 238.9 30.87 239.34 30.81 240.19 30.55 240.63 30.49 243.54 30.49 246.55 31.68 247.01 31.73 247.32 30.92 248.07 30.74 248.97 30.74 249.72 30.49 249.63 30 250.41 29.86 251.44 29.88 252.15 29.81 251.22 30.59 251.54 30.81 252.34 30.8 252.84 30.87 252.81 31.41 252.33 31.79 251.12 32.24 251.33 32.7 251.28 33.14 251.06 33.57 250.75 33.99 252.09 33.9 253.13 33.25 254.09 32.35 255.24 31.55 256.37 31.19 257.98 30.89 259.34 31.03 259.73 31.9 257.58 33.13 256.66 33.84 257.33 34.3 258.43 34.16 262.48 32.58 262.21 32.42 261.71 32.04 261.45 31.9 262.53 31.7 263.7 31.77 266.28 32.24 267.66 32.73 268 32.93 268.09 33.46 267.48 34.09 267.62 34.65 267.38 35.08 267.63 35.38 268.15 35.49 268.71 35.33 268.89 34.96 269.09 33.71 269.37 33.27 270.63 33 275.58 33.61 275.2 33.99 276.19 34.01 276.76 34.09 277.26 34.3 277.26 34.65 276.85 35.07 276.72 35.29 276.58 35.7 275.73 35.38 274.82 35.33 273.94 35.54 273.15 36.02 274.56 36.23 275.12 36.41 274.89 36.73 274.3 36.87 273.06 36.85 272.46 37.05 273.75 37.54 275.37 37.43 278.35 36.73 281.27 36.39 281.7 36.67 282.15 37.18 282.72 37.46 283.5 37.05 283.74 37.4 283.82 37.58 283.74 37.76 283.5 38.1 282.74 37.74 281.92 37.72 280.41 38.1 279.7 38.45 275.46 40.31 275.12 40.4 274.83 40.52 274.54 40.82 274.62 41.05 274.88 41.34 274.98 41.73 274.54 42.22 275.81 42.3 276.8 42.24 277.68 41.99 281.11 40.23 282.42 39.93 283.16 40.48 283.78 40.07 284.51 40.28 284.94 40.89 284.68 41.68 284.29 41.83 283.78 41.86 283.34 41.96 283.16 42.38 283.32 42.67 283.61 42.82 283.77 43.05 283.5 43.6 283.99 44.07 284.08 44.61 283.89 45.15 283.5 45.66 285.48 44.28 286.56 43.87 287.45 44.09 288.76 45.53 289.65 46.17 290.7 46.34 291.59 45.94 291.49 45.27 291 44.4 290.7 43.41 290.53 43.03 289.37 42.22 289.01 41.81 288.8 41.49 288.71 41.09 288.68 40.48 291.95 41.21 293.48 41.76 293.83 42.53 294.41 42.46 294.98 42.46 295.4 42.62 295.57 43.07 295.66 43.61 295.78 44.01 295.7 44.32 295.2 44.63 296.7 45.31 296.67 45.54 295.99 45.88 295.57 46.87 296.24 47.14 300.37 47.02 300.23 47.69 300.19 48.35 299.9 48.87 299 49.12 299.25 49.58 299.64 49.9 300.14 50.08 300.72 50.15 300.71 50.59 301.14 50.88 301.79 51.06 302.43 51.18 302.73 51.14 303.46 50.83 303.83 50.98 304.68 51.52 305.91 51.46 306.39 51.6 306.58 52.03 306.74 52.61 307.13 52.98 307.68 53.18 306.81 53.63 305.66 54.15 303.46 55.67 304.05 56 304.99 56.76 305.52 57.01 306.32 57.1 310.98 56.95 311.73 56.7 313.01 56.02 313.61 55.85 314.16 55.98 313.96 56.54 313.1 58.07 311.93 59.32 311.73 59.44 312.92 61.69 313.08 62.82 311.73 62.91 312.78 64.23 314.96 65.31 317.42 66.05 319.34 66.34 319.34 66.71 318.69 66.81 318 67.08 317.44 67.45 317.22 67.86 316.78 68.02 315.8 67.97 314.16 67.7 313.15 68.72 311.65 68.99 310.01 68.79 308.64 68.39 306.14 67.28 304.7 66.81 303.15 66.71 303.64 67.24 304.28 67.65 304.98 67.92 305.69 68.02 306.33 68.19 307.34 69.04 307.95 69.42 308.49 69.6 309.04 69.69 310.36 69.73 310.84 69.88 311.82 70.57 312.42 70.79 312.42 71.11 311.86 71.15 311.32 71.13 310.82 71.02 310.36 70.79 310.46 71.03 310.6 71.59 310.7 71.82 309.24 71.85 308.69 71.65 308.3 71.11 308.11 71.77 308.12 72.04 308.3 72.48 307.66 72.49 306.6 72.24 306.04 72.17 305.73 72.31 305.35 72.62 304.85 72.87 303.38 72.88 302.67 72.73 302.1 72.38 301.74 71.82 302.21 71.79 302.52 71.71 303.15 71.45 301.09 70.79 298.83 69.05 297.86 68.81 296.69 68.24 294.85 67.02 294.78 66.3 294.25 66.4 293.48 65.65 293.67 64.89 293.23 64.01 292.8 62.97 291.09 61.16 287.3 58.1 286.6 57.72 285.96 57.67 285.16 57.51 284.48 57.24 284.19 56.85 284.35 56.3 285.07 55.69 285.22 55.29 284.66 54.61 283.42 53.94 282.1 53.44 281.27 53.23 279.85 53.24 279.32 53.39 278.31 54.1 277.61 54.21 276.88 54.16 276.26 53.95 275.41 53.35 274.83 52.77 274.11 52.25 269.02 50.83 268.67 50.81 268.2 50.86 267.79 50.84 267.62 50.64 267.68 50.42 267.93 49.85 268 49.77 268 49.52 268.27 49.15 268.34 48.93 268.28 48.55 268.13 48.52 267.9 48.57 267.62 48.43 266.88 47.88 265.92 47.56 264.87 47.4 263.85 47.37 264.22 47.02 263.2 46.71 263.49 46.2 263.97 45.97 264.57 45.93 265.26 46 264.05 45.18 262.09 45.15 258.17 45.66 257.52 45.54 255.58 44.93 254.57 44.45 254.1 44.15 253.9 43.94 253.94 43.6 254.17 43.13 254.21 42.72 253.73 42.53 253.07 42.41 252.27 42.11 251.5 41.72 250.94 41.35 250.54 41.22 249.59 41.43 249.05 41.35 248.19 41 247.01 40.82 246.11 40.87 244.66 41.38 241.6 41.59 240.65 41.79 239.74 42.22 239.44 41.87 239.02 41.68 238.54 41.65 238.02 41.85 237.46 41.11 237.66 40.77 241.43 39.82 242.2 39.79 241.23 39.03 238.43 38.38 237.68 37.42 239.77 37.45 242.1 37.01 246.32 35.7 245.07 35.37 240.48 35.38 238.74 35.7 238.1 35.57 236.92 35.09 236.32 34.99 231.66 34.99 230.44 35.2 230 35.66 230.35 36.14 231.48 36.39 230.55 36.62 226.6 37.1 224.64 36.98 223.58 37.05 223.82 36.82 224.05 36.53 224.27 36.39 223.6 36.13 221.84 34.99 223.66 34.33 224.57 33.87 225.3 33.27 224.49 33.11 222.75 33.22 221.84 32.93 225.01 31.96 226.51 31.25 227.36 30.18 221.33 30.18 218.4 30.49 217.65 30.35 216.58 29.9 216 29.81 213.19 30.45 211.62 30.57 210.32 30 209.34 29.69 207.38 30.89 206.37 30.87 206.49 30.39 206.72 29.93 207.12 29.59 207.74 29.47 207.49 29.07 207.26 28.84 206.92 28.76 206.37 28.78 207.2 28.49 209.79 28.47 212.39 27.83 213.43 27.75 214.5 27.91 216.17 28.62 217.03 28.78 218.1 28.68 219.21 28.4 220.26 27.97 221.15 27.41 221.14 26.94 222.23 26.9 223.63 27.12 224.58 27.41 224.12 27.53 223.86 27.68 223.71 27.97 Z M 20.89 7.1 20.36 7.9 19.28 7.65 18.91 6.86 19.28 6.2 20.18 6.19 20.89 7.1 Z M 2.98 2.89 2.08 2.94 1.3 2.52 1 1.74 1.37 1.07 2.17 1 3.01 1.9 2.98 2.89 Z" fill-rule="evenodd" id="SGS+00?" data-name="South Georgia and the South Sandwich Islands"/>
</g>
</svg>