<?xml version="1.0"?>
<svg xmlns="http://www.w3.org/2000/svg" version="1.2" baseProfile="tiny" width="800" height="467" viewBox="0 0 800 467" stroke-linecap="round" stroke-linejoin="round">
<g id="ne_10m_admin_1_states_provinces">
<path d="M 689.41 39.39 690.91 38.68 692.93 36.5 693.13 37.11 691.12 40.96 686.58 43.74 681.29 45.84 663.52 47.3 656.03 53.54 664.07 59.87 664.51 62.24 665.36 64.45 669.4 66.79 677.85 73.76 677.57 77.47 674.33 81.14 671.56 85.78 666.98 88.64 644.8 96.82 637.06 102.03 623.31 107.65 617.36 108.18 614.84 108.82 612.5 109.92 607.5 110.97 596.1 110.57 590.31 112.09 580.68 112.54 578.72 113.18 576.44 115.87 573.19 117.25 569.57 117.58 562.49 117.18 556.45 121.48 549.29 122.85 541.68 122.84 535.84 124.85 530.79 125.48 525.08 125.44 522.2 126.84 519.56 128.73 508.42 132.59 505.51 133.12 502.44 132.92 499.98 134.08 498.63 136.77 496.57 138.22 494.16 138.95 488.17 139.61 463.02 137.28 462.32 136.78 461.8 136.07 460.56 135.56 459.19 135.38 456.03 135.97 453.98 138.43 451.68 139.58 448.93 140 447.74 132.72 443.63 126.47 439.19 124.6 430.1 123.18 421.58 120.11 415.48 118.9 413.97 118.86 412.1 118.38 410.86 117.31 408.45 114.58 406.47 111.16 399.58 103.14 411.34 90.13 414.16 88.31 417.49 87.06 423.92 87.32 428.42 86.14 428.58 84.85 429.54 83.97 430.79 81.7 432.24 80.83 433.2 79.77 433.2 78.44 433.52 77.15 429.54 76.51 421.65 76.89 418.82 76.07 420.37 72.93 418.29 71.27 414.2 70.95 410.36 69.61 407.69 67.02 406.24 63.59 406.03 62.03 407.3 60.92 410.78 58.85 412.02 57.56 412.92 56.1 412.08 54.1 410.45 52.4 408.7 49.35 409.25 46.63 411.18 45.34 418.27 45.88 420.13 45.74 420.13 46.33 419.39 46.75 418.82 47.46 418.5 48.42 418.45 49.6 419.51 48.98 420.93 46.81 421.47 46.33 421.97 46.03 423.99 44.11 426 43 427.02 42.63 428.04 42.48 434.24 40.18 435.54 39.87 438.68 39.62 443.83 37.39 444.91 37.14 446.06 37.04 446.75 36.62 447.18 35.75 447.79 34.96 449.05 34.81 448.9 34.46 448.7 33.59 448.56 33.23 449.43 33.28 449.76 33.18 466.2 33.69 497.05 34.66 520.05 35.37 543.05 36.08 571.55 36.97 606.06 38.04 628.22 38.73 650.38 39.41 668.96 39.99 683.93 40.46 689.41 39.39 Z" id="POL-3139" data-name="Warmian-Masurian"/>
<path d="M 437.91 31.39 439.6 32.2 443.55 32.99 449.76 33.18 449.43 33.28 448.56 33.23 448.7 33.59 448.9 34.46 449.05 34.81 447.79 34.96 447.18 35.75 446.75 36.62 446.06 37.04 444.91 37.14 443.83 37.39 438.68 39.62 435.54 39.87 434.24 40.18 428.04 42.48 427.02 42.63 426 43 423.99 44.11 421.97 46.03 421.47 46.33 420.93 46.81 419.51 48.98 418.45 49.6 418.5 48.42 418.82 47.46 419.39 46.75 420.13 46.33 420.13 45.74 418.27 45.88 411.18 45.34 409.25 46.63 408.7 49.35 410.45 52.4 412.08 54.1 412.92 56.1 412.02 57.56 410.78 58.85 407.3 60.92 406.03 62.03 406.24 63.59 407.69 67.02 410.36 69.61 414.2 70.95 418.29 71.27 420.37 72.93 418.82 76.07 421.65 76.89 429.54 76.51 433.52 77.15 433.2 78.44 433.2 79.77 432.24 80.83 430.79 81.7 429.54 83.97 428.58 84.85 428.42 86.14 423.92 87.32 417.49 87.06 414.16 88.31 411.34 90.13 399.58 103.14 395.27 104.28 386.19 104.6 381.85 103.58 379.38 102.63 374.14 99.41 372.85 98.91 371.77 98.14 370.2 97.62 363.71 97.07 359.12 98.05 356.15 99.21 349.37 96.81 335.04 95.39 332.43 93.92 330.08 92.13 327.28 91.98 313.79 93.18 303.67 92.01 301.52 93 298.28 96.54 292.81 97.75 290.25 99.17 289.81 100.2 289.49 101.34 289.45 103.03 284.48 104.22 273.44 102.5 270.5 102.69 268.28 104.52 266.34 107.04 263.94 112.05 261.71 112.87 258.17 110.34 253.91 108.94 237.7 108.54 233.04 106.85 229.74 103.38 225.91 100.57 224.52 91.93 227.84 89.91 230.21 87.42 229.32 85.73 227.95 84.38 226.35 83.93 226.26 82.36 230.26 81.25 234.67 81.6 233.16 79.7 231.32 78.14 229.08 76.96 226.07 73.35 224.15 72 220.76 70.56 220.74 66.18 220.11 61.79 215.04 52.73 226.15 51.12 227.41 49.98 227.11 48 225.6 46.77 224.73 45.62 225.31 44.2 227.41 42.93 228.26 40.79 227.69 36.98 225.22 34.05 218.66 28.51 213.12 22.01 212.97 21.84 212.96 21.84 218.89 20.46 222.28 20.13 225.29 19.5 232.92 14.64 256.94 8.11 287.07 4.81 300.59 2.13 321.85 1 334.96 1 336.76 1.39 339.65 2.85 340.71 3.17 342.39 3.39 369.59 12.81 374.55 16.54 375.35 17.41 376.17 18.65 376.25 19.74 374.84 20.13 374.49 19.86 374.1 19.28 373.61 18.7 372.16 18.11 371.19 16.61 369.88 15.64 366.09 11.92 365.35 11.71 362.56 11.38 361.85 11.21 361.09 10.46 358.84 10.01 354.08 8.11 349.4 6.81 348.65 6.19 346.06 5.03 345.38 4.85 344.41 5.1 343.9 5.51 342.77 7.79 342.62 8.31 342.62 9.47 343.05 9.77 344.95 10.27 345.38 10.56 346.34 11.54 347.51 13.01 347.46 13.62 347.16 14.14 347.18 14.67 348.1 15.23 347.62 16.79 348.53 17.45 350.05 17.27 351.37 16.27 350.9 17.6 351.54 18.65 352.54 19.55 354.55 23.17 355.17 23.94 354.86 25.76 354.92 28.91 355.44 31.9 356.55 33.23 357.81 33.47 360.24 34.56 361.48 34.81 362.55 34.88 363.88 35.12 365.02 35.55 365.51 36.24 366.85 37.34 380.28 39.88 383.25 40.01 385.73 39.21 386.41 39.61 387.34 39.91 389.53 40.3 419.41 37.69 426 35.83 429.13 35.4 431.66 34.72 436.56 31.74 437.91 31.39 Z" id="POL-3140" data-name="Pomeranian"/>
<path d="M 179.98 247.04 186.94 246.21 190.17 246.74 199.15 249.77 200.56 251.78 200.83 254.37 204.27 258.16 212 260.84 216.35 263.84 225.53 265.88 241.98 264.07 245 259.8 248.33 259.37 257.69 259.4 266.49 260.9 274.4 264.1 273.61 266.39 272.51 268.35 270.57 269.15 269.51 270.85 269.95 274.29 271.8 277.21 276.51 277.9 281.39 277.29 284.42 277.81 287.29 279.26 285.04 282.61 285.95 290.78 286.99 294.75 284.34 295.76 281.57 296.2 278.84 296.07 276.24 296.62 274.18 298.02 269.54 304.74 268.7 306.68 268.19 308.75 266.91 311.17 264.38 312.23 260.6 315.33 257.75 319.51 251.11 325.74 245.39 332.66 243.56 337.13 240.69 340.26 235.87 340.77 231.69 342.81 225.95 351.94 225.61 352.88 225.61 352.88 223.36 352.02 221.54 351.87 219.38 352.71 219.39 353.83 221.94 356.23 222.85 357.69 223.44 359.39 224.22 360.93 225.71 361.91 227.65 362.64 229.1 363.66 229.94 365.09 230.06 367.03 231.09 367.91 231.25 368.96 230.74 369.63 229.78 369.4 228.93 368.58 228.56 368.1 228.08 367.89 226.91 367.88 226.69 368.1 226.71 369.06 226.51 369.35 225.79 369.39 224.32 369.05 223.62 369.07 222.66 369.49 221.34 370.67 220.59 371.1 219.7 371.25 219.7 371.25 218.73 371.4 217.13 371.33 215.55 371.48 213.77 372.47 212.33 373.86 211.47 374.94 210.5 375.82 208.73 376.64 206.27 378.8 203.04 378.95 199.7 377.83 196.96 376.21 195.56 375.03 194.81 374.03 193.9 371.32 193.04 369.81 190.63 368.2 189.61 367.03 188.46 366.02 186.44 363.66 185.29 362.63 183.52 361.83 179.97 361 178.56 359.79 178.35 359.1 178.42 358.37 178.36 357.63 177.8 356.89 177.04 356.74 173.41 356.74 172.48 356.93 171.92 357.25 171.33 357.33 170.31 356.81 169.93 356.34 168.9 354.29 166.32 354 165.57 352.57 166.19 351.31 167.78 351.54 167.63 351.3 167.25 350.41 167.73 350.38 168.47 350.09 168.9 349.98 170.13 349.32 171.53 348.79 172.72 348.14 173.34 347.11 174.59 346.85 177.14 347.3 178.51 347.11 179.26 346.44 180.9 345.4 181.58 344.8 181.36 344.84 181.35 344.37 181.46 343.76 181.58 343.35 181.93 342.89 182.15 342.67 182.15 342.41 181.84 341.81 184.35 341.15 183.62 339.63 176.84 335.06 174.39 334.18 171.79 333.76 168.9 333.72 167.87 333.86 167.29 334.66 166.71 335.67 165.74 336.45 164.4 336.65 163.19 336.29 160.67 335.06 157.31 334.84 152.37 337.88 148.99 338.28 148.83 338.04 148.77 337.79 148.83 337.53 148.99 337.28 150.13 336.68 150.32 335.74 149.88 334.64 149.19 333.56 148.15 332.31 147.08 331.65 145.76 331.53 141.05 332.66 138.84 332.7 138.33 332.58 134.3 328.23 134.05 327.75 133.88 327.2 131.9 327.08 125.28 328.1 124.44 327.93 123.86 327.57 122.8 326.55 121.9 326.16 112.36 324.04 105.96 322.62 102.65 322.8 101.9 323.38 101.15 324.23 100.27 324.82 100.13 324.79 99.14 324.59 98.63 323.94 98.69 323.18 98.92 322.38 98.89 321.61 97.94 320.11 96.73 319.48 95.29 319.08 93.7 318.27 92.85 317.4 91.91 316.09 91.17 314.68 90.93 313.55 91.49 312.09 92.18 311.25 92.27 310.48 90.99 309.18 88.87 308.51 84.33 308.46 83.58 307.3 83.21 306.09 82.28 305.79 81.25 306.25 80.53 307.29 80.53 307.3 80.27 308.11 79.37 308.22 78.25 307.87 77.32 307.29 76.64 306.5 72.61 305.94 71.09 305.06 70.87 305.72 70.5 306.09 69.35 306.62 68.9 306.68 68.44 306.81 68.04 307.02 67.68 307.3 67.67 307.3 68.01 308.2 69.3 308.84 70.51 309.96 70.6 312.27 70.35 312.68 69.57 313.23 69.35 313.51 69.27 313.95 69.32 314.26 69.41 314.48 69.51 317.25 69.35 317.94 60.25 317.51 57.37 318.02 55.68 317.98 55.68 316.5 56.81 315.33 59.64 313.33 63.66 307.3 67.22 301.61 67.45 300.7 67.47 299.16 67.61 298.38 68.04 297.83 68.66 297.46 69.18 296.93 69.35 295.91 69.44 293.89 70.09 291.66 71.17 289.54 72.53 287.85 72.2 287.63 71.92 287.38 72.33 285.07 71.17 283.51 69.36 282.18 67.89 280.55 67.67 280.01 67.32 278.58 67.32 278.5 66.85 275.13 68.34 274.57 81.09 270.42 83.38 270.39 88.07 272.93 90.39 273.05 94.41 268.71 97.06 266.73 102.9 265.47 114.1 269.32 119.73 268.45 128.55 261.19 136.39 251.66 138.1 250.87 140.9 250.3 143.29 248.79 144.46 246.73 146.03 245.39 158.11 246.79 160.23 248.21 160.5 250.97 164.92 254.48 171.22 253.6 176.08 250.96 179.98 247.04 Z" id="POL-3141" data-name="Lower Silesian"/>
<path d="M 225.91 100.57 222.93 100.01 219.89 100.06 217.05 100.81 214.95 102.98 213.41 105.6 211.38 110.68 208.97 110.96 194.31 110.73 192.52 112.25 192.6 115.42 193.84 118.26 198.83 121.17 204.84 122.09 207.8 123.02 210.28 124.92 210.79 127.21 208.34 129.03 206.46 131.03 204.16 132.34 198.29 133.44 186.76 137.48 180.31 143.57 172.63 147.96 167.74 149.11 162.77 149.52 157.9 147.76 153.49 146.88 154.94 143.1 152.84 139.2 148.84 138.66 144.51 139.03 140.33 141.02 133.19 146.53 129.17 148.3 112.75 148.27 99.25 151.07 94.75 151.21 96.32 152.51 98.5 152.73 95.48 156.21 90.59 159.64 86.37 160 73.15 157.35 65.36 159.96 60.29 166.68 54.05 172.02 50.02 173.05 43.25 173.71 41.5 175.3 39.55 179.56 34.93 176.39 30.17 175.24 27.88 173.34 26.36 172.91 25.53 172.42 22.81 169.15 21.57 168.27 13.11 164.48 10.94 163.78 8.33 161.91 6.74 161.49 4.97 161.41 3.3 161.09 1.91 160.43 1 159.31 3.12 158.2 3.94 157.23 4.27 155.73 4.09 154.73 3.12 151.91 2.64 151.1 2.64 150.61 6.49 148.88 11.34 147.35 16.03 145.09 18.48 143.54 19.55 142.11 19.77 141.44 22.16 136.93 21.99 135.78 21.51 134.65 21.23 133.36 21.45 132.3 22.02 131.32 22.81 130.61 23.65 130.34 24.23 129.82 26.3 127.36 25.27 126.78 24.95 126.34 23.74 125.72 23.25 125.21 23 124.43 22.95 122.99 22.83 122.31 22.29 120.81 20.62 116.17 19.79 112.05 18.12 110.36 17.29 108.7 15.36 106.91 14.78 105.27 14.72 103.51 14.94 100.59 14.79 99.81 13.12 96.71 11.92 95.15 12.24 93.91 12.15 91.67 12.15 91.67 12.15 91.67 12.93 91.61 14.36 91.24 15.41 90.66 15.51 90.02 14.11 89.44 14.89 89.16 15.15 88.89 14.89 88.62 14.11 88.35 14.56 87.75 15.35 88.17 16.46 88.5 17.45 88.94 18.37 90.48 19.5 90.99 21.68 91.61 23.27 92.63 24.15 93.07 27.66 93.43 31.94 94.34 33.42 95.03 34.64 96.06 37.25 99.05 38.17 99.76 38.59 99.52 38.68 98.25 39.04 97.51 39.72 97.02 40.81 96.5 40.75 96.2 40.74 95.89 40.81 95.42 39.96 95.27 37.92 95.16 37 94.88 34.53 91.34 35.05 89.58 37 86.13 37.92 86.61 38.71 86.47 39.57 86.17 40.81 86.13 40.25 84.12 40.54 82.52 41.09 81.09 41.36 79.6 40.81 79.6 40.62 80.55 40 81.18 38.09 82.32 38.59 82.86 37.89 82.69 37.33 82.48 36.88 82.18 36.46 81.77 36.87 81.54 37.58 80.97 38.09 80.69 37 79.33 35.1 78.7 26.27 78.15 25.02 77.34 26.03 75.79 25.77 75.63 25.7 75.61 25.68 75.54 25.53 75.24 24.74 76.04 24.12 76.16 23.45 75.94 22.5 75.79 21.8 75.95 21.26 76.35 20.73 76.86 20.05 77.38 22.42 77.65 23.72 78 24.39 78.51 24.24 79.48 23.41 80.18 22.4 80.46 21.68 80.14 19.5 80.95 18.42 81.16 17.28 81.23 17.28 81.77 18.37 82.03 18.31 82.19 17.28 82.32 16.53 82.25 15.27 81.86 14.34 81.77 13.01 81.25 9.18 77.97 7.31 77.46 7.13 77.47 7.12 77.47 6.48 76.23 5.09 75.22 5.85 75.09 6.51 74.82 7.86 72.67 9.18 73.02 10.04 73.45 12.48 74 20.36 74.38 23.53 74 26.62 73.02 32.33 70.54 53.41 65.01 71.58 62.21 93.74 56.71 108.09 54.46 123.8 51.97 139.25 47.86 152.08 46.92 160.9 45.19 159.89 45.79 155.95 46.82 157.68 47.54 164.7 46.82 164.7 46.33 164.15 46.33 164.15 45.74 167.95 45.74 167.91 45.35 167.83 45.28 167.68 45.31 167.41 45.19 167.56 43.91 165.73 43.85 161.39 44.65 164.13 43.86 167.43 42.59 172.36 39.21 171.36 40.4 169.58 41.48 168.88 42.08 169.61 41.92 171.06 41.75 172.32 41.45 173.43 40.67 176.22 39.9 177.25 39.21 176.3 38.05 174.72 38.02 174.02 38.52 172.85 39.21 176.23 35.81 185.45 28.88 185.45 29.37 185.02 30.15 185.83 30.35 187.11 30.06 188.13 29.37 188.63 28.3 188.17 27.97 187.14 28.23 185.95 28.88 187.58 26.98 190.35 25.36 195.79 23.39 212.43 21.96 212.96 21.84 212.97 21.84 213.12 22.01 218.66 28.51 225.22 34.05 227.69 36.98 228.26 40.79 227.41 42.93 225.31 44.2 224.73 45.62 225.6 46.77 227.11 48 227.41 49.98 226.15 51.12 215.04 52.73 220.11 61.79 220.74 66.18 220.76 70.56 224.15 72 226.07 73.35 229.08 76.96 231.32 78.14 233.16 79.7 234.67 81.6 230.26 81.25 226.26 82.36 226.35 83.93 227.95 84.38 229.32 85.73 230.21 87.42 227.84 89.91 224.52 91.93 225.91 100.57 Z" id="POL-3142" data-name="West Pomeranian"/>
<path d="M 153.49 146.88 151.9 151.47 152.17 156.55 144.42 162.58 146.87 163.96 148.58 167.88 147.81 169.13 146.27 169.74 138.73 171.18 137.52 171.1 136.97 171.84 136.89 173.63 136.54 175.32 136.85 179.77 139.66 184.47 140.63 187.25 141.26 190.16 141.25 192.55 139.11 192.55 137.41 193.27 140.79 196.94 142.38 199.31 142.55 204.21 139.97 208.9 139.56 210.05 139.38 211.26 138.46 213.6 138.41 216.29 139.04 218.8 140.91 220.5 143.09 221.9 147.48 223.34 148.9 225.82 150.74 227.89 153.56 229.64 156.53 229.67 157.91 229.31 159.22 229.82 159.35 231.41 158.62 232.95 158.26 235.69 159.44 237.82 162.86 239.27 166.47 240.01 172.3 237.56 177.5 241.11 179.98 247.04 176.08 250.96 171.22 253.6 164.92 254.48 160.5 250.97 160.23 248.21 158.11 246.79 146.03 245.39 144.46 246.73 143.29 248.79 140.9 250.3 138.1 250.87 136.39 251.66 128.55 261.19 119.73 268.45 114.1 269.32 102.9 265.47 97.06 266.73 94.41 268.71 90.39 273.05 88.07 272.93 83.38 270.39 81.09 270.42 68.34 274.57 66.85 275.13 66.55 273.03 67.22 272.03 66.4 270.93 64.93 269.97 63.68 269.36 61.88 268.82 58.14 268.13 56.33 267.48 56.33 267.47 54.65 266.72 49.44 265.63 47.68 264.48 47.42 263.64 47.25 263.06 47.9 261.52 49.44 259.99 50.38 258.39 50.25 256.3 49.47 254.28 48.44 252.9 44.57 250.9 42.78 249.59 41.95 247.56 41.64 245.46 40.54 244.54 39.1 243.92 37.79 242.68 37.55 241 38.59 239.61 43.16 236.73 44.63 235.52 45.85 234.08 46.53 232.52 46.81 227.66 47.24 226.89 48.96 224.96 49.3 224.2 49.44 223.47 49.7 222.76 50.31 222.08 51.77 220.96 46.6 218.57 45.8 217.42 46.28 215.36 47.14 213.91 47.44 212.77 46.29 211.66 46.29 211.17 47.85 209.9 47.87 208.27 46.64 206.87 44.41 206.28 42.14 205.95 39.44 205.1 37.66 203.87 38.13 202.42 36.46 200.1 34.57 196.63 34.12 193.46 38.25 191.24 40.17 189.37 41.49 187.5 41.12 186.65 39.64 185.82 40.26 183.97 42.49 181.11 40.01 179.87 39.55 179.56 41.5 175.3 43.25 173.71 50.02 173.05 54.05 172.02 60.29 166.68 65.36 159.96 73.15 157.35 86.37 160 90.59 159.64 95.48 156.21 98.5 152.73 96.32 152.51 94.75 151.21 99.25 151.07 112.75 148.27 129.17 148.3 133.19 146.53 140.33 141.02 144.51 139.03 148.84 138.66 152.84 139.2 154.94 143.1 153.49 146.88 Z" id="POL-3143" data-name="Lubusz"/>
<path d="M 225.91 100.57 229.74 103.38 233.04 106.85 237.7 108.54 253.91 108.94 258.17 110.34 261.71 112.87 259.5 115.8 253.76 120.31 254.68 122.7 261.44 125.86 265.28 131.05 258 134.74 258.69 138.11 261.16 140.97 260.04 145.93 256.46 150.9 262.93 152.31 268.98 155.05 272.88 160.25 271.17 165.88 270.23 166.97 268.94 167.25 267.52 167.2 266.18 167.82 265.64 169.88 268.51 171.55 269.76 173.42 271.35 174.97 274.58 175.35 277.78 174.7 279.17 173.93 281.66 175.2 282.35 176.27 282.7 177.59 283.32 178.07 284.22 178.39 289.3 179.43 294.84 179.62 300.84 181.6 308.99 186.15 311.83 187.05 314.78 187.17 317.47 187.84 319.77 189.6 322.35 191.08 330.42 192.38 333.14 191.63 337.78 188.31 339.31 188.56 340.45 189.05 341.07 190.51 342.05 191.79 343.56 193.17 345.48 193.54 346.68 193.11 347.45 192.22 348.91 191.84 350.45 191.74 353.21 192.53 355.6 194.25 368.78 200.86 370.96 203.88 373.82 203.74 382.17 201.58 384.99 201.34 392.57 204.89 392.7 207.45 394.23 209.45 395.41 209.66 395.62 210.43 390.69 213.34 382.75 215.43 381.92 217.66 381.18 222.64 377.15 225.58 371.81 226.35 369.07 226.16 366.55 226.29 365.45 228.74 364.88 231.46 365.78 234.26 367.28 236.83 366.96 239.33 363.13 243.52 362.22 244.13 350.69 243.35 346.13 244.69 344.07 246.43 340.37 251.92 338.32 256.78 337.92 262.06 338.71 266.42 338.85 270.66 336.62 274.45 332.84 276.15 328.5 274.81 324.52 275.56 323.2 278.06 321.2 280.04 315.37 280.85 314.09 282.62 314.31 285.2 315.8 287.4 320.36 289.96 321.17 292.15 321.68 295.87 312.57 299.29 303.14 301.47 298.07 301.29 293.88 299.16 293.43 297.22 292.37 295.5 289.74 294.65 286.99 294.75 285.95 290.78 285.04 282.61 287.29 279.26 284.42 277.81 281.39 277.29 276.51 277.9 271.8 277.21 269.95 274.29 269.51 270.85 270.57 269.15 272.51 268.35 273.61 266.39 274.4 264.1 266.49 260.9 257.69 259.4 248.33 259.37 245 259.8 241.98 264.07 225.53 265.88 216.35 263.84 212 260.84 204.27 258.16 200.83 254.37 200.56 251.78 199.15 249.77 190.17 246.74 186.94 246.21 179.98 247.04 177.5 241.11 172.3 237.56 166.47 240.01 162.86 239.27 159.44 237.82 158.26 235.69 158.62 232.95 159.35 231.41 159.22 229.82 157.91 229.31 156.53 229.67 153.56 229.64 150.74 227.89 148.9 225.82 147.48 223.34 143.09 221.9 140.91 220.5 139.04 218.8 138.41 216.29 138.46 213.6 139.38 211.26 139.56 210.05 139.97 208.9 142.55 204.21 142.38 199.31 140.79 196.94 137.41 193.27 139.11 192.55 141.25 192.55 141.26 190.16 140.63 187.25 139.66 184.47 136.85 179.77 136.54 175.32 136.89 173.63 136.97 171.84 137.52 171.1 138.73 171.18 146.27 169.74 147.81 169.13 148.58 167.88 146.87 163.96 144.42 162.58 152.17 156.55 151.9 151.47 153.49 146.88 157.9 147.76 162.77 149.52 167.74 149.11 172.63 147.96 180.31 143.57 186.76 137.48 198.29 133.44 204.16 132.34 206.46 131.03 208.34 129.03 210.79 127.21 210.28 124.92 207.8 123.02 204.84 122.09 198.83 121.17 193.84 118.26 192.6 115.42 192.52 112.25 194.31 110.73 208.97 110.96 211.38 110.68 213.41 105.6 214.95 102.98 217.05 100.81 219.89 100.06 222.93 100.01 225.91 100.57 Z" id="POL-3144" data-name="Greater Poland"/>
<path d="M 399.58 103.14 406.47 111.16 408.45 114.58 410.86 117.31 412.1 118.38 413.97 118.86 415.48 118.9 421.58 120.11 430.1 123.18 439.19 124.6 443.63 126.47 447.74 132.72 448.93 140 445.11 141.86 441.03 143.02 441.5 144.52 441.57 146.09 442.21 148.44 441.98 150.01 441.56 151.56 440.8 152.92 439.28 152.81 437.81 152.18 436.27 151.79 434.58 152.77 433.09 154.13 429.77 155.82 425.87 155.51 427.11 158.78 426.7 161.72 425.12 162.79 424.44 164.4 425.32 166.06 426.65 167.57 428.95 170.93 429.02 173.57 425.6 174.12 420.24 183.62 418.13 186.25 417.71 189.31 419.34 190.33 419.67 191.81 413.78 197.75 413.46 199.09 412.93 200.45 411.37 200.41 409.85 200.58 408.87 201.48 408.13 202.38 405.12 202.94 395.29 203.06 393.9 203.53 393.32 204.28 392.57 204.89 384.99 201.34 382.17 201.58 373.82 203.74 370.96 203.88 368.78 200.86 355.6 194.25 353.21 192.53 350.45 191.74 348.91 191.84 347.45 192.22 346.68 193.11 345.48 193.54 343.56 193.17 342.05 191.79 341.07 190.51 340.45 189.05 339.31 188.56 337.78 188.31 333.14 191.63 330.42 192.38 322.35 191.08 319.77 189.6 317.47 187.84 314.78 187.17 311.83 187.05 308.99 186.15 300.84 181.6 294.84 179.62 289.3 179.43 284.22 178.39 283.32 178.07 282.7 177.59 282.35 176.27 281.66 175.2 279.17 173.93 277.78 174.7 274.58 175.35 271.35 174.97 269.76 173.42 268.51 171.55 265.64 169.88 266.18 167.82 267.52 167.2 268.94 167.25 270.23 166.97 271.17 165.88 272.88 160.25 268.98 155.05 262.93 152.31 256.46 150.9 260.04 145.93 261.16 140.97 258.69 138.11 258 134.74 265.28 131.05 261.44 125.86 254.68 122.7 253.76 120.31 259.5 115.8 261.71 112.87 263.94 112.05 266.34 107.04 268.28 104.52 270.5 102.69 273.44 102.5 284.48 104.22 289.45 103.03 289.49 101.34 289.81 100.2 290.25 99.17 292.81 97.75 298.28 96.54 301.52 93 303.67 92.01 313.79 93.18 327.28 91.98 330.08 92.13 332.43 93.92 335.04 95.39 349.37 96.81 356.15 99.21 359.12 98.05 363.71 97.07 370.2 97.62 371.77 98.14 372.85 98.91 374.14 99.41 379.38 102.63 381.85 103.58 386.19 104.6 395.27 104.28 399.58 103.14 Z" id="POL-3145" data-name="Kuyavian-Pomeranian"/>
<path d="M 449.14 322.3 455.96 323.14 456.96 323.48 457.25 324.37 457.27 325.35 456.89 325.98 451.43 326.55 448.44 330.15 450.63 331.81 456.63 332.9 459.38 334.23 461.6 337.37 465.38 340.31 462.18 340.61 456.69 343.56 455.1 345.77 457.89 346.7 463.3 347.22 465.53 347.77 466.07 349.5 466.27 350.92 456.21 354.95 453.69 355.21 449.22 354.98 444.85 355.41 437.8 358.92 435.78 359.22 433.73 359.22 429.32 357.59 427.18 359.64 424.97 362.49 421.51 365.65 416.19 365.16 413.68 366.41 417.91 369.11 421.62 372.42 402.73 386.04 400.99 387.71 399.22 390.05 398.31 392.71 399.92 394.07 402.03 394.21 403.74 395.6 403.91 398.26 406.29 401.02 410.35 402.04 411.96 403.96 413.17 406.41 415.76 407.97 418.74 408.85 424.12 409.46 423.85 411.56 422.49 413.34 421.81 415 422.83 416.44 424.7 417.26 425.12 418.19 425.12 418.19 424.68 418.07 424.22 418.21 423.91 418.6 417.01 423.55 416.41 423.89 415.28 424.19 414.45 424.27 412 424.26 410.47 424.47 409.17 424.89 408.01 425.61 406.92 426.74 405.65 429.32 405.79 429.41 406.04 429.65 406.2 430.03 406.01 430.56 405.66 430.73 404.68 430.75 404.45 430.78 403.89 432.34 403.68 433.33 403.1 433.97 400.65 434.61 398.65 434.87 397.83 434.83 397.06 434.57 395.48 433.82 394.75 433.66 393.01 433.92 389.93 435.09 387.92 435.2 386.36 435.01 385.92 434.11 386.24 431.49 386.04 430.31 385.65 429.23 385.57 428.1 386.27 426.75 383.96 425.84 376.08 425.36 376.42 424.03 376.19 422.39 375.04 418.99 374.69 418.27 373.75 416.88 373.38 416.11 372.84 413.37 372.51 412.75 371.32 412.18 370.08 412.32 368.83 412.67 367.67 412.73 366.67 412.34 365.11 411.14 364.07 410.59 362.93 410.37 360.48 410.23 359.42 409.74 358.92 409.15 358.12 406.83 356.24 404.33 354.86 401.91 354.82 399.77 357.01 398.13 354.9 397.39 354.55 396.42 354.75 395.19 354.26 393.75 353.08 393.29 349.94 394.58 348.09 394.59 342.17 392.48 339.09 391.77 335.88 392.02 336.06 392.02 336.2 392.07 336.3 392.16 336.39 392.3 334.16 393.55 333.01 393.7 331.43 392.86 330.99 392.33 330.43 391.09 330.1 390.65 329.15 390.2 327.28 389.95 326.34 389.68 323.83 388.28 322.62 387.85 317.53 387.23 316.5 386.46 317.02 384.99 312.37 383.03 311.24 382.85 311.24 382.83 311.35 381.51 316.09 375.55 326.13 374.2 330.91 371.88 338.62 369.56 339.47 367.24 339.54 363.16 338.19 352.95 338.91 351.32 340.62 351.1 342.38 350.58 342.53 349.15 341.65 347.75 342.7 345.95 345.03 345.59 356.6 345.66 355.71 342.8 353.15 341.06 350.58 339.79 348.46 337.97 346.91 334.94 348.82 331.69 350.23 326.69 352.36 323.85 358.59 321.31 359.16 318.48 358.09 317.01 357.6 315.2 358.19 313.97 359.19 313.21 361.94 307.09 365.93 305.86 377.18 305.62 379.78 304.85 382.31 303.75 385.11 304.1 387.55 305.67 397.97 309.22 403.13 309.9 409.48 309.87 412.22 308.36 417.58 308.99 422.38 311.78 429.82 319.27 432.51 319.78 440.48 319.51 449.14 322.3 Z" id="POL-3146" data-name="Silesian"/>
<path d="M 412.93 200.45 420.61 203.69 428.99 204.77 433.08 205.95 440.45 209.6 457 207.5 459.53 205.91 462.5 205.74 464.66 207.44 466.58 209.49 469.08 210.28 471.9 210.8 474.09 211.73 475.1 213.77 475.38 216.56 476.99 218.78 478.14 219.16 479.37 218.97 484.84 220.33 487.96 221.62 489.06 222.47 488.23 226.46 485.57 227.42 486.23 229.11 488.38 230.63 490.27 232.38 490.07 233.89 490.76 235.17 493.63 235.75 502.07 235.15 507.37 236.66 513.14 239.43 517.83 243.31 518.34 244.62 517.63 245.53 516.83 246.26 516.41 247.27 517.15 249.55 521.44 252.32 522.66 254.35 522.46 256.25 521.43 257.56 515.64 257.06 510.87 255.46 504.66 255.46 502.59 259.94 504.96 263.48 505.74 265.93 506.04 268.47 506.64 269.76 509.58 270.64 510.61 271.37 510.6 273.93 509.27 276.12 504.16 279.1 503.15 281.27 503.42 283.62 501.14 284.68 498.21 289.22 495.57 289.98 492.92 290.24 490.39 291.02 484.86 294.32 482.3 294.78 473.49 294.01 471.01 294.58 469.06 296.19 467.08 301 470.72 304.47 473.18 305.72 473.95 308.38 473.32 310.98 471.52 312.33 461 307.47 458.17 307.79 457.15 310.36 457.1 312.9 457.42 315.42 456.06 317.81 453.3 318.98 451 320.33 449.14 322.3 440.48 319.51 432.51 319.78 429.82 319.27 422.38 311.78 417.58 308.99 412.22 308.36 409.48 309.87 403.13 309.9 397.97 309.22 387.55 305.67 385.11 304.1 382.31 303.75 379.78 304.85 377.18 305.62 365.93 305.86 361.94 307.09 355.96 304.05 354.11 301.78 351.97 300.13 351.02 300.47 350.29 301.29 349.25 301.86 343.62 301.96 325.81 299.07 323.46 297.89 321.68 295.87 321.17 292.15 320.36 289.96 315.8 287.4 314.31 285.2 314.09 282.62 315.37 280.85 321.2 280.04 323.2 278.06 324.52 275.56 328.5 274.81 332.84 276.15 336.62 274.45 338.85 270.66 338.71 266.42 337.92 262.06 338.32 256.78 340.37 251.92 344.07 246.43 346.13 244.69 350.69 243.35 362.22 244.13 363.13 243.52 366.96 239.33 367.28 236.83 365.78 234.26 364.88 231.46 365.45 228.74 366.55 226.29 369.07 226.16 371.81 226.35 377.15 225.58 381.18 222.64 381.92 217.66 382.75 215.43 390.69 213.34 395.62 210.43 395.41 209.66 394.23 209.45 392.7 207.45 392.57 204.89 393.32 204.28 393.9 203.53 395.29 203.06 405.12 202.94 408.13 202.38 408.87 201.48 409.85 200.58 411.37 200.41 412.93 200.45 Z" id="POL-3147" data-name="Łódź"/>
<path d="M 714.88 203.78 712.33 206.72 704.76 213.58 702.48 216.85 699.85 218.93 696.75 219.64 687.41 216.69 684.15 216.22 682.7 216.82 681.39 217.68 680.87 218.69 680.5 219.88 676.07 222.1 667.32 221.59 664.25 221.81 656.65 225.32 653.86 225.88 649.82 225.41 638.91 226.75 627.38 226.7 621.32 227.78 615.66 230.38 616.17 232.39 617.45 234.63 619.02 236.71 619.34 238.82 621.28 241.78 624.07 244.42 619.68 246.07 616.61 248.75 620.63 252.58 620.09 254.4 618.11 255.57 612.46 256.81 606.66 256.24 603.81 255.52 600.93 256 600.11 258.03 600.21 258.85 601.22 259.91 602.4 260.79 604.62 261.42 608.72 261.97 610.11 261.87 612.07 261.33 612.83 261.38 614.07 261.9 614.35 262.61 614.29 263.51 614.46 264.64 615.89 266.03 616.17 267.01 614.96 267.9 614.96 268.45 617.41 268.6 617.33 271.87 615.4 273.54 613.53 274.48 613.37 276.42 616.55 278.8 616.07 281.09 615.1 283.5 615.24 285.17 614.37 285.25 613.62 285.65 612.65 286.92 611.2 291.88 610.53 293.04 610.24 293.73 610.11 294.65 610.29 295.27 611.03 296.7 611.65 299.26 613.61 302.32 588.13 305.66 574.94 303.06 568.82 302.73 563.37 300.5 562.86 299.29 562.52 297.96 560.13 296.27 559.47 293.59 557.06 293.08 554.56 294.56 552.22 296.61 549.59 297.56 538.52 298.67 528.88 297.41 526.83 296.43 525.15 294.75 523.29 293.42 510.18 288.36 507.82 284.61 503.42 283.62 503.15 281.27 504.16 279.1 509.27 276.12 510.6 273.93 510.61 271.37 509.58 270.64 506.64 269.76 506.04 268.47 505.74 265.93 504.96 263.48 502.59 259.94 504.66 255.46 510.87 255.46 515.64 257.06 521.43 257.56 522.46 256.25 522.66 254.35 521.44 252.32 517.15 249.55 516.41 247.27 516.83 246.26 517.63 245.53 518.34 244.62 517.83 243.31 513.14 239.43 507.37 236.66 502.07 235.15 493.63 235.75 490.76 235.17 490.07 233.89 490.27 232.38 488.38 230.63 486.23 229.11 485.57 227.42 488.23 226.46 489.06 222.47 487.96 221.62 484.84 220.33 479.37 218.97 478.14 219.16 476.99 218.78 475.38 216.56 475.1 213.77 474.09 211.73 471.9 210.8 469.08 210.28 466.58 209.49 464.66 207.44 462.5 205.74 459.53 205.91 457 207.5 440.45 209.6 433.08 205.95 428.99 204.77 420.61 203.69 412.93 200.45 413.46 199.09 413.78 197.75 419.67 191.81 419.34 190.33 417.71 189.31 418.13 186.25 420.24 183.62 425.6 174.12 429.02 173.57 428.95 170.93 426.65 167.57 425.32 166.06 424.44 164.4 425.12 162.79 426.7 161.72 427.11 158.78 425.87 155.51 429.77 155.82 433.09 154.13 434.58 152.77 436.27 151.79 437.81 152.18 439.28 152.81 440.8 152.92 441.56 151.56 441.98 150.01 442.21 148.44 441.57 146.09 441.5 144.52 441.03 143.02 445.11 141.86 448.93 140 451.68 139.58 453.98 138.43 456.03 135.97 459.19 135.38 460.56 135.56 461.8 136.07 462.32 136.78 463.02 137.28 488.17 139.61 494.16 138.95 496.57 138.22 498.63 136.77 499.98 134.08 502.44 132.92 505.51 133.12 508.42 132.59 519.56 128.73 522.2 126.84 525.08 125.44 530.79 125.48 535.84 124.85 541.68 122.84 549.29 122.85 556.45 121.48 562.49 117.18 569.57 117.58 573.19 117.25 576.44 115.87 578.72 113.18 580.68 112.54 590.31 112.09 591.37 114.86 593.2 117.44 594.47 120.58 596.47 129.73 600.9 136.43 603.83 139.83 608.07 141.22 612.44 141.6 616.1 143.3 614.81 144.74 615.14 146.76 617.17 148.96 620.21 149.96 622.16 151.18 623.32 153.16 624.41 156.08 626.52 158.41 632.2 160.19 638.24 159.65 642.22 157.05 646.07 158.82 644.81 163.21 646.81 164.92 649.3 165.97 653.78 164.6 658.4 163.81 659.65 167.56 660.14 171.71 661.1 174.52 661.36 177.5 661.11 179.22 665.56 182.12 667.22 183.52 668.98 184.43 669.53 184.9 669.73 185.68 669.46 186.34 669.11 186.97 669.04 187.67 669.33 188.69 669.7 189.36 670.37 189.73 671.49 189.85 671.7 190.22 671.22 192.86 671.78 193.71 673.12 194.88 674.73 195.64 676.11 195.28 677.04 196.22 678.98 196.51 683.18 196.37 695.58 197.94 701.8 197.41 704.13 197.87 705.97 198.96 706.71 200.77 708.41 200.22 709.86 200.74 712.1 202.4 711.7 202.84 711.3 203.67 711.06 204.03 712.39 204.53 713.68 204.29 714.88 203.78 Z" id="POL-3148" data-name="Masovian"/>
<path d="M 613.61 302.32 613.92 303.4 613.58 303.87 612.96 304.2 612.26 304.41 611.7 304.49 611.7 305.03 613.17 305.72 613.42 307.28 612.83 310.72 612.74 310.97 612.54 311.12 612.33 311.35 612.24 311.85 612.41 312.31 612.78 312.51 613.15 312.66 613.33 312.94 613.47 313.68 615.5 318.56 615.9 320.27 616.16 321.35 616.25 324.29 615.6 327.43 615.03 328.69 614.09 330.12 612.87 331.29 611.45 331.77 609.36 331.99 607.99 332.62 605.71 335.04 601.92 337.89 601.36 339.14 600.95 340.68 599.95 341.91 597.5 343.79 596.04 344.58 590.93 345.42 583.32 347.59 583.63 347.96 584.41 349.23 582.89 350.24 580.86 351 578.83 351.28 577.34 350.86 572.45 353.58 572.17 353.64 571.03 353.58 570.72 353.73 570.76 354.08 570.86 354.47 570.76 354.71 569.87 355.13 569.33 355.11 568.59 354.71 568.16 355.84 567.21 356.39 566.29 356.69 565.87 357.11 565.77 357.78 565.48 357.93 565.05 357.95 564.49 358.22 563.1 359.48 563.1 359.61 561.69 359.8 560.91 359.37 560.2 358.77 559.02 358.47 558.23 358.59 554.95 359.61 554.2 360 553.46 360.55 552.57 361.03 551.36 361.24 545.45 361.36 544.62 361.56 543.96 361.93 543.17 362.6 542.43 362.87 540.26 363.01 539.17 363.46 537.94 362.95 536.89 363.38 535.81 364.11 534.5 364.5 531.44 362.64 530.93 363.14 530.42 364.5 528.74 365.59 528.47 365.69 527.76 365.71 527.44 365.86 527.16 366.25 527.07 367.1 526.83 367.52 525.72 368.21 523.15 369 522.17 369.99 521.85 370.83 519.47 372.47 509 372.28 503.15 370.03 501.65 367.99 498.03 364.73 496.66 362.87 495.32 359.21 491.68 354.61 485.54 351.99 478.86 350.65 476.18 348.85 473.05 347.78 465.53 347.77 463.3 347.22 457.89 346.7 455.1 345.77 456.69 343.56 462.18 340.61 465.38 340.31 461.6 337.37 459.38 334.23 456.63 332.9 450.63 331.81 448.44 330.15 451.43 326.55 456.89 325.98 457.27 325.35 457.25 324.37 456.96 323.48 455.96 323.14 449.14 322.3 451 320.33 453.3 318.98 456.06 317.81 457.42 315.42 457.1 312.9 457.15 310.36 458.17 307.79 461 307.47 471.52 312.33 473.32 310.98 473.95 308.38 473.18 305.72 470.72 304.47 467.08 301 469.06 296.19 471.01 294.58 473.49 294.01 482.3 294.78 484.86 294.32 490.39 291.02 492.92 290.24 495.57 289.98 498.21 289.22 501.14 284.68 503.42 283.62 507.82 284.61 510.18 288.36 523.29 293.42 525.15 294.75 526.83 296.43 528.88 297.41 538.52 298.67 549.59 297.56 552.22 296.61 554.56 294.56 557.06 293.08 559.47 293.59 560.13 296.27 562.52 297.96 562.86 299.29 563.37 300.5 568.82 302.73 574.94 303.06 588.13 305.66 613.61 302.32 Z" id="POL-3149" data-name="Świętokrzyskie"/>
<path d="M 734.71 49.75 736.18 50.48 736.95 51.18 738.4 52.81 739.13 53.43 739.95 53.75 741.67 54.03 742.4 54.29 743.72 55.43 744.83 57.02 745.7 58.8 746.31 60.5 747.47 64.22 747.49 66.02 746.31 67.24 745.35 67.72 744.92 68.03 744.53 68.38 744.48 69.23 744.82 69.96 745.46 70.53 746.31 70.95 746.78 71.3 747.01 71.7 746.96 72.14 746.63 72.61 746.73 74.94 747.55 76.89 748.61 78.72 749.42 80.73 750.15 84.96 750.99 86.6 752.93 88.28 752.93 88.29 752.94 88.29 753.12 93.18 755.02 98.73 761.78 111.12 765.53 115.79 767.13 118.31 770.31 125.84 771.72 128.11 773.15 129.26 773.93 130.39 774.55 131.54 775.5 132.78 776.92 133.72 778.29 134.36 779.13 135.31 778.95 137.24 778.23 138.39 777.27 139.35 776.5 140.45 776.4 142 777.08 143.35 779.49 145.22 780.4 146.4 780.54 147.01 780.35 147.97 780.36 148.48 781.03 150.7 781.06 151.34 780.82 151.83 779.94 152.9 779.72 153.53 779.8 154.38 780.07 154.86 780.39 155.26 780.59 155.87 781.26 165.53 781.43 167.92 780.33 171.32 777.16 173.7 766.58 178.09 753.27 180.4 746.22 182.91 739.2 186.47 729.5 195.59 726.31 197.99 724.84 199.39 721.14 204.01 721.39 204.05 721.98 204.35 721.98 204.35 721.34 204.63 719.92 204.64 717.42 203.71 715.96 203.49 714.88 203.78 713.68 204.29 712.39 204.53 711.06 204.03 711.3 203.67 711.7 202.84 712.1 202.4 709.86 200.74 708.41 200.22 706.71 200.77 705.97 198.96 704.13 197.87 701.8 197.41 695.58 197.94 683.18 196.37 678.98 196.51 677.04 196.22 676.11 195.28 674.73 195.64 673.12 194.88 671.78 193.71 671.22 192.86 671.7 190.22 671.49 189.85 670.37 189.73 669.7 189.36 669.33 188.69 669.04 187.67 669.11 186.97 669.46 186.34 669.73 185.68 669.53 184.9 668.98 184.43 667.22 183.52 665.56 182.12 661.11 179.22 661.36 177.5 661.1 174.52 660.14 171.71 659.65 167.56 658.4 163.81 653.78 164.6 649.3 165.97 646.81 164.92 644.81 163.21 646.07 158.82 642.22 157.05 638.24 159.65 632.2 160.19 626.52 158.41 624.41 156.08 623.32 153.16 622.16 151.18 620.21 149.96 617.17 148.96 615.14 146.76 614.81 144.74 616.1 143.3 612.44 141.6 608.07 141.22 603.83 139.83 600.9 136.43 596.47 129.73 594.47 120.58 593.2 117.44 591.37 114.86 590.31 112.09 596.1 110.57 607.5 110.97 612.5 109.92 614.84 108.82 617.36 108.18 623.31 107.65 637.06 102.03 644.8 96.82 666.98 88.64 671.56 85.78 674.33 81.14 677.57 77.47 677.85 73.76 669.4 66.79 665.36 64.45 664.51 62.24 664.07 59.87 656.03 53.54 663.52 47.3 681.29 45.84 686.58 43.74 691.12 40.96 693.13 37.11 692.93 36.5 693.03 36.38 695.02 35.84 696.71 35.97 701.49 37.41 702.35 37.48 704.16 37.26 704.98 37.37 705.83 37.87 706.28 38.49 706.63 39.11 707.13 39.62 708.03 39.98 710.76 40.17 711.27 40.61 710.98 41.37 710.52 42.27 710.51 43.11 711.94 44.29 713.77 44.28 715.67 43.81 717.28 43.6 718.72 44.01 723.66 46.44 726.7 47.53 733.12 48.95 734.71 49.75 Z" id="POL-3150" data-name="Podlachian"/>
<path d="M 721.98 204.35 722.57 204.66 723.44 205.44 723.7 206.49 723.06 207.91 724.86 208.61 730.59 209.56 731.81 209.27 732.86 209.92 737.81 211.06 739.48 211.17 739.48 211.66 738.89 212.4 739.12 212.53 740.27 212.26 741.26 212.53 741.98 212.98 742.74 213.07 743.83 212.26 744.14 212.61 744.93 213.02 745.46 213.39 746.79 212.6 747.1 213.2 746.88 214.15 746.56 214.43 748.77 217.15 750.32 217.45 754.1 217.38 755.59 217.94 756.12 218.56 756.52 219.21 757 219.71 757.75 219.92 758.72 220.34 759.04 221.26 759.13 222.17 759.78 223.17 760.91 226.17 761.83 227.53 760.57 228.11 759.53 229.13 758.02 231.34 757.5 232.8 757.45 235.38 756.93 236.28 757.24 236.36 757.38 236.36 757.44 236.46 757.48 236.83 756.52 237.16 756.2 238.88 755.31 239.54 756.56 240.99 758.02 242.22 757.13 244.07 755.6 245.01 753.93 245.65 752.58 246.61 752.26 247.19 751.94 248.04 751.49 249.88 751.77 250.29 752.31 250.85 752.49 251.34 751.76 251.56 751.45 251.78 751.7 252.3 752.19 252.84 752.58 253.19 751.56 253.98 751.07 254.16 750.36 254.23 750.36 254.82 751.26 255.43 751.37 256.21 750.95 258.36 751.23 259.5 751.92 260.61 753.67 262.48 753.12 262.52 752.58 262.48 753.57 263.73 754.84 264.03 755.92 264.44 756.24 265.5 756.38 265.99 756.92 267.11 758.17 267.65 759.61 267.99 760.74 268.46 759.5 270.06 759.62 270.55 762.86 273.54 763.51 274.5 762.59 274.77 762.02 275.32 761.92 276.14 762.42 277.22 760.96 277.58 759.55 278.52 758.45 279.69 758.02 280.75 758.54 282.44 759.79 282.85 761.33 282.87 762.69 283.42 767.1 289.49 768.9 290.86 772.95 292.47 776.73 294.9 777.62 295.87 776.31 296.3 776.01 297.03 777.19 298.61 779.28 300.65 779.97 301.71 780.91 305.05 780.91 305.54 780.57 306.17 781.15 306.49 782.17 306.75 783.14 307.17 784.02 308.02 784.24 308.67 784.32 309.39 784.76 310.44 785.95 311.69 791.34 314.83 797.97 317.15 799 318.15 798.02 319.53 795.6 319.85 792.96 319.87 791.34 320.32 789.23 319.57 787.03 319.75 785.2 320.64 784.22 322 784.37 323.52 785.55 324.54 787.43 325.09 789.66 325.27 789.66 325.76 788.62 327.15 789.74 328.37 791.91 329.24 794.05 329.57 793.57 331.39 794.19 333.06 796.21 336.16 796.23 336.19 794.39 338.22 795.2 342 795.76 343.06 796.18 343.28 796.08 343.46 795.08 344.37 793.58 345.4 788.45 347.11 788.22 348.07 788.35 349.6 788.22 350.64 787.85 351.5 786.11 354.12 781.92 355.23 767.49 355.34 764.74 355.9 763.36 356.35 762.29 357.03 761.41 358.2 760.41 360.31 760.37 360.3 752.39 357.31 749.81 354.84 744.79 352.79 738.92 352.37 734.38 352.65 732.28 353.24 725.72 357.99 720.57 360.66 714.54 361.47 696.65 361.1 685.75 359.12 684.97 357.95 687.67 357.52 688.93 357.05 686.79 356.11 675.69 357.52 672.89 356.69 670.82 354.65 670.25 352.67 671.58 351.02 673.55 349.35 676.05 348.82 678.52 349.01 680.7 348.21 679.79 346.27 677.9 344.03 677.71 342.92 677.79 341.84 677.06 341.11 664.52 336.82 645.95 333.82 644.47 332.19 648.1 327.85 649.21 325.83 646.66 324.41 643.84 323.3 640.79 322.57 637.66 322.65 632.39 324.99 626.42 324.8 615.9 320.27 615.5 318.56 613.47 313.68 613.33 312.94 613.15 312.66 612.78 312.51 612.41 312.31 612.24 311.85 612.33 311.35 612.54 311.12 612.74 310.97 612.83 310.72 613.42 307.28 613.17 305.72 611.7 305.03 611.7 304.49 612.26 304.41 612.96 304.2 613.58 303.87 613.92 303.4 613.61 302.32 611.65 299.26 611.03 296.7 610.29 295.27 610.11 294.65 610.24 293.73 610.53 293.04 611.2 291.88 612.65 286.92 613.62 285.65 614.37 285.25 615.24 285.17 615.1 283.5 616.07 281.09 616.55 278.8 613.37 276.42 613.53 274.48 615.4 273.54 617.33 271.87 617.41 268.6 614.96 268.45 614.96 267.9 616.17 267.01 615.89 266.03 614.46 264.64 614.29 263.51 614.35 262.61 614.07 261.9 612.83 261.38 612.07 261.33 610.11 261.87 608.72 261.97 604.62 261.42 602.4 260.79 601.22 259.91 600.21 258.85 600.11 258.03 600.93 256 603.81 255.52 606.66 256.24 612.46 256.81 618.11 255.57 620.09 254.4 620.63 252.58 616.61 248.75 619.68 246.07 624.07 244.42 621.28 241.78 619.34 238.82 619.02 236.71 617.45 234.63 616.17 232.39 615.66 230.38 621.32 227.78 627.38 226.7 638.91 226.75 649.82 225.41 653.86 225.88 656.65 225.32 664.25 221.81 667.32 221.59 676.07 222.1 680.5 219.88 680.87 218.69 681.39 217.68 682.7 216.82 684.15 216.22 687.41 216.69 696.75 219.64 699.85 218.93 702.48 216.85 704.76 213.58 712.33 206.72 714.88 203.78 715.96 203.49 717.42 203.71 719.92 204.64 721.34 204.63 721.98 204.35 721.98 204.35 Z" id="POL-3151" data-name="Lublin"/>
<path d="M 760.41 360.31 760.36 360.42 759.26 361.45 752.98 365.82 750.67 367.02 750.66 367.02 750.66 367.02 750.65 367.02 746.31 369.16 742.71 370.95 724.51 383.65 722.12 386.04 719.2 387.51 716.03 389.77 707.4 397.95 704.06 400.17 703.64 400.82 702.99 402.43 702.62 403 701.93 403.45 700.52 403.78 699.82 404.08 699.05 404.7 694.14 410.46 692.8 411.34 691.93 411.58 690.22 411.81 689.33 412.3 688.75 412.99 687.38 415.53 681.34 420.82 679.35 423.89 680.88 426.74 681.42 427.9 681.91 431.29 682.21 432.2 682.43 432.64 683.47 433.71 685.19 434.89 685.63 435.5 685.99 436.77 687.07 444.07 686.76 445.23 685.42 447.65 684.29 450.47 683.03 452.19 682.6 453.16 683.09 453.59 683.46 453.43 684.51 452.56 685.76 453.13 685.67 453.17 685.36 453.22 687.95 454.41 690.28 456.42 691.74 457.13 695.31 458.45 696.28 459.25 696.28 459.93 695.56 461.49 695.46 462.57 695.81 463.32 697.1 464.78 697.2 464.95 697.35 465.21 696.42 466.48 694.81 466.02 693.05 464.98 691.63 464.49 690.74 464.3 689.27 462.95 688.46 462.44 687.6 462.38 685.81 462.74 682.92 462.6 681.22 462.7 679.51 462.57 677.55 461.69 674.56 459.52 672.96 459.19 671.28 460.25 668.53 459.36 662.3 459.18 659.37 458.59 655.34 455.93 653.64 455.49 649.24 455.6 645.5 454.85 644.91 454.52 644.73 454.02 644.95 453.5 644.94 452.94 644.07 452.31 643.41 452.22 641.5 452.38 640.7 452.34 639.78 452.08 637.19 450.98 631.55 450.28 629.29 449.19 628.77 446.66 627.76 443.85 625.48 441.43 622.6 439.66 618.31 438.26 615.39 436.5 613.93 435.96 612.33 436.15 610.95 436.97 609.83 437.85 609 438.21 607.77 437.56 605.09 434.87 603.75 433.97 602.96 433.82 601.73 434 601.13 433.95 600.32 433.58 598.84 432.64 598.03 432.29 596.54 432.04 590.84 432.45 589.63 432.77 589.62 432.75 589.52 432.52 586.66 427.23 585.2 421.42 585.64 418.66 585.37 415.83 582.61 410.28 577.82 406.93 569.25 404.55 566.9 403.15 568.27 401.18 576.18 397.23 575.11 394.95 572.14 393.91 569.86 393.79 568.17 392.49 567.53 391.4 566.82 390.48 566.88 387.4 567.53 383.88 565.39 371.86 565.88 367.39 568.85 364.1 571.28 360.33 572.17 353.64 572.45 353.58 577.34 350.86 578.83 351.28 580.86 351 582.89 350.24 584.41 349.23 583.63 347.96 583.32 347.59 590.93 345.42 596.04 344.58 597.5 343.79 599.95 341.91 600.95 340.68 601.36 339.14 601.92 337.89 605.71 335.04 607.99 332.62 609.36 331.99 611.45 331.77 612.87 331.29 614.09 330.12 615.03 328.69 615.6 327.43 616.25 324.29 616.16 321.35 615.9 320.27 626.42 324.8 632.39 324.99 637.66 322.65 640.79 322.57 643.84 323.3 646.66 324.41 649.21 325.83 648.1 327.85 644.47 332.19 645.95 333.82 664.52 336.82 677.06 341.11 677.79 341.84 677.71 342.92 677.9 344.03 679.79 346.27 680.7 348.21 678.52 349.01 676.05 348.82 673.55 349.35 671.58 351.02 670.25 352.67 670.82 354.65 672.89 356.69 675.69 357.52 686.79 356.11 688.93 357.05 687.67 357.52 684.97 357.95 685.75 359.12 696.65 361.1 714.54 361.47 720.57 360.66 725.72 357.99 732.28 353.24 734.38 352.65 738.92 352.37 744.79 352.79 749.81 354.84 752.39 357.31 760.37 360.3 760.41 360.31 Z" id="POL-3152" data-name="Subcarpathian"/>
<path d="M 321.68 295.87 323.46 297.89 325.81 299.07 343.62 301.96 349.25 301.86 350.29 301.29 351.02 300.47 351.97 300.13 354.11 301.78 355.96 304.05 361.94 307.09 359.19 313.21 358.19 313.97 357.6 315.2 358.09 317.01 359.16 318.48 358.59 321.31 352.36 323.85 350.23 326.69 348.82 331.69 346.91 334.94 348.46 337.97 350.58 339.79 353.15 341.06 355.71 342.8 356.6 345.66 345.03 345.59 342.7 345.95 341.65 347.75 342.53 349.15 342.38 350.58 340.62 351.1 338.91 351.32 338.19 352.95 339.54 363.16 339.47 367.24 338.62 369.56 330.91 371.88 326.13 374.2 316.09 375.55 311.35 381.51 311.24 382.83 311.24 382.85 309.91 382.63 310.27 384.44 310.69 384.55 311.32 384.42 312 384.44 312.56 384.99 312.7 385.78 312.3 386.13 309.71 386.63 306.51 386.69 305.06 386.93 302.72 388.28 299.82 388.85 296.92 388.46 291.76 385.15 290.86 384.35 290.24 383.4 289.79 382.41 289.25 381.53 288.37 380.85 287.62 380.37 287.37 379.92 287.63 379.48 288.37 379.07 288.4 379.01 288.42 378.95 288.4 378.88 288.37 378.8 287.25 378.65 285.09 377.96 284.04 377.78 283.19 377.9 282.52 378.15 281.71 378.25 280.47 377.89 276.6 374.74 276.43 374.16 277.02 373.36 277.89 373.07 281.73 372.98 283.86 372.44 287.25 371.14 288.86 370.24 289.61 369.03 288.37 367.56 287.53 367.03 287.35 366.22 287.51 365.49 288.37 364 288.55 363.75 288.61 363.51 288.57 363.3 288.37 363.12 286.9 361.85 286.46 361.58 285.11 361.26 284.59 361.48 284.39 362.02 283.94 362.67 281.58 364.77 280.21 365.48 278.37 365.79 271.25 364.98 267.45 365.21 265.11 367.03 264.7 367.2 264.28 367.26 263.86 367.2 263.45 367.03 262.71 365.54 260.97 364.64 259.21 364.73 258.35 366.19 257.29 365.67 256.74 364.85 256.58 363.84 256.68 362.81 256.32 362.6 255.99 362.37 255.71 362.11 255.48 361.81 256.95 361.43 255.3 360.98 251.57 361.05 249.67 360.7 246.87 359.56 246.08 359.02 245.61 358.33 245.11 357.3 244.84 356.43 245.01 356.21 244.08 356.03 241.65 356.35 240.56 356.34 239.54 356 237.69 355 236.81 354.66 228.63 353.2 226.79 353.34 225.61 352.88 225.61 352.88 225.95 351.94 231.69 342.81 235.87 340.77 240.69 340.26 243.56 337.13 245.39 332.66 251.11 325.74 257.75 319.51 260.6 315.33 264.38 312.23 266.91 311.17 268.19 308.75 268.7 306.68 269.54 304.74 274.18 298.02 276.24 296.62 278.84 296.07 281.57 296.2 284.34 295.76 286.99 294.75 289.74 294.65 292.37 295.5 293.43 297.22 293.88 299.16 298.07 301.29 303.14 301.47 312.57 299.29 321.68 295.87 Z" id="POL-3167" data-name="Opole"/>
<path d="M 572.17 353.64 571.28 360.33 568.85 364.1 565.88 367.39 565.39 371.86 567.53 383.88 566.88 387.4 566.82 390.48 567.53 391.4 568.17 392.49 569.86 393.79 572.14 393.91 575.11 394.95 576.18 397.23 568.27 401.18 566.9 403.15 569.25 404.55 577.82 406.93 582.61 410.28 585.37 415.83 585.64 418.66 585.2 421.42 586.66 427.23 589.52 432.52 589.62 432.75 589.63 432.77 588.18 433.16 587.01 432.93 584.05 433.36 582.74 433.36 574.97 431.93 570.51 430.38 569.41 430.21 567.97 430.86 565.48 433.26 564.12 434.1 562.4 434.28 561.19 433.73 560.05 432.91 558.61 432.26 557.37 432.19 554.14 432.62 552.92 432.99 551.31 434.17 552.28 434.9 554.11 435.62 555.09 436.83 554.44 437.55 552.96 437.75 551.28 437.76 550.03 437.93 548.39 438.97 545.79 441.46 544.07 442.44 542.2 442.88 540.74 442.7 539.45 442.09 538.14 441.2 536.65 440.48 535.4 440.35 534.05 440.41 532.26 440.23 531 439.62 523.93 434.11 522.69 433.96 519.67 434.28 517.95 434.11 517.22 434.14 516.4 434.44 515.14 435.47 514.22 436.03 512.34 436.47 510.59 436.19 503.86 433.94 502.62 434.13 502.63 435.5 498.52 435.6 495.26 434.8 494.31 434.81 493.5 435.21 493.2 435.71 493.04 436.44 492.62 437.58 492.06 438.68 491.66 439.03 485.51 439.39 484.3 439.83 482.56 441.18 481.78 441.66 480.03 441.53 479.83 441.4 479.38 441.8 477.86 444.03 477.4 444.98 476.85 445.86 475.86 446.65 475.41 449.43 474.59 451.42 473.03 452.21 470.39 451.36 466.28 448.83 464.07 448.07 461.52 448.26 460.08 448.96 458.52 450.01 457.4 450.77 455.63 451.2 451.96 451.02 449.95 450.54 448.92 449.61 448.92 449.6 449.24 448.56 452.26 445.34 452.61 445.15 453.12 445.05 453.58 444.88 453.77 444.43 453.62 444.08 453.59 444.06 452.99 443.65 452.97 443.62 452.84 443.44 452.83 443.43 451.74 442.91 451.46 442.64 451.47 442.63 451.51 442.3 452.12 441.7 452.25 441.38 451.78 437.53 451.37 436.2 450.63 434.69 450.62 434.69 449.9 434.33 447.23 435.03 445.62 435.14 443.88 435.02 439.31 434 439.31 433.97 439.48 433.04 439.43 431.79 439.55 431.36 439.92 430.85 436.74 430.83 435.08 430.54 433.71 429.85 433.3 429.29 432.01 426.75 430.56 422.73 429.6 421.13 427.73 420.33 427.13 419.91 425.79 418.37 425.12 418.19 425.12 418.19 424.7 417.26 422.83 416.44 421.81 415 422.49 413.34 423.85 411.56 424.12 409.46 418.74 408.85 415.76 407.97 413.17 406.41 411.96 403.96 410.35 402.04 406.29 401.02 403.91 398.26 403.74 395.6 402.03 394.21 399.92 394.07 398.31 392.71 399.22 390.05 400.99 387.71 402.73 386.04 421.62 372.42 417.91 369.11 413.68 366.41 416.19 365.16 421.51 365.65 424.97 362.49 427.18 359.64 429.32 357.59 433.73 359.22 435.78 359.22 437.8 358.92 444.85 355.41 449.22 354.98 453.69 355.21 456.21 354.95 466.27 350.92 466.07 349.5 465.53 347.77 473.05 347.78 476.18 348.85 478.86 350.65 485.54 351.99 491.68 354.61 495.32 359.21 496.66 362.87 498.03 364.73 501.65 367.99 503.15 370.03 509 372.28 519.47 372.47 521.85 370.83 522.17 369.99 523.15 369 525.72 368.21 526.83 367.52 527.07 367.1 527.16 366.25 527.44 365.86 527.76 365.71 528.47 365.69 528.74 365.59 530.42 364.5 530.93 363.14 531.44 362.64 534.5 364.5 535.81 364.11 536.89 363.38 537.94 362.95 539.17 363.46 540.26 363.01 542.43 362.87 543.17 362.6 543.96 361.93 544.62 361.56 545.45 361.36 551.36 361.24 552.57 361.03 553.46 360.55 554.2 360 554.95 359.61 558.23 358.59 559.02 358.47 560.2 358.77 560.91 359.37 561.69 359.8 563.1 359.61 563.1 359.48 564.49 358.22 565.05 357.95 565.48 357.93 565.77 357.78 565.87 357.11 566.29 356.69 567.21 356.39 568.16 355.84 568.59 354.71 569.33 355.11 569.87 355.13 570.76 354.71 570.86 354.47 570.76 354.08 570.72 353.73 571.03 353.58 572.17 353.64 Z" id="POL-3170" data-name="Lesser Poland"/>
</g>
</svg>