<?xml version="1.0"?>
<svg xmlns="http://www.w3.org/2000/svg" version="1.2" baseProfile="tiny" width="800" height="2064" viewBox="0 0 800 2064" stroke-linecap="round" stroke-linejoin="round">
<g id="ne_10m_admin_1_states_provinces">
<path d="M 725.93 1134.44 725.94 1134.45 728.35 1135.26 730.43 1139.04 734.79 1174.17 734.07 1221.1 733.05 1286.35 733.31 1351.18 733.64 1432.36 733.68 1439.57 733.84 1474.82 734.03 1515.07 734.28 1576.22 734.53 1635.67 734.83 1695.82 727.38 1698.02 696.44 1697.81 704.4 1726.91 709.01 1733.7 709.67 1734.19 709.62 1734.21 707.74 1735.1 704.18 1738.18 695.78 1751.58 693.31 1754.77 690.7 1757.06 683.27 1760.93 676.29 1763.4 673.86 1763.75 668.9 1763.56 663.82 1762.61 654.68 1759.66 650.79 1759.4 645.9 1759.85 636.69 1761.88 628.67 1764.83 600.27 1785.78 577.26 1808.46 573.71 1806.88 560.69 1802.43 559.02 1801.32 557.62 1799.88 552.8 1791.6 552.22 1790.87 551.27 1790.1 548.73 1788.83 546.64 1788.16 544.61 1787.27 542.89 1786.12 541.56 1784.6 540.54 1782.89 539.27 1781.46 537.37 1780.57 530.23 1779.62 528.52 1778.73 527.89 1777.33 528.77 1774.43 527.95 1773.29 526.04 1772.78 459.19 1769 451.38 1770.78 447.31 1772.4 443.48 1774.46 441.58 1776.37 439.99 1779.11 438.47 1784 437.77 1788.9 438.59 1808.4 436.94 1824.23 434.28 1833.32 432.5 1837.35 430.47 1840.24 427.61 1843.61 415.59 1854.63 411.71 1859.37 407.52 1866.2 404.92 1869.48 403.4 1870.85 389.09 1879.73 382.3 1882.28 365.89 1884.67 361.07 1885.38 361.24 1882.9 363.82 1877.68 366.7 1873.84 366.95 1870.02 361.7 1864.91 357.98 1864.15 346.55 1864.51 342.7 1864.13 339.1 1857.62 333.34 1853.39 327.97 1848.5 325.68 1839.93 329.24 1819.26 328.81 1812.61 325.34 1806 319.37 1800.36 312.22 1796.43 305.19 1794.95 302.49 1791.35 290.63 1769.37 285.64 1765.54 281.7 1763.2 280.39 1759.29 283.14 1750.67 291.78 1736.3 292.75 1729.4 287.92 1720.75 276.28 1711.77 271.59 1705.51 277.55 1703.67 283.56 1703.22 300.83 1698.74 306.13 1695.82 313.96 1681.72 314.25 1663.9 312.43 1645.47 313.83 1629.42 323.69 1604.87 327.5 1585.87 332.96 1570.84 333.47 1561.97 326.91 1535.12 324.2 1531.54 309.13 1537.08 301 1538.54 293.55 1537.53 280.64 1526.16 274.04 1508.13 272.01 1487.96 273.58 1464.17 275.06 1459.14 277.6 1454.75 281.74 1450.73 287.12 1448.34 293.68 1446.56 299.23 1443.73 301.55 1438.23 301.43 1427.09 302.7 1414.39 307.95 1406.06 319.8 1408.05 318.65 1400.05 319.54 1378.63 315.82 1355.22 316.16 1330.69 315.86 1328.71 324.2 1327.25 344.73 1325.38 351.08 1322.71 353.36 1320.49 356.56 1317.98 362.97 1313.91 366.72 1312.45 399.46 1308.13 403.71 1306.95 405.37 1305.97 406.83 1304.75 411.02 1298.69 413.05 1298.09 415.02 1298.53 417.05 1299.42 422.91 1299.48 462.23 1294.46 468.16 1294.5 472.73 1296.12 490.07 1299.61 493.39 1300.72 497.58 1302.59 503.61 1304.05 510.21 1304.69 517.73 1304.28 552.22 1297.29 564.56 1293.61 577.01 1284.96 577.39 1284.55 577.71 1283.95 578.02 1282.71 575.8 1280.16 574.79 1278.6 574.6 1276.64 575.23 1274.76 580.82 1263.39 581.45 1261.23 581.77 1258.81 581.52 1248.83 583.44 1239.68 583.76 1231.77 584.58 1226.97 586.55 1220.36 586.93 1217.88 586.93 1209.91 586.62 1207.43 585.98 1205.3 584.97 1203.56 581.96 1200.82 580.56 1199.32 579.55 1197.64 578.85 1195.67 578.47 1193.55 579.29 1186.68 578.98 1184.46 577.71 1180.2 577.26 1177.84 576.88 1172.73 576.37 1170.48 573.64 1164.81 573.07 1162.62 572.82 1160.15 573.07 1142.48 573.52 1140.48 575.29 1136.89 575.55 1135.11 575.42 1132.59 725.93 1134.44 Z" id="TGO-86" data-name="Plateaux"/>
<path d="M 719.89 1808.99 713.79 1817.13 710.41 1826.32 713.03 1830.92 718.32 1835.2 722.81 1843.41 722.89 1846.59 722.17 1850.02 721.92 1853.8 723.23 1857.99 725.69 1861.35 728.9 1864.59 732.33 1867.33 735.55 1869.24 739.4 1869.68 743.42 1869.3 746.39 1870.34 746.94 1875.02 747.99 1877.87 754.81 1883.47 757.39 1886.96 757.9 1891.08 756.88 1899.86 757.77 1903.44 760.48 1905.65 769.29 1910.17 772.8 1912.79 783.34 1929.69 791.3 1960.44 799 1990.5 790.49 1991.01 737.88 2003.43 729.41 2007.9 732.37 2016.45 732.36 2016.45 732.23 2016.49 654.5 2029.53 589.58 2049.28 560.31 2062.06 557.05 2062.33 554.51 2062.9 555.57 2048.5 550.74 2042 516.84 2038.15 511.21 2035.28 506.81 2030.19 501.43 2021.88 498.3 2018.3 495.21 2016.62 492.16 2015.37 488.9 2012.99 482.55 2003.94 471.84 1971.11 440.6 1970.98 432.22 1968.74 426.93 1964.75 413.6 1948.74 403.31 1942.25 383.08 1932.31 374.44 1923.48 367.97 1913.58 363.06 1903.85 360.52 1893.8 361.07 1885.38 365.89 1884.67 382.3 1882.28 389.09 1879.73 403.4 1870.85 404.92 1869.48 407.52 1866.2 411.71 1859.37 415.59 1854.63 427.61 1843.61 430.47 1840.24 432.5 1837.35 434.28 1833.32 436.94 1824.23 438.59 1808.4 437.77 1788.9 438.47 1784 439.99 1779.11 441.58 1776.37 443.48 1774.46 447.31 1772.4 451.38 1770.78 459.19 1769 526.04 1772.78 527.95 1773.29 528.77 1774.43 527.89 1777.33 528.52 1778.73 530.23 1779.62 537.37 1780.57 539.27 1781.46 540.54 1782.89 541.56 1784.6 542.89 1786.12 544.61 1787.27 546.64 1788.16 548.73 1788.83 551.27 1790.1 552.22 1790.87 552.8 1791.6 557.62 1799.88 559.02 1801.32 560.69 1802.43 573.71 1806.88 577.26 1808.46 600.27 1785.78 628.67 1764.83 636.69 1761.88 645.9 1759.85 650.79 1759.4 654.68 1759.66 663.82 1762.61 668.9 1763.56 673.86 1763.75 676.29 1763.4 683.27 1760.93 690.7 1757.06 693.31 1754.77 695.78 1751.58 704.18 1738.18 707.74 1735.1 709.62 1734.21 709.67 1734.19 715.74 1738.72 719.42 1743.14 720.27 1748.83 717.18 1766.03 717.43 1773.02 719.21 1780.08 722.34 1788.46 724.76 1798.35 723.1 1804.69 719.89 1808.99 Z" id="TGO-87" data-name="Maritime"/>
<path d="M 619.45 484.37 619.91 514.53 620.67 559.28 621.18 591.09 624.39 610.21 623.8 615.2 622.83 619.27 622.96 627.5 622.45 631.67 619.91 636.87 612.63 647.96 610.93 653.28 612.25 661.62 616.39 671.63 622.45 677.76 629.47 674.36 634.17 685.98 636.97 727.49 642.89 743.81 650.66 755.67 650.6 755.72 634.53 768.51 626.89 772.45 619.65 772.2 563.1 787.95 555.21 788.33 550.26 788.08 529.85 783.7 523.57 783.7 492.82 787.89 478.89 791.11 477.94 791.87 476.8 793.11 475.78 794.79 474.06 799.07 473.05 803.94 472.86 808.7 473.62 816.3 473.56 831.36 474.51 835.56 479.08 845.15 478.7 847.41 477.18 850.02 470.19 856.02 464.71 861.71 458.81 866.44 455.25 868.44 452.01 869.63 444.63 870.39 429.32 873.5 426.78 873.59 424.24 873.44 421.62 872.99 414.95 870.58 412.41 870.17 407.14 869.84 404.48 869.44 391.5 864.63 390.42 862.95 389.6 860.85 389.15 858.5 387.69 856.78 385.28 855.73 380.01 856.27 376.43 856.14 373.45 855.67 370.59 854.91 368.5 855.48 366.78 856.56 365.58 858.3 364.56 860.19 363.8 862.22 362.34 864.38 360.31 866.6 351.65 872.58 350.32 873.72 349.36 875.15 349.3 875.37 348.48 876.55 344.35 880.86 341.49 882.02 334.13 883.35 331.84 884.62 330.17 886.21 328.9 890.49 328.45 892.89 327.88 895.23 327.06 897.3 325.85 898.92 309.47 909.56 307.18 911.85 306.53 913.85 306.72 915.95 307.88 917.35 309.41 918.62 310.36 920.34 310.36 922.72 308.58 925.86 306.46 927.36 303.73 928.16 297.39 928.25 295.16 929.14 286.97 936.57 278.38 939.85 267.1 942.98 276.11 930.13 270.99 910.11 251.24 876.84 251.24 876.8 251.15 876.8 245.66 864.09 249.87 851.56 256.8 838.84 258.96 825.65 258.92 819.24 261.51 815.3 270.78 807.1 275.73 798.74 275.61 792.21 270.53 777.55 270.91 769.48 274.25 765.55 278.87 762.88 283.01 758.64 284.71 753.49 285.38 741.49 289.19 720.72 286.65 711.12 279.25 704.69 267.06 700.58 266.76 700.15 266.68 699.75 266.76 699.35 269.47 694.77 270.4 690.56 269.68 686.53 267.06 682.89 245.32 675.04 237.63 673.79 221.15 674.7 211.94 676.33 205.73 679.02 203.69 682.26 202.44 690.54 200.83 694.03 197.72 696.63 178.99 703.12 171.37 704.63 163.79 703.8 161.92 698.32 165.27 693.64 162.39 687.1 162.43 681.27 179.5 677.85 185.88 675.38 191.12 671.8 192.69 667.56 189.09 663.13 183.3 662.83 172.85 664.78 168.6 662.96 164.55 660.13 161.55 657.54 160.53 656.36 160.39 653.75 162.3 642.21 163.31 639.59 183.92 641.88 193.76 641.3 201.09 636.56 206.71 640.23 214.26 641.5 220.9 639.63 223.73 633.99 220.22 625.51 212.11 623.96 195.5 628.15 182.74 626.8 176.21 618.21 175.91 606.25 181.77 594.61 192.69 605.97 199.56 609.75 206.91 608.84 211.18 603.79 212.33 596.63 211.39 589.18 209.49 583.16 206.76 579.08 203.83 575.89 201.68 571.47 201.09 563.85 209.87 532.02 210 527.37 208.15 510.95 208.98 505.24 212.28 499.03 217.53 493.41 220.39 490.89 220.64 487.54 217.86 479.44 212.96 469.75 212.28 467 213.09 463.21 214.47 460.67 214.72 458.06 212.28 454.03 219.46 452.68 225.79 453.72 230.36 452.53 230.63 451.27 233 453.29 235.99 457.11 240.33 463.84 241.34 466.03 241.85 468.39 241.79 470.68 241.15 475.35 241.28 477.73 241.85 479.86 242.99 481.48 244.71 482.56 251.82 483.74 253.72 484.63 256.77 487.26 259.12 488.18 262.32 488.63 267.27 488.5 273.81 489.77 277.62 489.58 279.97 489.77 281.87 490.45 282.95 491.75 282.7 493.33 280.79 496.67 280.41 498.57 280.79 500.57 281.55 502.49 282.76 504.11 284.16 505.57 287.92 507.54 289.58 508.71 291.04 510.14 294.46 515.2 296.05 516.4 298.4 517.04 301.64 516.85 306.46 515.23 312.71 513.73 317.98 513.79 330.89 512.49 333.24 513.22 336.92 515.42 339.27 515.96 343.4 514.88 347.14 515.67 347.65 515.39 348.16 512.49 347.65 507.54 342.76 493.91 342.38 491.78 342.57 489.36 343.27 486.82 344.48 484.02 345.68 478.72 346.76 475.79 348.98 472.42 350.19 469.82 350.83 467.53 350.89 465.87 350.57 461.94 350.83 449.42 351.97 444.33 353.58 439.69 357.51 431.75 369.58 415.07 371.48 410.97 372.5 405.95 371.42 400.3 370.72 398.13 370.85 396.25 372.75 394.57 377.22 392.79 389.73 393.59 392.33 394.48 394.36 395.62 395.44 397.3 396.33 399.25 397.34 401.03 398.95 401.95 401.17 401.79 407.71 397.37 415.33 393.21 418.19 392.19 427.36 392.98 429.51 393.78 432.69 396.22 434.59 396.83 436.75 396.35 441.58 391.68 444.12 390.16 448.27 389.84 451.5 390 462.42 391.71 464.9 391.68 467.91 389.91 470.06 388.29 477.39 377.16 477.4 377.15 512.27 400.13 570.93 438.78 614.15 467.28 619.4 481.22 619.45 484.37 Z" id="TGO-88" data-name="Kara"/>
<path d="M 727.27 1043.87 727.42 1056.1 728.01 1060.93 730.09 1065.51 740.67 1078.83 742.41 1082.83 740.88 1090.07 727.42 1112.17 726.79 1115.64 726.79 1122.75 724.76 1132.74 725.93 1134.44 575.42 1132.59 575.55 1135.11 575.29 1136.89 573.52 1140.48 573.07 1142.48 572.82 1160.15 573.07 1162.62 573.64 1164.81 576.37 1170.48 576.88 1172.73 577.26 1177.84 577.71 1180.2 578.98 1184.46 579.29 1186.68 578.47 1193.55 578.85 1195.67 579.55 1197.64 580.56 1199.32 581.96 1200.82 584.97 1203.56 585.98 1205.3 586.62 1207.43 586.93 1209.91 586.93 1217.88 586.55 1220.36 584.58 1226.97 583.76 1231.77 583.44 1239.68 581.52 1248.83 581.77 1258.81 581.45 1261.23 580.82 1263.39 575.23 1274.76 574.6 1276.64 574.79 1278.6 575.8 1280.16 578.02 1282.71 577.71 1283.95 577.39 1284.55 577.01 1284.96 564.56 1293.61 552.22 1297.29 517.73 1304.28 510.21 1304.69 503.61 1304.05 497.58 1302.59 493.39 1300.72 490.07 1299.61 472.73 1296.12 468.16 1294.5 462.23 1294.46 422.91 1299.48 417.05 1299.42 415.02 1298.53 413.05 1298.09 411.02 1298.69 406.83 1304.75 405.37 1305.97 403.71 1306.95 399.46 1308.13 366.72 1312.45 362.97 1313.91 356.56 1317.98 353.36 1320.49 351.08 1322.71 344.73 1325.38 324.2 1327.25 315.86 1328.71 311.84 1301.61 312.18 1286.35 311.97 1278.5 308.2 1263.22 306.68 1243.96 304.52 1233.91 306.55 1231.01 309.77 1228.54 312.01 1223.24 311.29 1217.58 308.45 1214.06 305.28 1211.03 303.59 1206.72 304.05 1201.42 306.17 1199.83 309.3 1199.45 312.73 1197.82 326.36 1185.64 333.22 1181.15 351.29 1173.2 357.85 1169.14 360.94 1162.91 359.33 1152.84 357.81 1151.44 352.9 1150.66 351.29 1149.26 351.04 1147.32 351.38 1143.22 350.36 1137.21 350.49 1132.51 349.6 1128.26 333.89 1115.32 328.6 1099.82 321.45 1084.77 294.61 1072.25 283.95 1064.59 274.04 1055.52 267.06 1047.49 250.68 1036.4 234.38 1013.79 222.38 988.11 219.78 973.08 218.88 967.84 221.66 963.95 226.82 963 231.67 964.86 236.05 974.07 240.35 969.34 243.08 962.49 240.88 960.89 245.19 959.46 248.99 959.99 253.13 961.25 258.44 962.09 262.95 959.94 264.39 954.54 264.98 948.16 267.06 943.04 267.1 942.98 278.38 939.85 286.97 936.57 295.16 929.14 297.39 928.25 303.73 928.16 306.46 927.36 308.58 925.86 310.36 922.72 310.36 920.34 309.41 918.62 307.88 917.35 306.72 915.95 306.53 913.85 307.18 911.85 309.47 909.56 325.85 898.92 327.06 897.3 327.88 895.23 328.45 892.89 328.9 890.49 330.17 886.21 331.84 884.62 334.13 883.35 341.49 882.02 344.35 880.86 348.48 876.55 349.3 875.37 349.36 875.15 350.32 873.72 351.65 872.58 360.31 866.6 362.34 864.38 363.8 862.22 364.56 860.19 365.58 858.3 366.78 856.56 368.5 855.48 370.59 854.91 373.45 855.67 376.43 856.14 380.01 856.27 385.28 855.73 387.69 856.78 389.15 858.5 389.6 860.85 390.42 862.95 391.5 864.63 404.48 869.44 407.14 869.84 412.41 870.17 414.95 870.58 421.62 872.99 424.24 873.44 426.78 873.59 429.32 873.5 444.63 870.39 452.01 869.63 455.25 868.44 458.81 866.44 464.71 861.71 470.19 856.02 477.18 850.02 478.7 847.41 479.08 845.15 474.51 835.56 473.56 831.36 473.62 816.3 472.86 808.7 473.05 803.94 474.06 799.07 475.78 794.79 476.8 793.11 477.94 791.87 478.89 791.11 492.82 787.89 523.57 783.7 529.85 783.7 550.26 788.08 555.21 788.33 563.1 787.95 619.65 772.2 626.89 772.45 634.53 768.51 650.6 755.72 650.66 755.67 652.75 758.87 685.47 792.88 710.91 819.39 719.34 834.07 722.6 843.93 724.8 855.11 725.48 906.36 726.07 951.07 726.58 989.04 727.27 1043.87 Z" id="TGO-89" data-name="Centre"/>
<path d="M 21.91 5.23 43.18 9.53 93.44 19.67 186.8 38.49 222.52 45.71 268.33 54.97 269.22 55.55 269.77 56.48 269.98 57.77 269.43 59.59 269.13 61.3 268.54 62.97 267.1 64.6 273.7 66.24 268.75 83.63 319.92 65.88 345.62 60.98 385.03 60.23 438.23 59.25 427.74 84.47 426.55 92.61 427.52 97.02 430.95 105.34 431.55 109.77 425.15 121.85 424.35 126.23 423.71 135.58 422.44 139.8 417.15 147.33 394.89 168.3 389.01 182 392.26 218.9 391.97 234.91 385.96 257.72 380.24 299.9 380.58 309.32 383.88 315.49 414.87 335.94 453.81 361.6 477.4 377.15 477.39 377.16 470.06 388.29 467.91 389.91 464.9 391.68 462.42 391.71 451.5 390 448.27 389.84 444.12 390.16 441.58 391.68 436.75 396.35 434.59 396.83 432.69 396.22 429.51 393.78 427.36 392.98 418.19 392.19 415.33 393.21 407.71 397.37 401.17 401.79 398.95 401.95 397.34 401.03 396.33 399.25 395.44 397.3 394.36 395.62 392.33 394.48 389.73 393.59 377.22 392.79 372.75 394.57 370.85 396.25 370.72 398.13 371.42 400.3 372.5 405.95 371.48 410.97 369.58 415.07 357.51 431.75 353.58 439.69 351.97 444.33 350.83 449.42 350.57 461.94 350.89 465.87 350.83 467.53 350.19 469.82 348.98 472.42 346.76 475.79 345.68 478.72 344.48 484.02 343.27 486.82 342.57 489.36 342.38 491.78 342.76 493.91 347.65 507.54 348.16 512.49 347.65 515.39 347.14 515.67 343.4 514.88 339.27 515.96 336.92 515.42 333.24 513.22 330.89 512.49 317.98 513.79 312.71 513.73 306.46 515.23 301.64 516.85 298.4 517.04 296.05 516.4 294.46 515.2 291.04 510.14 289.58 508.71 287.92 507.54 284.16 505.57 282.76 504.11 281.55 502.49 280.79 500.57 280.41 498.57 280.79 496.67 282.7 493.33 282.95 491.75 281.87 490.45 279.97 489.77 277.62 489.58 273.81 489.77 267.27 488.5 262.32 488.63 259.12 488.18 256.77 487.26 253.72 484.63 251.82 483.74 244.71 482.56 242.99 481.48 241.85 479.86 241.28 477.73 241.15 475.35 241.79 470.68 241.85 468.39 241.34 466.03 240.33 463.84 235.99 457.11 233 453.29 230.63 451.27 232.09 444.49 230.87 436.2 227.56 433.5 223.06 432.42 217.86 429.11 213.85 418.53 216 389.52 215.32 375.74 218.28 370.24 219.46 363.52 221.41 357.25 231.46 349.84 223.1 342.99 219.17 341.13 201.21 344.09 195.5 344.16 199.1 335.87 194.79 329.34 187.82 323.11 183.22 315.68 183.8 312.18 185.16 307.84 184.98 303.32 180.94 299.31 176.75 298.36 173.03 299.52 169.19 301.38 164.55 302.58 160.61 302.03 149.74 297.81 148.66 298.99 147.56 301.67 145.83 304.08 142.7 304.4 141.51 302.96 120.64 264.5 114.15 257.68 92.48 244.22 89.11 240.19 84.32 231.09 81.09 227.26 77.36 225 64.56 220.81 60.85 218.33 58.29 215.86 55.37 213.93 45.91 212.73 41.03 211.48 36.53 209.35 32.94 206.39 28.76 197.92 29.02 189.38 31.53 179.04 32.94 173.25 35.12 156.12 38.23 148.98 44.01 141.73 52.37 136.13 55.9 132.8 56.66 128.45 54.57 120.4 54.25 116.43 63.12 75.29 65.11 71.43 68.39 68.04 71.97 65.78 74.84 62.97 75.82 57.84 76.98 43.33 75.67 30.65 69.49 21.06 55.82 15.91 48.11 16.04 34.21 19.67 26.7 20.43 19.17 18.52 10.84 13.96 4.05 7.77 1 1 21.91 5.23 Z" id="TGO-90" data-name="Savanes"/>
</g>
</svg>