<?xml version="1.0"?>
<svg xmlns="http://www.w3.org/2000/svg" version="1.2" baseProfile="tiny" width="800" height="935" viewBox="0 0 800 935" stroke-linecap="round" stroke-linejoin="round">
<g id="ne_10m_admin_1_states_provinces">
<path d="M 598.12 158.52 583.04 166.44 576.6 149.55 574.17 101.7 568.83 80.19 562.01 62.2 557.19 43.84 558.14 20.99 562.44 24.85 564.25 28.67 566.16 37.73 573.31 51.95 591.92 73.37 598.12 85.72 597.78 102.13 593.16 116.01 593.16 127.03 606.9 134.48 612.72 112.63 614.43 82.76 607.18 56.34 586.1 45.03 577.61 32.2 583.19 9.68 599.45 1 622.83 29.72 614.96 34.2 606.9 37.73 622.4 43.03 646.97 34.87 662.18 37.73 681.08 51.47 697.39 70.08 710.27 90.49 718.9 109.77 727.3 144.88 728.45 164.24 726.25 182.56 718.33 204.6 710.27 208.61 698.2 207.56 678.17 214.52 670.77 193.58 649.92 178.7 598.12 158.52 Z" id="ATG-5091" data-name="Barbuda"/>
<path d="M 4.13 925.48 5.29 923.99 7.1 923.42 7.26 926.38 7.1 930.26 5.45 933.22 2.4 933.88 1 931.9 2.15 927.54 4.13 925.48 Z" id="ATG-5092" data-name="Redonda"/>
<path d="M 694.86 720.28 688.36 727.32 694.34 736.89 695.54 748.85 682.38 753.64 674 770.38 665.63 766.8 648.88 756.03 651.27 742.87 647.68 717.75 638.11 709.37 636.92 685.44 653.67 684.25 651.55 660.75 666.43 681.6 675.4 705.78 694.86 720.28 Z" id="ATG-5093" data-name="Saint George"/>
<path d="M 743.62 744.99 727.84 756.03 721.86 778.76 703.91 783.54 674 783.54 674 770.38 682.38 753.64 695.54 748.85 694.34 736.89 688.36 727.32 694.86 720.28 696.01 709.88 699.16 703.01 710.22 688.23 716.9 698.24 726.01 704.06 737.46 705.97 750.91 704.25 745.19 710.46 741.9 714.84 736.94 717.99 726.25 720.28 731.59 737.07 743.62 744.99 Z" id="ATG-5094" data-name="Saint Peter"/>
<path d="M 730.26 809.01 721.86 778.76 727.84 756.03 743.62 744.99 759.07 744.56 774.96 736.26 783.69 736.26 789.7 742.04 793.7 747.86 799 761.02 791.03 760.45 774.91 761.59 766.94 761.02 777.82 774.09 787.88 780.34 793.61 786.64 790.99 800.33 777.77 820.65 764.51 821.51 749.34 814.07 730.26 809.01 Z" id="ATG-5095" data-name="Saint Philip"/>
<path d="M 730.26 809.01 721.15 813.26 720.72 823.9 726.25 852.76 717.47 866.73 698.25 857.86 679.21 841.26 670.91 832.39 663 834.3 639 845.55 630.94 826.61 634.53 813.45 626.15 797.9 635.72 788.33 662.04 781.15 674 783.54 703.91 783.54 721.86 778.76 730.26 809.01 Z" id="ATG-5096" data-name="Saint Paul"/>
<path d="M 626.15 797.9 634.53 813.45 630.94 826.61 639 845.55 622.83 848.32 598.4 848.46 583.14 845.17 545.69 823.32 537.82 812.64 545.74 796.66 550.89 783.25 546.69 771.8 547.12 761.74 566.16 752.29 580.69 742.87 591.46 752.44 611.79 757.22 612.99 760.81 607.01 773.97 602.22 803.88 620.17 784.74 626.15 797.9 Z" id="ATG-5097" data-name="Saint Mary"/>
<path d="M 651.55 660.75 653.67 684.25 636.92 685.44 638.11 709.37 647.68 717.75 651.27 742.87 648.88 756.03 665.63 766.8 674 770.38 674 783.54 662.04 781.15 635.72 788.33 626.15 797.9 620.17 784.74 602.22 803.88 607.01 773.97 612.99 760.81 611.79 757.22 591.46 752.44 580.69 742.87 566.16 752.29 557.76 749.14 533.38 736.26 546.31 724.58 567.11 715.99 594.11 708.26 584.62 692.76 586.57 678.88 597.26 666.71 614.15 656.26 651.55 660.75 Z" id="ATG-5098" data-name="Saint John"/>
</g>
</svg>