<?xml version="1.0"?>
<svg xmlns="http://www.w3.org/2000/svg" version="1.2" baseProfile="tiny" width="800" height="598" viewBox="0 0 800 598" stroke-linecap="round" stroke-linejoin="round">
<g id="ne_10m_admin_1_states_provinces">
<path d="M 207.88 447.97 206.95 453.98 205.44 455.59 204.09 456 203.61 456.22 203.22 456.62 202.66 458.21 201.99 458.83 201.17 459.35 197.27 461.15 196.88 461.2 195.53 461.15 194.82 461.2 194.31 461.34 193.54 461.63 192.84 461.99 185.94 467.8 184.44 469.84 184.21 470.32 183.95 471.07 182.15 478.74 181.77 479.76 180.84 480.97 171.5 489.44 169.88 490.38 161.45 493.93 160.87 493.99 160.1 493.78 154.89 491.61 154.08 491.37 153.42 491.36 152.9 491.9 152 493.45 151.37 494.8 150.52 499.03 150.27 499.83 149.9 500.53 149.18 500.77 148.35 500.86 144.86 500.85 144.53 500.94 144.03 501.17 143.67 501.81 142.62 504.16 142.16 504.72 141.43 504.99 139.95 505.28 138.93 505.57 138.73 505.84 138.6 506.1 138.48 507.12 138.22 508.28 137.86 509.36 137.79 509.94 137.84 510.22 137.92 510.48 138.36 511.42 138.42 511.69 138.43 511.99 137.93 514.3 137.14 516.37 136.23 517.81 135.88 518.11 135.55 518.29 135.23 518.29 134.93 518.25 134.4 518.07 133.75 517.68 133.56 517.59 133.41 517.55 132.35 517.42 131.69 517.43 129.99 517.83 125.57 521.18 125.33 521.32 124.82 521.51 124.28 521.67 123.98 521.73 123.36 521.76 122.76 521.66 121.6 521.38 121.31 521.34 120.94 521.39 120.54 521.52 119.87 521.86 119.39 522.26 118.75 522.96 118.42 523.45 118.22 523.83 118.15 524.14 118.14 524.41 118.2 524.72 121.3 531.55 121.42 531.63 121.68 531.68 129.35 532.43 130.14 532.67 130.72 533.03 130.97 533.89 130.91 534.28 130.73 534.56 129.86 535.1 128.12 536.52 127.91 536.66 126.73 537.23 125.99 537.76 125.27 538.38 124.94 538.77 124.74 539.12 124.67 539.4 124.58 540.02 124.6 540.65 124.69 541.25 125.56 544.5 125.64 545.1 125.65 545.74 125.54 546.7 125.28 547.87 125.24 549.17 125.53 552.62 125.68 553.58 125.88 554.17 125.88 555.54 126.05 556.05 128.09 556.05 128.13 556.17 128.39 556.31 128.69 556.28 128.84 555.86 128.91 555.57 129.06 555.2 129.28 554.86 129.49 554.64 129.98 554.5 130.44 554.66 130.77 555.12 130.91 555.86 130.92 557.14 131.1 558.55 131.66 559.71 132.78 560.18 133.86 560.41 135.67 561.49 136.78 561.92 136.18 562.68 134.98 562.73 134.47 562.83 133.44 562.79 132.96 562.89 132.4 563.24 131.59 564.19 131.13 564.56 130.6 564.69 130.07 564.34 129.52 564.55 129.25 564.85 129.11 565.21 129.01 565.6 128.84 566 128.14 567.09 127.68 567.35 125.9 566.88 125.55 566.95 124.95 567.39 124.64 567.54 124.39 567.51 123.95 567.26 123.76 567.23 121.96 567.71 121.73 567.85 121.27 568.28 120.99 568.45 120.61 568.48 120.45 568.25 120.37 567.98 120.23 567.86 119.64 567.84 119.16 567.77 118.81 567.91 118.57 568.54 118.29 569.06 118.03 568.98 117.74 568.69 117.37 568.6 117.11 568.79 116.69 569.36 116.57 569.49 115.92 569.55 114.77 569.5 114.07 569.59 112.85 570.14 112.41 571.02 112.45 572.16 112.95 574.97 114.65 579.7 114.93 580.2 115.29 580.61 115.81 581.03 116.35 581.27 116.83 581.39 117.16 581.62 117.26 582.25 117.23 583.12 116.86 583.19 116.33 583 115.83 583.05 115.48 583.41 115.08 584.14 114.74 584.52 114.3 584.64 113.83 584.58 113.4 584.69 113.11 585.34 113.18 585.89 113.77 586.76 113.87 587.28 111.24 585.08 107.24 579.6 103.7 574.72 99.93 569.55 97.76 566.58 96.8 564.81 96.92 563.35 97.68 562.72 100.59 562.13 100.82 561.95 101.18 561.46 101.5 561.29 101.65 561.34 102.2 561.59 102.45 561.64 105.45 561.39 106.19 561.2 106.54 560.66 106.44 559.55 106.45 559.3 106.61 558.77 106.61 558.55 106.41 558.17 105.77 557.48 105.48 557.09 105.07 556.31 104.82 555.67 104.44 552.63 104.28 552 103.94 551.31 103.48 550.75 102.56 550.19 102.03 549.77 101.49 549.23 101.3 548.96 101.01 547.97 99.69 546.46 97.66 545.92 92.76 545.52 92.29 545.78 91.44 546.7 90.88 547.07 90.48 547 90.13 546.83 89.72 546.91 89.49 547.16 89.15 547.83 88.29 549.07 87.76 550.06 87.16 550.93 86.3 551.48 85.41 551.58 79.02 551.04 73.86 550.6 72.18 550.17 70.77 549.39 67.3 546.52 64.52 544.23 60.41 540.83 59.11 539.76 55.38 536.67 52.36 534.17 49.48 531.8 47.96 531.05 44.35 530.76 42.9 529.98 42.46 529.17 42.31 528.21 42.31 527.28 42.29 524.07 42.26 519.32 42.24 515.04 42.9 513.02 43.97 513.2 48.01 514.78 50.72 515.45 51.84 515.9 52.19 515.8 52.7 514.07 52.94 513.51 53.2 513.24 54.11 513.5 54.94 514.22 55.92 514.68 57.29 514.15 56.33 513.09 55.55 512.56 54.7 512.35 52.57 512.09 51.66 511.8 46.17 509.31 44.51 508.12 43.56 506.58 43.3 504.31 41.26 502.19 38.53 500.59 36.2 499.9 34.31 500.08 33.41 500.03 32.42 499.56 31.81 499 31.77 498.66 31.94 498.45 31.98 498.27 31.94 497.96 31.95 497.55 31.8 497.2 31.29 497.1 24.6 497.3 23.27 496.85 22.57 495.6 22.79 494.83 23.28 493.78 23.58 492.83 23.24 492.35 22.27 492 21.7 491.41 21.18 490.74 19.48 489.65 18.72 488.96 18.51 488.67 18.11 488.13 17.68 487.2 17.28 486.76 16.23 486.08 15.92 485.72 15.89 485.19 16.3 484.28 16.32 483.84 15.78 483.25 14.9 482.8 14.06 482.25 13.66 481.36 13.56 480.46 13.03 480.02 12.37 479.7 11.91 479.19 11.9 478.74 12.32 477.93 12.38 477.6 12.16 477.18 11.89 476.91 11.57 476.68 11.26 476.33 10.62 475.39 10.39 474.81 10.61 474.22 11.82 472.39 12.06 471.79 12.33 470.23 12.51 469.77 12.99 469.17 13.04 468.75 12.9 468.46 10.76 465.64 3.49 459.18 2.8 458.57 1.3 456.13 1 453.58 4.37 444.27 4.03 442.73 2.57 439.81 2.66 438.37 3.27 437.58 3.97 437.02 4.43 436.35 4.31 435.2 4.02 432.69 4.04 431.44 4.45 430.91 11.1 432.55 12.81 432.56 14.41 432.23 17.68 431.11 19.26 431.03 27.09 433.75 27.78 433.69 29.18 433.36 30.61 432.81 32.09 432.27 39.81 432.02 41.18 431.74 42.41 431.15 46.64 427.32 49.94 424.33 53.98 420.68 57.4 417.6 58.76 416.8 60.46 416.4 64.18 416.27 69.05 416.11 73.92 415.95 78.79 415.79 83.66 415.62 88.54 415.46 93.41 415.3 98.29 415.14 103.16 414.98 108.04 414.82 112.91 414.65 117.78 414.49 122.65 414.33 127.53 414.17 132.4 414 137.28 413.85 142.15 413.68 144.64 413.6 144.93 412.93 144.93 411.07 145.03 410.14 145.16 409.64 145.52 409.38 146.33 409.19 148.32 409.15 154.34 410.15 163.83 411.72 169.02 412.58 169.3 412.67 170.22 412.85 170.69 407.04 171.2 405.69 175.62 403.07 179.56 398.85 181.41 397.87 185.42 397.13 187.32 396.13 188.59 394.65 188.72 394.34 189.13 395.05 200.39 426.19 200.19 433.2 200.34 435.39 200.73 436.4 207.88 447.97 Z M 101.67 510.92 103.21 510.77 103.54 511.44 103.83 512.35 104.2 513.15 105.26 512.36 106.07 511.73 107.06 509.76 107.68 507.61 108.13 505.54 108.22 504.02 108.13 502.67 107.33 502.22 106.07 502.49 105.62 501.96 105.71 500.43 105.26 500.25 102.93 500.43 100.24 500.52 97.82 499.98 95.85 499.98 94.05 500.69 93 501.97 92.8 503.12 92.89 504.92 93.78 506.8 94.95 508.41 96.47 509.85 98.18 510.48 100.06 510.74 101.67 510.92 Z" fill-rule="evenodd" id="NER-4859" data-name="Tillabéri"/>
<path d="M 778.69 279.35 778.65 279.79 778.45 282.09 778.24 284.39 778.04 286.69 777.84 289 777.63 291.3 777.42 293.6 777.22 295.9 777.02 298.21 776.82 300.51 776.62 302.81 776.41 305.11 776.21 307.41 776.01 309.71 775.8 312.02 775.59 314.31 775.39 316.62 775.19 318.92 774.98 321.22 774.78 323.52 774.58 325.82 774.38 328.13 774.18 330.43 773.97 332.73 773.86 334.01 773.68 334.6 773.53 335.12 772.87 336.05 771.16 337.83 768.33 340.77 765.5 343.72 762.67 346.66 759.84 349.6 757 352.55 754.17 355.49 751.35 358.43 748.52 361.38 745.68 364.32 742.85 367.26 740.03 370.21 737.2 373.15 734.37 376.09 731.54 379.03 728.7 381.98 725.87 384.92 723.92 386.95 720.96 390.03 718.21 392.89 716.77 394.85 715.27 396.91 713.76 398.96 712.26 401.02 710.75 403.07 709.24 405.13 707.74 407.18 706.23 409.24 704.73 411.29 703.22 413.34 701.72 415.4 700.21 417.45 698.7 419.51 697.2 421.56 695.69 423.62 694.19 425.68 692.68 427.73 691.22 429.72 689.91 432.44 688.27 435.88 687.51 437.45 687.24 438.42 687.18 439.49 687.38 440.52 688.09 442.67 688.16 443.7 687.71 444.88 686.94 445.28 685.98 445.36 684.96 445.58 684.46 445.96 682.85 447.72 681.85 448.39 681.67 448.66 681.75 448.92 682.29 449.39 682.46 449.69 682.78 451.62 682.73 452.56 682.33 453.47 680.64 454.86 679.82 455.01 678.63 455.24 676.58 455.4 674.76 456.14 673.48 456.76 671.82 459.01 671.81 461.98 672.77 465.48 673.48 468.05 674 470.37 674.36 471.98 674.72 473.58 675.09 475.19 675.45 476.8 675.81 478.41 676.17 480.01 676.53 481.62 676.89 483.23 677.26 484.83 677.62 486.44 677.97 488.05 678.33 489.66 678.7 491.26 679.06 492.87 679.42 494.48 679.78 496.09 667.31 495.57 667.25 495.58 665.79 495.82 665.33 496.18 665.35 497.04 664.58 497.57 662.57 499.42 662.22 499.88 661.95 500.38 661.94 500.59 662.19 500.95 662.26 501.23 662.12 501.63 661.8 501.7 661.45 501.68 661.23 501.76 660.76 502.46 660.86 502.71 661.58 502.8 660.65 503.96 659.43 504.4 658.07 504.64 656.72 505.24 656.9 504.83 657.01 504.33 656.9 503.92 656.41 503.83 656.13 504.04 655.75 504.88 655.38 505.24 655.39 504.7 655.38 504.52 654.55 504.79 653.6 504.84 653.03 504.63 653.31 504.14 653.31 503.83 651.91 503.94 650.62 504.41 646.08 506.63 644.69 506.89 643.28 506.59 643.08 507.41 642.62 507.45 641.97 507.14 641.19 506.93 641.19 507.31 641.61 507.42 641.96 507.63 642.28 507.93 642.6 508.34 641.93 508.87 640.53 510.41 640.5 510.55 640.57 510.96 640.53 511.09 640.38 511.12 639.94 511.06 639.81 511.09 639.59 511.21 638.92 511.45 638.78 511.63 638.98 512.22 639.3 512.6 639.32 512.79 638.61 512.85 638.5 512.67 638.21 512.32 637.91 512.1 637.77 512.3 637.71 512.33 637.37 513.16 636.07 514.72 635.24 515.35 634.1 515.6 633.51 515.87 633.16 517.03 632.72 517.3 631.95 517.15 631.45 516.8 631.02 516.35 630.48 515.95 630.42 516.77 630.32 517.07 629.98 517.41 629.63 517.66 629.27 517.77 629.1 517.48 628.84 517.66 627 519.36 626.85 520.18 626.2 521.1 625.85 521.85 626.66 522.15 626.34 523.26 626.07 523.8 625.66 524.25 625.28 524.36 624.14 524.57 623.91 524.75 623.48 527.44 623.25 528.04 622.54 528.37 621.72 528.21 620.75 527.88 619.6 527.69 618.21 527.64 616.43 527.58 615.61 527.35 615.13 527.63 614.76 527.38 614.38 526.94 613.88 526.66 613.4 526.72 613.09 526.97 612.86 527.23 612.68 527.35 612.28 527.28 612.19 527.09 612.17 526.81 611.97 526.47 611.4 526.16 608.86 525.28 608.02 525.45 606.96 526.16 606.24 526.28 604.57 526.42 601.6 525.72 600.61 525.23 598.29 523.43 591.27 519.23 585.69 517.01 570.44 513.22 545.87 513.35 536.71 512.3 531.85 512.68 530.48 512.97 530.47 512.96 530.33 512.7 528.7 506.92 528.87 506.09 529.24 504.89 537.98 496.02 538.34 495.46 538.54 495.09 538.64 494.69 538.72 494.09 538.73 492.74 538.64 491.74 538.67 491.3 538.93 490.91 559.42 472.46 560.43 471.8 561.08 471.72 561.8 471.93 563.82 473.06 564.43 473.32 564.87 473.34 565.48 473.21 574.68 470.4 587.36 462.4 588.01 462.09 588.51 461.99 592.67 462.2 593.38 462.11 594.03 461.79 597.44 459.44 597.77 458.98 597.5 458.6 595.47 457.91 594.88 457.6 594.53 457.15 594.25 456.61 593.96 455.84 593.83 455.14 593.98 453.95 594.16 453.31 594.43 452.7 594.91 452.24 596.27 451.38 597.72 450.69 598.61 450.59 598.7 450.46 598.57 304.56 599.61 304.04 600.41 303.32 610.65 296.64 649.15 279.38 778.25 279.35 778.67 279.35 778.69 279.35 Z" id="NER-796" data-name="Diffa"/>
<path d="M 749.03 27.32 749.64 30.48 750.25 33.64 750.85 36.8 751.46 39.96 752.06 43.12 752.67 46.28 753.28 49.44 753.88 52.6 754.49 55.76 755.09 58.92 755.7 62.08 756.31 65.24 756.91 68.4 757.52 71.57 757.93 73.71 758.34 75.85 758.73 77.89 758.75 78.88 758.79 81.51 758.86 85.22 758.93 89.49 759 93.75 759.07 97.46 759.12 100.09 759.13 101.09 759.15 102.41 759.36 103.22 760.15 103.96 762.53 105.13 763.5 105.77 765.23 107.76 766.43 109.5 767.27 110.74 768.12 111.97 768.97 113.21 769.81 114.44 770.66 115.68 771.51 116.91 772.34 118.15 773.19 119.39 774.04 120.62 774.88 121.86 775.73 123.1 776.57 124.33 777.42 125.57 778.26 126.8 779.11 128.04 779.95 129.27 780.79 130.49 778.75 131.59 777.51 133.54 777.09 135.87 777.5 138.14 778.1 139.42 778.82 140.52 779.72 141.48 783.82 144.56 785.22 146.02 788.16 149.09 791.11 152.16 794.04 155.24 796.98 158.31 798.18 159.56 798.89 160.65 799 161.49 798.63 162.35 797.6 164.13 795.57 167.61 793.55 171.09 791.53 174.57 789.52 178.05 788.75 179.36 787.18 183.32 787 185.42 786.79 187.72 786.59 190.03 786.38 192.33 786.18 194.63 785.97 196.93 785.77 199.23 785.57 201.53 785.36 203.84 785.16 206.14 784.96 208.44 784.75 210.74 784.55 213.04 784.35 215.35 784.14 217.65 783.94 219.95 783.74 222.25 783.53 224.55 783.33 226.85 783.13 229.15 782.92 231.46 782.72 233.76 782.51 236.06 782.31 238.36 782.11 240.66 781.91 242.96 781.7 245.26 781.5 247.57 781.3 249.87 781.09 252.17 780.89 254.47 780.68 256.77 780.48 259.07 780.28 261.38 780.07 263.68 779.87 265.98 779.67 268.28 779.47 270.58 779.26 272.88 779.06 275.19 778.85 277.49 778.69 279.35 778.67 279.35 778.25 279.35 649.15 279.38 610.65 296.64 600.41 303.32 599.61 304.04 598.57 304.56 581.45 310.53 560.82 324.16 545.97 328.45 463.52 380.25 445.77 386.78 425.09 397.91 415.84 401.07 412.84 401.36 403.64 401.15 402.69 401.22 401.69 401.41 397.73 403.44 389.11 403.54 368.88 400.55 366.9 402.67 362.81 413.83 352.7 408.55 350.03 408.34 329.98 409.09 326.98 380.22 328.08 372.08 328.06 371.26 327.83 370.55 326.99 370.1 319.18 368.13 318.84 368 318.14 367.59 314.7 365.05 314.41 364.75 314.1 364.37 313.24 362.91 313.1 362.4 302.07 336.79 301.83 336.43 297.39 331.63 286.07 323.35 259.09 307.08 258.06 306.3 256.94 305.29 250.27 296.53 241.49 289.53 240.8 288.85 240.46 288.12 239.35 283.03 239.01 282.37 238.34 282.1 232.97 281.72 232.1 281.52 231.32 281.15 230.8 280.26 230.55 279.67 230.4 279.19 230.36 278.89 230.36 278.29 230.64 277.69 232.14 275.4 232.26 274.78 231.72 268.76 231.78 268.46 232.17 267.44 232.24 267.16 232.26 266.85 232.23 266.55 232.09 266 231.81 265.24 231.59 264.1 231.56 263.47 231.59 263.16 231.65 262.86 232.04 261.62 238.65 248.46 233.88 247.1 207.45 246.8 206.7 246.8 206.7 246.68 206.68 240.44 206.66 234.2 206.64 227.97 206.62 221.73 216.14 219.9 225.65 218.08 235.17 216.25 244.69 214.43 249.72 213.47 260.77 211.35 271.81 209.23 276.84 208.27 283.34 207.02 285.61 206.21 287.8 204.76 291.77 201.34 294.95 198.61 298.14 195.87 301.32 193.13 304.5 190.4 307.68 187.66 310.86 184.93 314.04 182.19 317.23 179.45 320.4 176.72 323.58 173.98 326.76 171.25 329.94 168.51 333.13 165.77 336.3 163.04 339.48 160.3 342.66 157.57 345.57 155.06 347.48 153.46 351.39 150.26 354.99 147.33 358.59 144.39 362.2 141.45 365.79 138.51 370.79 134.43 377.41 130.54 380.84 128.52 384.27 126.49 387.7 124.47 391.14 122.44 394.57 120.42 398 118.39 401.44 116.37 404.86 114.34 408.3 112.32 411.74 110.3 415.17 108.27 418.6 106.25 422.03 104.23 425.47 102.2 428.9 100.18 432.33 98.15 435.77 96.13 439.2 94.1 442.64 92.08 446.07 90.06 449.5 88.03 452.93 86.01 456.37 83.98 459.8 81.96 463.23 79.94 466.67 77.91 470.1 75.89 473.53 73.87 476.97 71.84 480.4 69.82 483.83 67.79 487.26 65.77 490.7 63.74 494.13 61.72 497.56 59.7 500.99 57.67 504.43 55.65 507.86 53.63 511.29 51.6 514.73 49.57 518.16 47.55 521.59 45.53 525.03 43.5 528.46 41.48 531.89 39.46 535.32 37.43 538.76 35.41 542.19 33.39 545.63 31.36 549.06 29.34 552.5 27.32 555.93 25.29 559.36 23.26 562.8 21.24 566.22 19.22 569.66 17.19 573.1 15.17 576.52 13.15 579.96 11.12 583.39 9.1 586.82 7.07 590.26 5.05 593.69 3.03 597.12 1 601.57 2 606.02 2.99 610.48 3.98 614.93 4.97 619.38 5.97 623.84 6.96 628.28 7.95 632.73 8.94 637.19 9.94 641.64 10.93 646.09 11.92 650.54 12.92 654.99 13.91 659.44 14.91 663.9 15.9 668.35 16.89 673.48 18.04 679.39 21.1 682.23 23.44 688.54 28.63 694.86 33.83 701.16 39.02 707.47 44.22 709.77 46.11 710.5 46.46 711.29 46.38 714.47 44.77 723.11 40.41 731.74 36.05 740.36 31.7 749 27.34 749 27.33 749.03 27.32 Z" id="NER-800" data-name="Agadez"/>
<path d="M 362.81 413.83 366.07 415.67 366.76 417.37 367.02 424.41 367.22 425.41 369.24 428.79 369.83 430.41 371.43 438.68 371.73 439.37 372.19 440 373.1 441 373.59 441.69 374.69 444.89 375.41 445.65 376.24 446.25 380.57 448.6 381.28 449.08 381.72 449.55 381.89 450.27 382.16 456.53 382.26 457.19 382.53 457.88 383.19 458.38 385.7 459.54 386.5 459.76 387.15 459.73 387.97 459.19 392.6 455.18 393.37 454.72 394.25 454.57 397.04 454.65 397.49 454.73 397.68 454.9 399.35 457.46 400.14 458.38 400.57 458.67 402.57 459.58 403.14 459.74 404.1 460.19 405.75 461.47 406.02 461.58 406.34 461.64 407.37 461.69 407.93 461.96 408.66 462.46 411.27 464.8 411.51 464.95 413.5 465.88 414.14 466.27 414.71 466.75 414.9 467.04 415.09 467.45 415.26 467.96 415.58 469.7 415.73 470.06 416.05 470.59 422.32 474.85 423.07 475.58 423.32 476.39 423.43 477.26 423.42 478.84 423.5 479.49 423.63 480.11 423.99 481.09 424.19 482.91 424.2 484.64 424.11 485.45 423.88 486.15 423.27 486.63 408.87 493.75 408.61 493.98 408.44 494.18 408.29 494.38 408.11 494.71 407.84 495.38 407.75 495.66 407.67 496.25 407.75 496.9 407.93 497.38 408.37 498.22 409.08 498.75 409.91 499.21 411.64 499.97 412.4 500.39 412.93 500.88 412.93 501.6 411.75 505.51 411.75 506.29 412.95 513.39 412.95 514.24 412.64 515.08 409.58 520.63 409.34 520.95 409.34 520.95 409.29 520.92 407.79 520.53 407.05 520.19 405.35 518.88 403.96 518.03 402.77 516.93 402.19 516.49 400.8 515.97 388.01 514.19 386.28 514.36 384.56 515.1 366.22 525.93 364.64 526.43 362.83 526.42 357.57 525.48 356.44 525.69 353.37 529.23 350.98 531.29 349.91 531.81 349.61 531.85 348.71 532 344.95 532.02 343.27 531.84 341.73 531.26 340.09 530.07 338.26 528.41 335.27 525.04 334.02 522.79 329.92 515.41 321.68 506.58 314.6 500.01 311.23 498.12 310.33 497.93 310.33 497.92 310.26 497.1 310.25 494.24 310.34 493.39 310.59 492.55 311.24 491.77 312.86 490.18 313.47 489.36 313.47 488.44 312.82 485.81 312.81 485.03 313.25 484.44 314.01 483.82 317.23 481.57 317.72 481.15 318.31 480.53 318.53 480.4 318.77 480.3 319.03 480.21 320.73 479.84 321.16 479.67 321.9 479.24 322.08 479.08 322.31 478.18 322.75 472.8 322.68 470.3 322.48 469.8 322.12 468.46 321.92 467.3 321.78 466.76 320.2 463.06 319.93 461.78 319.79 460.23 322.78 436.49 322.74 435.54 322.85 434.55 329.98 409.09 350.03 408.34 352.7 408.55 362.81 413.83 Z" id="NER-91" data-name="Maradi"/>
<path d="M 530.48 512.97 505.94 518.13 503.84 518.99 494.27 524.24 493.38 525.09 493.16 525.62 492.97 526.85 492.73 527.36 492.33 527.76 492.13 527.8 491.87 527.76 491.34 527.95 490.37 528.56 488.68 530.14 480.02 540.16 479.67 540.56 479.09 541.05 478.54 541.41 478.19 541.55 477.12 541.63 466.41 540.4 465.49 540.46 462.8 541.2 460.93 541.21 446.23 539.52 444.46 539.32 431.16 535.46 429.31 534.42 428.45 533.39 427 531.03 426.01 529.97 423.81 528.35 422.6 527.78 421.24 527.49 420.64 527.49 419.39 527.64 418.81 527.82 418.24 528.1 418.03 528.24 417.84 528.23 417.33 528.03 416.96 527.8 411.92 523.3 410.67 521.83 410 521.26 409.34 520.95 409.34 520.95 409.58 520.63 412.64 515.08 412.95 514.24 412.95 513.39 411.75 506.29 411.75 505.51 412.93 501.6 412.93 500.88 412.4 500.39 411.64 499.97 409.91 499.21 409.08 498.75 408.37 498.22 407.93 497.38 407.75 496.9 407.67 496.25 407.75 495.66 407.84 495.38 408.11 494.71 408.29 494.38 408.44 494.18 408.61 493.98 408.87 493.75 423.27 486.63 423.88 486.15 424.11 485.45 424.2 484.64 424.19 482.91 423.99 481.09 423.63 480.11 423.5 479.49 423.42 478.84 423.43 477.26 423.32 476.39 423.07 475.58 422.32 474.85 416.05 470.59 415.73 470.06 415.58 469.7 415.26 467.96 415.09 467.45 414.9 467.04 414.71 466.75 414.14 466.27 413.5 465.88 411.51 464.95 411.27 464.8 408.66 462.46 407.93 461.96 407.37 461.69 406.34 461.64 406.02 461.58 405.75 461.47 404.1 460.19 403.14 459.74 402.57 459.58 400.57 458.67 400.14 458.38 399.35 457.46 397.68 454.9 397.49 454.73 397.04 454.65 394.25 454.57 393.37 454.72 392.6 455.18 387.97 459.19 387.15 459.73 386.5 459.76 385.7 459.54 383.19 458.38 382.53 457.88 382.26 457.19 382.16 456.53 381.89 450.27 381.72 449.55 381.28 449.08 380.57 448.6 376.24 446.25 375.41 445.65 374.69 444.89 373.59 441.69 373.1 441 372.19 440 371.73 439.37 371.43 438.68 369.83 430.41 369.24 428.79 367.22 425.41 367.02 424.41 366.76 417.37 366.07 415.67 362.81 413.83 366.9 402.67 368.88 400.55 389.11 403.54 397.73 403.44 401.69 401.41 402.69 401.22 403.64 401.15 412.84 401.36 415.84 401.07 425.09 397.91 445.77 386.78 463.52 380.25 545.97 328.45 560.82 324.16 581.45 310.53 598.57 304.56 598.7 450.46 598.61 450.59 597.72 450.69 596.27 451.38 594.91 452.24 594.43 452.7 594.16 453.31 593.98 453.95 593.83 455.14 593.96 455.84 594.25 456.61 594.53 457.15 594.88 457.6 595.47 457.91 597.5 458.6 597.77 458.98 597.44 459.44 594.03 461.79 593.38 462.11 592.67 462.2 588.51 461.99 588.01 462.09 587.36 462.4 574.68 470.4 565.48 473.21 564.87 473.34 564.43 473.32 563.82 473.06 561.8 471.93 561.08 471.72 560.43 471.8 559.42 472.46 538.93 490.91 538.67 491.3 538.64 491.74 538.73 492.74 538.72 494.09 538.64 494.69 538.54 495.09 538.34 495.46 537.98 496.02 529.24 504.89 528.87 506.09 528.7 506.92 530.33 512.7 530.47 512.96 530.48 512.97 Z" id="NER-92" data-name="Zinder"/>
<path d="M 226.66 495.13 220.65 496.56 217.92 497.62 215.56 499.26 207.62 506.68 206.21 507.36 204.7 507.64 201.43 507.75 201.33 519.82 201.16 520.98 199.57 531.8 191.51 544.2 188.25 547.27 177.21 555.39 177 555.93 177.5 568.49 176.14 575.12 176.12 577.3 177.37 581 177.61 582.73 176.75 584.4 175.89 585.27 175.34 586 175.11 586.82 175.4 589.69 175.56 590.18 175.85 590.72 176.02 590.89 176.23 591.01 177.42 592.26 178.04 593.18 178.29 594.18 177.93 595.27 177.32 595.88 174.73 597.41 174.37 597.12 173.9 596.32 173.48 596.09 173.3 595.71 173.2 595.26 173.02 594.87 172.76 594.08 172.57 593.68 172.35 593.47 172.07 593.31 171.73 593.01 170.04 590.64 169.63 590.26 169.07 589.87 167.22 589.22 164.96 587.85 164.4 587.67 163.85 587.36 163.26 587.24 162.55 587.66 161.87 587.97 161.17 587.79 160.55 587.38 160.13 586.99 159.41 586.16 158.25 584.25 157.88 583.34 157.63 582.19 157.51 581.11 157.35 580.84 156.67 580.33 156.51 580.07 147.84 572.28 145.79 569.32 145.3 568.38 145.11 568.12 144.69 567.99 143.01 567.8 142.42 567.59 141.86 567.3 141.45 566.88 141.12 565.75 140.73 565.13 140.23 564.59 139.2 564.05 136.78 561.92 135.67 561.49 133.86 560.41 132.78 560.18 131.66 559.71 131.1 558.55 130.92 557.14 130.91 555.86 130.77 555.12 130.44 554.66 129.98 554.5 129.49 554.64 129.28 554.86 129.06 555.2 128.91 555.57 128.84 555.86 128.69 556.28 128.39 556.31 128.13 556.17 128.09 556.05 126.05 556.05 125.88 555.54 125.88 554.17 125.68 553.58 125.53 552.62 125.24 549.17 125.28 547.87 125.54 546.7 125.65 545.74 125.64 545.1 125.56 544.5 124.69 541.25 124.6 540.65 124.58 540.02 124.67 539.4 124.74 539.12 124.94 538.77 125.27 538.38 125.99 537.76 126.73 537.23 127.91 536.66 128.12 536.52 129.86 535.1 130.73 534.56 130.91 534.28 130.97 533.89 130.72 533.03 130.14 532.67 129.35 532.43 121.68 531.68 121.42 531.63 121.3 531.55 118.2 524.72 118.14 524.41 118.15 524.14 118.22 523.83 118.42 523.45 118.75 522.96 119.39 522.26 119.87 521.86 120.54 521.52 120.94 521.39 121.31 521.34 121.6 521.38 122.76 521.66 123.36 521.76 123.98 521.73 124.28 521.67 124.82 521.51 125.33 521.32 125.57 521.18 129.99 517.83 131.69 517.43 132.35 517.42 133.41 517.55 133.56 517.59 133.75 517.68 134.4 518.07 134.93 518.25 135.23 518.29 135.55 518.29 135.88 518.11 136.23 517.81 137.14 516.37 137.93 514.3 138.43 511.99 138.42 511.69 138.36 511.42 137.92 510.48 137.84 510.22 137.79 509.94 137.86 509.36 138.22 508.28 138.48 507.12 138.6 506.1 138.73 505.84 138.93 505.57 139.95 505.28 141.43 504.99 142.16 504.72 142.62 504.16 143.67 501.81 144.03 501.17 144.53 500.94 144.86 500.85 148.35 500.86 149.18 500.77 149.9 500.53 150.27 499.83 150.52 499.03 151.37 494.8 152 493.45 152.9 491.9 153.42 491.36 154.08 491.37 154.89 491.61 160.1 493.78 160.87 493.99 161.45 493.93 169.88 490.38 171.5 489.44 180.84 480.97 181.77 479.76 182.15 478.74 183.95 471.07 184.21 470.32 184.44 469.84 185.94 467.8 192.84 461.99 193.54 461.63 194.31 461.34 194.82 461.2 195.53 461.15 196.88 461.2 197.27 461.15 201.17 459.35 201.99 458.83 202.66 458.21 203.22 456.62 203.61 456.22 204.09 456 205.44 455.59 206.95 453.98 207.88 447.97 211.28 450.09 212.4 451.36 216.24 458.97 216.72 461.01 218.76 478.03 218.97 478.66 223.71 486.32 226.66 495.11 226.66 495.13 Z" id="NER-93" data-name="Dosso"/>
<path d="M 101.67 510.92 100.06 510.74 98.18 510.48 96.47 509.85 94.95 508.41 93.78 506.8 92.89 504.92 92.8 503.12 93 501.97 94.05 500.69 95.85 499.98 97.82 499.98 100.24 500.52 102.93 500.43 105.26 500.25 105.71 500.43 105.62 501.96 106.07 502.49 107.33 502.22 108.13 502.67 108.22 504.02 108.13 505.54 107.68 507.61 107.06 509.76 106.07 511.73 105.26 512.36 104.2 513.15 103.83 512.35 103.54 511.44 103.21 510.77 101.67 510.92 Z" id="NER-94" data-name="Niamey"/>
<path d="M 329.98 409.09 322.85 434.55 322.74 435.54 322.78 436.49 319.79 460.23 319.93 461.78 320.2 463.06 321.78 466.76 321.92 467.3 322.12 468.46 322.48 469.8 322.68 470.3 322.75 472.8 322.31 478.18 322.08 479.08 321.9 479.24 321.16 479.67 320.73 479.84 319.03 480.21 318.77 480.3 318.53 480.4 318.31 480.53 317.72 481.15 317.23 481.57 314.01 483.82 313.25 484.44 312.81 485.03 312.82 485.81 313.47 488.44 313.47 489.36 312.86 490.18 311.24 491.77 310.59 492.55 310.34 493.39 310.25 494.24 310.26 497.1 310.33 497.92 310.33 497.93 307.58 497.34 306.61 497.54 303.7 499.14 303.17 499.28 302.84 499.14 302.52 498.86 302.06 498.61 287.78 493.08 273.5 487.54 271.86 487.2 264.41 488.46 263.01 489.15 262.43 489.9 261.58 491.76 260.89 492.56 259.34 493.64 258.76 493.89 257.02 494.21 249.79 493.9 244.69 494.8 241.76 494.62 240.61 494.12 239.48 493.06 238.32 492.56 236.7 492.72 226.66 495.13 226.66 495.11 223.71 486.32 218.97 478.66 218.76 478.03 216.72 461.01 216.24 458.97 212.4 451.36 211.28 450.09 207.88 447.97 200.73 436.4 200.34 435.39 200.19 433.2 200.39 426.19 189.13 395.05 188.72 394.34 189.36 392.86 189.76 390.92 190.22 385.99 190.54 385.06 191.31 383.91 194.24 381.06 194.29 380.92 194.32 380.77 194.31 380.46 194.32 380.39 194.3 380.32 194.28 380.25 194.24 380.19 193.62 378.7 193.42 377.31 193.63 375.91 198.14 365.21 198.9 364.06 199.87 363.06 201.05 362.18 203.25 361.09 203.96 360.45 204.37 359.27 204.34 353.69 204.32 349.35 204.28 342.6 204.27 339.41 204.4 338.96 205.06 337.95 205.28 337.43 205 332.47 205.07 331.56 205.36 330.67 205.77 330.51 206.3 330.48 206.98 330.01 206.96 324.72 206.94 321.54 206.93 315.3 206.91 309.06 206.88 302.82 206.86 296.59 206.85 290.35 206.82 284.11 206.81 280.6 206.8 277.87 206.79 271.63 206.77 265.39 206.75 259.16 206.73 252.92 206.7 246.8 207.45 246.8 233.88 247.1 238.65 248.46 232.04 261.62 231.65 262.86 231.59 263.16 231.56 263.47 231.59 264.1 231.81 265.24 232.09 266 232.23 266.55 232.26 266.85 232.24 267.16 232.17 267.44 231.78 268.46 231.72 268.76 232.26 274.78 232.14 275.4 230.64 277.69 230.36 278.29 230.36 278.89 230.4 279.19 230.55 279.67 230.8 280.26 231.32 281.15 232.1 281.52 232.97 281.72 238.34 282.1 239.01 282.37 239.35 283.03 240.46 288.12 240.8 288.85 241.49 289.53 250.27 296.53 256.94 305.29 258.06 306.3 259.09 307.08 286.07 323.35 297.39 331.63 301.83 336.43 302.07 336.79 313.1 362.4 313.24 362.91 314.1 364.37 314.41 364.75 314.7 365.05 318.14 367.59 318.84 368 319.18 368.13 326.99 370.1 327.83 370.55 328.06 371.26 328.08 372.08 326.98 380.22 329.98 409.09 Z" id="NER-95" data-name="Tahoua"/>
</g>
</svg>