<?xml version="1.0"?>
<svg xmlns="http://www.w3.org/2000/svg" version="1.2" baseProfile="tiny" width="800" height="680" viewBox="0 0 800 680" stroke-linecap="round" stroke-linejoin="round">
<g id="ne_10m_admin_1_states_provinces">
<path d="M 375.18 6.84 376.28 7.52 379.6 8.86 383.39 11.34 384.73 11.78 385.77 11.66 387.79 11.05 388.8 10.92 389.85 11.05 390.52 11.34 392.01 12.24 394.07 12.91 396.04 13.11 404.4 12.65 406.53 12.81 408.46 13.21 409.27 13.65 411.02 15.02 411.62 15.34 412.65 15.12 414.12 13.92 418.49 13.28 420.98 10.98 423.4 8.18 426.38 6.14 430.07 5.67 432.8 6.04 432.41 7.21 432.69 7.6 432.95 7.7 433.15 7.83 433.32 8.18 433.38 8.31 433.51 8.42 433.68 8.5 433.86 8.57 434.01 8.68 434.26 8.79 434.37 9 434.37 9.27 433.64 10.45 433.41 10.99 433.36 11.32 433.38 11.62 433.53 12.09 433.6 12.57 433.75 12.81 433.96 12.95 434.27 13.03 434.77 13.05 434.92 13.1 435.05 13.22 435.27 14.15 435.28 14.47 435.2 14.69 434.31 15 433.42 15.57 432.79 16.08 431.81 17.12 431.56 17.58 431.51 17.9 431.88 18.46 431.71 18.69 431.28 18.95 430.23 19.29 428.54 20.01 428.08 20.34 426.86 21.72 426.55 22.17 426.08 22.53 425.43 22.85 423.96 23.41 423.26 23.6 422.91 23.8 423.05 24.05 423.23 24.23 423.2 24.39 422.83 24.59 419.78 25.58 418.35 26.23 417.88 26.56 417.6 27.05 417.25 27.93 416.93 28.34 416.55 28.63 415.88 28.77 414.77 29.21 413.15 30.66 410.58 30.16 408.31 29.44 402.59 28.63 401.66 28.41 400.21 27.77 399.83 27.68 399.48 27.66 399.22 27.73 398.92 27.89 398.57 28.2 398.33 28.48 397.94 29.15 397.86 29.38 397.87 29.67 397.76 30.34 397.47 30.99 397.26 31.6 397.21 31.91 397.23 32.2 397.26 32.44 397.49 32.83 397.53 33.05 397.64 33.29 397.85 33.55 398.68 34.03 399.09 34.2 399.58 34.31 400.72 34.35 401.35 34.45 402.03 34.74 403.42 35.1 403.92 35.18 404.37 35.34 404.63 35.59 404.83 35.97 404.93 36.37 405 36.78 404.98 37.15 404.83 37.55 404.15 38.68 403.76 39.02 403.39 39.22 402.95 39.36 402.89 39.55 403.05 40.03 403.09 40.32 403.09 40.57 403.1 40.77 403.15 40.97 403.17 41.38 403.25 41.61 403.32 41.91 403.29 42.33 403.2 42.84 402.84 43.76 402.57 43.99 402.26 44 401.98 43.85 400.59 43.48 399.84 43.57 399.24 43.83 398.98 44.13 398.83 44.54 398.83 45.01 398.76 45.4 398.53 45.77 397.99 45.8 396.83 45.61 385 43.06 382.4 42.04 380.95 40.96 378.48 39.54 377.39 38.6 376.12 37.78 374.87 37.25 371.77 36.96 370.46 37.31 369.31 38.03 368.72 38.84 366.21 41.28 363.82 44.45 363.1 46.29 362.36 47.75 362 49.04 360.77 49.73 358.05 50.86 354.77 51.09 344.1 52.27 337.42 55.27 336.43 55.08 335.24 55.09 334.29 55.24 333.52 55.71 332.84 56.7 332.14 55.43 331.73 54.9 331.12 54.48 329.95 53.98 329.28 53.94 326.4 55.1 325.55 55.15 324.99 54.48 325.2 53.85 325.95 53.37 327.78 52.8 327.06 52.21 326.42 52.05 325.76 51.99 324.99 51.69 323.56 50.65 321.08 48.4 320.36 47.97 319.37 47.79 318.65 47.96 318.2 48.32 317.85 48.69 317.45 48.86 314.01 48.81 312.7 48.26 311.59 45.77 310.22 44.95 307.68 43.9 306.05 44.4 305.16 43.75 305.54 42.89 307.68 42.78 306.79 41.42 306.1 40.82 305.91 40.06 306.52 38.28 305.16 38.01 305.1 36.69 305.48 35.06 305.46 33.82 303.86 35.28 302.44 35.31 300.97 34.44 297.87 31.99 296.48 30.23 295.36 28.3 294.79 26.57 294.82 26.55 294.79 25.36 294.33 24.45 293.71 23.62 293.19 22.65 296.83 22.31 301.5 21.08 308.52 20.13 309.83 19.67 310.11 19.22 311.11 17.01 321.34 5.09 321.65 4.45 321.75 3.88 321.92 3.31 322.42 2.65 322.95 2.35 326.98 1.05 327.71 1 328.69 1.09 329.39 1.52 329.75 2.93 330.45 3.34 337.19 5.13 340.48 5.51 343.95 4.56 346.03 3.3 349.16 2.24 352.44 1.54 354.98 1.36 356.38 1.67 367.09 6.29 367.66 6.45 368.34 6.53 369.06 6.41 369.82 5.79 370.54 5.53 372.05 5.35 373.03 5.51 375.18 6.84 Z" id="IRQ-3046" data-name="Dihok"/>
<path d="M 478.33 122.5 482.83 130.55 484.9 132.39 486.76 134.46 490.55 137.2 491.22 138.82 491.3 140.19 489.92 142.21 489.59 143.07 489.41 145.15 489.08 146.1 488.83 149.03 488.53 151.38 488.74 152.18 489.29 153 491.03 154.6 492.6 156.35 492.69 157.28 492.27 158.42 491.43 159.8 488.46 163.09 487.84 164.69 488.08 165.9 488.58 167.27 488.9 168.49 488.56 169.75 487.67 171.48 487.45 172.57 487.22 173.08 486.93 173.44 486.32 173.59 485.57 173.93 484.59 174.5 483.75 175.52 483.43 176.27 483.38 176.96 483.51 177.57 484.07 178.69 483.84 179.37 482.98 180.06 476.62 181.7 473.01 184.21 471.98 184.24 471.49 184.43 470.89 184.78 470.12 185.56 469.45 186.44 469.04 187.89 469.12 189.03 470.76 192.21 470.69 193.42 469.91 194.44 467.67 195.81 466.42 196.32 465.41 196.85 464.81 197.35 463.01 199.48 461.27 200.92 460 202.52 459.9 203.19 459.83 203.38 459.81 203.54 459.83 203.74 459.82 204.01 459.55 204.41 459.23 205.02 459.19 205.24 459.15 205.38 459.23 205.67 459.17 205.94 458.79 206.44 458.67 206.64 458.66 206.86 458.53 207.11 458.25 207.42 457.3 207.85 456.02 209.34 455.74 210.16 455.46 210.61 455 211.09 453.97 211.85 453.72 212.17 453.63 212.48 453.67 213.27 453.6 213.71 453.33 214.6 453.4 214.94 453.7 215.47 453.72 215.66 453.58 216.02 453.6 216.22 453.76 216.38 454.05 216.47 454.9 216.56 454.94 216.76 454.58 217.19 452.74 219 451.5 219.02 450.69 218.83 444.48 214.9 437.67 209.25 432.72 206.76 425.8 204.22 420.08 202.44 414.75 199.81 398.47 191.79 392.16 189.4 390.28 188.37 389.51 187.39 388.03 186.52 385.89 185.71 384.82 184.42 379.46 179.66 378.82 179.26 378 178.35 377.29 177.32 376.98 176.6 377.33 175.71 378.13 175.3 379.07 175.05 379.77 174.65 380.07 173.09 378.37 172.44 374.19 171.86 374.71 171.33 374.96 170.83 375.26 169.64 375.18 169.3 374.89 169.03 374.73 168.72 374.98 168.22 375.26 168.03 375.55 167.95 375.78 167.86 375.86 167.64 375.37 166.6 374.21 165.95 371.92 165.18 371 164.53 368.93 162.66 368.53 162.04 368.35 161.84 367.97 161.6 367.59 161.18 367.42 160.4 367.54 159.58 367.75 159.1 367.79 158.64 367.42 157.89 367.95 156.67 369.19 157.03 369.52 157.18 369.75 157.5 369.8 157.76 369.9 157.99 370.22 158.44 370.3 158.8 370.31 159.17 370.76 159.77 371.26 159.93 371.99 159.87 373.33 158.04 374.83 157.36 378.5 159.28 379.29 159.58 381 159.96 381.86 159.99 382.69 159.86 384.31 158.68 385.56 158.35 389.05 158.22 390.65 158.01 391.94 157.41 392.65 156.45 393.6 154.08 394.39 153.2 395.49 152.79 397.31 152.83 400.04 152.64 402.68 151.33 404.42 151.21 405.31 150.91 406.11 150.04 406.95 147.6 407.4 145.57 407.96 144.62 409.2 143.37 410.25 142.57 410.94 141.83 410.99 140.92 410.67 140.17 410.16 139.44 408.37 137.78 407.84 137.41 407.78 136.89 408.29 136.19 413.28 132.75 419.16 127.56 419.98 125.76 421.24 125.57 423.08 126.12 431.69 131.13 434.74 131.04 436.48 130.78 437.23 130.39 437.95 129.18 439.14 126.58 441.02 125.99 442.38 125.77 446.86 126.48 448.65 126.76 450.19 127.4 450.66 127.48 451.33 127.45 452.13 127.28 453.3 126.76 453.77 126.42 454.17 125.91 454.48 125.89 455.48 126.31 455.96 126.43 457.25 126.6 457.62 126.74 457.87 126.79 458.11 126.75 458.53 126.05 458.81 125.87 460.34 125.34 460.79 125.12 461.15 124.83 461.58 124.58 462.18 124.52 463.2 124.66 463.91 124.66 465.66 123.83 467.45 124.29 467.67 124.52 467.91 124.62 468.28 124.58 468.99 124.25 469.48 124.14 470.07 124.31 470.41 124.61 470.93 125.23 471.25 125.39 471.54 125.34 471.69 124.96 471.64 124.69 471.54 124.42 471.46 124.15 471.52 123.89 471.83 123.71 472.15 123.64 473.01 124.1 473.34 124.15 473.74 123.79 474.07 123.42 474.55 123.01 475.23 122.55 475.53 122.15 475.83 121.53 476.07 121.26 476.45 121.05 477.32 120.7 477.59 120.74 477.85 121.03 477.85 121.81 478.33 122.5 Z" id="IRQ-3049" data-name="At-Ta&apos;mim"/>
<path d="M 489.65 20.05 488.54 22.4 488.55 23.2 489.2 24.64 489.68 25.18 490.26 25.4 490.87 25.55 491.46 25.9 491.78 26.43 492.19 27.67 492.57 28.07 493.33 28.2 494.94 27.8 495.72 27.77 496.29 28.03 497.22 28.84 499 29.59 499.54 30.32 499.4 31.21 498.51 32.11 498.05 34.29 498.52 35.73 499.27 37.06 499.66 38.89 499.22 40.85 498.09 42.31 495.2 45.16 494.32 47.17 494.96 48.59 496.59 49.47 498.71 49.85 501.24 49.74 502.42 49.9 503.44 50.62 504.19 51.34 505.03 51.82 505.99 52.07 507.05 52.09 508.41 52.69 509.62 54.01 511.6 56.94 512.47 58.7 512.34 60.22 510.75 63.17 509.88 65.96 509.8 67.68 509.56 67.83 508.55 68.15 508.19 68.35 508.02 69.65 509.21 70.88 509.5 71.08 509.5 71.09 509.17 71.86 508.72 72.67 507.62 74.01 506.71 74.54 505.53 74.9 502.72 74.73 499.24 74.03 497.57 74.06 495.77 74.39 491.53 76.1 487.97 76.87 484.24 77.34 481.91 76.79 480.56 76.63 478.86 77.08 476.36 78.61 474.79 80.09 473.88 81.17 471.19 83.09 471.17 84.82 471.62 85.77 476.32 91.56 477.11 90.83 477.64 90.51 478.5 90.54 479.31 91.09 483.4 95.09 483.86 95.71 484.09 96.38 483.33 97.08 481.44 97.79 480.8 98.18 480.38 98.84 479.93 99.4 479.3 99.91 477.54 101.06 477.9 102.09 478.33 102.84 486.51 107.56 488.37 108.21 489.34 108.73 490.13 109.25 496.1 115.1 498.67 117.06 500.69 118.21 506.22 120.45 506.76 120.98 506.87 121.22 506.9 121.44 506.86 121.63 506.73 121.81 506.55 122.3 506.39 122.52 505.87 122.87 505.29 123.04 504.42 123.14 502.56 123.1 501.78 122.92 501.35 122.69 501.2 122.51 501.02 122.41 500.84 122.3 500.46 121.98 500.18 121.84 499.79 121.79 498.91 121.89 498.63 121.86 498.13 121.68 497.84 121.66 497.19 121.76 496.95 121.87 496.9 122.09 497.79 123.42 497.87 123.62 497.42 124.14 496.17 124.49 495.39 125.13 495.14 125.19 494.94 125.07 494.77 124.63 494.69 123.42 494.53 123.2 494.28 123.03 493.98 122.94 493.73 122.95 493.38 123.21 493.15 123.48 493.02 123.73 492.94 124.27 492.87 124.54 492.62 124.72 492.24 124.69 491.58 124.26 491.28 123.89 490.93 123.57 490.56 123.45 490.05 123.42 489.36 123.63 488.91 123.87 488.45 124.01 488.02 123.98 487.55 123.65 487.13 123.1 486.71 123 486.08 122.98 484.13 123.47 483.66 123.53 483.26 123.47 482.95 123.13 482.93 122.89 482.94 122.69 482.92 122.5 482.78 122.32 482.54 122.19 482.19 122.19 481.29 122.61 480.99 122.65 480.66 122.38 480.43 122.12 480.05 121.97 479.82 121.94 478.33 122.5 477.85 121.81 477.85 121.03 477.59 120.74 477.32 120.7 476.45 121.05 476.07 121.26 475.83 121.53 475.53 122.15 475.23 122.55 474.55 123.01 474.07 123.42 473.74 123.79 473.34 124.15 473.01 124.1 472.15 123.64 471.83 123.71 471.52 123.89 471.46 124.15 471.54 124.42 471.64 124.69 471.69 124.96 471.54 125.34 471.25 125.39 470.93 125.23 470.41 124.61 470.07 124.31 469.48 124.14 468.99 124.25 468.28 124.58 467.91 124.62 467.67 124.52 467.45 124.29 465.66 123.83 463.91 124.66 463.2 124.66 462.18 124.52 461.58 124.58 461.15 124.83 460.79 125.12 460.34 125.34 458.81 125.87 458.53 126.05 458.11 126.75 457.87 126.79 457.62 126.74 457.25 126.6 455.96 126.43 455.48 126.31 454.48 125.89 454.17 125.91 453.77 126.42 453.3 126.76 452.13 127.28 451.33 127.45 450.66 127.48 450.19 127.4 448.65 126.76 446.86 126.48 442.38 125.77 441.02 125.99 439.14 126.58 437.95 129.18 437.23 130.39 436.48 130.78 434.74 131.04 431.69 131.13 423.08 126.12 421.24 125.57 419.98 125.76 419.16 127.56 413.28 132.75 408.29 136.19 407.78 136.89 407.84 137.41 408.37 137.78 410.16 139.44 410.67 140.17 410.99 140.92 410.94 141.83 410.25 142.57 409.2 143.37 407.96 144.62 407.4 145.57 406.95 147.6 406.11 150.04 405.31 150.91 404.42 151.21 402.68 151.33 400.04 152.64 397.31 152.83 395.49 152.79 394.39 153.2 393.6 154.08 392.65 156.45 391.94 157.41 390.65 158.01 389.05 158.22 385.56 158.35 384.31 158.68 382.69 159.86 381.86 159.99 381 159.96 379.29 159.58 378.5 159.28 374.83 157.36 375.48 157.21 375.68 157.15 375.89 156.89 375.98 156.45 376.07 155.46 376.41 154.37 376.51 153.84 376.55 153.11 376.2 146.76 375.91 145.52 375.28 144.56 374.78 144.11 374.34 143.91 373.96 143.86 373.58 143.73 373.36 143.51 373.28 143.19 373.5 142.66 373.66 142.02 373.33 141 372.93 140.22 372.54 139.73 372.16 139.38 371.94 139.11 371.84 138.81 372.17 138.32 372.35 137.97 372.88 135.73 371.54 133.16 371.44 132.7 371.37 132.01 371.69 131.05 373.45 127.75 373.88 127.22 374.34 126.99 374.92 127 375.56 126.89 376.16 126.41 377.04 124.77 377.78 119.11 377.77 117.6 377.49 117.02 376.44 117.01 375.1 116.87 374.24 116.14 373.73 114.09 374.4 113.25 384.97 109.65 385.85 108.97 387.01 107.57 387.24 107.15 387.34 106.76 387.22 105.15 387.24 104.61 387.42 103.92 389.16 101.29 389.38 100.76 389.57 100.18 389.98 99.45 390.27 99.2 390.95 99.12 392.54 98.17 393.47 96.57 393.91 95.62 394.34 95.09 396.91 93.2 397.64 92.4 398.6 91.07 399.24 90.35 399.89 89.88 401.73 89.22 402.89 88.11 403.53 87.87 405.04 87.08 406.35 86.1 409.77 82.78 411.16 80.87 411.75 79.24 411.67 78.04 411.54 77.3 411.19 76.55 411.24 76.24 411.47 76.04 411.75 76.02 412.66 76.15 413.25 76.15 413.84 75.98 414.49 75.69 415.26 75.21 415.54 74.82 415.64 74.39 415.64 74.03 415.61 73.73 415.49 73.44 415.3 73.17 415.13 72.81 415.08 72.02 415.28 71.68 415.61 71.51 417.67 71.71 418.18 71.7 418.92 71.48 419.3 71.03 419.47 70.52 419.39 69.53 419.49 68.93 419.7 68.71 419.95 68.68 420.21 68.86 420.46 69.08 420.68 69.37 421.09 69.46 421.6 69.33 422.75 68.63 423.31 68.03 424.12 67.5 424.44 67.12 424.67 66.79 425 66.09 427.06 64.18 427.74 63.73 428.18 63.55 428.4 63.69 428.65 63.77 429.04 63.73 429.13 63.54 428.84 63.15 428.74 62.86 428.76 62.44 428.96 62.3 429.12 62.32 429.27 62.55 429.36 62.82 429.47 63.05 429.72 63.27 430.05 63.42 430.45 63.49 430.83 63.45 431.28 63.32 431.65 63.28 432.02 63.28 432.19 63.37 432.24 63.57 432.14 63.84 431.98 64.15 431.91 64.46 431.98 64.76 432.24 65 432.78 65.13 433.03 65.03 433.15 64.75 433.18 64.43 433.31 64 433.53 63.79 433.8 63.7 434.12 63.73 434.41 63.71 435.23 63.4 435.67 63.29 436.08 63.31 436.53 63.41 436.83 63.56 436.96 63.72 436.94 63.94 437.04 64.18 437.36 64.3 438.2 64.18 439.24 63.44 440.65 62.74 442.87 61.13 443.5 60.77 444.89 60.39 446.18 58.76 448.48 57.11 451.4 53.98 451.81 53.27 451.85 52.87 451.78 52.58 451.63 52.33 451.45 52.2 451.27 52.17 451.07 52.25 450.87 52.41 450.69 52.46 450.47 52.38 449.98 51.46 449.73 50.86 448.87 50.15 448.8 49.78 448.72 49.09 448.57 48.76 448.12 48.41 447.44 48.08 446.07 47.21 438.38 44.5 437.8 44.17 437.42 43.83 437.14 43.41 436.75 43.2 436.48 43.1 434.03 42.91 433.28 42.78 432.93 42.79 432.56 42.87 431.94 42.93 431.64 42.78 430.96 41.91 430.89 41.68 431.01 41.47 431.08 41.13 431.05 40.75 430.52 40.1 430.2 39.87 429.84 39.79 429.54 39.85 428.21 39.9 428.02 39.74 428.03 39.59 428.25 39.47 428.58 39.42 428.78 39.29 428.83 39.06 428.45 38.54 428.22 38.14 428.12 37.74 427.7 37.24 427.21 36.92 426.17 36.49 425.03 35.76 423.38 34.94 421.56 33.53 421.14 33.26 420.68 33.16 420.21 33.25 418.34 32.91 413.15 30.66 414.77 29.21 415.88 28.77 416.55 28.63 416.93 28.34 417.25 27.93 417.6 27.05 417.88 26.56 418.35 26.23 419.78 25.58 422.83 24.59 423.2 24.39 423.23 24.23 423.05 24.05 422.91 23.8 423.26 23.6 423.96 23.41 425.43 22.85 426.08 22.53 426.55 22.17 426.86 21.72 428.08 20.34 428.54 20.01 430.23 19.29 431.28 18.95 431.71 18.69 431.88 18.46 431.51 17.9 431.56 17.58 431.81 17.12 432.79 16.08 433.42 15.57 434.31 15 435.2 14.69 435.28 14.47 435.27 14.15 435.05 13.22 434.92 13.1 434.77 13.05 434.27 13.03 433.96 12.95 433.75 12.81 433.6 12.57 433.53 12.09 433.38 11.62 433.36 11.32 433.41 10.99 433.64 10.45 434.37 9.27 434.37 9 434.26 8.79 434.01 8.68 433.86 8.57 433.68 8.5 433.51 8.42 433.38 8.31 433.32 8.18 433.15 7.83 432.95 7.7 432.69 7.6 432.41 7.21 432.8 6.04 434.35 6.25 442.21 8.86 444.04 9.81 445.37 10.9 446.33 12.31 447.03 14.19 447.44 15.97 447.53 16.99 447.42 17.79 446.75 18.74 445.94 19.04 445.01 19.18 443.96 19.67 442.6 21.09 441.9 22.74 441.85 24.48 442.46 26.16 445.74 32.1 446.27 32.96 447.01 33.44 450.4 34.14 451.41 34.08 452.17 33.48 452.93 32.12 452.94 32.12 452.95 32.11 452.95 32.1 454.21 30.36 454.5 29.08 455.15 28.16 462.08 26.34 464.23 25.4 466.25 24.12 468.22 22.11 471.16 19.91 474.33 18.05 476.94 17.08 478.46 17.02 487.01 17.98 488.65 18.64 489.65 20.05 Z" id="IRQ-3050" data-name="Arbil"/>
<path d="M 413.15 30.66 418.34 32.91 420.21 33.25 420.68 33.16 421.14 33.26 421.56 33.53 423.38 34.94 425.03 35.76 426.17 36.49 427.21 36.92 427.7 37.24 428.12 37.74 428.22 38.14 428.45 38.54 428.83 39.06 428.78 39.29 428.58 39.42 428.25 39.47 428.03 39.59 428.02 39.74 428.21 39.9 429.54 39.85 429.84 39.79 430.2 39.87 430.52 40.1 431.05 40.75 431.08 41.13 431.01 41.47 430.89 41.68 430.96 41.91 431.64 42.78 431.94 42.93 432.56 42.87 432.93 42.79 433.28 42.78 434.03 42.91 436.48 43.1 436.75 43.2 437.14 43.41 437.42 43.83 437.8 44.17 438.38 44.5 446.07 47.21 447.44 48.08 448.12 48.41 448.57 48.76 448.72 49.09 448.8 49.78 448.87 50.15 449.73 50.86 449.98 51.46 450.47 52.38 450.69 52.46 450.87 52.41 451.07 52.25 451.27 52.17 451.45 52.2 451.63 52.33 451.78 52.58 451.85 52.87 451.81 53.27 451.4 53.98 448.48 57.11 446.18 58.76 444.89 60.39 443.5 60.77 442.87 61.13 440.65 62.74 439.24 63.44 438.2 64.18 437.36 64.3 437.04 64.18 436.94 63.94 436.96 63.72 436.83 63.56 436.53 63.41 436.08 63.31 435.67 63.29 435.23 63.4 434.41 63.71 434.12 63.73 433.8 63.7 433.53 63.79 433.31 64 433.18 64.43 433.15 64.75 433.03 65.03 432.78 65.13 432.24 65 431.98 64.76 431.91 64.46 431.98 64.15 432.14 63.84 432.24 63.57 432.19 63.37 432.02 63.28 431.65 63.28 431.28 63.32 430.83 63.45 430.45 63.49 430.05 63.42 429.72 63.27 429.47 63.05 429.36 62.82 429.27 62.55 429.12 62.32 428.96 62.3 428.76 62.44 428.74 62.86 428.84 63.15 429.13 63.54 429.04 63.73 428.65 63.77 428.4 63.69 428.18 63.55 427.74 63.73 427.06 64.18 425 66.09 424.67 66.79 424.44 67.12 424.12 67.5 423.31 68.03 422.75 68.63 421.6 69.33 421.09 69.46 420.68 69.37 420.46 69.08 420.21 68.86 419.95 68.68 419.7 68.71 419.49 68.93 419.39 69.53 419.47 70.52 419.3 71.03 418.92 71.48 418.18 71.7 417.67 71.71 415.61 71.51 415.28 71.68 415.08 72.02 415.13 72.81 415.3 73.17 415.49 73.44 415.61 73.73 415.64 74.03 415.64 74.39 415.54 74.82 415.26 75.21 414.49 75.69 413.84 75.98 413.25 76.15 412.66 76.15 411.75 76.02 411.47 76.04 411.24 76.24 411.19 76.55 411.54 77.3 411.67 78.04 411.75 79.24 411.16 80.87 409.77 82.78 406.35 86.1 405.04 87.08 403.53 87.87 402.89 88.11 401.73 89.22 399.89 89.88 399.24 90.35 398.6 91.07 397.64 92.4 396.91 93.2 394.34 95.09 393.91 95.62 393.47 96.57 392.54 98.17 390.95 99.12 390.27 99.2 389.98 99.45 389.57 100.18 389.38 100.76 389.16 101.29 387.42 103.92 387.24 104.61 387.22 105.15 387.34 106.76 387.24 107.15 387.01 107.57 385.85 108.97 384.97 109.65 374.4 113.25 373.73 114.09 374.24 116.14 375.1 116.87 376.44 117.01 377.49 117.02 377.77 117.6 377.78 119.11 377.04 124.77 376.16 126.41 375.56 126.89 374.92 127 374.34 126.99 373.88 127.22 373.45 127.75 371.69 131.05 371.37 132.01 371.44 132.7 371.54 133.16 372.88 135.73 372.09 136.33 371.92 136.94 371.61 138.12 370.79 138.48 369.7 138.55 368.53 138.86 367.91 139.48 366.68 141.27 365.54 141.99 363.94 142.38 362.38 143.27 357.03 145.09 347.18 150.6 345.77 150.69 345.11 150.87 344.3 151.27 342.41 152.59 341.4 153.13 339.08 153.99 338.8 154.01 338.6 153.99 338.46 154.01 338.32 154.1 338.14 154.14 337.89 154.11 337.6 154.12 337.28 154.1 337.06 154.2 336.8 154.43 336.55 154.76 336.27 155.23 335.99 155.4 335.84 155.54 335.8 155.66 336.52 156.6 337.33 158.17 337.51 158.73 337.37 159.22 336.93 159.93 336.58 160.37 336.46 160.59 336.22 161.68 336.27 162.22 336.45 162.84 336.85 163.39 336.88 164.45 337.06 164.97 339.29 167.33 339.93 167.83 341.2 168.65 341.57 169.06 341.98 169.64 342.03 170.24 342.13 170.88 343.07 172.99 343.25 173.17 343.45 173.25 343.63 173.21 343.78 173.14 343.93 173.16 343.98 173.35 343.93 173.77 343.61 174.4 343.45 174.91 343.5 175.45 343.22 176.81 343.19 177.39 343.28 177.6 343.37 177.73 343.5 177.75 343.68 177.72 343.88 177.72 344.3 177.83 344.56 178.43 345.22 179.39 345.31 179.86 345.42 180.02 345.64 180.11 345.89 180.15 345.99 180.24 345.99 180.53 346.09 180.66 346.25 180.7 346.52 180.69 346.57 180.82 346.55 181.01 346.38 181.21 346.4 181.34 346.56 181.42 346.85 181.46 347.19 181.46 347.44 181.51 347.64 181.53 347.95 181.5 348.06 181.6 348.27 182.36 348.38 182.58 348.42 182.79 348.6 183.29 348.67 183.6 348.54 183.99 348.15 184.88 348.17 185.07 348.48 185.46 348.65 185.85 348.52 186.37 347.64 186.84 344.61 187.17 315.54 187.32 306.17 189.02 304.12 196.96 286.35 198.94 283.88 198.06 281.02 196.96 279.54 196.7 268.08 197.93 262.77 197.65 252 194.18 229.67 186.59 224.19 185.87 210.41 182.62 199.93 181.82 198.19 181.78 198.12 179.88 198.92 174.92 202.33 164.84 203.04 156.89 203.79 154.43 203.8 154.43 203.81 154.43 203.81 154.42 207.66 149.7 210.41 146.32 211.7 143.85 212.15 141.3 211.8 130.08 211.41 127.41 210.53 124.79 204.22 113.65 204.22 113.64 204.21 113.65 202.12 109.67 201.8 108.26 201.8 106.9 204.43 86.43 205.09 84.24 212.29 72.9 212.29 72.89 212.3 72.89 212.3 72.88 213.93 71.07 216.34 70.17 221.63 69.46 246.92 65.12 249.16 64.27 251.32 62.79 262.31 53.35 278.61 39.35 287.02 32.12 287.05 32.12 287.05 32.11 287.05 32.1 292.26 28.12 294.79 26.57 295.36 28.3 296.48 30.23 297.87 31.99 300.97 34.44 302.44 35.31 303.86 35.28 305.46 33.82 305.48 35.06 305.1 36.69 305.16 38.01 306.52 38.28 305.91 40.06 306.1 40.82 306.79 41.42 307.68 42.78 305.54 42.89 305.16 43.75 306.05 44.4 307.68 43.9 310.22 44.95 311.59 45.77 312.7 48.26 314.01 48.81 317.45 48.86 317.85 48.69 318.2 48.32 318.65 47.96 319.37 47.79 320.36 47.97 321.08 48.4 323.56 50.65 324.99 51.69 325.76 51.99 326.42 52.05 327.06 52.21 327.78 52.8 325.95 53.37 325.2 53.85 324.99 54.48 325.55 55.15 326.4 55.1 329.28 53.94 329.95 53.98 331.12 54.48 331.73 54.9 332.14 55.43 332.84 56.7 333.52 55.71 334.29 55.24 335.24 55.09 336.43 55.08 337.42 55.27 344.1 52.27 354.77 51.09 358.05 50.86 360.77 49.73 362 49.04 362.36 47.75 363.1 46.29 363.82 44.45 366.21 41.28 368.72 38.84 369.31 38.03 370.46 37.31 371.77 36.96 374.87 37.25 376.12 37.78 377.39 38.6 378.48 39.54 380.95 40.96 382.4 42.04 385 43.06 396.83 45.61 397.99 45.8 398.53 45.77 398.76 45.4 398.83 45.01 398.83 44.54 398.98 44.13 399.24 43.83 399.84 43.57 400.59 43.48 401.98 43.85 402.26 44 402.57 43.99 402.84 43.76 403.2 42.84 403.29 42.33 403.32 41.91 403.25 41.61 403.17 41.38 403.15 40.97 403.1 40.77 403.09 40.57 403.09 40.32 403.05 40.03 402.89 39.55 402.95 39.36 403.39 39.22 403.76 39.02 404.15 38.68 404.83 37.55 404.98 37.15 405 36.78 404.93 36.37 404.83 35.97 404.63 35.59 404.37 35.34 403.92 35.18 403.42 35.1 402.03 34.74 401.35 34.45 400.72 34.35 399.58 34.31 399.09 34.2 398.68 34.03 397.85 33.55 397.64 33.29 397.53 33.05 397.49 32.83 397.26 32.44 397.23 32.2 397.21 31.91 397.26 31.6 397.47 30.99 397.76 30.34 397.87 29.67 397.86 29.38 397.94 29.15 398.33 28.48 398.57 28.2 398.92 27.89 399.22 27.73 399.48 27.66 399.83 27.68 400.21 27.77 401.66 28.41 402.59 28.63 408.31 29.44 410.58 30.16 413.15 30.66 Z" id="IRQ-3051" data-name="Ninawa"/>
<path d="M 374.83 157.36 373.33 158.04 371.99 159.87 371.26 159.93 370.76 159.77 370.31 159.17 370.3 158.8 370.22 158.44 369.9 157.99 369.8 157.76 369.75 157.5 369.52 157.18 369.19 157.03 367.95 156.67 367.42 157.89 367.79 158.64 367.75 159.1 367.54 159.58 367.42 160.4 367.59 161.18 367.97 161.6 368.35 161.84 368.53 162.04 368.93 162.66 371 164.53 371.92 165.18 374.21 165.95 375.37 166.6 375.86 167.64 375.78 167.86 375.55 167.95 375.26 168.03 374.98 168.22 374.73 168.72 374.89 169.03 375.18 169.3 375.26 169.64 374.96 170.83 374.71 171.33 374.19 171.86 378.37 172.44 380.07 173.09 379.77 174.65 379.07 175.05 378.13 175.3 377.33 175.71 376.98 176.6 377.29 177.32 378 178.35 378.82 179.26 379.46 179.66 384.82 184.42 385.89 185.71 388.03 186.52 389.51 187.39 390.28 188.37 392.16 189.4 398.47 191.79 414.75 199.81 420.08 202.44 425.8 204.22 432.72 206.76 437.67 209.25 444.48 214.9 450.69 218.83 451.5 219.02 452.74 219 454.58 217.19 454.94 216.76 454.9 216.56 454.05 216.47 453.76 216.38 453.6 216.22 453.58 216.02 453.72 215.66 453.7 215.47 453.4 214.94 453.33 214.6 453.6 213.71 453.67 213.27 453.63 212.48 453.72 212.17 453.97 211.85 455 211.09 455.46 210.61 455.74 210.16 456.02 209.34 457.3 207.85 458.25 207.42 458.53 207.11 458.66 206.86 458.67 206.64 458.79 206.44 459.17 205.94 459.23 205.67 459.15 205.38 459.19 205.24 459.23 205.02 459.55 204.41 459.82 204.01 459.83 203.74 459.81 203.54 459.83 203.38 459.9 203.19 460 202.52 461.27 200.92 463.01 199.48 464.81 197.35 465.41 196.85 466.42 196.32 467.67 195.81 469.91 194.44 470.69 193.42 470.76 192.21 469.12 189.03 469.04 187.89 469.45 186.44 470.12 185.56 470.89 184.78 471.49 184.43 471.98 184.24 473.01 184.21 481.23 191.31 482.57 191.83 484.41 192.24 485.81 191.83 494.74 192.14 497.79 192.59 504.8 196.63 505.79 197.61 505.99 197.96 506.07 198.27 506.02 198.65 505.75 199.74 505.95 205.54 502.09 208.46 499.41 209.6 497.28 210.28 496.33 210.91 495.8 211.55 495.75 212.09 495.84 212.61 495.9 213.29 495.56 214.19 494.47 215.7 492.89 217.03 491.73 217.81 490.72 218.17 488.42 218.73 486.75 219.51 485.97 220.1 485.58 220.63 485.58 221.11 485.75 221.61 486.1 222.13 486.49 222.61 486.75 223.57 486.63 224.77 485.35 227.02 484.32 228.18 483.16 229.1 481.82 229.86 480.42 230.84 479.52 231.73 478.99 232.55 478.58 233.52 478.33 233.55 477.9 233.33 474.93 231.11 474.04 230.63 473.33 230.35 472.07 230.1 470.45 229.54 469.73 229.2 469.39 229.35 468.44 230.38 468.26 230.82 468.19 231.14 468.14 231.9 469.37 234.54 469.34 235 469.14 235.61 468.16 236.35 468.06 236.56 468.16 236.65 468.38 236.64 468.68 236.75 468.99 237.01 469.35 237.66 469.26 237.97 468.99 238.18 468.2 238.39 467.88 238.41 467.5 238.48 467.18 238.7 466.8 239.25 466.74 239.55 466.8 239.68 466.96 239.61 467.16 239.48 467.36 239.42 467.63 239.56 467.59 239.75 467.41 239.97 467.03 240.35 467.03 240.58 467.2 240.73 467.51 240.78 467.78 240.73 468.24 240.5 468.49 240.47 468.73 240.62 468.68 240.84 468.53 241.12 468.25 241.88 468.06 242.14 467.51 242.62 467.6 242.91 467.8 243.31 468.08 244.12 468.03 244.78 467.49 246.3 466.68 247.76 466.04 248.58 466.04 248.93 466.27 249.4 466.73 249.95 467.48 250.66 468.1 251.08 468.68 251.34 469.63 252.32 468.51 252.93 468.73 254.55 468.67 254.87 468.38 255.07 467.98 255.19 467.36 255.53 467.21 255.98 467.22 257.47 467.06 257.81 466.83 257.88 466.58 257.72 466.12 257.29 465.87 257.25 465.53 257.41 465.21 257.62 464.93 257.76 464.65 257.8 463.71 257.84 462.99 258.05 462.66 258.23 460.97 260.31 460.64 260.91 460.44 261.57 460.26 261.81 460.01 261.94 459.75 261.92 459.6 261.83 459.57 261.71 459.77 261.32 459.75 261.09 459.6 260.91 459.12 260.98 458.84 261.27 458.51 261.72 458.27 262.24 457.94 262.5 457.58 262.61 456.6 262.57 455.85 262.71 455.56 262.88 455.57 263.08 455.74 263.29 455.91 263.59 455.99 265.53 455.89 265.75 455.71 265.85 454.75 265.87 454.08 266.01 453.75 266.24 453.6 266.53 453.7 266.84 454.29 267.71 454.4 267.99 454.4 268.33 454.2 268.85 453.88 269.12 452.14 270.13 452 270.39 452.43 270.95 452.54 271.36 451.95 272.7 451.73 273.72 450.82 274.8 450.77 275.2 450.79 275.87 451.04 276.08 451.43 276.15 452.01 276.1 452.67 275.94 454.9 275.72 457.08 275.99 457.57 276.17 458.31 276.43 462.08 279.27 463.05 280.29 463.68 281.56 463.95 283.12 463.87 284.64 463.39 286.07 460.6 289.71 459.08 293.2 458.92 293.94 458.91 294.69 459.12 295.42 459.54 296.11 460.09 296.7 461.7 298.06 461.91 298.39 461.9 298.75 460.76 300.27 460.43 300.86 459.23 305.27 460.16 307.15 459.91 309.17 459.23 311.29 456.02 313.68 454.6 314.55 452.69 316.03 451.48 317.25 447.13 322.51 441.12 322.2 438.36 320.6 435.32 319.84 438.05 318.06 437.24 317.31 435.46 314.73 432.9 309.39 431.4 307.06 430.13 305.9 427.29 303.73 424.82 303.12 411.14 303.4 403.75 301.35 393.72 298 384.97 296.77 380.65 295.43 369.44 287.27 356.37 276.33 350.77 270.13 346.5 261.5 345.69 257.19 344.45 252.83 342.37 250.34 341.73 247.9 341.35 242.83 339.8 235.85 330.05 240.46 327.45 240.16 323.91 238.49 308.08 227.74 304.82 215.93 304.71 198.11 304.12 196.96 306.17 189.02 315.54 187.32 344.61 187.17 347.64 186.84 348.52 186.37 348.65 185.85 348.48 185.46 348.17 185.07 348.15 184.88 348.54 183.99 348.67 183.6 348.6 183.29 348.42 182.79 348.38 182.58 348.27 182.36 348.06 181.6 347.95 181.5 347.64 181.53 347.44 181.51 347.19 181.46 346.85 181.46 346.56 181.42 346.4 181.34 346.38 181.21 346.55 181.01 346.57 180.82 346.52 180.69 346.25 180.7 346.09 180.66 345.99 180.53 345.99 180.24 345.89 180.15 345.64 180.11 345.42 180.02 345.31 179.86 345.22 179.39 344.56 178.43 344.3 177.83 343.88 177.72 343.68 177.72 343.5 177.75 343.37 177.73 343.28 177.6 343.19 177.39 343.22 176.81 343.5 175.45 343.45 174.91 343.61 174.4 343.93 173.77 343.98 173.35 343.93 173.16 343.78 173.14 343.63 173.21 343.45 173.25 343.25 173.17 343.07 172.99 342.13 170.88 342.03 170.24 341.98 169.64 341.57 169.06 341.2 168.65 339.93 167.83 339.29 167.33 337.06 164.97 336.88 164.45 336.85 163.39 336.45 162.84 336.27 162.22 336.22 161.68 336.46 160.59 336.58 160.37 336.93 159.93 337.37 159.22 337.51 158.73 337.33 158.17 336.52 156.6 335.8 155.66 335.84 155.54 335.99 155.4 336.27 155.23 336.55 154.76 336.8 154.43 337.06 154.2 337.28 154.1 337.6 154.12 337.89 154.11 338.14 154.14 338.32 154.1 338.46 154.01 338.6 153.99 338.8 154.01 339.08 153.99 341.4 153.13 342.41 152.59 344.3 151.27 345.11 150.87 345.77 150.69 347.18 150.6 357.03 145.09 362.38 143.27 363.94 142.38 365.54 141.99 366.68 141.27 367.91 139.48 368.53 138.86 369.7 138.55 370.79 138.48 371.61 138.12 371.92 136.94 372.09 136.33 372.88 135.73 372.35 137.97 372.17 138.32 371.84 138.81 371.94 139.11 372.16 139.38 372.54 139.73 372.93 140.22 373.33 141 373.66 142.02 373.5 142.66 373.28 143.19 373.36 143.51 373.58 143.73 373.96 143.86 374.34 143.91 374.78 144.11 375.28 144.56 375.91 145.52 376.2 146.76 376.55 153.11 376.51 153.84 376.41 154.37 376.07 155.46 375.98 156.45 375.89 156.89 375.68 157.15 375.48 157.21 374.83 157.36 Z" id="IRQ-3052" data-name="Sala ad-Din"/>
<path d="M 478.54 426.4 477.34 429.68 477.07 430.01 476.72 430.35 476.34 430.36 475.83 430.45 475 430.89 474.79 431.31 474.8 431.81 475.11 432.35 475.49 432.86 475.98 433.27 476.7 433.76 477.19 434.29 477.17 434.66 476.74 434.91 474.39 435.67 471.41 437.36 469.82 437.9 469.16 438.72 468.48 440.7 467.91 443.26 470.64 454.81 470.31 457.46 470.26 462.6 471.35 468.7 469.75 470.64 468.35 469.94 466.12 469.2 464.39 469.56 462.58 471.31 462.18 473.22 463.94 475.99 469.25 481.35 470.77 482.19 486.45 487.73 480.28 516.48 478.31 520.39 474.42 526.31 470.64 529.27 467.46 532.49 463.49 537.83 462.93 538.17 458.01 539.95 453.97 542.48 452.69 543.6 449.35 547.36 446.45 552.33 431.76 588.9 413.86 616.11 412.81 617.68 408.86 614.89 399.52 608.3 390.17 601.71 380.82 595.13 371.48 588.54 364.29 583.47 357.11 578.4 349.93 573.33 342.74 568.26 334.11 562.18 334.11 562.18 334.1 562.17 334.09 562.17 327.95 557.57 328.56 556.74 330.68 552.37 335.97 543.86 338.4 538.82 339.43 535.97 340.44 528.77 340.71 527.97 341.33 526.75 344.13 522.62 348.72 517.04 349.32 515.92 349.86 514.21 350.42 510.21 350.69 509.19 353.9 501.93 354.24 500.18 354.18 498.97 353.87 498.39 353.72 497.69 353.72 496.62 353.95 495.21 354.71 493.24 363.36 477.36 364.57 474.34 365.02 472.06 365.12 469.45 366.29 467.66 378.98 451.61 381.33 449.43 382.84 448.45 384.17 447.92 385.87 447.79 386.5 447.66 388.93 446.3 389.89 445.95 395.09 445.26 396.4 444.85 397.49 444.27 399.57 442.84 407.16 439.26 408.56 438.13 410 436.65 410.43 434.21 410.51 432.6 401.93 425.66 439.95 416.41 447.56 414.4 449.68 414.18 450.66 414.91 451.34 415.26 451.73 414.82 452.1 413.91 452.24 413.42 453.22 411.37 454.38 415.28 454.94 416.06 455.44 416.49 455.11 417.89 453.14 418.83 452.54 419.65 452.67 420.54 453.32 422.06 454.86 424.15 455.39 424.68 456 425.47 456.4 426.17 457.64 427.58 460.54 425.22 462.23 424.24 462.61 424.26 463.28 424.14 463.91 424.2 467.92 421.76 470.15 422.76 471.97 424.07 474.4 425.25 478.54 426.4 Z" id="IRQ-3061" data-name="An-Najaf"/>
<path d="M 437.74 375.69 440 375.98 442.85 376.63 443.28 376.68 443.66 376.63 444.53 376.22 444.96 376.07 445.34 376.05 445.84 376.22 446.4 376.57 448.38 378.27 448.71 378.91 448.73 379.4 448.78 380.32 448.02 381 445.14 389.85 445.33 392.9 446.67 395.67 451.27 401.36 451.84 402.99 451.07 404.62 450.66 405.96 451.27 407.66 452.96 410.49 453.22 411.37 452.24 413.42 452.1 413.91 451.73 414.82 451.34 415.26 450.66 414.91 449.68 414.18 447.56 414.4 439.95 416.41 401.93 425.66 398 422.81 384.54 414.26 365.34 397.8 363.36 395.3 362.8 392.83 367.14 390.89 370.97 389.67 380.95 388.47 382.69 388.27 383.58 388.05 385.79 386.83 401.05 375.45 407.51 372.79 414.42 372.06 423.76 372.05 437.74 375.69 Z" id="IRQ-3062" data-name="Karbala&apos;"/>
<path d="M 468.34 343.49 468.34 343.49 454.8 342.91 452.71 342.42 451.66 342.28 450.59 342.42 449.64 341.55 447.46 340.4 446.51 339.61 445.7 338.2 445.31 336.55 445.29 334.83 445.62 333.26 446.59 331.66 449.17 329.34 449.95 327.75 449.94 327.33 449.83 326.97 454.07 326 455.14 323.13 455.69 322.57 456.17 322.64 462.01 322.85 462.82 322.98 464.44 323.72 464.44 323.73 467.49 325.98 470.05 324.34 470.33 324.56 470.66 324.93 470.78 325.86 470.98 326.6 471.42 327.74 471.47 327.98 471.42 328.1 471.37 328.29 471.3 329.27 470.88 330.06 470.99 332.48 471.09 334.94 470.89 335.55 470.64 336.09 470.25 336.29 469.96 336.27 469.93 336.05 470.13 335.8 470.13 335.06 469.57 336.36 469.75 337.05 470.07 337.62 470.11 337.97 470.01 338.28 469.5 338.79 469.25 339 468.46 339.97 468.34 343.49 Z" id="IRQ-3063" data-name="Baghdad"/>
<path d="M 727 501.67 726.72 521.39 753.52 521.39 754.39 521.85 754.65 522.89 754.37 562.18 754.37 562.18 754.5 564.68 763.13 565.75 764.04 566.02 764.88 566.47 766.25 567.74 767.29 569.35 768.03 571.12 768.7 574.72 769.05 575.5 769.71 576.09 770.61 576.44 771.57 576.57 772.56 576.54 775.54 576.1 776.57 576.14 777.56 576.43 778.32 577 779.98 579.39 782.6 581.98 785.77 584.49 786.3 585.18 786.72 586.01 786.88 586.89 786.67 587.76 786.07 588.46 785.29 589.07 784.65 589.75 784.47 590.66 784.63 591.22 785.65 593.12 787.28 594.71 787.74 595.55 787.96 595.69 789.45 599.75 789.62 600.81 790.35 602.4 790.73 602.93 791.26 603.4 792.39 604.17 793.6 604.82 796.12 605.44 796.7 605.66 796.7 605.67 796.68 605.71 796.68 606.08 798.65 606.06 799 606.87 797.99 607.84 795.84 608.31 786.98 607.53 780.75 605.66 777.82 603.77 774.97 603 770.45 600.52 766.91 599.45 763.11 598.84 759.62 598.79 756.51 599.51 750.86 602.18 750.28 600.04 750.01 597.57 749.45 595.31 748.07 593.78 749.08 596.43 749.19 597.43 748.99 598.49 748.64 599.47 748.57 600.35 749.19 601.07 749.15 603 731.49 595.29 726.82 594.5 705.74 594.5 701.05 595 687.91 599.72 683.64 602.24 680.85 605.7 673.91 621.1 670.92 625.95 670.5 627.12 670.19 629.58 669.99 630.41 668.4 633.47 662.3 642.27 659.88 647.81 658.67 649.41 653.44 654.42 648.33 661.93 636.07 673.94 636.08 673.88 636.51 671.87 638.28 655.43 638.93 653.31 639.89 651.44 642.9 646.89 643.25 644.79 643.32 634.34 644.33 626.1 651 595.23 651.02 592.9 650.77 590.81 650.28 589.17 649.57 587.64 641.55 577.52 640.51 575.47 639.82 573.16 638.5 565.63 637.15 560.59 663.77 554.29 665.26 554.33 676.58 556.11 679.05 555.72 679.54 553.43 679.1 547.48 679.21 545.65 679.72 543.33 681.79 534.1 682.82 517.14 682.12 510.37 683.02 505.36 684.55 503.32 686.21 502.12 689.04 500.98 700.35 498.45 704.03 498.19 715.67 499.18 726.97 501.66 727 501.67 Z" id="IRQ-3222" data-name="Al-Basrah"/>
<path d="M 572.81 467.82 575.39 470.36 575.84 471.56 575.74 471.95 575.69 473.09 575.81 474.17 575.73 474.77 575.55 475.17 575.23 475.28 574.88 475.21 574.06 474.66 573.63 474.43 573.18 474.28 572.71 474.58 572.31 475.22 571.79 476.98 571.82 477.71 572.1 478.18 572.53 478.33 573 478.42 573.46 478.96 573.89 479.89 574.45 482.38 574.55 483.46 574.27 484.4 568.66 490.43 567.76 491.93 567.97 493.08 570.25 493.42 574.75 493.59 570.06 503.08 569.14 505.7 569.33 506.57 570.91 507.12 571.22 507.42 572.19 508.09 572.85 508.35 573.34 508.55 573.61 509.38 573.51 510.81 573.03 513.32 572.45 514.16 571.45 514.29 569.81 513.79 568.57 513.91 567.94 515.01 567.56 517.1 567.11 518.6 566.77 521.02 566.3 522.81 567.43 534.2 607.46 538.71 620.57 542.69 628.05 553.35 631.42 559.34 632.3 560.4 633.36 561.1 634.45 561.14 637.15 560.59 638.5 565.63 639.82 573.16 640.51 575.47 641.55 577.52 649.57 587.64 650.28 589.17 650.77 590.81 651.02 592.9 651 595.23 644.33 626.1 643.32 634.34 643.25 644.79 642.9 646.89 639.89 651.44 638.93 653.31 638.28 655.43 636.51 671.87 636.08 673.88 636.07 673.94 633.7 676.26 630.13 676.93 626.56 677.59 625.13 677.86 623 678.26 619.43 678.92 610.84 678.24 604.63 677.75 598.41 677.25 592.21 676.76 585.99 676.27 577.63 675.61 569.27 674.94 560.91 674.28 552.55 673.62 544.19 672.96 535.83 672.29 527.48 671.63 519.12 670.97 512.62 670.46 506.14 669.94 499.65 669.43 493.14 668.91 485.68 668.32 485.14 668.14 484.63 667.96 484.11 667.78 483.59 667.61 477.31 663.18 469.56 657.7 461.77 652.22 454 646.73 446.22 641.25 436.88 634.66 427.55 628.07 418.2 621.48 412.81 617.68 413.86 616.11 431.76 588.9 446.45 552.33 449.35 547.36 452.69 543.6 453.97 542.48 458.01 539.95 462.93 538.17 463.49 537.83 467.46 532.49 470.64 529.27 474.42 526.31 478.31 520.39 480.28 516.48 486.45 487.73 500.34 496.49 506.95 499.54 508.67 491.05 513.79 479.1 516.32 474.84 517.58 471.91 517.71 470.69 515.9 469.97 515.35 469.16 514.98 468.22 514.47 467.49 513.91 467.21 512.46 466.74 511.68 466.38 510.75 465.56 512.64 465.38 525.84 462.68 526.67 461.45 532.54 461.62 552.44 464.95 566.88 468.99 570.36 468.95 572.13 468.44 572.81 467.82 Z" id="IRQ-3223" data-name="Al-Muthannia"/>
<path d="M 524.9 407.23 529.62 407.78 530.15 409.07 532.2 409.81 537.95 410.4 538.89 411.62 540.68 412.07 540.98 412.75 540.84 413.52 539.76 415.71 539.56 416.87 540 418.09 541.22 419.3 549.33 425.8 550.82 427.49 551.83 429.03 552.61 430.04 553.91 430.76 559.05 432.37 564.67 433.78 564.93 434.77 564.33 435.21 564.02 435.58 564.07 436.09 567.91 443.66 567.36 445.67 567.23 446.83 567.31 448.51 570.56 457.03 572.81 467.82 572.13 468.44 570.36 468.95 566.88 468.99 552.44 464.95 532.54 461.62 526.67 461.45 525.84 462.68 512.64 465.38 510.75 465.56 511.68 466.38 512.46 466.74 513.91 467.21 514.47 467.49 514.98 468.22 515.35 469.16 515.9 469.97 517.71 470.69 517.58 471.91 516.32 474.84 513.79 479.1 508.67 491.05 506.95 499.54 500.34 496.49 486.45 487.73 470.77 482.19 469.25 481.35 463.94 475.99 462.18 473.22 462.58 471.31 464.39 469.56 466.12 469.2 468.35 469.94 469.75 470.64 471.35 468.7 470.26 462.6 470.31 457.46 470.64 454.81 467.91 443.26 468.48 440.7 469.16 438.72 469.82 437.9 471.41 437.36 474.39 435.67 476.74 434.91 477.17 434.66 477.19 434.29 476.7 433.76 475.98 433.27 475.49 432.86 475.11 432.35 474.8 431.81 474.79 431.31 475 430.89 475.83 430.45 476.34 430.36 476.72 430.35 477.07 430.01 477.34 429.68 478.54 426.4 480.99 427.06 485.5 429.39 486.56 429.72 487.54 429.71 488.31 429.5 488.99 429.17 489.54 428.74 491.1 427.1 491.58 426.77 492.82 426.15 493.25 425.84 493.6 425.39 493.66 424.8 493.55 424.05 492.9 423.55 492.55 423.2 492.41 422.83 492.65 422.26 493.12 421.54 493.91 420.82 494.51 420.58 495 420.62 495.47 420.96 496.4 421.76 496.9 421.97 497.46 421.7 499.85 419.78 503.43 417.46 508.67 415.65 515.68 411.67 516.24 411.23 517.23 410.21 518.21 409.59 521.85 407.72 523.01 407.34 523.71 407.18 524.9 407.23 Z" id="IRQ-3224" data-name="Al-Qadisiyah"/>
<path d="M 682.12 510.37 682.82 517.14 681.79 534.1 679.72 543.33 679.21 545.65 679.1 547.48 679.54 553.43 679.05 555.72 676.58 556.11 665.26 554.33 663.77 554.29 637.15 560.59 634.45 561.14 633.36 561.1 632.3 560.4 631.42 559.34 628.05 553.35 620.57 542.69 607.46 538.71 567.43 534.2 566.3 522.81 566.77 521.02 567.11 518.6 567.56 517.1 567.94 515.01 568.57 513.91 569.81 513.79 571.45 514.29 572.45 514.16 573.03 513.32 573.51 510.81 573.61 509.38 573.34 508.55 572.85 508.35 572.19 508.09 571.22 507.42 570.91 507.12 569.33 506.57 569.14 505.7 570.06 503.08 574.75 493.59 570.25 493.42 567.97 493.08 567.76 491.93 568.66 490.43 574.27 484.4 574.55 483.46 574.45 482.38 573.89 479.89 573.46 478.96 573 478.42 572.53 478.33 572.1 478.18 571.82 477.71 571.79 476.98 572.31 475.22 572.71 474.58 573.18 474.28 573.63 474.43 574.06 474.66 574.88 475.21 575.23 475.28 575.55 475.17 575.73 474.77 575.81 474.17 575.69 473.09 575.74 471.95 575.84 471.56 575.39 470.36 572.81 467.82 570.56 457.03 567.31 448.51 567.23 446.83 567.36 445.67 567.91 443.66 576.09 444.1 581.08 442.32 581.52 442.33 581.9 442.59 582.22 442.57 582.54 442.42 582.9 442.08 583.12 441.99 583.33 442.06 583.55 442.27 583.96 442.53 584.35 442.45 587.17 440.65 587.84 440.47 588.56 440.52 589.32 440.72 590.58 440.93 591.17 440.92 591.54 440.75 591.84 440.13 592.26 439.81 594.97 439.02 616.17 438.96 617.99 440.5 618.99 441.62 619.12 442.31 617.78 442.61 616.43 443.3 615.63 444.67 617.77 448.54 624.07 457.44 623.96 459.36 623.68 460.46 625.56 464.58 628.76 467.66 631.29 468.91 631.78 469.36 634.31 472.85 635.65 474.01 638.27 475.89 639.14 476.79 639.74 478.08 639.95 479.34 639.65 480.99 639.21 481.99 638.36 483.47 638.26 484.53 638.31 485.29 639.62 488.66 646.88 492.53 647.88 493.19 648.8 493.98 649.84 495.18 650.33 496.01 650.59 496.73 650.67 497.46 650.64 498.36 650.28 501.27 650.27 502.13 650.37 502.9 650.55 503.58 650.84 504.16 651.41 504.8 654.94 507.24 656.07 508.18 659.26 509.61 667.83 509.5 682.12 510.37 Z" id="IRQ-3225" data-name="Dhi-Qar"/>
<path d="M 719.16 430.96 720.36 432.43 722.22 435.99 723.47 437.2 726.32 438.39 727.12 439.83 727.12 439.85 727.51 441.28 730.42 445.74 730.98 446.39 732.46 447.21 733.08 447.7 733.53 448.44 733.96 449.87 734.25 450.48 735.56 451.73 738.77 453.79 739.89 455.25 740.12 456.98 739.63 458.83 727.2 487.69 727 501.67 726.97 501.66 715.67 499.18 704.03 498.19 700.35 498.45 689.04 500.98 686.21 502.12 684.55 503.32 683.02 505.36 682.12 510.37 667.83 509.5 659.26 509.61 656.07 508.18 654.94 507.24 651.41 504.8 650.84 504.16 650.55 503.58 650.37 502.9 650.27 502.13 650.28 501.27 650.64 498.36 650.67 497.46 650.59 496.73 650.33 496.01 649.84 495.18 648.8 493.98 647.88 493.19 646.88 492.53 639.62 488.66 638.31 485.29 638.26 484.53 638.36 483.47 639.21 481.99 639.65 480.99 639.95 479.34 639.74 478.08 639.14 476.79 638.27 475.89 635.65 474.01 634.31 472.85 631.78 469.36 631.29 468.91 628.76 467.66 625.56 464.58 623.68 460.46 623.96 459.36 624.07 457.44 617.77 448.54 615.63 444.67 616.43 443.3 617.78 442.61 619.12 442.31 618.99 441.62 617.99 440.5 616.17 438.96 626.34 438.63 629.59 438.97 632.53 440.25 635.6 440.92 637.32 440.74 639.51 428.5 638.54 426.98 636.94 424.95 627 421.3 625.49 420.28 625.23 419.05 625.69 417.58 629.12 409.24 629.24 408.53 628.92 407.88 628.54 407.39 627.21 406.47 626.49 405.83 626.58 405.11 627.08 404.18 628.21 402.68 628.46 402.17 628.73 400.99 629.01 400.16 629.11 399.29 629.01 394.32 629.52 390.42 634.82 376.85 635.43 376.07 637.24 374.99 638 374.19 639.26 372.32 639.26 372.32 639.57 372.47 643.32 375.02 648.66 377.74 652.04 380.99 676.6 399.07 676.61 399.07 676.62 399.08 679.22 400.7 681.7 401.8 684.28 402.28 687.15 402.02 688.59 401.56 692.33 399.81 693.47 399.87 698.09 401.22 699.84 401.99 700.88 403.01 701.79 404.27 703.16 405.75 705.34 407.16 705.79 407.76 705.92 408.7 705.63 409.24 705.17 409.69 704.45 411.2 704.13 411.51 704.11 411.92 704.66 413.02 705.03 413.49 707.46 415.45 707.85 415.9 708.16 416.35 709.6 418.05 710.12 418.51 710.91 418.84 711.35 419.88 712.94 420.91 713.36 421.97 713.24 423.1 712.8 423.9 712.32 424.61 712 425.5 711.83 426.63 711.91 427.28 712.46 427.65 713.74 427.96 714.79 428.52 715.45 429.36 716.17 430.06 717.4 430.19 718.98 430.74 719.16 430.96 Z" id="IRQ-3226" data-name="Maysan"/>
<path d="M 639.26 372.32 639.26 372.32 638 374.19 637.24 374.99 635.43 376.07 634.82 376.85 629.52 390.42 629.01 394.32 629.11 399.29 629.01 400.16 628.73 400.99 628.46 402.17 628.21 402.68 627.08 404.18 626.58 405.11 626.49 405.83 627.21 406.47 628.54 407.39 628.92 407.88 629.24 408.53 629.12 409.24 625.69 417.58 625.23 419.05 625.49 420.28 627 421.3 636.94 424.95 638.54 426.98 639.51 428.5 637.32 440.74 635.6 440.92 632.53 440.25 629.59 438.97 626.34 438.63 616.17 438.96 594.97 439.02 592.26 439.81 591.84 440.13 591.54 440.75 591.17 440.92 590.58 440.93 589.32 440.72 588.56 440.52 587.84 440.47 587.17 440.65 584.35 442.45 583.96 442.53 583.55 442.27 583.33 442.06 583.12 441.99 582.9 442.08 582.54 442.42 582.22 442.57 581.9 442.59 581.52 442.33 581.08 442.32 576.09 444.1 567.91 443.66 564.07 436.09 564.02 435.58 564.33 435.21 564.93 434.77 564.67 433.78 559.05 432.37 553.91 430.76 552.61 430.04 551.83 429.03 550.82 427.49 549.33 425.8 541.22 419.3 540 418.09 539.56 416.87 539.76 415.71 540.84 413.52 540.98 412.75 540.68 412.07 538.89 411.62 537.95 410.4 532.2 409.81 530.15 409.07 529.62 407.78 524.9 407.23 524.77 405.54 524.54 402.98 523.49 402.97 518.62 402.78 517.25 402.45 515.94 401.67 514.37 400.34 512.94 398.82 509.76 392.75 506.27 382.98 505.76 382.09 504.66 381.07 503.49 380.28 501.4 379.28 498.75 378.34 498.32 377.72 497.61 377.52 494.64 377.28 490.51 376.17 485.33 373.67 484.77 373.56 473.23 372.87 472.73 372.71 472.34 372.46 471.78 372.01 471.24 370.72 470.74 368.71 470.46 360.44 469.85 358.01 471.21 357.36 473.02 357.82 473.25 357.73 473.61 357.51 473.92 357.02 474.31 356.22 475.12 355.08 475.93 352.96 476.51 351.8 477.1 351.55 477.59 352.32 478.3 353.92 478.73 354.66 479.25 355.25 479.89 355.74 480.64 356.17 481.48 356.53 482.4 356.78 483.32 356.81 484.18 356.53 485.11 355.88 485.48 355.76 485.01 354.52 484.75 354.14 484.29 353.25 485.05 352.28 486.5 351.07 490.04 348.78 491.84 346.55 493.65 344.69 495.24 343.63 497.69 343.73 507.09 345.66 509.95 345.85 517.87 345.11 543.43 351.29 548.17 352.46 548.83 352.24 549.77 351.8 550.79 350.68 552.1 349.5 555.23 347.27 555.8 346.77 557.67 344.4 559.8 342.22 560.89 340.88 561.65 339.16 561.98 338.03 562.51 337.14 563.29 336.19 566.14 333.32 567.05 332.15 567.51 331.74 567.88 331.59 568.22 331.66 568.56 331.79 568.87 331.85 569.22 331.82 570.46 331.34 571.42 330.84 572.11 330.29 572.98 329.41 576.79 327.05 577.44 326.8 577.93 326.65 578.38 326.63 579.07 326.48 580.05 326.15 581.97 325.18 582.85 324.6 583.44 323.98 584.41 321.06 584.72 320.54 586.01 318.69 587.38 317.4 587.38 317.4 587.69 317.54 587.94 317.66 588.19 317.82 590.93 320.68 591.86 322.09 592.52 323.63 592.77 325.29 592.81 326.65 593.23 327.84 595.97 330.05 599.21 333.89 601.81 335.65 602.94 336.62 603.67 338 603.69 338.84 603.19 340.4 603.14 341.07 603.5 341.83 604.44 342.33 604.5 343.07 603.91 344.12 602.79 345.27 600.59 347.1 598.87 348.19 597.55 348.41 596.18 348.32 594.39 348.46 592.75 349.23 592.67 350.22 593.81 351.04 597.39 351.39 598.92 351.93 600.1 352.82 600.57 353.93 600.02 355.32 598.81 356.37 597.46 357.3 596.45 358.29 596.45 358.31 598.19 361.57 602.97 362.06 612.58 361.15 621.24 363.41 629.37 366.67 631.65 368.61 639.26 372.32 Z" id="IRQ-3227" data-name="Wasit"/>
<path d="M 549.62 112.74 552.76 113.67 555.78 115.93 556.83 116.47 559.05 116.81 561.48 118.63 565.26 122.98 567.34 127.18 568.34 128.26 569.81 128.59 572.89 127.84 573.8 127.99 575.12 128.73 576.8 128.63 578.38 128 580.35 126.62 581.18 126.65 582.02 126.87 582.87 126.94 585.49 126.2 590.68 126.39 592.32 125.96 593.89 125.23 595.21 124.82 596.56 124.84 599.07 125.62 599.66 125.7 600.05 125.99 600.46 127.66 600.81 128.22 601.3 128.67 601.97 129.12 603.61 129.69 605.36 129.64 608.83 129.02 610.37 128.56 611.77 127.77 613.23 127.18 614.99 127.33 616.35 128.11 616.95 129.21 616.79 130.48 615.84 131.81 614.54 132.76 612.06 134.05 610.95 135.38 609.68 136.38 607.98 136.54 604.77 136.39 600.69 138.16 599.01 138.48 593.3 138.33 591.62 138.81 590.59 139.75 589.94 141.04 589.66 142.47 589.65 143.81 590.44 146.95 590.22 148.07 587.73 147.45 587.33 147.45 586.96 147.54 587.67 149.19 588.59 150.74 588.9 151.08 589.02 151.42 588.91 151.76 588.59 152.08 587.94 152.49 587.51 153.02 587.31 153.68 587.34 154.43 588.4 156.78 593.62 163.62 598.13 166.91 600.08 168.76 600.67 171.16 600.5 171.49 600.07 172.32 599.06 173.31 598.33 174.34 598.55 175.63 599.69 176.28 602.85 176.25 604.08 177.1 603.77 179.24 602.01 181.72 600.91 184.02 602.6 185.63 601.95 186.62 601.07 187.01 600.06 187.17 597.99 187.74 596.53 187.42 595.71 187.49 593.52 188.57 592.32 189.49 591.03 189.77 588.59 188.9 587.54 188.97 586.69 188.68 584.97 187.77 583.77 187.42 583.2 187.61 582.07 189.14 581.99 189.52 582.22 190.53 582.05 190.91 581.56 191.12 580.41 191.21 579.88 191.36 579.01 192.06 578.62 193 578.6 194.08 578.84 195.19 578.84 195.2 579.59 197.32 579.38 198.85 578.69 200.34 578.06 202.34 576.82 203.69 574.62 203.06 573.66 202.64 573.66 202.64 573.14 201.73 572.36 194.25 572.46 193.69 572.65 193.55 572.88 193.59 573.51 193.54 573.83 193.57 574.2 193.68 574.52 193.74 574.92 193.73 575.28 193.66 575.6 193.56 575.86 193.42 574.98 192.25 569.4 187.39 568.95 186.8 568.57 186.48 567.94 186.04 567.4 185.76 566.87 185.77 566.39 186.03 565.67 186.67 565.56 187.09 565.49 187.64 565.19 188.06 564.75 188.57 563.87 189.41 563.45 189.94 563.11 190.6 562.89 190.91 562.24 191.16 562.01 191.28 561.77 191.46 561.57 191.55 561.44 191.5 561.43 191.33 561.44 191.1 561.38 190.92 561.19 190.77 560.92 190.86 560.61 191.12 560.11 191.86 559.9 192.3 559.95 192.94 560.16 193.13 560.39 193.17 560.66 193.08 560.84 193.04 560.96 193.17 560.87 193.44 560.52 194.04 559.83 194.4 559.5 194.74 559.22 195.91 558.42 196.49 558.6 196.97 558.83 197.03 559.61 197.08 559.91 197.13 560.15 197.23 560.28 197.38 560.31 197.55 560.29 197.79 560.29 198 560.08 198.52 559.65 199.27 557.77 201.74 557.1 202.48 555 204.06 554.76 204.07 554.49 204.03 554.24 204.05 554.03 204.22 553.96 204.65 553.8 205.06 553.45 205.56 552.64 206.28 552.03 207.53 551.75 208.48 551.07 209.98 550.95 210.32 550.77 210.57 550.29 210.76 549.9 211.03 549.52 211.44 548.46 213.75 547.56 215.07 547.27 215.66 547.09 216.11 547.08 216.36 546.99 216.69 546.98 216.99 547.01 217.27 547.08 217.48 547.13 217.7 547.09 217.94 546.88 218.55 546.68 218.94 545.74 220.27 545.47 221.03 545.45 221.27 545.37 221.48 544.97 221.9 544.39 222.3 542.88 223 542.04 223.28 541.32 223.42 540.82 223.43 540 223.58 539.7 223.6 539.09 223.56 538 224.34 529.12 233.16 526.45 234.47 526.22 233.2 526.07 232.82 525.86 232.57 525.53 232.52 525.28 232.52 524.98 232.49 524.35 232.31 524.11 232.15 523.92 231.79 523.91 231.48 524.5 230.58 524.73 230.04 524.85 229.55 524.87 229.1 524.8 228.69 524.31 227.47 524.21 226.98 524.19 226.5 524.3 226.12 524.53 225.76 525.65 224.72 526.02 224.29 526.14 223.97 526.14 223.62 525.22 221.54 524.77 219.69 524.69 219.13 524.68 218.75 524.73 218.35 524.72 217.84 524.37 216 524.15 213.12 523.87 212.38 523.18 211.51 522.55 210.86 521.45 210.09 520.64 209.74 519.62 209.47 517.88 209.3 516.95 209.37 516.22 209.54 514.32 210.47 513.85 210.59 513.29 210.48 512.77 210.15 511.98 209.28 510.29 207.89 505.95 205.54 505.75 199.74 506.02 198.65 506.07 198.27 505.99 197.96 505.79 197.61 504.8 196.63 497.79 192.59 494.74 192.14 485.81 191.83 484.41 192.24 482.57 191.83 481.23 191.31 473.01 184.21 476.62 181.7 482.98 180.06 483.84 179.37 484.07 178.69 483.51 177.57 483.38 176.96 483.43 176.27 483.75 175.52 484.59 174.5 485.57 173.93 486.32 173.59 486.93 173.44 487.22 173.08 487.45 172.57 487.67 171.48 488.56 169.75 488.9 168.49 488.58 167.27 488.08 165.9 487.84 164.69 488.46 163.09 491.43 159.8 492.27 158.42 492.69 157.28 492.6 156.35 491.03 154.6 489.29 153 488.74 152.18 488.53 151.38 488.83 149.03 489.08 146.1 489.41 145.15 489.59 143.07 489.92 142.21 491.3 140.19 491.22 138.82 490.55 137.2 486.76 134.46 484.9 132.39 482.83 130.55 478.33 122.5 479.82 121.94 480.05 121.97 480.43 122.12 480.66 122.38 480.99 122.65 481.29 122.61 482.19 122.19 482.54 122.19 482.78 122.32 482.92 122.5 482.94 122.69 482.93 122.89 482.95 123.13 483.26 123.47 483.66 123.53 484.13 123.47 486.08 122.98 486.71 123 487.13 123.1 487.55 123.65 488.02 123.98 488.45 124.01 488.91 123.87 489.36 123.63 490.05 123.42 490.56 123.45 490.93 123.57 491.28 123.89 491.58 124.26 492.24 124.69 492.62 124.72 492.87 124.54 492.94 124.27 493.02 123.73 493.15 123.48 493.38 123.21 493.73 122.95 493.98 122.94 494.28 123.03 494.53 123.2 494.69 123.42 494.77 124.63 494.94 125.07 495.14 125.19 495.39 125.13 496.17 124.49 497.42 124.14 497.87 123.62 497.79 123.42 496.9 122.09 496.95 121.87 497.19 121.76 497.84 121.66 498.13 121.68 498.63 121.86 498.91 121.89 499.79 121.79 500.18 121.84 500.46 121.98 500.84 122.3 501.02 122.41 501.2 122.51 501.35 122.69 501.78 122.92 502.56 123.1 504.42 123.14 505.29 123.04 505.87 122.87 506.39 122.52 506.55 122.3 506.73 121.81 506.86 121.63 506.9 121.44 506.87 121.22 506.76 120.98 506.22 120.45 500.69 118.21 498.67 117.06 496.1 115.1 490.13 109.25 489.34 108.73 488.37 108.21 486.51 107.56 478.33 102.84 477.9 102.09 477.54 101.06 479.3 99.91 479.93 99.4 480.38 98.84 480.8 98.18 481.44 97.79 483.33 97.08 484.09 96.38 483.86 95.71 483.4 95.09 479.31 91.09 478.5 90.54 477.64 90.51 477.11 90.83 476.32 91.56 471.62 85.77 471.17 84.82 471.19 83.09 473.88 81.17 474.79 80.09 476.36 78.61 478.86 77.08 480.56 76.63 481.91 76.79 484.24 77.34 487.97 76.87 491.53 76.1 495.77 74.39 497.57 74.06 499.24 74.03 502.72 74.73 505.53 74.9 506.71 74.54 507.62 74.01 508.72 72.67 509.17 71.86 509.5 71.09 509.5 71.08 510.79 71.98 511.84 72.89 511.91 74.05 512.43 74.72 513.13 75.26 513.79 76.04 514.18 77.1 514.31 77.91 514.62 78.65 515.55 79.51 517.76 80.35 520.14 80.2 524.71 78.73 526.77 78.85 528.2 80.31 529.08 82.36 529.48 84.24 529.68 87.76 530.25 89.18 531.78 90.76 529.81 91.79 530.27 92.77 531.79 93.74 532.98 94.69 533.35 96.25 533.15 100.02 533.57 101.73 536.09 104.39 537.13 106.04 536.79 107.68 535.79 108.97 534.79 110.65 534.31 112.33 534.84 113.65 534.84 113.66 534.84 113.66 534.85 113.67 534.86 113.67 536.3 114.87 538.05 115.07 539.86 114.57 541.47 113.67 541.48 113.67 541.5 113.67 541.51 113.66 541.52 113.65 542.97 113.32 545.68 112.23 547.81 112.2 549.62 112.74 Z" id="IRQ-3242" data-name="As-Sulaymaniyah"/>
<path d="M 573.66 202.64 572.2 202 570.31 202.08 569.77 203.65 569.93 205.72 569.51 207.7 567.26 209 564.93 209.2 563.9 209.55 563.1 210.48 562.84 211.46 563.03 213.11 562.78 214.04 560.51 216.19 559.89 217.5 561.1 218.64 561.78 218.96 562.51 219.43 563.11 220.02 563.4 220.69 563.65 221.55 564.05 222.05 564.47 222.45 564.8 223.02 565.06 224.56 565.1 226.09 565.36 227.47 566.27 228.53 566.51 229.06 566.49 229.94 566.27 230.8 565.94 231.33 565.45 231.42 563.66 230.89 558.05 230.53 555.53 230.02 552.73 228.81 549.55 228.04 549.22 230.27 549.9 233.57 549.78 235.99 549.39 236.63 548.93 237.22 548.4 237.74 547.81 238.18 543.53 238.98 542.74 240.05 545.26 246.76 546.3 248.52 547.81 249.45 549.44 248.37 551.26 248.36 552.94 249.25 554.2 250.85 554.64 252.7 554.48 254.71 553.39 258.63 552.99 259.37 551.84 260.91 551.67 261.67 552.07 262.6 552.67 263.3 553.13 264.01 553.13 264.91 552.3 265.83 549.01 268.08 547.81 269.14 545.82 270.59 544.9 272.4 544.22 274.49 542.97 276.75 542.97 276.76 542.96 276.76 542.28 277.34 541.49 277.79 539.74 278.45 541.43 280.41 543.28 281.28 545.4 281.4 547.81 281.09 548.01 281.11 548.19 281.18 548.34 281.29 555.6 292.28 556.69 293.29 557.95 294.17 559.02 295.16 559.61 296.51 559.96 298.16 560.52 299.6 561.34 300.93 562.45 302.25 563.69 303.28 567.53 305.59 567.82 306.22 568.09 306.82 568.07 309.72 568.63 310.29 570.05 309.99 571.39 309.25 573.77 307.34 575.26 306.81 579.22 306.76 580.98 306.39 580.66 308.9 582.1 310.12 583.83 311.12 584.4 312.92 583.4 314.15 579.53 316.12 578.26 317.53 579.65 318.53 582.07 319 584.54 318.74 586.05 317.54 586.46 317.35 586.87 317.28 587.28 317.35 587.38 317.4 587.38 317.4 586.01 318.69 584.72 320.54 584.41 321.06 583.44 323.98 582.85 324.6 581.97 325.18 580.05 326.15 579.07 326.48 578.38 326.63 577.93 326.65 577.44 326.8 576.79 327.05 572.98 329.41 572.11 330.29 571.42 330.84 570.46 331.34 569.22 331.82 568.87 331.85 568.56 331.79 568.22 331.66 567.88 331.59 567.51 331.74 567.05 332.15 566.14 333.32 563.29 336.19 562.51 337.14 561.98 338.03 561.65 339.16 560.89 340.88 559.8 342.22 557.67 344.4 555.8 346.77 555.23 347.27 552.1 349.5 550.79 350.68 549.77 351.8 548.83 352.24 548.17 352.46 543.43 351.29 517.87 345.11 509.95 345.85 507.09 345.66 497.69 343.73 495.24 343.63 493.65 344.69 491.84 346.55 490.04 348.78 486.5 351.07 485.05 352.28 484.29 353.25 484.75 354.14 485.01 354.52 485.48 355.76 485.11 355.88 484.18 356.53 483.32 356.81 482.4 356.78 481.48 356.53 480.64 356.17 479.89 355.74 479.25 355.25 478.73 354.66 478.3 353.92 477.59 352.32 477.1 351.55 476.51 351.8 475.93 352.96 475.12 355.08 474.31 356.22 473.92 357.02 473.61 357.51 473.25 357.73 473.02 357.82 471.21 357.36 471.69 356.22 471.73 353.05 471.42 351.32 470.78 349.31 469.32 346.19 468.3 344.45 468.34 343.49 468.46 339.97 469.25 339 469.5 338.79 470.01 338.28 470.11 337.97 470.07 337.62 469.75 337.05 469.57 336.36 470.13 335.06 470.13 335.8 469.93 336.05 469.96 336.27 470.25 336.29 470.64 336.09 470.89 335.55 471.09 334.94 470.99 332.48 470.88 330.06 471.3 329.27 471.37 328.29 471.42 328.1 471.47 327.98 471.42 327.74 470.98 326.6 470.78 325.86 470.66 324.93 470.33 324.56 470.05 324.34 467.49 325.98 464.44 323.73 464.44 323.72 462.82 322.98 462.01 322.85 456.17 322.64 455.69 322.57 455.14 323.13 454.07 326 449.83 326.97 449.58 327.03 447.13 322.51 451.48 317.25 452.69 316.03 454.6 314.55 456.02 313.68 459.23 311.29 459.91 309.17 460.16 307.15 459.23 305.27 460.43 300.86 460.76 300.27 461.9 298.75 461.91 298.39 461.7 298.06 460.09 296.7 459.54 296.11 459.12 295.42 458.91 294.69 458.92 293.94 459.08 293.2 460.6 289.71 463.39 286.07 463.87 284.64 463.95 283.12 463.68 281.56 463.05 280.29 462.08 279.27 458.31 276.43 457.57 276.17 457.08 275.99 454.9 275.72 452.67 275.94 452.01 276.1 451.43 276.15 451.04 276.08 450.79 275.87 450.77 275.2 450.82 274.8 451.73 273.72 451.95 272.7 452.54 271.36 452.43 270.95 452 270.39 452.14 270.13 453.88 269.12 454.2 268.85 454.4 268.33 454.4 267.99 454.29 267.71 453.7 266.84 453.6 266.53 453.75 266.24 454.08 266.01 454.75 265.87 455.71 265.85 455.89 265.75 455.99 265.53 455.91 263.59 455.74 263.29 455.57 263.08 455.56 262.88 455.85 262.71 456.6 262.57 457.58 262.61 457.94 262.5 458.27 262.24 458.51 261.72 458.84 261.27 459.12 260.98 459.6 260.91 459.75 261.09 459.77 261.32 459.57 261.71 459.6 261.83 459.75 261.92 460.01 261.94 460.26 261.81 460.44 261.57 460.64 260.91 460.97 260.31 462.66 258.23 462.99 258.05 463.71 257.84 464.65 257.8 464.93 257.76 465.21 257.62 465.53 257.41 465.87 257.25 466.12 257.29 466.58 257.72 466.83 257.88 467.06 257.81 467.22 257.47 467.21 255.98 467.36 255.53 467.98 255.19 468.38 255.07 468.67 254.87 468.73 254.55 468.51 252.93 469.63 252.32 468.68 251.34 468.1 251.08 467.48 250.66 466.73 249.95 466.27 249.4 466.04 248.93 466.04 248.58 466.68 247.76 467.49 246.3 468.03 244.78 468.08 244.12 467.8 243.31 467.6 242.91 467.51 242.62 468.06 242.14 468.25 241.88 468.53 241.12 468.68 240.84 468.73 240.62 468.49 240.47 468.24 240.5 467.78 240.73 467.51 240.78 467.2 240.73 467.03 240.58 467.03 240.35 467.41 239.97 467.59 239.75 467.63 239.56 467.36 239.42 467.16 239.48 466.96 239.61 466.8 239.68 466.74 239.55 466.8 239.25 467.18 238.7 467.5 238.48 467.88 238.41 468.2 238.39 468.99 238.18 469.26 237.97 469.35 237.66 468.99 237.01 468.68 236.75 468.38 236.64 468.16 236.65 468.06 236.56 468.16 236.35 469.14 235.61 469.34 235 469.37 234.54 468.14 231.9 468.19 231.14 468.26 230.82 468.44 230.38 469.39 229.35 469.73 229.2 470.45 229.54 472.07 230.1 473.33 230.35 474.04 230.63 474.93 231.11 477.9 233.33 478.33 233.55 478.58 233.52 478.99 232.55 479.52 231.73 480.42 230.84 481.82 229.86 483.16 229.1 484.32 228.18 485.35 227.02 486.63 224.77 486.75 223.57 486.49 222.61 486.1 222.13 485.75 221.61 485.58 221.11 485.58 220.63 485.97 220.1 486.75 219.51 488.42 218.73 490.72 218.17 491.73 217.81 492.89 217.03 494.47 215.7 495.56 214.19 495.9 213.29 495.84 212.61 495.75 212.09 495.8 211.55 496.33 210.91 497.28 210.28 499.41 209.6 502.09 208.46 505.95 205.54 510.29 207.89 511.98 209.28 512.77 210.15 513.29 210.48 513.85 210.59 514.32 210.47 516.22 209.54 516.95 209.37 517.88 209.3 519.62 209.47 520.64 209.74 521.45 210.09 522.55 210.86 523.18 211.51 523.87 212.38 524.15 213.12 524.37 216 524.72 217.84 524.73 218.35 524.68 218.75 524.69 219.13 524.77 219.69 525.22 221.54 526.14 223.62 526.14 223.97 526.02 224.29 525.65 224.72 524.53 225.76 524.3 226.12 524.19 226.5 524.21 226.98 524.31 227.47 524.8 228.69 524.87 229.1 524.85 229.55 524.73 230.04 524.5 230.58 523.91 231.48 523.92 231.79 524.11 232.15 524.35 232.31 524.98 232.49 525.28 232.52 525.53 232.52 525.86 232.57 526.07 232.82 526.22 233.2 526.45 234.47 529.12 233.16 538 224.34 539.09 223.56 539.7 223.6 540 223.58 540.82 223.43 541.32 223.42 542.04 223.28 542.88 223 544.39 222.3 544.97 221.9 545.37 221.48 545.45 221.27 545.47 221.03 545.74 220.27 546.68 218.94 546.88 218.55 547.09 217.94 547.13 217.7 547.08 217.48 547.01 217.27 546.98 216.99 546.99 216.69 547.08 216.36 547.09 216.11 547.27 215.66 547.56 215.07 548.46 213.75 549.52 211.44 549.9 211.03 550.29 210.76 550.77 210.57 550.95 210.32 551.07 209.98 551.75 208.48 552.03 207.53 552.64 206.28 553.45 205.56 553.8 205.06 553.96 204.65 554.03 204.22 554.24 204.05 554.49 204.03 554.76 204.07 555 204.06 557.1 202.48 557.77 201.74 559.65 199.27 560.08 198.52 560.29 198 560.29 197.79 560.31 197.55 560.28 197.38 560.15 197.23 559.91 197.13 559.61 197.08 558.83 197.03 558.6 196.97 558.42 196.49 559.22 195.91 559.5 194.74 559.83 194.4 560.52 194.04 560.87 193.44 560.96 193.17 560.84 193.04 560.66 193.08 560.39 193.17 560.16 193.13 559.95 192.94 559.9 192.3 560.11 191.86 560.61 191.12 560.92 190.86 561.19 190.77 561.38 190.92 561.44 191.1 561.43 191.33 561.44 191.5 561.57 191.55 561.77 191.46 562.01 191.28 562.24 191.16 562.89 190.91 563.11 190.6 563.45 189.94 563.87 189.41 564.75 188.57 565.19 188.06 565.49 187.64 565.56 187.09 565.67 186.67 566.39 186.03 566.87 185.77 567.4 185.76 567.94 186.04 568.57 186.48 568.95 186.8 569.4 187.39 574.98 192.25 575.86 193.42 575.6 193.56 575.28 193.66 574.92 193.73 574.52 193.74 574.2 193.68 573.83 193.57 573.51 193.54 572.88 193.59 572.65 193.55 572.46 193.69 572.36 194.25 573.14 201.73 573.66 202.64 573.66 202.64 Z" id="IRQ-3243" data-name="Diyala"/>
<path d="M 304.12 196.96 304.71 198.11 304.82 215.93 308.08 227.74 323.91 238.49 327.45 240.16 330.05 240.46 339.8 235.85 341.35 242.83 341.73 247.9 342.37 250.34 344.45 252.83 345.69 257.19 346.5 261.5 350.77 270.13 356.37 276.33 369.44 287.27 380.65 295.43 384.97 296.77 393.72 298 403.75 301.35 411.14 303.4 424.82 303.12 427.29 303.73 430.13 305.9 431.4 307.06 432.9 309.39 435.46 314.73 437.24 317.31 438.05 318.06 435.32 319.84 438.36 320.6 441.12 322.2 447.13 322.51 449.58 327.03 449.83 326.97 449.94 327.33 449.95 327.75 449.17 329.34 446.59 331.66 445.62 333.26 445.29 334.83 445.31 336.55 445.7 338.2 446.51 339.61 447.46 340.4 449.64 341.55 450.59 342.42 448.16 345.29 446.67 346.52 444.96 346.93 443.17 346.47 437.95 343.88 435.92 343.37 433.96 343.14 426.2 343.09 418.98 341.49 415.28 341.08 412.52 341.4 412.93 343.12 414.01 344.26 418.03 345.1 425.96 348.46 428.45 350.55 430.41 355.4 431.86 361.5 432.87 363.7 435.1 365.85 438.66 367.93 437.74 375.69 423.76 372.05 414.42 372.06 407.51 372.79 401.05 375.45 385.79 386.83 383.58 388.05 382.69 388.27 380.95 388.47 370.97 389.67 367.14 390.89 362.8 392.83 363.36 395.3 365.34 397.8 384.54 414.26 398 422.81 401.93 425.66 410.51 432.6 410.43 434.21 410 436.65 408.56 438.13 407.16 439.26 399.57 442.84 397.49 444.27 396.4 444.85 395.09 445.26 389.89 445.95 388.93 446.3 386.5 447.66 385.87 447.79 384.17 447.92 382.84 448.45 381.33 449.43 378.98 451.61 366.29 467.66 365.12 469.45 365.02 472.06 364.57 474.34 363.36 477.36 354.71 493.24 353.95 495.21 353.72 496.62 353.72 497.69 353.87 498.39 354.18 498.97 354.24 500.18 353.9 501.93 350.69 509.19 350.42 510.21 349.86 514.21 349.32 515.92 348.72 517.04 344.13 522.62 341.33 526.75 340.71 527.97 340.44 528.77 339.43 535.97 338.4 538.82 335.97 543.86 330.68 552.37 328.56 556.74 327.95 557.57 326.36 556.38 318.63 550.59 310.91 544.8 303.18 539.01 296.28 533.88 289.4 528.74 282.51 523.61 275.61 518.48 270.21 514.44 262.93 510.74 255.78 507.09 248.62 503.45 241.47 499.8 234.32 496.16 227.16 492.52 220 488.87 212.85 485.22 205.71 481.58 198.54 477.93 191.39 474.28 184.24 470.64 177.08 467 169.93 463.35 162.78 459.7 155.61 456.06 148.47 452.42 140.08 448.14 135.54 445.88 131.14 444.42 103.34 439.86 103.32 439.86 103.31 439.85 103.29 439.85 96.75 438.9 80.64 436.56 64.51 434.2 48.39 431.85 32.25 429.51 32.03 429.57 31.8 429.64 31.56 429.7 31.33 429.77 31.31 429.14 41.12 422.04 43.2 419.46 41.5 413.96 40.3 411.45 38.62 410.62 23.17 414.24 22.34 413.85 21.74 412.62 17.76 400.9 17.65 400.77 17.61 400.67 17.65 400.61 17.76 400.58 24.05 398.9 18.57 381.86 14.72 369.89 11.01 358.31 8.18 349.63 4.79 339.17 1 327.53 10.02 323.01 19.04 318.5 28.06 313.98 37.08 309.46 46.1 304.94 55.11 300.42 64.13 295.91 73.15 291.39 82.16 286.87 91.19 282.36 100.2 277.84 109.22 273.32 115.06 270.4 118.24 268.8 127.26 264.29 136.28 259.77 145.3 255.25 157.26 249.26 177.28 244.8 179.67 243.52 181.52 241.34 184.46 235.99 184.46 235.98 198.46 213.62 199.16 211.61 199.34 209.47 198.65 195.22 198.19 181.78 199.93 181.82 210.41 182.62 224.19 185.87 229.67 186.59 252 194.18 262.77 197.65 268.08 197.93 279.54 196.7 281.02 196.96 283.88 198.06 286.35 198.94 304.12 196.96 Z" id="IRQ-3471" data-name="Al-Anbar"/>
<path d="M 450.59 342.42 451.66 342.28 452.71 342.42 454.8 342.91 468.34 343.49 468.34 343.49 468.3 344.45 469.32 346.19 470.78 349.31 471.42 351.32 471.73 353.05 471.69 356.22 471.21 357.36 469.85 358.01 470.46 360.44 470.74 368.71 471.24 370.72 471.78 372.01 472.34 372.46 472.73 372.71 473.23 372.87 484.77 373.56 485.33 373.67 490.51 376.17 494.64 377.28 497.61 377.52 498.32 377.72 498.75 378.34 501.4 379.28 503.49 380.28 504.66 381.07 505.76 382.09 506.27 382.98 509.76 392.75 512.94 398.82 514.37 400.34 515.94 401.67 517.25 402.45 518.62 402.78 523.49 402.97 524.54 402.98 524.77 405.54 524.9 407.23 523.71 407.18 523.01 407.34 521.85 407.72 518.21 409.59 517.23 410.21 516.24 411.23 515.68 411.67 508.67 415.65 503.43 417.46 499.85 419.78 497.46 421.7 496.9 421.97 496.4 421.76 495.47 420.96 495 420.62 494.51 420.58 493.91 420.82 493.12 421.54 492.65 422.26 492.41 422.83 492.55 423.2 492.9 423.55 493.55 424.05 493.66 424.8 493.6 425.39 493.25 425.84 492.82 426.15 491.58 426.77 491.1 427.1 489.54 428.74 488.99 429.17 488.31 429.5 487.54 429.71 486.56 429.72 485.5 429.39 480.99 427.06 478.54 426.4 474.4 425.25 471.97 424.07 470.15 422.76 467.92 421.76 463.91 424.2 463.28 424.14 462.61 424.26 462.23 424.24 460.54 425.22 457.64 427.58 456.4 426.17 456 425.47 455.39 424.68 454.86 424.15 453.32 422.06 452.67 420.54 452.54 419.65 453.14 418.83 455.11 417.89 455.44 416.49 454.94 416.06 454.38 415.28 453.22 411.37 452.96 410.49 451.27 407.66 450.66 405.96 451.07 404.62 451.84 402.99 451.27 401.36 446.67 395.67 445.33 392.9 445.14 389.85 448.02 381 448.78 380.32 448.73 379.4 448.71 378.91 448.38 378.27 446.4 376.57 445.84 376.22 445.34 376.05 444.96 376.07 444.53 376.22 443.66 376.63 443.28 376.68 442.85 376.63 440 375.98 437.74 375.69 438.66 367.93 435.1 365.85 432.87 363.7 431.86 361.5 430.41 355.4 428.45 350.55 425.96 348.46 418.03 345.1 414.01 344.26 412.93 343.12 412.52 341.4 415.28 341.08 418.98 341.49 426.2 343.09 433.96 343.14 435.92 343.37 437.95 343.88 443.17 346.47 444.96 346.93 446.67 346.52 448.16 345.29 450.59 342.42 Z" id="IRQ-3472" data-name="Babil"/>
</g>
</svg>