<?xml version="1.0"?>
<svg xmlns="http://www.w3.org/2000/svg" version="1.2" baseProfile="tiny" width="800" height="819" viewBox="0 0 800 819" stroke-linecap="round" stroke-linejoin="round">
<g id="ne_10m_admin_1_states_provinces">
<path d="M 287.24 12.97 287.28 14.86 287.65 47.5 288.2 52.43 291.21 59.1 293.36 62.43 294.16 64.19 294.53 68.64 295.01 70.72 299.93 80.66 307.09 89.29 307.55 90.62 307.93 92.61 307.47 95.05 306.9 95.97 305.89 96.12 303.57 94.73 302.29 94.3 301.06 94.56 299.92 95.51 298.91 96.57 297.77 97.42 296.54 97.57 295.23 97.33 294.16 97.49 293.85 98.69 294.58 100.67 301.06 107.29 302.03 108.87 302.56 110.76 302.38 113.5 301.49 115.37 300.41 116.75 299.45 117.74 298.61 118.95 298.45 121.12 297.7 122.33 297.27 123.52 297.49 124.37 298.87 124.92 301.98 125.62 303.72 126.32 304.92 125.89 305.41 124.92 306.01 122.01 306.72 120.72 307.6 120.06 308.72 119.93 309.99 120.63 311.56 122.68 312.69 124.81 314.04 128.13 315.04 130.04 315.09 131.86 314.19 133.65 312.77 134.56 310.68 136.85 263.74 133.63 185.31 145.77 173.89 146.4 164.3 147.84 164.14 147.45 163.3 146.25 161.34 145.65 159.12 145.76 157.47 146.72 157.13 148.59 158.14 150.48 160.14 152.85 159.62 154.15 158.33 154.99 156.64 155.21 154.92 154.73 153.94 153.66 153.59 152.12 153.29 138.46 152.66 137.91 151.43 137.98 149.46 137.5 146.64 138.64 144.9 138.64 144.12 136.83 144.79 134.68 146.39 132.58 155.89 123.04 157.91 119.92 158.68 115.35 158.91 111.15 159.52 108.05 161.33 103.97 164.01 101.23 165.75 99.56 172.02 97.17 174.66 95.05 176.49 92.66 177.76 89.87 182.46 68.74 183.39 50.21 184.73 43.71 185.17 38.82 187.5 30.86 189.76 25.47 194.94 16.95 195.75 14.75 196.85 13.02 198.48 11.89 202.95 11.1 204.3 10.22 205.32 9.34 206.35 8.95 207.26 8.37 209.74 5.61 210.84 4.7 212.75 3.99 214.73 3.63 216.82 1.47 218.26 1 223.67 2.43 235.77 5.29 242.93 6.09 252.63 6.1 267.9 6.75 276.33 7.23 279.67 8.5 285.74 12.33 287.24 12.97 Z" id="SUR-37" data-name="Nickerie"/>
<path d="M 629.88 202.51 643.04 207.61 648.33 212.38 650.64 216.52 651.24 218.1 651.63 220.23 651.42 222.22 650.66 224.26 648.09 228.34 647.09 230.4 646.62 232.63 646.35 237.47 645.83 239.82 644.92 242.12 642.64 246.41 641.8 248.52 641.35 250.61 640.8 255.06 640.15 257.2 637.12 263.16 636.48 265.22 636.3 267.4 636.65 284.65 635.87 289.17 634.99 291.35 633.68 293.48 630.01 297.67 623.44 303.66 621.87 305.78 620.86 308.2 620.56 310.41 620.57 312.84 620.83 315.13 621.74 319.44 625.22 329.78 625.52 331.81 625.57 336.05 625.24 337.75 620.89 349.47 615.75 358.12 614.76 360.36 613.41 364.66 612.52 366.67 611.08 368.3 609.2 369.11 607.33 367.98 604.01 362.8 601.69 360.9 600.33 360.41 598.6 360.65 597.12 361.95 595.87 363.64 593.48 367.69 591.9 369.61 590.06 371.01 588.13 371.64 581.75 372.4 579.5 372.97 577.32 373.87 575.14 375.2 566.75 383.15 564.78 384.71 552.07 391.27 550.05 391.81 548 391.99 545.94 391.54 544.06 390.63 542.4 389.07 541.38 387.16 539.99 380.65 536.09 311.78 535.46 309.05 534.28 305.95 531.73 301.5 529.42 298.66 529.24 298.58 529.12 298.42 529.01 297.09 530.46 259.44 527.2 227.4 524.86 220.06 522.28 214.12 502.46 183.05 509.18 175.38 518.67 168.38 525.16 161.8 532.11 150.36 532.81 148.58 532.94 147.29 532.66 146.05 531.85 144.88 530.85 143.67 529.95 141.95 530.37 140.02 532.31 137.23 537.4 136.21 595.76 135.71 599.74 136.33 601.08 137.81 601.96 139.66 602.6 151.49 603.11 153.61 604.32 155.59 606.11 157.24 616.44 164.3 618.29 166.02 619.81 167.98 620.93 169.96 621.61 172.03 621.82 174.1 620.92 178.18 620.95 180 621.99 181.78 623.48 183.17 625.01 184.91 625.64 186.8 625.94 188.79 625.97 196.61 625.32 199.71 625.17 201.22 625.71 202.68 627.03 203.65 628.29 203.63 629.88 202.51 Z" id="SUR-66" data-name="Brokopondo"/>
<path d="M 762.9 130.67 759.09 135.1 743.7 146.17 735.46 154.64 733.64 157.25 733.55 157.16 728.96 152.44 727.18 151.39 724.42 150.1 717.41 147.69 706.52 140.26 703.85 138.86 668.28 125.54 674.71 116.48 675.76 114.41 676.57 112.33 677.09 109.94 677.41 107.28 677.48 103.14 676.46 96.4 673.54 89.43 668.69 82.38 664.66 74.25 658.61 65.32 657.09 62.01 655.41 56.17 653.88 53.08 652.26 48.85 651.96 47.38 651.36 42.33 651.6 39.9 652.39 37.72 656.21 33.16 657.56 30.38 656.14 14.78 657.52 10.58 658.5 8.19 664.64 9.29 704.09 14.8 728.17 20.13 746.92 23.83 763.22 29.09 777.29 33.11 781.77 33.59 784.2 34.44 789.15 34.09 790.28 35.68 792.33 36.45 793.46 38.43 793.14 40.47 797.88 49.51 799 52.99 797.13 55.17 792.47 64.08 790.24 67.92 789.21 75.7 786.49 90.84 784.38 98.51 781.94 103.02 778.39 107.3 775 110.25 773.17 112.21 772.37 114.04 771.2 117.78 762.9 130.67 762.9 130.67 Z" id="SUR-67" data-name="Marowijne"/>
<path d="M 593.14 68.4 586.12 71.79 583.86 76.03 583.45 76.46 583.35 78.34 583.42 78.52 584.17 78.17 586.12 78.46 586.68 78.22 587.7 77.59 588.93 77.06 590.12 77.12 590.37 77.73 590.11 78.63 590.03 79.43 590.79 79.79 591.42 80.64 591.57 82.63 591.19 93.58 594.85 94.76 598.77 94.88 673.54 89.43 676.46 96.4 677.48 103.14 677.41 107.28 677.09 109.94 676.57 112.33 675.76 114.41 674.71 116.48 668.28 125.54 665.47 124.62 663.58 127.48 652.05 149.55 649.65 155.85 648.46 157.59 641.52 163.69 640.11 165.55 639.29 166.99 635.13 181.96 633.17 193.24 629.88 202.51 628.29 203.63 627.03 203.65 625.71 202.68 625.17 201.22 625.32 199.71 625.97 196.61 625.94 188.79 625.64 186.8 625.01 184.91 623.48 183.17 621.99 181.78 620.95 180 620.92 178.18 621.82 174.1 621.61 172.03 620.93 169.96 619.81 167.98 618.29 166.02 616.44 164.3 606.11 157.24 604.32 155.59 603.11 153.61 602.6 151.49 601.96 139.66 601.08 137.81 599.74 136.33 595.76 135.71 537.4 136.21 532.31 137.23 530.37 140.02 529.95 141.95 530.85 143.67 531.85 144.88 532.66 146.05 532.94 147.29 532.81 148.58 532.11 150.36 525.16 161.8 518.67 168.38 509.18 175.38 502.46 183.05 500.97 183.98 498.8 184.38 497.73 185.05 496.2 187.38 495.26 188.52 494.37 189.38 493.94 190.46 493.35 192.9 492.52 193.97 491.39 194.69 489.23 195.36 488.48 195.89 486.38 196.8 482.91 198.78 476.96 201.28 468.52 203.07 466.3 202.35 464.3 200.64 462.84 196.29 462.31 193.39 462.12 190.87 461.59 188.77 460.42 186.68 457.96 184.33 455.78 182.81 453.53 181.72 441.08 177.68 437.15 177.15 432.98 177.42 428.48 178.29 418.95 181.08 416.77 181.23 414.76 181.05 405.52 178.67 405.18 175.21 405.34 168.63 411.24 124.33 421.54 93.23 424.08 96.21 424.87 98.64 426.88 100.72 426.72 102.69 425.57 104.69 423.65 106.62 422.21 109.86 422.17 112.55 422.98 114.97 423.41 118.13 424.84 119.18 426.53 119.54 435.34 117.26 437.76 117.4 445.45 119.44 504.87 114.79 507.25 114.17 508.44 113.36 510.01 112.75 511.21 113.38 512.31 114.41 513.67 115.42 514.72 115.03 515.35 113.97 515.75 112.82 516.82 111.72 518.5 111.73 521.42 110.43 522.89 109.53 523.45 108.47 523.74 106.02 524.21 104.83 525.14 103.62 526.03 102.22 526.4 100.83 526.26 99.57 525.36 98.34 522.45 96.04 521.58 94.71 521.52 93.42 522.84 90.83 523.36 88.05 523.93 86.65 525.56 85.2 526.71 83.89 527.3 82.47 527.09 81.06 526.36 79.79 525.32 78.75 524.63 77.6 525.09 76.3 527.35 74.72 530.65 73.93 532.56 73.02 533.46 71.91 533.51 70.58 533.04 69.26 531.95 67.26 550.89 69.44 557.47 69.26 578.36 65.23 583.32 65.47 593.14 68.4 Z" id="SUR-68" data-name="Para"/>
<path d="M 502.46 183.05 522.28 214.12 524.86 220.06 527.2 227.4 530.46 259.44 529.01 297.09 529.12 298.42 529.24 298.58 529.42 298.66 531.73 301.5 534.28 305.95 535.46 309.05 536.09 311.78 539.99 380.65 541.38 387.16 542.4 389.07 544.06 390.63 545.94 391.54 548 391.99 550.05 391.81 552.07 391.27 564.78 384.71 566.75 383.15 575.14 375.2 577.32 373.87 579.5 372.97 581.75 372.4 588.13 371.64 590.06 371.01 591.9 369.61 593.48 367.69 595.87 363.64 597.12 361.95 598.6 360.65 600.33 360.41 601.69 360.9 604.01 362.8 607.33 367.98 609.2 369.11 611.08 368.3 612.52 366.67 613.41 364.66 614.76 360.36 615.75 358.12 620.89 349.47 625.24 337.75 625.57 336.05 625.52 331.81 625.22 329.78 621.74 319.44 620.83 315.13 620.57 312.84 620.56 310.41 620.86 308.2 621.87 305.78 623.44 303.66 630.01 297.67 633.68 293.48 634.99 291.35 635.87 289.17 636.65 284.65 636.3 267.4 636.48 265.22 637.12 263.16 640.15 257.2 640.8 255.06 641.35 250.61 641.8 248.52 642.64 246.41 644.92 242.12 645.83 239.82 646.35 237.47 646.62 232.63 647.09 230.4 648.09 228.34 650.66 224.26 651.42 222.22 651.63 220.23 651.24 218.1 650.64 216.52 648.33 212.38 643.04 207.61 629.88 202.51 633.17 193.24 635.13 181.96 639.29 166.99 640.11 165.55 641.52 163.69 648.46 157.59 649.65 155.85 652.05 149.55 663.58 127.48 665.47 124.62 668.28 125.54 703.85 138.86 706.52 140.26 717.41 147.69 724.42 150.1 727.18 151.39 728.96 152.44 733.55 157.16 733.64 157.25 731.42 160.43 729.15 168.21 727.89 169.54 724.88 171.66 724.01 172.9 723.54 175.12 722.89 176.32 712.21 188.35 708.61 194.04 707.41 197.12 706.87 200.48 708.57 208.27 708.19 211.16 707.27 212.19 702.07 215.84 701.17 217.76 701.51 219.76 702.74 222.51 702.74 246.65 703.38 249.29 704.97 250.37 706.98 250.93 708.87 252 711.19 255.61 711.25 258.94 710.58 262.67 710.75 267.47 713.18 273.86 713.53 276.15 713.53 284.15 712.61 287.52 708.74 294.68 708.19 299.63 711.58 320.72 717.55 333.12 719.27 341.56 719.46 346.53 718.2 349.88 716.06 353.53 716.84 356.86 719.12 359.53 721.55 361.16 728.11 362.93 730.13 364.53 730.89 368.56 730.33 371.5 727.7 378.26 726.89 381.3 727.14 386.15 729 389.43 735.68 395.45 736.91 397.35 739.02 404.12 740.32 405.9 743.05 408.09 744.36 409.46 749.2 418.49 752.88 420.47 753.71 422.15 754.38 422.03 755.85 424.33 757.72 428.16 759.7 430.55 760.82 431.26 763.05 432.28 769.72 434.25 771.79 435.62 775.85 441.62 777.87 443.77 781.86 457.64 786.42 464.59 786.54 465.77 788.63 465.4 790.78 464.73 792.84 464.42 794.61 465.11 797.35 467.91 798.52 470.37 798.24 473.36 796.67 477.79 795.1 486.01 795.74 500.79 792.55 508.62 785.44 515.99 784.53 518.62 784.07 522.05 782.75 525.88 780.64 529.28 780.53 529.36 773.99 534.04 768.95 541.93 761.81 550.62 759.09 555.01 755.04 564.92 759.58 564.23 761.71 567.05 762.17 571.47 761.72 575.6 761.25 576.09 760.36 576.54 759.48 577.2 759.05 578.27 759.47 578.43 761.3 579.75 761.72 580.27 762.92 584.98 763.26 587.74 762.39 588.95 760.13 590.27 761.18 593.01 763.34 595.43 764.38 595.75 764.47 598.44 763.05 604.42 762.46 605.57 759.76 609.52 759.05 611.77 758.92 613.82 759.25 615.13 760.48 616.46 763.05 618.57 760.71 619.84 759.4 621.46 756.3 630.55 754.78 633.55 740.54 652.8 733.68 666.74 726.05 686.03 722.89 690.77 713.53 700.13 711.19 701.07 708.24 701.49 703.93 701.54 701.83 702.68 699.86 703.81 694.6 717.14 692.4 718.85 688.57 719.25 682 717.25 679.17 717.75 676.03 721.57 672.35 722.77 668.58 723.48 664.77 723.58 660.93 722.99 658.66 721.85 658.18 720.27 658.4 718.38 658.15 716.3 656.4 711.86 657.52 708.17 658.04 707.96 659.07 707.99 660 707.67 660.33 706.46 660.08 705.37 659.25 703.26 658.97 702.12 658.84 698.19 657.97 697.31 655.32 695.81 651.05 694.14 647.77 694.29 644.7 695.94 641.38 697.73 631.72 700.6 624.21 697.89 605 679.18 604.17 677.36 604.8 674.67 608.58 670.84 609.87 668.23 608.81 666.29 605.33 666.69 597.34 669.89 593.43 672.36 585.89 678.76 578.82 682.16 577.17 682.75 575.61 682.58 574.1 680.99 574.79 677.26 573.87 675.44 567.19 676 551.55 688.01 546.99 687.73 544.7 684.88 541.6 683.75 538.14 684.02 534.77 685.39 531.49 688.6 530.4 692.25 529.88 695.82 528.26 698.83 522.68 701.25 515.65 701.12 508.07 700.15 500.83 700.04 489.71 701.04 485.97 700.53 481.87 700.51 474.62 703.9 459.19 707.75 455.32 706.95 453.27 705.31 451.01 701.04 449.56 699.32 447.69 698.32 433.88 694.9 430.57 693.29 419.94 684.54 415.61 682.09 410.95 681.67 408.61 682.42 407.39 683.53 405.89 686.96 403.82 695.29 403.68 703.97 402.67 707.38 396.96 715.93 395.46 717.51 393.13 718.58 390.93 718.41 389.2 717.37 387.4 716.56 384.99 717.11 382.45 720.23 379.48 725.85 377.15 731.64 376.59 735.27 378.84 736.76 387.4 737.28 391.02 738.14 394.72 741.55 396.52 749.24 399.16 753.39 404.42 757.01 406.11 758.5 413.11 767.57 419.79 773.3 421.27 775.51 421.88 778 421.56 779.79 420.85 781.57 420.23 784.07 420.47 792.76 421.56 800.57 420.53 807.61 414.31 814.05 401.44 817.91 389.12 815.36 376.88 810.43 364.27 807.15 354.85 807.72 351.75 807.36 348.05 805.8 341.03 801.3 337.25 799.71 333.49 799.27 327.75 800.68 324.11 801.06 321.25 800.47 311.08 796.78 310.44 794.51 309.24 792.61 307.52 791.23 303.42 789.91 301.78 788.92 300.39 787.58 299.3 785.91 291.92 782.07 272.76 781.76 267.4 779.56 248.58 752.91 247.15 747.08 245.67 742.82 243.74 734.2 241.26 730.4 239.52 729.47 235.01 728.63 233.2 727.72 232.36 725.97 232.46 718.93 230.28 714.56 223.28 708.46 221.79 704.92 223.05 702.11 223.4 700.08 222.45 698.18 219.22 695.18 218.29 693.46 217.66 690.77 218.06 688.87 219.02 686.71 219.29 684.58 217.66 682.77 213.67 685.7 210.91 686.65 209.65 684.83 210.68 678.24 210.32 676.82 205.38 671.07 204.43 669.3 204.3 665.97 205.23 663.42 205.76 661.11 204.43 658.62 200.37 660.91 198.82 659.76 197.64 652.06 195.7 648.47 190.65 643.14 189.63 640.58 190.4 638.64 191.74 636.17 192.19 634.05 190.3 633.13 183.61 634.14 182.96 634.58 181.67 630.89 185.04 623.85 183.68 622.57 181.37 622.99 177.45 624.82 175.62 625.24 173.27 624.4 172.4 622.57 171.78 620.73 170.21 619.9 169.41 617.88 166.82 607.77 168.64 605.83 171.69 603.4 173.82 600.65 172.88 597.75 166.38 597.07 163.89 595.63 165.48 593.08 166.51 591.29 166.39 589.75 165.83 588.04 165.48 585.68 166.11 584.99 168.85 585.13 169.48 584.33 169.28 582.86 168.35 580.38 168.14 578.88 166.31 574.53 162.94 571.43 161.16 567.87 164.14 562.14 163.47 561.78 163.34 561.68 163.3 561.51 162.94 560.92 161.61 562.15 159.91 563.28 157.97 563.9 156.01 563.58 153.83 561.99 154.2 560.71 155.46 559.16 156.01 556.79 153.9 552.27 153.46 550.12 153.62 547.73 154.67 543.71 154.92 541.38 154.23 539.05 153 537.44 152.57 535.82 154.19 533.37 154.47 532.15 154.92 525.36 154.32 522.61 149.46 512.62 143.27 517.46 138.05 518.35 132.83 516.74 126.65 514.07 126.87 517.61 125.5 519.33 119.97 520.75 119.49 521.41 118.11 522.74 116.64 523.56 115.96 522.7 115.51 521.68 114.35 521.1 112.81 520.82 111.23 520.75 110.11 519.9 107.62 518.42 105.1 517.93 103.19 521.77 101.39 522.04 99.26 521.44 93.19 518.05 93.15 518.03 89.85 516.19 84.34 515.06 82.68 514.37 81.72 513.56 81.06 512.56 80.22 510.24 79.81 508.2 79.93 506.57 80.92 503.04 81.03 501.73 80.61 499.31 80.58 498.04 83.55 492.27 83.83 488.82 80.63 485.19 76.56 482.82 75.8 482.46 75.39 481.87 73.28 481.59 72.33 481.19 71.46 480.21 71.2 479.54 71.03 478.84 69.47 475.95 68.49 472.53 67.79 471.11 60.33 466.35 50.77 462.38 47.52 460.31 45.33 456.69 44.16 452.56 43.64 443.69 42.81 439.93 38.65 431.03 28.74 416.52 25.55 412.8 12.69 402.66 7.95 396.71 6.02 389.81 3.47 373.18 1 364.76 1.34 360.71 4.06 356.56 21.09 339.17 23.26 335.85 24.52 331.99 24.94 327.07 24.39 323.83 23.33 320.85 22.71 317.78 23.49 314.2 25.42 311.19 27.66 308.7 29.51 306.14 30.96 299.66 34.56 290.98 37.87 285.44 40.96 275.49 44.46 270.44 46.02 267.05 46.3 263.34 44.67 259.89 39.43 253.2 36.81 245.15 33.57 242.99 30.3 241.34 28.83 238.65 30.17 232.07 33.31 227.58 36.88 223.76 39.52 220.5 43.5 213.88 44.97 212.5 47.43 211.88 49.32 212.42 51.2 213.35 53.64 213.83 58.43 213.17 60.7 211.39 63.64 205.82 68.89 200.78 75.45 197.56 82.79 197.14 90.47 200.48 99.05 197.4 103.54 196.62 108.56 196.36 109.61 197 112.61 199.83 113.9 200.48 116.43 200.26 119.72 199.25 135.19 197.66 140.11 196.36 142.2 195.54 143.66 194.73 145.35 194.08 148.12 193.68 149.83 194.01 151.36 194.66 152.96 194.82 154.92 193.68 147.79 187.26 146.91 185.07 147.15 182.48 147.76 180.26 150.67 173.67 151.97 168.05 153.26 165.35 155.46 164.2 158.94 164.32 161.41 165.08 163.08 167.11 164.14 171 167.18 169.74 170.26 167.97 172.65 165.7 173.61 162.98 172.14 159.06 165.62 151.16 164.3 147.84 173.89 146.4 185.31 145.77 263.74 133.63 310.68 136.85 329.04 136.15 332.25 134.62 334.78 132.9 338.85 129.5 342.29 125.89 345.25 124.14 349.22 122.96 360.52 122.07 379.79 123.1 391.76 122.25 393.55 121.56 396.99 114.89 400.56 113.84 401.44 113.24 403.07 110.26 404.34 108.89 409.07 106.14 411.67 105.34 412.33 104.6 412.55 102.57 410.7 99.21 410.64 98.24 411.01 97.39 413.54 95.76 421.54 93.23 411.24 124.33 405.34 168.63 405.18 175.21 405.52 178.67 414.76 181.05 416.77 181.23 418.95 181.08 428.48 178.29 432.98 177.42 437.15 177.15 441.08 177.68 453.53 181.72 455.78 182.81 457.96 184.33 460.42 186.68 461.59 188.77 462.12 190.87 462.31 193.39 462.84 196.29 464.3 200.64 466.3 202.35 468.52 203.07 476.96 201.28 482.91 198.78 486.38 196.8 488.48 195.89 489.23 195.36 491.39 194.69 492.52 193.97 493.35 192.9 493.94 190.46 494.37 189.38 495.26 188.52 496.2 187.38 497.73 185.05 498.8 184.38 500.97 183.98 502.46 183.05 Z" id="SUR-69" data-name="Sipaliwini"/>
<path d="M 658.5 8.19 657.52 10.58 656.14 14.78 657.56 30.38 656.21 33.16 652.39 37.72 651.6 39.9 651.36 42.33 651.96 47.38 652.26 48.85 653.88 53.08 655.41 56.17 657.09 62.01 658.61 65.32 664.66 74.25 668.69 82.38 673.54 89.43 598.77 94.88 594.85 94.76 591.19 93.58 591.57 82.63 591.42 80.64 590.79 79.79 590.03 79.43 590.11 78.63 590.37 77.73 590.12 77.12 588.93 77.06 587.7 77.59 586.68 78.22 586.12 78.46 584.17 78.17 583.42 78.52 583.35 78.34 583.45 76.46 583.86 76.03 586.12 71.79 593.14 68.4 594.2 67.89 595.46 66.44 593.77 63.81 589.91 62.11 582.11 59.64 578.56 57.06 575.63 53.86 573.28 50.23 572.69 48.98 571.43 46.31 570.09 42.08 572.5 40.96 575.66 38.19 581.05 36.4 582.88 32.05 583.06 27.68 584.09 26.18 588.41 26.16 594.87 30.68 598.83 31.51 601.38 30.94 602.97 29.92 604.49 29.57 608.86 32.24 610.52 32.54 612.19 32.18 614.11 31.51 615.64 30.55 616.71 29.25 618.02 28.12 620.31 27.63 622.16 28.02 624.13 29 627.59 31.51 626.71 29.92 625.38 28.37 623.84 27.05 622.26 26.18 619.68 25.67 617.9 25.94 616.09 27.39 613.85 28.75 609.37 29.16 606.37 27.26 603.62 26.65 600.51 28.44 597.56 28.3 594.6 25.85 591.57 24.33 580.22 21.07 576.24 19.17 572.85 16.93 571.41 14.83 570.67 12.77 569.53 11.45 570.83 9.4 572.56 8.3 577.96 6.15 584.13 5.09 592.05 4.61 598.09 4.55 645.08 6.15 648.64 6.99 657.01 7.92 658.5 8.19 Z" id="SUR-70" data-name="Commewijne"/>
<path d="M 425.37 66.48 424.96 67.38 422.27 70.22 419.31 70.94 413.96 71.55 412.33 72.13 411.2 72.92 410.68 73.93 410.29 75.34 410.4 76.58 410.81 77.89 411.51 79.35 413.02 81.71 418.22 87.33 418.97 87.93 420.43 89.53 421.54 93.23 413.54 95.76 411.01 97.39 410.64 98.24 410.7 99.21 412.55 102.57 412.33 104.6 411.67 105.34 409.07 106.14 404.34 108.89 403.07 110.26 401.44 113.24 400.56 113.84 396.99 114.89 393.55 121.56 391.76 122.25 379.79 123.1 360.52 122.07 349.22 122.96 345.25 124.14 342.29 125.89 338.85 129.5 334.78 132.9 332.25 134.62 329.04 136.15 310.68 136.85 312.77 134.56 314.19 133.65 315.09 131.86 315.04 130.04 314.04 128.13 312.69 124.81 311.56 122.68 309.99 120.63 308.72 119.93 307.6 120.06 306.72 120.72 306.01 122.01 305.41 124.92 304.92 125.89 303.72 126.32 301.98 125.62 298.87 124.92 297.49 124.37 297.27 123.52 297.7 122.33 298.45 121.12 298.61 118.95 299.45 117.74 300.41 116.75 301.49 115.37 302.38 113.5 302.56 110.76 302.03 108.87 301.06 107.29 294.58 100.67 293.85 98.69 294.16 97.49 295.23 97.33 296.54 97.57 297.77 97.42 298.91 96.57 299.92 95.51 301.06 94.56 302.29 94.3 303.57 94.73 305.89 96.12 306.9 95.97 307.47 95.05 307.93 92.61 307.55 90.62 307.09 89.29 299.93 80.66 295.01 70.72 294.53 68.64 294.16 64.19 293.36 62.43 291.21 59.1 288.2 52.43 287.65 47.5 287.28 14.86 287.24 12.97 289.32 13.87 293.06 14.85 302.27 15.67 323.49 20.6 335.87 23.86 345.88 24.28 355.08 26.65 361.71 28.53 367.81 30.12 380.99 32.97 389.05 35.65 393.83 36.94 397.86 37.64 405.44 40.27 417.8 41.46 421.34 45.35 424.14 46.99 425.29 49.6 425.29 66.48 425.37 66.48 Z" id="SUR-71" data-name="Coronie"/>
<path d="M 575.66 38.19 572.5 40.96 570.09 42.08 571.43 46.31 572.69 48.98 564.32 46.26 560.93 44.08 559.54 42.54 558.38 40.67 557.51 38.66 556.06 33.22 555.58 26.06 555.74 23.17 555.89 22.34 557.51 22.77 559.18 22.77 561.23 23.06 563.98 23.32 566.22 22.56 568.73 21.51 571.9 21.22 575.25 23.63 579.14 26.5 580.65 29.38 578.3 35.11 575.42 38.31 575.66 38.19 575.66 38.19 Z" id="SUR-72" data-name="Paramaribo"/>
<path d="M 551.3 19.34 551.18 19.69 538.58 46.2 533.08 52.1 531.43 53.26 530.93 55.52 530.74 60.18 531.95 67.26 533.04 69.26 533.51 70.58 533.46 71.91 532.56 73.02 530.65 73.93 527.35 74.72 525.09 76.3 524.63 77.6 525.32 78.75 526.36 79.79 527.09 81.06 527.3 82.47 526.71 83.89 525.56 85.2 523.93 86.65 523.36 88.05 522.84 90.83 521.52 93.42 521.58 94.71 522.45 96.04 525.36 98.34 526.26 99.57 526.4 100.83 526.03 102.22 525.14 103.62 524.21 104.83 523.74 106.02 523.45 108.47 522.89 109.53 521.42 110.43 518.5 111.73 516.82 111.72 515.75 112.82 515.35 113.97 514.72 115.03 513.67 115.42 512.31 114.41 511.21 113.38 510.01 112.75 508.44 113.36 507.25 114.17 504.87 114.79 445.45 119.44 437.76 117.4 435.34 117.26 426.53 119.54 424.84 119.18 423.41 118.13 422.98 114.97 422.17 112.55 422.21 109.86 423.65 106.62 425.57 104.69 426.72 102.69 426.88 100.72 424.87 98.64 424.08 96.21 421.54 93.23 420.43 89.53 418.97 87.93 418.22 87.33 413.02 81.71 411.51 79.35 410.81 77.89 410.4 76.58 410.29 75.34 410.68 73.93 411.2 72.92 412.33 72.13 413.96 71.55 419.31 70.94 422.27 70.22 424.96 67.38 425.37 66.48 425.37 66.48 426.74 66.48 427.77 63.4 428.1 60.34 427.96 53.72 427.32 50.29 423.95 42.92 421.83 38.11 424.84 34.16 422.88 32.41 420.49 32.52 418.2 32.63 415.48 30.34 414.83 26.43 415.71 23.5 418.89 19.38 420.22 17.37 422.8 14.68 424.71 12.66 427.56 10.51 431.1 9.17 435.71 7.96 440.46 7.71 458.25 6.94 468.13 6.15 476.2 6.02 523.58 8.37 535.12 10.55 540.61 14.34 543.71 15.63 547.86 16.95 549.23 17.65 551.3 19.34 Z" id="SUR-73" data-name="Saramacca"/>
<path d="M 555.89 22.34 555.74 23.17 555.58 26.06 556.06 33.22 557.51 38.66 558.38 40.67 559.54 42.54 560.93 44.08 564.32 46.26 572.69 48.98 573.28 50.23 575.63 53.86 578.56 57.06 582.11 59.64 589.91 62.11 593.77 63.81 595.46 66.44 594.2 67.89 593.14 68.4 583.32 65.47 578.36 65.23 557.47 69.26 550.89 69.44 531.95 67.26 530.74 60.18 530.93 55.52 531.43 53.26 533.08 52.1 538.58 46.2 551.18 19.69 551.3 19.34 551.3 19.34 553.31 20.98 555.27 22.18 555.88 22.34 555.89 22.34 Z" id="SUR-74" data-name="Wanica"/>
</g>
</svg>