<?xml version="1.0"?>
<svg xmlns="http://www.w3.org/2000/svg" version="1.2" baseProfile="tiny" width="800" height="343" viewBox="0 0 800 343" stroke-linecap="round" stroke-linejoin="round">
<g id="ne_10m_admin_1_states_provinces">
<path d="M 388.67 185.96 388.71 186.44 388.61 186.76 388.25 187.18 388.15 187.63 388.05 187.82 387.81 187.99 388.18 188.85 388.95 193.8 388.95 194.8 388.67 195.81 387.82 195.1 387 193.76 386.41 192.16 385.71 187.97 385.8 187.18 386.41 186.29 387.13 186.18 387.91 186.27 388.67 185.96 Z M 355.62 169.48 357.42 172.01 358.94 175.05 359.67 175.91 360 176.41 360.44 177.74 360.92 178.38 361.49 179 361.96 179.66 362.75 181.05 363.15 182.14 363.27 183.18 363.18 185.34 363.39 186.34 364.26 188.34 364.41 189.67 364.13 191.02 363.55 192.09 362.98 192.31 362.75 191.09 360.28 188.4 359.72 186.94 359.34 186.28 358.68 185.96 358.03 186.15 357.6 187.83 356.98 188.85 356 187.83 354.95 186.43 354.09 184.96 353.73 183.7 353.73 180.04 353.73 176.54 353.59 175.23 353.62 174.47 354.6 172.74 354.41 171.78 353.94 170.79 353.73 169.55 353.47 169.67 352.8 169.84 352.55 169.96 352.55 168.7 352.15 167.56 350.87 165.42 351.31 165.1 351.6 165.14 352.1 165.87 352.9 166.7 354.96 167.94 355.38 168.53 355.62 169.48 Z M 434.61 108.08 434.26 108.17 433.77 107.56 434.03 107.29 434.68 107.32 435.39 107.58 435.18 107.81 434.93 107.98 434.61 108.08 Z M 318.12 106.4 318.68 106.9 319.26 107.96 319.53 108.69 319.63 109.19 319.67 109.82 319.84 110.11 320.67 110.62 320.94 110.83 322.95 113.9 326.06 117.21 328.47 119.23 329.89 121.07 330.47 122.21 330.71 123.34 330.24 124.58 329.1 125.29 327.75 125.77 326.63 126.37 327.03 127.16 327.29 127.95 327.26 128.73 326.31 130.37 326.29 131.13 326.5 131.9 326.63 132.77 326.88 133.65 328 134.7 328.27 135.26 328.64 135.84 329.48 135.7 330.92 135.04 331.45 135.27 333.09 136.5 333.62 137.09 333.66 137.51 333.4 137.83 333.26 138.21 333.62 138.75 334.1 139.03 334.5 139 334.76 138.85 334.85 138.75 336.25 139.41 337.75 140.47 339.13 141.8 340.2 143.29 339.42 142.99 338.81 143.46 338.64 144.14 339.16 144.48 339.88 144.78 340.57 145.51 340.92 146.46 340.61 147.39 341.14 147.68 341.37 148.06 341.44 148.55 341.43 149.18 341.54 149.81 341.84 149.97 342.24 149.98 342.66 150.21 343.01 150.46 343.43 150.67 343.78 151.03 343.92 151.68 343.71 151.95 342.21 153.11 343.3 153.6 343.68 153.91 343.92 154.34 344.7 154.04 345.4 154.22 345.76 154.76 345.56 155.56 346.01 155.62 347.15 155.97 347.15 156.38 345.53 156.76 344.93 156.79 344.72 157.11 344.77 157.82 345.02 158.52 345.34 158.84 345.72 159.31 346.07 161.47 346.79 162.15 345.98 162.58 345.6 162.21 345.31 161.61 344.74 161.33 344.18 161.66 344.31 162.31 344.81 163.02 347.18 165.45 347.85 166.4 349.74 171.09 350.28 171.63 350.91 172.13 351.76 173.27 352.91 175.32 353.63 180.03 353.6 181.31 353.23 182.07 352.59 182.26 351.69 181.82 348.59 179.67 348.01 179.61 347.85 178.59 347.42 177.69 345.04 174.6 344.74 174.05 344.59 173.46 344.49 172.3 344.29 171.63 343.64 170.61 340.82 167.69 336.71 165.62 335.28 163.96 332.48 163.58 332.8 162.56 331.12 160.68 330.31 160.1 329.86 160.01 328.89 160.1 328.47 159.88 328.28 159.44 328.37 158.45 328.27 158.02 326.87 156.81 323.48 155.3 322.17 153.93 317.81 145.97 316.76 143.04 315.96 141.62 316.28 141.16 316.38 140.82 316.28 140.48 315.96 140.02 315.92 139.15 314.99 136.14 314.16 134.85 311.69 129.91 311.46 129.09 311.43 125.86 311.32 125.32 309.37 121.09 310.43 120.39 312.19 118.88 313.3 118.6 313.3 118.05 311.86 114.92 309.49 111.82 309.19 111.24 308.41 110.86 306.37 108.86 305.72 107.96 304.98 105.3 306.19 104.4 308.41 104.65 310.64 105.47 311.82 106.56 312.27 106.74 312.89 106.61 313.54 106.28 313.91 105.81 313.71 105.28 311.86 104.07 312.03 103.66 312.45 103.25 312.98 102.99 313.5 103.05 313.5 103.43 314.89 103.45 315.64 103.87 316.77 105.47 317.5 106.06 318.12 106.4 Z M 308.98 80.51 308.56 80.6 308.03 80.52 306.89 78.97 306.57 78.24 306.83 77.51 307.51 77.37 307.9 77.72 308.25 78.37 308.98 80.51 Z" fill-rule="evenodd" id="SLB-1260" data-name="Malaita"/>
<path d="M 273.3 294.33 273.96 294.38 275.38 294.3 275.95 294.57 277.15 295.61 278.39 296.4 281.75 297.99 283.52 299.31 285.65 300.33 287.38 301.65 288.62 302.2 291.3 302.99 293.76 304.07 300.34 308.76 303.98 310.97 305.04 312.28 303.65 313.26 302.93 313.27 302.4 313.09 301.89 313 301.19 313.26 300.87 313.68 300.39 314.88 299.96 315.34 299.11 315.28 298.38 314.49 297.73 313.49 297.1 312.85 296.18 313.25 295.83 313.26 295.48 313.1 293.24 311.62 292.93 311.21 292.26 308.67 291.74 307.61 290.51 306.68 289.89 306.5 288.62 306.42 288.02 306.27 287.29 305.82 287.14 305.45 287.25 305.08 287.25 304.63 287.17 304.04 287.23 303.57 287.06 303.11 286.38 302.58 285.89 302.35 285.25 302.17 284.57 302.08 283.97 302.17 283.69 302.46 283.12 303.48 282.74 303.81 282.2 303.91 281.5 303.92 280.25 303.81 279.22 303.43 276.9 302.17 275.71 301.77 276.01 301.15 276.2 300.91 275.1 300.14 274.14 300.22 273.32 300.65 272.64 300.91 271.58 300.65 270.79 299.97 269.08 297.87 268.83 297.02 268.54 296.61 268.09 296.16 267.97 295.85 268.32 294.8 268.73 294.1 269.93 293 270.35 292.28 270.56 292.52 270.76 292.61 270.98 292.65 271.21 292.73 272.08 293.63 272.66 294.04 273.3 294.33 Z M 261.24 283.09 261.36 284.1 259.97 283.55 258.81 283.26 257.77 282.77 256.82 281.65 257.3 281.6 257.7 281.67 258.08 281.82 258.46 282.06 259.51 282.19 260.53 282.49 261.24 283.09 Z" fill-rule="evenodd" id="SLB-1261" data-name="Rennell and Bellona"/>
<path d="M 260.13 151.03 260.58 152.17 260.86 153.53 260.72 154.68 259.9 155.16 259.06 154.77 258.54 153.82 258.44 152.61 258.87 151.47 259.23 151.39 259.52 151.4 259.81 151.33 260.13 151.03 Z M 294.25 153.45 293.36 155.05 292.56 155.56 292.11 155.97 290.83 155.56 289.62 154.85 288.43 154.39 287.25 154.75 287.49 155.48 286.6 155.99 285.23 156.28 283.97 156.38 284.26 155.91 284.22 155.53 283.84 155.27 283.11 155.16 283.46 154.57 283.97 154.33 285.38 154.34 286.05 154.14 286.73 153.68 287.3 153.14 287.66 152.7 288.42 149.76 289.03 148.51 290.07 148.61 291.68 151.46 292.34 151.88 293.24 151.91 293.96 152.02 294.51 152.27 294.98 152.7 294.25 153.45 Z M 223.25 149.32 223.57 149.59 224.39 149.39 224.22 150.87 223.35 151.85 220.67 153.11 220.72 151.49 220.93 150.37 221.93 148.2 222.54 148.12 223.77 146.7 224.39 146.2 224.37 146.46 224.27 146.62 224.12 146.77 223.98 146.98 223.98 147.58 223.86 147.73 223.98 148.2 223.39 148.78 223.25 149.32 Z M 279.42 144.48 280.5 144.95 281.6 144.84 282.65 144.98 283.52 146.2 283.97 146.2 284.55 145.19 285.62 145.36 286.82 146.2 287.84 147.18 288.22 148.51 287.82 150.2 286.97 151.76 286.01 152.7 285.8 152.24 285.59 152.05 285.28 152.08 284.79 152.26 284.72 151.55 284.38 151.01 283.83 150.71 283.11 150.66 283.26 150.98 283.52 151.88 283.11 151.88 282.14 150.31 281.39 149.72 280.46 150.03 279.55 150.45 278.44 150.5 277.35 150.24 276.53 149.83 276.41 149.48 276.38 148.94 276.29 148.42 275.95 148.2 275.51 148.13 275.18 147.93 274.97 147.61 274.9 147.18 275.38 147.03 276.46 146.92 277.58 146.58 278.21 145.75 278.62 146.2 278.9 145.72 279.01 145.34 278.91 144.97 278.62 144.48 278.85 144.22 279.01 144.2 279.42 144.48 Z M 218.25 144.12 218.65 144.93 218.74 145.56 218.89 146.07 219.49 146.57 219.79 146.56 220.26 145.89 220.71 145.81 221.93 146.2 219.92 150.21 219.07 151.03 216.21 151.88 215.69 151.53 215.27 150.91 214.8 150.56 214.12 151.03 212.6 148.92 212.7 148.25 214.57 148.2 214.2 147.4 214.39 146.84 214.97 146.64 215.76 146.98 215.76 146.2 216.05 146.3 216.98 146.57 216.9 145.94 216.67 145.39 216.28 144.9 215.76 144.48 216.62 144.48 217.2 144.77 217.67 144.81 218.02 144.6 218.25 144.12 Z M 276.98 143.27 276.94 144.48 276.1 144.12 275.6 144.56 274.9 146.2 274.15 145.63 274.24 145.02 274.65 144.32 274.9 143.48 274.62 141.9 274.81 141.41 275.71 141.25 276.65 142.49 276.98 143.27 Z" fill-rule="evenodd" id="SLB-1262" data-name="Central"/>
<path d="M 266.55 170.75 267.39 171.8 269.09 172.45 270.93 172.25 271.48 172.82 272.38 172.47 272.35 171.81 272.68 170.65 271.84 170.11 272.24 169.75 272.76 169.63 273.52 169.83 274.9 170.37 276.1 170.69 276.74 170.79 277.39 170.78 277.97 170.54 279.02 169.72 279.61 169.55 280.89 169.68 282.81 170.24 283.97 170.37 284.37 170.26 284.88 169.72 285.2 169.55 285.53 169.58 286.05 169.9 286.38 169.96 290.89 169.96 291.12 169.89 291.74 169.59 292.11 169.55 292.21 169.68 292.47 169.96 292.82 170.24 294.03 170.75 295.28 172.44 297.68 173.28 298.66 174.37 300.34 176.95 302.56 176.66 305.3 177.85 307.81 179.71 309.37 181.41 309.79 182.42 310.05 183.65 310.18 186.16 310.49 186.64 311.14 186.66 312.1 186.37 312.86 186.48 313.48 186.79 314.73 187.6 316.72 188.13 317.22 188.4 317.37 189.01 317.31 189.85 317.47 190.58 318.22 190.9 318.43 191.19 318.48 191.85 318.44 193.13 318.59 193.71 318.91 194.07 319.31 194.42 319.67 194.99 319.58 196.78 318.01 197.79 313.5 198.71 311.16 199.45 309.88 200.12 308.79 200.97 304.46 199.89 300.64 198.1 299.33 197.85 296.87 198.3 296.1 198.09 295.57 197.55 295.13 196.89 294.6 196.26 294.35 196.2 293.64 196.3 293.38 196.26 293.23 196.04 292.83 195.27 292.56 194.99 290.79 194.29 290.29 193.96 289.35 193.66 282.64 193.36 277.58 194.14 274.9 194.18 273.25 193.98 272.58 193.98 272.03 194.18 271.63 193.96 270.35 193.76 269.03 193.41 267.7 193.31 266.4 193.09 264.35 192.02 263.4 191.72 262.24 191.9 261.28 192.32 260.31 192.38 259.07 191.49 256.3 188.69 255.22 187.99 253.59 187.18 253.52 186.93 253.62 186.22 253.59 185.96 253.35 185.7 252.85 185.58 252.54 185.34 252.31 184.82 252.25 184.21 252.13 183.71 251.71 183.5 250.7 183.36 250.51 182.98 250.67 182.45 250.68 181.82 250.13 180.48 249.43 179.26 248.57 178.15 247.59 177.15 246.7 176.51 246.3 176.09 246.14 175.52 246.92 175.12 247.5 174.67 247.82 174.05 247.7 173.43 246.86 172.21 246.59 171.63 246.57 170.93 247 169.34 246.94 168.71 246.66 167.91 246.59 167.28 245.95 166.65 245.72 166.48 245.98 166.08 246.59 165.42 246.76 163.38 247.15 162.51 248.03 162.15 248.96 161.88 252.72 159.66 254.8 160.37 256.92 161.71 260.13 164.6 262.57 166.35 262.95 166.87 263.22 167.73 263.85 168.76 264.66 169.72 265.45 170.37 266.55 170.75 Z" id="SLB-1263" data-name="Guadalcanal"/>
<path d="M 249.7 113.81 251.5 115.33 252.21 115.96 252.15 116.35 251.5 116.97 250.96 117.26 250.4 117.34 249.78 117.23 249.05 116.97 248.36 116.61 247.87 116.21 247 115.33 246.28 114.19 245.77 113.97 244.95 114.54 244.11 113.6 243.18 113.11 242.53 112.39 242.47 110.83 242.91 109.25 243.69 108.23 244.89 107.67 246.59 107.52 248.34 107.92 248.83 108.88 248.64 111.68 249.01 112.96 249.7 113.81 Z M 175.64 59.71 176.35 60.64 177.35 61.11 178.51 61.44 179.45 61.54 180.32 61.91 181.28 62.78 181.87 63.75 181.69 64.41 180.75 64.51 179.86 63.99 179.17 63.16 178.79 62.36 178.16 63.17 177.02 62.91 174.7 61.54 174.82 62.11 175.56 63.55 174.97 63.54 173.48 63.18 172.02 63.18 172.11 62.8 171.85 61.95 171.17 61.11 169.97 60.73 169.75 60.53 169.45 60.12 169.31 59.69 169.56 59.51 170.14 59.57 171.09 59.84 171.43 59.88 171.53 59.99 172.04 60.1 172.38 59.95 172.02 59.3 172.02 58.95 172.44 58.7 173.02 58.69 173.48 59.1 174.17 59.41 175.64 59.71 Z M 186.03 60.08 186.61 60.1 187.15 59.39 187.79 58.78 188.65 59.1 188.87 58.87 189.04 58.74 189.22 58.68 189.51 58.61 189.95 59.79 190.81 60.56 193.15 61.54 193.39 61.19 193.8 60.77 194.25 60.42 194.62 60.29 195.36 60.53 195.68 61.14 195.87 61.89 196.26 62.57 197.43 63.66 198.15 64.19 198.74 64.41 199.12 64.81 200.07 66.55 201.16 67.18 202.08 68.41 202.59 68.95 203.34 69.39 205.49 70.17 206.56 70.82 208.37 72.35 209.63 73.04 209.01 74.23 209.47 75.28 210.4 75.84 211.25 75.53 213.65 76.5 214.35 76.96 214.76 77.72 214.99 78.6 215.38 79.12 216.21 78.81 217.84 80.07 219.19 79.43 220.3 79.2 221.4 79.27 222.72 79.62 221.96 79.96 222.15 80.51 222.78 81.03 223.35 81.25 224.36 81.35 224.93 81.63 225.26 82.15 225.57 82.89 226.6 82.14 227.2 82.66 227.68 83.62 228.29 84.12 230.24 84.29 231.04 84.06 231.38 83.3 232.49 83.81 232.94 84.1 233.43 84.53 234.36 83.84 234.98 84.5 235.5 85.75 236.1 86.78 237.08 87.52 238.78 88.46 239.57 89.07 239.72 89.15 240.42 89.44 240.55 89.63 240.7 90.11 240.8 90.26 243.58 92.47 249.12 95.76 260.7 104.41 260.96 104.99 259.68 106.32 258.43 108.03 257.97 108.37 257.45 108.07 256.77 107.91 256.1 107.99 255.59 108.37 255.63 108.72 256.57 109.38 257.07 110.38 257.64 110.38 258.2 110.1 258.69 109.57 259.25 110.07 261.05 112.55 261.53 113.46 261.69 114.31 261.73 115.53 263.5 116.88 264.19 117.89 263.4 118.6 262.86 118.49 260.95 117.38 260.67 117.32 259.97 117.42 259.68 117.38 259.38 117.06 259.24 116.65 259.06 116.29 258.02 115.89 257.31 114.79 256.07 114.39 255.65 113.99 254.81 112.91 252.93 111.45 252.36 110.83 252.22 110.24 252.35 109.72 252.21 109.34 251.3 109.19 250.62 108.78 247.82 106.32 242.83 105.27 240.7 103.98 239.21 103.37 237.87 102.26 236.89 101.74 235.87 101.51 235.07 101.79 233.05 100.57 231.95 100.25 230.94 100.56 230.33 99.18 229.78 98.43 229.1 98.11 228.26 98.04 227.47 97.77 226.93 97.28 226.84 96.47 225.54 96.9 224.25 96.65 223.04 96 217.43 91.93 217.06 91.87 216.14 92 215.76 91.93 215.51 91.55 215.46 91.02 215.47 90.52 215.39 90.26 214.91 90.18 214.67 90.4 214.46 90.66 214.12 90.7 212.48 89.88 212.1 89.83 211.24 89.94 210.85 89.88 210.84 89.72 210.57 88.9 210.44 88.66 209.76 88.34 209.26 88.2 208.92 87.87 208.81 86.99 208.41 87.29 207.13 87.84 207.02 86.65 206.49 85.73 205.62 85.14 204.49 84.94 200.99 83.3 200.67 81.01 200.18 79.98 199.15 80.25 197.32 79.82 196.45 79.25 196.9 78.4 196.24 77.66 195.64 77.17 195.23 77.17 194.6 77.98 193.97 77.23 193.15 75.08 192.48 74.29 191.57 73.58 190.54 73.22 189.51 73.49 188.93 72.42 186.32 70.98 185.37 70.17 185.08 69.37 185.11 68.73 185.27 68.16 185.37 67.52 185.37 65.04 180.69 61.14 177.6 59.51 177.08 58.57 176.99 57.55 177.4 56.85 178.42 57.01 179.65 57.75 185.54 59.75 186.03 60.08 Z M 168.64 53.89 168.97 54.56 169.76 54.32 170.46 54.61 171.83 55.78 172.57 55.19 173.87 55.28 175.29 55.83 176.37 56.6 175.79 56.9 175.39 57.32 175.29 57.88 175.56 58.61 172.89 58.08 172.21 57.83 171.72 57.32 171.21 56.64 170.55 56.03 168.76 55.59 167.5 54.75 166.69 54.56 166.25 54.23 166.16 53.55 166.41 52.96 166.9 52.92 167.48 53.31 168.09 53.55 168.64 53.89 Z M 166.46 48.38 166.46 50.02 166.69 49.91 167.09 49.77 167.29 49.65 167.06 50.19 166.9 50.79 166.84 51.42 166.87 52.06 165.98 51.55 165.68 51.25 165.24 53.33 164.41 52.74 163.9 51.93 163.22 51.29 161.97 51.25 161.97 50.87 162.78 50.02 163.19 50.02 163.76 50.12 165.32 48.64 166.46 48.38 Z" fill-rule="evenodd" id="SLB-1264" data-name="Isabel"/>
<path d="M 798.57 341.65 797.6 341.99 797.32 341.47 797.79 341 798.19 340.53 798.82 340.59 799 341.44 798.57 341.65 Z M 687.39 303.62 686.34 303.8 685.94 303.12 686.26 302.13 687.06 301.36 688.15 301.27 688.69 301.47 688.73 302 688.38 302.92 687.39 303.62 Z M 681.8 299.94 683.21 300.23 685.73 301.13 685.04 303.06 685.11 303.89 685.04 305.06 688.3 304.83 688.65 307.19 684.16 307.49 682.9 307.64 681.9 307.61 680.19 307.4 679.3 306.2 678.58 305.54 677.76 305.23 677.44 304.79 676.39 303.52 675.65 302.61 675.65 301.63 676.13 301.01 676.72 300.68 677.94 300.1 679.06 300.1 680.43 300.17 681.8 299.94 Z M 663.51 280.23 663.07 281.65 661.68 283.11 661.23 283.16 660.62 283.31 660.16 283.19 659.66 282.91 659.65 282.5 659.68 281.96 660.05 281.52 660.25 281.11 660.18 280.29 659.33 280.79 658.64 281.35 658.3 280.83 658.42 279.48 659.29 278.39 660.35 277.44 661.14 277.18 662.06 277.51 662.98 278.24 663.46 279.1 663.51 280.23 Z M 633.34 243.92 634.36 244.46 634.52 244.74 634.77 245 636.55 244.77 638.23 244.84 638.54 246.32 637.89 247 637.64 248.16 635.41 249.03 634.69 249.66 633.59 250.17 632.94 250.68 631.77 250.6 631.36 250.71 629.82 250.11 629.06 250.68 628.53 251.07 627.85 250.88 625.73 251.22 623.19 254.11 621.41 256.78 620.65 256.03 620.83 254.38 620.11 253.54 619.39 253.41 617.7 254.92 615.91 254.82 615.08 253.4 614.91 251.04 614.88 249.79 616.02 248.98 616.56 248.17 617.25 247.23 617.8 247.19 617.54 249.26 618.42 250.23 619.01 250.4 619.32 249.63 619.38 248.71 619.56 247.14 620.56 245.76 622.37 244.09 625.08 243.89 629.35 244.35 631.27 243.5 633.34 243.92 Z M 614.41 230 613.83 230.17 613.37 230.05 613.07 229.47 613.13 228.79 613.27 228.38 613.63 228.1 614.48 228.31 615 229.12 614.87 229.71 614.41 230 Z M 644.21 217.96 644.2 220.85 644.6 220.71 644.8 220.61 645.68 220.57 646.45 221.09 645.86 222.23 644.74 223.26 643.9 223.38 643.82 222.5 643.94 221.72 643.54 221.68 643.38 221.28 643.81 220.03 644.01 218.77 643.97 217.62 644.21 217.96 Z M 701.18 198.37 700.7 198.42 699.98 197.93 699.53 196.85 699.79 196.29 700.43 196.35 701.11 197.12 701.34 197.9 701.18 198.37 Z M 696.08 193.03 695.83 193.14 695.1 192.95 695.86 192.86 696.08 193.03 Z" fill-rule="evenodd" id="SLB-1934" data-name="Temotu"/>
<path d="M 125.79 127.49 126.41 128.06 126.85 128.64 127.28 128.9 128.48 129.48 129.34 130.75 129.28 132.01 127.69 132.58 127.16 132.42 125.01 131.31 122.15 130.54 118.97 129.21 117.51 128.15 117.68 127.23 119.92 127.56 120.89 127.59 121.78 127.23 122.15 127.68 122.65 126.89 122.98 126.53 123.34 126.37 123.89 126.47 124.23 126.77 124.49 127.08 124.79 127.23 125.79 127.49 Z M 162.49 134.69 161.54 135.04 160.4 133.26 160.12 132.95 159.53 132.62 159.53 131.88 159.94 130.34 160.22 129.79 161.98 128.46 162.3 127.92 162.56 127.24 162.74 126.45 162.8 125.59 163.21 125.59 163.21 126.86 163.71 127.73 164.12 129.11 164.26 130.48 164.03 131.31 165.7 131.97 165.64 132.52 165.43 132.99 165.11 133.31 163.74 133.65 162.49 134.69 Z M 151.12 117.58 151.9 117.91 152.55 117.58 153.14 117 153.73 116.55 154.97 116.27 156.48 116.27 157.74 116.67 158.26 117.58 158.41 118.86 158.32 119.3 157.85 119.82 157.29 119.99 156.62 119.93 156.05 119.98 155.81 120.46 155.53 120.67 154.37 121.13 154.21 121.5 154.57 121.86 155.75 122.03 156.22 122.32 156.55 122.11 156.81 122.02 157.45 121.91 156.68 122.92 156.29 123.26 155.81 123.55 157.17 124.91 156.66 126.31 154.21 128.46 153.47 129.58 153.17 129.92 152.63 130.24 151.59 130.48 151.12 130.75 150.26 130.87 148.94 130.59 147.75 130.19 147.22 129.92 147.06 129.52 146.69 129.25 145.99 128.9 145.73 128.6 145.38 127.98 145.13 127.68 143.38 126.13 143.08 125.79 143.08 122.73 143.49 120.64 143.74 120.28 144.09 119.93 144.35 119.43 144.31 118.6 145.93 119.58 146.59 119.61 146.81 118.6 147.22 118.65 147.42 118.83 147.63 119.45 148.11 118.67 147.95 118.1 147.63 117.47 147.63 116.55 147.99 116.15 150.08 115.33 150.54 115.24 150.71 115.16 150.9 114.92 151.34 115.33 151.34 115.74 150.84 116.11 150.63 116.56 150.73 117.06 151.12 117.58 Z M 113.06 119.01 112.93 119.23 112.56 119.52 112.29 119.54 112.07 119.45 111.89 119.45 111.63 119.45 111.36 119.28 111.06 119.2 110.66 119.45 110.57 119.76 110.66 121.09 110.21 122.82 110.14 123.79 110.45 124.58 112.62 126.89 113.84 127.74 115.2 128.09 115.2 128.46 114.26 128.67 113.14 128.62 112.07 128.35 111.27 127.88 110.57 127.2 110.15 126.95 109.61 126.86 109.11 126.61 109.02 126.04 109.07 125.35 109.02 124.81 108.63 124.13 107.05 121.96 106.35 121.5 105.38 121.19 104.08 120.45 102.93 119.55 102.44 118.8 102.6 117.94 102.99 117.21 103.52 116.61 104.07 116.15 105.67 115.3 106.58 114.65 107.72 112.41 109.41 110.76 111.22 109.61 112.33 109.63 113.41 110.36 114.32 111.5 114.96 112.99 115.2 114.73 114.99 115.11 114.12 116.12 113.5 118.13 113.34 118.41 113.17 118.61 113.06 119.01 Z M 99.54 104.65 99.54 105.1 97.8 104.09 96.94 101.87 95.83 99.82 93.4 99.33 93.61 99.15 94 98.71 94.22 98.52 93.24 98.07 92.2 97.26 91.76 96.45 92.58 96.02 93.4 96.68 94.95 96.79 96.44 97.09 97.12 98.31 97.21 99.08 97.9 101.38 98.23 103.37 98.67 104.21 99.54 104.65 Z M 96.26 94.42 97.73 94.93 99.13 94.82 100.43 94.93 101.62 96.02 102.19 97.28 102.63 98.85 102.88 100.55 102.85 102.2 102.44 102.2 102.32 101.35 101.87 101.19 101.29 101.23 100.77 101 100.53 100.56 99.98 98.89 99.41 97.83 98.74 96.94 97.86 96.2 96.67 95.61 97.12 95.24 96.5 95.18 96.22 95.03 96.18 94.78 96.26 94.42 Z M 79.05 88.21 79.27 89.21 79.9 89.07 80.89 91.66 79.34 91.61 77.56 90.06 77.81 88.21 79.05 88.21 Z M 128.51 96.24 129.03 97.19 128.86 97.94 128.57 98.62 128.73 99.33 129.14 98.9 129.49 98.98 129.87 99.25 130.37 99.33 130.75 99.18 131.47 98.71 132.01 98.52 133.18 98.29 134.15 98.28 135.09 98.6 136.81 99.83 137.05 100.08 137.36 100.56 137.49 100.94 137.73 102.2 138.47 103.19 140.02 104.24 140.64 105.1 140.54 106.6 140.64 107.14 140.97 107.68 141.9 108.41 142.27 108.78 142.76 109.79 143.15 111.88 143.49 112.91 143.77 113.11 144.16 113.14 144.53 113.27 144.76 113.72 144.74 114.31 144.53 114.8 143.34 116.77 143.2 117.12 143.08 117.79 143.07 118.34 143.14 118.87 143.28 119.36 143.49 119.82 139.8 118.38 138.18 118.23 138.18 118.6 139 119.09 139.56 119.84 139.75 120.8 139.41 121.91 139 121.91 138.87 120.93 138.43 120.3 137.95 119.9 137.73 119.64 137.53 118.78 137.01 117.94 135.68 116.55 134.1 115.69 130.84 115.41 129.33 114.73 126.69 112.91 125.28 111.22 125.01 111.03 124.92 110.16 124.43 108.79 124.23 107.96 124.23 104.28 124.68 104.97 124.91 105.68 125.01 107.33 125.33 108.05 126.74 108.44 127.06 108.98 127.25 109.6 127.68 109.51 128.09 108.93 128.29 108.17 127.97 107.55 126.55 106.21 125.98 104.27 125.32 102.84 124.38 101.45 123.34 100.56 122.6 100.38 122.05 100.53 121.44 100.82 120.52 101 120.13 100.76 119.7 100.32 119.27 100.23 118.91 101 118.25 100.61 117.76 100.61 116.83 101 116.77 101.06 116.29 101.29 116.02 101.38 113.97 101.41 111.76 101.2 111.07 101.38 110.55 102.23 110.15 103.35 109.51 104.42 108.2 105.1 107.15 104.87 105.1 103.69 104.48 103.87 104.07 103.87 103.7 98.31 103.87 97.94 104.74 96.73 105.1 96.47 105.96 96.46 106.65 96.38 107.24 96.14 107.8 95.61 108.08 96.39 108.5 96.62 108.97 96.46 109.39 96.02 109.57 95.47 109.58 94.18 109.84 93.57 109.63 92.86 109.96 92.05 111.27 90.48 111.87 89.58 112.76 87.57 113.34 86.78 115.89 84.29 116.83 83.68 117.8 83.31 119.61 82.83 120.52 82.48 120.49 82.77 120.57 82.83 120.73 82.84 120.93 82.89 125.09 85.23 126.69 85.35 126.27 86.43 126.46 87.19 126.84 87.91 127.06 88.86 126.98 91.14 127.1 92.25 127.51 93.16 126.94 94.26 127.14 95.03 128.51 96.24 Z M 66.71 96.34 65.68 96.84 65.14 96.11 63.63 91.73 62.74 90.38 62.6 89.05 63.02 86.16 62.36 83.14 62.38 81.83 63.43 81.25 64.32 82.02 65.06 82.89 65.33 83.53 65.69 84.94 66.5 86.3 66.82 87.33 67.03 88.4 67.1 89.25 67.39 90.8 67.42 91.64 67.1 92.38 67.57 93.65 67.39 95.12 66.71 96.34 Z M 101.45 91.29 100.42 93.02 99.16 93.8 97.9 92.38 97.39 92.57 97.15 92.6 96.67 92.38 93.65 92.63 90.54 90.1 88.13 86.54 87.23 83.68 87.33 82.92 87.53 82.2 88.08 80.85 89.51 78.67 89.71 78.19 90.52 77.42 92.36 76.68 94.42 76.15 95.86 75.94 98.64 77.39 100.61 79.5 101.86 82.07 102.44 84.94 102.52 87.79 102.35 88.8 101.45 91.29 Z M 63.76 73.95 62.53 74.55 61.45 74 61.51 73.47 61.99 72.88 62.62 72.38 63.16 72.41 63.38 72.61 64 73.06 63.76 73.95 Z M 67.1 59.1 67.28 59.6 67.6 60.04 68.33 60.73 68.48 61.04 68.41 61.3 68.47 61.49 69.4 61.6 69.58 61.78 69.61 62.09 69.6 62.57 69.85 62.81 70.43 63.05 71.01 63.46 71.52 64.86 72.1 65.26 73.31 65.64 72.88 66.09 73.69 66.94 75.04 66.43 76.39 66.91 77.67 67.71 78.84 68.13 79.3 68.99 78.39 70.91 76.18 73.9 75.06 74.83 73.61 76.33 72.67 78.01 73.1 79.43 73.66 80.17 73.67 80.81 73.23 81.32 72.47 81.63 72.28 81.42 71.78 81.01 71.11 80.84 70.41 81.25 70.01 81.25 69.88 80.05 70.14 78.85 69.96 77.94 67.14 77.18 66.94 76.18 67.55 73.7 67.32 73.22 66.78 72.82 66.22 72.48 65.88 72.22 65.1 70.61 64.69 70.17 63.68 69.83 63.63 69.77 63.15 69.71 63.09 69.53 63.15 69.28 62.53 67.91 62.17 67.72 61.38 68.13 60.27 65.42 60.69 62.73 62.28 60.48 64.69 59.1 65.47 59.28 66.03 59.54 66.53 59.58 67.1 59.1 Z M 4.74 44.33 5.69 44.82 6.36 45.47 6.91 46.17 7.6 46.78 6.36 47.92 5.09 48.22 2.03 47.98 1 47.49 1.39 46.4 3.06 44.33 3.48 44.47 3.81 44.46 4.74 44.33 Z M 19.5 26.22 21.3 26.65 21.75 26.86 22.57 27.88 22.57 28.69 22.22 29.52 21.99 30.55 21.55 30.93 20.54 31.22 19.43 31.32 18.68 31.16 17.7 32.04 16.7 32.02 15.68 31.9 14.6 32.42 14.04 32.14 13.35 31.48 12.92 31.16 11.22 30.64 10.88 30.34 10.98 29.53 12.55 26.22 13.03 26.5 13.22 25.62 13.58 24.52 14.6 24.17 14.39 23.69 14.42 23.32 14.6 22.94 15.35 23.23 17.45 25.02 19.5 26.22 Z M 36.63 17.68 36.35 18.44 37.24 19.74 37.58 20.08 38.05 20.33 39.19 20.66 39.62 20.86 39.03 21.22 38.4 21.3 37.76 21.17 37.17 20.86 37.02 21.79 36.73 22.7 36.26 23.52 35.49 24.17 35.43 23.7 35.32 23.46 35.19 23.27 35.09 22.94 34.68 23.42 34.21 23.72 33.66 23.85 33.04 23.8 33.99 23.14 34.88 22.32 35.08 21.83 34.8 21.42 34.42 21.01 34.3 20.49 34.5 19.64 34.76 19.37 35.29 19.26 35.7 19.08 35.38 18.73 34.87 18.43 34.68 18.44 33.91 17.31 33.29 16.09 33.46 14.89 35.09 13.9 36.35 13.9 36.35 14.31 35.52 14.52 34.88 14.98 34.46 15.68 34.3 16.57 34.83 17.06 35.86 17.33 36.63 17.68 Z" fill-rule="evenodd" id="SLB-3507" data-name="Western"/>
<path d="M 120.91 48.38 122.48 48.68 124.18 48.48 125.69 48.54 126.67 49.65 127.05 49.2 127.49 49.65 127.12 50.1 126.99 50.73 127.12 51.42 127.49 52.06 125.85 50.87 125.79 51.77 125.18 52.11 123.33 52.06 123.33 51.69 123.69 51.49 124.21 51.08 124.55 50.87 122.19 50.18 121.52 49.83 121.04 49.75 119.51 49.83 118.9 49.65 119.88 48.95 120.91 48.38 Z M 137.73 52.52 138.18 53.33 136.56 53.42 135.7 53.37 134.7 52.95 134.31 53.04 133.89 53.22 133.44 53.33 132.99 53.2 132.61 52.63 132.21 52.51 131.06 51.83 131.68 50.32 133.64 47.98 136.5 48.99 136.91 49.42 137.02 50.32 137.73 52.52 Z M 65.33 3.98 65.9 3.99 66.48 3.78 66.74 3.64 69.01 4.31 70.6 5.5 73.69 9 74.53 9.73 77.24 11.54 79.8 12.23 83.54 14.76 86.04 15.95 88.21 16.35 89.23 16.87 89.97 17.12 90.63 17.5 90.91 18.22 91.14 18.66 91.69 18.73 92.36 18.7 92.96 18.81 93.55 19.31 94.83 21.08 97.12 22.94 97.62 23.82 97.79 24.87 97.9 27.44 98.56 30.14 99.54 32.42 100.12 33.18 100.75 33.82 101.3 34.59 101.62 35.69 102.54 35.14 102.85 34.85 103.32 35.89 104.11 36.67 105.15 37.17 106.35 37.33 107.16 37.71 107.74 38.57 108.09 39.59 108.2 40.42 108.54 40.94 109.33 41.31 111.07 41.87 111.74 42.26 112.48 42.85 113.13 43.56 113.56 44.33 113.93 44.33 114.08 43.33 114.52 43.3 115.15 43.67 115.81 43.92 117.1 43.92 117.7 43.8 119.87 43.01 121.04 42.97 121.85 43.55 122.15 44.94 122.15 46.4 121.94 47.2 121.17 47.54 119.49 47.6 118.77 48.03 117.24 50.87 117.13 50.17 116.87 49.8 116.5 49.75 116.02 50.02 115.23 49.39 113.78 49.07 111.07 48.83 109.9 48.45 109.1 47.68 108.85 46.56 109.39 45.14 108.88 45.33 108.53 45.61 107.8 46.37 107.33 46.15 107.06 46.34 106.98 47.19 105.83 46.53 103.7 45.82 102.44 45.14 99.27 44.89 98.73 44.94 98.34 45.53 97.49 45.5 96.65 44.88 96 43.07 95.36 42.2 94.54 41.41 93.81 41.05 93.28 41.34 92.11 41.81 91.28 41.91 91.77 41.05 91.21 40.07 90.31 39.28 89.16 38.75 87.86 38.56 87.04 38.25 86.07 37.48 80.47 30.95 80.22 30.4 80.07 29.65 79.81 28.99 79.25 28.71 78.45 28.5 78.01 27.99 77.4 26.66 75.06 23.41 74.32 22.94 73.74 22.37 71.65 18.81 70.66 18.13 67.81 16.64 66.92 16.36 66.21 16.03 59.52 10.23 59.37 10.02 58.11 9 57.71 8.16 57.24 4.9 57.26 3.69 57.71 2.85 59.71 1.19 60.73 1 62.12 1.2 63.32 1.64 64.03 2.41 64.44 2.61 64.87 2.92 65.06 3.45 65.33 3.98 Z" fill-rule="evenodd" id="SLB-3508" data-name="Choiseul"/>
<path d="M 376.25 221.42 374.89 222.1 374.46 222.02 374.24 221.79 374.22 221.47 374.48 221.07 374.77 220.51 374.54 220.26 374.12 220.16 373.86 220.05 373.06 218.6 373.04 217.81 373.86 217.12 375.17 218.17 376.15 219.85 376.25 221.42 Z M 350.19 217.24 350.5 217.56 353.81 216.96 360.17 219.76 366.6 223.72 370.14 226.6 371.26 226.16 372.03 226.63 373.24 228.47 374.13 229.02 375.07 229.12 375.97 229.05 376.73 229.09 377.48 229.41 379.25 230.49 379.58 230.93 380.15 231.52 381.45 231.57 382.84 231.27 383.72 230.73 385.95 231.46 386.97 231.52 387.81 231.14 388.34 231.61 389.22 232.73 389.85 233.18 390.55 233.4 392.51 233.18 393.52 233.39 393.83 233.25 394.1 231.98 394.5 231.68 395.05 231.56 395.62 231.55 396.81 232.09 398.41 234.32 399.09 234.82 399.77 235.22 400.27 236.13 401.49 239.36 401.76 239.77 402.2 240.11 402.59 240.23 402.9 240.49 403.21 242.46 403.71 243.36 404.5 244.05 406.63 245.46 407.24 246.2 407.48 247.14 407.49 250.56 407.31 250.85 406.93 250.98 406.49 251.29 406.11 251.67 405.88 252.04 406.28 253.53 408.18 253.83 410.58 253.75 412.46 254.09 413.1 253.8 413.52 254.28 413.46 254.99 412.66 255.36 411.87 255.22 411.17 255 410.44 254.96 409.6 255.36 409.15 255.08 408.53 254.98 407.51 254.95 406.7 254.8 402.4 253.15 401.02 253.33 399.7 254.54 399.03 254.18 398.27 254.06 396.64 254.09 396.06 253.96 395.63 253.62 395.25 253.23 394.8 252.9 392.15 251.86 391.19 251.07 390.67 250.85 389.91 250.97 388.17 251.55 387.61 251.44 387.04 251.12 384.54 250.4 384.63 250.52 384.28 250.67 383.51 250.85 383.12 250.71 382.51 250.13 382.29 249.99 381.7 249.83 381.3 249.42 380.82 248.36 380.49 249.24 380.44 249.63 379.13 248.67 378.43 248.48 377.54 248.77 377.39 248.4 376.95 247.9 376.73 247.58 376.17 247.81 375.68 247.42 375.4 246.8 375.5 246.35 374.94 245.65 374.23 245.59 373.43 245.7 372.63 245.5 372.2 244.92 372.03 244.24 371.71 243.68 370.79 243.45 370.48 243.08 369.69 242.34 368.87 241.8 368.51 242.02 368.22 242.55 367.58 242.15 366.46 241.03 366.48 240.52 366.21 240.16 365.77 239.94 365.23 239.77 365.35 239.31 365.23 238.89 364.91 238.48 364.41 238.1 363.92 238.69 363.2 238.89 362.36 238.8 361.52 238.54 362.75 234.82 362.09 234.41 362.01 233.83 362.04 233.2 361.74 232.57 361.37 232.48 360.16 232.74 359.46 232.77 360.02 232.08 360.49 231.1 360.44 230.24 359.46 229.91 360.08 228.41 360.49 227.71 360.92 227.42 361.24 227.29 361.12 227 360.7 226.6 360.37 226.52 359.42 226.63 359.06 226.6 358.65 226.28 358.38 225.87 358 225.52 357.2 225.38 355.57 225.38 354.87 225.2 354.6 224.76 354.22 224.51 353.38 224.46 352.1 224.56 351.73 224.73 351.47 225.02 351.15 225.26 350.69 225.38 350.27 225.31 349.86 225.03 348.29 224.83 347.64 224.58 347.15 224.14 346.9 223.24 347.42 221.93 347.15 221.28 347.44 221 347.59 220.8 347.72 220.64 348.01 220.5 347.59 219.56 347.57 218.26 348.06 217.15 349.2 216.75 349.52 216.92 349.86 217.04 350.19 217.24 Z" fill-rule="evenodd" id="SLB-3509" data-name="Makira"/>
<path d="M 266.55 170.75 267.82 170.86 270.15 170.78 270.77 170.69 271.34 170.44 271.84 170.11 272.68 170.65 272.35 171.81 272.38 172.47 271.48 172.82 270.93 172.25 269.09 172.45 267.39 171.8 266.55 170.75 Z" id="SLB-5130" data-name="Capital Territory (Honiara)"/>
</g>
</svg>