<?xml version="1.0"?>
<svg xmlns="http://www.w3.org/2000/svg" version="1.2" baseProfile="tiny" width="800" height="907" viewBox="0 0 800 907" stroke-linecap="round" stroke-linejoin="round">
<g id="ne_10m_admin_1_states_provinces">
<path d="M 120.32 231.71 120.96 234.12 122 236.45 122.23 238.12 121.95 249.88 120.39 252.51 118 254.8 114.68 256.43 111.1 256 104.91 251.75 100.78 252.46 97.46 254.52 96.42 258.24 94.28 260.89 91.76 263.28 89.52 264.51 87.17 265.49 77.53 265.81 68.98 268.75 69.13 273.09 71.24 277.86 69.7 279.19 62.28 283.33 61.29 283.73 59.89 283.89 58.45 283.58 57.4 283.63 56.32 284.21 54.21 285.01 51.95 284.89 48.75 286.77 45.25 287.45 41.68 287.57 37.14 286.43 33.75 285.91 35.11 284.21 36.26 281.27 37 280.33 37.82 279.81 39.87 279.01 40.78 278.42 41.8 276.8 42.22 275.08 42.72 271.43 45.45 264.7 45.45 264.69 48.06 257.2 48.82 252.98 48.62 247.55 48.39 246.51 47.91 246.64 47.36 248.03 46.57 248.43 44.84 247.84 43.11 246.83 42.32 245.94 41.97 245.37 40.2 244.63 39.38 244.11 38.99 243.51 38.44 242.05 37.94 241.22 35.22 237.83 29.19 225.31 27.08 223.09 23.09 222.07 19.26 222.9 16.11 224.9 14.04 227.42 12.82 231.21 12.61 231.41 12.04 231.49 9.69 232.32 9.37 232.52 8.38 233.36 8.45 237.47 6.85 239 4.96 239 3.06 238.06 1.62 236.42 1.02 234.35 1.23 230.7 1.06 228.9 1 227.48 1.29 226.02 2.48 224.69 3.52 223.22 3.97 221.36 4.2 219.1 5.17 215.79 6.5 206.42 7.64 202.77 9 199.99 9 198.61 9.76 196.92 12.1 193.78 12.61 192.43 13.05 190.67 14.13 189.39 16.99 187.03 19.71 183.86 21.36 182.49 25.53 181.33 26.83 179.91 27.79 178.24 29.23 176.88 31.22 176.51 40.42 177.93 44.9 179.12 47.36 179.05 50.77 177.98 53.92 176.33 54.86 175.65 54.97 175.87 57.74 179.52 62.58 180.91 66.44 183.95 68.19 188.69 70.03 190.66 72.34 192.31 73.96 194.41 74.97 196.81 77.67 201.6 77.63 206.03 78.5 211.51 81.87 212.8 89.68 211.9 92.63 214 94.93 217.33 96.67 221.06 96.65 224.51 96.95 227.21 100.85 230.28 103.17 231.1 109.65 232.64 117.01 230.95 120.32 231.71 Z" id="LAO-3271" data-name="Bokeo"/>
<path d="M 177.25 141.84 178.49 143.83 177.24 151.87 175.59 155.64 173.29 158.9 169.19 160.35 165.13 162.31 161.6 165.22 161.27 169.26 162.53 170.83 161.97 172.45 157.4 172.42 155.75 173.17 151.68 174.09 146.89 178.17 143.08 185.19 139.3 187.05 149.5 190.33 150.61 192.96 154.46 195.83 155.34 197.44 156.15 205.73 153.19 214.06 151.59 216.25 149.55 218.07 147.7 220.5 144.22 226.71 135.96 230.3 125.38 230.93 120.2 230.6 120.32 231.71 117.01 230.95 109.65 232.64 103.17 231.1 100.85 230.28 96.95 227.21 96.65 224.51 96.67 221.06 94.93 217.33 92.63 214 89.68 211.9 81.87 212.8 78.5 211.51 77.63 206.03 77.67 201.6 74.97 196.81 73.96 194.41 72.34 192.31 70.03 190.66 68.19 188.69 66.44 183.95 62.58 180.91 57.74 179.52 54.97 175.87 54.86 175.65 56.84 174.21 59.53 171.78 59.53 171.13 56.47 170.52 47.1 172.06 45.15 170.73 45.37 168.64 46.35 164.36 46.57 162.09 47 161.56 48.97 160.31 49.53 159.61 49.37 158.78 48.07 155.87 50.01 155.06 54.75 154.13 56.73 153.06 58 151.42 63.46 141.96 66.8 129.17 66.96 127.9 66.9 126.74 67.26 125.9 68.63 125.57 69.61 125.62 70.56 125.81 71.43 126.16 72.24 126.68 74.28 127.41 76.67 127.11 80.54 125.57 81.71 124.67 85.25 121.25 86.72 120.79 96.58 115.95 111.31 104.62 112.79 103.96 113.21 102.38 112.99 100.48 114.62 100.59 115.89 102.31 116.02 105.42 113.96 114 114.29 116.22 115.11 116.77 118.15 118.32 120.1 119.65 120.56 119.56 120.8 119.56 120.98 120.41 119.72 123.43 118.09 125.56 118.31 126.21 119.25 127.13 119.46 127.52 119.32 128.98 118.26 132.87 119.46 134.12 120.98 137.01 121.98 138.43 123.61 139.84 125.25 140.4 127.08 140.2 129.32 139.28 134.42 136.01 136.45 135.3 148.43 133.16 150.8 133.18 153.07 133.57 156.63 134.7 157.35 134.76 157.8 135.1 158.24 136.27 158.08 137.23 157.48 138.23 157.09 139.24 157.57 140.24 159.12 140.48 163.28 138.78 165.3 138.81 166.89 140.09 168.8 143.38 170.48 144.52 171.92 144.58 173.99 144.26 175.94 143.66 177.07 142.88 177.25 141.84 Z" id="LAO-3272" data-name="Louang Namtha"/>
<path d="M 181.67 364.41 181.49 366.24 181.09 367.44 180.91 368.56 181.31 369.47 181.88 370.27 182.16 371.25 182.36 373.43 182.26 375.87 181.18 379.78 180.92 381.74 181.52 383.35 185.96 387.96 187.09 391.47 186.3 394.63 183.14 400.92 182.64 403.14 182.18 407.56 181.7 409.56 178.4 415.14 176.77 417.17 174.52 422.17 173.42 423.3 173.19 423.62 170.84 425.46 169.62 425.91 168.27 426.16 166.95 426.06 165.79 425.46 164.19 426.87 162.27 430.72 161.08 432.37 158.75 433.9 157.15 434.52 156.78 435.51 156.69 436.7 156.44 437.7 155.43 439.14 153.9 440.82 152.1 442.22 150.25 442.81 147.94 443.18 146.96 444.15 146.44 445.53 145.51 447.13 140.59 452.48 138.74 455.91 138.31 460.22 138.85 461.65 140.82 464.97 141.25 466.27 141.9 473.83 141.66 476.97 141 479.91 140.89 482.63 143.13 486.21 143.61 487.28 144.33 488.06 145.9 488.36 148.46 487.88 149.38 488.22 149.89 489.8 150.61 489.8 151.38 489.19 152.89 488.46 154.34 488.3 155 489.41 154.72 490.2 152.83 493.4 152.83 494.06 153.53 494.58 153.72 494.75 153.74 494.77 152.53 495.21 154.88 497.04 152.8 498.42 149.23 499.87 147.15 501.93 146.73 502.76 146.22 503.53 145.83 504.38 145.6 504.61 144.63 502.6 144.45 501.93 144.31 501.47 144.04 501.38 143.65 501.57 143.17 501.93 141.78 503.22 140.19 503.35 138.59 503.2 137.13 503.67 136.49 504.58 137.17 504.89 138.27 504.95 138.82 505.12 138.72 505.76 138.57 506.06 136.69 508.35 136.02 508.59 135.22 508.54 133.9 508.97 122.27 518.13 120.33 520.63 118.21 524.55 117.54 525.41 116.28 525.88 114.88 526.12 113.8 526.73 113.54 528.3 113.54 528.3 111.74 530.75 111.17 531.32 110.17 531.89 109.81 531.95 109.36 531.65 106.34 530.46 103.19 528.67 101.42 528.3 99.96 526.52 98.22 525.04 96.31 523.82 94.27 522.83 89.65 522 85.88 521.32 84.2 520.07 84.16 517.74 85.61 515.52 89.15 511.56 91.35 506.78 91.56 505.97 92.07 504.06 91.86 501.93 91.62 500.86 91.85 500 92.51 499.32 93.5 498.8 93.6 498.58 93.64 498.35 93.6 498.12 93.5 497.91 92.81 497.16 92.55 496.47 92.74 495.81 93.5 495.24 95.67 494.35 96.25 493 95.91 489.4 96.31 487.27 97.09 486.17 100.41 484.4 103.19 482.09 104.86 479.52 106.22 476.77 108.06 473.93 109.44 472.88 112.83 470.86 113.64 469.49 113.31 468.01 111.5 464.08 111.15 462.05 111.58 460.16 113.14 456.2 113.38 454.53 113.01 453.61 112.33 453.08 111.56 452.66 110.94 452.06 110.11 449.94 109.76 449.21 109.71 445.5 109.94 444.42 110.5 443.66 112.29 441.76 112.61 441.08 111.56 439.67 104.89 436.72 104.03 435.94 101.6 433.74 100.12 431.84 99.41 430.01 99.97 427.9 103.04 424.89 103.8 422.86 104 421.79 104.43 421.3 111.2 417.73 112.6 416.42 113 415.26 112.89 412.91 113.18 411.87 113.91 411.18 115.76 410.53 116.69 410.08 119.62 407.42 120.97 405.69 121.54 404.09 120.98 402.42 118.5 400.05 117.92 398.14 118.28 396.42 119.84 393.02 120.33 391.22 119.77 384.91 119.93 382.88 120.78 380.98 123.35 378.16 124.4 376.58 125.43 373.15 126.16 371.62 130.64 367.5 129.74 364.38 126.92 361.34 122.31 357.46 121.07 356.16 120.38 354.53 120.13 352.04 120.46 345.86 118.31 337.04 118.28 336.39 118.46 335.86 118.5 335.25 118.13 334.38 117.52 333.96 115.73 333.61 115.04 333.12 114.39 329.98 114.97 325.67 116.56 321.92 118.92 320.49 121.34 319.87 122.76 317.53 123.31 314.54 123.1 311.97 122.69 310.58 122.18 309.53 121.34 308.7 119.95 307.96 118.15 307.5 117.02 307.78 116.08 308.43 114.87 309.06 112.32 309.73 109.36 310.08 106.32 309.85 103.41 308.81 98.78 306.1 96.49 305.28 93.5 304.98 84.16 305.09 83.54 304.97 82.99 305.04 81.98 305.65 81.58 306.12 80.3 308.24 76.02 313.09 71.18 317.42 70.17 318.8 69.38 318.52 68.61 317.47 67.66 316.45 66.14 315.63 57.54 312.5 54.78 312.63 52.56 314.21 51.37 316.06 50.52 317.4 48.69 317.52 45.66 316.67 42.63 315.42 40.78 314.31 39.48 313.03 39.16 311.48 39.16 309.77 38.8 308.02 37.95 306.63 35.8 304.1 34.93 302.78 34.31 300.96 34.05 297.51 33.71 295.86 32.99 294.63 31.9 293.28 31.24 292.48 30.75 291.04 31.21 289.12 33.75 285.91 37.14 286.43 41.68 287.57 45.25 287.45 48.75 286.77 51.95 284.89 54.21 285.01 56.32 284.21 57.4 283.63 58.45 283.58 59.89 283.89 61.29 283.73 62.28 283.33 69.7 279.19 71.24 277.86 72.97 276.36 74.3 275.71 75.75 275.6 88.63 277.59 93.53 279.03 97.21 281.72 97.6 280.98 98.28 280.02 98.58 279.44 99.36 279.44 100.78 281 102.5 280.48 105.12 278.06 107.74 276.28 108.73 275.9 110.07 275.96 111.19 276.47 112.08 277.06 114.1 278.04 120.96 282.38 123.42 283.06 155.21 282.83 159.17 282.01 161.48 279.44 160.21 278.65 161.54 277.46 163.83 276.38 165.43 275.9 166.5 275.29 169.6 272.41 170.84 271.52 173.19 274.31 174.74 276.17 176.44 277.69 177.6 279.69 177.74 284.72 175.87 289.56 174.88 291.5 174.97 297.88 176.15 300.56 179.15 300.69 182.15 300.42 183.14 301.17 182.16 304.82 182.34 318.9 182.78 320.41 183.66 321.79 184.94 323.19 186.59 324.2 190.74 325.98 191.79 327.15 191.07 328.19 187.56 331.68 186.74 333.3 186.21 335.36 183.78 338.85 183.14 340.24 183.11 342.24 183.8 348.49 183.61 350.61 182.72 354.15 181.67 364.41 Z" id="LAO-3278" data-name="Xaignabouri"/>
<path d="M 662.87 749.31 668.27 751.26 673.15 757.2 676.72 758.68 680.43 758.83 682.75 759.58 693.74 768.04 694.32 776.99 694.92 777.07 695.61 776.91 695.51 777.32 695.27 777.68 697.13 778.92 699.45 779.38 703.77 778.4 705.28 779.82 706.41 781.73 707.86 782.88 709.12 784.52 710.18 789.8 710.2 795.16 708.22 798.36 709.88 802.6 707.54 802.31 703.17 803.51 702.02 804.85 700.14 806.33 698.16 808.6 697.98 811.53 696.39 814.04 693.2 814.63 690.03 814.5 687.9 815.93 682.53 814.21 679.57 814 676.78 812.33 674.65 809.77 674.56 807.03 675.08 804.21 674.77 802.92 674.89 801.41 676.07 798.71 676.44 795.47 674.27 793.37 671.42 794.42 669.03 796.37 666.55 795.11 665.28 792.21 662.65 790.89 659.56 790.89 657.03 792.29 655.52 795.02 650.99 798.41 646.15 803.16 641.76 809.74 642.04 817.49 643.58 820.37 645.68 822.75 648.66 824.39 651.26 826.42 653.47 834.88 655.37 836.8 657.56 838.58 659.45 841.25 659.9 844.2 659.91 845.59 660.57 846.84 659.35 849.57 659.34 849.59 658.65 849.69 657.25 850.07 655.8 849.96 654.78 849.71 648.37 845.86 647.75 845.22 646.77 847.01 645.7 852.5 644.99 854.77 643.43 856.99 641.76 857.96 639.74 858.18 636.04 857.97 633.5 857.54 631.86 857.64 630.73 857.56 630.19 857.61 629.88 858.05 629.61 859.7 629.33 860.2 627.51 860.28 622.87 858.72 620.74 858.36 620.26 859.52 620.09 860.73 620.24 861.93 620.74 863.06 622.79 864.68 623.96 866.36 624.33 868.39 623.91 871.01 624.8 873.13 626.26 874.48 629.88 876.71 631.52 878.54 634.21 884.8 635.64 886.36 637.33 887.77 638.73 889.31 639.25 891.29 638.47 893.25 636.82 894.62 634.93 895.85 633.41 897.34 632.13 898.95 632.33 903.9 630.78 905.74 628.68 905.86 623.22 904.5 620.74 904.4 618.13 905.42 615.53 905.68 612.91 905.1 612.48 904.87 610.1 903.6 601.04 895.87 599.25 893.28 598.06 890.35 596.49 887.77 593.54 886.23 592.39 886.18 590.13 886.52 588.62 886.35 586.92 885.65 585.85 884.98 584.78 884.92 583.12 886.08 582.35 884.21 580.73 882.56 578.83 881.75 577.23 882.37 576.62 881.54 575.92 880.79 575.11 880.15 574.26 879.61 571.32 881.64 569.76 882.5 568 882.97 565.5 884.59 562.55 885.57 559.42 886 556.43 885.97 554.72 885.76 553.65 885.34 552.78 884.54 550.08 880.87 549.31 880.4 547.79 879.94 547.07 879.56 545.13 877.7 538.85 868.44 537.86 866.25 537.46 863.81 537.47 860.48 538.93 860.54 544.44 859.27 546.36 858.52 547.11 857.7 548.37 855.47 549.11 854.86 550.16 854.95 552.01 856.2 553.37 856.27 553.98 855.8 555.96 853.89 556.8 853.23 558.02 852.84 560.81 852.33 561.9 851.79 562.36 851.05 563.26 848.63 563.78 847.6 564.47 846.81 566.93 844.64 570.28 840.3 571.56 837.46 571.83 834.35 570.31 827.35 570.48 824.13 571.3 819.29 570.92 818.28 569.78 816.39 569.62 814.02 570.11 811.63 570.92 809.69 571.41 809.37 572.87 809.05 573.33 808.65 573.3 808.09 572.55 806.62 572.43 805.02 572.63 804.39 573.07 804.28 574.73 804.35 575.3 804.13 576.1 801.79 574.36 798.44 575.39 796.43 579.57 793.85 580.57 792.46 577.77 791.92 577.76 791.92 577.73 791.92 577.73 791.91 576.41 790.92 573.32 786.64 573.17 786.21 573.2 785.04 572.96 784.51 572.5 784.41 571.14 784.64 570.58 784.51 568 781.93 565.69 781.49 564.81 779.74 564.83 777.38 565.24 775.11 565.95 772.98 566.87 771.51 571.17 767.12 574.09 764.82 577.11 762.92 577.51 762.75 577.59 759.91 577.24 757.65 576.88 757.2 574.82 757.58 572.8 757.63 570.66 757.25 569 756.21 568.38 754.28 569.31 751.95 571.41 750.61 576.33 749.09 580.08 746.8 580.49 746.4 580.85 746.41 583.33 745.37 584.9 743.62 587.76 743.33 590.27 744.35 592.75 744.92 595.2 744.4 596.2 743.43 597.51 743.13 598.44 743.88 599.35 744.81 600.55 745.46 601.81 745.94 602.97 745.51 603.94 744.76 605.02 744.73 605.96 744.96 612.6 744.83 616.17 744.05 618.97 743.18 621.48 744.55 623.88 743.66 626.43 743.56 628.82 743 631.16 742.99 633.23 745.36 634.22 747.94 632.06 750.22 631.4 753.28 637.63 759.91 640.43 761.07 645.62 757.9 650.23 753.48 652.93 751.86 655.82 750.8 659.55 750.27 662.87 749.31 Z" id="LAO-3280" data-name="Champasak"/>
<path d="M 736.11 655.37 736.39 655.45 738.34 656.39 740.36 657.83 741.26 659.18 742.39 664.84 743 666.19 743.28 666.55 743.27 666.57 743.2 666.81 741.65 669.55 739.52 671.6 737.57 673.98 737.01 676.03 736.22 677.85 732.39 678.99 729.89 680.75 727.28 681.94 724.36 681.18 723.43 682.2 722.05 683.02 718.27 682.91 714.66 682.29 712.31 681.05 709.7 680.84 707.97 683.6 707.11 686.82 707.88 688.37 708.31 690.04 707.22 690.98 705.9 691.86 701 696.91 697.31 702.13 694.53 707.85 692.24 709.65 692.55 712.11 695.15 713.84 697.24 715.99 695.66 717.28 694.5 719.53 696.34 722.35 697.11 725.69 696.51 726.3 695.78 727.44 695.8 728.8 696.06 730.14 696.31 732.54 695.1 734 689.69 733.21 685.96 735.54 679.7 735.61 675.8 734.94 672.22 735.52 671.1 738.12 668.9 739.62 665.93 739.04 663.31 737.75 660.52 737.39 658.05 738.33 657.49 740.96 656.3 741.29 655.13 742.16 656.87 747.19 662.87 749.31 659.55 750.27 655.82 750.8 652.93 751.86 650.23 753.48 645.62 757.9 640.43 761.07 637.63 759.91 631.4 753.28 632.06 750.22 634.22 747.94 633.23 745.36 631.16 742.99 628.82 743 626.43 743.56 623.88 743.66 621.48 744.55 618.97 743.18 616.17 744.05 612.6 744.83 605.96 744.96 605.02 744.73 603.94 744.76 602.97 745.51 601.81 745.94 600.55 745.46 599.35 744.81 598.44 743.88 597.51 743.13 596.2 743.43 595.2 744.4 592.75 744.92 590.27 744.35 587.76 743.33 584.9 743.62 583.33 745.37 580.85 746.41 580.49 746.4 581.76 745.17 582.4 743.28 582.57 738.82 583.02 736.52 585.61 729.97 586.68 724.57 585.62 719.57 582.67 715.41 577.99 712.46 573.44 710.97 571.12 710.69 566.79 711.05 565.27 710.83 563.97 710.11 562.64 708.82 561.48 707.15 557.32 698.46 556.06 694.53 556.26 690.8 558.79 688.06 560.99 687.2 562.13 686.59 562.74 685.81 562.66 685.5 562.71 685.5 570.79 686.27 577.09 689.15 584.06 691.06 590.73 693.68 591.76 694.54 592.87 695.31 596.09 695.28 601.35 698.11 606.85 697.46 609.48 698.38 612.22 698.67 617.1 694.95 621.66 690.47 624.68 690.38 627.67 691.21 630.74 691.14 636.18 688.78 638.27 686.99 638.1 684.33 636.97 681.68 636.86 676.27 636.08 673.69 636.26 670.97 637.02 669.78 638.19 669.06 639.96 668.74 640.42 668.05 640.77 667.42 644.08 667.17 647.42 667.66 649.91 668.44 652.02 669.83 653.47 673.11 655.55 675.51 656.25 673.57 656.69 671.07 658.58 670.68 664.32 671.68 666.98 670.55 670.75 670.37 674.4 669.41 676.83 667.13 679.8 666.4 682.32 667.67 684.87 667.85 686.74 666.69 689.96 665.66 691.38 663.18 690.69 659.7 690.95 657.17 693.57 652.27 695.35 650.85 697.74 652.34 700.47 652.1 705.6 649.82 706.96 647.18 707.41 644.02 706.05 641.47 704.79 641.29 703.46 641.33 702.74 640.87 702.84 640.79 703.04 640 703.06 639.18 703.54 638.32 706.39 636.56 707.57 635.47 708 633.72 710.26 630.04 712.77 630.14 714.6 632.88 714.9 637.12 714.45 640.63 714.32 640.91 713.99 641.25 713.74 641.71 713.74 642.31 714.16 642.61 714.87 642.37 715.53 642.02 715.9 641.95 717.18 644.81 718.16 646.11 719.98 647.57 722.56 648.94 723.25 649.53 723.74 650.57 724.1 652.94 724.36 653.65 725.49 654.41 726.85 654.57 730.45 654.46 734.57 654.9 736.11 655.37 Z" id="LAO-3281" data-name="Saravan"/>
<path d="M 666.09 579.04 666.6 580.01 666.87 581.02 666.87 581.03 667.8 581.77 669.59 582.64 671.63 583.36 673.44 583.67 675.88 584.38 678.8 581.71 679.74 583.46 679.75 585.78 679.91 613.95 680.5 616.52 681.46 618.77 683.85 621.33 685.85 622.5 687.98 623.33 689.39 623.45 691 624.17 691.43 625.36 690.94 631.01 691.1 632.21 692.58 636.38 694.21 639.17 696.56 640.91 699.69 640.43 699.68 641.57 700.02 642.04 700.73 642 701.78 641.58 702.74 640.87 703.46 641.33 704.79 641.29 706.05 641.47 707.41 644.02 706.96 647.18 705.6 649.82 700.47 652.1 697.74 652.34 695.35 650.85 693.57 652.27 690.95 657.17 690.69 659.7 691.38 663.18 689.96 665.66 686.74 666.69 684.87 667.85 682.32 667.67 679.8 666.4 676.83 667.13 674.4 669.41 670.75 670.37 666.98 670.55 664.32 671.68 658.58 670.68 656.69 671.07 656.25 673.57 655.55 675.51 653.47 673.11 652.02 669.83 649.91 668.44 647.42 667.66 644.08 667.17 640.77 667.42 640.42 668.05 639.96 668.74 638.19 669.06 637.02 669.78 636.26 670.97 636.08 673.69 636.86 676.27 636.97 681.68 638.1 684.33 638.27 686.99 636.18 688.78 630.74 691.14 627.67 691.21 624.68 690.38 621.66 690.47 617.1 694.95 612.22 698.67 609.48 698.38 606.85 697.46 601.35 698.11 596.09 695.28 592.87 695.31 591.76 694.54 590.73 693.68 584.06 691.06 577.09 689.15 570.79 686.27 562.71 685.5 562.66 685.5 562.54 684.99 561.74 684.43 560.73 684.05 548.46 681.04 544.12 680.85 543.05 680.68 529.31 675.92 526.4 674.92 524.16 673.25 522.51 671.12 521.47 668.6 521.08 665.84 521.17 661.14 520.82 658.86 519.67 656.85 518.82 656.13 516.77 655.03 515.85 654.54 515.03 653.94 512.98 651.82 512.13 651.14 509.31 649.59 508.34 648.77 507.65 647.81 507.17 646.73 506.19 643.44 505.32 641.55 504.21 639.8 502.79 638.15 501.04 636.71 495.12 633.61 493.27 632.11 492.15 630.26 491.62 628.1 491.5 625.72 491.99 621.2 493.12 616.77 494.58 612.85 494.73 611.7 494.66 610.55 492.39 601.83 492.34 600.63 492.5 599.68 492.56 599.36 493.27 596.96 493.47 595.75 493.4 594.48 493.03 593.33 491.99 591.14 491.63 589.99 491.28 586.53 494.46 589.65 500.34 590.36 501.77 587.72 500.23 581.6 498.41 579.85 496.33 581.25 496.45 579.36 498.62 576.96 500.84 575.48 501.19 572.5 503.63 571.53 506.34 572.48 508.91 573.05 510.59 571.34 512.82 570.26 515.82 571.43 521.28 570.14 523.63 572.26 527.17 572.7 530.4 571.59 532.87 569.89 535.41 568.83 537.83 570.43 539.59 572.96 542.1 574.71 545.26 574.86 546.5 574.38 547.78 574.08 550.43 575 554.38 573.3 557.29 570.35 562.62 570.63 569.11 569.99 580.64 575.02 584.88 576.01 586.42 573.29 587.06 568.92 590.9 568.22 594.87 569.03 603.28 572.58 611.71 575.18 622.77 575.85 633.39 574.38 634.68 573.52 635.85 572.5 636.24 570.86 636.8 569.25 639.76 569.65 642.6 571.2 647.41 575.96 650.33 577.18 653.52 577.64 659.49 579.59 666.07 579.04 666.09 579.04 Z" id="LAO-3282" data-name="Savannakhét"/>
<path d="M 296.99 444.17 302.32 445.9 306.65 448.66 307.5 450.86 308.21 452.65 308.29 454.68 308.51 455.42 308.19 456.37 307.96 457.42 307.7 458.15 307.18 458.79 306.79 459.56 306.93 460.72 307.64 461.9 308.59 462.47 309.7 462.43 310.87 461.82 312.12 459.94 313.1 457.88 314.32 457.42 316.27 460.39 316.35 460.51 315.55 460.91 314.64 461.88 314.12 463.29 313.96 465.21 314.83 471.38 314.32 472.41 313.27 473.09 312.33 474.6 311.12 476.11 309.28 476.79 307.53 476.33 304.27 474.31 302.37 473.85 300.65 474.18 291.59 478.07 290.05 478.95 289.4 480.07 283.3 483.27 279.43 486.68 277.83 487.59 274.09 488.46 272.64 489.32 272.07 490.94 272.68 492.86 273.69 494.39 273.69 495.15 271.35 494.86 265.94 492.31 264.44 491.91 264.48 490.94 266.24 484.06 264.9 479.85 261.52 478.2 252.5 478.17 248.65 477.47 245.14 475.74 242.29 473.43 240.31 471.03 237.16 471.22 234.01 469.7 228.73 465.21 226.25 462.03 225.46 461.61 225.06 461.25 221.87 459.09 220.88 457.28 220.48 455.51 219.8 454 217.86 452.97 213 452.73 209.95 452.58 209.19 453.14 207.53 454.84 207.5 454.82 207.02 454.31 206.57 453.3 205.98 452.35 205.76 446.98 207.82 438.52 207.88 435.7 206.23 433.33 207.01 431.11 209.62 431.77 212.47 433.23 214.85 432.08 216.92 429.97 220.17 429.3 223.46 429.42 225.62 431.44 227.4 433.84 228.56 437.36 232.07 439.69 236.59 440.91 240.91 442.54 243.94 443.08 247.02 442.65 248.35 443.19 249.79 444 253.26 443.72 255.01 445.43 255.53 445.92 256.72 446.14 257.9 446.6 258.4 447.84 258.37 449.64 258.52 450.09 258.85 449.97 261.69 450.45 263.22 450.03 264.72 451.27 266.99 451.36 271.8 447.34 275.99 446.84 279.93 445.62 282.8 444.18 291.45 442.57 296.99 444.17 Z" id="LAO-3283" data-name="Vientiane [prefecture]"/>
<path d="M 280.33 336.52 281.7 339.03 285.35 340.54 287.01 341.52 287.02 341.54 288.33 341.83 291.59 345.14 294.59 346.56 297.11 348.37 298.77 348.79 300.41 348.43 302.45 348.21 311.47 350.21 313.67 351.08 316.85 354.04 320.52 354.64 324.42 354.85 334.88 356.81 336.22 356.44 337.28 355.93 340.96 355.76 343.86 354.53 346.19 354.96 348.49 355.1 350.64 356.74 353.24 356.76 354.01 354.45 355.67 353.72 357.45 353.45 360.72 353.92 363.47 355.88 365.86 358.47 368.45 360.61 371.72 360.86 376.35 362.48 383.13 362.15 387.34 364.32 390.62 365.59 394.53 365.37 397.93 366.38 400.53 368.73 401.38 375.57 400.5 382.63 397.22 383.86 394.07 385.38 391.77 387.21 388.89 387.9 386.06 386.86 383.53 385.13 380.52 383.51 377.85 381.43 374.81 379.98 371.61 379.01 367.31 374.97 363.82 375.19 358.18 377.01 358.19 379.68 358.76 382.75 360.08 385.61 361.29 385.85 361.74 386.67 360.58 387.36 358.97 387.44 357.91 389.94 358.33 393.32 359.22 396.63 359.71 400.14 359.72 404.59 358.55 408.39 356.13 410.7 353.33 412.9 345.96 416.98 337.64 418.92 324.91 419.52 315.97 421 295.29 419.78 288.32 421.27 292.1 429.14 294.33 431.56 296.8 433.66 298.04 438.93 296.99 444.17 291.45 442.57 282.8 444.18 279.93 445.62 275.99 446.84 271.8 447.34 266.99 451.36 264.72 451.27 263.22 450.03 261.69 450.45 258.85 449.97 258.52 450.09 258.37 449.64 258.4 447.84 257.9 446.6 256.72 446.14 255.53 445.92 255.01 445.43 253.26 443.72 249.79 444 248.35 443.19 247.02 442.65 243.94 443.08 240.91 442.54 236.59 440.91 232.07 439.69 228.56 437.36 227.4 433.84 225.62 431.44 223.46 429.42 220.17 429.3 216.92 429.97 214.85 432.08 212.47 433.23 209.62 431.77 207.01 431.11 206.23 433.33 207.88 435.7 207.82 438.52 205.76 446.98 205.98 452.35 206.57 453.3 207.02 454.31 207.5 454.82 207.53 454.84 191.58 471.21 189.42 471.87 185.35 469.63 181.22 468.55 180.23 467.37 179.57 467.37 177.83 468.95 176.97 470.87 176.04 475.36 173.47 482.29 173.1 484.39 163.31 486.22 161.59 487.29 160.66 489.31 159.53 490.48 157.12 489.03 157.12 490.64 156.86 492.02 156.38 493.17 155.69 494.07 153.74 494.77 153.72 494.75 153.53 494.58 152.83 494.06 152.83 493.4 154.72 490.2 155 489.41 154.34 488.3 152.89 488.46 151.38 489.19 150.61 489.8 149.89 489.8 149.38 488.22 148.46 487.88 145.9 488.36 144.33 488.06 143.61 487.28 143.13 486.21 140.89 482.63 141 479.91 141.66 476.97 141.9 473.83 141.25 466.27 140.82 464.97 138.85 461.65 138.31 460.22 138.74 455.91 140.59 452.48 145.51 447.13 146.44 445.53 146.96 444.15 147.94 443.18 150.25 442.81 152.1 442.22 153.9 440.82 155.43 439.14 156.44 437.7 156.69 436.7 156.78 435.51 157.15 434.52 158.75 433.9 161.08 432.37 162.27 430.72 164.19 426.87 165.79 425.46 166.95 426.06 168.27 426.16 169.62 425.91 170.84 425.46 173.19 423.62 173.42 423.3 174.52 422.17 176.77 417.17 178.4 415.14 181.7 409.56 182.18 407.56 182.64 403.14 183.14 400.92 186.3 394.63 187.09 391.47 185.96 387.96 181.52 383.35 180.92 381.74 181.18 379.78 182.26 375.87 182.36 373.43 182.16 371.25 181.88 370.27 181.31 369.47 180.91 368.56 181.09 367.44 181.49 366.24 181.67 364.41 184.67 362.13 186.89 360.58 187.84 359.47 188.82 358.63 191.95 358.07 197.12 353.49 200.25 347.23 201.32 342.87 202.47 341.41 204.54 340.77 205.99 339.72 207.11 338.26 208.81 336.99 210.34 335.61 211.89 329.14 215.09 327.31 218.9 326.68 221.69 326.51 224.36 327.15 225.8 328.71 227.47 330.04 231.04 329.32 234.29 331.45 237.76 329.66 240.79 328.63 242.32 329.78 244.11 330.85 247.11 331.09 250.14 330.85 249.56 332.67 248.74 334.36 250.95 335.26 253.09 335.79 254.4 337.92 255.31 340.31 258.7 343.41 262.39 346.02 270.11 342.47 275.89 340.81 280.33 336.52 Z" id="LAO-3284" data-name="Vientiane"/>
<path d="M 433.69 296 429.26 297.15 426.95 297.18 426.42 297.71 425.71 298.39 424.94 299.97 424.1 300.61 421.93 300.93 419.93 300.28 414.87 297.81 413.66 297.48 412.68 297.88 412.07 299.56 412.33 300.86 414.41 306.36 415.63 307.87 418.93 309.76 420.12 310.71 420.8 312.42 420.94 314.23 421.28 315.96 422.49 317.4 422.49 317.41 422.51 317.42 422.51 317.42 422.06 318.67 421.15 319.13 420.02 319.37 418.96 319.97 418.28 321.1 417.84 323.54 417.49 324.59 416.67 326.08 416.62 326.13 416.28 325.73 414.73 325.91 412.23 326.76 409.84 327.95 407.6 328.44 406.36 329.46 404.28 332.47 402.65 333.63 398.87 335.2 397.47 336.22 396.59 338.04 397.66 338.53 399.58 338.48 401.26 338.68 402.65 341.19 403.19 341.94 403.93 342.45 406.58 343.77 409.71 345.91 409.84 345.91 412.07 345.01 414.28 344.9 416.45 345.39 428.16 350.39 432.39 353.16 433.47 354.18 433.85 356.27 433.86 358.16 434.79 359.05 437.84 358.19 439.95 358.69 439.77 360.67 438.75 364.04 439.32 367.7 439.29 371.32 437.13 373.35 434.77 375.15 434.12 377.93 432.69 380.31 430.04 382.27 427.76 384.81 425.41 388.04 421.99 389.32 419.19 389.54 416.5 389.5 414.99 388.77 413.65 387.7 404.34 383.49 400.5 382.63 401.38 375.57 400.53 368.73 397.93 366.38 394.53 365.37 390.62 365.59 387.34 364.32 383.13 362.15 376.35 362.48 371.72 360.86 368.45 360.61 365.86 358.47 363.47 355.88 360.72 353.92 357.45 353.45 355.67 353.72 354.01 354.45 353.24 356.76 350.64 356.74 348.49 355.1 346.19 354.96 343.86 354.53 340.96 355.76 337.28 355.93 336.22 356.44 334.88 356.81 324.42 354.85 320.52 354.64 316.85 354.04 313.67 351.08 311.47 350.21 302.45 348.21 300.41 348.43 298.77 348.79 297.11 348.37 294.59 346.56 291.59 345.14 288.33 341.83 287.02 341.54 287.01 341.52 285.35 340.54 281.7 339.03 280.33 336.52 278.14 330.49 275.61 327.59 272.69 325.18 271.34 319.75 272.44 314.17 277.23 310.69 278.98 308.42 281.02 306.5 287.3 302.43 292.14 298.24 293.52 296.32 293.08 293.83 297.36 294.04 301.24 293.26 301.95 288.31 302.12 283.33 304.94 281.53 308.15 280.1 310.44 278.54 312.98 277.54 318.27 277.19 320.34 275.51 321.7 273.17 326.37 271.82 331.21 271.52 333.4 273.71 336.21 275.23 341.41 273.16 343.7 274.4 345.93 276.07 351.26 276.53 356.74 278.09 359.45 277.39 361.73 275.63 364.64 274.71 367.59 274.38 371.19 273.47 373.59 270.65 376.67 272.04 379.53 271.64 379.67 268.56 380.45 265.04 385.31 261.59 388.07 261.2 390.98 261.23 396.62 264.45 400.72 269.52 400.61 272.04 401.23 274.51 400.44 277.6 399.35 280.44 402.08 281.72 402.94 282.6 405.04 285.98 406.09 286.61 407.53 287.15 416.57 284.79 418.01 283.62 418.5 281.59 419.69 279.84 421.3 278.53 424.68 280.69 428.68 281 430.92 280.15 432.8 278.62 433.18 276.31 434.19 274.53 434.64 279.55 432.23 286.69 432.47 289.25 433.46 292.37 433.67 295.97 433.68 295.98 433.69 296 Z" id="LAO-3286" data-name="Xiangkhoang"/>
<path d="M 477.33 196.45 476.61 198.94 469.8 207.73 467.49 209.46 464.87 210.23 462.11 209.79 459.5 207.84 457.27 211.97 457.26 211.97 451.22 215.87 450.52 217.85 453.87 219.86 458.17 220.87 473.27 220.55 474.73 221.32 477.15 224.49 478.85 225.64 482.85 227.12 484.39 228.26 484.78 229.1 485.1 230.29 485.27 231.53 485.2 232.47 484.48 233.9 483.67 234.13 482.79 234.09 481.9 234.73 481.5 236.12 481.33 238.26 481.44 240.41 481.87 241.79 485.43 243.49 489.94 242.62 494.71 241.12 498.96 240.91 508.33 245.73 508.43 246.52 507.85 247.65 508 250.02 509.43 252.01 513.49 254.54 514.28 256.19 513.94 256.61 512.49 256.89 512.12 257.14 512.09 257.79 512.38 258.71 512.58 260.67 512.91 261.95 513.1 263.24 512.71 264.69 512.31 265.02 511.25 265.89 509.86 266.09 506.74 265.75 504.73 266.05 504.22 266.56 504.03 267.47 503.05 268.94 500.67 270.66 494.9 273.91 492.91 276.29 492.25 278.24 492.8 278.83 495.92 279.02 497.92 279.65 498.7 280.24 498.72 281.2 498.53 282.95 497.47 286.27 495.38 287.74 492.8 288.84 490.27 291.04 488.27 291.62 486.84 291.77 485.52 292.11 483.86 293.25 482.5 294.67 481.63 296.07 478.28 304.49 477.36 305.62 476.37 305.72 474.57 304.72 473.66 304.5 472.71 304.79 471.09 305.82 470.17 306.2 467.71 306.47 465.92 306.1 459.94 302.69 457.27 301.57 456.39 301.04 454.89 299.6 453.89 298.3 452.66 297.41 450.54 297.18 448.63 297.65 443.72 300.61 441.79 297.55 438.11 296.36 436.72 295.22 433.69 296 433.68 295.98 433.67 295.97 433.46 292.37 432.47 289.25 432.23 286.69 434.64 279.55 434.19 274.53 433.18 276.31 432.8 278.62 430.92 280.15 428.68 281 424.68 280.69 421.3 278.53 419.69 279.84 418.5 281.59 418.01 283.62 416.57 284.79 407.53 287.15 406.09 286.61 405.04 285.98 402.94 282.6 402.08 281.72 399.35 280.44 400.44 277.6 401.23 274.51 400.61 272.04 400.72 269.52 396.62 264.45 390.98 261.23 388.07 261.2 385.31 261.59 380.45 265.04 379.67 268.56 379.53 271.64 376.67 272.04 373.59 270.65 371.19 273.47 367.59 274.38 364.64 274.71 361.73 275.63 359.45 277.39 356.74 278.09 351.26 276.53 345.93 276.07 343.7 274.4 341.41 273.16 336.21 275.23 333.4 273.71 331.21 271.52 326.37 271.82 321.7 273.17 321.2 268.66 321.54 261.16 321.97 258.83 321.91 257.21 322.61 255.82 323.93 254.94 324.91 253.71 324.24 252.35 320.51 248.08 319.16 245.62 322.66 240.71 329.79 234.06 331.97 231.27 332.17 227.17 331.63 223.35 332.34 222.07 332.99 220.55 331.03 220.49 329.18 219.92 327.13 217.02 325.82 214.11 328.28 211.4 329.78 205.3 329.24 198.96 329.69 193.95 331.02 189.66 333.51 188.02 336.18 186.71 342.25 184.9 347.72 182.15 348.06 181.63 348.27 181.05 348.16 180.46 348.34 180.41 350.49 179.26 351.23 178.61 351.55 177.94 352.11 177.67 353.57 178.2 354.85 179.4 356.78 182.93 357.91 184.29 358.73 184.87 359.57 185.3 360.48 185.55 361.55 185.6 361.55 185.6 361.55 185.6 361.55 185.62 368.07 186.93 370.12 188.04 374.2 192.21 376.51 194.12 376.85 194.54 377.29 194.8 378.45 194.99 379.41 194.87 380.69 194.46 381.84 193.91 382.45 193.38 382.39 192.53 381.32 190.48 381.19 189.48 381.71 188.1 382.36 187.68 383.26 187.57 384.57 187.14 386.7 185.87 387.12 185.15 386.76 184.14 386.53 181.98 386.93 180.28 387.82 178.14 388.91 176.17 389.94 175.01 391.11 174.63 393.25 174.91 394.32 174.83 395.26 174.34 396.81 173.02 397.67 172.52 405.42 170.17 407.54 169.28 408.6 169.02 409.84 169.06 413.69 168.46 418.56 163.11 422.31 162.85 423.04 163.23 424.63 164.35 425.51 164.76 426.51 164.91 428.9 164.96 430.02 165.12 433.02 166.16 433.8 166.63 434.42 167.45 435.52 169.62 435.89 170.15 436.63 170.12 439 169.49 440 169.42 440.95 169.71 441.99 170.2 442.94 170.81 443.72 171.44 444.97 173.04 446.66 176.28 448.05 177.85 448.93 178.41 450.58 179 451.38 179.53 451.95 180.3 452.83 182.14 453.61 182.91 455.74 183.52 458.15 183.46 460.31 183.69 461.74 185.17 462.74 188.48 464.49 190.18 469.93 192.64 475.93 194.56 477.45 196.04 477.33 196.45 Z" id="LAO-3288" data-name="Houaphan"/>
<path d="M 330.94 177.07 332.24 176.7 333.18 176.61 334.9 177.07 340.85 180.08 343.79 181.01 344.91 181.15 345.49 181.16 348.16 180.46 348.27 181.05 348.06 181.63 347.72 182.15 342.25 184.9 336.18 186.71 333.51 188.02 331.02 189.66 329.69 193.95 329.24 198.96 329.78 205.3 328.28 211.4 325.82 214.11 327.13 217.02 329.18 219.92 331.03 220.49 332.99 220.55 332.34 222.07 331.63 223.35 332.17 227.17 331.97 231.27 329.79 234.06 322.66 240.71 319.16 245.62 320.51 248.08 324.24 252.35 324.91 253.71 323.93 254.94 322.61 255.82 321.91 257.21 321.97 258.83 321.54 261.16 321.2 268.66 321.7 273.17 320.34 275.51 318.27 277.19 312.98 277.54 310.44 278.54 308.15 280.1 304.94 281.53 302.12 283.33 301.95 288.31 301.24 293.26 297.36 294.04 293.08 293.83 293.52 296.32 292.14 298.24 287.3 302.43 281.02 306.5 278.98 308.42 277.23 310.69 272.44 314.17 271.34 319.75 272.69 325.18 275.61 327.59 278.14 330.49 280.33 336.52 275.89 340.81 270.11 342.47 262.39 346.02 258.7 343.41 255.31 340.31 254.4 337.92 253.09 335.79 250.95 335.26 248.74 334.36 249.56 332.67 250.14 330.85 247.11 331.09 244.11 330.85 242.32 329.78 240.79 328.63 237.76 329.66 234.29 331.45 231.04 329.32 227.47 330.04 225.8 328.71 224.36 327.15 221.69 326.51 218.9 326.68 215.09 327.31 211.89 329.14 210.34 335.61 208.81 336.99 207.11 338.26 205.99 339.72 204.54 340.77 202.47 341.41 201.32 342.87 200.25 347.23 197.12 353.49 191.95 358.07 188.82 358.63 187.84 359.47 186.89 360.58 184.67 362.13 181.67 364.41 182.72 354.15 183.61 350.61 183.8 348.49 183.11 342.24 183.14 340.24 183.78 338.85 186.21 335.36 186.74 333.3 187.56 331.68 191.07 328.19 191.79 327.15 190.74 325.98 186.59 324.2 184.94 323.19 183.66 321.79 182.78 320.41 182.34 318.9 182.16 304.82 183.14 301.17 182.15 300.42 179.15 300.69 176.15 300.56 174.97 297.88 174.88 291.5 175.87 289.56 177.74 284.72 177.6 279.69 176.44 277.69 174.74 276.17 173.19 274.31 170.84 271.52 175.1 270.43 183.68 269.7 187.46 268.7 190.98 266.4 196.42 260.62 198.98 258.56 200.85 257.94 206.64 258.56 208.37 258.09 214.24 254.89 217.72 254.55 219.43 251.32 222.24 248.89 222.99 245.29 221.5 241.87 218.31 237.95 218.53 233.44 219.98 230.56 219.68 227.62 217.86 226.05 216.44 224.2 216.77 221.04 221.39 211.55 223.44 205.87 226.15 200.29 226.52 197.8 233.7 196.8 237.38 193.07 238.97 188.14 239.12 186.09 238.38 184.27 237.47 182.9 237.61 181.5 237.09 178.97 238.78 174.77 238.72 172.53 237.8 169.83 234.41 165.62 234.3 162.72 238.18 164.49 241.55 166.5 244.71 166.64 247.77 167.16 249.08 168.4 249.53 170.46 255.34 172.57 261.41 165.7 263.7 164.3 266.34 163.69 269.9 164.22 271.59 161.01 273.09 160.17 280.16 157.44 280.25 156.84 280.69 156.01 281.63 155.72 284.67 155.43 285.63 153.75 285.66 150.96 286.44 145.96 287.51 144.04 289.08 144.03 290.8 144.54 299.28 143.93 299.31 143.93 300.3 147.97 301.03 149.81 301.52 150.76 302.02 151.49 302.85 151.83 304.39 151.63 307.04 152.71 308.66 154.49 311.04 159.24 314.32 166.01 316.27 169.1 319.28 172.64 320.84 174.06 321.51 174.53 322.62 175 324.53 175.25 325.6 175.51 326.49 175.94 327.91 176.92 328.94 177.26 330.18 177.29 330.94 177.07 Z" id="LAO-3289" data-name="Louangphrabang"/>
<path d="M 234.3 162.72 234.41 165.62 237.8 169.83 238.72 172.53 238.78 174.77 237.09 178.97 237.61 181.5 237.47 182.9 238.38 184.27 239.12 186.09 238.97 188.14 237.38 193.07 233.7 196.8 226.52 197.8 226.15 200.29 223.44 205.87 221.39 211.55 216.77 221.04 216.44 224.2 217.86 226.05 219.68 227.62 219.98 230.56 218.53 233.44 218.31 237.95 221.5 241.87 222.99 245.29 222.24 248.89 219.43 251.32 217.72 254.55 214.24 254.89 208.37 258.09 206.64 258.56 200.85 257.94 198.98 258.56 196.42 260.62 190.98 266.4 187.46 268.7 183.68 269.7 175.1 270.43 170.84 271.52 169.6 272.41 166.5 275.29 165.43 275.9 163.83 276.38 161.54 277.46 160.21 278.65 161.48 279.44 159.17 282.01 155.21 282.83 123.42 283.06 120.96 282.38 114.1 278.04 112.08 277.06 111.19 276.47 110.07 275.96 108.73 275.9 107.74 276.28 105.12 278.06 102.5 280.48 100.78 281 99.36 279.44 98.58 279.44 98.28 280.02 97.6 280.98 97.21 281.72 93.53 279.03 88.63 277.59 75.75 275.6 74.3 275.71 72.97 276.36 71.24 277.86 69.13 273.09 68.98 268.75 77.53 265.81 87.17 265.49 89.52 264.51 91.76 263.28 94.28 260.89 96.42 258.24 97.46 254.52 100.78 252.46 104.91 251.75 111.1 256 114.68 256.43 118 254.8 120.39 252.51 121.95 249.88 122.23 238.12 122 236.45 120.96 234.12 120.32 231.71 120.2 230.6 125.38 230.93 135.96 230.3 144.22 226.71 147.7 220.5 149.55 218.07 151.59 216.25 153.19 214.06 156.15 205.73 155.34 197.44 154.46 195.83 150.61 192.96 149.5 190.33 139.3 187.05 143.08 185.19 146.89 178.17 151.68 174.09 155.75 173.17 157.4 172.42 161.97 172.45 162.53 170.83 161.27 169.26 161.6 165.22 165.13 162.31 169.19 160.35 173.29 158.9 175.59 155.64 177.24 151.87 178.49 143.83 177.25 141.84 177.44 140.79 176.74 139.29 176.37 138.1 177.79 136.89 180.16 137.36 181.13 137.2 181.98 136.66 182.61 135.99 182.85 135.45 184.78 136.41 189.6 139.88 191.45 140.42 193.09 141.39 194.25 142.56 202.46 144.66 205.72 146.28 210.65 152.44 213.64 155.14 217.25 157.16 220.84 157.44 224.42 156.5 228.05 157.78 231.69 159.92 234.3 162.72 Z" id="LAO-3290" data-name="Oudômxai"/>
<path d="M 214.18 11.39 214.9 12.85 215.52 13.9 216.58 17.23 216.88 17.6 217.79 18.25 218.13 18.71 218.13 19.28 217.79 20.53 217.95 21.18 219.48 22.77 221.31 23.95 222.82 25.32 223.5 27.43 225.53 29.22 231.88 32.21 239.43 39.1 242.74 40.96 243.73 41.83 244.42 42.94 245.46 45.56 246.19 46.75 248.35 48.31 250.98 49.72 252.59 51.05 251.67 52.37 251.37 52.68 251.14 53.01 250.95 53.39 250.85 53.8 252.08 57.78 256.07 59.72 260.75 61.17 264 63.71 267.59 71.38 268.59 75.69 268.08 81.88 268.31 84.28 268.83 86.67 269.51 88.32 270.29 89.4 270.58 89.55 271 89.33 276.57 89.24 277.72 88.99 280.99 86.96 283.36 84.12 284.63 80.74 284.89 72.26 286.74 70.6 288.83 72.15 289.72 76.97 289.4 81.17 289.74 83.21 291.01 84.48 292.84 84.35 300.48 81.25 301.08 80.83 301.62 81.03 302.49 82.42 302.9 83.57 303.09 84.79 302.99 92.03 303.34 94.58 304.39 96.89 304.48 97.19 304.52 97.49 304.48 97.79 304.39 98.09 302.29 100 298.33 104.61 296.05 106.53 291.27 113.9 292.86 113.19 294.97 111.94 297.02 111.03 298.48 111.3 298.35 112.51 294.87 117.81 294.43 119.97 294.35 124.79 293.96 126.57 292.68 127.78 289.11 128.62 287.38 129.88 286.17 131.89 287 132.34 289.01 132.14 291.33 132.22 292.9 132.8 294.27 133.71 295.3 134.83 295.84 136.08 295.71 137.04 294.79 139.14 294.79 140.16 295.43 141.22 296.15 141.41 297.02 141.45 298.1 142.06 299.28 143.83 299.31 143.93 299.28 143.93 290.8 144.54 289.08 144.03 287.51 144.04 286.44 145.96 285.66 150.96 285.63 153.75 284.67 155.43 281.63 155.72 280.69 156.01 280.25 156.84 280.16 157.44 273.09 160.17 271.59 161.01 269.9 164.22 266.34 163.69 263.7 164.3 261.41 165.7 255.34 172.57 249.53 170.46 249.08 168.4 247.77 167.16 244.71 166.64 241.55 166.5 238.18 164.49 234.3 162.72 231.69 159.92 228.05 157.78 224.42 156.5 220.84 157.44 217.25 157.16 213.64 155.14 210.65 152.44 205.72 146.28 202.46 144.66 194.25 142.56 193.09 141.39 191.45 140.42 189.6 139.88 184.78 136.41 182.85 135.45 182.99 135.13 183.08 134.04 182.71 132.69 181.87 131.54 180.7 130.6 179.37 129.85 173.88 127.94 172.41 126.68 171.63 124.9 171.68 123.1 172.73 119.18 173.17 108.75 174.7 106.5 175.12 104.51 173.7 100.3 173.85 98.56 175.41 97.64 177.7 97.34 179.9 96.73 181.23 94.86 180.99 92.76 179.48 91.9 177.5 91.4 175.93 90.36 175.55 89.25 175.9 87.05 175.81 86.02 175.21 85.15 173.49 83.74 173.05 83.1 172.99 81.5 173.37 79.62 175.47 73.73 175.42 72.7 172.79 70.47 172.28 69.72 170.95 67.06 168.54 64 168.25 63.1 168.18 62.29 167.99 61.47 167.26 60.55 163.51 59.54 161.21 58.2 160.21 56.73 159.53 52.52 158.66 50.35 155.79 45.98 154.79 43.78 154.75 41.46 155.47 39.59 156.01 37.56 155.43 34.74 154.11 32.9 150.87 29.24 150.6 27.44 152.29 25.53 153.23 24.68 154.32 24.13 155.66 24.12 156.93 24.51 158.22 24.69 159.62 24.1 160.14 23.27 161.59 18.89 161.86 17.21 161.99 16.75 163.82 15 164.1 14.85 164.31 12.76 164.15 10.71 164.24 8.57 165.24 6.26 166.73 4.56 168.89 2.81 171.42 1.47 174.44 1 175.37 1 175.84 1.05 178.99 3.51 182.46 10.46 185.07 12.89 187.74 13.36 188.73 11.99 189.18 9.84 190.24 8 192.11 7.34 196.7 7.24 198.95 6.37 201.14 6.13 203.21 6.27 209.68 7.71 210.69 8.06 211.73 8.69 212.21 9.56 212.28 10.52 212.99 11.39 214.18 11.39 Z" id="LAO-3291" data-name="Phôngsali"/>
<path d="M 535.9 409.92 535.9 410.29 535.13 412.04 534.07 412.19 532.83 411.8 531.54 411.97 530.01 413.87 528.63 417 527.02 422.84 526.47 427.21 527.61 430.15 530.05 432.4 533.37 434.72 535.21 436.53 535.14 437.81 534.48 439.2 534.55 441.4 535.56 442.77 540.68 445.82 541.28 446.57 542.21 448.2 542.91 448.82 544.02 449.14 545.13 449.03 543.45 456.61 538.3 463.34 534.78 469.4 531.98 476.06 527.98 480.36 522.22 481.37 510.43 479.67 507.95 477.57 504.46 475.33 500.24 474.72 499.5 470.89 496.21 467.12 485.81 461.52 477.56 455.49 473.57 453.87 470.55 450.92 468.31 452.19 467.42 452.46 466.54 452.81 466.52 454.07 462.42 455.12 458.23 455.63 454.96 460.94 453.01 467.3 451.69 470.24 450.83 473.3 444.02 484.3 442.31 489.73 441.92 489.4 441.08 488.41 440.45 487.29 439.48 484.09 434.82 474.22 434.02 473.16 433.47 472.43 426.89 466.72 425.48 465.08 424.28 463.05 419.79 452.41 414.54 443.58 412.58 441.54 409.99 440.26 407.44 440.01 405.12 440.58 403.09 441.87 401.37 443.78 400.93 444.42 400.55 444.86 400.06 445.13 399.29 445.26 397.58 444.91 396.65 443.87 395.94 442.53 394.87 441.31 393.31 440.29 391.64 439.45 389.86 438.86 388.03 438.57 381.9 438.25 380.47 437.88 374.47 435.27 373.55 434.71 372.65 433.92 371.15 432.9 365 431.32 362.3 431.08 359.61 430.44 358.7 430.37 357.19 430.61 356.68 430.63 354.74 430.27 348.97 428.58 347.9 428.57 339.48 430.24 336.92 431.3 334.62 432.92 332.86 435.05 331.8 437.61 331.77 438.29 331.94 438.72 332.22 439.11 332.45 439.69 333.35 440.05 337.75 442.95 338.39 443.82 338.37 444 338.27 444.78 337.32 445.56 335.97 446.01 332.09 446.65 329.79 447.47 326.66 447.94 325.76 448.25 324.86 448.79 323.71 450.13 323.04 451.77 322.43 455.3 321.74 457.54 320.48 459.11 318.73 460.17 316.52 460.91 316.55 460.87 316.62 460.77 316.68 460.69 316.91 460.24 316.84 460.27 316.37 460.5 316.35 460.51 316.27 460.39 314.32 457.42 313.1 457.88 312.12 459.94 310.87 461.82 309.7 462.43 308.59 462.47 307.64 461.9 306.93 460.72 306.79 459.56 307.18 458.79 307.7 458.15 307.96 457.42 308.19 456.37 308.51 455.42 308.29 454.68 308.21 452.65 307.5 450.86 306.65 448.66 302.32 445.9 296.99 444.17 298.04 438.93 296.8 433.66 294.33 431.56 292.1 429.14 288.32 421.27 295.29 419.78 315.97 421 324.91 419.52 337.64 418.92 345.96 416.98 353.33 412.9 356.13 410.7 358.55 408.39 359.72 404.59 359.71 400.14 359.22 396.63 358.33 393.32 357.91 389.94 358.97 387.44 360.58 387.36 361.74 386.67 361.29 385.85 360.08 385.61 358.76 382.75 358.19 379.68 358.18 377.01 363.82 375.19 367.31 374.97 371.61 379.01 374.81 379.98 377.85 381.43 380.52 383.51 383.53 385.13 386.06 386.86 388.89 387.9 391.77 387.21 394.07 385.38 397.22 383.86 400.5 382.63 404.34 383.49 413.65 387.7 414.99 388.77 416.5 389.5 419.19 389.54 421.99 389.32 425.41 388.04 427.76 384.81 430.04 382.27 432.69 380.31 434.12 377.93 434.77 375.15 437.13 373.35 439.29 371.32 439.32 367.7 438.75 364.04 439.77 360.67 439.95 358.69 439.99 358.7 441.51 359.82 442.87 361.18 444.52 362.43 446.53 363.3 448.34 363.85 450.03 364.62 451.81 366.13 454.84 370.49 456.16 371.45 458.04 371.85 461.31 371.53 463.3 372.02 465.06 373.05 466.35 374.27 469.98 379.5 471.22 380.59 474.76 382.42 476.27 383.52 479.14 386.29 480.72 387.33 481.79 387.63 483.83 387.79 484.88 388.15 485.43 388.73 486.66 390.5 487.48 391.17 488.71 391.61 493.03 392.19 497.12 393.38 498.56 393.54 504.63 393.08 507.42 393.86 508.46 396.49 509.57 397.56 511.41 398.02 513.49 397.97 515.27 397.5 516.99 397.83 522.29 400.78 524.84 401.66 526.15 401.57 527.38 401.25 528.61 401.09 529.92 401.48 532.91 406.26 535.21 407.74 535.9 408.63 535.9 409.92 Z" id="LAO-3292" data-name="Bolikhamxai"/>
<path d="M 581.67 478.37 581.94 478.91 580.69 486.92 581.85 490.49 585.94 494.1 588.67 499.06 591.01 502.11 591.98 503.85 593.31 507.87 594.28 509.56 595.57 510.55 601.07 512.87 604.49 515.03 607.25 517.52 614.12 526.08 616.33 528.3 616.35 528.3 625.52 538.98 643.04 553.44 645.35 554.61 646.88 554.75 648.1 554.01 649.63 552.5 650.1 551.63 650.35 550.72 650.9 550.08 652.23 550.01 653.49 550.55 653.72 551.41 653.61 552.53 653.85 553.82 654.4 554.54 655.86 556.01 656.23 556.63 656.15 557.6 655.3 559.28 655.21 560.38 655.79 561.96 658.98 567.02 664.05 571.58 665.13 573.41 665.07 574.02 664.39 575.13 664.31 575.6 666.09 579.04 666.07 579.04 659.49 579.59 653.52 577.64 650.33 577.18 647.41 575.96 642.6 571.2 639.76 569.65 636.8 569.25 636.24 570.86 635.85 572.5 634.68 573.52 633.39 574.38 622.77 575.85 611.71 575.18 603.28 572.58 594.87 569.03 590.9 568.22 587.06 568.92 586.42 573.29 584.88 576.01 580.64 575.02 569.11 569.99 562.62 570.63 557.29 570.35 554.38 573.3 550.43 575 547.78 574.08 546.5 574.38 545.26 574.86 542.1 574.71 539.59 572.96 537.83 570.43 535.41 568.83 532.87 569.89 530.4 571.59 527.17 572.7 523.63 572.26 521.28 570.14 515.82 571.43 512.82 570.26 510.59 571.34 508.91 573.05 506.34 572.48 503.63 571.53 501.19 572.5 500.84 575.48 498.62 576.96 496.45 579.36 496.33 581.25 498.41 579.85 500.23 581.6 501.77 587.72 500.34 590.36 494.46 589.65 491.28 586.53 490.65 580.31 491.18 577.96 497.99 562.48 498.47 560.12 498.88 555.24 498.67 548.93 499.05 543.78 498.98 542.5 498.67 541.27 496.17 535.92 495.77 535.34 495.01 534.68 493.21 533.71 492.39 533.13 491.63 532.26 490.01 529.23 487.93 526.24 486.67 524.97 481.66 521.94 479.69 521.27 463.32 513.04 460.24 510.35 457.11 506.78 456.64 505.96 455.99 503.87 455.7 503.21 455.27 502.55 453.74 500.73 451.36 496.16 449.76 494.18 442.9 490.23 442.31 489.73 444.02 484.3 450.83 473.3 451.69 470.24 453.01 467.3 454.96 460.94 458.23 455.63 462.42 455.12 466.52 454.07 466.54 452.81 467.42 452.46 468.31 452.19 470.55 450.92 473.57 453.87 477.56 455.49 485.81 461.52 496.21 467.12 499.5 470.89 500.24 474.72 504.46 475.33 507.95 477.57 510.43 479.67 522.22 481.37 527.98 480.36 531.98 476.06 534.78 469.4 538.3 463.34 543.45 456.61 545.13 449.03 547.89 448.74 548.41 448.4 548.88 448.47 549.59 449.6 549.76 450.77 549.08 453.3 549.15 454.5 550.26 456.03 551.98 457.19 553.9 457.97 555.57 458.39 556.35 458.76 556.58 459.2 556.87 459.31 557.84 458.71 558.27 457.96 558.75 455.62 559.37 454.64 561.27 453.84 563.52 453.98 565.64 454.8 567.25 456.04 567.89 456.99 568.74 459.85 568.78 460.5 568.56 461.05 568.32 461.45 568.23 461.7 568.72 462.09 569.91 462.36 570.35 462.67 572.08 466.39 572.94 467.12 574.78 468.09 575.66 468.91 576.23 470.07 576.62 472.47 577.02 473.51 577.73 474.25 580.23 475.57 580.23 475.59 581.67 478.37 Z" id="LAO-3293" data-name="Khammouan"/>
<path d="M 781.92 786.84 778.9 787.72 776.93 787.89 775.93 788.81 775.83 790.24 776.54 791.92 776.38 793.48 776.81 794.87 777.65 796.04 778.9 796.95 780.56 797.78 786.9 802.53 787.8 803.43 787.5 804.54 785.95 806.58 781.55 810.72 780.71 812.13 781.07 813.76 782.12 815.41 782.65 816.94 781.46 818.28 782.13 819.3 783.21 820.15 784.01 821.15 783.82 822.64 782.4 823.81 778.9 828.79 777.26 829.58 776.58 830.27 775.74 832.66 775.39 833.26 774.63 834.27 774.32 835.12 774.26 835.95 774.38 836.84 774.38 837.74 774.06 838.55 772.7 839.63 771.49 839.59 769.03 838.51 767.05 838.11 766.01 837.72 764.03 835.96 761.18 833.96 759.24 833.82 757.64 835.21 755.78 837.78 755.25 838.24 754.03 838.96 753.61 839.48 753.45 840.17 753.22 842.29 752.11 844.43 751.21 844.9 749.61 844.64 749.59 844.64 749.57 844.63 749.56 844.62 747.98 844.62 747.13 845.87 746.53 847.68 745.68 849.33 742.8 851.85 739.57 853.96 737.22 854.68 736.1 854.11 735.2 852.86 733.47 851.52 732.14 850.95 731.81 851.04 731.74 851.57 728.66 855.27 726.61 858.4 726.16 858.66 724.84 858.94 723.68 861.63 723.64 862.28 723.26 862.82 721.94 863.18 720.87 862.99 718.9 861.79 717.94 861.48 716.82 861.56 716.21 861.86 715.72 862.31 711.63 864.56 710.05 864.51 708.58 863.94 707.11 862.92 704.34 860.21 700.64 855.11 699.82 853.54 699.33 852.87 698.52 852.03 698.06 851.67 690.39 849.39 689.08 848.69 687.32 847.73 685.25 844.64 684.16 844 681.74 843.48 680.83 842.94 680.46 841.93 679.9 838.6 679.48 837.26 678.16 835.25 677.53 834.69 675.27 836.73 674.5 837.1 673.8 837.16 673.29 837.46 673.11 838.49 673.15 839.51 673.38 840.26 673.84 840.78 674.62 841.05 674.62 841.7 672.99 841.61 671.65 841.27 670.5 841.15 669.51 841.7 669.29 842.15 669.11 842.9 669.21 843.61 670.43 844.27 669.97 844.99 669.2 845.62 668.78 845.69 667.69 847.75 665.01 848.84 659.34 849.59 659.35 849.57 660.57 846.84 659.91 845.59 659.9 844.2 659.45 841.25 657.56 838.58 655.37 836.8 653.47 834.88 651.26 826.42 648.66 824.39 645.68 822.75 643.58 820.37 642.04 817.49 641.76 809.74 646.15 803.16 650.99 798.41 655.52 795.02 657.03 792.29 659.56 790.89 662.65 790.89 665.28 792.21 666.55 795.11 669.03 796.37 671.42 794.42 674.27 793.37 676.44 795.47 676.07 798.71 674.89 801.41 674.77 802.92 675.08 804.21 674.56 807.03 674.65 809.77 676.78 812.33 679.57 814 682.53 814.21 687.9 815.93 690.03 814.5 693.2 814.63 696.39 814.04 697.98 811.53 698.16 808.6 700.14 806.33 702.02 804.85 703.17 803.51 707.54 802.31 709.88 802.6 708.22 798.36 710.2 795.16 710.18 789.8 709.12 784.52 707.86 782.88 706.41 781.73 705.28 779.82 703.77 778.4 699.45 779.38 697.13 778.92 695.27 777.68 695.51 777.32 695.61 776.91 697.92 775.95 699.23 773.5 700.29 772.3 701.18 771.02 701.41 769.61 701.84 768.19 704.09 766.26 706.87 764.63 710.29 764.24 713.72 764.84 716.44 766.69 719.48 767.43 723.15 767.33 726.59 765.94 728.85 765.38 731.21 765.27 734.16 765.94 736.73 764.65 739.21 762.87 746.72 762.35 754.04 764.74 756.05 766.76 757.9 769.25 759.79 771.29 762.26 772.76 765.5 774.03 768.78 774.81 771.03 773.62 772.92 771.65 777.52 772.35 780.45 778.09 782.75 780.02 783.73 782.55 782.04 785.5 781.92 786.82 781.92 786.84 Z" id="LAO-3294" data-name="Attapu"/>
<path d="M 774.63 680.18 774.51 681.99 775 683.2 775.71 684.04 775.84 684.98 774.57 686.46 773.02 687.77 770.13 692.8 768.54 694.57 767.02 695.28 763 695.96 761.11 696.67 753.79 701.27 752.9 701.5 751.94 701.35 750.96 700.89 749.88 700.58 748.58 700.86 747.42 702 744.78 707.73 744.63 709.92 745.84 711.48 751.64 714.77 752.74 715.9 753.2 717.42 753.68 721.79 754.16 723.46 755.17 724.94 756.93 726.25 760.95 728.24 762.31 729.4 767.89 739.18 769.19 739.97 769.93 739.55 770.59 738.6 771.65 737.85 772.41 737.83 774.51 738.35 775.13 738.17 775.65 737.79 776.17 737.9 776.75 739.19 776.75 739.19 777.08 739.99 777.53 740.41 778.14 740.41 778.9 740 780.35 740.72 780.63 742.82 780.58 745.31 781.03 747.19 783 748.31 787.53 747.64 789.38 748.12 789.72 748.98 789.86 749.34 790.09 753.39 790.8 755.28 792.05 756.62 796.75 760.08 798.29 761.7 798.97 763.17 799 764.79 798.2 769.8 797.9 770.44 797.22 770.64 796.71 770.14 796.08 769.86 795.09 770.76 794.7 771.74 794.46 775.19 793.88 777.2 792.78 778.77 792.13 779.38 790.63 780.49 790.16 781.28 790.19 782.32 791.16 784.22 791.06 785.35 789.89 786.5 788.27 786.66 785.38 786.17 783.67 786.34 781.92 786.84 781.92 786.82 782.04 785.5 783.73 782.55 782.75 780.02 780.45 778.09 777.52 772.35 772.92 771.65 771.03 773.62 768.78 774.81 765.5 774.03 762.26 772.76 759.79 771.29 757.9 769.25 756.05 766.76 754.04 764.74 746.72 762.35 739.21 762.87 736.73 764.65 734.16 765.94 731.21 765.27 728.85 765.38 726.59 765.94 723.15 767.33 719.48 767.43 716.44 766.69 713.72 764.84 710.29 764.24 706.87 764.63 704.09 766.26 701.84 768.19 701.41 769.61 701.18 771.02 700.29 772.3 699.23 773.5 697.92 775.95 695.61 776.91 694.92 777.07 694.32 776.99 693.74 768.04 682.75 759.58 680.43 758.83 676.72 758.68 673.15 757.2 668.27 751.26 662.87 749.31 656.87 747.19 655.13 742.16 656.3 741.29 657.49 740.96 658.05 738.33 660.52 737.39 663.31 737.75 665.93 739.04 668.9 739.62 671.1 738.12 672.22 735.52 675.8 734.94 679.7 735.61 685.96 735.54 689.69 733.21 695.1 734 696.31 732.54 696.06 730.14 695.8 728.8 695.78 727.44 696.51 726.3 697.11 725.69 696.34 722.35 694.5 719.53 695.66 717.28 697.24 715.99 695.15 713.84 692.55 712.11 692.24 709.65 694.53 707.85 697.31 702.13 701 696.91 705.9 691.86 707.22 690.98 708.31 690.04 707.88 688.37 707.11 686.82 707.97 683.6 709.7 680.84 712.31 681.05 714.66 682.29 718.27 682.91 722.05 683.02 723.43 682.2 724.36 681.18 727.28 681.94 729.89 680.75 732.39 678.99 736.22 677.85 737.01 676.03 737.57 673.98 739.52 671.6 741.65 669.55 743.2 666.81 743.27 666.57 743.28 666.55 743.92 667.37 745.22 668.52 746.83 669.49 748.26 669.87 749.73 670.11 751.38 670.57 754.12 672.34 758.04 677.17 760.47 679.26 763.41 680.12 766.47 679.78 772.34 678.33 774.4 678.26 774.88 678.77 774.65 679.98 774.63 680.18 Z" id="LAO-3295" data-name="Xékong"/>
</g>
</svg>