<?xml version="1.0"?>
<svg xmlns="http://www.w3.org/2000/svg" version="1.2" baseProfile="tiny" width="800" height="352" viewBox="0 0 800 352" stroke-linecap="round" stroke-linejoin="round">
<g id="ne_10m_admin_1_states_provinces">
<path d="M 47.3 264.83 47.6 265.54 49.22 268.54 49.31 269.26 51.01 272.18 51.76 272.93 53.61 273.6 56.57 272.66 57.81 273.03 58.73 277.11 54.16 280.46 42.84 285.66 33.81 293 28.07 295.05 22.06 293.19 14 293.41 5.97 294.73 1.71 296.49 4.07 292.66 5.42 290.87 5.97 289.36 2.85 286.63 1 284.21 1.66 282.08 5.97 280.18 16.57 276.58 16.87 276.51 17.16 276.5 17.49 276.51 18.88 276.83 19.94 276.92 20.96 276.83 24.86 275.99 25.62 274.81 25.46 273.18 25.55 271.27 26.81 266.26 27.4 264.88 29.97 260.89 31.7 261.88 39.8 266.51 47.3 264.83 Z" id="CHE-159" data-name="Genève"/>
<path d="M 211.01 56.45 213.04 56.67 217.85 56.34 214.63 61.36 215.63 64.25 219.47 65.81 224.66 66.92 225.39 67.31 225.89 67.95 226.6 68.59 227.97 68.98 229.16 68.82 235.85 66.84 240.53 66.18 245.45 66.32 245.89 66.83 246.44 67.13 253.82 69.64 258.59 72.26 259.83 73.61 260.1 75.02 260.7 75.4 261.26 75.61 263.18 75.62 271.77 77.11 275.2 77.35 276.49 77.29 277.94 77.63 279.42 78.37 281.08 80.24 283.93 81.85 281.05 83.68 280.63 84.85 280.77 85.42 281.4 85.7 284.72 85.99 284.26 86.43 273.69 88.47 254.34 87.41 252.61 86.92 252.26 86.27 251.63 85.4 251.13 85.27 250.71 85.58 250.36 86.35 249.7 86.97 248.71 87.62 247.29 88.04 246.46 88.44 245.72 88.95 244.35 89.7 242.32 90.57 237.79 91.68 235.07 92.07 231.7 92.21 216.79 90.15 216.36 91.96 216.66 92.73 216.33 93.4 215.62 93.92 213.83 94.81 213.5 95.35 213.42 95.75 213.45 96.32 213.78 97.58 214.13 98.31 213.23 98.93 204.53 100.04 199.01 99.69 197.86 99.84 197.14 100.32 196.81 101.32 196.65 101.61 196.38 102.03 195.09 103.34 194.24 104.49 192.98 105.67 191.1 106.95 188.28 107.96 186.63 108.77 184.71 110.09 182.88 110.35 178.86 110.24 176.81 111.02 170.46 114.36 168.49 115.16 167.12 115.41 166.38 115.14 165.78 114.66 164.16 113.76 159.29 113.5 157.22 112.96 157.61 112.72 160.98 108.93 166.11 105.33 178.12 99.33 177.41 94.94 178.54 91.31 181.87 88.98 183.48 88.84 184.43 88.59 187.01 86.22 188.85 85.48 190.66 85.14 192.33 84.42 193.7 82.48 191.85 80.68 189.2 79.05 186.57 77.59 183.31 78.65 162.27 80.06 163.15 77.8 165.35 75.03 167.96 72.71 172.51 70.89 172.79 67.56 175.1 67.21 177.43 66.85 180.3 65.73 182.93 64.21 184.27 62.72 183.41 60.61 181.58 58.17 181.14 56.2 184.43 55.52 186 54.68 187.59 54.4 189.2 54.68 190.81 55.52 195.4 55.97 204.21 54.93 208.38 55.52 210.68 56.42 211.01 56.45 211.01 56.45 Z" id="CHE-160" data-name="Jura"/>
<path d="M 159.29 113.5 162.95 114.86 164.95 116.68 166.02 118.25 166.43 119.18 166.63 119.9 166.43 121.06 165.72 123.31 165.56 123.58 165.36 123.82 164.68 124.29 164.49 124.46 164.08 125.72 164.16 126.83 164.6 126.82 191.55 121.1 192.78 120.88 192.89 123.31 195.33 123.75 200.46 125.72 201.84 126.54 202.53 127.31 202.5 127.61 202.25 127.8 201.81 128 201.54 128.14 201.35 128.34 201.4 128.62 201.54 128.92 201.7 129.21 201.87 129.67 202.17 131.05 202.2 131.51 202.2 132 202.12 132.31 201.98 132.7 201.7 133.04 201.17 133.24 200.54 133.42 200.05 133.64 198.9 134.34 198.21 134.65 194.26 135.8 193.61 136.35 193.06 137.16 192.1 140.09 191.27 141.34 189.59 144.53 176.29 152.04 169.48 155.89 163.77 159.12 144.48 170.07 141.54 165.61 141.23 164.89 140.91 163.75 141.02 162.06 140.88 161.07 140.36 160.16 138.9 159.36 137.94 158.45 137.48 157.38 137.89 155.68 137.31 153.5 126.88 157.81 122.2 160.52 119.47 161.74 114.13 162.99 105.51 166.13 103.07 167.45 101.27 168.08 99.74 168.27 90.63 168.58 87.37 168.97 88.01 167.87 88.3 165.42 87.74 163.46 85.38 160.38 84.65 158.78 87.28 152.58 95.85 149.18 114.88 145.08 126.68 138.94 130.72 134.95 128.6 131.66 130.98 128.85 132.64 127.73 137.08 126.65 137.74 125.52 138.4 125.21 140.94 124.32 140.72 121.29 146.02 120.03 157.22 112.96 159.29 113.5 Z" id="CHE-161" data-name="Neuchâtel"/>
<path d="M 437.21 39.92 436.9 41 432.84 45.45 429.02 48.07 426.06 51.29 425.19 54.64 425.1 56.45 426.04 58.91 429.94 64.55 431.25 67.28 433.67 69.45 434.11 70.11 433.37 71.57 428.67 74.83 428.31 75.79 428.83 76.19 429.86 76.75 433.31 77.95 434.11 78.58 434.08 79.7 433.72 81.61 433.67 82.18 433.83 82.76 434.22 83.43 436.3 84.97 441.55 83.84 441.02 85.54 439.41 87.47 436.11 90.37 433.06 91.65 431.88 91.98 431.42 92.02 430.87 92.02 430.38 92.1 430.82 93.53 434.79 99.28 432.49 102.3 432.38 102.78 432.24 103.87 433.15 111.33 434.46 117.53 434.33 117.53 429.33 117.39 427.13 116.67 426.17 116.06 424.88 114.98 422.94 112.9 422.31 112.04 416.4 100.53 415.06 98.51 414.32 97.02 413.77 95.29 412.78 94.27 411.74 93.6 408.82 92.77 405.84 92.98 402.87 95.34 402.08 96.78 398.07 101.64 395.19 103.11 393.6 103.22 392.39 102.86 391.57 102.47 390.91 102.03 390.58 101.74 390.36 101.15 390.06 100.8 390.06 100.55 390.31 100.38 391.6 100.02 391.1 99.74 389.5 99.3 384.7 99.18 381.17 98.39 378.53 96.49 366.34 99.72 362.39 94.41 359.67 93.64 355.89 93.69 355.15 93.77 354.87 94 354.73 94.47 354.76 95.88 354.95 97.39 354.87 97.99 354.73 98.35 354.62 98.51 354.35 98.73 353.67 99.09 349.16 100.19 345.13 100.2 334.32 101.7 332.01 99.01 331.85 98.58 331.41 95.13 332.73 94 337 88.22 337.52 87.76 345.38 82.87 346.66 83.07 348.2 83.48 359.48 84.64 360.75 84.18 362.17 83.54 364.59 79.71 366.59 77.65 367.88 75.64 367.69 72.28 365.46 71.85 363.74 71.19 362.2 70.2 361.38 69.39 360.61 66.94 359.42 66.44 359.23 64.85 359.4 64.49 359.34 63.91 359.04 63.34 357.5 62.08 354.76 61.74 352.54 60.75 352.38 60.4 352.18 59.67 352.16 57.17 346.75 56.77 345.13 55.96 344.5 54.62 339.33 49.3 338.51 48.08 337.5 47.55 336.1 46.25 333.58 45.75 332.51 45.87 332.01 46.14 331.79 46.86 331.71 47.96 331.57 48.53 331.14 49.02 326.68 51.76 324.3 52 323.8 51.38 323.42 50.37 323.31 49.36 323.42 48.5 322.76 48.07 322.35 47.89 321.53 47.79 315.08 45.64 314.5 45.35 321.47 44.37 324.8 43.09 327.62 40.81 330.83 37.4 333.32 38.26 344.73 38.73 345.8 39.49 346.37 41.15 346.72 42.81 347.19 43.56 370.21 43.56 378.16 42.35 379.88 41.56 380.66 40.79 381.38 39.9 382.88 38.73 384.32 37.97 388.16 36.57 391.39 35.91 392.6 35.05 393.48 34.19 394.39 33.78 403.93 32.7 407.13 32.69 411.72 33.64 413.77 33.78 414.72 34.55 415.67 36.26 416.91 37.96 418.65 38.73 425.36 39.94 436.67 39.98 437.21 39.92 Z" id="CHE-162" data-name="Aargau"/>
<path d="M 434.46 117.53 436.66 119.96 438.16 120.21 438.96 120.47 439.71 120.59 439.96 120.75 440.97 122.66 435.53 124.91 434.57 125.54 434.02 126.18 433.83 126.86 433.78 127.77 433.5 128.42 432.9 129.01 431.31 130.16 431.06 130.73 431.34 131.7 432.3 132.59 434.24 133.31 436.96 132.45 444.04 133.72 450.82 138 451.48 138.64 452.06 139.5 451.43 140.87 450.85 141.77 445 143.89 444.07 142.65 441.63 141.06 439.12 140.7 437.56 141.75 437.4 142.58 435.64 142.96 429.8 142.87 429.55 142.71 429.47 142.55 429.38 142.11 427.46 141.34 424.75 142.27 420.94 143.18 418.73 142.88 416.68 142.82 414.46 143.09 410.15 143.07 407.12 143.5 403.72 144.31 402.74 144.78 402.16 145.67 402.05 146.37 402.9 147.72 393.08 148.36 390.12 149.7 389.72 150.16 390.39 151.74 390.58 152.62 390.31 153.5 386.73 155.77 382.51 159.44 381.74 159.6 381.33 159.42 381.09 158.99 380.76 158.79 380.18 158.73 379.18 158.76 378.33 158.99 377.59 159.42 376.3 160.7 375.73 161.56 375.07 162.85 374.44 165.38 371.37 170.2 370.96 171.13 371.53 172.97 372.41 174.24 373.34 176.99 370.46 180.14 366.86 179.97 363.79 180.83 361.16 181.85 359.78 182.03 358.68 181.82 356.35 179.87 354.27 177.65 342.58 171.23 339.83 169.18 339.75 167.8 338.13 164.29 338.43 163.46 340.07 162.33 340.66 161.31 340.8 160.03 340.41 157.88 340.44 156.83 340.74 156.08 341.4 155.75 342.93 155.34 344.25 154.74 344.69 154.68 346.12 154.91 347.02 154.81 347.87 154.38 348.42 153.73 348.8 153.04 349.08 152.7 350.01 152.22 350.35 151.85 350.54 151.31 350.73 150.21 351.06 149.73 351.66 149.16 352.07 148.67 352.68 147.06 353.17 146.31 354.32 142.22 350.54 141.68 349.27 140.96 344.61 140.67 343.98 137.81 343.07 137.05 341.84 135.6 340.33 134.19 339.91 132.95 339.91 131.86 340.47 128.26 340.47 124.76 340.8 122.94 341.34 121.75 342.77 120 341.23 114.65 341.21 112.85 340.63 111.45 339.69 109.89 338.9 108.87 334.32 101.7 345.13 100.2 349.16 100.19 353.67 99.09 354.35 98.73 354.62 98.51 354.73 98.35 354.87 97.99 354.95 97.39 354.76 95.88 354.73 94.47 354.87 94 355.15 93.77 355.89 93.69 359.67 93.64 362.39 94.41 366.34 99.72 378.53 96.49 381.17 98.39 384.7 99.18 389.5 99.3 391.1 99.74 391.6 100.02 390.31 100.38 390.06 100.55 390.06 100.8 390.36 101.15 390.58 101.74 390.91 102.03 391.57 102.47 392.39 102.86 393.6 103.22 395.19 103.11 398.07 101.64 402.08 96.78 402.87 95.34 405.84 92.98 408.82 92.77 411.74 93.6 412.78 94.27 413.77 95.29 414.32 97.02 415.06 98.51 416.4 100.53 422.31 112.04 422.94 112.9 424.88 114.98 426.17 116.06 427.13 116.67 429.33 117.39 434.33 117.53 434.46 117.53 Z" id="CHE-163" data-name="Lucerne"/>
<path d="M 445 143.89 449.31 145.96 462.07 144.8 462.35 145.88 462.1 146.8 459.66 152.04 459.13 152.74 458.39 153.33 456.33 154.62 447.33 157.81 444.37 159.2 443.99 159.55 443.88 160.14 445.19 161.48 445.66 162.25 445.93 163.41 445.58 164.66 446.32 168.22 437.73 168.44 435.89 167.45 435.23 166.38 434.41 166.13 433.61 166.16 430.24 167.69 429.58 167.82 429.24 167.78 429.24 167.58 429.38 167.19 429.41 166.69 429.41 166.02 428.48 165.1 427.85 164.96 427.1 165.31 426.45 166.19 426.53 166.79 427.13 167.62 427.46 169.69 427.71 170.53 428.72 172.77 428.78 173.37 428.67 173.97 428.67 174.43 429.11 174.71 430.43 175.29 430.68 175.65 430.84 176.42 430.93 176.69 431.09 176.88 431.36 177.12 431.94 177.57 432.63 178.42 433.15 178.88 433.83 179.29 436.6 180.08 437.12 180.44 437.45 181.05 437.04 181.38 431.99 182.48 427.85 179.93 424.17 178.43 420.52 174.98 420.09 170.81 420.36 169.13 420.58 165.55 421.43 163.54 421.68 162.72 421.7 158 421.35 157.27 420.47 156.71 416.29 155.37 415.22 154.69 414.32 153.89 414.56 152.71 415 152.1 415.58 151.54 416.07 150.94 416.57 150.12 416.87 149.39 417.14 148.49 416.68 148.03 416.1 147.75 409.35 146.34 408.63 146.34 407.87 146.53 406.93 146.91 405.89 147.23 402.9 147.72 402.05 146.37 402.16 145.67 402.74 144.78 403.72 144.31 407.12 143.5 410.15 143.07 414.46 143.09 416.68 142.82 418.73 142.88 420.94 143.18 424.75 142.27 427.46 141.34 429.38 142.11 429.47 142.55 429.55 142.71 429.8 142.87 435.64 142.96 437.4 142.58 437.56 141.75 439.12 140.7 441.63 141.06 444.07 142.65 445 143.89 Z" id="CHE-164" data-name="Nidwalden"/>
<path d="M 447.08 225.5 441.9 230.33 438.96 231.67 434.9 232.01 433.34 232.35 432.76 232.75 432.68 233.17 432.9 233.52 432.95 233.87 432.84 234.25 431.94 235.44 431.2 236.7 430.76 237.84 430.93 239.17 430.98 239.87 430.99 239.94 423.48 241.06 418.67 242.87 414.9 245.63 413.42 247.87 414.1 248.62 415.27 249.24 415.34 251.03 414.28 252.65 412.53 254.11 410.5 255.18 405.49 256.94 396.79 264.89 393.13 266.65 385.45 267.84 381.63 269.07 378.18 271.5 376.41 273.22 375.66 274.71 376.28 275.4 380.41 277.89 385.64 284.9 386.13 291.39 382.29 297.12 374.56 301.78 372.64 302.23 368.98 302.5 367.21 303.45 365.95 305.27 365.57 307.3 365.55 309.28 364.61 314.32 364.29 314.67 362.57 317.31 362.44 317.69 360.23 319.69 358.97 320.42 357.27 320.79 344.73 322.76 342.18 324.19 340.25 326.75 339.77 330.12 336.13 330.23 336.13 330.23 335.92 330.52 335.37 332.34 335.51 333.26 335.09 333.86 332.88 334.7 331.86 334.66 328.69 333.99 323.83 334.05 315.33 331.88 313.6 332.02 312.26 332.46 310.78 332.71 308.61 332.19 308.35 331.74 305.02 328.36 302.37 326.64 299.59 325.52 281.57 322.38 278.61 323.45 276.89 325.46 274.95 327.22 271.24 327.55 265.98 329.14 255.52 334.48 249.85 335.87 236.56 334.88 234.24 335.44 229.27 337.59 218.36 340.71 213.02 341.41 207.24 341.48 201.81 340.7 197.7 338.99 189.77 332.79 188.54 331.36 187.59 329.58 186.35 326.35 184.32 322.67 183.68 320.79 182.82 320.39 170.85 310.97 166.83 309.74 165.35 310.16 164.08 311.06 162.73 311.78 161.05 311.61 159.5 310.79 159.39 310.24 159.75 309.5 159.68 308.13 159.93 307.96 159.88 306.11 159.57 304.36 159.08 304.53 159.88 303.61 161.31 302.41 162.55 301.06 162.73 299.7 160.03 297.88 145.95 295.73 144.42 292.76 146.04 286.7 149.11 280.36 155.38 271.91 151.36 267.11 145.09 262.5 141.71 258.46 142.66 256.42 147.32 252.63 148.58 249.67 148.38 247.94 151.73 248.07 160.15 249.22 162.27 248.35 163.45 249.63 166.08 251.77 167.2 253.29 167.17 254.2 166.73 255.37 166.54 256.69 167.2 258.01 169.39 259.05 171.77 259.4 173.66 260.44 174.45 263.55 175.27 265.16 186.51 278.74 190.47 282.43 191.78 284.17 193.8 285.99 200.57 283.34 206.39 280.69 210.56 277.1 212.6 276.49 215.97 274.11 218.44 271.7 220.52 269.18 221.19 267.84 220.88 265.5 220.96 264.94 224.02 262.63 226.15 260.95 232.3 258.43 233.68 256.83 233.73 256.2 233.81 255.69 234.06 255.43 234.66 255.19 240.39 253.85 241.44 253.85 241.94 254.24 242.05 255.48 241.88 256.36 241.86 256.92 242.05 257.33 243.12 257.56 244.16 257.92 250.82 256.39 254.86 254.45 256.56 253.03 256.95 252.78 257.36 252.61 259.91 252.23 267.62 252.18 271.85 253.05 272.32 253.24 273.36 253.42 274.46 253.4 275.99 253.13 282.31 251.26 284.89 249.67 282.58 248.78 281.54 247.82 285.6 246.07 291.59 244.82 292.14 244.4 294.03 243.36 294.41 242.98 294.63 242.32 294.9 241.8 295.45 241.46 296.3 241.15 299.98 241.5 311.68 245.38 313.76 245.26 335.3 234.44 337.36 234.88 340.05 234.87 341.65 234.68 345.38 233.69 351.86 230.51 356.74 228.36 357.28 227.84 357.94 226.96 357.92 226.39 357.67 225.8 357.28 225.22 356.82 224.7 356.54 224.31 356.57 224.07 356.9 223.8 357.5 223.44 363.27 220.98 367.82 220.81 382.92 222.79 384.43 223.7 388.68 224.98 393.41 225.33 393.65 225.44 393.71 225.77 393.71 226.23 393.87 226.79 394.45 227.1 395.35 227.29 396.39 227.26 405.62 225.95 409.85 224.91 417.99 221.76 419.87 220.65 422.64 219.42 424.47 218.14 425.38 217.25 426.12 216.25 427.02 212.37 428.09 209.6 428.8 208.19 429.86 206.71 433.23 203.81 435.15 203.61 436.6 204.09 437.01 204.55 437.31 205.32 437.23 206.83 436.85 209.02 436.24 210.94 434.98 213.81 434.82 214.66 435.04 215.68 435.53 216.78 437.4 219.99 440.09 222.89 447.08 225.5 Z" id="CHE-165" data-name="Valais"/>
<path d="M 647.21 63.15 642.61 64.44 639.92 64.8 636.59 64.66 636.59 65.38 636.87 65.75 642.44 67.64 642.74 69.26 635.19 72.44 634.81 69.96 635.74 69.3 635.77 68.51 635.61 67.89 634.89 67.19 634.07 66.62 632.95 65.99 632.26 66.09 631.68 66.41 631.19 66.78 630.48 67.1 630.01 67.35 629.82 67.76 629.74 68.06 629.55 68.35 629.52 68.51 629.76 68.69 630.29 68.98 630.51 69.36 630.12 69.72 628.04 70.41 626.19 71.09 625.67 73.08 624.74 77.53 625.94 80.2 620.27 80.08 601.47 74.07 600.34 74.81 600.37 76.11 600.21 78.32 599.27 80 598.29 81.23 596.82 82.39 594.25 83.83 593.64 84.87 593.15 89.01 593.48 90.54 594.11 91.61 595.48 92.84 595.97 93.4 596.36 93.94 597.04 95.34 597.32 96.09 598.23 97.93 595.26 98.47 594.63 98.44 594.14 98.46 592.3 97.51 586.86 95.46 578.05 94.68 576.43 94.35 575.69 94.05 574.38 92.98 576.43 91.32 575.2 87.35 575.31 86.23 575.64 85.53 576.79 84.69 577.39 84.09 578.16 83.12 577.94 82.52 577.34 82.24 576.57 82.24 574.82 82.53 572.51 79.43 572.79 79.08 574.98 77.68 576.32 76.08 578.05 73.47 578.97 72.41 579.57 71.9 581.16 72.09 587.49 71.44 588.76 71.45 591.64 72.09 599.63 70.99 605.99 70.27 609.89 70.31 612.01 69.86 613.08 69.05 613.38 68.11 613.95 67.04 614.89 65.95 616.97 65.63 618.46 65.24 627.32 62.54 631.03 60.26 631.99 59.91 632.7 59.87 633.11 60.05 633.49 60.17 634.97 60.42 635.5 60.6 636.7 61.31 637.25 61.57 640 62.31 647.21 63.15 Z" id="CHE-166" data-name="Appenzell Ausserrhoden"/>
<path d="M 637.42 51.28 637.75 52.34 642.98 57.68 649.56 59.72 654.63 62.74 654.48 70.24 652.76 72.92 645.91 78.8 645.08 80.39 644.17 83.51 643.49 84.72 637.46 89.67 631.78 96.22 628.85 99.59 627.51 102.21 625.8 105.56 625.63 107.87 625.38 111.51 626.73 114.44 627.24 115.12 628.65 116.99 630.13 119.82 630.22 123.59 628.54 125.95 625.83 127.85 623.77 129.75 623.97 131.4 624 132.09 625.34 135.06 627.31 138 632.7 144.27 633.69 145.65 632.34 145.9 631.3 146.33 630.48 146.95 629.82 148.6 629.33 149.34 627.67 150.22 626.77 150.98 625.56 152.49 624.66 153.86 624.11 155.96 624.19 156.8 624 157.71 623.5 158.67 621.17 161.49 618.95 161.99 618.43 163.44 617.87 163.61 616.61 163.51 614.64 162.48 611.02 161.23 587.33 158.87 586.56 159.16 585.63 159.17 585 159.05 582.2 156.79 582.56 155.14 582.37 154.46 580.99 152.35 580.39 150.79 580.31 150.15 580.67 149.6 580.83 149.15 581.65 144.06 581.38 142.81 580.61 141.24 578.28 137.97 576.82 136.62 575.39 135.89 574.1 135.97 572.79 136.25 570.81 136.93 567.51 137.18 566.36 136.95 563.1 135.66 562.99 135.33 563.43 134.9 569.55 131.98 570.54 129.49 571.42 121.08 552.81 118.6 550.12 117.55 540.84 111.8 539.8 111.78 536.97 112.82 532.25 109.58 531.1 108.09 531.07 107.65 531.21 106.56 531.7 104.87 526.18 103.71 509.53 104.85 499.87 103.69 502.31 99.59 505.57 97.85 512.85 98.54 515.15 98.4 525.58 95.11 527.22 94.09 528.05 93.25 527.91 91.8 528.91 90.7 530.22 89.5 532.5 88.16 533.59 87.27 534.14 86.59 533.62 85.2 532.61 81.42 528.4 76.27 527.64 75.5 529.43 75.42 530.88 74.1 533.32 71.09 535.05 69.71 537.02 66.67 537.68 66.03 538.48 65.84 539.14 66.01 539.75 66.02 540.43 65.9 541.25 65.57 542.13 65.32 543.09 65.15 544.32 65.07 544.96 64.79 545.28 64.35 545.37 63.76 545.12 61.95 545.12 61.32 540.21 58.95 539.83 58.37 539.66 57.48 540.24 56.7 541.31 56.42 542.27 56.28 543.01 56.1 544.49 55.03 545.12 54.91 546.52 55.25 547.59 55.28 550.64 54.95 551.22 55.03 551.68 55.36 552.04 55.8 552.45 56.1 552.97 56.2 554.53 56.02 555.22 56.02 557.44 56.43 559.64 56.42 562.58 56.1 563.98 55.56 564.8 54.88 566.39 52.92 569.03 55.04 574.82 56.93 581.71 57.97 584.83 58.26 585.52 57.89 587.14 57.28 588.16 57.23 589.64 57.47 590.85 57.2 591.81 56.73 592.46 56.04 592.88 55.5 593.53 54.13 592.63 51.48 592.08 51.37 591.31 51.35 590.35 51.62 589.26 51.76 587.38 51.58 586.72 51.29 586.7 50.83 587 50.6 587.33 50.52 587.71 50.66 588.01 50.67 588.46 50.48 589.01 50.02 589.7 49.67 590.79 49.4 591.81 49.25 593.26 49.19 593.78 49.05 594.66 48.49 595.48 48.24 596.36 48.05 598.86 48 600.51 49.77 600.51 50.49 600.43 51.15 599.85 52.1 600.26 52.94 604.21 56.4 605.75 57.26 606.9 57.55 608.11 55.91 617.13 51.31 618.92 52.11 618.13 53.75 618.32 53.98 618.49 54.24 620.24 54.86 620.9 54.91 621.75 54.8 623.34 54.39 637.38 51.29 637.42 51.28 Z M 598.23 97.93 600.56 99.09 602.1 99.51 603.33 100.05 604.9 100.27 606.02 100.31 611.02 99.01 614.47 97.8 617.02 96.54 619.47 94.68 622.93 90.27 625.94 80.2 624.74 77.53 625.67 73.08 630.45 71.82 632.7 71.58 635.19 72.44 642.74 69.26 642.44 67.64 642.74 66.34 643.13 65.91 647.21 63.15 640 62.31 637.25 61.57 636.7 61.31 635.5 60.6 634.97 60.42 633.49 60.17 633.11 60.05 632.7 59.87 631.99 59.91 631.03 60.26 627.32 62.54 618.46 65.24 616.97 65.63 614.89 65.95 613.95 67.04 613.38 68.11 613.08 69.05 612.01 69.86 609.89 70.31 605.99 70.27 599.63 70.99 591.64 72.09 588.76 71.45 587.49 71.44 581.16 72.09 579.57 71.9 578.97 72.41 578.05 73.47 576.32 76.08 574.98 77.68 572.79 79.08 572.51 79.43 574.82 82.53 576.57 82.24 577.34 82.24 577.94 82.52 578.16 83.12 577.39 84.09 576.79 84.69 575.64 85.53 575.31 86.23 575.2 87.35 576.43 91.32 574.38 92.98 575.69 94.05 576.43 94.35 578.05 94.68 586.86 95.46 592.3 97.51 594.14 98.46 594.63 98.44 595.26 98.47 598.23 97.93 Z" fill-rule="evenodd" id="CHE-167" data-name="Sankt Gallen"/>
<path d="M 568.57 288.97 568.47 289.1 555.62 295.13 552.35 298.54 551.65 300.83 552.04 304.81 551.47 306.99 550.06 308.64 548.38 309.33 544.51 310.18 539.97 312.62 539.21 314.63 542.35 320.79 536.54 324.53 536.15 324.97 536.03 325.42 536.15 325.87 536.54 326.32 538.44 327.66 539.9 330.88 541.51 332.54 543.23 333.23 547.08 333.77 548.75 334.51 550.76 337.44 550.08 340.45 545.68 346.44 540.03 351.28 534.71 350.58 528.91 348.78 523.48 349.94 521.91 350.27 522.57 347.55 523.63 345.45 524.34 343.25 524.05 340.19 523.06 337.88 521.58 335.57 518.51 331.76 516.78 328.93 515.63 327.81 514.44 327.16 504.29 323.37 501.59 322.7 498.55 322.56 498.84 322.09 499.52 321.24 502.63 316.26 507.69 311.98 510.31 307.83 505.81 303.7 503.14 303.05 497.71 303.14 494.88 302.87 493.52 302.23 492.23 300.57 491.67 300.43 491.66 300.43 490.76 300.2 489.67 300.55 486.93 302.24 485.66 302.74 482.56 302.63 474.31 299.28 470.89 298.46 469.18 297.85 458.01 286.39 452.98 282.8 448.1 281.09 443.47 279.81 440.22 277.94 438.28 275.1 437.59 270.78 438.19 266.23 441.06 257.07 441.66 251.97 441.57 246.64 440.84 242.64 438.41 240.21 433.33 239.59 430.99 239.94 430.98 239.87 430.93 239.17 430.76 237.84 431.2 236.7 431.94 235.44 432.84 234.25 432.95 233.87 432.9 233.52 432.68 233.17 432.76 232.75 433.34 232.35 434.9 232.01 438.96 231.67 441.9 230.33 447.08 225.5 452.91 222.14 453.32 221.22 454 220.07 455.37 217.25 455.81 216.83 456.42 216.44 457.73 216.18 459.77 216.1 475.27 218.55 482.63 216.35 488.53 218.22 502.17 219.08 512.6 217.83 521.58 215.35 523.28 214.48 523.66 213.9 523.55 213.32 523.17 212.77 522.97 211.98 523.25 211.09 524.54 209.85 525.77 209.37 527.14 209.01 528.85 208.74 530.3 207.77 531.29 207.73 531.81 208.03 532 208.96 532.5 209.84 533.37 210.83 539.39 211.24 540.27 211.49 541.5 212.01 543.5 212.59 545.83 214.13 546.27 214.54 546.41 215.09 546.05 215.77 544.74 217.48 544.13 218.53 543.64 219.81 543.34 220.92 542.98 223.02 542.71 223.97 542.43 224.67 542.3 225.22 543.39 228.62 543.86 229.56 544.38 230.38 546.27 232.58 548.19 234.52 549.43 234.9 549.82 234.75 550.61 234.53 553.27 234.26 555.3 236.9 555.36 237.96 555.27 239.39 554.92 241.33 555.22 242.81 555.88 244.05 556.75 245.25 556.89 245.97 556.48 246.74 555.9 248.46 555.16 249.9 555.36 255.25 554.73 256.47 552.01 260 551.71 261.19 551.85 262.37 552.15 263.47 551.85 264.33 551.13 265.48 549.68 266.69 549.6 267.41 549.87 268.28 551.3 270.76 553.14 273.3 553.25 273.96 553.3 274.84 552.78 277.11 553.11 278.04 553.68 278.97 555.08 280.55 556.26 281.29 559.18 282.69 562.88 285.82 564.41 286.87 568.45 288.95 568.49 288.95 568.57 288.97 Z" id="CHE-168" data-name="Ticino"/>
<path d="M 582.2 156.79 577.28 159.81 574.27 162.66 573.33 163.07 571.88 163.51 568.54 163.54 565.98 163.92 559.94 166.76 558.18 167.1 556.73 166.73 555.93 165.97 554.64 165.33 552.94 164.92 550.01 164.73 548.27 164.99 547.09 165.38 546.68 165.8 546.55 166.45 546.57 167.81 546.35 168.42 545.86 168.96 545.37 169.68 544.85 170.56 543.97 171.82 542.68 172.98 540.16 174.6 536.14 175.9 526.37 177.98 524.7 178 524.02 177.68 523.6 176.5 523.28 176.03 522.43 175.93 520.59 175.46 516.9 175.34 516.79 171.95 516.63 171.09 516.93 169.96 521.52 167.6 522.34 167.02 522.86 166.73 523.33 166.67 523.93 166.68 524.73 166.57 528.51 165.49 529.7 164.79 530.44 163.84 530.52 162.06 530.41 161.03 529.97 159.92 529.67 159.41 527.28 156.46 531.04 155.15 531.89 153.03 532.58 150.67 532.28 149.55 531.59 148.75 528.77 147.43 527.91 146.82 527.14 145.86 527.09 145.35 527.58 144.74 527.55 144.47 522.59 139.57 520.12 138.02 520.97 136.05 522.97 135.04 527.36 133.61 528.91 132.42 530.3 130.97 532.06 128.51 532.22 127.23 531.81 124.92 532.63 123.98 533.05 123.26 533.57 121.28 533.57 120.28 536.97 112.82 539.8 111.78 540.84 111.8 550.12 117.55 552.81 118.6 571.42 121.08 570.54 129.49 569.55 131.98 563.43 134.9 562.99 135.33 563.1 135.66 566.36 136.95 567.51 137.18 570.81 136.93 572.79 136.25 574.1 135.97 575.39 135.89 576.82 136.62 578.28 137.97 580.61 141.24 581.38 142.81 581.65 144.06 580.83 149.15 580.67 149.6 580.31 150.15 580.39 150.79 580.99 152.35 582.37 154.46 582.56 155.14 582.2 156.79 Z" id="CHE-169" data-name="Glarus"/>
<path d="M 633.89 132.88 638.76 133.43 642.4 132.64 645.7 133.24 654.97 132.46 657.93 132.76 691.35 139.96 691.06 141.98 691.81 142.42 692.9 142.36 693.58 142.91 693.58 143.95 692.85 145.64 692.41 149.79 691.84 151.69 692.14 153.35 694.38 155.54 698.77 157.84 717.69 162.02 724.53 166.48 728.51 168.06 736.15 169.74 738.61 169.81 739.81 169.84 744.38 168.95 752.09 166.25 753.9 164.45 754.38 163.1 754.53 161.61 755.37 159.37 758.05 156.26 760.92 155.9 764.36 156.52 768.77 156.37 768.86 153.07 771.95 149.01 776.41 145.51 781.54 143.5 782.51 143.36 783.5 143.5 784.43 143.91 784.45 143.91 784.45 143.94 786.28 145.28 789.97 149.35 795.98 152.62 797.56 153.91 798.51 156.9 796.31 162.91 796.73 166.68 795.8 172.37 795.16 173.96 794.12 175.09 790.26 178.28 790.59 180.91 791.85 183.48 792.29 185.92 790.15 188.15 787.15 189.47 786.44 191.09 786.61 193.11 786.22 195.62 784.52 197.71 782.6 198.96 781.76 200.64 783.24 204.03 786.44 206.58 793.97 207.14 797.67 209.28 799 212.69 798.87 217.26 797.46 221.64 796.38 222.88 795 224.46 791.8 224.89 779.13 222.59 772.97 222.99 770.7 222.74 768.71 222.1 767.6 221.29 766.66 220.4 765.27 219.55 757.98 217.82 757.19 215.9 758.16 212.27 757.82 210.27 755 208.68 750.45 208.71 733.7 212.03 732 212.67 731.24 213.98 729.06 219.75 727.6 221.1 723.78 223.73 722.26 225.3 722.02 226.57 721.99 230.46 721.22 232.34 721.44 233.98 721.86 235.26 722.72 236.25 724.25 236.98 721.13 240.64 723.91 243.04 729.1 244.43 737.01 245.49 740.07 246.34 741.36 248.31 740.03 252.17 738.75 253.35 735.04 255.66 733.7 257.38 732.81 259.77 732.7 261.39 733.41 262.88 735.02 264.85 742.31 270 744.58 273.15 742.26 276.53 737.32 278.69 729.87 280.66 724.02 280.57 723.87 276.58 722.08 273.57 715.1 269.28 712.5 266.84 711.35 262.97 711.27 259.47 710.1 256.59 705.68 254.58 702.04 253.93 698.61 253.75 690.89 254.67 679.12 258.85 675.45 259.68 673.18 259.34 668.87 257.54 666.96 257.51 665.04 259.01 664.7 261.03 664.97 263.04 664.9 264.43 662.19 267.03 658.87 267.96 638.59 267.8 634.48 266.75 630.73 264.99 628.49 262.84 624.96 256.46 623.39 255.57 619.47 254.06 618.19 253.19 617.85 252.2 618.1 249.51 617.04 232.54 616.48 231.43 615.09 231.65 612.23 233.1 611.03 234.23 610.41 235.49 609.55 236.55 607.63 237.08 606.29 236.67 601.78 233.7 601.65 231.51 598.14 230.87 589.53 231.6 586.15 233.77 583.08 238.03 581.69 242.36 583.39 244.75 585.75 245.88 586.09 247.65 585.64 249.88 585.66 252.41 588.03 258.68 588.27 260.96 587.17 264.85 582 272.35 579.37 278.68 579.37 278.68 577.76 280.47 575.71 281.8 573.59 282.49 571.67 283.48 570.68 285.23 569.86 287.27 568.57 288.97 568.49 288.95 568.45 288.95 564.41 286.87 562.88 285.82 559.18 282.69 556.26 281.29 555.08 280.55 553.68 278.97 553.11 278.04 552.78 277.11 553.3 274.84 553.25 273.96 553.14 273.3 551.3 270.76 549.87 268.28 549.6 267.41 549.68 266.69 551.13 265.48 551.85 264.33 552.15 263.47 551.85 262.37 551.71 261.19 552.01 260 554.73 256.47 555.36 255.25 555.16 249.9 555.9 248.46 556.48 246.74 556.89 245.97 556.75 245.25 555.88 244.05 555.22 242.81 554.92 241.33 555.27 239.39 555.36 237.96 555.3 236.9 553.27 234.26 550.61 234.53 549.82 234.75 549.43 234.9 548.19 234.52 546.27 232.58 544.38 230.38 543.86 229.56 543.39 228.62 542.3 225.22 542.43 224.67 542.71 223.97 542.98 223.02 543.34 220.92 543.64 219.81 544.13 218.53 544.74 217.48 546.05 215.77 546.41 215.09 546.27 214.54 545.83 214.13 543.5 212.59 541.5 212.01 540.27 211.49 539.39 211.24 533.37 210.83 532.5 209.84 532 208.96 531.81 208.03 531.29 207.73 530.3 207.77 528.85 208.74 527.14 209.01 525.77 209.37 524.54 209.85 523.25 211.09 522.97 211.98 523.17 212.77 523.55 213.32 523.66 213.9 523.28 214.48 521.58 215.35 512.6 217.83 502.17 219.08 488.53 218.22 482.63 216.35 483.15 213.95 482.77 212.5 481.83 210.36 481.4 209.79 480.68 209.45 479.89 209.18 479.28 208.87 478.75 208.32 478.4 207.6 478.18 206.59 478.32 205.62 479.56 202.84 480.85 200.83 481.15 199.91 481.23 199.21 481.09 198.75 481.07 198.18 481.7 197.44 482.9 196.71 485.78 195.83 487.57 195.56 489.3 194.89 493.42 191.2 495.17 189.92 498.27 189.17 500.91 189.83 501.62 189.88 504.28 189.47 504.89 189.18 505.49 188.59 505.32 186.98 505.38 186.74 505.57 186.36 507 184.68 508.61 183.28 508.87 181.8 508.75 179.7 509.25 179.27 510.57 179.05 511.8 178.72 512.98 177.84 514.99 177.08 516.9 175.34 520.59 175.46 522.43 175.93 523.28 176.03 523.6 176.5 524.02 177.68 524.7 178 526.37 177.98 536.14 175.9 540.16 174.6 542.68 172.98 543.97 171.82 544.85 170.56 545.37 169.68 545.86 168.96 546.35 168.42 546.57 167.81 546.55 166.45 546.68 165.8 547.09 165.38 548.27 164.99 550.01 164.73 552.94 164.92 554.64 165.33 555.93 165.97 556.73 166.73 558.18 167.1 559.94 166.76 565.98 163.92 568.54 163.54 571.88 163.51 573.33 163.07 574.27 162.66 577.28 159.81 582.2 156.79 585 159.05 585.63 159.17 586.56 159.16 587.33 158.87 611.02 161.23 614.64 162.48 616.61 163.51 617.87 163.61 618.43 163.44 618.95 161.99 621.17 161.49 623.5 158.67 624 157.71 624.19 156.8 624.11 155.96 624.66 153.86 625.56 152.49 626.77 150.98 627.67 150.22 629.33 149.34 629.82 148.6 630.48 146.95 631.3 146.33 632.34 145.9 633.69 145.65 632.7 144.27 627.31 138 625.34 135.06 624 132.09 623.97 131.4 627.96 132.2 633.89 132.88 Z" id="CHE-170" data-name="Graubünden"/>
<path d="M 460.31 37.13 461.9 38.46 464.28 37.92 464.66 37.46 464.71 38.08 462.43 42.15 461.06 43.52 460.46 43.56 459.83 43.41 459.3 42.98 458.86 42.48 458.31 42.03 457.1 41.24 456.36 40.92 456.53 39.61 460.31 37.13 Z M 469.58 5.73 470.2 7.88 471.94 8.76 474.13 7.79 475.04 3.93 476.65 2.8 478.94 3.31 480.64 5.05 482.03 7.1 483.34 8.5 485.17 8.78 487.13 8.51 488.86 8.74 490.03 10.52 489.56 11.19 487.2 13.58 486.61 14.74 487.36 16.18 488.77 17.36 489.21 18.7 489.56 19.86 498.9 19.76 497.45 18.67 499.05 15.2 503.8 15.35 509.57 17.62 514.14 20.54 510.89 21.05 510.91 22.28 513.41 23.97 508.03 22.03 505.98 22.63 504.42 22.11 504.28 22.11 502.2 25.5 501.79 25.78 500.99 26.42 500.28 26.77 499.48 26.92 498.73 26.9 498.3 26.98 497.77 27.23 497.03 27.75 496.21 28.14 495.14 28.42 487.92 28.23 486.36 27.87 485.13 27.34 484.03 26.19 483.29 25.2 483 22.39 483.56 19.68 475.93 19.55 474.45 20.56 473.22 22.14 470.2 24.06 467.75 26.26 467.72 26.29 465.7 25.73 463.23 25.45 454.64 26.44 451.99 27.34 449.54 28.52 446.93 29.43 443.78 29.53 440.13 28.12 435.6 25.78 434.72 25.69 431.94 25 433.07 23.09 432.63 21.58 431.88 20.29 432.09 18.98 433.82 17.64 438.3 15.98 440.18 14.79 441.52 11.26 442.34 9.97 444.74 7.59 446.12 7.03 448.1 7.07 457.62 5.79 460.29 4.88 458.65 2.09 461.46 1 465.87 1.16 469.14 2.16 469.41 3.45 469.58 5.73 Z" fill-rule="evenodd" id="CHE-171" data-name="Schaffhausen"/>
<path d="M 536.97 112.82 533.57 120.28 533.57 121.28 533.05 123.26 532.63 123.98 531.81 124.92 532.22 127.23 532.06 128.51 530.3 130.97 528.91 132.42 527.36 133.61 522.97 135.04 520.97 136.05 520.12 138.02 522.59 139.57 527.55 144.47 527.58 144.74 527.09 145.35 527.14 145.86 527.91 146.82 528.77 147.43 531.59 148.75 532.28 149.55 532.58 150.67 531.89 153.03 531.04 155.15 527.28 156.46 519.3 159.58 518.5 159.75 514.08 161.16 512.93 161.95 512.16 162.11 511.5 161.79 511.06 160.74 510.87 158.79 510.46 158.25 509.36 158.19 508.34 157.41 507.82 156.8 507.74 155.97 507.85 155.19 507.33 154.52 506.09 154.18 501.1 154.27 499.48 154.08 498.3 153.41 497.36 153.1 496.1 153.31 494.02 154.03 492.67 154.36 491 154.99 489.19 156 488 156.32 486.96 156.08 485.67 154.76 484.82 152.82 484.3 152.32 483.43 152.05 479.39 152.23 478.1 152.1 474.37 151.15 472.8 150.91 471.79 150.59 470.47 149.85 469.76 148.27 469.09 145.79 468.82 145.16 467.94 144.8 467.26 144.61 462.07 144.8 449.31 145.96 445 143.89 450.85 141.77 451.43 140.87 452.06 139.5 451.48 138.64 450.82 138 444.04 133.72 436.96 132.45 434.24 133.31 432.3 132.59 431.34 131.7 431.06 130.73 431.31 130.16 432.9 129.01 433.5 128.42 433.78 127.77 433.83 126.86 434.02 126.18 434.57 125.54 435.53 124.91 440.97 122.66 442.81 121.73 444.59 121.13 445.85 121.46 447.69 121.57 450.77 126.32 459.88 125.78 460.84 125.93 461.58 126.28 463.03 127.25 464.57 127.27 466.68 126.97 470.72 125.97 473.11 125.65 475.49 124.98 477.44 123.98 482.38 119.89 483.73 117.29 486.88 114.99 483.62 113.45 483.34 112.49 482.33 111.53 482.14 111.17 482.11 110.7 482.25 110.23 482.52 109.68 483.56 108.83 485.32 107.76 492.21 104.75 499.87 103.69 509.53 104.85 526.18 103.71 531.7 104.87 531.21 106.56 531.07 107.65 531.1 108.09 532.25 109.58 536.97 112.82 Z" id="CHE-173" data-name="Schwyz"/>
<path d="M 513.41 23.97 513.54 24.06 518.68 26.65 523.01 27.42 529.94 26.98 536.37 25.59 539.19 23.52 542.53 22.63 562.26 24.12 572.04 24.12 574.43 26.65 581.05 26.65 587.92 27.72 636.43 48.16 637.42 51.28 637.38 51.29 623.34 54.39 621.75 54.8 620.9 54.91 620.24 54.86 618.49 54.24 618.32 53.98 618.13 53.75 618.92 52.11 617.13 51.31 608.11 55.91 606.9 57.55 605.75 57.26 604.21 56.4 600.26 52.94 599.85 52.1 600.43 51.15 600.51 50.49 600.51 49.77 598.86 48 596.36 48.05 595.48 48.24 594.66 48.49 593.78 49.05 593.26 49.19 591.81 49.25 590.79 49.4 589.7 49.67 589.01 50.02 588.46 50.48 588.01 50.67 587.71 50.66 587.33 50.52 587 50.6 586.7 50.83 586.72 51.29 587.38 51.58 589.26 51.76 590.35 51.62 591.31 51.35 592.08 51.37 592.63 51.48 593.53 54.13 592.88 55.5 592.46 56.04 591.81 56.73 590.85 57.2 589.64 57.47 588.16 57.23 587.14 57.28 585.52 57.89 584.83 58.26 581.71 57.97 574.82 56.93 569.03 55.04 566.39 52.92 564.8 54.88 563.98 55.56 562.58 56.1 559.64 56.42 557.44 56.43 555.22 56.02 554.53 56.02 552.97 56.2 552.45 56.1 552.04 55.8 551.68 55.36 551.22 55.03 550.64 54.95 547.59 55.28 546.52 55.25 545.12 54.91 544.49 55.03 543.01 56.1 542.27 56.28 541.31 56.42 540.24 56.7 539.66 57.48 539.83 58.37 540.21 58.95 545.12 61.32 545.12 61.95 545.37 63.76 545.28 64.35 544.96 64.79 544.32 65.07 543.09 65.15 542.13 65.32 541.25 65.57 540.43 65.9 539.75 66.02 539.14 66.01 538.48 65.84 537.68 66.03 537.02 66.67 535.05 69.71 533.32 71.09 530.88 74.1 529.43 75.42 527.64 75.5 520.59 70.44 521.93 69.2 522.32 68.62 522.64 67.83 522.89 66.59 523.93 65.76 523.93 65.51 522.51 64.97 520.75 63.8 519.9 60.18 518.17 59.43 517.78 58.92 517.37 57.89 517.43 57.32 517.56 57 517.86 56.79 518.66 56.42 519.03 56.12 519.35 55.67 519.35 55.33 519.35 55.1 519.24 54.87 519.16 54.54 519.24 54.12 520.26 50.39 520.34 49.86 519.88 49.28 518.63 48.6 513.39 47.16 511.61 46.46 510.57 45.64 509.89 44.04 510.71 42.86 511.04 42.55 510.08 41.62 509.09 40.89 497.83 37.14 495.69 36.66 494.1 35.34 493.5 34.71 493.44 34.32 493.83 33.94 494.9 33.34 496.16 33.04 497.42 33.17 499.98 34.05 500.94 34.74 501.73 35.16 502.47 35.25 503.05 35.25 504.15 33.87 505.68 32.71 507.02 30.94 507.76 30.18 508.07 29.31 507.79 28.58 505.79 27 505.11 24.65 502.2 25.5 504.28 22.11 504.42 22.11 505.98 22.63 508.03 22.03 513.41 23.97 Z" id="CHE-174" data-name="Thurgau"/>
<path d="M 527.28 156.46 529.67 159.41 529.97 159.92 530.41 161.03 530.52 162.06 530.44 163.84 529.7 164.79 528.51 165.49 524.73 166.57 523.93 166.68 523.33 166.67 522.86 166.73 522.34 167.02 521.52 167.6 516.93 169.96 516.63 171.09 516.79 171.95 516.9 175.34 514.99 177.08 512.98 177.84 511.8 178.72 510.57 179.05 509.25 179.27 508.75 179.7 508.87 181.8 508.61 183.28 507 184.68 505.57 186.36 505.38 186.74 505.32 186.98 505.49 188.59 504.89 189.18 504.28 189.47 501.62 189.88 500.91 189.83 498.27 189.17 495.17 189.92 493.42 191.2 489.3 194.89 487.57 195.56 485.78 195.83 482.9 196.71 481.7 197.44 481.07 198.18 481.09 198.75 481.23 199.21 481.15 199.91 480.85 200.83 479.56 202.84 478.32 205.62 478.18 206.59 478.4 207.6 478.75 208.32 479.28 208.87 479.89 209.18 480.68 209.45 481.4 209.79 481.83 210.36 482.77 212.5 483.15 213.95 482.63 216.35 475.27 218.55 459.77 216.1 457.73 216.18 456.42 216.44 455.81 216.83 455.37 217.25 454 220.07 453.32 221.22 452.91 222.14 447.08 225.5 440.09 222.89 437.4 219.99 435.53 216.78 435.04 215.68 434.82 214.66 434.98 213.81 436.24 210.94 436.85 209.02 437.23 206.83 437.31 205.32 437.01 204.55 436.6 204.09 435.15 203.61 434.6 201.32 433.83 199.87 433.78 197.77 434.63 197.09 435.75 196.98 438.69 197.51 440.09 197.56 441.38 197.34 441.98 196.69 442.23 195.88 442.42 194.81 442.45 194.05 442.31 193.32 442.01 192.61 441.96 191.63 441.66 190.93 440.67 189.51 440.12 188.45 439.96 186.81 440.15 185.97 441.66 183.52 447.39 182.31 447.74 181.45 447.93 180.57 447.63 179.69 447.5 179.09 447.33 178.68 446.81 178.44 446.37 178.16 445.96 177.44 446.73 176.39 447.14 175.12 448.15 172.85 449.11 171.61 450.44 170.61 450.96 170.07 451.18 169.65 451.07 169.33 450.77 168.96 450.3 168.65 448.81 168.41 448.18 168.11 446.32 168.22 445.58 164.66 445.93 163.41 445.66 162.25 445.19 161.48 443.88 160.14 443.99 159.55 444.37 159.2 447.33 157.81 456.33 154.62 458.39 153.33 459.13 152.74 459.66 152.04 462.1 146.8 462.35 145.88 462.07 144.8 467.26 144.61 467.94 144.8 468.82 145.16 469.09 145.79 469.76 148.27 470.47 149.85 471.79 150.59 472.8 150.91 474.37 151.15 478.1 152.1 479.39 152.23 483.43 152.05 484.3 152.32 484.82 152.82 485.67 154.76 486.96 156.08 488 156.32 489.19 156 491 154.99 492.67 154.36 494.02 154.03 496.1 153.31 497.36 153.1 498.3 153.41 499.48 154.08 501.1 154.27 506.09 154.18 507.33 154.52 507.85 155.19 507.74 155.97 507.82 156.8 508.34 157.41 509.36 158.19 510.46 158.25 510.87 158.79 511.06 160.74 511.5 161.79 512.16 162.11 512.93 161.95 514.08 161.16 518.5 159.75 519.3 159.58 527.28 156.46 Z" id="CHE-175" data-name="Uri"/>
<path d="M 502.2 25.5 505.11 24.65 505.79 27 507.79 28.58 508.07 29.31 507.76 30.18 507.02 30.94 505.68 32.71 504.15 33.87 503.05 35.25 502.47 35.25 501.73 35.16 500.94 34.74 499.98 34.05 497.42 33.17 496.16 33.04 494.9 33.34 493.83 33.94 493.44 34.32 493.5 34.71 494.1 35.34 495.69 36.66 497.83 37.14 509.09 40.89 510.08 41.62 511.04 42.55 510.71 42.86 509.89 44.04 510.57 45.64 511.61 46.46 513.39 47.16 518.63 48.6 519.88 49.28 520.34 49.86 520.26 50.39 519.24 54.12 519.16 54.54 519.24 54.87 519.35 55.1 519.35 55.33 519.35 55.67 519.03 56.12 518.66 56.42 517.86 56.79 517.56 57 517.43 57.32 517.37 57.89 517.78 58.92 518.17 59.43 519.9 60.18 520.75 63.8 522.51 64.97 523.93 65.51 523.93 65.76 522.89 66.59 522.64 67.83 522.32 68.62 521.93 69.2 520.59 70.44 527.64 75.5 528.4 76.27 532.61 81.42 533.62 85.2 534.14 86.59 533.59 87.27 532.5 88.16 530.22 89.5 528.91 90.7 527.91 91.8 528.05 93.25 527.22 94.09 525.58 95.11 515.15 98.4 512.85 98.54 505.57 97.85 502.31 99.59 499.87 103.69 492.21 104.75 485.32 107.76 483.56 108.83 482.52 109.68 482.25 110.23 482.11 110.7 482.14 111.17 482.33 111.53 483.34 112.49 483.62 113.45 479.67 113.81 474.45 112.25 473.13 111.56 472.42 110.82 471.98 110.16 469.95 108.47 466.95 106.7 463.69 104.26 456.75 103.48 451.73 104.15 448.43 104.94 446.59 104.95 444.51 104.71 437.48 103.13 436.3 102.62 435.83 101.91 435.61 101.16 434.79 99.28 430.82 93.53 430.38 92.1 430.87 92.02 431.42 92.02 431.88 91.98 433.06 91.65 436.11 90.37 439.41 87.47 441.02 85.54 441.55 83.84 436.3 84.97 434.22 83.43 433.83 82.76 433.67 82.18 433.72 81.61 434.08 79.7 434.11 78.58 433.31 77.95 429.86 76.75 428.83 76.19 428.31 75.79 428.67 74.83 433.37 71.57 434.11 70.11 433.67 69.45 431.25 67.28 429.94 64.55 426.04 58.91 425.1 56.45 425.19 54.64 426.06 51.29 429.02 48.07 432.84 45.45 436.9 41 437.21 39.92 442.12 39.36 442.34 38.52 444.41 35.49 449.82 33.07 455.12 32.71 457.84 34.43 459.94 36.83 460.31 37.13 456.53 39.61 456.36 40.92 457.1 41.24 458.31 42.03 458.86 42.48 459.3 42.98 459.83 43.41 460.46 43.56 461.06 43.52 462.43 42.15 464.71 38.08 464.66 37.46 465.43 36.55 465.63 35.22 465.54 33.97 465.76 32.76 465.68 32.15 465.26 31.46 464.97 30.66 465.37 29.68 466.01 29.31 466.95 29.07 467.71 29.05 467.88 29.33 467.99 30.42 469.14 30.81 470.14 26.62 468.54 26.52 467.72 26.29 467.75 26.26 470.2 24.06 473.22 22.14 474.45 20.56 475.93 19.55 483.56 19.68 483 22.39 483.29 25.2 484.03 26.19 485.13 27.34 486.36 27.87 487.92 28.23 495.14 28.42 496.21 28.14 497.03 27.75 497.77 27.23 498.3 26.98 498.73 26.9 499.48 26.92 500.28 26.77 500.99 26.42 501.79 25.78 502.2 25.5 Z" id="CHE-176" data-name="Zürich"/>
<path d="M 483.62 113.45 486.88 114.99 483.73 117.29 482.38 119.89 477.44 123.98 475.49 124.98 473.11 125.65 470.72 125.97 466.68 126.97 464.57 127.27 463.03 127.25 461.58 126.28 460.84 125.93 459.88 125.78 450.77 126.32 447.69 121.57 445.85 121.46 444.59 121.13 442.81 121.73 440.97 122.66 439.96 120.75 439.71 120.59 438.96 120.47 438.16 120.21 436.66 119.96 434.46 117.53 433.15 111.33 432.24 103.87 432.38 102.78 432.49 102.3 434.79 99.28 435.61 101.16 435.83 101.91 436.3 102.62 437.48 103.13 444.51 104.71 446.59 104.95 448.43 104.94 451.73 104.15 456.75 103.48 463.69 104.26 466.95 106.7 469.95 108.47 471.98 110.16 472.42 110.82 473.13 111.56 474.45 112.25 479.67 113.81 483.62 113.45 Z" id="CHE-177" data-name="Zug"/>
<path d="M 146.84 191.7 145.67 192.43 144.79 192.13 144.35 190.96 143.47 190.38 142.74 189.5 143.18 188.63 144.35 188.63 145.52 187.6 146.98 186.58 148.15 186.58 149.18 187.31 149.32 188.63 149.03 189.94 147.71 191.11 146.84 191.7 Z M 165.56 187.89 164.24 189.65 162.92 190.53 161.61 190.96 160 190.53 158.54 190.09 156.49 189.36 155.17 189.65 153.13 190.96 151.66 191.11 150.49 191.11 150.05 190.38 150.64 189.94 151.66 189.36 152.98 188.92 154.88 188.33 155.61 187.16 157.22 185.7 158.24 185.12 159.41 183.95 160.15 183.21 161.02 182.78 162.05 183.51 162.63 184.38 163.8 184.68 165.26 185.26 166.14 186.58 165.56 187.89 Z M 144.48 170.07 163.77 159.12 171.26 164.18 171.87 164.74 172.42 165.38 172.15 165.32 171.71 165 171.31 164.82 170.96 164.79 169.81 165.14 169.2 165.41 168.68 165.72 168.35 166.24 168.57 166.34 169.2 166.28 170.03 166.38 171.07 166.73 172.91 167.74 173.46 168.28 173.41 168.85 172.34 170.03 171.53 171.2 171.2 171.77 170.99 172.35 170.82 172.95 170.16 176.58 170.44 177.06 170.77 177.26 172.09 176.82 173.19 176.94 173.49 177.2 173.46 177.58 172.75 178.42 171.45 180.52 170.9 180.88 170.49 181.09 169.12 181.39 168.22 181.48 165.72 181.43 164.95 181.34 164.16 181.04 163.25 180.59 162.48 180.33 161.24 180.57 160.45 180.61 159.24 180.93 158.23 181.42 156.77 181.57 156.2 181.54 155.4 181.38 153.54 180.76 152.77 180.65 152.11 180.62 151.55 180.51 149.33 179.78 149.09 179.59 149.25 179.19 149.72 178.77 150.05 178.37 150.13 178.02 149.85 177.68 149.58 177.55 148.81 177.63 148.4 177.57 147.96 177.36 145.99 175.98 145.36 174.7 144.48 170.07 Z M 227.28 154.3 226.73 154.46 226.35 154.42 225.82 154.51 225.22 153.61 227.85 153.1 227.91 153.73 227.69 153.97 227.28 154.3 Z M 228.76 221.22 223.47 224.12 213.31 226.25 211.53 227.29 210.26 228.53 207.46 230.79 205.6 231.87 204.09 232.53 198.87 232.96 197.58 233.32 196.43 233.8 193.36 235.61 191.63 236.98 191.07 237.54 190.75 238.01 190.03 239.57 185.92 240.95 185.76 240.67 185.18 240.46 184.8 239.8 184.19 239.15 183.64 238.34 183.31 237.42 183.18 236.71 182.57 234.9 181.39 232.83 171.57 227.79 169.15 227.15 167.26 227.1 164.68 229.05 163.39 229.7 161.88 230.23 159.29 230.49 157.95 230.28 157.18 230.01 155.18 228.08 153.95 225.66 155.46 223.55 155.89 223.48 158.23 223.41 159.68 223.51 160.09 223.62 162.27 224.58 162.84 224.3 163.33 223.75 167.75 220.29 168.68 219.36 169.01 218.89 168.71 218.76 168.05 218.81 166.68 219.08 165.91 218.92 164.71 218.33 162.7 216.94 161.77 216.58 161.08 216.44 159.1 216.8 156.5 216.97 155.1 216.27 154.06 216.26 153.24 216.42 151.73 216.87 151.53 216.63 151.53 216.03 151.73 215.25 151.69 214.6 151.61 214.1 151.58 213.7 151.73 213.52 152.17 213.33 152.28 212.97 152.11 212.04 151.84 211.05 151.55 209.09 151.58 207.01 151.69 206.2 152.11 204.36 154.22 204.22 157.07 202.85 159.08 202.54 161.83 202.47 162.84 202.32 163.25 202.07 163.14 201.87 162.92 201.58 162.98 201.32 163.97 199.55 170.08 193.37 175.24 188.51 175.9 187.03 175.71 186.91 173.46 186.52 172.86 186.32 172.2 186.01 171.73 185.36 171.95 185.04 174.26 184.58 174.97 184.22 175.66 183.67 180.43 178.94 180.12 176.48 181.14 174.69 181.78 174 182.57 173.52 183.64 173.02 185.4 171.54 185.97 170.79 186.11 170.23 185.92 170.04 185.7 170.03 184.85 170.23 184.36 169.95 183.7 169.29 183.23 167.69 183.26 166.88 183.56 166.1 184.08 165.36 183.89 164.63 183.53 164.04 183.12 163.68 182.77 163.55 182.25 163.57 181.61 163.7 181.11 163.9 180.81 164.1 180.78 164.49 180.73 164.78 180.54 165.11 180.32 165.25 179.93 165.22 179.44 164.93 176.56 162.22 175.52 161.5 174.94 161.16 169.48 155.89 176.29 152.04 187.37 162.64 188.25 163.84 190.25 164.58 192.78 167.1 193 168.38 193.2 168.81 196.29 167.7 197.8 166.44 198.3 165.91 198.76 165.17 199.12 164.28 199.56 162.66 200.13 161.85 200.79 161.28 201.38 161.2 201.84 161.31 202.34 161.73 202.69 161.87 203.1 161.74 204.42 160.72 204.78 160.24 204.67 159.88 203.57 159.55 202.97 159.3 202.5 159.03 198.82 153.79 198.13 152.5 196.9 146.55 211.11 145.59 219.92 143.16 224.04 141.96 225.69 142.27 226.18 142.69 226.32 142.92 226.35 143.06 226.54 144.1 227.69 145.25 227.31 145.9 225.47 147.46 224.51 147.99 222.23 148.77 221.88 149.06 221.93 149.54 222.92 150.69 223.33 151.38 223.52 152.15 223.63 153.28 224.07 155.15 223.88 156.03 223.41 157.06 222.18 158.85 222.29 159.3 222.89 159.52 223.71 159.51 225.55 159.28 234.64 161.07 248.77 161.94 249.62 165.91 248.77 167.36 247.09 168.31 246.08 168.69 245.01 168.68 244.41 168.43 244.13 168.19 244.21 167.73 243.89 167.58 242.84 167.45 241.55 168.19 241.36 168.73 241.91 169.54 242.38 171.36 242.29 173.96 240.23 179.81 239.82 182.61 239.71 187.24 240.09 189.83 240.78 191.18 241.17 191.74 241.75 192.1 244.82 192.92 245.67 193.28 247.2 194.12 247.94 195.02 248.49 195.36 249.15 195.52 249.89 195.46 250.47 195.54 250.97 195.85 251.35 196.23 251.82 196.48 252.5 196.7 253.27 197.08 253.55 197.39 253.08 198.58 252.39 202.96 252.72 203.61 252.09 204.23 250.52 205.37 249.2 205.3 247.67 204.88 245.12 204.5 244.35 204.9 242.4 206.44 243.06 211.63 242.71 214.11 242.29 215.63 241.5 216.39 240.75 216.61 239.02 216.67 235.92 216.85 228.76 221.22 Z" fill-rule="evenodd" id="CHE-3421" data-name="Fribourg"/>
<path d="M 163.77 159.12 169.48 155.89 174.94 161.16 175.52 161.5 176.56 162.22 179.44 164.93 179.93 165.22 180.32 165.25 180.54 165.11 180.73 164.78 180.78 164.49 180.81 164.1 181.11 163.9 181.61 163.7 182.25 163.57 182.77 163.55 183.12 163.68 183.53 164.04 183.89 164.63 184.08 165.36 183.56 166.1 183.26 166.88 183.23 167.69 183.7 169.29 184.36 169.95 184.85 170.23 185.7 170.03 185.92 170.04 186.11 170.23 185.97 170.79 185.4 171.54 183.64 173.02 182.57 173.52 181.78 174 181.14 174.69 180.12 176.48 180.43 178.94 175.66 183.67 174.97 184.22 174.26 184.58 171.95 185.04 171.73 185.36 172.2 186.01 172.86 186.32 173.46 186.52 175.71 186.91 175.9 187.03 175.24 188.51 170.08 193.37 163.97 199.55 162.98 201.32 162.92 201.58 163.14 201.87 163.25 202.07 162.84 202.32 161.83 202.47 159.08 202.54 157.07 202.85 154.22 204.22 152.11 204.36 151.69 206.2 151.58 207.01 151.55 209.09 151.84 211.05 152.11 212.04 152.28 212.97 152.17 213.33 151.73 213.52 151.58 213.7 151.61 214.1 151.69 214.6 151.73 215.25 151.53 216.03 151.53 216.63 151.73 216.87 153.24 216.42 154.06 216.26 155.1 216.27 156.5 216.97 159.1 216.8 161.08 216.44 161.77 216.58 162.7 216.94 164.71 218.33 165.91 218.92 166.68 219.08 168.05 218.81 168.71 218.76 169.01 218.89 168.68 219.36 167.75 220.29 163.33 223.75 162.84 224.3 162.27 224.58 160.09 223.62 159.68 223.51 158.23 223.41 155.89 223.48 155.46 223.55 153.95 225.66 155.18 228.08 157.18 230.01 157.95 230.28 159.29 230.49 161.88 230.23 163.39 229.7 164.68 229.05 167.26 227.1 169.15 227.15 171.57 227.79 181.39 232.83 182.57 234.9 183.18 236.71 183.31 237.42 183.64 238.34 184.19 239.15 184.8 239.8 185.18 240.46 185.76 240.67 185.92 240.95 190.03 239.57 190.75 238.01 191.07 237.54 191.63 236.98 193.36 235.61 196.43 233.8 197.58 233.32 198.87 232.96 204.09 232.53 205.6 231.87 207.46 230.79 210.26 228.53 211.53 227.29 213.31 226.25 223.47 224.12 228.76 221.22 229.53 222.74 229.94 223.24 230.46 223.77 230.76 224.31 230.84 225.07 230.73 226.31 230.76 227.45 230.54 228.9 229.99 230.31 228.68 232.07 227.74 232.92 227.25 233.61 227.14 234.26 227.55 236.66 227.44 237.74 226.81 238.95 225.19 240.44 222.31 241.64 221.79 242.24 222.34 243.77 222.92 244.84 223.27 246.26 223.3 247.19 221.3 251.54 223.03 252.49 225.58 254.29 226.65 254.67 227.11 255.16 227.17 255.77 226.32 256.75 225.96 257.38 226.15 260.95 224.02 262.63 220.96 264.94 220.88 265.5 221.19 267.84 220.52 269.18 218.44 271.7 215.97 274.11 212.6 276.49 210.56 277.1 206.39 280.69 200.57 283.34 193.8 285.99 191.78 284.17 190.47 282.43 186.51 278.74 175.27 265.16 174.45 263.55 173.66 260.44 171.77 259.4 169.39 259.05 167.2 258.01 166.54 256.69 166.73 255.37 167.17 254.2 167.2 253.29 166.08 251.77 163.45 249.63 162.27 248.35 160.15 249.22 151.73 248.07 148.38 247.94 148.2 246.32 146.55 244.56 146.55 244.56 143.88 243.65 117.53 238.94 105.74 238.68 94.41 240.23 79.33 247.38 73.59 248.39 67.78 248.58 62.33 249.8 56.59 253.24 51.54 257.85 47.81 261.36 46.86 263.77 47.3 264.83 39.8 266.51 31.7 261.88 29.97 260.89 33.12 256.01 32.88 254.06 30.72 251.38 28.13 249.44 19.43 245.75 19.43 245.75 18.59 245.39 20.61 244.05 20.94 242.88 20.58 241.68 20.58 240.33 20.45 239.79 20.03 239.06 19.65 238.23 19.65 237.32 20.34 236.24 22.35 234.75 28.51 227.45 34.76 222 33.4 220.95 30.49 218.7 29.94 216.37 32.31 214.23 56.1 199.24 68.76 194.45 70.52 193.43 75.18 189.82 81.05 187.68 82.91 186.72 84.9 185.01 85.58 183.54 85.51 180.55 84.19 179.56 83.26 178.69 82.77 177.69 83.02 176.83 85.8 171.08 87.03 169.56 87.37 168.97 90.63 168.58 99.74 168.27 101.27 168.08 103.07 167.45 105.51 166.13 114.13 162.99 119.47 161.74 122.2 160.52 126.88 157.81 137.31 153.5 137.89 155.68 137.48 157.38 137.94 158.45 138.9 159.36 140.36 160.16 140.88 161.07 141.02 162.06 140.91 163.75 141.23 164.89 141.54 165.61 144.48 170.07 145.36 174.7 145.99 175.98 147.96 177.36 148.4 177.57 148.81 177.63 149.58 177.55 149.85 177.68 150.13 178.02 150.05 178.37 149.72 178.77 149.25 179.19 149.09 179.59 149.33 179.78 151.55 180.51 152.11 180.62 152.77 180.65 153.54 180.76 155.4 181.38 156.2 181.54 156.77 181.57 158.23 181.42 159.24 180.93 160.45 180.61 161.24 180.57 162.48 180.33 163.25 180.59 164.16 181.04 164.95 181.34 165.72 181.43 168.22 181.48 169.12 181.39 170.49 181.09 170.9 180.88 171.45 180.52 172.75 178.42 173.46 177.58 173.49 177.2 173.19 176.94 172.09 176.82 170.77 177.26 170.44 177.06 170.16 176.58 170.82 172.95 170.99 172.35 171.2 171.77 171.53 171.2 172.34 170.03 173.41 168.85 173.46 168.28 172.91 167.74 171.07 166.73 170.03 166.38 169.2 166.28 168.57 166.34 168.35 166.24 168.68 165.72 169.2 165.41 169.81 165.14 170.96 164.79 171.31 164.82 171.71 165 172.15 165.32 172.42 165.38 171.87 164.74 171.26 164.18 163.77 159.12 Z M 165.56 187.89 166.14 186.58 165.26 185.26 163.8 184.68 162.63 184.38 162.05 183.51 161.02 182.78 160.15 183.21 159.41 183.95 158.24 185.12 157.22 185.7 155.61 187.16 154.88 188.33 152.98 188.92 151.66 189.36 150.64 189.94 150.05 190.38 150.49 191.11 151.66 191.11 153.13 190.96 155.17 189.65 156.49 189.36 158.54 190.09 160 190.53 161.61 190.96 162.92 190.53 164.24 189.65 165.56 187.89 Z M 146.84 191.7 147.71 191.11 149.03 189.94 149.32 188.63 149.18 187.31 148.15 186.58 146.98 186.58 145.52 187.6 144.35 188.63 143.18 188.63 142.74 189.5 143.47 190.38 144.35 190.96 144.79 192.13 145.67 192.43 146.84 191.7 Z M 176.29 152.04 189.59 144.53 196.9 146.55 198.13 152.5 198.82 153.79 202.5 159.03 202.97 159.3 203.57 159.55 204.67 159.88 204.78 160.24 204.42 160.72 203.1 161.74 202.69 161.87 202.34 161.73 201.84 161.31 201.38 161.2 200.79 161.28 200.13 161.85 199.56 162.66 199.12 164.28 198.76 165.17 198.3 165.91 197.8 166.44 196.29 167.7 193.2 168.81 193 168.38 192.78 167.1 190.25 164.58 188.25 163.84 187.37 162.64 176.29 152.04 Z" fill-rule="evenodd" id="CHE-3422" data-name="Vaud"/>
<path d="M 253.82 69.64 246.44 67.13 245.89 66.83 245.45 66.32 252.81 66.53 254.53 66.07 253.82 69.64 Z M 253.82 69.64 263.76 69.38 266.36 68.16 266.47 67.52 266.33 67 264.72 65.08 264.3 64.74 263.89 64.64 262.71 64.65 262.27 64.59 261.78 64.39 261.37 64.11 261.15 63.93 260.29 63 260.25 62.96 261.22 62.09 261.79 60.44 261.5 59.44 260.64 58.61 260.05 58.18 259.16 57.09 259.14 56 261.21 55.59 263.95 56.24 264.74 56.59 264.96 60.5 265.57 61.92 265.81 62.31 266.2 62.75 269.07 62.8 280.3 61.2 280.19 56.51 279.89 55.95 279.42 55.34 278 55.14 274.6 54.25 271.78 54.48 271.62 54.11 270.36 52.91 269.98 52.19 270.22 51.64 271.24 51.26 273.07 51.53 274.49 51.21 275.26 50.2 275.21 48.43 274.6 48.44 271.66 46.91 271.24 46.79 277.99 43.05 278.98 43.44 284.34 46 286.01 46.29 287.74 46.42 288.23 47.07 290.01 48.1 293.12 46.68 294.05 46.48 294.96 46.74 295.97 47.55 297.34 48.3 299.13 49.02 300.25 48.12 300.28 45.17 302.85 46.09 306.74 46.44 314.5 45.35 315.08 45.64 321.53 47.79 322.35 47.89 322.76 48.07 323.42 48.5 323.31 49.36 323.42 50.37 323.8 51.38 324.3 52 326.68 51.76 331.14 49.02 331.57 48.53 331.71 47.96 331.79 46.86 332.01 46.14 332.51 45.87 333.58 45.75 336.1 46.25 337.5 47.55 338.51 48.08 339.33 49.3 344.5 54.62 345.13 55.96 346.75 56.77 352.16 57.17 352.18 59.67 352.38 60.4 352.54 60.75 354.76 61.74 353.83 63.64 352.98 64.78 353.01 65.18 353.31 65.85 353.83 66.52 354.43 67.18 354.54 68.01 353.5 68.92 350.16 70.58 346.42 71.29 344.14 71.41 342.74 71.33 341.87 71.53 340.88 73.41 340.3 74.23 339.83 74.67 335.49 76 334.18 76.69 330.5 77.4 328.3 78.39 325.53 81.61 324.9 82.83 321.15 82.08 320.09 81.73 318.89 81.2 317.57 80.13 315.84 79.27 312.11 77.93 307.72 77.21 301.49 77.6 300.56 77.35 299.98 76.87 298.99 74.63 298.72 73.6 298.52 72.28 298.69 70.81 300.33 70.51 304.54 69.67 305.33 69.39 306.81 68.14 307.36 66.66 307.44 64.42 307.61 63.87 307.97 63.42 308.46 63.11 309.17 62.8 309.88 62.39 310.41 61.85 311.21 60.78 312.03 60.04 311.48 59.39 310.91 58.93 303.36 55.76 301.93 55.69 301.91 56.42 301.49 56.87 300.78 57.2 296 56.86 294.55 57.08 293.42 59.07 296.14 59.98 296.58 60.6 296.69 61.02 294.66 64.93 292.49 66.44 288.48 66.67 287.52 66.94 287.38 67.94 287.57 68.64 287.99 69.22 287.74 69.58 286.83 69.77 281.76 70.05 281.08 70.24 280.41 70.63 279.89 71.54 279.26 72.31 278.46 73.11 277.17 73.66 275.5 73.97 272.62 73.67 269.6 72.49 268.33 72.34 265.92 72.7 263.18 75.62 261.26 75.61 260.7 75.4 260.1 75.02 259.83 73.61 258.59 72.26 253.82 69.64 Z" fill-rule="evenodd" id="CHE-3423" data-name="Basel-Landschaft"/>
<path d="M 284.26 86.43 282.91 89.15 281.87 90 280.22 90.78 274.43 92.04 273.2 92.56 271.69 93.38 269.68 94.89 268.03 95.85 264.08 96.93 260.35 99.1 260.81 100.34 247.56 104.4 247.09 105.24 248 106.69 248.63 107.33 249.12 108.35 249.67 108.83 250.52 109.17 252.48 109.67 253.33 110.09 253.77 110.64 254.97 112.68 255.08 113.22 254.97 113.6 254.89 113.98 255.3 114.18 256.4 114.36 258.23 114.13 259.66 113.6 261.04 112.42 262.63 111.43 263.59 110.67 265.04 110.41 266.36 109.65 267.29 109.31 270.03 108.93 270.45 111.2 270.69 112.04 271.28 112.51 272.1 112.97 272.7 113.6 272.1 114.53 270.17 115.44 268.94 115.63 267.87 115.44 267.02 115.1 266.42 115.1 264.47 116.2 263.37 117.33 263.04 118.18 263.4 119.87 263.26 120.72 261.92 121.26 258.78 121.84 257.96 121.9 256.15 121.57 255.03 121.6 253.03 121.36 252.45 121.49 252.18 122.26 252.37 122.82 252.86 123.5 253.46 124.16 254.53 125.68 255.55 126.26 256.18 126.47 261.23 125.48 262.71 125.29 263.12 125.37 263.26 126.98 264.8 129.36 268.06 128.6 269.18 128.13 269.82 127.53 269.95 126.52 269.68 125.68 268.77 124.11 268.75 123.35 269.35 122.84 274.07 121.35 276.62 119.78 281.27 115.16 283.74 113.52 285.71 113.31 290.45 115.55 298.61 115.72 299.68 115.61 301.52 114.32 302.62 113.18 304.26 112.58 304.84 112.21 305.31 111.63 305.58 111.08 305.28 110.07 304.37 108.63 301.85 105.53 299.02 102.68 295.78 101.68 292.49 98.97 292.35 97.61 291.81 96.34 291.59 95.68 289.05 93.61 300.86 92.61 307.25 90.66 313.24 95.55 315.3 96.44 320.18 96.61 323.61 95.74 325.29 96.15 331.41 95.13 331.85 98.58 332.01 99.01 334.32 101.7 338.9 108.87 339.69 109.89 340.63 111.45 341.21 112.85 341.23 114.65 342.77 120 341.34 121.75 340.8 122.94 340.47 124.76 340.47 128.26 339.91 131.86 339.91 132.95 340.33 134.19 341.84 135.6 343.07 137.05 343.98 137.81 344.61 140.67 349.27 140.96 350.54 141.68 354.32 142.22 353.17 146.31 352.68 147.06 352.07 148.67 351.66 149.16 351.06 149.73 350.73 150.21 350.54 151.31 350.35 151.85 350.01 152.22 349.08 152.7 348.8 153.04 348.42 153.73 347.87 154.38 347.02 154.81 346.12 154.91 344.69 154.68 344.25 154.74 342.93 155.34 341.4 155.75 340.74 156.08 340.44 156.83 340.41 157.88 340.8 160.03 340.66 161.31 340.07 162.33 338.43 163.46 338.13 164.29 339.75 167.8 339.83 169.18 342.58 171.23 354.27 177.65 356.35 179.87 358.68 181.82 359.78 182.03 361.16 181.85 363.79 180.83 366.86 179.97 370.46 180.14 376.06 180.34 379.46 180.86 385.44 183.55 387.25 184.41 389.37 185.07 390.69 185.33 391.62 185.2 395.79 184.09 397.88 183.8 407.12 184.59 410.53 185.33 412.26 185.37 414.18 184.85 420.11 182.02 427.85 179.93 431.99 182.48 433.67 183.44 434.87 182.99 437.23 182.66 438.14 182.66 441.66 183.52 440.15 185.97 439.96 186.81 440.12 188.45 440.67 189.51 441.66 190.93 441.96 191.63 442.01 192.61 442.31 193.32 442.45 194.05 442.42 194.81 442.23 195.88 441.98 196.69 441.38 197.34 440.09 197.56 438.69 197.51 435.75 196.98 434.63 197.09 433.78 197.77 433.83 199.87 434.6 201.32 435.15 203.61 433.23 203.81 429.86 206.71 428.8 208.19 428.09 209.6 427.02 212.37 426.12 216.25 425.38 217.25 424.47 218.14 422.64 219.42 419.87 220.65 417.99 221.76 409.85 224.91 405.62 225.95 396.39 227.26 395.35 227.29 394.45 227.1 393.87 226.79 393.71 226.23 393.71 225.77 393.65 225.44 393.41 225.33 388.68 224.98 384.43 223.7 382.92 222.79 367.82 220.81 363.27 220.98 357.5 223.44 356.9 223.8 356.57 224.07 356.54 224.31 356.82 224.7 357.28 225.22 357.67 225.8 357.92 226.39 357.94 226.96 357.28 227.84 356.74 228.36 351.86 230.51 345.38 233.69 341.65 234.68 340.05 234.87 337.36 234.88 335.3 234.44 313.76 245.26 311.68 245.38 299.98 241.5 296.3 241.15 295.45 241.46 294.9 241.8 294.63 242.32 294.41 242.98 294.03 243.36 292.14 244.4 291.59 244.82 285.6 246.07 281.54 247.82 282.58 248.78 284.89 249.67 282.31 251.26 275.99 253.13 274.46 253.4 273.36 253.42 272.32 253.24 271.85 253.05 267.62 252.18 259.91 252.23 257.36 252.61 256.95 252.78 256.56 253.03 254.86 254.45 250.82 256.39 244.16 257.92 243.12 257.56 242.05 257.33 241.86 256.92 241.88 256.36 242.05 255.48 241.94 254.24 241.44 253.85 240.39 253.85 234.66 255.19 234.06 255.43 233.81 255.69 233.73 256.2 233.68 256.83 232.3 258.43 226.15 260.95 225.96 257.38 226.32 256.75 227.17 255.77 227.11 255.16 226.65 254.67 225.58 254.29 223.03 252.49 221.3 251.54 223.3 247.19 223.27 246.26 222.92 244.84 222.34 243.77 221.79 242.24 222.31 241.64 225.19 240.44 226.81 238.95 227.44 237.74 227.55 236.66 227.14 234.26 227.25 233.61 227.74 232.92 228.68 232.07 229.99 230.31 230.54 228.9 230.76 227.45 230.73 226.31 230.84 225.07 230.76 224.31 230.46 223.77 229.94 223.24 229.53 222.74 228.76 221.22 235.92 216.85 239.02 216.67 240.75 216.61 241.5 216.39 242.29 215.63 242.71 214.11 243.06 211.63 242.4 206.44 244.35 204.9 245.12 204.5 247.67 204.88 249.2 205.3 250.52 205.37 252.09 204.23 252.72 203.61 252.39 202.96 253.08 198.58 253.55 197.39 253.27 197.08 252.5 196.7 251.82 196.48 251.35 196.23 250.97 195.85 250.47 195.54 249.89 195.46 249.15 195.52 248.49 195.36 247.94 195.02 247.2 194.12 245.67 193.28 244.82 192.92 241.75 192.1 241.17 191.74 240.78 191.18 240.09 189.83 239.71 187.24 239.82 182.61 240.23 179.81 242.29 173.96 242.38 171.36 241.91 169.54 241.36 168.73 241.55 168.19 242.84 167.45 243.89 167.58 244.21 167.73 244.13 168.19 244.41 168.43 245.01 168.68 246.08 168.69 247.09 168.31 248.77 167.36 249.62 165.91 248.77 161.94 234.64 161.07 225.55 159.28 223.71 159.51 222.89 159.52 222.29 159.3 222.18 158.85 223.41 157.06 223.88 156.03 224.07 155.15 223.63 153.28 223.52 152.15 223.33 151.38 222.92 150.69 221.93 149.54 221.88 149.06 222.23 148.77 224.51 147.99 225.47 147.46 227.31 145.9 227.69 145.25 226.54 144.1 226.35 143.06 226.32 142.92 226.18 142.69 225.69 142.27 224.04 141.96 219.92 143.16 211.11 145.59 196.9 146.55 189.59 144.53 191.27 141.34 192.1 140.09 193.06 137.16 193.61 136.35 194.26 135.8 198.21 134.65 198.9 134.34 200.05 133.64 200.54 133.42 201.17 133.24 201.7 133.04 201.98 132.7 202.12 132.31 202.2 132 202.2 131.51 202.17 131.05 201.87 129.67 201.7 129.21 201.54 128.92 201.4 128.62 201.35 128.34 201.54 128.14 201.81 128 202.25 127.8 202.5 127.61 202.53 127.31 201.84 126.54 200.46 125.72 195.33 123.75 192.89 123.31 192.78 120.88 191.55 121.1 164.6 126.82 164.16 126.83 164.08 125.72 164.49 124.46 164.68 124.29 165.36 123.82 165.56 123.58 165.72 123.31 166.43 121.06 166.63 119.9 166.43 119.18 166.02 118.25 164.95 116.68 162.95 114.86 159.29 113.5 164.16 113.76 165.78 114.66 166.38 115.14 167.12 115.41 168.49 115.16 170.46 114.36 176.81 111.02 178.86 110.24 182.88 110.35 184.71 110.09 186.63 108.77 188.28 107.96 191.1 106.95 192.98 105.67 194.24 104.49 195.09 103.34 196.38 102.03 196.65 101.61 196.81 101.32 197.14 100.32 197.86 99.84 199.01 99.69 204.53 100.04 213.23 98.93 214.13 98.31 213.78 97.58 213.45 96.32 213.42 95.75 213.5 95.35 213.83 94.81 215.62 93.92 216.33 93.4 216.66 92.73 216.36 91.96 216.79 90.15 231.7 92.21 235.07 92.07 237.79 91.68 242.32 90.57 244.35 89.7 245.72 88.95 246.46 88.44 247.29 88.04 248.71 87.62 249.7 86.97 250.36 86.35 250.71 85.58 251.13 85.27 251.63 85.4 252.26 86.27 252.61 86.92 254.34 87.41 273.69 88.47 284.26 86.43 Z M 227.28 154.3 227.69 153.97 227.91 153.73 227.85 153.1 225.22 153.61 225.82 154.51 226.35 154.42 226.73 154.46 227.28 154.3 Z M 284.72 85.99 281.4 85.7 280.77 85.42 280.63 84.85 281.05 83.68 283.93 81.85 285.27 82.1 285.74 82.46 286.23 82.96 286.53 83.68 286.67 84.47 286.48 85.4 286.23 85.91 284.72 85.99 Z" fill-rule="evenodd" id="CHE-3424" data-name="Bern"/>
<path d="M 300.28 45.17 300.25 48.12 299.13 49.02 297.34 48.3 295.97 47.55 294.96 46.74 294.05 46.48 293.12 46.68 290.01 48.1 288.23 47.07 287.74 46.42 286.01 46.29 284.34 46 278.98 43.44 277.99 43.05 278.96 42.51 283.2 40.91 289.42 39.33 289.51 39.3 298.53 37.47 302.54 37.19 300.21 41.61 298.33 42.84 294.17 42.82 293.71 42.82 300.28 45.17 Z" id="CHE-3425" data-name="Basel-Stadt"/>
<path d="M 253.82 69.64 254.53 66.07 257.73 65.19 260.25 62.96 260.29 63 261.15 63.93 261.37 64.11 261.78 64.39 262.27 64.59 262.71 64.65 263.89 64.64 264.3 64.74 264.72 65.08 266.33 67 266.47 67.52 266.36 68.16 263.76 69.38 253.82 69.64 Z M 354.76 61.74 357.5 62.08 359.04 63.34 359.34 63.91 359.4 64.49 359.23 64.85 359.42 66.44 360.61 66.94 361.38 69.39 362.2 70.2 363.74 71.19 365.46 71.85 367.69 72.28 367.88 75.64 366.59 77.65 364.59 79.71 362.17 83.54 360.75 84.18 359.48 84.64 348.2 83.48 346.66 83.07 345.38 82.87 337.52 87.76 337 88.22 332.73 94 331.41 95.13 325.29 96.15 323.61 95.74 320.18 96.61 315.3 96.44 313.24 95.55 307.25 90.66 300.86 92.61 289.05 93.61 291.59 95.68 291.81 96.34 292.35 97.61 292.49 98.97 295.78 101.68 299.02 102.68 301.85 105.53 304.37 108.63 305.28 110.07 305.58 111.08 305.31 111.63 304.84 112.21 304.26 112.58 302.62 113.18 301.52 114.32 299.68 115.61 298.61 115.72 290.45 115.55 285.71 113.31 283.74 113.52 281.27 115.16 276.62 119.78 274.07 121.35 269.35 122.84 268.75 123.35 268.77 124.11 269.68 125.68 269.95 126.52 269.82 127.53 269.18 128.13 268.06 128.6 264.8 129.36 263.26 126.98 263.12 125.37 262.71 125.29 261.23 125.48 256.18 126.47 255.55 126.26 254.53 125.68 253.46 124.16 252.86 123.5 252.37 122.82 252.18 122.26 252.45 121.49 253.03 121.36 255.03 121.6 256.15 121.57 257.96 121.9 258.78 121.84 261.92 121.26 263.26 120.72 263.4 119.87 263.04 118.18 263.37 117.33 264.47 116.2 266.42 115.1 267.02 115.1 267.87 115.44 268.94 115.63 270.17 115.44 272.1 114.53 272.7 113.6 272.1 112.97 271.28 112.51 270.69 112.04 270.45 111.2 270.03 108.93 267.29 109.31 266.36 109.65 265.04 110.41 263.59 110.67 262.63 111.43 261.04 112.42 259.66 113.6 258.23 114.13 256.4 114.36 255.3 114.18 254.89 113.98 254.97 113.6 255.08 113.22 254.97 112.68 253.77 110.64 253.33 110.09 252.48 109.67 250.52 109.17 249.67 108.83 249.12 108.35 248.63 107.33 248 106.69 247.09 105.24 247.56 104.4 260.81 100.34 260.35 99.1 264.08 96.93 268.03 95.85 269.68 94.89 271.69 93.38 273.2 92.56 274.43 92.04 280.22 90.78 281.87 90 282.91 89.15 284.26 86.43 284.72 85.99 286.23 85.91 286.48 85.4 286.67 84.47 286.53 83.68 286.23 82.96 285.74 82.46 285.27 82.1 283.93 81.85 281.08 80.24 279.42 78.37 277.94 77.63 276.49 77.29 275.2 77.35 271.77 77.11 263.18 75.62 265.92 72.7 268.33 72.34 269.6 72.49 272.62 73.67 275.5 73.97 277.17 73.66 278.46 73.11 279.26 72.31 279.89 71.54 280.41 70.63 281.08 70.24 281.76 70.05 286.83 69.77 287.74 69.58 287.99 69.22 287.57 68.64 287.38 67.94 287.52 66.94 288.48 66.67 292.49 66.44 294.66 64.93 296.69 61.02 296.58 60.6 296.14 59.98 293.42 59.07 294.55 57.08 296 56.86 300.78 57.2 301.49 56.87 301.91 56.42 301.93 55.69 303.36 55.76 310.91 58.93 311.48 59.39 312.03 60.04 311.21 60.78 310.41 61.85 309.88 62.39 309.17 62.8 308.46 63.11 307.97 63.42 307.61 63.87 307.44 64.42 307.36 66.66 306.81 68.14 305.33 69.39 304.54 69.67 300.33 70.51 298.69 70.81 298.52 72.28 298.72 73.6 298.99 74.63 299.98 76.87 300.56 77.35 301.49 77.6 307.72 77.21 312.11 77.93 315.84 79.27 317.57 80.13 318.89 81.2 320.09 81.73 321.15 82.08 324.9 82.83 325.53 81.61 328.3 78.39 330.5 77.4 334.18 76.69 335.49 76 339.83 74.67 340.3 74.23 340.88 73.41 341.87 71.53 342.74 71.33 344.14 71.41 346.42 71.29 350.16 70.58 353.5 68.92 354.54 68.01 354.43 67.18 353.83 66.52 353.31 65.85 353.01 65.18 352.98 64.78 353.83 63.64 354.76 61.74 Z M 264.74 56.59 266.25 57.24 268.54 57.47 271.24 55.81 271.55 55.52 271.79 55.01 271.81 54.55 271.78 54.48 274.6 54.25 278 55.14 279.42 55.34 279.89 55.95 280.19 56.51 280.3 61.2 269.07 62.8 266.2 62.75 265.81 62.31 265.57 61.92 264.96 60.5 264.74 56.59 Z" fill-rule="evenodd" id="CHE-3426" data-name="Solothurn"/>
<path d="M 441.66 183.52 438.14 182.66 437.23 182.66 434.87 182.99 433.67 183.44 431.99 182.48 437.04 181.38 437.45 181.05 437.12 180.44 436.6 180.08 433.83 179.29 433.15 178.88 432.63 178.42 431.94 177.57 431.36 177.12 431.09 176.88 430.93 176.69 430.84 176.42 430.68 175.65 430.43 175.29 429.11 174.71 428.67 174.43 428.67 173.97 428.78 173.37 428.72 172.77 427.71 170.53 427.46 169.69 427.13 167.62 426.53 166.79 426.45 166.19 427.1 165.31 427.85 164.96 428.48 165.1 429.41 166.02 429.41 166.69 429.38 167.19 429.24 167.58 429.24 167.78 429.58 167.82 430.24 167.69 433.61 166.16 434.41 166.13 435.23 166.38 435.89 167.45 437.73 168.44 446.32 168.22 448.18 168.11 448.81 168.41 450.3 168.65 450.77 168.96 451.07 169.33 451.18 169.65 450.96 170.07 450.44 170.61 449.11 171.61 448.15 172.85 447.14 175.12 446.73 176.39 445.96 177.44 446.37 178.16 446.81 178.44 447.33 178.68 447.5 179.09 447.63 179.69 447.93 180.57 447.74 181.45 447.39 182.31 441.66 183.52 Z M 427.85 179.93 420.11 182.02 414.18 184.85 412.26 185.37 410.53 185.33 407.12 184.59 397.88 183.8 395.79 184.09 391.62 185.2 390.69 185.33 389.37 185.07 387.25 184.41 385.44 183.55 379.46 180.86 376.06 180.34 370.46 180.14 373.34 176.99 372.41 174.24 371.53 172.97 370.96 171.13 371.37 170.2 374.44 165.38 375.07 162.85 375.73 161.56 376.3 160.7 377.59 159.42 378.33 158.99 379.18 158.76 380.18 158.73 380.76 158.79 381.09 158.99 381.33 159.42 381.74 159.6 382.51 159.44 386.73 155.77 390.31 153.5 390.58 152.62 390.39 151.74 389.72 150.16 390.12 149.7 393.08 148.36 402.9 147.72 405.89 147.23 406.93 146.91 407.87 146.53 408.63 146.34 409.35 146.34 416.1 147.75 416.68 148.03 417.14 148.49 416.87 149.39 416.57 150.12 416.07 150.94 415.58 151.54 415 152.1 414.56 152.71 414.32 153.89 415.22 154.69 416.29 155.37 420.47 156.71 421.35 157.27 421.7 158 421.68 162.72 421.43 163.54 420.58 165.55 420.36 169.13 420.09 170.81 420.52 174.98 424.17 178.43 427.85 179.93 Z" fill-rule="evenodd" id="CHE-3427" data-name="Obwalden"/>
<path d="M 611.02 99.01 606.02 100.31 604.9 100.27 603.33 100.05 602.1 99.51 600.56 99.09 598.23 97.93 597.32 96.09 597.04 95.34 596.36 93.94 595.97 93.4 595.48 92.84 594.11 91.61 593.48 90.54 593.15 89.01 593.64 84.87 594.25 83.83 596.82 82.39 598.29 81.23 599.27 80 600.21 78.32 600.37 76.11 600.34 74.81 601.47 74.07 620.27 80.08 625.94 80.2 622.93 90.27 619.47 94.68 617.02 96.54 614.47 97.8 611.02 99.01 Z M 634.81 69.96 635.19 72.44 632.7 71.58 630.45 71.82 625.67 73.08 626.19 71.09 628.04 70.41 630.12 69.72 630.51 69.36 630.29 68.98 629.76 68.69 629.52 68.51 629.55 68.35 629.74 68.06 629.82 67.76 630.01 67.35 630.48 67.1 631.19 66.78 631.68 66.41 632.26 66.09 632.95 65.99 634.07 66.62 634.89 67.19 635.61 67.89 635.77 68.51 635.74 69.3 634.81 69.96 Z M 647.21 63.15 643.13 65.91 642.74 66.34 642.44 67.64 636.87 65.75 636.59 65.38 636.59 64.66 639.92 64.8 642.61 64.44 647.21 63.15 Z" fill-rule="evenodd" id="CHE-3473" data-name="Appenzell Innerrhoden"/>
</g>
</svg>