<?xml version="1.0"?>
<svg xmlns="http://www.w3.org/2000/svg" version="1.2" baseProfile="tiny" width="800" height="603" viewBox="0 0 800 603" stroke-linecap="round" stroke-linejoin="round">
<g id="ne_10m_admin_1_states_provinces">
<path d="M 52.8 181.22 52.88 181.67 52.8 181.81 52.54 182.48 52.38 182.8 52.19 183.24 52.1 183.69 52.13 184.12 52.26 184.52 52.79 184.86 53.6 185.11 55.33 185.24 56.26 185.21 56.93 185.1 57.96 184.78 58.95 184.6 67.11 184.26 67.69 184.39 68.17 184.65 68.6 185.12 68.77 185.58 68.77 186.07 68.66 186.54 67.75 187.51 64.73 189.17 62.79 190.56 62.29 191.61 62.09 194.65 61.85 195.4 61.53 195.93 59.71 196.96 58.5 197.98 58.15 198.61 58.09 199.11 58.3 199.47 59.71 201.05 60.14 201.75 60.43 202.53 60.75 203.87 61.08 207.63 60.62 215.62 58.31 228.84 58.39 229.28 59.13 231.58 61.12 236.23 64.21 248.36 64.51 253.03 59.89 251.16 58.3 251.04 56.63 251.86 55.76 252.2 55.28 252.34 37.25 253.5 36.4 253.34 32.95 250.87 31.09 249.9 25.96 248.48 25.92 248.47 24.01 245.3 25.65 241.27 25.07 239.23 24.18 231.46 24.45 229.74 23.24 228.77 17.46 222.37 15 221.38 13.8 220.65 13.29 219.47 12.39 218.79 10.46 219.04 8.6 219.6 7.94 219.91 6.65 219.36 6.83 218.01 7.44 216.37 7.56 214.93 6.83 214.31 2.64 212.47 2.84 211.88 3.1 210.69 3.39 210.02 2.64 210.02 1 210.76 1 210.02 3.4 209.32 5.79 208.08 7.61 206.34 8.31 204.21 8.04 202.86 6.97 201.22 6.73 199.74 7.38 198.86 10.19 198.1 14.81 190.83 15.03 190.19 15 187.38 14.5 185.09 13.23 182.27 11.61 179.64 10.02 177.93 15.81 178.22 18.69 177.67 19.91 175.89 20.41 173.57 23.54 169.76 24.68 170.08 27.05 169.69 29.46 168.97 31.81 168.67 33.31 170.06 33.34 171.61 32.98 173.18 33.26 174.61 34.64 175.59 36.5 175.95 40.26 176.04 43.8 177.38 50.78 181.51 52.8 181.22 Z" id="SYR-134" data-name="Lattakia"/>
<path d="M 64.51 253.03 64.59 255.31 65.96 269.46 65.98 271.3 64.99 274.08 64.62 274.77 64.21 275.22 63.39 275.68 62.96 275.99 62.14 276.78 61.68 276.99 59.99 277.11 59.5 277.25 58.76 277.72 58.3 277.86 57.22 278 56.71 278.12 56.28 278.3 55.54 278.78 55.15 278.99 54.68 279.08 54.16 279.06 53.05 278.88 51.84 278.93 50.59 279.57 51.45 282.79 57.04 283.7 58.98 283.77 63.6 283.41 64.66 283.61 65.37 283.87 66.09 285.36 66.58 287.03 66.93 287.79 67.17 288.13 67.63 288.51 70.7 290.3 71.29 290.91 71.73 291.71 69.53 292.27 68.6 292.59 68.21 292.82 68.03 292.95 67.71 293.25 67.54 293.58 67.34 294.07 67.08 295.13 67 295.67 66.98 296.08 67.21 297.23 67.23 298.03 67.19 298.28 66.97 298.64 66.58 299.04 63.46 301.28 61.59 303.25 61.08 303.67 60.67 303.92 59.89 304.1 59.67 304.19 59.48 304.31 59.32 304.45 56.54 307.57 48.35 319.79 48.09 320.61 47.91 322.99 47.63 324.23 47.62 324.26 44.64 324.08 41.46 324.46 38.72 324.39 36.12 323.77 34.02 322.36 33.14 322.02 32.09 321.78 30.56 321.82 30.06 319.59 27.87 315.87 27.09 312.66 25.92 310.9 25.65 309.83 25.65 304.93 25.3 304.18 23.19 301.21 22.73 300.01 22.07 297.49 18.21 288.92 18.93 288.6 19.01 288.03 19.73 287.26 19.94 286.43 19.73 285.6 19.01 284.83 19.01 284.01 19.61 283.48 19.65 283.41 19.38 283.23 19.01 282.37 19.97 280.69 20.67 279.81 21.62 279.02 22.25 277.2 21.86 275.44 21.15 273.84 20.73 272.47 20.73 266.73 21.49 265.31 27.13 258.17 29.67 256.09 28.57 252.87 25.92 248.47 25.96 248.48 31.09 249.9 32.95 250.87 36.4 253.34 37.25 253.5 55.28 252.34 55.76 252.2 56.63 251.86 58.3 251.04 59.89 251.16 64.51 253.03 Z" id="SYR-135" data-name="Tartus"/>
<path d="M 446.94 76.86 449.76 83.62 450.82 85.6 456.9 91.93 458.52 93.08 459.54 93.47 460.77 93.71 462.04 93.79 464.23 93.59 465.24 93.38 467.12 92.78 467.62 92.68 468.15 92.62 468.74 92.65 469.32 92.74 480.35 96.44 487.82 99.83 489.12 100.91 489.9 101.9 490.08 102.28 490.23 102.74 490.46 104.29 482.62 132.6 470.9 176.17 469.64 183.58 469.62 184.83 470.45 185.09 473.95 187 474.92 187.38 473.91 188.97 423 249.93 356.09 235.18 320.85 232.95 310.22 233.98 308.38 231.68 306.98 230.47 302.2 227.55 279.15 207.5 277.39 205.64 277.11 205.21 276.85 204.7 276.61 203.9 276.53 203.29 276.53 202.72 277.2 198.46 280.26 187.59 283.62 180.9 284.68 179.46 285.28 178.81 285.61 178.53 290.19 173.15 292.58 171.18 293.19 170.56 293.45 170.2 294.29 168.52 294.83 167.08 295.03 166.76 295.27 166.25 295.46 165.65 295.65 164.39 295.48 163.71 295.05 163.13 290.25 159.9 290.17 159.83 288.65 157.67 287.07 156.02 285.33 154.6 284.24 153.39 283.16 151.66 281.69 148.1 281.21 146.17 281.04 144.7 281.21 143.82 281.48 143 281.95 142.18 284.57 138.88 286.06 136.06 287.16 134.35 288.44 132.9 289.76 131.76 290.43 131.32 292.43 130.41 297.38 128.36 300.69 127.68 305.17 127.54 325.03 124.87 334.82 120.49 342.69 116.01 344.12 114.94 345.2 113.96 349.76 108.4 351.2 106.04 351.96 103.98 352.89 99.9 352.89 99.88 352.89 99.82 353.79 96.35 354.33 92.97 354.51 84.91 354.44 84.46 354.31 84.05 354.14 83.67 353.84 83.37 353.45 83.12 352.94 82.99 352.44 82.96 351.94 83.06 351.08 83.43 348.18 85.5 346.99 86.16 346.02 86.44 345.5 86.48 344.98 86.46 344.55 86.31 344.16 86.07 343.77 85.42 343.34 84.44 342.73 82.31 342.64 81.3 342.79 80.61 343.19 80.42 343.68 80.3 349.71 79.62 350.3 79.36 350.86 78.89 351.55 77.8 351.79 77.09 351.85 76.49 351.77 76.05 350.22 70.66 350.22 70.66 353.69 73.61 360.99 76.67 369.43 77.55 388.93 76.8 391.57 76.17 397.83 75.81 416.26 80.8 422.7 80.59 446.94 76.86 Z" id="SYR-136" data-name="Ar Raqqah"/>
<path d="M 350.22 70.66 350.22 70.66 351.77 76.05 351.85 76.49 351.79 77.09 351.55 77.8 350.86 78.89 350.3 79.36 349.71 79.62 343.68 80.3 343.19 80.42 342.79 80.61 342.64 81.3 342.73 82.31 343.34 84.44 343.77 85.42 344.16 86.07 344.55 86.31 344.98 86.46 345.5 86.48 346.02 86.44 346.99 86.16 348.18 85.5 351.08 83.43 351.94 83.06 352.44 82.96 352.94 82.99 353.45 83.12 353.84 83.37 354.14 83.67 354.31 84.05 354.44 84.46 354.51 84.91 354.33 92.97 353.79 96.35 352.89 99.82 352.89 99.88 352.89 99.9 351.96 103.98 351.2 106.04 349.76 108.4 345.2 113.96 344.12 114.94 342.69 116.01 334.82 120.49 325.03 124.87 305.17 127.54 300.69 127.68 297.38 128.36 292.43 130.41 290.43 131.32 289.76 131.76 288.44 132.9 287.16 134.35 286.06 136.06 284.57 138.88 281.95 142.18 281.48 143 281.21 143.82 281.04 144.7 281.21 146.17 281.69 148.1 283.16 151.66 284.24 153.39 285.33 154.6 287.07 156.02 288.65 157.67 290.17 159.83 290.25 159.9 295.05 163.13 295.48 163.71 295.65 164.39 295.46 165.65 295.27 166.25 295.03 166.76 294.83 167.08 294.29 168.52 293.45 170.2 293.19 170.56 292.58 171.18 290.19 173.15 285.61 178.53 285.28 178.81 284.68 179.46 283.62 180.9 280.26 187.59 277.2 198.46 276.53 202.72 276.53 203.29 276.61 203.9 276.85 204.7 277.11 205.21 277.39 205.64 279.15 207.5 302.2 227.55 251.07 227.67 240.91 226.44 235.54 225.14 233.51 224.4 225.54 219.85 225.48 219.81 223.18 218.5 203.47 219.67 196.49 219.6 195.62 219.38 194.57 218.97 190.27 216.61 180.06 213.69 175.05 211.99 174.44 211.65 172.64 210.2 171.89 209.75 171.22 209.45 170.23 209.17 169.62 208.88 165.84 205.2 165.17 204.38 164.72 202.23 164.39 201.43 163.59 200.52 162.53 198.77 160.78 194.24 161.39 193.4 162.14 192.91 163.49 192.43 163.9 192.22 164.65 191.72 165.23 191.21 165.64 190.79 166.08 190.08 166.23 189.62 166.31 189.13 166.29 188.66 166.21 188.22 165.86 187.72 165.27 187.19 161.78 185.21 159.37 183.31 157.88 182.53 156.05 182.32 155.47 182.18 154.97 182.01 154.21 181.3 153.26 180.15 147.18 171.24 140.75 163.59 140.59 163.15 140.51 162.68 140.53 161.67 140.29 157.89 140.09 157.02 139.82 156.21 139.1 155.66 137.95 154.98 127.91 151.19 126.83 150.64 125.74 149.84 124.63 148.81 123.76 147.37 121.27 144.73 122.76 142.69 126.76 140.05 127.41 139.45 127.97 138.79 128.55 138.22 128.82 138.02 129.07 137.88 130.24 137.33 130.57 137.05 131.46 136.1 133.87 134.13 134.46 133.5 134.97 132.76 135.17 132.33 135.3 131.84 135.28 131.19 134.8 130.38 131.65 127.11 127.97 124.31 127.32 123.28 127.06 121.42 126.91 121.01 126.7 120.65 126.44 120.32 126.07 120.06 125.46 120 124.63 120.17 122.12 121.72 121.51 121.89 117.62 121.85 113.47 122.58 111.98 123.23 111.97 123.21 110.58 121.9 108.62 121.28 104.67 120.94 103.45 119.98 104 119.95 104.67 118.87 105.45 117.07 105.47 116.01 105.34 115.1 105 114.28 104.42 113.48 103.84 113.14 101.94 112.45 101.1 111.85 100.46 110.95 98.2 104.43 97.89 102.45 98.39 100.65 101.98 96.03 102.53 90.85 102.45 85.52 104.07 80.45 105.5 77.65 105.91 75.29 106 72.97 106.52 70.31 108.01 67.96 109.97 65.83 111.32 63.52 110.91 60.58 112.03 60.53 113.16 60.65 113.28 60.69 135.36 66.85 142.93 67.24 145.22 67.67 147.62 68.43 149.87 69.49 151.72 70.88 155.37 73.61 156.32 75.15 156.44 77.65 155.4 81.5 155.85 82.87 158.1 84.49 160.47 85.55 161.58 85.29 162.51 84.16 164.37 82.64 166.63 81.82 168.61 81.95 170.58 82.44 172.83 82.67 180.45 81.09 183.12 80.91 202.61 83.81 207.61 83.84 216.73 79.11 225.27 74.68 232.55 72.09 252.42 68.68 271.64 61.59 274.99 60.86 277.16 59.75 288.79 53.8 296.83 51.3 300.93 50.95 308.8 51.76 331.6 57.27 337.52 59.91 350.22 70.66 Z" id="SYR-137" data-name="Aleppo"/>
<path d="M 180.06 213.69 190.27 216.61 194.57 218.97 195.62 219.38 196.49 219.6 203.47 219.67 223.18 218.5 225.48 219.81 225.54 219.85 233.51 224.4 235.54 225.14 240.91 226.44 251.07 227.67 302.2 227.55 306.98 230.47 308.38 231.68 310.22 233.98 310.38 236.06 310.01 249.41 309.45 251.38 308.17 253.88 307.02 255.63 304.09 259.19 303.63 259.99 303.07 261.29 302.77 262.26 302.59 263.32 302.57 264.31 303.2 268.31 302.79 268.87 301.94 269.5 286.12 275.28 284.14 276.52 280.87 279.03 280.37 279.54 280.31 279.81 280.31 279.84 280.2 280.82 280.11 281.04 280 281.23 279.87 281.4 279.15 282.16 279.03 282.36 278.43 283.58 277.83 284.47 277.74 284.67 277.67 284.9 277.67 285.14 277.74 286.14 277.72 286.67 277.63 287.16 277.56 287.37 277.46 287.57 277.37 287.77 277.22 287.93 277 288.29 276.89 288.49 276.76 288.93 276.57 289.33 276.44 289.51 274.23 291.53 273.97 291.66 273.07 291.97 272.68 292.03 272.36 292 271.69 291.43 267.04 286.52 265.98 285.19 265.18 284.49 258.4 279.91 258.18 279.79 258.16 279.79 257.77 279.57 256.73 278.78 256.28 278.33 256.17 278.14 256.1 277.93 255.73 276.35 255.62 275.1 255.45 274.42 254.89 272.71 254.78 272.53 254.65 272.37 254 271.82 253.85 271.65 253.74 271.48 253.55 271.09 253.48 270.88 253.27 270.5 252.9 269.99 252.32 269.37 252.16 269.24 251.74 269 251.54 268.91 251 268.78 248.62 268.74 248 268.68 247.48 268.55 247.04 268.37 246.65 268.15 246.46 268.01 245.1 266.67 244.37 266.15 243.55 265.73 243.31 265.65 242.94 265.6 242.48 265.6 232.52 267.53 226.96 269.15 225.32 269.44 224.79 269.47 223.72 269.43 223.07 269.6 222.27 269.93 218.54 272.12 216.2 273.15 215.38 273.63 214.86 274.04 214.71 274.19 214.6 274.36 214.19 275.13 214.02 275.56 213.74 277.22 213.76 280.32 213.84 280.81 214.4 282.24 214.53 282.69 214.54 282.93 214.53 283.17 214.47 283.4 214.38 283.6 214.17 283.92 214.06 284.01 213.93 284.1 213.74 284.21 213.39 284.28 212.91 284.29 211.93 284.13 211.49 283.97 211.17 283.81 210.76 283.34 209.67 281.8 209.5 281.66 209.29 281.54 208.81 281.4 208.22 281.34 206.82 281.4 205.93 281.25 205.22 281.25 203.65 281.44 202.97 281.43 202.52 281.54 201.94 281.75 200.88 282.36 200.16 282.64 199.29 282.83 198.24 282.73 197.33 282.51 196.12 281.83 195.9 281.73 195.63 281.67 195.26 281.75 194.84 281.98 194.24 282.64 194.04 283.05 193.96 283.39 193.96 283.64 193.94 283.88 193.72 284.02 193.35 284.1 191.47 283.71 190.18 283.71 189.88 283.76 189.55 283.88 189.18 284.1 188.86 284.55 188.69 284.87 188.41 285.82 188.3 286 188.15 286.15 187.28 286.82 187.11 286.97 187 287.15 186.91 287.33 186.44 288.89 186.26 289.28 186.15 289.47 186.02 289.64 185.36 290.21 184.62 290.68 184.26 290.73 183.78 290.73 182.35 290.43 181.31 290.04 180.9 289.83 180.71 289.7 180.43 289.38 179.99 288.68 179.52 287.66 179.39 287.5 179.22 287.35 178.91 287.09 178.52 286.86 178.07 286.66 177.58 286.51 177.28 286.47 176.65 286.46 176 286.7 173.19 288.25 172.45 288.8 172.02 289.22 171.84 289.91 171.69 290.06 171.46 290.11 170.47 289.66 169.51 289.35 169.28 289.24 168.93 288.99 168.3 288.68 168.06 288.6 167.79 288.54 167.5 288.51 166.92 288.51 166.55 288.68 166.12 288.96 164.82 290.37 164.46 290.52 163.88 290.68 161.84 290.83 160.8 291.07 160 291.51 154.04 295.47 153.32 295.8 150.84 296.51 147.88 291.05 144.19 285.03 144.1 284.83 143.51 284.18 141.72 282.95 140.2 282.57 138.95 282.43 138.21 282.55 137.44 282.77 135.67 283.74 135.13 283.92 134.61 283.97 133.48 283.98 132.75 284.12 132.05 284.38 130.44 285.61 129.96 285.74 126.18 285.97 125.79 285.95 125.59 285.89 124.63 285.91 123.57 286.11 123.13 286.14 122.81 286.1 122.65 286.02 121.47 286.38 112.04 290.31 106.18 290.13 103.46 290.65 102.04 291.37 101.58 291.53 101.3 291.6 100.78 291.57 100.07 291.44 98.96 291.03 98.53 290.73 98.31 290.43 98.31 289.9 98.29 289.65 98.21 289.43 98.08 289.26 97.9 289.13 97.69 289.03 97.45 288.97 97.19 288.93 96.31 288.88 96.09 288.8 95.94 288.66 95.88 288.44 95.88 288.21 95.96 287.99 96.05 287.8 96.48 287.34 96.74 286.98 96.83 286.79 96.89 286.57 96.87 286.32 96.79 286.12 96.68 285.94 96.53 285.79 96.35 285.66 95.94 285.45 95.47 285.29 95.1 285.26 94.66 285.28 93.54 285.52 93.3 285.62 93.17 285.7 93 285.81 92.03 286.87 91.11 288.17 88.16 290.85 88.12 291.79 88.24 292.56 88.12 292.89 87.9 293.28 87.27 293.94 87.03 294.33 86.92 294.67 86.92 295.71 86.88 295.95 86.67 296.21 85.76 297.06 85.48 297.4 84.91 297.56 84.47 297.63 80.79 296.96 79.94 295.78 79.62 295.58 79.14 295.38 78.26 295.39 77.85 295.45 77.53 295.56 77.2 295.82 75.82 297.43 75.47 297.69 75.26 297.79 75 297.84 74.54 297.58 73.98 297.07 72.9 295.74 72.38 295.26 72.03 295 71.77 294.98 71.53 294.93 71.29 294.83 71.21 294.63 71.3 294.32 72.05 293.52 72.25 293.35 72.55 293.16 72.53 292.8 71.73 291.71 71.29 290.91 70.7 290.3 67.63 288.51 67.17 288.13 66.93 287.79 66.58 287.03 66.09 285.36 65.37 283.87 64.66 283.61 63.6 283.41 58.98 283.77 57.04 283.7 51.45 282.79 50.59 279.57 51.84 278.93 53.05 278.88 54.16 279.06 54.68 279.08 55.15 278.99 55.54 278.78 56.28 278.3 56.71 278.12 57.22 278 58.3 277.86 58.76 277.72 59.5 277.25 59.99 277.11 61.68 276.99 62.14 276.78 62.96 275.99 63.39 275.68 64.21 275.22 64.62 274.77 64.99 274.08 65.98 271.3 65.96 269.46 64.59 255.31 64.51 253.03 64.21 248.36 61.12 236.23 59.13 231.58 58.39 229.28 58.31 228.84 60.62 215.62 61.08 207.63 60.75 203.87 60.43 202.53 60.14 201.75 59.71 201.05 58.3 199.47 58.09 199.11 58.15 198.61 58.5 197.98 59.71 196.96 61.53 195.93 61.85 195.4 62.09 194.65 62.29 191.61 62.79 190.56 64.73 189.17 65.31 190.01 65.59 190.28 66.05 190.59 66.56 190.86 67.47 191.1 68.4 191.2 69.94 191.08 71.36 190.68 71.79 190.47 72.23 190.31 72.74 190.23 73.26 190.23 73.74 190.39 74.19 190.68 74.86 191.37 75.17 191.89 75.41 192.38 75.52 192.79 75.67 193.18 75.9 193.54 77.53 193.97 82.76 194.1 83.62 194.53 83.8 196.07 83.04 201.33 81.35 207.82 81.11 209.95 82.11 218.04 81.91 218.68 81.65 219.16 81.41 219.42 81.29 219.79 81.29 219.85 83.9 224.66 84.5 226.75 85.28 227.47 87.86 228.07 92.03 226.4 92.59 226.34 93.39 226.57 95.51 227.43 95.9 227.67 96.22 227.96 96.63 228.69 96.94 229.46 97.15 229.81 97.39 230.16 97.69 230.45 98.08 230.7 98.59 230.88 99.16 230.98 100.37 231.05 102.68 230.93 103.87 231.06 111.87 232.87 118.05 233.05 132.49 229.81 133.05 229.79 133.59 229.81 134.11 229.95 134.56 230.14 138.15 232.78 138.62 233.47 138.8 233.86 139.29 234.55 139.6 234.82 139.99 235.07 141.28 235.73 141.59 236.02 141.81 236.36 142.09 236.67 142.6 236.85 143.34 236.81 144.55 236.63 145.43 236.57 146.25 236.33 146.97 235.92 149.07 233.27 151.68 231.16 152.11 230.72 153.09 229.23 153.43 228.92 153.82 228.75 154.41 228.86 154.8 229.1 155.1 229.41 155.34 229.76 155.55 230.11 155.72 230.51 155.81 230.95 155.9 231.87 155.88 232.36 155.81 232.86 155.66 233.33 154.51 235.32 154.38 235.78 154.36 236.26 154.4 236.71 154.82 238.39 154.88 238.86 154.9 240.33 155.03 240.73 155.25 241.07 155.6 241.35 156.05 241.57 156.55 241.74 157.11 241.83 158.26 241.83 160.97 241.56 163.48 241.65 164.09 241.56 164.78 241.36 165.28 241.13 165.66 240.82 166.64 239.45 167.33 238.74 167.7 238.49 168.09 238.27 168.54 238.12 169.02 238.04 169.56 238.1 170.12 238.21 170.58 238.35 170.96 238.33 171.14 237.99 171.22 233 171.07 232.1 170.92 231.7 170.7 231.36 170.36 231.08 169.97 230.88 169.47 230.79 169 230.88 168.63 231.1 168.32 231.39 168 231.71 167.29 232.88 167.03 233.21 166.7 233.5 166.27 233.7 165.79 233.81 165.23 233.85 164.65 233.79 164.14 233.63 163.75 233.39 163.44 233.09 163.29 232.7 163.25 232.23 163.33 231.72 163.64 230.9 165.95 226.79 166.57 225.92 167.26 225.34 168.82 224.55 171.29 223.65 172.13 223.24 172.86 222.46 175.81 218.16 177.1 215.65 177.47 215.09 177.8 214.71 180.06 213.69 Z" id="SYR-138" data-name="Hamah"/>
<path d="M 423 249.93 435.07 258 438.87 261.93 446.48 275.21 446.87 276.32 446.92 277.45 446.16 284.37 446.24 285.62 446.81 286.74 447.28 287.46 467.06 310.64 534.63 391.05 534.66 391.09 526.07 395.4 512.81 402.04 499.55 408.68 486.28 415.32 473.03 421.97 459.77 428.61 446.5 435.25 433.24 441.89 419.98 448.53 406.71 455.18 393.45 461.83 380.19 468.47 366.93 475.12 337.55 490.4 311.9 503.96 311.85 503.93 263.02 471.16 259.4 469.26 256.36 467.23 255.62 466.85 254.48 466.39 254.26 466.34 254.05 466.26 252.05 466 250.85 465.59 246.35 464.65 244.5 463.96 243.33 463.25 239.97 461.66 231.82 456.38 223.72 447.22 223.07 445.6 222.64 444.86 221.95 443.26 221.86 443.08 221.75 442.79 221.56 442.04 220.41 439.74 219.68 438.7 208.07 429.72 208.07 429.72 206.88 428.95 204.83 427.91 195.23 419.87 193.4 418.85 192.55 418.25 186.31 409.73 186.22 409.57 185.87 409.04 185.1 407.52 185.05 407.29 184.97 407.09 184.88 406.89 184.75 406.72 184.06 406.32 181.66 405.61 179.3 405.87 178.03 405.85 177.47 405.76 176.24 405.42 164.57 399.77 164.5 399.75 164.49 399.74 164.46 399.73 164.42 399.73 163.72 399.42 162.38 398.59 158.25 395.49 157.72 394.67 157.39 394.27 157.22 394.13 156.66 393.77 156.5 393.64 156.12 393.14 155.94 392.79 155.83 392.51 154.62 390.81 154.43 390.44 153.54 389.28 153.39 389.12 152.7 388.03 150.89 385.71 150.11 384.43 149.41 383.64 147.27 381.78 145.48 379.56 143.82 378.17 141.16 375.42 140.77 374.93 140.68 374.74 139.21 372.94 138.52 372.42 137.95 372.4 137.05 372.5 133.42 373.44 129.23 375.42 128.95 375.49 127.88 375.47 119.39 374.55 117.25 373.54 116.67 373.47 113.86 373.47 111.91 373.78 109 375.17 106.56 375.76 105.92 374.59 103.02 372.21 102.24 370.48 101.67 368.23 102.57 366.68 103.72 365.35 103.97 363.79 103.35 362.86 102.57 362.71 101.69 362.76 100.84 362.45 99.56 361.3 96.97 358.28 96.37 357.35 96.05 356.39 96.15 355.4 96.53 354.78 96.97 354.21 97.29 353.39 97.71 351.42 97.81 350.09 97.15 349.04 95.25 347.9 94.37 348.15 93.5 347.68 91.76 345.9 89.73 345.16 88.12 344.05 86.93 342.5 86.16 340.49 86.16 340.48 84.51 340 81.23 339.78 77.72 339.91 75.39 340.49 75.07 340.58 74.73 340.6 74.4 340.58 74.07 340.49 73.73 339.96 72.54 338.1 74.55 336.34 77.83 334.87 80.17 333.34 80.72 331.46 80.57 329.69 80.82 328.25 82.59 327.34 84.36 327.76 85.64 328.62 86.49 328.06 86.97 324.28 84.06 325.06 81.09 325.11 78.25 324.3 75.83 322.51 73.01 318.27 71.22 317.3 68.73 318.74 68.34 319.66 68.29 322.01 67.84 323.11 66.74 324.09 65.55 324.54 58.31 324.87 57.58 324.66 56.16 323.79 55.56 323.57 54.82 323.72 53.39 324.44 52.87 324.57 47.62 324.26 47.63 324.23 47.91 322.99 48.09 320.61 48.35 319.79 56.54 307.57 59.32 304.45 59.48 304.31 59.67 304.19 59.89 304.1 60.67 303.92 61.08 303.67 61.59 303.25 63.46 301.28 66.58 299.04 66.97 298.64 67.19 298.28 67.23 298.03 67.21 297.23 66.98 296.08 67 295.67 67.08 295.13 67.34 294.07 67.54 293.58 67.71 293.25 68.03 292.95 68.21 292.82 68.6 292.59 69.53 292.27 71.73 291.71 72.53 292.8 72.55 293.16 72.25 293.35 72.05 293.52 71.3 294.32 71.21 294.63 71.29 294.83 71.53 294.93 71.77 294.98 72.03 295 72.38 295.26 72.9 295.74 73.98 297.07 74.54 297.58 75 297.84 75.26 297.79 75.47 297.69 75.82 297.43 77.2 295.82 77.53 295.56 77.85 295.45 78.26 295.39 79.14 295.38 79.62 295.58 79.94 295.78 80.79 296.96 84.47 297.63 84.91 297.56 85.48 297.4 85.76 297.06 86.67 296.21 86.88 295.95 86.92 295.71 86.92 294.67 87.03 294.33 87.27 293.94 87.9 293.28 88.12 292.89 88.24 292.56 88.12 291.79 88.16 290.85 91.11 288.17 92.03 286.87 93 285.81 93.17 285.7 93.3 285.62 93.54 285.52 94.66 285.28 95.1 285.26 95.47 285.29 95.94 285.45 96.35 285.66 96.53 285.79 96.68 285.94 96.79 286.12 96.87 286.32 96.89 286.57 96.83 286.79 96.74 286.98 96.48 287.34 96.05 287.8 95.96 287.99 95.88 288.21 95.88 288.44 95.94 288.66 96.09 288.8 96.31 288.88 97.19 288.93 97.45 288.97 97.69 289.03 97.9 289.13 98.08 289.26 98.21 289.43 98.29 289.65 98.31 289.9 98.31 290.43 98.53 290.73 98.96 291.03 100.07 291.44 100.78 291.57 101.3 291.6 101.58 291.53 102.04 291.37 103.46 290.65 106.18 290.13 112.04 290.31 121.47 286.38 122.65 286.02 122.81 286.1 123.13 286.14 123.57 286.11 124.63 285.91 125.59 285.89 125.79 285.95 126.18 285.97 129.96 285.74 130.44 285.61 132.05 284.38 132.75 284.12 133.48 283.98 134.61 283.97 135.13 283.92 135.67 283.74 137.44 282.77 138.21 282.55 138.95 282.43 140.2 282.57 141.72 282.95 143.51 284.18 144.1 284.83 144.19 285.03 147.88 291.05 150.84 296.51 153.32 295.8 154.04 295.47 160 291.51 160.8 291.07 161.84 290.83 163.88 290.68 164.46 290.52 164.82 290.37 166.12 288.96 166.55 288.68 166.92 288.51 167.5 288.51 167.79 288.54 168.06 288.6 168.3 288.68 168.93 288.99 169.28 289.24 169.51 289.35 170.47 289.66 171.46 290.11 171.69 290.06 171.84 289.91 172.02 289.22 172.45 288.8 173.19 288.25 176 286.7 176.65 286.46 177.28 286.47 177.58 286.51 178.07 286.66 178.52 286.86 178.91 287.09 179.22 287.35 179.39 287.5 179.52 287.66 179.99 288.68 180.43 289.38 180.71 289.7 180.9 289.83 181.31 290.04 182.35 290.43 183.78 290.73 184.26 290.73 184.62 290.68 185.36 290.21 186.02 289.64 186.15 289.47 186.26 289.28 186.44 288.89 186.91 287.33 187 287.15 187.11 286.97 187.28 286.82 188.15 286.15 188.3 286 188.41 285.82 188.69 284.87 188.86 284.55 189.18 284.1 189.55 283.88 189.88 283.76 190.18 283.71 191.47 283.71 193.35 284.1 193.72 284.02 193.94 283.88 193.96 283.64 193.96 283.39 194.04 283.05 194.24 282.64 194.84 281.98 195.26 281.75 195.63 281.67 195.9 281.73 196.12 281.83 197.33 282.51 198.24 282.73 199.29 282.83 200.16 282.64 200.88 282.36 201.94 281.75 202.52 281.54 202.97 281.43 203.65 281.44 205.22 281.25 205.93 281.25 206.82 281.4 208.22 281.34 208.81 281.4 209.29 281.54 209.5 281.66 209.67 281.8 210.76 283.34 211.17 283.81 211.49 283.97 211.93 284.13 212.91 284.29 213.39 284.28 213.74 284.21 213.93 284.1 214.06 284.01 214.17 283.92 214.38 283.6 214.47 283.4 214.53 283.17 214.54 282.93 214.53 282.69 214.4 282.24 213.84 280.81 213.76 280.32 213.74 277.22 214.02 275.56 214.19 275.13 214.6 274.36 214.71 274.19 214.86 274.04 215.38 273.63 216.2 273.15 218.54 272.12 222.27 269.93 223.07 269.6 223.72 269.43 224.79 269.47 225.32 269.44 226.96 269.15 232.52 267.53 242.48 265.6 242.94 265.6 243.31 265.65 243.55 265.73 244.37 266.15 245.1 266.67 246.46 268.01 246.65 268.15 247.04 268.37 247.48 268.55 248 268.68 248.62 268.74 251 268.78 251.54 268.91 251.74 269 252.16 269.24 252.32 269.37 252.9 269.99 253.27 270.5 253.48 270.88 253.55 271.09 253.74 271.48 253.85 271.65 254 271.82 254.65 272.37 254.78 272.53 254.89 272.71 255.45 274.42 255.62 275.1 255.73 276.35 256.1 277.93 256.17 278.14 256.28 278.33 256.73 278.78 257.77 279.57 258.16 279.79 258.18 279.79 258.4 279.91 265.18 284.49 265.98 285.19 267.04 286.52 271.69 291.43 272.36 292 272.68 292.03 273.07 291.97 273.97 291.66 274.23 291.53 276.44 289.51 276.57 289.33 276.76 288.93 276.89 288.49 277 288.29 277.22 287.93 277.37 287.77 277.46 287.57 277.56 287.37 277.63 287.16 277.72 286.67 277.74 286.14 277.67 285.14 277.67 284.9 277.74 284.67 277.83 284.47 278.43 283.58 279.03 282.36 279.15 282.16 279.87 281.4 280 281.23 280.11 281.04 280.2 280.82 280.31 279.84 280.31 279.81 280.37 279.54 280.87 279.03 284.14 276.52 286.12 275.28 301.94 269.5 302.79 268.87 303.2 268.31 302.57 264.31 302.59 263.32 302.77 262.26 303.07 261.29 303.63 259.99 304.09 259.19 307.02 255.63 308.17 253.88 309.45 251.38 310.01 249.41 310.38 236.06 310.22 233.98 320.85 232.95 356.09 235.18 423 249.93 Z" id="SYR-139" data-name="Homs (Hims)"/>
<path d="M 180.06 213.69 177.8 214.71 177.47 215.09 177.1 215.65 175.81 218.16 172.86 222.46 172.13 223.24 171.29 223.65 168.82 224.55 167.26 225.34 166.57 225.92 165.95 226.79 163.64 230.9 163.33 231.72 163.25 232.23 163.29 232.7 163.44 233.09 163.75 233.39 164.14 233.63 164.65 233.79 165.23 233.85 165.79 233.81 166.27 233.7 166.7 233.5 167.03 233.21 167.29 232.88 168 231.71 168.32 231.39 168.63 231.1 169 230.88 169.47 230.79 169.97 230.88 170.36 231.08 170.7 231.36 170.92 231.7 171.07 232.1 171.22 233 171.14 237.99 170.96 238.33 170.58 238.35 170.12 238.21 169.56 238.1 169.02 238.04 168.54 238.12 168.09 238.27 167.7 238.49 167.33 238.74 166.64 239.45 165.66 240.82 165.28 241.13 164.78 241.36 164.09 241.56 163.48 241.65 160.97 241.56 158.26 241.83 157.11 241.83 156.55 241.74 156.05 241.57 155.6 241.35 155.25 241.07 155.03 240.73 154.9 240.33 154.88 238.86 154.82 238.39 154.4 236.71 154.36 236.26 154.38 235.78 154.51 235.32 155.66 233.33 155.81 232.86 155.88 232.36 155.9 231.87 155.81 230.95 155.72 230.51 155.55 230.11 155.34 229.76 155.1 229.41 154.8 229.1 154.41 228.86 153.82 228.75 153.43 228.92 153.09 229.23 152.11 230.72 151.68 231.16 149.07 233.27 146.97 235.92 146.25 236.33 145.43 236.57 144.55 236.63 143.34 236.81 142.6 236.85 142.09 236.67 141.81 236.36 141.59 236.02 141.28 235.73 139.99 235.07 139.6 234.82 139.29 234.55 138.8 233.86 138.62 233.47 138.15 232.78 134.56 230.14 134.11 229.95 133.59 229.81 133.05 229.79 132.49 229.81 118.05 233.05 111.87 232.87 103.87 231.06 102.68 230.93 100.37 231.05 99.16 230.98 98.59 230.88 98.08 230.7 97.69 230.45 97.39 230.16 97.15 229.81 96.94 229.46 96.63 228.69 96.22 227.96 95.9 227.67 95.51 227.43 93.39 226.57 92.59 226.34 92.03 226.4 87.86 228.07 85.28 227.47 84.5 226.75 83.9 224.66 81.29 219.85 81.29 219.79 81.41 219.42 81.65 219.16 81.91 218.68 82.11 218.04 81.11 209.95 81.35 207.82 83.04 201.33 83.8 196.07 83.62 194.53 82.76 194.1 77.53 193.97 75.9 193.54 75.67 193.18 75.52 192.79 75.41 192.38 75.17 191.89 74.86 191.37 74.19 190.68 73.74 190.39 73.26 190.23 72.74 190.23 72.23 190.31 71.79 190.47 71.36 190.68 69.94 191.08 68.4 191.2 67.47 191.1 66.56 190.86 66.05 190.59 65.59 190.28 65.31 190.01 64.73 189.17 67.75 187.51 68.66 186.54 68.77 186.07 68.77 185.58 68.6 185.12 68.17 184.65 67.69 184.39 67.11 184.26 58.95 184.6 57.96 184.78 56.93 185.1 56.26 185.21 55.33 185.24 53.6 185.11 52.79 184.86 52.26 184.52 52.13 184.12 52.1 183.69 52.19 183.24 52.38 182.8 52.54 182.48 52.8 181.81 52.88 181.67 52.8 181.22 53.08 181.18 54.42 177.64 55.15 169.17 57.79 165.69 61.64 164.56 64.53 165.22 66.44 164.85 67.44 160.62 67.44 160.61 67.46 160.6 67.46 160.59 69.83 159.81 74.56 161.31 77.11 160.62 76.81 157.21 77.19 139.87 77.41 138.11 78.1 137.21 79.08 136.41 79.24 135.37 77.52 133.73 78.91 132.6 80.42 134.06 81.92 134.92 83.57 135.38 86.85 135.74 87.57 135.92 88.23 135.92 89.25 135.54 89.82 134.86 89.98 134 90.41 133.23 91.76 132.85 93.97 132.57 103.07 133.71 105.35 133.74 113.84 132.43 114.53 131.44 114.42 128.73 113.99 127.04 113.14 125.06 111.98 123.23 113.47 122.58 117.62 121.85 121.51 121.89 122.12 121.72 124.63 120.17 125.46 120 126.07 120.06 126.44 120.32 126.7 120.65 126.91 121.01 127.06 121.42 127.32 123.28 127.97 124.31 131.65 127.11 134.8 130.38 135.28 131.19 135.3 131.84 135.17 132.33 134.97 132.76 134.46 133.5 133.87 134.13 131.46 136.1 130.57 137.05 130.24 137.33 129.07 137.88 128.82 138.02 128.55 138.22 127.97 138.79 127.41 139.45 126.76 140.05 122.76 142.69 121.27 144.73 123.76 147.37 124.63 148.81 125.74 149.84 126.83 150.64 127.91 151.19 137.95 154.98 139.1 155.66 139.82 156.21 140.09 157.02 140.29 157.89 140.53 161.67 140.51 162.68 140.59 163.15 140.75 163.59 147.18 171.24 153.26 180.15 154.21 181.3 154.97 182.01 155.47 182.18 156.05 182.32 157.88 182.53 159.37 183.31 161.78 185.21 165.27 187.19 165.86 187.72 166.21 188.22 166.29 188.66 166.31 189.13 166.23 189.62 166.08 190.08 165.64 190.79 165.23 191.21 164.65 191.72 163.9 192.22 163.49 192.43 162.14 192.91 161.39 193.4 160.78 194.24 162.53 198.77 163.59 200.52 164.39 201.43 164.72 202.23 165.17 204.38 165.84 205.2 169.62 208.88 170.23 209.17 171.22 209.45 171.89 209.75 172.64 210.2 174.44 211.65 175.05 211.99 180.06 213.69 Z" id="SYR-140" data-name="Idlib"/>
<path d="M 796.61 26.78 797.38 28.2 798.28 29.42 798.96 30.76 799 32.5 798.95 32.53 795.24 34.82 787.57 40.67 787.57 40.68 787.57 40.69 787.53 40.69 775.16 51.32 751.19 71.91 735.03 85.8 731.85 87.97 728.57 89.22 691.37 95.6 683.59 96.65 680.05 97.97 677.65 100.63 677.65 100.65 677.64 100.65 677.64 100.66 667.05 117.35 666.07 120.56 662.21 150.66 662.22 152.66 662.69 154.74 665.76 160.58 665.78 160.58 665.78 160.59 675.05 176.97 676.35 180.82 676.92 184.75 677.43 201.25 676.77 205 674.87 208.63 670.83 213.6 670.77 213.59 657.33 212.04 633.77 211.56 624.6 210.01 620.3 208.7 612.89 207.38 610.68 206.57 606.84 204.72 516.99 133.37 502 121.01 493.04 109 490.46 104.29 490.23 102.74 490.08 102.28 489.9 101.9 489.12 100.91 487.82 99.83 480.35 96.44 469.32 92.74 468.74 92.65 468.15 92.62 467.62 92.68 467.12 92.78 465.24 93.38 464.23 93.59 462.04 93.79 460.77 93.71 459.54 93.47 458.52 93.08 456.9 91.93 450.82 85.6 449.76 83.62 446.94 76.86 485.75 70.89 511.48 63.12 523.4 57.37 527.72 56.19 532.22 55.51 536.7 53.83 545.25 49.23 561.12 40.68 563.54 39.48 566.09 38.69 568.71 38.27 571.45 38.15 576.95 36.86 592.99 29.74 598.93 27.92 621.41 25.25 650.03 29.86 655.39 31.62 657.98 32.17 691.37 30.9 741.33 21.46 754.87 18.91 760.12 16.38 769.15 9.59 775.18 3.23 776.91 2.4 779.09 1 780.46 2.31 780.61 3.7 780.41 4.9 780.53 5.41 782.17 5.63 785.81 7.04 786.49 6.78 787.25 6.11 788.04 5.6 788.79 5.78 789.31 6.42 789.91 7.59 790.43 8.24 794.53 10.87 795.34 11.21 796.12 12.74 793.98 19.44 795.34 20.97 796.29 21.69 796.52 23.38 796.61 26.78 Z" id="SYR-141" data-name="Hasaka (Al Haksa)"/>
<path d="M 670.83 213.6 665.17 220.55 665.17 220.56 665.16 220.56 665.14 220.56 664.04 224.17 662.99 235.87 657.98 250.68 656.8 257.99 656.9 260.77 657.58 280.54 658.6 301.5 658.33 304.64 657.3 307.6 636.71 340.48 636.71 340.49 632.4 348.37 629.67 351.57 626.16 353.46 596.71 360 579.12 368.82 565.86 375.47 552.59 382.11 539.33 388.75 534.66 391.09 534.63 391.05 467.06 310.64 447.28 287.46 446.81 286.74 446.24 285.62 446.16 284.37 446.92 277.45 446.87 276.32 446.48 275.21 438.87 261.93 435.07 258 423 249.93 473.91 188.97 474.92 187.38 473.95 187 470.45 185.09 469.62 184.83 469.64 183.58 470.9 176.17 482.62 132.6 490.46 104.29 493.04 109 502 121.01 516.99 133.37 606.84 204.72 610.68 206.57 612.89 207.38 620.3 208.7 624.6 210.01 633.77 211.56 657.33 212.04 670.77 213.59 670.83 213.6 Z" id="SYR-142" data-name="Dayr Az Zawr"/>
<path d="M 213.42 556.87 203.9 562.01 183.38 573.14 170.1 580.31 170.1 580.32 170.08 580.32 170.08 580.32 151.72 590.45 132.44 601.63 130.91 602.08 129.22 602.02 121.56 600.31 118.96 600.25 116.88 601.29 112.55 598.51 96.14 596.81 96.14 596.78 96.09 596.07 96.57 592.66 96.66 592.34 96.31 586.55 96.39 586.01 97.2 583.68 97.32 583.22 97.41 582.22 97.27 581.79 96.98 581.25 95.79 579.65 94.14 578.06 93.54 577.31 93.5 576.99 93.6 576.59 94.23 575.39 95.01 574.48 95.12 574.3 94.94 573.59 93.54 571.72 91.57 571.92 91.29 571.91 91.04 571.84 90.62 571.65 90.17 571.35 89.89 571.03 89.39 570.57 89.11 570.49 88.81 570.43 88.53 570.44 86.26 570.76 84.39 570.74 82.41 570.46 82.22 570.24 82.15 569.89 82.28 569.13 82.39 568.73 82.78 567.82 82.91 567.37 82.82 567.01 82.11 565.65 82 565.11 82.17 564.48 82.43 564.24 82.67 564.07 84.18 563.68 84.63 563.51 84.81 563.41 84.98 563.28 85.6 562.67 85.76 562.54 86.17 562.31 87.03 561.94 87.38 561.69 87.72 561.41 87.83 561.25 87.94 561.07 88.2 560.18 88.22 559.66 87.92 559.25 87.36 558.75 85.8 557.85 85.04 557.5 84.47 557.3 82.08 557.11 81.55 556.99 79.71 556.34 79.44 556.29 79.16 556.25 78.58 556.24 78.04 556.14 77.68 556.02 77.52 555.88 77.31 555.63 77.01 555.11 76.84 554.78 76.77 554.5 76.66 553.76 76.66 553.23 76.75 552.47 77.04 551.87 78.32 550.86 77.38 542.84 77.38 540.94 77.61 540.65 77.67 540.54 77.78 540.15 77.35 538.9 75.21 534.59 74.91 533.35 74.59 532.51 74.5 531.78 74.52 531.52 74.58 531.29 74.72 530.88 75.71 529.23 75.77 529 75.8 528.78 75.78 528.53 75.75 528.31 75.67 528.09 75.58 527.89 75.26 527.33 75.12 526.92 75.08 526.67 75.1 526.42 75.34 526.08 75.77 525.7 77.68 524.49 79.12 523.77 80.77 522.42 84.46 520.05 85.35 519.68 86.64 519.4 91.48 519.14 98.55 519.54 99.13 519.49 99.39 519.43 99.52 519.23 99.55 518.93 99.31 518.3 98.75 517.34 98.55 516.94 98.49 516.72 98.44 516.5 98.27 513.64 98.14 513.22 98.02 513.04 97.9 512.87 97.72 512.74 97.53 512.65 97.24 512.58 96.96 512.57 96.39 512.61 96.13 512.66 94.27 513.22 94.1 513.24 93.89 513.24 93.65 513.2 93.45 513.11 93.24 513.01 93.09 512.87 92.82 512.57 92.7 512.36 92.65 512.14 92.59 510.28 92.54 509.79 92.44 509.33 92.28 508.91 91.46 507.41 91.12 506.61 90.86 505.73 90.85 505.43 90.88 505.06 91.03 504.41 91.14 503.66 91.12 503.39 91.01 502.93 90.77 502.32 90.7 502.1 90.66 501.81 90.67 501.47 90.82 500.93 91.04 500.36 91.4 499.81 91.98 499.2 92.67 498.67 94.71 497.34 95.21 497.27 95.98 497.26 99.35 497.6 100.32 497.42 102.64 496.43 132.98 492.75 133.18 492.87 134.3 493.85 134.84 494.21 135.82 495.05 136.86 495.74 140.35 497.33 140.72 497.57 142.06 498.85 142.54 499.61 142.67 500.03 142.93 501.45 143.12 501.84 143.39 502.15 147.62 505.75 147.86 506.02 148.03 506.28 148.22 506.69 148.55 507.69 148.63 508.75 148.72 509.23 148.87 509.68 148.96 509.87 149.07 510.04 149.39 510.33 151.85 511.87 152.26 512.05 154.32 512.29 155.03 512.3 162.82 513.72 163.44 514.03 163.62 514.16 163.94 514.42 164.56 514.82 165.95 515.5 166.33 515.73 166.49 515.87 166.62 516.03 166.74 516.22 166.81 516.43 166.87 516.63 166.88 516.83 166.87 517.15 166.77 517.57 166.81 518.26 166.83 518.4 166.88 518.56 167.09 518.91 167.35 519.25 167.59 519.53 167.74 519.66 167.76 519.67 167.78 519.68 167.98 519.81 168.3 520.08 168.43 520.25 168.59 520.6 168.69 520.77 168.84 520.95 168.91 521.1 169.02 521.24 169.28 521.5 169.58 521.7 169.78 521.98 170.01 522.72 176.11 525.7 177.66 526.3 177.88 526.26 178.33 526.11 178.53 526.01 178.72 525.89 179.04 525.61 179.61 525.48 183.05 525.6 184.95 526.13 185.79 526.88 186.29 527.55 186.52 527.93 186.69 528.33 187.06 529.51 187.6 535 187.71 535.45 187.76 535.62 187.84 535.73 188.15 536.17 204.45 550.02 210.3 553.64 211.38 554.62 213.39 556.83 213.42 556.87 Z" id="SYR-143" data-name="As Suwayda&apos;"/>
<path d="M 311.9 503.96 301.73 509.34 280.84 520.37 280.84 520.38 265.57 528.65 245.02 539.78 224.47 550.9 213.42 556.87 213.39 556.83 211.38 554.62 210.3 553.64 204.45 550.02 188.15 536.17 187.84 535.73 187.76 535.62 187.71 535.45 187.6 535 187.06 529.51 186.69 528.33 186.52 527.93 186.29 527.55 185.79 526.88 184.95 526.13 183.05 525.6 179.61 525.48 179.04 525.61 178.72 525.89 178.53 526.01 178.33 526.11 177.88 526.26 177.66 526.3 176.11 525.7 170.01 522.72 169.78 521.98 169.58 521.7 169.28 521.5 169.02 521.24 168.91 521.1 168.84 520.95 168.69 520.77 168.59 520.6 168.43 520.25 168.3 520.08 167.98 519.81 167.78 519.68 167.76 519.67 167.74 519.66 167.59 519.53 167.35 519.25 167.09 518.91 166.88 518.56 166.83 518.4 166.81 518.26 166.77 517.57 166.87 517.15 166.88 516.83 166.87 516.63 166.81 516.43 166.74 516.22 166.62 516.03 166.49 515.87 166.33 515.73 165.95 515.5 164.56 514.82 163.94 514.42 163.62 514.16 163.44 514.03 162.82 513.72 155.03 512.3 154.32 512.29 152.26 512.05 151.85 511.87 149.39 510.33 149.07 510.04 148.96 509.87 148.87 509.68 148.72 509.23 148.63 508.75 148.55 507.69 148.22 506.69 148.03 506.28 147.86 506.02 147.62 505.75 143.39 502.15 143.12 501.84 142.93 501.45 142.67 500.03 142.54 499.61 142.06 498.85 140.72 497.57 140.35 497.33 136.86 495.74 135.82 495.05 134.84 494.21 134.3 493.85 133.18 492.87 132.98 492.75 102.64 496.43 102.36 495.17 102.29 493.22 102.23 493 102.16 492.77 102.08 492.57 101.86 492.2 101.71 492.01 97.64 488.04 97.39 487.69 97.19 487.32 96.66 485.85 96.48 485.47 96.26 485.1 96.09 484.88 95.87 484.65 95.44 484.34 94.94 484.34 94.53 484.38 92.52 485.54 91.87 486.25 91.48 486.59 85.56 489.68 85.54 489.69 85.52 489.7 85.04 489.98 81.42 492.75 81.03 493.24 80.94 493.44 80.89 493.66 80.77 494.95 80.72 495.19 80.64 495.41 80.53 495.58 80.44 495.67 80.16 495.84 79.94 495.93 79.29 495.9 78.34 495.76 75.25 495 74.72 494.77 74.43 494.46 74.07 494.19 72.88 493.55 72.72 493.4 72.61 493.23 72.1 492.28 71.97 492.11 71.82 491.97 71.47 491.71 71.25 491.62 70.73 491.51 68.53 491.26 68.19 491.17 67.97 491.06 67.78 490.95 67.6 490.82 67.47 490.66 67.36 490.47 67.28 490.26 67.15 489.02 67.08 488.81 66.97 488.62 66.82 488.48 66.65 488.34 66.46 488.22 65.18 487.65 64.98 487.53 64.64 487.27 64.06 486.67 63.09 485.27 62.94 485.12 62.78 484.99 62.57 484.88 62.35 484.81 62 485 61.62 485.4 61.05 486.52 60.88 487.05 60.82 487.43 61.25 488.76 61.31 489.24 61.29 489.47 61.25 489.66 61.25 489.68 61.25 489.69 61.08 490.16 60.9 490.56 60.21 491.61 59.76 492.56 58.63 493.02 53.6 494.45 51.8 495.25 51.3 495.38 41.78 496.04 41.58 496.14 39.81 497.46 39.07 497.91 38.64 498.09 37.9 498.31 37.22 498.4 34.92 498.36 34.14 498.2 33.71 497.74 32.98 496.59 32.5 496.22 32.18 496.03 29.58 495.13 29.76 494.33 29.8 493.77 29.76 491.96 29.87 490.96 29.87 490.44 29.84 490.19 29.78 489.96 29.5 489.75 29.02 489.53 27.49 489.32 26.1 489.26 23.33 488.85 23.02 488.87 22.76 488.92 22.3 489.09 22.13 489.22 21.98 489.37 21.89 489.51 21.82 489.68 21.82 489.7 21.65 490.2 21.48 490.59 21.35 490.76 21.22 490.91 20.98 490.84 20.66 490.56 19.92 489.11 19.79 488.72 19.73 488.49 19.7 487.97 19.73 487.47 19.88 486.75 20.12 486.07 20.29 485.74 20.4 485.55 20.9 484.88 21.5 484.28 21.59 484.08 21.61 483.87 20.35 483.16 15.37 480.99 15.34 480.98 14.38 479.03 13.81 477.54 13.81 475.95 14.38 474.35 15.58 473.04 17.56 471.83 18.58 470.89 18.95 469.77 18.59 467.97 20.8 466.87 24.52 464.24 26.43 460.42 24.8 457.98 26.17 456.39 28.99 455.63 31.81 455.66 34.09 454.78 36.55 453.42 38.4 451.6 38.78 449.37 37.73 448.02 35.72 446.77 33.52 445.85 31.81 445.45 29 444.14 26.35 443.73 24.77 442.9 25.22 440.34 25.71 439.93 27.27 439.43 27.84 438.97 28.16 437.82 27.81 435.64 27.99 434.64 28.88 433.57 31.07 431.88 31.81 430.52 33.45 428.46 37.42 425.63 39.03 423.08 40.22 421.78 42.14 421.11 44.38 420.62 46.46 419.88 50.76 417.68 51.55 418.06 53.08 419.66 54.04 420.17 56.55 420.12 58.48 419.16 60.15 418.02 61.98 417.45 64.06 417.78 70.22 420.31 74.74 421.21 77.05 420.9 78.5 419.31 78.26 416.85 76.19 415.78 71.48 415.11 67.95 412.82 67.19 412.09 66.43 410.94 66.22 410.51 68.78 406.18 70.43 404.03 72.31 402.1 77.09 398.62 81.08 394.4 83.61 393.33 84.98 393.43 87.56 394.23 89.21 394.16 91.17 393.34 91.82 392.24 92.06 390.83 92.75 389.13 95.1 386.67 100.46 382.85 103.24 378.98 106.62 375.88 106.56 375.76 109 375.17 111.91 373.78 113.86 373.47 116.67 373.47 117.25 373.54 119.39 374.55 127.88 375.47 128.95 375.49 129.23 375.42 133.42 373.44 137.05 372.5 137.95 372.4 138.52 372.42 139.21 372.94 140.68 374.74 140.77 374.93 141.16 375.42 143.82 378.17 145.48 379.56 147.27 381.78 149.41 383.64 150.11 384.43 150.89 385.71 152.7 388.03 153.39 389.12 153.54 389.28 154.43 390.44 154.62 390.81 155.83 392.51 155.94 392.79 156.12 393.14 156.5 393.64 156.66 393.77 157.22 394.13 157.39 394.27 157.72 394.67 158.25 395.49 162.38 398.59 163.72 399.42 164.42 399.73 164.46 399.73 164.49 399.74 164.5 399.75 164.57 399.77 176.24 405.42 177.47 405.76 178.03 405.85 179.3 405.87 181.66 405.61 184.06 406.32 184.75 406.72 184.88 406.89 184.97 407.09 185.05 407.29 185.1 407.52 185.87 409.04 186.22 409.57 186.31 409.73 192.55 418.25 193.4 418.85 195.23 419.87 204.83 427.91 206.88 428.95 208.07 429.72 208.07 429.72 219.68 438.7 220.41 439.74 221.56 442.04 221.75 442.79 221.86 443.08 221.95 443.26 222.64 444.86 223.07 445.6 223.72 447.22 231.82 456.38 239.97 461.66 243.33 463.25 244.5 463.96 246.35 464.65 250.85 465.59 252.05 466 254.05 466.26 254.26 466.34 254.48 466.39 255.62 466.85 256.36 467.23 259.4 469.26 263.02 471.16 311.85 503.93 311.9 503.96 Z M 57.05 458.14 58.94 457.94 61.8 459.1 59.24 461.34 59.88 462.56 62.58 461.04 69.85 464.11 72.14 464.44 72.57 462.97 75.32 460.63 76.4 458.01 76.16 455.78 76.28 454.46 74.34 452.28 71.01 452.04 64.34 453.69 60.75 453.8 56.14 455.95 57.05 458.14 Z" fill-rule="evenodd" id="SYR-144" data-name="Rif Dimashq"/>
<path d="M 29.58 495.13 28.63 499.72 28.53 500.96 28.66 501.13 30.36 502.18 30.65 502.44 31.01 502.84 31.57 503.77 31.74 504.25 31.78 504.57 30.27 506.61 29.48 508.15 29.35 508.32 27.9 515.84 27.83 516.74 28.42 517.88 29.8 519.62 29.82 519.67 29.84 519.68 30.47 520.83 30.99 521.48 31.48 521.93 31.7 522.35 32.48 524.47 32.63 525.15 32.65 525.61 32.54 525.8 32.39 525.91 32.17 525.92 31.96 525.86 31.76 525.77 31.55 525.67 31.37 525.53 31.24 525.38 31.09 525.21 30.99 525.02 30.86 524.6 30.79 524.4 30.65 524.24 30.47 524.11 30.23 524.03 29.65 523.96 27.53 524.06 27.16 524.14 26.79 524.3 26.28 524.67 26.12 524.97 26.08 525.24 26.17 525.44 26.3 525.6 26.6 525.91 26.79 526.37 26.97 527.07 27.33 529.42 27.27 529.96 27.2 530.15 26.58 530.88 22.99 533.34 16.66 538.27 15.8 539.39 15.78 539.31 17.46 534.07 21.02 528.25 23.64 526.01 25.04 523.57 21.95 521.43 19.44 520.58 17.94 509.91 18.39 506.83 21.02 506.55 22.51 506.55 22.51 505.71 21.85 505.71 21.39 505.24 21.21 504.77 21.57 504.31 22.22 504.01 22.89 503.73 23.45 503.46 23.54 502.99 23.54 501.77 23.54 499.81 23.08 499.15 22.89 498.49 22.22 498.13 21.77 498.03 21.02 498.49 20.75 498.49 20.37 498.22 20.08 497.56 20.08 497 20.84 496.35 20.84 495.88 20.45 495.22 19.15 493.82 18.12 492.59 17.56 491.2 16.71 487.45 16.62 486.99 16.34 486.61 15.68 486.23 14.48 486.23 13.35 486.14 12.61 486.05 12.51 485.58 12.79 485.4 13.35 485.12 14.19 484.84 15.04 484.27 15.58 483.25 15.68 482.12 15.39 481.09 15.34 480.98 15.37 480.99 20.35 483.16 21.61 483.87 21.59 484.08 21.5 484.28 20.9 484.88 20.4 485.55 20.29 485.74 20.12 486.07 19.88 486.75 19.73 487.47 19.7 487.97 19.73 488.49 19.79 488.72 19.92 489.11 20.66 490.56 20.98 490.84 21.22 490.91 21.35 490.76 21.48 490.59 21.65 490.2 21.82 489.7 21.82 489.68 21.89 489.51 21.98 489.37 22.13 489.22 22.3 489.09 22.76 488.92 23.02 488.87 23.33 488.85 26.1 489.26 27.49 489.32 29.02 489.53 29.5 489.75 29.78 489.96 29.84 490.19 29.87 490.44 29.87 490.96 29.76 491.96 29.8 493.77 29.76 494.33 29.58 495.13 Z" id="SYR-145" data-name="Quneitra"/>
<path d="M 102.64 496.43 100.32 497.42 99.35 497.6 95.98 497.26 95.21 497.27 94.71 497.34 92.67 498.67 91.98 499.2 91.4 499.81 91.04 500.36 90.82 500.93 90.67 501.47 90.66 501.81 90.7 502.1 90.77 502.32 91.01 502.93 91.12 503.39 91.14 503.66 91.03 504.41 90.88 505.06 90.85 505.43 90.86 505.73 91.12 506.61 91.46 507.41 92.28 508.91 92.44 509.33 92.54 509.79 92.59 510.28 92.65 512.14 92.7 512.36 92.82 512.57 93.09 512.87 93.24 513.01 93.45 513.11 93.65 513.2 93.89 513.24 94.1 513.24 94.27 513.22 96.13 512.66 96.39 512.61 96.96 512.57 97.24 512.58 97.53 512.65 97.72 512.74 97.9 512.87 98.02 513.04 98.14 513.22 98.27 513.64 98.44 516.5 98.49 516.72 98.55 516.94 98.75 517.34 99.31 518.3 99.55 518.93 99.52 519.23 99.39 519.43 99.13 519.49 98.55 519.54 91.48 519.14 86.64 519.4 85.35 519.68 84.46 520.05 80.77 522.42 79.12 523.77 77.68 524.49 75.77 525.7 75.34 526.08 75.1 526.42 75.08 526.67 75.12 526.92 75.26 527.33 75.58 527.89 75.67 528.09 75.75 528.31 75.78 528.53 75.8 528.78 75.77 529 75.71 529.23 74.72 530.88 74.58 531.29 74.52 531.52 74.5 531.78 74.59 532.51 74.91 533.35 75.21 534.59 77.35 538.9 77.78 540.15 77.67 540.54 77.61 540.65 77.38 540.94 77.38 542.84 78.32 550.86 77.04 551.87 76.75 552.47 76.66 553.23 76.66 553.76 76.77 554.5 76.84 554.78 77.01 555.11 77.31 555.63 77.52 555.88 77.68 556.02 78.04 556.14 78.58 556.24 79.16 556.25 79.44 556.29 79.71 556.34 81.55 556.99 82.08 557.11 84.47 557.3 85.04 557.5 85.8 557.85 87.36 558.75 87.92 559.25 88.22 559.66 88.2 560.18 87.94 561.07 87.83 561.25 87.72 561.41 87.38 561.69 87.03 561.94 86.17 562.31 85.76 562.54 85.6 562.67 84.98 563.28 84.81 563.41 84.63 563.51 84.18 563.68 82.67 564.07 82.43 564.24 82.17 564.48 82 565.11 82.11 565.65 82.82 567.01 82.91 567.37 82.78 567.82 82.39 568.73 82.28 569.13 82.15 569.89 82.22 570.24 82.41 570.46 84.39 570.74 86.26 570.76 88.53 570.44 88.81 570.43 89.11 570.49 89.39 570.57 89.89 571.03 90.17 571.35 90.62 571.65 91.04 571.84 91.29 571.91 91.57 571.92 93.54 571.72 94.94 573.59 95.12 574.3 95.01 574.48 94.23 575.39 93.6 576.59 93.5 576.99 93.54 577.31 94.14 578.06 95.79 579.65 96.98 581.25 97.27 581.79 97.41 582.22 97.32 583.22 97.2 583.68 96.39 586.01 96.31 586.55 96.66 592.34 96.57 592.66 96.09 596.07 96.14 596.78 96.14 596.81 91.76 596.35 89.82 595.32 83.06 594.74 80.69 594.13 78.92 593.28 68.38 584.82 60.65 580.31 56.75 576.99 55.44 576.38 54.82 576.55 53.46 577.59 52.87 577.84 52.15 577.72 50.91 577.32 50.15 577.25 45.71 577.76 44 577.71 42.55 577.67 42.12 577.58 42.09 577.07 41.42 575.67 36.02 568.73 34.89 566.72 34.81 564.46 35.17 562.42 34.61 561.06 31.81 560.88 30.07 561.15 28.82 560.78 27.77 559.94 26.67 558.79 27.12 558.85 27.51 558.36 27.67 557.58 27.48 556.78 27.02 556.57 25.47 556.59 24.88 556.42 22.81 554.64 21.67 554.08 8.78 551.55 7.67 550.36 7.67 550.35 7.68 550.34 7.68 550.33 7.18 550 6.56 549.91 9.12 546.79 11.11 545.76 12.04 545.3 12.79 544.17 15.31 541.08 15.97 540.05 15.8 539.39 16.66 538.27 22.99 533.34 26.58 530.88 27.2 530.15 27.27 529.96 27.33 529.42 26.97 527.07 26.79 526.37 26.6 525.91 26.3 525.6 26.17 525.44 26.08 525.24 26.12 524.97 26.28 524.67 26.79 524.3 27.16 524.14 27.53 524.06 29.65 523.96 30.23 524.03 30.47 524.11 30.65 524.24 30.79 524.4 30.86 524.6 30.99 525.02 31.09 525.21 31.24 525.38 31.37 525.53 31.55 525.67 31.76 525.77 31.96 525.86 32.17 525.92 32.39 525.91 32.54 525.8 32.65 525.61 32.63 525.15 32.48 524.47 31.7 522.35 31.48 521.93 30.99 521.48 30.47 520.83 29.84 519.68 29.82 519.67 29.8 519.62 28.42 517.88 27.83 516.74 27.9 515.84 29.35 508.32 29.48 508.15 30.27 506.61 31.78 504.57 31.74 504.25 31.57 503.77 31.01 502.84 30.65 502.44 30.36 502.18 28.66 501.13 28.53 500.96 28.63 499.72 29.58 495.13 32.18 496.03 32.5 496.22 32.98 496.59 33.71 497.74 34.14 498.2 34.92 498.36 37.22 498.4 37.9 498.31 38.64 498.09 39.07 497.91 39.81 497.46 41.58 496.14 41.78 496.04 51.3 495.38 51.8 495.25 53.6 494.45 58.63 493.02 59.76 492.56 60.21 491.61 60.9 490.56 61.08 490.16 61.25 489.69 61.25 489.68 61.25 489.66 61.29 489.47 61.31 489.24 61.25 488.76 60.82 487.43 60.88 487.05 61.05 486.52 61.62 485.4 62 485 62.35 484.81 62.57 484.88 62.78 484.99 62.94 485.12 63.09 485.27 64.06 486.67 64.64 487.27 64.98 487.53 65.18 487.65 66.46 488.22 66.65 488.34 66.82 488.48 66.97 488.62 67.08 488.81 67.15 489.02 67.28 490.26 67.36 490.47 67.47 490.66 67.6 490.82 67.78 490.95 67.97 491.06 68.19 491.17 68.53 491.26 70.73 491.51 71.25 491.62 71.47 491.71 71.82 491.97 71.97 492.11 72.1 492.28 72.61 493.23 72.72 493.4 72.88 493.55 74.07 494.19 74.43 494.46 74.72 494.77 75.25 495 78.34 495.76 79.29 495.9 79.94 495.93 80.16 495.84 80.44 495.67 80.53 495.58 80.64 495.41 80.72 495.19 80.77 494.95 80.89 493.66 80.94 493.44 81.03 493.24 81.42 492.75 85.04 489.98 85.52 489.7 85.54 489.69 85.56 489.68 91.48 486.59 91.87 486.25 92.52 485.54 94.53 484.38 94.94 484.34 95.44 484.34 95.87 484.65 96.09 484.88 96.26 485.1 96.48 485.47 96.66 485.85 97.19 487.32 97.39 487.69 97.64 488.04 101.71 492.01 101.86 492.2 102.08 492.57 102.16 492.77 102.23 493 102.29 493.22 102.36 495.17 102.64 496.43 Z" id="SYR-146" data-name="Dar`a"/>
<path d="M 57.05 458.14 56.14 455.95 60.75 453.8 64.34 453.69 71.01 452.04 74.34 452.28 76.28 454.46 76.16 455.78 76.4 458.01 75.32 460.63 72.57 462.97 72.14 464.44 69.85 464.11 62.58 461.04 59.88 462.56 59.24 461.34 61.8 459.1 58.94 457.94 57.05 458.14 Z" id="SYR-4843" data-name="Damascus"/>
<path d="M 15.34 480.98 15.39 481.09 15.68 482.12 15.58 483.25 15.04 484.27 14.19 484.84 13.35 485.12 12.79 485.4 12.51 485.58 12.61 486.05 13.35 486.14 14.48 486.23 15.68 486.23 16.34 486.61 16.62 486.99 16.71 487.45 17.56 491.2 18.12 492.59 19.15 493.82 20.45 495.22 20.84 495.88 20.84 496.35 20.08 497 20.08 497.56 20.37 498.22 20.75 498.49 21.02 498.49 21.77 498.03 22.22 498.13 22.89 498.49 23.08 499.15 23.54 499.81 23.54 501.77 23.54 502.99 23.45 503.46 22.89 503.73 22.22 504.01 21.57 504.31 21.21 504.77 21.39 505.24 21.85 505.71 22.51 505.71 22.51 506.55 21.02 506.55 18.39 506.83 17.94 509.91 19.44 520.58 21.95 521.43 25.04 523.57 23.64 526.01 21.02 528.25 17.46 534.07 15.78 539.31 15.8 539.39 15.97 540.05 15.31 541.08 12.79 544.17 12.04 545.3 11.11 545.76 9.12 546.79 6.56 549.91 5.85 550.04 5.1 550.35 8.29 546.32 14.29 540.33 15.21 537.25 14.75 535.76 16.15 532.19 18.21 529.19 19.06 529.01 20.75 526.3 17.94 522.36 17.27 520.87 15.68 509.45 16.05 507.86 11.56 506.27 11.56 504.49 12.88 502.71 14.19 500.37 13.81 496.91 11.11 495.5 10.62 489.89 7.26 487.92 6.42 486.99 10.44 482.22 5.85 479.59 8.48 478.57 9.41 477.73 11.38 476.51 11.66 474.92 12.04 474.26 12.22 472.3 12.88 471.56 12.72 470.91 15.6 469.47 18.59 467.97 18.95 469.77 18.58 470.89 17.56 471.83 15.58 473.04 14.38 474.35 13.81 475.95 13.81 477.54 14.38 479.03 15.34 480.98 Z" id="SYR-5261" data-name="UNDOF"/>
</g>
</svg>