<?xml version="1.0"?>
<svg xmlns="http://www.w3.org/2000/svg" version="1.2" baseProfile="tiny" width="800" height="560" viewBox="0 0 800 560" stroke-linecap="round" stroke-linejoin="round">
<g id="ne_10m_admin_1_states_provinces">
<path d="M 464.75 511.17 465.08 513.26 463.5 515.17 460.91 516.47 458.13 516.79 457.76 515.84 456.66 515.68 454.52 514.95 453.1 516.22 451.3 516.58 449.47 515.89 447.99 514.03 449.67 513.31 449.91 512.1 449.21 511.39 447.99 512.18 447.06 512.18 448.04 510.58 450.46 509.82 454.52 509.41 463.02 510.33 464.75 511.17 Z M 525.29 507.54 523.89 508.49 525.38 508.38 526.82 508.44 528.2 508.77 529.41 509.41 530.42 508.49 532.7 509.6 539.35 509.66 544.44 512 551.3 512.99 554.41 514.03 553.99 514.31 553.87 514.38 553.48 514.95 561.26 515.56 562.71 514.95 565.47 516.72 572.37 518.94 574.86 521.49 525.82 511.17 524.18 512.65 521.48 511.75 518.87 509.91 517.42 508.49 519.83 508.14 524.18 506.89 526.69 507.02 526.02 507.22 525.29 507.54 Z M 442.41 483.98 449.91 485.35 457.29 485.35 459.17 484.91 462.27 483.67 478.01 482.58 488.69 485.05 491.49 484.34 493.77 486.63 495.88 488.13 500.73 490.8 499.81 491.81 497.23 490.76 494.36 490.88 488.2 491.81 475.75 489.87 470.02 490.13 459.99 492.95 453.6 493.64 438.52 491.42 431.99 489.93 429.48 490.12 429.45 490.8 427.13 490.19 424.83 489.04 434.07 485.35 434.07 484.34 431.49 483.75 426.16 483.23 423.92 482.58 426.75 481.26 429.75 481.19 432.81 481.55 435.91 481.57 438.74 482.85 442.41 483.98 Z M 595.88 506.63 599.18 508.49 604.99 513.33 608.16 515.3 615.46 518.77 639.07 530.48 643.53 532.26 650.89 534.11 654.54 533.93 656.02 534.77 658.75 537.73 658.75 537.73 658.84 537.83 660.84 538.79 665.67 539.18 667.88 539.78 668.51 541.97 667.75 546.33 667.85 548.67 668.82 550.76 670.25 552.55 671.98 554.08 673.03 554.56 675.38 555.57 676.05 557.08 675.86 559.09 672.89 555.71 671.07 554.81 666.56 553.83 664.6 552.93 664.44 551.02 641.07 539.8 638.59 537.09 638.63 535.85 638.94 533.98 638.98 532.29 638.18 531.55 631.22 530.63 625.66 528.24 623.47 527.87 621.17 527.75 619.06 527.34 617.43 526.49 616.54 525.09 619.24 525.09 616.34 523.06 615.26 522.03 614.63 520.48 612.62 521.93 609.23 520.67 603.55 516.79 595.5 513.75 592.67 511.47 594.31 508.49 590.56 508.61 586.49 506.28 582.67 505.64 581.78 505.77 580.73 506.1 579.83 506.55 579.08 507.66 578.22 507.44 577.41 506.94 577.09 506.65 576.2 506.22 573 504.28 571.09 503.7 573.61 505.48 574.84 506.79 576.62 510.12 576.62 510.72 575.71 511.17 574.84 511.03 574.84 510.2 575.05 509.18 574.86 508.49 572.14 507.15 565.36 505.06 559.27 504.15 552.06 501.68 544.64 500.68 533.19 497.34 533.5 493.92 530.05 492.22 521.09 490.8 510.34 485.18 505.77 484.09 503.61 482.96 502.58 482.58 500.96 482.35 486.57 482.33 482.13 481.57 479.92 480.89 477.4 479.75 476.1 478.36 477.49 476.96 477.49 476.04 476.22 475.62 475.43 474.93 474.77 474.1 473.9 473.27 476.8 473.65 481.2 476.31 483.58 476.96 495.12 476.04 506.14 477.15 526.44 483.24 531.21 485.51 535.03 488.02 535.25 488.55 535.28 489.29 535.4 490.09 535.86 490.8 536.49 490.94 538.07 490.71 538.73 490.8 541.14 492.14 542.27 492.51 543.79 492.64 544.29 492.36 544.23 491.09 544.77 490.8 545.57 490.95 546.84 491.65 547.53 491.81 549.2 492 550.44 492.51 552.55 493.64 557.84 494.91 560.37 495.84 561.86 497.34 562.71 497.34 564.7 497.11 570.42 501.28 573.86 501.94 569.74 499.6 568.52 498 570.1 496.33 569.25 495.49 565.38 496.52 561.95 494.96 563.65 493.04 565.48 491.62 568.47 491.1 571.45 491.54 577.1 493.18 579.98 493.55 581.05 493.12 582.13 492.44 583.36 492.41 584.92 493.96 585.31 495.27 585.16 498.53 585.44 500.07 589.67 504.96 591.15 505.65 595.88 506.63 Z M 534.6 460.21 553.04 469.13 554.48 470.38 558.58 473.93 562.72 481.08 562.73 481.09 562.75 481.11 562.76 481.12 563.22 484.86 559.41 486.93 552.14 488.05 552.13 488.05 552.06 488.02 547.94 486.27 545.9 486.9 543.35 485.78 541.04 483.99 539.65 482.58 537.81 480.07 537.3 478.41 538.42 477.2 541.5 476.04 539.61 475.5 537.41 476.11 534.94 477.15 532.26 477.88 533.22 477.53 535.86 476.04 534.54 476.02 533.22 475.86 532.09 475.34 531.25 474.2 532.26 473.27 531.43 472 531.25 471.42 528.34 473.27 523.79 470.25 523.04 469.52 523.07 469.51 526.86 467.51 527.76 467.15 528.58 466.65 528.48 466.21 528.01 465.89 526.61 465.17 525.96 464.7 525.56 464.2 524.87 462.99 524.37 462.38 523.74 461.87 522.98 461.62 521.43 461.49 520.76 461.33 520.42 461.05 520.34 460.66 520.57 459.45 520.88 459.12 521.38 459.04 523.72 459.55 526.52 459.87 527.17 460.04 527.53 460.21 528.03 460.73 528.58 461.07 529.32 461.28 530.32 461.35 532.77 461.15 533.74 460.79 534.41 460.46 534.6 460.21 Z" fill-rule="evenodd" id="HRV-1490" data-name="Dubrovacko-Neretvanska"/>
<path d="M 295.19 392.67 303.5 395.45 295.52 393.71 294.26 394.1 293.05 392.99 287.18 389.85 285.04 389.07 286.06 388.07 286.62 388.76 287.18 388.97 291.31 389.29 292.86 390.32 293.94 391.63 295.19 392.67 Z M 253.1 373.48 256.92 375.87 255.75 375.27 247.78 372.64 245.2 371.38 242.43 368.69 238.76 366.76 236.96 365.52 235 363.74 234.24 362.08 235.99 361.23 238.76 363.08 239.45 364.44 249.73 370.54 251.34 372.09 253.1 373.48 Z M 385.98 355.09 384.15 359.19 384.47 359.9 384.9 360.68 388.62 362.01 389.62 362.52 390.82 363.25 396.23 367.88 396.94 368.7 396.94 369.6 396.06 370.48 386.79 375.08 385.91 375.76 385.66 376.86 385.77 377.49 385.89 377.93 385.81 378.26 384.43 380.27 384.64 381.02 384.93 381.51 385.64 382.05 386.21 382.66 385.94 383.5 384.73 384.3 381.53 385.32 377.82 385.96 374.88 386.84 373.81 387.28 372.85 387.85 371.72 388.92 370.82 389.48 369.47 389.61 362.06 387.35 361.44 387.28 360.27 387.96 350.96 396.69 350.1 396.89 349.48 396.92 348.74 396.67 348.05 396.68 347.26 396.99 345.72 398.2 345.11 398.82 344.69 399.58 345.01 401.08 345.49 402.12 346.14 403.03 348.01 404.66 348.74 405.78 349.2 406.05 349.85 406.18 349.75 406.5 349.1 406.85 346.81 407.52 345.53 407.75 344.46 408.08 343.92 408.49 343.94 409.35 344.38 409.81 345.05 410.13 345.72 410.34 346.12 410.54 346.16 410.89 345.49 411.17 342.58 411.27 341.11 411.47 340.32 412.12 340.3 412.14 339.63 412.14 339.63 413.06 338 412.22 334.99 412.25 334.02 411.21 333.91 411.44 333.92 411.84 333.76 412.15 333.1 412.14 333.34 410.64 334.05 410.39 335.11 410.41 336.36 409.83 336.81 408.99 336.44 408.34 336.18 407.63 336.86 406.61 334.65 406.79 333.86 407.01 333.1 407.52 332.66 406.2 331.56 405.53 328.48 404.76 330.72 404.57 331.03 403.66 329.84 402.82 327.49 402.82 327.49 401.99 328.12 401.71 328.79 401.28 329.4 400.98 328.05 400.24 327.49 400.06 328.48 399.22 327.49 398.3 328.48 397.29 327.62 395.28 329.05 394.54 334.02 394.6 334.02 393.6 327.95 392.66 325.71 392.67 327.33 391.92 328.66 392 329.77 392.43 330.79 392.67 332.22 392.29 332.01 391.4 330.82 390.48 329.4 389.91 331.27 389.39 332.14 388.39 331.88 387.2 330.33 386.13 330.43 388.67 329.27 388.83 325.97 386.8 324.1 385.58 323.17 385.6 321.93 385.43 321.11 385.22 320.27 384.55 318.41 382.42 317.5 381.61 312.02 379.38 310.49 378.29 307.63 377.55 298.89 377.08 297.04 375.57 295.63 372.52 292.43 371.45 288.99 370.73 286.89 368.69 290.92 370 293.05 370.39 295.19 370.54 295.19 369.54 294.39 369.27 293.85 369.3 293.55 369.44 293.42 369.54 289.78 367.26 281.02 364.1 277.35 361.8 277.37 361.78 281.17 359.08 284.19 360.44 288.45 363.24 289.01 363.53 289.72 363.52 290.48 363.19 295.07 360.27 295.58 360.06 296.08 360.05 299.07 361.81 301.76 362.81 302.56 362.9 303.44 362.79 304.38 362.11 304.92 361.44 305.2 360.71 305.32 359.96 305.43 359.59 305.82 359.17 306.5 358.82 307.69 358.37 308.51 357.83 309.2 357.2 309.64 356.59 309.9 356.08 309.87 355.79 309.66 355.56 308.11 354.36 307.84 353.92 307.9 353.58 308.62 352.87 309.08 352.7 309.71 352.73 311.59 353.49 312.35 353.63 315.09 353.29 316.77 353.34 321.57 354.6 322.07 354.88 324.74 357.02 325.22 357.27 325.56 357.4 325.93 357.36 326.48 357.2 327.34 356.65 330.08 354.4 331.06 353.83 332.24 353.3 333.19 353.05 338.15 352.29 338.78 351.92 338.81 351.49 338.53 350.43 338.51 350.01 338.65 349.54 338.93 349.11 339.31 348.75 339.71 348.51 340.15 348.39 341.53 348.2 342.1 348.05 342.37 347.89 342.58 347.55 342.64 347.12 342.47 346.69 341.93 345.9 341.76 345.54 341.72 345.24 341.72 345.13 341.74 345.02 341.8 344.85 341.99 344.49 342.56 343.74 343 343.4 343.94 343.2 347.26 343.23 349.92 343.64 350.48 343.67 351.05 343.6 351.78 343.36 352.72 342.97 356.21 340.58 357.67 340.43 358.66 341.55 358.8 342.15 358.76 342.7 358.64 343.02 358.64 343.4 358.72 343.78 358.82 343.99 358.91 344.14 358.99 344.22 359.29 344.81 359.39 345.13 359.58 346.92 359.54 347.52 359.35 348.86 359.29 351.56 359.39 352.62 360.14 353.8 361.55 355 364.47 355.86 366.94 356.21 369.81 356.15 379.56 354.09 380.96 353.33 381.63 353.11 382.43 353.06 383.29 353.11 384.53 353.47 385.12 353.72 385.98 355.09 Z" fill-rule="evenodd" id="HRV-1491" data-name="Šibensko-Kninska"/>
<path d="M 364.87 470.17 364.63 470.5 367.73 469.53 369.4 469.6 371.16 470.5 371.73 469.91 372.33 469.5 372.81 469.71 373.01 470.97 372.64 471.8 371.73 472.42 370.15 473.27 368.56 474.79 366.98 475.73 354.97 478.42 350.35 478.68 347.11 477.88 349.99 476.72 350.34 474.63 349.26 473.03 347.94 473.27 347.11 473.27 345.17 471.42 345.73 471 346.31 470.74 346.98 470.6 347.94 470.5 351.07 469.05 356.17 468.28 361.56 468.38 365.56 469.5 364.87 470.17 Z M 414.61 449.29 417.38 451.05 417.89 451.01 419.22 450.27 420.15 450.04 421.85 450.03 425.85 450.51 427.68 451.05 428.59 451.74 429.44 452.8 430.54 453.91 432.22 454.74 432.29 455.36 432.1 455.53 431.72 455.53 431.3 455.66 433.93 457.15 436.89 457.99 440.07 458.35 453.17 458.29 455.36 457.41 457.26 458.77 459.73 459.32 468.11 459.64 476.19 461.2 488.53 460.8 494.66 461.27 499.81 463.03 466.01 463.03 432.22 463.03 429.12 463.27 414.21 460.91 402.8 457.73 398.72 457.15 396.3 455.92 394.78 455.66 388.78 453.81 389.35 453.21 389.96 452.94 391.46 452.89 393.15 453.59 394.68 453.41 397.99 451.88 398.84 452.89 399.24 452.33 400.76 451.05 400.76 451.88 405.64 450.76 409.78 452.63 413.55 454.84 417.38 454.74 413.68 451.88 410.09 450.28 408.9 449.29 410.86 449.46 414.61 449.29 Z M 447.58 433.96 448.85 434.26 449.93 434.15 450.76 433.43 451.98 434.17 454.52 436.29 455.98 436.64 457.16 436.53 458.16 436.73 459.14 438.05 457.41 440.51 456.43 441.32 455.36 440.82 452.9 443.29 448.44 444.05 423.46 444.59 414.77 443.74 406.23 441.82 395.57 437.32 393.4 435.28 394.48 435.8 395.24 436.29 396.17 436.29 396.23 435.44 396.63 435.31 397.25 435.41 397.99 435.28 397.24 434.3 397.33 433.42 398.24 432.77 399.84 432.51 397.98 430.11 396.17 426.98 398.97 426.88 399.84 426.98 405.3 428.57 431.48 429.29 447.99 432.51 447.99 433.43 446.14 433.43 447.58 433.96 Z M 378.86 425.69 379.48 427.9 383.14 427.57 385.68 429.11 388.12 431.43 391.46 433.43 389.37 435.18 385.68 434.47 376.64 430.32 369.95 428.28 366.55 427.9 366.46 427.29 366.64 427.11 366.98 427.1 367.38 426.98 366.05 426.19 365.65 425.23 366.35 424.44 368.3 424.13 376 424.57 378.86 425.69 Z M 383.72 412.47 389.27 414 388.67 414.79 383.61 415.19 376.67 414.3 374.69 414.45 373.54 414.9 371.87 415.18 369.73 414.94 368.06 414.52 367.14 414.02 367.18 413.27 368.15 412.98 368.74 413.03 369.65 413.19 371.47 413.36 372.65 412.68 372.09 411.55 374.3 410.93 380.5 411.62 383.72 412.47 Z M 534.6 460.21 534.41 460.46 533.74 460.79 532.77 461.15 530.32 461.35 529.32 461.28 528.58 461.07 528.03 460.73 527.53 460.21 527.17 460.04 526.52 459.87 523.72 459.55 521.38 459.04 520.88 459.12 520.57 459.45 520.34 460.66 520.42 461.05 520.76 461.33 521.43 461.49 522.98 461.62 523.74 461.87 524.37 462.38 524.87 462.99 525.56 464.2 525.96 464.7 526.61 465.17 528.01 465.89 528.48 466.21 528.58 466.65 527.76 467.15 526.86 467.51 523.07 469.51 523.04 469.52 516.41 463.03 496.97 455.66 492.33 452.89 490.08 452.02 489.08 451.42 488.24 449.64 487.23 448.93 485.86 448.45 484.5 448.27 483.61 447.94 482.69 447.14 481.29 445.51 481.04 444.93 480.59 443.18 480.37 442.66 479.77 442.43 478.06 442.08 477.49 441.82 464.75 429.75 460.98 427.9 459.6 426.91 458.62 426.02 457.55 425.38 440.23 423.55 432.32 421.01 423.13 419.56 410.83 413.06 410.65 412.71 410.53 412.09 410.18 411.49 409.46 411.21 408.63 411.36 407.41 411.99 406.72 412.14 401.61 411.21 391.46 411.21 391.46 410.29 394.15 410.27 397.24 409.72 400.17 408.76 402.53 407.52 400.29 406.47 397.19 405.95 384.07 405.76 382.48 406.12 379.96 407.28 379.01 407.52 376.55 407.8 370.94 409.08 354.47 409.37 354.47 410.29 358.94 411.14 360.85 412.12 361.86 414.07 353.55 414.07 353.86 415.52 351.88 415.37 347.51 414.07 343.92 413.92 342.4 413.36 340.46 412.14 340.3 412.14 340.32 412.12 341.11 411.47 342.58 411.27 345.49 411.17 346.16 410.89 346.12 410.54 345.72 410.34 345.05 410.13 344.38 409.81 343.94 409.35 343.92 408.49 344.46 408.08 345.53 407.75 346.81 407.52 349.1 406.85 349.75 406.5 349.85 406.18 349.2 406.05 348.74 405.78 348.01 404.66 346.14 403.03 345.49 402.12 345.01 401.08 344.69 399.58 345.11 398.82 345.72 398.2 347.26 396.99 348.05 396.68 348.74 396.67 349.48 396.92 350.1 396.89 350.96 396.69 360.27 387.96 361.44 387.28 362.06 387.35 369.47 389.61 370.82 389.48 371.72 388.92 372.85 387.85 373.81 387.28 374.88 386.84 377.82 385.96 381.53 385.32 384.73 384.3 385.94 383.5 386.21 382.66 385.64 382.05 384.93 381.51 384.64 381.02 384.43 380.27 385.81 378.26 385.89 377.93 385.77 377.49 385.66 376.86 385.91 375.76 386.79 375.08 396.06 370.48 396.94 369.6 396.94 368.7 396.23 367.88 390.82 363.25 389.62 362.52 388.62 362.01 384.9 360.68 384.47 359.9 384.15 359.19 385.98 355.09 390.25 355.97 392.58 355.95 394.03 355.58 394.55 355.12 394.84 354.54 395.1 353.83 397.57 352.11 402.12 349.94 404.03 349.39 405.35 349.14 409.83 349.46 413.67 353.57 420.29 358.49 424.68 362.9 430.26 366.64 431.28 368.61 431.76 370.88 432.91 373.75 434.85 375.99 449.88 384.66 471.24 400.55 477.8 406.12 482.1 408.92 485.11 410.88 492.97 414.11 506.04 415.59 510.23 417.64 512.38 421.13 509.84 432.49 512.85 439.23 518.09 445.05 523.59 448.81 526.33 450.08 527.75 451.04 528.65 452.47 529.78 455.24 531.34 457.84 533.41 459.63 534.6 460.21 Z" fill-rule="evenodd" id="HRV-1492" data-name="Splitsko-Dalmatinska"/>
<path d="M 263.28 358.75 263.73 360.32 262.74 359.89 261.75 359.61 260.71 359.44 259.54 359.38 258.46 359.15 257.99 358.6 257.71 357.98 257.2 357.53 253.73 356.75 251.92 356.01 250.74 354.69 251.34 354.38 251.67 353.85 249.88 353.27 247.43 352.09 245.29 350.73 244.37 349.66 243.61 348.08 239.97 345.08 238.76 343.63 241.33 343.66 243.51 344.36 250.74 348.32 254.61 348.95 255.35 349.15 255.69 349.93 256.08 352.19 256.37 352.93 257.19 353.6 259.01 354.18 260.05 354.69 261.12 355.65 262.29 357.11 263.28 358.75 Z M 233.97 336.17 236.85 338.81 237.84 342.7 236.14 341.37 234.85 339.52 233.64 338.33 232.21 339.01 231.37 339.01 231.21 338.4 230.94 338.03 230.68 337.69 230.36 337.17 229.02 338.66 226.39 337.19 223.56 334.8 219.92 332.66 215.23 328.4 212.74 327.02 213.03 326.52 213.07 326.41 213.2 326.36 213.67 326.09 213.12 325.34 211.91 323.24 233.97 336.17 Z M 181.23 324.71 182.22 325.09 183.26 324.55 184.18 324.58 185.06 325.1 185.78 326.13 184.03 326.63 181.2 325.98 179.12 324.44 179.47 322.33 180.14 323.78 181.23 324.71 Z M 201.45 332.83 202.63 333.25 204.45 332.55 203.84 333.88 203.53 334.39 205.41 334.59 206.53 335.36 207.07 336.7 207.23 338.55 207.78 340.21 209.05 341.55 215.38 346.52 216.86 347.13 218.84 347.31 219.26 347.98 222.99 351.92 232.76 356.9 233.22 358.47 229.88 359.28 223.12 355.4 221.48 355.76 222.07 356.21 222.42 356.87 222.99 357.53 226.39 359.31 227.18 359.85 228.25 360.39 229.28 360.32 230.05 360.47 230.36 361.65 229.74 362.33 228.4 361.72 227.13 360.76 226.75 360.32 221.9 358.22 219.86 356.93 217.87 355.19 212.5 349.23 209.25 346.41 203.88 338.05 201.18 336.16 197.4 334.91 185.92 326.09 185.61 324.58 184.95 323.36 183.15 321.39 183.9 321.27 184.5 321.34 184.99 321.39 187.63 323.61 195.24 327.94 195.92 328.87 196.54 330.1 197.31 331.17 198.42 331.63 200.27 332.06 201.45 332.83 Z M 171.84 309.31 171.03 310.01 169.49 309.77 168.08 308.35 168.28 307.26 169.64 307.26 170.12 306.81 170.12 305.8 171.01 305.66 172.85 306.59 175.32 308.3 175.05 309.06 173.12 309.1 171.84 309.31 Z M 157.71 303.42 157.18 303.88 154.93 302.99 149.27 299.31 148.75 298.22 151.24 299.07 155.31 301.11 157.71 303.42 Z M 177.96 297.82 176.58 298.76 174.44 298.25 172.95 297.49 170.52 295.94 170.74 294.82 172.15 293.21 171.5 289 172 288.83 172.61 288.66 174.13 288.52 175.74 289.12 176.88 290.33 177.12 291.65 176.39 292.75 176 293.6 176.15 294.09 177.21 295.42 177.96 297.82 Z M 409.83 349.46 405.35 349.14 404.03 349.39 402.12 349.94 397.57 352.11 395.1 353.83 394.84 354.54 394.55 355.12 394.03 355.58 392.58 355.95 390.25 355.97 385.98 355.09 385.12 353.72 384.53 353.47 383.29 353.11 382.43 353.06 381.63 353.11 380.96 353.33 379.56 354.09 369.81 356.15 366.94 356.21 364.47 355.86 361.55 355 360.14 353.8 359.39 352.62 359.29 351.56 359.35 348.86 359.54 347.52 359.58 346.92 359.39 345.13 359.29 344.81 358.99 344.22 358.91 344.14 358.82 343.99 358.72 343.78 358.64 343.4 358.64 343.02 358.76 342.7 358.8 342.15 358.66 341.55 357.67 340.43 356.21 340.58 352.72 342.97 351.78 343.36 351.05 343.6 350.48 343.67 349.92 343.64 347.26 343.23 343.94 343.2 343 343.4 342.56 343.74 341.99 344.49 341.8 344.85 341.74 345.02 341.72 345.13 341.72 345.24 341.76 345.54 341.93 345.9 342.47 346.69 342.64 347.12 342.58 347.55 342.37 347.89 342.1 348.05 341.53 348.2 340.15 348.39 339.71 348.51 339.31 348.75 338.93 349.11 338.65 349.54 338.51 350.01 338.53 350.43 338.81 351.49 338.78 351.92 338.15 352.29 333.19 353.05 332.24 353.3 331.06 353.83 330.08 354.4 327.34 356.65 326.48 357.2 325.93 357.36 325.56 357.4 325.22 357.27 324.74 357.02 322.07 354.88 321.57 354.6 316.77 353.34 315.09 353.29 312.35 353.63 311.59 353.49 309.71 352.73 309.08 352.7 308.62 352.87 307.9 353.58 307.84 353.92 308.11 354.36 309.66 355.56 309.87 355.79 309.9 356.08 309.64 356.59 309.2 357.2 308.51 357.83 307.69 358.37 306.5 358.82 305.82 359.17 305.43 359.59 305.32 359.96 305.2 360.71 304.92 361.44 304.38 362.11 303.44 362.79 302.56 362.9 301.76 362.81 299.07 361.81 296.08 360.05 295.58 360.06 295.07 360.27 290.48 363.19 289.72 363.52 289.01 363.53 288.45 363.24 284.19 360.44 281.17 359.08 277.37 361.78 277.35 361.8 277.35 361.79 277.12 361.65 274.38 358.57 272.67 357.13 270.71 356.53 268.64 356.31 267.46 356.04 266.43 355.7 264.95 354.84 264.22 353.98 263.67 353.04 262.74 351.92 255.35 345.47 251.84 341.65 249.35 339.8 246.63 339.01 240.97 333.99 241.07 333.55 234.98 328.78 233.46 328.14 232.23 327.41 231.68 326.45 232.21 325.09 230.07 323.98 222.99 318.71 225.14 316.31 224.03 313.33 221.23 310.72 218.37 309.4 219.98 307.99 222.46 306.96 224.75 307.24 225.76 309.83 227.32 311.35 230.21 310.35 231.54 308.26 228.51 306.56 229.55 306.36 229.7 306.12 229.75 306.1 230.36 306.56 231.37 306.56 230.64 304.92 230.23 304.36 236.91 307.56 239.73 310.2 241.23 311.1 243.36 311.25 241.53 306.56 242.72 306.29 243.31 305.91 243.71 305.4 244.37 304.7 242.55 304.29 241.05 303.26 239.79 301.82 238.76 300.18 241.37 300.87 245.16 303.33 248.98 304.36 258.66 308.33 260.82 308.91 271.5 310.1 274.43 309.9 274.89 308.4 273.02 307.49 264.16 306.56 263.48 306.14 259.41 302.35 258.32 301.8 245.07 297.24 243.16 295.83 243.18 295.81 246.14 291.08 246.74 290.41 247.79 289.49 248.95 289.22 249.98 289.27 250.96 289.48 252.59 290.21 255.61 292.11 257.63 293.76 258.21 294.12 258.99 294.39 259.91 294.56 270.22 295.3 271.28 295.48 272.74 296.54 277.23 300.47 278.27 298.23 278.9 297.91 279.98 297.57 281.32 297.45 283.06 296.94 284.52 295.91 286.69 293.87 287.84 292.42 288.7 290.87 289.22 289.54 289.33 288.63 289.12 288.15 288.64 287.87 288.13 287.63 287.63 287.34 287.27 286.96 287.11 286.47 286.98 285.96 286.67 285.62 286.08 285.37 285.36 285.15 284.77 284.89 284.27 284.59 283.69 284.04 283.33 283.34 283.75 282.71 284.82 281.94 291.76 278.25 289.56 273.86 287.65 271.99 279.5 266.53 278.94 265.64 278.86 265.06 279.29 264.57 279.62 264.1 279.71 263.76 279.62 263.36 279.31 262.68 278.55 259.88 277.94 259.17 275.84 257.56 275.53 256.64 275.34 254.12 274.78 252.04 274.02 250.76 273.27 249.91 272.41 249.38 270.08 248.27 269.13 247.68 267.82 246.54 267.33 245.43 267.31 244.21 267.69 243.71 268.69 243.52 273.5 243.55 274.57 243.43 275.49 243.11 276.26 242.62 277.08 242.25 278.6 241.77 279.89 240.92 283.73 239.25 284.1 238.94 284.46 238.47 284.8 237.48 284.65 236.86 284.12 236.51 281.95 236.16 281.11 235.87 279.56 234.99 277.39 234.27 275.24 233.14 274.46 232.53 274.38 232.12 274.69 231.76 277.37 230.34 279.06 229.05 280.04 226.42 279.58 224.56 276.12 221.01 275.63 220.35 275.45 219.81 275.49 219.37 275.68 219.09 276.01 218.84 276.35 218.63 276.77 218.31 278.11 216.88 278.93 216.75 280.12 216.93 283.01 217.73 285.93 219.49 287 219.63 288.82 219.07 289.64 218.71 292.11 217.08 292.68 217.03 293.4 217.15 296.52 218.65 298.53 219.03 298.99 219.19 299.58 219.51 300.58 219.59 301.47 219.55 302.56 218.92 302.65 218.87 302.21 219.84 302.67 223.23 304.53 225.95 306.69 228.38 307.96 230.95 307.32 233.34 304.96 234.12 302.18 234.73 300.21 236.6 300.38 238.86 301.89 241.21 305.29 245.23 306.05 245.93 309.23 247.49 310.27 248.73 311.14 250.1 312.32 250.99 314.3 250.78 315.6 250.47 318.02 250.34 319.17 250.06 320.18 249.19 320.91 248.03 321.86 247.19 323.54 247.27 324.47 248.03 324.97 249.3 325.33 250.7 325.79 251.87 326.83 252.64 327.97 252.42 329.09 251.97 330.11 252.04 331.56 253.5 332.58 256.87 334.38 258.75 335.75 259.41 337.44 259.81 340.73 260.14 342.4 260.71 343.46 261.98 344.13 263.67 344.62 265.49 344.41 265.62 343.29 266.03 342.69 267.81 340.46 269.86 339.39 272.02 342.17 274.16 344.97 274.41 349.88 272.85 352.74 273.19 354.31 274.66 355.2 277.04 355.91 279.68 359.24 286.34 360.14 288.9 360.17 290.98 359.36 291.94 358.22 292.48 357.32 293.05 357.25 294.1 357.76 293.68 359.26 293.72 361.72 294.17 364.53 295.48 365.98 296.51 366.36 297.76 366.39 297.86 366.02 300.12 365.55 301.25 364.18 303.44 363.79 304.91 363.91 306.96 365.2 311.19 367.73 317 369.93 319.31 375.8 323.86 377.75 326.32 380.75 331.61 382.74 333.99 385.33 335.87 386.86 336.72 388.18 337.26 389.64 337.37 393.15 337.18 394.51 337.58 396.25 339.64 396.87 341.63 397.97 343.23 403.89 344.78 406.27 346.1 408.36 347.88 409.83 349.46 Z" fill-rule="evenodd" id="HRV-1493" data-name="Zadarska"/>
<path d="M 373.14 66.65 371.24 66.3 371.01 66.29 370.82 66.31 370.27 66.45 368.38 67.2 367.92 67.24 367.38 67.22 365.41 66.81 364.8 66.8 364.3 66.99 363.96 67.43 364.01 68.23 364.3 68.65 364.7 68.92 365.45 69.16 365.95 69.4 366.33 69.64 366.73 69.99 366.69 70.39 366.25 70.82 364.21 71.62 363.73 71.92 363.98 72.46 364.21 72.71 365.45 73.35 365.83 73.64 366.23 74.01 366.23 74.33 365.83 74.58 364.53 74.81 363.92 74.84 363.48 74.81 362.66 74.53 362.11 74.42 361.57 74.36 361.13 74.37 360.88 74.39 360.73 74.58 360.56 74.9 360.5 75.7 360.6 76.12 360.79 76.43 361.53 76.9 361.74 77.05 361.82 77.21 361.42 77.55 361 77.83 356.98 78.9 355.01 79.04 353.41 80.04 350.88 80.55 333.92 86.92 332.6 86.49 332.12 85.89 332.08 85.14 331.87 84.78 330.39 83.84 329.83 82.88 328.55 81.26 327.71 80.7 326.67 80.27 318.24 78.57 316.48 78.05 315.36 77.57 314.59 77.33 313.5 77.31 311.19 77.91 309.43 78.82 306.64 79.18 297.08 78.66 294.71 78.62 294.56 75.83 294.57 75.8 295.6 73.07 297.18 71.42 297.77 70.01 297.08 69.28 295.87 67.99 294.22 67.15 290.44 66.05 288.79 65.37 287.72 64.58 285.05 62.61 283.16 59.56 283.18 56.16 285.12 52.34 287.62 49 288.12 48.53 289.91 46.84 292.81 45.81 295.06 45.93 304.76 46.42 307.35 45.27 310.08 42.06 311.49 41.31 311.97 41.06 314.02 40.38 316.17 39.99 322.27 39.87 322.62 40.45 322.85 41.64 322.87 42.7 323.37 43.46 324.38 44.09 330.18 45.44 331.02 45.85 331.66 46.39 331.99 47.33 332.16 48.02 332.54 48.47 333.17 48.74 334.44 48.83 336.31 48.76 337.42 48.89 341.22 49.85 342.72 50.01 343.92 49.96 345.49 49.48 346.33 49.31 347.3 49.22 349.27 49.31 351.36 49.2 353.29 48.87 354.29 48.85 355.52 48.95 357.46 49.52 359.93 49.56 360.71 49.34 361.51 48.97 362.18 48.4 363.29 47.14 363.96 46.56 364.91 46.2 365.68 46.22 366.54 46.83 367.06 47.44 367.78 48.44 368.57 48.83 369.56 48.99 371.26 48.89 371.76 49.1 371.99 49.55 371.32 51.24 371.32 52.01 371.93 53.01 372.85 54.21 372.96 54.38 373.04 54.88 373.04 55.58 372.47 57.41 372.39 58.6 372.16 59.69 373.14 66.65 Z" id="HRV-1582" data-name="Krapinsko-Zagorska"/>
<path d="M 313.29 139.29 315.22 144.58 315.93 145.33 316.6 146.29 317.3 147.06 317.19 147.7 316.69 148.46 316.45 149.04 316.23 149.97 316.58 151.06 316.23 151.77 314.86 153.72 314.84 154.99 314.38 155.68 313.46 156.15 310.75 156.79 309.71 156.86 308.84 156.63 308.17 156.27 307.02 155.52 305.8 154.86 304.65 154.45 303.73 154.4 302.35 154.53 301.69 154.41 300.81 153.48 300.2 153.16 298.42 153.19 294.86 152.56 293.03 152.95 292.3 153.44 292.2 153.91 292.72 154.36 293.98 155.22 294.32 155.67 294.3 156.21 293.44 158.43 293.33 159.13 293.44 159.58 293.73 160.04 294.55 160.93 295.01 161.54 295.41 162.28 295.43 162.65 295.28 162.89 293.16 164.13 292.89 164.72 292.97 165.36 293.2 166.02 293.36 166.77 293.31 167.6 293.18 168.42 292.97 169.2 292.32 170.82 292.15 171.49 292.22 172.15 292.43 172.71 292.68 173.22 292.85 173.79 292.59 174.12 290.81 175.22 290.29 176.16 289.37 177.18 288.74 177.66 288.66 178.16 288.74 178.79 288.99 179.54 289.1 180.62 289.45 181.27 289.85 181.55 298.7 182.87 299.03 182.84 299.41 182.72 300.16 182.19 300.58 181.99 301.05 181.87 302.98 181.83 303.83 181.97 304.34 182.12 304.84 182.12 306.06 181.66 306.37 181.64 306.68 181.71 307.02 181.88 307.37 182 307.84 182.07 308.45 182.06 309.01 182.12 309.52 182.28 311.83 183.43 311.9 183.46 310.52 184.37 308.98 187.31 308.85 188.35 309.36 196.38 308.77 198.48 305.6 204.31 305.55 206.83 307.15 210.93 306.63 213.31 303.28 217.46 302.65 218.87 302.56 218.92 301.47 219.55 300.58 219.59 299.58 219.51 298.99 219.19 298.53 219.03 296.52 218.65 293.4 217.15 292.68 217.03 292.11 217.08 289.64 218.71 288.82 219.07 287 219.63 285.93 219.49 283.01 217.73 280.12 216.93 278.93 216.75 278.11 216.88 276.77 218.31 276.35 218.63 276.01 218.84 275.68 219.09 275.49 219.37 275.45 219.81 275.63 220.35 276.12 221.01 279.58 224.56 280.04 226.42 274.76 223.26 273.85 222.54 273.48 221.98 273.21 221.5 272.62 221.04 271.68 220.74 269.99 220.59 267.92 220.78 267.4 220.77 266.77 220.59 266.18 220.25 265.47 219.43 264.99 218.68 263.94 216.2 263.56 215.6 262.91 215.08 260.16 213.58 258.61 212.4 257.98 211.58 255.3 207.3 254.77 206.79 254.33 206.46 236.22 198.56 235.41 198.1 234.78 197.58 233.94 196.7 233.39 196.28 232.24 195.55 231.5 194.91 230.85 194.23 230.37 193.62 229.7 193.02 229.18 192.87 228.36 193.24 224.96 195.61 220.41 195.79 204.54 193.25 199.53 189.77 199.26 189.32 199.18 188.66 199.83 188.39 200.24 188.12 200.68 187.73 200.94 187.12 201.08 180.12 201.61 177.44 201.29 176.71 200.87 175.97 200.27 175.13 199.53 173.76 199.49 173.06 199.8 172.53 200.27 172.27 200.62 172.02 200.81 171.79 201.04 171.32 201.19 170.57 201.92 168.91 202.66 167.88 207.41 165.62 208 165.61 208.78 165.73 209.84 166.35 211.48 167.02 215.34 167.91 216.78 168.48 217.73 169.08 218.05 169.61 219.18 170.25 219.66 170.4 220 170.38 221.71 168.21 222.22 167.71 222.66 167.44 227 166.15 227.9 165.54 228.3 164.87 228.17 163.71 228.26 163.3 228.53 162.83 229.26 162.26 231.88 160.68 232.74 160.04 233.32 159.37 234.48 156.74 234.92 155.46 235.07 154.76 235.13 154.18 235.13 153.52 234.88 152.51 234.36 151.52 233.98 151.04 241.51 149.08 245.89 149.14 247.4 148.83 248.57 148.06 250.99 145.68 252.29 144.88 245.49 141.66 243.55 139.35 242.46 136.44 241.65 132.92 241.59 132.8 240.85 131.28 239.89 129.83 239.75 128.72 241.44 128.11 242.36 127.55 242.86 126.48 243.64 125.47 247.61 124.59 249.29 123.96 251.17 123.5 253.96 123.51 253.22 122.32 251.02 119.75 250.76 119.54 250.77 119.53 252.72 118.74 255.19 116.73 260.33 116.07 261.63 116.23 262.34 116.54 263 117.02 264.02 118.27 266.06 119.74 267.48 120.59 272.05 122.21 272.79 122.56 272.83 122.87 272.66 123.3 272.56 123.74 272.6 124.07 272.87 124.57 275.22 126.34 278.78 128.21 280.21 128.67 281.23 128.62 282.51 127.07 282.95 126.65 283.66 126.18 284.61 125.84 286.18 125.69 287.25 125.83 288.09 126.05 293.08 128.29 296.64 128.78 297.98 129.1 299.26 129.53 300.81 130.24 301.65 130.47 302.31 130.49 302.66 130.3 303.98 129.29 304.25 129.36 304.44 129.59 305.11 132.14 305.01 132.83 304.53 133.42 303.77 133.93 303.33 134.49 303.56 135.13 305.51 136.36 306.26 136.94 308.84 139.41 309.39 139.67 310.1 139.77 311.53 139.63 313.29 139.29 Z" id="HRV-1583" data-name="Karlovacka"/>
<path d="M 182.55 263.98 187.76 266.8 187.27 262.81 190.5 262.7 195.12 264.84 198.91 267.64 201.99 271.27 203.99 272.69 209.03 273.85 210.46 275.38 211.8 277.47 213.67 279.72 211.02 279.42 207.27 277.14 204.45 276.95 205.05 275.55 205.38 275.03 199.8 272.68 197.1 271.96 195.64 271.16 193.81 270.5 191.46 270.5 191.46 271.42 198.87 274.34 209.95 285.75 216.53 289.02 214.38 287.76 212.24 285.95 210.36 283.61 209.07 280.72 214.71 282.72 227.32 292.25 230.36 293.64 232.27 295.24 236.08 297.69 237.84 299.18 235.23 299.69 232.07 298.35 228.78 296.51 225.76 295.48 225.76 296.41 228.17 296.77 230.55 297.9 232.62 299.44 234.14 301.02 231.37 301.02 231.6 301.78 231.96 302.24 232.51 302.57 233.22 302.87 230.34 302.28 224.34 300.4 221.15 300.18 221.15 301.02 226.75 303.87 226.75 304.7 223.63 304.16 220.86 302.96 218.48 301.26 216.53 299.18 216.53 298.34 218.37 298.34 218.37 297.33 217.29 296.86 216.59 296.3 215.52 294.56 216.95 294.64 217.91 294.43 218.62 293.83 219.3 292.81 215.85 291.16 214.68 290.87 213.4 291.01 211.27 291.86 210.08 291.79 208.64 290.63 206.27 287.02 197.9 282.06 196.67 281.88 189.61 278.79 189.61 277.96 190.38 277.77 191.69 277.19 192.47 276.95 190.8 274.74 186.93 270.63 186.84 269.49 185.34 268.6 171.24 256.13 168.83 253.18 167.48 250.11 168.08 250.12 168.5 250.33 173.73 254.66 182.55 263.98 Z M 280.04 226.42 279.06 229.05 277.37 230.34 274.69 231.76 274.38 232.12 274.46 232.53 275.24 233.14 277.39 234.27 279.56 234.99 281.11 235.87 281.95 236.16 284.12 236.51 284.65 236.86 284.8 237.48 284.46 238.47 284.1 238.94 283.73 239.25 279.89 240.92 278.6 241.77 277.08 242.25 276.26 242.62 275.49 243.11 274.57 243.43 273.5 243.55 268.69 243.52 267.69 243.71 267.31 244.21 267.33 245.43 267.82 246.54 269.13 247.68 270.08 248.27 272.41 249.38 273.27 249.91 274.02 250.76 274.78 252.04 275.34 254.12 275.53 256.64 275.84 257.56 277.94 259.17 278.55 259.88 279.31 262.68 279.62 263.36 279.71 263.76 279.62 264.1 279.29 264.57 278.86 265.06 278.94 265.64 279.5 266.53 287.65 271.99 289.56 273.86 291.76 278.25 284.82 281.94 283.75 282.71 283.33 283.34 283.69 284.04 284.27 284.59 284.77 284.89 285.36 285.15 286.08 285.37 286.67 285.62 286.98 285.96 287.11 286.47 287.27 286.96 287.63 287.34 288.13 287.63 288.64 287.87 289.12 288.15 289.33 288.63 289.22 289.54 288.7 290.87 287.84 292.42 286.69 293.87 284.52 295.91 283.06 296.94 281.32 297.45 279.98 297.57 278.9 297.91 278.27 298.23 277.23 300.47 272.74 296.54 271.28 295.48 270.22 295.3 259.91 294.56 258.99 294.39 258.21 294.12 257.63 293.76 255.61 292.11 252.59 290.21 250.96 289.48 249.98 289.27 248.95 289.22 247.79 289.49 246.74 290.41 246.14 291.08 243.18 295.81 243.16 295.83 243.16 295.83 224.41 282.06 218.07 275.69 214.28 272.69 210.49 271.42 209.93 270.76 205.53 268.23 204.45 268.14 203.64 266.96 190.14 251.87 187.76 247.35 189.3 245.66 189.13 243.66 188.26 241.3 187.76 238.55 187.43 231.08 187.76 228.73 190.67 220.19 191.96 218.13 192.88 215.58 191.89 212.52 187.43 205.2 187.45 205.17 188.13 204.29 188.08 202.54 188.24 202.07 188.63 201.72 193.53 199.53 194.58 199.36 195.3 199.48 195.99 200.03 196.39 200.19 196.93 200.32 199.07 200.11 202.84 200.36 205.17 200.24 206.01 200.03 206.51 199.6 207.02 198.53 207.16 197.58 207.14 196.85 204.54 193.25 220.41 195.79 224.96 195.61 228.36 193.24 229.18 192.87 229.7 193.02 230.37 193.62 230.85 194.23 231.5 194.91 232.24 195.55 233.39 196.28 233.94 196.7 234.78 197.58 235.41 198.1 236.22 198.56 254.33 206.46 254.77 206.79 255.3 207.3 257.98 211.58 258.61 212.4 260.16 213.58 262.91 215.08 263.56 215.6 263.94 216.2 264.99 218.68 265.47 219.43 266.18 220.25 266.77 220.59 267.4 220.77 267.92 220.78 269.99 220.59 271.68 220.74 272.62 221.04 273.21 221.5 273.48 221.98 273.85 222.54 274.76 223.26 280.04 226.42 Z" fill-rule="evenodd" id="HRV-1584" data-name="Licko-Senjska"/>
<path d="M 104.99 262.36 104.02 262.49 102.43 261.78 100.75 261.37 99.78 260.53 99.91 259.35 100.19 258.35 101.34 255.75 104.27 253.31 106.25 253.57 106.19 254.89 105.4 255.72 103.61 256.02 103.41 256.19 103.12 256.39 103.06 256.88 103.28 257.59 102.99 258.32 103.04 259.05 103.35 259.45 104.27 260.62 104.99 262.36 Z M 123.75 263.92 128.55 268.65 139.51 277.06 140.55 279.72 137.53 279.96 133.89 277.48 129.41 273.26 127.55 272.34 127.55 271.42 130.4 272 131.33 272.34 127.53 268.83 125.45 267.58 122.95 266.8 121.99 268.22 120.58 268.7 118.98 268.43 117.41 267.64 117.41 266.8 118.33 266.8 118.33 266.78 118.16 266.48 117.64 265.78 120.04 263.61 119.15 260.94 115.56 256.58 114.91 254.8 113.9 250.59 113.72 248.28 116.42 249.58 119.85 250.73 122.06 252.49 121.1 255.65 121.75 256.84 122.34 258.98 122.95 262.66 123.75 263.92 Z M 170.13 230.84 170.51 232.21 168.4 233.43 168.4 234.26 169.42 234.76 174.73 238.48 178 239.84 179.47 240.89 183.37 245.5 184.42 248.2 183.15 250.11 179.34 247.75 172.79 242.39 168.4 239.97 168.4 241.02 168.73 241.66 170.24 242.74 168.46 241.84 166.3 241.4 164.28 241.37 162.86 241.73 157.24 237.2 158.93 237.1 160.62 237.2 162.23 237.51 163.71 238.04 163.71 237.2 163.24 236.74 163.12 236.44 163.11 236.04 162.86 235.27 165.07 236.6 165.63 237.2 166.55 237.2 164.84 234.54 163.72 233.4 161.86 232.51 161.55 232.07 161.01 230.66 163.85 230.96 166.55 231.59 166.19 231.03 165.63 229.65 168.2 229.81 170.13 230.84 Z M 132 216.24 130.85 218.66 129.41 220.51 130.4 221.44 129.15 223.79 128.95 225.72 129.41 230.16 131.16 234.14 131.39 236.38 129.41 237.2 130.11 238.69 131.75 240.67 132.25 241.73 132.38 243.17 131.53 244.85 131.33 246.52 132.15 249.47 133.96 251.61 136.09 253.49 137.79 255.65 137 256.85 137.07 257.93 137.93 258.36 139.63 257.58 140.55 259.42 139.6 260.39 138.66 261.14 137.71 261.51 136.22 261.32 132.26 261.32 126.17 256.41 121.66 249.52 122.02 243.57 121.42 243.45 121.03 243.24 120.69 243 120.18 242.74 118.96 243.27 118.1 242.29 117.57 240.49 117.41 236.15 117.21 234.87 116.54 234.36 115.11 234.26 112.92 232.45 110.8 224.36 108.1 222.35 108.24 221.75 108.38 221.37 109.09 220.51 107.87 218.07 109.09 217.65 112.29 218.59 113.25 219.17 115.68 221.78 116.94 222.35 119.31 222.42 120.69 222.3 121.49 221.52 122.02 219.59 121.53 218.82 120.91 216.72 121.09 215.36 122.95 216.83 123.94 215.91 121.24 214.14 119.25 211.78 115.2 203.59 114.4 202.5 107.19 196.36 105.98 194.7 105.87 192.72 107.35 189.9 108.83 188.08 110.73 186.71 113.19 186.25 116.48 187.14 117.55 188.71 117.06 194.12 117.41 197.37 118.3 199.81 120.74 204.73 124.06 209.52 124.78 210.28 126.56 211.32 129.68 211.63 131.33 212.21 132.33 213.87 132 216.24 Z M 144.46 176.27 148.86 177.92 147.46 177.87 147.02 177.92 147.26 178.91 147.69 179.7 148.25 180.3 148.86 180.76 150.86 183.25 152.63 186.3 149.07 187.52 151.12 188.49 155.33 188.82 158.24 188.15 159 190.63 157.38 195.37 158.24 198.21 159.97 199.54 162.39 200.09 168.4 200.14 168.34 204.02 176.42 209.31 178.46 213.05 177.63 213.05 176.06 213.88 174.37 214.16 172.69 213.88 171.16 213.05 169.31 214.06 169.31 214.9 171.14 216.07 170.61 216.94 168.61 217.48 166.09 217.66 163.79 217.21 157.24 214.06 153.33 212.96 152.73 211.97 152.63 209.82 152.98 204.98 152.24 203.85 149.86 204.75 149.86 205.66 151.71 206.68 148.16 206.87 137.33 205.66 133.93 204.87 130.52 202.93 127.63 200.48 125.78 198.21 126.87 197.06 128.02 196.53 129.31 196.36 130.86 196.36 131.38 195.78 131.29 194.51 131.46 193.24 132.71 192.67 137.8 192.57 139.98 191.79 138.78 189.9 140.53 188.1 141.25 186.99 141.55 185.84 141.23 184.77 140.76 183.78 140.89 182.76 142.4 181.6 142.64 180.09 142.51 178.91 141.83 178.16 140.55 177.92 142.51 176.41 144.46 176.27 Z M 204.54 193.25 207.14 196.85 207.16 197.58 207.02 198.53 206.51 199.6 206.01 200.03 205.17 200.24 202.84 200.36 199.07 200.11 196.93 200.32 196.39 200.19 195.99 200.03 195.3 199.48 194.58 199.36 193.53 199.53 188.63 201.72 188.24 202.07 188.08 202.54 188.13 204.29 187.45 205.17 187.43 205.2 184.07 199.68 183.57 197.36 182.19 195.75 180.14 194.61 171.84 191.45 157.24 183.45 150.33 176.99 148.45 176.26 146.18 174.57 145.18 172.73 147.02 171.46 145.48 170.34 140.55 167.76 142.97 169.79 143.4 170.03 142.93 171.09 141.76 171.66 140.37 171.66 139.21 171 137.33 169.51 122.72 164.26 117.48 163.45 115.09 162.5 112.91 162.18 110.45 163.54 107.64 166.71 105.1 170.81 103.28 175.45 101.83 184.82 100.07 189.13 100.06 189.14 100.06 189.13 99.97 189.11 96.88 188.19 96.33 187.69 95.73 186.83 95.58 185.97 95.61 184.78 95.79 183.53 95.67 180.34 94.64 172.85 94.58 170.55 94.73 169.7 95.04 168.95 96.26 167.14 96.8 165.72 96.84 164.71 96.59 163.32 95.31 159.27 95.06 157.9 95.12 156.89 95.52 156.22 95.86 155.43 95.54 154.94 94.35 154.3 87.12 151.34 85.9 150.43 84.69 149.07 84.2 147.99 84.06 147.29 84.21 146.11 84.53 146.12 88.02 145.67 94.44 143.55 97.9 142.84 100.86 143.35 106.24 145.01 112.51 145.85 118.72 145.45 123.92 143.38 126.42 141.73 131.71 139 133.5 136.72 134.21 134.81 134.76 131.76 134.87 131.19 135.72 129.46 136.97 128.15 140.38 125.47 141.81 124.02 143.49 121.28 144.54 120.47 145.24 120.26 146.85 119.78 148.33 120.38 148.62 122.46 148.47 124.94 148.59 126.76 149.83 128.46 151.58 129.75 156.22 132.34 157.17 132.62 158.02 132.97 158.07 132.99 158.85 133.73 159.11 134.78 158.63 137.17 158.67 137.87 161.35 139.48 173.89 143.35 173.91 143.35 173.92 143.38 173.94 143.38 176.06 147.16 181.69 148 187.47 146.54 190.06 143.38 190.55 140.51 193.01 140.44 196.08 141.85 198.41 143.38 200.4 143.57 201.61 143.69 203.12 144.19 204.46 145.04 211.05 145.17 212.4 145.98 222.28 151.91 228.35 152.51 233.98 151.04 234.36 151.52 234.88 152.51 235.13 153.52 235.13 154.18 235.07 154.76 234.92 155.46 234.48 156.74 233.32 159.37 232.74 160.04 231.88 160.68 229.26 162.26 228.53 162.83 228.26 163.3 228.17 163.71 228.3 164.87 227.9 165.54 227 166.15 222.66 167.44 222.22 167.71 221.71 168.21 220 170.38 219.66 170.4 219.18 170.25 218.05 169.61 217.73 169.08 216.78 168.48 215.34 167.91 211.48 167.02 209.84 166.35 208.78 165.73 208 165.61 207.41 165.62 202.66 167.88 201.92 168.91 201.19 170.57 201.04 171.32 200.81 171.79 200.62 172.02 200.27 172.27 199.8 172.53 199.49 173.06 199.53 173.76 200.27 175.13 200.87 175.97 201.29 176.71 201.61 177.44 201.08 180.12 200.94 187.12 200.68 187.73 200.24 188.12 199.83 188.39 199.18 188.66 199.26 189.32 199.53 189.77 204.54 193.25 Z" fill-rule="evenodd" id="HRV-1586" data-name="Primorsko-Goranska"/>
<path d="M 405.68 106.64 407.68 108.14 407.68 108.99 407.15 109.81 406.69 110.79 406.22 112.47 406.35 113.07 406.81 113.35 407.8 113.45 408.95 113.75 410.48 114.59 411.64 115.05 413.14 115.3 414.87 115.8 417.91 117.46 419.96 119.32 421.22 120.15 421.91 120.45 424.43 120.43 427.21 120.87 436.37 123.9 437.08 124.34 438.56 125.7 439.5 126.15 440.78 126.44 444.03 126.74 444.86 127.16 445.41 127.72 447.34 131.28 447.93 132.16 449 133.45 449.81 133.94 450.99 134.27 451.47 134.47 451.78 134.71 453.1 136.24 455.08 138.08 455.75 138.87 455.94 139.37 453.55 141.1 452.92 141.14 452.46 141.12 452.05 141.02 451.61 140.97 451.22 140.99 450.84 141.05 450.61 141.4 450.71 141.94 451.53 143.2 452.5 143.93 453.59 144.53 454.62 144.81 455.79 144.92 458.49 144.81 459.46 145.11 459.99 145.63 460.67 146.59 461.12 146.82 461.83 146.71 464.11 145.71 468.94 148.49 473.5 150.09 474.32 150.64 474.55 150.85 476.78 153.45 478.43 153.19 480.28 152.61 480.88 152.49 481.45 152.56 481.91 152.89 482.14 153.67 481.99 154.4 481.72 154.91 481.07 155.63 480.44 156.53 480.34 157.04 480.34 157.59 480.63 158.03 482.06 158.92 493.11 163.81 498.16 163 499.29 165.31 499.36 165.83 499.11 166.3 498.37 166.72 497.91 167.11 497.74 167.57 498.34 168.24 500.24 169.45 500.66 169.8 500.78 170.21 500.55 170.53 499.67 171.02 498.01 171.23 496.84 171.27 496.04 171.38 494.45 171.85 494.05 172.03 493.57 172.49 491.98 174.44 489.88 175.82 489.18 176.18 485.67 178.68 485.29 179.11 485.06 179.51 484.7 180.81 484.89 181.38 485.48 181.96 486.82 182.58 488.62 183.95 490.5 187.13 490.52 187.17 486.98 186.01 481.21 182.93 478.59 178.87 477.76 179.35 475.63 180.32 474.8 180.81 475.37 179.68 475.51 178.86 475.3 178.06 474.8 177.02 473.5 178.75 472.08 178.05 470.43 176.62 468.43 176.11 468.99 177.01 469.36 177.95 466.56 178.17 465.78 177.42 465.86 176.25 465.67 175.19 464.58 172.34 463.46 171.57 459.76 173.78 459.36 174.4 458.25 175.53 456.84 176.64 455.75 177.13 455 178.63 453.67 179.28 452.17 179.74 450.81 180.69 450.04 182.31 450.14 183.48 449.93 184.46 448.24 185.53 444.81 185.85 417.88 180.17 410.04 179.98 403.68 183.05 399.26 190 397.41 192.06 395.96 192.81 392.41 193.6 391.16 194.22 390.15 195.47 390.18 196.24 390.46 197.12 390.18 198.7 389.55 199.8 386.8 203.44 385.32 207.31 385.32 207.31 384.59 209.21 381.3 209.84 376.31 209.04 371.16 207.45 367.35 205.76 354.99 197.02 352.63 194.8 349.75 189.53 347.69 187.1 346 186.17 343.04 185.73 341.87 185.11 341.95 184.49 342.45 183.49 342.52 182.31 341.33 181.11 339.71 180.53 338.23 180.48 335.13 180.91 322.2 180.66 314.9 181.5 311.9 183.46 311.83 183.43 309.52 182.28 309.01 182.12 308.45 182.06 307.84 182.07 307.37 182 307.02 181.88 306.68 181.71 306.37 181.64 306.06 181.66 304.84 182.12 304.34 182.12 303.83 181.97 302.98 181.83 301.05 181.87 300.58 181.99 300.16 182.19 299.41 182.72 299.03 182.84 298.7 182.87 289.85 181.55 289.45 181.27 289.1 180.62 288.99 179.54 288.74 178.79 288.66 178.16 288.74 177.66 289.37 177.18 290.29 176.16 290.81 175.22 292.59 174.12 292.85 173.79 292.68 173.22 292.43 172.71 292.22 172.15 292.15 171.49 292.32 170.82 292.97 169.2 293.18 168.42 293.31 167.6 293.36 166.77 293.2 166.02 292.97 165.36 292.89 164.72 293.16 164.13 295.28 162.89 295.43 162.65 295.41 162.28 295.01 161.54 294.55 160.93 293.73 160.04 293.44 159.58 293.33 159.13 293.44 158.43 294.3 156.21 294.32 155.67 293.98 155.22 292.72 154.36 292.2 153.91 292.3 153.44 293.03 152.95 294.86 152.56 298.42 153.19 300.2 153.16 300.81 153.48 301.69 154.41 302.35 154.53 303.73 154.4 304.65 154.45 305.8 154.86 307.02 155.52 308.17 156.27 308.84 156.63 309.71 156.86 310.75 156.79 313.46 156.15 314.38 155.68 314.84 154.99 314.86 153.72 316.23 151.77 316.58 151.06 316.23 149.97 316.45 149.04 316.69 148.46 317.19 147.7 317.3 147.06 316.6 146.29 315.93 145.33 315.22 144.58 313.29 139.29 316.92 136.24 318.89 135.72 319.64 135.84 320.25 136.06 320.67 136.39 320.84 136.83 320.86 137.33 320.77 137.76 321.25 138.08 321.65 138.26 325.37 138.71 325.37 138.72 328.15 140.93 328.91 142.04 328.95 142.45 328.89 142.94 328.8 144.59 329.91 145.86 335.57 146.14 337.5 145.79 338.57 145 339.58 144.45 340.63 144.33 341.99 144.39 343.02 144.63 343.6 144.88 344.86 145.71 348.64 142.5 349.56 142.13 351.21 141.83 352.91 141.95 353.31 141.85 353.54 141.6 353.27 141.2 353.02 140.92 352.53 140.5 352.32 139.95 352.35 137.96 352.01 137.22 351.21 136.51 348.91 135.21 348.41 134.83 348.07 134.37 347.93 133.83 347.88 132.84 347.59 132.37 346.96 132.02 345.78 131.72 345.26 131.51 344.92 131.13 344.76 130.41 344.84 129.75 345.22 129.29 345.91 129.06 348.83 129.31 350.13 129.18 351.11 128.86 354.99 126.66 357.21 124.9 357.71 124.58 358.55 124.34 359.33 124.3 360.37 124.46 361.76 125.06 362.85 126.37 363.31 126.82 363.88 127.02 365.26 127.14 366.16 127.39 367.19 127.87 368.11 128.54 369.25 129.17 370.71 129.38 374.36 128.34 376.16 127.18 378.74 123.23 378.03 119.25 378.6 117.51 377.7 113.9 377.91 112.62 378.28 111.67 380.44 109.41 381.13 108.98 381.8 108.91 384.11 109.88 385.06 110.09 385.47 110.1 388.07 109.54 388.6 109.34 388.91 109.03 388.99 108.81 389.5 106.11 390.48 103.35 390.61 102.54 390.59 101.93 390.48 101.33 390.12 100.3 395.6 100.33 395.83 100.14 396.42 99.2 396.56 99.02 396.81 98.89 397.17 98.8 397.63 98.88 398.03 99.16 398.34 100 399.91 101.84 405.68 106.64 Z" id="HRV-1587" data-name="Sisacko-Moslavacka"/>
<path d="M 373.14 66.65 375.24 69.08 375.64 69.63 376.22 71.34 376.62 71.9 377.11 72.41 377.89 72.98 378.26 73.17 379.16 73.2 380.71 73.06 382.95 72.19 387.11 71.57 397.04 73.81 398.51 74.35 400.7 76.59 401.78 77.5 402.08 77.79 402.29 78.09 402.33 78.39 402.22 78.7 401.91 79.39 401.66 80.2 401.99 80.46 402.79 80.56 404.61 80.21 405.58 79.75 406.08 79.46 406.5 78.82 406.77 78.48 407.15 78.15 407.51 77.93 408.03 77.92 408.81 78.21 412.24 80.7 413.04 81.17 418.22 83.28 419.06 83.84 419.58 84.35 419.79 84.77 420.15 84.94 420.67 84.98 421.82 84.74 422.65 84.75 423.74 85.2 424.3 85.57 425.16 85.76 426.19 85.66 430.19 84.48 432.14 85.14 432.02 86.54 432.04 87.86 432.6 92.11 432.56 92.95 432.29 94.67 431.58 96.63 429.64 98.39 428.62 98.91 427.46 99.2 425.7 99.2 424.7 98.88 424.22 98.36 424.3 97.73 424.59 97.06 424.66 96.41 424.26 95.92 423.51 95.88 422.62 96.27 419.71 99.58 419.37 100.54 419.46 101.67 419.87 103.71 419.54 104.4 418.72 104.65 414.28 103.45 410.42 103.49 409.31 103.87 407.84 105.65 405.68 106.64 399.91 101.84 398.34 100 398.03 99.16 397.63 98.88 397.17 98.8 396.81 98.89 396.56 99.02 396.42 99.2 395.83 100.14 395.6 100.33 390.12 100.3 390.48 101.33 390.59 101.93 390.61 102.54 390.48 103.35 389.5 106.11 388.99 108.81 388.91 109.03 388.6 109.34 388.07 109.54 385.47 110.1 385.06 110.09 384.11 109.88 381.8 108.91 381.13 108.98 380.44 109.41 378.28 111.67 377.91 112.62 377.7 113.9 378.6 117.51 378.03 119.25 378.74 123.23 376.16 127.18 374.36 128.34 370.71 129.38 369.25 129.17 368.11 128.54 367.19 127.87 366.16 127.39 365.26 127.14 363.88 127.02 363.31 126.82 362.85 126.37 361.76 125.06 360.37 124.46 359.33 124.3 358.55 124.34 357.71 124.58 357.21 124.9 354.99 126.66 351.11 128.86 350.13 129.18 348.83 129.31 345.91 129.06 345.22 129.29 344.84 129.75 344.76 130.41 344.92 131.13 345.26 131.51 345.78 131.72 346.96 132.02 347.59 132.37 347.88 132.84 347.93 133.83 348.07 134.37 348.41 134.83 348.91 135.21 351.21 136.51 352.01 137.22 352.35 137.96 352.32 139.95 352.53 140.5 353.02 140.92 353.27 141.2 353.54 141.6 353.31 141.85 352.91 141.95 351.21 141.83 349.56 142.13 348.64 142.5 344.86 145.71 343.6 144.88 343.02 144.63 341.99 144.39 340.63 144.33 339.58 144.45 338.57 145 337.5 145.79 335.57 146.14 329.91 145.86 328.8 144.59 328.89 142.94 328.95 142.45 328.91 142.04 328.15 140.93 325.37 138.72 325.37 138.71 321.65 138.26 321.25 138.08 320.77 137.76 320.86 137.33 320.84 136.83 320.67 136.39 320.25 136.06 319.64 135.84 318.89 135.72 316.92 136.24 313.29 139.29 311.53 139.63 310.1 139.77 309.39 139.67 308.84 139.41 306.26 136.94 305.51 136.36 303.56 135.13 303.33 134.49 303.77 133.93 304.53 133.42 305.01 132.83 305.11 132.14 304.44 129.59 304.25 129.36 303.98 129.29 302.66 130.3 302.31 130.49 301.65 130.47 300.81 130.24 299.26 129.53 297.98 129.1 296.64 128.78 293.08 128.29 288.09 126.05 287.25 125.83 286.18 125.69 284.61 125.84 283.66 126.18 282.95 126.65 282.51 127.07 281.23 128.62 280.21 128.67 278.78 128.21 275.22 126.34 272.87 124.57 272.6 124.07 272.56 123.74 272.66 123.3 272.83 122.87 272.79 122.56 272.05 122.21 267.48 120.59 266.06 119.74 264.02 118.27 263 117.02 262.34 116.54 261.63 116.23 260.33 116.07 255.19 116.73 252.72 118.74 250.77 119.53 250.76 119.54 248.57 117.78 248.15 117.52 247.65 117.71 246.02 118.02 245.4 118.38 245.22 118.92 244.66 119.2 242.9 118.74 241.7 118.12 240.99 117.46 239.65 115.64 238.35 114.74 237.36 114.4 237.09 113.83 237.23 113.58 237.92 112.26 239.06 111.33 244.51 109.2 248.19 108.34 261.43 105.26 261.53 105.21 263.05 104.33 262.84 103.05 262.31 101.64 262.96 100.37 264.44 99.88 265.96 100 267.49 100.36 269.04 100.55 270.38 100.21 272.9 98.76 274.2 98.3 277.74 98.72 282.81 99.33 288.05 99.19 290.69 98.66 293.45 97.64 294.81 96.29 294.72 94.36 293.13 91.65 292.56 89.92 293.09 88.3 294.04 86.7 294.74 85.01 294.95 82.77 294.71 78.62 297.08 78.66 306.64 79.18 309.43 78.82 311.19 77.91 313.5 77.31 314.59 77.33 315.36 77.57 316.48 78.05 318.24 78.57 326.67 80.27 327.71 80.7 328.55 81.26 329.83 82.88 330.39 83.84 326.9 85.24 319.85 86.33 317.9 86.41 315.42 86.31 314.34 86.56 313.81 87.04 313.92 87.73 314.17 88.54 314.31 89.49 314.19 90.4 313.48 91.39 312.41 91.81 309.04 92.23 308.11 92.55 307.69 92.8 307.61 93.22 307.61 93.66 306.93 95.67 307.24 95.95 308.04 96.42 312.91 96.39 314.6 97.47 317.89 100.65 316.4 102.19 313.34 105.2 316.1 107.97 313.34 112.11 309.18 110.29 308.07 111.96 307.61 113.3 307.5 114.06 307.54 114.69 307.77 115.15 307.92 115.39 308.49 115.89 309.5 116.6 313.27 118.55 321.63 121.21 322.53 121.63 323.33 122.08 323.92 122.6 324.31 123.18 324.61 123.78 325.03 124.4 325.6 124.87 327.96 125.92 330.26 123.16 331.3 116.26 334.06 113.15 350.64 105.55 357.23 100.8 357.69 100.88 361.51 102.57 363.86 103.24 364.21 103.12 364.51 102.73 364.93 101.61 365.83 100.21 365.91 100.04 366.23 99.12 366.48 97.85 366.6 97.52 366.81 97.19 368.91 95.58 369.22 95.22 368.93 94.45 368.11 93.27 363.19 88.55 362.43 87.57 360.63 83.9 356.98 78.9 361 77.83 361.42 77.55 361.82 77.21 361.74 77.05 361.53 76.9 360.79 76.43 360.6 76.12 360.5 75.7 360.56 74.9 360.73 74.58 360.88 74.39 361.13 74.37 361.57 74.36 362.11 74.42 362.66 74.53 363.48 74.81 363.92 74.84 364.53 74.81 365.83 74.58 366.23 74.33 366.23 74.01 365.83 73.64 365.45 73.35 364.21 72.71 363.98 72.46 363.73 71.92 364.21 71.62 366.25 70.82 366.69 70.39 366.73 69.99 366.33 69.64 365.95 69.4 365.45 69.16 364.7 68.92 364.3 68.65 364.01 68.23 363.96 67.43 364.3 66.99 364.8 66.8 365.41 66.81 367.38 67.22 367.92 67.24 368.38 67.2 370.27 66.45 370.82 66.31 371.01 66.29 371.24 66.3 373.14 66.65 Z" id="HRV-1588" data-name="Zagrebacka"/>
<path d="M 330.39 83.84 331.87 84.78 332.08 85.14 332.12 85.89 332.6 86.49 333.92 86.92 350.88 80.55 353.41 80.04 355.01 79.04 356.98 78.9 360.63 83.9 362.43 87.57 363.19 88.55 368.11 93.27 368.93 94.45 369.22 95.22 368.91 95.58 366.81 97.19 366.6 97.52 366.48 97.85 366.23 99.12 365.91 100.04 365.83 100.21 364.93 101.61 364.51 102.73 364.21 103.12 363.86 103.24 361.51 102.57 357.69 100.88 357.23 100.8 350.64 105.55 334.06 113.15 331.3 116.26 330.26 123.16 327.96 125.92 325.6 124.87 325.03 124.4 324.61 123.78 324.31 123.18 323.92 122.6 323.33 122.08 322.53 121.63 321.63 121.21 313.27 118.55 309.5 116.6 308.49 115.89 307.92 115.39 307.77 115.15 307.54 114.69 307.5 114.06 307.61 113.3 308.07 111.96 309.18 110.29 313.34 112.11 316.1 107.97 313.34 105.2 316.4 102.19 317.89 100.65 314.6 97.47 312.91 96.39 308.04 96.42 307.24 95.95 306.93 95.67 307.61 93.66 307.61 93.22 307.69 92.8 308.11 92.55 309.04 92.23 312.41 91.81 313.48 91.39 314.19 90.4 314.31 89.49 314.17 88.54 313.92 87.73 313.81 87.04 314.34 86.56 315.42 86.31 317.9 86.41 319.85 86.33 326.9 85.24 330.39 83.84 Z" id="HRV-1589" data-name="Grad Zagreb"/>
<path d="M 66.66 140.85 70.24 141.38 72.18 142.1 73.97 143.38 73.97 143.38 77.36 145.12 80.91 145.98 84.13 146.1 84.21 146.11 84.06 147.29 84.2 147.99 84.69 149.07 85.9 150.43 87.12 151.34 94.35 154.3 95.54 154.94 95.86 155.43 95.52 156.22 95.12 156.89 95.06 157.9 95.31 159.27 96.59 163.32 96.84 164.71 96.8 165.72 96.26 167.14 95.04 168.95 94.73 169.7 94.58 170.55 94.64 172.85 95.67 180.34 95.79 183.53 95.61 184.78 95.58 185.97 95.73 186.83 96.33 187.69 96.88 188.19 99.97 189.11 100.06 189.13 100.06 189.14 99.98 189.33 99.78 189.83 96.62 192.94 92.59 191.84 94.74 193.72 94.45 195.74 92.73 197.65 90.57 199.21 89.73 198.21 89.2 199.35 89.17 200.29 89.73 202.82 89.2 202.58 88.28 202.27 87.8 201.99 87.8 202.82 89.9 204.56 90.81 207.45 90.48 210.58 88.81 213.05 87.26 213.88 86.17 213.78 85.14 213.33 83.66 213.05 82.05 213.49 80.47 214.54 79.22 215.78 78.58 216.83 77.66 216.83 78.03 214.19 79.11 212.99 79.68 211.85 78.58 209.36 75.72 207.52 75.32 206.49 75.53 205.53 75.37 204.87 73.8 204.75 74.32 206.34 73.74 208.74 74.34 209.82 75.75 210.48 77.02 210.58 78.02 210.91 78.58 212.21 77.11 213.23 75.22 215.89 74.36 216.58 73.8 215.91 73.04 215.91 73.59 216.85 73.79 217.97 73.63 219.22 73.04 220.51 71.95 220.27 71.39 220.35 71.41 220.74 72.12 221.44 72.12 222.35 71.42 222.4 71.26 222.52 71.29 222.83 71.13 223.37 69.79 222.81 66.8 223.42 64.66 223.37 65.75 223.99 66.44 224.59 67.41 226.05 66.49 226.05 66.49 226.89 67.41 226.89 67.41 227.9 66.44 228.36 65.83 228.95 64.66 230.66 64.93 231.67 65.16 231.97 65.15 232.32 64.66 233.43 66.09 233.38 66.93 233.64 67.54 234.26 68.36 235.27 63.47 235.43 61.1 235.17 59.12 234.26 58.86 234.82 58.83 234.97 58.2 235.27 57.37 233.11 56.15 232.85 54.79 233.11 53.51 232.51 52.57 233.43 54.02 233.87 55.43 234.7 56.11 235.82 55.45 237.2 56.66 239.41 57.27 239.97 55.27 240.76 54.77 239.47 54.81 237.26 54.44 235.27 53.45 234.72 49.44 233.56 47.97 233.43 48.26 232.98 48.61 232.02 48.89 231.59 48.47 231.52 47.49 231.61 47.05 231.59 47.97 230.66 47.05 229.65 45.57 229.91 43.45 229.39 41.24 228.31 39.59 226.89 40.6 226.05 41.99 227.49 43.98 227.89 45.89 227.12 47.05 225.12 43.4 225.75 41.99 225.49 40.6 224.2 40.6 223.37 41.15 222.99 41.8 222.08 42.43 221.44 40.89 220.16 37.83 214.9 32.25 210.69 25.3 203.74 24.22 203.11 22.53 201.74 20.23 200.48 17.45 200.14 18.05 199.28 18.78 197.93 19.3 197.37 16.01 194.09 19.52 192.44 31.37 191.84 28.73 190.95 25.61 190.64 19.3 190.82 15.93 191.53 14.39 191.46 13.77 190.36 14.03 188.94 14.39 187.77 14.23 186.87 12.84 186.3 13.47 185.38 13.56 184.7 13.04 184.1 11.92 183.45 11.92 182.61 13.03 182.11 13.57 181.28 13.53 180.18 12.84 178.84 13.73 177.51 13.67 176.12 12.72 174.94 10.99 174.22 11.45 173.4 12.18 172.71 13.24 172.3 14.68 172.3 14.68 171.46 13.3 170.99 12.24 170.4 11.47 169.61 10.99 168.6 12.38 168.42 13.57 167.98 15.6 166.76 14.03 166.19 10.4 166.1 9.15 165.92 7.64 164.84 6.38 163.24 6.28 161.81 8.22 161.23 8.22 160.38 6.63 159.19 2.61 151.07 2.88 150.81 3.31 150.52 3.61 150.15 2.96 149.56 2.91 149.46 3.21 149.24 3.61 148.23 1.42 144.63 1 142.64 1.76 140.85 2.61 140.85 3.92 141.61 10.07 143.7 12.9 143.96 18.23 148 22.41 147.86 35.83 147.43 42.22 150.27 44.02 151.56 46.14 152.03 53.36 152.77 54.8 152.02 55.98 150.71 57.95 149.35 64.28 147.46 66.01 145.79 63.15 143.38 63.15 141.93 63.62 140.97 64.56 140.53 66.66 140.85 Z" id="HRV-1592" data-name="Istarska"/>
<path d="M 619.82 173.33 625.1 176.16 625.21 176.24 625.33 176.37 625.75 176.68 626.92 177.19 635.94 179.56 639.02 179.88 643.2 179.66 644.98 179.19 646.05 178.52 646.68 177.82 647.66 177.32 649.29 177.01 652.92 176.72 657.85 177.27 674.54 181.42 681.33 183.86 678.02 186.62 677.43 187.38 677.05 188.16 676.8 189 676.68 190.08 676.66 191.19 676.89 192.59 677.91 194.64 680.94 198.02 681 198.04 681.05 198.06 680.99 198.99 681.65 200.64 681.9 202.54 678.65 202.46 675.1 201.53 673.87 200.97 671.76 200.01 669.84 198.53 669.84 198.53 666.79 196.2 664.46 194.82 661.88 193.98 652.34 193.41 650.33 192.78 644.18 189.65 640.93 188.74 637.61 189.23 636.13 190.55 635.82 192.23 635.72 193.93 634.8 195.35 632.43 196.4 629.55 196.83 628.2 196.81 628.2 196.81 626.6 196.79 623.98 196.42 620.99 195.42 613.52 190.64 611.37 189.82 609.26 189.83 607.23 190.58 599.02 197.58 596.79 199.06 595.63 199.5 591.93 200.01 587.94 201.19 586.6 201.3 583.87 200.53 581.43 198.94 577.14 195.01 573.85 192 570.22 189.47 566.19 187.86 561.71 187.67 558.79 188.75 553.81 192.5 551.02 193.74 549.54 193.88 546.58 193.67 539.79 194.3 538.78 194.55 539.48 193.68 540.72 190.87 537.5 192.07 535.88 192.28 534.18 191.86 535.15 191.01 535.57 190.27 535.42 189.5 534.64 188.6 533.58 188.12 532.96 188.65 532.61 189.48 532.33 189.94 527.84 190.96 525.35 191.15 523.48 190.41 522.24 189.65 517.8 187.59 515.27 186.85 510.02 184.4 507.42 188.41 506.85 189.02 500.41 189.34 498.96 189.94 490.52 187.17 490.5 187.13 488.62 183.95 486.82 182.58 485.48 181.96 484.89 181.38 484.7 180.81 485.06 179.51 485.29 179.11 485.67 178.68 489.18 176.18 489.88 175.82 491.98 174.44 493.57 172.49 494.05 172.03 494.45 171.85 496.04 171.38 496.84 171.27 498.01 171.23 499.67 171.02 500.55 170.53 500.78 170.21 500.66 169.8 500.24 169.45 498.34 168.24 497.74 167.57 497.91 167.11 498.37 166.72 499.11 166.3 499.36 165.83 499.29 165.31 498.16 163 504.07 159.54 505.75 158.83 507.55 158.59 509.77 159.07 511.2 159.71 512.87 160.05 514.79 159.92 521.58 157.73 526.59 157.69 538.37 163.62 540.63 165.26 545.61 169.55 548.1 170.99 551.66 172.61 555.41 173.76 557.68 174.03 561.77 173.74 563.78 173.77 566.61 174.33 567.83 174.72 568.48 175.05 568.67 175.34 568.96 175.9 569.04 176.17 569.09 176.39 569.13 176.78 569.09 177.23 568.9 178.02 568.92 178.28 569.06 178.56 570.87 180.72 571.18 181.27 571.16 181.42 569.76 183.22 569.44 183.86 569.82 184.17 572.1 184.68 574.39 184.94 576.26 184.83 577.07 184.67 577.72 184.49 578.2 184.28 578.48 184.07 578.69 183.81 578.89 183.4 579.08 182.94 579.21 182.5 579.33 181.26 579.36 180.8 579.75 180.54 580.55 180.43 583.82 180.63 584.83 180.55 587.78 179.72 589.15 179.02 590.62 177.86 591.16 177.13 591.46 176.64 591.71 176.29 591.9 176.1 592.23 175.85 592.54 175.73 593.74 175.6 593.99 175.47 594.14 175.26 594.14 174.98 594.01 174.75 593.49 174.24 593.26 173.95 593.07 173.61 593.05 173.28 593.24 172.93 593.59 172.53 594.14 172.08 594.79 171.67 595.56 171.32 596.55 171.11 597.79 171.02 619.82 173.33 Z" id="HRV-1602" data-name="Brodsko-Posavska"/>
<path d="M 746.32 142.75 745.2 142.64 743.41 145.99 744.3 148.49 745.55 149.42 744.21 150.06 742.11 151.2 737.52 151.87 736.28 151.83 735.59 151.58 735.44 151.28 735.23 150.98 735 150.7 734.33 150.13 733.91 149.87 732.38 149.21 731.96 148.95 731.65 148.65 731.44 148.31 731.21 147.68 731.06 147.38 730.58 146.93 729.78 146.36 727.98 145.41 726.77 145.07 725.12 144.98 724.29 145.11 723.55 145.31 723.01 145.59 722.25 146.2 721.42 146.57 720.18 146.92 716.38 147.36 715.61 147.54 715.29 147.82 715.25 148.16 715.34 148.49 715.65 148.84 716.7 149.73 716.95 150.01 717.16 150.32 717.3 151.29 717.3 152.1 717.14 152.89 716.3 153.51 715.11 154.13 705.27 153.79 702.69 154.94 699.51 155.98 698.15 156.56 697.29 157.1 697.1 157.52 696.99 158.02 696.66 161.22 696.45 161.87 696.14 162.3 695.21 162.8 694.87 163.07 694.62 163.41 694.49 163.87 694.45 164.4 694.49 165.04 694.47 165.74 694.22 166.58 693.82 166.93 693.28 167.07 688.46 166.97 687.72 167.2 687.16 167.69 686.78 168.21 686.17 168.77 680.35 169.36 678.88 169.84 677.95 170.48 677.7 171.15 677.6 171.66 677.24 175.54 677.24 176.1 677.35 176.28 677.66 176.53 678.29 176.78 679.02 176.97 683.53 177.41 684.35 177.61 685.02 178.03 685.36 178.59 685.52 179.39 685.42 181.06 685.21 181.91 684.92 182.68 684.25 183.61 683.62 184.07 682.86 184.27 682.32 184.24 681.33 183.86 674.54 181.42 657.85 177.27 652.92 176.72 649.29 177.01 647.66 177.32 646.68 177.82 646.05 178.52 644.98 179.19 643.2 179.66 639.02 179.88 635.94 179.56 626.92 177.19 625.75 176.68 625.33 176.37 625.21 176.24 625.1 176.16 619.82 173.33 623.4 169.16 623.59 167.82 623.26 167.39 622.9 166.81 622.52 165.72 622.21 165.06 621.85 164.54 621.48 164.21 620.3 163.72 619.19 163.38 619.02 162.96 619.04 162.65 619.34 162.37 619.68 162.09 620.05 161.86 620.49 161.64 620.95 161.47 621.5 161.33 622.44 161.21 623.15 160.92 623.87 160.36 625.6 158.09 626.21 157.47 630.81 154.27 632.33 153.47 633.91 153.08 637.35 153.05 640.09 152.61 640.89 152.41 648.48 148.14 649.92 147.61 650.93 147.6 654.33 148.47 655.71 148.58 655.96 148.54 661.83 146.66 663.99 146.27 666.97 146.18 668.4 146.01 668.77 145.81 668.77 145.51 667.81 144.63 667.37 144.09 667.08 143.51 667.14 142.7 666.99 142.24 666.59 141.85 663.95 140.61 662.59 139.59 662.06 139.35 661.52 139.28 661.06 139.31 660.79 139.39 660.47 139.6 660.26 139.93 660.07 140.5 659.99 141.99 659.89 142.43 659.59 142.82 658.94 143.12 658.06 143.24 652.46 143.01 651.69 143.13 650.54 143.43 649.95 143.43 649.41 143.26 648.9 142.92 647.37 141.46 646.99 141.16 646.68 140.98 646.3 140.88 640.55 140.97 639.88 140.87 639.25 140.63 638.67 140.2 637.49 138.82 636.97 138.41 636.41 138.17 635.84 138.09 635.44 137.98 635.04 137.71 634.81 135.27 634.86 134.77 634.98 134.47 635.21 134.33 637.08 133.85 637.93 133.47 638.92 132.56 639.04 131.94 638.6 131.24 638.14 130.61 636.84 129.25 635.82 128.85 633.26 128.31 632.42 127.98 630.85 126.84 630.16 126.47 629.28 126.21 620.03 124.85 619.72 123.25 619.52 123.05 619.17 122.79 612.55 120.3 611.03 119.53 610.13 118.84 609.94 117.83 609.71 117.02 609.25 116 608.12 114.4 607.2 113.56 606.34 112.99 605.54 112.73 601.77 112.17 601.18 111.84 600.55 111.06 599.95 109.85 598.42 107.86 597.14 105.62 596.15 103.08 596.12 102.99 605.46 102.99 619.66 105.74 621.23 105.74 622.69 105.35 625.02 104.17 626.21 103.9 637.33 103.9 639.84 104.46 643.99 106.64 647.06 106.66 649.39 108.43 651.71 109.05 654.04 108.41 656.23 107.54 658.4 107.57 660.65 109.6 660.69 109.61 661.58 109.79 662.5 109.85 663.42 109.79 664.42 109.6 666.99 108.19 671.68 104.12 673.88 103.08 676.91 104.08 680.43 103.16 686.27 99.67 687.89 98.29 690.85 94.26 692.85 92.68 693.04 92.64 693.41 91.81 693.81 90.19 694.31 89.5 697.37 87.39 699.9 87.01 706.59 88.62 711.92 90.58 713.57 90.73 714.98 90.18 715.58 89.24 716.18 88 717.53 86.57 719.28 87.67 719.91 87.66 720.7 87.64 723.01 86.53 725.72 85.97 727.23 85.38 728.57 84.3 730.56 84.2 731.33 86.29 729.01 87.35 727.95 88.06 726.72 89.06 729.5 90.59 730.93 91.7 731.33 92.74 730.35 93.63 728.65 93.89 724.35 94.17 723.96 97.86 723.68 98.65 723.19 99.22 722.95 99.8 723.46 100.63 725.52 102.12 726.49 103.28 730.41 106.66 731.04 108.71 731.6 112.81 732.73 114.55 734.58 115.58 736.89 116.51 738.86 117.72 739.64 119.66 738.89 120.82 735.17 124.43 733.69 125.2 732.06 126.35 731.5 128.89 731.33 131.42 730.87 132.58 732.02 133.24 734.71 136.3 736.02 137.2 738.52 137.17 740.27 136.21 741.62 135.06 743.98 134.19 745.14 133.61 746.34 133.35 747.57 134 748.41 135.07 748.83 135.77 749.43 136.37 750.78 137.2 753.06 137.94 755.01 138.24 756.75 138.93 758.25 140.88 754.33 143.58 746.32 142.75 Z" id="HRV-1603" data-name="Osjecko-Baranjska"/>
<path d="M 619.82 173.33 597.79 171.02 596.55 171.11 595.56 171.32 594.79 171.67 594.14 172.08 593.59 172.53 593.24 172.93 593.05 173.28 593.07 173.61 593.26 173.95 593.49 174.24 594.01 174.75 594.14 174.98 594.14 175.26 593.99 175.47 593.74 175.6 592.54 175.73 592.23 175.85 591.9 176.1 591.71 176.29 591.46 176.64 591.16 177.13 590.62 177.86 589.15 179.02 587.78 179.72 584.83 180.55 583.82 180.63 580.55 180.43 579.75 180.54 579.36 180.8 579.33 181.26 579.21 182.5 579.08 182.94 578.89 183.4 578.69 183.81 578.48 184.07 578.2 184.28 577.72 184.49 577.07 184.67 576.26 184.83 574.39 184.94 572.1 184.68 569.82 184.17 569.44 183.86 569.76 183.22 571.16 181.42 571.18 181.27 570.87 180.72 569.06 178.56 568.92 178.28 568.9 178.02 569.09 177.23 569.13 176.78 569.09 176.39 569.04 176.17 568.96 175.9 568.67 175.34 568.48 175.05 567.83 174.72 566.61 174.33 563.78 173.77 561.77 173.74 557.68 174.03 555.41 173.76 551.66 172.61 548.1 170.99 545.61 169.55 540.63 165.26 538.37 163.62 526.59 157.69 521.58 157.73 514.79 159.92 512.87 160.05 511.2 159.71 509.77 159.07 507.55 158.59 505.75 158.83 504.07 159.54 498.16 163 493.11 163.81 482.06 158.92 480.63 158.03 480.34 157.59 480.34 157.04 480.44 156.53 481.07 155.63 481.72 154.91 481.99 154.4 482.14 153.67 481.91 152.89 481.45 152.56 480.88 152.49 480.28 152.61 478.43 153.19 476.78 153.45 474.55 150.85 474.32 150.64 473.5 150.09 468.94 148.49 464.11 145.71 463.67 144.63 463.84 143.35 463.86 142.75 463.9 142.45 463.9 142.04 464.28 140.01 466.14 136.11 468.2 136.66 468.41 137.07 468.6 137.73 468.52 138.33 468.58 139.05 468.98 139.43 469.5 139.7 475.89 141.85 477.18 142.03 477.99 142.01 478.73 141.73 479.67 141.57 481.49 141.45 483.24 141.86 484.83 141.67 488.35 140.88 490.36 140.64 493.51 140.54 495.27 140.25 496.52 139.75 497.15 139.19 498.05 138.63 498.68 138.63 499.36 139.01 500.53 139.88 502.39 140.96 503.8 141.55 505.24 141.67 518.96 140.09 520.92 140.21 525.52 141.15 527.63 141.21 529.15 141.03 530.22 140.65 530.95 140.12 531.6 139.31 533.25 135.35 533.44 134.6 533.3 134.01 533 133.58 531.85 132.37 537.49 133.14 538.37 133.62 539.31 134.03 539.73 134.38 540.15 134.66 540.72 134.93 541.28 134.98 541.83 134.84 542.54 134.33 542.88 133.87 543.04 133.42 543.02 132.45 543.15 132.14 543.55 132.14 552.88 135.86 553.72 136.04 554.24 136.29 555.79 137.52 556.8 138.16 561.56 140.37 569.19 142.03 570.36 142.49 571.7 142.84 577.66 143.35 578.98 143.72 579.8 144.25 580.3 144.88 580.57 145.47 580.95 145.96 581.67 146.32 582.82 146.48 584.14 146.44 588.68 145.89 590.91 146.03 591.98 146.25 592.46 146.41 593.17 146.32 594.03 145.98 598.73 143.49 599.65 142.83 600.64 141.89 601.81 140.3 603.84 136.66 616.61 125.73 620.03 124.85 629.28 126.21 630.16 126.47 630.85 126.84 632.42 127.98 633.26 128.31 635.82 128.85 636.84 129.25 638.14 130.61 638.6 131.24 639.04 131.94 638.92 132.56 637.93 133.47 637.08 133.85 635.21 134.33 634.98 134.47 634.86 134.77 634.81 135.27 635.04 137.71 635.44 137.98 635.84 138.09 636.41 138.17 636.97 138.41 637.49 138.82 638.67 140.2 639.25 140.63 639.88 140.87 640.55 140.97 646.3 140.88 646.68 140.98 646.99 141.16 647.37 141.46 648.9 142.92 649.41 143.26 649.95 143.43 650.54 143.43 651.69 143.13 652.46 143.01 658.06 143.24 658.94 143.12 659.59 142.82 659.89 142.43 659.99 141.99 660.07 140.5 660.26 139.93 660.47 139.6 660.79 139.39 661.06 139.31 661.52 139.28 662.06 139.35 662.59 139.59 663.95 140.61 666.59 141.85 666.99 142.24 667.14 142.7 667.08 143.51 667.37 144.09 667.81 144.63 668.77 145.51 668.77 145.81 668.4 146.01 666.97 146.18 663.99 146.27 661.83 146.66 655.96 148.54 655.71 148.58 654.33 148.47 650.93 147.6 649.92 147.61 648.48 148.14 640.89 152.41 640.09 152.61 637.35 153.05 633.91 153.08 632.33 153.47 630.81 154.27 626.21 157.47 625.6 158.09 623.87 160.36 623.15 160.92 622.44 161.21 621.5 161.33 620.95 161.47 620.49 161.64 620.05 161.86 619.68 162.09 619.34 162.37 619.04 162.65 619.02 162.96 619.19 163.38 620.3 163.72 621.48 164.21 621.85 164.54 622.21 165.06 622.52 165.72 622.9 166.81 623.26 167.39 623.59 167.82 623.4 169.16 619.82 173.33 Z" id="HRV-1604" data-name="Brodsko-Posavska"/>
<path d="M 745.55 149.42 748.17 151.37 748.95 152.95 747.77 154.32 740.65 156.65 742.38 158.77 744.39 160.54 746.73 161.74 749.41 162.18 754.99 162.18 756.33 162.72 756.79 164.01 756.9 165.54 757.25 166.79 760.75 169.73 765.79 171.5 792.95 176.47 794.98 178.99 797.58 179.84 799 182.57 798.66 185.73 797.12 186.82 796.68 187.13 785.01 187.51 784.35 187.18 783.26 186 782.63 185.76 781.66 186.06 781.15 186.66 780.75 187.26 780.08 187.61 774.42 188.13 771.53 188 768.94 187.31 767.48 186.26 764.94 183.67 763.34 183.05 760.36 183.56 761.3 185.55 763.04 188.1 762.5 190.28 759.58 190.71 752.01 190.17 749.96 191.47 750.14 192.67 751.22 193.72 752.56 194.66 753.56 195.54 754.59 197.23 755.01 198.53 755.52 201.78 756.63 205.77 756.79 207.18 756.49 208.45 755.85 210.08 755.4 211.73 755.68 213.1 757.15 214.06 759.92 213.31 761.14 214.28 761.69 216.34 760.73 217.31 759.18 217.79 757.89 218.35 755.77 220.91 754.53 222.05 752.91 222.75 750.94 222.58 748.21 220.46 746.38 220.05 742.74 221.5 743.13 224.22 746.04 228.16 744.57 228.48 740.51 228.55 728.99 228.76 724.81 227.77 722.57 226.73 722.57 226.73 719.28 225.2 714.63 221.66 713.18 217.78 714.16 216.46 717.09 214.88 717.49 213.54 717.28 213.08 716.6 212.41 716.31 212.03 716.22 211.63 716.22 210.91 716.15 210.63 715.76 209.8 715.38 209.24 714.84 208.87 713.9 208.61 710.13 208.36 708.54 207.86 706.92 206.48 701.88 199.17 701.21 198.55 700.42 198.2 699.49 198.27 698.78 198.8 698.4 199.59 698.13 200.4 697.71 201.05 696.44 201.54 695.33 201.18 694.4 200.29 693.63 199.2 692.71 197.43 692.11 196.82 691.09 196.49 690.19 196.6 688.31 197.42 687.4 197.67 686.31 197.64 684.13 197.26 683.04 197.21 681.06 197.79 681.05 198.06 681 198.04 680.94 198.02 677.91 194.64 676.89 192.59 676.66 191.19 676.68 190.08 676.8 189 677.05 188.16 677.43 187.38 678.02 186.62 681.33 183.86 682.32 184.24 682.86 184.27 683.62 184.07 684.25 183.61 684.92 182.68 685.21 181.91 685.42 181.06 685.52 179.39 685.36 178.59 685.02 178.03 684.35 177.61 683.53 177.41 679.02 176.97 678.29 176.78 677.66 176.53 677.35 176.28 677.24 176.1 677.24 175.54 677.6 171.66 677.7 171.15 677.95 170.48 678.88 169.84 680.35 169.36 686.17 168.77 686.78 168.21 687.16 167.69 687.72 167.2 688.46 166.97 693.28 167.07 693.82 166.93 694.22 166.58 694.47 165.74 694.49 165.04 694.45 164.4 694.49 163.87 694.62 163.41 694.87 163.07 695.21 162.8 696.14 162.3 696.45 161.87 696.66 161.22 696.99 158.02 697.1 157.52 697.29 157.1 698.15 156.56 699.51 155.98 702.69 154.94 705.27 153.79 715.11 154.13 716.3 153.51 717.14 152.89 717.3 152.1 717.3 151.29 717.16 150.32 716.95 150.01 716.7 149.73 715.65 148.84 715.34 148.49 715.25 148.16 715.29 147.82 715.61 147.54 716.38 147.36 720.18 146.92 721.42 146.57 722.25 146.2 723.01 145.59 723.55 145.31 724.29 145.11 725.12 144.98 726.77 145.07 727.98 145.41 729.78 146.36 730.58 146.93 731.06 147.38 731.21 147.68 731.44 148.31 731.65 148.65 731.96 148.95 732.38 149.21 733.91 149.87 734.33 150.13 735 150.7 735.23 150.98 735.44 151.28 735.59 151.58 736.28 151.83 737.52 151.87 742.11 151.2 744.21 150.06 745.55 149.42 Z" id="HRV-1605" data-name="Vukovarsko-Srijemska"/>
<path d="M 562.13 94.88 562.38 95.79 563.49 96.3 566.54 96.44 583.01 99.98 586.93 101.97 589.6 105.18 589.61 105.74 591.23 105.51 592 104.54 592.64 103.47 593.9 102.99 596.12 102.99 596.15 103.08 597.14 105.62 598.42 107.86 599.95 109.85 600.55 111.06 601.18 111.84 601.77 112.17 605.54 112.73 606.34 112.99 607.2 113.56 608.12 114.4 609.25 116 609.71 117.02 609.94 117.83 610.13 118.84 611.03 119.53 612.55 120.3 619.17 122.79 619.52 123.05 619.72 123.25 620.03 124.85 616.61 125.73 603.84 136.66 601.81 140.3 600.64 141.89 599.65 142.83 598.73 143.49 594.03 145.98 593.17 146.32 592.46 146.41 591.98 146.25 590.91 146.03 588.68 145.89 584.14 146.44 582.82 146.48 581.67 146.32 580.95 145.96 580.57 145.47 580.3 144.88 579.8 144.25 578.98 143.72 577.66 143.35 571.7 142.84 570.36 142.49 569.19 142.03 561.56 140.37 556.8 138.16 555.79 137.52 554.24 136.29 553.72 136.04 552.88 135.86 543.55 132.14 543.15 132.14 543.02 132.45 543.04 133.42 542.88 133.87 542.54 134.33 541.83 134.84 541.28 134.98 540.72 134.93 540.15 134.66 539.73 134.38 539.31 134.03 538.37 133.62 537.49 133.14 531.85 132.37 531.03 129.98 540.15 118.79 540.28 117.01 539.86 116.38 534.34 113.6 533.3 113.2 532.08 112.92 531.29 112.87 530.78 112.98 529.9 113.59 529.19 113.9 528.03 114.73 527.36 115.05 525.73 115.09 523.17 113.58 522.63 113.05 522.27 112.54 522.46 112.07 523.17 111.08 523.28 110.44 523.11 109.7 522.63 108.64 522.04 108.19 521.41 108.03 517.41 108.61 517.15 108.61 516.99 108.36 516.25 107.83 514.98 106.71 512.92 105.84 511.91 105 511.34 104.28 511.28 103.83 511.41 102.79 511.41 102.2 511.14 101.48 492.65 92.43 491.75 89.96 491.56 89.27 491.66 88.82 492.29 87.89 492.25 87.57 491.66 86.85 491.94 86.27 492.81 85.49 494.99 83.87 498.96 79.58 499.69 79.01 500.4 78.59 502.98 77.47 504.36 77.2 505.66 77.17 512.73 77.91 514.05 77.84 514.98 77.7 515.11 77.62 516.46 78.44 517.88 78.68 519.33 76.98 520.11 79.29 519.9 80.49 520.34 80.89 523.03 80.75 526.26 79.89 527.68 80.31 528.56 82.51 529.29 82.12 529.8 81.7 530.18 81.25 531.33 80.75 542.85 81.12 548.57 81.96 553.54 83.52 559.94 88.23 560.93 89.52 561.08 90.61 561.78 92.62 561.94 94.17 562.13 94.88 Z" id="HRV-1606" data-name="Viroviticko-Podravska"/>
<path d="M 492.65 92.43 511.14 101.48 511.41 102.2 511.41 102.79 511.28 103.83 511.34 104.28 511.91 105 512.92 105.84 514.98 106.71 516.25 107.83 516.99 108.36 517.15 108.61 517.41 108.61 521.41 108.03 522.04 108.19 522.63 108.64 523.11 109.7 523.28 110.44 523.17 111.08 522.46 112.07 522.27 112.54 522.63 113.05 523.17 113.58 525.73 115.09 527.36 115.05 528.03 114.73 529.19 113.9 529.9 113.59 530.78 112.98 531.29 112.87 532.08 112.92 533.3 113.2 534.34 113.6 539.86 116.38 540.28 117.01 540.15 118.79 531.03 129.98 531.85 132.37 533 133.58 533.3 134.01 533.44 134.6 533.25 135.35 531.6 139.31 530.95 140.12 530.22 140.65 529.15 141.03 527.63 141.21 525.52 141.15 520.92 140.21 518.96 140.09 505.24 141.67 503.8 141.55 502.39 140.96 500.53 139.88 499.36 139.01 498.68 138.63 498.05 138.63 497.15 139.19 496.52 139.75 495.27 140.25 493.51 140.54 490.36 140.64 488.35 140.88 484.83 141.67 483.24 141.86 481.49 141.45 479.67 141.57 478.73 141.73 477.99 142.01 477.18 142.03 475.89 141.85 469.5 139.7 468.98 139.43 468.58 139.05 468.52 138.33 468.6 137.73 468.41 137.07 468.2 136.66 466.14 136.11 464.28 140.01 463.9 142.04 463.9 142.45 463.86 142.75 463.84 143.35 463.67 144.63 464.11 145.71 461.83 146.71 461.12 146.82 460.67 146.59 459.99 145.63 459.46 145.11 458.49 144.81 455.79 144.92 454.62 144.81 453.59 144.53 452.5 143.93 451.53 143.2 450.71 141.94 450.61 141.4 450.84 141.05 451.22 140.99 451.61 140.97 452.05 141.02 452.46 141.12 452.92 141.14 453.55 141.1 455.94 139.37 455.75 138.87 455.08 138.08 453.1 136.24 451.78 134.71 451.47 134.47 450.99 134.27 449.81 133.94 449 133.45 447.93 132.16 447.34 131.28 445.41 127.72 444.86 127.16 444.03 126.74 440.78 126.44 439.5 126.15 438.56 125.7 437.08 124.34 436.37 123.9 427.21 120.87 424.43 120.43 421.91 120.45 421.22 120.15 419.96 119.32 417.91 117.46 414.87 115.8 413.14 115.3 411.64 115.05 410.48 114.59 408.95 113.75 407.8 113.45 406.81 113.35 406.35 113.07 406.22 112.47 406.69 110.79 407.15 109.81 407.68 108.99 407.68 108.14 405.68 106.64 407.84 105.65 409.31 103.87 410.42 103.49 414.28 103.45 418.72 104.65 419.54 104.4 419.87 103.71 419.46 101.67 419.37 100.54 419.71 99.58 422.62 96.27 423.51 95.88 424.26 95.92 424.66 96.41 424.59 97.06 424.3 97.73 424.22 98.36 424.7 98.88 425.7 99.2 427.46 99.2 428.62 98.91 429.64 98.39 431.58 96.63 432.29 94.67 432.56 92.95 432.6 92.11 432.04 87.86 432.02 86.54 432.14 85.14 432.27 79.5 432.77 77.46 434.61 74.71 435.74 72.37 437.34 70.39 438.7 68.72 440.99 67.75 443.44 67.01 444.51 66.97 445.32 67.36 445.79 68.06 446.78 68.68 447.36 68.63 447.82 68.35 448.2 68.05 449.48 67.3 450.02 66.85 450.29 66.49 450.8 65.07 451.34 64.31 451.97 63.96 452.72 63.87 453.65 63.96 454.62 64.15 455.56 64.44 456.04 64.77 456.4 65.23 456.71 66.12 456.84 66.69 457.03 67.04 457.44 67.64 458.09 68.2 458.95 68.69 461.2 69.57 461.91 69.96 462.31 70.47 462.25 71.08 460.8 73.72 461.62 74.81 463.55 75.78 469.06 77.76 471.49 78.93 472.92 80.17 472.92 81.3 472.64 82.63 472.6 83.73 473.17 84.75 473.78 85.02 474.55 84.97 476.78 83.81 477.68 83.6 478.7 83.55 480.51 83.72 481.59 84.24 482.69 85.12 484.51 87.11 485.31 87.8 486.06 88.3 487.95 89.29 492.65 92.43 Z" id="HRV-1607" data-name="Bjelovarsko-bilogorska"/>
<path d="M 457.37 32.74 458.71 35.43 459.64 36.22 460.61 36.81 465.67 40.92 468.99 45.25 470.28 46.45 477.47 50.52 478.59 51.53 479.26 52.99 480.83 54.17 487.35 57.58 489.38 58.27 500.34 58.53 501.86 59.15 507.27 64.06 508.01 65.33 509.7 69.66 510.02 71.02 510.95 73.28 513.06 73.83 515.27 74.04 516.48 75.22 515.48 75.36 513.8 75.9 512.88 76.06 512.88 76.98 514.86 77.47 515.11 77.62 514.98 77.7 514.05 77.84 512.73 77.91 505.66 77.17 504.36 77.2 502.98 77.47 500.4 78.59 499.69 79.01 498.96 79.58 494.99 83.87 492.81 85.49 491.94 86.27 491.66 86.85 492.25 87.57 492.29 87.89 491.66 88.82 491.56 89.27 491.75 89.96 492.65 92.43 487.95 89.29 486.06 88.3 485.31 87.8 484.51 87.11 482.69 85.12 481.59 84.24 480.51 83.72 478.7 83.55 477.68 83.6 476.78 83.81 474.55 84.97 473.78 85.02 473.17 84.75 472.6 83.73 472.64 82.63 472.92 81.3 472.92 80.17 471.49 78.93 469.06 77.76 463.55 75.78 461.62 74.81 460.8 73.72 462.25 71.08 462.31 70.47 461.91 69.96 461.2 69.57 458.95 68.69 458.09 68.2 457.44 67.64 457.03 67.04 456.84 66.69 456.71 66.12 456.4 65.23 456.04 64.77 455.56 64.44 454.62 64.15 453.65 63.96 452.72 63.87 451.97 63.96 451.34 64.31 450.8 65.07 450.29 66.49 450.02 66.85 449.48 67.3 448.2 68.05 447.82 68.35 447.36 68.63 446.78 68.68 445.79 68.06 445.32 67.36 444.51 66.97 443.44 67.01 440.99 67.75 438.7 68.72 437.34 70.39 435.74 72.37 434.61 74.71 432.77 77.46 432.27 79.5 432.14 85.14 430.19 84.48 426.19 85.66 425.16 85.76 424.3 85.57 423.74 85.2 422.65 84.75 421.82 84.74 420.67 84.98 420.15 84.94 419.79 84.77 419.58 84.35 419.06 83.84 418.22 83.28 413.04 81.17 412.24 80.7 408.81 78.21 408.03 77.92 407.51 77.93 407.15 78.15 406.77 78.48 406.5 78.82 406.08 79.46 405.58 79.75 404.61 80.21 402.79 80.56 401.99 80.46 401.66 80.2 401.91 79.39 402.22 78.7 402.33 78.39 402.29 78.09 402.08 77.79 401.78 77.5 400.7 76.59 398.51 74.35 397.04 73.81 387.11 71.57 386.23 69.18 386.58 64.27 386.25 62.71 385.24 60.03 385.37 59.01 385.81 58.35 387.86 57.91 388.37 57.88 390.29 58.04 390.92 57.95 391.61 57.74 396.33 55.31 396.83 55.18 397.13 55.28 397.34 55.48 397.65 56.09 397.9 56.39 398.28 56.56 398.91 56.61 402.45 56.08 404.11 55.6 404.88 55.09 405.35 54.47 405.72 53.5 406.14 53.04 419.1 47.46 424.01 46.26 426.25 46.11 426.92 46.27 427.36 46.65 427.8 47.56 428.28 47.77 429.96 47.38 432.54 46.5 437.5 44.2 439.75 42.76 440.97 41.52 441.72 39.89 442.68 38.57 443.04 37.81 443.19 37.09 443.08 36.53 442.91 36.08 442.66 35.78 442.35 35.59 441.07 35.01 439.25 33.6 443.82 34.05 445.49 34.67 446 35.14 446.73 35.95 447.82 36.94 448.26 36.82 448.68 36.48 452.72 30.1 452.88 29.74 453.06 29.09 454.18 26.55 454.69 25.62 455.5 26.38 456.8 28.58 456.36 30.69 457.37 32.74 Z" id="HRV-1608" data-name="Koprivničko-Križevačka"/>
<path d="M 408.19 7.12 408.98 7.55 414.81 10.06 416.61 11.31 417.44 11.31 418.02 10.11 418.86 9.65 419.92 9.77 421.14 10.31 424.73 10.8 427.65 12.19 430.1 14.28 432.28 16.86 434.82 19.15 438.94 20.91 440.59 23.31 441.51 23.31 442.52 21.38 443.48 21.82 447.12 22.39 447.73 22.57 448.33 22.88 448.9 23.29 449.48 23.82 450.38 24.37 450.74 23.92 451.03 23.3 451.75 23.31 453.48 24.5 454.69 25.62 454.18 26.55 453.06 29.09 452.88 29.74 452.72 30.1 448.68 36.48 448.26 36.82 447.82 36.94 446.73 35.95 446 35.14 445.49 34.67 443.82 34.05 439.25 33.6 435.91 32.83 420.4 32.22 418.97 31.94 417.7 32.1 408.31 34.17 403.94 34.13 387.38 31.67 387.05 31.58 386.65 31.29 386.08 30.81 385.43 29.75 385.16 29.1 385.01 28.49 384.94 28.03 384.89 27.76 384.64 27.35 383.18 26.02 382.47 25.51 381.57 25.09 378.85 24.89 376.62 23.82 376.39 23.74 376.23 22.57 375.6 21.92 373.3 20.87 372.47 20.18 372.11 19.06 372.36 16.88 372.26 15.79 370.66 12.07 370.14 10.22 370.21 9.39 370.31 8.25 373.83 5.51 374.23 5.2 378.48 4.04 379.31 3.69 380.55 3.16 383.16 2.56 384.55 1.43 385.07 1 386.03 1.95 386.09 2.01 386.93 1 388.49 1.87 390.21 2.03 391.93 1.93 393.46 2.01 394.66 2.54 396.94 4.21 398.07 4.78 399.24 4.87 402.18 4.61 403.6 4.78 404.93 5.3 408.19 7.12 Z" id="HRV-1609" data-name="Medimurska"/>
<path d="M 376.39 23.74 376.62 23.82 378.85 24.89 381.57 25.09 382.47 25.51 383.18 26.02 384.64 27.35 384.89 27.76 384.94 28.03 385.01 28.49 385.16 29.1 385.43 29.75 386.08 30.81 386.65 31.29 387.05 31.58 387.38 31.67 403.94 34.13 408.31 34.17 417.7 32.1 418.97 31.94 420.4 32.22 435.91 32.83 439.25 33.6 441.07 35.01 442.35 35.59 442.66 35.78 442.91 36.08 443.08 36.53 443.19 37.09 443.04 37.81 442.68 38.57 441.72 39.89 440.97 41.52 439.75 42.76 437.5 44.2 432.54 46.5 429.96 47.38 428.28 47.77 427.8 47.56 427.36 46.65 426.92 46.27 426.25 46.11 424.01 46.26 419.1 47.46 406.14 53.04 405.72 53.5 405.35 54.47 404.88 55.09 404.11 55.6 402.45 56.08 398.91 56.61 398.28 56.56 397.9 56.39 397.65 56.09 397.34 55.48 397.13 55.28 396.83 55.18 396.33 55.31 391.61 57.74 390.92 57.95 390.29 58.04 388.37 57.88 387.86 57.91 385.81 58.35 385.37 59.01 385.24 60.03 386.25 62.71 386.58 64.27 386.23 69.18 387.11 71.57 382.95 72.19 380.71 73.06 379.16 73.2 378.26 73.17 377.89 72.98 377.11 72.41 376.62 71.9 376.22 71.34 375.64 69.63 375.24 69.08 373.14 66.65 372.16 59.69 372.39 58.6 372.47 57.41 373.04 55.58 373.04 54.88 372.96 54.38 372.85 54.21 371.93 53.01 371.32 52.01 371.32 51.24 371.99 49.55 371.76 49.1 371.26 48.89 369.56 48.99 368.57 48.83 367.78 48.44 367.06 47.44 366.54 46.83 365.68 46.22 364.91 46.2 363.96 46.56 363.29 47.14 362.18 48.4 361.51 48.97 360.71 49.34 359.93 49.56 357.46 49.52 355.52 48.95 354.29 48.85 353.29 48.87 351.36 49.2 349.27 49.31 347.3 49.22 346.33 49.31 345.49 49.48 343.92 49.96 342.72 50.01 341.22 49.85 337.42 48.89 336.31 48.76 334.44 48.83 333.17 48.74 332.54 48.47 332.16 48.02 331.99 47.33 331.66 46.39 331.02 45.85 330.18 45.44 324.38 44.09 323.37 43.46 322.87 42.7 322.85 41.64 322.62 40.45 322.27 39.87 322.48 39.86 322.86 39.85 327.62 38.04 331.64 36.5 336.14 35.94 337.72 35.64 338.36 35.51 341.17 34.53 343.83 33.23 345.32 32.11 345.65 31.86 346.63 30 346.64 28.25 346.33 26.31 346.4 23.89 350.55 24.49 351.32 24.61 352.9 24.41 354.18 23.66 355.21 22.63 356.35 21.8 358.01 21.57 359.32 22.02 362.56 24.16 364.49 24.94 366.76 25.3 367.91 25.27 372.73 24.45 375.81 24.48 376.44 24.07 376.39 23.74 Z" id="HRV-1610" data-name="Varaždinska"/>
</g>
</svg>