<?xml version="1.0"?>
<svg xmlns="http://www.w3.org/2000/svg" version="1.2" baseProfile="tiny" width="800" height="458" viewBox="0 0 800 458" stroke-linecap="round" stroke-linejoin="round">
<g id="ne_10m_admin_1_states_provinces">
<path d="M 194.24 207.02 193.33 213.76 191.28 216.95 188.69 219.87 186.66 223.51 184.37 233.61 182.84 237.78 179.71 241.44 177.05 239.6 174 239.99 171.09 241.1 168.74 241.44 165.45 239.41 158.97 229.82 155.94 228.34 152.77 228.34 150.23 227.74 149.19 224.48 149.08 217.26 148.57 213.86 147.43 211.23 151.97 209.67 157 209.84 166.23 211.23 169.69 210.71 173.56 209.37 181.32 205.58 180.33 204.54 180.36 204.36 180.87 203.95 184.61 203.84 188.03 203.68 191.82 203.98 193.73 206.24 194.24 207.02 Z M 286.62 181.24 288.26 186.61 275.95 208.66 274.37 217.4 274.17 221.86 274.56 228.53 273.84 228.82 257.01 231.86 254.47 233.35 251.99 235.58 239.58 241.95 234.61 243.2 239.93 222.08 244.72 213.32 251.04 212.94 252.5 213.89 254.48 214.52 256.88 214.78 259.63 214.64 259.63 212.86 254.73 212.57 248.66 207.48 243.67 207.54 239.5 210.6 238.4 215.06 237.89 219.99 229.46 236.18 226.78 237.72 221.69 236.43 220.63 233.12 222.34 223.51 217.99 225.54 216.95 229.78 216.82 234.92 215.07 239.66 213.48 240.5 207.72 242.54 205.31 244.11 202.68 246.34 201.16 246.72 200.12 245.55 199.08 243.2 198.41 238.02 199.91 232.81 204.43 223.51 208.18 209.06 209.75 205.58 210.81 204.55 212.44 203.44 214.3 202.57 216.05 202.2 217.07 201.26 218.78 194.93 225.51 184.96 227.66 182.65 231.35 180.48 236.85 178.29 242.65 176.86 247.2 177 248.6 178.53 249.58 180.98 250.95 183.27 253.49 184.28 258.65 184.58 260.92 185.17 263.18 186.21 264.01 182.53 265.9 178.77 266.89 175.58 266.71 175.41 266.75 175.38 267.01 175.12 277.43 169.56 285.79 179.72 286.62 181.24 Z" fill-rule="evenodd" id="GNB-5500" data-name="Biombo"/>
<path d="M 308.7 204.25 307.76 204.63 306.14 205.58 298.45 216.43 296.29 218.18 291.09 219.62 279.53 226.46 274.56 228.53 274.56 228.53 274.17 221.86 274.37 217.4 275.95 208.66 288.26 186.61 291.31 192.1 292.31 193.04 293.74 194.14 296.94 195.14 299.03 196.1 302.47 200.19 303.9 201.45 308.7 204.25 308.7 204.25 Z" id="GNB-769" data-name="Bissau"/>
<path d="M 216.08 400.86 217.84 412.15 219.67 414.63 221.5 416.49 222.34 418.71 221 422.1 217.89 423.73 214.35 423.98 211.7 423.24 209.64 424.49 206.91 424.35 200.05 423.24 199.44 423.84 197.82 424.92 196.16 425.36 195.38 424.11 195.32 422.02 195.42 420.64 196.24 419.91 198.21 419.69 200.9 418.99 208.21 415.62 209.75 414.35 208.57 411.43 205.64 410.46 203 411.87 202.64 416.13 200.75 414.38 199.08 412.41 201.39 408.55 202.59 405.49 202.87 402.38 202.64 398.38 201.24 392.53 201.63 389.16 204.43 385.77 209.48 389.52 213.46 394.6 216.08 400.86 Z M 197.31 396.44 197.86 404.08 197.13 407.64 194.58 411.53 189.06 418.14 186.04 420 184.73 416.93 183.84 412.83 182.33 409.62 182.04 406.27 184.73 401.76 178.78 401.78 175.88 399.22 175.66 395.32 177.77 391.27 181.5 388.31 195.38 384 196.44 386.15 197.01 389.65 197.31 396.44 Z M 173.36 392.89 172.43 395.53 172.88 399.4 174.02 401.81 177.77 407.09 174.06 407.09 174.06 409.04 176.61 414.06 175.59 418.8 174.29 422.67 176.01 425 170.67 428.47 166.07 428.67 161.47 428.36 156.15 430.33 155.27 428.07 154.96 425.94 155.24 423.77 156.15 421.31 154.51 421.31 151.14 426.8 152.77 430.33 149.5 429.36 148.64 428.64 147.43 426.8 141.46 427.56 135.05 423.41 129.43 416.89 125.97 410.64 129.36 407.21 133.62 404.16 138.03 402.58 141.93 403.53 138.37 405.02 136.76 405.31 136.99 406.46 137.27 407.27 137.74 408.03 138.54 409.04 140.86 406.76 143.81 405.44 146.33 403.46 148.38 394.63 150.57 393.08 152.96 392.15 154.51 389.33 155.85 390.68 159.86 392.89 160.55 386.5 164.48 383.71 169.68 384.22 174.06 387.71 175.76 389.69 174.99 391.17 173.36 392.89 Z M 230.41 385.58 223.96 385.77 217.52 381.11 217.42 373.17 221.5 364.88 227.66 359.13 234.4 359.06 235.79 361.74 233.01 371.4 232.74 382.2 230.41 385.58 Z M 278.53 363.83 279.84 372.39 279.34 377.05 278.03 378.07 276.45 375.14 274.03 371.76 270.3 371.4 270.3 373.35 272.24 373.35 272.24 375.13 270.28 378.63 268.88 380.42 266.91 382.07 265.46 380.02 264.75 379.36 261.55 380.44 262.97 383.2 263.24 386.98 262.67 391.04 261.55 394.66 261.03 393.55 260.19 392.31 259.63 391.27 258.06 391.4 257.46 391.58 257.02 391.58 256.07 391.27 254.47 391.27 251.92 394.19 249.46 392.84 247.71 389.33 247.2 385.77 249.01 384.09 252 382.07 253.04 380.15 248.98 378.68 248.98 377.05 254.47 371.4 254.72 370.28 254.22 367.19 254.47 366.09 255.71 365.79 257.46 366.11 258.98 366.19 259.63 365.28 262.4 360.08 268.65 358.32 275.3 358.53 279.34 359.13 278.53 363.83 Z M 136.76 357.19 139.11 360.24 142.05 360.54 145.44 360.05 149.19 360.75 150.32 362.64 151.07 366.02 151.37 369.43 151.14 371.4 148.07 372.66 145.53 374.25 144.36 376.69 145.49 380.44 128.44 381.87 125.08 381.24 118.11 377.94 116.92 377.87 117.22 374.75 118.2 372.2 119.95 370.45 122.56 369.8 122.2 365.39 125.8 361.28 130.83 358.76 134.82 359.13 136.76 357.19 Z M 277.56 309.25 278.1 309.84 278.57 310.55 279.44 311 281.11 310.87 280.92 312.08 280.64 312.87 279.34 314.58 280.84 316.63 279.56 318.73 273.84 323.3 272.57 320.87 272.24 319.89 270.3 319.89 267.31 322.71 263.1 322.71 259.4 320.85 258.02 318.12 259.3 315.76 261.43 315.5 263.61 316.08 264.96 316.19 266.91 314.24 268.39 312.13 269.49 309.82 270.3 307.31 272.24 309.25 273.59 308.14 277.56 305.53 278.86 306.58 278.91 307.32 277.56 309.25 Z M 137.02 320.74 136.22 322.2 134.82 323.3 132.61 323.39 124.19 321.52 118.73 321.59 115.61 321.14 111.9 319.89 115.04 317.8 119.77 315.38 124.06 312.29 125.97 308.27 128.92 305.72 135.6 303.81 142.86 302.99 147.43 303.75 148.7 306.36 147.78 308.82 140.06 316.9 138.54 318.12 137.65 319.26 137.02 320.74 Z M 127.38 287.56 127.72 289.54 126.88 294.24 124.89 298.09 120.61 303.75 119.58 306.03 119.33 307.56 118.81 308.97 117.2 309.59 114.53 309.6 111.9 310.87 110.7 311.28 109.86 312.32 108.85 312.87 107.29 311.83 103.91 308.02 102.87 307.31 102.28 307.47 88.65 307.31 86.3 309.37 84.22 310.6 81.38 310.87 82.19 309.09 83.32 307.31 81.67 304.06 82.02 303.32 83.32 301.97 80.73 300.52 79.6 300.2 89.26 295.4 99.99 295.18 109.86 293.9 116.92 286 118.13 286.36 118.37 286.51 118.34 286.83 118.85 287.78 120.79 287.8 122.73 287.53 124.47 286.93 125.97 286 126.92 286.76 127.38 287.56 Z M 208.46 287.34 210.66 287.51 211.7 284.07 214.92 287.4 214.08 294.35 217.01 296.65 213.8 301.9 213 308.23 214.21 314.6 217.01 319.89 211.87 321.69 205.13 325.46 199.41 326.87 197.31 321.52 195.38 321.52 195.03 322.74 194.27 324.02 193.76 325.23 192.93 324.27 191.04 322.5 190.2 321.52 188.68 324.36 186.36 326.46 183.76 327.85 181.32 328.62 178.84 325.22 169.88 318.99 168.74 316.19 177.77 310.87 183.65 304.61 184.73 304.64 185.51 300.32 187.53 294.72 190.14 289.84 192.8 287.78 197.01 286.1 202.91 280.03 206.2 280.51 206.51 284.64 208.46 287.34 Z M 327.44 273.4 327.33 276.95 324.47 279.95 323.73 283.18 325.22 286.07 327.67 288.7 327.92 290.6 322.93 291.32 319.66 290.85 317.41 289.21 315.01 289.54 314.62 290.26 309.53 294.87 308.23 295.18 302.42 294.87 302.42 296.65 307.96 298.66 306.96 302.73 303.3 305.08 300.82 301.97 297.88 302.77 294.36 302.41 291.4 301.59 290.13 301.09 288.88 301.96 286.66 300.26 285.96 297.86 289.18 296.65 292.61 294.77 294.99 290.85 298.26 287.63 304.36 287.78 304.87 283.82 307.47 280.95 310.69 278.4 313.08 275.33 317.47 276.48 321.4 275.31 324.74 273.7 327.44 273.4 Z M 357.81 264.52 358.83 271.36 360.08 274.3 363.14 276.95 361.36 280.51 357.45 277.77 353.96 274.06 348.75 266.29 347.95 270.89 349.77 275.21 352.4 279.5 354.09 284.07 352.86 283.5 348.75 282.29 347.59 285.79 345.38 285.83 343.54 283.19 343.44 278.73 341.66 278.73 340.56 281.11 339.83 283.76 339.52 286.61 339.71 289.54 337.41 288.42 336.49 287.78 336.49 292.95 333.78 291.21 332.77 288.89 332.05 286.13 330.11 283.18 328.65 280.29 329.76 278.25 332.77 276.14 334.05 272.2 336.72 268.18 339.16 263.46 339.4 260.89 339.45 260.84 340.2 260.17 349.03 258.07 352.66 257.68 354.05 257.78 358.85 258.67 361.72 259.79 361.81 260.25 359.58 260.96 361.36 264.52 357.81 264.52 Z" fill-rule="evenodd" id="GNB-770" data-name="Bolama"/>
<path d="M 277.43 169.56 267.01 175.12 266.75 175.38 266.71 175.41 264.96 173.63 263.46 174.61 261 177 257.39 179.06 252.54 178.96 250.99 177.91 249.21 174.9 247.2 173.63 244.92 172.96 243.84 173.04 242.71 173.4 232.87 174.13 229.51 173.19 227.66 170.07 225.89 170.07 224.04 174.36 219.22 177.07 213.25 178.51 207.98 178.96 208.62 180.81 209.01 181.6 209.75 182.65 208.86 182.9 208.25 182.87 207.92 183.14 207.98 184.28 205.89 183.16 204.43 182 204.49 183.2 205.35 186.72 204.86 189.95 202.64 193.31 198.84 196.73 195.27 198.21 176.01 198.49 173.49 199.34 168.3 201.7 166.23 202.2 164.85 203.06 163.2 204.97 161.02 206.81 158.08 207.54 155.56 206.65 153.27 204.76 149.19 200.27 142.84 201.7 134.51 200.16 127.27 197.13 124.19 194.13 118.85 182.65 116.35 181.24 109.39 180.18 106.41 178.96 104.18 176.54 102.56 173.32 101.58 169.61 100.67 161.65 98.11 155.02 97.55 151.43 104.63 136.34 107.36 133.08 110.36 130.6 113.56 128.73 116.92 127.28 117.05 130.37 118.31 132.66 120.28 133.17 122.56 130.83 122.81 128.67 120.5 124.82 120.61 121.96 123.53 117.87 127.97 115.19 132.79 113.18 151.88 102.13 156.15 98.7 158.16 96.26 161.09 91.84 163.4 89.83 165.75 88.79 171.47 87.41 174.06 86.43 167.14 86.18 162.51 88.08 158.95 91.58 155.34 96.11 150.07 99.69 136.7 102.43 131.28 104.2 122.31 109.86 119.74 112.1 110.94 121.96 106.06 119.95 106.44 115.12 108.37 109.28 108.18 104.2 106.85 108.05 103.52 113.2 101.94 122.68 99.39 126.44 95.45 127.71 90.43 125.5 88.65 127.28 87.9 126.15 84.94 123.72 84.41 127.17 82.36 128.72 79.13 129.1 75.18 129.05 74.56 130.03 73.02 131.89 71.44 133.01 70.73 131.81 70.29 130.77 69.19 129.9 67.73 129.29 62.71 128.38 60.26 126.6 58.77 124.03 58.3 121.07 56.68 119.72 50.45 112.75 50.3 111.13 48.49 110.17 42.99 105.6 40.55 104.2 39.32 104.47 35.4 105.93 33.43 105.81 31.91 104.56 29.5 100.5 28.1 98.7 18.42 91.29 15.5 89.83 11.63 89.83 8.69 91.06 6 92.58 2.92 93.54 1 91.25 1 91.24 6.94 87.21 16.49 84.95 51.75 87.26 56.55 87.07 70.13 83.75 83.24 83.64 91.11 80.5 111.95 69.48 129.91 59.93 132.64 59.37 135.42 59.86 141.04 62.04 143.18 62.41 144.4 61.92 145.53 61.06 147.29 60.31 166.94 56.96 176.18 57.77 192.44 63.1 197.44 64 218.09 62.57 220.67 62.72 265.53 65.31 274.5 63.47 340.16 33.36 340.91 32.82 341.53 34.3 346.37 50.23 347.27 56.15 347.05 59.68 346.49 63.39 344.94 69.15 343.69 70.74 342.37 71.79 341.08 72.38 332.4 78.32 330.88 78.91 329.45 78.89 328.4 78.2 327.61 77.17 326.24 72.97 325.19 72.23 323.71 72.04 322.2 72.14 320.97 72.46 320.15 72.57 318.94 72.62 317.71 72.3 315.68 72.62 313.1 73.56 308.32 76.91 305.67 78.2 300.66 80.02 290.76 86.17 289.39 87.81 287.96 90.2 286.67 91.39 281.54 93.9 280.05 94.2 275.17 93.9 273.27 94.18 270.91 95.15 270.13 96.35 270.17 97.64 270.49 98.93 270.27 100.58 269.21 101.39 267.75 101.87 266.1 102.01 264.78 102.01 263.9 101.39 263.41 98.89 262.64 97.68 261.25 98.49 259.65 100.26 256.69 104.16 256.47 105.85 256.99 107.07 257.56 108.02 257.26 109.66 255.22 111.39 254.79 112.51 254.83 113.65 255.35 114.72 256.08 115.81 259.66 119.72 265.63 124.7 268.2 127.51 269.19 128.33 270.29 129.05 271.54 129.69 278.53 131.88 279.66 132.63 280.53 133.61 281.18 134.71 281.34 136.74 281.03 139.51 277.92 150.17 277.9 151.74 278.26 153.17 278.48 154.94 278.45 157.09 276.4 164.68 276.43 166.32 276.69 167.53 277.43 169.56 Z" id="GNB-771" data-name="Cacheu"/>
<path d="M 412.58 1.05 483.87 1.34 486.81 6.58 487.24 9.62 487.2 12.61 486.67 14.43 486.03 15.76 481.89 22.54 480.72 25.12 478.19 28.8 477.04 30.94 475.45 34.97 475.41 37.16 475.89 38.69 476.82 39.53 483.34 43.88 486.83 47.2 487.46 48 488.08 48.98 488.82 50.37 489.71 52.59 489.41 53.99 488.66 55.05 487.63 55.82 486.41 56.41 485.07 56.89 483.83 57.51 480.72 59.93 479.59 60.63 475.47 62.08 462.92 64.58 461.6 65.17 461.18 66.55 462.17 92.09 462.42 93.69 462.89 95.08 463.52 96.19 464.32 97.18 469.3 101.23 470.35 102.36 471.08 104.44 471.62 107.98 470.89 113.03 470.73 125.02 470.22 127.14 469.14 127.9 466.28 127.41 461.28 127.14 459.75 126.88 458.4 126.51 451.55 122.86 450.65 122.53 449.7 122.36 448.43 122.36 447.05 122.69 445.75 123.14 444.31 123.33 442.89 123.14 441.57 122.78 440.24 122.71 439.14 123.17 438.07 123.92 437.1 124.79 434.6 127.68 432.65 130.72 432.17 132.6 432.32 134.22 440.44 147.98 441.55 150.53 442.51 156.93 442.98 158.25 443.8 159.22 444.99 159.89 447.9 160.56 450.06 161.6 451.43 162.65 462 168.57 462.8 169.78 462.37 171.16 461.4 173.47 460.94 175.27 460.88 176.94 460.95 177.57 461.3 178.79 463.08 182.47 463.7 184.17 463.79 185.11 463.62 185.87 463.22 186.28 462.41 186.86 461.38 187.47 460.15 188.05 458.74 188.54 455.98 189.14 453.02 188.98 452.29 188.79 452.23 188.78 452.17 187.18 450.57 185.39 448.71 184.28 448.73 183.37 446.04 182.55 443.09 182.38 440.55 183.47 438.49 183.86 432.73 181.55 429.88 180.88 426.2 181.98 418.16 186.74 413.99 187.84 411.75 189.57 404.35 197.66 400.59 200.27 394.67 201.25 389.74 200.31 379.28 196.87 369.18 195.22 365.96 193.7 362.24 190.49 357.36 187.31 351.51 186.01 345.42 186.26 339.71 187.84 337.8 189.06 333.54 192.58 331.88 193.31 326.27 193.03 323.38 193.2 321.23 194.13 313.08 202.2 311.51 203.13 308.7 204.25 308.7 204.25 303.9 201.45 302.47 200.19 299.03 196.1 296.94 195.14 293.74 194.14 292.31 193.04 291.31 192.1 288.26 186.61 286.62 181.24 285.79 179.72 277.43 169.56 276.69 167.53 276.43 166.32 276.4 164.68 278.45 157.09 278.48 154.94 278.26 153.17 277.9 151.74 277.92 150.17 281.03 139.51 281.34 136.74 281.18 134.71 280.53 133.61 279.66 132.63 278.53 131.88 271.54 129.69 270.29 129.05 269.19 128.33 268.2 127.51 265.63 124.7 259.66 119.72 256.08 115.81 255.35 114.72 254.83 113.65 254.79 112.51 255.22 111.39 257.26 109.66 257.56 108.02 256.99 107.07 256.47 105.85 256.69 104.16 259.65 100.26 261.25 98.49 262.64 97.68 263.41 98.89 263.9 101.39 264.78 102.01 266.1 102.01 267.75 101.87 269.21 101.39 270.27 100.58 270.49 98.93 270.17 97.64 270.13 96.35 270.91 95.15 273.27 94.18 275.17 93.9 280.05 94.2 281.54 93.9 286.67 91.39 287.96 90.2 289.39 87.81 290.76 86.17 300.66 80.02 305.67 78.2 308.32 76.91 313.1 73.56 315.68 72.62 317.71 72.3 318.94 72.62 320.15 72.57 320.97 72.46 322.2 72.14 323.71 72.04 325.19 72.23 326.24 72.97 327.61 77.17 328.4 78.2 329.45 78.89 330.88 78.91 332.4 78.32 341.08 72.38 342.37 71.79 343.69 70.74 344.94 69.15 346.49 63.39 347.05 59.68 347.27 56.15 346.37 50.23 341.53 34.3 340.91 32.82 354.72 22.87 370.54 15.76 385.65 5.11 392.4 2.1 399.86 1 412.58 1.05 Z" id="GNB-772" data-name="Oio"/>
<path d="M 470.02 237.72 470.07 237.66 471.13 234.28 472.87 232.88 475.63 232.67 478 233.74 478.91 235.58 479.33 237.59 480.76 239.91 481.7 242.16 482.46 243.1 483.9 242.25 485.09 241.81 486.15 241.92 492.77 244.85 493.78 245.91 492.87 247.99 486.27 255.6 486.66 256.97 494.89 256.14 488.71 267.3 476.91 284.45 473.4 291.94 473.09 293.43 472.73 296.65 472.95 301.48 472.87 303.08 472.54 304.5 472.1 305.82 471.49 306.82 470.66 307.84 469.57 308.97 468 310.92 464.98 317.1 462.17 321.31 460.59 322.38 458.35 323.42 448.27 325.72 446.99 326.17 444.47 327.33 443.04 327.72 436.87 328.69 427.4 331.98 425.62 331.91 423.54 331.52 420.61 330.1 419.04 328.97 417.82 327.88 413.77 322.81 412.91 322.06 411.94 321.58 409.87 320.77 405.53 317.62 400.84 315.29 399.54 314.83 394.8 316.37 382 326.91 379.6 328.57 379.56 328.6 380.89 325.23 366.58 336.64 361.36 339.44 357.37 337.11 356.53 334.05 357.81 326.12 359.36 323.58 362.4 320.36 364.5 317.52 363.14 316.19 358.69 317.34 355.29 320.61 353.09 325.04 352.31 329.59 350.68 332.59 346.93 334.48 342.7 335.94 339.71 337.67 337.28 341.76 335.96 345.22 333.7 347.58 328.34 348.47 324.94 349.54 322.03 351.01 319.85 350.29 318.71 344.77 319.51 342 323.41 332.6 324.7 330.55 325.49 328.78 332.77 318.12 328.22 317.93 326.61 316.14 326.71 313.12 327.44 309.25 329.49 310.5 331.79 310.64 334.14 309.6 336.49 307.31 336.68 308.97 338.11 312.8 339.27 309.37 341.19 306.43 343.35 305.8 345.19 309.25 347.13 309.25 346.89 306.67 346.21 304.32 345.04 302.17 343.44 300.2 344.66 300 344.86 299.75 344.78 299.31 345.19 298.43 347.59 299.45 350.42 300 354.09 300.2 358.44 301.29 359.86 300.45 357.81 296.65 358.68 294.66 359.58 291.32 361.36 291.32 363.45 294.16 367.08 293.69 370.09 293.79 370.24 298.43 375.21 296.67 375.07 293.15 372.03 289.15 368.29 286 367.2 286.68 366.26 287 363.14 287.78 363.14 286 368.8 284.07 371.49 282.59 373.94 280.51 375.87 283.75 379.14 287.48 383.38 289.53 388.16 287.78 384.99 287.3 384.76 285.56 385.31 283.1 384.6 280.51 382.54 279.49 380.35 279.52 378.49 278.76 377.49 275.33 380.46 276.31 386.12 277.49 388.16 278.73 391.7 276.95 391.14 278.66 390.44 282.36 389.78 284.07 396.21 288.56 398.16 288.18 400.59 284.07 399.26 281.78 395.94 277.41 395.27 276.14 395.98 274.36 397.78 272.33 400.03 270.65 402.19 269.85 402.75 270.42 404.73 271.65 407.47 272.86 410.35 273.4 412 274.3 412.93 276.54 413.27 279.43 413.17 282.29 418.2 280.51 417.69 279.63 417.08 277.79 416.58 276.95 420.47 277.18 423.16 278.6 425.25 281.01 427.22 284.07 416.96 286.05 413.17 286 414.38 287.4 414.97 288.38 415.94 289.05 418.2 289.54 417.08 293.64 418.55 295.97 420.77 295.75 423.28 288.84 426.34 288.54 429.41 289.16 430.77 288.67 439.04 288.18 441.44 287.78 444.44 286.3 446.51 284.61 447.85 282.22 448.71 278.73 445.45 279.78 443.1 281.05 440.42 282.03 431.76 282.95 429.82 282.32 429 279.62 429.53 278.45 430.87 277.59 432.62 277.08 434.49 276.95 433.47 274.6 433.41 273.21 434.49 269.85 431.53 269.17 429.18 270.54 427.67 273.33 427.22 276.95 423.66 272.95 421.4 271.73 418.2 271.78 418.2 269.85 420.05 268.83 423.85 264.52 423.85 262.74 421.91 259.2 420.13 259.2 416.58 268.07 413.46 268.81 409.55 266.61 405.91 266.29 408.62 262.31 412.3 260.56 415.45 258.5 416.58 253.71 414.39 255.96 411.94 257.2 409.56 257.14 407.53 255.49 405.91 255.49 405.67 258.17 404.89 259.82 403.27 260.69 400.59 260.96 401.37 264.76 399.45 265.79 396.79 264.41 395.27 260.96 391.3 266.55 389.14 265.07 390.43 260.64 396.87 257.42 394.57 255.77 393.62 253.66 393.88 251.22 395.27 248.53 396.87 248.53 398 249.25 399.01 249.57 402.19 250.15 401.05 246.56 398.73 244.19 393.49 241.44 391.7 241.44 390.98 245.68 389.2 249.06 387.81 252.63 388.16 257.42 385.46 258.5 383.15 261.81 380.89 262.74 379.3 261.87 380 259.46 382.66 255.49 379.62 254.16 379.08 250.97 380.89 243.2 378.35 244.7 376.72 246.9 375.83 249.68 375.55 252.89 374.5 253.11 369.07 253.02 366.69 253.71 370.24 255.49 370.24 257.42 373.22 259.48 376.23 261.3 377.49 263.63 376.47 267.11 374.15 267.97 371.7 266.89 370.24 264.52 368.99 266.57 367.99 268.75 367.23 271.01 366.69 273.4 364.71 263.35 363.1 259.84 361.81 260.25 361.81 260.25 361.72 259.79 358.85 258.67 354.05 257.78 352.66 257.68 349.03 258.07 340.2 260.17 339.45 260.84 339.4 260.89 339.71 257.42 331.25 265.4 326.76 267.65 322.12 264.52 323.37 262.27 323.33 256.79 323.73 253.71 320.32 253.55 318.22 254.6 316.7 256.12 315.01 257.42 314.94 258.27 312.96 260.57 310.65 261.96 309.53 260.09 308.63 255.74 307.22 251.52 307.18 247.16 312 240.09 314.11 234.33 315.9 231.67 325.67 221.89 328.53 219.95 330.14 219.36 330.84 218.46 331 215.53 331.64 212.95 333.16 210.68 336.49 207.54 338.11 207.54 338.82 209.22 339.63 209.95 340.56 210.41 341.66 211.23 342.65 208.82 343.95 207.87 345.47 208.11 347.13 207.54 353.13 207.72 363.57 210.53 369.26 211.23 401.4 211.23 402.75 210.34 407.11 206.47 408.51 205.58 415.34 203.97 419.66 200.25 423.09 196.14 427.22 193.31 433.19 193.31 434.26 197.25 432.49 202.53 429.88 206.55 427.94 211.47 428.14 217.95 429.88 224.34 432.55 228.82 437.58 231.07 444.17 232.15 449.95 234.05 452.43 238.69 455.19 241.7 461.24 243.05 467.29 241.99 470.02 237.72 Z" id="GNB-773" data-name="Quinara"/>
<path d="M 621.49 1.92 617.28 10.46 616.15 14.09 615.01 15.87 613.77 17.09 612.39 17.53 610.97 17.66 609.76 17.35 608.88 16.53 607.42 14.36 605.5 12.71 604.53 12.13 603.57 12.61 603.06 14.47 604.25 29.24 605.15 32.67 605.85 33.77 606.85 34.58 609.44 35.56 611.14 37.24 612.18 37.62 613.11 37.73 613.62 38.83 613.33 40.71 611.94 44.2 610.89 45.99 610.01 47.2 609.46 47.54 609 47.69 608.26 47.78 607.03 47.59 606.54 47.32 605.74 46.76 603.99 45.09 602.92 44.31 601.71 43.81 600.23 43.83 598.98 44.3 597.99 45.09 594.99 48.13 594.2 48.67 593.13 49.03 592.06 48.94 591.25 48.43 590.83 47.86 589.92 45.59 589.02 44.82 587.75 44.5 584.86 44.9 583.42 44.9 582.27 44.45 581.53 43.59 580.8 43.01 580.24 42.86 578.11 43.67 576.84 43.85 575.84 43.41 575.52 42.24 575.82 40.57 575.75 39.26 574.56 38.24 573.29 38.29 572.17 38.85 571.56 40.55 571.37 42.91 572.22 47.51 572.99 49.9 573.99 51.53 575.15 52.08 576.61 52.1 577.93 51.73 579.14 51.25 582.74 49.19 583.94 48.79 585.13 48.88 586.24 49.39 587.21 50.2 590.65 54.07 591.31 55.25 591.81 56.56 591.84 58.16 591.37 59.68 589.8 61.07 588.41 61.52 587.09 62.14 586.16 62.92 585.42 63.91 584.47 64.49 583.46 64.44 582.56 63.72 581.35 61.6 580.7 60.93 580.06 60.68 579.08 60.93 578.5 62 578.43 63.78 579.65 68.25 580.28 69.56 580.48 70.47 580.38 71.32 579.42 72.51 578.23 73.27 576.78 73.79 575.21 74.07 573.7 74.17 572.3 74.01 570.31 73.04 569.3 73.19 568.31 73.75 567.35 74.6 566.5 75.53 565.77 76.55 565.5 77.57 565.83 78.43 567.02 78.85 567.72 79.56 567.28 80.71 566.65 81.56 566.19 82.06 565.97 82.42 566.01 83.03 566.41 83.56 570.75 84.36 571.92 84.99 572.83 85.88 574.3 88.03 575.19 88.99 576.24 89.75 577.49 90.31 581.91 91.56 583.03 92.01 585.26 93.32 587.17 95.07 587.91 96.09 588.33 97.62 588.33 99.4 587.46 102.44 586.72 104.12 585.26 106.66 584.92 108.3 584.99 110.35 589.12 123.95 589.49 124.72 590.04 125.48 590.83 126.31 591.89 127.01 593.09 127.64 595.76 128.54 596.87 129.2 597.69 130.2 597.95 132.29 597.38 135.34 595.21 141 593.51 142.98 591.92 143.79 590.59 143.62 589.3 143.89 588.19 144.46 585.35 146.78 584.25 147.39 583.03 147.68 581.78 147.66 578.54 147.04 577.09 147.07 575.69 147.39 574.5 148.36 573.68 149.92 573.2 152.86 573.22 155.1 574.11 157.63 575.11 158.98 576.23 159.92 578.4 161.15 582.27 162.86 583.3 163.49 584 165.51 583.94 168.95 582.7 176.18 581.73 179.31 580.82 181.2 580.28 181.75 579.79 182.9 579.73 184.46 580.51 186.96 581.27 188.24 582.26 189.3 587.58 193.12 588.45 194.01 588.89 195.54 588.75 197.58 585.62 206.41 585.23 208.66 585.04 211.7 585.58 223.53 587.04 233.08 586.98 237.98 587.42 239.68 588.15 241.02 590.07 242.7 590.92 243.64 591.17 244.97 590.77 246.53 588.83 248.64 587.34 249.77 583.14 251.62 582.07 252.29 581.21 252.99 580.2 256.49 578.83 270.98 572.92 270.6 561.02 271.83 555.15 273.1 547.82 276.23 545.47 276.49 543.75 275.8 540.83 273.45 539.9 272.89 535.6 272.65 533 273.53 526.06 280.47 519.84 282.4 512.66 279.46 506.14 273.92 501.85 268.09 500.62 263.8 500.6 260.83 499.47 258.49 494.89 256.14 486.66 256.97 486.27 255.6 492.87 247.99 493.78 245.91 492.77 244.85 486.15 241.92 485.09 241.81 483.9 242.25 482.46 243.1 481.7 242.16 480.76 239.91 479.33 237.59 478.91 235.58 478 233.74 475.63 232.67 472.87 232.88 471.13 234.28 470.07 237.66 470.02 237.72 463.25 240 458.56 235.9 454.97 230.03 451.44 227.07 443.76 226.15 441.44 225.45 438.47 223.66 436.96 221.83 435.69 219.8 433.51 217.31 432.35 213.96 434.7 210.84 437.98 207.82 439.66 204.78 444.44 192.07 444.62 190.47 445.76 189.77 449.6 189.6 452.24 188.87 452.23 188.78 452.29 188.79 453.02 188.98 455.98 189.14 458.74 188.54 460.15 188.05 461.38 187.47 462.41 186.86 463.22 186.28 463.62 185.87 463.79 185.11 463.7 184.17 463.08 182.47 461.3 178.79 460.95 177.57 460.88 176.94 460.94 175.27 461.4 173.47 462.37 171.16 462.8 169.78 462 168.57 451.43 162.65 450.06 161.6 447.9 160.56 444.99 159.89 443.8 159.22 442.98 158.25 442.51 156.93 441.55 150.53 440.44 147.98 432.32 134.22 432.17 132.6 432.65 130.72 434.6 127.68 437.1 124.79 438.07 123.92 439.14 123.17 440.24 122.71 441.57 122.78 442.89 123.14 444.31 123.33 445.75 123.14 447.05 122.69 448.43 122.36 449.7 122.36 450.65 122.53 451.55 122.86 458.4 126.51 459.75 126.88 461.28 127.14 466.28 127.41 469.14 127.9 470.22 127.14 470.73 125.02 470.89 113.03 471.62 107.98 471.08 104.44 470.35 102.36 469.3 101.23 464.32 97.18 463.52 96.19 462.89 95.08 462.42 93.69 462.17 92.09 461.18 66.55 461.6 65.17 462.92 64.58 475.47 62.08 479.59 60.63 480.72 59.93 483.83 57.51 485.07 56.89 486.41 56.41 487.63 55.82 488.66 55.05 489.41 53.99 489.71 52.59 488.82 50.37 488.08 48.98 487.46 48 486.83 47.2 483.34 43.88 476.82 39.53 475.89 38.69 475.41 37.16 475.45 34.97 477.04 30.94 478.19 28.8 480.72 25.12 481.89 22.54 486.03 15.76 486.67 14.43 487.2 12.61 487.24 9.62 486.81 6.58 483.87 1.34 504.79 1.43 596.99 1.82 621.49 1.92 Z" id="GNB-776" data-name="Bafatá"/>
<path d="M 781.42 2.57 779.33 19.68 779.77 25.48 782.26 32.55 795.36 48.69 798.3 53.98 799 58.43 798.03 62.89 793.46 73.6 792.9 75.77 792.64 79.1 793.46 86.62 793.2 89.64 791.12 94.68 790.07 101.54 790 101.65 785.71 108.15 778.16 110.91 760.54 111.12 763.89 105.23 759.48 103.97 752.36 105.65 747.43 108.55 741.14 113.63 725.33 120.87 719.66 127.21 719 129.89 718.97 135.45 717.89 138.31 719.88 139.27 726.7 140.21 731.97 141.9 736.94 144.9 742.02 149.73 744.63 151.54 751.74 153.99 752.95 155.52 753.61 157.51 755.06 160.02 760.75 166.22 763.83 168.31 768.06 170.11 777.22 171.52 779.7 172.73 782.55 177.02 782.9 181.94 780.63 192.46 779.77 203.27 783.74 233.92 783.69 238.58 782.34 249.77 780.99 253.22 776.87 256.25 770.57 258.72 763.89 259.93 758.67 259.2 757.13 257.28 757.69 255.34 757.53 253.68 753.78 252.63 751.59 251.29 750.73 246.08 748.45 244.48 744.54 244.42 743.76 245.8 744.94 248.74 744.38 254.7 743.64 257.2 740.29 262.13 735.81 264.78 730.58 264.88 724.94 262.11 722.88 263.67 711.66 270.39 706.8 272.13 695.44 270.33 691.33 270.41 683.52 271.76 679.9 271.91 675.65 270.92 673.16 269.46 670.92 267.52 668.64 265.94 666.01 265.47 660.01 266.26 638.23 264.86 636.74 264.06 635.39 263.88 632.6 265.36 630.57 267.6 627.55 273.86 625.81 276.44 622.5 279.03 598.3 292.05 598.24 291.96 592.34 283.75 591.05 279.23 591.03 277.32 590.07 273.53 578.83 270.98 580.2 256.49 581.21 252.99 582.07 252.29 583.14 251.62 587.34 249.77 588.83 248.64 590.77 246.53 591.17 244.97 590.92 243.64 590.07 242.7 588.15 241.02 587.42 239.68 586.98 237.98 587.04 233.08 585.58 223.53 585.04 211.7 585.23 208.66 585.62 206.41 588.75 197.58 588.89 195.54 588.45 194.01 587.58 193.12 582.26 189.3 581.27 188.24 580.51 186.96 579.73 184.46 579.79 182.9 580.28 181.75 580.82 181.2 581.73 179.31 582.7 176.18 583.94 168.95 584 165.51 583.3 163.49 582.27 162.86 578.4 161.15 576.23 159.92 575.11 158.98 574.11 157.63 573.22 155.1 573.2 152.86 573.68 149.92 574.5 148.36 575.69 147.39 577.09 147.07 578.54 147.04 581.78 147.66 583.03 147.68 584.25 147.39 585.35 146.78 588.19 144.46 589.3 143.89 590.59 143.62 591.92 143.79 593.51 142.98 595.21 141 597.38 135.34 597.95 132.29 597.69 130.2 596.87 129.2 595.76 128.54 593.09 127.64 591.89 127.01 590.83 126.31 590.04 125.48 589.49 124.72 589.12 123.95 584.99 110.35 584.92 108.3 585.26 106.66 586.72 104.12 587.46 102.44 588.33 99.4 588.33 97.62 587.91 96.09 587.17 95.07 585.26 93.32 583.03 92.01 581.91 91.56 577.49 90.31 576.24 89.75 575.19 88.99 574.3 88.03 572.83 85.88 571.92 84.99 570.75 84.36 566.41 83.56 566.01 83.03 565.97 82.42 566.19 82.06 566.65 81.56 567.28 80.71 567.72 79.56 567.02 78.85 565.83 78.43 565.5 77.57 565.77 76.55 566.5 75.53 567.35 74.6 568.31 73.75 569.3 73.19 570.31 73.04 572.3 74.01 573.7 74.17 575.21 74.07 576.78 73.79 578.23 73.27 579.42 72.51 580.38 71.32 580.48 70.47 580.28 69.56 579.65 68.25 578.43 63.78 578.5 62 579.08 60.93 580.06 60.68 580.7 60.93 581.35 61.6 582.56 63.72 583.46 64.44 584.47 64.49 585.42 63.91 586.16 62.92 587.09 62.14 588.41 61.52 589.8 61.07 591.37 59.68 591.84 58.16 591.81 56.56 591.31 55.25 590.65 54.07 587.21 50.2 586.24 49.39 585.13 48.88 583.94 48.79 582.74 49.19 579.14 51.25 577.93 51.73 576.61 52.1 575.15 52.08 573.99 51.53 572.99 49.9 572.22 47.51 571.37 42.91 571.56 40.55 572.17 38.85 573.29 38.29 574.56 38.24 575.75 39.26 575.82 40.57 575.52 42.24 575.84 43.41 576.84 43.85 578.11 43.67 580.24 42.86 580.8 43.01 581.53 43.59 582.27 44.45 583.42 44.9 584.86 44.9 587.75 44.5 589.02 44.82 589.92 45.59 590.83 47.86 591.25 48.43 592.06 48.94 593.13 49.03 594.2 48.67 594.99 48.13 597.99 45.09 598.98 44.3 600.23 43.83 601.71 43.81 602.92 44.31 603.99 45.09 605.74 46.76 606.54 47.32 607.03 47.59 608.26 47.78 609 47.69 609.46 47.54 610.01 47.2 610.89 45.99 611.94 44.2 613.33 40.71 613.62 38.83 613.11 37.73 612.18 37.62 611.14 37.24 609.44 35.56 606.85 34.58 605.85 33.77 605.15 32.67 604.25 29.24 603.06 14.47 603.57 12.61 604.53 12.13 605.5 12.71 607.42 14.36 608.88 16.53 609.76 17.35 610.97 17.66 612.39 17.53 613.77 17.09 615.01 15.87 616.15 14.09 617.28 10.46 621.49 1.92 689.22 2.2 781.42 2.57 Z" id="GNB-777" data-name="Gabú"/>
<path d="M 578.83 270.98 590.07 273.53 591.03 277.32 591.05 279.23 592.34 283.75 598.24 291.96 598.3 292.05 575.23 304.45 564.48 306.35 542.86 303.89 532.09 305.01 525.78 308.44 521.11 313.52 495.3 350.78 491.39 360.56 486.21 380.99 461.26 428.56 452.54 438.81 452.54 438.85 445.16 446.33 435.06 453.37 428.45 456.69 425.45 456.25 426.17 452.82 427.98 451.06 430.27 449.89 432.55 448.26 436.39 442.4 438.04 440.99 438.04 439.22 436.11 439.22 435.02 441.66 433.68 443.76 431.8 445.38 429 446.33 425.94 446.45 423.09 445.82 420.96 444.33 420.13 441.96 424.77 422.86 426.34 419.69 429.09 418.25 430.72 414.86 431.97 411.01 433.51 408.06 435.03 407.32 438.28 407.52 439.66 407.09 439.84 406.1 439.46 402.63 439.66 401.76 450.47 400.87 449.98 398.7 448.65 396.93 446.93 395.6 445.16 394.66 448.62 391.02 450.68 386.11 450.38 381.48 446.76 378.68 444.41 385.46 440.54 390.37 435.34 393.43 429 394.66 430.45 398.83 429.32 401.4 426.74 401.94 423.85 399.98 423.28 401.33 422.57 402.37 422.04 403.53 421.91 405.31 420.87 404.66 418.2 403.53 418.08 408.54 416.58 410.9 413.91 412.53 410.35 415.24 407.37 419.02 403.54 426.35 396.79 435.37 393.94 438.08 390.75 439.22 387.4 437.75 383.38 434.32 380.4 430.46 380.09 427.67 382.95 425.62 390.73 421.78 393.49 419.69 394.81 416.68 396.87 405.31 394.07 383.39 396.87 377.05 391.01 377.94 389.49 381.79 390.35 386.81 391.7 391.27 392.06 395.21 391.78 401.5 389.87 405.99 383.15 403.36 373.94 403.53 371.2 402.73 369.22 401.62 367.77 400.57 366.69 399.98 360.63 400.85 357.43 400.35 356.02 397.42 355.31 394.56 353.45 392.66 350.87 391.59 347.95 391.27 344.08 388.55 343.16 382.25 343.44 369.8 344.08 367 343.95 365.24 342.55 364.47 340.91 364.43 340.07 364.15 339.76 363.33 339.71 361.73 340.02 358.94 341.35 355.52 341.66 352.77 342.94 350.36 349.53 341.64 352.31 339.44 353.99 339.81 359.23 342.24 362.24 342.82 364.85 342.02 368.52 338.48 371.13 337.67 373.77 336.21 376.86 332.72 379.55 328.62 379.56 328.6 379.6 328.57 382 326.91 394.8 316.37 399.54 314.83 400.84 315.29 405.53 317.62 409.87 320.77 411.94 321.58 412.91 322.06 413.77 322.81 417.82 327.88 419.04 328.97 420.61 330.1 423.54 331.52 425.62 331.91 427.4 331.98 436.87 328.69 443.04 327.72 444.47 327.33 446.99 326.17 448.27 325.72 458.35 323.42 460.59 322.38 462.17 321.31 464.98 317.1 468 310.92 469.57 308.97 470.66 307.84 471.49 306.82 472.1 305.82 472.54 304.5 472.87 303.08 472.95 301.48 472.73 296.65 473.09 293.43 473.4 291.94 476.91 284.45 488.71 267.3 494.89 256.14 499.47 258.49 500.6 260.83 500.62 263.8 501.85 268.09 506.14 273.92 512.66 279.46 519.84 282.4 526.06 280.47 533 273.53 535.6 272.65 539.9 272.89 540.83 273.45 543.75 275.8 545.47 276.49 547.82 276.23 555.15 273.1 561.02 271.83 572.92 270.6 578.83 270.98 Z" id="GNB-778" data-name="Tombali"/>
</g>
</svg>