<?xml version="1.0"?>
<svg xmlns="http://www.w3.org/2000/svg" version="1.2" baseProfile="tiny" width="800" height="990" viewBox="0 0 800 990" stroke-linecap="round" stroke-linejoin="round">
<g id="ne_10m_admin_1_states_provinces">
<path d="M 623.87 297.62 623.92 297.65 645.85 294.93 671.49 319.2 666.76 342.24 651.42 345.78 634.55 355.84 628.31 356.52 605.05 373.51 595.06 392.89 620.22 475.31 629.92 507.09 641.28 537.71 609.04 522.24 442 444.41 462.1 420.21 478.24 375.2 497.71 294.72 527.02 293.38 557.09 321.65 568.81 322.9 572.69 324.65 598.7 320.73 601.76 314.47 623.87 297.62 Z" id="OMN-2404" data-name="Ad Dakhliyah"/>
<path d="M 641.28 537.71 652.13 542.92 637.75 587.04 635.7 586.4 632.74 586.63 629.75 587.51 626.5 589.49 622.37 590.51 621.08 591.35 620.44 592.24 618.69 597.01 618.62 598.15 619.28 599.23 619.56 600.15 618.73 600.92 617.48 601.46 614.99 602 613.13 602.85 611.3 603.99 608.9 606.12 608.02 607.17 607.39 608.32 607.14 609.65 607.46 610.62 608.9 612.14 609.22 613.12 608.48 615.35 606.67 616.64 602.23 618.34 600.55 619.36 598.73 620.75 597.27 622.41 596.69 624.26 596.13 625.4 594.98 626.71 593.99 628.46 593.91 630.93 595.84 635.05 596.45 637.52 594.8 641.21 593.23 646.75 593.17 648.19 592.96 651.19 590.6 656.56 588.91 662.26 587.73 664.79 581.32 673.77 580.34 676.43 580.76 679.55 581.48 680.71 582.37 681.65 583.14 682.66 583.46 684.05 583.52 687.14 583.35 688.63 582.84 689.94 582.1 692.6 581.88 694.64 582.63 696.59 587.55 704.24 588.32 705.93 588.93 708.75 588.92 711.46 588.44 714.03 586.73 718.69 586.33 720.78 586.57 723.11 588.62 728.3 589.6 729.9 592.15 732.75 592.78 734.39 591.88 738.62 591.78 740.69 595.62 747.26 595.65 748.75 593.17 751.14 591.69 752.27 591.29 752.41 586.74 753.04 586.23 753.57 585.78 754.17 584.67 754.99 583.4 755.69 582.42 755.99 561.29 755 555.6 755.85 555.59 755.85 467.53 733.51 343.83 539.46 342.48 537.57 343.79 533.65 349.13 517.53 354.14 502.46 358.63 488.96 362.43 477.54 365.35 468.74 367.23 463.08 367.9 461.07 368.41 459.54 370.84 459.14 442 444.41 609.04 522.24 641.28 537.71 Z" id="OMN-2405" data-name="Al Wusta"/>
<path d="M 678.05 631.56 678.03 631.56 677.5 630.63 677.06 629.86 676.54 626.69 676.44 623.52 676.66 621.81 676.66 621.8 676.63 621.68 676.38 620.75 677.09 612.73 677.63 611.44 678.73 610.03 679.29 609.51 681.1 608.21 681.86 607.95 682.06 607.75 682.26 607.55 682.71 605.67 682.95 605.12 684.67 604.52 686.36 604.46 688.08 604.2 689.87 603.04 690.71 601.97 691.08 601.48 691.46 600.22 691.52 599.99 691.95 596.11 692.58 594.24 693.52 592.71 698.39 586.63 700.27 582.95 701.41 579.61 702.29 578.42 703.81 578.05 705.03 579.72 705.03 579.73 704.9 581.47 704.2 583.33 703.81 585.34 703.81 585.35 704.02 587.51 704.63 589.22 707.75 594.56 708.65 596.11 708.65 596.11 708.25 597.22 707.35 598.04 703.46 600.76 699.35 602.92 697.5 604.49 695.07 607.97 693.87 610.35 692.69 615.22 691.77 616.95 691.77 616.96 691.77 618.09 691.79 618.18 691.94 619.11 691.95 619.79 691.52 620.5 688.11 623.69 686.27 626.07 685.35 627.03 684.44 627.34 683.15 627.51 682 627.78 681.52 628.42 681.17 629.49 680.3 630.64 679.19 631.47 678.05 631.56 Z M 767.64 386.8 767.74 387.87 767.13 388.12 766.27 387.91 765.63 387.56 765.65 388.99 766.39 389.64 767.61 389.77 769.1 389.64 776.91 387.13 779.61 388.16 783.71 391.03 784.33 391.08 785.92 390.88 786.48 391.03 786.76 391.5 786.95 392.58 787.23 393.1 787.21 393.39 787.09 393.85 787.18 394.46 787.85 395.18 788.37 395.46 789.01 395.68 789.69 395.82 790.31 395.88 790.68 395.37 790.02 394.27 788.55 392.72 788.98 391.35 790.05 391.33 792.08 391.03 794.81 391.71 797 394.33 798.47 397.74 799 400.78 797 417.41 795.67 421.87 793.64 425.86 787.85 433.47 784.83 435.86 783.13 437.57 782.37 439.35 782.1 441.71 780.24 446.56 779.77 451.46 778.78 453.48 774.76 455.06 773.52 456.83 771.85 460.54 763.83 470.68 760.76 479.8 758.83 484.01 749.33 498.14 748.57 501.39 748.24 502.29 747.42 503 733.13 508.95 730.19 510.6 718.83 519.3 705.12 532.83 700.95 538.9 699.92 539.82 698.53 540.75 696.94 542.89 693.83 548.34 693.48 549.27 693.22 552.86 692.91 553.9 692.32 554.77 686.42 559.28 686.84 561.38 685.13 562.82 680.89 564.82 681.01 565.01 680.23 566.87 680.11 566.9 679.41 567.54 678.96 568.07 678.73 568.63 678.97 569.56 679.6 570.51 680.49 571.31 681.52 571.81 683.02 571.14 684.72 569.64 685.86 569.03 685.73 571.05 684.72 572.4 682.87 573.7 681.04 574.2 680.11 573.13 679.49 573.13 678.92 574.56 678.15 577.31 677.34 578.74 676.54 579.42 674.3 580.64 673.2 581.57 671.91 583.53 670.79 586.11 670.02 588.93 669.74 591.61 667.17 596.46 665.76 600.02 665.89 601.65 665.32 602.42 664.77 605.8 664.48 606.57 663.65 606.73 662.3 607.18 660.93 607.85 659.97 608.64 659.29 611.37 657.1 612.47 654.24 612.37 651.6 611.47 649.67 610.57 648.3 610.14 644.98 610.03 643.7 610.22 641.29 611.18 639.82 611.47 640.14 610.57 640.73 610.1 640.24 609.81 636.64 608.86 634.62 608.64 632.45 607.8 632.21 605.8 633.52 601.65 633.5 602.93 633.91 604.06 634.67 605.05 635.67 605.88 636.06 603.83 635.03 599.26 636.02 597.18 637.36 595.17 638.4 592.24 638.67 589.24 637.75 587.04 637.75 587.04 652.13 542.92 641.28 537.71 629.92 507.09 620.22 475.31 646.37 466.46 672.08 457.77 695.89 449.71 718.53 442.04 740.53 430.92 753.03 424.67 757.98 412.5 758.95 398.92 757.01 393.59 756.88 388.61 762.41 383.17 764.74 385.08 767.07 386.32 767.64 386.8 Z" fill-rule="evenodd" id="OMN-2406" data-name="Ash Sharqiyah South"/>
<path d="M 397.89 902.02 396.37 902.89 393.32 902.88 392.36 903.4 392.35 903.4 391.97 902.44 391.9 902.25 391.9 902.24 392.44 901.46 393.63 900.93 395.07 900.57 397.11 901.76 397.9 902.02 397.89 902.02 Z M 413.73 903.15 412.12 903.4 407.63 903.2 406.21 902.65 405.34 900.46 408.01 898.89 411.89 897.64 414.58 896.41 414.58 896.42 414.87 897.83 414.9 897.98 415.86 899.21 417.19 900.08 418.66 900.57 415.44 902.52 413.73 903.15 Z M 1.72 752.36 1 750.75 12.29 746.99 29.66 741.21 47.01 735.42 64.36 729.63 81.73 723.85 99.09 718.06 116.45 712.27 133.82 706.49 151.17 700.7 168.54 694.91 185.89 689.12 203.25 683.34 220.63 677.55 237.99 671.76 255.33 665.98 272.7 660.2 290.06 654.41 305.33 649.32 308.59 639.52 309.26 637.52 311.14 631.86 314.06 623.06 317.86 611.64 322.35 598.13 327.35 583.06 332.71 566.94 338.25 550.3 342.48 537.57 343.83 539.46 467.53 733.51 555.59 755.85 531.47 759.44 518.92 762.85 501.8 769.55 495.24 774.06 490.92 776.12 488.57 777.84 487.57 780.01 486.72 781.06 475.89 791.36 474.01 795.02 473.58 799.82 474.24 803.14 474.33 804.32 474.01 805.61 472.54 807.54 472 809.19 471.09 811.22 470.82 812.28 470.82 816.5 469.9 820.77 464.65 832.5 466.16 834.49 465.91 836.62 464.48 838.6 462.49 840.12 458.08 841.97 455.9 843.19 452.79 848.49 452.15 848.97 450.7 849.4 449.97 849.82 445.25 854.82 444.98 855.58 445.11 857.84 443.96 858.06 428.09 856.11 426.03 856.41 423.01 857.78 420.76 858.19 412.12 857.49 410.06 857.8 403.5 860.33 399.78 861.23 373.82 862.37 363.61 864.92 361.34 865.11 360.52 865.3 360 865.73 359.55 866.21 358.91 866.57 357.06 866.62 356.91 866.57 353.57 867.44 352.68 867.88 351.31 869.54 349.86 873.54 348.91 875.22 347.4 876.9 346.95 877.7 345.4 881.85 345 882.56 343.61 884.06 334.22 891.55 331.36 896.51 330.67 898.55 330.39 900.91 330.8 903.64 331.88 905 335.29 906.8 337.27 908.8 338.03 910.92 338.07 915.55 337.37 917.48 333.23 922.86 333.01 923.79 332.83 925.19 332.95 926.46 333.58 927.01 334.39 927.36 334.42 928.14 333.92 929.44 333.36 930 330.7 931.28 329.76 931.86 329.14 932.7 328.75 933.57 328.33 935.33 327.35 936.89 327.68 937.4 326.72 938.52 323.64 939.43 322.08 940.24 321.56 941.14 321.01 942.55 320.18 943.82 318.94 944.39 314.8 948.93 310.24 952.08 309.62 952.08 308.63 950.54 307.44 951.21 306.2 952.66 305.02 953.46 303.43 953.73 301.95 954.22 300.55 954.51 299.1 954.15 297.51 955.75 295.63 956.34 291.47 956.86 288.09 958.13 286.4 958.14 285.25 956.86 284.09 957.47 282.23 957.21 281.08 957.62 277.63 955.48 276.87 956.23 276.05 954.29 275.59 952.5 274.45 951.2 270.3 950.47 267.38 949.52 266.13 949.3 264.94 949.42 262.86 949.89 261.63 949.99 258.05 949.31 256.72 949.3 255.63 949.59 253.51 950.5 252.91 950.69 248.13 949.37 245.63 949.2 243.55 950.69 242.6 950.2 241.61 949.99 222.71 952.08 214.69 952.08 212.92 952.52 208.45 954.69 207.36 955.48 206.98 956.39 207.01 957.17 207.23 957.9 207.36 958.68 207.03 959.55 205.6 960.78 205.28 961.4 204.15 962.46 201.6 962.96 196.96 963.22 190.89 964.45 188.9 964.6 187.06 965.2 184.97 966.36 182.87 967.14 181.03 966.62 179.15 967.8 176.58 969.84 174.32 972.11 173.35 973.99 172.52 975.11 170.62 976.22 167.05 977.77 163.73 978.57 147.54 978.89 138.97 980.11 122.4 985.21 113.79 989.48 107.45 975.78 101.1 962.04 94.75 948.31 88.42 934.57 84.49 926.08 83.42 924.68 81.68 924.08 77.86 923.87 76.36 922.96 76.52 922.9 77.05 922.84 77.24 922.78 74.02 915.52 69.68 905.73 65.34 895.93 61.02 886.14 56.68 876.34 52.32 866.55 47.98 856.76 43.65 846.96 39.3 837.17 34.96 827.38 30.63 817.58 26.28 807.78 21.94 797.99 17.61 788.2 13.27 778.4 8.93 768.6 4.59 758.81 1.72 752.36 Z" fill-rule="evenodd" id="OMN-2411" data-name="Dhofar"/>
<path d="M 497.71 294.72 478.24 375.2 462.1 420.21 442 444.41 370.84 459.14 368.41 459.54 372.2 448.09 372.15 445.76 371.1 443.54 365.71 435.21 357.51 422.54 349.32 409.87 341.11 397.2 332.92 384.53 326.47 374.58 327.56 359.78 326.92 344.98 326.92 344.97 327.28 341.96 330.44 332.21 340.09 316.6 342.34 310.39 344.46 300.27 345.59 296.89 347.49 294.27 347.51 294.26 351.29 290.44 352.7 288.48 366.62 289.77 377.22 284.12 390.63 280.59 397.7 276.35 394.16 261.52 398.4 256.58 404.76 253.75 404.76 245.28 410.41 241.75 425.24 238.92 437.24 238.92 440.69 228.82 456.46 235.23 486.55 259.65 495.92 292.58 497.71 294.72 Z" id="OMN-2414" data-name="Al Dhahira"/>
<path d="M 564.46 260.34 552.67 279.31 539.52 289.62 527.02 293.38 497.71 294.72 495.92 292.58 486.55 259.65 456.46 235.23 440.69 228.82 440.04 220.03 430.08 189.05 416.62 173.14 416.71 169 416.88 169.02 419.03 168.95 420.97 168.45 421.88 167.41 422.5 165.67 424.68 163.25 426.33 159.46 426.35 159.45 427.87 158.83 431.66 158.4 433.49 157.59 436.84 154.6 437.41 154.09 440.25 152.24 440.78 151.24 440.85 150.54 441.03 148.72 441.36 145.41 441.88 144.86 442.35 144.38 447.86 143.82 450.1 152.03 456.61 164.4 457.7 165.43 458.36 167.8 459.03 172.02 470.97 192.7 473.45 195.23 479.19 199.92 490.27 212.32 492.47 215.55 493.4 217.44 494.3 220.35 504.28 231.3 516.33 240.71 525.79 247.77 529.11 249.72 543.53 254.82 562.12 259.38 564.46 260.34 Z" id="OMN-2424" data-name="Al Batnah North"/>
<path d="M 444.39 111.78 443.91 114.57 441.07 115.9 438.71 116.67 437.55 117.57 434.55 119.53 432.89 120.18 431.28 119.77 430.03 119.2 429.94 118.61 429.88 118.21 430.11 115.7 432.82 114.47 433.81 113.4 433.2 112.57 432.88 111.55 432.67 109.9 435.41 108.02 438.46 108.38 440.35 111.04 444.39 111.78 Z M 437.68 115.69 438.22 114.02 436.75 113.07 435.86 113.08 435.3 113.61 435.65 116.32 437.68 115.69 Z M 437.28 77.95 433.07 79.06 431.44 79.33 429.85 78.93 429.13 78.17 428.13 76.13 427.22 75.45 424.84 75.07 424.44 74.86 424.27 74.77 423.69 73.55 423.21 69.02 423.29 67.28 424.38 66.22 425.69 65.3 426.42 63.97 425.95 62.71 423.59 59.85 423.14 58.12 423.63 56.6 425.59 54.11 426.27 52.65 426.69 43.55 427.36 40.54 427.58 38.68 427.07 36.61 425.47 32.7 424.32 32.57 419.17 33.78 416.82 33.96 416.82 33.96 416.83 33.93 417.29 32.98 418.25 29.35 424.97 19.76 427.41 15.2 428.44 14.28 430.1 13.47 430.19 14.03 430.1 15.4 431.28 17.05 430.96 17.62 430.52 19.07 431.28 19.07 432.25 18.16 434.89 18.03 435.42 17.37 436.04 17.08 437.37 17.52 438.58 18.66 438.89 20.45 439.6 19.33 440.3 19.39 441.17 19.8 442.36 19.76 445.11 17.92 446.2 17.69 449.29 18.46 449.97 18.37 450.25 17.52 449.79 16.61 448.99 15.89 448.27 15.6 446.29 15.39 445.06 15.46 444.16 15.95 443.58 16.59 442.58 17.49 441.39 18.05 440.26 17.69 440.24 16.56 441.02 12.29 441.02 10.69 443.99 12.84 445.33 13.28 445.87 11.8 445.4 11.01 444.26 9.98 442.85 9.1 441.66 8.74 442.09 7.8 442.65 7.62 443.27 7.62 443.87 7.3 445.11 5.91 445.68 4.7 445.54 2.49 445.87 1 446.5 1 447.89 3.77 449.46 2.83 449.97 2.39 450.73 3.13 450.25 3.9 450.21 4.16 450.43 4.41 450.73 5.15 451.69 4.43 452.28 4.69 452.78 5.36 453.5 5.91 455.86 6.49 457.09 6.6 458.41 6.54 458.19 6.08 457.85 4.92 457.65 4.46 459.79 3.77 460.82 6.33 460.6 7.32 459.18 7.41 456.61 7.3 454.91 7.86 451.87 10.27 450.18 11.25 450.31 11.26 450.28 11.84 449.41 12.9 451.67 15.04 452.83 15.86 454.2 16.3 455.12 15.88 456.18 15.07 457.28 14.88 458.41 16.3 456.52 19.31 455.6 19.65 454.96 17.69 453.92 17.79 452.79 17.69 453.18 18.69 453.29 19.33 453.14 19.85 452.79 20.45 454.07 21.66 455.61 22.48 456.95 23.52 457.65 25.36 456.46 25.35 455.37 25.1 454.39 24.62 453.5 23.91 452.04 24.55 450.81 24.08 450.05 22.85 449.97 21.21 449.37 21.55 447.84 22.2 447.26 22.53 447.21 21.45 447.41 20.62 447.89 20.06 448.65 19.76 446.34 19.41 443.83 20.74 442.32 22.62 443.05 23.91 442.54 25.01 442.42 26.25 442.62 27.56 443.05 28.83 443.94 26.78 444.78 25.69 445.87 25.36 446.52 26.01 446.62 27.19 446.34 28.5 445.87 29.52 447.86 30.27 456.95 30.15 456.08 31.5 454.54 32.69 451.41 34.37 448.45 35.38 447.53 36.28 447.89 37.9 450.45 36.67 451.87 37.81 451.92 39.69 449.59 41.12 450.06 42.14 451.41 43.82 451.79 44.56 452.71 44.96 454.96 45.52 454.16 46 453.87 46.32 453.5 47.65 452 46.94 450.35 46.51 448.87 46.66 447.89 47.65 449.49 50.07 448.8 52.29 447.13 54.43 445.87 56.6 445.76 57.34 445.87 59.75 443.87 61.51 442.18 64.26 441.05 65.56 439.58 66.35 439.58 64.21 438.18 66.37 436.74 69.67 436.02 73.37 436.74 76.75 437.28 77.95 Z" fill-rule="evenodd" id="OMN-2425" data-name="Musandam"/>
<path d="M 739.61 355.62 739.6 355.63 737.24 358.56 730.54 365.42 697.19 361.34 666.76 342.24 671.49 319.2 645.85 294.93 623.92 297.65 623.87 297.62 621.28 287.61 624.52 273.15 624.34 273.11 624.36 272.86 624.8 272.06 624.8 272.06 625.22 272.14 631.47 274.57 633.2 274.91 634.94 275.61 638.67 279.09 640.52 280.45 644.05 281.51 648.75 282.06 653.66 281.99 657.82 281.2 660.04 280.44 660.93 279.77 661.67 277.9 662.54 277.87 664.48 278.37 668.82 278.45 671.13 278.87 673.2 279.82 674.09 281.09 676.12 285.13 677.01 285.99 677.52 286.18 677.97 286.62 678.37 287.11 678.73 287.44 678.96 287.38 679.52 287.3 680.25 287.29 680.89 287.44 682.33 288.56 683.13 289.42 683.58 290.22 684.34 290.22 684.97 288.83 685.21 289.38 685.41 289.71 685.6 290.12 685.73 290.9 686.42 290.9 686.54 290.47 687.04 289.51 687.59 289.96 687.91 290.08 689.18 289.51 691.62 292.55 692.32 294.22 691.95 295.75 692.76 297.15 693.8 301.78 695.11 303.75 701.06 308.87 704.72 310.41 706.16 312.23 707.9 316.6 708.88 318.19 711.95 320.92 713.49 322.96 714.34 328.95 720.8 335.05 721.22 335.87 721.81 338.89 722.24 339.6 722.71 340.08 725.54 342.2 730.94 345.12 734.37 347.51 736.88 350.29 738.68 353.43 739.61 355.62 Z" id="OMN-2426" data-name="Muscat"/>
<path d="M 411.53 153.52 411.94 155.69 409.51 154.09 408.2 153.48 406.78 153.16 405 153.65 404.67 154.93 405.4 156.43 409.18 159.56 412.17 166.55 415.27 168.82 416.71 169 416.62 173.14 430.08 189.05 440.04 220.03 440.69 228.82 437.24 238.92 425.24 238.92 410.41 241.75 404.76 245.28 404.76 253.75 398.4 256.58 394.16 261.52 397.7 276.35 390.63 280.59 377.22 284.12 366.62 289.77 352.7 288.48 356.04 275.89 356.96 274.18 361.7 267.73 362.13 266.38 361.81 258.69 361.35 255.77 359.72 253.55 356.04 251.52 354.34 250.1 353.45 248.27 353.86 246.79 358.22 246.04 362.53 244.53 364.5 243.54 367.48 242.04 370.25 241.01 373.14 240.52 376.51 240.59 379.81 241.11 381.37 241.07 383.04 240.49 384.87 240.2 387.51 242.09 389.4 242.3 401.21 237.87 407.63 236.42 408.75 234.81 404.99 228.61 403.79 224.31 402.19 220.66 399.15 219.5 393.46 221.61 391.75 221.52 385.4 220.24 384.18 219.69 384.03 218.15 384.83 216.38 388.78 209.96 389.43 208.48 389.78 203.57 389.55 202.72 388.79 201.82 386.75 200.56 386.1 199.85 385.78 198.31 386.01 192.81 386.01 192.81 384.74 188.53 384.6 186.39 385.63 184.99 387.06 183.57 387.69 180.17 390.53 177.79 390.19 175.82 388.68 172.73 388.15 171.64 387.94 169.78 388.38 166 388.38 164.09 387.53 156.3 388.59 153.16 391.66 149.6 394.55 147.2 394.98 146.84 398.52 144.79 402.42 143.87 406.52 144.44 406.78 144.47 409.54 146.05 410.69 149.05 411.53 153.52 Z" id="OMN-4836" data-name="Al Buraymi"/>
<path d="M 739.61 355.62 742.35 362.11 742.72 363.57 743.5 365.54 745.34 366.88 749.01 368.73 753.05 374.72 753.62 376.35 754.98 377.9 759.22 381.63 762.41 383.17 756.88 388.61 757.01 393.59 758.95 398.92 757.98 412.5 753.03 424.67 740.53 430.92 718.53 442.04 695.89 449.71 672.08 457.77 646.37 466.46 620.22 475.31 595.06 392.89 605.05 373.51 628.31 356.52 634.55 355.84 651.42 345.78 666.76 342.24 697.19 361.34 730.54 365.42 737.24 358.56 739.6 355.63 739.61 355.62 Z" id="OMN-5496" data-name="Ash Sharqiyah North"/>
<path d="M 624.8 272.06 624.8 272.06 624.36 272.86 624.34 273.11 624.52 273.15 621.28 287.61 623.87 297.62 601.76 314.47 598.7 320.73 572.69 324.65 568.81 322.9 557.09 321.65 527.02 293.38 539.52 289.62 552.67 279.31 564.46 260.34 569.91 262.59 575.87 264.32 580.09 265.04 582.42 265.15 589.28 264.77 591.15 265.15 594.05 268.66 595.13 269.43 597.59 270.03 600.48 271.38 603.02 271.68 616.25 271 620.67 271.25 624.8 272.06 Z" id="OMN-5497" data-name="Al Batnah South"/>
</g>
</svg>