<?xml version="1.0"?>
<svg xmlns="http://www.w3.org/2000/svg" version="1.2" baseProfile="tiny" width="800" height="690" viewBox="0 0 800 690" stroke-linecap="round" stroke-linejoin="round">
<g id="ne_10m_admin_1_states_provinces">
<path d="M 130.54 44.93 130.54 50.91 129.4 55.97 128.53 62.32 129.39 67.69 130.18 71.39 129.27 76.45 129.04 82.42 129.66 87.43 129.23 93.79 130.05 98.24 132.17 102.28 134.71 106.32 135.59 106.61 130.77 114.15 124.02 122.74 119.89 128.47 117.26 130.88 116.82 133.69 118.15 140.18 117.94 149.06 118.32 159.32 119.82 170.49 121.86 182.12 123.86 192.82 123.83 206.88 127.81 212.84 132.29 218.33 133.5 222.51 135.02 231.61 134.94 231.76 134.02 232.9 132.31 234.93 126.82 233.79 123.61 230.85 118.5 231.79 116.69 231.86 111.92 231.2 110.02 232.14 106.65 234.12 103.45 234.14 96.76 231.72 94.45 230.22 87.98 229.27 84.84 225.6 84.06 221.95 82.63 219.06 79.75 219.93 76.11 222.07 75.17 222.72 72.37 224.82 67.88 226.63 63.38 228.32 59.04 230.13 55.73 230.66 48.52 227.08 43.81 225.47 41.48 226.08 36.96 227.29 33 228.48 30.35 229.71 28.19 230.43 29.4 222.01 29.25 212.47 28.13 204.79 24.15 192.72 20.17 180.66 14.23 170.91 7.8 162.54 5.17 159.82 2.18 156.72 1 155.08 12.72 149.46 23.98 144.31 25.46 143.97 29.12 143.75 30.4 143.11 36.66 136.1 41.96 128.7 46.54 124.2 49.64 118.64 50.44 116.61 50.46 114.92 49.2 111.4 48.97 109.62 49.25 107.69 49.19 106.75 47.6 103.88 46.06 98.57 42.31 89.97 42.22 89.1 42.75 85.82 43.54 84.66 46.75 81.59 50.15 76.46 52.74 74.69 58.39 74.75 61.14 73.82 61.96 73.25 62.7 72.61 63.3 71.86 64.15 70.12 66.27 68.43 66.92 66.76 67.35 62.73 68.48 61.7 69.42 61.81 70.33 62.25 71.25 62.56 72.23 62.3 73.91 61.13 75.74 60.17 77.39 58.77 79.41 54.78 80.79 53.52 96.33 47.21 109.49 41.87 113 39.88 113.61 39.39 114 39.59 116.99 41.85 119.5 44.18 122.4 45.02 130.54 44.93 Z" id="LBY-2882" data-name="Ghadamis"/>
<path d="M 359.63 190.69 360.49 190.21 366.41 191.58 376.09 191.06 381.47 189.16 387.92 189.6 393.3 193.79 400.82 195.65 405.65 197.04 410.5 193.29 414.27 191.41 418.04 191.41 422.33 194.69 423.38 198.43 425.51 203.11 429.78 207.33 434.05 212.02 436.15 217.64 438.25 224.67 443.57 229.37 450.49 233.61 458.49 235.51 464.26 237.17 464.26 236.29 475.28 239.58 489.66 243.42 489.65 243.52 498.09 244.07 497.98 311.17 497.93 336.54 497.89 361.91 495.77 360.98 490.48 359.33 483.68 357.79 475.8 356.37 470.08 355.1 465.05 354.57 459.89 350.36 455.27 345.54 449.41 343.17 442.31 344.75 436.85 347.32 434.53 349.89 427.99 354.19 423.9 355.29 417.36 355.78 413.69 357.87 409.47 359.47 402.11 357.03 393.52 355.33 385.87 353.89 382.99 350.33 379.01 347.77 375.17 345.7 369.8 340.69 367.14 335.55 367.5 330.38 364.73 326.83 361.69 325.26 357.29 323.2 354.81 322.24 352.58 319.55 352.11 315.38 352.2 311.69 352.64 308.04 352.7 307.62 351.55 304.19 348.23 302.5 345.03 299.83 341.71 298.14 339.75 296.44 338.18 292.52 336.73 288.36 331.93 281.9 328.27 277.02 328.32 275.55 328.35 274.44 330.08 270.61 332.08 265.79 333.25 261.72 332.49 257.55 328.13 253.67 324.51 252.73 317.95 250.73 313.79 250.54 307.42 251.13 300.84 254.43 294.47 255.02 289.18 254.25 287.99 250.59 287.89 246.66 286.22 241.03 280.24 235.37 271.2 230.26 267.5 227.63 264.51 225.36 261.61 221.36 259.26 217.36 258.54 211.85 258.91 205.7 259.12 200.74 263.49 199.59 269.81 195.53 273.82 193.36 275.85 190.87 276.2 188.28 276.09 184.24 275.15 180.69 275.05 176.89 276.38 174.17 279.38 170.55 280.97 167.91 283.26 169.05 287.08 172.27 290.91 175.95 298.48 178.19 303.34 179.06 307.66 180.41 313.59 180.34 316.83 181.71 318.46 183.09 321.74 187.74 325.54 191.44 332.53 192.31 335.74 189.94 340.57 187.56 345.4 186.11 352.41 187.93 357.25 189.3 359.63 190.69 Z" id="LBY-2964" data-name="Al Jufrah"/>
<path d="M 790.2 563.48 790.2 569.74 790.19 576.01 790.19 582.27 790.19 588.53 790.19 594.8 790.19 601.06 790.18 607.33 790.18 613.59 790.18 619.86 790.18 626.12 790.18 632.39 790.18 638.65 790.17 643.43 790.17 648.21 790.17 652.99 790.16 657.78 790.16 663.39 790.16 663.71 790.12 663.79 790.07 663.86 790.02 663.94 789.98 664.01 789.86 664.03 789.75 664.04 789.64 664.05 789.53 664.06 784.47 664.06 777.13 664.06 770.99 664.06 764.72 664.05 758 664.05 752.32 664.05 748.02 664.04 739.92 664.04 739.92 670.32 739.92 676.59 739.92 682.87 739.92 689.15 733.71 686.08 727.5 683.01 721.29 679.95 715.08 676.88 708.87 673.81 702.65 670.75 696.44 667.67 690.23 664.61 684.02 661.54 677.81 658.48 671.6 655.41 665.39 652.34 659.18 649.27 652.97 646.21 646.76 643.14 640.55 640.07 634.33 637.01 628.12 633.94 621.91 630.88 615.7 627.8 609.49 624.74 603.28 621.67 597.06 618.6 590.86 615.54 584.64 612.47 578.44 609.4 572.23 606.34 566.01 603.27 559.8 600.2 553.59 597.14 547.38 594.07 541.17 591 534.96 587.94 528.74 584.87 522.54 581.8 516.32 578.74 510.11 575.67 503.9 572.6 498.78 570.07 498.78 566.13 498.78 565.6 498.78 565.08 498.78 564.55 498.78 564.02 498.78 563.49 498.77 562.96 498.77 562.43 498.77 561.9 498.66 536.9 498.55 511.9 498.44 486.91 498.33 461.91 498.22 436.91 498.11 411.91 498 386.91 497.89 361.91 497.93 336.54 497.98 311.17 515.06 311.11 532.14 311.05 554.11 310.89 576.08 310.72 606.25 311.08 636.41 311.44 665.8 311.26 695.19 311.08 724.61 310.62 754.02 310.16 772.58 309.74 790.17 309.34 790.2 309.34 790.2 318.86 790.2 328.69 790.2 343.36 790.2 358.04 790.2 372.72 790.2 387.38 790.2 402.06 790.2 416.73 790.2 431.41 790.2 446.08 790.2 460.75 790.2 475.43 790.2 490.11 790.2 504.78 790.2 519.45 790.2 534.13 790.2 548.8 790.2 563.48 Z" id="LBY-2965" data-name="Al Kufrah"/>
<path d="M 276.02 37.79 276.02 37.79 275.99 38.32 275.35 39.5 274.3 43.04 274.79 45.64 276.15 48.4 275.98 51.38 274.03 53.45 272.34 57.57 271.54 62.02 268.24 62.47 261.67 63.13 256.37 61.55 252.35 58.08 244.15 53.23 241.32 56.05 237.59 56.68 236.05 56.52 232.95 55.28 229.65 55.34 226.81 56.33 221.79 57.55 218.72 57.98 210.8 57.78 207.73 57.84 207.43 54.87 205.99 50.26 202.82 46.8 200.34 44.44 199.62 43.62 205.35 42.1 207.08 41.13 207.9 38.51 210.42 33.82 214.16 32.83 216.56 32.2 223.12 29.65 223.9 29.58 228.4 29.18 228.6 28.25 232.49 24.65 235.72 22.27 235.72 22.27 237.57 22.96 246.84 24.31 247.33 24.47 248.24 25.18 248.54 25.34 249.39 25.66 251.21 27.19 253.96 28.7 258.33 31.89 260.61 33.98 261.62 34.3 262.09 34.37 269.77 35.47 270.58 35.85 271.35 36.42 273.55 37.45 274.56 37.73 276.02 37.79 Z" id="LBY-2966" data-name="Al Marqab"/>
<path d="M 259.12 200.74 258.91 205.7 258.54 211.85 259.26 217.36 261.61 221.36 264.51 225.36 267.5 227.63 271.2 230.26 280.24 235.37 286.22 241.03 287.89 246.66 287.99 250.59 289.18 254.25 294.47 255.02 300.84 254.43 307.42 251.13 313.79 250.54 317.95 250.73 324.51 252.73 328.13 253.67 332.49 257.55 333.25 261.72 332.08 265.79 330.08 270.61 328.35 274.44 328.32 275.55 316.67 274.55 309.24 276.99 306.07 278.44 297.05 279.5 291.74 280.04 284.34 282.97 280.71 288.67 274.39 292.06 269.13 294.97 264.4 297.87 262.33 300.73 259.19 303.14 253.91 303.7 237.17 305.34 219.17 302.27 205.3 298.35 197.31 297.13 188.35 299.23 176.35 306.13 166.49 312.99 153.03 322.33 138.01 331.73 124.58 340.17 112.7 347.17 106 351.17 105.21 344.12 103.38 337.57 100.24 324.48 98.26 314.18 96.92 307.15 95.41 295.43 92.53 289.88 88.18 287.21 81.72 285.09 69.94 283.18 60.27 280.72 50.58 278.28 40.83 274.43 33.61 270.73 33.42 270.65 33.57 270.21 33.65 268.24 26.31 251 25.66 248.08 28.19 230.43 30.35 229.71 33 228.48 36.96 227.29 41.48 226.08 43.81 225.47 48.52 227.08 55.73 230.66 59.04 230.13 63.38 228.32 67.88 226.63 72.37 224.82 75.17 222.72 76.11 222.07 79.75 219.93 82.63 219.06 84.06 221.95 84.84 225.6 87.98 229.27 94.45 230.22 96.76 231.72 103.45 234.14 106.65 234.12 110.02 232.14 111.92 231.2 116.69 231.86 118.5 231.79 123.61 230.85 126.82 233.79 132.31 234.93 134.02 232.9 134.94 231.76 135.02 231.61 136.6 228.99 142.95 230.59 145.33 230.88 151.44 233.11 155.07 233.47 159.12 233.7 162.2 234.21 162.67 238.13 167.06 240.07 172.06 239.9 175.54 236.71 177.19 233.21 180.16 230.9 183.01 229.34 187.37 226.99 192.98 224.36 198.21 219.16 202.87 213.5 205.78 209.48 208.86 205.83 211.37 202.2 213.73 197.84 217.76 193.31 220.87 190.03 223.59 187.88 229.2 183.8 233.51 182.71 237.61 183.47 240.61 185 247.16 187.79 252.45 191.11 256.63 195.07 259.24 197.96 259.12 200.74 Z" id="LBY-2967" data-name="Ash Shati&apos;"/>
<path d="M 106 351.17 104.92 357.58 103.05 365.06 102.43 374.71 103.99 380.32 107.25 384.66 103.88 392.81 104.26 402.73 104.12 413.14 103.96 422.61 110.06 432.81 111.35 439.39 110.66 446.26 94.7 441.44 82.7 437.81 73.11 434.9 72.03 434.71 70.94 434.82 65.38 436.7 59.51 438.69 57.52 438.87 56.58 438.54 49.97 433.68 49.06 432.75 48.43 431 47.54 426.32 46.6 424.96 39.12 420.96 38.49 419.61 38.38 412.64 38.16 405.53 37.95 398.91 37.28 395.72 35.34 392.51 27.66 382.8 21.49 375 13.81 365.3 6.76 356.4 5.59 353.61 6.83 351.23 7.53 350.43 8.45 348.43 10.17 346.97 10.61 346.24 10.8 345.38 10.86 344.38 28.62 336.75 29.56 335.74 31.66 329.28 31.55 328.21 30.97 326.82 31.12 325.06 32.38 319.71 32.18 318.99 31.39 318.38 29.14 317.25 28.59 316.8 28.1 315.81 27.13 310.56 22.86 297.14 22.89 296.31 23.12 295.49 23.96 293.51 24.62 290.55 25.34 289.48 27.5 287.36 27.91 286.39 27.41 285.34 26.67 284.22 26.51 283.17 27.75 282.37 29.16 281.68 30 280.68 33.42 270.65 33.61 270.73 40.83 274.43 50.58 278.28 60.27 280.72 69.94 283.18 81.72 285.09 88.18 287.21 92.53 289.88 95.41 295.43 96.92 307.15 98.26 314.18 100.24 324.48 103.38 337.57 105.21 344.12 106 351.17 Z" id="LBY-2968" data-name="Ghat"/>
<path d="M 497.89 361.91 498 386.91 498.11 411.91 498.22 436.91 498.33 461.91 498.44 486.91 498.55 511.9 498.66 536.9 498.77 561.9 498.77 562.43 498.77 562.96 498.78 563.49 498.78 564.02 498.78 564.55 498.78 565.08 498.78 565.6 498.78 566.13 498.78 570.07 497.69 569.53 491.48 566.47 485.27 563.4 479.06 560.33 472.85 557.27 466.64 554.2 460.42 551.13 454.22 548.06 448 545 441.79 541.93 435.58 538.87 429.37 535.8 423.16 532.73 416.95 529.66 410.73 526.59 404.53 523.53 398.32 520.46 392.1 517.39 385.9 514.33 379.68 511.26 373.47 508.2 367.26 505.13 361.05 502.06 354.83 498.99 348.63 495.93 342.41 492.86 337.83 490.59 336.8 490.72 334.57 491.74 331.67 493.05 328.77 494.36 325.87 495.68 322.97 496.99 320.08 498.31 317.18 499.62 314.27 500.94 311.37 502.25 308.47 503.57 305.57 504.88 302.67 506.2 299.77 507.51 296.87 508.82 293.98 510.14 291.08 511.45 288.17 512.77 287.29 513.18 287.26 513.19 287.25 513.19 278.64 517.54 270.05 521.88 261.45 526.22 252.84 530.57 249.67 532.17 248.89 532.25 248.15 531.9 245.87 530.02 239.57 524.84 233.29 519.66 227 514.48 220.71 509.31 217.88 506.97 211.98 503.92 206.87 502.78 202.43 501.79 197.99 500.8 193.56 499.81 189.12 498.82 184.68 497.83 180.25 496.84 175.81 495.85 171.37 494.86 166.94 493.87 162.5 492.88 158.06 491.89 153.63 490.9 149.19 489.91 144.75 488.92 140.31 487.94 135.88 486.94 132.03 479.77 128.51 473.2 122.87 462.67 122.79 462.52 119.17 455.75 115.68 449.26 114.38 447.71 112.74 446.89 110.66 446.26 111.35 439.39 110.06 432.81 103.96 422.61 104.12 413.14 104.26 402.73 103.88 392.81 107.25 384.66 117.03 379.6 126.09 383.56 130.33 384.84 139.74 384.08 145.49 383.43 150.6 379.5 155.73 375.57 162.59 376.79 168.87 376.14 172.98 373.2 177.67 371.65 186 369.07 198.06 368.3 203.23 364.87 208.35 359.09 211.96 356.17 221.38 354.07 234.71 349.69 234.72 349.78 244.7 348.64 250.46 346.65 259.35 343.18 265.06 337.9 270.26 332.63 275.46 327.83 279.63 323.99 286.99 321.53 293.32 320.02 302.28 318.02 311.79 316.96 321.29 315.44 326.57 314.44 352.64 308.04 352.2 311.69 352.11 315.38 352.58 319.55 354.81 322.24 357.29 323.2 361.69 325.26 364.73 326.83 367.5 330.38 367.14 335.55 369.8 340.69 375.17 345.7 379.01 347.77 382.99 350.33 385.87 353.89 393.52 355.33 402.11 357.03 409.47 359.47 413.69 357.87 417.36 355.78 423.9 355.29 427.99 354.19 434.53 349.89 436.85 347.32 442.31 344.75 449.41 343.17 455.27 345.54 459.89 350.36 465.05 354.57 470.08 355.1 475.8 356.37 483.68 357.79 490.48 359.33 495.77 360.98 497.89 361.91 Z" id="LBY-2969" data-name="Murzuq"/>
<path d="M 345.49 97.55 345.49 97.55 345.22 98.05 344.35 99.83 344.4 108.2 346.62 115.63 349.93 126.32 352.15 136.09 353.82 145.41 357.65 154.71 362.01 164.96 363.66 172.89 365.29 179.42 364.23 184.57 359.63 190.69 357.25 189.3 352.41 187.93 345.4 186.11 340.57 187.56 335.74 189.94 332.53 192.31 325.54 191.44 321.74 187.74 318.46 183.09 316.83 181.71 313.59 180.34 307.66 180.41 303.34 179.06 298.48 178.19 290.91 175.95 287.08 172.27 283.26 169.05 280.97 167.91 281.54 166.95 284.84 163.95 287.28 160.11 287.41 154.34 286.83 147.97 285.79 140.39 281.49 137.71 281.19 137.53 277.32 135.89 266.21 133.28 260.72 129.84 256 128.1 248.66 124.71 245.92 118.89 241.33 109.07 234.7 98.45 233.82 97.62 231.05 96.09 227.86 94.46 222.37 88.6 219.53 85.12 217.9 79.78 215.57 75.19 212.36 69.77 210.49 62.36 207.73 57.84 210.8 57.78 218.72 57.98 221.79 57.55 226.81 56.33 229.65 55.34 232.95 55.28 236.05 56.52 237.59 56.68 241.32 56.05 244.15 53.23 252.35 58.08 256.37 61.55 261.67 63.13 268.24 62.47 271.54 62.02 272.34 57.57 274.03 53.45 275.98 51.38 276.15 48.4 274.79 45.64 274.3 43.04 275.35 39.5 275.99 38.32 276.02 37.79 276.02 37.79 283.83 38.08 294.07 39.64 296.34 40.35 297.45 40.51 298.15 40.8 300.03 42.94 301.86 43.86 302.53 44.44 302.99 46.27 303.42 47.28 304.52 49.12 306.63 51.61 306.93 52.4 306.84 53.46 306.38 55.26 306.24 57.3 306.16 58.46 306.46 62.14 306.93 63.95 312.96 77.25 314.17 79.08 319.62 85.68 322.87 88.67 326.59 91.16 340.83 96.83 345.49 97.55 Z" id="LBY-2970" data-name="Misratah"/>
<path d="M 328.32 275.55 328.27 277.02 331.93 281.9 336.73 288.36 338.18 292.52 339.75 296.44 341.71 298.14 345.03 299.83 348.23 302.5 351.55 304.19 352.7 307.62 352.64 308.04 326.57 314.44 321.29 315.44 311.79 316.96 302.28 318.02 293.32 320.02 286.99 321.53 279.63 323.99 275.46 327.83 270.26 332.63 265.06 337.9 259.35 343.18 250.46 346.65 244.7 348.64 234.72 349.78 234.71 349.69 234.61 344.6 236.61 338.9 242.31 334.07 245.37 328.35 244.79 325.54 242.09 322.76 239.91 319.04 240.3 312.43 239.14 307.27 237.17 305.34 253.91 303.7 259.19 303.14 262.33 300.73 264.4 297.87 269.13 294.97 274.39 292.06 280.71 288.67 284.34 282.97 291.74 280.04 297.05 279.5 306.07 278.44 309.24 276.99 316.67 274.55 328.32 275.55 Z" id="LBY-2971" data-name="Sabha"/>
<path d="M 199.62 43.62 200.34 44.44 197.26 44.69 195.53 45.66 190.26 46.34 185.86 46.45 178.66 47.31 179.17 43.45 178.85 39.93 182.59 32.23 183.99 30.1 186.18 26.76 191.41 24.41 191.57 24.13 195.93 27.75 196.47 31.9 197.28 37.26 197.16 40.8 199.62 43.62 Z" id="LBY-2973" data-name="Al Jifarah"/>
<path d="M 166.27 19.54 166.26 19.54 165.35 20.2 162.66 27.36 160.68 30.19 154.4 33.7 151.85 36.55 147.93 38.15 143.58 39.94 142.35 42.58 130.54 44.93 122.4 45.02 119.5 44.18 116.99 41.85 114 39.59 113.61 39.39 114.63 38.56 115.53 36.99 115.35 34.87 114.18 33.07 110.81 30.26 109.78 28.32 109.75 25.55 110.48 20.25 110.12 15.04 111.02 11.63 111.04 8.81 111.17 8.04 112.61 3.26 112.56 1 112.56 1 113.6 1.22 115.33 1.77 116.07 2.17 116.71 3.46 117.48 4 119.13 4.65 125.21 5.46 127.06 6.05 126.03 5.12 122.75 4.22 121.91 3.28 124.33 4.43 129.75 5.95 141.5 12.23 143.6 14.07 145.52 14.55 148.75 16.35 152.73 18 154.96 18.53 166.27 19.54 Z" id="LBY-2974" data-name="An Nuqat al Khams"/>
<path d="M 191.57 24.13 191.41 24.41 186.18 26.76 183.99 30.1 182.59 32.23 178.85 39.93 179.17 43.45 178.66 47.31 174.45 47.82 172.06 48.31 170.08 48.7 166.31 47.68 162.09 46.68 157.64 45.13 152.14 45.46 144.65 45.3 130.54 44.93 142.35 42.58 143.58 39.94 147.93 38.15 151.85 36.55 154.4 33.7 160.68 30.19 162.66 27.36 165.35 20.2 166.26 19.54 166.27 19.54 174.14 20.24 178.9 19.95 191.47 16.83 192.92 16.28 192.92 16.28 192.95 16.62 192.98 16.95 193.31 21.03 191.57 24.13 Z" id="LBY-2975" data-name="Az Zawiyah"/>
<path d="M 207.73 57.84 210.49 62.36 212.36 69.77 215.57 75.19 217.9 79.78 219.53 85.12 222.37 88.6 227.86 94.46 231.05 96.09 233.82 97.62 234.7 98.45 241.33 109.07 245.92 118.89 248.66 124.71 256 128.1 260.72 129.84 266.21 133.28 277.32 135.89 281.19 137.53 281.49 137.71 285.79 140.39 286.83 147.97 287.41 154.34 287.28 160.11 284.84 163.95 281.54 166.95 280.97 167.91 279.38 170.55 276.38 174.17 275.05 176.89 275.15 180.69 276.09 184.24 276.2 188.28 275.85 190.87 273.82 193.36 269.81 195.53 263.49 199.59 259.12 200.74 259.24 197.96 256.63 195.07 252.45 191.11 247.16 187.79 240.61 185 237.61 183.47 233.51 182.71 229.2 183.8 223.59 187.88 220.87 190.03 217.76 193.31 213.73 197.84 211.37 202.2 208.86 205.83 205.78 209.48 202.87 213.5 198.21 219.16 192.98 224.36 187.37 226.99 183.01 229.34 180.16 230.9 177.19 233.21 175.54 236.71 172.06 239.9 167.06 240.07 162.67 238.13 162.2 234.21 159.12 233.7 155.07 233.47 151.44 233.11 145.33 230.88 142.95 230.59 136.6 228.99 135.02 231.61 133.5 222.51 132.29 218.33 127.81 212.84 123.83 206.88 123.86 192.82 121.86 182.12 119.82 170.49 118.32 159.32 117.94 149.06 118.15 140.18 116.82 133.69 117.26 130.88 119.89 128.47 124.02 122.74 130.77 114.15 135.59 106.61 134.71 106.32 132.17 102.28 130.05 98.24 129.23 93.79 129.66 87.43 129.04 82.42 129.27 76.45 130.18 71.39 129.39 67.69 128.53 62.32 129.4 55.97 130.54 50.91 130.54 44.93 144.65 45.3 152.14 45.46 157.64 45.13 162.09 46.68 166.31 47.68 170.08 48.7 172.06 48.31 174.45 47.82 178.66 47.31 185.86 46.45 190.26 46.34 195.53 45.66 197.26 44.69 200.34 44.44 202.82 46.8 205.99 50.26 207.43 54.87 207.73 57.84 Z" id="LBY-2976" data-name="Mizdah"/>
<path d="M 235.72 22.27 235.72 22.27 232.49 24.65 228.6 28.25 228.4 29.18 223.9 29.58 223.12 29.65 216.56 32.2 214.16 32.83 210.42 33.82 207.9 38.51 207.08 41.13 205.35 42.1 199.62 43.62 197.16 40.8 197.28 37.26 196.47 31.9 195.93 27.75 191.57 24.13 193.31 21.03 192.98 16.95 192.95 16.62 192.92 16.28 192.92 16.28 193.54 16.04 195.16 14.94 196.01 14.5 197.17 14.32 200.66 14.2 205.42 14.93 205.99 15.16 206.51 15.54 216.46 20.03 218.75 20.5 227.31 20.19 229.48 20.47 233.75 21.54 235.72 22.27 Z" id="LBY-2978" data-name="Tajura&apos; wa an Nawahi al Arba"/>
<path d="M 607.96 21.16 607.96 21.16 608.07 21.39 608.5 21.42 608.92 21.22 609.4 21.19 609.48 21.15 609.85 21.77 613.04 25.3 613.21 28.54 609.53 31.71 606.69 34.67 606.84 38.83 608.33 43.96 611.47 48.88 613.24 53.78 616.43 56.85 621.79 60.44 623.28 65.11 623.61 71.84 623.17 76.71 621.12 81.08 620.93 86.88 622.91 92.97 624.2 95.32 625.8 96.51 626.07 107.38 622.95 108.51 609.99 109.03 606.05 108.92 604.53 96.79 602.19 92.8 601.26 87.66 600.83 83.48 597.37 80.63 594.62 81.27 588.6 81.63 582.07 80.83 578.24 81 574.1 82.56 567.3 81.53 565.18 78.94 563.13 73.58 560.49 69.59 557.34 63.98 555.27 58.62 555.36 54.91 557.68 49.39 561.36 45.04 565.83 41.63 568.11 38.42 568.81 32.88 568.81 32.85 568.69 32.1 568.69 32.1 579.77 28.06 586.69 24.06 592.57 21.56 594.87 21.12 604.43 21.62 606.69 21.44 607.96 21.16 Z" id="LBY-2981" data-name="Al Marj"/>
<path d="M 639.6 14.48 639.59 14.48 639.33 15.08 639.28 15.08 639.17 18.21 638.75 22.36 639.99 26.09 641.54 28.9 641.96 32.61 641.31 35.37 639.81 39.04 639.13 42.73 638.24 44.33 639.19 48.76 639.3 53.16 640.51 57.82 640.22 65.93 640.32 71.04 639.85 76.6 638.66 79.36 638.65 87.49 637.7 91.19 636.15 96.5 645.95 104.65 638.86 105.28 629.87 106 626.07 107.38 625.8 96.51 624.2 95.32 622.91 92.97 620.93 86.88 621.12 81.08 623.17 76.71 623.61 71.84 623.28 65.11 621.79 60.44 616.43 56.85 613.24 53.78 611.47 48.88 608.33 43.96 606.84 38.83 606.69 34.67 609.53 31.71 613.21 28.54 613.04 25.3 609.85 21.77 609.48 21.15 609.4 21.19 608.92 21.22 608.5 21.42 608.07 21.39 607.96 21.16 607.96 21.16 610.86 20.5 612.86 19.54 620.61 13.6 621.34 13.29 623.78 13.14 626.02 12.61 627.4 13.59 629.6 14.34 632.05 14.81 634.13 14.98 639.6 14.48 Z" id="LBY-2982" data-name="Al Jabal al Akhdar"/>
<path d="M 606.05 108.92 609.99 109.03 622.95 108.51 626.07 107.38 629.87 106 638.86 105.28 645.95 104.65 653.31 103.38 657.18 106.32 663.25 111.05 666.03 116.04 671.43 119.28 674.95 119.89 680.01 121.16 684.98 121.09 689.01 120.77 689.07 120.77 689.13 120.76 689.2 120.76 689.25 120.75 690.3 121.12 691.35 121.5 692.4 121.88 693.44 122.25 693.51 155.32 693.57 188.39 693.63 221.46 693.7 254.53 717.57 255.02 741.44 255.51 765.31 256 789.18 256.48 789.67 256.57 790.16 256.67 790.17 256.67 790.2 256.67 790.2 260.6 790.2 278.3 790.2 280.25 790.2 287.91 790.2 304.88 790.2 309.34 790.17 309.34 772.58 309.74 754.02 310.16 724.61 310.62 695.19 311.08 665.8 311.26 636.41 311.44 606.25 311.08 576.08 310.72 554.11 310.89 532.14 311.05 515.06 311.11 497.98 311.17 498.09 244.07 489.65 243.52 489.66 243.42 475.28 239.58 464.26 236.29 464.29 217.49 464.98 202.97 468.31 192.69 474.31 185.23 476.02 177.76 475.04 169.34 475.68 160.94 477.42 151.14 478.88 142.33 478.88 142.33 485.71 146.21 487.83 147 492.29 147.58 496.78 147.66 501.49 147.19 504.1 146.53 506.46 145.94 510.5 144.21 516.11 141.01 517.14 140.6 519.41 140.25 520.43 139.78 527.09 135.27 535.41 126.63 537.62 123.27 538.82 121.81 540.66 120.55 541.55 119.78 544.74 113.95 547.09 108.39 547.38 106.25 547.09 99.78 546.84 99.43 547.44 99.2 547.28 98.75 547.14 98.53 546.55 98.02 546.4 97.57 549.23 97.47 554.76 99.03 556.97 101.89 560.71 106.24 566.05 109.4 569.57 110.33 576.83 109.99 586.69 108.36 606.05 108.92 Z" id="LBY-2983" data-name="Ajdabiya"/>
<path d="M 606.05 108.92 586.69 108.36 576.83 109.99 569.57 110.33 566.05 109.4 560.71 106.24 556.97 101.89 554.76 99.03 549.23 97.47 546.4 97.57 546.55 98.02 547.14 98.53 547.28 98.75 547.44 99.2 546.84 99.43 546.16 98.46 544.91 95.16 543.85 93.76 541.65 91.78 540.84 90.73 537.45 82.55 537.15 80.46 537.11 78.24 536.92 77.42 536.05 75.52 535.73 74.59 535.56 72.5 535.68 70.22 536.42 66.01 537.11 64.12 537 63.62 536.79 63.07 536.71 62.52 536.93 62.03 537.57 61.27 542.14 53.05 543.32 51.53 552.88 43.32 553.66 42.25 556.09 39.79 557.1 39.28 559.11 38.54 560 37.9 560.68 37.29 568.01 32.35 568.69 32.1 568.69 32.1 568.81 32.85 568.81 32.88 568.11 38.42 565.83 41.63 561.36 45.04 557.68 49.39 555.36 54.91 555.27 58.62 557.34 63.98 560.49 69.59 563.13 73.58 565.18 78.94 567.3 81.53 574.1 82.56 578.24 81 582.07 80.83 588.6 81.63 594.62 81.27 597.37 80.63 600.83 83.48 601.26 87.66 602.19 92.8 604.53 96.79 606.05 108.92 Z" id="LBY-2984" data-name="Benghazi"/>
<path d="M 478.88 142.33 478.88 142.33 477.42 151.14 475.68 160.94 475.04 169.34 476.02 177.76 474.31 185.23 468.31 192.69 464.98 202.97 464.29 217.49 464.26 236.29 464.26 237.17 458.49 235.51 450.49 233.61 443.57 229.37 438.25 224.67 436.15 217.64 434.05 212.02 429.78 207.33 425.51 203.11 423.38 198.43 422.33 194.69 418.04 191.41 414.27 191.41 410.5 193.29 405.65 197.04 400.82 195.65 393.3 193.79 387.92 189.6 381.47 189.16 376.09 191.06 366.41 191.58 360.49 190.21 359.63 190.69 364.23 184.57 365.29 179.42 363.66 172.89 362.01 164.96 357.65 154.71 353.82 145.41 352.15 136.09 349.93 126.32 346.62 115.63 344.4 108.2 344.35 99.83 345.22 98.05 345.49 97.55 345.49 97.55 356.62 99.26 375.19 99.43 385.95 101.46 396.93 104.71 405.49 106.33 407.27 106.33 407.72 106.5 408.08 106.72 409.92 107.56 411.36 108.73 411.89 109 412.34 109.17 419.74 111.06 423.65 112.71 427.89 113.94 431.54 114.52 432.2 115.02 433.58 116.82 434.5 117.55 435.47 117.96 440 118.83 447.97 121.44 449.63 122.29 451 123.41 455.46 127.94 467.73 135.82 470.49 138.55 472 139.73 475.32 141.28 477.42 141.65 478.4 142.06 478.88 142.33 Z" id="LBY-2985" data-name="Surt"/>
<path d="M 703.21 49.5 703.21 49.5 703.14 49.83 701.52 54.26 699.06 60.22 696.53 68.04 695.87 77.08 694.16 84.93 689.84 90.39 688.39 98.95 688.34 106.63 689 110.37 689.01 120.77 684.98 121.09 680.01 121.16 674.95 119.89 671.43 119.28 666.03 116.04 663.25 111.05 657.18 106.32 653.31 103.38 645.95 104.65 636.15 96.5 637.7 91.19 638.65 87.49 638.66 79.36 639.85 76.6 640.32 71.04 640.22 65.93 640.51 57.82 639.3 53.16 639.19 48.76 638.24 44.33 639.13 42.73 639.81 39.04 641.31 35.37 641.96 32.61 641.54 28.9 639.99 26.09 638.75 22.36 639.17 18.21 639.28 15.08 639.33 15.08 639.59 14.48 639.6 14.48 645.13 13.98 645.38 13.81 645.91 13.08 646.16 12.92 647.27 12.75 647.81 12.73 648.4 12.92 648.81 13.22 648.89 13.49 648.89 13.82 649.09 14.32 650.69 15.74 652.73 16.1 657.37 16.04 659.36 16.63 664.29 19.81 665.27 20.31 666.13 20.62 667.05 20.8 669.4 20.94 681.15 23.97 683.87 25.49 684.77 25.71 685.34 25.79 687.01 26.37 687.69 26.45 689.41 26.37 690.56 26.68 692.65 27.59 694.92 27.89 695.91 28.22 696.54 28.75 696.66 29.46 696.37 29.98 695.5 30.9 695.32 31.36 695.8 34.43 696.27 35.21 697.04 35.83 698.06 36.36 697.66 37.34 697.03 40.51 696.04 40.17 696.21 39.68 696.1 39.26 695.77 38.87 695.32 38.45 694.55 42.57 694.63 43.6 695.38 44.13 698.44 45.13 699.57 45.31 700.38 45.73 701.36 46.7 702.18 47.79 702.82 49.3 703.21 49.5 Z" id="LBY-2986" data-name="Al Qubbah"/>
<path d="M 798.73 77.67 795.59 79.83 794.18 81.55 792.34 85.82 784.17 91.56 783.55 93.15 783.53 94.99 784.03 99.22 784.08 103.34 785.24 108.72 785.59 109.73 787.35 112.86 788.01 115.42 790.2 119.46 790.89 121.49 790.57 123.22 789.81 124.95 789.19 126.96 788.66 129.73 787.14 133.19 786.97 134.19 786.5 135.89 785.52 137.62 782.58 141.48 781.06 142.82 779.7 144.32 779.22 145.02 778.38 146.75 776.29 150.01 775.49 151.78 775.47 153.72 775.92 154.8 777.34 157.03 781.67 166.45 781.9 167.58 781.84 168.58 781 171.2 781.33 173.3 783.91 177.08 784.64 179.15 784.63 180.38 784.18 184.02 784.3 185.96 784.79 187.7 788.96 196.53 789.85 199.24 790.2 202.13 790.2 208.34 790.2 216.77 790.2 236.82 790.2 256.67 790.17 256.67 790.16 256.67 789.67 256.57 789.18 256.48 765.31 256 741.44 255.51 717.57 255.02 693.7 254.53 693.63 221.46 693.57 188.39 693.51 155.32 693.44 122.25 692.4 121.88 691.35 121.5 690.3 121.12 689.25 120.75 689.2 120.76 689.13 120.76 689.07 120.77 689.01 120.77 689 110.37 688.34 106.63 688.39 98.95 689.84 90.39 694.16 84.93 695.87 77.08 696.53 68.04 699.06 60.22 701.52 54.26 703.14 49.83 703.21 49.5 703.21 49.5 703.51 49.65 704.31 49.85 704.93 50.15 705.32 50.73 705.78 51.81 706.27 52.21 706.18 51.38 705.61 49.12 706.58 49.44 708.78 49.48 709.22 49.64 710.63 50.64 710.95 50.81 717.28 51.28 724.25 51.18 732.83 52.9 740.79 55.68 739.61 56.67 739.39 57.05 739.79 57.27 741.1 57.74 744.27 59.84 745.42 60.11 754.98 60.02 768.32 60.83 772.85 59.65 773.97 58.96 774.56 58.77 776.59 59.11 776.99 59.01 777.38 58.82 777.75 58.73 778.16 58.94 778.36 59.08 778.98 59.39 779.68 59.56 780.67 60.01 782.31 60.25 784.37 60.93 790.22 62.01 792.04 62.96 792.82 64.6 792.37 66.6 792.26 67.7 792.63 68.6 794.35 70.25 797.02 73.57 797.28 74.43 798.02 75.86 799 77.34 798.81 77.5 798.73 77.67 Z" id="LBY-2987" data-name="Al Butnan"/>
<path d="M 237.17 305.34 239.14 307.27 240.3 312.43 239.91 319.04 242.09 322.76 244.79 325.54 245.37 328.35 242.31 334.07 236.61 338.9 234.61 344.6 234.71 349.69 221.38 354.07 211.96 356.17 208.35 359.09 203.23 364.87 198.06 368.3 186 369.07 177.67 371.65 172.98 373.2 168.87 376.14 162.59 376.79 155.73 375.57 150.6 379.5 145.49 383.43 139.74 384.08 130.33 384.84 126.09 383.56 117.03 379.6 107.25 384.66 103.99 380.32 102.43 374.71 103.05 365.06 104.92 357.58 106 351.17 112.7 347.17 124.58 340.17 138.01 331.73 153.03 322.33 166.49 312.99 176.35 306.13 188.35 299.23 197.31 297.13 205.3 298.35 219.17 302.27 237.17 305.34 Z" id="LBY-5488" data-name="Wadi al Hayaa"/>
</g>
</svg>