<?xml version="1.0"?>
<svg xmlns="http://www.w3.org/2000/svg" version="1.2" baseProfile="tiny" width="800" height="1367" viewBox="0 0 800 1367" stroke-linecap="round" stroke-linejoin="round">
<g id="ne_10m_admin_1_states_provinces">
<path d="M 256.12 493.08 272.17 508.17 290 518.78 289.44 523.61 288.95 526.16 287.69 528.55 281.8 537.12 278.16 540.66 270.35 546.36 266.35 547.61 262.85 547.26 258.5 544.49 256.54 543.81 255.49 545.12 255 546.87 254.02 548.65 251.84 549.78 233.17 555.49 219.97 562.48 215.27 564.28 211.41 565.17 206.02 565.05 203.21 563.91 201.39 561.11 200.34 558.8 199.22 557.46 197.95 556.43 195.9 555.12 194.35 553.03 193.44 550.9 191.97 543.37 190.64 540.77 188.89 539.73 186.57 541.87 185.24 544.28 183.07 546.38 180.33 547.41 171.08 545.57 159.28 547.57 158.37 573.19 158.72 578.52 161.31 582.96 163.76 584.84 168.18 586.3 169.16 588.38 169.23 591.81 168.32 599.55 168.74 605.16 168.39 610.46 167.06 615.39 164.33 618.76 152.55 626.49 143.55 638.99 135.07 634.48 122.66 630.5 111.42 631.54 111.31 631.55 110.13 624.21 105.42 616.32 98.69 610.74 91.4 608.65 81.5 608.65 73.18 607.47 67.44 603.46 65.31 594.9 65.31 576.22 63.76 572.21 57.06 567.52 55.81 562.33 61.77 568.28 71.86 567.85 79.29 561.58 77.38 549.97 88.09 545.44 99.24 538.54 108 529.16 111.6 517.16 110.5 509.67 107.33 506.82 102.44 505.69 96.15 503.39 89.63 498.68 82.38 489.41 77.38 484.61 116.79 488.6 129.6 485.66 129.6 485.66 130.93 486.45 145.23 492.35 146.87 489.63 147.76 488.99 149.32 488.44 156.19 487.8 166.29 484.7 168.88 484.85 176.55 488.43 178.51 489.76 182.37 493.5 184.82 495.28 188.11 496.95 193.79 497.43 200.9 496.81 214.99 493.41 220.6 490.3 223.57 487.47 224.2 485.65 225.25 484.01 227.91 482.54 230.16 482.63 232.61 483.82 236.68 487.61 240.88 490.58 244.25 492.45 256.12 493.08 Z" id="ALB-1494" data-name="Durrës"/>
<path d="M 181.38 723.73 180.61 726.46 180.82 728.3 181.67 731.28 183.77 735.32 187.55 738.99 194.07 741.91 205.1 744.32 221.37 743.36 225.88 744.06 230.58 746.89 233.8 748.24 237.24 748.09 239.13 747.72 245.16 749.56 244.6 758.27 241.09 763.6 240.74 765.12 241.86 775.91 241.79 778.19 239.83 786.19 239.76 788.65 240.11 791.27 241.16 793.96 245.3 800.22 249.22 803.28 251.91 804.85 270.14 808.86 272.45 811.08 272.97 812.13 273.53 813.89 272.17 815.91 271.05 817.06 256.47 816.74 251.84 817.65 249.6 815.69 247.64 813.28 246.42 812.53 245.37 812.37 240.39 814.28 233.52 816.12 230.16 817.39 228.12 818.45 226.93 820.77 224.9 823.75 224.76 825.07 225.11 826.25 225.25 827.21 223.71 829.38 223.57 830.92 223.89 832.58 223.75 834.1 221.74 834.64 219.48 834.31 208.96 834.36 208.26 839.1 208.4 841.1 209.59 844.48 211.83 848.29 220.32 856.91 222.02 860.04 221.46 864.4 219.27 868.78 218.99 870.28 218.99 872.1 219.41 875.28 219.97 877.5 221.93 879.34 227.77 881.66 231.56 882.64 235.34 884.53 237.59 886.07 240.46 895.56 252.82 906.45 255.14 909.96 254.3 913.88 250.51 916.81 247.07 918.92 244.04 920.1 243.2 920.71 243.62 921.1 245.79 921.38 248.1 922.67 250.3 925.5 256.96 939.42 261.87 944.42 272.73 950.16 279 951.86 283.06 953.97 284.68 955.03 287.2 963.1 280.89 963.76 278.72 964.76 276.4 966.86 273.67 970.93 270.7 974.1 267.69 976.85 254.02 985.3 251 988.15 238.08 1008.29 236.47 1010.21 235.48 1011.21 229.1 1010.28 223.05 1009.16 218.56 1009.74 215.13 1008.9 212.33 1007.02 211.41 1005.3 211.41 1003.48 212.18 1001.75 212.82 999.55 212.96 997.33 211.62 992.39 211.41 990.81 211.97 989.41 212.68 984.81 212.68 982 211.69 980.65 210.01 979.83 203.28 978.81 202.58 978.15 202.51 977.48 203 976.95 203.77 976.43 204.4 974.94 204.68 972.76 203.98 968.61 202.37 966.29 199.57 963.62 197.81 962.75 195.99 962.44 194.85 962.68 193.65 963.1 192.39 962.89 190.15 961.9 187.27 960.13 185.03 959.22 183.21 959.03 181.38 959.18 179.7 959.1 176.62 957.98 163.83 951.04 155.42 951.1 149.39 950.2 146.03 948.83 141.8 949.1 139.48 948.54 137.94 947.65 136.54 943.26 135.56 941.55 135.91 940.6 135.63 939.96 134.79 939.38 132.75 938.92 130.51 938.91 127.08 939.76 124.13 939.66 122.1 939.1 120.98 937.41 120.7 936.22 120.84 934.84 120.74 933.72 119.34 932.37 116.68 930.88 105.95 926.68 101.53 925.66 97.4 925.43 95.08 924.51 94.15 922.22 94.57 920.55 94.15 918.91 92.4 917.29 87.35 914.91 84.47 913.18 82.72 911.53 82.58 910.28 82.72 909.29 82.72 908.02 81.67 907.27 79.29 907.36 68.54 911.01 64.05 911.54 57.04 908.16 47.43 905.26 41.03 904.07 34.44 903.66 27.15 905.59 15.89 906.4 15.77 906.41 15.62 906.19 17.87 900.81 24.02 896.36 31.3 892.2 36.97 887.64 41.02 880.57 42.82 873.01 43.3 846.13 44.77 838.8 48.82 833.91 57.17 832.07 61.92 830.39 60.71 826.53 57.39 822.28 55.81 819.46 57.8 815.82 61.04 812.16 64.02 809.43 65.31 808.64 61.7 803.45 54.85 796.7 50.37 790.81 54.27 788.31 61.11 786.34 69.98 776.63 77.38 772.56 71.08 777.9 74.87 788.49 71.19 797.55 71.19 807.1 74.58 807.1 75.98 800.64 75.91 802.04 76.57 803.56 77.38 807.1 83.34 800.97 107.08 792.25 114.69 785.22 115.47 774.09 110.72 765.2 104.76 757.03 102.03 748.14 100.49 759.75 94.89 770.17 83.23 783.71 83.04 781.72 80.47 779.04 85.33 775.28 90.52 768.9 93.79 760.64 92.76 751.23 90.52 749.01 83.19 746.69 80.58 745.12 80.62 745.04 85.53 735.57 86.44 734.83 87.84 733.99 89.17 734.13 91.55 733.26 91.84 731.93 91.34 730.48 89.52 728.19 89.87 728.02 90.92 727.96 93.31 727.52 94.8 727.73 96.49 728.87 100.13 732.81 102.8 733.75 104.69 733.02 106.37 731.39 108.89 728.33 111 727.19 113.31 726.97 115.27 727.63 117.17 728.05 124.13 728.23 128.62 727.77 132.33 726.04 140.12 721.26 144.6 719.15 147.99 717.98 149.6 718.17 152.9 719.48 156.4 719.9 156.89 720.13 157.31 720.6 158.02 721.02 162.5 721.02 163.83 721.51 164.61 722.26 166.99 722.65 169.44 721.88 177.25 718.31 179.63 717.55 180.82 717.48 181.67 717.77 182.37 718.4 182.58 719.52 182.51 720.43 181.38 723.73 Z" id="ALB-1495" data-name="Fier"/>
<path d="M 215.74 30.79 216.13 35.33 215.34 34.86 213.24 37.36 209.87 42.7 209.08 45.89 208.24 52.73 208.52 55.79 210.06 59.98 217.86 73.99 232.73 82.51 240.39 85.42 248.62 86.17 252.9 85.15 250.09 89.71 248.8 91.18 247.07 92.9 245.37 94.24 243.76 95.88 242.56 97.7 240.6 102.12 239.13 103.99 234.92 106.97 234.15 108.29 234.85 109.85 242 116.49 243.27 119.22 244.25 123.01 244.74 134.51 244.11 138.13 244.39 143.43 246.07 150.58 251.98 165.98 253.59 172.13 253.73 176.03 252.75 177.42 252.4 178.77 252.47 180.71 252.19 182.34 251.14 186.07 249.67 189.22 250.58 191.06 253.59 192.68 259.97 195.35 271.4 196.28 273.71 193.98 274.93 193.47 276.54 193.02 278.44 192.74 280.82 192.04 283.55 190.59 290.07 185.58 293.02 184.03 295.89 183.28 322.67 184.19 330.36 178.62 340.99 179.7 346.91 181.1 398.27 199.64 409.04 199.12 412.32 199.64 414.96 201.19 416.8 203.25 419.12 205.03 423.11 205.81 436.74 210.13 440.03 217.75 435.33 224.57 427.41 229.38 421.71 232.03 417.64 234.36 414.35 236.93 402.22 249.96 400.79 253.5 403.06 257.1 403.9 260.14 401.36 266.16 394.77 273.01 394.63 273.88 399.77 273.62 403.27 272.57 406.36 271.17 408.95 270.86 412.04 272.57 415.82 277.05 426.36 284.36 408.11 297.15 379.27 307.95 374.01 310.59 370.06 313.79 366.28 322.91 362 327.6 357.87 330.24 351 333.28 340.88 340.76 337.72 344.04 332.46 351.37 330.01 352.83 326.44 353.53 309.03 353.11 305.03 352.07 302.65 350.45 300.75 348.38 300.33 346.5 300.96 344.73 304.75 342.02 305.66 340.78 305.59 339.08 304.54 337.09 295.75 328.83 293.86 326.6 290.49 319.94 289.23 315.19 288.39 313.07 285.73 311.18 282.85 311.04 278.08 312.04 272.83 314.42 268.53 318.21 263.97 321.27 260.89 324.12 258.5 325.55 255.07 326.34 251.28 326.22 244.39 324.4 240.88 322.43 237.73 321.31 234.92 321.41 226.23 324.73 212.33 325.27 217.58 333.8 218.07 335.57 217.58 337.11 215.97 338.8 212.68 341.16 208.96 343.24 204.89 344.46 199 342.7 190.85 337.72 187.27 336.13 183.42 335.82 166.92 337.75 163.27 337.63 159.21 335.97 157.6 335.06 156.89 333.63 157.17 331.76 158.86 329.61 160.26 328.12 160.82 327.09 160.26 326.22 158.86 325.87 153.81 325.83 151.01 325.38 148.41 324.36 146.73 323.28 145.37 322.64 143.76 322.43 136.19 323.3 131.28 324.82 133.31 326.79 135.68 331.86 137.17 341.06 131.91 345.38 125.53 346.91 117.66 344.39 102.16 337.35 96.11 335.51 91.98 336.04 88.47 339.57 87.07 344.73 88.82 350.2 116.12 366.37 117.42 371.3 117.45 371.41 88.49 362.48 82.01 359.28 73.77 356.54 43.1 363.88 42.69 359.14 43.02 347.31 39.42 342.5 35.21 339.46 34.14 337.66 34.42 335.79 34.18 332.76 34.74 330.5 36.47 328.15 37.55 324.93 34.65 314.51 36.99 312.87 40.68 312.5 43.39 310.81 45.77 303.19 42.46 300.06 42.32 299.99 38.16 293.18 36.52 284.53 37.03 275.58 39.23 267.81 47.5 254.31 46.43 249.97 45.3 248.95 38.53 242.83 12.64 228.53 5.53 222.7 5.49 222.63 1 215.41 2.31 210.62 6.12 207.56 15.72 199.85 59.05 149.74 59.47 147.41 59.19 141.21 60.08 137.93 64.33 130.52 66.67 127.94 89.8 108.04 95.83 100.63 104.76 96.27 112.14 89.99 118.41 82.42 123.87 73.99 123.87 73.92 126.4 67.12 131.82 63.66 138.32 60.91 143.92 56.15 146.45 50.74 148.97 38.88 151.59 32.64 159.16 23.53 170.99 13.2 175.56 10.14 183.7 4.68 194.21 1 204.54 4.95 211.51 14.75 215.34 26.29 215.74 30.79 Z" id="ALB-1498" data-name="Shkodër"/>
<path d="M 359.57 49.86 368.92 57.44 391.49 66.65 399.11 73.85 399.21 73.85 399.21 73.9 399.25 73.98 399.25 73.99 411.96 96.74 414.44 99.3 420.52 103.66 422.76 107.14 422.62 110.88 417.95 116.19 417.39 119.08 419.49 121.91 426.55 126.4 429.16 129.14 430.24 132.64 429.44 138.75 430.1 141.96 434.03 149.37 437.72 152.44 443.09 153.04 473.99 152.49 480.95 153.37 536.85 183.84 544.4 189.89 548.02 192.79 556.66 201.6 573.77 229.23 578.63 241.28 579.8 249.27 579.89 263.75 582.65 272.2 596.86 299.99 598.96 309 601.21 314.95 601.21 320.69 596.44 328.96 592.75 332.51 589.47 334.35 586.72 336.83 584.57 342.29 584.66 345.57 586.95 351.15 586.67 354.47 575.17 359.71 574.75 367.27 574.59 367.26 570.69 367 562.9 368.83 555.47 369.9 527.45 366.05 518.13 366.27 513.15 367.03 513.22 368.46 514.55 369.73 515.82 371.16 513.99 373.2 509.37 375.32 503.06 377.04 491.93 378.22 492.59 374.79 489.71 368.24 477.05 353.94 474.34 345.31 475.01 343.89 465.92 343.24 459.33 345.39 456.46 347.93 453.87 351 450.15 353.89 445.36 356.18 437.16 357.59 432.25 357.12 428.81 354.92 427.48 352.61 427.13 350.36 427.41 348.82 427.41 347.13 427.2 345.87 423.88 342.7 429.8 334.52 431.06 333.2 432.53 332.36 433.93 331.76 435.19 330.82 436.39 329.52 438.28 328.02 446.9 322.53 448.16 321.13 448.79 318.89 448.37 314.45 448.44 310.98 448.93 307.8 450.29 305.41 451.18 302.97 451.04 300.24 447.11 292.04 445.15 289.14 439.68 286.1 426.36 284.36 415.82 277.05 412.04 272.57 408.95 270.86 406.36 271.17 403.27 272.57 399.77 273.62 394.63 273.88 394.77 273.01 401.36 266.16 403.9 260.14 403.06 257.1 400.79 253.5 402.22 249.96 414.35 236.93 417.64 234.36 421.71 232.03 427.41 229.38 435.33 224.57 440.03 217.75 436.74 210.13 423.11 205.81 419.12 205.03 416.8 203.25 414.96 201.19 412.32 199.64 409.04 199.12 398.27 199.64 346.91 181.1 340.99 179.7 330.36 178.62 322.67 184.19 295.89 183.28 293.02 184.03 290.07 185.58 283.55 190.59 280.82 192.04 278.44 192.74 276.54 193.02 274.93 193.47 273.71 193.98 271.4 196.28 259.97 195.35 253.59 192.68 250.58 191.06 249.67 189.22 251.14 186.07 252.19 182.34 252.47 180.71 252.4 178.77 252.75 177.42 253.73 176.03 253.59 172.13 251.98 165.98 246.07 150.58 244.39 143.43 244.11 138.13 244.74 134.51 244.25 123.01 243.27 119.22 242 116.49 234.85 109.85 234.15 108.29 234.92 106.97 239.13 103.99 240.6 102.12 242.56 97.7 243.76 95.88 245.37 94.24 247.07 92.9 248.8 91.18 250.09 89.71 252.9 85.15 255.81 84.46 272.92 76.96 277.08 73.99 277.17 73.92 277.17 73.9 288.39 68.12 310.45 68.61 321.95 66.14 338.21 50.1 347.93 44.89 359.57 49.86 Z" id="ALB-1502" data-name="Kukës"/>
<path d="M 229.1 1010.28 236.18 1019.21 237.94 1022.8 238.36 1025.46 237.17 1029.49 234.43 1033.51 230.72 1037.57 224.2 1043.12 221.04 1044.95 221.32 1046.38 223.14 1048.67 236.32 1059.12 244.39 1067.96 246.37 1069.58 248.2 1070.57 253.59 1071.79 254.16 1072.32 254.02 1072.88 252.68 1074.31 249.08 1076.53 248.24 1077.21 248.66 1078.56 249.88 1080.55 253.73 1085.13 255.98 1088.96 257.87 1094.55 257.73 1097.05 256.96 1098.78 254.3 1100.75 255.35 1102.7 256.54 1104.08 271.47 1114.11 279.7 1129.55 280.26 1133.96 282.5 1137.45 288.95 1144.93 293.3 1152.92 302.79 1172.01 305.66 1175.31 309.17 1176.96 315.12 1176.95 323.96 1174.72 326.79 1174.3 329.52 1174.49 340.88 1177.06 344.03 1177.37 348.87 1179.12 384.32 1206.17 391.96 1210.65 397.08 1212.21 399.67 1212.23 402.29 1213.55 412.32 1221.91 420.66 1226.93 422.9 1229.3 425.8 1238.48 427.48 1241.96 431.83 1246.7 435.97 1250.32 437.93 1253.78 438.63 1261.38 444.38 1262.22 450.62 1262.22 453.87 1263.01 457.3 1264.72 459.82 1267.43 461.16 1270.75 459.82 1281.81 464.73 1287.48 465.62 1289.58 465.67 1289.7 465.11 1289.54 460.62 1289 456.83 1290.19 453.65 1293.58 454.78 1295.42 457.44 1297.34 458.94 1300.89 458.24 1303.23 455.38 1308.65 454.87 1310.05 455.99 1311.55 459.31 1314.75 460.1 1316.11 461.83 1320.06 464.26 1322.07 465.62 1324.45 464.26 1329.36 458.05 1335.22 449.64 1338.98 442.81 1344.08 441.46 1353.99 437.48 1352.12 433.56 1351.16 429.73 1351.16 426.08 1352.12 422.53 1355.16 422.01 1358.64 422.2 1361.93 420.61 1364.32 413.46 1365.7 404.25 1362.4 391.35 1353.4 370.6 1344.99 352.61 1340.5 337.46 1336.58 330.16 1340.15 330.13 1340.15 328.77 1340.57 328.33 1343.22 325.23 1343.22 322.77 1336.6 324.31 1329.09 331.42 1315.4 323.69 1312.91 321.44 1311.29 328.33 1299.7 336.61 1277.09 337.56 1271.62 334.62 1262.29 329.87 1259.7 322.84 1259.26 312.87 1256.46 312.21 1255.34 312.1 1253.52 311.58 1251.58 309.78 1250.02 303.6 1247.22 299.07 1245.9 291.34 1245.68 287.88 1243.86 287.88 1241.04 294.58 1234.58 299 1231.16 303.6 1228.68 295.76 1222.88 274.49 1191.43 271.61 1185.84 268.45 1181.04 264.73 1178.99 250.27 1178.66 243.09 1177.63 238.2 1175.63 241.81 1172.85 229.51 1166.37 227.6 1169.33 226.94 1170.66 226.42 1172.85 224.95 1168.78 222.78 1166.79 220.02 1165.41 216.85 1163.28 216.27 1161.48 213.03 1156.14 209.31 1151.69 207.65 1152.61 203.16 1149.07 173.36 1141.68 148.33 1130.23 133.83 1120.22 108.29 1113.6 93.35 1104.91 50.33 1068.04 45.29 1061.8 43.08 1058.03 36.97 1037.82 33.66 1032.27 17.83 1020.29 12.24 1014.53 11.47 1012.73 11.47 1012.21 8.93 1011.44 8.93 1008.35 20.96 1003.56 28.36 1003.07 35.42 1006.8 51.54 1021.83 55.81 1026.86 61.81 1037.57 64.28 1044.14 65.31 1050.32 69.54 1052.31 79.03 1050.59 88.53 1047.12 92.76 1044.01 95.78 1002.97 94.49 996.28 82.9 991.12 67.37 979.11 54.97 965.58 52.72 955.87 55.81 958.68 57.06 962.05 58.24 965.97 61.92 965.14 65.31 965.14 74.07 972.76 79.7 970.4 82.68 961.94 83.56 951.08 77.93 942.4 65.97 937.69 55.08 940.02 52.72 952.5 49.48 945.53 18.09 910.16 15.77 906.41 15.89 906.4 27.15 905.59 34.44 903.66 41.03 904.07 47.43 905.26 57.04 908.16 64.05 911.54 68.54 911.01 79.29 907.36 81.67 907.27 82.72 908.02 82.72 909.29 82.58 910.28 82.72 911.53 84.47 913.18 87.35 914.91 92.4 917.29 94.15 918.91 94.57 920.55 94.15 922.22 95.08 924.51 97.4 925.43 101.53 925.66 105.95 926.68 116.68 930.88 119.34 932.37 120.74 933.72 120.84 934.84 120.7 936.22 120.98 937.41 122.1 939.1 124.13 939.66 127.08 939.76 130.51 938.91 132.75 938.92 134.79 939.38 135.63 939.96 135.91 940.6 135.56 941.55 136.54 943.26 137.94 947.65 139.48 948.54 141.8 949.1 146.03 948.83 149.39 950.2 155.42 951.1 163.83 951.04 176.62 957.98 179.7 959.1 181.38 959.18 183.21 959.03 185.03 959.22 187.27 960.13 190.15 961.9 192.39 962.89 193.65 963.1 194.85 962.68 195.99 962.44 197.81 962.75 199.57 963.62 202.37 966.29 203.98 968.61 204.68 972.76 204.4 974.94 203.77 976.43 203 976.95 202.51 977.48 202.58 978.15 203.28 978.81 210.01 979.83 211.69 980.65 212.68 982 212.68 984.81 211.97 989.41 211.41 990.81 211.62 992.39 212.96 997.33 212.82 999.55 212.18 1001.75 211.41 1003.48 211.41 1005.3 212.33 1007.02 215.13 1008.9 218.56 1009.74 223.05 1009.16 229.1 1010.28 Z" id="ALB-1504" data-name="Vlorë"/>
<path d="M 625.88 715.29 630.51 722.58 639.25 752.12 647.99 778.13 654.53 788.58 660.57 792.47 665.24 795.47 676.64 797.39 684.59 794.98 699.64 785.4 708.5 783.74 708.89 783.67 732.77 786.29 755.25 791.36 762.83 796.92 766.52 805.43 766.7 817.44 767.5 838.87 764.74 848.47 756.94 855.48 761.38 858.24 763.06 861.65 763.95 865.3 765.91 868.69 778.81 877.99 790.82 889.11 795.45 895.47 798.39 903.37 799 912.25 797.41 920.54 792.6 936.27 791.8 941.48 791.62 945.24 790.91 948.77 788.53 953.33 785.45 955.9 781.29 957.72 777.13 960.29 774.04 964.92 768.2 966.13 763.39 968.68 760.68 972.7 761 978.31 759.69 980.93 758.2 983.17 753.85 987.87 742.59 993.73 732.49 991.84 722.16 988.08 710.06 988.26 704.03 991.35 701.6 995.16 699.82 999.48 696.13 1004.11 692.11 1005.84 682.72 1007.54 678.7 1010.72 677.95 1014.98 679.91 1027.29 680.15 1032.01 678.6 1037.6 676.59 1041.34 671.64 1048.42 664.63 1061.74 663.32 1064.24 659.77 1066.67 654.81 1068.63 649.91 1071.27 646.35 1075.66 644.3 1085.97 645.23 1095.01 645.14 1104.29 640.09 1115.09 637.61 1116.61 630.93 1118.17 628.83 1120.65 628.59 1123.43 630.09 1128.43 630.23 1130.72 632.38 1139.11 631.73 1141.17 624.95 1155.87 623.03 1159.02 619.71 1160.8 608.47 1164.91 608.31 1164.75 608.24 1164.68 599.52 1157.97 592.86 1150.75 571.46 1133.27 568.44 1130.07 565.99 1121.36 554.49 1099.59 553.72 1096.81 553.3 1094 553.58 1091.54 554.91 1089.38 557.23 1086.97 561.92 1083.38 563.12 1081.89 561.99 1081.12 559.61 1080.67 555.61 1080.42 549.21 1079.24 548.16 1078.16 539.75 1058.23 538.98 1054.8 543.18 1042.18 542.83 1035.28 541.57 1031.66 538.83 1028.34 531.19 1021.29 529.72 1017.9 529.86 1014.12 531.26 1010.98 532.53 1008.81 534.07 1007.16 538.34 1003.93 530.35 1002.71 524.65 993.5 524.51 990.46 526.33 972.42 525.58 967.91 523.81 964.76 519.39 961.23 518.55 959.74 518.2 957.63 518.41 955.92 519.46 952.11 520.37 950.94 522.69 948.63 525.44 942.46 525.44 941.04 524.51 939.63 524.72 938.23 524.16 937.23 521.21 934.91 518.83 934.2 513.71 933.61 511.89 933.16 509.79 932.23 507.82 932.02 505.58 932.17 503.06 932.11 500.72 930.92 497.29 927.86 495.25 923.07 492.52 920.19 491.4 917.2 484.25 908.16 480.39 899.08 470.62 881.57 468.31 878.29 462.77 873.22 466.34 868.27 483.82 864.5 518.2 861.35 525.35 858.96 531.33 855.23 535.19 850.47 542.06 839.92 529.86 819.82 524.65 813.59 510.42 799.58 507.75 795.61 502.64 783.4 513.78 779.09 515.05 776.45 516.52 771.73 517.57 764.53 518.69 760.75 521.42 754.69 524.3 752.16 527.27 750.65 543.25 746.54 545.99 746.1 549.56 745.11 567.6 736.9 571.11 735.74 573.14 735.71 575.66 735.95 592.3 740.58 597.07 740.95 599.38 739.53 601 736.91 602.61 728.64 602.47 726.09 600.86 719.08 600.58 711.72 600.36 710.32 603.92 711.58 610.09 712.07 615.79 711.86 616.96 711.99 620.98 712.44 625.88 715.29 Z" id="ALB-1521" data-name="Korçë"/>
<path d="M 462.77 873.22 468.31 878.29 470.62 881.57 480.39 899.08 484.25 908.16 491.4 917.2 492.52 920.19 495.25 923.07 497.29 927.86 500.72 930.92 503.06 932.11 505.58 932.17 507.82 932.02 509.79 932.23 511.89 933.16 513.71 933.61 518.83 934.2 521.21 934.91 524.16 937.23 524.72 938.23 524.51 939.63 525.44 941.04 525.44 942.46 522.69 948.63 520.37 950.94 519.46 952.11 518.41 955.92 518.2 957.63 518.55 959.74 519.39 961.23 523.81 964.76 525.58 967.91 526.33 972.42 524.51 990.46 524.65 993.5 530.35 1002.71 510.63 1004.63 502.64 1004.3 498.55 1005.69 497.99 1008.78 498.83 1012.8 499.04 1016.49 497.71 1021.04 493.85 1023.62 489.57 1025.02 476.51 1027.29 471.04 1029.86 468.87 1031.37 468.1 1032.63 467.89 1033.62 466.48 1035.66 464.87 1040.89 461.79 1040.6 452.02 1038.74 447.95 1036.85 442.63 1033.16 411.19 1002.04 410 1000.35 399.53 989.41 397.29 987.82 393.85 987.31 386.77 987.04 382.29 985.85 379.13 983.92 376.02 979.58 371.75 976.18 362.91 973.94 362.28 976.64 362.14 977.89 361.58 979.38 360.95 980.32 359.27 980.48 356.95 979.65 352.33 977.35 349.01 976.98 339.33 978.39 321.36 971.42 311.13 971.36 301.73 970.04 287.2 963.1 284.68 955.03 283.06 953.97 279 951.86 272.73 950.16 261.87 944.42 256.96 939.42 250.3 925.5 248.1 922.67 245.79 921.38 243.62 921.1 243.2 920.71 244.04 920.1 247.07 918.92 250.51 916.81 254.3 913.88 255.14 909.96 252.82 906.45 240.46 895.56 237.59 886.07 235.34 884.53 231.56 882.64 227.77 881.66 221.93 879.34 219.97 877.5 219.41 875.28 218.99 872.1 218.99 870.28 219.27 868.78 221.46 864.4 222.02 860.04 220.32 856.91 211.83 848.29 209.59 844.48 208.4 841.1 208.26 839.1 208.96 834.36 219.48 834.31 221.74 834.64 223.75 834.1 223.89 832.58 223.57 830.92 223.71 829.38 225.25 827.21 225.11 826.25 224.76 825.07 224.9 823.75 226.93 820.77 228.12 818.45 230.16 817.39 233.52 816.12 240.39 814.28 245.37 812.37 246.42 812.53 247.64 813.28 249.6 815.69 251.84 817.65 256.47 816.74 271.05 817.06 272.17 815.91 273.53 813.89 272.97 812.13 272.45 811.08 270.14 808.86 279.98 806.17 316.18 809.42 327.28 803.8 331.13 802.83 334.99 803.88 336.25 804.4 337.72 806.46 336.11 809.57 335.9 810.83 335.97 812.44 337.37 816.57 337.65 818.77 337.58 820.78 336.11 824.94 336.11 826.9 338.28 828.36 344.52 829.91 351.77 830.5 357.17 832.09 361.23 834.73 372.24 848.75 376.26 851.84 381.24 854.13 391.54 856.16 396.66 858.29 399.95 860.17 395.75 865.41 406.08 868.94 410.07 869.76 416.87 869.81 420.8 870.37 424.16 872.13 425.99 875.46 426.97 876.75 430.57 877.91 445.15 877.68 462.77 873.22 Z" id="ALB-1523" data-name="Berat"/>
<path d="M 546.41 603.91 546.24 604.8 548.67 618.43 554.24 636.16 556.34 642.83 562.04 654.3 578.77 672.18 585.92 682.67 588.21 692.88 587.93 700.9 591.11 707.04 600.36 710.32 600.58 711.72 600.86 719.08 602.47 726.09 602.61 728.64 601 736.91 599.38 739.53 597.07 740.95 592.3 740.58 575.66 735.95 573.14 735.71 571.11 735.74 567.6 736.9 549.56 745.11 545.99 746.1 543.25 746.54 527.27 750.65 524.3 752.16 521.42 754.69 518.69 760.75 517.57 764.53 516.52 771.73 515.05 776.45 513.78 779.09 502.64 783.4 507.75 795.61 510.42 799.58 524.65 813.59 529.86 819.82 542.06 839.92 535.19 850.47 531.33 855.23 525.35 858.96 518.2 861.35 483.82 864.5 466.34 868.27 462.77 873.22 445.15 877.68 430.57 877.91 426.97 876.75 425.99 875.46 424.16 872.13 420.8 870.37 416.87 869.81 410.07 869.76 406.08 868.94 395.75 865.41 399.95 860.17 396.66 858.29 391.54 856.16 381.24 854.13 376.26 851.84 372.24 848.75 361.23 834.73 357.17 832.09 351.77 830.5 344.52 829.91 338.28 828.36 336.11 826.9 336.11 824.94 337.58 820.78 337.65 818.77 337.37 816.57 335.97 812.44 335.9 810.83 336.11 809.57 337.72 806.46 336.25 804.4 334.99 803.88 331.13 802.83 327.28 803.8 316.18 809.42 279.98 806.17 270.14 808.86 251.91 804.85 249.22 803.28 245.3 800.22 241.16 793.96 240.11 791.27 239.76 788.65 239.83 786.19 241.79 778.19 241.86 775.91 240.74 765.12 241.09 763.6 244.6 758.27 245.16 749.56 239.13 747.72 237.24 748.09 233.8 748.24 230.58 746.89 225.88 744.06 221.37 743.36 205.1 744.32 194.07 741.91 187.55 738.99 183.77 735.32 181.67 731.28 180.82 728.3 180.61 726.46 181.38 723.73 190.92 725.04 192.39 723.88 193.86 721.98 194 717.96 194.42 714.51 195.85 709.87 199.57 707.07 210.15 703.11 213.03 701.04 214.5 699.11 215.41 694.26 229.88 693.42 243.83 694.35 252.75 693 258.5 691.22 260.61 689.35 260.82 688.35 259.34 687.62 256.68 686.95 255.42 685.66 255 684.54 265.86 677.44 287.41 670.73 297.18 669.09 317.16 661.24 320.38 659.04 334.08 647.13 339.69 640.33 346.28 634.34 349.85 632.47 352.68 632.33 354.71 633.74 357.66 634.8 361.51 635.37 364.39 634.76 366.91 633.41 374.06 627.92 377.03 626.34 384.53 625.79 391.96 614.95 402.01 608.49 406.57 606.74 430.85 601.67 432.95 600.2 434.07 598.69 436.81 593.59 439.47 591.3 440.66 590.76 442.27 590.26 445.15 589.71 446.76 589.1 448.44 588.19 449.87 586.79 456.6 582.72 459.89 581.18 463.61 580.08 467.75 579.82 471.88 580.24 476.88 581.81 483.4 581.97 487.05 581.41 490.34 580.52 493.22 578.71 497.64 574.4 500.11 573.57 502.08 573.86 504.11 575.9 505.79 575.61 507.12 574.55 508.88 573.78 511.61 573.56 517.08 574.94 522.83 575.85 529.23 574.27 533.44 573.72 532.39 577.67 532.53 582.14 533.72 588.12 536.17 592.72 546.27 603.75 546.41 603.91 Z" id="ALB-1524" data-name="Elbasan"/>
<path d="M 530.35 1002.71 538.34 1003.93 534.07 1007.16 532.53 1008.81 531.26 1010.98 529.86 1014.12 529.72 1017.9 531.19 1021.29 538.83 1028.34 541.57 1031.66 542.83 1035.28 543.18 1042.18 538.98 1054.8 539.75 1058.23 548.16 1078.16 549.21 1079.24 555.61 1080.42 559.61 1080.67 561.99 1081.12 563.12 1081.89 561.92 1083.38 557.23 1086.97 554.91 1089.38 553.58 1091.54 553.3 1094 553.72 1096.81 554.49 1099.59 565.99 1121.36 568.44 1130.07 571.46 1133.27 592.86 1150.75 599.52 1157.97 608.24 1164.68 608.31 1164.75 608.47 1164.91 591.48 1171.13 580.22 1171.97 556.24 1169.23 548.02 1170.89 540.91 1174.05 525.91 1172.69 517.31 1175.68 511.28 1181.08 506.14 1188.23 502.36 1196.27 500.44 1204.38 492.96 1205.59 470.39 1206.13 464.92 1207.46 467.21 1210.99 473.99 1238.45 476.32 1241.16 487.07 1249.36 507.92 1275.96 509.74 1283.81 506.09 1292.83 498.24 1299.09 490.53 1298.42 482.54 1294.7 465.67 1289.7 465.62 1289.58 464.73 1287.48 459.82 1281.81 461.16 1270.75 459.82 1267.43 457.3 1264.72 453.87 1263.01 450.62 1262.22 444.38 1262.22 438.63 1261.38 437.93 1253.78 435.97 1250.32 431.83 1246.7 427.48 1241.96 425.8 1238.48 422.9 1229.3 420.66 1226.93 412.32 1221.91 402.29 1213.55 399.67 1212.23 397.08 1212.21 391.96 1210.65 384.32 1206.17 348.87 1179.12 344.03 1177.37 340.88 1177.06 329.52 1174.49 326.79 1174.3 323.96 1174.72 315.12 1176.95 309.17 1176.96 305.66 1175.31 302.79 1172.01 293.3 1152.92 288.95 1144.93 282.5 1137.45 280.26 1133.96 279.7 1129.55 271.47 1114.11 256.54 1104.08 255.35 1102.7 254.3 1100.75 256.96 1098.78 257.73 1097.05 257.87 1094.55 255.98 1088.96 253.73 1085.13 249.88 1080.55 248.66 1078.56 248.24 1077.21 249.08 1076.53 252.68 1074.31 254.02 1072.88 254.16 1072.32 253.59 1071.79 248.2 1070.57 246.37 1069.58 244.39 1067.96 236.32 1059.12 223.14 1048.67 221.32 1046.38 221.04 1044.95 224.2 1043.12 230.72 1037.57 234.43 1033.51 237.17 1029.49 238.36 1025.46 237.94 1022.8 236.18 1019.21 229.1 1010.28 235.48 1011.21 236.47 1010.21 238.08 1008.29 251 988.15 254.02 985.3 267.69 976.85 270.7 974.1 273.67 970.93 276.4 966.86 278.72 964.76 280.89 963.76 287.2 963.1 301.73 970.04 311.13 971.36 321.36 971.42 339.33 978.39 349.01 976.98 352.33 977.35 356.95 979.65 359.27 980.48 360.95 980.32 361.58 979.38 362.14 977.89 362.28 976.64 362.91 973.94 371.75 976.18 376.02 979.58 379.13 983.92 382.29 985.85 386.77 987.04 393.85 987.31 397.29 987.82 399.53 989.41 410 1000.35 411.19 1002.04 442.63 1033.16 447.95 1036.85 452.02 1038.74 461.79 1040.6 464.87 1040.89 466.48 1035.66 467.89 1033.62 468.1 1032.63 468.87 1031.37 471.04 1029.86 476.51 1027.29 489.57 1025.02 493.85 1023.62 497.71 1021.04 499.04 1016.49 498.83 1012.8 497.99 1008.78 498.55 1005.69 502.64 1004.3 510.63 1004.63 530.35 1002.71 Z" id="ALB-1525" data-name="Gjirokastër"/>
<path d="M 574.75 367.27 574.61 369.73 578.21 381.14 578.98 387.53 579.33 390.49 576.39 394.45 565.87 402.19 561.43 406.58 557.79 412.6 556.48 417.36 560.08 450.08 562.37 459.73 571.95 480.7 571.98 483.73 571.99 484.67 569.56 489.36 565.73 492.31 559.66 495.06 553.11 497.14 531.05 500.77 532.74 507.19 531.43 519.39 534.6 526.12 539.65 527.85 543.11 530.56 547.98 537.57 548.86 538.83 550.36 542.32 551.29 549.7 552.18 552.15 555.4 554.21 562.93 555.12 566.34 556.83 571.71 562.58 573.96 567.11 574.47 568.14 574.38 574.26 571.2 581.81 566.9 587.98 561.01 593.59 554.51 596.58 548.02 595.04 546.41 603.91 546.27 603.75 536.17 592.72 533.72 588.12 532.53 582.14 532.39 577.67 533.44 573.72 529.23 574.27 522.83 575.85 517.08 574.94 511.61 573.56 508.88 573.78 507.12 574.55 505.79 575.61 504.11 575.9 502.08 573.86 500.11 573.57 497.64 574.4 493.22 578.71 490.34 580.52 487.05 581.41 483.4 581.97 476.88 581.81 471.88 580.24 467.75 579.82 463.61 580.08 459.89 581.18 456.6 582.72 449.87 586.79 448.44 588.19 446.76 589.1 445.15 589.71 442.27 590.26 440.66 590.76 439.47 591.3 436.81 593.59 402.57 584.52 396.38 580.97 379.2 567.04 366.49 567.11 364.04 569.76 359.2 573.3 356.11 573.68 353.31 572.52 349.38 567.66 346.14 564.98 338.49 561.5 330.22 556.17 328.75 554.29 327.98 552.55 327.49 550.99 324.89 548.24 324.19 546.92 323.68 545 322.56 542.01 313.09 531.31 304.33 524.02 299 520.65 295.19 518.95 290 518.78 272.17 508.17 256.12 493.08 252.47 481.65 252.82 478.4 251.35 474.97 249.18 472.44 242.42 466.74 241.51 464.85 242.14 463.24 243.48 462.04 245.23 456.39 243.97 437.23 245.86 429.66 247.4 429.98 251.07 431.37 256.26 434.12 266.14 435.99 272.59 435.33 280.68 433.42 287.76 430.64 289.16 431.31 291.9 435.3 293.72 436.69 296.8 438.23 306.01 440.41 308.89 439.68 310.43 437.86 310.57 436.15 310.99 434.96 312.46 433.97 318 430.88 320.94 430.38 325.66 430.43 341.37 432.58 345.43 431.67 348.4 429.73 350.13 427.34 351.98 421.86 353.87 419.93 357.24 418.12 400.61 404.9 404.18 400.82 404.46 398.11 404.18 391.8 402.08 388.65 382.64 376.09 381.94 374.53 382.99 373.41 385.93 372.71 390.56 372.39 396.17 371.54 401.73 369.76 405.73 365.81 411.47 361.29 416.45 358.6 424.02 349.17 423.88 342.7 427.2 345.87 427.41 347.13 427.41 348.82 427.13 350.36 427.48 352.61 428.81 354.92 432.25 357.12 437.16 357.59 445.36 356.18 450.15 353.89 453.87 351 456.46 347.93 459.33 345.39 465.92 343.24 475.01 343.89 474.34 345.31 477.05 353.94 489.71 368.24 492.59 374.79 491.93 378.22 503.06 377.04 509.37 375.32 513.99 373.2 515.82 371.16 514.55 369.73 513.22 368.46 513.15 367.03 518.13 366.27 527.45 366.05 555.47 369.9 562.9 368.83 570.69 367 574.59 367.26 574.75 367.27 Z" id="ALB-1526" data-name="Dibër"/>
<path d="M 423.88 342.7 424.02 349.17 416.45 358.6 411.47 361.29 405.73 365.81 401.73 369.76 396.17 371.54 390.56 372.39 385.93 372.71 382.99 373.41 381.94 374.53 382.64 376.09 402.08 388.65 404.18 391.8 404.46 398.11 404.18 400.82 400.61 404.9 357.24 418.12 353.87 419.93 351.98 421.86 350.13 427.34 348.4 429.73 345.43 431.67 341.37 432.58 325.66 430.43 320.94 430.38 318 430.88 312.46 433.97 310.99 434.96 310.57 436.15 310.43 437.86 308.89 439.68 306.01 440.41 296.8 438.23 293.72 436.69 291.9 435.3 289.16 431.31 287.76 430.64 280.68 433.42 272.59 435.33 266.14 435.99 256.26 434.12 251.07 431.37 247.4 429.98 245.86 429.66 243.97 437.23 245.23 456.39 243.48 462.04 242.14 463.24 241.51 464.85 242.42 466.74 249.18 472.44 251.35 474.97 252.82 478.4 252.47 481.65 256.12 493.08 244.25 492.45 240.88 490.58 236.68 487.61 232.61 483.82 230.16 482.63 227.91 482.54 225.25 484.01 224.2 485.65 223.57 487.47 220.6 490.3 214.99 493.41 200.9 496.81 193.79 497.43 188.11 496.95 184.82 495.28 182.37 493.5 178.51 489.76 176.55 488.43 168.88 484.85 166.29 484.7 156.19 487.8 149.32 488.44 147.76 488.99 146.87 489.63 145.23 492.35 130.93 486.45 129.6 485.66 133.57 484.74 142.44 469.15 145.53 469.15 145.83 474.12 147.52 476.77 150.69 477.21 155.18 475.61 151.57 463.47 149.36 460.32 145.53 463.24 143.47 459.6 130.15 450.62 139.42 438.37 138.61 424.22 136.26 409.09 136.33 400.94 144.58 403.07 148.85 397.19 149.21 387.67 145.53 379.06 142.63 379.17 117.45 371.41 117.42 371.3 116.12 366.37 88.82 350.2 87.07 344.73 88.47 339.57 91.98 336.04 96.11 335.51 102.16 337.35 117.66 344.39 125.53 346.91 131.91 345.38 137.17 341.06 135.68 331.86 133.31 326.79 131.28 324.82 136.19 323.3 143.76 322.43 145.37 322.64 146.73 323.28 148.41 324.36 151.01 325.38 153.81 325.83 158.86 325.87 160.26 326.22 160.82 327.09 160.26 328.12 158.86 329.61 157.17 331.76 156.89 333.63 157.6 335.06 159.21 335.97 163.27 337.63 166.92 337.75 183.42 335.82 187.27 336.13 190.85 337.72 199 342.7 204.89 344.46 208.96 343.24 212.68 341.16 215.97 338.8 217.58 337.11 218.07 335.57 217.58 333.8 212.33 325.27 226.23 324.73 234.92 321.41 237.73 321.31 240.88 322.43 244.39 324.4 251.28 326.22 255.07 326.34 258.5 325.55 260.89 324.12 263.97 321.27 268.53 318.21 272.83 314.42 278.08 312.04 282.85 311.04 285.73 311.18 288.39 313.07 289.23 315.19 290.49 319.94 293.86 326.6 295.75 328.83 304.54 337.09 305.59 339.08 305.66 340.78 304.75 342.02 300.96 344.73 300.33 346.5 300.75 348.38 302.65 350.45 305.03 352.07 309.03 353.11 326.44 353.53 330.01 352.83 332.46 351.37 337.72 344.04 340.88 340.76 351 333.28 357.87 330.24 362 327.6 366.28 322.91 370.06 313.79 374.01 310.59 379.27 307.95 408.11 297.15 426.36 284.36 439.68 286.1 445.15 289.14 447.11 292.04 451.04 300.24 451.18 302.97 450.29 305.41 448.93 307.8 448.44 310.98 448.37 314.45 448.79 318.89 448.16 321.13 446.9 322.53 438.28 328.02 436.39 329.52 435.19 330.82 433.93 331.76 432.53 332.36 431.06 333.2 429.8 334.52 423.88 342.7 Z" id="ALB-1528" data-name="Lezhë"/>
<path d="M 436.81 593.59 434.07 598.69 432.95 600.2 430.85 601.67 406.57 606.74 402.01 608.49 391.96 614.95 384.53 625.79 377.03 626.34 374.06 627.92 366.91 633.41 364.39 634.76 361.51 635.37 357.66 634.8 354.71 633.74 352.68 632.33 349.85 632.47 346.28 634.34 339.69 640.33 334.08 647.13 320.38 659.04 317.16 661.24 297.18 669.09 287.41 670.73 265.86 677.44 255 684.54 255.42 685.66 256.68 686.95 259.34 687.62 260.82 688.35 260.61 689.35 258.5 691.22 252.75 693 243.83 694.35 229.88 693.42 215.41 694.26 214.5 699.11 213.03 701.04 210.15 703.11 199.57 707.07 195.85 709.87 194.42 714.51 194 717.96 193.86 721.98 192.39 723.88 190.92 725.04 181.38 723.73 182.51 720.43 182.58 719.52 182.37 718.4 181.67 717.77 180.82 717.48 179.63 717.55 177.25 718.31 169.44 721.88 166.99 722.65 164.61 722.26 163.83 721.51 162.5 721.02 158.02 721.02 157.31 720.6 156.89 720.13 156.4 719.9 152.9 719.48 149.6 718.17 147.99 717.98 144.6 719.15 140.12 721.26 132.33 726.04 128.62 727.77 124.13 728.23 117.17 728.05 115.27 727.63 113.31 726.97 111 727.19 108.89 728.33 106.37 731.39 104.69 733.02 102.8 733.75 100.13 732.81 96.49 728.87 94.8 727.73 93.31 727.52 90.92 727.96 89.87 728.02 89.52 728.19 91.34 730.48 91.84 731.93 91.55 733.26 89.17 734.13 87.84 733.99 86.44 734.83 85.53 735.57 80.62 745.04 80.58 745.12 80.47 745.05 77.23 739.99 77.52 737.56 79.44 735.45 84.37 701.09 82.01 693.84 79.44 690.79 77.49 687.22 77.82 684.27 87.68 680.91 89.23 675.77 89.23 669.66 89.96 664.51 108.4 642.03 111.6 633.38 111.31 631.55 111.42 631.54 122.66 630.5 135.07 634.48 143.55 638.99 152.55 626.49 164.33 618.76 167.06 615.39 168.39 610.46 168.74 605.16 168.32 599.55 169.23 591.81 169.16 588.38 168.18 586.3 163.76 584.84 161.31 582.96 158.72 578.52 158.37 573.19 159.28 547.57 171.08 545.57 180.33 547.41 183.07 546.38 185.24 544.28 186.57 541.87 188.89 539.73 190.64 540.77 191.97 543.37 193.44 550.9 194.35 553.03 195.9 555.12 197.95 556.43 199.22 557.46 200.34 558.8 201.39 561.11 203.21 563.91 206.02 565.05 211.41 565.17 215.27 564.28 219.97 562.48 233.17 555.49 251.84 549.78 254.02 548.65 255 546.87 255.49 545.12 256.54 543.81 258.5 544.49 262.85 547.26 266.35 547.61 270.35 546.36 278.16 540.66 281.8 537.12 287.69 528.55 288.95 526.16 289.44 523.61 290 518.78 295.19 518.95 299 520.65 304.33 524.02 313.09 531.31 322.56 542.01 323.68 545 324.19 546.92 324.89 548.24 327.49 550.99 327.98 552.55 328.75 554.29 330.22 556.17 338.49 561.5 346.14 564.98 349.38 567.66 353.31 572.52 356.11 573.68 359.2 573.3 364.04 569.76 366.49 567.11 379.2 567.04 396.38 580.97 402.57 584.52 436.81 593.59 Z" id="ALB-1529" data-name="Durrës"/>
</g>
</svg>