<?xml version="1.0"?>
<svg xmlns="http://www.w3.org/2000/svg" version="1.2" baseProfile="tiny" width="800" height="1436" viewBox="0 0 800 1436" stroke-linecap="round" stroke-linejoin="round">
<g id="ne_10m_admin_1_states_provinces">
<path d="M 787.67 646 787.74 659 783.99 659 784.19 653.33 783.99 651.5 780.88 652.43 778.78 653.98 777.4 656.14 776.19 659 776.64 625.71 774.76 611.89 768.68 606.19 775.54 600.34 781.91 610.14 791.16 636.53 788.61 640.57 787.67 646 Z M 637.61 542.92 642.73 550.16 641.57 555.59 640.02 558.07 639.89 561.37 637.59 566.33 633.79 565.93 632.79 561.37 632.05 549.96 631.31 547.54 626.91 548.1 622.17 546 619 542.18 617.17 539.43 615.49 537.89 615.56 534.65 619.25 532.33 627.4 535.41 637.61 542.92 Z M 795.63 527.42 799 538.36 796.74 546.67 785.39 568.12 778.11 577.5 772.53 586.84 764.57 591.85 753.67 583.67 748.04 592.61 741.09 597.74 734.77 604.38 730.84 617.76 727.42 642.31 726.08 646.31 723.27 651.9 720.79 658.73 720.25 666.51 712.43 659 714.49 657.17 715.2 655.34 715.42 653.46 716.18 651.5 717.5 639.83 722.57 620.46 725.21 594.12 729.57 585.46 736.6 579.18 746.16 572.45 757.42 561.22 762.96 560.75 771.14 564.01 778.02 564.95 783.32 560.17 787.54 549.4 788.57 537.87 783.99 530.9 777.93 536.08 772.86 538.85 768.68 538.36 768.95 534.88 774.47 519.95 781.06 520.18 788.88 522.01 795.63 527.42 Z M 655.84 515.89 652.11 515.89 649.34 510.57 644.52 497.55 637.48 467.12 645.01 473.28 650.46 486.62 655.84 515.89 Z M 605.84 450.63 588.04 452.13 587.99 449.56 588.75 447.88 591.79 444.62 603.3 439.53 634.46 419.11 640.85 416.34 635.8 434.17 622.98 445.14 605.84 450.63 Z M 588.04 538.36 581.43 549.02 567.26 548.89 553.19 546.87 546.84 551.83 545.41 560.35 522.71 633 517.4 688.76 516.84 700.24 514.9 721.8 518.78 733.4 520.93 743.85 521.02 744.95 521.02 744.96 513.82 752.21 502.58 756.35 499.72 757.92 494.58 759.54 349.13 762.12 361.44 757.81 363.16 756.94 364.44 755.81 365.52 754.55 367.45 751.17 367.96 748.46 368.89 746.57 369.91 744.98 371.18 744.33 372.21 743.11 373.43 740.29 375.33 734.34 376.01 730.46 378.77 723.95 378.87 718.9 378.4 712.82 373.8 702.31 367.66 693.77 366.92 690.86 367.66 670.68 362.11 561.27 360.78 553.75 358.72 550.49 354.11 552.66 350.83 559.58 347.56 565.03 334.6 570.24 327.8 490.7 328.18 480.82 335.27 461.54 341.51 452.24 357.66 444.99 363.25 443.44 367.74 441.53 370.28 439.02 370.58 435.45 369.89 432.57 367.18 425.44 366.89 421.58 368.55 408.53 368.45 405.42 366.72 393.14 366.68 390.09 366.93 387.66 370.31 373.13 370.48 366.01 370 362.69 368.04 355.34 367.69 351.36 368.28 345.83 369.49 341.07 372.91 331.57 401.95 315.67 523.78 285.66 588.28 292.44 565.52 335.24 568.85 349.43 562.21 395.03 548.81 440.44 544.45 449.63 530.18 465.91 524.41 475.99 521.93 487.74 524.35 500.9 530.98 507.58 550.55 517.12 554.64 525.43 559.89 529.98 582.9 533.85 588.04 538.36 Z M 696.03 230.29 690.09 231.31 688.48 227.85 692.44 222.42 695.23 220.64 696.88 220.55 700.05 219.27 701.68 220.81 700.48 226.53 696.03 230.29 Z M 711.6 219.12 707.07 222.36 705.15 221.98 704.43 219.16 703.56 216.99 704.48 215.09 707.29 213.58 710.2 211.21 711.18 208.15 712.21 206.11 713.1 205.31 714.42 207.5 714.82 213.4 711.6 219.12 Z M 763.72 184.8 762.81 197 755.55 203.39 751.48 209.6 740.27 239.13 734.93 249.03 731.15 246.55 727.42 244.94 726.08 250.71 724 254.79 720.83 257.74 716.18 259.95 716.18 263.66 720.25 271.55 725.41 264.31 726.64 261.03 727.42 256.2 730.84 256.2 726.5 279.93 715.83 301.78 698.67 317.79 674.94 323.98 674.94 320.27 680.64 320.45 682.45 320.27 702.47 306.53 709.59 296.91 712.43 282.79 703.76 283.21 706.09 266.19 716.18 231.85 717.37 229.44 719.91 227.47 722.53 224.9 723.67 220.59 724 215.23 732.13 186.32 737.54 181.45 746.16 184.96 758.25 177.29 763.72 184.8 Z M 749 159.29 748.67 162.1 746.72 167.6 741.5 174.03 738.35 171.42 739.86 162.04 742.03 158.75 743.75 160.05 744.04 158.93 743.13 156.54 743.35 155.6 745.25 155.98 746.66 156.12 748.67 157.08 749 159.29 Z" fill-rule="evenodd" id="BLZ-1323" data-name="Belize"/>
<path d="M 349.13 762.12 347.26 767.53 349.3 772.11 357.19 784.59 364.85 790.93 368.55 794.75 368.38 799.4 365.81 801.9 362.76 803.93 360.89 806.35 355.27 817.52 352.03 826.29 348.49 832.57 345.13 837.2 338.82 841.66 336.12 844.09 332.32 850.4 315.84 867.84 314.89 870.53 314.84 872.96 315.4 875.23 315.3 878.43 313.99 885.91 313.84 888.73 314.72 895.61 314.2 898.37 313.23 900.75 311.82 902.54 309.96 903.97 304.74 906.32 301.59 909.19 300.66 910.94 301.12 912.99 308.37 917.94 310.43 920.21 310.19 921.94 308.52 923.33 306.26 923.96 296.44 925.52 285.92 929.05 282.99 930.94 280.3 933.45 265.15 955.88 261.91 964.12 256.11 974.5 252.95 985.36 252.99 987.61 254.84 994.62 245.59 995.13 241.32 997.32 239.78 998.51 236.59 1001.68 230.69 1008.91 229.26 1011.54 228.82 1013.84 231.17 1023.06 231.57 1025.99 230.04 1031.66 218.97 1042.58 210.09 1049.12 207.67 1050.19 203.24 1051.38 199.38 1053.35 184.67 1064.2 179.76 1067.11 176.4 1067.96 173.77 1067.57 170.48 1068.2 164.3 1070.93 161.19 1073 158.85 1075.1 156.33 1078.66 156.27 1080.53 156.98 1085.07 154.74 1086.72 133.12 1094.63 130.08 1095.26 127.71 1095.3 125.91 1094.25 122.21 1090.43 120.45 1088.93 118.66 1087.75 116.09 1086.9 114.67 1087.7 111.16 1091.67 99.92 1102.14 95.68 1105.09 92.08 1106.83 82.86 1107.84 78.91 1109.12 76.8 1109.57 69.56 1110.1 50.27 1117.74 47.77 1119.32 45.42 1122.03 43.62 1124.58 43.28 1125.72 42.85 1128.57 41.98 1130.65 40.4 1133.08 36.69 1137.5 33.97 1140.24 30.83 1144.03 24.81 1152.96 29.64 1096.28 39.68 941.92 48.94 799.57 48.1 643.23 64.67 630.13 87.47 615.61 95.21 612.91 101.28 612.6 105.58 614.23 110.01 615.24 173.8 608.31 181.42 605.89 187.11 602.07 190.37 597.62 194.37 593.33 198.08 592.09 206.28 593.4 216.04 594.11 228.96 593.56 234.65 593.92 242.58 593.16 257.32 593.79 269.82 592.21 279.6 588.85 295.81 578.48 305.13 575.17 311.52 574.15 322.7 568.88 326.86 567.83 334.6 570.24 347.56 565.03 350.83 559.58 354.11 552.66 358.72 550.49 360.78 553.75 362.11 561.27 367.66 670.68 366.92 690.86 367.66 693.77 373.8 702.31 378.4 712.82 378.87 718.9 378.77 723.95 376.01 730.46 375.33 734.34 373.43 740.29 372.21 743.11 371.18 744.33 369.91 744.98 368.89 746.57 367.96 748.46 367.45 751.17 365.52 754.55 364.44 755.81 363.16 756.94 361.44 757.81 349.13 762.12 Z" id="BLZ-1324" data-name="Cayo"/>
<path d="M 523.78 285.66 448.32 220.25 408.43 168.3 383.29 150.68 348.32 135.94 342.75 134.82 343.24 132.88 344.17 124.19 346.24 114.86 351.53 106.02 368.5 87.34 375.29 77.07 377.19 70.77 379.35 56.84 384.3 43.64 387.24 27.05 390.1 21.1 394.29 17.03 411.28 4.43 416.8 5.03 421.88 7.72 427.54 9.26 432.38 8.62 443.34 4.83 449.31 1.96 453.02 1 455.9 1.99 461.17 6.84 465.34 9.27 468.56 8.76 471.77 7.07 475.96 5.92 509.96 5.65 513.09 6.17 513.09 6.17 513.09 8.13 522.54 16.35 511.75 29.8 469.23 59.09 465.23 66.98 471.51 75.58 479.28 76.05 505.58 64.65 502.5 72.65 497.38 81.14 484.8 96.35 481.79 101.2 483.35 103.7 487.59 103.44 492.44 100.11 501.69 90.19 519.9 77.66 528.5 73.77 537.62 72.16 549.88 73.81 565.83 81.23 573.03 83.42 584.69 81.72 601.31 70.73 620.32 65.14 626.78 64.32 629.64 66.35 628.56 74.1 625.53 79.17 614.62 87.17 602.09 92.31 599.66 94.63 599.48 100.64 603.43 101.92 608.23 100 612.34 93.47 616.84 90.46 622.44 88.11 627.76 87.17 629.57 90.17 634.02 155.09 629.64 205.44 627.85 214.02 620.16 227.16 618.38 235.76 597.73 286.18 588.35 292.33 588.28 292.44 588.28 292.44 523.78 285.66 Z" id="BLZ-1325" data-name="Corozal"/>
<path d="M 523.78 285.66 401.95 315.67 372.91 331.57 369.49 341.07 368.28 345.83 367.69 351.36 368.04 355.34 370 362.69 370.48 366.01 370.31 373.13 366.93 387.66 366.68 390.09 366.72 393.14 368.45 405.42 368.55 408.53 366.89 421.58 367.18 425.44 369.89 432.57 370.58 435.45 370.28 439.02 367.74 441.53 363.25 443.44 357.66 444.99 341.51 452.24 335.27 461.54 328.18 480.82 327.8 490.7 334.6 570.24 326.86 567.83 322.7 568.88 311.52 574.15 305.13 575.17 295.81 578.48 279.6 588.85 269.82 592.21 257.32 593.79 242.58 593.16 234.65 593.92 228.96 593.56 216.04 594.11 206.28 593.4 198.08 592.09 194.37 593.33 190.37 597.62 187.11 602.07 181.42 605.89 173.8 608.31 110.01 615.24 105.58 614.23 101.28 612.6 95.21 612.91 87.47 615.61 64.67 630.13 48.1 643.23 45.09 491.03 42.74 372.4 42.25 324.56 46.34 302.8 50.51 297.1 58.07 286.77 103.71 270.88 115.47 274.79 124.52 282.63 132.73 291.39 141.97 298.2 148.51 298.85 154.74 297.61 159.94 298.74 167.48 314.18 174.53 319.34 196.56 331.68 201.48 330.32 204.77 325.89 207.25 313.75 209.69 309.81 237.73 289.66 242.89 283.85 250.75 262.37 253.36 257.4 261.52 250.88 269.02 246.68 275.59 241.94 280.94 233.81 282.67 227.9 284.34 215.5 285.85 210.03 299.49 188.09 301.32 181.92 299.44 174.27 297.42 172.68 313.06 161.6 329.09 154.27 335.63 149.49 341.14 141.19 342.75 134.82 348.32 135.94 383.29 150.68 408.43 168.3 448.32 220.25 523.78 285.66 Z" id="BLZ-1326" data-name="Orange Walk"/>
<path d="M 465.74 1095.3 459.42 1092.77 457.93 1088.59 455.66 1088.05 450.15 1087.67 438.8 1089.46 436.29 1089.27 433.28 1088.6 427.62 1088.43 425.3 1088.69 403.66 1087.37 402.06 1087.78 398.67 1087.92 376.4 1084.94 373.09 1083.55 373.97 1081.2 375.08 1079.84 376.2 1077.71 376.27 1075.4 376.58 1073.57 377.32 1064.5 378.1 1061.13 378.31 1059.21 378.18 1057.15 377.16 1054.44 374.92 1050.27 373.47 1048.2 372.3 1045.76 370.75 1043.53 369.63 1041.49 367.91 1039.32 366.11 1036.48 359.4 1029.38 357 1026.31 356.78 1023.55 358.85 1018.55 359.12 1016.28 358.95 1014.04 357.5 1011.71 355.9 1007.08 354.28 1004.54 351.51 1002.14 332.41 991.91 324.32 990.12 311.91 988.68 270.72 989.65 254.84 994.62 252.99 987.61 252.95 985.36 256.11 974.5 261.91 964.12 265.15 955.88 280.3 933.45 282.99 930.94 285.92 929.05 296.44 925.52 306.26 923.96 308.52 923.33 310.19 921.94 310.43 920.21 308.37 917.94 301.12 912.99 300.66 910.94 301.59 909.19 304.74 906.32 309.96 903.97 311.82 902.54 313.23 900.75 314.2 898.37 314.72 895.61 313.84 888.73 313.99 885.91 315.3 878.43 315.4 875.23 314.84 872.96 314.89 870.53 315.84 867.84 332.32 850.4 336.12 844.09 338.82 841.66 345.13 837.2 348.49 832.57 352.03 826.29 355.27 817.52 360.89 806.35 362.76 803.93 365.81 801.9 368.38 799.4 368.55 794.75 364.85 790.93 357.19 784.59 349.3 772.11 347.26 767.53 349.13 762.12 494.58 759.54 499.72 757.92 502.58 756.35 513.82 752.21 521.02 744.96 521.46 749.79 524.35 762.42 526.49 769.27 531.7 772.09 543.4 775.89 550.06 784.24 554.62 794.85 557.21 806.78 558.64 824.19 561.81 837.55 560.51 843.94 557.07 845.32 552.25 845.25 546.84 847.13 540.83 852.47 533.33 860.8 527 870.32 524.35 879.15 526.78 889.24 537.5 905.46 539.63 914.94 540.59 914.98 542.51 916.43 543.92 918.91 543.4 922.08 541.37 922.62 534.13 921.68 531.83 922.08 524.86 927.42 522.04 930.75 520.93 935.73 519.72 938.42 517 941.1 514.29 944.83 513.09 950.55 513.64 957.11 516.24 965.78 516.84 971.14 511.77 1010.06 508.37 1016.03 503.57 1020.74 498.07 1027.75 491.8 1050.18 488.8 1057.04 486.92 1066.72 490.57 1080.52 488.29 1085.59 484.38 1090.44 480.67 1090.8 479.02 1082.24 496.22 1019.85 505.47 1010.42 509 1004.9 494.52 1012.07 479.69 1048.06 467.76 1061.47 471.38 1062.03 479.02 1065.56 475.31 1067.36 472.45 1068.15 469.05 1067.66 464.03 1065.56 465.17 1070.38 466.57 1072.66 469.45 1073.26 475.22 1073.06 475.22 1076.46 469.39 1080.23 465.25 1085.75 464.29 1092.36 465.74 1095.3 Z" id="BLZ-1355" data-name="Stann Creek"/>
<path d="M 465.74 1095.3 465.75 1095.31 467.76 1099.29 457.44 1106.75 446.2 1128.47 435.88 1133.05 434.8 1136.06 433.8 1149.11 434.02 1151.79 430.89 1153.62 427.99 1153.67 426.16 1152.75 426.16 1151.79 422.67 1154.02 421.53 1155.16 420.86 1156.57 418.7 1159.25 411.64 1175.67 409.47 1178.35 405.18 1180.7 390.73 1198.97 389.1 1201.88 386.82 1209.12 385.28 1211.75 384.92 1213.34 385.63 1218.03 385.28 1219.57 383.76 1219.93 379.29 1219.24 377.77 1219.57 375.36 1220.91 368.72 1222.34 366.2 1223.68 365.03 1225.83 362.44 1234.58 362.44 1211.75 358.69 1211.75 354.91 1223.68 347.21 1225.42 339.63 1220.84 336.22 1213.81 334.07 1210.68 329.45 1210.32 324.87 1211.17 322.9 1211.75 322.21 1213.72 322.45 1223.37 320.87 1227.08 316.91 1228.33 298.37 1230.83 295.2 1232.89 292.61 1235.48 288.67 1237.73 281.35 1238.67 273.57 1242.16 271.29 1250.76 272.48 1272.07 270.47 1283.51 265.26 1291.82 257.53 1296.96 247.95 1298.66 245.16 1300.09 241.92 1303.55 239.21 1307.82 236.8 1317.36 233.45 1320.15 228.71 1321.94 223.42 1324.88 217.32 1329.93 214.59 1332.75 212.16 1336.14 210.84 1342.22 211.29 1348.3 209.77 1353.01 195.43 1357.05 185.95 1362.6 176.77 1369.9 170.58 1377.38 168.66 1391.01 180.12 1413.89 178.09 1426.76 157.28 1434.61 108.72 1422.49 91.11 1422.6 75.45 1425.19 33.43 1423.29 23.37 1427.31 18.39 1427.6 11.97 1429.67 6.77 1432.19 5.54 1433.95 1 1426.78 1.27 1419.87 2.31 1393.27 16.37 1266.34 24.81 1152.96 30.83 1144.03 33.97 1140.24 36.69 1137.5 40.4 1133.08 41.98 1130.65 42.85 1128.57 43.28 1125.72 43.62 1124.58 45.42 1122.03 47.77 1119.32 50.27 1117.74 69.56 1110.1 76.8 1109.57 78.91 1109.12 82.86 1107.84 92.08 1106.83 95.68 1105.09 99.92 1102.14 111.16 1091.67 114.67 1087.7 116.09 1086.9 118.66 1087.75 120.45 1088.93 122.21 1090.43 125.91 1094.25 127.71 1095.3 130.08 1095.26 133.12 1094.63 154.74 1086.72 156.98 1085.07 156.27 1080.53 156.33 1078.66 158.85 1075.1 161.19 1073 164.3 1070.93 170.48 1068.2 173.77 1067.57 176.4 1067.96 179.76 1067.11 184.67 1064.2 199.38 1053.35 203.24 1051.38 207.67 1050.19 210.09 1049.12 218.97 1042.58 230.04 1031.66 231.57 1025.99 231.17 1023.06 228.82 1013.84 229.26 1011.54 230.69 1008.91 236.59 1001.68 239.78 998.51 241.32 997.32 245.59 995.13 254.84 994.62 270.72 989.65 311.91 988.68 324.32 990.12 332.41 991.91 351.51 1002.14 354.28 1004.54 355.9 1007.08 357.5 1011.71 358.95 1014.04 359.12 1016.28 358.85 1018.55 356.78 1023.55 357 1026.31 359.4 1029.38 366.11 1036.48 367.91 1039.32 369.63 1041.49 370.75 1043.53 372.3 1045.76 373.47 1048.2 374.92 1050.27 377.16 1054.44 378.18 1057.15 378.31 1059.21 378.1 1061.13 377.32 1064.5 376.58 1073.57 376.27 1075.4 376.2 1077.71 375.08 1079.84 373.97 1081.2 373.09 1083.55 376.4 1084.94 398.67 1087.92 402.06 1087.78 403.66 1087.37 425.3 1088.69 427.62 1088.43 433.28 1088.6 436.29 1089.27 438.8 1089.46 450.15 1087.67 455.66 1088.05 457.93 1088.59 459.42 1092.77 465.74 1095.3 Z" id="BLZ-1356" data-name="Toledo"/>
</g>
</svg>