<?xml version="1.0"?>
<svg xmlns="http://www.w3.org/2000/svg" version="1.2" baseProfile="tiny" width="800" height="397" viewBox="0 0 800 397" stroke-linecap="round" stroke-linejoin="round">
<g id="ne_10m_admin_1_states_provinces">
<path d="M 213.27 290.22 216.81 294.87 221.35 306.75 226.95 308.42 228.28 310.87 227.94 312.21 227.39 313.28 226.8 316.45 241.7 316.53 246.46 324.97 247.64 328 250.66 338.54 246.64 345.96 246.46 348.97 246.94 349.93 249.59 353.4 250.77 356.58 250.99 358.91 250.7 362.04 250.11 364.93 249.61 366.65 248.04 369.49 247.55 370.19 246.16 371.24 244.51 374.69 242.4 376 239.96 381.77 240.96 386.75 242.76 389.15 244.16 390.5 244.61 391.33 244.58 393.84 244.45 394.73 244.44 394.79 240.65 394.24 227.92 389.18 222.71 388.96 214.41 392.04 210.02 392.12 207.1 390.04 210.89 383.49 210.39 379.35 204.38 375.05 194.98 371.85 185.22 370.39 170.36 371.97 161.91 368.08 152.78 362.39 152.78 362.34 152.71 357.23 151.88 353.51 150.68 353.25 148.76 353.2 143.74 354.23 142.82 353.99 142.6 353.42 142.86 352.56 142.86 351.5 142.16 350.09 141.02 346.44 139.24 345.19 134.34 342.82 132.98 342.45 132.05 342.58 131.39 342.93 130.21 342.85 129.59 342.36 128.63 340.24 136.81 335.13 146.03 323.85 146.97 318.7 146.43 317.49 145.4 315.71 144.25 314.55 143.01 313.58 141.68 313.03 138.88 312.56 138.77 306.49 137.98 301.84 138.77 299.07 139.95 297.26 143.37 295.45 143.67 291.11 146.31 286.84 148.42 284.25 148.67 282.56 148.16 281.36 146.51 279.81 145.47 278.54 143.52 273.69 160.15 274.02 166.83 275.16 169.92 276.31 173.93 278.31 175.92 278.81 183.19 279.74 185.48 278.87 185.7 278.18 185.84 277.37 185.66 276.67 185.29 275.86 185.07 274.96 184.85 273.27 185 271.19 188.35 262.08 189.97 259.03 190.78 256.66 191.42 250.81 195.4 253.47 196.91 256.12 197.83 258.68 198.6 261.97 199.45 262.93 200.41 263.25 202.07 262.74 209.52 264.6 210.73 265.35 211.25 267.29 197.83 275.63 192.96 281.43 193.15 283.33 199.37 286.39 201.95 288.16 207.82 290.83 213.27 290.22 Z" id="BTN-2433" data-name="Chhukha"/>
<path d="M 316.58 299.22 317.79 307.03 316.39 311.03 318.24 313.18 318.01 318.53 316.98 325.93 316.95 326.76 316.91 333.64 314.59 339.94 310.93 343.73 308.72 347.39 304.52 349.47 303.75 351.11 303.82 352.23 303.34 354.41 303.34 355.39 303.82 357.51 303.78 358.15 295.04 363.44 294.16 364.39 293.27 365.55 293.83 365.95 294.38 366.29 294.9 366.36 294.67 367.23 293.67 367.38 292.35 367.13 291.21 366.45 290.66 365.41 290.5 363.81 289.96 362.02 289.19 360.39 287.16 358.98 286.17 358.87 285.58 359.4 285.61 361.56 285.39 363.31 284.75 365.3 283.8 367.19 282.96 367.91 282.1 368.03 281.44 367.64 281 367.13 280.78 366.46 280.65 365.87 280.26 364.6 278.97 367.6 277.57 368.31 271.44 370.39 269.23 370.45 267.58 369.76 265.13 367.45 263.56 366.25 260.43 365.05 259.03 365.09 258.33 365.57 258.55 367.5 258.48 368.5 258.11 369.42 257.77 370.05 257.33 371.45 254.23 370.15 253.27 370.04 251.58 370.04 250.44 370.21 246.16 371.24 247.55 370.19 248.04 369.49 249.61 366.65 250.11 364.93 250.7 362.04 250.99 358.91 250.77 356.58 249.59 353.4 246.94 349.93 246.46 348.97 246.64 345.96 250.66 338.54 247.64 328 246.46 324.97 241.7 316.53 226.8 316.45 227.39 313.28 227.94 312.21 228.28 310.87 226.95 308.42 221.35 306.75 216.81 294.87 213.27 290.22 215.61 283.81 216.49 278.3 217.69 275.39 218.85 273.62 220.06 272.81 221.35 272.17 224.04 271.22 225.51 270.5 227.5 268.66 229.09 266.3 231.05 261.25 233.74 261.76 247.49 259.16 252.56 261.69 259.62 261.16 261.61 261.84 265.11 263.86 267.98 266.42 273.11 270.15 275.47 272.62 277.17 274.91 277.79 276.1 279.01 278.97 282.03 283.88 287.68 290.59 297.47 291.6 306.73 295.19 310.41 295.78 316.58 299.22 Z" id="BTN-2434" data-name="Daga"/>
<path d="M 89.45 175.58 90.1 176.21 94.78 180.74 102.19 186.32 105.18 187.43 106.25 187.64 107.57 188.19 110.53 190.12 111.22 190.42 112.08 190.46 112.96 190.24 114.03 189.8 115.32 189.96 116.5 191.53 120.81 203.28 121.51 206.18 123.64 210.14 126.53 212.21 128.22 213.82 129.77 214.81 130.58 218.56 133.31 222 139.65 231.82 143.34 236.34 153.26 249.1 151.2 251.71 148.27 254.01 146.75 254.69 143.26 255.89 141.83 256.69 140.46 258.07 139.51 259.66 138.99 261.71 141.02 265.8 141.42 268.31 143.52 273.69 145.47 278.54 146.51 279.81 148.16 281.36 148.67 282.56 148.42 284.25 146.31 286.84 143.67 291.11 143.37 295.45 132.46 293.56 127.34 295.61 125.12 299.82 124.53 301.7 121.43 306.01 121.21 306.22 110.41 293.75 102.45 300.19 98.88 299.93 98.18 298.99 97.61 296.97 97.17 296.09 96.71 295.33 96.26 294.48 95.63 293.84 95.22 293.16 94.93 292.42 94.63 291.03 93.71 289.4 76.57 287.85 72 286.04 71.66 285.2 71.63 284.36 71.34 283.43 70.85 282.5 69.74 280.87 69.23 279.78 68.91 278.72 68.75 277.89 68.71 277.31 68.71 276.86 68.68 276.36 68.53 275.72 68.12 274.78 67.64 273.78 67.53 272.65 66.53 270.36 65.8 270 64.99 270.09 63.56 270.92 62.97 271.49 61.6 272.45 58.95 272.73 53.27 267.02 50.25 261.92 49.1 261.11 47.34 260.2 38.89 258.16 35.7 257.1 37.72 255.71 39.55 248.77 44.98 245.13 53.45 245.76 58.47 249.52 64.43 245.13 60.66 239.49 56.58 230.39 53.51 220.83 55.05 215.18 57.1 210.17 61.09 206.7 60.39 205.43 59.24 203.32 58.71 200.75 59.99 197.75 63.42 196.04 66.31 193.15 65.78 190.58 68.99 186.93 73.06 186.18 74.56 182.54 77.24 179.22 80.35 177.4 86.88 175.04 89.45 175.58 Z" id="BTN-2435" data-name="Ha"/>
<path d="M 191.42 250.81 190.78 256.66 189.97 259.03 188.35 262.08 185 271.19 184.85 273.27 185.07 274.96 185.29 275.86 185.66 276.67 185.84 277.37 185.7 278.18 185.48 278.87 183.19 279.74 175.92 278.81 173.93 278.31 169.92 276.31 166.83 275.16 160.15 274.02 143.52 273.69 141.42 268.31 141.02 265.8 138.99 261.71 139.51 259.66 140.46 258.07 141.83 256.69 143.26 255.89 146.75 254.69 148.27 254.01 151.2 251.71 153.26 249.1 143.34 236.34 139.65 231.82 133.31 222 130.58 218.56 129.77 214.81 128.22 213.82 126.53 212.21 123.64 210.14 121.51 206.18 120.81 203.28 116.5 191.53 115.32 189.96 114.03 189.8 112.96 190.24 112.08 190.46 111.22 190.42 110.53 190.12 107.57 188.19 106.25 187.64 105.18 187.43 102.19 186.32 94.78 180.74 90.1 176.21 89.45 175.58 90.29 175.74 91.17 175.9 93.52 176.86 94.75 177.66 95.39 174.71 102.2 165.58 112.23 150.16 114.04 146.16 118.23 147.36 119.52 147.89 123.1 148.79 124.16 149.29 125.68 150.62 126.44 151.07 131.35 152.64 133.2 152.89 135.22 152.5 137.81 151 140.46 149.81 146.21 149.5 148.67 149.12 152.15 147.27 156.68 145.98 156.17 152.91 156.24 154.41 156.65 157.48 157.02 158.76 160.55 163.47 154.03 170.1 157.71 169.7 159.37 170.16 161.55 171.26 165.68 174.87 171.06 181.37 174.52 187.44 177.03 189.53 179.68 190.62 177.81 194.32 177.3 197.32 177.08 202.81 175.26 213.45 174.97 222.38 176.64 224.95 178.58 225.81 179.58 226 182.53 227.02 183.52 227.97 184.08 229.82 184.41 232.21 182.68 238.62 188.72 241.9 190.24 243.41 191.07 244.51 191.34 250.05 191.42 250.81 Z" id="BTN-2436" data-name="Paro"/>
<path d="M 415.64 68.96 404.88 69.13 399.73 72.65 399.16 77.52 397.65 80.54 395.11 84.07 392.9 85.83 385.44 89.79 383.97 92.03 383.57 94 384.05 95.36 383.82 97.2 384.05 98.29 384.63 99.39 385.08 100.58 385.3 101.64 385.33 103.97 385.67 105.46 385.78 106.74 385.15 108.01 383.82 108.9 381.32 109.08 379.85 109.35 378.43 109.36 375.12 108.57 373.54 108.62 372.21 109.11 370.77 110.23 369.63 110.92 368.19 111.06 366.17 109.89 362.91 107.31 358.27 100.51 357.76 99.08 357.76 98.45 357.94 97.83 358.2 97.18 357.87 96.08 357.1 94.72 353.14 91.71 349.29 91.85 341.47 92.35 340.32 92.57 339.26 93.3 338.19 94.57 336.49 98.6 326.46 114 325.58 115.75 324.02 117.58 321.92 119.58 317.09 121.85 314.48 122.72 309.6 123.47 308.43 123.78 307.36 123.95 306.29 124.02 305.26 124.9 304.56 125.7 303.31 133.38 299.33 132.51 298.36 131.99 295.61 130.12 284.53 126.15 278.79 121.89 277.49 121.11 276.13 120.95 274.51 121.32 271.64 122.51 269.97 123 268.39 123.31 267.17 123.41 264.04 123.97 262.83 124.35 261.46 125.55 260.03 127.33 255.48 134.26 247.67 143.2 240.92 143.66 237.09 144.26 232.52 147 233.74 149.28 224.33 151.9 219.95 150.53 218.06 150.19 216.49 150.16 213.79 150.38 212.2 150.75 211.25 151.08 209.66 153.8 200.77 149.21 199.89 148.51 198.86 147.42 198.49 145.6 196.82 141.78 196.13 138.94 190.98 138.62 189.36 139.41 188.79 140.2 187.28 141.96 185.62 144.35 184.78 144.57 183.97 144.52 183.15 144.19 182.45 143.8 181.83 143.36 181.24 142.83 180.69 142.24 180.17 141.52 179.8 140.88 179.21 139.32 181.17 137.32 182.49 132.28 182.68 130.38 182.57 128.81 182.16 127.47 181.76 125.63 182.27 124.33 183.41 122.5 191.64 112.94 192.78 111.94 194.09 111.18 195.32 110.6 196.98 109.58 197.16 108.87 196.46 108.36 190.63 107.35 187.5 106.26 186.03 104.02 184.59 96.08 181.68 92.65 175.19 89.36 173.16 88.68 169.88 88.38 164.3 88.85 165.16 87.41 165.2 87.41 170.75 78.74 174.14 74.8 178.07 71.58 182.82 70 187.5 66.69 198.54 54.16 202.8 51.79 207.17 50.56 235.68 45.98 244.72 42.35 248.94 35.6 250.66 31.8 254.27 29.09 262.27 24.58 264.38 22.5 268.04 17.9 270.16 15.87 272.7 14.73 274.53 15.46 282.8 11.17 291.45 12.92 295.98 10.59 300.46 9.98 319.56 4.13 332.08 6.48 339.12 9.6 344.59 8.82 350.07 3.35 356.32 1 364.93 6.48 364.93 15.08 371.98 24.06 381.01 25.38 386.83 15.08 394.65 15.08 401.69 18.99 411.08 18.99 422.81 26.81 432.98 27.59 442.36 30.72 444.71 38.54 437.67 40.89 432.98 48.71 425.16 49.5 418.12 56.54 415.64 68.96 Z" id="BTN-2437" data-name="Gasa"/>
<path d="M 143.37 295.45 139.95 297.26 138.77 299.07 137.98 301.84 138.77 306.49 138.88 312.56 141.68 313.03 143.01 313.58 144.25 314.55 145.4 315.71 146.43 317.49 146.97 318.7 146.03 323.85 136.81 335.13 128.63 340.24 129.59 342.36 130.21 342.85 131.39 342.93 132.05 342.58 132.98 342.45 134.34 342.82 139.24 345.19 141.02 346.44 142.16 350.09 142.86 351.5 142.86 352.56 142.6 353.42 142.82 353.99 143.74 354.23 148.76 353.2 150.68 353.25 151.88 353.51 152.71 357.23 152.78 362.34 152.78 362.39 146.31 358.35 136.45 360.71 133.17 360.58 130.14 360.83 127.61 362.63 125.15 364.9 122.35 366.57 115.7 368.16 109 368.75 95.56 368.07 88.06 366.17 84.72 362.7 82.8 357.86 79.55 351.91 75.8 348.19 70.26 344.49 64.33 342.1 59.27 342.34 57.01 343.83 54.34 344.5 51.54 344.25 49.06 342.93 47.39 340.53 47.41 338.23 47.78 335.76 47.19 332.85 42.95 328.24 38.15 328.74 33.56 332.24 29.9 336.71 28.45 324.97 28.45 324.95 28.45 311.97 27.31 305.87 24.18 300.49 18.86 296.89 3.97 289.83 1.72 288.35 1 287.88 2.99 281.03 6.77 273.23 11.88 266.51 17.89 262.82 32.21 259.5 35.7 257.1 38.89 258.16 47.34 260.2 49.1 261.11 50.25 261.92 53.27 267.02 58.95 272.73 61.6 272.45 62.97 271.49 63.56 270.92 64.99 270.09 65.8 270 66.53 270.36 67.53 272.65 67.64 273.78 68.12 274.78 68.53 275.72 68.68 276.36 68.71 276.86 68.71 277.31 68.75 277.89 68.91 278.72 69.23 279.78 69.74 280.87 70.85 282.5 71.34 283.43 71.63 284.36 71.66 285.2 72 286.04 76.57 287.85 93.71 289.4 94.63 291.03 94.93 292.42 95.22 293.16 95.63 293.84 96.26 294.48 96.71 295.33 97.17 296.09 97.61 296.97 98.18 298.99 98.88 299.93 102.45 300.19 110.41 293.75 121.21 306.22 121.43 306.01 124.53 301.7 125.12 299.82 127.34 295.61 132.46 293.56 143.37 295.45 Z" id="BTN-2438" data-name="Samchi"/>
<path d="M 209.66 153.8 213.31 158.73 213.82 159.63 214.97 165.42 215.11 170.12 214.34 173.01 214.3 174.58 214.93 176.5 216.19 178.68 218.13 180.84 219.58 182.98 221.42 186.85 222.71 189 225.92 191.74 228.84 195.71 235.25 191.12 244.97 188.29 246.64 190.59 250.58 195.84 250.99 197.06 252.24 198.46 252.98 198.96 258.65 199.66 259.14 201.82 259.03 203.03 258.63 205.46 257.67 208.44 253.97 211.49 241.55 214.59 240.41 218.97 240.07 223.48 241.88 228.29 229.23 238.09 231.15 240.09 233 241.34 233.74 241.69 234.14 242.27 234.22 244.7 233.7 247.32 233.74 261.76 231.05 261.25 229.09 266.3 227.5 268.66 225.51 270.5 224.04 271.22 221.35 272.17 220.06 272.81 218.85 273.62 217.69 275.39 216.49 278.3 215.61 283.81 213.27 290.22 207.82 290.83 201.95 288.16 199.37 286.39 193.15 283.33 192.96 281.43 197.83 275.63 211.25 267.29 210.73 265.35 209.52 264.6 202.07 262.74 200.41 263.25 199.45 262.93 198.6 261.97 197.83 258.68 196.91 256.12 195.4 253.47 191.42 250.81 191.34 250.05 191.07 244.51 190.24 243.41 188.72 241.9 182.68 238.62 184.41 232.21 184.08 229.82 183.52 227.97 182.53 227.02 179.58 226 178.58 225.81 176.64 224.95 174.97 222.38 175.26 213.45 177.08 202.81 177.3 197.32 177.81 194.32 179.68 190.62 177.03 189.53 174.52 187.44 171.06 181.37 165.68 174.87 161.55 171.26 159.37 170.16 157.71 169.7 154.03 170.1 160.55 163.47 157.02 158.76 156.65 157.48 156.24 154.41 156.17 152.91 156.68 145.98 152.15 147.27 148.67 149.12 146.21 149.5 140.46 149.81 137.81 151 135.22 152.5 133.2 152.89 131.35 152.64 126.44 151.07 125.68 150.62 124.16 149.29 123.1 148.79 119.52 147.89 118.23 147.36 114.04 146.16 116.59 140.53 118.57 131.81 126.6 127.12 136.29 123.16 144.97 117.26 153.07 107.69 164.3 88.85 169.88 88.38 173.16 88.68 175.19 89.36 181.68 92.65 184.59 96.08 186.03 104.02 187.5 106.26 190.63 107.35 196.46 108.36 197.16 108.87 196.98 109.58 195.32 110.6 194.09 111.18 192.78 111.94 191.64 112.94 183.41 122.5 182.27 124.33 181.76 125.63 182.16 127.47 182.57 128.81 182.68 130.38 182.49 132.28 181.17 137.32 179.21 139.32 179.8 140.88 180.17 141.52 180.69 142.24 181.24 142.83 181.83 143.36 182.45 143.8 183.15 144.19 183.97 144.52 184.78 144.57 185.62 144.35 187.28 141.96 188.79 140.2 189.36 139.41 190.98 138.62 196.13 138.94 196.82 141.78 198.49 145.6 198.86 147.42 199.89 148.51 200.77 149.21 209.66 153.8 Z" id="BTN-2439" data-name="Thimphu"/>
<path d="M 303.31 133.38 303.6 140.49 301.32 144.53 298.96 146.39 295.26 149.94 294.34 151.08 293.75 152.41 293.16 154.19 292.98 156.8 293.27 159.18 295.14 160.94 296.81 161.73 298.43 161.91 301.57 161.45 303.2 161.56 304.96 162.23 306.66 163.6 308.61 165.72 310.49 167.4 311.27 168.53 311.37 170.28 310.76 171.74 307.36 174.85 301.94 176.41 295.93 183.68 287.6 189.85 287.57 189.91 286.42 193.5 280.85 197.67 269.09 200.28 268.79 200.28 258.96 199.66 258.65 199.66 252.98 198.96 252.24 198.46 250.99 197.06 250.58 195.84 246.64 190.59 244.97 188.29 235.25 191.12 228.84 195.71 225.92 191.74 222.71 189 221.42 186.85 219.58 182.98 218.13 180.84 216.19 178.68 214.93 176.5 214.3 174.58 214.34 173.01 215.11 170.12 214.97 165.42 213.82 159.63 213.31 158.73 209.66 153.8 211.25 151.08 212.2 150.75 213.79 150.38 216.49 150.16 218.06 150.19 219.95 150.53 224.33 151.9 233.74 149.28 232.52 147 237.09 144.26 240.92 143.66 247.67 143.2 255.48 134.26 260.03 127.33 261.46 125.55 262.83 124.35 264.04 123.97 267.17 123.41 268.39 123.31 269.97 123 271.64 122.51 274.51 121.32 276.13 120.95 277.49 121.11 278.79 121.89 284.53 126.15 295.61 130.12 298.36 131.99 299.33 132.51 303.31 133.38 Z" id="BTN-2440" data-name="Punakha"/>
<path d="M 482.17 73.04 481.04 80.54 481.04 82.96 481.26 84.87 482.08 87.22 482.33 92.84 481.81 94.61 481.15 95.63 478.79 96.98 477.73 98.07 477.1 99.27 476.8 100.91 475.63 102.96 475.88 104.04 476.77 105.29 479.53 107.42 481.19 108.23 482.67 108.71 485.33 109.22 486.54 109.67 487.9 111.06 491.44 118.45 492.03 124.58 495.39 125.99 498.86 129.13 500.7 131.51 502.06 132.8 503.05 133.41 504.71 133.72 505.73 134.13 508.1 135.47 509.54 136.01 510.35 137.54 512.68 146.78 512.68 152.36 513.2 153.12 514.78 153.84 518.54 154.24 519.61 154.48 520.71 155.11 527.35 160.84 528.2 162.56 528.9 164.96 529.82 170.37 530.21 175.89 528.53 180.88 526.39 187.05 526.03 188.66 525.95 189.52 528.09 193.75 528.64 199.41 528.49 200.87 527.87 202.11 527.65 203.12 528.15 204.43 529.42 205.92 532.1 207.67 535.79 212.06 532.1 219.32 531 220.62 529.89 221.75 529.53 223.32 529.45 224.45 533.14 231.09 528.31 232.49 527.54 232.89 524.07 236.05 523.34 238.42 522.67 239.05 521.15 239.83 519.35 240.55 513.93 240.75 510.86 242.85 508.1 243.27 500.7 246.25 493.16 243.07 490.33 240.33 489.82 239.29 489.23 238.48 487.2 236.97 485.21 235.07 484.22 234.35 482.82 234.02 481.67 233.91 480.34 233.95 478.83 234.15 477.21 234.91 475.92 235.72 474.78 240.82 461.76 228.09 456.96 224.99 455.16 224.21 452.03 223.31 449.82 222.46 448.6 221.64 447.53 220.22 446.8 219.6 445.84 219.19 443.41 218.73 437.58 216.86 435.66 212.06 436.95 209.1 435.92 203.06 430.34 186.13 428.43 185.08 427.57 182.09 426.62 175.59 426.04 174.9 424.93 174.06 424.62 173.04 424.6 171.27 425 168.44 425.08 166.55 425.3 165.19 427.07 160.05 427.69 153.82 427.66 150.99 427.35 148.94 426.85 147.81 426.29 146.9 423.53 143.25 422.87 142.59 421.76 141.99 420.47 141.58 419.15 141.5 418.07 141.67 417.26 141.87 416.52 141.81 415.83 141.34 415.16 140.69 413.21 139.32 411.44 129.87 411.66 128.89 412.25 127.72 413.06 127.79 414.31 127.09 415.76 125.3 418.41 120.75 419.7 113.86 419.44 111.57 419.15 110.19 418.63 109.25 417.97 108.41 417.4 107.48 416.96 105.73 416.57 104.65 415.93 103.71 415.24 103.28 414.46 103 411.61 102.38 411.03 102 410.48 101.14 409.78 99.6 409.12 97.77 408.49 96.66 407.75 95.83 407.53 95.31 407.61 94.77 407.94 94.3 408.49 93.73 409.15 92.83 409.82 91.64 410.48 89.49 410.44 87.82 409.89 86.16 404.68 80.16 408.43 74.56 415.64 68.96 419.76 68.47 423.91 68.55 439.41 70.51 444.66 69.38 450.48 68.82 457.41 65.48 461.31 64.69 465.21 65.46 475.43 71.49 482.17 73.04 Z" id="BTN-2480" data-name="Bumthang"/>
<path d="M 377.03 283.24 381.5 288.44 378.07 290.48 375.27 291.8 371.47 294.16 369.63 295.57 366.28 298.73 365.54 300.2 365.05 304.93 364.54 307.23 362.23 313.05 358.53 316.42 359.01 324.53 355.25 329.97 351.23 333.72 349.24 336.95 349.07 339.37 347.4 342.01 343.68 344.19 335.23 355.65 335.01 356.56 335.08 357.3 335.34 357.89 335.46 358.43 335.54 359.05 335.56 360.75 334.71 361.66 333.17 362.22 328.89 363 326.46 363.82 323.43 365.73 322.32 367.16 321 368.27 319.12 369.1 313.74 368.11 310.56 367.61 309.06 366.67 306.4 363.24 305.99 360.47 303.78 358.15 303.82 357.51 303.34 355.39 303.34 354.41 303.82 352.23 303.75 351.11 304.52 349.47 308.72 347.39 310.93 343.73 314.59 339.94 316.91 333.64 316.95 326.76 316.98 325.93 318.01 318.53 318.24 313.18 316.39 311.03 317.79 307.03 316.58 299.22 316.25 282.85 321.18 281.75 333.39 286.58 336.59 287 345 286.43 348.5 285.41 349.65 285.37 350.54 285.74 354.04 288.42 356.53 289.7 358.79 291.66 365.71 288.23 370.94 286.78 377.03 283.24 Z" id="BTN-2481" data-name="Chirang"/>
<path d="M 425.52 293.88 426.92 297.65 431.2 301.49 435.15 304.25 441.22 307.24 444.69 308.49 446.01 308.82 447.26 308.82 448.49 308.42 450.44 307.48 452.47 306.74 458.04 309.38 460.18 311.65 461.29 313.14 461.58 315.66 462.12 317.73 463.57 319.22 464.05 320.48 464.08 322.98 464.31 324.37 464.97 326.27 465.19 327.37 464.71 329.21 463.27 331.19 464.38 334.93 466.59 335.96 473.71 336.97 474.91 337.65 476.51 338.94 478.46 341.73 480.01 343.31 481.04 343.83 482.4 344.11 483.41 344.75 484.66 346.11 486.91 347.37 488.64 350.18 489.19 351.7 491.66 355.98 492.18 357.21 493.16 362.17 494.68 365.3 496.01 366.59 497.33 367.19 501.32 366.33 510.1 367.1 512.31 367.59 513.53 367.73 522.26 367.15 523.07 366.91 523.95 366.45 527.98 364.75 530.3 374.2 529.71 374.68 529.06 375.01 527.61 375.43 527.17 376.21 527.13 376.28 473.1 379.09 442.38 376 415.64 363.56 393.63 349.45 385.6 348.3 380.79 349.72 377.38 352.17 374.21 355.04 370.31 357.7 365.92 359 357.17 358.7 352.83 359.03 344.88 363.65 338.89 377.97 332.94 382.81 323.91 385.11 296.85 387.45 281.84 391.05 276.69 391.49 274.28 391.16 269.44 389.82 269.15 389.78 267.27 389.51 266.37 389.12 264.48 387.6 263.51 387.53 262.27 388.46 261.78 389.69 261.68 390.77 261.56 391.29 261.57 391.81 261.2 393.2 260.46 394.78 259.31 395.92 258.45 395.94 256.17 395.08 255.23 394.9 245.77 394.98 244.44 394.79 244.45 394.73 244.58 393.84 244.61 391.33 244.16 390.5 242.76 389.15 240.96 386.75 239.96 381.77 242.4 376 244.51 374.69 246.16 371.24 250.44 370.21 251.58 370.04 253.27 370.04 254.23 370.15 257.33 371.45 257.77 370.05 258.11 369.42 258.48 368.5 258.55 367.5 258.33 365.57 259.03 365.09 260.43 365.05 263.56 366.25 265.13 367.45 267.58 369.76 269.23 370.45 271.44 370.39 277.57 368.31 278.97 367.6 280.26 364.6 280.65 365.87 280.78 366.46 281 367.13 281.44 367.64 282.1 368.03 282.96 367.91 283.8 367.19 284.75 365.3 285.39 363.31 285.61 361.56 285.58 359.4 286.17 358.87 287.16 358.98 289.19 360.39 289.96 362.02 290.5 363.81 290.66 365.41 291.21 366.45 292.35 367.13 293.67 367.38 294.67 367.23 294.9 366.36 294.38 366.29 293.83 365.95 293.27 365.55 294.16 364.39 295.04 363.44 303.78 358.15 305.99 360.47 306.4 363.24 309.06 366.67 310.56 367.61 313.74 368.11 319.12 369.1 321 368.27 322.32 367.16 323.43 365.73 326.46 363.82 328.89 363 333.17 362.22 334.71 361.66 335.56 360.75 335.54 359.05 335.46 358.43 335.34 357.89 335.08 357.3 335.01 356.56 335.23 355.65 343.68 344.19 347.4 342.01 349.07 339.37 349.24 336.95 351.23 333.72 355.25 329.97 359.01 324.53 358.53 316.42 362.23 313.05 364.54 307.23 365.05 304.93 365.54 300.2 366.28 298.73 369.63 295.57 371.47 294.16 375.27 291.8 378.07 290.48 381.5 288.44 377.03 283.24 377.11 279.54 379.33 277.02 382.72 274.01 397.69 281.59 405.4 287.17 408.38 288.82 410.22 290.73 411.61 291.53 412.73 291.99 413.76 292.23 414.75 292.36 415.78 292.26 417.16 292.25 418.51 292.45 422.02 293.5 425.52 293.88 Z" id="BTN-2482" data-name="Geylegphug"/>
<path d="M 644.02 88.68 639.83 92.75 636.29 95.59 635.08 96.14 633.9 96.25 631.58 95.64 630.47 95.61 629.1 96.3 621.47 104.39 620.3 105.13 619.23 105.47 618.12 105.61 617.09 105.94 616.38 107.03 616.06 108.39 616.23 111.17 615.57 130.86 614.5 134.95 614.54 137.57 614.02 141.5 612.92 144.26 611.92 146.01 611.44 147.71 611.63 149.39 613.29 154.83 613.36 156.63 612.25 162.4 613.29 176.8 610.93 181.86 613.87 185.63 611.48 186.23 610.49 186.37 609.31 186.97 608.6 188.08 608.87 192.02 608.53 193.91 602.78 198.11 600.38 200.42 598.5 204.43 599.87 207.35 601.63 209.37 602.01 210.47 601.6 214.75 598.5 221.89 579.34 231.09 573.87 223.4 572.25 222.5 567.71 221.71 563.58 221.52 558.53 223.03 545.34 233.34 533.14 231.09 529.45 224.45 529.53 223.32 529.89 221.75 531 220.62 532.1 219.32 535.79 212.06 532.1 207.67 529.42 205.92 528.15 204.43 527.65 203.12 527.87 202.11 528.49 200.87 528.64 199.41 528.09 193.75 525.95 189.52 526.03 188.66 526.39 187.05 528.53 180.88 530.21 175.89 529.82 170.37 528.9 164.96 528.2 162.56 527.35 160.84 520.71 155.11 519.61 154.48 518.54 154.24 514.78 153.84 513.2 153.12 512.68 152.36 512.68 146.78 510.35 137.54 509.54 136.01 508.1 135.47 505.73 134.13 504.71 133.72 503.05 133.41 502.06 132.8 500.7 131.51 498.86 129.13 495.39 125.99 492.03 124.58 491.44 118.45 487.9 111.06 486.54 109.67 485.33 109.22 482.67 108.71 481.19 108.23 479.53 107.42 476.77 105.29 475.88 104.04 475.63 102.96 476.8 100.91 477.1 99.27 477.73 98.07 478.79 96.98 481.15 95.63 481.81 94.61 482.33 92.84 482.08 87.22 481.26 84.87 481.04 82.96 481.04 80.54 482.17 73.04 490.11 74.87 504.9 75.69 518.82 78.39 530.95 87.41 534.41 90.41 542.42 94.05 552.66 94.99 562.31 92.88 568.69 87.41 568.69 87.39 568.74 87.37 572.11 82.8 582.1 72.49 586.57 69.38 592.73 68.36 598.8 69.17 604.4 68.84 609.26 64.43 613.87 72.75 621.44 78.89 639.83 87.41 644.02 88.68 Z" id="BTN-2483" data-name="Lhuntshi"/>
<path d="M 690.68 143.31 689.21 153.53 678.09 167.41 676.52 176.51 681.7 193.93 683.93 197.31 690.68 202.18 692.77 206.14 696.5 209.9 701.93 211.4 707.8 212.37 713.05 214.45 713.07 214.47 712.98 214.87 712.39 216.22 711.07 217.68 709.22 218.45 702.77 219.32 694.54 222.35 680.57 226.32 677.92 226.5 672.46 232.17 671.43 233 665.64 235.03 664.86 236.01 642.83 229.22 633.61 228.27 637.44 221.65 637.95 219.58 637.69 218.66 634.71 212.25 618.15 192.52 613.87 185.63 610.93 181.86 613.29 176.8 612.25 162.4 613.36 156.63 613.29 154.83 611.63 149.39 611.44 147.71 611.92 146.01 612.92 144.26 614.02 141.5 614.54 137.57 614.5 134.95 615.57 130.86 616.23 111.17 616.06 108.39 616.38 107.03 617.09 105.94 618.12 105.61 619.23 105.47 620.3 105.13 621.47 104.39 629.1 96.3 630.47 95.61 631.58 95.64 633.9 96.25 635.08 96.14 636.29 95.59 639.83 92.75 644.02 88.68 646.39 89.39 649.82 89.87 658.52 89.93 668.02 93.43 677.79 94.54 683.02 95.83 688.03 97.86 691.89 100.47 695.42 105.93 694.49 110.57 691.69 115.32 689.6 121.15 689.36 126.58 690.68 143.31 Z" id="BTN-2484" data-name="Tashi Yangtse"/>
<path d="M 524.07 236.05 526.98 244.22 528.9 248.07 531.18 255.89 533.47 261.03 534.28 261.51 537.78 264.4 538.41 265.76 538.71 266.75 538.82 270.74 541.18 273.62 541.47 277.43 541.1 281.23 540.77 282.72 539.23 286.21 537.6 290.42 538.07 296.8 545.86 312.1 554.82 314.52 555.89 315.22 558.76 317.8 560.97 328.62 562.31 329.88 564.32 331.39 566.36 331.66 568.13 332.43 570.48 333.98 572.18 336.27 574.02 337.75 575.99 338.59 577.16 338.67 579.85 337.17 584.09 337.49 581.45 346.12 578.94 349.76 574.83 351.29 563.61 351.75 561.48 356.11 560.81 356 559.83 355.71 559.31 355.74 556.33 357.45 545.95 359.49 544.53 360.2 542.83 361.41 541.66 363.17 541.29 364.53 540.59 366.14 540.4 367.04 540.44 368.04 543.33 374.92 543.35 374.98 542.07 375.51 527.13 376.28 527.17 376.21 527.61 375.43 529.06 375.01 529.71 374.68 530.3 374.2 527.98 364.75 523.95 366.45 523.07 366.91 522.26 367.15 513.53 367.73 512.31 367.59 510.1 367.1 501.32 366.33 497.33 367.19 496.01 366.59 494.68 365.3 493.16 362.17 492.18 357.21 491.66 355.98 489.19 351.7 488.64 350.18 486.91 347.37 484.66 346.11 483.41 344.75 482.4 344.11 481.04 343.83 480.01 343.31 478.46 341.73 476.51 338.94 474.91 337.65 473.71 336.97 466.59 335.96 464.38 334.93 463.27 331.19 464.71 329.21 465.19 327.37 464.97 326.27 464.31 324.37 464.08 322.98 464.05 320.48 463.57 319.22 462.12 317.73 461.58 315.66 461.29 313.14 460.18 311.65 458.04 309.38 452.47 306.74 450.44 307.48 448.49 308.42 447.26 308.82 446.01 308.82 444.69 308.49 441.22 307.24 435.15 304.25 431.2 301.49 426.92 297.65 425.52 293.88 428.13 291.42 432.01 289.97 433.75 288.88 436.84 286.25 438.53 285.39 439.86 285.18 440.97 285.85 442.01 286.72 443.11 287.37 444.54 287.7 453.32 287.15 454.68 286.74 455.12 286.18 454.78 285.48 448.05 277.47 446.38 274.87 463.79 267.66 470.57 263.31 471.21 262.17 471.13 261.38 470.98 260.73 470.94 260.09 470.98 259.47 470.98 258.72 470.91 257.85 470.42 256.23 470.86 253.59 473.05 248.58 474.78 240.82 475.92 235.72 477.21 234.91 478.83 234.15 480.34 233.95 481.67 233.91 482.82 234.02 484.22 234.35 485.21 235.07 487.2 236.97 489.23 238.48 489.82 239.29 490.33 240.33 493.16 243.07 500.7 246.25 508.1 243.27 510.86 242.85 513.93 240.75 519.35 240.55 521.15 239.83 522.67 239.05 523.34 238.42 524.07 236.05 Z" id="BTN-2485" data-name="Shemgang"/>
<path d="M 474.78 240.82 473.05 248.58 470.86 253.59 470.42 256.23 470.91 257.85 470.98 258.72 470.98 259.47 470.94 260.09 470.98 260.73 471.13 261.38 471.21 262.17 470.57 263.31 463.79 267.66 446.38 274.87 448.05 277.47 454.78 285.48 455.12 286.18 454.68 286.74 453.32 287.15 444.54 287.7 443.11 287.37 442.01 286.72 440.97 285.85 439.86 285.18 438.53 285.39 436.84 286.25 433.75 288.88 432.01 289.97 428.13 291.42 425.52 293.88 422.02 293.5 418.51 292.45 417.16 292.25 415.78 292.26 414.75 292.36 413.76 292.23 412.73 291.99 411.61 291.53 410.22 290.73 408.38 288.82 405.4 287.17 397.69 281.59 382.72 274.01 387.18 268.31 388.43 264.4 388.32 261.27 384.3 259.06 383.31 252.33 382.28 250 380.58 248.24 373.39 242.55 372.39 241.18 371.95 240.11 372.14 239.34 372.1 238.36 372.36 237.5 369.3 234.16 365.49 228.14 364.31 220.88 363.58 218.99 359.31 212.49 367.9 210.62 369.34 209.72 373.46 206.18 375.56 205.22 378.74 204.41 380.55 204.3 381.91 204.52 383.15 205.11 383.93 205.02 384.52 204.62 385.33 203.76 386.4 203.03 388.92 200.82 382.02 197.72 379.48 194.92 375.27 187.13 374.82 186 373.83 183.92 373.72 183.25 373.42 182.35 372.98 181.29 371.88 179.31 371.47 177.98 371.55 176.34 374.71 172.56 375.46 171.1 375.93 166.8 376.42 165.3 376.96 164.3 377.92 163.19 378.74 162.65 379.63 162.53 380.42 162.77 381.28 163.16 382.17 163.36 383.01 163.42 384.4 163.33 386.4 162.96 388.06 162.39 389.39 162.09 390.64 162.08 393 163.6 394.15 163.96 395.37 163.95 406.21 159.86 408.71 158.16 409.96 156.31 410.88 153.73 413.06 142.69 413.21 139.32 415.16 140.69 415.83 141.34 416.52 141.81 417.26 141.87 418.07 141.67 419.15 141.5 420.47 141.58 421.76 141.99 422.87 142.59 423.53 143.25 426.29 146.9 426.85 147.81 427.35 148.94 427.66 150.99 427.69 153.82 427.07 160.05 425.3 165.19 425.08 166.55 425 168.44 424.6 171.27 424.62 173.04 424.93 174.06 426.04 174.9 426.62 175.59 427.57 182.09 428.43 185.08 430.34 186.13 435.92 203.06 436.95 209.1 435.66 212.06 437.58 216.86 443.41 218.73 445.84 219.19 446.8 219.6 447.53 220.22 448.6 221.64 449.82 222.46 452.03 223.31 455.16 224.21 456.96 224.99 461.76 228.09 474.78 240.82 Z" id="BTN-2486" data-name="Tongsa"/>
<path d="M 413.21 139.32 413.06 142.69 410.88 153.73 409.96 156.31 408.71 158.16 406.21 159.86 395.37 163.95 394.15 163.96 393 163.6 390.64 162.08 389.39 162.09 388.06 162.39 386.4 162.96 384.4 163.33 383.01 163.42 382.17 163.36 381.28 163.16 380.42 162.77 379.63 162.53 378.74 162.65 377.92 163.19 376.96 164.3 376.42 165.3 375.93 166.8 375.46 171.1 374.71 172.56 371.55 176.34 371.47 177.98 371.88 179.31 372.98 181.29 373.42 182.35 373.72 183.25 373.83 183.92 374.82 186 375.27 187.13 379.48 194.92 382.02 197.72 388.92 200.82 386.4 203.03 385.33 203.76 384.52 204.62 383.93 205.02 383.15 205.11 381.91 204.52 380.55 204.3 378.74 204.41 375.56 205.22 373.46 206.18 369.34 209.72 367.9 210.62 359.31 212.49 363.58 218.99 364.31 220.88 365.49 228.14 369.3 234.16 372.36 237.5 372.1 238.36 372.14 239.34 371.95 240.11 372.39 241.18 373.39 242.55 380.58 248.24 382.28 250 383.31 252.33 384.3 259.06 388.32 261.27 388.43 264.4 387.18 268.31 382.72 274.01 379.33 277.02 377.11 279.54 377.03 283.24 370.94 286.78 365.71 288.23 358.79 291.66 356.53 289.7 354.04 288.42 350.54 285.74 349.65 285.37 348.5 285.41 345 286.43 336.59 287 333.39 286.58 321.18 281.75 316.25 282.85 316.58 299.22 310.41 295.78 306.73 295.19 297.47 291.6 287.68 290.59 282.03 283.88 279.01 278.97 277.79 276.1 277.17 274.91 275.47 272.62 273.11 270.15 267.98 266.42 265.11 263.86 261.61 261.84 259.62 261.16 252.56 261.69 247.49 259.16 233.74 261.76 233.7 247.32 234.22 244.7 234.14 242.27 233.74 241.69 233 241.34 231.15 240.09 229.23 238.09 241.88 228.29 240.07 223.48 240.41 218.97 241.55 214.59 253.97 211.49 257.67 208.44 258.63 205.46 259.03 203.03 259.14 201.82 258.65 199.66 258.96 199.66 268.79 200.28 269.09 200.28 280.85 197.67 286.42 193.5 287.57 189.91 287.6 189.85 295.93 183.68 301.94 176.41 307.36 174.85 310.76 171.74 311.37 170.28 311.27 168.53 310.49 167.4 308.61 165.72 306.66 163.6 304.96 162.23 303.2 161.56 301.57 161.45 298.43 161.91 296.81 161.73 295.14 160.94 293.27 159.18 292.98 156.8 293.16 154.19 293.75 152.41 294.34 151.08 295.26 149.94 298.96 146.39 301.32 144.53 303.6 140.49 303.31 133.38 304.56 125.7 305.26 124.9 306.29 124.02 307.36 123.95 308.43 123.78 309.6 123.47 314.48 122.72 317.09 121.85 321.92 119.58 324.02 117.58 325.58 115.75 326.46 114 336.49 98.6 338.19 94.57 339.26 93.3 340.32 92.57 341.47 92.35 349.29 91.85 353.14 91.71 357.1 94.72 357.87 96.08 358.2 97.18 357.94 97.83 357.76 98.45 357.76 99.08 358.27 100.51 362.91 107.31 366.17 109.89 368.19 111.06 369.63 110.92 370.77 110.23 372.21 109.11 373.54 108.62 375.12 108.57 378.43 109.36 379.85 109.35 381.32 109.08 383.82 108.9 385.15 108.01 385.78 106.74 385.67 105.46 385.33 103.97 385.3 101.64 385.08 100.58 384.63 99.39 384.05 98.29 383.82 97.2 384.05 95.36 383.57 94 383.97 92.03 385.44 89.79 392.9 85.83 395.11 84.07 397.65 80.54 399.16 77.52 399.73 72.65 404.88 69.13 415.64 68.96 408.43 74.56 404.68 80.16 409.89 86.16 410.44 87.82 410.48 89.49 409.82 91.64 409.15 92.83 408.49 93.73 407.94 94.3 407.61 94.77 407.53 95.31 407.75 95.83 408.49 96.66 409.12 97.77 409.78 99.6 410.48 101.14 411.03 102 411.61 102.38 414.46 103 415.24 103.28 415.93 103.71 416.57 104.65 416.96 105.73 417.4 107.48 417.97 108.41 418.63 109.25 419.15 110.19 419.44 111.57 419.7 113.86 418.41 120.75 415.76 125.3 414.31 127.09 413.06 127.79 412.25 127.72 411.66 128.89 411.44 129.87 413.21 139.32 Z" id="BTN-2487" data-name="Wangdi Phodrang"/>
<path d="M 633.61 228.27 634.75 231.2 632.35 233.38 637.99 236.59 641.34 239.44 647.69 242.65 648.87 243.53 649.38 244.54 649.49 245.5 650.97 247.82 651.44 248.96 651.63 249.78 651.69 250.66 652.26 253.6 642.75 257.95 633.47 265.97 631.76 270.02 631.14 282.15 630.49 285.04 629.96 287.39 628.03 293.12 625.45 298.55 622.35 302.88 617.73 306.28 601.6 312.71 596.66 316.28 592.55 320.72 586.07 331 584.09 337.49 579.85 337.17 577.16 338.67 575.99 338.59 574.02 337.75 572.18 336.27 570.48 333.98 568.13 332.43 566.36 331.66 564.32 331.39 562.31 329.88 560.97 328.62 558.76 317.8 555.89 315.22 554.82 314.52 545.86 312.1 538.07 296.8 537.6 290.42 539.23 286.21 540.77 282.72 541.1 281.23 541.47 277.43 541.18 273.62 538.82 270.74 538.71 266.75 538.41 265.76 537.78 264.4 534.28 261.51 533.47 261.03 531.18 255.89 528.9 248.07 526.98 244.22 524.07 236.05 527.54 232.89 528.31 232.49 533.14 231.09 545.34 233.34 558.53 223.03 563.58 221.52 567.71 221.71 572.25 222.5 573.87 223.4 579.34 231.09 598.5 221.89 601.6 214.75 602.01 210.47 601.63 209.37 599.87 207.35 598.5 204.43 600.38 200.42 602.78 198.11 608.53 193.91 608.87 192.02 608.6 188.08 609.31 186.97 610.49 186.37 611.48 186.23 613.87 185.63 618.15 192.52 634.71 212.25 637.69 218.66 637.95 219.58 637.44 221.65 633.61 228.27 Z" id="BTN-2490" data-name="Mongar"/>
<path d="M 656.97 319.57 647.91 322.1 647.32 324.15 643.14 331.31 642.75 332.88 642.48 335.41 643.29 338.67 643.37 340.07 642.6 341.96 639.17 347.1 636 350.24 633.43 352.46 631.6 354.3 629.56 356.33 627.12 360.81 624.09 361.81 617.48 359.54 619.52 352.55 620.33 351.56 620.55 350.37 620.63 349.33 617.75 343.63 612.33 343.22 610.04 341.86 608.35 340.55 606.88 338.29 605.51 337.67 603.27 337.32 593.97 338.35 587.33 337.74 584.09 337.49 586.07 331 592.55 320.72 596.66 316.28 601.6 312.71 617.73 306.28 622.35 302.88 625.45 298.55 628.03 293.12 629.96 287.39 630.49 285.04 640.42 286.15 637.18 291.18 634.78 293.84 634.38 295.54 634.42 296.64 636.15 298.85 638.39 302.47 639.39 303.47 640.16 304.07 645.22 307.09 646.25 307.89 649.46 309.32 658 309.38 658.34 309.67 656.97 319.57 Z" id="BTN-2491" data-name="Pemagatsel"/>
<path d="M 779.28 281.9 778.62 282.73 776.92 286.2 775.72 290.3 775.03 294.69 774.98 299.03 777.88 306.75 789.72 317.37 793.82 324.95 793.82 324.97 797.85 338.64 797 342.38 795.19 350.41 786.43 358.23 771.99 360.18 767.79 358.37 760.25 352.57 756.1 351.02 752.52 351.93 753.08 355.04 753.08 358.55 747.97 360.74 750.8 363.93 751.04 367.83 749.08 370.55 745.37 370.13 742.84 366.86 742.15 363.01 740.83 359.53 736.36 357.37 729.26 358.55 714.14 367.41 707.14 370.43 695.64 371.75 691.89 371.5 681.38 368.7 677.08 368.85 668.46 371.54 664.02 371.83 660.87 369.35 655.42 358.73 653.19 355.69 649.75 354.78 640.15 354.26 636.86 354.74 632.61 357.37 630.15 361.09 628.24 365.4 625.46 369.8 622.42 372.52 618.74 374.71 614.73 376.33 610.78 377.3 605.89 377.42 602.55 376.24 595.56 372.41 587.4 370.7 570.51 371.05 562.16 370.13 555.06 370.18 543.35 374.98 543.33 374.92 540.44 368.04 540.4 367.04 540.59 366.14 541.29 364.53 541.66 363.17 542.83 361.41 544.53 360.2 545.95 359.49 556.33 357.45 559.31 355.74 559.83 355.71 560.81 356 561.48 356.11 563.61 351.75 574.83 351.29 578.94 349.76 581.45 346.12 584.09 337.49 587.33 337.74 593.97 338.35 603.27 337.32 605.51 337.67 606.88 338.29 608.35 340.55 610.04 341.86 612.33 343.22 617.75 343.63 620.63 349.33 620.55 350.37 620.33 351.56 619.52 352.55 617.48 359.54 624.09 361.81 627.12 360.81 629.56 356.33 631.6 354.3 633.43 352.46 636 350.24 639.17 347.1 642.6 341.96 643.37 340.07 643.29 338.67 642.48 335.41 642.75 332.88 643.14 331.31 647.32 324.15 647.91 322.1 656.97 319.57 660.33 321.38 660.48 321.38 679.54 311.62 690.27 313.73 722.48 303.6 727.8 295.04 732.7 291.16 743.73 287.94 749.84 287.03 753.28 287.22 753.83 286.8 754.04 285.93 754.49 278.31 754.01 273.9 754.53 270.28 755.78 267.53 756.89 266.63 758.07 266.44 759.21 267.12 760.02 268.01 760.52 269.12 761.72 272.94 762.31 274.32 763.66 276.73 764.03 277.76 764.62 278.77 765.74 279.67 767.64 280.64 769.79 281.18 771.96 281.51 778.64 281.8 779.23 281.89 779.28 281.9 Z" id="BTN-2492" data-name="Samdrup Jongkhar"/>
<path d="M 779.28 281.9 779.23 281.89 778.64 281.8 771.96 281.51 769.79 281.18 767.64 280.64 765.74 279.67 764.62 278.77 764.03 277.76 763.66 276.73 762.31 274.32 761.72 272.94 760.52 269.12 760.02 268.01 759.21 267.12 758.07 266.44 756.89 266.63 755.78 267.53 754.53 270.28 754.01 273.9 754.49 278.31 754.04 285.93 753.83 286.8 753.28 287.22 749.84 287.03 743.73 287.94 732.7 291.16 727.8 295.04 722.48 303.6 690.27 313.73 679.54 311.62 660.48 321.38 660.33 321.38 656.97 319.57 658.34 309.67 658 309.38 649.46 309.32 646.25 307.89 645.22 307.09 640.16 304.07 639.39 303.47 638.39 302.47 636.15 298.85 634.42 296.64 634.38 295.54 634.78 293.84 637.18 291.18 640.42 286.15 630.49 285.04 631.14 282.15 631.76 270.02 633.47 265.97 642.75 257.95 652.26 253.6 651.69 250.66 651.63 249.78 651.44 248.96 650.97 247.82 649.49 245.5 649.38 244.54 648.87 243.53 647.69 242.65 641.34 239.44 637.99 236.59 632.35 233.38 634.75 231.2 633.61 228.27 642.83 229.22 664.86 236.01 665.64 235.03 671.43 233 672.46 232.17 677.92 226.5 680.57 226.32 694.54 222.35 702.77 219.32 709.22 218.45 711.07 217.68 712.39 216.22 712.98 214.87 713.07 214.47 717.01 219.4 717.28 223.06 718.53 224.87 725.55 224.23 744.02 218.47 750.43 217.5 759.12 217.98 762.17 217.04 769.19 212.33 771.99 211.5 777.27 217.15 798.07 251.46 799 254.29 797.35 258.37 789.94 264.01 786.65 267.56 785.79 269.71 785.03 274.21 784.34 276.26 783.01 278.17 779.92 281.1 779.28 281.9 Z" id="BTN-2493" data-name="Tashigang"/>
</g>
</svg>