<?xml version="1.0"?>
<svg xmlns="http://www.w3.org/2000/svg" version="1.2" baseProfile="tiny" width="800" height="397" viewBox="0 0 800 397" stroke-linecap="round" stroke-linejoin="round">
<g id="ne_10m_admin_1_states_provinces">
<path d="M 401.33 102.08 386.66 103.33 382.05 99.97 376.82 90.34 374.68 83.5 373.12 61.74 378.02 62.13 383.06 63.18 387.77 64.99 397.47 71.35 403.06 71.4 408.46 70.03 413.79 69.47 450.02 73.84 466.88 70.63 474.54 70.24 482.29 73.84 488.46 81.24 502.77 110.1 492.66 106.98 486.18 98.77 480.85 89.19 474.23 81.91 479 95.09 490.1 115.62 494.37 126.57 486.45 128.06 480.59 124.19 470.19 110.1 466.73 116.15 465.8 118.55 462.12 118.55 452.9 102.44 437.75 97.95 401.33 102.08 Z" id="TCA-5003" data-name="Middle Caicos"/>
<path d="M 272.04 33.22 269.59 27.67 270.55 21.91 270.24 16.73 263.61 13.05 266.23 8.51 269.98 4.91 274.71 2.34 280.11 1 314.54 1 318.04 1.67 326.02 4.7 330.62 5.37 337.49 7.36 338.84 12.04 336.87 21.12 342.01 55.69 350.74 67.7 369.14 69.47 357.4 78.24 347.17 75.96 338.31 69.47 330.62 65.83 325.68 64.34 318.64 60.64 311.99 55.45 308.3 49.69 309.06 41.96 318.14 28.18 320.4 21.12 315.93 10.89 306.23 16.22 292.16 31.35 289.76 36.01 284.05 37.25 277.32 36.01 272.04 33.22 Z" id="TCA-5004" data-name="North Caicos"/>
<path d="M 18.29 186.42 1 195.07 1 191.39 7.55 185.3 11.59 174.64 13.32 162.2 13.12 150.77 29.26 148.51 29.36 165.68 18.29 186.42 Z M 216.39 63.23 211.61 67.29 206.5 66.83 211.3 62.7 214.49 60.78 216.39 63.23 Z M 103.3 64.12 140.42 96.17 148.25 98.86 159.82 98.81 171.3 96.97 179.03 94.37 187.48 86.76 192.28 80.47 198.67 78.93 211.61 85.95 211.61 90.34 195.88 104.48 191.13 110.1 188.06 101.55 187.48 98 170.96 106.07 173.17 106.79 175.19 107.19 177.11 108.03 179.03 110.1 170.27 114.47 155.36 112.45 146.79 114.52 146.79 106.07 123.42 123.62 112.79 125.08 106.16 110.1 109.79 110.1 113.48 115.12 119.05 117.64 123.18 116.41 122.66 110.1 119.05 106.98 98.45 98 100.37 106.07 98.89 112.16 94.04 116.29 86.02 118.55 84.67 114.61 84.38 111.92 84.86 109.43 86.02 106.07 87 108.61 87.22 108.99 87.87 108.99 90.03 110.1 92.33 102.37 99.75 89.59 102.13 81.91 89.45 91.06 86.02 94.37 84.26 86.67 90.44 68.15 90.03 58.09 103.3 64.12 Z M 230.12 55.31 226.18 56.85 225.08 52.67 229.07 46.26 232.19 44.53 233.65 47.19 233.63 52.02 230.12 55.31 Z" fill-rule="evenodd" id="TCA-5005" data-name="Providenciales and West Caicos"/>
<path d="M 474.63 390.62 464.45 395.81 462.56 394.73 469.21 390.1 473.62 387.36 477.32 386.11 474.63 390.62 Z M 504.36 383.93 500.56 393.22 496.91 388.22 500.76 378.88 504.02 375.59 504.36 383.93 Z M 581.69 254.11 582.2 267.6 577.51 275.48 567.65 278.26 557.85 272.28 556.6 262.2 563.61 257.61 570.74 258.57 574.75 255.55 574.85 241.48 579.1 231.2 581.04 231.01 582.24 234.54 581.69 254.11 Z M 603.88 174.92 596.99 176.27 588.68 168.44 575.33 150.77 562.96 143.66 536.82 133.12 526.59 122.2 529.33 120.42 531.78 119.51 533.72 118 535.02 114.52 554.61 126.5 564.96 130.46 579.36 134.28 591.27 138.91 602.58 147.55 608.41 159.75 603.88 174.92 Z" fill-rule="evenodd" id="TCA-5006" data-name="South Caicos and East Caicos"/>
<path d="M 793.57 263.93 798.14 273.07 799 288.34 796.21 303.54 789.56 312.31 785.55 301.12 785.96 287.98 789.2 274.88 793.57 263.93 Z" id="TCA-5007" data-name="Grand Turk"/>
<path d="M 751.25 365.56 757.01 365.75 761.47 369.3 756.31 376.36 748.96 383.71 745.7 381.5 748.63 370.6 751.25 365.56 Z" id="TCA-5008" data-name="Salt Cay"/>
</g>
</svg>