<?xml version="1.0"?>
<svg xmlns="http://www.w3.org/2000/svg" version="1.2" baseProfile="tiny" width="800" height="39" viewBox="0 0 800 39" stroke-linecap="round" stroke-linejoin="round">
<g id="ne_10m_admin_1_states_provinces">
<path d="M 52.69 37.74 52.65 37.75 52.62 37.71 52.6 37.66 52.61 37.61 52.63 37.58 52.65 37.62 52.68 37.68 52.69 37.74 Z M 6.29 21.98 6.32 21.99 6.35 21.99 6.38 21.98 6.31 22.02 6.26 21.99 6.25 21.94 6.32 21.93 6.32 21.94 6.32 21.95 6.31 21.95 6.27 21.96 6.29 21.98 Z M 45.49 21.03 45.46 21.03 45.43 20.99 45.4 20.98 45.39 20.97 45.36 20.95 45.34 20.93 45.36 20.92 45.47 20.88 45.52 20.88 45.5 20.93 45.49 20.95 45.48 20.97 45.47 21 45.49 21.03 Z M 7.42 17.99 7.5 18.03 7.57 18.08 7.62 18.15 7.63 18.19 7.63 18.21 7.63 18.24 7.6 18.23 7.57 18.2 7.55 18.18 7.52 18.16 7.51 18.16 7.44 18.14 7.43 18.14 7.43 18.14 7.47 18.15 7.54 18.16 7.55 18.17 7.56 18.18 7.57 18.19 7.61 18.23 7.61 18.23 7.61 18.22 7.62 18.22 7.62 18.21 7.62 18.21 7.62 18.2 7.56 18.1 7.53 18.07 7.53 18.07 7.51 18.05 7.46 18.03 7.42 18.02 7.41 18.05 7.39 18.04 7.39 18.02 7.41 18.01 7.42 17.99 Z M 799 17.75 798.98 17.77 798.95 17.76 798.82 17.65 798.84 17.64 798.84 17.64 798.85 17.65 798.91 17.66 798.97 17.71 799 17.75 Z M 797.05 17.43 797.04 17.43 797.04 17.43 797.03 17.42 797.03 17.42 797.01 17.4 797.01 17.38 797.02 17.39 797.03 17.4 797.04 17.41 797.05 17.43 Z M 796.16 16.03 796.13 16.09 796.12 16.07 796.13 15.97 796.11 15.94 796.07 15.89 796.05 15.86 796.07 15.87 796.14 15.98 796.16 16.03 Z M 794.93 15.2 794.88 15.25 794.83 15.24 794.82 15.19 794.84 15.13 794.9 15.1 794.9 15.11 794.88 15.13 794.86 15.15 794.84 15.18 794.84 15.2 794.86 15.23 794.88 15.21 794.9 15.19 794.91 15.17 794.93 15.15 794.93 15.09 794.91 15.03 794.88 14.99 794.9 14.97 794.91 14.98 794.91 14.98 794.93 14.99 794.95 15.04 794.95 15.13 794.93 15.2 Z M 798.11 14.92 798.12 14.99 798.09 14.96 798.07 14.93 798.06 14.88 798.04 14.85 798 14.79 797.98 14.76 797.97 14.72 797.98 14.72 797.99 14.73 798 14.75 798.04 14.79 798.08 14.85 798.11 14.92 Z M 797.02 14.64 797.04 14.69 797.09 14.76 797.12 14.82 797.11 14.88 797.09 14.86 797.07 14.85 797.03 14.83 797.03 14.82 797.05 14.82 797.11 14.85 797.1 14.81 797.08 14.78 797.03 14.72 796.99 14.67 796.97 14.65 796.94 14.64 796.94 14.65 796.94 14.66 796.95 14.67 796.92 14.66 796.94 14.64 796.97 14.63 797.02 14.64 Z M 794.28 14.56 794.29 14.6 794.24 14.58 794.23 14.54 794.23 14.45 794.22 14.42 794.15 14.3 794.17 14.3 794.19 14.31 794.2 14.32 794.22 14.33 794.22 14.37 794.26 14.46 794.28 14.56 Z M 782.43 13.7 782.43 13.71 782.43 13.71 782.42 13.71 782.42 13.72 782.41 13.72 782.4 13.72 782.4 13.72 782.4 13.72 782.39 13.71 782.39 13.71 782.38 13.71 782.38 13.71 782.37 13.71 782.36 13.7 782.36 13.7 782.36 13.69 782.36 13.68 782.36 13.68 782.36 13.67 782.36 13.67 782.36 13.66 782.37 13.66 782.38 13.66 782.39 13.65 782.4 13.65 782.41 13.65 782.42 13.66 782.43 13.67 782.43 13.67 782.43 13.68 782.43 13.68 782.43 13.68 782.43 13.69 782.43 13.69 782.43 13.7 Z M 793.66 13.55 793.62 13.59 793.6 13.57 793.59 13.56 793.6 13.55 793.62 13.54 793.62 13.55 793.62 13.56 793.62 13.56 793.62 13.57 793.66 13.54 793.66 13.53 793.66 13.53 793.65 13.49 793.61 13.41 793.58 13.2 793.61 13.25 793.61 13.34 793.61 13.36 793.64 13.42 793.66 13.52 793.66 13.53 793.66 13.53 793.66 13.55 Z M 793.58 13.19 793.55 13.2 793.52 13.18 793.42 13.1 793.39 13.07 793.42 13.07 793.44 13.09 793.5 13.14 793.52 13.15 793.54 13.16 793.57 13.17 793.58 13.19 Z M 791.7 11.33 791.66 11.42 791.64 11.4 791.65 11.37 791.69 11.33 791.7 11.28 791.69 11.27 791.67 11.25 791.63 11.24 791.68 11.23 791.7 11.23 791.71 11.25 791.71 11.27 791.71 11.29 791.7 11.33 Z M 792.14 10.71 792.28 10.78 792.34 10.82 792.35 10.86 792.23 10.77 792.14 10.74 792.08 10.74 792.09 10.72 792.1 10.71 792.11 10.7 792.13 10.69 792.14 10.71 Z M 790.23 9.85 790.23 9.85 790.22 9.84 790.22 9.84 790.23 9.84 790.23 9.83 790.23 9.83 790.23 9.84 790.23 9.85 Z M 790.21 9.84 790.21 9.84 790.2 9.84 790.19 9.83 790.19 9.82 790.2 9.82 790.2 9.83 790.21 9.83 790.21 9.84 Z M 790.29 9.43 790.4 9.51 790.43 9.53 790.44 9.54 790.43 9.58 790.39 9.65 790.37 9.67 790.28 9.79 790.23 9.83 790.25 9.81 790.29 9.77 790.31 9.72 790.36 9.68 790.38 9.62 790.4 9.6 790.42 9.57 790.42 9.54 790.4 9.51 790.36 9.48 790.31 9.46 790.28 9.45 790.28 9.45 790.28 9.48 790.26 9.48 790.26 9.45 790.26 9.43 790.24 9.41 790.23 9.4 790.26 9.4 790.29 9.43 Z M 790.64 8.63 790.62 8.65 790.6 8.65 790.54 8.64 790.49 8.63 790.43 8.64 790.38 8.65 790.34 8.68 790.31 8.69 790.3 8.69 790.28 8.69 790.39 8.64 790.45 8.62 790.6 8.61 790.62 8.6 790.58 8.59 790.6 8.58 790.63 8.58 790.64 8.61 790.64 8.63 Z M 790.22 8.25 790.21 8.25 790.2 8.24 790.19 8.24 790.19 8.23 790.17 8.18 790.16 8.07 790.14 8.03 790.17 8.05 790.19 8.11 790.22 8.25 Z M 790.32 7.83 790.26 7.84 790.25 7.84 790.24 7.84 790.23 7.83 790.31 7.82 790.34 7.77 790.33 7.7 790.31 7.63 790.31 7.62 790.32 7.62 790.32 7.62 790.32 7.61 790.34 7.69 790.34 7.77 790.32 7.83 Z M 790.3 7.57 790.31 7.59 790.2 7.47 790.17 7.41 790.15 7.39 790.12 7.36 790.1 7.34 790.11 7.31 790.12 7.35 790.19 7.4 790.2 7.42 790.21 7.45 790.3 7.57 Z M 39.88 7.14 39.96 7.21 40.11 7.25 40.14 7.25 40.13 7.27 40.12 7.29 40.11 7.31 40.08 7.32 40.07 7.34 40.06 7.39 40.05 7.5 40.1 7.56 40.18 7.6 40.27 7.65 40.3 7.68 40.33 7.7 40.37 7.71 40.41 7.72 40.43 7.74 40.44 7.79 40.43 7.82 40.4 7.81 40.38 7.83 40.36 7.84 40.33 7.84 40.31 7.84 40.28 7.84 40.26 7.82 40.25 7.8 40.22 7.79 40.2 7.76 40.19 7.75 40.14 7.75 39.91 7.68 39.82 7.64 39.74 7.58 39.69 7.53 39.64 7.5 39.62 7.51 39.6 7.51 39.55 7.49 39.52 7.46 39.53 7.39 39.54 7.38 39.61 7.35 39.64 7.34 39.66 7.35 39.66 7.36 39.66 7.36 39.63 7.37 39.6 7.41 39.59 7.45 39.62 7.49 39.64 7.49 39.68 7.49 39.7 7.49 39.71 7.51 39.73 7.52 39.75 7.53 39.81 7.53 39.85 7.55 39.87 7.55 39.85 7.52 39.82 7.51 39.8 7.5 39.78 7.48 39.76 7.46 39.79 7.47 39.81 7.46 39.83 7.45 39.82 7.41 39.85 7.43 39.86 7.45 39.86 7.47 39.88 7.49 39.9 7.51 39.91 7.49 39.91 7.46 39.88 7.41 39.87 7.38 39.88 7.36 39.89 7.35 39.91 7.36 39.92 7.36 39.92 7.31 39.94 7.33 39.95 7.35 39.94 7.37 39.95 7.39 39.97 7.41 39.98 7.4 39.99 7.39 40.01 7.37 40.03 7.36 40.04 7.34 40.04 7.32 40.03 7.3 40.02 7.29 39.98 7.28 39.91 7.25 39.83 7.2 39.82 7.19 39.81 7.18 39.78 7.15 39.76 7.14 39.74 7.17 39.73 7.18 39.71 7.18 39.69 7.16 39.68 7.13 39.71 7.11 39.76 7.11 39.88 7.14 Z M 790.91 7.07 790.92 7.09 790.92 7.09 790.93 7.11 790.93 7.15 790.95 7.2 790.96 7.22 790.96 7.22 790.97 7.23 790.98 7.24 790.98 7.24 790.98 7.25 790.97 7.26 790.97 7.26 790.96 7.27 790.96 7.27 790.95 7.27 790.93 7.27 790.9 7.27 790.87 7.26 790.85 7.25 790.84 7.24 790.84 7.22 790.84 7.21 790.84 7.2 790.85 7.2 790.85 7.2 790.85 7.21 790.85 7.22 790.85 7.23 790.87 7.24 790.91 7.25 790.92 7.25 790.94 7.26 790.95 7.25 790.95 7.25 790.95 7.24 790.95 7.24 790.95 7.23 790.94 7.22 790.93 7.21 790.93 7.2 790.93 7.2 790.93 7.19 790.92 7.17 790.92 7.15 790.92 7.14 790.92 7.12 790.91 7.11 790.91 7.1 790.9 7.09 790.89 7.09 790.88 7.08 790.87 7.08 790.86 7.08 790.86 7.1 790.86 7.14 790.86 7.16 790.86 7.17 790.85 7.19 790.84 7.19 790.84 7.19 790.84 7.18 790.85 7.17 790.85 7.15 790.85 7.14 790.84 7.12 790.84 7.11 790.84 7.09 790.85 7.07 790.86 7.06 790.86 7.05 790.88 7.05 790.89 7.05 790.9 7.06 790.91 7.07 Z M 790 4.77 789.98 4.79 789.9 4.78 789.83 4.82 789.77 4.87 789.73 4.89 789.72 4.88 789.7 4.87 789.69 4.86 789.69 4.84 789.74 4.86 789.77 4.85 789.81 4.82 789.83 4.79 789.87 4.77 789.96 4.76 790 4.75 790 4.76 790 4.77 Z M 790.03 4.69 790 4.69 790.13 4.62 790.17 4.59 790.18 4.61 790.18 4.61 790.19 4.62 790.13 4.63 790.03 4.69 Z M 35.52 2.81 35.55 2.84 35.56 2.87 35.56 2.89 35.57 2.92 35.6 2.92 35.63 2.92 35.65 2.93 35.67 2.95 35.69 2.99 35.72 3.03 35.73 3.05 35.72 3.07 35.7 3.1 35.65 3.12 35.6 3.13 35.54 3.13 35.5 3.1 35.48 3.05 35.52 3.05 35.63 3.08 35.65 3.07 35.65 3.04 35.65 3.01 35.64 2.99 35.62 2.97 35.56 2.95 35.54 2.93 35.52 2.91 35.51 2.86 35.5 2.85 35.47 2.84 35.44 2.85 35.42 2.87 35.4 2.9 35.46 3.01 35.37 2.96 35.38 2.86 35.44 2.79 35.52 2.81 Z M 33.16 1.04 33.13 1.04 33.1 1.03 33.08 1.01 33.09 1 33.12 1 33.14 1 33.17 1.02 33.16 1.04 Z" fill-rule="evenodd" id="KIR+00?" data-name="Kiribati"/>
<path d="M 43.32 24.47 43.34 24.48 43.38 24.46 43.42 24.48 43.43 24.5 43.41 24.51 43.32 24.52 43.29 24.51 43.26 24.46 43.28 24.46 43.3 24.46 43.32 24.47 Z M 1.1 22.39 1.1 22.39 1.07 22.38 1.05 22.36 1.06 22.36 1.08 22.37 1.1 22.39 Z M 1.04 22.36 1.04 22.36 1.02 22.36 1 22.34 1.01 22.34 1.02 22.35 1.03 22.36 1.04 22.36 Z M 1.1 22.37 1.1 22.38 1.07 22.35 1.03 22.33 1.01 22.32 1 22.31 1.01 22.3 1.04 22.32 1.1 22.37 Z M 8.51 21.87 8.48 21.88 8.46 21.87 8.45 21.85 8.46 21.82 8.49 21.81 8.52 21.83 8.52 21.86 8.51 21.87 Z M 8.85 18.86 8.84 18.87 8.83 18.84 8.84 18.81 8.85 18.79 8.86 18.83 8.85 18.86 Z" fill-rule="evenodd" id="KIR+99?" data-name="null"/>
</g>
</svg>