<?xml version="1.0"?>
<svg xmlns="http://www.w3.org/2000/svg" version="1.2" baseProfile="tiny" width="800" height="645" viewBox="0 0 800 645" stroke-linecap="round" stroke-linejoin="round">
<g id="ne_10m_admin_1_states_provinces">
<path d="M 105.32 361.92 107.61 362.99 110.54 362.41 114.37 363.63 117.69 365.71 119.12 367.7 120.65 370.22 127.03 373.5 127.92 376.33 126.69 375.13 124.03 374.06 120.93 373.33 118.42 373.17 117.06 373.65 116.2 374.49 115.59 375.29 114.95 375.64 113.76 376.12 113.78 377.2 114.3 378.28 114.64 378.81 114.48 380.03 114.07 380.59 113.05 380.76 111.12 380.76 110.45 380.34 107.61 377.54 103.03 374.55 100.86 372.71 100.66 371.21 98.65 369.78 95.13 365.97 93 364.89 93.65 363.81 93.24 362.25 93.76 361.66 93 361.04 96.75 356.76 99.14 355 101.29 355.4 101.36 355.69 101.37 355.92 101.79 356.32 101.72 356.52 103.62 359.41 104.35 361.23 105.32 361.92 Z M 88.58 304.56 93.59 315.88 93.76 316.64 93.62 318.04 93.06 318.81 92.18 319.44 91.11 320.43 91.86 321.28 94.02 324.57 95.17 325 96.48 324.15 97.74 322.97 98.76 322.33 98.56 322.65 98.31 323.3 98.13 323.66 99.86 323.95 100.42 324.91 100.64 326.18 101.29 327.45 105.21 330.24 106.22 332.69 109.51 336.31 110.19 337.75 110.45 339.25 110.16 340.79 109.23 342.35 108.73 342.45 106.36 342 105.5 342.1 104.48 342.58 103.57 342.69 102.17 342.33 100.98 341.47 98.76 339.41 96.11 338.17 92.55 337.37 89.41 337.78 87.95 340.1 86.23 339.02 82.84 338.21 81.57 336.94 81.28 336.12 81.1 334.4 80.94 333.72 79.42 331.6 79.04 330.61 80.19 330.86 81.73 332.08 82.84 332.51 82.84 331.83 81.36 330.71 80.44 329.31 77.95 324.27 76.86 322.88 75.91 322.64 75.25 324.23 75.28 325.72 76 328.79 75.88 330.61 75.01 332.23 73.81 332.9 72.52 333.37 71.39 334.41 70.82 334.41 70.26 332.81 67.61 331.6 67.02 329.93 67.39 329.16 68.11 328.23 68.68 327.3 68.54 326.47 68.18 325.69 68.38 325.01 68.9 324.5 69.49 324.23 70.78 323.09 71.93 320.67 72.5 317.65 72.66 314.74 73.17 316.06 73.29 316.64 73.92 316.64 75.19 314.81 75.91 315.47 76.61 317.18 77.77 318.54 78.52 317.76 78.87 318.3 79.19 319.28 79.99 319.8 80.91 319.5 82.53 318.16 84.69 317.21 85.52 315.67 85.6 313.8 84.8 312.15 86.68 312.79 85.57 309.69 85.43 309 85.61 307.77 85.91 306.78 85.97 305.93 85.43 305.14 85.43 304.56 88.58 304.56 Z M 98.06 303.54 97.51 304.87 96.86 305.77 98.44 305.68 99.46 306.04 100.28 306.59 101.29 307.1 100.73 309 100.01 310.61 98.13 313.48 98.83 313.83 99.75 314.07 100.82 314.15 101.93 314.05 101.93 313.48 100.66 312.79 102.54 312.79 101.93 312.15 103.06 312.41 104.05 312.87 105.79 314.05 105.34 314 103.94 314.05 104.5 316.57 105.09 317.46 106.36 317.85 106.36 318.54 103.8 318.82 102.26 319.23 101 318.99 99.33 317.27 100.03 316.64 98.65 315.45 97.43 314.05 95.61 310.89 95.43 310.18 95.19 308.08 94.91 307.1 94.21 306.56 93.17 306 92.54 305.2 93 303.87 94.48 304.65 95.29 304.13 96.24 301.98 97.85 302.38 98.06 303.54 Z M 119.69 297.61 118.42 297.61 118.42 296.92 121.97 292.6 122.8 292.49 120.78 294.82 119.86 296.32 119.69 297.61 Z M 117.01 294.33 116.27 294.5 115.97 293.6 116.22 292.56 117.91 290.2 119.34 288.92 120.97 288.43 123.17 288.02 123.78 288.32 123.89 289.28 122.85 290.35 121.68 291.09 120.34 291.72 119.55 291.98 118.82 292.33 117.78 293.22 117.01 294.33 Z M 108.65 286.32 109.05 286.52 109.5 286.4 109.71 286.51 109.62 286.8 109.81 286.84 110.19 286.8 110.22 287.15 109.9 287.63 109.41 288.15 108.67 288.74 106.28 289.26 105.98 290.35 107.25 291.17 108.02 291.78 108.17 292.02 108.86 292.4 109.73 293.31 108.53 292.9 105.25 290.47 103.89 288.05 104.76 287 106.2 286.76 108.15 285.94 108.65 286.32 Z M 100.34 285.21 101.02 285.43 101.46 284.73 101.9 283.7 102.54 282.95 102.67 284.32 102.38 289.33 101.94 290.38 101.34 290.51 100.66 289.33 100.03 289.33 100.22 289.76 100.66 291.23 100.3 291 99.33 290.59 99.27 291.29 99.1 291.65 98.9 291.96 98.76 292.49 97.2 291.87 95.73 292.09 94.98 292.83 95.61 293.81 95.61 294.38 94.62 294.31 94.05 293.97 93.9 293.36 94.28 292.49 92.46 292.24 91.41 290.4 89.85 291.23 88.99 292.15 87.99 293.47 86.68 295.71 86.06 295.71 86.09 293.37 87.71 284.43 89.46 281.36 89.85 279.49 91.43 276.05 92.32 275.67 93.07 274.76 94.28 272.82 95.39 271.74 97.12 270.56 99.19 269.71 99.41 270.05 99.55 270.52 100.66 270.93 102.11 272.25 102.49 273.67 102.58 274.99 103.18 276.05 102.67 277.14 102.73 278.02 103.01 278.79 103.18 279.49 103.22 280.3 103.13 280.78 102.79 281.33 100.6 283.81 100.18 284.56 100.34 285.21 Z M 53.22 237.05 54.31 239.18 52.42 239.13 51.24 238.89 50.31 238.3 48.43 236.43 47.47 235.15 47.22 233.96 48.61 233.43 50.02 234.65 51.67 235.7 53.22 237.05 Z M 29.03 182.44 29.52 183.29 30.16 183.29 30.16 182.6 30.79 182.6 30.63 185.48 29.47 187.16 27.54 188.15 21.85 190 20.93 190.59 20.41 191.67 20.7 192.84 21.49 193.75 22.51 194.1 22.51 194.79 21.24 194.79 21.24 195.36 26.7 197.54 28.89 197.89 28.52 199.91 27.93 200.34 26.36 199.85 27.44 201.77 29.35 211.47 29.73 212.01 30.79 212.56 32.03 212.93 34.63 213.36 35.86 213.76 37.8 214.93 38.64 215.13 40.28 215.03 41.64 214.64 42.47 214.23 43.19 214.38 44.13 215.66 44.58 216.65 45.4 219.46 46.51 220.8 46.53 221.45 45.4 222.04 44.58 221.49 42.28 220.96 40.13 219.73 38.61 219.23 36.99 218.93 35.54 218.83 34.72 218.46 32.35 216.82 31.42 216.35 29.84 216.18 28.55 216.2 27.43 215.96 27.03 215.52 27.72 215.62 28.35 215.26 28.89 214.4 25.67 213.58 24.46 213.14 24.42 213.36 24.37 213.71 24.39 213.84 23.15 212.41 22.16 210.52 21.49 208.61 20.86 204.68 19.75 202.8 17.99 201.25 15.61 199.85 13.46 199.03 12.31 198.38 9.82 194.1 9.57 193.47 7.94 193.49 6.86 193.37 6.08 192.82 5.43 191.57 5.68 189.42 5.19 188.74 3.47 189.61 3.51 188.15 3.19 187.1 2.4 186.53 1 186.5 1.92 185.75 4.32 183.14 4.8 182.31 5.67 182.16 14.27 181.88 16.99 181.45 19.39 180.64 21.88 179.43 23.15 179.76 24.01 180.29 24.77 180.88 25.68 181.39 28.08 182 29.03 182.44 Z" fill-rule="evenodd" id="GRC-2883" data-name="Ionioi Nisoi"/>
<path d="M 344.43 549.6 343.79 549.6 343.25 548.73 340.94 546.78 340.17 545.76 339.58 544.66 338.73 542.64 339.12 542.6 339.23 542.73 339.23 542.98 339.31 543.27 340.96 544.33 342.8 544.93 344.19 546.28 344.43 549.6 Z M 318.59 514.93 318.37 520.35 317.89 520.5 316.54 520.38 314.88 520.02 313.78 520.18 312.69 521.07 312.4 519.73 311.44 519.13 308.88 518.48 308.77 518.2 308.88 517.8 308.92 517.44 308.56 517.28 307.28 517.35 306.99 517.28 306.51 516.68 305.63 515.19 305.09 514.69 305.89 509.48 305.78 507.35 305.09 505.21 304.56 504.18 304.25 503.36 304.43 502.42 307.31 498.45 308.42 497.69 309.51 498.24 313.2 503.73 314.64 505.21 320.68 508.68 322.3 510.2 323.17 511.79 322.61 512.18 321.23 512.23 319.69 512.79 318.96 513.71 318.59 514.93 Z M 395.91 456.47 395.48 456.65 394.8 456.27 394.78 455.6 395.48 455.61 395.77 456.07 395.91 456.47 Z M 356.84 449.79 356.53 450.01 355.96 449.79 355.7 449.16 355.67 448.98 355.47 448.86 355.53 448.4 355.21 447.68 355.8 447.81 356.13 448.4 356.56 448.8 356.84 449.79 Z M 328.59 418.5 327.63 418.89 325.69 418.54 324.57 417.7 323.66 416.65 322.3 415.67 322.94 415.09 323.7 414.68 324.53 414.46 325.45 414.4 325.99 414.76 327.54 415.48 328.23 415.98 328.6 416.63 328.81 417.61 328.59 418.5 Z M 364.29 408.71 362.03 409.01 360.35 408.71 360.69 410.56 359.58 411.47 357.66 411.78 355.58 411.81 350.28 413.03 348.23 413.08 348.23 412.44 356.5 408.01 358.73 407.44 362.89 407.4 364.78 406.76 367.95 406.76 366.46 407.92 364.29 408.71 Z M 360.46 393.61 358.13 393.91 355.79 393.64 353.97 392.78 353.97 392.2 356.59 391.67 357.6 391.01 357.77 389.62 358.18 389.57 358.31 389.7 358.31 389.95 358.4 390.25 359.13 391.17 359.95 391.77 360.94 392.11 362.25 392.2 362.25 392.78 360.46 393.61 Z M 354.48 402.73 354.48 402.72 354.51 401.19 354.45 400.38 353.44 399.22 349.89 399.22 348.1 399.98 343.49 399.06 341.81 399.33 339.09 397.17 337.53 396.95 334.71 395.29 330.13 394.13 328.8 392.94 328.15 391.58 328.72 389.12 330.79 385.16 330.87 384.77 330.87 384.76 331.16 384.85 334.88 387.15 335.57 386.46 339 389.12 339.4 389.24 339.88 389.31 340.63 389.62 342.49 390.85 343.48 391.33 344.74 391.51 346.94 390.38 346.82 387.91 345.1 385.51 342.47 384.56 342.47 383.92 344.04 382.92 345.77 382.34 350.49 382.02 351.44 383.13 351.01 385.6 349.76 388.19 348.23 389.62 349.15 390.4 350.15 390.96 351.29 391.32 352.65 391.51 352.65 392.2 350.86 392.71 350.17 392.78 350.17 393.41 350.8 393.41 351.6 393.69 353.97 394.04 356.06 395.15 357.94 395.66 362.25 398.53 361.77 398.96 361.62 399.15 361.79 399.35 362.25 399.8 362.25 400.43 360.37 401.24 354.92 402.71 354.48 402.73 354.48 402.73 Z M 359.38 377.8 358.4 378.23 357.7 377.66 357.22 377.36 355.92 376.97 355.92 376.33 357 375.8 356.93 374.92 356.1 374.11 354.92 373.74 353.8 373.16 353.12 371.84 352.88 370.54 352.98 369.95 364.15 369.37 365.72 369.94 365.14 370.93 364.04 372.09 364.15 373.17 362.84 373.92 362.61 374.92 362.66 375.99 362.25 376.97 361.48 377.35 359.38 377.8 Z M 362.83 350.28 362.9 350.78 363.11 351.42 363.66 351.96 364.24 352.28 364.1 352.4 364.15 352.87 366.68 352.87 363.52 354.08 363.9 355.06 361.89 356.44 361.56 357.87 360.98 357.87 359.99 357.17 359.13 357.73 358.15 358.69 356.82 359.2 355.46 359.09 352.59 358.39 351.38 357.87 350.8 357.18 350.8 356.61 351.44 355.7 352.73 354.68 354.26 354.07 356.96 354.77 358.18 353.87 359.13 352.52 359.66 351.54 358.54 351.6 357.73 352.07 357.02 352.61 356.21 352.87 355.41 352.72 353.68 352.16 352.65 352.18 355.92 350.92 354.7 350.4 353.34 349.59 354.38 349.51 355.38 349.56 356.32 349.8 357.14 350.28 357.34 349.6 357.54 349.45 357.54 349.41 357.14 349.02 357.85 348.58 358.61 348.36 359.44 348.3 361.56 348.56 362.7 348.98 363.29 349.58 362.83 350.28 Z M 328.32 353.98 328.28 353.74 328 353.23 326.72 350.56 323.81 346.35 320.66 343.01 320.62 342.94 320.62 342.94 322.9 342.69 329.56 341.11 331.13 339.73 332.7 339.41 333.62 338.9 333.03 337.78 331.54 336.71 329.81 336.31 329.79 335.85 329.81 335.04 330.99 334.94 333.07 334.52 334.25 334.41 334.25 333.72 333.32 333.62 333.32 333.62 333.73 333.52 333.52 332.87 329.46 331.83 334.69 331.88 337.85 332.32 339.08 331.23 339.75 327.01 341 325.91 342.81 325.15 346.26 324.37 347.72 325.08 348.63 326.73 347.7 327.87 347.41 329.1 348.81 330.06 350.39 330.28 352.09 330.01 353.54 330.73 357.13 334.79 358.59 335.51 361.74 335.95 363.14 336.92 364.72 337.14 368.08 335.34 370.57 333.16 371.38 324.39 373.31 321.86 376.49 319.53 381.7 318.25 384.25 317.32 384.6 316.83 384.6 316.82 386 316.64 388.13 317.67 389.17 317.85 398.08 320.84 399.98 321.07 401.66 321.52 403.14 322.6 405.38 324.92 409.77 327.72 410.5 328.37 410.89 328.95 412.59 329.5 412.97 330.27 412.77 331.02 412.5 331.71 412.64 332.4 413.66 333.09 412.68 333.39 412.14 334.1 411.85 335.11 411.7 336.31 411.13 335.02 409.7 335.16 405.18 337.11 405.27 339.01 406.65 342.98 407.04 344.71 407.92 346 408.81 346.97 409.23 347.75 408.98 348.62 407.74 350.61 407.28 351.54 407.3 352.33 407.54 353.25 407.67 354.27 407.28 355.4 408.31 355.35 409.39 355.61 410.21 356.21 410.5 357.18 410.11 357.67 407.28 358.5 407.95 359.11 408.78 359.56 409.8 359.79 411.13 359.77 410.5 360.46 411.01 360.55 412.4 361.04 411.83 361.85 411.69 362.51 411.92 363.06 412.4 363.56 411.92 363.79 411.54 364.02 411.29 364.36 411.13 364.89 413.33 365.97 414.04 366.84 414.3 368.37 414.18 370.36 413.78 371.4 411.7 373.17 412.97 373.74 412.97 374.43 411.7 374.43 411.7 375.01 412.29 375.08 412.38 375.37 412.29 375.8 412.4 376.33 412.28 376.09 412.24 375.82 412.12 375.8 411.7 376.33 412.88 377.24 412.1 378.26 410.5 379.43 409.23 380.76 408.17 380.18 404.63 379.02 403.17 378.81 401.54 378.36 400.92 377.2 400.95 373.74 400.32 373.74 399.03 374.3 398.17 372.59 397.17 368.68 396.81 368.92 395.9 369.37 395.23 367.83 393.74 366.29 392.07 365.33 390.77 365.52 390.36 365.2 390.02 365.02 389.72 364.76 389.44 364.25 388.87 364.25 388.34 366.21 387.41 366.21 386.43 365.88 385.72 366.79 385.57 366.16 385.5 365.68 385.22 365.44 384.38 365.52 384.97 364.38 384.56 363.4 382.55 361.66 382.31 359.9 378.45 355.4 378.13 354.08 376.57 353.49 375.01 353.76 373.4 354.34 371.74 354.71 371.7 354.25 371.74 354.08 372.63 353.76 372.92 353.5 373.01 352.87 371.61 353.34 370.81 352.8 370.1 351.98 368.92 351.54 367.59 351.52 366.46 351.37 365.51 350.99 364.78 350.28 368.11 347.89 368.94 346.51 368.27 344.88 367.41 344.18 366.78 344.14 366.19 344.37 365.42 344.53 361.89 344.53 360.94 344.73 360.33 345.16 359.86 345.6 359.38 345.8 357.17 345.9 356.21 346.11 355.24 346.49 351.71 348.99 350.17 349.59 353.34 350.28 351.44 350.85 344.11 350.28 334.56 350.92 331.08 352.29 328.32 353.98 Z" fill-rule="evenodd" id="GRC-2884" data-name="Attiki"/>
<path d="M 200.33 467.03 200.32 468.97 199.75 468.4 199.41 468.17 199.22 467.86 199.05 467.07 197.79 467.77 198.31 465.11 198.62 464.11 199.05 463.91 200.52 464.51 200.67 465.54 200.33 467.03 Z M 194.82 459.97 195.22 460.15 195.83 460.11 195.83 460.69 195.42 460.88 195 461.18 194.62 461.38 194.64 462.34 194.08 463.2 193.32 464.1 192.72 465.17 192.82 461.89 193.19 460.48 193.99 459.49 194.45 459.71 194.82 459.97 Z M 320.62 342.94 320.62 342.94 320.66 343.01 323.81 346.35 326.72 350.56 328 353.23 328.28 353.74 328.32 353.98 326.74 354.95 322.27 356.71 318.37 355.4 317.51 355.7 316.78 355.67 315.97 355.5 314.95 355.4 314.61 355.89 314.64 356.95 314.5 358.02 313.69 358.5 313.1 359.39 313.5 361.19 314.71 362.6 316.54 362.3 318.15 362.97 320.36 363.19 322.55 362.97 324.12 362.3 327.1 364.61 328.73 365.59 330.45 366.15 330.04 367.07 329.9 367.93 330.04 368.71 330.45 369.37 329.18 369.56 327.48 370.4 325.43 370.66 325.13 370.96 325.04 371.55 324.75 372.48 327.06 373.88 328.31 374.34 329.81 374.43 328.95 376.54 328.73 377.97 329.04 379.38 329.81 381.39 328.55 381.39 328.8 383.4 329.17 384.22 330.87 384.76 330.87 384.77 330.79 385.16 328.72 389.12 328.15 391.58 328.8 392.94 330.13 394.13 334.71 395.29 337.53 396.95 339.09 397.17 341.81 399.33 343.49 399.06 348.1 399.98 349.89 399.22 353.44 399.22 354.45 400.38 354.51 401.19 354.48 402.72 354.48 402.73 343.5 403.16 341.89 402.96 342.03 403.28 342.1 403.57 342.22 403.87 342.47 404.22 339.12 403.85 337.89 403.97 338.05 404.91 334.88 405.49 334.86 406.38 335.51 406.81 336.47 406.89 337.41 406.76 336.83 407.44 336.83 408.01 337.54 408.1 339.31 408.71 337.86 409.25 336.15 409.39 332.7 409.28 330.79 409.56 330.73 410.34 331.57 411.54 332.41 413.08 330.49 413.39 329.17 413.37 328.03 413.04 326.65 412.44 326.65 411.81 328.55 411.81 328.55 411.18 327.46 410.94 326.17 411.13 324.98 411.03 324.12 409.98 326.02 410.61 325.57 409.73 324.89 409.09 322.87 408.01 322.15 408.62 321.22 408.64 320.32 408.21 320.32 408.01 320.04 405.09 320.28 403.96 321.31 404.57 322.35 405.03 323.3 404.35 323.98 403.05 324.12 401.69 326.15 402.63 326.65 402.96 326.65 402.38 326.2 401.53 326.07 400.96 326.02 400.11 325.78 399.56 325.18 399.33 324.48 399.17 323.86 398.82 322.55 398.3 319.3 398.97 317.8 398.53 319.05 397.9 317.8 396 315.5 397.09 314.59 397.66 314 398.53 312.71 395.19 311.76 393.98 310.2 392.78 309.77 392.69 308.69 392.82 308.26 392.78 307.91 392.48 307.74 392.07 307.68 391.69 307.62 391.51 306.28 391.06 305.48 390.92 304.46 390.94 305.61 391.2 306 391.5 306.36 392.2 304.5 391.57 302.9 391.73 301.45 392.42 300.02 393.41 299.39 392.85 296.81 391.51 297.02 391.17 297.45 390.25 296.27 389.85 295.21 389.16 294.64 388.39 294.91 387.72 293.94 386.57 293.01 385.82 290.99 386.49 289.32 387.3 288.2 388.65 287.9 390.94 288.1 391.41 288.96 392.52 289.15 393.09 289.05 393.69 288.6 394.78 288.58 395.31 288.97 396.34 289.45 396.88 289.96 397.29 290.42 397.9 290.52 398.35 290.42 400.11 290.64 400.38 291.76 401.12 291.7 402.07 291.07 403.3 291.13 404.22 295.98 408.84 296.81 409.28 296.18 410.61 297.45 410.61 297.45 411.18 296.81 411.18 296.81 411.81 297.78 412.56 300 415.75 300.66 417.43 303.82 421.99 304.14 422.25 304.89 423.15 305.36 424.13 304.77 424.58 304.32 425.1 304.03 426.31 303.82 428.72 304.58 429.88 306.33 430.19 308.24 429.99 309.51 429.63 309.57 430.06 309.73 430.32 309.95 430.56 310.2 430.9 309.55 431.23 309.66 431.32 310.2 431.54 309.51 432.23 311.09 432.69 311.85 433.46 311.62 433.91 310.2 433.43 311.04 435.09 313.53 438.04 313.37 439.13 314.12 440.7 314.64 442.35 314.15 442.31 313.17 442.37 312.69 442.35 312.92 442.8 313.63 443.79 314 444.19 314.18 443.88 314.25 443.82 314.33 443.8 314.64 443.61 314.94 444.47 315.07 445.26 314.97 446.02 314.64 446.78 315.56 448 317.41 451.73 318.09 452.53 317.8 453.25 319.04 454.88 321.59 456.95 322.19 457.96 322.4 459 322.05 459.8 321.01 460.11 321.01 460.69 321.99 460.74 322.7 460.86 324.12 461.38 323.73 462.09 322.67 462.74 322.3 463.28 322.16 463.8 322.17 464.1 322.24 464.38 322.3 464.86 321.76 465.87 320.58 465.78 319.27 465.16 318.37 464.55 317.58 465.58 316.42 466.55 315.93 467.47 317.17 468.34 316.97 468.65 316.72 469.3 316.54 469.6 319.05 469.6 316.74 471.24 316.85 473.63 318.22 476.1 320.05 478.46 321.01 480.1 321.41 480.39 323.25 481.02 324.29 481.68 326.02 482.31 326.41 482.76 326.64 483.22 327.02 483.56 327.91 483.64 327.05 484.14 326.65 484.27 326.65 484.85 327.21 485.37 327.28 485.85 326.88 486.31 326.02 486.74 327.62 488.62 330.39 490.01 332.41 491.51 331.71 493.7 328.55 492.43 327.62 493.41 326.46 493.55 322.33 492.71 321.49 491.74 320.81 490.66 319.69 489.9 319.69 489.33 320.23 488.08 319.58 486.6 318.28 485.36 316.85 484.85 312.87 485.56 310.99 485.57 310.2 484.56 309.77 483.05 307.69 479.46 306.99 478.52 305.93 477.7 301.94 475.35 303.26 474.24 302.83 473.15 298.96 470.3 298.46 470.16 298.09 470.87 296.81 472.14 296.4 471.64 296.29 470.82 296.81 468.66 296.61 467.25 295.75 465.25 295.09 461.89 293.8 460.26 291.79 459.26 289.15 458.85 284.42 458.77 278.58 459.33 274.4 461.22 274.55 465.17 271.5 466.93 270.33 468.25 269.55 470.29 270.96 470.29 271.84 470.93 272.2 472.05 272.09 473.46 271.46 473.46 271.28 472.8 270.94 472.13 270.36 471.64 269.55 471.56 268.78 472.05 268.28 472.91 268.15 473.73 268.57 474.09 270.1 475.14 269.64 477.03 268.4 477.92 267.66 475.93 266.3 476.6 265.75 477.56 265.7 483 265.98 485.12 266.55 486.86 268.29 490.54 267.9 491.05 268.29 491.86 267.07 492.52 266.66 493.49 266.92 494.6 267.66 495.66 267.66 496.29 266.8 496.21 266.58 496.48 266.56 496.96 266.39 497.55 265.35 496.52 265.03 494.92 264.92 493.23 264.44 491.86 263.09 490.94 259.85 489.9 258.74 488.64 258.11 488.64 257.16 489.44 256.23 489.25 255.36 488.53 254.63 487.72 253.75 486.34 253.82 485.32 254.39 484.32 254.94 483 256.44 483.35 256.87 482.25 256.48 480.73 255.52 479.78 255.98 479.33 256.84 477.95 254.94 477.95 255.12 476.75 254.99 475.32 255.31 474.22 256.84 474.09 256.84 473.46 255.03 472.95 255.24 471.36 256.84 468.34 254.12 468.72 252.34 466.46 250.9 463.55 249.2 461.96 249.34 460.15 247.92 457.78 241.43 450.61 239.45 449.79 237.12 451.2 234.68 449.72 233.67 448.8 233.27 447.41 233.48 447.45 233.93 446.94 234.37 446.11 234.59 445.19 234.68 444.14 235.13 442.34 235.27 439.81 235.09 439.16 228.83 438.03 225.36 437.86 223.68 438.25 220.18 440 216.7 440.78 215.63 441.74 215.1 442.98 214.16 451.82 213.69 452.95 213.65 453.79 214.04 454.86 214.61 455.67 214.87 456.48 214.28 457.59 215.87 458.81 216.85 459.33 218.14 459.49 218.14 460.11 216.9 460.19 215.81 460.58 215.23 461.21 215.55 461.96 214.96 462.8 211.11 465.67 210.59 466.14 210.02 466.45 209.23 466.44 207.63 463.81 207.33 463.6 204.48 458.85 202.82 458.95 201.42 459.21 199.05 460.11 197.95 459.19 195.77 458.48 195.19 457.59 194.62 457.59 193.79 457.98 193.28 457.28 192.79 456.09 192.04 455.06 192.4 454.18 192.33 453.42 192.11 452.51 192.04 451.2 192.33 450.36 193.55 448.8 193.99 447.98 194.03 446.43 193.35 445.08 192.01 444.41 190.14 444.88 191.02 444.52 191.29 444.23 191.41 443.61 190.58 443.57 190.12 443.81 189.57 444.88 188.92 441.61 186.55 439.18 183.78 436.88 181.86 434.01 181.03 430.35 180.84 426.64 181.47 423.3 183.11 420.72 188.93 416.96 191.47 414.82 192.72 411.81 192.31 408.08 191.44 406.01 192.89 405.46 199.09 406.5 202.42 405.91 205.49 406.56 207.26 405.77 210.54 402.4 209.87 401.05 210.44 399.86 212.84 397.64 214.35 396.57 216.34 397.83 218.06 397.29 218.94 396.14 216.29 393.53 207.79 388.15 204.76 387.25 203.08 387.55 201.51 387.35 201.4 377.23 199.47 372.68 199.92 368.95 205.28 362.04 208.63 361.45 209.37 364.07 212.72 365 215.6 366.64 221.88 368.96 223.51 368.91 225.92 366.69 227.66 366.16 230.85 366.32 231.22 367.63 232.73 368.08 234.46 367.54 236.89 365.33 242.09 363.73 242.72 362.29 242.05 360.94 240.69 359.75 240.92 357.25 241.82 356.1 242.13 354.62 241.83 353.06 242.42 351.87 249.42 349.5 251.27 348.47 252.17 347.32 252.76 346.14 252.71 344.86 255.39 340.15 253.14 337.07 253.62 334.49 254 333.39 254 333.38 254.57 333.81 257.42 334.72 258.36 335.32 259.33 335.7 260.33 335.33 261 335.2 268.29 336.49 278.4 340.74 283.94 342.3 284.73 342.98 285.62 343.22 293.01 348.38 294.69 350.62 295.23 350.92 296.99 351.33 299.87 353.34 301.25 354.08 302.68 354.26 304.12 354.05 306.36 353.44 307.07 353.42 307.83 353.48 308.57 353.45 309.19 353.16 311.06 350.92 311.27 350.42 310.35 349.33 309 348.25 307.94 347.75 306.49 347.38 304.21 345.9 302.51 345.8 302.81 345.49 303.12 345.36 300.02 345.22 302.01 343.9 302.93 343.45 304.14 343.26 305.36 342.9 307.41 341.22 308.26 340.74 310.75 340.88 315.31 342.43 317.17 342 319.91 343.02 320.62 342.94 Z" fill-rule="evenodd" id="GRC-2885" data-name="Peloponnisos"/>
<path d="M 254 333.38 254 333.39 253.62 334.49 253.14 337.07 255.39 340.15 252.71 344.86 252.76 346.14 252.17 347.32 251.27 348.47 249.42 349.5 242.42 351.87 241.83 353.06 242.13 354.62 241.82 356.1 240.92 357.25 240.69 359.75 242.05 360.94 242.72 362.29 242.09 363.73 236.89 365.33 234.46 367.54 232.73 368.08 231.22 367.63 230.85 366.32 227.66 366.16 225.92 366.69 223.51 368.91 221.88 368.96 215.6 366.64 212.72 365 209.37 364.07 208.63 361.45 205.28 362.04 199.92 368.95 199.47 372.68 201.4 377.23 201.51 387.35 203.08 387.55 204.76 387.25 207.79 388.15 216.29 393.53 218.94 396.14 218.06 397.29 216.34 397.83 214.35 396.57 212.84 397.64 210.44 399.86 209.87 401.05 210.54 402.4 207.26 405.77 205.49 406.56 202.42 405.91 199.09 406.5 192.89 405.46 191.44 406.01 190.77 404.43 184.5 394.84 180.97 390.59 179.21 389.1 171.21 384.58 169.3 383.81 168.26 382.97 166.46 381.08 165.52 380.4 160.06 379.11 158.25 379.51 157.77 382.02 157.18 382.02 157 381.14 157.01 380.21 156.82 379.39 155.93 378.81 157.07 376.91 157.41 375.38 157.15 373.83 155.61 369.63 154.65 368.38 153.36 367.61 149.31 365.9 139.56 363.54 138.73 362.99 138.22 361.86 138.59 360.48 138.09 359.77 140.63 353.44 141.26 353.44 143.48 354.99 147.5 353.47 151.57 350.68 153.97 348.38 155.26 348.73 156.37 348.16 157.4 347.23 158.45 346.49 158.45 345.8 158.11 345.61 158.01 345.54 157.96 345.45 157.77 345.22 156.87 345.53 155.96 346.02 155.17 346.56 154.6 347.06 158.77 342 158.95 341.39 162.26 337.25 162.67 336.29 162.88 335.09 163.07 329.55 162.93 328.03 163.92 328.91 165.15 330.6 166.1 331.25 166.03 330.13 165.8 329.25 165.4 328.57 165.88 329.16 167.23 329.73 168.86 329.91 170.85 329.93 172.17 330.31 176.8 333.09 184.12 334.41 185.91 334.13 187.77 333.45 190.77 331.83 193.23 329.46 196.96 323.48 199.05 321.07 206.12 317.56 206.95 316.85 213.08 317.85 215.07 317.84 215.95 317.68 216.82 317.27 217.71 317.91 218.87 318.5 220.21 318.94 221.63 319.11 222.79 319.45 223.37 320.28 223.75 321.33 224.41 322.33 225.43 323.01 228.19 324.07 229.18 324.23 229.92 324.13 230.97 323.7 231.43 323.66 232.21 324.31 232.85 324.73 233.61 324.92 234.18 325.4 235.18 327.77 235.85 328.72 236.62 329.04 239.99 329.93 240.28 330.13 240.63 330.59 241.15 331.04 241.89 331.25 244.77 331.25 248.77 332.03 249.88 332.51 251.59 331.9 253.04 332.65 254 333.38 Z M 207.12 312.52 206.65 311.85 206.12 311.52 205.27 311.72 200.73 314.78 200.02 315.8 199.75 317.56 198.9 318.05 197.09 317.17 194.62 315.32 189.21 315.32 187.7 315.63 186.36 316.22 185.1 316.51 183.81 315.95 177.86 319.39 176.8 321.07 176.22 321.07 175.36 320.47 174.06 320.25 172.87 320.2 172.36 320.12 171.73 319.48 167.94 317.85 169.51 317.52 170.98 318.18 172.36 319.16 173.63 319.8 173.63 319.11 173.2 318.71 172.97 318.4 173.07 317.99 173.63 317.27 172.75 316.77 172.36 316.64 172.36 315.95 172.72 315.82 173.63 315.32 171.8 315.32 172.36 314.05 171.52 314.39 170.73 314.53 169.99 314.43 169.26 314.05 168.73 314.41 168.34 314.55 167.36 314.74 167.95 312.92 166.82 311.96 164.93 311.59 163.22 311.52 162.52 310.65 161.62 305.14 159.67 303.3 158.59 302.65 158.13 302.49 157.73 302.58 156.85 302.67 157.16 303.39 160.98 308.36 159.67 308.36 159.86 308.7 159.95 308.77 160.07 308.79 160.35 309 160.01 309.95 159.79 310.99 159.44 311.81 158.77 312.15 157.82 312.32 155.85 313.14 155.23 313.48 155.46 313.85 155.56 313.87 155.93 314.05 155.23 314.74 153.98 314.11 153.23 314.39 152.93 314.99 153.05 315.32 153.48 315.63 152.8 316.33 151.44 317.27 150.42 317.8 149.79 317.95 147.96 317.85 147.21 317.51 146.52 316.96 145.82 316.85 145.05 317.85 145.52 318.21 146.09 318.44 146.78 318.54 146.33 318.64 145.2 318.9 144.47 319.45 144.42 320.43 142.67 320.32 142.02 319.38 141.77 318.17 141.26 317.27 140.15 316.96 137.32 316.91 136.15 316.64 137.23 316.24 138.05 315.77 138.39 315.08 138.09 314.05 137.19 314.48 136.83 314.74 137.64 313.29 138.09 312.79 137.82 313.44 138.77 313.83 139.84 313.27 140.63 312.46 141.26 311.52 139.59 310.46 138.89 310.52 138.09 311.52 137.03 311.14 136.29 310.44 135.83 309.49 135.57 308.36 135.85 308.17 135.95 308.17 136.01 308.08 136.15 307.67 137.08 308.61 138.15 309.06 139.02 308.82 139.36 307.67 138.09 308.36 138.52 307.14 137.65 305.41 138.09 304.56 138.09 303.87 137.21 303.87 136.61 303.71 135.57 303.3 136.42 302.89 136.83 302.74 137.46 302.67 137.09 302.47 136.56 302.11 136.15 301.98 137.03 300.49 137.28 299.75 137.14 299.19 136.28 298.77 135.56 299.15 134.84 299.76 133.98 300.08 133.64 300.43 132.63 301.09 131.57 301.51 131.08 301.09 130.88 300.24 130.02 298.91 129.82 297.9 130.53 294.11 130.54 292.1 128.59 290.43 127.15 286.95 126.31 286.16 122.71 286.13 121.45 285.77 120.32 284.9 119.67 283.75 117.43 276.27 116.52 274.79 115.27 274.03 113.91 274.39 112.56 275.49 111.44 276.81 110.78 277.83 110.1 276.82 109.55 276.99 108.97 277.45 108.24 277.31 107.25 277.97 106.88 277.59 106.71 276.75 106.36 276.05 103.18 274.03 103.18 273.45 103.89 272.26 104.3 270.57 105.03 269.05 106.7 268.4 108.69 268.45 109.75 268.37 110.2 268.08 109.9 267.49 109.19 266.96 108.43 266.59 106.43 265.85 105.65 264.45 105.47 262.78 105.79 261.38 106.93 259.63 107.42 260.31 108.02 261.85 109.51 262.64 111.31 263.11 113.05 262.41 114.34 261.04 115.27 259.48 115.9 259.48 116.21 260.22 116.31 260.71 116.22 261.07 115.9 261.38 116.07 261.53 116.36 261.72 116.42 262.05 115.9 262.64 117.78 262.66 119.34 262.49 120.45 261.75 120.9 260.06 121.54 260.06 122.43 261.01 123.37 261.05 124.5 260.76 125.97 260.75 127.21 261.12 128.1 261.56 129.13 261.92 130.79 262.07 131.03 262.66 130.73 263.96 130.62 265.27 131.4 265.86 132.66 266.11 133.89 266.74 136.15 268.4 136.26 267.56 136.49 267.08 136.88 266.78 137.46 266.44 137.46 265.86 136.74 264.67 137.73 264.09 139.45 264.14 140.94 264.86 143.12 266.88 143.15 267.13 143.73 267.39 144.25 267.54 144.69 267.31 145.05 266.44 144.29 265.91 143.98 265.48 143.71 264.08 143.39 264 142.97 264.09 142.57 263.85 141.4 262.24 141.24 261.26 141.89 260.06 141.4 259.31 141.69 258.48 142.39 257.98 143.15 258.22 143.07 256.03 140.82 253.66 136.15 249.99 135.49 250.59 135.15 251.19 135.15 251.81 135.57 252.46 134.3 252.07 133.84 252.21 133.69 251.16 134.67 248.73 136.2 247.65 137.96 247.1 149.51 246.93 151.21 246.63 154.8 245.28 159.74 242.07 161.82 241.56 161.84 244.6 164.28 247.17 164.97 248.52 164.4 249.72 164.46 250.99 162.08 254.51 162.47 255.82 171.73 260.22 172.39 261.82 171.86 264.29 172.24 265.6 173.69 266.53 175.29 266.73 176.73 267.66 181.8 268.53 184.84 269.67 184.9 270.94 179.53 273.07 177.99 274.15 177.36 275.59 177.41 276.86 178.81 279.56 180.2 280.74 185.21 283.38 188.24 284.51 191.49 284.66 196.54 284.02 197.54 285.41 197.28 286.64 199.3 286.39 202.7 284.28 202.59 281.73 203.17 280.54 208.02 280.89 211.58 279.56 213.12 278.49 217.01 277.2 217.16 277.98 220.75 279.66 220.77 280.98 219.28 283.32 219.7 285.91 218.53 288.29 218.89 291.12 217.67 292.23 217.72 293.51 220.47 295.88 218.93 298.47 219.3 301.3 218.4 302.46 216.59 303.24 213.2 303.83 209.39 306.38 207.48 309.18 207.75 310.99 207.12 312.52 Z" fill-rule="evenodd" id="GRC-2886" data-name="Dytiki Ellada"/>
<path d="M 198.4 77.71 199.02 80.95 202.16 82.08 203.58 83.27 203.31 84.51 201.72 85.59 199.91 86.13 196.39 86.72 193.03 86.58 192.43 87.77 193.86 88.96 195.3 93.19 196.34 94.59 199.53 95.48 199.59 96.76 197.35 100.8 198.94 101.25 200.63 101.2 204.47 102.17 206.18 102.13 207.71 102.82 209.74 102.81 207.49 106.86 207.59 109.41 210.07 111.99 208.86 114.38 208.92 115.66 210.39 116.6 212.41 119.64 213.83 120.83 217.27 122.01 220.27 123.65 220.32 124.93 221.85 125.63 227.04 125 227.74 126.36 227.47 127.59 227.85 128.91 230.95 131.58 231.37 134.17 232.4 135.57 236.75 137.13 235.28 139.23 234.99 141.99 233.73 143.1 230.08 144.42 229.42 145.86 229.69 147.67 227.55 149.69 226.68 152.12 223.89 155.58 219.43 159.09 218.56 161.52 216.65 164.07 212.97 165.65 208.57 168.91 206.68 169.95 209.71 171.34 210.41 172.69 210.14 173.93 210.9 176.56 210.63 177.8 209.43 178.66 204.57 178.06 197.64 179.24 194.34 179.09 185.08 177.21 171.38 175.82 167.82 176.92 165.93 177.96 163.78 180.24 161.95 181.04 158.06 182.1 156.39 182.15 155.24 181.26 155.18 179.99 149.09 177.24 145.79 177.11 140.61 178.03 137.04 179.14 135.47 178.7 133.7 175.96 132.45 170.76 129.55 168.65 131.99 164.88 132.23 162.12 130.75 161.19 127.13 162.55 124.65 159.98 123.46 156.05 121.98 155.12 124.32 151.84 124.62 150.35 123.43 146.42 120.92 142.33 116.99 138.6 115.18 134.34 113.79 132.92 110.32 133.54 109.08 134.67 107.24 135.47 105.55 135.54 104.43 134.87 104.12 134.53 105.56 131.8 106.57 130.35 106.99 129.59 107.3 128.44 107.25 127.48 106.85 124.95 107.01 124.08 107.83 123.43 109.75 123.08 110.58 122.73 111.33 121.78 111.7 120.89 112.19 120.11 113.43 119.48 115.91 119.44 118.03 120.21 120.09 120.6 122.4 119.4 123.29 118.44 123.6 117.98 123.87 117.44 123.8 116.29 124.36 115.47 125.34 114.95 126.54 114.7 127.17 113.75 128.02 113.22 128.88 112.85 129.51 112.32 130 111.39 130.14 110.67 130.18 109.9 130.34 108.83 131.33 105.61 131.65 103.91 131.53 102.09 130.92 100.47 129.98 99.17 127.52 96.89 124.87 94.98 124.47 94.29 124.29 93.54 123.94 92.84 123.03 92.28 124.63 90.84 125.2 88.87 125.04 84.48 138.64 84.06 145.21 82.56 147.62 82.66 151.03 83.2 152.43 83.43 155.62 83.42 158.76 82.92 160.21 82.29 163.58 79.75 165.77 79 168.04 78.96 175.11 79.71 175.46 79.75 179.55 82.53 182.13 82.92 182.95 82.51 185.11 80.88 186.04 80.31 186.58 80.25 187.91 80.31 188.37 80.18 188.72 79.67 188.92 78.47 189.11 78.11 191.73 77.2 196.53 78.02 198.4 77.71 Z" id="GRC-2892" data-name="Dytiki Makedonia"/>
<path d="M 361.07 239.28 360.35 241.08 358.86 240.19 357.57 241.21 356.21 243.61 355.51 243.46 354.74 242.67 353.97 242.29 352.95 242.05 351.96 241.95 351.01 242.01 350.17 242.29 350.49 240.66 351.6 240.04 352.79 239.85 353.34 239.5 353.74 238.5 354.75 237.44 356 236.52 357.14 236.02 358.65 236.73 360.22 237.83 361.07 239.28 Z M 369.34 236.49 369.6 236.6 369.98 236.55 370.47 236.59 372.65 238.45 375.21 240.11 378.09 241.43 381.23 242.29 380.88 243.64 382.65 243.89 385.14 243.84 386.99 244.3 386.99 244.88 383.99 247.43 382.22 248.39 379.96 248.67 379.05 248.43 377.71 247.59 375.25 247.23 374.52 246.77 374.55 246.16 375.59 245.5 375.59 244.88 374.62 244.43 371.71 242.18 371.11 241.4 370.75 240.16 367.95 236.59 369.26 236.02 369.34 236.49 Z M 396.55 240.84 393.64 242.48 390.77 242.29 392.04 240.97 393.32 240.15 394.44 239.13 395.94 235.68 400.62 229.9 402.22 229 402.1 229.35 402.04 229.68 401.92 230 401.58 230.33 403.62 230.63 403.14 232.56 401.56 234.61 400.32 235.33 398.94 238.18 396.55 240.84 Z M 412.6 223.09 412.67 223.8 413.05 223.5 413.73 223.18 414.59 223.49 414.97 223.81 414.91 225.25 413.78 227.59 412.05 228.31 411.17 227.55 411.26 226.9 411.7 226.69 411.38 226.28 410.43 225.87 410.04 225.2 410.36 224.19 410.9 223.21 411.63 222.35 412.42 222.19 412.6 223.09 Z M 313.24 259.22 312.99 259.12 312.39 258.9 310.4 258.22 306.8 259.51 301.45 259.81 298.67 257.65 297.12 257.19 293.75 257.5 288.75 256.33 287.09 256.36 281.21 253.29 279.34 252.79 272.29 253.39 268.7 253.17 267.22 252.47 266.54 251.11 266.15 247 266.66 244.78 260.6 245.26 259.17 244.32 258.46 240.16 257.01 239.22 253.77 237.53 247.25 235.67 242.76 233.57 234.52 240.9 231.72 246.12 229.78 247.39 226.36 247.97 224.53 248.76 222.07 250.98 218.12 252.51 214.69 253.1 213.09 252.9 212.72 251.58 213.31 250.39 212.88 247.8 211.55 246.37 208.45 245.47 205.24 243.55 203.57 243.6 198.34 246.5 196.57 247.04 194.96 246.85 193.52 245.91 192.83 244.56 193.67 242.13 192.97 240.78 189.98 239.39 189.48 235.53 188.78 234.18 187.33 233.24 179.4 234.81 177.53 235.85 176.94 237.05 175.4 238.13 172.5 236.26 170.79 236.56 167.43 238.43 163.06 241.96 161.82 241.56 159.44 238.75 159.11 237.19 163.93 229.91 162.52 227.21 160.3 225.17 158.59 225.48 153.75 224.91 150.52 223 149.19 219.81 144.81 217.02 144.15 215.42 144.45 213.94 143.79 212.34 142.43 210.91 142.68 209.68 143.91 208.55 143.12 205.93 143.64 203.46 142.6 202.07 141.04 201.63 139.67 200.21 139.53 197.66 138.48 194.75 139.71 193.63 141.52 192.83 145.14 193 146.61 193.93 148.28 193.87 148.15 191.32 146.64 185.82 147.22 184.63 148.18 183.22 150.01 182.42 150.92 181.26 152.7 180.71 155.24 181.26 156.39 182.15 158.06 182.1 161.95 181.04 163.78 180.24 165.93 177.96 167.82 176.92 171.38 175.82 185.08 177.21 194.34 179.09 197.64 179.24 204.57 178.06 209.43 178.66 210.63 177.8 210.9 176.56 210.14 173.93 210.41 172.69 209.71 171.34 206.68 169.95 208.57 168.91 212.97 165.65 216.65 164.07 218.56 161.52 219.43 159.09 223.89 155.58 226.68 152.12 227.55 149.69 229.69 147.67 230.38 149.03 231.31 147.87 233.17 147.09 238.01 147.95 237.73 149.19 236.8 150.34 237.17 151.65 236.84 153.14 237.54 154.49 239.11 154.95 241.07 153.67 242.94 151.37 244.52 150.3 248.44 149.27 251.47 150.67 252.17 152.03 251.92 156.06 252.98 158.74 255.79 161.12 262.05 164.47 264.09 167.27 266.93 169.42 270.4 170.37 277.78 168.79 279.41 169 280.86 169.95 285.71 169.37 286.66 169.2 286.66 169.2 286.69 169.31 287.88 172.65 288.58 173.79 289.54 174.79 293.04 177.09 295.12 177.97 296.43 179.02 298.76 181.39 299.68 182.59 300.45 184.18 301.02 186.05 301.25 188.03 301.67 189.51 304.46 194.79 306.61 200.28 307.94 202.03 309.18 203.01 314 205.48 318.73 206.98 322.3 209.12 322.58 209.34 322.98 209.74 324.12 212.56 325.19 213.72 333.09 220.68 334.28 222.6 338.69 225.91 340.63 230.9 345.26 237.98 345.4 239.18 344.43 239.67 341.46 241.8 339.65 242.29 336.12 242.7 334.36 243.12 332.98 243.61 333.48 243.83 333.86 244.05 334.25 244.23 334.88 244.3 334.88 244.88 334.07 245.07 333.39 245.39 332.84 245.75 332.41 246.14 331.28 245.84 329.23 245.95 327.1 246.4 325.74 247.09 324.25 247.65 322.08 247.55 318.37 246.77 319.23 245.47 320.32 244.3 319.82 243.04 321.06 242.19 324.12 241.08 324.11 242.27 322.87 246.14 329.46 243.32 330.45 242.29 329.81 241.42 330.35 241.12 331.24 241.18 331.71 241.4 332.01 241.8 332.66 241.27 333.33 240.25 333.67 239.18 333.21 238.18 330.82 235.03 329.81 234.12 330.21 232.59 329.22 230.95 327.57 229.43 326.02 228.31 324.25 227.34 322.64 226.9 315.45 226.41 315.38 226.09 315.5 225.66 315.27 225.21 314.82 224.66 313.87 223.17 313.37 222.74 312.69 222.65 310.2 222.74 308.1 222.31 307.61 222.42 308.26 223.31 308.26 223.94 307.32 224.7 306.98 225.79 307.26 226.9 308.26 227.74 306.07 228.16 302.42 228.44 298.96 229.1 297.45 230.61 297.26 234.2 297.45 235.33 300.02 241.08 300.6 241.08 301.32 240.1 302.51 239.18 302.15 238.19 302.63 238.13 303.37 238.75 303.82 239.82 304.46 239.18 305.29 240.69 305.63 242.5 306.19 244.23 307.62 245.5 307.61 245.07 307.73 244.96 307.94 244.97 308.26 244.88 307.87 244.25 307.62 243.61 309.95 244.8 311.08 246.38 311.92 248 313.37 249.36 312.8 250.51 312.94 250.76 313.37 251.26 310.44 252.61 309.73 253.5 310.2 254.99 314.97 252.75 317.49 252.11 320.32 251.89 320.32 252.46 319.54 253.16 316.54 254.42 315.71 255.04 315.31 255.71 314.64 257.58 314.21 258.24 313.57 258.93 313.24 259.22 313.24 259.22 Z" fill-rule="evenodd" id="GRC-2900" data-name="Thessalia"/>
<path d="M 155.24 181.26 152.7 180.71 150.92 181.26 150.01 182.42 148.18 183.22 147.22 184.63 146.64 185.82 148.15 191.32 148.28 193.87 146.61 193.93 145.14 193 141.52 192.83 139.71 193.63 138.48 194.75 139.53 197.66 139.67 200.21 141.04 201.63 142.6 202.07 143.64 203.46 143.12 205.93 143.91 208.55 142.68 209.68 142.43 210.91 143.79 212.34 144.45 213.94 144.15 215.42 144.81 217.02 149.19 219.81 150.52 223 153.75 224.91 158.59 225.48 160.3 225.17 162.52 227.21 163.93 229.91 159.11 237.19 159.44 238.75 161.82 241.56 159.74 242.07 154.8 245.28 151.21 246.63 149.51 246.93 137.96 247.1 136.2 247.65 134.67 248.73 133.69 251.16 133.84 252.21 133.84 252.21 133.37 252.35 131.72 253.79 133.66 254.99 128.55 254.42 128.55 253.79 127.41 253.58 126.32 252.98 125.47 252.38 125.07 252.18 123.97 252.66 123.08 252.25 122.46 251.41 122.22 250.57 122.4 250.57 122.68 250.17 123.48 249.99 123.48 249.36 122.8 249.36 121.9 249.82 120.86 249.85 119.86 249.46 119.12 248.67 118.42 248.67 117.9 249.6 116.24 250.33 115.9 250.91 116.3 251.83 117.32 252.01 117.74 252.45 113.88 252.4 115.27 251.89 115.11 251.26 115.08 250.37 114.82 249.76 114 249.99 114.03 249.64 113.94 249.42 113.88 249.26 114.03 249.15 114 248.67 113.21 248.57 112.72 248.7 112.42 249 112.1 249.36 113.25 247.33 112.89 245.78 111.8 245.22 110.78 246.14 110.2 245.5 109.84 246.17 109.3 246.69 108.55 247.08 107.61 247.4 107.61 248.09 108.97 248.34 108.61 249.11 108.58 250.17 108.24 251.26 107.57 251.94 106.83 252.33 106.16 252.82 105.79 253.79 104.46 253.09 104.53 254.04 104.66 254.46 105.03 254.53 105.79 254.42 110.08 257.19 111.9 257.88 112.47 258.53 112.67 259.19 112.39 259.48 111.58 259.32 109.92 258.54 107.2 257.84 106.61 257.9 105.79 258.22 105.74 258.62 104.81 259.72 103.71 260.45 103.18 259.77 102.9 258.9 102.23 258.27 101.59 257.76 101.29 257.27 101.19 256.72 100.98 256.41 100.77 256.21 100.66 255.98 100.86 255.37 101.32 254.99 101.75 254.72 101.93 254.42 100.99 251.33 99.21 249.11 96.75 247.49 93.76 246.14 90.81 244.35 83.58 237.23 80.85 235.76 79.97 234.96 80.3 234.12 79.83 233.28 79.62 232.19 79.74 231.13 80.3 230.33 80.3 229.64 79.19 230.03 78.24 230.13 77.56 229.84 77.14 229 75.76 229.62 74.44 229.57 73.2 229.07 72.07 228.31 69.48 229.17 65.71 227.68 62.73 224.93 62.54 222.04 61.29 221.11 60.59 219.94 59.6 219.02 57.47 218.83 57.47 218.19 58.11 218.19 58.11 217.62 57.35 216.88 56.33 215.44 55.58 215.03 57.17 214.63 59.1 214.67 60.38 214.42 60.06 213.14 59.16 212.39 55.58 210.55 55.58 209.97 57.19 210.04 58.34 210.28 59.24 210.21 60.06 209.34 60.06 208.7 59.1 208.18 57.47 207.57 56.18 207.53 56.21 208.7 55.4 208.12 54.34 207.61 53.27 207.49 54.31 206.75 52.57 206.42 50.97 206.28 49.47 206.38 47.98 206.75 48.7 206 49.09 205.14 49.24 204.15 49.19 202.95 49.88 203.58 50.51 203.54 51.14 203.06 51.78 202.38 51.82 202.06 51.74 200.87 51.78 200.42 51.96 200.36 52.84 199.88 53.05 199.85 52.45 197.97 50.91 197.12 49.34 196.76 48.61 196.31 48.3 195.92 46.85 194.97 46.37 194.79 45.32 194.58 44.55 194.13 43.84 193.47 39.74 192.74 37.61 192.11 36.53 191.57 36.01 191.64 35.6 191.57 37.1 190.84 40.2 191.65 43.88 192.57 48.14 194.29 50.78 196.13 52.66 196.81 54.13 196.52 54.46 196.04 54.42 195.36 54.52 194.65 55.25 194.03 56 193.83 56.78 193.83 57.59 194.03 58.4 194.41 58.68 192.38 60.08 191.34 61.8 190.56 63.07 189.36 63.35 188.36 63.07 187.87 62.58 187.46 62.22 186.65 62.06 186.37 61.38 185.71 61.15 185.41 61.25 185.12 61.84 184.01 61.98 183.53 61.68 182.8 61.13 182.41 60.9 182.03 61.55 181.34 62.33 181.09 63.25 181.2 63.36 181.24 66.82 182.26 68.45 183.02 70.03 183.16 71.64 181.88 72.39 180.03 72.02 178.42 67.75 172.97 65.54 171.29 65.06 170.74 63.68 165.11 63.21 164.39 64.33 164.12 68.95 164.01 70.48 163.76 70.88 162.1 71.65 160.45 72.71 158.98 73.94 157.88 75.7 157.27 78.78 157.54 80.23 156.9 81.92 156.56 86.83 157.12 89.14 156.94 92.62 155.67 94.92 154.83 95.6 154.46 95.99 153.82 97.38 150.81 97.52 150.39 97.08 148.67 97.05 148.2 96.74 147.17 96.79 146.6 97.22 146.1 98.59 145.78 99.1 145.46 100.13 143.25 100.15 141.35 99.96 139.5 100.38 137.39 101.11 136.49 102.11 135.95 103.13 135.54 103.85 135.05 104.12 134.53 104.43 134.87 105.55 135.54 107.24 135.47 109.08 134.67 110.32 133.54 113.79 132.92 115.18 134.34 116.99 138.6 120.92 142.33 123.43 146.42 124.62 150.35 124.32 151.84 121.98 155.12 123.46 156.05 124.65 159.98 127.13 162.55 130.75 161.19 132.23 162.12 131.99 164.88 129.55 168.65 132.45 170.76 133.7 175.96 135.47 178.7 137.04 179.14 140.61 178.03 145.79 177.11 149.09 177.24 155.18 179.99 155.24 181.26 Z" id="GRC-2949" data-name="Ipeiros"/>
<path d="M 621.06 382.36 612.86 388.19 611.31 388.76 603.35 389.63 601.52 390.25 600.56 390.83 598.75 392.24 597.74 392.78 596.85 393.01 596.2 392.99 595.45 392.86 594.25 392.78 590.63 393.58 589.3 393.31 588.88 391.51 589.62 390.29 592.64 387.85 593.32 386.8 593.94 385.46 595.38 383.96 597.08 382.69 598.37 382.02 600.66 381.91 605.98 382.49 607.91 382.02 609.78 382.54 612.54 381.86 615.05 380.71 617.5 378.54 620.55 377.83 625.04 377.54 623.42 380.02 621.06 382.36 Z M 680 371 681 371.84 681.35 370.82 680.82 370.01 679.91 369.17 679.05 368.05 680.58 368.45 681.7 368.44 682.62 368.06 683.53 367.36 683.58 368.48 686.09 369.12 690.43 369.37 687.78 370.33 687.28 370.58 687.13 371.34 687.49 372 688.05 372.75 688.54 373.74 689.58 373.14 690.19 373.57 690.31 374.57 689.81 375.64 687.56 375.07 684.22 375.65 675.8 378.3 674.94 378.73 673.93 379.49 673.37 380.14 673.19 380.62 672.91 381 672.03 381.39 671.25 381.51 665.37 381.39 664.45 381.16 664.07 380.59 663.86 379.85 663.49 379.15 661.99 377.22 661.07 376.57 658.88 376.12 657.87 375.21 657.11 375.01 656.29 375.11 654.83 375.54 652.38 375.81 650.87 376.32 649.71 377.13 649.2 378.23 648.52 378.23 648.52 377.54 647.93 377.54 646.93 378.38 646.11 377.46 645.55 375.88 645.35 374.72 645.25 372.49 645.6 371.42 646.62 370.58 648.2 370.19 649.85 370 651.15 369.56 651.67 368.37 652.46 367.67 663 365.69 666.2 365.66 669.51 366.15 670.77 366.75 673.19 368.36 676.42 369.06 680 371 Z M 597.63 294.44 601.52 298.18 601.76 297.78 601.9 297.36 602.18 297.04 602.79 296.92 602.85 296.51 602.73 296.37 602.51 296.35 602.21 296.28 603.6 295.92 604.79 296.18 605.81 296.96 606.65 298.18 605.47 299.33 605.31 301.18 604.87 302.81 602.79 303.3 603.51 304.14 603.9 304.38 604.69 304.56 604.13 305.14 605.77 305.18 605.81 305.77 604.69 307.1 604.41 308.5 604.4 309.66 605.38 316.64 606.65 320.43 604.19 320.71 602.01 322.14 600.96 324.23 601.88 326.47 601.88 327.85 599.66 328.78 595.2 329.93 594.46 330.9 593.89 332.99 593.32 333.72 592.4 333.95 590.48 333.3 589.16 333.09 588.21 332.55 586.15 330.41 585.77 330.27 585.39 330.36 584.5 329.65 583.61 328.55 583.19 327.45 582.76 327.62 581.71 327.86 581.28 328.03 581.33 327.4 581.24 326.12 581.28 325.5 579.75 326.26 579.08 325.71 579.22 324.41 580.03 322.97 580.92 322.36 582.13 322 583.83 321.7 584.32 321.4 585.4 320.43 587.67 320.57 588.19 320.43 588.79 319.35 588.85 318.21 589.23 317.23 590.77 316.64 590.29 315.6 590.48 313.33 590.14 312.15 589.97 312.52 589.95 312.62 589.85 312.63 589.46 312.79 589.03 312.09 588.48 311.55 587.77 311.16 586.92 310.89 587.44 310.07 587.38 308.8 586.91 307.47 586.29 306.46 585.18 305.56 584.14 305.26 582.92 305.08 581.28 304.56 579.93 303.67 576.97 300.73 576.17 299.5 576 298.06 576.5 297.04 577.15 296.04 577.49 294.7 591.06 292.49 592.96 292.7 597.42 293.81 597.63 294.44 Z M 553.4 291.8 553.99 292.52 556.5 294.38 556.55 294.82 556.41 294.94 556.15 294.94 555.82 295.02 555.09 298.31 554.9 298.87 553.61 298.69 552.66 298.39 551.8 298.33 550.8 298.87 550.48 298.01 550.66 297.4 550.9 296.88 550.8 296.28 550.43 295.87 549.36 295.02 548.91 294.38 547.78 293.65 547.32 293.13 547.59 292.49 548.22 292.25 548.8 292.45 549.24 292.84 549.49 293.13 550.04 292.48 550.73 292.02 551.46 291.96 552.08 292.49 552.66 292.49 552.66 291.8 553.4 291.8 Z M 629.61 226.09 626.67 229.64 626.9 230.15 630.79 233.12 633.96 234.12 634.7 234.59 635.1 234.96 638.25 238.68 639.48 239.52 641.5 240.45 640.28 241.08 640.67 241.87 641.32 242.57 642.18 243.29 642.23 244.22 642.5 244.78 643.08 245 644.08 244.88 643.95 246.75 645.18 248.84 646.89 250.56 648.22 251.26 648.22 252.1 648.01 253.7 646.84 254.72 644.08 253.79 642.58 254.43 641.47 254.03 640.55 253.18 639.6 252.46 640.28 251.89 639.45 251.42 639.31 250.95 639.49 250.47 639.6 249.99 639.7 249.68 640.23 248.67 640.28 248.09 639.22 247.39 639.02 247.09 638.36 245.71 636.82 245.29 633.64 245.5 631.98 246.24 633.46 247.82 637.07 249.99 640.49 253.87 642.18 254.99 642.18 255.68 641.95 256.08 641.87 256.07 641.96 256.17 642.18 256.95 639.78 257.78 636.82 258.37 630.79 258.85 629.21 258.65 626.25 257.78 622.93 257.41 621.65 256.96 619.36 255.68 617.1 254.84 611.61 253.91 606.84 253.75 605.88 253.51 605.05 252.85 602.2 249.64 601.15 248.91 599.64 248.67 599.64 248.09 600.18 247.92 600.95 247.4 601.61 247.24 602.01 247.29 602.35 247.39 602.79 247.4 606.33 246.77 606.74 246.5 608.23 244.59 609.23 244 610.24 243.86 611.29 243.84 612.39 243.61 614.87 241.71 617.64 240.09 617.75 239.82 618.68 239.41 618.38 238.52 617.44 237.63 616.49 237.23 613.51 236.66 612.39 236.59 610.42 236.76 608.85 237.11 607.55 237.76 606.33 238.84 604.95 241.4 604.69 241.4 600.52 246.04 599.16 247.01 597.42 247.4 595.47 247.19 587.63 244.92 586.29 244.3 584.95 243.48 584.07 243.12 582.88 242.98 581.2 242.42 578 239.88 576.17 239.18 576.17 238.49 577.22 238.19 577.59 237.35 577.74 236.29 578.07 235.33 577.68 235.23 577.44 235.08 577.21 234.9 576.86 234.7 577.57 234.32 577.92 233.92 578.06 233.36 578.07 232.45 578.4 231.81 579.14 231.44 580.03 231.18 580.66 230.9 583.21 228.99 583.83 228.31 584.46 228.31 585.6 230.2 588.61 230.01 592.07 229.3 594.57 229.64 594.95 229.12 595.31 228.74 595.62 228.32 595.84 227.74 596.36 228.59 596.47 229 597.1 229 598.26 227.73 600.2 227.06 604.13 226.53 606.57 225.84 607.48 224.75 607.33 223.1 606.65 220.73 623.27 220.34 625.04 220.73 624.36 222.8 626.08 223.68 628.57 224.21 630.17 225.21 629.61 226.09 Z M 498.08 212.56 497.44 212.56 496.4 208.15 496.67 206.01 498.65 204.85 498.33 204.11 498.54 203.76 499.14 203.64 499.98 203.58 503.23 205.3 502.58 207.6 498.08 212.56 Z M 539.31 161.09 539.31 161.67 539.76 161.63 539.86 161.78 539.85 162.06 540.15 162.88 540.28 163.8 540.52 164.25 538.36 165.2 536.05 166.53 534.57 168.33 534.88 170.64 533.6 170.61 532.58 170.85 531.78 171.28 531.08 171.85 532.35 172.45 532.98 172.54 531.57 173.12 530.5 173.94 530.38 174.83 531.78 175.63 530.6 176.64 531.12 177.65 532.26 178.6 532.98 179.43 533.11 180.12 533 180.2 532.57 180.23 531.78 180.76 531.61 181.41 531.53 182.33 531.18 182.85 530.2 182.31 529.62 182.07 526.97 181.39 526.2 181 526.05 180.12 526.05 179.25 525.74 178.86 524.15 178.4 522.62 176.53 520.97 176.33 523.09 175.18 524.25 174.29 524.77 173.45 524.34 172.11 523.3 171.21 522.07 170.73 520.97 170.64 517.11 173.11 517.97 173.1 518.66 173.2 519.23 173.43 519.7 173.79 518.05 174.01 516.83 174.89 515.95 176.17 515.27 177.53 516.04 177.26 516.23 177.16 516.53 176.9 517.57 177.91 518.72 179.42 519.32 180.78 518.72 181.39 516.7 181.3 515.06 181.06 512.12 180.12 514.2 177.55 514.59 177.22 514.12 176.23 513.1 176.54 512.02 177.44 511.42 178.22 510.79 178.22 510.74 177.5 510.58 177.1 510.37 176.8 510.15 176.33 504.79 177.62 503.78 178.22 503.2 178.22 503.52 177.64 503.84 177.16 504.32 176.74 505.09 176.33 504.57 176.15 503.9 175.78 503.2 175.63 503.34 174.83 503.2 174.43 503.78 174.04 504.39 173.79 504.39 173.11 503.78 173.11 503.78 172.54 504.2 172.42 504.45 172.29 505.09 171.85 504.39 171.85 505.16 170.51 504.77 169.71 503.9 169.02 503.2 168.05 503.11 166.73 503.26 165.5 503.05 164.6 501.94 164.25 501.94 163.62 505.2 163.47 511.1 162.36 512.03 162.55 512.63 162.98 513.02 163.41 513.32 163.62 514.77 163.46 519.7 162.36 521.76 162.95 523.03 164.02 524.07 165.37 525.45 166.78 525.26 167.5 527.28 166.88 529.81 165.74 531.08 164.88 531.08 164.08 533.06 161.86 534.24 161.09 534.61 161.15 537.09 161.09 537.9 160.92 540.52 159.82 539.72 160.76 539.31 161.09 Z" fill-rule="evenodd" id="GRC-2988" data-name="Voreio Aigaio"/>
<path d="M 459.38 266.44 459.8 267.35 460.32 267.78 461.86 268.4 465.73 270.49 467.65 271.89 468.88 273.45 469.06 273.73 469.29 273.94 469.47 274.31 469.55 275.03 469.46 275.81 469.19 275.9 468.79 275.82 468.29 276.05 467.72 276.67 467.11 277.21 466.44 277.3 465.7 276.62 465.07 276.62 464.13 277.21 463.06 276.85 462.2 275.97 461.86 275.03 461.3 275.14 460.11 275.53 459.01 276.38 458.7 277.83 455.52 274.72 459.38 273.45 458.43 270.78 457.8 270.12 456.79 270.93 456.26 270.93 455.94 269.89 455.15 269.58 454.08 269.76 453 270.23 453 269.25 450.91 268.54 450.46 267.13 450.12 267.3 449.83 267.76 449.13 266.92 448.31 266.5 447.47 266.55 446.61 267.13 446.48 266.19 446.85 265.36 447.5 264.77 448.25 264.54 449.02 264.07 449.04 263.03 448.56 261.38 448.6 260.01 448.92 258.82 449.85 257.97 451.73 257.58 458.15 261 459.38 262.07 459.56 262.97 459.24 265.23 459.38 266.44 Z M 354.52 265.24 355.24 266.44 355.3 267.45 356.38 269.18 358.06 270.83 362.16 272.21 366.16 274.92 368.58 275.35 368.58 276.05 368.33 276.75 368.58 277.11 369.15 277.09 369.84 276.62 370.99 277.55 373.63 277.95 374.91 278.52 375.87 278.02 376.86 278.52 378.65 277.59 380.5 277.88 381.97 279.04 382.55 280.73 383.37 281.84 385.23 282.86 388.87 284.21 393 285.24 397.48 285.53 399.49 285.89 401.36 286.45 403.1 286.39 404.73 284.9 406.73 285.65 408.87 285.66 410.99 285.46 412.97 285.53 418.84 287.16 420.61 288.01 419.66 288.25 418.7 288.82 417.89 289.62 417.46 290.59 417.42 292.13 417.91 293.02 426.22 298.49 427.64 300.08 425.33 301.52 423.63 304.55 423.28 307.74 425.09 309.68 425.09 310.26 423.34 310.71 423.63 311.52 425.73 313.48 425.92 314.58 425.94 316.04 426.1 317.3 428.27 319.46 428.47 320.37 428.93 320.86 429.38 321.14 429.59 321.38 429.53 323.03 429.6 323.87 430.08 324.48 429.15 325.69 428.91 326.13 429.59 327.35 430.78 328.43 433.27 329.93 436.49 331.25 436.79 331.8 437.07 332.63 437.47 333.39 438.11 333.72 441.27 333.24 442.57 333.28 445.17 334.82 448.87 335.13 450.46 335.62 452.23 334.92 460.64 333.72 459.83 338.34 459.93 340.67 461.28 342.69 460.51 344 459.52 348.06 458.7 349.59 457.35 350.49 455.46 351.33 453.38 351.94 451.41 352.18 450.38 351.95 450.01 351.4 449.83 350.28 447.68 347.49 447.3 347.4 446.01 346.51 443.54 347.37 442 348.79 443.45 349.59 443.45 350.28 442.04 351.22 440.64 351.08 439.29 350.28 437.57 348.78 437.13 348.2 436.49 347.06 435.89 346.33 435.27 345.76 435.29 345.22 436.49 344.53 435.36 342.46 434.52 341.82 433.27 342 432.72 340.48 431.15 339.63 429.24 339.5 427.64 340.1 426.37 339.5 425.89 339.59 425.09 340.1 425.11 339.68 425.17 339.5 425.35 339.45 425.73 339.41 425.73 336.94 424.99 336.42 423.43 336.67 423.15 335.97 423.54 335.3 425.27 333.94 425.73 333.09 425.54 331.92 424.17 330.67 423.37 328.28 422.2 327.48 420.74 327.2 419.41 327.45 419.98 328.72 417.89 328.32 418.34 326.62 419.97 324.7 421.31 323.66 420.42 322.41 419.68 322.45 418.97 323.1 418.1 323.66 417.94 323.91 417.97 324.34 417.85 324.75 417.15 324.92 416.33 324.73 416.29 324.32 416.6 323.88 416.83 323.66 416.83 322.97 415.55 322.97 417.46 319.8 415.56 318.94 413.56 318.33 411.28 317.96 408.55 317.85 410.8 317.3 411.73 316.86 412.4 315.95 411.67 315.11 411.49 314.29 411.58 313.68 411.7 313.48 410.74 311.92 410.11 311.27 409.8 311.84 404.42 311.52 398.08 312.15 396.22 311.96 393.05 311.09 391.72 310.89 389.93 311.03 387.11 311.55 385.72 311.52 379.33 310.26 377.95 310.38 375.01 311.02 373.69 310.89 372.71 309.98 370.47 305.77 370.16 306.14 369.83 306.43 369.35 306.56 368.58 306.46 369.51 305.08 371.25 303.56 372.45 302.06 371.74 300.77 371.74 300.08 372.43 300.08 372.43 299.5 370.44 296.78 369.13 295.54 367.63 295.02 363.58 294.53 361.62 293.93 360.35 293.13 360.03 292.42 359.94 290.79 359.66 290.01 357.5 288.65 357.14 288.35 356.84 288.04 356.19 287.9 355.53 287.51 355.24 286.45 354.87 285.77 354.01 285.17 351.21 283.8 348.9 282.95 346.29 280.71 345.4 280.42 344.83 280.01 343.93 278.23 343.48 277.83 341.35 276.93 332.29 271.58 329.13 270.23 326.85 269.66 325.66 269.58 324.12 269.66 321.29 270.13 319.95 270.04 318.72 269.31 316.92 267.46 316.2 267.18 314.95 267.13 313.44 266.87 312.03 266.39 310.72 266.1 309.51 266.44 309.51 267.13 310.81 267.16 312.06 267.54 312.8 268.36 312.69 269.66 311.86 270.18 310.35 270.56 300.19 271.3 298.08 272.25 298.01 271.21 298.15 270.15 298.49 269.31 299.05 268.97 299.78 268.68 301.95 267.41 302.85 267.13 304.98 266.73 309.18 264.94 311.97 264.38 314.64 263.27 316.85 262.64 317.19 262.37 317.6 261.1 317.8 260.75 318.87 260.46 320.77 260.41 321.59 260.06 322.24 259.29 322.57 258.41 322.58 257.59 322.3 256.95 323.65 256.59 325.36 255.29 326.34 254.99 332.05 254.99 334 254.46 338.84 252.23 341.26 251.89 342.2 252.28 343.57 253.53 344.11 253.79 345.32 253.91 346.69 254.27 347.98 254.87 348.9 255.68 348.23 257.45 349.18 258.83 351.03 259.73 352.98 260.06 352.98 260.99 354.52 265.24 Z M 313.24 259.22 312.83 259.57 312.12 260.06 311.57 260.15 310.23 259.97 309.51 260.06 308.89 260.49 308.39 260.7 307.62 260.75 308.05 261.71 308.26 262.07 306.93 262.16 305.07 263.06 304.14 263.27 303.02 263.08 301.81 262.69 300.57 262.45 299.33 262.64 298.89 263.31 298.42 265.42 297.76 265.86 295.45 265.92 294.7 266.28 294.28 267.13 292.95 267.08 290.81 267.5 288.78 267.65 287.9 266.78 287.45 266.04 286.48 266.26 284.73 267.13 283.94 266.89 282.38 266.05 281.9 265.86 281.72 265.61 278.49 263.75 277.72 263.88 276.02 264.83 275.46 265.27 274.71 265.68 273.7 265.86 272.78 265.91 272.05 266.09 271.42 266.47 270.82 267.13 270.46 266.88 269.55 266.44 269.55 268.97 273.98 268.4 273.98 268.97 272.22 269.9 273.09 271 274.89 271.39 275.88 270.23 276.52 270.23 275.88 271.55 277.25 271.51 278.48 271.21 279.52 271.1 280.3 271.55 284.85 269.72 286 269.66 288.24 272.53 290.21 274.43 291.22 274.9 292.2 275.76 293.01 276.05 293.76 275.98 295.56 275.47 296.5 275.35 297.73 275.64 299.24 276.39 300.57 277.41 301.25 278.52 303.13 277.03 304.12 276.64 305.66 276.62 306.66 276.98 308.48 278.23 309.86 278.52 315.06 278.57 317.44 279.29 319.05 281.05 321.93 288.33 323.23 289.33 325 289.46 325.9 289.2 327 288.35 328.04 287.93 329.2 288.04 330.45 287.9 331.71 286.74 329.93 285.79 329.13 285.53 330.85 284.92 332.53 285.22 335.57 286.74 337.06 287.16 340.13 287.5 341.89 288.01 343.29 288.88 344.24 290.08 344.65 291.36 344.43 292.49 343.3 293.4 341.94 293.92 340.72 294.82 339.99 296.92 340.92 295.84 342.03 295.8 343.16 296.4 344.11 297.26 345.1 297.93 347.59 298.4 348.9 298.87 348.9 299.5 348.09 299.75 345.96 299.78 345.06 300.08 344.29 300.77 344.06 301.37 344.58 301.81 346.03 301.98 352.32 301.75 361.67 303.01 362.83 302.32 363.85 301.06 366.1 302.04 369.26 304.56 367.36 305.52 366.68 305.77 366.68 306.46 367.84 306.67 368.79 307.08 369.15 307.65 368.58 308.36 368.58 309 371.45 310.12 375.89 315.45 379.33 317.27 380.71 317.33 384.6 316.82 384.6 316.83 384.25 317.32 381.7 318.25 376.49 319.53 373.31 321.86 371.38 324.39 370.57 333.16 368.08 335.34 364.72 337.14 363.14 336.92 361.74 335.95 358.59 335.51 357.13 334.79 353.54 330.73 352.09 330.01 350.39 330.28 348.81 330.06 347.41 329.1 347.7 327.87 348.63 326.73 347.72 325.08 346.26 324.37 342.81 325.15 341 325.91 339.75 327.01 339.08 331.23 337.85 332.32 334.69 331.88 329.46 331.83 333.52 332.87 333.73 333.52 333.32 333.62 326.9 332.96 325.45 332.51 327.35 331.25 324.92 329.2 323.71 329.01 320.73 331.26 319.73 331.5 316.54 331.25 316.54 330.61 318.37 330.61 317.15 329.17 315.87 328.4 314.52 328.09 309.09 327.6 307.41 327.9 306.36 329.29 307.61 328.96 308.97 329.04 310.13 329.57 310.72 330.61 309.13 330.58 306.37 330.18 305.09 330.61 303.82 326.13 303.19 326.13 302.51 327.45 302.39 327.01 302.1 326.58 301.94 326.13 300.25 326.57 296.87 326.89 295.55 327.45 291.76 325.5 292.54 324.54 294.21 323.42 294.91 322.33 293.19 321.74 289.68 320.95 287.55 319.73 286.02 319.38 285.43 319.11 284.96 318.62 283.47 316.64 284.31 315.02 282.99 313.12 280.8 312.34 278.97 314.05 280.65 314.23 280.77 314.95 279.89 315.47 278.69 315.03 277.63 314.76 276.58 315.52 275.73 316.58 275.3 317.27 275.3 317.85 275.78 318.07 276.05 318.25 276.41 318.4 277.09 318.54 277.09 319.11 276.41 319.49 276.32 319.68 276.47 319.92 276.52 320.43 275.44 321.32 274.31 321.59 273.02 321.28 271.46 320.43 271.42 320.16 270.37 318.58 270.19 318.54 269.91 318.01 269.65 317.74 269.85 317.53 270.82 317.27 269.56 315.23 265.12 310.89 264.3 309.46 263.8 309 263.41 308.83 262.43 308.59 258.11 306.46 258.22 307.42 258.65 309.09 258.74 309.97 256.21 311.52 255.52 312.15 256.2 312.9 256.66 313.25 257.03 313.22 257.48 312.79 257.83 313.64 257.61 314.35 257.02 314.91 256.21 315.32 256.84 315.95 256.32 316.72 254.95 316.8 253.18 316.29 250.78 315.95 247.3 316.29 246.78 315.76 245.59 315.25 244.31 315.03 243.45 315.32 242.87 315.32 241.73 315.11 240.29 315.77 239.06 317.01 238.43 318.54 237.66 317.9 237.14 316.66 236.54 315.95 235.68 315.68 234.87 315.79 234.41 315.68 234.59 314.74 233.18 313.94 230.24 313.24 225.45 311.55 223.64 311.48 221.94 312.15 219.76 310.43 217 310.33 214.32 311.15 210.57 313.29 209.71 313.45 208.31 313.48 207.57 313.18 207.12 312.52 207.12 312.52 207.75 310.99 207.48 309.18 209.39 306.38 213.2 303.83 216.59 303.24 218.4 302.46 219.3 301.3 218.93 298.47 220.47 295.88 217.72 293.51 217.67 292.23 218.89 291.12 218.53 288.29 219.7 285.91 219.28 283.32 220.77 280.98 220.75 279.66 217.16 277.98 217.01 277.2 213.12 278.49 211.58 279.56 208.02 280.89 203.17 280.54 202.59 281.73 202.7 284.28 199.3 286.39 197.28 286.64 197.54 285.41 196.54 284.02 191.49 284.66 188.24 284.51 185.21 283.38 180.2 280.74 178.81 279.56 177.41 276.86 177.36 275.59 177.99 274.15 179.53 273.07 184.9 270.94 184.84 269.67 181.8 268.53 176.73 267.66 175.29 266.73 173.69 266.53 172.24 265.6 171.86 264.29 172.39 261.82 171.73 260.22 162.47 255.82 162.08 254.51 164.46 250.99 164.4 249.72 164.97 248.52 164.28 247.17 161.84 244.6 161.82 241.56 163.06 241.96 167.43 238.43 170.79 236.56 172.5 236.26 175.4 238.13 176.94 237.05 177.53 235.85 179.4 234.81 187.33 233.24 188.78 234.18 189.48 235.53 189.98 239.39 192.97 240.78 193.67 242.13 192.83 244.56 193.52 245.91 194.96 246.85 196.57 247.04 198.34 246.5 203.57 243.6 205.24 243.55 208.45 245.47 211.55 246.37 212.88 247.8 213.31 250.39 212.72 251.58 213.09 252.9 214.69 253.1 218.12 252.51 222.07 250.98 224.53 248.76 226.36 247.97 229.78 247.39 231.72 246.12 234.52 240.9 242.76 233.57 247.25 235.67 253.77 237.53 257.01 239.22 258.46 240.16 259.17 244.32 260.6 245.26 266.66 244.78 266.15 247 266.54 251.11 267.22 252.47 268.7 253.17 272.29 253.39 279.34 252.79 281.21 253.29 287.09 256.36 288.75 256.33 293.75 257.5 297.12 257.19 298.67 257.65 301.45 259.81 306.8 259.51 310.4 258.22 312.39 258.9 312.99 259.12 313.24 259.22 Z" fill-rule="evenodd" id="GRC-2989" data-name="Stere Ellda"/>
<path d="M 418.73 642.93 418.73 643.55 416.26 643.41 414.17 642.51 410.5 640.4 410.5 639.82 411.56 639.81 412.4 639.53 413.09 639.07 413.66 638.56 414.82 638.5 415.94 638.64 418.1 639.13 418.1 639.82 417.53 640.64 417.45 641.6 417.85 642.45 418.73 642.93 Z M 397.06 577.57 399.62 578.17 401.03 577.78 406.24 578.25 408.55 578.17 409.52 577.92 410.34 577.53 410.92 576.91 411.13 575.96 411.54 575.19 412.53 574.95 414.91 575.07 413.78 571.76 416.87 570.71 421.06 571.1 423.15 572.16 425.03 576.22 424.78 576.91 424.34 577.17 423.59 578.42 423.15 578.86 422.28 579.2 421.37 579.37 419.41 579.44 415.79 578.8 413.72 578.71 412.4 579.44 412.86 580.24 414.45 581.09 416.18 581.76 418.91 582.42 421.96 584.16 423.49 584.56 425.13 584.32 426.81 583.69 428.35 582.87 429.59 582.03 430.66 586.28 430.79 588.04 430.6 591.35 430.79 592.15 431.5 592.61 433.39 592.71 434.27 593.13 437.71 594.14 445.86 592.16 449.2 592.84 451.16 591.94 458.7 590.82 461.19 590.17 466.97 587.72 468.91 587.18 470.91 586.87 472.99 586.83 482.18 588.15 484.1 588.99 484.98 588.45 486.54 587.83 489.16 587.09 494.91 588.99 495.45 588.41 495.8 588.19 496.03 587.9 496.18 587.09 500.58 587.96 501.59 589.05 503.23 588.85 503.78 588.99 503.9 589.6 503.69 590.1 503.35 590.59 503.2 591.17 503.97 593.51 505.98 594.5 508.74 594.69 513.03 594.48 515.67 593.98 517.11 594.05 517.42 594.28 517.87 594.7 518.49 595.12 519.35 595.32 522.17 595.32 527.28 594.62 529.58 595.21 530.93 595.28 532.35 594.62 532.98 595.32 533.68 594.62 535.37 595.95 536.65 597.45 538.25 598.66 540.87 599.16 543.5 598.86 558.03 594.37 559.98 594.05 561.05 594.25 563.01 595.12 564.42 595.32 569.85 595.32 569.18 596.57 568.12 597.64 565.99 599.16 566.68 599.74 566.11 600.59 566.02 601.32 566.41 601.91 567.31 602.33 567.2 600.71 567.67 599.98 568.42 600.09 569.16 601 568.67 601.63 568.67 601.95 569.16 602.33 568.63 603.01 568.17 602.69 567.83 602.59 567.4 602.85 566.68 603.59 566.95 604.41 566.18 605.45 565.5 606.83 565.99 608.71 564.88 609.48 565.01 610.3 565.62 611.19 565.99 612.19 566.34 614.06 567.29 614.28 568.63 614.08 570.16 614.69 571.38 615.48 572.52 615.75 574.6 615.67 575.77 615.08 577.38 612.46 578.44 611.87 579.22 611.83 579.75 611.71 580.66 611.18 581.81 609.54 581.92 609.29 583.02 609.05 586.04 608.89 589.5 608.31 590.14 608.08 593.03 606.54 593.89 605.86 594.57 605.49 595.45 605.31 596.08 605.41 596.59 605.37 597.1 604.8 597.74 604.8 599.03 605.7 602.58 606.47 601.52 607.39 603.51 608.27 605.86 608.08 608.12 607.22 609.81 606.12 609.34 605.95 609.34 605.84 609.18 605.49 611.73 603.52 613.52 601.51 615.54 600.06 618.73 599.74 618.03 598.53 619.03 598.57 619.36 598.53 619.16 598.21 618.92 597.54 618.73 597.21 621.24 597.21 620.43 598.9 619.09 600.02 617.53 601 616.13 602.33 617.79 607.12 619.24 609.23 621.24 608.08 620.38 609.52 618.86 611.01 617.9 612.45 618.73 613.77 618.07 615.46 617.2 617.15 616.22 618.64 615.22 619.78 614.75 620.57 613.82 622.8 613.3 623.26 612.23 623.42 611.31 623.8 610.49 624.24 605.13 626.21 603.81 626.48 601.24 626.48 601.1 626.22 599.75 624.98 599.06 624.58 596.86 624.29 595.02 624.49 593.37 624.48 591.7 623.57 590.86 622.98 590.09 622.79 589.34 622.99 588.53 623.57 587.81 623.73 584.46 623.26 580.52 623.91 573.71 625.88 554.55 625.16 548.7 626.69 547.27 627.4 545.74 627.85 537.31 627 531.05 627.2 529.28 627.6 527.01 627.83 526.15 628.18 524.77 628.95 519.52 630.66 518.09 630.91 512.82 630.52 510.79 630.91 510.22 631.22 509.45 631.96 508.83 632.17 507.87 632.17 507.27 631.94 506.75 631.67 506.02 631.54 504.38 631.64 503.01 631.91 500.61 632.75 499.14 632.26 497.34 632.09 474.62 632.75 474.62 632.17 475.84 631.37 476.17 630.31 475.88 626.79 476.05 625.67 476.6 623.88 476.51 622.57 476.23 621.65 475.7 620.38 475.02 619.26 474.3 618.78 473.81 618.57 473.35 618.14 472.73 617.71 471.75 617.51 463.54 617.39 461.3 617.01 459.96 616.3 459.38 616.3 458.51 616.58 457.47 615.8 455.52 613.77 454.29 613.03 452.59 612.29 450.78 611.97 449.2 612.51 443.61 610.2 443.45 609.29 443.45 608.71 433.36 609.53 426.37 608.71 425.97 608.46 425.51 608 425.18 607.57 425.09 607.39 424.47 607.41 423.98 607.66 423.57 607.94 423.15 608.08 416.51 608.08 414.91 607.45 414.04 607.47 413.66 608.39 413.28 608.31 410.81 608.71 409.11 608.1 406.5 605.41 405.05 604.8 397.1 605 393.24 604.52 390.14 603.01 389.37 603.5 388.8 603.74 388.27 603.76 387.62 603.59 386.01 604.67 379.48 604.48 376.86 605.49 375.54 604.43 370.11 604.65 367.95 604.23 367.5 603.7 367.7 602.86 367.32 602.33 366.64 602.01 365.38 601.9 364.78 601.69 364.04 601.05 363.45 600.34 362.75 599.69 361.56 599.16 362.25 598.53 361.88 598.46 361.66 598.46 361.57 598.33 361.56 597.9 362.92 597.32 363.48 597.22 364.15 597.21 364.26 596.94 364.25 596.74 364.34 596.63 364.78 596.63 364.2 595.96 363.75 595.25 363.65 594.44 364.15 593.42 363.45 591.76 364.44 589.64 365.91 587.59 366.68 586.14 366.49 585.55 366.05 584.96 365.62 584.56 365.42 584.56 365.51 583.95 366.45 581.6 367.07 580.75 367.14 580.04 366 579.44 366 578.86 366.46 578.41 366.6 578.2 366.46 577.99 366 577.54 367.4 575.21 367.7 574.11 367.32 573.06 369.18 570.54 369.58 569.66 369.85 571.52 369.89 575.3 370.47 576.91 370.98 577.86 371.33 578.1 372.07 578.17 372.8 578.33 372.88 578.69 372.8 579.11 373.01 579.44 373.81 579.76 374.64 579.98 376.86 580.13 378.68 579.83 380.11 578.9 380.98 577.33 381.23 575.07 380.71 573.27 379.89 571.57 379.58 570.18 380.59 569.26 379.69 567.6 379.44 566.3 379.87 565.13 380.91 563.88 382.25 562.77 383.04 562.8 383.94 563.47 385.72 564.2 385.72 564.89 384.69 565.84 384.71 567.02 385.72 569.95 385.6 572.33 385.72 573.06 387.62 575.96 389.26 576.87 397.06 577.57 Z" fill-rule="evenodd" id="GRC-2990" data-name="Kriti"/>
<path d="M 371.44 35.59 371.49 35.76 370.91 37.67 372.3 41.69 380.13 44.55 380.15 45.83 379.18 46.97 378.55 49.43 379.22 50.8 383.62 53.7 389.15 58.81 393.93 61.52 398.82 62.46 401.67 64.65 403.37 63.35 405.14 63.09 406.79 63.33 408.58 64.35 410.57 67.18 414.94 70.1 417.11 70.92 416.46 72.1 417.47 74.8 417.15 76.03 416.18 77.16 416.18 78.44 414.87 79.53 409.65 82.61 407.69 84.89 402.8 88.02 400.9 88.77 392.96 90.15 392.71 90.7 392.71 90.81 392.7 90.81 391.56 90.6 388.52 90.87 383.41 92.49 381.34 93.52 379.39 94.84 378.13 96.34 377.64 98.75 378.42 100.77 380.07 102.15 382.2 102.67 383.56 103.36 385.12 105.03 386.43 107.02 386.99 108.7 387.57 108.83 390.77 110.94 391.99 111.27 393.46 111.37 394.86 111.27 395.9 110.94 396.49 111.94 398.31 113.25 398.37 114.11 397.6 114.5 391.21 115.12 389.8 116.21 389.43 117.99 390.14 120.43 393.98 124.87 394.89 125.55 397.83 126.65 398.37 127.11 401.9 127.73 402.85 128.02 403.91 127.66 406.42 127.38 406.56 127.29 406.56 127.29 406.72 127.52 406.65 129.88 406.74 131.42 406.65 132.68 406.35 133.55 405.62 133.17 402.25 130.51 400.32 129.34 399.03 128.96 395.54 129.34 392.14 128.65 390.77 128.71 386.02 130.5 383.93 130.83 381.23 129.92 380.95 130.43 380.32 131.23 379.96 131.19 378.38 132.94 377.81 134.53 378 136.04 379.46 138.98 379.91 139.52 380.59 140.1 383.74 141.71 384.36 143.22 385.68 144.4 387 145.02 387.62 144.87 393.94 147.17 395.1 146.84 396.63 147.3 398.17 148.23 399.34 149.3 400.7 150.06 404.37 151.07 405.38 152.18 405.27 152.99 404.1 153.87 404.12 154.76 404.64 155.31 406.3 156.23 406.65 156.95 406.36 157.73 405.7 157.87 405.04 157.86 404.73 158.21 404.98 159.27 405.59 159.7 406.4 159.61 407.28 159.13 407.26 160.08 407.33 160.72 407.53 161.2 407.98 161.67 405.5 163.28 405.09 164.11 406.08 164.88 406.08 165.52 404.28 165.56 403.41 166.13 403.68 166.71 405.38 166.78 405.38 167.48 400.63 167.58 398.76 167.22 399.05 166.15 399.05 165.52 398.37 165.52 397.65 165.98 396.99 165.85 396.71 165.22 397.17 164.25 393.88 162.8 393.3 162.64 392.88 161.63 391.83 160.94 390.56 160.72 389.9 161.15 389.81 161.58 390.14 162.36 386.73 157.99 386.29 156.95 386.88 155.41 387.05 154.49 386.63 154.07 385.66 153.76 385.12 153.03 384.77 152.17 384.38 151.49 376.13 142.99 373.01 141.37 371.24 140.97 363.61 140.5 358.4 138.2 354.17 137.31 350.45 137.45 347.37 138.93 345.06 142.06 344.83 143.87 345.55 145.43 346.48 146.96 346.96 148.66 347.24 149.24 347.95 149.52 349.83 149.65 350.67 149.84 351.21 150.31 352.07 151.49 357.02 156.96 359.77 159.26 369.39 163.32 375.65 164.47 375.89 165.03 375.89 165.84 376.17 166.78 377.05 167.9 378.15 168.69 379.61 169.16 381.54 169.31 382.84 169.62 382.13 170.28 380.41 170.96 378.69 171.27 370.66 170.28 357.18 165.81 354.92 165.52 348.02 166.41 346.96 166.78 347.46 165.76 348.64 164 348.9 162.93 348.61 162.16 347.27 160.71 346.96 160.14 346.23 157.89 344.6 156.28 342.88 154.95 341.89 153.5 343.16 150.5 343.62 146.97 343.07 143.67 341.26 141.37 337.51 139.73 335.48 139.13 332.04 138.51 330.45 137.76 328.95 137.25 327.35 137.57 322.53 134.82 321.59 134.73 320.61 134.05 318.44 133.65 316.25 133 314.56 130.64 310.2 128.02 308.44 127.39 306.83 127.18 303.19 127.39 304.07 125.93 303.33 124.42 300.6 121.7 300.88 121.62 301.13 121.63 301.27 121.54 301.25 121.12 297.88 118.17 297.02 116.66 299.05 116 304.97 115.74 308.14 115.26 309.51 114.42 310.11 113.6 311.24 112.92 311.99 111.97 311.41 110.31 309.15 109.22 308.56 109.04 308.15 108.76 308.33 108.13 308.88 107.09 307.41 104.72 305.26 103.46 302.72 103.21 300.02 103.93 300.68 105.68 300.45 107.1 299.71 108.2 298.76 109.04 297.29 109.62 296.42 110.1 296.5 110.31 294.62 110.3 293.83 110.1 293.01 109.62 291.18 110.57 290.01 111.74 289.69 113.12 290.42 114.74 289.85 114.74 289.15 114.11 289.15 115.43 288.58 115.43 288.58 114.74 287.9 114.74 287.52 115.84 286.77 115.78 285.79 115.2 284.73 114.74 284.69 114.31 283.3 114.37 281.84 115.31 281.7 116.43 283.47 117.21 282.61 117.28 282.02 117.51 281.68 118 281.58 118.88 281.19 119.37 280.35 119.2 278.97 118.53 276.76 118.59 275.61 118.94 274.55 119.8 275.88 120.73 276.84 122.04 277.3 123.51 277.09 124.86 278.2 125.65 279.11 126.71 280.19 127.63 281.9 128.02 282.15 128.99 280.9 131.13 278.4 134.41 275.6 140.79 275.64 141.85 272.09 147.75 271.83 149.85 272.53 151.39 273.5 152.94 273.98 155.05 273.6 157.17 273.83 158.15 274.93 158.56 275.35 159.02 276.52 161.67 281.36 164.84 282.2 165.2 282.71 165.55 284.91 166.13 285.43 166.46 285.62 166.8 286.48 166.76 286.69 167.13 286.59 168.83 286.66 169.2 285.71 169.37 280.86 169.95 279.41 169 277.78 168.79 270.4 170.37 266.93 169.42 264.09 167.27 262.05 164.47 255.79 161.12 252.98 158.74 251.92 156.06 252.17 152.03 251.47 150.67 248.44 149.27 244.52 150.3 242.94 151.37 241.07 153.67 239.11 154.95 237.54 154.49 236.84 153.14 237.17 151.65 236.8 150.34 237.73 149.19 238.01 147.95 233.17 147.09 231.31 147.87 230.38 149.03 229.69 147.67 229.42 145.86 230.08 144.42 233.73 143.1 234.99 141.99 235.28 139.23 236.75 137.13 232.4 135.57 231.37 134.17 230.95 131.58 227.85 128.91 227.47 127.59 227.74 126.36 227.04 125 221.85 125.63 220.32 124.93 220.27 123.65 217.27 122.01 213.83 120.83 212.41 119.64 210.39 116.6 208.92 115.66 208.86 114.38 210.07 111.99 207.59 109.41 207.49 106.86 209.74 102.81 207.71 102.82 206.18 102.13 204.47 102.17 200.63 101.2 198.94 101.25 197.35 100.8 199.59 96.76 199.53 95.48 196.34 94.59 195.3 93.19 193.86 88.96 192.43 87.77 193.03 86.58 196.39 86.72 199.91 86.13 201.72 85.59 203.31 84.51 203.58 83.27 202.16 82.08 199.02 80.95 198.4 77.71 199.18 77.58 200.35 76.67 200.68 75.62 200.69 74.62 200.86 73.85 201.78 72.98 205.27 71.13 205.28 71.12 205.28 71.12 205.29 71.11 206.54 69.38 209.84 66.97 211.11 65.54 211.28 64.84 211.3 64.54 211.38 63 211.75 62.12 212.48 61.5 214 60.64 214.85 60.16 217.67 59.01 223.6 57.69 224.04 57.44 224.98 56.64 225.37 56.46 226.05 56.64 226.33 57.09 226.49 57.56 226.72 57.82 229.79 59.07 230.48 59.27 232.42 58.74 235.76 56.46 237.87 55.71 239.97 55.58 240.69 55.64 241.76 55.74 245.26 56.59 248.09 56.86 248.94 57.05 249.18 57.41 249.31 58.63 249.51 58.95 250.09 59 250.87 58.62 252.62 58.58 254.96 58.27 256.12 58.33 256.97 58.64 258.93 59.61 259.98 59.91 262.73 60 264.21 59.87 265.51 59.62 267.29 59.21 268.76 59.2 271.79 59.55 273.83 59.46 275.25 59.03 275.58 58.94 277.17 57.93 278.76 56.39 278.97 55.63 278.89 54.8 279.21 54.12 280.62 53.83 281.69 54.03 281.79 54.13 282.23 54.57 282.64 55.29 283.36 56.02 285 57.14 286.21 57.59 287.21 57.04 288.28 55.17 289.16 51.59 289.54 44.26 289.65 43.94 290.51 41.33 291.53 40.65 293.26 39.5 294.72 39.3 297.43 38.94 305.86 39.42 324.22 41.56 328.11 41.22 330.2 40.76 331.21 40.32 332.04 39.68 332.52 38.78 332.67 37.09 332.98 36.38 334.32 35.41 336.39 34.42 338.56 33.72 340.2 33.64 341.92 34.55 342.79 35.62 343.76 36.31 345.72 36.14 347.38 35.46 350.19 33.91 351.95 33.48 361.08 33.68 367.19 36.07 370.29 36.16 371.44 35.59 Z" id="GRC-2991" data-name="Kentriki Makedonia"/>
<path d="M 406.35 133.55 406.65 132.68 406.74 131.42 406.65 129.88 406.72 127.52 406.56 127.29 406.56 127.29 407.28 126.81 407.27 125.95 406.71 124.76 405.38 122.96 406.08 122.33 405.38 121.7 407.25 121.56 408.87 123.15 411.13 126.81 412.24 127.88 414.14 129.27 416.29 130.06 418.1 129.34 419.07 129.76 421.87 130.49 422.86 130.61 423.51 131.06 424.54 133.14 425.09 133.77 427.82 133.82 430.87 136.4 435.9 142.06 441.71 146.58 442.68 149.05 439.65 150.91 435.72 151.62 433.99 151.31 433.27 149.96 432.71 148.3 431.37 147.34 429.72 146.66 428.27 145.85 425.83 143.03 424.05 140.11 421.85 137.67 418.1 136.31 410.63 135.27 407.98 134.41 406.35 133.55 Z" id="GRC-2992" data-name="Ayion Oros"/>
<path d="M 561.09 118.01 562.65 119.17 563.47 120.47 562.83 121.7 563.26 123.09 562.09 123.98 553.42 126.29 551.39 126.13 548.18 124.73 542.05 120.95 540.72 119.75 539.94 118.53 541.62 118.56 547.05 116.14 549.49 115.43 552.2 115.49 559.67 117.21 561.09 118.01 Z M 478.68 105.72 478.47 106.46 477.83 106.53 476.21 105.74 475.88 106.14 475.17 106.8 473.53 107.29 470.48 107.72 469.37 108.06 467.11 109.68 465.7 110.31 465.26 109.46 464.62 108.79 463.18 107.72 462.88 107.67 462.11 107.79 461.86 107.72 461.81 107.48 461.91 106.68 461.86 106.46 460.56 105.55 459.96 105.26 457.39 104.78 455.37 104.72 454.07 103.97 453.63 101.4 454.22 99 455.61 96.64 458.7 93.18 465.7 88.69 468.69 89.83 472.47 90.17 473.99 90.59 474.36 91.16 474.61 92.03 475.11 92.83 476.2 93.18 477.16 93.35 478.04 93.81 478.7 94.42 479.05 95.08 477.12 95.14 476.54 96.16 477.22 97.26 479.05 97.6 479.05 99.44 477.47 99.86 477.15 101.13 477.78 103.93 478.42 105 478.68 105.72 Z M 616.87 4.3 618.81 4.72 622.38 4.47 624.81 4.3 626.46 4.69 628.96 6.43 632.52 7.12 634.14 7.64 635.61 7.93 635.33 9.28 634.52 10.45 639.78 13.42 643.98 15.06 644.9 15.77 646.66 13.79 646.64 14.48 646.74 15.17 646.95 15.79 647.29 16.32 646.88 17.42 647.23 19.82 646.66 20.74 647.65 22.07 648.1 23.67 648.56 27.12 650.06 31.64 650.45 33.51 650.47 35.47 650.02 37.41 649.18 39 647.98 39.89 646.26 40.02 644.27 39.62 642.5 38.87 641.54 37.94 636.83 41.73 635.85 41.84 635.45 42.15 635.22 42.56 634.7 43 632.11 44.26 629.67 45.91 628.09 46.54 622.22 46.99 621.19 47.72 622.63 49.32 621.65 51.35 621.24 53.15 621.52 54.79 622.63 56.39 620.89 58.44 620.89 59.2 622.28 59.5 622.94 59.92 621.36 62.33 621.61 63.67 622.9 65.75 623.7 66.74 626.16 67.64 626.24 68.73 625.59 69.81 624.81 70.31 623.42 70.43 622.62 70.8 622.36 71.39 622.63 72.21 623.59 73.15 624.49 73.48 624.76 73.8 623.83 74.74 622.53 75.51 619.89 76.46 618.77 77.33 619.03 77.72 619.59 78.36 619.66 78.96 618.42 79.23 617.64 79.13 616.99 78.84 616.51 78.42 616.18 77.9 615.62 77.9 614.86 79.74 614.31 80.59 613.65 81.12 613.02 81.12 612.91 80.74 612.45 79.86 612.46 80.83 612.36 81.31 611.96 81.52 611.13 81.7 611.06 82.14 611.18 82.29 611.42 82.31 611.75 82.39 610.83 82.72 610.56 83.04 610.49 83.65 611.14 84.67 606.16 87.93 604.74 89.63 603.95 92.11 601.9 93.97 599.05 95.03 595.56 94.76 595.84 94.39 594.83 92.97 594.6 91.07 594.03 89.42 592.04 88.69 592.04 88.06 593.32 88.08 595 87.9 596.47 87.56 597.1 87.14 596.49 86.19 595.1 86.05 593.59 86.36 592.62 86.79 592.26 86.17 592.04 85.47 591.34 85.47 591.34 86.16 591.75 86.64 592.04 87.48 591.34 87.48 589.91 86.2 587.01 84.84 583.95 84.15 581.92 84.9 580.36 84.58 575.34 84.46 574.28 83.95 573.26 83.82 566.68 84.26 562.88 83.67 558.8 82.57 554.85 82 551.39 83 550.62 82.84 548.67 82.53 546.73 81.73 545.37 80.75 543.95 80.06 539.31 79.29 537.73 79.2 534.33 78.03 530.42 75.93 526.61 74.99 523.5 77.3 522.87 77.3 522.82 76.83 515.58 75.84 513.64 75 512.46 74.33 511.63 74.23 511.26 73.97 511.42 72.82 511.83 72.05 512.58 71.45 513.53 71.06 514.59 70.92 512.87 70.04 511.67 69.6 504.15 69.65 502.46 69.97 502.51 71.5 500.59 72.84 499.45 73.34 498.08 73.45 498.75 75.17 497.9 75.89 496.27 76.02 494.57 75.98 493.35 76.28 490.33 77.58 488.85 77.88 486.2 79.31 483.46 82.13 480.5 84.11 477.15 83 473.68 84.17 471.86 84.26 470.13 83.63 470.57 83.39 470.62 83.3 470.82 83 467.6 81.67 465.62 83.08 465.07 83.63 464.44 83.63 463.6 82.14 462.62 80.86 461.43 79.68 461.86 78.52 460.51 78.03 459.52 77.32 458.9 76.33 458.7 75 454.17 74.41 453 74.09 452.11 74.62 451.04 74.74 450.01 75 449.2 75.98 447.25 75.34 444.7 75.58 442.49 76.42 440.68 78.49 436.55 81.07 435.17 81.67 436.28 82.38 436.99 83.24 436.89 83.96 434.9 84.38 434.55 84.7 434.52 85.19 434.88 85.81 435.41 86.07 436.94 85.98 437.76 86.16 425.76 91.54 416.4 95.74 412.97 96.34 408.98 96.16 404.93 95.34 394.53 91.13 392.71 90.81 392.71 90.7 392.96 90.15 400.9 88.77 402.8 88.02 407.69 84.89 409.65 82.61 414.87 79.53 416.18 78.44 416.18 77.16 417.15 76.03 417.47 74.8 416.46 72.1 417.11 70.92 414.94 70.1 410.57 67.18 408.58 64.35 406.79 63.33 405.14 63.09 403.37 63.35 401.67 64.65 398.82 62.46 393.93 61.52 389.15 58.81 383.62 53.7 379.22 50.8 378.55 49.43 379.18 46.97 380.15 45.83 380.13 44.55 372.3 41.69 370.91 37.67 371.49 35.76 371.44 35.59 371.71 35.46 374.03 33.69 375.82 33.2 378.9 33.18 381.94 33.7 383.45 33.41 385.54 30.78 386.93 30.28 388.57 30.34 390.53 30.17 392.45 29.8 393.94 29.26 396.45 27.51 397.2 27.59 401.55 29.99 402.92 29.92 404.46 28.76 404.98 28.5 405.49 28.41 405.93 28.19 406.26 27.53 408.31 28.55 409.42 28.72 410.45 28.33 411.01 27.63 411.06 26.85 410.81 24.79 410.58 21.82 413.29 20.87 416.99 21.11 419.75 21.73 420.47 22.16 420.88 22.69 421.28 23.09 421.97 23.13 422.24 22.79 422.64 21.33 423.02 20.74 424.38 19.85 424.51 19.79 426.06 19.04 427.81 18.48 429.43 18.33 430.92 19.6 432.73 20.47 432.82 21.28 432.61 22.06 432.77 22.57 433.63 22.79 434.27 22.64 434.88 22.37 435.68 22.28 438.16 22.5 438.98 22.43 442.1 21.74 443.52 21.63 445.48 21.87 446.85 21.64 448.74 19.62 450.79 19.27 453.46 18.49 455.39 19.8 456.54 22.23 456.83 24.79 457.1 25.56 457.48 25.99 457.96 26.35 458.46 26.89 458.8 27.16 459.68 27.58 460.03 27.89 460.14 28.35 459.91 29.38 459.97 29.72 461.4 30.71 462.66 30.95 465.89 30.91 465.33 31.83 467.46 31.83 469.28 32.03 470.98 32.64 472.79 33.87 475.93 36.92 477.95 38.28 479.78 38.34 480.58 37 480.33 35.39 480.62 34.15 484.22 33.96 486.15 33.44 487.07 33.3 488.32 33.41 491.15 34.73 506.29 39.58 507.81 39.34 508.28 39.34 508.56 39.58 509.28 40.5 509.64 40.81 513.1 42.04 513.47 42.17 515.25 43.3 519.2 47.39 521 48.21 523.14 48.47 525.32 48.35 540.86 44.55 543.23 44.24 544.19 44.3 544.92 44.48 545.64 44.53 546.55 44.27 547.36 43.51 547.97 42.48 548.68 41.6 549.94 41.28 558.12 41.71 559.03 41.95 560.96 42.81 561.84 43 562.88 42.88 563.52 42.56 564.18 42.06 565.32 41.43 566.36 41.15 569.58 40.97 573.03 39.21 573.98 38.93 576.05 39.53 578.77 41.8 580.56 42.36 581.88 42.16 584.19 41.25 585.48 41.26 586.73 41.44 587.75 41.35 589.85 40.58 592.32 39.33 593.52 38.88 601.44 37.49 602.12 37.62 602.69 37.38 603.76 36.11 605.19 33.76 606.22 31.45 606.71 30.89 607.3 30.73 607.76 30.52 607.93 29.77 607.64 29.21 606.36 28.29 605.96 27.87 605.01 26.24 605.17 25.62 606.25 24.78 606.59 23.61 606.73 22.56 606.61 21.51 606.14 20.28 605.62 19.85 604.16 19.65 603.65 19.33 603.48 18.7 603.63 17.24 603.56 16.55 602.71 14.18 602.17 13.4 601.38 12.69 600.32 12.31 599.01 12.12 597.69 11.65 597 10.89 596.59 10.42 596.15 9.34 595.89 8.03 595.95 6.69 596.47 5.54 597.1 5 597.72 4.86 598.35 4.83 599.04 4.61 601.53 3.09 604.01 2.58 609.09 2.46 611.12 1 612.45 1.07 613.21 1.43 615.67 3.54 616.87 4.3 Z" fill-rule="evenodd" id="GRC-3001" data-name="Anatoliki Makedonia kai Thraki"/>
<path d="M 684.11 587.09 684.8 588.99 684.8 589.56 683.43 589.62 681.17 589.97 680.32 590.25 679.14 590.88 678.3 591.49 677.45 591.96 676.24 592.15 675.41 592.45 673.8 593.74 672.72 594.05 671.56 593.66 670.59 592.79 670.09 591.92 670.42 591.52 671.32 591.12 672.97 589.38 673.63 588.99 673.96 588.69 674.57 587.38 674.9 587.09 675.67 587.2 676.71 587.66 677.15 587.72 680.5 586.61 681.92 586.45 684.37 585.93 685.25 585.86 685.38 586.45 684.8 586.81 684.11 587.09 Z M 705.34 551.46 704.06 553.22 703.77 554.4 703.77 556.61 703.89 557.41 704.38 558.35 704.41 559.14 703.86 559.83 702.79 560.69 701.72 561.8 701.24 563.25 700.85 564.07 699.95 564.94 699.05 566.07 698.66 567.68 698.64 569.09 698.83 569.71 701.24 571.22 703.48 574.53 704.09 575.07 704.6 575.37 704.2 576.01 703.5 576.65 703.14 576.91 703.07 577.53 703.02 577.57 703.17 577.6 703.77 578.17 705.74 579.71 706.13 580.7 705.67 582.66 703.3 582.17 700.9 582.97 699.11 584.71 698.66 587.09 698.87 586.81 699.04 586.54 699.36 586.38 699.99 586.45 699.51 587.2 698.78 587.91 697.86 588.53 696.76 588.99 697.4 587.47 696.67 586.93 695.36 586.79 694.23 586.45 693.38 585.6 692.76 584.55 692.87 583.65 694.23 583.24 694.23 582.66 693.6 582.66 693.6 582.03 695.15 581.7 695.24 580.73 694.23 578.17 694.3 576.86 694.58 576.05 694.68 575.37 694.23 574.38 693.48 573.88 691.08 572.66 690.43 571.85 690.56 570.62 691.24 569.36 692.08 568.39 692.65 568 694.83 566.91 695.6 564.55 695.99 562.18 698.42 559.9 699.13 557.22 699.19 554.4 698.66 552.82 698.66 552.18 699.99 551.5 700.61 551.5 700.61 552.18 701.24 552.18 701.75 551.64 703.14 550.23 703.94 549.7 704.61 549.59 705.16 549.79 705.67 550.23 705.34 551.46 Z M 741.07 513.42 740.67 513.71 739.95 513.67 738.14 514.08 736.81 513.83 735.15 513.77 733.38 514.15 732.21 513.68 732.08 512.38 732.92 511.53 733.59 511.36 734.97 511.15 736.55 511.07 741.25 511.29 741.49 511.72 741.46 512.64 741.07 513.42 Z M 578.07 500.08 577.3 501.31 576.49 501.18 575.6 500.49 574.6 500.08 573.13 500.3 572.02 500.73 570.82 500.99 568.42 500.58 568 500.6 567.71 500.52 567.11 499.84 566.7 499.21 566.5 498.55 567 498.24 568.29 497.85 569.16 497.08 569.98 496.56 573.24 497.67 576.25 499.84 578.07 500.08 Z M 799 493.7 797.71 495.05 798.68 499.21 796.78 500.08 796.35 500.63 795.79 503.87 795.08 504.87 793.04 506.86 792.62 508.01 792.4 510.62 791.93 511.75 791.11 512.22 790.54 512.82 789.38 515.68 788.88 516.59 788.62 516.49 786.98 516.48 786.36 516.59 786.14 516.96 785.97 517.6 785.61 518.21 784.73 518.48 782.5 522.97 783.35 523.48 784.09 523.82 784.82 524.03 785.72 524.18 785.47 524.94 785.11 525.59 784.55 526.18 783.82 526.76 784.21 527.16 785.09 528.66 780.27 527.43 778.36 527.38 776.18 528.03 772.01 530.15 770.52 531.42 766.81 536.37 764.14 539.24 760.8 541.76 756.45 543.96 752.63 541.81 752.02 541.63 751.8 541.01 750.13 538.15 751.34 536.81 754 530.32 754.55 528.03 754.28 525.95 753.33 524.86 752.07 524.07 749.81 521.99 749.67 521.54 750.25 520.82 750.13 520.38 749.26 519.83 748.67 519.91 748.15 519.92 747.53 519.12 749.06 518.63 752.65 516.59 754.86 515.96 755.66 515.44 755.24 514.69 756.04 514.16 756.23 513.65 756.23 513.04 756.45 512.22 757.06 511.05 757.71 510.2 758.56 508.73 758.99 508.36 761.72 507.73 762.15 507.39 762.84 506.57 765.93 503.98 766.62 502.95 767.49 502.25 773.01 500.72 783.35 496.21 784.73 495.34 787.76 494.14 793.83 494.44 796.6 491.57 797.39 491.52 798.2 492.1 799 493.13 799 493.7 Z M 544.17 498.76 543.31 500.61 541.93 502.04 540.22 502.61 538.35 502.46 534.04 501.44 532.35 500.72 533.44 500.26 535.62 500.29 536.78 500.08 537.68 499.48 538.56 498.06 539.31 497.55 538.68 495.12 538.25 494.19 537.41 493.7 537.41 493.13 537.93 491.97 536.56 491.34 532.98 490.54 532.98 489.9 533.41 489.73 533.84 489.48 534.24 489.33 537.57 490.19 540.76 492.05 543.24 494.45 544.37 496.92 544.17 498.76 Z M 718.28 490 719.5 492.62 720.9 493.13 720.04 494.78 721.16 495.77 723.11 495.91 724.76 495.03 725.08 495.31 725.22 495.59 725.34 496.29 724.79 497.22 723.81 498.08 722.67 498.53 721.6 498.24 721.13 498.68 720.29 498.24 719.15 498.37 717.93 497.32 717.25 495.76 717.75 494.39 716.53 493.82 715.47 494.08 714.61 494.8 713.95 495.66 713.32 495.66 712.8 494.84 711.65 494.16 711.42 493.42 711.49 491.55 711.66 490.67 711.99 489.9 712.88 491.36 714.25 490.97 715.78 489.9 717.1 489.33 718.28 490 Z M 700.31 481.84 699.09 481.85 697.12 481.59 696.16 481 695.83 480.03 696.85 478.17 699.59 476.78 701.35 476.73 702.18 477.54 703.23 479.37 702.48 481.12 700.31 481.84 Z M 634.06 478.49 634.67 479.78 634.11 480.25 633.64 480.32 633.19 479.98 632.69 479.15 631.3 480.16 630.02 480.51 627.32 480.41 626.08 480.74 625.13 481.55 623.79 483.64 623.7 484.85 623.87 486 623.14 486.58 620.93 486.74 619.37 486.22 617.64 483.75 616.13 483 616.35 482.35 616.49 482.09 616.83 481.74 615.98 480.65 615.72 479.33 616.18 478.56 617.46 479.15 618.8 478.5 620.38 479.28 621.92 480.47 623.14 481.05 624 480.7 624.9 479.43 625.4 479.15 626.45 479.27 627.25 479.47 627.98 479.51 628.9 479.15 627.65 478.6 627.16 477.73 627.53 476.94 627.57 476.68 626.58 476.4 625.77 475.92 625.04 475.35 625.04 474.67 627.93 474.79 631.38 476.45 634.06 478.49 Z M 760.32 475.98 759.67 477.25 760.53 476.98 760.91 476.98 761.57 477.95 764.73 475.93 764.94 476.28 765 476.36 765.09 476.41 765.37 476.62 764.87 476.94 764.55 477.3 764.33 477.67 764.1 477.95 764.73 477.56 765.04 477.67 765.01 478.22 764.73 479.15 764.8 480.24 764.98 481.03 765.37 481.74 764.51 482.18 764.1 482.31 764.56 482.51 764.94 482.78 765.19 483.14 765.37 483.64 763.31 484.62 762.24 484.86 760.88 484.85 760.88 484.27 761.42 484.06 762.21 483.4 762.83 483 758.81 481.87 757.56 481.24 758.99 480.41 754.55 480.41 755.19 479.55 756.2 478.59 757.05 477.6 757.13 476.62 757.56 476.59 757.82 476.45 758.4 475.93 758.4 476.62 759.94 475.03 762.15 474.04 763.91 473.85 764.1 474.67 761.52 475.3 760.32 475.98 Z M 495.48 477.95 495.48 478.52 493.1 478.39 491.7 477.97 489.16 475.93 487.67 475.14 486.19 474.64 484.93 473.83 484.1 472.14 486.03 472.07 486.63 472.14 494.02 475.92 495.48 477.95 Z M 510.85 472.59 507.47 474.79 505.09 474.67 508.54 468.97 509.63 468.68 511.48 467.37 512.39 467.07 516.06 467.14 515.81 467.4 515.75 467.81 515.84 468.34 510.85 472.59 Z M 447.93 463.97 450.15 464.55 453.7 462.99 455.61 462.61 456.79 463.91 456.53 464.92 456.79 469.95 456 470.64 454.23 471.36 451.1 472.14 439.98 472.34 436.49 473.46 436.12 472.12 436.89 470.1 436.49 468.97 436.89 468.72 437.31 468.17 437.76 467.77 436.9 467.23 436.49 467.07 437.39 466.34 438.14 464.68 439.02 463.91 439.46 464.42 440.06 464.93 440.76 465.4 441.55 465.81 442.83 465.59 443.93 468.24 445.71 468.97 448.88 468.97 449.88 468.52 449.6 467.51 448.74 466.44 447.94 465.81 446.67 466.37 445.77 465.78 444.99 464.74 444.08 463.91 444.08 463.28 445.13 462.33 446.34 462.89 447.93 463.97 Z M 467.28 464.23 465.93 464.54 464.54 463.58 462.54 461.38 463.81 460.11 465.37 460.15 465.84 460.3 465.7 460.69 467 461.23 467.88 462 468.06 462.99 467.28 464.23 Z M 535.85 466.32 536.78 467.77 535.62 467.94 534.99 468.57 534.93 469.45 535.46 470.29 535.46 470.87 533.42 473.2 530.15 471.85 524.13 467.07 524.34 466.88 524.45 466.82 524.56 466.73 524.77 466.44 523.97 466.52 522.17 466.44 522.66 465.59 523.15 464.31 523.39 463.16 523.18 462.65 527.28 460.11 528.45 461.32 529.99 463.57 531.08 464.55 532.74 465.25 534.4 465.66 535.85 466.32 Z M 459.94 456.07 460.48 456.27 461.09 456.18 461.86 455.69 462.02 455.96 462 456.12 462.07 456.23 462.54 456.32 462.54 456.95 461.83 457.6 459.26 461.32 457.75 461.47 456.21 461.09 455.52 460.4 455.26 459.31 454.75 458.68 454.48 458.04 454.94 456.95 455.69 456.3 456.89 455.71 458.24 455.42 459.38 455.69 459.94 456.07 Z M 541.26 457.35 539.09 457.55 538.04 456.64 538.72 455.57 540.25 454.33 542.48 453.1 543.16 453.1 542.48 453.79 542.98 453.84 543.18 454.09 543.11 456.39 541.26 457.35 Z M 701.81 458.51 696.17 463.28 694.24 463.51 691.85 463.24 689.7 462.67 688.54 461.96 683.4 463.95 681.89 465.14 682.84 467.07 681.52 467.41 680.96 468.4 681.04 469.68 681.63 470.87 680 470.61 678.33 469.58 677.04 468.34 676.52 467.42 676.75 464.17 677.31 462.84 678.37 463.28 678.8 462.78 679.87 461.88 680.32 461.38 680.81 461.69 682.84 462.65 684.1 461.64 684.83 460.78 686.06 458.85 689.25 456.62 689.81 456 699.36 451.2 708.75 450.01 710.17 449.65 711.15 451.14 715.73 452.06 717.1 453.79 714.1 455.14 703.98 457.44 701.81 458.51 Z M 561.29 452.29 559.49 452.34 557.36 451.99 555.23 451.89 555.78 450.96 556.73 450.5 557.9 450.09 559.03 449.31 559.94 449.69 562.25 451.2 561.29 452.29 Z M 598.37 450.57 598.41 451.01 598.26 451.12 598.02 451.12 597.74 451.2 596.14 450.67 594.46 450.95 592.97 451.36 592.04 451.2 590.66 452.32 586.73 454.63 585.4 455.06 584.21 455.85 581.63 459.33 580.34 460.11 572.84 462.17 568.84 462.43 567.31 460.11 568.63 460.69 569.33 459.74 570.56 458.99 571.93 458.79 573.01 459.49 573.65 459.49 574.27 459.02 575.09 458.84 577.17 458.85 577.54 458.52 578.81 456.32 577.74 456.77 577.17 456.26 577.02 455.47 577.17 455.06 578.21 454.92 588.88 450.57 588.88 450 588.35 449.77 588.03 449.57 587.66 449.41 586.92 449.31 586.92 448.68 589.49 448.07 590.59 447.54 591.34 446.78 592.04 446.78 593.26 448.06 594.77 449.18 596.51 450.06 598.37 450.57 Z M 505.51 444.47 506.35 445.51 505.02 445.28 503.2 443.97 501.67 442.14 501.24 440.39 502.13 439.09 503.78 437.94 505.59 437.21 506.99 437.23 505.29 442.09 504.39 443.61 504.98 444.02 505.51 444.47 Z M 466.97 436.6 469.17 438.08 470.06 438.41 470.82 437.86 471.45 437.86 472.55 439.26 475.83 442.44 477.04 445.14 477.15 445.83 476.86 446.18 475.55 446.74 475.25 447.09 472.03 450 470.66 448.23 469.09 445.62 468.2 443.12 468.88 441.71 468.88 441.08 467.89 440.43 466.79 438.87 465.7 438.55 465.75 438.09 465.87 437.82 466.39 437.23 466.02 437.15 465.81 437.15 465.73 437.03 465.7 436.6 466.97 436.6 Z M 681.63 437.23 682.49 438.46 683.7 439 684.68 439.62 684.8 441.08 685.57 440.31 686.36 439.95 687.15 439.98 687.96 440.39 688.24 441.47 687.56 443.12 687.96 444.19 687.5 444.81 687.38 445.09 687.28 445.51 687.96 445.51 687.96 444.88 688.54 444.88 687.88 446.21 686.33 446.21 683.53 445.51 683.05 446.06 682.86 446.89 682.6 447.65 681.92 447.98 681.02 447.81 680.32 447.52 679.68 447.45 679.05 447.98 678.37 447.14 677.64 446.42 676.83 446.02 675.95 446.14 676.75 444.94 677.19 444.54 677.78 444.19 677.22 442.82 677.64 441.68 678.46 440.7 679.05 439.81 679.25 439.62 679.62 439.16 679.87 438.54 679.68 437.86 678.92 437.35 678.12 437.45 677.51 437.75 677.15 437.86 676.47 437.26 676.03 436.77 675.2 435.33 674.5 434.74 673.85 434.54 673.54 434.12 673.93 432.8 675.03 433.96 682.84 436.6 682.84 437.23 681.63 437.23 Z M 575.59 429.63 576.41 430.59 576.86 430.9 576.37 431.64 575.66 432.1 574.73 432.14 573.65 431.54 573.47 431.93 573.43 432.01 573.35 432.04 573.01 432.23 571.16 429.63 572.72 429.7 573.87 429.36 576.17 428.37 575.93 429.06 575.59 429.63 Z M 524.77 429.63 523.21 432.8 523.2 434.12 524.77 434.7 524.77 435.33 523.5 435.33 523.5 436.02 524.77 436.02 524.77 436.6 523.75 436.85 523.21 437.42 522.81 438.22 522.17 439.13 521.52 439.77 520.36 440.65 517.78 442.14 516.31 442.48 513 442.35 512.12 442.04 510.14 440.7 509.17 440.39 508.42 439.93 508.39 438.87 509.31 435.31 510.46 434.22 513.32 432.8 512.67 432.46 512.04 432.33 511.42 432.43 512.75 430.88 515.39 429.13 518.28 427.78 520.97 427.05 519.59 428.67 520.33 429.31 522.87 429.63 524.13 428.37 523.88 428.01 523.5 427.05 524.77 426.97 526.02 427.05 525.84 427.76 525.54 428.47 525.17 429.13 524.77 429.63 Z M 667.21 423.07 667.75 423.21 668.1 423.12 668.47 423.26 668.83 423.42 669.42 423.6 670.22 423.77 670.51 424.28 669.89 425.26 669.69 426.11 670.64 426.43 671.56 426.92 672.08 428.06 672.27 428.7 672.83 429.17 673.66 430.32 673.66 431.33 673 431.5 672.6 431.51 672.57 431.85 672.08 432.04 671.32 432.1 670.24 432 669.09 431.42 669.09 430.73 670.12 430.2 670.46 429.58 669.6 429.53 668.37 430.12 667.21 430.02 666.57 429.13 666.93 428.32 667.18 427.54 666.2 427.07 665.16 426.72 664.53 426.11 663.41 425.4 663.08 424.2 664.15 423.38 665.43 423.46 665.71 423.28 665.64 422.66 666.38 422.57 667.21 423.07 Z M 553.98 431.89 553.76 433.63 552.86 437.43 552.66 439.47 550.03 444 549.56 444.33 548.91 444.45 547.59 444.88 544.37 447.41 543.31 447.75 541.57 448.11 540.52 448.68 540.31 448.09 539.95 447.97 539.31 447.41 538.9 446.75 538.35 444.88 538.04 444.19 537.45 443.61 534.88 442.35 535.28 441.85 535.35 441.3 535.1 440.71 534.56 440.1 534.12 439.38 534.03 438.63 534.15 438.05 534.24 437.86 532.84 435.6 531.78 434.51 530.51 434.01 530.51 433.43 531.04 433.02 531.49 432.87 531.89 432.99 532.35 433.43 533.29 432.87 536.78 429.63 542.82 426.13 543.34 425.56 544.72 423.6 545.38 423.36 547.22 423.22 547.59 422.94 548.29 422.53 549.81 423.17 552.08 424.58 553.16 426.24 553.73 427.92 553.98 431.89 Z M 451.19 422.02 452.36 422.62 453 422.62 453.43 422.14 453.9 422.03 454.42 422.23 454.94 422.62 455.49 423.92 455.73 425.59 455.72 427.38 455.52 429.07 454.94 427.74 454.26 427.74 454.27 428.88 453.94 429.74 453.28 430.38 452.36 430.9 452.14 430.64 452.09 430.52 452 430.43 451.73 430.21 451.68 429.79 451.86 429.71 452.1 429.74 452.36 429.63 451.57 429.25 450.76 429.1 449.97 429.23 449.2 429.63 449.01 428.75 448.77 428.41 448.43 428.53 447.94 429.07 447.15 428.66 446.44 428.69 445.86 429.05 445.34 429.63 445.03 428.55 445.28 428.32 446.08 427.74 445.43 427.24 445.39 426.78 445.83 426.33 446.61 425.85 446.29 425.16 446.47 424.86 447.3 424.58 446.61 423.95 449.58 422.4 451.19 422.02 Z M 644.17 406.43 645.28 406.83 646.19 407.36 646.77 407.84 646.97 408.19 647.42 408.75 647.65 409.66 647.16 409.87 646.66 409.47 646.03 409.18 645.69 409.1 645.35 409 644.53 408.96 643.72 409.46 643.35 410.14 643.23 410.57 642.88 410.81 642.34 410.86 642.81 411.48 643.86 412.55 644.09 415.68 643.12 415.99 642.11 415.44 642.2 414.84 641.96 414.4 640.85 414.09 640.46 413.26 640.95 411 641.28 410.41 641.41 409.79 641.13 408.96 640.94 407.71 641.19 406.59 641.99 406.55 643.04 406.65 644.17 406.43 Z M 449.69 401.52 450.92 402.91 450.46 404.91 449.13 404.57 448.15 405.59 447.53 407.23 447.3 408.71 446.01 409.73 444.35 411.11 442.24 412.04 440.28 412.44 441.1 409.16 441.92 407.66 443.45 406.76 443.45 406.18 443.04 405.98 442.64 405.66 442.18 405.49 442.18 404.91 442.96 403.92 442.77 402.97 441.82 402.5 440.28 402.96 440.93 400.5 442.86 398.79 445.07 397.43 446.61 396 447.3 396 447.3 397.32 447.07 398.05 446.44 399.36 446.08 399.8 449.69 401.52 Z M 531.08 394.04 533.8 397.81 534.24 397.61 534.57 395.73 535.47 395.36 538.38 396 538.76 396.2 539.27 396.66 539.94 397.11 541.73 397.57 541.98 398.19 541.75 398.99 541.21 399.8 539.85 400.27 538.09 400.25 536.62 400.65 536.14 402.38 535.46 402.38 534.29 402.23 527.28 402.96 527.5 402.23 527.46 401.96 527.36 401.79 527.28 401.41 527.5 400.71 527.93 400.5 528.39 400.5 528.61 400.43 529.09 398.24 528.72 397.48 527.28 397.32 527.81 395.89 528.9 395.25 530.13 394.84 531.08 394.04 Z M 495.51 403.9 494.82 404.34 489.23 406.69 487.9 407.44 487.85 406.54 487.93 405.88 488.15 405.36 488.53 404.91 488.53 404.22 487.91 404.28 486 404.22 486.25 403.39 486.63 402.7 487.17 402.14 487.9 401.69 487.52 401.57 486.63 401.12 488.35 400.79 489.41 399.55 489.83 397.97 489.8 396.63 489.23 394.62 489.15 393.83 490.04 393.8 492.33 394.04 493.18 394.82 494.03 396.13 494.68 397.52 494.91 398.53 494.67 399.19 493.78 400.05 493.6 400.77 493.85 401 494.43 401.31 495.06 401.76 495.48 402.38 495.71 403.34 495.51 403.9 Z M 474.87 385.93 472.73 386.13 468.49 385.49 467.31 384.89 469 384.66 470.5 384.13 471.41 383.24 472.54 382.66 474.1 382.56 474.85 383.13 474.7 384.25 474.55 384.8 474.87 385.93 Z M 506.56 380.86 506.99 381.39 508.46 380.55 510.22 380.74 511.8 381.57 512.69 382.66 514.11 381.29 516.69 381.71 519.5 382.77 521.6 383.29 520.97 383.92 521.76 384.15 522.26 384.72 522.62 385.52 522.87 386.46 520.59 388.97 519.9 391.33 518.86 391.75 514.59 391.22 512.01 389.91 510.47 389.62 509.55 389.23 508.41 387.53 507.3 387.15 506.31 386.75 503.2 383.92 499.64 382.59 498.65 382.02 498.01 381.27 497.4 380.16 497.13 379.02 497.44 378.23 498.65 377.95 503.78 378.23 504.2 378.37 505.09 378.81 505.09 379.49 504.39 379.49 504.39 380.13 505.34 380.18 506.02 380.44 506.56 380.86 Z M 440.92 377.54 443.49 380.37 442.86 383.25 440.49 385.98 437.76 388.35 435.2 391.25 433.39 392.42 431.71 391.86 431.69 390.57 432.13 385.92 432.01 385.13 431.96 383.41 433 381.33 434.52 379.9 435.9 380.13 436.58 379.51 437.13 378.81 436.18 378.86 435.9 378.81 435.9 378.23 436.81 377.75 437.67 377.54 438.44 377.67 439.02 378.23 439.65 378.23 439.7 377.65 439.98 377.55 440.4 377.62 440.92 377.54 Z M 484.8 356.36 487.26 357.18 494.57 357.18 495.48 358.03 495.06 359.93 493.6 362.99 497.44 365.52 496.84 365.94 496.58 366.06 496.18 366.15 496.25 367.34 495.66 368.13 494.98 368.74 494.91 369.37 495.54 369.9 497.04 369.41 498.08 369.95 498.33 371.26 497.5 372.93 496.18 374.54 494.91 375.64 495.11 376.03 495.48 377.54 494.91 377.54 494.19 376.63 492.07 375.33 491.06 374.43 489.35 370.54 488.85 369.95 487.42 369.83 486.36 369.43 485.41 368.73 484.41 367.7 482.92 365.4 481.85 364.79 480.31 365.52 479.78 362.94 478.07 361.23 476.05 359.92 474.62 358.5 473.99 358.5 473.33 359.41 472.55 359.67 472.18 359.19 472.72 357.87 471.91 357.13 470.63 355.46 469.55 354.71 470.65 354.45 470.73 354.01 470.37 353.37 470.13 352.52 470.46 351.64 471.23 351.01 476.33 348.79 478.38 348.45 479.73 349.02 479.6 350.02 479.82 350.59 480.37 350.85 481.29 350.92 482.24 351.22 483.1 351.89 483.52 352.57 483.16 352.87 483.13 353.31 483.8 355.38 484.1 355.98 484.8 356.36 Z" fill-rule="evenodd" id="GRC-3013" data-name="Notio Aigaio"/>
</g>
</svg>