<?xml version="1.0"?>
<svg xmlns="http://www.w3.org/2000/svg" version="1.2" baseProfile="tiny" width="800" height="778" viewBox="0 0 800 778" stroke-linecap="round" stroke-linejoin="round">
<g id="ne_10m_admin_1_states_provinces">
<path d="M 322.28 127.05 304.94 136.25 295.36 152.21 284.18 177.75 285.78 209.68 263.43 209.68 202.77 198.51 199.58 182.54 182.02 163.39 212.35 120.29 209.16 102.73 226.52 71.97 322.28 127.05 Z" id="KNA-5099" data-name="Christ Church Nichola Town"/>
<path d="M 132.53 121.88 114.97 155.41 103.8 155.41 91.03 184.14 73.49 211.86 1 132.77 11.92 88.14 41.54 96.34 51.12 83.57 65.49 89.96 62.3 107.52 132.53 121.88 Z" id="KNA-5100" data-name="Saint Anne Sandy Point"/>
<path d="M 443.7 287.52 451.16 305.18 478.9 351.24 519.25 370.66 552.79 388.89 582.33 429.14 582.53 469.89 527.66 489.81 496.42 469.39 469.99 376.67 421.23 347.63 389.09 312.79 366.46 304.98 338.77 306.48 319.3 271.94 325.69 263.95 312.92 240.01 328.88 235.22 340.05 252.78 373.58 259.17 399.12 271.94 421.47 289.49 443.7 287.52 Z" id="KNA-5101" data-name="Saint George Basseterre"/>
<path d="M 798.55 683.71 799 705.08 794.89 726.51 782.28 756.35 772.37 766.76 727.71 776.87 696.03 666.22 735.94 655.05 769.46 666.22 798.55 683.71 Z" id="KNA-5102" data-name="Saint George Gingerland"/>
<path d="M 798.55 683.71 769.46 666.22 735.94 655.05 696.03 666.22 654.53 588 612.54 558.86 645.31 524.86 696.47 525.86 740.93 540.18 775.07 572.02 794.89 625.78 797.8 648.01 798.55 683.71 Z" id="KNA-5103" data-name="Saint James Windward"/>
<path d="M 226.52 71.97 209.16 102.73 212.35 120.29 182.02 163.39 132.53 121.88 130.94 107.52 114.97 102.73 106.99 88.36 105.4 59.63 105.4 35.68 96.32 15.12 103.13 1 226.52 71.97 Z" id="KNA-5104" data-name="Saint John Capesterre"/>
<path d="M 727.71 776.87 613.47 767.96 590.35 708.47 622.6 706.13 662.51 698.15 696.03 666.22 727.71 776.87 Z" id="KNA-5105" data-name="Saint John Figtree"/>
<path d="M 388.59 183.67 368.79 193.72 343.25 193.72 319.3 190.52 303.34 211.28 285.78 209.68 284.18 177.75 295.36 152.21 304.94 136.25 322.28 127.05 348.24 141.98 388.59 183.67 Z" id="KNA-5106" data-name="Saint Mary Cayon"/>
<path d="M 132.53 121.88 62.3 107.52 65.49 89.96 51.12 83.57 41.54 96.34 11.92 88.14 20.52 52.97 30.14 44.55 36.74 40.05 44.05 37.35 55.67 34.64 85.71 22.33 96.32 15.12 105.4 35.68 105.4 59.63 106.99 88.36 114.97 102.73 130.94 107.52 132.53 121.88 Z" id="KNA-5107" data-name="Saint Paul Capesterre"/>
<path d="M 590.35 708.47 578.52 678.05 651.33 683.78 696.03 666.22 662.51 698.15 622.6 706.13 590.35 708.47 Z" id="KNA-5108" data-name="Saint Paul Charlestown"/>
<path d="M 443.7 287.52 421.47 289.49 399.12 271.94 373.58 259.17 340.05 252.78 328.88 235.22 312.92 240.01 303.34 211.28 319.3 190.52 343.25 193.72 368.79 193.72 388.59 183.67 408.51 204.25 443.7 287.52 Z" id="KNA-5109" data-name="Saint Peter Basseterre"/>
<path d="M 696.03 666.22 651.33 683.78 578.52 678.05 597.55 574.42 612.54 558.86 654.53 588 696.03 666.22 Z" id="KNA-5110" data-name="Saint Thomas Lowland"/>
<path d="M 182.02 163.39 199.58 182.54 202.77 198.51 263.43 209.68 253.85 243.2 234.7 252.78 226.72 273.53 221.1 290.92 179.02 274.54 73.49 211.86 91.03 184.14 103.8 155.41 114.97 155.41 132.53 121.88 182.02 163.39 Z" id="KNA-5111" data-name="Saint Thomas Middle Island"/>
<path d="M 303.34 211.28 312.92 240.01 325.69 263.95 319.3 271.94 338.77 306.48 288.96 309.19 257.22 304.98 221.1 290.92 226.72 273.53 234.7 252.78 253.85 243.2 263.43 209.68 285.78 209.68 303.34 211.28 Z" id="KNA-5112" data-name="Trinity Palmetto Point"/>
</g>
</svg>