<?xml version="1.0"?>
<svg xmlns="http://www.w3.org/2000/svg" version="1.2" baseProfile="tiny" width="800" height="416" viewBox="0 0 800 416" stroke-linecap="round" stroke-linejoin="round">
<g id="ne_10m_admin_1_states_provinces">
<path d="M 334.45 316.09 334.59 316.1 336.09 316.19 335.84 313.15 334.7 309.98 333.72 309.71 334.57 307.27 335.62 305.72 337.12 304.53 340.91 302.25 345.71 300.05 350.67 298.45 350.74 297.09 349.3 295.44 348.06 293.5 344.57 284.56 342.52 283.88 340.29 284.11 336.16 285.32 333.22 284.37 333.72 280.62 337.7 272.31 338.81 268.55 339.75 266.85 341.96 264.83 346.84 262.38 348.87 260.88 349.37 258.72 348.1 257.37 345.53 255.93 342.75 254.8 340.89 254.37 338.3 255.08 338.19 256.41 338.45 257.83 336.93 258.79 333.12 257.65 327.44 249.85 323.16 247.4 318.75 245.76 311.88 240.88 307.86 239.65 303.47 239.95 290.3 243.5 285.62 243.53 281.91 242.4 278.36 240.8 274.08 239.41 265.47 238.74 256.44 239.18 253.63 239.84 251.96 241.06 248.24 245.12 247.34 246.84 246.78 247.46 245.84 247.88 245.5 247.68 245.2 247.8 244.39 249.14 237.11 244.77 235.29 236.31 235.27 226.64 233.51 218.64 230.15 214.73 226.04 212.21 221.5 210.77 216.81 210.14 203.43 210.08 200.86 208.86 202.88 206.56 203.2 204.89 201.85 203.81 198.87 203.23 195.92 203.38 193.8 204.27 191.75 205.59 188.94 206.97 179.86 209.08 174.83 209.46 171.22 208.81 162.16 205.8 159.44 204.43 156.19 201.77 155.12 199.41 154.8 192.81 149.32 181.15 147.65 175.16 150.54 171.7 148.18 166.77 146.53 164.85 143.75 164.27 140.84 164.01 139.19 162.79 136.64 158.86 133.77 155.58 136.31 155 145.55 151.99 154.07 155.08 162.87 154.24 167.28 158.23 167.28 158.23 166.98 161.06 166.98 161.06 172.09 163.45 173.29 163.51 175.33 163.92 176.15 162.34 185.54 156.1 194.83 151.73 202.4 153.73 210.65 152.16 210.65 152.16 212.01 158.68 212.01 158.69 225.7 158.84 231.5 161.4 239.92 151.02 245.86 148.92 248.05 151.7 257.01 149.28 257.01 149.28 260.49 155.78 260.5 155.78 268.79 155.17 271.55 156.91 283.23 155.28 283.23 155.28 285.42 158.85 285.43 158.85 283.97 162.28 284.96 164.59 284.96 164.6 287.9 167.03 292.31 168.03 304.86 168.26 309.04 166.13 312.98 166.95 317.84 165.33 319.29 166.75 322.23 163.25 327.83 164.45 327.83 164.44 330.46 164.5 326.69 165.2 325.86 167.87 326.1 175.52 328.12 179.17 331.75 180.15 336.55 179.68 343.07 173.98 345.35 173.4 349.36 176.75 348.31 181.09 359.36 182.86 358.23 187.19 364.95 188.08 370.16 193.24 376.27 192.85 375.7 198.12 380.88 194.42 392.62 193.62 394.78 195.06 404.13 195.01 405.12 196.08 404.54 201.19 411.37 198.92 411.13 200.85 414.17 201.72 426.63 198.35 422.94 208.56 430.37 207.38 428.75 209.29 431.31 211.52 428.55 216.37 425.75 216.68 427.75 218.14 425.79 219.41 434.76 222.84 431.68 227.17 428.37 227.81 432.66 231.01 427.63 236.34 428.94 244.12 414.94 245.58 411.15 242.47 405.39 242.81 401.16 247.48 389.68 246.45 387.98 250.32 384.26 250.2 381.58 253.31 374.64 253.61 366.41 257.48 369.82 260.45 377.38 263.32 378.97 263.26 382.8 260.43 387.17 261.04 390.14 262.5 387.63 269.13 389.31 272.1 381.75 275.83 389.69 284.72 386.99 288.26 387.16 296.56 388.07 299.94 391.42 300.69 393.08 311.47 399.14 319.41 396.35 323.8 395.77 324.65 395.75 324.67 364.67 319.16 351.9 320.35 351.9 320.35 348.83 320.64 346.05 320.13 334.45 316.09 Z M 72.44 165.9 71.57 163.94 67.36 155.39 72.87 153.24 74.24 152.98 77.19 154.71 83.09 153.97 83.98 152.05 91.81 150.02 91.81 150.02 87.56 146.82 87.56 146.82 87.75 145.9 99.8 142.8 103.04 144.15 103.04 144.15 104.8 151.09 104.98 151.78 94.13 153.94 89.36 155.84 85.59 158.42 79.36 165.28 76.62 166.62 73.39 166.18 72.44 165.9 Z" fill-rule="evenodd" id="BEL-2" data-name="Hainaut"/>
<path d="M 676.47 154.18 678.59 155.12 696.55 154.83 698.91 155.31 702.82 158.47 702.82 158.47 698 163.16 696.19 163.64 691.22 162.02 683.79 162.69 675.02 155.32 669.7 156.22 666.6 154.25 666.08 153.73 668.31 151.61 670.15 150.71 672.23 151.21 676.47 154.18 Z M 688.39 75.01 685.48 76.82 684.81 79.19 689.52 82.37 687.62 83.18 685.52 83.71 683.29 83.93 681.03 83.77 681.54 85.27 681.86 85.9 682.44 86.74 680.9 89.58 679.76 91.05 678.2 92.39 675.78 91.09 674.09 91.74 673.04 93.75 672.55 96.5 675.35 98.91 672.08 103.96 663.92 112.19 668.55 111.4 670.54 111.43 672.55 112.19 670.17 114.71 666.6 119.53 663.92 122.08 662.94 122.58 660.54 123.13 658.14 123.74 643.2 134.3 643.65 138.94 647.01 142.09 650.47 143.63 640.33 150.09 622.4 153.49 622.8 156.86 617.2 159.95 613.9 160.45 609.82 157.64 608.18 161.31 603.57 161.6 598 160.23 598 160.23 595.44 156.16 595.44 156.16 592.64 155.39 583.09 157.44 578.98 159.77 577.96 162.11 571.38 159.82 564.71 162.43 564.71 162.43 563.21 160.07 563.21 160.07 561.72 162.04 549.39 161.04 551.67 164.44 551.68 164.44 549.04 166.49 535.25 163.9 535.24 163.9 535.24 163.9 539.25 158.46 535.24 156.95 538.03 152.75 536.34 148.94 545.7 142.8 541.12 141.77 542.58 134.8 546.03 128.71 550.07 129.58 551.06 128.92 552.87 123.19 549.85 121.53 542.6 121.47 541.88 119.83 533.88 122.22 530.42 119.82 526.98 120.76 525.62 120.1 522.89 115.57 531.22 110.9 531.41 106.32 540.06 103.82 538.73 98.95 540.77 98.62 541.84 100.26 547.08 98.92 541.47 94.37 536.86 93.04 531.05 93.52 531.08 98.71 527.39 100.17 523.11 98.49 518.95 99.5 515.61 95.42 510.35 96.33 516.31 91.06 516.33 88.22 532.91 86.14 541.28 79.44 551.66 79.09 556.35 74.79 563.05 76.02 568.24 73.12 567.57 64.75 559.14 59.77 561.4 51.86 563.9 50.57 570.37 49.55 594.88 50.2 599.21 49.2 607.9 45.35 611.99 44.11 616.46 44.44 621.32 46.36 625.15 49.51 626.63 53.52 627.29 58.23 628.51 58.89 632.02 60.77 643.76 63 646.56 64.24 648.55 65.68 650.8 66.69 654.35 66.67 663.02 65.55 665.68 65.72 669.06 67 673.38 70.76 676.14 72.22 682.5 71.2 686.03 71.38 687.88 74.01 688.39 75.01 Z" fill-rule="evenodd" id="BEL-3" data-name="Limburg"/>
<path d="M 406.55 146.16 389.7 151.88 385.31 152.53 380.76 152.01 375.04 149.56 369.57 142.23 365.8 143.47 358.04 140.73 358.04 140.73 360.5 137.56 365.76 137 367.07 133.52 367.07 133.52 364.95 131.17 364.95 131.17 368.88 126.27 376.48 123.85 385.33 124.79 390.71 121.43 394.27 123.18 397.52 126.71 397.52 126.72 397.42 128.71 394.18 130.81 394.17 130.82 402.5 134.19 402.5 134.19 405.79 140.75 401.4 141.11 399.65 142.93 399.65 142.93 406.54 146.16 406.55 146.16 Z" id="BEL-3474" data-name="Brussels"/>
<path d="M 535.24 163.9 529.78 164.49 526.63 163.53 523.21 160.72 523.21 160.72 523.32 157.05 523.32 157.05 518.26 155.17 518.26 155.17 510.46 151.23 500.29 156.33 497.15 156.64 494.53 155.24 494.53 155.24 495.26 151.51 495.25 151.51 479.63 152.53 479.63 152.53 480.52 150.29 480.52 150.29 475.55 150 471.12 145.32 462.44 143.41 456.9 144.68 455.1 147.32 455.1 147.32 454.28 145.77 454.28 145.77 450.64 147.07 439.83 145.3 438.98 150.59 438.98 150.6 442.76 153.83 442.77 153.83 438.74 156.79 431.83 157.03 431.83 157.03 430.74 152.52 430.74 152.52 425.84 155.9 416.78 157.26 416.32 159.82 409.73 157.41 408.71 156.38 408.71 156.38 409.61 153.99 409.6 153.99 406.6 153.71 402.04 154.62 394.53 158.35 384.57 159.33 383.37 162.46 379.47 162.27 375.51 158.82 374 159.91 374 159.91 376.2 161.98 376.2 161.98 371.67 162.03 371.13 165.18 369.69 166.28 366.66 166.91 360.94 165.7 356.88 167.57 350.14 164.04 344.51 164.11 340.02 160.15 338.04 159.63 335.99 160.13 334.48 162.41 329.44 162.36 327.83 164.44 327.83 164.45 322.23 163.25 319.29 166.75 317.84 165.33 312.98 166.95 309.04 166.13 304.86 168.26 292.31 168.03 287.9 167.03 284.96 164.6 284.96 164.59 283.97 162.28 285.43 158.85 285.42 158.85 290.25 159.95 296.95 158.86 297.24 157.74 292.92 154 295.57 150.31 298.12 149.4 303.48 152.08 307.02 149.25 309.93 150.98 313.47 150.08 319.67 146.73 322.68 140.92 320.84 137.87 315.54 137.25 325.22 128.35 325.42 126.17 322.43 124.49 327.92 121.91 326.08 117.9 335.56 120.44 340.35 118.3 340.46 115.66 337.52 109.88 340.67 105.73 347.39 107.2 352.14 105.83 356.95 95.9 364.05 94.74 369.08 95.29 379.29 98.19 377.89 99.65 379.24 100.07 385.69 97.34 383.71 100.48 387.59 101.24 388.59 104.31 401.17 102.37 405.8 105.36 409.55 101.77 416.54 105.15 420.3 102.93 426.9 105.38 430.08 105.42 432.79 101.2 447.89 98.64 453.46 100.55 451.11 103.83 459.18 98.12 463.77 98.73 470.53 95.48 474.06 100.36 476.72 101.49 487.5 98.67 490.03 99.46 495.6 96.35 503.59 94.31 507.48 94.16 510.35 96.33 515.61 95.42 518.95 99.5 523.11 98.49 527.39 100.17 531.08 98.71 531.05 93.52 536.86 93.04 541.47 94.37 547.08 98.92 541.84 100.26 540.77 98.62 538.73 98.95 540.06 103.82 531.41 106.32 531.22 110.9 522.89 115.57 525.62 120.1 526.98 120.76 530.42 119.82 533.88 122.22 541.88 119.83 542.6 121.47 549.85 121.53 552.87 123.19 551.06 128.92 550.07 129.58 546.03 128.71 542.58 134.8 541.12 141.77 545.7 142.8 536.34 148.94 538.03 152.75 535.24 156.95 539.25 158.46 535.24 163.9 535.24 163.9 Z M 406.55 146.16 406.54 146.16 399.65 142.93 399.65 142.93 401.4 141.11 405.79 140.75 402.5 134.19 402.5 134.19 394.17 130.82 394.18 130.81 397.42 128.71 397.52 126.72 397.52 126.71 394.27 123.18 390.71 121.43 385.33 124.79 376.48 123.85 368.88 126.27 364.95 131.17 364.95 131.17 367.07 133.52 367.07 133.52 365.76 137 360.5 137.56 358.04 140.73 358.04 140.73 365.8 143.47 369.57 142.23 375.04 149.56 380.76 152.01 385.31 152.53 389.7 151.88 406.55 146.16 Z" fill-rule="evenodd" id="BEL-3475" data-name="Flemish Brabant"/>
<path d="M 510.69 177.65 509.97 182.64 520.04 188.72 525.35 198.66 521.46 200.54 533.02 200.94 536.12 205.82 538.96 206.15 543.88 204.68 541.08 206.4 542.52 209.68 546.62 209.29 545.58 211.1 547.87 213.57 554.88 211.77 559.37 214.66 563.2 220.18 559.97 224.24 562.52 226.91 572.79 228.69 572.56 232.52 575.42 235.07 586.78 230.18 595.58 232.11 597.4 234.78 593.05 238.49 596 240.95 584.74 246.32 586.33 247.4 588.91 245.01 593.71 244.8 595.84 248.1 595.63 251.24 589.94 255.05 575.3 261.11 573.12 259.29 570.85 259.43 566.23 261.44 566.75 263.88 560.79 263.63 556.94 265.36 564.91 268.2 562.67 270.26 565.16 270.27 564.85 272.38 572.2 277.88 570.28 281.61 564.38 282.83 569.66 285.99 568.61 288.21 563.05 287.86 557.44 290.39 553.03 290.98 533.63 291.85 529.23 290.87 528.02 285.07 524.97 293.03 526.77 294.21 524.58 297.71 517.82 302.25 515.82 302.69 513.92 301.42 512.47 304.63 508.54 304.56 513.58 307.73 516.26 314.49 518.45 315.2 527.26 314.06 529.16 316.86 535.21 318.87 534.44 323.49 538.93 326.38 528.53 329.05 523.26 332.27 526.71 334.5 511.18 341.72 510.29 343.52 512.06 347.5 509.38 348 508.45 351.53 507.78 352.9 507.75 352.96 503.95 353.08 494.96 355.14 490.31 355.62 484.89 355.12 483.03 353.54 483.07 345.79 482.56 344.56 480.53 342.39 480.1 341.35 480.48 340.09 482.33 338.7 483.01 337.62 484.12 335.08 485.17 333.34 485.71 331.56 485.34 328.86 482.11 325.05 472.31 322.45 469.55 319.55 470.44 316.24 478.41 303.45 478.6 301.23 478.28 299.51 478.51 297.64 482.41 292.13 483.67 291.93 485.9 293.5 486.37 289.87 487.48 285.59 487.76 281.96 485.86 280.34 479.37 281.21 477.04 280.58 476.1 277.49 470.51 279.14 448.42 293.53 447.22 295.15 446.66 297.2 447.15 298.44 447.92 299.48 448.14 300.9 446.55 307.52 445.1 310.8 443.19 313.17 440.95 314.12 432.32 315.01 403.44 324.25 397.3 324.94 395.75 324.67 395.77 324.65 396.35 323.8 399.14 319.41 393.08 311.47 391.42 300.69 388.07 299.94 387.16 296.56 386.99 288.26 389.69 284.72 381.75 275.83 389.31 272.1 387.63 269.13 390.14 262.5 387.17 261.04 382.8 260.43 378.97 263.26 377.38 263.32 369.82 260.45 366.41 257.48 374.64 253.61 381.58 253.31 384.26 250.2 387.98 250.32 389.68 246.45 401.16 247.48 405.39 242.81 411.15 242.47 414.94 245.58 428.94 244.12 427.63 236.34 432.66 231.01 428.37 227.81 431.68 227.17 434.76 222.84 425.79 219.41 427.75 218.14 425.75 216.68 428.55 216.37 431.31 211.52 428.75 209.29 430.37 207.38 422.94 208.56 426.63 198.35 425.9 194.83 429.41 193.07 433.07 192.75 440.6 194.46 445.25 193.79 442.85 187.34 445.14 184.88 447.14 184.87 452.93 187.45 453.88 185.17 459.23 184.22 460.54 188.38 468.88 186.3 471.2 188.5 470.4 186.09 471.47 185.46 493.67 181.73 493.89 180.46 499.38 180.76 504.12 176.7 510.69 177.65 Z" id="BEL-3476" data-name="Namur"/>
<path d="M 726.18 279.67 724.35 279.1 723.09 277.58 722.41 275.6 721.08 274.67 717.89 276.31 713.48 276.61 711.72 278.52 710.87 281.36 709.22 284.33 706.14 286.4 698.43 288.83 695 290.84 694.26 292.16 693.85 295.52 693.33 296.93 692.07 298.11 689.05 299.8 687.81 301.08 688.05 303.48 688.05 305.43 687.53 307.07 686.03 308.1 681.84 309.29 680.55 310.4 680.32 313.25 681.77 314.41 682.61 315.56 680.34 318.4 678.63 319.44 675.57 319.9 674.11 320.53 672.48 321.92 671.71 323.01 671.22 324.05 670.39 325.37 663.21 333.41 662.38 335.38 664.82 336.14 669.4 338.4 671.33 340.28 665.89 339.92 665.91 341.12 665.61 341.74 665.23 342.22 664.86 342.97 666.85 344.17 664.39 345.24 663.47 347.22 663.77 349.69 665.03 352.29 667.22 354.64 669.32 355.31 671.54 355.55 674.18 356.6 675.55 357.92 680.43 364.17 680.75 365.15 681.2 368.04 681.11 368.52 682.44 369.21 685.33 369.78 686.57 370.23 687.73 370.37 689.05 370.08 690.4 370.14 691.6 371.37 691.68 371.84 691.88 372.96 691.11 373.81 690.1 374.55 689.78 375.7 689.67 377.05 689.05 377.71 688.75 378.45 689.48 379.97 690.89 380.67 695.05 380.98 696.55 381.8 697.7 384.74 696.55 386.54 694.49 387.78 692.84 389.05 690.19 393.82 688.54 395.9 686.21 397.33 689.72 398.58 687.75 401.82 683 405.12 678.07 406.65 675.65 406.27 671.11 404.45 668.89 404.23 666.66 405.01 663.99 407.31 661.42 408.03 656.94 407.53 652.49 406.1 647.82 405.4 642.66 407.11 640.2 409.31 639.73 410.8 639.05 411.63 635.99 411.9 634.21 411.59 627.72 409.62 623.83 410.75 618.62 413.42 613.25 415.46 613.25 415.46 608.78 414.69 607.49 412.85 607.71 411 608.37 409.05 608.41 406.89 607.56 404.99 597.58 393.25 595.32 391.94 595.32 391.93 593.73 391 587.31 389.47 584.95 388.55 583.67 388.41 582.9 388.97 582.02 390.11 580.93 391.15 579.45 391.45 576 391.02 575 390.2 574.5 388.3 575.15 385.36 576.82 384.67 577.76 383.92 576.32 380.82 572.32 377.63 568 374.84 563.52 374.92 554.17 376.61 549.39 375.7 545.63 373.88 542.54 371.94 533.72 363.66 531.26 362.13 523.88 360.75 519.74 359.23 512.04 354.29 508.29 352.94 507.75 352.96 507.78 352.9 508.45 351.53 509.38 348 512.06 347.5 510.29 343.52 511.18 341.72 526.71 334.5 523.26 332.27 528.53 329.05 538.93 326.38 534.44 323.49 535.21 318.87 529.16 316.86 527.26 314.06 518.45 315.2 516.26 314.49 513.58 307.73 508.54 304.56 512.47 304.63 513.92 301.42 515.82 302.69 517.82 302.25 524.58 297.71 526.77 294.21 524.97 293.03 528.02 285.07 529.23 290.87 533.63 291.85 553.03 290.98 557.44 290.39 563.05 287.86 568.61 288.21 569.66 285.99 564.38 282.83 570.28 281.61 572.2 277.88 564.85 272.38 565.16 270.27 562.67 270.26 564.91 268.2 556.94 265.36 560.79 263.63 566.75 263.88 566.23 261.44 570.85 259.43 573.12 259.29 575.3 261.11 589.94 255.05 595.63 251.24 595.84 248.1 593.71 244.8 588.91 245.01 586.33 247.4 584.74 246.32 596 240.95 593.05 238.49 597.4 234.78 595.58 232.11 602.48 227.94 598.33 223.22 599.59 221.78 602.34 221.69 611.34 226.18 619.65 222.68 621.55 226.76 625.05 227.21 624.4 229.07 625.55 229.73 628.99 230.07 636.03 227.94 647.25 234.64 654.12 234.36 653.13 236.83 663.59 236.85 659.99 242.01 660.22 244.29 663.56 247.92 669.14 248.81 663.58 256.42 676.04 255.19 679.43 255.87 680.81 257.86 682.16 255.84 695.28 254.67 696.63 252.64 689.42 251.97 694.04 244.74 690.21 242.65 692.03 238.85 717.14 242.38 717.5 244.15 724.12 246.34 722.97 265.6 723.89 267.9 728.43 268.48 725.54 270.58 726.41 272.83 726.59 273.29 726.18 279.66 726.18 279.67 Z" id="BEL-3477" data-name="Luxembourg"/>
<path d="M 369.03 47.95 368.28 48.3 366.95 50.38 371.35 59.27 369.54 60 374.56 64.55 375.65 67.16 376.16 68.64 375.23 73.17 372.62 76.41 364.38 78.11 355.99 78.11 351.88 78.61 348.18 80.25 345.57 82.19 344.87 83.1 345.15 83.97 345.41 85.83 346.02 87.75 347.21 90.1 347.86 92.49 346.82 94.54 346.35 94.7 348.86 96.08 351.14 96.73 355.2 94.61 356.95 95.9 352.14 105.83 347.39 107.2 340.67 105.73 337.52 109.88 340.46 115.66 340.35 118.3 335.56 120.44 326.08 117.9 327.92 121.91 322.43 124.49 325.42 126.17 325.22 128.35 315.54 137.25 320.84 137.87 322.68 140.92 319.67 146.73 313.47 150.08 309.93 150.98 307.02 149.25 303.48 152.08 298.12 149.4 295.57 150.31 292.92 154 297.24 157.74 296.95 158.86 290.25 159.95 285.42 158.85 283.23 155.28 283.23 155.28 271.55 156.91 268.79 155.17 260.5 155.78 260.49 155.78 257.01 149.28 257.01 149.28 248.05 151.7 245.86 148.92 239.92 151.02 231.5 161.4 225.7 158.84 212.01 158.69 212.01 158.68 210.65 152.16 210.65 152.16 202.4 153.73 194.83 151.73 207.76 145.64 208.27 144.14 203.5 139.99 206.17 137.86 193.35 130.86 198.23 127.69 196.58 123.8 193.35 122.95 188.56 124.82 186.86 121.97 189.65 120.24 188.02 117.86 192.92 118.31 194.36 117.37 191.21 115.39 195.37 115.44 185.4 112.28 191.8 110.45 188.26 107.43 193.67 102.33 187.49 95.61 191.97 93.57 168.54 83.04 177.61 79.32 185.03 70.41 180.21 65.01 174.58 63.84 179.6 61.6 176.05 56.23 182.9 53.52 182.65 53.1 187.44 54.49 194.06 54.98 203.86 54.01 204.46 52.06 203.93 49.43 204.31 47.04 206.58 45.57 209.62 45.1 212.94 44.98 221.18 43.81 226.3 43.63 231.58 44.17 256.91 49.45 260.83 51.07 261.9 53.78 261.55 56.08 261.9 58.24 264.98 60.54 267.55 61.26 292.06 61.06 296.7 60.13 306.14 55.48 331.81 47.36 342.09 42.29 350.24 35.31 351.4 33.25 352.94 28.43 353.05 27.56 353.06 27.56 353.19 27.61 357.1 29.92 358.76 31.98 360.22 35.76 363.64 38.37 367.4 40.43 369.93 42.46 370.69 43.77 370.99 45.04 370.44 46.49 369.04 47.94 369.03 47.95 Z" id="BEL-3478" data-name="East Flanders"/>
<path d="M 182.65 53.1 182.9 53.52 176.05 56.23 179.6 61.6 174.58 63.84 180.21 65.01 185.03 70.41 177.61 79.32 168.54 83.04 191.97 93.57 187.49 95.61 193.67 102.33 188.26 107.43 191.8 110.45 185.4 112.28 195.37 115.44 191.21 115.39 194.36 117.37 192.92 118.31 188.02 117.86 189.65 120.24 186.86 121.97 188.56 124.82 193.35 122.95 196.58 123.8 198.23 127.69 193.35 130.86 206.17 137.86 203.5 139.99 208.27 144.14 207.76 145.64 194.83 151.73 185.54 156.1 176.15 162.34 175.33 163.92 173.29 163.51 172.09 163.45 166.98 161.06 166.98 161.06 167.28 158.23 167.28 158.23 162.87 154.24 154.07 155.08 145.55 151.99 136.31 155 133.77 155.58 133.77 155.58 130.33 151.65 126.82 149.54 121.44 148.51 104.98 151.78 104.8 151.09 103.04 144.15 103.04 144.15 99.8 142.8 87.75 145.9 87.56 146.82 87.56 146.82 91.81 150.02 91.81 150.02 83.98 152.05 83.09 153.97 77.19 154.71 74.24 152.98 72.87 153.24 67.36 155.39 71.57 163.94 72.44 165.9 55.87 161.08 52.04 159.04 50.95 157.76 48.17 153.58 46.99 152.21 39.28 147.53 37.91 145.98 37.27 144.58 36.22 143.38 33.5 142.47 31.53 142.33 27.68 142.67 25.99 142.63 22.95 142.22 21.43 141.79 20.34 140.62 18.56 137.99 17.62 137.32 15.12 136.51 14.45 135.8 14.67 134.85 16.27 132.55 16.51 131.2 12.42 122.11 13.62 120.22 18.39 117.2 19.61 115.96 18.95 111.84 15.69 108.73 8.29 103.54 6.23 99.54 4.16 90.4 1 85.65 1 85.65 5.18 83.72 13.04 82.08 41.16 68.68 84.22 52.73 125.91 35.5 172.33 26.08 172.42 26.07 174.21 34.04 173.36 39.18 173.21 44.01 176.14 49.21 181.17 52.67 182.65 53.1 Z" id="BEL-3479" data-name="West Flanders"/>
<path d="M 563.9 50.57 561.4 51.86 559.14 59.77 567.57 64.75 568.24 73.12 563.05 76.02 556.35 74.79 551.66 79.09 541.28 79.44 532.91 86.14 516.33 88.22 516.31 91.06 510.35 96.33 507.48 94.16 503.59 94.31 495.6 96.35 490.03 99.46 487.5 98.67 476.72 101.49 474.06 100.36 470.53 95.48 463.77 98.73 459.18 98.12 451.11 103.83 453.46 100.55 447.89 98.64 432.79 101.2 430.08 105.42 426.9 105.38 420.3 102.93 416.54 105.15 409.55 101.77 405.8 105.36 401.17 102.37 388.59 104.31 387.59 101.24 383.71 100.48 385.69 97.34 379.24 100.07 377.89 99.65 379.29 98.19 369.08 95.29 364.05 94.74 356.95 95.9 355.2 94.61 351.14 96.73 348.86 96.08 346.35 94.7 346.82 94.54 347.86 92.49 347.21 90.1 346.02 87.75 345.41 85.83 345.15 83.97 344.87 83.1 345.57 82.19 348.18 80.25 351.88 78.61 355.99 78.11 364.38 78.11 372.62 76.41 375.23 73.17 376.16 68.64 375.65 67.16 374.56 64.55 369.54 60 371.35 59.27 366.95 50.38 368.28 48.3 369.03 47.95 368.63 48.36 371.04 47.61 372.71 46.44 375.7 42.46 368.72 40.58 367.1 39.75 366.29 37.91 366.44 33.43 365.8 31.27 364.27 29.61 361.25 27.28 361.25 27.28 365.4 27.37 367.26 27.41 374.75 29.96 378.76 30.81 388.41 31.21 392.35 29.89 393.38 26.32 392.12 24.29 387.47 20.82 385.86 18.96 386.01 16.86 387.36 15.25 387.79 13.77 385.29 12.05 396.12 8.1 407.23 5.54 413.35 4.91 415.96 5.21 417.61 6.94 417.33 10.4 415.58 12.98 415.19 15 419.15 16.78 421.89 16.94 427.87 16.25 434.48 17.3 437.69 17.16 440.47 16.5 442.62 15.5 458.63 3.2 465.46 1 468.45 1.18 472.22 2.08 475.69 3.51 477.83 5.27 478.28 8.39 476.99 11.36 476.07 14.5 477.57 18.1 468.54 15.46 466.21 15.67 465.03 18.16 469.42 19.35 483.91 19.66 487.72 20.3 495.73 22.61 500.2 21.84 505.42 18.66 510.2 14.61 513.43 11.26 514.86 8.71 515.57 6.79 516.81 5.54 520 5.02 520.58 5.52 526.79 8.1 530.86 12.95 530.13 16.4 527.82 19.71 527.09 24.19 528.41 26.21 535.54 31.15 536.63 32.95 538.75 37.52 539.76 38.87 543.34 40.12 551.34 39.68 555.17 39.92 558.81 42.82 558.92 50.19 562.56 50.78 563.9 50.57 Z" id="BEL-3480" data-name="Antwerp"/>
<path d="M 666.08 153.73 666.6 154.25 669.7 156.22 675.02 155.32 683.79 162.69 691.22 162.02 696.19 163.64 698 163.16 702.82 158.47 702.82 158.47 698.91 155.31 698.92 155.31 701.17 155.76 716.2 156.07 720.37 155.58 720.03 155.97 719.9 156.34 719.92 156.72 720.22 157.1 723.67 158.25 723.78 160.24 723 162.42 723.82 164.15 726.56 164.36 734.76 162.92 738.2 163.13 742.19 165.65 754.79 177.9 752.03 179.02 754.45 182 758.71 183.42 773.01 183.65 773.48 184.89 772.03 186.73 769.67 188.55 769.67 189.3 765.05 191.05 758.52 194.51 754.71 198.32 758.16 201.09 756.53 202.69 756.81 203.63 758.48 204.08 760.9 204.2 759.25 205.98 760.92 206.97 762.69 209.33 764.34 210.18 766.4 210.24 773.4 208.86 773.85 208.57 774.36 208.47 774.83 208.57 775.3 208.86 778.47 209.83 787.44 211.14 791.21 211.28 788.9 212.73 788.38 214.39 788.98 216.25 790.12 218.35 791.89 220.22 793.37 220.4 794.16 221.11 794.01 224.56 792.54 229.45 791.1 232.22 791.38 234.67 798.57 242.68 798.77 243.99 799 245.57 796.41 247.33 790.91 247.97 788.13 247.65 785.77 247.06 783.46 246.94 780.65 247.97 778.6 249.58 777.23 251.57 776.8 253.66 777.72 255.52 773.91 257.72 765.01 259.33 760.7 260.64 758.67 262.65 753.98 264.78 751.84 266.58 754.6 268.55 755.76 270.9 755.63 273.23 754.39 275.19 752.85 275.83 748.71 276.05 746.94 276.76 746.55 277.44 745.87 279.76 745.42 280.78 747.52 281.87 748.24 283.15 747.64 284.54 745.76 285.96 742.68 285.07 742.21 283.43 742.44 281.48 741.54 279.57 738.87 277.91 737.26 278.05 735.93 278.97 734.14 279.69 729.43 280.17 727.09 279.96 726.18 279.67 726.18 279.66 726.59 273.29 726.41 272.83 725.54 270.58 728.43 268.48 723.89 267.9 722.97 265.6 724.12 246.34 717.5 244.15 717.14 242.38 692.03 238.85 690.21 242.65 694.04 244.74 689.42 251.97 696.63 252.64 695.28 254.67 682.16 255.84 680.81 257.86 679.43 255.87 676.04 255.19 663.58 256.42 669.14 248.81 663.56 247.92 660.22 244.29 659.99 242.01 663.59 236.85 653.13 236.83 654.12 234.36 647.25 234.64 636.03 227.94 628.99 230.07 625.55 229.73 624.4 229.07 625.05 227.21 621.55 226.76 619.65 222.68 611.34 226.18 602.34 221.69 599.59 221.78 598.33 223.22 602.48 227.94 595.58 232.11 586.78 230.18 575.42 235.07 572.56 232.52 572.79 228.69 562.52 226.91 559.97 224.24 563.2 220.18 559.37 214.66 554.88 211.77 547.87 213.57 545.58 211.1 546.62 209.29 542.52 209.68 541.08 206.4 543.88 204.68 538.96 206.15 536.12 205.82 533.02 200.94 521.46 200.54 525.35 198.66 520.04 188.72 509.97 182.64 510.69 177.65 514.67 172.93 514.46 166.79 517.73 165.31 512.64 160.68 517.58 158.98 518.26 155.17 518.26 155.17 523.32 157.05 523.32 157.05 523.21 160.72 523.21 160.72 526.63 163.53 529.78 164.49 535.24 163.9 535.25 163.9 549.04 166.49 551.68 164.44 551.67 164.44 549.39 161.04 561.72 162.04 563.21 160.07 563.21 160.07 564.71 162.43 564.71 162.43 571.38 159.82 577.96 162.11 578.98 159.77 583.09 157.44 592.64 155.39 595.44 156.16 595.44 156.16 598 160.23 598 160.23 603.57 161.6 608.18 161.31 609.82 157.64 613.9 160.45 617.2 159.95 622.8 156.86 622.4 153.49 640.33 150.09 650.47 143.63 651.68 144.16 656.15 145.52 659.38 146.13 659.02 148.57 656.88 153.32 660.65 154.69 662.89 154.98 665.06 154.7 666.08 153.73 Z" id="BEL-3481" data-name="Liege"/>
<path d="M 518.26 155.17 517.58 158.98 512.64 160.68 517.73 165.31 514.46 166.79 514.67 172.93 510.69 177.65 504.12 176.7 499.38 180.76 493.89 180.46 493.67 181.73 471.47 185.46 470.4 186.09 471.2 188.5 468.88 186.3 460.54 188.38 459.23 184.22 453.88 185.17 452.93 187.45 447.14 184.87 445.14 184.88 442.85 187.34 445.25 193.79 440.6 194.46 433.07 192.75 429.41 193.07 425.9 194.83 426.63 198.35 414.17 201.72 411.13 200.85 411.37 198.92 404.54 201.19 405.12 196.08 404.13 195.01 394.78 195.06 392.62 193.62 380.88 194.42 375.7 198.12 376.27 192.85 370.16 193.24 364.95 188.08 358.23 187.19 359.36 182.86 348.31 181.09 349.36 176.75 345.35 173.4 343.07 173.98 336.55 179.68 331.75 180.15 328.12 179.17 326.1 175.52 325.86 167.87 326.69 165.2 330.46 164.5 327.83 164.44 329.44 162.36 334.48 162.41 335.99 160.13 338.04 159.63 340.02 160.15 344.51 164.11 350.14 164.04 356.88 167.57 360.94 165.7 366.66 166.91 369.69 166.28 371.13 165.18 371.67 162.03 376.2 161.98 376.2 161.98 374 159.91 374 159.91 375.51 158.82 379.47 162.27 383.37 162.46 384.57 159.33 394.53 158.35 402.04 154.62 406.6 153.71 409.6 153.99 409.61 153.99 408.71 156.38 408.71 156.38 409.73 157.41 416.32 159.82 416.78 157.26 425.84 155.9 430.74 152.52 430.74 152.52 431.83 157.03 431.83 157.03 438.74 156.79 442.77 153.83 442.76 153.83 438.98 150.6 438.98 150.59 439.83 145.3 450.64 147.07 454.28 145.77 454.28 145.77 455.1 147.32 455.1 147.32 456.9 144.68 462.44 143.41 471.12 145.32 475.55 150 480.52 150.29 480.52 150.29 479.63 152.53 479.63 152.53 495.25 151.51 495.26 151.51 494.53 155.24 494.53 155.24 497.15 156.64 500.29 156.33 510.46 151.23 518.26 155.17 Z" id="BEL-3482" data-name="Walloon Brabant"/>
</g>
</svg>