<?xml version="1.0"?>
<svg xmlns="http://www.w3.org/2000/svg" version="1.2" baseProfile="tiny" width="800" height="580" viewBox="0 0 800 580" stroke-linecap="round" stroke-linejoin="round">
<g id="ne_10m_admin_1_states_provinces">
<path d="M 217.88 417.77 211.43 421.44 202.5 421.39 195.52 417.61 194.94 410.11 201.61 407.12 210.77 407.81 217.77 411.56 217.88 417.77 Z M 198.43 467.21 189.49 469.61 180.54 471.93 174.06 471.94 167.6 472.09 163.72 477.61 164.2 484.26 150.9 483.23 137.54 479.61 125.89 475.88 114.08 473.12 85.7 475.27 57.6 480.74 42.29 483.84 26.78 485.3 19.01 483.91 12.3 484.59 11.24 485.05 11.22 485.06 10.73 483.98 10.1 478.52 8.27 474.64 1 465.9 10.73 452.36 9.89 451.24 8.66 448.53 13.78 445.07 17.08 432.1 21.25 429.23 22.01 427.77 21.53 424.49 20.43 420.98 19.33 418.8 18.61 415.83 20.78 413.23 30.27 407.97 42.71 403.18 48.01 402.3 54.47 403.8 57.33 403.71 58.51 401.43 59.9 399.49 63.01 398.64 66.3 398.45 82.03 399.29 93.17 401.57 129.81 417.08 145.93 417.77 146.51 418.19 148.33 420.14 148.72 420.72 149.36 422.89 150.92 422.74 152.87 421.78 154.62 421.6 162.76 425.64 166.37 426.87 178.96 427.32 181.94 427.86 185.23 429.23 191.25 434.15 193.03 435.14 195.91 435.35 197.3 434.56 198.24 433.57 199.73 433.06 202.52 433.49 205.98 435.11 208.49 435.14 210.2 434.39 210.94 433.87 210.93 433.89 208.6 438.49 203.75 443.76 205.12 447.66 209.72 449.72 203.48 456.4 198.43 467.21 Z" fill-rule="evenodd" id="HTI-1359" data-name="Grand&apos;Anse"/>
<path d="M 418.59 495.76 417.49 504.06 413.9 511.98 413.92 518.13 414.47 524.28 407.34 515 405.08 502.83 396.14 494.92 385.52 486.7 378.74 484.91 372.36 486.73 365.29 485.96 357.95 485.12 343.12 485.4 328.54 483.47 319.79 486.88 309.74 489.36 300.9 489.07 292.07 489.88 274.22 492.6 260.03 489.18 262.82 483.14 265.33 478.31 259.08 475.3 255.03 470.55 250.13 466.56 242.5 465.92 233.51 467.11 227.16 472.17 222.42 470.7 216.8 468.01 207.52 468.41 198.43 467.21 203.48 456.4 209.72 449.72 205.12 447.66 203.75 443.76 208.6 438.49 210.93 433.89 210.94 433.87 213.78 431.87 214.94 431.31 215.28 430.64 218.83 426.46 220.71 425.56 222.94 425.47 225.24 425.65 227.45 425.57 240.14 422.07 243.79 421.6 253.77 423.97 253.92 428.77 248.25 432.41 240.82 431.31 240.82 433.06 234.78 431.12 229.4 430.43 223.98 431.01 217.88 433.06 219.72 434.25 224.37 436.61 228.99 437.68 229.29 439.32 229.18 441.47 230.41 443.65 235.34 445.75 244.24 444.52 248.64 446.61 258.46 440.99 270.49 439.55 314.77 442.79 320.44 443.99 331.59 449.39 337.81 450.6 360.24 449.83 371.2 450.74 381.08 454.25 386.28 457.12 390.52 458.66 395.23 458.96 402.3 457.77 403.89 460.89 404.03 464.27 399.68 471.26 400.31 478.79 407.31 479.06 412.15 483.71 414.21 490.51 418.59 495.76 Z" id="HTI-1360" data-name="Nippes"/>
<path d="M 480.67 41.84 509.24 48.16 516.28 52.28 522.1 54.9 538.72 59.78 539.71 60.94 537.45 62.47 534.67 66.4 532.88 69.79 530.55 71.5 527.43 74.27 523.76 77.31 520.8 76.96 518.04 75.3 513.55 74.2 509.65 75.2 508.72 78.56 508.79 80.25 500.28 79.12 493.41 83.79 488.75 86.34 482.87 87.79 465.47 101.85 444.34 105.37 432.9 103.36 421.34 102.46 410.06 99.83 399.26 100.82 386.09 113.95 383.85 129.24 384.14 129.99 383.76 129.96 382.35 130.6 381.05 131.96 379.2 133.34 376.22 133.96 372.06 132.99 365.87 130.55 359.83 127.38 356.05 124.24 350.4 129.44 338.37 130.94 311.69 129.66 306.4 128.35 303.3 128.07 301.32 126.85 296.38 121.6 293.65 120.41 289.77 117.93 288.22 112.34 287.69 106.48 286.88 103.2 296.88 88.03 298.36 84.86 301.1 84.8 315.73 78.35 315.73 76.26 300.27 76.26 304.79 73.04 310.13 72.5 315.83 72.95 321.47 72.61 355.58 57.79 365.56 50.94 371.17 43.59 374.52 47.43 377.72 48.45 385.67 47.59 389.76 48.16 397.15 50.68 401.05 51.24 404.39 51.17 406.25 50.91 411.84 49.5 415.98 48.99 420.26 49.33 424.15 50.7 427.12 53.33 429.13 48.99 434.4 46.29 440.83 45.69 446.24 47.59 453.71 44.68 462.63 42.48 471.96 41.37 480.67 41.84 Z M 484.47 7.28 510.97 17.1 522.24 23.83 519.06 30.38 514.52 28.55 490.8 25.46 479.79 21.38 466.19 18.49 461.55 16.48 458.34 17.06 455.01 18.24 451.98 18.74 446.12 17.62 439.27 15.46 433.05 12.48 429.06 9 430.29 9.01 431.06 8.64 432.69 7.28 445.65 3.18 459.8 1.35 467.89 1 473.29 1.72 478.12 3.73 484.47 7.28 Z" fill-rule="evenodd" id="HTI-1361" data-name="Nord-Ouest"/>
<path d="M 223.57 556.2 225.36 557.99 228.58 555.86 230.11 556.63 231.23 558.53 233.17 559.75 241.87 559.75 246.59 560.02 252.12 561.11 256.12 563.42 256.12 567.38 252.64 569.5 246.93 570.01 236.04 569.48 231.14 568.45 226.86 565.97 219.81 559.75 220.71 556.96 221.98 555.81 223.57 556.2 Z M 11.22 485.06 11.24 485.05 12.3 484.59 19.01 483.91 26.78 485.3 42.29 483.84 57.6 480.74 85.7 475.27 114.08 473.12 125.89 475.88 137.54 479.61 150.9 483.23 164.2 484.26 163.72 477.61 167.6 472.09 174.06 471.94 180.54 471.93 189.49 469.61 198.43 467.21 207.52 468.41 216.8 468.01 222.42 470.7 227.16 472.17 233.51 467.11 242.5 465.92 250.13 466.56 255.03 470.55 259.08 475.3 265.33 478.31 262.82 483.14 260.03 489.18 274.22 492.6 292.07 489.88 300.9 489.07 309.74 489.36 319.79 486.88 328.54 483.47 343.12 485.4 357.95 485.12 365.29 485.96 372.36 486.73 378.74 484.91 385.52 486.7 396.14 494.92 405.08 502.83 407.34 515 414.47 524.28 415.14 529.18 416.02 534.06 415.71 535.43 392.53 532.97 385.13 533.32 382.8 532.97 374.66 528.03 372.21 527.23 335.02 521.51 318.32 523.15 315.73 522.47 317.2 518.82 320.92 517.43 331.03 517.51 331.03 515.77 312.33 513.86 289.65 514.03 283.06 515.77 274.04 520.85 270.63 521.51 268.39 520.4 265.98 515.26 263.93 513.69 260.19 515.84 258.16 521.31 256.09 525.41 252.3 523.43 250.55 523.43 247.25 525.43 244.47 524 243.24 520.37 244.64 515.77 240.66 516.9 237.19 524.22 233.17 527.23 233.36 523.46 234.28 520.1 236.99 513.69 234.8 515.38 231.64 519.35 229.36 521.51 229.13 520.83 227.49 520.21 224.49 519.6 223.48 520.08 223.6 521.19 223.93 522.45 223.62 523.43 211.38 532.72 191.35 541.56 186.27 546.36 181.4 554.02 193.18 565.99 194.94 570.35 196.37 575.86 195.7 578.01 191.99 578.86 173.44 578.8 170.73 578.36 168.01 577.12 165.97 575.17 164.9 571.05 146.99 546.53 146.1 545.89 143.98 545 142.99 544.45 142 543.39 141.77 542.53 141.64 541.64 140.88 540.45 135.67 535.8 108.55 516.8 103.69 514.54 95.14 513.17 91.55 511.76 88.5 509.64 87.2 507 86.61 504.01 85.02 503.1 82.64 502.95 79.73 502.21 72.5 499.54 70.16 498.23 68.26 500.3 62.98 498.5 57.37 500.75 51.46 504.24 45.31 506.04 40.15 505.02 33.75 502.55 28.32 499.67 26.03 497.35 23.64 494.21 13.11 489.14 11.22 485.06 Z" fill-rule="evenodd" id="HTI-1362" data-name="Sud"/>
<path d="M 508.79 80.25 512.11 87.02 517.87 91.29 518.68 97.54 524.72 96.76 530.55 100.84 527.92 110.3 531.42 115.11 538.19 117.85 542.04 129 546.66 140.4 554.41 147.63 562.89 154.09 572.89 158.02 581.3 155.47 581.33 148.23 586.9 148.4 592.06 143.73 596.87 143.32 600.95 145.29 606.34 147.89 607.69 165.68 618.49 175.15 629.74 180.38 634.45 190.37 633 198.13 634.33 206.1 639.01 214.06 641.94 221.6 629.11 238.69 627.51 258.96 635.04 266.08 632.42 272.04 633.02 278.84 634.92 287.13 631.06 301.35 632.77 315.36 633.57 322.78 629.73 331.88 628.67 340.53 622.09 344.09 608.8 342.62 595.7 343.37 589.14 336.95 581.6 331.71 574.21 328.87 567.22 326.01 564.41 321.7 561.39 317.64 554.46 317.95 547.87 317.22 526.73 314.37 508.88 313.74 504.19 317.01 500.27 321.74 500.26 321.75 499.51 321.38 470.16 291.32 468.82 284.14 480.67 279.59 491.41 278.91 497.35 277.03 499.95 272.92 498.28 267.65 494.2 264.92 489.12 263.07 484.47 260.48 481.51 256.92 474.79 245.65 473.01 241.2 474.93 239.9 475.14 239.4 474.84 238.85 475.09 237.37 477.82 234.93 480.9 228.48 482.74 225.9 485.81 224.46 490.25 223.63 494.76 223.45 498.04 223.98 494.02 216.43 491.13 214.89 485.52 214.41 482.2 212.01 481.1 206.54 481.53 200.73 482.74 197.22 484.51 198.96 486.84 200.48 489.53 201.29 492.3 200.88 495.39 198.76 495.55 196.71 494.56 194.4 494.09 187.96 493.38 186.74 494.02 186.97 498.04 187.65 499.44 188.49 501.4 190.08 504.09 191.41 507.6 191.48 502.2 181.29 499.38 179.79 484.91 178.92 481.24 176.4 478.78 172.66 475.09 168.37 469.82 164.79 451.98 157.07 437.12 148.37 431.82 147.16 427.22 145.13 417.35 137.17 415.48 136.75 412.68 137.93 395.33 131.87 392.46 131.56 386.95 130.27 384.14 129.99 384.14 129.99 383.85 129.24 386.09 113.95 399.26 100.82 410.06 99.83 421.34 102.46 432.9 103.36 444.34 105.37 465.47 101.85 482.87 87.79 488.75 86.34 493.41 83.79 500.28 79.12 508.79 80.25 Z" id="HTI-1384" data-name="L&apos;Artibonite"/>
<path d="M 768.09 227.82 777.33 236.76 795.47 245.12 799 246.75 797.73 263.44 796.29 268.25 792.76 273.21 783.27 279.66 779.03 283.27 770.66 294.41 758.52 307.17 754.84 309.32 740.47 313 735.64 316.1 736.46 320.95 741.49 320.21 748.44 317.95 755 318.16 757.56 320.13 761.53 328.05 764.09 330.91 770.5 336.48 772.58 339.02 774.13 344.19 774.42 355.55 776.67 366.55 776.25 371.81 774.88 376.98 772.97 381.71 769.61 386.93 765.69 389.99 758.18 394.41 756.25 395.54 756.16 395.43 754.28 393.25 743.68 387.26 731.96 384.35 722.56 381.11 713.01 377.95 690.48 381.86 668.31 388.72 646.96 381.73 630.1 365.91 621.75 360.44 612.2 358.16 603.02 352.66 595.7 343.37 608.8 342.62 622.09 344.09 628.67 340.53 629.73 331.88 633.57 322.78 632.77 315.36 631.06 301.35 634.92 287.13 633.02 278.84 632.42 272.04 635.04 266.08 627.51 258.96 629.11 238.69 641.94 221.6 650.2 224.35 656.33 230.15 658.9 233.81 664.34 233.32 683.7 221.89 703.87 212.12 713.84 217.72 724.21 222.21 729.42 226.37 737.03 227.39 743.41 228.54 748.56 228.2 758.46 229.01 767.96 227.83 768.09 227.82 Z" id="HTI-1385" data-name="Centre"/>
<path d="M 765.87 107.31 768.34 115.01 769.34 119.97 769.06 124.41 768.6 131.76 769.89 138.12 777.72 155.65 781.06 177.54 780.87 190.04 777.67 196.47 776.12 198.07 772.58 206.61 769.92 208.59 762.36 212.67 760.53 214.44 761.92 220.02 766.91 226.68 768.09 227.82 767.96 227.83 758.46 229.01 748.56 228.2 743.41 228.54 737.03 227.39 729.42 226.37 724.21 222.21 713.84 217.72 703.87 212.12 699.21 197.68 685.08 184.12 679.86 182.68 674.71 181.35 677.49 177.22 678.36 169.8 673.58 162.51 670.72 154.23 666.95 147.62 666.12 141.03 667.22 137.47 667.01 133.63 670.41 131.51 674.9 130.62 680.87 122.31 682.13 111.52 683.19 109.4 684.54 106.77 684.54 106.77 686.4 107.63 690.21 110.25 692.76 110.85 694.93 109.89 696.35 107.81 698.14 105.78 701.35 104.94 706.67 101.09 714.61 101.14 728.31 104.94 735.83 105.92 737.83 107.33 736.13 110.85 733.71 112.34 730.38 112.87 722.56 112.77 725.5 117.89 730.36 118.43 735.62 117.04 739.77 116.4 744.83 120.42 747.95 122.27 749.33 121.38 750.83 117.54 750.23 115.53 744.05 114.01 742.07 112.29 741.07 109.83 741.52 107.02 743.66 105.28 746.87 105.49 754.11 107.02 765.87 107.31 Z" id="HTI-1386" data-name="Nord-Est"/>
<path d="M 684.54 106.77 684.54 106.77 683.19 109.4 682.13 111.52 680.87 122.31 674.9 130.62 670.41 131.51 667.01 133.63 667.22 137.47 666.12 141.03 666.95 147.62 670.72 154.23 673.58 162.51 678.36 169.8 677.49 177.22 674.71 181.35 679.86 182.68 685.08 184.12 699.21 197.68 703.87 212.12 683.7 221.89 664.34 233.32 658.9 233.81 656.33 230.15 650.2 224.35 641.94 221.6 639.01 214.06 634.33 206.1 633 198.13 634.45 190.37 629.74 180.38 618.49 175.15 607.69 165.68 606.34 147.89 600.95 145.29 596.87 143.32 592.06 143.73 586.9 148.4 581.33 148.23 581.3 155.47 572.89 158.02 562.89 154.09 554.41 147.63 546.66 140.4 542.04 129 538.19 117.85 531.42 115.11 527.92 110.3 530.55 100.84 524.72 96.76 518.68 97.54 517.87 91.29 512.11 87.02 508.79 80.25 508.72 78.56 509.65 75.2 513.55 74.2 518.04 75.3 520.8 76.96 523.76 77.31 527.43 74.27 530.55 71.5 532.88 69.79 534.67 66.4 537.45 62.47 539.71 60.94 539.71 60.94 545.54 67.79 553.04 72.58 560.83 75.24 565.11 72.61 570.22 75.18 578.69 78.28 586.63 80.19 590.13 79.21 591.91 83.63 605.43 95.55 605.43 97.31 604.1 96.74 599.7 95.55 603.25 103.71 604.48 104.94 609.43 105.99 610.48 105.62 609.43 103.2 613.09 99.2 612.17 99.15 610.34 99.29 609.43 99.2 609.5 98.85 610.08 97.67 610.77 96.76 611.18 97.31 611.18 95.55 610.53 94.68 609.43 91.75 611.18 91.75 615.33 93.89 621.05 94.39 626.16 92.82 628.39 88.69 631.2 85.93 636.73 85.8 640.49 88.81 638.11 95.55 642.86 98.24 647.44 98.7 658.51 96.85 659.47 96.92 661.04 97.31 662.98 98.54 667.01 102.39 669.72 103.2 679.39 103.2 681.65 103.8 682.89 105.11 683.78 106.42 684.54 106.77 Z" id="HTI-1387" data-name="Nord"/>
<path d="M 468.23 389.95 465.24 391.13 463.26 389.41 460.75 384.39 458.36 382.38 456.22 381.83 449.91 381.45 424.96 376.16 416.43 375.53 407.48 373.45 382.8 358.32 357.87 351.88 351.18 347.71 345.54 340.16 340.31 336.63 338.84 335.4 336.79 332.96 334.93 330.08 334.06 326.99 335.02 323.91 338.48 320.22 343.38 317.1 349.09 314.98 355.11 314.18 361.74 314.9 400.62 330.41 419.81 336.36 441.13 346.61 461.05 354.55 469.18 364.06 471.3 370.12 472.31 377.35 471.51 384.42 468.23 389.95 Z M 547.87 317.22 554.46 317.95 561.39 317.64 564.41 321.7 567.22 326.01 574.21 328.87 581.6 331.71 589.14 336.95 595.7 343.37 603.02 352.66 612.2 358.16 621.75 360.44 630.1 365.91 646.96 381.73 668.31 388.72 690.48 381.86 713.01 377.95 722.56 381.11 731.96 384.35 743.68 387.26 754.28 393.25 756.16 395.43 756.25 395.54 755.53 395.97 751.71 400.03 745.96 409.37 742.31 413.1 731.47 416.62 710.42 412.92 700.02 415.01 695.2 418.46 697.69 423.04 723.01 447.74 724.82 450.39 725.51 454.59 724.02 456.13 721.92 457.27 720.87 460.35 722.55 465.53 726.74 467.73 737.67 470.34 740.02 472.33 744.28 478.31 746.55 480.81 757.11 487.51 772.16 492.91 776.15 495.42 778.73 497.61 779.34 498.42 776.04 503.82 775.78 503.86 751.28 507.9 736.8 499.32 717.93 497.93 694.39 498.22 670.18 493 645.85 488.24 622 489.65 598.82 488.32 594.96 484.2 591.55 479.76 583.45 480.35 578.11 477.77 570.76 474.32 560.68 473.71 551.39 477.85 544.47 485.75 541.65 487.8 538.27 487.9 531.39 490.71 524.91 491.48 521.19 491.91 518.02 494.49 512.66 495.15 507.22 495.37 503.96 498.03 500.89 500.79 496.03 500.13 491.63 497.84 490.88 501.87 489.35 505.35 485.93 507.91 483.75 511.85 474.49 509.62 464.98 506.55 460.25 509.26 457.08 512.5 451.05 509.59 447.89 505.19 443.75 504.96 439.38 504.67 431.93 506.23 425.99 507 422.63 500.85 418.59 495.76 414.21 490.51 412.15 483.71 407.31 479.06 400.31 478.79 399.68 471.26 404.03 464.27 403.89 460.89 402.3 457.77 402.3 457.77 421.99 454.42 446.24 459.99 444.79 464.57 450.14 463.58 457.63 461.06 462.58 461.04 466.67 462.7 486.56 465.9 497.35 463.57 504.95 457.43 510.54 448.8 515.23 438.97 522.04 430.97 530.92 429.09 577.62 433.06 579.32 432.46 580.04 431.14 580.49 429.82 581.45 429.23 583.21 429.57 584.03 430.28 584.57 430.98 585.46 431.31 591.28 437.53 593.96 438.97 598.88 437.71 601.16 433.01 601.8 426.49 601.33 409.45 601.8 406.29 603.76 402.5 605.92 400.25 606.94 398.15 605.43 394.81 602.92 393.09 590.13 387.17 586.69 386.6 579.88 386.39 576.59 385.43 570.91 380.8 565.87 374.99 560.45 370.95 553.65 371.71 544.08 366.16 541.69 363.64 539.33 358.32 524.98 337.12 521.01 333.28 515.41 328.93 509.52 325.37 504.73 323.91 500.26 321.75 500.27 321.74 504.19 317.01 508.88 313.74 526.73 314.37 547.87 317.22 Z" fill-rule="evenodd" id="HTI-1388" data-name="Ouest"/>
<path d="M 776.04 503.82 775.87 504.09 763.43 524.46 761.22 529.72 760.44 535.23 760.86 537.88 763.87 545.9 764.53 549.03 764.35 553.69 764.97 561.83 763.96 566.67 760.61 575.14 756.03 572.17 736.46 547.9 727.92 540.55 718.09 534.67 696.06 527.48 686.95 522.95 677.86 519.62 666.96 519.6 644.6 523.18 615.48 522.91 574.67 523.43 552.7 527.23 547.07 524.41 543.69 523.2 542.19 524.29 544.08 535.07 541.44 537.82 538.17 537.88 530.52 535.07 526.24 534.33 493.31 537.21 486.56 536.8 487.12 538.09 487.93 541.25 488.47 542.53 484.31 542.25 482.65 541.81 480.67 540.45 472.92 545.21 457.47 543.76 449.91 546.53 442.55 542.48 432.66 538.78 422.06 536.11 415.71 535.43 416.02 534.06 415.14 529.18 414.47 524.28 413.92 518.13 413.9 511.98 417.49 504.06 418.59 495.76 422.63 500.85 425.99 507 431.93 506.23 439.38 504.67 443.75 504.96 447.89 505.19 451.05 509.59 457.08 512.5 460.25 509.26 464.98 506.55 474.49 509.62 483.75 511.85 485.93 507.91 489.35 505.35 490.88 501.87 491.63 497.84 496.03 500.13 500.89 500.79 503.96 498.03 507.22 495.37 512.66 495.15 518.02 494.49 521.19 491.91 524.91 491.48 531.39 490.71 538.27 487.9 541.65 487.8 544.47 485.75 551.39 477.85 560.68 473.71 570.76 474.32 578.11 477.77 583.45 480.35 591.55 479.76 594.96 484.2 598.82 488.32 622 489.65 645.85 488.24 670.18 493 694.39 498.22 717.93 497.93 736.8 499.32 751.28 507.9 775.78 503.86 776.04 503.82 Z" id="HTI-1389" data-name="Sud-Est"/>
</g>
</svg>