<?xml version="1.0"?>
<svg xmlns="http://www.w3.org/2000/svg" version="1.2" baseProfile="tiny" width="800" height="292" viewBox="0 0 800 292" stroke-linecap="round" stroke-linejoin="round">
<g id="ne_10m_admin_1_states_provinces">
<path d="M 342.75 143.3 346.49 147.47 347.3 148.62 345.4 150.05 320.7 162.19 318.95 162.25 316.7 161.5 314.86 161.31 313.04 160.94 313.38 160.08 310.49 157.08 307.58 155.16 305.19 154.64 301.49 150.62 295.92 150.63 291.1 151.46 286.83 155.47 285.03 158.73 280.11 163.83 275.68 163.6 273.78 164.88 273.21 167.27 268.48 168.04 263.63 170.48 258.7 173.99 247.84 184.03 246.17 188.88 246.71 198.53 245.01 197.72 242.52 196.54 240.62 195.63 239.4 195.06 238.97 194.85 237.47 194.14 236.94 193.97 236.48 193.94 234.9 194.26 233.72 194.5 232.55 194.74 231.37 194.98 230.2 195.22 229.06 195.46 227.93 195.7 226.81 195.93 225.68 196.17 223.23 196.7 220.79 197.22 218.35 197.75 215.91 198.28 214.08 198.69 212.24 199.11 210.41 199.53 208.58 199.94 206.75 200.36 204.92 200.77 203.09 201.19 201.25 201.61 200.85 201.7 200.85 201.69 200.84 201.6 197.6 186.23 196.27 183.67 195.27 182.31 194.85 181.07 194.41 180.1 192.81 178.43 192.33 176.39 177.14 172.44 173.18 169.87 170.75 167.4 169.05 164.46 167.44 162.81 167.52 159.99 168.91 153.17 168.67 150.88 166.97 146.01 165.01 144.48 165.06 142.35 164.37 139.98 163.46 137.89 163.98 135.45 164.42 135.02 164.53 133.96 163.59 131.77 161.84 131.67 160.95 131.2 160.31 130.49 159.24 130.36 158.44 130.74 157.59 131.65 156.6 133.4 149.35 132.25 149.74 131.59 149.52 130.63 149.55 128.77 148.99 126.6 147.54 124.22 146.1 125.57 145.31 125.27 145.19 124.69 142.93 123.92 141.57 123.11 141.52 121.08 142.45 118.88 142.35 117.67 143.35 117.5 144.16 116.39 145.14 115.79 147.51 115.34 148.07 114.65 149.07 114.61 151.45 114.74 153.67 114.01 153.73 113.19 154.54 112.49 155.76 111.77 156.81 110.8 157.07 109.72 157.99 108.51 158.21 107.72 158.72 106.56 158.15 105.82 157.23 105.42 156.23 104.24 156.45 102.18 155.6 100.18 156.89 99.27 157.22 98.28 158.61 96.81 158.71 96.79 159.51 96.58 160.6 95.98 161.16 95.4 161.11 94.78 160.44 93.36 160.43 92.95 160.67 92.22 160.66 91.81 160.56 91.69 160.26 91.47 160.2 91.32 160.26 91.15 160.57 90.81 160.69 90.64 160.42 89.87 159.36 89.48 158.23 89.27 157.78 89.04 158.03 88.86 158.4 88.74 158.62 88.55 158.21 87.81 158.38 87.57 158.75 87.44 160.42 87.1 160.89 87.09 161.35 87.18 161.76 87.32 162.53 87.78 163.81 88.18 164.19 88.43 164.78 88.93 165.42 89.35 168.42 89.9 168.72 90.33 168.69 91.1 169.13 91.61 173.46 94.18 173.92 94.38 174.28 94.45 174.64 94.43 175.62 94.25 176.13 94.25 176.63 94.34 177.08 94.56 177.37 94.86 177.53 95.18 177.73 95.44 178.63 95.68 178.94 95.87 179.54 96.43 180.38 96.82 181.05 96.65 182.43 95.71 185.7 94.54 188.57 93.02 188.98 92.56 189.71 90.2 189.91 89.74 190.12 89.48 190.44 89.42 192.07 89.89 192.66 89.98 193.19 89.91 193.59 89.67 193.74 89.37 193.87 88.65 194.16 88.46 195.15 88.37 195.47 88.1 195.46 87.84 195.24 87.27 195.25 86.98 195.44 86.75 195.75 86.53 196.37 86.21 196.95 86.34 198.68 87.95 199.07 88.06 200.47 88.24 200.85 88.22 200.89 88 200.76 87.67 200.36 87.04 200.32 86.67 200.6 86.4 201.02 86.22 201.4 86.12 201.88 86.07 202.19 86.15 202.92 86.52 203.41 86.63 203.93 86.63 204.44 86.53 204.92 86.38 205.41 86.3 207.06 86.41 207.98 86.28 209.26 85.76 209.58 85.69 209.85 85.81 210.1 86.2 210.27 86.96 210.42 87.3 210.74 87.44 211.2 87.45 211.57 87.52 211.9 87.69 212.2 88 212.38 88.32 212.62 89.02 212.79 89.33 213.09 89.64 213.45 89.87 214.73 90.33 215.22 90.42 215.7 90.4 216.16 90.24 216.51 89.96 216.72 89.66 216.97 89.4 217.42 89.23 218.21 89.28 220.03 89.66 220.68 89.42 220.97 88.84 220.98 88.21 220.79 86.91 220.91 86.19 221.27 85.73 221.58 85.3 222.12 85.23 223.01 85.57 223.32 85.62 224.39 85.62 224.64 85.69 224.81 85.8 225.13 86.09 225.32 86.12 225.87 85.93 226.13 85.88 227.61 85.72 227.74 85.75 227.83 85.84 227.85 85.97 227.85 86.08 227.88 86.15 228.32 86.36 228.85 86.53 229.38 86.56 229.82 86.36 230.05 86.01 230.23 85.59 230.47 85.23 230.89 85.08 231.34 85.01 232.13 84.71 232.42 84.86 233.01 85.25 233.25 85.51 233.31 85.78 233.35 86.04 233.48 86.26 233.88 86.39 236.27 86.43 237.11 86.68 237.72 87.18 237.87 88 237.75 88.37 237.54 88.66 237.25 88.89 236.93 89.1 236.78 89.36 236.85 89.72 237.04 90.08 237.26 90.3 237.64 90.35 238.62 90.31 238.82 90.5 238.68 91.26 238.73 91.52 239.08 91.74 239.58 91.77 240.16 91.67 240.71 91.64 241.11 91.88 241.44 92.53 241.61 92.76 241.96 93 243.43 93.72 244.19 93.93 249.49 94.23 249.92 94.31 250.24 94.58 250.46 94.87 250.7 95.05 250.98 95.14 251.32 95.15 253.19 94.86 254.19 94.84 254.98 95.17 255.37 95.46 256.4 95.73 256.64 95.85 256.59 96.36 256.1 96.5 254.98 96.38 254.46 96.68 254.44 96.97 254.75 97.26 255.85 97.9 256.48 97.71 257.12 97.29 257.79 96.94 258.79 96.83 259.81 96.87 260.77 96.75 261.57 96.18 262.42 95.01 262.67 94.75 263.3 94.28 263.52 94.01 263.6 93.68 263.49 92.99 263.51 92.6 263.62 92.27 264.43 90.97 264.57 90.82 264.75 90.69 265.59 90.49 266.8 90.43 267.84 90.68 268.15 91.39 268.2 92.11 268.63 92.68 269.27 93.11 269.97 93.46 271.04 93.8 279.21 94.42 281.16 94.22 286.57 93.06 291.98 91.89 292.6 91.49 293.05 90.9 293.34 90.08 293.63 88.32 293.8 87.78 294.74 84.52 295.15 83.61 295.8 83.07 296.65 82.77 297.68 82.59 297.34 82.5 297.35 82.5 297.82 82.49 300.61 82.38 301.77 81.86 302.77 82.96 302.98 84.01 303.46 85.12 304.84 86.37 307.26 85.48 309.99 86.86 309.34 87.41 308.92 88.7 311.58 90.56 310.19 92.44 310.38 93.58 311.06 94.03 312.96 93.99 314.69 98.6 317.78 102.83 321.63 106.7 322.09 109.18 320.26 109.63 318.2 108.97 316.18 110.01 315.15 112.04 313.23 113.29 312.31 114.97 313.1 116.54 310.53 116.47 309.7 117.17 309.98 118.04 313.72 122.26 311.75 122.42 309.67 123.08 311.54 123.45 312.98 125.72 317.23 129.09 320.2 129.62 321.95 128.99 324.39 129.39 324.87 130.83 324.37 132.73 336.71 137.07 342.75 143.3 Z" id="KAZ-3195" data-name="Aqtöbe"/>
<path d="M 384.31 16.58 384.32 16.63 386.86 23.22 384.59 23.83 385.79 24.82 388.12 25.43 389.66 27.03 384.89 28.33 382.78 29.15 383.24 30.84 384.25 32.72 385.55 32.86 386.91 34.03 386.53 36.06 384.74 37.24 385.5 38.89 388.02 39.2 388.68 41.48 388.74 43.56 389.85 44.8 391.66 45.85 389.85 46.64 385.59 47.01 384.46 48.38 384.73 49.09 385.39 49.57 385.95 50.5 385.93 51.41 385.71 52.88 384.19 53.89 383.56 56.95 383.43 60.24 383.12 64.62 381.55 65.76 380.47 67.59 379.67 70.17 376.69 72.21 372.9 72.97 371.53 72.89 371.26 74.08 374.39 75.43 375.45 76.76 375.07 78.83 374.66 79.58 374.42 80.34 374.97 80.74 374.47 81.17 373.59 81.66 372.69 82.52 373.43 83.2 373.27 84.4 376.7 88.15 376.94 91.67 379.46 91.54 381.24 89.89 383.57 89.64 385.42 90.5 385.83 91.72 386.58 92.11 388.52 92.07 389.85 93.31 391.72 94.2 398.71 95.71 404.37 95.1 406.49 96.18 406.48 97.75 405.61 98.73 406.53 99.67 408.46 100.68 410.94 99.77 413.63 99.08 418.7 98.62 421.91 98 423.36 97.3 424 97.56 424.82 98.26 426.8 99.13 425.58 100.7 423.6 102.01 417.86 103.14 416.7 103.48 416.69 104.18 416.94 104.57 416.76 104.8 416.59 105.05 416.94 105.59 416.82 106.59 412.19 110.42 399.44 118.07 397.72 119.63 395.48 120.23 394.51 122.14 392.29 122.6 385.5 126.67 381.66 127.01 379.04 127.93 377.22 129.41 373.1 129.98 364.25 129.12 357.81 129.83 355.53 133.42 353.21 133.48 353.35 134.03 353.16 135.07 354.01 136.44 351.75 136.93 347.56 138.39 347.41 140.41 342.75 143.3 336.71 137.07 324.37 132.73 324.87 130.83 324.39 129.39 321.95 128.99 320.2 129.62 317.23 129.09 312.98 125.72 311.54 123.45 309.67 123.08 311.75 122.42 313.72 122.26 309.98 118.04 309.7 117.17 310.53 116.47 313.1 116.54 312.31 114.97 313.23 113.29 315.15 112.04 316.18 110.01 318.2 108.97 320.26 109.63 322.09 109.18 321.63 106.7 317.78 102.83 314.69 98.6 312.96 93.99 311.06 94.03 310.38 93.58 310.19 92.44 311.58 90.56 308.92 88.7 309.34 87.41 309.99 86.86 307.26 85.48 304.84 86.37 303.46 85.12 302.98 84.01 302.77 82.96 301.77 81.86 300.61 82.38 297.82 82.49 297.35 82.5 297.34 82.5 296.3 82.21 295.71 81.86 295.24 81.32 294.45 79.81 294.05 79.41 293.97 79.32 293.26 79.19 292.4 78.85 291.67 78.66 291.4 78.68 290.93 78.78 290.67 78.79 290.41 78.75 289.74 78.51 289.26 78.44 287.92 78.51 287.48 78.47 286.7 78.3 286.3 78.26 285.66 78.28 285.45 78.26 285.29 78.21 285.17 78.15 285.08 78.09 285.01 78.02 284.92 77.94 284.79 77.86 284.14 77.56 283.91 77.38 283.63 77 283.49 76.76 283.43 76.58 283.41 75.95 283.49 75.7 283.17 75.69 275.24 75.57 275.06 75.53 274.94 75.39 274.91 75.19 274.85 75.01 274.64 74.92 272.52 74.69 272.11 74.52 272.13 74.11 272.43 73.86 273.35 73.58 273.72 73.41 273.79 73.25 273.77 72.91 273.88 72.79 274.27 72.61 274.46 72.47 274.55 72.32 274.01 71.9 270.54 71.37 268.53 70.44 267.87 70.27 267.65 70.46 267.48 70.77 266.98 70.94 266.36 70.86 265.96 70.62 265.07 69.35 264.9 69.03 264.93 68.71 265.24 68.25 265.24 68.25 265.76 68.25 269.14 68.24 271.97 66.35 273.49 65.57 275.07 65.14 276.16 65.16 277.25 65.31 278.31 65.28 279.3 64.79 280.08 63.99 280.44 63.79 282.3 63.3 282.69 63.13 283.68 62.44 284.04 62.25 284.88 61.95 285.49 61.56 284.28 60.53 283.96 60.25 283.85 59.9 283.76 59.09 283.63 58.74 283.47 58.56 283.23 58.45 281.42 58.08 281.1 57.9 281 57.58 281.09 56.65 281.07 56.27 280.97 55.96 280.87 55.84 280.67 55.82 279.66 55.88 279.33 55.87 279.08 55.75 278.97 55.59 278.93 55.46 278.84 55.35 278.59 55.24 278.4 55.14 278.32 54.97 278.31 54.76 278.33 54.54 278.78 53.74 279.61 53.43 280.56 53.29 281.37 53.03 281.64 52.78 282.11 52.23 282.46 51.98 285.85 50.08 284.23 49.14 284.22 49.13 284.23 49.12 285.74 49.11 286.44 48.99 287.1 48.71 287.1 48.71 287.11 48.71 287.11 48.71 287.75 48.37 288.43 48.31 289.11 48.44 289.77 48.71 290.33 48.85 290.93 48.91 291.54 48.86 292.07 48.71 293 48.22 293.47 48.15 294.05 48.32 294.77 48.71 295.93 49.43 296.54 49.57 297.15 49.34 297.53 49.13 297.91 49.08 298.74 49.15 300.73 48.99 301.45 49.15 302.74 49.77 303.45 49.84 304.93 49.49 305.67 49.16 306.09 48.71 306.09 48.71 306.47 47.75 306.52 47.3 306.36 46.83 305.87 46.35 305.24 46.13 301.03 45.61 299.64 45.25 298.49 44.59 297.69 43.9 297.28 43.81 295.4 44.43 294.76 44.49 294.05 44.36 292.13 43.45 291.45 43.29 289.59 43.29 288.68 43.16 287.89 42.72 287.5 42.25 287.32 41.76 287.39 41.27 287.76 40.81 288.64 40.04 288.81 39.78 288.9 39.54 288.97 38.94 289.31 38.74 289.81 38.67 290.33 38.73 290.71 38.94 291.13 39.37 291.62 39.78 292.17 40.04 292.77 40.05 293.26 39.84 294.25 39.2 294.77 38.94 295.56 38.68 295.03 37.4 294.81 37.12 294.54 37.06 292.34 37.07 291.77 37.18 290.89 37.91 290.2 37.97 287.45 37.57 287.08 37.43 286.95 37.31 286.73 36.99 286.59 36.86 285.62 36.68 282.9 36.58 282.37 36.2 282.85 35.73 284.86 36.14 285.55 35.78 285.59 35.54 285.57 35.29 285.59 35.06 285.73 34.82 286.04 34.71 286.8 34.65 286.97 34.43 287.2 33.97 287.68 33.61 288.2 33.31 288.6 32.99 288.66 32.55 288.17 32.29 287.49 32.12 286.96 31.91 286.57 31.56 286.37 31.46 285.99 31.4 284.7 31.38 284.28 31.32 284.15 31.12 284.11 30.9 284.16 30.67 284.28 30.46 284.64 30.17 285.05 30.02 285.96 29.9 286.59 29.88 287.55 30 287.68 30.09 287.75 30.23 287.9 30.42 288.15 30.66 288.48 30.84 288.83 30.83 289.15 30.47 289.21 30.14 289.11 29.8 288.71 29.17 288.64 29.06 288.49 28.67 289.59 28.62 290.08 28.47 290.44 28.13 290.8 27.86 291.31 27.79 292.87 27.93 293.17 28.1 293.74 28.81 294.06 28.97 295.51 29.17 295.58 29.79 295.73 29.97 296.08 30.05 296.44 30 296.65 29.82 296.75 29.53 296.82 29.17 298.69 29.17 298.95 29.31 299.21 29.39 299.46 29.35 299.89 29.03 300.17 29.01 300.47 29.08 300.74 29.17 300.89 29.55 300.93 29.8 301.05 29.98 301.44 30.15 302.13 30.27 304.32 30.36 304.31 29.18 304.3 29.06 304.3 28.69 312.31 28.51 312.72 28.55 312.96 28.74 312.92 29.18 312.92 29.18 312.05 29.53 311.8 29.78 311.87 30.17 312.22 30.5 313.17 30.8 313.58 31.08 313.77 31.25 314 31.41 314.24 31.52 314.51 31.53 314.82 31.44 314.9 31.3 314.73 30.69 314.64 30.54 314.64 30.39 314.87 30.14 315.71 29.62 315.37 29.26 315.25 29.17 315.01 28.5 315.6 27.98 316.54 27.64 317.34 27.51 319.04 27.44 320.11 27.17 320.49 27.22 321.35 27.47 321.88 27.49 323.5 27.21 325.44 27.35 325.98 27.2 326.28 26.87 326.23 26.59 326.05 26.3 325.94 25.94 326.2 25.63 326.85 25.51 328.01 25.54 330.21 25.84 330.26 25.85 330.98 25.85 331.54 25.69 332.57 25.2 333.12 25.04 334.43 24.99 337.63 24.13 338.32 24.17 338.9 24.34 340.51 25.08 341.05 25.17 341.32 25.23 341.53 24.97 342.16 24.82 342.87 24.75 343.48 24.56 343.82 24.04 343.2 23.55 342.91 23.23 342.94 23.09 343.09 23.01 343.24 22.86 343.41 22.78 343.78 23.02 344.01 23.09 344.26 23.11 344.49 23.09 344.65 23.02 344.97 22.77 345.15 22.69 345.43 22.68 346.29 22.83 346.77 22.77 347.72 22.49 348.32 22.41 348.72 22.3 348.84 22.23 349.07 22.12 349.35 22.15 349.84 22.29 351.77 22.16 352.01 22.1 352.2 21.96 352.34 21.82 352.45 21.76 352.68 21.78 353.09 21.87 353.31 21.89 353.8 21.83 354.62 21.49 354.88 21.63 356.07 22.25 356.69 22.46 357.39 22.5 358.65 22.13 359.87 21.53 361.11 21.16 362.42 21.47 363.97 22.7 364.26 22.88 364.53 23 364.82 23.06 365.15 23.04 365.29 22.99 365.53 22.85 365.67 22.82 366.25 22.97 366.46 22.96 367.02 22.32 366.4 20.25 366.81 19.79 366.76 19.5 366.73 19.41 366.73 18.94 367.05 18.71 369.53 18.06 370.1 18.04 371.21 18.23 371.63 18.15 371.77 17.74 371.55 17.03 371.65 16.77 372.19 16.67 374.09 16.81 376.79 17.36 377.39 17.29 377.91 16.96 378.46 16.36 379.02 15.88 379.65 15.63 381.08 15.3 381.46 15.47 381.63 16.76 381.96 17.08 384.31 16.58 Z" id="KAZ-3196" data-name="Qostanay"/>
<path d="M 320.7 162.19 317.33 163.99 316.99 164.85 322.82 164.22 327.88 166.54 330.63 166.81 335.52 168.4 338.1 168.57 339.18 168.35 339.78 168.71 363.12 175.21 364.81 175.33 369.55 178.27 373.67 179.64 401.52 184.23 404.8 184.09 406.78 184.21 407.32 186.15 407.58 188.04 409.68 189.22 410.45 191.22 408.95 192.97 407.69 197.61 407.64 199.91 409.44 201 412.02 202.12 413.53 203.46 413.8 218.33 415.66 219.36 416.48 219.22 417.67 219.61 418.81 220.22 419.01 220.81 420.85 222.44 425.42 224.92 425.43 226.19 423.65 226.2 422.35 227.34 422.84 228.09 423.04 229.42 422.27 230.95 420.27 230.12 420.14 232.12 418.75 233.93 418.25 235.68 416.55 236.85 416.85 238.75 417.43 237.13 418.14 236.89 418.12 237.61 418.87 237.65 419 239.02 420.36 239.86 420.91 240.11 419.99 240.8 410.42 244.22 400.95 248.83 396.78 251.57 395.05 251.07 392.1 252.17 386 256.58 384.48 256.4 382.65 256.19 382.66 255.6 382.72 255.46 382.78 255.33 383.01 255.26 383.24 255.19 383.34 255.03 383.44 254.86 383.48 254.34 383.53 253.83 383.95 248.98 384.37 244.12 381.56 245.24 378.74 246.36 378.57 246.35 378.4 246.33 377.14 244.44 375.68 242.23 374.62 240.63 372.96 238.13 372.57 237.88 372.19 237.63 370.18 236.71 368.16 235.79 367.19 235.04 366.22 234.29 364.11 232.3 362.01 230.31 361.68 230.1 361.35 229.88 361.04 229.85 360.73 229.81 360.38 229.91 360.03 230.01 358.12 230.77 356.18 231.56 354.3 232.31 352.34 233.1 352 233.18 351.66 233.25 350.58 233.18 347.88 233 345.17 232.82 342.46 232.64 339.75 232.46 336.78 232.26 333.8 232.07 330.83 231.87 327.85 231.68 326.06 231.89 324.28 232.1 322.5 232.31 320.72 232.52 318.93 232.73 317.15 232.94 315.36 233.15 313.58 233.36 312.48 233.51 311.38 233.66 310.27 233.81 309.17 233.95 308.48 234.05 307.79 234.14 307.1 234.23 306.42 234.32 304.8 234.54 304.76 234.54 304.36 234.42 303.97 234.3 302.5 233.08 301.41 232.16 300.31 231.24 299.21 230.33 298.11 229.41 296.99 228.47 295.87 227.54 294.74 226.6 293.62 225.66 292.25 224.53 291.18 223.69 290.11 222.86 287.87 221.11 286.72 219.79 286.53 219.33 286.4 218.32 286.28 217.84 285.93 217.32 285.42 216.92 284.2 216.34 282.49 215.52 280.16 214.42 277.31 213.06 274.04 211.51 270.47 209.81 266.67 208.01 262.76 206.15 258.84 204.29 255 202.47 251.35 200.73 247.99 199.13 246.71 198.53 246.17 188.88 247.84 184.03 258.7 173.99 263.63 170.48 268.48 168.04 273.21 167.27 273.78 164.88 275.68 163.6 280.11 163.83 285.03 158.73 286.83 155.47 291.1 151.46 295.92 150.63 301.49 150.62 305.19 154.64 307.58 155.16 310.49 157.08 313.38 160.08 313.04 160.94 314.86 161.31 316.7 161.5 318.95 162.25 320.7 162.19 Z M 331.29 193.81 332.45 193.76 333.58 193.64 334.68 193.44 335.72 193.17 336.72 192.83 337.66 192.43 338.53 191.97 339.34 191.45 340.08 190.87 340.73 190.25 341.3 189.59 341.78 188.88 342.17 188.14 342.45 187.37 342.62 186.57 342.68 185.75 342.62 184.92 342.45 184.12 342.17 183.35 341.78 182.61 341.3 181.9 340.73 181.24 340.08 180.62 339.34 180.05 338.53 179.53 337.66 179.06 336.72 178.66 335.72 178.32 334.68 178.05 333.58 177.85 332.45 177.73 331.29 177.69 330.12 177.73 328.99 177.85 327.9 178.05 326.85 178.32 325.86 178.66 324.92 179.06 324.04 179.53 323.23 180.05 322.49 180.62 321.84 181.24 321.27 181.9 320.79 182.61 320.4 183.35 320.12 184.12 319.95 184.92 319.89 185.75 319.95 186.57 320.12 187.37 320.4 188.14 320.79 188.88 321.27 189.59 321.84 190.25 322.49 190.87 323.23 191.45 324.04 191.97 324.92 192.43 325.86 192.83 326.85 193.17 327.9 193.44 328.99 193.64 330.12 193.76 331.29 193.81 Z" fill-rule="evenodd" id="KAZ-3197" data-name="Qyzylorda"/>
<path d="M 66.32 181.07 65.99 181.21 65.54 180.94 65.25 180.48 64.35 178.72 64.33 178.35 64.92 178.34 65.74 178.7 66.13 178.94 66.33 179.19 66.65 179.74 66.7 180.19 66.32 181.07 Z M 196.27 183.67 194.13 182.97 193.14 182.99 191.65 182.58 189.62 182.68 188.49 182.13 187.81 181.28 185.9 181.44 183.74 180.73 183.64 178.84 182.03 177.75 180.68 178.33 176.81 175.94 172.31 178.56 165.6 178.8 150.29 180.99 149.63 181.37 148.51 181.31 146.96 181.66 143.82 184.57 141.98 185.88 143.22 186.86 138.89 188.73 129.18 190.43 125.72 189.87 125.72 189.87 125.98 189.64 126.19 189.55 126.67 189.42 126.85 189.31 127.52 188.64 127.78 188.3 128.15 187.55 128.46 187.16 129.03 186.74 129.2 186.56 129.29 186.4 129.47 185.96 129.6 185.75 130.01 185.22 130.11 184.92 130.01 184.56 130.01 184.69 129.92 184.39 130.02 184.14 130.47 183.68 130.64 183.41 130.73 183.09 130.91 181.74 131.48 180 131.48 178.65 130.92 177.63 130.03 176.83 129.05 176.12 129.46 176.17 130.04 176.53 130.41 176.66 130.41 176.51 130.06 176.33 129.89 176.03 129.88 175.67 130.01 175.31 129.65 175.44 129.21 175.75 128.76 175.97 128.38 175.86 128.35 175.46 128.6 174.94 129.2 174.11 129.23 174.47 129.47 174.66 129.82 174.68 130.13 174.51 130.29 174.22 130.37 173.5 130.53 173.18 130.71 173.57 130.87 173.47 131.03 173.16 131.2 172.91 131.39 172.86 131.83 172.92 132.01 172.91 132.24 172.82 132.33 172.76 132.41 172.51 132.47 171.74 132.09 171.3 131.48 171.08 130.87 171.03 130.48 170.92 130.36 170.65 130.41 170.02 130.05 168.65 129.68 168.14 129.6 167.89 129.43 167.77 128.59 167.84 128.26 167.83 127.91 167.58 127.16 166.78 126.85 166.62 125.97 166.63 124.17 166.88 123.09 166.76 120.89 166.76 120.41 166.68 120.04 166.52 119.37 166 119.03 165.9 117.79 165.76 117.41 165.8 117.23 165.98 117.15 166.19 117.14 166.69 117.07 166.88 116.19 167.67 115.86 167.86 114 168.32 113.47 168.35 112.82 168.02 112.57 168.06 112.41 168.22 112.45 168.48 112.58 168.55 113.09 168.68 113.26 168.75 113.38 168.87 113.51 169.06 113.62 169.28 113.66 169.5 113.55 169.56 111.08 169.44 110.6 169.28 110.4 169.19 110.28 169.11 110.21 168.96 110.19 168.69 110.09 168.72 109.85 168.58 109.22 168.12 109.02 168.03 108.88 167.92 108.84 167.68 108.95 167.55 109.16 167.4 109.32 167.23 109.25 167.02 108.86 166.94 108.51 167.28 108.11 168.02 107.73 168.13 107.11 168.11 106.47 167.99 106.02 167.83 106.64 167.26 106.84 167.14 106.42 167.04 105.94 167.19 105.09 167.56 104.68 167.56 104.26 167.43 103.87 167.22 103.56 166.95 102.81 166.54 102.54 166.2 102.94 165.37 102.9 164.97 102.63 164.67 102.14 164.62 101.76 164.83 101.59 165.21 101.48 165.64 101.28 166 100.91 166.04 100.52 165.69 100.01 165 99.64 164.75 99.16 164.59 97.9 164.43 96.8 164.15 94.3 163.77 93.49 163.42 92.99 163.5 92.11 163.94 91.35 164.21 88.77 164.62 88.4 164.77 87.83 165.3 87.49 165.42 87.21 165.35 86.77 165.07 86.56 165 86.34 165.07 86.23 165.21 86.21 165.35 86.29 165.42 86.18 165.59 84.61 167.44 84.27 167.62 84.08 167.28 84.14 167.06 84.52 166.66 84.61 166.41 84.5 166.28 84.25 166.39 83.55 166.91 83.05 167.1 82.53 167.19 82.13 167.08 81.84 167.04 81.73 167.44 81.66 168.36 81.5 168.67 81.24 168.97 80.92 169.13 80.58 169.02 80.94 168.67 81.15 168.37 81.1 168.16 80.66 168.08 79.99 168.23 79.85 168.29 79.63 168.45 79.45 168.41 79.3 168.29 78.66 167.9 78.46 167.83 78.3 167.8 78.21 167.8 78.11 167.88 77.93 168.08 77.3 169.35 76.98 169.56 77.07 169.32 77.12 168.63 76.85 168.78 76.7 169.01 76.59 169.25 76.45 169.43 76.31 169.48 75.94 169.51 75.78 169.56 75.64 169.66 75.55 169.73 74.72 170.82 74.32 171.14 73.97 171.1 73.97 170.91 74.1 170.67 74.16 170.45 73.97 170.36 73.72 170.41 73.1 170.69 71.35 171.96 70.8 172.63 70.47 172.91 70.08 173.03 69.35 172.97 69.07 173.03 68.88 173.14 68.58 173.45 68.41 173.58 67.72 173.78 67.51 174.07 67.23 174.08 66.67 173.98 66.39 174.16 66.35 174.51 66.24 174.76 65.74 174.63 65.5 174.35 65.34 174.24 65.13 174.32 65.13 174.74 65.07 174.94 64.87 174.84 64.47 174.49 64.21 174.35 63.99 174.38 63.96 174.53 64.03 175.02 63.99 175.18 62.73 174.04 62.43 173.94 62.37 174.31 62.51 175.18 62.15 175.03 61.94 175.14 61.79 175.37 61.58 175.58 61.42 175.13 61.17 174.88 60 174.52 59.66 174.37 59.44 174.12 59.43 173.71 59.43 174.33 59.5 174.64 59.77 174.88 59.97 175.38 60.12 175.58 59.9 175.56 59.56 175.46 59.36 175.43 59.19 175.37 59.21 175.22 59.29 175.04 59.3 174.91 59.22 174.84 58.83 174.57 58.65 174.48 58.54 174.57 58.5 174.7 58.5 174.78 57.88 174.69 57.18 174.51 56.58 174.22 56.23 173.84 56.38 174.34 57.66 175.36 57.97 175.98 57.58 175.87 56.86 175.84 56.78 175.86 56.5 175.61 56.32 175.31 56.09 175.09 55.7 175.06 55.7 175.18 56.02 175.4 56.08 175.81 56.2 176.21 56.7 176.39 57.43 176.92 57.51 177.1 57.55 177.31 57.52 177.52 57.43 177.72 56.63 177.31 56.25 177.04 55.97 176.78 55.7 176.46 55.47 176.26 55.16 176.15 54.63 176.12 54.85 176.24 55.02 176.36 55.13 176.55 55.17 176.85 55.26 177.04 55.97 177.58 55.89 177.61 55.7 177.72 55.42 177.58 53.88 177.24 53.66 177.24 53.55 177.32 53.6 177.53 53.75 177.65 53.96 177.71 54.16 177.72 54.48 177.89 54.61 178.26 54.64 178.64 54.69 178.8 54.7 178.92 54.7 178.92 50.91 177.41 49.48 176.62 48.66 176.06 48.26 175.9 47.7 175.9 47.22 175.97 46.74 175.96 45.55 175.3 45.05 174.89 44.5 174.57 43.73 174.44 41.93 174.42 41.27 174.23 41.73 173.77 41.41 173.62 41.32 173.34 41.27 173.05 41.09 172.85 40.37 172.56 39.99 172.44 39.62 172.41 40.09 171.97 40.61 171.01 41.61 170.44 42.81 170.27 43.95 170.51 44.35 170.77 44.65 171.08 45.18 171.83 45.66 171.98 48.64 171.6 49.25 171.26 50.39 170.3 44.35 163.81 41.4 158.57 41.2 158.1 40.99 157.77 40.7 157.63 39.97 157.57 39.28 157.4 38.76 157.08 37.78 156.16 37.77 156.15 34.14 151.86 32.93 151.16 31.6 150.75 23.89 150.83 19.7 149.48 19.25 149.46 18.89 149.63 18.79 149.92 18.8 151.1 18.67 152.01 18.5 152.39 18.22 152.44 14.6 150.73 13.94 150.3 13.61 150 13.53 149.77 13.64 149.53 13.89 149.19 14.03 149.07 14.16 149 14.26 148.92 14.29 148.76 14.23 148.64 13.57 147.9 12.19 146.74 12.06 146.52 12.33 146.36 13.87 145.72 14.67 145.24 14.94 144.85 14.59 144.6 13.53 144.52 13.22 144.27 13.23 143.92 13.37 143.59 13.47 143.24 13.32 142.85 13.2 142.73 12.76 142.42 12.66 142.24 12.79 142.11 12.99 142 13.12 141.9 13.38 141.53 13.38 141.52 48.46 145.07 58.71 147.46 59.19 145.98 68.06 145.45 83.99 138.02 85.43 137.76 86.39 137.18 87.41 136.86 88.33 136.83 90.23 135.14 92.38 133.94 94.4 133.82 96.57 133.3 104.09 133.92 105.56 134.24 105.78 134.85 105.19 136.39 108.26 137.17 109.83 137.41 111.57 137.44 112.31 136.81 119.14 138.32 120.39 137.92 120.4 137.06 121.03 134.76 123.94 131.74 123.8 129.41 126.72 127 127.83 127.22 134.76 127.2 136.89 126.81 137.51 126.54 137.27 125.97 137.79 125.51 141.57 123.11 142.93 123.92 145.19 124.69 145.31 125.27 146.1 125.57 147.54 124.22 148.99 126.6 149.55 128.77 149.52 130.63 149.74 131.59 149.35 132.25 156.6 133.4 157.59 131.65 158.44 130.74 159.24 130.36 160.31 130.49 160.95 131.2 161.84 131.67 163.59 131.77 164.53 133.96 164.42 135.02 163.98 135.45 163.46 137.89 164.37 139.98 165.06 142.35 165.01 144.48 166.97 146.01 168.67 150.88 168.91 153.17 167.52 159.99 167.44 162.81 169.05 164.46 170.75 167.4 173.18 169.87 177.14 172.44 192.33 176.39 192.81 178.43 194.41 180.1 194.85 181.07 195.27 182.31 196.27 183.67 Z" fill-rule="evenodd" id="KAZ-3198" data-name="Atyrau"/>
<path d="M 158.61 96.81 157.22 98.28 156.89 99.27 155.6 100.18 156.45 102.18 156.23 104.24 157.23 105.42 158.15 105.82 158.72 106.56 158.21 107.72 157.99 108.51 157.07 109.72 156.81 110.8 155.76 111.77 154.54 112.49 153.73 113.19 153.67 114.01 151.45 114.74 149.07 114.61 148.07 114.65 147.51 115.34 145.14 115.79 144.16 116.39 143.35 117.5 142.35 117.67 142.45 118.88 141.52 121.08 141.57 123.11 137.79 125.51 137.27 125.97 137.51 126.54 136.89 126.81 134.76 127.2 127.83 127.22 126.72 127 123.8 129.41 123.94 131.74 121.03 134.76 120.4 137.06 120.39 137.92 119.14 138.32 112.31 136.81 111.57 137.44 109.83 137.41 108.26 137.17 105.19 136.39 105.78 134.85 105.56 134.24 104.09 133.92 96.57 133.3 94.4 133.82 92.38 133.94 90.23 135.14 88.33 136.83 87.41 136.86 86.39 137.18 85.43 137.76 83.99 138.02 68.06 145.45 59.19 145.98 58.71 147.46 48.46 145.07 13.38 141.52 13.38 141.35 13.13 141.06 12.72 140.87 10.79 140.51 5.9 139.37 1.02 138.23 1.01 138.23 1 138.23 1.01 138.22 1.02 138.2 3.77 133.17 6.38 128.39 6.86 127.96 7.54 127.62 9.01 127.09 9.45 126.85 9.83 126.63 10.79 125.79 11.6 124.82 11.97 123.77 11.75 122.78 10.79 121.94 7.89 120.49 6.8 120.22 8.02 115.45 9.24 110.69 9.68 109.88 10.38 109.44 14.66 108.21 15.99 107.32 17.22 106.3 17.61 105.75 17.59 105.04 16.53 104.08 16.37 103.53 16.59 103.27 17.3 102.83 17.49 102.54 17.39 102.23 17.12 102.03 16.95 101.79 17.16 101.41 17.5 101.23 18.86 100.86 19.13 100.64 19.68 99.82 19.77 99.69 20.37 99.13 21.19 98.64 22.07 98.33 22.9 98.33 23.4 98.56 24.67 99.63 25.55 99.95 25.83 100.14 26.05 100.39 26.18 100.59 26.36 100.73 26.74 100.83 26.98 100.92 27.89 101.61 28.27 101.97 29.04 102.41 29.82 103.17 30.6 103.62 30.74 103.86 30.83 104.13 30.97 104.4 31.21 104.61 32.19 105.12 32.61 105.64 32.8 106.19 32.93 106.75 33.18 107.31 33.31 107.49 33.51 107.88 33.65 108.06 33.87 108.22 34.65 108.64 35.03 109.1 35.17 109.53 35.41 109.82 36.08 109.85 36.65 109.78 36.83 109.84 37.75 110.42 38.89 110.85 39.13 110.89 39.38 110.79 39.83 110.38 40.09 110.24 44.08 109.22 46.06 108.48 47.57 107.31 47.89 106.98 48.03 106.79 48.04 106.58 47.81 105.81 47.64 105.49 47.37 105.27 46.02 105 45.99 104.49 46.15 103.79 45.79 103.05 44.97 101.99 44.43 100.64 43.91 97.83 43.99 96.46 43.89 95.85 43.4 95.42 42.4 95.3 41.92 95.12 41.83 94.74 42.14 94.48 42.62 94.52 45.18 95.5 46.09 95.64 46.95 95.53 50.52 93.82 52.27 92.37 53.08 91.9 55.81 91.47 57.48 91.02 58.25 90.6 58.55 89.94 58.19 89.33 57.53 88.82 57.05 88.34 57.28 87.78 57.76 87.26 57.94 86.97 58.1 86.33 58.29 85.97 58.53 85.65 58.8 85.44 59.26 85.37 60.81 85.67 65.49 85.64 65.82 85.5 66.73 84.69 69.55 83.15 70.37 82.89 73.86 82.44 76.16 81.71 76.49 81.53 76.62 81.34 76.59 81.09 76.45 80.74 76.4 80.37 76.58 80.19 76.87 80.07 77.15 79.88 77.09 79.8 76.92 79.69 76.83 79.56 76.98 79.45 77.22 79.41 78.39 79.37 78.74 79.3 79.01 79.12 79.16 78.77 79.62 78.73 79.93 78.66 80.1 78.45 80.19 78.01 80.01 76.88 80.07 76.59 80.41 76.36 80.78 76.29 81.05 76.14 81.09 75.65 81.17 75.23 81.52 75.24 82.29 75.6 83.2 75.61 83.37 75.7 82.99 76.03 82.67 76.38 82.91 76.55 83.41 76.59 83.87 76.55 84.74 76.33 85.25 75.97 85.33 75.41 84.41 73.79 84.34 73.13 84.79 72.8 85.84 72.94 86.2 73.07 86.56 73.27 86.87 73.53 87.08 73.85 87.4 74.21 87.88 74.36 92.66 74.56 93.06 74.47 93.49 74.32 93.91 74.25 94.26 74.38 94.74 74.91 94.98 75.08 95.37 75.19 96.23 75.21 96.61 75.34 96.8 75.72 96.79 76.17 96.63 76.47 96.35 76.67 95.97 76.79 94.06 77.02 93.96 77.17 94.18 77.46 94.5 77.77 94.68 78.01 94.68 78.01 95.28 78.42 96.75 78.51 98.36 78.35 99.4 78.01 99.74 77.71 99.98 77.4 100.28 77.19 100.76 77.19 101.26 77.33 101.46 77.5 101.51 77.79 101.54 78.24 101.99 78.82 102.89 78.77 103.88 78.39 104.62 78.01 104.64 77.29 104.34 76.64 104.28 76.05 105.36 75.27 105.96 74.71 106.32 74.49 106.86 74.36 107.41 74.39 107.95 74.53 108.46 74.74 108.97 74.84 109.57 74.89 110.17 74.87 110.67 74.77 111.05 74.54 111.48 73.92 111.77 73.65 112.28 73.47 113.38 73.52 113.92 73.49 114.34 73.27 114.59 72.68 114.89 72.51 115.42 72.72 115.76 73.37 116 74.15 116.26 74.74 117.56 76.3 118.11 77.58 118.23 77.77 118.46 78.01 118.76 78.28 119.13 78.5 119.54 78.66 119.7 78.69 120.11 78.51 121.84 78.58 121.94 78.75 122.16 78.67 122.4 78.49 122.57 78.32 122.74 78.22 122.97 78.16 123.44 78.12 123.58 78.06 123.67 77.91 123.82 77.77 124.11 77.71 124.31 77.78 124.72 78.05 124.91 78.12 126 78.06 126.39 78.16 126.13 78.51 126.53 78.55 127.03 78.74 127.33 78.79 127.63 78.73 127.89 78.58 128.14 78.4 128.39 78.26 129.14 78.07 131.49 78.12 131.32 77.78 131.41 77.62 131.65 77.58 131.95 77.59 132.14 77.63 132.23 77.71 132.3 77.82 132.42 77.92 132.6 77.97 132.72 77.94 132.83 77.88 132.95 77.86 134.42 77.99 134.71 77.96 135.18 77.81 135.58 77.99 135.63 77.99 136.37 78.18 136.6 78.36 137 78.82 137.27 79 139.27 79.52 140.09 79.88 140.34 80.05 140.49 80.37 140.32 80.52 139.64 80.74 140.01 81.01 140 81.34 139.91 81.67 140.02 81.98 140.68 82.41 140.97 82.65 141.1 83 141.58 83.34 145.17 84.03 146.17 83.92 146.7 84.01 147.46 84.39 147.84 84.64 148.3 85.31 148.73 85.48 149.75 85.58 150.13 85.76 150.3 86.05 150.49 86.81 150.65 87.08 150.8 87.25 150.86 87.45 150.79 87.78 151.4 88.27 151.74 88.45 152.51 88.75 152.79 88.99 153.04 89.25 153.34 89.51 153.81 89.69 155.4 89.88 155.6 89.97 155.96 90.2 156.15 90.29 157.02 90.41 157.3 90.5 157.45 90.66 157.48 90.85 157.43 91.05 157.3 91.24 156.2 92.16 156.05 92.55 156.01 93.42 155.91 93.8 155.48 94.68 155.37 95.07 155.45 95.45 155.76 95.87 156.47 96.48 156.86 96.71 157.3 96.9 157.71 96.95 158.61 96.81 Z" id="KAZ-3201" data-name="West Kazakhstan"/>
<path d="M 538.06 57.01 538.64 57.4 539.24 58.96 539.72 69.93 538.71 70.56 536.76 71.48 535.43 73.55 535.49 75.46 537.87 75.18 539.2 75.21 539.7 75.93 541.93 76.42 544.04 77.14 542.44 77.78 540.62 78.01 537.69 78.77 535.81 79.63 535.31 80.62 534.43 81.65 533.1 82.63 529.44 82.3 525.87 82.7 524.85 82.58 524.41 83.26 524.72 83.74 525.8 84.77 526.29 85.55 526.22 85.95 527.31 85.66 528.34 84.89 530.19 85.3 531.07 85.74 530.01 86.54 528.09 87.52 524.69 88.22 523.53 88.63 523.87 89.27 522.12 89.92 521.08 90.19 520.54 90.68 517.21 90.2 515.69 91.37 515.64 92.01 514.78 92.84 513.14 93.14 512.39 93.16 511.57 93.52 510.22 93.96 510.07 94.45 510.2 94.7 509.64 95.08 509.72 95.83 510.46 96.14 509.38 96.83 506.99 96.2 506.26 96.79 505.32 97.01 505 99.07 499.81 98.74 497.68 99.03 496.82 99.4 496.77 98.64 497.39 98.08 497.71 97.17 498 95.84 497.51 95.57 498.45 94.47 496.31 93.16 495.43 93.17 494.88 92.67 493.81 92.74 493.27 92.37 492.52 92.3 492.27 92.76 490.14 93.42 488.25 95.48 487.18 95.81 486.38 96.23 484.24 96.57 483.68 96.93 483.81 97.52 482.97 97.99 481.01 98.7 479.89 98.77 479.11 99.08 478.26 101.04 477.99 102.94 477.36 102.45 476.35 101.92 473.72 102.58 472.55 105.75 466.23 107.43 465.43 105.9 466.92 104.27 465.84 103.58 465.37 102.85 464.05 102.79 459.16 103.66 457.22 103.8 455.68 103.5 455.92 102.4 455.19 102.23 453.82 101.01 452.5 101.21 452.22 100.52 450.79 100.71 449.86 101.99 448.72 103.19 447.69 103.19 447.12 102.85 447.41 104.01 446.3 104.51 444.06 104.9 437.51 103.52 438.62 101.72 439.55 99.43 439.93 97.73 440.36 96.88 440.78 95.65 440.92 93.51 436.67 92.45 434.54 92.93 432.52 93.6 428.97 95.15 422.08 95.18 422.88 95.94 423.36 97.3 421.91 98 418.7 98.62 413.63 99.08 410.94 99.77 408.46 100.68 406.53 99.67 405.61 98.73 406.48 97.75 406.49 96.18 404.37 95.1 398.71 95.71 391.72 94.2 389.85 93.31 388.52 92.07 386.58 92.11 385.83 91.72 385.42 90.5 383.57 89.64 381.24 89.89 379.46 91.54 376.94 91.67 376.7 88.15 373.27 84.4 373.43 83.2 372.69 82.52 373.59 81.66 374.47 81.17 374.97 80.74 374.42 80.34 374.66 79.58 375.07 78.83 375.45 76.76 374.39 75.43 371.26 74.08 371.53 72.89 372.9 72.97 376.69 72.21 379.67 70.17 380.47 67.59 381.55 65.76 383.12 64.62 383.43 60.24 387 60.9 388.46 62.31 390.38 61.91 394.92 61.82 395.9 63.2 398.28 63.25 404.82 64.03 406.78 63.72 410.78 63.51 411.03 60.63 413.13 60.36 415.61 60.83 420.12 62.58 421.98 62.95 422.42 62.37 422.39 61.85 423.87 61.59 425.87 60.16 424.43 59 424.34 58.1 425.58 58.02 429.55 56.78 430.45 56.82 431.07 56.15 431.73 55.77 431.93 55.28 432.71 54.49 434.41 53.97 435.77 53.19 438.15 52.5 437.96 52.3 437.4 49.3 438.9 48.5 439.5 46.39 438.41 45.26 437.53 43.82 435.51 43.26 434.15 42.34 432.85 40.74 434.26 40.24 434.7 39.83 435.34 39.36 436.61 39.1 436.12 38.86 435.83 38.13 437.93 37.91 439.03 37.7 438.75 37.35 438.3 36.38 439.17 36.38 439.74 36.16 441.02 35.97 441.69 36.07 441.81 36.44 443.39 36.52 444.57 36.04 445.49 35.51 447.44 36.49 448.18 37.07 448.88 37.33 449.54 38.81 450.7 38.76 450.9 38.07 449.93 37.5 450.17 37.02 450.81 36.38 454 35.21 457.37 35.13 458.53 35.6 459.16 36.17 459.87 37.78 459.95 39.06 460.63 38.77 461.67 38.91 463.69 38.92 464.46 39.21 464.2 39.95 463.42 40.65 462.76 41.47 463.94 41.53 466.51 41.41 468.45 42.25 469.64 43.45 471.01 43.89 471.45 42.58 472.92 42.21 473.68 40.84 476.31 40.57 481.25 40.49 481.8 40.84 481.97 41.07 482 42.16 484.43 42.51 485.07 42.81 486.2 42.91 487.22 42.68 491.97 41.14 493.36 42.56 495.35 43.86 496.2 44.72 495.56 45.39 495.41 47.34 494.36 48.34 495.45 49.7 498.13 50.27 504.29 50.38 508.26 48.7 509.84 48.47 511.91 48.69 514.33 48.27 515.4 48.2 516.02 47.76 517.11 48.67 517.17 49.68 518.01 50.84 518.42 53.22 520.36 53.34 528.46 55.05 532 56.73 538.06 57.01 Z M 489.26 88.13 490.39 87.78 491.32 86.92 491.83 85.75 491.94 84.51 491.44 83.61 490.78 83.38 489.92 82.56 488.4 81.78 487.46 81.66 486.21 82.01 485.59 82.4 485.01 83.03 484.85 83.81 484.97 84.59 485.71 85.36 486.72 86.11 487.58 86.85 488.4 87.74 489.26 88.13 Z" fill-rule="evenodd" id="KAZ-3202" data-name="Aqmola"/>
<path d="M 533.1 82.63 539.36 84.15 539.9 85.01 540.36 86.01 540.54 86.91 540.02 87.94 539.34 91.54 538.42 91.83 538.66 93.27 538.18 94.59 540.3 95.89 544.95 95.5 546.46 95.2 547.49 94.7 548.06 95.12 549.39 95.32 551.59 95.96 551.36 97.53 552.67 98.47 554.48 97.43 556.52 98.71 557.25 98.77 558.25 99.56 558.91 100.41 558.45 100.75 559.77 101.89 561.39 102.72 559.29 103.75 557.26 104.35 556.89 104.87 556.08 105.44 557.25 106.74 559 107.12 563.59 105.3 565.57 104.24 571.03 104.25 572.16 103.35 573.78 103.66 581.23 102.79 583.6 103.44 584.94 101.94 585.81 101.89 587.02 101.49 589.17 101.38 591.55 101.94 592.01 99.68 592.68 97.62 596.91 94.76 599.63 94.88 601.31 95.99 605.2 96.82 609.49 98.17 610.38 99.58 610.14 101.5 610.43 102.67 611.62 103.22 610.4 104.73 606.06 107.45 603.77 108.16 602.09 108.47 601.1 109.14 600.93 109.61 601.09 110.28 601.19 111.08 601.13 112.08 600.61 114.11 596.76 116.06 592.8 117.11 590.08 119.83 591.29 121.18 593.49 121.98 595.42 123.33 595.5 124.13 598.21 125.67 596.9 126.54 595.07 127.05 595.12 129.4 596.75 130.53 601.12 130.17 604.36 130.3 604.6 132.3 604.22 133.32 604.09 134.27 602.34 135.62 599.78 136.68 597.71 136.75 597.07 137.43 596.75 138.3 595.87 138.76 596.38 139.4 597.91 140 598.39 140.76 600.37 140.85 602.15 141.37 600.21 141.89 600.65 143.35 602.97 144.27 605.3 144.86 602.6 145.87 601.85 147.56 600.51 148.99 598.71 153.56 599.21 154 599.65 154.98 600.43 157.41 596.95 158.08 597 158.83 596.6 159.9 595.8 160.69 594.89 161.01 595.96 161.45 598.43 163.3 602.47 164.05 603.48 162.58 608.65 162.37 609.24 169.37 609.02 172.12 607.31 172.65 606.91 172.82 606.35 172.78 604.91 173.14 603.3 173.25 602.84 173.37 602.45 173.58 602.2 173.86 602 174.16 601.75 174.41 600.42 174.64 600.2 174.63 599.92 174.5 599.89 174.38 599.95 174.26 599.92 174.11 599.27 173.4 598.53 172.91 597.68 172.69 596.71 172.78 596.21 172.9 595.98 172.91 595.75 172.88 595.57 172.81 594.6 172 594.18 171.83 593.89 171.97 594.04 172.57 594.73 173.25 595.54 173.89 596.04 174.38 595.49 174.23 594.38 173.77 592.56 173.25 592.03 172.99 591.75 172.63 591.96 172.5 592.03 172.32 591.99 172.13 591.88 171.97 591.47 172.21 591.09 172.32 590.67 172.31 589.68 172.13 589.43 172.12 588.47 172.41 588.28 172.51 588.12 172.62 588.04 172.7 588.02 172.83 588.01 173.11 587.93 173.34 587.74 173.3 587.34 173.03 585.72 172.38 585.62 172.73 585.39 172.7 585.23 172.53 584.18 172.63 580.91 172.01 575.73 171.84 570.66 172.23 566.1 172.05 553.58 177.52 542.29 186.19 444.34 186.56 407.32 186.15 406.78 184.21 404.8 184.09 401.52 184.23 373.67 179.64 369.55 178.27 364.81 175.33 363.12 175.21 339.78 168.71 339.18 168.35 338.1 168.57 335.52 168.4 330.63 166.81 327.88 166.54 322.82 164.22 316.99 164.85 317.33 163.99 320.7 162.19 345.4 150.05 347.3 148.62 346.49 147.47 342.75 143.3 347.41 140.41 347.56 138.39 351.75 136.93 354.01 136.44 353.16 135.07 353.35 134.03 353.21 133.48 355.53 133.42 357.81 129.83 364.25 129.12 373.1 129.98 377.22 129.41 379.04 127.93 381.66 127.01 385.5 126.67 392.29 122.6 394.51 122.14 395.48 120.23 397.72 119.63 399.44 118.07 412.19 110.42 416.82 106.59 416.94 105.59 416.59 105.05 416.76 104.8 416.94 104.57 416.69 104.18 416.7 103.48 417.86 103.14 423.6 102.01 425.58 100.7 426.8 99.13 424.82 98.26 424 97.56 423.36 97.3 422.88 95.94 422.08 95.18 428.97 95.15 432.52 93.6 434.54 92.93 436.67 92.45 440.92 93.51 440.78 95.65 440.36 96.88 439.93 97.73 439.55 99.43 438.62 101.72 437.51 103.52 444.06 104.9 446.3 104.51 447.41 104.01 447.12 102.85 447.69 103.19 448.72 103.19 449.86 101.99 450.79 100.71 452.22 100.52 452.5 101.21 453.82 101.01 455.19 102.23 455.92 102.4 455.68 103.5 457.22 103.8 459.16 103.66 464.05 102.79 465.37 102.85 465.84 103.58 466.92 104.27 465.43 105.9 466.23 107.43 472.55 105.75 473.72 102.58 476.35 101.92 477.36 102.45 477.99 102.94 478.26 101.04 479.11 99.08 479.89 98.77 481.01 98.7 482.97 97.99 483.81 97.52 483.68 96.93 484.24 96.57 486.38 96.23 487.18 95.81 488.25 95.48 490.14 93.42 492.27 92.76 492.52 92.3 493.27 92.37 493.81 92.74 494.88 92.67 495.43 93.17 496.31 93.16 498.45 94.47 497.51 95.57 498 95.84 497.71 97.17 497.39 98.08 496.77 98.64 496.82 99.4 497.68 99.03 499.81 98.74 505 99.07 505.32 97.01 506.26 96.79 506.99 96.2 509.38 96.83 510.46 96.14 509.72 95.83 509.64 95.08 510.2 94.7 510.07 94.45 510.22 93.96 511.57 93.52 512.39 93.16 513.14 93.14 514.78 92.84 515.64 92.01 515.69 91.37 517.21 90.2 520.54 90.68 521.08 90.19 522.12 89.92 523.87 89.27 523.53 88.63 524.69 88.22 528.09 87.52 530.01 86.54 531.07 85.74 530.19 85.3 528.34 84.89 527.31 85.66 526.22 85.95 526.29 85.55 525.8 84.77 524.72 83.74 524.41 83.26 524.85 82.58 525.87 82.7 529.44 82.3 533.1 82.63 Z" id="KAZ-3203" data-name="Qaraghandy"/>
<path d="M 469.7 3.91 471.07 4.23 471.51 4.22 471.96 4.15 472.39 4.01 472.76 3.78 473.55 3.45 474.64 3.37 475.74 3.49 476.57 3.74 476.26 3.99 475.96 4.3 475.82 4.64 476.04 4.93 477.38 5.96 479.3 7.43 479.64 7.97 479.65 8.21 479.64 8.45 479.64 8.48 479.64 8.55 479.64 8.59 479.56 9.13 479.48 9.39 479.37 9.64 479.24 10.01 479.58 10.53 479.43 10.76 479.2 10.99 479.06 11.33 479.03 11.68 479.17 11.96 479.89 12.45 480.03 12.72 479.97 13.25 480.2 13.9 481 14.39 481.98 14.71 482.76 14.82 483.6 14.82 484 14.88 484.36 15.07 485.02 15.69 485.25 16.1 485.26 16.54 485.01 16.81 484.58 16.96 483.58 17.13 482.96 17.47 482.84 18.01 482.98 19.41 482.93 19.53 482.92 19.64 482.95 19.72 483.34 19.99 483.42 20.22 483.32 20.88 483.38 21 483.52 21.06 483.86 21.13 483.95 21.22 483.95 21.37 483.9 21.71 483.91 21.98 483.81 22.81 482.71 22.94 482.35 22.94 481.97 22.86 481.25 22.62 480.85 22.54 480.15 22.52 479.69 22.68 479.51 23.07 479.64 23.75 480.84 23.8 481.1 23.88 481.2 24.2 481.18 24.66 481.09 25.11 480.94 25.39 481.69 25.62 481.99 25.8 482.29 26.09 482.89 26.81 483.23 27.03 483.64 27.04 484.34 26.76 484.88 26.37 485.87 25.33 486.34 25.1 486.91 25.16 487.54 25.34 488.15 25.42 488.75 25.41 488.93 25.48 489.12 25.68 489.23 25.93 489.4 26.88 489.83 26.85 490.81 26.55 491.29 26.5 491.49 26.57 491.89 26.81 492.1 26.89 492.44 26.93 492.73 26.91 493.38 26.7 493.93 26.44 494.1 26.17 494 25.3 494.06 24.91 494.25 24.55 494.57 24.29 494.98 24.19 498.8 24.42 499.3 24.5 499.67 24.62 499.98 24.83 501.12 26.13 501.56 26.45 502.14 26.56 502.65 26.52 503.09 26.37 503.34 26.06 503.28 25.52 502.94 25.18 502.4 25.05 501.8 25 501.28 24.86 500.92 24.68 500.9 24.57 500.9 24.32 500.94 24.12 501.03 23.89 501.14 23.68 501.55 23.16 501.63 22.94 501.47 22.76 501.01 22.52 500.37 22.27 500.15 22.08 500.1 21.78 500.46 21.64 502.58 21.83 503.23 22.06 503.95 22.52 504.56 23.1 504.84 23.68 505.06 23.89 505.96 24.07 506.2 24.41 506.12 24.66 505.45 25.54 507.2 25.95 509.05 26.38 509.08 26.44 509.04 26.52 508.93 26.61 508.74 26.88 508.49 26.93 508.21 26.9 507.89 26.9 507.81 26.97 507.67 27.21 507.59 27.28 507.4 27.27 506.81 27.14 506.62 27.21 506.59 27.43 506.65 27.69 506.72 27.86 507.08 28.19 507.53 28.43 507.8 28.71 507.59 29.17 507.59 29.18 507.1 29.88 506.9 30.27 506.91 30.59 507.28 30.82 507.89 30.91 508.52 30.88 508.93 30.72 509.74 30.14 510.25 29.6 510.5 29.47 510.8 29.49 512.78 29.99 513.3 29.85 513.19 29.17 512.82 28.6 512.44 28.2 511.96 27.97 511.29 27.96 509.57 28.18 509.45 28.03 509.56 27.68 509.76 27.3 509.92 27.07 510.81 26.51 511.81 26.39 514.41 26.57 516.92 26.73 518.02 26.65 518.31 26.73 518.54 26.99 518.64 27.34 518.7 28.09 519.62 28.36 519.84 28.62 520.02 29.18 520.38 29.44 522.88 29.78 526.19 30.23 526.46 30.18 526.57 30.03 526.6 29.8 526.66 29.61 526.83 29.53 527.44 29.56 527.62 29.6 527.87 29.73 528.32 30.06 528.57 30.09 529.04 30.01 529.28 29.89 529.34 29.64 529.31 29.18 529.31 29.18 529.48 28.82 530.62 28.65 530.96 28.35 530.9 28.11 530.72 27.9 530.65 27.73 530.91 27.64 531.94 27.49 532.25 27.54 532.28 27.61 532.34 28.02 532.54 28.08 533.63 27.89 532.78 30.96 532.5 31.49 532.08 31.75 531.55 31.81 528.64 31.47 528.06 31.5 527.59 31.66 527.18 31.95 526.8 32.38 527.71 32.77 525.94 33.18 525.63 33.42 525.14 35.17 524.31 35.26 523.94 35.38 523.64 35.62 523.46 36 523.55 36.26 524.21 36.72 523.66 37.38 526.8 38.4 525.94 39.59 527.18 40.16 527.44 40.11 527.96 39.8 527.97 39.85 530.41 42.85 529.15 42.99 528.01 43.5 527.87 45 528.65 46.05 529.98 45.39 531.08 44.57 531.94 44.23 532.45 44.51 533.04 44.42 534.17 44.8 532.88 46.01 532.04 47.28 530.37 49.13 529.73 49.71 531.53 49.2 532.53 49.45 532.08 50.25 531.75 51.92 534.14 52.26 535.58 50.61 537.81 50.28 539.31 51.4 538.75 52.89 538.11 53.45 537.69 54.39 536.89 55.62 536.25 54.9 534.16 54.12 533.54 54.05 534.05 55.67 536.68 56.18 538.06 57.01 532 56.73 528.46 55.05 520.36 53.34 518.42 53.22 518.01 50.84 517.17 49.68 517.11 48.67 516.02 47.76 515.4 48.2 514.33 48.27 511.91 48.69 509.84 48.47 508.26 48.7 504.29 50.38 498.13 50.27 495.45 49.7 494.36 48.34 495.41 47.34 495.56 45.39 496.2 44.72 495.35 43.86 493.36 42.56 491.97 41.14 487.22 42.68 486.2 42.91 485.07 42.81 484.43 42.51 482 42.16 481.97 41.07 481.8 40.84 481.25 40.49 476.31 40.57 473.68 40.84 472.92 42.21 471.45 42.58 471.01 43.89 469.64 43.45 468.45 42.25 466.51 41.41 463.94 41.53 462.76 41.47 463.42 40.65 464.2 39.95 464.46 39.21 463.69 38.92 461.67 38.91 460.63 38.77 459.95 39.06 459.87 37.78 459.16 36.17 458.53 35.6 457.37 35.13 454 35.21 450.81 36.38 450.17 37.02 449.93 37.5 450.9 38.07 450.7 38.76 449.54 38.81 448.88 37.33 448.18 37.07 447.44 36.49 445.49 35.51 444.57 36.04 443.39 36.52 441.81 36.44 441.69 36.07 441.02 35.97 439.74 36.16 439.17 36.38 438.3 36.38 438.75 37.35 439.03 37.7 437.93 37.91 435.83 38.13 436.12 38.86 436.61 39.1 435.34 39.36 434.7 39.83 434.26 40.24 432.85 40.74 434.15 42.34 435.51 43.26 437.53 43.82 438.41 45.26 439.5 46.39 438.9 48.5 437.4 49.3 437.96 52.3 438.15 52.5 435.77 53.19 434.41 53.97 432.71 54.49 431.93 55.28 431.73 55.77 431.07 56.15 430.45 56.82 429.55 56.78 425.58 58.02 424.34 58.1 424.43 59 425.87 60.16 423.87 61.59 422.39 61.85 422.42 62.37 421.98 62.95 420.12 62.58 415.61 60.83 413.13 60.36 411.03 60.63 410.78 63.51 406.78 63.72 404.82 64.03 398.28 63.25 395.9 63.2 394.92 61.82 390.38 61.91 388.46 62.31 387 60.9 383.43 60.24 383.56 56.95 384.19 53.89 385.71 52.88 385.93 51.41 385.95 50.5 385.39 49.57 384.73 49.09 384.46 48.38 385.59 47.01 389.85 46.64 391.66 45.85 389.85 44.8 388.74 43.56 388.68 41.48 388.02 39.2 385.5 38.89 384.74 37.24 386.53 36.06 386.91 34.03 385.55 32.86 384.25 32.72 383.24 30.84 382.78 29.15 384.89 28.33 389.66 27.03 388.12 25.43 385.79 24.82 384.59 23.83 386.86 23.22 384.32 16.63 384.31 16.58 391.12 15.14 392.36 15.02 394.85 15.08 396.08 14.97 396.51 14.82 397.25 14.36 397.67 14.21 401.49 14.11 402.09 14.02 403.24 13.64 403.86 13.55 405.33 13.57 406.1 13.45 406.61 13.14 407.01 12.68 407.48 12.36 408.02 12.23 409.32 12.44 410.59 12.28 414.1 12.34 415.58 12.07 416.74 11.49 417.52 10.72 417.9 10.42 418.48 10.19 419.17 10.07 419.77 10.09 421.66 10.6 424.71 10.35 425.06 10.13 425.2 9.64 425.63 9.52 425.8 9.34 425.89 9.08 426.06 8.74 426.43 8.59 426.97 8.57 427.41 8.46 427.49 8.07 425.93 7.5 425.19 7.04 425.51 6.48 425.08 6.22 424.93 6.16 426.18 5.76 426.6 5.7 426.88 5.76 427.13 5.87 427.44 5.95 427.83 5.93 428.83 5.68 429.31 5.69 430.8 5.92 432.1 5.64 432.55 5.63 433.07 5.71 433.3 5.67 433.5 5.48 433.55 5.28 433.44 4.9 433.46 4.74 433.78 4.51 434.69 4.15 434.83 3.85 434.77 3.44 434.8 3.1 434.93 2.78 435.16 2.45 435.59 2.6 435.82 2.62 437.54 2.78 438 2.91 438.4 3.13 439.12 3.81 439.5 4.09 439.95 4.21 440.43 4.05 440.63 3.8 440.68 3.46 440.56 2.72 440.08 2.54 439.69 2.44 439.4 2.24 439.18 1.58 439.1 1.43 439.1 1.29 439.27 1.14 439.59 1.02 439.9 1 443.4 1.72 443.9 2.1 444.22 2.7 444.64 3.13 445.43 2.97 447.07 2.04 447.54 1.97 450.33 2.66 454.17 2.96 456.68 3.78 457.23 4.09 458.82 5.36 459.38 5.58 460.94 5.67 461.69 5.84 464.39 6.88 464.72 6.91 465.06 6.73 465.7 6.1 466.11 5.91 467.82 5.57 468.02 5.46 468.07 5.31 468.08 5.14 468.13 4.99 468.36 4.69 469.16 3.95 469.53 3.87 469.7 3.91 Z" id="KAZ-3204" data-name="North Kazakhstan"/>
<path d="M 612.63 42.17 614.24 43.24 616.38 45.27 617.7 46.67 619.81 48.91 621.92 51.15 624.04 53.4 626.15 55.64 628.91 58.79 631.68 61.94 634.45 65.09 637.21 68.25 637.21 68.25 637.22 68.25 637.22 68.25 639.3 70.69 641.39 73.13 642.32 74.23 642.32 74.23 641.93 74.28 641.27 75.85 638.5 76.66 638.5 77.15 638.13 78.07 637.18 78.65 636.1 79.12 635.45 78.87 632.8 79.08 631.93 80.25 632.8 80.44 632.62 81.26 631.65 81.84 626.49 83.58 625.28 83.73 624.75 83.26 623.91 83.44 623.42 84.05 621.26 84.89 620.54 84.87 619.51 85.44 619.35 85.65 619.07 85.84 618.94 85.88 619.02 86.21 619.36 86.45 619.62 86.71 619.47 87.09 619.94 87.28 620.42 87.36 620.79 87.59 620.95 88.23 621 88.34 621.14 88.44 621.29 88.52 621.41 88.55 621.57 88.57 621.59 88.62 621.57 88.71 621.61 88.83 622.12 89.58 622.36 89.83 622.65 89.96 623.3 89.99 623.54 90.11 623.75 90.29 623.91 90.38 625.19 91.39 630.29 93.48 630.99 96.11 630.86 98.11 631.8 98.5 632.87 100.31 631.77 102.09 629.95 104.13 626.08 106.64 620 105.62 615.79 104.49 613.25 103.1 611.62 103.22 610.43 102.67 610.14 101.5 610.38 99.58 609.49 98.17 605.2 96.82 601.31 95.99 599.63 94.88 596.91 94.76 592.68 97.62 592.01 99.68 591.55 101.94 589.17 101.38 587.02 101.49 585.81 101.89 584.94 101.94 583.6 103.44 581.23 102.79 573.78 103.66 572.16 103.35 571.03 104.25 565.57 104.24 563.59 105.3 559 107.12 557.25 106.74 556.08 105.44 556.89 104.87 557.26 104.35 559.29 103.75 561.39 102.72 559.77 101.89 558.45 100.75 558.91 100.41 558.25 99.56 557.25 98.77 556.52 98.71 554.48 97.43 552.67 98.47 551.36 97.53 551.59 95.96 549.39 95.32 548.06 95.12 547.49 94.7 546.46 95.2 544.95 95.5 540.3 95.89 538.18 94.59 538.66 93.27 538.42 91.83 539.34 91.54 540.02 87.94 540.54 86.91 540.36 86.01 539.9 85.01 539.36 84.15 533.1 82.63 534.43 81.65 535.31 80.62 535.81 79.63 537.69 78.77 540.62 78.01 542.44 77.78 544.04 77.14 541.93 76.42 539.7 75.93 539.2 75.21 537.87 75.18 535.49 75.46 535.43 73.55 536.76 71.48 538.71 70.56 539.72 69.93 539.24 58.96 538.64 57.4 538.06 57.01 536.68 56.18 534.05 55.67 533.54 54.05 534.16 54.12 536.25 54.9 536.89 55.62 537.69 54.39 538.11 53.45 538.75 52.89 539.31 51.4 537.81 50.28 535.58 50.61 534.14 52.26 531.75 51.92 532.08 50.25 532.53 49.45 531.53 49.2 529.73 49.71 530.37 49.13 532.04 47.28 532.88 46.01 534.17 44.8 533.04 44.42 532.45 44.51 531.94 44.23 531.08 44.57 529.98 45.39 528.65 46.05 527.87 45 528.01 43.5 529.15 42.99 530.41 42.85 527.97 39.85 527.96 39.8 529.39 38.94 529.39 38.94 529.39 38.94 529.83 38.66 530 38.51 530.16 38.3 530.34 37.95 530.41 37.76 530.54 37.65 530.89 37.57 531.03 37.56 531.5 37.61 531.67 37.56 531.72 37.42 531.74 37.25 531.88 36.94 531.88 36.79 531.91 36.66 532.05 36.62 533.54 36.65 533.87 36.7 534.55 36.94 534.85 36.87 536.21 36.21 536.82 36.08 537.46 36.07 538.24 36.15 539.54 36.26 539.83 36.36 539.92 36.67 539.89 37.05 539.92 37.36 540.19 37.5 540.8 37.52 541.01 37.44 541.37 36.96 541.58 36.88 542.87 36.9 543.06 36.95 543.29 37.2 543.41 37.47 543.59 37.69 543.97 37.76 543.83 38.2 543.96 38.5 544.67 38.94 544.67 38.94 544.67 38.94 545.7 39.46 546.28 39.53 546.69 39.23 547.62 37.43 547.59 37.28 547.38 37.12 547.03 36.91 546.91 36.78 547.09 35.8 547.26 35.41 547.55 35.18 550.74 35.26 550.94 35.14 551.28 34.21 551.48 33.94 551.65 33.81 551.87 33.77 552.86 33.73 553.05 33.61 553.22 33.34 553.43 32.77 553.58 32.49 553.78 32.33 554.44 32.2 556.05 32.22 556.74 32.33 558.25 32.81 558.77 32.78 561.31 31.66 563.65 30.63 566.71 29.29 565.28 27.86 566.62 27.27 567.3 27.06 567.99 27.03 570.01 27.18 570.74 27.1 571.73 26.82 572.92 26.48 575.13 25.86 578.59 24.89 581.36 24.11 581.13 23.66 581.08 23.33 581.23 23.03 581.56 22.67 581.96 22.34 582.34 22.24 586.23 22.84 587.08 22.71 588.32 22.17 588.74 22.07 589.04 22.06 589.64 22.1 589.94 22.07 590.29 21.87 590.37 21.53 590.38 21.14 590.5 20.78 590.91 20.5 591.47 20.43 592.56 20.49 593.05 20.44 594.42 20.02 594.81 19.95 595.27 19.96 595.55 20.15 595.42 20.58 595.07 20.77 593.49 21.01 593.14 21.16 592.71 21.4 592.48 21.67 592.73 21.9 593.71 22.08 594.06 22.27 594.24 22.73 594.13 23.23 593.8 23.6 593.4 23.93 593.05 24.29 592.81 24.86 592.66 25.07 592.44 25.24 591.95 25.51 591.76 25.69 590.75 26.41 589.56 26.38 587.08 25.82 585.83 25.79 585.46 25.87 585.13 26.01 585.08 26.14 587.08 28.21 587.2 28.44 587.44 29.18 588.04 29.78 589.7 30.58 592.1 31.72 595.73 33.45 599.35 35.18 602.97 36.91 606.59 38.63 609.28 39.91 611.64 41.5 612.63 42.17 Z" id="KAZ-3205" data-name="Pavlodar"/>
<path d="M 735.79 94.78 736.05 94.89 736.66 95.44 736.84 95.81 736.9 96.12 737.02 96.38 737.7 96.86 737.88 97.18 737.93 97.54 737.52 98.6 737.81 99.21 738.33 99.8 738.74 100.44 738.79 100.89 738.74 101.33 738.74 101.74 738.95 102.1 739.18 102.22 739.76 102.33 740.01 102.42 740.16 102.56 740.4 102.88 740.54 103 741.27 103.04 741.98 102.67 742.67 102.4 743.36 102.74 743.92 103.18 744.53 103.44 745.19 103.55 745.9 103.51 746.61 103.56 747.09 103.85 747.53 104.22 748.14 104.51 748.48 104.53 749.17 104.47 749.51 104.58 749.72 104.76 750.2 105.48 750.45 105.6 750.78 105.52 751.13 105.37 751.41 105.29 751.85 105.32 753.13 105.71 753.34 105.87 753.99 106.53 754.15 106.77 754.1 107.1 753.78 107.22 752.91 107.32 752.91 107.32 752.86 107.33 752.72 107.36 752.64 108.48 752.71 108.99 753.13 109.25 754.24 109.42 754.7 109.65 754.98 110.1 755.08 110.81 755.2 111.08 755.52 111.43 756.79 112.37 757.22 112.94 757.41 114.49 757.97 115.07 758.74 115.35 759.52 115.18 759.86 115 760.28 114.83 760.72 114.71 761.1 114.68 761.56 114.8 762.41 115.22 762.89 115.32 763.63 115.28 763.98 115.2 764.33 115.08 764.95 114.73 765.27 114.61 765.61 114.66 765.88 114.86 766.15 115.43 766.42 115.67 766.75 115.76 767.08 115.71 767.78 115.52 768.2 115.52 768.54 115.64 768.83 115.85 769.12 116.13 769.41 116.23 769.77 116.14 770.42 115.82 770.81 115.71 771.18 115.69 771.98 115.78 772.01 115.95 771.81 116.75 771.8 117.08 772.09 117.31 772.41 117.36 772.75 117.28 773.06 117.08 773.06 117.08 773.68 116.64 774.51 116.43 775.32 116.55 775.81 117.08 776.6 117.66 777.32 117.02 777.95 115.97 778.45 115.31 779.57 114.79 780.79 114.5 782.09 113.71 782.43 113.61 782.55 113.49 782.57 113.3 782.51 113.09 782.37 112.87 783.29 112.51 783.38 112.46 783.64 112.27 783.8 112.2 783.93 112.21 784.04 112.23 784.18 112.2 784.56 111.86 784.77 111.46 785.06 111.17 785.69 111.2 786.52 111.51 786.82 111.52 787.41 111.42 787.76 111.42 787.96 111.5 787.98 111.71 787.84 111.94 787.66 112.16 787.55 112.35 787.6 112.59 787.82 112.81 788.3 113.13 787.9 113.4 787.53 113.59 787.13 113.68 786.18 113.73 785.78 113.94 785.08 114.59 784.78 114.95 784.7 115.24 784.85 115.51 785.22 115.81 785.69 116.02 786.11 116.02 787 115.88 787.45 115.95 788.81 116.51 789.24 116.76 789.21 117.08 789.05 117.47 789.04 117.92 789.33 118.25 789.83 118.48 790.83 118.81 791.37 119.09 791.32 119.28 791.03 119.48 790.82 119.84 790.97 120.09 791.37 120.38 792.68 121.06 792.92 121.23 793 121.38 793.01 121.66 793.15 121.85 793.39 121.97 793.66 122.04 794.16 122.08 795.81 121.98 796.39 122.07 796.93 122.22 797.98 122.7 798.29 123.11 798.7 124.49 799 125.05 796.59 124.59 795.84 124.31 794.95 124.18 792.19 124.91 791.63 124.87 790.47 124.63 789.93 124.65 789.51 124.88 789.08 125.57 788.75 125.89 787.99 126.32 787.66 126.56 787.35 126.9 787.08 127.3 787 127.61 787.04 127.94 787.17 128.42 787.63 129.08 788.25 129.48 788.56 129.85 788.08 130.47 787.71 130.76 787.58 130.94 787.6 131.17 787.83 132 787.83 132.27 787.68 132.5 786.21 133.86 785.27 134.47 784.97 134.72 784.73 135.03 784.37 135.7 784.18 135.95 783.81 136.14 781.55 136.76 779.66 136.67 779.14 136.81 778.73 137.07 777.96 137.7 776.89 138.08 773.25 137.86 768.91 138.29 768.2 138.63 767.64 139.24 765.06 143.49 764.58 145.65 764.29 146.39 763.93 146.9 763.72 147.33 763.67 147.81 765.23 153.59 765.24 154.24 764.93 155.55 765.02 156.15 765.02 156.16 765.33 156.74 766.7 158.28 766.86 158.68 766.77 159.06 766.64 159.42 766.69 159.75 766.87 160.11 766.87 160.42 766.66 161.06 766.58 161.46 766.49 161.75 766.25 161.92 765.35 161.99 764.88 162.09 764.48 162.29 764.29 162.62 764.23 162.99 764.12 163.29 763.95 163.55 763.7 163.83 763.53 164.17 763.48 164.54 763.34 164.77 762.04 164.75 759.53 165.02 758.41 164.92 758.01 164.97 757.61 165.13 757.34 165.33 756.87 165.92 756.45 166.21 755.11 166.89 754.54 167.34 754.29 167.45 753.41 167.59 753.13 167.7 752.81 167.92 752.37 168.5 751.96 168.71 750.48 168.93 749.05 169.34 748.51 169.41 748.13 169.28 748.04 169.01 748.22 168.71 748.49 168.4 748.71 168.08 748.75 167.39 748.36 166.81 747.72 166.37 747.03 166.1 746.1 166.05 744.24 166.38 743.36 166.27 742.3 165.92 741.99 165.9 741.67 165.92 741.66 165.92 739.26 165.78 737.17 165.92 737.16 165.92 737.15 165.92 737.15 165.92 735.9 166.42 735.42 166.48 734.05 166.29 732.21 166.29 724.77 164.48 721.43 162.95 720.66 162.7 718.86 162.43 718.47 162.26 717.46 161.65 716.99 161.54 716.46 161.49 715.92 161.52 715.44 161.59 714.95 161.76 714.79 161.98 714.82 162.77 714.76 163 714.55 163.42 714.49 163.63 714.52 163.83 714.65 164.21 714.63 164.42 714.33 165.16 714.24 165.54 714.3 165.92 714.4 166.26 714.37 166.59 714.24 166.91 711.38 171.01 709.59 175.68 708.82 176.84 708.69 177.18 708.46 178.24 708.16 178.85 706.86 180.34 706.09 181.48 705.58 182.75 705.07 185.46 705.07 185.46 704.54 187.24 704.29 187.8 703.73 188.73 702.26 190.52 701.55 192.45 700.94 193.47 700.79 194.03 700.79 194.03 700.35 194.15 697.43 193.38 697.72 191.4 696.64 189.12 694.67 187.22 693.3 184.08 688.1 179.25 687.27 177.7 683.54 176.54 683.46 176.05 682.74 175.67 680.55 175.73 680 175.24 678.71 174.77 676.53 174.7 671.14 173.76 662.74 170.94 661.22 170.26 661.13 169.4 656.28 168.14 645.98 168.48 642.4 165.18 637.25 164.52 635.37 164.66 632.56 164.44 631.23 163.14 629.34 162.94 627.82 161.99 622.22 159.84 618.99 161.61 617.74 160.71 615.83 161.26 613.93 162.27 610.12 161.84 608.65 162.37 603.48 162.58 602.47 164.05 598.43 163.3 595.96 161.45 594.89 161.01 595.8 160.69 596.6 159.9 597 158.83 596.95 158.08 600.43 157.41 599.65 154.98 599.21 154 598.71 153.56 600.51 148.99 601.85 147.56 602.6 145.87 605.3 144.86 602.97 144.27 600.65 143.35 600.21 141.89 602.15 141.37 600.37 140.85 598.39 140.76 597.91 140 596.38 139.4 595.87 138.76 596.75 138.3 597.07 137.43 597.71 136.75 599.78 136.68 602.34 135.62 604.09 134.27 604.22 133.32 604.6 132.3 604.36 130.3 601.12 130.17 596.75 130.53 595.12 129.4 595.07 127.05 596.9 126.54 598.21 125.67 595.5 124.13 595.42 123.33 593.49 121.98 591.29 121.18 590.08 119.83 592.8 117.11 596.76 116.06 600.61 114.11 601.13 112.08 601.19 111.08 601.09 110.28 600.93 109.61 601.1 109.14 602.09 108.47 603.77 108.16 606.06 107.45 610.4 104.73 611.62 103.22 613.25 103.1 615.79 104.49 620 105.62 626.08 106.64 629.95 104.13 631.77 102.09 632.87 100.31 631.8 98.5 630.86 98.11 630.99 96.11 630.29 93.48 625.19 91.39 623.91 90.38 623.75 90.29 623.54 90.11 623.3 89.99 622.65 89.96 622.36 89.83 622.12 89.58 621.61 88.83 621.57 88.71 621.59 88.62 621.57 88.57 621.41 88.55 621.29 88.52 621.14 88.44 621 88.34 620.95 88.23 620.79 87.59 620.42 87.36 619.94 87.28 619.47 87.09 619.62 86.71 619.36 86.45 619.02 86.21 618.94 85.88 619.07 85.84 619.35 85.65 619.51 85.44 620.54 84.87 621.26 84.89 623.42 84.05 623.91 83.44 624.75 83.26 625.28 83.73 626.49 83.58 631.65 81.84 632.62 81.26 632.8 80.44 631.93 80.25 632.8 79.08 635.45 78.87 636.1 79.12 637.18 78.65 638.13 78.07 638.5 77.15 638.5 76.66 641.27 75.85 641.93 74.28 642.32 74.23 642.32 74.23 643.47 75.57 645.56 78.01 647.3 80.36 649.05 82.71 650.8 85.05 652.54 87.4 653.45 88.61 654.49 90.01 655.04 91.04 655.26 91.35 655.72 91.78 656.33 92.19 656.99 92.47 657.59 92.48 656.52 91.37 656.22 90.77 656.88 90.52 657.22 90.63 657.9 91.12 658.24 91.25 658.7 91.21 658.93 91.01 659.2 90.38 659.46 90.07 659.73 89.94 660.5 89.72 660.68 89.62 660.96 89.37 661.14 89.29 661.38 89.26 662.17 89.32 662.95 89.22 663.79 88.93 664.49 88.46 664.89 87.78 664.96 87.48 665 87.13 664.99 86.78 664.92 86.49 664.74 86.2 664.2 85.84 663.94 85.59 663.87 85.35 663.88 84.99 663.99 84.35 664.16 83.97 664.4 83.72 664.75 83.58 665.22 83.54 666.88 83.69 667.62 83.56 667.88 83.07 667.91 82.76 668.06 82.47 668.27 82.21 668.52 81.99 668.9 81.77 669.25 81.74 671.87 82.54 672.38 82.61 672.61 82.47 672.8 82.25 673.16 82.07 673.61 82.1 673.78 82.36 673.82 83.04 673.97 83.42 674.2 83.62 674.98 83.9 675.88 84.17 676.33 84.25 676.82 84.28 677.37 83.91 677.66 83.81 678.05 83.84 678.42 83.99 678.55 84.23 678.5 84.56 678.33 84.98 677.02 87.03 676.51 88.23 676.46 88.5 676.59 88.67 676.97 88.8 677.49 88.87 678.56 88.84 680.87 88.37 683.28 88.44 683.29 89.14 683.58 89.79 684.04 90.38 684.56 90.89 684.14 91.28 683.78 91.78 683.63 92.28 683.87 92.7 684.44 92.91 688.62 92.8 689.07 92.62 689.63 92.04 689.99 91.84 690.37 91.85 691.1 92.17 691.52 92.21 692.94 92.05 693.92 92.15 694.8 92.33 695.23 92.52 696.42 93.19 696.86 93.34 697.87 93.47 698.38 93.44 698.87 93.33 699.22 93.12 699.61 92.83 699.99 92.62 700.33 92.66 700.62 92.77 700.87 92.7 701.12 92.57 701.4 92.48 701.66 92.52 701.85 92.61 702.07 92.68 702.97 92.55 703.4 92.7 704.29 93.23 706.79 92.15 708.13 91.75 708.63 91.33 708.66 89.96 709.18 89.58 709.93 89.46 711.48 89.75 714.06 89.95 714.95 89.75 715.66 89.26 716.21 88.57 716.63 87.78 716.82 87.74 717.02 87.73 717.21 87.74 717.72 87.86 718.03 87.89 718.35 87.86 718.67 87.78 720.85 87.59 723 87.78 723.55 88.33 723.85 88.55 724.26 88.7 726.44 88.97 726.89 89.11 728.02 89.75 728.45 89.94 728.84 89.99 729.73 89.99 730.16 90.07 730.56 90.22 730.9 90.45 731.52 91.13 731.77 91.31 732.54 91.53 733.1 91.93 733.08 93.15 733.59 93.77 735.79 94.78 Z" id="KAZ-3206" data-name="East Kazakhstan"/>
<path d="M 700.79 194.03 700.68 194.44 701.39 195.22 701.39 195.22 701.39 195.22 702.07 195.46 705.01 195.76 707.02 196.35 707.34 196.74 707.42 197.46 707.37 198.23 707 200 706.42 201.41 705.53 202.44 704.29 202.6 703.34 202.18 701.67 200.86 700.74 200.4 699.78 200.33 698.74 200.52 695 201.86 694.01 202.04 693.23 201.77 692.86 201.47 692.55 201.32 691.22 201.17 690.96 201.04 690.86 200.77 690.83 200.32 690.72 199.65 690.4 198.85 689.9 198.26 689.22 198.22 688.45 198.06 687.62 198.33 686.04 199.13 678.27 200.86 676.67 201.5 675.88 201.7 674.98 201.71 672.6 202.39 672.08 202.4 670.48 202.04 669.53 202.05 666.4 202.89 665.05 202.78 664.62 202.82 664.22 203.06 663.85 203.75 663.54 203.97 663.05 204.02 661.59 203.96 660.19 204.35 658.8 204.19 657.93 204.23 657.12 204.49 656.38 204.99 656.38 204.99 654.44 206.19 653.53 206.53 653.14 206.74 652.85 207.33 653.35 207.8 655.75 208.89 656.68 208.95 660.18 208.41 660.7 208.46 661.06 208.58 662.06 209.15 665.22 210.03 665.53 210.17 665.63 210.43 665.53 210.69 665.22 210.85 663.95 211.06 663.27 211.28 662.87 211.64 662.84 211.86 662.93 212.04 663.29 212.38 663.41 212.62 663.34 212.84 663.04 213.27 662.52 214.75 662.37 215.55 662.42 216.24 663.2 219.12 663.21 219.88 662.68 221.29 662.54 222.02 662.66 222.38 662.94 222.65 663.58 223.12 663.8 223.44 663.93 223.77 663.97 224.13 663.98 224.53 663.98 224.53 664.18 224.94 664.51 225.39 665.22 226.15 667.53 230.56 669.84 234.97 669.79 235.61 669.48 236.22 668.47 237.56 668.78 237.87 669.51 238.01 670.28 238.29 670.54 238.56 670.68 238.9 670.75 239.28 670.76 239.66 670.87 240.03 671.31 240.65 671.42 241.01 671.31 241.43 671.02 241.73 670.63 241.9 670.21 241.96 669.8 241.89 668.81 241.34 668 241.31 667.17 241.6 665.64 242.45 663.93 242.98 663.11 243.38 662.85 243.92 663.22 244.42 663.88 244.82 665.22 245.3 666.11 245.39 666.52 245.56 666.75 245.91 666.63 246.31 666.2 246.51 665.22 246.59 663.74 247 663.37 247.23 662.44 247.51 662.1 247.54 661.42 247.4 661.09 247.38 660.77 247.53 660.36 248.02 659.93 249.19 659.61 249.76 658.89 250.57 658.72 250.87 658.65 251.3 658.76 251.61 658.91 251.91 659.09 252.68 659.31 252.98 659.82 253.54 660.03 253.88 660.06 254.12 659.95 254.37 659.72 254.75 659.75 254.98 660.19 256.54 660.32 256.85 660.52 257.13 660.79 257.42 661.16 258.82 661 259.24 660.78 259.47 660.02 259.77 659.17 259.39 658.58 258.8 658.07 258.13 657.42 257.5 656.15 256.64 655.41 255.82 655.14 255.59 654.31 255.18 649.98 254.49 649.13 254.46 647.55 254.69 645.69 254.6 644.69 254.3 644.16 253.76 643.27 252.19 642.65 251.71 641.11 251.17 640.41 250.65 640.13 250.29 639.93 249.92 639.82 249.52 639.8 249.07 639.91 248.32 639.77 248.12 639.27 248.02 638.5 248.13 636.98 248.7 636.24 248.68 635.48 248.46 634.19 248.4 632.63 247.93 630.26 247.75 629.93 247.62 629.26 247.21 628.45 246.86 626.53 246.36 625.23 246.27 624.37 246.31 623.97 246.42 623.26 246.76 622.92 246.85 622.51 246.84 621.71 246.62 621.33 246.57 620.43 246.67 619.53 246.63 617.44 246.77 616.57 246.67 615.46 246.18 615.02 246.06 614.57 246.02 614.13 246.07 613.95 246.12 613.63 246.28 613.13 246.45 612.9 246.33 612.77 246.22 612.69 246.09 612.57 245.97 611.25 245.74 609.96 245.7 609.55 245.76 608.53 246.13 608.2 246.12 607.82 245.96 607.48 245.75 607.1 245.6 606.33 245.61 605.78 245.47 605.48 245.45 605.18 245.5 604.35 245.8 603.71 245.94 601.79 245.7 601.44 245.69 601.12 245.69 600.79 245.63 600.5 245.46 599.94 244.88 599.73 244.74 599.06 244.56 596.84 244.28 596.46 244.16 596.08 244.21 595.3 244.43 594.44 244.44 594.05 244.49 593.67 244.69 593.26 245.05 593.11 245.11 593 245.12 592.64 245.07 592.5 245.09 592.45 245.16 592.43 245.25 592.35 245.32 591.6 245.62 591.22 245.69 590.36 245.67 589.6 245.92 589.2 245.99 588.68 245.92 587.67 245.6 587.15 245.56 586.79 245.67 586.21 246.09 585.86 246.17 585.67 246.1 585.45 245.79 585.25 245.69 585.01 245.7 584.63 245.83 584.42 245.86 582.74 245.47 580.97 245.47 579.54 245.22 579.03 245.22 577.75 245.54 577.31 245.52 575.77 245.19 575.01 245.11 574 245.17 573.99 245.17 573.34 244.72 569.61 244.32 570.95 243.6 569.33 242.56 567.05 241.86 565.37 240.85 564.79 240.12 564.52 239.64 564.36 239.01 564.03 238.12 565.27 236.18 566.6 234.78 564.95 234.1 563.2 234.1 562.58 233.51 561.81 233.73 560.23 233.45 558.58 232.94 563.56 226.8 564.45 225.04 564.61 222.87 563.06 221.44 561.14 220.08 557.81 218.71 553.51 218.27 550.62 216.33 549.58 214.3 549.23 211.59 541.73 206.67 540.87 205.38 540.54 203.69 538.64 203.38 536.74 203.34 535.04 201.5 535.7 199.81 540.53 199.6 540.07 198.67 539.73 197.62 539.29 194.39 539.79 189.68 542.29 186.19 553.58 177.52 566.1 172.05 570.66 172.23 575.73 171.84 580.91 172.01 584.18 172.63 585.23 172.53 585.39 172.7 585.62 172.73 585.72 172.38 587.34 173.03 587.74 173.3 587.93 173.34 588.01 173.11 588.02 172.83 588.04 172.7 588.12 172.62 588.28 172.51 588.47 172.41 589.43 172.12 589.68 172.13 590.67 172.31 591.09 172.32 591.47 172.21 591.88 171.97 591.99 172.13 592.03 172.32 591.96 172.5 591.75 172.63 592.03 172.99 592.56 173.25 594.38 173.77 595.49 174.23 596.04 174.38 595.54 173.89 594.73 173.25 594.04 172.57 593.89 171.97 594.18 171.83 594.6 172 595.57 172.81 595.75 172.88 595.98 172.91 596.21 172.9 596.71 172.78 597.68 172.69 598.53 172.91 599.27 173.4 599.92 174.11 599.95 174.26 599.89 174.38 599.92 174.5 600.2 174.63 600.42 174.64 601.75 174.41 602 174.16 602.2 173.86 602.45 173.58 602.84 173.37 603.3 173.25 604.91 173.14 606.35 172.78 606.91 172.82 607.31 172.65 609.02 172.12 609.24 169.37 608.65 162.37 610.12 161.84 613.93 162.27 615.83 161.26 617.74 160.71 618.99 161.61 622.22 159.84 627.82 161.99 629.34 162.94 631.23 163.14 632.56 164.44 635.37 164.66 637.25 164.52 642.4 165.18 645.98 168.48 656.28 168.14 661.13 169.4 661.22 170.26 662.74 170.94 671.14 173.76 676.53 174.7 678.71 174.77 680 175.24 680.55 175.73 682.74 175.67 683.46 176.05 683.54 176.54 687.27 177.7 688.1 179.25 693.3 184.08 694.67 187.22 696.64 189.12 697.72 191.4 697.43 193.38 700.35 194.15 700.79 194.03 700.79 194.03 Z M 594.27 239.99 595.48 239.94 596.56 240.18 597.35 239.57 597.91 238.31 597.96 236.53 597.23 236.1 596.09 236.34 595.39 236.81 594.73 237.47 594.13 238.26 593.57 238.63 593.57 239.57 594.27 239.99 Z" fill-rule="evenodd" id="KAZ-3207" data-name="Almaty"/>
<path d="M 82.69 206.05 83.05 206.12 83.34 206.02 83.52 205.87 83.64 205.75 83.75 205.76 83.8 205.9 83.88 206 84.03 206.02 84.16 206.23 84.2 206.66 84.2 206.89 84.33 207.08 84.61 207.39 84.67 207.5 84.25 207.43 83.99 207.48 83.73 207.6 83.44 207.64 83.36 207.51 83.52 207.31 83.52 207.19 83.32 207.14 83.26 207.03 83.35 206.83 83.22 206.59 82.32 206.16 82.04 205.82 82.07 205.5 82.22 205.5 82.37 205.78 82.69 206.05 Z M 70.39 206.21 70.64 206.34 70.94 206.25 70.95 206.74 71.02 207.21 71.24 207.56 71.69 207.7 71.91 207.76 72.08 207.87 72.27 207.97 72.57 207.98 73.2 207.63 73.5 207.57 73.13 208.18 72.6 208.42 71.98 208.37 71.35 208.11 71.05 207.91 70.96 207.73 70.94 207.51 70.82 207.18 70.62 206.91 69.89 206.38 69.53 205.9 69.53 205.49 70.62 203.74 70.82 203.58 71.13 203.46 72.02 203.3 72 203.64 70.85 204.1 70.55 204.57 70.49 204.84 70.21 205.33 70.15 205.64 70.22 205.95 70.39 206.21 Z M 76.61 203.2 76.71 203.43 76.53 203.84 76.4 204.02 76.25 204.1 76.18 204.21 76.31 204.97 76.14 205.38 75.75 205.65 75.3 205.73 74.97 205.57 74.82 205.13 74.89 204.67 75.04 204.2 75.11 203.76 75.22 203.46 75.45 203.33 75.68 203.3 75.78 203.3 75.88 203.29 76.25 203.3 76.41 203.25 76.52 203.18 76.61 203.2 Z M 122.6 196.94 122.11 197.1 121.15 196.85 120.38 196.4 119.84 195.94 119.66 195.51 119.94 195.22 120.26 195.05 120.47 194.92 120.56 194.76 120.5 194.63 120.6 194.55 121.29 194.59 121.68 194.67 122.03 195.02 122.31 195.58 122.41 195.88 122.54 196.24 122.61 196.55 122.6 196.94 Z M 196.27 183.67 197.6 186.23 200.84 201.6 200.85 201.69 200.85 201.7 199.42 202.02 197.59 202.44 195.76 202.85 193.93 203.27 192.09 203.69 190.27 204.1 188.43 204.52 186.6 204.93 186.6 204.93 186.6 204.93 186.6 204.93 186.6 204.94 186.6 204.94 186.59 204.94 186.59 204.94 186.59 204.94 186.59 204.94 186.59 204.94 186.59 204.94 186.58 204.94 186.58 204.94 186.58 204.94 186.58 204.94 186.58 204.94 186.58 204.94 186.58 204.95 186.57 204.95 186.57 204.95 186.57 204.95 186.57 204.95 186.57 204.95 186.57 204.95 186.57 204.95 186.57 204.95 186.56 204.95 186.56 204.95 186.56 204.96 186.56 204.96 186.56 204.96 186.56 204.96 186.56 204.96 186.56 204.96 186.56 204.96 186.56 204.96 186.56 204.96 186.56 204.97 186.56 204.97 186.56 204.97 186.56 204.97 186.55 204.97 186.55 204.97 186.55 204.97 186.55 204.97 186.55 204.97 186.55 204.97 186.55 204.98 186.55 204.98 186.55 204.98 186.55 204.98 186.55 204.98 186.55 204.98 186.55 204.99 186.55 204.99 186.55 204.99 186.55 204.99 186.55 204.99 186.55 204.99 186.55 204.99 186.56 209.48 186.56 213.96 186.56 218.44 186.57 222.93 186.57 227.41 186.57 231.89 186.58 236.38 186.58 240.86 186.58 245.34 186.58 249.82 186.59 254.31 186.59 258.79 186.59 263.27 186.6 267.76 186.6 272.24 186.6 276.72 185.27 276.63 184.62 276.67 182.87 277.31 181.06 277.51 179.9 277.84 177.44 277.95 176.83 277.8 176.29 277.56 175.88 277.33 175.55 276.99 175 276 174.77 275.67 174.46 275.41 173.24 274.77 172.55 274.32 171.95 273.77 170.71 272.12 169.44 270.42 168.56 269.53 166.53 267.47 166.32 267.11 166.22 266.72 166.25 266.3 166.33 265.96 166.33 265.63 166.14 265.24 165.67 264.8 162.38 262.53 160.06 261.38 158.09 260.4 154.8 258.76 151.77 257.26 150.35 256.88 148.87 256.72 144.19 257.35 141.2 257.76 137.76 258.22 136.47 258.43 132.16 259.7 131.05 260.19 128 261 123.82 263.59 123.82 263.6 123.81 263.6 121.21 265.54 118.23 267.76 117.43 268.38 117.39 267.99 117.54 267.56 118.29 266.13 118.47 265.38 118.34 264.61 118.14 264.2 117.89 263.88 117.7 263.74 117.51 263.62 117.35 263.46 117.29 263.2 117.42 262.54 117.41 262.34 117.3 262.16 116.73 261.66 116.95 261.39 117.13 261.02 117.25 260.63 117.29 260.27 117.4 259.96 117.68 259.8 118.03 259.7 118.34 259.53 119.3 258.16 120.36 257.09 120.48 256.92 120.58 256.74 120.62 256.51 120.6 256.09 120.62 255.88 120.69 255.72 121.27 255.29 121.44 255.1 121.5 254.94 121.53 254.61 121.57 254.45 121.9 253.67 122.09 252.95 122.1 252.25 121.84 251.5 121.34 250.66 120.96 250.22 120.13 249.82 119.9 249.39 119.89 248.97 120.1 248.82 120.24 249.03 120.39 249.44 120.61 249.84 120.97 250.02 121.15 250.07 121.84 250.42 121.93 250.56 121.97 250.71 122 250.82 122.1 250.82 122.38 251.53 122.57 251.88 122.76 252.03 122.97 251.88 123.19 251.48 123.36 251.01 123.43 250.63 123.26 249.77 122.81 249.19 122.1 248.88 121.17 248.82 121.09 248.34 120.1 247.87 118.08 247.33 116.14 247.21 115.86 247.22 115.62 247.27 115.39 247.35 115.14 247.48 115.03 247.59 114.82 247.93 114.73 248.02 114.21 247.87 112.91 246.55 112.18 246.14 111.72 246.11 110.02 246.31 108.72 246.68 108 247.05 107.56 247.16 107.17 247.01 106.02 246.01 105.75 245.7 105.32 245.08 105.02 244.74 104.83 244.44 104.63 243.71 104.42 243.33 103.49 242.56 103.24 242.16 102.99 242.09 102.71 242.06 102.54 241.98 102.45 241.73 102.51 241.57 102.62 241.41 102.69 241.18 102.61 240.81 102.39 240.42 102.06 240.19 101.3 240.47 100.35 240.43 99.89 240.52 99.73 240.63 99.61 240.76 99.48 240.87 99.28 240.92 99.03 240.87 98.58 240.68 98.33 240.64 96.53 240.92 94.73 240.92 94.47 240.72 94.54 240.27 95.25 238.68 95.45 237.85 95.58 235.29 95.49 234.9 94.87 234 94.78 233.82 94.75 233.63 94.72 233.19 94.67 233.02 94.37 232.75 93.6 232.34 93.45 232.01 93.38 231.73 93.22 231.7 93 231.77 92.78 231.81 92.53 231.77 92.39 231.73 92.11 231.55 91.59 231.02 89.79 228.29 89.63 227.94 89.57 227.6 89.51 227.41 89.38 227.25 89.24 227.1 89.17 226.99 89.15 226.8 89.2 226.38 89.17 226.19 89.01 225.98 88.43 225.59 88.3 225.43 88.14 225.07 87.85 224.73 87.61 224.35 87.42 224.18 87.22 224.1 86.78 224 86.62 223.9 86.47 223.64 86.48 223.47 86.57 223.3 86.62 223.04 86.55 221.41 86.47 221.01 86.36 220.7 85.86 220.2 85.07 219.79 83.41 219.23 76.54 218.32 75.65 218.02 75.23 217.82 74.79 217.54 74.44 217.18 74.3 216.76 74.43 215.88 74.45 215.45 74.3 215.09 74.45 214.94 74.25 214.59 74.14 213.95 74.19 213.31 74.45 212.94 74.77 213.5 75.05 213.25 75.24 212.71 75.31 212.41 75.52 212.3 75.57 212.07 75.58 211.8 75.65 211.59 75.88 211.46 76.06 211.5 76.23 211.63 76.45 211.74 79.53 212.17 80.46 212.14 81.38 211.9 81.86 211.9 82.06 212.21 82.36 212.27 84.08 212.27 84.37 212.5 84.59 212.58 84.81 212.47 84.95 212.27 85.02 212.13 85.12 212.04 85.35 212.01 86.37 212.03 86.86 212.11 87.29 212.27 87.98 212.74 88.57 213.27 88.76 213.35 89.23 213.29 89.43 213.34 89.56 213.5 89.51 213.62 89.36 213.71 89.17 213.74 89.48 214.07 89.99 214.32 91.58 214.85 92.14 214.93 92.71 214.91 93.3 214.81 93.74 214.63 94.78 213.87 94.83 213.82 94.86 213.75 94.92 213.68 95.05 213.61 95.19 213.58 95.66 213.61 95.96 213.57 96.5 213.45 96.79 213.46 96.64 214.09 97.21 214.21 98.54 214.01 99.85 214.45 100.29 214.41 100.55 214.16 100.45 213.89 100.17 213.64 99.89 213.46 98.71 213 97.92 212.48 97.46 212.44 96.53 212.66 95.58 212.75 95.04 212.39 94.38 210.94 93.92 210.35 93.27 209.92 91.7 209.19 91.5 209.05 91.37 208.92 91.22 208.83 90.52 208.76 90.31 208.7 90.22 208.58 90.01 208.42 88.77 207.85 88.61 207.52 88.56 207.08 88.67 206.68 88.97 206.51 89.14 206.44 89.22 206.28 89.22 206.1 89.17 205.97 88.94 205.86 88.68 205.85 88.45 205.79 88.36 205.57 88.55 205.27 88.99 205.07 89.51 204.94 89.89 204.9 90.39 204.95 90.61 204.92 90.89 204.77 91.03 204.64 91.25 204.37 91.44 204.23 92.28 203.81 92.75 203.64 93.18 203.58 93.51 203.74 93.87 204.07 94.25 204.35 94.67 204.38 94.85 204.13 94.71 203.75 94.44 203.36 94.18 203.09 94.1 202.89 94.18 202.65 94.31 202.42 94.38 202.23 94.35 202.1 94.19 201.8 94.12 201.7 94.25 201.43 94.48 201.1 95.08 200.45 95.19 200.15 95.38 199.83 97.1 198.36 97.27 198.05 97.34 197.61 97.46 197.24 97.74 197.42 98.26 198.07 98.99 198.32 99.96 198.32 100.93 198.13 101.61 197.81 102.21 197.33 102.39 197.25 102.83 197.27 103.02 197.2 103.31 196.86 103.53 196.47 103.79 196.13 104.16 195.93 104.39 196.11 104.61 196.38 104.76 196.67 104.82 196.94 106.5 197.14 106.81 197.22 107.34 197.6 107.71 197.68 108.05 197.6 108.68 197.22 109.05 197.14 109.49 197.18 110.29 197.37 110.72 197.41 116.75 196.86 117.59 197.03 119.02 196.87 119.95 197.03 123.24 198.06 125.19 198.28 126.17 198.64 126.65 198.75 128.46 198.61 128.97 198.68 130.04 198.97 130.53 199.01 130.94 198.9 131.75 198.56 132.21 198.48 132.33 198.44 132.57 198.26 132.68 198.21 133.16 198.31 133.21 198.34 133.34 198.28 133.52 198.16 133.64 198 133.61 197.81 133.25 197.64 131.21 197.36 131.04 197.25 130.93 197.12 130.8 197.01 130.6 196.93 130.01 196.87 129.11 196.68 126.65 195.81 126.17 195.73 125.99 195.66 125.63 195.31 125.49 195.2 125.3 195.15 124.59 195.07 123.63 194.76 123.31 194.59 123.4 194.34 123.3 194.17 123.18 194.03 123.23 193.86 123.39 193.66 123.39 193.51 123.34 193.38 123.31 193.19 123.34 192.73 123.45 192.37 123.67 192.14 124.04 192.06 124.36 191.91 124.58 191.56 124.9 190.85 125.66 189.92 125.72 189.87 125.72 189.87 129.18 190.43 138.89 188.73 143.22 186.86 141.98 185.88 143.82 184.57 146.96 181.66 148.51 181.31 149.63 181.37 150.29 180.99 165.6 178.8 172.31 178.56 176.81 175.94 180.68 178.33 182.03 177.75 183.64 178.84 183.74 180.73 185.9 181.44 187.81 181.28 188.49 182.13 189.62 182.68 191.65 182.58 193.14 182.99 194.13 182.97 196.27 183.67 Z" fill-rule="evenodd" id="KAZ-3236" data-name="Mangghystau"/>
<path d="M 444.34 186.56 446.81 189.38 451.09 197.27 456.73 211.44 458.81 221.07 458.93 222.54 458.29 223.23 453.56 233.51 451.82 235.27 451.38 235.88 452.4 236.17 453.12 236.68 453.02 237.51 454.18 238.77 455.01 239.08 457.07 239.61 458.71 239.68 459.63 239.88 460.99 240.47 462.56 240.87 462.97 242.11 463.61 242.66 464.41 242.57 464.92 242.99 464.49 243.64 465.55 244.26 465.3 244.79 465.76 245.49 465.55 246.91 465.78 248.62 466.86 249.77 468.27 250.06 469.09 250.31 470.39 251.16 471.24 252.01 471.78 252.7 472.72 252.96 474.71 254.64 476.14 255.07 476.24 255.64 476.73 255.88 476.81 256.12 477.83 256.85 477.9 256.85 477.91 256.86 477.44 257.19 477.2 257.49 477.31 257.78 478.09 258.36 478.49 258.52 479.06 258.62 478.4 259.03 477.74 259.43 477.37 259.57 477 259.71 476.63 259.75 476.26 259.79 475.81 259.7 475.36 259.6 475.12 259.61 474.89 259.62 474.75 259.76 474.61 259.9 474.53 260.08 474.45 260.26 474.35 260.39 474.24 260.52 473.97 260.77 473.7 261.01 473.47 261.33 473.24 261.65 473.06 262 472.88 262.36 472.67 262.65 472.47 262.94 472.16 263.04 471.86 263.15 471.62 263.13 471.39 263.11 471.19 263.04 470.98 262.98 470.83 262.87 470.68 262.75 470.61 262.57 470.54 262.39 470.47 262.26 470.4 262.13 470.24 262 470.09 261.87 469.91 261.78 469.73 261.68 469.59 261.66 469.44 261.64 468.49 261.95 467.54 262.26 467.12 262.53 466.7 262.8 466.46 263.2 466.22 263.59 466.15 263.76 466.07 263.94 465.95 264.04 465.83 264.14 465.67 264.21 465.5 264.27 465.33 264.32 465.15 264.36 464.98 264.44 464.82 264.51 464.67 264.62 464.53 264.73 463.87 265.58 463.21 266.44 462.96 266.65 462.72 266.87 461.9 267.32 461.09 267.77 460.54 267.92 460 268.07 459.85 268.16 459.7 268.25 459.56 268.41 459.43 268.56 459.13 268.82 458.83 269.08 458.43 269.21 458.02 269.34 456.93 269.37 455.84 269.4 454.53 269.68 453.21 269.95 453.04 270.05 452.88 270.15 452.6 270.39 452.32 270.63 451.33 271.22 450.33 271.81 449.78 271.94 449.22 272.08 448.96 272.22 448.7 272.36 448.58 272.62 448.45 272.87 448.48 272.98 448.52 273.08 448.68 273.3 448.84 273.53 448.86 273.63 448.87 273.73 448.75 273.78 448.64 273.83 448.06 273.75 447.48 273.67 447.33 273.7 447.18 273.73 446.81 273.91 446.43 274.1 446.29 274.11 446.14 274.13 445.86 274.05 445.57 273.97 445.41 273.99 445.25 274.02 444.72 274.27 444.19 274.53 443.95 274.71 443.71 274.88 443.61 275.09 443.51 275.29 443.33 275.23 443.15 275.18 442.96 275.22 442.78 275.27 442.33 275.43 441.88 275.6 441.8 275.65 441.71 275.7 441.67 275.77 441.62 275.84 441.65 275.92 441.68 276 441.77 276.09 441.86 276.17 441.91 276.2 441.95 276.22 441.98 276.26 442.01 276.29 442.03 276.41 442.06 276.52 442.07 276.69 442.08 276.85 441.92 277.77 441.77 278.7 441.69 278.82 441.62 278.93 441.45 279.05 441.28 279.18 440.95 279.35 440.61 279.53 440.26 279.66 439.91 279.79 439.49 279.83 439.07 279.87 438.87 279.92 438.67 279.97 438.54 280.1 438.42 280.22 438.17 280.54 437.93 280.86 437.26 281.08 436.59 281.3 436.32 281.53 436.05 281.76 435.69 282.54 435.33 283.33 435.14 283.51 434.94 283.69 434.34 283.89 434.16 283.95 433.74 284.09 433.47 284.23 433.2 284.37 433.09 284.6 432.98 284.83 432.94 284.81 432.89 284.79 432.8 284.76 432.71 284.74 432.67 284.72 432.62 284.7 432.62 284.81 432.62 284.91 432.64 285.13 432.67 285.35 432.66 285.44 432.64 285.54 432.58 285.65 432.52 285.76 432.45 285.8 432.39 285.83 432.34 285.88 432.28 285.93 432.24 286.08 432.21 286.23 432.31 287.05 432.41 287.87 432.47 288.05 432.54 288.23 432.62 288.31 432.7 288.39 432.79 288.43 432.88 288.47 433.13 288.52 433.38 288.56 433.37 288.68 433.36 288.8 433.4 288.93 433.43 289.05 433.49 289.17 433.56 289.29 433.64 289.4 433.73 289.51 433.71 289.58 433.69 289.64 433.45 289.94 433.21 290.24 433.4 290.31 433.59 290.39 433.53 290.52 433.47 290.65 433.26 290.74 433.06 290.83 432.8 290.8 432.53 290.77 432.14 290.63 431.75 290.48 431.64 290.46 431.53 290.45 431.44 290.5 431.35 290.54 431.29 290.63 431.24 290.71 431.17 290.78 431.09 290.85 430.94 290.84 430.8 290.84 430.68 290.93 430.56 291.02 430.52 291.07 430.49 291.12 428.19 290.2 426.68 289.6 425.89 289.28 425.23 288.89 424.58 288.5 423.68 287.82 422.79 287.15 422.49 287.02 422.19 286.89 421.81 286.83 421.42 286.77 421.36 286.73 421.29 286.7 421.32 286.62 421.35 286.55 421.44 286.48 421.53 286.42 421.87 286.31 422.22 286.19 422.38 286.09 422.54 285.99 422.68 285.87 422.83 285.75 422.94 285.62 423.04 285.49 423.19 285.24 423.35 284.98 423.49 284.66 423.63 284.34 423.73 284.01 423.83 283.69 423.83 283.41 423.83 283.13 423.75 283.01 423.67 282.9 423.63 282.85 423.58 282.81 423.5 282.78 423.42 282.74 423.5 282.71 423.58 282.68 423.81 282.55 424.04 282.43 424.01 282.41 423.98 282.39 423.89 282.37 423.79 282.34 423.82 282.25 423.84 282.16 423.84 282.14 423.84 282.12 423.8 281.91 423.76 281.7 423.55 281.72 423.35 281.74 423.21 281.95 423.08 282.17 422.97 282.07 422.87 281.97 422.74 281.95 422.62 281.94 422.5 281.98 422.38 282.03 422.26 282.1 422.14 282.17 422.01 282.01 421.88 281.85 421.8 281.47 421.73 281.1 421.63 280.92 421.53 280.75 421.1 280.32 420.67 279.89 420.6 279.79 420.53 279.68 420.51 279.66 420.48 279.65 420.37 279.37 420.25 279.09 420 279.21 419.75 279.34 419.19 279.62 418.62 279.9 418.43 279.92 418.25 279.94 418.03 279.89 417.82 279.83 417.41 279.67 417 279.51 416.77 279.46 416.55 279.41 414.05 279.52 411.52 279.64 409.93 279.71 407.44 279.82 405.35 279.92 402.5 280.05 400.59 280.13 398.32 280.24 397.52 280.08 397.2 280.02 396.72 279.92 396.28 279.52 395.84 279.12 395.01 276.24 394.17 273.36 393.55 270.95 392.92 268.54 392.58 266.07 392.25 263.6 392.2 263.58 392.15 263.56 392.08 263.55 392.02 263.53 391.94 263.53 391.87 263.53 391.8 263.54 391.72 263.55 389.36 263.54 387.23 263.53 385.09 263.53 382.73 263.52 382.65 263.47 382.57 263.42 382.54 263.31 382.52 263.21 382.59 259.4 382.65 256.19 384.48 256.4 386 256.58 392.1 252.17 395.05 251.07 396.78 251.57 400.95 248.83 410.42 244.22 419.99 240.8 420.91 240.11 420.36 239.86 419 239.02 418.87 237.65 418.12 237.61 418.14 236.89 417.43 237.13 416.85 238.75 416.55 236.85 418.25 235.68 418.75 233.93 420.14 232.12 420.27 230.12 422.27 230.95 423.04 229.42 422.84 228.09 422.35 227.34 423.65 226.2 425.43 226.19 425.42 224.92 420.85 222.44 419.01 220.81 418.81 220.22 417.67 219.61 416.48 219.22 415.66 219.36 413.8 218.33 413.53 203.46 412.02 202.12 409.44 201 407.64 199.91 407.69 197.61 408.95 192.97 410.45 191.22 409.68 189.22 407.58 188.04 407.32 186.15 444.34 186.56 Z" id="KAZ-3251" data-name="South Kazakhstan"/>
<path d="M 574 245.17 573.8 245.18 573.51 245.24 573.28 245.39 572.65 246.64 572.44 246.89 571.98 247.25 571.42 247.54 570.85 247.72 570.35 247.74 569.09 247.35 568.7 247.31 567.93 247.37 563.53 246.95 562.23 246.96 561.72 246.87 560.54 246.35 560.07 246.08 559.52 245.84 558.33 245.57 557.78 245.37 557.22 245.01 555.55 244.41 553.32 244.13 552.64 243.94 550.64 242.8 550.36 242.56 549.87 241.94 549.6 241.69 549.23 241.53 548.43 241.37 547.73 241.03 546.91 240.97 546.52 240.82 545.51 240.2 544.95 239.99 544.3 239.89 543.75 239.72 542.75 239.05 542.18 238.82 542.72 239.36 542.92 239.7 542.87 239.98 542.55 240.11 539.47 240.38 539.11 240.29 538.41 239.8 538.02 239.7 537.42 240.03 536.77 241.38 536.04 241.67 535.23 241.64 534.89 241.69 531.54 242.71 530.62 243.11 530.31 243.31 530.09 243.6 529.35 245.18 528.95 245.71 528.79 245.99 528.72 246.32 528.77 246.65 529.01 247.3 529.06 247.66 528.99 247.96 528.47 248.8 527.44 250.52 527.22 251.22 527.17 251.95 527.31 252.61 527.61 253.22 529.02 255.24 529.03 255.25 529.02 255.6 528.47 255.67 527.31 255.32 525.53 255.1 525.3 254.84 525.28 254.42 525.34 253.83 525.04 253.56 524.59 253.44 523.2 253.37 522.85 253.3 522.53 253.16 522.14 252.94 521.4 252.71 520.54 252.69 518.03 253 517.36 252.98 516.7 252.84 516.04 252.61 515.55 252.28 514.87 251.35 514.41 250.96 513.8 250.72 511.02 250.22 509.62 250.23 508.93 250.14 506.62 248.99 505.33 248.6 502.82 248.52 502.53 248.58 501.96 248.78 501.67 248.81 501.04 248.68 498.78 247.75 497.57 247.53 497.25 247.42 496.95 247.27 496.64 247.18 496.32 247.22 495.65 247.41 494.27 247.46 493.63 247.61 491.48 248.63 491.15 248.68 490.9 248.61 490.13 248.12 489.93 248.04 489.73 248.06 489.4 248.16 488.46 247.93 487.99 247.94 487.64 248.17 487.43 248.46 487.17 248.74 486.87 248.96 486.52 249.07 486.11 249.01 485.64 248.85 485.21 248.75 484.88 248.87 484.45 249.44 484.21 249.69 483.9 249.85 483.16 250.03 482.99 250.23 482.94 250.64 482.97 251.41 482.87 251.7 482.56 251.93 480.88 252.13 480.14 252.46 480.33 253.19 480.53 253.38 481.21 253.83 481.21 253.83 481.21 253.83 481.21 253.83 481.38 254.05 481.34 254.28 481.15 254.48 480.88 254.59 480.56 254.56 479.64 254.12 479.34 254.33 479.06 254.65 478.83 255.04 478.71 255.42 478.75 255.63 478.86 255.76 478.91 255.89 478.77 256.12 478.13 256.7 477.91 256.86 477.9 256.85 477.83 256.85 476.81 256.12 476.73 255.88 476.24 255.64 476.14 255.07 474.71 254.64 472.72 252.96 471.78 252.7 471.24 252.01 470.39 251.16 469.09 250.31 468.27 250.06 466.86 249.77 465.78 248.62 465.55 246.91 465.76 245.49 465.3 244.79 465.55 244.26 464.49 243.64 464.92 242.99 464.41 242.57 463.61 242.66 462.97 242.11 462.56 240.87 460.99 240.47 459.63 239.88 458.71 239.68 457.07 239.61 455.01 239.08 454.18 238.77 453.02 237.51 453.12 236.68 452.4 236.17 451.38 235.88 451.82 235.27 453.56 233.51 458.29 223.23 458.93 222.54 458.81 221.07 456.73 211.44 451.09 197.27 446.81 189.38 444.34 186.56 542.29 186.19 539.79 189.68 539.29 194.39 539.73 197.62 540.07 198.67 540.53 199.6 535.7 199.81 535.04 201.5 536.74 203.34 538.64 203.38 540.54 203.69 540.87 205.38 541.73 206.67 549.23 211.59 549.58 214.3 550.62 216.33 553.51 218.27 557.81 218.71 561.14 220.08 563.06 221.44 564.61 222.87 564.45 225.04 563.56 226.8 558.58 232.94 560.23 233.45 561.81 233.73 562.58 233.51 563.2 234.1 564.95 234.1 566.6 234.78 565.27 236.18 564.03 238.12 564.36 239.01 564.52 239.64 564.79 240.12 565.37 240.85 567.05 241.86 569.33 242.56 570.95 243.6 569.61 244.32 573.34 244.72 573.99 245.17 574 245.17 Z" id="KAZ-3252" data-name="Zhambyl"/>
<path d="M 594.27 239.99 593.57 239.57 593.57 238.63 594.13 238.26 594.73 237.47 595.39 236.81 596.09 236.34 597.23 236.1 597.96 236.53 597.91 238.31 597.35 239.57 596.56 240.18 595.48 239.94 594.27 239.99 Z" id="KAZ-4829" data-name="Almaty City"/>
<path d="M 489.26 88.13 488.4 87.74 487.58 86.85 486.72 86.11 485.71 85.36 484.97 84.59 484.85 83.81 485.01 83.03 485.59 82.4 486.21 82.01 487.46 81.66 488.4 81.78 489.92 82.56 490.78 83.38 491.44 83.61 491.94 84.51 491.83 85.75 491.32 86.92 490.39 87.78 489.26 88.13 Z" id="KAZ-4830" data-name="Astana"/>
</g>
</svg>