<?xml version="1.0"?>
<svg xmlns="http://www.w3.org/2000/svg" version="1.2" baseProfile="tiny" width="800" height="479" viewBox="0 0 800 479" stroke-linecap="round" stroke-linejoin="round">
<g id="ne_10m_admin_1_states_provinces">
<path d="M 77.17 61.84 83.74 64.4 85.86 64.72 88.61 64.53 93.12 63.5 95.14 63.77 97.11 65.48 101.55 68.63 121.16 74.38 130.04 75.75 133.22 76.7 133.39 77.55 131.45 78.35 128.32 79.19 125.29 82.04 128.54 85.93 134.18 89.57 136.81 90.79 132.67 92.5 127.31 94.49 123.67 96.93 121.08 100.23 113.32 100.14 109.06 102.54 110.74 106.53 112.45 110.45 110.93 115.21 106.86 118.47 102.69 119.43 98.64 120.28 96.26 122.67 93.66 125.42 92.15 129.46 92.14 129.48 90.22 129.1 88.54 127.72 89.74 123.3 88.91 120.08 85.14 120.39 83.84 120.88 83.83 120.83 83.56 119.79 83.21 115.11 82.26 110.46 81.83 108.6 81.85 106.65 82.63 105.77 83.47 104.76 83.05 103.71 82.59 102.58 86.13 93.93 85.5 90.61 85.24 88.94 84.76 88.82 69.37 87.46 66.15 86.32 60.65 83.46 54.7 82.41 52.03 81.2 45.69 76.54 45.16 75.63 45.09 74.72 65.79 61.82 70.17 60.67 74.63 60.85 77.17 61.84 Z" id="AZE-1676" data-name="Ağstafa"/>
<path d="M 178.9 170.56 183.95 173.06 188.79 175.87 192.59 177.61 195.73 179.61 191.25 184.86 186.33 190.47 189.85 194.63 194.46 197.68 199.01 200.27 198.94 204.37 192.67 209.66 189.37 216.88 179.84 217.61 170.39 217.04 161.81 215.85 154.13 218.13 152.94 223.04 152.92 223.1 152 223.3 149.26 223.19 143.46 218.3 144.63 215.88 144.7 213.81 146.02 212.31 147.02 209.5 147.1 206.17 148.59 203.45 147.4 200.74 145.59 198.48 143.99 196.1 146.36 187.4 156.09 182.83 161.58 177.25 167.02 171.28 172.35 167.89 178.9 170.56 Z" id="AZE-1677" data-name="Daşkəsən"/>
<path d="M 156.09 182.83 146.36 187.4 143.99 196.1 145.59 198.48 147.4 200.74 148.59 203.45 147.1 206.17 147.02 209.5 146.02 212.31 144.7 213.81 144.63 215.88 143.46 218.3 143.36 218.21 111.59 204.44 103.51 198.67 99.1 191.5 97.95 189.91 95.12 188.49 93.86 187.41 93.23 185.94 92.92 182.93 92.39 181.58 90.01 179.32 87.26 177.66 84.64 175.7 82.69 172.53 82.7 170 82.7 166.72 86.14 162.14 91.47 158.8 96.98 156.78 97.88 158.29 98.6 162.76 102.62 164.74 107.68 164.84 111.91 166.2 114.69 169.11 114.33 172.84 117.49 174.43 120.75 176.44 124.15 177.68 127.46 175 128.49 170.83 129.18 164.44 129.08 158.51 128.55 152.52 130.3 146.55 132.82 149.07 135.33 151.37 137.01 153.62 137.91 156.41 142.17 161.83 147.97 165.47 153.09 169.23 156.21 173.43 155.69 176.45 156.09 179.69 155.16 181.29 156.09 182.83 Z M 102.69 168.75 100.7 168.78 98.82 169.21 97.11 170.14 96.31 171.5 96.03 172.92 96.29 174.34 97.11 175.65 101.8 176.73 106.37 174.05 108.22 170.5 104.67 168.96 102.69 168.75 Z" fill-rule="evenodd" id="AZE-1678" data-name="Gədəbəy"/>
<path d="M 224.29 165.34 220.37 170.25 215.3 173.91 210.08 173.39 208.82 169.16 209.87 166.96 210.86 164.87 212.38 163.25 213.73 161.58 214.6 160 221.52 160.12 224.29 165.34 Z" id="AZE-1679" data-name="Gəncə"/>
<path d="M 214.6 160 213.73 161.58 212.38 163.25 210.86 164.87 209.87 166.96 208.82 169.16 210.08 173.39 215.3 173.91 220.37 170.25 224.29 165.34 232.32 165.84 236.04 172.4 235.76 180.5 237.81 182.33 236.99 184.72 233.99 187.48 230.88 190.14 225.9 193.68 221.45 197.74 218.8 201.03 215.69 203.94 211.59 211.71 211.47 221.16 200.04 219.86 189.37 216.88 192.67 209.66 198.94 204.37 199.01 200.27 194.46 197.68 189.85 194.63 186.33 190.47 191.25 184.86 195.73 179.61 192.59 177.61 188.79 175.87 183.95 173.06 178.9 170.56 183.9 167.86 189.43 166.88 193.88 166.94 197.56 164.86 198.3 162.5 198.71 160.09 199.82 158.11 200.89 156.14 201.24 153.47 201.78 150.87 203.75 148.04 205.95 145.24 210.03 151.99 214.6 160 Z" id="AZE-1680" data-name="Xanlar"/>
<path d="M 294.15 193.36 290.89 195.73 287.83 198.02 285.14 199.34 282.5 200.83 279.73 202.46 278.4 203.05 276.79 203.77 271.7 203.89 270.69 203.86 266.6 203.75 259.84 206.04 253.28 209.17 248.15 210.69 246.58 211.15 245.72 211.41 243.83 213.31 241.9 215.24 241.02 216.12 226.68 222.96 216.81 221.79 211.47 221.16 211.59 211.71 215.69 203.94 218.8 201.03 221.45 197.74 225.9 193.68 230.88 190.14 233.99 187.48 236.99 184.72 237.81 182.33 235.76 180.5 236.04 172.4 232.32 165.84 234.74 159.55 240.19 155.68 242.63 153.76 241.95 150.94 243.13 149.01 245.83 147.82 252.85 142.82 259.74 137.58 265.64 132.28 271.74 127.08 270.49 132.52 270.94 137.89 271.37 143.66 270.24 149.17 267.85 154.45 271.01 158.42 276.5 159.04 281.06 161.44 277.63 165.63 273.45 170.02 275.91 173.03 281.37 170.47 286.05 170.8 289.54 173.77 289.32 179.59 290.1 185.53 294.01 186.48 298.2 186.03 299.35 187.28 298.76 189.37 297.29 192.27 294.15 193.36 Z M 280.15 191.23 281.38 191.2 282.64 190.48 282.81 189.76 282.76 189.18 282.04 188.58 280.95 187.88 280.13 188.45 279.4 189.18 278.82 189.73 279.26 190.58 280.15 191.23 Z" fill-rule="evenodd" id="AZE-1681" data-name="Goranboy"/>
<path d="M 189.37 216.88 200.04 219.86 211.47 221.16 216.81 221.79 226.68 222.96 241.02 216.12 240.51 218.53 239.58 220.78 238.2 221.62 236.87 222.55 236.24 227.53 237.73 232.39 238.94 236.86 240.72 240.62 243.86 239.85 246.84 238.03 255.01 238.65 261.85 243.62 265.33 245.74 267.05 248.5 268.03 250.24 268.77 251.55 271.99 254.33 267.29 254.61 266.18 255.09 263.31 256.35 257.69 257.12 252.72 259.14 249.71 262.56 245.47 264.45 241.79 262.38 237.61 260.8 233.83 262.6 230.64 264.07 229.64 264.53 223.89 266.46 218.13 268.1 212.05 268.82 206.15 270.78 196.61 273.31 186.71 274.41 181.94 275.54 177.27 275.96 173.86 273.04 170.34 270.83 167.63 274.14 165.07 278.67 160.08 282.12 154.8 285.06 152.21 286.62 152.2 286.63 149.29 285.48 143.15 280.76 142.1 279.11 136 269.45 133.05 266.94 129.32 265.52 115.1 264.39 110.77 262.89 110.52 261.01 110.34 259.66 118.97 255.36 141.38 258.21 150.91 257.49 152.75 256.31 153.68 254.86 155.28 248.58 155.79 247.55 158.81 245.52 161.41 242.84 163.08 239.5 165.55 230.73 165.64 229.92 165.55 229.12 165.3 228.33 161.79 224.78 159.84 223.33 157.85 222.52 154.86 222.66 152.92 223.1 152.94 223.04 154.13 218.13 161.81 215.85 170.39 217.04 179.84 217.61 189.37 216.88 Z" id="AZE-1682" data-name="Kəlbəcər"/>
<path d="M 303.06 153.84 305.79 153.07 308.41 153.13 309.89 154.61 311.15 156.5 300.13 159.9 293.68 154.08 297.95 152.37 303.06 153.84 Z" id="AZE-1683" data-name="Mingəçevir"/>
<path d="M 61.82 125.3 60.38 126.81 57.22 126.42 55.91 123.28 56.33 122.93 56.81 122.73 57.35 122.66 57.91 122.74 61.82 125.3 Z M 35.84 116.13 33.89 119.27 28.94 117.99 27.24 116.33 26.39 114.27 26.83 112.38 28.94 111.25 34.32 112.22 35.84 116.13 Z M 81.85 106.65 81.83 108.6 82.26 110.46 83.21 115.11 83.56 119.79 83.83 120.83 83.84 120.88 77.48 123.28 74.37 122.9 68.4 121.04 61.97 120.47 59.73 119.05 57.61 117.32 54.82 116.01 50.37 112.5 48.11 111.58 47.72 114.06 46.89 115.68 44.25 115.48 41.3 113.97 39.54 111.7 41 107.31 54.49 107.74 59.17 105.16 58.99 102.98 57.22 101.05 50.08 96.82 47.75 96.25 38.84 96.24 36.5 95.48 35.75 93.79 37.12 90.91 32.07 82.83 45.09 74.72 45.16 75.63 45.69 76.54 52.03 81.2 54.7 82.41 60.65 83.46 66.15 86.32 69.37 87.46 84.76 88.82 85.24 88.94 85.5 90.61 86.13 93.93 82.59 102.58 83.05 103.71 83.47 104.76 82.63 105.77 81.85 106.65 Z" fill-rule="evenodd" id="AZE-1684" data-name="Qazax"/>
<path d="M 205.95 145.24 203.75 148.04 201.78 150.87 201.24 153.47 200.89 156.14 199.82 158.11 198.71 160.09 198.3 162.5 197.56 164.86 193.88 166.94 189.43 166.88 183.9 167.86 178.9 170.56 172.35 167.89 167.02 171.28 161.58 177.25 156.09 182.83 155.16 181.29 156.09 179.69 155.69 176.45 156.21 173.43 153.09 169.23 147.97 165.47 142.17 161.83 137.91 156.41 137.01 153.62 135.33 151.37 132.82 149.07 130.3 146.55 130.19 142.34 132.59 139.04 136.7 137.02 140.5 134.49 145.01 132.09 149.44 129.56 152.01 125.48 154.08 121.66 160.59 120.69 167.35 121.34 174.3 121.98 180.98 120.8 181.93 118.88 183.17 116.83 184.69 115.29 186.17 113.76 191.76 109.27 196.04 103.8 201.81 109.62 207.36 115.49 210.47 120.08 209.75 124.91 207.7 127.56 206.7 130.75 206.02 133.25 204.91 135.59 203.56 140.46 205.95 145.24 Z" id="AZE-1685" data-name="Şəmkir"/>
<path d="M 252.08 107.62 256.07 109.93 262.28 110.1 267.72 112.56 268.31 116.37 269.13 120.34 271.1 123.46 271.74 127.08 265.64 132.28 259.74 137.58 252.85 142.82 245.83 147.82 243.13 149.01 241.95 150.94 242.63 153.76 240.19 155.68 234.74 159.55 232.32 165.84 224.29 165.34 221.52 160.12 214.6 160 210.03 151.99 205.95 145.24 203.56 140.46 204.91 135.59 206.02 133.25 206.7 130.75 207.7 127.56 209.75 124.91 210.47 120.08 207.36 115.49 201.81 109.62 196.04 103.8 188.38 100.97 180.8 97.76 180.08 97.39 183.56 95.7 186.6 95.18 196.85 95.14 199.3 95.79 201.46 97.38 205.42 101.12 213.46 106.64 216.29 107.91 224.41 109.91 226.64 111.4 230.45 115.29 232.9 116.42 235.88 116.33 237.08 114.9 237.84 112.76 239.38 110.58 242.26 109.21 244.93 109.41 247.52 109.94 250.2 109.62 252.08 107.62 Z" id="AZE-1686" data-name="Samux"/>
<path d="M 180.08 97.39 180.8 97.76 188.38 100.97 196.04 103.8 191.76 109.27 186.17 113.76 184.69 115.29 183.17 116.83 181.93 118.88 180.98 120.8 174.3 121.98 167.35 121.34 160.59 120.69 154.08 121.66 152.01 125.48 149.44 129.56 145.01 132.09 140.5 134.49 136.7 137.02 132.59 139.04 130.19 142.34 130.3 146.55 128.55 152.52 129.08 158.51 129.18 164.44 128.49 170.83 127.46 175 124.15 177.68 120.75 176.44 117.49 174.43 114.33 172.84 114.69 169.11 111.91 166.2 107.68 164.84 102.62 164.74 98.6 162.76 97.88 158.29 96.98 156.78 107.56 152.91 111.15 149.8 113.71 144.19 113.46 141.17 111.09 140.22 107.88 140.04 105.1 139.37 102.95 137.7 97.11 132 93.5 129.75 92.14 129.48 92.15 129.46 93.66 125.42 96.26 122.67 98.64 120.28 102.69 119.43 106.86 118.47 110.93 115.21 112.45 110.45 110.74 106.53 109.06 102.54 113.32 100.14 121.08 100.23 123.67 96.93 127.31 94.49 132.67 92.5 136.81 90.79 143.68 93.96 163.92 99.49 170.51 100.1 173.8 99.88 176.5 99.13 180.08 97.39 Z" id="AZE-1687" data-name="Tovuz"/>
<path d="M 294.96 134.59 307.35 139.36 319.58 144.56 329.98 147.82 340.36 151.24 338.43 156.79 336.54 162.28 334.76 166.87 334.66 171.8 336.4 175.92 335.02 180.14 332.84 182.1 331.92 182.91 328.1 184.63 323.37 192.55 315.4 193.53 306.94 194.5 300.33 202.13 297.89 200.06 295.85 197.73 295.17 195.46 294.15 193.36 297.29 192.27 298.76 189.37 299.35 187.28 298.2 186.03 294.01 186.48 290.1 185.53 289.32 179.59 289.54 173.77 286.05 170.8 281.37 170.47 275.91 173.03 273.45 170.02 277.63 165.63 281.06 161.44 276.5 159.04 271.01 158.42 267.85 154.45 270.24 149.17 271.37 143.66 270.94 137.89 270.49 132.52 271.74 127.08 283.46 129.81 294.96 134.59 Z M 303.06 153.84 297.95 152.37 293.68 154.08 300.13 159.9 311.15 156.5 309.89 154.61 308.41 153.13 305.79 153.07 303.06 153.84 Z M 328.18 181.11 329.5 179.72 329.15 178.84 329.07 177.19 329.41 176.21 330.07 175.15 330.72 173.82 331.02 172.08 330.35 171.64 328.81 171.52 325.86 171.61 319.62 171.63 317.2 174.51 319.16 178.95 323.48 180.91 328.18 181.11 Z" fill-rule="evenodd" id="AZE-1688" data-name="Yevlakh Rayon"/>
<path d="M 796.44 212.75 798.39 214.35 799 216.49 798.07 217.91 795.5 217.4 793.79 217.83 791.77 216.54 790.44 214.52 790.75 212.75 792.53 213.81 793.84 213.5 795.04 212.8 796.44 212.75 Z M 758.18 193.1 759.84 193.79 761.9 193.27 762.83 194.12 763.14 196.97 764.47 198.46 766.17 199.64 767.57 201.49 767.7 203.11 766.64 204.04 764.6 204.4 761.9 204.29 762.57 200.97 758.12 196.35 758.18 193.1 Z M 617.09 265.23 618.79 261.5 619.79 257.81 622.12 255.24 624.24 252.62 623.8 249.85 623.18 247 624.83 244 627.22 241.4 628.15 238.83 628 236.55 629.02 234.23 631.32 232.51 635.33 226.56 635.86 218.94 634.6 211.42 634.47 204.53 638.75 201.19 644.55 200.51 647.86 197.9 651.4 194.85 662.56 194.59 666.61 194.02 670.77 193.9 673.89 194.59 676.89 195.35 680.17 194.56 683.4 193.37 689.64 192.31 695.83 191.04 698.43 188.83 693.66 187.39 687.88 185.93 682.17 184.59 679.64 185.21 677.19 186.07 674.05 185.58 671.44 183.35 672.58 181.81 673.67 180.23 674.07 178.91 674.07 178.9 675.99 179.62 682.83 180.32 688.67 181.72 691.89 181.93 694.38 181.54 701.96 179.14 705.23 178.7 720.75 179.14 721.9 180 722.5 180.96 722.94 181.94 723.55 182.86 725.98 185.15 728.58 186.94 731.34 188.11 743.67 190.13 746.06 191.16 747.56 193.2 749.22 196.35 751.29 199.28 753.98 200.56 756.95 201.38 759.48 203.46 761.47 206.19 762.83 209.02 764.23 220.28 765.17 221.4 766.3 223.95 767 226.77 766.56 228.66 763.94 224.77 761.11 221.4 757.72 218.38 750.99 214.18 748.11 212.95 745.03 212.08 738.93 211.43 733.81 210.15 731.08 209.87 729.54 210 727.69 210.62 726.42 210.88 721.19 210.88 718.79 211.67 714.17 214.61 711.44 214.61 710.46 213.95 708.71 211.8 707.63 210.88 706.2 210.45 702.7 209.98 699.12 208.49 696.41 209.65 691.89 212.75 692.82 215.98 688.98 218.99 683.43 221.21 674.37 222.77 666.42 226.31 655.99 229.26 653.55 230.63 648.31 235.06 645.96 236.33 644.45 237.82 644.16 240.77 644.9 244.47 645 245.93 637.65 248.13 636.28 250.23 636.61 252.99 638.48 255.75 639.7 256.77 641.64 257.94 642.71 258.96 643.27 260.37 642.51 261.23 641.14 261.91 638.74 263.62 637.68 264.03 636.66 264.6 635.68 265.99 635.06 267.62 634.98 268.85 635.68 271.58 637.25 274.51 637.71 276.1 637.08 277.68 635.88 278.69 634.84 279.36 634.08 280.14 633.82 281.44 634.06 282.2 634.52 282.92 634.88 283.74 634.75 284.7 634.17 285.3 631.95 286.56 631.12 288.49 631.17 289.35 631.95 290.29 631.33 292.08 632.11 293.94 635.21 297.27 635.05 298.44 633.17 299.55 629.64 301.08 626.21 304.29 624.85 300.18 624.27 295.59 623.98 289.7 625.94 284.45 625.81 280.91 625.21 277.49 623.35 275.32 621.31 273.27 619.53 268.95 617.09 265.23 Z M 662.14 208.06 665.18 208.61 668.41 208.35 671.43 207.25 673.04 205.9 671.56 203.92 668.64 200.51 663.01 200.74 658.67 202.78 659.03 203.21 661.06 205.52 662.14 208.06 Z" fill-rule="evenodd" id="AZE-1689" data-name="Bakı"/>
<path d="M 662.14 208.06 661.06 205.52 659.03 203.21 658.67 202.78 663.01 200.74 668.64 200.51 671.56 203.92 673.04 205.9 671.43 207.25 668.41 208.35 665.18 208.61 662.14 208.06 Z M 671.44 183.35 674.05 185.58 677.19 186.07 679.64 185.21 682.17 184.59 687.88 185.93 693.66 187.39 698.43 188.83 695.83 191.04 689.64 192.31 683.4 193.37 680.17 194.56 676.89 195.35 673.89 194.59 670.77 193.9 666.61 194.02 662.56 194.59 651.4 194.85 647.86 197.9 644.55 200.51 638.75 201.19 634.47 204.53 634.6 211.42 635.86 218.94 635.33 226.56 631.32 232.51 629.02 234.23 628 236.55 628.15 238.83 627.22 241.4 624.83 244 623.18 247 623.8 249.85 624.24 252.62 622.12 255.24 619.79 257.81 618.79 261.5 617.09 265.23 614.59 262.48 611.86 259.99 610.7 257.72 610.42 255.05 607.47 251.16 604.75 247.11 603.65 242.54 600.34 239.11 594.08 238.33 587.6 238.4 582.61 238.07 577.87 237.01 573.91 233.01 570.04 228.58 566.13 225.2 561.86 222.15 558.15 219.06 556.9 214.02 561.6 215.47 565.98 217.76 568.59 219.07 571.01 216.96 574.01 214.64 576.97 212.28 580.82 209.24 585.5 208.07 588.22 205.92 590.3 202.91 594.2 201.17 598.5 200.55 602.65 199.15 606.53 196.76 610.3 193.86 613.16 189.87 623.19 189.61 632 186.56 632.61 184.02 633.21 181.42 634.78 179.71 636.61 178.06 640.38 175.53 643.11 171.97 648.39 174.64 653.05 178.79 655.25 181.84 657.61 184.65 664.52 185.18 671.44 183.35 Z" fill-rule="evenodd" id="AZE-1690" data-name="Abşeron"/>
<path d="M 316.28 236.07 325.94 235.45 335.73 235.67 330.11 240.01 323.7 243.19 323.15 246.31 327.23 248.99 323.45 251.6 322.6 251.81 318.39 252.83 318.18 256.58 317.84 260.38 316.13 261.43 314.38 262.27 317.4 268.97 328.51 270.81 328.59 270.82 334.38 269.14 340.38 268.44 343.48 272.39 340.56 277.17 339.55 277.82 338.47 278.33 336.42 277.92 334.08 277.46 330.58 277.76 329.76 277.83 329.25 278.36 328.4 279.25 327.64 280.04 325.85 282.18 318.09 280.75 310.65 276.92 305.01 274.78 299.11 275.86 297.63 279.79 294.94 283.08 289.61 284.7 284.43 286.74 286.86 282.9 287.11 282.5 289.75 278.98 290.14 278.47 292.91 275.63 294.1 271.96 288.51 269.95 286.34 268.38 283.72 266.47 282.89 264.98 280.32 260.41 273.73 257.83 268.15 259.05 263.31 256.35 266.18 255.09 267.29 254.61 271.99 254.33 272.61 249.4 274.59 245.73 278.11 242.93 279.15 238.27 280.47 237.81 281.33 237.51 286.52 235.7 295.09 232.47 294.31 230.32 294.3 230.29 295.26 228.57 295.38 228.6 297 229.05 298.47 230.13 301.87 230.62 305.03 229.63 307.61 232.09 308.87 235.61 312.45 236.46 313.88 236.31 316.28 236.07 Z" id="AZE-1691" data-name="Ağdam"/>
<path d="M 376.2 154.97 376.68 160.93 377.03 166.9 380.34 169.64 384.79 171.61 387.03 173.64 388.9 175.66 388.3 177.2 386.68 178.54 384.99 182.62 384.48 187.17 379.21 185.88 374.06 186.33 370.04 188.37 368.94 193.29 367.99 197.32 369.96 200.75 373.78 202.41 375.84 205.54 373.98 209.22 371.92 212.7 367.55 216.4 364.9 218.12 364.02 216.98 362.6 215.77 361.92 216 362.01 214.54 362.31 213.23 362.86 212.01 363.7 210.89 362.13 209.19 357 209.8 354.39 209.02 357.18 205.97 356.1 204.46 348.72 202.42 349.84 201.38 352.63 199.77 353.46 198.69 353.71 196.54 352.68 196.23 351.14 196.71 349.5 196.95 347.41 196.92 346.9 196.61 346.97 195.28 346.47 194.97 346.03 194.54 345.29 193.57 344.2 192.61 342.66 192.17 341.65 191.09 342.47 188.64 342.83 186.1 340.42 184.72 339.38 185.12 338.09 186.11 336.15 188.03 334.81 188.64 334.32 187.38 334.53 185.62 335.69 184.13 334.09 182.81 332.99 182.16 332.84 182.1 335.02 180.14 336.4 175.92 334.66 171.8 334.76 166.87 336.54 162.28 338.43 156.79 340.36 151.24 346.02 152.12 351.63 153.19 355.04 154.32 358.37 154.34 359.45 153.84 360.8 153.36 363.22 153.92 365.62 154.83 370.81 155.76 376.2 154.97 Z" id="AZE-1692" data-name="Ağdaş"/>
<path d="M 505.5 213.64 502.67 216.69 500.91 220.85 496.25 217.88 493.24 213.28 489.39 211.8 485.34 210.69 485.18 205.59 484.82 200.17 479.44 198.18 473.38 198.54 469.37 201.12 465.57 203.51 462.6 201.35 460.28 199.66 455.47 200.34 451.75 197.69 452.95 191.85 455.68 186.23 458.26 187.53 460.78 186.06 461.26 184.13 461.78 182.06 464.17 179.93 466.91 178.24 470.37 176.72 473.56 175 474.24 173.67 475.43 172.48 477.69 171.59 479.98 170.79 488.85 167.54 496.99 162.92 501.17 157.27 503.79 150.55 505.02 152.4 505.94 154.25 510.18 157.51 512.76 161.78 511.34 164.32 509.59 166.87 509.72 167.86 509.7 169.24 508.79 170.39 507.69 171.52 501.77 175.8 500.29 181.48 504.13 185.25 509.31 186.9 514.05 187.01 518.78 187.13 521.72 188.31 524.52 189.91 527.53 191.02 529.83 192.42 527.73 194.42 524.9 195.49 517.98 197.82 512.02 201.48 511.53 204.75 511.12 208.07 508.47 210.91 505.5 213.64 Z" id="AZE-1693" data-name="Ağsu"/>
<path d="M 556.9 214.02 558.15 219.06 561.86 222.15 566.13 225.2 570.04 228.58 573.91 233.01 577.87 237.01 582.61 238.07 587.6 238.4 594.08 238.33 600.34 239.11 603.65 242.54 604.75 247.11 607.47 251.16 610.42 255.05 610.7 257.72 611.86 259.99 614.59 262.48 617.09 265.23 619.53 268.95 621.31 273.27 623.35 275.32 625.21 277.49 625.81 280.91 625.94 284.45 621.83 281.96 617.83 279.37 615.84 277.17 613.37 275.65 610.03 276.29 606.5 277.04 604.23 276.59 601.89 276.28 595 275.82 587.99 274.96 582.62 272.7 577.39 269.93 572.49 270.14 567.93 270.57 570.02 268.88 571.81 267.22 571.9 264.66 572.03 263.18 571.41 262.01 570.12 261.4 568.58 261.58 564.97 261.49 561.99 260.84 560.01 261.33 555.35 258.46 552.64 257.76 544.86 256.76 543.24 256.17 542.2 254.3 539.66 253.63 536.57 253.19 533.06 251.73 532.47 251.85 532.11 251.7 531.99 250.59 532.06 249.14 531.96 248.49 531.56 248.21 531.08 245.74 531.32 244 528.31 242.73 516.04 240.17 503.29 240.03 504.44 234.37 504.1 228.95 503.42 224.3 500.91 220.85 502.67 216.69 505.5 213.64 511 214.66 516.38 215.85 521.98 218.38 527.83 220.51 532.52 222.27 537 220.55 540.96 217.11 542.76 211.81 549.41 214.61 556.9 214.02 Z" id="AZE-1694" data-name="Hajigabul"/>
<path d="M 560.13 472.39 551.33 470.95 546.96 470.92 543.91 472.23 541.22 474.37 537.77 476.07 534.07 477.31 530.79 478.04 524.49 477.63 523.8 477.58 519.44 474.26 515.72 469.36 513.95 467.6 515.5 464.15 517.5 461.31 518.49 458.14 520.96 456.25 523.87 455.02 527.08 454.25 530.12 454.59 533.13 453.66 536.11 452.26 548.37 451.75 559.34 449.42 559.34 449.42 560.13 472.37 560.13 472.39 560.13 472.39 Z" id="AZE-1695" data-name="Astara"/>
<path d="M 364.9 218.12 365.2 218.51 365.18 219.27 375.98 220.28 374.91 221.41 372.37 222.25 371.23 223.07 370.54 224.18 370.56 224.22 359.03 230.92 347.55 236.74 343.01 237.9 339.01 235.74 335.47 233.51 335.73 235.67 325.94 235.45 316.28 236.07 315.68 233.46 314.82 230.96 314.49 226.28 314.84 221.59 315.11 217.68 311.13 216.57 307.9 214.31 305.53 210.98 303.6 209.9 302.11 208.47 301.2 205.32 300.33 202.13 306.94 194.5 315.4 193.53 323.37 192.55 328.1 184.63 331.92 182.91 332.84 182.1 332.99 182.16 334.09 182.81 335.69 184.13 334.53 185.62 334.32 187.38 334.81 188.64 336.15 188.03 338.09 186.11 339.38 185.12 340.42 184.72 342.83 186.1 342.47 188.64 341.65 191.09 342.66 192.17 344.2 192.61 345.29 193.57 346.03 194.54 346.47 194.97 346.97 195.28 346.9 196.61 347.41 196.92 349.5 196.95 351.14 196.71 352.68 196.23 353.71 196.54 353.46 198.69 352.63 199.77 349.84 201.38 348.72 202.42 356.1 204.46 357.18 205.97 354.39 209.02 357 209.8 362.13 209.19 363.7 210.89 362.86 212.01 362.31 213.23 362.01 214.54 361.92 216 362.6 215.77 364.02 216.98 364.9 218.12 Z" id="AZE-1696" data-name="Bərdə"/>
<path d="M 412.39 243.27 406.62 247.37 411.54 251.33 416 255.32 415.73 260.64 410.38 263.62 407.64 264.83 405.68 266.86 407.27 268.97 409.83 270.32 407.49 275.18 406.64 279.15 411.77 281.18 416.24 284.33 421.08 287.45 425.85 290.2 424.91 294.36 419.13 296.98 413.28 301 412.04 305.41 412.01 305.51 406.16 310.13 389.75 317.28 389.75 317.21 389.74 311.71 381.09 306.11 378.11 302.42 374.81 299.47 370.28 298.54 368.05 294.51 365.42 291.26 363.5 288.57 365.29 287.39 367.1 286.46 366.33 284.7 365.36 282.47 367.7 279.49 371.85 278.16 372.76 276.74 374.33 275.89 377.63 276.09 380.9 275.89 385.28 274.47 389.85 273.47 393.83 270.26 395.91 265.39 397.42 258.99 398.78 252.4 401.86 247.22 407.7 237.07 409.6 237.2 411.36 237.89 411.48 239.54 412.21 242.97 412.39 243.27 Z" id="AZE-1697" data-name="Beyləqan"/>
<path d="M 492.64 310.42 500.12 304.92 507.83 308.57 514.65 311.36 520.28 306.32 526.21 307.1 532.11 309.08 538.77 310.89 545.5 312.6 542.57 319.63 541.86 326.69 544.58 329.3 547.08 332.19 546.37 335.79 545.06 339.45 541.63 339.51 538.29 338.86 536.12 337.96 533.85 337.99 532.29 339.58 531.13 341.51 529.02 342.99 528.61 344.93 528.31 350.89 524.13 353.97 519.64 351.83 518.15 346.95 515.04 343.07 510.24 343.08 506.12 346.91 501.38 350 498.55 350.27 495.99 351.31 494.41 352.89 492.44 354.2 487.5 352.07 487.08 345.58 485.68 343.88 487.12 343.53 484.09 338.58 480.26 334.51 470.91 327.83 447.99 306.55 439.63 300.52 437 299.12 435.13 298.75 435.13 298.73 435.27 297.51 443.54 298.04 453.16 303.55 462.03 310.37 478.06 317.94 492.64 310.42 Z" id="AZE-1698" data-name="Biləsuvar"/>
<path d="M 311.79 331.66 316.71 333.54 321.43 335.7 324.04 339.46 326.79 342.71 330.52 342.27 334.45 341.59 338.6 343.62 340.11 345.2 340.15 345.24 338.57 345.94 324.98 350.04 318.45 353.15 317.13 354.32 316.66 355.68 311.73 361.8 309.43 366.97 308.73 367.98 307.3 369.3 306.37 369.71 298.2 373.29 296.55 373.53 294.5 373.1 290.7 371.78 288.56 371.83 286.29 372.64 286.27 372.59 285.05 368.85 280.36 364.11 275.87 361.6 271.2 359.45 269.08 355.58 268.62 351.09 266.02 348.05 264.07 345.07 264.95 340.85 268.17 338.43 272.24 339.67 272.74 339.82 273.56 340.06 278.6 340.46 279.53 338.12 280.2 336.43 280.39 335.97 279.3 333.69 278.3 331.61 281.25 330.09 281.51 330.23 284.66 331.86 286.8 332.48 288.92 333.11 289.85 334.65 289.65 336.53 293.63 339.19 298.23 341.16 299.96 343.67 303.39 343.21 305.74 341.54 308.42 341.26 310.52 341.17 310.62 339.41 310.07 338.05 308.9 335.17 309.69 334.21 311.79 331.66 Z" id="AZE-1699" data-name="Cəbrayıl"/>
<path d="M 545.06 339.45 541.56 342.94 538.51 346.78 537.45 351.99 538.5 357.21 543.39 365.83 541.89 375.13 539.15 374.2 536.3 374.27 536.11 376.46 534.84 377.45 532.25 376.82 529.67 377.34 529.55 380.5 531.73 383.58 528.53 385.4 524.66 386.52 520.82 388.57 517.77 391.62 512.86 395.74 506.06 397.15 502.27 393.49 497.59 391.12 494.34 391.63 491.14 392.46 482.03 392.76 482.67 390.91 482.74 389.01 482.01 387.29 477.89 380.43 475.84 378.87 468.05 376.35 460.28 370.49 456.96 366.83 455.12 363.18 455.38 358.49 457.89 354.62 461.83 351.69 466.43 349.85 474.97 348.51 482.14 344.76 485.68 343.88 487.08 345.58 487.5 352.07 492.44 354.2 494.41 352.89 495.99 351.31 498.55 350.27 501.38 350 506.12 346.91 510.24 343.08 515.04 343.07 518.15 346.95 519.64 351.83 524.13 353.97 528.31 350.89 528.61 344.93 529.02 342.99 531.13 341.51 532.29 339.58 533.85 337.99 536.12 337.96 538.29 338.86 541.63 339.51 545.06 339.45 Z" id="AZE-1700" data-name="Cəlilabad"/>
<path d="M 588.01 73.7 592.13 80.19 594.1 82.39 595.81 84.94 596.63 87.91 598.32 99.74 599.19 102.24 600.69 103.3 600.75 103.41 600.74 103.41 598.84 103.55 593.42 100.27 588.21 97.05 583.88 98.05 579.57 99.42 569.79 99.43 565.27 104.17 567.73 108.81 567.84 113.97 566.45 116.28 564.5 118.15 561.69 118.51 559.11 118.89 555.17 121 553.16 124.61 554.31 130.83 556.08 137.1 551.59 139.25 547.53 142.21 540.64 139.33 533.64 136.75 534.12 130.69 533.41 125.55 531.37 122.24 533.99 119.24 537.48 117.21 539.27 113.73 534.34 108.81 528.56 104.43 532.18 97.84 539.27 93.11 541.09 91.45 542.8 89.74 542.77 87.75 540.93 86.06 540.84 80.53 542.38 74.91 546.84 74.53 551.16 73.08 555.44 74.23 560.18 74.48 566.37 72.68 572.79 73.13 579.9 74.07 587.22 73.89 588.01 73.7 Z" id="AZE-1701" data-name="Dəvəçi"/>
<path d="M 389.75 317.28 387.3 318.34 380.08 324.02 378.32 324.95 375.26 325.21 365.72 327.74 360.01 330.18 355.55 333.07 348.77 339.84 348.76 339.85 344.25 343.43 340.15 345.24 340.11 345.2 338.6 343.62 334.45 341.59 330.52 342.27 326.79 342.71 324.04 339.46 321.43 335.7 316.71 333.54 311.79 331.66 312.48 330.49 312.83 329.89 312.82 328.38 313.9 328.23 315.42 328.02 317.8 327.45 317.18 324.82 317.03 324.32 316.34 322.1 317.51 320.49 318.85 319.05 317.8 316.02 313.77 317.31 311.02 319.13 307.97 319.41 307.11 317.11 308.97 315.45 309.35 315.11 314.96 314.12 316.63 312.47 318.01 311.11 313.61 311.55 308.53 310.75 310.89 307.65 311.82 307.59 317.15 307.26 320.31 306.3 323.33 304.96 325.68 302.93 328.27 301.84 332.33 301.29 336.52 300.46 339.42 300.03 341.82 299.66 347 298.65 357.47 296.48 368.05 294.51 370.28 298.54 374.81 299.47 378.11 302.42 381.09 306.11 389.74 311.71 389.75 317.21 389.75 317.28 Z" id="AZE-1702" data-name="Füzuli"/>
<path d="M 444.61 188.87 445.65 196.11 439.89 198.59 436.35 197.49 432.79 197.81 427.47 197.26 422.44 195.47 417.83 193.63 413.22 191.82 410.46 191.66 408.21 193.12 405.48 194.19 402.22 193.11 398.87 191.04 395.3 189.52 392.4 190.26 389.66 190.99 386.77 189.25 384.48 187.17 384.99 182.62 386.68 178.54 388.3 177.2 388.9 175.66 387.03 173.64 384.79 171.61 389.8 169.47 395.08 168.52 399.93 168.4 404.41 166.77 409.12 167.76 413.75 168.98 417.24 169.87 420.65 169.66 427.52 170.22 434.44 171.95 441.67 173.43 447.43 177.13 444.08 183.38 444.61 188.87 Z" id="AZE-1703" data-name="Göyçay"/>
<path d="M 484.15 253.39 485.16 254.65 484.91 256.28 483.22 257.25 480.56 257.81 477.65 259.54 474.94 261.59 473.08 263.84 471.7 266.2 473.05 267.78 474.74 269.29 475.34 272.41 473.57 275.36 471.32 278.6 470.17 282.22 471.49 285.41 473.76 288.08 481.98 290.26 488.44 294.74 488.17 296.56 487.45 298.2 487.27 301.25 487.31 304.31 489.41 307.53 492.64 310.42 478.06 317.94 462.03 310.37 453.16 303.55 443.54 298.04 435.27 297.51 435.13 298.73 435.13 298.75 435.07 298.74 433.49 300.56 432.06 301.58 430.39 301.9 420.01 301.75 416.77 302.42 414.13 303.84 412.01 305.51 412.04 305.41 413.28 301 419.13 296.98 424.91 294.36 425.85 290.2 421.08 287.45 416.24 284.33 411.77 281.18 406.64 279.15 407.49 275.18 409.83 270.32 407.27 268.97 405.68 266.86 407.64 264.83 410.38 263.62 415.73 260.64 416 255.32 411.54 251.33 406.62 247.37 412.39 243.27 413.8 245.63 416.56 245 417.9 244.44 419.35 244.65 420.6 245.07 420.82 245.15 422.2 245.42 423.24 245.86 425.49 247.78 426.34 248.21 427.25 247.96 428.46 246.78 429.22 246.44 430.05 246.51 431.4 247.13 432.01 247.28 434.3 248.17 435.93 248.42 436.67 247.75 436.52 244.8 436.62 243.27 437.09 242.12 438.55 241.49 440.2 242.14 441.82 243.14 443.19 243.56 445.96 242.21 448.71 240.38 450.82 240.27 451.66 244.07 452.7 245.65 460.04 249.15 461.3 249.55 462.4 249.62 463.01 250.17 462.83 252.02 467.23 250.32 469.75 249.9 472.14 250.16 473.17 250.62 474.41 251.4 475.43 252.37 476.35 254.6 477.45 254.28 479.12 252.87 479.63 252.71 480.33 252.36 481.24 252.06 482.38 252.02 483.49 252.58 484.15 253.39 Z" id="AZE-1704" data-name="İmişli"/>
<path d="M 493.98 129.47 500 134.76 507.18 138.58 508.08 144.64 503.79 150.55 501.17 157.27 496.99 162.92 488.85 167.54 479.98 170.79 477.69 171.59 475.43 172.48 474.24 173.67 473.56 175 470.37 176.72 466.91 178.24 464.17 179.93 461.78 182.06 461.26 184.13 460.78 186.06 458.26 187.53 455.68 186.23 450.2 187.84 444.61 188.87 444.08 183.38 447.43 177.13 441.67 173.43 434.44 171.95 427.52 170.22 420.65 169.66 417.24 169.87 413.75 168.98 409.12 167.76 404.41 166.77 408.07 163.31 411.54 159.68 414.35 155.69 418.35 153.11 424.54 150.99 429.81 147.79 429.94 144.66 430.4 141.65 432.17 141.12 434.21 140.84 438.18 138.3 438.62 134.06 435.31 129.77 433.92 125.31 434.64 123.64 435.83 122.21 437.76 122.39 439.64 122.72 440.76 120.54 441.47 118.03 443 115.71 445.14 113.83 449.17 114.52 453.26 114.79 457.12 116.03 460.94 117.67 468.22 120.87 475.64 123.49 485.96 124.05 493.98 129.47 Z" id="AZE-1705" data-name="İsmayıllı"/>
<path d="M 500.91 220.85 503.42 224.3 504.1 228.95 504.44 234.37 503.29 240.03 498.86 241.93 495.2 244.71 490.84 246.66 487.32 249.31 486.22 251.14 484.15 253.39 483.49 252.58 482.38 252.02 481.24 252.06 480.33 252.36 479.63 252.71 479.12 252.87 477.45 254.28 476.35 254.6 475.43 252.37 474.41 251.4 473.17 250.62 472.14 250.16 469.75 249.9 467.23 250.32 462.83 252.02 463.01 250.17 462.4 249.62 461.3 249.55 460.04 249.15 452.7 245.65 451.66 244.07 450.82 240.27 448.71 240.38 445.96 242.21 443.19 243.56 441.82 243.14 440.2 242.14 438.55 241.49 437.09 242.12 436.62 243.27 436.52 244.8 436.67 247.75 435.93 248.42 434.3 248.17 432.01 247.28 431.4 247.13 430.05 246.51 429.22 246.44 428.46 246.78 427.25 247.96 426.34 248.21 425.49 247.78 423.24 245.86 422.2 245.42 420.82 245.15 420.6 245.07 424.01 243.18 427.98 241.73 431.08 239.12 433.3 236.03 431.76 226.25 431.93 216.11 435.38 213.28 437.97 209.63 439.19 204.24 439.89 198.59 445.65 196.11 444.61 188.87 450.2 187.84 455.68 186.23 452.95 191.85 451.75 197.69 455.47 200.34 460.28 199.66 462.6 201.35 465.57 203.51 469.37 201.12 473.38 198.54 479.44 198.18 484.82 200.17 485.18 205.59 485.34 210.69 489.39 211.8 493.24 213.28 496.25 217.88 500.91 220.85 Z" id="AZE-1706" data-name="Kürdəmir"/>
<path d="M 563.13 410.11 559.26 413.78 554.34 412.78 554.44 417.62 554.74 419.85 555.35 422 556.43 424.11 553.59 425.49 553.59 427.53 553.59 429.71 553.96 431.53 554.64 432.48 556.46 431.83 558.65 429.58 559.34 449.42 548.37 451.75 536.11 452.26 538.86 449 540.51 445.7 538.15 443.5 535.36 441.97 535.09 439.66 535.49 437.11 533.73 434.17 531.63 431.28 525.67 428.14 519.64 425.04 518.03 419.08 521.83 413.32 526.26 416.36 531.05 418.62 536.31 417.77 541.18 415.29 545.55 413.65 549.56 411.75 551.35 410.14 553.4 409.12 558.75 409.19 563.13 410.11 Z M 596.17 368.76 601.48 370.84 607.09 371.94 609.23 373.88 608.6 376.3 606.68 380.7 606.02 382.83 605.62 387.65 605 390.55 603.72 392.98 593.48 398.57 588.09 400.21 584.3 397.79 584.74 396.2 584.69 395.1 584.89 394.18 586.17 393.14 592.3 392.21 594.39 391.37 596.19 389.28 597.3 386.56 597.42 383.83 595.88 381.26 593.15 380.16 586.63 380.01 586.63 378.8 585.84 373.2 585.31 371.64 582.89 370.06 580.31 369.54 574.48 369.69 572.86 370.14 572.06 371.22 571.53 372.61 570.4 374.58 570.29 375.27 570.33 376.75 570.04 377.82 569.39 378.1 568.72 378.1 568.39 378.24 568.13 384.61 568.6 387.96 570.82 390.89 570.26 394.22 566.6 404.01 566.12 404.9 565.27 401.97 563.19 397.58 562.71 393.93 562.74 390.76 559.63 388.36 556.43 386.15 556.29 381.67 557.42 377.25 562.17 372.4 567.52 367.9 573.67 362.48 580.5 358.37 584.48 361.06 587.18 365.47 591.41 367.67 596.17 368.76 Z" fill-rule="evenodd" id="AZE-1707" data-name="Lankaran"/>
<path d="M 541.89 375.13 549.15 377.69 557.42 377.25 556.29 381.67 556.43 386.15 559.63 388.36 562.74 390.76 562.71 393.93 563.19 397.58 565.27 401.97 566.12 404.9 566.12 404.9 563.46 409.79 563.13 410.11 558.75 409.19 553.4 409.12 551.35 410.14 549.56 411.75 545.55 413.65 541.18 415.29 536.31 417.77 531.05 418.62 526.26 416.36 521.83 413.32 520.1 407.66 515.58 403.41 508.6 402.59 506.06 397.15 512.86 395.74 517.77 391.62 520.82 388.57 524.66 386.52 528.53 385.4 531.73 383.58 529.55 380.5 529.67 377.34 532.25 376.82 534.84 377.45 536.11 376.46 536.3 374.27 539.15 374.2 541.89 375.13 Z" id="AZE-1708" data-name="Masallı"/>
<path d="M 521.83 413.32 518.03 419.08 519.64 425.04 525.67 428.14 531.63 431.28 533.73 434.17 535.49 437.11 535.09 439.66 535.36 441.97 538.15 443.5 540.51 445.7 538.86 449 536.11 452.26 533.13 453.66 530.12 454.59 527.08 454.25 523.87 455.02 520.96 456.25 518.49 458.14 517.5 461.31 515.5 464.15 513.95 467.6 510.56 464.25 508.53 461.99 506.23 460.02 503.99 457.27 501.81 455.7 500.05 453.85 499.09 450.24 497.53 447.29 494.32 447.29 487.41 449.82 483.22 449.74 480.75 447.91 478.61 445.43 472 441.28 471.74 438.97 472.31 436.31 471.67 434.32 474.8 433.09 476.67 430.84 478.49 429.1 479.16 426.14 480.42 423.5 482.75 421.04 485.31 418.99 488.36 417.52 491.12 415.69 503.63 409.91 515.58 403.41 520.1 407.66 521.83 413.32 Z" id="AZE-1709" data-name="Lerik"/>
<path d="M 616.2 325.88 616.26 327.67 617.61 330.19 630.31 339.18 631.95 340.74 633.05 342.51 632.93 343.1 632.32 343.59 631.46 348.13 631.65 349.5 632.79 351.06 631.12 350.38 629.86 349.53 628.92 348.5 628.16 347.34 627.31 347.34 627.82 349.36 628.98 351.59 630.65 353.54 632.79 354.71 632.79 355.72 629.72 355.15 627.79 353.49 626.06 351.55 619.07 347.95 614.53 349.3 611.01 352.83 609.61 357.16 609.71 372.09 609.23 373.88 609.23 373.88 607.09 371.94 601.48 370.84 596.17 368.76 591.41 367.67 587.18 365.47 584.48 361.06 580.5 358.37 573.67 362.48 567.52 367.9 562.17 372.4 557.42 377.25 549.15 377.69 541.89 375.13 543.39 365.83 538.5 357.21 537.45 351.99 538.51 346.78 541.56 342.94 545.06 339.45 551.3 343.06 557.4 346.84 562.49 347.61 567.35 344.73 569.91 344.24 571.33 342.56 570.57 339.39 570.14 336.01 573.42 331.39 574.01 331.06 575.41 330.26 575.86 329.44 579.71 326.61 580.58 324.44 581.09 322.98 584.47 320.44 589.02 324.15 593.75 328.59 596.79 329.74 600 330.2 602.48 329.82 604.87 328.51 610.15 327.2 615.39 325.98 616.19 325.88 616.2 325.88 Z" id="AZE-1710" data-name="Neftçala"/>
<path d="M 613.16 189.87 610.3 193.86 606.53 196.76 602.65 199.15 598.5 200.55 594.2 201.17 590.3 202.91 588.22 205.92 585.5 208.07 580.82 209.24 576.97 212.28 574.01 214.64 571.01 216.96 568.59 219.07 565.98 217.76 561.6 215.47 556.9 214.02 549.41 214.61 542.76 211.81 537.31 212.27 531.99 212.42 531.12 210.35 534.97 208.72 537.4 207.12 538.16 204.35 539.76 201.93 541.35 199.53 542.2 197.27 540.53 195.33 539.91 193.36 540.14 190.97 539.63 188.04 538.65 185.21 538.62 182.67 538.03 180.39 535.94 179.11 534.69 177.37 536.72 174.75 539.17 172.17 538.65 166.21 540.38 160.48 545.47 157.46 551.1 154.94 558.99 156.73 566.29 160.91 569.53 163.22 572.45 166.11 577.77 170.52 583.74 173.91 591.08 175.85 596.95 180.48 604.27 186.27 613.16 189.87 Z" id="AZE-1711" data-name="Qobustan"/>
<path d="M 600.75 103.41 601.62 104.87 603.94 114.63 610.44 122.82 626.8 136.87 627.93 138.17 627.35 138.35 621.89 138.24 616.64 138.96 610.23 140.28 603.55 139.82 597.79 138.26 592.35 135.62 588.5 134.51 585.11 132.71 584.15 127.66 581.13 125.69 578.16 126.45 576.02 128.28 575.38 130.48 574.46 132.48 570.03 134.47 565.12 135.64 560.67 136.9 556.08 137.1 554.31 130.83 553.16 124.61 555.17 121 559.11 118.89 561.69 118.51 564.5 118.15 566.45 116.28 567.84 113.97 567.73 108.81 565.27 104.17 569.79 99.43 579.57 99.42 583.88 98.05 588.21 97.05 593.42 100.27 598.84 103.55 600.74 103.41 600.75 103.41 Z" id="AZE-1712" data-name="Siyəzən"/>
<path d="M 520.28 306.32 514.65 311.36 507.83 308.57 500.12 304.92 492.64 310.42 489.41 307.53 487.31 304.31 487.27 301.25 487.45 298.2 488.17 296.56 488.44 294.74 481.98 290.26 473.76 288.08 471.49 285.41 470.17 282.22 471.32 278.6 473.57 275.36 475.34 272.41 474.74 269.29 473.05 267.78 471.7 266.2 473.08 263.84 474.94 261.59 477.25 264.41 480.12 264.13 483.72 262.68 487.31 261.11 491.94 259.42 496.72 258.84 499.98 260.02 502.84 261.91 501.91 263.78 500.93 265.89 502.27 267.88 504.37 269.11 506.14 269.23 507.5 268.07 510.43 266.7 513.85 266.87 519.72 269.35 525.35 272.26 531.12 274.26 535.49 278.62 535.43 281.29 534.56 283.75 535.09 287.25 536.86 290.29 536.86 295.01 533.5 299.01 527.24 301.38 520.6 302.43 516.61 305.02 520.28 306.32 Z" id="AZE-1713" data-name="Saatlı"/>
<path d="M 560.01 261.33 559.58 265.37 559.55 267.25 560.54 269.07 561.49 270.02 563.19 270.67 564.08 270.98 564.94 271.69 564.96 272.17 567.14 275.26 568.69 276.93 569.32 278.18 569.39 279.05 569.25 281.65 569.32 282.75 569.76 283.85 570.88 285.34 571.18 286.56 570.76 287.46 569.91 288.5 569.36 289.62 569.83 290.75 574.08 293.85 576.14 295.79 576.34 297.27 574.86 299.22 572.99 302.98 571.18 304.34 568.63 305.07 565.81 307.37 561.68 309.06 562.25 312.15 561.59 314.45 558.53 313.37 555.24 311.86 550.31 312.3 545.5 312.6 538.77 310.89 532.11 309.08 526.21 307.1 520.28 306.32 516.61 305.02 520.6 302.43 527.24 301.38 533.5 299.01 536.86 295.01 536.86 290.29 535.09 287.25 534.56 283.75 535.43 281.29 535.49 278.62 531.12 274.26 525.35 272.26 519.72 269.35 513.85 266.87 510.43 266.7 507.5 268.07 506.14 269.23 504.37 269.11 502.27 267.88 500.93 265.89 501.91 263.78 502.84 261.91 499.98 260.02 496.72 258.84 491.94 259.42 487.31 261.11 483.72 262.68 480.12 264.13 477.25 264.41 474.94 261.59 477.65 259.54 480.56 257.81 483.22 257.25 484.91 256.28 485.16 254.65 484.15 253.39 486.22 251.14 487.32 249.31 490.84 246.66 495.2 244.71 498.86 241.93 503.29 240.03 516.04 240.17 528.31 242.73 531.32 244 531.08 245.74 531.56 248.21 531.96 248.49 532.06 249.14 531.99 250.59 532.11 251.7 532.47 251.85 533.06 251.73 536.57 253.19 539.66 253.63 542.2 254.3 543.24 256.17 544.86 256.76 552.64 257.76 555.35 258.46 560.01 261.33 Z" id="AZE-1714" data-name="Sabirabad"/>
<path d="M 625.94 284.45 623.98 289.7 624.27 295.59 624.85 300.18 626.21 304.29 626.2 304.3 623.27 307.04 620.65 310.46 620.79 312.8 619.2 315.07 617.8 318.07 616.72 321.23 616.14 323.99 616.2 325.88 616.19 325.88 615.39 325.98 610.15 327.2 604.87 328.51 602.48 329.82 600 330.2 596.79 329.74 593.75 328.59 589.02 324.15 584.47 320.44 581.09 322.98 580.58 324.44 579.71 326.61 575.86 329.44 575.41 330.26 574.01 331.06 573.42 331.39 570.14 336.01 570.57 339.39 571.33 342.56 569.91 344.24 567.35 344.73 562.49 347.61 557.4 346.84 551.3 343.06 545.06 339.45 546.37 335.79 547.08 332.19 544.58 329.3 541.86 326.69 542.57 319.63 545.5 312.6 550.31 312.3 555.24 311.86 558.53 313.37 561.59 314.45 562.25 312.15 561.68 309.06 565.81 307.37 568.63 305.07 571.18 304.34 572.99 302.98 574.86 299.22 576.34 297.27 576.14 295.79 574.08 293.85 569.83 290.75 569.36 289.62 569.91 288.5 570.76 287.46 571.18 286.56 570.88 285.34 569.76 283.85 569.32 282.75 569.25 281.65 569.39 279.05 569.32 278.18 568.69 276.93 567.14 275.26 564.96 272.17 564.94 271.69 565.98 272 567.93 270.57 572.49 270.14 577.39 269.93 582.62 272.7 587.99 274.96 595 275.82 601.89 276.28 604.23 276.59 606.5 277.04 610.03 276.29 613.37 275.65 615.84 277.17 617.83 279.37 621.83 281.96 625.94 284.45 Z" id="AZE-1715" data-name="Salyan"/>
<path d="M 533.64 136.75 540.64 139.33 547.53 142.21 545.79 149.09 551.1 154.94 545.47 157.46 540.38 160.48 538.65 166.21 539.17 172.17 536.72 174.75 534.69 177.37 535.94 179.11 538.03 180.39 538.62 182.67 538.65 185.21 539.63 188.04 540.14 190.97 539.91 193.36 540.53 195.33 542.2 197.27 541.35 199.53 539.76 201.93 538.16 204.35 537.4 207.12 534.97 208.72 531.12 210.35 531.99 212.42 537.31 212.27 542.76 211.81 540.96 217.11 537 220.55 532.52 222.27 527.83 220.51 521.98 218.38 516.38 215.85 511 214.66 505.5 213.64 508.47 210.91 511.12 208.07 511.53 204.75 512.02 201.48 517.98 197.82 524.9 195.49 527.73 194.42 529.83 192.42 527.53 191.02 524.52 189.91 521.72 188.31 518.78 187.13 514.05 187.01 509.31 186.9 504.13 185.25 500.29 181.48 501.77 175.8 507.69 171.52 508.79 170.39 509.7 169.24 509.72 167.86 509.59 166.87 511.34 164.32 512.76 161.78 510.18 157.51 505.94 154.25 505.02 152.4 503.79 150.55 508.08 144.64 507.18 138.58 500 134.76 493.98 129.47 505.01 129.55 515.67 131.87 524.52 134.72 533.64 136.75 Z" id="AZE-1716" data-name="Şamaxı"/>
<path d="M 643.11 171.97 644.3 169.25 648.94 168.81 649.82 168.42 650.77 169.63 653.19 171.38 655.86 172.91 657.69 173.56 663.62 173.83 666.28 174.37 668.44 175.33 673.31 178.62 674.07 178.9 674.07 178.91 673.67 180.23 672.58 181.81 671.44 183.35 664.52 185.18 657.61 184.65 655.25 181.84 653.05 178.79 648.39 174.64 643.11 171.97 Z" id="AZE-1717" data-name="Sumqayıt"/>
<path d="M 384.48 187.17 386.77 189.25 389.66 190.99 392.4 190.26 395.3 189.52 398.87 191.04 402.22 193.11 405.48 194.19 408.21 193.12 410.46 191.66 413.22 191.82 417.83 193.63 422.44 195.47 427.47 197.26 432.79 197.81 436.35 197.49 439.89 198.59 439.19 204.24 437.97 209.63 435.38 213.28 431.93 216.11 424.19 216.5 416.62 217.45 409.47 216.74 402.63 216.94 399.31 218.6 395.86 218.98 393.69 216.73 391.46 214.14 383.78 209.6 375.84 205.54 373.78 202.41 369.96 200.75 367.99 197.32 368.94 193.29 370.04 188.37 374.06 186.33 379.21 185.88 384.48 187.17 Z" id="AZE-1718" data-name="Ucar"/>
<path d="M 627.93 138.17 628.16 138.43 629.38 140.63 632.26 142.53 638.48 145.45 641.52 144.84 644.09 146.56 646.54 148.87 649.27 150.02 650.76 151.34 650.15 154.33 647.78 159.41 646.97 162.05 646.77 163.49 646.93 165 647.5 165.87 649.33 167.6 649.73 168.3 649.82 168.42 649.82 168.42 648.94 168.81 644.3 169.25 643.11 171.97 640.38 175.53 636.61 178.06 634.78 179.71 633.21 181.42 632.61 184.02 632 186.56 623.19 189.61 613.16 189.87 604.27 186.27 596.95 180.48 591.08 175.85 583.74 173.91 577.77 170.52 572.45 166.11 569.53 163.22 566.29 160.91 558.99 156.73 551.1 154.94 545.79 149.09 547.53 142.21 551.59 139.25 556.08 137.1 560.67 136.9 565.12 135.64 570.03 134.47 574.46 132.48 575.38 130.48 576.02 128.28 578.16 126.45 581.13 125.69 584.15 127.66 585.11 132.71 588.5 134.51 592.35 135.62 597.79 138.26 603.55 139.82 610.23 140.28 616.64 138.96 621.89 138.24 627.35 138.35 627.93 138.17 Z" id="AZE-1719" data-name="Xizı"/>
<path d="M 506.06 397.15 508.6 402.59 515.58 403.41 503.63 409.91 491.12 415.69 488.36 417.52 485.31 418.99 482.75 421.04 480.42 423.5 479.16 426.14 478.49 429.1 476.67 430.84 474.8 433.09 471.67 434.32 471.3 433.19 469.59 432.06 451.53 425.08 442.66 419.54 439.96 415.65 439.63 410.04 440.9 408.49 448.05 405.04 448.44 404.16 448.41 403.13 448.88 402.25 474.06 398.77 479.68 396.06 479.68 396.05 479.69 396.03 479.69 396.02 479.71 396.02 480.95 394.58 482 392.82 482.03 392.76 491.14 392.46 494.34 391.63 497.59 391.12 502.27 393.49 506.06 397.15 Z" id="AZE-1720" data-name="Yardımlı"/>
<path d="M 431.93 216.11 431.76 226.25 433.3 236.03 431.08 239.12 427.98 241.73 424.01 243.18 420.6 245.07 419.35 244.65 417.9 244.44 416.56 245 413.8 245.63 412.39 243.27 412.21 242.97 411.48 239.54 411.36 237.89 409.6 237.2 407.7 237.07 407.11 237.03 404.87 236.52 403.91 234.76 403.27 231.11 401.68 231.19 397.48 235.26 395.84 234.43 394.62 234.76 393.41 235.34 391.81 235.26 390.96 234.67 390.16 233.06 389.01 232.3 385.73 231.99 383.07 233.21 380.78 234.71 378.68 235.26 378.32 234.55 375.05 230.44 372.25 225.87 371.48 225.04 370.77 224.66 370.56 224.22 370.54 224.18 371.23 223.07 372.37 222.25 374.91 221.41 375.98 220.28 365.18 219.27 365.2 218.51 364.9 218.12 367.55 216.4 371.92 212.7 373.98 209.22 375.84 205.54 383.78 209.6 391.46 214.14 393.69 216.73 395.86 218.98 399.31 218.6 402.63 216.94 409.47 216.74 416.62 217.45 424.19 216.5 431.93 216.11 Z" id="AZE-1721" data-name="Zərdab"/>
<path d="M 407.7 237.07 401.86 247.22 398.78 252.4 397.42 258.99 395.91 265.39 393.83 270.26 389.85 273.47 385.28 274.47 380.9 275.89 377.63 276.09 374.33 275.89 372.76 276.74 371.85 278.16 367.7 279.49 365.36 282.47 366.33 284.7 367.1 286.46 365.29 287.39 363.5 288.57 365.42 291.26 368.05 294.51 357.47 296.48 347 298.65 350.8 292.9 348.72 287.63 346.97 286.77 341.98 284.33 339.66 280.37 338.47 278.33 339.55 277.82 340.56 277.17 343.48 272.39 340.38 268.44 334.38 269.14 328.59 270.82 328.51 270.81 317.4 268.97 314.38 262.27 316.13 261.43 317.84 260.38 318.18 256.58 318.39 252.83 322.6 251.81 323.45 251.6 327.23 248.99 323.15 246.31 323.7 243.19 330.11 240.01 335.73 235.67 335.47 233.51 339.01 235.74 343.01 237.9 347.55 236.74 359.03 230.92 370.56 224.22 370.77 224.66 371.48 225.04 372.25 225.87 375.05 230.44 378.32 234.55 378.68 235.26 380.78 234.71 383.07 233.21 385.73 231.99 389.01 232.3 390.16 233.06 390.96 234.67 391.81 235.26 393.41 235.34 394.62 234.76 395.84 234.43 397.48 235.26 401.68 231.19 403.27 231.11 403.91 234.76 404.87 236.52 407.11 237.03 407.7 237.07 Z" id="AZE-1722" data-name="Ağcabədi"/>
<path d="M 264.9 8.55 265.83 11.63 263.92 16.37 259.31 20.06 254.02 22.87 249.77 24.89 245.76 27.26 243.56 31.09 241.94 35.28 238.78 38.38 234.75 40.46 229.98 41.65 225.28 42.44 221.62 44.42 217.88 46.53 213.7 46.79 209.59 45.08 206.3 44.54 206.1 43.56 203.07 39.2 202.76 38.44 200.87 38.5 199.97 39.53 199.29 40.78 198.09 41.52 194.42 39.22 192.68 33.09 192.61 26.17 193.9 21.5 196.54 19.4 199.51 19.16 205.9 20.25 208.74 20.04 210.92 19.25 212.91 17.91 218.77 12.56 221.69 9.01 226.9 1 229.82 1.58 233.5 1.47 239.8 2.11 242.26 3.2 243.02 5.78 242.36 11.32 243.12 13.64 245.54 15.15 248.13 15.14 250.5 13.99 254.94 11.08 257.74 10.33 263.25 9.49 264.9 8.55 Z" id="AZE-1723" data-name="Balakən"/>
<path d="M 415.46 95.52 416.49 97.25 420.84 99.43 425.82 100.29 430.86 100.93 434.35 109.05 445.14 113.83 443 115.71 441.47 118.03 440.76 120.54 439.64 122.72 437.76 122.39 435.83 122.21 434.64 123.64 433.92 125.31 435.31 129.77 438.62 134.06 438.18 138.3 434.21 140.84 432.17 141.12 430.4 141.65 429.94 144.66 429.81 147.79 424.54 150.99 418.35 153.11 414.35 155.69 411.54 159.68 408.07 163.31 404.41 166.77 399.93 168.4 395.08 168.52 389.8 169.47 384.79 171.61 380.34 169.64 377.03 166.9 376.68 160.93 376.2 154.97 380.99 153.91 382.23 150.32 382.42 141.98 385.19 134.08 387.44 131.05 389.73 128.05 390.23 124.73 389.67 121.52 393.91 115.68 397.78 109.26 398.82 105.77 400.04 102.59 399.57 101 398.92 99.36 399.06 95.85 399.28 94.19 403.33 95.75 405.94 96.16 415.46 95.52 Z" id="AZE-1724" data-name="Qəbələ"/>
<path d="M 399.28 94.19 399.06 95.85 398.92 99.36 399.57 101 400.04 102.59 398.82 105.77 397.78 109.26 393.91 115.68 389.67 121.52 390.23 124.73 389.73 128.05 387.44 131.05 385.19 134.08 382.42 141.98 382.23 150.32 369.1 145.04 356.95 137.97 354.65 135.98 352.85 133.52 352.13 130.62 351.29 128.17 349.36 128.04 347.4 128.57 346.14 127.3 346.68 125.43 343.64 122.86 341.37 119.66 343.03 114.15 346 109.08 348.88 104.34 351.77 99.62 353.42 92.28 354.6 86.74 355.74 87.06 369.86 88.08 372.83 88.85 376.68 92.91 379.16 94.39 381.95 94.41 386.77 91.99 389.41 91.2 392.14 91.45 399.28 94.19 Z" id="AZE-1725" data-name="Oğuz"/>
<path d="M 328.96 55.38 328.95 55.38 328.59 56 327.18 61.49 323.98 65.83 312.74 71.61 300.54 75.69 294.98 77.54 289.72 80.08 287.46 82.18 286.17 84.65 284.4 86.59 281.9 88.1 279.03 93.22 278.16 99.73 278.94 105.05 285.11 107.5 294.56 119.07 294.96 134.59 283.46 129.81 271.74 127.08 271.1 123.46 269.13 120.34 268.31 116.37 267.72 112.56 262.28 110.1 256.07 109.93 252.08 107.62 252.84 106.81 253.98 102.43 254.7 97.75 256.02 94.08 256.83 93.23 258.63 91.96 259.43 91.09 259.72 90.19 259.87 87.8 260.14 86.75 261.34 85.69 262.47 85.82 262.89 85.65 262.03 83.66 257.74 78.71 255.11 76.49 254.19 75.32 254.03 75.23 254.03 75.23 255.07 71.4 261.06 65.62 265.5 58.25 269.99 52.78 277 51.04 286.05 51.42 294.85 53.53 302.95 52.18 308.37 46.47 313.94 45.89 316.55 45.12 319.17 44.71 321.64 45.21 323.79 47.1 324.8 49.46 325.27 51.78 326.24 53.77 328.65 55.14 328.96 55.38 Z" id="AZE-1726" data-name="Qax"/>
<path d="M 354.6 86.74 353.42 92.28 351.77 99.62 348.88 104.34 346 109.08 343.03 114.15 341.37 119.66 343.64 122.86 346.68 125.43 346.14 127.3 347.4 128.57 349.36 128.04 351.29 128.17 352.13 130.62 352.85 133.52 354.65 135.98 356.95 137.97 369.1 145.04 382.23 150.32 380.99 153.91 376.2 154.97 370.81 155.76 365.62 154.83 363.22 153.92 360.8 153.36 359.45 153.84 358.37 154.34 355.04 154.32 351.63 153.19 346.02 152.12 340.36 151.24 329.98 147.82 319.58 144.56 307.35 139.36 294.96 134.59 294.56 119.07 285.11 107.5 278.94 105.05 278.16 99.73 279.03 93.22 281.9 88.1 284.4 86.59 286.17 84.65 287.46 82.18 289.72 80.08 294.98 77.54 300.54 75.69 312.74 71.61 323.98 65.83 327.18 61.49 328.59 56 328.95 55.38 328.96 55.38 330.03 56.21 330.67 57.43 331.12 58.75 331.86 60.13 336.08 64.13 337.12 65.74 337.62 69.08 337.37 76.22 338.72 79.34 341.12 81.14 351.49 85.86 354.6 86.74 Z M 330.28 101.24 332.24 100.47 334.44 96.85 334.04 94.09 331.24 90.43 329.62 89.5 328.09 90.4 327.15 92.59 326.22 95.15 324.99 97.98 324.69 100.07 330.28 101.24 Z" fill-rule="evenodd" id="AZE-1727" data-name="Şəki"/>
<path d="M 542.38 74.91 540.84 80.53 540.93 86.06 542.77 87.75 542.8 89.74 541.09 91.45 539.27 93.11 532.18 97.84 528.56 104.43 534.34 108.81 539.27 113.73 537.48 117.21 533.99 119.24 531.37 122.24 533.41 125.55 534.12 130.69 533.64 136.75 524.52 134.72 515.67 131.87 505.01 129.55 493.98 129.47 485.96 124.05 475.64 123.49 468.22 120.87 460.94 117.67 457.12 116.03 453.26 114.79 449.17 114.52 445.14 113.83 434.35 109.05 430.86 100.93 457.29 85.73 484.27 71.47 493.56 65.62 503.66 61.73 511.76 59.82 519.38 56.5 522.21 60.59 525.71 64.63 528.15 68.44 530.68 72.18 533.02 74.63 536.45 74 539.68 73.14 542.38 74.91 Z" id="AZE-1728" data-name="Quba"/>
<path d="M 519.38 56.5 511.76 59.82 503.66 61.73 493.56 65.62 484.27 71.47 457.29 85.73 430.86 100.93 425.82 100.29 420.84 99.43 416.49 97.25 415.46 95.52 417.54 95.38 423.32 94.05 426.52 92.53 427.1 91.2 426.41 89.45 425.79 86.65 426.18 83.81 427.45 82.48 429.27 81.5 431.27 79.68 432.43 77.2 433.08 75.06 434.52 73.92 438.05 74.38 441.12 73.06 445.61 63.3 448.2 59.53 452.7 57.44 468.42 55.14 472.45 53.5 479.59 48.86 491.38 43.32 494.5 40.76 497.25 36.85 503.01 25.01 503.93 24.11 507.43 23.87 511.03 26.85 507.95 34.05 510.4 40.67 514.09 40.9 517.45 41.61 517.4 44.31 515.15 46.73 517.71 50.82 519.38 56.5 Z" id="AZE-1729" data-name="Qusar"/>
<path d="M 588.01 73.7 587.22 73.89 579.9 74.07 572.79 73.13 566.37 72.68 560.18 74.48 555.44 74.23 551.16 73.08 546.84 74.53 542.38 74.91 539.68 73.14 536.45 74 533.02 74.63 530.68 72.18 528.15 68.44 525.71 64.63 522.21 60.59 519.38 56.5 517.71 50.82 515.15 46.73 517.4 44.31 517.45 41.61 514.09 40.9 510.4 40.67 507.95 34.05 511.03 26.85 507.43 23.87 503.93 24.11 513.27 15.06 519.85 7.16 521.27 8.1 525.47 10.01 530.29 13.25 542.32 25.76 546.98 29.29 548.89 31.42 549.68 34.73 558.99 42.6 564.19 51.06 566.96 51.82 569.25 53.62 570.99 55.74 572.12 57.5 575.28 61 575.84 61.82 576.52 62.38 579.9 63.15 581.04 63.63 583.07 65.93 588 73.68 588.01 73.7 Z" id="AZE-1730" data-name="Xaçmaz"/>
<path d="M 308.37 46.47 302.95 52.18 294.85 53.53 286.05 51.42 277 51.04 269.99 52.78 265.5 58.25 261.06 65.62 255.07 71.4 254.03 75.23 254.03 75.23 253.08 74.76 250.96 75.39 248.81 71.58 242.11 68.57 228.83 64.35 222.45 59.88 219.67 59.37 218.08 58.81 210.95 55.1 208.6 52.83 207.39 49.87 206.3 44.54 209.59 45.08 213.7 46.79 217.88 46.53 221.62 44.42 225.28 42.44 229.98 41.65 234.75 40.46 238.78 38.38 241.94 35.28 243.56 31.09 245.76 27.26 249.77 24.89 254.02 22.87 259.31 20.06 263.92 16.37 265.83 11.63 264.9 8.55 265.72 8.09 268.02 6.32 269.16 6.35 269.74 7.86 270.96 13.21 271.7 15.07 273.02 16.65 281.98 22.85 284.31 23.93 286.03 24.29 289.58 24.64 291.18 25.23 291.81 26.03 292.55 28.53 293.05 29.57 294.9 31.44 301.68 35.77 305.05 39.87 306.23 43.95 308.2 46.48 308.37 46.47 Z" id="AZE-1731" data-name="Zaqatala"/>
<path d="M 338.47 278.33 339.66 280.37 341.98 284.33 346.97 286.77 348.72 287.63 350.8 292.9 347 298.65 341.82 299.66 339.42 300.03 336.52 300.46 332.33 301.29 328.27 301.84 325.68 302.93 323.33 304.96 320.31 306.3 317.15 307.26 311.82 307.59 310.89 307.65 308.53 310.75 313.61 311.55 318.01 311.11 316.63 312.47 314.96 314.12 309.35 315.11 308.97 315.45 307.11 317.11 307.97 319.41 311.02 319.13 313.77 317.31 317.8 316.02 318.85 319.05 317.51 320.49 316.34 322.1 317.03 324.32 317.18 324.82 317.8 327.45 315.42 328.02 313.9 328.23 312.82 328.38 312.83 329.89 312.48 330.49 311.79 331.66 309.69 334.21 308.9 335.17 310.07 338.05 310.62 339.41 310.52 341.17 308.42 341.26 305.74 341.54 303.39 343.21 299.96 343.67 298.23 341.16 293.63 339.19 289.65 336.53 289.85 334.65 288.92 333.11 286.8 332.48 284.66 331.86 281.51 330.23 281.25 330.09 278.3 331.61 279.3 333.69 280.39 335.97 280.2 336.43 279.53 338.12 278.6 340.46 273.56 340.06 272.74 339.82 272.24 339.67 268.17 338.43 270.59 335.71 271.49 333.53 271.93 332.47 271.21 331.57 270.27 330.38 267.91 329.05 265.04 329.63 262.17 330.17 258.86 329.79 255.51 329.27 259.29 327.27 261.87 324.38 261.77 323.99 261.39 322.36 261.04 320.88 258.69 318.89 260.05 317.69 262.32 315.68 268.46 314.9 269.14 314.07 269.67 313.42 272.17 310.38 275.79 305.81 279.25 308.21 282.84 309.7 287.49 307.16 291.7 304.05 290.06 298.76 285.62 295 283.17 292.99 281.54 290.44 282.76 288.61 284.43 286.74 289.61 284.7 294.94 283.08 297.63 279.79 299.11 275.86 305.01 274.78 310.65 276.92 318.09 280.75 325.85 282.18 327.64 280.04 328.4 279.25 329.25 278.36 329.76 277.83 330.58 277.76 334.08 277.46 336.42 277.92 338.47 278.33 Z" id="AZE-1734" data-name="Xocavənd"/>
<path d="M 241.82 291.87 243.23 296.12 243.74 298.8 244.04 300.39 243.31 301.52 241.79 303.86 239.95 307.61 240.49 311.25 243.51 312.14 246.16 313.13 248.51 314.74 254.17 314.22 255.15 312.95 258.36 308.79 258.38 308.76 262.09 307.78 265.84 308.08 267.77 311.04 268.23 313.65 268.46 314.9 262.32 315.68 260.05 317.69 258.69 318.89 261.04 320.88 261.39 322.36 261.77 323.99 261.87 324.38 259.29 327.27 255.51 329.27 250.13 332.19 244.82 335.38 238.63 334.81 233.45 332.22 233.5 332.21 235.15 331.59 236.08 330.59 236.13 329.32 235.19 327.88 235.23 325.62 236.83 324.5 238.81 323.54 240.04 321.81 239.63 319.56 237.96 317.8 235.7 316.66 233.5 316.29 224.89 316.92 222.19 316.56 220.15 315.42 216.94 312.06 215.01 310.84 210.34 310.58 201.02 314.26 196.29 315.02 193.26 314.3 191.25 312.82 188.05 308.13 186.09 306.26 183.74 305.24 178.57 304.09 174.28 301.44 169.03 293.2 165.3 290.4 156.69 288.4 152.2 286.63 152.21 286.62 154.8 285.06 160.08 282.12 165.07 278.67 167.63 274.14 170.34 270.83 173.86 273.04 177.27 275.96 181.94 275.54 186.71 274.41 196.61 273.31 206.15 270.78 212.05 268.82 218.13 268.1 223.89 266.46 229.64 264.53 227.75 268.61 228.83 272.13 231.96 273.71 234.77 275.78 239.49 283.33 241.82 291.87 Z" id="AZE-1735" data-name="Lankaran"/>
<path d="M 268.17 338.43 264.95 340.85 264.07 345.07 266.02 348.05 268.62 351.09 269.08 355.58 271.2 359.45 275.87 361.6 280.36 364.11 274.83 366.49 269.51 369.19 264.97 373.23 261.03 377.67 255.49 375.06 253.99 365.2 249.84 364.86 249.67 364.51 248.75 363.69 247.85 363.05 242.03 359.88 238.73 357.18 237.4 355.17 236.68 353 235.68 351.02 233.5 349.62 223.69 346.22 219.22 343.54 217.35 339.25 219.14 335.74 223.46 333.67 233.45 332.22 238.63 334.81 244.82 335.38 250.13 332.19 255.51 329.27 258.86 329.79 262.17 330.17 265.04 329.63 267.91 329.05 270.27 330.38 271.21 331.57 271.93 332.47 271.49 333.53 270.59 335.71 268.17 338.43 Z" id="AZE-1736" data-name="Qubadli"/>
<path d="M 269.19 289.94 268.1 291.35 268.24 292.79 269.54 293.58 271.71 293.51 272.72 292.64 274.09 291.99 275.53 296.69 275.82 300.59 275.89 303.26 275.79 305.81 272.17 310.38 269.67 313.42 269.14 314.07 268.46 314.9 268.23 313.65 267.77 311.04 265.84 308.08 262.09 307.78 258.38 308.76 258.36 308.79 255.15 312.95 254.17 314.22 248.51 314.74 246.16 313.13 243.51 312.14 240.49 311.25 239.95 307.61 241.79 303.86 243.31 301.52 244.04 300.39 243.74 298.8 243.23 296.12 241.82 291.87 244.93 291.5 245.58 291.43 248.02 291.18 250.87 290.11 253.65 289.01 259.43 288.46 265.64 289.25 269.19 289.94 Z" id="AZE-1737" data-name="Şuşa"/>
<path d="M 300.33 202.13 301.2 205.32 302.11 208.47 303.6 209.9 305.53 210.98 307.9 214.31 311.13 216.57 315.11 217.68 314.84 221.59 314.49 226.28 314.82 230.96 315.68 233.46 316.28 236.07 313.88 236.31 312.45 236.46 308.87 235.61 307.61 232.09 305.03 229.63 301.87 230.62 298.47 230.13 297 229.05 295.38 228.6 295.26 228.57 294.3 230.29 294.31 230.32 295.09 232.47 286.52 235.7 281.33 237.51 280.47 237.81 279.15 238.27 278.11 242.93 274.59 245.73 272.61 249.4 271.99 254.33 268.77 251.55 268.03 250.24 267.05 248.5 265.33 245.74 261.85 243.62 255.01 238.65 246.84 238.03 243.86 239.85 240.72 240.62 238.94 236.86 237.73 232.39 236.24 227.53 236.87 222.55 238.2 221.62 239.58 220.78 240.51 218.53 241.02 216.12 241.9 215.24 243.83 213.31 245.72 211.41 246.58 211.15 248.15 210.69 253.28 209.17 259.84 206.04 266.6 203.75 270.69 203.86 271.7 203.89 276.79 203.77 278.4 203.05 279.73 202.46 282.5 200.83 285.14 199.34 287.83 198.02 290.89 195.73 294.15 193.36 295.17 195.46 295.85 197.73 297.89 200.06 300.33 202.13 Z" id="AZE-1738" data-name="Tərtər"/>
<path d="M 284.43 286.74 282.76 288.61 281.54 290.44 283.17 292.99 285.62 295 290.06 298.76 291.7 304.05 287.49 307.16 282.84 309.7 279.25 308.21 275.79 305.81 275.89 303.26 275.82 300.59 275.53 296.69 274.09 291.99 271.56 290.41 269.19 289.94 265.64 289.25 259.43 288.46 253.65 289.01 250.87 290.11 248.02 291.18 245.58 291.43 244.93 291.5 241.82 291.87 239.49 283.33 234.77 275.78 231.96 273.71 228.83 272.13 227.75 268.61 229.64 264.53 230.64 264.07 233.83 262.6 237.61 260.8 241.79 262.38 245.47 264.45 249.71 262.56 252.72 259.14 257.69 257.12 263.31 256.35 268.15 259.05 273.73 257.83 280.32 260.41 282.89 264.98 283.72 266.47 286.34 268.38 288.51 269.95 294.1 271.96 292.91 275.63 290.14 278.47 289.75 278.98 287.11 282.5 286.86 282.9 284.43 286.74 Z M 271.75 286.09 274.31 284.94 275.63 282.39 276.25 281.07 277.39 280.98 277.92 279.92 276.86 278.34 275.36 277.72 274.48 277.46 273.52 277.9 271.49 279.22 269.2 281.77 269.55 284.94 271.75 286.09 Z" fill-rule="evenodd" id="AZE-1739" data-name="Xocalı"/>
<path d="M 286.29 372.64 286.26 372.65 284.19 374 282.33 375.67 278.83 380.41 278.05 381.24 276.97 381.92 274.71 382.88 273.66 383.56 272 385.58 269.71 389.72 267.47 391.39 259.56 394.54 257.07 396.17 255.26 398 251.41 404.21 249.85 406.16 247.96 407.79 245.85 409.15 243.65 410.23 240.69 411.16 238.23 411.28 233.5 403.47 232.92 401.88 232.79 400.22 233.02 398.53 233.5 396.88 233.7 396.49 233.79 396.06 235.59 391.72 235.98 387.9 235.22 384.04 233.5 379.55 230.2 377.48 225.66 375.48 222.17 372.78 222.04 368.59 225.18 366.3 229.96 366.78 238.25 370.05 239.93 369.86 246.25 366.36 249.12 366.28 250.31 365.82 249.84 364.86 253.99 365.2 255.49 375.06 261.03 377.67 264.97 373.23 269.51 369.19 274.83 366.49 280.36 364.11 285.05 368.85 286.27 372.59 286.29 372.64 Z" id="AZE-1740" data-name="Zəngilan"/>
<path d="M 7.74 309.21 5.79 308.34 5.42 307.93 3.89 306.24 2.33 301.07 1 299.36 4.87 298.05 11.2 297.16 17.16 297.23 21.81 296.37 25.37 294.83 25.39 295.64 22.41 298.4 17.11 299.67 11.44 303.89 7.74 309.21 7.74 309.21 Z" id="AZE-2415" data-name="Sədərək"/>
<path d="M 186.66 413.79 185.32 413.94 177.4 412.37 168.38 409.19 139.64 404.47 136.5 403.51 136.51 403.5 136.56 403.47 139.06 400.03 135 396.8 130.12 394.09 129.8 392.69 130.45 391.41 130.95 388.93 131.72 386.67 134.66 383.86 137.52 381.03 139.89 376.94 142.31 372.9 143.57 370.34 144.46 367.68 145.08 365.3 145.97 363.15 148.83 360.8 151.57 358.3 154.73 355.09 162.51 358.05 165.3 360.12 166.19 361.19 166.5 362.22 166.22 363.2 165.3 364.12 162.01 367.49 161.17 370.96 162.42 374.54 165.3 378.24 168.84 382.19 171.61 386.51 178.71 401.96 186.66 413.79 Z" id="AZE-2418" data-name="Ordubad"/>
<path d="M 41.97 292.94 51.01 301.87 52.41 304.14 53.01 306.67 52.78 309.85 51.44 314.76 51.98 316.75 54.65 318.08 51.7 325.38 49.24 333.42 44.78 339.01 38.73 342.41 33.88 339.84 33.4 339.36 33.1 338.74 32.62 338.2 31.55 337.98 30.07 338.01 29.36 337.9 25.89 335.95 25.38 334.98 26.51 333.32 23.66 331.37 21.98 328.62 17.89 315.51 16.26 312.56 13.38 310.98 13.92 310.58 14.33 309.96 11.18 309.89 8.27 309.45 7.74 309.21 7.74 309.21 11.44 303.89 17.11 299.67 22.41 298.4 25.39 295.64 25.37 294.83 26.17 294.49 31.2 291.49 36.32 290.14 40.95 291.94 41.97 292.94 Z" id="AZE-2419" data-name="Şərur"/>
<path d="M 89.56 327.86 88.15 329.35 83.76 332.19 80.44 336.08 82.54 337.28 85.49 338.19 86.69 341.03 88.15 344 94.27 346.32 100.51 348.75 102.08 350.22 103.4 351.65 103.36 353.24 103.14 354.33 104.37 356.2 106.69 355.9 108.19 359.71 104.15 361.79 95.64 361.9 87.03 362.37 79.5 362.07 74.23 365.25 83.66 370.62 95.52 369.59 99.86 370.81 103.69 372.98 103.28 377.9 100.74 382.12 103.31 386.6 106.87 390.75 106.05 392.61 104.19 394.39 104.57 397.38 104.79 399.48 104.79 399.51 104.14 399.4 101.34 398.12 99.19 397.67 97.56 397.33 94.46 396.14 91.56 394.63 89.99 393.18 89.75 391.71 90.15 390.55 90.7 389.41 91.01 388.01 90.35 387.09 87.1 385.95 85.81 385.21 85.12 384.06 84.04 381.12 83.48 380.05 82.2 378.98 80.93 378.4 79.74 377.71 78.84 376.33 80.01 374.31 79.24 372.85 77.42 371.96 75.52 371.67 74.18 371.16 74.21 370 74.56 368.71 74.18 367.86 72.89 367.74 71.65 368.12 70.71 368.62 70.36 368.88 56.15 365.23 52.58 366.09 51.69 364.02 50.27 357.23 49.33 355.75 48.16 354.44 47.34 353.02 47.42 352.98 50.43 354 53.45 354.7 57.02 353.85 60.55 352.55 63.32 351.15 63.88 348.11 62.91 346.44 62.02 344.86 62.75 343.31 63.63 341.95 62.58 338.14 60.53 334.55 59.73 330.95 60.7 327.27 62.1 323.05 63.81 318.96 66.99 315.23 68.03 314.36 68.05 314.34 71.44 318.03 73.06 320.87 74.43 322.4 76.42 323.02 82.87 323.49 85.26 324.45 89.56 327.86 Z" id="AZE-2420" data-name="Babək"/>
<path d="M 154.73 355.09 151.57 358.3 148.83 360.8 145.97 363.15 145.08 365.3 144.46 367.68 143.57 370.34 142.31 372.9 139.89 376.94 137.52 381.03 134.66 383.86 131.72 386.67 130.95 388.93 130.45 391.41 129.8 392.69 130.12 394.09 135 396.8 139.06 400.03 136.56 403.47 136.51 403.5 136.5 403.51 129.52 401.37 117.37 401.27 109.6 399.79 105.82 399.69 104.79 399.51 104.79 399.48 104.57 397.38 104.19 394.39 106.05 392.61 106.87 390.75 103.31 386.6 100.74 382.12 103.28 377.9 103.69 372.98 99.86 370.81 95.52 369.59 101.32 366.74 104.15 361.79 108.19 359.71 106.69 355.9 112.52 353.29 118.51 351.48 122.45 349.82 125.53 352.34 128.92 352.88 131.79 350.09 135.77 346.35 135.96 346.25 135.99 346.23 136.35 346.87 144.09 348.42 146.9 350.19 149.49 352.38 152.75 354.34 154.73 355.09 Z" id="AZE-2421" data-name="Culfa"/>
<path d="M 95.52 369.59 83.66 370.62 74.23 365.25 79.5 362.07 87.03 362.37 95.64 361.9 104.15 361.79 101.32 366.74 95.52 369.59 Z" id="AZE-2422" data-name="Naxçıvan"/>
<path d="M 135.99 346.23 135.96 346.25 135.77 346.35 131.79 350.09 128.92 352.88 125.53 352.34 122.45 349.82 118.51 351.48 112.52 353.29 106.69 355.9 104.37 356.2 103.14 354.33 103.36 353.24 103.4 351.65 102.08 350.22 100.51 348.75 94.27 346.32 88.15 344 86.69 341.03 85.49 338.19 82.54 337.28 80.44 336.08 83.76 332.19 88.15 329.35 89.56 327.86 89.58 327.87 91.05 328.53 92.59 328.72 94.14 328.48 95.66 327.88 97.11 327.4 108.08 321.99 111.73 320.82 128.45 317.68 129.21 317.54 132.38 317.5 136.14 318.62 139.23 320.34 140.45 322.06 140.48 324.37 140.04 327.84 140.04 327.84 140.04 327.85 141.27 334.08 140.67 336.23 136.08 342.09 135.21 344.81 135.99 346.23 Z" id="AZE-2423" data-name="Şahbuz"/>
<path d="M 271.75 286.09 269.55 284.94 269.2 281.77 271.49 279.22 273.52 277.9 274.48 277.46 275.36 277.72 276.86 278.34 277.92 279.92 277.39 280.98 276.25 281.07 275.63 282.39 274.31 284.94 271.75 286.09 Z" id="AZE-4838" data-name="Stepanakert"/>
<path d="M 280.15 191.23 279.26 190.58 278.82 189.73 279.4 189.18 280.13 188.45 280.95 187.88 282.04 188.58 282.76 189.18 282.81 189.76 282.64 190.48 281.38 191.2 280.15 191.23 Z" id="AZE-5561" data-name="Naftalan"/>
<path d="M 558.65 429.58 556.46 431.83 554.64 432.48 553.96 431.53 553.59 429.71 553.59 427.53 553.59 425.49 556.43 424.11 558.61 428.39 558.65 429.58 Z" id="AZE-5562" data-name="Lankaran"/>
<path d="M 567.93 270.57 565.98 272 564.94 271.69 564.08 270.98 563.19 270.67 561.49 270.02 560.54 269.07 559.55 267.25 559.58 265.37 560.01 261.33 561.99 260.84 564.97 261.49 568.58 261.58 570.12 261.4 571.41 262.01 572.03 263.18 571.9 264.66 571.81 267.22 570.02 268.88 567.93 270.57 Z" id="AZE-5563" data-name="Shirvan"/>
<path d="M 330.28 101.24 324.69 100.07 324.99 97.98 326.22 95.15 327.15 92.59 328.09 90.4 329.62 89.5 331.24 90.43 334.04 94.09 334.44 96.85 332.24 100.47 330.28 101.24 Z" id="AZE-5564" data-name="Şəki"/>
<path d="M 274.09 291.99 272.72 292.64 271.71 293.51 269.54 293.58 268.24 292.79 268.1 291.35 269.19 289.94 271.56 290.41 274.09 291.99 Z" id="AZE-5565" data-name="Şuşa"/>
<path d="M 328.18 181.11 323.48 180.91 319.16 178.95 317.2 174.51 319.62 171.63 325.86 171.61 328.81 171.52 330.35 171.64 331.02 172.08 330.72 173.82 330.07 175.15 329.41 176.21 329.07 177.19 329.15 178.84 329.5 179.72 328.18 181.11 Z" id="AZE-5566" data-name="Yevlakh"/>
<path d="M 68.05 314.34 68.03 314.36 66.99 315.23 63.81 318.96 62.1 323.05 60.7 327.27 59.73 330.95 60.53 334.55 62.58 338.14 63.63 341.95 62.75 343.31 62.02 344.86 62.91 346.44 63.88 348.11 63.32 351.15 60.55 352.55 57.02 353.85 53.45 354.7 50.43 354 47.42 352.98 47.34 353.02 44.84 348.68 43.74 347.37 42.48 346.82 41.11 345.53 40 344.12 39.54 343.14 38.8 342.45 38.73 342.41 44.78 339.01 49.24 333.42 51.7 325.38 54.65 318.08 59.67 317.15 63.55 314.37 67.2 313.42 68.05 314.34 Z" id="AZE-5567" data-name="Kangarli"/>
</g>
</svg>