<?xml version="1.0"?>
<svg xmlns="http://www.w3.org/2000/svg" version="1.2" baseProfile="tiny" width="800" height="778" viewBox="0 0 800 778" stroke-linecap="round" stroke-linejoin="round">
<g id="ne_10m_admin_1_states_provinces">
<path d="M 466 441.23 449.18 472.45 263.19 471.84 2.76 471.6 1.13 471.6 1.12 462.74 1.11 448.1 1.08 433.46 1.07 418.81 1.05 406 1.04 393.18 1.03 380.38 1.01 367.57 1 360.24 20.93 360.24 40.87 360.24 60.8 360.24 80.73 360.24 85.61 360.24 86.7 357.11 86.69 353.61 86.67 348.7 86.66 343.8 86.64 338.89 86.62 333.98 86.6 329.07 86.58 324.16 86.56 319.25 86.55 314.35 86.53 309.44 86.51 304.53 86.5 299.63 86.48 294.72 86.47 289.81 86.45 284.91 86.43 280 86.42 275.09 86.42 275.02 88.01 275.02 333.34 275.02 466 441.23 Z" id="BWA-1191" data-name="Ghanzi"/>
<path d="M 263.19 471.84 261.95 479.16 260.22 480.61 256.36 480.51 255.51 480.83 254.81 481.51 254.5 484.73 254.6 492.89 254.81 493.53 255.39 493.75 256.22 493.84 261.04 493.83 262.56 500.05 262.84 530.4 262.49 600.58 262.65 601.64 263.1 602.5 264.27 602.78 265.55 602.9 347.2 602.45 348.52 602.59 349.83 602.94 351.17 603.9 361.02 613.24 362.12 614.55 363.02 615.96 363.4 617.82 364.76 658.32 367.55 661.65 377.38 670.66 378.7 671.03 382.62 671.29 384.89 672.9 386.09 680.16 382.33 678.9 380.63 679.09 378.93 679.75 376.59 680.29 372.3 679.64 368.71 677.23 362.83 670.89 359.06 668.92 354.59 668.95 345.75 671.12 343.93 671.37 343.8 670.97 344.26 670.24 344.18 669.54 343.29 668.87 342.42 668.38 341.44 668.21 337.04 669.21 335.42 668.29 334.13 666.62 330.28 664.08 327.05 660.21 326.29 659.78 324.57 659.27 323.77 658.83 323.2 658.07 322.33 656.3 321.53 655.64 316.77 654.32 315.7 653.31 315.06 652.47 306.07 646.05 303.92 644.86 301.43 643.81 300.58 643.24 299.46 642.15 298.16 640.34 297.4 639.65 296.18 639.31 295.08 639.5 292.29 640.44 290.77 640.54 289.45 640.26 285.57 638.91 280.92 638.11 276.69 638.38 272.64 639.47 266.25 642.23 265.44 642.85 264.4 643.39 263.87 642.95 263.5 642.08 262.94 641.39 260.9 641.12 258.89 642.09 255.57 645.16 255.1 645.92 254.91 646.65 254.56 647.31 253.59 647.87 252.41 648.35 251.52 648.88 250.79 649.61 250.09 650.65 248.72 653.96 247.8 654.97 245.64 655.76 245.06 656.6 243.36 661.87 242.7 663.18 242.46 663.87 242.41 664.59 242.9 665.43 243.71 666.34 244.1 667.24 243.34 668.06 242.19 668.87 242.08 669.55 242.41 670.29 242.54 671.21 242.35 672.43 242.13 673.31 241.64 674.14 237.84 678.2 236.7 679.94 236.19 681.79 236.25 682.97 236.58 683.24 237.08 683.41 237.68 684.26 238.21 685.48 238.32 686.01 237.41 687.44 236.11 688.73 234.41 690.07 233.5 691.5 234.59 693.03 235.03 694.1 235.07 696 234.81 698.01 234.4 699.44 233.64 700.51 232.8 701.06 230.38 701.87 229.48 702.56 229.52 703.32 229.84 704.17 229.77 705.16 226.21 710.08 226.01 710.27 225.18 711.04 223.51 712.12 222.55 713.25 221.15 716.2 219.56 718.44 218.1 718.97 214.24 718.22 211.53 718.66 209.66 720.06 206.78 723.93 202.34 727.8 200.29 728.78 198.96 729.18 195.05 729.81 194.28 730.32 193.39 732.01 189.95 735.18 188.33 738.24 185.59 744.99 182.35 749.48 178.06 753.37 173.06 756.15 167.68 757.31 159.42 757.36 156.73 757.79 154.46 758.52 153.45 759.42 153.34 760.75 154.11 764.57 154.2 766.21 153.85 767.77 152.9 769.28 151.33 770.64 146.51 773.6 144.58 774.27 142.78 774.24 137.72 773.02 130.45 772.85 126.27 771.14 124.32 770.83 120.42 770.94 113.28 772.68 112.08 772.73 109.69 772.45 108.48 772.47 101.06 774.39 98.42 774.46 87.17 772.18 83.75 770.26 80.13 768.9 75.38 769.45 73.18 770.5 69.21 772.99 63.72 775.29 61.9 776.48 61.66 776.71 61.23 775.86 60.36 773.16 59.52 772.22 58.24 771.42 57.75 770.98 57.23 770.34 56.05 767.99 55.18 764.91 54.72 761.76 54.69 759.2 56.55 753.43 56.69 751.46 56.29 750.23 54.91 748.45 54.38 747.42 54.13 745.24 54.38 742.78 55.48 738.22 55.85 737.18 58.37 735.5 59.55 734.14 62.07 729.89 66.99 724.3 68.94 721.26 70.51 717.97 74.19 713.28 74.49 711.96 71.3 706.85 71.01 705.24 71.2 699.12 70.46 691.74 68.17 686.68 68.15 686.36 67.2 685.36 66.7 685.32 65.86 685.72 64.71 686.08 64.76 685.29 65.67 683.66 63.87 678.01 63.03 676.49 62.15 675.83 59.98 674.85 59.29 673.98 59.28 673.1 60.02 671.26 59.96 670.32 59.3 669.8 58.31 669.66 57.43 669.37 57.16 668.45 57.62 667.84 59.49 666.8 60.02 665.97 59.33 663.71 55.51 660.63 55.67 658.25 56.22 656.9 58.75 655.46 57.64 654.57 56.87 654.6 56.12 655.03 55.34 655.32 54.5 654.97 54.44 654.1 54.9 653.04 54.96 652.33 53.67 652.49 53.39 650.81 52.91 650.03 50.42 649.01 49.02 648.17 48.47 647.23 47.91 644.58 47.55 643.91 46.67 642.81 46.31 642.22 46.3 641.57 46.68 641.1 47 640.58 46.82 639.78 46.26 639.26 44.72 638.54 44.18 638.04 44.02 637.48 43.86 635.25 42.22 634.67 40.64 633.79 39.84 632.64 40.58 631.21 40.72 629.97 39.79 628.13 37.49 624.81 34.82 619.55 33.91 618.45 22.91 610.18 16.41 606.57 15.54 606.34 13.78 606.24 12.97 606.04 12.03 605.44 9.75 603.08 5.34 599.89 3.74 597.58 2.24 596.54 1.69 595.94 1.26 594.55 1.26 579.9 1.24 565.26 1.21 550.62 1.2 535.97 1.18 521.32 1.18 518.94 1.17 506.68 1.15 492.04 1.13 477.39 1.13 471.6 2.76 471.6 263.19 471.84 Z" id="BWA-2625" data-name="Kgalagadi"/>
<path d="M 450.71 2.05 447.27 9.34 447.27 11.75 447.84 13.78 450.31 19.67 453.83 25.42 456.13 27.81 459.03 29.44 461.59 31.41 463.4 34.57 466.13 41.14 468.89 45.42 469.56 47.11 470.36 50.71 470.79 51.84 471.89 53.57 477.51 59.23 480.4 61.11 481.56 62.25 485.6 67.78 488.05 69.84 491.34 71.41 493.47 73.25 494.45 76.25 494.97 82.48 498.01 88.89 508.69 98.03 510.97 104.72 510.95 104.72 428.61 104.72 427.8 104.72 427.92 189.5 428.18 189.79 428.36 189.9 442.4 195.59 442.88 196.11 443.05 197.04 442.41 216.85 442.24 217.89 441.87 218.69 440.94 219.03 386.4 223.26 385.45 223.16 384.2 223.03 382.39 223.06 379.38 224.04 377.68 224.18 375.65 223.45 374.29 221.99 371.94 218.62 368.67 216.15 367.39 214.9 365.09 210.51 364.07 210.54 362.9 211.14 361.22 210.53 359.01 208.19 358.06 207.43 356.82 206.81 355.99 206.88 355.21 207.31 354.07 207.76 350.81 208.27 349.93 208.74 348.45 210.04 347.51 210.43 346.49 210.66 345.71 210.98 345.03 211.49 343.08 213.7 343.05 214.02 343.18 214.49 343.26 214.99 343.05 215.43 337.8 216.78 336.83 216.83 335.72 216.47 333.53 215.14 333.14 216.83 333.34 275.02 88.01 275.02 86.42 275.02 86.38 264.45 86.35 253.8 86.31 243.16 86.28 232.51 86.24 221.87 86.24 219.77 86.21 211.23 86.18 200.59 86.14 189.95 86.12 179.31 86.08 168.66 86.04 158.02 86.01 147.38 85.98 136.73 85.93 126.09 85.92 119.38 85.91 115.45 85.87 104.81 85.87 101.33 85.87 97.85 85.87 94.37 85.87 90.91 85.87 87.43 85.87 83.95 85.87 80.48 85.87 77 85.87 73.52 85.87 70.05 85.87 66.58 85.87 63.1 85.87 59.61 85.87 56.13 85.87 52.67 85.87 49.19 85.87 46.77 87.43 46.71 90.05 46.6 94.86 46.42 99.65 46.23 104.47 46.04 109.27 45.85 113.27 45.69 117.28 45.53 121.28 45.37 125.28 45.21 126.89 45.14 128.5 45.08 129.96 44.82 131.41 44.54 132.87 44.27 134.32 44 141.51 42.67 148.68 41.34 155.87 40 163.05 38.67 170.25 37.34 177.42 36 184.6 34.67 191.79 33.33 198.98 32 206.17 30.67 213.35 29.33 220.53 27.99 227.72 26.66 234.9 25.32 242.09 24 249.27 22.66 256.71 21.29 266.77 20.45 274.11 19.84 280 19.36 283.22 19.49 284.32 20.04 284.82 20.41 284.93 20.99 284.92 22.13 285.19 22.74 285.82 22.91 286.44 22.98 286.72 23.27 286.61 25.29 286.72 25.88 286.95 26.34 287.93 27.62 288.91 29.72 291.48 32.63 292 33.49 292.04 34 291.88 35.44 292 35.88 292.46 36.12 293.23 36.39 293.96 36.47 294.86 35.63 296.12 36.67 297.36 38.11 297.81 38.78 298.98 39.24 300.13 39.43 301 39.8 301.35 40.81 301.83 41.75 302.72 42.42 303.19 43.22 302.47 44.59 305.25 47.47 306.04 49.25 304.84 51.04 305.59 52.2 306.94 55.85 307.61 59.42 308.72 60.3 310.22 60.25 313.25 59.26 313.63 59.04 314.19 58.6 316.21 56.32 317.98 56.02 319.24 55.26 327.25 46.97 328.59 46.58 329.58 45.62 331.11 43.43 332.16 42.52 334.67 40.88 336.03 39.65 336.29 36.71 339.25 34.71 339.75 34.62 340.21 34.72 340.61 34.96 340.99 35.23 341.31 34.65 341.71 34.21 342.74 33.49 345.17 32.49 345.84 32 348.29 29.72 348.99 29.39 352.09 28.84 354.95 26.86 359.03 22.09 362.03 20.65 363.73 20.42 365.52 20.65 366.44 20.92 367.92 21.66 368.68 21.81 369.48 21.23 371.9 17.16 373.3 15.84 374.54 15.39 377.46 15.52 379.34 15.87 380.39 16.79 381.85 19.49 382.48 20.07 383.05 20.32 383.44 20.81 383.59 22.13 386.5 24.72 387.59 24.46 391.5 24.07 392.37 23.87 392.64 23.36 393.84 22 394.11 21.52 394.42 21.35 398.72 16.41 399.99 15.31 402.92 13.52 405.21 10.72 405.66 10.37 406.3 10.01 407.04 9.72 407.82 9.6 408.54 9.33 409.07 8.13 409.6 7.86 411.34 7.49 413.34 5.89 414.81 5.53 416.45 5.41 422.73 3.45 423.28 3.16 423.92 2.55 424.21 1.98 424.62 1.56 425.55 1.41 425.02 2.63 425.92 3.2 426.48 3.94 427.17 4.29 428.47 3.74 429.2 4.74 430.27 4.57 432.64 3.16 433.45 4.91 436.08 4.83 438.88 3.7 441.7 1 445.12 1.04 450.71 2.05 Z" id="BWA-2629" data-name="North-West"/>
<path d="M 510.97 104.72 511 104.81 510.71 106.57 509.32 109.73 509.05 111.47 509.36 113.52 510.04 115.12 512.14 118.5 514.71 121.74 516.67 125.48 524.83 147.4 526.98 150.47 530.3 152.43 534.1 153.39 538.66 153.48 539.58 153.88 540.41 154.47 541.08 155.14 541.93 156.24 542.14 156.93 541.53 158.7 540.91 159.76 540.35 160.04 540.32 160.19 541.36 160.85 542.04 161.13 544.63 161.57 546.55 162.55 548.9 166 550.51 167.44 552.08 168.02 555.44 168.75 557.07 169.38 560.51 171.49 561.96 172.92 562.69 174.51 563.29 176.44 564.45 177.58 566.03 178.25 569.89 179.3 571.12 179.95 571.4 180.24 572.05 180.9 573.23 182.43 574.53 183.7 575.98 184.42 577.67 184.74 579.69 184.75 582.87 185.32 592.51 189.95 595.58 190.49 598.41 190.46 601.16 190.74 604.01 192.23 604.79 193.06 606.26 195.03 607.18 195.75 608.23 196.12 609.09 196.17 609.94 196.09 610.97 196.12 612.76 196.4 614.54 196.89 616.07 197.8 617.19 199.28 621.54 209.82 623.07 219.81 621.75 232.09 622.04 237.77 620.23 242.59 618.42 249.82 617.22 255.85 617.22 261.87 618.42 270.3 622.04 275.12 625.05 280.54 628.67 288.98 631.68 296.81 633.48 304.64 636.5 310.06 640.71 314.88 647.34 317.89 653.36 317.89 660.59 319.7 666.01 319.1 672.04 319.1 676.86 321.51 683.23 322.02 684.26 323.07 685.45 323.81 686.84 324.23 691.77 324.52 698.15 325.71 708.3 325.85 711.45 326.41 714.85 327.51 721.77 330.87 723.6 331.26 725.03 331.01 726.39 330.51 729.38 329.79 730.27 329.38 731.21 329.23 733.93 329.9 736.47 330.13 737.66 330.49 740.96 332.93 744.86 334.08 757.34 339.52 759.91 340.16 765.1 340.45 767.56 341.01 769.08 341.96 772.49 342.97 773.9 344 774.1 345.64 773.06 347.62 771.65 349.67 770.72 351.51 770.37 355.1 771.03 358.71 772.64 361.96 775.22 364.52 778.38 366.07 781.53 366.59 789.57 366.36 790 366.62 790.83 367.59 791.3 368.36 791.96 370.04 792.49 370.83 799 376.08 797.42 376.6 794.98 376.38 790.33 375.44 788.1 375.69 786.46 376.74 785.08 377.86 783.57 378.4 773.26 378.94 772.49 379.24 770.71 381.5 770.73 381.89 769.43 382.61 767.81 384.19 765.8 386.59 766.46 392.57 766.07 393.57 765.23 394.3 763.27 397.72 761.74 398.81 758.07 398.4 756.13 398.49 755.29 399.62 754.82 401.25 753.59 402.15 751.89 402.6 750.01 402.87 746.32 403.94 740.16 407.18 737.16 408.1 734.89 408.09 733.22 407.86 731.71 408.12 729.89 409.59 728.53 409.98 723.16 408.68 716.13 409.14 712.87 409.96 709.74 411.59 708.47 412.62 705.38 416 704.54 416.45 702.46 416.65 701.54 416.88 700.75 417.37 698.06 420.52 697.64 421.33 697.47 422.43 697.64 423.47 697.9 424.13 697.88 424.8 697.24 425.91 696.46 426.57 695.59 426.88 694.74 427.07 694.04 427.4 693.68 427.9 693.21 429.2 692.87 429.72 691.6 430.23 689.64 430.75 688.06 431.44 687.91 432.36 688.64 434.19 688.28 436.08 687.23 437.78 685.9 439.08 684.75 439.77 683.14 440.54 681.35 441.16 679.71 441.4 678.72 442.25 678.75 444.19 679.45 447.8 678.09 450.18 675.15 452.09 671.59 453.47 668.35 454.24 668.91 455.8 667.56 456.26 665.73 456.14 664.81 455.98 664.6 456.65 664.85 457.31 665.23 457.9 665.4 458.32 665.57 458.56 665.94 458.93 666.1 459.28 665.7 459.43 665.59 459.54 664.95 460.01 664.81 460.06 663.56 463.33 663.06 464.12 661.83 464.71 660.69 464.2 658.36 461.8 654.98 464.35 653.99 464.71 652.83 464.35 651.61 463.81 650.66 463.78 649.92 466.16 648.31 467.79 647.94 469.1 647.87 469.58 647.69 470.06 647.39 470.43 647.08 470.58 646.86 470.8 646.99 471.37 647.24 472.05 647.37 472.61 646.89 474.52 645.63 476.05 643.92 477.1 642.08 477.61 638.55 477.72 637.44 478.14 636.63 478.97 635.93 479.95 635.1 480.47 633.9 479.88 634.52 478.65 633.85 478.48 632.6 478.88 631.57 479.35 631.32 479.84 630.51 480.84 629.65 481.3 628.69 478.66 627.47 479.6 625.46 482.54 624.06 483.79 622.57 484.81 619.3 486.32 616.14 487.23 615.2 488.23 616.4 489.87 615.55 490.21 614.78 490.23 614.11 489.91 613.49 489.23 613.28 489.74 612.65 490.45 612.28 491.03 611.59 490.24 610.61 489.89 609.74 490.03 609.37 490.71 609.74 491.76 610.45 492.32 610.91 492.87 610.53 493.88 609.49 493.28 608.54 493.38 607.73 494.01 607.05 495.04 607.62 495.04 606.05 496.08 605.56 496.59 605.3 497.37 604.72 497.04 604.13 496.79 604.27 498.48 604.8 499.97 604.86 501.19 603.55 502.07 602.09 502.01 601.43 501.08 600.96 500.04 600.07 499.7 599.25 500.32 597.75 503.82 596.1 506.53 595.66 508.12 595.87 508.95 595.85 508.95 595.39 509.04 593.76 509.24 592.7 510.09 590.69 512.58 590.43 512.11 589.77 511.23 589.53 510.78 588.84 512.36 587.99 513.68 586.04 516.07 585.71 516.66 585.22 518 584.88 518.39 584.22 518.5 582.61 518.27 581.97 518.39 579.83 520.3 575.87 524.85 575.74 524.93 575.48 525.49 575.18 525.79 574.83 526.04 515.48 493.54 504 478.58 500.18 475.05 492.67 472.82 491.58 472.36 490.89 471.75 466 441.23 333.34 275.02 333.14 216.83 333.53 215.14 335.72 216.47 336.83 216.83 337.8 216.78 343.05 215.43 343.26 214.99 343.18 214.49 343.05 214.02 343.08 213.7 345.03 211.49 345.71 210.98 346.49 210.66 347.51 210.43 348.45 210.04 349.93 208.74 350.81 208.27 354.07 207.76 355.21 207.31 355.99 206.88 356.82 206.81 358.06 207.43 359.01 208.19 361.22 210.53 362.9 211.14 364.07 210.54 365.09 210.51 367.39 214.9 368.67 216.15 371.94 218.62 374.29 221.99 375.65 223.45 377.68 224.18 379.38 224.04 382.39 223.06 384.2 223.03 385.45 223.16 386.4 223.26 440.94 219.03 441.87 218.69 442.24 217.89 442.41 216.85 443.05 197.04 442.88 196.11 442.4 195.59 428.36 189.9 428.18 189.79 427.92 189.5 427.8 104.72 428.61 104.72 510.95 104.72 510.97 104.72 Z M 535.22 240.85 535.54 237.51 533.6 236.86 531.62 237.15 530.33 237.44 525.97 236.43 524.5 236.25 524 238.23 526.23 239.27 530.79 240.49 535.22 240.85 Z M 669.22 357.03 668.62 356.8 667.69 357.24 667.67 357.63 667.89 357.91 668.02 358.33 667.7 358.84 667.73 359.48 667.91 359.92 668.8 359.75 669.51 359.22 670.17 359.33 670.71 359.84 671.43 359.64 672.12 359.17 673.3 358.78 673.63 358 673.73 357.25 674.07 356.83 673.87 356.52 673.1 356.05 673.21 355.22 673.3 354.63 672.99 353.77 672.63 353.43 671.74 353.69 671.34 354.49 671.28 355.07 670.62 355.77 670.62 356.57 669.75 356.96 669.22 357.03 Z" fill-rule="evenodd" id="BWA-2630" data-name="Central"/>
<path d="M 595.87 508.95 596.05 509.63 593.62 513.69 594.21 515.43 593.88 517.72 587.9 540.34 587.73 544.13 586.09 551.61 585.2 553.09 583.84 554.22 582.06 555.14 574.54 557.38 572.74 558.29 571.99 559.55 566.83 564.49 561.29 567.79 558.97 569.53 556.83 572.1 554.34 578.16 553.72 579.13 548.17 584.36 548.14 584.36 546.24 584.08 544.7 583.96 543.08 583.61 541.48 583.47 537.48 583.99 527.87 586.75 527.86 586.74 527.09 585.58 523.32 582.29 516.58 578.07 509.59 573.69 508.2 572.84 506.51 572.06 505.57 571.86 504.75 571.24 504.18 569.57 504.05 567.15 505.27 562.36 506.32 559.87 507.46 557.96 510.05 545.51 515.48 493.54 574.83 526.04 575.18 525.79 575.48 525.49 575.74 524.93 575.87 524.85 579.83 520.3 581.97 518.39 582.61 518.27 584.22 518.5 584.88 518.39 585.22 518 585.71 516.66 586.04 516.07 587.99 513.68 588.84 512.36 589.53 510.78 589.77 511.23 590.43 512.11 590.69 512.58 592.7 510.09 593.76 509.24 595.39 509.04 595.85 508.95 595.87 508.95 Z" id="BWA-2646" data-name="Kgatleng"/>
<path d="M 515.48 493.54 510.05 545.51 507.46 557.96 506.32 559.87 505.27 562.36 504.05 567.15 504.18 569.57 504.75 571.24 505.57 571.86 506.51 572.06 508.2 572.84 509.59 573.69 499.69 583.5 487.11 595.96 479.91 595.71 478.39 595.38 468.34 590.26 412.72 574.06 397.91 569.75 262.84 530.4 262.56 500.05 261.04 493.83 256.22 493.84 255.39 493.75 254.81 493.53 254.6 492.89 254.5 484.73 254.81 481.51 255.51 480.83 256.36 480.51 260.22 480.61 261.95 479.16 263.19 471.84 449.18 472.45 466 441.23 490.89 471.75 491.58 472.36 492.67 472.82 500.18 475.05 504 478.58 515.48 493.54 Z" id="BWA-2647" data-name="Kweneng"/>
<path d="M 527.87 586.75 514.9 590.47 512.14 592.33 510.85 592.94 506.48 592.79 503.67 593.67 503.02 593.78 502.53 594.18 502.41 596.27 503.29 602.49 503.25 605.92 502.35 608.66 499.87 613.85 499.71 617.02 497.13 621.15 495.26 626.81 487.81 642.02 485.09 653.09 484.18 655.08 484.15 655.07 475.27 651.73 474.81 650.81 474.77 649.85 484.51 618.88 484.76 617.73 484.78 616.6 483.95 616.25 482.83 616.16 480.49 616.27 479.77 616.21 479.62 615.84 479.58 615.71 482.32 608.24 482.76 606.03 482.65 604.89 483.42 604.17 484.48 602.93 485.5 602.03 487.11 595.96 499.69 583.5 500.14 585.91 500.53 588.94 501.61 590.8 504.51 591.46 506.5 590.9 510.12 590.7 512.27 587.96 512.27 585.81 516.47 580.04 516.58 578.07 523.32 582.29 527.09 585.58 527.86 586.74 527.87 586.75 Z M 484.74 635.95 485.64 635.86 486.54 635.6 487.13 635.98 488.12 635.54 488.64 634.72 488.62 633.87 487.89 633.9 487.65 633.41 488.24 632.97 488.15 632.56 488.67 632.04 488.27 631.66 488.12 631.04 487.13 631.22 486.98 630.34 486.57 630.26 486.25 631.04 485.79 632.53 485.76 633.85 485.46 634.81 484.76 635.71 484.74 635.95 Z" fill-rule="evenodd" id="BWA-2648" data-name="South-East"/>
<path d="M 397.91 569.75 397.74 586.7 413.31 586 412.72 574.06 468.34 590.26 478.39 595.38 479.91 595.71 487.11 595.96 485.5 602.03 484.48 602.93 483.42 604.17 482.65 604.89 482.76 606.03 482.32 608.24 479.58 615.71 479.62 615.84 479.77 616.21 480.49 616.27 482.83 616.16 483.95 616.25 484.78 616.6 484.76 617.73 484.51 618.88 474.77 649.85 474.81 650.81 475.27 651.73 484.15 655.07 484.18 655.08 480.44 663.25 478.6 668.38 467.63 676.19 461.5 678.94 443.73 680.62 440.17 680.05 436.28 678.95 433 678.46 429.72 678.9 425.86 680.59 420.79 684.1 419.1 684.74 414.02 685.96 411.45 686.24 409.07 685.67 406.28 685.1 400.07 685.73 397.06 685.12 392.55 682.33 386.09 680.16 384.89 672.9 382.62 671.29 378.7 671.03 377.38 670.66 367.55 661.65 364.76 658.32 363.4 617.82 363.02 615.96 362.12 614.55 361.02 613.24 351.17 603.9 349.83 602.94 348.52 602.59 347.2 602.45 265.55 602.9 264.27 602.78 263.1 602.5 262.65 601.64 262.49 600.58 262.84 530.4 397.91 569.75 Z" id="BWA-2649" data-name="Southern"/>
<path d="M 683.23 322.02 676.86 321.51 672.04 319.1 666.01 319.1 660.59 319.7 653.36 317.89 647.34 317.89 640.71 314.88 636.5 310.06 633.48 304.64 631.68 296.81 628.67 288.98 625.05 280.54 622.04 275.12 618.42 270.3 617.22 261.87 617.22 255.85 618.42 249.82 620.23 242.59 622.04 237.77 621.75 232.09 624.95 230.53 627.91 230.16 637.54 230.18 644.37 231.01 649.2 230.18 652.18 231.48 655.6 231.53 657.11 232.12 658.34 233.23 658.97 234.72 658.72 238.08 657.68 241.09 657 244.15 659.12 250.91 659.31 254.31 658.02 261.21 657.56 262.17 656.95 262.9 656.45 263.68 656.35 264.8 656.38 265.77 656.16 267.68 656.17 268.52 656.82 273.3 656.71 275.09 655.67 279.61 655.65 281.09 656.35 282.7 659.28 286.48 660.57 287.77 666.49 291.84 669.02 294.76 671.2 297.99 674.25 301.44 675.05 302.64 675.24 303.33 675.2 304.65 675.34 305.29 675.89 306.09 677.28 307.49 679.8 312.35 680.04 313.23 679.75 313.9 679.1 314.92 678.92 315.73 679.22 315.89 679.82 316.07 680.16 316.57 679.72 317.67 680.06 318.49 680.47 318.58 680.95 318.49 681.54 318.83 681.98 319.52 682.74 321.26 683.23 322.02 Z M 640.26 293.01 640.74 291.95 642.04 292.23 644.39 293.38 644.76 293.4 646.21 293.06 646.52 292.53 646.37 291.95 646.26 290.97 646.37 289.93 646.02 289.28 645.19 288.93 644.74 288.69 644.39 287.43 644.89 286.26 645.82 285.56 645.91 284.83 645.39 284.17 644.67 284.13 643.87 284.54 642.02 285.43 641.07 285.65 640.41 286.65 639.92 287.3 638.83 288.08 637.96 288.3 637.92 288.6 638.03 289.23 637.55 289.69 636.96 290.02 636.64 290.91 636.57 291.95 636.92 292.58 638.35 292.95 640.26 293.01 Z" fill-rule="evenodd" id="BWA-4853" data-name="North-East"/>
<path d="M 516.58 578.07 516.47 580.04 512.27 585.81 512.27 587.96 510.12 590.7 506.5 590.9 504.51 591.46 501.61 590.8 500.53 588.94 500.14 585.91 499.69 583.5 509.59 573.69 516.58 578.07 Z" id="BWA-5501" data-name="Gaborone"/>
<path d="M 640.26 293.01 638.35 292.95 636.92 292.58 636.57 291.95 636.64 290.91 636.96 290.02 637.55 289.69 638.03 289.23 637.92 288.6 637.96 288.3 638.83 288.08 639.92 287.3 640.41 286.65 641.07 285.65 642.02 285.43 643.87 284.54 644.67 284.13 645.39 284.17 645.91 284.83 645.82 285.56 644.89 286.26 644.39 287.43 644.74 288.69 645.19 288.93 646.02 289.28 646.37 289.93 646.26 290.97 646.37 291.95 646.52 292.53 646.21 293.06 644.76 293.4 644.39 293.38 642.04 292.23 640.74 291.95 640.26 293.01 Z" id="BWA-5502" data-name="Francistown"/>
<path d="M 484.74 635.95 484.76 635.71 485.46 634.81 485.76 633.85 485.79 632.53 486.25 631.04 486.57 630.26 486.98 630.34 487.13 631.22 488.12 631.04 488.27 631.66 488.67 632.04 488.15 632.56 488.24 632.97 487.65 633.41 487.89 633.9 488.62 633.87 488.64 634.72 488.12 635.54 487.13 635.98 486.54 635.6 485.64 635.86 484.74 635.95 Z" id="BWA-5503" data-name="Lobatse"/>
<path d="M 669.22 357.03 669.75 356.96 670.62 356.57 670.62 355.77 671.28 355.07 671.34 354.49 671.74 353.69 672.63 353.43 672.99 353.77 673.3 354.63 673.21 355.22 673.1 356.05 673.87 356.52 674.07 356.83 673.73 357.25 673.63 358 673.3 358.78 672.12 359.17 671.43 359.64 670.71 359.84 670.17 359.33 669.51 359.22 668.8 359.75 667.91 359.92 667.73 359.48 667.7 358.84 668.02 358.33 667.89 357.91 667.67 357.63 667.69 357.24 668.62 356.8 669.22 357.03 Z" id="BWA-5504" data-name="Selebi-Phikwe"/>
<path d="M 535.22 240.85 530.79 240.49 526.23 239.27 524 238.23 524.5 236.25 525.97 236.43 530.33 237.44 531.62 237.15 533.6 236.86 535.54 237.51 535.22 240.85 Z" id="BWA-5505" data-name="Sowa"/>
<path d="M 412.72 574.06 413.31 586 397.74 586.7 397.91 569.75 412.72 574.06 Z" id="BWA-5506" data-name="Jwaneng"/>
</g>
</svg>