<?xml version="1.0"?>
<svg xmlns="http://www.w3.org/2000/svg" version="1.2" baseProfile="tiny" width="800" height="706" viewBox="0 0 800 706" stroke-linecap="round" stroke-linejoin="round">
<g id="ne_10m_admin_1_states_provinces">
<path d="M 281.74 519.09 285.83 525.26 292.7 532.81 301.97 536.83 314.68 540.14 326.93 541.63 335.75 546.55 349.14 559.02 353.91 561.55 350.41 564.36 349.2 568.76 353.33 575.39 353.37 575.45 359.89 580.81 383.67 593.94 389.89 599.56 384.83 601.03 359.55 606.98 351.52 605.61 336.65 601.49 325.32 601.59 328.41 610.64 340.08 628.61 336.65 639.03 297.4 635.25 294.96 635.55 294.87 635.56 294.03 626.17 270.51 610.07 267.27 604.07 271.05 598.07 267.98 595.64 262.81 593.88 256.45 585.57 240.64 585.84 237.12 581.41 236.17 576.9 234.08 575.84 231.27 575.8 228.6 574.42 224.38 567.68 224.44 567.63 236.61 557.19 234.52 551.75 225.13 543.42 213.71 533.63 206.58 523.69 204.07 518.32 204.25 518.29 219.87 520.89 236.8 526.01 246.48 525.92 248.22 517 255.75 510.1 276.03 516.7 281.74 519.09 Z" id="MNE-1496" data-name="Bar"/>
<path d="M 387.86 705.1 387.85 705.1 380.31 700.28 365.07 687.59 358 684.99 327.69 677.49 320.53 674.08 310.35 671.24 306.94 669.55 303.63 665.41 303.49 663.13 304.03 660.83 302.82 656.67 300.86 655.98 296.57 653.09 293.52 649.9 295.59 648.43 295.86 646.67 294.87 635.56 294.96 635.55 297.4 635.25 336.65 639.03 340.08 628.61 328.41 610.64 325.32 601.59 336.65 601.49 351.52 605.61 359.55 606.98 384.83 601.03 389.89 599.56 390.92 600.5 391.91 604.48 384.31 616.88 382.3 624.02 381.82 632.24 383.33 640.18 387.15 646.43 387.27 646.5 390.32 649.37 388.13 656.37 385.64 657.91 382.25 658.26 380.11 659.76 382.77 669.33 381.78 672.29 380.19 674.45 379.68 676.52 379.89 679.31 379.63 681.03 380.62 682.68 384.48 685.47 387.79 689.89 387.49 700.75 387.86 705.1 Z" id="MNE-1497" data-name="Ulcinj"/>
<path d="M 204.07 518.32 206.58 523.69 213.71 533.63 225.13 543.42 234.52 551.75 236.61 557.19 224.44 567.63 224.38 567.68 222.96 565.43 216.91 560.8 200.25 551.5 195.42 545.17 192.51 531.46 188.9 525.7 182.91 523.17 175.61 523.17 169.33 525.14 166.22 528.54 164.19 526.6 161.69 524.74 160.51 522.88 153.82 525.7 150.67 527.37 148.51 529.16 148.51 529.17 148.19 527.11 147.38 515.5 146.93 502.58 150.51 496.7 151.99 494.28 165.47 497.71 175.15 500.84 188.3 502.81 200.6 510.88 204.07 518.32 Z" id="MNE-1499" data-name="Budva"/>
<path d="M 210.15 386.23 210.28 386.77 210.4 393.64 219.44 397.76 228.54 402.79 233.17 407.83 238.6 411.72 236.84 415.61 230.49 424.71 230.15 433.52 224.03 432.09 217.96 434.27 219.46 438.51 235.04 447.9 250.6 455.9 259.42 462.88 268.9 470.55 283.2 480.16 295.45 489.78 292.36 504.42 281.71 519.08 281.74 519.09 276.03 516.7 255.75 510.1 248.22 517 246.48 525.92 236.8 526.01 219.87 520.89 204.25 518.29 204.07 518.32 200.6 510.88 188.3 502.81 175.15 500.84 165.47 497.71 151.99 494.28 150.51 496.7 144.52 486.29 138.86 473.3 137.38 467.17 140.7 461.4 141.5 456.01 141.6 445.83 136.8 433.07 121 424.78 110.83 419.34 109.56 412.87 104.99 404.4 97.65 397.31 90.9 384.66 90.19 382.45 99.03 381.74 104.93 377.21 107.74 370.29 107.5 363.59 110.02 359.3 115.68 357.47 119.63 352.9 123.02 345.58 139.78 349.24 151.97 355.07 163.13 354.73 178.06 356.91 182.36 361.14 190.32 365.94 200.66 370.75 208.22 377.73 210.15 386.23 Z" id="MNE-1500" data-name="Cetinje"/>
<path d="M 794.92 300.18 784.05 301.55 761.32 304.41 745.39 308.76 741.87 310.44 738.4 315.02 738.05 319.01 738.7 322.8 738.05 326.82 727.67 335.45 713.59 332.39 698.05 325.47 683.2 322.61 678.53 324.26 674.61 326.58 674.56 326.39 671.27 315.77 674.92 295.77 682.32 288.12 686.21 276.95 689.99 268.84 696.55 260.01 705.27 239.48 710.03 240.64 732.3 242.29 744.19 246.1 765.95 257.64 791.49 267.15 798.36 273.8 799 284.1 794.92 300.18 Z" id="MNE-1501" data-name="Rožaje"/>
<path d="M 694.66 372.57 689.13 383.27 684.41 389.96 682.95 393.35 682.82 400.04 683.98 405.88 683.5 411.28 678.48 416.74 667.8 412.17 658.87 416.95 643.93 431.69 633.37 433.95 613.12 433.5 602.82 438.81 602.82 438.83 602.73 438.9 598.91 441.62 583.2 448.51 580.52 449.14 576.59 450.08 569.04 449.39 562 446.72 548.35 438.9 541.18 426.03 539.77 422.18 539.51 419.37 540.28 413.09 541.01 410.16 544.1 405.26 546.03 402.96 546.76 403.39 546.4 399.23 553.29 396.8 577.99 383.28 593.16 368.47 611.87 357.88 613.89 357.55 651.14 351.64 666.88 350.04 690.63 366.81 693.85 371.09 694.66 372.57 Z" id="MNE-1503" data-name="Plav"/>
<path d="M 95.04 483.22 95.05 483.26 94.44 483.24 92.21 491.69 89.44 491.69 86.09 490.01 77.07 490.94 75.24 490.17 73.08 487.48 68.01 484.44 62.2 481.9 57.94 480.6 58.92 479.17 58.95 478.71 59.36 478.41 61.05 477.53 50.61 472.02 47.36 467.89 49.42 463.1 54.7 461.68 88.8 470.06 88.8 470.06 92.18 477.19 95.04 483.22 Z M 27.12 470.9 27.7 464.74 25.64 460.09 18.43 457 15.21 455.52 9.88 450.81 5.46 445.32 2.5 438.9 2.2 431.69 4.52 418.29 2.59 411.57 6.88 408.66 11.56 407.2 16.37 407.48 21.04 409.71 25.34 409.26 26.88 406.73 25.98 403 23.06 398.85 31.43 395.26 38.32 401.76 52.33 416.07 63.1 420.93 74.78 427.06 83.71 437.88 92.29 456.2 92.29 456.21 73.72 458.84 29.62 454.58 29.62 457.67 37.43 461.91 33.98 473.94 40.98 477.53 32.87 475.5 27.12 470.9 Z" fill-rule="evenodd" id="MNE-1506" data-name="Herceg Novi"/>
<path d="M 150.51 496.7 146.93 502.58 147.38 515.5 148.19 527.11 148.51 529.17 147.53 529.96 144.29 531.06 141.55 528.79 137.6 522.88 123.91 514.4 117.69 508.72 117.52 503.04 115.12 501.57 111.54 498.51 109 497.11 109 495.3 109.07 495.24 117.76 487.21 126.05 465.98 115.51 451.5 105.75 445.84 105.7 445.81 106.4 443.26 92.61 456.17 92.29 456.21 92.29 456.2 83.71 437.88 74.78 427.06 63.1 420.93 52.33 416.07 38.32 401.76 31.43 395.26 35.76 393.39 44.56 387.03 46.39 383.65 47.14 383.8 70.66 384.49 86.22 382.77 90.19 382.45 90.9 384.66 97.65 397.31 104.99 404.4 109.56 412.87 110.83 419.34 121 424.78 136.8 433.07 141.6 445.83 141.5 456.01 140.7 461.4 137.38 467.17 138.86 473.3 144.52 486.29 150.51 496.7 Z" id="MNE-1507" data-name="Kotor"/>
<path d="M 613.89 357.55 611.87 357.88 593.16 368.47 577.99 383.28 553.29 396.8 546.4 399.23 546.03 395.09 542.51 384.5 536.12 375.49 526.63 371.87 516.98 375.25 509.5 380.26 509.4 380.09 508.09 377.85 497.08 367.61 502.84 363.16 512.13 352.23 512.34 341.42 511.18 327.77 509.9 318.71 503.65 314.59 497.64 310.23 503.65 302.36 516.85 301.07 521.66 300.6 540.35 308 558.46 317.77 586.46 324 600.69 326.82 593.05 332.47 593.05 339.53 601.53 346.59 613.76 357.4 613.89 357.55 Z" id="MNE-1508" data-name="Andrijevica"/>
<path d="M 705.27 239.48 696.55 260.01 689.99 268.84 686.21 276.95 682.32 288.12 674.92 295.77 671.27 315.77 674.56 326.39 674.61 326.58 665.91 331.75 662.52 335.16 661.79 343.38 666.51 349.78 666.88 350.04 651.14 351.64 613.89 357.55 613.76 357.4 601.53 346.59 593.05 339.53 593.05 332.47 600.69 326.82 586.46 324 558.46 317.77 540.35 308 521.66 300.6 516.85 301.07 516.72 300.13 514.94 282.59 518.2 277.67 525.07 267.29 526.42 266.93 545.07 261.9 558.22 258.96 568.59 252.49 581.76 249.78 597.75 253.42 607.62 253.42 623.16 247.78 635.39 244.25 639.17 242.13 652 238.37 662.69 234.61 674.91 219.88 700.07 238.22 705.27 239.48 Z" id="MNE-1509" data-name="Berane"/>
<path d="M 674.09 219.29 674.91 219.88 662.69 234.61 652 238.37 639.17 242.13 635.39 244.25 623.16 247.78 607.62 253.42 597.75 253.42 581.76 249.78 568.59 252.49 558.22 258.96 545.07 261.9 526.42 266.93 516.83 258.13 509.53 253.3 512.13 247.78 511.66 237.31 505.54 228.96 494.36 222.84 475.43 219.55 462.49 216.84 459.42 214.85 449.89 211.2 434.01 208.26 427.04 207.9 427.3 199.53 432.45 188.21 443.78 183.06 451.1 176.53 455.67 169.32 458.18 159.93 459.34 149.18 463.74 137.65 464.62 138.19 477.45 150.53 484.62 155.35 493.16 158.65 511.57 162.7 520.54 163.44 525.82 161.99 529.21 159.51 532.56 159.75 544.7 175.98 552.34 183.36 560.88 188.46 570.58 191.17 584.36 191.83 598.44 190.99 603.24 188.78 612.94 181.49 616.89 179.91 622.09 181.22 625.18 184.54 627.54 188.8 630.67 192.84 634.79 195.9 659.77 208.86 674.09 219.29 Z" id="MNE-1510" data-name="Bijelo Polje"/>
<path d="M 361.22 362.7 354.98 368 344.1 377.04 344.89 385.4 340.66 395.71 333 401.88 327.85 406.7 324.76 415.61 322.81 428.9 320.17 439.42 318.8 441.37 298.2 441.26 266.84 441.48 253.34 440.33 238.69 435.53 230.15 433.52 230.49 424.71 236.84 415.61 238.6 411.72 233.17 407.83 228.54 402.79 219.44 397.76 210.4 393.64 210.28 386.77 210.15 386.23 228.62 385.4 234.22 380.13 235.02 368 242.23 358.39 256.99 351.52 266.26 349.46 273.47 351.52 288.37 353.62 310.11 355.18 324.74 349.69 322.92 341.45 323.02 334.92 323.75 328.39 337.92 331.73 343.99 343.28 344.44 348.09 344.87 354.27 361.22 362.7 Z" id="MNE-1511" data-name="Danilovgrad"/>
<path d="M 518.2 277.67 514.94 282.59 516.72 300.13 516.85 301.07 503.65 302.36 497.64 310.23 503.65 314.59 509.9 318.71 511.18 327.77 512.34 341.42 512.13 352.23 502.84 363.16 497.08 367.61 488.65 359.76 478.82 355.75 475.84 346.94 474.01 338.13 458.44 336.88 443.33 341.57 441.95 349.69 432.21 358.27 421.8 363.42 405.56 366.86 387.94 368.92 365.04 364.68 361.22 362.7 344.87 354.27 344.44 348.09 343.99 343.28 337.92 331.73 323.75 328.39 323.84 327.71 321.65 314.89 325.66 304.83 327.04 295.09 322.85 287.1 320.17 281.94 319.25 275.19 323.84 269.12 330.84 265.68 357.72 269.12 378.67 269.69 385.19 262.71 390.84 255.73 391.67 256.25 408.95 263.3 422.73 270.36 448.5 269.89 476.38 269.42 491.65 272.12 502.71 274.13 518.2 277.67 Z" id="MNE-1512" data-name="Kolašin"/>
<path d="M 427.04 207.9 434.01 208.26 449.89 211.2 459.42 214.85 462.49 216.84 475.43 219.55 494.36 222.84 505.54 228.96 511.66 237.31 512.13 247.78 509.53 253.3 516.83 258.13 526.42 266.93 525.07 267.29 518.2 277.67 502.71 274.13 491.65 272.12 476.38 269.42 448.5 269.89 422.73 270.36 408.95 263.3 391.67 256.25 390.84 255.73 378.15 247.79 373.8 233.67 373.97 232.63 375.45 223.78 381.33 219.55 394.4 217.08 403.91 211.08 406.97 209.76 412.96 207.2 427.04 207.9 Z" id="MNE-1513" data-name="Mojkovac"/>
<path d="M 227.14 256.18 241.41 260.88 260.19 270.15 273.47 277.36 296.69 284.57 322.85 287.1 327.04 295.09 325.66 304.83 321.65 314.89 323.84 327.71 323.75 328.39 323.02 334.92 322.92 341.45 324.74 349.69 310.11 355.18 288.37 353.62 273.47 351.52 266.26 349.46 256.99 351.52 242.23 358.39 235.02 368 234.22 380.13 228.62 385.4 210.15 386.23 208.22 377.73 200.66 370.75 190.32 365.94 182.36 361.14 178.06 356.91 163.13 354.73 151.97 355.07 139.78 349.24 123.02 345.58 119.63 352.9 115.68 357.47 110.02 359.3 107.5 363.59 107.74 370.29 104.93 377.21 99.03 381.74 90.19 382.45 86.22 382.77 70.66 384.49 47.14 383.8 46.39 383.65 49.2 378.47 49.37 366.36 45.08 354.99 37.95 348.16 29.5 341.7 15.08 324.37 9.46 314.42 5.59 304.48 5.21 297.26 9.28 292.62 14.48 289.64 17.52 285.6 15.16 277.65 5.33 263.04 1.21 254.73 1 247.54 8.98 231.26 21.56 222.44 44.78 218.6 69.46 218.37 86.32 220.11 78.9 188.47 78.68 177.62 78.9 176.79 86.32 178.13 113.23 183.06 127.18 189.01 137.03 200.45 146.75 220.14 159.93 237.08 174.01 247.14 195.64 251.72 219.2 253.56 227.14 256.18 Z" id="MNE-1514" data-name="Nikšic"/>
<path d="M 231.88 115.56 231.89 115.68 232.25 124.1 233.17 148.26 233.75 160.75 237.77 171.15 246.69 182.37 246.5 189.39 242.23 187.87 226.78 189.46 215.79 198.97 207.55 216.02 209.95 227.57 229.52 237.08 231.35 253.9 227.14 256.18 219.2 253.56 195.64 251.72 174.01 247.14 159.93 237.08 146.75 220.14 137.03 200.45 127.18 189.01 113.23 183.06 86.32 178.13 78.9 176.79 82.2 164.2 88.94 153.7 106.84 135.31 96.84 131.69 103.15 124.92 156.15 96.45 167.1 93.91 165.77 92.25 163.41 88.41 161.99 86.75 169.63 84.08 194.35 82.39 204.44 84.49 215.6 90.21 218.52 93.2 218.77 96.06 218.43 99.03 219.42 102.5 223.19 107.17 231.65 115.18 231.88 115.56 Z" id="MNE-1515" data-name="Plužine"/>
<path d="M 317.36 7.27 308.99 16.89 309.29 28.82 316.07 39.77 326.93 46.55 383.93 65.29 390.84 68.96 408.18 88 432.68 106.73 437.7 112.2 444.83 123.9 449.04 128.59 463.74 137.65 459.34 149.18 458.18 159.93 455.67 169.32 451.1 176.53 443.78 183.06 432.45 188.21 427.3 199.53 427.04 207.9 412.96 207.2 406.97 209.76 397.08 198.62 384.72 188.21 369.61 178.47 349.12 167.71 329.31 158.33 314.1 150.1 295.45 144.61 280.45 146.2 266.13 146.43 256.18 138.99 252.4 128.13 247.14 109.01 245.6 105.37 246.5 104.47 251.31 102.56 262.21 102.12 265.17 100.27 252.68 82.88 240.36 57.85 225.98 44.03 223.06 42.44 213.92 44.17 213.97 42.03 215.77 38.62 215.98 35.91 210.45 29.63 207.44 28.24 201.05 26.96 197.06 24.78 196.84 21.28 199.29 17.87 203.24 15.82 210.88 13.02 220.75 4.98 226.88 1.69 236.33 1 242.16 5.2 246.63 11.32 252.08 16.31 259.07 18.1 267.96 17.88 276.11 15.53 287.23 5.96 297.57 5.05 317.36 7.27 Z" id="MNE-1516" data-name="Pljevlja"/>
<path d="M 497.08 367.61 508.09 377.85 509.4 380.09 509.5 380.26 505.3 383.07 494.44 392.55 487.49 400.92 485.09 406.65 482.77 417.54 480.45 422.51 475.3 426.88 469.34 429.41 464.36 432.59 462.04 438.83 462.04 438.9 457.02 446.63 451.27 453.58 444.49 459.36 436.29 463.36 430.75 470.16 409.51 488.44 407.36 490.81 403.46 497.61 402.64 500.62 402.9 506.31 402.51 508.46 362.72 554.47 353.91 561.55 349.14 559.02 335.75 546.55 326.93 541.63 314.68 540.14 301.97 536.83 292.7 532.81 285.83 525.26 281.74 519.09 281.71 519.08 292.36 504.42 295.45 489.78 283.2 480.16 268.9 470.55 259.42 462.88 250.6 455.9 235.04 447.9 219.46 438.51 217.96 434.27 224.03 432.09 230.15 433.52 238.69 435.53 253.34 440.33 266.84 441.48 298.2 441.26 318.8 441.37 320.17 439.42 322.81 428.9 324.76 415.61 327.85 406.7 333 401.88 340.66 395.71 344.89 385.4 344.1 377.04 354.98 368 361.22 362.7 365.04 364.68 387.94 368.92 405.56 366.86 421.8 363.42 432.21 358.27 441.95 349.69 443.33 341.57 458.44 336.88 474.01 338.13 475.84 346.94 478.82 355.75 488.65 359.76 497.08 367.61 Z" id="MNE-1517" data-name="Podgorica"/>
<path d="M 109 495.3 109 494.53 109.92 488.58 102.72 483.51 95.05 483.26 95.04 483.22 92.18 477.19 88.8 470.06 93.59 471.24 105.66 476.02 111.84 480.6 115.05 474.15 114.38 468.94 104.95 453.26 104.71 449.41 105.7 445.81 105.75 445.84 115.51 451.5 126.05 465.98 117.76 487.21 109.07 495.24 109 495.3 Z" id="MNE-1518" data-name="Tivat"/>
<path d="M 246.5 189.39 256.99 193.13 263.73 198.62 272.55 198.62 286.5 197.25 296.35 204.12 301.95 211.55 311.01 208.69 324.05 208.69 335.73 216.93 341.09 222.42 348.54 225.17 373.97 232.63 373.8 233.67 378.15 247.79 390.84 255.73 385.19 262.71 378.67 269.69 357.72 269.12 330.84 265.68 323.84 269.12 319.25 275.19 320.17 281.94 322.85 287.1 296.69 284.57 273.47 277.36 260.19 270.15 241.41 260.88 227.14 256.18 231.35 253.9 229.52 237.08 209.95 227.57 207.55 216.02 215.79 198.97 226.78 189.46 242.23 187.87 246.5 189.39 Z" id="MNE-1519" data-name="Šavnik"/>
<path d="M 406.97 209.76 403.91 211.08 394.4 217.08 381.33 219.55 375.45 223.78 373.97 232.63 348.54 225.17 341.09 222.42 335.73 216.93 324.05 208.69 311.01 208.69 301.95 211.55 296.35 204.12 286.5 197.25 272.55 198.62 263.73 198.62 256.99 193.13 246.5 189.39 246.69 182.37 237.77 171.15 233.75 160.75 233.17 148.26 232.25 124.1 231.89 115.68 231.88 115.56 233.11 117.6 237.44 114.76 240.75 111.28 243.37 107.61 245.6 105.37 247.14 109.01 252.4 128.13 256.18 138.99 266.13 146.43 280.45 146.2 295.45 144.61 314.1 150.1 329.31 158.33 349.12 167.71 369.61 178.47 384.72 188.21 397.08 198.62 406.97 209.76 Z" id="MNE-1520" data-name="Žabljak"/>
</g>
</svg>