<?xml version="1.0"?>
<svg xmlns="http://www.w3.org/2000/svg" version="1.2" baseProfile="tiny" width="800" height="235" viewBox="0 0 800 235" stroke-linecap="round" stroke-linejoin="round">
<g id="ne_10m_admin_1_states_provinces">
<path d="M 25.79 207.68 32.56 216.1 45.44 216.04 54.38 212.83 55.44 207.36 58.96 200.87 61.66 202.29 68.64 204.08 68.58 201.94 67.89 200.45 65.7 197.37 68.64 200.87 67.74 198.89 66.56 197.56 66.43 196.29 68.64 194.41 66.47 192.61 65.12 190.53 62.51 184.77 71.08 185.8 88.35 192.76 97.67 194.41 123.19 191.11 133.43 191.18 142.19 192.18 150.7 194.76 155.43 200.39 156.81 212.41 147.32 219.31 133.9 221.47 117.66 217.31 106.47 218.94 96.4 220.56 87.46 222.19 80.2 226.97 71.87 233.13 67.2 233.71 36.54 229.82 28.7 229.33 20.28 230.19 14.72 234.17 9.78 229.31 10.74 222.03 12.4 218.85 14.05 213.56 15.69 205.62 15.66 198.75 13.38 192.42 6.06 187.18 1 184.03 2.09 178.21 4.87 174.5 11.59 172.35 20.28 175.08 18.92 181.3 23.45 189.2 27.42 198.16 25.79 207.68 Z M 686.79 25.9 684.95 26.71 680.34 29.42 668.07 32.81 633.1 49.93 616.48 47.74 623.38 39.14 631.41 34.86 640.6 27.89 652.05 26.31 665.79 26.35 678.87 21.46 686.79 25.9 Z M 738.39 32.5 720.09 37.81 730.41 26.03 763.02 12.71 779.05 3.64 789.91 1 796.7 3.61 799 10.71 776.69 21.9 738.39 32.5 Z" fill-rule="evenodd" id="CYM+00?" data-name="Cayman Islands"/>
</g>
</svg>