<?xml version="1.0"?>
<svg xmlns="http://www.w3.org/2000/svg" version="1.2" baseProfile="tiny" width="800" height="853" viewBox="0 0 800 853" stroke-linecap="round" stroke-linejoin="round">
<g id="ne_10m_admin_1_states_provinces">
<path d="M 473.95 6.04 597.03 19.61 609.82 41.7 744.92 396.8 799 500.69 732.52 524.34 689.1 562.72 604.01 659.64 405.91 789.89 369.86 772.06 331.87 787.18 246.39 852.3 231.46 805.78 193.67 784.85 140.75 782.14 80.66 789.89 95.78 774.38 107.99 757.33 123.11 740.66 148.7 724.76 126.6 645.68 116.14 624.36 1 588.31 13.99 503.02 116.14 351.06 107.99 323.92 90.74 298.72 77.37 271.98 80.66 237.09 97.14 212.28 115.55 207.62 137.26 205.69 164.98 187.08 261.12 6.04 414.05 1 473.95 6.04 Z" id="NIU-5481" data-name="Niue"/>
</g>
</svg>