<?xml version="1.0"?>
<svg xmlns="http://www.w3.org/2000/svg" version="1.2" baseProfile="tiny" width="800" height="835" viewBox="0 0 800 835" stroke-linecap="round" stroke-linejoin="round">
<g id="ne_10m_admin_1_states_provinces">
<path d="M 395.72 641.11 416.09 641.31 431.53 641.79 447.89 641.79 483.3 641.79 483.3 685.51 483.3 764.52 483.3 764.53 465.27 764.53 465.03 764.53 438.51 764.53 411.72 764.53 384.95 764.53 358.18 764.53 357.41 764.53 357.41 764.52 357.41 731.1 357.41 678.36 360.5 676.05 363.58 674.13 367.04 672.2 369.35 669.12 368.97 665.28 364.68 663.48 363.75 661.01 362.48 658.7 361.28 657.08 360.86 656.1 360.71 654.96 360.35 654.02 359.24 653.63 358 653.7 357.14 653.66 356.43 653.1 355.71 651.64 356.52 647.91 356.58 645.65 355.25 644.65 353.79 644.79 348.71 646.55 349.99 640.65 350.7 638.48 349.84 638.32 347.71 637.57 350.02 636.48 354.03 639.78 359.08 641.07 395.72 641.11 Z" id="UGA-2631" data-name="Kalangala"/>
<path d="M 537.99 519.72 545.53 518.71 550.67 523.09 554.52 524.65 558.07 526.93 559.33 527.96 560.44 529.09 563.71 531.01 564.72 533.59 565.43 536.21 569.57 537.93 574.38 538.23 578.59 541.12 581.24 537.9 584.98 541.34 584.64 544.52 585.32 547.54 587.6 549.53 588.35 552.06 585.74 556.44 582.02 560.02 580.63 564.2 579.37 567.23 577.34 568.5 575.44 568.75 573.42 569.26 566.79 572.94 562.23 573.7 548.76 567.79 545.53 566.74 537 563.97 532.49 560.6 533.02 555.35 532.07 549.93 528.68 545.62 520.05 538.38 518.04 535.84 513.04 524.09 512.8 520.99 516.61 522.62 519.81 520.54 524.33 521.38 525.13 518.31 528.73 518.58 532.23 517.81 534.66 518.88 537.99 519.72 Z" id="UGA-3064" data-name="Jinja"/>
<path d="M 682.8 379.45 684.72 379.57 686.14 380.14 685.43 390.49 673.32 393.88 664.44 395.57 658.09 399.38 658.94 408.69 654.7 411.65 651.74 414.19 651.74 420.11 652.17 428.58 646.24 431.96 641.12 435.75 638.36 433.58 634.29 432.95 630.44 431.87 627.63 429.3 625.06 426.29 621.02 425.9 620 415.03 623.39 410.8 628.89 408.69 629.74 399.38 628.47 385.41 631.43 380.33 636.62 378.4 643.78 380.61 651.06 378.78 658.02 377.83 682.8 379.45 Z" id="UGA-3065" data-name="Kumi"/>
<path d="M 559.92 322.71 560.6 325.72 561.83 328.47 564.57 329.86 566.52 331.72 566.65 337.61 570.52 341.99 572 345.03 572.4 348.29 569.81 352.97 569.78 355.72 569.66 358.6 564.27 361.82 557.43 366.95 551.44 369.51 542.89 369.51 542.04 375.92 541.66 381.7 537.03 388.11 535.93 404.07 536.06 417.81 525.13 416.4 520.85 412.18 515.72 408.57 507.72 404.49 505.26 403.62 502.6 404.13 500.41 402.5 500.56 389.51 497.36 377.35 502.57 374.62 504.08 367.14 509.58 369.38 514.9 369.03 517.24 368.12 519.46 366.9 520.08 365.23 520.58 363.12 523.56 354.72 524.51 349.92 525.78 348.49 527.64 347.76 540.78 339.59 543.04 337.07 544.77 334.09 546.13 333.02 546.93 331.49 548.22 319.76 554.34 319.87 559.92 322.71 Z" id="UGA-3066" data-name="Kaberamaido"/>
<path d="M 499.99 445.18 500.57 447.79 500.57 451.1 499.92 453.96 496.77 456.5 496.3 459.65 498.97 479.04 500.74 484.69 507.72 495.57 510.55 501.23 512.39 507.45 513.06 514.42 512.8 520.99 513.04 524.09 518.04 535.84 520.05 538.38 512.18 534.39 510.27 532.13 502.98 523.53 498.49 519.99 490.7 516.68 484.97 512.18 479.68 503.55 475.32 494.36 472.94 477.2 473.51 459.87 475.43 445.03 473.25 430.28 472.95 427.12 473.09 425.33 472.92 423.36 472.41 421.78 471.46 421.13 470.07 420.66 468.93 418.52 467.36 418.05 464.69 416.51 460.42 415.02 460.02 402.95 478.06 402.26 480.93 413.06 483.88 419.37 490.01 426.21 490.83 429.21 494.23 433.25 495.57 437.99 499.99 445.18 Z" id="UGA-3067" data-name="Kayunga"/>
<path d="M 597.83 510.79 599.04 514.6 603.01 518.53 603.39 524.39 602.36 530.21 599.6 534.63 595.92 538.66 594.64 544.43 594.76 550.05 594.81 551.65 594.66 553.29 588.35 552.06 587.6 549.53 585.32 547.54 584.64 544.52 584.98 541.34 581.24 537.9 580.65 528.02 580.65 520.4 572.19 515.75 567.11 511.52 567.53 505.59 569.65 498.82 568.12 490.54 572.87 490.9 575.36 491.75 577.72 492.04 583.4 489.15 584.89 498.76 586.84 501.39 590.06 502.3 596.68 504.99 597.83 510.79 Z" id="UGA-3068" data-name="Iganga"/>
<path d="M 549.1 479.97 549.08 485.28 548.63 487.84 547.71 490.25 547.39 492.39 548.2 494.59 547.69 496.31 546.66 497.72 546.07 501.07 544.28 503.78 542.24 504.95 540.36 506.32 539.26 508.7 537.66 515.4 537.99 519.72 534.66 518.88 532.23 517.81 528.73 518.58 525.13 518.31 524.33 521.38 519.81 520.54 516.61 522.62 512.8 520.99 513.06 514.42 512.39 507.45 510.55 501.23 507.72 495.57 500.74 484.69 498.97 479.04 496.3 459.65 496.77 456.5 499.92 453.96 500.57 451.1 500.57 447.79 499.99 445.18 511.25 446.35 522.25 451.43 524.37 457.35 525.21 463.7 528.6 466.24 532.41 467.51 539.18 473.01 543.41 477.24 549.1 479.97 Z" id="UGA-3069" data-name="Kamuli"/>
<path d="M 504.08 367.14 502.57 374.62 497.36 377.35 500.56 389.51 500.41 402.5 478.06 402.26 460.02 402.95 447.3 404.09 443.5 400.37 440.66 395.64 436.42 396.31 433.43 395.52 428.93 391.1 425.77 388.81 422.21 387.79 415.56 383.56 405.89 380.54 403.71 376.91 410.36 375.95 436.11 376.31 446.39 376.43 451.46 373.53 461.1 364.61 472.5 354.55 489.3 353.58 504.08 367.14 Z" id="UGA-3070" data-name="Amolatar"/>
<path d="M 598.18 458.93 595.83 462.53 594.16 466.41 592.34 469.71 589.88 472.68 583.4 489.15 577.72 492.04 575.36 491.75 572.87 490.9 568.12 490.54 563.89 488.64 562.98 483.98 565.46 473.91 563.15 469.07 561.59 466.86 560.26 464.53 558.13 461.8 555.17 460.15 559.04 456.96 559.31 455.02 559.05 452.82 561.24 449.02 563.89 445.33 565.87 441.16 568.74 437.44 569.95 433.78 570.34 429.7 574.72 432.98 578.56 436.87 582.28 442.09 583.85 442.37 585.95 442.93 589.73 446.04 592.83 449.51 595 454.57 598.18 458.93 Z" id="UGA-3071" data-name="Kaliro"/>
<path d="M 614.25 481.08 617.71 484.57 618.94 489.3 618.71 494.65 619.18 499.77 621.27 504.75 622.4 509.38 623.82 510.72 625.89 512.12 628.08 517.12 623.49 518.55 618.97 518.7 614.45 512.29 611.72 515.88 607.35 515.32 602.48 513.28 597.83 510.79 596.68 504.99 590.06 502.3 586.84 501.39 584.89 498.76 583.4 489.15 589.88 472.68 592.34 469.71 594.16 466.41 595.83 462.53 598.18 458.93 605.1 463.96 607.35 466.32 607.32 473.38 609 476.13 614.25 481.08 Z" id="UGA-3073" data-name="Namutumba"/>
<path d="M 623.92 368.18 623.4 371.49 624.15 374.04 620.54 375.78 615.99 374.96 612.92 377.31 611.25 381.51 610.24 385.24 599.74 387.89 590.34 388.75 580.08 386.18 573.67 381.91 569.39 372.93 559.56 370.37 557.43 366.95 564.27 361.82 569.66 358.6 569.78 355.72 569.81 352.97 572.4 348.29 572 345.03 570.52 341.99 571.6 335.71 573.29 329.74 574.12 324.99 577.61 322.4 583.26 323.64 586.03 328.9 589.65 332.89 594.49 335.64 597.63 336.31 600.56 337.51 601.52 340.02 602.09 342.54 604.76 344.8 607.92 346.39 609.36 347.9 610.64 349.64 615.69 353.73 619.92 358.58 620.71 361.6 621.14 364.76 622.38 366.44 623.92 368.18 Z" id="UGA-3074" data-name="Soroti"/>
<path d="M 510.27 532.13 503.92 536.28 503.45 543.36 505.81 551.62 509.82 557.29 508.64 565.32 502.27 572.17 493.77 580.43 489.76 587.75 485.51 592.47 485.27 597.43 472.47 612.54 447.89 641.79 431.53 641.79 435.79 636.13 442.35 627.44 450.33 617.6 450.07 598.4 451.77 586.45 453.4 580.25 456.54 575.9 459.74 569.03 457.06 560.46 456.38 555.63 456.9 550.72 457.63 547.47 455.86 544.31 457.49 540.61 457.42 536.59 469.58 532.04 472.45 522.29 474.74 507.96 475.32 494.36 479.68 503.55 484.97 512.18 490.7 516.68 498.49 519.99 502.98 523.53 510.27 532.13 Z" id="UGA-3075" data-name="Mukono"/>
<path d="M 621.02 425.9 625.06 426.29 627.63 429.3 630.44 431.87 634.29 432.95 638.36 433.58 641.12 435.75 643.42 438.66 656.16 441.28 659.13 442.35 662.02 443.96 668.88 445.74 669 448.79 670.57 451.43 670.83 455 664.44 452.27 658.94 449.73 649.2 446.77 637.78 447.19 630.58 450.16 619.58 455.23 609.43 459.04 598.18 458.93 595 454.57 592.83 449.51 589.73 446.04 585.95 442.93 583.85 442.37 582.28 442.09 578.56 436.87 574.72 432.98 570.34 429.7 566.31 428 564.86 422.69 568.26 422.19 569.72 425.05 572.09 425.61 574.97 424.39 578.44 425.11 587.42 423.48 608.97 422.04 612.44 421.96 613.88 424.4 616.64 426.7 621.02 425.9 Z" id="UGA-3076" data-name="Pallisa"/>
<path d="M 262.17 588.63 268.77 589.12 271.21 590.71 274.5 595.84 277.49 597.12 288.95 603.4 299.75 610.73 293.69 615.27 295.77 625.9 299.09 642.96 302.01 656.28 301.59 661.27 298.78 662.27 288.76 663.81 280.56 663.99 277.34 663.27 274.15 662.88 262.06 660.86 253.9 656.09 255.52 652.49 256.62 648.45 258.14 644.95 258.69 640.99 258.5 638.79 257.79 636.68 258.41 632.63 255.29 629.06 251.17 626.41 249.28 631.47 241.54 627.76 241.07 625.2 233.22 622.62 229.79 621.96 227.78 623.31 224.57 624.45 219.66 623.03 215.54 622.47 216.46 620.03 218.35 618.11 219.6 614.94 219.48 605.54 218.88 599.71 215.84 594.22 213.33 588.37 214.51 587.73 219.92 587.86 225.12 587 230.69 584.15 236.24 584.66 240.3 589.42 245.06 593.05 251.12 593.22 255.54 588.91 262.17 588.63 Z" id="UGA-3077" data-name="Sembabule"/>
<path d="M 395.72 641.11 359.08 641.07 354.03 639.78 350.02 636.48 341.88 623.05 338.35 619.02 348.62 613.83 357.77 606.76 363.18 600.93 370.67 598.02 378.16 599.27 384.41 595.52 391.48 590.94 395.64 587.62 398.56 584.7 398.14 578.88 398.68 570.89 398.33 565.13 398.62 562.24 397.89 554.41 413.38 554.41 423.7 565.31 421.38 579.23 419.37 584.79 417.43 587.57 413.96 589.18 411.8 591.1 410.6 594.07 408.75 597.33 405.95 599.69 402.75 600.66 400.12 602.26 398.65 606.33 395.49 608.85 392.61 610.7 391.59 613.73 392.21 620.59 395.78 626.55 396.25 633.46 395.72 641.11 Z" id="UGA-3078" data-name="Mpigi"/>
<path d="M 367.36 97.51 367.36 97.63 366.65 118.48 365.69 120.3 363.88 121.28 363.59 124.25 363.91 127.33 365.15 129.9 365.51 132.37 362.63 137.64 362.31 140.68 363.02 143.82 362.19 146.55 360.68 149.16 358.92 151.48 356.73 153.48 355.83 156.27 355.63 159.39 350.24 168.16 349.92 171.13 349.33 174.04 320.05 183.12 304.61 185.56 300.05 191.91 296.41 197.17 294.37 198.46 291.65 198.53 289.78 197.56 288.49 195.49 284.67 194.42 281.59 190.43 278.07 187.45 272.04 185.83 273.96 180.23 276.12 177.16 282.77 170.11 288.15 161.99 289.91 158.18 293.81 149.8 295.53 143.62 296.17 139.69 296.62 138.54 297.38 137.55 298.38 136.57 299.25 135.46 300.51 130.42 302.65 127.7 307.7 122.66 308.64 119.92 309.35 116.22 310.34 112.97 312.9 110.96 313.62 109.59 314.59 108.22 316.13 107.6 319.35 107.3 322.67 106.6 324.09 105.71 327.66 102.52 330.74 101.36 332.41 101.07 332.1 102.97 333.59 103.25 336.23 103.06 337.55 104.22 339.22 105.3 341 106.14 342.73 106.59 346.04 106.3 348.93 104.72 350.94 102.18 351.7 99.02 353.33 96.95 360.72 94.79 362.68 93.59 363.84 93.66 365.51 94.55 367.36 97.51 Z" id="UGA-3079" data-name="Adjumani"/>
<path d="M 288.15 161.99 282.77 170.11 276.12 177.16 273.96 180.23 272.04 185.83 268.3 193.43 266.97 199.39 267.47 205.49 270.66 210.69 264.15 214.11 261.41 215.32 260.75 217.29 259.48 219.58 257.38 221.2 256.61 223.41 256.85 226.41 255.31 228.52 250.07 232.61 235.85 234.46 230.02 237.79 220.29 239.43 211.59 235.65 211.61 229 209.69 223.62 208.26 217.74 202.2 218.61 193.96 221.42 188.98 224.67 179.71 226.72 183.65 216.12 183.83 215.36 183.86 213.91 184.22 213.09 184.84 212.68 186.61 212.34 187.18 212.05 188.18 210.6 191.79 200.77 192 194.94 190.42 189.15 187.05 183.25 184.51 180.93 177.71 176.19 175.95 174.02 175.77 171.22 176.36 168.11 178.64 161.28 185.1 161.49 200.91 162.19 206.03 156.5 212.18 152.4 216.29 147.95 217.31 140.43 221.08 133.57 224.17 136.61 228.31 135.78 231.13 133.58 232.34 130.12 235.3 128.44 239.03 129.04 243.27 130.36 246.17 133.37 252.15 137.77 259.57 139.88 262.31 142.25 264.07 145.7 267.5 146.75 271.49 147.26 274.53 153.58 275.24 160.22 288.15 161.99 Z" id="UGA-3080" data-name="Arua"/>
<path d="M 221.08 133.57 215.05 129.58 213.24 130.72 211.4 132.49 206.83 130.32 203 126.78 199.33 122.89 200.07 121.81 200.99 118.68 200.72 116.97 199.26 113.91 199.03 112.23 200.01 108.1 199.97 106.79 198.08 103.3 195.7 104.12 192.94 106.49 189.77 107.66 190.39 105.36 193.59 99.07 203.24 85.01 203.91 83.29 204.36 81.6 205.1 80.01 206.72 78.59 208.25 78.06 211.15 78.13 212.64 77.93 214.62 77.02 219.13 73.44 220.49 72.89 223.27 72.34 220.79 82.19 218.65 101.43 220.36 117.25 221.08 133.57 Z" id="UGA-3081" data-name="Koboko"/>
<path d="M 266.07 363.81 265.94 356.21 261.03 351.71 224.27 348.83 227.26 345.07 230.64 340.83 240.02 329.01 248.73 318.05 252.91 310.48 254.18 303.39 258.41 302.8 263.77 299.28 266.7 297.35 267.58 296.9 271.54 295.56 278.81 290.2 285.88 288.37 290.88 285.55 293.04 284.92 293.52 294.98 292.12 304.8 292.12 316.03 297.03 322.34 301.24 329.36 305.45 332.87 307.56 337.08 306.16 340.59 301.95 341.29 297.73 344.8 297.73 354.62 293.52 360.94 283.7 365.85 274.58 365.15 266.07 363.81 Z" id="UGA-3082" data-name="Buliisa"/>
<path d="M 275.15 235.28 277.04 237.99 279.11 240.32 280.86 243.36 283.08 249.63 285.64 251.8 286.89 251.68 288.52 251.16 289.94 251.08 290.55 252.29 290.35 253.94 289.73 255.4 288.64 256.47 287.04 256.88 284.85 257.91 283.4 260.46 282.68 263.75 282.65 265.86 282.1 269.81 281.5 273.56 279.25 275.71 275.81 277.77 268.26 281.34 262.88 287.11 261.76 291.04 263.77 299.28 258.41 302.8 254.18 303.39 254.23 303.11 253.98 302.72 252.33 300.2 244.06 295.51 241.02 293.15 239.9 290.63 239.4 287.56 239.19 281.25 232.12 283.91 229.69 284.29 227.71 284.2 221.3 283.1 219.17 281.98 218.42 280.66 218.9 280.07 219.72 279.64 219.94 278.8 219.59 277.72 219.26 277.11 211.01 267.84 208.55 266.26 209.77 263.25 215.92 262.4 216.77 257.09 221.23 254.33 223.35 248.81 220.29 239.43 230.02 237.79 235.85 234.46 250.07 232.61 255.31 228.52 256.85 226.41 256.61 223.41 257.38 221.2 259.48 219.58 260.75 217.29 261.41 215.32 264.15 214.11 270.66 210.69 273.5 212.66 275.71 213.79 277.14 215.52 277.95 220.67 278.53 222.33 278.91 224.08 278.66 225.84 277.85 226.64 275.35 227.95 274.58 228.74 274.11 232.19 275.15 235.28 Z" id="UGA-3084" data-name="Nebbi"/>
<path d="M 330.35 61.42 331.22 61.82 334.68 64.72 345.09 76.35 347.19 79.87 347.74 82.64 348.19 89.37 349.2 91.84 351.2 92.88 362.68 93.59 360.72 94.79 353.33 96.95 351.7 99.02 350.94 102.18 348.93 104.72 346.04 106.3 342.73 106.59 341 106.14 339.22 105.3 337.55 104.22 336.23 103.06 333.59 103.25 332.1 102.97 332.41 101.07 330.74 101.36 327.66 102.52 324.09 105.71 322.67 106.6 319.35 107.3 316.13 107.6 314.59 108.22 313.62 109.59 312.9 110.96 310.34 112.97 309.35 116.22 308.64 119.92 307.7 122.66 302.65 127.7 300.51 130.42 299.25 135.46 298.38 136.57 297.38 137.55 296.62 138.54 296.17 139.69 295.53 143.62 293.81 149.8 289.91 158.18 280.58 147.27 279.89 127.78 281.03 112.37 291.47 97.05 299.03 86.9 302.99 77.42 310.97 76.25 313.64 75.11 315 73.87 326.64 60.8 326.96 59.96 327.41 60.05 330.35 61.42 Z" id="UGA-3085" data-name="Moyo"/>
<path d="M 302.99 77.42 299.03 86.9 291.47 97.05 281.03 112.37 279.89 127.78 280.58 147.27 289.91 158.18 288.15 161.99 275.24 160.22 274.53 153.58 271.49 147.26 267.5 146.75 264.07 145.7 262.31 142.25 259.57 139.88 252.15 137.77 246.17 133.37 243.27 130.36 239.03 129.04 235.3 128.44 232.34 130.12 231.13 133.58 228.31 135.78 224.17 136.61 221.08 133.57 220.36 117.25 218.65 101.43 220.79 82.19 223.27 72.34 224.58 71.82 228.49 68.77 233.91 64.54 237.73 63.47 244.63 63.48 250.62 64.31 256.36 66.14 268.45 72.7 287.13 82.85 289.8 83.4 291.38 82.02 291.52 81.89 293.23 79.76 295.8 78.47 302.99 77.42 Z" id="UGA-3086" data-name="Yumbe"/>
<path d="M 221.08 133.57 217.31 140.43 216.29 147.95 212.18 152.4 206.03 156.5 200.91 162.19 185.1 161.49 178.64 161.28 184.6 143.36 187.22 138.18 187.75 137.85 189.51 137.45 190.19 137.11 190.66 136.36 190.84 134.82 191.1 134.11 194 129.13 198.21 124.5 199.33 122.89 203 126.78 206.83 130.32 211.4 132.49 213.24 130.72 215.05 129.58 221.08 133.57 Z" id="UGA-3087" data-name="Maracha"/>
<path d="M 456.54 575.9 448.24 575.78 439.45 577.93 435.98 573.6 439.13 567.71 441.16 565.14 442.05 561.11 441.81 560.03 440.83 559.19 440.66 557.92 441.23 556.86 439.03 555.06 437.77 553.24 439.71 547.27 442.28 548.34 444.11 549.93 446.73 549.75 448.94 548.1 449.88 545.5 452.72 544.67 455.86 544.31 457.63 547.47 456.9 550.72 456.38 555.63 457.06 560.46 459.74 569.03 456.54 575.9 Z" id="UGA-3088" data-name="Kampala"/>
<path d="M 386.29 515.25 379.83 518.12 372.75 522.96 369.94 524.99 364.02 525.19 356.31 524.01 352.62 523.14 350.93 521.92 348.94 520.94 347.62 519.4 347.35 517.39 335.38 500.5 329.63 498.26 321.62 498.21 311.87 491.32 318.17 483.3 323.91 478.13 330.22 474.69 334.81 470.68 336.53 463.8 341.12 459.21 352.56 456.55 359.36 468.68 359.65 471.35 359.51 474.42 365.76 484.97 375.13 491.38 383.77 493 391.48 499.81 391.9 506.88 390.23 511.04 386.29 515.25 Z" id="UGA-3089" data-name="Kiboga"/>
<path d="M 403.71 376.91 405.89 380.54 415.56 383.56 422.21 387.79 425.77 388.81 428.93 391.1 433.43 395.52 436.42 396.31 440.66 395.64 443.5 400.37 447.3 404.09 460.02 402.95 460.42 415.02 464.69 416.51 467.36 418.05 468.93 418.52 470.07 420.66 471.46 421.13 472.41 421.78 472.92 423.36 473.09 425.33 472.95 427.12 473.25 430.28 475.43 445.03 473.51 459.87 465.61 460.75 462.13 454.62 458.11 450.6 452.99 451.89 451.23 459.78 450.08 468.96 450.66 476.41 441.26 475.21 427.97 469.28 418.79 458.52 417.39 449.46 410.29 442.47 395.6 435.69 371.36 411.36 353.52 402.16 358.67 394.49 362.11 393.17 365.35 391.18 369.55 385.83 372.09 379.67 374.67 377.03 380.05 374.19 385.4 372.68 390.43 372.85 393.82 374.04 403.71 376.91 Z" id="UGA-3090" data-name="Nakasongola"/>
<path d="M 407.73 538.1 409.92 536.61 412.13 535.59 425.94 537.17 433.15 537.11 438.62 538.54 444.21 534.4 450.74 536.64 457.42 536.59 457.49 540.61 455.86 544.31 452.72 544.67 449.88 545.5 448.94 548.1 446.73 549.75 444.11 549.93 442.28 548.34 439.71 547.27 437.77 553.24 439.03 555.06 441.23 556.86 440.66 557.92 440.83 559.19 441.81 560.03 442.05 561.11 441.16 565.14 439.13 567.71 435.98 573.6 439.45 577.93 448.24 575.78 456.54 575.9 453.4 580.25 451.77 586.45 450.07 598.4 450.33 617.6 442.35 627.44 435.79 636.13 431.53 641.79 416.09 641.31 395.72 641.11 396.25 633.46 395.78 626.55 392.21 620.59 391.59 613.73 392.61 610.7 395.49 608.85 398.65 606.33 400.12 602.26 402.75 600.66 405.95 599.69 408.75 597.33 410.6 594.07 411.8 591.1 413.96 589.18 417.43 587.57 419.37 584.79 421.38 579.23 423.7 565.31 413.38 554.41 397.89 554.41 391.48 544.33 391.99 534.01 396.25 535.06 400.15 537.45 403.65 539.11 407.73 538.1 Z" id="UGA-3091" data-name="Wakiso"/>
<path d="M 473.51 459.87 472.94 477.2 475.32 494.36 474.74 507.96 472.45 522.29 469.58 532.04 457.42 536.59 450.74 536.64 444.21 534.4 438.62 538.54 433.15 537.11 425.94 537.17 412.13 535.59 409.92 536.61 407.73 538.1 408.4 532.37 411.16 527.13 413.38 524.83 416.07 522.96 419.49 522.3 423.04 522.15 425.93 522.42 427.54 520.89 429.15 518.15 431.05 515.87 430.46 513.42 428.53 511.82 427.27 509.34 427.14 491.32 419.69 479.85 417.97 470.68 418.79 458.52 427.97 469.28 441.26 475.21 450.66 476.41 450.08 468.96 451.23 459.78 452.99 451.89 458.11 450.6 462.13 454.62 465.61 460.75 473.51 459.87 Z" id="UGA-3092" data-name="Luweero"/>
<path d="M 352.62 523.14 350.86 525.68 347.15 526.97 345.14 530.79 346.56 534.7 348.56 535.18 350.33 535.93 350.52 537.49 349.63 538.79 348.48 539.91 348.15 541.39 350.51 544.34 351.1 547.61 353.59 551.48 354.91 555.73 353.44 558.45 352.88 561.79 354.53 568.56 351.95 574.71 333.33 576.57 326.22 580.22 319.07 573.88 309.08 570.55 303.67 568.89 297.29 568.6 286.19 574.3 277.04 577.21 267.88 578.88 262.47 580.96 262.17 588.63 255.54 588.91 251.12 593.22 245.06 593.05 240.3 589.42 236.24 584.66 230.69 584.15 225.12 587 219.92 587.86 214.51 587.73 217.09 583.1 221.26 579.76 225 575.65 228.11 571.14 230.13 569.38 231.71 567.53 230.8 565.02 229.41 562.49 229.26 556.86 232.07 551.85 233.37 547.03 236.6 544.21 246.86 542.45 248.92 541.34 248.81 539.55 249.81 537.37 250.29 535.1 248.31 530.54 244.57 526.95 253.41 514.48 259.8 513.06 266.49 515.78 270.51 510.07 272.01 502.21 273.44 500.05 275.32 498.35 275.26 495.6 277.28 491.99 298.47 494.38 306.7 491.32 311.87 491.32 321.62 498.21 329.63 498.26 335.38 500.5 347.35 517.39 347.62 519.4 348.94 520.94 350.93 521.92 352.62 523.14 Z" id="UGA-3093" data-name="Mubende"/>
<path d="M 391.99 534.01 391.48 544.33 397.89 554.41 398.62 562.24 398.33 565.13 398.68 570.89 398.14 578.88 393.15 580.96 382.85 580.35 380.09 580.55 361.96 581.92 358.88 582.12 357.32 583.66 354.69 584.55 351.41 583.8 349.31 585.37 346.49 585.64 343.15 584.68 340.5 583.13 337.09 577.73 333.33 576.57 351.95 574.71 354.53 568.56 352.88 561.79 353.44 558.45 354.91 555.73 353.59 551.48 351.1 547.61 350.51 544.34 348.15 541.39 348.48 539.91 349.63 538.79 350.52 537.49 350.33 535.93 348.56 535.18 346.56 534.7 345.14 530.79 347.15 526.97 350.86 525.68 352.62 523.14 356.31 524.01 364.02 525.19 369.94 524.99 372.75 522.96 379.83 518.12 386.29 515.25 388.98 521.45 391.08 530.07 391.99 534.01 Z" id="UGA-3094" data-name="Mityana"/>
<path d="M 418.79 458.52 417.97 470.68 419.69 479.85 427.14 491.32 427.27 509.34 428.53 511.82 430.46 513.42 431.05 515.87 429.15 518.15 427.54 520.89 425.93 522.42 423.04 522.15 419.49 522.3 416.07 522.96 413.38 524.83 411.16 527.13 408.4 532.37 407.73 538.1 403.65 539.11 400.15 537.45 396.25 535.06 391.99 534.01 391.08 530.07 388.98 521.45 386.29 515.25 390.23 511.04 391.9 506.88 391.48 499.81 383.77 493 375.13 491.38 365.76 484.97 359.51 474.42 359.65 471.35 359.36 468.68 352.56 456.55 349.62 439.37 344.22 430.05 333.45 419.53 342.47 410.22 348.44 406.65 353.52 402.16 371.36 411.36 395.6 435.69 410.29 442.47 417.39 449.46 418.79 458.52 Z" id="UGA-3095" data-name="Nakaseke"/>
<path d="M 614.33 127.7 613.08 129.53 612.14 131.45 613.06 135.54 609.65 139.47 605.26 142.57 600.9 142.74 596.71 140.85 591.42 139.85 586.06 140.04 582.69 140.52 579.45 140.25 577.04 138.28 574.44 136.77 562.56 135.54 566.56 141.31 557.03 140.97 558.28 150.67 551.36 151.26 545.54 153.28 536.97 151.84 533.49 163.07 528.36 176.75 524.3 169.86 519.67 165.93 515.07 159.95 504.03 153.99 495.62 153.06 495.13 163.45 489.8 160.41 481.94 155.35 476.46 154.58 473.89 153.02 473.22 144.69 473.22 138.71 470.23 132.72 470.23 125.88 471.94 122.04 486.05 121.18 491.6 119.9 495.02 117.33 495.02 114.34 496.73 110.92 521.52 110.92 523.66 108.79 525.37 102.8 528.36 101.09 532.21 101.09 538.62 108.36 538.62 116.05 546.74 116.48 547.17 97.25 545.46 89.13 542.04 84.42 541.18 79.72 542.47 75.45 544.19 69.14 547.53 69.3 571.04 70.5 577.38 69.71 582.8 66.54 583.03 67.2 588.2 83.51 597.74 96.99 601.47 104.42 604.27 112.44 610.22 119.44 614.33 127.7 Z" id="UGA-3096" data-name="Kitgum"/>
<path d="M 434.75 159.47 433.04 161.2 430.23 161.21 428.74 162.39 438.14 174.9 452.82 202.38 455.05 205.29 456.86 206.26 458.67 207.88 460.09 211.53 461.86 214.9 464.63 216.33 466.51 218.5 464.23 221.68 460.35 222.78 459.06 224.68 460.08 227.18 460.8 230.42 458.85 232.88 456.69 234.57 456.47 237.25 443.08 234.6 430.49 236.65 423.77 255.59 417.63 257.01 412.42 256.87 409.7 254.23 405 252.79 401.16 250.31 398.89 246.49 398.2 243.61 397.91 240.69 398.55 238.88 389.32 238.23 385.22 235.84 383.17 231.39 384.19 227.29 386.93 223.53 388.83 218.88 390.69 213.95 391.03 210.53 387.73 186.24 385.22 180.1 385.56 171.55 388.64 162.32 391.37 157.87 400.61 150 406.08 142.48 411.69 137.41 415.89 140.46 433.92 156.24 434.75 159.47 Z" id="UGA-3098" data-name="Gulu"/>
<path d="M 507.78 247.57 507.42 251.54 505.28 256.25 500.58 259.24 500.58 263.51 496.73 267.79 490.32 270.35 489.47 273.77 495.88 273.77 501.01 275.48 503.14 280.61 508.7 284.88 514.26 287.87 517.25 293 518.19 315.84 514.95 320.61 510.53 321.85 505.47 319.21 500.59 316.06 495.2 315.06 489.27 314.61 486.28 313.48 483.08 313.66 480.51 312.13 478.27 309.93 479.51 295.06 480.45 292.34 477.77 288.01 474.08 280.18 470.66 275.48 472.8 269.92 475.79 264.37 478.01 256.11 479.75 250.1 472.79 240.94 477.32 237.54 479.65 232.3 481.55 232.25 483.21 234.5 485.98 235.79 489.47 236.19 492.22 237.93 496.09 239.22 498.07 246.48 500.98 246.81 503.08 248.9 507.78 247.57 Z" id="UGA-3099" data-name="Lira"/>
<path d="M 548.22 319.76 546.93 331.49 546.13 333.02 544.77 334.09 543.04 337.07 540.78 339.59 527.64 347.76 525.78 348.49 524.51 349.92 523.56 354.72 520.58 363.12 520.08 365.23 519.46 366.9 517.24 368.12 514.9 369.03 509.58 369.38 504.08 367.14 509.25 352.23 497.36 344.95 497.85 336.1 492.88 333.84 486.37 332.86 485.8 327.7 488.05 321.32 489.27 314.61 495.2 315.06 500.59 316.06 505.47 319.21 510.53 321.85 514.95 320.61 518.19 315.84 522.91 314 525.55 309.74 528.36 310.31 530.99 309.23 536.75 312.2 543.97 313.59 546.29 316.46 548.22 319.76 Z" id="UGA-3100" data-name="Dokolo"/>
<path d="M 528.36 176.75 528.36 182.73 525.37 186.15 521.1 189.57 521.95 194.7 529.64 195.98 539.05 196.41 542.04 201.54 541.18 211.37 536.48 216.5 517.68 217.35 513.83 221.63 517.25 226.75 524.45 236.08 517.91 238.77 512.04 242.4 507.78 247.57 503.08 248.9 500.98 246.81 498.07 246.48 496.09 239.22 492.22 237.93 489.47 236.19 485.98 235.79 483.21 234.5 481.55 232.25 479.65 232.3 477.32 237.54 472.79 240.94 456.47 237.25 456.69 234.57 458.85 232.88 460.8 230.42 460.08 227.18 459.06 224.68 460.35 222.78 464.23 221.68 466.51 218.5 464.63 216.33 461.86 214.9 460.09 211.53 458.67 207.88 456.86 206.26 455.05 205.29 452.82 202.38 438.14 174.9 428.74 162.39 430.23 161.21 433.04 161.2 434.75 159.47 458.86 159.34 466.98 154.44 473.89 153.02 476.46 154.58 481.94 155.35 489.8 160.41 495.13 163.45 495.62 153.06 504.03 153.99 515.07 159.95 519.67 165.93 524.3 169.86 528.36 176.75 Z" id="UGA-3101" data-name="Pader"/>
<path d="M 374.28 374.42 374.67 377.03 372.09 379.67 369.55 385.83 365.35 391.18 362.11 393.17 358.67 394.49 353.52 402.16 348.44 406.65 342.47 410.22 333.45 419.53 330.52 420 327.71 420.9 324.47 424.43 317.94 423.74 311.27 421.85 288.34 418.92 284.37 417.35 281.03 414.82 278.49 412.07 277.82 404.53 275.98 384.3 274.95 381.27 271.72 381.85 268.29 382.91 266.37 377.46 268.03 369.54 266.81 367.8 266.63 365.71 266.07 363.81 274.58 365.15 283.7 365.85 293.52 360.94 297.73 354.62 297.73 344.8 301.95 341.29 306.16 340.59 307.56 337.08 305.45 332.87 301.24 329.36 297.03 322.34 292.12 316.03 292.12 304.8 293.52 294.98 293.04 284.92 303.06 284.92 304.39 285.24 305.98 286.6 307.15 286.91 309.89 286.55 323.67 281.92 322.29 299.89 323 316.73 325.8 320.24 331.42 320.94 335.63 322.34 338.43 326.55 341.24 330.76 341.24 337.08 339.84 346.2 339.84 353.22 343.35 359.53 345.45 365.15 345.45 370.76 349.66 372.87 355.27 374.27 358.08 378.48 362.99 377.78 362.99 372.17 369.31 371.46 374.28 374.42 Z" id="UGA-3102" data-name="Masindi"/>
<path d="M 456.47 237.25 472.79 240.94 479.75 250.1 478.01 256.11 472.89 260.14 466.54 258.06 460.38 257.78 450.27 270.76 444.48 272.37 447.6 289.6 444.18 292.26 441.57 295.58 439.81 299.17 437.23 304.43 428.25 318.13 421.24 319.54 410.14 314.91 408.96 311.78 407.34 309.47 406.3 307.13 404.8 296.9 402.14 291.86 399.88 289.12 397.46 287.98 394.72 276.29 394.03 264.19 394.81 258.21 400.33 256.93 406.37 257.57 412.42 256.87 417.63 257.01 423.77 255.59 430.49 236.65 443.08 234.6 456.47 237.25 Z" id="UGA-3103" data-name="Oyam"/>
<path d="M 91.93 513.46 89.66 517.24 87.84 521.21 86.46 525.72 83.36 529.04 79.77 535.33 76.94 542.23 75.44 544.05 74.04 546.13 72.36 547.21 70.43 547.97 68.27 551.05 66.74 554.56 63.82 556.13 62.95 557.03 61.09 557.97 59.23 558.62 58.1 558.46 57.11 557.95 55.51 556.55 54.21 555.2 52.97 553.88 55.75 550.67 56.21 549.66 58.32 545.09 57.95 539.39 55.25 527.58 55.32 524.57 57.12 512.22 56.32 504.65 56.53 503.17 59.31 497.39 61.2 496.29 64.42 493.82 66.49 492.22 72.63 489.45 88.24 485.9 89.66 485.09 91.24 483.23 93.84 478.38 97.17 487.09 103.87 493.24 100.18 494.98 97.63 498.32 96.61 505.35 95.42 506.6 94.03 508.34 91.93 513.46 Z" id="UGA-3104" data-name="Bundibugyo"/>
<path d="M 266.07 363.81 266.63 365.71 266.81 367.8 268.03 369.54 266.37 377.46 268.29 382.91 271.72 381.85 274.95 381.27 275.98 384.3 277.82 404.53 278.49 412.07 281.03 414.82 284.37 417.35 288.34 418.92 277.24 430.01 272.99 431.65 264.62 435.87 259.68 437.37 255.7 440.52 249.43 439.56 243.92 439.65 241.65 442.36 238.7 443.65 234.68 443.28 230.75 443.54 227.48 448.16 223.67 447.85 220.89 447.33 215.24 450.42 208.45 451.29 194.47 456.34 184.73 453.6 179.53 455.51 175.66 459.76 165.78 463.8 153.73 465.52 147.16 460.89 147.43 448.15 147.97 422.67 154.35 414.48 166.69 398.59 186.47 382.63 206.56 366.37 217 357.96 224.27 348.83 261.03 351.71 265.94 356.21 266.07 363.81 Z" id="UGA-3105" data-name="Hoima"/>
<path d="M 146.75 482.05 143.31 485.35 140.35 489.05 138.05 493.23 138.64 494.3 139.41 495.17 137.58 500.09 134.69 504.32 131.45 506.54 130.6 514.77 129.71 519.2 127.44 521.34 125.05 524.34 125.23 528.03 127.49 530.31 133.73 534.89 131.67 535.62 129.62 538.82 127.85 540.66 124.18 543.37 122.03 546.99 122.54 549.23 122.65 551.48 120.47 556.05 123.53 559.95 123.92 563.74 122.44 572.5 119.92 584.67 109.9 581.97 106.31 579.42 102.66 576.84 98.64 573.97 91.18 574.55 87.17 567.66 75.69 564.22 60.2 567.66 42.55 568.68 43.57 565.54 45.24 562.8 52.97 553.88 54.21 555.2 55.51 556.55 57.11 557.95 58.1 558.46 59.23 558.62 61.09 557.97 62.95 557.03 63.82 556.13 66.74 554.56 68.27 551.05 70.43 547.97 72.36 547.21 74.04 546.13 75.44 544.05 76.94 542.23 79.77 535.33 83.36 529.04 86.46 525.72 87.84 521.21 89.66 517.24 91.93 513.46 102.09 507.98 108.97 503.39 112.42 492.49 119.3 498.23 130.2 487.33 135.94 479.87 144.09 473.8 146.75 482.05 Z" id="UGA-3106" data-name="Kabarole"/>
<path d="M 204.05 515.92 200.24 517.94 197.23 518.69 198.99 521.71 203.76 524.22 206.27 525.47 206.27 534.27 203.01 534.77 201.5 536.78 201.5 550.09 196.47 550.34 196.22 557.38 193.16 557.58 188.94 559.13 185.42 557.88 181.15 556.62 177.13 558.13 172.11 560.14 166.33 565.92 159.3 570.44 151.26 573.96 147.49 574.46 145.76 570.64 145.36 565.05 143.62 559.89 143.59 554.96 138.95 552.85 136.69 549.34 134.93 543.06 129.62 538.82 131.67 535.62 133.73 534.89 127.49 530.31 125.23 528.03 125.05 524.34 127.44 521.34 129.71 519.2 130.6 514.77 131.45 506.54 134.69 504.32 137.58 500.09 139.41 495.17 138.64 494.3 138.05 493.23 140.35 489.05 143.31 485.35 146.75 482.05 159.49 487.77 173.36 491.18 179.88 494.35 186.75 495.77 192.45 500.73 199.73 510.42 201.54 513.71 204.05 515.92 Z" id="UGA-3107" data-name="Kyenjojo"/>
<path d="M 255.7 440.52 259.9 443.64 264.42 446.18 268.77 447.35 272.79 449 278.78 457.84 286.83 464.78 289.44 467.74 289.11 471.61 287.62 473.84 285.3 474.93 282.92 475.38 281.68 477.33 277.99 479.73 275.69 482.53 277.3 487.26 277.28 491.99 275.26 495.6 275.32 498.35 273.44 500.05 272.01 502.21 270.51 510.07 266.49 515.78 259.8 513.06 253.41 514.48 244.57 526.95 242.15 525.39 239.43 525.61 236.12 523.84 232.14 523.32 225.61 520.2 218.58 518.44 212.05 517.43 204.05 515.92 201.54 513.71 199.73 510.42 192.45 500.73 186.75 495.77 179.88 494.35 173.36 491.18 159.49 487.77 146.75 482.05 144.09 473.8 146.24 464.54 147.16 460.89 153.73 465.52 165.78 463.8 175.66 459.76 179.53 455.51 184.73 453.6 194.47 456.34 208.45 451.29 215.24 450.42 220.89 447.33 223.67 447.85 227.48 448.16 230.75 443.54 234.68 443.28 238.7 443.65 241.65 442.36 243.92 439.65 249.43 439.56 255.7 440.52 Z" id="UGA-3108" data-name="Kibale"/>
<path d="M 732.03 442.44 731.68 449.86 733.33 457.22 733.72 458.1 733.73 458.12 730.85 458.67 728.46 457.32 726.04 456.75 728.49 448.02 728.52 443.02 724.73 439.32 714.88 433.91 699.87 427.88 697.03 424.77 697.74 420.38 700.01 416.49 703.74 412.64 708.27 409.71 715.18 406.59 720.3 411.23 729.61 413.76 734.68 417.15 735.11 423.07 731.72 431.54 732.03 442.44 Z" id="UGA-3112" data-name="Kapchorwa"/>
<path d="M 766 417.38 766.28 420.13 768.82 426.08 770.35 431.9 768.51 437.83 763.85 439.94 751.82 441.17 748.79 443.03 743.8 447.82 736.71 449.44 735.72 452.11 735.47 455.41 734.73 456.68 733.9 458.09 733.73 458.12 733.72 458.1 733.33 457.22 731.68 449.86 732.03 442.44 735.25 435.4 740.11 429.48 743.69 427.17 747.58 425.65 750.66 425.17 753.5 423.77 758.17 417.79 760.36 410.42 765.92 417.29 766 417.38 Z" id="UGA-3113" data-name="Bukwa"/>
<path d="M 728.49 448.02 726.04 456.75 720.68 457.41 708.68 456.31 704.06 459.1 699.36 457.27 694.51 456.1 692.32 456.6 690.28 456.5 688.16 455.06 685.82 454.4 683.63 451.62 681.88 448.58 678.11 449.3 674.79 447.88 679.9 443.52 683.16 436.41 696.18 438.31 707.18 441.27 710.99 445.08 718.18 445.93 724.1 447.19 728.49 448.02 Z" id="UGA-3114" data-name="Sironko"/>
<path d="M 674.79 447.88 678.11 449.3 681.88 448.58 683.63 451.62 685.82 454.4 688.16 455.06 690.28 456.5 692.32 456.6 694.51 456.1 699.36 457.27 704.06 459.1 698.13 460.83 694.63 465.44 692.79 468.86 690.38 471.86 689.81 474.93 689.91 477.64 684.72 480.13 682.89 483.05 681.69 486.28 680.24 492.7 675.79 496.88 674.14 492.81 671.39 489.76 668.03 487.63 664.27 486.02 666.64 480.3 667.1 474.01 668.14 471.32 668.82 468.54 665.72 467.16 661.96 466.76 663.15 464.29 666.19 463.96 668.43 461.71 670.83 455 670.57 451.43 669 448.79 668.88 445.74 671.71 447.31 674.79 447.88 Z" id="UGA-3115" data-name="Mbale"/>
<path d="M 719.59 471.74 719.55 474.95 718.69 477.94 714.89 487.31 710.68 492.78 708.58 498.67 706.07 500.95 696.68 505.65 695.48 506.94 695.16 508.77 695.1 508.74 685.41 504.59 675.79 496.88 680.24 492.7 681.69 486.28 682.89 483.05 684.72 480.13 689.91 477.64 689.81 474.93 690.38 471.86 700.03 471.74 700.03 473.73 702.6 473.73 702.89 470.6 716.3 470.6 719.59 471.74 Z" id="UGA-3116" data-name="Manafwa"/>
<path d="M 628.08 517.12 630.11 517.3 632.13 517.86 634.67 523.17 636.57 528.95 645.58 535.47 644.36 537.87 641.62 538.42 636.45 545.42 636.13 548.66 631.15 551.59 628.28 555.61 626.84 561.92 622.25 561.64 617.38 563.64 612.21 567.37 605.75 570.92 607.02 564.09 599.27 562.3 596.31 558.49 592.92 556.37 594.66 553.29 594.81 551.65 594.76 550.05 594.64 544.43 595.92 538.66 599.6 534.63 602.36 530.21 603.39 524.39 603.01 518.53 599.04 514.6 597.83 510.79 602.48 513.28 607.35 515.32 611.72 515.88 614.45 512.29 618.97 518.7 623.49 518.55 628.08 517.12 Z" id="UGA-3117" data-name="Bugiri"/>
<path d="M 671.09 534.69 667.57 549.13 667.11 550.37 666.08 551.89 663.56 554.88 662.91 556.21 663.06 558.9 664.71 564.24 664.3 567.21 663.05 569.15 657.79 573.23 646.04 588.9 645.99 588.86 644.73 587.85 642.48 585.07 637.89 578.76 634.52 572 633.87 567.62 635.67 563.96 638.11 561.56 639.84 558.9 639.41 555.19 636.13 548.66 636.45 545.42 641.62 538.42 644.36 537.87 645.58 535.47 648.39 535.85 651.17 535.87 653.6 534.51 656.19 533.61 670.35 534.56 671.01 534.68 671.09 534.69 Z" id="UGA-3118" data-name="Busia"/>
<path d="M 664.27 486.02 661.29 486.25 658.85 487.59 656.75 489.36 654.21 490.37 651.44 490.39 648.78 490.72 644.05 493.93 640.65 498.53 633.37 514.84 633.23 516.58 632.13 517.86 630.11 517.3 628.08 517.12 625.89 512.12 623.82 510.72 622.4 509.38 621.27 504.75 619.18 499.77 618.71 494.65 618.94 489.3 617.71 484.57 614.25 481.08 621.24 479.22 628.99 480.67 637.33 482.38 645.22 479.31 653.19 472.5 661.96 466.76 665.72 467.16 668.82 468.54 668.14 471.32 667.1 474.01 666.64 480.3 664.27 486.02 Z" id="UGA-3119" data-name="Butaleja"/>
<path d="M 594.66 553.29 592.92 556.37 596.31 558.49 599.27 562.3 607.02 564.09 605.75 570.92 606.55 573.17 606.55 574.12 606.55 577.05 602.22 581.77 601.31 607.25 607.05 618.16 613.93 623.89 613.48 627.89 598.01 633.08 598.01 764.52 598.01 764.53 572.33 764.53 567.98 764.53 567.98 764.52 567.95 586.7 562.23 573.7 566.79 572.94 573.42 569.26 575.44 568.75 577.34 568.5 579.37 567.23 580.63 564.2 582.02 560.02 585.74 556.44 588.35 552.06 594.66 553.29 Z" id="UGA-3120" data-name="Mayuge"/>
<path d="M 675.79 496.88 685.41 504.59 695.1 508.74 695.16 508.77 694.58 512.13 692.23 518.41 688.71 522.18 683.98 524.59 678.04 526.73 673.72 529.69 671.21 534.2 671.09 534.69 671.01 534.68 670.35 534.56 656.19 533.61 653.6 534.51 651.17 535.87 648.39 535.85 645.58 535.47 636.57 528.95 634.67 523.17 632.13 517.86 633.23 516.58 633.37 514.84 640.65 498.53 644.05 493.93 648.78 490.72 651.44 490.39 654.21 490.37 656.75 489.36 658.85 487.59 661.29 486.25 664.27 486.02 668.03 487.63 671.39 489.76 674.14 492.81 675.79 496.88 Z" id="UGA-3121" data-name="Tororo"/>
<path d="M 682.82 332.17 682.8 379.45 658.02 377.83 651.06 378.78 643.78 380.61 636.62 378.4 630.88 374.65 624.15 374.04 623.4 371.49 623.92 368.18 629.43 364.26 632.83 358.97 632.63 353.22 630.17 348.13 631.95 344.39 636.78 340.64 636.92 337.74 636.09 334.69 636.74 328.08 635.64 325.86 635.73 323.44 636.51 321.94 637.46 320.52 637.16 318.99 636.15 317.48 635.89 314.72 636.78 312.22 638.27 309.06 638.05 305.68 636.62 299.28 634.97 297.35 634.08 294.91 635.27 287.83 638.05 281.04 676.01 304.72 681.51 309.25 682.83 316.41 682.82 332.17 Z" id="UGA-3122" data-name="Katakwi"/>
<path d="M 708.32 167.39 700.99 179.91 691.98 191.35 689.58 197.27 688.65 203.78 684.9 219.6 672.96 215.61 666.57 216.16 653.5 214.98 646.48 219.89 644.63 235.34 633.05 229.12 629.53 227.79 628.56 203.83 628.81 189.14 610.31 180.14 608.68 175.09 603.68 171.44 604.84 166.52 604.87 153.24 598.89 153.67 594.61 151.53 586.79 150.71 586.06 140.04 591.42 139.85 596.71 140.85 600.9 142.74 605.26 142.57 609.65 139.47 613.06 135.54 612.14 131.45 613.08 129.53 614.33 127.7 621.89 133.21 629.3 136.9 633.57 135.07 637.74 135.97 639.17 139.32 638.13 143.7 657.14 144.33 674.89 150.52 692.39 163.19 699.87 167.21 708.32 167.39 Z" id="UGA-3123" data-name="Kotido"/>
<path d="M 638.05 281.04 635.27 287.83 634.08 294.91 634.97 297.35 636.62 299.28 638.05 305.68 638.27 309.06 636.78 312.22 635.89 314.72 636.15 317.48 637.16 318.99 637.46 320.52 636.51 321.94 635.73 323.44 635.64 325.86 636.74 328.08 636.09 334.69 636.92 337.74 636.78 340.64 631.95 344.39 630.17 348.13 632.63 353.22 632.83 358.97 629.43 364.26 623.92 368.18 622.38 366.44 621.14 364.76 620.71 361.6 619.92 358.58 615.69 353.73 610.64 349.64 609.36 347.9 607.92 346.39 604.76 344.8 602.09 342.54 601.52 340.02 600.56 337.51 597.63 336.31 594.49 335.64 589.65 332.89 586.03 328.9 583.26 323.64 577.61 322.4 574.12 324.99 573.29 329.74 571.6 335.71 570.52 341.99 566.65 337.61 566.52 331.72 564.57 329.86 561.83 328.47 560.6 325.72 559.92 322.71 558.95 317.88 559.7 312.1 565.54 307.23 567.82 307.71 569.45 310.08 572.41 309.21 574.47 306.77 573.88 305.41 573.5 303.73 574.09 302.54 574.56 301.29 575.27 298.05 574.39 295.19 572.12 293.31 570.55 291.03 576.43 290.94 581.6 287.3 585.83 283.16 585.32 277.31 585.48 273.5 589.85 276.18 594.84 276.98 598.89 272.85 604.05 272.61 611.44 265.17 615.1 266.73 638.05 281.04 Z" id="UGA-3124" data-name="Amuria"/>
<path d="M 731.61 165.07 731.56 165.09 731.51 165.11 728.87 166.88 726.14 167.82 722.81 166.59 719.59 166.91 714.08 168.19 708.32 167.39 699.87 167.21 692.39 163.19 674.89 150.52 657.14 144.33 638.13 143.7 639.17 139.32 637.74 135.97 633.57 135.07 629.3 136.9 621.89 133.21 614.33 127.7 610.22 119.44 604.27 112.44 601.47 104.42 597.74 96.99 588.2 83.51 583.03 67.2 582.8 66.54 583.51 66.12 594.27 55.33 608.26 41.3 624.6 24.93 636.65 12.89 648.5 1 652.73 3.04 656.02 5.63 657.85 9.02 657.65 13.52 657.83 15.51 659.12 17.12 660.75 18.61 661.97 20.25 662.43 21.95 662.47 23.67 662.05 27.07 661.48 29.11 660.84 30.5 660.78 31.98 661.93 34.31 663.67 35.93 665.81 37.36 667.5 39.04 667.87 41.4 666.31 45.15 664.45 48.52 664.24 51.05 667.64 52.28 669.94 51.83 675.74 49.76 678.58 49.77 681.81 51.46 682.19 53.46 680.61 55.43 673.62 59.04 673.9 59.85 676.19 60.71 678.02 62.93 675.11 64.79 674.14 65.92 676 66.63 677.24 66.54 679.76 65.89 682.63 65.7 685.53 64.89 687.07 64.76 687.16 65.47 690.41 69.66 692.62 75.56 694.31 76.52 694.99 75.91 695.63 74.51 697.15 73.08 701.13 71.93 703.76 72.98 708.5 78.04 711.25 79.48 713.99 80.32 716.13 81.7 717.11 84.77 716.75 96.53 715.38 102.39 712.6 106.66 711.24 107.35 709.74 107.74 708.41 108.33 707.59 109.61 707.71 111.19 709.51 114.32 710.12 115.93 709.89 117.31 708.43 120.89 707.99 122.55 708.36 124.3 709.51 125.87 710.89 127.37 711.96 128.93 713.85 134.76 715.3 152.71 716.89 156.06 719.94 158 726.83 159.97 729.9 162.01 731.61 165.07 Z" id="UGA-3125" data-name="Kaabong"/>
<path d="M 644.63 235.34 646.11 238.6 649.36 242.3 651.06 246.41 654.4 249.14 654.77 250.9 652.74 252.08 648.24 252.18 637.43 253.47 628.04 252.37 618.47 252.26 609.62 257.25 605.37 258.51 600.85 258.8 597.74 254.53 593.36 251.3 583.75 238.33 582.35 227.77 586.43 218 593.91 211 593.93 205.95 592.87 201.53 590.68 197.79 590.11 193.4 589.15 189.47 589.4 185.11 587.34 158.72 586.79 150.71 594.61 151.53 598.89 153.67 604.87 153.24 604.84 166.52 603.68 171.44 608.68 175.09 610.31 180.14 628.81 189.14 628.56 203.83 629.53 227.79 633.05 229.12 644.63 235.34 Z" id="UGA-3126" data-name="Abim"/>
<path d="M 786.7 294.73 781.21 303.4 774.9 309.01 772.54 301.02 771.39 280.24 766.48 266.21 762.18 254.75 760.16 249.37 754.55 243.75 746.13 240.95 746.13 231.82 741.21 230.42 734.2 228.32 726.48 221.3 715.95 212.18 707.53 208.67 697.01 207.26 688.65 203.78 689.58 197.27 691.98 191.35 700.99 179.91 708.32 167.39 714.08 168.19 719.59 166.91 722.81 166.59 726.14 167.82 728.87 166.88 731.51 165.11 731.56 165.09 731.61 165.07 731.62 165.09 735.87 187.2 737.33 189.75 741.97 194.91 744.16 198.4 745.49 199.78 747.49 200.31 748.39 200 750.03 198.66 750.63 198.36 750.99 198.11 751.64 196.97 752.01 196.73 752.56 197 752.88 197.5 753.12 198.01 753.41 198.27 753.68 198.67 757.82 200.65 758.59 200.84 759.59 202.08 760.18 203.37 763.16 212.59 765.38 225.29 771.54 238.11 772.92 239.45 774.93 239.6 776.11 238.52 777.07 237.3 778.4 237.1 779.87 239.1 780.7 246.37 781.55 249.16 785.54 253.25 786.88 255.75 786.49 259.06 784.33 261.66 781.38 263.33 778.74 265.37 777.45 268.98 778.4 274.73 784.06 288.36 786.7 294.73 Z" id="UGA-3127" data-name="Moroto"/>
<path d="M 774.9 309.01 777.7 325.85 769.98 326.55 769.28 339.19 769.28 358.13 767.18 372.17 761.56 381.99 753.85 386.9 745.02 392.66 738.18 388.48 735.53 388.65 732.92 388.51 731.29 387.28 729.29 386.33 725.36 385.21 715.18 390.55 707.07 390.27 694.09 391.68 691.97 390.76 689.99 389.46 687.71 389.79 685.43 390.49 686.14 380.14 684.72 379.57 682.8 379.45 682.82 332.17 688.59 332.17 697.01 330.76 702.62 328.66 704.02 323.75 708.94 320.94 717.36 315.33 739.81 313.92 744.02 307.61 744.72 255.68 762.18 254.75 766.48 266.21 771.39 280.24 772.54 301.02 774.9 309.01 Z" id="UGA-3128" data-name="Nakapiripirit"/>
<path d="M 304.09 686.66 309.75 687.69 314.06 694.02 312.78 697.83 313.92 701.63 313.35 702.74 312.35 703.7 312.13 707.44 314.14 711.17 316.69 714.09 319.74 720.83 323.16 724.96 326.24 726.48 331.63 728.41 334.32 729.56 338.95 730.71 344.33 731.1 357.41 731.1 357.41 764.52 357.41 764.53 331.42 764.53 304.65 764.53 277.88 764.53 254.24 764.53 254.22 764.52 252.71 762.92 249.93 759.94 249.33 756.27 248.28 752.54 245.25 749.53 241.91 747.32 239.96 744.2 242.54 740.88 240.46 734.34 241.01 730.65 239.7 726.5 237.03 723.04 231.1 717.53 224.18 713.38 230.45 701.96 232.93 695.21 240.42 695.82 246.66 694.57 247.87 685.8 254.15 693.32 263.72 699.98 273.55 703.76 280.37 706.22 285.78 703.72 287.03 696.23 290.22 693.18 295.77 692.9 300.76 690.41 304.09 686.66 Z" id="UGA-3361" data-name="Rakai"/>
<path d="M 357.41 731.1 344.33 731.1 338.95 730.71 334.32 729.56 331.63 728.41 326.24 726.48 323.16 724.96 319.74 720.83 316.69 714.09 314.14 711.17 312.13 707.44 312.35 703.7 313.35 702.74 313.92 701.63 312.78 697.83 314.06 694.02 309.75 687.69 304.09 686.66 305.34 681.67 302.84 676.67 303.67 673.34 309.91 670.01 314.91 667.1 314.91 660.03 318.65 656.28 343.62 656.7 349.87 653.37 355.71 651.64 356.43 653.1 357.14 653.66 358 653.7 359.24 653.63 360.35 654.02 360.71 654.96 360.86 656.1 361.28 657.08 362.48 658.7 363.75 661.01 364.68 663.48 368.97 665.28 369.35 669.12 367.04 672.2 363.58 674.13 360.5 676.05 357.41 678.36 357.41 731.1 Z" id="UGA-3362" data-name="Masaka"/>
<path d="M 87.17 678.98 98.07 681.85 108.4 687.59 114.71 689.88 114.71 699.64 112.99 708.25 103.23 709.39 91.18 710.54 85.45 708.82 83.72 704.8 82.58 700.21 79.13 696.77 74.54 696.77 69.95 697.92 64.79 696.2 58.63 691.79 59.09 689.55 59.38 685.86 58.69 682.74 54.46 676.69 59.05 675.54 64.79 672.1 70.53 669.23 75.12 670.37 80.28 676.69 87.17 678.98 Z" id="UGA-3366" data-name="Bushenyi"/>
<path d="M 106.31 579.42 101.51 598.65 97.22 629.54 93.94 628.99 86.43 628.99 67.66 643.4 58.73 643.49 42.98 641.11 32.08 640.54 20.42 638.11 22.28 627.17 24.47 621.79 25.25 619.04 25.12 616.25 23.39 609.87 23.61 607.35 24.88 603.39 31.31 594.43 32.11 592.78 33.84 593.46 34.91 594.38 35.91 594.78 37.36 593.85 37.87 592.74 42.55 568.68 60.2 567.66 75.69 564.22 87.17 567.66 91.18 574.55 98.64 573.97 102.66 576.84 106.31 579.42 Z" id="UGA-3367" data-name="Kasese"/>
<path d="M 196.22 557.38 199.74 557.63 201.5 559.64 201.25 565.42 198.99 568.43 200.75 572.2 201.5 576.47 199.99 579.23 194.72 580.24 192.96 582.5 191.7 590.79 184.92 590.79 173.11 590.79 167.59 591.04 161.19 594.06 153.77 596.82 148.75 599.33 140.86 601.27 136.45 603.28 129.65 615.15 125.6 622.09 127.82 627.28 129.54 635.61 132.29 637.43 134.88 640.74 131.31 641.76 127.91 643.21 123.87 642.02 111.86 636.62 107.72 635.82 103.52 635.48 95.96 632.23 96.52 630.84 97.22 629.54 101.51 598.65 106.31 579.42 109.9 581.97 119.92 584.67 122.44 572.5 123.92 563.74 123.53 559.95 120.47 556.05 122.65 551.48 122.54 549.23 122.03 546.99 124.18 543.37 127.85 540.66 129.62 538.82 134.93 543.06 136.69 549.34 138.95 552.85 143.59 554.96 143.62 559.89 145.36 565.05 145.76 570.64 147.49 574.46 151.26 573.96 159.3 570.44 166.33 565.92 172.11 560.14 177.13 558.13 181.15 556.62 185.42 557.88 188.94 559.13 193.16 557.58 196.22 557.38 Z" id="UGA-3368" data-name="Kamwenge"/>
<path d="M 157.89 651.17 149.06 652.33 140.65 655.36 137.9 654.27 134.69 654.93 133.17 656.1 132.65 658.04 131.49 659.95 129.28 660.39 127.7 659.04 126.67 657.11 114.3 648.89 110.46 646.34 108.27 646.08 106.74 640.41 103.52 635.48 107.72 635.82 111.86 636.62 123.87 642.02 127.91 643.21 131.31 641.76 134.88 640.74 132.29 637.43 129.54 635.61 127.82 627.28 125.6 622.09 129.65 615.15 136.45 603.28 140.86 601.27 148.75 599.33 153.77 596.82 161.19 594.06 164.63 600.37 174.39 600.37 167.74 612.98 160.62 619.88 155.45 628.49 152.58 638.24 164.99 642.26 161.35 644.21 158.69 647.04 157.89 651.17 Z" id="UGA-3369" data-name="Ibanda"/>
<path d="M 178.89 706.41 185.54 709.45 190.66 714.23 191.89 717.33 193.54 719.58 196.75 718.85 199.93 718.71 206.38 719.29 212.83 719.15 219 717.64 224.18 713.38 231.1 717.53 237.03 723.04 239.7 726.5 241.01 730.65 240.46 734.34 242.54 740.88 239.96 744.2 241.91 747.32 245.25 749.53 248.28 752.54 249.33 756.27 249.93 759.94 252.71 762.92 254.22 764.52 254.24 764.53 251.12 764.53 224.35 764.53 197.58 764.53 188.13 764.53 185.81 763.38 180.64 762.08 175.14 764.96 169.59 766.71 167.48 767.81 162.25 773.34 160.39 774.88 156.87 773.78 153.68 773.43 146.31 774.11 143.59 774.75 141.83 774.88 141 774.51 140.25 773.69 139.16 772.96 137.35 772.8 136.17 773.75 136 773.93 134.39 773.43 134.71 772.33 137.73 767.55 139.89 762.39 140.3 760.05 141.28 757.73 143.14 755.99 146.1 751.77 148.41 750.92 151.23 747.46 153.1 743.67 153.28 735.75 160.62 736.94 160.52 724.14 159.93 717.88 160.73 715.16 160.53 712.43 161.68 707.44 167.67 708.21 170.45 707.72 173.56 706.34 178.89 706.41 Z" id="UGA-3370" data-name="Isingiro"/>
<path d="M 224.57 624.45 225.54 636.6 222.64 648.76 222.81 658.34 224.2 663.43 226.8 668.26 230.89 679.91 233.64 684.65 234.85 689.98 232.93 695.21 230.45 701.96 224.18 713.38 219 717.64 212.83 719.15 206.38 719.29 199.93 718.71 196.75 718.85 193.54 719.58 191.89 717.33 190.66 714.23 185.54 709.45 178.89 706.41 180.22 701.86 181.01 697.42 185.41 690.72 169.28 678.29 165.75 674.51 166.35 669.26 164.36 666.09 160.29 665.14 155.49 659.97 157.89 651.17 158.69 647.04 161.35 644.21 164.99 642.26 152.58 638.24 155.45 628.49 160.62 619.88 167.74 612.98 174.39 600.37 164.63 600.37 161.19 594.06 167.59 591.04 173.11 590.79 184.92 590.79 191.7 590.79 203.01 590.28 213.33 588.37 215.84 594.22 218.88 599.71 219.48 605.54 219.6 614.94 218.35 618.11 216.46 620.03 215.54 622.47 219.66 623.03 224.57 624.45 Z" id="UGA-3371" data-name="Mbarara"/>
<path d="M 94.41 723.92 97.6 727.55 101.83 728.45 106.89 728.33 104.82 732.16 105.41 735.01 110.46 736.66 120.22 737.51 124.52 736.46 127.47 734.55 130.52 735.87 133.71 738.33 137.63 739.15 139.88 738.06 142.23 737.51 144.35 738.65 145.86 738.36 147.31 737.75 148.29 736.73 149.41 735.9 153.28 735.75 153.1 743.67 151.23 747.46 148.41 750.92 146.1 751.77 143.14 755.99 141.28 757.73 140.3 760.05 139.89 762.39 137.73 767.55 134.71 772.33 134.39 773.43 132.17 772.74 130.18 773.01 128.26 773.87 125.97 774.44 123.5 774.13 121.01 773.4 118.59 773.04 116.36 773.84 115.13 775.93 114.18 781.97 113.43 784.19 112.53 784.93 110.09 786.03 109.56 786.47 109.46 786.47 105.73 786.3 101.28 787.67 97.66 791.19 92.96 792.45 93.23 788.18 90.31 786.63 84.98 786.24 79.99 784.65 78.16 781.07 77.02 776.83 74.14 773.88 73.31 770.5 73.48 767.81 74.11 765.51 76.97 763.03 78.18 760.41 77.97 757.35 78.39 754.14 75.75 751.72 72.56 749.67 72.95 745.64 75.4 740.33 76.09 734.7 75.53 729.07 79.18 728.44 83.08 728.71 86.4 725.53 89.97 722.68 94.41 723.92 Z" id="UGA-3372" data-name="Ntungamo"/>
<path d="M 54.46 676.69 58.69 682.74 59.38 685.86 59.09 689.55 58.63 691.79 58.29 695.86 56.59 699.28 56.19 701.4 53.97 702.22 52.02 703.36 54.35 708.83 59.93 711.63 64.14 716.46 66.85 722.75 75.53 729.07 76.09 734.7 75.4 740.33 72.95 745.64 72.56 749.67 75.75 751.72 78.39 754.14 77.97 757.35 78.18 760.41 76.97 763.03 74.11 765.51 73.48 767.81 73.31 770.5 74.14 773.88 77.02 776.83 57.04 771.46 52.42 770.61 42.2 753.04 42.62 749.99 44.57 747.31 44.01 743.99 41.2 740.84 43.56 728.9 35.14 715.95 33.81 712.04 34.24 707.67 30.61 707.84 27.13 707.1 24.44 703.17 23.86 698.34 24.75 689.72 24.63 681.16 12.83 682.63 14.95 670.29 44.5 672.08 54.46 676.69 Z" id="UGA-3373" data-name="Rukungiri"/>
<path d="M 178.89 706.41 173.56 706.34 170.45 707.72 167.67 708.21 161.68 707.44 160.53 712.43 160.73 715.16 159.93 717.88 160.52 724.14 160.62 736.94 153.28 735.75 149.41 735.9 148.29 736.73 147.31 737.75 145.86 738.36 144.35 738.65 142.23 737.51 139.88 738.06 137.63 739.15 133.71 738.33 130.52 735.87 127.47 734.55 124.52 736.46 120.22 737.51 110.46 736.66 105.41 735.01 104.82 732.16 106.89 728.33 116.5 722.37 129.18 710.1 131.41 704.57 132.34 699.92 135.57 689.2 135.74 683.15 135.3 678.25 139.65 674.06 139.08 664.11 140.65 655.36 149.06 652.33 157.89 651.17 155.49 659.97 160.29 665.14 164.36 666.09 166.35 669.26 165.75 674.51 169.28 678.29 185.41 690.72 181.01 697.42 180.22 701.86 178.89 706.41 Z" id="UGA-3374" data-name="Mbarara"/>
<path d="M 52.42 770.61 57.04 771.46 77.02 776.83 78.16 781.07 79.99 784.65 84.98 786.24 90.31 786.63 93.23 788.18 92.96 792.45 97.66 791.19 101.28 787.67 105.73 786.3 109.46 786.47 109.56 786.47 109.06 786.88 108.64 787.76 108.31 789.86 108.03 790.83 106.46 793.47 104.55 795.92 98.04 802.1 95.78 803.44 94.7 803.76 93.54 803.85 92.38 804.05 91.23 804.73 90.18 806.72 89.29 812.39 88.54 814.61 86.95 816.09 80.98 818.42 76.67 820.73 75.9 821.14 74 823.1 72.67 826.29 71.16 826.61 61.23 832.11 58.02 833.3 54.95 833.63 52.09 832.82 49.58 830.48 48.16 827.38 47.81 821.36 47.16 818.3 43.05 812.33 41.45 811.51 41.44 811.51 40.99 810.24 33.44 793.88 37.32 790.94 32.82 787.44 27.6 781.52 27.16 779.92 29.42 777.79 31.14 775.22 31.35 773.34 32.94 772.13 33.66 767.81 41.58 768.29 44.68 771.49 47.97 773.51 49.85 770.99 52.42 770.61 Z" id="UGA-3375" data-name="Kabale"/>
<path d="M 31.14 775.22 29.42 777.79 27.16 779.92 27.6 781.52 32.82 787.44 37.32 790.94 33.44 793.88 40.99 810.24 41.44 811.51 40.14 811.32 38.87 811.69 37.52 812.54 36.19 814.11 35.32 817 34.11 817.71 33.1 817.34 29.98 815.46 28.25 815.06 24.69 815.7 22.25 816.97 19.99 818.6 16.97 820.29 14.25 821.03 11.18 821.26 5.31 820.94 6.68 812.36 6.65 809.56 6.08 807.92 4.37 804.98 4.29 803.43 5.68 799.73 5.82 798.49 4.96 795.33 3.46 793.09 2.25 790.73 2.24 787.21 4.02 778.18 4.16 775.55 3.55 772.72 1.4 767.1 1 764.53 1.42 762.78 1.45 762.74 5.6 764.56 7.13 765.55 7.82 767.23 9.12 767.97 10.92 768.11 16.98 770.5 18.66 771.48 20.82 772.34 24.34 772.28 31.14 775.22 Z" id="UGA-3376" data-name="Kisoro"/>
<path d="M 52.42 770.61 49.85 770.99 47.97 773.51 44.68 771.49 41.58 768.29 33.66 767.81 32.94 772.13 31.35 773.34 31.14 775.22 24.34 772.28 20.82 772.34 18.66 771.48 16.98 770.5 10.92 768.11 9.12 767.97 7.82 767.23 7.13 765.55 5.6 764.56 1.45 762.74 2.18 761.49 2.74 760.07 2.56 757.91 2 755.16 1.91 753.71 2.1 752.38 3.74 749.81 8.06 748.35 9.7 746.38 10.11 744.27 10.49 735.47 10.16 732.39 8.86 726.69 8.98 723.64 10.81 712.13 11.29 711.37 12.11 710.77 12.82 710.03 13.01 708.89 12.67 708.02 11.53 706.46 11.29 705.58 11.88 703.98 13.24 703.59 14.8 703.48 15.97 702.68 16.29 700.64 15.81 691.68 15.13 689.43 13.6 686.22 13.19 685.38 12.83 682.63 24.63 681.16 24.75 689.72 23.86 698.34 24.44 703.17 27.13 707.1 30.61 707.84 34.24 707.67 33.81 712.04 35.14 715.95 43.56 728.9 41.2 740.84 44.01 743.99 44.57 747.31 42.62 749.99 42.2 753.04 52.42 770.61 Z" id="UGA-3377" data-name="Kanungu"/>
<path d="M 220.29 239.43 223.35 248.81 221.23 254.33 216.77 257.09 215.92 262.4 209.77 263.25 208.55 266.26 203.12 266.23 200.72 270.25 198.69 274.95 194.48 276.99 192.02 275.87 189.3 273.43 186.88 270.56 185.4 268.17 185.01 266.03 185.03 263.81 184.7 262.03 183.25 261.19 173.01 261.09 170.91 260.45 170.48 257.95 171.81 254.9 173.66 251.92 174.78 249.57 174.9 246.95 174.34 241.54 174.52 238.82 175.12 237.33 177.98 232.87 178.32 231.73 178.43 231.12 178.76 229.27 179.71 226.72 188.98 224.67 193.96 221.42 202.2 218.61 208.26 217.74 209.69 223.62 211.61 229 211.59 235.65 220.29 239.43 Z" id="UGA-5589" data-name="Zombo"/>
<path d="M 636.62 378.4 631.43 380.33 628.47 385.41 629.74 399.38 628.89 408.69 623.39 410.8 620 415.03 621.02 425.9 616.64 426.7 613.88 424.4 612.44 421.96 608.97 422.04 587.42 423.48 589.05 419.84 591.81 416.65 593.51 415.57 595.3 415.41 597.09 414.33 603.15 411.34 610.24 385.24 611.25 381.51 612.92 377.31 615.99 374.96 620.54 375.78 624.15 374.04 630.88 374.65 636.62 378.4 Z" id="UGA-5590" data-name="Ngora"/>
<path d="M 683.16 436.41 679.9 443.52 674.79 447.88 671.71 447.31 668.88 445.74 662.02 443.96 659.13 442.35 656.16 441.28 643.42 438.66 641.12 435.75 646.24 431.96 652.17 428.58 651.74 420.11 651.74 414.19 654.7 411.65 658.94 408.69 658.09 399.38 664.44 395.57 673.32 393.88 685.43 390.49 685.15 400.21 685.41 403.7 687.32 406.14 691.05 413.31 689.45 421.1 688.12 424.95 687.35 428.99 685.62 432.88 683.16 436.41 Z" id="UGA-5591" data-name="Bukedea"/>
<path d="M 568.12 490.54 569.65 498.82 567.53 505.59 567.11 511.52 572.19 515.75 580.65 520.4 580.65 528.02 581.24 537.9 578.59 541.12 574.38 538.23 569.57 537.93 565.43 536.21 564.72 533.59 563.71 531.01 560.44 529.09 559.33 527.96 558.07 526.93 554.52 524.65 550.67 523.09 545.53 518.71 537.99 519.72 537.66 515.4 539.26 508.7 540.36 506.32 542.24 504.95 544.28 503.78 546.07 501.07 546.66 497.72 547.69 496.31 548.2 494.59 547.39 492.39 547.71 490.25 548.63 487.84 549.08 485.28 549.1 479.97 549.58 474.73 551.8 471.12 553.6 467.45 552.77 465.37 552.56 463.4 555.17 460.15 558.13 461.8 560.26 464.53 561.59 466.86 563.15 469.07 565.46 473.91 562.98 483.98 563.89 488.64 568.12 490.54 Z" id="UGA-5592" data-name="Luuka"/>
<path d="M 500.41 402.5 502.6 404.13 505.26 403.62 507.72 404.49 515.72 408.57 520.85 412.18 525.13 416.4 536.06 417.81 547.72 419.78 554.29 417.89 560.94 417.56 563.06 419.88 564.86 422.69 566.31 428 570.34 429.7 569.95 433.78 568.74 437.44 565.87 441.16 563.89 445.33 561.24 449.02 559.05 452.82 559.31 455.02 559.04 456.96 555.17 460.15 552.56 463.4 552.77 465.37 553.6 467.45 551.8 471.12 549.58 474.73 549.1 479.97 543.41 477.24 539.18 473.01 532.41 467.51 528.6 466.24 525.21 463.7 524.37 457.35 522.25 451.43 511.25 446.35 499.99 445.18 495.57 437.99 494.23 433.25 490.83 429.21 490.01 426.21 483.88 419.37 480.93 413.06 478.06 402.26 500.41 402.5 Z" id="UGA-5593" data-name="Buyende"/>
<path d="M 670.83 455 668.43 461.71 666.19 463.96 663.15 464.29 661.96 466.76 653.19 472.5 645.22 479.31 637.33 482.38 628.99 480.67 629.74 467.51 632.28 464.12 637.35 461.58 639.47 458.62 636.51 456.93 635.24 453.97 636.93 451.43 637.78 447.19 649.2 446.77 658.94 449.73 664.44 452.27 670.83 455 Z" id="UGA-5594" data-name="Budaka"/>
<path d="M 628.99 480.67 621.24 479.22 614.25 481.08 609 476.13 607.32 473.38 607.35 466.32 605.1 463.96 598.18 458.93 609.43 459.04 619.58 455.23 630.58 450.16 637.78 447.19 636.93 451.43 635.24 453.97 636.51 456.93 639.47 458.62 637.35 461.58 632.28 464.12 629.74 467.51 628.99 480.67 Z" id="UGA-5595" data-name="Kibuku"/>
<path d="M 610.24 385.24 603.15 411.34 597.09 414.33 595.3 415.41 593.51 415.57 591.81 416.65 589.05 419.84 587.42 423.48 578.44 425.11 574.97 424.39 572.09 425.61 569.72 425.05 568.26 422.19 564.86 422.69 563.06 419.88 560.94 417.56 554.29 417.89 547.72 419.78 536.06 417.81 535.93 404.07 537.03 388.11 541.66 381.7 542.04 375.92 542.89 369.51 551.44 369.51 557.43 366.95 559.56 370.37 569.39 372.93 573.67 381.91 580.08 386.18 590.34 388.75 599.74 387.89 610.24 385.24 Z" id="UGA-5596" data-name="Serere"/>
<path d="M 520.05 538.38 528.68 545.62 532.07 549.93 533.02 555.35 532.49 560.6 537 563.97 545.53 566.74 538.54 570.59 533.78 574.28 532.73 579.49 531.09 585.56 525.14 591.38 517.09 604.64 507.65 639.44 483.3 685.51 483.3 641.79 447.89 641.79 472.47 612.54 485.27 597.43 485.51 592.47 489.76 587.75 493.77 580.43 502.27 572.17 508.64 565.32 509.82 557.29 505.81 551.62 503.45 543.36 503.92 536.28 510.27 532.13 512.18 534.39 520.05 538.38 Z" id="UGA-5597" data-name="Buikwe"/>
<path d="M 562.23 573.7 567.95 586.7 567.98 764.52 567.98 764.53 545.57 764.53 518.79 764.53 492.04 764.53 483.3 764.53 483.3 764.52 483.3 685.51 507.65 639.44 517.09 604.64 525.14 591.38 531.09 585.56 532.73 579.49 533.78 574.28 538.54 570.59 545.53 566.74 548.76 567.79 562.23 573.7 Z" id="UGA-5598" data-name="Buvuma"/>
<path d="M 338.35 619.02 332.07 611.87 329.24 610.62 336.55 606.34 347.37 601.76 354.44 598.44 359.85 591.36 369.43 585.95 377.75 583.87 380.09 580.55 382.85 580.35 393.15 580.96 398.14 578.88 398.56 584.7 395.64 587.62 391.48 590.94 384.41 595.52 378.16 599.27 370.67 598.02 363.18 600.93 357.77 606.76 348.62 613.83 338.35 619.02 Z" id="UGA-5599" data-name="Butambala"/>
<path d="M 333.33 576.57 337.09 577.73 340.5 583.13 343.15 584.68 346.49 585.64 349.31 585.37 351.41 583.8 354.69 584.55 357.32 583.66 358.88 582.12 361.96 581.92 380.09 580.55 377.75 583.87 369.43 585.95 359.85 591.36 354.44 598.44 347.37 601.76 336.55 606.34 329.24 610.62 323.82 608.23 315.15 606.91 311.43 608.81 308.09 611.06 303.98 611.64 299.75 610.73 288.95 603.4 277.49 597.12 274.5 595.84 271.21 590.71 268.77 589.12 262.17 588.63 262.47 580.96 267.88 578.88 277.04 577.21 286.19 574.3 297.29 568.6 303.67 568.89 309.08 570.55 319.07 573.88 326.22 580.22 333.33 576.57 Z" id="UGA-5600" data-name="Gomba"/>
<path d="M 385.15 102.24 388.1 106.04 388.78 108.77 390.33 111.17 391.14 114.11 396.94 119.95 398.71 124.66 406.25 133.46 411.69 137.41 406.08 142.48 400.61 150 391.37 157.87 388.64 162.32 385.56 171.55 385.22 180.1 387.73 186.24 391.03 210.53 390.69 213.95 388.83 218.88 385.72 217.33 379.5 215.77 374.32 212.15 367.59 212.15 362.4 211.63 357.22 208.52 322.5 209.04 318.36 212.67 316.28 218.37 299.18 218.37 292.97 221.47 286.23 228.73 281.56 233.39 275.15 235.28 274.11 232.19 274.58 228.74 275.35 227.95 277.85 226.64 278.66 225.84 278.91 224.08 278.53 222.33 277.95 220.67 277.14 215.52 275.71 213.79 273.5 212.66 270.66 210.69 267.47 205.49 266.97 199.39 268.3 193.43 272.04 185.83 278.07 187.45 281.59 190.43 284.67 194.42 288.49 195.49 289.78 197.56 291.65 198.53 294.37 198.46 296.41 197.17 300.05 191.91 304.61 185.56 320.05 183.12 349.33 174.04 349.92 171.13 350.24 168.16 355.63 159.39 355.83 156.27 356.73 153.48 358.92 151.48 360.68 149.16 362.19 146.55 363.02 143.82 362.31 140.68 362.63 137.64 365.51 132.37 365.15 129.9 363.91 127.33 363.59 124.25 363.88 121.28 365.69 120.3 366.65 118.48 367.36 97.63 367.36 97.51 368.33 99.07 370.57 101.37 373.03 102.65 382.22 104.5 383.99 104.43 384.95 103.17 385.15 102.24 Z" id="UGA-5601" data-name="Amuru"/>
<path d="M 333.45 419.53 344.22 430.05 349.62 439.37 352.56 456.55 341.12 459.21 336.53 463.8 334.81 470.68 330.22 474.69 323.91 478.13 318.17 483.3 311.87 491.32 306.7 491.32 298.47 494.38 277.28 491.99 277.3 487.26 275.69 482.53 277.99 479.73 281.68 477.33 282.92 475.38 285.3 474.93 287.62 473.84 289.11 471.61 289.44 467.74 286.83 464.78 278.78 457.84 272.79 449 268.77 447.35 264.42 446.18 259.9 443.64 255.7 440.52 259.68 437.37 264.62 435.87 272.99 431.65 277.24 430.01 288.34 418.92 311.27 421.85 317.94 423.74 324.47 424.43 327.71 420.9 330.52 420 333.45 419.53 Z" id="UGA-5602" data-name="Kyankwanzi"/>
<path d="M 544.19 69.14 542.47 75.45 541.18 79.72 542.04 84.42 545.46 89.13 547.17 97.25 546.74 116.48 538.62 116.05 538.62 108.36 532.21 101.09 528.36 101.09 525.37 102.8 523.66 108.79 521.52 110.92 496.73 110.92 495.02 114.34 495.02 117.33 491.6 119.9 486.05 121.18 471.94 122.04 470.23 125.88 470.23 132.72 473.22 138.71 473.22 144.69 473.89 153.02 466.98 154.44 458.86 159.34 434.75 159.47 433.92 156.24 415.89 140.46 411.69 137.41 406.25 133.46 398.71 124.66 396.94 119.95 391.14 114.11 390.33 111.17 388.78 108.77 388.1 106.04 385.15 102.24 385.6 100.18 385.63 97.91 385 92.68 385.16 90.79 386.89 88.8 413.79 72.44 420.19 70.94 447.05 68.75 470.03 66.89 482.3 63.2 493.78 57.37 502.65 50.78 505.24 49.86 508.16 51.08 526.62 66.15 529.69 67.76 534.21 68.64 544.19 69.14 Z" id="UGA-5603" data-name="Lamwo"/>
<path d="M 478.27 309.93 480.51 312.13 483.08 313.66 486.28 313.48 489.27 314.61 488.05 321.32 485.8 327.7 486.37 332.86 492.88 333.84 497.85 336.1 497.36 344.95 509.25 352.23 504.08 367.14 489.3 353.58 472.5 354.55 461.1 364.61 451.46 373.53 446.39 376.43 436.11 376.31 410.36 375.95 403.71 376.91 393.82 374.04 390.43 372.85 385.4 372.68 380.05 374.19 374.67 377.03 374.28 374.42 375.77 369.82 374.67 367.14 376.32 365.14 380.82 360.92 381.74 359.56 383.24 357.96 390.01 356.53 391.82 354.98 393.47 355.68 394.66 355.27 395.81 354.49 397.31 354.07 398.98 353.39 399.56 351.77 399.75 349.9 400.3 348.44 402.79 347.49 406.58 346.5 409.37 344.85 408.79 341.91 409.53 340.96 409.8 339.7 409.79 336.46 410.08 335.19 410.83 334.17 412.87 332.02 410.97 331.37 409.38 331.02 408.29 330.29 407.88 328.52 408.31 326.6 410.3 322.72 410.88 320.95 410.8 318.19 410.14 314.91 421.24 319.54 428.25 318.13 437.23 304.43 439.81 299.17 447.15 299.42 457.84 299.42 460.4 302.41 463.39 304.97 468.95 305.4 471.94 307.96 478.27 309.93 Z" id="UGA-5604" data-name="Apac"/>
<path d="M 478.27 309.93 471.94 307.96 468.95 305.4 463.39 304.97 460.4 302.41 457.84 299.42 447.15 299.42 439.81 299.17 441.57 295.58 444.18 292.26 447.6 289.6 444.48 272.37 450.27 270.76 460.38 257.78 466.54 258.06 472.89 260.14 478.01 256.11 475.79 264.37 472.8 269.92 470.66 275.48 474.08 280.18 477.77 288.01 480.45 292.34 479.51 295.06 478.27 309.93 Z" id="UGA-5605" data-name="Kole"/>
<path d="M 585.48 273.5 585.32 277.31 585.83 283.16 581.6 287.3 576.43 290.94 570.55 291.03 572.12 293.31 574.39 295.19 575.27 298.05 574.56 301.29 574.09 302.54 573.5 303.73 573.88 305.41 574.47 306.77 572.41 309.21 569.45 310.08 567.82 307.71 565.54 307.23 559.7 312.1 558.95 317.88 559.92 322.71 554.34 319.87 548.22 319.76 546.29 316.46 543.97 313.59 536.75 312.2 530.99 309.23 528.36 310.31 525.55 309.74 522.91 314 518.19 315.84 517.25 293 514.26 287.87 508.7 284.88 503.14 280.61 501.01 275.48 495.88 273.77 489.47 273.77 490.32 270.35 496.73 267.79 500.58 263.51 500.58 259.24 508.27 260.95 515.11 260.95 518.53 258.38 524.09 258.38 530.5 260.95 532.64 266.5 535.63 269.5 542.47 271.21 553.58 271.63 560.85 274.2 562.98 275.91 577.09 275.91 580.93 273.34 585.48 273.5 Z" id="UGA-5606" data-name="Alebtong"/>
<path d="M 583.75 238.33 593.36 251.3 597.74 254.53 600.85 258.8 601.67 266.12 598.89 272.85 594.84 276.98 589.85 276.18 585.48 273.5 580.93 273.34 577.09 275.91 562.98 275.91 560.85 274.2 553.58 271.63 542.47 271.21 535.63 269.5 532.64 266.5 530.5 260.95 524.09 258.38 518.53 258.38 515.11 260.95 508.27 260.95 500.58 259.24 505.28 256.25 507.42 251.54 507.78 247.57 512.04 242.4 517.91 238.77 524.45 236.08 527.34 235.45 529.45 237.04 531.94 238.34 535.3 237.18 537.66 237.36 540 238.07 546.16 237.52 552.15 239.48 554.91 237.97 557.33 235.48 560.49 235.88 563.86 237.14 566.52 235.97 568.82 233.52 575.39 238.72 583.75 238.33 Z" id="UGA-5607" data-name="Otuke"/>
<path d="M 586.06 140.04 586.79 150.71 587.34 158.72 589.4 185.11 589.15 189.47 590.11 193.4 590.68 197.79 592.87 201.53 593.93 205.95 593.91 211 586.43 218 582.35 227.77 583.75 238.33 575.39 238.72 568.82 233.52 566.52 235.97 563.86 237.14 560.49 235.88 557.33 235.48 554.91 237.97 552.15 239.48 546.16 237.52 540 238.07 537.66 237.36 535.3 237.18 531.94 238.34 529.45 237.04 527.34 235.45 524.45 236.08 517.25 226.75 513.83 221.63 517.68 217.35 536.48 216.5 541.18 211.37 542.04 201.54 539.05 196.41 529.64 195.98 521.95 194.7 521.1 189.57 525.37 186.15 528.36 182.73 528.36 176.75 533.49 163.07 536.97 151.84 545.54 153.28 551.36 151.26 558.28 150.67 557.03 140.97 566.56 141.31 562.56 135.54 574.44 136.77 577.04 138.28 579.45 140.25 582.69 140.52 586.06 140.04 Z" id="UGA-5608" data-name="Agago"/>
<path d="M 397.46 287.98 399.88 289.12 402.14 291.86 404.8 296.9 406.3 307.13 407.34 309.47 408.96 311.78 410.14 314.91 410.8 318.19 410.88 320.95 410.3 322.72 408.31 326.6 407.88 328.52 408.29 330.29 409.38 331.02 410.97 331.37 412.87 332.02 410.83 334.17 410.08 335.19 409.79 336.46 409.8 339.7 409.53 340.96 408.79 341.91 409.37 344.85 406.58 346.5 402.79 347.49 400.3 348.44 399.75 349.9 399.56 351.77 398.98 353.39 397.31 354.07 395.81 354.49 394.66 355.27 393.47 355.68 391.82 354.98 390.01 356.53 383.24 357.96 381.74 359.56 380.82 360.92 376.32 365.14 374.67 367.14 375.77 369.82 374.28 374.42 369.31 371.46 362.99 372.17 362.99 377.78 358.08 378.48 355.27 374.27 349.66 372.87 345.45 370.76 345.45 365.15 343.35 359.53 339.84 353.22 339.84 346.2 341.24 337.08 341.24 330.76 338.43 326.55 335.63 322.34 331.42 320.94 325.8 320.24 323 316.73 322.29 299.89 323.67 281.92 328.4 276.66 330.65 274.94 333.37 274.01 339.31 272.99 341.73 271.85 343.21 272.62 344.6 272.74 346.07 272.69 347.71 272.94 349.28 273.79 352.84 276.31 355.93 277.68 361.78 282.92 363.28 283.4 367.76 283.92 369.28 284.56 372.84 286.51 377.48 287.89 382.35 291.68 385.73 291.82 387.38 291 389.72 288.69 390.73 287.91 392.15 287.63 397.31 287.91 397.46 287.98 Z" id="UGA-5609" data-name="Kiryandongo"/>
<path d="M 147.16 460.89 146.24 464.54 144.09 473.8 135.94 479.87 130.2 487.33 119.3 498.23 112.42 492.49 108.97 503.39 102.09 507.98 91.93 513.46 94.03 508.34 95.42 506.6 96.61 505.35 97.63 498.32 100.18 494.98 103.87 493.24 97.17 487.09 93.84 478.38 93.89 478.3 94.34 477.77 95.02 475.41 98.31 471.95 99.33 469.24 98.54 463.3 98.5 460.47 100.35 458.72 100.87 457.45 101.25 455.94 101.55 452.81 101.94 451.86 106.4 447.29 107.66 446.65 108.91 446.26 110.25 446.5 111.84 447.78 114.36 448.96 116.15 447.05 117.93 444.11 120.38 442.2 122.08 442.05 125.39 442.41 127.36 442.2 130.12 441.48 132.16 440.63 134.02 439.33 136.95 436.85 147.97 422.67 147.43 448.15 147.16 460.89 Z" id="UGA-5610" data-name="Ntoroko"/>
<path d="M 244.57 526.95 248.31 530.54 250.29 535.1 249.81 537.37 248.81 539.55 248.92 541.34 246.86 542.45 236.6 544.21 233.37 547.03 232.07 551.85 229.26 556.86 229.41 562.49 230.8 565.02 231.71 567.53 230.13 569.38 228.11 571.14 225 575.65 221.26 579.76 217.09 583.1 214.51 587.73 213.33 588.37 203.01 590.28 191.7 590.79 192.96 582.5 194.72 580.24 199.99 579.23 201.5 576.47 200.75 572.2 198.99 568.43 201.25 565.42 201.5 559.64 199.74 557.63 196.22 557.38 196.47 550.34 201.5 550.09 201.5 536.78 203.01 534.77 206.27 534.27 206.27 525.47 203.76 524.22 198.99 521.71 197.23 518.69 200.24 517.94 204.05 515.92 212.05 517.43 218.58 518.44 225.61 520.2 232.14 523.32 236.12 523.84 239.43 525.61 242.15 525.39 244.57 526.95 Z" id="UGA-5611" data-name="Kyegegwa"/>
<path d="M 745.02 392.66 751.45 396.59 760.36 410.42 758.17 417.79 753.5 423.77 750.66 425.17 747.58 425.65 743.69 427.17 740.11 429.48 735.25 435.4 732.03 442.44 731.72 431.54 735.11 423.07 734.68 417.15 729.61 413.76 720.3 411.23 715.18 406.59 718.05 400.52 713.46 394.5 707.07 390.27 715.18 390.55 725.36 385.21 729.29 386.33 731.29 387.28 732.92 388.51 735.53 388.65 738.18 388.48 745.02 392.66 Z" id="UGA-5612" data-name="Kween"/>
<path d="M 707.07 390.27 713.46 394.5 718.05 400.52 715.18 406.59 708.27 409.71 703.74 412.64 700.01 416.49 697.74 420.38 697.03 424.77 699.87 427.88 714.88 433.91 724.73 439.32 728.52 443.02 728.49 448.02 724.1 447.19 718.18 445.93 710.99 445.08 707.18 441.27 696.18 438.31 683.16 436.41 685.62 432.88 687.35 428.99 688.12 424.95 689.45 421.1 691.05 413.31 687.32 406.14 685.41 403.7 685.15 400.21 685.43 390.49 687.71 389.79 689.99 389.46 691.97 390.76 694.09 391.68 707.07 390.27 Z" id="UGA-5613" data-name="Bulambuli"/>
<path d="M 646.04 588.9 644.79 590.56 636.29 601.89 635.83 604.78 640.38 619.85 644.9 634.87 645.05 640.52 642.36 663.73 638.88 693.87 636.47 714.85 637.01 734.78 637.84 764.53 625.86 764.53 599.11 764.53 598.01 764.53 598.01 764.52 598.01 633.08 613.48 627.89 613.93 623.89 607.05 618.16 601.31 607.25 602.22 581.77 606.55 577.05 606.55 574.12 606.55 573.17 605.75 570.92 612.21 567.37 617.38 563.64 622.25 561.64 626.84 561.92 628.28 555.61 631.15 551.59 636.13 548.66 639.41 555.19 639.84 558.9 638.11 561.56 635.67 563.96 633.87 567.62 634.52 572 637.89 578.76 642.48 585.07 644.73 587.85 645.99 588.86 646.04 588.9 Z" id="UGA-5614" data-name="Namayingo"/>
<path d="M 762.18 254.75 744.72 255.68 744.02 307.61 739.81 313.92 717.36 315.33 708.94 320.94 704.02 323.75 702.62 328.66 697.01 330.76 688.59 332.17 682.82 332.17 682.83 316.41 681.51 309.25 676.01 304.72 638.05 281.04 615.1 266.73 611.44 265.17 604.05 272.61 598.89 272.85 601.67 266.12 600.85 258.8 605.37 258.51 609.62 257.25 618.47 252.26 628.04 252.37 637.43 253.47 648.24 252.18 652.74 252.08 654.77 250.9 654.4 249.14 651.06 246.41 649.36 242.3 646.11 238.6 644.63 235.34 646.48 219.89 653.5 214.98 666.57 216.16 672.96 215.61 684.9 219.6 688.65 203.78 697.01 207.26 707.53 208.67 715.95 212.18 726.48 221.3 734.2 228.32 741.21 230.42 746.13 231.82 746.13 240.95 754.55 243.75 760.16 249.37 762.18 254.75 Z" id="UGA-5615" data-name="Napak"/>
<path d="M 766 417.38 765.92 417.29 760.36 410.42 751.45 396.59 745.02 392.66 753.85 386.9 761.56 381.99 767.18 372.17 769.28 358.13 769.28 339.19 769.98 326.55 777.7 325.85 774.9 309.01 781.21 303.4 786.7 294.73 793.3 310.63 793.32 313.46 791.94 319.98 791.72 322.83 791.9 325.85 792.5 328.78 793.55 331.34 794.83 332.86 798.26 336.06 799 337.69 798.46 339.26 795.72 342.72 795.09 344.5 794.94 372.91 794.06 376.09 789.42 385.91 788.36 387.57 786.87 388.97 785.42 389.64 782.35 390.26 780.88 391 777.51 396.02 774.43 407.82 765.74 414.93 766 417.38 Z" id="UGA-5616" data-name="Amudat"/>
<path d="M 302.01 656.28 318.65 656.28 314.91 660.03 314.91 667.1 309.91 670.01 303.67 673.34 302.84 676.67 305.34 681.67 304.09 686.66 300.76 690.41 295.77 692.9 290.22 693.18 287.03 696.23 285.78 703.72 280.37 706.22 273.55 703.76 263.72 699.98 254.15 693.32 247.87 685.8 245.83 679.59 247.49 672.93 249.99 666.27 251.37 658.82 252.33 657.18 253.9 656.09 262.06 660.86 274.15 662.88 277.34 663.27 280.56 663.99 288.76 663.81 298.78 662.27 301.59 661.27 302.01 656.28 Z" id="UGA-5617" data-name="Lwengo"/>
<path d="M 253.9 656.09 252.33 657.18 251.37 658.82 249.99 666.27 247.49 672.93 245.83 679.59 247.87 685.8 246.66 694.57 240.42 695.82 232.93 695.21 234.85 689.98 233.64 684.65 230.89 679.91 226.8 668.26 224.2 663.43 222.81 658.34 222.64 648.76 225.54 636.6 224.57 624.45 227.78 623.31 229.79 621.96 233.22 622.62 241.07 625.2 241.54 627.76 249.28 631.47 251.17 626.41 255.29 629.06 258.41 632.63 257.79 636.68 258.5 638.79 258.69 640.99 258.14 644.95 256.62 648.45 255.52 652.49 253.9 656.09 Z" id="UGA-5618" data-name="Lyantonde"/>
<path d="M 308.09 611.06 311.58 616.33 313.66 621.32 316.99 629.23 319.49 635.47 320.73 642.13 323.65 647.96 322.82 651.29 318.65 656.28 302.01 656.28 299.09 642.96 295.77 625.9 293.69 615.27 299.75 610.73 303.98 611.64 308.09 611.06 Z" id="UGA-5619" data-name="Bukomansimbi"/>
<path d="M 329.24 610.62 332.07 611.87 338.35 619.02 341.88 623.05 350.02 636.48 347.71 637.57 349.84 638.32 350.7 638.48 349.99 640.65 348.71 646.55 353.79 644.79 355.25 644.65 356.58 645.65 356.52 647.91 355.71 651.64 349.87 653.37 343.62 656.7 318.65 656.28 322.82 651.29 323.65 647.96 320.73 642.13 319.49 635.47 316.99 629.23 313.66 621.32 311.58 616.33 308.09 611.06 311.43 608.81 315.15 606.91 323.82 608.23 329.24 610.62 Z" id="UGA-5620" data-name="Kalungu"/>
<path d="M 97.22 629.54 96.52 630.84 95.96 632.23 103.52 635.48 106.74 640.41 108.27 646.08 110.46 646.34 114.3 648.89 108.4 653.73 98.64 656.03 91.76 660.05 88.31 662.91 87.17 678.98 80.28 676.69 75.12 670.37 70.53 669.23 64.79 672.1 59.05 675.54 54.46 676.69 44.5 672.08 14.95 670.29 15.99 664.22 16.43 661.66 18.85 647.32 19.74 642.09 20.42 638.11 32.08 640.54 42.98 641.11 58.73 643.49 67.66 643.4 86.43 628.99 93.94 628.99 97.22 629.54 Z" id="UGA-5621" data-name="Rubirizi"/>
<path d="M 91.18 710.54 95.77 718.58 94.41 723.92 89.97 722.68 86.4 725.53 83.08 728.71 79.18 728.44 75.53 729.07 66.85 722.75 64.14 716.46 59.93 711.63 54.35 708.83 52.02 703.36 53.97 702.22 56.19 701.4 56.59 699.28 58.29 695.86 58.63 691.79 64.79 696.2 69.95 697.92 74.54 696.77 79.13 696.77 82.58 700.21 83.72 704.8 85.45 708.82 91.18 710.54 Z" id="UGA-5622" data-name="Mitooma"/>
<path d="M 106.89 728.33 101.83 728.45 97.6 727.55 94.41 723.92 95.77 718.58 91.18 710.54 103.23 709.39 112.99 708.25 114.71 699.64 114.71 689.88 116.43 684.72 135.74 683.15 135.57 689.2 132.34 699.92 131.41 704.57 129.18 710.1 116.5 722.37 106.89 728.33 Z" id="UGA-5623" data-name="Sheema"/>
<path d="M 140.65 655.36 139.08 664.11 139.65 674.06 135.3 678.25 135.74 683.15 116.43 684.72 114.71 689.88 108.4 687.59 98.07 681.85 87.17 678.98 88.31 662.91 91.76 660.05 98.64 656.03 108.4 653.73 114.3 648.89 126.67 657.11 127.7 659.04 129.28 660.39 131.49 659.95 132.65 658.04 133.17 656.1 134.69 654.93 137.9 654.27 140.65 655.36 Z" id="UGA-5624" data-name="Buhweju"/>
<path d="M 388.83 218.88 386.93 223.53 384.19 227.29 383.17 231.39 385.22 235.84 389.32 238.23 398.55 238.88 397.91 240.69 398.2 243.61 398.89 246.49 401.16 250.31 405 252.79 409.7 254.23 412.42 256.87 406.37 257.57 400.33 256.93 394.81 258.21 394.03 264.19 394.72 276.29 397.46 287.98 397.31 287.91 392.15 287.63 390.73 287.91 389.72 288.69 387.38 291 385.73 291.82 382.35 291.68 377.48 287.89 372.84 286.51 369.28 284.56 367.76 283.92 363.28 283.4 361.78 282.92 355.93 277.68 352.84 276.31 349.28 273.79 347.71 272.94 346.07 272.69 344.6 272.74 343.21 272.62 341.73 271.85 339.31 272.99 333.37 274.01 330.65 274.94 328.4 276.66 323.67 281.92 309.89 286.55 307.15 286.91 305.98 286.6 304.39 285.24 303.06 284.92 293.04 284.92 290.88 285.55 285.88 288.37 278.81 290.2 271.54 295.56 267.58 296.9 266.7 297.35 263.77 299.28 261.76 291.04 262.88 287.11 268.26 281.34 275.81 277.77 279.25 275.71 281.5 273.56 282.1 269.81 282.65 265.86 282.68 263.75 283.4 260.46 284.85 257.91 287.04 256.88 288.64 256.47 289.73 255.4 290.35 253.94 290.55 252.29 289.94 251.08 288.52 251.16 286.89 251.68 285.64 251.8 283.08 249.63 280.86 243.36 279.11 240.32 277.04 237.99 275.15 235.28 281.56 233.39 286.23 228.73 292.97 221.47 299.18 218.37 316.28 218.37 318.36 212.67 322.5 209.04 357.22 208.52 362.4 211.63 367.59 212.15 374.32 212.15 379.5 215.77 385.72 217.33 388.83 218.88 Z" id="UGA-5625" data-name="Nwoya"/>
<path d="M 726.04 456.75 723.05 459.68 721.62 462.3 720.39 465.28 719.64 468.39 719.59 471.74 716.3 470.6 702.89 470.6 702.6 473.73 700.03 473.73 700.03 471.74 690.38 471.86 692.79 468.86 694.63 465.44 698.13 460.83 704.06 459.1 708.68 456.31 720.68 457.41 726.04 456.75 Z" id="UGA-5626" data-name="Bududa"/>
</g>
</svg>