<?xml version="1.0"?>
<svg xmlns="http://www.w3.org/2000/svg" version="1.2" baseProfile="tiny" width="800" height="924" viewBox="0 0 800 924" stroke-linecap="round" stroke-linejoin="round">
<g id="ne_10m_admin_1_states_provinces">
<path d="M 229.21 148.86 229.36 148.86 231.94 148.98 232.24 160.05 231.75 160.6 231.55 161.33 231.5 162.31 231.66 163.21 231.7 163.31 232.01 165.15 232.31 165.69 232.7 165.95 233.62 166.02 234.12 165.99 234.6 165.9 235.65 165.91 236.15 166.02 236.83 166.08 237.4 166.39 237.86 166.78 238.33 166.94 239.52 167.05 240.24 167.32 240.63 167.68 240.93 168.02 241.09 168.26 241.33 168.17 241.93 168.11 244.43 169.68 244.59 170.2 244.25 171.56 244.24 172.3 244.4 173.6 244.27 174.39 243.71 175.14 243.48 175.84 243.43 176.33 244.71 180.11 245.78 181.56 246.02 181.81 246.01 181.84 245.97 181.91 245.83 182.11 245.34 182.37 243.69 182.95 243.21 183.55 242.93 184.52 242.84 185.7 242.87 186.45 243.02 187.42 243.48 188.52 243.89 189.03 244.5 189.46 246.3 189.68 247.82 190.86 251.15 194.22 251.88 194.65 252.66 194.82 254.45 194.92 255.47 195.17 256.2 195.52 258.32 197.07 258.75 197.21 259.01 197.17 259.93 197.27 260.72 197.87 260.99 198.29 261.15 198.65 261.2 199.08 264.47 199.44 265.57 199.76 267.1 200.62 268.62 201.25 270.23 201.74 271.14 201.63 271.96 200.86 272.35 200.32 272.48 200.21 273 199.97 273.79 199.95 275.08 200.09 275.82 200.04 276.35 199.77 276.56 199.41 276.44 199 275.84 198.6 275.73 198.16 275.89 197.65 276.41 197.22 277.06 197.04 278.23 197.25 279.53 197.31 279.7 196.99 279.48 196.12 279.39 195.57 279.46 194.68 279.78 194.15 279.92 193.84 280.04 193.41 280.88 194.3 281.83 195.64 281.73 199.44 281.61 200.13 281.58 200.71 281.77 201.38 281.99 203.54 282.99 205.23 282.99 207.5 284.01 209.54 295.51 207.21 295.7 207.85 296.06 208.58 296.31 211.14 296.13 212 295.81 212.59 294.64 213.65 294.24 214.33 293.84 215.17 294.07 215.93 294.49 216.34 295.41 216.53 295.97 216.89 296.97 218.08 297.05 218.84 296.84 219.23 296.63 219.78 296.65 220.32 299.67 222.62 300.64 221.71 300.98 221.17 301.08 220.87 301.28 220.42 301.58 220.1 303.07 218.93 303.33 218.18 303.41 217.75 303.43 217.5 303.35 216.56 303.3 216.32 303.43 215.37 304.06 214.68 304.42 213.94 304.65 213.73 304.95 213.61 305.35 213.5 305.6 213.3 305.8 213 306.04 212.48 306.1 212.15 306.09 211.55 306.14 211.13 306.39 210.29 306.45 209.86 306.35 208.94 306.27 208.76 306.14 208.62 305.76 208.44 305.59 208.34 305.48 208.18 305.28 207.46 305.22 207.06 305.29 206.75 305.66 206.08 305.71 205.81 305.66 205.6 305.57 205.34 305.5 205.01 305.51 204.36 305.59 203.96 305.78 203.58 305.98 203.45 306.23 203.38 306.77 203.38 307.77 203.54 307.96 203.55 308.48 204.09 308.81 205.18 309.21 205.96 309.34 206.59 309.67 207.08 310.62 207.32 316.45 207.26 317.17 207.32 317.6 207.44 317.99 207.6 318.48 208.08 311.63 215.44 310.98 215.55 314.98 222.51 315.27 222.6 315.59 222.57 316.11 222.29 316.94 221.61 317.25 221.55 317.68 221.52 317.99 221.46 317.98 222 317.97 222.63 317.86 223.19 316.79 225.91 316.38 226.65 315.65 227.68 314.65 228.55 313.77 229.05 313.6 229.54 313.74 229.97 314.03 230.4 314.37 230.7 314.42 231.14 314.29 231.85 313.47 234.51 313.07 235.31 312.43 236.21 311.74 238.2 311.59 240.54 311.86 241.58 312.31 242.2 312.74 242.4 312.93 242.63 312.82 243.04 308.65 251.03 304.69 258.6 295.86 274.95 293.32 279.63 293.03 280.11 293.29 280.53 293.57 281.89 293.92 282.49 295.56 284.39 296.27 284.93 296.78 285.16 297.99 285.18 298.11 285.33 298.32 286.03 298.5 286.19 299.32 286.14 299.74 286.17 300.03 286.32 301.73 288.16 302.82 288.75 304.36 288.97 304.78 289.26 304.98 289.92 305.1 290.69 305.26 291.28 305.58 291.68 306.05 291.97 306.62 292.17 307.29 292.29 307.84 292.39 308.34 292.45 309.49 292.69 310.34 293.94 314.03 300.6 314.31 300.81 314.54 300.94 314.73 301.01 315.06 301.08 315.46 301.09 316.08 302.03 316.19 302.29 316.28 302.44 316.68 302.7 316.82 302.9 316.97 303 318.57 303.63 318.73 303.85 318.8 304.68 318.92 305.09 319.1 305.38 322.36 307.96 324.35 310.04 325.57 310.85 327.06 311.57 327.64 312.08 327.87 312.77 328.26 313.28 329.16 313.41 330.91 313.36 332.21 314.04 333.5 315.1 334.83 315.88 335.41 321.17 336.08 321.88 336.85 322.88 336.62 323.71 335.73 324.67 335.6 325.4 335.99 326.34 336.29 327.8 336.03 328.7 335.01 330.08 335.2 331.33 334.77 332.15 334.21 332.87 334.02 333.76 333.18 334.88 331.85 336.2 331.56 338.05 330.48 338.68 325.47 337.71 319.84 340.04 316.87 340.58 316.3 340.77 314.23 342.11 312.73 342.69 311.84 343.6 310.4 343.93 308.78 344.67 306.2 345 301.11 345.14 301.08 345.93 300.57 347.78 299.84 348.69 299.4 350.75 298.92 356.38 292.8 356.92 289.35 358.03 287.12 358.02 286.11 358.36 285.84 359.54 282.89 358.89 281.24 356.93 280.2 356.81 279.02 357.2 277.93 358.53 276.68 359.26 275.31 359.91 273.56 358.73 273.67 357.93 273.29 357.23 272.38 356.54 269.21 354.99 266.6 354.7 265.28 354.82 263.73 355.38 262.76 355.55 258.16 355.51 256.52 356.97 254.14 358.09 251.57 361.16 250.74 362.5 249.98 363.25 245.87 366.47 244.69 364.83 244.64 364.47 244.27 363.12 242.89 362.54 241.17 362.01 238.47 361.87 236.82 361.28 234.24 361.17 232.03 360.02 228.65 359.05 227.03 356.96 225.3 355.38 223.89 354.46 216.99 351.39 215.93 352.67 211.54 361.93 210.06 362.15 209.74 362.91 209.47 363.37 209.42 364 209.3 364.61 209.35 365.75 209.03 367.25 209.02 367.41 209.08 367.65 209.32 368 209.93 369.47 209.15 370.88 208.27 371.04 206.11 373.23 205.12 374.6 202.97 375.89 200.71 376.35 198.32 375.95 197.06 375.52 195.63 375.22 194.17 375.6 192.62 375.32 191.44 375.51 189.61 376.3 188.54 378.06 186.45 379.14 184.78 380.27 183.24 380.51 180.4 381.31 179.19 382.73 178.53 383.34 177.9 383.78 176.21 384.37 175.48 386.37 173.45 389.86 170.61 391 168.91 391.37 166.79 391.62 164.07 392.45 162.52 393.91 162.09 395.36 161.82 397.39 161.07 399.3 158.14 401.4 154.53 401.51 153.13 400.91 152.22 400.81 150.09 401.7 147.6 402.1 146 400.78 145.16 400.47 144.41 399.31 143.41 398.5 142.34 397.25 141.49 396.73 140.65 396.32 139.74 395.69 138.87 394.69 138.34 392.77 136.55 389.47 135.5 386.7 134.89 384.34 135.03 382.61 135.94 382.03 137.12 380.97 139.87 377.86 139.86 376.35 139.33 375.57 138.87 374.68 138.22 374.24 137.14 374.37 134.84 376.43 133.78 376.91 132.59 378.27 129.18 380.6 127.13 381.09 124.6 381.17 123.71 381.76 121.98 382.44 120.99 383.58 119.84 384.03 119.08 384.14 118.24 383.76 117.5 384.31 117.04 385.58 116.32 387.06 116.11 388.22 116.62 389.31 116.73 389.47 116.87 389.6 117 389.77 116.81 390.12 114.67 390.99 112.42 388.99 112.96 385.52 112.96 384.61 111.46 382.26 111.16 381.67 110.93 380.77 110.64 378.84 111.4 377.68 112.99 376.28 113.15 375.94 112.82 374.01 112.48 373.14 112.47 372.87 112.6 372.33 112.58 372.06 112.49 371.69 112.48 371.36 112.61 370.56 112.53 370.34 112.34 370.24 111.86 370.28 111.62 370.26 111.4 370.19 111.22 370.05 111.04 369.85 110.69 369.33 110.54 369.16 110.38 369.03 110.21 368.92 110.03 368.82 109.83 368.77 109.63 368.77 109.42 368.82 109.22 368.9 109.04 369 108.85 369.07 108.65 369.09 108.44 369.03 108.1 368.67 107.87 368.59 107.6 368.58 107.25 368.61 106.97 368.47 106.71 368.16 106.1 366.96 105.72 366.54 105.28 366.29 104.24 365.87 104.09 365.55 104.11 365.08 104.7 363.2 104.5 363.01 104.02 363.22 102.69 364.13 102.13 364.37 101.74 364.45 101.58 364.33 101.37 364.24 101.16 364.17 100.93 364.16 100.72 364.22 100.37 364.41 100.18 364.49 99.95 364.49 99.76 364.43 99.59 364.32 99.28 364.08 98.92 363.84 98.4 363.61 97.86 363.48 95.93 363.38 96.54 360.93 97.32 359.67 97.53 357.99 96.88 354.8 97.09 353.85 97.15 352.42 97.34 351.65 97.12 350.77 96.67 350.22 96.45 349.32 95.49 348.59 95.19 347.72 95.19 346.19 94.48 342.7 94.74 341.55 94.75 340.99 94.37 340.47 93.38 339.44 92.54 337.55 91.35 330.59 92.21 328.09 91.4 325.88 92.57 324.45 92.6 319.99 89.03 318.92 87.37 317.46 86.4 316.02 85.05 314.54 83.42 313.45 81.18 312.36 78.58 310.6 76.58 310.78 75.53 311.57 74.99 312.66 73 311.68 72.36 312.85 71.21 314.56 70.24 317.41 68.7 319.93 66.94 322.18 65.2 323.04 63.59 323.62 62.21 323.09 61.28 322.63 60.53 322.17 59.93 321.94 59.36 321.84 58.66 321.89 57.88 322.46 56.83 323.42 55.95 326.01 53.74 327.8 53.23 330.47 51.4 332.57 51.11 336.53 49.14 336.02 49.13 336.01 48.5 335.13 48.32 335.01 47.94 334.1 47.8 333.86 47.32 333.23 46.53 331.56 46.15 330.94 43.57 327.79 41.51 324.23 41.31 323.7 41 322.34 40.55 321.04 38.37 318.45 37.38 316.84 37.51 315.44 36.6 314.53 34.52 311.21 34.19 310.35 33.51 309.62 31.13 306.03 30.96 305.66 30.85 304.7 30.53 303.52 30.38 303.21 30.29 302.22 28.34 299.26 27.84 298.03 27.7 296.58 26.84 293.61 24.51 288.86 24.27 287.6 24.19 287.41 24.02 287.22 23.85 286.96 23.76 286.58 23.74 286.18 22.76 283.13 22.98 283.13 22.8 282.65 22.81 281.65 22.76 281.13 21.84 278.99 21.86 278.59 21.36 278.24 21.11 277.44 20.96 276.04 19.86 273.39 19.58 272.97 18.21 269.3 18.06 269.06 17.34 268.37 17.18 268.01 17.07 267.84 16.4 267.12 15.61 264.88 15.4 264.55 15.01 264.19 14.85 263.87 14.89 263.02 14.75 262.67 14.4 262.11 14.1 261.25 13.96 260.38 14.14 259.78 13.57 258.93 11.2 257.09 10.86 256.63 10.29 255.2 10.01 254.69 8.34 252.64 5.84 250.74 5.44 249.94 5.06 248.62 4.86 247.31 4.97 246.54 4.82 246.29 4.5 245.65 4.44 245.37 4.3 245.18 3.99 245.11 3.64 245.09 3.41 245.02 2.62 243.45 2.01 243.02 1.07 242.13 1 241.93 1.38 241.69 1.62 241.14 1.7 240.55 1.63 240.18 2.31 239.9 3.28 239.32 4.31 238.85 5.73 238.45 8.54 235.98 8.92 235.85 9.25 236.03 9.42 236.46 9.52 236.93 9.68 237.27 10.29 237.33 11.03 236.77 11.7 235.98 12.11 235.35 12.21 234.72 12.26 233.87 12.45 233.13 12.99 232.81 13.39 232.51 13.13 231.83 12.34 230.76 12.07 230.19 11.92 229.43 12.08 228.77 12.74 228.48 13.07 228.62 13.43 228.86 13.81 228.97 14.16 228.74 14.23 228.27 14.02 227.83 13.74 227.46 13.63 227.19 13.78 226.85 13.98 226.71 14.77 226.71 15.34 226.59 15.32 226.32 14.67 225.58 14.57 225.39 14.64 225.17 14.87 225 15.02 225.06 15.17 225.17 15.79 225.15 15.98 225.29 16.15 225.31 16.42 224.94 16.69 221.99 16.82 221.89 17.46 221.25 17.68 221.09 17.97 221.16 18.35 221.56 18.72 221.62 19.16 221.47 19.69 220.97 20.12 220.86 21.11 221.09 22.35 220.27 22.77 220.08 23.5 219.92 23.88 219.93 24.29 220.08 24.81 220.63 25.24 221.39 25.72 222.07 26.45 222.36 27.38 222.62 27.71 223.26 27.71 224.1 27.61 224.94 27.79 226.67 28.57 227.54 29.76 227.74 32.12 227.24 33.08 227.19 33.49 227.37 33.64 227.78 33.7 228.25 33.84 228.61 34.18 229.07 34.28 229.45 34.32 229.83 34.47 230.28 34.72 230.66 35.31 231.36 35.51 231.78 35.58 232.57 35.49 233.59 35.18 234.46 34.59 234.84 33.97 234.98 33.32 235.35 32.84 235.85 32.7 236.38 33 237.05 34 238.21 34.22 239.06 34.51 239.68 35.86 240.12 36.27 240.94 36.04 242.4 35.57 243.94 35.64 245.06 37.02 245.25 38.67 244.9 40.2 244.74 40.96 244.58 41.66 244.29 42.29 244.16 42.85 244.51 43.05 245.3 43.02 246.21 43.19 246.96 43.99 247.28 45.19 247.58 45.66 247.55 46.02 247.4 46.76 246.96 47.16 246.79 48.36 246.7 54.55 247.91 55.9 248.41 57.15 249.12 59.4 250.77 60.83 251.43 63.94 252.39 64.63 252.4 65.96 251.99 69.22 251.58 70.05 251.63 71.61 252.14 72.52 252.28 73.24 252.01 73.53 251.84 73.93 251.73 74.66 251.63 74.86 251.57 75.18 251.39 75.39 251.35 75.56 251.44 76.01 251.81 76.18 251.88 76.97 251.66 78.32 251.01 85.43 250.09 93.18 251.08 93.8 251.59 94.74 252.89 95.13 253.29 95.39 253.37 96.69 253.52 97.1 253.64 97.27 253.8 97.9 254.52 99.33 254.45 100.86 254 102.98 253.02 103.28 252.74 103.69 252.15 103.91 252.02 105.13 251.93 105.57 251.69 105.59 251.24 104.2 249.14 103.96 248.33 104.09 247.55 104.74 246.48 105.16 245.99 105.63 245.63 106.17 245.59 107.05 246.23 107.45 246.29 107.99 246.08 111 245.4 111.76 245.09 112.4 244.63 112.79 244.09 113.86 241.11 114.08 240.79 114.44 240.67 114.67 240.54 114.99 239.85 115.19 239.55 115.52 239.19 115.74 238.89 115.97 238.63 116.36 238.41 116.69 238.32 120.41 238.07 121.05 237.77 121.78 237.26 122.63 237 124.42 236.89 125.5 236.61 127.16 235.28 128.14 234.79 128.55 234.75 129.76 234.89 130.14 234.85 131.29 234.6 131.35 233.49 131.35 232.03 131.35 229.95 131.35 227.87 131.35 225.79 131.35 223.71 131.34 221.63 131.34 219.55 131.34 217.47 131.34 215.39 131.34 213.31 131.34 211.23 131.34 209.15 131.34 207.07 131.34 204.99 131.34 202.91 131.34 200.82 131.34 198.74 131.34 196.67 131.34 194.59 131.34 192.51 131.34 190.43 131.33 188.35 131.33 186.26 131.33 184.18 131.33 182.11 131.33 180.02 131.33 177.95 131.33 175.86 131.33 173.78 131.33 171.7 131.33 169.62 131.33 167.54 131.32 165.46 131.32 163.39 131.32 161.3 131.32 159.22 131.32 157.14 131.32 155.06 131.32 152.98 131.32 150.9 131.32 148.82 131.32 146.74 131.32 144.66 131.32 142.58 131.31 140.5 131.31 138.42 131.31 136.34 131.31 134.26 131.31 132.18 131.31 130.58 131.31 130.1 131.31 128.02 131.31 125.94 131.31 123.86 131.3 121.78 131.3 119.7 131.3 117.62 131.3 115.54 131.3 113.46 131.3 111.38 131.3 109.3 131.3 107.22 131.3 105.14 131.3 103.06 131.3 100.98 131.3 98.9 131.29 98.43 131.47 99.04 131.71 99.3 132.36 99.75 133.06 100.76 134.98 102.15 135.98 103.18 136.39 103.44 136.74 103.53 137.51 103.57 137.88 103.67 140.72 105.24 145.51 108.85 145.91 109.33 147.07 111.62 148.07 113.06 148.48 113.86 148.42 114.41 148.09 115.03 148.44 115.53 149.13 115.92 149.85 116.17 149.91 117.14 149.99 117.38 150.22 117.6 150.89 117.91 151.13 118.14 151.21 118.49 151.08 118.72 150.91 118.92 150.91 119.2 151.07 119.46 151.46 119.94 151.61 120.23 151.85 121.39 152.09 121.8 152.71 122.16 153.79 122.61 154 122.95 154.12 123.68 154.68 123.61 154.66 123.92 154.45 124.38 154.48 124.76 154.85 124.91 155.19 124.79 155.51 124.6 155.85 124.59 156.33 124.97 155.23 125.6 154.99 126.19 154.92 127.22 156.59 128.57 156.89 129.55 156.66 129.92 155.84 130.37 155.64 130.63 155.76 131.04 156.14 131.16 156.57 131.22 156.86 131.45 156.89 131.86 156.56 132.66 156.57 133.04 156.87 133.42 157.82 133.85 158.2 134.14 158.57 134.8 159.35 137.26 158.95 137.97 158.93 138.31 159.43 138.16 159.8 137.98 160.01 138 160.43 138.44 160.44 138.57 161.44 140.78 161.76 144 161.68 146.67 161.8 147.36 163.19 149.59 163.06 150.17 161.46 152.21 160.77 153.65 159.92 154.97 157.78 157.41 156.68 159.26 156.17 159.85 155.07 160.58 154.91 161.03 154.43 163.02 154.32 164.09 154.43 165.04 154.66 165.49 155.26 166.27 155.44 166.81 155.37 167.66 154.57 170.18 154.58 171.29 154.78 172.67 155.16 174.01 155.67 175.03 155.9 175.31 156.11 175.5 156.67 175.85 157.04 176.26 157.41 177.44 157.6 177.81 157.71 177.7 158.5 177.19 160.89 176.19 162.62 175.1 163.58 174.64 165.65 174.4 167.23 175 168.72 175.83 173.62 176.83 174.77 176.8 178 175.96 178.53 175.95 179.57 176.07 180.09 176.05 183.21 175.29 184.91 175.24 185.75 175.38 187.58 176.12 190.74 176.2 192.95 176.73 193.73 176.74 194.57 176.45 196.67 175.16 197.36 174.57 197.77 173.91 197.92 173.23 197.89 172.52 197.55 170.85 197.6 170.27 198.04 169.88 199.03 169.56 200.2 169.38 203.8 169.35 206.14 168.85 208.32 167.63 210.19 165.94 211.6 163.98 212.8 161.04 213.5 159.71 215 158.33 215.39 157.59 215.72 157.37 217.43 157.1 218.01 156.92 218.9 156.49 220.84 154.81 222.09 153.12 222.91 152.51 224.08 152.32 225.77 152.65 226.4 152.41 227.1 151.44 227.71 150.16 228.13 149.66 228.85 149.19 229.21 148.86 Z" id="ZAF-1188" data-name="Northern Cape"/>
<path d="M 794.77 921.68 793.76 922.34 792.64 922.61 792.33 922.56 791.7 922.37 787.59 922.25 787.02 922.33 785.68 922.18 785.06 921.97 784.52 921.59 784.33 921.31 784.12 920.79 784.07 920.3 784.75 919.87 785.55 919.01 785.9 918.81 786.14 918.63 786.93 917.8 787.3 917.52 788.5 917.28 789.75 917.4 793.18 918.1 794.94 919.5 795.96 919.79 795.55 920.78 794.77 921.68 Z M 798.95 910.7 797.55 911.06 795.78 910.88 794.67 910.38 794.81 909.56 796.13 909.03 797.8 908.97 799 909.62 798.95 910.7 Z M 285.84 359.54 286.24 360.55 285.88 360.79 285.66 361.57 285.2 362.05 285.06 363.19 286.04 363.66 286.84 364.62 287.12 365.54 286.18 366.71 285.61 367.18 284.92 367.45 284.6 367.96 284.64 368.41 284.49 369.12 284.02 369.59 284.03 370.46 284.11 371.02 283.73 371.97 282.27 372.66 281.45 373.81 276.13 375.8 274.62 375.58 271.37 374.61 270.06 375.07 268.28 376.22 266.88 378.72 265.6 379.39 259.87 379.96 258.07 380.73 255.35 380.49 253.97 381.87 252.28 383.09 252.09 384.49 252.08 386.08 253.01 387.45 253.53 389.09 253.75 390.35 253.6 392.1 254.85 393.35 255.49 394.59 257.02 395.84 255.41 397.3 253 397.14 250.52 397.32 248.64 398.03 247.89 398.23 247.54 398.26 247.08 397.82 246.79 397.43 246.52 396.89 246.4 396.75 246.26 396.61 246.11 396.49 245.95 396.34 245.84 396.29 245.8 396.51 246 397.41 246.03 398.72 245.48 399.52 244.12 399.91 243.31 400.33 241.55 402.35 241.33 403.49 240.17 404.96 240.73 406.5 240.16 407.99 233.83 416.6 233.51 417.91 233.99 419.34 239.77 419.46 244.38 418.91 252.99 419.24 259.51 420.49 262.27 421.53 264.19 422.84 264.91 425.37 266.75 427.44 266.22 428.33 259.51 430.86 258.71 431.61 258.27 432.16 256.88 433.41 260.24 433.68 261.18 433.39 262.09 433.52 263.47 433.99 264.19 434.93 268.76 436.79 267.03 439.13 266.99 439.65 267.03 440.82 267.03 440.82 266.86 440.79 265.12 440.84 259.15 442 258.35 442.3 257.64 442.7 257.04 443.21 256.68 444.02 256.93 444.76 257.59 445.26 258.43 445.37 258.43 445.62 245.61 444.61 245.41 444.37 245.19 443.31 245.1 443.07 243.98 442.99 243.52 442.84 243.21 442.56 243.34 443.12 243.62 443.34 243.98 443.46 244.35 443.71 244.72 444.23 244.73 444.5 244.48 444.74 244.25 444.55 243.74 444.41 242.71 444.34 242.23 444.43 241.88 444.56 241.48 444.66 240.91 444.61 237.95 443.83 236.76 443.22 236.28 443.09 235.87 442.86 235.56 442.31 235.48 441.96 235.51 441.7 235.76 441.56 236.33 441.57 235.74 441.15 234.92 440.93 233.28 440.79 233.63 441.35 234.12 441.9 234.71 442.34 235.31 442.56 234.63 442.76 233.73 442.61 229.55 441.39 228.81 441.29 227.83 441.32 227.1 441.44 226.5 441.68 224.58 443 223.08 443.66 221.41 443.98 217.94 443.65 216.39 443.68 213.2 444.34 212.46 444.63 211.85 445.02 210.76 446.01 210.3 446.79 210.46 447.4 211 447.84 211.66 448.16 211.15 448.52 210.41 448.74 205.59 449.34 204.21 449.84 203.27 450.69 203.16 451.3 203.35 452.51 203 452.93 202.27 454.01 202.05 454.14 199.86 455.22 198.34 455.69 196.76 455.95 195.15 456.03 191.23 455.37 189.84 454.66 189.02 454.49 188.22 454.61 186.67 455.15 185.36 455.36 185.1 455.56 184.94 455.81 184.74 456.03 184.49 456.2 182.02 457.1 180.43 457.29 178.81 457.18 172.73 455.3 171.24 455.02 167.64 454.75 165.86 454.92 164.38 455.53 164.66 455.53 162.54 456.02 161.85 456.31 162.85 456.45 163.74 457.01 164.19 457.79 163.88 458.56 163.18 458.8 156.62 457.81 151.43 458.4 149.88 459 148.6 459.85 146.56 462.13 145.87 462.68 145.16 462.92 144.63 463.01 144.38 463.26 144.18 463.58 143.79 463.93 143.48 464.07 142.27 464.46 141.68 464.81 141 465.33 140.45 465.95 140.23 466.59 139.83 466.48 138.92 466.68 137.42 467.22 134.67 468.88 133.62 470.05 134.12 471.05 134.12 471.28 133.52 471.41 132.55 471.93 131.95 472.04 131.36 471.97 130.78 471.79 130.25 471.55 127.91 470.1 127.37 469.64 126.72 469.36 120.77 469.51 120.23 469.61 119.62 470.13 119.11 470.26 118.71 470.19 118.46 469.96 118.29 469.7 118.11 469.51 116.24 468.55 113.41 466.19 111.51 465.29 110.93 464.92 110.35 464.32 109.66 463.87 108.78 463.78 107.88 463.99 107.18 464.46 106.86 464.27 106.53 464.21 106.21 464.28 105.89 464.46 106.03 464.05 108.23 461.53 108.42 461.12 108.24 460.11 107.65 458.92 106.89 457.82 106.16 457.05 105.64 456.72 105.17 456.62 102.58 457.07 100.31 456.94 99.81 456.82 99.3 456.4 98.62 455.36 98.03 455.02 98.03 454.77 98.99 454.63 99.43 454.08 99.68 453.31 100.06 452.46 99.42 452.77 98.54 453.99 98.15 454.26 95.32 454.1 94.83 454.13 93.77 454.46 90.15 454.97 89.38 455.4 89.23 455.7 88.87 455.79 88.45 455.71 88.1 455.53 87.76 455.07 87.8 454.71 88.1 454.26 87.85 453.03 87.83 452.74 87.96 452.33 88.13 452.16 88.35 452.02 88.61 451.7 88.92 450.98 88.87 450.43 88.34 449.17 88.29 448.41 88.61 448.07 89.12 447.76 89.61 447.12 88.05 445.14 87.45 444.86 85.25 444.41 81.78 444.14 78.36 444.28 77.81 444.47 77.5 444.66 76.16 445.12 75.52 445.51 75.21 445.77 74.86 446.15 74.32 446.63 74.15 446.89 74.1 447.4 74.19 447.78 74.38 447.98 74.63 448.14 74.86 448.39 75.37 449.93 75.43 450.3 75.45 450.63 75.12 453.09 75.27 453.85 75.9 454.26 75.21 454.43 74.28 454.03 73.4 453.36 72.84 452.74 71.95 451.27 71.83 450.83 71.87 450.59 72.04 450.08 72.08 449.79 72.01 449.66 71.85 449.57 71.67 449.5 71.57 449.43 71.22 448.45 70.92 448.05 69.84 447.74 69.5 447.39 69.41 446.91 69.53 446.39 69.8 446.09 70.14 445.99 70.43 445.8 70.56 445.24 70.58 444.74 70.65 444.34 70.81 443.98 71.07 443.57 70.52 443.64 70.31 443.7 70.03 443.85 69.5 443.16 69.45 442.62 69.76 442.13 70.31 441.57 70.82 440.88 71.22 439.56 71.57 438.76 72.78 437.95 74.21 437.98 75.4 437.83 75.9 436.46 75.74 435.75 75.02 434.79 74.86 434.3 74.77 433.57 73.79 430.29 72.82 428.66 72.61 427.94 72.27 427.79 70.56 426.05 69.95 425.71 69.65 425.49 69.53 425.16 69.53 423.63 69.43 422.86 69.17 422.22 68.26 420.96 67.2 420 63.19 417.64 63.56 417.02 63.34 416.28 62.41 414.83 61.92 413.85 61.02 412.82 60.91 412.43 60.56 411.94 58.86 410.56 58.23 410.28 57.46 410.02 56.94 409.42 56.53 408.74 56.1 408.22 57.04 407.82 57.59 407.71 57.99 407.84 58.28 408.27 58.48 408.67 58.73 409.02 59.16 409.26 58.99 409.67 59.26 409.97 60.28 410.66 60.96 411.47 61.45 411.89 61.92 412.05 62.5 411.76 62.35 411.35 61.55 410.66 61.35 410.34 61.27 409.72 61.17 409.47 61 409.38 60.59 409.34 60.4 409.26 59.59 408.57 59.28 408.21 59.16 407.84 59.27 406.24 59.16 405.69 58.63 404.97 57.75 404.61 56.68 404.53 55.57 404.68 55.9 405.26 56.1 405.46 55.64 405.55 55.26 405.71 54.53 406.2 54.13 405.81 53.9 405.42 53.81 405.08 53.79 404.82 53.65 404.5 53.39 404.16 53.26 403.75 53.52 403.18 53.34 402.89 52.89 401.82 52.67 400.99 52.64 400.69 52.76 400.38 53.14 399.98 53.35 399.53 53.15 399.09 52.29 398.12 52.09 398.02 51.94 397.88 51.98 397.56 52.12 397.52 52.39 397.56 52.64 397.58 52.76 397.43 52.88 397.32 53.45 396.89 53.66 396.8 53.96 396.75 54.02 396.62 54.04 396.42 54.16 396.17 54.19 395.88 54.16 394.73 54.28 394.27 54.79 393.92 55.67 393.61 56.56 393.44 57.11 393.49 56.84 393.76 57.27 394.31 59.16 395.79 60.76 396.33 62.18 396.02 63.41 395.21 67.9 391.36 68.77 389.92 69.3 388.59 70.17 385.57 70.31 384.09 70.13 381.51 69.92 380.92 69.47 380.09 69.68 379.48 70.56 378.49 70.73 377 69.3 372.14 68.88 368.18 68.22 366.56 68 365.76 68.09 364.14 68.04 363.35 67.62 362.6 67.16 362.08 66.74 361.45 66.51 360.96 66.48 360.62 66.52 360.33 66.48 359.93 65.7 357.34 65.07 356.11 64.18 354.84 62.45 352.95 62.18 352.42 62.1 352.15 60.4 350.03 58.63 348.43 58.35 347.85 58.12 347.18 57.55 346.61 56.33 345.68 54.88 343.74 53.83 343.03 53.46 342.11 53.01 340.36 52.55 339.89 51.04 338.85 50.71 338.46 50.51 337.97 49.13 336.01 49.14 336.02 51.11 336.53 51.4 332.57 53.23 330.47 53.74 327.8 55.95 326.01 56.83 323.42 57.88 322.46 58.66 321.89 59.36 321.84 59.93 321.94 60.53 322.17 61.28 322.63 62.21 323.09 63.59 323.62 65.2 323.04 66.94 322.18 68.7 319.93 70.24 317.41 71.21 314.56 72.36 312.85 73 311.68 74.99 312.66 75.53 311.57 76.58 310.78 78.58 310.6 81.18 312.36 83.42 313.45 85.05 314.54 86.4 316.02 87.37 317.46 89.03 318.92 92.6 319.99 92.57 324.45 91.4 325.88 92.21 328.09 91.35 330.59 92.54 337.55 93.38 339.44 94.37 340.47 94.75 340.99 94.74 341.55 94.48 342.7 95.19 346.19 95.19 347.72 95.49 348.59 96.45 349.32 96.67 350.22 97.12 350.77 97.34 351.65 97.15 352.42 97.09 353.85 96.88 354.8 97.53 357.99 97.32 359.67 96.54 360.93 95.93 363.38 97.86 363.48 98.4 363.61 98.92 363.84 99.28 364.08 99.59 364.32 99.76 364.43 99.95 364.49 100.18 364.49 100.37 364.41 100.72 364.22 100.93 364.16 101.16 364.17 101.37 364.24 101.58 364.33 101.74 364.45 102.13 364.37 102.69 364.13 104.02 363.22 104.5 363.01 104.7 363.2 104.11 365.08 104.09 365.55 104.24 365.87 105.28 366.29 105.72 366.54 106.1 366.96 106.71 368.16 106.97 368.47 107.25 368.61 107.6 368.58 107.87 368.59 108.1 368.67 108.44 369.03 108.65 369.09 108.85 369.07 109.04 369 109.22 368.9 109.42 368.82 109.63 368.77 109.83 368.77 110.03 368.82 110.21 368.92 110.38 369.03 110.54 369.16 110.69 369.33 111.04 369.85 111.22 370.05 111.4 370.19 111.62 370.26 111.86 370.28 112.34 370.24 112.53 370.34 112.61 370.56 112.48 371.36 112.49 371.69 112.58 372.06 112.6 372.33 112.47 372.87 112.48 373.14 112.82 374.01 113.15 375.94 112.99 376.28 111.4 377.68 110.64 378.84 110.93 380.77 111.16 381.67 111.46 382.26 112.96 384.61 112.96 385.52 112.42 388.99 114.67 390.99 116.81 390.12 117 389.77 116.87 389.6 116.73 389.47 116.62 389.31 116.11 388.22 116.32 387.06 117.04 385.58 117.5 384.31 118.24 383.76 119.08 384.14 119.84 384.03 120.99 383.58 121.98 382.44 123.71 381.76 124.6 381.17 127.13 381.09 129.18 380.6 132.59 378.27 133.78 376.91 134.84 376.43 137.14 374.37 138.22 374.24 138.87 374.68 139.33 375.57 139.86 376.35 139.87 377.86 137.12 380.97 135.94 382.03 135.03 382.61 134.89 384.34 135.5 386.7 136.55 389.47 138.34 392.77 138.87 394.69 139.74 395.69 140.65 396.32 141.49 396.73 142.34 397.25 143.41 398.5 144.41 399.31 145.16 400.47 146 400.78 147.6 402.1 150.09 401.7 152.22 400.81 153.13 400.91 154.53 401.51 158.14 401.4 161.07 399.3 161.82 397.39 162.09 395.36 162.52 393.91 164.07 392.45 166.79 391.62 168.91 391.37 170.61 391 173.45 389.86 175.48 386.37 176.21 384.37 177.9 383.78 178.53 383.34 179.19 382.73 180.4 381.31 183.24 380.51 184.78 380.27 186.45 379.14 188.54 378.06 189.61 376.3 191.44 375.51 192.62 375.32 194.17 375.6 195.63 375.22 197.06 375.52 198.32 375.95 200.71 376.35 202.97 375.89 205.12 374.6 206.11 373.23 208.27 371.04 209.15 370.88 209.93 369.47 209.32 368 209.08 367.65 209.02 367.41 209.03 367.25 209.35 365.75 209.3 364.61 209.42 364 209.47 363.37 209.74 362.91 210.06 362.15 211.54 361.93 215.93 352.67 216.99 351.39 223.89 354.46 225.3 355.38 227.03 356.96 228.65 359.05 232.03 360.02 234.24 361.17 236.82 361.28 238.47 361.87 241.17 362.01 242.89 362.54 244.27 363.12 244.64 364.47 244.69 364.83 245.87 366.47 249.98 363.25 250.74 362.5 251.57 361.16 254.14 358.09 256.52 356.97 258.16 355.51 262.76 355.55 263.73 355.38 265.28 354.82 266.6 354.7 269.21 354.99 272.38 356.54 273.29 357.23 273.67 357.93 273.56 358.73 275.31 359.91 276.68 359.26 277.93 358.53 279.02 357.2 280.2 356.81 281.24 356.93 282.89 358.89 285.84 359.54 Z" fill-rule="evenodd" id="ZAF-1189" data-name="Western Cape"/>
<path d="M 369.58 93.99 369.58 97.03 369.82 98.03 370.86 99.67 371.1 100.52 371.49 100.65 377.83 101.21 378.72 101.43 379.89 102.08 380.85 102.5 381.58 102.67 382.52 102.77 383.09 102.65 385.35 101.51 389.63 99.81 391.2 98.77 391.59 97.85 391.97 97.52 392.55 97.38 393.01 97.62 393.29 98.31 393.75 102.04 394.65 103.45 395.95 104.18 397.16 105.33 397.7 106.46 397.99 106.93 398.46 107.28 402.43 107.86 405.29 109.81 408.11 109.92 409.79 109.68 410.17 109.98 410.41 110.94 410.49 111.13 410.6 111.28 410.76 111.39 410.98 111.45 411.22 111.48 411.52 111.38 411.94 111.06 413.26 109.12 413.47 108.37 413.5 107.86 413.47 107.62 413.47 107.58 413.48 107.5 413.62 107.24 413.99 107.02 414.79 106.72 415.58 106.7 416.46 106.53 417.98 107.89 418.43 107.57 418.6 107.47 419.15 107.23 419.78 107.13 425.32 107.74 425.71 107.73 425.92 107.67 425.96 107.63 425.97 107.61 426.01 107.54 426.2 107.4 426.7 107.15 427.53 107.06 429.31 107.51 431.14 107.62 432.44 107.96 435.38 109.15 436.48 109.78 437.03 110.5 436.9 111.51 436.65 112.23 436.17 112.57 435.38 112.61 434.85 112.45 434.18 112.06 433.41 111.69 432.87 111.63 432.04 111.91 431.78 112.42 431.91 113.15 432.74 113.66 433.2 114.19 433.53 115.04 433.99 115.41 434.76 115.52 436 115.34 436.79 115.67 437.36 115.99 439.69 119.38 439.32 122.44 437.8 123.42 436.84 123.68 434.84 123.8 434.36 123.96 433.99 124.15 433.36 124.18 433.13 123.9 433.12 123.41 433.5 122.99 433.53 122.6 433.17 122.44 432.42 122.53 431.48 122.94 431.16 123.48 431.18 124.13 431.67 126.19 431.71 126.28 431.82 126.58 431.84 127.2 431.62 128.16 430.64 129.47 429.75 130.24 428.81 130.82 426.01 131.39 427.18 133.94 427.36 134.38 427.46 134.86 427.42 135.13 427.08 135.36 426.85 135.45 426.81 135.51 426.73 135.7 426.8 136.12 426.84 136.8 426.67 137.55 425.98 138.43 424.76 138.81 424.18 139.27 421.57 139.75 418.69 140.21 418.03 139.68 416.65 139.74 415.87 139.11 414.88 138.61 414.27 137.87 411.19 138.92 408.74 140.46 407.78 144.71 406.89 148.39 405.97 149.48 404.72 149.89 404.11 150.65 401.81 150.86 403.1 155.97 399.86 158.07 397.95 159.62 399.3 162 399.49 162.52 399.64 163.09 399.64 163.22 399.63 163.34 399.8 163.39 400.09 163.6 401.35 163.34 401.82 163.18 402.29 162.91 404.08 162.19 404.76 161.52 409.3 160.28 409.9 160.76 410.03 160.92 410.22 161.21 410.68 161.41 411.05 161.69 414.36 161.74 414.15 162.9 413.76 163.09 413.62 163.25 413.49 163.28 413.4 163.43 413.24 163.89 413.07 165.98 412.48 166.5 411.99 167.46 412.1 168.38 411.76 173.21 411.47 173.27 410.97 173.69 410.78 174.46 410.76 175.22 410.64 175.6 409.51 177.15 409.11 177.37 406.81 177.91 406.31 177.95 405.84 177.8 404.66 176.77 404.16 176.57 403.1 176.72 402.21 177.41 400.65 179.06 399.2 180.04 398.4 180.36 398.04 180.04 398.14 179.69 398.3 179.32 398.3 179.02 397.92 178.9 397.6 178.94 396.97 179.11 393.32 179.18 391.68 178.97 390.44 178.39 389.69 177.21 389.19 176.81 388.65 177.15 388.51 177.74 388.65 180.16 387.74 179.61 386.59 178.67 386.41 178.59 385.62 179.02 385.16 179.39 384.92 179.72 384.58 179.56 384.04 179.15 383.84 179.25 383.44 179.58 382.6 179.81 381.95 180.17 380.88 181.05 380.72 181.26 380.6 181.52 380.52 181.8 380.5 182.07 380.36 182.45 380.07 182.45 379.8 182.3 379.74 182.19 379.44 182.1 379.02 181.91 378.52 181.8 377.94 181.96 377.42 182.34 376.4 183.36 376.17 183.73 376.13 184.36 376.25 184.89 376.2 185.34 375.66 185.76 374.77 185.46 374.32 185.48 373.36 186.54 372.76 186.96 370.59 187.53 369.84 188.38 370.66 189.42 371.95 190.44 372.62 191.24 372.59 193.36 372.5 193.43 372.31 193.36 372 193.53 371.51 194.22 371.29 194.92 371.56 195.46 372.5 195.68 372.88 195.73 373.25 195.84 373.52 196.04 373.63 196.32 373.45 196.43 369.78 196.4 369.07 196.19 368.03 196.17 367.56 196.28 367.16 196.58 366.82 197.29 366.77 197.35 366.64 197.45 366.34 197.3 366 197.07 365.76 196.95 364.75 197.13 363.85 197.63 363.21 198.39 362.97 199.36 363.02 199.74 363.07 199.97 363.01 200.18 362.69 200.5 362.51 200.57 361.9 200.69 361.68 200.77 358.36 203.58 357.87 204.16 357.62 204.48 357.54 204.57 356.65 206.03 356.57 206.22 356.55 206.43 356.59 206.62 356.66 206.8 357.08 207.46 357.15 207.64 357.17 207.85 357.13 208.03 357.02 208.19 356.86 208.3 356.67 208.4 356.43 208.47 356.15 208.5 355.79 208.5 355.51 208.4 355.3 208.24 355.11 207.91 355.04 207.63 354.96 207.12 354.79 206.51 354.63 205.67 354.58 205.54 354.38 205.42 354.01 205.3 351.47 204.83 351.01 204.81 350.18 204.88 349.93 204.86 349.62 204.74 349.27 204.53 348.74 204.02 348.3 203.48 347.93 203.3 347.12 203.37 343.24 205.36 342.24 206.05 342.08 206.3 341.78 206.64 341.51 206.77 341.25 206.8 341.02 206.73 340.59 206.62 339.86 206.23 339.45 206.12 339.04 206.12 338.78 206.27 338.37 206.77 338.17 206.88 337.95 206.96 337.3 207.3 336.89 207.38 336.71 207.34 336.36 207.15 336.13 207.11 335.91 207.19 335.72 207.35 335.5 207.61 333.12 208.18 332.56 208.52 329.87 210.68 329.61 210.82 329.14 210.95 328.67 210.99 328.26 210.98 327.88 211.04 327.49 211.32 326.88 212.11 326.72 212.22 326.41 212.35 326.42 212.66 326.61 213.23 326.35 213.7 325.84 214.38 325.23 214.99 324.7 215.26 324.51 215.38 324.12 215.92 323.94 216.04 323.06 216.04 322.66 216.11 322.28 216.29 322.09 216.53 321.12 218.11 321.14 218.38 321.26 218.59 321.26 218.83 320.5 220.04 319.97 220.69 319.47 221.09 319.15 221.09 318.72 220.99 318.36 220.98 318.04 221.44 317.99 221.46 317.68 221.52 317.25 221.55 316.94 221.61 316.11 222.29 315.59 222.57 315.27 222.6 314.98 222.51 310.98 215.55 311.63 215.44 318.48 208.08 317.99 207.6 317.6 207.44 317.17 207.32 316.45 207.26 310.62 207.32 309.67 207.08 309.34 206.59 309.21 205.96 308.81 205.18 308.48 204.09 307.96 203.55 307.77 203.54 306.77 203.38 306.23 203.38 305.98 203.45 305.78 203.58 305.59 203.96 305.51 204.36 305.5 205.01 305.57 205.34 305.66 205.6 305.71 205.81 305.66 206.08 305.29 206.75 305.22 207.06 305.28 207.46 305.48 208.18 305.59 208.34 305.76 208.44 306.14 208.62 306.27 208.76 306.35 208.94 306.45 209.86 306.39 210.29 306.14 211.13 306.09 211.55 306.1 212.15 306.04 212.48 305.8 213 305.6 213.3 305.35 213.5 304.95 213.61 304.65 213.73 304.42 213.94 304.06 214.68 303.43 215.37 303.3 216.32 303.35 216.56 303.43 217.5 303.41 217.75 303.33 218.18 303.07 218.93 301.58 220.1 301.28 220.42 301.08 220.87 300.98 221.17 300.64 221.71 299.67 222.62 296.65 220.32 296.63 219.78 296.84 219.23 297.05 218.84 296.97 218.08 295.97 216.89 295.41 216.53 294.49 216.34 294.07 215.93 293.84 215.17 294.24 214.33 294.64 213.65 295.81 212.59 296.13 212 296.31 211.14 296.06 208.58 295.7 207.85 295.51 207.21 284.01 209.54 282.99 207.5 282.99 205.23 281.99 203.54 281.77 201.38 281.58 200.71 281.61 200.13 281.73 199.44 281.83 195.64 280.88 194.3 280.04 193.41 279.92 193.84 279.78 194.15 279.46 194.68 279.39 195.57 279.48 196.12 279.7 196.99 279.53 197.31 278.23 197.25 277.06 197.04 276.41 197.22 275.89 197.65 275.73 198.16 275.84 198.6 276.44 199 276.56 199.41 276.35 199.77 275.82 200.04 275.08 200.09 273.79 199.95 273 199.97 272.48 200.21 272.35 200.32 271.96 200.86 271.14 201.63 270.23 201.74 268.62 201.25 267.1 200.62 265.57 199.76 264.47 199.44 261.2 199.08 261.15 198.65 260.99 198.29 260.72 197.87 259.93 197.27 259.01 197.17 258.75 197.21 258.32 197.07 256.2 195.52 255.47 195.17 254.45 194.92 252.66 194.82 251.88 194.65 251.15 194.22 247.82 190.86 246.3 189.68 244.5 189.46 243.89 189.03 243.48 188.52 243.02 187.42 242.87 186.45 242.84 185.7 242.93 184.52 243.21 183.55 243.69 182.95 245.34 182.37 245.83 182.11 245.97 181.91 246.01 181.84 246.02 181.81 245.78 181.56 244.71 180.11 243.43 176.33 243.48 175.84 243.71 175.14 244.27 174.39 244.4 173.6 244.24 172.3 244.25 171.56 244.59 170.2 244.43 169.68 241.93 168.11 241.33 168.17 241.09 168.26 240.93 168.02 240.63 167.68 240.24 167.32 239.52 167.05 238.33 166.94 237.86 166.78 237.4 166.39 236.83 166.08 236.15 166.02 235.65 165.91 234.6 165.9 234.12 165.99 233.62 166.02 232.7 165.95 232.31 165.69 232.01 165.15 231.7 163.31 231.66 163.21 231.5 162.31 231.55 161.33 231.75 160.6 232.24 160.05 231.94 148.98 229.36 148.86 229.21 148.86 229.3 148.78 230.85 146.63 230.88 146.2 230.75 145.83 230.73 145.5 231.12 145.2 232.18 144.84 232.54 144.6 232.87 144.14 233.05 143.51 233.16 142.64 233.15 141.81 232.95 141.34 232.48 140.68 232.87 140.06 233.62 139.47 234.18 138.91 234.58 138.28 234.53 138.05 234.3 137.52 234.04 137.15 233.82 137.08 233.68 136.96 233.65 136.45 233.87 135.64 234.37 134.88 236.03 133.11 236.24 132.75 236.34 132.37 236.42 131.84 236.36 131.43 236.22 131.11 236.26 130.82 236.77 130.46 237.1 130.1 236.93 129.71 236.57 129.32 236.36 128.95 236.38 128.64 236.49 128.34 236.78 127.76 237.52 125.47 237.77 125.1 238.71 124.76 239.11 124.32 239.71 122.88 240.01 122.42 240.33 122.11 240.72 121.87 241.23 121.67 241.66 121.42 241.81 121.13 241.89 120.82 242.1 120.49 243.54 119.15 244.42 118.73 245.31 118.84 245.55 119.14 245.71 119.52 245.94 119.71 246.39 119.48 246.75 119.21 249.54 118.01 251.3 117.53 253.14 117.41 255.17 117.76 256.86 118.35 257.43 118.47 258.09 118.43 259.31 118.02 259.79 117.94 260.32 118.09 260.65 118.39 261.22 119.18 261.71 119.65 262.08 119.9 263.16 120.35 264.1 120.87 268.02 123.67 268.3 124.04 268.76 124.47 270.84 125.05 271.19 125.34 271.57 126.11 271.81 126.44 272.16 126.63 272.91 126.86 273.24 127.04 274.65 128.73 276.33 129.84 276.89 130.56 277.59 130.96 279.51 130.53 279.94 130.6 280.32 130.82 280.71 131.11 280.74 131.41 280.54 131.73 280.6 131.91 281.39 131.8 285.24 130.85 287.19 130.84 288.83 131.7 291.39 134.46 292.96 135.51 294.83 135.79 295.85 135.56 296.59 135.27 297.33 135.19 298.97 135.74 301.78 136.68 303.75 137.9 305.06 138.16 307.76 137.89 308.98 138.14 310.02 138.38 311.14 138.26 313.35 137.73 314.09 137.45 316.3 135.92 317.98 135.19 319.41 134.99 320.84 135.21 322.53 135.69 324.09 135.94 331.83 135.2 334.5 134 339.28 130.6 340.08 128.37 341.71 124.81 342.11 123.94 343.29 119.12 346.54 112.49 347.35 110.02 348.48 108.22 348.54 106.84 349.63 104.58 350.02 103.39 350.04 101.89 349.65 99.18 349.71 98.27 349.92 98.1 350.2 98.05 351.42 97.67 353.33 97.73 353.89 97.46 355.09 96.65 360.75 95.03 364.93 93.83 366.68 93.61 367.37 93.67 368.08 93.82 368.75 93.87 369.58 93.99 Z" id="ZAF-1201" data-name="North West"/>
<path d="M 439.51 178.61 440.79 179.24 441.44 179.33 442.27 179.28 443.11 179.33 443.48 179.46 443.71 179.63 443.88 180.27 443.97 180.45 444.09 180.67 444.28 180.88 444.62 181.18 444.89 181.25 445.11 181.22 445.28 181.11 445.67 180.69 445.88 180.56 446.15 180.49 446.62 180.47 446.87 180.56 447.07 180.7 447.44 181.18 447.88 181.54 448.06 181.94 449.08 182.34 449.2 182.64 448.91 183.12 448.64 183.99 449.09 183.83 450.8 182.46 451.28 182.24 451.8 182.18 452.59 182.19 453.2 182.04 453.1 181.71 452.46 181.18 452.15 181 451.9 181.06 451.8 181.06 451.93 180.69 452.98 180.18 454.66 180.76 457.53 182.46 457.97 182.63 458.26 182.67 458.53 182.76 458.93 183.09 459.32 183.27 459.73 183.2 460.12 183.04 460.47 182.95 460.8 183.06 461 183.28 461.22 183.46 461.6 183.46 461.93 183.28 462.37 182.73 462.64 182.46 463 182.3 463.32 182.25 463.65 182.14 464.02 181.82 464.36 181.64 464.81 181.61 465.54 181.68 467.2 182.69 467.55 182.8 467.86 182.81 468.03 182.95 467.98 183.46 468.1 183.76 468.13 183.87 468.1 184.29 468.14 184.48 468.24 184.64 468.55 184.87 468.69 185.01 468.8 185.17 468.99 185.52 469.3 186.29 469.64 186.91 469.79 187.12 470.08 187.44 470.34 187.54 470.56 187.53 470.72 187.43 471.02 187.17 471.2 187.08 471.66 186.96 472.49 186.95 473.32 187.03 473.74 187.12 474.03 187.23 474.18 187.35 474.46 187.71 474.75 187.94 475.28 188.26 476 188.46 476.37 188.63 476.6 188.8 476.76 188.96 477.01 189.16 477.83 189.31 478.11 189.4 478.3 189.52 478.39 189.64 478.36 189.78 478.28 189.92 478.22 190.12 478.23 190.34 478.36 190.59 478.57 190.69 478.82 190.74 479.08 190.72 479.32 190.67 479.97 190.43 480.23 190.36 480.76 190.42 481.05 190.52 482.31 191.22 482.86 191.9 483.04 192.44 483.22 193.14 483.38 193.37 483.57 193.56 483.81 193.72 483.89 193.9 483.89 194.11 483.83 194.35 483.88 194.52 485.07 195.68 485.25 195.82 485.71 196.06 485.98 196.27 486.03 196.45 485.96 196.62 485.87 196.8 485.81 197.04 485.87 197.22 485.98 197.39 486.11 197.52 486.26 197.65 488.73 200.44 489.12 200.76 489.37 200.78 489.61 200.74 489.8 200.66 489.97 200.57 490.23 200.34 490.31 200.29 490.47 200.21 490.67 200.15 490.91 200.13 491.37 200.15 491.55 200.1 491.67 199.98 491.7 199.79 491.67 199.41 491.68 199.22 491.75 199.05 491.85 198.9 492 198.76 492.17 198.66 492.36 198.57 492.82 198.45 493.07 198.41 493.67 198.42 494.51 198.6 492.74 199.38 492.59 199.74 492.67 199.95 492.64 200.24 492.48 200.74 492.47 201.03 492.56 201.22 492.75 201.3 494.01 201.69 494.19 201.79 494.36 202.07 494.5 202.5 494.65 203.46 494.61 203.89 494.5 204.17 494.34 204.28 492.25 205.29 492.08 205.39 491.75 205.66 491.56 205.84 491.34 206.12 491.25 206.37 491.23 206.61 491.27 206.82 491.34 207.01 491.44 207.19 491.92 207.79 492.02 207.97 492.1 208.16 492.14 208.39 492.14 208.64 491.97 210.1 491.97 210.62 492.1 211.02 492.56 211.4 492.63 211.59 492.68 211.91 492.61 212.12 492.5 212.29 492.34 212.48 492.17 212.76 491.59 214.25 491.31 214.77 490.89 215.29 490.68 215.6 490.6 215.86 490.56 216.12 490.64 217.49 490.6 217.77 490.48 217.98 490.35 218.11 490.19 218.23 489.71 218.92 489.28 219.85 489.11 220.32 489.06 220.71 489.11 220.92 489.18 221.12 489.28 221.29 489.39 221.44 489.53 221.58 490.33 222.15 490.48 222.27 490.6 222.42 490.8 222.8 490.96 223.41 490.77 224.58 490.53 225.04 489.5 225.69 489.01 226.19 488.7 226.68 488.25 227.56 488.02 227.93 487.84 228.16 487.79 228.19 487.75 228.21 487.3 228.29 485.15 228.4 484.67 228.51 484.24 228.71 484.02 228.88 481.57 231.67 481.01 232.17 480.35 232.48 479.4 232.77 478.92 232.98 478.66 233.14 478.46 233.29 477.2 234.7 475.26 235 474.61 235.23 474.45 235.35 473.66 236.11 473.27 236.58 473.1 236.94 473.07 237.12 473.11 237.29 473.16 237.41 473.3 237.68 473.34 237.9 473.31 238.19 473.13 238.61 472.91 238.79 472.56 238.93 472.15 239.02 471.47 239.25 471.07 239.34 470.75 239.37 470.53 239.33 469.67 239.09 469.43 239.07 467.48 239.42 464.9 240.25 464.4 240.89 463.65 241.47 463.46 241.72 463.36 241.99 463.38 242.77 463.36 243.1 463.26 243.31 463.14 243.48 462.18 244.24 462.02 244.48 461.92 244.71 461.7 245.4 460.93 247.18 460.67 247.61 460.66 247.6 460.1 247.3 459.51 247.11 459.49 247.1 458.33 246.91 458.02 246.71 456.94 244.91 456.4 244.51 454.75 244.47 454.36 243.95 454.09 242.43 453.86 241.7 453.53 241.08 453.03 240.56 452.33 240.1 451.78 240.16 449.67 241.43 448.93 241.59 443.76 241.89 443 242.17 442.28 242.81 441.28 244.33 440.57 244.9 439.82 245.15 438.96 245.25 438.1 245.17 437.36 244.88 436.89 244.92 434.88 245.1 434.55 244.98 434.18 245.44 433.68 245.98 432.66 247.31 432.54 247.53 430.89 249.07 429.49 250.72 429.33 251.01 429.35 251.3 429.3 251.52 428.97 251.6 427.96 251.6 427.54 251.41 427.2 251.02 426.76 250.67 426.06 250.59 425.52 250.86 425.22 251.35 424.99 251.94 424.64 252.5 423.65 252.89 419.43 252.64 419.7 253.26 419.3 253.55 418.72 253.73 418.41 254.02 418.41 254.54 418.37 254.83 418.28 255.03 418.2 255.15 418.16 255.27 418.16 255.54 418.1 255.69 417.95 255.68 417.77 255.63 417.63 255.68 416.91 256.59 416.46 257.02 416 257.2 415.41 257.34 415.58 257.68 416.04 258.1 416.36 258.47 416.13 258.5 415.79 258.66 415.6 258.72 415.35 258.47 415.1 258.72 415.23 259.41 415.28 259.61 414.44 260.99 412.31 263.28 412.04 263.41 411.66 263.54 411.29 263.73 411.04 264.06 411.02 264.42 411.26 265.28 411.32 265.71 410.95 265.99 410.64 266.07 409.13 266.51 408.51 266.85 408.4 267.15 408.33 268.01 408.24 268.34 407.87 268.77 407.53 268.94 407.19 269.04 406.85 269.28 406.77 269.53 406.92 269.75 407.13 269.98 407.24 270.27 407.19 270.74 407.04 270.96 406.8 271.12 405.26 272.6 404.85 273.18 404.69 273.85 404.49 274 403.62 273.97 403.42 274.1 403.35 274.53 403.16 274.92 402.92 275.25 402.84 275.33 402.66 275.48 401.46 276.11 400.67 276.4 399.62 276.59 398.96 276.9 398.58 277.03 397.49 277.13 396.45 277.49 396.25 277.61 395.05 278.72 394.88 278.82 394.58 278.71 394.48 278.48 394.37 278.29 394 278.3 393.8 278.45 393.52 279.05 393.26 279.33 392.92 278.89 392.52 278.89 392.24 279.24 392.23 279.84 391.77 280.76 392.07 280.88 392.6 281.26 393.09 281.5 393.59 281.88 394.67 283.3 394.98 283.86 394.98 283.86 394.99 283.86 398.05 290.22 399.07 292.33 399.78 293.06 401.56 294.37 402.09 295.11 402.59 296.87 402.84 297.4 403.3 298.01 403.64 298.13 404.1 298.04 404.93 298.04 405.49 298.17 405.84 298.42 405.81 298.79 405.26 299.28 404.44 301.03 404.51 302.09 405.34 304.09 405.28 304.67 405.68 304.71 405.71 304.72 405.67 304.75 405.39 304.76 405.13 304.81 404.65 305 405.12 305.81 405.44 306.52 405.81 306.3 406.16 306.27 406.46 306.43 406.7 306.78 406.14 307.47 405.37 307.51 404.52 307.42 403.77 307.67 403.69 308.31 404.43 308.77 404.92 309.16 404.12 309.59 403.83 309.51 402.91 309.11 402.63 309.08 402.32 309.45 402.45 309.77 402.82 310 403.26 310.09 403.45 310.27 403.25 310.66 402.74 311.24 402.43 311.38 401.96 311.41 401.08 311.36 401.08 311.29 400.94 311.13 400.75 310.95 400.58 310.85 400.39 310.85 400.27 311.06 400.09 311.13 399.45 311.14 399.15 311.31 398.67 311.75 397.15 311.64 396.59 311.74 396.58 312 396.76 312.33 396.75 312.63 396.03 313.11 395.35 313.06 394.65 312.79 393.84 312.63 392.08 312.9 391.64 313.1 391.92 313.54 392.7 314.17 392.94 314.88 392.61 315.05 391.18 314.93 390.42 315.16 389.74 315.63 389.41 316.26 389.66 316.98 389.26 317.32 388.79 317.45 387.75 317.44 387.16 317.57 386.66 318.12 386.21 318.25 385.57 318.01 385.11 317.5 384.54 317.05 383.56 316.98 383.26 317.12 382.49 317.63 382.14 317.74 381.86 317.72 381.72 317.69 381.57 317.69 381.28 317.74 381.03 317.86 380.66 318.18 380.37 318.25 379.95 318.18 379.72 318.04 379.47 317.93 378.97 317.97 378.2 318.31 377.89 318.35 378.19 317.97 378.19 317.74 377.51 317.48 376.7 317.4 375.03 317.44 374.43 317.29 372.83 316.52 372.39 316.2 372.29 315.93 372.11 314.93 371.56 314.3 371.22 314.01 370.97 313.89 366.15 314.71 364.99 314.62 364.47 314.03 364.23 313.28 363.66 313 362.91 312.89 362.19 312.63 361.76 312.18 361.45 311.69 360.97 311.29 360.02 311.13 359.76 311.45 359.81 312.11 359.62 312.65 358.62 312.63 357.29 312.21 356.81 312.2 354.7 312.74 354.07 312.98 353.55 313.36 353.15 313.67 352.96 313.82 352.3 314.14 351.15 313.34 350.9 313.27 350.59 313.23 350.12 313.47 349.93 313.61 349.81 313.78 349.77 313.97 349.79 314.18 349.9 314.59 349.93 314.81 349.5 315.33 348.64 316.04 346.29 317.55 345.15 318.1 344.4 318.38 343.35 318.26 342.91 318.12 342.19 317.71 341.97 317.65 341.03 317.49 340.83 317.4 340.68 317.28 340.59 317.11 340.52 316.9 340.39 316 340.32 315.8 340.17 315.63 338.98 315.49 336.87 315.71 336.26 315.69 334.83 315.88 333.5 315.1 332.21 314.04 330.91 313.36 329.16 313.41 328.26 313.28 327.87 312.77 327.64 312.08 327.06 311.57 325.57 310.85 324.35 310.04 322.36 307.96 319.1 305.38 318.92 305.09 318.8 304.68 318.73 303.85 318.57 303.63 316.97 303 316.82 302.9 316.68 302.7 316.28 302.44 316.19 302.29 316.08 302.03 315.46 301.09 315.06 301.08 314.73 301.01 314.54 300.94 314.31 300.81 314.03 300.6 310.34 293.94 309.49 292.69 308.34 292.45 307.84 292.39 307.29 292.29 306.62 292.17 306.05 291.97 305.58 291.68 305.26 291.28 305.1 290.69 304.98 289.92 304.78 289.26 304.36 288.97 302.82 288.75 301.73 288.16 300.03 286.32 299.74 286.17 299.32 286.14 298.5 286.19 298.32 286.03 298.11 285.33 297.99 285.18 296.78 285.16 296.27 284.93 295.56 284.39 293.92 282.49 293.57 281.89 293.29 280.53 293.03 280.11 293.32 279.63 295.86 274.95 304.69 258.6 308.65 251.03 312.82 243.04 312.93 242.63 312.74 242.4 312.31 242.2 311.86 241.58 311.59 240.54 311.74 238.2 312.43 236.21 313.07 235.31 313.47 234.51 314.29 231.85 314.42 231.14 314.37 230.7 314.03 230.4 313.74 229.97 313.6 229.54 313.77 229.05 314.65 228.55 315.65 227.68 316.38 226.65 316.79 225.91 317.86 223.19 317.97 222.63 317.98 222 317.99 221.46 318.04 221.44 318.36 220.98 318.72 220.99 319.15 221.09 319.47 221.09 319.97 220.69 320.5 220.04 321.26 218.83 321.26 218.59 321.14 218.38 321.12 218.11 322.09 216.53 322.28 216.29 322.66 216.11 323.06 216.04 323.94 216.04 324.12 215.92 324.51 215.38 324.7 215.26 325.23 214.99 325.84 214.38 326.35 213.7 326.61 213.23 326.42 212.66 326.41 212.35 326.72 212.22 326.88 212.11 327.49 211.32 327.88 211.04 328.26 210.98 328.67 210.99 329.14 210.95 329.61 210.82 329.87 210.68 332.56 208.52 333.12 208.18 335.5 207.61 335.72 207.35 335.91 207.19 336.13 207.11 336.36 207.15 336.71 207.34 336.89 207.38 337.3 207.3 337.95 206.96 338.17 206.88 338.37 206.77 338.78 206.27 339.04 206.12 339.45 206.12 339.86 206.23 340.59 206.62 341.02 206.73 341.25 206.8 341.51 206.77 341.78 206.64 342.08 206.3 342.24 206.05 343.24 205.36 347.12 203.37 347.93 203.3 348.3 203.48 348.74 204.02 349.27 204.53 349.62 204.74 349.93 204.86 350.18 204.88 351.01 204.81 351.47 204.83 354.01 205.3 354.38 205.42 354.58 205.54 354.63 205.67 354.79 206.51 354.96 207.12 355.04 207.63 355.11 207.91 355.3 208.24 355.51 208.4 355.79 208.5 356.15 208.5 356.43 208.47 356.67 208.4 356.86 208.3 357.02 208.19 357.13 208.03 357.17 207.85 357.15 207.64 357.08 207.46 356.66 206.8 356.59 206.62 356.55 206.43 356.57 206.22 356.65 206.03 357.54 204.57 357.62 204.48 357.87 204.16 358.36 203.58 361.68 200.77 361.9 200.69 362.51 200.57 362.69 200.5 363.01 200.18 363.07 199.97 363.02 199.74 362.97 199.36 363.21 198.39 363.85 197.63 364.75 197.13 365.76 196.95 366 197.07 366.34 197.3 366.64 197.45 366.77 197.35 366.82 197.29 367.16 196.58 367.56 196.28 368.03 196.17 369.07 196.19 369.78 196.4 373.45 196.43 373.63 196.32 373.52 196.04 373.25 195.84 372.88 195.73 372.5 195.68 371.56 195.46 371.29 194.92 371.51 194.22 372 193.53 372.31 193.36 372.5 193.43 372.59 193.36 372.62 191.24 371.95 190.44 370.66 189.42 369.84 188.38 370.59 187.53 372.76 186.96 373.36 186.54 374.32 185.48 374.77 185.46 375.66 185.76 376.2 185.34 376.25 184.89 376.13 184.36 376.17 183.73 376.4 183.36 377.42 182.34 377.94 181.96 378.52 181.8 379.02 181.91 379.44 182.1 379.74 182.19 379.8 182.3 380.07 182.45 380.36 182.45 380.5 182.07 380.52 181.8 380.6 181.52 380.72 181.26 380.88 181.05 381.95 180.17 382.6 179.81 383.44 179.58 383.84 179.25 384.04 179.15 384.58 179.56 384.92 179.72 385.16 179.39 385.62 179.02 386.41 178.59 386.59 178.67 387.74 179.61 388.65 180.16 388.51 177.74 388.65 177.15 389.19 176.81 389.69 177.21 390.44 178.39 391.68 178.97 393.32 179.18 396.97 179.11 397.6 178.94 397.92 178.9 398.3 179.02 398.3 179.32 398.14 179.69 398.04 180.04 398.4 180.36 399.2 180.04 400.65 179.06 402.21 177.41 403.1 176.72 404.16 176.57 404.66 176.77 405.84 177.8 406.31 177.95 406.81 177.91 409.11 177.37 409.51 177.15 410.64 175.6 410.76 175.22 410.78 174.46 410.97 173.69 411.47 173.27 411.76 173.21 412.2 173.11 413.06 173.07 412.82 172.3 413.31 172.09 413.98 172.07 414.32 171.92 414.55 171.7 415.03 172.17 415.47 172.8 415.57 173.07 416.13 173.1 418.76 172.79 418.97 172.94 419.2 173.24 419.49 173.52 419.9 173.58 420.24 173.39 420.28 173.14 420.25 172.85 420.4 172.56 421.02 172.24 421.89 172 423.6 171.8 424.43 171.59 425.01 171.09 425.48 170.49 426.02 169.98 426.82 169.54 427.27 169.45 427.67 169.63 428.35 170.2 428.64 170.59 428.43 170.77 428.1 171.16 428.45 172.04 429.97 174.52 430.43 175.07 431.47 175.46 432.19 175.86 432.92 176.37 433.39 176.87 433.66 177.1 433.88 177.25 434.67 176.64 435.1 176.66 435.31 177.43 435.41 177.6 435.58 177.83 435.71 177.95 436.19 178.26 437.19 178.13 437.87 177.89 438.29 177.87 438.54 177.93 438.72 178.1 438.85 178.24 439.51 178.61 Z" id="ZAF-1206" data-name="Free State"/>
<path d="M 439.51 178.61 438.85 178.24 438.72 178.1 438.54 177.93 438.29 177.87 437.87 177.89 437.19 178.13 436.19 178.26 435.71 177.95 435.58 177.83 435.41 177.6 435.31 177.43 435.1 176.66 434.67 176.64 433.88 177.25 433.66 177.1 433.39 176.87 432.92 176.37 432.19 175.86 431.47 175.46 430.43 175.07 429.97 174.52 428.45 172.04 428.1 171.16 428.43 170.77 428.64 170.59 428.35 170.2 427.67 169.63 427.27 169.45 426.82 169.54 426.02 169.98 425.48 170.49 425.01 171.09 424.43 171.59 423.6 171.8 421.89 172 421.02 172.24 420.4 172.56 420.25 172.85 420.28 173.14 420.24 173.39 419.9 173.58 419.49 173.52 419.2 173.24 418.97 172.94 418.76 172.79 416.13 173.1 415.57 173.07 415.47 172.8 415.03 172.17 414.55 171.7 414.32 171.92 413.98 172.07 413.31 172.09 412.82 172.3 413.06 173.07 412.2 173.11 411.76 173.21 412.1 168.38 411.99 167.46 412.48 166.5 413.07 165.98 413.24 163.89 413.4 163.43 413.49 163.28 413.62 163.25 413.76 163.09 414.15 162.9 414.36 161.74 411.05 161.69 410.68 161.41 410.22 161.21 410.03 160.92 409.9 160.76 409.3 160.28 404.76 161.52 404.08 162.19 402.29 162.91 401.82 163.18 401.35 163.34 400.09 163.6 399.8 163.39 399.63 163.34 399.64 163.22 399.64 163.09 399.49 162.52 399.3 162 397.95 159.62 399.86 158.07 403.1 155.97 401.81 150.86 404.11 150.65 404.72 149.89 405.97 149.48 406.89 148.39 407.78 144.71 408.74 140.46 411.19 138.92 414.27 137.87 414.88 138.61 415.87 139.11 416.65 139.74 418.03 139.68 418.69 140.21 421.57 139.75 424.18 139.27 424.76 138.81 425.98 138.43 426.67 137.55 426.84 136.8 426.8 136.12 426.73 135.7 426.81 135.51 426.85 135.45 427.08 135.36 427.42 135.13 427.46 134.86 427.36 134.38 427.18 133.94 426.01 131.39 428.81 130.82 429.75 130.24 430.64 129.47 431.62 128.16 431.84 127.2 431.82 126.58 431.71 126.28 431.67 126.19 431.18 124.13 431.16 123.48 431.48 122.94 432.42 122.53 433.17 122.44 433.53 122.6 433.5 122.99 433.12 123.41 433.13 123.9 433.36 124.18 433.99 124.15 434.36 123.96 434.84 123.8 436.84 123.68 437.8 123.42 439.32 122.44 439.69 119.38 442.29 119.14 442.7 119.57 444.87 119.57 446.81 118.72 447.42 117.98 448.35 117.62 450.28 117.51 451.47 117.7 452.69 117.37 453.13 117.09 453.33 116.94 453.4 116.8 453.37 116.64 453.31 116.05 452.61 115.66 451.94 114.77 451.63 114.46 451.27 113.48 451.97 113.23 455.19 112.84 456.69 111.88 459.57 111.72 460.44 112.85 460.68 113.22 460.99 113.29 461.95 112.79 462.5 112.62 462.85 112.69 463.01 112.91 462.94 113.25 462.76 113.52 462.26 113.99 462.14 114.23 462.13 114.59 462.21 115.17 462.17 115.71 462.05 116.07 461.85 116.25 461.67 116.3 461.5 116.16 461.06 115.48 460.72 115.27 460.29 115.59 460.43 116.73 460.72 117.54 460.75 117.98 460.65 118.4 460.41 118.8 460.1 119.14 458.58 120.29 458.68 121.03 460.83 121.8 462.44 121.35 463.27 120.72 464.7 120.63 465.62 120.37 467.43 120.86 468.32 120.38 471.12 119.71 471.78 119.79 473.1 120.21 474.32 120.05 474.99 120.35 475.03 120.97 474.75 121.68 473.91 123.29 471.81 123.18 471.06 123.93 470.81 124.52 470.38 125.22 469.46 125.51 469.25 125.96 469.11 126.09 469.2 126.26 469.04 126.53 468.87 127.33 467.83 128.4 467.07 130.85 465.01 132.61 464.5 133.64 464.69 134.54 464.34 136.02 463.73 137.32 463.71 138.11 463.59 138.97 463.34 139.41 462.8 140.05 461.5 140.85 460.17 144.21 459.87 145.61 457.18 145.55 456.52 145.03 455.46 144.84 455.12 144.73 451.13 144.71 450.97 144.85 449.97 146.05 449.62 146.83 449.19 147.54 448.7 147.71 447.38 147.69 446.89 147.81 446.45 147.96 445.52 148.59 446.34 150.32 446.83 150.57 447.48 151.87 447.89 153.22 448.36 153.93 450.25 155.1 450.49 155.35 450.67 155.71 450.7 156.88 453.17 157.31 454.77 157.76 459.17 157.18 460.78 160.19 456.98 162.98 456.58 163.37 456.34 163.54 455.84 164.03 452.18 164.77 451.62 165.28 450.15 165.34 448.93 165.75 448.15 166.41 447.59 167.46 447.4 167.6 447.1 167.67 446.5 167.86 446.09 168.19 445.61 168.89 444.75 169.28 442.81 170.66 442 172.26 441.99 172.52 442.02 172.54 442.09 172.57 442.21 172.7 442.33 173.04 442.23 173.7 441.27 174.29 440.76 174.93 440.07 175.49 439.9 176.44 440.06 176.98 439.51 178.61 Z" id="ZAF-1208" data-name="Gauteng"/>
<path d="M 574.47 80.78 575.77 83.36 576.71 86.21 576.91 89.08 576.6 91.63 576.64 96.8 576.67 103.05 576.7 107.48 576.73 113.38 576.79 121.44 576.16 123.26 576.01 124.19 575.96 125.41 576.1 126.57 576.49 127.34 576.7 128.11 577.05 130.44 577.05 131.25 576.9 131.74 576.64 131.97 576.28 132.17 575.81 132.58 575.52 133.03 573.94 136.75 573.71 137.78 573.87 138.89 575.32 143.17 573.2 144.12 572.14 144.35 571.07 144.05 567.82 142.15 567.21 141.8 563.8 139.8 559.87 137.51 555.94 135.21 555 134.92 553.91 134.94 552.62 135.25 551.58 135.72 547.84 138.73 544.55 141.38 544.07 142.16 543.5 144.11 541.51 148.43 538.99 152.48 536.3 155.54 536.29 155.54 532.85 159.47 532.05 162.25 532.1 166.2 532.15 171.32 532.52 173.87 532.77 174.73 533.42 174.7 534.04 174.59 534.66 174.28 535.23 173.84 535.66 173.37 535.85 173.87 536.49 175.56 536.98 176.24 538.04 177.24 538.44 177.79 538.66 178.53 538.61 179.45 538.23 180.91 538.38 181.83 539.22 183.12 543.03 186.21 544.8 188.6 545.37 189.11 545.93 189.45 549.18 190.45 547.07 192.85 545.71 193.84 544.02 193.84 542.93 194.11 542.36 194.26 539.36 194.98 538.38 194.85 537.45 194.23 537.03 193.65 536.45 193.37 535.05 193.66 534.59 193.9 534.27 194.14 533.92 194.22 533.38 194.01 532.5 193.5 531.14 192.9 530.88 192.83 530.38 192.54 529.96 192.38 528.64 192.01 528.21 192.01 527.56 192.09 526.5 192.38 526.01 192.57 525.7 192.74 525.15 193.27 524.33 193.36 521.69 193.03 519.47 193.28 518.91 193.03 518.82 192.88 518.73 192.67 518.72 192.23 518.68 192.03 518.56 191.89 518.37 191.8 517.69 191.66 517.42 191.68 517.12 191.75 516.75 192.03 516.36 192.4 516.17 192.49 515.29 192.47 515.03 192.51 514.75 192.59 514.35 192.78 513.97 192.91 513.43 193.03 512.77 193.4 511.6 194.22 511.3 194.35 509.31 195.06 509.15 195.17 509.02 195.31 508.91 195.47 508.73 195.81 507.95 195.89 505.08 195.19 504.53 195.46 503.84 195.91 503.63 195.99 503.4 196.02 501.42 195.61 501.07 195.49 500.83 195.38 500.59 195.37 500.38 195.34 498.85 195.73 498.2 195.82 497.95 195.88 497.69 196 497.4 196.21 497.18 196.55 497.05 196.8 496.84 197.4 496.47 198.09 496.15 198.56 495.87 198.84 495.48 198.96 494.51 198.6 493.67 198.42 493.07 198.41 492.82 198.45 492.36 198.57 492.17 198.66 492 198.76 491.85 198.9 491.75 199.05 491.68 199.22 491.67 199.41 491.7 199.79 491.67 199.98 491.55 200.1 491.37 200.15 490.91 200.13 490.67 200.15 490.47 200.21 490.31 200.29 490.23 200.34 489.97 200.57 489.8 200.66 489.61 200.74 489.37 200.78 489.12 200.76 488.73 200.44 486.26 197.65 486.11 197.52 485.98 197.39 485.87 197.22 485.81 197.04 485.87 196.8 485.96 196.62 486.03 196.45 485.98 196.27 485.71 196.06 485.25 195.82 485.07 195.68 483.88 194.52 483.83 194.35 483.89 194.11 483.89 193.9 483.81 193.72 483.57 193.56 483.38 193.37 483.22 193.14 483.04 192.44 482.86 191.9 482.31 191.22 481.05 190.52 480.76 190.42 480.23 190.36 479.97 190.43 479.32 190.67 479.08 190.72 478.82 190.74 478.57 190.69 478.36 190.59 478.23 190.34 478.22 190.12 478.28 189.92 478.36 189.78 478.39 189.64 478.3 189.52 478.11 189.4 477.83 189.31 477.01 189.16 476.76 188.96 476.6 188.8 476.37 188.63 476 188.46 475.28 188.26 474.75 187.94 474.46 187.71 474.18 187.35 474.03 187.23 473.74 187.12 473.32 187.03 472.49 186.95 471.66 186.96 471.2 187.08 471.02 187.17 470.72 187.43 470.56 187.53 470.34 187.54 470.08 187.44 469.79 187.12 469.64 186.91 469.3 186.29 468.99 185.52 468.8 185.17 468.69 185.01 468.55 184.87 468.24 184.64 468.14 184.48 468.1 184.29 468.13 183.87 468.1 183.76 467.98 183.46 468.03 182.95 467.86 182.81 467.55 182.8 467.2 182.69 465.54 181.68 464.81 181.61 464.36 181.64 464.02 181.82 463.65 182.14 463.32 182.25 463 182.3 462.64 182.46 462.37 182.73 461.93 183.28 461.6 183.46 461.22 183.46 461 183.28 460.8 183.06 460.47 182.95 460.12 183.04 459.73 183.2 459.32 183.27 458.93 183.09 458.53 182.76 458.26 182.67 457.97 182.63 457.53 182.46 454.66 180.76 452.98 180.18 451.93 180.69 451.8 181.06 451.9 181.06 452.15 181 452.46 181.18 453.1 181.71 453.2 182.04 452.59 182.19 451.8 182.18 451.28 182.24 450.8 182.46 449.09 183.83 448.64 183.99 448.91 183.12 449.2 182.64 449.08 182.34 448.06 181.94 447.88 181.54 447.44 181.18 447.07 180.7 446.87 180.56 446.62 180.47 446.15 180.49 445.88 180.56 445.67 180.69 445.28 181.11 445.11 181.22 444.89 181.25 444.62 181.18 444.28 180.88 444.09 180.67 443.97 180.45 443.88 180.27 443.71 179.63 443.48 179.46 443.11 179.33 442.27 179.28 441.44 179.33 440.79 179.24 439.51 178.61 440.06 176.98 439.9 176.44 440.07 175.49 440.76 174.93 441.27 174.29 442.23 173.7 442.33 173.04 442.21 172.7 442.09 172.57 442.02 172.54 441.99 172.52 442 172.26 442.81 170.66 444.75 169.28 445.61 168.89 446.09 168.19 446.5 167.86 447.1 167.67 447.4 167.6 447.59 167.46 448.15 166.41 448.93 165.75 450.15 165.34 451.62 165.28 452.18 164.77 455.84 164.03 456.34 163.54 456.58 163.37 456.98 162.98 460.78 160.19 459.17 157.18 454.77 157.76 453.17 157.31 450.7 156.88 450.67 155.71 450.49 155.35 450.25 155.1 448.36 153.93 447.89 153.22 447.48 151.87 446.83 150.57 446.34 150.32 445.52 148.59 446.45 147.96 446.89 147.81 447.38 147.69 448.7 147.71 449.19 147.54 449.62 146.83 449.97 146.05 450.97 144.85 451.13 144.71 455.12 144.73 455.46 144.84 456.52 145.03 457.18 145.55 459.87 145.61 460.17 144.21 461.5 140.85 462.8 140.05 463.34 139.41 463.59 138.97 463.71 138.11 463.73 137.32 464.34 136.02 464.69 134.54 464.5 133.64 465.01 132.61 467.07 130.85 467.83 128.4 468.87 127.33 469.04 126.53 469.2 126.26 469.11 126.09 469.25 125.96 469.46 125.51 470.38 125.22 470.81 124.52 471.06 123.93 471.81 123.18 473.91 123.29 474.75 121.68 475.03 120.97 474.99 120.35 474.32 120.05 473.1 120.21 471.78 119.79 471.12 119.71 468.32 120.38 467.43 120.86 465.62 120.37 464.7 120.63 463.27 120.72 462.44 121.35 460.83 121.8 458.68 121.03 458.58 120.29 460.1 119.14 460.41 118.8 460.65 118.4 460.75 117.98 460.72 117.54 460.43 116.73 460.29 115.59 460.72 115.27 461.06 115.48 461.5 116.16 461.67 116.3 461.85 116.25 462.05 116.07 462.17 115.71 462.21 115.17 462.13 114.59 462.14 114.23 462.26 113.99 462.76 113.52 462.94 113.25 463.01 112.91 462.85 112.69 462.5 112.62 461.95 112.79 460.99 113.29 460.68 113.22 460.44 112.85 459.57 111.72 456.69 111.88 455.19 112.84 451.97 113.23 451.27 113.48 447.98 114.44 447.57 114.64 446.92 115.07 446.14 115.43 444.88 115.75 443.34 115.92 442.49 115.7 442.08 115.04 441.95 114.62 442.14 114.19 442.65 113.82 443.98 113.34 445.41 112.62 445.82 111.97 446.52 111.62 447.42 111.32 448.4 111.12 449.91 110.65 450.57 110.07 450.81 108.94 450.8 108.33 450.96 107.73 454.07 106.44 455.16 105.83 455.94 105.49 456.86 105.27 457.68 105.22 459.69 105.4 462.59 105.22 463.54 105.58 463.53 103.37 465.21 103.19 466.38 103.37 466.97 104.22 467.27 104.38 468.66 106.87 471.85 105.5 472.2 105.14 472.92 103.52 473.07 102.7 473.65 102.06 474.62 101.28 477.46 100.55 479.05 99.59 481.76 98.63 481.81 99.75 482.04 100.8 482.03 101.32 481.98 101.65 481.71 101.92 481.56 102.04 481.38 102.14 481.2 102.22 481.01 102.25 480.83 102.19 480.55 101.96 480.42 101.88 480.26 101.91 480.06 102.07 479.82 102.32 479.44 102.81 479.32 103.12 479.3 103.39 480.01 104.83 480.09 105.1 480.14 105.44 480.14 106.06 480.08 106.38 479.98 106.62 479.83 106.73 479.62 106.83 479.56 106.86 479.1 107.27 478.98 107.49 478.98 107.55 479.08 107.85 479.18 107.97 479.26 108.05 479.42 108.07 479.59 108 480.23 107.59 480.32 107.51 480.61 107.45 480.93 107.48 482.84 109.32 483.17 110.13 483.79 110.92 484.12 111.2 484.41 111.25 484.78 111.45 485.36 111.92 486.6 113.23 487.59 114.1 489.34 114.52 491.78 114.78 494.86 113.93 495.32 112.95 496.04 112.63 496.3 111.71 495.43 110.65 494.97 110.35 494.66 109.89 494.86 109.2 495.98 108.72 496.66 107.82 496.67 107.61 500.63 104.53 505.54 101.13 507.35 100.15 507.97 99 508.07 97.79 507.2 96.26 507.3 93.18 508.75 92.59 509.42 92.39 510.08 92.68 510.95 93.24 511.39 93.28 511.75 93.08 512.44 92.2 513.83 92.16 515.55 91.91 517.04 91.49 521.42 92.45 523.24 93.2 524.75 92.71 525.41 92.11 525.81 91.17 526.05 90.37 526.89 89.97 527.49 90.19 529.98 89.59 530.21 88.03 530.43 87.48 531.17 86.13 534.03 88.75 535.24 89.29 538.89 90.07 539.54 91.14 542.06 91.55 543.11 93.71 543.76 94.34 544.42 94.78 545.11 94.87 545.89 94.78 546.3 94.81 546.64 94.95 546.84 95.34 546.59 95.91 545.9 96.8 543.95 97.33 543.39 97.84 543.65 98.65 545.05 99.08 545.8 99.66 546.21 100.18 546.76 102.05 547.46 103.5 548.25 104.17 547.93 104.91 545.97 105.29 544.69 105.87 544.27 106.76 544.2 108.73 548.34 108.41 549.41 108.15 549.51 107.99 549.56 107.83 549.6 107.64 549.63 107.57 549.73 107.47 549.96 107.27 550.16 107.2 550.37 107.17 551.08 107.2 551.36 107.11 551.59 106.99 551.82 106.84 552.05 106.8 554.58 106.77 555.72 106.98 556.1 107.12 557.54 105.24 557.44 104.53 557.41 103.56 557.02 103.04 555.05 102.61 554.27 102.35 553.73 102.31 553.32 101.99 553.24 101.2 553.66 99.09 554.99 98.26 556.7 97.83 558.26 97.62 559.29 97.25 559.74 96.24 560.09 95.71 560.54 95.44 561.2 95.46 561.8 95.35 562.18 95.04 562.35 94.62 562.07 94.06 561.41 93.23 557.28 90.69 556.98 90.1 556.91 89.49 556.96 89.21 557.05 89.02 556.83 88.87 556.84 88.52 554.03 88.45 555.03 86.83 554.39 85.67 556.83 80.06 557 77.83 557.87 76.18 556.89 74.86 554.67 74.51 549.32 74.25 550.33 73.38 550.9 73.26 552.3 73.5 552.55 73.46 552.75 73.36 553.08 73.05 553.34 72.86 553.8 72.57 554.09 72.5 554.36 72.53 554.6 72.61 554.98 72.67 555.22 72.62 555.41 72.52 555.71 72.28 556.32 71.63 556.64 71.35 556.86 71.31 557.07 71.35 557.47 71.46 557.68 71.49 558.75 71.8 559.28 72.09 559.55 72.18 560.03 72.23 560.29 72.11 560.85 71.77 561.11 71.73 561.3 71.81 561.55 72.12 561.7 72.27 561.97 72.37 562.18 72.36 562.38 72.28 562.5 72.14 562.92 71.52 563.08 71.36 563.29 71.21 563.61 71.02 563.87 70.99 564.11 71 564.3 71.08 564.45 71.2 564.56 71.35 564.63 71.56 564.67 71.79 564.82 72.03 565.1 72.23 565.81 72.39 566.2 72.41 566.53 72.37 566.72 72.28 566.88 72.18 566.99 72.05 567.04 71.93 567.27 70.8 567.33 70.65 567.38 70.57 569.04 69.23 569.28 69.16 569.47 69.16 569.85 69.34 570.06 69.41 570.53 69.43 571.1 69.4 571.43 69.33 571.74 69.21 571.87 69.14 571.88 69.14 572.13 75.02 572.36 76.59 574.47 80.78 Z" id="ZAF-1209" data-name="Mpumalanga"/>
<path d="M 543.71 8.73 543.98 8.68 545.21 8.12 545.77 8.05 546.17 8.28 546.92 9.13 547.18 9.32 547.45 9.39 548.02 9.74 548.32 9.85 548.62 9.81 549.22 9.57 549.59 9.59 549.96 9.87 550.82 11.05 550.46 11.72 552.1 16.45 554.01 21.97 555.92 27.48 557.45 31.89 560 39.24 560.23 40.36 559.45 48.83 559.68 50.36 560.37 51.68 563.93 55.22 564.67 56.56 566.1 61.2 567.6 64.46 568.12 65.24 568.82 65.84 571.22 67.46 571.66 67.94 571.86 68.53 571.88 69.14 571.87 69.14 571.74 69.21 571.43 69.33 571.1 69.4 570.53 69.43 570.06 69.41 569.85 69.34 569.47 69.16 569.28 69.16 569.04 69.23 567.38 70.57 567.33 70.65 567.27 70.8 567.04 71.93 566.99 72.05 566.88 72.18 566.72 72.28 566.53 72.37 566.2 72.41 565.81 72.39 565.1 72.23 564.82 72.03 564.67 71.79 564.63 71.56 564.56 71.35 564.45 71.2 564.3 71.08 564.11 71 563.87 70.99 563.61 71.02 563.29 71.21 563.08 71.36 562.92 71.52 562.5 72.14 562.38 72.28 562.18 72.36 561.97 72.37 561.7 72.27 561.55 72.12 561.3 71.81 561.11 71.73 560.85 71.77 560.29 72.11 560.03 72.23 559.55 72.18 559.28 72.09 558.75 71.8 557.68 71.49 557.47 71.46 557.07 71.35 556.86 71.31 556.64 71.35 556.32 71.63 555.71 72.28 555.41 72.52 555.22 72.62 554.98 72.67 554.6 72.61 554.36 72.53 554.09 72.5 553.8 72.57 553.34 72.86 553.08 73.05 552.75 73.36 552.55 73.46 552.3 73.5 550.9 73.26 550.33 73.38 549.32 74.25 554.67 74.51 556.89 74.86 557.87 76.18 557 77.83 556.83 80.06 554.39 85.67 555.03 86.83 554.03 88.45 556.84 88.52 556.83 88.87 557.05 89.02 556.96 89.21 556.91 89.49 556.98 90.1 557.28 90.69 561.41 93.23 562.07 94.06 562.35 94.62 562.18 95.04 561.8 95.35 561.2 95.46 560.54 95.44 560.09 95.71 559.74 96.24 559.29 97.25 558.26 97.62 556.7 97.83 554.99 98.26 553.66 99.09 553.24 101.2 553.32 101.99 553.73 102.31 554.27 102.35 555.05 102.61 557.02 103.04 557.41 103.56 557.44 104.53 557.54 105.24 556.1 107.12 555.72 106.98 554.58 106.77 552.05 106.8 551.82 106.84 551.59 106.99 551.36 107.11 551.08 107.2 550.37 107.17 550.16 107.2 549.96 107.27 549.73 107.47 549.63 107.57 549.6 107.64 549.56 107.83 549.51 107.99 549.41 108.15 548.34 108.41 544.2 108.73 544.27 106.76 544.69 105.87 545.97 105.29 547.93 104.91 548.25 104.17 547.46 103.5 546.76 102.05 546.21 100.18 545.8 99.66 545.05 99.08 543.65 98.65 543.39 97.84 543.95 97.33 545.9 96.8 546.59 95.91 546.84 95.34 546.64 94.95 546.3 94.81 545.89 94.78 545.11 94.87 544.42 94.78 543.76 94.34 543.11 93.71 542.06 91.55 539.54 91.14 538.89 90.07 535.24 89.29 534.03 88.75 531.17 86.13 530.43 87.48 530.21 88.03 529.98 89.59 527.49 90.19 526.89 89.97 526.05 90.37 525.81 91.17 525.41 92.11 524.75 92.71 523.24 93.2 521.42 92.45 517.04 91.49 515.55 91.91 513.83 92.16 512.44 92.2 511.75 93.08 511.39 93.28 510.95 93.24 510.08 92.68 509.42 92.39 508.75 92.59 507.3 93.18 507.2 96.26 508.07 97.79 507.97 99 507.35 100.15 505.54 101.13 500.63 104.53 496.67 107.61 496.66 107.82 495.98 108.72 494.86 109.2 494.66 109.89 494.97 110.35 495.43 110.65 496.3 111.71 496.04 112.63 495.32 112.95 494.86 113.93 491.78 114.78 489.34 114.52 487.59 114.1 486.6 113.23 485.36 111.92 484.78 111.45 484.41 111.25 484.12 111.2 483.79 110.92 483.17 110.13 482.84 109.32 480.93 107.48 480.61 107.45 480.32 107.51 480.23 107.59 479.59 108 479.42 108.07 479.26 108.05 479.18 107.97 479.08 107.85 478.98 107.55 478.98 107.49 479.1 107.27 479.56 106.86 479.62 106.83 479.83 106.73 479.98 106.62 480.08 106.38 480.14 106.06 480.14 105.44 480.09 105.1 480.01 104.83 479.3 103.39 479.32 103.12 479.44 102.81 479.82 102.32 480.06 102.07 480.26 101.91 480.42 101.88 480.55 101.96 480.83 102.19 481.01 102.25 481.2 102.22 481.38 102.14 481.56 102.04 481.71 101.92 481.98 101.65 482.03 101.32 482.04 100.8 481.81 99.75 481.76 98.63 479.05 99.59 477.46 100.55 474.62 101.28 473.65 102.06 473.07 102.7 472.92 103.52 472.2 105.14 471.85 105.5 468.66 106.87 467.27 104.38 466.97 104.22 466.38 103.37 465.21 103.19 463.53 103.37 463.54 105.58 462.59 105.22 459.69 105.4 457.68 105.22 456.86 105.27 455.94 105.49 455.16 105.83 454.07 106.44 450.96 107.73 450.8 108.33 450.81 108.94 450.57 110.07 449.91 110.65 448.4 111.12 447.42 111.32 446.52 111.62 445.82 111.97 445.41 112.62 443.98 113.34 442.65 113.82 442.14 114.19 441.95 114.62 442.08 115.04 442.49 115.7 443.34 115.92 444.88 115.75 446.14 115.43 446.92 115.07 447.57 114.64 447.98 114.44 451.27 113.48 451.63 114.46 451.94 114.77 452.61 115.66 453.31 116.05 453.37 116.64 453.4 116.8 453.33 116.94 453.13 117.09 452.69 117.37 451.47 117.7 450.28 117.51 448.35 117.62 447.42 117.98 446.81 118.72 444.87 119.57 442.7 119.57 442.29 119.14 439.69 119.38 437.36 115.99 436.79 115.67 436 115.34 434.76 115.52 433.99 115.41 433.53 115.04 433.2 114.19 432.74 113.66 431.91 113.15 431.78 112.42 432.04 111.91 432.87 111.63 433.41 111.69 434.18 112.06 434.85 112.45 435.38 112.61 436.17 112.57 436.65 112.23 436.9 111.51 437.03 110.5 436.48 109.78 435.38 109.15 432.44 107.96 431.14 107.62 429.31 107.51 427.53 107.06 426.7 107.15 426.2 107.4 426.01 107.54 425.97 107.61 425.96 107.63 425.92 107.67 425.71 107.73 425.32 107.74 419.78 107.13 419.15 107.23 418.6 107.47 418.43 107.57 417.98 107.89 416.46 106.53 415.58 106.7 414.79 106.72 413.99 107.02 413.62 107.24 413.48 107.5 413.47 107.58 413.47 107.62 413.5 107.86 413.47 108.37 413.26 109.12 411.94 111.06 411.52 111.38 411.22 111.48 410.98 111.45 410.76 111.39 410.6 111.28 410.49 111.13 410.41 110.94 410.17 109.98 409.79 109.68 408.11 109.92 405.29 109.81 402.43 107.86 398.46 107.28 397.99 106.93 397.7 106.46 397.16 105.33 395.95 104.18 394.65 103.45 393.75 102.04 393.29 98.31 393.01 97.62 392.55 97.38 391.97 97.52 391.59 97.85 391.2 98.77 389.63 99.81 385.35 101.51 383.09 102.65 382.52 102.77 381.58 102.67 380.85 102.5 379.89 102.08 378.72 101.43 377.83 101.21 371.49 100.65 371.1 100.52 370.86 99.67 369.82 98.03 369.58 97.03 369.58 93.99 369.59 93.99 372.01 91.72 372.28 91.29 373.37 88.65 374.3 87.53 375.31 86.77 377.72 85.33 379.97 83.18 380.3 82.63 381.08 82.24 384.36 81.26 385.14 80.86 385.73 80.37 386.12 79.72 386.83 76.46 386.9 74.81 389.51 64.96 389.65 63.96 389.4 63.2 390.45 61.43 390.38 61.13 390.29 60.77 390.48 60.08 391.19 58.9 391.85 57.37 392.21 57.1 392.59 57.25 392.8 57.7 393.09 58.11 393.73 58.14 394.29 57.75 394.27 57.22 394.04 56.57 393.98 55.84 394.23 55.94 394.48 56.09 394.6 55.75 394.81 55.53 395.5 55.07 395.25 55.07 395.54 54.62 395.9 54.35 396.31 54.31 396.77 54.57 396.93 54.13 396.73 53.89 396.42 53.64 396.26 53.19 396.42 52.89 396.8 52.83 397.23 52.98 397.53 53.32 397.69 53.07 397.96 52.76 398.05 52.54 398.32 52.84 398.62 52.98 398.95 52.97 399.32 52.82 398.8 52.1 399.21 51.67 400.59 51.27 402.01 50.61 402.66 50.17 403.27 49.63 404.14 48.34 404.68 47.94 405.09 49.09 405.47 48.88 405.82 48.45 405.93 48.24 406.38 48.03 406.92 47.86 407.22 47.93 406.95 48.47 407.47 48.72 407.83 48.5 408.14 48.07 408.49 47.71 408.97 47.53 410.51 47.48 411.31 47.25 412.06 46.8 412.61 46.13 412.82 45.3 412.76 45.05 412.65 44.76 412.59 44.51 412.69 44.41 412.83 44.35 412.96 44.19 413.04 43.98 413.07 43.77 413.23 43.2 413.93 42.49 414.25 41.45 414.67 41.46 415.2 41.7 415.7 41.85 416.13 41.7 417.61 40.59 418.62 41.64 419.12 41.85 419.66 41.6 419.87 41.26 420.42 39.83 420.48 39.81 420.76 39.6 420.8 39.55 420.98 39.49 420.91 39.34 420.75 39.18 420.67 39.07 420.6 38.89 420.43 38.63 420.33 38.35 420.42 38.05 420.82 38.12 421.61 38.17 422.2 37.97 421.96 37.3 423.37 36.96 424.92 36.36 426.2 35.53 426.8 34.49 426.49 32.92 426.48 32.07 426.91 31.7 427.62 31.59 428.4 31.32 429.1 30.99 429.61 30.69 430.19 30.12 430.64 29.38 430.8 28.56 430.48 27.76 430.55 27.36 431.24 27.06 432.09 26.83 432.64 26.61 432.79 26.39 433 25.82 433.15 25.6 433.46 25.45 433.83 25.37 434.21 25.24 434.55 24.95 434.83 24.47 434.83 24.17 434.72 23.89 434.65 23.43 434.72 22.95 434.91 22.6 436.08 21.23 436.42 21.02 436.82 20.91 437.73 20.83 438.09 20.63 439.44 19.16 439.99 18.71 441.36 18 442.78 17.64 445.84 17.44 448.18 18.01 448.78 17.84 449.57 17.2 450.23 17.09 450.95 17.19 451.94 17.19 453.25 16.79 455.93 15.38 457.54 14.91 458.36 14.79 459.1 14.6 459.64 14.2 459.84 13.49 460.21 13 461.05 12.96 462.65 13.14 463.32 12.67 464.17 11.18 464.54 10.86 464.71 10.42 464.42 7.82 465.3 6.77 466 6.08 466.57 5.77 466.56 5.6 467.34 4.62 467.67 4.48 472.16 4.25 472.82 4.01 473.42 3.52 474.14 3.07 475.11 2.96 477.14 3.37 478.2 3.46 478.89 3.24 479.14 3.39 479.38 3.44 479.92 3.47 480.72 3.07 482.08 2.36 482.85 2.2 484.71 2.62 485.63 2.71 486.03 2.34 486.34 1.72 487.05 1.58 488.31 1.69 489.68 1.1 490.44 1 491.11 1.44 491.55 1.28 494.06 1.16 494.81 1.37 496.97 2.71 498.23 2.96 499.14 3.41 500.48 3.52 501.02 3.67 502.04 4.25 502.4 4.39 503.2 4.55 503.58 4.73 504.28 5.44 504.33 5.61 504.42 5.72 505.52 5.85 506.07 6.06 507.12 6.78 508.01 7.2 508.67 7.25 510.31 7.04 511.23 7.1 511.92 7.3 512.47 7.61 513 8.05 514.16 8.81 515.43 9.1 516.81 9.05 518.31 8.81 519.02 8.6 520.41 8 521.12 7.82 521.83 7.8 524.23 8.06 525.3 8.05 525.65 8.13 526.21 8.5 526.47 8.58 527.02 8.42 528.02 7.76 528.75 7.54 532.88 7.24 534.09 6.78 535.17 7.06 537.4 7.28 541.44 8.17 542.71 8.69 543.36 8.81 543.71 8.73 Z" id="ZAF-1210" data-name="Limpopo"/>
<path d="M 581.43 175.89 582.52 176.1 584.41 175.9 585.48 175.94 588.18 176.33 590.28 176.64 594.6 176.53 599.4 176.4 604.61 176.27 610.34 176.11 609.88 177.63 609.31 182.47 608.63 184.83 608.54 185.63 608.35 186.41 607.03 188.06 606.93 188.38 606.77 189.46 606.69 189.77 606.35 190.34 606.18 191.32 602.31 201.14 599.74 212.01 599.68 212.84 599.61 213.22 599.26 214.1 599.15 214.5 599.15 214.96 599.36 215.65 599.41 216.05 597.63 225.29 597.39 225.98 594.27 230.31 594.06 230.9 593.92 231.75 593.5 232.53 592.87 233.1 592.04 233.32 592.17 233.68 592.31 233.78 592.5 233.72 592.8 233.57 593.1 234.86 592.69 236.23 592.08 237.58 591.76 238.79 591.28 239.44 588.08 242.34 587.6 242.67 586.4 243.19 585.93 243.47 585.57 243.88 584.88 244.95 584.39 245.5 580.31 248.59 579.3 247.85 577.83 248.05 576.98 248.84 577.81 249.85 578.1 249.53 578.59 249.15 579.19 248.87 579.81 248.81 579.1 250.01 577.65 251.07 573.06 253.24 571.72 253.48 570.3 253.43 568.64 253.14 568.69 253.46 568.76 253.68 568.9 253.82 569.15 253.93 569.15 254.16 568.01 254.78 560.79 262.03 559.04 263.41 558.45 263.66 558.23 263.81 558.14 264.03 557.99 264.69 557.85 264.82 557.37 265.11 555.95 266.87 555.41 267.28 554.15 267.97 553.65 268.37 553.46 268.73 553.26 269.51 552.8 269.76 552.5 269.99 552.22 270.28 551.93 270.94 547.04 276.82 542.16 285.33 541.78 286.81 542.18 288.24 540.69 288.24 540.33 288.54 540.15 289.51 540.71 289.24 541.98 288.87 542.45 288.47 542.45 288.75 542.39 289.01 542.27 289.27 541.94 289.74 540.99 290.75 537.13 293.82 536.05 294.99 534.26 297.71 532.18 301.94 526.81 310.18 526.06 311.69 525.92 312.25 525.62 312.78 523.87 314.42 517.56 324.56 516.51 325.86 515.92 326.4 515.38 326.61 514.89 326.98 513.71 329.16 510.27 333.12 510.14 332.94 509.67 332.68 509.54 332.59 509.41 332.42 509.37 332.27 509.3 331.7 509.25 331.48 509.18 331.31 509.07 331.21 508.84 331.07 508.41 330.91 508.23 330.81 508.08 330.62 508 330.36 507.99 329.63 507.94 329.34 507.7 329.04 507.63 328.6 507.62 328.31 507.66 328.05 507.67 327.8 507.62 327.53 507.46 327.18 507.06 326.72 506.17 326.17 505.72 326.1 505.56 325.84 505.49 325.62 505.48 325.4 505.43 325.19 505.36 325 505.26 324.83 505.11 324.7 504.89 324.62 503.99 324.59 503.74 324.5 503.5 324.36 503.24 324.11 503.06 324 502.88 324.02 502.72 324.09 502.5 324.13 502.27 324.09 502.05 323.99 501.88 323.76 501.78 323.54 501.65 323.31 501.47 323.11 501.09 322.93 500.97 322.66 500.93 322.44 500.94 322.22 500.88 322.05 500.72 321.96 500.44 322.01 500.21 322.08 500.01 322.18 499.69 322.18 499.3 322.08 498.6 321.73 497.73 321.1 496.41 320.38 495.89 320 495.8 319.79 495.61 319.58 495.35 319.43 494.65 319.42 494.35 319.52 494.14 319.69 494.04 319.8 493.9 319.83 493.36 319.53 492.83 319.4 491.96 319.04 491.42 318.93 491.01 318.72 490.68 318.61 490.41 318.56 489.17 318.83 488.91 318.85 488.59 318.79 488.25 318.67 487.37 318.11 486.17 317.74 483.56 316.14 483.36 316.07 483.12 316.04 482.89 316.05 482.69 316.12 482.51 316.21 481.82 316.62 481.62 316.7 481.39 316.76 481.12 316.77 479.46 316.76 479.24 316.81 479.07 316.92 478.82 317.23 478.67 317.35 478.49 317.44 478.27 317.48 478.01 317.48 477.78 317.44 476.88 317.14 475.57 316.46 469.75 315.1 469.37 314.95 469.08 314.77 469.04 314.39 469.07 313.81 469.03 313.54 468.95 313.21 468.76 312.97 468.54 312.82 466.13 311.77 465.95 311.74 465.82 311.74 465.65 311.79 465.49 311.89 465.35 312.03 465.25 312.21 465.22 312.45 465.19 313.61 465.15 313.82 465.08 314.04 464.99 314.23 464.87 314.39 464.7 314.49 464.47 314.51 460.91 313.88 460.72 313.78 460.56 313.65 460.18 313.23 459.3 311.97 459.13 311.87 458.89 311.84 458.35 311.84 458.08 311.8 457.85 311.75 457.66 311.64 457.5 311.47 457.34 311.24 457.06 310.68 457 310.5 457.02 310.15 457.42 308.83 457.48 308.41 457.45 308.12 456.82 307.16 456.73 306.97 456.76 306.65 456.92 306.2 457.91 304.22 458.02 304.11 458.19 304.14 460.7 305.09 460.91 305.13 461.24 304.92 461.61 304.49 462.33 303.46 462.72 303.13 463.04 303.01 463.45 303.18 463.69 303.12 463.99 302.92 464.41 302.29 464.67 301.99 464.89 301.78 465.46 301.52 465.63 301.42 465.77 301.32 465.85 301.18 465.84 301.06 465.74 300.84 465.5 300.49 465.44 300.34 465.45 300.17 465.64 300.03 465.82 299.95 466.33 299.78 466.68 299.6 467.18 299.26 467.35 299.18 467.58 299.16 468.29 299.29 468.51 299.27 468.72 299.16 469.21 298.38 469.34 298.23 470.13 297.62 470.27 297.46 470.38 297.25 470.44 296.92 470.45 296.64 470.37 296.33 470.19 296.03 468.63 294.81 466.74 292.74 466.48 292.34 469.39 290.77 469.84 290.59 470.83 290.34 471.25 290.15 471.49 289.83 471.4 289.47 470.99 288.76 470.91 288.23 470.94 287.9 470.83 287.64 470.36 287.32 469.82 286.66 469.84 285.77 470.07 284.79 470.11 283.96 470.12 283.86 470.81 282.75 471.28 281.7 471.88 280.77 472.96 280.03 475.82 279.26 476.24 278.79 476.23 278.18 476.29 277.6 476.89 277.24 476.36 276.66 476.11 275.78 476.11 275.63 476.12 274.82 476.39 274.05 477.17 273.35 478.22 272.95 479.32 272.65 480.3 272.27 480.72 271.99 481.03 271.67 481.21 271.25 481.18 270.71 481.25 270.13 481.94 269.27 482.07 268.73 481.96 268.52 481.46 268.09 481.3 267.86 481.26 267.59 481.29 267.03 481.26 266.8 480.88 266 479.85 264.77 479.44 263.46 479.16 262.83 478.65 262.33 478.07 261.94 477.65 261.5 477.47 259.36 476.34 258.95 474.86 258.91 473.63 258.59 470.57 255.75 469.3 255.23 468.46 255.04 467.97 254.74 467.75 254.27 467.74 253.54 467.4 253.17 466.6 252.84 465.73 252.63 465.19 252.65 463.15 250.82 461.66 248.5 461.18 248 460.67 247.61 460.93 247.18 461.7 245.4 461.92 244.71 462.02 244.48 462.18 244.24 463.14 243.48 463.26 243.31 463.36 243.1 463.38 242.77 463.36 241.99 463.46 241.72 463.65 241.47 464.4 240.89 464.9 240.25 467.48 239.42 469.43 239.07 469.67 239.09 470.53 239.33 470.75 239.37 471.07 239.34 471.47 239.25 472.15 239.02 472.56 238.93 472.91 238.79 473.13 238.61 473.31 238.19 473.34 237.9 473.3 237.68 473.16 237.41 473.11 237.29 473.07 237.12 473.1 236.94 473.27 236.58 473.66 236.11 474.45 235.35 474.61 235.23 475.26 235 477.2 234.7 478.46 233.29 478.66 233.14 478.92 232.98 479.4 232.77 480.35 232.48 481.01 232.17 481.57 231.67 484.02 228.88 484.24 228.71 484.67 228.51 485.15 228.4 487.3 228.29 487.75 228.21 487.79 228.19 487.84 228.16 488.02 227.93 488.25 227.56 488.7 226.68 489.01 226.19 489.5 225.69 490.53 225.04 490.77 224.58 490.96 223.41 490.8 222.8 490.6 222.42 490.48 222.27 490.33 222.15 489.53 221.58 489.39 221.44 489.28 221.29 489.18 221.12 489.11 220.92 489.06 220.71 489.11 220.32 489.28 219.85 489.71 218.92 490.19 218.23 490.35 218.11 490.48 217.98 490.6 217.77 490.64 217.49 490.56 216.12 490.6 215.86 490.68 215.6 490.89 215.29 491.31 214.77 491.59 214.25 492.17 212.76 492.34 212.48 492.5 212.29 492.61 212.12 492.68 211.91 492.63 211.59 492.56 211.4 492.1 211.02 491.97 210.62 491.97 210.1 492.14 208.64 492.14 208.39 492.1 208.16 492.02 207.97 491.92 207.79 491.44 207.19 491.34 207.01 491.27 206.82 491.23 206.61 491.25 206.37 491.34 206.12 491.56 205.84 491.75 205.66 492.08 205.39 492.25 205.29 494.34 204.28 494.5 204.17 494.61 203.89 494.65 203.46 494.5 202.5 494.36 202.07 494.19 201.79 494.01 201.69 492.75 201.3 492.56 201.22 492.47 201.03 492.48 200.74 492.64 200.24 492.67 199.95 492.59 199.74 492.74 199.38 494.51 198.6 495.48 198.96 495.87 198.84 496.15 198.56 496.47 198.09 496.84 197.4 497.05 196.8 497.18 196.55 497.4 196.21 497.69 196 497.95 195.88 498.2 195.82 498.85 195.73 500.38 195.34 500.59 195.37 500.83 195.38 501.07 195.49 501.42 195.61 503.4 196.02 503.63 195.99 503.84 195.91 504.53 195.46 505.08 195.19 507.95 195.89 508.73 195.81 508.91 195.47 509.02 195.31 509.15 195.17 509.31 195.06 511.3 194.35 511.6 194.22 512.77 193.4 513.43 193.03 513.97 192.91 514.35 192.78 514.75 192.59 515.03 192.51 515.29 192.47 516.17 192.49 516.36 192.4 516.75 192.03 517.12 191.75 517.42 191.68 517.69 191.66 518.37 191.8 518.56 191.89 518.68 192.03 518.72 192.23 518.73 192.67 518.82 192.88 518.91 193.03 519.47 193.28 521.69 193.03 524.33 193.36 525.15 193.27 525.7 192.74 526.01 192.57 526.5 192.38 527.56 192.09 528.21 192.01 528.64 192.01 529.96 192.38 530.38 192.54 530.88 192.83 531.14 192.9 532.5 193.5 533.38 194.01 533.92 194.22 534.27 194.14 534.59 193.9 535.05 193.66 536.45 193.37 537.03 193.65 537.45 194.23 538.38 194.85 539.36 194.98 542.36 194.26 542.93 194.11 544.02 193.84 545.71 193.84 547.07 192.85 549.18 190.45 550.5 190.86 553.34 191.73 557.15 192.9 559.64 193.36 563.74 193.41 569.14 193.47 572.7 193.52 576.03 193.56 576.01 193.07 575.9 192.64 575.72 192.25 575.46 191.85 575.25 191.3 575.16 188.55 575.14 187.85 575.06 185.56 575.71 182.15 576.29 179.1 576.92 175.82 576.84 174.71 579.33 174.72 579.92 174.82 580.83 175.64 581.43 175.89 Z M 492.06 312.21 493.7 311.71 494.81 311.57 496.09 311.8 497.09 312.29 498.18 313.02 498.96 313.32 500.01 313.47 501.28 314.17 501.78 314.26 502.15 314.2 502.78 313.81 503.11 313.42 503.45 312.82 503.62 311.8 503.81 311.2 503.9 310.75 504.47 310.66 504.6 310.34 504.59 310.15 504.55 309.86 504.45 309.48 504.45 309.22 504.53 309.05 504.7 309.02 505.08 309.12 505.28 309.13 505.49 309.09 505.62 308.97 505.73 308.82 505.82 308.64 505.94 308.49 506.07 308.37 506.25 308.34 506.43 308.39 506.76 308.59 506.94 308.63 507.09 308.58 507.13 308.42 507.1 308.22 506.95 307.82 506.78 307.57 506.5 307.29 505.89 306.83 505.53 306.64 505.22 306.51 505.02 306.37 504.85 306.17 504.73 305.75 504.77 305.5 504.87 305.3 505 305.16 505.11 305 505.15 304.85 505.1 304.7 504.8 304.63 504.53 304.6 504.26 304.63 504.08 304.73 503.85 305.02 503.7 305.09 503.53 305.04 503.19 304.86 503.02 304.73 502.9 304.57 502.86 304.28 502.88 304.08 502.78 303.84 502.58 303.6 502.13 303.27 501.83 303.18 501.55 303.14 501.36 303.14 501.26 303.13 501.09 303.02 500.08 302.15 500.02 302.09 499.96 301.98 500.04 301.77 500.17 301.62 500.39 301.53 500.61 301.51 500.78 301.54 500.87 301.56 500.97 301.6 501.09 301.64 501.25 301.64 501.29 301.51 501.14 301.27 500.33 300.58 500.05 300.27 499.5 299.42 499.14 299.15 498.52 298.92 498.4 298.86 498.1 298.67 497.92 298.46 497.74 298.18 497.28 296.77 497.04 296.38 496.42 295.95 495.22 296.35 494.65 296.35 491.92 296.03 490.17 295.6 487.36 294.32 486.47 294.08 485.88 294.02 484.43 293 484.1 293.21 483.39 294 483.58 294.6 483.94 295.07 483.82 295.74 482.41 297.31 482.29 298.4 482.36 299.73 483.84 300.83 484.56 301.58 485.08 302.62 485.13 303.43 486.08 306.17 487.64 307.76 489.34 311.78 491.19 312.2 492.06 312.21 Z" fill-rule="evenodd" id="ZAF-1216" data-name="KwaZulu-Natal"/>
<path d="M 491.92 296.03 494.65 296.35 495.22 296.35 496.42 295.95 497.04 296.38 497.28 296.77 497.74 298.18 497.92 298.46 498.1 298.67 498.4 298.86 498.52 298.92 499.14 299.15 499.5 299.42 500.05 300.27 500.33 300.58 501.14 301.27 501.29 301.51 501.25 301.64 501.09 301.64 500.97 301.6 500.87 301.56 500.78 301.54 500.61 301.51 500.39 301.53 500.17 301.62 500.04 301.77 499.96 301.98 500.02 302.09 500.08 302.15 501.09 303.02 501.26 303.13 501.36 303.14 501.55 303.14 501.83 303.18 502.13 303.27 502.58 303.6 502.78 303.84 502.88 304.08 502.86 304.28 502.9 304.57 503.02 304.73 503.19 304.86 503.53 305.04 503.7 305.09 503.85 305.02 504.08 304.73 504.26 304.63 504.53 304.6 504.8 304.63 505.1 304.7 505.15 304.85 505.11 305 505 305.16 504.87 305.3 504.77 305.5 504.73 305.75 504.85 306.17 505.02 306.37 505.22 306.51 505.53 306.64 505.89 306.83 506.5 307.29 506.78 307.57 506.95 307.82 507.1 308.22 507.13 308.42 507.09 308.58 506.94 308.63 506.76 308.59 506.43 308.39 506.25 308.34 506.07 308.37 505.94 308.49 505.82 308.64 505.73 308.82 505.62 308.97 505.49 309.09 505.28 309.13 505.08 309.12 504.7 309.02 504.53 309.05 504.45 309.22 504.45 309.48 504.55 309.86 504.59 310.15 504.6 310.34 504.47 310.66 503.9 310.75 503.81 311.2 503.62 311.8 503.45 312.82 503.11 313.42 502.78 313.81 502.15 314.2 501.78 314.26 501.28 314.17 500.01 313.47 498.96 313.32 498.18 313.02 497.09 312.29 496.09 311.8 494.81 311.57 493.7 311.71 492.06 312.21 491.19 312.2 489.34 311.78 487.64 307.76 486.08 306.17 485.13 303.43 485.08 302.62 484.56 301.58 483.84 300.83 482.36 299.73 482.29 298.4 482.41 297.31 483.82 295.74 483.94 295.07 483.58 294.6 483.39 294 484.1 293.21 484.43 293 485.88 294.02 486.47 294.08 487.36 294.32 490.17 295.6 491.92 296.03 Z M 267.03 440.82 267.03 440.82 266.99 439.65 267.03 439.13 268.76 436.79 264.19 434.93 263.47 433.99 262.09 433.52 261.18 433.39 260.24 433.68 256.88 433.41 258.27 432.16 258.71 431.61 259.51 430.86 266.22 428.33 266.75 427.44 264.91 425.37 264.19 422.84 262.27 421.53 259.51 420.49 252.99 419.24 244.38 418.91 239.77 419.46 233.99 419.34 233.51 417.91 233.83 416.6 240.16 407.99 240.73 406.5 240.17 404.96 241.33 403.49 241.55 402.35 243.31 400.33 244.12 399.91 245.48 399.52 246.03 398.72 246 397.41 245.8 396.51 245.84 396.29 245.95 396.34 246.11 396.49 246.26 396.61 246.4 396.75 246.52 396.89 246.79 397.43 247.08 397.82 247.54 398.26 247.89 398.23 248.64 398.03 250.52 397.32 253 397.14 255.41 397.3 257.02 395.84 255.49 394.59 254.85 393.35 253.6 392.1 253.75 390.35 253.53 389.09 253.01 387.45 252.08 386.08 252.09 384.49 252.28 383.09 253.97 381.87 255.35 380.49 258.07 380.73 259.87 379.96 265.6 379.39 266.88 378.72 268.28 376.22 270.06 375.07 271.37 374.61 274.62 375.58 276.13 375.8 281.45 373.81 282.27 372.66 283.73 371.97 284.11 371.02 284.03 370.46 284.02 369.59 284.49 369.12 284.64 368.41 284.6 367.96 284.92 367.45 285.61 367.18 286.18 366.71 287.12 365.54 286.84 364.62 286.04 363.66 285.06 363.19 285.2 362.05 285.66 361.57 285.88 360.79 286.24 360.55 285.84 359.54 286.11 358.36 287.12 358.02 289.35 358.03 292.8 356.92 298.92 356.38 299.4 350.75 299.84 348.69 300.57 347.78 301.08 345.93 301.11 345.14 306.2 345 308.78 344.67 310.4 343.93 311.84 343.6 312.73 342.69 314.23 342.11 316.3 340.77 316.87 340.58 319.84 340.04 325.47 337.71 330.48 338.68 331.56 338.05 331.85 336.2 333.18 334.88 334.02 333.76 334.21 332.87 334.77 332.15 335.2 331.33 335.01 330.08 336.03 328.7 336.29 327.8 335.99 326.34 335.6 325.4 335.73 324.67 336.62 323.71 336.85 322.88 336.08 321.88 335.41 321.17 334.83 315.88 336.26 315.69 336.87 315.71 338.98 315.49 340.17 315.63 340.32 315.8 340.39 316 340.52 316.9 340.59 317.11 340.68 317.28 340.83 317.4 341.03 317.49 341.97 317.65 342.19 317.71 342.91 318.12 343.35 318.26 344.4 318.38 345.15 318.1 346.29 317.55 348.64 316.04 349.5 315.33 349.93 314.81 349.9 314.59 349.79 314.18 349.77 313.97 349.81 313.78 349.93 313.61 350.12 313.47 350.59 313.23 350.9 313.27 351.15 313.34 352.3 314.14 352.96 313.82 353.15 313.67 353.55 313.36 354.07 312.98 354.7 312.74 356.81 312.2 357.29 312.21 358.62 312.63 359.62 312.65 359.81 312.11 359.76 311.45 360.02 311.13 360.97 311.29 361.45 311.69 361.76 312.18 362.19 312.63 362.91 312.89 363.66 313 364.23 313.28 364.47 314.03 364.99 314.62 366.15 314.71 370.97 313.89 371.22 314.01 371.56 314.3 372.11 314.93 372.29 315.93 372.39 316.2 372.83 316.52 374.43 317.29 375.03 317.44 376.7 317.4 377.51 317.48 378.19 317.74 378.19 317.97 377.89 318.35 378.2 318.31 378.97 317.97 379.47 317.93 379.72 318.04 379.95 318.18 380.37 318.25 380.66 318.18 381.03 317.86 381.28 317.74 381.57 317.69 381.72 317.69 381.86 317.72 382.14 317.74 382.49 317.63 383.26 317.12 383.56 316.98 384.54 317.05 385.11 317.5 385.57 318.01 386.21 318.25 386.66 318.12 387.16 317.57 387.75 317.44 388.79 317.45 389.26 317.32 389.66 316.98 389.41 316.26 389.74 315.63 390.42 315.16 391.18 314.93 392.61 315.05 392.94 314.88 392.7 314.17 391.92 313.54 391.64 313.1 392.08 312.9 393.84 312.63 394.65 312.79 395.35 313.06 396.03 313.11 396.75 312.63 396.76 312.33 396.58 312 396.59 311.74 397.15 311.64 398.67 311.75 399.15 311.31 399.45 311.14 400.09 311.13 400.27 311.06 400.39 310.85 400.58 310.85 400.75 310.95 400.94 311.13 401.08 311.29 401.08 311.36 401.96 311.41 402.43 311.38 402.74 311.24 403.25 310.66 403.45 310.27 403.26 310.09 402.82 310 402.45 309.77 402.32 309.45 402.63 309.08 402.91 309.11 403.83 309.51 404.12 309.59 404.92 309.16 404.43 308.77 403.69 308.31 403.77 307.67 404.52 307.42 405.37 307.51 406.14 307.47 406.7 306.78 406.46 306.43 406.16 306.27 405.81 306.3 405.44 306.52 405.12 305.81 404.65 305 405.13 304.81 405.39 304.76 405.67 304.75 405.71 304.72 406.45 304.9 406.82 304.95 407.09 304.91 407.87 304.63 408.47 304.64 408.74 304.88 409.01 305.79 409.41 306.35 409.99 306.77 411.35 307.31 411.48 307.73 411.6 308.09 412.57 308.92 413.47 310.01 413.59 310.34 413.61 310.68 413.67 311.01 413.9 311.32 416.16 312.82 418.17 314.79 419.28 315.4 420.58 315.75 422.13 315.93 422.5 315.88 423.21 315.58 423.54 315.53 423.97 315.66 424.28 315.87 424.57 316.12 424.92 316.37 425.66 316.69 426.44 316.91 430.83 317.24 431.72 317.57 431.73 316.85 431.63 316.25 431.61 315.65 431.82 314.9 432.06 314.56 432.37 314.37 432.69 314.22 432.98 314 433.28 313.66 433.41 313.44 434.04 311.71 434.08 311.41 433.96 311.04 433.53 310.39 433.45 310.1 433.74 309.66 436.89 307.5 437.38 307 437.64 306.2 437.54 305.35 437.11 305.02 436.57 304.8 436.16 304.3 436.24 303.61 436.81 303.05 437.59 302.64 438.27 302.4 439.36 302.27 439.72 302.13 439.98 301.91 440.44 301.32 440.78 301.1 441.36 300.59 441.99 299.56 442.3 299.04 443.04 298.48 443.93 298.36 445.72 298.58 446.64 298.3 448.25 297.46 448.85 297.33 449.47 297.4 451.28 298 452.53 298.01 455.86 296.91 458.32 296.45 460.71 295.59 465.02 293.13 466.48 292.34 466.74 292.74 468.63 294.81 470.19 296.03 470.37 296.33 470.45 296.64 470.44 296.92 470.38 297.25 470.27 297.46 470.13 297.62 469.34 298.23 469.21 298.38 468.72 299.16 468.51 299.27 468.29 299.29 467.58 299.16 467.35 299.18 467.18 299.26 466.68 299.6 466.33 299.78 465.82 299.95 465.64 300.03 465.45 300.17 465.44 300.34 465.5 300.49 465.74 300.84 465.84 301.06 465.85 301.18 465.77 301.32 465.63 301.42 465.46 301.52 464.89 301.78 464.67 301.99 464.41 302.29 463.99 302.92 463.69 303.12 463.45 303.18 463.04 303.01 462.72 303.13 462.33 303.46 461.61 304.49 461.24 304.92 460.91 305.13 460.7 305.09 458.19 304.14 458.02 304.11 457.91 304.22 456.92 306.2 456.76 306.65 456.73 306.97 456.82 307.16 457.45 308.12 457.48 308.41 457.42 308.83 457.02 310.15 457 310.5 457.06 310.68 457.34 311.24 457.5 311.47 457.66 311.64 457.85 311.75 458.08 311.8 458.35 311.84 458.89 311.84 459.13 311.87 459.3 311.97 460.18 313.23 460.56 313.65 460.72 313.78 460.91 313.88 464.47 314.51 464.7 314.49 464.87 314.39 464.99 314.23 465.08 314.04 465.15 313.82 465.19 313.61 465.22 312.45 465.25 312.21 465.35 312.03 465.49 311.89 465.65 311.79 465.82 311.74 465.95 311.74 466.13 311.77 468.54 312.82 468.76 312.97 468.95 313.21 469.03 313.54 469.07 313.81 469.04 314.39 469.08 314.77 469.37 314.95 469.75 315.1 475.57 316.46 476.88 317.14 477.78 317.44 478.01 317.48 478.27 317.48 478.49 317.44 478.67 317.35 478.82 317.23 479.07 316.92 479.24 316.81 479.46 316.76 481.12 316.77 481.39 316.76 481.62 316.7 481.82 316.62 482.51 316.21 482.69 316.12 482.89 316.05 483.12 316.04 483.36 316.07 483.56 316.14 486.17 317.74 487.37 318.11 488.25 318.67 488.59 318.79 488.91 318.85 489.17 318.83 490.41 318.56 490.68 318.61 491.01 318.72 491.42 318.93 491.96 319.04 492.83 319.4 493.36 319.53 493.9 319.83 494.04 319.8 494.14 319.69 494.35 319.52 494.65 319.42 495.35 319.43 495.61 319.58 495.8 319.79 495.89 320 496.41 320.38 497.73 321.1 498.6 321.73 499.3 322.08 499.69 322.18 500.01 322.18 500.21 322.08 500.44 322.01 500.72 321.96 500.88 322.05 500.94 322.22 500.93 322.44 500.97 322.66 501.09 322.93 501.47 323.11 501.65 323.31 501.78 323.54 501.88 323.76 502.05 323.99 502.27 324.09 502.5 324.13 502.72 324.09 502.88 324.02 503.06 324 503.24 324.11 503.5 324.36 503.74 324.5 503.99 324.59 504.89 324.62 505.11 324.7 505.26 324.83 505.36 325 505.43 325.19 505.48 325.4 505.49 325.62 505.56 325.84 505.72 326.1 506.17 326.17 507.06 326.72 507.46 327.18 507.62 327.53 507.67 327.8 507.66 328.05 507.62 328.31 507.63 328.6 507.7 329.04 507.94 329.34 507.99 329.63 508 330.36 508.08 330.62 508.23 330.81 508.41 330.91 508.84 331.07 509.07 331.21 509.18 331.31 509.25 331.48 509.3 331.7 509.37 332.27 509.41 332.42 509.54 332.59 509.67 332.68 510.14 332.94 510.27 333.12 510.27 333.12 507.58 336.23 506.53 336.86 505.33 339.09 503.37 341.08 497.96 345.5 497.3 345.8 495.01 346.36 494.16 346.71 493.43 347.21 493.12 347.85 490.85 350.26 490.03 350.56 489.7 350.76 489.44 351.47 489.19 351.76 488.9 351.98 488.7 352.06 487.87 352.24 487.2 352.7 486.01 353.83 485.42 354.13 483.96 354.59 483 355.18 482.68 355.24 482.32 355.27 481.93 355.37 481.75 355.39 481.34 355.33 481.17 355.37 480.95 355.62 481 355.81 481.14 355.97 481.17 356.13 480.44 357.52 479.35 358.05 479.14 358.28 478.99 359.19 478.59 359.68 477.37 360.44 476.17 361.57 475.59 362.27 475.34 362.87 475.25 363.22 474.59 364.24 474.19 364.44 474.08 364.52 474.02 364.66 473.89 365.11 473.83 365.25 471.38 366.22 471.02 366.67 470.86 367.28 470.49 367.97 469.47 369.33 464.91 373.52 461.09 377.99 459.11 379.03 458.79 379.39 453.81 383.31 452.96 384.37 452.64 384.61 452.03 384.86 451.7 385.08 450.33 386.3 449.67 387.07 449.39 387.76 449.15 388.2 445.03 390.93 444.08 391.37 442.87 392.23 442.28 392.5 442.16 393.08 441.3 393.66 439.47 394.5 437.72 395.57 436.62 396.08 434.57 396.59 433.62 397.35 432.91 398.37 432.63 399.47 432.28 400.26 431.48 401.04 427.68 403.72 426.56 404.06 426.22 404.35 425.74 404.95 425.23 405.21 425.17 405.34 425.16 405.53 425.13 405.73 424.98 405.92 423.2 406.61 422.48 407.31 422.07 407.47 421.35 407.56 419.51 408.14 418.88 408.48 415.56 411.44 414.32 412.3 411.7 413.14 411.28 413.45 411.11 413.51 410.24 414.58 409.96 414.72 409.68 414.79 409.37 414.76 408.97 414.58 408.71 415.53 407.82 416.34 405.8 417.7 404.89 418.15 404.74 418.15 404.59 418.06 404.47 417.96 404.39 417.92 404.27 418.03 404.12 418.43 400.16 420.72 399.81 421.09 397 422.23 396.42 422.61 396.14 422.87 396.01 423.12 395.94 423.4 395.73 423.7 395.44 423.93 395.1 424.02 394.34 424.14 391.12 425.6 390.41 425.75 389.51 425.8 388.69 426.01 386.61 427.54 385.86 427.72 384.07 427.9 382.83 428.52 379.28 429.81 378.83 429.85 378.54 430.01 378.3 430.7 378.06 430.86 377.25 430.97 373.7 432.46 372.25 432.8 370.72 432.86 367.57 432.47 366.59 432.51 365.88 432.78 365.23 432.87 364.36 432.56 362.96 431.87 358.02 431.04 352.93 430.81 349.67 431.22 346.63 432.03 343.87 433.16 342.68 433.94 341.72 434.96 341.01 436.17 340.4 438.25 340.3 439.13 340.47 439.53 341.19 439.83 341.36 440.15 341.54 440.38 342.61 441.04 343.3 441.98 343.62 442.31 343.57 442.6 343.5 442.72 343.37 442.84 342.2 442.53 341.39 442.75 340.65 443.14 339.68 443.34 338.52 443.23 336.56 442.71 335.49 442.56 333.64 442.76 332.72 442.77 331.72 442.27 330.4 442.08 329.13 441.29 327.78 440.84 324.63 440.14 321.24 440.08 317.91 440.46 315.74 440.99 314.86 441.39 314.27 441.96 314.79 443.48 314.38 444.23 313.75 444.87 313.36 445.12 311.59 446.46 311.33 447.02 311.49 447.47 311.84 447.71 312.19 447.89 312.34 448.16 312.22 448.48 311.58 448.89 311.33 449.17 311.08 449.17 310.61 448.62 309.83 448.4 307.3 448.34 305.25 447.88 304.4 447.78 302.05 448.16 301.35 448.11 298.14 447.4 296.53 446.7 295.23 445.72 294.52 445.49 290 445.04 289.35 444.74 288.84 444.43 286.44 443.57 279.8 443.07 279 442.91 277.4 442.42 273.45 442.08 267.03 440.82 Z" fill-rule="evenodd" id="ZAF-1926" data-name="Eastern Cape"/>
</g>
</svg>