<?xml version="1.0"?>
<svg xmlns="http://www.w3.org/2000/svg" version="1.2" baseProfile="tiny" width="800" height="256" viewBox="0 0 800 256" stroke-linecap="round" stroke-linejoin="round">
<g id="ne_10m_admin_1_states_provinces">
<path d="M 335.38 52.58 337.21 52.25 337.83 52.37 338.18 52.76 338.14 53.83 337.99 54.52 337.63 55.51 337.57 55.83 337.62 56.03 337.74 56.2 338.06 56.3 338.46 56.28 339.3 56.02 339.77 55.8 340.6 55.3 340.94 55.17 341.34 55.14 341.91 55.16 342.32 55.14 342.55 55.02 342.69 54.82 343.25 53.18 343.52 52.69 343.76 52.42 344.03 52.33 344.46 52.31 345.49 52.4 345.96 52.4 346.4 52.33 346.62 52.19 346.96 51.83 347.16 51.69 347.31 51.9 347.42 52.39 347.42 53.69 347.31 54.32 347.13 54.68 346.92 54.78 346.62 54.86 346.38 54.96 346.16 55.14 346.13 55.53 346.22 56.17 347.04 57.95 347.3 58.33 348.71 59.07 348.93 59.82 348.64 60.46 348.52 60.99 348.56 61.41 348.86 61.94 349.39 62.2 349.67 62.49 349.87 62.81 349.63 63.77 348.23 65.2 348.27 65.99 348.52 66.47 348.97 67.05 351.65 69.48 352.56 69.92 353.09 70.01 353.62 69.98 354.72 69.66 355.1 69.62 355.41 69.69 355.58 69.83 355.71 70.09 355.94 71.74 356.14 72.41 356.55 73.25 357.2 74.34 358.1 75.45 359.95 76.25 359.15 78.62 358.88 79.05 358.6 79.67 358.51 80.34 358.79 83.18 358.74 84.64 358.79 85.26 359.56 88.19 359.95 89.18 360.45 90.1 361.82 91.16 362.22 91.67 362.4 92.28 362.52 94.23 362.48 95.34 362.58 96.05 362.84 96.68 364.33 97.74 364.44 97.9 364.38 98.9 361.73 101.47 359.72 102.97 359.21 103.49 358.95 103.85 358.87 104.22 358.7 107.29 358.7 107.29 358.42 107.25 355.39 106.18 352.27 105.55 350.1 103.85 346.24 102.7 343.97 100.88 335.92 92.84 335.77 92.52 335.77 92.13 335.72 91.72 335.41 91.33 335.09 91.28 334.2 91.4 333.9 91.33 333.1 90.66 332.88 90.19 332.89 89.31 333.93 89.5 335.22 89.45 336.49 89.08 337.47 88.3 336.34 88.57 335.92 88.76 336.22 88.12 336.62 87.49 336.93 86.89 336.92 86.29 336.33 86.06 335.44 86.28 334.77 86.25 334.86 85.28 333.41 85.28 332.48 84.74 332.39 83.83 333.44 82.72 331.68 81.71 330.99 81.08 330.42 80.2 329.91 80.95 329.01 81.22 327.91 81.09 326.85 80.66 326.45 82.23 327.14 83.24 329.37 84.73 330.45 86.11 331.42 87.79 331.88 89.59 331.42 91.33 328.25 90.21 322.38 90.37 322.38 90.36 321.83 89.55 321.67 89.1 321.54 88.26 321.51 86.97 321.43 86.59 321.29 86.25 321.07 85.96 320.55 85.42 320.07 85.26 319.27 85.19 317.73 85.37 316.67 85.64 315.99 85.67 315.64 85.54 315.16 85.1 314.79 84.95 314.1 84.96 313.56 85.04 312.39 85.08 312.09 85.17 311.88 85.33 311.69 85.56 311.47 85.74 311.21 85.74 310.67 85.54 309.65 84.96 307.08 83.98 304.76 82.74 303.96 81.61 303.05 80.8 299.95 78.76 300.26 77.39 300.18 76.78 300.07 76.5 300.04 76.17 299.96 76 299.81 75.92 299.51 75.91 298.32 76.04 298.02 75.96 297.81 75.81 297.67 75.57 297.56 75.18 297.48 74.51 297.55 73.96 297.7 73.32 298.09 72.3 298.19 71.72 298.19 71.33 297.96 70.85 297.87 70.55 297.97 70.16 298.19 69.72 298.77 68.92 298.87 68.54 298.77 68.24 298.51 68.1 298.29 68.02 298.08 68.02 297.84 68.09 297.49 68.24 297.14 68.35 296.85 68.38 296.67 68.33 296.59 68.18 296.75 67.8 297.9 66.07 298.16 65.56 298.63 64.35 298.67 64.04 298.55 63.87 298.26 63.75 297.88 63.68 297.66 63.58 297.64 63.44 298.2 62.82 299.09 62.23 299.48 61.9 299.7 61.66 300.57 60.89 301.02 60.63 302.58 59.94 303.47 59.43 303.75 59.21 304.4 58.8 304.98 58.71 305.79 58.74 309.51 59.65 310.06 59.68 311.79 59.54 318.6 60.22 319.32 60.45 319.67 60.49 320.14 60.47 321.78 59.75 322.28 59.59 322.74 59.5 323.35 59.43 323.66 59.37 323.98 59.05 324.45 58.45 326.07 55.62 326.33 55.32 327.82 54.38 330.88 52.72 331.78 51.76 331.98 51.47 332.26 51.24 332.62 51.05 333.24 51.1 333.62 51.22 335.38 52.58 Z" id="CUB-1319" data-name="Cienfuegos"/>
<path d="M 212.09 126.22 210.49 126.28 210.18 126.07 211.07 125.76 212.54 124.61 213.35 124.4 214.04 124 214.58 123.42 215.04 123.09 217.15 122.32 218.03 122.29 218.85 121.91 219.52 121.31 219.78 120.78 219.87 120.46 219.99 120.35 220.55 120.93 220.62 122.24 219.36 123.23 216.43 124.23 214.28 125.25 213.79 125.37 213.41 125.61 213.12 125.93 212.09 126.22 Z M 228.19 120.96 225.88 122.72 224.59 122.74 223.6 121.78 223.35 120.78 223.56 120.91 224.35 121.71 225.57 121.59 226.56 120.85 226.86 120.41 226.57 120.38 226.78 120.24 228.99 119.33 229.49 119.19 230.48 118.99 230.57 119.37 229.48 120.2 228.19 120.96 Z M 261.58 118.87 255.74 122.51 253.45 123.44 251.02 123.66 251.01 122.23 251.7 121.84 253.76 122.15 254.58 121.6 255.27 120.51 255.97 119.67 256.81 119.9 257.78 120.32 258.85 120.06 259.72 119.45 260.08 118.87 260.53 117.61 261.59 116.71 263.91 115.32 264.52 115.1 264.96 115.41 265.13 115.87 264.91 116.1 264.6 116.27 261.58 118.87 Z M 155.23 99.26 161.25 100.65 165.38 101.74 166.69 102.28 167.69 103.09 168.09 104.24 167.83 105.61 167.45 106.51 167.52 107.35 168.6 108.55 171.91 111.07 172.9 111.02 173.63 111.36 174.13 112.18 174.5 113.1 174.89 113.79 174.91 114.35 174.51 115.21 173.68 116.61 173.13 116.61 173.53 117.23 173.64 117.86 173.5 118.5 173.13 119.12 174.79 120.11 175.68 120.5 176.7 120.63 176.7 121.18 176.17 122.05 176.77 122.99 177.84 123.77 178.71 124.21 177.96 125.33 176.45 126.85 174.74 128.17 173.4 128.74 172.02 128.99 162.6 133.42 156.96 135.33 151.75 135.87 150.87 135.56 150.2 134.87 145.38 134.79 144.66 134.57 143.22 133.98 142.36 133.78 139.71 133.82 139.04 133.52 136.63 130.53 135.71 129.75 133.64 128.46 132.87 127.62 132.19 126.22 131.68 124.21 130.85 122.38 130.68 121.64 131.18 121.64 132 122.39 135.71 124.94 136.2 125.96 137.36 126.84 138.78 127.46 140.02 127.68 143.07 127.68 143.31 127.38 145.38 125.71 146.53 124.99 147.1 124.52 147.35 123.93 147.58 124 147.96 124.44 148.04 125.19 147.35 126.22 147.85 126.68 149.18 124.39 148.81 123.53 146.61 123.2 145.74 122.42 139.41 112.03 138.52 109.1 139.29 105.94 142.41 103.64 142.82 102.68 143.46 101.91 144.94 100.94 146.63 100.13 147.85 99.89 147.04 99.53 146.23 99.39 145.38 99.39 144.48 98.97 144.45 98.82 144.92 98.66 145.61 98.17 155.23 99.26 Z M 174.13 100.13 172.12 100.22 170.07 99.38 169.32 98.12 171.01 97.72 173.77 98.89 174.99 99.78 174.13 100.13 Z" fill-rule="evenodd" id="CUB-1320" data-name="Isla de la Juventud"/>
<path d="M 102.92 96.86 104.05 97.22 104.23 97.21 104.6 97.23 104.21 97.36 102.77 97.41 101.11 97.31 99.99 96.84 100.73 96.45 102.92 96.86 Z M 148.93 21.69 148.86 22.1 149.2 24.77 149.2 25.1 148.93 26.57 150.8 29.9 151.13 31.69 151.03 32.35 149.66 33.85 149.28 34.16 148.7 34.36 146.9 34.55 146.56 34.68 146.45 34.82 146.57 34.96 146.73 35.07 147.55 35.41 147.85 35.67 148.22 36.14 149.44 38.08 150.33 39.19 150.6 39.37 151.27 39.72 151.69 40.01 152.16 40.62 152.71 41.53 154.17 44.67 154.51 45.25 156.95 47.8 157.52 48.6 157.74 49.03 157.77 49.32 157.77 49.32 155.95 49.89 151.52 53.38 150.64 53.92 148.97 54.04 147.83 54.38 142.91 56.76 140.5 58.26 138.48 60.22 134.27 67.71 132.52 69.32 130.13 69.58 127.7 68.93 126.7 68.85 125.64 69.12 125.61 69.3 125.64 70.33 125.52 70.61 125.23 70.59 124.89 70.5 124.36 70.68 124.03 70.59 123.75 70.56 123.63 70.86 123.66 71.89 123.63 72.09 120.96 73.69 120.06 74.61 119.66 75.23 119.6 75.59 119.64 75.85 119.55 76.17 119.07 77.24 118.71 77.71 118.04 78.19 117.8 77.96 117.69 77.73 117.65 78.59 117.13 79.1 116.71 78.35 116.1 78.11 115.45 78.19 115.4 79.4 114.18 80.64 110.5 80.93 106.69 80.48 103.43 79.24 104.05 78.62 103.85 77.87 103.31 77.04 102.88 76.17 102.38 76.17 101.34 78.14 99.51 79.93 97.35 81.21 95.33 81.71 95.48 81.45 95.64 80.94 95.79 80.66 87.62 81.77 87.22 81.71 86.94 81.42 86.73 80.91 86.64 80.42 86.72 80.2 85.88 80.44 85 81.47 83.93 81.71 78.2 81.41 76.56 81.71 73.53 84.48 73.44 85.04 72.88 87.08 72.53 87.8 72.91 88.28 73.03 88.72 73.08 89.82 72.24 89.16 71.43 89.33 70.93 90.12 71.01 91.33 71.57 92.3 72.3 92.66 73.15 92.46 74.08 91.79 73.66 93.38 71.11 95.14 70.51 96.64 70.78 96.99 71.27 97.41 71.57 97.96 71.24 98.66 70.55 99.29 69.75 99.86 68.89 100.28 67.99 100.44 66.6 100.13 63.81 98.74 62.17 98.42 60.57 98.77 57.72 100.4 56.36 100.95 55.61 101 54.08 100.89 53.34 100.95 52.52 101.26 50.85 102.24 48.54 102.89 39.83 109.69 36.67 111.3 33.55 111.57 32.6 110.11 35.55 104.31 36.12 101.4 34.45 99.25 31.51 98.78 28.23 99.24 22.37 100.86 19.51 102.12 12.06 106.75 9.09 107.43 5.88 107.38 2.79 106.48 1.77 105.72 1.17 104.67 1 103.46 1.26 102.22 1.51 101.74 1.89 101.15 2.36 100.66 2.85 100.47 3.2 100.66 3.44 101.04 3.64 101.47 3.86 101.82 4.4 102.21 5 102.44 5.65 102.52 6.31 102.46 7.57 101.96 8.44 101.13 8.48 100.19 7.27 99.39 8.53 98.75 9.65 98.75 10.35 99.47 10.34 100.95 16.38 97.92 21.74 96.44 28.02 93.81 32.04 91.1 32.6 90.82 33.58 90.75 34.47 90.87 34.93 91.21 34.61 91.79 36.93 92.74 38.65 92.29 40.32 91.34 42.48 90.82 43.55 91.13 44.81 91.85 45.85 92.77 46.28 93.6 46.64 94.03 48.64 92.68 49.77 92.84 50.82 88.76 49.94 89.69 49.16 90.98 48.32 91.66 47.29 90.82 46.86 89.41 46.95 88.33 46.7 87.48 45.24 86.8 45.92 85.22 46.28 84.73 44.91 84.59 43.42 84.09 42.08 83.41 41.15 82.72 40.56 81.68 40.07 80.45 39.39 79.48 38.18 79.24 38.91 78.6 39.74 77.46 40.41 76.12 40.7 74.89 40.84 73.17 41.15 71.59 42.21 68.34 42.39 68.16 43.47 66.28 43.85 66.09 44.64 66.02 45 65.8 45.3 65.33 45.6 64.4 45.78 64.04 47.36 61.9 48.45 60.75 49.77 60.01 49.77 59.46 48.26 59.46 49.53 58.49 52.69 57.96 54.07 57.21 54.95 56.1 55.87 54.44 56.22 52.85 55.35 51.9 55.35 51.35 56.13 51.57 56.87 51.9 57.92 51.16 58.91 51.01 59.77 51.43 60.39 52.36 61.04 49.6 61.44 48.88 62.17 48.61 64.08 48.45 64.47 48.1 64.52 47.36 64.75 46.1 65.28 45.22 66.23 45.58 67.21 46.17 67.99 45.79 68.7 44.98 69.5 44.3 68.94 43.46 68.18 42.94 67.2 42.74 65.98 42.84 66.31 42.26 66.85 41.74 67.52 41.38 68.22 41.23 69.41 41.64 70.04 42.54 70.53 43.43 71.24 43.84 72.24 43.68 73.12 43.28 77.61 40.27 78.61 41.23 79.32 39.67 80.44 38.98 83.65 38.76 84.88 38.54 89.96 36.15 92.52 35.3 93.73 35.19 94.55 35.32 95.48 35.72 96.29 35.74 96.8 35.58 97.81 34.97 98.35 34.73 98.35 34.18 97.82 34.41 97.29 34.73 97.2 34.46 97.22 34.29 97.16 34.21 96.79 34.18 98.36 33.26 99.98 32.81 103.66 32.67 103.98 32.23 104.9 29.9 105.36 29.67 108.42 29.65 108.23 30.16 108.12 30.37 107.92 30.66 109.36 30.9 110.22 30.14 110.82 29 111.45 28.13 112.55 27.71 113.4 28.03 114.29 28.65 115.52 29.14 115 29.91 115.8 29.67 116.98 28.99 117.58 28.41 118.03 27.2 119.12 25.6 120.51 24.2 121.84 23.6 122.83 23.3 126.65 21.04 128.15 20.46 129.51 20.4 130.71 20.79 131.68 21.59 131.68 22.05 131.01 22.52 130.72 23.41 130.87 24.44 131.43 25.37 132.33 25.75 133.09 25.3 133.73 24.56 134.25 24.06 132.9 23.03 132.99 22.07 134.07 21.23 135.71 20.58 138.79 20.03 139.36 19.76 140.32 19.15 140.75 19.03 141.52 19.15 142.54 19.8 143.31 20.03 143.7 19.83 144.14 19.41 144.68 19.17 145.38 19.53 145.84 20.29 145.36 20.52 144.62 20.63 144.32 21.04 144.63 21.8 145.08 22.06 145.65 21.8 146.34 21.04 146.18 22.5 147.47 22.59 148.93 21.69 Z" fill-rule="evenodd" id="CUB-1321" data-name="Pinar del Río"/>
<path d="M 445.3 64.95 444.99 65.99 444.78 68.24 444.24 68.78 443.6 69.32 443.17 70.18 442.42 71.68 441.77 74.04 441.02 75.44 439.95 77.16 438.98 78.77 438.33 80.49 437.37 81.35 437.48 83.39 436.4 85.75 436.51 87.26 437.69 88.22 439.95 89.94 441.56 90.69 442.52 91.12 442.85 92.41 442.85 94.13 441.77 95.96 440.48 97.78 440.05 98.64 438.98 98.43 437.8 98.32 436.94 98.86 436.51 100.36 435.65 101.97 434.58 103.9 433.82 105.52 433.07 108.42 431.46 111.64 430.92 112.82 432.11 114.54 432.64 115.72 432.32 117.76 431.89 119.05 432.53 119.91 434.58 119.91 436.72 119.05 437.58 118.08 437.58 116.9 438.66 115.4 440.48 116.15 442.09 117.22 442.52 118.19 442.31 120.12 442.52 122.38 442.89 123.91 442.1 124.21 441.6 123.66 440.33 124.31 438.99 124.61 435.81 124.67 434.36 124.9 430.48 126.68 427.44 127.44 424.52 127.68 421.53 127.42 415.62 125.82 414.4 125.12 413.03 123.93 411.99 123.78 408.16 124.22 406.71 124.21 405.09 123.73 404.39 123.33 403.68 122.69 402.57 120.94 401.92 120.29 401.63 120.91 401.4 121.66 400.85 122.15 400.12 122.26 399.38 121.89 398.68 121.3 398.25 121.08 395.09 120.26 394.66 120.09 394.07 119.63 393.63 118.94 393.28 118.11 392.77 117.4 391.82 117.11 386.61 116.98 381.64 115.64 379.75 115.67 378.91 116.86 378.41 118.15 377.16 117.97 375.53 117.17 373.87 116.61 373.87 116.1 375.39 115.55 375.39 115.09 374.24 114.85 374 114.02 374.08 112.98 373.87 112.07 372.62 112.93 371.32 113.3 369.89 113.32 368.25 113.08 366.74 112.57 365.89 112.38 365.22 112.53 365.02 113.05 365.49 113.55 366.22 113.92 366.82 114.04 365.92 114.96 364.55 114.35 363.29 113.02 362.75 111.82 362.58 110.24 362.07 108.85 361.19 107.86 359.93 107.49 358.7 107.29 358.7 107.29 358.87 104.22 358.95 103.85 359.21 103.49 359.72 102.97 361.73 101.47 364.38 98.9 367 97.77 368.38 96.72 368.88 96.59 369.97 96.67 370.35 96.45 370.55 96.08 370.71 95.45 370.99 94.87 371.71 94 372.46 93.7 373.17 93.61 377.45 94.57 377.99 94.78 378.35 95.04 379.39 95.55 381.6 95.71 383.42 94.25 384.88 92.04 386.09 89.77 386.48 88.4 386.55 87.44 386.26 87.04 385.94 86.88 385.51 86.86 385.14 86.9 384.81 86.84 384.58 86.62 384.32 86.14 383.99 85.31 382.91 83.35 382.44 82.08 382.41 81.32 382.57 80.81 383.37 80.14 385.81 80.2 386.67 80.85 386.94 81.34 387.31 81.84 388.08 82.47 388.85 82.65 389.48 82.62 390.02 82.34 391.07 81.68 392.05 81.58 392.73 81.63 395.75 82.49 397.26 82.03 398.26 82.46 398.9 82.86 399.95 83.25 400.99 83.13 401.81 82.81 402.47 82.25 403.1 81.46 403.65 80.43 404.02 79.5 404.43 78.18 405.74 76.92 406.62 76.48 407.92 76.03 408.83 75.97 409.55 76.13 411.39 77.03 413.29 77.31 413.52 75.98 413.44 74.81 413.62 73.93 413.91 73.01 413.85 72.47 411.76 69.78 409.29 65.19 408.67 64.26 407.81 63.64 409.18 61.28 409.14 59.59 409.19 59.51 414.72 63.89 416.88 64.84 418.84 64.54 419.59 65.24 420.97 66.17 422.32 66.6 422.92 65.8 423.71 65.71 427.58 66.49 428.96 66.51 429.76 65.98 429.92 65.51 430.11 65.18 431.02 65.09 431.77 65.26 432.92 65.91 433.77 66.05 435.36 65.84 438.12 64.86 439.54 64.54 441.22 64.52 445.3 64.95 Z M 424.7 48.3 424.2 48.3 424.2 47.81 423.96 47.4 423.37 47.17 424.02 46.93 426.88 46.81 425.93 47.56 424.7 48.3 Z M 442.8 46.48 441.1 47.32 440.68 46.31 439.6 45.92 435.18 45.65 434.43 45.36 433.5 44.8 434.74 44.64 441.66 45.05 442.82 45.67 442.8 46.48 Z" fill-rule="evenodd" id="CUB-1322" data-name="Sancti Spíritus"/>
<path d="M 458.31 188.36 457.04 189.37 455.25 188.8 453.59 187.51 452.73 186.35 454.17 186.05 455.72 186.66 458.31 188.36 Z M 445.38 181.37 445.4 182.32 449.03 182.22 450.37 182.93 451.22 184.88 450.67 184.88 449.41 184.01 444.24 183.44 442.56 181.86 443.46 180.58 444.19 179.98 444.89 180.02 445.24 180.6 445.38 181.37 Z M 441.2 179.6 440.75 180.02 440.54 179.54 440.29 179.27 438.54 178.84 434.83 176.55 434.04 175.72 434.98 175.58 436.33 175.67 437.55 175.98 438.07 176.5 438.93 176.83 440.67 177.02 442.06 177.47 441.85 178.56 441.2 179.6 Z M 426.49 167.55 429.77 169.42 432.63 172.05 434.5 174.21 434.13 174.17 432.99 174.21 433.2 174.63 433.5 175.72 431.4 174.72 430.01 173.52 427.45 170.73 427.45 170.18 428.73 170.65 429.68 171.49 430.52 172.44 431.48 173.25 430.51 171.77 428.88 169.85 427.02 168.36 425.39 168.16 425.39 168.71 425.64 168.97 425.7 169.12 425.75 169.3 425.94 169.68 425.1 169.44 424.38 169.04 423.8 168.47 423.37 167.71 426.49 167.55 Z M 415.44 159.79 418.34 162.63 417.21 163.07 415.97 163.1 414.79 162.76 413.81 162.08 414.3 162.11 415.82 162.08 415.5 161.28 414.96 160.78 414.35 160.67 413.81 161.07 411.88 159.74 411.24 159.05 413.57 158.73 415.44 159.79 Z M 445.3 64.95 452.57 65.72 456.02 65.55 456.4 66.29 457.81 70.59 458.08 70.4 458.77 70.08 459.51 71.04 460.19 70.45 461.33 68.11 460.39 66.87 459.89 66.4 459.28 66.05 459.28 65.55 461.47 65.82 463.82 68.03 471.88 70.68 472.92 71.36 473.55 72.3 475.02 73.47 476.71 74.53 478 75.16 479.76 75.66 484.2 76.36 485.56 76.17 485.53 76.67 485.6 77.69 485.56 78.19 486.32 77.84 486.61 77.64 487.11 78.37 487.8 79.78 488.33 80.43 489 80.9 490.32 81.54 490.89 81.99 491.47 82.28 492.19 82.29 492.97 82.22 493.67 82.26 496.19 83.22 497.33 83.52 500.99 83.77 501.63 84.09 501.78 84.82 501.84 85.65 502.23 86.29 502.84 86.43 504.73 86.41 504.48 86.52 504.24 86.8 505.02 87.47 505.93 87.8 506.89 88 507.67 88.26 507.55 88.91 508.17 89.28 508.33 89.56 508.48 89.95 508.49 90.38 508.42 90.8 508.15 91.59 507.88 91.93 507.47 92.2 506.48 92.53 505.62 92.98 504.3 94.02 502.52 95.76 501.7 96.31 501.07 96.62 500.16 96.79 499.01 96.81 497.81 97.17 497.37 97.24 496.87 97.26 496.36 97.49 495.97 97.71 495.12 99.85 495.57 101.15 495.84 101.4 499.45 104.24 500.71 105.45 502.19 107.78 501.27 108.41 500.21 108.93 499.98 109.14 499.86 109.34 499.85 109.64 500.16 111.15 500.19 111.39 499.77 111.54 496.9 111.9 495.88 111.86 495.12 111.53 494 110.08 493.75 109.69 493.3 109.26 493.08 108.88 492.98 108.53 492.97 108.08 492.9 107.84 492.78 107.68 492.57 107.6 492.26 107.58 491.64 107.79 490.88 108.22 489.77 109.24 489.32 109.85 489.08 110.26 489.32 111.63 489.7 112.82 489.77 113.26 489.8 113.85 489.74 114.3 489.61 114.57 489.43 114.69 489.04 114.73 488.8 114.87 488.33 115.57 487.97 115.97 487.08 117.21 487.19 117.74 487.43 118.09 487.76 118.29 487.91 118.44 487.71 118.63 487.17 118.72 485.79 118.77 484.79 118.59 483.08 118.49 482.67 118.41 482.02 118.72 481.29 120.54 480.44 122.71 480.22 123.02 479.82 123.44 479.51 123.44 479.33 123.36 479.18 123.17 479.04 122.98 478.66 122.54 478.5 122.42 478.32 122.38 477.05 122.74 475.38 123.47 474.55 123.93 473.69 124.67 473.44 124.97 472.93 125.38 469.08 127.65 466.38 128.75 466.37 128.76 465.82 128.24 464.62 127.48 463.47 127.08 459.55 126.51 458.65 126.23 458.29 125.68 458.77 124.67 459.61 125.11 460.54 125.26 462.57 125.22 462.87 124.88 462.49 124.12 461.56 122.95 461.05 122.5 460.3 121.99 458.77 121.18 457.69 120.88 457.16 120.95 456.67 121.25 455.75 121.64 452.33 122.38 448.9 122.69 448.53 122.83 448.12 123.16 447.78 123.57 447.65 123.93 447.4 124.21 446.83 124.27 444.57 124.14 443.68 123.97 442.89 123.91 442.52 122.38 442.31 120.12 442.52 118.19 442.09 117.22 440.48 116.15 438.66 115.4 437.58 116.9 437.58 118.08 436.72 119.05 434.58 119.91 432.53 119.91 431.89 119.05 432.32 117.76 432.64 115.72 432.11 114.54 430.92 112.82 431.46 111.64 433.07 108.42 433.82 105.52 434.58 103.9 435.65 101.97 436.51 100.36 436.94 98.86 437.8 98.32 438.98 98.43 440.05 98.64 440.48 97.78 441.77 95.96 442.85 94.13 442.85 92.41 442.52 91.12 441.56 90.69 439.95 89.94 437.69 88.22 436.51 87.26 436.4 85.75 437.48 83.39 437.37 81.35 438.33 80.49 438.98 78.77 439.95 77.16 441.02 75.44 441.77 74.04 442.42 71.68 443.17 70.18 443.6 69.32 444.24 68.78 444.78 68.24 444.99 65.99 445.3 64.95 Z M 459.94 54.41 459.39 55.22 459.2 55.69 457.86 56.11 457.2 56.09 457.05 55.62 457.04 54.41 457.47 54.27 458.5 54.54 459.19 54.45 459.28 53.91 459.45 53.7 459.98 53.94 459.94 54.41 Z M 487.73 54.3 488.58 55.38 488.31 55.28 487.62 54.93 487.95 55.92 492.88 60.62 493.16 61.27 492.94 62 492.41 61.99 491.74 61.68 491.15 61.52 481.99 63.48 481.99 63.03 482.14 62.81 482.33 62.62 482.47 62.32 482.54 61.75 482.75 61.47 483.24 61.51 483.75 61.61 484.05 61.52 484.11 60.82 483.86 60.11 483.25 59.78 482.26 60.24 480.83 60.83 478.83 61.08 475.49 61.01 473.8 60.54 471.78 59.23 468.74 58.7 466.61 58.07 465.31 57.25 466.37 56.44 465.24 55.27 463.73 56.32 462.54 56.93 462.34 54.42 462.61 54.62 463.3 54.93 463.56 53.46 464.23 53.31 465.01 53.65 465.59 53.67 466.4 53.54 469.67 54.17 471.46 55.23 473.54 55.39 475.64 55.23 477.5 55.38 479.3 55.28 480.47 54.4 481.48 53.39 482.79 52.91 484.46 53.07 486.23 53.53 487.73 54.3 Z" fill-rule="evenodd" id="CUB-1363" data-name="Ciego de Ávila"/>
<path d="M 485.36 200.44 486.61 201 486.81 199.85 487.49 199.61 488.36 200.06 489.13 201 489.65 202.44 489.48 203.46 488.7 203.7 487.35 202.78 486.48 202.33 485.39 202.03 484.45 201.6 483.47 199.6 482.14 198.71 479.51 197.47 480.56 196.7 481.72 196.95 482.8 197.72 483.59 198.48 484.68 199.87 485.36 200.44 Z M 471.03 193.4 471.04 194.08 470.5 194.43 469.88 194.49 469.37 194.31 468.97 193.95 468.58 193.69 468.45 193.38 468.77 193.17 469.14 193.35 470.92 193.67 470.86 193.42 470.82 193.3 470.79 193.11 471.03 193.4 Z M 467.14 193.73 466.01 193.79 465.3 193.33 465.41 192.94 465.64 192.86 466.22 192.98 467.25 193.31 467.14 193.73 Z M 478.41 188.12 478.55 188.36 479.33 187.97 480.08 187.93 481.53 188.36 480.57 189.42 477.13 190.18 475.95 190.93 474.77 190.33 473.47 189.96 474.37 189.33 476.94 188.79 478 187.9 478.4 188.05 478.41 188.12 Z M 466.37 128.76 466.38 128.75 469.08 127.65 472.93 125.38 473.44 124.97 473.69 124.67 474.55 123.93 475.38 123.47 477.05 122.74 478.32 122.38 478.5 122.42 478.66 122.54 479.04 122.98 479.18 123.17 479.33 123.36 479.51 123.44 479.82 123.44 480.22 123.02 480.44 122.71 481.29 120.54 482.02 118.72 482.67 118.41 483.08 118.49 484.79 118.59 485.79 118.77 487.17 118.72 487.71 118.63 487.91 118.44 487.76 118.29 487.43 118.09 487.19 117.74 487.08 117.21 487.97 115.97 488.33 115.57 488.8 114.87 489.04 114.73 489.43 114.69 489.61 114.57 489.74 114.3 489.8 113.85 489.77 113.26 489.7 112.82 489.32 111.63 489.08 110.26 489.32 109.85 489.77 109.24 490.88 108.22 491.64 107.79 492.26 107.58 492.57 107.6 492.78 107.68 492.9 107.84 492.97 108.08 492.98 108.53 493.08 108.88 493.3 109.26 493.75 109.69 494 110.08 495.12 111.53 495.88 111.86 496.9 111.9 499.77 111.54 500.19 111.39 500.16 111.15 499.85 109.64 499.86 109.34 499.98 109.14 500.21 108.93 501.27 108.41 502.19 107.78 500.71 105.45 499.45 104.24 495.84 101.4 495.57 101.15 495.12 99.85 495.97 97.71 496.36 97.49 496.87 97.26 497.37 97.24 497.81 97.17 499.01 96.81 500.16 96.79 501.07 96.62 501.7 96.31 502.52 95.76 504.3 94.02 505.62 92.98 506.48 92.53 507.47 92.2 507.88 91.93 508.15 91.59 508.42 90.8 508.49 90.38 508.48 89.95 508.33 89.56 508.17 89.28 507.55 88.91 507.67 88.26 507.67 88.26 507.82 88.3 508.91 87.95 509.61 88.65 510.58 90.59 511.99 91.83 512.39 92.34 512.88 93.68 514.2 95.87 514.8 96.58 515.67 96.87 516.56 97.45 519.95 100.69 520.2 101.3 521.45 103.45 521.96 103.97 522.85 103.85 523.27 103.11 523.62 97.6 524.03 96.87 524.84 96.54 526.82 96.84 528.01 96.87 527.35 97.63 524.99 98.03 524.48 98.66 524.58 99.97 524.88 100.96 525.35 101.75 525.99 102.46 526.84 103.2 527.48 103.48 529.29 103.46 530.09 103.96 530.65 105.1 530.97 106.37 531.07 107.24 531.35 108.14 532.03 108.78 533.01 109.22 535.09 109.85 535.51 109.91 536.59 109.43 537.22 109.73 537.81 110.25 538.44 110.51 542.93 109.88 544.22 110.01 545.45 110.55 548.75 112.53 548.79 111.51 549.37 111 551.27 110.51 551.39 111.24 551.82 111.62 552.49 111.7 553.33 111.57 553.18 111.29 552.99 110.76 552.83 110.51 553.87 110.83 554.85 111.59 556.35 113.08 555.29 113.21 554.56 112.79 554.09 112.76 553.84 114.04 554.01 115.39 555.09 117.69 555.34 118.87 555.74 119.63 556.68 119.91 558.91 120.18 560.67 121.05 561.16 121.18 561.87 121.03 562.24 120.68 562.44 120.33 562.65 120.18 562.62 119.78 562.18 118.89 561.48 118.01 559.56 117.2 558.77 116.22 557.86 114.04 557.45 112.33 557.11 111.82 556.6 111.54 555.14 110.98 554.84 110.76 554.74 109.99 554.37 108.98 553.61 108.44 552.32 109.05 551.27 108 550.27 108.86 549.22 108.25 547.24 105.94 544.46 103.72 543.68 102.58 543.18 102.45 542.16 102.91 542.79 101.65 543.96 100.32 545.31 99.47 546.46 99.64 549.03 101.66 549.3 102.26 549.77 104.12 550.03 104.51 557.87 109.82 559.37 110.51 563.13 111.6 564.18 112.3 565.23 113.3 567.73 115.21 568.72 115.55 573.06 118.62 574.15 119.14 575.18 119.44 576.28 119.45 577.6 119.12 577.02 120.51 577.42 121.41 578.17 122.05 578.61 122.69 578.35 124.16 576.57 125.94 576.09 127.23 575.44 126.83 574.16 125.5 573.8 125.22 569.05 123.16 567.85 122.83 566.47 122.69 566.51 122.83 566.33 123.1 566.08 123.35 565.97 123.43 565.81 123.69 565.43 123.58 565 123.33 564.34 123.05 563.54 122.38 562.9 122.15 561.2 122.28 560.61 123.01 560.85 123.82 561.69 124.21 562.54 124.4 563.16 124.83 563.72 125.33 564.41 125.71 565.14 125.87 567.21 125.71 568.66 126.28 569.04 127.5 568.5 128.73 567.21 129.29 567 129.89 567.47 131.22 568.11 132.5 568.44 133 569.28 133.15 570.93 132.89 572.1 133.02 571.51 134.32 572.24 134.14 574.07 133.27 574.14 133.19 574.84 132.81 575.54 132.72 576.19 131.6 577.1 127.68 578.96 124.38 579.57 123.66 580.97 123.42 582.32 124.19 590.24 133.27 591.41 134.28 591.55 134.37 591.55 134.37 591.37 134.52 590.77 135.06 589.6 135.5 587.5 137.04 586.56 137.44 584.56 137.91 583.24 137.97 581.53 137.57 580.07 137.42 578.9 140.79 578.28 141.47 577.83 142.43 577.77 143.12 578.1 144.33 578.46 144.77 578.79 144.98 581.61 144.97 582.04 145.08 582.19 145.33 582.08 145.6 577.91 149.2 577.54 150.07 577.48 150.58 577.81 155.34 575.12 159.52 574.64 160.06 573.68 160.83 573.21 160.98 571.05 161.41 570.68 161.56 569.99 161.97 569.11 162.36 568.08 163.72 565.95 168.51 565.34 168.79 564.74 168.63 564.29 168.42 563.56 167.75 563.21 167.52 562.87 167.44 562.42 167.66 561.93 168.03 561.17 169.57 560.43 168.85 560.2 168.35 560.21 168.12 560.26 167.91 560.75 167.22 560.81 167.02 560.79 166.85 560.63 166.66 560.27 166.55 559.65 166.44 558.42 166.35 557.13 166.04 556.96 165.89 556.9 165.7 556.93 165.27 556.87 164.93 556.72 164.59 556.08 163.67 555.86 163.43 555.55 163.04 555.43 162.85 555.34 162.67 555.3 162.52 555.19 162.53 554.94 162.69 554.43 163.27 553.37 163.76 553.1 163.94 552.96 164.18 552.97 164.61 553.02 164.93 553.19 165.49 553.19 165.59 552.88 166.23 552.81 166.74 552.57 167.26 552.09 167.84 550.75 168.09 549.75 168.19 548.81 168.13 548.62 168.13 548.42 168.37 548.22 169.45 547.15 169.6 545.66 170.01 544.91 170.4 544.52 171.39 544.52 172.32 544.38 172.55 544.15 172.73 543.59 172.67 543.2 172.58 542.37 172.53 541.96 172.47 541.68 172.24 541.31 171.77 541.02 171.31 540.61 170.8 540.2 170.63 539.72 170.71 539.15 171.08 539.15 171.67 539.27 172.14 539.33 172.61 539.28 173.04 538.97 174.23 538.9 174.8 538.89 175.32 538.93 175.75 538.34 176.14 537.23 176.57 532.73 177.39 530.98 177.28 527.15 182.36 526.16 188.38 526.16 188.39 525.45 188.19 522.74 187.9 521.14 188.26 520.04 189.07 519.1 189.91 517.98 190.42 513.18 190.55 510.67 189.94 509.88 188.36 509.32 188.36 508.87 189.41 506.45 186.72 505.57 186.35 503.96 186.04 503.07 185.24 501.77 182.86 500.99 182.03 499.63 180.86 498.14 179.98 496.96 180.02 496.17 180.43 495.9 180.05 495.86 179.36 495.72 178.84 494.84 177.83 494.37 177.13 494.17 176.5 493.64 175.44 488.42 171.87 487.42 171.61 484.82 171.74 483.91 171.24 483.09 170.13 481.99 168.16 481.08 167.32 478.37 165.37 477.71 165.3 477.21 164.61 476.75 162.08 476.49 157.29 475.91 155.22 474.78 153.15 474 151.05 474.48 148.93 475.15 149.67 475.97 149.78 476.66 149.29 476.95 148.23 476.41 147.47 474.01 146.72 473.47 146.19 473.32 144.9 472.62 142.51 472.47 141.1 472.15 139.85 470.76 137.61 470.45 136.55 470 134.07 468.86 131.72 467.36 129.7 466.37 128.76 Z M 521.96 88.76 523.17 88.79 524 88.39 524.71 87.82 525.53 87.3 526.8 86.95 527.83 87.02 528.73 87.36 529.56 87.8 529.84 88.11 530.53 89.1 530.84 89.31 531.48 89.16 532.54 88.46 533.09 88.3 533.9 88.64 536.27 90.09 537.12 90.36 538.08 89.88 538.68 89.25 539.4 89.18 540.69 90.36 541.25 91.26 541.42 92.17 541.22 93.17 539.62 96.5 539.85 97.21 540.69 98.42 539.55 98.46 538.68 98.78 537.12 99.89 537.47 98.57 536.99 97.97 536.2 98.2 535.61 99.39 535.81 99.62 536.12 100.1 536.17 100.62 535.61 100.95 535.18 100.85 534.91 100.49 534.67 100.04 533.76 98.88 533.4 98.19 532.95 97.52 532.04 96.87 530.98 97.33 529.4 97.02 527.82 96.32 526.79 95.61 526.61 94.97 526.9 94.19 527.33 93.36 527.55 92.59 527.2 92.06 526.4 91.7 524.99 91.33 525.36 91.96 525.5 92.6 525.39 93.23 524.99 93.85 524.48 92.34 524.03 92.34 523.28 93.39 522.07 93.69 520.95 93.25 520.45 92.06 519.81 91.18 518.54 90.23 517.61 88.99 517.98 87.3 517.43 86.8 518.86 86.83 519.88 87.45 520.81 88.23 521.96 88.76 Z M 531.58 81.21 529.81 81.25 527.93 79.42 524.99 75.16 525.54 74.17 524.72 73.06 523.41 72.11 522.51 71.59 524.32 71.32 525.94 72.54 527.1 74.36 528.04 77.53 529.19 78.76 530.52 79.9 531.58 81.21 Z M 514.63 76.9 515.28 77.16 517.1 76.92 517.98 77.18 518.49 77.84 518.83 78.59 519.36 79.14 520.45 79.24 519.49 78.69 519.78 78.22 520.11 77.82 520.49 77.48 520.91 77.18 521.46 78.07 522.2 78.52 522.92 78.41 523.47 77.64 524.06 78.9 523.26 79.45 521.92 79.73 520.91 80.2 521.76 80.41 522.4 80.84 522.93 81.33 523.47 81.71 524.25 81.96 525.77 82.25 526.54 82.72 524.88 85.81 523.78 87.05 522.97 86.29 522.63 86.43 521.78 86.65 521.46 86.8 521.22 86.23 521.03 85.92 520.45 85.28 520.14 83.8 518.58 83.29 517.34 83.88 517.98 85.74 517.03 85.35 514.44 83.9 513.9 83.5 513.4 82.4 511.05 80.84 510.33 79.69 511.53 79.28 512.49 78.33 513.12 77.12 513.35 75.92 513.46 73.24 513.2 72.41 512.39 71.14 513.51 71.3 514.65 71.66 515.55 72.32 515.92 73.35 515.5 74.03 514.7 74.77 514.19 75.69 514.63 76.9 Z M 499.13 62.11 499.71 63.03 501.18 62.27 503.07 62.72 504.92 63.84 506.3 65.09 507.01 66 507.65 67.09 508.13 68.25 508.42 70.69 508.76 71.46 510.33 73.1 510.96 73.12 511.98 73.49 512.9 73.61 511.66 74.74 509.9 74.29 506.3 72.09 504.69 71.8 502.91 71.8 501.05 71.44 499.21 70.08 500.77 69.16 500.07 67.94 498.57 67.22 497.74 67.84 497.65 68.52 497.36 69.29 496.87 69.77 496.19 69.58 495.72 68.79 495.69 67.87 496.03 67.3 496.69 67.56 496.7 66.28 495.53 64.81 493.8 64.11 492.15 65.09 491.78 64.71 491.44 64.62 491.09 64.63 490.64 64.54 491.67 63.35 493.12 62.98 495.72 63.03 498.1 62.16 499.13 62.11 Z" fill-rule="evenodd" id="CUB-1364" data-name="Camagüey"/>
<path d="M 706.84 250.58 706.84 250.58 702.36 244.66 700.78 243.26 700.32 242.74 699.34 241.21 699.01 240.1 698.9 237.36 699.9 236.96 700.14 236.96 700.44 236.78 701.32 235.75 703.06 234.93 703.27 234.67 703.39 234.27 703.33 233.61 703.15 233.28 702.69 233.04 702.38 233.01 702.16 232.96 701.97 232.8 701.74 231.96 701.79 230 701.09 229.53 700.95 229.38 700.89 229.27 700.52 228.29 700.34 227.97 699.96 226.91 699.54 225.15 699.51 224.68 699.58 224.35 699.92 223.75 700.11 223.47 700.31 223.3 700.55 223.12 700.71 222.96 700.83 222.56 700.94 220.18 700.76 218.97 699.98 217.46 699.68 216.83 699.81 216.62 700.17 216.34 701.1 215.99 701.94 215.49 702.79 214.83 703.53 213.77 703.82 213.17 703.91 212.69 703.92 212.33 703.97 212.06 704.1 211.82 704.3 211.73 704.67 211.81 704.94 211.93 705.63 212.16 705.99 212.09 706.3 211.87 706.64 211.25 707.33 210.72 708.17 210.51 709.59 209.56 710.15 209.46 710.63 209.6 710.94 209.88 711.64 210.33 712.05 210.7 712.31 211.11 712.4 211.23 712.9 211.66 713.55 212.04 713.87 212.16 714.21 212.13 715.56 211.51 715.83 211.48 716.1 211.66 716.21 211.88 717.29 212.64 717.96 211.52 718.19 209.3 718.37 208.89 719.36 208.04 721.03 207.12 721.53 207 721.91 207.07 722.52 207.56 722.89 207.64 723.35 207.57 724.71 206.87 726.41 206.27 726.88 206.15 727.28 206.2 727.74 206.56 729.83 208.66 731.47 209.92 733.86 210.11 735.86 211.43 736.34 211.52 736.63 211.44 736.7 211.18 736.71 210.97 736.65 210.77 736.56 210.55 736.37 210.23 736.1 209.9 735.66 209.56 735.08 209.5 734.99 209.47 734.98 209.36 735.01 209.13 735.17 208.61 735.15 208.42 735.07 208.2 734.78 207.62 734.94 207.48 735.34 207.37 737.33 207.09 738.01 207.15 738.73 207.51 741.21 209.2 743.91 210.39 744.72 210.85 745.48 211.37 746.46 211.8 746.93 211.91 747.22 211.78 747.33 211.55 747.41 211.12 747.53 210.83 747.63 210.6 747.84 210.39 748.04 210.25 751.03 209.1 750.4 207.13 750.5 205.69 750.91 204.54 751.29 203.84 751.81 203.11 752.2 202.68 752.76 202.22 753.03 202.1 753.33 202.07 753.91 202.08 754.14 202.03 754.39 201.89 755.11 201.35 756.04 200.89 756.04 200.89 756.44 201.18 759.12 202.01 759.38 202.99 760.8 204.06 764.15 206.08 764.74 206.74 765.53 208.29 767.87 211.34 768.43 211.66 768.67 212.14 772.29 215.71 772.97 216.03 773.98 216.15 775.59 216.61 777.57 217.75 779.21 219.25 779.81 220.78 780.36 220.78 781.35 219.75 782.84 219.75 784.48 220.14 785.9 220.23 787.14 219.72 788.42 218.96 789.83 218.33 791.4 218.22 792.31 218.5 793.04 218.97 794.51 220.23 797.02 221.74 797.92 222.8 798.5 224.04 798.84 225.4 799 226.82 798.33 228.44 796.78 229.33 795.22 229.92 794.19 230.93 792.7 231.75 792.2 231.91 791.81 232.3 791.4 234.93 789.08 236.88 786.34 236.8 783.23 236.05 779.81 235.94 775.17 236.85 772.04 237.08 765.98 238.4 763.16 237.89 760.84 238.81 756.19 238.09 750.64 239 748.83 239.17 746.98 239.97 745.72 240.97 744.57 242.14 743.31 243.09 741.67 243.49 739.93 243.52 738.91 243.69 738.31 244.29 737.86 245.83 736.66 247.59 734.29 248.44 731.66 248.73 731.26 247.86 730.73 247.6 730.34 247.7 730.13 248.23 730.14 248.93 728.26 249.51 728.02 249.5 728.02 244.01 724.92 244.02 725.06 243.67 725.46 243.31 726.54 242.61 727.5 242.44 728.38 240.87 728.77 240.01 728.33 239.3 728.21 237.4 726.71 237.68 726 238.68 725.54 239.44 725.01 240.35 724.42 240 723.64 239.62 722.53 240.03 722.09 240.9 721.94 241.62 722.19 242.4 722.58 242.51 723.07 242.62 723.37 242.55 723.56 242.29 723.72 241.98 723.87 242.32 724.18 243.08 723.29 243.56 723.21 244.08 721.83 244.08 718.14 246.53 717.85 249.29 717.85 249.29 714.03 250.16 706.84 250.58 Z" id="CUB-1365" data-name="Guantánamo"/>
<path d="M 608 188.63 608.35 189.2 608.67 189.56 609.08 189.82 609.63 189.94 610.35 189.69 611.06 189.3 611.3 189.3 611.56 189.49 612.23 190.56 612.71 190.94 613.31 191.18 614.38 191.39 614.93 191.57 615.64 191.62 616.39 191.47 618.37 190.49 619.18 190.53 619.61 191.75 619.69 192.29 619.73 193.16 619.61 194.24 619.61 194.56 619.95 194.83 620.63 195.15 624.08 195.93 625.41 196.49 628.83 198.4 631.39 199.13 632.03 199.39 632.26 199.38 632.47 199.27 632.68 199.1 632.83 199 633.16 198.93 633.38 198.95 633.63 199.03 633.9 199.22 634.12 199.72 634.18 200.1 633.77 201.65 634.67 201.74 636.31 202.35 638.17 202.66 639.08 202.92 640.59 203.58 642.58 204.02 643.22 204.33 643.99 204.82 646.18 206.92 648 209.63 646.09 212.08 645.06 212.86 644.48 212.9 644.22 212.59 643.86 211.62 643.49 210.91 643.41 210.52 643.41 210.06 643.47 209.62 643.48 209.17 643.31 208.72 642.93 208.33 642.19 207.9 641.63 207.94 641.31 208.05 641.24 208.38 641.52 209.74 641.53 210.41 641.42 211.06 641.17 211.55 640.82 211.99 640.38 212.42 640.12 212.76 639.99 213.05 639.92 213.74 639.86 214.08 639.61 214.58 639.22 214.72 638.52 214.72 636.92 214.43 636.2 214.38 635.03 214.41 634.46 214.87 634 215.61 632.45 221.54 632.46 221.88 632.44 222.11 632.55 222.83 631.42 223.92 630.77 224.6 630.3 224.87 630.24 225.24 630.46 225.75 630.87 227.93 631.13 234.15 630.37 235.52 628.25 237.41 627.14 238.14 626.08 238.67 625.2 239 624.49 239.16 623.97 239.21 622.24 239.1 620.15 238.77 619.67 239.06 619.68 239.26 619.78 239.67 620.36 241.16 620.27 241.51 619.76 241.64 617.7 241.17 617.09 240.95 616.65 240.85 616.51 240.97 616.25 241.62 615.99 241.75 614.26 241.78 612.95 241.97 612.31 241.98 611.91 241.93 611.76 241.86 611.49 241.75 610.28 241.48 609.69 241.26 609.23 240.95 608.58 240.25 608.13 239.9 607.7 239.91 606.3 240.25 605.9 240.4 605.63 240.57 605.5 240.81 605.23 241.07 604.98 241.08 604.71 240.91 604.52 240.7 604.33 240.57 604.13 240.48 603.87 240.42 603.62 240.35 603.37 240.2 603.07 239.94 602.91 239.76 602.18 239.12 600.98 239.81 599.76 241 599.04 241.3 597.9 241.5 596.29 241.53 595.26 241.44 593.49 241.55 592.95 241.67 592.59 241.83 589.8 245.39 589.41 245.64 588.89 245.79 584.59 246.23 583.96 246.42 583.95 246.65 584 246.87 584.22 247.22 584.89 248.51 584.92 250.19 584.92 250.2 580.98 250.37 579.11 250.08 575.42 248.7 573.54 248.37 572.52 249.08 572.01 249.08 571.46 248.58 570.71 248.48 569.98 248.79 569.5 249.54 567.62 248.96 565.48 248.8 563.57 249.27 562.4 250.59 564.41 250.59 564.41 251.09 563.1 251.15 561.03 251.91 559.65 252.1 552.81 252.28 548.13 253.36 545.48 253.61 542.37 253.38 537.81 254.54 536.39 254.62 535.39 254.46 534.39 254.02 533.58 253.37 533.09 252.56 533.18 251.2 534.56 248.76 534.64 248.07 535.19 247.91 536.12 247.82 536.66 247.57 537.16 247.11 537.66 246.35 538.17 246.05 537.95 245.25 538.29 244.68 539.68 243.49 541.33 241.34 541.45 240.97 541.71 240.42 545.23 237.41 545.08 236.77 544.09 235.83 544.22 235.39 544.88 235.43 546.83 236.03 547.56 235.37 548.98 234.94 549.3 234.65 549.51 234.21 550.82 232.37 552.1 231.52 555.27 229.93 556.48 228.26 557.87 227.3 565.3 224.01 566.72 223.8 567.82 223.23 568.98 220.57 570.05 219.73 570.26 219.69 570.52 219.69 571.01 219.73 570.59 220.59 571.03 221.01 571.98 221.05 573.06 220.78 574.07 220.16 574.85 219.25 575.36 218.15 575.54 216.96 576.08 216.53 579.11 214.73 579.35 211.2 579.84 210.66 580.41 210.18 581.4 207.59 579.11 204.11 578.39 203.48 576.4 202.23 573.76 201.27 573.04 201.18 573.52 202.01 573.06 202.51 571.69 201.62 570.55 201.12 569.78 200.38 569.5 198.73 569.75 198.23 570.33 197.95 571 197.74 571.51 197.47 573.06 195.45 573.06 194.96 570.39 193.35 568.96 193.07 568.44 194.45 566.96 193.07 565.7 191.23 564.25 189.61 562.64 189.07 562.65 189.06 562.96 188.86 564.1 188.35 564.41 188.18 564.55 188.02 564.64 187.84 564.81 187.37 565.08 186.96 565.81 186.16 565.99 185.8 566.13 185.37 566.22 184.59 566.43 184.25 566.7 184.17 567.1 184.59 567.4 185.3 567.69 185.29 568.16 185.07 569.32 184.3 569.87 184.06 570.35 184.06 570.63 184.51 570.82 184.95 572.54 185.39 579.78 185.59 582.46 186.54 583.54 187.26 584.02 187.41 584.67 187.4 585.88 187.03 586.88 186.99 587.98 186.85 589.62 186.32 592.7 186.84 593.29 186.76 594.77 186.74 597.9 187.09 599.57 187.08 600.66 187.34 601.35 187.87 602.72 190.62 603.5 190.94 604.72 189.96 605.02 189.76 608 188.63 Z" id="CUB-1366" data-name="Granma"/>
<path d="M 699.2 186.6 699.46 187.49 698.08 187.47 695.63 186.85 694.32 186.66 693.16 186.08 692.41 185.15 692.35 183.82 695.99 183.21 696.88 183.32 697.54 183.89 698.6 185.77 699.2 186.6 Z M 651.92 160.61 652.64 161.39 653.15 161.34 653.89 160.61 655.07 159.99 655.89 159.81 656.96 160.06 657.71 160.48 658.23 161.01 658.51 161.7 658.51 162.63 658.97 162.63 659.12 162.27 659.35 161.9 659.52 161.57 660.02 162.71 660.65 162.96 661.09 162.38 661.03 161.07 661.65 161.17 663.62 161.21 664.55 161.07 665.01 160.78 666.16 159.81 666.8 159.61 667.72 159.64 668.64 159.82 669.35 160.19 669.96 161.48 670.58 161.59 670.97 161.27 670.6 160.61 674.4 158.04 674.81 158.13 675.92 158.6 676.14 158.8 676.45 159.36 677.17 159.39 678.46 159.05 681 159.05 683.09 159.37 684.54 160.54 685.2 163.08 688.12 162.51 689.79 163.53 692.35 167.15 690.84 170.18 690.41 170.69 689.58 171.33 689.28 171.74 689.15 172.21 688.98 173.31 688.82 173.75 688.19 174.59 687.17 175.56 685.96 176.25 684.75 176.22 684.38 175.52 684.11 174.4 683.65 173.68 682.73 174.21 682.13 173.86 681.64 173.79 681.21 173.94 680.77 174.21 681.37 174.3 681.81 174.45 682.09 174.76 682.23 175.26 680.14 175.4 680.19 176.3 681.14 177.57 681.78 178.84 682.23 178.84 683.05 177.67 685 177.12 687.21 177.03 688.82 177.23 691.88 178.7 692.35 179.06 692.43 180.09 692.73 180.86 693.35 181.31 694.37 181.31 693.78 183.07 692.74 183.07 691.57 182.33 690.57 181.86 690.01 181.68 689.77 181.24 689.6 180.71 689.28 180.25 688.74 179.84 688.51 179.72 684.47 180.31 683.04 180.78 678.2 180.25 678.59 181.1 678.49 182.04 677.74 183.82 677.8 184.27 677.74 185.21 677.53 186.08 677.2 186.85 677.88 187.5 678.74 189.09 681.58 190.61 682.73 190.97 683.24 190.19 684.05 188.59 687.58 185.79 688.32 184.33 689.49 185.21 690.19 186.35 690.34 187.62 689.83 188.91 691.74 188.69 692.42 188.91 692.1 189.69 691.98 190.4 692.73 190.91 694.37 191.43 693.96 189.8 698.3 190.76 699.45 189.41 699.91 189.41 700.26 189.82 700.74 190.23 701.32 190.61 701.97 190.93 702.52 189.41 701.3 188.95 700.65 188.86 699.91 188.91 700.83 187.76 702.59 187.28 704.52 187.24 705.95 187.4 707.25 187.9 708.76 188.8 709.26 189.65 707.51 189.96 708.15 190.91 708.52 191.93 709.02 191.93 709.11 191.61 709.52 190.93 710.15 192.51 711.95 192.88 716.12 192.43 714.83 191.63 712.04 190.31 710.58 189.96 711.52 189.01 713.32 188.57 715.26 188.55 716.62 188.91 716.12 188.36 717.25 188.44 720.69 189.12 721.61 189.6 721.85 190.11 720.65 190.42 720.65 190.93 722.71 191.43 722.84 191.28 722.87 191.17 722.93 191.07 723.17 190.93 724.03 191.52 725.3 191.2 726.52 191.26 727.2 192.98 727.35 192.59 727.68 191.92 727.75 191.43 728.43 191.92 729.1 192.22 729.72 192.25 730.27 191.93 729.22 190.93 735.15 190.22 736.59 190.67 737.3 191.05 738.05 191.21 738.64 191.49 738.88 192.18 739.4 192.61 740.59 192.63 742.4 192.43 743.62 193.26 744.67 194.26 746.03 195.1 751.86 195.75 753.38 196.21 754.54 196.97 753.79 197.36 753.48 197.47 754.54 199.23 754.58 200.04 754.76 200.24 755.07 200.27 755.54 200.54 756.04 200.89 755.11 201.35 754.39 201.89 754.14 202.03 753.91 202.08 753.33 202.07 753.03 202.1 752.76 202.22 752.2 202.68 751.81 203.11 751.29 203.84 750.91 204.54 750.5 205.69 750.4 207.13 751.03 209.1 748.04 210.25 747.84 210.39 747.63 210.6 747.53 210.83 747.41 211.12 747.33 211.55 747.22 211.78 746.93 211.91 746.46 211.8 745.48 211.37 744.72 210.85 743.91 210.39 741.21 209.2 738.73 207.51 738.01 207.15 737.33 207.09 735.34 207.37 734.94 207.48 734.78 207.62 735.07 208.2 735.15 208.42 735.17 208.61 735.01 209.13 734.98 209.36 734.99 209.47 735.08 209.5 735.66 209.56 736.1 209.9 736.37 210.23 736.56 210.55 736.65 210.77 736.71 210.97 736.7 211.18 736.63 211.44 736.34 211.52 735.86 211.43 733.86 210.11 731.47 209.92 729.83 208.66 727.74 206.56 727.28 206.2 726.88 206.15 726.41 206.27 724.71 206.87 723.35 207.57 722.89 207.64 722.52 207.56 721.91 207.07 721.53 207 721.03 207.12 719.36 208.04 718.37 208.89 718.19 209.3 717.96 211.52 717.29 212.64 716.21 211.88 716.1 211.66 715.83 211.48 715.56 211.51 714.21 212.13 713.87 212.16 713.55 212.04 712.9 211.66 712.4 211.23 712.31 211.11 712.05 210.7 711.64 210.33 710.94 209.88 710.63 209.6 710.15 209.46 709.59 209.56 708.17 210.51 707.33 210.72 705.41 208.27 704.26 207.32 703.78 206.74 703.7 206.47 704.01 206.3 704.28 206.09 704.46 205.83 704.58 205.59 704.65 205.34 704.8 205.07 704.99 204.86 705.26 204.71 705.76 204.51 705.89 204.41 706.01 204.06 706.25 202.25 706.21 201.76 706.06 201.52 705.38 201.84 705 201.96 704.7 202.01 703.79 202.02 700.56 202.6 699.19 202.19 698.01 201.3 697.6 201.2 697.28 201.28 697.03 201.48 696.76 201.63 696.31 201.76 696.03 201.9 695.8 202.06 695.52 202.39 694.05 203.82 692.94 204.65 692.39 204.98 692.05 205.06 691.11 204.58 690.63 204.42 690.09 204.16 689.92 204.24 689.72 204.5 689.62 204.8 689.6 205.03 689.67 205.26 690.06 206.06 689.84 206.72 689.62 207.25 686.43 209.35 683.29 209.61 680.94 209.3 680.12 209.38 679.52 209.53 674.19 211.84 671.86 211.66 670.62 211.06 670.35 210.8 670.25 210.61 670.15 210.36 669.85 209.16 668.62 208.86 666.44 207.46 665.89 207.03 665.64 206.72 665.73 206.56 665.92 206.34 666.11 206.04 666.29 205.69 666.36 205.19 666.18 205 665.67 204.91 664.76 204.92 663.48 204.81 662.93 204.6 662.69 204.31 663.01 203.54 662.32 202.46 658.82 200.02 657.81 199.6 657.62 199.69 657.46 200.15 657.64 200.79 658.17 201.97 658.22 202.47 658.05 202.85 656.73 203.36 656.36 203.57 655.42 204.35 654.28 205.07 654.1 205.33 654.14 205.52 654.4 205.62 654.59 205.85 654.74 206.54 655.22 207.65 655.03 209.31 654.57 210.89 654.42 211.12 653.04 212.36 652.78 211.79 653.35 210.63 653.42 210.32 653.38 210.17 653.01 210.28 652.67 210.31 652.3 210.21 651.63 209.89 651.06 209.68 650.45 209.56 649.79 209.54 648 209.63 646.18 206.92 643.99 204.82 643.22 204.33 642.58 204.02 640.59 203.58 639.08 202.92 638.17 202.66 636.31 202.35 634.67 201.74 633.77 201.65 634.18 200.1 634.12 199.72 633.9 199.22 633.63 199.03 633.38 198.95 633.16 198.93 632.83 199 632.68 199.1 632.47 199.27 632.26 199.38 632.03 199.39 631.39 199.13 628.83 198.4 625.41 196.49 624.08 195.93 620.63 195.15 619.95 194.83 619.61 194.56 619.61 194.24 619.73 193.16 619.69 192.29 619.61 191.75 619.18 190.53 618.37 190.49 616.39 191.47 615.64 191.62 614.93 191.57 614.38 191.39 613.31 191.18 612.71 190.94 612.23 190.56 611.56 189.49 611.3 189.3 611.06 189.3 610.35 189.69 609.63 189.94 609.08 189.82 608.67 189.56 608.35 189.2 608 188.63 608.7 188.38 609.45 187.91 609.65 187.58 609.7 187.13 609.42 186.4 609.04 185.88 608.23 185.05 608.07 184.64 608.05 184.06 608.16 183.1 608.37 182.42 608.91 181.45 610.25 179.8 610.5 179.1 610.62 178.06 610.55 172.85 611.48 170.33 612.36 170.7 613.09 171.32 613.5 171.59 613.83 171.71 614.28 171.75 614.8 171.71 615.99 171.45 619.88 169.87 620.84 169.63 621.53 169.59 621.97 169.74 622.33 169.8 622.83 169.73 623.1 169.52 623.31 168.42 624.19 166.36 625.58 165.02 627.41 163.67 627.83 163.45 629.01 162.51 632.29 160.53 633.9 159.9 635.88 158.74 636.28 158.25 636.4 157.79 636.15 156.47 636.17 156.01 636.56 155.52 636.85 155.27 637.23 155.04 637.79 153.81 638.07 149.65 638.12 149.56 639.84 150.9 640.9 151.54 648.74 154.33 651.09 155.8 651.41 157.54 651.66 158.14 651.61 159.72 651.92 160.61 Z" fill-rule="evenodd" id="CUB-1367" data-name="Holguín"/>
<path d="M 608 188.63 605.02 189.76 604.72 189.96 603.5 190.94 602.72 190.62 601.35 187.87 600.66 187.34 599.57 187.08 597.9 187.09 594.77 186.74 593.29 186.76 592.7 186.84 589.62 186.32 587.98 186.85 586.88 186.99 585.88 187.03 584.67 187.4 584.02 187.41 583.54 187.26 582.46 186.54 579.78 185.59 572.54 185.39 570.82 184.95 570.63 184.51 570.35 184.06 569.87 184.06 569.32 184.3 568.16 185.07 567.69 185.29 567.4 185.3 567.1 184.59 566.7 184.17 566.43 184.25 566.22 184.59 566.13 185.37 565.99 185.8 565.81 186.16 565.08 186.96 564.81 187.37 564.64 187.84 564.55 188.02 564.41 188.18 564.1 188.35 562.96 188.86 562.65 189.06 562.64 189.07 562.17 188.91 560.06 189.08 557.73 189.6 555.8 190.39 554.84 191.43 554.14 191.01 553.72 191.02 553.34 191.23 552.83 191.43 552.05 191.62 551.57 191.81 551.08 191.94 550.26 191.93 548.97 191.73 545.23 190.42 542.36 191.86 541.7 191.93 540.63 191.16 540.14 190.93 539.58 190.82 537.4 190.93 536.82 190.86 535.39 190.46 534.9 190.19 534.63 190.36 533.67 190.42 530.05 190.22 528.79 189.84 526.83 188.57 526.16 188.39 526.16 188.38 527.15 182.36 530.98 177.28 532.73 177.39 537.23 176.57 538.34 176.14 538.93 175.75 538.89 175.32 538.9 174.8 538.97 174.23 539.28 173.04 539.33 172.61 539.27 172.14 539.15 171.67 539.15 171.08 539.72 170.71 540.2 170.63 540.61 170.8 541.02 171.31 541.31 171.77 541.68 172.24 541.96 172.47 542.37 172.53 543.2 172.58 543.59 172.67 544.15 172.73 544.38 172.55 544.52 172.32 544.52 171.39 544.91 170.4 545.66 170.01 547.15 169.6 548.22 169.45 548.42 168.37 548.62 168.13 548.81 168.13 549.75 168.19 550.75 168.09 552.09 167.84 552.57 167.26 552.81 166.74 552.88 166.23 553.19 165.59 553.19 165.49 553.02 164.93 552.97 164.61 552.96 164.18 553.1 163.94 553.37 163.76 554.43 163.27 554.94 162.69 555.19 162.53 555.3 162.52 555.34 162.67 555.43 162.85 555.55 163.04 555.86 163.43 556.08 163.67 556.72 164.59 556.87 164.93 556.93 165.27 556.9 165.7 556.96 165.89 557.13 166.04 558.42 166.35 559.65 166.44 560.27 166.55 560.63 166.66 560.79 166.85 560.81 167.02 560.75 167.22 560.26 167.91 560.21 168.12 560.2 168.35 560.43 168.85 561.17 169.57 561.93 168.03 562.42 167.66 562.87 167.44 563.21 167.52 563.56 167.75 564.29 168.42 564.74 168.63 565.34 168.79 565.95 168.51 568.08 163.72 569.11 162.36 569.99 161.97 570.68 161.56 571.05 161.41 573.21 160.98 573.68 160.83 574.64 160.06 575.12 159.52 577.81 155.34 577.48 150.58 577.54 150.07 577.91 149.2 582.08 145.6 582.19 145.33 582.04 145.08 581.61 144.97 578.79 144.98 578.46 144.77 578.1 144.33 577.77 143.12 577.83 142.43 578.28 141.47 578.9 140.79 580.07 137.42 581.53 137.57 583.24 137.97 584.56 137.91 586.56 137.44 587.5 137.04 589.6 135.5 590.77 135.06 591.37 134.52 591.55 134.37 592.65 135.09 595.32 136.3 599.4 137.11 600.36 137.81 599.85 138.81 601.37 138.81 600.93 140.34 600.35 141.09 599.45 141.35 596.84 141.5 595.78 141.9 595.05 142.61 594.77 143.65 595.8 145.47 599.57 143.61 599.35 145.45 600.06 144.97 600.39 144.21 600.57 143.31 600.86 142.43 600.36 142.43 601.39 140.99 601.7 140.25 601.82 139.36 606.36 140.83 606.78 140.8 607.36 140.48 607.68 140.6 608.92 141.38 610.92 141.83 611.71 141.88 612.85 142.35 613.86 143.39 614.29 144.43 613.75 144.9 612.55 145.15 608.42 146.92 608.7 145.81 608.03 145.16 607.29 145.13 607.41 145.91 607.05 147.08 608.04 147.56 609.53 147.79 610.7 148.23 611.81 149.03 613.06 149.56 614.45 149.85 616.02 149.94 616.02 149.48 614.41 148.95 613.93 148.62 613.5 147.97 613 146.91 613.04 146.44 614.46 145.91 615.75 145.87 617.51 146.39 619.14 147.31 620.09 148.47 620.56 148.47 620.56 146.92 621.05 146.92 620.8 149.87 619.95 150.84 616.02 151 616.02 151.5 617.53 151.5 616.81 151.9 616.52 152 617.12 152.95 617.84 152.92 618.66 152.55 619.55 152.5 620.18 153 620.92 154.29 621.6 154.52 621.98 154.37 622.49 154.01 622.93 153.59 623.12 153.24 623.29 153 623.71 152.98 624.19 153.04 624.58 153.01 626.75 151.81 627.6 151.5 626.46 151.12 624.05 150.82 623.12 150.49 622.22 149.5 621.98 148.32 622.48 147.33 623.83 146.92 632.66 147.17 634.47 147.7 635.52 148.51 637.9 149.39 638.12 149.56 638.07 149.65 637.79 153.81 637.23 155.04 636.85 155.27 636.56 155.52 636.17 156.01 636.15 156.47 636.4 157.79 636.28 158.25 635.88 158.74 633.9 159.9 632.29 160.53 629.01 162.51 627.83 163.45 627.41 163.67 625.58 165.02 624.19 166.36 623.31 168.42 623.1 169.52 622.83 169.73 622.33 169.8 621.97 169.74 621.53 169.59 620.84 169.63 619.88 169.87 615.99 171.45 614.8 171.71 614.28 171.75 613.83 171.71 613.5 171.59 613.09 171.32 612.36 170.7 611.48 170.33 610.55 172.85 610.62 178.06 610.5 179.1 610.25 179.8 608.91 181.45 608.37 182.42 608.16 183.1 608.05 184.06 608.07 184.64 608.23 185.05 609.04 185.88 609.42 186.4 609.7 187.13 609.65 187.58 609.45 187.91 608.7 188.38 608 188.63 Z" id="CUB-1368" data-name="Las Tunas"/>
<path d="M 707.33 210.72 706.64 211.25 706.3 211.87 705.99 212.09 705.63 212.16 704.94 211.93 704.67 211.81 704.3 211.73 704.1 211.82 703.97 212.06 703.92 212.33 703.91 212.69 703.82 213.17 703.53 213.77 702.79 214.83 701.94 215.49 701.1 215.99 700.17 216.34 699.81 216.62 699.68 216.83 699.98 217.46 700.76 218.97 700.94 220.18 700.83 222.56 700.71 222.96 700.55 223.12 700.31 223.3 700.11 223.47 699.92 223.75 699.58 224.35 699.51 224.68 699.54 225.15 699.96 226.91 700.34 227.97 700.52 228.29 700.89 229.27 700.95 229.38 701.09 229.53 701.79 230 701.74 231.96 701.97 232.8 702.16 232.96 702.38 233.01 702.69 233.04 703.15 233.28 703.33 233.61 703.39 234.27 703.27 234.67 703.06 234.93 701.32 235.75 700.44 236.78 700.14 236.96 699.9 236.96 698.9 237.36 699.01 240.1 699.34 241.21 700.32 242.74 700.78 243.26 702.36 244.66 706.84 250.58 706.84 250.58 706.75 250.59 705.94 250.51 703.48 249.98 702.75 249.61 702.24 249.54 702.03 249.68 701.41 250.36 700.96 250.59 698.96 250.84 696.6 250.8 694.39 250.39 692.86 249.54 690.42 249.88 687.4 248.37 684.35 246.31 681.78 245.05 680.16 244.88 674.88 245.05 673.48 244.88 670.6 244.16 669.09 243.99 666.26 244.3 664.78 244.7 663.8 245.28 662.72 245.43 652.99 243.21 646.33 242.48 642.95 242.61 637.06 244.12 634.24 244.5 628.89 244.5 627.3 244.71 624.2 245.72 622.57 246.05 613.18 245.52 603.63 246.29 602.11 247.03 600.49 246.96 598.87 246.62 597.33 246.51 596.2 246.98 593.81 248.8 592.25 249.54 590.51 249.95 584.92 250.2 584.92 250.19 584.89 248.51 584.22 247.22 584 246.87 583.95 246.65 583.96 246.42 584.59 246.23 588.89 245.79 589.41 245.64 589.8 245.39 592.59 241.83 592.95 241.67 593.49 241.55 595.26 241.44 596.29 241.53 597.9 241.5 599.04 241.3 599.76 241 600.98 239.81 602.18 239.12 602.91 239.76 603.07 239.94 603.37 240.2 603.62 240.35 603.87 240.42 604.13 240.48 604.33 240.57 604.52 240.7 604.71 240.91 604.98 241.08 605.23 241.07 605.5 240.81 605.63 240.57 605.9 240.4 606.3 240.25 607.7 239.91 608.13 239.9 608.58 240.25 609.23 240.95 609.69 241.26 610.28 241.48 611.49 241.75 611.76 241.86 611.91 241.93 612.31 241.98 612.95 241.97 614.26 241.78 615.99 241.75 616.25 241.62 616.51 240.97 616.65 240.85 617.09 240.95 617.7 241.17 619.76 241.64 620.27 241.51 620.36 241.16 619.78 239.67 619.68 239.26 619.67 239.06 620.15 238.77 622.24 239.1 623.97 239.21 624.49 239.16 625.2 239 626.08 238.67 627.14 238.14 628.25 237.41 630.37 235.52 631.13 234.15 630.87 227.93 630.46 225.75 630.24 225.24 630.3 224.87 630.77 224.6 631.42 223.92 632.55 222.83 632.44 222.11 632.46 221.88 632.45 221.54 634 215.61 634.46 214.87 635.03 214.41 636.2 214.38 636.92 214.43 638.52 214.72 639.22 214.72 639.61 214.58 639.86 214.08 639.92 213.74 639.99 213.05 640.12 212.76 640.38 212.42 640.82 211.99 641.17 211.55 641.42 211.06 641.53 210.41 641.52 209.74 641.24 208.38 641.31 208.05 641.63 207.94 642.19 207.9 642.93 208.33 643.31 208.72 643.48 209.17 643.47 209.62 643.41 210.06 643.41 210.52 643.49 210.91 643.86 211.62 644.22 212.59 644.48 212.9 645.06 212.86 646.09 212.08 648 209.63 649.79 209.54 650.45 209.56 651.06 209.68 651.63 209.89 652.3 210.21 652.67 210.31 653.01 210.28 653.38 210.17 653.42 210.32 653.35 210.63 652.78 211.79 653.04 212.36 654.42 211.12 654.57 210.89 655.03 209.31 655.22 207.65 654.74 206.54 654.59 205.85 654.4 205.62 654.14 205.52 654.1 205.33 654.28 205.07 655.42 204.35 656.36 203.57 656.73 203.36 658.05 202.85 658.22 202.47 658.17 201.97 657.64 200.79 657.46 200.15 657.62 199.69 657.81 199.6 658.82 200.02 662.32 202.46 663.01 203.54 662.69 204.31 662.93 204.6 663.48 204.81 664.76 204.92 665.67 204.91 666.18 205 666.36 205.19 666.29 205.69 666.11 206.04 665.92 206.34 665.73 206.56 665.64 206.72 665.89 207.03 666.44 207.46 668.62 208.86 669.85 209.16 670.15 210.36 670.25 210.61 670.35 210.8 670.62 211.06 671.86 211.66 674.19 211.84 679.52 209.53 680.12 209.38 680.94 209.3 683.29 209.61 686.43 209.35 689.62 207.25 689.84 206.72 690.06 206.06 689.67 205.26 689.6 205.03 689.62 204.8 689.72 204.5 689.92 204.24 690.09 204.16 690.63 204.42 691.11 204.58 692.05 205.06 692.39 204.98 692.94 204.65 694.05 203.82 695.52 202.39 695.8 202.06 696.03 201.9 696.31 201.76 696.76 201.63 697.03 201.48 697.28 201.28 697.6 201.2 698.01 201.3 699.19 202.19 700.56 202.6 703.79 202.02 704.7 202.01 705 201.96 705.38 201.84 706.06 201.52 706.21 201.76 706.25 202.25 706.01 204.06 705.89 204.41 705.76 204.51 705.26 204.71 704.99 204.86 704.8 205.07 704.65 205.34 704.58 205.59 704.46 205.83 704.28 206.09 704.01 206.3 703.7 206.47 703.78 206.74 704.26 207.32 705.41 208.27 707.33 210.72 Z" id="CUB-1369" data-name="Santiago de Cuba"/>
<path d="M 211.22 6.75 211.46 7.47 211.33 8.21 211.75 8.87 212.99 10.31 212.6 10.6 211.91 10.63 211.73 10.9 211.76 11.31 211.97 11.97 211.9 12.29 211.5 12.6 211.32 12.81 211.23 13.15 211.13 14.39 210.42 15.6 207.83 12.78 207.4 12.5 206.75 12.2 206.44 12.29 206.19 12.52 206.06 12.76 205.98 13.15 205.61 14.07 205.13 14.49 204.7 14.76 204.45 14.72 203.92 14.03 203.51 13.62 203.09 13.65 203.01 13.75 203.05 13.96 203.17 14.24 203.19 14.6 203.13 14.97 202.95 15.59 202.92 16.07 203.04 16.71 203.66 17.9 203.76 18.25 203.69 18.52 201.19 21.1 200.62 22.05 200.18 22.62 199.53 22.85 198.66 22.86 197.93 22.76 197.15 22.44 195.25 22.56 192.36 22.31 191.69 22.92 191.41 23.44 190.43 24.24 189.92 24.44 189.52 24.36 188.73 23.45 188.21 23.14 187.64 23.29 186.45 23.74 185.77 21.28 185.61 21.11 185.35 20.92 185.19 21 185 21.02 182.29 19.94 181.74 19.57 181.5 19.25 181.57 19.09 183.04 17.94 183.66 17.07 183.56 16.4 182.83 15.46 182.24 15.31 181.73 15.43 181.33 15.76 180.45 16.19 179.18 15.67 178.86 15.17 178.86 15.17 179.35 14.9 180.98 14.45 181.39 14.21 182.12 13.17 182.49 12.93 183.4 12.83 184.1 12.58 185.26 11.92 187.45 10.35 188.59 9.71 191.52 9.3 194.92 7.94 200.08 7.16 202.42 6.26 207.52 7.39 209.13 7.23 211.22 6.75 Z" id="CUB-1428" data-name="Ciudad de la Habana"/>
<path d="M 180.33 52.63 180.03 53.1 179.69 52.8 179.85 48.16 179.67 47.54 179.63 47.15 179.91 47.09 180.26 47.4 180.54 47.95 180.65 48.25 180.92 49.13 181.15 50.83 180.72 52.13 180.33 52.63 Z M 157.77 49.32 157.77 49.32 157.74 49.03 157.52 48.6 156.95 47.8 154.51 45.25 154.17 44.67 152.71 41.53 152.16 40.62 151.69 40.01 151.27 39.72 150.6 39.37 150.33 39.19 149.44 38.08 148.22 36.14 147.85 35.67 147.55 35.41 146.73 35.07 146.57 34.96 146.45 34.82 146.56 34.68 146.9 34.55 148.7 34.36 149.28 34.16 149.66 33.85 151.03 32.35 151.13 31.69 150.8 29.9 148.93 26.57 149.2 25.1 149.2 24.77 148.86 22.1 148.93 21.69 148.93 21.69 149.08 21.6 149.87 19.78 150.91 18.2 153.3 18.15 155.95 18.54 157.72 18.27 159.34 17.73 166.03 18.02 172.87 17.19 174.64 16.51 176.15 16.61 178.86 15.17 178.86 15.17 179.18 15.67 180.45 16.19 181.33 15.76 181.73 15.43 182.24 15.31 182.83 15.46 183.56 16.4 183.66 17.07 183.04 17.94 181.57 19.09 181.5 19.25 181.74 19.57 182.29 19.94 185 21.02 185.19 21 185.35 20.92 185.61 21.11 185.77 21.28 186.45 23.74 186.34 26.3 186.34 28.26 185.44 30.07 184.83 32.48 184.83 35.19 186.34 38.06 187.85 40.02 188.78 40.52 189.74 41.08 189.99 42.01 189.72 43.58 184.87 44.17 180.98 43.29 180.12 43.45 178.69 44.14 177.96 44.3 174.53 43.61 171.91 44.19 164.13 42.26 162.55 42.29 161.01 43.01 160.26 44.21 160.01 45.64 159.99 47.09 159.54 48.42 158.45 49.11 157.77 49.32 Z" fill-rule="evenodd" id="CUB-1429" data-name="Artemisa"/>
<path d="M 251.85 90.06 252.02 91.08 251.44 91.12 250.67 90.69 249.91 90.75 249.45 90.63 249.12 90.18 248.94 89.62 248.94 89 249.41 88.72 250.22 88.9 250.98 89.26 251.34 89.5 251.85 90.06 Z M 303.91 7.45 305.05 8.4 305.05 7.39 305.6 7.39 306.32 8.47 306.78 8.97 306.78 9.31 306.1 9.91 304.88 10.59 303.99 10.51 303.21 10.13 302.3 9.91 299.92 10.13 298.12 10.72 294.47 12.43 295.3 11.58 299.77 8.85 301.09 8.58 302.52 8.63 304.09 8.95 303.8 8.55 303.39 7.78 303.08 7.39 303.59 6.93 303.91 7.45 Z M 327.35 6.39 327.99 6.44 329.87 6.39 330.27 6.3 330.79 6.11 331.23 6.13 331.42 6.66 331.26 7.2 330.82 7.5 330.24 7.76 329.62 8.17 328.88 8.07 327.58 7.55 326.09 7.15 324.83 7.39 324.54 6.96 324.22 6.93 323.32 7.39 323.59 6.39 324.07 5.77 324.87 5.46 326.07 5.38 326.37 5.52 326.95 6.17 327.35 6.39 Z M 317.2 5.73 317.01 6.24 316.69 6.22 316.45 6.28 316.38 6.81 316 6.9 315.15 6.74 314.6 7.02 314.45 7.52 314.2 7.29 314.15 6.35 314.89 5.55 316.17 5.08 316.84 4.94 317.03 5.16 317.2 5.73 Z M 322.4 15.57 321.94 15.75 320.76 17.85 320.55 19.54 320.61 20.3 320.56 21.53 320.19 22.11 319.66 22.51 318.92 22.72 318.49 22.77 318.15 22.71 317.51 22.29 317.21 22.16 316.92 22.11 316.53 22.14 316.18 22.21 315.14 22.58 314.82 22.61 312.98 22.56 312.6 22.75 312.35 23.07 312.15 23.77 312.09 24.36 312.14 25.18 312.43 26.3 312.52 26.9 312.33 27.97 311.92 28.5 311.55 28.85 311.03 29.13 310.94 29.41 311.06 29.62 311.34 29.76 311.61 29.94 311.76 30.18 311.83 30.66 311.98 31 312.23 31.36 312.98 32.12 313.45 32.74 313.67 33.15 313.88 33.44 314.19 33.69 315.42 34.44 316.91 35.64 318.1 35.57 318.64 35.35 320.1 34.36 321.54 33.85 322.26 33.84 322.8 34.06 323 34.34 323.31 34.98 323.4 35.23 323.72 35.88 324.25 37.4 325.36 39.17 325.56 39.72 325.45 40.1 325.06 40.31 324.37 40.59 323.96 41.14 323.87 41.57 324 41.89 324.53 42.41 324.87 42.92 324.99 43.4 325.02 44.04 324.65 47.51 324.72 48.05 324.89 48.36 325.22 48.7 325.58 49.28 325.76 50.73 325.97 51.48 326.29 52.21 326.75 52.68 327.82 54.38 326.33 55.32 326.07 55.62 324.45 58.45 323.98 59.05 323.66 59.37 323.35 59.43 322.74 59.5 322.28 59.59 321.78 59.75 320.14 60.47 319.67 60.49 319.32 60.45 318.6 60.22 311.79 59.54 310.06 59.68 309.51 59.65 305.79 58.74 304.98 58.71 304.4 58.8 303.75 59.21 303.47 59.43 302.58 59.94 301.02 60.63 300.57 60.89 299.7 61.66 299.48 61.9 299.09 62.23 298.2 62.82 297.64 63.44 297.66 63.58 297.88 63.68 298.26 63.75 298.55 63.87 298.67 64.04 298.63 64.35 298.16 65.56 297.9 66.07 296.75 67.8 296.59 68.18 296.67 68.33 296.85 68.38 297.14 68.35 297.49 68.24 297.84 68.09 298.08 68.02 298.29 68.02 298.51 68.1 298.77 68.24 298.87 68.54 298.77 68.92 298.19 69.72 297.97 70.16 297.87 70.55 297.96 70.85 298.19 71.33 298.19 71.72 298.09 72.3 297.7 73.32 297.55 73.96 297.48 74.51 297.56 75.18 297.67 75.57 297.81 75.81 298.02 75.96 298.32 76.04 299.51 75.91 299.81 75.92 299.96 76 300.04 76.17 300.07 76.5 300.18 76.78 300.26 77.39 299.95 78.76 303.05 80.8 303.96 81.61 304.76 82.74 307.08 83.98 309.65 84.96 310.67 85.54 311.21 85.74 311.47 85.74 311.69 85.56 311.88 85.33 312.09 85.17 312.39 85.08 313.56 85.04 314.1 84.96 314.79 84.95 315.16 85.1 315.64 85.54 315.99 85.67 316.67 85.64 317.73 85.37 319.27 85.19 320.07 85.26 320.55 85.42 321.07 85.96 321.29 86.25 321.43 86.59 321.51 86.97 321.54 88.26 321.67 89.1 321.83 89.55 322.38 90.36 322.38 90.37 319.09 90.45 310.01 89.86 299.37 90.96 292.96 90.36 291.52 89.9 288.75 88.58 285.86 88.03 284.73 87.29 283.99 86.16 282.09 82.43 281.83 81.71 281.79 80.54 282.34 77.41 282 77.2 280.05 74.39 279.06 73.79 278.07 73.59 277.24 73.85 276.75 74.61 276.77 75.53 277.8 78.69 277.86 87.63 277.28 89.92 275.75 89.82 276.8 88.21 276.49 85.88 275.43 83.75 274.74 83.22 272.68 83.92 272.22 84.23 271.99 84.86 272.07 86.23 271.76 86.8 270.89 87.17 270.3 86.9 269.8 86.45 269.2 86.29 268.66 86.64 268.57 87.15 268.36 87.6 267.45 87.8 264.78 86.68 263.16 81.77 260.36 80.66 256.81 80.66 255.97 80.43 254.55 79.47 253.76 79.24 253.19 79.47 252.11 80.43 251.24 80.66 251.05 80.75 250.91 80.93 250.69 81.12 250.24 81.21 250.01 81.08 249.83 80.43 249.51 80.2 246.44 79.24 246.07 79.03 245.2 78.67 244.32 78.66 243.92 79.47 243.2 79.77 241.58 79.84 239.85 79.67 238.84 79.24 238.38 79.24 238.19 80.15 237.71 80.38 236.32 80.2 236.54 80.49 236.66 80.69 236.87 81.21 236.05 81.2 232.61 80.81 231.56 80.43 229.7 78.51 229.03 77.48 228.76 76.4 227.48 75.16 217.03 71.25 215.96 70.69 214.84 69.83 214.18 69.48 212.71 69.34 212.1 69.12 211.73 68.7 210.89 67.35 210.81 67.06 209.81 67.07 208.46 66.91 207.21 66.34 206.51 65.09 206.92 63.93 207.81 63.22 208.93 62.78 209.85 62.51 218.34 62.78 221.11 62.12 223.07 62.41 225.32 62.24 226.68 62.01 228.65 62.45 230.33 62.59 234.13 62.03 237.05 60.87 237.87 61.01 238.64 60.64 240.1 60.64 240.9 60.46 241.96 60.17 242.93 59.25 243.62 58.65 244.31 58.38 244.22 56.83 244.52 56.13 244.33 54.98 244.97 52.91 244.93 52.11 244.38 51.94 244.48 51.79 244.57 51.67 244.63 51.62 244.88 51.51 245.2 51.29 245.45 51.07 246.39 49.66 247.03 48.89 247.45 48.25 247.68 47.71 247.83 47.19 248.4 43.46 248.26 42.36 247.06 41.36 244.27 39.78 243.84 39.08 243.87 37.96 244.68 36.09 244.68 35.63 244.36 35.23 243.41 34.6 242.28 33.61 241.07 31.61 242.02 28.85 242.21 26.75 242.29 26.45 242.23 25.94 242.17 25.71 241.31 24.54 240.11 23.1 239.53 22.6 238.99 22.22 238.45 22.02 237.64 21.93 237.38 21.8 237.26 21.56 237.45 20.99 237.57 20.72 237.65 20.57 237.69 20.52 238.1 20.18 239.6 19.23 240.28 18.35 240.57 18.24 240.75 18.02 240.73 17.81 240.41 17.41 239.77 16.94 239.73 16.66 239.87 16.29 240.4 15.62 240.78 15.42 241.16 15.41 241.86 15.8 242.06 15.86 242.17 15.83 242.16 15.32 242.02 14.38 241.08 10.52 241.83 9.62 241.93 9.02 241.93 9.02 243.83 9.02 244.99 8.87 245.98 8.4 246.82 8.82 247.64 8.87 248.52 8.84 249.51 8.95 250.01 9.23 251.3 10.2 252.87 11.05 253.13 12.53 252.89 14.22 252.53 15.5 252.08 16.08 251.63 16.36 251.62 16.58 252.53 17.01 253.37 17.11 254.19 16.92 255.3 16.51 255.58 16.13 256.04 14.33 256.31 13.71 256.92 13.19 257.46 13.02 258.13 13 264.34 12.01 265.17 11.67 265.96 10.87 267.79 10.39 271.26 9.91 272.36 9.56 275.1 8.31 276.9 7.04 280.16 5.26 281.38 4.92 282.75 5.42 281.7 6.26 279.66 7.04 276.31 7.85 272.3 10.12 271.26 10.96 271.26 11.43 274.53 12.2 278.74 16.75 281.38 18.02 282.84 18.05 283.48 17.72 283.99 16.96 285.11 15.72 285.47 15.12 286.25 13.31 286.62 12.93 287.46 12.85 288.97 12.49 289.44 12.43 292.5 12.93 293.01 12.91 293.3 12.78 293.44 13.05 293.47 14.22 294.02 15.84 295.38 16.24 297.05 15.95 298.55 15.5 310.14 13.44 311.95 13.39 315.39 14.06 317.23 13.99 318.77 13.38 320.16 12.26 320.56 10.87 319.2 9.45 320.16 9.03 321.16 8.92 322.09 9.08 322.82 9.45 322.82 9.91 322.18 10.45 320.25 13.99 322.31 15.42 322.4 15.57 Z M 313.59 5.85 313.7 6.06 313.64 6.51 313.2 6.65 312.66 6.37 312.13 6.35 311.8 6.81 311.5 7 309.93 6.34 309.07 6.09 308.56 6.01 307.19 6.14 306.39 6.09 304.3 5.38 303.58 5.21 303.03 4.53 302.6 4.34 302.91 3.93 304.34 4.1 306.4 4.82 308.98 5.35 313.59 5.85 Z M 298.8 1 300.82 2.14 301.32 2.12 301.67 2.22 301.9 2.86 301.34 3.47 300.49 3.34 299.67 3.09 298.79 2.98 297.95 2.66 297.59 2.14 297.27 1.82 296.61 1.61 297.11 1.18 298.8 1 Z" fill-rule="evenodd" id="CUB-1430" data-name="Matanzas"/>
<path d="M 397.88 35.04 401.72 39.07 403.31 40.28 406.71 41.26 409.47 43.36 412.49 44.45 413.97 45.88 415.17 47.54 415.82 48.88 414.15 47.5 413.55 47.32 412.9 47.2 412.22 46.91 411.24 46.32 410.14 45.41 407.66 42.84 406.33 43.29 404.98 43.14 403.72 42.57 402.04 41.37 401.56 41.2 401.27 40.88 401.16 40.04 400.91 39.75 399.74 38.93 399.38 38.76 398.77 38.29 398.39 37.25 397.75 36.21 396.36 35.74 394.16 36.59 393.18 36.54 393.06 35.19 395.15 34.59 396.66 34.52 397.88 35.04 Z M 389.76 30.96 390.77 31.5 391.18 32.02 390.51 32.67 389.37 32.86 388.85 32.38 388.86 31.87 388.64 31.62 388.36 31.48 387.95 31.53 387.44 31.4 386.01 30.47 385.35 29.76 385.43 29.02 386.36 28.78 386.2 28.31 386.26 27.68 386.65 27.44 387.15 28.25 386.94 29.44 387.46 29.61 388.88 29.89 389.33 30.53 389.76 30.96 Z M 372.72 23.07 373.87 23.6 374.48 23.57 374.43 24.56 373.64 25.26 372.07 24.33 371.37 24.54 370.6 25.55 369.87 25.87 369.3 24.06 370.36 23.46 371.52 23.08 372.72 23.07 Z M 378.33 27.1 377.48 27.21 376.63 26.72 376.15 26.05 376.38 25.61 376.83 25.26 377.01 24.9 376.35 24.8 375.66 24.45 376.41 23.35 378.07 22.95 378.97 23.2 379.55 23.96 379.65 24.48 379.21 24.84 378.32 25.1 377.8 25.62 378.13 26.04 378.77 26.14 378.89 26.56 378.33 27.1 Z M 347.59 21.59 348.27 21.88 348.74 22.31 349 22.88 349.05 23.6 341.63 22.41 340.5 21.59 340.95 21.25 341.39 21.08 341.89 21.16 342.51 21.59 346.1 19.95 347.73 19.79 349.05 20.58 348.67 20.79 347.96 21.37 347.59 21.59 Z M 409.19 59.51 409.14 59.59 409.18 61.28 407.81 63.64 408.67 64.26 409.29 65.19 411.76 69.78 413.85 72.47 413.91 73.01 413.62 73.93 413.44 74.81 413.52 75.98 413.29 77.31 411.39 77.03 409.55 76.13 408.83 75.97 407.92 76.03 406.62 76.48 405.74 76.92 404.43 78.18 404.02 79.5 403.65 80.43 403.1 81.46 402.47 82.25 401.81 82.81 400.99 83.13 399.95 83.25 398.9 82.86 398.26 82.46 397.26 82.03 395.75 82.49 392.73 81.63 392.05 81.58 391.07 81.68 390.02 82.34 389.48 82.62 388.85 82.65 388.08 82.47 387.31 81.84 386.94 81.34 386.67 80.85 385.81 80.2 383.37 80.14 382.57 80.81 382.41 81.32 382.44 82.08 382.91 83.35 383.99 85.31 384.32 86.14 384.58 86.62 384.81 86.84 385.14 86.9 385.51 86.86 385.94 86.88 386.26 87.04 386.55 87.44 386.48 88.4 386.09 89.77 384.88 92.04 383.42 94.25 381.6 95.71 379.39 95.55 378.35 95.04 377.99 94.78 377.45 94.57 373.17 93.61 372.46 93.7 371.71 94 370.99 94.87 370.71 95.45 370.55 96.08 370.35 96.45 369.97 96.67 368.88 96.59 368.38 96.72 367 97.77 364.38 98.9 364.44 97.9 364.33 97.74 362.84 96.68 362.58 96.05 362.48 95.34 362.52 94.23 362.4 92.28 362.22 91.67 361.82 91.16 360.45 90.1 359.95 89.18 359.56 88.19 358.79 85.26 358.74 84.64 358.79 83.18 358.51 80.34 358.6 79.67 358.88 79.05 359.15 78.62 359.95 76.25 358.1 75.45 357.2 74.34 356.55 73.25 356.14 72.41 355.94 71.74 355.71 70.09 355.58 69.83 355.41 69.69 355.1 69.62 354.72 69.66 353.62 69.98 353.09 70.01 352.56 69.92 351.65 69.48 348.97 67.05 348.52 66.47 348.27 65.99 348.23 65.2 349.63 63.77 349.87 62.81 349.67 62.49 349.39 62.2 348.86 61.94 348.56 61.41 348.52 60.99 348.64 60.46 348.93 59.82 348.71 59.07 347.3 58.33 347.04 57.95 346.22 56.17 346.13 55.53 346.16 55.14 346.38 54.96 346.62 54.86 346.92 54.78 347.13 54.68 347.31 54.32 347.42 53.69 347.42 52.39 347.31 51.9 347.16 51.69 346.96 51.83 346.62 52.19 346.4 52.33 345.96 52.4 345.49 52.4 344.46 52.31 344.03 52.33 343.76 52.42 343.52 52.69 343.25 53.18 342.69 54.82 342.55 55.02 342.32 55.14 341.91 55.16 341.34 55.14 340.94 55.17 340.6 55.3 339.77 55.8 339.3 56.02 338.46 56.28 338.06 56.3 337.74 56.2 337.62 56.03 337.57 55.83 337.63 55.51 337.99 54.52 338.14 53.83 338.18 52.76 337.83 52.37 337.21 52.25 335.38 52.58 333.62 51.22 333.24 51.1 332.62 51.05 332.26 51.24 331.98 51.47 331.78 51.76 330.88 52.72 327.82 54.38 326.75 52.68 326.29 52.21 325.97 51.48 325.76 50.73 325.58 49.28 325.22 48.7 324.89 48.36 324.72 48.05 324.65 47.51 325.02 44.04 324.99 43.4 324.87 42.92 324.53 42.41 324 41.89 323.87 41.57 323.96 41.14 324.37 40.59 325.06 40.31 325.45 40.1 325.56 39.72 325.36 39.17 324.25 37.4 323.72 35.88 323.4 35.23 323.31 34.98 323 34.34 322.8 34.06 322.26 33.84 321.54 33.85 320.1 34.36 318.64 35.35 318.1 35.57 316.91 35.64 315.42 34.44 314.19 33.69 313.88 33.44 313.67 33.15 313.45 32.74 312.98 32.12 312.23 31.36 311.98 31 311.83 30.66 311.76 30.18 311.61 29.94 311.34 29.76 311.06 29.62 310.94 29.41 311.03 29.13 311.55 28.85 311.92 28.5 312.33 27.97 312.52 26.9 312.43 26.3 312.14 25.18 312.09 24.36 312.15 23.77 312.35 23.07 312.6 22.75 312.98 22.56 314.82 22.61 315.14 22.58 316.18 22.21 316.53 22.14 316.92 22.11 317.21 22.16 317.51 22.29 318.15 22.71 318.49 22.77 318.92 22.72 319.66 22.51 320.19 22.11 320.56 21.53 320.61 20.3 320.55 19.54 320.76 17.85 321.94 15.75 322.4 15.57 322.4 15.57 325.08 20.05 326.59 21.04 327.77 21.12 330.76 21.65 331.89 22.05 332.58 22.65 333.35 23.51 334.32 24.29 335.66 24.61 339.82 24.6 340.74 24.87 341.85 25.77 343.04 26.4 344.27 26.81 345.53 27.08 347.96 27.16 350.24 26.71 354.64 25.11 354.09 23.36 355.33 23.32 359.25 25.13 360.99 25.62 362.46 25.37 362.75 23.6 363.54 24 364.34 24.53 364.97 25.16 365.22 25.87 366.89 28.66 367.05 29.14 369.84 30.66 370.25 30.72 371.56 30.66 372.07 30.82 372.28 31.18 372.32 31.54 372.32 31.71 373.85 31.28 376.25 29.17 380.78 27.99 381.43 28.13 381.43 28.7 380.74 29.29 379.37 30.15 377.67 29.39 376.86 30 375.89 32.67 376.69 33.82 377.16 34.31 377.86 34.73 378.64 34.93 381.68 35.19 382.99 35.6 387.32 38.46 387.55 38.81 387.83 39.13 388.27 39.27 388.68 39.1 389.13 38.73 389.45 38.37 389.54 38.21 391.22 38.01 391.85 38.39 393.67 45.86 393.71 45.9 394.82 46.24 395.71 46.67 396.51 47.26 397.34 48.1 398.19 49.28 399.2 51.56 399.88 52.64 401.75 54.59 402.17 54.93 403.27 55.12 405.4 55.16 406.25 55.38 408.22 58.2 408.6 59.05 409.19 59.51 Z M 361.39 16.31 361.63 16.92 361.91 17.46 362.2 18.44 362 18.62 361.59 18.07 361.25 17.72 360.94 17.75 360.45 17.84 359.86 17.77 359.43 17.43 359.16 17.03 359.19 16.85 359.44 16.9 359.56 16.5 359.69 15.62 360.49 15.44 361.39 16.31 Z M 355.65 14.99 354.17 15.63 352.68 15.36 349.56 13.99 349.73 13.23 350.12 12.69 350.6 12.15 351.07 11.43 351.62 11.43 352.08 12.37 352.89 13.2 353.87 13.77 354.89 13.99 356.08 14.03 356.47 14.18 356.26 14.48 355.65 14.99 Z M 348.11 14.3 347.69 14.33 347.19 14 346.84 13.5 346.54 12.94 345.96 12.75 344.87 12.18 344.54 12.04 344.41 11.71 344.28 11.55 343.8 11.27 343.6 10.67 344.32 10.23 344.87 10.13 345.42 10.09 346.06 10.26 346.05 10.67 346.57 11.19 347.65 12.09 348.1 12.66 348.29 12.9 348.59 13.39 348.49 13.88 348.11 14.3 Z M 338.27 9.7 337.67 9.83 337.09 9.79 335.2 10.01 334.49 10.54 333.37 10.99 332.36 11.24 332.24 11.1 332.06 10.62 332.34 10.47 333 10.54 332.88 9.89 333.24 9.48 334.3 9.34 334.84 9.32 336.54 9.19 337.38 9.2 338.4 9.37 338.27 9.7 Z" fill-rule="evenodd" id="CUB-1431" data-name="Villa Clara"/>
<path d="M 186.45 23.74 187.64 23.29 188.21 23.14 188.73 23.45 189.52 24.36 189.92 24.44 190.43 24.24 191.41 23.44 191.69 22.92 192.36 22.31 195.25 22.56 197.15 22.44 197.93 22.76 198.66 22.86 199.53 22.85 200.18 22.62 200.62 22.05 201.19 21.1 203.69 18.52 203.76 18.25 203.66 17.9 203.04 16.71 202.92 16.07 202.95 15.59 203.13 14.97 203.19 14.6 203.17 14.24 203.05 13.96 203.01 13.75 203.09 13.65 203.51 13.62 203.92 14.03 204.45 14.72 204.7 14.76 205.13 14.49 205.61 14.07 205.98 13.15 206.06 12.76 206.19 12.52 206.44 12.29 206.75 12.2 207.4 12.5 207.83 12.78 210.42 15.6 211.13 14.39 211.23 13.15 211.32 12.81 211.5 12.6 211.9 12.29 211.97 11.97 211.76 11.31 211.73 10.9 211.91 10.63 212.6 10.6 212.99 10.31 211.75 8.87 211.33 8.21 211.46 7.47 211.22 6.75 211.22 6.75 212.1 6.54 213.81 6.39 214.55 6.22 215.36 5.93 216.16 5.8 216.88 6.14 219.65 7.94 221.84 8.52 226.57 8.95 228.76 9.45 230.4 8.95 241.93 9.02 241.83 9.62 241.08 10.52 242.02 14.38 242.16 15.32 242.17 15.83 242.06 15.86 241.86 15.8 241.16 15.41 240.78 15.42 240.4 15.62 239.87 16.29 239.73 16.66 239.77 16.94 240.41 17.41 240.73 17.81 240.75 18.02 240.57 18.24 240.28 18.35 239.6 19.23 238.1 20.18 237.69 20.52 237.65 20.57 237.57 20.72 237.45 20.99 237.26 21.56 237.38 21.8 237.64 21.93 238.45 22.02 238.99 22.22 239.53 22.6 240.11 23.1 241.31 24.54 242.17 25.71 242.23 25.94 242.29 26.45 242.21 26.75 242.02 28.85 241.07 31.61 242.28 33.61 243.41 34.6 244.36 35.23 244.68 35.63 244.68 36.09 243.87 37.96 243.84 39.08 244.27 39.78 247.06 41.36 248.26 42.36 248.4 43.46 247.83 47.19 247.68 47.71 247.45 48.25 247.03 48.89 246.39 49.66 245.45 51.07 245.2 51.29 244.88 51.51 244.63 51.62 244.57 51.67 244.48 51.79 244.38 51.94 243.86 51.78 242.76 51.75 240.74 50.13 239.35 49.09 236.8 47.3 234.22 46.41 227.64 44.22 225.07 44.31 219.16 44.81 211.32 46.05 208.94 45.09 203.94 43.77 198.33 43.79 195.2 44.13 193.6 44.3 192.06 44.14 189.72 43.58 189.99 42.01 189.74 41.08 188.78 40.52 187.85 40.02 186.34 38.06 184.83 35.19 184.83 32.48 185.44 30.07 186.34 28.26 186.34 26.3 186.45 23.74 Z" id="CUB-5489" data-name="Mayabeque"/>
</g>
</svg>