<?xml version="1.0"?>
<svg xmlns="http://www.w3.org/2000/svg" version="1.2" baseProfile="tiny" width="800" height="570" viewBox="0 0 800 570" stroke-linecap="round" stroke-linejoin="round">
<g id="ne_10m_admin_1_states_provinces">
<path d="M 375.58 209.39 375.6 210.45 374.69 210.5 374.5 210.6 374.38 210.9 374.48 211.36 374.71 212.03 374.88 212.82 375.11 214.62 375.52 215.65 376.32 216.61 378.16 218.09 379.3 219.21 380.76 222.34 381.15 223.02 382.36 223.44 383.04 223.78 383.51 223.81 384.33 223.72 384.78 224.16 385.11 224.59 385.3 227.56 385.33 230.43 384.78 232.08 383.56 233.26 380.55 234.4 377.75 236.02 374.95 234.83 371.41 234.28 368.19 234.66 367.27 234.87 366.43 235.18 365.36 235.36 364.25 235.27 362.91 234.74 361.64 234.56 356.96 234.85 352.37 233.6 350.18 233.23 348.68 233.51 345.92 234.37 343.23 235.52 337.91 238.41 334.7 239.5 331.92 240.14 327.94 240.15 326.02 240.37 323.62 239.84 322.08 237.76 312.95 240.14 307.15 240 304.81 240.38 299.99 244.47 297.91 246.75 296.68 247.71 294.39 248.98 286.04 251.9 282.16 254.57 280.87 255.66 280.26 256.03 274.98 255.95 265.87 253.86 264.54 253.88 263.33 253.68 262.14 252.85 260.68 252.33 259.74 252.21 258.88 252.44 258.2 252.89 257.45 253.11 256.9 253.58 256.15 253.93 255.51 254.15 254.71 254.03 254.05 253.84 252.15 252.97 251.06 252.27 250.27 251.65 249.32 250.49 248.47 249.1 247.78 245.91 247.71 244.27 247.49 242.92 245.29 241.52 244.12 241.42 243.45 241.67 238.47 244.4 236.61 244.18 231.24 245.59 225.52 246.06 223.53 245.25 218.43 239.77 218.01 239.13 217.65 238.35 216.95 234.4 216.82 232.53 215.64 228.11 214.27 225.67 212.13 224.59 202.79 218.33 204.62 217.87 205.77 217.22 206.52 215.93 206.59 214.48 206.17 213.29 205.37 212.66 204.34 212.93 203.82 211.24 201.88 209.07 201.86 207.72 202.54 206.58 204.56 204.57 205.49 203.28 206.65 200.18 207.39 198.98 208.81 197.72 210.07 196.97 210.78 195.76 210.37 192.73 210.37 192.73 211.16 192.48 213.45 192.77 215.6 193.5 221.29 196.8 223.47 197 223.47 196.19 222.16 194.97 223.48 193.51 227.92 190.88 225.47 194.13 224.59 196.11 225.7 197 226.4 197.88 238.37 208.39 242.24 210.01 246.35 209.23 247.06 208.51 248.37 206.43 248.97 205.81 250.21 205.72 253.54 205.86 254.22 205.34 254.97 203.16 256.89 202.03 259.44 201.78 272.66 204.72 284.19 208.62 296.06 209.88 309.7 212.92 314.26 213.29 319.14 212.81 327 210.54 329.27 210.19 329.62 209.81 331.76 208.2 332.25 207.97 332.98 207.38 334.54 207.92 336.07 208.78 336.7 209.23 342.14 209.68 367.14 207.57 371.39 207.69 375.32 209.23 375.58 209.39 Z" id="HND-637" data-name="Atlántida"/>
<path d="M 559.66 184.16 559.66 301.84 552.02 293.09 547.79 289.29 529.87 281.62 527.74 280.34 520.34 271.56 513.52 261.85 508.97 258.29 494.98 253.09 481.86 242.16 471.54 236.75 468.84 236.19 467.76 236.77 466.48 237.24 465.45 237.43 464.21 236.92 463.34 236.2 462.47 235.84 461.83 235.75 458.99 237.12 459.22 238.3 458.79 239.23 457.78 240.39 455.03 242.55 452.52 244.07 451.11 243.99 449.61 243.04 448.76 242.75 447.88 242.61 447.01 242.97 446.41 243.67 443.27 248.65 435.48 256.02 428.11 259.87 427.58 260.66 426.74 260.66 425.81 260.25 424.77 259.96 423.53 259.85 421.22 260.18 420.09 260.65 417.96 261.05 415.55 262.22 412.62 262.88 409.66 262.24 401.82 258.18 401.62 254.81 400.78 253.11 400.7 252.46 401.48 246.72 401.24 245.02 400.88 243.96 400.49 243.62 399.94 243.54 399.61 243.72 399.41 244.06 399.26 244.23 399.08 244.22 398.91 244.05 398.64 243.85 398.33 243.71 397.9 243.65 397.54 243.52 397.18 243.27 396.75 242.75 396.38 242.44 396.06 242.26 395.69 242.1 395.41 242.04 394.66 242.07 391.42 241.28 385.28 241.52 383.97 241.42 383.32 241.2 383.02 240.71 381.55 238.99 377.75 236.02 380.55 234.4 383.56 233.26 384.78 232.08 385.33 230.43 385.3 227.56 385.11 224.59 384.78 224.16 384.33 223.72 383.51 223.81 383.04 223.78 382.36 223.44 381.15 223.02 380.76 222.34 379.3 219.21 378.16 218.09 376.32 216.61 375.52 215.65 375.11 214.62 374.88 212.82 374.71 212.03 374.48 211.36 374.38 210.9 374.5 210.6 374.69 210.5 375.6 210.45 375.58 209.39 375.58 209.39 378.55 211.24 380.55 211.75 383.66 211.94 386.19 211.55 388.33 210.6 400.5 203.28 403.66 199.89 405.12 198.75 409.54 197.02 413.99 195.97 432.29 195.33 433.9 194.88 435.2 194.25 440.18 190.72 442.88 187.83 444.03 184.73 441.98 182.14 433.88 181.01 430 180.06 430.62 178.64 433.96 178.37 443.86 180.26 450.71 181.5 455.52 182.04 461.55 183.69 467.57 185.21 469.63 185.63 471.06 186.26 471.39 187.73 471.37 189.47 471.71 190.88 472.66 190.88 472.59 190.02 472.85 189.61 473.24 189.39 473.54 189.12 475.65 189.18 476.78 190.82 479.06 192.6 481.76 194.51 487.45 196.84 497.11 199.31 503.79 198.78 513.31 197.84 527.11 197.46 534.52 194.47 543.81 187.92 549.96 184.38 559.66 184.16 Z" id="HND-638" data-name="Colón"/>
<path d="M 305.22 308.6 305.54 310.03 306.05 310.88 307.37 312.45 308.53 313.55 311.54 315.08 313.01 316.59 314.85 317.54 315.35 317.95 315.63 318.3 314.43 319.28 313.4 322.75 312.15 323.78 312.93 326.48 313.38 327.4 314.24 328.78 314.83 330.14 315.15 333.59 315.5 334.97 316.48 336.36 317.52 341.08 321.52 350.63 323.03 353.41 324.74 355.25 325.88 356.15 328.37 356.75 329.56 357.96 334.02 362 336.42 365 336.34 367.29 335.8 369.34 335.94 370.43 336.25 371.62 337.58 373.67 338.05 374.6 338.27 376.53 338.67 378.29 340.28 382.61 340.2 384.4 330.64 391.51 326.44 395.42 325.49 399.62 323.06 403.88 316.82 409.22 315.27 413.23 313.87 415.16 313.61 415.8 313.77 416.27 314.83 416.55 315.54 416.95 316.03 417.56 316.18 418.05 314.86 420.63 312.16 421.01 310.12 420.63 308.35 420.63 305.63 421.68 306.4 423.97 309.73 428.38 313.25 430.92 314.23 431.46 314.59 432.26 314.84 433.67 314.37 438.75 313 441.35 311.52 442.9 309.43 443.98 304.99 443.2 305.52 445.05 305.64 445.98 305.54 447.07 304.91 448.33 304.58 449.98 304.77 452.5 304.25 458.38 301.83 464.21 299.7 466.95 299.07 467.41 297.06 467.44 293.93 466.86 292.89 466.35 289.98 463.82 288.05 462.94 287.2 463.95 286.99 464.42 286.76 465.42 286.68 467.24 286.77 469.04 287.14 470.39 287.93 471.36 289.38 473.99 289.32 476 288.32 477.37 287.35 479.42 286.99 481.63 286.95 482.18 286.36 482.07 280.23 479.48 276.19 480.76 269.89 478.55 265.5 479.07 264.24 478.5 262.72 477.72 257.52 478.33 255.79 476.71 253.33 474.36 253.07 472.72 253.99 470.55 254.11 470.01 253.59 469.88 252.85 469.89 252.28 470.03 250.84 469.7 249.35 469.31 246.86 469.35 245.45 469.78 245.04 471.25 244.74 474.57 244.03 477.34 244.05 479.18 244.58 480.88 243.6 481.44 242.29 481.08 238.95 479.03 234.39 475.66 234.01 475.21 233.41 474.85 232.95 474.66 230.6 474.9 226.67 474.16 221.44 470.68 220.48 469.23 220.75 463.65 220.78 459.89 224.32 455.45 225.33 452.46 225.67 451.95 226.03 451.09 227.02 446.57 227.24 444.13 224.85 427.33 224.97 424.69 227.64 421.53 228.63 420.69 229.42 420.28 230.22 420.31 234.33 419.87 237.99 418.23 239.52 417.31 240.34 416.33 240.43 415.63 241.79 412.91 244.31 411.37 247.66 410.64 248.61 410.14 249.15 409.34 249.12 408.58 248.96 408.02 248.58 407.22 248.39 406.99 248.09 406.83 247.66 406.7 247.23 406.5 246.66 406.11 245.93 405.46 245.16 404.64 244.74 403.86 244.46 402.53 244.23 397.49 244.46 396.12 244.82 395.38 245.4 395.14 245.99 395.12 246.73 395.24 248.3 395.99 249.26 395.64 249.92 395.2 253.28 390.78 254.62 388.05 254.17 387.11 251.04 384.74 250.82 384.4 250.72 383.99 251.15 383.63 251.46 383.1 251.52 381.87 251.26 381.28 250.88 380.8 247.9 378.22 245.87 376.91 245.19 375.98 244.66 374.78 244.34 373.78 243.97 371.8 250.48 365.49 251.63 363.18 251.72 362.54 251.89 361.83 251.97 361.09 251.93 359.19 252.15 358.69 252.57 358.42 253.02 358.45 253.61 358.66 254.15 358.95 254.72 359.18 255.26 359.3 255.71 359.32 256.1 359.3 256.45 359.34 256.63 359.54 256.77 360.06 256.94 360.31 257.36 360.5 257.88 360.66 258.4 360.77 259.82 360.85 261.73 357.55 262.2 355.79 262.2 355.1 262.11 354.37 261.9 353.4 262 352.94 262.18 352.8 262.38 352.94 262.58 353.15 262.82 353.32 263.28 353.19 263.44 352.85 263.5 352.06 263.64 351.7 263.93 351.53 264.4 351.47 265.11 351.24 266.24 350.41 266.65 350.24 267.12 350.12 267.72 349.89 268.34 349.59 269.29 348.95 269.55 348.64 269.56 348.4 269.43 348.21 269.53 347.66 270.92 344.14 271.68 341.13 271.15 336.79 270.56 334.8 270.68 332.8 271.04 331.55 271.44 330.89 271.82 330.54 272.19 330.42 274.87 330.17 276.94 328.63 275.67 326.73 275.52 325.81 274.85 325.11 274.38 324.72 272.15 323.73 274.61 320.37 275.41 318.6 276.71 316.75 279.27 314.59 279.69 313.89 279.86 313.14 280.03 310.5 279.95 309.18 282.23 307.31 288.33 306.55 289.57 306.63 291.06 306.92 292.09 307.43 294.05 307.96 300.92 307.69 305.22 308.6 Z" id="HND-639" data-name="Francisco Morazán"/>
<path d="M 559.66 343.67 559.66 343.57 559.66 313.07 559.66 301.84 559.66 184.16 565.96 186.2 578.29 191.61 593.76 196.06 601.07 198.47 602.89 199.82 602.1 201.41 600.51 203.75 600.5 205.77 600.49 208.95 603.18 211.49 605.71 211.83 608.85 210.84 609.31 208.24 609.66 207.07 610.88 207.16 611.75 208.76 614 210.28 617.23 209.8 620.28 210.15 626.56 210.94 627.7 209.6 629.71 208.78 627.01 207.67 623.79 206.98 613.69 205.33 609.86 203.72 606.63 202.19 605.51 200.17 610.65 201.2 628.26 204.41 639.76 205.57 647.35 205.95 649.96 206.81 656.9 212.4 666.29 219.78 680.21 231.23 693.7 242.42 701.23 248.52 711.04 254.32 713.4 255.67 715.73 256.67 720.24 257.4 721.37 257.98 722.25 259.23 722.33 260.23 721.49 260.89 719.58 261.12 717.34 260.28 712.49 256.57 708.87 255.36 706.44 253.7 705.25 253.17 701.36 253.14 699.67 252.78 698.17 251.35 698.76 251.13 699.31 250.74 699.92 250.55 698.81 248.95 694.6 244.35 693.72 244.35 692.32 245.02 690.6 244.04 688.8 242.57 687.16 241.82 684.54 242.13 683.34 242.93 682.41 244.04 680.61 245.23 679.79 244.7 676.24 243.48 677.88 242.08 678.57 241.29 678.87 240.46 678.25 240.16 676.88 239.95 675.37 239.89 674.41 240.07 674.05 241.45 674.88 243.65 676.37 246 677.98 247.85 677.66 248.13 677.52 248.22 677.4 248.37 677.12 248.81 676.24 248.81 672.41 241.6 670.99 240.07 669.53 239.83 667.85 240.14 665.67 240.86 664.14 240.75 661.95 240.24 660.43 240.07 661.41 242.98 662.24 243.97 664.58 244.77 664.61 245.84 664.19 247.27 663.93 248.81 664.8 248.81 665.2 246.85 667.76 245.68 668.92 242.13 670.12 241.75 671.32 242.45 673.05 246.64 675.13 250.03 675.88 252.91 673.14 254.13 671.78 255.56 672.76 258.79 674.94 262.3 677.12 264.54 680.42 266.24 683.15 266.87 684.37 265.67 683.15 261.92 684.87 263.23 686.39 264.97 686.99 266.94 685.94 268.99 687.69 271.1 690.16 271.5 696.42 270.74 696.42 271.61 695.18 271.56 694.35 271.79 692.93 272.48 692.93 273.28 693.99 275.46 695.57 277.45 697.67 278.91 700.35 279.48 702.68 279.2 705.66 278.47 708.53 277.35 710.48 275.98 708.86 274.46 703.42 271.61 702.49 270.73 702.07 269.88 701.55 269.24 700.35 268.99 698.98 268.89 689.2 265.53 687.6 264.54 684.63 260.38 683.15 259.29 684.28 258.32 685.54 257.67 688.4 256.67 699.82 261.54 701.67 264.14 702.39 265.5 704.15 266.75 706.32 267.67 709.96 268.42 711.48 269.46 712.79 270.89 713.9 272.48 713.05 273.04 712.01 273.94 711.28 274.23 711.28 275.03 713.38 275.48 715.16 274.23 716.54 274.06 717.48 277.81 717.19 282.57 717.48 283.84 718.42 284.77 719.39 284.71 720.04 283.79 720.02 282.1 720.98 282.1 722.11 284.59 723.19 284 725.34 280.27 727.33 279.16 729.98 278.39 734.56 277.81 735.12 277.21 734.86 274.3 735.04 273.28 735.9 272.73 736.71 272.79 737.67 273.09 745.97 274.66 748.15 274.23 748.15 275.03 747.39 275.8 747.47 276.31 747.89 276.87 748.15 277.81 748.15 281.67 747.48 283.59 746 284.4 744.53 283.84 743.86 281.67 743.39 281.01 742.28 280.58 740.95 280.34 739.84 280.27 739.08 280.8 738.39 281.96 737.58 283.84 737 284.51 736.44 284.92 736.01 285.55 735.83 286.91 736.14 288.08 736.86 288.3 737.73 287.93 738.45 287.34 737.8 286.26 737.67 285.43 737.93 284.67 738.45 283.84 739.41 283.84 739.67 286.98 740.55 289.23 742.16 290.09 744.66 289.09 745.35 288.36 746.51 286.48 747.27 285.67 748.28 285.05 754.02 283.04 753.97 282.59 753.39 281.23 752.86 280.44 752.13 279.85 751.39 279.11 750.86 277.81 750.42 276 749.49 273.55 747.9 272.1 745.52 273.28 741.72 271.07 739.83 270.66 737.58 271.61 736.79 270.74 737.08 270.26 737.58 268.99 735.52 268.72 729.98 266.74 728.84 265.92 727.5 264.48 724.83 263.64 722.84 262.52 723.6 260.17 725.7 259.17 727.7 260.23 729.5 261.91 731.03 262.79 732.41 263.23 746.24 270.22 763.46 276.53 770.08 281.23 771.59 283.64 773.65 291.87 775.9 297.01 779.3 301.89 783.21 304.93 799 311.02 799 311.02 797.31 311.29 792.99 311.05 791.21 311.37 787.83 312.88 782.16 312.79 781.63 312.88 780.07 312.29 779.13 311.65 779.23 310.97 780.75 310.25 775.11 309.67 772.91 309.81 770.97 311.05 770.31 309.35 768.97 308.55 767.33 307.92 765.73 306.67 764.5 308.89 762.51 311.03 759.92 312.53 756.91 312.88 755.74 312.25 754.18 309.93 753.5 309.3 751.82 309.02 750.53 309.16 750.09 309.81 750.96 311.05 750.28 311.9 750.07 312.68 750 314.62 748.74 313.49 748.03 314.04 747.86 315.53 748.25 317.25 747.53 316.91 745.63 316.37 745.91 316.76 746.26 317.67 746.51 318.12 744.66 318.65 741.48 321.12 738.34 322.26 737.71 323.65 737.44 325.37 736.89 326.94 735.94 326.94 734.85 325.59 732.49 324.91 729.65 324.77 727.11 325.11 724.72 326.21 724.23 327.63 725.44 331.31 724.49 331.31 724.01 330.22 723.06 329.64 721.74 329.46 720.12 329.56 720.38 331.55 717.73 332.56 710.59 332.98 711.5 334.48 712.13 335.1 713.13 335.76 710.77 335.78 708.23 336.57 705.95 337.81 704.39 339.17 703.65 338.26 703.2 337.94 702.7 337.8 701.77 337.43 702.4 338.63 702.56 339.17 700.92 338.75 698.86 336.6 697.32 335.76 696.68 338.69 696.66 339.87 697.32 340.92 684.66 341.58 682.46 341.32 682.22 340.33 681.56 339.98 679.4 340.05 678.05 339.87 677.57 339.42 677.24 338.83 674.31 337.02 673.37 337.09 671.97 338.22 673.45 341.23 674.34 342.4 675.46 343.46 675.46 344.42 674.58 344.96 674.04 344.9 673.44 344.6 672.37 344.42 671.2 344.67 670.54 345.2 670.03 345.81 669.27 346.24 666.15 347.13 664.26 347.27 662.71 346.65 659.68 343.48 658.7 342.67 657.54 342.04 655.77 341.44 654.16 341.55 653.45 343.07 654.12 349.08 653.46 351.89 650.83 353.24 649.42 353.14 646.31 352.46 644.36 352.28 643.38 351.61 642.46 348.28 641.22 347.05 639.52 349.46 637.75 352.69 635.39 355.52 630.62 357.15 627.3 358.95 625.88 359.35 623.92 358.78 622.58 357.67 621.23 356.95 619.29 357.53 619.67 355.02 620.16 354.11 610.81 353.84 607.92 353.24 602.97 351.16 600.52 350.91 598.15 352.28 596.22 347.9 594.88 345.76 592.27 344.04 592.39 342.33 592.04 340.79 589.49 340.48 589.56 340.23 590.57 338.97 590.96 338.61 589.08 335.58 586.27 333.55 582.94 332.57 579.57 332.72 571.92 334.07 569.82 335.26 563.95 340.77 561.66 342.36 559.66 343.67 Z" id="HND-640" data-name="Gracias a Dios"/>
<path d="M 318.83 169.23 319.14 170.69 316.73 170.61 314.73 171.07 311.27 172.44 308.26 174.12 306.31 172.66 303.95 171.87 305.06 170.39 310.75 167.7 314.07 166.99 315.92 166.72 317.63 166.25 319.14 166.32 319.93 167.13 318.83 169.23 Z M 405.75 128.53 402.98 129.86 400.51 129.12 396.66 130 393.95 129.45 391.68 129.81 390.81 130.21 389.05 131.35 388.26 131.68 387.11 131.72 385.27 132.14 382.96 133.77 378.26 135.99 373.63 137.62 368.78 140.95 364.39 142.26 361.46 142.56 359.46 144.42 357.3 146.42 354.76 148.12 353.99 146.13 354.91 143.02 358.61 140.06 363.7 137.02 367.63 135.39 375.26 131.85 383.57 129.19 389.12 127.64 392.97 127.2 398.05 127.49 402.05 127.72 408.37 127.79 405.75 128.53 Z M 444.99 126.74 438.41 131 437.93 129.83 439.23 127.58 441.02 124.39 442.97 123.47 445.01 120.05 446.47 118.24 450.69 116.4 453.13 117.26 455.07 118.82 454.42 120.38 451.57 120.68 450.92 122.55 449.21 124.72 446.7 124.87 444.99 126.74 Z M 698.9 1.96 697.67 2.22 696.6 2.18 695.76 1.78 695.21 1 696.18 1.1 697.13 1.3 698.06 1.59 698.9 1.96 Z" fill-rule="evenodd" id="HND-641" data-name="Islas de la Bahía"/>
<path d="M 559.66 301.84 559.66 313.07 559.66 343.57 559.66 343.67 559.4 343.84 557.65 345.44 556.51 347.44 555.84 352.18 555.43 352.94 554.76 353.24 552.75 353.77 553.45 355.02 557.07 357.53 554.25 360.12 553.49 361.11 556.81 361.1 556.63 361.52 555.86 363.26 551.3 367.7 548.6 368.95 546.43 367.37 544.38 365.18 542.05 364.6 541.03 366.42 540.48 369.97 540.22 376.45 539.76 377.28 536.81 380.33 536.65 381.15 536.95 383.1 536.81 383.91 533.31 386.53 535.37 387.85 537.65 389.88 539.3 392.44 539.43 395.35 537.94 397.47 535.31 399.02 532.11 400.05 528.94 400.6 524.09 400.6 522.76 400.87 519.72 402.35 518.52 402.64 517.82 403.36 517.3 404.22 516.39 405.29 516.03 406.22 515.67 406.64 515.13 406.75 513.76 406.54 513.2 406.64 511.97 407.79 510.5 409.67 509.27 411.68 508.34 414.95 507.28 417.39 505.87 419.86 504.39 421.65 501.07 424.19 498.89 425.42 494.28 426.65 493.55 428.35 493.26 430.39 492.07 432.14 489.68 432.91 487.56 433.28 487.55 433.24 485.96 429.06 485.39 428.51 484.41 427.75 483.37 427.19 482.1 426.21 481.6 425.23 481.38 423.96 481.38 422.47 480.86 419.79 480.08 418.21 478.84 416.85 476.84 415.18 475.75 414.85 475.13 414.98 474.89 415.94 474.49 416.08 473.61 415.99 468.75 414.5 462.68 413.22 461.88 413.32 461.34 413.88 459.83 416.84 459.24 417.33 458.45 417.52 456.76 417.21 455.5 416.58 453.81 415.44 452.57 415.23 451.5 415.36 450.95 415.71 450.45 416.15 449.88 416.51 448.56 417.1 448.11 417.47 447.8 417.94 447.58 418.54 447.46 419.86 447.32 420.44 446.98 420.98 446.31 421.45 445.38 421.78 443.63 421.85 442.76 421.66 441.3 420.5 438.75 417.21 433.85 415.04 432.85 414.21 432.24 413.22 432.02 412.05 431.54 410.31 430.77 408.62 429.16 406.06 427.85 404.94 426.48 404.23 424.22 403.74 423.66 403.72 423.12 403.87 422.67 404.22 422.33 404.64 421.88 405.72 421.38 406.22 420.31 406.29 417.07 405.55 413.43 404.23 412.53 403.27 409.11 397.23 407.96 395.9 406.84 395.33 405.19 395 401.87 394.95 400.56 395.12 398.1 395.81 396.22 396.72 394.85 397.54 394.13 397.77 393.4 398.1 392.76 398.54 391.55 399.66 388.66 401.41 387.74 401.78 386.26 402 376.82 401.44 375.65 401.05 375.03 400.54 374.31 398.78 373.7 397.94 373.12 397.29 370.73 395.56 367.76 394.77 367.29 394.48 364.69 391.95 357.52 390 354.83 389.7 353.89 389.87 353.29 389.71 352.81 389.18 352.18 387.87 350.89 386.42 350.33 386.11 349.84 386.03 348.5 386.24 348.09 386.41 347.69 386.62 346.42 386.74 345.69 386.63 340.2 384.4 340.28 382.61 338.67 378.29 338.27 376.53 338.05 374.6 337.58 373.67 336.25 371.62 335.94 370.43 335.8 369.34 336.34 367.29 336.42 365 334.02 362 329.56 357.96 328.37 356.75 325.88 356.15 324.74 355.25 323.03 353.41 321.52 350.63 317.52 341.08 316.48 336.36 315.5 334.97 315.15 333.59 314.83 330.14 314.24 328.78 313.38 327.4 312.93 326.48 312.15 323.78 313.4 322.75 314.43 319.28 315.63 318.3 315.35 317.95 314.85 317.54 313.01 316.59 311.54 315.08 308.53 313.55 307.37 312.45 306.05 310.88 305.54 310.03 305.22 308.6 307.03 305.44 307.51 305.03 308.29 304.54 308.85 304.56 309.86 304.75 313.73 303.73 316.29 301.48 318.19 300.2 318.89 299.05 319.08 298.05 319.1 297.25 319.2 296.41 319.51 295.52 320.07 294.35 320.96 292.97 321.23 292.23 321.21 291.74 321.13 291.23 321.16 290.84 322.16 288.67 321.17 280.94 321.27 279.91 321.68 278.17 322.11 277.65 322.63 277.27 323.51 277.09 325.42 276.1 325.86 275.93 326.95 275.14 327.26 274.1 333.22 272.83 337.14 275.96 338.22 276.24 339.62 276.48 341.94 276.47 342.95 276.25 343.77 275.82 345.06 274.88 346.33 274.49 347.18 272.67 348.19 271.47 349.46 268.23 349.93 267.47 350.61 267 351.14 267.07 351.73 267.22 352.42 267.27 353.37 266.92 364.23 261.19 365.82 260.81 367.24 260.8 370.29 261.69 372.14 262.67 373.77 263.73 374.95 264.74 376.01 265.85 376.63 266.75 377.02 267.51 377.82 268.15 379.26 268.61 382.31 268.65 384.02 268.47 387.33 266.91 394.44 262.74 396.09 262.18 401.82 258.18 409.66 262.24 412.62 262.88 415.55 262.22 417.96 261.05 420.09 260.65 421.22 260.18 423.53 259.85 424.77 259.96 425.81 260.25 426.74 260.66 427.58 260.66 428.11 259.87 435.48 256.02 443.27 248.65 446.41 243.67 447.01 242.97 447.88 242.61 448.76 242.75 449.61 243.04 451.11 243.99 452.52 244.07 455.03 242.55 457.78 240.39 458.79 239.23 459.22 238.3 458.99 237.12 461.83 235.75 462.47 235.84 463.34 236.2 464.21 236.92 465.45 237.43 466.48 237.24 467.76 236.77 468.84 236.19 471.54 236.75 481.86 242.16 494.98 253.09 508.97 258.29 513.52 261.85 520.34 271.56 527.74 280.34 529.87 281.62 547.79 289.29 552.02 293.09 559.66 301.84 Z" id="HND-642" data-name="Olancho"/>
<path d="M 377.75 236.02 381.55 238.99 383.02 240.71 383.32 241.2 383.97 241.42 385.28 241.52 391.42 241.28 394.66 242.07 395.41 242.04 395.69 242.1 396.06 242.26 396.38 242.44 396.75 242.75 397.18 243.27 397.54 243.52 397.9 243.65 398.33 243.71 398.64 243.85 398.91 244.05 399.08 244.22 399.26 244.23 399.41 244.06 399.61 243.72 399.94 243.54 400.49 243.62 400.88 243.96 401.24 245.02 401.48 246.72 400.7 252.46 400.78 253.11 401.62 254.81 401.82 258.18 396.09 262.18 394.44 262.74 387.33 266.91 384.02 268.47 382.31 268.65 379.26 268.61 377.82 268.15 377.02 267.51 376.63 266.75 376.01 265.85 374.95 264.74 373.77 263.73 372.14 262.67 370.29 261.69 367.24 260.8 365.82 260.81 364.23 261.19 353.37 266.92 352.42 267.27 351.73 267.22 351.14 267.07 350.61 267 349.93 267.47 349.46 268.23 348.19 271.47 347.18 272.67 346.33 274.49 345.06 274.88 343.77 275.82 342.95 276.25 341.94 276.47 339.62 276.48 338.22 276.24 337.14 275.96 333.22 272.83 327.26 274.1 326.95 275.14 325.86 275.93 325.42 276.1 323.51 277.09 322.63 277.27 322.11 277.65 321.68 278.17 321.27 279.91 321.17 280.94 322.16 288.67 321.16 290.84 321.13 291.23 321.21 291.74 321.23 292.23 320.96 292.97 320.07 294.35 319.51 295.52 319.2 296.41 319.1 297.25 319.08 298.05 318.89 299.05 318.19 300.2 316.29 301.48 313.73 303.73 309.86 304.75 308.85 304.56 308.29 304.54 307.51 305.03 307.03 305.44 305.22 308.6 300.92 307.69 294.05 307.96 292.09 307.43 291.06 306.92 289.57 306.63 288.33 306.55 282.23 307.31 279.95 309.18 280.03 310.5 279.86 313.14 279.69 313.89 279.27 314.59 276.71 316.75 275.41 318.6 274.61 320.37 272.15 323.73 268.71 320.72 267.9 320.49 267.1 320.34 266.27 321.1 265.57 321.31 264.84 320.94 263.86 320.14 263.3 319.86 258.72 318.67 255.65 318.47 253.17 320.77 250.02 322.35 248.11 322.32 246.74 322.05 246.08 321.66 245.75 321.33 245.75 321.04 245.79 320.7 245.78 320.4 245.42 319.61 245.28 319.05 244.89 318.14 244.71 317.42 244.69 316.83 244.8 315.63 244.64 315 244.25 314.22 243.56 313.89 243.04 313.17 242.53 312.87 241.31 312.46 240.68 312.01 240.06 311.48 239.78 311 239.54 310.44 239.19 308.86 238.78 307.74 237.45 305.81 236.44 304.81 234.79 303.72 234.02 303.4 233.43 303.26 233.03 303.34 232.6 303.52 228.87 306.19 228.41 307.27 222.81 308.51 221.38 308.34 209.41 308.52 208.72 302.77 208.87 301.95 209.21 301.02 209.67 300.69 209.88 300.21 209.86 299.57 209.73 298.56 209.23 297.25 209.09 296.41 205.34 292.75 203.32 293.12 202.68 293.04 201.96 292.77 201.64 291.54 201.22 291 199.79 290.96 199.35 290.82 198.91 290.41 198.36 290.17 196.47 290.21 195.75 290.1 195.42 289.49 195.3 288.96 194.97 288.39 194.4 287.82 192.51 286.4 191.12 286.08 188.68 285.89 186.04 286.59 185.44 286.21 185.46 285.68 185.86 284.44 185.76 283.55 186.2 281.73 186.16 280.2 186.04 280.03 185.7 279.85 184.96 280.19 184.46 280.26 183.9 279.3 185.01 277.46 184.76 276.11 185.13 275.29 185.32 274.42 185.31 273.54 185.1 272.69 186.64 271.1 186.97 270.5 186.95 270.06 186.78 269.64 186.69 269.23 186.91 268.82 187.52 268.53 189.22 268.07 189.98 267.65 191.14 266.77 191.74 266.47 192.24 266.09 193.13 265.01 196.27 259.93 198.14 258.4 198.61 257.35 198.15 255.59 196.88 254.34 195.31 253.56 194.45 252.81 195.27 251.69 196.7 251.7 198.08 252.64 199.1 252.83 199.46 250.58 198.81 248.9 197.68 247.34 197.24 245.54 198.65 243.16 199.95 242.32 200.62 240.51 201.14 238.42 201.98 236.69 202.37 236.76 203.14 237.04 204.05 237.15 204.88 236.67 204.78 236.24 205.73 232.95 206.04 232.52 204.1 229.57 200.76 226.97 198.67 224.66 200.5 222.57 198.18 222.1 198.9 220.85 202.79 218.33 212.13 224.59 214.27 225.67 215.64 228.11 216.82 232.53 216.95 234.4 217.65 238.35 218.01 239.13 218.43 239.77 223.53 245.25 225.52 246.06 231.24 245.59 236.61 244.18 238.47 244.4 243.45 241.67 244.12 241.42 245.29 241.52 247.49 242.92 247.71 244.27 247.78 245.91 248.47 249.1 249.32 250.49 250.27 251.65 251.06 252.27 252.15 252.97 254.05 253.84 254.71 254.03 255.51 254.15 256.15 253.93 256.9 253.58 257.45 253.11 258.2 252.89 258.88 252.44 259.74 252.21 260.68 252.33 262.14 252.85 263.33 253.68 264.54 253.88 265.87 253.86 274.98 255.95 280.26 256.03 280.87 255.66 282.16 254.57 286.04 251.9 294.39 248.98 296.68 247.71 297.91 246.75 299.99 244.47 304.81 240.38 307.15 240 312.95 240.14 322.08 237.76 323.62 239.84 326.02 240.37 327.94 240.15 331.92 240.14 334.7 239.5 337.91 238.41 343.23 235.52 345.92 234.37 348.68 233.51 350.18 233.23 352.37 233.6 356.96 234.85 361.64 234.56 362.91 234.74 364.25 235.27 365.36 235.36 366.43 235.18 367.27 234.87 368.19 234.66 371.41 234.28 374.95 234.83 377.75 236.02 Z" id="HND-643" data-name="Yoro"/>
<path d="M 223.69 534.3 220.84 534.78 219.31 534.55 218.77 534.32 218.22 533.91 218.22 533.11 219.1 533.11 218.61 532.44 217.84 531.02 217.35 530.34 219.43 529.67 221.06 529.45 224.86 529.54 225.27 530.47 225.03 532.46 223.69 534.3 Z M 223.95 519.46 225.21 519.82 228.67 519.09 230.54 519.05 230.54 519.84 228.32 520.85 229.84 525.9 227.92 527.71 221.99 525.82 219.25 524.22 219.57 521.99 221.24 519.6 222.39 518.87 223.95 519.46 Z M 199 514.63 209.08 510.13 211.29 507.68 211.59 506.04 211.37 504.34 210.71 502.8 209.72 501.68 207.86 500.98 205.15 501.86 203.83 501.39 202.49 498.47 203.24 494.93 206.31 487.7 206.6 485.37 206.49 480.62 206.96 478.36 208.07 476.79 209.35 475.6 209.99 474.22 209.16 472.1 209.8 470.01 212.38 464.21 213.54 462.34 211.29 461.46 207.66 458.42 209.64 458.07 214.91 457.87 218.04 459.89 220.78 459.89 220.75 463.65 220.48 469.23 221.44 470.68 226.67 474.16 230.6 474.9 232.95 474.66 233.41 474.85 234.01 475.21 234.39 475.66 238.95 479.03 242.29 481.08 243.6 481.44 244.58 480.88 244.84 481.17 247.09 483.01 248.17 483.55 249.04 484.16 249.61 485.02 249.29 490.12 249.87 491.06 250.39 492.1 250.54 492.95 252.37 496.84 256.96 500.19 256.54 502.82 256.73 504.01 257.44 505.94 258.87 508.64 259.09 511.25 257.69 514.39 255.09 516.33 255.08 516.34 253.2 514.65 252.33 514.04 251.15 513.8 248.59 514.27 247.57 514.06 246.35 512.85 244.16 514.41 243.49 515.09 242.86 516.35 242.62 518.07 243.05 519 243.15 519.69 241.9 520.72 241.11 520.81 236.66 520.72 234.66 521.2 233.51 521.23 232.29 520.72 232.29 519.84 234.12 519.84 234.12 519.05 231.69 518.54 229.19 517.66 226.95 517.48 225.29 519.05 224.43 519.05 224.66 517.79 226.09 514.6 224.34 513.93 223.93 512.53 224.43 508.92 223.73 506.99 222.13 507.32 220.35 508.78 219.1 510.23 220.27 513.87 218.39 517.26 214.92 519.76 211.31 520.72 209.02 520.29 206.03 518.5 203.58 517.7 203.38 516.82 203.38 515.95 202.93 515.55 201.68 515.49 200.81 515.29 199 514.63 Z" fill-rule="evenodd" id="HND-645" data-name="Valle"/>
<path d="M 272.15 323.73 274.38 324.72 274.85 325.11 275.52 325.81 275.67 326.73 276.94 328.63 274.87 330.17 272.19 330.42 271.82 330.54 271.44 330.89 271.04 331.55 270.68 332.8 270.56 334.8 271.15 336.79 271.68 341.13 270.92 344.14 269.53 347.66 269.43 348.21 269.56 348.4 269.55 348.64 269.29 348.95 268.34 349.59 267.72 349.89 267.12 350.12 266.65 350.24 266.24 350.41 265.11 351.24 264.4 351.47 263.93 351.53 263.64 351.7 263.5 352.06 263.44 352.85 263.28 353.19 262.82 353.32 262.58 353.15 262.38 352.94 262.18 352.8 262 352.94 261.9 353.4 262.11 354.37 262.2 355.1 262.2 355.79 261.73 357.55 259.82 360.85 258.4 360.77 257.88 360.66 257.36 360.5 256.94 360.31 256.77 360.06 256.63 359.54 256.45 359.34 256.1 359.3 255.71 359.32 255.26 359.3 254.72 359.18 254.15 358.95 253.61 358.66 253.02 358.45 252.57 358.42 252.15 358.69 251.93 359.19 251.97 361.09 251.89 361.83 251.72 362.54 251.63 363.18 250.48 365.49 243.97 371.8 244.34 373.78 244.66 374.78 245.19 375.98 245.87 376.91 247.9 378.22 250.88 380.8 251.26 381.28 251.52 381.87 251.46 383.1 251.15 383.63 250.72 383.99 250.82 384.4 251.04 384.74 254.17 387.11 254.62 388.05 253.28 390.78 249.92 395.2 249.26 395.64 248.3 395.99 246.73 395.24 245.99 395.12 245.4 395.14 244.82 395.38 244.46 396.12 244.23 397.49 244.46 402.53 244.74 403.86 245.16 404.64 245.93 405.46 246.66 406.11 247.23 406.5 247.66 406.7 248.09 406.83 248.39 406.99 248.58 407.22 248.96 408.02 249.12 408.58 249.15 409.34 248.61 410.14 247.66 410.64 244.31 411.37 241.79 412.91 240.43 415.63 240.34 416.33 239.52 417.31 237.99 418.23 234.33 419.87 230.22 420.31 229.42 420.28 228.63 420.69 227.64 421.53 224.97 424.69 224.85 427.33 220.32 427.77 218.66 428.96 215.33 432.13 215.19 427.81 214.44 426.48 213.53 425.32 212.17 424.6 209.91 422.73 208.52 421.93 207.07 421.38 205.77 421.13 203.63 420.34 203.18 419.88 203.02 419.38 203.2 418.74 203.49 418.22 204.13 416.21 202.33 414.16 197.92 412.35 197.52 409.82 197.9 408.93 198.18 408.75 198.55 408.68 198.75 408.69 199.5 409 204.29 407.85 206.85 408.06 208.87 407.78 210.46 407.4 213.22 406.43 214.41 405.88 216.08 404.64 218.01 404.91 220.03 404.49 221.16 404.04 221.75 403.62 222.97 402.09 223.39 400.44 222.33 399.44 223.19 398.07 222.75 395.59 222.39 394.6 220.84 391.31 220.25 390.85 214.5 393.15 213.45 392.86 212.08 392.76 209.49 391.85 208.11 391.13 204.2 390.37 203.83 390.22 202.64 389.01 202.54 388.75 197.47 387.4 195.71 385.62 194.4 383.73 194.93 383.25 195.03 382.96 195.08 382.56 195.02 382.1 194.05 380.29 189.94 375.22 188.43 373.82 188.55 372.61 188.52 371.32 188.05 370.77 187.24 370.14 184.14 368.64 183.15 367.85 182.33 366.28 182.04 365.45 181.91 364.13 181.79 363.65 180.74 361.73 179.54 360.17 177.22 359.35 175.06 357.81 170.64 356.69 169.68 356.58 168.41 356.19 167.74 355.89 166 353.55 167.63 350.89 166.43 347.65 165.62 346.31 165.69 344.53 166.02 343.61 166.66 343 168.12 342.39 168.81 341.95 172.71 338 177.25 337.19 177.41 331.58 178.12 333.66 178.97 334.9 180.33 335.79 190.49 328.79 192.31 326.41 195.13 323.59 195.61 323.26 198.45 322.6 200.87 321.45 206.67 317.3 208.79 315.44 209.42 312.71 209.41 308.52 221.38 308.34 222.81 308.51 228.41 307.27 228.87 306.19 232.6 303.52 233.03 303.34 233.43 303.26 234.02 303.4 234.79 303.72 236.44 304.81 237.45 305.81 238.78 307.74 239.19 308.86 239.54 310.44 239.78 311 240.06 311.48 240.68 312.01 241.31 312.46 242.53 312.87 243.04 313.17 243.56 313.89 244.25 314.22 244.64 315 244.8 315.63 244.69 316.83 244.71 317.42 244.89 318.14 245.28 319.05 245.42 319.61 245.78 320.4 245.79 320.7 245.75 321.04 245.75 321.33 246.08 321.66 246.74 322.05 248.11 322.32 250.02 322.35 253.17 320.77 255.65 318.47 258.72 318.67 263.3 319.86 263.86 320.14 264.84 320.94 265.57 321.31 266.27 321.1 267.1 320.34 267.9 320.49 268.71 320.72 272.15 323.73 Z" id="HND-646" data-name="Comayagua"/>
<path d="M 202.79 218.33 198.9 220.85 198.18 222.1 200.5 222.57 198.67 224.66 200.76 226.97 204.1 229.57 206.04 232.52 205.73 232.95 204.78 236.24 204.88 236.67 204.05 237.15 203.14 237.04 202.37 236.76 201.98 236.69 201.14 238.42 200.62 240.51 199.95 242.32 198.65 243.16 197.24 245.54 197.68 247.34 198.81 248.9 199.46 250.58 199.1 252.83 198.08 252.64 196.7 251.7 195.27 251.69 194.45 252.81 195.31 253.56 196.88 254.34 198.15 255.59 198.61 257.35 198.14 258.4 196.27 259.93 193.13 265.01 192.24 266.09 191.74 266.47 191.14 266.77 189.98 267.65 189.22 268.07 187.52 268.53 186.91 268.82 186.69 269.23 186.78 269.64 186.95 270.06 186.97 270.5 186.64 271.1 185.1 272.69 185.31 273.54 185.32 274.42 185.13 275.29 184.76 276.11 185.01 277.46 183.9 279.3 184.46 280.26 184.96 280.19 185.7 279.85 186.04 280.03 186.16 280.2 186.2 281.73 185.76 283.55 185.86 284.44 185.46 285.68 185.44 286.21 186.04 286.59 188.68 285.89 191.12 286.08 192.51 286.4 194.4 287.82 194.97 288.39 195.3 288.96 195.42 289.49 195.75 290.1 196.47 290.21 198.36 290.17 198.91 290.41 199.35 290.82 199.79 290.96 201.22 291 201.64 291.54 201.96 292.77 202.68 293.04 203.32 293.12 205.34 292.75 209.09 296.41 209.23 297.25 209.73 298.56 209.86 299.57 209.88 300.21 209.67 300.69 209.21 301.02 208.87 301.95 208.72 302.77 209.41 308.52 209.42 312.71 208.79 315.44 206.67 317.3 200.87 321.45 198.45 322.6 195.61 323.26 195.13 323.59 192.31 326.41 190.49 328.79 180.33 335.79 178.97 334.9 178.12 333.66 177.41 331.58 177.15 326.3 176.15 323.33 172.14 319.79 169.33 319.71 168.73 319.49 168.33 317.43 169.25 312.05 169.96 310.98 171.66 305.19 173.27 303.49 172.74 302.57 171.87 302.23 170.98 301.43 170.09 301 167.23 300.05 163.55 297.7 162.03 296.01 161.06 293.88 161.76 291.46 167 286.01 167.72 284.04 165.17 283.27 163.49 282.21 162.51 281.46 159.74 275.98 158.83 263.53 158.4 262.88 155.24 262.29 153.95 261.71 152.22 260.56 150.29 258.99 146.52 256.8 145.68 255.95 145.11 255.14 144.85 254.42 144.72 253.66 144.78 252.76 145.08 251.23 145.04 250.57 144.79 249.38 144.89 248.32 144.75 247.81 143.87 247.11 142.05 246.11 129.95 242.48 123.12 241.45 115.83 243.97 115.75 243.97 124.51 237.31 130.46 231.66 134.33 225.21 135.05 224.27 137.75 224.22 139.79 223.49 141.67 222.48 143.88 221.58 144.67 222.53 145.52 220.82 145.41 219.43 145.81 218.28 147.31 217.74 148.06 218.05 153.86 222.05 157 223.01 160.37 221.55 167.8 213.88 170.95 211.94 170.27 209.93 171.55 209.52 176.59 210.19 184.06 205.81 184.98 204.08 185.25 202.82 184.53 202.24 183.11 201.84 181.94 200.93 181.41 200.03 181.87 199.62 187.27 199.51 189.43 198.88 191.53 197.43 195.3 196.2 206.31 195.47 208.61 194.84 209.35 193.04 210.37 192.73 210.78 195.76 210.07 196.97 208.81 197.72 207.39 198.98 206.65 200.18 205.49 203.28 204.56 204.57 202.54 206.58 201.86 207.72 201.88 209.07 203.82 211.24 204.34 212.93 205.37 212.66 206.17 213.29 206.59 214.48 206.52 215.93 205.77 217.22 204.62 217.87 202.79 218.33 Z" id="HND-647" data-name="Cortés"/>
<path d="M 194.4 383.73 188.7 387.83 187.17 388.67 185.58 389.32 184.24 389.34 183.23 389.12 182.36 388.79 181.73 388.82 181.34 389.51 181.05 391.21 181.57 395.12 179.51 398.92 178.83 399.76 177.6 400.6 176.08 401.18 175.29 401.8 174.84 403.41 174.93 404.39 173.87 406.18 168.5 406.37 164.11 409.94 162.03 411.99 160.92 414.65 159.86 416.12 159.51 416.46 155.83 418.25 154.44 419.52 147.47 427.05 146.67 427.75 146.2 427.6 145.86 427.96 145.87 428.58 146.7 429.86 147.52 430.7 148.67 433.11 147.54 439.51 147.72 439.82 147.73 439.84 147.42 439.77 145.5 439.57 144.24 440.03 144.18 440.46 144.31 443 144.57 443.46 145.72 444.48 145.95 444.83 145.33 446.58 144.51 446.76 143.38 446.58 141.85 447.22 141.01 448.13 140.49 449.01 140.06 449.75 139.05 450.7 137.66 451.16 136.11 451.27 134.72 451.77 133.83 453.37 133.01 453.03 131.99 452.74 130.97 452.57 130.14 452.62 129.74 453.07 129.65 453.87 129.65 454.63 129.49 455 128.56 454.9 126.52 454.12 125.29 454.05 120.13 455.16 117.8 456.12 115.4 457.54 111.99 457.71 113.12 455.9 113.03 453.85 111.65 450.49 111.29 449.27 111.55 447.38 111.99 445.82 112.08 444.33 111.43 442.93 111.29 442.63 111.82 442.7 111.85 442.71 111.96 442.62 112.23 442.45 113.66 440.58 113.75 440.25 114.12 439.66 116.26 438.07 120.39 436.26 127.55 432.17 130.4 429.64 131.58 429.18 132.2 429.03 132.55 428.82 132.9 428.3 132.9 427.31 133.02 426.53 133.22 425.95 133.91 425.21 134.34 424.85 134.62 423.04 133.76 417.4 133.56 414.65 133.61 414.12 133.61 412.88 133.79 412.37 133.58 411.06 131.29 409.75 128.51 409.17 127.71 409.12 127.06 409.15 126.44 409.28 125.92 409.26 125.32 409.04 124.57 408.65 123.79 408.14 122.95 407.77 122.24 407.37 121.63 406.92 121.32 406.22 121.44 405.31 122.67 402.69 122.88 400.37 121.52 393.98 120.69 392.89 120.24 392.45 117.44 392.1 114.82 389.87 112.27 386.54 111.4 381.23 111.81 380.23 113.95 378.9 117.08 377.97 122.9 378.03 125.92 377.61 129.44 375.8 130.78 373.67 131.03 372.17 131.78 369.75 134.31 365.28 132.85 357.24 131.58 354.89 141.55 355.6 149.04 354.84 154.7 354.34 159 355.19 162.74 355.54 163.64 354.87 166 353.55 167.74 355.89 168.41 356.19 169.68 356.58 170.64 356.69 175.06 357.81 177.22 359.35 179.54 360.17 180.74 361.73 181.79 363.65 181.91 364.13 182.04 365.45 182.33 366.28 183.15 367.85 184.14 368.64 187.24 370.14 188.05 370.77 188.52 371.32 188.55 372.61 188.43 373.82 189.94 375.22 194.05 380.29 195.02 382.1 195.08 382.56 195.03 382.96 194.93 383.25 194.4 383.73 Z" id="HND-648" data-name="Intibucá"/>
<path d="M 224.85 427.33 227.24 444.13 227.02 446.57 226.03 451.09 225.67 451.95 225.33 452.46 224.32 455.45 220.78 459.89 218.04 459.89 214.91 457.87 209.64 458.07 207.66 458.42 205.64 456.73 204.86 456.31 203.07 455.63 202.4 455.24 201.36 453.72 200.12 450.36 198.91 449.43 196.99 449.51 195.7 450.55 194.64 451.86 193.4 452.72 192.17 452.8 189.66 452.29 188.38 452.21 187.39 452.55 185.74 453.78 185.15 454.07 184.28 453.82 182.39 452.62 181.66 452.48 181.38 452.43 179.47 452.93 173.63 455.77 172.57 452.59 170.48 450.16 168.12 448.07 166.26 445.9 164.39 441.15 162.92 439.96 159.54 439.78 152.87 440.55 150.83 440.51 147.73 439.84 147.72 439.82 147.54 439.51 148.67 433.11 147.52 430.7 146.7 429.86 145.87 428.58 145.86 427.96 146.2 427.6 146.67 427.75 147.47 427.05 154.44 419.52 155.83 418.25 159.51 416.46 159.86 416.12 160.92 414.65 162.03 411.99 164.11 409.94 168.5 406.37 173.87 406.18 174.93 404.39 174.84 403.41 175.29 401.8 176.08 401.18 177.6 400.6 178.83 399.76 179.51 398.92 181.57 395.12 181.05 391.21 181.34 389.51 181.73 388.82 182.36 388.79 183.23 389.12 184.24 389.34 185.58 389.32 187.17 388.67 188.7 387.83 194.4 383.73 195.71 385.62 197.47 387.4 202.54 388.75 202.64 389.01 203.83 390.22 204.2 390.37 208.11 391.13 209.49 391.85 212.08 392.76 213.45 392.86 214.5 393.15 220.25 390.85 220.84 391.31 222.39 394.6 222.75 395.59 223.19 398.07 222.33 399.44 223.39 400.44 222.97 402.09 221.75 403.62 221.16 404.04 220.03 404.49 218.01 404.91 216.08 404.64 214.41 405.88 213.22 406.43 210.46 407.4 208.87 407.78 206.85 408.06 204.29 407.85 199.5 409 198.75 408.69 198.55 408.68 198.18 408.75 197.9 408.93 197.52 409.82 197.92 412.35 202.33 414.16 204.13 416.21 203.49 418.22 203.2 418.74 203.02 419.38 203.18 419.88 203.63 420.34 205.77 421.13 207.07 421.38 208.52 421.93 209.91 422.73 212.17 424.6 213.53 425.32 214.44 426.48 215.19 427.81 215.33 432.13 218.66 428.96 220.32 427.77 224.85 427.33 Z" id="HND-649" data-name="La Paz"/>
<path d="M 177.41 331.58 177.25 337.19 172.71 338 168.81 341.95 168.12 342.39 166.66 343 166.02 343.61 165.69 344.53 165.62 346.31 166.43 347.65 167.63 350.89 166 353.55 163.64 354.87 162.74 355.54 159 355.19 154.7 354.34 149.04 354.84 141.55 355.6 131.58 354.89 134.34 350.46 135.04 346.55 134.2 345.05 132.61 345.24 130.47 344.97 128.61 343.99 126.56 340.62 125.81 339.8 129.44 333.78 126.81 332.25 123.39 332.32 121.8 330.15 121.52 329.86 120.08 329.26 118.96 329.34 117.53 330.71 116.23 332.73 114.19 334.4 113.21 334.72 110.86 331.83 107.33 326.21 104.53 318.98 98.56 318.1 97.6 318.61 93.07 319.94 88.56 320.76 87.79 320.51 86.95 319.99 86.57 319.28 86.29 318.47 85.99 317.87 85.69 316.74 87.33 312.54 88.62 308.14 88.83 305.85 89.95 303.42 93.07 300.78 93.36 299.87 93.33 298.93 93.03 298.19 92 296.64 91.43 295.99 90.6 292.77 92.16 290.78 92.04 290.34 91.78 289.8 90.75 289.1 88.65 288.15 86.02 285.44 83.67 282.84 83.87 281.08 84.04 280.26 83.96 279.24 78.55 272.79 78.18 272.24 89.28 263.9 100.4 255.55 111.58 247.15 111.58 247.15 115.75 243.97 115.83 243.97 123.12 241.45 129.95 242.48 142.05 246.11 143.87 247.11 144.75 247.81 144.89 248.32 144.79 249.38 145.04 250.57 145.08 251.23 144.78 252.76 144.72 253.66 144.85 254.42 145.11 255.14 145.68 255.95 146.52 256.8 150.29 258.99 152.22 260.56 153.95 261.71 155.24 262.29 158.4 262.88 158.83 263.53 159.74 275.98 162.51 281.46 163.49 282.21 165.17 283.27 167.72 284.04 167 286.01 161.76 291.46 161.06 293.88 162.03 296.01 163.55 297.7 167.23 300.05 170.09 301 170.98 301.43 171.87 302.23 172.74 302.57 173.27 303.49 171.66 305.19 169.96 310.98 169.25 312.05 168.33 317.43 168.73 319.49 169.33 319.71 172.14 319.79 176.15 323.33 177.15 326.3 177.41 331.58 Z" id="HND-650" data-name="Santa Bárbara"/>
<path d="M 93.07 319.94 93.75 323.98 93.24 327.37 91.53 328.59 91.76 329.97 91.5 330.54 90.57 331.65 89.88 332.29 89.33 333.26 89.01 334.32 88.82 336 88.95 337.91 89.81 339.32 91.13 342.19 91.67 344.5 91.74 345.24 91.62 345.99 90.62 346.09 87 347.11 82.37 347.45 75.98 346.71 74.09 347.31 73.86 349.23 73.93 349.75 75.32 353.02 79.22 356.63 80.15 357.97 81.68 360.66 82.07 368.4 79.03 368.66 76.53 368.26 75.51 368.25 74.33 368.43 73.1 368.76 70.99 369.53 70.06 370.14 69.63 371.14 69.64 372.66 69.69 373.19 70 373.58 70.1 374.01 69.76 374.23 68.46 374.61 66.88 374.31 65.34 373.04 63.6 372.61 61.32 371.67 59.11 369.42 57.4 366.8 57.2 365.85 57.27 362.5 56.46 360.75 48.27 354.72 47.18 352.9 46.26 349.05 44.29 346.38 36.62 345.34 34.94 345.91 30.8 347.11 28.85 347.65 28.3 346.83 27.13 345.83 25.74 344.08 23.32 338.42 22.12 336.49 19.54 333.47 18.43 331.82 17.82 330.03 17.94 327.62 18.95 326.13 22.12 323.46 23.35 321.77 24.33 320.41 25.92 316.77 25.92 313.4 23.43 311.14 25.45 305.23 26.99 302.93 28.76 301.51 29.58 300.86 33.51 298.93 46.51 294.71 50.97 292.66 67.16 280.51 78.18 272.24 78.55 272.79 83.96 279.24 84.04 280.26 83.87 281.08 83.67 282.84 86.02 285.44 88.65 288.15 90.75 289.1 91.78 289.8 92.04 290.34 92.16 290.78 90.6 292.77 91.43 295.99 92 296.64 93.03 298.19 93.33 298.93 93.36 299.87 93.07 300.78 89.95 303.42 88.83 305.85 88.62 308.14 87.33 312.54 85.69 316.74 85.99 317.87 86.29 318.47 86.57 319.28 86.95 319.99 87.79 320.51 88.56 320.76 93.07 319.94 Z" id="HND-651" data-name="Copán"/>
<path d="M 131.58 354.89 132.85 357.24 134.31 365.28 131.78 369.75 131.03 372.17 130.78 373.67 129.44 375.8 125.92 377.61 122.9 378.03 117.08 377.97 113.95 378.9 111.81 380.23 111.4 381.23 112.27 386.54 114.82 389.87 117.44 392.1 120.24 392.45 120.69 392.89 121.52 393.98 122.88 400.37 122.67 402.69 121.44 405.31 121.32 406.22 121.63 406.92 122.24 407.37 122.95 407.77 123.79 408.14 124.57 408.65 125.32 409.04 125.92 409.26 126.44 409.28 127.06 409.15 127.71 409.12 128.51 409.17 131.29 409.75 133.58 411.06 133.79 412.37 133.61 412.88 133.61 414.12 133.56 414.65 133.76 417.4 134.62 423.04 134.34 424.85 133.91 425.21 133.22 425.95 133.02 426.53 132.9 427.31 132.9 428.3 132.55 428.82 132.2 429.03 131.58 429.18 130.4 429.64 127.55 432.17 120.39 436.26 116.26 438.07 114.12 439.66 113.75 440.25 113.66 440.58 112.23 442.45 111.96 442.62 112.03 442.56 112.07 442.24 112.17 441.84 111.03 440.75 109.78 440.24 104.14 439.82 94.45 436.81 91.18 436.59 87.92 437.08 87.14 437.38 87.16 437.15 87.2 436.49 86.91 435.42 86.28 434.56 85.36 433.79 84.76 433.58 82.02 433.22 80.01 431.94 80.08 430.14 80.85 428.03 80.96 425.86 80.04 424.41 78.92 424.52 77.6 425.31 76.08 425.89 70.46 425.48 68.22 425.8 67.38 422.19 65.45 418.37 62.77 415.08 59.6 413.11 57.6 413.07 55.81 413.82 54.3 414.68 53.06 414.95 51.93 414.16 51.51 412.8 51.38 411.75 51.53 408.32 51.26 404.18 50.28 401.05 50.41 400.07 50.92 399.39 51.82 398.64 52.6 397.79 53.7 396.04 54.49 395.16 55.33 394.59 57.38 394.36 61.57 392.47 62.23 391.39 63.04 389.61 63.2 387.95 63.5 386.7 64.2 386.45 65.13 386.46 66.36 387.89 67.05 388.55 68.52 389.2 71.81 389.14 70.24 387.05 70.17 386.42 70.21 385.54 70.5 384.35 70.69 384.05 70.95 384.01 71.8 384.59 74.51 384.97 78.21 383.77 79.23 383.2 79.94 382.57 80.38 382.05 80.68 380.56 84.02 371.06 83.59 369.1 83.25 368.85 82.07 368.4 81.68 360.66 80.15 357.97 79.22 356.63 75.32 353.02 73.93 349.75 73.86 349.23 74.09 347.31 75.98 346.71 82.37 347.45 87 347.11 90.62 346.09 91.62 345.99 91.74 345.24 91.67 344.5 91.13 342.19 89.81 339.32 88.95 337.91 88.82 336 89.01 334.32 89.33 333.26 89.88 332.29 90.57 331.65 91.5 330.54 91.76 329.97 91.53 328.59 93.24 327.37 93.75 323.98 93.07 319.94 97.6 318.61 98.56 318.1 104.53 318.98 107.33 326.21 110.86 331.83 113.21 334.72 114.19 334.4 116.23 332.73 117.53 330.71 118.96 329.34 120.08 329.26 121.52 329.86 121.8 330.15 123.39 332.32 126.81 332.25 129.44 333.78 125.81 339.8 126.56 340.62 128.61 343.99 130.47 344.97 132.61 345.24 134.2 345.05 135.04 346.55 134.34 350.46 131.58 354.89 Z" id="HND-652" data-name="Lempira"/>
<path d="M 82.07 368.4 83.25 368.85 83.59 369.1 84.02 371.06 80.68 380.56 80.38 382.05 79.94 382.57 79.23 383.2 78.21 383.77 74.51 384.97 71.8 384.59 70.95 384.01 70.69 384.05 70.5 384.35 70.21 385.54 70.17 386.42 70.24 387.05 71.81 389.14 68.52 389.2 67.05 388.55 66.36 387.89 65.13 386.46 64.2 386.45 63.5 386.7 63.2 387.95 63.04 389.61 62.23 391.39 61.57 392.47 57.38 394.36 55.33 394.59 54.49 395.16 53.7 396.04 52.6 397.79 51.82 398.64 50.92 399.39 50.41 400.07 50.28 401.05 51.26 404.18 51.53 408.32 51.38 411.75 51.31 411.15 50.83 409.55 49.68 407.66 48.5 406.28 45.25 403.88 44.68 402.73 44.17 398.81 43.35 397.22 41.3 396.23 36.94 395.73 35.48 394.51 35.98 393.25 36.09 391.95 35.82 390.67 35.18 389.5 34.44 388.54 33.81 387.97 33.06 387.83 31.93 388.13 30.92 389.15 29.07 392.61 27.86 393.69 21.95 391.97 18.7 389.74 12.17 388.38 8.2 386.55 3.25 385.78 1.28 385.47 1 381.49 1.23 379.46 2.06 377.79 3.37 376.96 6.22 376.25 7.27 375.16 8.55 372.94 10.33 371.06 14.34 367.7 15.5 366.3 16.12 365.3 17.09 364.67 19.27 364.39 20.84 364.67 24.06 365.75 25.53 365.64 27.04 364.24 27.63 362.12 27.7 359.85 27.17 353.4 27.62 352.6 28.98 351.16 29.31 350.16 29.07 347.98 28.85 347.65 30.8 347.11 34.94 345.91 36.62 345.34 44.29 346.38 46.26 349.05 47.18 352.9 48.27 354.72 56.46 360.75 57.27 362.5 57.2 365.85 57.4 366.8 59.11 369.42 61.32 371.67 63.6 372.61 65.34 373.04 66.88 374.31 68.46 374.61 69.76 374.23 70.1 374.01 70 373.58 69.69 373.19 69.64 372.66 69.63 371.14 70.06 370.14 70.99 369.53 73.1 368.76 74.33 368.43 75.51 368.25 76.53 368.26 79.03 368.66 82.07 368.4 Z" id="HND-653" data-name="Ocotepeque"/>
<path d="M 276.19 480.76 274.92 486.2 275.8 487.84 277.2 488.3 278.32 489.5 279.13 490.19 279.69 492.61 280.02 494.18 281.84 495.22 287.74 495.56 288.81 496.38 288.88 497.58 289.97 500 292.23 501.73 293.81 501.93 294.67 501.63 298.6 499.41 301.5 496.18 301.8 494.26 302.26 493.22 303.68 491.93 305.57 491.35 306.57 490.72 307.97 489.63 310.01 487.47 310.97 486.09 311.56 484.89 311.93 482.54 312.21 482.11 313.07 482.35 313.71 482.63 317.52 482.29 318.04 483.23 322.97 480.09 324.01 479.71 326.2 479.5 327.17 479.55 328.04 479.39 329.06 477.79 329.96 477.05 330.98 476.87 332.82 476.09 332.91 476.05 332.54 482.88 332.79 484.04 333.29 484.7 333.81 485.09 334.93 485.91 335.42 486.74 335.5 488.79 334.71 492.89 334.78 495.07 338.91 510.43 338.7 512.42 337.07 515.96 336.87 517.79 337.36 519.06 338.12 519.45 339 519.65 339.82 520.38 340.75 522.01 341.02 522.79 341.78 526.46 341.51 528.42 340.51 530.11 338.76 531.69 337.83 532.31 336.92 532.92 335.71 533.23 334.51 532.86 327.14 529.31 324.94 529.12 322.88 529.7 321.19 530.84 315.04 536.01 314 537.27 313.09 538.98 312.16 542.59 311.95 542.93 312.18 543.67 313.15 545.73 313.38 546.05 312.28 552.79 312.6 553.59 313.32 553.9 313.83 554.37 313.48 555.62 312.83 556.28 310.95 557.2 310.22 557.76 307.22 562.34 305.77 563.88 302.49 565.9 299.82 567.18 299.13 569.27 297.62 569.17 294.67 567.4 292.78 567.2 263.41 569.04 263.46 569 264.7 568.16 265.1 566.52 266.03 565.26 267.41 564.35 269.16 563.71 269.16 562.91 265.62 562.8 263.07 562.3 261.14 561.22 259.47 559.34 258.64 558.08 258.45 557.39 258.67 555.36 259.48 555.06 263.41 554.47 264.7 554.09 257.3 552.17 253.1 551.72 250.73 552.42 249.93 552.42 249.58 547.49 247.83 542.43 245.36 537.96 242.86 534.78 242.06 532.73 241.9 532.63 241.59 532.1 240.84 532.15 239.99 532.33 239.36 532.17 238.47 531.01 238.04 529.98 238.26 528.92 239.36 527.71 240.44 527.02 242.59 526.06 243.73 525.09 246.29 521.54 247.23 520.72 248.96 521.1 250.98 520.62 255.09 519.05 254.92 517.98 254.92 517.23 255.09 516.35 255.08 516.34 255.09 516.33 257.69 514.39 259.09 511.25 258.87 508.64 257.44 505.94 256.73 504.01 256.54 502.82 256.96 500.19 252.37 496.84 250.54 492.95 250.39 492.1 249.87 491.06 249.29 490.12 249.61 485.02 249.04 484.16 248.17 483.55 247.09 483.01 244.84 481.17 244.58 480.88 244.05 479.18 244.03 477.34 244.74 474.57 245.04 471.25 245.45 469.78 246.86 469.35 249.35 469.31 250.84 469.7 252.28 470.03 252.85 469.89 253.59 469.88 254.11 470.01 253.99 470.55 253.07 472.72 253.33 474.36 255.79 476.71 257.52 478.33 262.72 477.72 264.24 478.5 265.5 479.07 269.89 478.55 276.19 480.76 Z" id="HND-661" data-name="Choluteca"/>
<path d="M 487.56 433.28 486.47 433.47 483.66 434.38 482.45 436.16 481.21 437.41 476.72 438.75 477.13 440.09 476.74 440.22 476.39 440.21 476.19 440.36 476.25 440.96 475.46 440.96 474.37 440.65 471.77 442.84 470.14 443.59 467.87 443.44 466.54 443.14 465.92 443.84 465.77 446.64 464.5 450.49 463.97 452.96 464.45 454.08 466.37 454.66 467.1 456.14 466.83 458.13 465.77 460.19 464.88 460.98 464.61 461.23 464.52 461.2 464.28 461.1 462.58 459.23 459.97 459.02 456.98 459.11 454.15 458.16 452.11 455.74 450.86 453.11 449.35 450.89 446.54 449.69 444.8 449.79 443.63 450.26 442.45 450.51 440.67 449.91 439.81 449.13 437.04 445.56 428 439.16 427.63 435.77 429.02 433.02 429.05 431.6 419.25 433.02 417.49 433.91 416.06 435.18 415.39 436.28 414.89 437.52 413.97 439.15 412.47 440.67 410.92 441.46 409.42 442.03 408.07 442.9 403.65 449.62 395.26 458.41 393.24 461.53 392.23 465.33 391.49 467.26 390 468.9 388.09 469.81 385.74 470.37 379.14 470.79 378.24 470.66 377.03 470.28 376.27 469.75 374.25 467.72 372.38 467.98 370.66 468.87 368.8 469.45 366.53 468.82 362.29 466.55 357.24 466.84 346.8 468.78 341.21 468.1 338.53 468.33 335.63 469.75 334.16 470.75 333.55 471.27 333.33 472.05 333.03 473.83 332.91 476.05 332.82 476.09 330.98 476.87 329.96 477.05 329.06 477.79 328.04 479.39 327.17 479.55 326.2 479.5 324.01 479.71 322.97 480.09 318.04 483.23 317.52 482.29 313.71 482.63 313.07 482.35 312.21 482.11 311.93 482.54 311.56 484.89 310.97 486.09 310.01 487.47 307.97 489.63 306.57 490.72 305.57 491.35 303.68 491.93 302.26 493.22 301.8 494.26 301.5 496.18 298.6 499.41 294.67 501.63 293.81 501.93 292.23 501.73 289.97 500 288.88 497.58 288.81 496.38 287.74 495.56 281.84 495.22 280.02 494.18 279.69 492.61 279.13 490.19 278.32 489.5 277.2 488.3 275.8 487.84 274.92 486.2 276.19 480.76 280.23 479.48 286.36 482.07 286.95 482.18 286.99 481.63 287.35 479.42 288.32 477.37 289.32 476 289.38 473.99 287.93 471.36 287.14 470.39 286.77 469.04 286.68 467.24 286.76 465.42 286.99 464.42 287.2 463.95 288.05 462.94 289.98 463.82 292.89 466.35 293.93 466.86 297.06 467.44 299.07 467.41 299.7 466.95 301.83 464.21 304.25 458.38 304.77 452.5 304.58 449.98 304.91 448.33 305.54 447.07 305.64 445.98 305.52 445.05 304.99 443.2 309.43 443.98 311.52 442.9 313 441.35 314.37 438.75 314.84 433.67 314.59 432.26 314.23 431.46 313.25 430.92 309.73 428.38 306.4 423.97 305.63 421.68 308.35 420.63 310.12 420.63 312.16 421.01 314.86 420.63 316.18 418.05 316.03 417.56 315.54 416.95 314.83 416.55 313.77 416.27 313.61 415.8 313.87 415.16 315.27 413.23 316.82 409.22 323.06 403.88 325.49 399.62 326.44 395.42 330.64 391.51 340.2 384.4 345.69 386.63 346.42 386.74 347.69 386.62 348.09 386.41 348.5 386.24 349.84 386.03 350.33 386.11 350.89 386.42 352.18 387.87 352.81 389.18 353.29 389.71 353.89 389.87 354.83 389.7 357.52 390 364.69 391.95 367.29 394.48 367.76 394.77 370.73 395.56 373.12 397.29 373.7 397.94 374.31 398.78 375.03 400.54 375.65 401.05 376.82 401.44 386.26 402 387.74 401.78 388.66 401.41 391.55 399.66 392.76 398.54 393.4 398.1 394.13 397.77 394.85 397.54 396.22 396.72 398.1 395.81 400.56 395.12 401.87 394.95 405.19 395 406.84 395.33 407.96 395.9 409.11 397.23 412.53 403.27 413.43 404.23 417.07 405.55 420.31 406.29 421.38 406.22 421.88 405.72 422.33 404.64 422.67 404.22 423.12 403.87 423.66 403.72 424.22 403.74 426.48 404.23 427.85 404.94 429.16 406.06 430.77 408.62 431.54 410.31 432.02 412.05 432.24 413.22 432.85 414.21 433.85 415.04 438.75 417.21 441.3 420.5 442.76 421.66 443.63 421.85 445.38 421.78 446.31 421.45 446.98 420.98 447.32 420.44 447.46 419.86 447.58 418.54 447.8 417.94 448.11 417.47 448.56 417.1 449.88 416.51 450.45 416.15 450.95 415.71 451.5 415.36 452.57 415.23 453.81 415.44 455.5 416.58 456.76 417.21 458.45 417.52 459.24 417.33 459.83 416.84 461.34 413.88 461.88 413.32 462.68 413.22 468.75 414.5 473.61 415.99 474.49 416.08 474.89 415.94 475.13 414.98 475.75 414.85 476.84 415.18 478.84 416.85 480.08 418.21 480.86 419.79 481.38 422.47 481.38 423.96 481.6 425.23 482.1 426.21 483.37 427.19 484.41 427.75 485.39 428.51 485.96 429.06 487.55 433.24 487.56 433.28 Z" id="HND-662" data-name="El Paraíso"/>
</g>
</svg>