<?xml version="1.0"?>
<svg xmlns="http://www.w3.org/2000/svg" version="1.2" baseProfile="tiny" width="800" height="971" viewBox="0 0 800 971" stroke-linecap="round" stroke-linejoin="round">
<g id="ne_10m_admin_1_states_provinces">
<path d="M 726.91 711.83 726.16 713.95 724.32 714.29 722.98 712.11 723.06 713.21 722.92 714.33 722.53 715.16 721.89 715.5 721.6 715.63 721.42 715.89 721.12 716.14 720.53 716.27 719.84 716.03 719.29 715.57 718.93 715.11 718.82 714.89 717.51 715.08 715.73 715.68 712.01 717.62 711.1 716.95 710.22 717.11 709.56 717.96 709.28 719.32 709.82 720.1 710.89 720.74 711.65 721.44 711.27 722.46 710.03 722.44 709.25 721.86 708.81 720.88 708.61 719.66 706.4 720.13 706.4 717.86 707.59 714.72 708.95 712.47 710.77 711.46 713.12 710.76 715.17 709.72 716.05 707.71 717.22 706.38 719.92 706.55 722.91 707.53 724.97 708.7 726.91 711.83 Z M 468.47 505.5 474.36 507.48 476.72 506.9 478.13 507.61 479.69 507.68 480.97 507.44 481.5 507.24 482.01 508.06 483.21 508.75 485.65 509.63 504.42 512.42 505.66 512 506.44 510.99 507.07 509.76 507.83 508.64 508.9 508 510.48 507.48 513.65 506.9 516.72 506.9 517.5 507.13 517.98 507.61 518.35 508.1 518.79 508.33 520.01 509.32 525.3 515.83 533.85 516.17 535.68 517.04 537.54 516.84 539.51 516.39 541.66 516.51 543.23 517.31 544.13 518.24 545.24 518.98 548.21 519.46 548.98 519.89 549.59 520.43 549.84 520.97 550.41 521.16 553.98 521.96 555.26 522.56 556.84 523.55 558.18 524.7 559.08 526.28 560.48 527.26 561.02 528.1 562.16 530.88 563.23 531.43 564.71 531.23 565.63 531.56 566.01 532.08 567.03 533.9 567.34 534.29 569.04 535.3 570.36 537.69 574.23 551.99 574.9 553.5 576.09 553.78 576.81 554.57 577.18 555.75 577.28 557.21 577.89 557.29 580.38 560.29 580.75 560.93 581.94 561.4 584.55 561.66 586.14 562.29 587.38 563.17 588.27 564.26 588.8 565.66 588.99 567.47 592.03 571.96 592.17 572.62 592.01 574.13 592.11 575.72 593.02 576.67 592.21 578.07 592.42 579.56 593.7 582.86 593.97 586.01 594.27 587.02 595.06 586.89 595.74 586.89 595.57 588.35 595.42 588.95 595.06 589.68 595.59 590.62 597.11 595.19 597.16 595.81 597.11 597.85 598.41 599.96 598.99 601.6 599.63 604.46 603.17 611.55 604.6 612.97 603.87 613.73 603.31 614.58 602.56 616.38 604.75 616.61 606.48 618.03 607.61 620.06 608.01 622.17 610.23 624.77 611.42 628.65 611.89 637.09 612.53 640.94 613.53 644.45 614.18 650.9 614.52 651.94 615.09 652.81 619.21 661.47 620.05 662.6 621.39 663.93 622.17 665.44 622.38 671.83 622.97 674.49 623.13 674.56 622.87 675.36 622.41 675.9 621.97 676.27 621.76 676.6 621.7 678.31 622.38 682.74 622.26 683.56 621.69 684.63 621.76 685.4 622.22 686.33 623.29 687.47 623.75 688.19 624.54 692.92 625.17 694.32 624.79 694.62 624.11 695.36 623.75 695.68 624.55 697.08 625.79 702.56 627.18 705.59 627.64 707.05 627.22 708.07 627.22 708.69 627.63 710.56 633.1 708.46 710.31 673.92 710.95 673.81 764.13 670.45 764.16 670.45 764.07 672.44 764.07 672.44 764.07 672.44 764.01 672.5 756.41 680.28 752.82 685.77 752.35 687.51 750.19 688.84 744.51 694.01 740.95 698.38 738.88 699.62 737.35 697.73 735.48 698.49 733.76 698.32 732.62 697.17 732.52 695.02 730.52 697.08 730.13 699.47 729.21 701.78 726.32 701.51 722.42 700.59 721.55 700.53 720.33 701.29 718.34 703.47 715.65 704.6 714.61 705.95 713.52 707.07 711.95 706.99 710.64 706.31 709.69 705.64 709.03 704.68 708.61 703.25 708.69 701.78 709.67 699.01 709.6 697.8 709.36 696.42 709.77 695.18 711.27 692.95 707.74 695.67 707.33 707.41 705.2 710.06 703.35 708.67 701.5 702.53 699.68 701.14 698.64 700.54 697.72 699.49 696.79 699.11 695.6 700.53 696.25 702.02 696.54 703.34 696.28 704.6 697.91 703.9 699.19 704.24 700.06 705.36 700.36 706.99 700.15 707.66 699.22 708.19 699 708.76 699.33 709.72 700.06 709.95 700.79 710.11 701.11 710.78 701.28 718.06 701.87 721.92 703.15 724.44 704.05 724.68 705.14 724.55 706.35 724.61 707.61 725.49 708.59 726.93 708.74 728.01 707.61 730.61 705.15 733.64 702.94 734.07 702.62 732.95 705.88 731.31 704.16 730.7 702.78 729.77 700.36 727.22 699.99 726.42 700.12 725.92 700.05 725.54 699 725.12 699.13 725.35 698.45 725.59 696.99 725.85 694.5 727.22 692.26 729.9 690.17 731.75 688.09 730.63 688.16 731.48 688.42 732.38 688.96 733.13 689.78 733.42 690.25 733.7 690.07 734.35 689.39 735.43 690.04 736.89 692.87 738.77 693.55 740.17 692.38 742.47 689.63 745.18 686.52 747.42 681.89 749.33 675.78 756.59 672.32 757.91 669.26 757.24 666.28 755.9 663.11 755.17 659.84 755.51 649.75 758.69 645.61 761.66 643.09 762.46 640.16 764.28 635.19 768.31 634.01 769.54 633.13 770.94 631.29 775.11 628.31 778.88 627.88 780.56 628.07 781.34 629.56 783.32 629.67 783.97 629.29 785.49 629.18 786.36 627.3 792.74 627.07 796.01 629.18 797.61 628.66 800.23 629.87 801.38 631.93 801.18 634.01 799.64 634.09 800.77 633.31 801.95 629.82 805.27 627.73 808.06 627.19 809.26 626.76 814.33 626.13 816.07 622.73 820.9 622.66 822.24 623.74 825.87 623.73 827.72 623.11 829.26 622.22 830.69 621.06 831.94 619.64 832.89 614.81 835.08 613.5 835.96 611.1 838.76 609.75 839.83 607.99 840.11 608.77 838.42 609.85 834.61 610.04 833.23 608.24 833.66 607.45 834.64 607.28 835.94 607.31 837.34 607.21 838.27 606.63 840.73 606.81 841.28 607.19 841.83 607.37 842.42 605.61 845.3 603.58 850.63 600.92 854.9 599.88 860.64 598.73 862.97 597.46 864.11 596.59 864.29 594.43 863.35 593.95 863.05 592.65 861.54 592.18 861.45 589.52 861.23 589.93 860.36 590.01 859.96 588.97 859.13 588.19 860.96 588.47 862.49 589.67 863.38 591.69 863.35 590.49 864.76 590.89 865.93 592.3 866.39 595.77 864.98 596.88 865.78 597.51 867.31 597.76 868.79 597.57 871.94 589.52 894.13 586.96 896.59 584.1 897.04 582.09 895.54 582.1 892.15 579.89 893.37 579.28 894.13 579.63 895.13 580.31 896.13 580.65 897.07 581.1 897.98 582.1 898.9 584.31 898.73 585.42 899.27 585.13 900.99 583.03 903.31 582.72 904.02 582.44 904.91 581.73 906.14 580.84 907.23 579.97 907.7 579.02 907.18 578.35 904.89 577.57 904.36 576.89 903.15 577.1 900.86 576.95 899.48 575.21 900.95 572.65 899.54 571.49 899.37 570.39 900.27 571.38 901.22 572.56 901.68 575.21 902.31 574.47 904.09 573.52 904.94 570.39 905.65 569.37 905.68 568.24 905.57 567.34 905.68 566.98 906.37 567.05 908.48 567.25 909.47 567.66 910.49 569.11 908.54 572.42 908.32 575.91 909.34 577.87 911.18 577.49 913.58 572.5 922.14 569.3 930.28 566.03 942.53 564.93 945.36 564.04 944.06 563.18 944.13 562.33 945 561.53 946.12 561.37 946.67 561.47 947.91 561.15 948.47 559.73 949.76 559.42 950.2 556.01 960.48 555.38 958.63 555.69 955.72 555.33 954.29 554.04 955.29 553.33 956.68 552.73 958.24 551.92 959.74 551.43 959.68 550.72 959.3 550.09 959.4 549.82 960.8 550.02 961.63 551.58 963.8 550.57 965.18 547.21 965.68 543.4 964.74 541.02 961.78 540.93 962.36 540.34 963.83 537.41 962.95 535.25 965.02 533.42 967.86 531.47 969.28 531.06 969.42 530.7 969.45 530.37 969.6 530.05 970.02 521.58 963.91 513.06 957.78 504.54 951.65 496.02 945.51 487.49 939.38 478.96 933.24 470.45 927.1 461.94 920.98 453.41 914.85 452.75 914.37 444.9 908.71 436.37 902.58 427.85 896.44 419.34 890.31 410.81 884.18 402.3 878.04 393.78 871.9 388.34 868 386.97 866.21 385.97 864.16 384.24 858.01 383.48 856.48 382.09 855.2 380.2 854.29 378.1 853.73 375.96 853.55 371.19 853.83 370.9 852.45 371.69 850.5 372.09 848.85 371.59 848.07 369.95 847.86 369.23 847.13 369.07 846.08 369.33 844.91 369.8 843.8 370.31 842.91 371.76 841.3 373.99 839.54 376.37 838.27 378.25 838.12 378.11 836.34 378.46 834.95 379.45 834.09 381.27 833.96 379.26 821.76 381.08 821.2 390.27 819.95 391.12 820.04 392.08 820.06 393.68 819.94 394.33 819.04 394.7 817.86 396.28 803.58 403.01 780.61 405.59 781.38 407.97 780.62 420.05 774.88 422.55 773.3 423.43 772.21 424.09 771.78 424.67 771.63 425.16 771.79 425.61 772.01 426 772.31 426.32 772.65 428.11 775 428.43 775.34 431.5 777.67 434.86 779.1 435.37 779.24 436.78 779.84 437.2 780.1 438.97 781.69 443.3 788.3 445.33 792.41 445.83 793.97 446.04 794.4 446.34 794.77 447.08 795.43 447.51 795.7 451.84 797.41 452.25 797.67 453.68 798.92 454.9 800.43 455.54 801.07 455.83 801.24 456.02 801.17 456.59 800.41 456.87 800.21 457.44 799.93 458.49 799.69 459.76 799.61 461.18 799.71 461.52 799.68 461.9 799.43 462.28 799.08 462.85 798.71 463.39 798.68 463.93 798.73 465.01 798.98 465.53 799.16 466.44 799.58 468.11 800.61 469.55 801.17 469.99 801.41 470.78 801.97 471.07 802.25 471.52 802.79 471.77 803.04 472.14 803.3 472.64 803.48 473.74 803.75 474.7 804.12 476.32 805.25 476.75 805.47 477.27 805.56 477.83 805.52 480.74 805.06 481.37 805.07 481.94 805.17 482.49 805.31 485.43 806.48 490.23 806.89 490.62 807.15 490.81 807.6 490.56 808.35 490.47 808.83 490.47 809.12 490.71 809.3 491.01 809.34 491.44 809.31 492.94 808.81 493.41 808.59 493.81 808.32 494.25 808.1 494.74 807.97 496.47 807.83 496.95 807.64 497.39 807.38 498.89 806.18 499.31 805.93 499.8 805.75 500.39 805.63 501.01 805.62 502.78 805.85 503.37 805.84 503.92 805.77 504.42 805.59 505.48 805.35 506.05 805.37 506.54 805.52 507.5 805.92 508 806.03 508.54 805.99 508.96 805.77 509.96 804.68 510.64 804.05 510.98 803.84 511.27 803.75 511.73 803.75 512.18 803.88 513 804.4 513.47 804.6 514.01 804.72 515.04 804.76 515.21 804.6 515.23 804.38 474.09 743.83 473.95 743.4 474.43 743.24 475.95 743.67 477.55 743.92 478.76 743.95 480.01 743.81 480.55 743.64 481.03 743.43 482.8 742.4 483.16 742.1 485.11 739.26 485.43 738.92 486.25 738.37 486.72 738.17 488.36 737.75 488.87 737.56 489.3 737.34 490.37 736.48 490.77 736.06 508.97 699.65 509.42 697.51 509.59 694.74 507.05 679.23 506.98 677.89 507.22 676.54 508.26 675.21 510.51 672.92 510.89 672.06 511.04 671.5 510.68 617.54 509.96 615.33 498.11 589.48 452.72 511.16 452.67 509.87 453.64 510.05 454.57 510.03 455.48 509.63 457.74 510.62 460.73 509.23 465.76 505.54 468.47 505.5 Z" fill-rule="evenodd" id="KEN-1193" data-name="Coast"/>
<path d="M 319.99 501.2 322.33 503.53 342.98 519.03 343.69 520.08 354.23 545.78 354.58 547.37 354.55 555.03 354.66 555.9 354.98 556.79 358.17 560.59 358.99 562.03 359.02 564.62 358.95 565.42 359.13 572.58 359.35 573.75 359.85 575.36 360.07 575.81 360.37 576.19 360.54 576.56 360.37 577.01 359.32 577.65 346.11 582.59 345.33 582.68 344.73 582.59 344.28 582.37 342.31 580.93 340.95 579.56 340.17 579 339.74 578.82 339.28 578.73 338.92 578.73 338.47 578.79 337.99 578.94 337.14 579.33 336.89 579.52 336.64 580.07 336.38 580.95 335.4 588.15 335.4 589.21 335.62 589.92 339.34 593 339.65 593.35 339.93 593.76 340.16 594.22 341.23 598 342.14 599.81 342.43 600.21 342.77 600.55 343.24 600.75 343.79 600.82 344.36 600.73 344.87 600.55 345.35 600.33 347.02 599.3 347.45 599.12 347.86 599.1 348.21 599.36 348.51 599.75 348.68 600.24 348.68 600.92 348.52 601.68 348.14 602.67 347.69 604.84 347.75 606.81 345.01 610.65 343.89 611.73 343.66 611.89 343.45 611.87 340.3 609.67 339.8 609.54 339.29 609.51 338.23 609.72 337.75 609.91 336.86 610.37 336.19 610.64 335.22 610.83 334.04 610.77 333.5 610.67 332.93 610.64 332.37 610.7 331.91 610.91 330.03 612.14 329.35 612.78 328.93 613.42 328.7 614.19 328.76 615.48 329.1 616.95 329.1 617.67 327.92 620.97 325.87 625.2 324.51 626.61 323.04 624.84 322.04 624.03 320.74 623.26 317.84 623.83 316.56 624.3 315.87 624.46 315.03 624.54 313.61 624.51 312.09 624.3 311.34 624.08 309.66 623.31 307.97 622.27 307.6 621.93 307.43 621.45 307.46 620.91 307.59 620.37 308.54 618.73 308.59 618.3 308.42 617.98 308.08 617.77 307.11 617.47 306.87 617.36 306.15 616.93 305.65 616.85 305.12 616.93 302.41 619.86 301.96 620.18 301.42 620.45 299.7 620.69 298.93 620.89 298.01 621.25 297.41 621.38 296.87 621.33 292.83 620.02 292.29 619.94 291.48 620.34 290.47 621.13 287.28 625.13 286.67 625.63 285.44 626.22 284.68 626.41 284 626.8 283.42 627.36 281.74 629.82 279.07 632.71 278.23 632.34 276.55 631.36 275.03 630.24 274.61 630.02 273.94 629.83 262.26 628.08 261.75 627.36 261.58 626.03 265.38 614.84 265.69 614.43 266.2 614.32 268.01 614.33 268.58 614.23 269.06 614.07 269.5 613.7 269.76 613.1 269.89 612.02 269.84 611.24 269.2 608.29 269.14 607.67 269.3 605.88 270.01 603.38 270.04 603.06 270.02 602.89 269.95 602.68 268.57 600.86 268.32 600.4 267.61 598.3 267.5 597.79 267.49 597.06 267.69 595.32 267.67 594.79 267.56 594.33 264.09 584.83 263.35 580.72 263.46 579.87 264.31 577.26 264.43 576.3 264.42 575.51 263.13 569.9 262.98 567.99 262.33 564.99 262.13 564.54 261.74 564.37 261.41 564.27 260.98 564.2 260.02 563.9 259.05 563.49 258.62 563.25 258.27 562.92 257.82 561.98 257.54 561.54 257.15 561.26 256.67 561.12 255.45 561.13 254.2 561.26 252.13 561.66 251.87 561.65 251.65 561.52 251.5 561.11 251.14 559.48 250.74 558.48 250.48 557.37 250.4 554.77 249.63 549.95 249.77 548.48 250 547.54 250.2 546.18 250.15 545.59 249.7 544.02 249.5 543.55 249.24 543.2 248.9 543.03 248.51 543.03 245.52 543.6 245.06 543.6 244.73 543.33 244.48 542.95 244.28 542.47 244 542.09 243.62 541.87 243.09 541.86 242.53 541.92 240.33 542.48 239.16 542.63 238.57 542.57 238.07 542.43 237.65 542.26 237.39 542.09 237.11 541.87 232.17 531.03 231.83 529.98 231.63 528.8 231.54 527.54 231.6 526.89 231.75 526.27 232.81 523.4 232.99 522.27 232.79 517.2 233.08 514.8 233.43 513.56 233.72 512.87 234.17 510.94 235.62 508.54 235.85 508.07 237.18 504.02 237.67 503.07 239 501.84 239.95 501.26 244.02 499.62 244.36 499.36 244.62 498.93 244.9 497.94 245.13 497.49 245.74 497.23 246.88 497.13 249.12 497.28 250.76 497 251.67 496.71 256.91 493.51 257.28 493.2 257.49 492.73 257.82 491.71 258.14 491.4 258.61 491.29 259.32 491.68 259.8 492.04 262.23 494.49 262.54 494.89 262.76 495.39 263.16 497.02 263.64 497.62 264.51 498.11 266.46 498.68 267.39 499.09 268.04 499.47 270.34 501.99 270.82 502.22 271.45 502.29 272.49 501.94 273.15 501.64 274.58 500.8 275.07 500.69 275.6 500.77 276.11 501.2 276.33 501.65 276.3 502.06 276.18 502.33 275.85 502.58 267.07 507.93 266.29 508.52 265.78 509.14 265.52 509.57 265.32 510.07 265.21 510.64 265.24 511.22 265.49 512.33 265.66 512.83 265.91 513.28 268.96 516.01 270.3 516.94 271.98 517.22 276.5 517.53 278.28 518.05 282.96 517.38 290.13 515.61 291.32 515.47 292.2 515.58 296.93 517.26 297.32 517.46 297.38 517.64 297.18 518.22 297.18 519.45 296.84 521.46 296.62 522.16 296.42 522.58 296.14 522.96 295.78 523.29 294.98 523.69 294.76 523.93 294.79 524.33 295.32 525.85 295.55 526.32 299.55 531.24 300.6 532.2 301.82 532.99 302.16 533.14 302.46 533.19 302.88 533.2 303.5 532.93 303.98 532.55 304.47 532.06 304.88 531.8 305.29 531.83 306.61 532.49 307.11 532.68 307.71 532.67 308.31 532.43 309.1 531.66 310.3 530.12 310.67 529.51 311.47 528.52 313.13 527 313.44 526.65 313.72 526.24 314 525.27 314.26 523.96 314.63 519.98 314.51 519.09 312.14 515.33 311.95 514.84 311.83 514.3 311.77 513.05 312.08 512.29 312.62 511.44 315.26 508.97 316.51 507.23 319.99 501.2 Z" id="KEN-1195" data-name="Central"/>
<path d="M 324.51 626.61 321.98 629.12 321.44 629.79 320.27 630.78 318.4 632.77 318.03 633.05 317.62 633.18 316.73 633.17 311.63 632.23 310.38 632.2 309.35 631.93 308.82 631.85 308.33 632.05 307.94 632.45 307.77 634.05 307.52 634.8 307.04 635.46 302.47 638.54 302.26 638.81 302.16 639.14 302.41 639.66 303.88 641.59 303.82 641.97 303.59 642.39 302.84 643.17 302.06 644.15 301.13 644.58 298.37 644.19 296.74 642.67 295.69 641.94 295.06 641.7 293.99 641.5 291.27 641.66 290.72 641.59 290.19 641.49 287.05 640.19 286.04 639.51 285.14 638.72 284.21 637.41 283.44 636 282.4 634.9 279.07 632.71 281.74 629.82 283.42 627.36 284 626.8 284.68 626.41 285.44 626.22 286.67 625.63 287.28 625.13 290.47 621.13 291.48 620.34 292.29 619.94 292.83 620.02 296.87 621.33 297.41 621.38 298.01 621.25 298.93 620.89 299.7 620.69 301.42 620.45 301.96 620.18 302.41 619.86 305.12 616.93 305.65 616.85 306.15 616.93 306.87 617.36 307.11 617.47 308.08 617.77 308.42 617.98 308.59 618.3 308.54 618.73 307.59 620.37 307.46 620.91 307.43 621.45 307.6 621.93 307.97 622.27 309.66 623.31 311.34 624.08 312.09 624.3 313.61 624.51 315.03 624.54 315.87 624.46 316.56 624.3 317.84 623.83 320.74 623.26 322.04 624.03 323.04 624.84 324.51 626.61 Z" id="KEN-1196" data-name="Nairobi"/>
<path d="M 87.66 503.87 88.43 503.8 88.93 503.82 89.44 503.95 89.93 504.15 90.34 504.43 91.75 505.77 92.51 506.38 92.94 506.62 93.4 506.81 94.52 507.01 95.82 507.01 97.71 506.81 100.36 506.78 105.08 507.35 105.7 507.31 106.82 507.03 107.3 506.81 108.6 506.02 109.1 505.82 109.68 505.71 110.27 505.67 110.86 505.68 111.32 505.88 111.73 506.16 112.7 507.21 113.09 507.41 113.55 507.5 113.99 507.52 114.42 507.69 115.54 508.57 115.97 508.82 116.45 509 116.98 509.07 117.5 508.98 118.53 508.62 118.99 508.4 119.43 508.14 119.74 507.78 120.42 506.36 120.67 505.93 120.94 505.56 121.35 505.28 121.84 505.09 122.43 505.02 123.03 505.06 124.14 505.31 125.61 505.87 127.28 506.91 127.73 507.12 128.24 507.27 128.8 507.32 129.32 507.21 129.8 506.98 130.63 506.47 131 506.28 131.29 506.23 131.73 506.27 132.19 506.39 132.65 506.58 133.06 506.84 133.68 507.58 133.92 508.04 134.29 509.07 134.74 512.06 135.07 512.43 135.44 512.74 135.88 512.99 137.83 513.77 138.23 514.18 138.52 514.74 138.52 515.95 138.66 516.62 138.94 517.1 143.47 520.7 143.77 521.06 144.07 521.49 144.25 521.95 144.35 522.87 144.32 523.46 143.84 526.77 143.6 527.29 143.2 527.74 142.41 527.98 141.73 528.03 141.08 527.98 140.54 527.88 140.02 527.71 139.58 527.49 139.16 527.22 138.46 526.59 138.17 526.21 137.95 525.72 137.61 524.65 137.36 524.23 136.99 523.93 136.48 523.77 135.29 523.64 134.74 523.49 134.32 523.21 133.98 522.85 133.72 522.46 133.13 520.99 132.81 520.59 132.44 520.27 131.99 520.08 131.48 520.02 130.98 520.12 130.11 520.56 129.65 520.71 129.12 520.69 128.63 520.55 128.16 520.3 127.06 519.36 125.89 518.53 125.55 518.18 125.24 517.78 124.48 516.46 124.17 516.12 123.81 515.86 123.19 516.24 122.51 517.19 120.19 521.61 119.24 522.66 118.8 522.91 117.81 523.3 117.36 523.54 116.96 523.84 116.65 524.23 116.42 524.84 116.25 525.62 116.1 530.1 115.82 531.78 115.85 532.35 115.76 532.98 115.55 533.64 114.67 534.95 114.27 535.37 113.11 536.3 112.76 536.64 111.9 537.83 111.77 538.11 111.62 539.12 111.66 540.14 111.76 540.72 111.9 541.16 112.55 542.61 112.86 543.69 113.05 544.11 114.67 546.56 114.84 547.07 114.94 547.65 114.53 551 114.55 551.52 114.81 552.97 114.87 553.16 115 553.48 115.72 554.62 115.89 555 115.99 555.4 117.16 566.17 116.99 569.03 116.36 570.61 116.39 571.85 116.61 573.01 118.61 578.55 118.93 579.85 118.98 581.06 118.2 581.97 117.07 582.86 115.74 583.67 114.46 584.68 113.34 585.8 112.13 588.81 111.6 590.67 111.19 591.52 110.46 591.98 109.31 592.43 82.61 600.07 81.87 600.15 78.18 599.84 77.65 599.72 77.22 599.5 76.75 599.32 76.23 599.25 75.7 599.37 75.22 599.58 73.17 600.94 71.39 601.89 69.75 603.16 69.44 603.47 69.15 603.93 69.07 604.85 69.31 605.83 71.07 608.79 71.29 609.45 71.39 610.57 71.69 611.52 72.23 612.71 73.67 614.62 74.84 619.43 75.28 620.11 77.67 621.83 79.14 624.39 79.84 626.14 83.54 642.75 83.69 644.11 67.52 635.07 46.08 623.12 24.66 611.15 17.18 606.97 13.47 606.68 12.13 605.81 11.94 603.2 10.39 603.15 9.98 603.2 2.37 603.2 1.8 582.88 1.43 569.28 3.08 554.96 5.46 534.38 7.29 518.53 7.19 514.67 11.89 502.91 12.21 502.24 13.72 499.7 13.92 499.22 14.04 498.68 14.07 498.11 13.79 496.38 13.79 495.77 13.89 495.2 14.06 494.73 14.29 494.36 14.5 494.11 15.51 493.21 16.7 492.38 17.63 491.93 19.51 491.27 19.72 491.07 19.94 490.73 20.17 489.93 20.24 489.5 20.36 486.26 20.7 484.1 21.1 482.49 21.29 482.08 21.49 481.76 23.25 479.89 26.24 478.06 26.89 477.86 27.82 477.82 29.59 477.95 30.46 477.83 31.11 477.62 31.45 477.28 31.79 476.89 32.05 476.47 32.81 474.55 33.04 474.16 33.31 473.86 33.49 473.68 34.19 473.18 34.65 472.96 35.18 472.8 35.76 472.68 36.51 472.64 37.33 472.68 42.69 473.72 43.87 473.84 44.44 473.8 44.95 473.61 45.79 473.09 46.74 472.66 47.3 472.52 48.02 472.63 48.89 473.01 50.68 474.83 51.06 475.4 51.4 476.38 51.67 478.21 51.73 480.14 51.85 480.7 52.02 481.2 52.27 481.62 57.7 487.11 57.94 487.56 57.92 488.05 57.61 489.65 57.91 490.27 58.7 490.95 60.51 491.68 63.14 493.31 63.65 493.79 63.87 494.21 63.98 494.74 63.93 495.28 63.7 496.39 63.68 499.43 63.33 500.46 62.85 501.34 62.67 501.82 62.42 502.76 62.38 503.12 62.47 503.53 62.67 503.92 62.95 504.35 63.37 504.71 63.99 505.09 64.72 505.22 65.57 505.16 66.81 504.77 69.51 503.63 71.16 503.19 71.77 503.23 74.03 503.87 76.4 505.02 77.08 505.08 77.93 504.98 80.19 504.19 81 503.99 81.77 503.96 83.82 504.4 85.31 504.49 87.66 503.87 Z" id="KEN-1197" data-name="Nyanza"/>
<path d="M 276.34 60.81 276.58 60.87 295.82 60.71 301.78 62.35 308.87 65.93 312.95 66.86 313.92 67.59 315.49 70.23 316.22 70.71 318.22 70.57 318.96 70.8 319.62 71.69 320.02 72.66 320.53 74.88 320.85 75.41 321.37 75.53 321.97 75.52 322.55 75.67 327.96 79.14 337.69 85.39 347.42 91.65 358.81 98.96 366.89 104.16 376.05 110.05 386.35 116.67 395.85 122.78 405.81 129.18 408.88 131.16 410.74 133.01 413.28 137.07 414.81 138.89 416.09 139.6 419.08 140.52 421.38 142.51 422.59 142.72 425.74 141.94 428.87 141.69 439.46 142.89 450.13 144.09 455.72 143.61 460.81 141.39 460.93 140.82 460.85 139.93 461.05 139.09 462.01 138.71 462.54 138.93 464.43 140.5 465.23 141.45 465.43 142.24 465.82 142.83 467.21 143.18 468.51 143.32 469.06 143.25 470.47 142.7 470.66 143.03 470.76 143.56 471.29 143.91 477.12 144.33 477.1 143.65 477.23 142.25 477.19 141.59 479.89 145.15 481.45 146.73 483.27 147.73 493.13 150.39 500.57 152.4 503.16 152.36 507.35 151.55 509.02 151.78 510.52 152.34 512.07 152.32 517.8 151.11 518.76 151.34 520.05 151.93 529.04 156.06 532.93 156.88 536.73 156.78 540.6 154.56 540.59 156.11 542.01 174.64 543 178.09 543.68 183.73 543.78 196.92 543.57 198.49 543.3 199.44 542.96 199.78 540.77 201.34 540.29 201.91 539.15 203.61 538.5 204.19 537.67 204.69 532.61 206.32 531.66 206.73 530.92 207.34 529.42 208.98 529.05 209.28 528.63 209.54 527.67 209.91 524.99 210.55 524.11 211.01 523.57 211.34 523.02 211.83 522.3 212.74 522 213.46 521.89 214.16 521.91 215.59 521.64 217.59 521.19 218.06 520.54 218.45 508.11 246.21 506.06 249.27 500.74 250.96 499.57 251.58 499.24 252.14 499.23 252.78 499.03 253.16 499.03 253.61 499.31 254.2 499.82 255.74 501.2 258.59 502.65 264.77 502.98 270.27 504.16 276.37 504.54 277.39 504.7 277.94 505.26 281.55 505.44 282.05 505.57 284.51 505.21 287.73 505.2 289.25 505.35 290.24 506.02 290.99 506.3 291.39 506.54 291.83 507.07 293.36 507.36 293.77 507.69 294.1 508.08 294.39 508.77 295.06 509.25 295.96 510.63 300.16 513.67 306.04 517.8 312.33 518.52 313.02 521.73 315.26 523.19 316.61 523.5 316.98 524.6 318.65 525.42 320.53 525.69 320.96 526 321.36 527.02 322.43 527.6 323.21 528.51 325.1 529.54 329.6 529.75 330.06 529.99 330.47 530.29 330.86 531.71 332.23 532.11 332.52 532.55 332.78 535.03 333.64 536.44 334.33 536.84 334.61 538.18 335.94 538.96 336.55 545.05 340.03 545.78 340.66 546.44 341.38 547 342.18 547.25 342.62 547.45 343.11 547.94 344.02 550.18 346.57 550.56 346.88 551.03 347.1 552.06 347.44 552.47 347.71 553.15 348.34 553.47 348.7 553.84 349.01 555.68 349.91 556 350.13 556.09 350.32 556.02 350.55 540.39 356.88 539.32 357.48 538.76 358.12 538.91 359.23 555.44 403.42 555.59 404.08 555.58 404.91 554.7 405.55 553.55 406.12 541.72 410.69 541.42 410.99 541.13 411.37 537.89 416.96 536.67 418.45 535.55 419.51 533.29 421.26 531.97 422.74 529.2 426.8 528.06 428.96 527.79 429.79 527.48 431.27 527.26 431.72 526.85 432.14 493.64 444.67 492.97 444.99 492.51 445.27 492.2 445.6 491.97 445.96 490.68 448.7 489.32 450.81 489 451.16 488.62 451.47 488.19 451.69 487.67 451.84 481.51 452.65 480.98 452.79 480.55 452.96 478.79 453.92 478.51 454.12 478.09 454.47 477.64 455.17 477.56 455.75 477.75 456.21 478.09 456.56 479.98 457.9 480.21 458.12 480.35 458.46 485.79 481.63 486.07 485.43 485.93 486.14 485.66 486.81 484.92 488.25 484.77 488.91 485.65 509.63 483.21 508.75 482.01 508.06 481.5 507.24 480.97 507.44 479.69 507.68 478.13 507.61 476.72 506.9 474.36 507.48 468.47 505.5 465.76 505.54 460.73 509.23 457.74 510.62 455.48 509.63 454.57 510.03 453.64 510.05 452.67 509.87 452.72 511.16 498.11 589.48 509.96 615.33 510.68 617.54 511.04 671.5 510.89 672.06 510.51 672.92 508.26 675.21 507.22 676.54 506.98 677.89 507.05 679.23 509.59 694.74 509.42 697.51 508.97 699.65 490.77 736.06 490.37 736.48 489.3 737.34 488.87 737.56 488.36 737.75 486.72 738.17 486.25 738.37 485.43 738.92 485.11 739.26 483.16 742.1 482.8 742.4 481.03 743.43 480.55 743.64 480.01 743.81 478.76 743.95 477.55 743.92 475.95 743.67 474.43 743.24 473.95 743.4 474.09 743.83 515.23 804.38 515.21 804.6 515.04 804.76 514.01 804.72 513.47 804.6 513 804.4 512.18 803.88 511.73 803.75 511.27 803.75 510.98 803.84 510.64 804.05 509.96 804.68 508.96 805.77 508.54 805.99 508 806.03 507.5 805.92 506.54 805.52 506.05 805.37 505.48 805.35 504.42 805.59 503.92 805.77 503.37 805.84 502.78 805.85 501.01 805.62 500.39 805.63 499.8 805.75 499.31 805.93 498.89 806.18 497.39 807.38 496.95 807.64 496.47 807.83 494.74 807.97 494.25 808.1 493.81 808.32 493.41 808.59 492.94 808.81 491.44 809.31 491.01 809.34 490.71 809.3 490.47 809.12 490.47 808.83 490.56 808.35 490.81 807.6 490.62 807.15 490.23 806.89 485.43 806.48 482.49 805.31 481.94 805.17 481.37 805.07 480.74 805.06 477.83 805.52 477.27 805.56 476.75 805.47 476.32 805.25 474.7 804.12 473.74 803.75 472.64 803.48 472.14 803.3 471.77 803.04 471.52 802.79 471.07 802.25 470.78 801.97 469.99 801.41 469.55 801.17 468.11 800.61 466.44 799.58 465.53 799.16 465.01 798.98 463.93 798.73 463.39 798.68 462.85 798.71 462.28 799.08 461.9 799.43 461.52 799.68 461.18 799.71 459.76 799.61 458.49 799.69 457.44 799.93 456.87 800.21 456.59 800.41 456.02 801.17 455.83 801.24 455.54 801.07 454.9 800.43 453.68 798.92 452.25 797.67 451.84 797.41 447.51 795.7 447.08 795.43 446.34 794.77 446.04 794.4 445.83 793.97 445.33 792.41 443.3 788.3 438.97 781.69 437.2 780.1 436.78 779.84 435.37 779.24 434.86 779.1 431.5 777.67 428.43 775.34 428.11 775 426.32 772.65 426 772.31 425.61 772.01 425.16 771.79 424.67 771.63 424.09 771.78 423.43 772.21 422.55 773.3 420.05 774.88 407.97 780.62 405.59 781.38 403.01 780.61 401.88 775.45 400.88 773.01 371.29 738.88 370.88 738.17 370.6 737.1 370.64 736.43 370.85 735.9 371.5 735.17 372.53 734.19 372.93 733.9 373.37 733.65 373.86 733.45 375.57 733.06 376.08 732.89 376.5 732.64 376.86 732.28 377.35 731.38 377.52 730.9 378.45 725.73 378.6 725.2 378.82 724.77 379.11 724.4 379.47 724.06 379.87 723.78 380.32 723.52 381.17 723.16 382.94 722.73 383.31 722.58 383.16 722.14 382.51 721.37 380.21 719.91 378.73 719.27 377.38 718.98 376.63 719.03 375.43 719.24 374.19 719.33 373.58 719.27 370.63 718.22 364.4 713.29 363.75 712.95 361.71 712.4 361.23 712.19 358.98 710.69 357.12 709.16 354.4 707.39 348.84 704.56 346.04 703.59 341.18 702.79 336.83 698.45 334.89 696.99 333.3 696.18 331.17 695.51 330.17 694.69 329.25 693.52 328.2 691.32 327.61 689.63 327.54 689.18 326.39 686.54 326.24 685.35 326.22 684.26 327.17 680.78 325.75 678.63 311.06 661.1 308.67 656.9 308.03 655.21 307.72 654.1 307.79 653.61 307.85 653.37 308.76 651.22 309.37 648.92 309.03 648.3 308.11 647.94 305.45 647.4 304.23 647.36 303.28 647.46 300.03 648.99 299.5 649.13 298.91 649.15 298.33 648.99 297.86 648.29 297.63 647.67 298.37 644.19 301.13 644.58 302.06 644.15 302.84 643.17 303.59 642.39 303.82 641.97 303.88 641.59 302.41 639.66 302.16 639.14 302.26 638.81 302.47 638.54 307.04 635.46 307.52 634.8 307.77 634.05 307.94 632.45 308.33 632.05 308.82 631.85 309.35 631.93 310.38 632.2 311.63 632.23 316.73 633.17 317.62 633.18 318.03 633.05 318.4 632.77 320.27 630.78 321.44 629.79 321.98 629.12 324.51 626.61 325.87 625.2 327.92 620.97 329.1 617.67 329.1 616.95 328.76 615.48 328.7 614.19 328.93 613.42 329.35 612.78 330.03 612.14 331.91 610.91 332.37 610.7 332.93 610.64 333.5 610.67 334.04 610.77 335.22 610.83 336.19 610.64 336.86 610.37 337.75 609.91 338.23 609.72 339.29 609.51 339.8 609.54 340.3 609.67 343.45 611.87 343.66 611.89 343.89 611.73 345.01 610.65 347.75 606.81 347.69 604.84 348.14 602.67 348.52 601.68 348.68 600.92 348.68 600.24 348.51 599.75 348.21 599.36 347.86 599.1 347.45 599.12 347.02 599.3 345.35 600.33 344.87 600.55 344.36 600.73 343.79 600.82 343.24 600.75 342.77 600.55 342.43 600.21 342.14 599.81 341.23 598 340.16 594.22 339.93 593.76 339.65 593.35 339.34 593 335.62 589.92 335.4 589.21 335.4 588.15 336.38 580.95 336.64 580.07 336.89 579.52 337.14 579.33 337.99 578.94 338.47 578.79 338.92 578.73 339.28 578.73 339.74 578.82 340.17 579 340.95 579.56 342.31 580.93 344.28 582.37 344.73 582.59 345.33 582.68 346.11 582.59 359.32 577.65 360.37 577.01 360.54 576.56 360.37 576.19 360.07 575.81 359.85 575.36 359.35 573.75 359.13 572.58 358.95 565.42 359.02 564.62 358.99 562.03 358.17 560.59 354.98 556.79 354.66 555.9 354.55 555.03 354.58 547.37 354.23 545.78 343.69 520.08 342.98 519.03 322.33 503.53 319.99 501.2 322.95 499.7 332.51 496.33 336.05 493.99 336.8 493.37 347.14 482.63 347.38 482.11 347.5 481.52 347.86 477.17 347.98 476.63 348.26 475.98 348.7 475.29 350.06 473.57 350.4 472.97 350.71 471.88 350.91 469.43 350.86 468.81 350.74 468.26 349.53 465.29 349.28 464.83 348.14 463.25 347.81 462.88 347.3 462.03 346.54 459.99 346.32 458.88 346.43 453.86 346.29 452.5 346.18 451.95 345.94 451.34 345.47 450.7 344.42 450.4 299.3 444.61 298.14 444.27 297.7 443.97 297.55 443.46 297.56 442.89 297.7 442.36 297.95 441.94 299.49 440.74 300.11 440 300.37 439.58 301.33 438.48 301.58 438.06 301.79 436.94 301.99 436.44 302.29 436.03 302.97 435.34 303.26 434.96 303.39 434.33 303.44 433.53 303.22 431.4 303.26 429.91 303.66 428.09 304.06 427.58 304.57 427.31 305.14 427.3 306.27 427.49 306.87 427.54 307.49 427.52 314.96 425.97 317.21 425.28 317.84 424.97 318.78 424.39 319.28 424.15 319.84 424.02 320.97 423.95 321.82 423.99 322.33 424.09 322.81 424.28 324.03 425.07 324.47 425.29 325.5 425.62 327.24 425.84 327.58 426.13 328.08 426.72 328.65 427.23 329.02 427.5 329.44 427.72 329.9 427.86 331.07 428 332.26 428.04 332.79 427.91 333.22 427.63 334.3 426.65 334.72 426.39 335.2 426.23 335.71 426.21 336.21 426.3 336.66 426.51 337.06 426.79 338.41 428.15 340.07 429.24 340.42 429.58 340.75 429.94 343.83 434.43 344.71 436.29 345.6 437.45 346.09 438.33 346.31 438.81 346.59 440.64 346.77 441.16 347.1 441.51 347.78 442.15 348.39 442.95 349.05 443.67 349.44 443.96 350.38 444.37 351.42 444.63 351.98 444.66 355.96 443.85 357.51 443.28 358.03 443.15 358.61 443.09 359.12 443.13 359.57 443.29 360.41 443.81 361.35 444.55 361.66 444.75 362.54 445.09 363.18 445.15 363.87 445.13 365.69 444.58 366.35 444.54 366.8 444.73 367.96 445.53 368.4 445.47 368.72 445.1 369.23 444.25 369.71 443.82 370.24 443.51 372.22 442.7 373.62 441.66 375.66 439.72 376.29 439.29 377.61 438.64 378.68 437.93 379.32 437.3 379.97 436.43 380.49 436.07 381.05 435.97 381.53 436.16 381.98 436.39 382.65 436.44 383.47 436.27 385.84 434.92 386.62 434.66 387.23 434.59 388.47 434.66 389.62 434.83 390.22 434.85 390.82 434.79 393.19 434.04 394.12 433.63 394.62 433.23 395.04 432.68 395.81 431.19 396.26 430.72 396.86 430.27 398.74 429.17 399.47 429.04 400.1 429.07 400.97 429.54 401.36 429.8 401.91 429.91 402.58 429.85 406.53 427.61 408.06 426.35 409.78 424.6 410.47 423.72 410.91 423.37 411.27 423.14 412.15 422.97 412.69 422.95 413.21 423.05 414.66 423.62 416.29 424.08 416.75 424.13 416.89 423.81 414.75 389.63 414.26 388.07 413.21 386.52 407.12 379.47 405.96 377.74 405.48 376.04 404.47 362.55 403.96 361.02 402.72 359.56 397.3 354.52 396.49 353.6 396.31 353.42 396.12 353.35 395.84 353.29 395.46 353.29 395.07 353.34 394.87 353.38 394.37 353.6 393.6 354.08 392.2 355.39 391.8 355.66 391.37 355.89 390.82 356.02 390.25 356.05 388.55 355.79 387.96 355.79 387.38 355.86 386.87 355.99 386.42 356.19 384.89 357.21 383.1 358.13 382.57 358.27 381.39 358.36 379.67 358.11 379.13 358.15 378.63 358.3 377.8 358.79 377.43 359.08 376.57 359.59 376.1 359.77 375.05 360.06 372.15 360.45 371.11 360.76 369.73 361.38 369.2 361.52 368.64 361.62 368.04 361.6 367.47 361.51 366.97 361.31 366.55 361.04 366.23 360.7 365.94 360.32 359.18 344.32 358.06 342.74 357.4 342.05 353.21 338.75 350.66 335.9 350.15 335.05 349.81 334.06 348.85 327.2 348.67 326.61 348.43 326.19 348.12 325.89 347.75 325.61 343.71 323.51 342.53 322.64 341.86 321.94 341.6 321.47 339.94 317.1 337.58 312.77 336.39 311.24 335.71 310.55 334.2 309.34 332.9 308.52 331.41 307.37 331.1 306.99 330.83 306.58 330.62 306.13 330.26 305.17 330.04 304.73 328.9 303.43 328.37 303.07 326.53 302.22 325.43 301.93 315.56 301.05 310.93 301.13 308.05 301.44 307.51 301.43 307.11 301.29 306.97 300.89 307.29 298.16 306.49 294.89 302.13 283.4 301.56 282.24 300.72 280.95 294.92 275.86 294.11 274.54 286.02 251.64 285.44 250.41 284.72 249.68 283.49 249.38 282.26 249.38 281.11 249.77 282.28 252.73 281.7 254.94 280.55 256.85 275.06 262.66 274.25 263.11 273.66 263.23 271.2 262.86 270.85 262.74 269.64 262.81 268.69 263.04 267.94 263.46 267.31 264.1 264.69 261.3 264.09 257.13 264.09 252.53 263.29 248.42 260.94 244.46 259.21 242.42 255.85 240.53 255.17 238.16 255.2 231.26 255.11 230.58 254.64 229.48 253.28 227.23 252.56 224.49 251.55 222.28 249.6 219 247.3 217 241.79 213.4 237.67 209.81 237.33 209.39 236.68 206.4 236.28 205.61 235.52 205.46 233.87 206.93 232.87 207.35 231.83 207.06 230.54 205.72 229.77 205.3 225.76 205.43 224.24 204.89 223.63 202.86 226.37 192.03 226.36 190.87 226.04 189.7 225.18 187.61 225 186.47 225.22 185.48 226.15 183.45 226.36 182.38 225.84 181.73 224.6 181.7 222.21 182.07 218.8 180.64 218.05 180.2 217.53 179.76 216.89 179.42 216.11 176.93 216.09 59.56 230.67 59.44 234.1 58.97 235.15 58.97 236.13 59.23 237.95 60.11 239.24 60.28 257.79 59.91 273.41 59.59 274.27 59.78 275.75 60.67 276.34 60.81 Z" id="KEN-889" data-name="Eastern"/>
<path d="M 203.67 42.03 203.86 43.75 205.18 46.1 205.29 48.03 204.99 50.03 204.96 51.73 205.63 53.14 207.41 54.25 211.28 57.64 213.41 59.02 215.7 59.56 216.09 59.56 216.11 176.93 216.89 179.42 217.53 179.76 218.05 180.2 218.8 180.64 222.21 182.07 224.6 181.7 225.84 181.73 226.36 182.38 226.15 183.45 225.22 185.48 225 186.47 225.18 187.61 226.04 189.7 226.36 190.87 226.37 192.03 223.63 202.86 224.24 204.89 225.76 205.43 229.77 205.3 230.54 205.72 231.83 207.06 232.87 207.35 233.87 206.93 235.52 205.46 236.28 205.61 236.68 206.4 237.33 209.39 237.67 209.81 241.79 213.4 247.3 217 249.6 219 251.55 222.28 252.56 224.49 253.28 227.23 254.64 229.48 255.11 230.58 255.2 231.26 255.17 238.16 255.85 240.53 259.21 242.42 260.94 244.46 263.29 248.42 264.09 252.53 264.09 257.13 264.69 261.3 267.31 264.1 267.94 263.46 268.69 263.04 269.64 262.81 270.85 262.74 271.2 262.86 273.66 263.23 274.25 263.11 275.06 262.66 280.55 256.85 281.7 254.94 282.28 252.73 281.11 249.77 282.26 249.38 283.49 249.38 284.72 249.68 285.44 250.41 286.02 251.64 294.11 274.54 294.92 275.86 300.72 280.95 301.56 282.24 302.13 283.4 306.49 294.89 307.29 298.16 306.97 300.89 307.11 301.29 307.51 301.43 308.05 301.44 310.93 301.13 315.56 301.05 325.43 301.93 326.53 302.22 328.37 303.07 328.9 303.43 330.04 304.73 330.26 305.17 330.62 306.13 330.83 306.58 331.1 306.99 331.41 307.37 332.9 308.52 334.2 309.34 335.71 310.55 336.39 311.24 337.58 312.77 339.94 317.1 341.6 321.47 341.86 321.94 342.53 322.64 343.71 323.51 347.75 325.61 348.12 325.89 348.43 326.19 348.67 326.61 348.85 327.2 349.81 334.06 350.15 335.05 350.66 335.9 353.21 338.75 357.4 342.05 358.06 342.74 359.18 344.32 365.94 360.32 366.23 360.7 366.55 361.04 366.97 361.31 367.47 361.51 368.04 361.6 368.64 361.62 369.2 361.52 369.73 361.38 371.11 360.76 372.15 360.45 375.05 360.06 376.1 359.77 376.57 359.59 377.43 359.08 377.8 358.79 378.63 358.3 379.13 358.15 379.67 358.11 381.39 358.36 382.57 358.27 383.1 358.13 384.89 357.21 386.42 356.19 386.87 355.99 387.38 355.86 387.96 355.79 388.55 355.79 390.25 356.05 390.82 356.02 391.37 355.89 391.8 355.66 392.2 355.39 393.6 354.08 394.37 353.6 394.87 353.38 395.07 353.34 395.46 353.29 395.84 353.29 396.12 353.35 396.31 353.42 396.49 353.6 397.3 354.52 402.72 359.56 403.96 361.02 404.47 362.55 405.48 376.04 405.96 377.74 407.12 379.47 413.21 386.52 414.26 388.07 414.75 389.63 416.89 423.81 416.75 424.13 416.29 424.08 414.66 423.62 413.21 423.05 412.69 422.95 412.15 422.97 411.27 423.14 410.91 423.37 410.47 423.72 409.78 424.6 408.06 426.35 406.53 427.61 402.58 429.85 401.91 429.91 401.36 429.8 400.97 429.54 400.1 429.07 399.47 429.04 398.74 429.17 396.86 430.27 396.26 430.72 395.81 431.19 395.04 432.68 394.62 433.23 394.12 433.63 393.19 434.04 390.82 434.79 390.22 434.85 389.62 434.83 388.47 434.66 387.23 434.59 386.62 434.66 385.84 434.92 383.47 436.27 382.65 436.44 381.98 436.39 381.53 436.16 381.05 435.97 380.49 436.07 379.97 436.43 379.32 437.3 378.68 437.93 377.61 438.64 376.29 439.29 375.66 439.72 373.62 441.66 372.22 442.7 370.24 443.51 369.71 443.82 369.23 444.25 368.72 445.1 368.4 445.47 367.96 445.53 366.8 444.73 366.35 444.54 365.69 444.58 363.87 445.13 363.18 445.15 362.54 445.09 361.66 444.75 361.35 444.55 360.41 443.81 359.57 443.29 359.12 443.13 358.61 443.09 358.03 443.15 357.51 443.28 355.96 443.85 351.98 444.66 351.42 444.63 350.38 444.37 349.44 443.96 349.05 443.67 348.39 442.95 347.78 442.15 347.1 441.51 346.77 441.16 346.59 440.64 346.31 438.81 346.09 438.33 345.6 437.45 344.71 436.29 343.83 434.43 340.75 429.94 340.42 429.58 340.07 429.24 338.41 428.15 337.06 426.79 336.66 426.51 336.21 426.3 335.71 426.21 335.2 426.23 334.72 426.39 334.3 426.65 333.22 427.63 332.79 427.91 332.26 428.04 331.07 428 329.9 427.86 329.44 427.72 329.02 427.5 328.65 427.23 328.08 426.72 327.58 426.13 327.24 425.84 325.5 425.62 324.47 425.29 324.03 425.07 322.81 424.28 322.33 424.09 321.82 423.99 320.97 423.95 319.84 424.02 319.28 424.15 318.78 424.39 317.84 424.97 317.21 425.28 314.96 425.97 307.49 427.52 306.87 427.54 306.27 427.49 305.14 427.3 304.57 427.31 304.06 427.58 303.66 428.09 303.26 429.91 303.22 431.4 303.44 433.53 303.39 434.33 303.26 434.96 302.97 435.34 302.29 436.03 301.99 436.44 301.79 436.94 301.58 438.06 301.33 438.48 300.37 439.58 300.11 440 299.49 440.74 297.95 441.94 297.7 442.36 297.56 442.89 297.55 443.46 297.7 443.97 298.14 444.27 299.3 444.61 344.42 450.4 345.47 450.7 345.94 451.34 346.18 451.95 346.29 452.5 346.43 453.86 346.32 458.88 346.54 459.99 347.3 462.03 347.81 462.88 348.14 463.25 349.28 464.83 349.53 465.29 350.74 468.26 350.86 468.81 350.91 469.43 350.71 471.88 350.4 472.97 350.06 473.57 348.7 475.29 348.26 475.98 347.98 476.63 347.86 477.17 347.5 481.52 347.38 482.11 347.14 482.63 336.8 493.37 336.05 493.99 332.51 496.33 322.95 499.7 319.99 501.2 316.51 507.23 315.26 508.97 312.62 511.44 312.08 512.29 311.77 513.05 311.83 514.3 311.95 514.84 312.14 515.33 314.51 519.09 314.63 519.98 314.26 523.96 314 525.27 313.72 526.24 313.44 526.65 313.13 527 311.47 528.52 310.67 529.51 310.3 530.12 309.1 531.66 308.31 532.43 307.71 532.67 307.11 532.68 306.61 532.49 305.29 531.83 304.88 531.8 304.47 532.06 303.98 532.55 303.5 532.93 302.88 533.2 302.46 533.19 302.16 533.14 301.82 532.99 300.6 532.2 299.55 531.24 295.55 526.32 295.32 525.85 294.79 524.33 294.76 523.93 294.98 523.69 295.78 523.29 296.14 522.96 296.42 522.58 296.62 522.16 296.84 521.46 297.18 519.45 297.18 518.22 297.38 517.64 297.32 517.46 296.93 517.26 292.2 515.58 291.32 515.47 290.13 515.61 282.96 517.38 278.28 518.05 276.5 517.53 271.98 517.22 270.3 516.94 268.96 516.01 265.91 513.28 265.66 512.83 265.49 512.33 265.24 511.22 265.21 510.64 265.32 510.07 265.52 509.57 265.78 509.14 266.29 508.52 267.07 507.93 275.85 502.58 276.18 502.33 276.3 502.06 276.33 501.65 276.11 501.2 275.6 500.77 275.07 500.69 274.58 500.8 273.15 501.64 272.49 501.94 271.45 502.29 270.82 502.22 270.34 501.99 268.04 499.47 267.39 499.09 266.46 498.68 264.51 498.11 263.64 497.62 263.16 497.02 262.76 495.39 262.54 494.89 262.23 494.49 259.8 492.04 259.32 491.68 258.61 491.29 258.14 491.4 257.82 491.71 257.49 492.73 257.28 493.2 256.91 493.51 251.67 496.71 250.76 497 249.12 497.28 246.88 497.13 245.74 497.23 245.13 497.49 244.9 497.94 244.62 498.93 244.36 499.36 244.02 499.62 239.95 501.26 239 501.84 237.67 503.07 237.18 504.02 235.85 508.07 235.62 508.54 234.17 510.94 233.72 512.87 233.43 513.56 233.08 514.8 232.79 517.2 232.99 522.27 232.81 523.4 231.75 526.27 231.6 526.89 231.54 527.54 231.63 528.8 231.83 529.98 232.17 531.03 237.11 541.87 237.39 542.09 237.65 542.26 238.07 542.43 238.57 542.57 239.16 542.63 240.33 542.48 242.53 541.92 243.09 541.86 243.62 541.87 244 542.09 244.28 542.47 244.48 542.95 244.73 543.33 245.06 543.6 245.52 543.6 248.51 543.03 248.9 543.03 249.24 543.2 249.5 543.55 249.7 544.02 250.15 545.59 250.2 546.18 250 547.54 249.77 548.48 249.63 549.95 250.4 554.77 250.48 557.37 250.74 558.48 251.14 559.48 251.5 561.11 251.65 561.52 251.87 561.65 252.13 561.66 254.2 561.26 255.45 561.13 256.67 561.12 257.15 561.26 257.54 561.54 257.82 561.98 258.27 562.92 258.62 563.25 259.05 563.49 260.02 563.9 260.98 564.2 261.41 564.27 261.74 564.37 262.13 564.54 262.33 564.99 262.98 567.99 263.13 569.9 264.42 575.51 264.43 576.3 264.31 577.26 263.46 579.87 263.35 580.72 264.09 584.83 267.56 594.33 267.67 594.79 267.69 595.32 267.49 597.06 267.5 597.79 267.61 598.3 268.32 600.4 268.57 600.86 269.95 602.68 270.02 602.89 270.04 603.06 270.01 603.38 269.3 605.88 269.14 607.67 269.2 608.29 269.84 611.24 269.89 612.02 269.76 613.1 269.5 613.7 269.06 614.07 268.58 614.23 268.01 614.33 266.2 614.32 265.69 614.43 265.38 614.84 261.58 626.03 261.75 627.36 262.26 628.08 273.94 629.83 274.61 630.02 275.03 630.24 276.55 631.36 278.23 632.34 279.07 632.71 282.4 634.9 283.44 636 284.21 637.41 285.14 638.72 286.04 639.51 287.05 640.19 290.19 641.49 290.72 641.59 291.27 641.66 293.99 641.5 295.06 641.7 295.69 641.94 296.74 642.67 298.37 644.19 297.63 647.67 297.86 648.29 298.33 648.99 298.91 649.15 299.5 649.13 300.03 648.99 303.28 647.46 304.23 647.36 305.45 647.4 308.11 647.94 309.03 648.3 309.37 648.92 308.76 651.22 307.85 653.37 307.79 653.61 307.72 654.1 308.03 655.21 308.67 656.9 311.06 661.1 325.75 678.63 327.17 680.78 326.22 684.26 326.24 685.35 326.39 686.54 327.54 689.18 327.61 689.63 328.2 691.32 329.25 693.52 330.17 694.69 331.17 695.51 333.3 696.18 334.89 696.99 336.83 698.45 341.18 702.79 346.04 703.59 348.84 704.56 354.4 707.39 357.12 709.16 358.98 710.69 361.23 712.19 361.71 712.4 363.75 712.95 364.4 713.29 370.63 718.22 373.58 719.27 374.19 719.33 375.43 719.24 376.63 719.03 377.38 718.98 378.73 719.27 380.21 719.91 382.51 721.37 383.16 722.14 383.31 722.58 382.94 722.73 381.17 723.16 380.32 723.52 379.87 723.78 379.47 724.06 379.11 724.4 378.82 724.77 378.6 725.2 378.45 725.73 377.52 730.9 377.35 731.38 376.86 732.28 376.5 732.64 376.08 732.89 375.57 733.06 373.86 733.45 373.37 733.65 372.93 733.9 372.53 734.19 371.5 735.17 370.85 735.9 370.64 736.43 370.6 737.1 370.88 738.17 371.29 738.88 400.88 773.01 401.88 775.45 403.01 780.61 396.28 803.58 394.7 817.86 394.33 819.04 393.68 819.94 392.08 820.06 391.12 820.04 390.27 819.95 381.08 821.2 379.26 821.76 379.05 820.44 377.28 809.62 375.76 807.16 367.51 802.56 353.73 794.87 346.09 790.6 324.65 778.63 303.22 766.67 281.79 754.7 260.37 742.75 238.93 730.79 217.51 718.82 196.08 706.86 174.66 694.89 153.24 682.92 136.34 673.49 131.81 670.97 110.38 659 88.95 647.04 83.69 644.11 83.54 642.75 79.84 626.14 79.14 624.39 77.67 621.83 75.28 620.11 74.84 619.43 73.67 614.62 72.23 612.71 71.69 611.52 71.39 610.57 71.29 609.45 71.07 608.79 69.31 605.83 69.07 604.85 69.15 603.93 69.44 603.47 69.75 603.16 71.39 601.89 73.17 600.94 75.22 599.58 75.7 599.37 76.23 599.25 76.75 599.32 77.22 599.5 77.65 599.72 78.18 599.84 81.87 600.15 82.61 600.07 109.31 592.43 110.46 591.98 111.19 591.52 111.6 590.67 112.13 588.81 113.34 585.8 114.46 584.68 115.74 583.67 117.07 582.86 118.2 581.97 118.98 581.06 118.93 579.85 118.61 578.55 116.61 573.01 116.39 571.85 116.36 570.61 116.99 569.03 117.16 566.17 115.99 555.4 115.89 555 115.72 554.62 115 553.48 114.87 553.16 114.81 552.97 114.55 551.52 114.53 551 114.94 547.65 114.84 547.07 114.67 546.56 113.05 544.11 112.86 543.69 112.55 542.61 111.9 541.16 111.76 540.72 111.66 540.14 111.62 539.12 111.77 538.11 111.9 537.83 112.76 536.64 113.11 536.3 114.27 535.37 114.67 534.95 115.55 533.64 115.76 532.98 115.85 532.35 115.82 531.78 116.1 530.1 116.25 525.62 116.42 524.84 116.65 524.23 116.96 523.84 117.36 523.54 117.81 523.3 118.8 522.91 119.24 522.66 120.19 521.61 122.51 517.19 123.19 516.24 123.81 515.86 124.17 516.12 124.48 516.46 125.24 517.78 125.55 518.18 125.89 518.53 127.06 519.36 128.16 520.3 128.63 520.55 129.12 520.69 129.65 520.71 130.11 520.56 130.98 520.12 131.48 520.02 131.99 520.08 132.44 520.27 132.81 520.59 133.13 520.99 133.72 522.46 133.98 522.85 134.32 523.21 134.74 523.49 135.29 523.64 136.48 523.77 136.99 523.93 137.36 524.23 137.61 524.65 137.95 525.72 138.17 526.21 138.46 526.59 139.16 527.22 139.58 527.49 140.02 527.71 140.54 527.88 141.08 527.98 141.73 528.03 142.41 527.98 143.2 527.74 143.6 527.29 143.84 526.77 144.32 523.46 144.35 522.87 144.25 521.95 144.07 521.49 143.77 521.06 143.47 520.7 138.94 517.1 138.66 516.62 138.52 515.95 138.52 514.74 138.23 514.18 137.83 513.77 135.88 512.99 135.44 512.74 135.07 512.43 134.74 512.06 134.29 509.07 133.92 508.04 133.68 507.58 133.06 506.84 132.65 506.58 132.19 506.39 131.73 506.27 131.29 506.23 131 506.28 130.63 506.47 129.8 506.98 129.32 507.21 128.8 507.32 128.24 507.27 127.73 507.12 127.28 506.91 125.61 505.87 124.14 505.31 123.03 505.06 122.43 505.02 121.84 505.09 121.35 505.28 120.94 505.56 120.67 505.93 120.42 506.36 119.74 507.78 119.43 508.14 118.99 508.4 118.53 508.62 117.5 508.98 116.98 509.07 116.45 509 115.97 508.82 115.54 508.57 114.42 507.69 113.99 507.52 113.55 507.5 113.09 507.41 112.7 507.21 111.73 506.16 111.32 505.88 110.86 505.68 110.27 505.67 109.68 505.71 109.1 505.82 108.6 506.02 107.3 506.81 106.82 507.03 105.7 507.31 105.08 507.35 100.36 506.78 97.71 506.81 95.82 507.01 94.52 507.01 93.4 506.81 92.94 506.62 92.51 506.38 91.75 505.77 90.34 504.43 89.93 504.15 89.44 503.95 88.93 503.82 88.43 503.8 87.66 503.87 89.31 501.39 93.53 497.13 95.42 494.82 96.16 492.6 96.86 491.05 97.34 490.27 97.77 489.77 98.87 488.74 101.77 486.49 102.79 485.28 103.16 484.28 104.03 480.83 104.87 478.88 105.13 477.94 105.16 477.17 104.96 476.72 104.7 476.26 104.28 475.31 103.81 473.71 103.72 472.47 104.59 465.98 104.59 465.36 104.48 464.8 103.47 461.69 103.13 459.93 101.8 457.09 101.53 456.69 101.19 456.35 100.81 456.07 96.68 454.09 95.54 453.37 95.39 452.64 95.6 448.36 95.9 447.02 96.28 446.16 97.6 445.41 98.11 445.23 98.66 445.1 99.26 445.02 99.83 445.08 100.37 445.22 101.75 445.92 102.25 446.07 102.82 446.13 103.41 446.07 104.08 445.69 104.82 445.01 107.33 441.16 107.74 440.76 108.15 440.51 108.54 440.37 108.77 440.34 109.07 440.36 110.37 440.68 110.94 440.73 111.48 440.72 111.8 440.66 112.19 440.54 113.93 439.6 115.01 439.34 115.63 439.32 116.19 439.39 116.71 439.54 117.61 439.99 118.11 440.16 119.27 440.26 119.78 440.21 120.12 440.1 120.45 439.96 122.28 438.73 122.97 438.09 123.34 437.44 123.88 435.65 124.23 435.1 124.63 434.7 126.94 433.47 127.37 433.16 128.15 432.45 128.52 431.86 128.76 431.17 128.81 430.47 128.73 429.56 128.53 428.95 128.24 428.49 127.62 427.85 127.46 427.48 127.39 427.14 127.42 424.63 127.26 423.06 127.02 422.53 125.24 420.13 124.73 418.73 124.57 418.42 124.36 418.15 124.11 417.88 123.82 417.7 123.14 417.35 121.21 416.65 120.14 416.38 119.64 416.19 118.71 415.72 117.89 415.2 117.4 415.02 116.85 414.92 111.12 414.73 108 415.1 107.46 415.25 106.96 415.46 106.54 415.72 106.18 416.04 105.84 416.39 104.09 418.74 103.74 419.05 103.27 419.25 102.73 419.27 102.22 419.14 101.71 418.92 101.19 418.77 100.62 418.74 100.05 418.81 97.28 419.45 95.17 420.16 91.5 420.6 90.93 420.51 90.38 420.37 89.92 420.18 89.07 419.68 88.63 419.2 88.25 418.55 87.81 417.33 87.75 416.37 87.8 415.41 87.98 414.21 87.86 413.54 87.58 413.06 87.15 412.83 86.62 412.7 86.02 412.62 85.46 412.49 84.98 412.31 84.5 411.97 74.26 401.23 72.42 398.44 72.28 396.58 69.4 394.04 68.52 393.02 69.03 392.15 69.19 389.9 69.87 388.08 74.71 386.97 78.12 383.7 80.19 382.43 88.4 381.59 91.58 380.15 92.84 376.1 91.8 372.13 90.06 368.07 89.87 366.19 89.69 364.52 95.62 359.67 97.73 351.61 100.03 348.18 101.03 347.68 103.12 347.25 104.11 346.8 105.13 345.84 105.86 344.71 109.02 338 109.62 335.83 109.73 316.43 110.16 315.22 112.03 312.86 112.4 311.78 111.89 310.67 109.55 308.49 108.67 307.45 107.96 305.7 107.55 303.7 107.42 301.64 107.58 299.7 108.52 295.24 108.51 293.31 104 282.45 102.2 278.11 98.34 268.8 97.69 264.88 98.56 262.41 100.37 261.02 102.38 259.87 103.86 258.11 104.12 255.84 103.21 254.14 100.48 251.34 99.9 249.44 99.34 244.47 98.34 243.11 97.43 243.25 96.77 244.08 95.96 244.82 94.59 244.71 93.65 243.8 89.44 235.05 87.93 226.38 85.89 220.08 85.49 219.2 84.81 218.36 84.28 218.23 81.46 216.87 81.27 216.6 81.08 216.42 80.91 216.08 80.69 215.73 80.31 215.55 80.07 215.71 79.62 216.49 79.37 216.66 78.96 216.87 77.85 217.78 77.23 217.99 75.87 217.63 74.96 216.69 73.46 214.31 70.3 210.78 69.3 209.05 66.4 193.95 66.39 193.94 65.22 191.84 63.13 190.46 58.42 189.11 56.34 187.78 55.25 185.5 54.26 173.24 52.97 169.26 52.24 168.19 51.3 167.17 50.52 166.1 50.26 164.9 50.56 163.77 51.56 161.33 51.72 160.38 51.3 159.29 50.08 157.15 49.99 156.07 50.55 155.19 51.46 154.8 52.48 154.53 53.41 154.06 55.31 151.14 56.24 147.14 56.49 139.12 55.82 137.02 54.36 136.07 52.49 135.5 50.61 134.52 47.37 131.06 45.58 130.34 42.86 131.13 41.82 132.11 41.39 133.06 40.92 133.48 39.77 132.82 38.26 128.8 36.05 125.94 35.98 125.45 34.93 125.54 32.95 126.1 30.99 126.22 29.27 126.67 28.42 126.73 27.15 126.25 27.81 125.47 29.8 124.2 28.56 122.68 26.99 122.1 26.8 121.55 31.57 119.08 32.65 117.74 32.39 116.37 30.19 115.22 28.25 115.21 24.28 116.62 22.72 116.93 20.4 116.09 20.54 114.36 21.81 112.06 22.87 109.5 22.62 107.89 21.47 106.74 20 105.77 18.82 104.66 18.03 103.07 18.07 102.06 18.51 101.11 18.9 99.72 19.19 97.4 19.16 96.22 18.85 95.06 18.01 93.94 16.9 92.92 16.02 91.83 15.9 90.47 16.03 87.4 14.78 85.08 12.53 83.32 9.65 81.92 19.73 71.92 29.81 61.94 39.89 51.94 49.98 41.95 57.82 37.91 64.75 34.33 71.64 30.89 78.44 27.49 88.15 23.96 96.25 20.91 103.85 18.06 112.02 14.98 121.16 11.54 129.34 8.47 136.28 5.86 138.05 9.17 145.05 5.3 152.84 1 155.04 3.65 151.29 11.38 161.23 11.38 168.73 13.58 163.87 25.95 167.91 33.27 172.7 41.96 172.85 42.01 181.66 45.05 182.21 42.02 182.22 41.97 182.77 37.81 185.56 35.86 189.45 36.14 189.73 41.97 197.25 42 203.67 42.03 Z" id="KEN-890" data-name="Rift Valley"/>
<path d="M 87.66 503.87 85.31 504.49 83.82 504.4 81.77 503.96 81 503.99 80.19 504.19 77.93 504.98 77.08 505.08 76.4 505.02 74.03 503.87 71.77 503.23 71.16 503.19 69.51 503.63 66.81 504.77 65.57 505.16 64.72 505.22 63.99 505.09 63.37 504.71 62.95 504.35 62.67 503.92 62.47 503.53 62.38 503.12 62.42 502.76 62.67 501.82 62.85 501.34 63.33 500.46 63.68 499.43 63.7 496.39 63.93 495.28 63.98 494.74 63.87 494.21 63.65 493.79 63.14 493.31 60.51 491.68 58.7 490.95 57.91 490.27 57.61 489.65 57.92 488.05 57.94 487.56 57.7 487.11 52.27 481.62 52.02 481.2 51.85 480.7 51.73 480.14 51.67 478.21 51.4 476.38 51.06 475.4 50.68 474.83 48.89 473.01 48.02 472.63 47.3 472.52 46.74 472.66 45.79 473.09 44.95 473.61 44.44 473.8 43.87 473.84 42.69 473.72 37.33 472.68 36.51 472.64 35.76 472.68 35.18 472.8 34.65 472.96 34.19 473.18 33.49 473.68 33.31 473.86 33.04 474.16 32.81 474.55 32.05 476.47 31.79 476.89 31.45 477.28 31.11 477.62 30.46 477.83 29.59 477.95 27.82 477.82 26.89 477.86 26.24 478.06 23.25 479.89 21.49 481.76 21.29 482.08 21.1 482.49 20.7 484.1 20.36 486.26 20.24 489.5 20.17 489.93 19.94 490.73 19.72 491.07 19.51 491.27 17.63 491.93 16.7 492.38 15.51 493.21 14.5 494.11 14.29 494.36 14.06 494.73 13.89 495.2 13.79 495.77 13.79 496.38 14.07 498.11 14.04 498.68 13.92 499.22 13.72 499.7 12.21 502.24 11.89 502.91 7.19 514.67 4.11 504.42 1 494.13 1.31 492.16 7.12 484.42 7.97 483.29 15.99 472.59 19.58 469.8 20.44 468.48 20.71 466.45 19.59 462.81 19.49 460.97 19.93 460.07 21.65 458.02 22.36 456.98 22.66 456.14 25.07 446.28 25.15 445.94 26.86 442.87 29.81 440.85 33.87 439.38 37.1 437.74 39.5 435.16 41.11 430.88 41.5 428.58 41.72 427.33 42.54 426.46 48.95 423.25 50.66 421.69 52.1 417.67 54.98 413.93 57.57 407.53 58.15 405.49 58.18 403.3 58.22 401.01 58.73 398.89 59.57 396.86 60.55 395.07 62.59 393.07 64.24 393.46 65.87 394.38 67.84 394.01 67.95 393.98 68.52 393.02 69.4 394.04 72.28 396.58 72.42 398.44 74.26 401.23 84.5 411.97 84.98 412.31 85.46 412.49 86.02 412.62 86.62 412.7 87.15 412.83 87.58 413.06 87.86 413.54 87.98 414.21 87.8 415.41 87.75 416.37 87.81 417.33 88.25 418.55 88.63 419.2 89.07 419.68 89.92 420.18 90.38 420.37 90.93 420.51 91.5 420.6 95.17 420.16 97.28 419.45 100.05 418.81 100.62 418.74 101.19 418.77 101.71 418.92 102.22 419.14 102.73 419.27 103.27 419.25 103.74 419.05 104.09 418.74 105.84 416.39 106.18 416.04 106.54 415.72 106.96 415.46 107.46 415.25 108 415.1 111.12 414.73 116.85 414.92 117.4 415.02 117.89 415.2 118.71 415.72 119.64 416.19 120.14 416.38 121.21 416.65 123.14 417.35 123.82 417.7 124.11 417.88 124.36 418.15 124.57 418.42 124.73 418.73 125.24 420.13 127.02 422.53 127.26 423.06 127.42 424.63 127.39 427.14 127.46 427.48 127.62 427.85 128.24 428.49 128.53 428.95 128.73 429.56 128.81 430.47 128.76 431.17 128.52 431.86 128.15 432.45 127.37 433.16 126.94 433.47 124.63 434.7 124.23 435.1 123.88 435.65 123.34 437.44 122.97 438.09 122.28 438.73 120.45 439.96 120.12 440.1 119.78 440.21 119.27 440.26 118.11 440.16 117.61 439.99 116.71 439.54 116.19 439.39 115.63 439.32 115.01 439.34 113.93 439.6 112.19 440.54 111.8 440.66 111.48 440.72 110.94 440.73 110.37 440.68 109.07 440.36 108.77 440.34 108.54 440.37 108.15 440.51 107.74 440.76 107.33 441.16 104.82 445.01 104.08 445.69 103.41 446.07 102.82 446.13 102.25 446.07 101.75 445.92 100.37 445.22 99.83 445.08 99.26 445.02 98.66 445.1 98.11 445.23 97.6 445.41 96.28 446.16 95.9 447.02 95.6 448.36 95.39 452.64 95.54 453.37 96.68 454.09 100.81 456.07 101.19 456.35 101.53 456.69 101.8 457.09 103.13 459.93 103.47 461.69 104.48 464.8 104.59 465.36 104.59 465.98 103.72 472.47 103.81 473.71 104.28 475.31 104.7 476.26 104.96 476.72 105.16 477.17 105.13 477.94 104.87 478.88 104.03 480.83 103.16 484.28 102.79 485.28 101.77 486.49 98.87 488.74 97.77 489.77 97.34 490.27 96.86 491.05 96.16 492.6 95.42 494.82 93.53 497.13 89.31 501.39 87.66 503.87 Z" id="KEN-891" data-name="Western"/>
<path d="M 799 106.12 790.64 118.11 782.27 130.09 773.9 142.07 765.52 154.06 760.36 161.44 755.2 168.83 750.04 176.2 744.87 183.59 736.68 191.71 728.47 199.83 720.25 207.95 712.05 216.07 708.64 219.45 707.2 222.22 707.26 227.56 707.38 240.43 707.51 253.87 707.51 261.27 707.51 271.89 707.51 282.52 707.51 293.14 707.51 303.77 707.51 316.25 707.51 328.72 707.51 341.2 707.51 353.68 707.51 366.15 707.51 378.63 707.51 380.32 707.51 391.11 707.51 403.58 707.51 416.06 707.51 428.53 707.51 441 707.51 453.48 707.51 465.96 707.51 478.44 707.51 490.91 707.51 503.4 707.63 511.58 707.71 518.31 707.78 525.05 707.93 535.89 708.07 546.71 708.22 557.55 708.36 568.39 708.45 575.42 708.55 582.46 708.64 590.04 711.19 593.33 713.71 596.63 716.26 599.91 718.8 603.2 723.74 609.57 728.85 616.19 734.35 623.29 738.91 629.17 743.82 635.52 748.97 642.17 754 648.66 759.02 655.16 762.85 660.11 764.06 662.31 764.42 664.2 764.16 670.45 764.13 670.45 710.95 673.81 710.31 673.92 633.1 708.46 627.63 710.56 627.22 708.69 627.22 708.07 627.64 707.05 627.18 705.59 625.79 702.56 624.55 697.08 623.75 695.68 624.11 695.36 624.79 694.62 625.17 694.32 624.54 692.92 623.75 688.19 623.29 687.47 622.22 686.33 621.76 685.4 621.69 684.63 622.26 683.56 622.38 682.74 621.7 678.31 621.76 676.6 621.97 676.27 622.41 675.9 622.87 675.36 623.13 674.56 622.97 674.49 622.38 671.83 622.17 665.44 621.39 663.93 620.05 662.6 619.21 661.47 615.09 652.81 614.52 651.94 614.18 650.9 613.53 644.45 612.53 640.94 611.89 637.09 611.42 628.65 610.23 624.77 608.01 622.17 607.61 620.06 606.48 618.03 604.75 616.61 602.56 616.38 603.31 614.58 603.87 613.73 604.6 612.97 603.17 611.55 599.63 604.46 598.99 601.6 598.41 599.96 597.11 597.85 597.16 595.81 597.11 595.19 595.59 590.62 595.06 589.68 595.42 588.95 595.57 588.35 595.74 586.89 595.06 586.89 594.27 587.02 593.97 586.01 593.7 582.86 592.42 579.56 592.21 578.07 593.02 576.67 592.11 575.72 592.01 574.13 592.17 572.62 592.03 571.96 588.99 567.47 588.8 565.66 588.27 564.26 587.38 563.17 586.14 562.29 584.55 561.66 581.94 561.4 580.75 560.93 580.38 560.29 577.89 557.29 577.28 557.21 577.18 555.75 576.81 554.57 576.09 553.78 574.9 553.5 574.23 551.99 570.36 537.69 569.04 535.3 567.34 534.29 567.03 533.9 566.01 532.08 565.63 531.56 564.71 531.23 563.23 531.43 562.16 530.88 561.02 528.1 560.48 527.26 559.08 526.28 558.18 524.7 556.84 523.55 555.26 522.56 553.98 521.96 550.41 521.16 549.84 520.97 549.59 520.43 548.98 519.89 548.21 519.46 545.24 518.98 544.13 518.24 543.23 517.31 541.66 516.51 539.51 516.39 537.54 516.84 535.68 517.04 533.85 516.17 525.3 515.83 520.01 509.32 518.79 508.33 518.35 508.1 517.98 507.61 517.5 507.13 516.72 506.9 513.65 506.9 510.48 507.48 508.9 508 507.83 508.64 507.07 509.76 506.44 510.99 505.66 512 504.42 512.42 485.65 509.63 484.77 488.91 484.92 488.25 485.66 486.81 485.93 486.14 486.07 485.43 485.79 481.63 480.35 458.46 480.21 458.12 479.98 457.9 478.09 456.56 477.75 456.21 477.56 455.75 477.64 455.17 478.09 454.47 478.51 454.12 478.79 453.92 480.55 452.96 480.98 452.79 481.51 452.65 487.67 451.84 488.19 451.69 488.62 451.47 489 451.16 489.32 450.81 490.68 448.7 491.97 445.96 492.2 445.6 492.51 445.27 492.97 444.99 493.64 444.67 526.85 432.14 527.26 431.72 527.48 431.27 527.79 429.79 528.06 428.96 529.2 426.8 531.97 422.74 533.29 421.26 535.55 419.51 536.67 418.45 537.89 416.96 541.13 411.37 541.42 410.99 541.72 410.69 553.55 406.12 554.7 405.55 555.58 404.91 555.59 404.08 555.44 403.42 538.91 359.23 538.76 358.12 539.32 357.48 540.39 356.88 556.02 350.55 556.09 350.32 556 350.13 555.68 349.91 553.84 349.01 553.47 348.7 553.15 348.34 552.47 347.71 552.06 347.44 551.03 347.1 550.56 346.88 550.18 346.57 547.94 344.02 547.45 343.11 547.25 342.62 547 342.18 546.44 341.38 545.78 340.66 545.05 340.03 538.96 336.55 538.18 335.94 536.84 334.61 536.44 334.33 535.03 333.64 532.55 332.78 532.11 332.52 531.71 332.23 530.29 330.86 529.99 330.47 529.75 330.06 529.54 329.6 528.51 325.1 527.6 323.21 527.02 322.43 526 321.36 525.69 320.96 525.42 320.53 524.6 318.65 523.5 316.98 523.19 316.61 521.73 315.26 518.52 313.02 517.8 312.33 513.67 306.04 510.63 300.16 509.25 295.96 508.77 295.06 508.08 294.39 507.69 294.1 507.36 293.77 507.07 293.36 506.54 291.83 506.3 291.39 506.02 290.99 505.35 290.24 505.2 289.25 505.21 287.73 505.57 284.51 505.44 282.05 505.26 281.55 504.7 277.94 504.54 277.39 504.16 276.37 502.98 270.27 502.65 264.77 501.2 258.59 499.82 255.74 499.31 254.2 499.03 253.61 499.03 253.16 499.23 252.78 499.24 252.14 499.57 251.58 500.74 250.96 506.06 249.27 508.11 246.21 520.54 218.45 521.19 218.06 521.64 217.59 521.91 215.59 521.89 214.16 522 213.46 522.3 212.74 523.02 211.83 523.57 211.34 524.11 211.01 524.99 210.55 527.67 209.91 528.63 209.54 529.05 209.28 529.42 208.98 530.92 207.34 531.66 206.73 532.61 206.32 537.67 204.69 538.5 204.19 539.15 203.61 540.29 201.91 540.77 201.34 542.96 199.78 543.3 199.44 543.57 198.49 543.78 196.92 543.68 183.73 543 178.09 542.01 174.64 540.59 156.11 540.6 154.56 541.24 154.19 542.55 154.27 543.02 155.3 542.1 157.14 554.56 157.51 557.64 158.55 558.5 159.67 559.03 161.02 559.78 162.35 561.37 163.41 564.56 163.24 566.24 160.61 568.42 153.97 571 150.87 577.55 144.9 585.4 137.73 587.31 135.22 588.96 132.14 591.74 124.78 593.7 119.56 595.71 117.1 604.27 112.96 612.86 108.83 622.54 104.16 627.06 101.91 627.51 101.33 627.44 100.71 627.53 100.31 628.49 100.4 628.79 100.57 629.09 100.66 629.37 100.64 639.48 97.12 647.35 94.38 647.88 93.88 648.47 92.26 649.04 91.73 661.94 86.77 672.48 82.73 680.78 79.54 687.08 75.41 689.27 78.31 695.29 82.39 697.74 85.19 699.42 88.27 700.45 89.28 702.26 90.21 707.03 91.84 708.64 92.79 711.25 95.2 717.65 104.16 722.09 107.61 726.93 109.57 732.15 110.18 742.34 109.6 753.54 108.95 758.55 107.55 761.19 107.41 769.19 105.43 770.77 105.54 773.42 106.64 774.84 106.9 776.28 106.57 780.51 104.16 785.26 105.71 789.65 108.03 794.1 108.9 799 106.12 Z" id="KEN-893" data-name="North-Eastern"/>
</g>
</svg>