<?xml version="1.0"?>
<svg xmlns="http://www.w3.org/2000/svg" version="1.2" baseProfile="tiny" width="800" height="863" viewBox="0 0 800 863" stroke-linecap="round" stroke-linejoin="round">
<g id="ne_10m_admin_1_states_provinces">
<path d="M 153.47 183.08 157.56 183.55 159.69 184.33 161.96 185.93 165.53 190.01 167.8 191.78 170.23 192.81 172.68 193.18 174.86 192.7 176.48 191.12 176.98 189.32 177 185.25 177.72 183.23 180.42 182.89 184.41 182.37 199.42 182.42 237.44 182.54 236.69 202.08 234.57 208.99 233.02 211.74 231.04 217.03 230.48 219.73 230.63 221.67 232.76 224.57 233.51 225.83 234.08 227.12 235.26 231.12 235.94 232.39 237.03 232.66 239.04 232.27 310.77 207.5 311.96 207.48 312.54 207.83 313.85 213.31 314.29 216.32 313.97 225.81 313.7 227.56 312.33 231.33 311.67 234.57 311.37 235.48 311.07 236.04 309 237.71 308.34 238.48 308.15 238.8 307.96 239.16 306.44 244.78 305.97 245.89 304.92 247.5 304.3 248.25 303.81 249.11 303.54 249.74 303.09 251.34 302.9 251.83 301.28 254.62 300.68 255.94 297.84 266.09 297.43 269.7 297.18 270.83 296.96 271.46 296.52 272.04 296.05 272.51 295.3 273.09 295 273.87 294.72 275.24 295.71 279.81 295.83 281.4 295.75 282.16 295.58 282.85 294.87 284.53 293.87 285.76 293.36 286.17 293.06 286.48 292.21 287.7 291.34 288.49 288.75 288.04 288.19 288 287.68 288.12 283.48 290.11 281.43 290.49 280.56 290.49 275.07 291.19 273.11 291.12 272.3 291.46 271.98 291.92 271.79 293.2 271.85 295.15 271.55 296.17 271.08 296.98 270.55 297.62 268.16 299.8 267.89 300.18 267.4 301.04 267.27 301.42 267.2 301.82 267.24 303 267.33 303.54 267.63 304.52 268.85 307.06 268.93 308.21 268.29 309.5 264.51 311.39 263.36 312.22 261.89 314.05 259.07 316.92 256.79 318.24 255.19 320.09 255.19 320.45 255.72 321.88 256.23 324.62 256.36 325.94 256.25 326.56 255.74 327.11 255.12 327.36 253.97 327.65 253.06 328.15 252.72 328.91 252.63 329.61 252.65 330.3 252.03 330.99 235.41 344 233.74 345.05 231.23 346.06 221.37 351.93 219.79 353.35 215.14 359.02 212.15 361.56 195.51 372.06 182.99 377.26 180.57 377.46 179.82 376.58 179.55 375.37 179.29 372.68 178.76 371.35 177.84 367.26 177.25 365.97 176.2 364.83 175.01 364.11 173.72 363.61 171.1 363.41 169.78 362.95 168.41 362.3 167.01 361.92 165.63 362.17 164.27 363.59 163.18 364.96 161.43 366.69 159.09 368.37 154.86 370.68 152.54 371 150.98 370.53 148.18 368.11 146.9 367.87 144.54 369.37 141.14 371.07 139.76 371.3 135.66 371.5 134.29 371.83 128.71 373.95 123.35 376.66 121.98 377.07 120.88 377.65 120.12 378.81 122.07 396.47 121.26 399.83 114.96 392.15 110.54 389.11 105.94 386.92 104.63 386.62 102.03 386.4 100.26 385.29 98.24 383.28 91.13 373.75 89.89 371.04 86.84 359.54 84.98 357.74 84.95 357.71 84.89 348.28 85.92 345.39 89.02 339.23 89.68 336.46 89.83 334.95 90.43 332.01 90.53 330.35 90.22 329.09 88.65 325.57 88.81 323.85 89.23 322.21 90 320.73 91.04 319.42 91.72 318.13 91.47 316.94 90.85 315.83 90.53 314.77 90.35 311.84 85.52 285.8 83.95 281.37 84.39 280.13 85.09 276.49 85.36 275.73 85.97 275.33 90.35 271.43 91.84 271.04 93.17 272.02 94.36 274.7 94.93 278.06 94.65 280.85 93.33 285.97 93.59 287.57 94.2 289.08 94.27 290.22 92.86 290.66 92.14 291.25 91.88 292.62 91.99 294.21 92.39 295.45 93.59 294.35 94.33 293.12 95.17 292.11 96.71 291.69 101.21 291.73 101.88 292.16 102.62 293.94 106.22 297.46 107.5 300.14 107.97 305.34 108.84 306.11 109.97 306.83 110.92 306.82 111.35 305.34 110.59 299.45 110.74 296.98 112.2 294.51 119 296.42 120.75 297.33 121.48 298.84 122.65 303.61 123.54 304.91 124.15 303.96 128.02 300.11 129.27 299.21 131.35 299.31 132.56 300.16 133.97 302.96 140.82 301.81 145.83 306.9 150.05 313.55 154.54 317.12 149.51 307.92 147.54 305.34 147.17 303.09 149.85 301.86 153.4 302.03 155.56 303.98 157.25 302.92 159.79 299.62 161.28 298.18 166.11 295.12 167.85 294.51 170.06 294.55 174.08 296.02 176.31 296.48 178.33 296.3 183.89 294.51 183.89 293.48 176.99 293.63 174.29 292.85 171.61 290.66 169.49 292.06 166.94 293.29 164.23 294.17 153.61 294.82 151.8 295.45 145.61 293.34 143.88 292.16 141.81 290.3 140.69 289.66 136.32 289.81 134.85 289.11 128.27 284.18 123.5 281.35 121.53 279.33 120.75 276.59 119.81 276.59 119.02 278.26 118.24 278.75 116.52 278.46 115.4 278.8 112.31 280.16 111.35 280.35 110.25 278.77 109.43 273.87 107.97 272.83 106.02 270.86 99.43 255.74 97.68 253.15 93.86 248.84 91.29 247.58 88.88 247.77 86.73 247.67 84.89 245.52 84.78 243.5 85.33 235.93 86.3 234.25 89.29 233.95 92.39 233.31 93.93 232.68 96.73 231.06 98.14 230.49 99.98 230.26 101.17 230.59 102.39 231.09 104.26 231.35 105.39 231.06 107.25 229.76 109.77 228.78 111.93 227.42 114.37 226.36 116.99 226.65 119.24 228.88 120.25 232.05 119.76 234.89 117.46 236.13 111.48 234.86 108.56 235.23 106.67 238.01 109.85 237.03 113.88 237.28 117.1 239.05 117.93 242.7 119.56 242.18 120.77 241.22 121.48 239.82 121.69 238.01 123.34 240.21 123.59 244.22 122.87 248.15 121.69 250.22 123 254.13 124.1 255.33 126.45 255.84 125.85 253.66 125.87 250.87 126.54 248.42 127.77 247.4 128.65 246.17 130.06 240.2 131.15 238.01 129.27 235.28 128.8 232.45 129.27 225.71 127.86 209.42 123 196.5 122.6 193.2 122 190.99 120.84 189.57 120.07 187.97 120.75 185.17 122.47 182.25 124.27 180.88 126.29 180.47 128.77 180.47 131.2 179.79 132.53 178.13 133.47 176.25 134.82 174.85 137.3 174.43 145.32 174.64 147.54 175.32 149.38 178.33 150.53 184.22 151.8 187.14 152.93 184.8 153.47 183.08 Z" id="GAB-2168" data-name="Estuaire"/>
<path d="M 760.63 134.03 760.84 134.79 762.02 135.55 763.58 136.21 765.06 137.36 765.89 138.89 767.93 147.48 768.3 151.07 768.16 161.45 769.28 164.96 771.43 167.83 778.02 170.87 779.9 173.67 782.05 180.7 783.57 183.92 785.5 186.93 787.8 189.64 790.42 192.02 793.7 193.68 794.75 194.78 794.49 196.65 793.23 197.93 791.6 198.9 790.56 200.02 791.03 201.72 791.94 208.12 787.23 213.78 780.89 219.22 776.92 224.94 776.5 231.99 775.59 234.94 765.4 243.75 764.89 244.47 764.11 245.04 762.26 245.75 755.36 246.12 747.64 245.25 740.83 246.18 736.65 251.98 738.2 254.85 739.06 257.66 738.52 260.5 735.94 263.46 725.78 269.06 722.85 272.17 717.98 283.1 713.3 290.06 712.68 293.35 713.36 296.8 714.7 301.06 715.35 304.42 715.93 314.35 716.83 315.29 718.43 315.33 720.08 315.63 721.16 317.32 720.95 318.76 719 321.27 718.42 322.64 718.69 324.65 719.4 326.19 719.54 327.64 718.11 329.41 716.7 330.75 714.99 333.02 714.93 333 704.78 329.44 698.01 324.55 695.03 322.78 692.28 321.66 664.79 315.7 662.73 315.5 657.39 315.81 631.57 314.76 628.82 314.78 627.67 314.53 626.19 313.87 624.85 313.07 623.36 312.5 619.73 312.65 618.07 312.36 616.51 311.72 615.12 310.8 609.89 308.25 608.96 307.19 608.36 305.95 605.75 297.62 605.52 294.91 604.9 293.76 602.64 292.19 600.74 290.25 599.59 289.75 595.49 290.38 594.25 290.38 593.15 290.17 592.36 289.89 591.18 289.36 588.58 287.79 586.36 286.1 585.27 285.76 581.3 289.36 579.72 290.23 577.74 290.55 576.16 290.34 571.96 289.1 568.57 288.57 566.02 288.8 564.42 288.29 563.19 287.29 562.48 286.06 561.42 284.82 560.28 283.88 559.13 282.72 557.72 281.96 555.89 281.66 546.93 286.01 545.59 286.3 544.26 286.06 542.98 285.29 541.76 284.21 540.76 283.03 539.82 282.32 539.1 282.77 518.29 375.68 496.68 386.64 395.22 423.96 391.09 415.28 390.61 413.94 388.44 402.82 386.37 398.38 384.71 395.94 383.53 394.62 378.41 390.37 377.28 389.05 376.47 387.56 374.33 380.48 374.03 378.34 374.18 374.9 374.03 372.73 373.65 370.92 372.92 369.51 365.78 358.8 365.05 357.48 364.62 356.13 364.39 354.75 364.41 351.49 364.84 347.56 364.28 341.36 363.17 336.73 362.71 335.71 361.79 334.84 360.57 334.41 359.27 334.22 358.09 333.9 357.33 333.19 356.88 332.53 356.41 331.4 356.39 330.17 356.73 328.79 359.03 324.46 360.23 320.17 361.36 318.83 364.84 316.28 366.84 314.39 386.18 304.34 388.52 303.93 390.03 303.34 392 301.68 393.62 300.57 396.29 298.38 397.1 296.93 397.59 295.07 397.35 293.12 398.01 288.71 384.04 273.95 383.36 272.77 383.49 271.93 384.62 270.83 483.54 203.73 484.54 202.65 485.1 201.44 485.84 197.61 485.76 197.13 485.61 196.84 485.33 196.42 485.27 195.86 485.35 195.18 485.71 193.69 485.78 192.86 485.37 187.84 485.46 185.07 485.97 182.88 486.03 182.74 486.14 182.51 490.08 177.49 491.17 175.67 492.69 172.38 492.9 171.65 493.2 171 493.61 170.26 495.76 167.82 496.12 167.28 498.7 162.16 500.44 160.41 500.91 159.73 501.06 159.27 501.27 157.47 501.37 157.01 501.57 156.49 501.91 155.96 503.49 154.01 503.7 153.6 503.89 153.12 504.15 151.74 504.17 150.58 618.3 152.24 618.31 152.25 619.76 152.45 622.56 152 627.29 152.35 630.13 151.77 632.65 150.68 635.2 147.55 637.71 147.19 640.04 146.57 640.92 144.13 642.03 143.1 644.71 142.36 647.71 142.02 649.8 142.21 654.6 143.93 658.85 144.74 663 144.72 667.61 143.87 669.38 142.59 672.52 138.37 677.46 136.45 679.25 134.98 681.19 133.71 683.92 133.46 685.22 133.52 686.48 133.43 689.01 132.96 689.9 132.52 691.55 131.23 692.48 130.88 693.18 131.02 694.79 131.79 695.2 131.93 696.68 131.38 697.13 131.08 698.81 127.79 700.1 124.24 700.22 123.58 702.16 123.11 728.13 125.53 730.5 126.06 733 127.55 735.03 129.55 737.19 131.09 740.11 131.27 745.02 129.37 747.5 128.73 750.25 129 755.67 130.48 756.86 131.29 757.74 132.2 758.78 132.96 760.42 133.27 760.63 134.03 Z" id="GAB-2186" data-name="Ogooué-Ivindo"/>
<path d="M 633.39 23.2 633.43 31.44 632.95 35.86 631.54 39.16 626.64 41.87 625.81 42.49 623.31 45.23 622.59 45.73 621.33 46.23 621.29 47.39 622.07 49.96 621.79 51.35 621.08 52.31 620.17 53.17 619.25 54.27 618.31 55.87 617.38 58.02 615.75 58.49 615.18 59.12 616.96 61.56 618.07 64.04 618.78 65.07 619.34 66.69 619.15 68.9 617.72 73.94 616.67 76.02 615.27 77.85 613.53 78.85 614.54 81.21 614.14 83.62 613.21 86.2 612.68 89.1 613.5 95.36 613.06 98.66 610.7 101.38 612.95 105.38 615.49 108.89 616.43 107.87 617.99 109.07 618.96 110.7 619.13 112.57 618.31 114.53 621.14 115.97 623.61 122.62 625.81 124 625.67 125.15 625.85 131.65 625.77 132.77 625.83 133.83 626.28 134.75 627.43 136.42 627.13 137.15 626.29 137.63 625 140.39 623.04 141.71 620.71 142.5 618.78 142.77 617.68 143.68 617.17 145.6 616.15 147.29 613.53 147.56 614.92 148.79 616.57 149.45 617.88 150.33 618.3 152.24 504.17 150.58 504.15 151.74 503.89 153.12 503.7 153.6 503.49 154.01 501.91 155.96 501.57 156.49 501.37 157.01 501.27 157.47 501.06 159.27 500.91 159.73 500.44 160.41 498.7 162.16 496.12 167.28 495.76 167.82 493.61 170.26 493.2 171 492.9 171.65 492.69 172.38 491.17 175.67 490.08 177.49 486.14 182.51 486.03 182.74 485.97 182.88 485.46 185.07 485.37 187.84 485.78 192.86 485.71 193.69 485.35 195.18 485.27 195.86 485.33 196.42 485.61 196.84 485.76 197.13 485.84 197.61 485.1 201.44 484.54 202.65 483.54 203.73 384.62 270.83 383.49 271.93 383.36 272.77 384.04 273.95 398.01 288.71 291.34 288.49 292.21 287.7 293.06 286.48 293.36 286.17 293.87 285.76 294.87 284.53 295.58 282.85 295.75 282.16 295.83 281.4 295.71 279.81 294.72 275.24 295 273.87 295.3 273.09 296.05 272.51 296.52 272.04 296.96 271.46 297.18 270.83 297.43 269.7 297.84 266.09 300.68 255.94 301.28 254.62 302.9 251.83 303.09 251.34 303.54 249.74 303.81 249.11 304.3 248.25 304.92 247.5 305.97 245.89 306.44 244.78 307.96 239.16 308.15 238.8 308.34 238.48 309 237.71 311.07 236.04 311.37 235.48 311.67 234.57 312.33 231.33 313.7 227.56 313.97 225.81 314.29 216.32 313.85 213.31 312.54 207.83 311.96 207.48 310.77 207.5 239.04 232.27 237.03 232.66 235.94 232.39 235.26 231.12 234.08 227.12 233.51 225.83 232.76 224.57 230.63 221.67 230.48 219.73 231.04 217.03 233.02 211.74 234.57 208.99 236.69 202.08 237.44 182.54 240.61 182.55 281.76 182.69 312.9 182.79 322.93 182.82 364.12 182.96 363.91 146.94 363.69 110.92 363.52 82.11 363.48 74.9 363.27 38.86 363.21 27.82 362.16 22.55 363.04 21.1 363.58 19.49 363.82 17.81 363.82 16.09 364.06 13.83 364.93 12.26 366 10.81 366.82 8.88 366.59 7.05 365.97 5.26 366.22 4.01 402.93 2.66 406.51 1.39 408.25 1 410.17 1.21 411.52 1.97 414.31 4.27 421.38 6.59 423.5 6.82 428.17 6.18 440.22 6.56 450.72 5.64 461.14 6.29 469.23 5.68 471.72 5.77 477.27 6.65 483.24 6.9 485.98 6.39 491.27 4.62 493.98 4.23 495.42 3.85 498.29 2.31 499.6 2.16 501.3 2.78 505.81 5.53 508.3 6.03 515.87 4.3 521.16 4.66 528.83 7.16 531.2 7.91 534.42 7.16 536.61 8.81 539.89 10.02 558.49 12.8 561.28 12.25 563.2 11.03 564.77 9.76 566.51 9.04 568.85 9.7 571.99 11.06 574.71 11.66 575.89 9.98 577.82 10.78 579.57 10.92 581.13 10.34 582.54 9.04 586.67 10.52 589.06 10.92 590.57 10.49 592.46 9.59 594.66 10.1 598.51 11.77 604.37 11.03 605.67 10.49 608.43 7.84 610.02 6.7 611.22 6.22 615.41 6.41 619.25 7.16 621.16 8.65 622.07 9.04 623.35 9.05 625.33 8.23 626.28 8.01 627.83 8.65 629.96 10.18 632.02 12.04 633.33 13.65 633.91 15.67 633.34 19.8 633.39 23.2 Z" id="GAB-2187" data-name="Wouleu-Ntem"/>
<path d="M 291.34 288.49 398.01 288.71 397.35 293.12 397.59 295.07 397.1 296.93 396.29 298.38 393.62 300.57 392 301.68 390.03 303.34 388.52 303.93 386.18 304.34 366.84 314.39 364.84 316.28 361.36 318.83 360.23 320.17 359.03 324.46 356.73 328.79 356.39 330.17 356.41 331.4 356.88 332.53 357.33 333.19 358.09 333.9 359.27 334.22 360.57 334.41 361.79 334.84 362.71 335.71 363.17 336.73 364.28 341.36 364.84 347.56 364.41 351.49 364.39 354.75 364.62 356.13 365.05 357.48 365.78 358.8 372.92 369.51 373.65 370.92 374.03 372.73 374.18 374.9 374.03 378.34 374.33 380.48 376.47 387.56 377.28 389.05 378.41 390.37 383.53 394.62 384.71 395.94 386.37 398.38 388.44 402.82 390.61 413.94 391.09 415.28 395.22 423.96 383.28 423.44 378.79 422.77 370.69 419.95 362.73 416.18 341.6 399.9 339.77 399.47 338.15 399.5 332.58 400.76 307.93 402.17 305.18 402.92 303.75 403.52 302.51 404.41 300.66 406.7 299.53 407.39 298.27 406.99 295.34 404.96 293.94 404.98 292.7 405.7 290.99 408.09 289.71 409.07 287.9 409.57 286.43 409.26 285.19 408.27 284.44 407.02 283.29 405.62 281.81 405.08 279.83 404.78 278.32 404.94 276.95 405.57 275.93 406.45 274.41 407.07 271.17 406.36 270.38 407 270.51 408.07 272.17 410.69 272.58 411.97 272.19 413.13 271.23 414.02 270.06 414.92 268.95 416.13 264.98 422.07 263.68 423.46 262.1 424.87 255.15 429.02 253.8 430.2 252.95 431.44 251.74 435.76 251.24 438.48 251.2 439.8 251.56 442.46 251.22 443.8 245.7 453.33 245.03 454.03 243.9 454.75 238.85 457.13 238.18 457.67 237.97 458.1 237.95 458.76 238.5 459.77 239.25 460.81 239.57 462.1 239.29 463.44 238.61 464.82 236.73 467.39 235.58 468.56 234.83 469.82 234.53 471.09 234.47 472.42 234.15 473.61 233.38 474.69 231.93 475.31 231.31 476.39 230.99 477.66 230.5 478.91 229.5 479.99 227.94 478.56 226.38 477.7 218.27 477.54 215.01 476.84 212.81 476.63 209.38 476.85 207.27 477.46 205.45 478.2 201.31 480.84 189.51 492.99 187.27 491.93 180.87 490.91 180.08 490.64 178.97 490.15 177.71 489.38 169.27 481.61 168.03 480.09 167.88 478.84 168.18 477.55 171.76 470.83 172.72 468.03 172.95 466.57 173 465.16 172.76 463.75 170.5 458.37 170.33 457.63 170.4 456.66 171.4 454.24 171.5 452.9 170.95 451.26 169.84 449.5 165.08 445.58 163.35 444.71 161.99 444.39 159.3 444.56 154.12 444.26 152.96 444.03 152.18 443.98 148.44 444.3 147.07 444.22 145.77 443.75 144.62 442.79 143.88 441.28 142.42 439.84 141.89 439.54 140.59 438.54 138.8 437.44 135.9 436.1 130.26 428.53 121.26 399.83 122.07 396.47 120.12 378.81 120.88 377.65 121.98 377.07 123.35 376.66 128.71 373.95 134.29 371.83 135.66 371.5 139.76 371.3 141.14 371.07 144.54 369.37 146.9 367.87 148.18 368.11 150.98 370.53 152.54 371 154.86 370.68 159.09 368.37 161.43 366.69 163.18 364.96 164.27 363.59 165.63 362.17 167.01 361.92 168.41 362.3 169.78 362.95 171.1 363.41 173.72 363.61 175.01 364.11 176.2 364.83 177.25 365.97 177.84 367.26 178.76 371.35 179.29 372.68 179.55 375.37 179.82 376.58 180.57 377.46 182.99 377.26 195.51 372.06 212.15 361.56 215.14 359.02 219.79 353.35 221.37 351.93 231.23 346.06 233.74 345.05 235.41 344 252.03 330.99 252.65 330.3 252.63 329.61 252.72 328.91 253.06 328.15 253.97 327.65 255.12 327.36 255.74 327.11 256.25 326.56 256.36 325.94 256.23 324.62 255.72 321.88 255.19 320.45 255.19 320.09 256.79 318.24 259.07 316.92 261.89 314.05 263.36 312.22 264.51 311.39 268.29 309.5 268.93 308.21 268.85 307.06 267.63 304.52 267.33 303.54 267.24 303 267.2 301.82 267.27 301.42 267.4 301.04 267.89 300.18 268.16 299.8 270.55 297.62 271.08 296.98 271.55 296.17 271.85 295.15 271.79 293.2 271.98 291.92 272.3 291.46 273.11 291.12 275.07 291.19 280.56 290.49 281.43 290.49 283.48 290.11 287.68 288.12 288.19 288 288.75 288.04 291.34 288.49 Z" id="GAB-2621" data-name="Moyen-Ogooué"/>
<path d="M 395.22 423.96 392.62 428.04 388.95 432.29 387.86 434.09 387.22 435.73 386.33 443.62 386.41 444.96 386.94 447.3 387.26 450.67 387.58 452.16 388.12 453.5 388.9 454.78 391.56 457.62 391.9 458.08 392.3 458.82 393.15 461.52 393.52 463.33 393.79 466.08 393.56 468.37 393.05 470.95 393.41 473.37 394.37 474.61 395.71 475.14 398.43 475.84 399.85 475.92 401.22 475.5 403.97 474.29 408.03 473.33 417.52 467.39 418.93 466.83 420.27 466.48 421.62 466.7 422 467.11 422.05 467.77 421.79 468.97 421.71 471.2 422.07 474.14 423.33 478.34 424.09 479.77 428.98 486.54 431.18 488.9 437.86 493.65 442.84 498.43 444 499.18 449.25 501.52 450.44 502.25 453.26 505.06 458.14 511.08 458.97 512.53 459.08 513.34 459.08 515.97 459.38 517.55 461.35 524.03 461.8 529.12 461.52 532.43 461.18 533.59 461.05 533.89 460.35 535.08 459.55 536.11 458.55 537.04 458.12 537.56 457.78 538.17 457.55 538.91 457.59 540.21 457.97 541.84 459.27 544.93 460.67 546.1 462.09 546.92 463.44 547.42 464.67 548.37 473.83 560.78 475.62 562.76 484.14 569.91 485.5 570.66 502.44 576.48 503.78 576.57 513.47 575.7 514.86 575.76 516.12 576.11 517.08 576.52 517.78 578.59 517.25 581.52 515.61 579.78 514.08 579.42 513.55 581.29 514.71 596.11 515.88 601.67 518.74 606.07 524.1 608.5 523.49 610.87 521.02 614.77 520.03 616.86 519.78 618.89 520.76 624.57 519.81 628.52 517.96 633.26 516.96 637.71 518.53 640.73 463.94 652.43 459.68 651.96 455.47 649.07 450.81 643.29 448.32 641.46 446.9 640.62 442.6 642.75 436.8 644.61 431.84 645.59 428.78 646.82 424.12 651.11 421.83 652.44 419.56 652.26 417.06 650.94 412.41 647.3 411.36 646.08 410.8 644.92 409.95 643.86 408.06 642.89 401.11 640.79 396.02 640.62 395.73 640.7 394.63 643.4 397.59 651.42 398.09 654.45 397.09 662.06 397.15 664.47 398.21 667.36 401.7 672.92 402.99 676.01 403.73 679.52 403.73 682.37 403.06 685.23 401.79 688.71 391.78 705.05 391.51 706.06 391.47 706 381.82 693.6 370.83 682.28 360 673.49 352.04 664.51 349.41 662.17 348.75 660.96 346.15 651.41 345.51 650.06 344.38 648.78 333 641.83 331.87 640.73 331.15 639.45 330.77 638.12 330.47 636.71 330.04 635.36 329.32 634 328.29 632.72 326.9 631.62 325.37 630.83 323.36 630.26 263.85 637.98 258.32 629.16 256.28 626.83 255.66 626.49 255.1 626.02 254.59 625.43 250.88 619.98 250.02 617.97 247.49 608.53 247.19 607.85 246.7 607.29 244.2 605.49 243 604.17 242.23 602.67 241.81 600.72 241.81 599.16 242.02 597.69 243.73 593.21 243.95 591.82 243.51 590.45 242.06 589.51 239.29 588.55 236.46 586.17 230.67 583.02 229.37 582.98 228.09 583.72 226.87 584.7 225.53 585.39 224.1 585.66 222.61 585.6 212.92 583.25 210.19 583.25 208.76 582.55 207.22 581.15 205.77 580.42 202.63 578.25 198.31 577.08 193.91 574.7 187.04 572.47 184.24 572.03 179.68 571.93 178.46 571.8 177.2 571.24 175.9 570.28 174.67 569.06 170.08 563.49 169.31 562.12 167.67 557.83 166.88 556.44 164.97 553.83 163.01 551.76 162.82 550.6 164.1 549.25 165.27 548.27 166.06 547.06 166.15 545.71 166.47 544.25 167.82 542.57 169.14 541.71 170.54 541.39 171.84 541.34 173.12 541.14 174.38 540.52 175.5 538.72 176.69 535.92 177.52 531.6 177.71 529.16 177.59 527.25 176.09 520.15 175.82 517.44 175.88 514.8 176.35 513.3 177.16 511.73 186.82 502.48 188.76 498.5 189.51 492.99 201.31 480.84 205.45 478.2 207.27 477.46 209.38 476.85 212.81 476.63 215.01 476.84 218.27 477.54 226.38 477.7 227.94 478.56 229.5 479.99 230.5 478.91 230.99 477.66 231.31 476.39 231.93 475.31 233.38 474.69 234.15 473.61 234.47 472.42 234.53 471.09 234.83 469.82 235.58 468.56 236.73 467.39 238.61 464.82 239.29 463.44 239.57 462.1 239.25 460.81 238.5 459.77 237.95 458.76 237.97 458.1 238.18 457.67 238.85 457.13 243.9 454.75 245.03 454.03 245.7 453.33 251.22 443.8 251.56 442.46 251.2 439.8 251.24 438.48 251.74 435.76 252.95 431.44 253.8 430.2 255.15 429.02 262.1 424.87 263.68 423.46 264.98 422.07 268.95 416.13 270.06 414.92 271.23 414.02 272.19 413.13 272.58 411.97 272.17 410.69 270.51 408.07 270.38 407 271.17 406.36 274.41 407.07 275.93 406.45 276.95 405.57 278.32 404.94 279.83 404.78 281.81 405.08 283.29 405.62 284.44 407.02 285.19 408.27 286.43 409.26 287.9 409.57 289.71 409.07 290.99 408.09 292.7 405.7 293.94 404.98 295.34 404.96 298.27 406.99 299.53 407.39 300.66 406.7 302.51 404.41 303.75 403.52 305.18 402.92 307.93 402.17 332.58 400.76 338.15 399.5 339.77 399.47 341.6 399.9 362.73 416.18 370.69 419.95 378.79 422.77 383.28 423.44 395.22 423.96 Z" id="GAB-2622" data-name="Ngounié"/>
<path d="M 391.51 706.06 390.14 711.32 390.85 714.55 393.21 714.15 398.78 710.24 402.69 709.05 405.43 709.94 407.68 712.47 412.42 719.37 422.88 730.48 424.9 733.65 424.9 736.6 421.51 738.69 418.34 739.02 416.45 738.86 415.01 739.73 413.19 743.14 412.51 745.56 412.38 755.08 412.15 755.86 412.41 756.39 413.59 757.57 414.66 758.36 422.44 761.62 425.34 763.35 430.89 767.91 435.89 770.28 442.41 772.08 447.73 774.56 449.18 779 447.33 781.95 441.4 786.39 439.54 789.7 431.7 808.23 431.31 811.41 432.68 814.28 435.52 815.98 438.77 817.03 441.42 818.45 442.38 821.36 441.3 824.46 438.87 827.36 435.9 829.58 433.49 830.5 433.15 830.63 430.59 830.56 422.67 828.3 419.91 827.98 412.42 828.95 409.44 827.94 407.14 825.45 396.22 807.8 391.12 803.9 384.23 802.9 380.43 805.5 377.86 809.74 374.79 813.67 369.55 815.42 363.89 816.56 359.46 819.29 355.37 822.65 350.68 825.7 347.09 828.75 344.83 833.09 335.69 857.7 333.55 861.69 330.88 859.97 327.52 857.84 320.8 850.82 318.66 841.93 317.36 839.5 316.46 837.02 315.95 834.29 315.76 831.13 312.89 827.95 308.29 824.6 291.42 810.28 269.25 795.01 268.14 788.82 268.3 786.71 269.11 784.32 269.6 781.24 269.04 778.58 267.74 776 265.75 774.39 262.69 772.58 258.74 769.52 256.41 768.44 255.87 765.75 250.71 760.01 248.88 757.84 246.37 755.15 242.6 751.2 228.08 738.99 210.5 725.34 203.5 719.59 185.7 706.64 177.42 699.62 175.1 697.86 180.24 696.47 180.38 696.43 221.12 684.56 223.84 684.56 225.15 684.03 226.42 681.97 227.02 680.33 228.15 674.53 228.64 673.09 229.63 671.6 231.04 670.15 233.51 668.59 235.24 667.98 236.71 667.6 237.61 666.95 237.74 665.97 237.44 664.96 235.53 661.88 235.15 660.57 235.45 659.07 236.34 657.41 238.06 655.17 239.51 651.78 244.2 647.72 263.85 637.98 323.36 630.26 325.37 630.83 326.9 631.62 328.29 632.72 329.32 634 330.04 635.36 330.47 636.71 330.77 638.12 331.15 639.45 331.87 640.73 333 641.83 344.38 648.78 345.51 650.06 346.15 651.41 348.75 660.96 349.41 662.17 352.04 664.51 360 673.49 370.83 682.28 381.82 693.6 391.47 706 391.51 706.06 Z" id="GAB-2623" data-name="Nyanga"/>
<path d="M 45.75 424.25 43.77 425.15 41.89 425.02 39.74 423.56 38.53 421.75 38.52 420.03 38.9 418.19 38.9 416.04 38.27 414.86 36.38 412.87 35.91 411.34 35.91 409.82 36.22 408.77 37.79 406.66 39.34 405.19 42.33 403.37 43.5 401.88 44.24 403.24 44.29 404.37 43.67 405.19 42.48 405.64 42.48 406.66 47.46 407.73 48.57 412.46 48.07 418.27 48.19 422.62 45.75 424.25 Z M 121.26 399.83 130.26 428.53 135.9 436.1 138.8 437.44 140.59 438.54 141.89 439.54 142.42 439.84 143.88 441.28 144.62 442.79 145.77 443.75 147.07 444.22 148.44 444.3 152.18 443.98 152.96 444.03 154.12 444.26 159.3 444.56 161.99 444.39 163.35 444.71 165.08 445.58 169.84 449.5 170.95 451.26 171.5 452.9 171.4 454.24 170.4 456.66 170.33 457.63 170.5 458.37 172.76 463.75 173 465.16 172.95 466.57 172.72 468.03 171.76 470.83 168.18 477.55 167.88 478.84 168.03 480.09 169.27 481.61 177.71 489.38 178.97 490.15 180.08 490.64 180.87 490.91 187.27 491.93 189.51 492.99 188.76 498.5 186.82 502.48 177.16 511.73 176.35 513.3 175.88 514.8 175.82 517.44 176.09 520.15 177.59 527.25 177.71 529.16 177.52 531.6 176.69 535.92 175.5 538.72 174.38 540.52 173.12 541.14 171.84 541.34 170.54 541.39 169.14 541.71 167.82 542.57 166.47 544.25 166.15 545.71 166.06 547.06 165.27 548.27 164.1 549.25 162.82 550.6 163.01 551.76 164.97 553.83 166.88 556.44 167.67 557.83 169.31 562.12 170.08 563.49 174.67 569.06 175.9 570.28 177.2 571.24 178.46 571.8 179.68 571.93 184.24 572.03 187.04 572.47 193.91 574.7 198.31 577.08 202.63 578.25 205.77 580.42 207.22 581.15 208.76 582.55 210.19 583.25 212.92 583.25 222.61 585.6 224.1 585.66 225.53 585.39 226.87 584.7 228.09 583.72 229.37 582.98 230.67 583.02 236.46 586.17 239.29 588.55 242.06 589.51 243.51 590.45 243.95 591.82 243.73 593.21 242.02 597.69 241.81 599.16 241.81 600.72 242.23 602.67 243 604.17 244.2 605.49 246.7 607.29 247.19 607.85 247.49 608.53 250.02 617.97 250.88 619.98 254.59 625.43 255.1 626.02 255.66 626.49 256.28 626.83 258.32 629.16 263.85 637.98 244.2 647.72 239.51 651.78 238.06 655.17 236.34 657.41 235.45 659.07 235.15 660.57 235.53 661.88 237.44 664.96 237.74 665.97 237.61 666.95 236.71 667.6 235.24 667.98 233.51 668.59 231.04 670.15 229.63 671.6 228.64 673.09 228.15 674.53 227.02 680.33 226.42 681.97 225.15 684.03 223.84 684.56 221.12 684.56 180.38 696.43 180.24 696.47 175.1 697.86 166.95 691.68 142.57 661.56 139.59 656.29 142.1 658.18 146.02 662.36 148.99 663.88 152.17 664.24 154.05 663.06 155.77 660.84 158.38 658.17 158.03 660.1 157.38 661.65 157 663.12 157.44 664.82 158.17 664.58 158.71 664.2 159.12 663.64 159.4 662.94 159.35 665.45 159.78 668.02 160.94 669.46 163.08 668.58 167.99 670.31 168.79 670.93 169.07 670.99 171.1 674.13 171.61 677.11 172.55 677.11 172.8 675.77 173.3 675.15 174.1 675.28 175.37 676.09 175.53 675.59 175.53 675.35 175.67 675.25 176.31 675.15 176.74 680.19 177.25 681.81 178.19 680.76 179.27 680.12 180.54 679.84 181.93 679.93 181.48 681.87 182.01 682.33 183.22 681.79 184.75 680.79 185.81 679.68 186.85 677.16 187.65 676.09 189.63 675.37 192.65 674.92 195.51 674.83 197.04 675.15 200.64 674.78 201.9 674.15 202.68 672.41 200.06 670.84 199 670.46 199.27 667.89 196.58 666.53 193.24 665.25 191.41 662.94 190.47 662.94 191.41 665.38 193.29 672.41 191.35 672.12 190.27 671.11 189.61 670.02 189.01 669.52 187.91 668.94 186.37 666.36 185.27 665.76 184.23 665.62 182.54 664.98 181.51 664.82 181.01 665.18 181.06 665.99 181.22 666.89 181.08 667.57 180.14 668.61 179.26 669.92 178.58 671.26 178.19 672.41 176.25 671.58 174.5 670.46 175.04 669.05 174.22 666.21 174.5 664.82 175.77 664.18 177.38 664.22 178.73 664.11 179.2 662.94 177.58 661.6 174.06 660.44 170.26 659.79 167.85 660.05 164.75 653.7 164.52 652.63 163.11 651.65 162.44 651.65 162.14 653.05 161.64 653.14 159.64 654.2 159.4 654.42 155.89 653.7 152.62 656.16 149.48 659.17 146.26 660.05 144.94 659.31 143.69 658.04 142.79 656.49 142.41 654.84 142.75 654.41 144.35 652.94 144.82 652.63 145.59 652.2 144.51 651.35 142.99 650.65 142.41 650.66 142.19 649.52 142.4 648.42 142.41 647.49 141.56 646.9 140.4 646.72 139.5 646.81 138.9 647.28 138.65 648.23 140.39 651.49 140.85 653.52 139.59 655.28 137.42 654.34 131.67 647.46 129.27 645.88 130.55 647.86 133.59 651.53 134.82 653.48 131.76 651.42 128.09 647.86 124.95 643.8 123.54 640.25 123.54 639.49 122.49 636.35 121.69 623.86 120.66 621.84 107.02 608.41 103.33 606.33 99.16 601.38 97.2 599.81 97.58 599.27 98.14 597.91 95.17 597.1 93.46 594.71 91.56 589.47 85.8 583.81 84.89 582.38 84.27 582.16 82.97 580.99 81.8 579.68 81.63 579.06 80.16 578.4 80.48 577.07 81.49 576.18 82.1 576.71 83.11 579.22 85.63 581.17 88.75 582.16 91.56 581.86 91.24 582.42 91.07 582.53 90.9 582.58 90.53 582.9 92.32 583.64 93.31 582.9 94.36 580 95.21 580 96.24 582.9 95.43 583.18 94.83 583.56 94.49 584.18 94.36 585.15 94.83 585.99 95.77 585.39 96.47 584.32 96.24 583.76 103.29 583.76 107.12 584.7 109.04 587 108.69 589.81 105.64 592.29 107.28 594.1 108.17 594.82 108.96 595.11 111.95 595.38 112.72 595.58 113.07 596.4 113.06 598.78 113.25 599.81 116.05 601.67 116.14 602.32 116.82 603.99 117.56 605.11 117.93 604.06 118.36 603.37 120.3 602.64 120.75 602.18 120.38 599.72 119.47 596.97 118.28 595.05 116.99 595.11 115.49 593.36 112.12 591.04 111.35 589.47 112.96 587.05 114.27 586.16 114.05 585.25 109.58 577.54 107.03 574.92 105.64 576.24 103.52 575.01 102.82 574.36 102.33 575.65 102.32 576.96 102.82 580 100.25 577.9 96.75 571.49 94.36 570.51 93.35 571.42 92.7 573.03 92.3 574.59 91.98 575.3 90.67 575.73 89.91 576.85 89.62 578.34 89.68 580 88.69 579 87.62 578.34 86.4 578.03 84.89 578.03 86.48 575.3 86.17 573.76 83.04 571.45 80.01 573.42 77.98 572.71 76.81 570 76.46 565.91 76.57 564.3 77.15 561.9 77.28 560.74 77.28 555.07 77.04 553.57 75.83 550.51 75.43 548.93 75.58 544.66 75.43 543.29 73.12 537.58 69.99 533.25 62.37 525.37 45.15 501.29 43.84 498.91 42.44 495.49 41.25 492.47 40.6 489.61 42.44 493.28 43.84 497.37 45.53 499.77 48.19 502.75 50.32 502.53 52.46 503.47 54.18 505.1 55.59 509.44 58.81 512.79 59.55 515.48 60.41 516.83 64.75 522.22 66.6 523.41 67.44 524.32 74.05 529.65 75.2 530.26 79.25 531.47 80.56 548.56 81.4 550.68 83.04 549.95 83.44 548.54 82.18 546.66 82.57 545.64 83.77 545.11 84.8 545.65 85.54 546.78 85.83 547.99 87.89 545.64 91.11 543.77 94.8 542.63 98.14 542.35 97.35 544.5 97.18 546.81 97.95 548.8 100 549.95 100.97 545.3 100.91 543.03 100 541.41 104.3 540.81 115.68 542.35 119.81 541.41 114.13 539.23 111.95 537.59 110.32 534.84 109.04 529.71 108.88 526.72 109.47 524.43 108.35 524.09 105.64 522.55 105.04 522.47 103.29 522.55 102.3 522.91 102.24 523.78 102.82 525.83 102.62 527.24 102.15 527.95 101.57 528.42 98.14 533 94.99 535.26 91.25 536.37 86.77 536.72 85.86 536.91 84.98 537.19 84.09 537.26 83.04 536.72 82.27 535.7 82.11 533.49 81.13 531.47 81.02 530.21 81.13 527.71 80.56 527.03 79.3 526.7 77.98 526.54 77.28 526.3 77.04 524.14 78.15 522.69 80.16 521.87 82.57 521.61 83.72 520.8 83.95 518.93 83.39 516.98 82.1 515.89 82.1 515.03 83.33 514.7 86.62 514.38 87.71 514.01 88.81 512.67 89.42 510.06 91.61 506.06 91.16 503.69 88.65 498.91 89.39 498.07 89.53 497.43 88.99 496.83 87.71 496.09 87.65 498.83 88.65 506.01 88.27 507.49 87.27 508.86 85.9 509.86 84.42 510.27 83.18 509.84 82.04 507.94 81.13 507.45 78.89 508.21 77.51 510.15 76.41 512.17 74.99 513.09 68.4 514.32 66.12 514.01 64.58 512.2 64.15 509.31 64.38 506.64 64.75 505.49 64.44 505.3 63.5 504.42 63 503.55 62.36 503.8 61.56 504.33 60.22 504.89 59.95 505.43 59.35 505.79 57.59 505.49 55.59 504.35 50.75 500.72 48.66 499.93 46.99 498.99 45.78 496.7 45.45 493.91 46.4 491.4 45.95 490.91 45.72 490.53 45.38 489.61 48.05 487.66 47.41 484.46 45.03 481.22 42.48 479.2 44.21 483.34 43.4 487.06 42.93 488.3 42.06 488.16 41.61 486.69 40.6 478.26 38.27 472.22 24.63 454.69 28.2 458.07 30.17 459.04 32.23 458.37 30.27 457.51 31.09 455.67 32.23 454.09 33.33 453.06 34.02 452.84 32.41 452.12 28.38 454.85 26.01 454.25 25.1 452.04 24.23 448.65 23.19 446.3 21.82 447.2 20.81 447.2 19.63 442.3 18.92 440.62 16.83 437.07 13.21 428.87 10.27 423.84 8.44 416.6 4.21 411.14 1 401.02 2.87 398.13 3.89 399.14 2.67 401.79 4.17 402.97 8.6 403.84 7.99 405.08 7.86 405.92 8.08 406.6 8.6 407.52 11.55 407.43 13.62 410.78 14.78 415.48 15.4 421.24 16.19 423.25 17.52 424.86 19.43 425.51 20.5 426.45 20.8 428.48 21.47 430.39 23.7 431.06 22.5 428.71 22.63 426.41 23.29 423.98 23.7 421.24 24.44 419.29 26.28 419.13 28.7 419.67 31.11 419.8 31.11 418.86 29.77 418.24 28.36 417.13 27.42 415.69 27.45 414.07 28.46 413.18 29.79 413.29 33.1 414.86 34.47 416.79 35.5 419.14 35.91 421.24 36.95 423.97 41.92 428.6 43.5 431.06 43.57 433.84 42.62 438.67 43.5 440.62 44.44 440.62 45.03 438.04 45.38 429.7 46.13 427.1 49.41 423.51 50.15 421.24 50.01 419.36 49.81 418.57 50.01 418.07 51.02 416.98 51.83 416.47 54.1 415.69 54.85 415.18 55.22 413.76 54.95 412.31 55.12 411.1 56.73 410.4 58.61 414.07 58.33 410.87 56.73 408.68 55.59 406.39 56.73 402.82 64.86 395.54 67.34 390.6 79.63 377.06 83.04 371.74 85 366.05 84.95 357.71 84.98 357.74 86.84 359.54 89.89 371.04 91.13 373.75 98.24 383.28 100.26 385.29 102.03 386.4 104.63 386.62 105.94 386.92 110.54 389.11 114.96 392.15 121.26 399.83 Z" fill-rule="evenodd" id="GAB-2624" data-name="Ogooué-Maritime"/>
<path d="M 714.99 333.02 708.76 341.3 707.31 344.71 707.18 348.6 713.53 356.17 714.36 356.79 715.24 356.62 717.06 355.95 717.64 355.34 718.01 354.34 718.53 353.43 719.6 353.06 724.52 353.63 725.85 354.16 726.96 355.08 727.96 356.42 732.96 355.09 738.47 355.95 743.5 358.39 747.09 361.9 749.4 366.61 751.09 372.12 752.1 377.79 752.34 382.94 754.66 381.7 756.93 380.92 759.29 380.9 761.81 381.93 764.04 382.45 766.14 381.74 768.27 380.73 770.63 380.36 774.47 381.47 779.7 383.79 784.33 386.69 787.38 390.78 792.85 394.55 794.54 396.35 797.76 402.99 799 407.11 798.06 411.57 792.48 423.65 791.71 427.02 791.74 430.4 792.66 433.9 793.24 438.08 791.7 441.02 789.27 443.69 787.15 447.07 786.42 450.23 785.74 456.17 784.29 459.09 784.26 461.07 788.19 471.86 789.65 474.83 790.12 476.43 790 477.61 789.24 479.99 789.28 481.17 790.25 482.84 790.81 483.4 793.14 485.7 794.21 487.48 794.44 488.71 794.3 493 793.74 496.09 793.24 497.41 792.48 498.86 791.48 499.98 790.35 500.86 789.39 501.86 789.01 503.38 789.83 506.01 791.85 508.1 796.68 511.29 797.45 514.15 796.47 515.73 794.72 516.85 793.13 518.39 792.63 519.68 792.41 522.99 790.67 526.97 792.48 528.76 794.01 531.23 794.07 533.31 789.56 534.16 788.68 535.35 788.13 536.95 787.2 538.34 785.9 539.29 784.6 539.93 781.79 540.92 780.55 542.02 781.46 543.04 784.13 544.53 785.8 550.11 788.14 550.83 791.04 551.31 792.09 552.22 788.85 554.18 787.19 556.03 786.31 559 785.88 569.96 785.04 573.5 784.96 574.66 786.01 580.66 785.02 582.55 781.36 584.54 781.07 584.66 765.06 590.91 764.08 591.9 763.4 592.92 763.06 594.15 763.13 595.72 762.41 597.02 762.49 597.87 763.2 598.58 764.32 599.41 764.99 600.57 764.85 601.93 763.94 604.65 763.17 611.9 762.53 613.86 761.6 614.8 759.22 615.63 758.48 616.29 758.33 617.64 759.18 620.1 759.15 621.11 757.32 623.11 752.6 624.83 750.74 626.28 751.18 630.98 761.6 639.79 762.62 644.17 762.02 643.79 755.46 645.32 754.09 645.95 752.84 646.79 750.21 649.02 749.09 650.2 748.46 651.59 748.52 655.2 747.55 656.39 746.23 657.43 745.07 658.65 744.21 661.1 743.59 662.89 742.76 663.93 741.51 664.11 740.15 663.54 738.03 662.32 736.65 662.21 735.79 662.36 729.46 664.34 728.41 664.32 727.53 663.51 727.12 661 725.85 660.07 724.52 660.07 723.2 660.67 720.82 662.11 717.94 662.7 714.57 662.53 711.43 661.5 709.18 659.52 709.34 658.84 709.44 653.54 710.46 652.33 713.32 650.89 715.27 646.74 716.9 645.74 717.48 644.84 715.61 642.28 714.19 641.27 712.74 640.58 711.67 639.57 711.22 635.74 710.29 634.39 707.78 631.84 706.08 629.31 702.96 622.93 701.71 617.24 700.51 614.34 698.85 611.74 696.96 609.92 695.51 608.88 695.07 608.71 694.76 609.45 691.89 613.73 690.44 616.47 690.07 617.99 689.86 620.71 689.35 622.14 688.24 623.68 677.78 633.81 676.86 635.23 676.46 638.15 675.85 639.37 674.47 640.31 671.19 641.36 669.55 642.18 668.19 643.4 666.19 645.92 665.02 647.07 660.56 650.15 659.19 651.48 658.44 652.8 658.06 654.08 657.43 655.19 655.98 656.01 655.27 655.78 654.12 654.09 653.24 653.86 651.31 654.46 650.6 654.45 647.61 653.96 644.97 654.62 642.52 654.33 618.55 645.44 617.2 645.14 615.61 645.35 612.98 646.89 611.47 647.2 608.6 646.5 599.73 642.48 596.32 641.87 594.55 642.4 592.06 644.88 590.47 646.47 588.62 646.57 588.22 645.75 588.93 644.47 590.47 643.18 591.11 642.21 591.66 641.06 592.04 639.85 592.14 638.67 592.43 637.28 593.2 636.16 594.35 634.93 594.01 633.39 593.35 633.24 592.51 633.27 591.53 632.22 591.16 631.11 590.47 627.4 589.17 625.82 586.6 621.62 585.41 620.45 582.07 622.16 580.11 622.23 579.51 619.78 579.41 618.36 578.88 617.4 577.08 615.63 576.75 614.73 576.99 613.86 577.58 612.82 577.83 612.17 578.37 611.26 578.46 610.46 575.87 609.79 575.57 609.08 575.72 608.26 575.72 607.62 575.96 607.56 575.42 604.42 574.81 603.6 572.66 601.49 571.86 600.49 570.63 597.57 567.6 587.6 566.01 584.24 563.69 582.65 557.88 580.77 557.27 580.33 557.53 579.35 559.43 574.34 560.37 570.57 562.34 566.32 562.31 565.03 561.82 562.36 562.12 560.97 572.3 539.97 574.69 536.9 575.43 535.72 575.9 534.39 577.04 532.92 577.93 531.34 578.51 529.73 578.83 525.75 579.23 524.46 580.45 522.57 581.68 521.19 583.03 520.27 584.21 519.23 585.17 517.69 585.91 515.36 587.38 514.09 591.39 511.95 592.49 511.82 593.19 511.83 594.25 512 595.45 511.95 596.77 511.54 598.13 510.7 599.46 509.52 600.66 508.19 602.62 505.62 603.73 504.49 605.03 503.72 607.46 502.78 608.27 501.8 610.58 497.76 611.98 496.51 613.45 495.63 614.78 495.14 615.85 493.5 616.4 490.78 616.47 485.09 616 479.92 614.67 474.73 614.61 473.85 615.79 472.84 625.83 477.73 628.22 479.74 629.29 479.39 630.12 478.63 652.42 451.49 669.53 426.18 669.75 423.9 668.83 420.64 634.56 353.3 633.24 352.15 631.89 351.53 630.53 351.24 629.24 350.73 628.13 349.81 627.43 348.06 627.11 346.52 626.88 343.58 625.6 338.02 624.85 336.87 624.02 335.96 623.51 334.96 624.38 333.39 627.71 328.61 631.23 321.78 631.57 314.76 657.39 315.81 662.73 315.5 664.79 315.7 692.28 321.66 695.03 322.78 698.01 324.55 704.78 329.44 714.93 333 714.99 333.02 Z" id="GAB-2627" data-name="Haut-Ogooué"/>
<path d="M 631.57 314.76 631.23 321.78 627.71 328.61 624.38 333.39 623.51 334.96 624.02 335.96 624.85 336.87 625.6 338.02 626.88 343.58 627.11 346.52 627.43 348.06 628.13 349.81 629.24 350.73 630.53 351.24 631.89 351.53 633.24 352.15 634.56 353.3 668.83 420.64 669.75 423.9 669.53 426.18 652.42 451.49 630.12 478.63 629.29 479.39 628.22 479.74 625.83 477.73 615.79 472.84 614.61 473.85 614.67 474.73 616 479.92 616.47 485.09 616.4 490.78 615.85 493.5 614.78 495.14 613.45 495.63 611.98 496.51 610.58 497.76 608.27 501.8 607.46 502.78 605.03 503.72 603.73 504.49 602.62 505.62 600.66 508.19 599.46 509.52 598.13 510.7 596.77 511.54 595.45 511.95 594.25 512 593.19 511.83 592.49 511.82 591.39 511.95 587.38 514.09 585.91 515.36 585.17 517.69 584.21 519.23 583.03 520.27 581.68 521.19 580.45 522.57 579.23 524.46 578.83 525.75 578.51 529.73 577.93 531.34 577.04 532.92 575.9 534.39 575.43 535.72 574.69 536.9 572.3 539.97 562.12 560.97 561.82 562.36 562.31 565.03 562.34 566.32 560.37 570.57 559.43 574.34 557.53 579.35 557.27 580.33 548.19 573.75 542.33 571.32 535.57 571.51 534.09 572.05 527.35 576.57 526.52 577.35 525.83 578.24 524.99 579.99 524.75 581.19 524.65 582.68 524.06 584.07 522.28 585.04 519.86 584.28 517.25 581.52 517.78 578.59 517.08 576.52 516.12 576.11 514.86 575.76 513.47 575.7 503.78 576.57 502.44 576.48 485.5 570.66 484.14 569.91 475.62 562.76 473.83 560.78 464.67 548.37 463.44 547.42 462.09 546.92 460.67 546.1 459.27 544.93 457.97 541.84 457.59 540.21 457.55 538.91 457.78 538.17 458.12 537.56 458.55 537.04 459.55 536.11 460.35 535.08 461.05 533.89 461.18 533.59 461.52 532.43 461.8 529.12 461.35 524.03 459.38 517.55 459.08 515.97 459.08 513.34 458.97 512.53 458.14 511.08 453.26 505.06 450.44 502.25 449.25 501.52 444 499.18 442.84 498.43 437.86 493.65 431.18 488.9 428.98 486.54 424.09 479.77 423.33 478.34 422.07 474.14 421.71 471.2 421.79 468.97 422.05 467.77 422 467.11 421.62 466.7 420.27 466.48 418.93 466.83 417.52 467.39 408.03 473.33 403.97 474.29 401.22 475.5 399.85 475.92 398.43 475.84 395.71 475.14 394.37 474.61 393.41 473.37 393.05 470.95 393.56 468.37 393.79 466.08 393.52 463.33 393.15 461.52 392.3 458.82 391.9 458.08 391.56 457.62 388.9 454.78 388.12 453.5 387.58 452.16 387.26 450.67 386.94 447.3 386.41 444.96 386.33 443.62 387.22 435.73 387.86 434.09 388.95 432.29 392.62 428.04 395.22 423.96 496.68 386.64 518.29 375.68 539.1 282.77 539.82 282.32 540.76 283.03 541.76 284.21 542.98 285.29 544.26 286.06 545.59 286.3 546.93 286.01 555.89 281.66 557.72 281.96 559.13 282.72 560.28 283.88 561.42 284.82 562.48 286.06 563.19 287.29 564.42 288.29 566.02 288.8 568.57 288.57 571.96 289.1 576.16 290.34 577.74 290.55 579.72 290.23 581.3 289.36 585.27 285.76 586.36 286.1 588.58 287.79 591.18 289.36 592.36 289.89 593.15 290.17 594.25 290.38 595.49 290.38 599.59 289.75 600.74 290.25 602.64 292.19 604.9 293.76 605.52 294.91 605.75 297.62 608.36 305.95 608.96 307.19 609.89 308.25 615.12 310.8 616.51 311.72 618.07 312.36 619.73 312.65 623.36 312.5 624.85 313.07 626.19 313.87 627.67 314.53 628.82 314.78 631.57 314.76 Z" id="GAB-2628" data-name="Ogooué-Lolo"/>
</g>
</svg>