<?xml version="1.0"?>
<svg xmlns="http://www.w3.org/2000/svg" version="1.2" baseProfile="tiny" width="800" height="329" viewBox="0 0 800 329" stroke-linecap="round" stroke-linejoin="round">
<g id="ne_10m_admin_1_states_provinces">
<path d="M 545.04 24.2 595.61 56.85 756.77 109.5 752.32 142.85 768.16 156.88 786.77 177.72 799 187.3 769.27 205.22 755.65 227.31 752.04 255.65 752.32 293.44 743.57 327.76 720.92 327.34 690.64 312.75 659.24 304 554.21 302.61 496.14 285.66 416.81 232.73 387.22 219.39 356.38 210.64 332.76 210.64 305.11 230.09 278.86 261.49 251.35 304 222.45 297.61 179.66 267.05 144.1 257.32 134.37 262.6 64.63 282.05 29.62 282.75 54.07 209.39 31.01 132.56 1 66.16 4.06 24.2 44.21 14.75 92.55 24.2 157.15 47.54 203.42 45.32 238.84 37.82 271.77 23.65 309.42 1 336.37 18.64 410.84 30.87 449.46 47.54 472.66 31.15 494.19 26.15 545.04 24.2 Z" id="JEY+00?" data-name="Jersey"/>
</g>
</svg>