<?xml version="1.0"?>
<svg xmlns="http://www.w3.org/2000/svg" version="1.2" baseProfile="tiny" width="800" height="674" viewBox="0 0 800 674" stroke-linecap="round" stroke-linejoin="round">
<g id="ne_10m_admin_1_states_provinces">
<path d="M 282.39 292.56 282.61 340.34 274.67 339.46 270.86 340.04 266 342.05 255.71 344.47 245.08 345.25 243.34 345.6 241.57 346.32 239.4 347.63 234.86 352.55 232.23 356.9 230.46 359.11 228.85 360.48 224.4 362.2 221.76 363.72 219.61 365.6 218.48 367.17 216.78 371.91 214.51 376.28 214.1 378.41 214.32 381.19 215.12 384.6 218.87 392.65 219.44 396.97 218.02 400.27 217.28 398.47 216.06 397.02 214.22 396.29 211.4 396.12 204.62 397.26 202.47 396.87 189.54 391.7 188.56 390.93 187.88 389.75 187.79 388.71 187.54 387.78 186.37 386.92 185.03 386.7 184.51 386.13 184.25 385.33 183.79 384.47 183.72 384.1 183.76 382.84 183.7 382.36 183.28 381.95 182.12 381.82 181.6 381.4 179.33 377.04 177.89 374.99 175.82 373.22 170.96 384.62 163.21 402.68 155.54 420.6 148.07 438.06 141.23 454.05 136.93 464.08 135.59 465.41 133.45 464.06 132.21 462.63 131.65 460.65 131.52 457.61 131.16 456.47 130.24 455.57 129.02 454.98 127.79 454.76 126.26 454.21 125.55 452.87 124.94 449.89 124.07 447.65 123.55 446.94 118.74 443.01 117.02 442.04 116.68 440.77 116.75 438.06 116.57 436.28 116.12 435.32 114.3 433.55 109.79 427.2 107.54 425.91 104.63 423.5 103 423.73 100.4 424.61 91.58 424.43 87.47 425.34 84.06 427.86 82.25 430.43 81.29 432.78 80.89 435.2 80.81 438.06 80.48 440.55 79.58 442.52 78.3 444 76.81 445.01 75.89 445.18 73.72 444.93 72.75 445.01 71.02 446.41 70.31 446.63 69.1 446.52 68.06 446.2 67.13 445.69 66.18 445.01 64.02 442.13 63.32 441.68 59.37 441.17 51.6 438.94 47.78 438.43 39.64 438.43 38.48 438.7 36.55 439.86 35.54 440.13 30.17 440.13 27.79 440.51 24.1 442.19 22.46 442.57 19.92 442.63 17.91 443.09 16.41 444.3 15.54 446.63 13.24 446.59 10.6 424.7 8.8 409.94 6.99 394.99 5.59 383.44 4.79 376.85 2.37 356.9 1 345.6 1.17 342.98 2.13 340.91 10.9 332.63 13.06 329.35 19.09 312.02 21.42 308.34 25.32 305.8 23.69 300.61 23.99 295.57 30.46 272.75 31.92 270.12 37.81 264.22 41.01 259.13 46.72 243.43 52.1 228.62 56.06 217.76 57.99 214.65 62.98 209.66 64.2 206.63 63.88 204.1 61.71 199.27 61.09 196.77 61.27 194.22 61.69 192.09 61.75 189.98 60.99 187.92 64.29 188.46 66.65 191.78 67.62 194.35 68.38 197.47 69.18 204.09 69.95 207.05 70.73 208.9 71.58 210.1 72.46 210.93 73.51 211.72 74.52 212.73 75.5 214.08 77.16 217.78 77.97 218.94 79.61 219.9 82.33 220.89 93.49 223.45 99.59 225.46 106.98 229.79 111.53 234.22 115.14 239.59 117.37 244.63 119.35 247.44 121.7 249.12 125.82 250.33 129.42 251.82 131.64 253.21 132.54 254.42 132.73 255.5 132.66 256.65 133.49 257.5 135.28 258.1 143.95 258.05 152.36 256.99 155.69 257.03 159.01 257.83 163.23 259.86 166.59 262.18 169.08 263.45 171.78 263.98 175.94 264.09 179.1 264.5 182.98 265.65 189.84 268.61 201.46 276.19 203.62 276.9 206.63 276.66 209.19 275.75 215.8 272.6 218.7 271.67 221.92 271.76 225.87 272.9 231.49 276.46 235.47 280.24 238.64 284.42 241.92 290.61 244.43 292.38 248.39 293.36 270.19 293.98 282.39 292.56 Z" id="ERI-1560" data-name="Gash Barka"/>
<path d="M 346.7 337.91 345.41 339.44 344.45 340.04 342.95 340.56 341.72 340.32 282.61 340.34 282.39 292.56 283.8 291.5 284.77 291.39 286.38 291.66 287.3 292.14 288.68 293.21 289.6 293.28 290.95 293.03 295.4 291.51 302.92 290.31 304.99 295.56 307.9 300.97 318.74 317.16 325.71 324.57 331.42 329.47 341.74 334.78 346.7 337.91 Z" id="ERI-1561" data-name="Anseba"/>
<path d="M 430.07 253.75 434.41 255.4 437.05 257.13 437.85 257.66 438.98 259.35 439.53 260.18 439.52 260.19 438.93 261.91 437.69 263.22 437.44 264.53 438.34 265.43 439.47 265.47 440.59 265.05 441.57 264.53 441.37 264.1 440.79 263.29 440.69 262.52 441.95 262.17 441.95 262.18 443.2 262.86 443.47 264.39 443.49 264.52 442.79 274.18 443.13 276 443.77 277.4 443.91 277.71 446.02 281.17 446.46 282.13 447.62 282.22 454.59 284.2 456.41 280.86 457.1 280.14 458.1 279.88 456.49 279.3 454.08 278.6 453.05 277.25 453.04 277.25 453.93 275.93 456.06 275.26 458.74 275.09 461.17 275.26 462.51 275.5 463.58 275.84 464.04 276.07 464.48 276.29 465.24 276.89 465.71 277.79 465.88 278.86 466.24 279.76 467.27 280.14 468.95 280.51 471.43 282.13 472.97 282.5 474.72 282.56 475.33 282.88 476.28 287.62 475.54 289.8 473.86 290.71 473.82 290.69 471.36 289.49 470.52 289.31 469.42 289.06 463.64 290.45 461.17 290.63 458.62 289.8 454.47 287.84 451.75 287.45 445.85 288.66 444.66 288.46 444.02 288.34 443.54 287.91 442.83 287.03 442.36 286.43 442.08 286.19 441.58 285.76 441.57 285.75 440.5 287.71 439.12 288.72 437.1 288.89 434.19 288.34 429.37 286.51 428.75 286.39 427.12 286.07 424.45 286.64 424.43 286.64 423.42 285.31 422.64 284.29 419.48 275.26 420.84 275.29 421.67 275.54 421.79 275.99 421.81 276.06 421.1 276.89 422.06 277.42 422.79 278.14 423.05 278.63 423.25 279.03 423.54 280.14 423.55 280.14 424.43 280.14 425.55 279.71 427.12 280.32 428.78 281.23 430.12 281.77 430.13 281.76 431.63 281.69 436.63 280.14 434.45 276.36 431.54 273.25 427.99 271.15 423.98 270.38 420.06 271.17 418.66 270.79 417.85 268.68 418.01 266.33 419.06 265 420.61 264.8 423.44 266.59 424.17 267.05 425.75 267.18 426.22 266.23 424.79 264.16 424.14 262.17 424 261.77 424 261.76 426.35 260.66 429.48 260.37 430.78 260.46 430.93 260.47 431.41 259.02 431.41 259.02 430.61 257.13 429.25 255.48 428.06 254.79 428.05 254.78 423.89 255.05 422.56 254.41 421.11 252.42 421.1 252.41 425.45 252.75 430.07 253.75 Z M 440.58 241.45 438.46 242.04 434.97 240.91 432.06 239.37 426.95 238.85 425.75 237.66 425.78 235.7 426.73 233.87 428.84 233.09 431.51 232.88 432.57 232.22 432.16 231.22 431.92 230.06 431.87 228.81 432.09 227.5 432.96 227 435.96 229.29 436.83 229.78 438.02 230.04 440.17 230.97 441.1 232.39 440.28 233.48 438.31 234.14 436.54 235.71 436.16 237.51 436.91 238.19 437.94 238.73 438.78 239.53 440 240.36 440.58 241.45 Z M 190.46 56.44 190.58 56.37 193.37 55.39 196.1 55.4 197.22 56.59 197.35 58.57 197.17 60.95 197.85 63.52 199.64 63.51 201.61 61.86 202.85 59.58 202.89 58.34 202.58 57.52 202.43 56.76 202.97 55.69 203.67 55.58 207.87 54.3 209.8 55.46 211.61 57.23 213.72 58.47 216.54 58.06 218.54 56.14 218.85 53.79 218.7 51.26 219.31 48.91 221.36 47.1 227.27 44.35 229.68 42.55 232.97 37.45 240.15 19.2 243.45 14.59 260.39 1 260.64 2.25 261.76 3.54 262.63 7.22 267.7 14.08 268.1 15.28 268.24 17.72 268.51 18.96 270.67 21.89 271.03 22.58 271.62 24.61 282.8 41.01 291.13 59.55 299.39 73.38 302.28 83.49 303.64 85.86 302.21 90.49 304.42 94.08 307.67 97.34 309.33 100.98 309.94 105.59 310.96 109.59 314.5 116.61 315.03 118.91 315.43 123.74 316.05 126.16 317.91 129.62 318.57 134.46 319.16 136.43 323.08 145.11 325.67 154.39 324.04 153.57 326.42 158.89 327.07 161.51 327.3 164.96 325.1 167.2 327.02 172.63 326.48 175.68 325.67 174.87 325.82 176.72 326.98 177.23 328.29 177.27 328.93 177.67 328.75 181.82 328.93 182.92 329.36 184.01 329.89 184.93 330.35 185.97 330.55 187.44 330.38 192.15 330.55 193.64 330.96 194.74 332.04 196.64 332.24 198.11 332.07 199.57 331.34 202.52 331.36 204.22 335 219.76 335.5 225.03 335.91 226.83 338.69 232.75 342.87 248.26 345.18 252.41 352.3 256.63 353.4 258.48 354.34 259.27 358.7 261.17 359.89 262.17 359.95 263.71 359.37 265.01 358.63 266.2 358.27 267.46 358.64 268.86 360.33 270.63 360.71 271.56 360.88 274.73 361.54 276.64 364.76 280.14 362.71 280.32 361.29 281.48 360.8 283.22 361.52 285.08 362.03 284.07 363.11 282.85 364.41 282.34 365.59 283.38 365.34 285.64 363.03 286.71 360.36 287.04 359.08 287.05 359.35 288.17 361.52 291.52 362.07 295.53 362.34 296.4 364.02 297.01 366.79 297.24 369.4 296.93 370.54 295.99 371.44 294.59 373.56 294.29 375.97 294.75 377.78 295.59 380.66 299.33 386.88 318.84 387.37 319.27 389.61 320.09 390.12 320.5 390.39 322.59 391.09 324.57 392.13 326.26 393.39 327.45 391.62 333.94 391.01 344.16 391.27 344.64 392.38 345.42 392.65 345.86 393.07 347.67 394.21 348.61 395.76 348.68 397.44 347.85 398.63 350.07 399.99 350.42 401.86 349.87 404.47 349.48 405.29 348.88 405.95 347.48 406.24 345.99 406.07 345 405.47 343.89 405.92 343.12 407.37 342.16 409.64 338.21 409.89 335.9 407.5 331.87 406.21 327.09 405.24 325.38 403.66 325.36 402.7 327.19 401.9 328.21 400.85 325.75 400.56 323.43 400.85 317.28 400.7 315.95 400.1 313.69 399.96 312.36 400.23 310.91 400.89 310.44 401.69 310.2 402.39 309.48 403.18 305.41 403.98 304.22 405.66 305.41 406.48 305.41 406.59 304.46 407.37 302.17 408.09 302.17 408.13 302.55 408.09 303.72 409.4 302.71 410.98 300.16 412.09 298.84 413.84 301.92 416.23 304.4 427.56 313.5 429.3 314.36 432.04 314.94 432.99 315.27 434.19 315.99 435.57 317.1 436.46 318.3 436.85 319.55 436.63 320.86 435.77 322.28 433.63 323.93 432.57 325.01 431.92 326.14 430.12 330.62 431.44 330.51 432.45 330.79 433.14 331.54 433.37 332.77 433.08 333.12 431.86 333.57 431.68 333.95 431.89 334.46 432.45 334.94 432.57 335.24 433.2 336.23 435.99 338.25 436.63 339.28 436.97 340.8 438.52 343.88 439.07 345.42 439 346.74 438.67 348.3 438.56 349.84 439.07 351.18 440.55 350.65 442.18 350.99 443.49 351.89 444.02 353.1 444.25 354.09 444.77 354.31 445.32 354.43 445.65 355.17 445.59 356.25 444.92 358.03 444.76 358.87 445.93 360.99 448.7 362.35 457.51 365.4 459.42 366.31 460.29 367 461.1 369.18 462.89 368.77 465.6 366.55 468.29 365.54 470.17 363.15 471.7 360.46 473.37 358.49 473.22 360.38 473.64 362.02 474.75 362.91 476.7 362.56 477.33 361.51 477.06 360.16 477.29 358.99 479.43 358.49 480.71 358.42 481.07 358.35 482.31 359.23 482.12 359.64 481.86 360.48 482.11 361.3 483.56 361.67 484.42 362.02 484.78 362.73 485.25 363.34 486.38 363.38 487.17 363.01 487.86 362.39 488.45 361.66 488.9 360.93 488.3 359.97 488.04 359.02 488.01 356.79 488.68 357.39 489.25 358.67 489.71 359.23 492.95 360.05 493.24 361.06 493.15 362.1 493.16 363.15 493.77 364.19 494.68 364.77 495.11 364.69 495.11 364.69 494.98 365.48 495.22 369.21 497.57 380.67 497.86 385.56 497.35 389.99 495.52 394.42 484.91 409.13 478.92 421.93 470.34 435.83 469.07 438.05 469.07 438.05 459.94 429.79 455.25 427.07 450.1 425.02 439.4 422.48 437.29 422.5 431.41 424.2 429.71 424.24 426.93 423.76 424.54 423.34 422.36 423.88 418.69 426.91 416.37 427.55 414.12 427.17 412.31 426.33 406.04 421.03 402.75 419.01 399.18 417.86 395.39 417.98 393.95 418.22 393.93 418.19 387.37 407.16 352.95 349.46 350.48 343.88 346.7 337.91 341.74 334.78 331.42 329.47 325.71 324.57 318.74 317.16 307.9 300.97 304.99 295.56 302.92 290.31 298.87 275.74 288.38 258.69 286.62 256.49 285.09 255.42 269.01 253.46 263.37 251.84 257.81 249.59 251.99 245.77 249.4 242.51 248.11 238.58 247.83 228.9 248.2 225.96 249 223.82 250.05 221.95 250.64 220.26 250.97 217.91 250.88 215.19 250.14 211.67 248.68 207.63 245.26 201.65 242.21 198.17 239.42 195.82 236.74 192.91 235.54 189.89 233.78 183.48 232.31 180.88 229.94 177.54 228.89 175.16 228.13 172.7 227.41 170.96 226.1 169.91 198.97 165.22 196.01 163.8 193.31 161.01 192.59 158.31 192.96 154.75 194.7 147.03 194.57 143.21 193.93 140.76 192.39 138.67 190.52 136.7 187.92 133.41 187.07 130.98 187.29 128.14 188.14 125.68 189.49 119.8 191.52 70.96 190.65 57.64 190.46 56.44 Z" fill-rule="evenodd" id="ERI-1562" data-name="Debub"/>
<path d="M 302.92 290.31 295.4 291.51 290.95 293.03 289.6 293.28 288.68 293.21 287.3 292.14 286.38 291.66 284.77 291.39 283.8 291.5 282.39 292.56 270.19 293.98 248.39 293.36 244.43 292.38 241.92 290.61 238.64 284.42 235.47 280.24 231.49 276.46 225.87 272.9 221.92 271.76 218.7 271.67 215.8 272.6 209.19 275.75 206.63 276.66 203.62 276.9 201.46 276.19 189.84 268.61 182.98 265.65 179.1 264.5 175.94 264.09 171.78 263.98 169.08 263.45 166.59 262.18 163.23 259.86 159.01 257.83 155.69 257.03 152.36 256.99 143.95 258.05 135.28 258.1 133.49 257.5 132.66 256.65 132.73 255.5 132.54 254.42 131.64 253.21 129.42 251.82 125.82 250.33 121.7 249.12 119.35 247.44 117.37 244.63 115.14 239.59 111.53 234.22 106.98 229.79 99.59 225.46 93.49 223.45 82.33 220.89 79.61 219.9 77.97 218.94 77.16 217.78 75.5 214.08 74.52 212.73 73.51 211.72 72.46 210.93 71.58 210.1 70.73 208.9 69.95 207.05 69.18 204.09 68.38 197.47 67.62 194.35 66.65 191.78 64.29 188.46 60.99 187.92 60.86 187.58 59.17 185.39 57.3 183.47 55.75 181.37 54.94 178.61 55.03 176.97 56.49 172.22 56.85 169.92 56.63 166.04 56.82 163.92 57.91 161.68 59.72 160.1 63.64 157.38 64.92 155.73 67.85 148.58 68.31 141.45 68.53 140.92 69.39 139.97 69.61 139.48 69.46 138.78 68.76 137.71 68.6 137.26 68.82 132.47 68.53 130.96 67.5 129.49 66.25 128.32 65.85 127.03 68.74 123.03 69.29 120.73 68.86 118.45 66.5 115.29 66.23 114.23 66.47 113.28 66.49 113.23 67.27 112.34 69.7 112.03 71.59 112.83 73.39 114.03 75.52 114.87 78.59 115.37 79.82 115.81 84.42 118.53 85.6 118.72 92.06 117.71 93.84 117.96 97.44 117.74 103.11 114.37 106.54 114.08 117.69 117.11 124.4 109.39 125.39 107.02 125.95 104.36 128.56 99.88 129.31 97.44 129.87 92.48 129.76 90.31 128.43 84.86 128.72 83.5 130 82.74 145.77 78.04 150.58 77.39 155.45 74.96 160.63 66 164.79 63.85 167.21 64.5 170.78 67.79 173.5 68.59 176.35 67.97 178.69 66.24 182.42 61.63 190.46 56.44 190.65 57.64 191.52 70.96 189.49 119.8 188.14 125.68 187.29 128.14 187.07 130.98 187.92 133.41 190.52 136.7 192.39 138.67 193.93 140.76 194.57 143.21 194.7 147.03 192.96 154.75 192.59 158.31 193.31 161.01 196.01 163.8 198.97 165.22 226.1 169.91 227.41 170.96 228.13 172.7 228.89 175.16 229.94 177.54 232.31 180.88 233.78 183.48 235.54 189.89 236.74 192.91 239.42 195.82 242.21 198.17 245.26 201.65 248.68 207.63 250.14 211.67 250.88 215.19 250.97 217.91 250.64 220.26 250.05 221.95 249 223.82 248.2 225.96 247.83 228.9 248.11 238.58 249.4 242.51 251.99 245.77 257.81 249.59 263.37 251.84 269.01 253.46 285.09 255.42 286.62 256.49 288.38 258.69 298.87 275.74 302.92 290.31 Z" id="ERI-1563" data-name="Semenawi Keyih Bahri"/>
<path d="M 393.95 418.22 388.56 419.11 385.37 418.83 379.24 417.04 378.57 416.69 377.84 416.01 375.41 413.15 373.6 411.68 371.24 410.38 369.19 410.35 368.25 412.73 366.13 415.51 361.27 417.82 351.51 420.46 349.24 420.59 342.79 419.58 339.83 420.04 338.22 421.47 335.62 425.52 332.64 425.55 330.18 421.14 326.72 411.26 325.08 408.71 323.03 406.25 320.63 404.12 318.03 402.53 316.83 402.06 313.44 401.31 309.18 400.83 309.01 400.42 307.47 401.88 307.28 403.87 307.47 406.09 307.11 408.28 305.42 410.43 302.99 411.92 298.03 414.17 294.1 417.68 291.9 419.18 286.59 419.68 279.49 422.54 277.22 423.07 275.02 423.26 272.85 423.05 270.69 422.34 268.36 422.27 260.99 425.99 256.56 427.14 247.46 428.16 241.59 428.11 240.58 428.39 239.58 428.29 238.1 427.2 237.46 426.14 236.66 423.56 235.7 422.68 229.31 419.3 227.46 417.88 226.06 416.12 225.09 414.03 223.96 409.51 223.2 407.98 221.95 407.06 220.56 406.31 219.43 405.27 218.84 404.11 218.26 400.83 218.02 400.27 219.44 396.97 218.87 392.65 215.12 384.6 214.32 381.19 214.1 378.41 214.51 376.28 216.78 371.91 218.48 367.17 219.61 365.6 221.76 363.72 224.4 362.2 228.85 360.48 230.46 359.11 232.23 356.9 234.86 352.55 239.4 347.63 241.57 346.32 243.34 345.6 245.08 345.25 255.71 344.47 266 342.05 270.86 340.04 274.67 339.46 282.61 340.34 341.72 340.32 342.95 340.56 344.45 340.04 345.41 339.44 346.7 337.91 350.48 343.88 352.95 349.46 387.37 407.16 393.93 418.19 393.95 418.22 Z" id="ERI-1564" data-name="Maekel"/>
<path d="M 798.26 631.87 772.38 642.77 771.16 642.88 769.68 641.73 768.63 641.6 766.63 643.32 763.86 649.76 758.67 654.58 759.09 658.12 760.19 661.86 759.5 665.06 758.01 665.85 754.46 666.5 753.45 667.58 751.82 669.87 748.06 670.9 747.5 671.06 745.93 673.3 727.27 657.08 721.8 654.68 718.56 653.84 716.47 654.21 710.34 660.69 704.65 654.79 694.94 641.86 687.17 628.87 681.5 624.07 674.88 620.43 668.08 617.69 658.79 611.83 652.56 603.27 643.3 583.64 639.51 577.48 635.46 572.27 630.82 567.55 621.74 560.23 609.26 550.18 588.58 537.26 572.51 527.21 568.92 523.73 560.5 509.16 551.24 493.16 538.64 479.18 526.18 465.36 518.93 460.31 510.84 457.35 500.08 455.85 496.72 454.79 484.09 448.87 477.16 445.37 469.07 438.05 469.07 438.05 470.34 435.83 478.92 421.93 484.91 409.13 495.52 394.42 497.35 389.99 497.86 385.56 497.57 380.67 495.22 369.21 494.98 365.48 495.11 364.69 495.11 364.69 495.28 364.65 495.95 364.31 497.02 364.19 499.2 364.48 500.36 364.99 500.86 366.11 501.3 370.78 501.7 371.74 505.15 373.13 504.6 371.13 505.6 370.48 508.85 370.69 509.66 371.24 510.01 372.29 509.45 372.94 507.59 372.32 506.85 373.13 512.55 378.9 512.61 378.63 513.02 378.42 513.58 378.63 514.18 379.64 514.33 380.53 514.18 383.77 513.19 386.48 513.16 387.81 514.18 389.4 517.22 391.51 518.22 392.87 518.23 395.17 519.49 394.39 520.63 393.89 521.85 393.8 523.19 394.27 523.19 391.98 525.93 393.15 532.28 392.87 535.79 394.71 539.46 397.31 542.79 398.22 550.84 398.49 564.64 401.56 565.99 402.12 567.43 403.92 569.35 408.29 570.91 410.32 576.2 413.94 579.75 416.33 582.59 419.75 584.46 423.84 585.15 428.24 586.06 430.1 588.02 431.27 589.99 432.15 590.9 433.16 591.43 434.05 593.65 436.69 595.21 441.47 597.69 444.38 603.17 449.05 606.3 452.56 607.32 454.25 608.14 456.37 609.05 460.25 609.58 461.67 610.57 462.95 612.2 464.17 616.15 466.52 618.22 468.24 620 470.4 624.32 478.4 625.58 483.32 626.62 485.09 634.19 487.32 635.78 487.42 639.62 485.98 641.1 485.79 642.04 486.35 644.36 490.27 646.28 492.23 647.16 492.73 648.86 493.11 650.17 493.08 652.82 492.41 653.75 492.29 655.8 493.09 660 495.78 661.54 496.36 662.88 497.3 663.48 499.48 663.83 501.94 664.39 503.75 669.31 507.48 670.07 509.04 670.59 509.06 673.33 512.7 674.14 514.33 674.41 514.49 675.48 514.96 675.77 515.14 676.29 516.51 677.01 519.14 677.84 520.43 679.08 520.76 680.54 520.19 681.76 519.52 682.27 519.62 682.69 520.36 684.75 521.76 685.53 522.46 686.01 523.56 686.68 526.31 687.16 527.33 689.92 529.36 690.42 529.48 690.87 531.11 691.81 531.1 692.57 530.38 692.48 529.92 691.86 529.47 690.15 527.31 689.75 526.6 689.51 526.39 689.14 526.19 688.82 525.77 688.79 524.9 689.17 524.86 690.82 524.94 691.23 524.9 691.32 521.74 689.72 520.39 687.68 519.34 685.12 519.21 684.19 518.88 684.48 518.2 685.59 517.62 687.16 517.58 691.23 520.83 695.62 526.57 697.35 527.33 699.5 528.64 700.25 531.58 700.24 536.43 701.58 540.37 702.64 542.17 703.91 542.94 705.07 544.26 705.94 547.28 707.79 561.05 709.49 563.89 710.13 569.68 710.02 570.22 710.33 570.56 714 572.71 716.52 573.45 721.94 573.91 724.21 573.51 725.59 572.43 726.41 570.87 727.16 569.03 728.74 569.38 729.2 570.13 729.23 571.15 729.67 572.28 730.38 572.87 731.18 573.3 731.83 573.93 732.1 575.16 733.04 576.72 739.04 581.67 743.21 588.46 744.74 589.44 747.12 589.77 749.06 590.64 750.69 591.84 752.06 593.13 753 594.97 754.14 601.63 756.1 605.98 756.57 608.22 756.88 611.59 757.32 613.5 758.19 614.72 759.88 615.14 761.43 614.67 762.99 613.83 764.69 613.16 766.3 616.39 768.63 618.35 771.89 619.33 776.16 619.59 775.6 620.2 774.54 622.03 775.67 622.12 776.59 621.86 777.77 621.22 777.65 621.08 779.87 619.65 780.24 619.59 781.63 618.04 782.74 616.35 783.05 615.26 783 614.46 783.23 613.8 784.36 613.16 783.64 611.98 783.47 610.82 783.75 609.79 784.36 608.95 787.76 611.51 789.39 613.08 790.06 614.31 790.59 615.55 791.83 616.57 793.32 617.47 794.54 618.41 795.36 619.97 795.51 623.57 795.82 625.36 799 630.98 798.26 631.87 Z" id="ERI-1565" data-name="Debubawi Keyih Bahri"/>
</g>
</svg>