<?xml version="1.0"?>
<svg xmlns="http://www.w3.org/2000/svg" version="1.2" baseProfile="tiny" width="800" height="493" viewBox="0 0 800 493" stroke-linecap="round" stroke-linejoin="round">
<g id="ne_10m_admin_1_states_provinces">
<path d="M 207.12 357.75 193.88 347.82 185.61 326.31 183.95 313.07 180.64 293.22 215.39 278.32 248.49 261.78 279.93 256.81 306.4 248.54 334.53 248.54 319.64 266.74 294.82 284.94 283.24 296.53 270 314.73 251.8 337.89 225.32 349.48 207.12 357.75 Z" id="AND-4876" data-name="Andorra la Vella"/>
<path d="M 332.88 193.93 334.53 217.1 334.53 248.54 306.4 248.54 279.93 256.81 248.49 261.78 215.39 278.32 180.64 293.22 149.2 299.83 119.42 311.42 97.82 324.28 90.23 289.1 51.13 263.34 1 268.28 8.36 242.99 45.15 195.84 45.38 187.28 26.76 177.96 29.52 156.98 41.93 134.5 51.82 121.1 101.04 106.27 119.42 117.82 144.24 117.82 167.41 121.13 178.99 132.71 192.23 160.84 212.08 175.73 243.52 182.35 281.58 188.97 311.37 192.28 332.88 193.93 Z" id="AND-4877" data-name="La Massana"/>
<path d="M 425.76 62.06 428.85 96.3 428.85 116.16 405.68 122.78 375.9 129.4 352.73 145.95 337.84 167.46 332.88 193.93 311.37 192.28 281.58 188.97 243.52 182.35 212.08 175.73 192.23 160.84 178.99 132.71 167.41 121.13 144.24 117.82 119.42 117.82 101.04 106.27 135.3 18.59 205.67 21.3 270.99 2.84 305.02 1 425.76 62.06 Z" id="AND-4878" data-name="Ordino"/>
<path d="M 790.14 182.83 799 192.34 743.12 196.19 702.41 225.39 692.2 244.59 677.06 233.65 655.55 223.72 632.38 215.44 624.11 187.31 615.83 167.46 584.39 177.39 541.37 177.39 495.04 182.35 442.09 190.62 399.07 190.62 367.63 190.62 332.88 193.93 337.84 167.46 352.73 145.95 375.9 129.4 405.68 122.78 428.85 116.16 428.85 96.3 425.76 62.06 450.13 70.51 703.1 88.91 683.78 134.1 719.66 150.88 771.4 162.73 790.14 182.83 790.14 182.83 Z" id="AND-4879" data-name="Canillo"/>
<path d="M 692.2 244.59 677.81 271.62 669.76 327.16 648.6 345.67 623.76 354.24 596.86 354.47 570.41 347.34 564.66 340.44 558.45 338.6 551.3 311.42 523.17 293.22 496.69 283.29 450.36 279.98 415.61 284.94 385.83 273.36 379.21 253.5 362.66 246.88 334.53 248.54 334.53 217.1 332.88 193.93 367.63 190.62 399.07 190.62 442.09 190.62 495.04 182.35 541.37 177.39 584.39 177.39 615.83 167.46 624.11 187.31 632.38 215.44 655.55 223.72 677.06 233.65 692.2 244.59 Z" id="AND-4880" data-name="Encamp"/>
<path d="M 558.45 338.6 551.78 341.07 543.73 348.03 519.59 408.05 448.29 430.3 370.83 437.76 364.32 410.7 361.01 387.53 375.9 367.68 352.73 364.37 316.33 367.68 274.96 372.64 245.18 364.37 207.12 357.75 225.32 349.48 251.8 337.89 270 314.73 283.24 296.53 294.82 284.94 319.64 266.74 334.53 248.54 362.66 246.88 379.21 253.5 385.83 273.36 415.61 284.94 450.36 279.98 496.69 283.29 523.17 293.22 551.3 311.42 558.45 338.6 Z" id="AND-4881" data-name="Escaldes-Engordany"/>
<path d="M 207.12 357.75 245.18 364.37 274.96 372.64 316.33 367.68 352.73 364.37 375.9 367.68 361.01 387.53 364.32 410.7 370.83 437.76 308.01 443.81 295.59 454.27 285.93 467.04 271.91 479.69 246.15 490.21 227.98 492.05 93.22 478.77 67.69 464.74 67.69 436.85 3.53 362.8 41.25 350.1 53.89 347.68 97.82 324.28 119.42 311.42 149.2 299.83 180.64 293.22 183.95 313.07 185.61 326.31 193.88 347.82 207.12 357.75 Z" id="AND-4882" data-name="Sant Julià de Lòria"/>
</g>
</svg>