<?xml version="1.0"?>
<svg xmlns="http://www.w3.org/2000/svg" version="1.2" baseProfile="tiny" width="800" height="1199" viewBox="0 0 800 1199" stroke-linecap="round" stroke-linejoin="round">
<g id="ne_10m_admin_1_states_provinces">
<path d="M 674.65 499.96 673.15 503.34 672.64 505.92 672.45 509.4 671.81 513.2 670.14 515.79 662.24 523.72 660.92 525.46 660.36 527.24 661.01 528.75 662.45 528.75 664.79 527.79 666.43 528.19 667.45 528.14 667.97 528.6 668.22 539.94 668.52 541.21 669.33 542.1 670.76 542.51 672.16 542.32 673.23 541.63 673.66 540.55 672 538.58 671.16 537.01 671.45 535.45 672.81 534.66 674.66 534.57 676.29 535.06 676.98 536.06 677.11 536.38 678.22 539.14 683.63 545.7 684.84 548.96 684.05 551.22 682.07 553.1 679.51 554.57 676.98 555.62 676.1 552.39 674.72 550.7 672.66 550.07 669.78 549.97 667.95 550.92 666.88 553.17 665.8 557.83 663.38 563.31 662.88 565.15 662.68 567.3 663.41 569.12 669.33 574.45 667.7 575.4 666.37 575.26 665.1 574.72 663.68 574.45 661.38 574.78 659.98 575.32 658.77 575.99 657.03 576.67 652.94 577.76 640.1 579.08 637.36 579.91 635.27 580.1 634.19 579.56 631.7 577.21 630.83 576.67 626.66 576.89 622.93 577.54 615.81 580.1 609.43 577.32 603.33 577.68 597.89 580.35 593.53 584.53 591.09 589.16 589.2 590.63 585.23 591.18 583.2 590.78 581.63 590.01 580.07 589.56 578.03 590.08 576.8 591.23 573.5 596.73 571.31 599.43 568.34 602.6 565.74 606.33 564.62 611.79 565.84 614.03 568.55 615.4 571.25 617.19 573.42 623.87 577.78 629.43 579.13 632.3 578.9 635.38 577.6 638.2 574.7 642.38 572.13 650.65 569.38 655.24 566.39 662.46 565.19 667.84 563.65 669.97 561.79 672.03 560.19 674.53 559.54 677.5 560.05 680.05 560.94 682.53 561.39 685.21 561.04 689.3 560 692.51 558.19 695.26 544.05 709.7 541.8 713.15 541.51 716.51 543.56 723.51 545.68 737.31 547.28 743.05 551.22 747.99 561.9 756.41 564.54 759.5 572.77 771.55 576.23 778.94 576.92 782.06 577.36 789.42 578.32 792.85 580.14 795.86 582.84 797.58 590.78 800.87 596.97 804.83 597.56 806.01 598.37 808.85 599.67 811.25 599.81 811.83 600.02 812.39 600.75 813.2 601.54 813.53 603.28 813.77 603.63 814.25 604.26 814.56 607.64 816.52 610.3 819.53 610.06 822.4 607.59 827.19 607.62 828.25 607.97 830.25 607.88 831.35 607.06 834.28 606.96 835.62 607.29 837.32 608 839.25 608.54 840.08 609.34 840.76 610.72 841.33 615.3 842.27 618.03 843.79 618.07 843.81 623.11 846.62 624.88 847.12 626.37 846.89 627.96 843.7 630.05 844.12 632.12 845.34 633.05 846.05 634.36 846.11 635.64 846.34 636.6 846.83 636.98 847.66 637.54 848.39 638.76 847.7 639.91 846.6 640.31 846.05 644.9 844.87 646.03 843.44 645.85 840.5 650.98 842.72 655.32 844.06 659.66 843.32 664.79 839.3 668.83 847.6 669.33 849.88 668.95 855.51 668.72 856.53 667.38 858.56 667.74 859.91 668.75 861.24 669.33 863.18 669.12 865.11 668.25 868.45 668.11 870.44 668.48 872.23 670.23 875.98 669.78 877.94 668.73 879.23 668.42 880.3 670.23 881.62 671.86 881.89 673.47 881.36 674.89 880.43 675.98 879.41 676.29 879.9 676.32 880.04 676.43 880.12 676.98 880.42 674.51 885.17 675.98 888.14 678.79 890.71 680.31 894.32 680.48 895.57 681.25 897.63 681.42 898.85 680.89 899.51 678.62 899.4 678.1 899.97 678.38 901.93 678.85 903.35 678.95 904.62 678.1 906.12 676.77 908.23 678.85 909.42 684.24 909.99 685.02 912.4 683.25 914.68 680.72 916.7 679.21 918.31 681.36 926.71 682.03 928.38 683.33 929.07 683.85 930.6 684.57 932.12 686.51 932.81 688.03 932.47 691.29 930.95 693.21 930.6 694.34 931.67 691.54 937.51 692.61 940.58 693.15 940.21 698.71 939.37 700.27 940.13 699.91 941.89 698.79 943.95 698.15 945.56 699 947.68 703.19 952.11 704.81 955.09 705.78 961.48 707.07 962.44 710.44 960.54 711.54 962.61 711.11 964.52 710.33 966.64 710.44 969.41 711.23 970.87 715.34 975.65 715.63 976.83 714.77 982.3 715.82 983.81 718.11 983.02 721.43 980.59 722.78 982.09 722.56 983.86 721.76 985.66 721.43 987.23 721.95 989.47 722.72 990.89 725.41 993.38 726.19 994.96 725.9 996.65 724.86 998.98 726.1 1001.93 731.91 1006.99 733.72 1010.62 733.63 1016.47 734.33 1017.92 735.83 1018.67 739.58 1019.37 741.03 1020.14 743.09 1023.3 744.68 1030.45 745.92 1033.99 747.1 1038.84 762.73 1060.97 767.18 1062.79 783.1 1063.05 789.22 1066.24 790.12 1067.63 791.28 1068.74 792.64 1069.56 796.05 1070.66 797.48 1071.81 798.47 1073.38 799 1075.26 791.42 1078.12 786.48 1080.94 783.89 1081.13 781.42 1079.91 779.09 1078.03 776.53 1076.41 773.39 1076.03 770.65 1077.14 768.5 1078.79 766.18 1080.05 762.91 1079.94 759.65 1079.4 757.46 1079.91 750.48 1085.42 748.52 1086.32 746.29 1086.31 734.73 1084.35 732.61 1083.61 729.99 1081.49 728.92 1079.94 727.54 1079.08 724.04 1079.05 718.62 1079.65 715.96 1079.61 713.05 1079 708.78 1076.76 705.78 1074.21 703.86 1070.87 702.84 1066.24 697.9 1062.3 690.04 1065.42 676.15 1074.14 672.87 1073.54 667 1069.87 663 1069.49 659.42 1070.84 657.04 1073.04 654.99 1075.58 652.43 1077.93 649.02 1079.7 646.75 1080.53 645.13 1081.97 641.11 1092.76 639.4 1095.7 628.6 1109.37 623.75 1113.04 616.17 1114.96 611.19 1115.11 597.46 1112.6 591.66 1112.31 586.48 1113.69 573.37 1119.48 567.87 1122.84 565.13 1123.83 562.4 1123.7 557.51 1121.72 554.94 1121.36 553.96 1122.54 554.16 1125.11 555.11 1130.06 554.62 1132.87 553.54 1135.84 550.69 1141.09 548.08 1144.23 541.28 1145.5 533.6 1145.25 528.37 1143.87 527.25 1142.52 526.06 1138.98 524.8 1137.41 522.1 1135.99 520.39 1136.26 518.9 1137.23 516.84 1137.86 513.77 1137.76 510.2 1137.17 506.72 1136.16 503.92 1134.76 502.77 1133.52 501.17 1130.91 500.47 1130.53 498.61 1131.8 497.5 1133.94 496.61 1136.33 495.45 1138.31 494.01 1139.27 490.3 1140.92 489.14 1141.97 488.9 1143.58 489.84 1147.01 489.77 1148.56 485.37 1151.51 483.27 1151.87 471.5 1153.88 471.04 1154.47 471 1154.37 470.97 1154.3 472.38 1144.73 473.71 1141.03 479.42 1132.84 486.43 1125.73 488.26 1123.13 496.46 1103.88 503.22 1093.75 509.13 1082.49 534.97 1010.32 546.12 988.74 548.15 983.17 548.86 980.1 549.21 976.75 549.26 971.95 547.49 951.06 547.55 948.67 547.88 946.39 548.22 945.15 550.77 940.3 563.48 923.18 564.04 921.97 563.52 918.84 553.3 894.7 536.19 870.23 534.45 865.26 533.52 860.58 533.11 856.16 533.92 848.73 533.89 845.71 528.31 824.02 528.34 820.28 527.89 816.65 527.01 814.27 521.81 803.65 506.69 781.23 505.41 778.62 504.15 775.14 499.05 754.26 498.73 751.42 498.71 749.29 499.87 744.66 500.01 742.42 499.91 741.08 493.33 718.52 483.47 704.9 481.07 700.26 481.68 696.8 488.19 679.13 491.07 668.4 504.92 644.18 506.69 638.07 533.88 637.48 538.87 636.47 541.78 634.87 548.2 616.49 550.63 606.37 553.23 599.69 557.34 594.04 573.22 576.3 581.22 555.37 584.55 549.41 589.83 542.45 593.73 532.24 596.29 527.74 601.47 522.3 602.45 519.87 603.17 516.35 604.47 500.8 613.17 464.6 616.18 457.16 616.47 455.91 616.41 454.47 616.22 453.06 613.72 450.69 611.53 450.2 608.95 447.38 603.98 436.62 604.49 431.14 603.79 423.38 602.93 419.5 600.16 415.03 602.13 413.11 604.15 412.22 605.58 411.81 606.72 411.89 607.5 412.26 608.14 412.72 609.42 413.93 610.36 414.51 611.24 414.56 612.1 414.3 612.82 413.72 613.64 412.85 617.02 406.85 617.8 404.24 617.87 403.32 617.69 402.52 617.27 401.84 616.09 400.76 615.41 400.31 614.8 399.78 614.42 399.09 613.15 393.86 612.96 391.46 613.33 389.39 613.97 388.31 614.87 387.31 615.7 386.84 616.55 386.48 618.36 386.14 619.35 386.06 624.89 385.11 627.25 384.43 628.93 383.45 629.71 382.55 630.04 381.5 629.98 380.55 629.07 377.15 629.72 374.19 630.58 372.33 630.37 371.19 630.65 369.71 630.92 367.91 630.92 365.17 633 362.9 634.62 361.96 635.21 361.3 635.95 361.2 639.14 361.46 642.52 362.69 645.22 363.92 648.49 365.55 653.59 368.54 655.6 369.65 661.21 373.4 667.81 378.21 681.18 391.75 684.56 396.65 687.7 402.51 689.14 409.12 689.64 413.13 690.21 415.06 691.04 416.72 691.42 418.11 691.55 419.9 689.16 416.5 687.95 415.41 690.85 421.21 691.82 423.51 691.86 427.01 692.13 429.66 692.58 435.47 689.91 441.15 689.18 444.16 688.01 446.96 687.26 448.86 687.16 452.2 685.53 456.12 685.14 459.94 688.96 466.19 688.64 474.96 686.72 480.06 684.72 483.33 682.89 486.99 674.65 498.83 674.65 499.96 Z" id="GUY-671" data-name="Mahaica-Berbice"/>
<path d="M 415.35 511.31 413.03 512.34 411.85 515.65 410.39 518.32 409.83 519.9 409.64 521.69 409.68 523.2 409.54 524.48 408.82 525.64 416.4 537.11 418.25 538.95 419.27 541.49 419.08 553.18 415.15 576.61 415.47 583.29 419.42 593.62 423.54 616.71 425.75 619.47 433.15 617.3 435.51 619.82 437.84 626.72 441.75 632.12 444.81 633.75 451.81 635.99 453.53 636.86 454.66 637.68 456.98 639.04 460.32 640.19 467.92 641.4 492.37 641.19 504.3 638.44 506.69 638.07 504.92 644.18 491.07 668.4 488.19 679.13 481.68 696.8 481.07 700.26 468.61 695 466.07 694.36 464.75 694.22 463.44 694.22 460.88 694.54 459.51 694.92 455.43 696.74 452.08 698.85 449.75 700.75 447.25 703.6 444.01 709.12 443.11 710.27 421.39 729.57 418.35 733.41 413.89 738.03 411.35 740.02 410.26 740.64 409.53 740.95 407.76 741.13 402.33 741.08 400.06 740.41 398.91 739.59 397.47 738.36 386.39 724.09 385.46 722.32 384.87 720.65 384.01 716.54 382.47 712.77 381.95 712.11 381.16 711.36 379.89 710.96 379.01 710.8 377.95 710.86 376.88 711.09 375.72 711.45 368.44 715.07 367.29 715.48 366.1 715.76 365.01 715.77 361.53 715.24 359.28 715.13 349.68 716.69 327.68 715.96 325.34 715.4 322.95 714.52 317.59 711.95 316.31 711.1 315.1 710.05 313.91 708.55 313.37 707.05 313.34 705.5 314.17 703.41 315.05 701.98 317.03 699.61 317.7 698.25 317.75 696.75 316.53 689.86 316.31 682.92 316.93 679.77 317.79 677.5 318.75 676.38 319.46 675.26 319.46 673.26 318.79 670.57 316.52 665.11 315.73 662.47 314.43 659.72 310.91 658.42 307.48 659.37 306.16 659.95 304.95 660.64 303.64 661.58 302.31 662.76 300.6 664.79 299.61 666.2 294.35 676.86 293.61 677.92 292.59 679.03 291.35 679.9 289.75 680.63 286.48 681.02 280.51 680.42 278.58 680.74 278.64 679.17 278.03 678.63 276.17 678.44 274.29 677.84 272.86 676.48 271.63 674.89 270.32 673.58 260.85 668.28 258.69 665.43 257.38 666.88 255.99 667.24 252.51 666.33 251.75 666.24 249.98 666.26 249.27 666.05 248.61 665.03 249.07 662.97 248.41 662.36 246.31 662.35 243.15 663.89 241.65 664.04 240.78 663.25 238.44 660.16 236.98 659.24 235.39 658.92 233.51 658.82 231.91 659.27 231.2 660.62 230.28 661.69 228.27 661.37 224.41 660.06 221.25 660.53 218.75 661.24 217.02 660.79 216.16 657.84 215.29 656.63 213.52 655.73 211.77 655.65 210.91 656.95 210.53 658.8 209.59 659.52 208.14 659.49 206.2 659.08 203.62 657.76 201.8 655.36 201.01 652.37 201.55 649.29 205.88 644.68 207.28 644.45 210.54 644.39 212.01 643.87 213.54 642.42 214.09 640.89 214.27 639.24 214.68 637.41 215.5 635.47 220.14 628.74 221.53 626.1 222.51 623.27 222.89 620.2 222.17 613.15 224.45 605.92 224.86 596.19 225.99 591.4 227.19 588.46 227.74 585.46 227.89 579.2 230.78 569.37 230.52 564.74 225.99 562.45 218.83 558.38 215.48 555.83 213.37 553.46 214.73 552.39 217.91 548.92 225.56 543 227.82 540.9 229.17 539.26 229.9 537.04 232.83 530.83 234.34 525.94 236.25 522.23 237.71 520.21 239.3 518.82 241.05 517.93 251.67 514.6 252.79 514.4 253.92 514.33 261.03 514.77 266.17 513.89 268.69 513.84 283.47 516.8 286.02 516.89 295.35 515.99 297.07 512.91 295.88 499.45 294.63 493.43 294.65 491.62 295.15 490.12 296.03 489.01 300.66 484.76 307.56 480.08 308.5 479.64 309.2 479.49 310.19 479.46 322.31 483.17 324.78 483.58 327.17 483.69 328.29 483.64 329.8 483.34 331.54 482.7 334.32 481.17 335.73 479.91 336.62 478.62 338.79 474.73 341.85 470.86 343.67 468.93 345.29 467.51 351.19 464.25 352.48 463.8 354.08 463.56 355.34 463.71 356.56 464.25 357.74 465.24 358.84 466.35 362.3 470.93 365.39 473.97 366.15 475 368.5 479.63 369.35 480.8 370.39 481.92 372.56 483.87 373.35 484.89 373.65 486.05 373.3 492.22 373.43 493.36 374.11 494.45 375.37 495.33 377.58 495.84 379.12 495.74 380.5 495.31 386.44 492.69 388.07 492.61 389.36 492.99 390.1 493.71 394.38 499.29 395.56 500.22 396.74 500.89 397.99 501.22 405.26 501.68 406.95 501.99 408.24 502.35 409.4 502.88 410.4 503.63 411.25 504.68 415.35 511.31 Z" id="GUY-672" data-name="Potaro-Siparuni"/>
<path d="M 507.91 399.14 512.18 401.01 513.05 400.96 514.35 400.77 517.22 399.37 523.29 397.64 528.75 402.49 529.79 403.03 532.17 403.36 533.97 408.63 534.06 411.49 532.04 418.07 533.84 420.95 536.14 421.99 547.16 425.62 552.31 426.56 553.6 426.65 560.48 427.77 561.18 428.88 562.32 431.58 564.12 433.32 567.2 437.51 568.26 438.12 569.66 438.24 571.22 438.16 573.5 438.33 575 439.26 577.88 442.14 579.13 442.39 580.32 441.99 581.28 441.05 582.15 440.03 583.51 439.2 585.39 438.62 592.7 439.09 593.96 438.81 597.7 437.36 598.84 437.1 602.16 437.19 603.98 436.62 608.95 447.38 611.53 450.2 613.72 450.69 616.22 453.06 616.41 454.47 616.47 455.91 616.18 457.16 613.17 464.6 604.47 500.8 603.17 516.35 602.45 519.87 601.47 522.3 596.29 527.74 593.73 532.24 589.83 542.45 584.55 549.41 581.22 555.37 573.22 576.3 557.34 594.04 553.23 599.69 550.63 606.37 548.2 616.49 541.78 634.87 538.87 636.47 533.88 637.48 506.69 638.07 504.3 638.44 492.37 641.19 467.92 641.4 460.32 640.19 456.98 639.04 454.66 637.68 453.53 636.86 451.81 635.99 444.81 633.75 441.75 632.12 437.84 626.72 435.51 619.82 433.15 617.3 425.75 619.47 423.54 616.71 419.42 593.62 415.47 583.29 415.15 576.61 419.08 553.18 419.27 541.49 418.25 538.95 416.4 537.11 408.82 525.64 409.54 524.48 409.68 523.2 409.64 521.69 409.83 519.9 410.39 518.32 411.85 515.65 413.03 512.34 415.35 511.31 422.02 511.03 436.08 508.81 439.99 507.64 442.81 504.75 446.51 497.63 449.45 490.94 451.4 484.34 452.3 477.47 452.14 466.28 453.26 455.91 452.6 445.64 453.26 442 457.3 433.37 459.43 430.34 459.9 426.48 459.92 413.17 459.45 411.47 457.7 407.53 457.6 404.17 459.92 382.49 459.45 380.93 458.51 379.48 457.87 378.16 458.25 376.94 459.06 375.81 459.57 374.43 459.83 372.93 459.92 371.45 459.37 368.64 455.48 360.87 455.12 357.71 455.1 350.49 454.76 348.69 454.76 348.69 456.67 348.59 455.45 347.58 458.14 341.08 458.15 340.84 458.17 340.85 461.62 343.03 470.74 357.11 472.79 359.45 474.46 361.02 481.07 365.13 487.34 372.18 489.32 376 490.29 378.7 490.64 380.35 490.82 381.76 490.82 382.83 490.96 383.86 493.63 392.97 493.65 393.84 493.43 395.26 493.98 395.64 494.85 395.78 502.01 396.21 503.82 396.76 505.08 397.3 507.91 399.14 Z" id="GUY-673" data-name="Upper Takutu-Upper Essequibo"/>
<path d="M 481.07 700.26 483.47 704.9 493.33 718.52 499.91 741.08 500.01 742.42 499.87 744.66 498.71 749.29 498.73 751.42 499.05 754.26 504.15 775.14 505.41 778.62 506.69 781.23 521.81 803.65 527.01 814.27 527.89 816.65 528.34 820.28 528.31 824.02 533.89 845.71 533.92 848.73 533.11 856.16 533.52 860.58 534.45 865.26 536.19 870.23 553.3 894.7 563.52 918.84 564.04 921.97 563.48 923.18 550.77 940.3 548.22 945.15 547.88 946.39 547.55 948.67 547.49 951.06 549.26 971.95 549.21 976.75 548.86 980.1 548.15 983.17 546.12 988.74 534.97 1010.32 509.13 1082.49 503.22 1093.75 496.46 1103.88 488.26 1123.13 486.43 1125.73 479.42 1132.84 473.71 1141.03 472.38 1144.73 470.97 1154.3 471 1154.37 471.04 1154.47 469.1 1156.89 470.19 1160.25 473.26 1166.63 474.29 1170.01 474.39 1173.94 473.33 1176.76 468.25 1184.75 466.91 1184.82 465.63 1184.06 464.33 1183.59 464.38 1183.28 463.73 1182.61 462.83 1181.93 462.07 1181.56 461.35 1181.85 459.28 1183.44 458.25 1183.86 441.68 1182.29 439.22 1182.51 437.35 1183.94 432.86 1190.42 430.27 1193.24 427.17 1195.47 423.27 1197 420.02 1197.74 417.09 1197.98 414.16 1197.51 410.9 1196.12 406.72 1192.78 405.33 1189.42 404.47 1185.89 401.91 1182 398.91 1179.6 395.58 1177.79 394.68 1177.44 388.34 1174.96 361.24 1170.16 350.82 1166.81 347.94 1165.24 345.91 1162.53 342.43 1154.74 341.07 1152.98 338.13 1151.26 337.42 1148.46 337.06 1145.42 335.17 1142.96 333.69 1142.74 330.39 1143.65 328.41 1143.17 327.81 1142.44 326.66 1139.88 326.06 1138.94 325.24 1138.52 323.23 1138.32 322.46 1137.99 320.99 1136.26 317.8 1130.56 316.3 1128.89 311.23 1124.87 308.5 1121.37 303.97 1113.99 300.6 1111.16 297.15 1110.08 294.25 1110.45 291.43 1111.24 288.15 1111.44 286.28 1110.96 284.63 1110.11 283.15 1108.96 279.59 1105.17 279.33 1103.84 281.93 1100.35 285.34 1093.76 285.18 1091.77 284.75 1091.54 283.71 1091.81 281.68 1091.32 275.58 1088.93 273.69 1088.83 270.39 1090.01 268.42 1089.92 266.95 1088.17 266.17 1084.85 265.91 1081.27 266.01 1078.69 266.6 1076.84 268.63 1073.7 269.37 1071.98 269.53 1070.5 269.12 1066.24 269.42 1064.86 270.35 1062.17 270.46 1060.84 269.92 1059.06 268.13 1055.67 267.89 1053.53 268.39 1051.82 270.22 1048.96 270.74 1047.35 270.66 1045.69 269.18 1040.86 269.06 1034.8 269.95 1028.52 269.71 1022.95 266.22 1019.03 264.75 1018.64 261.57 1018.56 260.05 1018.25 258.03 1017.2 253.06 1012.94 246.6 1009.6 243.5 1007.4 241.83 1004.29 242.09 1002.82 243.77 1000.11 243.72 998.3 243.36 996.58 243.19 993.07 242.91 991.3 238.19 980.72 237.6 977.62 237.64 975.6 237.4 974.37 236.05 971.64 235.39 970.97 233.29 970.2 232.49 969.57 232.6 969.05 233.4 967.06 233.45 966.18 228.35 956.22 227.76 953.09 228.79 926.59 232.16 913.27 232.58 909.84 232 900.55 232.77 896.48 234.37 892.62 238.71 885.55 239.57 884.86 240.64 884.46 241.6 883.94 242.13 882.89 241.95 881.76 240.73 880.04 240.51 879.05 241.03 878.6 243.08 878.29 243.49 877.66 243.13 876.59 241.75 875.06 241.28 874.01 241.3 871.89 242.14 870.64 243.32 869.61 244.4 868.12 246.61 860.79 247.32 859.16 251.52 852.21 253.24 846.75 253.76 846.61 254.78 846.54 255.9 846.28 256.71 845.52 256.84 844.4 255.85 842.26 255.62 841.17 256.34 833.33 253.53 834.35 253.99 831.49 256.78 824.77 255.45 820.65 252.51 817.29 250.01 813.73 250.04 808.97 254.13 804.49 267.47 799.81 273.62 794.11 277.29 792.51 278.72 791.35 279.71 789.49 279.8 788.08 279.61 786.65 279.71 784.71 281.06 780.63 283.12 778.57 289.75 775.61 292.95 773.14 293.47 770.84 292.77 768.15 292.31 764.49 293.32 761.21 295.68 757.42 298.7 754.34 301.72 753.12 303.32 752.89 304.21 752.11 304.47 750.87 304.15 749.26 302.98 747.92 301.05 747.24 295.9 746.39 294.34 746.46 293.32 745.82 293.47 741.64 292.77 740.69 291.79 739.89 289.5 735.74 284 730.63 282.45 728.11 282.96 724.3 284.77 721.6 285.22 719.29 281.78 716.61 274.81 714.35 272.14 712.4 270.24 708.13 269.92 706.37 269.9 704.96 270.32 702.09 270.72 701.14 272.16 699.21 272.51 698.18 272.17 697.1 270.53 695.25 270.24 694.52 271.97 691.49 277.52 685.74 278.53 681.88 278.58 680.74 280.51 680.42 286.48 681.02 289.75 680.63 291.35 679.9 292.59 679.03 293.61 677.92 294.35 676.86 299.61 666.2 300.6 664.79 302.31 662.76 303.64 661.58 304.95 660.64 306.16 659.95 307.48 659.37 310.91 658.42 314.43 659.72 315.73 662.47 316.52 665.11 318.79 670.57 319.46 673.26 319.46 675.26 318.75 676.38 317.79 677.5 316.93 679.77 316.31 682.92 316.53 689.86 317.75 696.75 317.7 698.25 317.03 699.61 315.05 701.98 314.17 703.41 313.34 705.5 313.37 707.05 313.91 708.55 315.1 710.05 316.31 711.1 317.59 711.95 322.95 714.52 325.34 715.4 327.68 715.96 349.68 716.69 359.28 715.13 361.53 715.24 365.01 715.77 366.1 715.76 367.29 715.48 368.44 715.07 375.72 711.45 376.88 711.09 377.95 710.86 379.01 710.8 379.89 710.96 381.16 711.36 381.95 712.11 382.47 712.77 384.01 716.54 384.87 720.65 385.46 722.32 386.39 724.09 397.47 738.36 398.91 739.59 400.06 740.41 402.33 741.08 407.76 741.13 409.53 740.95 410.26 740.64 411.35 740.02 413.89 738.03 418.35 733.41 421.39 729.57 443.11 710.27 444.01 709.12 447.25 703.6 449.75 700.75 452.08 698.85 455.43 696.74 459.51 694.92 460.88 694.54 463.44 694.22 464.75 694.22 466.07 694.36 468.61 695 481.07 700.26 Z" id="GUY-674" data-name="Upper Demerara-Berbice"/>
<path d="M 425.75 145.98 417.83 155.8 411.63 161.56 408.21 163.73 388.37 171.86 386.01 173.09 376.35 183.14 374.52 185.54 373.5 187.47 373.57 188.72 373.84 189.94 374.4 191.09 377.48 195.81 378.11 197.03 378.53 198.27 378.65 199.56 378.41 201.14 377.25 202.5 373.08 205.75 371.77 207.19 370.85 208.52 361.8 235.96 361.45 238.21 361.37 240.49 361.62 242.76 364.91 254.7 365.07 256.52 356.34 252.64 349.01 250.95 347.76 250.85 346.53 250.98 344.7 251.72 343.84 252.47 343.25 253.18 342.94 254.03 342.33 257.02 341.83 257.78 339.83 259.11 336.44 261.92 334.65 261.98 332.28 261.58 322.54 258.34 320.22 256.44 319.14 255.91 317.98 255.64 313.39 255.96 312.06 255.36 311.13 254.73 297.73 240.89 296.61 240.05 295.56 239.55 278.65 235.49 255.11 222.73 253.47 222.6 251.17 222.85 246.32 224.08 244.35 225.06 243.17 226.07 242.96 226.99 242.26 229.02 241.48 230.2 239.3 232.27 238.36 233.35 236.83 235.62 235.8 236.65 234.64 237.43 233.29 237.68 231.69 237.53 225.24 235.21 222.72 235.58 221.34 236.41 220.43 237.32 219.85 238.26 219 239.36 217.95 240.47 216.82 241.48 215.67 242.26 214.71 242.67 213.54 242.91 207.81 241.43 202.72 239.07 199.83 238.47 198.01 238.35 195.8 239.14 194.57 238.91 193.26 238.11 189.53 234.51 184.44 231.53 178.63 229.36 175.91 228.63 173.12 228.74 171.23 229.17 169.31 227.05 167.37 225.99 165.24 225.82 162.59 226.22 160.26 226.14 158.49 225.25 156.8 224.13 154.79 223.38 150.6 223.36 147.14 224.64 144.5 227.14 140.93 233.54 138.8 233.59 127.49 224.68 125.74 222.93 123.37 218.1 123.29 213.26 125.31 208.88 129.26 205.34 129.99 204.19 130.36 202.99 130.38 201.7 130.07 200.36 128.64 198.17 126.78 193.64 125.65 191.56 124.5 190.67 123.03 190.09 121.71 189.27 121.06 187.7 121.12 186.33 121.29 185.31 121.22 184.34 120.51 183.15 118.31 181.63 116.05 181.12 114.01 180.33 110.25 173.46 109.3 171.1 109.16 168.65 111.44 164.41 118.81 162.06 121.33 158.95 123.62 154.78 125.21 152.55 126.27 151.76 128.63 152.19 130.15 151.05 130.77 148.96 130.38 146.55 132.87 142.17 132.89 140.41 132.35 137.33 132.47 135.91 133.27 134.41 136.92 130.07 140.13 124.06 142.41 121.9 146.06 120.69 159.83 120.93 166.93 120.24 170.88 117.29 172.18 113.55 175.76 110.31 183.63 104.95 184.26 104.38 186.65 102.23 188.32 99.63 190.25 97.43 198.05 94.41 200.87 92.08 203.46 89.41 206.79 86.92 210.26 85.83 216.73 86.44 220.23 86.26 222.97 84.65 224.62 81.81 225.99 75.29 227.88 72.86 228.1 70.97 227.69 69.11 227.67 66.77 228.86 64.24 233.02 61.01 234.75 59.1 237.56 57.76 245.68 55.9 249.01 55.7 252.38 54.62 255.49 51.8 257.54 48.22 257.72 44.88 251.22 34.43 234.32 15.59 224.37 1.01 224.37 1 227.6 2.48 232.94 5.94 238.74 11.76 248.02 25.81 254.11 31.64 258.72 34.01 266.65 36.15 270.73 38.2 279.64 44.64 284.3 47.17 289.12 48.16 290.59 50.66 290.9 50.99 291.12 52.29 291.76 52.58 292.77 52.48 301.9 54.34 303.09 55.48 305.22 58.07 319.71 70.44 315.98 64.45 310.31 58.91 303.51 54.43 291.32 49.48 276.38 39.2 266.53 33.89 265.2 32.09 263.2 27.6 263.57 25.5 267.42 24.89 270.09 26.07 275.84 30.62 282.45 32.59 285.68 34.77 290.9 39.2 301.59 45.53 316.41 52.21 333.65 64.52 363.32 82.06 373.12 89.39 375.51 91.6 377.89 94.72 386.66 102.8 408.85 127.53 417.19 134.09 421.93 140.92 425.75 145.98 Z" id="GUY-675" data-name="Barima-Waini"/>
<path d="M 365.07 256.52 365 259.84 361.81 270.16 361.49 272.87 362.01 274.78 363.17 275.46 364.28 275.81 368.3 276.68 369.18 277.12 371.03 278.31 371.87 278.71 377.74 280.89 379.72 281.22 381.86 281.33 382.88 281.27 383.82 281.11 384.74 280.83 385.64 280.31 388.66 277.22 389.64 276.42 391.51 276.23 395.83 277.69 397.38 280.21 397.6 281.09 398.18 287.66 399.18 289.78 400.42 291.16 401.84 291.93 404.77 292.8 407.22 292.96 408.19 292.83 409.1 292.62 411.08 291.97 412.42 291.65 413.79 291.69 414.57 293.12 414.64 294.41 417.16 300.41 419.86 305.09 420.33 307.66 419.4 316.83 418.7 320.37 418.21 326.05 418.85 327.84 419.59 328.9 420.52 329.19 422.53 329.53 430.65 329.92 432.5 330.37 434.16 331.02 443.81 336.1 445.32 336.61 446.61 336.69 447.38 336.22 448.61 335.85 449.45 335.85 451.98 336.85 452.32 337.07 452.32 337.07 451.85 338.9 441.05 354.23 441.73 354.66 442.16 355.25 447.16 350.7 448.81 349.7 449.3 349.05 449.74 348.12 450.39 347.6 452.59 348.56 453.98 348.73 454.76 348.69 455.1 350.49 455.12 357.71 455.48 360.87 459.37 368.64 459.92 371.45 459.83 372.93 459.57 374.43 459.06 375.81 458.25 376.94 457.87 378.16 458.51 379.48 459.45 380.93 459.92 382.49 457.6 404.17 457.7 407.53 459.45 411.47 459.92 413.17 459.9 426.48 459.43 430.34 457.3 433.37 453.26 442 452.6 445.64 453.26 455.91 452.14 466.28 452.3 477.47 451.4 484.34 449.45 490.94 446.51 497.63 442.81 504.75 439.99 507.64 436.08 508.81 422.02 511.03 415.35 511.31 411.25 504.68 410.4 503.63 409.4 502.88 408.24 502.35 406.95 501.99 405.26 501.68 397.99 501.22 396.74 500.89 395.56 500.22 394.38 499.29 390.1 493.71 389.36 492.99 388.07 492.61 386.44 492.69 380.5 495.31 379.12 495.74 377.58 495.84 375.37 495.33 374.11 494.45 373.43 493.36 373.3 492.22 373.65 486.05 373.35 484.89 372.56 483.87 370.39 481.92 369.35 480.8 368.5 479.63 366.15 475 365.39 473.97 362.3 470.93 358.84 466.35 357.74 465.24 356.56 464.25 355.34 463.71 354.08 463.56 352.48 463.8 351.19 464.25 345.29 467.51 343.67 468.93 341.85 470.86 338.79 474.73 336.62 478.62 335.73 479.91 334.32 481.17 331.54 482.7 329.8 483.34 328.29 483.64 327.17 483.69 324.78 483.58 322.31 483.17 310.19 479.46 309.2 479.49 308.5 479.64 307.56 480.08 300.66 484.76 296.03 489.01 295.15 490.12 294.65 491.62 294.63 493.43 295.88 499.45 297.07 512.91 295.35 515.99 286.02 516.89 283.47 516.8 268.69 513.84 266.17 513.89 261.03 514.77 253.92 514.33 252.79 514.4 251.67 514.6 241.05 517.93 239.3 518.82 237.71 520.21 236.25 522.23 234.34 525.94 232.83 530.83 229.9 537.04 229.17 539.26 227.82 540.9 225.56 543 217.91 548.92 214.73 552.39 213.37 553.46 212.96 553 207.8 541.05 206.39 539.17 199.11 541.81 196.77 539.73 195.25 535.92 193.12 535.3 186.34 537.05 183.33 538.53 176.78 545.1 173.69 547.23 170.14 547.33 163 544.87 159.62 545.05 158.38 546.09 156.48 549.24 154.88 550.4 153.68 550.33 152.58 549.46 151.46 548.35 150.25 547.53 147.01 546.88 137.85 548.16 135.51 547.89 133.7 547.05 132.03 546.02 130.07 545.15 128.16 544.77 118.51 544.11 114.9 544.28 107.65 545.87 95.14 532.41 82.84 518.85 70.53 505.29 58.23 491.73 45.93 478.17 33.62 464.6 21.31 451.06 9.01 437.49 3.78 431.7 1 425.16 2.69 423.38 8.14 420.36 10.52 418.47 18.13 406.4 20.18 401.22 21.67 398.92 23.83 397.76 29.22 396.76 31.88 395.91 33.84 394.76 35.42 392.62 37.16 388.46 39.25 386.63 41.49 386.28 43.87 386.53 45.67 386.02 46.19 383.44 46.25 381.22 47.09 375.06 46.77 373.46 46.26 372.94 45.71 372.58 45.26 371.48 44.45 370.33 41.59 368.56 40.74 367.07 39.52 362.54 39.29 360.74 40.28 352.91 41.07 350.66 42.5 348.71 42.85 347.36 42.91 346.01 42.72 344.68 42.26 343.36 40.49 340.93 38.94 336.07 37.67 333.65 35.19 331.36 32.93 330.1 31.37 328.49 31 325.17 32.16 319.59 34.53 313.57 37.7 307.79 42.79 301.95 44.33 300.1 47.39 299.51 50.95 299.83 53.98 300.75 55.47 297.79 58.91 298.29 62.38 299.35 65.37 297.09 72.78 298.01 76.16 297.52 77.04 296.85 81.45 292.21 81.73 291.54 81.8 290.21 81.44 288.71 79.84 286.43 79.48 284.62 80.42 283.96 82.53 284.14 86.13 285.12 87.22 285.9 88.38 287.01 89.83 288.07 91.78 288.65 93.29 288.53 97.03 287.66 98.94 287.44 102.26 288.32 108.2 292.15 110.62 292.98 114.06 291.78 116.69 289.03 121.3 282.45 123.94 280.31 127 278.99 138.68 276.19 159.43 263.35 163.77 262.33 166.51 263.94 168.01 255.9 169.37 253.17 171.83 251.11 174.59 249.33 176.89 247.43 178.49 245.17 179.75 242.48 180.43 239.63 180.31 236.88 179.08 234.32 176.98 232.44 171.34 229.3 171.23 229.17 173.12 228.74 175.91 228.63 178.63 229.36 184.44 231.53 189.53 234.51 193.26 238.11 194.57 238.91 195.8 239.14 198.01 238.35 199.83 238.47 202.72 239.07 207.81 241.43 213.54 242.91 214.71 242.67 215.67 242.26 216.82 241.48 217.95 240.47 219 239.36 219.85 238.26 220.43 237.32 221.34 236.41 222.72 235.58 225.24 235.21 231.69 237.53 233.29 237.68 234.64 237.43 235.8 236.65 236.83 235.62 238.36 233.35 239.3 232.27 241.48 230.2 242.26 229.02 242.96 226.99 243.17 226.07 244.35 225.06 246.32 224.08 251.17 222.85 253.47 222.6 255.11 222.73 278.65 235.49 295.56 239.55 296.61 240.05 297.73 240.89 311.13 254.73 312.06 255.36 313.39 255.96 317.98 255.64 319.14 255.91 320.22 256.44 322.54 258.34 332.28 261.58 334.65 261.98 336.44 261.92 339.83 259.11 341.83 257.78 342.33 257.02 342.94 254.03 343.25 253.18 343.84 252.47 344.7 251.72 346.53 250.98 347.76 250.85 349.01 250.95 356.34 252.64 365.07 256.52 Z" id="GUY-676" data-name="Pomeroon-Supenaam"/>
<path d="M 566.48 300.59 566.41 300.86 566.62 309.8 567.14 311.99 568.11 314.3 569.47 316.83 569.96 318.25 570.23 319.65 569.7 323.94 569.88 325.03 570.39 326.12 571.6 328.15 571.52 329.04 570.1 329.82 568.88 329.87 567.65 329.72 566.54 329.45 565.42 329.33 564.28 329.39 563.29 329.83 562.52 330.74 562.41 332.22 562.68 333.49 564.01 337.12 564.15 338.27 564.09 339.44 563.89 340.6 563.47 341.85 562.8 343.01 561.44 344.03 560.24 344.37 555.45 344.96 553.28 345.49 552.53 345.87 551.82 346.36 550.71 347.7 547.33 352.73 545.87 354.22 544.49 355.23 543.37 355.82 542.24 356.64 540.89 358.29 539.66 360.41 531.12 382.67 530.61 384.54 530.37 387.04 530.66 395.56 532.17 403.36 529.79 403.03 528.75 402.49 523.29 397.64 517.22 399.37 514.35 400.77 513.05 400.96 512.18 401.01 507.91 399.14 510.58 394.92 510.73 392.81 510.27 391.13 508.64 387.24 508.19 385.52 507.88 384.73 506.61 382.65 505.61 380.31 505.63 379.25 505.84 378.31 506.24 377.57 507.62 375.56 508.66 373.15 509.32 370.62 509.37 369.19 509.14 368.1 508.72 367.41 507.14 365.67 505.2 363.97 504.6 363.1 503.98 361.77 503.08 359.08 502.82 357.44 502.85 356.14 503.04 355.19 503.32 354.31 504.94 350.78 505.38 349.16 505.39 348 505.23 347.02 504.17 344.44 503.24 341.36 503.31 340.19 503.55 339.2 503.97 338.5 505.96 336.02 511.35 330.56 511.72 330.31 511.95 330.11 513.28 328.27 521.86 311.67 523.66 307.16 523.68 305.92 523.51 304.9 522.39 301.57 521.79 298.89 521.54 296.25 521.66 294.76 522.08 292.87 522.5 291.69 524.33 284.36 524.3 283.94 524.95 284.26 525.6 283.54 526.16 281.64 527.54 281.21 541.48 282.91 551.58 287.78 554.81 290.46 559.64 294.08 565.72 300.03 566.48 300.59 Z" id="GUY-677" data-name="East Berbice-Corentyne"/>
<path d="M 510.58 394.92 507.91 399.14 505.08 397.3 503.82 396.76 502.01 396.21 494.85 395.78 493.98 395.64 493.43 395.26 493.65 393.84 493.63 392.97 490.96 383.86 490.82 382.83 490.82 381.76 490.64 380.35 490.29 378.7 489.32 376 487.34 372.18 481.07 365.13 474.46 361.02 472.79 359.45 470.74 357.11 461.62 343.03 458.17 340.85 458.15 340.84 458.78 319.77 460.44 312.95 477.57 282.89 481.89 277.05 487.81 272.9 494.96 271.12 501.82 271.47 508.04 273.36 517.74 278.45 520.92 281.41 521.72 281.87 522.22 282.45 523.57 283.58 524.3 283.94 524.3 283.94 524.33 284.36 522.5 291.69 522.08 292.87 521.66 294.76 521.54 296.25 521.79 298.89 522.39 301.57 523.51 304.9 523.68 305.92 523.66 307.16 521.86 311.67 513.28 328.27 511.95 330.11 511.72 330.31 511.35 330.56 505.96 336.02 503.97 338.5 503.55 339.2 503.31 340.19 503.24 341.36 504.17 344.44 505.23 347.02 505.39 348 505.38 349.16 504.94 350.78 503.32 354.31 503.04 355.19 502.85 356.14 502.82 357.44 503.08 359.08 503.98 361.77 504.6 363.1 505.2 363.97 507.14 365.67 508.72 367.41 509.14 368.1 509.37 369.19 509.32 370.62 508.66 373.15 507.62 375.56 506.24 377.57 505.84 378.31 505.63 379.25 505.61 380.31 506.61 382.65 507.88 384.73 508.19 385.52 508.64 387.24 510.27 391.13 510.73 392.81 510.58 394.92 Z M 480.9 269.43 477.73 272.9 477.25 270.15 478.22 266.46 479.92 263.21 482.4 261.33 483.9 259.11 484.48 258.49 485.99 258.25 491.04 258.49 498.34 259.6 498.16 260.3 489.02 266.97 480.9 269.43 Z M 453.23 333.57 452.32 337.07 451.98 336.85 449.45 335.85 448.61 335.85 447.38 336.22 446.61 336.69 445.32 336.61 443.81 336.1 434.16 331.02 432.5 330.37 430.65 329.92 422.53 329.53 420.52 329.19 419.59 328.9 418.85 327.84 418.21 326.05 418.7 320.37 419.4 316.83 420.33 307.66 419.86 305.09 417.16 300.41 424.14 296.01 429.25 293.5 430.47 292.66 431.79 291.39 436.56 283.98 437.9 282.66 439.57 281.62 442.49 280.77 444.46 280.69 446.04 280.39 447.15 279.63 447.96 278.13 448.38 276.73 449.62 268.8 450.99 266.8 453.97 264.48 465.06 258.51 468.14 257.59 468.14 257.59 465.54 259.6 463.09 262.56 461.32 265.78 460.25 269.1 459.3 275.33 455.45 285.09 455.11 288.51 455.45 299.16 455.11 300.83 453.59 302.85 453.23 304.65 453.23 333.57 Z" fill-rule="evenodd" id="GUY-678" data-name="Demerara-Mahaica"/>
<path d="M 630.37 371.19 630.58 372.33 629.72 374.19 629.07 377.15 629.98 380.55 630.04 381.5 629.71 382.55 628.93 383.45 627.25 384.43 624.89 385.11 619.35 386.06 618.36 386.14 616.55 386.48 615.7 386.84 614.87 387.31 613.97 388.31 613.33 389.39 612.96 391.46 613.15 393.86 614.42 399.09 614.8 399.78 615.41 400.31 616.09 400.76 617.27 401.84 617.69 402.52 617.87 403.32 617.8 404.24 617.02 406.85 613.64 412.85 612.82 413.72 612.1 414.3 611.24 414.56 610.36 414.51 609.42 413.93 608.14 412.72 607.5 412.26 606.72 411.89 605.58 411.81 604.15 412.22 602.13 413.11 600.16 415.03 602.93 419.5 603.79 423.38 604.49 431.14 603.98 436.62 602.16 437.19 598.84 437.1 597.7 437.36 593.96 438.81 592.7 439.09 585.39 438.62 583.51 439.2 582.15 440.03 581.28 441.05 580.32 441.99 579.13 442.39 577.88 442.14 575 439.26 573.5 438.33 571.22 438.16 569.66 438.24 568.26 438.12 567.2 437.51 564.12 433.32 562.32 431.58 561.18 428.88 560.48 427.77 553.6 426.65 552.31 426.56 547.16 425.62 536.14 421.99 533.84 420.95 532.04 418.07 534.06 411.49 533.97 408.63 532.17 403.36 530.66 395.56 530.37 387.04 530.61 384.54 531.12 382.67 539.66 360.41 540.89 358.29 542.24 356.64 543.37 355.82 544.49 355.23 545.87 354.22 547.33 352.73 550.71 347.7 551.82 346.36 552.53 345.87 553.28 345.49 555.45 344.96 560.24 344.37 561.44 344.03 562.8 343.01 563.47 341.85 563.89 340.6 564.09 339.44 564.15 338.27 564.01 337.12 562.68 333.49 562.41 332.22 562.52 330.74 563.29 329.83 564.28 329.39 565.42 329.33 566.54 329.45 567.65 329.72 568.88 329.87 570.1 329.82 571.52 329.04 571.6 328.15 570.39 326.12 569.88 325.03 569.7 323.94 570.23 319.65 569.96 318.25 569.47 316.83 568.11 314.3 567.14 311.99 566.62 309.8 566.41 300.86 566.48 300.59 570.06 303.25 578.79 311.55 583.98 316.77 585.46 319.21 588.41 320.48 591.96 324.15 601.27 331.64 606.42 335.81 609.85 338.75 612.05 341.08 614.5 343.53 617.68 346.96 621.02 354.93 625.95 366.46 627.73 368.73 628.24 371.9 628.99 373.19 630.37 371.19 Z" id="GUY-679" data-name="Essequibo Islands-West Demerara"/>
<path d="M 417.16 300.41 414.64 294.41 414.57 293.12 413.79 291.69 412.42 291.65 411.08 291.97 409.1 292.62 408.19 292.83 407.22 292.96 404.77 292.8 401.84 291.93 400.42 291.16 399.18 289.78 398.18 287.66 397.6 281.09 397.38 280.21 395.83 277.69 391.51 276.23 389.64 276.42 388.66 277.22 385.64 280.31 384.74 280.83 383.82 281.11 382.88 281.27 381.86 281.33 379.72 281.22 377.74 280.89 371.87 278.71 371.03 278.31 369.18 277.12 368.3 276.68 364.28 275.81 363.17 275.46 362.01 274.78 361.49 272.87 361.81 270.16 365 259.84 365.07 256.52 364.91 254.7 361.62 242.76 361.37 240.49 361.45 238.21 361.8 235.96 370.85 208.52 371.77 207.19 373.08 205.75 377.25 202.5 378.41 201.14 378.65 199.56 378.53 198.27 378.11 197.03 377.48 195.81 374.4 191.09 373.84 189.94 373.57 188.72 373.5 187.47 374.52 185.54 376.35 183.14 386.01 173.09 388.37 171.86 408.21 163.73 411.63 161.56 417.83 155.8 425.75 145.98 426.08 146.42 430.07 154.58 432.74 158.44 433.34 157.41 431.72 153.4 432.03 151.63 434.27 151.79 438.29 153.14 441.71 155.97 444.83 158.95 447.5 162.22 450.17 166.23 453.57 171.73 457.67 176.72 460.25 180.36 472.99 192.9 475.93 197.88 477.13 203.27 475.51 208.51 476.62 207.3 475.78 214.27 476.62 235.11 473.75 252.21 471.75 254.81 468.14 257.59 465.06 258.51 453.97 264.48 450.99 266.8 449.62 268.8 448.38 276.73 447.96 278.13 447.15 279.63 446.04 280.39 444.46 280.69 442.49 280.77 439.57 281.62 437.9 282.66 436.56 283.98 431.79 291.39 430.47 292.66 429.25 293.5 424.14 296.01 417.16 300.41 Z" id="GUY-680" data-name="Cuyuni-Mazaruni"/>
</g>
</svg>