<?xml version="1.0"?>
<svg xmlns="http://www.w3.org/2000/svg" version="1.2" baseProfile="tiny" width="800" height="1213" viewBox="0 0 800 1213" stroke-linecap="round" stroke-linejoin="round">
<g id="ne_10m_admin_1_states_provinces">
<path d="M 160.9 772.08 174.75 778.35 177.26 779.13 182.67 779.36 184.49 779.15 185.4 777.91 191.58 782.9 191.96 783.55 193.21 788.24 194.21 788.54 212.92 788.21 213.66 788.09 214.78 787.72 216.28 787 217.48 786.6 218.06 786.51 218.83 786.51 221.61 786.9 222.46 787.14 224.26 787.25 225.26 787.46 226.35 787.98 227.16 788.26 227.62 788.34 228.13 788.28 228.78 787.97 229.19 787.67 230.02 786.81 230.63 786.36 231.28 785.96 248.7 783.58 249.58 783.35 250.27 783.01 250.9 782.59 252.04 781.57 252.59 781.3 253.35 781.01 254.9 780.59 255.63 780.26 256.23 780.06 256.64 780.04 257.75 780.69 258.39 780.99 260.26 781.32 260.88 781.3 262.21 780.8 263.06 780.6 267.41 779.99 267.99 779.8 268.44 779.59 269.48 778.54 269.75 778.35 270.4 778.33 274.48 779.23 279.94 781.24 276.64 786.01 275.47 787.3 274.41 788.07 267.68 794.37 265.69 797.19 265.51 797.59 265.41 798.05 265.38 798.66 265.5 799.08 265.69 799.44 265.95 799.72 268.31 801.61 270.1 802.64 272.4 804.47 272.91 805.03 276.16 811.14 276.47 811.86 277.7 816.77 278.73 819.48 279.23 820.39 279.45 820.69 279.71 820.97 280.02 821.2 280.36 821.41 281.13 821.71 281.49 821.89 281.78 822.13 282.05 822.6 282.73 824.42 283.06 825.02 283.4 825.44 284.02 826.01 284.62 826.81 284.89 827.1 285.2 827.33 285.58 827.5 286 827.61 286.48 827.63 287.44 827.55 287.94 827.57 288.46 827.73 288.95 828.06 289.47 828.84 289.62 829.54 289.64 830.49 291.57 839.96 291.89 841.02 293.29 842.77 293.56 843.03 293.89 843.23 295.75 843.89 296.03 844.09 296.3 844.43 296.56 844.88 297.04 846.09 297.28 846.46 298.02 847.2 298.55 847.94 298.79 848.49 298.86 849.06 298.76 851.14 298.89 851.65 299.08 852.05 300.13 853.12 300.42 853.37 300.78 853.55 301.2 853.68 302.11 853.84 303.03 853.91 303.49 853.88 303.92 853.8 304.72 853.58 305.16 853.5 305.61 853.49 306.03 853.58 306.37 853.76 306.98 854.21 307.33 854.36 307.71 854.45 309.33 854.62 309.77 854.73 310.17 854.88 310.81 855.31 311.12 855.55 311.76 855.88 312.38 856.1 312.94 858.11 309.34 870.75 309.14 871.84 309.13 872.98 309.63 874.32 317.34 889.47 304.74 893.13 290.05 906.28 279.22 900.86 274.58 896.22 269.16 891.58 263.75 890.81 257.56 890.81 253.69 887.72 252.92 876.89 249.05 872.25 245.18 867.6 245.18 859.1 242.86 850.59 233.58 845.95 198.77 832.8 192.59 839.76 184.85 842.08 172.47 841.31 160.1 844.4 156.23 847.49 149.27 846.72 146.18 842.85 141.53 842.08 138.44 845.17 130.71 846.72 123.74 848.27 118.33 848.27 111.26 849.06 111.37 843.81 111.52 843.13 110.23 837.39 109.19 835.53 109.14 835.2 109.27 834.33 109.19 834.03 108.8 833.77 108.31 833.61 108 833.65 108.15 834.03 107.52 833.46 107.18 833.41 107.07 833.27 107.12 832.43 107.26 831.93 107.87 830.77 108.15 830.36 105.65 821.06 104.77 819.5 102.27 820.08 100.96 819.93 100.4 818.7 100.19 817.99 99.69 817.22 99.03 816.6 98.33 816.35 97.93 816.59 96.78 818.47 95.9 817.22 97.01 814.73 96.5 813.49 95.29 813.07 93.05 813.66 91.82 812.97 91.33 812.53 90.01 811.7 89.74 811.24 89.71 810.77 89.56 810.38 88.97 810.15 88.47 810.26 87.02 811.36 86.3 811.47 85.95 811.05 85.85 810.35 85.85 809.61 85.19 809.85 84.75 809.8 84.46 809.45 84.31 808.77 84.31 805.91 82.95 804.55 80.63 802.82 79.85 801.72 79.88 800.75 81.06 797.29 81.18 795.75 80.95 794.49 80.32 793.37 79.24 792.23 79.16 792.11 80.66 792.03 118.35 792.16 119.02 792.07 119.53 791.89 119.79 791.4 120.27 789.61 121.33 786.91 121.73 785.19 121.74 784.72 121.67 784.29 120.3 779.99 120.12 779.64 119.88 779.33 119.61 779.06 119.02 778.59 118.78 778.29 118.66 777.89 118.59 776.47 118.32 775.15 118.03 774.44 117.67 773.75 117.57 773.37 117.6 772.96 117.8 772.64 118.21 772.48 118.79 772.45 120.33 772.92 121.53 773.49 123.13 774.06 124.05 774.24 124.46 774.36 124.83 774.53 125.15 774.74 125.69 774.98 126.43 775.22 128.72 775.63 131.31 776.54 131.65 776.71 131.93 776.92 132.13 777.21 132.27 777.55 132.26 778.38 132.3 778.73 132.52 778.98 132.84 779.18 134.69 780.03 134.99 780.27 135.41 780.89 135.69 781.15 136.01 781.36 136.3 781.6 136.54 781.89 137.09 783.41 137.3 783.73 137.53 784.02 137.81 784.27 138.13 784.48 138.51 784.53 138.91 784.42 139.35 783.9 139.56 783.42 139.71 782.93 139.86 781.98 139.97 781.57 140.17 781.26 140.44 781.08 140.68 780.98 141.29 780.77 141.7 780.73 142.07 780.8 142.63 781.38 142.91 781.44 143.31 781.23 147.2 778.13 147.41 777.84 147.52 777.48 147.49 777.09 147.12 775.92 146.93 775.59 146.65 775.34 146.25 775.2 142.57 774.48 142.2 774.33 141.89 774.12 141.64 773.89 135.09 764.77 134.72 763.94 135.06 763.53 135.88 763.25 145.5 761.46 146.35 761.47 146.83 761.83 147.13 762.17 148.93 765.13 149.84 766.31 151.21 767.6 151.88 768.01 160.9 772.08 Z" id="TCD-1464" data-name="Hadjer-Lamis"/>
<path d="M 245.07 539.01 231.26 562.08 214.24 620.86 204.19 654.89 202.64 672.69 198 680.42 177.12 705.17 163.19 710.59 163.97 735.04 172.72 734.96 173.15 734.81 173.47 734.58 175.16 732.56 175.46 732.34 175.9 732.29 176.35 732.34 177.21 732.57 178.78 733.16 180.57 733.58 182.23 734.14 182.65 734.41 183.05 734.81 183.41 735.71 183.72 736.83 184.01 738.58 183.99 739.05 183.6 740.02 182.22 742.42 182.1 742.9 182.11 743.47 182.91 746.02 183.11 747.04 183.47 748.12 183.65 748.45 184.35 749.33 185.95 750.96 186.38 751.58 186.52 752.64 186.63 773.17 186.41 774.97 185.4 777.91 184.49 779.15 182.67 779.36 177.26 779.13 174.75 778.35 160.9 772.08 146.93 735.19 134.62 735.29 112.09 740.73 111.47 740.77 107.73 740.07 107.18 740.06 106.32 740.19 104.51 741.52 103.71 741.86 102.99 741.3 91.49 723.3 89.38 720.86 86.39 718.32 85.53 717.37 78.89 708.48 78.33 707.99 77.88 707.68 77.08 707.4 76.21 707.18 71.21 706.68 70.58 706.54 69.73 706.18 69 705.37 66.87 702.27 66 701.34 62.55 700.25 61.53 699.43 57.13 694.72 54.56 693.41 54.04 693.03 53.76 692.63 53.4 691.5 52.89 688.26 52.71 687.74 52.35 687.11 51.94 686.84 51.46 686.75 50.99 686.78 50.68 686.59 49.34 684.84 48.8 684.49 48.3 684.28 47.38 684.16 44.72 684.09 44.04 683.98 43.64 683.75 43.33 683.47 42.41 682.14 38.97 681.09 26.43 680.32 25.89 679.99 25.35 679.4 24.6 678.36 23.62 677.55 22.69 677.34 21.64 677.24 13.58 677.27 13.03 677.14 14.26 676.91 16.81 674.84 17.39 673.46 17.48 672.05 16.99 669.15 16.74 668.71 15.93 667.99 15.81 667.6 16.09 667.21 17.58 666.19 20 663.55 20.76 662.99 22.27 662.65 23.72 662.52 24.87 661.93 25.55 660.16 25.45 658.61 24.39 655.38 24.08 653.84 24.18 652.23 24.58 650.78 25.71 648.42 28.18 643.26 30.14 639.17 32.34 636.18 34.6 633.1 36.86 630.01 39.13 626.93 41.38 623.84 43.65 620.76 45.91 617.67 48.16 614.58 50.43 611.5 52.69 608.42 54.95 605.33 57.21 602.25 59.48 599.16 61.73 596.08 63.98 592.99 66.25 589.91 68.51 586.82 70.67 583.87 74.8 579.58 79.24 574.96 82.17 571.91 86.42 567.5 90.68 563.07 94.93 558.66 99.18 554.24 103.42 549.82 107.67 545.39 111.92 540.98 116.17 536.56 120.42 532.14 124.66 527.72 128.91 523.3 133.17 518.89 137.42 514.47 141.67 510.05 145.92 505.62 150.16 501.21 152.74 498.54 153.73 497.14 153.96 496.36 155.23 496.88 245.07 539.01 Z" id="TCD-1465" data-name="Kanem"/>
<path d="M 160.9 772.08 151.88 768.01 151.21 767.6 149.84 766.31 148.93 765.13 147.13 762.17 146.83 761.83 146.35 761.47 145.5 761.46 135.88 763.25 135.06 763.53 134.72 763.94 135.09 764.77 141.64 773.89 141.89 774.12 142.2 774.33 142.57 774.48 146.25 775.2 146.65 775.34 146.93 775.59 147.12 775.92 147.49 777.09 147.52 777.48 147.41 777.84 147.2 778.13 143.31 781.23 142.91 781.44 142.63 781.38 142.07 780.8 141.7 780.73 141.29 780.77 140.68 780.98 140.44 781.08 140.17 781.26 139.97 781.57 139.86 781.98 139.71 782.93 139.56 783.42 139.35 783.9 138.91 784.42 138.51 784.53 138.13 784.48 137.81 784.27 137.53 784.02 137.3 783.73 137.09 783.41 136.54 781.89 136.3 781.6 136.01 781.36 135.69 781.15 135.41 780.89 134.99 780.27 134.69 780.03 132.84 779.18 132.52 778.98 132.3 778.73 132.26 778.38 132.27 777.55 132.13 777.21 131.93 776.92 131.65 776.71 131.31 776.54 128.72 775.63 126.43 775.22 125.69 774.98 125.15 774.74 124.83 774.53 124.46 774.36 124.05 774.24 123.13 774.06 121.53 773.49 120.33 772.92 118.79 772.45 118.21 772.48 117.8 772.64 117.6 772.96 117.57 773.37 117.67 773.75 118.03 774.44 118.32 775.15 118.59 776.47 118.66 777.89 118.78 778.29 119.02 778.59 119.61 779.06 119.88 779.33 120.12 779.64 120.3 779.99 121.67 784.29 121.74 784.72 121.73 785.19 121.33 786.91 120.27 789.61 119.79 791.4 119.53 791.89 119.02 792.07 118.35 792.16 80.66 792.03 79.16 792.11 75.7 786.82 74.4 786 47.64 786.24 30.31 762.52 12.98 738.81 12.44 736.4 11.89 733.98 11.35 731.57 10.8 729.16 10.26 726.74 9.72 724.34 9.18 721.92 8.63 719.5 8.09 717.09 7.55 714.68 7 712.27 6.46 709.85 5.92 707.44 5.38 705.03 4.83 702.61 4.3 700.2 3.51 696.72 2.45 692.87 1 687.61 1.02 683.14 3.51 679.77 5.44 678.83 8.17 677.73 11.24 677.48 13.03 677.14 13.58 677.27 21.64 677.24 22.69 677.34 23.62 677.55 24.6 678.36 25.35 679.4 25.89 679.99 26.43 680.32 38.97 681.09 42.41 682.14 43.33 683.47 43.64 683.75 44.04 683.98 44.72 684.09 47.38 684.16 48.3 684.28 48.8 684.49 49.34 684.84 50.68 686.59 50.99 686.78 51.46 686.75 51.94 686.84 52.35 687.11 52.71 687.74 52.89 688.26 53.4 691.5 53.76 692.63 54.04 693.03 54.56 693.41 57.13 694.72 61.53 699.43 62.55 700.25 66 701.34 66.87 702.27 69 705.37 69.73 706.18 70.58 706.54 71.21 706.68 76.21 707.18 77.08 707.4 77.88 707.68 78.33 707.99 78.89 708.48 85.53 717.37 86.39 718.32 89.38 720.86 91.49 723.3 102.99 741.3 103.71 741.86 104.51 741.52 106.32 740.19 107.18 740.06 107.73 740.07 111.47 740.77 112.09 740.73 134.62 735.29 146.93 735.19 160.9 772.08 Z" id="TCD-1466" data-name="Lac"/>
<path d="M 497.2 581.28 497.2 704.58 497.2 715.59 514.23 724.03 515 724.54 515.27 725.02 514.75 741.41 515.15 743.17 515.75 744.67 518.45 748.8 518.65 749.49 518.52 761.64 520.28 775.24 520.25 783.18 519.99 784.05 519.51 785.15 517.5 788.29 516.92 788.85 516.57 789.03 515.78 789.28 496.26 793.2 495.73 793.46 495.86 793.82 496.46 794.37 474.91 787.94 457.12 795.67 434.12 809.08 429.98 810.95 428.74 811.18 427.62 811.24 381.51 809.52 380.2 809.67 378.68 810.04 351.41 824.74 349.2 826.24 345.72 830.49 344.7 831.35 343.72 831.61 335.12 832.43 333.87 832.73 332.52 833.26 312.74 850 311.27 852.07 312.38 856.1 311.76 855.88 311.12 855.55 310.81 855.31 310.17 854.88 309.77 854.73 309.33 854.62 307.71 854.45 307.33 854.36 306.98 854.21 306.37 853.76 306.03 853.58 305.61 853.49 305.16 853.5 304.72 853.58 303.92 853.8 303.49 853.88 303.03 853.91 302.11 853.84 301.2 853.68 300.78 853.55 300.42 853.37 300.13 853.12 299.08 852.05 298.89 851.65 298.76 851.14 298.86 849.06 298.79 848.49 298.55 847.94 298.02 847.2 297.28 846.46 297.04 846.09 296.56 844.88 296.3 844.43 296.03 844.09 295.75 843.89 293.89 843.23 293.56 843.03 293.29 842.77 291.89 841.02 291.57 839.96 289.64 830.49 289.62 829.54 289.47 828.84 288.95 828.06 288.46 827.73 287.94 827.57 287.44 827.55 286.48 827.63 286 827.61 285.58 827.5 285.2 827.33 284.89 827.1 284.62 826.81 284.02 826.01 283.4 825.44 283.06 825.02 282.73 824.42 282.05 822.6 281.78 822.13 281.49 821.89 281.13 821.71 280.36 821.41 280.02 821.2 279.71 820.97 279.45 820.69 279.23 820.39 278.73 819.48 277.7 816.77 276.47 811.86 276.16 811.14 272.91 805.03 272.4 804.47 270.1 802.64 268.31 801.61 265.95 799.72 265.69 799.44 265.5 799.08 265.38 798.66 265.41 798.05 265.51 797.59 265.69 797.19 267.68 794.37 274.41 788.07 275.47 787.3 276.64 786.01 279.94 781.24 284.78 774.32 285.27 773.13 285.4 771.63 284.88 754.22 284.94 753.46 287.31 739.39 287.57 738.41 288 737.56 288.87 737.03 311.73 730.03 345.17 593.96 352.14 600.38 361.54 606.02 366.21 607.97 382.06 611.58 388.34 611.53 390.56 611.08 405.64 606.53 413.3 603.15 416.56 601.11 425.01 594.1 429.08 589.53 431.33 585.3 437.16 569.45 437.33 568.52 438.06 559.39 437.74 551.78 437.85 551.37 438.17 551.14 438.7 551.12 439.47 551.33 440.65 552.41 441.15 552.7 441.95 552.75 443.38 552.46 443.85 552.45 444.8 552.57 447.39 553.33 447.92 553.59 448.5 553.98 449.43 554.8 449.89 555.3 450.19 555.78 450.57 557.41 451.56 564.46 451.69 564.89 451.87 565.28 452.49 566.23 453.53 567.33 463.49 573.51 464.75 574 470.71 574.99 479.96 577.74 482.89 579.09 486.88 580.16 497.2 581.28 Z" id="TCD-1472" data-name="Batha"/>
<path d="M 733.47 587.08 731.6 587.31 729.62 588.64 724.78 594.34 718.8 597.94 717.37 599.64 716.82 602.01 717.38 604.19 718.65 606.15 720.27 607.85 721.9 609.99 722.65 612.35 722.8 614.88 721.83 623.69 721.25 625.38 717.86 631.44 717.28 632.13 714.71 633.1 712.98 634.02 711.48 635.23 704.66 642.18 703.77 643.76 703.37 645.6 703.3 647.02 702.87 648.27 701.37 649.63 698.6 651.45 697.99 652.63 697.99 654.58 698.61 658.74 699.03 660.06 700.17 662.48 700.31 663.16 699.94 664.21 699.16 664.76 683.94 668.73 680.71 670.26 677.65 672.53 676.22 675.23 677.95 678.03 680.29 679.73 680.87 680.77 681.95 688.91 682.2 689.36 682.57 689.76 682.85 690.21 682.77 690.77 682.39 691.15 681.36 691.61 681.03 691.93 680.36 693.22 680.28 693.82 680.5 694.72 681.19 696.36 682.1 697.47 683.36 698.13 687.63 698.87 688.98 699.69 689.66 701.16 690.18 703.6 690.07 705.82 688.95 707.11 687.18 707.79 685.16 708.18 683.43 709.12 680.62 711.69 679.16 712.66 667.14 718.26 664.95 719.69 663.13 721.49 662.38 722.42 662.34 722.42 660.31 722.65 659.12 722.66 658.12 722.42 657.3 721.6 655.44 718.77 655.1 718.41 651.89 716.44 626.14 708 605.93 704.92 604.89 704.89 600.35 705.19 598.17 705.59 594.69 707.35 594.07 707.79 592.75 708.56 592.03 708.88 590.54 709.32 589.7 709.46 588.28 709.37 585.68 708.71 578.34 705.12 572.97 701.49 572.65 701.44 572.15 701.42 571.27 701.53 570.59 701.38 570.11 701.19 569.77 700.94 565.29 696.34 563.47 693.93 561.87 690.36 561.68 690.03 561.45 689.74 561.14 689.51 558.98 688.76 558.35 688.44 557.74 687.98 556.62 686.96 556.3 686.75 555.88 686.56 554.25 686.08 553.86 685.87 553.24 685.41 552.91 685.22 539.53 680.87 538.97 680.78 538.24 680.74 534.83 681.16 534.47 681.24 534.11 681.37 530.58 683.15 530.14 683.23 529.69 683.25 528.73 683.12 526.08 682.51 525.68 682.52 525.33 682.64 524.63 682.99 524.28 683.12 523.93 683.13 523.56 683.02 523.2 682.85 522.79 682.71 521.89 682.5 521.42 682.46 520.04 682.55 519.51 682.69 519.02 682.97 518.5 683.69 517.97 684.64 517.7 684.96 517.34 685.23 515.49 685.76 515.24 686.01 514.93 686.46 514.57 687.55 513.38 688.3 509.16 691.69 497.2 704.58 497.2 581.28 503.28 582.07 505.75 582.78 507.27 583.59 511.05 586.29 518.24 589.63 519.3 589.98 519.79 589.99 520.25 589.94 523.94 588.94 526.94 587.64 533.82 586.75 534.43 586.81 534.85 586.94 535.55 587.4 536.92 588.03 538.61 588.6 539.49 588.73 540.16 588.73 541.69 588.18 542.42 587.84 544.54 586.29 547.21 584.83 560.28 580.1 565.09 577.07 566.16 576 567.1 574.79 568.44 572.36 568.66 572.05 569.2 571.51 569.82 571.06 571.19 570.3 575.62 569.07 576.97 568.32 578.77 566.79 579.87 566.13 580.26 566.03 580.69 566.07 581.39 566.41 586.75 569.76 595.17 573.23 596.04 573.4 596.62 573.4 597.13 573.32 601.58 570.92 602.39 570.68 621.67 566.73 625.6 565.51 628.37 564.92 629.14 564.86 630.32 564.95 630.71 565.04 636.92 567.14 640.39 568.74 641.76 569.11 642.32 569.11 642.78 569.02 646.26 567.57 648.01 566.59 650.07 565.97 653.3 565.59 655.71 565.63 657.64 565.97 659.61 566.5 660.02 566.42 660.38 566.25 661.29 565.35 661.81 565 662.11 564.92 662.28 564.93 662.42 565.03 664.51 567.06 667.57 569.4 668.3 569.76 669.21 570.1 669.87 570.27 671.03 570.44 671.73 570.45 672.31 570.39 672.72 570.29 673.88 569.89 674.23 569.71 675.02 569.18 675.66 568.83 676.19 568.79 676.78 568.81 677.22 568.92 677.55 569.14 678.09 569.65 678.39 569.89 678.74 570.09 680.39 570.67 681.38 570.81 684.34 571.81 684.67 572.11 684.94 572.63 685.36 573.84 685.56 574.15 685.82 574.43 686.1 574.65 686.4 574.81 686.97 575 687.32 575.15 687.58 575.41 687.74 575.76 688.01 576.51 688.21 576.84 688.52 577.08 688.87 577.28 689.15 577.53 689.34 577.87 689.47 578.25 689.63 578.59 689.94 578.91 690.42 579.12 691.17 579.33 691.68 579.29 692.1 579.17 693.13 578.63 693.53 578.49 694.4 578.34 696.71 578.22 699.37 577.8 701 577.77 703.17 577.95 703.79 577.91 705.24 577.39 706.2 577.15 706.83 577.14 707.32 577.26 707.66 577.47 709.18 578.64 709.55 578.81 709.98 578.95 711.9 579.21 712.28 579.37 712.73 579.62 713.3 579.86 714.33 580.16 715.01 580.25 715.61 580.26 716.48 580.12 718.05 579.6 719.59 578.9 720.18 578.7 721.19 578.47 721.88 578.42 722.48 578.45 724.26 578.81 728.79 580.51 729.15 580.7 729.45 580.93 729.71 581.21 733.38 586.85 733.46 587.06 733.47 587.08 Z" id="TCD-1473" data-name="Wadi Fira"/>
<path d="M 496.46 794.37 507.53 802.71 507.92 802.89 508.28 802.84 508.98 802.6 509.32 802.55 509.6 802.7 509.88 802.9 510.13 803.17 510.32 803.62 510.42 804.21 510.31 805.32 510.45 806.97 510.33 807.56 510.04 808.21 509.24 809.15 508.66 809.43 508.12 809.49 507.68 809.38 507.27 809.32 506.87 809.38 506.47 809.73 501.36 816.38 500.88 817.26 500.87 817.88 501 818.31 501.44 818.94 503.85 821.3 504.26 821.9 504.4 822.21 504.45 822.49 504.32 822.83 504.03 823.25 502.87 824.12 501.67 824.63 501.33 824.82 501.03 825.05 500.48 825.56 500 826.14 498.11 828.91 495.31 831.55 493.55 834.13 492.99 834.75 492.52 835.16 492.2 835.36 491.9 835.58 491.62 835.84 491.15 836.42 490.79 837.02 488.53 841.88 483.67 855.53 483.49 857.03 483.56 861.3 470.08 860.49 454.43 856.39 450.96 855.85 438.06 867.94 443.26 876.35 443.7 877.52 443.51 878.59 443.1 879.63 435.9 892.61 434.75 893.61 433.72 894.27 427.04 896.76 426.1 897 425.43 896.93 424.94 896.23 422.86 891.13 422.38 890.37 421.67 890.09 421.15 890 412.86 890.13 411.83 890.42 411.42 891.19 411.24 892.14 409.81 914.13 409.86 914.82 410 915.28 410.42 915.99 410.55 916.46 410.66 917.1 410.88 917.48 411.24 917.7 412.69 917.91 413.09 918.06 413.4 918.28 413.61 918.6 413.77 918.96 413.97 919.27 414.29 919.46 414.7 919.54 415.63 919.62 416.02 919.77 416.29 920.01 416.48 920.33 416.79 921.05 416.99 921.36 417.25 921.63 417.6 921.82 417.98 921.98 418.43 922.09 419.19 922.41 419.52 922.61 420.67 923.58 423.75 925.44 424.07 925.58 425.47 925.82 425.87 925.96 426.15 926.21 426.35 926.51 426.53 926.86 426.78 927.12 427.14 927.31 428.48 927.62 428.88 927.76 429.9 928.35 431.41 929.5 431.75 929.69 432.18 929.78 433.56 929.83 434 929.91 434.39 930.06 434.68 930.3 434.93 930.56 435.21 930.82 435.95 931.16 437.2 931.56 438.16 932.18 438.56 932.34 439 932.45 440.41 932.7 440.8 932.84 441.15 933.04 441.44 933.26 442.17 934.12 442.46 934.35 445.35 935.79 445.74 935.91 446.18 935.93 447.42 935.69 447.88 935.67 448.33 935.73 448.73 935.87 449.06 936.09 449.31 936.36 449.55 936.67 450.34 938 450.57 938.3 450.86 938.57 451.2 938.77 451.57 938.93 452.45 939.15 453.42 939.23 453.86 939.17 455.09 938.85 455.51 938.79 455.94 938.79 456.36 938.9 456.71 939.06 457 939.31 457.78 940.11 458.08 940.34 458.43 940.54 458.78 940.67 459.14 940.74 459.39 940.72 460.07 940.55 460.51 940.52 460.94 940.53 461.33 940.67 462.06 941.02 462.46 941.16 463.1 941.58 463.39 941.83 463.69 942.04 464.07 942.22 464.49 942.33 465.42 942.51 465.84 942.63 466.21 942.81 466.5 943.04 466.98 943.6 467.05 943.64 467.76 943.93 468.66 944.12 469.06 944.27 469.4 944.47 469.66 944.74 470.76 946.26 471.24 947.27 471.57 947.82 471.9 948.21 472.27 948.38 472.72 948.49 473.18 948.66 473.59 948.94 473.94 949.49 473.94 949.87 473.74 950.15 472.53 951.02 471.97 951.51 471.88 952.86 472.74 965.98 471.32 972.54 469.93 973.6 467.98 974.29 467.68 974.6 467.64 974.93 467.71 975.27 467.5 975.75 466.88 976.15 466.51 976.5 466.21 976.92 465.73 978.12 465.39 978.39 465.08 978.41 464.83 978.18 464.57 977.84 464.28 977.59 463.7 977.51 463.49 977.76 463.5 978.07 463.6 978.46 463.6 978.9 461.88 981.86 461.44 982.04 460.93 982.09 460.34 982.07 458.49 982.58 457.75 982.64 456.63 982.85 456.06 982.77 455.77 982.52 455.78 982.16 455.82 981.82 455.78 981.52 455.67 981.45 455.48 981.38 454.95 981.35 454.48 981.55 453.83 981.98 453.26 982.2 452.52 982.42 451.95 982.67 451.29 983.16 450.63 983.44 450.13 983.85 448.89 985.06 448.08 986.08 447.76 986.66 446.97 987.6 446.7 988.17 446.64 988.64 446.92 989.39 446.91 989.84 446.6 990.06 446.1 990.15 445.77 990.35 445.58 990.65 445.57 991 445.62 991.4 445.62 991.82 445.42 992.31 445.07 992.55 444.66 992.65 443.69 992.58 443.05 992.66 442.78 992.93 442.77 993.24 442.98 993.52 443.31 993.73 443.6 993.97 443.77 994.28 443.76 994.71 443.54 995.18 443.43 995.54 443.53 995.83 444.18 996.3 444.38 996.66 444.19 996.85 443.8 996.95 443.37 996.96 442.89 997.11 442.76 997.43 442.65 997.91 442.32 998.29 441.81 998.67 440.84 999.21 440.37 999.61 440.01 1000.09 439.71 1000.61 439.34 1001.47 438.74 1002.1 438.49 1002.72 438.15 1003.02 437.73 1003.21 437.18 1003.35 436.48 1003.67 436.12 1004.01 435.85 1004.37 434.53 1006.78 434.22 1008.06 433.88 1008.97 433.61 1009.06 433.41 1009.01 433.19 1008.88 432.77 1008.9 432.13 1009.13 431.39 1009.85 430.9 1010.12 430.53 1010.14 430.18 1010.08 429.93 1010.27 429.71 1010.56 429.41 1011.32 428.91 1012.17 428.47 1012.75 427.5 1014.25 426.31 1015.67 425.2 1016.68 424.28 1017.37 421.37 1018.85 417.18 1019.38 406.83 1019.48 405.94 1019.77 405.43 1020.56 403.76 1027.52 403.48 1028.13 403.04 1028.34 400.94 1028.74 399.39 1029.35 398.55 1029.48 397.99 1029.43 397.07 1028.75 395.53 1027.16 395.2 1026.94 394.76 1026.81 394.18 1026.75 393.36 1026.81 392.79 1026.74 392.31 1026.64 391.59 1026.29 391.34 1026.13 391.18 1025.97 391.17 1025.79 391.89 1019.26 391.89 1018.6 391.84 1018.18 391.69 1017.81 391.43 1017.53 391.09 1017.34 390.28 1017.07 389.93 1016.88 389.65 1016.64 389.46 1016.29 389.24 1015.51 389.09 1015.15 388.87 1014.85 387.88 1014.24 387.57 1014.01 386 1012.42 385.67 1012.23 385.27 1012.09 384.82 1011.98 384.41 1011.84 384.08 1011.65 383.64 1011.21 382.61 1009.48 382.11 1008.44 381.88 1008.15 381.31 1007.66 380.79 1007.13 380.25 1006.11 380.03 1005.81 379.75 1005.58 379.45 1005.38 375.34 1004.21 374.61 1003.87 374 1003.43 373.48 1002.88 372.6 1001.69 372.21 1001.48 371.71 1001.33 370.91 1001.27 369.33 1000.82 366.19 1000.71 365.76 1000.61 365.44 1000.4 365.13 1000.12 364.84 999.74 363.3 999.11 363.02 998.88 362.81 998.57 362.54 997.81 362.26 997.52 361.81 997.36 360.32 997.28 359.87 997.13 359.34 996.59 359.01 996.32 358.37 996.2 357.92 996.04 357.58 995.81 357.45 995.43 357.32 994.56 357.22 994.15 357.02 993.81 356.7 993.52 356.25 993.31 355.59 993.14 355.18 993.26 354.86 993.52 354.56 993.83 354.13 994.13 353.76 994.16 353.44 994 352.94 993.38 352.5 993.12 350.97 992.91 350.43 992.76 350 992.57 349.63 992.67 348.98 993.25 348.65 993.27 348.35 993.12 348.04 992.87 347.64 992.67 347 992.58 345.18 992.03 344.04 991.84 343.61 991.68 342.58 991.11 341.83 990.78 340.96 990.59 340.5 990.42 340.02 990.13 333.67 984.14 333.15 983.75 332.61 983.49 310.39 984.26 292.37 975.12 293.91 962.74 292.37 945.73 289.27 925.62 290.05 906.28 304.74 893.13 317.34 889.47 309.63 874.32 309.13 872.98 309.14 871.84 309.34 870.75 312.94 858.11 312.38 856.1 311.27 852.07 312.74 850 332.52 833.26 333.87 832.73 335.12 832.43 343.72 831.61 344.7 831.35 345.72 830.49 349.2 826.24 351.41 824.74 378.68 810.04 380.2 809.67 381.51 809.52 427.62 811.24 428.74 811.18 429.98 810.95 434.12 809.08 457.12 795.67 474.91 787.94 496.46 794.37 Z" id="TCD-1474" data-name="Guéra"/>
<path d="M 662.38 722.42 656.22 730.08 654.37 733.04 654.27 733.72 656.04 735.35 657.24 736.86 657.5 737.97 657.35 739.14 657.35 740.84 658.7 743.77 663.53 748.18 664.64 751.11 664.69 755.47 665.02 756.92 666.01 758.73 668.69 761.91 669.59 763.64 668.96 766.8 666.28 770.25 659.29 777.49 658.04 778.35 649.91 781.52 648.57 782.25 645.97 784.7 643.78 787.66 637.55 799.29 635.65 804.94 634.44 807.3 634.26 807.77 625.74 804.95 616.46 801.08 609.5 803.41 601.76 808.05 594.8 815.01 590.93 816.55 587.84 815.78 580.1 815.01 571.6 817.33 561.54 813.46 561.54 806.5 560.77 801.08 554.58 800.31 549.16 798.76 548.39 788.71 536.79 788.71 528.28 788.71 519.51 785.15 519.99 784.05 520.25 783.18 520.28 775.24 518.52 761.64 518.65 749.49 518.45 748.8 515.75 744.67 515.15 743.17 514.75 741.41 515.27 725.02 515 724.54 514.23 724.03 497.2 715.59 497.2 704.58 509.16 691.69 513.38 688.3 514.57 687.55 514.93 686.46 515.24 686.01 515.49 685.76 517.34 685.23 517.7 684.96 517.97 684.64 518.5 683.69 519.02 682.97 519.51 682.69 520.04 682.55 521.42 682.46 521.89 682.5 522.79 682.71 523.2 682.85 523.56 683.02 523.93 683.13 524.28 683.12 524.63 682.99 525.33 682.64 525.68 682.52 526.08 682.51 528.73 683.12 529.69 683.25 530.14 683.23 530.58 683.15 534.11 681.37 534.47 681.24 534.83 681.16 538.24 680.74 538.97 680.78 539.53 680.87 552.91 685.22 553.24 685.41 553.86 685.87 554.25 686.08 555.88 686.56 556.3 686.75 556.62 686.96 557.74 687.98 558.35 688.44 558.98 688.76 561.14 689.51 561.45 689.74 561.68 690.03 561.87 690.36 563.47 693.93 565.29 696.34 569.77 700.94 570.11 701.19 570.59 701.38 571.27 701.53 572.15 701.42 572.65 701.44 572.97 701.49 578.34 705.12 585.68 708.71 588.28 709.37 589.7 709.46 590.54 709.32 592.03 708.88 592.75 708.56 594.07 707.79 594.69 707.35 598.17 705.59 600.35 705.19 604.89 704.89 605.93 704.92 626.14 708 651.89 716.44 655.1 718.41 655.44 718.77 657.3 721.6 658.12 722.42 659.12 722.66 660.31 722.65 662.34 722.42 662.38 722.42 Z" id="TCD-1475" data-name="Ouaddaï"/>
<path d="M 227.19 1085.46 227.55 1086.29 228.35 1087.39 228.58 1087.84 229.1 1089.87 229.36 1090.47 229.62 1090.83 229.86 1091.08 231.31 1093.5 232.98 1095.32 233.23 1095.66 233.48 1096.38 233.66 1096.63 234 1096.69 234.99 1096.56 235.3 1096.63 235.55 1097.17 235.65 1098.32 235.82 1098.75 236.23 1099.03 236.66 1099.1 237.06 1099.13 237.38 1099.27 238.46 1100.42 239.09 1101.38 239.37 1102.5 239.44 1104.13 233.11 1113.83 231.37 1115.4 228.58 1116.38 226.92 1116.75 225.24 1117.36 223.93 1118.32 222.98 1121.06 221.86 1121.75 215.99 1122.37 205.21 1125.62 201.7 1128.4 195.85 1131.63 195.06 1131.89 194.53 1132.17 192.71 1134.01 186.1 1137.64 184.21 1139.55 183.45 1142.33 183.49 1142.65 183.41 1143.12 183.12 1143.61 180.47 1146.71 180.1 1146.95 179.55 1147.11 178.34 1147.08 174.28 1146.39 173.62 1146.43 172.94 1146.78 171.39 1147.28 171.08 1147.5 170.84 1147.78 169.96 1149.01 169.13 1149.76 168.82 1149.94 168.44 1150.06 167.04 1150.11 166.62 1150.21 166.26 1150.37 165.62 1150.76 165.3 1150.91 164.98 1151.03 162.14 1151.36 161.7 1151.32 161.32 1151.14 161.11 1150.68 161.04 1149.96 160.74 1149.79 160.14 1149.77 159.11 1149.84 158.62 1149.81 158.18 1149.67 157.84 1149.39 157.64 1148.86 157.59 1148.35 157.67 1147.88 157.98 1147.2 157.86 1146.86 157.41 1146.5 156.44 1146.04 155.77 1145.43 155.39 1144.95 154.96 1144.52 154.33 1144.22 152.95 1143.94 151.15 1143.97 150.27 1143.53 144.86 1139.91 142.15 1138.74 139.16 1136.89 138.99 1135.99 138.62 1134.85 138.52 1134.42 138.47 1133.55 138.54 1132.84 141.64 1119.99 141.91 1119.45 142.47 1118.76 146.69 1114.71 146.9 1114.35 147.05 1113.88 146.96 1112.58 147.14 1110.9 147.1 1110.43 147.01 1109.99 146.67 1108.8 146.58 1107.9 146.72 1105.41 147.03 1103.97 150.11 1094.8 150.9 1094.11 153.61 1093.1 154.86 1094.14 155.51 1094.54 157.04 1095.26 157.74 1095.52 158.64 1095.71 159.62 1095.8 161.62 1095.78 163.58 1095.57 175.68 1092.69 178.56 1093.21 180.44 1093.23 181.3 1092.97 192.56 1087.09 194.32 1086.5 195.88 1086.25 196.75 1086.2 197.42 1086.26 204.92 1088.44 205.35 1088.42 205.9 1088.18 206.51 1087.74 207.44 1086.66 208.48 1084.75 209.15 1083.84 209.68 1083.32 210.28 1082.95 213.09 1081.74 214.81 1081.18 216.49 1080.81 217.26 1080.55 217.78 1080.21 218.4 1079.68 220.59 1077.43 221.29 1077.05 222.32 1077.13 222.93 1078.08 226.07 1081.43 227.03 1083.66 227.08 1084.82 227.19 1085.46 Z" id="TCD-1484" data-name="Logone Occidental"/>
<path d="M 277.9 1089.84 279.35 1094.69 279.5 1095.44 278.85 1111.52 278.32 1113.24 277.7 1114.65 273.6 1120.77 272.49 1122.95 272.67 1123.9 272.93 1124.55 288.86 1148.87 288.86 1149.32 288.63 1149.6 288.29 1149.76 288 1149.99 287.76 1150.28 287.61 1150.66 287.41 1152.08 287.28 1152.49 287.09 1152.82 286.86 1153.12 286.57 1153.36 286.07 1153.91 285.62 1154.52 284.92 1155.92 284.68 1156.21 283.83 1156.92 283.59 1157.22 283.06 1158.28 282.86 1158.6 282.59 1158.87 282.27 1159.07 281.87 1159.16 281.42 1159.15 280.49 1159.02 280.01 1159.02 279.56 1159.07 278.37 1159.41 277 1159.56 276.57 1159.72 276.26 1160 276.03 1160.51 276.13 1160.87 276.35 1161.17 276.6 1161.43 276.84 1161.76 287.65 1185.17 287.67 1185.21 286.68 1186.16 286.21 1187.02 285.95 1188.42 285.45 1188.76 284.84 1188.66 284.25 1188.74 282.88 1190 280.23 1193.21 278.77 1194.59 277.68 1195.29 277.2 1195.25 276.8 1194.82 275.95 1194.36 274.46 1193.86 273.41 1194.76 273.07 1195.45 273.15 1196.1 272.91 1196.44 270.59 1196.05 269.77 1196.12 269.12 1196.57 268.59 1197.48 267.14 1197.33 263.87 1197.83 260.92 1198.68 259.77 1199.32 258.96 1200.3 258.38 1201.81 258.45 1202.33 258.78 1202.67 259.04 1203.04 258.89 1203.63 258.63 1203.76 257.81 1203.64 257.59 1203.63 255.95 1204.99 255.78 1205.13 255.23 1205.44 253.47 1205.63 252.43 1204.94 250.77 1202.19 247.98 1199.07 246.24 1197.7 244.45 1196.82 241.52 1195.97 240.74 1195.14 240.41 1193.48 240.56 1192.55 240.89 1191.79 241.04 1191 240.65 1189.95 240.06 1189.27 239.39 1188.97 238.66 1188.78 237.87 1188.46 236.64 1187.56 235.82 1186.42 235.48 1185.04 235.89 1182.73 235.93 1182.03 235.88 1181.35 235.77 1180.72 232.78 1181.61 231.46 1182.29 230.25 1183.31 229.77 1184.07 228.85 1186.05 228.37 1186.62 227.34 1186.91 226.58 1186.67 225.89 1186.34 225.07 1186.32 223.92 1187.27 223.53 1188.85 223.54 1194 223.23 1195.06 222.3 1195.68 215.63 1196.62 214.05 1197.24 211.43 1199.23 209.91 1200.15 208.27 1200.36 206.53 1200.33 203.97 1201.21 199.15 1201.84 197.47 1202.39 196.21 1203.07 195.14 1204.18 193.48 1206.52 192.37 1207.6 189.91 1209.1 188.55 1209.64 178.6 1211.93 175.91 1212.11 173.01 1211.12 169.11 1207.51 165.8 1207.25 160.28 1208 157.52 1207.82 154.91 1206.99 158.01 1202.98 160.05 1198.84 161.05 1194.34 161.11 1186.6 159.43 1186.26 157.05 1185.72 155.42 1185.65 151.85 1183.04 149.26 1176.81 144.63 1160.57 134.43 1138.92 135.73 1138.3 139.16 1136.89 142.15 1138.74 144.86 1139.91 150.27 1143.53 151.15 1143.97 152.95 1143.94 154.33 1144.22 154.96 1144.52 155.39 1144.95 155.77 1145.43 156.44 1146.04 157.41 1146.5 157.86 1146.86 157.98 1147.2 157.67 1147.88 157.59 1148.35 157.64 1148.86 157.84 1149.39 158.18 1149.67 158.62 1149.81 159.11 1149.84 160.14 1149.77 160.74 1149.79 161.04 1149.96 161.11 1150.68 161.32 1151.14 161.7 1151.32 162.14 1151.36 164.98 1151.03 165.3 1150.91 165.62 1150.76 166.26 1150.37 166.62 1150.21 167.04 1150.11 168.44 1150.06 168.82 1149.94 169.13 1149.76 169.96 1149.01 170.84 1147.78 171.08 1147.5 171.39 1147.28 172.94 1146.78 173.62 1146.43 174.28 1146.39 178.34 1147.08 179.55 1147.11 180.1 1146.95 180.47 1146.71 183.12 1143.61 183.41 1143.12 183.49 1142.65 183.45 1142.33 184.21 1139.55 186.1 1137.64 192.71 1134.01 194.53 1132.17 195.06 1131.89 195.85 1131.63 201.7 1128.4 205.21 1125.62 215.99 1122.37 221.86 1121.75 222.98 1121.06 223.93 1118.32 225.24 1117.36 226.92 1116.75 228.58 1116.38 231.37 1115.4 233.11 1113.83 239.44 1104.13 239.37 1102.5 239.09 1101.38 238.46 1100.42 237.38 1099.27 237.06 1099.13 236.66 1099.1 236.23 1099.03 235.82 1098.75 235.65 1098.32 235.55 1097.17 235.3 1096.63 234.99 1096.56 234 1096.69 233.66 1096.63 233.48 1096.38 233.23 1095.66 232.98 1095.32 231.31 1093.5 229.86 1091.08 229.62 1090.83 229.36 1090.47 229.1 1089.87 228.58 1087.84 228.35 1087.39 227.55 1086.29 227.19 1085.46 228.53 1085.45 233.29 1084.49 235.4 1084.54 237.29 1084.82 240.66 1085.74 243.71 1086.97 244.75 1087.53 248.75 1088.41 251.06 1089.31 263.83 1092.39 265.79 1092.48 269.88 1092.29 277.9 1089.84 Z" id="TCD-1485" data-name="Logone Oriental"/>
<path d="M 210.83 1004.55 211.53 1005.26 212.54 1006.87 212.69 1007.24 212.87 1008.04 212.49 1012.17 212.65 1013.96 211.99 1017.58 210.23 1022.78 206.82 1029.47 206.21 1030.31 192.24 1043.38 191.78 1043.43 191.34 1042.98 187.56 1039.74 185.75 1039.04 183.19 1038.86 182.43 1038.68 181.39 1038.98 172.73 1049.37 172.13 1050.38 171.88 1051.32 169.67 1057.28 169.53 1057.57 169.26 1057.9 163.77 1063.42 162.1 1065.57 161.58 1066.93 160.89 1067.9 160.42 1068.37 159.62 1068.76 159.34 1069.06 158.75 1069.86 158.15 1070.45 157.51 1071.36 156.64 1073.18 156.47 1073.42 154.53 1076.88 154.02 1077.42 153.45 1078.14 152.2 1080.32 151.66 1080.98 146.78 1078.99 141.16 1076.58 135.14 1072.97 128.32 1067.36 125.26 1065.25 123.86 1055.14 120.19 1050.34 120.47 1046.53 118.07 1044.27 113.98 1042.44 110.17 1043.42 102.78 1044.91 98.59 1044.69 97.47 1035.5 98.2 1025.15 101.24 1025.31 110.75 1022.38 114.24 1022.5 118.65 1023.54 120.97 1023.71 123.11 1023.23 123.9 1022.72 125.24 1021.49 126.1 1020.98 126.77 1020.78 130.25 1020.4 134.75 1020.59 147.48 1024.67 151.75 1024.56 168.75 1020.43 170.07 1020.04 166.79 1017.11 164.13 1016.28 159.08 1013.28 155.59 1010.28 155.63 1009.96 154.55 1009.33 151.73 1005.35 141.3 995.77 140.48 994.46 140 992.93 139.84 991.01 139.55 989.52 138.83 988.6 137.83 987.79 136.74 986.59 135.68 983.77 135.01 982.48 133.48 981.78 133.11 981.42 132.6 981.06 131.8 980.9 130.94 980.82 130.1 980.6 129.41 980.27 128.94 979.87 128.45 978.43 128.49 976.56 128.95 974.72 129.71 973.38 129.82 972.18 129.24 970.36 123.46 959.31 123.25 956.46 124.19 953.22 124.45 951.35 123.97 950.02 123.2 948.89 121.13 944.04 120.65 937.56 127.34 935.82 128.83 935.23 129.87 934.7 132.33 932.92 133.96 931.32 134.57 930.89 134.86 930.65 135.35 930.08 135.64 929.84 135.99 929.66 136.41 929.56 136.89 929.55 140.91 929.9 144.44 930.73 145.19 931.05 146.54 931.83 149.19 933.75 149.76 934.02 150.43 934.25 151.19 934.83 151.19 938.57 151.66 939.83 152.78 940.97 154.15 941.89 155.33 942.47 156.6 942.78 157.39 942.88 157.8 943.37 157.92 944.82 158.19 945.81 158.82 947.19 160.03 949.25 160.86 949.93 162 950.6 163.27 951.11 164.5 951.31 166.36 951.3 167.66 951.47 168.87 952.06 170.43 953.33 174.94 957.94 176.42 958.55 179.29 958.84 185.37 960.32 188.29 960.62 190.04 960.45 192.92 959.71 194.31 959.59 198.31 962.23 199.01 962.48 199.88 961.26 201.84 961.61 204.36 962.84 204.64 963.42 204.76 963.75 202.43 985.6 203.79 995.52 204.05 996.46 204.45 997.13 205.3 997.86 205.81 998.23 206.99 998.86 207.32 999.07 207.65 999.46 207.97 1000.01 208.31 1001.14 208.57 1002.45 209.08 1003.33 210.83 1004.55 Z" id="TCD-1486" data-name="Mayo-Kebbi Est"/>
<path d="M 294.92 1033.33 295.75 1033.36 296.28 1033.47 296.73 1033.64 302.33 1036.44 309.55 1041.71 311.15 1043.32 312.26 1044.9 312.46 1045.62 312.31 1046.59 310.83 1050.3 310.6 1050.66 310.38 1050.59 309.7 1049.77 309.4 1049.55 309.05 1049.36 308.27 1049.11 307.67 1048.99 306.96 1048.75 306.24 1048.37 305.96 1048.13 305.72 1047.85 305.29 1047.25 305.05 1046.97 304.78 1046.71 304.44 1046.51 304.03 1046.39 303.57 1046.37 303.15 1046.42 302.38 1046.7 300.48 1047.79 300.28 1047.87 299.95 1047.96 299.12 1048.04 297.68 1047.97 297.25 1048.03 296.77 1048.17 296.3 1048.39 295.24 1049.03 293.2 1049.67 292.76 1049.74 289.24 1049.57 288.55 1049.83 287.7 1050.29 286.13 1051.44 285.45 1052.09 285.02 1052.65 284.93 1053.06 284.93 1053.49 285.07 1053.86 285.67 1054.3 285.93 1054.57 286.06 1054.95 286.21 1055.82 286.39 1056.15 286.49 1056.7 286.44 1057.56 285.8 1059.53 285.63 1060.92 285.62 1062.19 285.93 1064.26 285.98 1065.19 285.87 1065.89 285.26 1066.55 275.41 1074.26 274.75 1075.18 275.16 1075.98 275.96 1076.77 283.05 1082 283.78 1082.7 284.02 1083.27 283.61 1084 277.9 1089.84 269.88 1092.29 265.79 1092.48 263.83 1092.39 251.06 1089.31 248.75 1088.41 244.75 1087.53 243.71 1086.97 240.66 1085.74 237.29 1084.82 235.4 1084.54 233.29 1084.49 228.53 1085.45 227.19 1085.46 227.08 1084.82 227.03 1083.66 226.07 1081.43 222.93 1078.08 222.32 1077.13 221.29 1077.05 220.59 1077.43 218.4 1079.68 217.78 1080.21 217.26 1080.55 216.49 1080.81 214.81 1081.18 213.09 1081.74 210.28 1082.95 209.68 1083.32 209.15 1083.84 208.48 1084.75 207.44 1086.66 206.51 1087.74 205.9 1088.18 205.35 1088.42 204.92 1088.44 197.42 1086.26 196.75 1086.2 195.88 1086.25 194.32 1086.5 192.56 1087.09 181.3 1092.97 180.44 1093.23 178.56 1093.21 175.68 1092.69 163.58 1095.57 161.62 1095.78 159.62 1095.8 158.64 1095.71 157.74 1095.52 157.04 1095.26 155.51 1094.54 154.86 1094.14 153.61 1093.1 152.74 1091.34 152.55 1090.02 152.49 1086.07 152.68 1084.35 152.65 1083.7 152.25 1081.96 152.11 1081.59 151.96 1081.29 151.69 1081.18 151.63 1081.1 151.66 1080.98 152.2 1080.32 153.45 1078.14 154.02 1077.42 154.53 1076.88 156.47 1073.42 156.64 1073.18 157.51 1071.36 158.15 1070.45 158.75 1069.86 159.34 1069.06 159.62 1068.76 160.42 1068.37 160.89 1067.9 161.58 1066.93 162.1 1065.57 163.77 1063.42 169.26 1057.9 169.53 1057.57 169.67 1057.28 171.88 1051.32 172.13 1050.38 172.73 1049.37 181.39 1038.98 182.43 1038.68 183.19 1038.86 185.75 1039.04 187.56 1039.74 191.34 1042.98 191.78 1043.43 192.24 1043.38 206.21 1030.31 206.82 1029.47 210.23 1022.78 211.99 1017.58 212.65 1013.96 212.49 1012.17 212.87 1008.04 212.69 1007.24 212.54 1006.87 211.53 1005.26 210.83 1004.55 227.56 1004.77 232.14 1003.92 236.8 1000.38 237.25 1000.32 237.59 1000.46 237.83 1000.74 238.04 1001.05 238.22 1001.39 238.43 1001.7 238.68 1001.98 239.56 1002.68 239.82 1002.94 240.04 1003.24 240.19 1003.61 240.28 1004.03 240.33 1005.98 240.18 1007.93 240.25 1008.37 240.42 1008.7 241.23 1009.48 241.4 1009.82 241.77 1011.49 241.95 1011.84 242.16 1012.14 242.41 1012.41 243 1012.88 248.1 1015.38 248.57 1015.71 248.89 1016.06 249.16 1016.46 249.54 1016.87 250.26 1017.38 250.81 1017.57 251.3 1017.6 252.47 1017.49 254.48 1017.69 255.13 1017.95 256.45 1018.8 257.11 1019.05 258.6 1019.37 260.86 1019.37 261.08 1019.54 261.28 1019.77 261.69 1020.38 262.27 1020.86 263.27 1021.46 263.55 1021.7 264.09 1023.11 264.67 1023.78 265.18 1024.04 265.71 1024.14 269.52 1023.88 269.95 1023.81 272.15 1024 274.91 1024.57 276.27 1024.99 277.05 1025.37 277.23 1025.74 277.54 1025.89 277.86 1025.86 278.77 1025.61 279.4 1025.55 279.82 1025.67 280.17 1025.87 280.42 1026.15 281.38 1028.28 281.58 1028.6 281.79 1028.9 282.38 1029.37 285.05 1030.67 286.49 1031.57 287.2 1032.12 287.76 1032.31 288.26 1032.34 289.38 1032.2 290.39 1032.31 291.46 1032.66 292.52 1033.15 293.22 1033.34 293.79 1033.41 294.92 1033.33 Z" id="TCD-1487" data-name="Tandjilé"/>
<path d="M 310.6 1050.66 313.84 1052.8 315.91 1056.02 317.3 1060.86 323.97 1060.63 325.59 1062.47 327.2 1065.46 329.27 1070.3 330.19 1073.06 334.57 1074.44 340.32 1077.44 345.39 1079.97 351.61 1080.2 356.44 1080.89 358.24 1083 357.35 1083.81 356.78 1084.14 356.45 1086.44 354.84 1089.35 352.64 1092.01 350.57 1093.54 349.29 1093.7 348.24 1093.54 347.41 1093.86 346.03 1095.17 344.92 1094.5 344.49 1093.87 344.02 1093.77 343.24 1094.57 342.3 1102.61 342.63 1103.05 342.8 1103.37 342.77 1103.88 342.21 1104.3 341.73 1104.4 341.34 1105.11 340.97 1105.75 341.21 1106.51 342.45 1107.11 345.15 1108.47 346.78 1110 347.44 1112.49 346.78 1114.73 346.26 1119.06 346.65 1123.79 348.1 1127.21 350.85 1129.04 352.43 1131.41 352.56 1135.48 353.61 1138.77 355.45 1142.18 355.85 1145.2 355.58 1150.46 355.32 1154.66 356.5 1159.39 357.55 1164.77 358.99 1169.21 351.04 1169.42 343.98 1171.09 337.97 1173.34 335.01 1173.87 331.86 1173.75 321.45 1172 320.09 1171.91 318.43 1172.01 316.97 1172.48 315.41 1174.63 313.95 1175.37 312.36 1175.82 309.64 1176.1 308.11 1176.46 306.87 1177.35 306.19 1179.07 305.28 1179.65 301.71 1178.58 300.71 1179.73 299.18 1180.69 288.96 1184.29 287.73 1185.14 287.67 1185.21 287.65 1185.17 276.84 1161.76 276.6 1161.43 276.35 1161.17 276.13 1160.87 276.03 1160.51 276.26 1160 276.57 1159.72 277 1159.56 278.37 1159.41 279.56 1159.07 280.01 1159.02 280.49 1159.02 281.42 1159.15 281.87 1159.16 282.27 1159.07 282.59 1158.87 282.86 1158.6 283.06 1158.28 283.59 1157.22 283.83 1156.92 284.68 1156.21 284.92 1155.92 285.62 1154.52 286.07 1153.91 286.57 1153.36 286.86 1153.12 287.09 1152.82 287.28 1152.49 287.41 1152.08 287.61 1150.66 287.76 1150.28 288 1149.99 288.29 1149.76 288.63 1149.6 288.86 1149.32 288.86 1148.87 272.93 1124.55 272.67 1123.9 272.49 1122.95 273.6 1120.77 277.7 1114.65 278.32 1113.24 278.85 1111.52 279.5 1095.44 279.35 1094.69 277.9 1089.84 283.61 1084 284.02 1083.27 283.78 1082.7 283.05 1082 275.96 1076.77 275.16 1075.98 274.75 1075.18 275.41 1074.26 285.26 1066.55 285.87 1065.89 285.98 1065.19 285.93 1064.26 285.62 1062.19 285.63 1060.92 285.8 1059.53 286.44 1057.56 286.49 1056.7 286.39 1056.15 286.21 1055.82 286.06 1054.95 285.93 1054.57 285.67 1054.3 285.07 1053.86 284.93 1053.49 284.93 1053.06 285.02 1052.65 285.45 1052.09 286.13 1051.44 287.7 1050.29 288.55 1049.83 289.24 1049.57 292.76 1049.74 293.2 1049.67 295.24 1049.03 296.3 1048.39 296.77 1048.17 297.25 1048.03 297.68 1047.97 299.12 1048.04 299.95 1047.96 300.28 1047.87 300.48 1047.79 302.38 1046.7 303.15 1046.42 303.57 1046.37 304.03 1046.39 304.44 1046.51 304.78 1046.71 305.05 1046.97 305.29 1047.25 305.72 1047.85 305.96 1048.13 306.24 1048.37 306.96 1048.75 307.67 1048.99 308.27 1049.11 309.05 1049.36 309.4 1049.55 309.7 1049.77 310.38 1050.59 310.6 1050.66 Z" id="TCD-1488" data-name="Mandoul"/>
<path d="M 483.56 861.3 484.64 863.17 484.93 864.23 485.4 868.31 485.66 869.12 486.03 869.65 486.48 869.79 487.16 869.86 489.16 869.75 492.65 869.86 493.18 869.81 493.55 869.65 493.71 869.32 493.75 868.88 492.99 864.6 492.99 863.62 493.11 863.15 493.4 862.76 494.18 862.58 514 861.96 516.17 862.4 517.84 862.99 536.67 875.51 575.15 894.43 592.75 898.46 635.14 890.76 636.47 890.74 637.6 891.14 640.57 892.86 652.18 896.29 653.84 897.42 654.95 898.58 676.28 947.04 676.3 947.09 676.31 947.11 676.04 947.15 674.4 947.6 672.84 948.23 671.86 948.74 670.45 950 669.63 950.56 669.02 950.53 667.86 950.05 666.88 950.76 666.06 951.82 663.89 953.58 663.06 955.96 662.05 957.56 659.92 956.46 658.72 956.62 652.37 955.98 650.92 956.61 650.08 958.04 649.55 959.6 649.06 960.64 649.8 962.23 648.98 963.08 644.38 964.22 643.06 964.84 640.74 966.42 639 968.06 638.72 968.16 638.36 968.79 637.54 968.62 636.03 967.88 635.25 967.97 633.81 968.36 633.19 968.45 632.39 968.68 631.93 969.22 631.59 969.76 631.15 970 630.01 970.09 628.73 970.44 627.68 971.15 627.24 972.34 627.08 973.83 626.38 976.07 626.22 977.54 626.38 979.08 627.08 981.99 627.24 983.23 627.52 983.93 628.85 985.45 629.32 986.12 629.33 986.63 629.21 987.13 629.27 987.65 629.83 988.19 627.52 992.05 627.24 993.64 627.31 994.46 627.64 995.58 627.71 996.21 627.39 996.91 626.64 997.15 625.77 997.23 625.13 997.5 624.22 998.99 623.61 1000.51 622.65 1001.68 620.71 1002.16 620.31 1002.38 617.89 1003.13 617.61 1002.98 616.82 1003.3 615.87 1003.14 614.94 1002.82 614.22 1002.72 611.82 1004.19 609.71 1006.94 605.77 1015.89 603.76 1018.96 601.3 1021.42 598.66 1022.42 597.64 1022.2 594.54 1021 593.49 1020.35 592.4 1021.22 588.52 1025.68 587.97 1026.73 587.75 1027.92 587.13 1028.08 582.94 1030.79 582.16 1032.11 581.03 1034.88 580.97 1035.15 581.03 1036.19 580.91 1036.5 580.64 1036.48 580.29 1036.4 580 1036.48 579.03 1037.36 578.49 1037.74 577.93 1037.98 577.66 1037.85 576.95 1037.12 576.61 1036.94 576.18 1037.03 575.98 1037.2 575.9 1037.4 575.81 1037.51 575.39 1037.71 574.88 1038.07 574.45 1038.48 574.26 1038.8 574.02 1040.25 572.95 1042.3 572.71 1043.46 572.65 1046.02 572.18 1046.98 571.11 1047.34 571.11 1047.85 571.44 1048.17 571.56 1048.41 571.67 1049.4 570.49 1048.88 570.09 1049.16 569.95 1049.82 569.61 1050.48 567.96 1051.42 567.27 1051.98 566.98 1052.79 566.33 1053.9 563.42 1057.07 562.62 1057.73 560.93 1058.44 560.39 1060.1 560.27 1062.01 559.78 1063.46 559.33 1063.6 558.85 1063.4 558.8 1063.38 558.3 1063.06 557.94 1062.89 557.66 1063.06 557.22 1063.77 556.91 1063.93 556.02 1064.24 555.6 1064.98 555.27 1065.85 554.61 1066.56 554.04 1066 553.32 1066.56 549.9 1067.6 546.8 1069.15 547.79 1072.25 543.91 1072.25 543.38 1072.19 542.11 1071.78 542.06 1071.79 540.64 1071.71 540.55 1071.78 538.93 1070.87 538.24 1070.77 537.96 1071.5 537.89 1072.47 537.62 1073.19 537.07 1073.65 536.15 1073.81 534.78 1074.61 535.27 1076.39 536.05 1078.17 535.62 1078.97 533.69 1079.63 532.62 1081.18 531.69 1083.06 530.16 1084.67 529.24 1084.28 528.44 1084.37 527.72 1084.75 526.32 1085.77 525.85 1086.03 524.42 1086.31 518.17 1085.98 516.66 1086.31 514.96 1084.94 514.09 1084.38 513.3 1084.15 512.19 1084.49 510.04 1085.97 508.91 1086.31 507.62 1085.9 506.72 1084.99 506.07 1084.09 505.5 1083.68 504.85 1083.91 504.74 1084.44 504.81 1084.97 504.72 1085.23 504.06 1085.2 503.03 1084.77 502.4 1084.67 501.78 1084.95 499.56 1086.78 499.35 1087.21 499.46 1087.63 499.5 1088.02 499.04 1088.33 498.56 1088.23 498.29 1087.07 497.72 1086.78 497.42 1086.91 497.16 1087.23 496.98 1087.66 496.92 1088.1 496.67 1088.72 496.1 1088.83 495.42 1088.75 494.85 1088.85 492.91 1090.14 492.05 1090.33 492.05 1090.31 470.76 1024.83 465.09 1014.5 464.78 1013.66 464.95 1013.15 465.15 1012.77 465.42 1012.47 465.69 1012.23 467.02 1011.46 467.24 1011.15 467.3 1010.68 467.12 1009.97 467.05 1009.44 467.16 1008.93 467.63 1008.44 467.95 1008.05 468.09 1007.58 467.98 1006.88 468.02 1006.32 468.39 1005.28 468.57 1004.88 468.79 1004.57 469.32 1004.05 469.57 1003.66 469.77 1003.14 470 1002.32 470.04 1001.43 469.84 1000.32 469.07 998.28 468.13 997.24 467.35 992.18 471.32 972.54 472.74 965.98 471.88 952.86 471.97 951.51 472.53 951.02 473.74 950.15 473.94 949.87 473.94 949.49 473.59 948.94 473.18 948.66 472.72 948.49 472.27 948.38 471.9 948.21 471.57 947.82 471.24 947.27 470.76 946.26 469.66 944.74 469.4 944.47 469.06 944.27 468.66 944.12 467.76 943.93 467.05 943.64 466.98 943.6 466.5 943.04 466.21 942.81 465.84 942.63 465.42 942.51 464.49 942.33 464.07 942.22 463.69 942.04 463.39 941.83 463.1 941.58 462.46 941.16 462.06 941.02 461.33 940.67 460.94 940.53 460.51 940.52 460.07 940.55 459.39 940.72 459.14 940.74 458.78 940.67 458.43 940.54 458.08 940.34 457.78 940.11 457 939.31 456.71 939.06 456.36 938.9 455.94 938.79 455.51 938.79 455.09 938.85 453.86 939.17 453.42 939.23 452.45 939.15 451.57 938.93 451.2 938.77 450.86 938.57 450.57 938.3 450.34 938 449.55 936.67 449.31 936.36 449.06 936.09 448.73 935.87 448.33 935.73 447.88 935.67 447.42 935.69 446.18 935.93 445.74 935.91 445.35 935.79 442.46 934.35 442.17 934.12 441.44 933.26 441.15 933.04 440.8 932.84 440.41 932.7 439 932.45 438.56 932.34 438.16 932.18 437.2 931.56 435.95 931.16 435.21 930.82 434.93 930.56 434.68 930.3 434.39 930.06 434 929.91 433.56 929.83 432.18 929.78 431.75 929.69 431.41 929.5 429.9 928.35 428.88 927.76 428.48 927.62 427.14 927.31 426.78 927.12 426.53 926.86 426.35 926.51 426.15 926.21 425.87 925.96 425.47 925.82 424.07 925.58 423.75 925.44 420.67 923.58 419.52 922.61 419.19 922.41 418.43 922.09 417.98 921.98 417.6 921.82 417.25 921.63 416.99 921.36 416.79 921.05 416.48 920.33 416.29 920.01 416.02 919.77 415.63 919.62 414.7 919.54 414.29 919.46 413.97 919.27 413.77 918.96 413.61 918.6 413.4 918.28 413.09 918.06 412.69 917.91 411.24 917.7 410.88 917.48 410.66 917.1 410.55 916.46 410.42 915.99 410 915.28 409.86 914.82 409.81 914.13 411.24 892.14 411.42 891.19 411.83 890.42 412.86 890.13 421.15 890 421.67 890.09 422.38 890.37 422.86 891.13 424.94 896.23 425.43 896.93 426.1 897 427.04 896.76 433.72 894.27 434.75 893.61 435.9 892.61 443.1 879.63 443.51 878.59 443.7 877.52 443.26 876.35 438.06 867.94 450.96 855.85 454.43 856.39 470.08 860.49 483.56 861.3 Z" id="TCD-1489" data-name="Salamat"/>
<path d="M 121.54 863.68 121.56 862.77 121.85 861.95 122.21 861.48 120.77 860.25 119.36 859.66 119.49 857.74 120.1 856.14 121.21 854.67 122.26 854.19 124.1 854.31 125.2 855.17 126.61 856.22 127.47 857.69 127.96 859.29 127.75 861.02 126.4 862.5 125.17 863.24 123.7 863.48 121.54 863.68 Z" id="TCD-4857" data-name="Ville de N&apos;Djamena"/>
<path d="M 98.2 1025.15 97.47 1035.5 98.59 1044.69 102.78 1044.91 110.17 1043.42 113.98 1042.44 118.07 1044.27 120.47 1046.53 120.19 1050.34 123.86 1055.14 125.26 1065.25 128.32 1067.36 135.14 1072.97 141.16 1076.58 146.78 1078.99 151.66 1080.98 151.63 1081.1 151.69 1081.18 151.96 1081.29 152.11 1081.59 152.25 1081.96 152.65 1083.7 152.68 1084.35 152.49 1086.07 152.55 1090.02 152.74 1091.34 153.61 1093.1 150.9 1094.11 150.11 1094.8 147.03 1103.97 146.72 1105.41 146.58 1107.9 146.67 1108.8 147.01 1109.99 147.1 1110.43 147.14 1110.9 146.96 1112.58 147.05 1113.88 146.9 1114.35 146.69 1114.71 142.47 1118.76 141.91 1119.45 141.64 1119.99 138.54 1132.84 138.47 1133.55 138.52 1134.42 138.62 1134.85 138.99 1135.99 139.16 1136.89 135.73 1138.3 134.43 1138.92 132.38 1134.58 131.23 1133.11 126.86 1128.82 123.66 1123.62 122.4 1122.11 120.84 1120.98 118.91 1120.38 116.08 1119.96 115.07 1119.65 114.79 1119.15 114.79 1118.45 114.61 1117.53 113.93 1115.61 113.5 1114.9 112.96 1114.44 112.4 1114.24 111.9 1113.88 111.52 1112.94 110.85 1112.22 107.86 1110.03 106.81 1109.45 106.1 1109.29 105.44 1109.28 104.77 1109.4 104.07 1109.63 102.85 1109.25 86.03 1095.81 69.2 1082.38 67.81 1079.96 67.06 1076.71 45.49 1052.05 38.75 1046.82 38.63 1045.69 43.23 1039.13 49.42 1033.8 51.8 1030.59 55.48 1023.34 55.65 1022.58 55.69 1021.84 55.87 1021.27 56.48 1021.04 57.59 1020.96 76.09 1019.74 98.2 1025.15 Z" id="TCD-4858" data-name="Mayo-Kebbi Ouest"/>
<path d="M 435.53 120.72 443.24 124.53 452.59 129.15 461.95 133.77 471.31 138.39 480.66 143.01 490.02 147.63 499.38 152.25 508.73 156.87 518.09 161.49 527.45 166.1 536.8 170.73 546.16 175.35 555.52 179.97 564.86 184.59 497.52 316.5 508.75 361.43 529.35 415.71 529.35 441.92 527.47 475.62 519.99 507.44 538.71 559.86 545.45 576.74 533.82 586.75 526.94 587.64 523.94 588.94 520.25 589.94 519.79 589.99 519.3 589.98 518.24 589.63 511.05 586.29 507.27 583.59 505.75 582.78 503.28 582.07 497.2 581.28 486.88 580.16 482.89 579.09 479.96 577.74 470.71 574.99 464.75 574 463.49 573.51 453.53 567.33 452.49 566.23 451.87 565.28 451.69 564.89 451.56 564.46 450.57 557.41 450.19 555.78 449.89 555.3 449.43 554.8 448.5 553.98 447.92 553.59 447.39 553.33 444.8 552.57 443.85 552.45 443.38 552.46 441.95 552.75 441.15 552.7 440.65 552.41 439.47 551.33 438.7 551.12 438.17 551.14 437.85 551.37 437.74 551.78 438.06 559.39 437.33 568.52 437.16 569.45 431.33 585.3 429.08 589.53 425.01 594.1 416.56 601.11 413.3 603.15 405.64 606.53 390.56 611.08 388.34 611.53 382.06 611.58 366.21 607.97 361.54 606.02 352.14 600.38 345.17 593.96 338.82 587.03 335.37 581.84 334.74 581.23 333.8 580.62 245.07 539.01 155.23 496.88 153.96 496.36 154.22 495.47 154.38 493.55 154.69 490.09 155 486.64 155.3 483.18 155.6 479.73 214.77 375.55 256.17 302.66 297.22 230.38 300.96 209.79 323.42 209.79 332.78 207.92 342.14 198.56 357.12 191.07 385.2 181.71 402.05 176.1 403.92 159.25 402.05 140.53 400.18 121.81 415.17 110.67 424.54 115.29 433.88 119.91 435.53 120.72 Z" id="TCD-5577" data-name="Borkou"/>
<path d="M 415.17 110.67 400.18 121.81 402.05 140.53 403.92 159.25 402.05 176.1 385.2 181.71 357.12 191.07 342.14 198.56 332.78 207.92 323.42 209.79 300.96 209.79 297.22 230.38 256.17 302.66 214.77 375.55 155.6 479.73 155.91 476.28 156.21 472.82 156.52 469.36 156.82 465.9 157.14 462.45 157.44 458.99 157.75 455.54 158.05 452.08 158.36 448.63 158.66 445.17 158.97 441.72 159.27 438.26 159.57 434.8 159.88 431.34 160.19 427.89 160.5 424.43 160.8 420.98 161.11 417.52 161.41 414.07 161.47 413.41 161.72 410.61 162.02 407.16 162.33 403.7 162.64 400.24 162.95 396.79 163.24 393.34 163.55 389.88 163.85 386.42 164.16 382.97 164.46 379.51 164.77 376.05 165.07 372.6 165.39 369.14 165.69 365.69 166 362.23 166.3 358.78 166.61 355.32 166.91 351.86 167.21 348.41 167.52 344.95 167.82 341.5 168.14 338.04 168.44 334.59 168.75 331.13 169.05 327.68 169.36 324.22 169.66 320.77 169.97 317.31 170.27 313.85 170.58 310.4 170.89 306.94 171.19 303.49 171.49 300.03 171.8 296.58 172.1 293.12 172.41 289.66 172.72 286.21 173.02 282.75 173.33 279.3 173.64 275.84 173.94 272.39 174.22 269.23 176.58 263.28 177.73 261.32 180.76 256.09 183.79 250.87 186.82 245.64 189.86 240.41 191.41 237.74 191.97 236.45 191.8 235.2 190.73 233.55 188.94 231.68 184.52 227.07 180.11 222.45 175.7 217.84 171.28 213.23 169.18 211.03 163.02 206.42 161.66 204.97 160.59 203.32 159.69 201.4 159.07 197.99 159.7 194.49 161.57 191.56 164.62 189.91 163.37 188.09 162.11 186.23 160.83 184.38 159.56 182.52 158.3 180.67 157.03 178.81 155.75 176.95 154.49 175.1 153.22 173.24 151.95 171.39 150.69 169.53 149.41 167.68 148.14 165.82 146.87 163.97 145.61 162.11 144.33 160.26 143.07 158.4 141.27 155.78 138.66 152.8 137.21 151.84 133.64 150.09 132.45 148.97 132.13 147.75 132.11 145.77 132.09 144.27 132.01 140.33 131.91 134.75 131.8 128.35 131.69 121.95 131.59 116.37 131.53 112.43 131.5 110.93 130.93 107.88 130.31 104.66 129.69 101.44 128.77 96.7 127.87 91.95 126.96 87.21 126.04 82.46 125.13 77.72 124.22 72.97 123.32 68.23 122.4 63.48 121.49 58.73 120.59 53.99 119.67 49.25 118.77 44.5 117.86 39.75 116.95 35.01 118.28 34.4 122.65 32.42 127.02 30.44 131.37 28.45 135.75 26.48 140.12 24.5 144.49 22.52 148.85 20.54 153.22 18.56 157.59 16.58 161.97 14.6 166.34 12.62 170.7 10.64 175.06 8.66 179.43 6.68 183.8 4.7 188.17 2.72 191.54 1.19 193.09 1 199.98 4.42 209.35 9.03 218.69 13.65 228.06 18.27 237.41 22.89 246.77 27.52 256.12 32.14 265.48 36.75 274.83 41.37 284.19 45.99 293.55 50.61 302.9 55.23 312.26 59.85 321.61 64.47 330.97 69.09 340.32 73.71 349.68 78.33 359.04 82.95 368.4 87.57 377.75 92.19 387.11 96.81 396.46 101.43 405.82 106.05 415.17 110.67 Z" id="TCD-5578" data-name="Tibesti"/>
<path d="M 798.77 300.09 798.78 317.68 798.8 335.28 798.81 352.87 798.83 370.46 798.84 388.06 798.85 405.65 798.87 423.24 798.88 440.84 798.9 458.43 798.91 476.03 798.93 493.62 798.95 511.22 798.95 528.81 798.97 546.41 798.99 564 799 581.6 799 585.97 799 586.03 798.11 588.31 796.06 588.22 787.23 585.28 778.03 583.93 769.33 583.92 764.36 584.97 754.42 588.51 748.72 589.05 737.07 586.65 733.47 587.08 733.46 587.06 733.38 586.85 729.71 581.21 729.45 580.93 729.15 580.7 728.79 580.51 724.26 578.81 722.48 578.45 721.88 578.42 721.19 578.47 720.18 578.7 719.59 578.9 718.05 579.6 716.48 580.12 715.61 580.26 715.01 580.25 714.33 580.16 713.3 579.86 712.73 579.62 712.28 579.37 711.9 579.21 709.98 578.95 709.55 578.81 709.18 578.64 707.66 577.47 707.32 577.26 706.83 577.14 706.2 577.15 705.24 577.39 703.79 577.91 703.17 577.95 701 577.77 699.37 577.8 696.71 578.22 694.4 578.34 693.53 578.49 693.13 578.63 692.1 579.17 691.68 579.29 691.17 579.33 690.42 579.12 689.94 578.91 689.63 578.59 689.47 578.25 689.34 577.87 689.15 577.53 688.87 577.28 688.52 577.08 688.21 576.84 688.01 576.51 687.74 575.76 687.58 575.41 687.32 575.15 686.97 575 686.4 574.81 686.1 574.65 685.82 574.43 685.56 574.15 685.36 573.84 684.94 572.63 684.67 572.11 684.34 571.81 681.38 570.81 680.39 570.67 678.74 570.09 678.39 569.89 678.09 569.65 677.55 569.14 677.22 568.92 676.78 568.81 676.19 568.79 675.66 568.83 675.02 569.18 674.23 569.71 673.88 569.89 672.72 570.29 672.31 570.39 671.73 570.45 671.03 570.44 669.87 570.27 669.21 570.1 668.3 569.76 667.57 569.4 664.51 567.06 662.42 565.03 662.28 564.93 662.11 564.92 661.81 565 661.29 565.35 660.38 566.25 660.02 566.42 659.61 566.5 657.64 565.97 655.71 565.63 653.3 565.59 650.07 565.97 648.01 566.59 646.26 567.57 642.78 569.02 642.32 569.11 641.76 569.11 640.39 568.74 636.92 567.14 630.71 565.04 630.32 564.95 629.14 564.86 628.37 564.92 625.6 565.51 621.67 566.73 602.39 570.68 601.58 570.92 597.13 573.32 596.62 573.4 596.04 573.4 595.17 573.23 586.75 569.76 581.39 566.41 580.69 566.07 580.26 566.03 579.87 566.13 578.77 566.79 576.97 568.32 575.62 569.07 571.19 570.3 569.82 571.06 569.2 571.51 568.66 572.05 568.44 572.36 567.1 574.79 566.16 576 565.09 577.07 560.28 580.1 547.21 584.83 544.54 586.29 542.42 587.84 541.69 588.18 540.16 588.73 539.49 588.73 538.61 588.6 536.92 588.03 535.55 587.4 534.85 586.94 534.43 586.81 533.82 586.75 545.45 576.74 538.71 559.86 519.99 507.44 527.47 475.62 529.35 441.92 529.35 415.71 508.75 361.43 497.52 316.5 564.86 184.59 574.23 189.21 583.57 193.83 592.94 198.45 602.29 203.07 611.65 207.69 621 212.31 630.37 216.93 639.71 221.55 649.08 226.17 658.43 230.79 667.79 235.41 677.14 240.02 686.5 244.65 695.85 249.27 705.21 253.89 714.56 258.51 723.92 263.13 733.28 267.74 742.63 272.37 751.99 276.98 761.34 281.6 770.7 286.23 780.05 290.85 789.41 295.47 798.77 300.09 Z" id="TCD-5579" data-name="Ennedi"/>
<path d="M 290.05 906.28 289.27 925.62 292.37 945.73 293.91 962.74 292.37 975.12 310.39 984.26 294.92 1033.33 293.79 1033.41 293.22 1033.34 292.52 1033.15 291.46 1032.66 290.39 1032.31 289.38 1032.2 288.26 1032.34 287.76 1032.31 287.2 1032.12 286.49 1031.57 285.05 1030.67 282.38 1029.37 281.79 1028.9 281.58 1028.6 281.38 1028.28 280.42 1026.15 280.17 1025.87 279.82 1025.67 279.4 1025.55 278.77 1025.61 277.86 1025.86 277.54 1025.89 277.23 1025.74 277.05 1025.37 276.27 1024.99 274.91 1024.57 272.15 1024 269.95 1023.81 269.52 1023.88 265.71 1024.14 265.18 1024.04 264.67 1023.78 264.09 1023.11 263.55 1021.7 263.27 1021.46 262.27 1020.86 261.69 1020.38 261.28 1019.77 261.08 1019.54 260.86 1019.37 258.6 1019.37 257.11 1019.05 256.45 1018.8 255.13 1017.95 254.48 1017.69 252.47 1017.49 251.3 1017.6 250.81 1017.57 250.26 1017.38 249.54 1016.87 249.16 1016.46 248.89 1016.06 248.57 1015.71 248.1 1015.38 243 1012.88 242.41 1012.41 242.16 1012.14 241.95 1011.84 241.77 1011.49 241.4 1009.82 241.23 1009.48 240.42 1008.7 240.25 1008.37 240.18 1007.93 240.33 1005.98 240.28 1004.03 240.19 1003.61 240.04 1003.24 239.82 1002.94 239.56 1002.68 238.68 1001.98 238.43 1001.7 238.22 1001.39 238.04 1001.05 237.83 1000.74 237.59 1000.46 237.25 1000.32 236.8 1000.38 232.14 1003.92 227.56 1004.77 210.83 1004.55 209.08 1003.33 208.57 1002.45 208.31 1001.14 207.97 1000.01 207.65 999.46 207.32 999.07 206.99 998.86 205.81 998.23 205.3 997.86 204.45 997.13 204.05 996.46 203.79 995.52 202.43 985.6 204.76 963.75 204.64 963.42 204.36 962.84 201.84 961.61 199.88 961.26 199.01 962.48 198.31 962.23 194.31 959.59 192.92 959.71 190.04 960.45 188.29 960.62 185.37 960.32 179.29 958.84 176.42 958.55 174.94 957.94 170.43 953.33 168.87 952.06 167.66 951.47 166.36 951.3 164.5 951.31 163.27 951.11 162 950.6 160.86 949.93 160.03 949.25 158.82 947.19 158.19 945.81 157.92 944.82 157.8 943.37 157.39 942.88 156.6 942.78 155.33 942.47 154.15 941.89 152.78 940.97 151.66 939.83 151.19 938.57 151.19 934.83 150.43 934.25 149.76 934.02 149.19 933.75 146.54 931.83 145.19 931.05 144.44 930.73 140.91 929.9 136.89 929.55 136.41 929.56 135.99 929.66 135.64 929.84 135.35 930.08 134.86 930.65 134.57 930.89 133.96 931.32 132.33 932.92 129.87 934.7 128.83 935.23 127.34 935.82 120.65 937.56 120.08 929.81 120.61 925.12 120.99 923.92 122.74 921.41 123.25 920.16 123.18 919.4 122.85 918.99 122.45 918.66 122.21 918.09 122.21 917.22 122.58 916.06 123.06 912.12 123.54 910.65 124.23 909.3 127.73 905.52 128.74 903.43 127.85 900.98 125.72 898.33 124.92 896.99 123.72 893.58 123.51 892.08 123.64 890.61 124.23 888.99 124.52 888.9 125.01 888.93 125.52 888.88 125.83 888.52 125.74 888.03 124.93 887.28 124.8 886.97 125.22 886.25 126.45 885.11 126.87 884.34 125.01 879.97 124.52 879.16 123.22 878.99 122.33 878.37 121.81 877.18 121.65 875.29 122.03 874.69 122.75 874.07 123.27 873.4 122.97 872.68 122.68 872.25 122.3 871.46 122.13 870.71 122.45 870.37 124.62 870.04 124.29 869.19 122.99 868.09 122.21 866.99 122.35 866.06 122.53 865.48 122.49 865.01 121.93 864.4 121.54 863.68 123.7 863.48 125.17 863.24 126.4 862.5 127.75 861.02 127.96 859.29 127.47 857.69 126.61 856.22 125.2 855.17 124.1 854.31 122.26 854.19 121.21 854.67 120.1 856.14 119.49 857.74 119.36 859.66 118 859.81 116.71 860.76 115.8 860.89 114.74 860.06 113.07 858.15 111.13 856.84 110.74 856.32 110.5 855.21 110.89 854.88 111.46 854.75 111.77 854.25 111.66 853.47 111.34 853.07 110.96 852.74 110.74 852.18 110.74 851.27 111.13 850 111.26 849.08 111.26 849.06 118.33 848.27 123.74 848.27 130.71 846.72 138.44 845.17 141.53 842.08 146.18 842.85 149.27 846.72 156.23 847.49 160.1 844.4 172.47 841.31 184.85 842.08 192.59 839.76 198.77 832.8 233.58 845.95 242.86 850.59 245.18 859.1 245.18 867.6 249.05 872.25 252.92 876.89 253.69 887.72 257.56 890.81 263.75 890.81 269.16 891.58 274.58 896.22 279.22 900.86 290.05 906.28 Z" id="TCD-5580" data-name="Chari-Baguirmi"/>
<path d="M 345.17 593.96 311.73 730.03 288.87 737.03 288 737.56 287.57 738.41 287.31 739.39 284.94 753.46 284.88 754.22 285.4 771.63 285.27 773.13 284.78 774.32 279.94 781.24 274.48 779.23 270.4 778.33 269.75 778.35 269.48 778.54 268.44 779.59 267.99 779.8 267.41 779.99 263.06 780.6 262.21 780.8 260.88 781.3 260.26 781.32 258.39 780.99 257.75 780.69 256.64 780.04 256.23 780.06 255.63 780.26 254.9 780.59 253.35 781.01 252.59 781.3 252.04 781.57 250.9 782.59 250.27 783.01 249.58 783.35 248.7 783.58 231.28 785.96 230.63 786.36 230.02 786.81 229.19 787.67 228.78 787.97 228.13 788.28 227.62 788.34 227.16 788.26 226.35 787.98 225.26 787.46 224.26 787.25 222.46 787.14 221.61 786.9 218.83 786.51 218.06 786.51 217.48 786.6 216.28 787 214.78 787.72 213.66 788.09 212.92 788.21 194.21 788.54 193.21 788.24 191.96 783.55 191.58 782.9 185.4 777.91 186.41 774.97 186.63 773.17 186.52 752.64 186.38 751.58 185.95 750.96 184.35 749.33 183.65 748.45 183.47 748.12 183.11 747.04 182.91 746.02 182.11 743.47 182.1 742.9 182.22 742.42 183.6 740.02 183.99 739.05 184.01 738.58 183.72 736.83 183.41 735.71 183.05 734.81 182.65 734.41 182.23 734.14 180.57 733.58 178.78 733.16 177.21 732.57 176.35 732.34 175.9 732.29 175.46 732.34 175.16 732.56 173.47 734.58 173.15 734.81 172.72 734.96 163.97 735.04 163.19 710.59 177.12 705.17 198 680.42 202.64 672.69 204.19 654.89 214.24 620.86 231.26 562.08 245.07 539.01 333.8 580.62 334.74 581.23 335.37 581.84 338.82 587.03 345.17 593.96 Z" id="TCD-5581" data-name="Barh El Gazel"/>
<path d="M 634.26 807.77 634.58 808.64 636.64 811.16 639.61 816.67 641.18 818.17 643.84 819.45 646.96 820.03 650.18 820.06 653.14 819.66 656.71 818.63 659.6 817.04 662.04 814.76 664.21 811.58 673.7 817.79 681.45 820.64 682.45 821.61 678.68 830.31 676.93 832.81 677.09 833.74 679.59 837.61 685.16 854.51 685.35 855.41 685.41 856.34 685.34 857.26 683.39 865.59 683.87 865.39 684.33 865.16 685.16 864.54 690.08 863.01 693.04 862.49 694.05 863.1 694.69 862 695.08 862.38 695.16 863.55 694.94 864.89 693.6 868.73 689.37 892.06 689.72 895.69 691.24 899.25 693.56 902.46 696.27 905.02 698.87 906.29 704.97 908.33 706.92 910.13 707.13 910.82 707.16 913.1 707.91 913.42 715.12 912.67 716.89 912.71 717.98 913.63 719.01 919.01 720.93 924.63 720.99 925.62 721.14 927.82 720.8 929.17 719.52 931.83 719.05 933.19 718.8 934.69 718.77 936.22 718.55 937.04 717.36 938.34 716.88 939.1 713.91 949.76 709.74 949.36 705.13 947.89 703.22 946.31 700.4 945.6 699.68 945.53 697.04 945.6 696.27 945.44 694.83 944.76 694.2 944.56 692.4 944.76 690.79 945.23 689.19 945.11 687.47 943.57 686.78 944.23 685.86 944.16 684.77 943.79 683.57 943.57 682.56 943.77 681.84 944.28 680.44 945.85 679.52 946.44 678.37 946.78 676.31 947.11 676.3 947.09 676.28 947.04 654.95 898.58 653.84 897.42 652.18 896.29 640.57 892.86 637.6 891.14 636.47 890.74 635.14 890.76 592.75 898.46 575.15 894.43 536.67 875.51 517.84 862.99 516.17 862.4 514 861.96 494.18 862.58 493.4 862.76 493.11 863.15 492.99 863.62 492.99 864.6 493.75 868.88 493.71 869.32 493.55 869.65 493.18 869.81 492.65 869.86 489.16 869.75 487.16 869.86 486.48 869.79 486.03 869.65 485.66 869.12 485.4 868.31 484.93 864.23 484.64 863.17 483.56 861.3 483.49 857.03 483.67 855.53 488.53 841.88 490.79 837.02 491.15 836.42 491.62 835.84 491.9 835.58 492.2 835.36 492.52 835.16 492.99 834.75 493.55 834.13 495.31 831.55 498.11 828.91 500 826.14 500.48 825.56 501.03 825.05 501.33 824.82 501.67 824.63 502.87 824.12 504.03 823.25 504.32 822.83 504.45 822.49 504.4 822.21 504.26 821.9 503.85 821.3 501.44 818.94 501 818.31 500.87 817.88 500.88 817.26 501.36 816.38 506.47 809.73 506.87 809.38 507.27 809.32 507.68 809.38 508.12 809.49 508.66 809.43 509.24 809.15 510.04 808.21 510.33 807.56 510.45 806.97 510.31 805.32 510.42 804.21 510.32 803.62 510.13 803.17 509.88 802.9 509.6 802.7 509.32 802.55 508.98 802.6 508.28 802.84 507.92 802.89 507.53 802.71 496.46 794.37 495.86 793.82 495.73 793.46 496.26 793.2 515.78 789.28 516.57 789.03 516.92 788.85 517.5 788.29 519.51 785.15 528.28 788.71 536.79 788.71 548.39 788.71 549.16 798.76 554.58 800.31 560.77 801.08 561.54 806.5 561.54 813.46 571.6 817.33 580.1 815.01 587.84 815.78 590.93 816.55 594.8 815.01 601.76 808.05 609.5 803.41 616.46 801.08 625.74 804.95 634.26 807.77 Z" id="TCD-5582" data-name="Sila"/>
<path d="M 492.05 1090.33 491.8 1090.39 490.72 1089.88 489.79 1091.2 488.82 1091.62 482.47 1091.26 480.89 1091.44 478.9 1091.95 478.02 1092 477.36 1092.15 475.53 1092.92 475.16 1093.27 474.48 1093.57 471.17 1093.52 469.93 1094.07 467.93 1092.73 465.62 1093.21 463.4 1094.12 461.66 1094.07 460.94 1094.46 460.52 1094.41 460.22 1094.2 459.83 1094.07 454.03 1094.15 453.34 1093.81 450.43 1094.89 449.43 1095.1 448.13 1094.97 446.7 1094.63 445.41 1094.13 444.54 1093.55 443.83 1094.41 443.1 1094.16 442.3 1093.46 441.39 1092.99 440.65 1093.01 439.09 1093.44 436 1093.6 435.06 1093.97 434.67 1094.84 434.24 1094.96 432.22 1094.47 431.57 1094.58 431.05 1094.58 429.07 1093.97 426.05 1094.81 423.11 1096.25 421.41 1097.43 420.3 1098.43 419.82 1098.96 419.63 1099.52 419.32 1099.81 417.82 1100.28 416.64 1100.93 416.04 1101.06 415.61 1101.32 415.45 1102.11 415.22 1102.79 414.68 1103.14 413.98 1103.16 413.33 1102.86 411.58 1105.42 411.59 1106.54 412.86 1107.56 414.1 1106.88 414.61 1107.6 414.82 1108.88 415.19 1109.89 416.08 1110.54 425.14 1114.39 425.83 1115.6 427.02 1116.3 429.32 1118 430.85 1119.74 428.38 1121.42 427.64 1122.61 426.93 1123.01 426.09 1123.49 423 1129.55 415.43 1138.14 414.66 1139.59 413.98 1141.44 412.93 1142.78 410.46 1145.14 407.29 1149.94 405.64 1151.38 404.32 1152.04 399.87 1153.55 396.65 1155.16 394.08 1157.42 392.56 1160.37 392.51 1164.05 390.34 1167.25 384.2 1168.55 358.99 1169.21 357.55 1164.77 356.5 1159.39 355.32 1154.66 355.58 1150.46 355.85 1145.2 355.45 1142.18 353.61 1138.77 352.56 1135.48 352.43 1131.41 350.85 1129.04 348.1 1127.21 346.65 1123.79 346.26 1119.06 346.78 1114.73 347.44 1112.49 346.78 1110 345.15 1108.47 342.45 1107.11 341.21 1106.51 340.97 1105.75 341.34 1105.11 341.73 1104.4 342.21 1104.3 342.77 1103.88 342.8 1103.37 342.63 1103.05 342.3 1102.61 343.24 1094.57 344.02 1093.77 344.49 1093.87 344.92 1094.5 346.03 1095.17 347.41 1093.86 348.24 1093.54 349.29 1093.7 350.57 1093.54 352.64 1092.01 354.84 1089.35 356.45 1086.44 356.78 1084.14 357.35 1083.81 358.24 1083 356.44 1080.89 351.61 1080.2 345.39 1079.97 340.32 1077.44 334.57 1074.44 330.19 1073.06 329.27 1070.3 327.2 1065.46 325.59 1062.47 323.97 1060.63 317.3 1060.86 315.91 1056.02 313.84 1052.8 310.6 1050.66 310.83 1050.3 312.31 1046.59 312.46 1045.62 312.26 1044.9 311.15 1043.32 309.55 1041.71 302.33 1036.44 296.73 1033.64 296.28 1033.47 295.75 1033.36 294.92 1033.33 310.39 984.26 332.61 983.49 333.15 983.75 333.67 984.14 340.02 990.13 340.5 990.42 340.96 990.59 341.83 990.78 342.58 991.11 343.61 991.68 344.04 991.84 345.18 992.03 347 992.58 347.64 992.67 348.04 992.87 348.35 993.12 348.65 993.27 348.98 993.25 349.63 992.67 350 992.57 350.43 992.76 350.97 992.91 352.5 993.12 352.94 993.38 353.44 994 353.76 994.16 354.13 994.13 354.56 993.83 354.86 993.52 355.18 993.26 355.59 993.14 356.25 993.31 356.7 993.52 357.02 993.81 357.22 994.15 357.32 994.56 357.45 995.43 357.58 995.81 357.92 996.04 358.37 996.2 359.01 996.32 359.34 996.59 359.87 997.13 360.32 997.28 361.81 997.36 362.26 997.52 362.54 997.81 362.81 998.57 363.02 998.88 363.3 999.11 364.84 999.74 365.13 1000.12 365.44 1000.4 365.76 1000.61 366.19 1000.71 369.33 1000.82 370.91 1001.27 371.71 1001.33 372.21 1001.48 372.6 1001.69 373.48 1002.88 374 1003.43 374.61 1003.87 375.34 1004.21 379.45 1005.38 379.75 1005.58 380.03 1005.81 380.25 1006.11 380.79 1007.13 381.31 1007.66 381.88 1008.15 382.11 1008.44 382.61 1009.48 383.64 1011.21 384.08 1011.65 384.41 1011.84 384.82 1011.98 385.27 1012.09 385.67 1012.23 386 1012.42 387.57 1014.01 387.88 1014.24 388.87 1014.85 389.09 1015.15 389.24 1015.51 389.46 1016.29 389.65 1016.64 389.93 1016.88 390.28 1017.07 391.09 1017.34 391.43 1017.53 391.69 1017.81 391.84 1018.18 391.89 1018.6 391.89 1019.26 391.17 1025.79 391.18 1025.97 391.34 1026.13 391.59 1026.29 392.31 1026.64 392.79 1026.74 393.36 1026.81 394.18 1026.75 394.76 1026.81 395.2 1026.94 395.53 1027.16 397.07 1028.75 397.99 1029.43 398.55 1029.48 399.39 1029.35 400.94 1028.74 403.04 1028.34 403.48 1028.13 403.76 1027.52 405.43 1020.56 405.94 1019.77 406.83 1019.48 417.18 1019.38 421.37 1018.85 424.28 1017.37 425.2 1016.68 426.31 1015.67 427.5 1014.25 428.47 1012.75 428.91 1012.17 429.41 1011.32 429.71 1010.56 429.93 1010.27 430.18 1010.08 430.53 1010.14 430.9 1010.12 431.39 1009.85 432.13 1009.13 432.77 1008.9 433.19 1008.88 433.41 1009.01 433.61 1009.06 433.88 1008.97 434.22 1008.06 434.53 1006.78 435.85 1004.37 436.12 1004.01 436.48 1003.67 437.18 1003.35 437.73 1003.21 438.15 1003.02 438.49 1002.72 438.74 1002.1 439.34 1001.47 439.71 1000.61 440.01 1000.09 440.37 999.61 440.84 999.21 441.81 998.67 442.32 998.29 442.65 997.91 442.76 997.43 442.89 997.11 443.37 996.96 443.8 996.95 444.19 996.85 444.38 996.66 444.18 996.3 443.53 995.83 443.43 995.54 443.54 995.18 443.76 994.71 443.77 994.28 443.6 993.97 443.31 993.73 442.98 993.52 442.77 993.24 442.78 992.93 443.05 992.66 443.69 992.58 444.66 992.65 445.07 992.55 445.42 992.31 445.62 991.82 445.62 991.4 445.57 991 445.58 990.65 445.77 990.35 446.1 990.15 446.6 990.06 446.91 989.84 446.92 989.39 446.64 988.64 446.7 988.17 446.97 987.6 447.76 986.66 448.08 986.08 448.89 985.06 450.13 983.85 450.63 983.44 451.29 983.16 451.95 982.67 452.52 982.42 453.26 982.2 453.83 981.98 454.48 981.55 454.95 981.35 455.48 981.38 455.67 981.45 455.78 981.52 455.82 981.82 455.78 982.16 455.77 982.52 456.06 982.77 456.63 982.85 457.75 982.64 458.49 982.58 460.34 982.07 460.93 982.09 461.44 982.04 461.88 981.86 463.6 978.9 463.6 978.46 463.5 978.07 463.49 977.76 463.7 977.51 464.28 977.59 464.57 977.84 464.83 978.18 465.08 978.41 465.39 978.39 465.73 978.12 466.21 976.92 466.51 976.5 466.88 976.15 467.5 975.75 467.71 975.27 467.64 974.93 467.68 974.6 467.98 974.29 469.93 973.6 471.32 972.54 467.35 992.18 468.13 997.24 469.07 998.28 469.84 1000.32 470.04 1001.43 470 1002.32 469.77 1003.14 469.57 1003.66 469.32 1004.05 468.79 1004.57 468.57 1004.88 468.39 1005.28 468.02 1006.32 467.98 1006.88 468.09 1007.58 467.95 1008.05 467.63 1008.44 467.16 1008.93 467.05 1009.44 467.12 1009.97 467.3 1010.68 467.24 1011.15 467.02 1011.46 465.69 1012.23 465.42 1012.47 465.15 1012.77 464.95 1013.15 464.78 1013.66 465.09 1014.5 470.76 1024.83 492.05 1090.31 492.05 1090.33 Z" id="TCD-5583" data-name="Moyen-Chari"/>
</g>
</svg>