<?xml version="1.0"?>
<svg xmlns="http://www.w3.org/2000/svg" version="1.2" baseProfile="tiny" width="800" height="689" viewBox="0 0 800 689" stroke-linecap="round" stroke-linejoin="round">
<g id="ne_10m_admin_1_states_provinces">
<path d="M 145 25.47 145.38 26.17 149.04 36.17 158.54 42.59 154.55 47.41 156.17 54.78 150.35 58.34 142.96 58.73 136.34 60.6 129.85 58.14 127.27 53.87 121.86 53.36 116.34 57.12 115.51 63.82 114.14 70.29 109.29 74.33 105.91 80.47 100.7 83.61 98.67 83.81 98.69 83.62 97.5 82.47 95.43 81.32 93.48 80.71 90.67 82.29 86.42 81.31 80.2 78.82 80.2 77.41 84.66 77.22 87.24 75.51 87.24 73.55 79.4 71.55 77.71 69.14 76.56 66.52 73.73 64.87 71.68 66.18 69.09 68.7 66.89 69.48 65.97 65.63 64.54 63.92 54.96 57.37 52.52 58.4 47.34 54.03 43.47 52.73 34.12 53.98 29.65 53.34 27.17 49.89 24.73 52.39 22.25 52.04 17.04 48.97 11.87 49.11 1 52.57 1.16 50.7 2.64 47.14 5.13 44.41 12.63 41.25 13.75 38.32 15.06 36.4 19.52 37.55 22.59 39.86 25.01 42.66 27.81 45.11 32.04 46.4 36.54 46.16 39.12 44.59 40.11 41.65 39.94 37.36 38.74 32.99 37.41 30.26 37.25 28.22 39.65 26 40.9 25.93 44.65 26.93 46.21 26.96 48.18 25.59 48.81 23.92 49.61 22.5 52.08 21.96 59.61 24.17 67.05 28.43 74.89 31.61 83.48 30.6 85.64 29.09 87.29 29.27 88.83 29.91 91.32 29.76 94.07 30.14 95.29 29.58 95.01 28.43 94.26 27.17 94.09 26.27 94.19 24.77 93.55 22.84 93.76 21.2 96.28 20.61 98.69 21.07 103.41 23.06 127.71 29.21 135.15 29.48 143.76 26.5 145 25.47 Z" id="MDA-1613" data-name="Briceni"/>
<path d="M 315.62 37.37 315.7 37.55 318.62 47.07 318.55 56.75 308.95 59.56 304 66.98 295.9 68.27 288.43 65.16 281.52 63.9 281.19 68.25 286.58 70.03 287.14 73.51 288.06 76.28 290.34 77.89 289.88 81.52 281.82 82.67 272.9 81.68 263.93 82.83 260.16 86.1 258.87 90.34 254.52 92.17 250.63 94.55 250.71 97.04 251.98 99.26 248.75 100.29 244.09 98.98 234.68 95.08 225.06 93.55 219.3 87.39 211.82 84.03 208.21 77.82 213.77 71.43 215.38 69.11 213.35 65.97 203.59 57.49 206.62 53.54 211.56 44.22 215.74 40.11 218.39 34.28 222.15 30.38 236.28 32.24 247.42 30.43 271.39 31.84 283.42 27.89 288.83 25.45 288.86 25.44 291.43 27.99 293.21 29.06 298.19 34.3 307.41 36.69 315.62 37.37 Z" id="MDA-1614" data-name="Donduseni"/>
<path d="M 203.59 57.49 213.35 65.97 215.38 69.11 213.77 71.43 208.21 77.82 211.82 84.03 212.07 89.57 214.12 95.38 214.34 97.6 196.15 106.6 187.24 108.76 182.2 108.78 177.41 108.46 173.49 110.59 167.7 108.75 163.61 104.59 156.81 105.91 150.91 110.68 147.4 117.25 142.74 122.26 136.48 123.95 130.05 124.4 128.27 124.53 128.27 124.07 126.84 123.55 122.07 120.97 124.77 119.33 126.34 117.34 126.11 115.23 123.48 113.21 120.43 114.37 118.35 111.28 115.37 108.39 109.54 110.11 108.99 109.47 108.55 108.69 108.22 107.84 107.99 106.89 112.61 105.46 112.61 103.78 106.67 101.47 101.23 98.2 97.26 93.83 95.57 88.27 96.16 87 98.55 84.93 98.67 83.81 100.7 83.61 105.91 80.47 109.29 74.33 114.14 70.29 115.51 63.82 116.34 57.12 121.86 53.36 127.27 53.87 129.85 58.14 136.34 60.6 142.96 58.73 150.35 58.34 156.17 54.78 154.55 47.41 158.54 42.59 179.39 55.18 203.59 57.49 Z" id="MDA-1615" data-name="Edineţ"/>
<path d="M 288.86 25.44 288.83 25.45 283.42 27.89 271.39 31.84 247.42 30.43 236.28 32.24 222.15 30.38 218.39 34.28 215.74 40.11 211.56 44.22 206.62 53.54 203.59 57.49 179.39 55.18 158.54 42.59 149.04 36.17 145.38 26.17 145 25.47 157.28 15.17 165.5 12.34 169.86 13.09 176.32 17.13 179.42 17.93 183.22 16.64 197 8.86 202.21 4.1 202.22 4.1 211.6 4.1 214.3 3.65 220.19 1 225.14 1.43 225.61 7.41 230.19 8.9 258.52 8.73 266.12 11.1 280.79 18.35 284.2 20.79 288.86 25.44 Z" id="MDA-1616" data-name="Ocniţa"/>
<path d="M 244.09 98.98 243.02 106.76 241.15 108.33 240.69 110.27 241.92 112.44 242.18 114.89 241.18 116.44 240.42 118.45 243.29 122.13 247.47 124.45 255.68 127.49 263.05 124.81 268.44 119.97 275.23 119.7 289.61 131.82 294.36 134.28 295.1 138.47 297.11 144.72 303.76 145.9 304.17 153.13 292.52 157.15 280.47 160.31 273.06 158.02 261 148.55 253.16 148.2 246.5 150.82 238.77 151.34 217.99 143.24 207.59 141.51 197.6 142.15 191.21 147.08 183.55 146.67 174.36 148.19 166.75 154.43 165.56 158.85 163.57 162.99 159.8 165.31 155.72 167.23 153.22 168.01 153.08 167.63 151.93 166.87 147.89 164.86 147.02 163.83 145.97 161.91 143.4 158.49 140.26 155.2 137.56 153.68 145.33 150.43 143.61 148.5 141.13 147.67 138.39 147.12 136.01 145.92 136.2 144.51 135.83 137.5 136.01 136.48 131.88 133.17 126.74 131.23 124.28 129.16 128.27 125.48 128.27 124.53 130.05 124.4 136.48 123.95 142.74 122.26 147.4 117.25 150.91 110.68 156.81 105.91 163.61 104.59 167.7 108.75 173.49 110.59 177.41 108.46 182.2 108.78 187.24 108.76 196.15 106.6 214.34 97.6 214.12 95.38 212.07 89.57 211.82 84.03 219.3 87.39 225.06 93.55 234.68 95.08 244.09 98.98 Z" id="MDA-1617" data-name="Rîşcani"/>
<path d="M 306.85 171.29 293.14 170.73 283.13 168 282.78 163.75 280.47 160.31 292.52 157.15 304.17 153.13 309.62 159.32 317.98 158.35 325.01 160.84 326.25 169.56 327.35 172.3 325.26 175.01 321.65 177.34 317.42 177.4 313.16 170.88 306.85 171.29 Z" id="MDA-1618" data-name="Bălţi"/>
<path d="M 304 66.98 328.78 77.98 337.42 85.03 340.1 94.73 335.4 97.34 329.46 99.18 323.53 106.56 321.1 110.38 330.53 114.77 329.61 120.17 331.73 125.44 333.2 127.07 333.82 129.22 332.32 131.47 330.43 133.84 315.84 144.59 309.62 144.63 303.76 145.9 297.11 144.72 295.1 138.47 294.36 134.28 289.61 131.82 275.23 119.7 268.44 119.97 263.05 124.81 255.68 127.49 247.47 124.45 243.29 122.13 240.42 118.45 241.18 116.44 242.18 114.89 241.92 112.44 240.69 110.27 241.15 108.33 243.02 106.76 244.09 98.98 248.75 100.29 251.98 99.26 250.71 97.04 250.63 94.55 254.52 92.17 258.87 90.34 260.16 86.1 263.93 82.83 272.9 81.68 281.82 82.67 289.88 81.52 290.34 77.89 288.06 76.28 287.14 73.51 286.58 70.03 281.19 68.25 281.52 63.9 288.43 65.16 295.9 68.27 304 66.98 Z" id="MDA-1619" data-name="Drochia"/>
<path d="M 283.13 168 293.14 170.73 306.85 171.29 302.58 177.82 301.65 184.97 315.4 185.65 318.77 197.84 318.43 202.29 312.63 203.64 309.55 205.86 306.88 208.83 299.23 212.61 298.73 218.03 305.9 220.38 312.1 220.35 316.19 224.2 314.37 229.62 309.41 233.33 303.88 232.22 298.33 232.52 295.43 233.85 295.72 239.08 292.78 240.35 277.05 241.59 261.75 241.37 246.81 243.16 242.69 246.84 229.18 250.39 223.27 254.09 221.49 255.06 220.96 254.75 217.77 253.28 219.58 246.29 215.54 243.9 216.22 241.23 217.09 238.9 218.32 237.15 220.19 236.14 218.57 233.93 215.68 232.13 212.28 230.79 209.18 229.94 208.83 230.07 202.98 229.94 201.67 229.49 200.78 228.93 199.65 228.45 197.63 228.25 195.24 226.81 193.78 223.5 192.14 217.39 191.55 217.24 189.09 217.02 188.19 216.62 187.73 215.62 187.77 213.56 187.48 212.74 186.76 211.33 185.74 208.44 185.3 207.2 199.5 198.57 215.41 193.53 224.26 193.99 232.6 192.03 235.72 186.01 238.7 184.29 241.47 182.29 247.12 175.38 250.62 175.07 254.25 176.31 260.89 173.75 266.22 169.02 268.47 163.57 272.29 162.8 277.11 166.51 283.13 168 Z" id="MDA-1620" data-name="Făleşti"/>
<path d="M 280.47 160.31 282.78 163.75 283.13 168 277.11 166.51 272.29 162.8 268.47 163.57 266.22 169.02 260.89 173.75 254.25 176.31 250.62 175.07 247.12 175.38 241.47 182.29 238.7 184.29 235.72 186.01 232.6 192.03 224.26 193.99 215.41 193.53 199.5 198.57 185.3 207.2 185.07 206.54 177.96 204.71 171.62 200.34 156.84 187.11 151.62 181.11 149.56 176.12 154.79 175.39 154.79 173.97 153.55 172.32 153.9 169.89 153.22 168.01 155.72 167.23 159.8 165.31 163.57 162.99 165.56 158.85 166.75 154.43 174.36 148.19 183.55 146.67 191.21 147.08 197.6 142.15 207.59 141.51 217.99 143.24 238.77 151.34 246.5 150.82 253.16 148.2 261 148.55 273.06 158.02 280.47 160.31 Z" id="MDA-1621" data-name="Glodeni"/>
<path d="M 406.95 182.26 407.46 189.05 409.53 195.53 408.61 199.88 403.29 200.49 400.07 201.86 397.52 204.51 396.66 207.1 395.56 209.36 387.69 210.49 366 208.75 353.71 212.72 351.36 217.29 353.76 222.08 353.22 228.9 349.26 234.49 338.7 234 329.91 237.55 325.77 238.25 321.4 234.85 309.41 233.33 314.37 229.62 316.19 224.2 312.1 220.35 305.9 220.38 298.73 218.03 299.23 212.61 306.88 208.83 309.55 205.86 312.63 203.64 318.43 202.29 318.77 197.84 315.4 185.65 301.65 184.97 302.58 177.82 306.85 171.29 313.16 170.88 317.42 177.4 321.65 177.34 325.26 175.01 327.35 172.3 326.25 169.56 325.01 160.84 317.98 158.35 309.62 159.32 304.17 153.13 303.76 145.9 309.62 144.63 315.84 144.59 330.43 133.84 334.16 136.32 337.45 139.07 338.28 142.08 339.57 144.48 342.1 144.82 344.84 145.44 346.39 150.67 350.7 150.42 356.48 149.15 360.7 155 364.87 159.61 373.22 160 380.87 161.1 377.8 167.27 377.38 172.07 394.67 174.22 401.07 177.95 406.95 182.26 Z" id="MDA-1622" data-name="Sîngerei"/>
<path d="M 309.41 233.33 321.4 234.85 325.77 238.25 329.91 237.55 338.7 234 349.26 234.49 357.47 239.29 366.18 243.26 365.93 249.21 361.9 252.5 356.01 253.73 343.03 261.12 334.58 264.03 341.22 270.02 350.71 271.8 342.73 274.97 335.57 281.51 327.83 283.58 321.17 283.76 314.99 284.71 309.81 295 307.89 306.85 309.56 311.81 313.07 314.63 314.85 314.94 316.6 315.67 317.27 318.7 317.42 321.81 319.63 326.66 325.56 327.19 329.61 328.95 326.6 332.9 323.56 334.98 323.3 334.76 321.26 331.01 316.78 332.52 311.85 330.95 306.52 328.64 300.98 327.9 300.91 324.63 298.07 322.88 291.64 320.01 284.69 314.73 282.58 313.67 280.42 313.19 279.41 312.52 280.79 310.85 280.79 309.31 270.96 305.65 268.26 303.1 270.81 302.56 271.22 301.6 270.56 300.23 269.95 298.45 269.55 298.3 266.82 292.1 261.08 287.1 258.66 284.23 258.94 281.39 254.32 275.9 251.95 274.15 246.27 273.2 244.46 272.43 242.74 271.44 240.34 270.4 234.2 269.46 232.44 268.85 229.51 265.5 224.04 256.57 221.49 255.06 223.27 254.09 229.18 250.39 242.69 246.84 246.81 243.16 261.75 241.37 277.05 241.59 292.78 240.35 295.72 239.08 295.43 233.85 298.33 232.52 303.88 232.22 309.41 233.33 Z" id="MDA-1623" data-name="Ungheni"/>
<path d="M 414.95 543.61 416.44 545.47 419.06 545.64 417.6 554.22 414.59 563.06 414.31 570.33 416.03 577.18 419.21 579.67 421.22 582.9 418.6 586.56 414.33 588.47 407.35 590.18 403.85 596.15 401.19 602.76 388.9 612.89 383.48 619.99 382.27 631.45 391.55 640.43 405.94 642.32 419.37 634.5 425.63 628.76 428.55 621.46 428.21 614.82 431.84 610.42 437.67 616.24 439.79 625.24 442.78 625.67 442.88 625.68 443.81 628.15 442.4 629.97 435.83 631.45 431.91 633.28 429.4 635.17 424.12 640.68 422.55 643.29 424.56 644.93 428.11 646.39 431.02 648.49 432.29 651.69 432.71 654.85 433.7 657.99 436.83 661.04 430.82 663.03 429.49 663.89 429.3 664.15 429.17 664.11 428.73 664 411.61 663.9 394.84 658.95 378.59 659.8 376.55 671.86 376.32 674.23 376.31 674.29 364.24 680.67 364.22 680.71 364.22 680.72 362.24 683.39 360.67 686.24 360.2 687.85 354.17 682.72 352.57 680.39 352.46 672.74 352.15 672.21 351.59 671.73 350.72 670.32 346.9 665.49 341.69 662.65 329.01 657.91 331.87 655.35 335.6 652.82 339.36 650.91 342.34 650.16 349.8 650.21 353.04 649.08 351.63 646.13 352.08 642.48 350.09 619.7 348.16 617.58 344.17 612.16 340.63 605.27 339.99 598.7 341 597.46 344.01 595.95 344.66 594.82 344.22 593.97 342.2 591.08 341.56 589.4 341.87 587.61 342.79 585.87 343.28 584.14 342.34 582.35 340.98 580.77 340.41 579.41 339.99 576.87 334.45 565.48 333.68 562.27 334.08 560.02 336.89 552.06 336.82 550.84 335.44 550.17 335.37 548.95 335.98 547.81 337.79 546.99 339.38 543.78 339.99 542.56 349.99 545.04 360.71 545.44 369.37 548.31 372.85 545.37 375.39 541.58 384.41 541.46 393.29 546.16 404.25 546.33 414.95 543.61 Z" id="MDA-1624" data-name="Cahul"/>
<path d="M 442.88 625.68 442.78 625.67 439.79 625.24 437.67 616.24 431.84 610.42 424.47 606.14 415.33 605.1 410.19 599.82 403.85 596.15 407.35 590.18 414.33 588.47 418.6 586.56 421.22 582.9 419.21 579.67 416.03 577.18 414.31 570.33 414.59 563.06 417.6 554.22 419.06 545.64 427.77 545.41 436.29 547.1 444.63 550.99 451.32 555.84 448.28 559.61 448.95 562.87 450.48 565.83 456.21 573.18 465.48 572.92 503.01 563.42 516.46 548.2 522.97 527.76 533.52 520.65 538.4 515.37 538.4 515.37 544.24 519.19 545.5 524.14 542.8 529.51 537.66 535.6 529.84 541.74 528.1 545.33 528.64 550.92 532.68 560.83 532.21 565.29 526.55 567.16 486.95 574.43 483.01 576.23 480.5 579.54 480.32 583.33 483.48 591.2 484.42 595 484.1 599.56 482.57 602.5 479.68 604.49 475.32 606.23 468.72 607.26 467 608.3 466.92 609.6 467.5 611.65 467.8 614.01 467 616.18 461.06 618.64 445.87 619.68 442.22 623.93 442.88 625.68 Z" id="MDA-1625" data-name="Taraclia"/>
<path d="M 376.31 674.29 376.32 674.23 376.55 671.86 378.59 659.8 394.84 658.95 411.61 663.9 428.73 664 429.17 664.11 429.3 664.15 428.05 665.83 427.99 666.34 428.46 666.77 429.92 674.49 428.91 677.18 424.12 678.71 409.57 678.3 392.55 675.16 376.33 674.28 376.31 674.29 Z M 419.37 634.5 405.94 642.32 391.55 640.43 382.27 631.45 383.48 619.99 388.9 612.89 401.19 602.76 403.85 596.15 410.19 599.82 415.33 605.1 424.47 606.14 431.84 610.42 428.21 614.82 428.55 621.46 425.63 628.76 419.37 634.5 Z M 474.92 497.51 479.81 497.63 482.52 492.2 487.75 492.72 491.03 497.14 497.44 498.35 499.75 503.64 498.96 506.26 498.67 509.07 502.22 512.31 506.95 513.73 515.66 512.04 522.66 516.03 521.69 522.22 522.97 527.76 516.46 548.2 503.01 563.42 465.48 572.92 456.21 573.18 450.48 565.83 448.95 562.87 448.28 559.61 451.32 555.84 444.63 550.99 436.29 547.1 427.77 545.41 419.06 545.64 416.44 545.47 414.95 543.61 416.27 539.13 415.5 534.85 412.42 531.22 415.59 527.29 422.18 523.26 428.04 518.34 428.87 511.86 426.92 505.03 428.82 498.07 431.38 491.49 430.83 486.59 420.64 481.22 419.13 477.11 423.26 473.52 422.12 468.78 437.38 460.25 438.82 457.79 442.03 457.47 445.61 455.24 447.9 451.46 458.04 456.87 478.69 465.72 488.27 470.81 487.15 479.37 483.8 487.24 477.47 491.13 474.92 497.51 Z" fill-rule="evenodd" id="MDA-1626" data-name="Comrat"/>
<path d="M 506.24 316.85 511.91 322.07 520.18 322.48 530.48 332.39 532.89 329.31 534.59 324.99 537.94 328.68 536.2 336.14 526.96 339.27 521.14 347.33 498.97 342.16 495.05 342.19 491.5 341.2 492.12 338.72 494.29 336.42 493.75 330.43 490.18 326.41 481.94 324.09 465.38 313.5 465.21 306.87 476 311.22 485.85 318.8 496.25 320.17 506.24 316.85 Z" id="MDA-1627" data-name="Chişinău"/>
<path d="M 626.24 269.36 626.19 269.37 625.92 269.5 621.98 273.27 622.46 275.6 622.73 278.64 620.85 281.29 618.27 283.34 610.78 288.09 604.82 293.89 608.88 304.42 609.32 305.83 609.87 307.2 608.46 307.63 608.38 307.66 608.07 306.66 608.05 306.6 605.13 306.14 602.05 304.87 601.94 304.82 598.75 302.55 598.67 302.49 595.73 301.6 593.5 304.6 592.15 304.6 592.09 304.6 590.33 302.62 590.29 302.58 587.49 301.45 584.61 301.51 582.64 303.04 582.82 305.49 584.61 307.88 586.01 310.37 584.96 313.12 582.69 313.62 579.87 312.9 577.45 312.69 575.59 316.57 571.54 319.92 570.24 321.65 569.01 320.79 564.42 317.57 564.38 317.54 561.18 316.04 557.82 315.46 557.69 315.44 559.8 311.95 563.39 307.86 567.43 304.45 574.8 301.5 579.06 294.91 582.64 293.74 579.08 286.08 579.1 286.06 585.06 278.88 581.63 272.57 572.34 275.11 570.47 276.19 570.44 276.21 576.29 282.9 567.02 285.44 558.73 282.55 559.41 277.21 558.16 271.31 546.93 262.84 542.71 258.77 537.89 255.98 541.88 252.96 543.91 248.47 547.78 247.45 553.68 249.83 556.88 247.17 560.72 246.2 562.48 239.18 566.33 235.35 567.1 233.12 566.53 231.88 566.6 231.9 570.81 232.75 572.9 229.62 573.15 228.64 573.16 228.57 573.8 229.45 577.35 236.3 579.23 238.71 583.36 240.87 585.7 239.52 587.85 237.07 591.6 235.93 594.83 237.13 598.94 241.89 605.91 245.05 607.46 247.47 608.48 250.18 610.33 252.6 613.47 253.85 617.04 254.35 620.55 255.41 623.52 258.39 624.69 261.99 624.79 265.27 625.49 268.49 626.24 269.36 Z" id="MDA-1628" data-name="Stîngă Nistrului"/>
<path d="M 646.86 349.62 648.89 351.75 649.6 355.93 649.6 361.4 650.15 363.54 649.12 366.34 642.17 370.45 644.3 378.43 638.4 379.37 632.61 379.58 627.71 379.06 622.85 379.97 616.63 386.74 613.44 386.52 610.57 384.57 609.05 387.25 608.06 392.27 602.24 391.87 596.14 392.07 591.3 387.9 585.93 391.21 581.26 389.79 580.11 383.9 565.86 381.3 563.21 379.14 563.7 376.96 565.11 373.68 562 372.11 553.28 370.27 551.74 365.39 555.24 362.23 556.02 357.9 551.36 355.13 545.62 354.23 540.37 352.77 535.46 351.87 532.83 353.9 530.77 356.72 524.42 354.63 521.14 347.33 526.96 339.27 536.2 336.14 540.09 336.74 543.84 336.78 548.35 331.58 554.86 328.85 561.72 330 568.17 341.47 575.68 340.49 583.3 338.42 589.65 341.64 596.6 343.88 599.8 339.69 598.63 333.16 598.53 323.84 599.59 314.61 603.26 309.22 608.38 307.66 608.4 307.74 608.09 309.26 609 310.79 609.83 311.26 611.21 312.05 616.76 313.89 616.8 313.92 624.62 319.41 626.34 320.62 626.34 320.63 627.74 322.42 628.78 329.01 628.44 331.94 628.44 331.94 628.19 331.84 626.05 330.96 624.65 330.96 625.81 334.39 626.79 335.87 626.85 335.85 627.74 335.6 627.68 335.71 626.58 337.53 626.08 337.86 625.23 337.82 619.43 340.31 615.71 341.14 612.16 341.14 609 340.26 610.82 344.18 613.75 347.87 617.43 350.89 618.16 351.24 621.41 352.8 627.32 353.22 632.1 351.49 636.42 349.25 640.92 348.15 646.36 349.09 646.42 349.15 646.86 349.62 Z" id="MDA-1629" data-name="Anenii Noi"/>
<path d="M 554.7 452.34 546.62 454.43 529.7 462.32 525.07 467.32 523.67 473.7 525.5 482.03 529.49 492.76 529.7 496.34 528.36 500.43 526.76 503.69 526.9 506.79 530.79 510.39 530.82 510.4 538.4 515.37 538.4 515.37 533.52 520.65 522.97 527.76 521.69 522.22 522.66 516.03 515.66 512.04 506.95 513.73 502.22 512.31 498.67 509.07 498.96 506.26 499.75 503.64 497.44 498.35 491.03 497.14 487.75 492.72 482.52 492.2 479.81 497.63 474.92 497.51 477.47 491.13 483.8 487.24 487.15 479.37 488.27 470.81 495.97 469.9 498.71 466.3 498.57 460.02 505.28 456.89 510.11 456.42 513.48 453.55 515.61 449.97 523.31 445.35 526.45 441.63 531.18 439.58 536.24 438.88 552.42 439.45 556.68 441.58 555.55 447.61 554.72 452.25 554.7 452.34 Z" id="MDA-1630" data-name="Basarabeasca"/>
<path d="M 422.12 468.78 423.26 473.52 419.13 477.11 420.64 481.22 430.83 486.59 431.38 491.49 428.82 498.07 426.92 505.03 428.87 511.86 428.04 518.34 422.18 523.26 415.59 527.29 412.42 531.22 415.5 534.85 416.27 539.13 414.95 543.61 404.25 546.33 393.29 546.16 384.41 541.46 375.39 541.58 372.85 545.37 369.37 548.31 360.71 545.44 349.99 545.04 339.99 542.56 343.82 534.87 345.16 529.28 347.76 523.99 347.03 522.01 345.7 520.45 344.26 519.12 340.1 514.37 339.64 512.43 342.34 511.59 344.9 511.12 345.44 509.89 344.66 506.01 345.6 504.44 347.81 503.62 350.39 503.07 352.54 502.28 355.27 500.42 358.35 495.71 358.7 494.92 358.49 492.14 357.57 487.53 358.12 485.87 360.86 485.23 361.94 484.27 363.25 477.33 364.76 476.27 366.4 475.77 366.99 476.27 371.43 477.33 375.62 475.45 378.69 472.03 383.49 470.91 387.68 469.39 391.64 470.08 391.47 472.33 391.73 474.83 400.4 477.34 408.06 472.88 409.12 468.73 412.36 466.79 417.29 467.34 422.12 468.78 Z" id="MDA-1631" data-name="Cantemir"/>
<path d="M 433.16 243.65 435.91 252.12 448.42 257.66 446.52 263.12 442.23 265.28 432.01 266.08 418.36 274.55 420.37 277.86 424.06 280.7 425.07 286.33 420.82 290 409.38 297.25 403.6 299.08 392.65 299.8 389.14 302.8 382.78 302.65 376.5 301.71 370.26 299.14 363.86 297.61 348.74 291.42 335.57 281.51 342.73 274.97 350.71 271.8 341.22 270.02 334.58 264.03 343.03 261.12 356.01 253.73 361.9 252.5 365.93 249.21 366.18 243.26 375.11 239.96 384.57 244.36 388.18 244.89 391.86 244.82 398.05 243.09 400.14 243.16 402.59 244.19 410.54 242.78 418.56 239.11 426.74 238.46 433.16 243.65 Z" id="MDA-1632" data-name="Calarasi"/>
<path d="M 535.47 383.1 539.53 396.99 546.52 407.97 558.5 420.95 570.48 423.95 580.05 429.76 583.51 437.41 583.58 443.35 583.58 443.41 578.97 443.4 559.03 451.22 554.7 452.34 554.72 452.25 555.55 447.61 556.68 441.58 552.42 439.45 536.24 438.88 531.18 439.58 526.45 441.63 523.31 445.35 515.61 449.97 513.48 453.55 510.11 456.42 505.28 456.89 498.57 460.02 498.71 466.3 495.97 469.9 488.27 470.81 478.69 465.72 458.04 456.87 447.9 451.46 448.55 444.72 446.38 439.21 445.13 436.69 448.33 433.51 448.31 430.07 448.82 426.81 450.57 424.39 451.72 421.84 448.03 418.7 447.46 413.78 452.77 406.75 456.01 396.68 462.48 394.7 468.24 391.4 474.5 388.59 481.23 387.08 480.09 382.71 481.96 378.63 492.07 384.87 502.36 385.1 507.76 384.77 513.21 385.37 517.08 382.89 520.88 381.19 528.35 385.69 529.78 386.34 531.26 386.37 535.47 383.1 Z" id="MDA-1633" data-name="Cimişlia"/>
<path d="M 576.29 282.9 579.08 286.08 582.64 293.74 579.06 294.91 574.8 301.5 567.43 304.45 563.39 307.86 559.8 311.95 557.69 315.44 557.82 315.46 561.18 316.04 564.38 317.54 564.42 317.57 569.01 320.79 570.24 321.65 571.54 319.92 575.59 316.57 577.45 312.69 579.87 312.9 582.69 313.62 584.96 313.12 586.01 310.37 584.61 307.88 582.82 305.49 582.64 303.04 584.61 301.51 587.49 301.45 590.29 302.58 590.33 302.62 592.09 304.6 592.15 304.6 593.5 304.6 595.73 301.6 598.67 302.49 598.75 302.55 601.94 304.82 602.05 304.87 605.13 306.14 608.05 306.6 608.07 306.66 608.38 307.66 603.26 309.22 599.59 314.61 598.53 323.84 598.63 333.16 599.8 339.69 596.6 343.88 589.65 341.64 583.3 338.42 575.68 340.49 568.17 341.47 561.72 330 554.86 328.85 548.35 331.58 543.84 336.78 540.09 336.74 536.2 336.14 537.94 328.68 534.59 324.99 532.89 329.31 530.48 332.39 520.18 322.48 511.91 322.07 506.24 316.85 500.92 310.99 493.12 307.02 491.75 300.16 494.29 292.5 497.95 290.71 497 284.26 502.72 278.36 511.46 279.33 520.76 275.85 529.36 270.64 538.95 268.2 546.93 262.84 558.16 271.31 559.41 277.21 558.73 282.55 567.02 285.44 576.29 282.9 Z" id="MDA-1634" data-name="Criuleni"/>
<path d="M 420.87 112.03 427.65 114.15 429.7 120.76 427.58 130.58 423.45 136.7 411.97 146.33 414.6 155.46 416.47 154.38 418.16 152.82 421.54 153.35 424.88 155.26 432.86 158.22 436.2 166.89 429.58 174.9 422.9 181.48 419.01 180.03 415.09 178.08 410.57 179.55 406.95 182.26 401.07 177.95 394.67 174.22 377.38 172.07 377.8 167.27 380.87 161.1 373.22 160 364.87 159.61 360.7 155 356.48 149.15 350.7 150.42 346.39 150.67 344.84 145.44 342.1 144.82 339.57 144.48 338.28 142.08 337.45 139.07 334.16 136.32 330.43 133.84 332.32 131.47 333.82 129.22 333.2 127.07 331.73 125.44 329.61 120.17 330.53 114.77 346.13 112.94 362.02 112.94 369.58 113.48 376.87 112.34 378.41 110.01 380.11 107.97 384.11 109.07 388.1 110.93 398.86 113.9 403.27 113 407.7 111.37 414.2 114.37 420.87 112.03 Z" id="MDA-1635" data-name="Floreşti"/>
<path d="M 669.33 347.3 669.18 347.3 650.65 347.7 646.88 349.61 646.86 349.62 646.42 349.15 646.36 349.09 640.92 348.15 636.42 349.25 632.1 351.49 627.32 353.22 621.41 352.8 618.16 351.24 617.43 350.89 613.75 347.87 610.82 344.18 609 340.26 612.16 341.14 615.71 341.14 619.43 340.31 625.23 337.82 626.08 337.86 626.58 337.53 627.68 335.71 627.74 335.6 626.85 335.85 626.79 335.87 625.81 334.39 624.65 330.96 626.05 330.96 628.19 331.84 628.44 331.94 628.44 331.94 628.78 329.01 627.74 322.42 626.34 320.63 626.34 320.62 624.62 319.41 616.8 313.92 616.76 313.89 611.21 312.05 609.83 311.26 609 310.79 608.09 309.26 608.4 307.74 608.38 307.66 608.46 307.63 609.87 307.2 609.32 305.83 608.88 304.42 604.82 293.89 610.78 288.09 618.27 283.34 620.85 281.29 622.73 278.64 622.46 275.6 621.98 273.27 625.92 269.5 626.19 269.37 626.24 269.36 628.49 271.96 631.59 273.83 635.02 274.96 638.66 275.21 642.32 274.42 646.29 271.84 647.86 268.67 648.89 265.2 651.22 261.67 655.81 261.32 660.32 261.52 664.62 262.59 668.41 264.9 671.47 268.82 673.56 274.09 673.77 279.34 671.17 283.28 665.56 285.3 664.74 290.22 667.06 302.12 665.75 307.71 662.46 310.4 657.53 311.38 651.22 311.81 650.7 312.46 650.54 313.16 650.72 313.86 651.22 314.59 658.16 323.5 660.14 324.89 662.6 323.5 664.58 320.58 667.22 318.01 671.5 317.73 674.5 319.14 677.11 321.55 678.75 324.64 678.96 328.1 677.24 331.2 674.5 333.32 672.02 335.83 670.32 344.29 669.33 347.3 Z" id="MDA-1637" data-name="Grigoriopol"/>
<path d="M 579.08 286.08 576.29 282.9 570.44 276.21 570.47 276.19 572.34 275.11 581.63 272.57 585.06 278.88 579.1 286.06 579.08 286.08 Z" id="MDA-1638" data-name="Transnistria"/>
<path d="M 481.96 378.63 480.09 382.71 481.23 387.08 474.5 388.59 468.24 391.4 462.48 394.7 456.01 396.68 452.77 406.75 447.46 413.78 445.83 404.81 438.17 402.65 429.38 406.51 421.34 407.72 413.8 402.82 405.4 401.29 404.05 404.04 402.79 407.14 399.26 407.29 396.57 408.76 401.1 413.13 400.33 417.5 400.83 419.89 402.54 422.72 400.42 424.55 388.83 426.48 383.78 424.76 381.87 419.8 374.58 421.03 370.56 422.2 370.37 421.31 368.07 415.16 355.34 397.58 355.36 393.31 346.19 382.5 342.49 376.13 342.74 374.32 343.11 371.61 343.11 369.92 340.58 367.7 340.86 364.98 340.68 362.4 336.89 360.61 338.84 357.19 338.74 356.62 340.78 357 365.59 359.99 373.05 351.83 383.29 344.66 388.91 343.77 392.86 339.91 391.29 336.54 389.07 333.46 392.68 328.89 404.59 340.03 407.56 344.48 405.26 350.83 411.2 352.9 420.17 343.94 426.44 334.61 419.69 331.19 422.08 328.76 425.46 327.35 432.67 332.6 440.33 336.01 439.65 340.05 438.05 343.7 448.47 351.72 459.8 358.39 462.39 360.51 463.4 363.77 463.54 367.11 465 369.9 469.08 368.02 472.64 364.4 479.31 369.16 481.96 378.63 Z" id="MDA-1639" data-name="Hîncesti"/>
<path d="M 490.18 326.41 493.75 330.43 494.29 336.42 492.12 338.72 491.5 341.2 495.05 342.19 498.97 342.16 521.14 347.33 524.42 354.63 530.77 356.72 532.83 353.9 535.46 351.87 540.37 352.77 545.62 354.23 551.36 355.13 556.02 357.9 555.24 362.23 551.74 365.39 553.28 370.27 562 372.11 555.24 376.31 548.01 379.88 541.56 381.08 535.47 383.1 531.26 386.37 529.78 386.34 528.35 385.69 520.88 381.19 517.08 382.89 513.21 385.37 507.76 384.77 502.36 385.1 492.07 384.87 481.96 378.63 479.31 369.16 472.64 364.4 469.08 368.02 465 369.9 463.54 367.11 463.4 363.77 462.39 360.51 459.8 358.39 448.47 351.72 438.05 343.7 439.65 340.05 440.33 336.01 432.67 332.6 425.46 327.35 427.69 325.82 429.49 324.03 436.81 324.55 443.31 324.35 448.93 331.91 457.47 335.71 460.67 332.95 464.66 330.96 470.35 332.54 475.79 335.08 485.15 334.75 490.18 326.41 Z" id="MDA-1640" data-name="Ialoveni"/>
<path d="M 447.46 413.78 448.03 418.7 451.72 421.84 450.57 424.39 448.82 426.81 448.31 430.07 448.33 433.51 445.13 436.69 446.38 439.21 448.55 444.72 447.9 451.46 445.61 455.24 442.03 457.47 438.82 457.79 437.38 460.25 422.12 468.78 417.29 467.34 412.36 466.79 409.12 468.73 408.06 472.88 400.4 477.34 391.73 474.83 391.47 472.33 391.64 470.08 387.68 469.39 383.49 470.91 378.69 472.03 375.62 475.45 371.43 477.33 366.99 476.27 366.4 475.77 366.82 475.65 367.88 474.36 366.23 471.27 369.45 470.16 370.78 468.43 371.05 466.55 371.02 459.5 370.72 457.61 369.93 457.38 368.97 457.6 368.07 457.03 365.11 453.01 364.64 451.21 365.11 442.7 365.94 440.98 368.07 439.99 366.09 436.25 367.24 433 369.52 430.16 371.02 427.72 371.07 424.61 370.56 422.2 374.58 421.03 381.87 419.8 383.78 424.76 388.83 426.48 400.42 424.55 402.54 422.72 400.83 419.89 400.33 417.5 401.1 413.13 396.57 408.76 399.26 407.29 402.79 407.14 404.05 404.04 405.4 401.29 413.8 402.82 421.34 407.72 429.38 406.51 438.17 402.65 445.83 404.81 447.46 413.78 Z" id="MDA-1641" data-name="Leova"/>
<path d="M 389.14 302.8 392.02 305.05 394.77 308.43 393.1 311.7 390.73 314.54 394.16 320.52 401.14 321.13 405.46 319.49 409.98 319.07 413.57 320.99 417.71 321.83 424.45 319.9 429.49 324.03 427.69 325.82 425.46 327.35 422.08 328.76 419.69 331.19 426.44 334.61 420.17 343.94 411.2 352.9 405.26 350.83 407.56 344.48 404.59 340.03 392.68 328.89 389.07 333.46 391.29 336.54 392.86 339.91 388.91 343.77 383.29 344.66 373.05 351.83 365.59 359.99 340.78 357 338.74 356.62 338.13 353.23 333.68 344.96 330.58 341.11 323.56 334.98 326.6 332.9 329.61 328.95 325.56 327.19 319.63 326.66 317.42 321.81 317.27 318.7 316.6 315.67 314.85 314.94 313.07 314.63 309.56 311.81 307.89 306.85 309.81 295 314.99 284.71 321.17 283.76 327.83 283.58 335.57 281.51 348.74 291.42 363.86 297.61 370.26 299.14 376.5 301.71 382.78 302.65 389.14 302.8 Z" id="MDA-1642" data-name="Nisporeni"/>
<path d="M 548.08 218.25 549.51 220.7 553.04 223.53 553.11 223.56 563.08 227.8 563.12 227.84 565.59 229.88 566.53 231.88 567.1 233.12 566.33 235.35 562.48 239.18 560.72 246.2 556.88 247.17 553.68 249.83 547.78 247.45 543.91 248.47 541.88 252.96 537.89 255.98 542.71 258.77 546.93 262.84 538.95 268.2 529.36 270.64 520.76 275.85 511.46 279.33 502.72 278.36 497 284.26 497.95 290.71 494.29 292.5 490.78 287.84 487.98 282.55 482.64 282.08 475.58 283.68 471.23 279.2 468.29 273.55 466.33 268.08 463.68 263.28 458.87 263.01 454.74 265.69 450.56 265.24 446.52 263.12 448.42 257.66 435.91 252.12 433.16 243.65 445.98 239.79 446.1 237.17 444.41 235.06 444.72 232.95 446.62 230.9 446.63 228.58 447.17 226.29 451.79 223.66 456.92 221.8 475.98 212.54 480.45 212.65 484.78 213.45 489.38 216.52 494.99 217.44 501.4 215.67 510.43 207.85 516.03 207.17 518.8 205.14 520.4 202.44 526.07 203.49 531.78 206.81 539.24 214.68 548.08 218.25 Z" id="MDA-1643" data-name="Orhei"/>
<path d="M 548.08 218.25 539.24 214.68 531.78 206.81 526.07 203.49 520.4 202.44 518.8 205.14 516.03 207.17 510.43 207.85 501.4 215.67 494.99 217.44 489.38 216.52 484.78 213.45 480.45 212.65 475.98 212.54 476.33 206.26 478.07 201.19 471.59 197.67 469.47 194.18 466.45 191.94 453.71 187.1 459.57 175.65 472.27 169.33 488.95 171.45 494.68 159.87 500.08 157.83 505.74 156.35 505.59 154.36 502.04 153.4 506 149.52 521.98 151.29 523.02 147.9 525.72 145.6 529.73 146.32 533.61 147.33 531.87 142.06 528.89 137.94 528.87 137.9 537.53 139.66 537.6 139.71 546.12 144.65 545.99 150.7 537.53 164.62 536.46 169.65 537.53 182.37 539.28 188.43 539.79 189.42 540.97 190.67 540.53 193.39 539.51 196.06 538.93 197.17 540.4 201.15 545.57 206.3 546.69 208.8 546.83 213.53 547.61 217.43 548.08 218.25 Z" id="MDA-1644" data-name="Rezina"/>
<path d="M 573.16 228.57 573.15 228.64 572.9 229.62 570.81 232.75 566.6 231.9 566.53 231.88 565.59 229.88 563.12 227.84 563.08 227.8 553.11 223.56 553.04 223.53 549.51 220.7 548.08 218.25 547.61 217.43 546.83 213.53 546.69 208.8 545.57 206.3 540.4 201.15 538.93 197.17 539.51 196.06 540.53 193.39 540.97 190.67 539.79 189.42 539.28 188.43 537.53 182.37 536.46 169.65 537.53 164.62 545.99 150.7 546.12 144.65 537.6 139.71 537.53 139.66 528.87 137.9 527.52 136.03 526.1 135.3 526.35 128.26 527.49 124.52 530.73 126.19 537.66 128.1 545.92 127.04 555.87 118.25 563.06 115.89 567 116 570.17 116.84 572.96 118.61 575.61 121.52 577.39 125.04 579.39 132.82 581.2 136.14 584.39 137.81 593.33 139.64 595.61 140.74 594.87 143.84 591.38 147.06 587.18 150.11 584.41 152.67 582.37 156.65 582.39 159.14 584.58 160.62 592.42 162.53 595.32 164.35 596.2 166.8 593.49 169.7 586.74 175.54 585.49 182.64 585.7 190.67 583.36 199.23 577.48 206.14 571.64 211.4 568.67 217.37 571.62 226.48 571.64 226.51 571.67 226.52 571.68 226.54 573.16 228.57 Z" id="MDA-1645" data-name="Rezina"/>
<path d="M 528.87 137.9 528.89 137.94 531.87 142.06 533.61 147.33 529.73 146.32 525.72 145.6 523.02 147.9 521.98 151.29 506 149.52 502.04 153.4 505.59 154.36 505.74 156.35 500.08 157.83 494.68 159.87 488.95 171.45 472.27 169.33 459.57 175.65 447.27 172.47 436.2 166.89 432.86 158.22 424.88 155.26 421.54 153.35 418.16 152.82 416.47 154.38 414.6 155.46 411.97 146.33 423.45 136.7 429.35 137.88 435.39 135.7 444.16 137.02 451.33 142.49 459.57 147.23 466.87 143.61 464.07 139.28 464.32 134.4 470.07 126.39 478.5 122.12 482.57 122.06 486.5 121.1 489.83 118.02 491.13 117.27 493.06 115.35 493.13 115.29 493.21 115.34 499.5 119.24 503.46 124.77 503.14 130.22 505.88 131.7 510.43 134.16 528.87 137.9 Z" id="MDA-1646" data-name="Şoldăneşti"/>
<path d="M 494.29 292.5 491.75 300.16 493.12 307.02 500.92 310.99 506.24 316.85 496.25 320.17 485.85 318.8 476 311.22 465.21 306.87 465.38 313.5 481.94 324.09 490.18 326.41 485.15 334.75 475.79 335.08 470.35 332.54 464.66 330.96 460.67 332.95 457.47 335.71 448.93 331.91 443.31 324.35 436.81 324.55 429.49 324.03 424.45 319.9 417.71 321.83 413.57 320.99 409.98 319.07 405.46 319.49 401.14 321.13 394.16 320.52 390.73 314.54 393.1 311.7 394.77 308.43 392.02 305.05 389.14 302.8 392.65 299.8 403.6 299.08 409.38 297.25 420.82 290 425.07 286.33 424.06 280.7 420.37 277.86 418.36 274.55 432.01 266.08 442.23 265.28 446.52 263.12 450.56 265.24 454.74 265.69 458.87 263.01 463.68 263.28 466.33 268.08 468.29 273.55 471.23 279.2 475.58 283.68 482.64 282.08 487.98 282.55 490.78 287.84 494.29 292.5 Z" id="MDA-1647" data-name="Străşeni"/>
<path d="M 459.57 175.65 453.71 187.1 466.45 191.94 469.47 194.18 471.59 197.67 478.07 201.19 476.33 206.26 475.98 212.54 456.92 221.8 451.79 223.66 447.17 226.29 446.63 228.58 446.62 230.9 444.72 232.95 444.41 235.06 446.1 237.17 445.98 239.79 433.16 243.65 426.74 238.46 418.56 239.11 410.54 242.78 402.59 244.19 400.14 243.16 398.05 243.09 391.86 244.82 388.18 244.89 384.57 244.36 375.11 239.96 366.18 243.26 357.47 239.29 349.26 234.49 353.22 228.9 353.76 222.08 351.36 217.29 353.71 212.72 366 208.75 387.69 210.49 395.56 209.36 396.66 207.1 397.52 204.51 400.07 201.86 403.29 200.49 408.61 199.88 409.53 195.53 407.46 189.05 406.95 182.26 410.57 179.55 415.09 178.08 419.01 180.03 422.9 181.48 429.58 174.9 436.2 166.89 447.27 172.47 459.57 175.65 Z" id="MDA-1648" data-name="Teleneşti"/>
<path d="M 644.3 378.43 648.63 381.15 651.59 385.53 654.44 386.15 656.22 384.77 658.2 386.83 658.26 386.84 662.48 387.82 662.8 387.51 662.89 387.58 665.02 389.25 667.67 391.39 671.49 401.22 673.32 407.86 672.21 414.28 668.88 415.07 665.15 415.12 662.64 418.87 659.67 422.57 655.83 422.09 651.87 421.29 645.44 424.12 639.63 428.01 639.22 431.18 639.29 434.45 636.65 438.6 637.64 442.81 642.73 447.2 645.08 452.81 645.71 455.51 645.73 455.6 641.22 457.34 636.99 460.57 627.11 471.09 624.25 471.15 620.19 467 614.86 459.15 611.66 458.41 607.67 463.04 606.95 465.79 608.03 470.39 607.89 472.44 606.34 475.35 605.19 475.7 603.64 475.35 600.87 476.05 592.63 482.38 587.58 484.5 583.73 482.22 583.66 479.85 585.23 477.67 587.26 475.56 588.71 473.38 589.15 470.7 588.97 451.48 587.48 446.61 583.85 443.41 583.58 443.41 583.58 443.35 583.51 437.41 580.05 429.76 570.48 423.95 558.5 420.95 546.52 407.97 539.53 396.99 535.47 383.1 541.56 381.08 548.01 379.88 555.24 376.31 562 372.11 565.11 373.68 563.7 376.96 563.21 379.14 565.86 381.3 580.11 383.9 581.26 389.79 585.93 391.21 591.3 387.9 596.14 392.07 602.24 391.87 608.06 392.27 609.05 387.25 610.57 384.57 613.44 386.52 616.63 386.74 622.85 379.97 627.71 379.06 632.61 379.58 638.4 379.37 644.3 378.43 Z" id="MDA-1649" data-name="Causeni"/>
<path d="M 746.14 439.99 744.29 438.85 739.66 434.63 739.02 433.79 738.97 433.72 735.59 433.71 732.75 433.31 732.75 433.31 730.52 431.93 729 429.14 728.96 429.06 720.61 433.2 718.11 433.72 710.65 430.88 707.41 430.63 707.26 430.62 708.98 427.62 711.76 425.34 715 423.73 718.11 422.72 714.23 415.98 712.14 414.48 712.05 414.41 707.26 413.41 705.64 413.83 703.51 414.6 701.75 414.6 701.68 414.6 700.91 412.71 700.01 412.16 699.92 412.1 697.63 411.85 693.45 412 693.3 412.01 689.98 408.32 681.95 406.94 677.17 403.69 671.49 401.22 667.67 391.39 665.02 389.25 662.89 387.58 662.8 387.51 662.48 387.82 658.26 386.84 658.2 386.83 656.22 384.77 654.44 386.15 651.59 385.53 648.63 381.15 644.3 378.43 642.17 370.45 649.12 366.34 650.15 363.54 649.6 361.4 649.6 355.93 648.89 351.75 646.86 349.62 646.88 349.61 650.65 347.7 669.18 347.3 669.33 347.3 669.15 347.84 668.89 350.82 670.89 353.34 672.18 353.55 677.93 353.17 679.99 353.93 683.56 356.77 685.51 357.94 689.19 358.84 696.64 359.26 700.11 360.14 703.82 362.7 709.12 368.66 713.28 370.74 720.46 371.5 727.15 371.06 733.61 371.62 740.1 375.35 741.16 376.93 742.97 381.04 744.05 382.29 746.07 382.41 748.16 381.43 750.36 380.75 752.81 381.7 753.37 383.22 753.32 388.09 753.63 390.18 754.51 391.83 757.01 395.11 758.02 396.84 758.36 401.02 756.49 415.15 755.55 417.8 754.45 419.83 753.65 421.99 753.51 424.99 754.34 427.33 757.17 431.99 757.69 434.14 755.06 439.03 750.06 439.7 746.14 439.99 Z" id="MDA-1650" data-name="Bender"/>
<path d="M 746.14 439.99 746.84 445.05 750.06 447.78 760.08 450.7 760.5 451.27 761.63 453.45 762.43 453.93 763.91 453.6 766.68 452.35 767.97 452.39 769.76 453.37 771.26 454.76 774.05 458.72 772.31 460.68 782.75 466.4 786.61 469.58 788.86 468.21 792.29 467.78 795.97 468.25 799 469.58 793.46 476.6 787.55 480.62 777.58 481.82 750.65 480.75 746.98 481.31 742.92 482.89 734.54 488.06 730.08 488.53 725.55 485.05 725.1 483.49 725.23 479.1 724.85 477.04 723.77 475.14 719.05 469.97 707.1 462.09 704.19 458.6 704.12 464.98 701.64 468.33 697.06 469.56 690.63 469.61 689.17 471.04 690.3 476.6 688.61 480.31 685.56 482.47 681.82 483.43 677.95 483.15 674.41 481.66 671.33 478.79 668.2 473.81 664.97 471.8 661.8 470.98 654.67 470.04 651.22 469.05 649.9 467.44 649.5 465.72 649.95 463.96 651.22 462.16 652.44 460.57 652.88 459.01 652.48 457.53 651.22 456.13 645.93 455.52 645.73 455.6 645.71 455.51 645.08 452.81 642.73 447.2 637.64 442.81 636.65 438.6 639.29 434.45 639.22 431.18 639.63 428.01 645.44 424.12 651.87 421.29 655.83 422.09 659.67 422.57 662.64 418.87 665.15 415.12 668.88 415.07 672.21 414.28 673.32 407.86 671.49 401.22 677.17 403.69 681.95 406.94 689.98 408.32 693.3 412.01 693.45 412 697.63 411.85 699.92 412.1 700.01 412.16 700.91 412.71 701.68 414.6 701.75 414.6 703.51 414.6 705.64 413.83 707.26 413.41 712.05 414.41 712.14 414.48 714.23 415.98 718.11 422.72 715 423.73 711.76 425.34 708.98 427.62 707.26 430.62 707.41 430.63 710.65 430.88 718.11 433.72 720.61 433.2 728.96 429.06 729 429.14 730.52 431.93 732.75 433.31 732.75 433.31 735.59 433.71 738.97 433.72 739.02 433.79 739.66 434.63 744.29 438.85 746.14 439.99 Z" id="MDA-1651" data-name="Ştefan Voda"/>
<path d="M 510.68 111.27 515.33 116.66 522.66 122.03 527.49 124.52 526.35 128.26 526.1 135.3 527.52 136.03 528.87 137.9 510.43 134.16 505.88 131.7 503.14 130.22 503.46 124.77 499.5 119.24 493.21 115.34 493.13 115.29 493.06 115.35 491.13 117.27 489.83 118.02 486.5 121.1 482.57 122.06 478.5 122.12 470.07 126.39 464.32 134.4 464.07 139.28 466.87 143.61 459.57 147.23 451.33 142.49 444.16 137.02 435.39 135.7 429.35 137.88 423.45 136.7 427.58 130.58 429.7 120.76 427.65 114.15 420.87 112.03 424.21 103.83 432.78 99.51 438.31 91.41 428.61 86.68 428.4 86.65 428.7 85.76 428.7 85.75 432.84 77.52 437.9 75.97 445.17 76.19 466.06 82.01 481.84 82.16 490.05 83.12 496.41 85.99 497.93 87.81 498.48 89.45 498.67 90.99 499.21 92.56 502.85 98.44 503.57 104.37 503.97 105.75 505.5 107.23 509.23 109.58 510.68 111.27 Z" id="MDA-1652" data-name="Camenca"/>
<path d="M 428.4 86.65 428.61 86.68 438.31 91.41 432.78 99.51 424.21 103.83 420.87 112.03 414.2 114.37 407.7 111.37 403.27 113 398.86 113.9 388.1 110.93 384.11 109.07 380.11 107.97 378.41 110.01 376.87 112.34 369.58 113.48 362.02 112.94 346.13 112.94 330.53 114.77 321.1 110.38 323.53 106.56 329.46 99.18 335.4 97.34 340.1 94.73 337.42 85.03 328.78 77.98 304 66.98 308.95 59.56 318.55 56.75 318.62 47.07 315.7 37.55 315.62 37.37 327.6 38.37 332.25 39.86 335.98 42.78 337.22 46.86 332.76 55.76 336.07 57.46 341.14 57.62 344.66 56.97 351.71 52.97 355.44 52.59 357.08 56.34 357.9 60.73 360.3 63.3 364.17 64.11 369.47 63.32 374.33 61.43 377.92 59.35 381.77 57.67 392.24 56.85 396.14 57.19 398.51 59.01 398.93 63.32 397.42 68 394.89 70.08 391.63 71.53 388.06 74.32 386.56 77.48 386.98 80.64 389.52 82.54 394.28 81.92 397.78 79.25 400.19 75.81 403.16 73.1 408.37 72.62 411.94 74.28 414.12 77.35 413.84 80.8 410.06 83.62 416.51 92.59 419.22 94.47 423.81 96.64 426.18 96.51 427.03 94.39 427.12 90.52 428.4 86.65 Z" id="MDA-1653" data-name="Soroca"/>
</g>
</svg>