<?xml version="1.0"?>
<svg xmlns="http://www.w3.org/2000/svg" version="1.2" baseProfile="tiny" width="800" height="292" viewBox="0 0 800 292" stroke-linecap="round" stroke-linejoin="round">
<g id="ne_10m_admin_1_states_provinces">
<path d="M 229.19 197.36 220.79 192.86 214.62 187.47 201.14 192.36 189.16 192.28 182.48 194.7 180.96 197.42 179.97 200.19 175.09 202.59 168.24 203.64 161.52 203.23 157.25 200.81 157.87 195.72 149.05 192.97 139.95 194.78 132.15 199.7 126.91 206.04 119.11 192.2 127.54 189.01 139.87 183.61 151.43 180.53 150.66 168.2 162.22 167.43 159.14 157.41 169.16 153.56 176.86 153.56 193.05 150.48 204.61 150.48 217.91 149.44 225.58 153.03 239.93 156.08 244.61 159.63 248.3 163.2 251.37 164.76 256.34 163.61 260.19 160.99 263.92 157.62 268.6 154.42 262.94 170.54 261.5 178.29 261.71 185.43 263.56 187.15 266.92 188.3 270.28 190.17 271.76 194 268.89 199.21 262.24 199.25 249.53 195.72 229.19 197.36 Z" id="ALD-4810" data-name="Jomala"/>
<path d="M 64.65 131.95 66.45 135.72 75.23 141.07 78.76 144.13 80.48 147.25 81.59 150.45 82.2 159.47 80.56 163.61 76.67 164.33 72.11 163.9 68.42 164.76 61.12 159.92 49.56 148.81 40.53 144.13 44.47 152.64 46.4 160.64 44.55 168.14 37.09 175.09 27.21 177.8 16.83 175.38 7.97 168.39 2.72 157.56 1.37 153.03 1 150.67 3.21 148.72 9.61 145.69 13.14 141.94 12.98 136.89 12.07 131.38 13.06 126.29 15.64 123.87 24.79 117.82 28.56 114.72 34.1 112.02 41.6 112.02 48.98 113.82 58.91 118.99 62.11 122.27 64.08 126.56 64.65 131.95 Z" id="ALD-4812" data-name="Eckerö"/>
<path d="M 471.62 245.72 447.19 252.69 431.34 252.36 417.33 253.26 410.02 254.78 408.78 262.09 400.86 266.66 389.3 264.21 388.09 255.07 398.47 243.8 417.39 233.15 428.96 234.38 447.13 238.69 466.42 240.77 471.62 245.72 Z M 540.05 213.48 542.19 215.12 542.6 217.11 544.2 217.66 548.01 216.74 551.21 217.05 553.05 219.3 553.79 220.62 555.02 221.4 557.73 222.01 556.38 222.58 550.39 223.24 549.16 223.53 552.85 225.17 553.67 228.24 551.87 231.87 546.9 235.2 542.23 239.19 537.35 239.93 523.73 233.78 521.56 234.97 518.4 238.5 511.92 240.73 504.29 240.1 498.71 236.9 501.09 231.07 513.89 218.89 520.94 215.02 527.71 214.26 532.67 214.59 536.69 213.48 540.05 213.48 Z M 464.1 230.64 449.09 232.55 442.94 229.06 449.66 222.87 460.04 215.45 472.55 210.47 479.44 209.63 473.62 223.08 464.1 230.64 Z M 508.07 221.64 498.47 224.96 483.87 222.46 483.05 214.38 492.28 211.84 509.5 210.65 511.1 210.28 506.59 209.54 507.57 207.82 515.12 206.18 519.38 207.51 516.35 210.96 511.51 214.65 508.97 219.08 508.07 221.64 Z" fill-rule="evenodd" id="ALD-4814" data-name="Föglö"/>
<path d="M 229.19 197.36 220.62 201.01 221.85 207.94 225.25 216.19 220.37 219.26 214.96 217.91 216.68 212.93 208.03 197.16 201.14 192.36 214.62 187.47 220.79 192.86 229.19 197.36 Z" id="ALD-4817" data-name="Mariehamn"/>
<path d="M 263.28 211.22 280.69 206.67 297.36 195.43 311.86 199.48 328.6 199.02 343.68 210.24 353.49 225.19 358.47 235.79 359.82 240.53 353.06 247.75 340.89 255.2 334.58 257.68 339.07 246.85 332.75 243.92 322.83 246.85 308.4 248.9 299.37 245.07 305.22 240.55 307.46 234.91 298.87 229.05 285.76 229.07 275.78 223.43 259.05 221.88 263.28 211.22 Z" id="ALD-4818" data-name="Lemland"/>
<path d="M 386.22 171.65 396.31 182.04 390.03 191.09 381.83 199.95 386.22 209.79 380.52 212.8 376.87 211.76 373.47 208.85 368.71 206.04 351.65 201.3 348.08 199.17 346.23 190.84 349.6 182.64 354.85 174.91 358.41 167.9 369.61 182.97 376.38 188.87 379.33 183.71 373.96 173.45 375.19 170.01 386.22 171.65 Z" id="ALD-4819" data-name="Lumparland"/>
<path d="M 461.97 109.39 465.45 111.05 467.55 113.17 468.45 115.98 468.78 119.73 444.33 144.13 438.26 143.06 438.26 140.46 440.6 137.08 440.97 133.82 441.71 131.48 441.63 125.88 439.17 121.98 424.24 127.97 420.38 123.5 421.2 115.85 427.19 109.39 437.65 107.38 453.44 112.51 461.97 109.39 Z" id="ALD-4820" data-name="Vårdö"/>
<path d="M 590.7 177.51 592.3 179.52 593.16 184.32 590.01 187.77 584.76 188.26 576.8 184.87 568.19 177.1 566.59 170.75 570.89 168.02 575.69 167.01 578.89 167.83 583.28 170.21 588.73 174.6 590.7 177.51 Z" id="ALD-4821" data-name="Sottunga"/>
<path d="M 602.97 142.67 592.43 145.24 584.31 142.9 580.98 139.97 580.66 134.25 583.2 129.04 590.91 127.68 602.06 133.3 607.31 137.81 602.97 142.67 Z M 669.08 118.91 661.57 120.1 655.21 119.73 658.99 126.29 644.72 122.99 639.96 110.42 643.07 99 652.1 99.06 657.18 101.68 672.64 107.06 676.21 109.39 674.98 115.48 669.08 118.91 Z M 638.07 78.76 619.25 85.85 615.56 84.87 614.94 81.53 615.1 79.8 615.56 75.6 616.91 73.06 621.01 67.68 622.73 65.96 624.62 64.44 626.75 61.49 627.9 58.79 631.51 57.9 637.46 58.64 643.12 60.88 645.45 65.51 644.14 70.58 642.09 75.19 638.07 78.76 Z" fill-rule="evenodd" id="ALD-4822" data-name="Kumlinge"/>
<path d="M 794.94 1.33 798.02 3.62 799 9.74 794.73 15.4 789.77 17.04 783.01 14.1 780.13 8.07 782.68 4.24 788.79 1.18 792.93 1 794.94 1.33 Z" id="ALD-4823" data-name="Brändö"/>
<path d="M 710.05 289.02 706.11 291.42 693.68 289.08 687.41 286.56 683.72 284.66 680.76 279.49 685.19 275.16 692.08 273.64 698.6 273.46 703.2 276.78 706.36 283.24 710.05 289.02 Z M 748.56 271 741.99 272.13 734.86 271.59 734.78 272.48 742.28 275.41 745.85 280.21 741.58 282.83 716.07 275.61 709.19 271.98 706.56 269.28 707.54 268.8 709.92 266.82 717.39 264.46 739.53 267.45 745.11 267.53 748.19 268.54 748.56 271 Z" fill-rule="evenodd" id="ALD-4824" data-name="Kökar"/>
</g>
</svg>