<?xml version="1.0"?>
<svg xmlns="http://www.w3.org/2000/svg" version="1.2" baseProfile="tiny" width="800" height="473" viewBox="0 0 800 473" stroke-linecap="round" stroke-linejoin="round">
<g id="ne_10m_admin_1_states_provinces">
<path d="M 341.03 329.42 307.22 332.8 309.57 309.97 341.01 306.72 341.03 329.42 Z" id="BMU-5134" data-name="City of Hamilton"/>
<path d="M 700.69 64.21 687.2 43.23 717.17 26.74 729.16 49.22 700.69 64.21 Z" id="BMU-5135" data-name="City of Saint George"/>
<path d="M 496.69 290.64 487.79 296.33 439.97 320.85 420.06 344.1 399.48 309.97 359.13 327.61 355.38 286.39 416.68 261.19 452.23 252.2 462.44 242.48 496.69 290.64 Z" id="BMU-5136" data-name="Devonshire"/>
<path d="M 488.88 217.32 503.16 221.21 519.12 220.5 490.89 241.03 480.82 224.99 488.88 217.32 Z M 605.66 177.09 629.02 209.53 599.28 226.88 577.12 199.15 605.66 177.09 Z M 605.66 177.09 579.71 155.04 541.2 167.96 513.54 184.88 507.38 205.07 491.48 201.75 484.21 187.09 501.86 151.14 549.96 122.01 596.58 125.19 606.96 153.74 640.7 164.12 605.66 177.09 Z" fill-rule="evenodd" id="BMU-5137" data-name="Hamilton"/>
<path d="M 251.43 357.45 263.11 343.18 289.06 353.56 279.98 361.35 251.43 357.45 Z M 328.04 414.04 298.63 367.8 352.79 339.52 359.13 327.61 399.48 309.97 420.06 344.1 409.73 356.16 344.85 406.76 328.04 414.04 Z" fill-rule="evenodd" id="BMU-5138" data-name="Paget"/>
<path d="M 355.38 286.39 359.13 327.61 341.03 329.42 341.01 306.72 309.57 309.97 307.22 332.8 270.89 319.83 242.13 284.49 252.62 272.5 355.38 286.39 Z" id="BMU-5139" data-name="Pembroke"/>
<path d="M 629.02 209.53 605.66 177.09 640.7 164.12 697.79 182.28 629.02 209.53 Z M 596.58 125.19 549.96 122.01 579.71 82.37 632.87 51.68 703.7 1 799 69.4 773.05 99.24 771.75 129.08 756.18 118.7 732.82 100.54 688.02 91.14 673.14 105.73 652.38 83.67 596.58 125.19 Z M 687.2 43.23 700.69 64.21 729.16 49.22 717.17 26.74 687.2 43.23 Z" fill-rule="evenodd" id="BMU-5140" data-name="Saint George&apos;s"/>
<path d="M 77.54 401.57 20.53 411.87 11.38 392.49 1 356.16 32.34 368.41 27.84 344.43 39.32 312.27 21.76 279.6 46.41 287.39 58.09 267.92 73.66 287.39 94.42 305.55 64.58 327.61 55.19 365.49 47.71 376.92 64.58 388.6 125.57 395.08 125.57 405.46 77.54 401.57 Z" id="BMU-5141" data-name="Sandys"/>
<path d="M 496.69 290.64 462.44 242.48 480.82 224.99 490.89 241.03 519.12 220.5 561.55 218.62 577.12 199.15 599.28 226.88 566.74 245.86 496.69 290.64 Z" id="BMU-5142" data-name="Smith&apos;s"/>
<path d="M 20.53 411.87 77.54 401.57 73.66 423.63 95.72 449.58 132.05 449.58 178.77 432.71 219.65 425.36 238.17 450.87 174.87 471.64 124.27 470.34 85.34 469.04 33.44 439.2 20.53 411.87 Z" id="BMU-5143" data-name="Southampton"/>
<path d="M 328.04 414.04 257.92 444.39 238.17 450.87 219.65 425.36 178.77 432.71 191.74 409.36 222.88 406.76 278.68 378.22 298.63 367.8 328.04 414.04 Z M 263.11 343.18 251.43 357.45 220.29 361.35 189.15 358.75 180.06 340.59 190.44 334.1 218.99 340.59 237.16 335.4 248.83 331.5 263.11 343.18 Z" fill-rule="evenodd" id="BMU-5144" data-name="Warwick"/>
</g>
</svg>