<?xml version="1.0"?>
<svg xmlns="http://www.w3.org/2000/svg" version="1.2" baseProfile="tiny" width="800" height="231" viewBox="0 0 800 231" stroke-linecap="round" stroke-linejoin="round">
<g id="ne_10m_admin_1_states_provinces">
<path d="M 189.68 186.1 182.07 186.29 175.66 183.22 181.7 182.7 183.66 182.11 185.36 180.89 185.97 181.31 186.44 181.39 186.86 181.23 187.29 180.89 187.29 180.45 186.04 179.87 184.3 179.33 182.57 179.09 181.36 179.41 182.12 178.24 183.91 177.68 185.91 177.6 187.29 177.93 186.72 178 185.36 178.47 186.67 178.78 188.13 178.86 189.56 178.74 190.78 178.47 190.78 177.93 189.31 177.93 190.33 177.53 190.78 177.43 186.29 175.61 183.86 175.04 181.36 174.97 183.55 174.23 194.41 175.09 194.94 175.38 195.31 175.72 195.73 175.96 197.98 176.52 199.13 176.47 200.21 175.96 199.39 176.02 198.61 175.98 197.89 175.8 197.2 175.46 198.07 174.9 198.6 174.67 199.23 174.47 197.75 173.98 199.62 173.67 202.18 174.02 203.15 174.01 204.61 174 206.13 172.54 203.63 173.17 202.28 173.25 201.69 172.77 202.19 171.91 203.35 171.48 205.64 170.98 204.18 170.57 201.99 170.46 199.77 170.6 198.19 170.98 198.63 169.75 197.81 169.19 196.37 169.04 194.35 169.07 193.67 169.18 193.03 169.39 192.51 169.74 189.8 169.49 191.92 168.68 192.63 168.09 192.27 167.03 193.63 166.6 203.71 166.46 212.41 167.8 213.12 172.95 209.57 180.5 196.42 182.98 189.68 186.1 Z" id="ISL-5131" data-name="Reykjavík"/>
<path d="M 250.9 101.92 250.84 102.58 251.56 103.57 251.65 104.8 251.45 106.13 251.49 106.76 251.81 107.51 252.41 108.36 253.48 109.38 255.27 111.41 256.45 114.16 256.88 114.93 258.08 116.09 253.26 116.05 250.84 115.68 248.75 115.14 243.1 113.02 243.19 112.54 243.2 112.3 243.12 111.97 242.89 111.72 242.06 111.36 241.64 111.14 240.33 110.21 239.61 109.86 238.3 109.36 237.81 109 237.4 108.3 236.22 106.66 236.05 105.96 236.04 105.44 236.11 104.98 236.22 104.6 236.43 104.28 236.76 103.92 238.58 102.33 239.05 101.81 239.15 101.28 238.94 100.72 237.58 98.82 237.36 98.34 236.98 97.79 236.47 97.29 232.74 95.36 232.12 95.17 231.5 95.08 231.04 94.94 230.55 94.65 230.02 94.12 227.98 93.07 223.76 89.43 222.49 87.81 221.96 87.39 221.16 87.19 218.47 87.19 212.24 87.93 212.02 87.89 211.55 87.57 210.07 86.8 209.6 86.43 209.45 85.98 209.69 85.5 210.47 84.87 212.25 84.21 212.81 83.93 212.96 83.63 212.77 83.25 212.71 82.88 213.15 81.76 213.35 80.92 213.33 78.79 212.51 77.81 210.6 78.37 209.7 78.98 207.91 80.83 206.67 81.31 199.73 82.27 197.2 82.3 192.05 81.81 187.76 82.34 186.35 82.3 187.77 81.18 189.31 80.32 186.7 79.25 185.72 78.47 185.36 77.36 184.41 77.66 183.42 77.84 182.39 77.91 181.36 77.86 181.77 78.87 181.13 79.2 180.1 79.1 179.35 78.85 178.68 78.19 177.33 76.46 176.38 75.88 176.76 77.1 176.59 78.12 175.95 79.02 174.9 79.83 173.62 80.5 172.89 80.76 172.23 80.86 171.97 81.17 171.52 81.85 170.93 82.53 170.24 82.83 167.51 82.94 166.29 82.74 164.35 81.46 160.09 79.83 157.05 79.18 156.65 78.54 158.07 77.36 159.64 76.88 167.64 76.15 171 75.16 172.73 74.94 173.53 74.62 173.74 73.88 173.75 73.03 173.92 72.38 174.54 71.87 175.34 71.48 176.92 70.95 174.78 71.19 169.47 74.4 167.01 75.26 164.65 75.72 159.55 75.88 159.55 75.39 162.61 74.47 163.55 73.95 163.55 73.41 162.05 73.46 160.97 73.88 159.1 74.94 157.61 75.18 156.69 74.89 155.85 74.49 154.57 74.4 154.57 74.94 155.45 75.49 155.08 76.14 154.03 76.69 150.04 77.36 148.97 77.13 148.2 75.88 148.13 74.69 148.4 73.81 148.38 72.91 147.44 71.68 146.04 69.14 145.17 68.25 144.27 68.92 144.32 69.31 144.27 70.09 144.37 70.86 145.53 72.4 145.53 72.99 145.13 73.55 143.74 74.82 142.95 75.32 142.04 75.37 140.97 74.67 139.6 73.3 138.99 73.18 138.53 75.06 137.98 75.64 137.2 75.91 136.26 75.88 135.7 75.57 135.13 74.99 133.48 72.72 133.16 71.54 133.69 70.33 135.32 68.97 134.66 68.57 134.3 68.67 133.94 68.92 133.3 68.97 131.37 68.43 130.15 68.43 129.74 68.55 129.4 68.97 129.44 69.38 130.09 70.95 130.79 71.84 132.76 77.36 131.75 77.81 130.52 77.7 129.18 77.42 127.87 77.36 127.87 76.91 128.28 76.31 127.93 75.82 127.11 75.51 126.14 75.39 123.74 75.71 122.95 75.62 122.89 74.94 122.3 75 120.47 74.94 120.47 74.4 122.22 73.67 125.45 71.83 127.38 71.43 126.66 70.64 125.44 70.09 122.89 69.42 122.49 71.03 121.02 72.41 119.19 73.11 117.71 72.65 117.24 71.85 116.91 70.97 116.48 70.25 115.71 69.96 115.52 70.45 115.16 72.73 114.94 73.41 113.41 74.24 109.06 74.68 107.03 75.16 103.04 74.34 100.91 73.44 101.12 72.38 101.12 71.93 99.11 72.42 97.88 73.85 97.78 75.43 99.15 76.37 99.15 76.91 98.21 77.32 96.57 78.44 95.61 78.85 94.45 79 89.63 78.76 87.65 78.39 86.49 78.31 85.37 78.07 84.51 77.54 83.71 76.89 83.31 76.91 82.82 76.95 82.47 77.05 81.73 77.36 82.06 77.46 82.27 77.56 82.77 77.86 80.69 78.22 76.89 79.54 67.12 80.37 64.9 79.83 64.84 80.7 64.53 80.98 64.04 81.05 63.43 81.31 60.71 83.28 47.45 84.84 44.1 84.67 41.17 83.82 41.17 83.28 41.57 82.71 41.27 82.18 40.54 81.71 39.68 81.31 41 81.35 41.56 81.5 42.16 81.81 42.37 80.48 41.03 79.81 39.38 79.9 38.65 80.86 36.92 79.78 25.82 77.86 5.2 78.77 2.56 78.57 1 77.36 4.17 76.57 5.78 75.9 6.48 75.16 7.39 74.67 11.61 73.55 12.89 72.92 13.19 71.8 13.18 70.5 13.59 69.42 15.81 68.8 17.08 68.1 18.1 67.94 19.94 68.08 26.97 69.82 29 69.96 30.25 70.27 34.21 72.38 37.06 73.13 42.11 73.7 43.31 74.39 44.36 75.2 45.61 75.88 47.79 76.34 49.9 76.28 54.01 75.39 50.7 75.44 49 75.24 47.63 74.94 46.44 74.29 45.43 73.44 44.32 72.7 42.87 72.38 39.31 70.75 37.34 69.32 35.03 68.03 33.76 67 44.67 67.94 51.75 69.67 54.01 69.96 52.62 68.84 50.69 67.89 48.62 67.23 45.48 66.75 41.73 65.71 38.38 65.2 36.79 64.56 34.21 63.05 31.25 60.53 31.01 59.61 31.09 58.74 31.01 57.89 30.26 57.04 33.32 55.91 36.43 55.99 66.93 63.05 67.62 63.4 68.9 64.48 70.87 65.11 71.37 65.47 72.11 66.76 71.79 67.57 71.02 68.32 70.43 69.42 71.72 69.72 73.38 69.17 76.35 67.44 76.64 67.8 77.79 68.43 78.57 67.75 82.5 68.16 84.25 67.94 84.25 67.44 83.61 67.3 83.31 67.13 82.77 66.46 84.03 66.42 87.26 65.47 88.43 65.41 89.59 65.48 90.69 65.42 91.7 64.97 83.12 65.27 79.21 64.75 76.35 63.99 75.35 63.5 74.06 62.65 73.36 61.84 74.08 61.48 78.58 60.61 79.56 60.78 80.68 61.19 86.59 60.86 88.47 60.15 89.95 59.99 93.11 60.5 94.66 60.56 96.14 59.99 95.23 59.61 94.78 59.49 94.17 59.5 94.17 59.05 97.57 58.07 98.61 57.52 94.65 57.76 92.36 58.19 89.26 59.36 69.77 59.16 65.94 58.51 63.43 57.52 59.62 58.1 58.76 57.8 57.75 57.04 53.55 55.1 51.23 53.14 49.68 50.79 49.93 48.6 53.01 47.16 54.44 47.12 58.54 48.15 63.92 48.64 65.27 49 67.57 50.18 68.9 50.62 70.27 50.69 74.82 50.12 83.76 51.6 86.72 51.6 91.87 53.16 94.66 53.64 97.17 53.13 91.19 52.33 89.29 51.34 83.31 51.11 81.44 50.65 78.05 49.39 70.56 48.66 68.9 48.15 64.97 45.94 62.99 45.48 62.02 44.8 60.46 44.53 57.15 43.24 54.19 41.56 53.55 40.97 53.54 38.74 53.96 37.57 55.03 36.7 58.01 36.25 61.76 36.6 74.86 39.86 78.7 40.27 81.29 39.66 81.63 40.8 82.51 41.77 83.77 42.44 85.24 42.67 85.24 42.22 84.01 41.45 81.79 39.2 80.3 38.72 78.65 38.57 75.32 37.89 73.59 37.73 72.79 37.49 70.58 36.25 66.35 34.69 63.92 33.29 66.26 32.5 72.56 32.25 77.34 32.56 83.76 34.73 82.04 34.08 79.2 32.17 77.56 31.77 70.62 31.84 68.9 31.32 68.9 30.78 69.61 30.23 70.66 29.58 71.88 29.03 72.58 28.9 73.1 28.8 76.09 28.74 77.23 28.33 77.34 27.37 78.98 27.03 90.33 28.36 97.7 30.58 99.87 30.78 101.3 31.25 103.13 32.35 104.37 33.65 104.08 34.73 104.58 36.3 108.15 34.01 109.56 33.74 110.34 33.93 111.02 34.37 112.03 35.27 113.35 36.04 113.49 36.43 113.51 37.49 113.9 38.65 114.01 39.35 113.53 39.89 112.31 40.82 112.03 40.97 108.79 43.49 108.08 44.2 108.53 44.2 110.08 43.17 114.03 41.18 115.48 40.21 115.89 39.62 116.21 38.96 116.67 38.43 117.46 38.23 118.32 38.45 118.87 39 119.92 40.7 119.59 41.02 119.44 41.24 120.48 40.82 121.62 40.13 122.78 39.73 123.88 40.21 122.64 41.88 120.94 43.58 118.86 44.94 116.47 45.63 119.37 45.56 120.69 45.27 121.9 44.64 123.28 42.79 124.33 41.69 125.13 41.46 126.14 43.41 125.68 45.42 125.01 47.12 125.4 48.15 127.87 44.64 127.73 43.03 128.03 41.17 128.64 39.44 129.4 38.23 129.98 37.68 130.38 37.57 135.28 37.75 135.77 37.98 135.94 38.96 136.4 39.55 137.03 39.92 139.79 41.12 142.41 43.15 142.83 43.41 142.9 43.74 142.57 45.3 142.26 46.1 141.82 46.8 141.24 47.16 141.43 47.42 141.74 47.6 138.01 51.87 137.25 53.2 137.78 53.81 138.72 53.7 140.42 50.91 145.21 45.62 145.69 44.2 145.69 43.66 147.24 43.54 148.22 44.23 149.06 45.25 150.17 46.17 150.7 46.22 151.12 46.05 151.56 46.05 152.15 46.67 152.11 47.25 151.72 47.81 151.66 48.3 152.64 48.64 152.77 48.27 153.11 47.55 153.59 47 154.12 47.16 154.13 47.65 153.63 50.12 153.03 50.93 151.36 52.32 150.67 53.13 150.67 53.58 153.43 52.93 156.25 48.9 158.56 48.15 158.56 47.6 157.08 46.94 156.25 45.54 155.73 43.95 155.11 42.67 154.06 41.64 152.68 40.67 151.15 39.95 149.63 39.66 150.38 38.72 150.7 37.84 151.11 37.03 152.15 36.3 153.53 36.01 154.97 35.98 156.24 35.71 157.08 34.73 155.6 34.75 152.03 35.49 150.67 36.03 149.33 36.24 143.27 35.02 139.22 33.29 122.03 30.26 116.98 28.07 113.96 24.86 117.34 23.97 128.07 22.79 130.34 22.84 138.01 23.82 140.01 23.82 140.79 23.95 141.17 24.24 141.41 24.59 141.74 24.86 143.68 25.68 144.7 25.78 145.69 25.35 145.2 25.1 144.85 24.78 144.21 23.82 147.78 23.83 149.61 23.63 152.79 22.6 156.4 22.45 158.07 21.89 148.24 22.53 145.24 21.89 143.82 21.28 144.12 21.19 145.29 21.13 146.45 20.63 147.22 20.09 148.28 19.66 149.48 19.41 150.67 19.43 150.67 18.88 149.06 18.51 148.1 18.65 145.24 19.87 141.57 20.7 137.29 20.86 133.91 20.58 133.3 20.41 133.2 19.63 133.83 19.11 135.32 18.39 135.59 17.88 135.98 16.42 136.26 15.97 137.25 15.53 140.71 14.94 137.56 15.2 135.19 15.88 129.47 18.39 128.13 18.69 125.13 18.88 124.24 18.46 124.73 17.51 125.85 16.52 126.84 15.97 126.84 15.43 124.36 15.85 123.13 16.27 121.9 16.91 119.02 19.01 118.44 19.16 116.7 19.99 105.25 18.78 102.27 18.09 100.3 17.04 99.12 16.57 98.62 16.1 99.59 15.43 102.37 15.35 105.87 15.9 108.96 15.71 110.55 13.46 108.5 13.34 106.22 12.63 104.11 11.61 102.55 10.5 104.77 9.77 107.04 10.2 109.31 11.02 111.49 11.48 110.96 10.67 110.59 10.32 110 9.96 117.93 9.42 118.44 9.51 118.88 9.8 119.49 10.68 119.92 10.99 121.48 11.15 122.14 10.6 121.87 9.88 120.69 9.51 119.51 9.32 115.93 8.03 123.16 8.03 124.44 8.25 127 9.28 130.26 9.78 132.86 11.07 134.33 11.48 136.18 11.35 139.01 10.01 140.71 9.51 140.55 9.24 140.26 8.52 143.1 8.1 145.44 8.86 147.71 9.95 152.7 10.94 153.8 10.85 154.12 9.96 153.6 9.24 151.7 8.71 151.16 8.03 153.48 8.19 155.71 9.09 157.41 10.51 158.07 12.22 159.33 13.29 165.22 14.61 167.04 15.97 166.01 16.69 166.95 17.13 170.01 17.41 170.01 17.9 168.69 17.73 168.14 18.03 168.03 18.65 168.04 19.43 168.4 19.8 169.03 20.3 169.16 20.84 168.04 21.36 168.04 21.89 168.98 22.39 169.96 21.94 171.11 21.58 172.31 21.36 173.42 21.36 174.09 21.68 174.67 22.17 175.37 22.39 175.93 21.89 177 20.98 178.16 20.83 178.83 21.34 178.4 22.39 183.55 22.16 184.86 22.39 185.5 21.93 186.14 21.91 186.74 22.13 187.29 22.39 187.7 22.66 187.7 22.66 190.3 24.36 189.61 24.87 185.36 26.33 186.32 26.6 187.25 26.4 188.22 26.02 189.31 25.8 190.37 25.91 193.75 27.05 194.66 27.61 195.23 27.81 195.95 27.83 197.41 27.45 198.19 27.37 202.73 28.36 202.51 28.62 202.19 29.3 203.44 29.63 204.16 30.49 204.14 31.37 203.18 31.77 203.45 32.22 204.03 32.93 204.16 33.29 204.18 33.27 204.3 34.45 204.67 35.84 205.15 36.33 206.13 36.7 207.16 36.64 208.43 36.31 209.66 36.18 210.58 36.7 210.72 37.7 210.09 38.61 209.22 39.44 208.65 40.21 209.57 40.1 210.72 39.76 211.69 39.34 212.1 38.97 212.14 37.76 212.06 37.2 210.58 35.76 211.48 35.35 214.05 34.82 217.26 34.73 217.8 34.98 218.2 35.51 218.51 36.05 218.79 36.3 220.13 36.56 219.26 37.12 217.72 37.64 217.04 37.73 216.57 38.43 216.89 38.95 218.28 39.93 220.11 40.56 227.95 39.66 230.03 39.89 231.73 40.29 233.04 41.14 233.91 42.67 223.74 43.07 221.8 43.73 214.17 44.65 213.09 44.64 214.42 45.67 216.44 45.55 220.52 44.64 227.3 44.14 229.42 44.64 228.55 45.26 225.44 46.17 225.44 46.67 233.22 45.75 235.13 46.42 236.18 47.87 236.41 49.12 235.55 50.06 233.38 50.62 236.83 51.6 236.83 52.14 233.24 55.6 231.94 56.54 229.81 57.34 222.47 58.51 222.47 59.05 224.04 59.1 226.73 58.89 227.95 59.05 231.79 60.07 232.93 60.53 227 63.49 224.88 64.17 215.07 63.99 214.37 63.65 213.18 62.71 212.84 62.51 211.45 62.08 210.15 61.12 209.27 60.11 209.14 59.5 207.35 58.46 205.12 57.95 202.8 57.98 200.71 58.51 202.11 58.61 205.51 59.53 206.67 59.99 206.82 60.19 208.34 61.37 208.65 61.48 208.83 62.35 208.61 62.93 208.02 63.41 207.12 63.99 208.29 64.48 208.89 64.84 209.14 65.22 209.52 66.18 210.35 66.73 211.18 67.02 211.56 67.22 212.84 67.71 224.91 67.57 226.99 68.02 227.95 68.97 227.21 69.79 223.48 72.26 222.02 72.92 222.02 73.41 225.52 72.61 229.95 70.93 233.74 70.58 235.35 73.68 233.82 76.32 230.2 78.87 225.94 80.72 222.47 81.31 222.47 81.81 229.77 80.63 232.57 79.58 234.14 79.34 235.76 79.48 236.81 79.87 238.85 81.31 241.6 82.41 242.35 83.12 241.81 84.32 242.83 84.58 242.99 85.13 242.81 85.88 242.85 86.79 243.28 88.39 243.29 89.5 242.96 90.95 243 91.67 245.81 95.47 246.79 96.21 246.5 96.34 246.43 96.39 246.41 96.45 246.26 96.66 247.7 97.31 249.16 98.51 249.92 99.92 249.27 101.19 249.27 101.64 250.44 102.08 250.9 101.92 250.9 101.92 Z" id="ISL-690" data-name="Vestfirðir"/>
<path d="M 793.93 94.82 794.3 95.22 792.57 95.79 789.64 97.76 788.06 98.19 778.9 99.17 769.23 99.17 765.04 99.62 760.6 99.62 762.82 100.37 771.23 99.62 782.36 100.16 787.34 99.62 790.06 99.62 790.78 99.87 790.44 100.4 789.32 101.19 789.13 101.65 789.19 101.98 789.19 102.26 788.82 102.58 786.08 103.12 783.65 103.22 781.37 103.61 781.37 104.16 786.97 103.65 788.28 104.16 788.28 104.6 787.59 104.68 786.95 104.88 786.36 105.2 785.81 105.63 788.06 105.63 788.77 105.78 789.33 106.11 789.75 106.43 790.06 106.58 790.78 106.36 791.94 105.37 792.55 105.14 792.69 104.86 794.79 103.12 797.75 101.64 797.95 102.7 797.92 104.24 797.69 105.71 797.26 106.58 797.26 107.11 798.61 107.53 799 108.21 798.52 109.09 797.26 110.08 795.8 110.65 792.73 111.03 791.29 111.56 792.57 112.54 793.23 113.22 793.04 113.53 791.92 113.77 789.66 114.82 788.56 115.06 783.34 114.52 778.85 114.86 777.38 114.52 776.69 113.85 776.09 112.85 775.33 111.95 774.19 111.56 773.02 111.4 770.62 110.69 766.83 110.15 762.82 108.48 760.6 108.1 761.05 108.9 761.81 109.48 762.69 109.87 763.51 110.08 760.91 111.32 746.19 111.56 746.19 112.1 768.99 113.04 769.72 113.32 770.73 113.87 771.61 114.57 771.99 115.28 772.61 115.67 775.98 116.99 783.44 118.46 784.87 119.5 781.87 120.51 778.32 120.28 771.99 118.97 764.79 119.5 760.35 118.69 759.11 118.97 763.38 120.27 773.74 121.3 778.41 122.96 778.99 123.38 779.68 124.04 779.91 124.66 779.13 124.93 777.95 125.16 776.15 126.18 775.2 126.41 767.64 125.15 765.49 125.96 773.33 127.33 774.64 127.88 774.68 128.66 772.62 128.93 764.37 128.79 762.07 128.39 761.62 128.73 761.02 128.98 759.56 129.37 759.56 129.91 761.78 131.09 762.95 131.89 764.05 132.87 762.87 133.06 759.56 134.36 743.49 135.83 740.91 135.48 739.47 135.09 738.52 134.6 736.45 131.78 734.6 130.97 732.65 129.3 731.58 128.92 725.9 128.39 726.62 128.8 727.39 128.94 729.11 128.92 730.1 129.26 730.01 130.01 729.53 130.83 729.36 131.35 730.48 131.96 734.13 132.82 735.32 132.87 735.32 133.37 735.21 134.28 736.2 135.42 737.56 136.41 738.52 136.82 742.19 137.36 743.53 137.99 742.73 138.8 743.23 139.29 731.1 137.54 727.38 138.8 728.56 139.42 731.46 140.06 732.86 140.77 733.56 141.58 733.47 142.27 732.71 142.83 731.33 143.24 721.69 143.24 720.81 143.71 721.7 144.68 723.13 145.49 723.89 145.48 724.62 146.22 726.19 146.7 727.6 146.74 727.88 146.2 730.86 145.85 735.32 142.96 737.57 142.25 738.03 142.61 736.92 143.41 730.29 146.89 729.36 147.73 729.11 148.4 728.89 149.89 728.6 150.47 726.23 152.27 725.9 152.93 725.98 153.38 726.07 153.63 726.23 154.14 726.15 154.41 725.79 154.64 725.39 154.77 725.06 154.98 724.91 155.43 724.75 155.74 723.95 156.86 723.66 157.1 716.15 157.47 710.95 158.28 709.07 158.63 712.21 157.56 718.67 156.75 721.96 156.16 720.11 155.62 712.07 155.07 711.5 155.18 711.41 155.49 711.54 156.45 711.27 156.66 710.74 156.81 709.2 157.49 708.31 157.64 707.98 157.84 706.52 159.08 705.68 159.46 701.68 160.57 700.04 161.32 698.56 162.2 697.63 163.08 698.03 162.25 698.27 161.9 698.62 161.6 698.62 161.1 698.13 161.1 697.63 161.82 696.52 162.45 695.29 162.9 694.44 163.08 694.17 163.31 694.39 163.84 694.94 164.37 695.68 164.6 697.24 164.52 697.93 164.37 698.62 164.07 698.97 165.08 699.61 166.04 697.99 166.03 695.86 167.25 694.44 167.56 691.08 167.41 689.61 167.11 688.21 166.58 685.92 165.37 684.54 164.83 683.04 164.6 682.4 164.81 681.04 165.75 680.35 166.04 679.47 165.96 678.64 165.68 677.8 165.58 676.85 166.04 677.79 166.58 677.02 166.93 676.18 167.05 674.38 167.03 675.82 165.05 675.82 164.6 673.49 164.88 672.36 164.85 671.87 164.33 671.54 163.22 670.74 162.47 669.77 162.22 668.91 162.58 668.91 163.08 669.51 163.43 669.92 163.79 670.21 164.3 670.43 165.05 669.45 164.76 667.39 164.42 666.44 164.07 666.44 163.62 667.15 162.61 666.08 161.09 664.26 159.69 662.72 159.08 661.23 158.37 658.37 157.87 656.52 157.64 657.76 158.08 660.24 158.54 661.73 158.86 662.5 159.66 663.83 161.44 664.47 162.04 663.85 162.44 663.23 162.55 662.61 162.41 661.99 162.04 661.99 162.58 663.46 163.17 663.72 164.28 663.12 165.54 661.99 166.58 660.23 166.98 656.2 166.5 654.54 167.03 655.56 167.41 656.66 167.56 659.04 167.56 657.21 168.23 652.58 168.96 648.42 169.13 644.06 169.85 642.16 170.53 641.82 170.17 641.36 169.84 641.18 169.49 639.16 170.73 632.74 172.99 638.76 172.1 640.19 172.54 637.76 173.43 619.03 175.95 616.41 176.99 619.82 176.99 619.82 177.43 615.22 179.18 613.66 179.41 612.96 179.6 610.48 180.89 608.77 181.45 608.07 181.8 607.52 182.42 606.76 181.72 606.04 181.6 605.31 181.89 604.51 182.42 604.51 182.91 605.49 182.91 605.49 183.36 601.15 184.69 599.57 184.89 600.03 183.86 596.12 185.16 594.25 186.16 593.11 187.35 594.3 187.38 595.24 187 595.97 186.59 594.1 188.27 593.11 188.88 587.92 190.87 584.46 193.28 582.21 193.82 583.11 193.6 584.02 193.25 584.76 192.69 585.17 191.84 574.26 195.84 564.56 197.09 563.12 196.9 561.88 196.29 562.43 196.72 563.03 197.03 563.68 197.22 564.39 197.27 563.05 197.63 561.88 197.77 562.12 198.53 562.08 199.53 561.69 200.39 560.89 200.73 560.53 200.5 560.4 200.01 560.4 199.02 560.21 198.79 558.92 198.26 556.2 196.6 555.46 196.29 554.3 196.11 553.71 196.32 553.51 196.95 553.49 198.01 553.73 199.35 553.69 200.29 553.24 200.73 552.27 200.48 552.12 199.84 552.5 198.01 552.26 197.36 551.74 196.52 551.21 196.05 550.97 196.53 551 198.46 550.88 199.36 550.52 200.19 551.49 200.85 551.15 201.35 550 201.66 548.55 201.76 549.36 200.12 549.41 199.41 549 198.8 549.3 198.17 549.49 197.89 549.74 197.77 550.4 197.56 550.44 197.15 550.19 196.79 549.98 196.78 550.39 194.84 550.47 193.79 550.25 193.32 550.01 193.03 549.23 192.48 548.4 192.16 548.01 192.56 547.81 194.43 547.94 195.2 548.55 195.84 547.37 196.31 546.01 196.27 544.81 196.37 544.06 197.27 544.94 198.01 545.32 198.85 545.81 199.62 547.02 200.19 545.7 201.01 543.02 201.29 537.85 201.22 536.75 201.06 534.14 200.19 533.16 200.5 532.18 201 531.44 200.98 531.18 199.74 522.25 202.21 518.27 202.81 518.26 202.8 518.13 201.98 518.39 189.39 518.82 187.96 521.44 183.55 555.07 152.27 568.79 140.22 570.55 137.6 572.08 134.76 572.5 133.77 572.65 133.12 572.68 132.54 572.52 131.88 572.24 131.32 571.8 130.71 571.64 130.11 571.29 129.55 569.55 127.56 569.4 127 569.49 126.66 569.71 126.39 571.59 124.59 572.67 123.91 573.18 123.49 573.34 123.14 573.35 122.81 573.02 122.25 572.91 122 572.93 121.59 573.06 121.09 573.5 120 573.81 119.59 574.2 119.35 576.06 119.3 580.25 118.41 581.51 118.27 584.43 118.24 585.72 118.11 586.24 117.99 587.02 117.66 590.84 115.35 593.95 113.93 594.74 113.68 599.59 113.03 600.48 112.73 601.51 112.21 603.32 110.98 603.88 110.38 603.92 109.99 602.63 109.56 602.34 109.35 602.25 109.06 602.29 108.73 602.6 108.02 602.77 107.74 603.77 105.27 603.82 104.97 603.75 103.7 603.59 102.78 603.58 102.16 603.68 101.57 603.86 101.08 603.83 100.9 603.7 100.79 603.6 100.44 603.65 99.92 604.14 98.88 604.6 98.28 605 97.89 607.03 96.6 609.21 94.73 609.94 94.38 613.71 93.22 614.5 92.81 615.11 92.25 616.05 91.08 616.39 90.47 616.47 90.01 616.08 89.15 615.71 88.64 613.69 87.15 612.32 86.39 606.78 84.78 606.42 84.59 605.9 84.17 605.73 83.97 605.69 83.7 605.7 83.28 605.99 82.47 606.28 82.06 606.65 81.77 607.56 81.29 609.02 80.14 610.32 79.9 611.06 79.62 611.96 79.09 612.95 78.16 614.08 76.77 614.76 75.63 614.97 75.09 615.27 73.81 615.44 73.36 615.83 72.85 616.45 72.54 617.45 72.46 639.9 74.36 640.71 74.3 640.88 73.98 640.93 73.11 641.09 72.57 641.36 71.93 643.07 69.57 643.15 68.97 643.01 68.4 642.71 67.83 642.49 67.26 642.33 66.55 642.29 64.65 642.18 64.13 641.96 63.73 641.4 63.16 641.28 62.82 641.24 62.32 641.39 61.19 641.57 60.68 641.93 60.24 642.74 60.02 657.76 58.31 658.36 58.14 658.56 57.78 658.6 57.46 658.82 57.06 659.36 56.59 660.55 56 661.57 55.64 665.43 54.71 666.31 54.32 667.01 53.79 667.96 52.11 674.44 51.7 678.71 50.35 681.63 49 683.43 47.43 712.87 45.86 715.12 43.16 718.62 42.78 719.34 44.4 719.44 45.19 719.22 45.48 718.3 45.87 717.96 46.17 717.92 46.5 718.02 47.29 717.96 47.6 716.29 49.38 716.03 49.88 715.19 50.18 710.51 52.59 705.18 54.23 703.56 55.1 703.69 56.37 702.27 57.4 698.62 59.05 700.78 59 702.7 58.35 706.07 56.54 704.96 58.02 702.88 59.64 702.03 60.94 704.59 61.48 707.18 61.17 712.85 59.81 728.37 58.07 733.96 56.8 736.92 56.48 739.24 57.52 736.1 60.56 734.31 61.31 734.49 61.93 735.02 62.53 735.32 62.78 735.66 62.96 737.3 63.49 741.88 64.77 743.23 65.47 739.3 65.97 737.19 66.66 735.42 68.52 731.69 70.36 730.22 71.91 724.73 74.65 723.63 75.56 722.78 76.65 722.4 77.86 723.32 77.29 724.86 75.71 725.63 75.39 726.46 75.19 728.89 74.16 729.63 73.68 730.95 72.51 739.91 66.92 741.48 66.46 743.41 66.67 749.15 68.43 748.02 67.74 745.96 66.81 745.16 66.01 761.04 69.96 763.07 70.09 771.01 69.25 772.36 69.33 773.2 69.69 773.74 70.55 773.84 71.29 773.43 71.79 772.49 71.93 772.49 72.38 774.76 72.35 775.76 72.49 776.43 72.92 776.51 73.43 776.33 74.09 775.98 74.94 776.48 75.47 777.1 75.87 778.41 76.37 781.78 74.3 783.63 73.73 785.81 73.95 786.19 74.26 786.28 74.72 786.26 75.15 786.35 75.39 786.8 75.44 787.84 75.31 788.28 75.39 790.83 76.58 791.29 76.91 791.4 78.51 790.37 79.51 789.04 80.2 788.28 80.86 788.46 81.28 789.29 82.66 789.32 83.28 788.84 83.57 786.35 84.32 787.09 84.76 787.08 85.31 786.82 85.98 786.85 86.79 784.41 87.53 777.82 87.12 774.95 87.77 776.74 88.42 782.36 89.26 782.59 90.44 780.94 91.25 778.64 91.69 775.04 91.7 773.51 91.91 770.47 92.71 764.43 93.19 762.57 93.7 763.7 94.38 775.17 92.58 778.66 92.71 785.64 91.94 787.83 92.22 791.42 93.22 793.26 94.07 793.93 94.82 Z" id="ISL-695" data-name="Austurland"/>
<path d="M 330.88 128.43 334.77 125.6 343.05 121.71 343.75 121.22 344.17 120.57 344.24 120.08 344.19 119.58 344.02 119.22 343.65 118.87 342.98 118.75 321.65 118.35 304.39 118.16 300.96 117.41 299.92 117.35 276.67 120.33 275.54 120.26 272.76 119.09 271.97 118.95 265.97 118.76 264.96 118.62 258.74 116.86 258.08 116.09 256.88 114.93 256.45 114.16 255.27 111.41 253.48 109.38 252.41 108.36 251.81 107.51 251.49 106.76 251.45 106.13 251.65 104.8 251.56 103.57 250.84 102.58 250.9 101.92 251.64 101.65 252.21 100.66 251.16 98.9 250.95 97.73 250.75 97.2 250.11 96.46 248.84 95.37 248.27 94.73 249.34 93.92 249.75 93.7 249.5 93.07 249.96 92.61 250.69 92.21 251.23 91.77 251.63 90.65 251.59 89.65 250.09 84.18 249.8 81.88 250.72 80.86 252.95 81.39 254.5 82.68 256.71 85.76 258.82 87.52 259.13 88.02 259.62 88.54 262.09 88.88 263.08 89.26 263.62 88.71 261.74 87.05 260.03 84.83 258.75 82.45 258.15 80.32 257.89 78.62 257.86 77.45 258.15 76.37 258.47 75.98 259.35 75.29 259.67 74.94 260.43 72.85 260.66 72.38 262.87 70.61 271.02 67.94 275.47 65.47 276.81 65.16 278.2 65 279.22 64.7 279.46 63.99 280.42 63.92 281.11 64.14 282.47 64.97 282.78 65 283.71 64.91 283.96 64.97 284.17 65.6 283.96 65.8 283.6 65.84 283.42 66.01 282.91 68.9 282.85 70.36 283.42 71.43 282.55 72.66 282.5 73.92 283.28 74.68 284.9 74.4 284.15 73.08 284.28 71.91 285.22 71.36 286.91 71.93 287.54 72.4 287.61 72.69 287.58 73.11 287.86 73.95 287.56 74.5 287.4 74.99 287.41 75.39 287.66 75.36 289.01 75.69 289.43 75.88 289.94 76.48 290.2 76.97 290.56 77.41 291.36 77.86 292.17 78.13 293.03 78.31 293.94 78.37 294.85 78.31 295.1 78.24 296.46 77.84 297.09 77.07 297.46 75.95 298.31 74.4 297.48 74.1 296.37 73.13 295.56 72.92 293.07 73.01 291.87 72.87 290.86 72.38 293.27 71.99 295.56 71.93 296.51 71.78 298.51 71.1 299.55 70.95 300.47 71.63 300.18 74.84 301.23 75.88 300.96 74.71 301.63 73.85 302.09 73.02 301.23 71.93 302.05 70.97 304.38 69.56 305.49 68.7 305.76 68.17 305.85 66.99 306.21 66.46 306.89 66.18 308.22 66.19 309.71 66.01 308.11 65.87 307.12 64.98 306.99 63.97 307.97 63.49 308.91 63.21 309.61 62.47 310.05 61.44 310.21 60.26 309.64 58.41 308.23 56.71 306.44 55.37 304.73 54.61 304.73 54.07 306.65 53.33 305.92 51.23 304.05 48.88 301.31 46.33 300.8 45.66 300.33 43.17 299.88 41.97 299.1 41.04 298.05 40.29 296.79 39.66 297.9 38.95 298.91 37.86 299.25 36.68 298.31 35.76 299.77 35.23 301.5 35.1 304.51 35.27 305.23 35.14 306.54 34.52 307.24 34.28 308.19 34.15 310.74 34.28 312.13 33.95 314.74 32.61 315.88 32.31 319.43 32.84 320.21 32.87 321.04 32.91 322.59 32.31 322.96 33.85 323.92 34.75 325.32 35.3 327.03 35.76 326.54 36.3 327.29 36.59 327.83 37.13 328.51 38.23 329.47 39.3 332.51 41.68 332.95 42.32 333.2 42.89 333.58 43.35 334.44 43.66 334.19 43.88 333.75 44.42 333.49 44.64 334.9 45.61 336.76 46.4 338.1 47.32 337.94 48.64 339.24 49.15 343.14 49.42 346.03 50.21 346.9 50.2 347.7 50.26 348.6 50.86 349.02 51.06 349.94 50.99 350.33 51.11 350.78 51.63 350.98 52.15 351.09 52.65 351.31 53.13 352.91 54.57 353.33 55.1 353.65 56 354.05 57.95 354.52 58.78 356.09 59.67 359.78 60.13 361.23 61.03 361.68 59.48 362.19 58.94 364.42 59.05 364.7 59.18 365.69 59.79 366.22 59.99 367.03 60.09 369.08 60.05 368.44 60.2 367.91 60.45 367.69 60.78 367.95 61.37 368.57 61.39 369.89 61.03 370.66 60.59 371.32 59.59 372.13 57.52 372.64 55.42 372.68 53.6 372.21 51.9 371.15 50.12 369.1 47.62 368.9 47.16 364.64 45.19 364.61 44.67 364.93 43.99 365.55 43.41 366.44 43.17 367.75 43.04 369.19 42.67 370.56 42.07 371.64 41.24 370.85 40.82 370.15 40.24 369.58 39.53 368.88 37.99 368.88 37.74 369.19 37.55 369.89 36.97 371.19 36.31 375.32 35.4 384.97 34.73 388.35 35.79 390.15 35.92 390 34.73 390.56 34.44 391.14 34.27 391.77 34.2 392.47 34.28 392.26 34.56 391.97 35.27 393.42 35.5 395.88 36.55 397.36 36.7 396.45 36.35 395.79 35.93 395.31 35.41 394.94 34.73 395.43 34.73 395.43 34.28 395.03 34.16 394.34 33.86 393.95 33.74 393.95 33.29 394.62 32.79 395.4 31.09 395.85 30.37 395.86 30.37 396.23 30.43 399.6 31.71 400.12 32.06 400.74 32.56 401.89 33.95 404.39 36.04 405.22 36.56 411.2 39.56 412.09 40.39 412.17 40.96 410.91 41.41 410.57 41.57 410.38 41.7 410.32 41.76 410.27 41.83 410.23 41.94 410.2 42.19 410.2 42.46 410.27 42.97 410.28 43.2 410.19 43.4 409.97 43.58 409.64 43.74 409.17 43.87 408.69 44.04 408.35 44.24 408.18 44.53 408.31 44.72 408.6 44.85 409.81 45.14 410.68 45.47 411.13 45.82 411.48 46.31 411.67 46.95 411.71 47.58 411.61 48.09 411.31 48.54 410.81 49 408.96 50.29 408.42 50.54 407.86 50.72 407.23 50.82 404.65 50.91 404.2 50.99 403.79 51.15 403.42 51.39 403.09 51.69 402.8 52.09 402.61 52.59 402.52 53.32 402.73 53.82 403.13 54.24 403.75 54.55 406.5 55.37 410.02 56.91 411.5 57.13 412.18 57.42 412.88 57.92 414.01 59.15 414.46 59.77 414.64 60.24 414.52 60.49 414.33 60.8 414.21 61.33 414.46 61.73 414.96 62.11 415.47 62.38 416.03 62.81 416.18 63.23 416.26 63.91 416.03 64.31 415.57 64.66 412.51 65.66 412.05 65.87 411.77 66.11 411.6 66.45 411.58 67.35 411.38 67.67 411.07 67.93 410.27 68.41 410.04 68.62 409.94 68.87 409.82 69.43 409.64 69.72 409.29 69.99 408.85 70.2 408.04 70.48 407.78 70.64 407.63 70.88 407.52 71.22 407.62 71.51 407.79 71.72 408.2 72.02 408.34 72.1 408.62 72.21 408.78 72.24 409.81 72.38 410.32 72.52 410.89 72.8 412.25 73.74 412.56 73.87 412.95 73.94 415.39 74.12 416 74.3 417.06 74.76 418.69 75.29 419.72 75.86 421.06 76.44 421.5 76.78 421.64 77.09 421.65 77.36 421.54 77.61 421.35 77.86 420.98 78.15 419.39 78.95 419.22 79.08 419.06 79.28 419.02 79.49 419.06 80.12 419.04 80.36 418.92 80.66 418.66 80.98 417.89 81.7 417.56 82.17 417.49 82.77 417.89 83.09 418.64 83.34 419.69 83.57 420.78 83.94 421.74 84.41 422.44 85.16 422.7 85.84 422.91 86.64 423.43 87.17 424.19 87.54 425.2 87.75 430.15 88.04 430.8 88.24 431.36 88.62 431.76 89.35 432.65 91.82 433.61 92.98 434.82 93.93 438.01 95.45 443.93 97.03 444.98 97.47 446.19 98.3 446.73 99.08 447.41 100.74 448.19 103.51 448.46 107.18 448.43 109.13 448.26 110.74 447.95 112.09 446.19 116.84 443.01 122.72 410.84 125.76 390.35 129.66 372.28 129.63 353.34 132.11 351.23 132.16 349.48 132 330.88 128.43 Z" id="ISL-697" data-name="Norðurland vestra"/>
<path d="M 448.06 43.12 447.1 43.38 446.24 43.26 445.62 42.99 445.18 42.55 445.02 41.99 444.6 41.11 443.89 40.08 444.31 39.81 445.7 40.45 446.36 40.91 447 41.32 448.06 42.28 448.06 43.12 Z M 555.07 152.27 514.14 141.67 477.64 132.42 456.97 127.28 449.77 125.43 443.01 122.72 446.19 116.84 447.95 112.09 448.26 110.74 448.43 109.13 448.46 107.18 448.19 103.51 447.41 100.74 446.73 99.08 446.19 98.3 444.98 97.47 443.93 97.03 438.01 95.45 434.82 93.93 433.61 92.98 432.65 91.82 431.76 89.35 431.36 88.62 430.8 88.24 430.15 88.04 425.2 87.75 424.19 87.54 423.43 87.17 422.91 86.64 422.7 85.84 422.44 85.16 421.74 84.41 420.78 83.94 419.69 83.57 418.64 83.34 417.89 83.09 417.49 82.77 417.56 82.17 417.89 81.7 418.66 80.98 418.92 80.66 419.04 80.36 419.06 80.12 419.02 79.49 419.06 79.28 419.22 79.08 419.39 78.95 420.98 78.15 421.35 77.86 421.54 77.61 421.65 77.36 421.64 77.09 421.5 76.78 421.06 76.44 419.72 75.86 418.69 75.29 417.06 74.76 416 74.3 415.39 74.12 412.95 73.94 412.56 73.87 412.25 73.74 410.89 72.8 410.32 72.52 409.81 72.38 408.78 72.24 408.62 72.21 408.34 72.1 408.2 72.02 407.79 71.72 407.62 71.51 407.52 71.22 407.63 70.88 407.78 70.64 408.04 70.48 408.85 70.2 409.29 69.99 409.64 69.72 409.82 69.43 409.94 68.87 410.04 68.62 410.27 68.41 411.07 67.93 411.38 67.67 411.58 67.35 411.6 66.45 411.77 66.11 412.05 65.87 412.51 65.66 415.57 64.66 416.03 64.31 416.26 63.91 416.18 63.23 416.03 62.81 415.47 62.38 414.96 62.11 414.46 61.73 414.21 61.33 414.33 60.8 414.52 60.49 414.64 60.24 414.46 59.77 414.01 59.15 412.88 57.92 412.18 57.42 411.5 57.13 410.02 56.91 406.5 55.37 403.75 54.55 403.13 54.24 402.73 53.82 402.52 53.32 402.61 52.59 402.8 52.09 403.09 51.69 403.42 51.39 403.79 51.15 404.2 50.99 404.65 50.91 407.23 50.82 407.86 50.72 408.42 50.54 408.96 50.29 410.81 49 411.31 48.54 411.61 48.09 411.71 47.58 411.67 46.95 411.48 46.31 411.13 45.82 410.68 45.47 409.81 45.14 408.6 44.85 408.31 44.72 408.18 44.53 408.35 44.24 408.69 44.04 409.17 43.87 409.64 43.74 409.97 43.58 410.19 43.4 410.28 43.2 410.27 42.97 410.2 42.46 410.2 42.19 410.23 41.94 410.27 41.83 410.32 41.76 410.38 41.7 410.57 41.57 410.91 41.41 412.17 40.96 412.09 40.39 411.2 39.56 405.22 36.56 404.39 36.04 401.89 33.95 400.74 32.56 400.12 32.06 399.6 31.71 396.23 30.43 395.86 30.37 395.85 30.37 395.88 30.33 396.58 29.89 399.09 28.98 405.55 28 407.84 28.46 407.32 30.78 408.7 30.55 409.67 29.91 411.32 28.36 410.99 27.65 410.77 27.37 412.1 26.94 414.06 27.08 417.68 27.81 417.12 28.89 415.9 30.46 415.67 31.54 416.47 31.52 421.68 29.3 423.8 29.5 425.54 30.37 427.03 31.32 428.37 31.77 429.05 32.28 428.21 33.43 426.16 35.27 427.08 35.3 428.12 35.18 429.1 34.92 429.83 34.5 430.67 34.23 431.62 34.54 432.54 35.02 433.35 35.27 434.48 35.81 435.18 37.07 435.76 38.54 436.54 39.66 435.2 41.83 434.63 43.1 434.81 43.66 439.99 44.2 443.32 45.07 448.69 45.39 449.41 45.63 450.19 46.2 451.4 47.38 453.08 47.93 453.63 48.67 454.01 49.51 454.65 50.46 454.79 50.78 455.03 51.02 455.61 51.11 456.93 51.03 457.59 51.09 458.08 51.35 458.8 52.25 458.99 52.85 458.84 54.86 459.12 55.68 460.45 56.97 460.86 57.52 460.85 60.56 461.08 61.03 461.71 61.23 463.82 62.51 467.23 63.99 466.84 64.95 467.2 66.24 468.07 67.27 469.25 67.44 470.16 66.54 470.1 65.22 469.49 63.91 468.76 63.05 468.18 62.77 466.68 62.3 466.25 62.01 465.93 61.2 466.15 60.73 466.53 60.4 466.78 59.99 466.74 59.31 466.57 58.81 466.5 58.3 466.78 57.52 467.16 57.24 468.4 56.77 468.76 56.54 469.18 55.19 468.96 54.04 466.78 50.62 466.73 50.39 466.78 49.38 466.6 49.11 466.16 49.12 465.64 49.2 465.25 49.14 463.83 47.85 463.28 47.6 463.21 47.53 463.1 47.37 462.9 47.23 462.52 47.16 462.16 47.32 461.57 48.01 461.31 48.15 460.33 47.87 458.09 46.7 457.36 46.17 458.04 45.15 457.76 44.18 456.84 43.45 454.76 42.89 453.3 41.39 452.38 40.7 452.38 40.21 452.92 40.21 452.92 39.66 450.95 37.64 450.05 34.27 450.44 30.89 452.38 28.8 453.34 28.63 459.83 28.8 460.81 29.04 462.55 29.66 463.55 29.79 466.64 29.66 467.77 29.79 467.62 30.06 467.62 30.15 467.57 30.2 467.23 30.33 469.94 30.98 477.07 30.21 480.16 30.78 480.75 31.33 481.5 32.76 482.13 33.29 482.93 33.46 485.85 33.29 487.12 33.6 489.44 34.96 490.79 35.27 491.76 35.62 494.59 37.43 495.5 38.23 496.67 40.31 497.5 41.28 499.82 41.99 501.05 42.71 502.91 44.2 505.37 47.2 506.41 48.15 506.7 46.77 506.1 45.69 505.15 44.72 504.39 43.66 505.8 43.69 507.45 43.51 509.07 43.15 510.36 42.67 503.72 42.82 501.97 42.22 513.47 42.14 514.32 42.49 514.8 43.31 515.83 44.64 516.28 44.64 516.67 44.13 516.75 43.6 516.48 43.1 515.83 42.67 515.83 42.22 516.76 41.89 517.58 41.35 518.03 40.61 517.81 39.66 518.96 39.13 519.42 38.77 519.79 38.23 519.83 37.81 519.67 36.69 519.79 35.76 520.69 34.77 522.53 33.81 524.66 33.08 526.47 32.8 527.25 32.41 527.66 31.56 527.73 30.72 527.43 30.33 526.64 30.11 527 29.6 528.47 28.58 530.44 27.75 534.87 27.06 535.62 25.8 537.53 26.52 544.8 26.83 546.7 27.36 546.77 27.42 548.17 28.67 550.97 31.77 550.9 32.16 550.89 32.31 550.93 32.45 550.97 32.8 549.98 32.8 549.98 33.29 550.83 33.6 551.74 33.76 552.64 33.69 553.49 33.29 553.01 33.24 551.96 32.8 554.53 32.01 563.64 30.97 566.32 31.32 565.16 31.3 564.01 31.46 562.91 31.79 561.88 32.31 562.8 32.56 564.1 33.61 564.61 33.51 566.08 32.07 566.94 31.49 567.8 31.32 569.84 32.12 571.34 33.41 572.94 34.5 575.3 34.73 575.3 34.28 572.98 33.59 571.83 33.08 571.05 32.55 570.49 31.61 570.47 30.89 570.18 30.33 568.84 29.79 572.13 28.82 577.06 28.16 580.04 27.39 581.71 27.37 575.31 28.9 573.32 29.79 579.66 28.77 581.17 28.8 582.93 29.45 585.74 31.2 587.64 31.32 587.64 30.78 585.09 29.7 583.8 28.89 583.24 28.09 583.52 26.98 584.27 26.05 585.36 25.33 586.65 24.86 586.69 24.52 586.58 24.43 586.82 24.08 587.46 23.52 587.94 22.82 588.13 22.14 587.95 21.03 587.47 20.43 586.76 19.93 585.61 18.84 585.26 18.6 584.85 18.44 584.41 18.39 584.03 18.12 583.89 17.51 583.83 16.86 583.69 16.46 581.69 15.81 581.19 15.23 581.71 13.95 581.48 13.92 580.73 13.95 580.98 13.71 581.45 13.16 581.71 12.92 581.2 12.71 580.85 12.4 580.19 11.48 581.71 11.48 581.71 10.99 580.46 10.28 579.07 7.98 577.03 7.01 577.68 6.01 579.17 5.13 580.73 5.02 581.15 5.45 581.2 6 581.39 6.45 582.21 6.54 582.4 6.22 582.7 5.52 583.24 4.84 584.18 4.53 586.21 4.18 587.39 4.2 587.41 4.77 587.04 5.57 587.29 6.25 587.91 6.75 588.67 6.99 588.53 6.6 588.47 6.28 588.39 5.96 588.13 5.56 589.27 5.38 591.4 4.65 592.08 4.53 593.15 4.9 593.94 5.46 594.81 5.92 596.07 6 595.06 6.45 594.59 6.54 595.84 6.99 597.18 6.89 598.59 6.61 599.03 6.54 599.03 6 599.83 5.49 600.57 4.8 601.42 4.35 601.55 4.53 602.06 5.36 602.9 5.48 603.67 5.06 604.26 3.7 604.89 3.37 606.49 3.04 608.49 3.04 612.61 3.76 613.44 3.58 616.8 2.99 622.89 5.45 626.32 6 625.35 6.67 624.22 6.96 623.28 7.41 622.82 8.52 623.56 8.5 623.81 8.52 623.81 8.97 622.33 9.51 622.72 9.71 623.44 10.28 623.81 10.5 622.96 11.15 623.95 11.25 626.55 10.99 629.45 11.26 630.72 10.99 630.58 11.32 630.39 12.12 630.27 12.47 637.18 12.47 638.49 12.67 639.66 13.17 640.33 13.82 640.19 14.49 640.19 14.94 641.62 16.91 638.61 19.2 636.9 20.13 634.71 20.86 635.7 21.89 636.57 21.5 637.45 21.72 638.45 22.15 640.83 22.57 641.09 23.09 640.77 23.87 640.19 24.86 641.31 25.25 646.6 25.35 649.15 24.87 650.01 24.97 650.37 25.3 651.09 25.8 651.41 25.79 651.84 25.66 652.53 25.35 652.69 26.14 653.15 26.77 653.87 27.21 655.91 27.59 658.08 28.58 660.41 29.33 661.83 30.33 663.26 30.95 664.96 30.33 664.38 30.21 664.15 30.07 663.93 29.79 665.2 29.41 666.14 28.62 666.73 27.48 666.94 26.07 666.65 24.61 666.33 23.59 666.8 22.89 668.91 22.39 677.81 22.39 682.89 21.66 683.29 21.1 683.36 20.43 683.76 19.87 688.88 18.52 689.69 17.65 690.19 16.55 691.4 15.67 694.22 14.49 696.15 13.93 702.34 13.46 704.05 13.66 706.83 14.62 708.53 14.94 722.31 13.99 718.9 15.53 706.07 17.9 700.36 19.68 693.71 20.36 691.44 21.12 689.69 22.39 691.46 22.66 692.33 23.03 692.69 23.6 693.06 23.74 694.63 25.03 694.94 25.35 695.44 25.75 695.11 26.6 694.22 27.81 693.62 28.36 686.71 31.08 685.49 31.32 681.02 31.43 679.12 32.13 677.79 33.74 680.01 34.45 681.11 34.65 685.4 34.77 686.32 35.33 686.72 36.7 685.97 36.92 684.64 37.48 683.76 37.73 685.26 38.2 693.42 38.32 698.13 39.22 701.41 39.1 707.36 36.88 711.05 36.7 712.66 37.05 714.09 37.72 715.11 38.81 715.49 40.45 715.96 41.3 716.97 41.59 717.99 41.69 718.45 41.95 718.62 42.78 715.12 43.16 712.87 45.86 683.43 47.43 681.63 49 678.71 50.35 674.44 51.7 667.96 52.11 667.01 53.79 666.31 54.32 665.43 54.71 661.57 55.64 660.55 56 659.36 56.59 658.82 57.06 658.6 57.46 658.56 57.78 658.36 58.14 657.76 58.31 642.74 60.02 641.93 60.24 641.57 60.68 641.39 61.19 641.24 62.32 641.28 62.82 641.4 63.16 641.96 63.73 642.18 64.13 642.29 64.65 642.33 66.55 642.49 67.26 642.71 67.83 643.01 68.4 643.15 68.97 643.07 69.57 641.36 71.93 641.09 72.57 640.93 73.11 640.88 73.98 640.71 74.3 639.9 74.36 617.45 72.46 616.45 72.54 615.83 72.85 615.44 73.36 615.27 73.81 614.97 75.09 614.76 75.63 614.08 76.77 612.95 78.16 611.96 79.09 611.06 79.62 610.32 79.9 609.02 80.14 607.56 81.29 606.65 81.77 606.28 82.06 605.99 82.47 605.7 83.28 605.69 83.7 605.73 83.97 605.9 84.17 606.42 84.59 606.78 84.78 612.32 86.39 613.69 87.15 615.71 88.64 616.08 89.15 616.47 90.01 616.39 90.47 616.05 91.08 615.11 92.25 614.5 92.81 613.71 93.22 609.94 94.38 609.21 94.73 607.03 96.6 605 97.89 604.6 98.28 604.14 98.88 603.65 99.92 603.6 100.44 603.7 100.79 603.83 100.9 603.86 101.08 603.68 101.57 603.58 102.16 603.59 102.78 603.75 103.7 603.82 104.97 603.77 105.27 602.77 107.74 602.6 108.02 602.29 108.73 602.25 109.06 602.34 109.35 602.63 109.56 603.92 109.99 603.88 110.38 603.32 110.98 601.51 112.21 600.48 112.73 599.59 113.03 594.74 113.68 593.95 113.93 590.84 115.35 587.02 117.66 586.24 117.99 585.72 118.11 584.43 118.24 581.51 118.27 580.25 118.41 576.06 119.3 574.2 119.35 573.81 119.59 573.5 120 573.06 121.09 572.93 121.59 572.91 122 573.02 122.25 573.35 122.81 573.34 123.14 573.18 123.49 572.67 123.91 571.59 124.59 569.71 126.39 569.49 126.66 569.4 127 569.55 127.56 571.29 129.55 571.64 130.11 571.8 130.71 572.24 131.32 572.52 131.88 572.68 132.54 572.65 133.12 572.5 133.77 572.08 134.76 570.55 137.6 568.79 140.22 555.07 152.27 Z M 475.26 2.82 473.86 3.22 472.61 2.39 472.44 1.2 473.2 1 475.01 1.98 475.56 2.15 475.26 2.82 Z" fill-rule="evenodd" id="ISL-702" data-name="Norðurland eystra"/>
<path d="M 175.66 183.22 182.07 186.29 189.68 186.1 199.09 185.87 209.77 186.39 192.29 195.08 191 196.05 189.57 197.36 189.56 197.37 187.57 197.69 184.62 197.76 183.6 197.73 179.88 198.26 160.32 196.29 158.79 196.76 157.46 197.66 156.13 198.26 154.57 197.77 155.6 197.27 153.9 197.27 151.18 198.06 148.87 198.38 147.48 199 146.67 199.25 145.9 199.32 138.9 198.97 137.29 199.25 136.95 199.45 136.57 199.77 136.11 200.06 135.54 200.19 134.66 199.97 133.56 199.02 132.76 198.8 133.22 198.06 133.78 197.59 134.22 197.1 134.33 196.29 134.02 195.49 133.42 195.14 132.64 194.85 131.82 194.27 132.94 193.53 134.39 190.9 135.05 190.32 138.24 190.31 138.73 190.07 138.42 189.32 137.69 189.32 136.02 189.82 134.63 189.66 133.1 189.14 131.86 188.23 131.37 186.87 132.48 185.48 132.76 184.89 132.84 184.06 132.72 182.55 132.76 181.88 132.67 181.3 133.11 180.69 133.88 180.18 134.78 179.91 135.83 180.08 138.02 181.17 140.54 181.94 142.5 183.24 144.26 184.99 145.24 186.87 144.21 186.87 145.4 187.64 147.16 187.88 154.21 188.04 155.95 187.85 157.08 187.35 156.28 186.82 156.7 186.24 157.69 185.73 158.56 185.38 159.62 185.15 163.05 184.89 165.69 183.98 166.5 183.86 167.4 184.02 169.28 184.72 170.24 184.89 172.15 184.58 175.66 183.22 Z" id="ISL-704" data-name="Suðurnes"/>
<path d="M 309.75 229.12 309.04 229.58 308.51 229.31 308.16 228.67 307.69 228.11 307.15 227.26 307.37 226.45 308.81 226.12 310.53 226.06 310.67 226.19 310.31 226.55 310.6 226.81 310.99 227.64 310.44 228.43 309.75 229.12 Z M 492.42 207.85 491.98 208.67 490.84 209.39 490.4 209.48 490.91 209.18 491.27 208.8 491.16 208.38 490.56 208.16 489.78 208.21 486.63 208.71 486.81 208.11 489.02 207.13 490.26 206.78 490.79 206.7 491.83 206.8 492.38 207.25 492.42 207.85 Z M 555.07 152.27 521.44 183.55 518.82 187.96 518.39 189.39 518.13 201.98 518.26 202.8 518.27 202.81 512.33 203.69 505.6 204.41 506.39 203.89 506.85 203.26 506.82 202.48 506.41 201.76 505.87 202.79 505.01 203.49 503.97 203.69 502.91 203.2 503.08 203.6 503.09 203.79 503.14 203.92 503.45 204.18 503.45 204.72 494.02 207.69 494.73 206.11 496.6 205.22 498.92 204.81 500.98 204.72 500.98 204.18 496.19 203.08 494.47 202.21 494.1 203.19 494.17 203.58 494.47 204.18 492.62 204.76 490.84 204.6 489.03 204.22 487.07 204.18 488.55 204.72 488.55 205.17 486.73 205.15 485.9 205.3 485.14 205.71 483.95 205.41 482.64 205.84 481.58 206.64 481.14 207.44 480.75 208.72 479.77 209.6 478.48 209.84 477.15 209.17 476.21 209.78 475.87 210.42 476.24 210.93 477.42 211.14 478.33 210.99 479.77 210.31 480.88 210.15 486.58 210.44 488.55 210.15 485.44 212.85 483.55 213.59 481.64 213.11 481.88 212.98 481.96 212.98 482 212.94 482.13 212.66 479.17 212.66 479.28 213.34 477.24 213.25 476.12 213.65 477.05 213.6 477.69 213.81 477.93 214.31 477.69 215.14 483.07 215 484.1 214.6 482.31 217.04 479.7 219.28 476.38 220.92 468.98 222.43 464.24 224.04 459.72 224.51 457.36 223.03 458.27 222.51 460.3 222.17 461.08 221.78 462.05 221 462.96 220.64 465.25 220.56 465.25 220.07 463.2 220.05 459.32 220.59 457.36 220.56 452.42 219.19 450.95 219.04 451.39 219.58 450.85 219.69 450.63 219.82 450.4 220.07 451.1 220.51 452.65 221.75 453.14 222 453.84 222.46 454.19 223.48 454.39 224.5 454.64 224.96 457.66 225.05 459.37 225.05 460.57 225.16 445.1 226.22 436.14 228.15 420.92 230.01 417.24 229.95 403.37 228.01 397.52 228.74 395.43 228.46 396.23 228.42 396.55 228.31 396.91 228.01 394.33 227.75 393.04 227.43 391.97 226.98 390.51 227.92 380.78 226.98 379.86 226.79 376.09 225.5 370.16 224.96 361.71 222.4 350.1 220.99 347.81 220.07 348.79 219.99 349.34 219.71 349.27 219.35 348.35 219.04 347.47 219.01 346.25 219.45 345.36 219.58 338.43 219.04 338.65 219.4 345.88 220.07 326.8 219.48 325.56 218.59 325.24 218.66 325.05 218.76 324.88 218.9 324.61 219.04 324.26 218.72 324.05 218.65 323.58 218.59 324.07 219.58 318.52 219.63 315.82 219.33 304.83 215.19 303.75 214.6 304.76 215.01 305.93 215.19 307.12 215.07 308.23 214.6 307.31 214.52 305.66 214.18 304.73 214.1 305.08 212.98 305.22 212.66 303.9 213.53 302.7 213.88 301.41 213.73 299.79 213.11 299.79 212.66 302.27 213.11 301.3 212.01 299.98 211.37 298.56 210.86 297.28 210.15 296.11 208.94 295.48 208.07 294.64 207.62 292.84 207.69 292.84 208.14 295.36 209.74 296.82 210.93 297.82 212.13 293.02 210.17 290.81 208.89 289.43 207.19 289.71 207.07 290.41 206.65 289.88 206.31 288.89 205.17 290.91 204.13 293.2 203.53 298.06 203.2 300.35 203.67 304.36 205.57 306.75 205.71 305.55 205.01 303.78 203.66 302.8 203.2 297.28 201.76 299.46 199.95 299.79 199.25 299.52 198.23 298.71 197.97 298.07 198.23 298.31 198.8 298.31 199.25 297.45 199.95 294.32 201.76 292.29 202.79 290.91 203.43 289.15 203.69 288.58 203.98 288.51 204.67 288.56 205.49 288.39 206.2 287.84 206.91 287.49 207.06 284.24 206.22 281.05 204.98 278.61 204.49 273.54 202.71 278.26 202.71 279.11 202.89 280.85 203.64 281.93 203.69 282.08 203.27 283.03 203.14 285.43 203.2 285.43 202.71 283.42 202.71 283.42 202.21 283.67 202.2 284.19 202.23 284.45 202.21 284.45 201.76 279.31 202.34 277.49 202.21 277.49 201.76 279.95 200.33 280.67 198.13 279.67 196.27 278.55 196.09 276.95 195.84 276.95 196.29 278.99 196.66 278.76 197.66 277.39 198.83 274.69 200.45 272.97 201.04 271.02 201.23 269.05 200.73 269.83 201.92 270.09 202.21 267.16 200.82 260.64 198.89 251.4 197.35 248.26 196.34 246.51 195.97 244.77 195.39 243.29 194.27 243.71 193.71 243.61 192.99 242.85 191.31 248.48 191.46 251.58 191.15 253.71 190.32 248.27 190.32 244.83 189.45 243.56 189.33 239.85 189.77 239.08 190.07 238.43 190.51 236.16 191.59 235.35 191.84 235.35 192.29 239.03 193.02 240.89 193.71 241.81 194.8 240.3 194.44 237.03 194.22 233.68 194.39 231.65 194.77 230.49 195.52 231.45 196.78 231.1 196.8 230.88 196.93 230.69 197.11 230.41 197.27 209.23 198.55 206.67 197.77 204.24 196.62 201.99 195.91 199.59 195.75 189.56 197.37 189.57 197.36 191 196.05 192.29 195.08 209.77 186.39 212.57 186.44 213.04 186.36 213.14 186.25 213.64 185.08 214.01 184.65 215.74 183.79 217.48 182.64 220.46 180.09 226.76 174.62 227.34 173.82 227.92 172.81 226.95 170.98 226.76 170.52 226.79 170.01 227.03 169.55 228.06 168.43 228.9 167.77 246.16 160.07 251.27 157.19 262 152.85 270.39 148.52 272.14 147.97 283.82 146.15 306.54 139.84 325.99 135.91 328.04 135.04 329.16 134.34 329.46 134.08 329.77 133.58 329.93 133.01 329.9 132.15 329.69 131.08 329.73 130.56 329.82 130.15 330.88 128.43 349.48 132 351.23 132.16 353.34 132.11 372.28 129.63 390.35 129.66 410.84 125.76 443.01 122.72 449.77 125.43 456.97 127.28 477.64 132.42 514.14 141.67 555.07 152.27 Z" fill-rule="evenodd" id="ISL-705" data-name="Suðurland"/>
<path d="M 246.16 160.07 228.9 167.77 228.06 168.43 227.03 169.55 226.79 170.01 226.76 170.52 226.95 170.98 227.92 172.81 227.34 173.82 226.76 174.62 220.46 180.09 217.48 182.64 215.74 183.79 214.01 184.65 213.64 185.08 213.14 186.25 213.04 186.36 212.57 186.44 209.77 186.39 199.09 185.87 189.68 186.1 196.42 182.98 209.57 180.5 213.12 172.95 212.41 167.8 203.71 166.46 193.63 166.6 196.7 165.66 198.87 164.58 200.46 163.34 201.7 161.86 202.39 161.44 203.63 161.1 205.2 160.94 208.41 161.15 209.76 161.15 208.32 160.88 207.7 160.61 207.12 160.61 210.05 159.54 211.63 159.21 213.34 159.08 223.29 160.24 224.99 160.07 226.21 159.2 226.21 159.2 230.72 158.55 237.4 158.42 240.35 157.61 241.22 157.55 244.44 157.79 245.15 157.96 246.12 158.3 246.4 158.5 246.57 158.83 246.36 159.09 246.16 160.07 Z" id="ISL-709" data-name="Höfuðborgarsvæði"/>
<path d="M 258.08 116.09 258.74 116.86 264.96 118.62 265.97 118.76 271.97 118.95 272.76 119.09 275.54 120.26 276.67 120.33 299.92 117.35 300.96 117.41 304.39 118.16 321.65 118.35 342.98 118.75 343.65 118.87 344.02 119.22 344.19 119.58 344.24 120.08 344.17 120.57 343.75 121.22 343.05 121.71 334.77 125.6 330.88 128.43 329.82 130.15 329.73 130.56 329.69 131.08 329.9 132.15 329.93 133.01 329.77 133.58 329.46 134.08 329.16 134.34 328.04 135.04 325.99 135.91 306.54 139.84 283.82 146.15 272.14 147.97 270.39 148.52 262 152.85 251.27 157.19 246.16 160.07 246.36 159.09 246.57 158.83 246.4 158.5 246.12 158.3 245.15 157.96 244.44 157.79 241.22 157.55 240.35 157.61 237.4 158.42 230.72 158.55 226.21 159.2 227 158.63 223.75 159.44 222.02 159.08 222.02 158.63 222.71 158.65 223.3 158.53 224.45 158.14 224.49 157.81 224.39 157.72 224.19 157.72 223.99 157.64 224.45 157.64 211.31 157.28 205.14 157.92 199.67 160.07 199.39 160.37 199.16 160.77 198.82 161.2 198.19 161.6 197.57 161.81 196.17 162.02 195.48 162.04 194.34 162.23 191.07 163.28 190.04 163.84 187.34 164.9 183.92 164.7 177.41 163.62 177.41 163.08 180.45 162.29 183.34 161.1 185.74 159.62 187.29 159.2 188.85 159.62 190.19 159 193.39 158.55 194.78 158.14 188.34 157.84 186.35 158.14 184.95 158.56 183.82 158.72 182.72 158.33 181.36 157.1 182.34 156.43 182.5 155.56 182.53 154.54 183.09 153.42 183.57 153.34 184.16 153.55 184.65 153.57 185.02 152.32 185.42 151.74 186.35 150.74 186.44 149.97 188.27 149.24 196.41 147.42 200.71 147.24 200.36 146.59 199.68 146.23 198.77 146.12 197.75 146.2 197.75 145.75 199.06 145.21 201.83 143.58 204.25 143.12 205.43 142.5 206.13 142.25 207.1 142.16 210.13 142.25 209.84 143.55 211.3 143.77 213.16 143.78 214.08 144.52 215.02 145.05 221.03 145.22 219.85 144.81 217.32 144.92 216.05 144.77 215.01 144.27 213.42 143.15 212.1 142.8 215.07 142.25 215.07 141.81 207.62 141.81 207.62 141.27 211.76 140.17 213.09 139.56 214.29 139.43 220 139.83 220 139.29 214.38 138.77 212.6 138.8 207.97 140.66 206.13 140.77 206.13 140.28 208.02 139.5 208.72 138.97 209.14 138.26 206.26 139.62 205.42 139.83 204.75 140.21 204.28 141.88 203.4 142.25 202.68 142.45 199.67 143.73 195.91 144.35 194.78 144.77 195.23 145.75 193.09 145.43 191.06 145.67 186.84 147.24 185.13 148.13 183.99 148.43 182.84 148.22 182.06 147.52 182.17 146.81 183.34 145.22 181.84 145.43 181.12 146.24 180.92 147.34 180.91 148.47 180.63 148.81 178.9 150.2 178.59 150.85 178.59 151.36 178.49 151.79 177.91 152.22 175.31 152.2 174.9 152.46 174.64 152.73 174.03 152.95 173.31 153.1 172.73 153.16 171.55 152.92 170.25 152.28 169.13 151.33 168.48 150.2 167.86 150.63 167.3 150.9 166.72 151.08 166.01 151.18 167.04 150.26 167.93 149.14 168.23 148.05 167.49 147.24 167.8 147.13 168.48 146.74 167.93 146.46 167.34 146.28 166.71 146.19 166.01 146.2 166.32 145.97 167.04 145.22 167.04 144.77 163.72 145.84 161.67 146.27 160.09 146.2 158.79 145.33 158.26 144.14 158.53 143 159.55 142.25 159.55 141.81 158.3 141.7 157.38 141.17 156.75 140.57 156.37 140.28 155.44 140.07 154.4 139.55 153.4 138.89 152.64 138.26 154.45 138.61 156.33 139.43 158.24 139.93 160.09 139.29 158.56 139.29 159 138.47 159.69 137.93 160.56 137.57 161.53 137.32 160.84 136.92 160.54 136.82 160.54 136.33 168.91 134.52 171 133.37 171 132.87 166.51 134.55 164.12 135.09 161.8 135.3 159.83 135.84 157.61 136.87 155.57 137.49 154.12 136.82 155.07 136.53 157.08 135.3 158.55 134.64 159.39 134.11 160.09 133.37 159.55 132.87 160.2 132.75 160.61 132.54 161.53 131.89 159.91 131.07 157.73 130.81 153.09 130.9 154.12 129.91 152.64 129.91 153.15 129.18 154.48 127.76 155.11 126.91 154.36 127 153.7 127.28 153.13 127.76 152.64 128.39 152.19 127.71 151.6 127.44 150.92 127.53 150.17 127.89 150.17 128.39 146.18 127.89 145.06 128.13 142.92 129.16 141.74 129.37 141.74 129.91 142.3 129.98 143.71 130.41 137.05 130.96 135.32 130.41 137.03 130.51 137.89 130.45 138.51 130.16 138.3 129.75 137.56 129.16 136.66 128.62 136.02 128.39 128.36 128.39 129.49 128.91 133.3 129.91 133.3 130.41 131.36 130.37 127.96 129.08 125.89 128.92 126.38 128.92 117.32 128.57 108.7 128.57 98.74 128.25 94.53 126.35 90.53 126.22 83.53 126.91 83.49 127.11 82.23 128.09 81.73 128.39 80.97 128.69 80.16 128.92 79.29 129.01 70.88 127.89 71.65 127.59 72.51 127.4 73.41 127.34 72.19 127.12 69.43 127.76 67.26 128.97 66.93 130.41 65.59 132.1 63.61 132.81 58.27 132.87 56.7 133.06 53.54 133.82 52.07 133.91 46.84 132.6 45.73 131.91 44.69 131.73 43.93 131.38 43.63 130.16 43.23 129.51 40.13 127.4 38.81 126.26 37.69 125.04 35.69 121.97 36.18 121.43 37.64 122.07 39 121.8 41.66 120.44 43.04 120.07 50.9 119.11 52.43 119.19 58.25 120.82 66.21 121.43 66.89 121.24 68.22 120.32 68.9 119.99 71.89 120.07 72.62 119.75 75.26 117.97 78.23 117.54 84.78 118.02 84.78 117.48 84.37 117.27 84.16 117.06 84.01 116.82 83.76 116.49 86.79 116.41 87.77 116.79 87.26 118.02 88.21 118.33 88.83 117.94 89.4 117.46 90.21 117.48 90.47 118.18 90.49 119.19 90.86 119.71 92.19 118.97 93.32 119.42 94.62 119.14 95.69 118.46 96.14 117.75 95.87 117.01 95.32 116.07 94.94 115.04 95.16 114.03 97.14 112.87 100.15 112.64 106.06 113.04 105.52 113.86 104.62 114.42 102.55 115.06 102.76 115.34 103.1 116.05 102.25 116.13 101.64 116.4 101.14 116.86 100.58 117.48 104.58 119.99 104.15 118.9 104.1 117.99 104.42 117.21 105.12 116.49 105.58 116.33 106.96 116.22 107.54 116.05 108.01 115.64 108.47 114.71 108.8 114.27 110.79 113.15 112.86 113.06 114.82 113.78 116.47 115.06 117.62 114.31 119.13 113.84 123.57 113.38 127.87 112.1 126.72 111.78 121.46 112.1 121.46 111.56 124.5 111.26 129.9 108.89 132.76 108.6 132.35 108.89 131.82 109.09 133.11 109.24 134.33 109.59 134.22 110.14 134.18 110.24 134.21 110.24 134.33 110.53 133.32 111.16 131.13 111.67 130.34 112.1 131.29 112.21 132.5 112.17 133.74 111.96 134.78 111.56 135.26 112.96 135.88 113.55 138.28 114.03 141.51 115.3 142.72 115.51 142.72 115.06 141.82 114.83 141.01 114.38 139.22 113.04 141.18 111.92 142.26 111.57 143.71 111.56 143.85 110.6 145.21 110.32 151.24 110.44 157.17 109.84 166.95 110.67 173.42 112.1 174.16 111.91 175.26 111.26 175.93 111.06 181.36 111.06 182.83 111.35 184.38 111.86 185.9 112.1 186.04 112.05 187.29 111.56 189.18 112.1 197.2 111.56 199.13 110.87 199.2 109.97 197.91 109.25 195.73 109.09 196.46 108.13 197.32 107.81 198.37 107.64 199.67 107.11 200.6 106.28 203.63 102.58 203.86 100.08 201.55 99.06 198.42 99.19 196.17 100.16 196.17 100.65 196.71 100.65 196.71 101.19 185.81 105.14 182.19 105.78 161.58 104.08 156.39 102.29 155.6 102.14 155.25 102.18 154.22 102.51 147.63 102.94 145.69 102.58 144.32 101.88 145.43 101.57 147.54 101.29 149.19 100.65 149.74 101.03 150.28 101.18 151.61 101.19 151.61 100.65 150.01 100.15 148.18 100.08 144.7 100.65 145.44 99.58 146.75 98.55 149.19 97.2 152.55 96.52 153.83 95.91 153.63 94.73 154.7 94.54 157.31 94.73 157.95 94.45 160.09 92.71 162.02 92.09 170.09 91.12 176.9 88.91 179.52 87.53 184.15 86.53 185.81 85.76 185.64 85.68 185.46 85.69 185.34 85.63 185.36 85.31 186.44 85.36 188.22 86.19 189.31 86.25 188.66 85.13 188.32 84.77 192.81 83.67 202.19 82.43 204.93 81.75 206.67 81.31 207.91 80.83 209.7 78.98 210.6 78.37 212.51 77.81 213.33 78.79 213.35 80.92 213.15 81.76 212.71 82.88 212.77 83.25 212.96 83.63 212.81 83.93 212.25 84.21 210.47 84.87 209.69 85.5 209.45 85.98 209.6 86.43 210.07 86.8 211.55 87.57 212.02 87.89 212.24 87.93 218.47 87.19 221.16 87.19 221.96 87.39 222.49 87.81 223.76 89.43 227.98 93.07 230.02 94.12 230.55 94.65 231.04 94.94 231.5 95.08 232.12 95.17 232.74 95.36 236.47 97.29 236.98 97.79 237.36 98.34 237.58 98.82 238.94 100.72 239.15 101.28 239.05 101.81 238.58 102.33 236.76 103.92 236.43 104.28 236.22 104.6 236.11 104.98 236.04 105.44 236.05 105.96 236.22 106.66 237.4 108.3 237.81 109 238.3 109.36 239.61 109.86 240.33 110.21 241.64 111.14 242.06 111.36 242.89 111.72 243.12 111.97 243.2 112.3 243.19 112.54 243.1 113.02 248.75 115.14 250.84 115.68 253.26 116.05 258.08 116.09 Z" id="ISL-710" data-name="Vesturland"/>
</g>
</svg>