<?xml version="1.0"?>
<svg xmlns="http://www.w3.org/2000/svg" version="1.2" baseProfile="tiny" width="800" height="455" viewBox="0 0 800 455" stroke-linecap="round" stroke-linejoin="round">
<g id="ne_10m_admin_1_states_provinces">
<path d="M 17.82 401.78 22.29 406.41 20.68 413.57 19.85 419.38 22.61 424.36 23.93 428.73 16.04 427.57 12.29 425.61 5.07 414.74 1 403.58 3.98 397.53 17.82 401.78 Z" id="WLF-4995" data-name="Sigave"/>
<path d="M 787.43 1 792.25 9.45 797.08 16 799 22.37 795.12 30.38 796.46 31.83 797.08 32.87 798.01 35.61 791.69 36.62 790.46 40.34 792.71 50.18 790.65 54.78 785.87 55.76 780.56 54.27 776.84 51.5 776.41 45.51 772.21 38.89 770.35 32.65 776.84 27.73 773.99 19.63 776.37 12.22 781.65 5.85 787.43 1 Z" id="WLF-4996" data-name="`Uvea"/>
<path d="M 71.6 438.66 75.22 439.26 76.78 439.1 80.08 440.65 81.97 442.22 79.07 444.46 71.6 447.68 66.11 451.43 63.57 454.08 60.2 454.2 50.1 449.85 46.72 447.11 47.39 443.96 50.03 441.44 63.05 435.51 67.1 436.46 71.6 438.66 Z M 54.84 428.51 54.84 431.16 34.19 429.84 30.79 431.16 25.9 429.02 23.93 428.73 22.61 424.36 19.85 419.38 20.68 413.57 22.29 406.41 31.06 415.49 32.24 417.92 37.13 419.37 54.84 428.51 Z" fill-rule="evenodd" id="WLF-4997" data-name="Alo"/>
</g>
</svg>