<?xml version="1.0"?>
<svg xmlns="http://www.w3.org/2000/svg" version="1.2" baseProfile="tiny" width="800" height="413" viewBox="0 0 800 413" stroke-linecap="round" stroke-linejoin="round">
<g id="ne_10m_admin_1_states_provinces">
<path d="M 269.19 234.23 269.05 234.88 268.84 238 269.02 238.36 269.36 238.72 270.13 239.29 270.58 239.78 270.94 240.55 271.01 241.04 271.05 242.51 271.01 242.84 270.87 243.14 270.62 243.39 270.31 243.58 269.93 243.73 269.5 243.85 269.02 243.93 265.59 243.98 265.1 244.1 264.16 244.54 263.46 244.97 262.3 245.87 260.89 247.39 260.27 248.27 260.12 248.54 260.01 248.87 259.98 249.22 260.19 249.56 260.63 249.87 261.65 250.17 262.4 250.28 263.05 250.3 264.51 250.15 264.97 250.22 265.23 250.46 265.35 251.25 265.53 251.57 266.81 252.08 267.18 252.37 267.33 252.81 267.5 253.85 267.74 254.16 268.12 254.44 268.98 254.7 269.67 254.83 275.44 255.03 275.96 255.1 276.44 255.27 279.25 257.28 279.6 257.64 280.77 259.31 280.94 259.92 280.86 260.34 280.48 260.49 280.08 260.58 279.33 260.62 275.93 260.38 274.87 260.47 273.99 260.71 273.6 260.86 273.27 261.03 272.76 261.51 272.29 262.03 271.71 262.87 271.06 264.09 270.89 264.33 270.52 264.66 270.24 264.8 269.11 265.15 268.85 265.39 268.84 265.82 269.04 266.4 269.77 267.36 273.34 271.02 273.7 271.56 273.78 271.87 273.82 272.2 273.9 272.51 274.05 272.9 274.68 273.92 274.59 274.26 274.36 274.51 272.25 275.51 271.97 275.73 271.76 275.98 271.77 276.36 272.07 276.82 274.5 278.98 274.83 279.15 275.2 279.24 275.79 279.11 276.5 278.67 276.76 278.44 277.34 278.01 277.99 277.63 278.37 277.49 278.78 277.4 281.58 277.41 281.83 277.34 282.08 277.19 282.24 276.93 282.36 276.61 282.61 275.5 282.72 275.15 282.88 274.83 283.16 274.61 283.56 274.49 286.02 274.18 286.73 274.29 287.62 274.54 289.19 275.22 291.34 275.82 291.71 276.09 291.96 276.63 292.09 277.8 292.18 278.1 292.5 278.38 292.97 278.63 293.98 278.88 294.65 278.93 295.26 278.92 297.92 278.33 298.36 278.28 298.9 278.47 299.44 278.87 301.49 281.27 303.36 283.06 303.76 283.34 304.54 283.62 312.98 285.25 315.86 286.27 316.81 286.48 317.25 286.5 317.63 286.4 317.97 286.23 318.26 286.03 319.31 285.09 319.6 284.9 319.96 284.82 320.35 284.88 323.02 285.99 323.33 286.23 323.55 286.5 323.56 286.98 323.4 287.29 322.94 287.84 322.92 288.2 323.06 288.62 325.77 291.31 326.44 291.68 327.08 291.92 329.94 292.26 334.36 292.26 334.87 292.35 335.33 292.56 336.15 293.3 337.07 294.3 337.21 294.67 337.3 295.13 337.26 295.92 337.13 296.4 336.97 296.8 336.75 297.06 336.41 297.24 335.97 297.34 326.05 297.63 325.6 297.72 325.29 297.92 325.05 298.19 324.46 299.46 324.44 299.8 324.59 300.15 326.26 301.1 326.53 301.33 326.69 301.61 326.56 302.02 326.29 302.27 324.68 303.25 325.12 303.86 326.26 304.81 329.89 307.12 333.19 308.72 333.65 309.08 334.15 309.83 334.32 310.32 334.36 310.76 334.26 311.08 334.09 311.38 333.89 311.67 333.66 311.93 332.22 312.97 332 313.19 331.98 313.44 333.22 314.05 343.94 318.07 344.41 318.73 344.41 319.23 344.6 319.84 345.16 320.72 345.66 321.07 346.21 321.22 350.61 321.3 351.09 321.41 351.52 321.55 351.87 321.73 352.16 321.93 352.47 322.32 353.41 323.87 353.9 324.33 354.39 324.65 356.69 325.25 364.96 328.42 365.6 328.79 366.1 329.24 366.3 329.48 366.43 329.71 366.46 330.01 366.39 330.33 366.08 331.01 365.78 331.39 365.23 331.94 365.01 332.21 364.85 332.51 364.77 332.88 364.82 333.29 365.01 334 365.07 334.71 364.92 336.92 365.08 337.97 365.26 342.13 365.35 342.69 365.53 342.95 365.79 343.16 367.4 344.11 368.51 344.93 370.57 345.99 370.86 346.2 371.1 346.42 371.31 346.65 371.38 347 371.3 347.45 370.82 348.25 370.47 348.69 370.13 349.02 365.17 353 365.01 353.36 364.96 353.8 365.16 354.5 365.69 355.54 365.73 355.97 365.7 356.51 365.25 358.05 364.6 359.46 364.2 360.01 363.97 360.26 363.43 360.7 363.28 360.93 363.29 361.19 363.6 361.51 364.24 361.99 366.79 363.51 367.32 363.93 367.73 364.41 367.89 364.93 367.97 365.67 367.84 368.17 367.63 369.06 366.92 370.3 366.49 370.9 366.06 371.28 365.66 371.41 364.64 371.48 363.82 372.79 364.04 379.19 364.07 379.66 364.07 379.68 364.06 379.68 361.13 379.64 359.59 380.15 357.27 381.74 355.43 382.31 353.71 382.39 348.75 381.87 345.43 382.53 343.61 382.66 342.49 382 342.96 380.59 344.2 378.79 344.45 377.34 341.98 376.96 339.95 377.13 338.27 377.01 337.06 376.29 336.39 374.65 336.43 372.41 336.65 370.63 336.12 369.33 333.89 368.52 330.45 368.05 323.07 367.87 314.66 369.71 309.14 369.14 293.35 364.79 274.96 364.44 273.79 364.05 272.76 363.16 272.57 362.35 272.82 361.59 272.8 360.99 271.8 360.68 252.39 360.17 249.88 359.49 244.49 356.5 241.97 356.15 236.17 356.26 218.36 354.17 211.3 355.05 199.94 354.93 183.62 354.76 169.53 352.4 165.75 352.47 161.96 353.23 154.45 355.68 130.98 358.03 129.25 357.98 124.13 357.21 103.33 358.22 101.56 358.63 99.75 359.8 96.71 362.61 95.42 364.23 93.44 369.68 91.08 371.74 81.61 375.78 69.13 382.78 65.79 383.12 63.41 381.73 61.07 379.95 57.77 379.12 55.68 379 49.78 377.9 47.82 377.87 39.7 379.19 38.67 379.54 37.82 380.1 36.81 381.2 36.72 381.87 37.21 382.53 39.48 386.55 39.67 387.36 39.29 388.64 38.57 388.87 37.8 388.51 37.47 387.39 36.33 386.97 35 386.65 33.97 385.35 34.54 385.38 35.11 385.35 33.28 383.38 32.55 382.22 32.26 381.02 32.7 378.76 32.59 377.95 31.64 377.31 31.64 376.69 32.39 376.62 32.9 376.43 33.97 375.6 33.55 375.24 33.04 374.66 32.78 374.13 33.1 373.89 33.87 373.66 33.68 373.14 33.12 372.56 32.82 372.13 33.29 370.2 33.63 369.3 33.97 368.7 35.38 367.69 37.14 367.02 38.74 366.03 39.67 364.09 38.14 362.8 36.83 361.29 37.76 360.6 38.1 358.79 39.1 358.44 39.06 358.06 39 357.96 38.85 357.95 38.53 357.87 39.07 356.93 39.13 354.22 39.67 352.68 41.25 350.37 42.35 349.3 43.66 348.7 42.7 347.27 41.52 344.11 40.83 343.07 40.74 342.11 40.41 341.15 39.39 340.71 38.6 340.49 38.1 339.96 37.68 339.28 37.13 338.64 35.56 338.05 31.59 338.13 29.97 337.81 27.65 334.95 27.99 334.66 28.22 333.66 27.9 333.03 26.5 333.87 25.95 333.47 25.12 333.05 24.79 332.67 23.64 333.53 22.85 333.44 22.1 332.96 21.05 332.67 19.85 332.96 19.61 332.82 20.23 332.05 20.23 331.53 18.47 331.42 13.28 330.22 12.19 329.54 10.9 329.85 4.89 328.85 3.01 328.11 3.68 326.63 3.41 325.53 2.49 324.71 1.87 324.39 1.26 324.07 1 324.03 4.88 319.18 6.41 317.71 9.76 315.2 19.93 305.63 27.3 301.89 34.69 299.27 48.65 296.84 59.75 292.24 63.07 289.75 64.22 286.18 64.04 283.67 65.56 283.48 76.66 284.04 77.54 283.83 78.33 283.56 80.84 282.24 82.75 281.53 83.53 281.44 84.09 281.5 84.42 281.69 84.66 281.91 85.03 282.43 85.48 282.91 86.17 283.16 87.21 283.4 90.73 283.77 91.62 283.75 95.09 282.98 95.77 282.94 96.2 283 96.38 283.14 96.49 283.36 96.54 283.67 96.71 283.98 97.09 284.25 97.53 284.3 97.94 284.21 98.33 284.07 98.67 283.89 99.2 283.7 101.25 283.3 102.05 283.27 102.67 283.35 103.11 283.48 106.85 285.1 107.54 285.55 107.96 285.74 109.82 286.3 111.95 286.52 114.01 286.45 115.87 286.13 116.45 285.92 116.85 285.74 117.04 285.55 117.16 285.36 117.25 285.11 117.3 284.79 117.23 284.12 117.03 283.51 116.67 282.98 115.98 282.27 115.85 282.03 115.88 281.77 116.51 281.02 117.17 279.84 117.41 279.58 117.69 279.37 119.48 278.55 119.7 278.31 119.78 278 119.73 277.7 119.57 277.42 119.36 277.18 118.47 276.58 118.24 276.37 118.18 276.13 118.38 275.92 120.12 274.69 120.36 274.45 120.93 274.12 121.78 273.73 123.7 273.1 124.56 272.73 125.12 272.38 125.26 272.08 125.29 271.75 125.2 271.46 124.89 271.26 124.42 271.15 122.18 270.95 121.72 270.83 121.39 270.66 121.27 270.41 121.37 270.15 121.63 269.93 121.96 269.74 126.03 268.33 127.17 268.09 127.98 268.04 133.15 269.64 137.63 270.29 140.37 270.26 141.23 270.13 141.81 269.95 142.07 269.72 142.29 269.45 142.86 268.49 143.22 268.12 143.95 267.63 144.6 267.47 145.25 267.41 147.38 267.73 148.28 267.98 149.01 268.32 149.59 268.74 149.82 268.96 150.25 269.46 150.59 270 150.86 270.57 150.95 270.87 150.98 271.18 150.96 271.49 150.87 271.8 150.61 272.4 150.57 272.67 150.76 272.87 151.04 273.01 154.55 273.9 155.55 273.99 156.09 273.89 156.48 273.69 156.72 273.43 157.37 272.57 157.69 272.28 158.25 271.95 158.77 271.9 159.25 271.95 159.58 272.1 159.74 272.3 159.67 272.56 158.48 275.04 158.38 275.37 158.33 275.68 158.38 275.95 158.86 276.38 158.92 276.67 158.88 276.99 158.74 277.32 158.66 277.64 158.62 277.95 158.91 278.24 159.47 278.45 160.55 278.64 161.16 278.59 161.62 278.44 161.96 278.24 162.4 278.05 165.75 277.24 166.7 277.17 167.66 277.22 168.89 277.42 169.65 277.46 170.25 277.41 170.64 277.27 170.93 277.06 172.29 276.41 174.15 275.97 175.16 275.88 175.85 275.94 176.02 276.21 176.16 276.84 176.39 277.08 176.67 277.29 177.43 277.61 178.73 277.96 180.02 278.15 180.71 278.11 181.22 277.98 181.58 277.81 181.89 277.63 182.15 277.41 182.24 277.11 182.25 276.79 182.14 276.49 181.88 276.27 180.49 275.91 180.16 275.72 179.96 275.47 179.81 275.19 179.72 274.9 179.75 274.61 179.93 274.36 180.24 274.17 180.93 273.84 181.14 273.64 181.11 273.38 180.93 273.15 179.61 272.4 179.36 272.18 179.17 271.93 179.05 271.64 179.02 271.3 179.24 270.89 179.7 270.47 180.85 269.99 181.51 269.91 182.23 270.01 182.91 270.19 184.62 270.29 185.92 270.07 188.06 269.52 188.74 269.07 189.07 268.69 189.07 268.36 189.17 268.05 189.37 267.79 189.62 267.54 190.52 266.93 191.05 266.47 192 265.47 192.87 264.7 193.4 264.35 193.73 264.18 198.05 262.63 198.62 262.19 198.85 261.93 200.92 258.32 203.57 255.25 204.27 254.05 204.36 253.72 204.4 253.37 204.36 253.05 204.27 252.75 204.12 252.47 203.7 251.97 203.45 251.73 202.6 251.12 202.24 250.95 201.81 250.81 200.11 250.6 199.74 250.43 199.58 250.17 199.62 249.85 199.83 249.56 200.15 249.3 201.93 248.32 203.32 247.72 204 247.35 204.42 247 204.52 246.68 204.52 246.36 204.42 246.06 204.2 245.82 203.86 245.63 202.26 245.01 201.96 244.82 201.76 244.59 201.73 244.28 202.24 242.9 202.48 242.51 202.97 242.04 203.53 241.88 206.03 241.71 206.6 241.55 207.01 241.34 207.2 241.07 207.3 240.74 207.74 238.24 207.91 237.68 208 237.49 208.33 236.96 210.74 234.48 211.14 233.92 211.31 233.63 211.61 233.26 212.07 232.83 213.09 232.15 213.76 231.86 214.37 231.71 215.43 231.8 215.92 231.91 216.58 231.98 217.45 231.97 220.07 231.61 220.86 231.59 221.37 231.68 221.79 231.81 222.89 232.32 223.48 232.39 224.27 232.37 225.62 232.17 226.46 232.14 227.12 232.2 227.5 232.37 227.8 232.57 228.06 232.79 228.38 232.98 228.78 233.13 229.24 233.25 241.01 233.83 242.77 233.55 244.63 233.47 249.08 234.12 256.22 234.37 258.28 234.75 260.04 235.29 260.55 235.39 262.74 235.28 269.19 234.23 Z" id="BLR-2338" data-name="Brest"/>
<path d="M 685.57 254.65 685.85 255.51 686.03 256.41 685.75 257.26 684.95 257.82 682.89 258.05 682.04 258.3 677.87 262.3 676.01 263.47 682.32 266.59 683.7 268.18 685.96 272.31 687.78 274.03 690.3 275.51 693.04 276.6 695.52 277.13 697.57 277.3 698.2 277.95 698.4 279.01 699.14 280.41 700.34 281.39 701.36 281.82 702.22 282.46 702.94 284.1 703 287.62 701.14 289.26 695.52 291.19 695.52 291.2 696.44 292.48 700.16 295.54 702.64 298.91 703.74 299.94 706.76 301.55 707.88 302.42 707.52 303.26 706.39 303.43 703.35 302.99 702.09 303.05 702.45 303.34 703.48 304.37 701.99 304.77 701.36 305.45 701.56 306.25 702.61 307.05 704.48 307.89 704.6 309.94 704.1 312.43 704.06 314.56 704.68 315.47 705.53 316.18 706.16 317.09 706.21 318.6 705.72 319.73 704.84 320.75 703.79 321.6 702.76 322.19 705.25 324.46 706.63 325.4 708.12 326.09 709.56 326.4 712.46 326.72 713.8 327.2 712.92 327.89 712.33 328.95 712.13 330.17 712.37 331.34 712.97 332.2 713.74 332.71 717.94 334.51 719.07 335.69 719.41 337.34 719.22 339.8 709.66 340.11 695.04 338.36 687.37 338.39 680.8 340.06 679.12 341.42 677.83 343.09 676.46 344.49 674.5 345.01 672.49 344.53 668.67 342.51 666.64 341.8 663.42 341.55 651.98 341.96 649.9 342.38 648.59 343.26 649.09 344.67 648.67 345.09 648.43 345.5 648.24 345.9 647.96 346.32 650.41 346.52 651.21 347.64 650.47 348.72 648.29 348.82 647.72 348.34 647.25 348.2 646.76 348.34 646.08 348.67 645.42 349.19 645.27 349.7 645.32 350.13 645.3 350.4 644.44 351.12 643.52 351.74 642.48 352.27 641.29 352.72 638.92 353.29 638.88 353.59 639.11 354.1 639.55 354.45 639.55 355.02 638.42 355.99 637.68 356.5 636.96 356.73 634.47 356.59 633.8 356.73 633.48 357.26 633.43 358.04 633.2 358.75 631.48 359.31 630.95 359.86 630.55 360.42 630.09 360.67 629.86 360.96 628.04 362.43 627.5 363.04 627.14 363.29 627.17 363.6 627.78 364.4 627.86 365.7 626.37 366.65 624.51 367.41 623.48 368.14 625.15 368.66 625.82 368.7 625.82 369.33 624.89 369.95 624.64 370.92 624.52 371.96 624.05 372.75 623.12 373.02 620.53 373.07 619.48 373.27 619.96 374.4 618.98 376.16 619.48 377.31 618.91 377.66 618.23 378.29 617.78 378.51 618.02 378.83 618.34 379.64 617.27 379.93 614.87 381.31 614.87 381.93 616.5 382.8 617.21 383.07 617.21 383.59 616.56 383.7 616.21 383.84 615.93 384.01 615.5 384.21 615.5 384.73 616.46 385.52 619.24 386.02 620.63 386.44 619.99 387.37 619.58 387.76 618.86 388.15 619.88 388.62 620.74 389.18 621.11 389.8 620.63 390.48 621.04 391.48 621.74 392.11 622.6 392.49 623.48 392.71 623.48 393.34 622.37 393.2 621.43 393.4 620.8 393.99 620.63 395.04 620.95 396.03 621.59 396.23 622.47 396.27 623.48 396.75 623.85 397.31 624.67 399.66 625.09 400.11 625.68 400.6 625.77 401.04 624.67 401.32 625.16 403.68 622.84 405.21 620.29 406.36 620.06 407.59 618.57 409.23 618.34 409.4 618.23 411.39 618.18 411.47 617.84 411.95 616.92 412.09 616.29 411.3 615.35 410.65 614.29 410.21 613.16 410.02 612 410.11 610.69 409.85 608.83 408.09 607.61 407.36 606.39 407.17 603.9 407.18 602.62 406.87 601.51 406.23 598.96 404.17 598.33 403.28 598.57 403.2 599.27 401.45 599.41 400.79 599.42 399.93 599.33 399.27 599.09 398.71 598.59 398.14 597.52 397.52 593.3 396.23 592.13 395.44 589 392.76 586.66 391.68 584.26 391.27 572.57 391.46 570.66 391.81 565.59 393.48 564.55 393.52 563.21 392.96 562.35 392.91 561.29 393.37 559.88 394.99 559.04 395.57 557.54 395.82 549.96 395.02 548.9 394.1 548.17 392.83 546.79 391.33 545.35 390.7 543.52 390.54 541.59 390.73 539.94 391.16 538.22 392.14 537.03 393.24 535.78 394.17 533.85 394.67 531.67 394.83 530.54 395.19 529.71 396.18 528.49 398.21 527.27 399.57 525.61 399.58 521.96 398.64 520.04 399.02 517.83 400.23 516.77 400.82 515.05 401.19 513.13 400.51 512.09 399.01 511.39 397.18 510.44 395.57 508.74 394.32 507.35 393.67 506.78 392.72 507.57 390.56 507.24 388.37 506.27 387 503.48 384.37 501.72 381.34 500.68 380.31 498.67 379.52 495.31 379.01 493.6 379.06 491.96 379.43 490.3 380.44 488.32 383.08 486.72 384.16 484.53 384.68 479.38 384.71 476.93 385.04 474.28 385.93 471.61 387.24 469.27 389.02 467.63 391.33 467.39 392.73 467.57 395.92 467.17 397.15 465.67 398.21 464.79 397.35 464.19 395.79 463.59 394.76 462.52 394.69 461.42 395.14 460.22 395.48 458.84 395.06 458.03 394.17 457.49 393 456.18 388.33 455.97 386.63 455.24 385.49 453.08 384.94 445.59 383.95 443.32 383.98 441.16 384.44 437 386.2 434.84 387.51 433.77 387.86 432.68 387.59 432.21 386.93 431.31 384.62 430.76 383.75 429.73 383.03 427.32 382.09 426.33 381.47 425.62 380.52 425.54 379.77 425.59 379.06 425.27 378.22 424.04 377.34 422.34 377.27 420.47 377.84 418.68 378.85 417.05 380.41 414.34 383.65 412.33 384.78 410.71 385.15 402.55 385.14 401.02 384.89 399.45 384.37 394.4 380.94 392.62 380.33 390.7 380.53 389.14 381.44 388.05 382.85 387.52 384.53 387.57 385.6 387.78 386.5 387.85 387.41 387.47 388.52 387.03 389.05 383.13 392.35 382.25 392.88 380.93 393 379.74 392.68 378.38 392.01 377.26 391.23 376.91 390.78 376.74 390.56 379.51 386.36 380.17 384.26 379.12 382.51 377.8 382.05 373.11 381.96 364.07 379.68 364.07 379.66 364.04 379.19 363.82 372.79 364.64 371.48 365.66 371.41 366.06 371.28 366.49 370.9 366.92 370.3 367.63 369.06 367.84 368.17 367.97 365.67 367.89 364.93 367.73 364.41 367.32 363.93 366.79 363.51 364.24 361.99 363.6 361.51 363.29 361.19 363.28 360.93 363.43 360.7 363.97 360.26 364.2 360.01 364.6 359.46 365.25 358.05 365.7 356.51 365.73 355.97 365.69 355.54 365.16 354.5 364.96 353.8 365.01 353.36 365.17 353 370.13 349.02 370.47 348.69 370.82 348.25 371.3 347.45 371.38 347 371.31 346.65 371.1 346.42 370.86 346.2 370.57 345.99 368.51 344.93 367.4 344.11 365.79 343.16 365.53 342.95 365.35 342.69 365.26 342.13 365.08 337.97 364.92 336.92 365.07 334.71 365.01 334 364.82 333.29 364.77 332.88 364.85 332.51 365.01 332.21 365.23 331.94 365.78 331.39 366.08 331.01 366.39 330.33 366.46 330.01 366.43 329.71 366.3 329.48 366.1 329.24 365.6 328.79 364.96 328.42 356.69 325.25 354.39 324.65 353.9 324.33 353.41 323.87 352.47 322.32 352.16 321.93 351.87 321.73 351.52 321.55 351.09 321.41 350.61 321.3 346.21 321.22 345.66 321.07 345.16 320.72 344.6 319.84 344.41 319.23 344.41 318.73 343.94 318.07 349.24 313.44 350.17 312.03 349.67 311.24 349.4 310.69 349.2 310.09 349.14 309.72 349.11 309.3 349.22 308.71 349.53 308.41 349.99 308.28 352.31 308.2 352.93 308.07 353.23 307.82 353.69 306.71 354.31 305.57 354.88 305.14 355.47 304.92 357.66 304.99 358.04 305.14 358.26 305.37 358.4 305.65 358.57 306.19 358.71 306.31 358.9 306.3 364.63 303.31 365.36 303.15 365.84 303.21 367.07 304.68 367.24 304.94 367.66 305.46 367.89 305.66 368.19 305.79 368.36 305.61 368.89 304.73 369.55 303.99 370.13 303.71 370.73 303.62 371.2 303.73 371.47 303.94 371.57 304.24 371.58 304.58 371.36 306.54 371.36 307.44 371.39 307.77 371.48 308.07 371.66 308.33 371.89 308.55 372.15 308.75 374.93 310.1 379.18 311.5 379.67 311.59 380.23 311.64 386.83 311.53 389.55 311.9 398.83 311.37 399.89 311.08 400.19 310.83 400.62 310.63 401.67 310.29 402.02 310.1 402.24 309.84 402.3 309.54 402.29 309.23 402.07 307.95 401.95 307.67 401.81 307.4 401.02 306.49 400.97 306.34 401.11 306.03 401.49 305.66 402.45 305.17 403.12 304.95 403.77 304.86 410.92 305.82 411.82 306.07 412.13 306.22 412.4 306.4 412.45 306.46 412.92 307.27 413.67 308.28 414.37 308.99 415.02 309.15 416.02 309.24 433.26 308.06 438.58 305.2 438.84 304.98 439 304.7 439.02 304.4 438.98 303.76 438.48 301.27 438.31 299.64 438.47 296.84 438.62 295.74 438.72 295.38 439.19 294.98 439.97 294.54 441.79 293.89 442.56 293.52 442.85 293.19 442.61 292.99 442.49 292.7 442.38 292.5 443.66 291.49 443.99 291.39 449.22 291.08 453.32 291.47 453.94 291.45 454.53 291.31 455.17 290.96 455.57 290.68 456.09 290.45 456.7 290.33 457.87 290.37 460.21 290.76 460.75 290.75 461.31 290.63 461.94 290.27 462.6 290.02 463.41 289.83 467.39 289.79 468.04 289.65 468.79 289.21 469.58 288.61 470.06 288.44 470.74 288.37 472.81 288.41 473.54 288.3 474.16 287.94 474.52 287.61 474.77 287.27 474.88 286.96 474.88 286.64 474.74 286.38 474.44 286.17 474.03 286.01 471.93 285.63 471.53 285.47 471.26 285.31 471.08 285.14 470.98 285.03 470.97 284.87 471.06 284.65 471.32 284.48 471.71 284.3 473.21 283.79 485.01 281.51 485.45 280.98 485.63 280.67 485.72 280.33 485.84 279.28 485.71 275.91 485.76 275.58 486.15 275.31 486.92 275.18 495.25 275.06 495.79 274.89 496.26 274.41 496.44 274.02 496.57 273.64 496.88 273.34 497.42 273.11 499.05 272.66 499.47 272.42 500.56 271.49 502.54 269.48 503.15 269.07 503.52 268.9 504.25 268.77 505.33 268.71 508.82 268.88 517.01 270.38 517.29 270.53 517.37 270.67 517.33 270.95 517.12 271.6 517.11 271.9 517.35 272.07 517.85 272.12 521.06 271.29 521.49 270.99 521.67 270.66 521.62 270.35 521.39 270.13 520.74 269.76 520.57 269.55 520.66 269.31 520.92 269.1 521.43 268.97 522.11 268.93 523.32 269.1 523.95 269.29 524.38 269.51 525.43 270.73 525.69 270.95 526.12 271.08 526.7 271.09 529.89 269.96 530.55 269.62 531.15 268.96 531.51 268.76 531.98 268.62 533.74 268.35 542.68 268.43 543.46 268.53 544.03 268.68 544.34 268.88 545.08 269.23 545.51 269.37 546.02 269.48 546.68 269.48 547.37 269.39 548.29 269.05 548.79 268.75 549.15 268.46 550.13 267.17 550.21 267 550.25 266.74 550.09 266.5 549.78 266.31 546.33 265.17 545.64 264.84 545.34 264.66 544.74 264.19 544.11 263.8 541.67 262.88 541.37 262.72 541.39 262.46 541.58 262.24 543.27 260.86 543.49 260.59 543.65 260.29 543.71 259.97 543.68 259.66 543.62 259.34 543.5 259.06 543.29 258.82 542.97 258.67 542.06 258.53 541.72 258.38 541.52 258.14 541 257.01 540.9 256.73 540.84 256.47 540.96 256.24 541.1 256.12 543.65 255.41 544.07 255.09 544.13 254.81 543.87 254.59 542.92 254.06 542.88 253.87 543.68 253.78 550.86 254.21 551.32 253.95 551.6 253.69 551.77 253.43 551.68 253.2 551.37 253.01 549.99 252.6 549.67 252.41 549.46 252.19 549.65 251.89 550.15 251.59 551.23 251.16 551.68 250.78 551.95 250.38 552.25 249.02 552.12 248.76 551.89 248.53 550.56 247.77 550.28 247.57 550.12 247.35 550.49 247.19 551.26 247.17 552.96 247.38 553.87 247.39 554.49 247.15 554.58 246.87 554.53 246.55 554.27 245.99 552.82 243.96 552.51 243.42 552.05 242.28 551.45 241.2 551.32 240.92 551.13 240.33 551.06 239.69 551.08 239.35 551.28 238.26 551.41 237.92 551.6 237.63 551.87 237.4 553.18 236.64 554.2 235.65 554.51 235.45 554.86 235.29 555.28 235.16 555.89 235.14 556.66 235.23 557.96 235.69 558.58 236.01 559.3 236.52 559.67 236.66 560.13 236.69 560.67 236.52 561.45 236.15 561.93 236.1 562.5 236.21 563.21 236.64 563.41 236.99 563.38 237.31 563.68 237.54 564.39 237.7 566.38 237.66 567.27 237.49 567.92 237.28 568.2 237.05 569.15 236.45 569.51 236.29 570.36 236.06 570.9 236.07 571.51 236.22 572.27 236.66 573.01 237.27 573.68 237.53 576.99 238.25 577.95 238.56 578.49 238.88 578.56 239.53 578.62 239.83 578.85 240.06 579.48 240.21 582.21 240.32 583.22 240.46 584.06 240.82 584.38 241.13 584.75 241.7 585.97 244.19 586.33 244.69 586.88 244.91 587.74 245.07 591.74 245.05 592.61 245.02 593.3 244.23 594.58 243.97 597.69 243.93 601.96 242.84 603.5 242.79 603.19 242.1 603.03 241.42 602.93 240.35 603.5 240.2 604.64 240.09 605 239.93 605.28 239.71 605.5 239.43 605.68 239.11 605.92 238.87 606.23 238.71 606.79 238.69 608.98 238.81 609.79 238.78 610.4 238.67 611.18 238.37 612.03 238.17 612.59 238.12 621.64 239.58 622.99 240.19 623.56 240.87 624.21 241.12 625.27 241.34 627.62 241.61 629.6 241.63 630.03 241.52 630.39 241.36 630.66 241.12 631.03 240.5 631.28 240.22 631.61 240.02 632 239.86 632.61 239.9 633.41 240.11 634.72 240.64 635.63 240.85 636.66 240.83 637.82 240.64 643.94 241.29 644.75 241.25 644.95 241 645.05 240.39 645.17 240.08 645.35 239.77 645.58 239.5 645.85 239.27 646.19 239.08 646.59 238.96 647.06 238.89 647.59 238.87 654.6 239.32 654.94 239.39 655.17 239.53 655.37 239.87 655.47 240.15 655.69 241.17 655.82 241.45 656.13 241.76 657.28 242.69 657.48 243.12 657.57 243.49 657.54 243.79 657.57 244.09 657.62 244.39 657.71 244.67 657.88 244.9 658.27 245.13 658.88 245.3 660.07 245.47 660.76 245.67 661.2 246.03 661.35 246.36 661.79 246.74 662.43 247.14 663.87 247.8 664.23 248.2 664.31 248.54 664.11 248.84 663.97 249.15 663.93 249.48 663.96 249.79 664.05 250.09 664.18 250.36 664.33 250.62 664.48 250.89 664.52 251.17 664.41 251.46 664.21 251.73 663.93 251.96 662.96 252.52 662.73 252.75 662.65 252.99 662.76 253.23 663 253.45 663.3 253.65 663.83 253.79 664.5 253.85 668.08 253.29 668.64 253.3 669.23 253.4 669.96 253.69 670.35 253.96 671.09 254.7 671.62 255.14 672.55 255.74 672.89 255.86 673.25 255.86 673.6 255.55 674.08 254.93 674.34 254.69 674.68 254.48 675.05 254.33 675.54 254.29 676.08 254.35 676.77 254.64 677.13 254.92 677.66 255.42 678.01 255.59 680.12 255.52 685.56 254.65 685.57 254.65 Z" id="BLR-2339" data-name="Gomel"/>
<path d="M 670.33 143.28 670.34 143.3 672.83 143.73 674.2 145.4 676.15 149.68 677.24 150.71 678.27 151.36 679.16 152.13 679.77 153.48 680.36 158.38 681.25 160.74 682.49 162 695.52 168.07 697.67 169.13 699.72 169.67 704.08 170.33 711.08 172.64 713.66 172.97 716 173.01 716.91 173.28 717.86 173.94 718.5 174.89 719.07 176.11 719.8 177.1 720.82 177.32 722.9 176.47 723.35 176.38 724.09 176.69 724.19 176.96 724.16 177.35 726.08 181.79 725.66 182.44 725.51 183.05 725.48 183.67 725.36 184.31 724.41 186.15 723.04 190.96 721.57 193.06 718.34 196.22 717.57 198.28 721.13 198.32 728.31 199.77 745.88 197.05 747.76 197.27 752.67 199.39 763.16 201.12 766.11 202.41 768.75 204.56 769.96 205.01 774.11 204.89 775.83 205.04 777.45 205.64 779.04 206.87 779.65 207.49 779.84 208.12 779.65 208.74 779.04 209.35 772.82 211.27 772.23 211.6 772.14 212.27 772.4 213.74 773.27 216.03 774.77 217.77 776.73 219.04 779.04 219.94 783.24 221.12 785.2 222.01 786.5 223.53 786.5 223.55 787.08 224.08 787.7 224.23 788.39 224.04 789.06 223.55 790.53 223.39 792 223.53 793.22 223.95 792.99 224.64 792.5 225.5 792.92 226.42 793.88 226.62 796.41 226.07 797.47 226.08 799 227.97 798.85 228.67 797.74 234.07 798.83 236.7 797.2 237.46 795.85 237.38 794.59 237 793.18 236.81 787.34 237.58 787.64 237.85 788.34 238.63 788.68 238.93 786.44 239.72 783.78 240.03 781.13 239.85 779.04 239.19 776.89 239.58 776.25 240.56 776.99 241.47 778.92 241.71 778.09 243.34 776.96 244.91 774.28 247.6 772.77 248.58 771.4 249 768.37 249.6 765.65 251.08 763.55 252.91 761.28 254.25 756.92 254.19 756.48 254.5 756.36 254.96 756.16 255.29 756.15 255.5 756.19 255.89 756.1 256.29 755.7 256.53 755.39 256.51 754.65 256.39 751.62 256.63 749.47 257.64 748.7 257.9 745.81 257.83 739.73 256.33 737.28 256.49 735.12 257.16 733.12 257.3 731.15 257 726.83 255.47 725.76 255.31 722.76 255.49 721.88 255.29 720.56 254 719.67 250.54 718.54 249.09 717.06 248.59 713.38 248.56 711.75 248.37 706.66 247.16 704.96 247.08 703.29 247.38 700.14 248.4 698.14 248.47 694.13 247.97 690.15 247.97 686.99 249.47 685.44 253.5 685.54 254.54 685.57 254.65 685.56 254.65 680.12 255.52 678.01 255.59 677.66 255.42 677.13 254.92 676.77 254.64 676.08 254.35 675.54 254.29 675.05 254.33 674.68 254.48 674.34 254.69 674.08 254.93 673.6 255.55 673.25 255.86 672.89 255.86 672.55 255.74 671.62 255.14 671.09 254.7 670.35 253.96 669.96 253.69 669.23 253.4 668.64 253.3 668.08 253.29 664.5 253.85 663.83 253.79 663.3 253.65 663 253.45 662.76 253.23 662.65 252.99 662.73 252.75 662.96 252.52 663.93 251.96 664.21 251.73 664.41 251.46 664.52 251.17 664.48 250.89 664.33 250.62 664.18 250.36 664.05 250.09 663.96 249.79 663.93 249.48 663.97 249.15 664.11 248.84 664.31 248.54 664.23 248.2 663.87 247.8 662.43 247.14 661.79 246.74 661.35 246.36 661.2 246.03 660.76 245.67 660.07 245.47 658.88 245.3 658.27 245.13 657.88 244.9 657.71 244.67 657.62 244.39 657.57 244.09 657.54 243.79 657.57 243.49 657.48 243.12 657.28 242.69 656.13 241.76 655.82 241.45 655.69 241.17 655.47 240.15 655.37 239.87 655.17 239.53 654.94 239.39 654.6 239.32 647.59 238.87 647.06 238.89 646.59 238.96 646.19 239.08 645.85 239.27 645.58 239.5 645.35 239.77 645.17 240.08 645.05 240.39 644.95 241 644.75 241.25 643.94 241.29 637.82 240.64 636.66 240.83 635.63 240.85 634.72 240.64 633.41 240.11 632.61 239.9 632 239.86 631.61 240.02 631.28 240.22 631.03 240.5 630.66 241.12 630.39 241.36 630.03 241.52 629.6 241.63 627.62 241.61 625.27 241.34 624.21 241.12 623.56 240.87 622.99 240.19 621.64 239.58 612.59 238.12 612.03 238.17 611.18 238.37 610.4 238.67 609.79 238.78 608.98 238.81 606.79 238.69 606.23 238.71 605.92 238.87 605.68 239.11 605.5 239.43 605.28 239.71 605 239.93 604.64 240.09 603.5 240.2 602.93 240.35 603.03 241.42 603.19 242.1 603.5 242.79 601.96 242.84 597.69 243.93 594.58 243.97 593.3 244.23 592.61 245.02 591.74 245.05 587.74 245.07 586.88 244.91 586.33 244.69 585.97 244.19 584.75 241.7 584.38 241.13 584.06 240.82 583.22 240.46 582.21 240.32 579.48 240.21 578.85 240.06 578.62 239.83 578.56 239.53 578.49 238.88 577.95 238.56 576.99 238.25 573.68 237.53 573.01 237.27 572.27 236.66 571.51 236.22 570.9 236.07 570.36 236.06 569.51 236.29 569.15 236.45 568.2 237.05 567.92 237.28 567.27 237.49 566.38 237.66 564.39 237.7 563.68 237.54 563.38 237.31 563.41 236.99 563.21 236.64 562.5 236.21 561.93 236.1 561.45 236.15 560.67 236.52 560.13 236.69 559.67 236.66 559.3 236.52 558.58 236.01 557.96 235.69 556.66 235.23 555.89 235.14 555.28 235.16 554.86 235.29 554.51 235.45 554.2 235.65 553.18 236.64 551.87 237.4 551.6 237.63 551.41 237.92 551.28 238.26 551.08 239.35 551.06 239.69 551.13 240.33 551.32 240.92 551.45 241.2 552.05 242.28 552.51 243.42 552.82 243.96 554.27 245.99 554.53 246.55 554.58 246.87 554.49 247.15 553.87 247.39 552.96 247.38 551.26 247.17 550.49 247.19 550.12 247.35 550.28 247.57 550.56 247.77 551.89 248.53 552.12 248.76 552.25 249.02 551.95 250.38 551.68 250.78 551.23 251.16 550.15 251.59 549.65 251.89 549.46 252.19 549.67 252.41 549.99 252.6 551.37 253.01 551.68 253.2 551.77 253.43 551.6 253.69 551.32 253.95 550.86 254.21 543.68 253.78 542.88 253.87 542.92 254.06 543.87 254.59 544.13 254.81 544.07 255.09 543.65 255.41 541.1 256.12 540.96 256.24 540.84 256.47 540.9 256.73 541 257.01 541.52 258.14 541.72 258.38 542.06 258.53 542.97 258.67 543.29 258.82 543.5 259.06 543.62 259.34 543.68 259.66 543.71 259.97 543.65 260.29 543.49 260.59 543.27 260.86 541.58 262.24 541.39 262.46 541.37 262.72 541.67 262.88 544.11 263.8 544.74 264.19 545.34 264.66 545.64 264.84 546.33 265.17 549.78 266.31 550.09 266.5 550.25 266.74 550.21 267 550.13 267.17 549.15 268.46 548.79 268.75 548.29 269.05 547.37 269.39 546.68 269.48 546.02 269.48 545.51 269.37 545.08 269.23 544.34 268.88 544.03 268.68 543.46 268.53 542.68 268.43 533.74 268.35 531.98 268.62 531.51 268.76 531.15 268.96 530.55 269.62 529.89 269.96 526.7 271.09 526.12 271.08 525.69 270.95 525.43 270.73 524.38 269.51 523.95 269.29 523.32 269.1 522.11 268.93 521.43 268.97 520.92 269.1 520.66 269.31 520.57 269.55 520.74 269.76 521.39 270.13 521.62 270.35 521.67 270.66 521.49 270.99 521.06 271.29 517.85 272.12 517.35 272.07 517.11 271.9 517.12 271.6 517.33 270.95 517.37 270.67 517.29 270.53 517.01 270.38 508.82 268.88 505.33 268.71 504.25 268.77 503.52 268.9 503.15 269.07 502.54 269.48 500.56 271.49 499.47 272.42 499.05 272.66 497.42 273.11 496.88 273.34 496.57 273.64 496.44 274.02 496.26 274.41 495.79 274.89 495.25 275.06 486.92 275.18 486.15 275.31 485.76 275.58 485.71 275.91 485.84 279.28 485.72 280.33 485.63 280.67 485.45 280.98 485.01 281.51 473.21 283.79 471.71 284.3 471.32 284.48 471.06 284.65 470.97 284.87 470.98 285.03 471.08 285.14 471.26 285.31 471.53 285.47 471.93 285.63 474.03 286.01 474.44 286.17 474.74 286.38 474.88 286.64 474.88 286.96 474.77 287.27 474.52 287.61 474.16 287.94 473.54 288.3 472.81 288.41 470.74 288.37 470.06 288.44 469.58 288.61 468.79 289.21 468.04 289.65 467.39 289.79 463.41 289.83 462.6 290.02 461.94 290.27 461.31 290.63 460.75 290.75 460.21 290.76 457.87 290.37 456.7 290.33 456.09 290.45 455.57 290.68 455.17 290.96 454.53 291.31 453.94 291.45 453.32 291.47 449.22 291.08 443.99 291.39 439.16 288.63 430.97 285.46 429.72 284.74 429.19 284.25 438.98 278.21 440.77 276.51 441 276.25 441.39 275.67 441.53 275.34 441.96 273.9 442.1 273.57 442.54 273.03 444.97 271.39 445.29 271.12 445.6 270.78 445.93 270.23 445.95 269.84 445.81 269.53 445.51 269.32 443.09 268.32 442.72 268.05 442.67 267.79 442.82 267.53 443.61 266.82 444.31 266.04 445.77 263.63 446.01 263.4 446.32 263.27 446.64 263.24 449.34 263.45 449.75 263.37 449.74 263.19 449.6 262.97 449.14 262.5 448.95 262.25 448.74 261.94 448.59 261.55 448.42 260.99 448.42 260.59 448.5 260.3 449.35 258.22 449.45 257.68 449.39 257.28 447.69 254.57 447.5 254.18 447.34 253.58 447.59 253.22 448.51 252.51 448.51 252.24 448.25 252.02 447.82 251.89 447.32 251.84 445.81 251.93 444.97 252.14 443.93 252.66 443.11 252.9 439.99 253.13 439.37 252.7 438.74 251.89 437.87 249.61 437.23 248.71 436.58 248.2 433.65 247.97 433.18 248.01 432.84 248.19 432.58 248.43 432.38 248.72 431.88 249.66 431.67 249.9 431.4 250.06 431.05 250.02 428.51 249.16 427.52 248.93 424.53 248.68 423.92 248.57 423.31 248.32 421.72 246.63 421.12 246.29 420.59 246.06 418.81 245.59 415.33 245.08 414.62 244.81 414.29 244.34 413.75 243 413.53 242.64 412.23 241.14 412.24 240.77 412.46 240.52 414.93 239.76 415.86 239.6 417.43 239.51 417.98 239.56 419.28 239.97 420.03 240.3 420.68 240.69 422.84 242.41 423.16 242.5 423.56 242.45 423.98 242.1 424.51 242 425.06 241.94 434.76 242.33 435.28 242.29 435.66 242.15 435.94 241.91 436.13 241.63 436.31 241.32 436.53 241.05 436.86 240.86 437.28 240.75 441.42 240.42 441.91 240.28 442.34 240.06 442.72 239.58 442.75 239.24 442.6 238.94 441.91 238.22 441.42 237.46 440.95 237.1 440.45 236.86 435.97 235.78 435.51 235.59 435.11 235.29 435.02 234.96 435.08 234.65 435.24 234.35 435.43 234.11 437.67 232.69 437.92 232.44 438.12 232.15 438.28 231.82 438.43 231.31 438.58 228.75 438.35 226.88 438.4 225.58 439.23 224.58 440.24 223.59 441.08 222.9 442.36 222.13 442.74 221.98 443.17 221.87 444.19 221.78 445.33 221.81 447.04 222.05 447.47 222.06 447.9 221.97 448.48 221.54 448.79 221.35 449.18 221.21 451.95 220.64 452.39 220.49 452.85 220.25 452.93 219.98 452.73 219.77 452.24 219.65 451.02 219.46 450.49 219.29 450.52 219.13 450.81 219.01 454.19 218.51 454.61 218.39 455.01 218.18 455.36 217.87 455.74 217.34 455.84 216.94 455.79 216.61 455.4 216.01 455.2 215.6 454.98 214.92 455.04 214.5 455.22 214.15 455.49 213.89 455.84 213.64 456.36 213.4 456.91 213.32 457.48 213.34 458.37 213.61 459.95 214.24 461.85 214.75 469.39 215.61 469.91 215.56 470.33 215.45 471.42 214.95 471.88 214.87 472.41 214.86 472.95 214.92 473.41 215.06 473.77 215.23 474.34 215.65 474.78 216.11 475.05 216.27 475.43 216.26 476.52 215.53 476.88 215.41 477.31 215.4 477.64 215.52 477.83 215.77 477.86 216.08 477.76 216.44 477.49 216.81 477.04 217.27 476.87 217.6 476.92 217.89 477.97 218.77 479.47 220.79 479.73 221.01 480.07 221.18 480.56 221.25 483.54 221.36 484.07 221.3 484.56 221.16 484.62 220.94 484.58 220.69 483.94 219.25 483.92 218.91 483.94 218.52 484.08 218.02 484.11 217.63 484.07 217.24 483.94 216.93 483.86 216.51 484.18 216.35 484.63 216.26 492.15 215.88 492.69 215.74 493.25 215.5 493.99 215.01 494.29 214.6 494.42 214.22 494.35 213.9 494.24 213.61 493.46 212.55 493.31 212.19 493.27 211.64 493.44 211.29 493.71 211.02 496.97 209.05 497.72 208.75 498.13 208.64 498.59 208.6 499.05 208.67 499.98 208.89 501.58 209.09 501.98 209.23 502.3 209.44 502.55 209.67 502.89 209.85 503.31 210.01 504.37 210.17 504.92 210.18 505.87 210.05 512.33 207.93 513.73 207.24 514.53 206.61 515.53 205.64 516.18 205.12 516.51 204.94 516.91 204.8 517.37 204.72 517.85 204.69 518.33 204.76 518.69 204.91 518.99 205.13 519.51 205.6 519.81 205.8 520.22 205.95 520.74 205.98 521.31 205.76 521.63 205.41 521.85 204.85 522.16 204.55 522.55 204.34 523.62 204.05 524.28 203.72 524.52 203.44 524.45 203.2 524.06 203.04 522.94 202.87 522.45 202.74 522.03 202.56 521.79 202.3 521.71 201.92 521.9 201.67 522.24 201.48 524.89 200.81 526.07 200.4 527.13 199.73 528.09 198.99 528.45 198.53 528.57 198.17 528.23 198.02 526.7 197.85 526.34 197.69 525.72 197.28 525.34 197.12 524.9 197.04 524.42 197.05 523.04 197.24 522.54 197.18 522.21 197.02 521.63 196.59 521.27 196.42 520.79 196.32 519.13 196.25 518.65 196.17 518.41 196.02 518.56 195.86 518.89 195.72 520.73 195.14 521.41 194.81 521.72 194.48 521.87 194.13 521.83 193.82 521.68 193.58 521.33 193.5 520.95 193.56 519.34 194.09 518.9 194.15 518.49 194.09 518.17 193.8 518.24 193.56 518.49 193.34 519.25 192.9 520.35 192.12 520.49 191.81 520.3 191.58 518.42 191.01 518.05 190.76 517.92 190.27 518.17 189.89 518.74 189.37 518.82 189.06 518.68 188.81 518.49 188.61 518.38 188.43 518.36 188.26 518.5 187.01 518.49 185 518.34 184.38 518.1 183.82 517.48 183.08 516.95 182.63 516.72 182.33 516.55 181.99 516.59 181.41 516.64 181.16 516.79 180.89 517.61 179.9 517.92 179.65 518.27 179.46 519.5 179.07 520.17 178.7 521 178.01 522.58 177.09 523.26 176.56 523.51 176.18 523.6 175.82 523.57 175.51 523.48 175.21 523.35 174.93 523.16 174.67 522.92 174.44 522.23 174.03 521.96 173.78 521.83 173.38 521.97 173.08 522.26 172.87 522.72 172.73 523.27 172.64 523.83 172.43 524.05 172.15 524.15 171.81 524.21 168.74 524.05 167.32 524.2 167.06 524.52 166.87 526.27 166.23 526.86 165.89 526.97 165.61 526.79 165.39 526.44 165.21 526.19 164.98 526.08 164.7 526.05 163.69 525.87 163.44 525.46 163.28 523.79 163 523.36 162.8 523.14 162.59 522.94 161.83 526.25 160.45 527.31 159.76 527.55 159.49 528.37 158.15 528.75 157.9 529.2 157.75 530.72 157.62 533.03 157.21 533.39 156.91 533.95 155.96 534.68 155.14 535.28 154.81 535.88 154.65 537.02 154.64 538.17 154.78 543.05 156.03 544.22 156.12 546.66 155.81 547.89 155.89 555.35 155.19 557.32 154.82 557.68 154.65 557.94 154.45 558.03 154.25 557.79 154.08 556.63 153.58 556.4 153.36 556.47 153.03 556.94 152.65 557.46 152.51 558 152.49 561.2 153.1 561.64 153.25 561.9 153.47 562.01 153.73 561.85 154.32 561.89 154.58 562.11 154.8 563.2 155.32 563.47 155.54 563.55 155.78 563.33 156.29 563.38 156.55 563.98 156.73 564.96 156.85 568.21 156.94 568.87 157.1 569 157.36 568.87 157.97 569.33 158.25 570.34 158.43 572.78 158.51 573.92 158.44 574.67 158.27 574.93 158.03 575.12 157.74 575.25 157.43 575.24 157.11 575.16 156.82 575.01 156.55 574.81 156.3 574.59 156.06 574.26 155.54 574.14 155.26 573.86 154.04 574.01 153.71 574.4 153.39 577.22 152.37 577.84 151.95 578.31 151.43 578.47 151.15 578.56 150.9 578.7 150.63 578.99 150.3 579.54 149.88 580.09 149.73 580.7 149.72 581.18 149.84 581.51 150 581.6 150.23 581.42 150.43 580.77 150.75 580.67 150.98 580.85 151.18 583.87 152.24 584.92 152.89 585.61 153.08 586.13 153.06 586.57 152.95 586.85 152.72 587.01 152.41 587.19 151.65 587.41 151.24 587.79 151.14 589.78 151.4 591.35 151.44 592.19 151.37 592.84 151.25 596.87 149.6 597.46 149.54 597.73 149.67 597.61 149.92 596.74 151.04 596.55 151.34 596.11 151.91 595.6 152.42 593.49 153.93 593.23 154.15 593.1 154.4 593.21 154.66 593.4 154.89 593.7 155.06 594.05 155.17 598.8 155.81 600.24 155.76 601.96 155.3 604.25 154.38 604.57 154.18 604.83 153.95 605.01 153.69 605.09 153.07 605.19 152.75 605.65 152.39 606.15 152.29 606.64 152.35 607.02 152.52 607.35 152.72 607.79 153.19 609.13 154.88 609.28 155.01 610.42 155.75 611.86 156.48 613.09 156.86 614.34 157.04 615.09 157.04 615.69 156.97 618.26 156.24 618.65 156.08 619.35 155.72 619.98 155.32 620.24 155.06 620.45 154.77 620.93 153.77 621.12 153.47 621.37 153.21 621.67 152.99 622.78 152.49 623.05 152.27 623.23 152.03 623.2 151.77 622.99 151.53 621.27 150.57 620.98 150.36 620.83 150.1 620.88 149.79 621.06 149.51 621.58 149.24 622.39 149.01 626.05 148.32 626.46 148.11 626.74 147.85 626.9 147.23 627.23 146.89 627.8 146.62 629.3 146.14 630.19 145.97 630.99 145.91 631.52 146 634.77 146.97 638.97 147.43 644.58 147.51 646.33 147.38 646.77 147.27 647.12 147.11 647.33 146.89 647.38 146.64 647.29 146.38 647.16 146.1 647.19 145.78 647.44 145.44 648.34 145.01 649.22 144.84 649.95 144.81 650.44 144.92 652.63 145.72 655.55 146.26 657.22 146.83 658.02 147.21 658.56 147.37 659.37 147.48 659.79 147.36 660.04 147.13 660.03 146.84 659.98 146.55 659.85 146.28 659.53 145.75 659.44 145.49 659.51 145.23 659.95 145 660.65 144.81 662.79 144.43 663.39 144.28 665.24 143.36 665.9 143.23 666.67 143.21 668.51 143.42 669.83 143.39 670.33 143.28 Z" id="BLR-2340" data-name="Mogilev"/>
<path d="M 417.23 2.2 418.92 3.64 424.71 7.2 427.29 9.24 429 10.2 430.76 10.53 432.65 9.9 435.41 7.49 437.35 6.7 449.72 5.94 454.47 6.38 455.87 6.71 456.64 7.17 458.01 8.61 460.92 10.96 461.64 11.81 462.43 13.77 462.89 15.76 463.8 17.45 465.93 18.54 472.37 19.56 474.2 19.3 474.38 17.36 476.6 16.06 481.82 14.75 481.83 14.75 481.83 14.75 481.84 14.75 486.72 12.97 490.89 12.08 495.73 12.16 500.47 13.09 504.44 14.75 507.03 15.92 519.85 17.94 521.36 18.46 522.82 19.28 524.37 20.43 525.16 21.2 525.44 21.87 525.12 22.4 524.55 22.49 523.87 22.45 523.19 22.62 522.38 22.96 521.7 23.13 521.06 23.42 520.41 24.12 520.12 24.85 519.7 26.89 519.39 27.76 517.4 30.56 517.02 31.89 517.62 33.64 518.68 34.86 522.82 36.84 526.83 40.22 528.49 40.73 530.76 40.37 537.21 35.98 545.47 33.26 547.69 32.99 553.46 33.83 555.62 33.19 558.88 29.75 560.95 28.25 564.15 27.19 567.48 26.78 570.86 26.89 580.72 28.97 582.9 28.56 586.65 26.51 588.57 25.96 590.04 26.2 592.86 27.66 594.47 28.24 611.01 31.34 611.72 31.83 611.76 32.55 611.26 33.23 611.05 33.92 612 34.65 619.42 36.69 620.3 37.09 620.92 37.63 621.26 38.68 620.99 39.44 620.61 40.11 620.61 40.9 621.66 42.05 623.35 42.71 625.23 42.96 628.64 42.8 629.79 43.15 630.59 43.97 631.41 45.28 633.84 47.98 636.22 48.21 639.01 47.31 642.65 46.59 645.87 47.47 647.62 49.36 648.09 49.88 648.67 52.98 646.97 55.93 648.22 56.42 648.64 56.5 648.13 57.55 645.95 58.53 645.46 59.92 646.11 61.42 647.46 62.47 648.58 63.58 648.55 65.23 647.52 66.22 642.48 68.29 639.61 70.64 638.43 72.21 638.19 73.78 639.01 74.82 640.45 75.54 643.41 76.45 644.5 77.45 645.9 80.54 647.08 81.58 650.97 83.31 652.02 84.04 652.13 84.38 651.77 85.14 651.93 85.56 652.22 85.69 653.07 85.86 653.29 85.97 653.66 86.41 654.04 86.69 654.16 87.11 653.76 87.99 653.09 88.55 652.89 89.15 653.13 89.78 653.76 90.42 654.89 92.03 655.91 94.08 655.84 95.7 653.76 96.07 649.82 95.48 648.13 95.57 647.57 96.57 648.44 97.96 649.65 98.86 650.03 99.86 648.47 101.47 646.98 102.1 641.89 102.7 639.91 103.64 640.12 104.5 640.96 105.76 640.85 107.86 639.56 109.19 637.66 110.34 636.01 111.83 635.55 114.16 636.21 115.5 637.5 116.05 640.95 116.75 653.76 122.21 655 123.53 655.29 125.08 657.12 124.88 664.16 125.33 666.12 127.66 669.4 129.23 667.02 132.46 662.85 136.39 660.77 140.03 663.19 141.11 669.4 142.14 670.33 143.28 669.83 143.39 668.51 143.42 666.67 143.21 665.9 143.23 665.24 143.36 663.39 144.28 662.79 144.43 660.65 144.81 659.95 145 659.51 145.23 659.44 145.49 659.53 145.75 659.85 146.28 659.98 146.55 660.03 146.84 660.04 147.13 659.79 147.36 659.37 147.48 658.56 147.37 658.02 147.21 657.22 146.83 655.55 146.26 652.63 145.72 650.44 144.92 649.95 144.81 649.22 144.84 648.34 145.01 647.44 145.44 647.19 145.78 647.16 146.1 647.29 146.38 647.38 146.64 647.33 146.89 647.12 147.11 646.77 147.27 646.33 147.38 644.58 147.51 638.97 147.43 634.77 146.97 631.52 146 630.99 145.91 630.19 145.97 629.3 146.14 627.8 146.62 627.23 146.89 626.9 147.23 626.74 147.85 626.46 148.11 626.05 148.32 622.39 149.01 621.58 149.24 621.06 149.51 620.88 149.79 620.83 150.1 620.98 150.36 621.27 150.57 622.99 151.53 623.2 151.77 623.23 152.03 623.05 152.27 622.78 152.49 621.67 152.99 621.37 153.21 621.12 153.47 620.93 153.77 620.45 154.77 620.24 155.06 619.98 155.32 619.35 155.72 618.65 156.08 618.26 156.24 615.69 156.97 615.09 157.04 614.34 157.04 613.09 156.86 611.86 156.48 610.42 155.75 609.28 155.01 609.13 154.88 607.79 153.19 607.35 152.72 607.02 152.52 606.64 152.35 606.15 152.29 605.65 152.39 605.19 152.75 605.09 153.07 605.01 153.69 604.83 153.95 604.57 154.18 604.25 154.38 601.96 155.3 600.24 155.76 598.8 155.81 594.05 155.17 593.7 155.06 593.4 154.89 593.21 154.66 593.1 154.4 593.23 154.15 593.49 153.93 595.6 152.42 596.11 151.91 596.55 151.34 596.74 151.04 597.61 149.92 597.73 149.67 597.46 149.54 596.87 149.6 592.84 151.25 592.19 151.37 591.35 151.44 589.78 151.4 587.79 151.14 587.41 151.24 587.19 151.65 587.01 152.41 586.85 152.72 586.57 152.95 586.13 153.06 585.61 153.08 584.92 152.89 583.87 152.24 580.85 151.18 580.67 150.98 580.77 150.75 581.42 150.43 581.6 150.23 581.51 150 581.18 149.84 580.7 149.72 580.09 149.73 579.54 149.88 578.99 150.3 578.7 150.63 578.56 150.9 578.47 151.15 578.31 151.43 577.84 151.95 577.22 152.37 574.4 153.39 574.01 153.71 573.86 154.04 574.14 155.26 574.26 155.54 574.59 156.06 574.81 156.3 575.01 156.55 575.16 156.82 575.24 157.11 575.25 157.43 575.12 157.74 574.93 158.03 574.67 158.27 573.92 158.44 572.78 158.51 570.34 158.43 569.33 158.25 568.87 157.97 569 157.36 568.87 157.1 568.21 156.94 564.96 156.85 563.98 156.73 563.38 156.55 563.33 156.29 563.55 155.78 563.47 155.54 563.2 155.32 562.11 154.8 561.89 154.58 561.85 154.32 562.01 153.73 561.9 153.47 561.64 153.25 561.2 153.1 558 152.49 557.46 152.51 556.94 152.65 556.47 153.03 556.4 153.36 556.63 153.58 557.79 154.08 558.03 154.25 557.94 154.45 557.68 154.65 557.32 154.82 555.35 155.19 547.89 155.89 546.66 155.81 544.22 156.12 543.05 156.03 538.17 154.78 537.02 154.64 535.88 154.65 535.28 154.81 534.68 155.14 533.95 155.96 533.39 156.91 533.03 157.21 530.72 157.62 529.2 157.75 528.75 157.9 528.37 158.15 527.55 159.49 527.31 159.76 526.25 160.45 522.94 161.83 520.32 162.35 519.82 162.32 519.17 162.19 518.78 161.92 518.29 161.48 518.07 161.12 518 160.75 518.23 158.97 518.3 158.65 518.47 158.35 518.72 158.1 518.99 157.88 521.48 156.65 521.85 156.41 522.18 156.08 522.53 155.56 522.54 155.2 522.42 154.91 520.73 153.32 520.17 153 519.75 152.83 518.95 152.37 518.95 152.17 519.03 152.05 519.63 151.74 519.95 151.46 520.22 151.09 520.48 150.49 520.75 150.15 521.14 149.94 521.61 149.86 522.15 149 522.71 147.47 523.81 140.47 524.01 140.18 524.46 139.67 524.78 139.41 525.4 139 525.73 138.73 526.05 138.39 526.41 137.87 526.44 137.49 526.29 137.2 525.09 136.29 524.81 135.97 524.82 135.69 525 135.44 526.25 134.61 529.06 133.1 529.4 132.78 529.41 132.31 528.85 130.54 528.35 130.05 527.83 129.72 526.75 129.56 526.27 129.58 526 129.75 525.94 130.03 525.99 131 525.94 131.34 525.82 131.68 525.6 131.95 525.31 132.17 524.95 132.34 524.5 132.44 523.98 132.48 521.66 132.2 519.64 131.72 518.51 131.61 517.98 131.64 517.08 131.85 516.28 132.13 514.12 133.14 513.72 133.24 513.25 133.19 511.5 132.67 510.54 132.54 507.74 132.51 507.31 132.43 507.18 132.17 507.16 131.86 507.25 131.14 507.22 130.56 507.1 129.82 506.61 128.42 506.07 127.89 505.48 127.62 504.95 127.66 504.47 127.74 502.77 128.22 500.86 128.55 500.31 128.56 499.77 128.48 499.29 128.27 499.17 127.98 499.23 127.73 499.5 127.49 500.17 127.12 500.37 126.89 500.09 126.83 499.68 126.84 497.85 127.23 496.2 127.76 495.87 127.95 495.58 128.17 494.37 129.48 494.06 129.69 493.69 129.86 493.33 129.97 491.8 130.21 489.51 130.22 478.68 129.05 478.21 129.09 477.85 129.24 477.63 129.49 477.28 130.43 477 131.01 477.05 131.29 477.23 131.52 478.64 132.59 478.81 132.81 478.73 133.09 478.56 133.35 477.84 134.14 477.55 134.37 477.18 134.53 476.23 134.7 475.05 134.79 474.27 134.71 474 134.46 473.92 134.14 473.94 133.76 473.83 133.4 473.64 133 473.16 132.82 472.58 132.72 468.93 132.44 468.39 132.47 467.95 132.59 467.02 133.2 466.67 133.38 466.27 133.51 465.8 133.58 465.3 133.56 460.31 132.5 459.72 132.19 459.33 131.9 458.93 131.05 458.86 130.74 458.85 130.42 458.93 130.08 459.1 129.79 460.3 128.47 460.33 128.06 460.12 127.55 459.11 126.58 458.45 126.25 457.97 126.19 457.62 126.35 455.87 127.69 455.48 127.89 455.05 128.03 454.47 128.08 454.16 127.92 453.98 127.67 453.76 127.08 453.59 126.75 453.36 126.43 452.96 126.02 452.5 125.94 452.03 125.95 445.4 127.15 445 127.29 444.71 127.52 444.49 127.8 443.64 129.37 443.42 129.65 443.04 130.25 442.9 130.58 440.29 134.82 439.97 135.12 439.19 135.26 437.67 135.21 434.46 134.23 433.85 133.9 433.5 133.38 433.38 133.09 433.19 132.75 432.68 132.34 431.71 131.72 428.84 130.75 428.22 130.35 427.68 129.91 427.06 129.18 426.9 128.91 426.57 128.51 426.1 128.05 424.95 127.32 424.36 127.05 423.78 126.89 421.46 126.79 417.34 127.24 415.52 127.65 413.64 128.44 413.32 128.64 412.75 128.78 412 128.85 408.15 128.24 407.62 128.21 398.49 129.81 397.17 129.9 396.85 129.71 396.67 129.44 396.61 129.11 396.6 128.4 396.54 128.03 396.28 127.64 395.85 127.43 394.8 127.2 394.28 127.14 393.79 127.16 393.4 127.29 391.94 128.39 391.61 128.59 390.65 128.67 389.19 128.62 384.44 127.8 383.89 127.47 383.64 127.07 383.07 126.57 381.02 125.57 380.32 125.11 380.02 124.66 379.94 124.29 379.62 123.82 378.38 123.03 377.95 122.55 377.82 122.17 378.26 121.64 378.65 121.04 378.93 120.38 379.04 120.04 379.06 119.71 378.6 119.29 377.69 118.79 373.37 117.17 365.29 116.4 364.69 116.17 364.48 115.84 364.57 115.49 365 114.49 365.1 114.17 365.09 113.86 364.96 113.59 364.66 113.34 358.17 110.17 357.94 109.99 357.43 109.43 356.67 108.82 355.89 108.37 355.24 108.21 354.61 108.14 350.1 108.41 348.41 108.34 347.94 108.15 347.7 107.88 347.63 107.56 347.58 106.9 347.52 106.59 347.39 106.29 347.23 106.02 346.82 105.53 345.29 104.12 344.62 103.67 342.45 102.66 342.15 102.42 342.12 102.18 342.29 101.94 344.49 100.07 344.68 99.79 344.76 99.51 344.51 99.14 344 98.74 342.88 98.12 342.12 97.89 341.49 97.83 336.93 98.47 330.91 97.48 330.14 97.45 327.48 98.63 327.28 98.87 327.27 99.14 327.36 99.42 327.78 100.27 327.85 100.57 327.89 100.89 327.82 101.18 327.58 101.41 327.19 101.55 326.24 101.73 319.9 101.94 316.59 101.76 315.99 101.59 315.57 101.38 315.04 100.85 313.96 99.98 313.3 99.78 312.67 99.68 304.16 100.5 303.26 100.72 300.7 101.92 299.63 102.21 298.72 102.31 298.18 102.22 297.81 102.04 297.33 101.44 296.89 101.06 295.93 100.5 295.22 100.24 294.51 100.1 291.95 99.99 290.07 100.08 289.31 100.19 289.12 100.28 288.74 100.71 288.3 101.05 287.54 101.38 286.68 101.57 285.47 101.61 284.67 101.45 284 101.19 283.22 100.78 282.43 100.63 277.88 100.78 275.48 100.57 273.74 100.2 270.59 99.22 269.75 99.08 269.17 99.14 268.66 99.31 268.26 99.62 268.01 100.02 267.95 100.42 268.04 100.78 268.22 101.09 268.31 101.34 268.26 101.56 267.99 101.8 267.68 101.98 266.82 102.36 265.55 101.84 264.67 101.95 263.89 102.16 262.08 103.24 261.53 103.44 260.94 103.55 260.27 103.43 259.65 103.09 258.93 102.13 258.5 100.61 258.45 100.14 257.79 99.73 257.3 99.52 252.22 98.38 251.97 98.19 253.43 96.89 256.51 93.04 256.9 92.33 257.06 91.32 256.98 89.25 257.2 88.3 259.83 85.92 263.59 85.54 272.85 86.92 273.56 86.91 274.38 86.76 274.89 86.44 275.39 85.94 276.09 85.53 277.28 85.46 286.1 87.72 287.94 87.53 289.22 86.31 290.16 83.89 290.69 81.57 291.3 80.68 292.62 79.64 295.02 78.28 296.3 77.84 299.54 77.35 301.69 77.02 303.7 76.14 304.62 74.79 303.86 73.39 301.94 72.55 288.08 71.16 283.04 71.93 281.63 71.89 276.65 70.82 275.33 70.31 274.95 69.43 275.77 67.88 277.76 65.77 278.34 64.98 279.44 61.87 280.16 60.94 283.12 59.23 283.39 58.26 281.82 56.51 282.19 54.5 283.82 52.98 285.87 51.64 287.49 50.18 288.29 48.34 288.5 46.13 288.18 43.89 287.4 41.91 289.16 40.16 291.21 39.53 293.44 39.66 297.89 40.67 299.81 40.59 306.47 38.64 308.14 37.54 312.93 32.58 317.75 29.25 319.55 28.61 319.69 28.56 330.52 27.77 333.92 28.09 335.74 28.65 340.94 31.15 343.24 31.87 344.86 31.48 348.76 29.33 350.47 28.2 352.56 29.56 355.17 30.44 357.92 30.91 368.43 31.45 370.78 31.28 371.51 30 372.23 28.22 372.82 24.24 375.14 20.54 383.45 17.46 384.75 16.15 386.17 14.73 386.52 12.73 389.14 11.21 394.83 8.76 395.84 7.66 396.57 6.64 397.4 5.72 398.7 4.96 399.76 4.65 403.21 4.24 406.78 3.27 409.06 2.35 410.5 1.77 414.06 1 417.23 2.2 Z" id="BLR-2341" data-name="Vitebsk"/>
<path d="M 266.82 102.36 266.12 102.8 264.61 103.26 264.29 103.43 264.15 103.67 264.23 103.99 265.31 105.13 265.88 106.02 266.06 106.75 265.9 108.45 265.94 109.03 266.49 109.72 267 110.2 267.81 110.72 268.71 111.18 269.73 111.57 270.7 111.83 271.54 111.97 272.77 112.04 273.25 112.19 275.1 113.49 279.59 117.47 280.04 117.74 280.61 117.94 282.32 118.35 282.77 118.51 283 118.72 283.22 119.24 283.25 119.79 282.83 121.01 282.76 121.53 282.97 122.19 283.25 122.63 284.32 123.88 285.1 125.04 285.49 125.49 285.9 125.88 286.22 126.29 286.46 126.74 286.7 127.41 287.03 127.79 287.43 128.01 289.02 128.32 290.49 128.87 291.03 128.93 291.68 128.83 293.74 128.22 294.14 128.2 294.29 128.52 294.26 129.16 293.94 130.57 294.16 131.47 294.48 132.02 294.75 132.4 294.74 132.75 294.23 133.21 293.72 133.34 293.16 133.33 292.69 133.25 292.26 133.24 291.96 133.45 291.73 133.88 291.65 136.11 291.51 136.59 291.06 136.81 290.5 136.78 289.81 136.61 287.29 135.59 286.96 135.54 286.73 135.57 286.6 135.71 286.63 135.93 287 136.6 287.07 136.85 287.12 137.7 287.34 138.15 287.71 138.59 288.52 139.38 288.82 139.95 289.01 140.75 288.9 142.06 288.68 142.89 288.17 143.48 287.75 143.75 286.21 144.41 285.91 144.62 285.68 144.88 284.71 146.86 279.54 154.89 277.94 156.9 276.9 157.87 273.64 159.85 272.78 160.56 272.5 160.74 272.14 160.9 271.68 161.01 262.41 162.05 258.42 161.6 257.26 161.61 255.85 161.88 250.99 164.39 250.58 164.52 250.1 164.6 249.56 164.63 247.2 164.5 246.76 164.55 246.47 164.75 246.23 165 244.85 167.4 244.09 169.43 244.06 169.76 244.17 170.06 244.66 170.31 245.14 170.49 247.48 171.13 247.92 171.17 248.26 171.09 248.47 170.84 248.9 169.88 249.1 169.6 249.39 169.42 249.72 169.34 250.13 169.4 251.96 169.9 252.36 170.09 252.66 170.34 252.59 170.86 252.18 172.04 251.89 174.89 251.92 175.58 252.11 176.07 252.45 176.67 253.37 177.72 254.07 178.1 254.73 178.27 260.01 177.8 260.45 177.68 260.8 177.51 260.98 177.24 261.03 176.88 260.96 176.4 261.37 176.15 261.87 176.09 265.6 176.37 266.11 176.52 266.45 177.08 267.38 179.73 267.96 180.4 268.51 180.75 273.47 180.85 273.9 181.27 274.02 182.04 273.61 183.92 273.22 184.7 272.76 185.18 269.77 185.58 269.36 185.72 269.02 185.91 268.75 186.13 268.31 186.67 267.43 188.16 267 188.72 266.51 189.21 266.21 189.43 265.54 189.79 264.75 190.09 263.87 190.33 258.18 191.36 256.58 191.92 256.25 192.11 255.99 192.34 255.82 192.76 255.72 193.33 255.65 194.9 255.77 195.39 256.3 195.78 257.28 196.17 263.02 197.59 263.39 197.78 263.63 198.01 263.44 198.45 263.23 198.77 262.96 199.07 262.7 199.31 262.36 199.5 261.92 199.61 260.14 199.59 259.6 199.63 259.25 199.99 259.08 200.6 259.08 201.86 258.88 203 258.9 203.36 259.32 203.81 259.65 204.11 260.3 204.56 261.39 205.07 262.3 205.34 265.19 205.56 265.63 205.69 265.97 205.86 266.16 206.21 266.25 206.68 266.12 207.55 266.11 208.17 266.21 208.74 266.65 209.37 267.08 209.68 267.56 209.9 272.86 210.83 276.33 211.96 276.66 212.17 276.93 212.38 277.37 212.87 277.53 213.21 277.66 213.61 277.93 215.03 278.04 215.33 278.39 215.85 279.68 217.03 280.08 217.5 280.69 218.48 280.61 218.99 280.3 219.72 279.15 221.21 278.9 222.12 278.94 222.61 279.33 222.77 279.62 222.8 280.04 222.78 281.95 222.56 282.44 222.57 282.8 222.68 283.1 222.8 283.23 222.89 283.32 222.98 283.43 223.19 283.51 223.51 283.56 224 283.51 224.42 283.02 227.06 283.02 227.75 283.18 228.37 283.44 228.93 283.75 229.48 284.13 230.01 284.62 230.46 285.16 230.87 284.48 231.17 269.19 234.23 262.74 235.28 260.55 235.39 260.04 235.29 258.28 234.75 256.22 234.37 249.08 234.12 244.63 233.47 242.77 233.55 241.01 233.83 229.24 233.25 228.78 233.13 228.38 232.98 228.06 232.79 227.8 232.57 227.5 232.37 227.12 232.2 226.46 232.14 225.62 232.17 224.27 232.37 223.48 232.39 222.89 232.32 221.79 231.81 221.37 231.68 220.86 231.59 220.07 231.61 217.45 231.97 216.58 231.98 215.92 231.91 215.43 231.8 214.37 231.71 213.76 231.86 213.09 232.15 212.07 232.83 211.61 233.26 211.31 233.63 211.14 233.92 210.74 234.48 208.33 236.96 208 237.49 207.91 237.68 207.74 238.24 207.3 240.74 207.2 241.07 207.01 241.34 206.6 241.55 206.03 241.71 203.53 241.88 202.97 242.04 202.48 242.51 202.24 242.9 201.73 244.28 201.76 244.59 201.96 244.82 202.26 245.01 203.86 245.63 204.2 245.82 204.42 246.06 204.52 246.36 204.52 246.68 204.42 247 204 247.35 203.32 247.72 201.93 248.32 200.15 249.3 199.83 249.56 199.62 249.85 199.58 250.17 199.74 250.43 200.11 250.6 201.81 250.81 202.24 250.95 202.6 251.12 203.45 251.73 203.7 251.97 204.12 252.47 204.27 252.75 204.36 253.05 204.4 253.37 204.36 253.72 204.27 254.05 203.57 255.25 200.92 258.32 198.85 261.93 198.62 262.19 198.05 262.63 193.73 264.18 193.4 264.35 192.87 264.7 192 265.47 191.05 266.47 190.52 266.93 189.62 267.54 189.37 267.79 189.17 268.05 189.07 268.36 189.07 268.69 188.74 269.07 188.06 269.52 185.92 270.07 184.62 270.29 182.91 270.19 182.23 270.01 181.51 269.91 180.85 269.99 179.7 270.47 179.24 270.89 179.02 271.3 179.05 271.64 179.17 271.93 179.36 272.18 179.61 272.4 180.93 273.15 181.11 273.38 181.14 273.64 180.93 273.84 180.24 274.17 179.93 274.36 179.75 274.61 179.72 274.9 179.81 275.19 179.96 275.47 180.16 275.72 180.49 275.91 181.88 276.27 182.14 276.49 182.25 276.79 182.24 277.11 182.15 277.41 181.89 277.63 181.58 277.81 181.22 277.98 180.71 278.11 180.02 278.15 178.73 277.96 177.43 277.61 176.67 277.29 176.39 277.08 176.16 276.84 176.02 276.21 175.85 275.94 175.16 275.88 174.15 275.97 172.29 276.41 170.93 277.06 170.64 277.27 170.25 277.41 169.65 277.46 168.89 277.42 167.66 277.22 166.7 277.17 165.75 277.24 162.4 278.05 161.96 278.24 161.62 278.44 161.16 278.59 160.55 278.64 159.47 278.45 158.91 278.24 158.62 277.95 158.66 277.64 158.74 277.32 158.88 276.99 158.92 276.67 158.86 276.38 158.38 275.95 158.33 275.68 158.38 275.37 158.48 275.04 159.67 272.56 159.74 272.3 159.58 272.1 159.25 271.95 158.77 271.9 158.25 271.95 157.69 272.28 157.37 272.57 156.72 273.43 156.48 273.69 156.09 273.89 155.55 273.99 154.55 273.9 151.04 273.01 150.76 272.87 150.57 272.67 150.61 272.4 150.87 271.8 150.96 271.49 150.98 271.18 150.95 270.87 150.86 270.57 150.59 270 150.25 269.46 149.82 268.96 149.59 268.74 149.01 268.32 148.28 267.98 147.38 267.73 145.25 267.41 144.6 267.47 143.95 267.63 143.22 268.12 142.86 268.49 142.29 269.45 142.07 269.72 141.81 269.95 141.23 270.13 140.37 270.26 137.63 270.29 133.15 269.64 127.98 268.04 127.17 268.09 126.03 268.33 121.96 269.74 121.63 269.93 121.37 270.15 121.27 270.41 121.39 270.66 121.72 270.83 122.18 270.95 124.42 271.15 124.89 271.26 125.2 271.46 125.29 271.75 125.26 272.08 125.12 272.38 124.56 272.73 123.7 273.1 121.78 273.73 120.93 274.12 120.36 274.45 120.12 274.69 118.38 275.92 118.18 276.13 118.24 276.37 118.47 276.58 119.36 277.18 119.57 277.42 119.73 277.7 119.78 278 119.7 278.31 119.48 278.55 117.69 279.37 117.41 279.58 117.17 279.84 116.51 281.02 115.88 281.77 115.85 282.03 115.98 282.27 116.67 282.98 117.03 283.51 117.23 284.12 117.3 284.79 117.25 285.11 117.16 285.36 117.04 285.55 116.85 285.74 116.45 285.92 115.87 286.13 114.01 286.45 111.95 286.52 109.82 286.3 107.96 285.74 107.54 285.55 106.85 285.1 103.11 283.48 102.67 283.35 102.05 283.27 101.25 283.3 99.2 283.7 98.67 283.89 98.33 284.07 97.94 284.21 97.53 284.3 97.09 284.25 96.71 283.98 96.54 283.67 96.49 283.36 96.38 283.14 96.2 283 95.77 282.94 95.09 282.98 91.62 283.75 90.73 283.77 87.21 283.4 86.17 283.16 85.48 282.91 85.03 282.43 84.66 281.91 84.42 281.69 84.09 281.5 83.53 281.44 82.75 281.53 80.84 282.24 78.33 283.56 77.54 283.83 76.66 284.04 65.56 283.48 64.04 283.67 63.35 273.54 63.13 272.9 62.79 272.48 62.51 271.98 62.43 271.09 62.66 270.43 63.59 269.3 63.84 268.79 63.8 268.12 63.09 265.79 63.09 265.26 63.28 264.25 63.15 263.61 62.19 262.38 59.66 260.41 58.94 259 59.05 257.37 59.86 256.22 60.87 255.21 61.62 254.01 61.81 251.98 60.93 250.98 59.5 250.31 58 249.32 57.01 248.03 56.36 246.82 55.54 245.63 54.04 244.42 52.56 242.05 49.22 234.15 47.55 231.51 43.61 226.61 36.52 213.62 34.53 207.79 34.34 202.67 34.33 202.67 34.33 202.66 32.3 200.9 31.42 199.18 30.65 194.74 29.8 192.63 28.69 190.71 27.83 188.67 27.73 186.22 30.61 186.67 38.11 189.35 39.54 189.65 40.84 189.59 44.96 188.54 50.18 188.1 51.63 187.47 52.92 187.17 53.5 187.24 55 187.76 55.71 187.89 56.35 187.83 62.73 185.66 63.99 185.51 65.3 185.83 67.76 186.77 69.13 186.96 74.48 186.92 76.95 186.52 82.11 184.87 84.86 184.58 87.49 185.12 89.83 186.8 91.27 189.2 92.16 190 93.78 190.19 96.6 190.11 99.25 190.58 102.25 190.6 105.27 189.7 114.85 184.63 119.06 183.19 124.4 182.57 126.39 181.66 126.7 181.63 127.01 181.68 127.31 181.79 128.39 183.42 129.63 184.14 131.15 184.2 136.57 183.68 138.04 183.21 139.11 181.79 139.11 181.78 139.12 181.77 139.13 181.77 139.3 179.49 138.55 177.9 137.43 176.47 136.44 174.67 136.05 173.39 136.2 173.11 136.72 173.08 137.47 172.53 139.03 171.95 139.07 171.63 138.97 171.07 138.98 170.44 139.31 169.91 141.77 169.04 142.19 168.89 146.05 168.64 149.9 168.96 156.48 170.47 160.23 170.11 163.87 168.72 167.29 166.47 168.67 164.73 170.38 160.8 171.44 159.7 172.94 159.55 178.24 160.67 185.1 160.44 187.13 159.67 190.48 156.77 192.58 156.18 193.65 156.33 194.2 156.65 194.6 157.12 200.49 161.83 199.78 162.15 197.83 162.05 196.12 162.63 195.92 163.46 197.93 164.09 198.4 164.81 197.79 165.43 195.41 165.91 194.79 166.5 195.42 167.99 197.32 169.06 199.57 169.71 206.97 170.43 208.8 170.4 209.67 170.09 210.99 169.01 211.9 168.77 215.03 169.02 216.03 168.93 217.95 168.08 218.62 166.77 218.69 162.95 218.95 162.57 219.94 161.79 220.14 161.42 219.92 160.91 219.51 160.73 219.06 160.63 218.72 160.36 218.17 159.43 217.51 158.68 216.77 158.07 215.97 157.55 215.59 157.5 214.63 157.68 214.29 157.63 213.97 157.33 213.08 155.84 212.83 155.03 212.35 154.34 211.21 153.95 209.96 154.15 204.95 155.69 201.33 155.83 199.51 155.42 198.37 154.34 198.49 152.24 200.06 150.43 203.89 147.73 205.38 145.92 205.69 144.31 205.63 142.57 206 140.38 206.91 138.69 208.19 137.68 213.3 135.92 214.9 134.96 216.06 133.66 216.49 132 216.02 130.39 213.95 127.42 213.39 125.77 213.48 124.72 213.84 123.89 214.28 123.12 214.61 122.24 214.74 121.37 214.46 117.11 214.71 115.99 215.6 115.24 217.43 114.3 218.25 114.06 218.82 114.05 219.24 113.89 219.61 113.18 219.56 112.49 218.84 110.83 218.72 110.08 219.59 108.51 221.25 107.51 223.19 106.64 224.94 105.46 225.47 104.6 225.62 103.85 225.92 103.22 226.9 102.73 230.05 101.96 231.57 101.99 234.61 102.39 236.17 102.41 246.31 101.21 249.32 100.22 250.57 99.42 251.97 98.19 252.22 98.38 257.3 99.52 257.79 99.73 258.45 100.14 258.5 100.61 258.93 102.13 259.65 103.09 260.27 103.43 260.94 103.55 261.53 103.44 262.08 103.24 263.89 102.16 264.67 101.95 265.55 101.84 266.82 102.36 Z" id="BLR-2344" data-name="Grodno"/>
<path d="M 522.94 161.83 523.14 162.59 523.36 162.8 523.79 163 525.46 163.28 525.87 163.44 526.05 163.69 526.08 164.7 526.19 164.98 526.44 165.21 526.79 165.39 526.97 165.61 526.86 165.89 526.27 166.23 524.52 166.87 524.2 167.06 524.05 167.32 524.21 168.74 524.15 171.81 524.05 172.15 523.83 172.43 523.27 172.64 522.72 172.73 522.26 172.87 521.97 173.08 521.83 173.38 521.96 173.78 522.23 174.03 522.92 174.44 523.16 174.67 523.35 174.93 523.48 175.21 523.57 175.51 523.6 175.82 523.51 176.18 523.26 176.56 522.58 177.09 521 178.01 520.17 178.7 519.5 179.07 518.27 179.46 517.92 179.65 517.61 179.9 516.79 180.89 516.64 181.16 516.59 181.41 516.55 181.99 516.72 182.33 516.95 182.63 517.48 183.08 518.1 183.82 518.34 184.38 518.49 185 518.5 187.01 518.36 188.26 518.38 188.43 518.49 188.61 518.68 188.81 518.82 189.06 518.74 189.37 518.17 189.89 517.92 190.27 518.05 190.76 518.42 191.01 520.3 191.58 520.49 191.81 520.35 192.12 519.25 192.9 518.49 193.34 518.24 193.56 518.17 193.8 518.49 194.09 518.9 194.15 519.34 194.09 520.95 193.56 521.33 193.5 521.68 193.58 521.83 193.82 521.87 194.13 521.72 194.48 521.41 194.81 520.73 195.14 518.89 195.72 518.56 195.86 518.41 196.02 518.65 196.17 519.13 196.25 520.79 196.32 521.27 196.42 521.63 196.59 522.21 197.02 522.54 197.18 523.04 197.24 524.42 197.05 524.9 197.04 525.34 197.12 525.72 197.28 526.34 197.69 526.7 197.85 528.23 198.02 528.57 198.17 528.45 198.53 528.09 198.99 527.13 199.73 526.07 200.4 524.89 200.81 522.24 201.48 521.9 201.67 521.71 201.92 521.79 202.3 522.03 202.56 522.45 202.74 522.94 202.87 524.06 203.04 524.45 203.2 524.52 203.44 524.28 203.72 523.62 204.05 522.55 204.34 522.16 204.55 521.85 204.85 521.63 205.41 521.31 205.76 520.74 205.98 520.22 205.95 519.81 205.8 519.51 205.6 518.99 205.13 518.69 204.91 518.33 204.76 517.85 204.69 517.37 204.72 516.91 204.8 516.51 204.94 516.18 205.12 515.53 205.64 514.53 206.61 513.73 207.24 512.33 207.93 505.87 210.05 504.92 210.18 504.37 210.17 503.31 210.01 502.89 209.85 502.55 209.67 502.3 209.44 501.98 209.23 501.58 209.09 499.98 208.89 499.05 208.67 498.59 208.6 498.13 208.64 497.72 208.75 496.97 209.05 493.71 211.02 493.44 211.29 493.27 211.64 493.31 212.19 493.46 212.55 494.24 213.61 494.35 213.9 494.42 214.22 494.29 214.6 493.99 215.01 493.25 215.5 492.69 215.74 492.15 215.88 484.63 216.26 484.18 216.35 483.86 216.51 483.94 216.93 484.07 217.24 484.11 217.63 484.08 218.02 483.94 218.52 483.92 218.91 483.94 219.25 484.58 220.69 484.62 220.94 484.56 221.16 484.07 221.3 483.54 221.36 480.56 221.25 480.07 221.18 479.73 221.01 479.47 220.79 477.97 218.77 476.92 217.89 476.87 217.6 477.04 217.27 477.49 216.81 477.76 216.44 477.86 216.08 477.83 215.77 477.64 215.52 477.31 215.4 476.88 215.41 476.52 215.53 475.43 216.26 475.05 216.27 474.78 216.11 474.34 215.65 473.77 215.23 473.41 215.06 472.95 214.92 472.41 214.86 471.88 214.87 471.42 214.95 470.33 215.45 469.91 215.56 469.39 215.61 461.85 214.75 459.95 214.24 458.37 213.61 457.48 213.34 456.91 213.32 456.36 213.4 455.84 213.64 455.49 213.89 455.22 214.15 455.04 214.5 454.98 214.92 455.2 215.6 455.4 216.01 455.79 216.61 455.84 216.94 455.74 217.34 455.36 217.87 455.01 218.18 454.61 218.39 454.19 218.51 450.81 219.01 450.52 219.13 450.49 219.29 451.02 219.46 452.24 219.65 452.73 219.77 452.93 219.98 452.85 220.25 452.39 220.49 451.95 220.64 449.18 221.21 448.79 221.35 448.48 221.54 447.9 221.97 447.47 222.06 447.04 222.05 445.33 221.81 444.19 221.78 443.17 221.87 442.74 221.98 442.36 222.13 441.08 222.9 440.24 223.59 439.23 224.58 438.4 225.58 438.35 226.88 438.58 228.75 438.43 231.31 438.28 231.82 438.12 232.15 437.92 232.44 437.67 232.69 435.43 234.11 435.24 234.35 435.08 234.65 435.02 234.96 435.11 235.29 435.51 235.59 435.97 235.78 440.45 236.86 440.95 237.1 441.42 237.46 441.91 238.22 442.6 238.94 442.75 239.24 442.72 239.58 442.34 240.06 441.91 240.28 441.42 240.42 437.28 240.75 436.86 240.86 436.53 241.05 436.31 241.32 436.13 241.63 435.94 241.91 435.66 242.15 435.28 242.29 434.76 242.33 425.06 241.94 424.51 242 423.98 242.1 423.56 242.45 423.16 242.5 422.84 242.41 420.68 240.69 420.03 240.3 419.28 239.97 417.98 239.56 417.43 239.51 415.86 239.6 414.93 239.76 412.46 240.52 412.24 240.77 412.23 241.14 413.53 242.64 413.75 243 414.29 244.34 414.62 244.81 415.33 245.08 418.81 245.59 420.59 246.06 421.12 246.29 421.72 246.63 423.31 248.32 423.92 248.57 424.53 248.68 427.52 248.93 428.51 249.16 431.05 250.02 431.4 250.06 431.67 249.9 431.88 249.66 432.38 248.72 432.58 248.43 432.84 248.19 433.18 248.01 433.65 247.97 436.58 248.2 437.23 248.71 437.87 249.61 438.74 251.89 439.37 252.7 439.99 253.13 443.11 252.9 443.93 252.66 444.97 252.14 445.81 251.93 447.32 251.84 447.82 251.89 448.25 252.02 448.51 252.24 448.51 252.51 447.59 253.22 447.34 253.58 447.5 254.18 447.69 254.57 449.39 257.28 449.45 257.68 449.35 258.22 448.5 260.3 448.42 260.59 448.42 260.99 448.59 261.55 448.74 261.94 448.95 262.25 449.14 262.5 449.6 262.97 449.74 263.19 449.75 263.37 449.34 263.45 446.64 263.24 446.32 263.27 446.01 263.4 445.77 263.63 444.31 266.04 443.61 266.82 442.82 267.53 442.67 267.79 442.72 268.05 443.09 268.32 445.51 269.32 445.81 269.53 445.95 269.84 445.93 270.23 445.6 270.78 445.29 271.12 444.97 271.39 442.54 273.03 442.1 273.57 441.96 273.9 441.53 275.34 441.39 275.67 441 276.25 440.77 276.51 438.98 278.21 429.19 284.25 429.72 284.74 430.97 285.46 439.16 288.63 443.99 291.39 443.66 291.49 442.38 292.5 442.49 292.7 442.61 292.99 442.85 293.19 442.56 293.52 441.79 293.89 439.97 294.54 439.19 294.98 438.72 295.38 438.62 295.74 438.47 296.84 438.31 299.64 438.48 301.27 438.98 303.76 439.02 304.4 439 304.7 438.84 304.98 438.58 305.2 433.26 308.06 416.02 309.24 415.02 309.15 414.37 308.99 413.67 308.28 412.92 307.27 412.45 306.46 412.4 306.4 412.13 306.22 411.82 306.07 410.92 305.82 403.77 304.86 403.12 304.95 402.45 305.17 401.49 305.66 401.11 306.03 400.97 306.34 401.02 306.49 401.81 307.4 401.95 307.67 402.07 307.95 402.29 309.23 402.3 309.54 402.24 309.84 402.02 310.1 401.67 310.29 400.62 310.63 400.19 310.83 399.89 311.08 398.83 311.37 389.55 311.9 386.83 311.53 380.23 311.64 379.67 311.59 379.18 311.5 374.93 310.1 372.15 308.75 371.89 308.55 371.66 308.33 371.48 308.07 371.39 307.77 371.36 307.44 371.36 306.54 371.58 304.58 371.57 304.24 371.47 303.94 371.2 303.73 370.73 303.62 370.13 303.71 369.55 303.99 368.89 304.73 368.36 305.61 368.19 305.79 367.89 305.66 367.66 305.46 367.24 304.94 367.07 304.68 365.84 303.21 365.36 303.15 364.63 303.31 358.9 306.3 358.71 306.31 358.57 306.19 358.4 305.65 358.26 305.37 358.04 305.14 357.66 304.99 355.47 304.92 354.88 305.14 354.31 305.57 353.69 306.71 353.23 307.82 352.93 308.07 352.31 308.2 349.99 308.28 349.53 308.41 349.22 308.71 349.11 309.3 349.14 309.72 349.2 310.09 349.4 310.69 349.67 311.24 350.17 312.03 349.24 313.44 343.94 318.07 333.22 314.05 331.98 313.44 332 313.19 332.22 312.97 333.66 311.93 333.89 311.67 334.09 311.38 334.26 311.08 334.36 310.76 334.32 310.32 334.15 309.83 333.65 309.08 333.19 308.72 329.89 307.12 326.26 304.81 325.12 303.86 324.68 303.25 326.29 302.27 326.56 302.02 326.69 301.61 326.53 301.33 326.26 301.1 324.59 300.15 324.44 299.8 324.46 299.46 325.05 298.19 325.29 297.92 325.6 297.72 326.05 297.63 335.97 297.34 336.41 297.24 336.75 297.06 336.97 296.8 337.13 296.4 337.26 295.92 337.3 295.13 337.21 294.67 337.07 294.3 336.15 293.3 335.33 292.56 334.87 292.35 334.36 292.26 329.94 292.26 327.08 291.92 326.44 291.68 325.77 291.31 323.06 288.62 322.92 288.2 322.94 287.84 323.4 287.29 323.56 286.98 323.55 286.5 323.33 286.23 323.02 285.99 320.35 284.88 319.96 284.82 319.6 284.9 319.31 285.09 318.26 286.03 317.97 286.23 317.63 286.4 317.25 286.5 316.81 286.48 315.86 286.27 312.98 285.25 304.54 283.62 303.76 283.34 303.36 283.06 301.49 281.27 299.44 278.87 298.9 278.47 298.36 278.28 297.92 278.33 295.26 278.92 294.65 278.93 293.98 278.88 292.97 278.63 292.5 278.38 292.18 278.1 292.09 277.8 291.96 276.63 291.71 276.09 291.34 275.82 289.19 275.22 287.62 274.54 286.73 274.29 286.02 274.18 283.56 274.49 283.16 274.61 282.88 274.83 282.72 275.15 282.61 275.5 282.36 276.61 282.24 276.93 282.08 277.19 281.83 277.34 281.58 277.41 278.78 277.4 278.37 277.49 277.99 277.63 277.34 278.01 276.76 278.44 276.5 278.67 275.79 279.11 275.2 279.24 274.83 279.15 274.5 278.98 272.07 276.82 271.77 276.36 271.76 275.98 271.97 275.73 272.25 275.51 274.36 274.51 274.59 274.26 274.68 273.92 274.05 272.9 273.9 272.51 273.82 272.2 273.78 271.87 273.7 271.56 273.34 271.02 269.77 267.36 269.04 266.4 268.84 265.82 268.85 265.39 269.11 265.15 270.24 264.8 270.52 264.66 270.89 264.33 271.06 264.09 271.71 262.87 272.29 262.03 272.76 261.51 273.27 261.03 273.6 260.86 273.99 260.71 274.87 260.47 275.93 260.38 279.33 260.62 280.08 260.58 280.48 260.49 280.86 260.34 280.94 259.92 280.77 259.31 279.6 257.64 279.25 257.28 276.44 255.27 275.96 255.1 275.44 255.03 269.67 254.83 268.98 254.7 268.12 254.44 267.74 254.16 267.5 253.85 267.33 252.81 267.18 252.37 266.81 252.08 265.53 251.57 265.35 251.25 265.23 250.46 264.97 250.22 264.51 250.15 263.05 250.3 262.4 250.28 261.65 250.17 260.63 249.87 260.19 249.56 259.98 249.22 260.01 248.87 260.12 248.54 260.27 248.27 260.89 247.39 262.3 245.87 263.46 244.97 264.16 244.54 265.1 244.1 265.59 243.98 269.02 243.93 269.5 243.85 269.93 243.73 270.31 243.58 270.62 243.39 270.87 243.14 271.01 242.84 271.05 242.51 271.01 241.04 270.94 240.55 270.58 239.78 270.13 239.29 269.36 238.72 269.02 238.36 268.84 238 269.05 234.88 269.19 234.23 284.48 231.17 285.16 230.87 284.62 230.46 284.13 230.01 283.75 229.48 283.44 228.93 283.18 228.37 283.02 227.75 283.02 227.06 283.51 224.42 283.56 224 283.51 223.51 283.43 223.19 283.32 222.98 283.23 222.89 283.1 222.8 282.8 222.68 282.44 222.57 281.95 222.56 280.04 222.78 279.62 222.8 279.33 222.77 278.94 222.61 278.9 222.12 279.15 221.21 280.3 219.72 280.61 218.99 280.69 218.48 280.08 217.5 279.68 217.03 278.39 215.85 278.04 215.33 277.93 215.03 277.66 213.61 277.53 213.21 277.37 212.87 276.93 212.38 276.66 212.17 276.33 211.96 272.86 210.83 267.56 209.9 267.08 209.68 266.65 209.37 266.21 208.74 266.11 208.17 266.12 207.55 266.25 206.68 266.16 206.21 265.97 205.86 265.63 205.69 265.19 205.56 262.3 205.34 261.39 205.07 260.3 204.56 259.65 204.11 259.32 203.81 258.9 203.36 258.88 203 259.08 201.86 259.08 200.6 259.25 199.99 259.6 199.63 260.14 199.59 261.92 199.61 262.36 199.5 262.7 199.31 262.96 199.07 263.23 198.77 263.44 198.45 263.63 198.01 263.39 197.78 263.02 197.59 257.28 196.17 256.3 195.78 255.77 195.39 255.65 194.9 255.72 193.33 255.82 192.76 255.99 192.34 256.25 192.11 256.58 191.92 258.18 191.36 263.87 190.33 264.75 190.09 265.54 189.79 266.21 189.43 266.51 189.21 267 188.72 267.43 188.16 268.31 186.67 268.75 186.13 269.02 185.91 269.36 185.72 269.77 185.58 272.76 185.18 273.22 184.7 273.61 183.92 274.02 182.04 273.9 181.27 273.47 180.85 268.51 180.75 267.96 180.4 267.38 179.73 266.45 177.08 266.11 176.52 265.6 176.37 261.87 176.09 261.37 176.15 260.96 176.4 261.03 176.88 260.98 177.24 260.8 177.51 260.45 177.68 260.01 177.8 254.73 178.27 254.07 178.1 253.37 177.72 252.45 176.67 252.11 176.07 251.92 175.58 251.89 174.89 252.18 172.04 252.59 170.86 252.66 170.34 252.36 170.09 251.96 169.9 250.13 169.4 249.72 169.34 249.39 169.42 249.1 169.6 248.9 169.88 248.47 170.84 248.26 171.09 247.92 171.17 247.48 171.13 245.14 170.49 244.66 170.31 244.17 170.06 244.06 169.76 244.09 169.43 244.85 167.4 246.23 165 246.47 164.75 246.76 164.55 247.2 164.5 249.56 164.63 250.1 164.6 250.58 164.52 250.99 164.39 255.85 161.88 257.26 161.61 258.42 161.6 262.41 162.05 271.68 161.01 272.14 160.9 272.5 160.74 272.78 160.56 273.64 159.85 276.9 157.87 277.94 156.9 279.54 154.89 284.71 146.86 285.68 144.88 285.91 144.62 286.21 144.41 287.75 143.75 288.17 143.48 288.68 142.89 288.9 142.06 289.01 140.75 288.82 139.95 288.52 139.38 287.71 138.59 287.34 138.15 287.12 137.7 287.07 136.85 287 136.6 286.63 135.93 286.6 135.71 286.73 135.57 286.96 135.54 287.29 135.59 289.81 136.61 290.5 136.78 291.06 136.81 291.51 136.59 291.65 136.11 291.73 133.88 291.96 133.45 292.26 133.24 292.69 133.25 293.16 133.33 293.72 133.34 294.23 133.21 294.74 132.75 294.75 132.4 294.48 132.02 294.16 131.47 293.94 130.57 294.26 129.16 294.29 128.52 294.14 128.2 293.74 128.22 291.68 128.83 291.03 128.93 290.49 128.87 289.02 128.32 287.43 128.01 287.03 127.79 286.7 127.41 286.46 126.74 286.22 126.29 285.9 125.88 285.49 125.49 285.1 125.04 284.32 123.88 283.25 122.63 282.97 122.19 282.76 121.53 282.83 121.01 283.25 119.79 283.22 119.24 283 118.72 282.77 118.51 282.32 118.35 280.61 117.94 280.04 117.74 279.59 117.47 275.1 113.49 273.25 112.19 272.77 112.04 271.54 111.97 270.7 111.83 269.73 111.57 268.71 111.18 267.81 110.72 267 110.2 266.49 109.72 265.94 109.03 265.9 108.45 266.06 106.75 265.88 106.02 265.31 105.13 264.23 103.99 264.15 103.67 264.29 103.43 264.61 103.26 266.12 102.8 266.82 102.36 267.68 101.98 267.99 101.8 268.26 101.56 268.31 101.34 268.22 101.09 268.04 100.78 267.95 100.42 268.01 100.02 268.26 99.62 268.66 99.31 269.17 99.14 269.75 99.08 270.59 99.22 273.74 100.2 275.48 100.57 277.88 100.78 282.43 100.63 283.22 100.78 284 101.19 284.67 101.45 285.47 101.61 286.68 101.57 287.54 101.38 288.3 101.05 288.74 100.71 289.12 100.28 289.31 100.19 290.07 100.08 291.95 99.99 294.51 100.1 295.22 100.24 295.93 100.5 296.89 101.06 297.33 101.44 297.81 102.04 298.18 102.22 298.72 102.31 299.63 102.21 300.7 101.92 303.26 100.72 304.16 100.5 312.67 99.68 313.3 99.78 313.96 99.98 315.04 100.85 315.57 101.38 315.99 101.59 316.59 101.76 319.9 101.94 326.24 101.73 327.19 101.55 327.58 101.41 327.82 101.18 327.89 100.89 327.85 100.57 327.78 100.27 327.36 99.42 327.27 99.14 327.28 98.87 327.48 98.63 330.14 97.45 330.91 97.48 336.93 98.47 341.49 97.83 342.12 97.89 342.88 98.12 344 98.74 344.51 99.14 344.76 99.51 344.68 99.79 344.49 100.07 342.29 101.94 342.12 102.18 342.15 102.42 342.45 102.66 344.62 103.67 345.29 104.12 346.82 105.53 347.23 106.02 347.39 106.29 347.52 106.59 347.58 106.9 347.63 107.56 347.7 107.88 347.94 108.15 348.41 108.34 350.1 108.41 354.61 108.14 355.24 108.21 355.89 108.37 356.67 108.82 357.43 109.43 357.94 109.99 358.17 110.17 364.66 113.34 364.96 113.59 365.09 113.86 365.1 114.17 365 114.49 364.57 115.49 364.48 115.84 364.69 116.17 365.29 116.4 373.37 117.17 377.69 118.79 378.6 119.29 379.06 119.71 379.04 120.04 378.93 120.38 378.65 121.04 378.26 121.64 377.82 122.17 377.95 122.55 378.38 123.03 379.62 123.82 379.94 124.29 380.02 124.66 380.32 125.11 381.02 125.57 383.07 126.57 383.64 127.07 383.89 127.47 384.44 127.8 389.19 128.62 390.65 128.67 391.61 128.59 391.94 128.39 393.4 127.29 393.79 127.16 394.28 127.14 394.8 127.2 395.85 127.43 396.28 127.64 396.54 128.03 396.6 128.4 396.61 129.11 396.67 129.44 396.85 129.71 397.17 129.9 398.49 129.81 407.62 128.21 408.15 128.24 412 128.85 412.75 128.78 413.32 128.64 413.64 128.44 415.52 127.65 417.34 127.24 421.46 126.79 423.78 126.89 424.36 127.05 424.95 127.32 426.1 128.05 426.57 128.51 426.9 128.91 427.06 129.18 427.68 129.91 428.22 130.35 428.84 130.75 431.71 131.72 432.68 132.34 433.19 132.75 433.38 133.09 433.5 133.38 433.85 133.9 434.46 134.23 437.67 135.21 439.19 135.26 439.97 135.12 440.29 134.82 442.9 130.58 443.04 130.25 443.42 129.65 443.64 129.37 444.49 127.8 444.71 127.52 445 127.29 445.4 127.15 452.03 125.95 452.5 125.94 452.96 126.02 453.36 126.43 453.59 126.75 453.76 127.08 453.98 127.67 454.16 127.92 454.47 128.08 455.05 128.03 455.48 127.89 455.87 127.69 457.62 126.35 457.97 126.19 458.45 126.25 459.11 126.58 460.12 127.55 460.33 128.06 460.3 128.47 459.1 129.79 458.93 130.08 458.85 130.42 458.86 130.74 458.93 131.05 459.33 131.9 459.72 132.19 460.31 132.5 465.3 133.56 465.8 133.58 466.27 133.51 466.67 133.38 467.02 133.2 467.95 132.59 468.39 132.47 468.93 132.44 472.58 132.72 473.16 132.82 473.64 133 473.83 133.4 473.94 133.76 473.92 134.14 474 134.46 474.27 134.71 475.05 134.79 476.23 134.7 477.18 134.53 477.55 134.37 477.84 134.14 478.56 133.35 478.73 133.09 478.81 132.81 478.64 132.59 477.23 131.52 477.05 131.29 477 131.01 477.28 130.43 477.63 129.49 477.85 129.24 478.21 129.09 478.68 129.05 489.51 130.22 491.8 130.21 493.33 129.97 493.69 129.86 494.06 129.69 494.37 129.48 495.58 128.17 495.87 127.95 496.2 127.76 497.85 127.23 499.68 126.84 500.09 126.83 500.37 126.89 500.17 127.12 499.5 127.49 499.23 127.73 499.17 127.98 499.29 128.27 499.77 128.48 500.31 128.56 500.86 128.55 502.77 128.22 504.47 127.74 504.95 127.66 505.48 127.62 506.07 127.89 506.61 128.42 507.1 129.82 507.22 130.56 507.25 131.14 507.16 131.86 507.18 132.17 507.31 132.43 507.74 132.51 510.54 132.54 511.5 132.67 513.25 133.19 513.72 133.24 514.12 133.14 516.28 132.13 517.08 131.85 517.98 131.64 518.51 131.61 519.64 131.72 521.66 132.2 523.98 132.48 524.5 132.44 524.95 132.34 525.31 132.17 525.6 131.95 525.82 131.68 525.94 131.34 525.99 131 525.94 130.03 526 129.75 526.27 129.58 526.75 129.56 527.83 129.72 528.35 130.05 528.85 130.54 529.41 132.31 529.4 132.78 529.06 133.1 526.25 134.61 525 135.44 524.82 135.69 524.81 135.97 525.09 136.29 526.29 137.2 526.44 137.49 526.41 137.87 526.05 138.39 525.73 138.73 525.4 139 524.78 139.41 524.46 139.67 524.01 140.18 523.81 140.47 522.71 147.47 522.15 149 521.61 149.86 521.14 149.94 520.75 150.15 520.48 150.49 520.22 151.09 519.95 151.46 519.63 151.74 519.03 152.05 518.95 152.17 518.95 152.37 519.75 152.83 520.17 153 520.73 153.32 522.42 154.91 522.54 155.2 522.53 155.56 522.18 156.08 521.85 156.41 521.48 156.65 518.99 157.88 518.72 158.1 518.47 158.35 518.3 158.65 518.23 158.97 518 160.75 518.07 161.12 518.29 161.48 518.78 161.92 519.17 162.19 519.82 162.32 520.32 162.35 522.94 161.83 Z M 378.75 182.04 375.44 181.3 374.58 181.21 371.86 180.58 368.52 180.16 363.3 179.74 358.07 180.37 355.36 181.41 353.48 184.13 352.64 187.68 352.22 189.98 352.22 192.49 353.27 194.78 356.61 195.2 361.21 196.46 364.34 197.08 365.8 198.75 367.68 199.17 369.98 197.5 375.62 197.08 378.75 196.87 380.84 197.29 384.81 197.5 388.36 197.08 390.66 194.99 389.83 192.9 387.11 191.65 386.07 188.94 386.48 186.85 388.78 184.34 391.29 182.67 391.08 179.74 388.78 179.33 386.48 180.58 384.19 181.41 380.84 182.04 378.75 182.04 Z" fill-rule="evenodd" id="BLR-2345" data-name="Minsk"/>
<path d="M 378.75 182.04 380.84 182.04 384.19 181.41 386.48 180.58 388.78 179.33 391.08 179.74 391.29 182.67 388.78 184.34 386.48 186.85 386.07 188.94 387.11 191.65 389.83 192.9 390.66 194.99 388.36 197.08 384.81 197.5 380.84 197.29 378.75 196.87 375.62 197.08 369.98 197.5 367.68 199.17 365.8 198.75 364.34 197.08 361.21 196.46 356.61 195.2 353.27 194.78 352.22 192.49 352.22 189.98 352.64 187.68 353.48 184.13 355.36 181.41 358.07 180.37 363.3 179.74 368.52 180.16 371.86 180.58 374.58 181.21 375.44 181.3 378.75 182.04 Z" id="BLR-4825" data-name="City of Minsk"/>
</g>
</svg>