<?xml version="1.0"?>
<svg xmlns="http://www.w3.org/2000/svg" version="1.2" baseProfile="tiny" width="800" height="432" viewBox="0 0 800 432" stroke-linecap="round" stroke-linejoin="round">
<g id="ne_10m_admin_1_states_provinces">
<path d="M 38.32 227.69 37.9 227.69 37.76 226.36 36.12 221.53 35.22 220.02 34.84 219.17 34.74 218.6 34.83 217.11 34.71 215.61 34.19 213.02 34.06 211.72 34.27 210.49 34.85 209.38 35.82 208.63 37.17 208.44 37.45 208.8 37.52 208.98 37.52 209.25 35.89 210.16 35.61 212.43 36.37 216.92 37.04 221.6 38.32 226.19 38.09 226.89 38.11 227.19 38.32 227.69 Z M 60.88 181.01 61.15 181.05 61.39 180.73 61.64 181.95 61.75 182.26 62.9 183.62 62.6 184.3 61.9 184.95 61.01 185.37 60.21 185.37 59.91 184.93 59.28 183.15 58.88 182.45 58.58 181.71 58.9 181.08 59.54 180.61 60.21 180.35 60.57 180.74 60.88 181.01 Z M 199.87 83.53 208.98 83.9 219.43 84.33 231.06 84.81 231.07 84.84 231.22 87.06 231.53 88.16 233.04 91.22 234.51 95 234.96 95.76 235.32 96.2 235.89 96.59 236.4 96.79 236.89 96.88 237.63 96.89 237.85 97.01 238.14 97.3 238.16 97.76 238.07 98.14 237.77 98.83 237.66 99.17 237.69 99.55 237.89 99.91 238.43 100.38 238.86 100.62 240.01 101.05 240.42 101.28 241.12 101.87 242.82 103.9 244.57 105.28 244.78 105.5 251.3 118.19 251.98 120.11 252.21 120.53 252.6 121.09 253.96 122.36 255.64 123.47 258.87 126.67 259.62 128.34 261.99 135.61 264.49 140.68 264.01 142.48 261.68 147.9 263.31 148.84 264.94 149.54 265.33 149.94 265.6 150.28 266.52 152.58 259.78 155.26 256.79 156.98 256.44 157.42 256.32 157.82 256.33 158.32 256.46 158.74 256.66 159.18 257.33 160.17 257.49 160.6 258.2 163.95 262.92 177.83 263.03 178.45 262.73 178.87 262.29 179.23 261.66 179.59 258.08 180.62 256.73 181.23 256.36 181.47 255.96 182.1 238.84 225.52 238.58 226.88 238.5 227.68 238.35 228.14 238.11 228.54 236.53 230.64 236.29 231.2 236.18 231.66 236.39 232.84 236.36 233.41 236.18 233.71 235.83 233.96 234.86 234.28 234.41 234.48 234.02 234.85 233.8 235.29 233.68 235.76 233.15 240.95 233.23 241.82 233.43 242.21 233.78 242.59 234.07 242.79 234.39 242.93 234.69 242.95 235.03 242.92 235.61 242.97 236.52 243.19 239.69 244.4 240.59 244.64 241.25 244.66 244.11 243.98 245.21 243.9 245.97 244.01 246.7 244.23 247.44 244.54 247.99 244.56 248.53 244.46 250.16 243.95 251.04 243.86 251.47 243.98 251.82 244.33 252.5 246.18 252.74 246.63 253.93 248.08 254.77 248.73 260.18 251.63 264.97 255.35 264.99 255.36 264.82 255.51 263.68 257.06 263.02 257.63 261.2 258.58 260.42 259.13 259.4 259.58 258.26 259.44 256.03 258.71 247.58 257.46 246.71 257.24 244.78 256.37 242.58 254.96 242.04 254.87 239.36 255.24 234.85 256.79 233.95 256.92 233.19 256.65 232.48 256.2 231.7 255.83 230.74 255.64 225.59 255.77 223.55 256.39 221.66 257.43 218.12 260.02 217.76 260.79 219.29 262.17 219.56 263.15 219.36 264.19 218.8 265.07 217.91 265.59 213.1 266.23 212.19 266.13 210.44 265.56 210.17 265.47 207.9 265.24 199.87 266.4 199 266.36 198.22 266.16 196.69 265.52 195.75 265.29 192.88 265.27 192.06 265.05 189.87 264.04 186.39 263.44 184.72 263.43 173.61 265.28 170.04 265.4 168.68 265.83 164.5 268.38 163.34 268.85 162.18 269.6 161.54 269.67 158.98 270.36 157.76 270.9 157.25 271.78 156.56 272 153.32 272.49 152.23 272.78 151.75 273.2 151.14 274.23 150.73 274.66 150.13 274.84 149.34 274.94 148.66 275.24 148.36 276 147.92 276.59 145.3 278.91 136.86 283.51 135.18 284.97 134.45 285.9 134.14 286.79 133.89 287.91 132.97 289.65 133.02 290.83 133.22 291.14 133.88 291.61 134.14 291.98 134.21 292.38 134.14 293.73 133.96 294.53 133.2 295.94 133.02 296.8 132.76 297.2 131.34 298.15 128.67 299.55 127.97 300.07 126.86 300.43 125.48 301.61 124.64 301.93 123.39 301.94 119.97 301.35 118.7 301.5 109.2 305.89 107.2 306.42 105.96 306.42 104.66 306.29 103.44 306.33 102.4 306.89 101.36 307.69 100.34 308.03 99.23 308.08 83.9 307.01 83.9 307.01 83.9 307 83.11 299.95 82.56 297.72 81.51 295.5 81.18 294.4 80.92 291.93 78.91 284.43 77.92 268.3 78.09 267.38 78.86 265.52 79.43 262.78 80.82 258.5 80.6 256.97 81.25 255.21 81.34 252.8 81.06 248.68 80.97 248.23 80.47 247.45 80.22 246.93 80.07 246.38 79.95 245.23 79.1 241.81 79.03 240.59 79.54 236.05 80.18 233.8 81.06 231.94 83.68 228.66 84.64 226.64 84.09 224.97 84.93 224.43 85.37 223.42 85.69 222.28 86.2 221.36 86.82 220.57 87.49 219.45 87.78 218.65 87.23 218.8 87.14 217.62 86.39 217.05 84.43 216.5 84.42 216.4 84.19 215.91 84.09 215.77 83.82 215.64 83.12 215.46 82.94 215.38 82.67 215.03 82.41 214.57 82.24 214.04 82.14 213.43 81.5 212.34 80.87 211.95 78.68 211.89 77.33 211.59 76.81 211.55 76.22 211.73 75.95 212.07 75.68 212.19 75.06 211.72 74.58 210.88 73.47 208.24 73.13 207.68 72.58 208.07 72.75 208.96 73.25 209.88 73.7 210.4 73.7 210.75 72.8 210.37 71.98 209.52 71.6 208.48 72.2 206.96 71.75 205.93 71.79 205.38 72.12 205.02 73.7 204.23 72.03 204.1 72.02 202.91 73.28 200.36 72.12 200.86 70.57 201.79 69.65 202.68 70.44 203.08 70.99 209.25 70.33 208.4 68.94 206.97 68.3 206.14 68.04 205.13 67.98 204.01 67.6 203.17 66.38 203.08 66.67 202.37 66.86 201.47 66.76 200.69 66.19 200.36 65.88 200.73 64.97 202.51 64.46 203.08 64.26 201.76 64.52 200.1 65.62 196.91 64.08 198.06 65.01 196.14 65.23 195.37 64.85 195.52 63.7 195.75 64.31 194.55 64.15 194.09 63.46 194.37 62.55 195.37 62.13 194.96 61.5 195.25 59.06 195.37 58 196.07 57.49 196.03 57.53 194.96 57.14 194.96 56.72 195.52 56.1 196.07 55.34 196.45 54.45 196.49 54.73 196.13 55.23 194.96 54.83 194.94 54.04 195 53.65 194.96 53.58 195.02 53.11 195.31 52.89 195.37 52.72 195.25 52.33 194.71 52.12 194.6 51.38 194.81 49.94 195.36 49.06 195.37 49.06 194.96 49.4 194.55 49.26 194.33 48.77 194.24 48.09 194.22 47.45 194.11 46.6 193.61 45.99 193.45 44.86 193.5 42.14 194.14 41 194.6 43.02 195.6 43.69 195.75 42.67 197.01 42.3 197.74 42.15 198.65 42.25 199.59 42.92 201.92 42.78 203.3 42.24 203.96 41.65 203.85 40.27 195.88 39.92 195.2 37.57 192.41 37.37 191.44 37.9 190.35 38.43 189.82 40.04 188.63 40.3 188.1 40.5 187.39 40.75 186.75 41.88 186.03 42.59 184.97 44.64 180.6 46.16 178.19 48.08 176.59 50.2 176.93 49.02 177.43 48.16 178.03 46.54 179.79 46.31 180.25 45.79 181.88 45.64 182.06 44.45 183.03 44.77 184.44 46.85 184.66 53 183.71 56.55 183.83 57.68 184.13 58.35 184.85 58.84 185.72 59.45 186.48 60.23 186.93 61.18 187.17 63.5 187.28 64.48 187.66 65 187.66 65.23 187.09 65.19 186.52 65.01 186.12 64.67 185.86 64.08 185.75 64.81 184.32 65.5 184.51 66.25 185.41 67.15 186.13 68.22 186.11 69.85 184.88 70.99 184.6 71.5 184.76 72.8 185.33 73.28 185.37 73.93 184.85 73.76 184.28 73.16 183.77 72.55 183.41 71.3 183.02 68.93 182.58 67.92 181.88 68.83 181.64 69.35 181.24 69.4 180.63 68.89 179.79 68.14 179.2 67.39 179.08 64.69 179.31 64.5 178.96 64.46 177.85 64.29 177.28 63.84 176.61 63.23 176.03 62.55 175.71 62.9 177.63 62.9 178.43 62.55 178.43 60.5 175.94 59.04 174.82 57.53 174.56 57.73 174.88 58.29 176.13 57.95 175.93 57.06 175.55 56.73 175.36 56.76 176.43 57.81 177.5 57.91 178.43 55.99 177.43 55.77 175.42 56.73 171.11 56.07 171.39 55.37 171.48 54.68 171.39 54.04 171.11 54.04 170.73 55.9 170.01 58.84 166.83 60.63 165.32 60.32 165.03 60.01 164.45 59.83 164.2 60.32 163.98 60.82 163.86 61.94 163.79 62.75 163.59 62.74 163.17 62.39 162.78 62.13 162.67 62.76 161.99 63.63 161.35 64.43 160.6 64.85 159.57 64.55 159.7 64.4 159.74 64.27 159.79 64.08 159.95 63.12 159.21 62.28 159.06 60.21 159.19 59.26 158.93 57.97 158.02 57.14 157.62 56.15 157.4 55.17 157.39 54.22 157.59 53.3 158.03 50.94 160.09 50.01 160.37 49.75 160.49 48.87 161.02 48.46 161.14 48.02 161.02 47.02 160.49 46.54 160.37 45.93 160.14 42.26 157.91 41.3 158.2 40.47 158.83 39.65 159.19 35.59 159.57 35.91 159.06 36.24 158.66 36.65 158.34 37.17 158.03 33.28 159 31.17 159.21 29.42 158.8 28.51 157.14 27.73 156.55 26.74 157.27 26.73 157.86 27.14 158.61 28.09 159.76 28.29 160.43 28.66 163.61 28.99 164.08 30.59 165.73 31.17 166.09 33.29 169.15 35.04 170.42 35.59 170.73 35.59 171.11 32.91 169.96 33.67 170.39 35.22 171.91 34.83 172.26 33.04 170.89 32.3 170.11 30.69 167.15 29.92 166.39 27.93 165.72 27.26 164.81 26.88 163.64 26.56 161.46 26.08 160.86 20.67 157.52 18.73 155.97 17.89 154.76 18.32 152.32 18.75 150.97 19.21 150.14 19.57 149.13 19 148.08 17.47 146.5 18.17 146 17.92 145.45 16.73 144.54 15.68 142.39 15.85 140.22 17.79 130.55 18.56 128.69 19.8 126.84 23.18 123.25 24.9 120.8 25.18 118.78 24.68 118.45 23.21 118.18 22.9 117.81 23.03 117.29 23.46 116.26 23.44 116.06 23.18 115.89 23.89 115.55 24.81 115.28 25.18 115.33 25.3 114.8 25.22 114.2 25.01 113.67 24.83 113.38 26.15 109.16 28.28 104.91 28.73 102.97 27.92 99.08 27.89 96.82 28.5 97.16 29.86 97.74 30.4 98.18 30.65 98.83 30.51 99.48 30.27 100.11 30.23 100.69 30.81 101.77 33.26 104.14 33.7 105.09 34.37 107.23 34.83 108.01 36.63 108.96 36.77 109.16 38.19 109.17 38.84 109.07 39.43 108.78 38.55 109.56 37.18 109.94 36.22 110.37 36.56 111.27 36.96 111.59 37.86 112.14 38.32 112.61 38.44 113.12 38.44 113.76 38.62 114.3 39.26 114.53 41.75 114.69 42.82 114.61 44.07 114.18 46.61 112.13 47.52 111.88 46.59 113.38 46.34 114.24 46.96 114.58 51.16 114.18 51.65 113.91 51.74 113.29 51.74 112.58 51.93 112.05 52.76 111.16 53.36 110.86 54.04 111.08 54.1 111.4 53.7 112.44 53.65 112.96 54.14 114.05 54.98 114.93 56.08 115.51 57.33 115.72 57.69 115.84 58.49 116.38 59.06 116.48 59.72 116.37 60.21 116.16 60.98 115.72 63.01 114.99 63.77 114.32 64.08 113.17 63.98 110.77 64.19 109.86 65.58 107.69 65.88 107.59 66.59 107.59 67.11 107.69 67.67 107.95 68.11 108.27 68.3 108.56 68.47 108.79 69.25 109.02 69.48 109.16 69.51 109.52 69.35 109.86 69.14 110.15 69.07 110.31 69.38 111.49 69.67 111.92 70.25 112.23 69.77 113.03 69.47 113.41 69.07 113.76 69.71 114.73 70.58 117 71.4 118.01 71.97 118.28 72.53 118.36 72.99 118.55 73.28 119.13 73.14 119.53 72.35 120.75 72.17 121.25 73.08 122.63 75.24 122.63 77.79 122.24 81.03 122.6 81.96 121.94 82.84 121.09 85.25 120.05 85.81 119.93 86.38 120.02 87.93 120.67 89.35 120.82 90.46 120.54 91.51 120.14 93.26 119.79 93.7 119.45 93.99 119.01 94.1 118.57 93.78 118.51 92.3 117.98 91.79 117.59 95.04 117.7 96.69 117.5 98.36 116.78 101.79 116.86 101.95 117.01 101.69 117.36 101.14 118.71 100.97 119 101.2 119.18 102.94 119.77 111.42 119.93 110.31 119.42 109.12 119.13 109.82 118.4 112.05 117.96 112.92 117.25 107.34 117.32 106.62 117.24 106.19 116.73 106.05 115.52 105.82 114.52 104.76 112.98 104.39 111.51 103.85 110.59 103.71 110.12 103.82 109.74 104.02 109.47 104.17 109.19 104.1 108.78 103.75 108.67 103.19 108.73 102.69 108.62 102.56 108.01 102.79 107.75 103.21 107.7 103.7 107.7 104.1 107.59 105.54 106.32 106.3 105.88 107.38 105.71 109 106.26 112.4 108.35 113.34 108.36 114.91 109.13 115.08 109.94 114.38 110.83 113.34 111.88 115.42 112.28 121.92 111.33 123.82 110.79 124.69 110.66 125.68 109.35 128.04 108.39 128.57 108.06 130.68 105.38 131.21 104.5 131.44 103.57 131.22 102.64 130.69 101.85 129.3 100.48 127.51 98.28 126.83 97.97 126.83 97.62 128.09 97.77 129.43 98.27 131.85 99.54 131.49 99.05 130.37 98.35 129.89 97.97 129.41 97.4 129.19 97.08 129.1 96.82 129.18 96.44 129.43 96.1 129.71 95.93 129.89 96.09 128.97 95.13 127.43 94.79 125.78 94.61 124.49 94.13 124.41 92.47 122.47 90.8 111.24 84.25 106.26 82.6 105.3 82.09 103.24 80.49 100.62 79.37 99.46 78.73 99.2 78.43 98.58 77.49 97.33 76.09 96.88 75.78 94.85 75.46 93.77 74.94 92.9 74.19 92.18 73.36 91.07 71.58 90.45 69.62 90.2 67.41 90.18 62.56 89.86 60.52 89.23 58.65 88.31 56.84 85.64 53.39 85.2 52.39 84.95 51.94 84.35 51.76 83.71 51.65 83.29 51.43 83.06 50.75 83.22 50.23 83.52 49.73 83.7 49.13 83.66 48.77 83.36 47.65 83.29 47 83.96 45.69 84.09 45.05 84.05 44.12 83.88 43 83.52 41.9 82.94 41.01 81.2 39.72 78.57 38.45 75.71 37.79 73.28 38.36 70.88 37.35 53.65 39.51 50.36 40.82 49.25 41.01 44.92 40.86 41.78 39.61 39.43 40.38 37.33 41.81 35.98 42.96 30.35 46.32 29.05 47.94 22.56 58.64 21.58 59.77 20.76 60.25 20.34 60.85 19.88 62.21 19.62 63.66 19.8 64.5 20.49 64.36 22.23 62.63 23.08 62.2 25.87 62.4 27.18 62.86 27.89 63.73 27.83 64.49 26.96 65.64 26.74 66.24 26.81 66.81 27.07 67.91 27.13 68.55 26.91 69.81 23.19 77.03 22.9 78.17 22.23 79.77 22.11 80.3 22.22 80.85 22.9 82.25 23.44 84.59 23.82 88.11 24.23 89.04 27.19 93.73 27.51 94.71 27.21 95.87 26.02 97.53 25.97 98.77 25.59 98.77 25.28 98.23 24.38 97.64 24.06 97.24 23.97 96.62 24.41 94.9 24.42 93.6 24.22 92.43 23.83 91.35 23.25 90.3 22.99 90 22.29 89.37 22.11 89.15 21.97 88.48 22.12 87.41 22.11 86.85 20.86 83.56 20.76 83.01 20.06 82.53 19.16 80.39 18.28 79.91 17.53 79.8 17.05 79.46 16.81 78.91 16.73 78.17 16.62 77.65 16.31 77.32 15.38 76.64 14.74 76.31 13.26 76.14 12.71 75.87 10.77 73.95 9.78 73.37 8.73 73.03 7.99 72.43 7.88 71.06 8.07 70.92 9.23 69.33 9.43 68.87 9.48 68.23 9.42 67 9.51 66.6 9.85 66.01 9.87 65.65 9.7 65.33 9.43 65.12 9.16 64.98 9.04 64.89 8.57 63.76 8.27 63.31 7.88 62.97 7.47 62.87 6.56 62.96 6.16 62.78 5.62 62.17 5.31 61.9 4.43 61.61 3.58 60.81 3.08 60.63 1.7 60.33 1 59.54 1 59.54 3.31 57.77 11.88 51.38 19.35 45.8 19.37 45.8 19.37 45.79 31.39 38.33 40.17 36.01 43.35 34.6 55.74 30.94 59.45 30.35 69.34 29.01 77.94 27.85 91.4 26.04 95.64 26.48 99.72 27.57 108.43 31.91 117.9 36.6 123.55 39.42 130.21 42.73 139.69 49.25 141.03 50.54 141.59 51.64 141.57 52.59 141.34 53.57 141.26 54.78 141.56 55.91 142.14 56.92 147.99 62.85 150.53 65.42 154.18 70.29 157.74 75.05 159.47 76.63 161.43 77.93 164.95 79.75 165.84 80.51 166.52 81.46 168.09 84.31 169.04 85.27 170.2 85.94 171.78 86.62 173.52 87.06 180.61 86.75 183.92 85.79 189.13 85.22 194.15 83.38 196.03 83.26 199.87 83.53 Z" fill-rule="evenodd" id="TKM-351" data-name="Balkan"/>
<path d="M 454.79 186.47 457.19 186.64 483.16 185.07 482.83 193.88 482.16 194.78 481.61 195.89 478.02 196.54 470.8 198.24 469 200.04 465.45 215.39 465.12 216.31 464.56 217.31 463.58 217.71 460.09 218.14 459.1 218.45 458.62 219.17 458.34 220.04 457.16 225.81 456.86 226.75 456.35 227.65 455.47 227.93 454.52 227.99 451.55 227.75 458.49 250.58 459.61 253.14 473.69 264.69 475.93 267.28 480.46 274.46 480.92 275.69 480.32 276.2 479.37 276.51 477.03 276.75 476.11 276.95 475.68 277.29 475.82 278.04 478.59 284.33 479.05 285.98 478.46 286.61 477.52 286.93 476.32 286.98 475.78 288.63 475.88 291.54 479.9 304.29 480.16 304.46 480.48 304.59 481.26 304.73 481.92 304.76 482.98 304.71 484.25 304.78 485.36 304.62 490.35 304.87 491.18 305 491.54 305.1 491.88 305.26 492.18 305.46 492.72 306.03 495.55 310.12 495.74 310.19 495.98 310.11 496.53 309.82 497.3 309.52 498.97 308.99 499.33 308.92 500.99 308.86 503.46 309.32 504.39 309.66 504.67 309.86 504.94 310.09 505.19 310.44 505.35 310.74 505.48 311.04 505.59 311.68 505.57 312.39 505.52 312.75 505.32 313.37 504.88 314.25 504.37 315.02 503.64 315.8 503.33 316.03 501.88 316.77 500.5 317.12 499.73 317.22 498.89 317.24 498.02 317.16 497.23 317 496.88 316.89 496.26 316.61 495.76 316.25 495.13 315.65 494.85 315.27 494.83 312.49 494.46 311.25 493.83 309.96 492.53 307.99 491.74 307.08 490.64 306.25 490.24 306.06 489.82 305.92 487.33 305.55 486.51 305.57 485.35 305.75 482.8 305.84 482.39 305.89 482.03 306.05 482.15 306.42 492.57 320 494.58 322.61 507.62 340.07 510.3 345.12 510.47 361.53 510.65 378.34 511.05 381.22 511.7 381.49 512.3 381.81 514.81 381.95 515.23 382.35 515.41 385.11 515.25 385.39 515.07 385.54 514.82 385.68 514.35 386.03 514.08 386.16 513.77 386.24 513.26 386.55 513.03 386.74 512.76 386.9 512.45 387.01 511.73 387.15 509.97 387.12 508.88 387.31 508.5 387.51 508.14 387.82 507.73 388.49 507.68 388.9 507.73 389.24 508.64 390.74 508.98 391.17 509.82 391.99 510.6 392.56 512.81 394.55 513.7 395.01 513.97 395.21 514.23 395.46 514.18 395.7 514.03 395.9 512.84 396.83 512.42 397.26 512.28 397.54 512.17 397.84 511.73 402.01 511.55 402.79 511.33 403.31 509.58 404.94 509.1 405.29 507.18 406.33 506.65 406.72 506.02 407.43 505.46 407.92 505.45 407.93 505.08 407.8 504.44 407.71 503.99 407.5 503.63 407.17 503.26 406.73 503.24 406.5 503.46 405.9 503.44 405.65 502.55 405.01 502.43 404.98 502.34 404.99 501.65 404.49 502.13 403.86 502.18 403.71 501.65 403.33 501.24 403.16 500.76 403.16 497.82 403.62 497.05 403.85 495.69 402.13 494.92 400.86 494.78 399.36 495 399.02 495.76 398.41 495.93 398.02 495.89 397.02 495.93 396.71 496.3 395.37 496.29 394.82 495.93 394.41 496.29 393.15 496.26 392.24 496.05 391.39 495.8 389.38 495.44 388.39 494.94 387.44 494.36 386.67 493.46 385.77 492.48 385.04 491.34 384.54 489.97 384.37 489.2 384.08 489.85 383.42 490.99 382.66 491.68 382.06 491.71 381.54 491.51 380.41 491.68 379.73 492.03 379.46 492.56 379.29 493.03 379.01 493.25 378.41 493.27 377.89 493.37 377.34 493.54 376.84 493.82 376.45 494.42 375.83 494.53 375.48 494.43 375.19 494.29 373.5 493.45 370.01 492.63 368.91 492.44 368.37 492.42 367.06 492.32 366.48 492.09 365.89 491.86 365.56 491.51 365.22 491.07 364.93 490.53 364.74 490.68 364.35 490.76 364.19 490.94 363.97 490.14 362.36 490.47 359.61 491.68 355.09 491.34 354.24 491.25 353.57 491.49 352.97 491.84 352.55 492.14 352.01 492.36 351.38 492.44 350.69 492.35 349.98 492.14 349.46 491.68 348.6 491.22 346.69 488.94 346.44 486.14 346.04 480.38 346.13 473.73 346.22 461.75 346.4 453.89 346.51 444.96 346.64 443.11 345.81 441.95 344.18 440.32 340.73 439.14 339.19 433.19 333.37 430.59 330.19 428.48 326.6 426.82 324.81 424.7 324.08 420.1 323.42 418.04 322.45 414.35 319.96 406.26 317.86 405.67 317.82 405.14 318.05 404.48 318.88 404.09 319.21 403.55 319.3 402.8 318.83 402.41 317.9 402.14 316.84 401.74 315.96 400.8 315.15 399.97 315.04 398.19 315.6 397.72 315.58 397.25 315.39 396.8 315.1 396.43 314.8 395.51 314.6 395.34 314.2 395.51 313.74 395.58 313.36 395.66 313.21 395.87 313.02 395.94 312.74 395.61 312.37 394.55 311.42 391.03 309.09 390.38 308.32 389.27 304.45 389.14 303.27 389.32 302.65 389.67 302.1 389.91 301.59 389.75 301.13 389.41 300.51 389.59 299.27 389.32 298.53 388.24 297.33 387.11 296.48 385.82 296.2 382.67 297.35 381.46 297.26 373.97 292.97 372.14 291.46 371.52 291.19 369.88 290.99 369.14 290.8 368.35 290.34 366.13 289.53 361.77 288.74 358.4 287.25 358.09 287.64 357.96 288.47 357.21 289.21 356.61 289.37 356.04 289.41 354.84 289.23 354.21 289.23 353.8 289.49 353.45 289.82 352.96 290.06 351.7 290.16 350.43 290.01 348 289.22 345.18 287.24 344.26 286.86 343.16 286.93 342.29 287.43 341.62 288.22 341.1 289.16 340.35 290.09 339.37 290.46 334.29 290.86 333.51 290.69 332.03 289.85 331.32 289.58 326.94 289.06 325.98 288.77 325.02 288.14 324.75 287.5 324.75 286.73 324.6 285.7 324.4 285.28 323.52 283.97 323.47 283.53 323.59 283.13 323.58 282.74 323.16 282.36 322.21 281.99 321.3 281.83 319.41 281.7 315.71 281.01 306.9 277.66 304.96 277.25 304.05 277.3 303.1 277.48 302.18 277.53 301.33 277.25 301 276.91 300.49 276.06 300.1 275.75 299.63 275.66 298.72 275.83 298.52 275.81 298.24 275.79 297.52 275.43 296.82 274.94 296.06 274.58 295.22 274.56 294.38 274.74 291.64 274.78 288.77 274.13 287.83 274.03 286.88 274.15 286 274.36 285.12 274.46 277.04 271.92 275.61 270.43 276.72 267.46 276.86 266.53 276.58 265.54 275.38 264.19 274.73 262.51 272.89 260.95 272.24 260.16 271.22 258.22 269.93 256.48 269.69 255.99 269.66 255.57 269.51 255.21 268.89 254.89 267.68 254.57 267.07 254.51 266.45 254.57 265.48 254.94 264.99 255.36 264.97 255.35 260.18 251.63 254.77 248.73 253.93 248.08 252.74 246.63 252.5 246.18 251.82 244.33 251.47 243.98 251.04 243.86 250.16 243.95 248.53 244.46 247.99 244.56 247.44 244.54 246.7 244.23 245.97 244.01 245.21 243.9 244.11 243.98 241.25 244.66 240.59 244.64 239.69 244.4 236.52 243.19 235.61 242.97 235.03 242.92 234.69 242.95 234.39 242.93 234.07 242.79 233.78 242.59 233.43 242.21 233.23 241.82 233.15 240.95 233.68 235.76 233.8 235.29 234.02 234.85 234.41 234.48 234.86 234.28 235.83 233.96 236.18 233.71 236.36 233.41 236.39 232.84 236.18 231.66 236.29 231.2 236.53 230.64 238.11 228.54 238.35 228.14 238.5 227.68 238.58 226.88 238.84 225.52 255.96 182.1 256.36 181.47 256.73 181.23 258.08 180.62 261.66 179.59 262.29 179.23 262.73 178.87 263.03 178.45 262.92 177.83 258.2 163.95 257.49 160.6 257.33 160.17 256.66 159.18 256.46 158.74 256.33 158.32 256.32 157.82 256.44 157.42 256.79 156.98 259.78 155.26 266.52 152.58 266.87 153.27 267.09 153.5 267.32 153.67 267.65 153.82 269.74 154.2 270.08 154.35 270.38 154.51 270.85 154.9 271.19 155.29 271.41 155.48 271.7 155.65 272.02 155.81 272.41 155.93 272.96 155.97 276.48 155.62 276.87 155.52 277.29 155.32 279.38 153.66 280.65 153.07 284.18 152.02 306.93 152.32 313.54 151.64 327.22 148.55 333.28 149.04 334.35 148.92 334.61 148.66 334.72 148.36 334.54 146.92 334.56 146.62 334.66 146.32 334.85 146.07 335.08 145.89 335.35 145.79 335.8 145.74 340.24 145.76 343.98 146.52 346.49 147.35 368.87 151.6 371.65 154.52 372.39 155.03 375.74 156.83 379.95 157.53 394.07 157.72 424.7 157.74 425.42 157.83 425.72 158.06 425.85 158.71 425.85 176.74 425.98 177.43 426.38 177.95 429.65 180.9 429.98 181.06 430.44 181.13 431.54 180.95 432.24 180.73 432.84 180.47 433.12 180.3 433.37 180.09 434.06 179.37 434.3 179.17 434.58 179 435.13 178.96 435.89 179.01 437.45 179.31 438.21 179.35 438.76 179.3 439.94 178.75 440.26 178.64 440.67 178.68 441.16 178.89 441.81 179.46 442.11 179.83 442.31 180.17 442.48 180.69 442.84 182.65 443.29 183.98 443.43 184.22 443.65 184.48 443.96 184.76 444.51 185.12 445.09 185.6 445.22 185.81 445.4 186.42 445.6 186.94 445.77 187.18 447.56 187.33 454.79 186.47 Z" id="TKM-352" data-name="Ahal"/>
<path d="M 433.67 52.5 434.31 53.23 435.15 53.88 437.81 55.06 438.6 55.57 439.28 56.22 439.83 56.99 439.93 57.79 439.28 58.52 438.4 58.61 437.3 58.24 435.36 57.32 433.25 56.82 431.49 56.94 429.95 57.73 428.5 59.28 429.01 61.24 430.74 63.74 434.48 67.72 434.99 68.75 434.22 69.46 431.9 70.33 430.94 70.97 430.21 71.75 429.77 72.71 429.06 77.22 429.45 78.55 431.03 79.72 437.18 82.11 442.58 84.2 445.97 86.08 449.02 88.39 450.64 89.27 452.59 89.69 455.96 89.63 462.74 87.91 474.06 87.39 477.99 88.11 480.67 90.21 481.04 89.98 481.41 89.67 482.15 88.71 482.15 89.8 481.89 99.49 481.59 100.36 480.82 101.46 440.1 101.51 439.64 101.57 439.95 137.92 440.05 138.55 440.35 138.91 441.1 139.05 452.24 139.31 452.99 139.53 453.25 140.11 453.36 140.82 453.7 157.76 454.09 175.77 454.31 186.08 454.79 186.47 447.56 187.33 445.77 187.18 445.6 186.94 445.4 186.42 445.22 185.81 445.09 185.6 444.51 185.12 443.96 184.76 443.65 184.48 443.43 184.22 443.29 183.98 442.84 182.65 442.48 180.69 442.31 180.17 442.11 179.83 441.81 179.46 441.16 178.89 440.67 178.68 440.26 178.64 439.94 178.75 438.76 179.3 438.21 179.35 437.45 179.31 435.89 179.01 435.13 178.96 434.58 179 434.3 179.17 434.06 179.37 433.37 180.09 433.12 180.3 432.84 180.47 432.24 180.73 431.54 180.95 430.44 181.13 429.98 181.06 429.65 180.9 426.38 177.95 425.98 177.43 425.85 176.74 425.85 158.71 425.72 158.06 425.42 157.83 424.7 157.74 394.07 157.72 379.95 157.53 375.74 156.83 372.39 155.03 371.65 154.52 368.87 151.6 346.49 147.35 343.98 146.52 340.24 145.76 335.8 145.74 335.35 145.79 335.08 145.89 334.85 146.07 334.66 146.32 334.56 146.62 334.54 146.92 334.72 148.36 334.61 148.66 334.35 148.92 333.28 149.04 327.22 148.55 313.54 151.64 306.93 152.32 284.18 152.02 280.65 153.07 279.38 153.66 277.29 155.32 276.87 155.52 276.48 155.62 272.96 155.97 272.41 155.93 272.02 155.81 271.7 155.65 271.41 155.48 271.19 155.29 270.85 154.9 270.38 154.51 270.08 154.35 269.74 154.2 267.65 153.82 267.32 153.67 267.09 153.5 266.87 153.27 266.52 152.58 265.6 150.28 265.33 149.94 264.94 149.54 263.31 148.84 261.68 147.9 264.01 142.48 264.49 140.68 261.99 135.61 259.62 128.34 258.87 126.67 255.64 123.47 253.96 122.36 252.6 121.09 252.21 120.53 251.98 120.11 251.3 118.19 244.78 105.5 244.57 105.28 242.82 103.9 241.12 101.87 240.42 101.28 240.01 101.05 238.86 100.62 238.43 100.38 237.89 99.91 237.69 99.55 237.66 99.17 237.77 98.83 238.07 98.14 238.16 97.76 238.14 97.3 237.85 97.01 237.63 96.89 236.89 96.88 236.4 96.79 235.89 96.59 235.32 96.2 234.96 95.76 234.51 95 233.04 91.22 231.53 88.16 231.22 87.06 231.07 84.84 231.06 84.81 233.09 84.89 245.64 85.41 250.95 86.25 257.82 87.33 258.9 86.85 260.63 84.48 261.74 83.52 264.36 82.53 265.55 81.88 266.19 81.32 266.31 80.94 265.88 80.69 263.06 80.17 262.2 79.85 261.41 79.42 260.18 78.37 259.1 76.99 258.34 75.43 258.09 73.88 258.13 71.89 257.92 70.27 257.28 68.8 256.03 67.26 255.02 65.25 255.09 63.48 255.53 61.67 255.67 59.56 254.43 55.13 254.44 52.96 256.03 51.33 261.42 49.44 263.73 48.13 265.83 45.8 265.83 45.79 268.92 41.47 273.43 38.17 278.71 36.25 284.11 36.08 292.05 37.11 294.67 36.73 297.77 35.59 298.86 35.4 302.69 35.53 303.77 35.35 305.01 34.69 304.84 34.15 304.12 33.55 303.71 32.67 304.17 31.93 306.32 31.42 307.12 30.75 309.41 26.85 309.9 25.54 309.8 24.67 308.6 22.75 308.28 21.26 309.23 20.66 310.76 20.16 312.19 18.94 312.68 18.29 313.28 17.72 314.31 17.37 315.56 17.2 316.83 17.23 317.9 17.51 318.71 18.1 319.99 19.52 320.89 19.91 321.8 19.84 323.84 19.19 324.86 19.07 326.09 19.23 331.67 21.18 333.57 22.22 335.01 23.65 335.59 25.65 335.4 26.68 335.1 27.64 335.08 28.51 335.74 29.27 336.66 29.44 340.27 29.04 340.96 28.72 341.16 28.27 340.91 27.77 340.27 27.33 338 25.35 333.84 20.33 332.34 17.71 330.61 15.74 328.63 14.6 321.59 12.16 320.54 11.46 320.22 10.38 320.75 9.56 321.77 8.99 323.89 8.3 326.86 6.96 327.92 6.71 329.29 6.74 335.35 8.56 338.22 9.05 341.11 9.18 343.43 8.68 344.62 7.04 345.39 2.27 346.43 1 347.8 1.58 359.88 12.09 363.64 14.67 367.59 15.99 370.09 16.32 371.74 16.25 373.36 15.92 374.99 15.33 376.43 15.22 377.78 15.85 381.35 18.61 382.14 19.55 382.68 20.63 383.35 24.92 384.09 25.92 385.7 26.57 388.56 26.8 389.88 27.14 392.12 28.93 393.53 29.33 396.43 29.39 408.3 28.04 413.18 28.37 415.68 28.14 418.23 28.35 420 29.79 421.56 31.6 423.53 32.93 426.02 33.66 427.32 34.23 428.01 34.96 427.82 35.91 426.89 36.41 425.74 36.76 424.82 37.26 424.3 39.86 425.41 42.62 425.58 44.84 422.25 45.81 422.23 45.81 422.21 45.81 422.2 45.8 421.2 46.02 420.57 46.57 420.48 47.31 421.11 48.11 421.91 48.38 424.82 48.3 430.72 49.97 432.38 51.03 433.67 52.5 Z" id="TKM-353" data-name="Tashauz"/>
<path d="M 548.58 129.38 548.84 129.74 550.06 130.44 552.72 131.05 557.37 133.09 557.91 133.59 558.09 135.97 558.43 137 559.88 139.22 560.34 140.24 560.55 141.36 560.59 142.85 560.82 143.99 562.54 146.86 562.76 148.06 562.45 149.07 561.98 150.09 561.75 151.3 561.9 152.59 562.89 155.75 563.5 157.25 567.53 161.15 568.14 161.42 571.38 163.93 577.96 167.55 585.61 171.78 594.74 176.8 613.25 187 621.06 191.3 624.62 193.93 630.66 200.48 634.07 203.21 640.29 206.68 648.14 211.05 657.17 216.08 658.86 216.77 660.52 217.01 661.97 216.77 666.32 215.07 668.01 214.92 669.35 215.56 671.04 217.28 674.23 220.51 686.06 228.3 693.27 231.57 701.54 233.85 705.31 235.71 712.79 241.05 718.1 244.84 725.67 248.88 731.25 251.85 740.5 256.76 744.29 257.76 748.14 257.51 749.59 256.87 752.3 255.15 753.91 254.63 755.8 254.77 761.46 256.92 765.17 257.39 766.75 258.05 770.23 260.25 773.87 261.07 775.71 261.74 777.36 262.98 779.97 265.58 785.66 267.69 787.41 268.11 791.71 268.13 793.85 268.59 795.89 269.37 797.78 270.43 797.79 270.44 797.8 270.44 798.48 271.97 799 273.14 796.94 276.32 793.83 279.53 791.87 282.3 791.65 284.5 792.1 288.91 791.89 291.15 790.66 294.93 790.45 296.93 791.21 298.53 792.32 299.28 793.21 300.05 793.43 300.94 792.54 302.1 791.49 302.96 790.64 303.92 790.52 304.95 791.91 305.81 790.97 306.29 789.98 306.98 789.12 307.74 788.65 308.04 788.06 308.12 787.37 307.85 786.52 306.85 785.95 306.63 784.61 306.76 780.74 307.78 779.27 307.66 778.14 306.98 777.21 306.22 776.82 306.06 776.31 305.86 775.79 305.74 775 305.21 774.4 305.09 772.54 305.17 771.89 305.09 770.76 304.64 769.78 303.87 768.23 302.2 767.2 301.5 754.6 297.73 753.52 297.1 753.13 296.74 752.68 296.2 751.74 294.51 751.3 294.29 750.18 294.09 749.33 293.78 749.19 294.58 748.84 296.05 748.09 296.55 745.78 296.53 744.81 296.7 744.13 297.03 743.56 297.6 742.98 298.51 742.98 298.52 742.97 298.52 742.97 298.53 742.27 299.64 741.71 300.83 741.44 302.09 741.89 304.5 741.92 305.74 741.62 306.88 740.9 307.67 739.32 308.96 736.72 311.82 734.73 312.66 733.97 312.67 710.11 313.16 705.95 314.26 695.78 318.65 694.14 319.63 693.09 321.06 692.84 323.25 693.91 327.52 694.14 329.72 693.38 331.62 691.32 334.66 691.29 334.66 678.2 334.71 666.75 334.64 651.15 334.61 637.77 334.62 624.4 334.66 622.8 334.35 622.35 332.85 621.69 306.93 623.91 305.42 624.88 304.59 627.1 301.85 634.68 293.99 634.04 291.53 626.45 284.15 607.08 266.73 603.32 264.95 590.42 260.95 584.64 259.26 579.59 255.78 561.63 240.69 515.56 202.74 504.9 194.18 496.31 187.33 494.37 185.81 483.16 185.07 457.19 186.64 454.79 186.47 454.31 186.08 454.09 175.77 453.7 157.76 453.36 140.82 453.25 140.11 452.99 139.53 452.24 139.31 441.1 139.05 440.35 138.91 440.05 138.55 439.95 137.92 439.64 101.57 440.1 101.51 480.82 101.46 481.59 100.36 481.89 99.49 482.15 89.8 482.15 88.71 482.48 88.28 482.7 88.41 482.87 88.91 483.18 89.42 486.5 88.99 487.5 89.02 493.28 92.12 495.56 92.82 497.71 92.77 499.65 92.03 501.22 90.72 502.29 88.95 503.67 88.36 504.21 86.38 504.97 85.2 506.23 84.73 508.31 84.91 513.77 86 518.66 87.59 531.21 94.58 532.31 95.49 536.43 100.74 536.91 101.67 537.1 102.81 537.25 106.78 537.52 107.6 537.1 108.02 537.72 109.14 539.49 113.85 540.14 116.41 540.58 117.61 541.2 118.35 543.05 119.89 543.69 120.68 544.85 124.13 545.6 125.31 547.69 127.44 548.03 127.96 548.48 129.24 548.58 129.38 Z" id="TKM-359" data-name="Chardzhou"/>
<path d="M 691.32 334.66 685.3 343.53 684.37 345.33 683.65 347.55 683.47 348.7 683.48 349.84 683.75 350.98 684.53 353.13 684.69 354.29 684.43 356.53 683.78 358.6 682.79 360.55 678.38 366.06 677.23 367.17 675.37 368.39 673.48 368.96 669.34 369.74 668.31 370.09 667.45 370.55 666.79 371.23 665.9 373.48 665.35 373.86 664.65 373.73 663.72 373.42 661.4 373.11 659.31 373.43 657.33 374.22 653.62 376.52 652.91 377.24 652.43 378.14 652.44 379.14 652.96 381.79 652.93 382.5 647.59 380.81 646.02 380.53 645.14 380.65 644.21 380.76 642.53 381.19 637.25 383.7 634.99 384.18 628.06 384.52 626.93 384.73 625.88 385.2 625.1 385.85 623.77 387.33 622.94 387.94 618.4 389.67 613.5 390.5 601.27 390.28 600.08 390.49 599.21 391.22 598.97 392.2 599.36 392.91 599.92 393.63 600.17 394.62 600.53 395.35 603.4 397.46 604.19 398.33 604.56 398.58 605.99 399.03 606.28 399.32 606.23 399.71 605.9 400.22 604.34 401.16 600.03 402.31 598.54 403.51 598.44 404.34 598.58 407.21 598.76 407.9 599.69 408.52 599.89 409.11 599.32 410.87 599.08 413 598.74 414.05 597.99 414.69 596.88 414.93 594.55 415.09 593.41 415.31 589.64 416.79 584.55 420.1 584.3 420.2 580.78 421.61 579.31 422.83 578.6 423.63 577.87 424.21 577.03 424.64 572.95 426.08 572.02 426.27 571.52 426.2 569.87 425.63 569.27 425.65 568.71 425.79 568.15 425.82 567.53 425.55 563.84 422.76 562.33 422.83 560.5 424.22 555.03 430.31 554.14 430.69 553.55 430.11 552.5 428.08 552.16 427.23 552.26 424.96 552.18 423.97 551.79 422.98 551.2 422.09 550.37 421.39 547.27 420.27 545.73 419.42 539.97 414.78 538.49 413.94 536.82 413.27 533.54 413.22 526.78 415.15 523.45 415.35 515.87 414.41 512.16 413.19 509.58 410.84 505.93 408.1 505.45 407.93 505.46 407.92 506.02 407.43 506.65 406.72 507.18 406.33 509.1 405.29 509.58 404.94 511.33 403.31 511.55 402.79 511.73 402.01 512.17 397.84 512.28 397.54 512.42 397.26 512.84 396.83 514.03 395.9 514.18 395.7 514.23 395.46 513.97 395.21 513.7 395.01 512.81 394.55 510.6 392.56 509.82 391.99 508.98 391.17 508.64 390.74 507.73 389.24 507.68 388.9 507.73 388.49 508.14 387.82 508.5 387.51 508.88 387.31 509.97 387.12 511.73 387.15 512.45 387.01 512.76 386.9 513.03 386.74 513.26 386.55 513.77 386.24 514.08 386.16 514.35 386.03 514.82 385.68 515.07 385.54 515.25 385.39 515.41 385.11 515.23 382.35 514.81 381.95 512.3 381.81 511.7 381.49 511.05 381.22 510.65 378.34 510.47 361.53 510.3 345.12 507.62 340.07 494.58 322.61 492.57 320 482.15 306.42 482.03 306.05 482.39 305.89 482.8 305.84 485.35 305.75 486.51 305.57 487.33 305.55 489.82 305.92 490.24 306.06 490.64 306.25 491.74 307.08 492.53 307.99 493.83 309.96 494.46 311.25 494.83 312.49 494.85 315.27 495.13 315.65 495.76 316.25 496.26 316.61 496.88 316.89 497.23 317 498.02 317.16 498.89 317.24 499.73 317.22 500.5 317.12 501.88 316.77 503.33 316.03 503.64 315.8 504.37 315.02 504.88 314.25 505.32 313.37 505.52 312.75 505.57 312.39 505.59 311.68 505.48 311.04 505.35 310.74 505.19 310.44 504.94 310.09 504.67 309.86 504.39 309.66 503.46 309.32 500.99 308.86 499.33 308.92 498.97 308.99 497.3 309.52 496.53 309.82 495.98 310.11 495.74 310.19 495.55 310.12 492.72 306.03 492.18 305.46 491.88 305.26 491.54 305.1 491.18 305 490.35 304.87 485.36 304.62 484.25 304.78 482.98 304.71 481.92 304.76 481.26 304.73 480.48 304.59 480.16 304.46 479.9 304.29 475.88 291.54 475.78 288.63 476.32 286.98 477.52 286.93 478.46 286.61 479.05 285.98 478.59 284.33 475.82 278.04 475.68 277.29 476.11 276.95 477.03 276.75 479.37 276.51 480.32 276.2 480.92 275.69 480.46 274.46 475.93 267.28 473.69 264.69 459.61 253.14 458.49 250.58 451.55 227.75 454.52 227.99 455.47 227.93 456.35 227.65 456.86 226.75 457.16 225.81 458.34 220.04 458.62 219.17 459.1 218.45 460.09 218.14 463.58 217.71 464.56 217.31 465.12 216.31 465.45 215.39 469 200.04 470.8 198.24 478.02 196.54 481.61 195.89 482.16 194.78 482.83 193.88 483.16 185.07 494.37 185.81 496.31 187.33 504.9 194.18 515.56 202.74 561.63 240.69 579.59 255.78 584.64 259.26 590.42 260.95 603.32 264.95 607.08 266.73 626.45 284.15 634.04 291.53 634.68 293.99 627.1 301.85 624.88 304.59 623.91 305.42 621.69 306.93 622.35 332.85 622.8 334.35 624.4 334.66 637.77 334.62 651.15 334.61 666.75 334.64 678.2 334.71 691.29 334.66 691.32 334.66 Z" id="TKM-360" data-name="Mary"/>
</g>
</svg>