<?xml version="1.0"?>
<svg xmlns="http://www.w3.org/2000/svg" version="1.2" baseProfile="tiny" width="800" height="727" viewBox="0 0 800 727" stroke-linecap="round" stroke-linejoin="round">
<g id="ne_10m_admin_1_states_provinces">
<path d="M 587.8 397.39 589.35 401.74 586.92 405.45 582.36 407.31 581.25 409.71 582.05 412.67 586.56 415.37 591.74 419.22 594 424.93 594.29 426.81 581.56 429.67 576.29 432.73 573.06 435.65 566.73 439.41 566.02 443.71 567.84 448.18 565.67 451.85 559.65 454.86 558.94 460 560.71 467.44 558.23 477.31 558.18 485.72 554.69 490.1 547.74 495.55 545.83 502.85 546.94 508.96 549.37 512.42 554.38 517.2 555.4 520.92 552.25 521.27 552.21 521.27 547.96 520.56 544.46 520.74 537.51 525.79 532.73 521.63 526.57 514.98 520.69 516.31 515.28 520.74 504.62 515.78 496.96 519.15 491.78 524.46 485.27 526.58 470.75 525.79 469.33 529.42 468.27 534.82 466.14 540.75 466.59 546.02 466.5 553.15 461.89 569.09 461.76 574.44 464.02 580.07 464.33 586.26 457.7 601.68 455.61 600.84 454.3 600.91 452.8 601.42 451.06 601.47 440.43 593.79 430.56 580.86 440.95 592.45 439.73 586.94 438.01 583.92 438.01 583.91 436.63 581.51 432.31 576.96 424.95 570.68 422.13 567.49 420.8 563.94 422.56 560.48 423.49 557.39 422.25 553.05 420.07 548.77 416.08 543.02 412.31 535.37 411.48 531.97 411.56 529.78 412.78 527.07 413.06 525.26 412.61 524.3 411.56 523.59 410.48 522.61 410.01 520.87 407.71 517.19 407.09 515.74 405.36 505.51 410.38 502.74 410.49 503.08 413.72 509.58 417.62 511.4 430.37 513.08 437.1 512.42 443.96 513.17 447.37 512.06 450.25 510.11 455.52 508.17 460.65 504.85 462.6 500.73 465.04 496.79 469.33 491.52 474.33 486.69 479.6 482.67 485.67 477.22 490.94 470.98 499.08 458.23 507.58 446.89 509.44 441.95 509.44 441.94 508.64 436.98 507.45 433.57 507.58 429.89 510.5 427.24 516.08 427.77 520.86 427.33 530.87 421.84 534.5 417.85 541.01 413.29 547.25 410.06 550.7 406.3 553.62 401.2 560.49 396.16 575.56 389.1 579.13 389.87 583.86 391.55 587.27 395.89 587.8 397.39 Z" id="TWN-1156" data-name="Kaohsiung City"/>
<path d="M 552.25 521.27 555.04 526.23 555.66 529.86 560 530.83 564.52 533.58 562.26 543.94 562.13 547.83 560.49 551.55 552.56 554.65 548.67 556.69 542.42 557.93 538.04 561.29 536.09 566.25 533.08 571.21 530.6 576.83 529.94 587.9 530.96 592.82 532.6 597.38 533.44 602.73 533.44 606.76 535.56 610.52 539.37 614.73 537.33 617.61 532.99 620 531.31 622.92 530.87 626.37 533.08 629.3 535.87 630.54 538.4 633.9 538.31 638.19 538.75 642.75 541.41 647.23 545.12 650.9 553.45 654.44 557.11 654.19 557.8 693.15 556.53 698.68 554.46 703.19 551.72 705.05 548.48 707.83 548.58 714.16 549.73 721.06 549.47 725.53 545.78 720.39 540.27 716.5 533.85 713.82 527.41 712.36 527.14 717.35 525.26 719.14 522.49 718.49 519.49 716.15 519.32 714.38 520.35 709.09 515.85 702.13 515.48 700.28 515.54 698.76 515.85 696.28 515.85 688.17 516.32 685.79 518.31 683.13 518.76 680.85 502.55 641.9 501.21 639.78 496.69 634.6 493.14 627.17 491.5 625.03 484.88 620.19 482.23 618.78 481.34 618.51 480.45 617.94 479.66 615.13 479.14 614.13 475.57 611.98 467.41 608.38 463.72 606.02 459.81 602.86 458 601.8 457.7 601.68 464.33 586.26 464.02 580.07 461.76 574.44 461.89 569.09 466.5 553.15 466.59 546.02 466.14 540.75 468.27 534.82 469.33 529.42 470.75 525.79 485.27 526.58 491.78 524.46 496.96 519.15 504.62 515.78 515.28 520.74 520.69 516.31 526.57 514.98 532.73 521.63 537.51 525.79 544.46 520.74 547.96 520.56 552.21 521.27 552.25 521.27 Z" id="TWN-1158" data-name="Pingtung"/>
<path d="M 509.44 441.95 507.58 446.89 499.08 458.23 490.94 470.98 485.67 477.22 479.6 482.67 474.33 486.69 469.33 491.52 465.04 496.79 462.6 500.73 460.65 504.85 455.52 508.17 450.25 510.11 447.37 512.06 443.96 513.17 437.1 512.42 430.37 513.08 417.62 511.4 413.72 509.58 410.49 503.08 410.38 502.74 405.36 505.51 405.36 505.51 404.58 500.81 403.09 498.09 399.92 495.14 403.79 492.61 405.95 488.06 405.08 484.13 399.92 483.45 398.93 484.84 398.07 487.38 396.63 489.39 393.93 489.29 392.86 487.61 393.26 482.36 392.6 480.52 389.29 479.19 387.42 480.74 385.91 482.91 383.68 483.45 381.31 481.56 380.71 478.97 381.25 476.4 382.21 474.67 384.6 473.53 387.63 473.15 390.14 472.41 391 470.15 389.83 468.97 382.21 467.22 382.21 465.75 388.59 465.7 387.96 463.73 384.5 460.98 382.21 458.57 382.77 455.58 384.81 454.51 387.02 453.83 388.1 451.93 387.44 449 386.33 446.59 387.08 444.38 388.22 441.6 390.07 439.63 389.67 437.91 390.06 436.23 392.81 429.52 394.1 428.23 396.19 427.74 393.15 425.87 394.44 422.83 398.72 424.31 405.93 425.29 411.82 426.66 416.91 424.58 418.95 420.86 423.64 418.21 429.04 414.35 432.85 410.77 437.85 407.36 444.18 404.75 456.58 402.62 463.49 402.27 469.33 404.04 472.61 405.85 474.29 409 475.71 412.8 483.76 420.37 484.56 426 483.14 436.62 484.43 440.03 488.1 442.64 491.16 442.69 495.54 440.87 499.61 440.39 502.62 441.23 509.44 441.95 Z" id="TWN-1160" data-name="Tainan City"/>
<path d="M 575.15 123.6 575 123.77 571.25 124.59 567.68 123.29 565.47 120.49 562.01 118.57 556.41 116.59 556.4 116.59 557.31 113.55 561.85 105.14 563.62 102.94 564.22 101.78 564.18 100.53 563.64 99.17 562.75 97.51 563.97 95.31 565.39 93.95 565.39 93.95 572.15 96.61 584.44 100.15 588.84 102.28 592 105.11 593.5 107.82 592.71 110.55 590.79 111.55 586.57 112.2 581.83 113.97 579.01 117.15 577.18 121.35 575.15 123.6 Z" id="TWN-1161" data-name="Hsinchu City"/>
<path d="M 671.96 149.21 670.07 154.02 668.98 157.53 669.44 160.78 666.39 165.09 654.99 175.59 651.44 183.36 649.14 182.79 640.53 183.53 639.9 183.93 639.38 180.32 635.68 174.53 632.98 172.14 631.91 168.86 627.84 165.91 617.6 168.27 613.72 167.92 608.18 168.24 601.91 169.81 598.58 169.07 599.32 165.32 600.33 161.87 599.56 158.95 598.76 156.79 599.56 154.46 600.2 151.92 600.49 149.03 599.85 145.13 596.72 142.65 586.81 138.4 581.91 135.09 578.77 131.79 575.15 123.6 577.18 121.35 579.01 117.15 581.83 113.97 586.57 112.2 590.79 111.55 592.71 110.55 593.5 107.82 592 105.11 588.84 102.28 584.44 100.15 572.15 96.61 565.39 93.95 565.44 93.89 566.66 92.25 567.15 89.41 567.83 87.25 569.52 85.13 571.68 83.54 573.73 82.9 573.56 82 574.1 79.83 575.93 75.32 577.6 72.89 577.6 72.89 580.2 73.71 591.3 73 595.06 75.3 598.32 81.71 602.39 83.15 605.91 84.07 609.24 85.52 614.82 87.16 617.74 90.24 616.82 94.57 619.63 97.32 624.97 98.86 628.37 101.1 630.92 103.4 634.03 103.93 637.17 103.69 639.93 106.29 642.06 109.65 645.6 111.25 648.39 113.2 648.68 116.92 649.96 122.29 648.43 128.02 644.67 132.83 645.14 136.05 649.3 138.96 654.34 141.71 658.86 142.42 662.14 144.55 668.07 147.61 671.96 149.21 Z" id="TWN-1162" data-name="Hsinchu"/>
<path d="M 791.92 65.33 782.16 69.71 777.67 73.25 762.45 90.08 760.04 93.63 758.14 98.6 756.91 104.29 756.47 109.95 756.68 115.44 759.36 126.89 759.21 129.82 758.06 132.75 758.21 138.73 761 143.35 766.3 146.33 772.54 147.38 772.54 148.7 769.89 148.46 767.38 148.69 765.27 149.32 763.76 150.31 765.9 154.02 767 158.83 766.32 163.01 761.46 165.53 761.09 167.35 761.72 169.57 763.09 171.57 763.58 173.64 761.53 175.41 756.47 178.08 750.74 184.07 750.54 186.4 750.89 191.58 749.95 193.57 748.91 195.23 748.24 197.63 747.83 202.34 747.37 203.55 746.55 204.54 746.13 205.56 746.99 206.79 747.16 206.96 746.28 206.94 737.21 205.7 722.14 197.5 719.04 198.14 717.14 202.57 713.13 205.94 707.8 205.91 701.08 203.57 688.81 200.74 683.52 198.4 681.48 196.9 676.74 193.42 672.75 193.42 668.85 195.1 665.67 195.55 662.63 193.66 659.06 191.77 655.05 190.97 653.87 188.23 654.42 184.09 651.44 183.36 654.99 175.59 666.39 165.09 669.44 160.78 668.98 157.53 670.07 154.02 671.96 149.21 672.41 148.09 675.6 146.9 678.22 147.38 681.02 146.43 682.86 143.6 680.31 134.39 684.68 131.5 687.18 130.87 691.89 129.67 695.87 128.31 698.97 125.89 702.99 123.32 708.41 120.93 711.59 118.9 711.25 117.39 710.42 115.03 710.3 111.96 711.87 108.3 715.73 105.35 718.83 103.67 729.45 99.74 740.43 93.78 745.48 92.36 749.59 89.7 752.1 85.99 754.75 82.95 757.76 81.5 760.63 80.59 764.37 78.43 765.7 75.63 763.66 73 764.81 70.82 773.9 69.13 776.89 67.34 783.73 64.03 788.58 63.11 791.29 64.5 791.92 65.33 791.92 65.33 Z" id="TWN-1163" data-name="Yilan"/>
<path d="M 746.72 32.02 746.48 40.83 746.61 43.06 749.62 45.92 749.31 47.73 747.25 49.11 744 50.21 739.81 49.73 731.2 46.47 728.77 44.9 725.78 42.33 723.45 39.77 722.06 37.18 719.73 34.45 719.27 32.33 721.86 30.73 727.7 28.43 731.29 26.27 731.3 26.26 732.43 26.99 733.06 27.74 734.42 28.96 737.56 30 746.72 32.02 Z" id="TWN-1164" data-name="Keelung City"/>
<path d="M 575.15 123.6 578.77 131.79 581.91 135.09 586.81 138.4 596.72 142.65 599.85 145.13 600.49 149.03 600.2 151.92 599.56 154.46 598.76 156.79 599.56 158.95 600.33 161.87 599.32 165.32 598.58 169.07 601.91 169.81 608.18 168.24 613.72 167.92 617.6 168.27 627.84 165.91 631.91 168.86 632.98 172.14 635.68 174.53 639.38 180.32 639.9 183.93 636.87 185.86 635.4 190.03 631.43 191.53 627.09 191.44 623.64 193.66 619.92 196.93 615.14 199.32 605.7 206.17 600.09 208.27 592.89 211.78 588.47 210.19 584.42 206.08 579.49 204.28 571.47 203.73 566.97 206.17 566.26 211.63 562.01 213.73 552.1 214.2 542.66 209.24 537.34 208.35 531.32 205.7 519.05 197.44 513.93 193.36 510.07 189.64 502.56 179.08 502.57 179.07 508.48 173.1 509.99 170.11 510.71 165.22 512.5 161.08 517.31 153.35 518.62 148.72 519.88 146.73 525.38 145.25 526.93 143.68 527.86 141.73 528.97 139.92 532.39 136.68 536.14 134.16 540.69 133.07 546.54 134.08 545.76 130.02 547.97 127.28 551.01 124.49 552.5 120.25 553.18 118.89 556.11 117.55 556.4 116.59 556.41 116.59 562.01 118.57 565.47 120.49 567.68 123.29 571.25 124.59 575 123.77 575.15 123.6 Z" id="TWN-1165" data-name="Miaoli"/>
<path d="M 712.78 68.85 708.05 68.81 704.13 68.01 701.14 65.62 698.04 62.41 693.35 59.07 690.12 54.11 691.4 48.62 690.43 44.02 685.73 39.94 682.66 36.82 683.96 34.63 685.42 32.86 687.15 29.49 690.05 26.55 698.93 21.77 701.32 19.93 704.57 18.47 707.69 19.4 709.37 20.99 708.93 23.65 709.26 26.2 710.53 28.61 711.9 31.22 713.91 38.64 717.08 41.18 718.41 44.46 717.08 49.33 717.23 53.09 720.97 55 724.01 57.34 722.39 60.48 716.19 67.57 712.78 68.85 Z" id="TWN-1166" data-name="Taipei City"/>
<path d="M 731.3 26.26 731.29 26.27 727.7 28.43 721.86 30.73 719.27 32.33 719.73 34.45 722.06 37.18 723.45 39.77 725.78 42.33 728.77 44.9 731.2 46.47 739.81 49.73 744 50.21 747.25 49.11 749.31 47.73 749.62 45.92 746.61 43.06 746.48 40.83 746.72 32.02 774.89 38.21 777.53 39.73 776.2 42.43 775.84 44.59 776.41 48.43 778.4 54.84 780.54 57.84 782.27 58.55 787.97 57.77 790.9 58.05 794.33 58.89 797.36 60.27 799 62.15 791.92 65.33 791.92 65.33 791.29 64.5 788.58 63.11 783.73 64.03 776.89 67.34 773.9 69.13 764.81 70.82 763.66 73 765.7 75.63 764.37 78.43 760.63 80.59 757.76 81.5 754.75 82.95 752.1 85.99 749.59 89.7 745.48 92.36 740.43 93.78 729.45 99.74 718.83 103.67 715.73 105.35 711.87 108.3 710.3 111.96 710.42 115.03 711.25 117.39 711.59 118.9 708.41 120.93 702.99 123.32 698.97 125.89 695.87 128.31 691.89 129.67 687.18 130.87 685.18 126.83 677.9 120.57 676.77 116.45 676.12 112.6 678.66 109.83 679.85 105.97 672.99 96.85 668.89 95.37 662.84 95.66 658.66 93.55 659.77 88.58 658.94 84.8 654.58 81.03 653.69 77.28 654.58 73 654.4 68.42 657.41 65.44 668.04 62.61 670.78 60.04 671.58 56.94 671.19 53.96 667.01 48.44 663.55 46.79 660.24 46.08 657.64 43.95 653.78 41.71 648.68 39.47 645.23 36.07 645.23 36.07 654.4 34.57 658.27 33.19 663.29 29.41 664.79 28.73 666.64 28.43 669.11 28.4 671.97 29.26 673.5 31.21 674.5 33.24 675.77 34.38 678.59 33.34 675.65 29.15 670.92 24.82 668.43 23.41 669.15 21.41 670.63 20.3 672.18 19.63 672.82 18.95 674.51 15.15 677.11 10.85 682.46 6.46 690.29 2.86 699.27 1 708.07 1.94 711.73 4.43 719.89 14.84 722.81 20.35 723.77 19.98 725.97 19.43 728.48 19.17 730.26 19.62 730.15 20.27 729.3 21.22 728.48 22.53 728.55 24.14 729.42 25.07 731.3 26.26 Z M 712.78 68.85 716.19 67.57 722.39 60.48 724.01 57.34 720.97 55 717.23 53.09 717.08 49.33 718.41 44.46 717.08 41.18 713.91 38.64 711.9 31.22 710.53 28.61 709.26 26.2 708.93 23.65 709.37 20.99 707.69 19.4 704.57 18.47 701.32 19.93 698.93 21.77 690.05 26.55 687.15 29.49 685.42 32.86 683.96 34.63 682.66 36.82 685.73 39.94 690.43 44.02 691.4 48.62 690.12 54.11 693.35 59.07 698.04 62.41 701.14 65.62 704.13 68.01 708.05 68.81 712.78 68.85 Z" fill-rule="evenodd" id="TWN-1167" data-name="New Taipei City"/>
<path d="M 687.18 130.87 684.68 131.5 680.31 134.39 682.86 143.6 681.02 146.43 678.22 147.38 675.6 146.9 672.41 148.09 671.96 149.21 668.07 147.61 662.14 144.55 658.86 142.42 654.34 141.71 649.3 138.96 645.14 136.05 644.67 132.83 648.43 128.02 649.96 122.29 648.68 116.92 648.39 113.2 645.6 111.25 642.06 109.65 639.93 106.29 637.17 103.69 634.03 103.93 630.92 103.4 628.37 101.1 624.97 98.86 619.63 97.32 616.82 94.57 617.74 90.24 614.82 87.16 609.24 85.52 605.91 84.07 602.39 83.15 598.32 81.71 595.06 75.3 591.3 73 580.2 73.71 577.6 72.89 584.85 62.41 590.52 56.3 596.38 51.8 611.38 47.33 614.89 45.34 617.9 42.94 621.56 41.13 628.85 38.75 645.23 36.07 648.68 39.47 653.78 41.71 657.64 43.95 660.24 46.08 663.55 46.79 667.01 48.44 671.19 53.96 671.58 56.94 670.78 60.04 668.04 62.61 657.41 65.44 654.4 68.42 654.58 73 653.69 77.28 654.58 81.03 658.94 84.8 659.77 88.58 658.66 93.55 662.84 95.66 668.89 95.37 672.99 96.85 679.85 105.97 678.66 109.83 676.12 112.6 676.77 116.45 677.9 120.57 685.18 126.83 687.18 130.87 Z" id="TWN-1168" data-name="Taoyuan"/>
<path d="M 512.4 272.44 512.42 275.12 508.93 276.24 507.94 278.43 508.4 281.44 506.75 284.8 505.42 288.84 505.33 293.06 504.39 297.99 503.69 307.97 505.33 312.66 508.31 315.14 511.48 316.2 516.02 318.3 515.25 320.93 512.12 322.08 510.06 323.76 508.16 324.95 507.32 325.47 497.55 323.7 492.82 323.76 482.91 319.27 466.85 317.62 457.41 314.31 451.98 312.96 445.83 312.66 427.92 314.61 421.74 311.34 421.73 311.34 422.34 310.28 423.66 305 424.64 302.78 430.41 297.73 432.08 295.6 434.28 289.83 437.62 284.06 442.33 272.07 444.53 268.59 446.98 266.35 449 265.1 450.78 264.32 452.05 263.24 452.56 261.04 453.52 258.98 457.7 255.98 458.66 253.72 459.15 246.21 459.88 244.15 462.08 242.24 471.31 232.39 476.06 233.8 479.31 236.4 481.48 241.12 482.32 246.76 485.98 250.8 495.66 253.4 499.17 256.05 501.79 259.77 503.42 262.73 503.45 265.68 504.46 268.18 507.94 268.74 512.39 271.4 512.4 272.44 Z" id="TWN-1169" data-name="Changhua"/>
<path d="M 373.67 397.03 371.13 398.27 374.17 394.19 385.54 383.66 394.17 373.57 396.21 373.02 388.83 383.96 385.22 387.3 382.82 389.98 379.75 392.81 377.32 394.37 373.67 397.03 Z M 483.67 361.67 493.95 365.12 496.96 364.72 503.73 362.95 507.58 365.43 509.53 368.4 514.67 367.91 524.23 366.14 527.42 365.17 527.42 362.6 527.73 358.88 528.12 358.92 533.08 359.41 538.57 361.36 541.94 362.25 546.14 364.33 545.83 368.27 543.4 372.12 544.42 375.7 546.59 380.57 546.9 384.91 547.78 387.79 553.98 388.81 574.83 388.94 575.56 389.1 560.49 396.16 553.62 401.2 550.7 406.3 547.25 410.06 541.01 413.29 534.5 417.85 530.87 421.84 520.86 427.33 516.08 427.77 510.5 427.24 507.58 429.89 507.45 433.57 508.64 436.98 509.44 441.94 509.44 441.95 502.62 441.23 499.61 440.39 495.54 440.87 491.16 442.69 488.1 442.64 484.43 440.03 483.14 436.62 484.56 426 483.76 420.37 475.71 412.8 474.29 409 472.61 405.85 469.33 404.04 463.49 402.27 456.58 402.62 444.18 404.75 437.85 407.36 432.85 410.77 429.04 414.35 423.64 418.21 418.95 420.86 416.91 424.58 411.82 426.66 405.93 425.29 398.72 424.31 394.44 422.83 397.58 422.64 400.24 421.55 401.39 421.9 400.71 419.53 398.9 420.73 397.39 420.38 395.39 420.3 395.35 417.83 397.36 413.61 400.36 413.42 404.74 413.45 401.75 405.65 398.35 399.63 399.92 396.91 399.92 395.44 397.45 394.33 397.78 393.05 399.19 391.49 399.92 389.59 403.23 385.66 396.27 386.06 396.1 379.54 396.87 379.5 396.99 379.42 405.58 378.54 412.35 382.03 417.27 382.08 420.5 379.73 421.87 376.06 423.55 373.84 427.89 373.22 433.56 368.97 437.19 367.2 440.29 364.37 453.57 357.33 459.41 355.87 469.68 354.1 475.31 353.83 479.6 357.29 483.67 361.67 Z M 452.55 381.86 449.5 384.91 450.2 389.12 455.16 390.93 460.87 394.3 466.85 395.54 472.39 393.5 476.06 393.06 478.49 391.42 476.41 386.33 474.42 383.36 471.1 381.72 466.54 380.13 460.12 380.66 452.55 381.86 Z" fill-rule="evenodd" id="TWN-1170" data-name="Chiayi"/>
<path d="M 466.85 395.54 460.87 394.3 455.16 390.93 450.2 389.12 449.5 384.91 452.55 381.86 460.12 380.66 466.54 380.13 471.1 381.72 474.42 383.36 476.41 386.33 478.49 391.42 476.06 393.06 472.39 393.5 466.85 395.54 Z" id="TWN-1171" data-name="Chiayi City"/>
<path d="M 747.16 206.96 747.16 206.96 747.7 207.52 748.44 208.62 749.01 209.72 749.17 210.51 748.03 212.29 743.29 216.51 738.19 222.95 734.42 225.69 733.22 227.15 733.79 228.72 733.11 229.84 727.68 233.59 725.64 235.38 723.35 239.86 721.02 248.93 714.97 257.01 713.77 260.28 713.92 263.78 715.39 267.68 716.63 269.33 717.69 270.11 718.37 271.13 718.42 273.54 717.53 276.23 714.55 280.49 713.92 283.09 713.61 287.86 711 299.98 705.82 312.7 699.28 342.53 695.36 349.85 686.37 397.71 686.37 397.71 683.52 396.95 674.75 400.85 671.61 404.92 672.98 410.06 673.47 415.19 670.5 420.33 667.76 424.23 665.55 429.18 663.6 435.47 660.59 441.23 656.69 451.14 654.12 455.66 654.21 460.71 653.46 465.36 648.19 468.14 641.51 467.26 631.94 460.04 624.46 448.04 619.86 446.89 614.72 446.23 610.65 442.64 605.64 440.52 599.31 438.39 595.2 432.33 594.29 426.81 594 424.93 591.74 419.22 586.56 415.37 582.05 412.67 581.25 409.71 582.36 407.31 586.92 405.45 589.35 401.74 587.8 397.39 592.72 394.83 595.22 392.7 593.84 388.07 595.07 386.09 596.28 383.05 600.51 380.19 606.53 378.95 612.55 378.78 616.87 375.23 617.97 368.86 621.18 365.02 627.43 362.95 631.06 360.59 632.39 356.82 634.98 347.37 635.98 341.14 635.22 335.8 634.24 331.72 631.68 328.72 629.93 325.73 634.57 318.74 634.74 315.96 636.81 310.71 639.93 304.4 642.45 297.87 643.71 290.47 644.21 284.83 642.77 281.49 641.06 279.01 643.01 273.35 647.13 265.41 653.66 257.65 653.87 254.81 652.66 251.42 648.43 248.91 646.11 246.64 645.9 239.23 648.91 237.1 654.33 235.45 658.55 233.65 658.35 230.97 657.23 226.31 657.24 226.31 659.52 224.82 660.52 223.32 663.3 221.99 665.78 219.22 666.84 215.38 669.29 211.72 675.44 208.18 677.35 203.61 677.71 200.51 681.48 196.9 683.52 198.4 688.81 200.74 701.08 203.57 707.8 205.91 713.13 205.94 717.14 202.57 719.04 198.14 722.14 197.5 737.21 205.7 746.28 206.94 747.16 206.96 Z" id="TWN-1172" data-name="Hualien"/>
<path d="M 657.23 226.31 658.35 230.97 658.55 233.65 654.33 235.45 648.91 237.1 645.9 239.23 646.11 246.64 648.43 248.91 652.66 251.42 653.87 254.81 653.66 257.65 647.13 265.41 643.01 273.35 641.06 279.01 642.77 281.49 644.21 284.83 643.71 290.47 642.45 297.87 639.93 304.4 636.81 310.71 634.74 315.96 634.57 318.74 629.93 325.73 631.68 328.72 634.24 331.72 635.22 335.8 635.98 341.14 634.98 347.37 632.39 356.82 631.06 360.59 627.43 362.95 621.18 365.02 617.97 368.86 616.87 375.23 612.55 378.78 606.53 378.95 600.51 380.19 596.28 383.05 595.07 386.09 593.84 388.07 595.22 392.7 592.72 394.83 587.8 397.39 587.27 395.89 583.86 391.55 579.13 389.87 575.56 389.1 574.83 388.94 553.98 388.81 547.78 387.79 546.9 384.91 546.59 380.57 544.42 375.7 543.4 372.12 545.83 368.27 546.14 364.33 541.94 362.25 538.57 361.36 533.08 359.41 528.12 358.92 526 356.27 519.27 356.93 513.74 358.48 509 356.58 505.77 353.08 506.52 348.79 508.07 344.93 507.23 339.22 508.07 333.87 509.71 330.37 508.16 324.95 510.06 323.76 512.12 322.08 515.25 320.93 516.02 318.3 511.48 316.2 508.31 315.14 505.33 312.66 503.69 307.97 504.39 297.99 505.33 293.06 505.42 288.84 506.75 284.8 508.4 281.44 507.94 278.43 508.93 276.24 512.42 275.12 512.4 272.44 515.84 272.55 530.48 274.44 533.9 273.94 537.95 270.4 544.12 259.68 547.13 253.4 552.34 251.12 560.59 252.22 565.49 252.01 570.18 246.31 572.63 244.9 579.94 249.85 582.78 249.18 584.91 245.13 588.72 242.21 594.12 242.3 598.2 240.88 604.63 235.22 608.75 233.09 612.35 232.47 619.55 229.02 624.58 228.84 629.66 228.1 638.72 224.83 642.52 224.59 646.35 225.39 657.23 226.31 Z" id="TWN-1173" data-name="Nantou"/>
<path d="M 639.9 183.93 640.53 183.53 649.14 182.79 651.44 183.36 654.42 184.09 653.87 188.23 655.05 190.97 659.06 191.77 662.63 193.66 665.67 195.55 668.85 195.1 672.75 193.42 676.74 193.42 681.48 196.9 677.71 200.51 677.35 203.61 675.44 208.18 669.29 211.72 666.84 215.38 665.78 219.22 663.3 221.99 660.52 223.32 659.52 224.82 657.24 226.31 657.23 226.31 646.35 225.39 642.52 224.59 638.72 224.83 629.66 228.1 624.58 228.84 619.55 229.02 612.35 232.47 608.75 233.09 604.63 235.22 598.2 240.88 594.12 242.3 588.72 242.21 584.91 245.13 582.78 249.18 579.94 249.85 572.63 244.9 570.18 246.31 565.49 252.01 560.59 252.22 552.34 251.12 547.13 253.4 544.12 259.68 537.95 270.4 533.9 273.94 530.48 274.44 515.84 272.55 512.4 272.44 512.39 271.4 507.94 268.74 504.46 268.18 503.45 265.68 503.42 262.73 501.79 259.77 499.17 256.05 495.66 253.4 485.98 250.8 482.32 246.76 481.48 241.12 479.31 236.4 476.06 233.8 471.31 232.39 471.32 232.38 471.82 231.83 472.43 229.39 475.11 227.34 476.93 222.58 479.14 213.44 486.72 201.45 489.02 194.09 491.74 190.01 502.56 179.08 510.07 189.64 513.93 193.36 519.05 197.44 531.32 205.7 537.34 208.35 542.66 209.24 552.1 214.2 562.01 213.73 566.26 211.63 566.97 206.17 571.47 203.73 579.49 204.28 584.42 206.08 588.47 210.19 592.89 211.78 600.09 208.27 605.7 206.17 615.14 199.32 619.92 196.93 623.64 193.66 627.09 191.44 631.43 191.53 635.4 190.03 636.87 185.86 639.9 183.93 Z" id="TWN-1174" data-name="Taichung City"/>
<path d="M 508.16 324.95 509.71 330.37 508.07 333.87 507.23 339.22 508.07 344.93 506.52 348.79 505.77 353.08 509 356.58 513.74 358.48 519.27 356.93 526 356.27 528.12 358.92 527.73 358.88 527.42 362.6 527.42 365.17 524.23 366.14 514.67 367.91 509.53 368.4 507.58 365.43 503.73 362.95 496.96 364.72 493.95 365.12 483.67 361.67 479.6 357.29 475.31 353.83 469.68 354.1 459.41 355.87 453.57 357.33 440.29 364.37 437.19 367.2 433.56 368.97 427.89 373.22 423.55 373.84 421.87 376.06 420.5 379.73 417.27 382.08 412.35 382.03 405.58 378.54 396.99 379.42 396.87 379.5 396.1 379.54 399.83 375.7 399.66 363.43 400.24 354.27 402.52 346.95 406.07 341.23 407.09 333.75 408.99 327.2 410.01 324.97 415.03 318.9 415.87 316.87 416.5 315.73 421.05 312.54 421.73 311.34 421.74 311.34 427.92 314.61 445.83 312.66 451.98 312.96 457.41 314.31 466.85 317.62 482.91 319.27 492.82 323.76 497.55 323.7 507.32 325.47 508.16 324.95 Z" id="TWN-1176" data-name="Yunlin"/>
<path d="M 709.53 702.13 705.09 703.44 699.09 701.2 693.58 697.59 690.39 694.81 691.35 692.77 691.32 690.85 690.5 689.09 689.05 687.5 705.02 687.5 705.02 688.82 704.6 689.64 703.9 691.47 703.62 693.64 704.35 695.54 708.12 698.2 709.79 700.07 709.53 702.13 Z M 689.98 568.35 689.92 569.17 689.3 569.01 687.88 569.01 687.15 568.85 686.79 568.44 684.64 567.64 682.34 563.96 681.21 560.78 681.66 560.33 689.85 559.77 690.76 560.26 691.35 561.71 690.71 564.67 689.98 565.87 689.68 567.13 689.98 568.35 Z M 665.4 467.22 663.71 468.81 659.8 471.43 658.08 473.08 657.22 474.77 655.86 479.12 651.96 485.45 649.55 495.25 647.83 499.67 639.46 510.78 638.42 512.82 627.1 521.65 624.42 524.51 624.04 526.49 624.56 531.2 624.42 533.3 623.41 535.69 621.67 538.33 617.8 542.87 613.96 546.23 600.86 554.3 592.04 563.22 589.89 564.27 588.17 566.34 583.91 576.43 581.79 580.22 575.23 587.77 572.58 592.27 571.05 601.52 567.15 614.13 559.37 626.72 558.26 631.01 556.9 643.15 557.11 654.19 553.45 654.44 545.12 650.9 541.41 647.23 538.75 642.75 538.31 638.19 538.4 633.9 535.87 630.54 533.08 629.3 530.87 626.37 531.31 622.92 532.99 620 537.33 617.61 539.37 614.73 535.56 610.52 533.44 606.76 533.44 602.73 532.6 597.38 530.96 592.82 529.94 587.9 530.6 576.83 533.08 571.21 536.09 566.25 538.04 561.29 542.42 557.93 548.67 556.69 552.56 554.65 560.49 551.55 562.13 547.83 562.26 543.94 564.52 533.58 560 530.83 555.66 529.86 555.04 526.23 552.25 521.27 555.4 520.92 554.38 517.2 549.37 512.42 546.94 508.96 545.83 502.85 547.74 495.55 554.69 490.1 558.18 485.72 558.23 477.31 560.71 467.44 558.94 460 559.65 454.86 565.67 451.85 567.84 448.18 566.02 443.71 566.73 439.41 573.06 435.65 576.29 432.73 581.56 429.67 594.29 426.81 595.2 432.33 599.31 438.39 605.64 440.52 610.65 442.64 614.72 446.23 619.86 446.89 624.46 448.04 631.94 460.04 641.51 467.26 648.19 468.14 653.46 465.36 654.21 460.71 654.12 455.66 656.69 451.14 660.59 441.23 663.6 435.47 665.55 429.18 667.76 424.23 670.5 420.33 673.47 415.19 672.98 410.06 671.61 404.92 674.75 400.85 683.52 396.95 686.37 397.71 682.65 417.46 680.82 421.1 675.07 428.14 672.93 431.79 671.24 436.39 670.05 444.93 670.16 452.53 669.36 459.76 665.4 467.22 Z" fill-rule="evenodd" id="TWN-1177" data-name="Taitung"/>
<path d="M 285.62 363.51 285.16 364.47 288.44 363.55 290.95 363.81 292.78 363.68 294.09 361.67 297.9 368.13 298.95 371.14 298.48 373.38 296.91 371.89 294.82 370.64 292.52 370.22 289.31 371.88 287.03 372.13 285.89 372.7 285.27 373.8 284.4 376.84 283.84 377.75 280.04 379.77 276.1 380.28 272.16 378.88 268.2 375.27 269.25 373.38 271.43 375.78 274.69 376.42 278.19 375.53 281.07 373.38 279.08 372.7 277.51 371.82 276.24 370.62 275.09 368.98 274.63 369.67 274.63 369.91 274.48 370.04 273.62 370.45 273.43 367.45 273.62 364.47 275.09 364.47 276.8 364.87 282.84 361.4 286.63 360.21 285.62 363.51 Z M 253.09 370.45 250.06 370.45 250.58 368.89 251.57 367.95 253.09 367.52 255.15 367.38 256.93 366.75 257.43 365.24 257.48 361.67 260.13 353.92 262.68 351.62 266.11 354.36 264.07 355.47 262.66 358.17 260.41 364.47 260.31 366.17 260.86 367.61 260.62 368.62 258.16 368.98 256.39 369.04 255.13 369.25 254.08 369.7 253.09 370.45 Z M 280.63 357.11 278.85 357.59 277.95 356.49 277.25 353.91 275.63 351.74 272.09 348.5 276.62 345.45 279.29 346.76 281.9 348.81 283 351 281.01 352.77 281.82 355.39 280.63 357.11 Z" fill-rule="evenodd" id="TWN-3414" data-name="Penghu"/>
<path d="M 25.56 164.79 31.64 163.66 37.42 168.47 41.22 177.83 40.37 184.32 37.25 187.75 31.7 184.58 27.57 183.36 20.98 183.96 15.18 187.3 12.02 191.82 9.28 193.09 6.07 191.7 3.88 191.57 1.94 190.8 1 189.26 1.33 188.7 3.11 186.66 3.67 185.72 3.82 184.2 3.74 182.37 3.14 179.15 1.73 176.07 1.54 174.5 2.78 173.84 8.95 171.07 17.12 175.96 22.82 175.32 23.67 168.83 25.56 164.79 Z" id="TWN-3415" data-name="Kinmen"/>
</g>
</svg>