<?xml version="1.0"?>
<svg xmlns="http://www.w3.org/2000/svg" version="1.2" baseProfile="tiny" width="800" height="592" viewBox="0 0 800 592" stroke-linecap="round" stroke-linejoin="round">
<g id="ne_10m_admin_1_states_provinces">
<path d="M 256.21 178.24 263.11 192.48 266.35 196.1 293.32 196.33 320.29 196.56 320.37 196.56 320.44 196.6 321.31 196.79 321.81 196.83 322.41 197.04 322.81 197.34 323.2 197.4 323.62 197.37 324.18 197.21 324.71 197.11 325.2 196.97 325.74 197.11 326.3 197.37 326.98 197.46 327.61 197.74 328.82 198.41 329.35 198.85 330.26 199.72 330.92 200.13 330.88 200.42 330.64 200.97 329.25 202.11 327.74 202.79 324.57 203.81 323.19 205.14 322.09 207.21 320.44 214.5 319.71 216.37 290.41 218.49 290.26 218.57 289.3 219.03 288.63 219.15 287.98 219.14 283.52 218.62 282.83 218.47 271.28 218.01 263.56 218.72 260.67 219.39 258.73 220.26 257.35 221.32 255.96 223.2 254.58 227.15 253.69 237.46 252.8 240.4 250.88 244.03 248.86 246.8 247.42 249.76 243.02 269.16 233.42 271.69 192.8 290.79 185.4 295.79 181.18 298.02 179.42 298.7 177.74 299.09 175.86 299.18 173.56 298.85 170.83 297.81 148.59 283.39 144.63 279.82 140.53 274.04 138.09 266.44 136.64 257.17 136.39 247.77 132.79 224.92 133.02 180.35 135.28 157.26 134.96 151.68 134.96 151.68 134.98 151.7 140.18 153.66 152.94 168.48 165.7 183.31 168.68 185.24 170.36 186 174.28 186.32 175 186.26 201.11 177.47 218.62 177.07 221.72 177.61 231.39 177.57 236.88 178.26 237.27 178.22 238.68 177.84 239.06 177.8 247.72 179.06 254.4 178.71 255.51 178.52 256.21 178.24 Z" id="SDS-147" data-name="Northern Bahr el Ghazal"/>
<path d="M 453.73 348.31 453.97 348.85 455.81 351.48 456.23 351.82 456.83 351.96 457.42 352.02 459.13 352.4 459.64 352.65 464.22 356.46 466.47 357.49 467.45 358.19 468.12 358.56 469.78 358.93 470.49 359.35 470.91 360.04 471.16 361.54 471.42 362.16 471.79 362.43 472.97 362.95 473.47 363.29 474.43 364.35 474.9 364.76 476.24 365.29 477.29 366.11 478.85 367.7 479.88 369.66 480.54 370.58 481.39 370.97 482.55 371.35 483.08 372.27 483.4 373.47 483.93 374.67 486.02 376.73 486.31 377.27 486.37 377.95 486.49 378.54 486.95 378.78 487.72 379.36 488.13 380.75 488.59 383.9 488.98 385.27 489.53 386.28 490.35 386.92 491.59 387.14 492.56 387.66 492.97 388.93 493.2 391.8 493.98 393.55 498.32 398.72 498.88 399.59 499.32 400.68 499.61 401.9 499.9 404.59 501.51 408.04 502.23 411.16 502.82 412.85 503.61 413.58 504.32 413.99 505.09 414.92 505.76 416 507.82 421.28 508.02 422.63 508.22 423.36 508.7 424.24 509.32 425.06 509.91 425.63 510.31 425.6 510.75 425.33 511.22 425.33 511.61 426.38 508.17 429.41 505.68 429.14 501.18 426.74 478.23 422.57 469.99 419.01 457.41 408.37 453.97 408.26 449.01 410.81 442.97 412.02 428 413.27 425.05 409.72 418.12 395.84 415.85 392.96 413.51 390.69 412.21 389.72 411.04 389.17 408.04 389.55 394.35 389.79 393.32 390.49 392.51 391.79 392.3 397.64 393.02 401.96 393.8 404.59 393.78 407.65 392.58 414.28 391.35 417.37 390.22 419.21 387.66 421.61 382.92 427.74 381.53 430.29 379.37 436.54 378.57 439.76 375.2 441.72 370.47 441.83 340.87 438.92 338.5 438.26 336.2 436.93 335.14 435.55 333.92 434.62 332.53 433.79 330.64 432.99 328.34 432.33 326.54 430.71 321.59 424.22 319.78 421.32 315.76 417.05 312.77 415.38 310.95 413.34 309.83 409.86 308.56 407.32 305.9 403.31 305.34 401.68 305.12 399.63 305.57 397.2 304.9 393.28 304.04 391.14 305.1 388.8 304.62 386.09 305.32 383.67 304.9 380.71 306.56 371.63 312.1 375.9 317.53 378.13 319.85 378.49 322.1 378.42 324.51 378.06 326.8 377.49 329.09 376.57 331.15 375.33 332.52 373.5 333.28 372 341.6 344.88 342.82 342.38 347.24 335.97 369.43 311.52 378.18 298.24 388.52 299.05 389.67 299.31 390.78 299.85 391.54 300.79 413.1 345.02 421.04 347.52 453.73 348.31 Z" id="SDS-863" data-name="Lakes"/>
<path d="M 306.56 371.63 304.9 380.71 305.32 383.67 304.62 386.09 305.1 388.8 304.04 391.14 304.9 393.28 305.57 397.2 305.12 399.63 305.34 401.68 305.9 403.31 308.56 407.32 309.83 409.86 310.95 413.34 312.77 415.38 315.76 417.05 319.78 421.32 321.59 424.22 326.54 430.71 328.34 432.33 330.64 432.99 332.53 433.79 333.92 434.62 335.14 435.55 336.2 436.93 338.5 438.26 340.87 438.92 370.47 441.83 375.2 441.72 378.57 439.76 379.37 436.54 381.53 430.29 382.92 427.74 387.66 421.61 390.22 419.21 391.35 417.37 392.58 414.28 393.78 407.65 393.8 404.59 393.02 401.96 392.3 397.64 392.51 391.79 393.32 390.49 394.35 389.79 408.04 389.55 411.04 389.17 412.21 389.72 413.51 390.69 415.85 392.96 418.12 395.84 425.05 409.72 428 413.27 436.17 420.74 443.63 426.43 446.32 429 447.93 431.09 449.78 434.22 451.17 435.8 455.07 438.44 459.98 443.01 461.99 446.45 463.5 449.77 463.75 452.65 463 455.09 459.88 459.84 458.7 462.75 458 466.06 456.94 486.06 456.71 487.44 456.48 488.31 456.08 489.02 455.27 489.76 453.77 490.63 444.37 493.7 436.65 497.63 433.56 499.95 424.62 508.67 422.24 509.86 420.07 510.23 418.33 509.82 416.62 508.8 412.25 504.78 410.75 503.74 409.23 503.18 407.49 503.1 406.06 503.41 404.32 504.11 402.78 505.18 401.15 506.65 398.58 509.46 386.16 519.13 384.25 520.19 384.59 519.78 384.82 519.06 384 518.57 383.32 518.29 381.78 517.36 381.33 517.18 379.83 517.56 379.31 517.47 378.33 516.88 376.37 515.14 375.59 514.59 372.77 513.28 371.97 513.12 369.94 513.08 367.89 512.21 367.12 511.98 366.7 512.04 365.65 512.56 365.32 512.35 364.62 511.65 364.35 511.47 362.9 511.21 361.88 511.39 361.32 512.23 361.15 514.59 360.94 515.77 361 516.46 360.88 517.21 359.61 518.39 359.16 519.1 358.72 520.67 358.17 522.04 357.33 523.28 353.85 526.27 353.18 527.25 352.49 528.87 351.49 530.49 350.37 530.73 349.02 530.44 347.36 530.47 346.6 531.27 346.4 532.54 345.9 533.63 344.2 533.87 342.67 533.13 338.36 528.78 337.6 528.23 334.92 527.07 334.72 527.15 334.53 526.18 333.8 525.87 330.53 523.7 330 523.13 325.9 524.15 324.42 524.3 321.21 524.04 319.15 524.32 318.44 524.32 316.73 523.62 316.4 522.31 316.3 520.8 315.32 519.49 314.39 519.2 313.81 519.52 313.23 520.09 312.3 520.55 310.92 520.55 310.32 520.65 307.52 526.05 306.5 527.45 305.48 528.1 302.69 528.76 301.89 529.27 301.63 530.01 301.47 530.79 301 531.41 300.38 531.59 299.72 531.52 299.07 531.39 298.42 531.35 296.91 531.71 295.93 532.39 293.33 535.8 292.08 537 290.64 537.88 289.11 538.05 287.48 537.54 286.91 536.9 286.69 535.95 286.09 534.52 283.81 532.85 280.96 532.97 277.98 533.54 275.31 533.19 274.04 532.27 272.79 531.01 270.9 528.63 270.63 527.32 270.18 526.77 269.09 526.69 268.46 527.07 267.35 528.26 266.67 528.32 264.59 525.37 264.26 524.73 264.06 524.2 263.95 523.64 263.91 522.92 264.12 521.38 264.46 520.21 264.25 519.47 260.77 518.97 260.01 519.07 259.55 518.98 258.86 518.24 258.52 518.12 257.92 518.44 257.63 518.65 257.75 518.74 257.69 518.9 257.65 519.23 257.49 519.52 257.08 519.56 255.93 519.08 255.56 519.02 253.63 519.31 253.1 519.25 252.32 518.8 251.09 517.47 250.4 516.9 249.87 516.73 248.21 516.38 247.91 516.37 247.42 515.27 247.12 513.66 246.99 510.87 247.54 506.93 247.29 505.47 247.02 504.84 246.57 504.07 246.01 503.39 245.37 503.02 244.76 503.05 243.45 503.41 242.95 503.41 242.06 502.71 241.64 501.58 241.11 498.78 240.23 497.18 239.02 496.41 233.05 495.76 231.69 495.29 230.47 494.28 230.11 493.61 229.83 492.16 229.58 491.52 229 490.86 226.89 489.25 226.41 489.05 225.96 488.8 225.55 488.5 225.18 488.15 225.64 485.13 225.52 484.25 224.83 483.38 222.87 481.97 221.77 479.31 219.92 477.76 216.05 475.16 214.67 473.44 213.56 471.44 211.76 467.18 211.48 466.16 211.11 462.82 210.56 461.1 210.42 460.26 210.56 459.22 213.31 451.82 213.18 451.17 213.33 449.97 213.06 449.4 212.41 448.96 211.91 449 211.54 449.21 211.3 449.3 211.05 449.36 210.73 449.52 210.37 449.45 209.97 448.81 209.92 448.35 210.22 447.37 210.33 446.2 210.5 445.75 210.44 445.39 209.27 444.61 208.96 444.3 208.81 443.91 208.78 443.3 208.58 442.25 208.01 441.19 207.2 440.32 206.24 439.84 204.89 439.4 204.56 438.89 204.53 438.17 204.05 437.05 203.44 436.6 200.59 435.53 199.97 435.55 198.74 435.95 198.11 435.94 197.67 435.62 197.16 434.59 195.91 433.63 195.12 431.71 194.39 430.93 191.44 431.65 190.02 431.58 189.16 430.4 188.52 428.87 187.7 428.71 186.56 429.12 185 429.23 183.43 428.53 182.88 427.33 182.49 424.3 181.77 423.4 180.55 422.63 175.72 420.74 170.94 420.97 168.77 420.69 164.8 419.32 163.75 418.49 163.08 417.27 162.53 415.81 161.78 414.65 160.58 414.31 157.84 416.2 156.77 416.51 156.54 415.07 157.07 413.76 158.18 412.6 159.51 411.65 160.74 410.96 161.86 410.05 162.5 408.8 162.46 407.51 161.58 406.45 160.47 406.18 159.49 406.23 158.86 405.82 158.84 404.2 158.61 402.45 157.54 401.68 154.73 401.08 153.46 400.27 151.83 398.12 150.71 397.02 149.4 396.28 148.38 395.85 147.63 395.22 147.17 393.82 147.32 392.6 147.7 391.33 147.6 390.33 146.32 389.91 146.78 389.12 147.41 388.66 148.09 388.3 148.67 387.8 149.98 385.07 152.12 382.21 153.22 380.16 153.73 379.49 153.69 378.71 155.53 378.43 258.93 366.18 269.85 373.84 270.48 374.17 271.37 374.47 272.23 374.53 306.56 371.63 Z" id="SDS-864" data-name="Western Equatoria"/>
<path d="M 511.61 426.38 547.91 428.42 546.23 435.97 546.84 478.44 548.41 484.42 549.36 487.06 554.77 496.41 555.8 498.76 556.47 501.2 556.37 503.32 555.61 505.59 554.26 508.16 550.37 513.84 544.08 527.57 541.56 537.59 540.24 540.31 538.6 542.42 536.33 544.64 529.28 549.68 527.99 551.19 526.72 553.65 522.25 565.96 520.6 568.59 520.38 569.75 520.38 569.76 519.02 569.13 518.81 569.08 518.66 569.47 513.28 575.52 512.65 576.09 511.41 576.62 507.72 577.16 504.39 577.65 503.21 578.24 502.42 579.23 502.35 579.29 501.62 579.93 500.38 579.67 491.74 574.98 486.15 571.94 483.49 571.1 480.73 570.71 477.53 570.71 475.77 571.2 473.26 573.16 471.45 574.57 470.84 574.81 469.56 575.07 468.93 575.32 466.84 576.97 465.93 577.4 465.24 577.49 463.9 577.46 463.19 577.7 462.44 578.36 462.1 579.09 461.89 579.88 461.58 580.67 457.11 587.17 455.63 590.08 455.35 591.15 454.54 589.73 455.22 586.25 454.24 585.04 452.14 584.21 451.26 583.55 450.8 582.53 450.59 580.21 450.31 579.55 449.08 578.66 448.03 579.43 446.9 580.76 445.46 581.56 443.57 581.55 442.78 581.65 441.61 582.09 439.48 583.27 438.63 583.48 437.29 583.65 436.59 583.63 436 583.42 435.29 582.85 435.32 582.51 435.72 582.09 436.1 581.26 436.59 578.63 436.63 577.31 435.01 567.39 434.09 565.63 433.43 565.4 432.75 565.48 432.08 565.66 431.43 565.76 430.06 565.72 429.46 565.62 426.9 564.8 421.42 561.55 416.89 560.09 412.49 560.02 411.37 559.64 410.88 559 410.77 558.32 410.76 557.6 410.61 556.87 410.17 556.12 408.54 554.19 407.93 552.63 407.56 551.07 406.86 549.74 405.32 548.88 402.47 548.31 401.47 547.67 400.45 546.22 398.89 543.19 397.85 541.94 396.27 540.99 395.47 540.85 394.69 540.86 393.98 540.7 393.44 540.06 393.37 539.24 393.79 538.52 394.3 537.85 394.52 537.17 393.86 535.79 392.38 534.41 390.63 533.4 389.14 533.18 386.04 533.22 384.22 531.73 383.43 529.24 383.47 526.28 384.07 524.25 384.16 523.55 384.06 522.95 383.59 521.83 383.53 521.24 383.94 520.57 384.25 520.19 386.16 519.13 398.58 509.46 401.15 506.65 402.78 505.18 404.32 504.11 406.06 503.41 407.49 503.1 409.23 503.18 410.75 503.74 412.25 504.78 416.62 508.8 418.33 509.82 420.07 510.23 422.24 509.86 424.62 508.67 433.56 499.95 436.65 497.63 444.37 493.7 453.77 490.63 455.27 489.76 456.08 489.02 456.48 488.31 456.71 487.44 456.94 486.06 458 466.06 458.7 462.75 459.88 459.84 463 455.09 463.75 452.65 463.5 449.77 461.99 446.45 459.98 443.01 455.07 438.44 451.17 435.8 449.78 434.22 447.93 431.09 446.32 429 443.63 426.43 436.17 420.74 428 413.27 442.97 412.02 449.01 410.81 453.97 408.26 457.41 408.37 469.99 419.01 478.23 422.57 501.18 426.74 505.68 429.14 508.17 429.41 511.61 426.38 Z" id="SDS-865" data-name="Central Equatoria"/>
<path d="M 615.61 1.39 615.19 6.96 611.27 20.04 611.34 27.88 610.42 36.84 610.19 37.57 609.31 39.5 608.53 40.6 607.65 41.67 607.39 42.07 607.09 42.73 607.07 43.72 610.42 68.78 613.78 93.85 613.52 95.12 613.27 95.95 611.49 99.07 611.02 100.1 610.93 100.9 611.65 101.44 626.52 106.86 627.25 107.21 627.82 107.65 633.18 114.1 647.82 125.99 662.47 137.89 663.48 139.08 666.51 146.55 666.85 147.68 666.95 149.47 666.88 150.86 666.12 155.35 666.37 157.36 666.88 158.69 667.28 160.23 667.28 160.7 667.22 161.1 667 161.81 662.66 170.45 661.24 176.59 660.82 181.76 661.07 184.75 661.56 186.67 661.79 187.11 661.98 187.44 662.18 187.63 662.39 187.72 673.87 187.77 674.71 204.64 675.68 224.2 676.66 243.77 676.35 245.46 676.07 246.96 675.2 248.51 673.8 250.05 667.11 256.02 665.73 256.85 664.47 257.19 660.65 257.2 658.33 257.47 657.2 257.77 656.11 258.24 655.41 258.71 652.6 261.11 652.31 261.2 651.58 261.32 648.5 260.93 646.86 259.07 645.53 256.76 643.42 254.99 642.05 254.77 641.05 255.16 640.09 255.7 638.8 255.92 637.78 255.49 636.76 254.67 635.62 254.03 634.25 254.09 634.62 254.59 634.59 254.84 633.96 255.19 629.4 255.73 628.52 255.53 627.98 255.58 627.47 255.84 626.54 256.56 625.9 256.77 618.55 255.16 617.36 255.33 615.42 257.02 615.48 257.29 615.69 257.69 615.18 258.14 614.16 258.34 613.23 258.79 612.93 259.27 612.81 259.79 612.82 260.93 612.74 261.24 612.41 261.69 612.36 262.06 612.51 262.27 613.11 262.71 613.23 262.94 613.08 263.77 612.49 265.04 612.36 265.54 612.58 266.34 613.05 267 613.53 267.5 614.02 268.25 614.64 268.61 615.55 268.99 615.45 269.86 614.98 270.22 614.34 270.43 613.74 270.88 613.23 271.63 612.95 272.25 612.84 272.93 612.82 273.88 613.03 274.24 613.95 274.9 614.16 275.26 613.98 276.6 613.45 277.55 612.6 278.23 611.44 278.77 609.41 279.1 609.13 279.44 608.99 280.01 608.67 280.7 608.26 281.34 604.43 285.23 603.57 286.39 603.22 287.07 602.92 288.49 602.59 288.96 602.27 289.3 601.97 289.93 601.95 289.92 601.87 289.89 593.85 286.43 592.34 285.43 590.71 283.87 590.51 281.99 590.96 280.09 593.05 275.7 593.95 273.16 594.51 270.36 594.76 267.6 594.43 264.3 593.41 262.13 591.74 260.66 584.63 257.28 578.85 252.36 574.95 247.66 562.93 226.74 561.74 223.74 559.34 218.96 557.99 217.26 556.64 216.39 555.35 216.35 553.8 216.78 552.15 217.55 543.9 222.57 534.89 226.88 532.71 227.43 530.11 227.48 527.37 226.41 525.09 224.42 502.63 194.67 501.81 193.92 501.44 193.74 500.94 193.71 500.68 193.86 497.59 194.9 494.59 195.3 493.6 195.14 492.21 194.72 490.97 194.19 490.43 193.66 489.82 192.81 488.39 192.37 485.35 192.02 474.65 189.25 466.48 184.73 463.48 183.71 462.05 183.5 462.81 167.62 462.83 167.62 477.32 166.84 482.08 164.93 496.62 150.66 511.16 136.39 518.56 127.29 520.44 125.44 524.64 118.95 529.09 107.81 529.97 106.55 545.9 93.18 561.83 79.81 562.96 77.69 563.27 76.01 558.46 67.02 557.42 62.45 557.21 55.41 558.16 44.46 557.83 37.55 557.7 36.76 557.39 35.69 557.18 35.29 539.39 15.63 561.86 15.53 584.33 15.43 584.43 13.81 584.39 12.95 584.25 12.16 583.4 9.8 582.91 6.67 582.88 5.8 582.94 4.94 583.2 3.32 583.23 2.44 583.18 2.02 583.1 1.63 583.12 1.29 583.32 1 615.61 1.39 Z" id="SDS-869" data-name="Upper Nile"/>
<path d="M 462.05 183.5 463.48 183.71 466.48 184.73 474.65 189.25 485.35 192.02 488.39 192.37 489.82 192.81 490.43 193.66 490.97 194.19 492.21 194.72 493.6 195.14 494.59 195.3 497.59 194.9 500.68 193.86 500.94 193.71 501.44 193.74 501.81 193.92 502.63 194.67 525.09 224.42 527.37 226.41 530.11 227.48 532.71 227.43 534.89 226.88 543.9 222.57 552.15 217.55 553.8 216.78 555.35 216.35 556.64 216.39 557.99 217.26 559.34 218.96 561.74 223.74 562.93 226.74 574.95 247.66 578.85 252.36 584.63 257.28 591.74 260.66 593.41 262.13 594.43 264.3 594.76 267.6 594.51 270.36 593.95 273.16 593.05 275.7 590.96 280.09 590.51 281.99 590.71 283.87 592.34 285.43 593.85 286.43 601.87 289.89 601.95 289.92 601.97 289.93 601.92 290.04 601.03 291 600.77 291.74 602.48 296.25 603.05 297.3 604.22 297.99 604.48 298.56 604.68 299.18 604.93 299.59 605.4 299.81 607.24 300.01 608.73 300.67 609.63 300.8 610.05 300.24 610.4 300.08 612.59 299.59 613.16 299.7 615.09 300.47 617.28 300.81 617.85 300.97 618.9 301.87 619.96 303.11 621.18 304.2 624.94 305.15 625.79 305.13 627.46 304.04 628.06 303.75 630.98 303.15 632.73 303.09 633.89 303.52 634.5 303.99 635.74 304.34 636.41 304.67 637.07 305.28 638.01 306.51 638.72 307.02 640.17 307.43 644.55 307.02 645.27 307.2 647.11 308.4 649.25 309.01 649.89 309.33 650.79 310.35 652.93 313.32 656.34 315.83 657.01 316.01 658.41 316.18 659.12 316.34 661.14 317.52 669.53 326.05 670.69 327.91 671.16 330.19 671.2 336.5 671.36 336.85 671.8 337.05 674.9 339.47 676.75 341.77 678.05 342.72 679.31 342.45 680.44 341.91 681.36 342.47 682 343.66 682.33 345.05 682.33 347.16 682.33 347.89 682.5 349.42 683.02 350.09 683.55 350.26 683.97 350.65 684.64 351.52 687.41 353.55 687.74 353.95 688.08 355.12 688.55 355.45 689.01 355.65 689.22 355.9 698.79 358.18 703.15 361.21 703.74 362.1 704.2 363.13 704.48 364.31 704.58 365.64 704.43 365.83 703.8 366.27 703.66 366.33 703.73 366.74 704.04 367.43 704.12 367.72 704.58 370.49 705.36 371.15 706.56 371.41 709.45 371.41 710.92 371.59 712.07 372.05 716.67 375.08 717.09 375.82 717.41 377.06 718.23 377.99 718.7 378.28 719.38 381.04 720.08 383.77 721.58 387.63 722.13 391.52 722.71 392.89 725.4 397.5 725.84 399.25 725.89 403.23 726.22 404.59 728.6 408.72 729.88 412.03 731.01 413.31 732.29 414.48 733.44 415.92 733.98 417.23 734.56 420.86 734.54 420.86 681.81 436.59 547.91 428.42 511.61 426.38 511.22 425.33 510.75 425.33 510.31 425.6 509.91 425.63 509.32 425.06 508.7 424.24 508.22 423.36 508.02 422.63 507.82 421.28 505.76 416 505.09 414.92 504.32 413.99 503.61 413.58 502.82 412.85 502.23 411.16 501.51 408.04 499.9 404.59 499.61 401.9 499.32 400.68 498.88 399.59 498.32 398.72 493.98 393.55 493.2 391.8 492.97 388.93 492.56 387.66 491.59 387.14 490.35 386.92 489.53 386.28 488.98 385.27 488.59 383.9 488.13 380.75 487.72 379.36 486.95 378.78 486.49 378.54 486.37 377.95 486.31 377.27 486.02 376.73 483.93 374.67 483.4 373.47 483.08 372.27 482.55 371.35 481.39 370.97 480.54 370.58 479.88 369.66 478.85 367.7 477.29 366.11 476.24 365.29 474.9 364.76 474.43 364.35 473.47 363.29 472.97 362.95 471.79 362.43 471.42 362.16 471.16 361.54 470.91 360.04 470.49 359.35 469.78 358.93 468.12 358.56 467.45 358.19 466.47 357.49 464.22 356.46 459.64 352.65 459.13 352.4 457.42 352.02 456.83 351.96 456.23 351.82 455.81 351.48 453.97 348.85 453.73 348.31 453.54 347.85 453.36 346.59 452.87 345.8 449.63 344.07 448.24 342.22 447.38 341.59 447.04 341.21 446.73 339.09 446.29 338.24 445.68 337.45 445.01 336.13 444.55 334.33 443.43 333.05 442.99 332 442.66 329.25 441.99 327.89 439.88 325.65 439.43 324.38 439.22 323.5 438.72 323.34 438.11 323.4 437.58 323.16 437.54 322.88 437.65 322.08 437.58 321.82 436.82 321.14 436.62 320.9 436.29 320.68 435.58 320.04 435.11 319.36 435.51 319.05 436.33 318.98 436.82 318.74 437.06 318.24 437.12 317.41 436.9 316.14 436.31 314.85 435.49 313.86 433.96 313.19 433.89 312.53 433.98 311.76 433.89 311.16 433.45 310.72 432.37 309.91 432 309.31 432.13 308.75 432.66 308.34 433.03 307.89 432.48 306.63 433.01 303.56 433.24 303.17 433.56 302.88 433.89 302.34 434.26 301.9 434.73 301.45 434.88 300.98 434.31 300.45 434.31 299.99 434.82 299.93 435.12 299.82 435.36 299.7 435.74 299.57 434.44 299.17 433.89 299.15 433.89 298.65 434.83 298.02 434.37 297.58 433.44 297.14 432.92 296.57 432.92 294.68 432.78 294.19 432.15 293.77 431.44 291.36 427.38 286.6 428.15 285.98 427.34 284.7 425.99 283.21 425.11 281.94 425.03 281 425.09 279.98 425.03 279.03 424.57 278.29 423.76 278.23 422.9 278.59 422.31 278.55 422.3 277.32 420.53 278.13 419.61 276.02 419.39 273.17 419.74 271.74 420.85 271.38 420.7 270.61 420.19 269.83 420.23 269.47 421.44 269.03 421.36 268 419.99 265.78 420.49 265.58 421.84 264.81 421.42 264.12 421.1 262.21 420.46 261.54 420.92 259.69 421.26 259.34 421.72 259.09 422.13 258.75 422.51 256.93 422.85 255.98 422.92 255.01 422.3 253.73 422.05 253.66 421.2 253.79 420.92 253.73 420.85 253.44 420.99 252.58 420.92 252.3 418.95 250.99 418.61 250.69 418.39 249.97 417.4 248.97 417.18 248.36 417.41 247.49 417.79 246.79 417.86 246.23 417.18 245.8 417.17 246.02 417.21 246.5 417.18 246.72 416.76 246.72 416.79 245.9 416.99 245.04 417.31 244.21 417.68 243.49 419 241.8 419.52 240.81 419.49 239.79 419.1 239.26 418.63 239.1 418.14 239.05 417.68 238.87 414.99 236.37 414.43 235.63 413.95 234.72 414.79 234.06 415.48 233.31 415.76 232.45 415.37 231.44 414.87 231.9 414.5 230.81 414.59 228.46 414.45 227.29 414.15 226.72 413.34 225.94 413.03 225.4 412.96 224.98 413.04 224.05 413.03 223.55 412.77 222.5 411.99 221.12 411.64 220.32 411.5 219.16 411.68 218.07 412.08 217.17 412.56 216.58 412.98 216.41 414.1 216.23 414.45 216.12 415.65 214.89 415.8 214.78 415.9 214.4 416.08 213.27 416.26 212.89 416.63 212.63 417.59 212.32 418.1 212.01 418.85 211.21 419.13 210.49 419.49 208.27 420.13 207.04 421.06 206.37 422.03 205.83 422.8 204.99 422.33 204.5 422.5 204.12 422.92 203.72 423.23 203.19 423.23 198.78 423.07 197.78 422.64 197.41 422.05 197.21 421.38 196.68 420.54 194.99 421.3 194.32 422.56 193.85 423.23 192.74 423.56 191.22 424.33 190.3 425.24 189.61 425.95 188.79 426.71 186.6 427.31 185.85 428.54 185.56 429.48 185.22 430.23 184.43 430.9 183.51 431.58 182.79 432.71 182.24 433.97 181.98 442.24 182.33 450.88 184.36 453.79 184.68 459.16 184.68 460.2 184.46 461.06 184.02 462.05 183.5 Z" id="SDS-870" data-name="Jonglei"/>
<path d="M 462.81 167.62 462.05 183.5 461.06 184.02 460.2 184.46 459.16 184.68 453.79 184.68 450.88 184.36 442.24 182.33 433.97 181.98 432.71 182.24 431.58 182.79 430.9 183.51 430.23 184.43 429.48 185.22 428.54 185.56 427.31 185.85 426.71 186.6 425.95 188.79 425.24 189.61 424.33 190.3 423.56 191.22 423.23 192.74 422.56 193.85 421.3 194.32 420.54 194.99 421.38 196.68 422.05 197.21 422.64 197.41 423.07 197.78 423.23 198.78 423.23 203.19 422.92 203.72 422.5 204.12 422.33 204.5 422.8 204.99 422.03 205.83 421.06 206.37 420.13 207.04 419.49 208.27 419.13 210.49 418.85 211.21 418.1 212.01 417.59 212.32 416.63 212.63 416.26 212.89 416.08 213.27 415.9 214.4 415.8 214.78 415.65 214.89 414.45 216.12 414.1 216.23 412.98 216.41 412.56 216.58 412.08 217.17 411.68 218.07 411.5 219.16 411.64 220.32 411.99 221.12 412.77 222.5 413.03 223.55 413.04 224.05 412.96 224.98 413.03 225.4 413.34 225.94 414.15 226.72 414.45 227.29 414.59 228.46 414.5 230.81 414.87 231.9 415.37 231.44 415.76 232.45 415.48 233.31 414.79 234.06 413.95 234.72 414.43 235.63 414.99 236.37 417.68 238.87 418.14 239.05 418.63 239.1 419.1 239.26 419.49 239.79 419.52 240.81 419 241.8 417.68 243.49 417.31 244.21 416.99 245.04 416.79 245.9 416.76 246.72 417.18 246.72 417.21 246.5 417.17 246.02 417.18 245.8 417.86 246.23 417.79 246.79 417.41 247.49 417.18 248.36 417.4 248.97 418.39 249.97 418.61 250.69 418.95 250.99 420.92 252.3 420.99 252.58 420.85 253.44 420.92 253.73 421.2 253.79 422.05 253.66 422.3 253.73 422.92 255.01 422.85 255.98 422.51 256.93 422.13 258.75 421.72 259.09 421.26 259.34 420.92 259.69 420.46 261.54 421.1 262.21 421.42 264.12 421.84 264.81 420.49 265.58 419.99 265.78 421.36 268 421.44 269.03 420.23 269.47 420.19 269.83 420.7 270.61 420.85 271.38 419.74 271.74 419.39 273.17 419.61 276.02 420.53 278.13 422.3 277.32 422.31 278.55 422.9 278.59 423.76 278.23 424.57 278.29 425.03 279.03 425.09 279.98 425.03 281 425.11 281.94 425.99 283.21 427.34 284.7 428.15 285.98 427.38 286.6 431.44 291.36 432.15 293.77 432.78 294.19 432.92 294.68 432.92 296.57 433.44 297.14 434.37 297.58 434.83 298.02 433.89 298.65 433.89 299.15 434.44 299.17 435.74 299.57 435.36 299.7 435.12 299.82 434.82 299.93 434.31 299.99 434.31 300.45 434.88 300.98 434.73 301.45 434.26 301.9 433.89 302.34 433.56 302.88 433.24 303.17 433.01 303.56 432.48 306.63 433.03 307.89 432.66 308.34 432.13 308.75 432 309.31 432.37 309.91 433.45 310.72 433.89 311.16 433.98 311.76 433.89 312.53 433.96 313.19 435.49 313.86 436.31 314.85 436.9 316.14 437.12 317.41 437.06 318.24 436.82 318.74 436.33 318.98 435.51 319.05 435.11 319.36 435.58 320.04 436.29 320.68 436.62 320.9 436.82 321.14 437.58 321.82 437.65 322.08 437.54 322.88 437.58 323.16 438.11 323.4 438.72 323.34 439.22 323.5 439.43 324.38 439.88 325.65 441.99 327.89 442.66 329.25 442.99 332 443.43 333.05 444.55 334.33 445.01 336.13 445.68 337.45 446.29 338.24 446.73 339.09 447.04 341.21 447.38 341.59 448.24 342.22 449.63 344.07 452.87 345.8 453.36 346.59 453.54 347.85 453.73 348.31 421.04 347.52 413.1 345.02 391.54 300.79 390.78 299.85 389.67 299.31 388.52 299.05 378.18 298.24 375.73 258.8 375.1 257.42 373.98 255.96 354.65 242.74 337.37 216.52 333.56 215.26 319.71 216.37 320.44 214.5 322.09 207.21 323.19 205.14 324.57 203.81 327.74 202.79 329.25 202.11 330.64 200.97 330.88 200.42 330.92 200.13 330.26 199.72 329.35 198.85 328.82 198.41 327.61 197.74 326.98 197.46 326.3 197.37 325.74 197.11 325.2 196.97 324.71 197.11 324.18 197.21 323.62 197.37 323.2 197.4 322.81 197.34 322.41 197.04 321.81 196.83 321.31 196.79 320.44 196.6 320.37 196.56 319.54 194.89 319.26 192.48 319.35 189.6 320.75 187 325.11 182.73 330.22 178.81 331.58 177.71 339.88 173.35 348 170.42 363.61 167 369.3 161.61 372.45 156.67 372.56 146.95 374.62 145.36 378.34 143.1 396.39 134.42 399.44 132.59 415.39 142.68 431.34 152.77 449.24 168.75 450.32 169.53 451.26 169.83 452.2 169.28 453 168.54 454.3 168.05 455.17 167.83 462.81 167.62 Z" id="SDS-871" data-name="Unity"/>
<path d="M 378.18 298.24 369.43 311.52 347.24 335.97 342.82 342.38 341.6 344.88 333.28 372 332.52 373.5 331.15 375.33 329.09 376.57 326.8 377.49 324.51 378.06 322.1 378.42 319.85 378.49 317.53 378.13 312.1 375.9 306.56 371.63 303.84 356.14 303.22 347.74 304.44 337.11 304.6 326.16 304.27 323.48 303.49 321.84 300.83 319.74 300.29 318.44 300.58 317.07 301.31 315.35 301.43 313.58 300.47 312.03 298.27 310.81 295.45 309.8 286.89 305.14 281.26 300.82 276.41 297.83 273.09 296.42 262.86 294.67 261.55 294.14 260.56 293.42 258.99 291.9 254.76 286.62 246 272.31 243.02 269.16 247.42 249.76 248.86 246.8 250.88 244.03 252.8 240.4 253.69 237.46 254.58 227.15 255.96 223.2 257.35 221.32 258.73 220.26 260.67 219.39 263.56 218.72 271.28 218.01 282.83 218.47 283.52 218.62 287.98 219.14 288.63 219.15 289.3 219.03 290.26 218.57 290.41 218.49 319.71 216.37 333.56 215.26 337.37 216.52 354.65 242.74 373.98 255.96 375.1 257.42 375.73 258.8 378.18 298.24 Z" id="SDS-872" data-name="Warrap"/>
<path d="M 134.96 151.68 134.96 151.68 135.28 157.26 133.02 180.35 132.79 224.92 136.39 247.77 136.64 257.17 138.09 266.44 140.53 274.04 144.63 279.82 148.59 283.39 170.83 297.81 173.56 298.85 175.86 299.18 177.74 299.09 179.42 298.7 181.18 298.02 185.4 295.79 192.8 290.79 233.42 271.69 243.02 269.16 246 272.31 254.76 286.62 258.99 291.9 260.56 293.42 261.55 294.14 262.86 294.67 273.09 296.42 276.41 297.83 281.26 300.82 286.89 305.14 295.45 309.8 298.27 310.81 300.47 312.03 301.43 313.58 301.31 315.35 300.58 317.07 300.29 318.44 300.83 319.74 303.49 321.84 304.27 323.48 304.6 326.16 304.44 337.11 303.22 347.74 303.84 356.14 306.56 371.63 272.23 374.53 271.37 374.47 270.48 374.17 269.85 373.84 258.93 366.18 155.53 378.43 153.69 378.71 153.61 377.22 150.34 375.38 146.34 373.9 144.02 372.71 142.88 371.53 140.13 369.61 138.03 366.98 136.96 366.51 135.73 366.19 134.21 365.25 133.52 364.44 133.27 363.69 133.16 362.93 132.88 362.06 132.85 361.65 132.99 361.23 133.02 360.87 132.72 360.6 132.33 360.6 131.89 360.71 131.46 360.76 131.11 360.56 130.46 359.03 130.23 355.53 129.81 354 126.77 353.75 125.98 353.53 125.79 353.11 125.76 352.59 125.37 352.12 124.69 351.84 123.33 351.64 122.65 351.47 120.52 350.27 120.2 349.64 120.04 348.38 119.75 347.84 118.62 347.31 115.58 347.03 114.57 346.68 113.95 345.58 113.95 344.69 113.58 344.13 111.9 344.05 111.15 343.86 110.08 342.79 109.41 342.5 108.1 342.52 107.55 342.37 105.91 341.07 104.64 340.56 100.48 339.49 99.41 338.91 96.37 336.14 95.36 335.52 94.25 335.33 92.95 335.77 91.19 334.96 88.56 332.96 84.76 331.08 83.87 330.44 83.13 329.45 82.77 328.47 82.33 326.53 81.8 325.56 81.36 325.23 80.22 324.88 79.69 324.59 79.29 324.13 78.64 323.06 78.22 322.59 77.32 321.99 73.29 319.88 71.84 316.5 71.54 315.4 71.58 314.56 73.02 313.19 77.49 311.68 79.01 310.36 79.31 309.17 79.11 308.17 78.71 307.23 78.45 306.22 78.71 303.31 78.66 302.32 78.3 301.18 77.29 299.38 76.6 297.24 75.95 296.18 75.08 295.34 73.37 294.77 72.95 294.4 72.62 293.99 72.12 293.68 70.46 293.41 69.5 293.41 67.4 293.87 66.47 293.93 64.41 293.17 62.39 291.63 59.14 288.02 58.56 287.7 58.03 287.32 57.58 286.88 57.21 286.38 57.07 285.17 55.68 283.75 55.53 281.35 54.86 280.26 49.06 274.94 46.9 273.95 42.98 273.51 40.84 272.33 39.47 272.17 38.15 272.15 34.36 271.46 29.62 272.2 27.46 272.13 25.33 270.81 24.67 270.66 24.18 270.37 23.82 269.93 23.54 269.33 21.93 267.79 19.6 268.03 15.24 269.53 14.88 269.33 13.76 268.45 13.25 268.19 12.76 268.12 11.79 268.12 10.58 267.98 10.16 267.94 7.82 267.4 6.75 266.99 4.95 266.01 3.12 264.64 1.66 262.94 1 260.96 1.24 258.76 2.06 256.46 5.84 250.14 6.52 249.39 9.26 247.58 9.72 246.94 9.39 246.12 7.55 244.68 7.07 243.73 7.33 242.77 8.57 240.98 8.72 240.02 7.5 239.38 4.98 239.43 4.3 239.52 4.6 239.1 4.75 238.14 5.16 237.59 9.05 234.64 11.1 233.68 18.49 229.05 20.03 228.73 26.18 228.09 29.49 226.99 30.17 226.62 30.54 226.17 30.54 218.96 30.61 218.52 31.01 217.51 37.14 207.2 37.41 206.54 37.48 206.18 38.78 193.26 39.24 192.04 39.78 191.26 41.74 189.48 45.89 184.87 46.38 183.32 46.5 182.52 46.39 164.52 46.64 163.13 46.87 162.7 47.13 162.43 47.38 162.38 48.02 162.33 48.75 162.2 49.34 161.93 49.92 161.59 52.25 159.68 54.58 158.27 55.47 157.29 57.32 154.79 58.24 153.86 58.81 153.09 59.39 151.86 59.78 150.67 61.55 147.04 62.29 145.05 62.37 144.66 62.39 144.24 62.35 143.85 62.14 143.16 61.58 141.89 61.48 141.55 61.33 140.8 61.39 140.24 61.56 139.52 64.94 132.29 65.61 131.48 66.1 131.05 66.52 130.88 67.58 130.57 68.56 130.18 69.29 130.03 71.02 130.17 71.8 130.04 73.43 129.41 73.82 129.4 74.61 129.5 75.06 129.44 75.67 129.2 76.15 129.08 76.61 129.04 77.42 129.17 77.79 129.29 78.47 129.59 78.86 129.71 79.26 129.78 79.67 129.79 80.03 129.71 80.68 129.47 81.06 129.43 81.8 129.54 82.19 129.53 82.55 129.47 83.81 128.88 84.16 128.78 84.96 128.69 85.39 128.68 86.2 128.6 86.89 128.38 87.53 128.09 88.53 127.75 89.3 127.61 90.12 127.53 92.84 127.63 93.61 127.51 94.45 127.27 94.66 127.24 99.66 125.5 102.57 124.79 102.95 124.73 105.14 124.71 106.68 124.46 107.75 124.17 108.14 124.1 110.86 124.21 111.4 124.14 112 123.98 113.42 123.3 116.44 122.51 117.18 122.44 117.43 122.62 120.37 126.24 120.71 126.81 120.85 127.12 120.93 127.49 121.34 137.96 121.47 138.33 121.65 138.62 122.09 139.1 122.61 139.53 125.05 140.95 126.07 141.39 127.91 141.92 128.1 142.02 128.53 142.36 128.77 142.58 129.17 143.11 133.21 149.68 134.01 150.69 134.96 151.68 Z" id="SDS-873" data-name="Western Bahr el Ghazal"/>
<path d="M 799 514.78 794.65 514.76 789.56 514.74 789.37 510.79 786.73 510.6 784.84 511.92 784.47 514.74 784.46 514.77 784.09 516.83 778.12 514.77 778.02 514.74 774.77 508.84 772.04 503.89 775.33 495.51 770.24 494.01 763.51 494.01 766.06 488.78 764.56 486.98 759.28 489.9 754.54 492.52 753.34 490.27 748.64 492.04 743.1 494.13 736.91 496.46 731.37 498.54 726.22 500.47 720.73 502.54 714.15 504.93 709.55 507.24 704.88 509.57 700.18 511.99 694.87 514.73 688.04 521.5 681.21 528.27 674.38 535.04 667.54 541.81 662.06 547.31 656.49 552.88 648.93 560.45 642.46 566.94 637.48 571.93 637.15 572.13 634.64 573.59 631.71 573.96 620.84 573.41 619.29 573.33 614.68 573.1 612.58 572.69 611.16 571.95 602.63 564.98 601.27 564.41 600.08 564.84 595.98 567.88 590.66 570.58 584.99 572.29 574.36 573.15 561.93 574.17 558.97 574.86 546.53 582.43 545.73 583.34 545.66 584.22 545.95 586.64 545.93 587.69 545.73 588.64 545.63 589.07 545.19 589.66 544.37 589.69 540.12 588.83 538.98 588.24 537.95 587.17 537.5 586.46 536.64 585.08 535.87 584.67 535.33 584.64 530.02 584.31 529.1 583.83 528.63 582.69 528.42 579.58 528.17 578.29 527.19 576.67 522.38 571.29 520.78 569.94 520.38 569.76 520.38 569.75 520.6 568.59 522.25 565.96 526.72 553.65 527.99 551.19 529.28 549.68 536.33 544.64 538.6 542.42 540.24 540.31 541.56 537.59 544.08 527.57 550.37 513.84 554.26 508.16 555.61 505.59 556.37 503.32 556.47 501.2 555.8 498.76 554.77 496.41 549.36 487.06 548.41 484.42 546.84 478.44 546.23 435.97 547.91 428.42 681.81 436.59 734.54 420.86 734.56 420.86 734.68 421.63 733.97 423.06 733.73 423.83 733.7 424.61 734.04 425.35 735.15 426.54 735.36 427.3 735.22 428.26 735 429.03 734.87 429.78 734.99 430.66 735.66 432.16 741.14 439.91 742.1 441.71 742.69 445.64 743.4 446.94 746.42 449.16 751.83 452.31 754.44 454.42 754.94 455.78 755.23 456.58 754.82 457.35 754.24 458.05 753.75 458.78 753.68 459.61 753.94 460.23 756.17 463.74 757.17 464.87 758.42 465.45 760.05 465.21 761.58 464.15 764.33 461.14 765.82 460.14 767.04 459.91 768.46 459.91 769.87 460.09 771.08 460.4 772.62 461.3 775.54 463.65 777.18 464.1 778.79 463.76 779.99 463.2 781.25 462.9 782.96 463.37 787.4 466.1 791.11 467.53 791.44 468.13 789.61 470.79 789.16 472.36 789.37 473.68 790.71 476.24 791.31 477.86 791.33 479.25 790.77 480.61 788.19 483.88 787.84 484.75 787.56 498.89 788.12 502.18 789.78 504.99 799 514.78 Z" id="SDS-892" data-name="Eastern Equatoria"/>
</g>
</svg>