<?xml version="1.0"?>
<svg xmlns="http://www.w3.org/2000/svg" version="1.2" baseProfile="tiny" width="800" height="584" viewBox="0 0 800 584" stroke-linecap="round" stroke-linejoin="round">
<g id="ne_10m_admin_1_states_provinces">
<path d="M 35.62 574.57 29.3 583.46 22.6 578.45 11.39 580.01 1 569.31 5.32 561.42 32.11 553.72 46.51 556.54 35.62 574.57 Z M 369.73 505.58 357.4 516.6 337.12 558.04 323.84 538.51 307.69 537.01 289.29 543.2 269 547.52 246.53 542.52 217.79 520.23 195.01 515.1 161.95 524.11 131.78 542.01 100.04 554.54 63.23 547.52 63.23 536.07 71.43 533.25 76.81 530.62 83.32 528.37 94.72 526.49 92.9 496.69 144.74 453.49 158.63 426.32 159.39 380.12 165.33 360.34 179.67 337.43 184.86 322.72 183.05 312.39 186.12 306.19 220.17 301.37 257.36 286.34 289.54 261.93 336.61 237.26 358.28 220.11 425.64 123.83 461.95 82.38 516.79 51.96 598.86 23.54 656.64 15.4 685.44 6.07 713.05 1 738.4 9.01 729.51 31.17 698.02 88.89 701.03 109.74 709.29 121.2 719.24 146.74 727.76 157.01 739.65 161.39 767.82 163.45 779.34 168.4 787.48 177.04 797 190.87 799 203.83 785.1 209.47 776.21 214.35 754.55 241.02 743.1 246.4 733.71 258.67 725.38 272.95 716.36 284.03 706.85 289.85 664.78 304 677.68 346.07 644.12 368.6 591.35 385.44 547.34 410.05 548.71 429.02 464.58 462.45 442.29 478.79 433.02 490.81 411.43 496.69 387.2 500.38 369.73 505.58 Z" fill-rule="evenodd" id="IMN+00?" data-name="Isle of Man"/>
</g>
</svg>