<?xml version="1.0"?>
<svg xmlns="http://www.w3.org/2000/svg" version="1.2" baseProfile="tiny" width="800" height="720" viewBox="0 0 800 720" stroke-linecap="round" stroke-linejoin="round">
<g id="ne_10m_admin_1_states_provinces">
<path d="M 594.33 153.16 594.32 153.17 594.15 153.7 583.41 186.82 552.29 211.72 530.27 228.95 495.32 246.67 525.48 271.09 547.51 287.84 551.34 293.11 548.94 344.82 539.89 349.02 515.3 360.42 511.59 362.79 514.62 375.11 516.31 381.62 515.74 383.95 516.35 385.95 519.66 386.23 540.22 388.16 554.58 389.52 557.67 389.88 559.47 390.1 561.11 390.92 561 396.36 560.92 400.35 559.81 406.4 560.19 419.85 560.36 426.16 560.58 433.77 562.52 443.54 562.9 445.47 563.73 448.49 566.01 458.08 567.1 462.72 569.94 480.44 569.95 480.54 569.95 480.55 559.34 480.61 557.73 481.03 556.84 481.67 556.82 481.66 535.43 475.75 531.03 471.69 527.11 468.83 521.84 466.27 512.6 463.56 506.27 463.8 501.58 463.42 497.95 463.71 490.31 464.72 481.46 468.01 475.65 469.7 471.69 468.83 468.54 466.56 466.08 461.97 460.95 453.45 460.08 449.73 455.34 445.62 452.73 443.1 450.89 442.81 447.07 443.78 441.51 444.12 441.12 441.94 439.28 441.12 437.3 442.52 433.09 447.12 428.69 447.02 425.74 448.96 425.01 451.13 425.35 455.39 423.71 456.79 420.18 458.34 418 460.66 413.75 459.84 408.18 460.52 408.04 455.05 407.02 451.91 402.86 448.86 401.51 444.51 398.08 444.75 394.16 445.23 392.76 446.15 389.13 449.63 382.45 450.31 378.92 452.68 367.41 456.31 359.72 455.92 352.13 455.24 347.87 455.44 345.02 454.95 341.2 451.81 338.1 454.95 335.06 457.66 327.78 459.88 327.72 459.89 327.75 459.71 327.8 459.47 328.71 454.77 329.61 450.08 330.52 445.38 331.43 440.69 332.31 436.11 333.2 431.53 334.08 426.96 334.97 422.38 335.24 420.95 335.19 420.64 335.14 420.33 334.91 420.08 334.68 419.84 332.74 418.55 330.76 417.23 328.85 415.95 326.71 414.52 324.93 413.33 323.02 412.06 322.6 411.28 322.18 410.51 321.97 408.56 321.49 404.2 321 399.83 320.53 395.47 320.05 391.11 319.57 386.74 319.09 382.38 318.61 378.02 318.13 373.65 317.65 369.29 317.17 364.93 316.7 360.56 316.21 356.2 315.74 351.84 315.26 347.47 314.78 343.11 314.3 338.75 313.81 334.26 313.32 329.78 312.82 325.29 312.33 320.81 311.84 316.32 311.34 311.84 310.85 307.35 310.36 302.86 309.87 298.38 309.38 293.89 308.88 289.41 308.39 284.92 308.08 282.1 307.77 279.28 307.46 276.46 307.15 273.64 306.42 266.98 306.42 266.98 306.42 266.98 306.42 266.98 305.72 260.93 305.03 254.89 304.34 248.84 303.64 242.8 302.95 236.75 302.25 230.71 301.56 224.66 300.86 218.62 300.25 213.4 299.92 210.57 299.19 204.34 298.46 198.11 298.13 195.27 297.45 189.44 296.77 183.6 296.08 177.77 295.4 171.93 294.72 166.09 294.03 160.26 293.35 154.42 292.67 148.58 291.99 142.75 291.3 136.91 290.62 131.07 289.94 125.24 289.25 119.4 288.57 113.56 287.89 107.73 287.2 101.89 286.52 96.06 285.99 91.49 285.84 90.22 285.16 84.39 284.47 78.55 283.79 72.71 283.11 66.87 282.42 61.04 281.74 55.2 281.39 52.21 280.62 45.63 279.85 39.05 279.5 36.05 279.47 35.78 279.01 31.86 278.54 28 278.08 24.15 277.61 20.3 277.14 16.45 276.67 12.6 276.21 8.75 275.75 4.9 275.28 1.05 285.98 1.04 296.7 1.03 307.41 1.03 318.12 1.02 328.82 1.02 339.53 1.01 350.24 1.01 360.95 1 360.96 1 360.96 1.01 360.97 1.01 364.66 3.32 368.35 5.63 372.04 7.93 375.73 10.24 381.1 13.76 384.96 16.28 388.82 18.8 392.67 21.32 396.52 23.84 400.37 26.36 404.23 28.87 408.09 31.4 411.94 33.92 415.8 36.44 419.65 38.96 423.5 41.48 427.36 44 431.22 46.52 435.07 49.04 438.92 51.56 442.78 54.08 446.97 56.82 451.16 59.56 455.35 62.3 459.54 65.04 463.73 67.78 467.92 70.52 472.11 73.26 476.31 76 480.5 78.74 484.69 81.48 488.87 84.22 493.07 86.96 497.26 89.7 501.45 92.44 505.64 95.18 509.83 97.92 514.02 100.65 518.21 103.4 522.4 106.14 526.59 108.88 530.78 111.61 534.97 114.36 539.16 117.09 543.35 119.84 547.54 122.58 551.73 125.32 555.92 128.05 560.11 130.79 564.31 133.53 568.5 136.27 572.69 139.02 576.88 141.76 581.07 144.49 585.26 147.23 589.45 149.97 593.64 152.71 594.33 153.16 Z" id="MLI-2688" data-name="Timbuktu"/>
<path d="M 777.46 288.01 782.11 287.14 790.39 285.61 798.66 284.07 798.68 290.05 798.7 296.03 798.72 302.01 798.74 307.99 798.74 308.1 798.76 313.97 798.78 319.95 798.8 325.93 798.82 331.91 798.84 337.89 798.84 340.51 798.82 340.51 772.54 340.51 735.67 340.51 689.71 340.51 681.09 351.04 652.36 357.27 621.72 332.85 611.66 322.32 597.3 305.08 551.34 293.11 547.51 287.84 525.48 271.09 495.32 246.67 530.27 228.95 552.29 211.72 583.41 186.82 594.15 153.7 594.32 153.17 594.33 153.16 597.83 155.46 602.03 158.2 606.21 160.93 610.4 163.67 614.59 166.41 618.79 169.15 622.97 171.89 627.16 174.64 631.36 177.37 635.55 180.11 639.73 182.85 643.93 185.59 649.6 189.3 650.22 190.28 651.12 193.38 651.22 194.45 650.61 199.73 649.54 204.09 649.5 205.04 649.63 206.24 649.99 206.85 650.66 207.11 651.76 207.25 652.79 207.23 654.71 206.84 655.73 206.82 656.86 207.11 657.53 207.63 658.54 209.31 659.29 210.22 660.11 210.77 662.2 211.39 664.15 211.69 665.04 211.94 665.89 212.47 667.68 212.74 669.58 213.69 672.68 215.92 673.66 217.3 673.95 219.03 673.91 222.65 674.39 223.36 680.14 227.87 681.16 228.32 682.21 228.38 683.08 228.27 683.86 228.32 684.62 228.87 685.09 229.86 685.26 230.78 685.62 231.37 686.69 231.41 687.21 231.16 688.03 230.44 688.71 230.25 689.29 230.33 689.7 230.57 690.07 230.88 690.56 231.17 693.6 232.18 694.32 232.27 695.59 231.74 697.56 229.97 698.68 229.29 699.7 229.11 700.59 229.34 701.43 229.81 704.4 232.04 706.18 233.87 707.72 235.93 709.68 239.32 710.24 239.85 710.98 240.1 712.15 240.35 713.09 240.71 714.83 241.61 715.77 241.81 716.3 241.85 720.71 242.66 723.37 242.77 736.63 245.4 742.75 247.96 745.55 250.07 746.35 250.42 748.1 250.91 748.85 251.26 749.53 251.88 749.72 252.54 748.83 262.3 748.88 264.16 749.5 265.94 749.76 266.23 750.02 266.38 750.27 266.56 750.47 266.98 750.44 267.29 750.18 268.25 750.17 268.71 750.59 269.6 751.21 270.32 751.73 271.1 751.85 272.17 751.38 273.27 750.49 273.93 749.47 274.46 748.57 275.19 748.13 276.07 747.89 277.95 747.67 278.78 746.62 279.81 745.98 280.21 745.73 280.65 745.36 281.6 744.65 282.66 744.21 283.52 744.28 284.39 745.09 285.49 745.95 286.3 746.91 287 747.93 287.56 750.17 288.48 753.02 291.15 754.15 291.83 754.64 292.03 755.35 292.13 756.59 292.07 760.51 291.16 760.51 291.16 765.58 290.22 773.85 288.68 777.46 288.01 Z" id="MLI-2689" data-name="Kidal"/>
<path d="M 798.84 340.51 798.86 343.87 798.88 349.85 798.89 355.83 798.91 361.81 798.94 367.79 798.96 373.77 798.97 379.75 798.99 382.8 799 387.88 798.36 388.33 797.84 388.35 797.46 388.51 797.17 389.36 797.11 390.23 797.38 394.98 797.16 395.49 796.53 396.45 796.41 396.88 796.42 399.94 796.46 406.41 796.48 410.57 796.5 415.92 796.11 417.05 795.43 417.66 793.32 418.71 792.19 419.56 791.26 420.51 790.53 421.61 786.21 431.88 786 433.21 786.19 434.55 786.79 435.97 786.83 436.03 786.85 436.1 786.86 436.17 786.86 436.24 786.87 436.53 786.84 436.67 786.79 436.81 783.98 439.54 783.24 440.65 782.93 441.54 782.5 446.26 782.11 448.13 781.5 449.54 781.38 449.83 780.16 451.26 778.34 452.21 774.49 452.93 772.72 453.86 768.94 457.91 764.7 460.42 764.22 461.71 763.76 467.28 762.88 467.11 762.62 467.03 757.64 466.2 748.54 464.7 742.77 463.74 740.86 463.78 740.09 463.95 739.74 464.2 739.62 464.69 739.52 465.58 739.52 467.36 739.25 468 736.85 468.08 732.18 468.24 727.51 468.39 722.84 468.55 718.16 468.71 713.49 468.86 708.82 469.01 704.15 469.17 699.48 469.32 694.81 469.48 690.13 469.63 685.46 469.79 680.79 469.94 676.12 470.1 671.45 470.25 666.78 470.41 662.11 470.57 658.54 470.69 656.92 471.07 655.61 471.83 652.34 474.79 648.46 478.3 645.29 481.16 641.24 484.83 640.06 485.39 638.75 485.66 631.35 485.9 629.93 486.42 628.55 486.95 627.22 487.26 626.55 487.32 619.05 484.72 617.53 484.79 614.4 485.86 612.87 486.18 611.23 486.17 604.85 484.6 604.46 485.11 604.44 486.3 604.71 488.71 592.54 484.6 592.53 484.6 586.07 482 582.7 481.23 579.68 481.76 576.66 483.55 574.91 484.3 573.56 484.28 573.08 483.67 571.96 480.75 571.52 480.54 569.95 480.55 569.95 480.54 569.94 480.44 567.1 462.72 566.01 458.08 563.73 448.49 562.9 445.47 562.52 443.54 560.58 433.77 560.36 426.16 560.19 419.85 559.81 406.4 560.92 400.35 561 396.36 561.11 390.92 559.47 390.1 557.67 389.88 554.58 389.52 540.22 388.16 519.66 386.23 516.35 385.95 515.74 383.95 516.31 381.62 514.62 375.11 511.59 362.79 515.3 360.42 539.89 349.02 548.94 344.82 551.34 293.11 597.3 305.08 611.66 322.32 621.72 332.85 652.36 357.27 681.09 351.04 689.71 340.51 735.67 340.51 772.54 340.51 798.82 340.51 798.84 340.51 Z" id="MLI-2690" data-name="Gao"/>
<path d="M 208.29 603.24 206.73 602.81 205.81 602.53 205.35 601.95 204.61 601.47 204.11 600.26 203.9 598.42 204.11 597.08 204.76 596.09 205.88 595.59 207.16 595.45 208.43 595.73 209.49 596.37 210.2 597.5 210.43 598.75 210.56 600.26 210.49 601.68 209.92 602.74 208.29 603.24 Z" id="MLI-2792" data-name="Bamako"/>
<path d="M 152.03 460.44 152.97 461.48 155.33 463.37 157.99 465.3 159.35 466.61 166.17 470.24 168.34 472.56 168.73 473.72 169.12 477.49 171.39 483.15 174.49 485.28 179.61 485.57 182.71 486.2 183.44 487.21 184.26 490.4 184.01 494.56 183.77 497.32 184.84 499.01 189.77 502.54 192.72 504.67 195.77 507.62 199.3 508.44 199.97 509.17 199.78 510.67 199.49 511.78 200.65 515.46 200.84 516.33 199.4 517.29 196.25 517.68 194.08 518.02 191.46 517.49 187.98 517.92 185.8 518.36 184.4 518.21 183.1 517 181.65 514.39 180.63 513.33 179.61 512.8 178.5 513.04 177.39 515.36 175.79 517.58 173.86 518.12 172.31 518.84 168.09 518.83 170.28 524.03 170.52 525.04 170.58 526.12 170.25 527.5 169.59 527.55 168.69 527.26 167.63 527.63 167.39 528.29 167.65 529.98 167.38 530.74 167.01 531.23 166.84 531.61 166.58 532.58 166.32 532.91 166.03 533.05 165.87 533.29 166 533.91 166.29 534.28 167.81 535.56 168.28 535.77 168.75 535.88 169.15 536.06 169.44 536.47 169.72 537.04 170.06 537.36 170.45 537.32 170.9 536.8 172.26 539.26 173.19 540.01 177.34 540.65 178.57 540.53 179.19 539.39 178.52 539.24 178.57 538.61 179.35 537.05 179.52 535.85 179.85 535.4 180.82 535.1 182.47 535.07 183.79 535.52 184.75 536.51 185.34 538.07 185.41 538.78 185.21 539.79 185.22 540.52 185.1 541.32 184.64 541.9 184.06 542.42 183.55 543.02 182.77 544.55 182.36 545.14 181.07 546.39 180.56 547.1 180.39 548.08 180.97 553.13 181.09 553.63 181.36 553.97 181.84 554.31 182.31 554.75 182.68 555.25 183.21 556.55 184.61 557.9 185.15 558.74 185.41 559.64 185.53 560.65 185.4 561.58 184.9 562.26 184.37 562.54 184.01 562.68 183.7 562.9 183.32 563.44 183.04 564.06 182.09 567.01 181.96 568 181.77 568.58 181.46 569.12 180.68 570.06 180.37 570.61 180.11 571.62 179.94 574.7 179.71 575.31 179.44 575.81 179.24 576.35 179.2 577.07 179.61 579.61 179.6 580.81 179.21 582.19 177.05 585.55 176.59 586.71 176.56 587.93 177.01 588.66 177.67 589.36 178.3 590.47 174.24 592.6 173.47 593.28 172.26 594.97 170.38 596.13 168.1 596.81 165.93 597.14 164.14 598.06 162.54 601.16 160.66 602.71 158.72 604.21 156.69 607.88 158.38 608.99 157.74 609.7 157.52 609.92 151.74 606.98 149.7 606.32 146.01 605.55 145.38 605.58 145.02 605.89 144.64 606.1 143.96 605.85 143.32 605.48 143.04 605.43 142.71 605.49 141.9 606.06 139.61 606.61 138.91 607.47 139.17 607.97 139.87 608.8 140.75 609.61 142.08 610.32 142.21 610.68 142.23 611.11 142.46 611.57 142.83 611.78 143.64 611.96 143.91 612.2 143.95 612.81 143.73 613.73 143.3 614.49 142.67 614.67 142.82 615.82 142.58 616.45 141.45 617.57 138.48 617.06 137.64 617.18 135.67 618.09 134.88 618.63 133.93 619.48 128.49 621.27 126.95 622.25 126.21 623.02 125.87 623.76 125.8 624.59 125.9 625.59 125.67 626.2 125.07 627.03 123.9 628.27 121.21 628.21 120.34 627.93 119.85 627.64 119.06 627.04 118.55 626.83 118.21 626.84 117.22 626.99 116.75 626.98 115.88 626.57 114.22 625.26 113.33 625.01 112.36 624.85 110.68 623.98 109.75 623.7 109.16 623.42 108.18 622.66 107.59 622.36 107.1 622.25 106.3 622.21 106.13 622.17 105.8 622.06 105.42 621.83 104.76 621.27 104.28 621.06 103.93 621.01 102.75 621.06 101.81 620.88 100.11 620.09 98.52 619.77 98.21 619.48 97.98 619.16 97.59 618.96 95.75 619.69 95.46 620.26 95.34 620.25 95.2 619.98 94.85 619.73 94.76 619.84 94.55 620.29 94.09 620.53 93.65 620.56 93.38 620.75 93.41 621.45 92.69 621.2 92.37 621.04 92.06 620.79 91.42 621.2 89.76 622.56 89.42 622.96 88.95 623.66 86.64 623.48 85.76 623.79 85.71 624.25 86.11 625.22 85.94 625.41 85.48 625.61 85.47 626.08 85.6 626.59 85.59 626.94 84.61 627.63 83.64 628.08 83.1 628.66 83.44 629.73 82.69 629.97 81.69 630.47 80.82 631.06 80.44 631.54 80.26 632.21 79.83 633.1 79.3 633.93 78.82 634.38 78.1 634.72 76.1 634.8 74.7 633.37 72.73 629.68 71.44 628.39 71.21 627.88 71.28 627.49 71.75 626.63 71.88 626.2 71.57 624.86 70.7 624.15 69.57 623.63 68.44 622.8 66.5 619.82 65.64 619.2 64.45 618.88 63.49 618.93 61.39 619.61 60.26 619.57 59.61 619.7 59.25 620.19 58.62 622.27 58.06 622.89 56.5 624 56.46 624.05 56.23 624.31 55.55 625.38 55.16 625.56 54.75 625.59 54.43 625.75 54.13 627.15 53.61 628.07 53.21 628.48 52.89 628.8 52.13 629.01 51.34 629.05 49.78 629.68 48.84 629.68 47.89 629.35 46.9 628.85 45.95 628.23 45.15 627.54 43.19 624.96 42.33 624.28 39.37 622.99 38.46 622.18 37.58 620.23 38.36 618.81 39.73 617.41 40.64 615.5 40.62 614.38 40.3 612.47 40.51 611.38 41.26 610.98 42.43 611.03 43.34 610.9 43.35 609.96 43.44 608.68 43.77 607.4 43.87 606.27 43.26 605.43 43.15 605.71 42.77 606.3 42.68 605.87 42.37 605.08 42.27 604.67 41.97 603.9 41.6 604.04 41.32 604.55 41.35 604.91 40.96 604.57 40.4 603.61 40.05 603.39 39.51 603.21 39.86 602.91 40.87 602.45 40.99 601.89 40.93 601.54 40.81 601.21 40.77 600.7 41.02 599.17 41.01 598.67 40.77 598.17 40.4 597.91 40.03 597.77 39.84 597.65 39.8 596.94 40.1 596.58 40.47 596.32 40.99 595.05 41.62 594.85 42.29 594.73 42.69 594.11 42.6 593.65 42.09 592.75 42.09 592.54 42.43 592.19 42.53 591.66 42.49 591.08 42.38 590.59 42.23 590.18 42.02 589.84 41.84 589.61 41.78 589.57 41.66 589.53 41.43 589.5 41.24 589.39 41.22 589.09 41.34 588.82 41.49 588.62 41.56 588.41 41.41 587.62 41.59 587.12 41.86 586.62 42.06 586.13 41.96 585.88 41.68 585.63 41.44 585.37 41.48 585.07 41.79 584.9 42.14 585.02 42.44 585.18 42.65 585.18 43.07 584.84 43.38 584.66 43.55 584.37 43.44 583.11 43.33 582.56 43.11 582.06 42.71 581.64 42.59 582.48 42.24 583.03 41.68 583.26 40.92 583.12 41.05 582.64 41.17 581.7 41.18 581.28 41.34 581.09 41.61 580.88 41.68 580.68 41.26 580.48 41.07 580.32 40.88 580.02 40.61 579.43 39.94 578.49 40.04 578.21 40.31 577.84 40.36 577.5 39.85 577.3 39.06 577.11 38.45 576.74 37.88 576.32 37.21 575.92 36.36 575.73 36.12 574.94 36.09 573.25 35.64 572.61 35.07 572.09 34.6 571.5 34.46 570.63 34.64 570.11 35.26 569.24 35.33 568.71 35.13 568.24 34.03 567.29 32.84 565.67 32.49 564.73 32.49 563.68 32.14 563.84 31.53 563.99 30.99 563.93 30.87 563.46 30.93 562.77 30.71 562.56 29.49 562.6 28.55 562.79 28.09 562.74 27.61 562.36 27.33 561.89 26.98 561.51 26.29 561.41 25.55 561.8 25.06 562.6 24.78 563.59 24.65 564.53 22.62 566.03 22.36 566.3 22.09 566.27 21.51 565.81 21.29 565.47 20.99 564.54 20.81 564.18 20.43 563.91 19.15 563.29 18.73 563.18 18.61 562.65 19.3 560.06 19.41 559.2 19.07 558.64 18.68 558.47 18.24 558.42 17.73 558.17 17.46 557.86 17.03 557.14 16.72 556.81 13.93 554.82 13.04 553.83 11.97 552.2 11.36 550.45 10.37 548.57 9.72 547.62 9.05 547.06 13.18 544.8 14.8 543.18 15.57 541.02 15.86 539.06 15.86 538.07 15.57 537.16 14.72 536.17 13.82 535.5 13.03 534.74 12.55 533.48 12.55 531.48 13.64 527.77 14 525.8 13.89 524.73 12.11 520.66 11.63 519.96 10.95 519.51 9.05 518.84 8.46 518.35 7.99 517.75 7.59 517.08 8.31 516.83 8.52 516.23 8.18 515.59 3.67 513.97 3.05 513.85 3.14 511.75 3.02 510.77 2.45 508.66 2.34 507.65 2.63 506.81 3.55 506.27 3.9 505.96 4.03 505.43 4.08 504.85 4.18 504.35 4.54 503.85 5.48 502.96 5.75 502.53 5.79 501.73 5.43 501.43 4.93 501.32 4.59 501.04 4.48 500.52 4.57 500.19 4.79 499.84 5.05 499.26 4.52 499.23 3.73 499.08 3 498.75 2.63 498.21 2.33 497.54 1.37 496.7 1 495.29 1.84 495.67 2.9 495.85 3.94 495.71 6.03 495 7.06 494.83 7.79 495.21 9.84 496.98 10.37 497.25 10.76 496.68 11.01 495.92 11.37 495.66 12.27 495.88 13.24 495.88 14.19 495.62 15.03 495.05 16.18 493.52 16.87 492.94 18.82 492.53 19.7 492.07 20.42 491.46 20.8 490.82 20.99 490.38 21.24 490.05 21.49 489.8 21.65 489.57 21.85 489.5 22.19 489.41 22.46 489.24 22.46 488.93 22.12 488.49 21.99 488.26 21.95 487.96 22.2 486.22 22.45 485.36 22.81 484.6 22.81 484.59 22.91 483.71 22.78 483.02 22.42 482.48 21.86 482.03 21.55 482.03 21.3 482.26 20.98 482.38 20.5 482.03 20.59 481.79 20.7 480.33 21.26 478.38 21.31 477.88 21.16 477.21 21.12 476.76 21.24 475.74 22.15 473.16 22.43 470.86 22.63 470.08 24.25 466.71 25.01 463.26 25.63 461.72 26.86 460.41 26.98 459.88 26.98 458.23 28.2 458.41 28.4 458.44 29.69 458.85 30.99 458.94 32.4 458.23 34.13 456.45 34.93 456 36.22 455.63 36.78 455.37 37.21 454.9 37.32 454.66 37.36 454.41 37.32 454.16 37.21 453.92 37.01 453.8 36.84 453.68 36.72 453.53 36.64 453.33 36.78 453.28 37.21 453.24 39.98 453.79 41.11 454.25 42.33 455.28 46.81 461.59 47.72 462.59 59.94 471.34 61.52 472.82 62.86 475.34 64.65 477.05 66.24 479.43 66.67 478.61 67.42 475.86 67.83 475.08 69.14 473.88 69.68 473.06 70.15 471.28 70.5 470.49 71.28 469.74 71.8 469.56 72.29 469.56 72.69 469.49 73.23 468.7 74.01 468.27 74.38 467.91 74.77 466.89 74.71 464.89 74.89 463.96 75.42 463.46 76.2 463.42 79.12 463.86 81.14 463.88 82.09 463.74 82.22 463.7 83.83 463.16 84.63 463.04 85.57 463.23 86.3 463.11 91.23 463.19 92.57 463.44 94.9 463.26 95.57 463.36 99.71 464.96 100.13 464.96 101.02 464.8 101.39 464.83 102.38 465.29 104.14 466.38 105.27 466.71 107.23 466.76 112.85 465.97 118.45 466.46 120.3 466.01 123.04 464.45 124.01 464.05 126.36 463.58 138.37 463.1 137.79 460.42 137.79 460.42 137.01 457.36 137.02 455.95 137.73 454.67 140.69 451.23 141.63 450.65 142.79 451.15 142.94 452.71 142.28 456.02 141.98 460.43 150.36 460.44 152.03 460.44 Z" id="MLI-2793" data-name="Kayes"/>
<path d="M 378.23 594.81 377.72 594.88 377.39 594.8 377.22 594.93 376.93 597.44 377.35 598.24 379.45 599.84 380.26 600.61 381.28 602.88 381.7 603.51 381.96 603.67 381.98 603.86 381.66 604.52 380.98 605.41 380.06 606.3 379.23 607.28 378.85 608.44 380.6 612.56 381.05 614.63 379.61 614.9 379.18 614.53 378.8 614.01 378.32 613.62 377.61 613.67 377.08 613.99 376.96 614.32 376.97 614.71 376.8 615.47 376.88 616.01 376.82 616.3 376.63 616.5 372.37 619.96 373.58 622.27 373.11 622.78 371.66 622.84 369.92 623.81 369.41 624.76 369.32 625.53 369.12 626.03 369.07 626.15 368.11 626.61 367.62 626.64 366.64 626.52 366.13 626.64 365.62 627.07 365.27 627.7 364.95 628.28 364.57 628.77 363.87 629.18 362.5 629.41 361.67 629.68 360.73 628.88 359.71 628.87 357.65 629.6 356.64 629.59 355.61 629.35 354.56 629.25 353.51 629.68 353.07 630.05 352.6 630.31 352.1 630.43 351.55 630.4 350.67 630.5 348.76 630.44 348 630.5 347.3 630.81 345.7 631.76 344.21 632.22 343.48 632.84 342.19 634.26 340.32 635.76 339.35 637.09 339.02 637.36 338.66 637.41 338.39 637.28 338.13 637.08 337.81 636.93 337.5 636.94 337.28 637.1 337.1 637.27 336.9 637.36 335.21 637.64 335.06 637.74 334.69 638.12 334.44 638.2 334.16 638.1 333.56 637.68 333.35 637.61 332.69 637.7 332.38 637.79 332.39 638.03 332.69 638.58 332.96 638.68 334.21 639.4 334.4 639.6 335.24 639.43 335.66 639.47 336.16 639.61 337.1 640.02 337.87 640.49 338.44 641.16 338.8 642.12 338.85 642.97 338.75 644.03 338.33 645.92 338.07 646.41 337.71 646.92 337.44 647.44 337.45 647.99 337.82 648.53 338.25 648.63 338.75 648.56 339.29 648.64 341.01 650 341.46 651.71 341.46 655.71 341.72 656.82 341.77 657.44 341.37 657.86 340.32 658.36 339.58 658.99 339.37 659.87 339.7 664.91 339.61 665.69 339.01 666.7 337.49 668.22 337.03 669.33 336.74 671.31 336.24 671.98 335.09 672.69 334.28 673.04 333.46 673.28 328.64 673.89 327.94 674.35 327.79 675.11 327.87 675.54 328.36 678.05 328.06 679.3 329.15 679.05 329.81 680.38 330.7 683.76 331.28 684.78 331.46 685.37 330.79 688.16 330.8 688.57 330.73 689.05 330.42 689.28 330.02 689.47 329.69 689.82 329.44 690.54 328.98 693.13 329.01 693.57 329.25 694.36 329.31 694.77 330.05 695.05 329.57 695.49 329.24 696.26 329.18 697 329.54 697.33 329.68 697.8 329.03 700.34 327.89 702.08 327.71 702.48 327.32 704.95 327.05 705.65 325.74 705.16 324.67 704.47 324.06 704.26 323.59 704.27 322.25 704.61 319.56 704.87 313.33 706.23 309.86 708.04 309.12 708.57 308.56 709.38 308.36 710.26 308.57 712.91 308 713.33 305.75 712.55 305.18 712.99 305.01 714.2 304.67 715.23 304.1 716.16 303.19 717.04 298.87 717.07 295.21 715.79 294.56 715.38 293.61 714.24 293.09 713.89 292.35 714.04 292.19 712.25 292.32 711.59 292.92 710.94 293.04 711.02 293.27 711.22 293.59 711.34 293.99 711.19 294.09 710.94 294.03 710.62 293.91 710.34 293.88 710.17 295.06 708.87 294.35 708.29 294.5 707.4 295.23 705.9 294.44 704.99 294.27 704.52 294.37 704.1 294.89 703.23 294.97 702.95 294.76 702.47 294.47 702.3 294.08 702.32 293.53 702.4 293.2 702.3 292.93 702.02 292.67 701.68 292.42 701.43 291.98 701.38 291.58 701.48 291.32 701.36 291.34 700.63 291.57 700.24 292.45 699.53 292.77 699.13 292.84 698.56 292.7 697.98 292.42 697.3 292.8 696.87 293.33 696.63 293.81 696.35 294.07 695.78 293.91 695.39 293.47 695.03 292.95 694.75 292.03 694.42 291.9 694.03 292.14 692.04 292.07 691.37 291.58 691.09 290.42 691.25 289.28 691.73 288.38 692.35 287.43 692.78 286.18 692.75 285.19 692.59 284.14 692.64 283.31 693.04 282.97 693.92 282.88 695.82 283.13 696.48 283.69 696.84 284.29 697.12 284.65 697.57 284.48 698.7 283.58 699.31 282.39 699.52 281.38 699.45 278.74 698.94 277.96 698.67 276 697.64 275.01 696.97 274.28 696.31 273.3 694.64 272.66 694.24 271.6 694.59 271.66 694.75 270.98 695.88 270.87 695.92 270.64 696.83 270.54 697.72 270.63 698.13 270.8 698.46 270.94 698.85 270.7 701.05 270.22 702.61 270.31 703.44 270.92 704.38 271.28 704.57 271.82 704.73 272.33 704.94 272.63 705.3 272.62 705.82 272.38 706.25 272.06 706.62 271.85 706.98 271.64 708.53 271.61 708.77 271.2 709.35 270.09 709.7 269.01 709.59 267.19 708.52 266.14 708.18 265.08 708.29 262.23 709.6 261.3 709.72 258.56 709.38 257.47 709.55 256.9 710.16 255.74 714 255.84 714.65 256.36 715.08 256.99 715.49 257.45 716.02 257.56 717.25 256.97 718.27 255.96 719.02 254.83 719.41 253.64 719.45 252.78 718.68 252.06 717.59 251.27 716.67 250.45 716.2 245.69 714.89 241.86 714.3 238.82 714.24 238.02 714.03 237.61 713.43 237.57 712.27 237.88 710.29 237.59 709.55 236.49 709.48 235.18 709.97 234.73 710.09 234.1 710.06 234.04 709.76 234.16 709.3 234.09 708.78 233.28 707.43 233.08 706.95 233.05 706.52 233.09 706.01 233.05 705.45 232.79 704.89 232.37 704.45 231.9 704.17 231.34 704.04 230.65 704.08 229.5 705.54 229.12 705.89 228.69 706.05 227.82 706.03 227.33 706.08 226.2 705.98 224.46 704.92 223.46 705.08 223.19 705.49 223 706.09 222.76 706.59 222.33 706.73 221.75 706.66 221.32 706.76 220.66 707.3 220.66 707.63 220.45 707.71 220 707.93 220.58 708.64 220.03 709.44 218.96 710.07 217.99 710.27 218.63 711.09 218.05 712.07 217.96 712.76 217.69 713.15 217.33 713.37 217.01 713.64 216.84 714.16 216.66 714.53 215.5 715.99 215.03 716.37 214.61 716.65 214.14 716.82 212.9 717 212.44 717.29 211.54 718.03 210.66 718.44 209.66 718.71 208.64 718.73 207.73 718.39 208.78 716.07 209.04 714.94 208.94 713.7 208.62 712.6 208.12 711.38 207.41 710.35 206.47 709.81 203.84 709.69 202.58 709.46 201.65 708.8 201.38 708.18 201.33 706.9 201.17 706.32 200.68 705.56 200.36 705.45 199.95 705.69 199.2 706.01 198.09 706.22 197.05 706.2 196.16 705.75 194.95 703.5 193.48 701.5 192.94 700.23 192.18 690.66 191.97 689.8 190.69 689.31 190.8 688.32 191.81 685.62 192.15 685.25 192.44 684.81 192.55 683.91 192.48 678.91 192.18 677.82 191.44 676.71 190.43 675.78 189.37 675.24 188.79 675.25 187.85 675.77 187.38 675.83 186.48 675.53 186.04 675.46 185.53 675.58 184.55 675.62 183.58 675.31 182.77 675.31 181.52 677.91 181.04 678.65 180.17 679.24 179.39 679.47 178.53 679.57 177.66 679.55 176.85 679.42 175.89 679.51 175.06 679.94 174.3 680.17 173.56 679.66 173.34 678.9 173.53 678.05 173.92 677.25 174.35 676.64 176.58 674.41 177.1 673.45 177.13 672.9 177.01 672.44 177.02 671.96 177.47 671.38 177.86 671.23 178.84 671.21 179.27 670.99 179.68 670.23 179.96 668.51 180.54 667.67 180.89 667.46 181.88 667.04 182.29 666.78 182.47 666.72 182.95 666.68 183.11 666.57 183.19 666.22 183.09 665.93 182.94 665.69 182.9 665.51 183.41 664.43 183.86 664.08 185.73 664.5 186.59 664.6 187.56 664.55 188.45 664.25 189.01 663.61 189.29 662.36 188.79 662.14 187.91 662.28 187.02 662.12 186.63 661.4 187.2 660.77 188.21 660.31 189.08 660.08 188 659.2 186.55 658.51 183.62 657.64 182.29 657.6 181.72 657.38 181.33 656.67 181.14 655.79 181.81 655.18 183.63 652.91 186.38 646.81 188.03 645.99 191.12 646.09 197.27 643.77 199.73 643.67 203.8 644.69 205.54 643.67 209.02 640.24 210.28 639.8 213.91 637.09 219.42 634.09 224.59 631.87 227.74 630.42 229.28 629.21 231.17 624.81 232.38 622.34 233.59 621.62 238.42 619.25 240.17 618.52 240.94 617.22 241.62 614.7 243.26 614.02 245.34 612.67 247.32 609.53 249.98 608.56 250.56 609.96 251.39 615.23 253.18 621.13 253.27 622.83 251.73 626.26 251.77 628.92 253.47 630.52 254.87 631.14 257.14 630.56 258.06 631.68 258.16 636.17 260.58 635.74 261.83 636.17 263.28 637.96 266.77 638.83 273.01 641.69 277.21 641.78 278.04 642.66 277.7 645.46 279.87 646.43 281.28 646.28 282.39 643.91 283.11 641.98 284.23 638.98 284.81 637 287.81 634.09 287.23 630.47 287.18 628.19 289.35 625.97 291.77 625.78 294.24 626.69 296.56 628.87 297.14 628.39 297.09 627.23 296.95 625 298.3 624.32 299.75 624.42 303.09 623.45 304.83 623.6 306.62 619.25 306.33 614.99 304.93 614.36 300.57 614.6 298.98 613.83 298.06 611.75 295.49 609.82 293.75 610.11 293.75 608.8 293.08 607.11 292.98 605.22 291.34 602.66 293.75 600.24 303.77 598.74 304.88 596.95 305.36 596.9 306.81 597.82 308.99 597.97 316.39 594.24 324.32 589.99 325 590.33 326.59 593.9 328 594.92 328.43 597.58 331.33 600.14 332.69 599.71 334.14 596.61 337.96 592.02 339.31 591 340.23 591.24 345.31 593.52 345.94 595.36 347.73 597.63 347.58 600.53 349.18 601.69 355.08 600.77 361.37 599.9 363.16 599.37 364.17 597.53 367.27 593.71 370.27 592.94 371.09 595.5 372.39 595.45 373.17 594.68 377.35 594.54 377.46 594.63 378.2 594.8 378.23 594.81 Z" id="MLI-2794" data-name="Sikasso"/>
<path d="M 556.84 481.67 556.29 482.06 553.7 484.59 553.69 484.6 543.7 493.2 543.69 493.21 541.98 494.25 540.14 495.02 530.9 497.24 528.84 498.19 512.08 508.77 508.7 509.4 505.3 509.57 501.33 509.27 499.01 509.37 497.56 510 497.18 511.28 496.29 523.16 496.1 523.67 495.68 524 493.31 525.05 492.37 525.46 491.62 525.57 490.07 525.22 478.77 519.97 475.09 519.18 472.45 519.81 468.53 522.02 467.44 522.92 464.71 525.91 463.89 526.81 456.75 530.69 455.47 532.74 455.75 532.69 455.89 532.76 455.97 532.88 456.05 532.95 454.16 539.22 453.3 540.61 452.53 542.46 452.76 545.05 454.12 549.62 452.42 550.25 450.75 550.87 450.39 550.93 450.05 550.78 449.71 550.56 449.31 550.42 448.13 550.3 447.75 550.41 447.19 550.68 446.34 551.59 445.79 551.79 445.45 551.04 445.31 550.34 445.08 549.88 444.22 549.08 443 548.38 441.99 548.41 440.93 548.63 439.58 548.49 437.43 546.89 436.14 546.45 435.18 547.39 436.17 548.13 436.49 549.29 436.29 551.99 436.03 553.13 435.32 554.91 437.03 566.97 436.36 567.4 428.42 567.87 427.36 568.28 427.18 569.65 427.74 571.32 427.8 572.19 427.31 572.97 426.73 573.12 426.13 573.03 424.09 572.72 423.01 572.75 422.69 572.69 422.26 572.42 421.49 571.62 421.17 571.49 420.53 571.59 420.19 571.49 416.23 568.47 414.02 567.16 410.43 564.34 409.53 563.98 407.55 563.46 405.88 562.81 405.1 562.66 404.13 562.74 403.18 562.71 402.06 562.43 401.46 561.96 402.06 561.38 402.48 561.15 403.46 560.24 403.84 560.1 404.29 560.03 404.63 559.84 404.66 559.32 404.39 559.19 403.23 558.97 402.81 558.81 402.66 558.5 402.41 557.54 402.36 557.47 402.62 557.06 402.62 556.78 402.72 552.21 400.2 547.28 398.7 540.56 396.53 536.3 395.18 535.77 392.51 536.5 387 540.7 382.89 547.72 381.97 549.84 379.6 550.09 375.97 550.86 371.52 553.33 369.49 551.87 368.33 550.72 367.66 550.42 365.19 550.96 363.45 550.57 362.14 550.86 359.34 552.65 358.27 550.33 358.22 547.57 359.24 543.46 357.98 541.24 358.03 539.88 359.34 538.72 359.97 536.21 359.39 534.27 357.21 534.17 349.86 535.38 346.23 534.85 342.26 533.26 341.97 531.03 343.28 524.5 338.64 518.31 335.83 516.42 327.56 511.54 320.21 507.04 320.31 505.74 322.29 504.19 322.68 500.8 323.6 499.59 323.21 497.9 322.97 495.87 324.66 491.95 325.92 487.74 328 487.55 335.44 485.57 339.17 485.71 342.26 483.25 345.75 477.54 347.49 474.93 344.83 467.19 343.42 461.63 342.55 460.85 341.01 460.47 335.73 460.27 335.06 457.66 338.1 454.95 341.2 451.81 345.02 454.95 347.87 455.44 352.13 455.24 359.72 455.92 367.41 456.31 378.92 452.68 382.45 450.31 389.13 449.63 392.76 446.15 394.16 445.23 398.08 444.75 401.51 444.51 402.86 448.86 407.02 451.91 408.04 455.05 408.18 460.52 413.75 459.84 418 460.66 420.18 458.34 423.71 456.79 425.35 455.39 425.01 451.13 425.74 448.96 428.69 447.02 433.09 447.12 437.3 442.52 439.28 441.12 441.12 441.94 441.51 444.12 447.07 443.78 450.89 442.81 452.73 443.1 455.34 445.62 460.08 449.73 460.95 453.45 466.08 461.97 468.54 466.56 471.69 468.83 475.65 469.7 481.46 468.01 490.31 464.72 497.95 463.71 501.58 463.42 506.27 463.8 512.6 463.56 521.84 466.27 527.11 468.83 531.03 471.69 535.43 475.75 556.82 481.66 556.84 481.67 Z" id="MLI-2809" data-name="Mopti"/>
<path d="M 402.36 557.47 402.12 557.14 401.94 557 401.77 556.95 401.6 557 401.44 557.14 400.79 557.89 401.06 558.1 401.68 558.14 402.06 558.4 401.81 558.86 401.16 559.41 400.43 559.88 399.91 560.06 399.33 560.26 398.59 561.09 398.15 561.35 396.85 561.68 396.45 561.88 395.65 562.62 395.14 563.5 394.33 565.47 393.57 566.64 392.66 567.68 392.13 567.96 391.67 567.94 391.22 567.85 390.75 567.93 390.02 568.42 389.14 569.2 388.43 570.05 388.21 570.78 388.54 571.23 389.56 571.79 389.67 572.21 389.33 572.64 388.78 572.79 385.69 572.64 384.87 572.98 384.26 574.59 383.96 574.98 383.71 575.41 383.71 576 383.99 576.44 385.39 577.71 386.68 580.48 387.3 581.32 388.7 582.49 389.6 583.6 389.99 584.94 389.82 587.69 390.44 589.88 390.37 590.46 389.37 593.59 388.89 594.2 388.82 594.24 388.23 594.63 387.33 594.93 386.31 595.05 385.65 594.87 384.27 594.06 382.85 593.76 381.25 593.87 379.64 594.27 378.23 594.81 378.23 594.81 378.2 594.8 377.46 594.63 377.35 594.54 373.17 594.68 372.39 595.45 371.09 595.5 370.27 592.94 367.27 593.71 364.17 597.53 363.16 599.37 361.37 599.9 355.08 600.77 349.18 601.69 347.58 600.53 347.73 597.63 345.94 595.36 345.31 593.52 340.23 591.24 339.31 591 337.96 592.02 334.14 596.61 332.69 599.71 331.33 600.14 328.43 597.58 328 594.92 326.59 593.9 325 590.33 324.32 589.99 316.39 594.24 308.99 597.97 306.81 597.82 305.36 596.9 304.88 596.95 303.77 598.74 293.75 600.24 291.34 602.66 288.92 601.55 286.84 600.87 285.82 597.72 285.1 595.64 283.5 595.79 281.28 596.56 280.4 595.98 279.2 592.45 275.86 591.24 273.73 590.37 270.25 590.81 264.83 591.63 262.8 592.55 261.35 592.5 260.72 591.39 261.25 588.34 261.11 585.59 260.04 584.62 257.67 584.57 254.67 583.8 252.35 581.14 251.68 580.36 252.26 578.67 254 576.93 254.58 574.07 254.53 572.33 256.13 569.33 257 566.58 259.17 564.59 262.03 563.72 266.53 563.43 268.02 562.61 269.28 559.28 268.75 558.4 267.01 557.2 266.48 555.74 266.09 550.96 263.28 547.72 260.43 544.91 259.75 541.67 260.43 532.87 267.64 519.96 269.38 517.15 273.15 512.36 274.12 510.04 275.81 509.56 281.76 511.2 283.21 510.28 284.27 508.49 285.48 506.85 285.53 503.66 284.52 500.8 282.87 495 280.5 491.86 277.6 487.12 278.42 484.5 282.92 478.8 284.37 476.28 287.71 466.22 288.48 460.49 293.24 460.49 299.71 460.49 303.44 460.49 306.95 460.5 310.24 460.5 313.28 460.5 319.77 460.5 327.37 460.5 327.39 460.51 327.4 460.51 327.42 460.52 327.43 460.52 327.45 460.53 327.46 460.53 327.48 460.54 327.5 460.54 327.51 460.54 327.52 460.54 327.53 460.54 327.54 460.54 327.55 460.54 327.55 460.54 327.57 460.54 327.58 460.54 327.58 460.54 327.59 460.53 327.59 460.53 327.6 460.52 327.6 460.51 327.61 460.51 327.61 460.5 327.61 460.5 327.61 460.49 327.61 460.48 327.61 460.47 327.61 460.46 327.61 460.45 327.61 460.44 327.61 460.43 327.61 460.42 327.66 460.18 327.71 459.95 327.72 459.89 327.78 459.88 335.06 457.66 335.73 460.27 341.01 460.47 342.55 460.85 343.42 461.63 344.83 467.19 347.49 474.93 345.75 477.54 342.26 483.25 339.17 485.71 335.44 485.57 328 487.55 325.92 487.74 324.66 491.95 322.97 495.87 323.21 497.9 323.6 499.59 322.68 500.8 322.29 504.19 320.31 505.74 320.21 507.04 327.56 511.54 335.83 516.42 338.64 518.31 343.28 524.5 341.97 531.03 342.26 533.26 346.23 534.85 349.86 535.38 357.21 534.17 359.39 534.27 359.97 536.21 359.34 538.72 358.03 539.88 357.98 541.24 359.24 543.46 358.22 547.57 358.27 550.33 359.34 552.65 362.14 550.86 363.45 550.57 365.19 550.96 367.66 550.42 368.33 550.72 369.49 551.87 371.52 553.33 375.97 550.86 379.6 550.09 381.97 549.84 382.89 547.72 387 540.7 392.51 536.5 395.18 535.77 396.53 536.3 398.7 540.56 400.2 547.28 402.72 552.21 402.62 556.78 402.62 557.06 402.36 557.47 Z" id="MLI-2810" data-name="Ségou"/>
<path d="M 158.71 460.44 163.16 460.44 166.44 460.44 170.03 460.44 173.89 460.44 178.02 460.45 184.49 460.45 191.42 460.45 198.73 460.45 206.37 460.46 214.27 460.46 222.36 460.46 230.58 460.47 238.87 460.47 247.16 460.47 255.38 460.47 263.47 460.48 271.37 460.48 279 460.48 286.32 460.49 288.48 460.49 287.71 466.22 284.37 476.28 282.92 478.8 278.42 484.5 277.6 487.12 280.5 491.86 282.87 495 284.52 500.8 285.53 503.66 285.48 506.85 284.27 508.49 283.21 510.28 281.76 511.2 275.81 509.56 274.12 510.04 273.15 512.36 269.38 517.15 267.64 519.96 260.43 532.87 259.75 541.67 260.43 544.91 263.28 547.72 266.09 550.96 266.48 555.74 267.01 557.2 268.75 558.4 269.28 559.28 268.02 562.61 266.53 563.43 262.03 563.72 259.17 564.59 257 566.58 256.13 569.33 254.53 572.33 254.58 574.07 254 576.93 252.26 578.67 251.68 580.36 252.35 581.14 254.67 583.8 257.67 584.57 260.04 584.62 261.11 585.59 261.25 588.34 260.72 591.39 261.35 592.5 262.8 592.55 264.83 591.63 270.25 590.81 273.73 590.37 275.86 591.24 279.2 592.45 280.4 595.98 281.28 596.56 283.5 595.79 285.1 595.64 285.82 597.72 286.84 600.87 288.92 601.55 291.34 602.66 292.98 605.22 293.08 607.11 293.75 608.8 293.75 610.11 295.49 609.82 298.06 611.75 298.98 613.83 300.57 614.6 304.93 614.36 306.33 614.99 306.62 619.25 304.83 623.6 303.09 623.45 299.75 624.42 298.3 624.32 296.95 625 297.09 627.23 297.14 628.39 296.56 628.87 294.24 626.69 291.77 625.78 289.35 625.97 287.18 628.19 287.23 630.47 287.81 634.09 284.81 637 284.23 638.98 283.11 641.98 282.39 643.91 281.28 646.28 279.87 646.43 277.7 645.46 278.04 642.66 277.21 641.78 273.01 641.69 266.77 638.83 263.28 637.96 261.83 636.17 260.58 635.74 258.16 636.17 258.06 631.68 257.14 630.56 254.87 631.14 253.47 630.52 251.77 628.92 251.73 626.26 253.27 622.83 253.18 621.13 251.39 615.23 250.56 609.96 249.98 608.56 247.32 609.53 245.34 612.67 243.26 614.02 241.62 614.7 240.94 617.22 240.17 618.52 238.42 619.25 233.59 621.62 232.38 622.34 231.17 624.81 229.28 629.21 227.74 630.42 224.59 631.87 219.42 634.09 213.91 637.09 210.28 639.8 209.02 640.24 205.54 643.67 203.8 644.69 199.73 643.67 197.27 643.77 191.12 646.09 188.03 645.99 186.38 646.81 183.63 652.91 181.81 655.18 181.14 655.79 180.92 654.76 180.65 654.16 179.41 655.12 178.11 655.03 175.47 653.85 174.93 653.15 174.39 652.24 173.99 651.26 173.83 650.39 172.75 646.91 172.09 646.45 171.42 646.61 170.64 646.97 169.64 647.11 168.77 646.82 167.98 646.34 167.16 645.98 166.26 646.04 168.69 633.69 168.65 633.12 168.39 632.64 168.06 632.18 167.82 631.65 167.75 630.62 167.79 629.71 167.58 628.89 166.7 628.14 165.7 627.96 164.59 628.09 163.52 628.03 162.63 627.3 162.43 626.39 162.64 625.34 163.37 623.43 163.41 622.35 163.03 621.28 162.4 620.44 161.67 620.03 160.72 620.41 160.13 620.43 159.78 619.88 159.62 619.39 159.14 618.62 158.99 618.14 159.07 616.87 159.58 615.85 160.22 614.89 160.65 613.82 160.57 612.75 160.03 611.67 159.17 610.76 157.52 609.92 157.74 609.7 158.38 608.99 156.69 607.88 158.72 604.21 160.66 602.71 162.54 601.16 164.14 598.06 165.93 597.14 168.1 596.81 170.38 596.13 172.26 594.97 173.47 593.28 174.24 592.6 178.3 590.47 177.67 589.36 177.01 588.66 176.56 587.93 176.59 586.71 177.05 585.55 179.21 582.19 179.6 580.81 179.61 579.61 179.2 577.07 179.24 576.35 179.44 575.81 179.71 575.31 179.94 574.7 180.11 571.62 180.37 570.61 180.68 570.06 181.46 569.12 181.77 568.58 181.96 568 182.09 567.01 183.04 564.06 183.32 563.44 183.7 562.9 184.01 562.68 184.37 562.54 184.9 562.26 185.4 561.58 185.53 560.65 185.41 559.64 185.15 558.74 184.61 557.9 183.21 556.55 182.68 555.25 182.31 554.75 181.84 554.31 181.36 553.97 181.09 553.63 180.97 553.13 180.39 548.08 180.56 547.1 181.07 546.39 182.36 545.14 182.77 544.55 183.55 543.02 184.06 542.42 184.64 541.9 185.1 541.32 185.22 540.52 185.21 539.79 185.41 538.78 185.34 538.07 184.75 536.51 183.79 535.52 182.47 535.07 180.82 535.1 179.85 535.4 179.52 535.85 179.35 537.05 178.57 538.61 178.52 539.24 179.19 539.39 178.57 540.53 177.34 540.65 173.19 540.01 172.26 539.26 170.9 536.8 170.45 537.32 170.06 537.36 169.72 537.04 169.44 536.47 169.15 536.06 168.75 535.88 168.28 535.77 167.81 535.56 166.29 534.28 166 533.91 165.87 533.29 166.03 533.05 166.32 532.91 166.58 532.58 166.84 531.61 167.01 531.23 167.38 530.74 167.65 529.98 167.39 528.29 167.63 527.63 168.69 527.26 169.59 527.55 170.25 527.5 170.58 526.12 170.52 525.04 170.28 524.03 168.09 518.83 172.31 518.84 173.86 518.12 175.79 517.58 177.39 515.36 178.5 513.04 179.61 512.8 180.63 513.33 181.65 514.39 183.1 517 184.4 518.21 185.8 518.36 187.98 517.92 191.46 517.49 194.08 518.02 196.25 517.68 199.4 517.29 200.84 516.33 200.65 515.46 199.49 511.78 199.78 510.67 199.97 509.17 199.3 508.44 195.77 507.62 192.72 504.67 189.77 502.54 184.84 499.01 183.77 497.32 184.01 494.56 184.26 490.4 183.44 487.21 182.71 486.2 179.61 485.57 174.49 485.28 171.39 483.15 169.12 477.49 168.73 473.72 168.34 472.56 166.17 470.24 159.35 466.61 157.99 465.3 155.33 463.37 152.97 461.48 152.03 460.44 157.97 460.44 158.71 460.44 Z M 208.29 603.24 209.92 602.74 210.49 601.68 210.56 600.26 210.43 598.75 210.2 597.5 209.49 596.37 208.43 595.73 207.16 595.45 205.88 595.59 204.76 596.09 204.11 597.08 203.9 598.42 204.11 600.26 204.61 601.47 205.35 601.95 205.81 602.53 206.73 602.81 208.29 603.24 Z" fill-rule="evenodd" id="MLI-4860" data-name="Koulikoro"/>
</g>
</svg>