<?xml version="1.0"?>
<svg xmlns="http://www.w3.org/2000/svg" version="1.2" baseProfile="tiny" width="800" height="687" viewBox="0 0 800 687" stroke-linecap="round" stroke-linejoin="round">
<g id="ne_10m_admin_1_states_provinces">
<path d="M 414.91 180.83 409.71 191.99 410.78 196.86 413.39 200.11 414.56 201.94 415.57 203.97 417.3 208.89 421.82 218.56 421.88 223.7 420.35 227.03 417.76 229.75 403.46 239.18 401.88 240.67 399.14 244.5 398.12 246.18 394.87 250.67 385.29 237.39 383.87 236.93 382.09 236.54 381.33 237.69 380.21 238.71 378.94 239.47 371.86 241.64 369.31 242.76 367.13 244.3 363.37 248.42 352.78 255.7 345.2 262.4 341.9 264.18 339.39 263.63 337.36 261.7 336.34 259.26 336.09 256.26 336.8 249.03 336.8 245.67 336.49 242.61 334.1 233.27 333.04 230.56 331.56 228.58 329.83 228.51 327.8 230.29 321.7 238.3 318.84 241.2 312.03 245.93 305.82 248.91 302.25 250.08 292.54 251.79 288.63 251.3 285.63 250.33 265.79 240 260.48 238.4 256.82 238.01 253.47 238.1 247.45 239.34 245.01 240.35 243.23 241.64 242.12 243.47 241.56 245.47 240.74 247.64 239.07 249.16 234.19 249.96 228.85 248.21 219.12 246.49 214.09 244.39 205.89 239.18 203.3 238.62 201.01 239.59 197.2 244.2 193.94 246.69 189.96 248.21 182.59 249.23 178.88 248.93 175.83 247.64 174.36 245.71 173.47 243.78 173.44 242.27 173.64 241.23 175.22 237.59 175.12 236.69 174.56 235.96 173.27 235.32 171.64 234.9 170.37 234.25 169.46 233.54 167.98 231.05 167.74 230.52 170.44 229.75 173.71 227.31 173.17 223.51 171.12 215.89 171.29 212.73 173.47 209.82 176.78 208.09 180.13 206.97 182.51 205.82 201.28 185.62 208.7 173.42 208.33 171.59 211.14 171.59 219.83 168.12 225.27 168.07 229.36 168.73 233.47 170.27 237.24 169.39 249.6 162.05 253.42 161.22 256.26 160.21 258.65 159.11 270.82 152.04 273.51 151.94 276.31 153.23 281.39 156.53 284.26 157.84 287.66 158.53 293.2 158.83 297.12 156.53 300.17 154.14 309.48 141.55 312.53 138.72 316.75 136.32 319.4 132.42 321.5 126.79 325.16 122.57 328.26 121.2 331.56 121.56 335.32 122.93 339.39 125.32 343.53 128.42 347.64 132.52 355.06 138.01 357.83 140.82 360.11 144.3 362.15 148.21 364.79 151.74 367.79 153.63 371.2 154.58 378.23 155.67 381.43 156.51 384.68 157.95 388.44 160.46 391.8 163.31 397.46 169.44 399.29 172.05 400.81 174.68 403.97 178.18 414.91 180.83 Z" id="LSO-1202" data-name="Berea"/>
<path d="M 394.87 250.67 377.11 265.14 373.89 266.68 369.72 268.14 367.18 268.45 365.35 270.16 363.82 272.92 362.6 276.05 361.84 278.85 361.49 281.93 361.84 285.15 360.98 290 361.59 292.81 362.66 294.9 364.54 296.79 365.5 298.18 366.37 299.03 368.45 299.81 369.11 301.17 369.67 302.86 370.43 304.11 373.08 305.13 374.25 306.55 375.11 309.04 383.56 351.49 383.16 354.9 383.62 357.76 388.55 374.38 375.24 372.53 367.77 372.53 357.62 371.99 349.61 374.14 346.95 377.35 353.35 380.55 358.15 388.02 359.76 394.43 361.37 400.31 361.37 403.51 370.43 404.03 377.38 402.44 381.11 403.51 377.91 409.91 379.51 415.25 382.18 421.11 382.18 423.26 375.24 423.26 369.37 425.92 370.43 430.74 370.43 438.21 365.1 443.55 356.56 445.68 353.79 438.43 350.54 436.02 349.47 433.84 346.98 431.21 342.92 429.35 328.11 427.57 322.92 426.23 315.74 421.47 308.42 418.44 266.14 411.32 259.11 409.23 246.23 409.15 218.82 412.61 215.11 410.96 214.6 408.68 217.14 405.95 220.34 403.17 222.02 399.34 221.77 394.68 205.84 371.91 202.43 369.62 199.03 368.98 188.64 369.28 180.91 367.55 177.2 364.6 175.83 361.15 176.03 353.68 175.17 351 173.58 350.61 171.64 351.71 166 357.95 164.58 359.01 162.7 359.94 154.04 362.15 150.89 362.16 148.35 361.84 143.42 360.59 141.08 359.16 139.6 357.1 139.5 354.76 138.84 351.81 137.21 348.1 128.86 339.83 126.52 336.38 125.25 333.19 121.18 326.9 120.17 324.16 119.15 318.47 117.73 315.74 116.03 314.36 114.05 313.52 111.81 313.14 110.14 313.21 106.53 313.87 99.56 312.45 98.76 312.28 99.48 311.62 101.65 308.71 103.27 305.25 103.92 301.49 105.68 300.3 113.37 300.61 115.14 299.22 116.53 293.32 120.15 288.2 133.77 275.16 135.94 273.73 137.23 271.77 137.71 267.6 136.76 265.02 134.82 262.99 133.5 261.09 134.28 258.82 137.23 256.72 140.25 255.84 143.3 254.38 146.48 250.59 147.3 247.64 147.94 240.01 148.92 237.37 154.36 234.35 167.74 230.52 167.98 231.05 169.46 233.54 170.37 234.25 171.64 234.9 173.27 235.32 174.56 235.96 175.12 236.69 175.22 237.59 173.64 241.23 173.44 242.27 173.47 243.78 174.36 245.71 175.83 247.64 178.88 248.93 182.59 249.23 189.96 248.21 193.94 246.69 197.2 244.2 201.01 239.59 203.3 238.62 205.89 239.18 214.09 244.39 219.12 246.49 228.85 248.21 234.19 249.96 239.07 249.16 240.74 247.64 241.56 245.47 242.12 243.47 243.23 241.64 245.01 240.35 247.45 239.34 253.47 238.1 256.82 238.01 260.48 238.4 265.79 240 285.63 250.33 288.63 251.3 292.54 251.79 302.25 250.08 305.82 248.91 312.03 245.93 318.84 241.2 321.7 238.3 327.8 230.29 329.83 228.51 331.56 228.58 333.04 230.56 334.1 233.27 336.49 242.61 336.8 245.67 336.8 249.03 336.09 256.26 336.34 259.26 337.36 261.7 339.39 263.63 341.9 264.18 345.2 262.4 352.78 255.7 363.37 248.42 367.13 244.3 369.31 242.76 371.86 241.64 378.94 239.47 380.21 238.71 381.33 237.69 382.09 236.54 383.87 236.93 385.29 237.39 394.87 250.67 Z" id="LSO-1203" data-name="Maseru"/>
<path d="M 414.98 470.05 406.81 475.15 395.83 478.3 381.63 477.2 374.14 478.25 370.89 482.5 368.89 487.03 364.04 489.72 352.81 492.72 346.95 493.41 329.94 489.65 327.09 489.82 318.77 491.43 309.89 491.4 306.45 492.6 303.71 494.55 301.39 497.17 294.46 508.44 293.2 512.66 293.15 517.47 295.79 525.61 296.25 529.54 294.4 533.52 292.79 534.84 288.9 537.16 287.2 538.77 286.08 540.57 284.32 544.62 283.17 546.5 274.22 550.77 268.99 556.28 267.51 557.5 261.89 559.33 256.06 559.58 244.94 557.5 243.67 556.53 241.44 553.21 239.83 552.29 236.73 552.6 235.51 554.55 235.56 557.36 236.17 560.39 241.03 573.24 241.4 579.42 237.59 585.78 226.49 590.18 204.19 582.4 192.52 585.15 190.32 588.1 188.13 595.25 185.84 597.7 183.13 598.01 179.64 597.25 175.18 598.63 173.97 594.96 162 590.18 156.85 586.45 153.33 581.47 150.92 573.44 148.53 571.3 143.26 571.24 136.32 573.74 134.01 574.08 130.67 573.64 124.14 572.04 123.91 571.98 120.35 571.61 120.9 566.49 113.59 548.84 112.98 539.45 120.15 524 125.06 519.66 125.34 516.41 122.25 514.2 117.24 512.98 109.95 512.98 105.88 513.83 102.85 512.78 98.8 507.32 96.6 502.72 92.16 487.16 87.48 480.55 71.76 469 65.49 462.59 56.48 443.89 61.85 442.09 84.45 432.63 93.75 426.38 96.09 425.67 97.67 425.98 99.6 427.01 102.21 427.75 108.87 427.31 111.76 426.43 114 424.86 115.78 423.16 118.9 421.06 123.83 420.25 126.78 420.96 128.3 422.76 128.2 424.86 122.56 438.43 121.64 441.36 120.73 447.39 120.73 453.04 121.44 457.66 122.35 461.32 123.52 464.54 126.06 469.59 126.52 470.35 127.64 471.39 136.03 476.67 143.06 482.5 145.45 483.01 147.28 482.82 150.28 481.38 152.51 480.67 154.04 479.62 155.01 478.5 156.34 475.88 157.06 474.81 157.87 473.88 171.54 461.96 172.46 460.74 173.34 459.03 173.85 457.31 174.41 456.27 175.73 455.31 177.41 454.31 179.18 452.98 180.56 451.66 181.47 450.24 182.13 448.73 183.71 443.48 184.37 443.33 185.39 444.09 186.86 445.87 189.96 447.36 194.2 447.7 201.21 447.04 205.33 447.49 208.23 448.97 212.92 455.42 214.9 457.7 217.09 459.68 220.39 461.52 223.49 461.52 227.15 460.2 230.37 458.17 235.9 457.97 240.69 456.9 243.37 451.56 249.77 448.36 255.11 452.63 262.58 456.36 269.53 454.76 274.87 449.43 275.94 445.14 274.33 438.21 280.21 438.73 286.08 445.14 289.81 449.95 291.95 445.14 293.02 437.14 296.76 432.87 302.62 436.07 307.96 441.41 316.52 441.41 324.51 441.41 333.05 446.21 341.61 448.36 346.41 449.43 346.95 441.94 353.79 438.43 356.56 445.68 365.1 443.55 370.43 438.21 383.78 438.73 391.26 439.28 400.34 440.34 408.88 444.61 413.69 449.95 418.49 453.7 423.3 456.9 426.5 453.15 429.7 449.95 427.03 443.55 420.62 435.01 427.03 431.8 433.43 431.26 438.24 430.19 438.24 425.4 439.85 420.05 447.85 417.38 454.26 420.05 460.13 418.45 468.15 414.18 476.69 409.37 484.16 407.24 492.7 406.17 495.9 402.44 505.22 396.26 510.05 404.02 509.95 411.01 507.97 419.1 507.31 425.23 509.24 435.18 509.29 439.24 507.87 443.04 505.48 445.12 501.65 446.85 490.41 450.8 486.96 452.92 483.69 455.56 479.57 460.85 476.93 463.07 474.89 464.49 473.06 465.1 471.54 465.81 469.81 466.79 462.57 472.01 451.14 478.67 449.7 479.01 448.83 479.5 447.61 478.25 442.26 469.98 438.62 466.84 426.76 464.64 416.64 469.01 414.98 470.05 Z" id="LSO-1204" data-name="Mohale&apos;s Hoek"/>
<path d="M 444.78 526.43 439.23 535.55 434.09 540.03 431.04 542.03 426.98 547.18 424.7 549.14 421.54 550.36 411.89 551.58 405.9 553.68 399.02 557.31 393.97 562.26 393.26 568.36 396.85 572.8 401.66 574.73 405.49 577.64 406.37 585.13 404.07 592.21 399.73 596.65 371.87 615.66 369.3 619.56 370.01 622.14 373.84 627.9 374.89 631.15 374.48 633.83 368.92 649.08 367.81 651.08 365.18 654.06 362.57 655.99 359.77 657.31 357.05 659.01 354.93 662.06 353.05 668.67 353.27 673.99 354.08 679.24 354.01 685.64 346.12 682.66 307.38 679.75 300.5 677.82 293.96 674.97 290.85 672.83 288.27 670.6 285.49 668.7 281.7 667.58 278.85 667.99 272.58 670.67 269.29 671.14 255.53 669.55 244.11 666.46 234.25 661.04 216.55 643.59 196.57 630.41 194.5 627.63 193.96 624.68 193.79 621.73 192.71 618.82 184.81 609.16 176.24 601.84 175.18 598.63 179.64 597.25 183.13 598.01 185.84 597.7 188.13 595.25 190.32 588.1 192.52 585.15 204.19 582.4 226.49 590.18 237.59 585.78 241.4 579.42 241.03 573.24 236.17 560.39 235.56 557.36 235.51 554.55 236.73 552.6 239.83 552.29 241.44 553.21 243.67 556.53 244.94 557.5 256.06 559.58 261.89 559.33 267.51 557.5 268.99 556.28 274.22 550.77 283.17 546.5 284.32 544.62 286.08 540.57 287.2 538.77 288.9 537.16 292.79 534.84 294.4 533.52 296.25 529.54 295.79 525.61 293.15 517.47 293.2 512.66 294.46 508.44 301.39 497.17 303.71 494.55 306.45 492.6 309.89 491.4 318.77 491.43 327.09 489.82 329.94 489.65 346.95 493.41 352.81 492.72 364.04 489.72 368.89 487.03 370.89 482.5 374.14 478.25 381.63 477.2 395.83 478.3 406.81 475.15 414.98 470.05 417.5 477.5 419.69 483.11 418.72 485.65 417.2 486.89 410.93 487.28 400.92 491.84 398.32 494.18 396.8 496.67 395.27 502.26 394.87 504.95 394.87 507.41 395.32 509.56 396.54 511.7 398.98 513.81 402.59 515.2 431.02 518.24 433.48 518.13 435.46 517.81 437.45 518.64 439.02 519.49 444.68 526.32 444.78 526.43 Z" id="LSO-1205" data-name="Quthing"/>
<path d="M 599.65 62.9 599.65 62.9 599.35 63.66 596.4 83.01 596.7 90.09 597.37 91.92 598.13 93.01 598.89 93.89 599.7 94.6 600.42 95.46 600.62 96.6 600.31 98.11 598.23 100.55 596.6 101.89 587.64 105.43 578.9 107.44 576.74 108.43 575.07 109.75 571.2 114.03 562.36 126.08 560.58 129.42 559.36 132.93 557.51 143.43 556.6 146.08 554.92 148.67 552.84 150.92 550.04 153.07 547.09 154.79 543.43 156.31 539.5 157.48 535.43 158.24 531.88 158.58 528.17 158.39 524.76 157.89 510.15 152.96 507.46 152.7 505.1 153.01 503.48 154.02 502.16 155.82 498.04 163.17 497.02 164.6 495.5 165.56 492.9 165.19 490.31 163.21 487.36 157.75 486.43 153.63 486.5 149.85 493.46 128.5 493.77 125.37 493.21 121.81 491.63 117.29 490.87 113.63 490.62 109.8 490.01 106.34 488.48 102.78 484.09 100.75 481.45 100.24 476.06 100.14 472.61 99.68 469.76 98.68 467.15 96.89 464.05 93.43 461.05 90.87 456.32 88.77 452.82 87.77 449.05 86.03 437.5 78.84 433.13 77.5 429.25 77.32 426.45 77.98 423.81 78.16 415.47 76.64 413.49 75.16 412 72.28 410.57 65.08 410.47 53.63 408.95 49.05 402.19 45.26 399.7 43.59 403.83 43.22 410.44 45.8 417.99 46.51 425.59 45.63 432.19 43.39 438.5 38.34 447.38 24.89 453.75 19.27 460.46 16.79 506.1 14.11 512.61 12.73 531.28 1.54 536.16 1 542.36 5.03 546.74 9.68 549.72 15.1 551.72 21.54 554.09 34.99 557.55 39.6 572.08 39.94 576.93 43.53 586.45 59.36 589.16 61.19 599.4 62.81 599.65 62.9 Z" id="LSO-1211" data-name="Butha-Buthe"/>
<path d="M 587.64 105.43 586.06 112 583.32 116.9 582.2 121.39 579.66 153.48 577.35 160.27 574.91 165.1 570.03 169.97 542.87 191.88 539.4 194.13 536.25 195.28 529.89 196.6 526.23 198.48 522.52 201.42 517.52 206.53 514.98 210.72 513.76 214.8 513.51 220.87 512.49 226.63 512.75 230.15 513.31 231.36 514.73 233.54 524 244.3 526.23 246.11 529.94 248.57 531.27 250.16 531.62 251.33 530.61 252.52 528.72 253.72 526.28 254.48 516.51 255.21 512.9 254.96 508.17 253.43 491.94 245.57 481.2 242.05 472 240.23 468.74 240.03 465.07 238.78 461.86 236.13 453.73 221.66 444.82 199.35 440.95 192.66 439.84 189.38 439.68 186.15 439.89 183.22 439.63 180.93 438.31 179.15 436.18 178.03 433.79 177.37 428.59 176.56 425.38 176.44 422.08 176.9 418.37 177.83 414.91 180.83 403.97 178.18 400.81 174.68 399.29 172.05 397.46 169.44 391.8 163.31 388.44 160.46 384.68 157.95 381.43 156.51 378.23 155.67 371.2 154.58 367.79 153.63 364.79 151.74 362.15 148.21 360.11 144.3 357.83 140.82 355.06 138.01 347.64 132.52 343.53 128.42 339.39 125.32 335.32 122.93 331.56 121.56 328.26 121.2 325.16 122.57 321.5 126.79 319.4 132.42 316.75 136.32 312.53 138.72 309.48 141.55 300.17 154.14 297.12 156.53 293.2 158.83 287.66 158.53 284.26 157.84 281.39 156.53 276.31 153.23 273.51 151.94 270.82 152.04 258.65 159.11 256.26 160.21 253.42 161.22 249.6 162.05 237.24 169.39 233.47 170.27 229.36 168.73 225.27 168.07 219.83 168.12 211.14 171.59 208.33 171.59 207.11 165.53 209.33 163.29 211.58 165.53 213.21 164.99 216.24 163.63 218.33 163.29 215.48 160.04 211.38 156.34 209.87 153.33 215.07 152.07 219.16 150.48 223.17 146.69 229.51 138.65 230.76 138.25 232.32 138.69 233.64 138.79 234.18 137.43 234.2 135.03 234.56 134.01 235.29 132.96 236.05 131.2 236.39 128.56 236.42 124.01 239.1 121.4 244.27 119.85 247.77 117.3 245.37 111.78 282.71 114.02 291.46 110.56 294.51 105.61 296.57 100.43 299.22 96.09 303.99 93.68 310.16 94.36 314.06 97.51 317.11 100.97 320.8 102.63 329.72 102.63 332.63 101.89 333.04 99.95 332.94 97.41 334.32 94.8 346.73 80.26 361.27 66.61 362.32 64.71 371.36 52.98 375.74 48.21 378.99 44.14 381.97 45.16 399.7 43.59 402.19 45.26 408.95 49.05 410.47 53.63 410.57 65.08 412 72.28 413.49 75.16 415.47 76.64 423.81 78.16 426.45 77.98 429.25 77.32 433.13 77.5 437.5 78.84 449.05 86.03 452.82 87.77 456.32 88.77 461.05 90.87 464.05 93.43 467.15 96.89 469.76 98.68 472.61 99.68 476.06 100.14 481.45 100.24 484.09 100.75 488.48 102.78 490.01 106.34 490.62 109.8 490.87 113.63 491.63 117.29 493.21 121.81 493.77 125.37 493.46 128.5 486.5 149.85 486.43 153.63 487.36 157.75 490.31 163.21 492.9 165.19 495.5 165.56 497.02 164.6 498.04 163.17 502.16 155.82 503.48 154.02 505.1 153.01 507.46 152.7 510.15 152.96 524.76 157.89 528.17 158.39 531.88 158.58 535.43 158.24 539.5 157.48 543.43 156.31 547.09 154.79 550.04 153.07 552.84 150.92 554.92 148.67 556.6 146.08 557.51 143.43 559.36 132.93 560.58 129.42 562.36 126.08 571.2 114.03 575.07 109.75 576.74 108.43 578.9 107.44 587.64 105.43 Z" id="LSO-1212" data-name="Leribe"/>
<path d="M 609.84 67.31 614.38 70.78 618.58 75.25 631.76 95.68 649.79 111.92 654.57 111.68 662.29 113.54 669.36 116.49 672.36 119.78 672.46 126.22 674.36 130.39 678.7 132.99 686.08 134.72 697.37 139.26 724.41 164.34 735.22 167.22 748.34 167.53 758.3 171.19 759.96 190.06 763.64 193.99 768.77 197.42 773.28 201.86 775.75 207.41 779.34 218.97 788.49 229.85 791.82 236.93 792.12 238.93 791.82 243.94 792.15 246.32 793.61 248.32 797.98 252.11 799 254.01 797.8 258.79 791.73 266.38 791.12 271.53 791.34 276.27 789.82 279.93 787.07 282.85 783.34 285.29 774.7 288.61 764.94 291.25 755.69 294.81 748.78 300.98 746.41 307.86 746.31 314.96 746.15 314.94 740.73 314.11 739.31 314.35 737.88 314.96 730.11 320.14 728.07 321.21 718.91 323.63 715.7 325.02 709.6 330.09 707.98 330.61 704.91 330 702.47 328.56 698 324.67 695.4 321.23 691.74 314.45 688.17 311.62 682.93 308.93 673.17 305.44 662.84 302.79 659.84 302.76 657.25 303.3 652.35 305.52 649.4 306.2 646.15 306.33 642.39 306.08 626.26 306.81 621.83 306.54 606.92 302.4 601.69 301.78 587.08 302.69 584.79 302.18 583.52 300.01 583.32 298.89 583.47 297.71 582.74 296.71 587.03 293.1 589.72 289.36 591.45 284.48 592.06 277.77 591.3 264.18 591.81 257.43 591.82 257.4 590.03 256.94 588.66 255.76 586.22 254.69 580.88 253.67 576.95 253.28 573.54 253.33 571.56 253.99 570.44 255.15 569.37 256.64 567.65 257.5 565.46 256.62 560.63 250.88 557.97 249.11 553.29 247.64 550.4 246.11 549.23 243.69 549.99 241.61 553.29 236.37 562.71 217.39 563.88 212.95 563.78 209.58 562.31 206.33 560.68 204.09 558.89 202.79 556.55 203.45 552.99 205.58 534.11 219.8 525.57 224 512.49 226.63 513.51 220.87 513.76 214.8 514.98 210.72 517.52 206.53 522.52 201.42 526.23 198.48 529.89 196.6 536.25 195.28 539.4 194.13 542.87 191.88 570.03 169.97 574.91 165.1 577.35 160.27 579.66 153.48 582.2 121.39 583.32 116.9 586.06 112 587.64 105.43 596.6 101.89 598.23 100.55 600.31 98.11 600.62 96.6 600.42 95.46 599.7 94.6 598.89 93.89 598.13 93.01 597.37 91.92 596.7 90.09 596.4 83.01 599.35 63.66 599.65 62.9 599.65 62.9 604.82 64.61 609.77 67.25 609.84 67.31 Z" id="LSO-1213" data-name="Mokhotlong"/>
<path d="M 693.32 388.59 692.9 395.9 690.93 404.57 690.76 412.44 695.54 418.3 699.67 421.11 700.59 423.45 700.39 426.37 701.1 430.97 704.69 437.28 705.47 440.5 703.37 443.31 699.61 444.94 690.93 447.17 686.93 448.73 661.25 462.61 648.3 469.61 610.17 491.4 589.06 498.95 567.37 503.02 537.93 512.75 526.84 512.68 510.92 507.32 505.43 506.78 500.11 507.9 485.87 515.32 477.77 517.83 461.95 515.83 454.05 516.91 447.56 521.86 444.78 526.43 444.68 526.32 439.02 519.49 437.45 518.64 435.46 517.81 433.48 518.13 431.02 518.24 402.59 515.2 398.98 513.81 396.54 511.7 395.32 509.56 394.87 507.41 394.87 504.95 395.27 502.26 396.8 496.67 398.32 494.18 400.92 491.84 410.93 487.28 417.2 486.89 418.72 485.65 419.69 483.11 417.5 477.5 414.98 470.05 416.64 469.01 426.76 464.64 438.62 466.84 442.26 469.98 447.61 478.25 448.83 479.5 449.7 479.01 451.14 478.67 462.57 472.01 469.81 466.79 471.54 465.81 473.06 465.1 474.89 464.49 476.93 463.07 479.57 460.85 483.69 455.56 486.96 452.92 490.41 450.8 501.65 446.85 505.48 445.12 507.87 443.04 509.29 439.24 509.24 435.18 507.31 425.23 507.97 419.1 509.95 411.01 510.05 404.02 505.22 396.26 510.76 394.44 513.97 394.27 518.29 394.43 524.96 395.76 534.11 398.9 540.42 402.05 546.48 406.02 548.82 408.01 550.55 410.15 551.51 412.61 551.77 415.49 551.16 421.74 551.31 424.42 552.07 426.48 553.6 428.23 555.43 429.5 556.85 430.08 561 428.43 563.43 426.25 565.51 423.91 567.85 421.88 570.98 420.6 574.1 420.76 577.18 421.62 580.32 421.93 583.62 420.42 586.18 416.33 585.3 412.2 583.22 408.17 583.73 408.07 586.78 407.46 593.54 407.4 598.33 408.24 602.75 409.9 620.41 422.49 625.24 424.33 630.52 424.86 637.25 424.08 642.49 422.64 647.37 420.42 652.47 415.47 654.81 411.83 656.13 408.18 658.72 388.07 660.55 385.51 663.7 383.99 670.48 385.41 681.51 389.11 688.24 389.72 693.15 388.63 693.32 388.59 Z" id="LSO-1214" data-name="Qacha&apos;s Nek"/>
<path d="M 512.49 226.63 525.57 224 534.11 219.8 552.99 205.58 556.55 203.45 558.89 202.79 560.68 204.09 562.31 206.33 563.78 209.58 563.88 212.95 562.71 217.39 553.29 236.37 549.99 241.61 549.23 243.69 550.4 246.11 553.29 247.64 557.97 249.11 560.63 250.88 565.46 256.62 567.65 257.5 569.37 256.64 570.44 255.15 571.56 253.99 573.54 253.33 576.95 253.28 580.88 253.67 586.22 254.69 588.66 255.76 590.03 256.94 591.82 257.4 591.81 257.43 591.3 264.18 592.06 277.77 591.45 284.48 589.72 289.36 587.03 293.1 582.74 296.71 583.47 297.71 583.32 298.89 583.52 300.01 584.79 302.18 587.08 302.69 601.69 301.78 606.92 302.4 621.83 306.54 626.26 306.81 642.39 306.08 646.15 306.33 649.4 306.2 652.35 305.52 657.25 303.3 659.84 302.76 662.84 302.79 673.17 305.44 682.93 308.93 688.17 311.62 691.74 314.45 695.4 321.23 698 324.67 702.47 328.56 704.91 330 707.98 330.61 709.6 330.09 715.7 325.02 718.91 323.63 728.07 321.21 730.11 320.14 737.88 314.96 739.31 314.35 740.73 314.11 746.15 314.94 746.31 314.96 746.29 316.26 748.54 324.09 753.22 329.17 747.86 332.39 747.35 337.51 747.42 342.93 743.73 347.03 718.48 353.84 708.96 360.42 703.64 368.62 699.49 377.9 693.37 387.7 693.32 388.59 693.15 388.63 688.24 389.72 681.51 389.11 670.48 385.41 663.7 383.99 660.55 385.51 658.72 388.07 656.13 408.18 654.81 411.83 652.47 415.47 647.37 420.42 642.49 422.64 637.25 424.08 630.52 424.86 625.24 424.33 620.41 422.49 602.75 409.9 598.33 408.24 593.54 407.4 586.78 407.46 583.73 408.07 583.22 408.17 585.3 412.2 586.18 416.33 583.62 420.42 580.32 421.93 577.18 421.62 574.1 420.76 570.98 420.6 567.85 421.88 565.51 423.91 563.43 426.25 561 428.43 556.85 430.08 555.43 429.5 553.6 428.23 552.07 426.48 551.31 424.42 551.16 421.74 551.77 415.49 551.51 412.61 550.55 410.15 548.82 408.01 546.48 406.02 540.42 402.05 534.11 398.9 524.96 395.76 518.29 394.43 513.97 394.27 510.76 394.44 505.22 396.26 495.9 402.44 492.7 406.17 484.16 407.24 476.69 409.37 468.15 414.18 460.13 418.45 454.26 420.05 447.85 417.38 439.85 420.05 438.24 425.4 438.24 430.19 433.43 431.26 427.03 431.8 420.62 435.01 417.42 429.67 414.76 425.4 409.95 423.79 405.68 421.65 405.08 419.28 400.2 399.24 395.27 391.44 403.54 382.68 395.53 375.21 388.55 374.38 383.62 357.76 383.16 354.9 383.56 351.49 375.11 309.04 374.25 306.55 373.08 305.13 370.43 304.11 369.67 302.86 369.11 301.17 368.45 299.81 366.37 299.03 365.5 298.18 364.54 296.79 362.66 294.9 361.59 292.81 360.98 290 361.84 285.15 361.49 281.93 361.84 278.85 362.6 276.05 363.82 272.92 365.35 270.16 367.18 268.45 369.72 268.14 373.89 266.68 377.11 265.14 394.87 250.67 398.12 246.18 399.14 244.5 401.88 240.67 403.46 239.18 417.76 229.75 420.35 227.03 421.88 223.7 421.82 218.56 417.3 208.89 415.57 203.97 414.56 201.94 413.39 200.11 410.78 196.86 409.71 191.99 414.91 180.83 418.37 177.83 422.08 176.9 425.38 176.44 428.59 176.56 433.79 177.37 436.18 178.03 438.31 179.15 439.63 180.93 439.89 183.22 439.68 186.15 439.84 189.38 440.95 192.66 444.82 199.35 453.73 221.66 461.86 236.13 465.07 238.78 468.74 240.03 472 240.23 481.2 242.05 491.94 245.57 508.17 253.43 512.9 254.96 516.51 255.21 526.28 254.48 528.72 253.72 530.61 252.52 531.62 251.33 531.27 250.16 529.94 248.57 526.23 246.11 524 244.3 514.73 233.54 513.31 231.36 512.75 230.15 512.49 226.63 Z" id="LSO-1215" data-name="Thaba-Tseka"/>
<path d="M 357.62 371.99 367.77 372.53 375.24 372.53 388.55 374.38 395.53 375.21 403.54 382.68 395.27 391.44 400.2 399.24 405.08 419.28 405.68 421.65 409.95 423.79 414.76 425.4 417.42 429.67 420.62 435.01 427.03 443.55 429.7 449.95 426.5 453.15 423.3 456.9 418.49 453.7 413.69 449.95 408.88 444.61 400.34 440.34 391.26 439.28 383.78 438.73 370.43 438.21 370.43 430.74 369.37 425.92 375.24 423.26 382.18 423.26 382.18 421.11 379.51 415.25 377.91 409.91 381.11 403.51 377.38 402.44 370.43 404.03 361.37 403.51 361.37 400.31 359.76 394.43 358.15 388.02 353.35 380.55 346.95 377.35 349.61 374.14 357.62 371.99 Z M 99.56 312.45 106.53 313.87 110.14 313.21 111.81 313.14 114.05 313.52 116.03 314.36 117.73 315.74 119.15 318.47 120.17 324.16 121.18 326.9 125.25 333.19 126.52 336.38 128.86 339.83 137.21 348.1 138.84 351.81 139.5 354.76 139.6 357.1 141.08 359.16 143.42 360.59 148.35 361.84 150.89 362.16 154.04 362.15 162.7 359.94 164.58 359.01 166 357.95 171.64 351.71 173.58 350.61 175.17 351 176.03 353.68 175.83 361.15 177.2 364.6 180.91 367.55 188.64 369.28 199.03 368.98 202.43 369.62 205.84 371.91 221.77 394.68 222.02 399.34 220.34 403.17 217.14 405.95 214.6 408.68 215.11 410.96 218.82 412.61 246.23 409.15 259.11 409.23 266.14 411.32 308.42 418.44 315.74 421.47 322.92 426.23 328.11 427.57 342.92 429.35 346.98 431.21 349.47 433.84 350.54 436.02 353.79 438.43 346.95 441.94 346.41 449.43 341.61 448.36 333.05 446.21 324.51 441.41 316.52 441.41 307.96 441.41 302.62 436.07 296.76 432.87 293.02 437.14 291.95 445.14 289.81 449.95 286.08 445.14 280.21 438.73 274.33 438.21 275.94 445.14 274.87 449.43 269.53 454.76 262.58 456.36 255.11 452.63 249.77 448.36 243.37 451.56 240.69 456.9 235.9 457.97 230.37 458.17 227.15 460.2 223.49 461.52 220.39 461.52 217.09 459.68 214.9 457.7 212.92 455.42 208.23 448.97 205.33 447.49 201.21 447.04 194.2 447.7 189.96 447.36 186.86 445.87 185.39 444.09 184.37 443.33 183.71 443.48 182.13 448.73 181.47 450.24 180.56 451.66 179.18 452.98 177.41 454.31 175.73 455.31 174.41 456.27 173.85 457.31 173.34 459.03 172.46 460.74 171.54 461.96 157.87 473.88 157.06 474.81 156.34 475.88 155.01 478.5 154.04 479.62 152.51 480.67 150.28 481.38 147.28 482.82 145.45 483.01 143.06 482.5 136.03 476.67 127.64 471.39 126.52 470.35 126.06 469.59 123.52 464.54 122.35 461.32 121.44 457.66 120.73 453.04 120.73 447.39 121.64 441.36 122.56 438.43 128.2 424.86 128.3 422.76 126.78 420.96 123.83 420.25 118.9 421.06 115.78 423.16 114 424.86 111.76 426.43 108.87 427.31 102.21 427.75 99.6 427.01 97.67 425.98 96.09 425.67 93.75 426.38 84.45 432.63 61.85 442.09 56.48 443.89 29.4 387.7 29.36 387.7 29.36 387.66 26.57 382.78 17.01 370.21 12.64 366.82 8.34 364.72 3.64 361.4 1 360.28 5.03 352.15 5.17 346.86 7.64 343.78 11.1 343.78 14.18 347.68 16.42 345.2 18.93 339.92 20.69 338.53 23.91 338.46 24.93 340.15 25.77 342.19 28.45 343.2 29.94 342.29 40.55 332.49 42.31 331.44 51.56 328.19 61.19 327.31 64.51 326.23 70.37 323.41 79.59 321.75 86.57 319.18 97.24 313.69 98.76 312.28 99.56 312.45 Z" fill-rule="evenodd" id="LSO-3453" data-name="Mafeteng"/>
</g>
</svg>