<?xml version="1.0"?>
<svg xmlns="http://www.w3.org/2000/svg" version="1.2" baseProfile="tiny" width="800" height="825" viewBox="0 0 800 825" stroke-linecap="round" stroke-linejoin="round">
<g id="ne_10m_admin_1_states_provinces">
<path d="M 755.73 731.91 755.65 731.85 755.03 731.38 753.6 730.64 749.59 729.65 748.44 729.14 747.52 728.34 745.86 725.17 745.31 724.54 744.35 723.9 742.76 723.42 740.13 723.09 734.13 719.88 732.53 719.46 731.46 719.49 730.9 719.88 730.32 720.15 729.62 720.24 728.98 720.11 728.17 719.83 727.52 719.82 726.8 720.04 726.16 720.44 724.07 722.34 722.5 723.25 721.76 723.51 720.78 723.75 719.75 723.68 717.59 723.01 716.83 723.03 715.56 723.39 714.98 723.45 713.66 723.35 712.78 723.39 711.96 723.54 711.29 723.38 710.66 722.77 710.14 721.12 709.67 718.22 709.51 717.6 709.46 716.88 709.51 716.15 709.76 715.37 709.82 714.75 709.78 714.02 709.54 713.21 709.37 711.68 709.51 683.59 709.2 682.57 708.74 681.67 707.89 680.8 707.12 680.31 705.7 679.83 674.03 674.29 646.84 669.89 640.34 669.41 639.13 670.1 638.23 670.07 637 669.72 630.11 665.11 627.27 664.25 618.62 663.13 619.09 656.98 618.9 653.9 618.05 650.79 617.23 649.13 611.2 640.09 597.5 626.06 596.51 624.65 595.45 622.41 593.82 617.32 593.19 614.29 593.38 611.77 594.89 604.63 601.71 607.23 623.19 606.94 648.76 604.16 661.36 601.65 793.95 596.17 793.98 596.17 794.31 596.49 793.28 598.11 791 599.93 789.59 602.77 789.72 610.11 788.84 612.18 786.11 610.74 786.16 613.85 786.93 617.33 788.28 620.67 790.11 623.3 793 624.92 795.05 624.53 796.5 624.83 797.57 628.49 798.08 632.25 797.9 634.45 796.76 636.47 794.4 639.77 793.93 641.07 793.22 644.28 792.24 645.5 790.34 646.34 789.89 645.59 789.88 644.12 789.26 642.85 789.04 641.83 790.03 640.86 790.34 640.1 788.12 639.71 787.63 640.25 782.59 642.97 781.14 644.77 780.32 646.53 778.26 652.96 779.86 662.15 779.71 665.43 778.56 668.86 773.31 678.39 770.57 677.3 767.27 677.24 764.07 678.71 761.62 682.24 761.16 685.62 762.68 696.9 762.71 696.9 762.44 701.09 763.8 703.78 765.61 706.35 766.73 710.13 766.74 713.09 765.98 713.02 764.35 711.86 761.78 711.59 755.83 716.3 755.74 718.13 757.13 724.16 756.86 726.36 755.76 730.39 755.73 731.91 Z" id="LBR-1458" data-name="River Gee"/>
<path d="M 325.29 264.98 322.55 267.62 315.3 271.78 312.1 274.18 308.33 278.8 307.38 279.62 306.21 280.14 305.27 281.17 304.36 281.94 303.26 281.68 302.3 281.18 301.09 280.95 299.81 280.94 298.66 281.07 294.03 282.34 289.93 284.19 282.68 289.06 276.6 295.11 273.27 297.52 270.25 298.07 268.13 297.07 267.55 296.84 267.08 296.49 266.99 296.05 267.31 295.61 267.7 295.23 267.93 294.79 267.88 294.3 267.34 292.38 267.02 291.67 266.46 289.63 266.08 288.85 265.56 288.24 265.17 287.64 265.3 286.9 265.8 286.16 266.66 285.38 267.15 284.81 267.43 283.67 267.46 283.16 267.34 282.65 267.04 282.33 264.27 281.19 257.47 279.55 252.38 279.38 250.32 280.17 249.73 280.8 248.08 282.89 235.29 293.18 234.33 294.55 232.41 298.13 229.36 302.14 223.19 308.55 221.74 309.67 220.2 310.12 218.71 310.38 217.29 310.39 212.28 309.5 211.54 309.5 210.06 309.93 203.59 312.86 201.68 314.04 200.45 314.99 200.14 315.66 199.91 316.39 199.69 320.68 199.12 324.01 197.45 330.2 191.68 331.49 170.25 331.55 160.12 335.53 158.55 336.48 156.56 338.17 154.96 339.32 153 340.46 149.47 341.94 147.78 342.2 146.62 342.09 145.24 340.81 143.87 339.28 143.18 338.23 142.77 337.4 142.52 336.66 142.09 336.13 140.64 334.83 140.44 333.72 140.53 333.16 141.01 332.05 141.06 331.44 140.75 330.1 140.87 329.43 141.29 328.75 141.38 327.97 141.11 327.16 140.77 326.46 140.31 325.12 140.25 324.57 140.37 324.01 140.64 323.45 140.83 322.77 141.13 322.06 141.49 320.71 141.55 320.18 141.41 319.6 141.17 318.96 140.81 318.18 140.64 317.55 140.72 317.05 141.13 316.72 141.89 316.66 144.88 316.72 145.55 316.58 145.73 316.2 145.27 315.77 144.94 315.36 144.73 314.84 144.8 314.06 144.47 313.32 143.44 312.26 131.25 309.77 130.35 309.73 129.42 309.76 125.75 310.73 121.57 311.04 119.29 310.8 108.46 307.01 107.19 307.05 105.74 307.61 104.31 306.25 104.29 306.16 104.86 305.22 106.25 304.28 107.49 303.78 110.03 303.33 111.31 302.36 112.62 300.8 114.78 297.41 116.65 295.17 117.69 294.61 118.35 294.11 119.6 292.78 120.31 292.18 121.23 291.73 124.33 290.75 125.25 290.3 125.99 289.62 127.6 287.68 128.52 287.02 132.07 285.08 132.99 284.79 134.91 284.86 135.8 284.55 136.57 284.07 137.22 283.37 138.64 282.12 140.3 281.26 140.9 280.77 141.3 280.27 144.34 275.14 145.13 274.16 145.92 273.35 149.88 270.57 150.57 269.91 151.17 269.2 151.9 268.56 152.79 268.1 153.85 267.79 158.52 266.82 172.64 258.16 175.49 255.64 176.31 255.11 177.22 254.66 181.32 253.36 182.18 252.86 182.88 252.21 183.48 251.48 184.85 250.15 187.49 248.41 188.27 247.12 188.55 245.73 187.59 241.28 187.74 239.62 187.7 235.8 186.98 231.76 186.33 229.93 185.83 228.96 174.48 213.26 172.74 211.87 170.77 211.02 166.85 210.58 163.77 210.52 160.45 210.84 159.26 210.31 157.63 207.78 154.79 208.16 153.73 208.4 139.72 205.8 138.07 204.61 137.61 204.33 137.1 204.33 134.38 204.89 133.26 204.92 132.66 204.74 132.03 204.39 131.47 203.05 130.61 202.47 129.96 202.15 122.97 200.56 120.38 200.25 146.4 168.69 153.81 162.44 163.01 157.47 164.43 156.98 168.9 156.3 168.42 109.16 168.7 106.87 178.74 115.49 198.29 110.42 209.15 120.56 244.63 131.4 249.7 124.18 267.8 149.52 298.93 142.28 348.17 162.56 350.34 175.59 321.38 242.2 325.29 264.98 Z" id="LBR-1459" data-name="Gbapolu"/>
<path d="M 674.03 674.29 676.13 679.42 676.33 680.78 676.4 683.28 676.07 684.59 675.64 685.75 675 686.85 673.73 688.53 669.05 696.23 669.04 696.28 666.18 701.48 659.32 718.43 659.35 720.32 659.55 721.98 659.82 723.06 660.17 724.01 660.57 724.72 661.59 726.02 663.02 727.17 663.81 727.62 677.73 732.28 690.36 737.79 693.21 739.36 694.68 740.4 696.32 741.8 697.74 743.3 699.02 744.94 707.56 759.34 710.37 763.17 714.95 771.05 715.77 773 716.15 774.48 715.92 776.15 714.53 781.31 714.2 785.06 714.35 792.11 714.08 793.49 713.55 794.96 712.84 796.33 709.99 800.9 709.33 802.44 709.32 802.46 705.63 801.33 700.97 797.67 698.78 796.83 695.56 796.43 693.63 795.42 692.12 794.12 690.21 792.85 686.72 791.45 678.28 789.21 671.58 788.19 659.33 783.41 635.6 780.53 628.72 778.2 620.35 768.98 617.27 767.43 613.5 766.73 593.37 759.44 571.65 744.1 560.42 737.84 541.69 731.03 541.71 731.01 546.83 726.49 548.54 724.27 549.48 721.22 549.92 718.37 551.33 713.39 552.04 712.27 552.77 711.68 557.62 711.34 558.64 711.09 560.27 710.45 561.1 709.79 561.69 709.06 564.41 703.19 568.95 695.33 570.19 693.66 571.19 692.58 576.99 689.31 589.88 679.38 590.62 679 591.38 678.7 592.89 678.46 601.33 678.51 602.37 678.31 603.96 677.68 604.89 676.98 605.61 676.15 607.24 673.45 613.41 666.03 614.52 665.02 616.12 664.08 618.62 663.13 627.27 664.25 630.11 665.11 637 669.72 638.23 670.07 639.13 670.1 640.34 669.41 646.84 669.89 674.03 674.29 Z" id="LBR-780" data-name="Grand Kru"/>
<path d="M 755.73 731.91 755.73 732.14 756.7 734.39 758.19 735.8 759.72 736.94 760.89 738.36 761.41 740.11 762.27 750.24 761.41 791.98 761.69 793.73 762.22 795.53 762.57 797.56 762.2 802.5 763.59 806.43 763.86 808.26 763.26 810.19 761.22 813.83 760.96 815.81 762.02 818.1 768.47 822.5 768.41 822.51 758.22 823.59 755.3 823.16 750.73 821.24 748.23 820.8 734.92 820.8 733.3 820.19 732.44 818.8 731.82 817.43 730.92 816.81 727.75 816.57 720.1 813.51 717.7 812.07 715.49 810.16 714.34 808 713.26 805.35 711.49 803.12 709.32 802.46 709.33 802.44 709.99 800.9 712.84 796.33 713.55 794.96 714.08 793.49 714.35 792.11 714.2 785.06 714.53 781.31 715.92 776.15 716.15 774.48 715.77 773 714.95 771.05 710.37 763.17 707.56 759.34 699.02 744.94 697.74 743.3 696.32 741.8 694.68 740.4 693.21 739.36 690.36 737.79 677.73 732.28 663.81 727.62 663.02 727.17 661.59 726.02 660.57 724.72 660.17 724.01 659.82 723.06 659.55 721.98 659.35 720.32 659.32 718.43 666.18 701.48 669.04 696.28 669.05 696.23 673.73 688.53 675 686.85 675.64 685.75 676.07 684.59 676.4 683.28 676.33 680.78 676.13 679.42 674.03 674.29 705.7 679.83 707.12 680.31 707.89 680.8 708.74 681.67 709.2 682.57 709.51 683.59 709.37 711.68 709.54 713.21 709.78 714.02 709.82 714.75 709.76 715.37 709.51 716.15 709.46 716.88 709.51 717.6 709.67 718.22 710.14 721.12 710.66 722.77 711.29 723.38 711.96 723.54 712.78 723.39 713.66 723.35 714.98 723.45 715.56 723.39 716.83 723.03 717.59 723.01 719.75 723.68 720.78 723.75 721.76 723.51 722.5 723.25 724.07 722.34 726.16 720.44 726.8 720.04 727.52 719.82 728.17 719.83 728.98 720.11 729.62 720.24 730.32 720.15 730.9 719.88 731.46 719.49 732.53 719.46 734.13 719.88 740.13 723.09 742.76 723.42 744.35 723.9 745.31 724.54 745.86 725.17 747.52 728.34 748.44 729.14 749.59 729.65 753.6 730.64 755.03 731.38 755.65 731.85 755.73 731.91 Z" id="LBR-781" data-name="Maryland"/>
<path d="M 594.89 604.63 593.38 611.77 593.19 614.29 593.82 617.32 595.45 622.41 596.51 624.65 597.5 626.06 611.2 640.09 617.23 649.13 618.05 650.79 618.9 653.9 619.09 656.98 618.62 663.13 616.12 664.08 614.52 665.02 613.41 666.03 607.24 673.45 605.61 676.15 604.89 676.98 603.96 677.68 602.37 678.31 601.33 678.51 592.89 678.46 591.38 678.7 590.62 679 589.88 679.38 576.99 689.31 571.19 692.58 570.19 693.66 568.95 695.33 564.41 703.19 561.69 709.06 561.1 709.79 560.27 710.45 558.64 711.09 557.62 711.34 552.77 711.68 552.04 712.27 551.33 713.39 549.92 718.37 549.48 721.22 548.54 724.27 546.83 726.49 541.71 731.01 541.69 731.03 533.21 727.94 527.15 724.7 513.47 713.15 508.39 709.92 502.39 707.15 500.36 706.77 496.34 704.99 490.36 704.07 485.58 702.63 481 700.49 477.65 697.96 478.28 697.53 478.41 697.41 478.46 697.18 478.86 696.5 470.3 694.15 463.41 690.14 452.24 680.52 449.16 678.55 442.39 675.35 436.31 670.83 432.8 669.52 429.53 667.87 426.94 664.41 429.48 664.41 426.91 660.87 422.99 658.73 418.66 657.1 414.84 655.11 402.33 643.4 402.37 643.4 402.63 643.36 403.06 642.94 403.17 642.65 403.11 642.35 402.7 641.84 400.99 640.53 400.72 640.26 400.48 639.96 400.35 639.64 400.18 638.87 400.09 637.74 400.12 637.16 400.18 636.77 400.48 636.36 400.94 636 403.8 635.12 404.44 634.83 404.86 634.56 405.18 634.32 406.51 633.08 407.04 632.77 408.12 632.32 408.64 631.72 409.08 630.79 409.64 628.85 410.05 627.93 410.55 627.33 411.64 626.96 412.34 626.86 413.15 626.81 413.67 626.89 414.01 626.87 414.32 626.75 415.1 625.97 420.57 618.77 421.32 617.11 422.18 613.85 422.43 612.17 422.49 611.14 418.49 593.32 417.45 590.35 416.03 587.94 414.88 585.41 414.18 582.61 418.24 578.26 423.59 575.17 429.16 569.7 432.29 567.38 437.7 565.17 439.44 564.24 445.43 559.62 447.89 558.63 452.08 557.95 453.96 557.27 455.48 555.82 456.26 553.67 456.78 548.25 457.33 545.78 459.7 541.03 462.9 536.96 467.04 534.06 472.21 532.83 494.82 533.36 497.97 531.83 499.89 530 502.83 525.62 553.67 553.96 564.82 558.8 577.33 543.67 577.97 543.11 579.31 542.71 581.21 542.48 587.41 542.86 589.19 543.2 590.7 543.79 596.69 547.41 598.94 549.14 601.67 551.87 605.41 557.29 608.39 562.73 609.49 565.75 610.24 568.61 610.37 569.96 610.3 572.04 610.16 572.75 609.94 573.42 609.58 574.05 609.06 574.63 608.4 575.08 607.67 575.43 604.42 576.26 602.78 576.49 596.44 576.66 595.58 576.76 594.12 577.1 593.38 577.35 592.67 577.75 592.07 578.27 591.61 578.94 591.27 579.62 591.07 580.35 590.77 582.45 590.57 583.12 590.28 583.78 586.19 589.53 585.35 591 585.02 591.76 584.79 592.56 584.8 593.48 585.02 594.54 585.83 596.13 586.61 596.9 587.42 597.39 590.46 598.05 593.2 598.99 594.19 599.65 594.85 600.36 595.15 601.06 595.27 601.82 595.25 602.57 594.9 604.62 594.89 604.63 Z" id="LBR-782" data-name="Sinoe"/>
<path d="M 197.45 330.2 194.33 335.6 193.07 337.08 190.32 338.17 190.17 338.23 186.33 339.78 180.98 340.39 179.68 341.11 179.28 342.91 179.4 345.61 179.13 348.04 177.62 349.1 176.9 350.1 177.19 352.4 178.23 356.48 177.53 358.21 174.2 362.13 173.02 363.87 173.26 363.94 173.02 367.74 172.75 368.87 171.99 370.73 171.69 371.85 171.47 373.95 171.69 380.51 172.49 381.97 177.62 387.16 179.35 389.55 179.34 390.89 177.02 393.16 172.51 396.64 170.27 397.11 167 395.59 166.41 394.94 165.72 394.34 157.83 389.28 156.05 388.48 155.05 388.33 153.95 388.5 152.56 388.98 150.81 390.1 149.03 391.49 145.97 394.37 143.1 396.5 142.38 396.77 137.76 397.65 135.36 398.47 133.25 399.75 132.24 400.78 131.67 401.8 131.49 402.99 131.41 404.88 131.53 406.44 131.82 407.97 133.69 413.34 134.09 414.97 133.85 417.35 131.68 422.66 131.6 422.77 131.57 422.82 128.12 415.92 121.68 409.07 114.16 403.97 83.41 387.36 78.83 385.73 78.83 385.71 78.24 383.37 77.92 380.87 78.17 379.41 78.79 377.83 80.32 375.52 81.38 374.34 82.36 373.49 83.2 372.95 85.12 372.17 87.17 371.69 87.91 370.95 88.32 369.69 88.59 367.27 89.16 365.47 90.46 363.38 91.42 362.35 92.39 361.63 93.13 361.19 93.84 360.96 94.5 360.88 95.41 361.05 97.02 361.64 97.75 361.46 98.21 361 98.5 360.55 98.98 359.27 100.53 353.14 100.77 349.26 101.24 346.24 100.7 343.98 100.07 342.86 98.04 340.69 97.78 339.58 97.93 338.08 100.55 332.58 105.59 318.76 105.79 317.16 105.5 315.18 105.59 313.48 106.44 309.74 105.74 307.61 107.19 307.05 108.46 307.01 119.29 310.8 121.57 311.04 125.75 310.73 129.42 309.76 130.35 309.73 131.25 309.77 143.44 312.26 144.47 313.32 144.8 314.06 144.73 314.84 144.94 315.36 145.27 315.77 145.73 316.2 145.55 316.58 144.88 316.72 141.89 316.66 141.13 316.72 140.72 317.05 140.64 317.55 140.81 318.18 141.17 318.96 141.41 319.6 141.55 320.18 141.49 320.71 141.13 322.06 140.83 322.77 140.64 323.45 140.37 324.01 140.25 324.57 140.31 325.12 140.77 326.46 141.11 327.16 141.38 327.97 141.29 328.75 140.87 329.43 140.75 330.1 141.06 331.44 141.01 332.05 140.53 333.16 140.44 333.72 140.64 334.83 142.09 336.13 142.52 336.66 142.77 337.4 143.18 338.23 143.87 339.28 145.24 340.81 146.62 342.09 147.78 342.2 149.47 341.94 153 340.46 154.96 339.32 156.56 338.17 158.55 336.48 160.12 335.53 170.25 331.55 191.68 331.49 197.45 330.2 Z" id="LBR-783" data-name="Bomi"/>
<path d="M 463.2 266.69 462.49 268.48 456.09 289.7 452.62 294.51 452.2 297.44 452.13 299.41 451.24 301.8 451 303.54 450.94 306.2 450.89 306.29 450.5 306.9 447.23 310.21 447.27 311.04 448.49 312.36 449.57 313.97 450.36 314.48 452.12 315.37 452.76 316.22 453.26 317.29 453.73 318.79 454.36 319.75 455.07 320.5 455.58 321.33 456.17 323.46 456.67 324.24 457.53 324.56 458.15 324.68 459 324.74 459.37 324.91 459.89 325.25 460.87 326.92 462.49 328.58 462.52 330.07 461.44 335.6 461.27 337.69 461.45 339.6 462.34 343.62 462.16 344.98 461.59 345.91 460.14 347.15 459.49 347.83 458.7 348.51 457.95 349.26 457.27 350.23 457.4 351.19 458.01 351.93 458.66 353.18 458.7 354.24 458.3 355.09 456.86 356.33 456.43 357.24 456.06 358.19 455.56 359.16 454.27 361.03 454.26 361.97 454.63 363.19 453.91 366.06 453.41 367.25 452.76 368.28 451.25 370.04 451.25 371.05 452.64 373.4 452.7 374.73 451.63 377.89 450.75 378.82 449.88 379.21 447.93 379.16 445.76 379.42 442.58 379.36 424.03 383.99 421.79 383.79 421.46 382.76 420.91 381.84 419.54 381.22 418.71 381.58 418.11 382.28 416.88 383.42 413.92 385.49 413.04 386.44 412.55 387.54 412.34 388.62 411.88 389.74 411.1 390.72 409.73 391.9 408.4 392.17 406.67 392.13 405.7 392.48 401.93 396.12 399.02 398.16 397.99 399.74 396.74 402.15 395.83 402.19 394.78 401.9 393.06 401.6 391.95 401.96 390.99 402.57 390.14 403.45 389.11 403.55 388.12 403.37 386.83 403.29 386.13 403.76 385.77 404.58 385.56 405.54 384.3 407.43 383.18 408.68 382.51 409.16 381.58 409.44 379.69 409.24 378.9 409.25 377.19 409.47 376.18 409.44 373.98 408.65 372.33 408.44 371.43 408.88 367.86 412.03 362.56 415.06 360.24 415.85 358.61 415.85 358.04 415.14 357.6 414.41 357.29 413.67 357.14 412.99 357.1 412.28 357.2 411.5 357.43 410.71 357.75 409.92 359.59 406.87 364.51 400.63 367.26 398 369.62 395.16 370.02 394.44 370.27 393.75 370.42 393.03 370.44 392.34 370.35 391.55 370.03 390.53 369.28 389.22 368.37 388.04 363.73 383.99 358.61 377.81 357.73 376.97 356.62 376.18 354.73 375.3 353.58 375.12 352.64 375.17 351.94 375.35 342.3 376.38 340.85 376.29 340.09 375.89 339.48 375.48 338.51 374.12 342.47 365.5 343.47 362.54 343.51 361.43 343.42 360.08 343.09 358.16 342.69 356.85 342.22 355.74 341.69 354.85 341.04 353.98 339.69 352.61 337.09 350.58 333.84 348.52 332.31 347.78 330.72 347.25 328.84 346.81 328.06 346.75 327.27 346.84 326.56 347.15 325.75 347.69 324.41 349.08 323.42 350.46 323.02 351.19 322.72 352 322.48 352.91 322.33 353.86 322.32 355.6 322.85 360.11 322.79 360.9 322.56 361.67 322.05 362.41 319.2 365.07 318.7 365.8 318.01 367.24 317.42 368.83 317.06 370.31 316.74 373.19 316.24 375.47 315.96 376.18 315.28 376.97 314.17 377.8 311.92 378.82 310.6 379.03 309.56 378.95 308.88 378.54 308.19 378.02 306.79 376.5 303.42 371.88 302.75 371.26 301.33 370.26 300.6 369.87 296.22 368.42 287.97 366.47 286.21 366.31 285.48 366.47 283.29 367.31 278.84 369.74 276.2 370.49 274.62 370.64 273.07 370.49 249.01 362.54 247.37 361.64 245.68 360.5 244.04 359.16 240.74 355.78 239.77 355 238.41 354.12 235.76 352.75 234.19 352.17 232.96 351.85 229.93 352.02 225.76 352.59 219.28 352.68 216.08 350 214.08 349.4 213.16 349.46 211.54 349.73 209.68 349.85 201.24 349.35 198.9 348.57 196.91 347.06 196.26 345.4 190.17 338.23 190.32 338.17 193.07 337.08 194.33 335.6 197.45 330.2 199.12 324.01 199.69 320.68 199.91 316.39 200.14 315.66 200.45 314.99 201.68 314.04 203.59 312.86 210.06 309.93 211.54 309.5 212.28 309.5 217.29 310.39 218.71 310.38 220.2 310.12 221.74 309.67 223.19 308.55 229.36 302.14 232.41 298.13 234.33 294.55 235.29 293.18 248.08 282.89 249.73 280.8 250.32 280.17 252.38 279.38 257.47 279.55 264.27 281.19 267.04 282.33 267.34 282.65 267.46 283.16 267.43 283.67 267.15 284.81 266.66 285.38 265.8 286.16 265.3 286.9 265.17 287.64 265.56 288.24 266.08 288.85 266.46 289.63 267.02 291.67 267.34 292.38 267.88 294.3 267.93 294.79 267.7 295.23 267.31 295.61 266.99 296.05 267.08 296.49 267.55 296.84 268.13 297.07 270.25 298.07 273.27 297.52 276.6 295.11 282.68 289.06 289.93 284.19 294.03 282.34 298.66 281.07 299.81 280.94 301.09 280.95 302.3 281.18 303.26 281.68 304.36 281.94 305.27 281.17 306.21 280.14 307.38 279.62 308.33 278.8 312.1 274.18 315.3 271.78 322.55 267.62 325.29 264.98 331.08 267.62 333.84 268.36 340.89 269.3 342.21 269.26 344.05 268.84 345.69 268.07 349.01 265.79 350.71 264.98 350.71 266.18 353.41 264.72 355.91 262.03 357.17 259.09 356.15 256.86 357.26 254.44 358.73 252.31 360.72 250.79 366.09 249.79 369.88 247.96 374.24 246.98 377.34 245.59 384.86 240.55 389.57 235.56 389.29 234.85 389.19 234.17 388.91 233.52 388.89 233.49 388.99 233.56 390.6 232.77 396.27 227.28 398.45 224.06 402.23 230.65 404.45 232.55 407.39 228.29 408.52 227.94 409.5 227.3 409.93 225.18 410.72 224.5 412.52 224.15 415.78 224.06 418.55 224.43 419.97 224.94 421.6 225.93 422.96 227.62 424.31 231.49 425.48 232.83 428.54 233.32 435.19 231.57 438.19 231.91 441.01 235.87 443.66 248.09 448.49 252.51 449.67 252.72 454.03 252.55 455.13 253.35 455.24 256.72 456.75 257.93 460.56 259.87 461.25 262.46 459.43 269.18 461.67 267.19 463.2 266.69 Z" id="LBR-784" data-name="Bong"/>
<path d="M 447.93 379.16 456.79 381.99 459.07 382.43 460.14 381.97 460.6 381.66 462.3 381.04 463.75 381.25 464.62 381.57 465.78 382.4 466.11 382.97 466.19 383.49 465.7 384.84 465.28 386.48 465.22 386.85 465.12 387.23 464.65 388.24 464.39 388.56 464 388.85 461.33 389.83 460.86 390.1 460.56 390.34 458.42 392.96 458.09 393.55 457.42 395.31 456.49 400.83 456.23 401.83 454.57 405.05 454.46 405.49 454.53 405.88 454.74 406.03 455.13 406.19 455.53 406.2 455.96 406.13 457.03 405.75 457.44 405.79 457.98 406.07 458.78 406.65 459.04 407.4 459.07 408.05 458.07 412.75 456.63 416.97 456.38 418.09 456.3 419.35 456.54 422.47 456.52 423.28 456.02 426.29 455.79 432.04 414.66 432.24 411.91 434.04 410.5 434.61 407.57 435.48 406.1 436.17 405.19 436.49 397.38 438.13 396.56 438.49 395.8 439 394.89 439.82 394.39 440.53 394.01 441.23 393.88 441.89 393.94 442.56 394.12 443.24 394.63 444.59 394.83 445.27 394.96 445.93 394.97 447.26 394.75 448.59 393.38 453.56 393.25 454.97 393.32 457.91 395.26 468.05 394.87 468.99 394.03 470.26 388.02 475.74 386.86 477.12 382.62 483.89 381.51 485.27 380.7 485.59 379.94 485.48 379.32 484.98 378.79 484.38 377.84 483.09 377.23 482.59 376.52 482.28 375.16 481.97 372.37 481.74 370.12 481.86 368.02 482.26 366.86 482.82 365.94 483.55 365.43 484.36 365.02 485.16 364.78 485.98 364.69 486.75 364.82 488.45 364.73 489.43 364.24 490.7 363.56 491.38 358.61 493.3 357.47 494.11 356.75 494.98 356.57 495.77 356.52 496.56 356.75 497.96 356.94 498.64 357.05 499.31 357.02 500.6 356.92 501.25 356.92 501.28 354.54 508.72 354.47 509.47 354.48 510.15 355.09 512.16 355.1 512.91 354.86 513.71 353.84 515.5 353.57 516.24 353.55 516.89 353.93 518.28 355.67 521.76 355.78 522.48 355.69 523.16 355.45 523.82 349.11 533.9 348.51 535.33 347.88 537.76 347.82 538.51 347.84 539.21 348.17 540.61 349.88 544.28 350.3 545.64 350.39 546.29 350.4 547.53 350.34 548.06 350.18 548.55 348.95 550.93 348.67 551.71 348.53 552.49 348.53 553.25 348.62 554.11 348.84 554.85 349.16 555.58 350.5 557.7 351.15 559.18 352.45 565.17 352.51 566.11 352.42 567.26 351.92 569.13 351.27 570.23 346.76 574.48 345.87 575.77 345.33 576.91 344.99 578.17 344.32 578.86 343.4 579.38 342.17 579.88 341.42 580.54 341.06 581.23 340.92 582 340.91 582.91 340.91 582.95 319.66 562.62 292.84 540.66 285.91 532.85 284.46 531.66 281.08 529.69 279.86 528.25 279.31 526.29 280.14 523.81 279.86 521.48 278.04 518.49 274.97 515.95 271.5 514.15 268.55 513.48 266.45 512.34 252.66 501.46 244.69 492.78 234.29 486.27 230.73 484.72 223.35 483.3 219.9 481.32 217.86 478.72 218.38 476.08 220.17 477.19 221.7 477.35 222.94 476.56 223.82 474.75 219.91 473.86 217.3 471.82 217.31 471.79 217.38 471.53 219.34 467.72 219.6 466.72 220.23 465.45 221.62 463.45 221.88 462.44 221.66 461.53 220.92 459.67 220.85 458.52 221.56 452.75 221.92 451.79 222.35 450.96 225.27 447.34 226.19 445.28 226.86 444.69 228.02 444.3 229 443.77 229.66 442.59 229.71 441.45 229.35 440.47 228.7 439.8 228.29 439.06 228.21 438.28 228.25 437.41 228.09 436.56 228.14 435.78 228.85 435.26 230.79 434.55 232.94 433.38 236.29 430.27 237.51 428.35 238.17 426.77 238.16 425.63 237.26 422.68 237.11 421.6 237.24 420.54 237.66 419.65 243.73 413.19 244.57 411.04 245.49 409.36 246.05 407.3 246.79 405.54 246.79 404.62 246.26 403.97 244.57 403.08 244.18 402.24 243.85 400.42 243.21 399.92 242.45 399.66 241.85 399.15 241.44 397.73 242.32 397.12 243.95 396.24 250.96 394.9 254.12 393.76 256.22 394.44 256.99 394.8 257.11 395.22 257.03 395.69 256.78 396.27 256.63 397.02 256.7 397.83 257.06 398.65 257.61 399.24 259.01 400.11 259.51 400.56 259.84 401.03 260.11 401.53 260.49 402.01 260.99 402.36 264 403.31 264.73 403.75 265.32 404.26 266.44 405.63 267.1 406.17 268.26 406.49 269.81 406.56 272.61 406.14 274.16 405.66 275.73 404.44 276.64 403.58 277.34 402.61 278.98 401.03 279.58 400.8 282.73 401.3 285.19 400.85 288 400.94 293.36 402.54 294.89 402.8 296.43 402.81 297.8 402.21 299.61 401.06 304.77 396.44 306.58 394.4 307.55 393.65 308.64 393.17 310.28 392.96 311.34 393.05 312.31 393.32 316.09 395.35 316.79 395.62 317.51 395.81 318.22 395.87 318.98 395.82 319.75 395.67 323.92 391.66 338.51 374.12 339.48 375.48 340.09 375.89 340.85 376.29 342.3 376.38 351.94 375.35 352.64 375.17 353.58 375.12 354.73 375.3 356.62 376.18 357.73 376.97 358.61 377.81 363.73 383.99 368.37 388.04 369.28 389.22 370.03 390.53 370.35 391.55 370.44 392.34 370.42 393.03 370.27 393.75 370.02 394.44 369.62 395.16 367.26 398 364.51 400.63 359.59 406.87 357.75 409.92 357.43 410.71 357.2 411.5 357.1 412.28 357.14 412.99 357.29 413.67 357.6 414.41 358.04 415.14 358.61 415.85 360.24 415.85 362.56 415.06 367.86 412.03 371.43 408.88 372.33 408.44 373.98 408.65 376.18 409.44 377.19 409.47 378.9 409.25 379.69 409.24 381.58 409.44 382.51 409.16 383.18 408.68 384.3 407.43 385.56 405.54 385.77 404.58 386.13 403.76 386.83 403.29 388.12 403.37 389.11 403.55 390.14 403.45 390.99 402.57 391.95 401.96 393.06 401.6 394.78 401.9 395.83 402.19 396.74 402.15 397.99 399.74 399.02 398.16 401.93 396.12 405.7 392.48 406.67 392.13 408.4 392.17 409.73 391.9 411.1 390.72 411.88 389.74 412.34 388.62 412.55 387.54 413.04 386.44 413.92 385.49 416.88 383.42 418.11 382.28 418.71 381.58 419.54 381.22 420.91 381.84 421.46 382.76 421.79 383.79 424.03 383.99 442.58 379.36 445.76 379.42 447.93 379.16 Z" id="LBR-785" data-name="Grand Bassa"/>
<path d="M 105.74 307.61 106.44 309.74 105.59 313.48 105.5 315.18 105.79 317.16 105.59 318.76 100.55 332.58 97.93 338.08 97.78 339.58 98.04 340.69 100.07 342.86 100.7 343.98 101.24 346.24 100.77 349.26 100.53 353.14 98.98 359.27 98.5 360.55 98.21 361 97.75 361.46 97.02 361.64 95.41 361.05 94.5 360.88 93.84 360.96 93.13 361.19 92.39 361.63 91.42 362.35 90.46 363.38 89.16 365.47 88.59 367.27 88.32 369.69 87.91 370.95 87.17 371.69 85.12 372.17 83.2 372.95 82.36 373.49 81.38 374.34 80.32 375.52 78.79 377.83 78.17 379.41 77.92 380.87 78.24 383.37 78.83 385.71 78.83 385.73 48.41 374.9 24.99 364.55 20.76 359.53 20.59 351.77 21.72 347.44 21.97 345.61 22.04 343.06 19.38 338.09 18.66 337.12 15 336.09 11.13 333.7 7.85 330.98 5.95 329.01 1 321.98 7.18 319.15 8.69 318.25 8.28 313.32 9.1 310.01 14.44 306.98 16.3 303.77 17.51 300.07 17.94 297.16 17.24 293.23 17.86 291.93 22.12 291.46 23.57 290.93 24.6 289.88 25 288.17 24.35 285.72 21.59 281.23 21.08 279.19 21.68 278.46 25.21 275.21 32 264.62 35.32 263.94 51.37 256.72 53.05 255.14 65.74 238.95 69.23 234.5 98.17 211.71 106.14 207.25 113.56 205.55 116.15 204.44 118.32 202.75 120.38 200.25 122.97 200.56 129.96 202.15 130.61 202.47 131.47 203.05 132.03 204.39 132.66 204.74 133.26 204.92 134.38 204.89 137.1 204.33 137.61 204.33 138.07 204.61 139.72 205.8 153.73 208.4 154.79 208.16 157.63 207.78 159.26 210.31 160.45 210.84 163.77 210.52 166.85 210.58 170.77 211.02 172.74 211.87 174.48 213.26 185.83 228.96 186.33 229.93 186.98 231.76 187.7 235.8 187.74 239.62 187.59 241.28 188.55 245.73 188.27 247.12 187.49 248.41 184.85 250.15 183.48 251.48 182.88 252.21 182.18 252.86 181.32 253.36 177.22 254.66 176.31 255.11 175.49 255.64 172.64 258.16 158.52 266.82 153.85 267.79 152.79 268.1 151.9 268.56 151.17 269.2 150.57 269.91 149.88 270.57 145.92 273.35 145.13 274.16 144.34 275.14 141.3 280.27 140.9 280.77 140.3 281.26 138.64 282.12 137.22 283.37 136.57 284.07 135.8 284.55 134.91 284.86 132.99 284.79 132.07 285.08 128.52 287.02 127.6 287.68 125.99 289.62 125.25 290.3 124.33 290.75 121.23 291.73 120.31 292.18 119.6 292.78 118.35 294.11 117.69 294.61 116.65 295.17 114.78 297.41 112.62 300.8 111.31 302.36 110.03 303.33 107.49 303.78 106.25 304.28 104.86 305.22 104.29 306.16 104.31 306.25 105.74 307.61 Z" id="LBR-786" data-name="Grand Cape Mount"/>
<path d="M 412.17 158.54 414.56 161.59 412.44 166.61 410.51 173.55 410.81 180.11 414.95 184.89 412.82 186.48 411.15 189 410.02 191.94 409.07 197.15 407.67 199.36 404.18 203.41 404.92 206.11 403.27 210.27 398.84 216.84 394.82 219.87 392.97 221.74 392.18 224.17 392.06 226.83 391.55 229.13 390.34 231.11 388.19 232.94 388.89 233.49 388.91 233.52 389.19 234.17 389.29 234.85 389.57 235.56 384.86 240.55 377.34 245.59 374.24 246.98 369.88 247.96 366.09 249.79 360.72 250.79 358.73 252.31 357.26 254.44 356.15 256.86 357.17 259.09 355.91 262.03 353.41 264.72 350.71 266.18 350.71 264.98 349.01 265.79 345.69 268.07 344.05 268.84 342.21 269.26 340.89 269.3 333.84 268.36 331.08 267.62 325.29 264.98 321.38 242.2 350.34 175.59 348.17 162.56 298.93 142.28 267.8 149.52 249.7 124.18 244.63 131.4 209.15 120.56 198.29 110.42 178.74 115.49 168.7 106.87 169.5 105.05 171.25 103.61 176.19 100.89 178.27 98.93 182.79 90.57 185.66 87.02 190.25 84.77 194.15 84.18 209.88 84.1 213.88 83.54 217.71 82.36 221.49 80.18 226.29 75.55 226.83 71.94 225.3 68.06 223.88 62.55 224.27 58.16 227.71 50.74 233.7 26.83 233.83 16.75 235.96 16.85 238.01 16.5 242.02 14.97 243.55 18.23 246.82 16.37 253.41 9.93 256.72 8.95 260.02 9.02 271.11 11.78 274.03 13.46 275.36 16.31 273.4 25.46 274.24 28.06 276.84 28.93 281 28.25 288.84 23.64 296.46 17.74 299.76 16.03 302.88 15.03 306.16 14.6 309.96 14.55 310.93 14.41 313.68 13.68 314.58 14.13 315.49 15.01 316.44 16.28 318.18 15.76 321.71 13.94 326.55 12.53 326.81 11.26 326.15 9.76 326.15 8.2 327.48 6.5 328.88 5.07 329.82 3.4 329.71 1 333.03 1.46 335.08 4.01 336.2 7.37 337.45 16.51 338.35 19.98 340.37 23.41 343.06 26.3 343.83 25.79 343.87 22.98 344.35 18.95 346.74 16.24 350.59 16.28 354.49 18.07 357.02 20.62 358.08 24.79 356.47 27.12 353.91 28.89 352.07 31.37 351.81 34.91 353.54 35.45 356.47 34.79 359.83 34.7 361.4 34.89 363.07 34.67 364.51 33.97 365.45 32.68 366.85 31.13 368.43 32.26 370.94 35.73 380.71 39.82 384.14 42.27 385.53 43.75 386.55 44.28 384.14 45.71 383.33 46.05 382.03 46.77 380.82 47.74 378.7 49.91 380.49 51.59 381.48 53.64 382.24 55.8 383.33 57.75 384.28 58.59 384.59 59.46 384.27 60.35 383.33 61.22 381.42 64.3 380.16 69.85 380.5 75.08 383.33 77.16 388.07 78.11 390 79.14 390.65 81.46 390.66 83.71 394.22 97.84 393.81 99.87 391.69 103.39 391.41 105.64 393.75 102.78 395.83 101.17 397.9 101.4 400.17 104.06 401.17 106.15 401.52 108.18 401.09 110.12 399.69 111.93 399.43 112.53 396.91 121 396.43 129.23 398.34 137.34 402.82 145.5 407.89 151.93 409.59 155.25 412.17 158.54 Z" id="LBR-787" data-name="Lofa"/>
<path d="M 219.28 352.68 219.94 357.51 219.53 359.33 209.73 378.14 209 379.9 208.64 381.17 208.85 382.59 209.34 384.05 209.68 384.73 212.01 387.68 212.86 389.19 213.46 390.75 213.92 392.37 214.62 396.77 214.9 408.18 214.53 411.13 214.07 413.1 213.45 413.86 212 415.14 211.15 415.64 210.25 416.05 203.46 418.27 202.76 418.65 201.86 419.69 200.8 421.28 197.57 427.47 196.3 428.82 195.57 429.36 193.95 430.29 184.96 433.71 183.43 434.48 177.15 439.28 175.53 439.97 173.25 440.73 172.37 441.15 171.43 441.77 169.99 443.02 169.26 443.92 168.72 444.81 164.69 457.99 164.69 458.01 160.28 456.92 135.14 444.15 131.33 440.66 132.79 437.35 133.73 438.95 134.75 440.07 136.17 440.83 138.25 441.34 135 435.96 134.36 431.27 136.31 426.9 140.78 422.46 138 422.46 135.97 423.03 134.36 424.01 132.79 425.25 131.57 422.82 131.6 422.77 131.68 422.66 133.85 417.35 134.09 414.97 133.69 413.34 131.82 407.97 131.53 406.44 131.41 404.88 131.49 402.99 131.67 401.8 132.24 400.78 133.25 399.75 135.36 398.47 137.76 397.65 142.38 396.77 143.1 396.5 145.97 394.37 149.03 391.49 150.81 390.1 152.56 388.98 153.95 388.5 155.05 388.33 156.05 388.48 157.83 389.28 165.72 394.34 166.41 394.94 167 395.59 170.27 397.11 172.51 396.64 177.02 393.16 179.34 390.89 179.35 389.55 177.62 387.16 172.49 381.97 171.69 380.51 171.47 373.95 171.69 371.85 171.99 370.73 172.75 368.87 173.02 367.74 173.26 363.94 173.02 363.87 174.2 362.13 177.53 358.21 178.23 356.48 177.19 352.4 176.9 350.1 177.62 349.1 179.13 348.04 179.4 345.61 179.28 342.91 179.68 341.11 180.98 340.39 186.33 339.78 190.17 338.23 196.26 345.4 196.91 347.06 198.9 348.57 201.24 349.35 209.68 349.85 211.54 349.73 213.16 349.46 214.08 349.4 216.08 350 219.28 352.68 Z" id="LBR-788" data-name="Montserrado"/>
<path d="M 338.51 374.12 323.92 391.66 319.75 395.67 318.98 395.82 318.22 395.87 317.51 395.81 316.79 395.62 316.09 395.35 312.31 393.32 311.34 393.05 310.28 392.96 308.64 393.17 307.55 393.65 306.58 394.4 304.77 396.44 299.61 401.06 297.8 402.21 296.43 402.81 294.89 402.8 293.36 402.54 288 400.94 285.19 400.85 282.73 401.3 279.58 400.8 278.98 401.03 277.34 402.61 276.64 403.58 275.73 404.44 274.16 405.66 272.61 406.14 269.81 406.56 268.26 406.49 267.1 406.17 266.44 405.63 265.32 404.26 264.73 403.75 264 403.31 260.99 402.36 260.49 402.01 260.11 401.53 259.84 401.03 259.51 400.56 259.01 400.11 257.61 399.24 257.06 398.65 256.7 397.83 256.63 397.02 256.78 396.27 257.03 395.69 257.11 395.22 256.99 394.8 256.22 394.44 254.12 393.76 250.96 394.9 243.95 396.24 242.32 397.12 241.44 397.73 241.85 399.15 242.45 399.66 243.21 399.92 243.85 400.42 244.18 402.24 244.57 403.08 246.26 403.97 246.79 404.62 246.79 405.54 246.05 407.3 245.49 409.36 244.57 411.04 243.73 413.19 237.66 419.65 237.24 420.54 237.11 421.6 237.26 422.68 238.16 425.63 238.17 426.77 237.51 428.35 236.29 430.27 232.94 433.38 230.79 434.55 228.85 435.26 228.14 435.78 228.09 436.56 228.25 437.41 228.21 438.28 228.29 439.06 228.7 439.8 229.35 440.47 229.71 441.45 229.66 442.59 229 443.77 228.02 444.3 226.86 444.69 226.19 445.28 225.27 447.34 222.35 450.96 221.92 451.79 221.56 452.75 220.85 458.52 220.92 459.67 221.66 461.53 221.88 462.44 221.62 463.45 220.23 465.45 219.6 466.72 219.34 467.72 217.38 471.53 217.31 471.79 217.3 471.82 217.11 471.68 214.65 469.04 211.72 466.77 205.38 462.86 202.15 461.53 198.4 461.31 198.4 462.77 208.49 467.93 212.94 471.61 214.39 476.08 211.43 472.45 206.02 469.18 199.81 466.67 164.69 458.01 164.69 457.99 168.72 444.81 169.26 443.92 169.99 443.02 171.43 441.77 172.37 441.15 173.25 440.73 175.53 439.97 177.15 439.28 183.43 434.48 184.96 433.71 193.95 430.29 195.57 429.36 196.3 428.82 197.57 427.47 200.8 421.28 201.86 419.69 202.76 418.65 203.46 418.27 210.25 416.05 211.15 415.64 212 415.14 213.45 413.86 214.07 413.1 214.53 411.13 214.9 408.18 214.62 396.77 213.92 392.37 213.46 390.75 212.86 389.19 212.01 387.68 209.68 384.73 209.34 384.05 208.85 382.59 208.64 381.17 209 379.9 209.73 378.14 219.53 359.33 219.94 357.51 219.28 352.68 225.76 352.59 229.93 352.02 232.96 351.85 234.19 352.17 235.76 352.75 238.41 354.12 239.77 355 240.74 355.78 244.04 359.16 245.68 360.5 247.37 361.64 249.01 362.54 273.07 370.49 274.62 370.64 276.2 370.49 278.84 369.74 283.29 367.31 285.48 366.47 286.21 366.31 287.97 366.47 296.22 368.42 300.6 369.87 301.33 370.26 302.75 371.26 303.42 371.88 306.79 376.5 308.19 378.02 308.88 378.54 309.56 378.95 310.6 379.03 311.92 378.82 314.17 377.8 315.28 376.97 315.96 376.18 316.24 375.47 316.74 373.19 317.06 370.31 317.42 368.83 318.01 367.24 318.7 365.8 319.2 365.07 322.05 362.41 322.56 361.67 322.79 360.9 322.85 360.11 322.32 355.6 322.33 353.86 322.48 352.91 322.72 352 323.02 351.19 323.42 350.46 324.41 349.08 325.75 347.69 326.56 347.15 327.27 346.84 328.06 346.75 328.84 346.81 330.72 347.25 332.31 347.78 333.84 348.52 337.09 350.58 339.69 352.61 341.04 353.98 341.69 354.85 342.22 355.74 342.69 356.85 343.09 358.16 343.42 360.08 343.51 361.43 343.47 362.54 342.47 365.5 338.51 374.12 Z" id="LBR-789" data-name="Margibi"/>
<path d="M 568.25 172.06 567.2 179.37 568.42 184.7 572.06 189.11 578.34 193.72 584.23 197.46 592.38 201.53 595.9 208.39 599.89 222.17 602.25 241.07 603.29 244.85 604.58 247.18 607.91 251.88 609.17 254.45 610.7 260.5 611.62 262.04 613.96 264.95 614.74 266.49 614.84 267.78 614.43 270.25 614.59 271.5 615.28 272.71 618.15 275.6 619.35 277.62 619.88 279.44 620.15 284.19 623.49 302.79 623 307.48 621.54 309.32 617.55 312.4 616.5 314.07 616.25 317.53 616.5 320.73 616.32 323.79 613.83 329.17 614.78 330.63 616.38 331.69 617.33 332.83 617.47 335.47 617.15 338.2 615.52 344.05 613.08 349.71 610.3 353.98 592.77 373.49 588.93 377.76 574.85 388.89 572.2 392.07 571.74 392.05 568.5 393.85 568.29 393.91 568.5 394.21 567.62 396.92 567.21 397.76 566.31 398.31 563.96 398.69 563.04 399.12 558.24 405.17 558.14 405.17 554.91 412.37 550.32 427.9 538.62 451.29 535.53 455.98 531.12 461.11 525.96 465.35 520.55 467.34 517.73 468.85 515.31 475.21 512.39 477.62 514.59 480.77 515.04 485.6 514.17 490.62 512.43 494.39 509.36 496.45 501.47 497.33 498.09 498.48 495.61 501.79 497.19 504.19 499.59 506.07 499.54 507.84 495.96 512.43 494.86 516.91 495.91 518.98 498.77 516.31 501.71 518.99 503.26 522.02 502.83 525.62 499.89 530 497.97 531.83 494.82 533.36 472.21 532.83 467.04 534.06 467.9 529.51 468.11 527.92 468.27 527.5 469.89 524.91 469.93 524.27 469.74 523.43 468.83 521.89 466.8 519.16 466.21 517.83 466.1 516.92 466.25 516.02 466.96 514.44 468.36 513.26 468.77 513.09 469.04 512.81 468.98 512.49 468.39 511.87 467.95 511.52 467.58 511.13 466.9 510.25 466.4 509.45 465.9 508.83 465.56 508.57 465.18 508.39 464.78 508.28 464.44 508.13 464.17 507.96 464.06 507.46 464.14 506.75 464.84 504.31 465.06 503.79 465.22 503.61 465.47 503.53 465.9 503.53 467.41 503.73 467.95 503.68 468.47 503.53 469.11 503.18 469.63 502.8 470.34 502.11 470.59 501.75 470.59 501.4 470.41 501.1 467.23 498.6 466.34 497.64 465.96 497.13 465.96 496.87 466.06 496.54 466.47 495.85 469.68 491.96 469.88 491.65 470.13 491.18 470 490.64 469.65 489.79 468.01 487.05 467.53 486.46 466.44 485.95 465.84 485.45 465.72 485.28 465.72 484.92 465.81 484.38 466.56 482.03 466.62 481.58 466.49 478.92 466.32 478.31 465.94 477.69 464.97 476.75 460.94 474.06 460.59 473.71 460.38 473.26 460.53 472.88 461.22 472.41 462.19 471.94 462.4 471.76 462.51 471.52 462.69 470.55 462.94 470.36 463.26 470.2 463.56 469.74 463.68 468.94 463.68 467.36 463.77 466.51 463.97 466.1 464.37 466.07 464.66 466.3 465.07 466.77 465.33 467.46 465.56 467.76 465.78 467.87 466.05 467.76 466.34 467.45 467.14 466.16 467.55 465.68 467.76 465.05 468.01 462.82 468.3 462.21 468.68 461.85 471.27 460.94 471.72 460.64 471.85 460.49 471.93 460.1 471.92 459.49 471.66 457.31 471.46 456.37 471.4 455.77 471.42 455.33 471.34 454.4 470.7 450.49 470.66 449.32 470.91 448.49 471.92 447.65 471.59 446.99 470.41 446.14 466.75 444.42 462.1 443.24 461.48 443.01 459.54 440.5 455.79 432.04 456.02 426.29 456.52 423.28 456.54 422.47 456.3 419.35 456.38 418.09 456.63 416.97 458.07 412.75 459.07 408.05 459.04 407.4 458.78 406.65 457.98 406.07 457.44 405.79 457.03 405.75 455.96 406.13 455.53 406.2 455.13 406.19 454.74 406.03 454.53 405.88 454.46 405.49 454.57 405.05 456.23 401.83 456.49 400.83 457.42 395.31 458.09 393.55 458.42 392.96 460.56 390.34 460.86 390.1 461.33 389.83 464 388.85 464.39 388.56 464.65 388.24 465.12 387.23 465.22 386.85 465.28 386.48 465.7 384.84 466.19 383.49 466.11 382.97 465.78 382.4 464.62 381.57 463.75 381.25 462.3 381.04 460.6 381.66 460.14 381.97 459.07 382.43 456.79 381.99 447.93 379.16 449.88 379.21 450.75 378.82 451.63 377.89 452.7 374.73 452.64 373.4 451.25 371.05 451.25 370.04 452.76 368.28 453.41 367.25 453.91 366.06 454.63 363.19 454.26 361.97 454.27 361.03 455.56 359.16 456.06 358.19 456.43 357.24 456.86 356.33 458.3 355.09 458.7 354.24 458.66 353.18 458.01 351.93 457.4 351.19 457.27 350.23 457.95 349.26 458.7 348.51 459.49 347.83 460.14 347.15 461.59 345.91 462.16 344.98 462.34 343.62 461.45 339.6 461.27 337.69 461.44 335.6 462.52 330.07 462.49 328.58 460.87 326.92 459.89 325.25 459.37 324.91 459 324.74 458.15 324.68 457.53 324.56 456.67 324.24 456.17 323.46 455.58 321.33 455.07 320.5 454.36 319.75 453.73 318.79 453.26 317.29 452.76 316.22 452.12 315.37 450.36 314.48 449.57 313.97 448.49 312.36 447.27 311.04 447.23 310.21 450.5 306.9 450.89 306.29 450.94 306.2 451 303.54 451.24 301.8 452.13 299.41 452.2 297.44 452.62 294.51 456.09 289.7 462.49 268.48 463.2 266.69 464.3 266.33 467.04 265.86 469.63 265.06 472.33 263.1 474.79 260.88 477.48 259.41 480.82 259.68 482.4 258.79 486.72 257.51 487.59 257.41 488.23 254.35 489.13 254.07 491.18 254.99 492.23 250.4 494.73 251.92 498.43 257.79 501.01 257.49 509.45 254.27 511.61 253.02 512.87 249.15 511.98 245.45 510.54 241.94 510.14 238.62 511.07 236.53 512.82 233.83 516.37 229.46 518.2 228.3 521.39 227.39 523.04 225.88 523.77 224.15 524.07 220.17 524.76 218.36 525.93 217.4 531.37 214.14 534.68 210.61 536.61 207.07 537.37 203.2 537.16 198.66 536.63 197.77 535.76 197.52 534.97 197.16 534.75 195.95 535.1 194.84 536.25 192.82 536.53 191.71 537.01 184.97 538.36 180.93 543.46 174.75 545.01 170.86 568.25 172.06 Z" id="LBR-791" data-name="Nimba"/>
<path d="M 467.04 534.06 462.9 536.96 459.7 541.03 457.33 545.78 456.78 548.25 456.26 553.67 455.48 555.82 453.96 557.27 452.08 557.95 447.89 558.63 445.43 559.62 439.44 564.24 437.7 565.17 432.29 567.38 429.16 569.7 423.59 575.17 418.24 578.26 414.18 582.61 414.88 585.41 416.03 587.94 417.45 590.35 418.49 593.32 422.49 611.14 422.43 612.17 422.18 613.85 421.32 617.11 420.57 618.77 415.1 625.97 414.32 626.75 414.01 626.87 413.67 626.89 413.15 626.81 412.34 626.86 411.64 626.96 410.55 627.33 410.05 627.93 409.64 628.85 409.08 630.79 408.64 631.72 408.12 632.32 407.04 632.77 406.51 633.08 405.18 634.32 404.86 634.56 404.44 634.83 403.8 635.12 400.94 636 400.48 636.36 400.18 636.77 400.12 637.16 400.09 637.74 400.18 638.87 400.35 639.64 400.48 639.96 400.72 640.26 400.99 640.53 402.7 641.84 403.11 642.35 403.17 642.65 403.06 642.94 402.63 643.36 402.37 643.4 402.33 643.4 392.07 633.8 390.68 630.9 388.62 623.82 386.87 620.36 384.81 618.37 381.64 616.18 378.22 614.42 375.36 613.71 374.8 613.41 369.29 612.3 368.11 612.37 367.86 610.49 370.18 607.58 370.64 605.71 367.46 601.06 348.01 589.74 340.91 582.95 340.91 582.91 340.92 582 341.06 581.23 341.42 580.54 342.17 579.88 343.4 579.38 344.32 578.86 344.99 578.17 345.33 576.91 345.87 575.77 346.76 574.48 351.27 570.23 351.92 569.13 352.42 567.26 352.51 566.11 352.45 565.17 351.15 559.18 350.5 557.7 349.16 555.58 348.84 554.85 348.62 554.11 348.53 553.25 348.53 552.49 348.67 551.71 348.95 550.93 350.18 548.55 350.34 548.06 350.4 547.53 350.39 546.29 350.3 545.64 349.88 544.28 348.17 540.61 347.84 539.21 347.82 538.51 347.88 537.76 348.51 535.33 349.11 533.9 355.45 523.82 355.69 523.16 355.78 522.48 355.67 521.76 353.93 518.28 353.55 516.89 353.57 516.24 353.84 515.5 354.86 513.71 355.1 512.91 355.09 512.16 354.48 510.15 354.47 509.47 354.54 508.72 356.92 501.28 356.92 501.25 357.02 500.6 357.05 499.31 356.94 498.64 356.75 497.96 356.52 496.56 356.57 495.77 356.75 494.98 357.47 494.11 358.61 493.3 363.56 491.38 364.24 490.7 364.73 489.43 364.82 488.45 364.69 486.75 364.78 485.98 365.02 485.16 365.43 484.36 365.94 483.55 366.86 482.82 368.02 482.26 370.12 481.86 372.37 481.74 375.16 481.97 376.52 482.28 377.23 482.59 377.84 483.09 378.79 484.38 379.32 484.98 379.94 485.48 380.7 485.59 381.51 485.27 382.62 483.89 386.86 477.12 388.02 475.74 394.03 470.26 394.87 468.99 395.26 468.05 393.32 457.91 393.25 454.97 393.38 453.56 394.75 448.59 394.97 447.26 394.96 445.93 394.83 445.27 394.63 444.59 394.12 443.24 393.94 442.56 393.88 441.89 394.01 441.23 394.39 440.53 394.89 439.82 395.8 439 396.56 438.49 397.38 438.13 405.19 436.49 406.1 436.17 407.57 435.48 410.5 434.61 411.91 434.04 414.66 432.24 455.79 432.04 459.54 440.5 461.48 443.01 462.1 443.24 466.75 444.42 470.41 446.14 471.59 446.99 471.92 447.65 470.91 448.49 470.66 449.32 470.7 450.49 471.34 454.4 471.42 455.33 471.4 455.77 471.46 456.37 471.66 457.31 471.92 459.49 471.93 460.1 471.85 460.49 471.72 460.64 471.27 460.94 468.68 461.85 468.3 462.21 468.01 462.82 467.76 465.05 467.55 465.68 467.14 466.16 466.34 467.45 466.05 467.76 465.78 467.87 465.56 467.76 465.33 467.46 465.07 466.77 464.66 466.3 464.37 466.07 463.97 466.1 463.77 466.51 463.68 467.36 463.68 468.94 463.56 469.74 463.26 470.2 462.94 470.36 462.69 470.55 462.51 471.52 462.4 471.76 462.19 471.94 461.22 472.41 460.53 472.88 460.38 473.26 460.59 473.71 460.94 474.06 464.97 476.75 465.94 477.69 466.32 478.31 466.49 478.92 466.62 481.58 466.56 482.03 465.81 484.38 465.72 484.92 465.72 485.28 465.84 485.45 466.44 485.95 467.53 486.46 468.01 487.05 469.65 489.79 470 490.64 470.13 491.18 469.88 491.65 469.68 491.96 466.47 495.85 466.06 496.54 465.96 496.87 465.96 497.13 466.34 497.64 467.23 498.6 470.41 501.1 470.59 501.4 470.59 501.75 470.34 502.11 469.63 502.8 469.11 503.18 468.47 503.53 467.95 503.68 467.41 503.73 465.9 503.53 465.47 503.53 465.22 503.61 465.06 503.79 464.84 504.31 464.14 506.75 464.06 507.46 464.17 507.96 464.44 508.13 464.78 508.28 465.18 508.39 465.56 508.57 465.9 508.83 466.4 509.45 466.9 510.25 467.58 511.13 467.95 511.52 468.39 511.87 468.98 512.49 469.04 512.81 468.77 513.09 468.36 513.26 466.96 514.44 466.25 516.02 466.1 516.92 466.21 517.83 466.8 519.16 468.83 521.89 469.74 523.43 469.93 524.27 469.89 524.91 468.27 527.5 468.11 527.92 467.9 529.51 467.04 534.06 Z" id="LBR-792" data-name="River Cess"/>
<path d="M 558.24 405.17 561.53 405.38 563.43 405.79 568.11 405.65 570.37 406.31 572.55 408.22 578.34 415.95 581.93 417.16 584.36 415.17 585.89 411.55 586.78 407.94 587.73 406.3 588.95 407.11 591.21 410.03 597.33 413.29 599.9 416.19 599.63 417.32 598.19 418.56 597.18 421.79 597.53 423.63 599.28 427.19 599.73 428.69 598.75 430.46 596.96 431.45 596.27 432.64 598.59 434.97 600.68 432.94 603.07 432.03 605.46 432.11 607.53 433.01 610.07 430.87 612.08 431.67 613.97 433.81 616.03 435.67 616.98 435.57 617.63 434.68 618.44 434.08 619.86 434.85 620.84 436.42 621.06 438.02 621.06 439.37 621.35 440.17 623.13 440.82 638.24 444.23 640.56 445.09 642.68 446.32 643.98 447.29 645.63 447.85 648.79 447.81 651.48 447.15 655.83 444.75 658.11 443.82 667.18 442.56 672.46 442.43 675.83 443.21 679.02 445.37 691.59 448.35 692.64 448.48 693.48 448.14 694.39 447.89 695.59 448.29 695.93 448.93 696.44 451.21 697.12 452.14 705.78 459.08 708.81 462.77 709.29 465.41 706.71 472.93 705.8 477.03 705.32 481.45 705.84 485.39 707.97 488.11 708.05 487.19 709.93 486.2 712.36 485.54 714.12 485.66 716.01 487.4 716.79 489.18 717.42 493.63 718.05 494.32 719.1 494.64 720.09 495.14 720.54 496.38 720.12 497.42 718.34 498.41 717.91 499.3 717.77 504.84 717.97 506.26 720.51 509.44 728.21 513.45 730.58 515.78 734.05 520.64 736.77 519.25 739.05 515.38 741.21 512.8 742.47 513.81 744.59 516.28 747.47 518.58 750.93 519.1 751.22 519.82 755.24 522.01 755.78 522.12 759.99 523.96 760.98 525.23 759.4 527.26 760.9 528.52 763.48 531.76 764.87 532.51 767.12 531.42 769.54 529.39 770.98 528.81 770.34 532.09 773.36 532.63 774.68 535.18 775.64 537.92 777.49 539.08 779.01 537.59 779.97 534.39 780.58 528.61 786.83 531.32 787.7 538.09 786.43 546.32 786.25 553.47 789.85 568.76 792.4 573.87 796.55 582.19 799 585.34 794.91 584.67 793.58 587.02 794.52 590.71 797.15 594.11 793.28 594.34 792.01 594.28 793.98 596.17 793.95 596.17 661.36 601.65 648.76 604.16 623.19 606.94 601.71 607.23 594.89 604.63 594.9 604.62 595.25 602.57 595.27 601.82 595.15 601.06 594.85 600.36 594.19 599.65 593.2 598.99 590.46 598.05 587.42 597.39 586.61 596.9 585.83 596.13 585.02 594.54 584.8 593.48 584.79 592.56 585.02 591.76 585.35 591 586.19 589.53 590.28 583.78 590.57 583.12 590.77 582.45 591.07 580.35 591.27 579.62 591.61 578.94 592.07 578.27 592.67 577.75 593.38 577.35 594.12 577.1 595.58 576.76 596.44 576.66 602.78 576.49 604.42 576.26 607.67 575.43 608.4 575.08 609.06 574.63 609.58 574.05 609.94 573.42 610.16 572.75 610.3 572.04 610.37 569.96 610.24 568.61 609.49 565.75 608.39 562.73 605.41 557.29 601.67 551.87 598.94 549.14 596.69 547.41 590.7 543.79 589.19 543.2 587.41 542.86 581.21 542.48 579.31 542.71 577.97 543.11 577.33 543.67 564.82 558.8 553.67 553.96 502.83 525.62 503.26 522.02 501.71 518.99 498.77 516.31 495.91 518.98 494.86 516.91 495.96 512.43 499.54 507.84 499.59 506.07 497.19 504.19 495.61 501.79 498.09 498.48 501.47 497.33 509.36 496.45 512.43 494.39 514.17 490.62 515.04 485.6 514.59 480.77 512.39 477.62 515.31 475.21 517.73 468.85 520.55 467.34 525.96 465.35 531.12 461.11 535.53 455.98 538.62 451.29 550.32 427.9 554.91 412.37 558.14 405.17 558.24 405.17 Z" id="LBR-793" data-name="Grand Gedeh"/>
</g>
</svg>