<?xml version="1.0"?>
<svg xmlns="http://www.w3.org/2000/svg" version="1.2" baseProfile="tiny" width="800" height="935" viewBox="0 0 800 935" stroke-linecap="round" stroke-linejoin="round">
<g id="ne_10m_admin_1_states_provinces">
<path d="M 792.46 298 791.16 300.3 777.79 315.71 774.93 322.58 777.08 328.93 787.7 338.93 791.97 344.91 792.03 347.19 789.98 352.95 789.62 355.45 791.16 358.71 796.77 362.82 798.55 365.9 799 371.34 798.24 376.75 794.49 387.06 788.37 395.77 788.6 398.94 790.52 406.62 790.74 409.12 784.22 420.73 773.82 427.83 761.83 429.17 750.4 423.5 749.08 428.63 746.31 432.52 742.09 434.88 736.78 435.55 724.97 440.02 715.43 445.91 707.28 453.5 699.34 463.06 702.35 464.7 702.26 464.73 694.63 467.61 694.09 457.9 691.41 446.74 688.11 441.87 683.51 438.3 679 436.45 674.93 433.9 671.72 430.71 667.34 428.9 661.94 431.16 657.43 434.24 645.46 431.47 635.86 423.65 635.02 417.87 635.42 411.89 632.78 406.55 628.81 401.98 622.51 399.12 615.41 398.58 608.45 395.95 602.6 391.46 597.33 388.92 587.42 390.88 583.84 388.98 579.96 387.46 563.53 382.11 581.39 366.7 584.78 364.78 590.59 362.97 593.44 360.78 598.4 349.15 599.07 348.73 601.35 332.03 604.65 326.98 615.95 323.92 617.2 320.78 616.8 311.71 618.18 306.82 621.22 305.08 624.25 303.74 626.4 297.04 628.54 294.65 631.76 293.03 635.82 292.42 638.19 290.3 644.93 280.54 649.48 277.66 649.67 277.54 649.73 277.71 651.8 276.73 660.36 264.94 665.49 260.7 671.52 258.46 675.02 259.04 703.09 275.83 708.8 278.24 710.68 279.5 711.79 282.13 713 289.18 714.16 291.06 719.92 292.31 724.43 291.19 728.74 289.5 734.08 289.14 739.39 291.1 749.28 297.58 754.97 299.28 765.06 298.38 785.25 292.76 795.34 292.85 792.46 298 Z" id="BDI-2632" data-name="Cankuzo"/>
<path d="M 584.78 364.78 581.39 366.7 563.53 382.11 557.86 390.46 514.77 433.32 506.28 439.24 497.4 441.58 477.62 443.66 473.37 445.29 471.45 447.23 469.31 448.84 459.35 450.09 455.16 451.83 452.17 455.05 451.05 459.87 447.57 464.24 439.98 461.97 432.7 455.31 430.15 446.61 431.54 445.15 440.47 430.37 444.4 426.09 446.63 422.4 447.61 418.25 447.83 412.54 445.29 402.27 439.31 395.52 432.43 390.26 427.2 384.38 421.71 371.41 417.87 369.85 408 369.65 405.06 371.95 403.18 376.28 400.41 378.76 394.74 375.54 391.75 371.01 391.66 366.63 394.74 357.57 398.76 339.66 416 335.47 419.57 327.7 428.41 323.01 435.82 315.82 445.15 301.06 462.17 293.69 478.69 293.07 506.82 273.58 519.41 258.02 538.12 261.61 555.94 269.65 563.17 285.01 563.3 302.25 556.79 320.04 547.77 336.83 545.53 343.06 544.01 349.35 547.45 353.57 556.47 360.25 560.89 362.46 566.25 361.25 571.74 359.49 577.64 361.19 581.83 362.99 584.78 364.78 Z" id="BDI-2633" data-name="Karuzi"/>
<path d="M 599.88 606.4 599.41 614.43 601.24 621.71 603.69 628.36 605.03 635.1 603.56 642.7 584.29 636.4 573.37 643.37 556.76 672.03 534.08 695.25 528.9 704.09 521.4 735.21 514.67 751.42 514.45 751.36 510.79 750.37 505.08 754.84 492.93 761.27 456.23 762.72 436.67 774 425.46 787.97 418.45 792.68 407.69 778.33 399.92 772.83 391.88 768.41 387.55 759.84 391.26 747.07 392.29 726.8 395.23 716.91 393.14 706.26 407.47 688.35 404.39 678.84 399.65 672.19 398.76 663.91 407.74 656.56 412.34 661.23 417.78 661.54 419.26 655.44 419.39 648.92 438.77 629.3 439.89 619.54 445.24 611.57 459.62 606.01 473.82 598.67 481.64 588.71 483.42 576.81 493.78 576.88 503.52 579.8 508.47 586.72 513.65 591.59 537.27 578.02 563.08 587.48 573.35 593.33 584.83 596.73 595.01 606.24 599.65 606.39 599.88 606.4 Z" id="BDI-2634" data-name="Rutana"/>
<path d="M 702.35 464.7 715.39 471.81 714.83 483.33 703.49 494.32 683.22 503.74 677.59 510.44 674.15 513.43 671.18 514.5 659.69 517.13 659.02 518.21 658.28 521.96 657.81 522.89 649.55 523.56 649.33 522.76 648.48 522.67 641.29 523.74 640.17 525.08 638.57 530.17 637.49 531.91 625.46 540.53 623.12 545.71 624.14 554.37 623.99 562.28 620.75 570.31 602.93 598.31 599.9 606.08 599.88 606.4 599.65 606.39 595.01 606.24 584.83 596.73 573.35 593.33 563.08 587.48 537.27 578.02 513.65 591.59 508.47 586.72 503.52 579.8 493.78 576.88 483.42 576.81 484.4 564.58 483.6 552.43 479.09 542.61 474 526.94 470.79 521.38 470.56 509.88 474.27 485.61 470.87 480.41 466.95 475.54 465.87 469.11 455.16 451.83 459.35 450.09 469.31 448.84 471.45 447.23 473.37 445.29 477.62 443.66 497.4 441.58 506.28 439.24 514.77 433.32 557.86 390.46 563.53 382.11 579.96 387.46 583.84 388.98 587.42 390.88 597.33 388.92 602.6 391.46 608.45 395.95 615.41 398.58 622.51 399.12 628.81 401.98 632.78 406.55 635.42 411.89 635.02 417.87 635.86 423.65 645.46 431.47 657.43 434.24 661.94 431.16 667.34 428.9 671.72 430.71 674.93 433.9 679 436.45 683.51 438.3 688.11 441.87 691.41 446.74 694.09 457.9 694.63 467.61 702.26 464.73 702.35 464.7 Z" id="BDI-2635" data-name="Ruyigi"/>
<path d="M 248.06 341.32 243.6 350.49 242.39 360.41 248.02 371.34 246.68 383.33 240.69 393.36 237.43 405.19 239.98 408.29 241.27 411.98 237.88 418.23 232.66 423.07 220.06 414.5 202.47 415.42 194.08 417.36 186.35 414.81 178.54 413.21 170.32 413.9 158.85 416.44 148.13 421.2 133.62 436.49 118.61 431.49 108.67 419.06 110.73 417.16 103.36 411.26 100.37 402.82 99.17 374.02 100.64 365.27 103.88 357.99 109.39 354.91 111.36 349.96 111.02 347.11 130.63 346.52 143.49 333.39 139.91 324.64 134.29 317.63 131.61 311.33 133.8 307.56 160.85 296.44 167.28 280.9 181.53 280.84 185.55 284.52 195.68 276.95 210.02 273.65 220.47 263.67 231.41 278.54 237.43 304.75 241.76 312.65 247.03 326.63 248.06 341.32 Z" id="BDI-2636" data-name="Bubanza"/>
<path d="M 320.35 578.75 332.81 579.94 344.46 583.06 345.13 592.64 342.63 602.44 337.68 634.64 338.12 639.68 335.89 643.99 333.12 648.37 340.49 656.14 352.1 648.86 360.85 638.28 366.43 622.49 370.23 616.4 381.7 632.05 375.45 642.81 389.47 648.59 401.04 648.92 407.74 656.56 398.76 663.91 399.65 672.19 404.39 678.84 407.47 688.35 393.14 706.26 395.23 716.91 392.29 726.8 391.26 747.07 387.55 759.84 381.48 764.35 374.43 767.79 368.04 764.46 365.05 754.1 365.32 737.29 359.91 723.43 360.45 715.55 359.78 709.38 353.8 712.6 352.01 722.44 344.15 742.6 327.9 757.18 312 761.69 298.43 770.82 283.2 787.77 262.53 797.39 251.23 798.46 236.45 810.92 170.81 815.28 165.32 815.81 153.33 774.42 126.65 729.37 110.26 711.68 103.68 702.4 99.57 690.87 95.91 639.93 100.47 608.53 111.16 610.48 140.63 617.27 191.84 616.06 201.09 612.96 210.78 611.66 217.61 611.86 222.07 607.29 222.65 601.93 222.43 596.5 223.68 591.41 226.31 586.84 236.58 558.24 242.57 546.89 250.52 542.12 258.96 538.14 265.97 551.05 284.27 574.15 295.61 581.28 298.65 593.15 298.29 611.39 310.04 596.64 311.82 590.5 316.38 584.83 320.35 578.75 Z" id="BDI-2637" data-name="Bururi"/>
<path d="M 140.37 168.23 140.47 168.62 149.85 177.42 152.48 182.78 151.54 187.69 145.56 195.01 144.09 199.52 145.07 204.52 149.09 213.5 149.6 218.9 153.42 227.12 164.05 226.14 182.69 218.05 190.44 217.16 198.78 218.71 206.49 225.65 207.61 237.84 213.01 251.01 220.47 263.67 210.02 273.65 195.68 276.95 185.55 284.52 181.53 280.84 167.28 280.9 160.85 296.44 133.8 307.56 131.61 311.33 134.29 317.63 139.91 324.64 143.49 333.39 130.63 346.52 111.02 347.11 108.03 322.23 104.03 315.84 98.05 311.24 90.68 308.43 82.69 307.49 74.39 304.19 70.68 296.46 68.98 287.53 66.46 280.66 59.96 276.28 52.06 273.65 45.45 270.16 42.64 263.24 41.97 256.28 40.18 251.99 33.75 242.57 29.78 231 27.86 227.56 21.38 224.71 12.34 223.86 4.46 221.58 1 214.3 1.83 205.1 4.73 197.74 10.22 193 19.02 191.89 13.3 181.44 20.74 138.22 30.54 128.62 55.68 126.96 62.71 127.99 88.94 139.42 98.59 142.37 116.83 144.65 125.96 146.83 133.86 151.34 139.13 155.27 139.44 157.28 138.89 162.37 140.37 168.23 Z" id="BDI-2638" data-name="Cibitoke"/>
<path d="M 398.76 339.66 394.74 357.57 391.66 366.63 391.75 371.01 394.74 375.54 400.41 378.76 403.18 376.28 405.06 371.95 408 369.65 417.87 369.85 421.71 371.41 427.2 384.38 432.43 390.26 439.31 395.52 445.29 402.27 447.83 412.54 447.61 418.25 446.63 422.4 444.4 426.09 440.47 430.37 431.54 445.15 430.15 446.61 432.7 455.31 439.98 461.97 447.57 464.24 451.05 459.87 452.17 455.05 455.16 451.83 465.87 469.11 466.95 475.54 470.87 480.41 474.27 485.61 470.56 509.88 470.79 521.38 474 526.94 479.09 542.61 483.6 552.43 484.4 564.58 483.42 576.81 481.64 588.71 473.82 598.67 459.62 606.01 445.24 611.57 439.89 619.54 438.77 629.3 419.39 648.92 419.26 655.44 417.78 661.54 412.34 661.23 407.74 656.56 401.04 648.92 389.47 648.59 375.45 642.81 381.7 632.05 370.23 616.4 366.43 622.49 360.85 638.28 352.1 648.86 340.49 656.14 333.12 648.37 335.89 643.99 338.12 639.68 337.68 634.64 342.63 602.44 345.13 592.64 344.46 583.06 332.81 579.94 320.35 578.75 335.98 567.52 356.16 569.96 354.96 561.14 351.43 552.68 345.98 544.08 339.28 537.32 362.99 522.72 382.15 507.91 384.16 499.34 384.47 490.72 386.3 483.44 389.96 476.41 383.89 464.11 371.03 455.96 368.98 438.06 351.03 427.29 362.15 412.11 380.72 402.82 373.62 399.48 367.24 394.63 363.44 386.41 358.66 379.58 365.32 377.46 369.87 372.1 366.66 348.71 385.99 327.36 390.19 328.08 397.38 331.49 398.76 339.66 Z" id="BDI-2639" data-name="Gitega"/>
<path d="M 281.91 212.08 281.91 212.12 281.86 214.73 283.96 233.97 268.06 245.6 273.29 248.28 278.11 246.9 287.31 255.5 292.49 254.69 297.49 254.56 302.18 257.84 317.99 261.79 326.78 257.55 335.36 257.17 344.38 261.14 349.11 275.81 353.17 295.53 368.76 297.38 374.83 301.4 381.48 303.3 385.95 306.42 384.38 312.16 383.98 319.93 385.99 327.36 366.66 348.71 369.87 372.1 365.32 377.46 358.66 379.58 348.35 382.33 337.86 384.07 332.77 387.26 326.34 388.65 318.52 384.43 314.15 376.64 314.82 370.09 312.27 365.56 301.38 370.03 291.64 371.17 290.61 353.48 285.17 349.6 278.56 351.68 274.09 349.18 270.03 344.42 259.49 344.17 248.06 341.32 247.03 326.63 241.76 312.65 237.43 304.75 231.41 278.54 220.47 263.67 213.01 251.01 207.61 237.84 206.49 225.65 198.78 218.71 214.41 221.63 224.46 227.3 232.68 224.53 240.76 219.39 250.23 218.14 254.69 218.32 258.13 216.98 261.34 215.02 274.2 210.37 277.28 210.55 281.91 212.08 Z" id="BDI-2640" data-name="Kayanza"/>
<path d="M 387.55 759.84 391.88 768.41 399.92 772.83 407.69 778.33 418.45 792.68 425.46 787.97 436.67 774 456.23 762.72 492.93 761.27 505.08 754.84 510.79 750.37 514.45 751.36 514.67 751.42 513.54 754.15 503.4 771.65 490.36 787.5 460.94 811.97 456.47 818.4 445.44 844.75 440 851.62 430.4 857.03 426.02 860.55 411.2 868.95 395.7 883.46 372.75 894.22 368.96 895.52 361.72 894.31 357.03 891.94 352.43 891.36 345.42 895.65 344.64 897.17 343.73 904.22 341.49 907.93 334.13 911.37 331.4 913.91 329.8 920.03 329.57 925.61 328.26 930.48 323.28 934.32 321.31 933.56 303.67 932.17 282.42 927.17 181.28 928.47 167.71 824.07 165.32 815.81 170.81 815.28 236.45 810.92 251.23 798.46 262.53 797.39 283.2 787.77 298.43 770.82 312 761.69 327.9 757.18 344.15 742.6 352.01 722.44 353.8 712.6 359.78 709.38 360.45 715.55 359.91 723.43 365.32 737.29 365.05 754.1 368.04 764.46 374.43 767.79 381.48 764.35 387.55 759.84 Z" id="BDI-2641" data-name="Makamba"/>
<path d="M 472.44 207.47 483.2 213.03 490.16 224.48 483.87 237.97 474.31 251.59 484.31 256.77 494.23 248.08 500.39 241.63 507.71 242.55 513.25 245.67 519.5 245.76 518.96 251.86 519.41 258.02 506.82 273.58 478.69 293.07 462.17 293.69 445.15 301.06 435.82 315.82 428.41 323.01 419.57 327.7 416 335.47 398.76 339.66 397.38 331.49 390.19 328.08 385.99 327.36 383.98 319.93 384.38 312.16 385.95 306.42 381.48 303.3 374.83 301.4 368.76 297.38 353.17 295.53 349.11 275.81 344.38 261.14 335.36 257.17 326.78 257.55 317.99 261.79 302.18 257.84 297.49 254.56 292.49 254.69 287.31 255.5 278.11 246.9 273.29 248.28 268.06 245.6 283.96 233.97 281.86 214.73 281.91 212.12 281.91 212.08 299.88 218.01 308.03 219.26 317.7 218.05 321.89 215.51 323.77 211.49 325.2 202.43 328.41 198.41 333.37 198.36 343.01 201.26 353.75 201.58 362.48 199.93 370.61 195.15 379.45 186.17 385.21 178.36 390.48 169.43 394.59 160.01 396.91 150.5 397.1 145.68 408.41 147.28 429.39 152.88 442.34 168.8 448.24 179.7 457.12 187.24 472.44 207.47 Z" id="BDI-2642" data-name="Ngozi"/>
<path d="M 420.03 11.36 420.78 12 428.39 18.55 431.74 19.04 435.38 18.68 439.53 18.82 444.46 20.56 449.73 24.62 463.13 40.47 470.23 46.68 479.25 52.66 489.16 56.5 498.8 56.19 506.17 51.1 525.68 26.63 526.58 23.59 526.8 19.53 528.34 16.63 533.36 17.12 546.85 23.68 552.21 24.89 559.17 24.58 567.43 22.88 575.56 20.25 581.77 17.07 587.33 11.94 589.31 9.33 598.8 16.63 603.18 33.06 606.44 36.68 608.94 41.83 609.3 48.18 611.84 53.49 618.27 59.49 622.56 67.42 616.35 85.64 619.7 92.92 622.83 101.74 621.58 110.78 618.27 119.15 609.61 123.97 600.32 125.04 595.63 131.43 590.68 136.9 559.69 164.25 557.01 162.64 553.57 161.55 549.24 163.2 539.73 168.65 530.8 175.23 519.41 177.42 509.72 181.44 503.25 189.21 500.57 198.52 489.72 204.3 472.44 207.47 457.12 187.24 448.24 179.7 442.34 168.8 429.39 152.88 408.41 147.28 397.1 145.68 398.92 101.38 408.27 68.74 405.17 35.52 407.98 13.41 407.94 9.39 409.19 6.98 413.61 6.85 417.07 8.81 420.03 11.36 Z" id="BDI-2643" data-name="Kirundo"/>
<path d="M 678.31 43.15 663.99 61.15 658.21 70.3 641.82 110.17 638.3 123.88 636.42 128.44 632.27 133.84 621.95 143.62 618.43 148.98 616.75 159.6 621.55 164.25 629.95 164.34 639.06 161.35 654.55 154.29 664.46 150.63 661.67 158.8 636.82 184.88 633.34 190.55 631.93 197.25 631.78 208.23 622.36 220.96 617.4 230.56 618.34 238.01 629.14 251.99 635.71 258.15 643.57 260.29 641.6 265.03 644.1 268.47 647.85 272.17 649.67 277.54 649.48 277.66 644.93 280.54 638.19 290.3 635.82 292.42 631.76 293.03 628.54 294.65 626.4 297.04 624.25 303.74 621.22 305.08 618.18 306.82 616.8 311.71 617.2 320.78 615.95 323.92 604.65 326.98 601.35 332.03 599.07 348.73 598.4 349.15 593.44 360.78 590.59 362.97 584.78 364.78 581.83 362.99 577.64 361.19 571.74 359.49 566.25 361.25 560.89 362.46 556.47 360.25 547.45 353.57 544.01 349.35 545.53 343.06 547.77 336.83 556.79 320.04 563.3 302.25 563.17 285.01 555.94 269.65 538.12 261.61 519.41 258.02 518.96 251.86 519.5 245.76 513.25 245.67 507.71 242.55 500.39 241.63 494.23 248.08 484.31 256.77 474.31 251.59 483.87 237.97 490.16 224.48 483.2 213.03 472.44 207.47 489.72 204.3 500.57 198.52 503.25 189.21 509.72 181.44 519.41 177.42 530.8 175.23 539.73 168.65 549.24 163.2 553.57 161.55 557.01 162.64 559.69 164.25 590.68 136.9 595.63 131.43 600.32 125.04 609.61 123.97 618.27 119.15 621.58 110.78 622.83 101.74 619.7 92.92 616.35 85.64 622.56 67.42 618.27 59.49 611.84 53.49 609.3 48.18 608.94 41.83 606.44 36.68 603.18 33.06 598.8 16.63 589.31 9.33 591.1 6.98 595.32 3.05 602.26 1 604.36 2.07 618.03 5.33 619.5 4.8 621.55 7.16 623.79 13.23 626.26 16.63 649.73 35.87 664.11 42.62 678.31 43.15 Z" id="BDI-2644" data-name="Muyinga"/>
<path d="M 103.4 548.83 98.23 477.86 121.98 463.22 143.28 450.08 150.82 443.18 158.66 437.43 168.59 435.86 175.45 436.2 182.76 442.47 184.85 450.31 184.33 461.81 181.86 472.08 178.21 484.1 174.55 497.69 171.93 514.93 169.84 529.04 162 537.93 155.21 544.2 139.53 549.42 103.4 548.83 Z" id="BDI-3364" data-name="Bujumbura Mairie"/>
<path d="M 358.66 379.58 363.44 386.41 367.24 394.63 373.62 399.48 380.72 402.82 362.15 412.11 351.03 427.29 368.98 438.06 371.03 455.96 360.59 460.21 328.99 466.04 311.98 465.71 299.22 468.27 293.5 471.39 290.81 473.92 287.18 474.31 284.75 470.42 278.43 467.01 269.68 469.45 262.66 474.54 258.38 469.47 253.64 472.66 250.92 475.81 246.59 468.04 243.1 458.71 238.77 450.62 239.13 441.96 232.66 423.07 237.88 418.23 241.27 411.98 239.98 408.29 237.43 405.19 240.69 393.36 246.68 383.33 248.02 371.34 242.39 360.41 243.6 350.49 248.06 341.32 259.49 344.17 270.03 344.42 274.09 349.18 278.56 351.68 285.17 349.6 290.61 353.48 291.64 371.17 301.38 370.03 312.27 365.56 314.82 370.09 314.15 376.64 318.52 384.43 326.34 388.65 332.77 387.26 337.86 384.07 348.35 382.33 358.66 379.58 Z" id="BDI-3365" data-name="Muramvya"/>
<path d="M 232.66 423.07 239.13 441.96 238.77 450.62 243.1 458.71 246.59 468.04 250.92 475.81 253.64 472.66 258.38 469.47 262.66 474.54 261.86 482.42 267.71 502.44 262.39 518.09 262.8 528.54 258.96 538.14 250.52 542.12 242.57 546.89 236.58 558.24 226.31 586.84 223.68 591.41 222.43 596.5 222.65 601.93 222.07 607.29 217.61 611.86 210.78 611.66 201.09 612.96 191.84 616.06 140.63 617.27 111.16 610.48 100.47 608.53 103.12 590.27 103.95 556.38 103.4 548.83 139.53 549.42 155.21 544.2 162 537.93 169.84 529.04 171.93 514.93 174.55 497.69 178.21 484.1 181.86 472.08 184.33 461.81 184.85 450.31 182.76 442.47 175.45 436.2 168.59 435.86 158.66 437.43 150.82 443.18 143.28 450.08 121.98 463.22 98.23 477.86 95.95 446.63 96.85 433.99 98.72 428.23 108.67 419.06 118.61 431.49 133.62 436.49 148.13 421.2 158.85 416.44 170.32 413.9 178.54 413.21 186.35 414.81 194.08 417.36 202.47 415.42 220.06 414.5 232.66 423.07 Z" id="BDI-4854" data-name="Bujumbura Rural"/>
<path d="M 320.35 578.75 316.38 584.83 311.82 590.5 310.04 596.64 298.29 611.39 298.65 593.15 295.61 581.28 284.27 574.15 265.97 551.05 258.96 538.14 262.8 528.54 262.39 518.09 267.71 502.44 261.86 482.42 262.66 474.54 269.68 469.45 278.43 467.01 284.75 470.42 287.18 474.31 290.81 473.92 293.5 471.39 299.22 468.27 311.98 465.71 328.99 466.04 360.59 460.21 371.03 455.96 383.89 464.11 389.96 476.41 386.3 483.44 384.47 490.72 384.16 499.34 382.15 507.91 362.99 522.72 339.28 537.32 345.98 544.08 351.43 552.68 354.96 561.14 356.16 569.96 335.98 567.52 320.35 578.75 Z" id="BDI-5588" data-name="Mwaro"/>
</g>
</svg>