<?xml version="1.0"?>
<svg xmlns="http://www.w3.org/2000/svg" version="1.2" baseProfile="tiny" width="800" height="947" viewBox="0 0 800 947" stroke-linecap="round" stroke-linejoin="round">
<g id="ne_10m_admin_1_states_provinces">
<path d="M 577.49 117.48 573.36 122.91 570.21 124.11 566.22 125.13 562.7 125.19 559.45 125.97 552.87 128.38 549.22 129.09 545.52 129.09 541.9 128.47 532.63 125.13 530.78 130.29 537.26 229.15 535.6 243.82 531.33 249.7 511.65 257.27 499.32 259.31 475.46 259.58 471.48 260.02 466.93 261.25 461.93 264.74 459.15 267.65 455.99 274.63 454.51 276.7 452.63 278.84 447.16 282.33 437.7 286.5 435.01 288.26 433.53 291.01 431.67 301.02 430.75 303.56 429.64 305.23 428.15 306.77 423.89 309.06 389.09 320.31 382.66 323.36 379.23 325.65 375.25 327.04 369.78 327.57 348.89 325 346.29 325.62 344.35 327.69 343.05 329.45 341.94 332.02 340.92 333.04 338.51 334.33 332.48 336.68 314.65 341.66 308.81 344.16 304.92 346.63 302.51 349.32 301.02 351.83 300.84 354.92 302.32 362.76 302.69 367.4 301.95 370.83 299.91 374.01 293.05 380.07 291.1 383.13 291.01 386.25 292.03 390.17 292.77 394.96 292.03 400.31 290.55 405.78 289.9 411.4 291.29 421.32 291.47 425.68 289.99 428.46 286.93 430.5 282.08 431.86 275.5 431.58 268.27 429.67 255.75 421.45 250.9 417.52 247.75 414.22 245.71 413.29 242.28 412.73 234.58 412.42 229.3 412.79 225.59 413.75 220.59 415.88 214.44 415.57 187.37 410.01 184.09 409.67 180.48 408.16 177.7 405.62 173.25 399.38 168.24 390.51 166.57 388.29 164.81 386.53 76.74 336.1 69.43 333.3 112.8 283.93 153.41 218.73 185.61 149.08 194.72 117.56 202.48 105.08 255.44 62.37 315.76 13.79 332.57 6.19 353.28 1.25 370.89 1 386.09 5.57 449.44 42.59 512.79 79.61 567.7 111.75 577.49 117.48 Z" id="SWZ-534" data-name="Hhohho"/>
<path d="M 698.45 133.81 714.02 147.16 731.2 155.51 771 164.72 763.15 183.5 766.31 205.01 773.38 227.14 777.49 247.84 775.33 263.79 755.55 311.07 752.65 328.49 760.1 390.17 764.58 406.92 792.82 458.03 799 507.04 796.9 661.18 787.26 657.29 772.55 644.06 762.97 642.39 722.86 642.21 724.16 660.13 714.02 712.97 704.69 762.1 694.18 817.05 695.43 853.92 695.23 853.91 677.93 853.02 675.33 852.52 673.48 851.32 673.76 847.89 674.41 844.73 674.22 842.17 672.64 840.78 667.82 839.98 657.35 839.48 652.5 838.68 648.51 837.35 647.12 834.14 646.75 831.45 647.4 821.1 646.56 819.24 644.52 817.82 625.61 811.05 619.74 809.6 614.27 809.04 609.54 808.02 606.3 805.55 595.36 781.94 591.74 778.2 586.06 776.35 581.05 776.47 563.62 780.61 557.88 781.11 552 780.52 546.54 778.95 541.07 776.66 514.15 761.92 499.5 751.84 489.03 741.4 483.25 737.07 478.43 734.35 474.72 733.55 470.46 732.25 467.4 733.06 464.06 735.03 460.54 735.78 457.11 734.57 452.93 731.33 445.12 723.66 441.87 719.49 429.45 699.31 427.78 695.11 429.64 689.89 431.77 685.99 439.37 675.09 443.26 667.21 454.05 655.37 456.92 650.74 458.31 646.01 456.92 638.96 457.01 634.45 458.03 630.19 462.85 622.03 464.71 618.07 461.56 615.45 457.38 613.44 422.77 614.61 423.33 602.62 427.22 588.65 441.13 557.66 443.26 554.69 445.67 552.25 448.08 550.61 482.97 535.91 487.24 532.48 489.68 527.35 488.29 505.75 484.95 487.51 482.51 481.4 477.41 473.42 476.85 470.09 479.82 467.77 485.32 465.94 490.42 463.5 494.22 460.66 494.59 455.78 494.22 452.59 492.37 446.14 492.18 442.68 492.83 438.07 495.89 432.23 496.63 418.2 495.8 413.29 493.29 405.69 493.2 403.12 494.4 401.42 502.28 397.34 505.81 394.96 507.75 392.28 507.85 387.21 508.77 383.04 512.85 378.49 524.29 369.44 530.13 363.6 535.69 356.74 539.49 347.75 541.71 338.35 543.11 323.36 548.02 307.85 545.33 302.82 544.4 299.73 545.14 296.02 543.57 284.58 531.33 249.7 535.6 243.82 537.26 229.15 530.78 130.29 532.63 125.13 541.9 128.47 545.52 129.09 549.22 129.09 552.87 128.38 559.45 125.97 562.7 125.19 566.22 125.13 570.21 124.11 573.36 122.91 577.49 117.48 629.88 148.15 647.09 152.85 664.15 149.2 698.45 133.81 Z" id="SWZ-535" data-name="Lubombo"/>
<path d="M 422.77 614.61 398.73 610.81 386.37 613.04 376.82 618.6 372.75 621.66 369.22 625.37 364.22 629.63 358.65 631.55 330.63 634.05 326.55 635.62 324.42 637.29 323.95 639.73 322.65 642.27 320.52 644.99 314.84 648.88 312.61 651.54 311.13 654.13 310.66 656.76 310.11 664.95 308.16 665.44 304.27 664.58 277.07 646.29 270.77 643.01 263.91 641.9 258.16 643.57 252.75 645.98 247.75 647 240.98 647 233.1 649.13 201.09 664.42 174.36 683.27 171.85 683.74 170.84 682.19 171.11 679.32 171.76 676.04 173.99 670.42 174.64 668.19 174.17 665.88 165.83 656.08 164.07 653.15 163.79 650.83 164.81 648.02 165.74 643.94 165.83 638.9 165.09 630.25 164.07 626.91 162.12 624.07 157.02 619.37 151.52 618.13 146.05 618.13 125.19 622.31 111.54 622.86 104.77 620.17 98.19 615.11 95.59 613.5 94.11 613.5 93.37 614.73 90.77 615.91 70.71 620.45 62.23 628.66 59.19 620.64 52.33 628.24 43.15 635.22 33.01 640.29 23.06 642.02 12.68 642.58 8.63 628.61 2.67 587.57 1.74 505 1 441.35 13.95 396.54 69.42 333.31 69.43 333.3 76.74 336.1 164.81 386.53 166.57 388.29 168.24 390.51 173.25 399.38 177.7 405.62 180.48 408.16 184.09 409.67 187.37 410.01 214.44 415.57 220.59 415.88 225.59 413.75 229.3 412.79 234.58 412.42 242.28 412.73 245.71 413.29 247.75 414.22 250.9 417.52 255.75 421.45 268.27 429.67 275.5 431.58 282.08 431.86 286.93 430.5 289.99 428.46 291.47 425.68 291.29 421.32 289.9 411.4 290.55 405.78 292.03 400.31 292.77 394.96 292.03 390.17 291.01 386.25 291.1 383.13 293.05 380.07 299.91 374.01 301.95 370.83 302.69 367.4 302.32 362.76 300.84 354.92 301.02 351.83 302.51 349.32 304.92 346.63 308.81 344.16 314.65 341.66 332.48 336.68 338.51 334.33 340.92 333.04 341.94 332.02 343.05 329.45 344.35 327.69 346.29 325.62 348.89 325 369.78 327.57 375.25 327.04 379.23 325.65 382.66 323.36 389.09 320.31 423.89 309.06 428.15 306.77 429.64 305.23 430.75 303.56 431.67 301.02 433.53 291.01 435.01 288.26 437.7 286.5 447.16 282.33 452.63 278.84 454.51 276.7 455.99 274.63 459.15 267.65 461.93 264.74 466.93 261.25 471.48 260.02 475.46 259.58 499.32 259.31 511.65 257.27 531.33 249.7 543.57 284.58 545.14 296.02 544.4 299.73 545.33 302.82 548.02 307.85 543.11 323.36 541.71 338.35 539.49 347.75 535.69 356.74 530.13 363.6 524.29 369.44 512.85 378.49 508.77 383.04 507.85 387.21 507.75 392.28 505.81 394.96 502.28 397.34 494.4 401.42 493.2 403.12 493.29 405.69 495.8 413.29 496.63 418.2 495.89 432.23 492.83 438.07 492.18 442.68 492.37 446.14 494.22 452.59 494.59 455.78 494.22 460.66 490.42 463.5 485.32 465.94 479.82 467.77 476.85 470.09 477.41 473.42 482.51 481.4 484.95 487.51 488.29 505.75 489.68 527.35 487.24 532.48 482.97 535.91 448.08 550.61 445.67 552.25 443.26 554.69 441.13 557.66 427.22 588.65 423.33 602.62 422.77 614.61 Z" id="SWZ-536" data-name="Manzini"/>
<path d="M 422.77 614.61 457.38 613.44 461.56 615.45 464.71 618.07 462.85 622.03 458.03 630.19 457.01 634.45 456.92 638.96 458.31 646.01 456.92 650.74 454.05 655.37 443.26 667.21 439.37 675.09 431.77 685.99 429.64 689.89 427.78 695.11 429.45 699.31 441.87 719.49 445.12 723.66 452.93 731.33 457.11 734.57 460.54 735.78 464.06 735.03 467.4 733.06 470.46 732.25 474.72 733.55 478.43 734.35 483.25 737.07 489.03 741.4 499.5 751.84 514.15 761.92 541.07 776.66 546.54 778.95 552 780.52 557.88 781.11 563.62 780.61 581.05 776.47 586.06 776.35 591.74 778.2 595.36 781.94 606.3 805.55 609.54 808.02 614.27 809.04 619.74 809.6 625.61 811.05 644.52 817.82 646.56 819.24 647.4 821.1 646.75 831.45 647.12 834.14 648.51 837.35 652.5 838.68 657.35 839.48 667.82 839.98 672.64 840.78 674.22 842.17 674.41 844.73 673.76 847.89 673.48 851.32 675.33 852.52 677.93 853.02 695.23 853.91 695.43 853.92 695.82 865.31 697.33 909.63 700.67 918.4 704.75 924.89 707.78 931.26 709.51 938.06 709.82 945.97 656.2 945.35 598.76 944.61 511.68 943.56 445.67 942.75 405.56 935.46 344.1 916.55 298.33 902.46 277.15 895.93 224.73 879.78 215.7 874.34 206.46 866.06 177.91 827.55 116.51 777.8 103.1 757.04 100.56 742.14 106.74 718.66 107.49 703.76 103.96 691.9 97.6 683.06 80.48 666.8 72.57 655.99 62.23 628.66 70.71 620.45 90.77 615.91 93.37 614.73 94.11 613.5 95.59 613.5 98.19 615.11 104.77 620.17 111.54 622.86 125.19 622.31 146.05 618.13 151.52 618.13 157.02 619.37 162.12 624.07 164.07 626.91 165.09 630.25 165.83 638.9 165.74 643.94 164.81 648.02 163.79 650.83 164.07 653.15 165.83 656.08 174.17 665.88 174.64 668.19 173.99 670.42 171.76 676.04 171.11 679.32 170.84 682.19 171.85 683.74 174.36 683.27 201.09 664.42 233.1 649.13 240.98 647 247.75 647 252.75 645.98 258.16 643.57 263.91 641.9 270.77 643.01 277.07 646.29 304.27 664.58 308.16 665.44 310.11 664.95 310.66 656.76 311.13 654.13 312.61 651.54 314.84 648.88 320.52 644.99 322.65 642.27 323.95 639.73 324.42 637.29 326.55 635.62 330.63 634.05 358.65 631.55 364.22 629.63 369.22 625.37 372.75 621.66 376.82 618.6 386.37 613.04 398.73 610.81 422.77 614.61 Z" id="SWZ-537" data-name="Shiselweni"/>
</g>
</svg>