<?xml version="1.0"?>
<svg xmlns="http://www.w3.org/2000/svg" version="1.2" baseProfile="tiny" width="800" height="559" viewBox="0 0 800 559" stroke-linecap="round" stroke-linejoin="round">
<g id="ne_10m_admin_1_states_provinces">
<path d="M 314.43 249.76 315.69 252.5 319.21 257.1 322.99 260.08 324.35 262.25 324.62 264.95 327.06 268.2 327.6 269.01 329.49 270.63 330.58 274.96 332.75 276.59 336.27 279.57 339.77 282 344.92 282.27 350.6 282.55 356.29 289.03 357.42 292.19 357.44 292.19 357.64 292.82 358.74 295.81 358.73 295.8 352.77 294.18 348.99 292.55 343.85 292.83 343.24 293.85 341.93 296.05 341.55 300.03 341.41 301.49 341.41 305.54 341.41 308.23 343.57 311.23 343.57 313.64 343.57 315.81 345.73 315.81 348.72 315.81 354.42 316.91 357.64 320.95 363.9 326.64 366.59 330.16 369.01 331.8 372 333.96 372 335.13 371.99 337.22 371.18 341.54 368.2 344.25 365.49 348.04 360.88 349.12 353.85 350.2 348.17 350.2 343.57 350.75 336.8 353.46 331.93 355.62 324.62 358.05 319.21 358.05 316.77 356.16 315.42 353.72 310.55 352.64 307.3 354.53 298.1 356.43 287.54 356.43 285.51 356.98 276.26 360.2 269.76 355.97 259.83 347.54 227.5 323.49 204.76 310.36 201.82 306.98 200.09 302.63 199.35 299.19 197.81 296.22 189.37 290.55 182.72 283.87 172.7 276.43 166.9 270.22 164.67 267.83 161.5 265.13 157.91 263.13 148.95 260.78 147.28 258.37 146.35 255.36 143.71 252.23 141.66 251.63 136.33 251.92 134.13 251.76 132.13 250.93 129.82 249.64 125.89 246.8 122.89 243.2 118.35 235.2 115.39 231.47 106.51 224.59 103.17 221.08 99.35 212.29 97.41 205.9 97.22 202.79 97.81 200.56 99.88 197.26 100.6 195.54 101.15 192.12 101.1 191.97 102.33 191.53 104.58 190.79 109.73 191.33 112.16 190.52 113.51 188.62 116.49 185.65 121.37 185.38 128.67 185.65 133.27 184.57 140.3 184.03 147.08 182.13 157.08 180.51 160.34 177.53 164.93 171.31 166.55 170.56 166.55 170.56 172.81 174.39 178.66 178.48 187.43 183.75 200.02 189.89 205.57 193.11 210.54 193.11 213.76 193.7 216.1 196.33 218.73 200.13 222.53 205.1 229.84 206.86 233.65 207.15 238.33 210.37 246.52 214.76 257.05 218.85 266.7 222.95 272.85 224.7 276.06 229.08 280.75 231.43 285.42 232.31 285.42 232.31 286.6 237.57 286.89 244.01 286.89 244.01 289.82 246.65 295.38 247.52 314.38 249.86 314.43 249.76 Z" id="BIH-2224" data-name="West Bosnia"/>
<path d="M 129.8 55.08 130.5 55.87 131.68 57.23 131.56 58.85 130.4 60.89 125.71 62.36 116.06 64.7 112.85 68.5 112.85 72.01 114.88 75.23 114.88 75.23 120.74 80.2 127.17 81.67 140.63 82.54 154.96 83.12 161.4 83.71 173.4 84.3 184.52 85.47 192.11 86.64 202.94 88.68 211.42 92.49 220.48 98.92 228.38 106.82 228.39 106.82 230.44 112.09 230.44 120.27 230.44 123.78 231.6 126.12 231.6 126.13 236.87 125.83 238.62 128.18 238.62 128.18 239.5 136.65 239.5 146.89 239.21 158.6 237.16 162.11 235.12 166.2 233.36 169.71 224.58 170 213.17 170.59 201.47 167.37 187.14 163.56 174.86 160.93 166.95 160.93 162.87 161.23 161.99 165.33 163.74 168.83 163.74 168.84 166.55 170.56 164.93 171.31 160.34 177.53 157.08 180.51 147.08 182.13 140.3 184.03 133.27 184.57 128.67 185.65 121.37 185.38 116.49 185.65 113.51 188.62 112.16 190.52 109.73 191.33 104.58 190.79 102.33 191.53 101.1 191.97 100.53 190.08 98.34 188.52 94.09 186.54 90.37 185.86 88.09 185.79 87.33 186.44 87.43 184.84 88.78 183.99 90.52 183.17 91.74 181.71 91.7 178.56 90.33 174.69 85.3 164.62 84.22 160.61 82.87 157.02 80.5 154.79 76.17 154.27 68.73 156.64 64.5 156.26 60.3 153.03 61.9 149.75 65.28 146.64 66.19 143.95 67.88 143.33 68.2 143.14 67.46 140.39 66.45 137.83 64.84 135.91 62.33 135.04 57.34 134.54 54.78 133.93 52.71 132.94 49.98 130.09 48.44 124.99 46.24 122.78 44.7 122.67 43.01 123.36 41.28 123.68 39.71 122.53 39.02 120.76 38.47 118.63 37.71 116.72 36.31 115.56 33.76 115.44 32.32 116.72 31.22 118.47 29.7 119.79 27.94 120.21 24.29 120.41 22.32 120.87 19.32 121.2 17.55 119.85 16.22 117.78 14.65 115.9 9.83 113.53 8.69 112.48 3.54 106.39 1.25 102.84 1 99.41 3.98 96.59 8.19 95.66 11.76 94.48 12.73 90.87 10.81 86.98 7.53 83.3 4.72 79.19 4.02 74.05 4.69 72.58 5.65 70.45 10.72 64.18 11.5 60.56 9.07 54.36 9.16 50.54 13.95 41.72 14.84 38.54 14.08 26.4 14.27 24.83 16.6 20.37 18.69 19 23.23 16.04 34.28 14.76 53.85 15.14 58.54 14.49 60.78 14.57 63.23 15.43 65.03 17.25 64.93 19.05 64.16 20.55 64.04 21.49 65.81 22.43 70.29 23.1 72.85 24.5 75.98 28.18 80.33 36.16 83.9 39.51 102.6 52.74 108.37 55.3 116.17 57.71 123.72 58.92 128.7 57.96 129.8 55.08 Z" id="BIH-2225" data-name="Una-Sana"/>
<path d="M 413.36 186.9 415.17 189.92 417.39 194.63 421.35 197.59 425.56 201.3 426.3 205.01 425.32 213.67 425.8 224.31 428.28 229.25 435.21 233.95 440.41 237.65 446.33 236.92 449.8 237.41 449.8 240.38 451.53 245.08 452.77 248.29 456.72 250.02 460.19 250.02 462.4 250.02 464.89 252 465.87 256.45 467.36 262.64 470.57 262.64 476.51 262.39 478.24 263.62 478.74 266.59 478.24 268.57 480.46 270.8 480.46 272.77 482.93 272.77 484.67 272.77 486.4 274.26 491.34 280.2 493.08 283.17 495.55 283.17 497.95 282.75 499.76 284.15 501.49 290.58 501.73 294.04 500.75 296.02 498.02 298 493.57 299.24 487.14 302.7 480.72 304.43 472.8 304.93 470.33 307.16 469.34 309.63 469.38 309.67 469.4 309.7 463.65 310.62 457.18 309.5 456.48 309.38 450.78 304.93 449.79 303.08 447.57 298.99 446.85 298.27 445.59 297.01 439.41 296.52 429.52 296.52 423.09 297.75 419.46 300 417.92 300.96 409.99 301.69 403.06 299.97 394.9 296.5 385.52 294.78 380.33 295.52 376.12 296.5 370.88 296.99 365.24 294.54 361.03 292.79 357.43 292.17 357.44 292.19 357.42 292.19 356.29 289.03 350.6 282.55 344.92 282.27 339.77 282 336.27 279.57 332.75 276.59 330.58 274.96 329.49 270.63 327.6 269.01 327.06 268.2 324.62 264.95 324.35 262.25 322.99 260.08 319.21 257.1 315.69 252.5 314.43 249.76 314.43 249.76 316.43 244.89 318.19 240.21 319.36 234.36 317.31 226.45 317.31 226.45 306.49 216.51 301.51 210.95 301.51 210.95 298.01 204.22 294.78 197.21 293.91 188.14 293.03 175.85 294.49 170 299.46 169.12 310 169.42 312.63 171.17 318.19 172.63 329.89 173.07 339.54 173.07 346.85 173.37 353.29 176.58 358.56 183.02 362.65 185.65 366.16 188.87 373.47 189.16 386.34 189.16 404.19 186.82 412.96 187.12 413.36 186.9 Z" id="BIH-2226" data-name="Central Bosnia"/>
<path d="M 385.8 453.21 383.62 451.32 355.72 437.82 353.91 436.94 350.78 434.23 348.42 430.29 346.7 426.11 345.35 423.94 343.2 422.5 339.05 420.56 330.73 414.88 322.8 406.07 318.24 395.87 322.08 378.68 318.83 373.4 312.49 370.29 292.71 368.06 280.81 363.17 276.26 360.2 285.51 356.98 287.54 356.43 298.1 356.43 307.3 354.53 310.55 352.64 315.42 353.72 316.77 356.16 319.21 358.05 324.62 358.05 331.93 355.62 336.8 353.46 343.57 350.75 348.17 350.2 353.85 350.2 360.88 349.12 365.49 348.04 368.2 344.25 371.18 341.54 371.99 337.22 372 335.13 373.1 334.93 375.52 334.49 380.03 334.76 380.37 334.78 381.76 336.42 383.37 338.3 383.37 342.06 383.37 343.98 385.24 345.86 385.25 345.87 386.6 347.5 386.6 351.54 386.6 354.81 386.06 355.24 385.25 355.89 382.27 355.89 377.94 355.89 375.51 355.89 374.01 356.53 373.63 356.69 373.34 359.4 373.34 360.75 376.18 361.79 376.31 361.85 377.5 361.77 380.65 361.56 383.65 365.08 387.41 369.95 392.02 372.12 393.1 374.81 395.26 378.33 395.84 378.33 399.07 379.97 407.73 381.03 408.55 384.55 409.12 387.34 409.32 388.36 409.57 392.33 409.62 392.97 412.07 397.31 413.99 400.12 414.48 400.81 414.79 401.49 416.94 405.94 416.94 410.02 416.92 410.02 416.31 410 404.73 409.48 399.01 408.85 394.74 408.39 390.11 407.04 385.24 406.75 383.07 408.39 382.54 411.91 383.13 413.2 385.25 417.87 385.74 417.94 390.38 418.68 396.61 423.82 396.97 424.6 399.35 429.78 397.18 437.88 392.23 446.59 385.8 453.21 Z" id="BIH-2227" data-name="West Herzegovina"/>
<path d="M 469.4 309.7 471.07 311.6 473.09 317.44 473.29 318.04 473.42 318.47 475.04 323.7 476.51 326.44 480 328.89 486.55 329.98 487.64 330.16 489.03 329.93 493.82 329.16 498.08 329.61 498.52 329.66 500 330.7 505.18 334.33 505.2 334.35 508.17 340.05 508.34 343.12 508.41 344.5 510.64 345.73 516.32 347.22 520.78 349.56 521.52 349.94 522.25 350.08 524.24 350.43 526.63 350.64 527.21 350.68 528.2 347.95 529.92 344.99 533.82 345.96 533.88 345.99 538.59 347.47 544.27 347.47 546.2 347.8 546.25 347.81 546.25 347.81 546.25 347.82 544.84 348.84 544.6 349.01 543.74 354.29 544.89 362.18 546.65 368.89 548.7 375.64 547.83 378.53 547.82 378.53 540.8 378.53 520.6 377.11 502.77 377.68 488.13 377.68 474.11 377.11 473.13 380.01 472.63 381.48 472.63 381.48 477.62 387.33 477.62 387.33 478.49 394.08 479.1 407.2 479.67 425.65 477.34 427.98 474.11 430.93 469.44 432.68 466.21 436.19 465.64 439.38 466.21 441.72 466.21 441.72 470.16 441.99 470.88 442.05 471.95 442.34 476.14 443.5 479.36 445.84 479.36 445.84 479.04 450.23 478.78 453.59 476.73 459.44 475.29 460.65 473.23 462.37 471.18 465.59 470.94 473.02 470.88 474.95 470.96 475.34 472.96 484 476.15 491.61 476.15 491.61 479.73 496.31 479.95 496.6 480.06 496.65 486.08 499.79 498.97 508.29 503.65 511.68 509.49 515.9 509.49 515.9 511.25 518.65 512.13 519.99 512.13 519.99 522.97 528.46 532.91 535.49 538.77 539.86 544.31 541.05 544.32 541.05 544.57 545.55 543.6 555.14 543.6 555.14 539.47 550.66 537.23 549.38 531.7 549.65 520.56 546.85 513.82 544.16 478.08 526.43 467.03 521.18 462.23 518.21 453.44 510.89 448.46 508.08 441.29 506.59 439.05 505.54 432.65 498.14 432.23 495.81 432.46 490.88 431.87 488.89 429.5 486.54 427.64 486.59 426.01 487.62 424.39 488.28 420.03 487.72 411.47 485.24 406.97 484.57 402.45 485.35 399.68 487.5 397.11 490.41 397.11 490.41 397.01 490.36 377.31 481.45 380.88 481.55 386.42 483.4 389.87 484.11 386.82 481.9 382.25 479.96 393.26 478.25 399.03 475.13 398.33 469.46 398.31 469.45 398.29 469.41 398.27 469.41 392.01 458.59 385.8 453.21 392.23 446.59 397.18 437.88 399.35 429.78 396.97 424.6 396.61 423.82 390.38 418.68 385.74 417.94 385.25 417.87 383.13 413.2 382.54 411.91 383.07 408.39 385.24 406.75 390.11 407.04 394.74 408.39 399.01 408.85 404.73 409.48 416.31 410 416.92 410.02 416.94 410.02 416.94 405.94 414.79 401.49 414.48 400.81 413.99 400.12 412.07 397.31 409.62 392.97 409.57 392.33 409.32 388.36 409.12 387.34 408.55 384.55 407.73 381.03 399.07 379.97 395.84 378.33 395.26 378.33 393.1 374.81 392.02 372.12 387.41 369.95 383.65 365.08 380.65 361.56 377.5 361.77 376.31 361.85 376.18 361.79 373.34 360.75 373.34 359.4 373.63 356.69 374.01 356.53 375.51 355.89 377.94 355.89 382.27 355.89 385.25 355.89 386.06 355.24 386.6 354.81 386.6 351.54 386.6 347.5 385.25 345.87 385.24 345.86 383.37 343.98 383.37 342.06 383.37 338.3 381.76 336.42 380.37 334.78 380.03 334.76 375.52 334.49 373.1 334.93 372 335.13 372 333.96 369.01 331.8 366.59 330.16 363.9 326.64 357.64 320.95 354.42 316.91 348.72 315.81 345.73 315.81 343.57 315.81 343.57 313.64 343.57 311.23 341.41 308.23 341.41 305.54 341.41 301.49 341.55 300.03 341.93 296.05 343.24 293.85 343.85 292.83 348.99 292.55 352.77 294.18 358.73 295.8 358.74 295.81 357.64 292.82 357.44 292.19 357.43 292.17 361.03 292.79 365.24 294.54 370.88 296.99 376.12 296.5 380.33 295.52 385.52 294.78 394.9 296.5 403.06 299.97 409.99 301.69 417.92 300.96 419.46 300 423.09 297.75 429.52 296.52 439.41 296.52 445.59 297.01 446.85 298.27 447.57 298.99 449.79 303.08 450.78 304.93 456.48 309.38 457.18 309.5 463.65 310.62 469.4 309.7 Z" id="BIH-2228" data-name="Herzegovina-Neretva"/>
<path d="M 620.94 90.88 620.94 90.88 623.87 99.36 625.04 107.55 626.5 111.06 626.5 111.06 632.35 111.36 632.35 111.36 632.64 114.86 631.18 119.55 625.62 122.18 619.77 124.81 617.43 127.15 617.14 131.83 619.19 135.92 619.19 135.92 627.08 141.48 638.2 150.84 641.42 152.89 645.51 152.89 650.19 151.14 656.04 143.82 659.85 137.39 662.48 134.17 669.79 133 677.1 134.17 677.1 134.17 678.57 137.39 678.81 147.6 678.85 149.38 678.27 163.42 676.52 166.34 671.26 169.57 667.74 170.59 661.9 174.1 656.62 176.44 648.43 176.73 639.37 178.48 636.74 183.46 632.93 187.26 626.79 189.89 622.11 190.48 620.35 193.99 621.82 202.47 625.04 207.74 627.96 213.3 630.01 219.73 628.84 226.75 624.45 232.89 624.02 233.22 624.01 233.21 619.21 228.26 607.84 228.26 593.74 228.75 589.54 227.52 587.55 223.31 581.87 223.31 577.42 222.57 576.42 221.58 576.42 215.65 573.45 208.47 571.72 201.3 567.77 198.83 560.84 196.36 555.89 195.61 550.71 191.41 548.23 187.21 548.23 183.49 546.74 179.54 543.78 178.05 533.64 178.3 530.43 176.57 528.44 172.36 528.44 168.16 528.44 163.96 528.2 159.01 526.47 155.55 526.47 152.58 526.71 148.62 526.71 146.01 526.71 146.01 526.75 146.01 536.12 146.31 546.64 144.56 547.81 139.87 546.64 134.61 546.64 134.61 541.08 129.93 532.02 127.88 523.53 125.83 513.29 123.2 504.81 120.57 495.74 117.94 487.26 114.72 484.05 112.09 484.05 112.08 484.05 106.23 485.5 102.72 493.7 101.85 502.47 101.26 518.55 101.26 526.75 99.8 531.72 94.24 536.12 85.17 539.03 79.91 544.3 77.28 549.27 75.81 562.15 76.26 569.16 77.71 569.17 77.71 569.17 82.39 569.17 84.73 569.17 84.73 571.5 86.78 577.06 87.08 582.04 86.2 589.35 83.86 600.76 84.44 613.04 86.78 620.94 90.88 Z" id="BIH-2887" data-name="Tuzla"/>
<path d="M 526.71 146.01 526.71 148.62 526.47 152.58 526.47 155.55 528.2 159.01 528.44 163.96 528.44 168.16 528.44 172.36 530.43 176.57 533.64 178.3 543.78 178.05 546.74 179.54 548.23 183.49 548.23 187.21 550.71 191.41 555.89 195.61 560.84 196.36 567.77 198.83 571.72 201.3 573.45 208.47 576.42 215.65 576.42 221.58 577.42 222.57 581.87 223.31 587.55 223.31 589.54 227.52 593.74 228.75 607.84 228.26 619.21 228.26 624.01 233.21 624.02 233.22 624.02 233.22 621.24 235.23 618.6 239.04 611.88 243.42 602.81 250.15 595.5 253.37 587.97 253.6 587.97 253.6 586.81 252 581.87 251.26 578.4 249.53 576.42 246.81 573.21 243.35 569.99 241.37 565.78 240.87 562.33 240.87 558.12 240.87 557.38 241.61 555.15 243.59 552.43 247.3 548.97 249.28 545.01 249.28 539.82 249.28 537.35 250.76 537.1 253.73 537.35 260.41 534.88 262.64 529.18 264.86 521.03 265.11 514.09 264.86 507.92 266.35 506.43 270.3 506.43 275.74 504.7 277.72 501.73 278.71 499.51 278.71 497.04 280.44 497.53 282.42 497.95 282.75 495.55 283.17 493.08 283.17 491.34 280.2 486.4 274.26 484.67 272.77 482.93 272.77 480.46 272.77 480.46 270.8 478.24 268.57 478.74 266.59 478.24 263.62 476.51 262.39 470.57 262.64 467.36 262.64 465.87 256.45 464.89 252 462.4 250.02 460.19 250.02 456.72 250.02 452.77 248.29 451.53 245.08 449.8 240.38 449.8 237.41 446.33 236.92 440.41 237.65 435.21 233.95 428.28 229.25 425.8 224.31 425.32 213.67 426.3 205.01 425.56 201.3 421.35 197.59 417.39 194.63 415.17 189.92 413.36 186.9 413.36 186.9 419.98 183.31 430.22 179.21 438.71 175.7 446.02 171.61 450.99 167.52 451.86 162.54 451.86 157.57 450.7 152.01 450.7 152.01 445.72 148.5 438.71 143.53 434.32 137.68 434.32 137.68 434.32 133 437.83 127.15 445.14 116.47 452.16 115.01 462.69 115.59 471.18 116.47 478.19 121.15 484.92 129.34 484.92 129.34 491.94 140.17 491.94 140.17 496.04 145.14 501.6 145.72 510.96 146.01 526.71 146.01 Z" id="BIH-2889" data-name="Zenica-Doboj"/>
<path d="M 587.97 253.6 587.97 253.6 585.84 253.66 584.38 257.9 578.23 261.7 572.09 265.22 570.04 268.14 569.75 273.11 570.92 280.43 571.5 286.57 571.5 293.01 569.75 295.64 566.54 297.69 560.39 298.27 554.83 297.4 546.34 296.81 543.71 297.98 544.3 302.08 544.89 306.76 544.89 306.76 550.44 313.77 553.07 317.28 558.63 317.58 567.41 317.87 573.85 320.21 582.33 322.84 592.46 328.32 591.89 328.77 589.42 330.75 587.76 333.73 587.11 336.2 587.19 337.92 587.19 337.93 580.28 335.71 573.55 333.37 568.57 329.86 562.73 326.94 558.63 326.94 552.49 326.94 550.15 331.91 549.27 340.39 547.81 346.68 546.25 347.81 546.25 347.81 546.2 347.8 544.27 347.47 538.59 347.47 533.88 345.99 533.82 345.96 529.92 344.99 528.2 347.95 527.21 350.68 526.63 350.64 524.24 350.43 522.25 350.08 521.52 349.94 520.78 349.56 516.32 347.22 510.64 345.73 508.41 344.5 508.34 343.12 508.17 340.05 505.2 334.35 505.18 334.33 500 330.7 498.52 329.66 498.08 329.61 493.82 329.16 489.03 329.93 487.64 330.16 486.55 329.98 480 328.89 476.51 326.44 475.04 323.7 473.42 318.47 473.29 318.04 473.09 317.44 471.07 311.6 469.4 309.7 469.38 309.67 469.34 309.63 470.33 307.16 472.8 304.93 480.72 304.43 487.14 302.7 493.57 299.24 498.02 298 500.75 296.02 501.73 294.04 501.49 290.58 499.76 284.15 497.95 282.75 497.53 282.42 497.04 280.44 499.51 278.71 501.73 278.71 504.7 277.72 506.43 275.74 506.43 270.3 507.92 266.35 514.09 264.86 521.03 265.11 529.18 264.86 534.88 262.64 537.35 260.41 537.1 253.73 537.35 250.76 539.82 249.28 545.01 249.28 548.97 249.28 552.43 247.3 555.15 243.59 557.38 241.61 558.12 240.87 562.33 240.87 565.78 240.87 569.99 241.37 573.21 243.35 576.42 246.81 578.4 249.53 581.87 251.26 586.81 252 587.97 253.6 587.97 253.6 Z" id="BIH-2890" data-name="Sarajevo"/>
<path d="M 662.18 316.4 666.86 319.92 671.54 319.92 678.27 321.38 681.78 324.59 681.78 324.59 684.13 330.45 682.95 333.37 676.52 334.25 671.54 338.05 664.81 341.86 655.75 344.78 649.03 347.12 640.83 348 630.01 349.17 623.57 350.34 609.83 348.87 600.76 345.66 587.59 338.05 587.19 337.93 587.19 337.93 587.19 337.92 587.11 336.2 587.76 333.73 589.42 330.75 591.89 328.77 592.46 328.32 592.47 328.32 593.15 328.69 598.12 329.27 605.73 329.57 609.53 326.94 613.04 321.96 615.09 315.24 619.19 311.43 628.25 310.56 647.56 310.85 657.21 312.02 662.18 316.4 Z" id="BIH-2891" data-name="Bosnian Podrinje"/>
<path d="M 594.99 40.14 596.38 42.81 597.55 44.46 598.96 45.81 600.63 46.36 602.55 45.62 603.19 44.64 603.61 43.4 604.18 42.21 605.26 41.42 606.65 41.31 607.86 41.84 608.87 42.77 616.5 53.83 618.95 55.92 621.36 56.67 627.07 57.06 628.48 57.44 629.31 58 629.88 58.86 630.47 60.11 630.58 60.54 630.58 61.63 630.7 62.23 631.15 62.81 632.18 63.82 632.5 64.52 631.89 66.54 627.45 68.94 625.97 70.94 628.17 76.81 635.2 82.17 640.18 84.48 640.18 84.48 639.8 85.18 638.76 87.8 632.79 91.58 627.76 91.58 627.76 91.57 627.76 89.38 628.39 85.29 627.45 82.47 627.45 82.47 625.25 81.21 619.91 80.89 615.83 80.27 615.83 80.27 615.19 75.88 615.19 75.87 609.86 72.1 601.07 68.65 592.26 68.65 584.11 66.45 575.94 62.05 569.65 56.71 566.83 54.51 566.83 54.51 566.2 47.92 566.48 45.49 568.34 46.34 573.71 47.76 578.63 47.87 578.25 45 577.26 42.5 577.34 41.1 577.36 40.69 580.36 39.8 582.01 39.87 585.31 40.45 586.96 40.5 588.33 40.12 591.18 38.88 592.54 38.71 594.08 39.21 594.99 40.14 Z M 555.77 38.28 560.37 41.8 560.38 41.81 558.66 44.46 557.41 49.17 552.39 51.06 545.48 52.95 539.81 54.51 538.25 57.34 536.68 59.86 535.74 61.74 531.34 61.74 524.75 61.74 520.35 61.11 515.32 54.83 510.93 51.37 507.15 49.17 503.38 48.86 500.87 46.04 500.87 46.03 497.73 40.38 497.38 39.28 497.37 39.2 499.41 39.23 503.76 38.57 507.35 36.99 508.75 34.84 508.9 32.27 509.36 29.72 511.6 27.73 516.63 26.98 521.55 28.37 530.85 33.1 533.89 34.05 548.33 34.92 552.24 36.19 555.77 38.28 Z" fill-rule="evenodd" id="BIH-3153" data-name="Posavina"/>
<path d="M 497.37 39.2 497.38 39.28 497.73 40.38 500.87 46.03 500.87 46.04 503.38 48.86 507.15 49.17 510.93 51.37 515.32 54.83 520.35 61.11 524.75 61.74 531.34 61.74 535.74 61.74 536.68 59.86 538.25 57.34 539.81 54.51 545.48 52.95 552.39 51.06 557.41 49.17 558.66 44.46 560.38 41.81 563.29 44.04 566.48 45.49 566.2 47.92 566.83 54.51 566.83 54.51 569.65 56.71 575.94 62.05 584.11 66.45 592.26 68.65 601.07 68.65 609.86 72.1 615.19 75.87 615.19 75.88 615.83 80.27 615.83 80.27 619.91 80.89 625.25 81.21 620.94 90.88 613.04 86.78 600.76 84.44 589.35 83.86 582.04 86.2 577.06 87.08 571.5 86.78 569.17 84.73 569.17 84.73 569.17 82.39 569.17 77.71 569.16 77.71 562.15 76.26 549.27 75.81 544.3 77.28 539.03 79.91 536.12 85.17 531.72 94.24 526.75 99.8 518.55 101.26 502.47 101.26 493.7 101.85 485.5 102.72 484.05 106.23 484.05 112.08 484.05 112.09 487.26 114.72 495.74 117.94 504.81 120.57 513.29 123.2 523.53 125.83 532.02 127.88 541.08 129.93 546.64 134.61 546.64 134.61 547.81 139.87 546.64 144.56 536.12 146.31 526.75 146.01 526.71 146.01 526.71 146.01 510.96 146.01 501.6 145.72 496.04 145.14 491.94 140.17 491.94 140.17 484.92 129.34 484.92 129.34 478.19 121.15 471.18 116.47 462.69 115.59 452.16 115.01 445.14 116.47 430.57 119.31 422.98 116.54 418.11 109.62 411.41 96.8 411.19 84.71 413.45 77.74 419.49 73.64 419.57 63.45 415.34 54.26 414.81 44.39 420.09 36.48 426.58 42.42 430.28 44.83 434.4 46 436.43 45.83 442.48 44.05 448.08 43.28 449.83 42.6 453.21 40.36 465.64 29.77 468.7 28.64 471.89 28.62 475.15 29.87 486.45 37.09 490.97 38.6 494.95 39.17 497.37 39.2 497.37 39.2 Z" id="BIH-4801" data-name="Doboj"/>
<path d="M 289 24.61 301.78 28.8 303.97 27.9 313.72 27.4 314.58 26.49 318.51 20.42 326.46 24.13 330.28 25.25 337 28.37 338.89 29.51 341.72 30.63 345.48 30.34 352.28 28.8 352.71 28.11 353.23 26.84 354.16 26.04 355.77 26.77 356.95 28.13 357.19 29.3 356.55 30.43 355.07 31.72 357.65 32.34 360.1 32.03 364.98 30.2 363.1 34.46 362.05 35.78 363.57 35.4 373.84 34.44 378.32 34.77 380.56 34.56 384.78 32.68 392.33 27 396.75 25.37 403.53 25.65 409.62 28.09 415.11 31.93 420.09 36.48 414.81 44.39 415.34 54.26 419.57 63.45 419.49 73.64 413.45 77.74 411.19 84.71 411.41 96.8 418.11 109.62 422.98 116.54 430.57 119.31 445.14 116.47 437.83 127.15 434.32 133 434.32 137.68 434.32 137.68 438.71 143.53 445.72 148.5 450.7 152.01 450.7 152.01 451.86 157.57 451.86 162.54 450.99 167.52 446.02 171.61 438.71 175.7 430.22 179.21 419.98 183.31 413.36 186.9 413.36 186.9 412.96 187.12 404.19 186.82 386.34 189.16 373.47 189.16 366.16 188.87 362.65 185.65 358.56 183.02 353.29 176.58 346.85 173.37 339.54 173.07 329.89 173.07 318.19 172.63 312.63 171.17 310 169.42 299.46 169.12 294.49 170 293.03 175.85 293.91 188.14 294.78 197.21 298.01 204.22 301.51 210.95 301.51 210.95 306.49 216.51 317.31 226.45 317.31 226.45 319.36 234.36 318.19 240.21 316.43 244.89 314.43 249.76 314.43 249.76 314.38 249.86 295.38 247.52 289.82 246.65 286.89 244.01 286.89 244.01 286.6 237.57 285.42 232.31 285.42 232.31 280.75 231.43 276.06 229.08 272.85 224.7 266.7 222.95 257.05 218.85 246.52 214.76 238.33 210.37 233.65 207.15 229.84 206.86 222.53 205.1 218.73 200.13 216.1 196.33 213.76 193.7 210.54 193.11 205.57 193.11 200.02 189.89 187.43 183.75 178.66 178.48 172.81 174.39 166.55 170.56 166.55 170.56 163.74 168.84 163.74 168.83 161.99 165.33 162.87 161.23 166.95 160.93 174.86 160.93 187.14 163.56 201.47 167.37 213.17 170.59 224.58 170 233.36 169.71 235.12 166.2 237.16 162.11 239.21 158.6 239.5 146.89 239.5 136.65 238.62 128.18 238.62 128.18 236.87 125.83 231.6 126.13 231.6 126.12 230.44 123.78 230.44 120.27 230.44 112.09 228.39 106.82 228.38 106.82 220.48 98.92 211.42 92.49 202.94 88.68 192.11 86.64 184.52 85.47 173.4 84.3 161.4 83.71 154.96 83.12 140.63 82.54 127.17 81.67 120.74 80.2 114.88 75.23 114.88 75.23 112.85 72.01 112.85 68.5 116.06 64.7 125.71 62.36 130.4 60.89 131.56 58.85 131.68 57.23 130.5 55.87 129.8 55.08 129.8 55.08 132.04 49.23 136.2 43.72 137.16 42.06 137.58 39.66 137.16 38.33 137.11 37.18 138.64 35.29 140.54 34.35 145.9 33.15 148.1 32.01 150.89 28.89 157.59 18.38 167.21 13.73 179.08 14.02 219.83 22.61 225.02 22.12 227.58 20.52 227.9 19.03 227.75 17.25 228.91 14.81 230.96 13.37 233.24 12.68 235.25 11.69 236.39 9.41 238.04 8.68 240.18 6.99 241.85 5.29 242.46 4.35 248.06 1 249.75 2.17 251.4 6.47 251.69 8.09 251.57 9.85 252.75 10.99 256.98 10.66 256.43 9.24 255.58 7.87 258.6 8.64 261.1 10.82 263.25 11.86 265.22 9.25 265.98 10.83 266.3 12.03 266.08 13.28 265.22 14.98 266.46 14.24 269.7 12.77 270.94 12.05 274.92 18.19 283.65 22.85 289 24.61 Z" id="BIH-4802" data-name="Banja Luka"/>
<path d="M 640.18 84.48 643.57 86.06 649.89 87.56 667.33 87.24 667.43 91.17 664.31 92.78 659.68 94.29 656.56 97.81 653.94 103.35 649.21 105.87 639.04 106.47 635.92 108.08 632.35 111.36 632.35 111.36 626.5 111.06 626.5 111.06 625.04 107.55 623.87 99.36 620.94 90.88 620.94 90.88 625.25 81.21 627.45 82.47 627.45 82.47 628.39 85.29 627.76 89.38 627.76 91.57 627.76 91.58 632.79 91.58 638.76 87.8 639.8 85.18 640.18 84.48 Z" id="BIH-4803" data-name="Brčko Distrikt"/>
<path d="M 745.45 80.47 746.63 81.44 747.84 82.25 748.68 83.42 749.28 85.12 749.47 87.19 748.75 87.75 747.67 87.95 746.82 88.9 739.6 113.57 737.48 117.35 735.52 119.47 731.4 121.94 729.22 123.61 727.68 125.5 724.74 131.63 715.13 143.34 714.2 144 711.98 144.93 710.96 145.86 710.54 147.24 710.75 150.51 710.35 151.96 709.19 153.59 706.89 150.2 702.55 146.07 696.02 142.8 692.76 142.15 687.76 143.46 682.11 146.28 678.81 147.6 678.57 137.39 677.1 134.17 677.1 134.17 669.79 133 662.48 134.17 659.85 137.39 656.04 143.82 650.19 151.14 645.51 152.89 641.42 152.89 638.2 150.84 627.08 141.48 619.19 135.92 619.19 135.92 617.14 131.83 617.43 127.15 619.77 124.81 625.62 122.18 631.18 119.55 632.64 114.86 632.35 111.36 635.92 108.08 639.04 106.47 649.21 105.87 653.94 103.35 656.56 97.81 659.68 94.29 664.31 92.78 667.43 91.17 667.33 87.24 673.47 87.12 675.69 86.65 682.22 85.2 686.45 84.77 689.75 83.92 708.09 74.42 710.67 73.99 711.96 75.22 712.72 76.93 713.73 77.91 715.78 77.91 719.39 76.81 721.42 76.53 730.49 77.91 732.37 77.7 734.06 77.1 735.88 77.1 739.98 79.89 742.01 80.39 744.08 80.24 744.63 80.01 744.67 79.82 745.45 80.47 745.45 80.47 Z" id="BIH-4804" data-name="Bijeljina"/>
<path d="M 709.19 153.59 707.86 154.98 706.25 155.95 699.02 157.66 698.49 160.89 701.77 169.95 701.37 175.55 698.96 178.55 696.13 181.12 694.37 185.39 694.73 189.29 696.32 193.37 700.86 200.39 704.56 203.62 708.68 204.97 717.45 206.34 721.68 207.89 723.47 208.29 726.37 208.4 732.96 207.25 735.31 207.58 738.77 209.67 742.3 213.38 744.84 217.78 745.26 221.93 746.55 224.55 750.4 227.43 759.33 232.2 761.51 233.77 762.95 234.36 764.15 234.11 766.46 232.42 767.68 232.4 769.41 234.02 769.86 237.67 771.15 238.97 774.32 241.11 778 245 779.2 246.26 785.86 249.07 789.19 252.01 791.1 253.11 791.84 252.54 793.08 251.31 794.92 250.85 797.48 252.5 799 256.34 797.27 259.7 793.78 262.5 785.37 267.04 780.53 268.3 775.52 268.62 763.88 267.77 753.02 268.33 749.97 268.99 747.01 269.11 744.37 267.91 739.09 264.34 733.91 261.7 731.21 260.98 728.23 261.11 724 262.11 722.25 263.23 721.13 265.18 721.15 266.63 722.12 269.2 721.68 270.65 719.35 272.3 721.74 273.39 718.46 279.69 708.45 271.36 698.5 263.9 673.63 253.95 653.73 244.83 636.31 241.51 618.6 239.04 621.24 235.23 624.02 233.22 624.02 233.22 624.45 232.89 628.84 226.75 630.01 219.73 627.96 213.3 625.04 207.74 621.82 202.47 620.35 193.99 622.11 190.48 626.79 189.89 632.93 187.26 636.74 183.46 639.37 178.48 648.43 176.73 656.62 176.44 661.9 174.1 667.74 170.59 671.26 169.57 676.52 166.34 678.27 163.42 678.85 149.38 678.81 147.6 682.11 146.28 687.76 143.46 692.76 142.15 696.02 142.8 702.55 146.07 706.89 150.2 709.19 153.59 Z" id="BIH-4805" data-name="Vlasenica"/>
<path d="M 563.75 342.59 555.79 347.9 547.81 346.68 549.27 340.39 550.15 331.91 552.49 326.94 558.63 326.94 562.73 326.94 568.57 329.86 573.55 333.37 580.28 335.71 587.19 337.93 581 341.93 573.04 342.59 563.75 342.59 Z M 718.41 293.75 717.58 301.22 721.72 309.51 717.58 314.48 708.45 313.65 701.82 310.34 686.89 307.85 672.8 311.17 662.18 316.4 657.21 312.02 647.56 310.85 628.25 310.56 619.19 311.43 615.09 315.24 613.04 321.96 609.53 326.94 605.73 329.57 598.12 329.27 593.15 328.69 592.47 328.32 592.46 328.32 582.33 322.84 573.85 320.21 567.41 317.87 558.63 317.58 553.07 317.28 550.44 313.77 544.89 306.76 544.89 306.76 544.3 302.08 543.71 297.98 546.34 296.81 554.83 297.4 560.39 298.27 566.54 297.69 569.75 295.64 571.5 293.01 571.5 286.57 570.92 280.43 569.75 273.11 570.04 268.14 572.09 265.22 578.23 261.7 584.38 257.9 585.84 253.66 587.97 253.6 587.97 253.6 595.5 253.37 602.81 250.15 611.88 243.42 618.6 239.04 636.31 241.51 653.73 244.83 673.63 253.95 698.5 263.9 708.45 271.36 718.46 279.69 716.75 282.97 718.41 293.75 Z" fill-rule="evenodd" id="BIH-4806" data-name="Sarajevo-romanija"/>
<path d="M 712.4 359.17 702.66 358.08 697.56 358.53 692.09 363.24 688.08 364.4 683.7 364.51 680.26 363.63 677.57 361.17 675.38 358.15 672.5 356.09 667.85 356.43 664.83 358.05 659.97 362 656.21 363.38 654.26 364.39 653.06 366.07 653.17 367.79 655.13 368.87 658.28 369.5 659.76 370.18 662.49 373.28 662.38 374.61 661.49 376.29 661.47 377.34 665.97 376.49 667.41 377.27 674.49 384.08 680.55 396.4 686.7 404.97 685.24 405.87 679.88 406.09 677.51 407.03 677.07 407.48 675.97 408.58 674.68 410.39 673.05 412.1 670.92 413.5 670.31 412.49 670.2 412.3 666.04 408.36 664.18 406.07 663.69 404.35 663.86 402.89 663.73 401.48 662.29 400.01 656.8 397.19 651.83 396.16 639.66 396.99 635.9 398.31 636.6 399.12 637.76 401.01 638.42 401.83 633.03 403.09 606.93 417.1 603.82 420.44 597.34 417.31 588.22 413.16 571.63 402.38 560.02 404.04 551.73 399.89 545.1 402.38 539.29 397.41 542.61 388.29 540.8 378.53 547.82 378.53 547.83 378.53 548.7 375.64 546.65 368.89 544.89 362.18 543.74 354.29 544.6 349.01 544.84 348.84 546.25 347.82 546.25 347.81 547.81 346.68 555.79 347.9 563.75 342.59 573.04 342.59 581 341.93 587.19 337.93 587.19 337.93 587.59 338.05 600.76 345.66 609.83 348.87 623.57 350.34 630.01 349.17 640.83 348 649.03 347.12 655.75 344.78 664.81 341.86 671.54 338.05 676.52 334.25 682.95 333.37 684.13 330.45 681.78 324.59 681.78 324.59 678.27 321.38 671.54 319.92 666.86 319.92 662.18 316.4 672.8 311.17 686.89 307.85 701.82 310.34 708.45 313.65 717.58 314.48 721.72 309.51 717.58 301.22 718.41 293.75 716.75 282.97 718.46 279.69 721.74 273.39 728.78 277.29 735.01 283.12 745.96 295.91 766.86 312.28 770.96 319.01 775.86 330.37 776.2 335.78 770.96 339.52 770.09 341.96 769.71 344.91 769.96 347.75 770.96 349.91 772.44 350.91 773.01 351.85 772.56 352.7 770.96 353.44 763.22 351.18 760.75 351.33 758.19 355.81 756.44 357.55 754.83 355.73 753.14 352.29 750.25 348.38 746.76 345.11 743.32 343.62 741.12 344.1 736.38 346.83 733.98 347.82 731.59 347.9 726.37 347.28 724.13 347.76 721.3 351.13 719.37 355.71 716.92 359.17 712.4 359.17 Z" id="BIH-4807" data-name="Foča"/>
<path d="M 540.8 378.53 542.61 388.29 539.29 397.41 545.1 402.38 551.73 399.89 560.02 404.04 571.63 402.38 588.22 413.16 597.34 417.31 603.82 420.44 608.75 422.22 599.93 431.27 596.62 436.44 594.99 442.64 594.88 443.05 594.99 448.39 598.64 463.97 590.34 463.11 578.19 463.23 566.76 465.12 560.56 469.46 556.63 477.48 556.74 481.02 558.77 485.11 563.61 492.3 564.77 496.22 563.27 498.21 560.71 499.67 558.7 501.96 558.89 505.51 560.8 510.41 563.56 515.3 570.66 523.84 574.83 527.02 578.34 530.38 580.45 535.98 580.36 541.94 578.98 544.5 578.08 546.16 573.75 549.29 571.61 550.21 567.5 551.98 568.93 554.02 569.38 555.86 568.62 557.1 566.5 557.33 564.2 556.23 561.83 556.09 559.53 556.81 557.41 558.24 554.08 557.34 546.76 556.74 543.74 555.29 543.6 555.14 544.57 545.55 544.32 541.05 544.31 541.05 538.77 539.86 532.91 535.49 522.97 528.46 512.13 519.99 512.13 519.99 511.25 518.65 509.49 515.9 509.49 515.9 503.65 511.68 498.97 508.29 486.08 499.79 480.06 496.65 479.95 496.6 479.73 496.31 476.15 491.61 476.15 491.61 472.96 484 470.96 475.34 470.88 474.95 470.94 473.02 471.18 465.59 473.23 462.37 475.29 460.65 476.73 459.44 478.78 453.59 479.04 450.23 479.36 445.84 479.36 445.84 476.14 443.5 471.95 442.34 470.88 442.05 470.16 441.99 466.21 441.72 466.21 441.72 465.64 439.38 466.21 436.19 469.44 432.68 474.11 430.93 477.34 427.98 479.67 425.65 479.1 407.2 478.49 394.08 477.62 387.33 477.62 387.33 472.63 381.48 472.63 381.48 473.13 380.01 474.11 377.11 488.13 377.68 502.77 377.68 520.6 377.11 540.8 378.53 Z" id="BIH-4808" data-name="Trebinje"/>
</g>
</svg>