<?xml version="1.0"?>
<svg xmlns="http://www.w3.org/2000/svg" version="1.2" baseProfile="tiny" width="800" height="273" viewBox="0 0 800 273" stroke-linecap="round" stroke-linejoin="round">
<g id="ne_10m_admin_1_states_provinces">
<path d="M 341.4 16.46 338.07 16.9 334.65 14.97 334.43 12.6 336.09 10.37 338.02 10.14 339.91 11.92 342.31 15.21 341.4 16.46 Z M 286.35 87.18 284.91 86.34 284.46 85.78 284.46 85.17 284.85 83.97 285.69 82.99 286.45 82.25 291.38 78.43 291.79 77.96 291.79 77.58 291.25 77.06 289.86 76.34 288.57 75.51 288.09 74.28 288.24 73.38 288.05 72.44 287.68 71.83 282.45 69.4 275.97 68.05 269.22 68.33 265.95 69.01 264.66 69.15 261.7 68.76 257.47 65.96 255.7 65.18 252.93 64.44 248.96 63.84 247.61 63.15 245.47 60.52 243.95 59.35 239.93 58.07 237.93 56.3 237.88 56.19 237.88 56.19 239.38 56.32 240.85 55.19 240.94 53.84 240.08 52.65 238.52 51.96 239.93 50.37 242.69 49.63 253.81 49.51 259.27 50.25 265.14 50.02 271.68 48.72 278.07 48.42 283.35 51.18 285.8 48.27 284.79 46 276.77 40.34 275.66 39.13 276.02 37.77 277.6 36.44 279.28 35.64 281.14 35.35 283.35 35.59 286.87 36.92 293.94 40.79 297.58 41.59 301.1 40.65 300.03 38.5 296.75 36.19 293.71 34.73 296.2 33.92 307.29 33.5 311.68 32.62 313.13 31.13 314.62 27.01 315.15 26.15 323.42 25.12 326.29 25.29 328.76 26.24 333.3 28.94 335.81 29.51 338.13 28.96 340.09 27.89 342.07 27.11 344.46 27.48 351.7 30.13 353.93 30.44 356.18 29.92 355.69 28.75 353.65 27.6 351.32 27.09 351.32 26.15 354.63 26.33 355.93 25.97 356.46 24.83 356.9 23.45 358 22.96 359.42 23.08 360.83 23.59 363.1 25.49 364.69 27.67 366.72 29.09 370.26 28.73 371.71 28.14 372.45 27.62 375.36 24.47 375.68 23.8 374.55 21.87 373.74 21.13 372.61 20.61 371.63 19.97 371.2 18.82 371.18 17.64 371.06 16.75 370.77 15.91 370.26 14.93 374.14 13.61 378.93 15.63 387.41 21.01 390.58 21.45 400.35 20.15 403.32 20.55 408.51 22.33 411.1 22.73 413.44 22.07 412.37 18.82 414.15 17.5 417.09 17.55 423.19 19.62 450.02 23.59 450.24 23.59 449.35 20.66 451.03 19.06 454.09 18.43 465.78 18.44 467.1 18.05 467.05 17.16 466.15 16.27 464.84 15.87 461.24 13.56 459.34 8.5 458.91 3.43 459.71 1.13 461.92 2.08 466.05 6.26 468.36 7.21 471.04 7.78 473.17 9.15 476.97 12.35 479.76 13.44 483.81 14.16 487.47 13.76 489.05 11.46 488.08 9.33 486.17 7.9 484.82 6.3 485.56 3.7 484.76 3.6 483.63 3.11 483.04 2.93 486.06 1 489.91 1.63 496.84 5.42 495.91 6.36 497.46 7.96 498.5 11.01 500.21 12.35 502.58 13.01 503.92 12.86 504.03 13.31 503.97 16.29 503.35 16.87 501.16 18.35 500.95 19.09 501.18 19.77 502.36 21.2 502.92 21.72 504.46 22.86 505.38 27.95 505.69 28.65 506.76 29.59 510.44 31.06 510.83 31.79 511.15 32.7 510.93 33.59 511.4 35.14 511.55 36.2 511.98 37.45 512.76 38.53 514.07 39.91 514.88 41.35 517.44 47.65 517.56 48.36 517.38 49.48 515.1 50.55 505.34 48.86 499.12 48.57 482.46 51.01 482.28 52.6 481.51 52.78 480.23 52.87 478.27 52.52 473.35 51.07 464.55 51.61 460.28 52.13 460.03 52.65 460.26 53.41 461.57 54.6 462.93 56.13 463.73 58.68 463.22 60.29 462.13 62.05 459.83 64.26 456.4 68.68 458.25 71.99 458.8 72.45 460.3 73.22 460.32 74.48 459.62 75.11 458.66 75.8 457.24 76.3 455.41 76.22 453.37 75.86 450.44 75.83 449.23 76.49 448.92 77.59 449.37 80.24 448.73 83.25 439.06 86.23 433.9 84.86 429.84 82.99 425.95 81.65 424.25 80.65 423.49 79.72 423.27 78.85 422.98 78.13 422.78 77.29 422.43 76.52 421.99 75.11 419.86 73.97 418.48 73.4 417.29 73.38 416.57 73.56 413.69 73.56 406.42 71.48 404.61 69.46 396.32 67.97 393.36 66.85 392.74 66.39 391.49 65.21 389.23 63.25 386.93 62.15 386.17 61.1 385.99 59.86 386.71 56.9 382 56.8 373.44 58.02 371.67 58.5 370.64 59.01 356.61 58.02 352.45 59.52 350.7 60.73 348.23 61.76 347.24 62.47 345.26 64.38 344.62 66.9 342.93 68.35 343.18 69.03 344 69.7 344.95 70.75 345.16 71.4 344.29 73.11 343.1 73.25 333.87 72.79 327.26 73.58 320.24 74.43 319.08 75.14 312.33 80.72 309.68 83.34 301.2 82.95 297.17 82.32 294.36 82.4 292.65 82.83 291.75 83.45 291.23 84.04 290.92 84.66 289.88 85.78 286.35 87.18 Z" fill-rule="evenodd" id="EST-1654" data-name="Harju"/>
<path d="M 737.39 88.12 737.2 88.28 726.01 93.46 710 100.9 706.04 108 705.97 108 644.85 102.17 644.17 102.11 640.56 101.94 639.63 101.71 638.73 101.37 637.04 100.03 633.86 99.06 630.74 98.73 629.53 98.76 627.89 98.99 624.56 99.79 621.79 99.8 620.66 99.92 619.81 100.18 618.81 100.12 618.07 99.46 617.45 97.52 616.92 94.83 616.22 94.2 616.15 93.55 615.83 93.05 615.83 92.58 612.69 90.8 617.2 88.96 621.08 88.18 621.95 87.71 622.42 87.17 622.5 86.31 622.77 85.4 623.47 84.36 625.28 83.4 626.2 82.73 626.22 81.94 624.78 80.18 624.74 73.1 625.07 71.2 625.97 70.54 634.36 67.86 641.05 67.35 642.14 67.04 642.62 66.43 642.38 65.74 642.16 65.32 641.2 64.44 642.3 60.81 641.61 60.1 640.31 59.49 636.51 59.34 634.79 58.96 632.49 57.66 631.68 56.53 630.33 53.21 621.7 54.69 620.84 54.54 619.16 53.89 617.55 52.47 618.31 49.55 623.55 44.09 624.74 42.5 624.31 41.84 623.2 41.59 618.02 41.18 616.89 41.28 615.58 41.26 614.56 41.05 613.55 40.32 613.39 39.97 613.73 39.58 615.93 38.78 617.96 37.65 617.31 35.1 617.86 34.62 618.62 34.07 619.59 33.8 620.39 33.78 621.35 34.09 623.2 35.18 624.17 34.44 623.55 31.54 623.65 30.09 623.04 28.75 621.04 26.26 620.64 25.53 620.57 24.98 621.08 24.04 622.27 22.37 622.47 22.14 628.26 25.36 634.39 26.52 639.63 28.22 642.17 28.73 664.59 29.74 684.54 29.12 701.36 28.5 720.72 30.99 740.05 31.61 759.67 34.06 764.87 33.19 769.74 31.48 773.47 29.12 777.97 24.75 780.43 27.11 786.06 28.63 788.75 30.09 791.71 33.83 792.89 34.98 794.37 35.88 797.6 37.3 799 38.17 798.42 40.54 795.37 39.54 789.84 41.87 779.65 42.31 775.66 43.34 784.77 45.2 787.75 45.14 785.2 46.92 770.52 46.77 763.51 48.79 760.8 50.64 761.86 52.85 759.7 55.55 755.79 65.01 748.5 75.56 746.34 78.23 740.97 83.44 739.58 86.27 737.39 88.12 Z" id="EST-1655" data-name="Ida-Viru"/>
<path d="M 515.1 50.55 515.64 51 515.02 51.95 514.18 52.94 514.07 53.75 514.38 54.13 515 54.52 515.9 54.82 517.85 56.88 519.39 58.35 518.51 59.73 518.98 60.67 522.23 61.97 526.75 62.81 525.84 65.67 522.43 68.2 520.85 69.99 516.76 72.4 516.56 74.75 515.36 77.15 515.72 77.87 516.82 78.09 520.21 77.93 521.92 78.09 525.1 78.92 527.84 79.1 529.54 79.62 532.72 83.05 535.27 83.53 538.92 86.34 541.37 87.61 542.95 89.35 544.57 91.73 545.04 93.17 545.25 94.34 545.11 95.28 544.78 96.31 544.04 98.01 543.71 99.43 540.38 100.84 539.71 101.23 539.03 101.82 538.55 102.64 538.39 103.24 539.21 104.8 538.7 105.94 530.81 106.28 528.29 106.38 527.07 106.66 525.6 107.16 524.59 107.78 521.49 108.29 520.07 109.05 519.56 110.43 519.52 111.65 519.19 112.81 518.82 113.7 515.27 115.21 512.8 114.19 510.25 114.46 506.41 116.2 505.3 116.44 503.78 117 502.79 117.69 501.77 119.2 500.79 120.24 497.19 122.3 496.41 124.22 490.86 125.47 481.62 127.15 479.08 128.13 476.88 128.74 468.76 130.22 466.58 131.73 462.76 131.29 458.17 133.14 453.79 133.77 442.64 133.6 440.09 132.9 437.17 132.62 431.29 131.31 433.43 126.54 433.88 124.93 434.4 124.18 435.12 123.36 435.57 122.67 435.55 121.97 434.4 121.22 432.28 120.62 428.28 120.43 423.91 119.7 426.51 116.29 426.82 115.33 426.41 113.69 424.34 111.6 423.95 110.8 424.45 110.13 426.16 109.53 429 109.06 429.88 108.56 430.6 107.84 431.57 106.14 432.73 105.12 433.64 103.6 431.46 101.98 429.49 101.39 428.9 100.86 428.71 100.4 431.25 97.03 433.35 96.16 434.42 95.94 435.73 95.48 436.62 94.67 436.84 93.33 436.84 92.07 436.62 90.74 435.76 90.12 434.91 89.65 434.65 89.02 434.81 88.64 439.06 86.23 448.73 83.25 449.37 80.24 448.92 77.59 449.23 76.49 450.44 75.83 453.37 75.86 455.41 76.22 457.24 76.3 458.66 75.8 459.62 75.11 460.32 74.48 460.3 73.22 458.8 72.45 458.25 71.99 456.4 68.68 459.83 64.26 462.13 62.05 463.22 60.29 463.73 58.68 462.93 56.13 461.57 54.6 460.26 53.41 460.03 52.65 460.28 52.13 464.55 51.61 473.35 51.07 478.27 52.52 480.23 52.87 481.51 52.78 482.28 52.6 482.46 51.01 499.12 48.57 505.34 48.86 515.1 50.55 Z" id="EST-1656" data-name="Järva"/>
<path d="M 612.69 90.8 615.83 92.58 615.83 93.05 616.15 93.55 616.22 94.2 616.92 94.83 617.45 97.52 618.07 99.46 618.81 100.12 619.81 100.18 620.66 99.92 621.79 99.8 624.56 99.79 627.89 98.99 629.53 98.76 630.74 98.73 633.86 99.06 637.04 100.03 638.73 101.37 639.63 101.71 640.56 101.94 644.17 102.11 644.85 102.17 705.97 108 706.04 108 701.56 116.04 703.85 121.75 703.83 121.75 668.43 125 661.41 125.93 659.86 126.38 658.3 127.07 656.27 128.24 654.73 128.81 653.5 129.14 652.47 129.18 651.71 129.59 651.32 130.46 652.26 133.95 651.69 135.19 648.69 135.07 647.11 134.65 642.31 134.21 636.38 131.76 632.67 131.33 630.1 136.56 626.35 140.33 614.94 141.78 610.55 140.75 609.09 140.13 607.85 140.2 606.42 141.02 604.43 143.88 602.95 145 602.5 145.17 601.94 145.28 597.3 145.1 592.56 144.21 588.24 142.92 583.91 143.86 582.24 144.48 581.61 144.45 579.37 143.4 576.16 143.76 573.39 145.43 572.07 145.77 571.03 145.38 570.21 144.45 569.22 143.78 567.41 143.6 565.03 144.06 553.96 148.34 551.76 148.87 549.16 149.25 545.44 149.13 540.92 149.97 532.48 146.34 528.54 143.76 528.02 142.78 527.14 141.71 526.01 140.92 522.05 140.88 520.46 140.59 519.1 139.72 518.18 138.93 517.6 138.11 517.21 137.21 515.49 136.44 513.93 135.93 502.84 135.07 500.79 135.23 498.09 134.96 494.26 135 493.1 134.6 492.9 133.84 493.93 132.85 495.24 132.27 497.52 131.62 498.24 131.04 498.5 130.01 497.68 128.33 497.44 125.14 496.41 124.22 497.19 122.3 500.79 120.24 501.77 119.2 502.79 117.69 503.78 117 505.3 116.44 506.41 116.2 510.25 114.46 512.8 114.19 515.27 115.21 518.82 113.7 519.19 112.81 519.52 111.65 519.56 110.43 520.07 109.05 521.49 108.29 524.59 107.78 525.6 107.16 527.07 106.66 528.29 106.38 530.81 106.28 538.7 105.94 539.21 104.8 538.39 103.24 538.55 102.64 539.03 101.82 539.71 101.23 540.38 100.84 543.71 99.43 553.96 98.03 561.4 95.79 563.91 95.49 565.85 95.8 569.18 98.32 575.94 99.63 581.15 98.43 581.59 97.81 581.75 97.29 581.79 95.28 587.83 92.95 590.56 93.07 592 93.68 594.53 93.87 596.54 93.62 601.53 92.25 608.18 90.82 609.44 90.69 612.69 90.8 Z" id="EST-1657" data-name="Jõgeva"/>
<path d="M 622.47 22.14 622.27 22.37 621.08 24.04 620.57 24.98 620.64 25.53 621.04 26.26 623.04 28.75 623.65 30.09 623.55 31.54 624.17 34.44 623.2 35.18 621.35 34.09 620.39 33.78 619.59 33.8 618.62 34.07 617.86 34.62 617.31 35.1 617.96 37.65 615.93 38.78 613.73 39.58 613.39 39.97 613.55 40.32 614.56 41.05 615.58 41.26 616.89 41.28 618.02 41.18 623.2 41.59 624.31 41.84 624.74 42.5 623.55 44.09 618.31 49.55 617.55 52.47 619.16 53.89 620.84 54.54 621.7 54.69 630.33 53.21 631.68 56.53 632.49 57.66 634.79 58.96 636.51 59.34 640.31 59.49 641.61 60.1 642.3 60.81 641.2 64.44 642.16 65.32 642.38 65.74 642.62 66.43 642.14 67.04 641.05 67.35 634.36 67.86 625.97 70.54 625.07 71.2 624.74 73.1 624.78 80.18 626.22 81.94 626.2 82.73 625.28 83.4 623.47 84.36 622.77 85.4 622.5 86.31 622.42 87.17 621.95 87.71 621.08 88.18 617.2 88.96 612.69 90.8 609.44 90.69 608.18 90.82 601.53 92.25 596.54 93.62 594.53 93.87 592 93.68 590.56 93.07 587.83 92.95 581.79 95.28 581.75 97.29 581.59 97.81 581.15 98.43 575.94 99.63 569.18 98.32 565.85 95.8 563.91 95.49 561.4 95.79 553.96 98.03 543.71 99.43 544.04 98.01 544.78 96.31 545.11 95.28 545.25 94.34 545.04 93.17 544.57 91.73 542.95 89.35 541.37 87.61 538.92 86.34 535.27 83.53 532.72 83.05 529.54 79.62 527.84 79.1 525.1 78.92 521.92 78.09 520.21 77.93 516.82 78.09 515.72 77.87 515.36 77.15 516.56 74.75 516.76 72.4 520.85 69.99 522.43 68.2 525.84 65.67 526.75 62.81 522.23 61.97 518.98 60.67 518.51 59.73 519.39 58.35 517.85 56.88 515.9 54.82 515 54.52 514.38 54.13 514.07 53.75 514.18 52.94 515.02 51.95 515.64 51 515.1 50.55 517.38 49.48 517.56 48.36 517.44 47.65 514.88 41.35 514.07 39.91 512.76 38.53 511.98 37.45 511.55 36.2 511.4 35.14 510.93 33.59 511.15 32.7 510.83 31.79 510.44 31.06 506.76 29.59 505.69 28.65 505.38 27.95 504.46 22.86 502.92 21.72 502.36 21.2 501.18 19.77 500.95 19.09 501.16 18.35 503.35 16.87 503.97 16.29 504.03 13.31 503.92 12.86 503.92 12.86 504.88 12.75 506.99 11.64 508.86 9.79 507.93 8.93 509.72 5.97 512.41 6.89 515.23 9.24 517.44 10.57 520.01 10.24 520.27 9.42 519.73 8.33 519.93 7.21 521.5 5.98 522.97 5.59 524.63 5.8 528.97 6.98 533.76 9.36 534.25 9.87 534.49 10.57 534.67 11.5 535.83 11.71 559.57 11.5 562 11.88 567.12 13.61 574.85 14.54 581.89 16.7 586.92 17.44 589.69 17.5 591.78 17.1 596.03 15.33 597.84 14.93 603.06 15.17 607.93 15.94 612.61 17.26 617.22 19.22 622.47 22.14 622.47 22.14 Z" id="EST-1658" data-name="Lääne-Viru"/>
<path d="M 715.25 186.42 710.15 186.69 691.7 183.47 689.69 183.8 688.56 183.88 687.22 183.84 685.85 183.67 684.51 183.32 683.45 182.8 682.91 180.52 680.61 179.21 669.5 179.27 667.57 178.51 666.68 177.85 666.13 177.76 665.14 177.81 663.22 179.12 661.65 179.45 659.12 179.26 655.57 178 654.26 177.84 652.74 178.31 650.74 180.73 650.02 181.36 649.61 181.61 647.09 181.75 643.78 179.97 638.07 180.53 637.17 180.21 635.73 180.13 634.42 180.4 632.92 181.04 630.98 183.18 629.9 185.26 626.41 187.14 618.6 188.53 614.84 188.5 614.48 188.01 613.16 187.01 612.11 186.97 610.67 187.4 609.21 188.55 608 189.2 606.73 189.31 604.88 188.77 604.3 188.92 604.28 189.62 604.55 190.6 604.74 191.74 604.61 192.81 603.56 193.89 602.72 194.45 599.13 195.35 597.05 193.2 595.88 192.52 593.22 191.53 592.04 190.75 589.64 189.79 582.47 190.99 580.76 191.5 578.41 191.95 577.01 192.09 574.54 190.54 573.31 189.95 571.95 188.82 570.4 188.85 568.87 189.43 563.88 192.61 561.68 193.63 559.63 193.96 556.78 195.04 554.43 195.7 533.38 194.8 530.05 182.74 529.27 173.16 532.43 169.47 536.74 165.42 545.17 159 545.19 158.06 540.92 149.97 545.44 149.13 549.16 149.25 551.76 148.87 553.96 148.34 565.03 144.06 567.41 143.6 569.22 143.78 570.21 144.45 571.03 145.38 572.07 145.77 573.39 145.43 576.16 143.76 579.37 143.4 581.61 144.45 582.24 144.48 583.91 143.86 588.24 142.92 592.56 144.21 597.3 145.1 601.94 145.28 602.5 145.17 602.95 145 604.43 143.88 606.42 141.02 607.85 140.2 609.09 140.13 610.55 140.75 614.94 141.78 626.35 140.33 630.1 136.56 632.67 131.33 636.38 131.76 642.31 134.21 647.11 134.65 648.69 135.07 651.69 135.19 652.26 133.95 651.32 130.46 651.71 129.59 652.47 129.18 653.5 129.14 654.73 128.81 656.27 128.24 658.3 127.07 659.86 126.38 661.41 125.93 668.43 125 703.83 121.75 703.85 121.75 706.41 128.14 712.64 143.71 719.68 161.2 712.05 170.71 710.63 177.11 712.2 183.03 715.25 186.42 Z" id="EST-1659" data-name="Tartu"/>
<path d="M 58.69 98.42 50.55 99.51 46.54 99.32 29.9 94.57 27.67 93.27 29.02 91.19 33.89 90.78 43.18 91.49 80.21 88.91 77.76 88.05 77.57 87.18 79.15 86.86 81.93 87.7 83.4 87.62 83.28 83.19 85.38 82.04 88.22 81.95 90.43 81.48 92.29 80.43 94.01 78.62 94.44 77.5 94.44 76.45 94.68 75.4 95.79 74.33 97.11 74.01 102.49 74.32 102.57 74.33 105.78 74.59 109.53 75.31 111.74 76.52 108.91 80.09 110.13 82.12 112.54 83.8 114.57 84.62 127.19 84.17 139.36 87.26 141.31 88.91 141.69 90.2 141.06 92.15 141.31 93.27 142.43 94.46 145.07 95.6 146.08 96.32 146.89 97.08 148.65 98.14 149.54 98.84 149.91 99.42 150.03 100.07 149.97 101.5 150.37 102.32 151.22 102.57 152.1 102.59 152.55 102.71 152.73 105.25 151.85 106.57 150.03 106.72 144.85 104.82 143.53 104.53 142.22 104.42 141.31 104.85 140.99 105.66 140.39 106.08 138.75 105.35 136.67 105.9 134.52 105.91 132.52 106.26 130.96 107.85 132.15 107.87 132.96 108.2 133.45 108.89 133.6 109.99 133.42 111.57 132.83 111.88 131.85 111.89 130.51 112.61 128.22 113.32 124.62 113.39 121.27 112.76 119.8 111.35 121.18 110.04 123.93 109.01 125.9 107.97 124.95 106.65 122.81 106.56 119.71 107.31 116.64 108.47 114.57 109.56 111.87 112.63 107.58 119.91 104.31 122.58 98.81 124.12 91.84 124.56 85.06 123.59 80.21 120.86 81.35 120.43 82.46 119.82 84.5 118.22 82.76 116.88 80.47 114.57 78.5 112.03 77.64 109.99 77.64 106.95 77.28 105.18 76.05 103.79 70.04 100.04 66.6 98.81 62.86 98.24 58.69 98.42 Z" id="EST-1660" data-name="Hiiu"/>
<path d="M 173.77 79.72 182.55 81.19 188.08 80.36 190.87 80.32 193.36 81.62 196.58 84.31 197.09 85.73 195.96 87.7 194.65 88.33 193.14 88.08 191.65 87.53 190.35 87.27 189.01 87.54 185.2 88.91 182.63 88.94 178.33 87.6 175.7 87.27 174.96 87.53 174.65 88.1 174.11 88.65 169.51 89.23 168.14 89.16 166.26 88.52 162.64 83.23 161.97 82.52 162.57 81.05 164.14 80.14 166.25 79.68 169.01 79.49 173.77 79.72 Z M 286.35 87.18 283.86 89.66 284.39 91.5 289.23 95.69 294.07 102.28 295.45 103.7 296.7 104.76 296.58 105.72 295.37 106.34 292.01 107.17 291.11 107.89 291.07 109.1 291.54 109.98 293.41 111.09 288.12 113.34 287.21 114.17 282.65 115.26 282.04 116.52 282.74 117.17 285.05 117.63 290.9 117.66 292.22 118.08 292.65 118.71 292.3 119.43 289.96 122.75 284.11 124.37 280.82 124.96 276.01 126.57 273.92 126.65 269.73 126.04 268.77 126.33 268.42 127.09 268.17 128.26 267.41 129.66 264.8 131.66 262.68 132.32 260.55 132.33 257.22 131.33 255.82 131.21 255.54 131.69 255.82 132.38 256.07 132.86 256.21 133.33 256.15 133.81 255.82 134.56 255.8 135.29 256.3 137.22 260.49 139.73 260.9 140.09 261.02 141.06 251.2 140.61 241.53 141.91 229.41 140.99 227.48 141.07 221.32 142.43 221.23 142.49 221.21 142.5 221.02 142.41 219.67 141.53 218.76 139.77 218.61 138.33 218.12 137.61 216.23 138.01 214.54 139.23 213.54 140.57 212.49 141.19 210.62 140.2 210.19 138.98 210.99 137.63 212.13 136.27 212.73 135.02 212 132.68 210.56 129.57 209.58 126.27 210.15 123.36 211.25 122.25 212.3 122.09 214.94 122.58 215.86 122.32 216.29 121.72 216.24 121.14 214.21 120.06 213.87 118.39 214.59 116.97 216.23 116.93 221.04 118.17 225.73 117.73 230.4 116.79 235.18 116.51 237.64 117.03 242.49 118.71 244.57 119.08 248.43 119.08 248.79 118.68 248.95 117.79 248.72 116.9 248 116.51 246.02 115.92 245.54 114.59 246.29 113.14 248.05 112.21 250.14 112.31 255.04 113.73 257.45 113.93 254.07 111.85 250.08 110.38 246.13 110.25 242.79 112.21 240.51 110.62 237.95 110.49 232.6 111.35 223.42 111.02 220.52 111.35 218.01 112.15 216.73 112.77 215.8 113.47 215.04 113.58 211.05 112.99 208.62 113.22 201.58 114.79 206.24 110.28 208.64 109.16 212.8 108.78 213.72 107.89 205.87 102.31 204.79 99.95 200.69 96.72 200.64 94.21 203.36 92.28 211.7 92.59 214.44 90.69 216.61 91.43 218.84 91.52 221.04 91.09 225.09 89.31 226.11 88.7 226.47 87.87 226.52 86.34 225.71 83.33 223.68 81.15 220.92 79.64 217.95 78.62 219.51 80.26 223.23 82.18 224.81 83.84 223.74 84.19 221.43 84.32 220.52 84.62 217.95 86.34 217.77 86.77 217.79 87.52 217.09 88.91 215.87 89.04 215.1 88.48 214.45 87.7 213.66 87.27 205.57 86.21 202.25 84.78 198.93 82.04 199.79 82.12 201.58 82.01 202.43 82.04 201.54 79.78 202.26 78.21 207.96 74.75 209.27 74.17 210.59 74.53 212.73 76.05 212.87 69.56 208.7 63.39 206.78 58.61 213.66 56.32 215.06 56.41 217.69 56.97 219.18 57.1 220.29 56.83 222.09 55.66 224.94 54.89 226.47 53.85 228.25 52.93 230.82 52.82 237.5 56.16 237.88 56.19 237.93 56.3 239.93 58.07 243.95 59.35 245.47 60.52 247.61 63.15 248.96 63.84 252.93 64.44 255.7 65.18 257.47 65.96 261.7 68.76 264.66 69.15 265.95 69.01 269.22 68.33 275.97 68.05 282.45 69.4 287.68 71.83 288.05 72.44 288.24 73.38 288.09 74.28 288.57 75.51 289.86 76.34 291.25 77.06 291.79 77.58 291.79 77.96 291.38 78.43 286.45 82.25 285.69 82.99 284.85 83.97 284.46 85.17 284.46 85.78 284.91 86.34 286.35 87.18 Z" fill-rule="evenodd" id="EST-1661" data-name="Lääne"/>
<path d="M 273.54 197.21 269.55 198.34 266.12 196.63 265.44 193.6 267.62 191.78 271.25 191.11 274.91 191.56 276.01 194.53 273.54 197.21 Z M 221.21 142.5 221.23 142.49 221.32 142.43 227.48 141.07 229.41 140.99 241.53 141.91 251.2 140.61 261.02 141.06 260.9 140.09 260.49 139.73 256.3 137.22 255.8 135.29 255.82 134.56 256.15 133.81 256.21 133.33 256.07 132.86 255.82 132.38 255.54 131.69 255.82 131.21 257.22 131.33 260.55 132.33 262.68 132.32 264.8 131.66 267.41 129.66 268.17 128.26 268.42 127.09 268.77 126.33 269.73 126.04 273.92 126.65 276.01 126.57 280.82 124.96 284.11 124.37 289.96 122.75 293.52 124.35 309.02 125.95 318.88 126.66 325.31 125.82 327.18 125.23 328.35 124.63 328.88 124.15 329.65 122.58 330.45 121.73 331.19 121.14 335.09 119.32 339.16 118.35 340.63 118.41 342.52 118.69 342.98 119.16 342.85 119.95 342.81 120.62 344.15 121.5 345.87 121.47 349.94 120.59 355.42 119.92 359.96 116.5 364.21 116.62 372 117.73 375.2 117.47 378.35 116.76 380.69 116.66 383.75 117.07 385.18 117.67 385.95 118.44 386.3 120.46 387.43 123.41 387.78 125.23 388.29 126.41 390.93 125.86 395.29 122.79 397.28 121.77 399.83 120.8 401.78 120.38 402.5 120.39 404.66 120.67 406.01 120.62 406.48 120.45 406.71 119.39 415.13 120.39 419.05 120.31 423.91 119.7 428.28 120.43 432.28 120.62 434.4 121.22 435.55 121.97 435.57 122.67 435.12 123.36 434.4 124.18 433.88 124.93 433.43 126.54 431.29 131.31 427.99 132.21 427.07 133.03 426.86 133.93 427.29 134.83 427.87 135.73 427.95 137 426.63 137.57 421.67 138.55 419.88 139.47 418.27 140.88 416.61 141.91 411.33 143.99 402.85 146.08 398.16 148.78 397.26 149.81 397.49 150.18 398.97 151.81 399.58 153.21 399.65 156.22 396.01 157.69 395.42 159.22 395.88 162.01 394.99 164.73 393.16 168.61 394.66 170.19 395.4 170.54 397.61 170.85 401.52 168.81 403.3 168.91 404.02 169.3 413.96 170.33 415.77 170.79 420.7 173.15 428.11 175.7 429.61 176.49 430.15 177.72 427.93 179.1 427.89 179.75 428.07 180.74 428.2 185.13 427.68 185.68 426.92 185.75 426.24 185.19 424.74 184.66 417.94 185.5 416.87 186.18 416.06 187.09 416.28 188.15 416.75 189.16 416.61 190.21 416.06 190.6 415.17 190.45 414.04 190.12 412.58 190.05 410.82 191 410.16 191.75 410.22 192.33 410.8 192.73 412.01 193.24 412.52 193.58 413.14 194.16 412.93 195.01 411.76 195.25 409.96 195.19 408.09 194.95 406.38 195.1 405.64 195.6 405.35 196.3 404.68 197.25 403.42 197.89 401.19 198.64 400.26 199.4 400.1 200.14 400.76 200.75 401.23 201.31 401.48 201.97 401.6 202.7 401.82 203.33 402.19 203.86 403.15 204.7 403.19 204.74 395.66 208.85 392.45 210.04 382.81 210.79 379.77 211.83 377.14 213.12 375.81 213.77 372.54 213.48 369.27 212.36 365.35 211.82 363.51 213.12 361.2 216.6 359.24 217.43 351.6 217.88 346.38 217.62 342.79 217.45 340.27 217.74 333.68 220.98 328.69 222.39 327.12 223.36 325.06 226.34 323.66 227.61 320.72 228.5 317.14 228.6 311.68 227.4 311.68 227.4 311.68 227.39 313 226.26 313.97 225.06 314.41 223.64 314.71 222.13 315.15 220.72 321.09 212.87 323.25 207.92 329.31 204 331.52 201.78 331.52 195.7 332.44 192.95 332.62 191.41 331.95 190.09 330.98 188.93 330.38 187.58 330.35 186.17 331.95 183.48 332.02 182.11 331.96 180.73 332.38 179.33 334.95 177.48 338.72 176.17 342.12 174.51 343.61 171.62 342.43 168.93 339.64 166.81 329.01 162.35 323.86 161.19 318.67 160.95 314.3 162.1 312.91 163.13 311.47 164.62 310.37 166.26 309.93 167.76 309.75 169.71 309.26 170.84 305.36 174.48 303.79 175.65 301.97 176.42 299.7 176.76 295.1 176.08 292.82 176.08 290.68 177.19 288.41 180.05 287.25 180.57 285.04 180.11 283.72 179.34 279.91 175.9 274.12 173.1 270.75 170.85 262.41 168.98 257.37 168.75 254.98 168.19 254.32 167.8 252.93 166.71 252.32 166.39 251.18 166.31 250.42 166.67 249.72 167.1 248.82 167.33 247.69 167.04 246.46 166.5 245.24 166.26 244.1 166.86 243.35 167.59 242.54 168.14 241.65 168.26 240.7 167.76 239.93 166.71 239.23 165.27 238.73 163.76 238.52 162.53 237.93 160.66 236.5 159.68 234.82 158.96 233.46 157.82 232.72 156.18 232.73 154.89 233.46 151.81 233.59 148.09 232.91 145.02 231.01 143.5 227.38 144.48 225.81 144.39 223.4 143.53 221.21 142.5 Z" fill-rule="evenodd" id="EST-2346" data-name="Pärnu"/>
<path d="M 715.25 186.42 717.81 189.27 722.8 195.04 729.17 199.75 729.94 203.41 729.13 206.7 729.31 210.32 731.71 210.83 734.02 211.85 734.79 214.89 734.19 216.5 733.28 217.88 732.8 219.33 733.5 221.09 734.53 221.79 747.25 224.57 749.31 225.81 750.38 228.29 748.81 229.99 745.87 231.1 737.99 232.84 719.86 234.32 719.77 234.28 718.55 233.72 706.41 231.11 699.5 230.39 695.13 230.97 690.35 232.28 687.47 232 685.54 230.28 684.71 229.93 683.71 229.95 682.62 230.13 681.74 229.98 681.29 229.3 682.11 227.66 683.3 226.42 687.55 224.39 687.2 222.57 685.27 221.2 684.41 221.1 683.53 221.41 682.97 221.83 682.23 222.13 680.96 222.15 679.05 221.84 672 219.98 663.92 216.91 661.92 216.23 660.77 216.19 659.41 216.3 657.13 216.79 655.29 217.69 655.94 220.69 654.9 221.16 640.95 218.32 637.5 219.02 634.48 219.55 631.79 219.13 620.72 219.61 616.83 218.58 610.12 217.8 607.2 218.39 604.06 218.61 600.32 218.35 598.37 217.99 597.1 217.44 592.25 216.41 592.76 209.89 593.79 208.32 594.22 206.09 593.91 203.6 594.11 202.25 594.01 201.26 595.39 198.59 596.21 197.25 596.62 196.8 599.13 195.35 602.72 194.45 603.56 193.89 604.61 192.81 604.74 191.74 604.55 190.6 604.28 189.62 604.3 188.92 604.88 188.77 606.73 189.31 608 189.2 609.21 188.55 610.67 187.4 612.11 186.97 613.16 187.01 614.48 188.01 614.84 188.5 618.6 188.53 626.41 187.14 629.9 185.26 630.98 183.18 632.92 181.04 634.42 180.4 635.73 180.13 637.17 180.21 638.07 180.53 643.78 179.97 647.09 181.75 649.61 181.61 650.02 181.36 650.74 180.73 652.74 178.31 654.26 177.84 655.57 178 659.12 179.26 661.65 179.45 663.22 179.12 665.14 177.81 666.13 177.76 666.68 177.85 667.57 178.51 669.5 179.27 680.61 179.21 682.91 180.52 683.45 182.8 684.51 183.32 685.85 183.67 687.22 183.84 688.56 183.88 689.69 183.8 691.7 183.47 710.15 186.69 715.25 186.42 Z" id="EST-2347" data-name="Põlva"/>
<path d="M 439.06 86.23 434.81 88.64 434.65 89.02 434.91 89.65 435.76 90.12 436.62 90.74 436.84 92.07 436.84 93.33 436.62 94.67 435.73 95.48 434.42 95.94 433.35 96.16 431.25 97.03 428.71 100.4 428.9 100.86 429.49 101.39 431.46 101.98 433.64 103.6 432.73 105.12 431.57 106.14 430.6 107.84 429.88 108.56 429 109.06 426.16 109.53 424.45 110.13 423.95 110.8 424.34 111.6 426.41 113.69 426.82 115.33 426.51 116.29 423.91 119.7 419.05 120.31 415.13 120.39 406.71 119.39 406.48 120.45 406.01 120.62 404.66 120.67 402.5 120.39 401.78 120.38 399.83 120.8 397.28 121.77 395.29 122.79 390.93 125.86 388.29 126.41 387.78 125.23 387.43 123.41 386.3 120.46 385.95 118.44 385.18 117.67 383.75 117.07 380.69 116.66 378.35 116.76 375.2 117.47 372 117.73 364.21 116.62 359.96 116.5 355.42 119.92 349.94 120.59 345.87 121.47 344.15 121.5 342.81 120.62 342.85 119.95 342.98 119.16 342.52 118.69 340.63 118.41 339.16 118.35 335.09 119.32 331.19 121.14 330.45 121.73 329.65 122.58 328.88 124.15 328.35 124.63 327.18 125.23 325.31 125.82 318.88 126.66 309.02 125.95 293.52 124.35 289.96 122.75 292.3 119.43 292.65 118.71 292.22 118.08 290.9 117.66 285.05 117.63 282.74 117.17 282.04 116.52 282.65 115.26 287.21 114.17 288.12 113.34 293.41 111.09 291.54 109.98 291.07 109.1 291.11 107.89 292.01 107.17 295.37 106.34 296.58 105.72 296.7 104.76 295.45 103.7 294.07 102.28 289.23 95.69 284.39 91.5 283.86 89.66 286.35 87.18 289.88 85.78 290.92 84.66 291.23 84.04 291.75 83.45 292.65 82.83 294.36 82.4 297.17 82.32 301.2 82.95 309.68 83.34 312.33 80.72 319.08 75.14 320.24 74.43 327.26 73.58 333.87 72.79 343.1 73.25 344.29 73.11 345.16 71.4 344.95 70.75 344 69.7 343.18 69.03 342.93 68.35 344.62 66.9 345.26 64.38 347.24 62.47 348.23 61.76 350.7 60.73 352.45 59.52 356.61 58.02 370.64 59.01 371.67 58.5 373.44 58.02 382 56.8 386.71 56.9 385.99 59.86 386.17 61.1 386.93 62.15 389.23 63.25 391.49 65.21 392.74 66.39 393.36 66.85 396.32 67.97 404.61 69.46 406.42 71.48 413.69 73.56 416.57 73.56 417.29 73.38 418.48 73.4 419.86 73.97 421.99 75.11 422.43 76.52 422.78 77.29 422.98 78.13 423.27 78.85 423.49 79.72 424.25 80.65 425.95 81.65 429.84 82.99 433.9 84.86 439.06 86.23 Z" id="EST-2348" data-name="Rapla"/>
<path d="M 599.13 195.35 596.62 196.8 596.21 197.25 595.39 198.59 594.01 201.26 594.11 202.25 593.91 203.6 594.22 206.09 593.79 208.32 592.76 209.89 592.25 216.41 577.87 217.55 573.68 218.35 573.25 218.98 573.14 220.01 573.22 221.14 572.53 222.75 571.09 224.04 570.23 224.96 570.23 226.05 573.78 226.52 574.99 227.88 573.37 230.27 573.53 230.86 573.76 234.82 577.09 236.37 580.6 236.98 581.69 237.95 581.85 238.87 581.17 240.56 580.31 241.31 579.08 241.74 578.2 242.27 578.2 242.97 578.84 243.93 579.11 245.2 580.07 246.03 581.61 246.69 583.09 247.47 583.27 248.44 582.74 249.31 580.27 250.56 577.85 252.75 578.1 253.21 579.67 254.33 582.37 255.9 582.37 256.58 581.94 257.33 580.83 257.94 578.55 258.85 577.81 259.51 577.91 259.99 578.45 260.73 578.92 261.26 578.16 264.03 578.48 265.84 578.49 265.88 568.53 263.56 566.93 263.19 561.73 261.19 557.46 258.46 545.57 248.01 541.39 245.41 527.51 239.18 526.42 237.63 526.05 235.04 526.42 233.89 527.14 233.15 527.58 232.39 527.16 231.2 526.23 230.58 524.75 230.19 498.36 228.93 495.21 227.3 493.6 224.8 492.43 222.25 490.53 220.5 488.61 220.46 487.21 220.72 482.47 221.6 480.46 221.97 477.32 222.11 474.36 221.87 471.58 220.96 468.93 219.1 468.26 218.11 468.16 217.27 468.12 217.14 470.53 214.72 471.29 213.48 472.21 212.42 475.31 209.58 475.6 208.46 475.46 207.27 475.58 206.27 476.77 205.62 479.96 205.33 481.88 205.52 484 205.31 486.04 204.53 489.67 202.29 494.3 200.27 501.16 198.45 502.03 197.8 502.49 196.94 501.91 196.28 501.81 195.7 502.16 194.94 503.06 194.35 504.81 193.56 505.1 193 505.26 192.41 505.98 191.85 507.52 191.99 510.81 193.24 512.51 194.6 514.09 196.28 515.6 197.17 519.5 197.2 522.07 196.5 533.38 194.8 554.43 195.7 556.78 195.04 559.63 193.96 561.68 193.63 563.88 192.61 568.87 189.43 570.4 188.85 571.95 188.82 573.31 189.95 574.54 190.54 577.01 192.09 578.41 191.95 580.76 191.5 582.47 190.99 589.64 189.79 592.04 190.75 593.22 191.53 595.88 192.52 597.05 193.2 599.13 195.35 Z" id="EST-2349" data-name="Valga"/>
<path d="M 540.92 149.97 545.19 158.06 545.17 159 536.74 165.42 532.43 169.47 529.27 173.16 530.05 182.74 533.38 194.8 522.07 196.5 519.5 197.2 515.6 197.17 514.09 196.28 512.51 194.6 510.81 193.24 507.52 191.99 505.98 191.85 505.26 192.41 505.1 193 504.81 193.56 503.06 194.35 502.16 194.94 501.81 195.7 501.91 196.28 502.49 196.94 502.03 197.8 501.16 198.45 494.3 200.27 489.67 202.29 486.04 204.53 484 205.31 481.88 205.52 479.96 205.33 476.77 205.62 475.58 206.27 475.46 207.27 475.6 208.46 475.31 209.58 472.21 212.42 471.29 213.48 470.53 214.72 468.12 217.14 467.92 216.45 466.84 215.51 465.62 215.06 461.19 214.54 456.23 212.85 451.53 209.81 448.63 207.93 443.59 206.48 442.32 206.52 441.5 206.75 440.72 206.85 439.58 206.48 438.79 205.74 437.3 203.47 436.44 202.6 434.19 201.62 431.91 201.41 430.3 202.24 430.16 204.41 433.67 207.82 434.53 209.82 432.04 211.57 428.02 212.68 426.04 212.68 424.2 211.85 422.67 209.15 421.51 206.05 419.79 203.47 416.53 202.3 410.65 202.39 407.69 202.85 404.95 203.79 403.19 204.74 403.15 204.7 402.19 203.86 401.82 203.33 401.6 202.7 401.48 201.97 401.23 201.31 400.76 200.75 400.1 200.14 400.26 199.4 401.19 198.64 403.42 197.89 404.68 197.25 405.35 196.3 405.64 195.6 406.38 195.1 408.09 194.95 409.96 195.19 411.76 195.25 412.93 195.01 413.14 194.16 412.52 193.58 412.01 193.24 410.8 192.73 410.22 192.33 410.16 191.75 410.82 191 412.58 190.05 414.04 190.12 415.17 190.45 416.06 190.6 416.61 190.21 416.75 189.16 416.28 188.15 416.06 187.09 416.87 186.18 417.94 185.5 424.74 184.66 426.24 185.19 426.92 185.75 427.68 185.68 428.2 185.13 428.07 180.74 427.89 179.75 427.93 179.1 430.15 177.72 429.61 176.49 428.11 175.7 420.7 173.15 415.77 170.79 413.96 170.33 404.02 169.3 403.3 168.91 401.52 168.81 397.61 170.85 395.4 170.54 394.66 170.19 393.16 168.61 394.99 164.73 395.88 162.01 395.42 159.22 396.01 157.69 399.65 156.22 399.58 153.21 398.97 151.81 397.49 150.18 397.26 149.81 398.16 148.78 402.85 146.08 411.33 143.99 416.61 141.91 418.27 140.88 419.88 139.47 421.67 138.55 426.63 137.57 427.95 137 427.87 135.73 427.29 134.83 426.86 133.93 427.07 133.03 427.99 132.21 431.29 131.31 437.17 132.62 440.09 132.9 442.64 133.6 453.79 133.77 458.17 133.14 462.76 131.29 466.58 131.73 468.76 130.22 476.88 128.74 479.08 128.13 481.62 127.15 490.86 125.47 496.41 124.22 497.44 125.14 497.68 128.33 498.5 130.01 498.24 131.04 497.52 131.62 495.24 132.27 493.93 132.85 492.9 133.84 493.1 134.6 494.26 135 498.09 134.96 500.79 135.23 502.84 135.07 513.93 135.93 515.49 136.44 517.21 137.21 517.6 138.11 518.18 138.93 519.1 139.72 520.46 140.59 522.05 140.88 526.01 140.92 527.14 141.71 528.02 142.78 528.54 143.76 532.48 146.34 540.92 149.97 Z" id="EST-2350" data-name="Viljandi"/>
<path d="M 719.86 234.32 717.51 234.51 715.88 235.04 716.88 235.32 719.55 236.62 716.07 237.56 714.35 238.31 713.09 239.41 712.52 241.53 713.9 245.07 713.76 246.66 711.58 247.94 701.2 249.9 699.15 251.01 698.3 251.74 697.68 252.73 697.34 253.96 697.46 254.59 697.74 255.08 698.07 256.75 698.36 257.16 698.59 257.61 698.33 260.2 697.98 260.74 697.07 261.35 695.52 261.76 693.81 261.82 692.27 262.12 691.19 263.19 691.25 264.77 692.14 266.87 693.32 268.85 694.32 270.17 690.18 271.61 670.8 267.77 660.71 267.43 657.72 266.65 655.18 265.04 650.58 261.21 647.62 259.95 643.28 259.15 641.1 259.12 638.89 259.39 636.95 259.2 635.54 258.3 634 257.66 631.68 258.25 629.72 259.84 628.43 261.7 626.93 263.44 624.34 264.68 622.12 265.04 612.38 264.75 608.17 265.49 604.07 266.8 600.36 268.57 599.55 269.39 599.11 270.31 598.51 271.08 597.23 271.4 596.02 271.18 593.7 270.27 592.5 270.1 590.8 270.64 589.09 271.47 587.14 271.65 584.82 270.23 580.61 266.99 578.52 265.89 578.49 265.88 578.48 265.84 578.16 264.03 578.92 261.26 578.45 260.73 577.91 259.99 577.81 259.51 578.55 258.85 580.83 257.94 581.94 257.33 582.37 256.58 582.37 255.9 579.67 254.33 578.1 253.21 577.85 252.75 580.27 250.56 582.74 249.31 583.27 248.44 583.09 247.47 581.61 246.69 580.07 246.03 579.11 245.2 578.84 243.93 578.2 242.97 578.2 242.27 579.08 241.74 580.31 241.31 581.17 240.56 581.85 238.87 581.69 237.95 580.6 236.98 577.09 236.37 573.76 234.82 573.53 230.86 573.37 230.27 574.99 227.88 573.78 226.52 570.23 226.05 570.23 224.96 571.09 224.04 572.53 222.75 573.22 221.14 573.14 220.01 573.25 218.98 573.68 218.35 577.87 217.55 592.25 216.41 597.1 217.44 598.37 217.99 600.32 218.35 604.06 218.61 607.2 218.39 610.12 217.8 616.83 218.58 620.72 219.61 631.79 219.13 634.48 219.55 637.5 219.02 640.95 218.32 654.9 221.16 655.94 220.69 655.29 217.69 657.13 216.79 659.41 216.3 660.77 216.19 661.92 216.23 663.92 216.91 672 219.98 679.05 221.84 680.96 222.15 682.23 222.13 682.97 221.83 683.53 221.41 684.41 221.1 685.27 221.2 687.2 222.57 687.55 224.39 683.3 226.42 682.11 227.66 681.29 229.3 681.74 229.98 682.62 230.13 683.71 229.95 684.71 229.93 685.54 230.28 687.47 232 690.35 232.28 695.13 230.97 699.5 230.39 706.41 231.11 718.55 233.72 719.77 234.28 719.86 234.32 Z" id="EST-2351" data-name="Võru"/>
<path d="M 181.57 237.77 179.07 237.92 176.46 237 174.99 235.84 175.09 234.77 175.34 233.74 175.81 232.98 177.73 233.13 180.36 234.26 181.64 234.98 182.19 236.12 181.57 237.77 Z M 102.53 136.89 103.45 137.16 104.72 136.89 106.92 135.7 107.72 135.45 110.3 135.85 112.38 136.59 114.53 136.99 117.25 136.38 121.36 133.63 123.95 132.61 128.35 133.8 135.04 132.95 137.85 133.3 140.61 134.21 146.35 135.27 152.22 137.48 159.08 139.14 161.62 141.05 163.44 143.64 164.41 144.41 166.26 145.34 171.33 146.74 176.61 147.44 179.68 148.04 183.88 149.53 187.62 151.51 189.49 153.53 188.45 155.3 180.47 152.33 177.49 153.53 179.07 153.76 180.51 154.13 181.72 154.83 182.55 156.02 177.14 155.6 174.73 154.85 172.26 153.53 171.78 152.93 171.28 152.04 170.48 151.23 169.23 150.88 167.3 150.87 167.08 151.13 166.35 151.81 166.1 152.27 165.43 154.1 164.98 154.82 164.02 155.64 163.16 156.12 161.29 156.96 160.44 156.89 159.26 156.65 158.22 156.89 157.76 158.28 157.82 159.05 157.97 159.86 158.22 160.61 158.54 161.24 155.65 162.44 152.98 164.19 150.4 165.23 144.82 162.91 141.97 162.99 141.05 164.05 143.81 165.61 135.42 171.68 133.45 172.24 131.43 172.58 129.31 173.33 125.65 175.78 123.93 176.5 121.09 176.76 115.36 176.45 112.63 176.89 111.24 178.47 117.08 180.42 112.87 182.53 106.1 183.03 104.31 180.11 102.41 179.42 100.09 179.1 97.73 179.18 95.67 179.72 93.76 180.77 93 181.31 92.42 181.05 91.01 179.72 89.24 178.94 88.13 179.77 87.06 181.91 86.16 182.31 85.75 182.6 85.37 182.77 84.5 182.83 84.45 182.4 83.79 180.51 83.71 180.11 81.94 180.06 79.74 180.59 77.69 181.45 76.35 182.37 75.01 183.01 73.54 182.71 72.09 182.24 70.77 182.37 69.84 182.78 67.45 183.5 66.48 183.62 62.67 184.9 59.11 186.62 57.47 187.92 56.56 188.33 56.18 188.96 55.94 193.63 55.38 196.39 54.31 199.13 50.84 204.29 49.81 205.45 48.4 206.46 47.16 207.57 46.97 208.79 47.54 211.6 45.91 212.87 28.12 221.5 24.17 221.58 20.81 218.93 21.35 217.47 20.89 216.09 19.64 215.05 17.88 214.65 17.55 214.44 17.36 213.95 17.31 213.36 17.45 212.85 20.77 213.01 21.75 212.85 22.63 211.98 23.99 209.33 24.73 208.18 29.45 204.27 31.62 201.63 32.82 200.47 34.13 199.99 35.95 200.29 37.57 200.85 39.07 201.21 40.6 200.85 41.29 200.01 42.02 197.39 42.78 196.16 47.54 192.27 44.7 190.64 39.87 189.56 31.13 188.76 28.71 187.41 24.17 181.47 21.28 180.11 13.12 180.06 9.05 179.36 5.46 177.61 3.38 175.44 2.43 173.97 2.37 172.9 3.92 172.3 10.53 173.33 9.07 171.42 6.93 169.46 6.14 167.94 8.81 167.33 11.05 168.17 13.06 169.8 15.09 170.81 17.45 169.83 16.39 167.63 18.04 166.31 20.86 165.9 23.46 166.39 22.33 164.95 20.81 162.25 15.27 156.55 12.57 154.71 9.64 152.02 7.95 150.88 4.39 149.07 1 146.67 7.61 148.28 9.67 148.3 11.54 147.9 11.81 147.46 11.87 146.8 13.07 145.74 17.86 145.84 21.5 146.48 24.66 148.14 30.12 153.49 30.82 154.77 31.1 156.49 31.29 157.23 31.82 157.62 32.52 157.78 33.28 157.82 34.42 157.33 34.44 156.24 33.75 154.39 34.46 151.09 35.07 149.66 36.32 148.3 37.98 147.47 42.01 146.34 43.64 145.34 45.07 143.59 45.63 142.66 46.49 142.29 48.79 142.23 49.13 142.5 49.56 143.15 49.96 143.9 50.12 144.48 50.29 145.99 50.79 146.72 52.61 147.44 56.36 147.8 57.58 145.28 57.71 141.83 58.26 139.34 62.49 137.4 80.21 136.38 91.16 131.77 95.29 131.16 96.66 131.83 98.99 134.77 100.39 135.45 101.19 135.71 102.53 136.89 Z M 191.36 132.33 191.09 133.52 191.28 134.59 192.31 135.7 194.61 137.2 195.57 138.01 197.52 140.05 197.91 141.09 195.35 142.08 194.31 143.18 193.12 143.97 191.21 143.59 189.2 142.84 187.04 142.44 182.63 142.23 180.88 142.54 177.14 143.7 175.75 143.59 164.55 138.01 158.1 136.68 155.09 135.06 155.53 132.4 157.12 131.74 160.97 132.45 162.83 131.93 163.16 131.26 164.02 128.65 164.55 127.73 167.06 125.95 169.72 125.31 172.48 125.37 183.85 127.14 189.12 128.83 190.81 129.87 191.49 131.09 191.36 132.33 Z" fill-rule="evenodd" id="EST-2352" data-name="Saare"/>
</g>
</svg>