<?xml version="1.0"?>
<svg xmlns="http://www.w3.org/2000/svg" version="1.2" baseProfile="tiny" width="800" height="266" viewBox="0 0 800 266" stroke-linecap="round" stroke-linejoin="round">
<g id="ne_10m_admin_1_states_provinces">
<path d="M 84.42 65.57 84.5 65.82 84.44 67.93 84.29 68.51 84.2 68.59 83.76 68.89 83.46 69.2 83.2 69.56 83.11 69.79 83.07 70 83.1 70.29 83.13 70.38 83.15 70.84 83.12 71.36 83.14 71.65 83.2 71.85 83.29 71.94 83.4 72.03 83.72 72.23 83.83 72.39 83.92 72.63 84.01 73.1 84.01 73.36 83.99 73.58 83.84 73.98 83.56 74.53 83.29 75.28 83.27 75.53 83.32 75.7 83.43 75.75 83.58 75.77 83.9 75.75 84.06 75.76 84.18 75.79 84.5 76.03 84.64 76.06 84.79 76.04 84.92 75.99 85.15 75.86 85.28 75.82 85.41 75.8 85.52 75.85 85.75 75.97 85.88 76.01 86.04 76.02 86.2 76.04 86.36 76.15 86.56 76.49 86.65 76.78 86.69 77.03 86.67 77.21 86.64 77.36 86.59 77.49 86.43 77.82 86.36 78.2 86.4 78.5 86.55 78.98 86.58 79.22 86.57 79.42 86.48 79.84 86.4 81 86.58 81.6 86.55 81.77 86.43 82.02 86.31 82.15 85.83 82.48 85.65 82.57 85.51 82.63 85.36 82.66 85.2 82.64 85.05 82.6 84.89 82.58 84.69 82.57 84.48 82.6 84.16 82.7 83.95 82.85 83.71 83.14 83.56 83.19 83.44 83.17 83 82.87 82.75 82.76 82.43 82.71 82.1 82.69 81.95 82.66 81.84 82.6 81.51 82.25 81.29 82.12 81.14 82.12 81.03 82.19 80.97 82.31 80.82 82.47 80.58 82.67 80.05 83.01 79.83 83.21 79.71 83.41 79.72 83.57 79.75 83.73 79.77 83.89 79.69 84.1 79.51 84.33 78.87 84.84 78.73 85.01 78.59 85.34 78.47 85.56 78.33 85.64 78.17 85.65 77.98 85.61 77.69 85.61 77.56 85.69 77.51 85.83 77.47 86.19 77.41 86.41 77.17 86.88 77.13 87.06 77.14 87.71 77.11 87.86 77.01 88.04 76.44 88.88 76.34 89.07 76.28 89.22 76.17 89.84 76.16 90.18 76.12 90.56 76.03 90.8 76.01 90.99 76.06 91.31 76.06 91.47 76.03 91.67 75.98 91.85 75.86 92.1 75.81 92.28 75.79 92.45 75.81 92.6 75.79 92.84 75.7 93.13 75.23 93.99 75.15 94.23 75.09 94.53 75.09 94.86 75.01 95.5 74.95 95.63 74.82 95.87 74.71 96.13 74.68 96.27 74.66 96.66 74.63 96.95 74.5 97.16 74.38 97.3 73.75 97.79 74.08 98.52 74.5 98.93 74.62 99.17 74.9 100.8 74.88 100.98 74.82 101.3 74.44 102.46 74.32 102.68 74.17 102.8 73.85 102.85 73.69 102.86 73.39 102.91 73.26 102.97 73.16 103.05 72.92 103.46 72.76 103.63 72.71 103.79 72.73 103.93 73 104.56 73.11 104.94 73.1 105.15 73.06 105.31 72.96 105.4 72.86 105.56 72.75 105.78 72.59 106.22 72.48 106.43 72.34 106.54 72.17 106.57 71.99 106.61 71.78 106.74 71.71 106.89 71.71 107.04 71.74 107.18 71.79 107.31 71.87 107.8 71.89 108.31 71.83 108.54 71.73 108.69 71.59 108.71 71.44 108.7 71.31 108.67 71.18 108.69 71.06 108.74 70.94 108.8 70.81 108.82 70.64 108.9 70.52 108.93 70.02 109.69 70.82 110.81 71.11 111.39 71.47 112.49 70.88 114.06 70.81 114.72 70.85 115.04 71.06 115.84 71.1 115.96 71.18 116.08 71.58 116.47 71.75 116.86 71.77 117.09 71.72 117.24 71.61 117.31 71.47 117.37 71.34 117.49 71.01 118.21 70.88 118.59 70.79 118.8 70.69 118.95 70.58 119.03 70.34 119.28 69.97 119.86 70.48 120.22 70.93 120.89 71.11 121.04 71.28 121.09 71.56 121 73.44 121.58 73.92 121.67 74.08 121.75 74.19 121.87 74.23 122.01 74.24 122.15 74.21 122.28 74.09 122.52 74.05 122.66 73.94 122.93 73.78 123.14 73.71 123.27 73.68 123.41 73.73 123.61 73.87 123.73 74.17 123.92 74.31 124.04 74.46 124.46 74.53 126.14 74.75 126.61 74.9 126.74 75.09 126.97 75.15 127.15 75.13 127.31 75.06 127.5 75 127.75 74.94 128.22 74.98 128.43 75.07 128.57 75.19 128.64 75.59 128.82 76.16 128.96 76.27 129 76.66 129.12 76.86 129.23 76.91 129.37 76.88 129.48 76.73 129.68 76.71 129.98 76.74 130.44 76.96 131.49 77.13 131.97 77.28 132.22 77.41 132.22 77.74 132.04 77.86 132.02 77.99 132.05 78.3 132.26 78.46 132.33 78.83 132.69 79.84 134.07 78.98 136.52 78.86 137.23 78.9 137.36 78.91 137.4 79.34 137.85 79.41 138.22 79.66 141.2 79.89 141.88 80.04 142.1 80.37 142.47 80.51 142.8 80.56 143.12 80.57 143.57 80.37 145.27 80.41 145.63 80.51 145.84 80.65 145.88 80.81 145.9 81.15 146.06 81.55 146.68 80.8 146.9 80.7 146.99 80.53 147.18 80.41 147.38 78.98 149.22 78.15 150.05 77.74 150.34 77.4 150.53 77.23 150.58 76.97 150.61 76.82 150.57 76.71 150.51 76.64 150.44 76.59 150.37 76.34 149.94 76.24 149.85 76.13 149.77 75.88 149.65 75.77 149.58 75.67 149.5 75.58 149.4 75.51 149.29 75.41 149.2 75.28 149.12 74.92 149.02 74.83 148.96 74.78 148.9 74.73 148.8 74.53 148.27 74.46 148.16 74.13 147.78 74.03 147.69 73.93 147.62 73.81 147.59 73.32 147.51 73.01 147.42 72.76 147.28 72.63 147.19 72.51 147.09 72.34 146.98 72.23 146.93 72.12 146.86 72.02 146.78 71.93 146.68 71.86 146.56 71.81 146.43 71.77 146.29 71.67 146.13 71.52 145.98 71.11 145.79 70.77 145.75 70.21 145.81 69.95 145.88 69.75 145.95 69.64 146.03 69.57 146.13 69.51 146.26 69.47 146.4 69.37 146.66 69.31 146.78 69.28 146.9 69.31 147.01 69.39 147.11 69.64 147.39 69.71 147.49 69.91 148.04 70.09 148.76 70.17 149.46 69.78 150.02 68.91 150.53 68.52 150.66 67.52 150.86 66.86 150.88 66.71 150.84 66.59 150.78 66.48 150.7 66.39 150.6 66.33 150.49 66.21 150.23 66.18 150.09 66.16 149.94 66.16 149.78 66.18 149.61 66.21 149.48 66.21 149.14 65.84 148.92 65.56 148.94 64.98 149.22 64.81 149.21 64.69 149.15 64.45 148.88 64.23 148.7 64.07 148.67 63.94 148.7 63.63 148.9 63.34 149 63.18 148.98 63.06 148.91 62.79 148.41 62.69 148.28 62.52 148.13 62.39 148.14 62.3 148.23 62.21 148.38 62.1 148.4 61.98 148.37 61.9 148.28 61.86 148.16 61.89 147.91 61.82 147.76 61.46 147.46 61.31 147.44 61.21 147.51 61.18 147.65 61.13 147.81 61.03 147.96 60.51 148.23 60.3 148.22 60.07 148.12 59.89 148.08 59.73 148.12 59.45 148.36 59.35 148.36 59.32 148.28 59.4 148.03 59.41 147.9 59.4 147.77 59.39 147.64 59.48 147.57 59.67 147.56 60.04 147.64 60.23 147.62 60.31 147.54 60.28 147.42 60.21 147.33 60.03 147.15 59.95 147.06 59.91 146.93 59.89 146.64 59.82 146.49 59.73 146.48 59.62 146.54 59.53 146.64 59.46 146.75 59.37 146.84 59.27 146.91 59.04 147.03 58.94 147.12 58.78 147.36 58.66 147.46 58.57 147.43 58.53 147.32 58.52 147.18 58.52 147.03 58.47 146.76 58.52 146.29 58.44 146.11 58.31 146.06 58.18 146.07 57.82 146.16 57.49 146.17 57.33 146.09 57.22 145.94 57.16 145.77 57.02 145.58 56.87 145.52 56.73 145.53 56.62 145.58 56.45 145.69 56.37 145.73 56.27 145.76 55.98 145.76 55.92 145.77 55.81 145.82 55.73 145.9 55.66 146.01 55.62 146.15 55.58 146.43 55.51 146.53 55.39 146.62 55.1 146.7 54.92 146.68 54.78 146.62 54.7 146.51 54.65 146.38 54.64 146.24 54.66 146.08 54.76 145.82 54.88 145.6 55.04 145.39 55.1 145.27 55.03 145.1 54.83 144.9 53.83 144.28 53.76 144.18 53.72 144.06 53.73 143.92 53.77 143.79 53.82 143.66 53.84 143.5 53.84 143.34 53.73 143.13 53.61 143.05 53.44 143.02 53.13 143.07 51.98 143.39 50.5 143.51 49.74 143.72 49.59 143.79 49.59 143.79 49.63 143.75 49.78 143.45 49.32 143.32 48.42 143.45 47.96 143.59 47.77 143.75 47.32 143.93 46.32 143.61 45.28 143.11 44.71 142.76 44.26 142.15 44.01 141.51 43.9 140.76 43.92 138.73 44.13 138.07 44.64 137.77 47.2 137.89 48 137.76 48.64 136.96 49.35 136.65 50.17 136.5 50.84 136.63 50.44 135.76 49.49 135.86 48.52 136.34 48.07 136.63 47.03 136.53 46.84 135.9 46.99 134.94 46.96 133.88 46.55 133.34 44.44 131.91 43.77 131.27 42.97 130.69 42.06 130.51 41.13 131.08 40.73 130.25 40.34 128.93 40.17 127.71 40.43 127.17 39.82 126.97 39.63 126.48 39.6 125.84 39.44 125.2 38.98 124.75 38.58 124.66 38.4 124.43 38.61 123.54 38.99 122.51 39.12 121.95 39.17 121.18 39.34 120.64 40.12 120.08 40.3 119.51 40.41 118.39 41.13 115.74 41.66 114.64 41.04 114.88 40.31 114.69 39.7 114.15 39.44 113.39 39.58 112.57 39.96 111.81 40.5 111.46 41.13 111.83 41.41 111.26 41.73 110.79 42.09 110.42 42.5 110.17 41.53 109.99 40.64 110.32 39.98 110.34 39.72 109.21 39.58 107.2 39.96 106.67 41.13 106.58 41.13 106.28 40.9 106.24 40.3 106.01 40.61 105.43 40.51 105.17 39.72 104.89 39.31 104.84 39.04 104.97 38.84 104.91 38.61 104.34 38.57 103.78 38.89 103.1 38.89 102.67 38.65 102.54 38.25 102.51 37.9 102.36 37.78 101.82 37.36 102.04 36.93 102.12 35.96 102.12 35.52 101.95 35.71 101.59 36.13 101.28 36.37 101.26 36.34 100.72 36.19 100.54 35.88 100.41 35.41 100.01 35 99.81 34.55 99.91 34.15 100.17 33.87 100.46 33.37 99.89 33.13 99.35 32.99 98.8 32.76 98.21 31.75 97.06 31.5 96.21 30.89 94.83 30.55 94.26 30.24 93.33 30.29 92.99 30.44 92.96 30.63 93.02 30.81 92.91 31.23 92.46 31.68 92.08 31.85 91.87 31.85 91.87 31.88 91.87 34.96 91.16 35.38 91.11 35.89 91.3 36.2 92.4 36.46 92.73 36.6 92.77 37.06 92.97 37.47 93.27 37.75 93.39 38.06 93.46 38.32 93.44 38.49 93.39 38.63 93.32 38.73 93.24 39.31 92.54 39.91 92.03 39.99 91.94 40.06 91.82 40.25 91.24 40.43 90.89 43.31 88.33 43.46 88.11 43.5 88.03 43.54 87.94 43.72 87.32 44.02 86.66 44.16 86.47 44.29 86.33 45.28 85.65 45.49 85.45 45.63 85.25 45.66 85.13 45.75 84.67 46.14 83.93 46.43 83.71 47.82 83.52 48.85 83.25 49.28 83.09 49.55 82.95 50.08 82.36 50.23 82.14 50.36 81.89 50.46 81.63 50.73 80.46 50.75 80.12 50.73 79.78 50.75 79.44 50.93 77.87 51.14 77.32 51.32 77.1 51.62 76.62 51.8 76.43 51.96 76.36 52.07 76.41 52.25 76.58 52.46 76.55 52.73 76.42 53.25 75.89 53.5 75.49 53.76 74.89 53.91 74.37 53.93 74.22 53.93 73.87 54.01 73.17 54.01 72.97 53.98 72.81 53.91 72.69 53.8 72.61 53.68 72.54 53.54 72.5 53.42 72.44 53.31 72.33 53.23 72.15 53.17 71.82 53.21 71.64 53.3 71.52 53.64 71.21 53.93 70.81 54.14 70.6 54.64 70.26 54.77 70.11 54.85 69.96 55.4 67.64 55.43 67.4 55.37 67.3 55.3 67.21 55.2 67.13 54.85 66.93 54.75 66.83 54.63 66.59 54.46 66.4 54.39 66.28 54.22 65.6 54.28 65.49 54.38 65.4 54.53 65.36 54.68 65.34 54.95 65.34 55.25 65.82 55.73 66.78 56.01 67.1 56.41 67.26 57.18 67.22 57.58 67.3 58.5 67.91 59.27 68.8 59.89 69.82 60.35 70.84 61.03 71.15 62.16 70.79 64.07 69.65 64.7 69.05 65.21 68.33 65.56 67.51 65.68 66.61 66.19 64.77 67.43 64.11 69.03 63.83 70.6 63.08 72.03 62.16 76.4 60.47 77.8 59.93 78.74 59.71 79.61 59.91 80.26 60.77 80.44 61.23 80.66 61.55 80.98 61.74 81.45 61.82 81.84 61.98 81.85 62.31 81.73 62.72 81.7 63.08 82.5 64.94 83.13 65.64 83.98 65.81 84.38 65.61 84.42 65.57 Z" id="MYS-1137" data-name="Perak"/>
<path d="M 28.01 78.43 28.37 79.06 29 79.4 29.38 79.78 28.64 81.17 28.46 82.75 28.29 83.48 27.3 85.35 27.16 86.08 24.96 85.67 23.35 85.69 23.29 85.78 23.25 85.87 23.13 85.92 22.91 85.84 22.74 85.64 22.69 85.45 23.25 85.13 23.39 84.56 23.19 82.42 23.27 80.52 23.18 80.15 22.99 79.84 22.8 79.59 22.71 79.4 22.8 79.01 22.95 78.7 22.98 78.42 22.71 78.13 23.23 77.94 23.43 78.17 23.6 78.52 23.98 78.71 24.31 78.6 24.54 78.34 24.74 78.06 24.96 77.87 25.73 77.69 26.56 77.71 27.34 77.95 28.01 78.43 Z M 38.15 90.95 38.11 91.12 38.01 91.29 37.89 91.39 37.77 91.46 37.64 91.5 37.15 91.52 35.89 91.3 35.38 91.11 34.96 91.16 31.88 91.87 31.85 91.87 31.85 91.87 32.05 91.61 32.34 90.27 32.94 89.01 33.03 88.17 32.93 87.72 32.54 86.9 32.45 86.65 32.54 86.16 32.95 85.41 33.03 84.97 32.9 84.44 31.92 82.59 31.08 81.43 30.87 80.87 30.81 79.96 31.07 76.46 30.8 75.5 29.88 73.88 29.82 73.63 29.83 73.63 35.75 73.98 36.39 74.09 37.09 74.41 36.9 74.89 36.83 75.25 36.75 77.68 37.47 86.04 38.15 90.79 38.15 90.95 Z" fill-rule="evenodd" id="MYS-1139" data-name="Pulau Pinang"/>
<path d="M 48.9 43.97 48.89 44.01 48.81 44.37 48.84 45.54 48.94 45.89 49.28 46.49 49.45 46.47 49.68 46.19 50.18 46.03 50.72 46.1 52.41 46.52 53.18 46.33 54.24 45.19 55.02 45.03 56.33 46.09 57 46.31 58.87 45.91 59.39 46.09 59.65 46.62 59.77 47.44 59.69 48.43 59.32 48.78 58.78 49.02 58.24 49.7 58.2 50.64 58.85 51.25 59.61 51.82 59.9 52.62 59.68 54.21 59.62 56.53 59.34 57.85 59.27 58.62 58.96 59.37 58.22 59.64 57.36 59.81 56.69 60.24 55.02 63.61 54.75 64.07 54.66 64.54 54.73 65.01 54.95 65.34 54.68 65.34 54.53 65.36 54.38 65.4 54.28 65.49 54.22 65.6 54.39 66.28 54.46 66.4 54.63 66.59 54.75 66.83 54.85 66.93 55.2 67.13 55.3 67.21 55.37 67.3 55.43 67.4 55.4 67.64 54.85 69.96 54.77 70.11 54.64 70.26 54.14 70.6 53.93 70.81 53.64 71.21 53.3 71.52 53.21 71.64 53.17 71.82 53.23 72.15 53.31 72.33 53.42 72.44 53.54 72.5 53.68 72.54 53.8 72.61 53.91 72.69 53.98 72.81 54.01 72.97 54.01 73.17 53.93 73.87 53.93 74.22 53.91 74.37 53.76 74.89 53.5 75.49 53.25 75.89 52.73 76.42 52.46 76.55 52.25 76.58 52.07 76.41 51.96 76.36 51.8 76.43 51.62 76.62 51.32 77.1 51.14 77.32 50.93 77.87 50.75 79.44 50.73 79.78 50.75 80.12 50.73 80.46 50.46 81.63 50.36 81.89 50.23 82.14 50.08 82.36 49.55 82.95 49.28 83.09 48.85 83.25 47.82 83.52 46.43 83.71 46.14 83.93 45.75 84.67 45.66 85.13 45.63 85.25 45.49 85.45 45.28 85.65 44.29 86.33 44.16 86.47 44.02 86.66 43.72 87.32 43.54 87.94 43.5 88.03 43.46 88.11 43.31 88.33 40.43 90.89 40.25 91.24 40.06 91.82 39.99 91.94 39.91 92.03 39.31 92.54 38.73 93.24 38.63 93.32 38.49 93.39 38.32 93.44 38.06 93.46 37.75 93.39 37.47 93.27 37.06 92.97 36.6 92.77 36.46 92.73 36.2 92.4 35.89 91.3 37.15 91.52 37.64 91.5 37.77 91.46 37.89 91.39 38.01 91.29 38.11 91.12 38.15 90.95 38.15 90.79 37.47 86.04 36.75 77.68 36.83 75.25 36.9 74.89 37.09 74.41 36.39 74.09 35.75 73.98 29.83 73.63 29.82 73.63 29.68 73.01 29.4 69.55 29.78 69.71 30.25 69.82 30.72 69.79 31.07 69.55 31.13 69.15 30.82 68.9 30.42 68.72 30.24 68.54 30.69 63.79 29.61 55.59 29.26 54.89 28.67 54.11 28.18 53.24 27.46 51.41 25.99 48.75 25.5 47.13 24.87 46.51 23.55 45.58 23.5 45.52 23.5 45.51 23.82 45.19 23.97 44.67 24.03 44.25 24.09 44.07 24.13 43.96 28.62 38.89 29.03 38.56 29.99 37.91 30.16 37.74 30.28 37.58 30.67 35.78 30.7 35.45 30.7 35.29 30.77 34.7 31.17 34.89 32.07 35.16 32.76 35.22 33.81 35.1 34.41 35.25 35.71 36.18 36.45 36.52 38.93 37.24 40.32 37.85 41.06 38.03 41.78 37.93 44.39 36.07 45.09 36.06 45.15 36.31 45.14 37.22 45.25 37.56 45.59 37.81 45.97 37.87 46.39 37.86 46.85 37.93 47.79 38.47 48.17 39.25 48.28 41.18 48.37 41.65 48.55 42.09 49.04 42.92 49.12 43.25 49.03 43.63 48.9 43.97 Z" id="MYS-1140" data-name="Kedah"/>
<path d="M 7.98 48.93 7.52 49.12 6.87 48.55 6.64 47.93 6.26 47.81 5.96 47.01 6.73 46.28 7.31 45.02 8.26 44.64 8.79 44.15 8.91 44.84 8.6 45.18 8.3 45.63 8.31 46.12 8.24 46.39 8.26 47.05 8.52 47.74 8.37 48.36 7.98 48.93 Z M 9.99 38.64 10.47 39.05 11.31 39.43 11.26 39.77 11.55 39.94 11.9 40.25 11.72 40.74 11.38 41.3 11.8 41.93 11.94 42.3 12.02 42.63 11.6 42.85 11.02 43.02 10.67 43.4 10.16 43.71 9.96 44.3 9.3 43.88 9.1 42.91 8.32 42.93 7.59 43.2 6.96 43.98 6.4 44.61 5.73 44.61 5.22 45.13 4.72 45.35 4.39 45.48 3.85 43.5 4.13 42.8 4 41.75 3.34 41.53 2.28 41.31 1.55 41.37 1.2 40.8 1.03 40.08 1 38.39 1.98 38.76 2.77 38.41 4.09 38.46 4.71 38.87 6.11 39.04 6.72 38.92 7.38 38.38 7.87 37.65 8.26 37.63 8.88 37.62 8.69 37.28 8.62 36.97 9 37.02 9.37 37.18 9.68 38.07 9.99 38.64 Z M 30.77 34.7 30.7 35.29 30.7 35.45 30.67 35.78 30.28 37.58 30.16 37.74 29.99 37.91 29.03 38.56 28.62 38.89 24.13 43.96 24.09 44.07 24.03 44.25 23.97 44.67 23.82 45.19 23.5 45.51 23.5 45.52 22.52 44.28 21.63 42.53 21.01 40.64 20.75 38.9 20.59 38.13 20.93 37.5 21.29 36.61 21.46 35.6 21.44 35.25 21.31 34.54 21.34 34.18 21.62 33.75 21.97 33.45 22.22 33.1 22.13 32.52 21.81 31.58 21.76 30.88 22.04 29.24 22.09 28.32 22.2 27.85 22.46 27.52 23.04 27.33 23.41 27.55 23.52 27.68 23.7 27.9 24.05 28.09 24.67 28.11 24.67 28.03 25.28 27.64 25.65 27.61 26.12 27.65 26.56 27.81 26.83 28.11 28.34 32.67 28.8 33.44 29.6 34.13 30.77 34.7 Z" fill-rule="evenodd" id="MYS-1141" data-name="Perlis"/>
<path d="M 143.44 197.13 143.66 197.18 143.81 197.16 149.88 194.9 151.62 194.54 152.17 194.55 152.68 194.81 153.2 195.17 155.49 196.05 155.69 196.22 156.03 196.59 156.25 196.9 156.35 196.99 162.15 200.43 162.5 200.57 162.65 200.52 162.61 200.35 162.59 200.19 162.59 200.11 162.63 200.01 162.69 199.9 163.13 199.32 163.17 199.2 163.21 199.05 163.22 198.75 163.21 198.58 163.16 198.33 163.07 198.1 162.95 197.89 162.75 197.65 162.62 197.58 162.49 197.53 162.14 197.44 162.02 197.37 161.92 197.3 161.86 197.18 161.84 197.12 161.85 197.03 161.87 196.94 161.96 196.69 162.04 196.53 162.3 196.23 162.34 196.17 162.37 196.08 162.35 196 162.16 195.49 162.14 195.31 162.17 195.22 162.27 195.11 162.42 194.98 162.47 194.93 162.58 194.73 162.63 194.61 162.7 194.36 162.72 194.22 162.7 194.12 162.63 193.96 162.54 193.81 162.44 193.68 162.34 193.58 162.25 193.51 161.91 193.33 161.84 193.27 161.75 193.16 161.76 192.99 161.91 192.77 162.81 192.33 162.88 192.25 163.25 191.69 163.38 191.41 163.86 191.62 164.49 191.75 165.2 191.78 165.42 191.9 166.03 192.46 166.47 192.62 166.86 192.55 167.83 192.08 168.46 192.32 168.53 192.61 168.42 192.95 168.54 193.33 169.95 194.43 170.44 195.06 171.49 197.36 171.14 198.3 171.11 199.09 171.41 199.84 174.4 203.63 174.76 203.95 175.65 204.61 175.93 204.88 176.11 205.3 176.12 206.11 176.21 206.57 176.48 207.01 177.19 207.9 177.34 208.38 177.25 208.76 176.85 209.56 176.76 210.05 177.05 210.87 178.95 213.23 179.99 215.77 180.74 216.79 181.21 217.81 181.48 218.25 182.33 219.22 182.59 219.66 182.92 220.56 182.98 221.35 182.87 223.11 183.06 223.95 183.51 224.83 184.07 225.3 184.55 224.91 184.81 224.91 185.94 226.87 186.31 228.74 187.07 229.79 187.27 230.39 187.33 231.77 187.57 232.33 188.05 232.9 188.38 233.42 188.16 233.84 188.43 234.39 188.72 236.08 189.55 238.3 189.94 240.17 189.98 241.19 189.7 241.64 189.37 242 189.48 243.79 189.28 244.41 187.74 244.41 187.54 244.54 187.11 245.13 186.92 245.27 185.08 245.18 184.28 245.02 182.64 244.36 182.32 244.09 182.28 243.67 182.31 242.9 182.09 242.31 181.61 241.88 181.05 241.51 180.64 241.1 180.42 239.61 181.51 238.9 183.01 238.3 184.01 237.17 183.24 236.99 182.52 237.18 181.85 237.58 180.48 238.61 180.18 238.76 180.03 238.48 179.79 237.75 178.5 235.08 177.54 233.63 176.62 233.01 176.39 233.49 176.8 234.6 178.34 237.03 178.36 237.6 178.14 238.73 178.24 239.27 178.41 239.85 178.51 240.47 178.4 241.1 176.97 242.27 175.02 241.79 171.49 239.97 170.46 240.05 168.82 240.9 167.97 241.1 166.33 240.96 165.71 241.02 165.06 241.38 162.97 244 161.75 244.97 160.31 244.71 160.23 244.53 159.94 244.11 159.63 243.81 159.48 244.01 159.52 244.46 159.72 245.07 159.76 245.4 159.65 245.86 158.92 246.93 158.35 248.35 157.85 247.55 156.42 246.33 155.85 245.54 155.5 244.73 154.18 240.32 153.43 238.75 152.29 237.45 150.57 236.36 145.73 234.53 138.87 230.25 137.21 229.47 136.31 229.21 135.37 229.12 134.7 228.95 134.24 228.53 133.57 227.46 132.78 226.53 131.82 225.69 130.68 224.97 129.41 224.38 128.76 224.62 126.74 224.93 126.05 224.91 125.14 224.4 124.6 223.61 123.83 221.88 123.16 221.09 119.83 218.43 119.38 217.93 119.09 217.41 119.44 217.34 119.49 217.21 119.4 217.04 119.36 216.86 118.85 216.35 118.13 215.81 116.59 214.91 116.58 214.91 116.59 214.91 117.28 213.81 117.67 213.6 118.12 213.67 118.28 213.67 118.41 213.48 118.52 213.14 118.58 212.33 118.55 211.98 118.47 211.74 118.37 211.66 118.24 211.6 117.93 211.57 117.79 211.53 117.58 211.38 116.95 211.11 116.66 211.05 116.56 210.99 116.5 210.88 116.4 210.62 116.27 210.38 116.25 210.24 116.29 210.07 116.98 209.48 117.06 209.36 117.12 209.19 117.13 208.9 117.11 208.72 117.04 208.41 117.04 208.25 117.05 208.09 117.14 207.65 117.91 205.51 117.97 205.21 117.96 205.05 117.86 204.62 117.84 204.48 117.93 204.21 118.12 203.87 118.94 202.82 119.27 202.55 120.2 202.15 121.07 201.55 121.19 200.5 121.32 200.13 121.82 199.54 121.92 199.35 121.96 199.13 121.94 198.99 121.83 198.63 121.74 198.15 121.77 197.96 122 197.45 122.04 197.25 121.97 196.93 121.9 196.75 121.85 196.53 121.82 196.32 121.89 195.87 121.99 195.51 122.23 194.94 122.37 194.69 122.49 194.51 122.76 194.24 122.81 194.1 122.81 193.94 122.68 193.67 122.49 193.36 122.48 193.12 122.49 192.93 122.84 191.82 125.13 185.82 125.35 184.59 127.11 185.18 129.24 186.04 129.82 186.39 135.59 193.32 137.04 194.5 143.44 197.13 Z M 185.81 189.87 185 189.92 184.41 189.7 183.63 188.87 183.31 188.38 183.29 188.02 183.32 187.8 183.12 187.11 183.17 186.76 183.35 186.54 183.87 186.27 184.13 186.08 184.52 185.45 184.52 184.85 184.36 184.24 184.26 183.57 184.35 183.14 184.58 182.73 184.94 182.47 185.38 182.53 185.57 182.71 185.64 182.94 185.69 183.43 185.8 183.72 186.31 184.51 186.57 185.04 187.06 186.76 187.15 188.78 187.06 189.26 186.57 189.63 185.81 189.87 Z" fill-rule="evenodd" id="MYS-1143" data-name="Johor"/>
<path d="M 118.74 62.01 118.65 62.08 117.16 63.94 114.05 66.84 112.62 68.35 112.41 68.87 112.97 71.12 113.08 71.39 113.19 71.79 113.21 72.02 113.09 72.7 113.16 74.89 113.11 75.03 113.03 75.14 112.7 75.35 112.67 75.76 112.96 78.16 112.98 78.82 112.91 79.2 112.77 79.24 112.73 79.39 112.81 79.62 113.47 80.43 114.37 81.17 114.53 81.37 114.61 81.74 114.41 82.76 113.94 83.76 113.88 83.93 113.76 84.86 113.68 87.21 113.79 87.83 113.79 87.99 113.78 88.15 113.71 88.43 113.46 89.11 113.48 89.28 113.57 89.44 113.86 89.57 114.4 89.7 114.51 89.77 114.72 89.93 114.84 89.99 115 90.01 115.15 90.02 115.32 90.06 115.47 90.15 115.65 90.32 115.97 90.47 116.08 90.55 116.65 91.2 116.84 91.34 117.01 91.45 117.14 91.5 117.26 91.57 117.4 91.68 117.79 92.12 118.11 92.36 118.2 92.44 118.12 92.62 117.94 92.86 117.88 92.97 117.85 93.11 117.83 93.25 117.76 93.37 117.65 93.42 117.35 93.5 117.24 93.56 117.16 93.67 117.17 93.9 117.65 95.87 117.61 96.08 117.53 96.22 117.4 96.27 117.28 96.33 117.18 96.41 117.1 96.51 117.06 96.61 117.05 96.69 117.05 96.72 117.06 96.74 117.06 96.78 117.07 96.97 117.14 97.29 117.52 98.43 117.62 99.09 117.55 99.41 117.49 100.2 117.57 100.4 117.74 100.57 118.18 100.75 118.37 100.75 118.51 100.67 118.59 100.57 118.68 100.48 118.81 100.45 118.95 100.46 119.1 100.5 120.11 100.95 122.13 102.38 122.28 102.44 122.57 102.51 122.71 102.65 122.8 102.88 122.85 103.45 122.93 103.77 123.14 104.08 123.27 104.22 123.39 104.39 123.75 105.26 123.8 105.57 123.56 106.17 122.76 106.13 122.42 106.02 122.01 105.69 121.87 105.64 121.72 105.64 121.55 105.72 121.37 105.94 121.31 106.12 121.3 106.3 121.31 106.46 121.29 106.6 121.24 106.74 121.11 106.98 121.05 107.11 121.01 107.24 121.02 107.38 121.06 107.5 121.21 107.73 121.26 107.86 121.37 108.47 121.39 108.8 121.36 108.94 121.31 109.07 121.2 109.17 121.04 109.21 120.5 109.1 119.89 109.05 119.72 108.99 119.58 108.9 119.51 108.81 119.41 108.71 119.3 108.63 119.17 108.61 119.01 108.65 118.85 108.84 118.69 109.12 118.61 109.22 118.52 109.31 118.32 109.47 118.23 109.57 117.99 109.76 117.7 109.94 117.53 110 117.32 110.01 116.97 109.93 116.77 109.86 116.61 109.77 116.22 109.46 115.51 109.06 115.33 108.87 115.12 108.54 115.02 108.45 114.85 108.41 114.63 108.39 114.26 108.41 114.04 108.38 113.86 108.34 113.59 108.23 113.37 108.2 113.09 108.21 112.54 108.31 112.2 108.45 111.83 108.79 111.79 108.95 111.83 109.09 111.89 109.19 111.92 109.33 111.89 109.47 111.83 109.59 111.35 110.2 110.98 110.56 110.91 110.66 110.67 111.18 110.47 111.25 110.17 111.26 109.52 111.15 109.22 111.07 109 110.98 108.2 110.49 107.97 110.48 107.67 110.51 106.79 110.76 106.53 110.89 106.4 110.98 105.97 111.51 105.14 111.4 104.99 111.33 104.82 111.23 104.75 111.11 104.64 110.87 104.56 110.76 104.47 110.68 104.35 110.62 104.21 110.58 104.09 110.52 103.99 110.42 103.94 110.29 103.92 110.15 103.91 109.98 103.88 109.83 103.83 109.7 103.76 109.59 103.51 109.3 102.04 108.18 101.95 108.08 101.9 107.96 101.88 107.81 101.87 107.5 101.85 107.36 101.6 106.73 101.52 106.62 101.43 106.54 101.1 106.59 98.87 107.55 98.44 107.57 98.19 107.39 97.99 107.22 97.88 107.16 97.74 107.14 97.6 107.15 97.44 107.14 97.34 107.08 96.95 106.54 96.86 106.45 96.77 106.39 96.68 106.4 96.56 106.48 96.36 106.7 96.2 106.81 95.93 106.81 95.78 106.75 95.66 106.65 95.53 106.42 95.4 106.4 95.23 106.48 94.94 106.84 94.85 107.06 94.83 107.25 94.86 107.4 94.89 107.54 94.9 107.88 94.87 108.21 94.46 110.02 94.35 110.26 94.24 110.4 93.81 110.81 93.58 111.13 93.45 111.38 93.4 111.51 93.38 111.67 93.36 112.15 93.28 112.25 93.14 112.29 92.87 112.19 92.71 112.08 92.61 111.95 92.55 111.83 92.36 111.31 92.34 111.16 92.36 111.03 92.43 110.73 92.43 110.57 92.42 110.41 92.38 110.27 92.32 110.15 92.24 110.04 92.13 109.96 91.44 109.56 91.25 109.4 91.13 109.33 90.97 109.27 90.75 109.24 90.63 109.16 90.56 109.03 90.54 108.88 90.54 108.72 90.52 108.57 90.48 108.44 90.41 108.31 90.32 108.22 90.21 108.15 90.08 108.1 89.76 108.07 89.61 108.05 89.49 107.99 89.42 107.88 89.39 107.73 89.37 107.57 89.37 107.21 89.34 106.88 89.3 106.73 89.25 106.61 89.17 106.51 89.06 106.43 88.89 106.39 88.67 106.38 88.32 106.44 88.11 106.5 87.93 106.63 87.82 106.82 87.68 107.19 87.64 107.45 87.7 108.47 87.69 108.64 87.54 109.59 87.58 110.43 87.53 110.76 87.38 111.33 87.32 111.46 87.25 111.57 87.08 111.69 86.82 111.8 85.9 112 85.64 112.11 85.32 112.51 85.05 112.69 83.83 113.36 83.48 113.59 83.27 113.8 83.15 114.04 82.9 114.34 82.69 114.45 82.4 114.56 81.49 114.82 81.24 114.81 81.07 114.65 80.75 114.51 80.15 114.61 79.69 114.21 79.4 113.91 79.23 113.82 78.63 113.61 78.44 113.49 78.31 113.38 78.23 113.29 78.07 113.18 77.79 113.11 77.26 113.04 76.78 113.13 76.54 113.21 76.41 113.28 75.9 113.41 75.77 113.51 75.71 113.64 75.69 113.8 75.69 113.97 75.67 114.13 75.54 114.22 75.29 114.22 74.82 114.13 74.29 113.74 74.17 113.6 73.57 113.09 73.1 112.91 71.47 112.49 71.11 111.39 70.82 110.81 70.02 109.69 70.52 108.93 70.64 108.9 70.81 108.82 70.94 108.8 71.06 108.74 71.18 108.69 71.31 108.67 71.44 108.7 71.59 108.71 71.73 108.69 71.83 108.54 71.89 108.31 71.87 107.8 71.79 107.31 71.74 107.18 71.71 107.04 71.71 106.89 71.78 106.74 71.99 106.61 72.17 106.57 72.34 106.54 72.48 106.43 72.59 106.22 72.75 105.78 72.86 105.56 72.96 105.4 73.06 105.31 73.1 105.15 73.11 104.94 73 104.56 72.73 103.93 72.71 103.79 72.76 103.63 72.92 103.46 73.16 103.05 73.26 102.97 73.39 102.91 73.69 102.86 73.85 102.85 74.17 102.8 74.32 102.68 74.44 102.46 74.82 101.3 74.88 100.98 74.9 100.8 74.62 99.17 74.5 98.93 74.08 98.52 73.75 97.79 74.38 97.3 74.5 97.16 74.63 96.95 74.66 96.66 74.68 96.27 74.71 96.13 74.82 95.87 74.95 95.63 75.01 95.5 75.09 94.86 75.09 94.53 75.15 94.23 75.23 93.99 75.7 93.13 75.79 92.84 75.81 92.6 75.79 92.45 75.81 92.28 75.86 92.1 75.98 91.85 76.03 91.67 76.06 91.47 76.06 91.31 76.01 90.99 76.03 90.8 76.12 90.56 76.16 90.18 76.17 89.84 76.28 89.22 76.34 89.07 76.44 88.88 77.01 88.04 77.11 87.86 77.14 87.71 77.13 87.06 77.17 86.88 77.41 86.41 77.47 86.19 77.51 85.83 77.56 85.69 77.69 85.61 77.98 85.61 78.17 85.65 78.33 85.64 78.47 85.56 78.59 85.34 78.73 85.01 78.87 84.84 79.51 84.33 79.69 84.1 79.77 83.89 79.75 83.73 79.72 83.57 79.71 83.41 79.83 83.21 80.05 83.01 80.58 82.67 80.82 82.47 80.97 82.31 81.03 82.19 81.14 82.12 81.29 82.12 81.51 82.25 81.84 82.6 81.95 82.66 82.1 82.69 82.43 82.71 82.75 82.76 83 82.87 83.44 83.17 83.56 83.19 83.71 83.14 83.95 82.85 84.16 82.7 84.48 82.6 84.69 82.57 84.89 82.58 85.05 82.6 85.2 82.64 85.36 82.66 85.51 82.63 85.65 82.57 85.83 82.48 86.31 82.15 86.43 82.02 86.55 81.77 86.58 81.6 86.4 81 86.48 79.84 86.57 79.42 86.58 79.22 86.55 78.98 86.4 78.5 86.36 78.2 86.43 77.82 86.59 77.49 86.64 77.36 86.67 77.21 86.69 77.03 86.65 76.78 86.56 76.49 86.36 76.15 86.2 76.04 86.04 76.02 85.88 76.01 85.75 75.97 85.52 75.85 85.41 75.8 85.28 75.82 85.15 75.86 84.92 75.99 84.79 76.04 84.64 76.06 84.5 76.03 84.18 75.79 84.06 75.76 83.9 75.75 83.58 75.77 83.43 75.75 83.32 75.7 83.27 75.53 83.29 75.28 83.56 74.53 83.84 73.98 83.99 73.58 84.01 73.36 84.01 73.1 83.92 72.63 83.83 72.39 83.72 72.23 83.4 72.03 83.29 71.94 83.2 71.85 83.14 71.65 83.12 71.36 83.15 70.84 83.13 70.38 83.1 70.29 83.07 70 83.11 69.79 83.2 69.56 83.46 69.2 83.76 68.89 84.2 68.59 84.29 68.51 84.44 67.93 84.5 65.82 84.42 65.57 85.12 64.93 85.61 64.79 86.15 64.95 86.46 65.36 86.72 65.85 87.07 66.29 87.94 66.75 88.6 66.68 89.08 66.17 89.41 65.3 89.62 65.06 90.81 64.33 91.06 63.97 91.19 63.61 91.4 63.27 91.85 62.97 93.17 61.83 93.43 60.27 93.45 58.54 94.06 56.85 95.06 55.64 98.07 53.33 99.15 52.25 99.61 50.96 99.42 47.79 99.68 45.64 100.72 46.39 102.9 47.85 103.36 48.08 104.31 47.84 104.5 47.37 104.16 47.04 103.49 47.25 103.95 46.61 104.82 46.64 109.54 48.37 110.46 48.91 112.15 50.7 117.03 60.28 117.88 61.32 118.74 62.01 Z" id="MYS-1144" data-name="Kelantan"/>
<path d="M 121.07 201.55 120.2 202.15 119.27 202.55 118.94 202.82 118.12 203.87 117.93 204.21 117.84 204.48 117.86 204.62 117.96 205.05 117.97 205.21 117.91 205.51 117.14 207.65 117.05 208.09 117.04 208.25 117.04 208.41 117.11 208.72 117.13 208.9 117.12 209.19 117.06 209.36 116.98 209.48 116.29 210.07 116.25 210.24 116.27 210.38 116.4 210.62 116.5 210.88 116.56 210.99 116.66 211.05 116.95 211.11 117.58 211.38 117.79 211.53 117.93 211.57 118.24 211.6 118.37 211.66 118.47 211.74 118.55 211.98 118.58 212.33 118.52 213.14 118.41 213.48 118.28 213.67 118.12 213.67 117.67 213.6 117.28 213.81 116.59 214.91 116.58 214.91 110.88 212.6 104.35 209.9 102.98 209.11 101.87 208.23 98.8 204.84 98.35 204.62 97.47 204.45 96.67 203.99 96.19 203.36 96.24 202.79 96.25 202.78 97.57 202.04 97.92 201.72 98.6 200.9 98.76 201.17 98.83 201.27 98.94 201.37 99.07 201.38 99.19 201.33 99.34 200.96 99.43 200.84 99.57 200.75 99.64 200.69 99.7 200.6 99.69 200.18 99.71 200.08 99.75 200.01 99.86 199.96 100.06 199.94 100.85 200.16 101.08 200.15 102.8 199.69 102.99 199.58 103.14 199.49 103.81 198.8 103.95 198.69 104.04 198.68 104.18 198.7 104.88 199.09 105.91 199.51 107.58 199.86 107.9 199.82 110.66 198.91 111.07 198.83 112.31 198.86 114.66 199.86 115.27 200.2 121.07 201.55 Z" id="MYS-1145" data-name="Melaka"/>
<path d="M 125.35 184.59 125.13 185.82 122.84 191.82 122.49 192.93 122.48 193.12 122.49 193.36 122.68 193.67 122.81 193.94 122.81 194.1 122.76 194.24 122.49 194.51 122.37 194.69 122.23 194.94 121.99 195.51 121.89 195.87 121.82 196.32 121.85 196.53 121.9 196.75 121.97 196.93 122.04 197.25 122 197.45 121.77 197.96 121.74 198.15 121.83 198.63 121.94 198.99 121.96 199.13 121.92 199.35 121.82 199.54 121.32 200.13 121.19 200.5 121.07 201.55 115.27 200.2 114.66 199.86 112.31 198.86 111.07 198.83 110.66 198.91 107.9 199.82 107.58 199.86 105.91 199.51 104.88 199.09 104.18 198.7 104.04 198.68 103.95 198.69 103.81 198.8 103.14 199.49 102.99 199.58 102.8 199.69 101.08 200.15 100.85 200.16 100.06 199.94 99.86 199.96 99.75 200.01 99.71 200.08 99.69 200.18 99.7 200.6 99.64 200.69 99.57 200.75 99.43 200.84 99.34 200.96 99.19 201.33 99.07 201.38 98.94 201.37 98.83 201.27 98.76 201.17 98.6 200.9 97.92 201.72 97.57 202.04 96.25 202.78 96.24 202.79 96.26 202.66 95.58 202.49 94.93 202.24 93.74 201.52 93.02 201.99 91.73 202.07 91.24 202.66 90.95 201.64 90.87 200.35 90.66 199.22 89.97 198.75 89.7 198.61 89.3 198.28 88.71 197.64 87.89 195.28 87.54 194.85 87 194.62 85.38 194.47 85.38 194.47 85.48 193.46 85.71 192.96 85.95 192.62 86.02 192.32 86.08 191.61 86.14 191.43 86.49 190.85 87.47 188.69 87.39 187.04 86.96 184.6 86.92 183.98 86.94 183.62 87.01 183.59 87.58 183.5 87.92 183.48 89.16 183.57 90.67 183.86 90.82 183.87 91.06 183.8 91.34 183.65 91.83 183.29 92.05 183.07 92.18 182.89 92.31 182.45 92.46 181.48 92.65 180.72 92.75 180.51 92.84 180.37 92.92 180.28 93.68 179.74 93.83 179.59 93.92 179.43 93.99 179.15 94 178.99 93.98 178.66 94.09 178.12 94.24 177.59 94.36 177.33 94.47 177.16 94.59 177.1 94.91 176.96 95.13 176.84 95.23 176.7 95.27 176.54 95.23 176.24 95.06 175.68 95.02 175.02 94.92 174.41 94.95 173.82 95.18 172.57 95.16 172.25 95.12 172.11 95.03 171.85 94.97 171.72 94.92 171.58 94.65 171.13 94.49 170.75 94.46 170.6 94.43 170.43 94.55 169.36 94.53 169.2 94.51 169.05 94.41 168.79 94.15 168.32 94.01 167.92 93.86 167.7 93.77 167.61 93.55 167.48 93.3 167.45 93.5 167.27 93.6 167.21 93.73 167.13 93.81 167.03 93.85 166.9 93.88 166.76 93.93 166.62 94.02 166.53 94.26 166.57 94.62 166.75 95.38 167.25 95.67 167.54 95.82 167.79 95.83 167.95 95.88 168.09 95.95 168.19 96.06 168.26 96.29 168.39 96.49 168.56 96.58 168.64 96.72 168.76 96.86 168.81 97.09 168.87 97.84 168.9 98.39 168.84 98.55 168.88 98.71 168.97 98.92 169.19 99.02 169.37 99.17 169.82 99.22 169.95 99.27 170.08 99.29 170.23 99.31 170.71 99.34 170.87 99.39 170.99 99.52 171.07 99.72 171.08 100.09 170.98 100.47 170.82 100.78 170.58 100.9 170.51 101.04 170.47 101.49 170.39 101.6 170.33 101.69 170.24 101.77 170.13 102.01 170.14 102.38 170.24 104.02 171.04 109.09 172.68 109.4 172.76 112.51 173.25 112.78 173.44 114.39 175.19 114.46 175.3 115.67 176.86 123.87 182.44 123.99 182.5 124.11 182.53 124.25 182.51 124.36 182.45 124.45 182.37 124.55 182.3 124.65 182.25 124.93 182.68 125.35 184.59 Z" id="MYS-1146" data-name="Negeri Sembilan"/>
<path d="M 123.56 106.17 124.43 107.8 124.77 108.24 125.41 108.6 126.16 109.15 126.57 109.38 127.32 109.62 127.58 109.67 127.83 109.75 128.57 109.85 129.27 109.86 130.41 109.72 131.01 109.93 131.77 110.61 132.14 111.04 132.21 111.15 132.32 111.49 132.37 111.75 132.51 112.23 132.52 112.49 132.46 112.63 132.35 112.74 132.25 112.92 132.21 113.81 132.16 113.95 132.11 114.08 132.03 114.18 131.93 114.26 131.8 114.32 131.38 114.45 131.26 114.53 131.16 114.65 131.08 114.83 130.99 115.16 131.01 115.5 131.09 115.9 131.3 116.62 131.44 116.94 131.57 117.15 131.9 117.36 132.21 117.67 132.45 118.04 132.62 118.21 132.79 118.3 133.29 118.32 133.43 118.35 133.57 118.39 133.87 118.38 134.03 118.36 134.52 118.38 134.67 118.41 134.8 118.47 134.92 118.56 135.16 118.8 135.28 118.86 135.4 118.85 135.5 118.78 135.56 118.66 135.62 118.36 135.68 118.23 135.77 118.14 135.89 118.08 135.99 117.99 136.15 117.99 136.35 118.08 137.74 119.38 137.84 119.54 137.88 119.69 137.93 120.13 137.99 120.45 138.08 120.59 138.35 120.62 138.39 121.15 138.16 121.71 137.85 122.3 137.76 122.61 137.75 122.84 137.97 123.49 137.93 123.64 137.84 123.74 137.55 123.78 137.42 123.78 137.07 123.69 136.92 123.67 136.76 123.67 136.56 123.75 136.32 123.88 135.93 124.19 135.76 124.38 135.66 124.6 135.47 125.23 135.28 125.49 134.93 125.83 134.76 126.08 134.68 126.3 134.68 126.47 134.56 127.18 134.16 128.76 134.22 129.47 134.22 129.78 134.13 130.35 134.06 130.63 133.98 130.83 133.47 131.49 133.43 131.68 133.43 131.84 133.84 132.51 134 132.72 134.09 132.82 134.19 132.9 134.31 132.96 134.46 132.98 134.86 132.96 137.07 132.02 137.69 131.93 137.88 132.1 137.99 132.18 138.11 132.25 138.65 132.44 139.77 132.68 140.03 132.79 140.18 132.91 140.35 133.08 140.64 133.28 142.04 133.8 142.18 133.86 142.29 133.94 142.38 134.03 142.44 134.16 142.49 134.29 142.56 134.4 142.65 134.49 142.75 134.56 142.84 134.66 143 134.9 143.14 135.03 143.37 135.17 143.6 135.29 144.55 135.94 144.81 136.02 145 136.02 145.28 135.85 145.51 135.78 145.63 135.85 145.7 135.97 145.73 136.29 145.79 136.45 145.89 136.6 146.04 136.78 146.2 136.84 146.33 136.82 146.48 136.73 146.64 136.65 146.96 136.62 147.1 136.69 147.19 136.83 147.24 137.4 147.27 137.48 147.36 137.71 147.51 137.95 147.81 138.35 148.47 138.98 148.63 139.2 148.68 139.32 148.7 139.46 148.7 139.61 148.64 139.9 148.65 140.06 148.7 140.23 149.17 140.7 149.3 140.93 149.67 141.81 149.78 141.97 149.93 142.15 150.22 142.43 150.37 142.47 150.48 142.42 150.5 142.27 150.37 141.37 150.4 141.23 150.46 141.12 150.55 141.03 150.65 140.96 150.75 140.86 150.93 140.63 151.11 140.32 151.22 140.05 151.32 139.62 151.33 139.46 151.32 139.29 151.29 139.14 150.94 138.05 150.61 137.42 150.61 137.39 150.59 137.35 150.53 137.16 150.5 137.02 150.5 136.86 150.55 136.54 150.63 136.25 150.65 136.09 150.66 135.92 150.63 135.6 150.54 135.33 150.47 135.23 150.38 135.13 150.27 135.06 150.03 134.92 149.93 134.84 149.84 134.74 149.78 134.63 149.74 134.49 149.68 134.18 149.67 134.02 149.69 133.85 149.85 132.92 149.91 132.79 149.99 132.69 150.18 132.51 150.26 132.41 150.4 132.18 150.45 132.05 150.5 131.89 150.55 131.58 150.57 131.25 150.45 130.64 150.44 130.48 150.3 129.7 150.31 129.53 150.38 129.51 150.74 129.64 150.86 129.72 150.96 129.8 151.04 129.9 151.13 129.99 151.25 130.05 151.39 130.08 154.36 130.2 154.92 130.32 155.19 130.43 155.36 130.53 155.36 130.53 155.28 130.58 154.95 130.7 154.62 130.93 153.78 132.04 153.42 132.67 153.38 133.39 153.65 134.66 155.16 138.41 155.01 139.43 154.09 138.87 153.4 140.04 152.97 141.86 152.82 143.19 152.86 144.7 152.74 145.43 152.03 145.45 151.63 145.97 151.29 146.67 151.13 147.23 151.16 148.03 151.38 148.72 152.95 152.14 153.1 152.65 153.8 153.66 155.19 154.97 156.14 156.34 155.57 157.52 156.96 157.24 154.97 161.45 154.76 163.12 155.43 168.15 155.71 168.95 155.9 169.76 155.02 179.6 155.29 181.21 156.61 184.1 158.5 186.62 163.31 191.37 163.38 191.41 163.38 191.41 163.25 191.69 162.88 192.25 162.81 192.33 161.91 192.77 161.76 192.99 161.75 193.16 161.84 193.27 161.91 193.33 162.25 193.51 162.34 193.58 162.44 193.68 162.54 193.81 162.63 193.96 162.7 194.12 162.72 194.22 162.7 194.36 162.63 194.61 162.58 194.73 162.47 194.93 162.42 194.98 162.27 195.11 162.17 195.22 162.14 195.31 162.16 195.49 162.35 196 162.37 196.08 162.34 196.17 162.3 196.23 162.04 196.53 161.96 196.69 161.87 196.94 161.85 197.03 161.84 197.12 161.86 197.18 161.92 197.3 162.02 197.37 162.14 197.44 162.49 197.53 162.62 197.58 162.75 197.65 162.95 197.89 163.07 198.1 163.16 198.33 163.21 198.58 163.22 198.75 163.21 199.05 163.17 199.2 163.13 199.32 162.69 199.9 162.63 200.01 162.59 200.11 162.59 200.19 162.61 200.35 162.65 200.52 162.5 200.57 162.15 200.43 156.35 196.99 156.25 196.9 156.03 196.59 155.69 196.22 155.49 196.05 153.2 195.17 152.68 194.81 152.17 194.55 151.62 194.54 149.88 194.9 143.81 197.16 143.66 197.18 143.44 197.13 137.04 194.5 135.59 193.32 129.82 186.39 129.24 186.04 127.11 185.18 125.35 184.59 124.93 182.68 124.65 182.25 124.55 182.3 124.45 182.37 124.36 182.45 124.25 182.51 124.11 182.53 123.99 182.5 123.87 182.44 115.67 176.86 114.46 175.3 114.39 175.19 112.78 173.44 112.51 173.25 109.4 172.76 109.09 172.68 104.02 171.04 102.38 170.24 102.01 170.14 101.77 170.13 101.69 170.24 101.6 170.33 101.49 170.39 101.04 170.47 100.9 170.51 100.78 170.58 100.47 170.82 100.09 170.98 99.72 171.08 99.52 171.07 99.39 170.99 99.34 170.87 99.31 170.71 99.29 170.23 99.27 170.08 99.22 169.95 99.17 169.82 99.02 169.37 98.92 169.19 98.71 168.97 98.55 168.88 98.39 168.84 97.84 168.9 97.09 168.87 96.86 168.81 96.72 168.76 96.58 168.64 96.49 168.56 96.29 168.39 96.06 168.26 95.95 168.19 95.88 168.09 95.83 167.95 95.82 167.79 95.67 167.54 95.38 167.25 94.62 166.75 94.26 166.57 94.02 166.53 93.93 166.62 93.88 166.76 93.85 166.9 93.81 167.03 93.73 167.13 93.6 167.21 93.5 167.27 93.3 167.45 92.23 167.33 92 167.26 90.5 166.52 90.09 166.41 89.96 166.37 89.81 166.29 87.16 162.87 87.62 161.76 87.97 161.13 88 160.95 88.01 160.74 87.71 159.42 87.66 159.29 87.56 159.05 87.29 158.59 87.22 158.46 87.18 158.32 87.14 158.17 87.13 158.02 87.19 157.74 87.32 157.37 88.02 156.05 88.13 155.97 88.25 155.91 88.52 155.82 88.63 155.76 88.73 155.67 88.81 155.56 88.87 155.37 89.15 154.13 89.13 153.75 88.75 153.17 88.15 152.34 87.98 151.92 87.95 151.78 87.9 151.65 87.83 151.54 87.66 151.34 87.59 151.23 87.43 150.86 87.19 150.64 85.8 149.84 85 149.53 84.84 149.51 84.52 149.49 84.37 149.5 84.15 149.44 83.48 149.06 83.22 148.95 82.7 148.48 81.55 146.68 81.15 146.06 80.81 145.9 80.65 145.88 80.51 145.84 80.41 145.63 80.37 145.27 80.57 143.57 80.56 143.12 80.51 142.8 80.37 142.47 80.04 142.1 79.89 141.88 79.66 141.2 79.41 138.22 79.34 137.85 78.91 137.4 78.9 137.36 78.86 137.23 78.98 136.52 79.84 134.07 78.83 132.69 78.46 132.33 78.3 132.26 77.99 132.05 77.86 132.02 77.74 132.04 77.41 132.22 77.28 132.22 77.13 131.97 76.96 131.49 76.74 130.44 76.71 129.98 76.73 129.68 76.88 129.48 76.91 129.37 76.86 129.23 76.66 129.12 76.27 129 76.16 128.96 75.59 128.82 75.19 128.64 75.07 128.57 74.98 128.43 74.94 128.22 75 127.75 75.06 127.5 75.13 127.31 75.15 127.15 75.09 126.97 74.9 126.74 74.75 126.61 74.53 126.14 74.46 124.46 74.31 124.04 74.17 123.92 73.87 123.73 73.73 123.61 73.68 123.41 73.71 123.27 73.78 123.14 73.94 122.93 74.05 122.66 74.09 122.52 74.21 122.28 74.24 122.15 74.23 122.01 74.19 121.87 74.08 121.75 73.92 121.67 73.44 121.58 71.56 121 71.28 121.09 71.11 121.04 70.93 120.89 70.48 120.22 69.97 119.86 70.34 119.28 70.58 119.03 70.69 118.95 70.79 118.8 70.88 118.59 71.01 118.21 71.34 117.49 71.47 117.37 71.61 117.31 71.72 117.24 71.77 117.09 71.75 116.86 71.58 116.47 71.18 116.08 71.1 115.96 71.06 115.84 70.85 115.04 70.81 114.72 70.88 114.06 71.47 112.49 73.1 112.91 73.57 113.09 74.17 113.6 74.29 113.74 74.82 114.13 75.29 114.22 75.54 114.22 75.67 114.13 75.69 113.97 75.69 113.8 75.71 113.64 75.77 113.51 75.9 113.41 76.41 113.28 76.54 113.21 76.78 113.13 77.26 113.04 77.79 113.11 78.07 113.18 78.23 113.29 78.31 113.38 78.44 113.49 78.63 113.61 79.23 113.82 79.4 113.91 79.69 114.21 80.15 114.61 80.75 114.51 81.07 114.65 81.24 114.81 81.49 114.82 82.4 114.56 82.69 114.45 82.9 114.34 83.15 114.04 83.27 113.8 83.48 113.59 83.83 113.36 85.05 112.69 85.32 112.51 85.64 112.11 85.9 112 86.82 111.8 87.08 111.69 87.25 111.57 87.32 111.46 87.38 111.33 87.53 110.76 87.58 110.43 87.54 109.59 87.69 108.64 87.7 108.47 87.64 107.45 87.68 107.19 87.82 106.82 87.93 106.63 88.11 106.5 88.32 106.44 88.67 106.38 88.89 106.39 89.06 106.43 89.17 106.51 89.25 106.61 89.3 106.73 89.34 106.88 89.37 107.21 89.37 107.57 89.39 107.73 89.42 107.88 89.49 107.99 89.61 108.05 89.76 108.07 90.08 108.1 90.21 108.15 90.32 108.22 90.41 108.31 90.48 108.44 90.52 108.57 90.54 108.72 90.54 108.88 90.56 109.03 90.63 109.16 90.75 109.24 90.97 109.27 91.13 109.33 91.25 109.4 91.44 109.56 92.13 109.96 92.24 110.04 92.32 110.15 92.38 110.27 92.42 110.41 92.43 110.57 92.43 110.73 92.36 111.03 92.34 111.16 92.36 111.31 92.55 111.83 92.61 111.95 92.71 112.08 92.87 112.19 93.14 112.29 93.28 112.25 93.36 112.15 93.38 111.67 93.4 111.51 93.45 111.38 93.58 111.13 93.81 110.81 94.24 110.4 94.35 110.26 94.46 110.02 94.87 108.21 94.9 107.88 94.89 107.54 94.86 107.4 94.83 107.25 94.85 107.06 94.94 106.84 95.23 106.48 95.4 106.4 95.53 106.42 95.66 106.65 95.78 106.75 95.93 106.81 96.2 106.81 96.36 106.7 96.56 106.48 96.68 106.4 96.77 106.39 96.86 106.45 96.95 106.54 97.34 107.08 97.44 107.14 97.6 107.15 97.74 107.14 97.88 107.16 97.99 107.22 98.19 107.39 98.44 107.57 98.87 107.55 101.1 106.59 101.43 106.54 101.52 106.62 101.6 106.73 101.85 107.36 101.87 107.5 101.88 107.81 101.9 107.96 101.95 108.08 102.04 108.18 103.51 109.3 103.76 109.59 103.83 109.7 103.88 109.83 103.91 109.98 103.92 110.15 103.94 110.29 103.99 110.42 104.09 110.52 104.21 110.58 104.35 110.62 104.47 110.68 104.56 110.76 104.64 110.87 104.75 111.11 104.82 111.23 104.99 111.33 105.14 111.4 105.97 111.51 106.4 110.98 106.53 110.89 106.79 110.76 107.67 110.51 107.97 110.48 108.2 110.49 109 110.98 109.22 111.07 109.52 111.15 110.17 111.26 110.47 111.25 110.67 111.18 110.91 110.66 110.98 110.56 111.35 110.2 111.83 109.59 111.89 109.47 111.92 109.33 111.89 109.19 111.83 109.09 111.79 108.95 111.83 108.79 112.2 108.45 112.54 108.31 113.09 108.21 113.37 108.2 113.59 108.23 113.86 108.34 114.04 108.38 114.26 108.41 114.63 108.39 114.85 108.41 115.02 108.45 115.12 108.54 115.33 108.87 115.51 109.06 116.22 109.46 116.61 109.77 116.77 109.86 116.97 109.93 117.32 110.01 117.53 110 117.7 109.94 117.99 109.76 118.23 109.57 118.32 109.47 118.52 109.31 118.61 109.22 118.69 109.12 118.85 108.84 119.01 108.65 119.17 108.61 119.3 108.63 119.41 108.71 119.51 108.81 119.58 108.9 119.72 108.99 119.89 109.05 120.5 109.1 121.04 109.21 121.2 109.17 121.31 109.07 121.36 108.94 121.39 108.8 121.37 108.47 121.26 107.86 121.21 107.73 121.06 107.5 121.02 107.38 121.01 107.24 121.05 107.11 121.11 106.98 121.24 106.74 121.29 106.6 121.31 106.46 121.3 106.3 121.31 106.12 121.37 105.94 121.55 105.72 121.72 105.64 121.87 105.64 122.01 105.69 122.42 106.02 122.76 106.13 123.56 106.17 Z" id="MYS-1147" data-name="Pahang"/>
<path d="M 66.62 176.82 65.98 176.98 65.7 176.62 66 176.05 66.75 175.76 67.09 176.16 66.93 176.61 66.62 176.82 Z M 67.27 179.36 66.96 179.46 66.89 179.2 66.96 178.77 67.95 176.3 68.5 175.45 69.22 175.16 69.73 175.4 69.79 175.94 69.74 176.23 69.8 176.75 69.69 177.68 69.13 178.2 68.35 178.51 67.74 178.93 67.51 179.16 67.27 179.36 Z M 54.92 146.68 55.1 146.7 55.39 146.62 55.51 146.53 55.58 146.43 55.62 146.15 55.66 146.01 55.73 145.9 55.81 145.82 55.92 145.77 55.98 145.76 56.27 145.76 56.37 145.73 56.45 145.69 56.62 145.58 56.73 145.53 56.87 145.52 57.02 145.58 57.16 145.77 57.22 145.94 57.33 146.09 57.49 146.17 57.82 146.16 58.18 146.07 58.31 146.06 58.44 146.11 58.52 146.29 58.47 146.76 58.52 147.03 58.52 147.18 58.53 147.32 58.57 147.43 58.66 147.46 58.78 147.36 58.94 147.12 59.04 147.03 59.27 146.91 59.37 146.84 59.46 146.75 59.53 146.64 59.62 146.54 59.73 146.48 59.82 146.49 59.89 146.64 59.91 146.93 59.95 147.06 60.03 147.15 60.21 147.33 60.28 147.42 60.31 147.54 60.23 147.62 60.04 147.64 59.67 147.56 59.48 147.57 59.39 147.64 59.4 147.77 59.41 147.9 59.4 148.03 59.32 148.28 59.35 148.36 59.45 148.36 59.73 148.12 59.89 148.08 60.07 148.12 60.3 148.22 60.51 148.23 61.03 147.96 61.13 147.81 61.18 147.65 61.21 147.51 61.31 147.44 61.46 147.46 61.82 147.76 61.89 147.91 61.86 148.16 61.9 148.28 61.98 148.37 62.1 148.4 62.21 148.38 62.3 148.23 62.39 148.14 62.52 148.13 62.69 148.28 62.79 148.41 63.06 148.91 63.18 148.98 63.34 149 63.63 148.9 63.94 148.7 64.07 148.67 64.23 148.7 64.45 148.88 64.69 149.15 64.81 149.21 64.98 149.22 65.56 148.94 65.84 148.92 66.21 149.14 66.21 149.48 66.18 149.61 66.16 149.78 66.16 149.94 66.18 150.09 66.21 150.23 66.33 150.49 66.39 150.6 66.48 150.7 66.59 150.78 66.71 150.84 66.86 150.88 67.52 150.86 68.52 150.66 68.91 150.53 69.78 150.02 70.17 149.46 70.09 148.76 69.91 148.04 69.71 147.49 69.64 147.39 69.39 147.11 69.31 147.01 69.28 146.9 69.31 146.78 69.37 146.66 69.47 146.4 69.51 146.26 69.57 146.13 69.64 146.03 69.75 145.95 69.95 145.88 70.21 145.81 70.77 145.75 71.11 145.79 71.52 145.98 71.67 146.13 71.77 146.29 71.81 146.43 71.86 146.56 71.93 146.68 72.02 146.78 72.12 146.86 72.23 146.93 72.34 146.98 72.51 147.09 72.63 147.19 72.76 147.28 73.01 147.42 73.32 147.51 73.81 147.59 73.93 147.62 74.03 147.69 74.13 147.78 74.46 148.16 74.53 148.27 74.73 148.8 74.78 148.9 74.83 148.96 74.92 149.02 75.28 149.12 75.41 149.2 75.51 149.29 75.58 149.4 75.67 149.5 75.77 149.58 75.88 149.65 76.13 149.77 76.24 149.85 76.34 149.94 76.59 150.37 76.64 150.44 76.71 150.51 76.82 150.57 76.97 150.61 77.23 150.58 77.4 150.53 77.74 150.34 78.15 150.05 78.98 149.22 80.41 147.38 80.53 147.18 80.7 146.99 80.8 146.9 81.55 146.68 82.7 148.48 83.22 148.95 83.48 149.06 84.15 149.44 84.37 149.5 84.52 149.49 84.84 149.51 85 149.53 85.8 149.84 87.19 150.64 87.43 150.86 87.59 151.23 87.66 151.34 87.83 151.54 87.9 151.65 87.95 151.78 87.98 151.92 88.15 152.34 88.75 153.17 89.13 153.75 89.15 154.13 88.87 155.37 88.81 155.56 88.73 155.67 88.63 155.76 88.52 155.82 88.25 155.91 88.13 155.97 88.02 156.05 87.32 157.37 87.19 157.74 87.13 158.02 87.14 158.17 87.18 158.32 87.22 158.46 87.29 158.59 87.56 159.05 87.66 159.29 87.71 159.42 88.01 160.74 88 160.95 87.97 161.13 87.62 161.76 87.16 162.87 89.81 166.29 89.96 166.37 90.09 166.41 90.5 166.52 92 167.26 92.23 167.33 93.3 167.45 93.55 167.48 93.77 167.61 93.86 167.7 94.01 167.92 94.15 168.32 94.41 168.79 94.51 169.05 94.53 169.2 94.55 169.36 94.43 170.43 94.46 170.6 94.49 170.75 94.65 171.13 94.92 171.58 94.97 171.72 95.03 171.85 95.12 172.11 95.16 172.25 95.18 172.57 94.95 173.82 94.92 174.41 95.02 175.02 95.06 175.68 95.23 176.24 95.27 176.54 95.23 176.7 95.13 176.84 94.91 176.96 94.59 177.1 94.47 177.16 94.36 177.33 94.24 177.59 94.09 178.12 93.98 178.66 94 178.99 93.99 179.15 93.92 179.43 93.83 179.59 93.68 179.74 92.92 180.28 92.84 180.37 92.75 180.51 92.65 180.72 92.46 181.48 92.31 182.45 92.18 182.89 92.05 183.07 91.83 183.29 91.34 183.65 91.06 183.8 90.82 183.87 90.67 183.86 89.16 183.57 87.92 183.48 87.58 183.5 87.01 183.59 86.94 183.62 86.92 183.98 86.96 184.6 87.39 187.04 87.47 188.69 86.49 190.85 86.14 191.43 86.08 191.61 86.02 192.32 85.95 192.62 85.71 192.96 85.48 193.46 85.38 194.47 85.38 194.47 85.06 194.44 84.56 194.14 84.15 193.7 83.44 193.2 81.2 192.8 80.37 192.42 79 192.19 78.11 191.81 76.5 190.67 75.56 189.55 73.55 186.48 72.29 185.4 70.5 184.99 68.69 184.81 67.71 184.16 68.4 182.32 67.49 182.2 67.57 181.66 69.59 179.17 70.18 178.64 70.76 178.41 71.22 177.95 71.22 176.9 70.9 174.94 70.64 174.42 69.47 173.5 69.21 172.99 68.4 167.69 68.16 166.88 67.58 166.22 66.18 165.04 66.02 164.73 65.88 164.36 65.65 164.06 64.83 163.85 64.43 163.66 64.1 163.44 63.96 163.25 63.67 162.59 61.74 160.05 60.47 158.78 60.22 158.42 59.89 157.49 59.08 156.32 58.69 154.51 58.39 153.64 57.71 152.76 54.76 150.73 53.76 150.3 53.37 150.03 53.14 149.73 52.51 148.62 51.45 147.3 50.77 146.83 48.87 146.5 48.44 146.07 48.48 145.38 48.9 144.43 49.59 143.79 49.59 143.79 49.74 143.72 50.5 143.51 51.98 143.39 53.13 143.07 53.44 143.02 53.61 143.05 53.73 143.13 53.84 143.34 53.84 143.5 53.82 143.66 53.77 143.79 53.73 143.92 53.72 144.06 53.76 144.18 53.83 144.28 54.83 144.9 55.03 145.1 55.1 145.27 55.04 145.39 54.88 145.6 54.76 145.82 54.66 146.08 54.64 146.24 54.65 146.38 54.7 146.51 54.78 146.62 54.92 146.68 Z M 83.31 176.59 83.56 176.62 83.83 176.62 84.93 176.47 85.2 176.5 85.33 176.54 85.41 176.62 85.48 176.74 85.55 176.9 85.65 176.95 85.78 176.83 85.87 176.66 85.94 176.43 86.04 176.29 86.15 176.24 86.3 176.24 86.45 176.19 86.57 176.09 86.63 175.92 86.64 175.7 86.47 174.15 86.28 173.38 86.22 172.91 86.24 172.64 86.34 172.51 86.5 172.36 86.56 172.19 86.62 171.62 86.71 171.45 86.98 171.19 87.05 171.07 87.08 170.89 87.05 170.65 86.98 170.4 86.8 170.05 86.63 169.62 86.49 169.46 86.4 169.32 86.25 169.26 86.07 169.27 85.68 169.44 85.48 169.6 85.19 169.67 84.86 169.63 83.9 169.19 83.43 168.66 83.24 168.61 83.1 168.63 83.05 168.66 82.97 168.75 82.7 168.97 82.18 169.23 82.11 169.29 82.06 169.36 81.93 169.65 81.36 170.64 81.34 170.78 81.46 172.19 81.51 172.33 81.68 172.63 81.76 172.74 81.88 172.87 82 172.97 82.52 173.28 82.64 173.41 82.73 173.59 82.77 173.77 82.78 173.99 82.81 174.08 82.84 174.13 82.9 174.17 82.95 174.23 83.02 174.31 83.11 174.55 83.13 174.7 83.12 174.84 83.08 174.94 82.85 175.24 82.77 175.38 82.73 175.53 82.75 175.71 82.86 176 82.91 176.22 82.98 176.39 83.1 176.52 83.31 176.59 Z M 83.59 183.11 83.77 183.16 84.06 183.08 84.64 182.57 84.82 182.29 84.96 181.95 85.75 180.94 85.78 180.23 85.48 179.83 85.17 179.53 85.05 178.81 84.73 179.01 84.56 179.06 84.33 179.18 83.73 179.3 83.46 179.42 83.36 179.66 83.45 179.89 83.61 180.12 83.63 180.3 83.5 180.45 83.47 180.72 83.62 181.34 83.6 181.55 83.52 181.68 83.43 181.87 83.32 181.98 83.17 182.36 83.22 182.65 83.39 182.96 83.59 183.11 Z" fill-rule="evenodd" id="MYS-1148" data-name="Selangor"/>
<path d="M 155.36 130.53 155.19 130.43 154.92 130.32 154.36 130.2 151.39 130.08 151.25 130.05 151.13 129.99 151.04 129.9 150.96 129.8 150.86 129.72 150.74 129.64 150.38 129.51 150.31 129.53 150.3 129.7 150.44 130.48 150.45 130.64 150.57 131.25 150.55 131.58 150.5 131.89 150.45 132.05 150.4 132.18 150.26 132.41 150.18 132.51 149.99 132.69 149.91 132.79 149.85 132.92 149.69 133.85 149.67 134.02 149.68 134.18 149.74 134.49 149.78 134.63 149.84 134.74 149.93 134.84 150.03 134.92 150.27 135.06 150.38 135.13 150.47 135.23 150.54 135.33 150.63 135.6 150.66 135.92 150.65 136.09 150.63 136.25 150.55 136.54 150.5 136.86 150.5 137.02 150.53 137.16 150.59 137.35 150.61 137.39 150.61 137.42 150.94 138.05 151.29 139.14 151.32 139.29 151.33 139.46 151.32 139.62 151.22 140.05 151.11 140.32 150.93 140.63 150.75 140.86 150.65 140.96 150.55 141.03 150.46 141.12 150.4 141.23 150.37 141.37 150.5 142.27 150.48 142.42 150.37 142.47 150.22 142.43 149.93 142.15 149.78 141.97 149.67 141.81 149.3 140.93 149.17 140.7 148.7 140.23 148.65 140.06 148.64 139.9 148.7 139.61 148.7 139.46 148.68 139.32 148.63 139.2 148.47 138.98 147.81 138.35 147.51 137.95 147.36 137.71 147.27 137.48 147.24 137.4 147.19 136.83 147.1 136.69 146.96 136.62 146.64 136.65 146.48 136.73 146.33 136.82 146.2 136.84 146.04 136.78 145.89 136.6 145.79 136.45 145.73 136.29 145.7 135.97 145.63 135.85 145.51 135.78 145.28 135.85 145 136.02 144.81 136.02 144.55 135.94 143.6 135.29 143.37 135.17 143.14 135.03 143 134.9 142.84 134.66 142.75 134.56 142.65 134.49 142.56 134.4 142.49 134.29 142.44 134.16 142.38 134.03 142.29 133.94 142.18 133.86 142.04 133.8 140.64 133.28 140.35 133.08 140.18 132.91 140.03 132.79 139.77 132.68 138.65 132.44 138.11 132.25 137.99 132.18 137.88 132.1 137.69 131.93 137.07 132.02 134.86 132.96 134.46 132.98 134.31 132.96 134.19 132.9 134.09 132.82 134 132.72 133.84 132.51 133.43 131.84 133.43 131.68 133.47 131.49 133.98 130.83 134.06 130.63 134.13 130.35 134.22 129.78 134.22 129.47 134.16 128.76 134.56 127.18 134.68 126.47 134.68 126.3 134.76 126.08 134.93 125.83 135.28 125.49 135.47 125.23 135.66 124.6 135.76 124.38 135.93 124.19 136.32 123.88 136.56 123.75 136.76 123.67 136.92 123.67 137.07 123.69 137.42 123.78 137.55 123.78 137.84 123.74 137.93 123.64 137.97 123.49 137.75 122.84 137.76 122.61 137.85 122.3 138.16 121.71 138.39 121.15 138.35 120.62 138.08 120.59 137.99 120.45 137.93 120.13 137.88 119.69 137.84 119.54 137.74 119.38 136.35 118.08 136.15 117.99 135.99 117.99 135.89 118.08 135.77 118.14 135.68 118.23 135.62 118.36 135.56 118.66 135.5 118.78 135.4 118.85 135.28 118.86 135.16 118.8 134.92 118.56 134.8 118.47 134.67 118.41 134.52 118.38 134.03 118.36 133.87 118.38 133.57 118.39 133.43 118.35 133.29 118.32 132.79 118.3 132.62 118.21 132.45 118.04 132.21 117.67 131.9 117.36 131.57 117.15 131.44 116.94 131.3 116.62 131.09 115.9 131.01 115.5 130.99 115.16 131.08 114.83 131.16 114.65 131.26 114.53 131.38 114.45 131.8 114.32 131.93 114.26 132.03 114.18 132.11 114.08 132.16 113.95 132.21 113.81 132.25 112.92 132.35 112.74 132.46 112.63 132.52 112.49 132.51 112.23 132.37 111.75 132.32 111.49 132.21 111.15 132.14 111.04 131.77 110.61 131.01 109.93 130.41 109.72 129.27 109.86 128.57 109.85 127.83 109.75 127.58 109.67 127.32 109.62 126.57 109.38 126.16 109.15 125.41 108.6 124.77 108.24 124.43 107.8 123.56 106.17 123.8 105.57 123.75 105.26 123.39 104.39 123.27 104.22 123.14 104.08 122.93 103.77 122.85 103.45 122.8 102.88 122.71 102.65 122.57 102.51 122.28 102.44 122.13 102.38 120.11 100.95 119.1 100.5 118.95 100.46 118.81 100.45 118.68 100.48 118.59 100.57 118.51 100.67 118.37 100.75 118.18 100.75 117.74 100.57 117.57 100.4 117.49 100.2 117.55 99.41 117.62 99.09 117.52 98.43 117.14 97.29 117.07 96.97 117.06 96.78 117.06 96.74 117.05 96.72 117.05 96.69 117.06 96.61 117.1 96.51 117.18 96.41 117.28 96.33 117.4 96.27 117.53 96.22 117.61 96.08 117.65 95.87 117.17 93.9 117.16 93.67 117.24 93.56 117.35 93.5 117.65 93.42 117.76 93.37 117.83 93.25 117.85 93.11 117.88 92.97 117.94 92.86 118.12 92.62 118.2 92.44 118.11 92.36 117.79 92.12 117.4 91.68 117.26 91.57 117.14 91.5 117.01 91.45 116.84 91.34 116.65 91.2 116.08 90.55 115.97 90.47 115.65 90.32 115.47 90.15 115.32 90.06 115.15 90.02 115 90.01 114.84 89.99 114.72 89.93 114.51 89.77 114.4 89.7 113.86 89.57 113.57 89.44 113.48 89.28 113.46 89.11 113.71 88.43 113.78 88.15 113.79 87.99 113.79 87.83 113.68 87.21 113.76 84.86 113.88 83.93 113.94 83.76 114.41 82.76 114.61 81.74 114.53 81.37 114.37 81.17 113.47 80.43 112.81 79.62 112.73 79.39 112.77 79.24 112.91 79.2 112.98 78.82 112.96 78.16 112.67 75.76 112.7 75.35 113.03 75.14 113.11 75.03 113.16 74.89 113.09 72.7 113.21 72.02 113.19 71.79 113.08 71.39 112.97 71.12 112.41 68.87 112.62 68.35 114.05 66.84 117.16 63.94 118.65 62.08 118.74 62.01 118.74 62.01 119.09 62.28 121.23 63.61 122.17 64.35 122.97 65.34 123.5 66.65 123.91 67.28 125.02 67.78 132.3 73.53 134.03 74.38 135.71 74.72 136.37 75.16 138.48 77.02 142.25 81.25 146.4 87.77 147.82 91.22 151.85 97.96 154.24 102.31 154.48 103.09 154.64 103.37 155.35 104.21 155.57 104.62 155.59 105.08 155.29 106.28 155.35 107.21 155.75 108.9 156.44 115.04 156.39 115.98 155.99 116.74 155.71 117.55 156.21 119.36 156.12 119.96 157.44 123.72 157.54 124.95 157.43 125.4 156.88 126.82 156.56 127.31 156.29 127.56 155.72 128.25 155.57 128.56 155.58 128.91 155.85 129.97 155.59 130.39 155.36 130.53 Z" id="MYS-1149" data-name="Trengganu"/>
<path d="M 743.27 131.03 741.06 131.01 738.25 131.01 736.4 131.01 735 130.76 734.74 130.53 732.58 128.65 732.42 128.15 732.73 127.62 733.46 127.11 734.29 126.72 734.92 126.53 735.68 126.57 737.15 127.05 737.88 127.17 738.33 127.37 738.72 127.84 739.26 128.7 739.64 129.08 739.99 129.29 740.39 129.39 740.95 129.42 742.83 130.03 743.01 130.43 743.02 130.44 743.27 131.03 Z M 774.76 119.63 774.48 119.65 774.25 119.52 774.25 119.39 774.2 118.54 774.01 118.33 773.52 117.93 773.37 117.71 773.23 117.27 773.37 117.16 773.8 117.15 773.9 117.15 774.49 117.14 776.57 117.41 777.49 117.67 777.94 118.24 777.78 118.82 776.85 119.07 775.33 119.07 774.76 119.63 Z M 767.1 110.5 767.79 111.03 768.34 110.34 769.39 110.36 770.54 110.77 771.42 111.28 771.42 111.58 770.82 111.63 770.44 111.9 770.26 112.36 770.31 112.97 769.53 112.25 769.33 112.14 769.12 112.32 768.98 112.69 768.8 112.96 768.49 112.83 767.86 112.35 767.2 112.04 766.56 111.88 766.01 111.83 765.86 111.76 765.49 111.41 765.3 111.28 763.91 111.03 761.13 110.17 761.13 109.91 764.34 109.91 764.78 109.79 765.07 109.51 765.3 109.22 765.6 109.06 766.4 109.2 766.77 109.78 767.1 110.5 Z M 755 63.41 754.74 63.43 754.44 63.41 754.06 63.31 753.78 63.12 753.71 62.84 753.96 62.46 754.41 62.15 754.9 62.01 755.97 61.98 756.52 62.16 756.65 62.55 756.43 62.94 755.97 63.12 755.71 63.16 755 63.41 Z M 724.41 30.27 723.17 30.3 721.92 30.12 720.88 29.77 720.51 29.49 720.36 29.14 720.47 28.78 720.83 28.48 721.26 28.34 723.32 28.25 723.97 28.09 724.45 27.71 724.62 27.04 724.26 26.68 722.81 26.61 722.66 26.06 723.14 25.57 724.8 25.35 725.46 24.95 726.48 26.22 727.16 27.48 727 28.73 725.46 29.97 724.41 30.27 Z M 729.46 130.91 729.1 130.59 728.44 130.33 727.32 130.41 726.66 130.38 725.27 130.17 724.15 129.86 723.19 129.27 720.9 126.85 717.61 125.17 716.11 124.11 715.78 123.69 715.54 123.31 715.23 123.03 714.64 122.93 714.14 123.05 713.49 123.64 713.1 123.86 705.62 124 703.33 123.38 701.65 123.38 698.46 123.98 696.9 123.64 695.41 122.59 694.68 122.49 693.4 123.58 692.63 123.81 691.85 123.83 690.78 123.41 689.75 123.94 689.21 123.9 687.43 121.33 686.98 121.27 686.71 121.79 685.85 122.64 685.53 123.22 685.55 123.64 685.75 123.93 685.84 124.2 685.51 124.52 684.8 124.7 684.34 124.52 683.9 124.5 682.9 125.54 682.48 125.67 682.05 125.61 681.65 125.42 680.61 123.67 680.46 123.16 680.32 122.95 680.04 122.85 679.75 122.89 679.48 122.88 678.39 121.82 677.35 122.02 676.21 122.6 675.06 122.92 674.5 122.85 672.67 122.36 671.73 122.31 671.31 122.24 670.87 122 670.53 122.88 670.23 123.37 669.8 123.72 669.06 124.17 667.11 126.11 666.6 126.39 665.92 126.15 665.5 125.66 665.25 125.01 665.09 124.34 664.83 124.04 664.33 123.76 663.36 123.4 661.64 123.29 660.83 123.09 660.45 122.5 660.27 121.85 659.91 121.52 659.42 121.58 658.89 122.11 658.49 123.4 658.52 124.75 658.34 125.97 656.79 127.28 656.63 127.8 656.44 128.23 655.88 128.37 655.48 128.15 655.2 127.8 654.89 127.67 653.15 129.27 652.87 129.65 652.59 129.91 651.77 130.14 651.41 130.53 651.09 131.47 651.09 131.46 650.89 131.14 650.72 130.62 650.59 129.97 650.55 129 650.63 128.42 650.81 127.95 652.03 126.35 652.2 126.01 652.49 125.14 652.56 124.7 652.49 124.26 652.26 123.74 651.71 123.03 651.29 122.67 650.96 122.45 650.65 122.34 650 122.2 649.67 122.1 649.37 121.94 649.12 121.62 648.92 121.16 648.85 120.45 648.88 119.49 648.85 119.17 648.72 118.8 648.11 117.79 647.88 117.2 647.75 114.09 647.8 113.76 647.87 113.55 649.19 111.24 649.33 110.82 649.41 110.41 649.53 108.99 649.69 108.22 649.82 107.86 650.01 107.53 650.84 106.72 651.06 106.36 651.25 105.92 651.88 103.87 651.89 103.45 651.86 103.01 650.97 99.17 650.72 98.73 650.41 98.47 649.88 98.36 649.14 98.37 647.97 98.56 646.01 98.68 642.26 98.29 642.25 98.28 643.31 97.35 644.61 95.7 645.12 95.43 645.94 95.3 646.73 94.94 647.37 94.48 647.75 94.02 648 93.37 648.27 91.72 648.33 90.25 648.42 89.86 648.86 89.03 649.2 88.68 649.55 88.44 649.71 88.13 649.44 87.59 647.91 88.31 646.4 88.27 645.02 87.69 641.4 84.56 641.29 84.18 641.39 83.83 641.36 83.58 640.93 83.48 640.75 83.57 639.96 84.26 639.73 83.76 639.85 83.18 640.1 82.56 640.36 81.23 640.65 80.69 640.94 80.26 641.07 79.96 641.55 79.52 643.66 78.29 644.15 77.46 644.6 76.85 647.47 74.8 648.9 71.71 649.7 70.91 650.27 71.84 648.86 74.46 649.7 75.63 649.91 75.21 650.09 74.1 650.28 73.66 651.67 74.86 652.51 75.24 656.1 75.49 657.27 75.42 658.35 75.07 659.61 73.99 660.65 72.39 661.46 70.61 661.96 68.97 662.27 67.19 662.5 66.4 662.94 65.74 663.54 65.26 667.19 63.22 667.82 62.52 668.09 61.59 668.21 59.71 668.46 58.93 670.95 54.9 671.52 53.14 670.89 51.94 669.98 52.26 669.66 51.73 670.07 50.97 671.3 50.58 672.02 50.12 673.94 47.25 674.81 46.47 675.33 46.21 676.01 46.11 676.49 46.28 677.1 46.56 677.61 46.65 677.83 46.25 677.66 44.9 677.16 44.79 676.38 45.16 675.35 45.28 675.35 45.03 676.46 44.45 677.1 43.75 677.27 43.61 677.57 43.56 678.38 43.61 678.77 43.37 678.85 43.23 678.84 43.01 679.2 41.71 679.3 41.45 679.51 41.12 679.89 40.68 683.5 37.94 684.11 37.33 684.84 36.77 685.61 36.42 686.21 35.98 686.45 35.11 686.48 34.38 686.62 33.6 686.92 32.99 687.46 32.74 688.18 32.19 690.7 28.83 691.31 28.25 691.73 27.68 691.98 26.97 692.06 25.93 691.99 24.55 692.06 24.14 692.22 23.82 692.72 23.14 692.89 22.73 692.82 21.17 692.96 20.48 694.11 19.94 694.45 19.31 694.83 17.71 694.88 16.81 694.98 16.46 695.27 16.32 695.44 16.18 695.88 15.52 696.1 15.04 696.45 14.7 696.89 14.44 697.35 14.37 697.48 14.54 697.9 15.46 699.58 16.55 699.83 17 700.38 19.92 699.63 19.49 699.19 19.36 698.99 19.52 698.73 20.79 698.71 21.04 699.18 21.44 699.83 21.66 700.4 22.02 700.66 22.86 700.5 24.46 700.06 25.53 698.71 27.47 697.98 28.88 697.4 30.64 697.62 32.06 699.27 32.46 700.12 32.04 700.76 31.29 701.24 30.57 701.65 30.24 702.21 30.01 704.01 28.27 705.34 27.33 705.6 26.83 705.76 25.42 705.96 25.25 706.23 25.17 706.51 24.95 707.07 23.84 708.54 22.34 708.76 21.74 708.51 20.9 707.6 19.12 707.65 18.26 707.97 17.79 708.3 17.75 708.67 17.88 709.17 17.98 709.52 17.85 709.79 17.56 709.9 17.26 709.74 17.13 709.43 16.93 709.35 16.51 709.43 16.04 709.59 15.76 710.02 15.68 710.5 15.8 710.96 15.98 711.28 16.04 711.63 15.84 712.25 15.31 712.51 15.33 712.83 15.51 713.86 15.95 714.19 16.04 714.33 16.2 716.43 17.47 716.67 17.66 716.83 17.98 716.86 18.68 716.61 20.63 716.43 21.04 715.87 21.34 715.69 22.04 715.77 22.88 716 23.56 717.46 25.47 717.69 26.21 717.8 28.73 717.97 29.39 718.43 30.24 718.96 30.55 720.6 30.5 721.23 30.7 721.78 31.17 722.66 32.18 723.67 33.12 724.38 33.63 725.04 33.85 725.71 33.69 726.15 33.25 727.13 31.63 727.76 30.87 728.1 30.86 728.23 31.49 728.26 32.6 728.43 32.63 729.37 33.57 729.21 33.52 729.1 33.7 729.06 33.97 729.09 34.15 729.24 34.23 729.76 34.36 729.92 34.43 730.53 34.99 730.93 35.19 731.45 35.26 732.02 34.98 732.45 34.9 732.85 35.11 733.83 36.23 734.26 36.88 734.67 37.76 734.94 37.76 735.09 37.41 735.29 37.26 735.52 37.29 735.77 37.48 735.96 37.77 736.01 38.07 736 38.44 736.06 38.9 736.19 39.27 736.56 39.98 736.64 40.26 736.48 40.64 736.2 41 736.02 41.38 736.43 42.46 736.06 45.15 735.79 45.76 735.18 45.83 733.83 45.58 733.08 45.83 732.34 46.33 731.17 47.38 730.81 48.07 731.02 48.72 731.89 49.75 732.55 51.33 733.15 51.58 733.28 51.81 733.34 52.21 733.44 52.52 733.46 52.86 733.28 53.35 732.94 53.7 732.56 53.82 732.26 54 732.15 54.49 732.41 55.16 732.99 55.3 733.57 55.56 733.83 56.56 733.6 57.22 733.01 57.79 731.59 58.65 726.44 60.39 725.46 61.45 726.18 61.32 728.51 60.32 729.55 60.05 732.42 60.04 735.14 59.7 737.16 59.92 737.88 59.85 738.12 59.38 737.77 58.37 738.2 58.11 738.62 58.14 739.1 58.28 739.69 58.37 740.41 58.32 742.34 57.95 742.74 57.68 742.99 57.17 743.55 56.66 744.66 55.88 745.98 54.17 746.7 53.8 746.87 53.6 747.16 53.48 747.74 53.63 749.12 55.04 749.21 55.44 749.18 55.89 749.23 56.26 749.94 56.62 750.04 57.11 749.98 57.95 750.19 58.89 751.89 61.17 752.11 61.38 752.14 61.64 750.95 63.25 750.35 63.61 749.44 63.87 748.49 63.92 747.74 63.65 747.05 63.87 744.53 63.65 743.85 63.87 743.41 64.36 743.33 64.86 743.71 65.08 743.88 65.39 745.1 68.54 745.44 68.82 745.62 68.86 745.85 68.77 746.35 68.66 746.97 68.47 748.59 67.72 749.27 67.56 749.6 67.63 749.88 67.98 750.26 68.11 750.57 68.04 750.96 67.87 751.38 67.79 751.78 67.97 752.2 68.56 752.5 68.72 752.89 68.54 753.21 68.09 753.21 67.73 753.03 67.3 753.3 66.59 753.48 66.31 753.74 66.02 753.85 65.68 753.53 64.94 753.59 64.5 754.22 64.03 756.03 63.85 757.71 63.1 758.58 63.29 760.7 64.41 760.9 64.47 761.1 64.3 761.55 63.8 761.9 63.68 762.31 63.83 762.68 64.08 762.94 64.2 763.74 64.39 767.9 66.81 769.33 67.97 769.89 68.31 770.6 68.64 771.19 69.03 771.42 69.55 771.27 69.95 770.98 70.19 770.7 70.33 770.56 70.48 770.17 72.79 769.89 73.67 769.77 74.53 770.03 75.38 770.31 75.38 770.72 74.34 770.97 73.88 771.27 73.53 771.46 73.13 771.4 72.04 771.56 71.6 772.62 70.88 773.51 70.89 774.29 71.43 776.21 73.75 776.99 74.49 777.69 74.8 778.77 74.99 779.57 75.53 780.1 76.33 780.35 77.32 780.66 77.1 780.83 76.89 780.9 76.62 780.88 76.21 782.8 77.66 783.55 77.87 784.4 78.26 785.08 79.11 785.24 79.97 784.52 80.37 784.96 80.73 785.59 80.96 786.26 80.97 786.74 80.67 786.85 80.12 786.62 79.7 786.51 79.35 787.04 79.01 788.03 79.04 789.96 80.05 791.18 80.09 794.36 78.59 795.39 78.43 796.02 78.73 796.62 79.36 797.59 80.67 798.47 81.54 798.84 82.07 799 82.75 798.91 83.63 798.53 84.97 798.44 85.67 798.64 87.56 798.55 88.58 797.62 89.38 795.65 91.52 794.04 92.44 786.61 95.13 779.02 97.32 777.57 98.21 776.61 98.63 775.6 98.92 774.75 99.02 774.12 98.87 772.84 98.33 771.67 98.14 770.83 97.9 770.31 97.91 769.82 98.08 768.62 99.02 767.74 99.56 767.35 99.54 766.82 99.17 766.59 98.87 765.86 97.62 764.46 95.99 763.19 95.34 762.34 95.08 761.96 95.3 761.57 95.18 760.7 95.73 759.44 96.8 759.11 96.57 758.91 96.72 758.83 97.12 758.89 97.65 757.32 97.28 755.87 98.14 753.59 100.71 752.9 101.21 752.6 101.54 752.48 101.97 752.54 102.46 752.7 102.63 752.98 102.72 754.02 103.4 754.29 103.63 754.52 103.99 754.98 105.17 755.95 106.66 757.07 107.98 758.33 109.14 759.74 110.17 760.27 110.66 760.61 110.92 760.98 111.03 761.35 111.04 762.2 111.15 762.52 111.28 762.71 111.52 763.03 112.27 763.22 112.55 763.47 112.77 763.76 112.95 764.46 113.24 764.56 112.55 765.12 112.4 765.85 112.6 766.43 112.97 766.86 113.52 766.95 114.02 766.74 114.53 766.29 115.05 766.13 115.57 766.49 116.02 766.98 116.41 767.24 116.74 767.57 116.98 768.32 116.6 769.48 115.74 769.94 115.97 770.93 116.11 771.42 116.3 771.19 116.85 771.67 117.61 773.28 119.35 773.3 119.65 772.95 120.08 772.5 120.36 772.15 120.3 771.75 120.1 771.12 119.96 771.33 120.64 771.15 121.25 770.74 121.77 770.31 122.17 769.69 122.62 769.11 122.77 767.51 122.71 766.83 122.79 765.52 123.16 764.74 123.29 762.98 123.32 762.05 123.15 761.41 122.71 760.88 123.41 760.57 123.62 756.89 124.65 753.59 124.95 752.62 125.26 747.24 127.98 746.35 128 743.84 127.27 743.17 127.17 742.67 126.95 741.1 125.51 740.53 125.17 740.19 125.02 739.84 124.95 739.69 124.78 739.41 124.02 739.26 123.84 738.71 123.79 737.44 123.29 736.42 123.1 736.06 122.98 735.16 122.36 734.7 121.64 734.33 120.85 733.68 120.08 733.07 120.16 732.18 120.73 731.39 121.42 731.03 121.87 731.18 122.22 731.96 122.7 732.15 123.13 732.15 124.81 732.3 125.25 732.91 125.82 732.97 126.34 732.79 126.8 732.44 127.18 731.59 127.75 731.32 128.01 731.12 128.37 730.88 128.65 730.75 128.99 730.9 129.2 731.62 129.89 731.89 130.23 731.48 130.19 731.13 130.24 729.46 130.91 Z M 707.33 2.5 707.23 3.49 706.81 4.08 706.06 3.38 705.46 3.66 705.24 4.43 705.68 5.16 701.79 6.14 701.98 6.52 702.33 6.74 702.55 6.97 702.35 7.41 701.97 7.59 701.4 7.64 700.81 7.57 700.38 7.41 702.35 3.78 702.93 3.51 704.29 3.19 704.85 2.95 706.51 1 707.09 1.54 707.33 2.5 Z M 717.07 7.25 716.45 8.02 715.74 7.66 714.98 7.97 712.62 8.43 712.11 8.65 711.88 8.88 710.8 9.38 710.42 9.63 710.15 10.1 709.98 10.55 709.75 10.96 709.31 11.3 709.01 10.31 708.7 7.22 708.9 6.55 709.05 6.26 709.01 4.46 709.16 4.08 709.38 3.88 710.02 3.66 710.42 3.44 711.4 2.45 712.31 1.82 712.82 1.61 713.36 1.53 716.41 1 717.38 1.28 717.86 1.95 717.92 2.91 717.52 6.03 717.07 7.25 Z" fill-rule="evenodd" id="MYS-1186" data-name="Sabah"/>
<path d="M 479.29 202.95 479.33 203.32 479.21 203.56 478.82 203.33 478.42 203.16 478.05 203.33 477.74 203.69 477.56 204.07 477.13 203.53 476.45 201.87 476.02 201.52 475.24 201.16 475.05 200.31 475.36 198.52 475.44 196.87 474.68 190.13 474.76 188.1 475.35 186.81 476.75 187.34 477.58 188.62 478.02 190.32 478.05 197.42 478.4 200.44 479.25 202.8 479.29 202.95 Z M 651.09 131.47 650.85 132.17 650.4 135.76 649.89 137.52 649.11 139.11 648.73 139.56 647.3 140.34 647.01 140.63 646.99 141.55 647.63 142.13 648.47 142.6 649.04 143.19 649.07 144.53 647.49 149.26 647.25 150.85 647.24 152.47 647.41 153.44 648.42 155.89 648.46 156.32 648.38 157.14 648.39 157.55 648.53 158.06 649.2 159.27 649.53 160.11 649.55 160.56 649.32 160.94 648.89 161.1 648.53 161 648.16 160.82 647.76 160.75 646.89 161.64 646.15 163.53 644.74 169.65 644.77 170.36 645.41 171.14 646.02 171.35 646.13 171.65 644.71 173.54 644.46 174.26 644.3 175.99 643.98 176.79 643.32 177.07 641.65 177.25 638.99 178.41 637.71 178.62 636.55 178.06 635.51 176.52 634.95 176.35 634.26 177.4 633.57 178.83 633.1 179.36 630.76 180.95 630.1 181.58 629.57 182.43 629.39 182.91 629.29 183.33 629.14 183.75 628.82 184.22 628.26 184.69 627.92 184.85 627.83 185.03 628.03 185.57 629.1 186.94 629.37 187.74 628.92 188.73 628.47 189.04 628.05 189.12 627.68 189.28 627.43 189.78 627.47 190.18 627.91 190.99 628.03 191.38 627.85 192.22 627.5 193.13 627.41 193.95 628.02 194.52 628.47 194.53 629.34 194.11 629.79 193.98 630.27 194.03 630.79 194.19 631.29 194.42 631.69 194.69 632.31 195.35 632.93 196.29 633.39 197.25 633.49 197.97 632.94 198.75 632.1 199.05 630.26 199.21 629.38 199.76 627.85 201.49 627.23 201.86 626.53 202.17 624.79 203.66 624.01 204.16 622.45 204.03 621.95 204.31 621.67 205.2 621.73 206.04 621.85 206.67 621.59 207.15 620.5 207.51 617.35 207.93 616.12 208.64 615.5 210.23 615.04 212.45 615.07 213.21 615.23 213.57 615.68 214.21 615.78 214.63 615.73 215.98 615.78 216.33 616.2 217.23 616.67 217.28 617.32 216.99 618.26 216.87 618.65 217.14 618.83 217.68 618.82 218.3 618.71 218.81 618.36 219.64 618.18 220.33 618.18 221.02 618.35 221.89 618.28 222.65 617.76 223.15 615.48 224.03 613.28 224.3 612.89 224.46 612.46 224.78 612.09 225.17 611.87 225.52 611.76 225.97 611.81 226.25 611.94 226.55 612.06 227.05 612.11 228.31 611.66 231.13 610.9 233.27 609.85 235 609.25 235.7 607.82 236.84 607.36 237.54 607.36 238.52 607.54 239.38 607.55 240.26 607.29 241.05 606.64 241.66 605.69 241.88 604.82 241.61 601.59 239.33 600.65 238.87 599.7 238.73 598.93 238.94 592.9 241.48 592.79 241.52 591.91 242.13 591.52 242.25 590.99 242.07 590.57 241.69 590.2 241.24 589.79 240.88 588.3 240.41 586.66 240.44 580.79 241.35 580.04 241.66 579.11 242.45 576.67 245.53 570.22 249.86 569.22 250.09 568.07 249.52 566.02 247.08 565.14 246.59 564.28 246.56 563.42 246.79 561.82 247.45 559.98 247.39 556.98 245.06 555.04 244.34 552.67 243.86 550.84 243.74 550.27 243.56 548.93 242.53 547.44 241.81 545.88 241.67 544.28 241.94 542.73 242.47 542.12 242.44 542 242.12 542.24 241.68 543.48 240.76 544.12 240.1 544.57 239.32 544.81 238.43 544.77 237.51 544.39 236.95 543.7 236.57 542.73 236.18 542.03 236.07 540.07 236.15 539.27 235.97 538.59 235.74 537.92 235.65 537.17 235.92 536.77 236.28 536.53 236.67 536.24 237.01 535.75 237.24 535.48 237.21 534.42 236.89 522.3 236.26 521.3 236.49 520.64 236.95 520.08 237.53 519.37 238.07 518.66 238.3 516.14 238.54 515.17 238.86 510.49 241.09 509.74 241.68 509.44 242.69 509.64 243.05 510.56 243.08 510.82 243.43 510.79 243.91 510.65 244.34 509.38 246.89 507.24 253.04 506.95 253.52 506.41 253.76 505.37 253.91 502.09 253.89 499.52 254.7 495.98 258.99 493.53 259.62 492.37 259.28 490.25 258.38 489.16 258.09 488.43 258.03 487.84 258.11 484.43 259.43 483.48 260.78 482.98 261.03 482.53 260.12 482.36 259.42 482.14 258.82 481.72 258.44 481 258.42 479.4 258.92 478.6 259.08 477.73 259.03 476.83 258.77 471.37 256.36 470.56 256.28 461.45 258.62 458.89 258.7 457.67 258.91 456.54 259.45 454.28 261.38 453.87 262.01 453.84 262.74 453.75 263.07 453.45 263.27 453.23 263.22 452.82 262.88 452.7 262.81 452.19 263.08 452.15 263.2 451.34 263.51 451.18 263.51 450.72 263.35 450.5 263.35 450.05 263.62 449.29 264.34 448.76 264.53 448.21 264.46 447.85 264.18 447.58 263.86 447.28 263.68 446.82 263.65 446.66 263.77 446.51 264.08 446.11 264.58 444.4 265.38 442.46 265.14 440.59 264.23 439.06 263.02 437.35 260.7 436.68 260.09 436.17 259.89 434.11 259.43 433.52 259.53 432.97 259.7 432.59 259.57 432.52 258.74 432.31 257.75 430.28 254.8 429.41 253.07 428.81 252.25 428.07 251.86 425.68 251.55 424.91 251.26 423.99 250.58 423.13 249.03 422.37 248.34 420.92 247.64 420.41 247.2 419.92 246.34 419.14 243.95 418.64 243.29 417.9 242.93 417.11 242.92 416.31 243.02 415.49 242.95 414.79 242.37 414.07 240.64 413.78 240.37 413 240.79 412.76 240.72 412.66 239.59 412.38 239.16 408.76 236.05 407.98 235.06 407.53 234.23 407.32 233.44 407.27 231.58 407.54 228.37 407.32 227.59 406.6 227.32 404.81 227.31 404.28 227.12 403.82 226.73 403.45 226.24 403.18 225.74 402.97 225.24 402.95 224.93 402.97 224.63 402.71 223.16 402.75 222.55 403.1 222.04 404.58 220.78 405.02 220.28 405.63 219.38 406.71 217.48 407.46 215.31 407.47 215.34 407.65 216.03 407.74 216.93 408.15 218.58 408.21 219.38 408.06 220.03 407.87 220.6 407.84 221.25 408.21 222.16 409.41 223.85 410.15 224.61 410.98 225.21 413.49 226.27 414.93 227.22 416.58 227.92 417.28 228.44 417.77 229.13 418.45 230.54 418.94 231.2 419.51 231.32 421.52 231.29 422.01 231.2 422.63 230.88 423.51 230.77 428.7 230.81 429.24 230.94 430.03 231.49 430.49 231.62 430.67 231.51 431.3 230.98 431.6 230.81 431.98 230.67 432.21 230.63 432.45 230.78 433.42 231.86 433.7 231.94 433.9 231.23 434.29 230.75 434.4 230.51 434.37 230.25 434.17 229.84 434.12 229.68 434.06 228.39 434.12 228.01 434.62 227.12 435.27 226.72 435.82 226.92 436.14 228.1 436.51 228.6 436.64 228.84 436.67 229.11 436.6 229.69 436.64 229.95 436.78 230.24 436.96 230.47 437.18 230.65 437.45 230.81 437.74 230.92 438.1 231 439 231.06 439.41 230.89 439.91 230.13 441.13 229.71 441.87 229.3 442.53 229.22 443.05 229.95 442.55 230.58 442.19 231.15 441.99 231.77 441.91 232.59 441.76 232.91 441.04 233.65 440.81 234.12 441.9 233.66 442.46 233.61 443.05 233.84 443.44 234.29 443.54 234.73 443.68 235.08 444.14 235.25 444.51 235.17 445.35 234.74 445.82 234.7 446.37 234.89 448.04 235.8 450.38 236.51 451.42 237.09 451.93 238.05 451.69 239.07 450.97 239.8 449.44 240.8 449.44 241.1 450.51 241.07 451.35 240.92 452.1 240.54 452.91 239.84 453.32 239.07 453.27 238.28 453.07 237.54 453.04 236.92 454.13 236.07 456.01 236.33 459.47 237.75 461.22 238.88 464.31 241.98 465.88 243.02 468.3 244.24 468.81 244.41 469.79 244.27 471.14 243.56 471.99 243.3 473.3 243.82 474.77 245.03 476.37 245.79 478.12 244.96 477.44 244.93 476.31 244.51 475.76 244.41 475.58 244.15 475.2 243.02 474.91 242.77 474.27 242.67 473.14 242.27 472.54 242.21 472.06 242.35 470.6 243.02 469.71 243.06 468.95 242.83 468.28 242.39 467.7 241.79 466.97 241.25 465.17 240.53 464.49 239.97 463.76 238.03 462.98 237.27 462.81 236.78 462.76 235.58 462.81 235.25 463.36 233.84 463.69 232.35 464.07 231.82 466.41 231.37 467.3 231.34 468.1 231.62 468.63 232.34 469.17 233.29 469.82 233.85 470.75 233.44 471.27 233.33 471.84 233.73 472.52 234.08 473.4 233.84 472.58 233.59 472.19 233.42 471.47 232.86 471.11 232.82 470.75 232.84 469.95 232.62 469.69 232.64 469.55 232.54 469.51 232.05 469.05 231.38 468.96 231.2 468.81 231.05 468.08 230.9 467.82 230.81 467.66 230.62 466.72 229.01 466.51 228.46 466.43 227.86 466.63 227.62 467.54 227.4 467.82 227.15 467.75 226.92 467.14 226.53 466.99 226.19 467.13 225.38 467.47 224.63 468.38 223.24 469.65 220.59 470.82 216.84 470.9 215.89 471.12 215.69 471.61 215.76 472.42 216.03 473.41 215.95 472.36 215.06 472.29 214.08 472.85 213.57 473.57 213.62 474.38 213.91 475.86 214.2 476.2 214.13 476.75 213.78 477.02 213.49 477.77 212.43 477.89 212.11 477.51 211.78 477.03 211.94 476.63 212.36 476.29 213.38 475.9 213.46 475.48 213.29 474.37 212.58 473.52 212.44 470.61 212.87 470.04 212.79 469.82 212.35 469.79 211.42 470.04 210.78 470.66 210.12 471.47 209.73 472.29 209.9 471.86 209.13 471.09 208.85 470.37 208.71 470.04 208.38 470.11 207.65 470.6 205.73 471 202.89 471.51 201.78 472.54 200.97 472.88 201.65 473.41 201.98 474.78 202.4 475.25 202.81 476.27 204.06 476.61 204.32 476.84 204.44 477.1 204.68 477.38 204.84 477.72 204.75 479 203.88 479.38 203.76 480.75 203.56 481.05 203.63 481.78 204.17 482.58 204.62 482.25 203.89 481.43 203.05 480.11 201.82 479.77 201.33 479.29 199.62 478.97 199.02 480.23 199.1 481.36 199.39 482.34 199.43 483.14 198.75 483.36 198.85 483.42 198.9 483.49 198.88 483.71 198.75 482.83 198.42 481.29 198.04 480.64 197.64 480.13 197.2 479.72 196.76 479.49 196.13 479.5 195.14 480.22 192.64 480.42 191.05 480.7 190.46 481.14 190.01 484.06 187.77 488.5 185.03 489.74 184.42 497.51 182.9 503.72 182.68 515.28 179.63 526.53 176.67 532.74 175.36 535.24 174.38 535.71 174.39 542.78 172.18 544.14 171.47 546.31 169.16 547.16 167.61 546.64 166.71 546.95 166.35 548.02 165.62 549.97 163.91 550.41 163.68 550.57 163.29 551.93 161.16 555.1 158.36 555.85 157.24 555.98 156.93 556.06 156.6 556.13 155.72 556.34 155.31 557.3 154.57 557.51 154.32 557.79 153.88 559.73 151.69 560.68 150.05 561.01 149.14 561.14 148.19 561.47 147.43 562.24 146.8 563.92 145.84 573.77 137.35 582.3 126.27 583.16 124.3 582.87 122.71 583.73 121.36 584.15 119.63 584.14 117.71 583.22 113.89 583.48 113.23 584.42 112.97 587.07 114.23 589.3 114.57 590.16 115.02 591.49 116.05 592.49 116.43 592.96 116.75 593.28 117.58 593.53 117.7 594.15 117.72 594.45 117.83 594.54 118.1 594.58 118.42 594.71 118.69 595.14 119.16 595.38 119.61 595.7 120.75 595.7 121.88 596.25 122.71 596.53 124.53 596.39 124.92 595.83 125.41 595.7 125.65 595.77 126.26 595.96 126.63 597.34 126.73 599.12 127.08 600.78 126.78 601.53 126.83 602.05 127.36 602.89 129.93 603.29 130.73 603.87 131.51 606.42 133.87 607.29 134.47 607.61 134.78 607.81 135.2 608.11 136.21 608.31 136.53 609.98 136.72 611.9 135.61 615.64 132.04 615.95 131.45 616.17 129.77 616.46 128.98 617.39 127.59 617.68 126.85 617.54 126.14 616.28 126.65 616.25 125.82 616.49 125.44 616.75 125.2 617.72 124.25 618.16 123.56 618.46 122.88 618.84 121.34 618.93 120.18 618.63 119.98 618.03 120.08 617.23 119.79 616.5 118.65 616.26 117.17 616.06 112.42 615.92 111.52 615.69 110.67 614.9 109.18 614.6 108.42 614.62 107.75 614.67 107.7 615.02 107.38 616.51 106.76 617.2 106.32 618.51 105.07 619.25 104.61 620.16 104.36 620.9 104.4 621.65 104.53 622.37 104.51 623.01 104.11 623.28 103.49 623.31 102.81 623.44 102.19 624.37 101.26 624.81 101.05 625.19 100.82 625.52 100.53 625.75 100.15 626.03 100.98 626.07 102.56 626.31 104.03 626.32 104.04 626.04 107.27 626.2 110.57 626.55 112.15 627.88 115.31 628.36 116.92 628.84 120.92 629.17 121.5 629.71 121.86 632.02 122.72 632.87 122.9 634.08 122.78 634.42 122.9 635.06 123.43 635.48 123.61 636.26 123.58 636.62 123.71 637.36 124.2 638.3 124.61 639.19 124.65 639.78 124 639.67 123.16 639.09 122.29 637.66 120.95 636.72 119.7 636.19 118.11 635.96 116.39 635.98 114.79 636.31 113.18 636.37 112.48 636.2 111.52 633.54 103.84 632.52 102.39 631.99 102.04 631.45 101.78 631.08 101.4 631.05 100.47 631.73 100.49 632.36 100.41 632.81 100.11 633.2 98.76 633.67 98.39 634.23 98.45 634.69 99.02 634.81 99.3 635.03 99.38 635.91 99.32 636.3 99.39 636.71 99.55 637.03 99.77 637.47 100.57 638.19 100.81 639.03 100.83 639.68 100.71 640.16 100.38 641.51 99.02 641.69 98.77 642.25 98.28 642.26 98.29 646.01 98.68 647.97 98.56 649.14 98.37 649.88 98.36 650.41 98.47 650.72 98.73 650.97 99.17 651.86 103.01 651.89 103.45 651.88 103.87 651.25 105.92 651.06 106.36 650.84 106.72 650.01 107.53 649.82 107.86 649.69 108.22 649.53 108.99 649.41 110.41 649.33 110.82 649.19 111.24 647.87 113.55 647.8 113.76 647.75 114.09 647.88 117.2 648.11 117.79 648.72 118.8 648.85 119.17 648.88 119.49 648.85 120.45 648.92 121.16 649.12 121.62 649.37 121.94 649.67 122.1 650 122.2 650.65 122.34 650.96 122.45 651.29 122.67 651.71 123.03 652.26 123.74 652.49 124.26 652.56 124.7 652.49 125.14 652.2 126.01 652.03 126.35 650.81 127.95 650.63 128.42 650.55 129 650.59 129.97 650.72 130.62 650.89 131.14 651.09 131.46 651.09 131.47 Z" fill-rule="evenodd" id="MYS-1187" data-name="Sarawak"/>
<path d="M 85.19 169.67 85.48 169.6 85.68 169.44 86.07 169.27 86.25 169.26 86.4 169.32 86.49 169.46 86.63 169.62 86.8 170.05 86.98 170.4 87.05 170.65 87.08 170.89 87.05 171.07 86.98 171.19 86.71 171.45 86.62 171.62 86.56 172.19 86.5 172.36 86.34 172.51 86.24 172.64 86.22 172.91 86.28 173.38 86.47 174.15 86.64 175.7 86.63 175.92 86.57 176.09 86.45 176.19 86.3 176.24 86.15 176.24 86.04 176.29 85.94 176.43 85.87 176.66 85.78 176.83 85.65 176.95 85.55 176.9 85.48 176.74 85.41 176.62 85.33 176.54 85.2 176.5 84.93 176.47 83.83 176.62 83.56 176.62 83.31 176.59 83.1 176.52 82.98 176.39 82.91 176.22 82.86 176 82.75 175.71 82.73 175.53 82.77 175.38 82.85 175.24 83.08 174.94 83.12 174.84 83.13 174.7 83.11 174.55 83.02 174.31 82.95 174.23 82.9 174.17 82.84 174.13 82.81 174.08 82.78 173.99 82.77 173.77 82.73 173.59 82.64 173.41 82.52 173.28 82 172.97 81.88 172.87 81.76 172.74 81.68 172.63 81.51 172.33 81.46 172.19 81.34 170.78 81.36 170.64 81.93 169.65 82.06 169.36 82.11 169.29 82.18 169.23 82.7 168.97 82.97 168.75 83.05 168.66 83.1 168.63 83.24 168.61 83.43 168.66 83.9 169.19 84.86 169.63 85.19 169.67 Z" id="MYS-4831" data-name="Kuala Lumpur"/>
<path d="M 83.77 183.16 83.59 183.11 83.39 182.96 83.22 182.65 83.17 182.36 83.32 181.98 83.43 181.87 83.52 181.68 83.6 181.55 83.62 181.34 83.47 180.72 83.5 180.45 83.63 180.3 83.61 180.12 83.45 179.89 83.36 179.66 83.46 179.42 83.73 179.3 84.33 179.18 84.56 179.06 84.73 179.01 85.05 178.81 85.17 179.53 85.48 179.83 85.78 180.23 85.75 180.94 84.96 181.95 84.82 182.29 84.64 182.57 84.06 183.08 83.77 183.16 Z" id="MYS-4832" data-name="Putrajaya"/>
<path d="M 635.21 81.9 635.67 83.93 635.65 84.92 634.94 85.67 634.54 85.65 633.74 85.17 633.41 85.23 632.6 85.9 631.58 86.5 631.65 85.9 632.8 82.74 633.13 82.34 634.3 81.27 634.94 81.01 635.21 81.9 Z" id="MYS-4833" data-name="Labuan"/>
</g>
</svg>