<?xml version="1.0"?>
<svg xmlns="http://www.w3.org/2000/svg" version="1.2" baseProfile="tiny" width="800" height="646" viewBox="0 0 800 646" stroke-linecap="round" stroke-linejoin="round">
<g id="ne_10m_admin_1_states_provinces">
<path d="M 634.82 493.06 633.78 493.45 631.94 494.63 631.22 495.55 630.57 496.64 630.05 497.81 629.72 498.94 629.69 499.9 630.05 501.7 629.96 503.64 630.3 504.62 631.29 506.55 631.41 507.44 631.24 508.37 625.25 521.4 625.11 522.43 625.57 523.71 626.4 524.63 627.01 525.6 626.83 527.08 623.69 536.17 623.65 536.69 624.11 537.31 625.52 538.33 625.78 539.05 625.42 540.67 624.62 541.81 622.05 543.74 621.18 544.55 620.99 545.12 620.98 545.69 620.7 546.54 620.09 547.33 619.57 547.39 618.99 547.23 618.19 547.3 617.6 547.81 616.97 549.27 616.59 549.65 616.09 549.47 616.02 548.77 616.21 547.34 615.91 546.63 615.28 546.08 613.89 545.19 608.14 540.19 607.55 539.96 606.75 540.27 601.02 544.17 600.2 544.87 599.45 545.87 597.62 549.39 593.52 555.1 593.16 556.79 593.37 558.75 595.68 569.21 595.73 571.35 595.33 573.36 595.17 573.64 594.72 574.1 594.59 574.36 594.58 574.89 594.74 576.05 594.66 576.58 593.59 578.17 590.79 580.74 584.91 597.19 583.42 604.25 583.6 607.89 575.53 607.86 575.39 607.8 575.25 607.66 575.11 607.43 574.96 607.12 574.61 605.77 574.43 603.67 574.73 600.04 575.72 595.72 578.78 589.66 578.93 589.15 578.97 588.87 578.97 588.54 578.69 587.46 578.33 586.53 578.16 585.11 578.69 581.96 578.74 580.99 578.67 579.73 578.43 578.93 576.3 573.68 575.59 572.85 565.3 564.49 555.01 556.13 551.25 551.6 550.85 551.29 550.34 551.05 539.89 547.24 539.38 546.86 539.45 546.3 539.77 545.58 541.03 543.38 541.2 542.8 541.38 541.91 539.02 524.29 536.67 506.68 536.68 505.99 536.9 505.53 537.07 505.25 537.7 504.5 538.24 503.72 538.86 502.36 539.02 501.85 539.67 495.56 539.62 490.05 542.37 480.86 542.67 476.95 544.06 475.9 544.85 475.48 545.85 475.05 546.86 474.79 547.93 474.65 549.26 474.75 554.64 476.11 556.07 476.15 556.9 475.85 591.38 454.9 597.47 452.23 599.16 452.08 600.78 452.46 602.6 453.44 604.28 454.86 606.57 457.19 617.05 473.33 622.86 480.26 628.18 485.42 632.71 488.8 633.09 489.22 634.05 490.82 634.81 493.04 634.82 493.06 Z" id="SDN-148" data-name="Blue Nile"/>
<path d="M 735.36 71.18 734.88 71.19 734.39 70.1 734.36 68.61 734.36 68.61 734.71 67.16 735.4 66.19 735.89 66.52 736.06 66.63 736.26 67.25 735.71 70.41 735.36 71.18 Z M 717.26 11.99 717.12 12.7 716.99 12.92 716.79 13.02 716.03 13.12 715.19 13.39 716.33 14.19 716.78 14.82 716.81 20.56 717.89 27.09 717.46 28.41 718.14 28.84 718.29 29.39 718.32 29.98 718.62 30.5 719.14 31 719.49 31.46 722.03 37.17 728.19 46.09 732.25 49.7 737.3 55.76 737.66 56.56 737.56 57.49 737.23 58.31 736.64 58.7 735.72 58.34 734.76 59.01 733.91 58.34 732.61 56.22 732.28 55.81 731.93 55.21 731.79 54.68 732.12 54.45 732.74 54.61 733.08 55 733.29 55.48 733.58 55.89 734.67 56.69 735.31 56.94 735.72 56.72 735.62 56.33 734.45 55.07 733.71 53.23 733.19 52.56 732.44 52.8 731.11 51.85 730.73 52.35 730.36 52.27 730.05 51.8 729.85 51.18 729.97 50.6 730.28 50.05 730.37 49.49 729.85 48.91 728.56 48.64 727.78 49.44 727.47 50.7 727.58 51.85 727.82 52.12 728.41 52.16 728.52 52.47 728.36 53.04 728.2 53.44 728.41 54.65 728.39 55.21 728.2 55.75 727.72 56.2 727.24 56.34 726.91 56.59 726.9 57.37 727.14 57.8 728.52 59.31 729.79 62.11 730.39 65.09 730.83 71.35 731.52 74.3 733.63 79.97 733.74 83.06 733.61 83.81 733.36 84.57 732.9 85.02 731.45 84.82 731.29 85.44 731.47 86.85 731.11 90.22 731.45 92.15 731.47 92.85 732.59 95.63 732.97 97.31 733.23 98.86 733.48 101.14 732.75 102.94 732.77 103.26 732.59 103.78 732.01 104.46 731.79 104.91 731.76 106.19 732.11 107.81 735.12 115.34 735.4 116.94 735.4 120.04 735.31 120.89 735.05 121.41 734.26 122.47 734.11 123.2 734.45 126.06 734.38 126.96 734.45 127.35 734.64 127.8 735.4 129.04 736.37 131.75 738.26 141.84 738.64 146.75 738.81 147.31 739.21 147.64 739.65 147.89 739.94 148.23 739.94 148.55 739.69 149.17 739.67 149.5 740.83 151.04 741.4 153.41 742.39 156.46 743.03 158.44 743.43 160.9 744.06 161.76 745.09 163.58 746.18 165.38 747.75 166.76 748.01 167.31 748.44 167.83 748.97 168.11 749.55 167.94 750.08 167.64 750.44 167.72 753.27 167.32 754.85 166.64 755.07 167.52 756.13 168.06 757.01 168.21 757.99 168.15 758.29 168.7 758.4 169.47 759.17 170.14 758.81 171.98 759.55 171.6 760.1 171.43 760.63 171.83 761.41 172.6 766.77 174.05 768.74 175.86 770.06 177.99 772.12 179.94 773.43 180.76 775.5 181.54 776.1 182.21 775.5 183.04 774.25 183.65 773.92 185.31 775.23 187.99 777.51 190 780.07 190.57 781.97 190.26 782.24 188.5 783.2 188.23 784.86 187.28 785.15 187.78 784.75 188.18 784.08 188.53 783.59 188.88 783.52 189.26 783.56 189.78 783.43 190.35 782.88 190.88 782.16 191.08 781.52 191.04 780.99 191.08 780.63 191.5 781.25 191.5 782.91 191.21 783.53 191.32 783.96 191.57 784.36 191.88 784.86 192.15 785.48 192.3 786.82 192.46 787.47 192.67 788.18 192.79 788.68 192.57 788.75 192.19 788.16 191.85 788.91 191.2 789.84 192.11 791.37 194.45 790.92 195.09 791.71 195.56 792.91 195.64 793.67 195.13 794.17 195.86 794.34 197.74 794.65 198.35 795.59 198.49 796.05 197.77 795.97 196.68 795.3 195.75 796.1 196.22 798.08 198.18 798.39 198.91 798.39 199.66 798.51 200.13 799 201.19 798.89 201.62 792.13 207.04 790.81 208.88 787.95 216.16 786.64 218.2 785.68 218.91 783.32 220.01 782.5 220.73 782.26 221.67 782.32 222.68 782.2 223.62 781.4 224.38 780.27 224.55 779.43 224.05 778.71 223.35 777.94 222.88 776.26 223.39 775.98 223.44 775.77 223.86 775.83 224.17 775.95 224.49 775.93 224.99 775.44 225.9 774.65 226.56 773.94 226.56 773.67 225.54 773.74 224.59 773.69 223.8 773.24 223.32 772.15 223.32 771.04 223.71 770.99 223.74 767.78 225.81 766.29 227.65 765.36 228.34 764.23 228.59 763.14 228.27 761.72 226.95 760.75 226.69 759.09 227.55 757.02 231.12 755.08 232.09 753.16 232.35 746.87 234.23 746.36 234.53 746.24 235.07 746.77 237.25 746.82 238.11 746.6 240.09 746.3 241.07 745.26 242.85 745.03 243.92 744.64 244.86 741.96 247.94 737.51 246.73 736.14 246.85 733.88 248.19 732.44 248.28 731.74 248.18 729.16 248.58 728.69 248.51 726.85 247.42 726.36 247.25 725.14 247.05 724.29 246.71 723.57 246.24 722.81 245.91 721.85 246.04 721.53 246.39 721.53 246.41 721.51 246.41 678.07 249.88 677.19 249.83 675.85 249.39 658.94 240.94 635.51 225.81 633.76 224.17 632.92 223.17 628.32 216.22 622.12 204.67 621.24 203.41 619.55 201.53 613.84 196.42 602.83 190.16 594.02 186.56 587.01 184.64 586.38 184.27 585.9 183.58 563.48 132.16 563.33 131.56 563.42 131.12 563.51 130.83 565.06 127.5 565.63 125.33 565.81 124.15 565.81 121.97 565.03 114.19 562.74 106.97 562.37 104.35 562.49 100.65 563.34 95.73 564.38 93.02 565.12 91.76 565.2 91.57 565.17 91.39 564.75 90.68 564.66 90.45 564.6 89.97 564.67 87.15 564.95 85.12 564.95 84.72 564.9 84.26 564.63 83.22 564.03 81.65 563.16 79.93 562.63 79.14 561.77 77.4 561.52 77 561.21 76.64 560.86 76.32 560.7 76.14 559.74 74.49 558.79 71.92 558.66 71.71 558.37 71.34 558.17 71.2 557.94 71.08 557.68 70.99 555.54 70.61 554.99 70.45 554.5 70.23 554.07 69.98 553.25 69.39 552.91 69.06 550.03 65.32 549.48 64.85 546.85 63.35 546.46 63.06 546.29 62.88 545.69 61.9 545.6 61.67 545.53 61.37 545.5 61.01 545.57 60.05 545.67 59.49 546.52 57.11 546.78 56.05 546.84 54.48 546.51 51.1 546.59 50.74 546.76 50.35 548.29 48.53 548.56 48.12 548.86 47.57 549.01 47.15 549.37 45.46 549.42 44.83 549.39 44.24 549.23 43.45 548.95 42.47 548.89 42.2 548.87 40.08 548.77 39.55 548.41 38.62 548.29 38.42 548.14 38.23 547.81 37.89 547.23 37.45 546.39 36.59 545.7 35.69 559.12 25.54 540.32 12 540.32 12 541.34 12 551.37 12 562.43 12 573.48 12 584.24 12 584.54 12 595.6 12 606.65 12 617.71 12 628.76 12 639.82 12 650.87 12 661.93 11.99 672.99 11.99 684.05 11.99 695.1 11.99 706.16 11.99 717.26 11.99 Z" fill-rule="evenodd" id="SDN-149" data-name="Red Sea"/>
<path d="M 164.24 436.37 166.92 454.64 166.04 467.75 161.24 474.3 161.67 506.62 173.47 519.29 181.33 525.84 188.32 543.75 192.68 556.85 192.48 561.99 191.97 562.04 189.84 562.59 188.85 563.08 188.43 563.19 188.04 563.23 186.14 563.16 185.86 563.2 185.11 563.41 184.03 563.59 182.49 563.6 182.22 563.64 180.18 564.14 176.67 565.36 176.52 565.38 175.92 565.55 175.39 565.64 173.48 565.57 172.9 565.62 172.36 565.72 171.65 565.96 171.2 566.17 170.72 566.32 170.15 566.38 169.85 566.38 169.29 566.45 169.04 566.52 168.16 566.93 167.9 566.98 167.63 566.98 167.11 566.91 166.85 566.93 166.39 567.1 166.13 567.16 165.84 567.15 165.56 567.1 165.29 567.02 164.81 566.81 164.55 566.72 163.99 566.63 163.66 566.66 163.32 566.74 162.9 566.91 162.58 566.95 162.02 566.88 161.75 566.89 160.6 567.33 160.06 567.42 158.84 567.33 158.33 567.43 157.64 567.7 156.89 567.92 156.6 568.04 156.26 568.34 155.79 568.91 153.41 573.99 153.29 574.5 153.25 574.89 153.35 575.42 153.43 575.65 153.82 576.55 153.96 577.04 153.99 577.31 153.98 577.6 153.92 577.88 153.4 579.28 152.16 581.83 151.89 582.66 151.47 583.53 151.07 584.07 150.43 584.72 149.13 586.48 148.51 587.17 146.87 588.16 145.23 589.5 144.82 589.74 144.41 589.92 143.89 590.02 143.45 590.05 143.27 590.09 143.09 590.28 142.93 590.58 142.75 591.55 142.83 604.2 142.74 604.76 142.4 605.85 139.48 609.1 138.11 610.35 137.73 610.89 137.41 611.75 136.49 620.83 136.44 621.08 136.26 621.54 131.95 628.78 131.66 629.5 131.62 629.81 131.62 634.87 131.35 635.19 130.88 635.45 128.55 636.22 124.23 636.67 123.15 636.89 117.96 640.15 116.52 640.82 113.78 642.89 113.49 643.28 113.39 643.95 113.18 644.25 110.5 644.62 105.54 643.8 104.2 644.02 103.28 643.89 101.39 643.11 98.75 643.37 95.75 642.69 94.11 642.74 92.61 643.42 91.84 643.65 90.31 643.24 88.79 643.27 88.17 643.02 87.46 642.53 86.71 642.21 85.91 642.12 85.04 642.3 84.37 642.67 83.25 643.52 82.55 643.67 81.58 643.23 80.86 642.2 80.46 640.92 80.49 639.78 81.11 638.54 83.07 636.35 83.88 635.04 84.46 632.34 84.53 630.69 84.19 629.66 83.35 629.62 81.59 631.34 80.29 631.44 79.02 630.72 78.4 629.75 78.27 628.59 79.32 622.55 79.56 622.19 80.1 621.38 80.83 621.09 82.36 621.16 83.13 621.03 83.68 620.69 84.72 619.64 86.56 617.35 87.19 616.87 87.61 616.3 87.54 615.61 87.05 614.15 87.12 613.31 88.31 609.61 88.28 609.29 88.02 608.91 87.74 608.8 87.39 608.82 87.03 608.22 86.9 607.77 86.96 606.29 86.86 605.66 86.4 604.49 86.37 603.97 86.96 602.59 88.72 599.91 89.36 598.51 89.6 596.69 88.21 588.48 87.22 586.36 79.31 573.72 71.41 561.08 62.77 552.78 57.83 549.34 71.7 529.33 83.93 521.47 93.97 514.92 103.58 483.47 105.62 465.91 105.71 464.42 106.59 462.59 109.38 459.04 134.38 434.7 148.86 436.78 156.77 437.07 164.24 436.37 Z" id="SDN-5856" data-name="Southern Darfur"/>
<path d="M 256.74 495.15 258.3 502.89 258.32 514.37 259.09 519.78 259.1 521.8 259.11 521.98 262.18 534.46 278.87 575.2 279.75 579.08 286.85 594.15 290.16 601.2 289.67 601.39 288.89 601.53 284.2 601.77 278.11 600.89 277.85 600.92 276.86 601.18 276.58 601.21 272.72 600.73 265.93 600.75 263.75 600.37 251.45 600.66 233.11 606.83 232.6 606.87 229.85 606.65 228.67 606.11 226.58 604.76 217.61 594.34 208.65 583.92 204.99 582.55 204.98 582.54 204.31 581.84 203.75 581.13 200.91 576.52 200.63 576.14 200.46 575.99 200.16 575.75 200.03 575.68 198.73 575.31 198.01 574.99 196.3 574 195.93 573.7 195.62 573.36 195.5 573.16 195.41 572.9 195.12 565.54 195.06 565.28 194.97 565.06 194.73 564.66 192.66 562.12 192.48 561.99 192.68 556.85 188.32 543.75 181.33 525.84 173.47 519.29 161.67 506.62 161.24 474.3 166.04 467.75 166.92 454.64 164.24 436.37 166.38 436.56 168.43 436.97 170.01 437.69 171.34 438.46 180.27 446.46 186.65 450.18 188.99 451.27 199.36 459.54 200.19 460.43 200.67 461.32 200.79 462.28 200.3 463.03 199.32 463.61 195.05 464.8 194.09 465.19 193.6 465.54 193.36 465.94 193.16 466.82 193.69 467.73 195.02 469.38 198.05 471.79 201.99 475.82 206.7 483.06 209.14 485.25 210.89 486.07 212.61 486.2 214.09 485.95 215.69 485.82 217.68 486.06 220.4 486.99 222.01 487.92 222.93 488.68 225.01 490.9 227.44 492.68 229.66 493.64 231.43 494.12 250.04 493.88 256.74 495.15 Z" id="SDN-5857" data-name="Eastern Darfur"/>
<path d="M 104.34 310.09 105.09 311.2 102.1 327.02 102.41 329.36 102.27 336.5 102.5 339.3 103.25 341.93 104.37 343.46 106.81 346.01 108.55 348.23 109.99 350.82 111.25 353.88 112.24 358.14 112.38 360.2 112.23 362.03 111.81 363.66 111.11 365.48 101.05 381.85 85.82 398.19 82.45 404.13 80.99 408.83 80.82 411.12 81.41 412.57 82.43 412.97 76.94 418.83 71.26 419.26 67.77 421.01 52.92 442.41 39.81 456.83 42.43 473.86 39.15 483.48 38.91 483.25 38.51 483.94 37.88 483.55 36.02 483.88 32.93 484.84 32.41 485.23 32.13 485.38 31.82 485.5 33.04 480.27 33.09 479.69 33.05 479.12 32.93 478.55 29.44 467.95 27.87 465.52 27.77 464.94 28.86 463.37 31.23 457.91 30.6 457.3 25.74 455.51 19.79 451.62 18.43 453.61 16.9 455.05 15.08 456.04 12.85 456.69 10.99 456.94 8.97 456.92 7.01 456.55 5.34 455.75 4.36 454.81 2.49 451.36 1.2 449.77 1 449.23 1.11 448.93 1.87 447.45 3.07 443.91 6.97 436.62 8.35 434.75 9.98 433.22 10.82 432.76 15.92 430.77 16.7 430.23 21.09 425.69 22.77 423.53 23.17 421.55 22.6 420.46 20.92 418.47 20.3 417.33 20.09 416.42 20.06 413.69 19.36 411.85 16.33 409.08 15.49 407.24 15.49 406.18 15.58 405.44 15.42 404.75 14.67 403.8 13.56 402.78 13.62 402.35 14.78 400.49 18.64 395.69 19.11 395.1 20.26 393.97 21.63 393.08 29.17 389.57 30.09 388.96 31.85 387.34 32.93 386.75 34.2 386.51 35.31 386.08 36.01 385.27 36.08 383.88 35.75 382.35 35.33 381.43 34.48 380.91 31.8 380.45 31.01 380.04 30.44 379.34 30.01 378.31 29.87 377.75 29.92 377.37 30.34 376.56 30.55 376.36 31.19 376.07 31.43 375.83 31.48 375.48 31.31 375.2 31.07 374.95 30.92 374.67 30.24 369.56 29.88 368.91 28.41 367.84 27.33 366.08 28.22 364.39 30.14 362.97 32.17 362.01 41.72 359.52 42.2 359.17 42.43 358.51 42.35 358.09 41.63 356.57 41.37 355.74 40.98 353.13 40.98 351.91 41.36 351.17 43.1 350.03 44.04 349.17 44.31 348.39 44.36 347.5 44.61 346.34 45.16 345.35 49.45 340.99 50.38 340.24 51.47 339.66 53.08 339.05 53.45 338.61 55.57 334.81 55.94 333.76 56.54 328.23 56.45 326.64 55.98 325.16 54.96 323.82 53.94 322.75 53.14 321.52 52.8 320.15 53.14 318.67 54.04 317.6 57.78 315.34 60.82 311.77 62.07 310.93 63.24 310.79 65.49 310.52 72.8 312.02 76.38 311.69 82.61 309.46 85.73 308.81 91.19 308.81 96.96 309.66 102.5 311.5 103.79 311.56 104.34 310.13 104.34 310.09 Z" id="SDN-5858" data-name="Western Darfur"/>
<path d="M 134.38 434.7 109.38 459.04 106.59 462.59 105.71 464.42 105.62 465.91 103.58 483.47 93.97 514.92 83.93 521.47 71.7 529.33 57.83 549.34 51.07 539.6 50.97 538.3 52.83 531.61 53.13 531.14 53.88 530.32 54.01 529.8 54.04 528.85 54.19 527.9 54.49 527.05 55.29 525.38 55.5 524.54 55.41 523.16 55.37 522.53 54.17 519.01 53.52 515.64 52.84 515.06 51.72 515.03 47.2 515.5 46.73 515.3 46.72 513.87 46.58 513.44 45.36 512.31 41.53 511.03 39.9 510.23 38.2 508.63 36.75 506.61 35.79 504.38 35.57 502.11 38.22 487.47 39.06 485.06 39.21 484.22 39.15 483.48 42.43 473.86 39.81 456.83 52.92 442.41 67.77 421.01 71.26 419.26 76.94 418.83 82.43 412.97 83.75 413.12 86.38 413.17 87.73 413.39 89.13 413.98 90.48 414.88 91.89 416.17 93.32 417.06 94.71 417.75 99.77 419.36 103.33 420.94 104.74 421.13 106.79 420.93 108.9 420.24 116.44 415.99 124.19 413.07 126.13 412.66 127.89 412.51 129.66 412.56 131.15 412.94 132.23 413.6 133.03 414.78 133.28 415.87 133.21 416.7 132.78 417.68 132.07 418.86 130.2 421.18 123.65 427.36 122.65 428.75 121.99 430.33 121.97 431.68 122.6 432.77 123.88 433.64 125.62 434.1 134.38 434.7 Z" id="SDN-5859" data-name="Central Darfur"/>
<path d="M 589.57 296.06 589.67 298.72 591.01 302.98 597.45 316.96 581.14 314.44 570.53 310.82 569.16 310.83 567.24 311.77 565.03 313.69 560.92 319.28 558.58 323.87 547.22 325.36 545.39 325.36 543.29 325.59 542.1 326.1 541.28 326.6 539.22 328.19 538.67 328.72 538.39 328.94 537.9 329.23 537.52 329.31 537.21 329.29 534.98 328.82 534.66 328.79 526.24 329.95 516.02 332.86 515.33 333.13 515.12 333.31 514.97 333.56 514.54 334.72 514.42 335.2 509.07 334.95 507.32 335.2 506.53 335.53 505.13 335.9 504.58 335.93 504.13 335.91 500.64 334.88 499.84 334.45 497.06 326.33 495.74 323.42 485.45 306.4 478.16 297.05 466.32 271.28 476.36 265.37 478.18 264.99 479 267.21 479.78 268.45 486.08 275.05 488.2 276.75 490.63 277.8 515.61 281.69 517.92 282.46 532.93 290.44 556.42 296.51 562.31 299.58 566.35 300.79 568.21 301 571.35 300.93 574.62 300.26 580.86 297.95 582.56 297.09 589.57 296.06 Z" id="SDN-874" data-name="Khartoum"/>
<path d="M 579.37 390.74 577.4 390.4 576.38 390.09 574.12 389.73 570.67 389.89 569.33 389.75 568.77 389.53 565.64 387.63 565.03 387.38 564.32 387.26 563.68 387.23 563.01 387.29 561.76 387.77 560.14 388.75 557.14 391.08 553.26 394.82 551.85 395.77 550.65 395.92 549.49 395.25 545.52 390.53 543.67 389.5 541.69 389.25 539.71 389.75 538.04 390.78 536.49 392.13 535.3 393.96 534.38 395.72 532.01 402.65 531.01 403.83 529.53 403.88 527.25 401.52 526.22 401.28 525.09 401.92 524.25 403.45 523.8 404.8 523.37 408.96 519.01 413.65 517.76 414.39 516.61 414.41 515.95 413.66 515.65 412.2 515.74 404.16 515.58 402.5 515.18 400.55 512.79 395.81 508.66 389.13 506.79 385.36 505.58 381.59 505.3 380.28 505.23 379.36 505.37 378.44 505.7 377.28 508.04 372.13 511.04 366.99 513.77 363.96 515.28 362.59 516.35 361.17 516.96 359.65 517.19 357.95 516.98 350.64 516.7 348.89 516.35 347.9 516 347.47 515.47 347.16 512.19 345.96 511.32 345.34 510.71 344.41 510.72 343.41 511.16 342.66 512 342.3 513.1 342.23 514.14 342.3 515.02 342.17 515.57 341.78 516.02 340.65 515.91 339.5 515.58 338.22 514.42 335.2 514.54 334.72 514.97 333.56 515.12 333.31 515.33 333.13 516.02 332.86 526.24 329.95 534.66 328.79 534.98 328.82 537.21 329.29 537.52 329.31 537.9 329.23 538.39 328.94 538.67 328.72 539.22 328.19 541.28 326.6 542.1 326.1 543.29 325.59 545.39 325.36 547.22 325.36 558.58 323.87 562.81 328.41 564.29 329.31 573.52 332.34 581.31 336.27 581.48 336.44 581.61 336.62 584.91 343.42 591.72 352.94 592.1 353.93 592.18 355.76 576.94 381.73 575.86 384.19 576.06 385 576.32 385.5 576.67 385.86 576.98 386.06 577.24 386.3 577.29 386.45 577.23 386.56 576.84 386.66 576.74 386.74 576.69 386.95 576.82 387.18 577.6 387.95 577.84 388.28 579.37 390.74 Z" id="SDN-875" data-name="Gezira"/>
<path d="M 597.45 316.96 604.24 318.52 609.92 320.51 617.6 324.45 620.15 326.08 622.21 327.8 624.03 329.66 626.61 332.9 627.52 334.33 633.97 349.72 644.81 361.45 647.16 363.07 649.27 363.3 651.98 362.84 674.19 354.95 678 354.24 694.48 353.84 697.23 354.19 697.24 354.19 697.8 358.8 698.52 364.77 699.24 370.66 700.29 379.39 696.02 392.33 695.81 393.34 695.83 394.55 696.09 395.71 696.91 398.09 697.05 400.46 696.18 402.55 694.21 407.3 694.04 408.26 693.87 410.95 693.43 412.29 686.37 422.24 681.78 437.89 681.85 438.79 682.23 439.55 682.38 439.96 682.4 440.37 681.97 441.06 681.26 441.76 680.71 442.57 680.76 443.62 681.87 445.52 682.07 446.22 682.08 447.38 681.15 452.66 680.74 453.6 680 453.89 678.7 453.54 678.27 453.31 678 453.1 677.68 452.95 677.1 452.85 676.7 452.87 662.37 454.9 661.15 455.29 661.09 455.32 661.06 455.32 661 455.3 645.22 451.82 640.64 450.01 638.79 448.85 637.36 447.62 636.09 446.24 635.38 445.62 625.3 439.91 624.77 439.47 623.32 437.8 620.91 435.54 619.21 433.3 618.36 432.49 616.42 431.05 615.29 430.38 614.47 430.1 613.94 429.97 609.48 428.07 608.83 427.68 608.48 427.38 608.14 427.05 606.87 425.45 606.29 424.92 605.78 424.6 605.25 424.37 603.45 423.79 601.42 422.91 600.36 422.28 596.73 417.66 594.05 412.51 592.74 410.53 592.54 410.09 592.41 409.61 592.38 409.11 592.51 408.63 592.76 408.24 593.46 407.63 593.86 407.36 594.23 407.06 594.56 406.71 594.78 406.3 594.91 405.83 594.91 405.34 594.84 405.02 594.67 404.69 594.36 404.63 593.9 404.63 593.37 404.73 592.87 404.76 592.4 404.62 592.02 404.09 591.7 403.96 591.44 403.96 590.62 404.38 590.04 404.41 589.45 404.24 588.59 403.6 588.1 403.31 587.81 403.26 587.52 403.69 587.27 403.68 586.85 403.26 585.2 400.66 584.89 400.43 584.47 400.28 584.2 399.98 583.98 399.54 583.75 398.93 583.27 398.16 583.27 397.89 583.41 397.69 583.67 397.6 583.83 397.53 583.95 397.39 583.93 397.14 583.77 396.82 583.34 396.26 581.28 394.62 580.8 394.11 580.52 393.65 580.44 393.33 580.37 392.36 580.32 392.13 580.24 391.98 579.65 391.34 579.37 390.74 577.84 388.28 577.6 387.95 576.82 387.18 576.69 386.95 576.74 386.74 576.84 386.66 577.23 386.56 577.29 386.45 577.24 386.3 576.98 386.06 576.67 385.86 576.32 385.5 576.06 385 575.86 384.19 576.94 381.73 592.18 355.76 592.1 353.93 591.72 352.94 584.91 343.42 581.61 336.62 581.48 336.44 581.31 336.27 573.52 332.34 564.29 329.31 562.81 328.41 558.58 323.87 560.92 319.28 565.03 313.69 567.24 311.77 569.16 310.83 570.53 310.82 581.14 314.44 597.45 316.96 Z" id="SDN-876" data-name="Gedarif"/>
<path d="M 658.94 240.94 659.73 256.41 659.08 262.02 657.18 266.82 654.2 269.99 651.22 272.05 647.13 274.25 643.48 275.46 639.72 276 607.37 275.99 604.78 276.28 603.39 276.96 591.54 292.66 589.57 296.06 582.56 297.09 580.86 297.95 574.62 300.26 571.35 300.93 568.21 301 566.35 300.79 562.31 299.58 556.42 296.51 532.93 290.44 517.92 282.46 515.61 281.69 490.63 277.8 488.2 276.75 486.08 275.05 479.78 268.45 479 267.21 478.18 264.99 512.59 217.59 517.79 208.27 516.86 204.46 516.91 202.19 512.11 189.62 512.04 189.34 513.14 169.73 513.07 169.46 512.87 169.27 493.49 158.94 493.22 158.72 493.15 158.47 493.15 158.19 510.14 12 511.13 12 516 12 520.87 12 525.73 12 530.59 12 535.46 12 540.32 12 559.12 25.54 545.7 35.69 546.39 36.59 547.23 37.45 547.81 37.89 548.14 38.23 548.29 38.42 548.41 38.62 548.77 39.55 548.87 40.08 548.89 42.2 548.95 42.47 549.23 43.45 549.39 44.24 549.42 44.83 549.37 45.46 549.01 47.15 548.86 47.57 548.56 48.12 548.29 48.53 546.76 50.35 546.59 50.74 546.51 51.1 546.84 54.48 546.78 56.05 546.52 57.11 545.67 59.49 545.57 60.05 545.5 61.01 545.53 61.37 545.6 61.67 545.69 61.9 546.29 62.88 546.46 63.06 546.85 63.35 549.48 64.85 550.03 65.32 552.91 69.06 553.25 69.39 554.07 69.98 554.5 70.23 554.99 70.45 555.54 70.61 557.68 70.99 557.94 71.08 558.17 71.2 558.37 71.34 558.66 71.71 558.79 71.92 559.74 74.49 560.7 76.14 560.86 76.32 561.21 76.64 561.52 77 561.77 77.4 562.63 79.14 563.16 79.93 564.03 81.65 564.63 83.22 564.9 84.26 564.95 84.72 564.95 85.12 564.67 87.15 564.6 89.97 564.66 90.45 564.75 90.68 565.17 91.39 565.2 91.57 565.12 91.76 564.38 93.02 563.34 95.73 562.49 100.65 562.37 104.35 562.74 106.97 565.03 114.19 565.81 121.97 565.81 124.15 565.63 125.33 565.06 127.5 563.51 130.83 563.42 131.12 563.33 131.56 563.48 132.16 585.9 183.58 586.38 184.27 587.01 184.64 594.02 186.56 602.83 190.16 613.84 196.42 619.55 201.53 621.24 203.41 622.12 204.67 628.32 216.22 632.92 223.17 633.76 224.17 635.51 225.81 658.94 240.94 Z" id="SDN-877" data-name="River Nile"/>
<path d="M 461.2 12 462.49 12 467.35 12 472.22 12 477.08 12 481.95 12 486.81 12 491.67 12 496.54 12 501.4 12 506.27 12 510.14 12 493.15 158.19 493.15 158.47 493.22 158.72 493.49 158.94 512.87 169.27 513.07 169.46 513.14 169.73 512.04 189.34 512.11 189.62 516.91 202.19 516.86 204.46 517.79 208.27 512.59 217.59 478.18 264.99 476.36 265.37 466.32 271.28 459.54 269.07 457.1 268.7 440.64 270.16 271.22 264.63 270.55 106.81 152.61 106.81 151.68 106.42 151.68 101.11 151.68 96.6 151.68 92.08 151.69 87.56 151.69 83.04 151.69 77.12 151.69 71.2 151.7 65.28 151.7 59.36 151.7 53.44 151.7 47.52 151.71 41.6 151.71 35.68 151.71 29.77 151.71 23.85 151.71 17.92 151.71 12.01 156.33 12.01 160.96 12.01 165.58 12.01 170.21 12.01 174.84 12.01 179.46 12.01 184.09 12.01 188.71 12.01 193.33 12.01 197.95 12.01 202.59 12.02 207.21 12.02 211.83 12.02 216.45 12.02 221.07 12.02 225.7 12.02 230.33 12.02 234.95 12.02 239.57 12.02 244.2 12.02 248.82 12.02 253.45 12.02 258.07 12.02 262.69 12.03 267.32 12.03 271.95 12.03 276.57 12.03 281.2 12.03 285.82 12.03 290.45 12.03 295.07 12.03 299.7 12.03 304.32 12.03 308.95 12.03 313.57 12.03 318.19 12.03 322.82 12.03 327.44 12.03 332.07 12.03 336.7 12.03 341.32 12.04 345.94 12.04 350.57 12.04 355.19 12.04 359.81 12.04 364.44 12.04 369.06 12.04 373.69 12.04 378.32 12.04 382.94 12.04 387.56 12.04 392.18 12.04 396.8 12.04 401.44 12.04 406.06 12.04 410.68 12.05 415.31 12.05 419.93 12.05 424.56 12.05 429.18 12.05 433.81 12.05 438.44 12.05 443.06 12.05 447.68 12.05 449.5 12.05 450.13 11.7 452.47 7.24 452.64 6.92 454.78 2.85 456.01 1.59 456.9 1.15 457.81 1 458.72 1.13 459.6 1.55 460.64 2.5 461.07 3.55 461.01 4.74 459.91 7.79 458.39 12.01 461.2 12 Z" id="SDN-878" data-name="Northern"/>
<path d="M 514.42 335.2 515.58 338.22 515.91 339.5 516.02 340.65 515.57 341.78 515.02 342.17 514.14 342.3 513.1 342.23 512 342.3 511.16 342.66 510.72 343.41 510.71 344.41 511.32 345.34 512.19 345.96 515.47 347.16 516 347.47 516.35 347.9 516.7 348.89 516.98 350.64 517.19 357.95 516.96 359.65 516.35 361.17 515.28 362.59 513.77 363.96 511.04 366.99 508.04 372.13 505.7 377.28 505.37 378.44 505.23 379.36 505.3 380.28 505.58 381.59 506.79 385.36 508.66 389.13 512.79 395.81 515.18 400.55 515.58 402.5 515.74 404.16 515.65 412.2 515.95 413.66 516.61 414.41 517.76 414.39 519.01 413.65 523.37 408.96 525.07 410.48 525.66 411.23 526.32 412.33 526.77 413.55 527.02 415.31 527.15 422.81 527.67 427.1 528.52 429.74 531.97 436.39 536.93 443.12 537.45 444.69 537.45 446.16 536.4 450.03 536.03 452.57 536.29 455.44 542.67 476.95 519.98 476.67 519.84 476.87 519.83 477.11 519.89 477.39 519.92 477.68 519.9 478.3 519.72 479.44 519.67 480.04 519.7 480.65 520.04 482.86 520.64 484.51 520.74 485.06 520.76 485.67 520.69 486.81 504.9 486.88 489.12 486.95 481.75 478.9 478.97 477.16 474.76 476.81 474.05 476.67 473.41 476.4 473.1 475.78 472.92 475.03 470.46 458.79 468.33 442.99 468.24 441.09 468.46 440.71 469.53 439.46 474.15 435.33 481.72 430.37 485.84 428.8 486.13 428.57 486.46 428.21 487.02 427.45 487.31 426.91 487.48 426.5 487.53 426.21 487.55 425.91 487.52 425.62 487.28 424.57 486.64 422.91 486.53 422.38 486.52 421.82 486.63 421 487.94 417.06 488.04 416.39 487.99 416.06 487.9 415.88 487.71 415.68 487.53 415.52 486.76 415.02 486.52 414.92 483.88 414.21 482.77 413.7 482.38 413.43 481.19 412.32 480.74 411.79 479.43 410.57 478.21 409.15 475.04 404.16 472.29 397.76 471.76 396.97 471.6 396.8 471.42 396.65 470.36 396.06 468.32 394.5 466.62 393.53 465.63 392.83 465.47 392.66 465.33 392.47 465.12 392.09 464.92 391.62 464.63 390.64 463.84 388.79 463.12 386.26 462.41 382.06 462.3 375.58 463.14 369.3 463.24 368.94 464.32 366.06 466.08 363.51 466.76 362.87 467.14 362.59 468.92 361.72 470.36 361.17 471.48 360.63 471.88 360.37 472.23 360.05 472.67 359.5 477.74 348.72 477.89 348.48 478.16 348.23 483.54 344.62 483.75 344.38 483.78 344.1 483.62 343.46 483.49 342.67 483.48 341.7 483.98 341.14 484.6 340.74 499.84 334.45 500.64 334.88 504.13 335.91 504.58 335.93 505.13 335.9 506.53 335.53 507.32 335.2 509.07 334.95 514.42 335.2 Z" id="SDN-879" data-name="White Nile"/>
<path d="M 579.37 390.74 579.65 391.34 580.24 391.98 580.32 392.13 580.37 392.36 580.44 393.33 580.52 393.65 580.8 394.11 581.28 394.62 583.34 396.26 583.77 396.82 583.93 397.14 583.95 397.39 583.83 397.53 583.67 397.6 583.41 397.69 583.27 397.89 583.27 398.16 583.75 398.93 583.98 399.54 584.2 399.98 584.47 400.28 584.89 400.43 585.2 400.66 586.85 403.26 587.27 403.68 587.52 403.69 587.81 403.26 588.1 403.31 588.59 403.6 589.45 404.24 590.04 404.41 590.62 404.38 591.44 403.96 591.7 403.96 592.02 404.09 592.4 404.62 592.87 404.76 593.37 404.73 593.9 404.63 594.36 404.63 594.67 404.69 594.84 405.02 594.91 405.34 594.91 405.83 594.78 406.3 594.56 406.71 594.23 407.06 593.86 407.36 593.46 407.63 592.76 408.24 592.51 408.63 592.38 409.11 592.41 409.61 592.54 410.09 592.74 410.53 594.05 412.51 596.73 417.66 600.36 422.28 601.42 422.91 603.45 423.79 605.25 424.37 605.78 424.6 606.29 424.92 606.87 425.45 608.14 427.05 608.48 427.38 608.83 427.68 609.48 428.07 613.94 429.97 614.47 430.1 615.29 430.38 616.42 431.05 618.36 432.49 619.21 433.3 620.91 435.54 623.32 437.8 624.77 439.47 625.3 439.91 635.38 445.62 636.09 446.24 637.36 447.62 638.79 448.85 640.64 450.01 645.22 451.82 661 455.3 661.06 455.32 661.09 455.32 660.44 455.62 660.26 455.77 660.27 456.02 659.95 457.23 659.88 457.74 659.71 458.23 659.24 458.73 658.82 458.91 657.91 458.98 657.5 459.14 657.07 459.61 648.13 474.26 647.63 475.59 647.5 476.91 647.36 477.5 646.93 478.15 646.43 478.55 645.39 479.08 644.93 479.47 644.57 480 643.72 482.08 643.25 484.69 642.84 485.82 641.91 486.87 640.13 487.87 639.71 488.29 639.57 488.73 639.56 488.95 639.53 489.81 639.44 490.28 638 491.86 634.82 493.06 634.81 493.04 634.05 490.82 633.09 489.22 632.71 488.8 628.18 485.42 622.86 480.26 617.05 473.33 606.57 457.19 604.28 454.86 602.6 453.44 600.78 452.46 599.16 452.08 597.47 452.23 591.38 454.9 556.9 475.85 556.07 476.15 554.64 476.11 549.26 474.75 547.93 474.65 546.86 474.79 545.85 475.05 544.85 475.48 544.06 475.9 542.67 476.95 536.29 455.44 536.03 452.57 536.4 450.03 537.45 446.16 537.45 444.69 536.93 443.12 531.97 436.39 528.52 429.74 527.67 427.1 527.15 422.81 527.02 415.31 526.77 413.55 526.32 412.33 525.66 411.23 525.07 410.48 523.37 408.96 523.8 404.8 524.25 403.45 525.09 401.92 526.22 401.28 527.25 401.52 529.53 403.88 531.01 403.83 532.01 402.65 534.38 395.72 535.3 393.96 536.49 392.13 538.04 390.78 539.71 389.75 541.69 389.25 543.67 389.5 545.52 390.53 549.49 395.25 550.65 395.92 551.85 395.77 553.26 394.82 557.14 391.08 560.14 388.75 561.76 387.77 563.01 387.29 563.68 387.23 564.32 387.26 565.03 387.38 565.64 387.63 568.77 389.53 569.33 389.75 570.67 389.89 574.12 389.73 576.38 390.09 577.4 390.4 579.37 390.74 Z" id="SDN-880" data-name="Sennar"/>
<path d="M 271.22 264.63 269.95 264.79 244.64 264.92 244.07 265.33 243.67 266.13 253.84 350.28 254.07 350.88 254.55 351.35 256.42 352.59 258.45 356.45 263.55 372.26 270.63 391.85 268.65 402.71 268.64 403.27 268.77 403.68 268.9 403.96 271.94 408.79 272.47 410.59 272.31 412.35 271.7 414.63 271.52 415.06 270.95 415.91 266.15 421.53 265.45 422.15 265.28 422.6 265.15 423.32 264.93 426.96 264.79 427.54 263.4 429.61 262.79 431.05 261.71 432.74 254.49 441.65 253.21 444.49 252.99 445.22 252.46 451.73 252.81 457.44 252.77 458.13 252.67 458.74 252.52 459.29 251.22 462.8 248.66 466.97 248.45 467.6 248.36 468.11 248.49 469.26 250.24 475.77 250.28 476.35 250.25 476.96 250 478.76 250.02 481.14 250.08 481.54 250.26 482.06 252.61 485.69 253.19 486.81 253.53 488.36 253.64 489.46 256.74 495.15 250.04 493.88 231.43 494.12 229.66 493.64 227.44 492.68 225.01 490.9 222.93 488.68 222.01 487.92 220.4 486.99 217.68 486.06 215.69 485.82 214.09 485.95 212.61 486.2 210.89 486.07 209.14 485.25 206.7 483.06 201.99 475.82 198.05 471.79 195.02 469.38 193.69 467.73 193.16 466.82 193.36 465.94 193.6 465.54 194.09 465.19 195.05 464.8 199.32 463.61 200.3 463.03 200.79 462.28 200.67 461.32 200.19 460.43 199.36 459.54 188.99 451.27 186.65 450.18 180.27 446.46 171.34 438.46 170.01 437.69 168.43 436.97 166.38 436.56 164.24 436.37 156.77 437.07 148.86 436.78 134.38 434.7 125.62 434.1 123.88 433.64 122.6 432.77 121.97 431.68 121.99 430.33 122.65 428.75 123.65 427.36 130.2 421.18 132.07 418.86 132.78 417.68 133.21 416.7 133.28 415.87 133.03 414.78 132.23 413.6 131.15 412.94 129.66 412.56 127.89 412.51 126.13 412.66 124.19 413.07 116.44 415.99 108.9 420.24 106.79 420.93 104.74 421.13 103.33 420.94 99.77 419.36 94.71 417.75 93.32 417.06 91.89 416.17 90.48 414.88 89.13 413.98 87.73 413.39 86.38 413.17 83.75 413.12 82.43 412.97 81.41 412.57 80.82 411.12 80.99 408.83 82.45 404.13 85.82 398.19 101.05 381.85 111.11 365.48 111.81 363.66 112.23 362.03 112.38 360.2 112.24 358.14 111.25 353.88 109.99 350.82 108.55 348.23 106.81 346.01 104.37 343.46 103.25 341.93 102.5 339.3 102.27 336.5 102.41 329.36 102.1 327.02 105.09 311.2 104.34 310.09 104.34 307.35 104.34 296.31 104.33 285.27 104.32 274.24 104.31 263.2 104.3 252.16 104.29 241.13 104.28 230.09 104.27 219.05 104.27 208.01 104.25 196.98 104.24 185.94 104.24 174.9 104.23 163.87 104.22 152.83 104.21 141.8 104.2 130.76 104.2 124.82 104.2 118.89 104.2 112.96 104.2 107.03 111.85 107.03 115.92 107.04 121.28 107.04 127.64 107.04 133.55 107.05 139.36 107.05 146.29 107.06 151.08 107.06 151.19 107.04 151.29 107.03 151.39 107.02 151.5 107.01 151.54 106.94 151.59 106.86 151.63 106.79 151.68 106.72 151.68 106.42 152.61 106.81 270.55 106.81 271.22 264.63 Z" id="SDN-881" data-name="North Darfur"/>
<path d="M 470.46 458.79 472.92 475.03 473.1 475.78 473.41 476.4 474.05 476.67 474.76 476.81 478.97 477.16 481.75 478.9 489.12 486.95 501.62 500.76 501.76 501.05 501.99 501.8 502.07 502.35 502.31 507.21 501.64 514.9 501.78 519.84 502.52 523.05 505.9 529.37 505.68 530.55 504.89 532.04 493.69 541.43 482.5 550.83 481.88 551.71 478.76 559.54 475.8 564.1 474.48 565.4 469.29 571.79 459.07 581.82 448.85 591.84 445.51 593.19 435.33 593.74 435.32 593.74 429.95 593.88 429.34 594.04 428.42 594.38 427.86 594.9 427.2 595.28 426.54 595.07 425.78 594.53 413.21 583.3 402 576.21 390.8 569.12 388.65 570.41 375.97 576.51 373.35 578.09 371.91 579.21 371.83 586.04 369.62 589.51 365.62 593.3 354.66 595.7 348.95 597.76 343.12 600.83 342.16 601.59 338.57 604.35 335.51 607.35 334.53 609.18 334.46 611.2 334.66 612.9 335.25 614.07 335.18 614.07 316.24 613.91 297.29 613.74 295.01 611.2 290.16 601.2 286.85 594.15 279.75 579.08 278.87 575.2 262.18 534.46 259.11 521.98 259.1 521.8 259.09 519.78 258.32 514.37 261.03 516.52 265.28 518.27 270.28 518.27 273.28 517.52 275.78 516.77 278.28 515.27 280.03 513.52 282.03 511.27 285.28 508.02 288.03 505.77 290.03 503.77 291.53 500.52 293.53 496.77 295.03 493.27 295.53 491.52 296.53 489.52 298.28 488.52 300.28 488.52 302.79 489.27 306.29 489.52 308.54 490.27 310.29 491.27 312.29 491.27 315.04 491.02 320.54 490.02 323.54 489.02 325.04 488.02 325.29 486.52 324.79 485.02 325.29 482.51 327.04 477.76 328.04 473.76 329.54 471.51 331.04 470.51 333.04 469.26 334.79 466.76 337.04 464.26 338.29 463.51 340.04 463.26 341.54 463.76 344.79 466.26 348.04 468.51 351.04 470.76 354.29 472.76 358.98 473.73 360.25 473.07 361.7 472.77 362.83 472.86 363.75 473.12 364.69 473.47 365.54 473.65 366.43 473.57 379.23 454.39 380.9 453.05 382.69 452.34 384.59 452.05 386.36 451.96 387.78 452.13 388.47 452.33 388.94 452.54 389.29 452.76 389.78 453.25 390.63 454.33 390.94 454.87 391.11 455.45 391.21 456.19 390.92 460.91 391.08 461.6 391.51 462.21 392.64 462.95 394.06 463.24 406.41 462.74 409.93 463.24 411.19 463.76 412.32 464.65 416.35 470.45 417.77 471.82 419.58 473.09 421.19 473.71 422.41 473.99 423.64 474.03 424.91 473.84 426.18 473.27 427.24 472.38 429.21 470.09 429.73 469.6 430.26 469.22 431.14 468.81 433.87 467.86 435.44 467.08 437 465.98 438.2 464.67 440.8 460.16 441.87 458.86 443.21 457.82 444.68 457.32 445.89 457.29 448.41 457.84 449.48 457.88 450.56 457.7 452.02 457.14 457.41 453.89 458.87 453.53 459.94 453.54 461.15 453.85 470.46 458.79 Z" id="SDN-882" data-name="South Kordufan"/>
<path d="M 466.32 271.28 478.16 297.05 485.45 306.4 495.74 323.42 497.06 326.33 499.84 334.45 484.6 340.74 483.98 341.14 483.48 341.7 483.49 342.67 483.62 343.46 483.78 344.1 483.75 344.38 483.54 344.62 478.16 348.23 477.89 348.48 477.74 348.72 472.67 359.5 472.23 360.05 471.88 360.37 471.48 360.63 470.36 361.17 468.92 361.72 467.14 362.59 466.76 362.87 466.08 363.51 464.32 366.06 463.24 368.94 463.14 369.3 462.3 375.58 462.41 382.06 463.12 386.26 463.84 388.79 464.63 390.64 464.92 391.62 465.12 392.09 465.33 392.47 465.47 392.66 465.63 392.83 466.62 393.53 468.32 394.5 470.36 396.06 471.42 396.65 471.6 396.8 471.76 396.97 472.29 397.76 475.04 404.16 478.21 409.15 479.43 410.57 480.74 411.79 481.19 412.32 482.38 413.43 482.77 413.7 483.88 414.21 486.52 414.92 486.76 415.02 487.53 415.52 487.71 415.68 487.9 415.88 487.99 416.06 488.04 416.39 487.94 417.06 486.63 421 486.52 421.82 486.53 422.38 486.64 422.91 487.28 424.57 487.52 425.62 487.55 425.91 487.53 426.21 487.48 426.5 487.31 426.91 487.02 427.45 486.46 428.21 486.13 428.57 485.84 428.8 481.72 430.37 474.15 435.33 469.53 439.46 468.46 440.71 468.24 441.09 468.33 442.99 470.46 458.79 461.15 453.85 459.94 453.54 458.87 453.53 457.41 453.89 452.02 457.14 450.56 457.7 449.48 457.88 448.41 457.84 445.89 457.29 444.68 457.32 443.21 457.82 441.87 458.86 440.8 460.16 438.2 464.67 437 465.98 435.44 467.08 433.87 467.86 431.14 468.81 430.26 469.22 429.73 469.6 429.21 470.09 427.24 472.38 426.18 473.27 424.91 473.84 423.64 474.03 422.41 473.99 421.19 473.71 419.58 473.09 417.77 471.82 416.35 470.45 412.32 464.65 411.19 463.76 409.93 463.24 406.41 462.74 394.06 463.24 392.64 462.95 391.51 462.21 391.08 461.6 390.92 460.91 391.21 456.19 391.11 455.45 390.94 454.87 390.63 454.33 389.78 453.25 389.29 452.76 388.94 452.54 388.47 452.33 387.78 452.13 386.36 451.96 384.59 452.05 382.69 452.34 380.9 453.05 379.23 454.39 366.43 473.57 365.54 473.65 364.69 473.47 363.75 473.12 362.83 472.86 361.7 472.77 360.25 473.07 358.98 473.73 354.29 472.76 351.04 470.76 348.04 468.51 344.79 466.26 341.54 463.76 340.04 463.26 338.29 463.51 337.04 464.26 334.79 466.76 333.04 469.26 331.04 470.51 329.54 471.51 328.04 473.76 327.04 477.76 325.29 482.51 324.79 485.02 325.29 486.52 325.04 488.02 323.54 489.02 320.54 490.02 315.04 491.02 312.29 491.27 310.29 491.27 308.54 490.27 306.29 489.52 302.79 489.27 300.28 488.52 298.28 488.52 296.53 489.52 295.53 491.52 295.03 493.27 293.53 496.77 291.53 500.52 290.03 503.77 288.03 505.77 285.28 508.02 282.03 511.27 280.03 513.52 278.28 515.27 275.78 516.77 273.28 517.52 270.28 518.27 265.28 518.27 261.03 516.52 258.32 514.37 258.3 502.89 256.74 495.15 253.64 489.46 253.53 488.36 253.19 486.81 252.61 485.69 250.26 482.06 250.08 481.54 250.02 481.14 250 478.76 250.25 476.96 250.28 476.35 250.24 475.77 248.49 469.26 248.36 468.11 248.45 467.6 248.66 466.97 251.22 462.8 252.52 459.29 252.67 458.74 252.77 458.13 252.81 457.44 252.46 451.73 252.99 445.22 253.21 444.49 254.49 441.65 261.71 432.74 262.79 431.05 263.4 429.61 264.79 427.54 264.93 426.96 265.15 423.32 265.28 422.6 265.45 422.15 266.15 421.53 270.95 415.91 271.52 415.06 271.7 414.63 272.31 412.35 272.47 410.59 271.94 408.79 268.9 403.96 268.77 403.68 268.64 403.27 268.65 402.71 270.63 391.85 263.55 372.26 258.45 356.45 256.42 352.59 254.55 351.35 254.07 350.88 253.84 350.28 243.67 266.13 244.07 265.33 244.64 264.92 269.95 264.79 271.22 264.63 440.64 270.16 457.1 268.7 459.54 269.07 466.32 271.28 Z" id="SDN-883" data-name="North Kordufan"/>
<path d="M 721.53 246.41 721.43 246.79 721.54 247.22 722.48 248.48 722.65 249.39 722.43 250.3 721.28 251.9 721.44 252.41 721.93 252.88 722.35 253.47 722.46 254.07 722.38 255.98 722.44 256.16 722.72 256.59 722.78 256.87 722.69 257.06 722.35 257.44 722.26 257.65 722.08 260.5 720.91 263.35 720.4 264.01 718.83 265.09 718.11 265.72 717.68 266.62 717.6 267.46 717.69 269.01 717.54 269.93 716.96 271.82 716.93 272.48 717.25 273.58 717.87 274.42 718.61 275.18 719.29 276.05 719.34 276.19 719.64 277.01 719.62 277.85 719.45 278.71 719.38 279.72 719.63 280.72 720.49 282.64 720.62 283.66 720.13 284.86 718.14 286.85 717.37 288.1 715.79 292.43 713.64 298.34 711.37 304.6 710.09 306.63 707.74 308.99 707.16 310.04 704.58 319.14 704.46 321.15 705.11 323.22 703.55 324.23 702.62 325.7 700.22 332.62 699.35 333.93 695.86 337.23 695.47 338.05 695.41 339.1 695.95 343.61 696.92 351.57 697.24 354.19 697.23 354.19 694.48 353.84 678 354.24 674.19 354.95 651.98 362.84 649.27 363.3 647.16 363.07 644.81 361.45 633.97 349.72 627.52 334.33 626.61 332.9 624.03 329.66 622.21 327.8 620.15 326.08 617.6 324.45 609.92 320.51 604.24 318.52 597.45 316.96 591.01 302.98 589.67 298.72 589.57 296.06 591.54 292.66 603.39 276.96 604.78 276.28 607.37 275.99 639.72 276 643.48 275.46 647.13 274.25 651.22 272.05 654.2 269.99 657.18 266.82 659.08 262.02 659.73 256.41 658.94 240.94 675.85 249.39 677.19 249.83 678.07 249.88 721.51 246.41 721.53 246.41 Z" id="SDN-884" data-name="Kassala"/>
</g>
</svg>