<?xml version="1.0"?>
<svg xmlns="http://www.w3.org/2000/svg" version="1.2" baseProfile="tiny" width="800" height="951" viewBox="0 0 800 951" stroke-linecap="round" stroke-linejoin="round">
<g id="ne_10m_admin_1_states_provinces">
<path d="M 108.43 891.01 106.08 890.38 102.64 890.91 102.37 887.2 100.55 884.04 106.83 876.2 116.93 873.98 128.22 874.58 136.14 877.38 140.17 874.03 142.62 875.67 142.29 879.04 138 880.91 122.15 881.71 117.52 882.95 110.89 887.74 108.43 891.01 Z" id="ASM-4998" data-name="Eastern"/>
<path d="M 450.01 872.05 448.1 874.87 444.55 873.45 442.39 875.71 440.18 876.71 437.78 876.6 435.08 875.31 434.13 877.71 432.52 878.95 430.27 879.27 427.46 879.04 426.73 875.78 425.7 873.01 424.2 870.92 422.04 869.72 426.17 866.79 431.92 865.77 443.54 866.04 448.94 868.06 450.01 872.05 Z M 396.7 853.43 390.01 856.74 387.39 856.41 385.62 852.85 385.63 852.85 387.82 851.28 390.54 851.21 393.55 852.1 396.7 853.43 Z" fill-rule="evenodd" id="ASM-4999" data-name="Manu&apos;s"/>
<path d="M 798.7 950.49 795.56 947.98 798.17 946.91 799 947.22 798.7 950.49 Z" id="ASM-5000" data-name="Rose Atoll"/>
<path d="M 4.74 1.31 4.56 3.93 2.36 5.02 1 3.44 1.24 1 4.74 1.31 Z" id="ASM-5001" data-name="Swain&apos;s Island"/>
<path d="M 108.43 891.01 100.47 901.55 93.15 907.34 91.29 905.28 80.11 897.86 72.92 894.27 70.62 892.27 82.24 885.48 86.62 884.64 96.09 884.81 100.55 884.04 102.37 887.2 102.64 890.91 106.08 890.38 108.43 891.01 Z" id="ASM-5002" data-name="Western"/>
</g>
</svg>