<?xml version="1.0"?>
<svg xmlns="http://www.w3.org/2000/svg" version="1.2" baseProfile="tiny" width="800" height="880" viewBox="0 0 800 880" stroke-linecap="round" stroke-linejoin="round">
<g id="ne_10m_admin_1_states_provinces">
<path d="M 655.07 210.57 654.62 211.85 653.87 214.03 653.04 216.4 652.54 217.84 651.82 219.89 651.46 220.94 651.08 223.77 651.48 225.44 651.56 226.19 651.35 226.94 650.42 228.21 650.21 228.83 650.39 233.22 650.68 234.36 651.31 234.88 653.33 236.02 653.77 236.76 653.91 238.33 654.33 239.62 655.03 240.76 656.65 242.63 657.05 243.49 657.23 244.58 657.38 247.33 658.07 250.39 658.6 251.55 660.48 253.38 661.12 254.57 660.64 254.83 660.61 254.82 660.39 254.77 656.82 256.87 655.82 258.19 654.46 259.61 653.04 260.67 647.83 261.57 643.96 262.89 641.84 263.99 640.45 265.11 640.02 265.62 639.64 266.21 638.67 267.25 637.4 268.27 629.12 270.26 624.76 270.3 621.4 269.65 618.48 269.4 614.84 270.18 613.46 270.21 611.69 270.45 608.26 271.78 606.54 272.25 603.7 272.59 602.52 272.95 600.58 273.89 598 275.73 596.05 278.16 591.37 281.4 588.15 285.27 586.06 288.7 585.41 290.24 584.46 293.43 583.59 295.15 582.16 296.8 579.38 298.29 574.94 299.77 564.97 304.24 564.08 304.96 563.38 306.19 562.77 307.57 561.85 310.48 561.22 311.85 559.97 313.06 557.95 313.92 554.43 314.55 552.32 315.3 549.55 317.03 539.67 325.25 538.26 326.48 537.6 327.18 536.93 328.05 536.45 329.77 534.74 342.53 534.3 344.1 533.58 345.84 531.51 348.97 528.69 352.07 524.42 354.76 515.33 356.91 513.11 358.73 511.54 359.72 509.53 360.75 503.45 361.75 501.05 362.97 498.51 365.15 495.23 367.34 490.6 368.76 489.13 369.44 487.11 370.8 483.86 373.65 482.3 374.73 480.59 375.62 476.1 377.17 469.66 377.99 468.03 378.35 466.26 378.97 464.26 380.34 461.39 383.19 459.75 384.51 454.11 387.22 449.38 388.16 437.72 387.59 438.9 388.08 437.01 388.56 435.85 388.99 434.18 388.6 432.65 387.92 426.2 383.5 422.84 380.66 421.48 379.07 420.55 377.42 420.04 375.88 420.22 374.37 421.36 371.61 422.06 370.38 423.11 369.44 424.75 366.71 425.38 365.18 425.26 363.86 424.52 362.87 423.82 362.35 396.21 351.99 390.2 349.74 388.31 349.62 385.85 349.2 384.71 348.25 384.17 347.01 383.91 345.53 382.27 342.92 380.98 342.15 378.28 341.3 377.06 341.03 376.34 340.59 375.52 339.76 374.92 338.62 374.02 337.53 371.63 336.09 370.9 334.96 370.69 332.18 370.48 330.99 370.25 330.22 369.31 328.55 368.14 326.88 366.05 322.21 365.73 320.5 365.93 318.9 367.02 317.52 368.45 316.5 370.08 315.72 377.74 313.08 378.83 312.52 379.78 311.26 380.59 308.3 381.94 304.85 382.09 302.67 380.89 296.53 380.84 294.77 380.95 293.47 381.31 291.62 382.34 286.79 382.55 275.61 382.05 271.86 381.06 269.91 379.84 268.05 378.92 266.25 378.31 263.88 378.22 262.09 378.55 260.38 379.18 258.9 380.04 257.7 380.46 256.9 381.38 255.85 380.73 255.1 380.06 253.55 379.74 251.88 379.89 243.82 378.37 242.67 377.88 241.96 378.15 241.18 378.63 240.45 378.72 239.76 378.68 239.04 378.79 238.26 378.79 238.24 378.81 238.28 379.31 238.85 382.91 239.73 384.73 239.7 390.19 237.79 392.13 237.94 394.31 238.75 395.11 238.65 399.11 236.46 400.16 236.25 402.31 236.48 404.2 237.39 407.49 240.17 409.21 240.55 414.98 240.42 414.57 238.81 414.64 237.02 415.24 235.53 416.41 234.83 417.4 234.58 420.03 233.34 421.07 233.19 425.87 233.38 429.02 233.5 431.43 234.41 432.26 234.47 433.25 234.18 434.66 233.43 435.74 233.28 439.68 233.22 440.08 233.28 441.35 233.23 441 230.82 441.13 229.57 441.92 229.02 446.56 229.03 451.6 229.03 456.21 229.03 456.78 229.38 457.09 231.19 457.49 231.98 458.48 233.52 461.33 233.52 469.54 233.52 477.76 233.52 485.97 233.52 494.19 233.52 495.95 233.52 494.56 228.51 494.36 226.86 494.55 224.84 495.49 221.9 496.11 219.97 497.38 216.01 497.61 214.32 497.58 212.76 497.09 211.09 496.35 209.37 495.83 207.65 495.95 205.96 500.4 206.32 501.64 206.04 502.56 205.07 503.24 202.55 504.11 201.42 504.16 201.38 504.21 201.34 504.27 201.32 506.1 199.87 506.14 197.87 504.43 193.59 503.93 191.38 503.73 189.34 504.43 178.9 505.06 176.83 505.8 175.64 507.58 173.4 507.99 172.36 507.84 171.67 506.66 169.12 510.02 169.12 512.73 169.12 515.43 169.12 518.13 169.12 520.83 169.12 523.54 169.12 526.25 169.12 528.95 169.12 531.65 169.12 534.36 169.12 535.07 169.12 537.06 169.12 539.77 169.12 542.48 169.12 545.18 169.12 547.89 169.12 550.59 169.12 553.3 169.12 556.4 169.12 556.39 168.19 556.68 166.06 556.97 165.14 557.49 164.17 558.02 163.75 558.77 163.63 562.16 163.63 567.54 163.61 573.1 163.59 576.82 163.58 575.32 167.5 573.57 172.07 572.57 174.7 571.22 178.21 570.82 181.21 570.89 184.27 570.97 187.43 573.96 187.42 578.65 187.41 583.33 187.4 588.01 187.38 592.7 187.37 597.38 187.36 602.07 187.34 606.75 187.33 611.43 187.32 616.12 187.31 620.8 187.29 625.48 187.28 630.17 187.27 634.85 187.25 639.54 187.24 644.23 187.23 648.91 187.21 651.07 187.2 652.39 187.24 652.37 187.47 652.6 187.78 653.02 187.93 653.52 188.24 653.93 188.72 655.38 191.8 655.74 192.21 656.09 192.81 655.93 193.34 655.61 193.8 655.48 194.16 655.85 194.88 656.3 195.33 656.68 195.81 656.84 196.61 656.77 197 656.44 197.59 656.36 197.91 656.51 198.28 657.13 198.87 657.28 199.25 657.16 200.07 656.57 201.38 656.36 202.11 656.32 202.91 656.46 203.31 656.67 203.67 656.84 204.31 656.84 206.73 656.63 207.22 655.69 208.17 655.48 208.54 655.36 209.74 655.07 210.57 Z" id="AGO-1874" data-name="Lunda Norte"/>
<path d="M 660.64 254.83 660.14 255.11 659.79 255.85 660.53 257.49 662.11 259.98 662.62 262.75 662.37 265.58 660.84 270.53 661.17 270.65 661.37 270.79 661.63 270.9 662.11 270.94 660.94 273 660.24 274.95 659.48 279.67 658.82 283.76 658.37 284.21 657.87 286.34 657.21 287.89 656.69 293.01 656.84 296.36 655.92 303.73 656.7 310.21 656.68 312.83 656 315.54 654.01 319.56 653.6 321.8 652.93 323.12 652.84 323.94 653.11 324.64 654.21 325.95 654.64 326.61 655.43 329.23 656.17 334.88 656.84 337.57 658.44 340.09 662.52 344.33 663.44 346.84 663.84 346.62 664.83 346.22 665.23 346 665.35 348.08 666.13 349.88 669.83 354.15 670.47 354.52 670.92 354.38 671.38 353.91 672.1 354.26 673.17 355.18 675.66 356.75 676.53 357.76 677.03 359.2 677.55 361.47 678.86 364.99 679.43 367.7 679.74 368.5 679.3 370.59 680.47 373.52 682.06 376.42 683.2 379.45 684.71 382.08 685.27 384.03 686.2 385.17 686.42 385.91 686.34 386.64 686.01 387.91 685.94 388.57 685.63 389.54 684.18 391.86 683.74 393.2 683.88 394.57 684.53 395.43 685.33 396.29 685.94 397.64 686.16 400.36 686.11 401.62 686.08 401.63 686.07 401.63 683.71 402.46 681.75 402.55 681.15 402.45 680.69 402.32 680.39 402.18 679.33 401.45 678.98 401.26 678.57 401.09 675.15 400.21 674.52 400.18 673.21 400.28 672.66 400.23 672.17 400.09 671.8 400.1 671.53 400.24 671.1 400.71 670.61 401.12 670.41 401.36 669.35 401.68 658.74 402.68 654.84 402.49 653.74 402.6 653.03 402.77 652.59 403.23 652.2 403.73 651.07 405.72 650.35 407.67 650.11 409.64 649.73 410.6 649.64 410.95 649.62 411.79 649.85 414.2 649.84 414.62 649.61 415.08 649.18 415.56 647.26 416.98 646.59 417.67 645.24 419.36 645.1 419.65 645.04 420 645.07 420.79 645.04 421.19 644.96 421.54 644.83 421.87 644.66 422.57 644.61 424.65 644.54 425.02 644.39 425.32 643.98 425.81 643.83 426.06 643.73 426.33 643.7 426.52 643.7 426.66 643.72 426.9 643.88 427.54 643.99 427.87 644.15 428.16 644.34 428.42 644.78 428.86 644.97 429.11 645.08 429.43 645.14 429.77 645.28 430.08 645.51 430.3 645.8 430.43 646.49 430.47 646.74 430.57 646.76 430.8 646.58 431.4 646.53 431.76 646.57 432.13 646.67 432.46 646.77 432.69 647.03 433 646.68 435.1 645.99 435.62 645.66 435.7 643.99 436.32 643.13 436.8 640.08 438.14 639.5 438.27 637.82 438.27 636.81 438.09 636.56 437.93 636.33 437.69 636.14 437.44 635.81 437.31 635.57 437.44 635.24 437.68 634.87 437.69 633.87 437.56 633.54 437.69 633.3 437.92 633.13 438.23 632.99 438.56 632.47 439.29 632.16 439.62 628.01 440.35 626.97 441.05 626.57 441.24 623.88 441.86 620.53 443.52 619.03 443.93 617.02 444.25 616.32 444.49 615.92 444.72 615.86 444.86 615.91 445.05 616.04 445.2 616.07 445.29 616.04 445.41 615.08 446.81 614.55 447.33 614.22 447.57 613.49 447.92 613.12 448.21 612.84 448.49 612.68 448.78 612.08 449.61 611.94 449.85 611.81 450.15 611.57 450.46 611.25 450.76 610.66 451.06 610.39 451.26 610.06 451.38 609.66 451.46 608.19 451.35 607.74 451.37 607.02 451.88 605.83 452.43 604.04 453.55 603.81 453.95 603.75 454.33 603.85 454.68 604.39 455.8 604.33 456.27 604.37 456.53 604.3 456.75 604.13 456.94 601.24 457.15 595.79 456.85 594.65 456.68 593.99 456.43 593.4 456.29 592.45 456.32 591.58 456.22 590.58 456.01 587.93 455.1 587.08 454.98 586.04 455.05 585.57 455.13 584.73 454.72 584.51 454.07 584.35 453.85 583.69 453.12 583.3 453.01 582.79 453.01 581.38 453.19 580.74 453 580.38 452.81 578.46 451.54 578 451.34 574.96 450.54 574.39 450.29 574.05 450.1 573.85 449.86 573.59 449.22 573.37 448.97 573 448.85 572.55 448.83 571.82 448.93 571.28 448.94 569.84 448.52 569.64 448.44 569.43 448.32 569.23 448.13 568.98 447.93 568.42 447.6 568.17 447.4 567.65 446.63 567.48 446.45 567.34 446.34 567.11 446.21 565.95 445.68 565.25 445.15 565.08 445.06 564.5 444.85 563.67 444.38 563.25 444.33 562.76 444.39 562.05 444.69 561.27 445.24 560.95 445.32 560.56 445.31 559.42 444.84 559.07 444.75 557.93 444.61 557.63 444.46 557.39 444.25 557.22 444.04 556.93 443.55 556.8 443.41 556.54 443.21 556.18 443 554.32 442.35 553.18 442.14 552.64 441.91 552.26 441.66 552.03 441.45 551.76 441.27 551.46 441.13 550.39 440.8 550.11 440.63 549.88 440.41 549.69 440.16 549.33 440.01 548.83 440.03 547.87 440.43 547.43 440.78 547.11 441.12 546.93 441.38 546.48 441.83 545.93 442.62 545.25 443.28 544.85 443.76 544.67 444.04 544.46 444.27 544.22 444.47 543.56 444.93 543.27 444.96 541.87 444.71 541.43 444.54 541.11 444.38 540.86 444.22 540.1 443.93 539.82 443.71 539.56 443.48 539.16 443.35 538.51 443.33 537.33 443.57 535.37 443.45 535 443.54 534.64 443.82 534.4 444.1 534.24 444.42 534.02 445.06 533.88 445.3 533.78 445.44 533.58 445.6 533.36 445.75 532.92 445.95 532.54 446 532 445.97 531.05 445.72 530.61 445.45 530.31 445.13 529.95 444.23 529.83 444.02 529.7 443.86 529.4 443.7 528.98 443.54 528.23 443.43 527.5 443.03 527.29 442.84 526.85 442.92 526.36 443.24 524.36 445.05 523.96 445.33 523.6 445.52 521.17 446.25 520.08 446.44 519.64 446.4 519.06 446.28 515.86 444.9 513.25 443.06 512.22 442.97 509.62 443.54 508.79 444.48 508.53 445.11 508.46 445.51 508.39 445.69 508.23 445.88 507.93 446.52 507.78 446.77 505.74 448.46 505.41 448.84 505.1 449.13 503.58 450.22 502.89 450.89 502.41 451.21 498.81 453.03 498.32 453.16 497.67 453.25 494.73 453.2 494.36 453.14 494.06 452.99 493.5 452.66 493.15 452.56 492.76 452.5 491.89 452.5 491.16 452.56 490.83 452.7 490.47 452.93 489.6 453.79 489.24 454.32 488.3 454.91 485.2 455.94 485.27 454.36 485.76 451.82 486.42 450.26 486.87 448.64 488.25 445.49 488.18 443.99 487.3 442.54 486 441.35 483.87 440.62 480.4 439.89 478.85 439.26 477.43 438.07 474.39 434.92 471.35 432.63 457.77 424.08 457.21 422.4 456.38 421.01 455.36 419.85 454.21 418.79 451.85 416.68 450.76 415.43 449.86 413.93 449.14 412.15 448.77 410.46 448.54 406.9 448.34 406.5 447.98 406.31 447.73 406.07 447.86 405.54 448.29 405.1 448.65 405.27 449 405.58 449.42 405.58 450.61 404.99 450.65 404.57 449.86 403.78 450.18 403.68 450.76 403.43 451.18 403.38 450.93 402.73 451.03 402.23 451.42 401.85 452.06 401.58 451.66 401.4 450.73 400.7 451.03 400.51 451.35 400.09 451.62 399.82 450.74 399.65 450.15 399.19 449.84 398.5 449.86 397.62 448.98 398.5 447.54 397.85 446.85 397.35 446.3 396.7 445.9 397.18 445.43 396.37 444.32 395.34 443.92 393.42 443.08 392.37 442.78 391.43 441.98 391.45 440.7 390.92 439.7 390.99 440.27 389.96 440.58 389.63 438.9 388.08 437.72 387.59 449.38 388.16 454.11 387.22 459.75 384.51 461.39 383.19 464.26 380.34 466.26 378.97 468.03 378.35 469.66 377.99 476.1 377.17 480.59 375.62 482.3 374.73 483.86 373.65 487.11 370.8 489.13 369.44 490.6 368.76 495.23 367.34 498.51 365.15 501.05 362.97 503.45 361.75 509.53 360.75 511.54 359.72 513.11 358.73 515.33 356.91 524.42 354.76 528.69 352.07 531.51 348.97 533.58 345.84 534.3 344.1 534.74 342.53 536.45 329.77 536.93 328.05 537.6 327.18 538.26 326.48 539.67 325.25 549.55 317.03 552.32 315.3 554.43 314.55 557.95 313.92 559.97 313.06 561.22 311.85 561.85 310.48 562.77 307.57 563.38 306.19 564.08 304.96 564.97 304.24 574.94 299.77 579.38 298.29 582.16 296.8 583.59 295.15 584.46 293.43 585.41 290.24 586.06 288.7 588.15 285.27 591.37 281.4 596.05 278.16 598 275.73 600.58 273.89 602.52 272.95 603.7 272.59 606.54 272.25 608.26 271.78 611.69 270.45 613.46 270.21 614.84 270.18 618.48 269.4 621.4 269.65 624.76 270.3 629.12 270.26 637.4 268.27 638.67 267.25 639.64 266.21 640.02 265.62 640.45 265.11 641.84 263.99 643.96 262.89 647.83 261.57 653.04 260.67 654.46 259.61 655.82 258.19 656.82 256.87 660.39 254.77 660.61 254.82 660.64 254.83 Z" id="AGO-1875" data-name="Lunda Sul"/>
<path d="M 350.57 193.35 350.58 194.9 350.96 195.79 351.87 196.39 352.39 195.49 352.78 195.37 353.16 195.63 353.68 195.91 355.05 196.27 355.63 196.57 355.87 197.03 355.53 197.43 354.77 197.68 354.02 198.05 353.68 198.81 353.83 199.43 354.24 199.85 354.79 200.24 355.39 200.79 356.26 202.24 357.33 205.33 358.29 206.73 361.43 208.3 362.71 209.25 362.47 210.46 362.77 211.51 362.71 213.02 362.87 214.04 363.82 213.58 363.96 214.08 364.1 214.19 364.1 214.22 363.82 214.5 364.9 214.95 364.91 215.51 364.5 216.12 364.26 216.7 364.61 217.52 365.77 218.55 366.02 219.13 366.31 219.48 367.8 219.69 368.44 220.01 368.54 220.62 368.48 221.42 368.8 222 370.02 222.02 370.02 222.45 369.42 223.03 369.87 223.17 370.72 223.18 371.35 223.33 371.54 224.06 371.51 224.88 371.72 225.37 372.66 225.09 373.4 225.92 373.16 226.49 372.56 227.09 372.22 227.97 372.46 228.39 373.04 228.81 374.42 229.49 374.11 229.97 374.08 230.15 374.22 230.33 374.42 230.81 374.6 230.53 374.99 230.2 375.29 229.89 375.88 231.94 376.22 232.56 376.87 233.16 378.29 233.89 378.81 234.36 379.04 235.45 378.29 237.29 378.79 238.24 378.79 238.26 378.68 239.04 378.72 239.76 378.63 240.45 378.15 241.18 377.88 241.96 378.37 242.67 379.89 243.82 379.74 251.88 380.06 253.55 380.73 255.1 381.38 255.85 380.46 256.9 380.04 257.7 379.18 258.9 378.55 260.38 378.22 262.09 378.31 263.88 378.92 266.25 379.84 268.05 381.06 269.91 382.05 271.86 382.55 275.61 382.34 286.79 381.31 291.62 380.95 293.47 380.84 294.77 380.89 296.53 382.09 302.67 381.94 304.85 380.59 308.3 379.78 311.26 378.83 312.52 377.74 313.08 370.08 315.72 368.45 316.5 367.02 317.52 365.93 318.9 365.73 320.5 366.05 322.21 368.14 326.88 369.31 328.55 370.25 330.22 370.48 330.99 370.69 332.18 370.9 334.96 371.63 336.09 374.02 337.53 374.92 338.62 375.52 339.76 376.34 340.59 377.06 341.03 378.28 341.3 380.98 342.15 382.27 342.92 383.91 345.53 384.17 347.01 384.71 348.25 385.85 349.2 388.31 349.62 390.2 349.74 396.21 351.99 423.82 362.35 424.52 362.87 425.26 363.86 425.38 365.18 424.75 366.71 423.11 369.44 422.06 370.38 421.36 371.61 420.22 374.37 420.04 375.88 420.55 377.42 421.48 379.07 422.84 380.66 426.2 383.5 432.65 387.92 434.18 388.6 435.85 388.99 437.01 388.56 438.9 388.08 440.58 389.63 440.27 389.96 439.7 390.99 440.7 390.92 441.98 391.45 442.78 391.43 443.08 392.37 443.92 393.42 444.32 395.34 445.43 396.37 445.9 397.18 446.3 396.7 446.85 397.35 447.54 397.85 448.98 398.5 449.86 397.62 449.84 398.5 450.15 399.19 450.74 399.65 451.62 399.82 451.35 400.09 451.03 400.51 450.73 400.7 451.66 401.4 452.06 401.58 451.42 401.85 451.03 402.23 450.93 402.73 451.18 403.38 450.76 403.43 450.18 403.68 449.86 403.78 450.65 404.57 450.61 404.99 449.42 405.58 449 405.58 448.65 405.27 448.29 405.1 447.86 405.54 447.73 406.07 447.98 406.31 448.34 406.5 448.54 406.9 448.77 410.46 449.14 412.15 449.86 413.93 450.76 415.43 451.85 416.68 454.21 418.79 455.36 419.85 456.38 421.01 457.21 422.4 457.77 424.08 457.85 425.85 457.04 428.88 456.85 430.68 457.3 432.43 459.12 435.67 459.53 437.35 459.17 439.12 458.59 440.38 458.6 441.56 459.97 443.07 460.53 443.45 461.08 443.88 461.58 444.42 462.03 445.32 462.28 446.31 462.35 447.64 462.55 448.96 461.98 449.98 460.88 450.35 458.05 449.99 456.54 450.01 453.28 450.66 446.5 453.15 443.12 454.87 441.82 455.76 437.48 460.14 436.22 460.93 434.78 461.37 433.18 461.43 430.02 461.23 426.76 460.51 425.12 460.6 420.28 461.88 419.68 461.97 419 462.14 418.5 462.17 418.06 462.14 417.02 461.83 415.48 461.68 415.27 461.64 414.69 461.45 414.17 461.48 413.5 461.66 412.37 462.2 411.72 462.39 411.23 462.42 410.97 462.3 410.79 462.16 410.46 461.85 410.26 461.45 410.17 461.19 410.04 460.93 409.86 460.66 409.63 460.45 409.39 460.27 409.17 460.14 409.01 460.06 408.77 460 407.92 460.12 406.42 460.55 405.95 460.64 405.38 460.63 405.09 460.58 404.21 460.56 403.86 460.52 403.51 460.42 403.22 460.27 402.96 460.08 402.74 459.86 402.56 459.6 402.31 459.04 402.27 458.83 402.24 458.48 402.51 456.23 402.49 456.09 402.41 455.83 402.14 455.26 401.63 454.46 401.17 453.12 401.04 452.81 400.87 452.54 400.45 452.12 399.55 451.6 397.64 449.91 398.46 454.26 398.58 458.78 398.03 460.76 396.84 462.37 390.7 468.72 389.17 469.74 386.15 472.2 385.07 472.61 383.93 472.91 382.12 473.33 381.12 472.85 376.77 470.82 376.5 470.62 376.71 470.21 377.03 469.09 377.17 468.05 377.18 467.3 377.01 466.56 375.27 462.8 375.04 461.27 375.71 459.82 376.28 459.51 377.96 458.87 378.39 458.45 378.3 457.39 377.5 457.25 376.48 457.61 375.71 458.05 375.84 457.22 375.72 455.66 375.95 455.14 376.87 454.58 377.29 454.25 377.47 453.86 377.44 452.91 377.49 452.44 377.69 452.06 377.43 450.94 375.02 447 374.15 445.89 373.79 445.18 373.77 444.31 373.91 443.07 373.43 441.94 373 441.69 372.38 441.79 371.32 441.75 369.93 441.09 369.51 440.05 370.09 438.86 371.72 437.75 372.2 438.23 373.02 437.56 373.41 436.69 373.52 434.45 373.17 433.17 371.66 431.05 370.98 428.91 369.31 427.3 368.64 426.28 368.46 425.18 368.54 422.93 368.2 421.88 367 420.85 363.62 418.85 362.92 417.67 362.37 417.41 358.93 417.89 358.06 417.61 357.11 417.13 356.18 416.8 355.37 417.01 354.62 414.77 353.94 414.26 352.77 414.81 351.58 414.38 350.99 415.16 350.23 415.83 348.53 415.01 347.3 414.06 346.28 413.45 339.48 411.52 338.44 411.03 337.07 410.47 334.45 411.45 333.35 411.25 331.95 411.83 330.5 411.69 329.25 411.12 328.47 410.41 326.63 407.52 325.91 406.9 325.16 406.74 323.41 406.73 322.71 406.46 322.14 405.82 320.99 403.78 320.49 403.48 319.87 403.32 319.37 402.95 319.2 402.02 319.39 401.52 319.85 401.07 320.99 400.26 320.26 399.67 319.25 399.15 318.76 398.74 318.28 398.37 317.53 396.72 316.03 395.57 315.68 395.16 315.47 394.74 311.72 390.11 310.15 389.32 309.2 388.61 308.71 388.43 308.35 388.09 308.21 387.23 308.64 385.02 308.61 384.35 305.79 380.84 305.47 380.7 305.13 380.4 304.68 380.1 304.01 379.96 303.2 379.92 302.72 379.8 302.38 379.54 302.01 379.12 301.51 378.22 301.25 377.09 301.13 374.42 301.53 373.03 302.44 372.27 303.47 371.76 304.21 371.12 301.79 361.45 300.83 360.97 300.29 359.8 299.7 355.68 299.49 355.28 298.93 354.78 298.46 354.63 297.03 354.36 296.74 354.13 296.39 353.7 295.62 352.99 294.85 352.08 294.5 351.04 294.34 349.7 293.93 348.51 293.36 347.55 292.74 346.82 291.6 346.03 290.39 345.64 287.66 345.5 286.26 345.28 285.17 344.9 284.28 344.83 283.46 345.5 282.15 344.4 281.67 344.18 280.8 344.07 280.2 344.24 279.63 344.49 278.83 344.62 278.51 344.38 278.13 343.92 277.67 343.65 277.07 343.97 276.59 344.39 276.02 344.73 275.35 344.97 274.59 345.1 273.36 345.1 271.33 344.72 270.03 344.62 269.66 344.48 268.78 343.89 268.26 343.75 267.57 343.89 267.37 344.27 267.33 344.83 267.16 345.5 266.7 346.37 266.09 347.24 265.3 347.91 264.3 348.18 258.26 348.7 257.01 348.62 255.61 348.18 254.83 348.09 252.88 349.1 251.76 349.01 250.55 348.67 249.01 348.62 248.72 348.78 248.48 349.08 248.29 349.37 248.17 349.5 247.59 349.47 246.62 349.14 246.17 349.06 241.24 349.62 239.79 350.19 238.9 350.38 237.87 350.27 236.92 350 235.98 349.91 234.98 350.38 234.21 349.77 232.85 349.29 231.56 349.08 230.99 349.28 230.67 349.08 229.94 349.02 228.55 349.06 228.2 348.82 227.37 347.7 226.99 347.3 226.44 347.1 225.25 346.95 224.79 346.82 224.43 346.48 224.18 346.04 223.85 345.66 222.65 345.3 222.52 344.39 224.11 342.59 224.97 341.31 225.48 339.62 225.3 337.41 224.85 335.7 223.41 332.81 223.21 331.7 225.1 329.31 226.66 327.35 225.91 324.69 222.61 321.76 223.24 320.66 224.14 320.42 225.1 320.37 227.89 320.59 230.34 319.56 231.37 317.2 232.14 314.58 233.86 312.76 235.24 312.45 237.99 312.39 239.35 311.96 239.93 311.52 240.9 310.48 241.5 310.07 242.03 309.95 243.15 309.98 243.7 309.89 244.49 309.41 245.27 308.77 246.07 308.25 246.94 308.1 247.59 308.32 248.77 309.03 249.48 309.25 251.99 309.22 254.51 308.85 255.44 308.45 255.88 308.19 256.55 307.54 256.85 303.26 256.63 301.24 256.61 299.42 256.74 298.25 257.36 296.03 258.29 290.13 260.16 284.17 261.53 281.26 261.99 279.79 261.74 278.44 260.87 277.22 258 276.03 256.64 275.03 255.65 273.39 255.2 272.13 256.01 269.98 258.46 266.42 258.88 265.13 258.92 264.26 259.23 263.27 260.4 262.64 266.91 260.4 268.03 259.33 268.12 258.04 267.84 256.96 267.57 253.34 266.92 249.99 267.02 247.01 271.07 247.62 272.72 247.55 274.65 247.1 276.93 245.75 281.93 244.11 283.03 243.54 285.79 240.8 286.89 235.04 288.04 232.67 288.43 231.57 288.58 230.19 288.5 228.65 287.97 225.44 283.96 213.08 283.63 211.53 283.9 209.92 284.7 208.38 286.91 207.05 288.85 206.51 292.24 206.22 294 205.61 298.03 202.71 302.13 196.94 306.47 193.98 316.47 189.93 317.85 189.7 318.93 189.87 320.26 190.41 321.51 191.42 322.42 192.78 323.84 195.84 330.17 204.54 331.51 205.82 332.91 206.78 334.31 207.4 335.74 207.67 337.22 207.69 338.7 207.35 340.12 206.58 341.43 205.19 342.27 203.3 342.6 201.89 342.82 199.5 343.06 198.3 343.75 197.1 344.48 196.27 346.92 194.59 350.4 193.4 350.54 193.36 350.57 193.35 Z" id="AGO-1876" data-name="Malanje"/>
<path d="M 193.69 259.05 191.98 259.72 191.32 260.23 191.05 260.38 190.74 260.37 190.41 260.13 190.13 259.64 189.99 259.48 189.74 259.33 189.42 259.23 186.75 258.7 186.37 258.66 184.7 258.66 183.93 258.57 183.37 258.56 180.59 258.78 180.23 258.75 178.85 258.34 178.07 258.21 176.39 258.18 175.37 258.37 173.31 259.33 170.47 261.12 168.02 263.47 167.87 265.4 167.93 265.96 168.37 267.01 169.36 268.44 171.05 269.99 172.62 271.89 174.85 278.17 175.11 279.63 174.98 281.12 174.5 282.54 173.7 283.9 172.6 285.19 171.23 286.37 169.05 287.55 166.22 288.65 158.84 290.69 156.63 292.44 156.25 293.71 156.49 294.61 157.49 295.54 159.69 297.16 160.17 297.71 160.3 298.4 160.21 299.63 159.37 301.33 158.1 302.35 156.75 303.06 155.84 304 155.85 305.13 157.41 306.15 160.76 307.13 161.91 308.01 162.44 309.27 162.12 310.61 161.99 311.73 162.93 313.32 163.98 314.88 163.91 315.4 163.54 316.59 161.43 319.13 160.66 320.52 159.15 325.47 156.52 331.63 157.18 331.59 159.04 333.19 160.5 337 161.48 338.23 162.53 338.57 164.14 338.56 165.68 338.34 166.52 338.03 167.15 338.28 168.36 339.16 168.51 339.35 168.69 339.69 169.01 341.2 169.41 341.55 171.58 342.03 172.03 342.2 172.49 342.24 174.69 341.55 176.17 341.68 177.57 342.05 178.8 342.61 179.78 343.3 181.54 345.1 182.08 345.54 183.74 346.42 184.19 346.75 185.28 347.94 185.74 348.12 186.21 347.87 186.66 347.49 187.06 347.3 187.47 347.31 188.1 352.45 188.23 357.09 188.08 359.34 187.53 361.03 186.64 362.26 185.84 364.02 186.02 365.56 187.29 369.04 187.76 371.32 187.18 372.91 186.79 374.48 186.87 375.87 187.66 377.39 188.63 378.41 190.52 380.06 190.87 382.95 190.62 384.2 190.11 385.78 188.36 388.59 186.5 390.45 182.17 388.5 179.36 385.92 178.17 384.52 176.54 383.08 171.71 380.9 169.74 380.36 167.9 380.02 166.44 379.92 164.94 379.98 163.44 380.39 161.9 381.08 160.39 381.93 156.31 385.45 153.88 386.75 152.62 387.92 152.21 388.1 151.6 388.28 151.25 388.26 151.02 388.17 150.77 387.96 150.43 387.55 149.8 387.06 148.84 386.58 147.03 386.06 145.82 385.93 144.82 385.98 141.05 386.54 140.29 386.5 139.79 386.25 139.56 385.91 138.95 385.52 138.31 385.4 136.35 385.41 135.42 385.21 133.62 384.55 133.17 384.54 133.01 384.7 133.1 384.95 133.13 385.22 132.99 385.49 132.36 385.67 131.98 385.61 131.69 385.41 131.2 384.43 129.25 381.85 128.87 381.23 128.49 380.71 127.75 380.1 124.72 378.41 124.08 378.23 123.31 378.14 122.92 377.99 122.68 377.73 122.44 377.31 122.05 376.8 121.1 376.11 120.35 375.83 119.8 375.78 119.46 375.89 119.2 376.08 119 376.32 118.18 378.21 118.18 378.23 115.99 375.17 115.19 373.73 114.45 370.58 113.43 369.26 110.94 366.73 107.12 360.65 107.28 359.7 107.88 358.8 108.27 357.46 107.75 354.84 106.35 352.03 104.59 349.41 99.47 343.42 98.99 342.22 99.31 341.11 100.76 339.59 101.2 338.43 101.1 337.33 100.71 336.04 100.18 334.96 99.65 334.52 99.72 333.78 97.63 327.82 97.52 326.59 97.67 323.7 97.41 322.71 96.2 320.46 95.92 319.05 95.93 319.04 98.06 318.11 98.57 317.72 99.9 315.69 101.03 313.27 102.47 310.88 104.76 308.89 106.34 308.2 107.46 308.12 109.84 308.45 111.31 308.3 112.25 308.01 113.14 307.84 114.47 308.01 117.25 308.84 117.78 307.44 119.15 295.88 121.57 292.74 123.47 289.28 124.77 288.17 125.9 287.67 127.73 287.2 127.94 285.16 127.46 282.14 126.36 278.07 125.49 276.36 124.33 275.18 123.04 274.78 121.79 275.2 120.72 275.19 119.98 275.06 116.94 272.69 115.52 271.89 114.28 271.38 110.59 270.84 110.57 270.84 110.21 269.89 109.35 265.56 108.71 263.49 109.58 263.31 110.19 263.39 110.68 263.3 111.15 262.61 111.32 261.98 111.38 257.13 111.08 255.74 110.47 254.22 104.51 244.91 103.74 244.31 102.84 241.4 102.3 240.29 101.79 239.57 101.01 237.87 100.56 237.2 99.43 234.78 98.87 231.83 94.6 224.2 92.75 220.04 92.85 220.04 93.21 219.98 96.32 219.62 97.98 219.18 99.19 218.69 99.77 218.38 100.28 218.02 100.67 217.66 102.33 216.43 102.62 216.4 102.88 216.47 103.25 216.71 103.56 216.87 103.96 216.98 104.57 217.07 104.94 216.96 105.2 216.77 105.32 216.5 105.39 216.26 105.53 215.97 105.8 215.62 106.55 215.07 107.32 214.71 108.84 214.2 111.28 213.69 111.97 213.67 112.47 213.75 113.07 214.05 114.22 215.13 114.48 215.31 115.37 215.77 115.62 215.98 116.1 216.17 116.81 216.33 118.36 216.36 119.13 216.29 126.55 214.14 127.01 213.93 127.48 213.5 127.89 213.2 128.47 212.86 129.78 212.4 130.64 212.32 132.85 212.32 133.47 212.18 133.94 212.01 134.17 211.78 134.43 211.6 134.71 211.44 135.65 211.05 136.15 210.66 136.38 210.44 136.69 210.26 138.25 209.64 138.8 209.34 139.3 208.91 143.97 209.51 157.06 209.76 159.12 210.32 160.48 211.47 161.39 212.85 165.92 217.16 169.67 221.78 171.17 223.1 173.01 224.25 178.02 226.49 179.95 227.07 181.46 227.36 183.6 227.32 192.71 225.4 195.77 226.25 196.7 227.25 197.33 228.69 196.83 239.18 196.34 240.62 193.59 244.96 192.81 246.67 192.26 248.46 192.02 251.17 192.23 253.57 193.69 259.05 Z" id="AGO-1877" data-name="Bengo"/>
<path d="M 267.02 247.01 266.92 249.99 267.57 253.34 267.84 256.96 268.12 258.04 268.03 259.33 266.91 260.4 260.4 262.64 259.23 263.27 258.92 264.26 258.88 265.13 258.46 266.42 256.01 269.98 255.2 272.13 255.65 273.39 256.64 275.03 258 276.03 260.87 277.22 261.74 278.44 261.99 279.79 261.53 281.26 260.16 284.17 258.29 290.13 257.36 296.03 256.74 298.25 256.61 299.42 256.63 301.24 256.85 303.26 256.55 307.54 255.88 308.19 255.44 308.45 254.51 308.85 251.99 309.22 249.48 309.25 248.77 309.03 247.59 308.32 246.94 308.1 246.07 308.25 245.27 308.77 244.49 309.41 243.7 309.89 243.15 309.98 242.03 309.95 241.5 310.07 240.9 310.48 239.93 311.52 239.35 311.96 237.99 312.39 235.24 312.45 233.86 312.76 232.14 314.58 231.37 317.2 230.34 319.56 227.89 320.59 225.1 320.37 224.14 320.42 223.24 320.66 222.61 321.76 225.91 324.69 226.66 327.35 225.1 329.31 223.21 331.7 223.41 332.81 224.85 335.7 225.3 337.41 225.48 339.62 224.97 341.31 224.11 342.59 222.52 344.39 221.91 344.18 220.99 344.12 220.36 343.94 215.2 341.77 213.29 341.39 212.64 341.14 212.16 341.15 211.96 341.77 212.22 343.13 212 343.67 211.08 344.18 206.03 343.75 203.7 344.4 203.37 344.4 202.6 344.89 201.93 344.8 201.28 344.56 200.53 344.62 200.08 344.99 199.6 345.99 199.21 346.42 198.73 346.64 191.92 347.7 191.21 347.64 189.85 347.36 187.47 347.31 187.06 347.3 186.66 347.49 186.21 347.87 185.74 348.12 185.28 347.94 184.19 346.75 183.74 346.42 182.08 345.54 181.54 345.1 179.78 343.3 178.8 342.61 177.57 342.05 176.17 341.68 174.69 341.55 172.49 342.24 172.03 342.2 171.58 342.03 169.41 341.55 169.01 341.2 168.69 339.69 168.51 339.35 168.36 339.16 167.15 338.28 166.52 338.03 165.68 338.34 164.14 338.56 162.53 338.57 161.48 338.23 160.5 337 159.04 333.19 157.18 331.59 156.52 331.63 159.15 325.47 160.66 320.52 161.43 319.13 163.54 316.59 163.91 315.4 163.98 314.88 162.93 313.32 161.99 311.73 162.12 310.61 162.44 309.27 161.91 308.01 160.76 307.13 157.41 306.15 155.85 305.13 155.84 304 156.75 303.06 158.1 302.35 159.37 301.33 160.21 299.63 160.3 298.4 160.17 297.71 159.69 297.16 157.49 295.54 156.49 294.61 156.25 293.71 156.63 292.44 158.84 290.69 166.22 288.65 169.05 287.55 171.23 286.37 172.6 285.19 173.7 283.9 174.5 282.54 174.98 281.12 175.11 279.63 174.85 278.17 172.62 271.89 171.05 269.99 169.36 268.44 168.37 267.01 167.93 265.96 167.87 265.4 168.02 263.47 170.47 261.12 173.31 259.33 175.37 258.37 176.39 258.18 178.07 258.21 178.85 258.34 180.23 258.75 180.59 258.78 183.37 258.56 183.93 258.57 184.7 258.66 186.37 258.66 186.75 258.7 189.42 259.23 189.74 259.33 189.99 259.48 190.13 259.64 190.41 260.13 190.74 260.37 191.05 260.38 191.32 260.23 191.98 259.72 193.69 259.05 195.54 258.67 196.42 258.79 197.99 259.24 200.04 259.61 200.87 259.67 201.9 259.46 203.62 258.9 203.91 258.71 204.34 258.34 204.5 258.13 205.52 257.03 206.4 256.2 206.78 255.56 207.46 253.57 207.87 252.97 208.39 252.43 209.31 251.64 209.87 251.31 210.35 251.12 210.72 251.12 211.03 251.22 211.63 251.51 212.01 251.59 212.49 251.56 212.88 251.62 213.53 251.87 214.11 252.18 214.36 252.38 214.57 252.62 214.75 252.87 214.98 253.09 215.31 253.32 215.72 253.48 216.42 253.59 216.87 253.54 217.38 253.35 218.84 252.46 219.42 252.23 219.97 252.12 221.18 252.16 221.54 252.25 222.26 252.51 222.73 252.56 223 252.4 223.18 252.12 223.42 251.01 223.56 250.62 223.77 250.25 224.21 249.82 224.63 249.66 225.21 249.65 225.54 249.52 225.74 249.34 225.85 248.91 226.27 248.19 226.39 248.15 226.69 248.11 226.99 248.12 227.27 247.99 227.45 247.7 227.73 246.81 227.94 246.51 228.21 245.94 228.43 245.05 228.63 242.91 228.96 241.39 229.41 240.83 229.76 240.28 229.8 239.88 229.71 239.39 229.26 238.62 228.91 238.24 228.57 238.01 228.25 238.03 227.64 238.23 227.33 238.25 227.18 237.89 227.2 237.23 227.61 235.81 228.14 234.64 228.32 234.36 228.41 233.47 227.87 231.44 229.38 230.41 233.59 229.41 240.59 229.19 241.74 229.14 243.01 230.74 242.92 232.18 242.44 233.63 242.58 235.26 243.91 236.46 246.08 236.98 248.42 237.04 250.25 236.88 251.73 236.43 254.36 234.94 255.74 234.36 258.66 233.93 260.26 233.93 261.59 234.12 261.91 234.28 263.46 235.53 264.41 236.51 264.63 236.84 264.57 236.98 263.57 237.6 263.52 238.74 264.25 239.75 265.6 239.98 266.81 241.11 267.11 244.24 267.02 247.01 Z" id="AGO-1878" data-name="Cuanza Norte"/>
<path d="M 222.52 344.39 222.65 345.3 223.85 345.66 224.18 346.04 224.43 346.48 224.79 346.82 225.25 346.95 226.44 347.1 226.99 347.3 227.37 347.7 228.2 348.82 228.55 349.06 229.94 349.02 230.67 349.08 230.99 349.28 231.56 349.08 232.85 349.29 234.21 349.77 234.98 350.38 235.98 349.91 236.92 350 237.87 350.27 238.9 350.38 239.79 350.19 241.24 349.62 246.17 349.06 246.62 349.14 247.59 349.47 248.17 349.5 248.29 349.37 248.48 349.08 248.72 348.78 249.01 348.62 250.55 348.67 251.76 349.01 252.88 349.1 254.83 348.09 255.61 348.18 257.01 348.62 258.26 348.7 264.3 348.18 265.3 347.91 266.09 347.24 266.7 346.37 267.16 345.5 267.33 344.83 267.37 344.27 267.57 343.89 268.26 343.75 268.78 343.89 269.66 344.48 270.03 344.62 271.33 344.72 273.36 345.1 274.59 345.1 275.35 344.97 276.02 344.73 276.59 344.39 277.07 343.97 277.67 343.65 278.13 343.92 278.51 344.38 278.83 344.62 279.63 344.49 280.2 344.24 280.8 344.07 281.67 344.18 282.15 344.4 283.46 345.5 284.28 344.83 285.17 344.9 286.26 345.28 287.66 345.5 290.39 345.64 291.6 346.03 292.74 346.82 293.36 347.55 293.93 348.51 294.34 349.7 294.5 351.04 294.85 352.08 295.62 352.99 296.39 353.7 296.74 354.13 297.03 354.36 298.46 354.63 298.93 354.78 299.49 355.28 299.7 355.68 300.29 359.8 300.83 360.97 301.79 361.45 304.21 371.12 303.47 371.76 302.44 372.27 301.53 373.03 301.13 374.42 301.25 377.09 301.51 378.22 302.01 379.12 302.38 379.54 302.72 379.8 303.2 379.92 304.01 379.96 304.68 380.1 305.13 380.4 305.47 380.7 305.79 380.84 308.61 384.35 308.64 385.02 308.21 387.23 308.35 388.09 308.71 388.43 309.2 388.61 310.15 389.32 311.72 390.11 315.47 394.74 315.68 395.16 316.03 395.57 317.53 396.72 318.28 398.37 318.76 398.74 319.25 399.15 317.44 400.25 317.31 400.61 317.2 401.07 317.33 401.45 317.51 401.81 317.68 402.36 317.68 402.64 317.46 403.09 315.77 405.54 315.41 405.92 315.2 406.02 313.69 406.4 312.35 407.07 309.85 410.27 308.34 411.54 306.72 412.61 303.1 414.44 300.76 415.92 299.2 417.34 297.96 418.85 294.28 424.94 293.17 426.19 291.9 426.77 290.79 426.8 290.04 426.64 289.06 426.24 286.81 425.72 282.97 426.05 281.39 425.98 280.18 425.46 276.72 423.14 274.1 431.7 272.96 434.43 271.68 436.8 267.76 442.48 266.08 444.39 266.19 448.84 265.2 452.11 263.65 455.15 261.91 456.64 255.39 458.32 250.45 459.14 248.66 459.72 246.45 460.76 241.45 462.5 239.06 464.82 238.07 469.17 239.66 471.7 239.95 472.9 239.96 473.46 240.07 474.34 240.24 474.8 240.53 475.16 240.89 475.4 241.32 475.79 241.43 476.15 241.39 476.49 241.25 476.79 241.06 477.06 240.75 477.64 240.65 477.98 240.61 478.36 240.63 479.58 240.61 479.95 240.47 480.23 240.22 480.43 239.89 480.58 239.58 480.76 239.32 481.09 239.34 481.39 239.47 481.68 239.91 482.22 240.15 482.58 240.17 482.93 239.93 483.61 239.85 484.11 239.47 485.41 239.3 487.07 239.42 487.77 239.57 488.1 240.11 488.83 236.97 488.79 235.52 489.01 234.41 489.79 233.56 490.56 232.96 490.93 232.09 491.24 230.19 491.61 222.97 494.11 221.2 495.72 219.97 497.21 216.84 504.23 215.48 504 214.06 503.07 213.68 501.99 213.05 500.8 211.96 499.79 206.11 496.8 204.57 496.38 203.07 496.42 200.31 497.29 198.16 497.41 194.3 496.26 192.34 493.62 190.57 490.13 184.37 481.94 182.18 480.37 180.95 480.23 179.32 480.39 177.77 480.96 174.74 482.82 173.42 483.92 170.29 488.13 166.29 491.07 163.19 487.27 161.59 485.92 158.65 484.18 157.71 482.99 157.28 481.57 156.68 478.48 155.96 477.29 154.68 476.69 153.31 476.43 149.56 476.92 144.18 475.98 142.62 475.95 140.93 475.7 137.74 474.79 137.73 474.79 137.72 474.79 136.76 464.51 137.04 457.55 137.3 456.08 137.85 454.94 137.34 454.36 137.39 453.64 137.67 452.84 137.85 452.07 137.83 448.56 137.89 447.96 138.21 447.27 139.42 445.61 139.59 444.84 139.6 443.07 141.2 433.89 141.25 430.14 141.32 425.42 141 423.08 140.04 421.01 134.29 412.62 133.79 411.39 133.76 410.29 134.3 409.2 136.25 406.88 136.38 405.83 135.95 404.81 135.17 403.79 132.5 401.59 132.09 400.94 131.82 400.23 125.72 392.97 121.61 389.65 120.66 388.35 120.34 387.15 120.22 382.8 120 381.39 119.46 380.02 118.18 378.23 118.18 378.21 119 376.32 119.2 376.08 119.46 375.89 119.8 375.78 120.35 375.83 121.1 376.11 122.05 376.8 122.44 377.31 122.68 377.73 122.92 377.99 123.31 378.14 124.08 378.23 124.72 378.41 127.75 380.1 128.49 380.71 128.87 381.23 129.25 381.85 131.2 384.43 131.69 385.41 131.98 385.61 132.36 385.67 132.99 385.49 133.13 385.22 133.1 384.95 133.01 384.7 133.17 384.54 133.62 384.55 135.42 385.21 136.35 385.41 138.31 385.4 138.95 385.52 139.56 385.91 139.79 386.25 140.29 386.5 141.05 386.54 144.82 385.98 145.82 385.93 147.03 386.06 148.84 386.58 149.8 387.06 150.43 387.55 150.77 387.96 151.02 388.17 151.25 388.26 151.6 388.28 152.21 388.1 152.62 387.92 153.88 386.75 156.31 385.45 160.39 381.93 161.9 381.08 163.44 380.39 164.94 379.98 166.44 379.92 167.9 380.02 169.74 380.36 171.71 380.9 176.54 383.08 178.17 384.52 179.36 385.92 182.17 388.5 186.5 390.45 188.36 388.59 190.11 385.78 190.62 384.2 190.87 382.95 190.52 380.06 188.63 378.41 187.66 377.39 186.87 375.87 186.79 374.48 187.18 372.91 187.76 371.32 187.29 369.04 186.02 365.56 185.84 364.02 186.64 362.26 187.53 361.03 188.08 359.34 188.23 357.09 188.1 352.45 187.47 347.31 189.85 347.36 191.21 347.64 191.92 347.7 198.73 346.64 199.21 346.42 199.6 345.99 200.08 344.99 200.53 344.62 201.28 344.56 201.93 344.8 202.6 344.89 203.37 344.4 203.7 344.4 206.03 343.75 211.08 344.18 212 343.67 212.22 343.13 211.96 341.77 212.16 341.15 212.64 341.14 213.29 341.39 215.2 341.77 220.36 343.94 220.99 344.12 221.91 344.18 222.52 344.39 Z" id="AGO-1879" data-name="Cuanza Sul"/>
<path d="M 95.92 319.05 94.45 317.94 89.61 309.96 87.77 305.69 86.45 303.83 86.19 300.23 88.63 295.18 92.25 290.85 95.48 289.48 94.07 291.53 89.44 295.37 87.12 300.72 86.7 302.42 87.52 303.18 88.19 302.61 91.81 296.54 91.96 295.88 92.28 295.19 93.05 294.98 93.93 294.96 94.6 294.83 95.54 293.97 96.23 291.86 97.01 290.57 98.63 288.87 98.99 288.16 99.06 287.45 98.96 285.94 99.21 285.3 101.12 283.22 102.24 282.37 103.4 281.99 100.19 285.18 99.43 286.4 100.35 285.86 102.48 284.91 103.66 284.15 104.18 284.04 104.59 283.78 104.75 283.08 104.78 282.63 104.91 282.29 105.17 282.07 105.63 281.99 109.62 282.56 111.16 282.01 112.01 278.74 112.96 276.33 113.14 275.37 112.83 274.42 110.94 271.81 110.57 270.84 110.59 270.84 114.28 271.38 115.52 271.89 116.94 272.69 119.98 275.06 120.72 275.19 121.79 275.2 123.04 274.78 124.33 275.18 125.49 276.36 126.36 278.07 127.46 282.14 127.94 285.16 127.73 287.2 125.9 287.67 124.77 288.17 123.47 289.28 121.57 292.74 119.15 295.88 117.78 307.44 117.25 308.84 114.47 308.01 113.14 307.84 112.25 308.01 111.31 308.3 109.84 308.45 107.46 308.12 106.34 308.2 104.76 308.89 102.47 310.88 101.03 313.27 99.9 315.69 98.57 317.72 98.06 318.11 95.93 319.04 95.92 319.05 Z" id="AGO-1880" data-name="Luanda"/>
<path d="M 350.57 193.35 350.54 193.36 350.4 193.4 346.92 194.59 344.48 196.27 343.75 197.1 343.06 198.3 342.82 199.5 342.6 201.89 342.27 203.3 341.43 205.19 340.12 206.58 338.7 207.35 337.22 207.69 335.74 207.67 334.31 207.4 332.91 206.78 331.51 205.82 330.17 204.54 323.84 195.84 322.42 192.78 321.51 191.42 320.26 190.41 318.93 189.87 317.85 189.7 316.47 189.93 306.47 193.98 302.13 196.94 298.03 202.71 294 205.61 292.24 206.22 288.85 206.51 286.91 207.05 284.7 208.38 283.9 209.92 283.63 211.53 283.96 213.08 287.97 225.44 288.5 228.65 288.58 230.19 288.43 231.57 288.04 232.67 286.89 235.04 285.79 240.8 283.03 243.54 281.93 244.11 276.93 245.75 274.65 247.1 272.72 247.55 271.07 247.62 267.02 247.01 267.11 244.24 266.81 241.11 265.6 239.98 264.25 239.75 263.52 238.74 263.57 237.6 264.57 236.98 264.63 236.84 264.41 236.51 263.46 235.53 261.91 234.28 261.59 234.12 260.26 233.93 258.66 233.93 255.74 234.36 254.36 234.94 251.73 236.43 250.25 236.88 248.42 237.04 246.08 236.98 243.91 236.46 242.58 235.26 242.44 233.63 242.92 232.18 243.01 230.74 241.74 229.14 240.59 229.19 233.59 229.41 229.38 230.41 227.87 231.44 228.41 233.47 228.32 234.36 228.14 234.64 227.61 235.81 227.2 237.23 227.18 237.89 227.33 238.25 227.64 238.23 228.25 238.03 228.57 238.01 228.91 238.24 229.26 238.62 229.71 239.39 229.8 239.88 229.76 240.28 229.41 240.83 228.96 241.39 228.63 242.91 228.43 245.05 228.21 245.94 227.94 246.51 227.73 246.81 227.45 247.7 227.27 247.99 226.99 248.12 226.69 248.11 226.39 248.15 226.27 248.19 225.85 248.91 225.74 249.34 225.54 249.52 225.21 249.65 224.63 249.66 224.21 249.82 223.77 250.25 223.56 250.62 223.42 251.01 223.18 252.12 223 252.4 222.73 252.56 222.26 252.51 221.54 252.25 221.18 252.16 219.97 252.12 219.42 252.23 218.84 252.46 217.38 253.35 216.87 253.54 216.42 253.59 215.72 253.48 215.31 253.32 214.98 253.09 214.75 252.87 214.57 252.62 214.36 252.38 214.11 252.18 213.53 251.87 212.88 251.62 212.49 251.56 212.01 251.59 211.63 251.51 211.03 251.22 210.72 251.12 210.35 251.12 209.87 251.31 209.31 251.64 208.39 252.43 207.87 252.97 207.46 253.57 206.78 255.56 206.4 256.2 205.52 257.03 204.5 258.13 204.34 258.34 203.91 258.71 203.62 258.9 201.9 259.46 200.87 259.67 200.04 259.61 197.99 259.24 196.42 258.79 195.54 258.67 193.69 259.05 192.23 253.57 192.02 251.17 192.26 248.46 192.81 246.67 193.59 244.96 196.34 240.62 196.83 239.18 197.33 228.69 196.7 227.25 195.77 226.25 192.71 225.4 183.6 227.32 181.46 227.36 179.95 227.07 178.02 226.49 173.01 224.25 171.17 223.1 169.67 221.78 165.92 217.16 161.39 212.85 160.48 211.47 159.12 210.32 157.06 209.76 143.97 209.51 139.3 208.91 140.54 205.52 141.21 204.63 142.57 204.16 142.92 204.1 144.27 204.15 145.06 203.95 145.5 203.75 145.83 203.51 146.87 202.41 147.29 201.86 148.06 201.65 148.29 201.18 148.28 200.9 148.2 200.2 147.5 199.17 145.24 196.93 144.21 195.43 142.39 191.5 142.4 189.25 143 187.52 146.11 182.98 146.19 181.6 145.32 180.44 144.09 179.41 142.73 177.9 141.6 176.03 139.9 171.21 138.04 167.67 139.25 167.01 140.97 166.69 141.51 166.64 141.87 166.65 142.53 166.73 145.97 166.72 146.81 166.61 147.32 166.44 148.03 165.76 148.39 165.24 148.65 164.96 149.03 164.7 150.03 164.2 150.29 163.99 150.79 163.25 150.97 163.05 151.83 162.47 153.98 161.45 156.66 160.75 160.27 159.81 165.99 157.02 166.6 156.52 167.24 154.48 167.5 153.92 167.74 153.55 168.33 152.88 168.51 152.63 168.65 152.26 169.07 151.61 169.8 150.64 172.4 148.74 173.02 148.41 173.34 148.29 173.7 148.21 174.07 148.2 174.79 148.32 175.18 148.33 175.92 148.27 176.31 148.3 177.45 148.5 177.89 148.52 178.39 148.5 182.53 146.93 182.89 146.74 183.17 146.55 184.52 144.55 185.47 143.44 190.48 143.43 194.32 142.71 196.89 141.82 200.9 139.86 201.84 139.16 202.19 138.03 202.89 136.6 205.48 133.06 205.63 132.76 208.43 128.52 208.73 128.2 210.27 127.07 210.63 126.73 212.98 123.54 213.39 121.56 212.13 120.47 209.06 117.19 208.27 115.04 206.71 108.81 205.85 106.68 201.14 99.65 200 96.9 202.41 96.86 208.29 96.76 214.16 96.66 220.04 96.57 225.91 96.47 231.79 96.37 237.66 96.28 243.54 96.18 249.41 96.08 255.29 95.98 261.17 95.89 267.04 95.79 272.92 95.69 278.79 95.59 284.67 95.49 286.36 95.46 290.54 95.39 296.42 95.3 300.2 95.24 301.84 95.57 302.95 96.24 303.97 97.05 305.38 97.78 306.43 97.95 307.39 97.81 309.46 97.21 310.73 97.01 311.89 97.05 313.04 97.33 315.47 98.31 315.95 98.57 318.34 99.75 318.12 100.29 317.26 101.31 317.26 101.73 317.88 102.54 318.2 103.22 318.32 103.82 318.58 107.86 318.78 108.58 319.15 108.54 319.76 108.24 320.33 108.16 320.58 108.8 319.22 110.38 320.5 110.5 321.28 111.08 322.38 112.58 323.13 112.98 323.99 113.25 324.68 113.67 324.97 114.54 326.1 115.81 326.67 116.78 326.51 117.63 326.06 118.45 325.9 119.51 325.94 124.23 326.04 124.77 326.24 125.37 326.38 126 326.3 126.64 325.93 126.88 325.34 126.92 324.78 127.12 324.53 127.77 324.49 130.25 324.6 130.5 324.97 131.08 325.4 131.35 325.82 131.26 326.16 131.34 326.3 132.18 325.92 133.02 325.34 133.91 325.34 134.54 326.73 134.6 326.32 135.54 326.34 136.27 326.75 136.87 327.41 137.48 327.99 138.21 327.96 138.83 327.17 140.17 326.93 141.29 327.13 142.34 328.08 144.49 328.36 145.63 328.54 148.01 328.83 149.16 329.33 150.21 332.87 155.16 333.12 156.1 333.22 157.04 333.5 157.9 334.25 158.59 334.95 158.83 336.5 158.99 337.23 159.15 338.79 160.24 339.56 161.82 340.05 165.5 339.89 165.76 339.67 166.37 339.67 166.98 340.24 167.25 340.98 167.41 341.38 167.8 341.64 168.31 341.98 168.81 342.53 169.94 342.29 170.95 341.84 172.05 341.76 173.45 339.7 172.9 339.57 174.51 340.88 178.72 340.76 182.17 341.1 182.72 341.72 183.1 342.51 183.95 343.56 185.4 343.73 186.42 343.73 187.41 344.01 188.18 345.74 188.7 347.91 190.24 349.58 191.03 350.27 191.68 350.56 192.65 350.57 193.35 Z" id="AGO-1881" data-name="Uíge"/>
<path d="M 200 96.9 201.14 99.65 205.85 106.68 206.71 108.81 208.27 115.04 209.06 117.19 212.13 120.47 213.39 121.56 212.98 123.54 210.63 126.73 210.27 127.07 208.73 128.2 208.43 128.52 205.63 132.76 205.48 133.06 202.89 136.6 202.19 138.03 201.84 139.16 200.9 139.86 196.89 141.82 194.32 142.71 190.48 143.43 185.47 143.44 184.52 144.55 183.17 146.55 182.89 146.74 182.53 146.93 178.39 148.5 177.89 148.52 177.45 148.5 176.31 148.3 175.92 148.27 175.18 148.33 174.79 148.32 174.07 148.2 173.7 148.21 173.34 148.29 173.02 148.41 172.4 148.74 169.8 150.64 169.07 151.61 168.65 152.26 168.51 152.63 168.33 152.88 167.74 153.55 167.5 153.92 167.24 154.48 166.6 156.52 165.99 157.02 160.27 159.81 156.66 160.75 153.98 161.45 151.83 162.47 150.97 163.05 150.79 163.25 150.29 163.99 150.03 164.2 149.03 164.7 148.65 164.96 148.39 165.24 148.03 165.76 147.32 166.44 146.81 166.61 145.97 166.72 142.53 166.73 141.87 166.65 141.51 166.64 140.97 166.69 139.25 167.01 138.04 167.67 139.9 171.21 141.6 176.03 142.73 177.9 144.09 179.41 145.32 180.44 146.19 181.6 146.11 182.98 143 187.52 142.4 189.25 142.39 191.5 144.21 195.43 145.24 196.93 147.5 199.17 148.2 200.2 148.28 200.9 148.29 201.18 148.06 201.65 147.29 201.86 146.87 202.41 145.83 203.51 145.5 203.75 145.06 203.95 144.27 204.15 142.92 204.1 142.57 204.16 141.21 204.63 140.54 205.52 139.3 208.91 138.8 209.34 138.25 209.64 136.69 210.26 136.38 210.44 136.15 210.66 135.65 211.05 134.71 211.44 134.43 211.6 134.17 211.78 133.94 212.01 133.47 212.18 132.85 212.32 130.64 212.32 129.78 212.4 128.47 212.86 127.89 213.2 127.48 213.5 127.01 213.93 126.55 214.14 119.13 216.29 118.36 216.36 116.81 216.33 116.1 216.17 115.62 215.98 115.37 215.77 114.48 215.31 114.22 215.13 113.07 214.05 112.47 213.75 111.97 213.67 111.28 213.69 108.84 214.2 107.32 214.71 106.55 215.07 105.8 215.62 105.53 215.97 105.39 216.26 105.32 216.5 105.2 216.77 104.94 216.96 104.57 217.07 103.96 216.98 103.56 216.87 103.25 216.71 102.88 216.47 102.62 216.4 102.33 216.43 100.67 217.66 100.28 218.02 99.77 218.38 99.19 218.69 97.98 219.18 96.32 219.62 93.21 219.98 92.85 220.04 92.75 220.04 85.8 204.45 82.77 197.07 80.98 190.57 79.21 188.68 78.25 187.6 77.02 186.12 77.36 183.89 77.02 182.2 75.95 169.37 75.31 167.4 75.18 166.36 75.07 166.03 74.88 165.8 74.78 165.58 74.96 165.27 75.39 164.76 75.57 164.43 75.73 163.77 75.92 163.57 75.96 163.34 75.66 162.85 73.78 164.05 72.49 163.5 67.81 157.03 62.24 151.92 57.75 145.34 51.79 134.59 49.46 129.13 47.76 125.49 46.04 123.12 44.48 120.96 42.84 118.77 40.28 114.11 40 111.99 40.98 110.82 42.42 110.43 43.77 109.65 43.35 110.64 43.2 112.48 44.63 112.33 46.9 111.69 50.17 111.62 54.29 110.69 56.27 109.42 57.69 108.92 59.68 108.64 63.04 106.81 63.86 106.46 65.42 106.51 66.77 107 68.4 107.5 70.1 107.78 71.95 107.28 74.93 106.64 77.76 105.65 79.11 104.66 82.02 103.39 83.22 101.76 84.5 100.21 84.92 99.01 85.77 98.23 87.4 97.88 88.61 97.73 89.67 97.24 90.81 97.38 93.16 97.59 93.89 97.53 95 97.1 97.61 95.7 98.52 95.35 98.53 95.35 98.59 95.35 104.03 95.81 106.71 96.48 108.74 97.55 109.45 97.04 110.76 95.64 111.18 95.35 113.3 95.39 118.44 95.48 120.34 96.07 121.12 96.04 122.3 95.54 122.91 95.42 127.99 95.96 138.66 95.1 147.45 94.4 149.94 95.15 151.48 96.03 152.44 96.39 160.1 95.81 161.58 95.98 165.39 97.32 166.65 97.49 173.37 97.61 179.2 97.73 182.13 97.23 186.22 98.27 188.21 98.46 196.4 96.96 200 96.9 Z" id="AGO-1882" data-name="Zaire"/>
<path d="M 72.69 1.57 73.87 2.21 74.76 2.4 75.76 2.19 76.53 1.85 77.3 1.77 78.31 2.34 79.24 3.64 80.4 6.73 81.66 8.15 84.21 10.18 88.44 15.23 91.43 16.72 90.89 18.56 88.59 19.4 75.94 22.34 73.99 23.45 72.91 24.65 72.18 26 71.76 27.45 71.63 28.95 71.03 29.72 68.14 31.4 67.17 32.19 66.61 33.57 66.48 34.59 66.01 35.33 64.43 35.86 61.95 36.05 61.37 36.48 61.18 37.79 60.14 40.22 57.73 41.76 52.33 43.62 51.79 43.69 51.31 43.62 50.91 43.75 50.59 44.38 50.55 44.92 50.67 45.61 50.93 46.23 51.29 46.57 55.26 47.96 56.04 48.52 56.46 50.68 56.27 55.62 56.06 61.11 55.76 68.81 55.45 76.83 55.29 81.01 55.07 86.97 50.33 86.92 44.47 86.86 38.97 87.64 35.85 89.37 35.85 89.36 35.83 89.34 32.71 84.07 31.77 79.99 33.25 75.92 34.03 75.18 34.74 75.02 35.48 74.96 36.37 74.6 36.99 73.93 37.24 73.1 37.24 71.09 37.05 70.27 36.08 67.97 34.94 65.71 33.32 61.39 33.37 59.66 30.81 55.18 30.31 52.11 26.78 47.92 23.78 43.17 23.79 42.47 24.55 42.68 25.82 42.93 26.66 43.18 27.08 43.56 27.5 45.07 28.76 45.36 29.81 44.69 30.48 43.64 30.57 42.76 31.16 42.42 31.11 41.17 30.82 40.58 30.23 40.37 29.56 40.33 29.05 41.04 28.93 41.97 28.97 43.35 28.59 43.68 28.13 43.47 27.83 42.18 27.41 41.51 26.91 41.34 26.57 41.93 25.94 41.97 25.18 41.55 24.26 41.68 22.91 41.47 23.45 40.76 30.71 34.6 32.41 31.87 34.37 25.27 34.67 24.97 35.43 24.97 36.04 25.34 36.62 26.08 37.44 27.58 38.01 27.09 38.94 26.73 39.92 26.5 42.1 26.27 43.02 25.92 43.69 25.13 46.38 19.8 46.69 18.46 46.61 15.7 47.21 14.8 48.96 15.02 49.92 14.93 54.31 13.5 61.45 12.19 62.46 11.82 63.17 11.08 64.57 8.48 65.47 7.45 66.52 6.61 67.68 5.94 68.56 4.91 69.07 3.37 69.81 1.89 71.34 1 72.22 1.32 72.69 1.57 Z" id="AGO-1885" data-name="Cabinda"/>
<path d="M 457.77 424.08 471.35 432.63 474.39 434.92 477.43 438.07 478.85 439.26 480.4 439.89 483.87 440.62 486 441.35 487.3 442.54 488.18 443.99 488.25 445.49 486.87 448.64 486.42 450.26 485.76 451.82 485.27 454.36 485.2 455.94 483.75 456.2 482.74 457 481.85 457.87 479.46 460.95 478.79 462.35 478.38 463.83 477.92 467.03 477.19 469 475.99 470.31 474.76 470.95 472.7 471.16 471.63 471.4 470.89 472.09 470.8 473.33 471.1 474.7 470.52 476.46 469.33 477.37 467.67 478.38 466.84 479.55 465.3 482.6 463.88 484.53 463.24 486.24 463.27 487.94 464.44 490.46 464.66 491.1 464.61 491.85 464.2 493.39 463.34 494.82 460.7 497.85 460.2 498.23 458.48 499.2 456.36 501.28 455.37 502.49 455.16 503.27 455.18 503.98 455.55 504.71 455.82 505.58 455.43 506.79 454.42 507.86 450.99 509.76 448.83 511.56 447 512.8 443.53 514.25 442.05 515.25 436.52 520.59 435.5 522.92 435.69 524.67 435.27 525.81 434.44 527.23 433.37 528.69 429.29 533.08 428.55 534.75 428.41 536.08 427.92 537.98 426.81 539.26 420.53 544.34 418.99 545.17 418.6 546.5 418.87 547.89 419.99 551.13 419.68 553.05 417.45 555.95 416.38 557.76 415.38 558.77 413.68 559.82 412.46 560.93 412.44 562.13 411.29 565.04 411.61 566.5 413.09 570.21 413.6 572.99 413.24 574.67 412.08 575.74 409.23 576.91 408.36 577.37 407.14 578.22 406.06 579.35 405.26 580.75 405.49 582.25 406.03 583.79 406.32 585.36 405.38 588.04 405.13 589.15 405.38 590.16 405.64 592.22 404.91 594.68 403.84 597.04 401.77 598.8 396.33 600.05 395.61 601.33 395.63 602.7 396.11 604.29 396.23 610.18 396.09 610.81 395.78 611.4 394.41 613.24 393.89 613.8 393.43 614.16 393.09 614.27 392.63 614.55 392.08 614.99 391.13 615.96 390.15 616.67 389.41 616.91 389.1 617.05 388.8 617.22 385.98 619.16 385.56 619.34 385.28 619.44 384.92 619.47 383.35 619.28 382.96 619.31 382.61 619.36 380.01 620.44 379.71 620.51 379.33 620.54 377.73 620.32 377.29 620.3 376.73 620.38 376.1 620.58 375.1 621.06 374.59 621.38 374.23 621.69 372.29 624.6 370.22 626.92 369.79 627.28 367.13 629 366.81 629.31 366.67 629.59 366.55 629.9 366.43 630.67 366.59 633 366.55 633.57 366.5 633.9 366.29 634.58 366.01 635.2 364.1 637.81 364.02 638.09 364.02 638.28 364.08 638.55 364.18 638.8 364.72 639.68 363.63 639.82 362.49 639.66 360.91 639.19 359.2 638.39 355.37 635.76 353.2 634.88 349.79 632.84 346.99 630.41 346.34 629.02 345.57 625.95 345.03 624.5 343 621.31 342.03 620.21 341.26 619.65 339.82 619.17 338.34 619.1 336.5 619.74 335.92 620.14 334.74 620.73 333.34 621.25 331.87 621.06 330.62 620.52 328.46 619.1 327.12 618.55 325.39 618.31 323.3 618.82 321.17 619.72 318.29 620 312.33 619.75 311.66 619.86 310.37 620.42 310.58 609.86 310.46 609.55 310.28 608.86 310.22 608.48 310.25 608.01 310.35 607.49 310.65 606.76 311.21 605.73 311.34 605.33 311.47 604.69 311.51 603.57 311.94 601.81 312.16 601.22 312.38 600.16 312.49 599.81 313.26 598.31 313.37 597.96 314.17 590.78 314.16 590.1 313.48 584.59 313.17 583.18 313.18 581.87 313.75 578.31 314.57 572.93 314.5 569.42 314.18 567.56 314.29 566.82 314.52 566.23 314.56 565.82 314.49 565.24 313.26 559.49 312.75 551.2 312.61 549.37 312.66 548.1 312.3 546.24 312.15 543.11 312.41 539.84 312.4 539.58 312.25 539.36 309.42 538.37 306.36 536.86 304.92 535.83 303.62 534.51 302.59 532.45 300.32 529.69 299.57 528.29 299.39 526.61 299.7 525.6 300.76 524.63 302.81 523.36 303.27 522.93 303.77 522.14 304.16 520.8 304.47 519.02 304.51 517.18 304.31 515.38 303.34 513.35 302.67 511.41 301.82 510.21 301.6 509.52 301.6 508.8 301.77 508.1 301.9 507.78 302.07 507.46 302.47 507.04 303.11 506.49 304.89 505.31 306.07 504.67 309.8 501.68 310.75 500.7 312.53 497.86 312.73 496.37 313.29 494.52 314.12 493.37 316.08 490.44 316.98 489.32 317.15 489.01 317.4 487.22 317.31 486.43 316.94 485.05 316.61 484.49 316.11 483.93 315.06 482.97 314.52 482.33 311.21 479.63 310.82 479.12 310.76 478.75 310.74 477.94 310.43 476.08 310.15 475.45 309.99 475.17 309.34 474.64 306.02 472.34 305.24 471.57 304.84 471 304.58 470.5 304.01 469.92 302.59 468.82 301.47 467.43 300.58 466.57 300.3 466.18 300.12 465.85 299.63 462.74 299.63 462.23 299.59 461.84 299.47 461.29 299.18 460.65 298.69 458.96 298.02 458.57 296.78 458 293.54 457.75 291.16 456.98 283.43 455.52 279.81 456.79 278.83 457.33 276.11 457.65 273.74 457.99 271.72 457.8 268.84 457.23 263.65 455.15 265.2 452.11 266.19 448.84 266.08 444.39 267.76 442.48 271.68 436.8 272.96 434.43 274.1 431.7 276.72 423.14 280.18 425.46 281.39 425.98 282.97 426.05 286.81 425.72 289.06 426.24 290.04 426.64 290.79 426.8 291.9 426.77 293.17 426.19 294.28 424.94 297.96 418.85 299.2 417.34 300.76 415.92 303.1 414.44 306.72 412.61 308.34 411.54 309.85 410.27 312.35 407.07 313.69 406.4 315.2 406.02 315.41 405.92 315.77 405.54 317.46 403.09 317.68 402.64 317.68 402.36 317.51 401.81 317.33 401.45 317.2 401.07 317.31 400.61 317.44 400.25 319.25 399.15 320.26 399.67 320.99 400.26 319.85 401.07 319.39 401.52 319.2 402.02 319.37 402.95 319.87 403.32 320.49 403.48 320.99 403.78 322.14 405.82 322.71 406.46 323.41 406.73 325.16 406.74 325.91 406.9 326.63 407.52 328.47 410.41 329.25 411.12 330.5 411.69 331.95 411.83 333.35 411.25 334.45 411.45 337.07 410.47 338.44 411.03 339.48 411.52 346.28 413.45 347.3 414.06 348.53 415.01 350.23 415.83 350.99 415.16 351.58 414.38 352.77 414.81 353.94 414.26 354.62 414.77 355.37 417.01 356.18 416.8 357.11 417.13 358.06 417.61 358.93 417.89 362.37 417.41 362.92 417.67 363.62 418.85 367 420.85 368.2 421.88 368.54 422.93 368.46 425.18 368.64 426.28 369.31 427.3 370.98 428.91 371.66 431.05 373.17 433.17 373.52 434.45 373.41 436.69 373.02 437.56 372.2 438.23 371.72 437.75 370.09 438.86 369.51 440.05 369.93 441.09 371.32 441.75 372.38 441.79 373 441.69 373.43 441.94 373.91 443.07 373.77 444.31 373.79 445.18 374.15 445.89 375.02 447 377.43 450.94 377.69 452.06 377.49 452.44 377.44 452.91 377.47 453.86 377.29 454.25 376.87 454.58 375.95 455.14 375.72 455.66 375.84 457.22 375.71 458.05 376.48 457.61 377.5 457.25 378.3 457.39 378.39 458.45 377.96 458.87 376.28 459.51 375.71 459.82 375.04 461.27 375.27 462.8 377.01 466.56 377.18 467.3 377.17 468.05 377.03 469.09 376.71 470.21 376.5 470.62 376.77 470.82 381.12 472.85 382.12 473.33 383.93 472.91 385.07 472.61 386.15 472.2 389.17 469.74 390.7 468.72 396.84 462.37 398.03 460.76 398.58 458.78 398.46 454.26 397.64 449.91 399.55 451.6 400.45 452.12 400.87 452.54 401.04 452.81 401.17 453.12 401.63 454.46 402.14 455.26 402.41 455.83 402.49 456.09 402.51 456.23 402.24 458.48 402.27 458.83 402.31 459.04 402.56 459.6 402.74 459.86 402.96 460.08 403.22 460.27 403.51 460.42 403.86 460.52 404.21 460.56 405.09 460.58 405.38 460.63 405.95 460.64 406.42 460.55 407.92 460.12 408.77 460 409.01 460.06 409.17 460.14 409.39 460.27 409.63 460.45 409.86 460.66 410.04 460.93 410.17 461.19 410.26 461.45 410.46 461.85 410.79 462.16 410.97 462.3 411.23 462.42 411.72 462.39 412.37 462.2 413.5 461.66 414.17 461.48 414.69 461.45 415.27 461.64 415.48 461.68 417.02 461.83 418.06 462.14 418.5 462.17 419 462.14 419.68 461.97 420.28 461.88 425.12 460.6 426.76 460.51 430.02 461.23 433.18 461.43 434.78 461.37 436.22 460.93 437.48 460.14 441.82 455.76 443.12 454.87 446.5 453.15 453.28 450.66 456.54 450.01 458.05 449.99 460.88 450.35 461.98 449.98 462.55 448.96 462.35 447.64 462.28 446.31 462.03 445.32 461.58 444.42 461.08 443.88 460.53 443.45 459.97 443.07 458.6 441.56 458.59 440.38 459.17 439.12 459.53 437.35 459.12 435.67 457.3 432.43 456.85 430.68 457.04 428.88 457.85 425.85 457.77 424.08 Z" id="AGO-1886" data-name="Bié"/>
<path d="M 216.84 504.23 216.56 512.26 216.75 513.57 218.7 519.82 218.72 521.31 219.94 524.19 218.75 525.89 215.98 526.2 213.74 526.77 212.28 527.4 210.7 528.32 209.45 529.27 208.37 530.92 205.26 532.7 203.96 533.75 203.02 535.07 203.25 538.09 203.14 539.72 203.37 541.49 205.1 546.16 205.81 549.29 207.87 553.23 209.26 555.24 209.59 556.08 210.5 560.11 210.79 563.45 210.32 564.73 210.06 565.84 209.85 567.36 210.28 568.88 210.97 570.48 213.03 573.74 214.54 575.22 217.92 577.56 219.96 579.83 222.61 581.31 221.15 585.98 214.11 589.09 212.69 589.07 209.85 588.68 206.64 590.8 204.15 593.5 202.61 594.76 201.1 595.58 194.81 597.74 192.25 597.7 187.05 595.6 184.56 594.58 183.71 594.41 181.74 594.92 181.59 596.56 181.33 597.67 180.32 598.97 175.88 607.66 173.88 610.43 170.52 611.65 156.37 609.91 154.12 610.02 152.54 609.72 149.38 608.56 148.32 608.48 146.73 608.62 141.95 609.79 138.85 609.74 136.82 609.49 135.06 609.05 133.58 608.33 131.53 607.75 129.91 607.6 123.05 609.89 121.03 610.07 120.06 609.84 117.66 609.01 115.7 608.61 112.54 608.93 111.29 608.3 110.48 607.12 108.76 604.11 106.44 601.12 105.58 599.6 105.2 598.16 105.36 596.67 106.12 593.75 106.04 592.64 105.13 591.56 93.19 588.95 91.5 589.2 90.53 590.07 89.55 591.13 88.43 591.74 81.48 594.44 79.67 594.8 78.15 594.41 75.37 592.49 70.81 591.81 67.64 590.85 61.78 589.75 59.97 589.97 58.74 590.49 56.65 591.87 56.63 591.88 56.67 591.76 56.01 590.86 55.91 590.4 56.03 590.13 56.2 589.89 56.23 587.85 56.07 586.87 55.45 584.83 55.3 583.83 55.47 582.79 55.91 581.8 56.61 581.06 57.53 580.77 58.87 580.63 59.35 580.21 59.69 579.53 60.59 578.57 61.64 578.03 62.48 577.85 63.14 577.47 63.66 576.33 63.71 575.73 63.56 575.25 63.36 574.81 63.26 574.33 63.4 573.91 64 573.27 64.15 572.82 64.56 571.82 66.4 570.87 66.82 570.13 66.99 569.42 67.36 569.39 67.8 569.62 68.14 569.69 69.34 568.92 69.41 568.81 70.57 568.33 71.32 567.79 75.55 562.43 77.39 561.13 78.05 560.43 79.16 558.71 83.13 554.22 84.02 552.5 84.03 550.8 83.43 549.06 82.49 547.23 82.02 545.19 82.79 543.56 85.76 540.56 87.3 539.68 91.52 535.72 93.19 534.85 93.72 534.4 94.83 532.47 95.24 531.96 97.09 530.33 98.18 529.72 99.43 529.56 99.49 529.84 100.92 530.07 101.67 530.44 103.71 528.48 104.51 528.21 105.63 528.39 106.75 529.25 107.83 529.56 110.13 529.13 111.99 527.7 114.87 524.69 116.29 523.63 116.9 522.83 117.14 521.82 117.27 519.16 117.53 517.96 118.02 516.78 119.24 514.88 123.3 511.02 123.74 511.02 123.74 511.46 123.06 511.7 122.63 512.11 122.54 512.64 122.86 513.25 123.87 512.28 125.16 510.2 127.27 507.93 127.89 506.98 129.42 501.89 131.33 498.07 132.09 495.99 132.74 491.51 133.21 490.5 134.14 489.53 134.9 488.47 135.53 487.26 136.04 485.85 137.07 479.43 137.7 477.5 137.85 476.17 137.72 474.79 137.73 474.79 137.74 474.79 140.93 475.7 142.62 475.95 144.18 475.98 149.56 476.92 153.31 476.43 154.68 476.69 155.96 477.29 156.68 478.48 157.28 481.57 157.71 482.99 158.65 484.18 161.59 485.92 163.19 487.27 166.29 491.07 170.29 488.13 173.42 483.92 174.74 482.82 177.77 480.96 179.32 480.39 180.95 480.23 182.18 480.37 184.37 481.94 190.57 490.13 192.34 493.62 194.3 496.26 198.16 497.41 200.31 497.29 203.07 496.42 204.57 496.38 206.11 496.8 211.96 499.79 213.05 500.8 213.68 501.99 214.06 503.07 215.48 504 216.84 504.23 Z" id="AGO-1887" data-name="Benguela"/>
<path d="M 665.19 759.23 666.9 761.3 669.15 764.79 667.52 764.84 666.99 764.79 667.68 765.7 667.91 766.51 668.02 767.33 668.31 768.27 668.59 768.65 669.37 769.3 669.59 769.59 669.69 770.22 669.73 771.64 669.83 772.03 671.98 772.5 673.03 772.98 672.91 773.78 672.31 774.61 671.78 775.74 671.44 776.94 671.38 778.02 671.68 778.82 672.79 780.61 673.15 781.54 673.1 782.41 672.93 783.11 673.2 783.57 674.43 783.73 675.13 784.13 675.41 785.06 675.58 786.16 676 787.03 681.55 791.4 682.42 791.69 682.92 791.64 683.89 791.28 684.51 791.13 684.74 790.93 684.96 790.81 685.27 790.99 685.75 791.49 686.01 791.64 687.72 791.93 688.35 792.54 688.78 793.38 689.79 794.71 690.23 795.48 690.58 795.87 690.94 796.04 691.97 796.22 692.57 796.57 693.07 797.13 697.73 804.27 698.42 806.08 698.98 806.9 699.91 807.45 701.94 808.06 702.76 808.88 702.9 809.4 702.89 810.52 703.16 811.07 703.54 811.35 704.36 811.36 708.2 812.86 709.1 813.5 711.99 816.51 713.29 818.19 714.2 819.91 714.91 822.91 715.51 823.86 716.35 824.56 718.36 825.59 720.92 827.82 722.66 828.92 726.54 830.54 729.61 831.35 730.54 831.86 733.23 834.65 733.62 835.38 734.12 837.11 735.33 839.03 736.92 840.77 738.46 841.97 741.3 843.04 741.98 843.73 742.16 844.76 742.02 845.77 742.06 846.69 742.85 847.49 743.96 847.79 745.07 847.67 746.17 847.4 747.27 847.25 749.36 847.42 750.3 847.68 751.25 848.12 752.57 849.05 753.78 850.47 755.25 851.64 754.79 852.57 754.84 853.39 755.21 854.23 749.82 855.24 736.68 857.72 723.53 860.21 710.39 862.71 697.24 865.19 681.08 868.16 664.91 871.14 648.75 874.11 632.6 877.08 627.96 877.93 626.75 878.27 626.39 878.15 625.33 876.82 623.42 875.92 619.75 874.66 616.83 873.11 615.79 872.87 613.16 873.03 612.23 872.87 611.06 873.07 609.96 873.54 608.89 873.79 607.84 873.35 601.89 874.89 600.97 875.13 595.94 876.44 595.05 878.15 592.93 878.55 591.02 879.22 589.36 879.36 587.97 878.15 586.03 877.2 584.94 876.91 584.45 877.49 583.97 877.75 582.92 877.58 581.86 877.14 581.38 876.6 580.35 876.06 578.02 875.85 575.49 875.97 573.86 876.38 573.05 875.99 571.19 874.66 568.97 873.61 568.32 873.11 567.07 871.78 565.62 870.54 564.02 869.87 562.35 870.27 559.84 868.25 559.09 867.99 556.94 868.37 556.05 868.42 555.36 867.99 553.12 869.79 551.61 869.18 549.88 869.1 548.35 869.49 547.4 870.27 546.92 869.79 546.01 870.17 545.17 870.3 543.41 870.27 539.65 870.63 539.03 870.55 536.77 869.79 534.36 868.47 524.18 868.47 523.77 868.74 523.02 869.93 522.7 870.27 521.68 870.19 520.19 869.74 518.86 869.15 518.27 868.69 517.69 867.53 516.37 867.2 514.9 867.35 511.23 868.14 500.18 868.28 489.95 865.35 488.93 864.72 486.05 864.91 484.13 864.54 483.41 864.52 482.02 864.8 479.82 865.63 474.38 865.89 465.97 864.41 460.23 861.66 457.73 861.09 456.84 860.36 455.56 858.72 451.86 855 451.24 854.59 450.05 854.03 449.44 853.44 449.09 852.86 448.77 851.72 448.56 851.24 445.2 848.57 444.34 848.12 444.14 847.41 441.93 843.29 440.39 842.85 440.2 842.72 440.09 842.05 439.03 839.62 438.61 839.29 438.19 839.04 437.96 838.44 437.87 838.05 437.36 838.01 433.92 838.01 417.39 838 408.69 838 400.88 837.99 384.36 837.99 367.84 837.99 362.23 837.98 362.23 837.97 362.45 827.13 359.43 813.12 358.84 806.59 358.91 802.36 359.41 798.17 360.14 795.93 362.93 789.8 364.23 784.45 368.31 779.65 369.44 777.75 370.19 775.94 371.15 772.08 370.86 764.24 369.17 751.82 368.96 743.7 368.42 741.73 367.39 739.82 366.33 738.64 363.33 736.05 355.03 721.65 353.31 720.12 349.77 717.74 348.97 716.81 348.6 716.22 347.78 713.14 347.46 713.31 346.92 713.51 346.58 713.58 346.11 713.1 345.57 711.64 345.02 711.34 343.64 711.38 342.93 711.32 342.36 710.95 339.93 708.79 339.4 708.47 338.66 708.22 338.66 707.82 338.92 707.64 339.23 707.22 339.54 706.94 338.92 706.61 337.33 705.54 336.66 704.92 334.92 703.86 334.3 703.68 334.3 703.27 334.7 702.51 334.43 700.75 333.93 700.12 331.83 699.61 330.87 698.98 330.11 698.18 329.79 697.43 329.95 696.65 330.2 695.88 330.2 695.31 329.59 695.07 328.74 694.96 328.04 694.65 325.24 691.47 324.68 690.41 324.51 689.32 324.75 688.9 325.7 688.19 325.91 687.76 325.83 687.55 325.65 687.45 325.47 687.28 325.19 686.11 324.73 685.48 324.28 684.99 324.07 684.66 323.76 684.01 322.32 682.27 321.88 681.32 321.78 679.88 322.36 676.27 322.1 674.73 321.43 673.42 318.94 670.34 318.74 669.79 318.98 669.21 319.21 668.79 319.88 667.21 320.6 667.05 320.42 666.66 319.8 666.22 319.2 665.9 318.6 665.71 316.56 665.46 316.88 665.11 317.44 664.1 315.77 663.81 314.2 662.87 312.91 661.55 312.48 660.8 312.24 660.25 312.21 660.12 312.23 654.72 312.32 653.76 312.46 653.19 312.44 652.07 312.23 650.6 312.21 649.83 312.26 649.24 312.36 648.84 312.4 648.26 312.36 647.37 311.89 645.73 310.86 643.71 310.59 642.84 309.6 637.03 309.63 636.62 309.71 636.27 309.9 636.01 310.17 635.85 310.47 635.75 310.64 635.62 310.78 635.44 310.9 635.16 311.3 631.47 311.75 629.89 311.84 629.21 311.68 628.46 310.77 625.71 310.61 624.83 310.6 624.2 310.94 623.55 311.08 623.13 311.08 622.33 311 621.88 310.37 620.42 311.66 619.86 312.33 619.75 318.29 620 321.17 619.72 323.3 618.82 325.39 618.31 327.12 618.55 328.46 619.1 330.62 620.52 331.87 621.06 333.34 621.25 334.74 620.73 335.92 620.14 336.5 619.74 338.34 619.1 339.82 619.17 341.26 619.65 342.03 620.21 343 621.31 345.03 624.5 345.57 625.95 346.34 629.02 346.99 630.41 349.79 632.84 353.2 634.88 355.37 635.76 359.2 638.39 360.91 639.19 362.49 639.66 363.63 639.82 364.72 639.68 364.18 638.8 364.08 638.55 364.02 638.28 364.02 638.09 364.1 637.81 366.01 635.2 366.29 634.58 366.5 633.9 366.55 633.57 366.59 633 366.43 630.67 366.55 629.9 366.67 629.59 366.81 629.31 367.13 629 369.79 627.28 370.22 626.92 372.29 624.6 374.23 621.69 374.59 621.38 375.1 621.06 376.1 620.58 376.73 620.38 377.29 620.3 377.73 620.32 379.33 620.54 379.71 620.51 380.01 620.44 382.61 619.36 382.96 619.31 383.35 619.28 384.92 619.47 385.28 619.44 385.56 619.34 385.98 619.16 388.8 617.22 389.1 617.05 389.41 616.91 390.15 616.67 391.13 615.96 392.08 614.99 392.63 614.55 393.09 614.27 393.43 614.16 393.89 613.8 394.41 613.24 395.78 611.4 396.09 610.81 396.23 610.18 396.11 604.29 395.63 602.7 395.61 601.33 396.33 600.05 401.77 598.8 403.84 597.04 404.91 594.68 405.64 592.22 407.66 592.94 422.56 601 424.61 601.49 426.37 601.53 427.81 601.29 430.08 601.72 438.32 605.45 440.85 606.32 442.93 606.73 444.39 607.31 448.46 610.52 449.06 610.85 449.65 610.95 450.15 611.13 450.9 611.86 451.55 613.17 451.86 613.46 453.9 614.74 454.61 615.42 455.5 616.49 455.83 617.02 455.94 617.27 455.98 617.41 455.97 618.22 456.06 618.57 456.22 618.86 456.83 619.55 457 619.79 457.41 620.81 457.62 621.14 457.9 621.49 458.35 621.92 458.84 622.54 459.35 623.46 459.43 623.78 459.43 624.11 459.29 624.43 458.95 625.02 458.84 625.35 458.85 625.72 458.95 626.04 459.3 626.61 459.65 627.62 459.95 628.19 460.02 628.51 459.98 629.2 460.02 629.57 460.15 629.85 460.52 630.4 460.58 630.71 460.5 631.03 460.35 631.32 460.22 631.65 460.15 631.97 460.19 632.31 460.36 632.95 460.44 634.05 460.58 634.36 460.97 634.9 461.15 635.2 461.41 635.85 461.49 636.21 461.72 636.83 462.68 638.04 463.14 639.52 463.29 639.8 463.8 640.34 464.18 640.64 464.43 640.92 464.61 641.23 464.66 641.6 464.68 641.94 464.78 642.25 465.01 642.58 465.8 643.52 465.93 643.93 466.11 644.16 466.43 644.46 467.21 644.73 468.13 645.25 468.81 645.49 469.66 645.44 474.18 643.85 476.34 643.69 478.88 643.87 483.28 644.84 484.55 644.26 484.96 643.26 484.24 640.38 484.24 639.04 484.62 637.8 485.79 636.87 487.34 636.07 489.15 635.94 491.23 636.43 494.17 637.72 499.75 638.82 505.01 638.15 507.04 638.41 508.13 639.61 508.72 640.47 509.2 641.32 509.72 641.99 511.37 643.26 512.01 643.87 512.5 644.59 512.99 645.83 513.43 647.63 513.78 648.35 514.3 649.09 515.28 650.03 516.33 651.55 516.47 651.89 516.99 653.87 517.38 654.54 517.98 655.13 519.81 656.34 520.42 656.95 520.9 657.82 521.42 658.5 522.28 659.11 523.05 659.81 523.84 660.82 526.09 663.2 529.71 666.02 530.31 666.88 530.85 667.48 531.93 668.02 532.63 668.98 534.08 669.38 536.33 670.88 538.03 673.3 538.69 673.92 540.58 675.27 541.12 675.8 541.53 676.28 542.42 677.49 542.74 677.86 543.09 678.11 548.08 680.77 551.3 681.75 552.64 682.37 553.55 682.93 553.92 683.1 554.34 683.19 554.9 683.21 557.12 682.92 559.44 683 562.17 683.43 562.54 683.52 563.21 683.56 564.4 683.86 565.33 683.67 566.19 683.31 567.21 683.12 571.86 683.12 572.46 683.21 572.82 683.34 573.14 683.3 574.08 682.54 575.47 681.94 576.04 681.8 576.62 681.83 577.83 682.16 578.46 682.24 578.94 682.09 579.87 681.45 580.43 681.32 581.41 681.59 584.47 683.34 586.83 684.11 588.12 684.35 589.27 684.44 590.26 684.06 590.74 683.37 591.38 682.99 592.83 683.56 594.8 685.15 595.87 685.35 597.18 684.44 597.81 685.37 598.54 686.2 598.76 687.08 599.04 687.46 599.27 687.46 599.52 687.38 599.86 687.52 605.23 693.14 606.56 695.2 608.22 697.01 608.69 698.07 609.68 697.58 610.28 697.52 610.74 697.85 611.33 698.55 611.45 699.11 611.85 700.22 612.61 700.98 613.77 700.51 615.42 700.22 616.96 701.81 618.89 705.59 618.92 706.05 618.73 706.41 618.61 706.8 618.89 707.38 620.6 708.7 622.66 709.59 623.39 710.28 623.68 711.56 624.09 711.35 625.04 711.19 626.14 711.38 627.02 712.24 628.31 715.14 628.56 716.22 629 720.17 629.93 721.48 632.1 721.97 632.75 722.38 633.93 724.44 635.2 726.19 635.53 727.06 636.03 729.05 636.59 730.1 637.95 731.5 638.71 732.52 639.15 733.54 639.77 735.82 640.23 736.92 641.91 738.58 643.81 738.77 645.75 738.6 647.54 739.16 648.2 740.15 648.17 741 648.44 741.58 649.96 741.8 650.49 742.35 651.7 744.94 652.05 746.23 652.32 746.61 653.55 747.91 653.75 748.25 655.37 752.32 655.98 753.27 656.81 753.88 660.35 755.26 662.33 756.49 664.11 757.92 665.19 759.23 Z" id="AGO-1888" data-name="Cuando Cubango"/>
<path d="M 328.04 694.65 328.74 694.96 329.59 695.07 330.2 695.31 330.2 695.88 329.95 696.65 329.79 697.43 330.11 698.18 330.87 698.98 331.83 699.61 333.93 700.12 334.43 700.75 334.7 702.51 334.3 703.27 334.3 703.68 334.92 703.86 336.66 704.92 337.33 705.54 338.92 706.61 339.54 706.94 339.23 707.22 338.92 707.64 338.66 707.82 338.66 708.22 339.4 708.47 339.93 708.79 342.36 710.95 342.93 711.32 343.64 711.38 345.02 711.34 345.57 711.64 346.11 713.1 346.58 713.58 346.92 713.51 347.46 713.31 347.78 713.14 348.6 716.22 348.97 716.81 349.77 717.74 353.31 720.12 355.03 721.65 363.33 736.05 366.33 738.64 367.39 739.82 368.42 741.73 368.96 743.7 369.17 751.82 370.86 764.24 371.15 772.08 370.19 775.94 369.44 777.75 368.31 779.65 364.23 784.45 362.93 789.8 360.14 795.93 359.41 798.17 358.91 802.36 358.84 806.59 359.43 813.12 362.45 827.13 362.23 837.97 362.23 837.98 351.31 837.98 334.79 837.97 318.27 837.97 301.75 837.97 285.24 837.97 268.71 837.97 252.19 837.96 251.48 837.96 235.68 837.95 219.16 837.95 202.63 837.95 186.11 837.94 169.59 837.93 165.19 837.93 165.17 837.93 164.44 837.93 164.38 838.25 163.77 839.53 162.35 839.74 159.5 839.29 159.06 839.44 158.05 840.02 157.34 840.22 156.58 840.22 155.53 839.9 154.13 839.73 152.96 839.37 152.23 839.29 151.65 839.44 150.63 840.07 149.83 840.22 148.33 839.93 147.39 839.23 144.44 835.42 143.63 834.74 137.58 831.49 131.38 828.18 125.74 823.72 120.25 820.79 120.87 818.95 120.31 817.89 119.38 817.03 118.54 814.49 117.58 813.6 116.23 813.06 114.7 812.88 113.55 812.54 111.28 811.03 110.11 810.63 108.96 810.93 108.96 810.91 108.13 807.8 106.31 804.68 99.37 797.83 96.65 794.52 95.99 792.8 96.14 791.18 96.95 789.86 98.23 788.69 99.63 787.92 101.06 786.7 102.09 785.13 102.62 783.02 102.37 781.62 102.02 780.88 101.56 780.42 100.94 779.95 99.68 778.63 100.72 777.19 101.13 776.43 101.31 776.16 101.63 775.94 102.04 775.76 102.76 775.64 103.37 775.47 103.96 775.21 105.22 773.68 105.6 773.41 106.32 773.17 106.76 773.11 107.22 773.01 107.61 772.78 108.45 771.42 108.67 771.55 108.84 771.78 109.04 771.98 109.32 771.98 109.65 771.85 111.73 770.61 113.45 769.22 117.65 764.53 121.76 768.05 123.26 769.69 126.35 772.15 127.84 772.09 131.74 770.63 134.19 769.41 136.01 768.09 137.43 766.68 142.48 760.44 144.29 758.6 146.08 758.05 147.63 758.45 148.92 759.54 149.99 760.62 150.96 761.23 151.84 761.38 153.06 761 154.4 759.97 156.53 757.33 157.62 756.27 158.64 755.79 161.67 755.12 167.42 753.14 174.14 749.51 175.36 748.65 182.99 740.72 183.79 740.08 185.01 739.34 187.88 739.51 189.37 739.78 192.38 739.69 193.92 739.47 196.91 739.77 205.74 741.87 212.91 744.15 215.68 746.02 216.55 747.02 217.31 748.49 218.02 751.27 223.69 752.28 225 751.93 226.32 751.03 228.03 748.11 231.41 744.14 236.79 733.63 239.81 729.92 245.04 720.94 250.21 715.38 254.91 712.68 256.73 712.13 261.23 709.89 263.12 709.46 268.45 708.99 269.26 709.02 271.41 709.73 272.91 710.09 283.88 710.21 286.5 709.61 288.56 709.41 293.54 709.49 294.94 708.68 302.71 700.07 304.16 698.02 307.34 696.19 313.18 694.18 315.48 693.85 317.47 693.93 320.58 694.49 328.04 694.65 Z" id="AGO-1889" data-name="Cunene"/>
<path d="M 313.75 578.31 309.5 578.96 307.58 578.58 305.09 578.02 299.49 577.82 297.47 577.23 295.52 577.32 293.79 578.02 292.44 579.03 289.55 582.79 288.63 583.55 286.12 584 284.63 583.97 283.11 583.38 280.56 581.34 279.67 580.87 278.4 580.88 277.32 581.13 274.43 583.47 263.51 595.01 258.2 597.9 256.07 600.56 254.95 601.72 249.87 604.56 248.94 604.44 248.27 603.92 248.01 602.67 248.02 599.52 247.87 598.13 247.34 596.87 246.2 596.41 244.83 596.23 241.88 596.16 240.6 595.42 239.8 594.01 238.84 586.26 238.32 584.7 237.5 582.86 235.61 580.47 233.84 580.35 225.53 582 222.61 581.31 219.96 579.83 217.92 577.56 214.54 575.22 213.03 573.74 210.97 570.48 210.28 568.88 209.85 567.36 210.06 565.84 210.32 564.73 210.79 563.45 210.5 560.11 209.59 556.08 209.26 555.24 207.87 553.23 205.81 549.29 205.1 546.16 203.37 541.49 203.14 539.72 203.25 538.09 203.02 535.07 203.96 533.75 205.26 532.7 208.37 530.92 209.45 529.27 210.7 528.32 212.28 527.4 213.74 526.77 215.98 526.2 218.75 525.89 219.94 524.19 218.72 521.31 218.7 519.82 216.75 513.57 216.56 512.26 216.84 504.23 219.97 497.21 221.2 495.72 222.97 494.11 230.19 491.61 232.09 491.24 232.96 490.93 233.56 490.56 234.41 489.79 235.52 489.01 236.97 488.79 240.11 488.83 239.57 488.1 239.42 487.77 239.3 487.07 239.47 485.41 239.85 484.11 239.93 483.61 240.17 482.93 240.15 482.58 239.91 482.22 239.47 481.68 239.34 481.39 239.32 481.09 239.58 480.76 239.89 480.58 240.22 480.43 240.47 480.23 240.61 479.95 240.63 479.58 240.61 478.36 240.65 477.98 240.75 477.64 241.06 477.06 241.25 476.79 241.39 476.49 241.43 476.15 241.32 475.79 240.89 475.4 240.53 475.16 240.24 474.8 240.07 474.34 239.96 473.46 239.95 472.9 239.66 471.7 238.07 469.17 239.06 464.82 241.45 462.5 246.45 460.76 248.66 459.72 250.45 459.14 255.39 458.32 261.91 456.64 263.65 455.15 268.84 457.23 271.72 457.8 273.74 457.99 276.11 457.65 278.83 457.33 279.81 456.79 283.43 455.52 291.16 456.98 293.54 457.75 296.78 458 298.02 458.57 298.69 458.96 299.18 460.65 299.47 461.29 299.59 461.84 299.63 462.23 299.63 462.74 300.12 465.85 300.3 466.18 300.58 466.57 301.47 467.43 302.59 468.82 304.01 469.92 304.58 470.5 304.84 471 305.24 471.57 306.02 472.34 309.34 474.64 309.99 475.17 310.15 475.45 310.43 476.08 310.74 477.94 310.76 478.75 310.82 479.12 311.21 479.63 314.52 482.33 315.06 482.97 316.11 483.93 316.61 484.49 316.94 485.05 317.31 486.43 317.4 487.22 317.15 489.01 316.98 489.32 316.08 490.44 314.12 493.37 313.29 494.52 312.73 496.37 312.53 497.86 310.75 500.7 309.8 501.68 306.07 504.67 304.89 505.31 303.11 506.49 302.47 507.04 302.07 507.46 301.9 507.78 301.77 508.1 301.6 508.8 301.6 509.52 301.82 510.21 302.67 511.41 303.34 513.35 304.31 515.38 304.51 517.18 304.47 519.02 304.16 520.8 303.77 522.14 303.27 522.93 302.81 523.36 300.76 524.63 299.7 525.6 299.39 526.61 299.57 528.29 300.32 529.69 302.59 532.45 303.62 534.51 304.92 535.83 306.36 536.86 309.42 538.37 312.25 539.36 312.4 539.58 312.41 539.84 312.15 543.11 312.3 546.24 312.66 548.1 312.61 549.37 312.75 551.2 313.26 559.49 314.49 565.24 314.56 565.82 314.52 566.23 314.29 566.82 314.18 567.56 314.5 569.42 314.57 572.93 313.75 578.31 Z" id="AGO-1890" data-name="Huambo"/>
<path d="M 313.75 578.31 313.18 581.87 313.17 583.18 313.48 584.59 314.16 590.1 314.17 590.78 313.37 597.96 313.26 598.31 312.49 599.81 312.38 600.16 312.16 601.22 311.94 601.81 311.51 603.57 311.47 604.69 311.34 605.33 311.21 605.73 310.65 606.76 310.35 607.49 310.25 608.01 310.22 608.48 310.28 608.86 310.46 609.55 310.58 609.86 310.37 620.42 311 621.88 311.08 622.33 311.08 623.13 310.94 623.55 310.6 624.2 310.61 624.83 310.77 625.71 311.68 628.46 311.84 629.21 311.75 629.89 311.3 631.47 310.9 635.16 310.78 635.44 310.64 635.62 310.47 635.75 310.17 635.85 309.9 636.01 309.71 636.27 309.63 636.62 309.6 637.03 310.59 642.84 310.86 643.71 311.89 645.73 312.36 647.37 312.4 648.26 312.36 648.84 312.26 649.24 312.21 649.83 312.23 650.6 312.44 652.07 312.46 653.19 312.32 653.76 312.23 654.72 312.21 660.12 312.24 660.25 312.48 660.8 312.91 661.55 314.2 662.87 315.77 663.81 317.44 664.1 316.88 665.11 316.56 665.46 318.6 665.71 319.2 665.9 319.8 666.22 320.42 666.66 320.6 667.05 319.88 667.21 319.21 668.79 318.98 669.21 318.74 669.79 318.94 670.34 321.43 673.42 322.1 674.73 322.36 676.27 321.78 679.88 321.88 681.32 322.32 682.27 323.76 684.01 324.07 684.66 324.28 684.99 324.73 685.48 325.19 686.11 325.47 687.28 325.65 687.45 325.83 687.55 325.91 687.76 325.7 688.19 324.75 688.9 324.51 689.32 324.68 690.41 325.24 691.47 328.04 694.65 320.58 694.49 317.47 693.93 315.48 693.85 313.18 694.18 307.34 696.19 304.16 698.02 302.71 700.07 294.94 708.68 293.54 709.49 288.56 709.41 286.5 709.61 283.88 710.21 272.91 710.09 271.41 709.73 269.26 709.02 268.45 708.99 263.12 709.46 261.23 709.89 256.73 712.13 254.91 712.68 250.21 715.38 245.04 720.94 239.81 729.92 236.79 733.63 231.41 744.14 228.03 748.11 226.32 751.03 225 751.93 223.69 752.28 218.02 751.27 217.31 748.49 216.55 747.02 215.68 746.02 212.91 744.15 205.74 741.87 196.91 739.77 193.92 739.47 192.38 739.69 189.37 739.78 187.88 739.51 185.01 739.34 183.79 740.08 182.99 740.72 175.36 748.65 174.14 749.51 167.42 753.14 161.67 755.12 158.64 755.79 157.62 756.27 156.53 757.33 154.4 759.97 153.06 761 151.84 761.38 150.96 761.23 149.99 760.62 148.92 759.54 147.63 758.45 146.08 758.05 144.29 758.6 142.48 760.44 137.43 766.68 136.01 768.09 134.19 769.41 131.74 770.63 127.84 772.09 126.35 772.15 123.26 769.69 121.76 768.05 117.65 764.53 118.89 763.78 119.13 763.58 119.53 763.15 120.61 760.49 120.31 758.43 118.73 754.56 118.48 753.16 118.55 751.67 119.04 749.77 119.62 748.17 124.07 740.3 124.59 738.67 124.67 736.97 122.16 731.38 121.83 718.34 119.62 714.93 117.43 713.92 116.09 712.92 114.9 711.74 114.13 710.19 113.8 706.32 113.45 705.03 112.38 704.08 110.96 704.64 109.51 705.6 108.15 705.62 107.09 704.63 106.72 703.19 106.08 701.76 104.8 701.19 101.89 700.94 100.93 700.06 100.9 698.91 101.87 697.83 104.29 696.47 104.85 695.56 104.83 694.48 102.26 690.28 102.28 688.98 102.66 688.07 104.21 685.7 104.31 684.64 103.85 679.98 104.55 678.21 105.78 676.84 107.23 676.17 108.39 675.87 109.74 674.82 121.64 666.77 123.47 664.96 124.7 663.3 126 660.3 126.42 658.8 126.56 657.3 127.3 653.76 130.54 647.96 129.56 637.62 128.41 636.39 127.2 635.72 125.92 634.12 125.64 632.88 126.06 630.66 124.35 625.05 125.19 621.45 126.24 619.57 126.54 618.72 126.91 617.01 126.53 615.54 125.62 614.22 124.54 613.1 123.93 612.04 123.05 609.89 129.91 607.6 131.53 607.75 133.58 608.33 135.06 609.05 136.82 609.49 138.85 609.74 141.95 609.79 146.73 608.62 148.32 608.48 149.38 608.56 152.54 609.72 154.12 610.02 156.37 609.91 170.52 611.65 173.88 610.43 175.88 607.66 180.32 598.97 181.33 597.67 181.59 596.56 181.74 594.92 183.71 594.41 184.56 594.58 187.05 595.6 192.25 597.7 194.81 597.74 201.1 595.58 202.61 594.76 204.15 593.5 206.64 590.8 209.85 588.68 212.69 589.07 214.11 589.09 221.15 585.98 222.61 581.31 225.53 582 233.84 580.35 235.61 580.47 237.5 582.86 238.32 584.7 238.84 586.26 239.8 594.01 240.6 595.42 241.88 596.16 244.83 596.23 246.2 596.41 247.34 596.87 247.87 598.13 248.02 599.52 248.01 602.67 248.27 603.92 248.94 604.44 249.87 604.56 254.95 601.72 256.07 600.56 258.2 597.9 263.51 595.01 274.43 583.47 277.32 581.13 278.4 580.88 279.67 580.87 280.56 581.34 283.11 583.38 284.63 583.97 286.12 584 288.63 583.55 289.55 582.79 292.44 579.03 293.79 578.02 295.52 577.32 297.47 577.23 299.49 577.82 305.09 578.02 307.58 578.58 309.5 578.96 313.75 578.31 Z" id="AGO-1891" data-name="Huíla"/>
<path d="M 686.11 401.62 686.04 402.97 686.2 405.24 687.26 406.91 686.91 407.3 686.81 407.5 687 409.97 686.81 411.2 686.18 411.75 684.95 411.93 683.36 412.4 680.66 413.5 679.5 414.33 678.01 415.65 676.89 417.06 676.91 418.12 677.49 419.12 678.86 423.62 678.86 426.08 679.07 426.4 680.02 427.08 680.22 427.39 680.44 428.5 681.52 430.4 681.94 431.61 682.69 437.3 682.46 440.01 681.54 442.64 683.18 442.55 684.38 441.82 687.21 438.83 688.15 438.18 694.59 436.03 696.46 434.45 698.5 429.3 700.85 428.96 705.75 430.92 708.15 431.87 710.6 432.56 713.1 432.8 715.45 432.4 716.81 431.63 718.2 430.63 719.63 429.93 721.17 429.99 722.49 430.67 724.91 432.26 726.2 432.8 728.67 433.17 731.55 433.17 738.02 432.08 743.3 431.2 750.37 427.33 754.67 424.97 757.38 424.21 759.99 424.06 762.5 424.27 766.5 425.37 771.95 426.86 774.09 427.02 776.62 426.82 779.07 427.1 781.74 427.93 784.32 428.41 786.49 427.63 786.92 427.01 787.41 425.58 787.8 424.92 788.41 424.41 789.78 423.61 790.39 423.05 790.91 421.76 791.2 420.23 791.72 418.94 792.93 418.35 793.37 421.51 793.78 422.6 795.03 424.5 795.27 425.44 794.85 426.68 794.62 427.83 794.67 431.4 794.39 433.88 794.75 434.77 796.01 434.97 795.75 444.15 796.12 445.79 798.96 452.01 799 452.78 798.38 453.65 796.36 455.2 795.67 456.16 795.51 456.87 795.49 457.68 795.66 459.23 795.65 460.28 795.37 461.04 793.59 463.75 792.44 466.31 792.11 467.59 792.11 469.22 792.6 470.46 793.27 471.69 793.82 473.24 794.1 478.05 794.39 479.64 794.29 480.29 792.9 483.43 792.52 491.72 792.09 500.75 792.42 503.63 793.82 505.63 795.45 507.3 796.11 508.93 796.38 512.86 797.01 515.76 796.83 516.86 796.3 517.96 794.13 521.08 791.21 525.27 790.43 527.13 789.28 531.62 788.05 536.37 786.8 539.27 786.37 541.82 786.96 543.88 788.27 545.69 791.78 549.22 793.21 551.07 794.31 553.11 795.07 555.46 792.98 555.46 784.99 555.46 776.98 555.46 768.98 555.46 760.98 555.46 752.97 555.46 744.97 555.46 736.97 555.46 728.96 555.46 720.96 555.46 712.95 555.46 704.95 555.46 696.95 555.46 688.95 555.46 680.95 555.46 672.95 555.46 664.94 555.46 664.95 565.16 664.95 574.85 664.96 584.56 664.97 594.27 664.97 600.1 664.97 603.98 664.98 613.67 664.99 623.38 664.99 633.08 665 642.78 665.01 652.5 665.01 662.2 665.02 671.9 665.03 681.61 665.03 691.31 665.04 701.01 665.05 710.72 665.05 713.28 665.05 714.64 665.05 716.59 665.05 719.43 665.04 726 665.03 732.57 665.01 739.14 665 745.72 664.99 748.63 665.05 748.81 665.05 752.89 665.05 756.8 665.05 757.84 665.19 759.23 664.11 757.92 662.33 756.49 660.35 755.26 656.81 753.88 655.98 753.27 655.37 752.32 653.75 748.25 653.55 747.91 652.32 746.61 652.05 746.23 651.7 744.94 650.49 742.35 649.96 741.8 648.44 741.58 648.17 741 648.2 740.15 647.54 739.16 645.75 738.6 643.81 738.77 641.91 738.58 640.23 736.92 639.77 735.82 639.15 733.54 638.71 732.52 637.95 731.5 636.59 730.1 636.03 729.05 635.53 727.06 635.2 726.19 633.93 724.44 632.75 722.38 632.1 721.97 629.93 721.48 629 720.17 628.56 716.22 628.31 715.14 627.02 712.24 626.14 711.38 625.04 711.19 624.09 711.35 623.68 711.56 623.39 710.28 622.66 709.59 620.6 708.7 618.89 707.38 618.61 706.8 618.73 706.41 618.92 706.05 618.89 705.59 616.96 701.81 615.42 700.22 613.77 700.51 612.61 700.98 611.85 700.22 611.45 699.11 611.33 698.55 610.74 697.85 610.28 697.52 609.68 697.58 608.69 698.07 608.22 697.01 606.56 695.2 605.23 693.14 599.86 687.52 599.52 687.38 599.27 687.46 599.04 687.46 598.76 687.08 598.54 686.2 597.81 685.37 597.18 684.44 595.87 685.35 594.8 685.15 592.83 683.56 591.38 682.99 590.74 683.37 590.26 684.06 589.27 684.44 588.12 684.35 586.83 684.11 584.47 683.34 581.41 681.59 580.43 681.32 579.87 681.45 578.94 682.09 578.46 682.24 577.83 682.16 576.62 681.83 576.04 681.8 575.47 681.94 574.08 682.54 573.14 683.3 572.82 683.34 572.46 683.21 571.86 683.12 567.21 683.12 566.19 683.31 565.33 683.67 564.4 683.86 563.21 683.56 562.54 683.52 562.17 683.43 559.44 683 557.12 682.92 554.9 683.21 554.34 683.19 553.92 683.1 553.55 682.93 552.64 682.37 551.3 681.75 548.08 680.77 543.09 678.11 542.74 677.86 542.42 677.49 541.53 676.28 541.12 675.8 540.58 675.27 538.69 673.92 538.03 673.3 536.33 670.88 534.08 669.38 532.63 668.98 531.93 668.02 530.85 667.48 530.31 666.88 529.71 666.02 526.09 663.2 523.84 660.82 523.05 659.81 522.28 659.11 521.42 658.5 520.9 657.82 520.42 656.95 519.81 656.34 517.98 655.13 517.38 654.54 516.99 653.87 516.47 651.89 516.33 651.55 515.28 650.03 514.3 649.09 513.78 648.35 513.43 647.63 512.99 645.83 512.5 644.59 512.01 643.87 511.37 643.26 509.72 641.99 509.2 641.32 508.72 640.47 508.13 639.61 507.04 638.41 505.01 638.15 499.75 638.82 494.17 637.72 491.23 636.43 489.15 635.94 487.34 636.07 485.79 636.87 484.62 637.8 484.24 639.04 484.24 640.38 484.96 643.26 484.55 644.26 483.28 644.84 478.88 643.87 476.34 643.69 474.18 643.85 469.66 645.44 468.81 645.49 468.13 645.25 467.21 644.73 466.43 644.46 466.11 644.16 465.93 643.93 465.8 643.52 465.01 642.58 464.78 642.25 464.68 641.94 464.66 641.6 464.61 641.23 464.43 640.92 464.18 640.64 463.8 640.34 463.29 639.8 463.14 639.52 462.68 638.04 461.72 636.83 461.49 636.21 461.41 635.85 461.15 635.2 460.97 634.9 460.58 634.36 460.44 634.05 460.36 632.95 460.19 632.31 460.15 631.97 460.22 631.65 460.35 631.32 460.5 631.03 460.58 630.71 460.52 630.4 460.15 629.85 460.02 629.57 459.98 629.2 460.02 628.51 459.95 628.19 459.65 627.62 459.3 626.61 458.95 626.04 458.85 625.72 458.84 625.35 458.95 625.02 459.29 624.43 459.43 624.11 459.43 623.78 459.35 623.46 458.84 622.54 458.35 621.92 457.9 621.49 457.62 621.14 457.41 620.81 457 619.79 456.83 619.55 456.22 618.86 456.06 618.57 455.97 618.22 455.98 617.41 455.94 617.27 455.83 617.02 455.5 616.49 454.61 615.42 453.9 614.74 451.86 613.46 451.55 613.17 450.9 611.86 450.15 611.13 449.65 610.95 449.06 610.85 448.46 610.52 444.39 607.31 442.93 606.73 440.85 606.32 438.32 605.45 430.08 601.72 427.81 601.29 426.37 601.53 424.61 601.49 422.56 601 407.66 592.94 405.64 592.22 405.38 590.16 405.13 589.15 405.38 588.04 406.32 585.36 406.03 583.79 405.49 582.25 405.26 580.75 406.06 579.35 407.14 578.22 408.36 577.37 409.23 576.91 412.08 575.74 413.24 574.67 413.6 572.99 413.09 570.21 411.61 566.5 411.29 565.04 412.44 562.13 412.46 560.93 413.68 559.82 415.38 558.77 416.38 557.76 417.45 555.95 419.68 553.05 419.99 551.13 418.87 547.89 418.6 546.5 418.99 545.17 420.53 544.34 426.81 539.26 427.92 537.98 428.41 536.08 428.55 534.75 429.29 533.08 433.37 528.69 434.44 527.23 435.27 525.81 435.69 524.67 435.5 522.92 436.52 520.59 442.05 515.25 443.53 514.25 447 512.8 448.83 511.56 450.99 509.76 454.42 507.86 455.43 506.79 455.82 505.58 455.55 504.71 455.18 503.98 455.16 503.27 455.37 502.49 456.36 501.28 458.48 499.2 460.2 498.23 460.7 497.85 463.34 494.82 464.2 493.39 464.61 491.85 464.66 491.1 464.44 490.46 463.27 487.94 463.24 486.24 463.88 484.53 465.3 482.6 466.84 479.55 467.67 478.38 469.33 477.37 470.52 476.46 471.1 474.7 470.8 473.33 470.89 472.09 471.63 471.4 472.7 471.16 474.76 470.95 475.99 470.31 477.19 469 477.92 467.03 478.38 463.83 478.79 462.35 479.46 460.95 481.85 457.87 482.74 457 483.75 456.2 485.2 455.94 488.3 454.91 489.24 454.32 489.6 453.79 490.47 452.93 490.83 452.7 491.16 452.56 491.89 452.5 492.76 452.5 493.15 452.56 493.5 452.66 494.06 452.99 494.36 453.14 494.73 453.2 497.67 453.25 498.32 453.16 498.81 453.03 502.41 451.21 502.89 450.89 503.58 450.22 505.1 449.13 505.41 448.84 505.74 448.46 507.78 446.77 507.93 446.52 508.23 445.88 508.39 445.69 508.46 445.51 508.53 445.11 508.79 444.48 509.62 443.54 512.22 442.97 513.25 443.06 515.86 444.9 519.06 446.28 519.64 446.4 520.08 446.44 521.17 446.25 523.6 445.52 523.96 445.33 524.36 445.05 526.36 443.24 526.85 442.92 527.29 442.84 527.5 443.03 528.23 443.43 528.98 443.54 529.4 443.7 529.7 443.86 529.83 444.02 529.95 444.23 530.31 445.13 530.61 445.45 531.05 445.72 532 445.97 532.54 446 532.92 445.95 533.36 445.75 533.58 445.6 533.78 445.44 533.88 445.3 534.02 445.06 534.24 444.42 534.4 444.1 534.64 443.82 535 443.54 535.37 443.45 537.33 443.57 538.51 443.33 539.16 443.35 539.56 443.48 539.82 443.71 540.1 443.93 540.86 444.22 541.11 444.38 541.43 444.54 541.87 444.71 543.27 444.96 543.56 444.93 544.22 444.47 544.46 444.27 544.67 444.04 544.85 443.76 545.25 443.28 545.93 442.62 546.48 441.83 546.93 441.38 547.11 441.12 547.43 440.78 547.87 440.43 548.83 440.03 549.33 440.01 549.69 440.16 549.88 440.41 550.11 440.63 550.39 440.8 551.46 441.13 551.76 441.27 552.03 441.45 552.26 441.66 552.64 441.91 553.18 442.14 554.32 442.35 556.18 443 556.54 443.21 556.8 443.41 556.93 443.55 557.22 444.04 557.39 444.25 557.63 444.46 557.93 444.61 559.07 444.75 559.42 444.84 560.56 445.31 560.95 445.32 561.27 445.24 562.05 444.69 562.76 444.39 563.25 444.33 563.67 444.38 564.5 444.85 565.08 445.06 565.25 445.15 565.95 445.68 567.11 446.21 567.34 446.34 567.48 446.45 567.65 446.63 568.17 447.4 568.42 447.6 568.98 447.93 569.23 448.13 569.43 448.32 569.64 448.44 569.84 448.52 571.28 448.94 571.82 448.93 572.55 448.83 573 448.85 573.37 448.97 573.59 449.22 573.85 449.86 574.05 450.1 574.39 450.29 574.96 450.54 578 451.34 578.46 451.54 580.38 452.81 580.74 453 581.38 453.19 582.79 453.01 583.3 453.01 583.69 453.12 584.35 453.85 584.51 454.07 584.73 454.72 585.57 455.13 586.04 455.05 587.08 454.98 587.93 455.1 590.58 456.01 591.58 456.22 592.45 456.32 593.4 456.29 593.99 456.43 594.65 456.68 595.79 456.85 601.24 457.15 604.13 456.94 604.3 456.75 604.37 456.53 604.33 456.27 604.39 455.8 603.85 454.68 603.75 454.33 603.81 453.95 604.04 453.55 605.83 452.43 607.02 451.88 607.74 451.37 608.19 451.35 609.66 451.46 610.06 451.38 610.39 451.26 610.66 451.06 611.25 450.76 611.57 450.46 611.81 450.15 611.94 449.85 612.08 449.61 612.68 448.78 612.84 448.49 613.12 448.21 613.49 447.92 614.22 447.57 614.55 447.33 615.08 446.81 616.04 445.41 616.07 445.29 616.04 445.2 615.91 445.05 615.86 444.86 615.92 444.72 616.32 444.49 617.02 444.25 619.03 443.93 620.53 443.52 623.88 441.86 626.57 441.24 626.97 441.05 628.01 440.35 632.16 439.62 632.47 439.29 632.99 438.56 633.13 438.23 633.3 437.92 633.54 437.69 633.87 437.56 634.87 437.69 635.24 437.68 635.57 437.44 635.81 437.31 636.14 437.44 636.33 437.69 636.56 437.93 636.81 438.09 637.82 438.27 639.5 438.27 640.08 438.14 643.13 436.8 643.99 436.32 645.66 435.7 645.99 435.62 646.68 435.1 647.03 433 646.77 432.69 646.67 432.46 646.57 432.13 646.53 431.76 646.58 431.4 646.76 430.8 646.74 430.57 646.49 430.47 645.8 430.43 645.51 430.3 645.28 430.08 645.14 429.77 645.08 429.43 644.97 429.11 644.78 428.86 644.34 428.42 644.15 428.16 643.99 427.87 643.88 427.54 643.72 426.9 643.7 426.66 643.7 426.52 643.73 426.33 643.83 426.06 643.98 425.81 644.39 425.32 644.54 425.02 644.61 424.65 644.66 422.57 644.83 421.87 644.96 421.54 645.04 421.19 645.07 420.79 645.04 420 645.1 419.65 645.24 419.36 646.59 417.67 647.26 416.98 649.18 415.56 649.61 415.08 649.84 414.62 649.85 414.2 649.62 411.79 649.64 410.95 649.73 410.6 650.11 409.64 650.35 407.67 651.07 405.72 652.2 403.73 652.59 403.23 653.03 402.77 653.74 402.6 654.84 402.49 658.74 402.68 669.35 401.68 670.41 401.36 670.61 401.12 671.1 400.71 671.53 400.24 671.8 400.1 672.17 400.09 672.66 400.23 673.21 400.28 674.52 400.18 675.15 400.21 678.57 401.09 678.98 401.26 679.33 401.45 680.39 402.18 680.69 402.32 681.15 402.45 681.75 402.55 683.71 402.46 686.07 401.63 686.08 401.63 686.11 401.62 Z" id="AGO-1892" data-name="Moxico"/>
<path d="M 5.39 793.14 5.45 794 3.99 792.66 3.1 790.77 1 784.43 1.13 782.66 1.76 781.87 3.1 780.77 4.24 781.13 4.36 784.31 4.63 785.72 4.63 788.37 4.69 790.83 5.39 793.14 Z M 77.02 817.5 76.53 817.71 75.94 818.21 75.41 819.15 74.98 819.69 72.8 820.35 69.93 821.67 67.67 823.52 66.46 824.12 64.84 824.34 63.26 824.86 60.38 827.27 58.81 828.04 58 828.11 55.72 827.61 51.94 827.31 50.73 826.91 49.2 826.04 48.54 826.08 47.66 826.77 46.73 827.13 42.55 826.99 37.91 827.42 37.7 827.15 37.52 826.55 37.22 825.94 36.6 825.67 35.92 825.51 35.2 825.13 34.57 824.7 34.21 824.34 33.95 823.84 33.85 823.35 33.69 822.91 33.28 822.55 32.69 822.36 32.38 822.54 32.03 822.83 31.3 822.99 29.09 822.35 28.42 821.93 27.96 821.9 27.59 822.04 27.13 822.15 24.15 822.53 21.2 823.37 18.56 824.56 15.53 826.76 12.88 827.97 11.7 828.74 11.32 829.26 11.18 829.69 10.85 829.97 9.9 830.06 9.21 829.93 8.09 829.36 7.23 829.22 7.23 829.21 7.23 828.74 6.7 828.34 6.37 827.7 6.24 826.91 6.31 826.06 6.75 823.58 6.79 815.06 7.61 809.53 8.12 804.53 7.36 799.97 7.36 798.02 8.5 797.71 8.82 800.45 9.65 801.61 10.73 798.87 10.55 793.92 10.9 792.27 10.3 786.15 10.82 779.4 8.07 754.98 8.11 753.71 8.41 752.67 9.86 749.76 8.4 746.78 5.33 742.12 5.26 739.34 6.31 735.61 7.06 735.02 8.42 734.2 9.73 733.68 10.3 734.06 10.59 735.18 11.33 735.52 12.26 735.25 15.51 732.23 16.06 731.25 16.27 730.38 16.33 728.59 16.5 727.69 17.81 726.16 21.78 723.9 22.62 722.42 22.84 720.56 24.12 715.71 24.89 713.99 24.22 712.29 24.44 710.39 25.29 706.73 25.92 699.16 26.27 698.18 26.83 697.33 29.05 695.28 29.53 695.16 30.52 695.68 31.05 695.68 31.64 695.01 31.93 693.94 31.88 692.79 31.49 691.92 30.53 691.45 29.85 691.66 29.53 691.57 29.69 690.2 30.33 688.16 32.02 684.28 32.37 682.03 32.62 681.16 33.24 680.45 33.97 679.79 34.56 679.13 34.92 678.26 35.51 674.72 35.52 673.87 35.67 673.41 36.15 672.83 36.58 672.82 37.01 672.94 37.46 672.75 38.02 671.91 38.57 670.13 39.85 668.09 39.82 666.95 39.55 665.78 39.44 664.58 39.59 663.77 40.1 662.3 41.14 657.59 41.54 652.44 41.86 651.57 42.87 649.94 43.62 647.67 44.32 643.4 44.53 639.27 44.32 637.17 43.64 635 43.17 633.96 43.03 633.48 42.96 632.81 42.87 632.47 42.59 631.86 42.52 631.49 42.61 631.02 42.83 631.05 43.13 631.19 43.68 630.92 44.46 630.79 44.76 630.61 45.02 630.12 45.16 629.53 45.2 628.92 45.16 628.37 44.65 627.48 43.86 626.61 43.46 625.69 44.49 624.06 44.81 622.69 46.11 621.17 46.41 620.24 46.58 619.27 46.96 618.29 48.04 616.64 48.23 615.98 48.31 613.72 48.51 612.71 49.05 611.94 50.58 611.47 50.95 611.14 51.3 610.9 51.79 610.99 52.67 611.67 53.09 611.9 53.57 611.84 54.64 610.43 55.06 608.14 55.54 601.41 55.3 595.08 55.51 594.31 56.43 592.63 56.63 591.88 56.65 591.87 58.74 590.49 59.97 589.97 61.78 589.75 67.64 590.85 70.81 591.81 75.37 592.49 78.15 594.41 79.67 594.8 81.48 594.44 88.43 591.74 89.55 591.13 90.53 590.07 91.5 589.2 93.19 588.95 105.13 591.56 106.04 592.64 106.12 593.75 105.36 596.67 105.2 598.16 105.58 599.6 106.44 601.12 108.76 604.11 110.48 607.12 111.29 608.3 112.54 608.93 115.7 608.61 117.66 609.01 120.06 609.84 121.03 610.07 123.05 609.89 123.93 612.04 124.54 613.1 125.62 614.22 126.53 615.54 126.91 617.01 126.54 618.72 126.24 619.57 125.19 621.45 124.35 625.05 126.06 630.66 125.64 632.88 125.92 634.12 127.2 635.72 128.41 636.39 129.56 637.62 130.54 647.96 127.3 653.76 126.56 657.3 126.42 658.8 126 660.3 124.7 663.3 123.47 664.96 121.64 666.77 109.74 674.82 108.39 675.87 107.23 676.17 105.78 676.84 104.55 678.21 103.85 679.98 104.31 684.64 104.21 685.7 102.66 688.07 102.28 688.98 102.26 690.28 104.83 694.48 104.85 695.56 104.29 696.47 101.87 697.83 100.9 698.91 100.93 700.06 101.89 700.94 104.8 701.19 106.08 701.76 106.72 703.19 107.09 704.63 108.15 705.62 109.51 705.6 110.96 704.64 112.38 704.08 113.45 705.03 113.8 706.32 114.13 710.19 114.9 711.74 116.09 712.92 117.43 713.92 119.62 714.93 121.83 718.34 122.16 731.38 124.67 736.97 124.59 738.67 124.07 740.3 119.62 748.17 119.04 749.77 118.55 751.67 118.48 753.16 118.73 754.56 120.31 758.43 120.61 760.49 119.53 763.15 119.13 763.58 118.89 763.78 117.65 764.53 113.45 769.22 111.73 770.61 109.65 771.85 109.32 771.98 109.04 771.98 108.84 771.78 108.67 771.55 108.45 771.42 107.61 772.78 107.22 773.01 106.76 773.11 106.32 773.17 105.6 773.41 105.22 773.68 103.96 775.21 103.37 775.47 102.76 775.64 102.04 775.76 101.63 775.94 101.31 776.16 101.13 776.43 100.72 777.19 99.68 778.63 100.94 779.95 101.56 780.42 102.02 780.88 102.37 781.62 102.62 783.02 102.09 785.13 101.06 786.7 99.63 787.92 98.23 788.69 96.95 789.86 96.14 791.18 95.99 792.8 96.65 794.52 99.37 797.83 106.31 804.68 108.13 807.8 108.96 810.91 108.96 810.93 107.39 811.33 106.98 811.29 106.54 811.02 105.55 811.25 103.91 812 103.91 811.52 103.24 811.76 102.48 811.74 101.03 811.52 100.34 811.19 99.92 810.56 99.44 810.19 98.59 810.63 97.39 809.79 95.99 809.87 94.52 810.35 87.6 811.52 84.22 813.42 82.21 813.85 80.95 814.45 79.42 814.86 79.1 815.49 78.99 816.21 78.72 816.79 78.17 817.16 77.02 817.5 Z" fill-rule="evenodd" id="AGO-1893" data-name="Namibe"/>
</g>
</svg>