<?xml version="1.0"?>
<svg xmlns="http://www.w3.org/2000/svg" version="1.2" baseProfile="tiny" width="800" height="285" viewBox="0 0 800 285" stroke-linecap="round" stroke-linejoin="round">
<g id="ne_10m_admin_1_states_provinces">
<path d="M 536.15 283.8 536 283.92 535.64 283.92 535.54 283.72 535.68 283.64 535.85 283.62 536.04 283.68 536.15 283.8 Z M 533.45 282.36 533.25 282.57 532.88 282.54 532.87 282.41 533.09 282.29 533.45 282.36 Z M 535.48 282.4 535.34 282.5 535.07 282.47 534.89 282.31 534.9 282.15 535.09 282.09 535.37 282.2 535.48 282.4 Z M 538.6 193.06 538.12 193.41 538.04 192.9 538.52 192.55 538.6 193.06 Z M 535.32 192.62 534.75 192.95 534.67 192.46 535.25 192.13 535.32 192.62 Z M 611.05 128.76 611.03 128.82 610.99 128.75 610.94 128.69 610.92 128.65 611 128.63 611.1 128.67 611.09 128.71 611.05 128.76 Z M 636.07 98.52 635.77 98.69 635.86 98.37 635.95 98.26 636.17 98.23 636.15 98.42 636.07 98.52 Z M 644.24 90.61 644.45 90.77 644.77 90.59 645 90.61 645.23 90.71 645.54 90.77 646.34 90.73 646.64 90.77 646.66 90.83 647.19 91.18 647.29 91.2 647.5 91.48 647.41 91.55 647.09 91.64 647.26 91.95 647.54 92.07 647.86 92.03 648.18 91.86 648.61 93.52 648.62 93.84 648.37 93.92 647.67 93.86 647.53 93.94 647.59 94.28 647.88 94.88 647.95 95.26 647.83 95.77 647.53 96.07 647.15 96.2 645.61 96.42 645 96.38 644.67 96.02 643.98 96.26 643.56 95.97 643.25 95.49 642.93 95.15 643.06 94.73 643.11 94.32 643.01 93.94 642.69 93.62 642.78 93.49 642.93 93.16 642.05 93.11 641.82 92.62 642.03 91.53 642.33 91.22 642.95 91.21 643.5 91.06 643.58 90.33 644.24 90.61 Z M 519.75 54.14 519.49 54.33 518.96 53.69 518.17 53.36 517.65 53.14 517.87 52.72 518.02 52.18 518.33 51.96 518.55 51.86 519.33 51.8 519.61 52.12 519.93 52.38 520.04 53.32 519.88 53.91 519.75 54.14 Z" fill-rule="evenodd" id="FSM-4941" data-name="Pohnpei"/>
<path d="M 499.76 144.29 499.42 144.41 499.55 144.03 499.98 143.65 500.48 143.42 500.79 143.49 500.7 143.79 500.26 144.07 499.76 144.29 Z M 360.58 99.17 360.41 99.34 360.42 99.11 360.45 98.92 360.51 98.76 360.66 98.62 360.73 98.84 360.7 99.01 360.58 99.17 Z M 441.74 79.21 441.58 79.55 441.46 78.36 441.5 77.84 441.76 78.1 441.86 78.46 441.85 78.84 441.74 79.21 Z M 356.29 77.64 356.26 77.79 356.1 77.48 356.31 77.47 356.34 77.53 356.29 77.64 Z M 434.54 77.29 434.98 77.86 434.99 78.34 434.8 78.92 434.47 79.19 434.1 78.71 433.88 78.71 433.61 78.92 433.24 78.9 432.82 78.78 432.36 78.71 432.45 78.6 432.55 78.55 432.79 78.51 433.09 78.37 433.93 78.19 434.1 77.97 433.96 77.65 433.28 77.75 433.01 77.4 434.09 77.14 434.54 77.29 Z M 442.01 74.85 442.21 75.01 442.44 74.85 442.71 74.89 443.06 74.98 443.52 75.01 443.2 75.38 442.66 75.76 442.06 76.03 441.56 76.09 441.54 75.7 441.58 75.37 441.78 74.79 441.92 74.81 442.01 74.85 Z M 395.31 39.21 395.28 39.33 395.19 39 395.34 39.04 395.36 39.11 395.31 39.21 Z M 371.87 39.13 371.68 39.36 371.58 38.95 371.66 38.42 371.9 38.03 372.28 38.04 372.33 38.32 372.14 38.73 371.87 39.13 Z M 386.19 26.47 386.04 26.53 386.24 26.24 386.34 26.17 386.51 26.22 386.44 26.38 386.33 26.44 386.19 26.47 Z" fill-rule="evenodd" id="FSM-4942" data-name="Chuuk"/>
<path d="M 4.85 8.39 5.27 8.56 5.96 8.25 5.8 8.62 5.43 9.13 4.99 9.58 4.65 9.8 4.2 9.65 3.96 8.98 3.56 9.12 3.26 9.42 1.51 12.18 1.14 12.61 1 11.84 1.29 10.75 1.81 9.77 2.35 9.34 2.57 9.12 2.84 8.05 2.99 7.69 3.47 7.43 3.66 7.65 3.76 8.49 3.81 8.18 3.91 7.86 4.05 7.58 4.21 7.38 4.49 7.17 4.87 6.97 5.15 6.96 5.11 7.38 4.76 7.93 4.85 8.39 Z M 79.6 1.35 79.31 1.46 79.27 1.25 79.51 1.03 79.82 1 79.87 1.12 79.6 1.35 Z" fill-rule="evenodd" id="FSM-4943" data-name="Yap"/>
<path d="M 798.34 142.65 798.49 142.82 798.7 142.88 798.91 142.97 799 143.21 798.89 143.61 798.33 144.6 798.13 144.83 797.69 144.93 797.3 144.83 796.92 144.67 796.48 144.59 795.79 144.6 795.32 144.54 794.84 144.38 794.71 143.83 795.09 143.29 796.6 141.99 797.22 141.57 797.85 141.41 798.34 141.76 798.39 141.96 798.33 142.44 798.34 142.65 Z" id="FSM-4944" data-name="Kosrae"/>
</g>
</svg>