<?xml version="1.0"?>
<svg xmlns="http://www.w3.org/2000/svg" version="1.2" baseProfile="tiny" width="800" height="1142" viewBox="0 0 800 1142" stroke-linecap="round" stroke-linejoin="round">
<g id="ne_10m_admin_1_states_provinces">
<path d="M 785.09 163.4 746.98 152.31 710.45 162.34 674.36 180.56 637.57 194.29 645.05 181.09 659.57 147.03 666.97 133.82 660.28 132.77 637.57 133.82 640.74 125.2 653.5 104.25 700.24 118.16 728.23 80.84 751.73 29.52 785.09 1 799 36.38 795.3 75.73 786.5 118.51 785.09 163.4 Z" id="GRD-5069" data-name="Carriacou and Petite Martinique"/>
<path d="M 406.16 764.7 399.47 857.53 394.28 872.67 384.77 887.64 370.34 920.73 371.04 937.63 383.19 973.02 377.73 979.71 366.46 984.81 360.13 997.58 320.56 967.52 286.76 953.29 247.61 963.96 236.94 949.73 226.26 907.03 222.7 883.9 247.61 853.65 277.86 803.83 292.1 759.35 345.47 759.35 406.16 764.7 Z" id="GRD-5070" data-name="Saint Andrew"/>
<path d="M 360.13 997.58 357.49 1014.48 356.78 1032.17 344.81 1051.53 252.12 1099.24 252.12 1083.13 233.64 1092.02 220.92 1083.17 204.91 1058.26 204.91 1020.9 219.15 972.86 247.61 963.96 286.76 953.29 320.56 967.52 360.13 997.58 Z" id="GRD-5071" data-name="Saint David"/>
<path d="M 247.61 963.96 219.15 972.86 204.91 1020.9 204.91 1058.26 220.92 1083.17 233.64 1092.02 219.82 1104.17 211.02 1120.37 207.76 1140.79 187.6 1137.09 168.15 1131.19 149.76 1123.01 132.68 1112.71 110.32 1131.98 73.62 1139.55 33.39 1137.53 1 1128.82 75.99 1081.46 89.73 1068.34 97.38 1036.75 91.13 1011.4 80.48 986.49 74.76 956.91 86.38 908.76 162.21 908.81 226.26 907.03 236.94 949.73 247.61 963.96 Z" id="GRD-5072" data-name="Saint George"/>
<path d="M 277.86 803.83 247.61 853.65 222.7 883.9 226.26 907.03 162.21 908.81 86.38 908.76 131.27 823.91 132.68 786.41 164.04 749 204.91 759.35 245.83 778.92 277.86 803.83 Z" id="GRD-5073" data-name="Saint John"/>
<path d="M 292.1 759.35 277.86 803.83 245.83 778.92 204.91 759.35 164.04 749 235.45 663.8 263.63 684.62 284.98 714.86 292.1 759.35 Z" id="GRD-5074" data-name="Saint Mark"/>
<path d="M 406.16 764.7 345.47 759.35 292.1 759.35 284.98 714.86 263.63 684.62 235.45 663.8 258.55 636.25 303.88 628.33 353.26 634.84 400.09 663.71 398.68 670.4 385.12 683.08 403.26 719.78 407.13 751.2 406.16 764.7 Z" id="GRD-5075" data-name="Saint Patrick"/>
</g>
</svg>