<?xml version="1.0"?>
<svg xmlns="http://www.w3.org/2000/svg" version="1.2" baseProfile="tiny" width="800" height="710" viewBox="0 0 800 710" stroke-linecap="round" stroke-linejoin="round">
<g id="ne_10m_admin_1_states_provinces">
<path d="M 488 511.78 488 514.32 488 517.62 488 520.92 488 524.23 488.01 527.53 488.01 530.83 488.01 534.14 488.01 537.44 488.01 540.74 488.01 544.05 488.02 547.35 488.02 550.66 488.02 553.96 488.02 557.27 488.02 560.57 488.02 563.87 488.02 567.17 488.03 570.48 488.03 573.78 488.03 577.08 488.03 580.39 488.03 583.69 488.04 587 488.04 590.3 488.04 593.61 488.04 596.91 488.04 600.21 488.04 603.51 488.04 606.82 488.05 610.12 488.05 613.43 488.05 616.74 488.05 620.03 488.05 623.33 488.05 626.64 488.05 629.95 488.05 633.25 488.05 636.55 488.05 639.86 488.05 643.16 488.05 646.46 488.05 649.77 488.05 653.07 488.05 656.38 488.06 659.69 488.07 662.99 488.07 666.29 488.07 669.59 488.07 672.9 488.07 675.22 487.98 676.97 486.14 677.38 485.53 677.43 483.63 677.21 482.97 677.29 481.42 678.06 478.78 680.17 477.06 680.61 474.21 680.79 472.87 681.2 471.71 682.02 470.69 682.49 464.78 682.88 464.26 683.03 463.64 683.38 463.27 683.79 462.92 684.27 462.4 684.84 462.08 685.32 461.58 686.4 461.21 686.61 460.64 686.81 460.28 687.32 458.58 692.05 457.97 692.9 456.95 693.64 455.74 694.13 450.96 695.21 450.11 695.54 449.48 695.44 448.07 694.43 447.22 694.49 446.47 695.06 445.8 695.84 444.78 697.55 444.56 698.78 444.95 700.06 447.15 703.41 447.12 704.12 446.43 704.5 444.49 704.64 444.13 704.86 443.49 705.8 443 706.23 439.65 707.79 437.21 708.51 434.94 708.61 433.94 707.46 433.67 707.22 433.02 707.03 430.95 706.79 430.54 706.67 429.92 706.03 428.43 703.97 427.45 703.15 415.14 701.57 403.84 703.04 401.71 704.07 400.44 704.42 400.17 704.31 399.45 703.72 399.19 703.58 398.86 703.64 398.35 703.93 398.03 704.02 396.88 704.19 396.23 704.36 395.77 704.63 394.63 705.05 393.19 704.83 390.71 704.02 389.39 703.94 384.21 704.6 382.11 705.25 381.01 705.23 376.06 703.7 373.8 702.66 370.22 700.03 368.23 698.91 366.09 698.12 356.25 696.2 354.35 696.34 353.72 696.6 352.55 697.31 351.98 697.55 351.22 697.59 349.32 697.11 348.05 696.61 347.78 695.42 347.83 693.97 347.52 692.72 346.63 692.16 345.63 692.36 344.51 692.82 343.31 693.08 340.86 693.34 338.26 693.89 336.06 693.58 335.95 691.81 336.69 689.36 337.06 687.05 336.41 685.75 334.26 685.05 333.8 684.05 333.46 682.71 331.86 680.87 331.38 679.81 331.61 678.96 332.38 678.18 333.4 677.58 334.4 677.36 335.33 676.76 335.83 675.37 335.97 673.75 335.85 672.49 335.54 671.83 334.6 670.72 334.2 670.12 333.96 669.39 333.9 668.79 333.73 668.19 333.2 667.46 332.97 666.9 332.89 666.15 332.65 665.5 331.98 665.22 330.46 665.29 326.72 666.07 324.83 665.76 323.59 664.39 323.3 661.63 323.46 660.29 323.47 658.97 322.93 657.94 321.45 657.54 320.31 657.07 319.54 656 318.86 654.79 318.04 653.92 317.37 653.67 316.78 653.66 315.61 653.92 314.95 654.22 312.98 655.52 311.41 655.16 310.73 655.32 309.89 656.12 309.18 656.37 308.59 656.27 308 655.63 307.54 655.52 307.18 655.78 306.17 656.79 305.97 656.95 305.53 661.63 305.1 662.22 304.84 662.19 304.54 661.98 303.56 662 303.31 661.83 303.07 661.74 302.71 661.99 302.59 662.35 302.75 662.66 303.79 663.83 303.81 664.26 302.91 664.45 301.66 664.44 301.33 664.66 301.1 665.22 301.27 665.63 301.72 666.23 302.06 666.93 301.94 667.67 301.39 668.04 300.79 667.86 300.21 667.47 299.69 667.26 298.65 667.72 298.39 668.77 298.63 669.98 299.05 670.89 300.3 672.58 300.72 673.66 300.09 674.14 299.23 674.65 298.92 675.82 298.85 677.17 298.68 678.16 298.04 679.17 296.98 680.42 295.8 681.31 294.82 681.22 294.58 680.67 294.41 679.92 294.15 679.25 293.62 678.97 293.01 679.17 288.55 683.09 286.3 683.73 284.67 684.47 283.13 685.4 282.05 685.84 280.96 686.56 280.37 687.47 279.62 688.06 278.06 687.85 277.38 687.47 273.79 684.85 271.96 682.98 271.09 681.81 264.74 676.17 263.71 675.78 263.25 675.4 259.69 671.14 255.92 667.23 248.11 662.18 246.53 660.78 243.52 657.34 239.29 654.34 238.49 653.53 236.66 650.93 234.74 649.13 234.43 648.71 234.37 648.03 234.76 646.83 234.83 646.27 234.08 644.41 232.49 642.45 226.61 637.22 225.86 636.18 225.57 634.77 225.6 631.71 225.47 631.23 225.1 630.5 219.47 622.41 218.52 620.53 217.8 619.59 216.84 619.2 216.33 618.67 214.6 615.58 212.19 612.78 211.82 612.16 211.02 607.49 210.7 606.92 210.3 606.49 209.96 606.02 209.82 605.28 210.22 602.87 209.4 599.06 209.82 598.2 208.64 596.03 208.29 594.89 208.17 593.56 208.22 591.12 207.89 589.95 206.96 588.91 206.54 588.77 205.47 588.69 204.94 588.51 204.83 588.25 204.42 587.63 203.99 587.09 203.78 587.09 203.61 585.79 203.2 584.69 201.31 581.14 201 580.15 201.27 578.54 200.65 577.38 199.82 576.19 199.31 575.2 199.18 573.83 199.34 572.66 199.83 571.82 200.7 571.5 201.31 571.37 201.91 571.16 202.35 571.18 202.54 571.74 202.54 574 202.94 574 203.17 572.83 204.33 569.75 204.36 569.13 203.98 568.35 202.79 564.75 202.01 561.19 200.65 559.01 198.69 557.19 196.46 555.81 192.96 554.51 192.44 553.98 192 549.37 192.22 544.91 191.04 543.3 190.83 542.9 191.07 542.2 191.42 542.18 191.88 542.34 192.44 542.1 193.23 540.22 193.18 537.69 192.55 535.16 191.63 533.21 188.98 529.24 188.65 527.3 189.63 525.12 189.19 525.12 186.16 521.87 185.16 520.3 185.01 519.6 185.01 519.1 185.16 518.28 185.16 513.62 185.4 512.41 187.17 509.36 187.33 508.39 187.32 507.04 187.07 505.85 185.78 504.69 185.41 503.19 185.16 500.51 183.7 496.92 183.37 494.16 182.78 491.97 182.71 490.79 184.54 486.39 184.37 485.7 185.56 481.49 185.78 479.09 185.19 476.84 184.37 475.31 184.37 475.31 184.55 475.31 239.13 475.66 240.55 480.42 245.25 509.48 245.41 510.06 245.69 510.54 246.26 510.58 246.93 510.46 249.12 509.83 249.87 509.7 250.67 509.67 251.31 510.09 251.91 510.69 263.81 525.38 264.58 525.98 265.35 525.95 266.12 525.68 266.88 525.28 268.06 525.14 269.5 525.19 272.17 526.06 273.05 525.96 273.45 525.61 270.33 510.95 270.27 510.36 270.36 509.84 270.84 509.52 271.44 509.28 274.41 508.44 275.16 508.37 275.83 508.61 276.47 508.99 277.03 509.41 277.43 509.8 277.51 510.09 277.21 510.5 276.98 510.88 277 511.45 277.88 514.21 280.36 512.59 281.3 511.37 283.53 506.97 284.24 505.97 284.73 506.11 285.25 506.63 286.67 509.09 287.14 509.7 287.61 509.92 288.38 509.93 289.4 509.85 299.78 511.77 300.24 512.04 301.25 512.46 302.7 513.43 305.22 513.7 307.88 514.53 309.52 515.48 310.1 516.01 310.32 516.73 310.39 517.47 310.56 518.11 310.91 518.46 312.04 518.33 316.45 517.14 318.21 517.12 321.33 516.09 322.23 516.19 331.99 519.99 332.2 509.73 333.51 508.95 335.22 508.34 336.24 507.82 336.69 507.65 337.06 507.7 337.67 508.01 338.5 508.27 349.79 509.3 357.52 508.67 385.99 502.52 399.17 501.51 403.19 503.42 404.5 504.41 408.98 506.49 434.7 508.52 435.61 508.25 440.95 505.72 442.21 504.58 442.66 504.24 443.23 503.98 443.75 504.28 444.11 504.61 449.28 511.73 449.84 512.32 450.33 512.46 451.04 512.13 452.86 510.85 453.36 510.6 454.91 510.35 457.71 510.37 460.96 510.82 462.44 511.28 463.86 512.28 464.74 512.67 465.67 512.94 471.32 513.93 473.85 514.95 474.59 515.05 475.81 514.68 482.4 511.8 483.29 511.61 484.45 511.51 485.29 512.13 487.97 511.78 488 511.78 Z" id="NAM-3338" data-name="Karas"/>
<path d="M 397.33 387.13 397.26 387.91 402.67 397.73 403.03 397.99 403.41 397.79 404.39 396.82 404.95 396.4 405.52 396.2 406.21 396.6 406.83 397.1 409.76 399.93 410.68 400.44 411.85 400.78 416.68 401.61 417.43 401.57 428.43 397.48 428.95 397.41 432.15 397.58 432.56 397.73 432.53 398.08 432.29 398.57 432.2 399.07 432.4 399.5 433.57 399.68 439.06 399.87 439.34 399.76 439.61 399.52 442.29 396.37 442.98 396 443.87 395.98 445.28 396.24 445.82 396.71 446.08 397.29 446.34 407.76 450.4 408.23 487.87 408.39 487.91 408.39 487.91 410.04 487.92 420.17 487.93 430.31 487.94 440.44 487.96 450.58 487.96 460.72 487.98 461.45 487.98 464.75 487.98 468.06 487.98 471.37 487.99 474.67 487.99 477.98 487.99 481.28 487.99 484.58 487.99 487.88 487.99 491.19 487.99 494.49 487.99 497.79 488 501.1 488 504.4 488 507.71 488 511.02 488 511.78 487.97 511.78 485.29 512.13 484.45 511.51 483.29 511.61 482.4 511.8 475.81 514.68 474.59 515.05 473.85 514.95 471.32 513.93 465.67 512.94 464.74 512.67 463.86 512.28 462.44 511.28 460.96 510.82 457.71 510.37 454.91 510.35 453.36 510.6 452.86 510.85 451.04 512.13 450.33 512.46 449.84 512.32 449.28 511.73 444.11 504.61 443.75 504.28 443.23 503.98 442.66 504.24 442.21 504.58 440.95 505.72 435.61 508.25 434.7 508.52 408.98 506.49 404.5 504.41 403.19 503.42 399.17 501.51 385.99 502.52 357.52 508.67 349.79 509.3 338.5 508.27 337.67 508.01 337.06 507.7 336.69 507.65 336.24 507.82 335.22 508.34 333.51 508.95 332.2 509.73 331.99 519.99 322.23 516.19 321.33 516.09 318.21 517.12 316.45 517.14 312.04 518.33 310.91 518.46 310.56 518.11 310.39 517.47 310.32 516.73 310.1 516.01 309.52 515.48 307.88 514.53 305.22 513.7 302.7 513.43 301.25 512.46 300.24 512.04 299.78 511.77 289.4 509.85 288.38 509.93 287.61 509.92 287.14 509.7 286.67 509.09 285.25 506.63 284.73 506.11 284.24 505.97 283.53 506.97 281.3 511.37 280.36 512.59 277.88 514.21 277 511.45 276.98 510.88 277.21 510.5 277.51 510.09 277.43 509.8 277.03 509.41 276.47 508.99 275.83 508.61 275.16 508.37 274.41 508.44 271.44 509.28 270.84 509.52 270.36 509.84 270.27 510.36 270.33 510.95 273.45 525.61 273.05 525.96 272.17 526.06 269.5 525.19 268.06 525.14 266.88 525.28 266.12 525.68 265.35 525.95 264.58 525.98 263.81 525.38 251.91 510.69 251.31 510.09 250.67 509.67 249.87 509.7 249.12 509.83 246.93 510.46 246.26 510.58 245.69 510.54 245.41 510.06 245.25 509.48 240.55 480.42 239.13 475.66 184.55 475.31 184.37 475.31 183.15 473.01 182.41 470.7 182.22 465.98 181.5 463.72 178.13 457.83 176.71 456.03 173.81 453.43 172.98 451.66 170.96 449.52 170.61 448.03 170.83 447.4 171.66 446.52 171.85 446.18 171.85 443.76 171.58 442.64 170.27 440.44 168.97 437.45 165.78 431.78 164.56 427.71 163.4 425.75 163 423.05 162.56 422.17 162.85 420.98 162.84 419.01 162.58 416.99 162.12 415.69 162.56 414.87 162.94 413.26 163.36 412.48 163.73 412.31 164.27 412.23 164.76 412.01 164.97 411.45 165.78 410.03 165.31 409.31 165.38 406 164.34 403.18 164.17 402.14 164.97 393.65 164.68 391.54 164.02 389.92 197.16 392.9 198.63 394.96 199.05 395.39 199.29 395.58 199.55 395.75 200.04 395.9 200.7 396.03 202.01 396.12 206.31 395.78 212.26 396.7 213.5 396.59 214.33 396.65 221.07 398.33 238.17 405.39 237.71 410.02 238.01 411.49 238.67 413.11 242.24 414.78 243.9 414.9 248.27 414.69 248.82 414.55 249.13 414.21 249.41 413.71 249.63 413.14 250.16 412.65 250.9 412.28 253.63 412.23 261.21 410.04 261.61 410.01 263.44 410.18 264.11 410.16 264.78 409.91 268.35 408.11 268.78 408.02 268.65 408.43 268.02 409.53 267.79 410.25 267.67 411.03 267.88 412.18 267.66 412.62 267.19 412.89 266.06 413.01 265.75 413.12 265.35 413.38 265.29 414 265.64 414.88 268.9 417.17 272.22 417.85 271.62 416.38 270.55 412.78 271.17 411.26 273.43 409.19 273.96 408.85 274.41 408.81 276.33 409.29 281.6 409.63 282.13 409.6 282.42 409.43 282.67 409.07 283.01 408.36 283.13 407.92 283.09 407.55 282.64 406.28 282.39 405.85 282.01 405.6 281.47 405.39 277 404.22 276.4 404.22 275.4 404.73 274.87 404.77 269.8 403.66 269.36 403.42 269.3 403 269.38 402.47 270.35 399.09 273.18 393.81 273.52 393.37 273.88 393.09 274.68 393.59 275.23 394.13 275.35 394.47 275.56 397.39 275.71 397.83 276.15 398 280.08 397.99 280.72 397.87 281.27 397.53 287.34 391.98 287.54 391.5 287.54 390.9 287.12 389.09 286.92 388.56 286.58 388.24 282.53 386.2 282.29 386.04 282.02 385.75 282.11 385.34 282.31 384.84 289.09 372.42 289.96 371.32 290.66 371.23 292.06 371.86 293.11 372.73 294.36 373.06 295.52 373.14 296.84 372.91 299.02 372.83 301.62 373.47 306.41 372.41 309.34 371.21 312.87 368.82 316.81 368.11 319.26 368.12 321.85 368.94 322.85 369.39 323.38 370.21 323.63 371.73 323.74 374.26 324.69 375.59 326.72 375.97 332.02 375.17 336.02 374.99 339.38 374.27 340.32 374.21 340.47 374.26 338.35 376.22 337.94 376.72 337.82 377.17 337.82 377.73 338.08 380.77 337.99 381.25 337.69 381.49 335.56 382.1 335.33 382.47 335.3 383.02 336.04 386.59 336.3 386.84 336.58 386.98 337.55 387.27 338.03 387.47 338.22 387.7 338.33 388.18 338.81 393.41 339.17 393.15 349.04 393.3 349.66 393.24 350.15 393.07 350.35 392.53 350.86 392 351.72 391.52 362.94 391.26 365.91 392.02 366.49 392.26 366.96 392.65 369.06 395.13 369.57 395.48 370.08 395.57 372.4 394.6 373 394.49 373.49 394.81 374.48 395.05 375.35 394.94 376.47 394.69 381.01 392.87 383.55 392.26 384.23 391.93 384.39 391.31 384.49 390.07 384.67 389.54 385.18 389.15 390.26 386.96 394.29 384.79 395.62 384.72 397.33 387.13 Z" id="NAM-3339" data-name="Hardap"/>
<path d="M 397.33 387.13 395.62 384.72 394.29 384.79 390.26 386.96 385.18 389.15 384.67 389.54 384.49 390.07 384.39 391.31 384.23 391.93 383.55 392.26 381.01 392.87 376.47 394.69 375.35 394.94 374.48 395.05 373.49 394.81 373 394.49 372.4 394.6 370.08 395.57 369.57 395.48 369.06 395.13 366.96 392.65 366.49 392.26 365.91 392.02 362.94 391.26 351.72 391.52 350.86 392 350.35 392.53 350.15 393.07 349.66 393.24 349.04 393.3 339.17 393.15 338.81 393.41 338.33 388.18 338.22 387.7 338.03 387.47 337.55 387.27 336.58 386.98 336.3 386.84 336.04 386.59 335.3 383.02 335.33 382.47 335.56 382.1 337.69 381.49 337.99 381.25 338.08 380.77 337.82 377.73 337.82 377.17 337.94 376.72 338.35 376.22 340.47 374.26 340.32 374.21 339.38 374.27 336.02 374.99 332.02 375.17 326.72 375.97 324.69 375.59 323.74 374.26 323.63 371.73 323.38 370.21 322.85 369.39 321.85 368.94 319.26 368.12 316.81 368.11 312.87 368.82 309.34 371.21 306.41 372.41 301.62 373.47 299.02 372.83 296.84 372.91 295.52 373.14 294.36 373.06 293.11 372.73 292.06 371.86 290.66 371.23 289.96 371.32 289.09 372.42 282.31 384.84 282.11 385.34 282.02 385.75 282.29 386.04 282.53 386.2 286.58 388.24 286.92 388.56 287.12 389.09 287.54 390.9 287.54 391.5 287.34 391.98 281.27 397.53 280.72 397.87 280.08 397.99 276.15 398 275.71 397.83 275.56 397.39 275.35 394.47 275.23 394.13 274.68 393.59 273.88 393.09 273.52 393.37 273.18 393.81 270.35 399.09 269.38 402.47 269.3 403 269.36 403.42 269.8 403.66 274.87 404.77 275.4 404.73 276.4 404.22 277 404.22 281.47 405.39 282.01 405.6 282.39 405.85 282.64 406.28 283.09 407.55 283.13 407.92 283.01 408.36 282.67 409.07 282.42 409.43 282.13 409.6 281.6 409.63 276.33 409.29 274.41 408.81 273.96 408.85 273.43 409.19 271.17 411.26 270.55 412.78 271.62 416.38 272.22 417.85 268.9 417.17 265.64 414.88 265.29 414 265.35 413.38 265.75 413.12 266.06 413.01 267.19 412.89 267.66 412.62 267.88 412.18 267.67 411.03 267.79 410.25 268.02 409.53 268.65 408.43 268.78 408.02 268.35 408.11 264.78 409.91 264.11 410.16 263.44 410.18 261.61 410.01 261.21 410.04 253.63 412.23 250.9 412.28 250.16 412.65 249.63 413.14 249.41 413.71 249.13 414.21 248.82 414.55 248.27 414.69 243.9 414.9 242.24 414.78 238.67 413.11 238.01 411.49 237.71 410.02 238.17 405.39 243.12 404.93 244.28 403.9 244.66 401.64 244.64 401.3 244.01 398.95 243.92 398.46 244.63 389.99 244.59 389.44 244.46 388.98 244 388.65 239.49 386.7 239.07 386.45 238.71 386.11 238.72 385.61 238.9 385.06 240.47 381.58 240.78 381.06 241.17 380.63 241.75 380.43 243.71 380.13 244.21 380 244.52 379.84 244.57 379.46 244.55 379.15 243.12 372 247.93 370.52 248.51 370.28 248.86 369.98 248.68 369.55 246.02 366.56 245.73 366.03 245.75 365.46 245.89 364.88 246.95 361.94 247.08 361.33 247.1 360.7 246.96 359.43 246.71 358.21 246.55 357.71 246.5 357.45 246.51 357.17 247.18 351.8 247.58 351 248.21 350.19 249.83 349.46 250.74 348.83 251.74 348.61 252.46 348.53 256.01 348.49 256.65 348.32 256.91 347.76 257 347.06 257.07 340.98 257.03 340.49 256.87 340 256.47 339.85 255.92 339.78 251.5 339.9 251.25 339.75 251.03 339.46 252.09 338.18 256.71 333.72 257.51 333.23 258.38 333.23 262.01 334.19 262.73 334.22 263.49 333.92 264.36 333.45 266.08 332.03 266.85 330.95 268.92 329.31 269.49 328.74 270.16 328.6 270.92 328.61 271.78 328.71 272.57 328.71 273.21 328.62 273.43 328.21 273.52 327.94 273.57 325.31 273.87 324.39 274.48 323.43 277.27 321.51 279.69 320.55 284.38 319.5 285 319.86 285.83 320.19 286.18 320.53 286.58 320.3 287.01 319.86 287.87 318.75 288.35 318.28 288.86 317.97 289.41 318.17 290.6 319 291.22 319.28 291.77 319.1 292.34 318.86 292.9 318.85 294.66 319.03 296.48 318.94 297.06 318.5 297.29 317.94 297.1 317.38 296.82 316.96 296.28 316.89 294.32 317.18 293.79 317.12 293.56 316.74 293.5 316.3 293.58 315.96 293.9 315.57 295.55 312.83 296.03 312.33 296.59 312.13 297.14 312.08 297.52 312.22 297.79 312.68 298.25 313.91 298.76 314.45 299.49 314.89 301.13 314.97 301.84 315.38 302.67 316.03 303.24 315.95 305.95 315.01 306.72 314.99 307.4 314.62 307.97 314.19 309.16 313.09 309.78 312.62 310.48 312.25 310.97 312.55 311.41 313.08 311.77 313.69 312.14 314.16 312.44 314.19 312.93 313.89 316.85 310.8 317.47 310.4 318.06 310.19 318.47 310.54 318.84 311.09 319.17 311.75 319.55 312.3 319.99 312.66 320.62 312.51 326.28 310.05 327.04 309.35 327.41 308.67 327.41 306.84 327.5 306.29 327.85 305.73 328.81 304.61 329.31 304.13 329.85 303.76 330.14 304.03 330.36 304.53 330.68 305.77 330.89 306.27 331.17 306.51 331.73 306.42 334.52 305.3 335.14 304.97 335.58 304.6 335.67 304.06 335.55 302.95 335.62 302.66 336.05 302.72 338.44 303.67 338.99 303.75 339.31 303.39 339.57 302.9 340.17 301.28 340.19 300.94 340.03 300.4 338.82 297.22 338.77 296.68 339.16 296.54 340.37 296.58 341.03 296.51 341.63 296.14 342.2 295.71 342.66 295.24 342.9 294.89 343.33 293.79 343.84 293.18 344.5 292.73 346.47 291.67 346.78 291.38 347.5 289.73 347.91 289.1 348.5 288.78 349.15 288.53 351.9 287.85 352.53 287.75 353.06 287.82 353.6 288.23 354.54 289.17 354.91 289.31 355.33 289.26 357.06 288.71 359.85 288.16 361.44 287.46 362.13 286.96 363.36 285.82 365.38 284.28 368.2 283.08 370.65 282.58 371.94 282.76 378.15 281.16 378.62 284.65 377.89 286.03 376.4 287.67 375.46 289.24 375.21 289.91 375.2 290.4 375.34 290.65 375.51 290.89 375.71 291.11 376.61 291.89 377.01 292.34 377.49 293.11 377.69 293.33 377.92 293.49 378.18 293.59 378.4 293.89 378.6 294.38 378.73 295.7 378.41 296.25 377.96 296.58 377.56 296.81 377.07 297.21 376.56 298.23 374.93 300.52 374.73 301.03 374.92 301.41 375.25 301.91 375.41 302.39 375.41 303.38 375.1 303.86 374.53 304.3 372.45 305.11 371.87 305.18 370.96 305.16 370.45 305.19 369.94 305.38 369.7 305.88 369.04 311.13 369.2 312.04 369.54 312.96 371.16 316.06 373.08 318.44 373.78 319.03 374.53 319.18 376.89 319.18 377.34 319.49 377.69 319.88 379.29 322.22 380.07 323.06 381.19 323.92 381.67 324.36 381.44 324.72 379.48 325.69 379 326.08 379.21 326.5 379.66 326.92 381.18 327.99 381.26 328.03 381.37 327.97 383.19 326.57 383.7 326.29 383.96 326.48 384.14 326.87 385.81 334.53 386.55 340.69 386.84 341.86 388.51 346.49 388.69 348.21 388.81 354.49 389.23 354.81 389.83 354.81 393.99 353.36 394.47 353.34 394.58 353.71 394.59 354.24 394.49 355.41 394.39 355.93 394.2 356.25 393.68 356.53 391.04 357.52 390.75 357.69 390.33 358.04 390.29 358.58 390.38 359.18 390.62 359.76 390.91 360.21 391.82 360.72 393.08 362.22 393.65 362.44 394.27 362.56 395.55 362.7 396.09 362.82 396.43 363.01 396.69 363.49 397.24 364.85 397.72 366.76 397.37 367.17 396.83 367.39 393.52 367.6 392.97 367.76 392.43 368.16 392.05 368.82 391.79 369.55 391.76 370.26 392.13 370.83 400.41 377.17 400.98 377.77 401.03 378.3 400.83 379.01 397.33 387.13 Z" id="NAM-3340" data-name="Khomas"/>
<path d="M 96.95 2.04 98 1.77 99.08 2.14 101.15 3.52 102.21 3.83 103.61 3.99 104.84 4.49 105.72 5.3 106.49 7.63 107.34 8.42 107.85 9.38 107.29 11.07 112.31 13.75 117.47 17.83 123.14 20.86 128.68 23.83 129.42 24.45 132.12 27.94 132.98 28.58 134.35 28.84 135.08 28.71 136.02 28.13 136.55 28 137.21 28.07 138.29 28.4 139.57 28.55 140.52 28.84 141.23 28.84 141.87 28.66 142.8 28.14 143.2 28 145.8 28.41 147.11 28.22 147.66 27.05 147.72 26.75 148.39 26.76 148.41 26.76 148.41 26.76 148.35 28.01 148.16 28.6 148.55 28.99 148.22 29.99 147.11 32.02 146.6 33.23 144.72 35.9 143.55 37.28 143.72 38.83 146.18 40.24 146.48 41.58 146.3 43.11 146.06 44.24 145.54 45.19 144.39 46.36 145.18 49.14 150.9 60.3 152.6 67.48 153.61 89.46 153.06 97.78 153.38 101.83 155.74 108.9 157.36 112.11 158.41 115.42 157.36 121.46 156.94 127.53 159.42 134.4 160.6 135.99 162.24 137.28 163.61 139.3 163.84 141.91 163.19 142.86 162.47 143.69 161.95 146.17 169.33 146.35 170.42 144.15 170.52 140.99 167.22 141.13 166.97 138.61 167.09 136.27 169.86 135.75 186.1 135.63 199.67 133.89 203.31 134.62 206.84 134.87 213.1 133.01 212.94 136.24 223.95 136.12 226.06 135.84 228.45 136.15 235.93 137.93 240.89 138.47 243.07 138.37 245.15 138.8 249.81 141.22 256.92 142.21 261.07 143.25 264.42 143.59 272.34 145.85 283.26 147.38 286.81 147.43 290.55 148.36 294.07 150.13 294.77 150.69 294.84 151.63 295.35 154.22 294.71 175.79 295.22 178.01 291.94 180.09 290.31 180.51 285.1 180.55 284.77 180.68 284.59 180.85 284.53 184.18 284.59 184.78 285.55 187.32 285.63 187.84 285.23 188 284.68 188.05 282.93 187.98 272.4 193.05 271.8 193.58 271.5 194.01 271.65 198.79 271.98 200.81 272 201.46 271.87 202.19 271.56 202.97 270.88 203.5 270.05 203.94 269.19 204.32 268.3 204.48 267.44 204.42 266.41 203.67 265.5 203.46 264.65 203.37 263.91 203.48 263.38 203.64 260.44 204.95 259.88 205.02 256.22 205.06 255.65 205.14 251.51 206.73 249.55 207.99 248.73 208.67 244.96 212.82 244.04 213.39 240.46 214.81 239.61 215.04 238.74 215.01 233.88 214.03 229.82 213.82 227.18 213.3 224.69 212.46 223.49 211.93 222.62 211.21 222.17 210.59 221.79 210.17 221.3 209.81 217.07 209.38 216.51 209.93 216.13 210.64 214.72 212.1 211.43 216.31 210.94 216.64 202.74 223.9 202.14 224.61 201.85 225.4 201.51 225.69 198.71 227.33 197.41 227.94 194.27 230.35 193.73 230.94 193.33 231.19 192.38 231.56 192.16 231.69 192 231.89 191.61 232.63 191.35 232.91 191 233.15 190.62 233.32 190.08 233.62 189.78 233.96 189.52 234.41 189.28 234.66 189 234.83 188.28 234.93 187.13 234.97 186.86 235.03 186.58 235.17 185.14 236.21 183.81 236.9 183.36 237.29 182.74 237.95 182.35 238.23 181.99 238.37 181.47 238.46 180.43 238.78 178.92 239.43 178.45 239.55 177.26 239.57 176.72 239.64 175.84 239.82 175.46 239.84 173.62 239.64 170.31 239.68 169.88 239.62 167.71 238.74 167.36 238.65 166.87 238.65 166.34 238.7 165.53 238.88 163.91 238.91 162.5 239.15 162.1 239.08 161.83 238.94 160.57 238.07 160.27 237.93 159.93 237.82 157.41 237.61 155.88 237.88 152.86 238.83 152.53 238.9 152.16 238.91 151.8 238.87 151.46 238.76 147.75 237.2 147.28 237.14 146.69 237.15 145.71 237.32 145.11 237.53 144.58 237.78 143.97 238.18 143.53 238.37 143.11 238.48 141.46 238.58 140.17 238.87 139.35 239.18 137.77 239.95 137.32 240.12 136.97 240.17 134.32 240.23 129.86 241.75 128.66 242.55 127.88 243.41 127.41 243.56 126.45 243.64 126.15 243.79 125.91 244.07 125.76 244.42 125.51 244.89 125.17 245.06 124.6 245.17 123.89 245.23 121.85 245.71 121.37 245.91 121.13 246.09 120.44 247.02 119.9 247.49 119.38 247.75 117.35 248.42 113.58 250.65 113.58 250.65 112.08 248.91 106.82 240.06 104.38 236.94 103.62 234.76 102.78 233.94 101.18 232.75 100 230.71 99.38 228.76 98.77 223.89 97.16 218.64 92.05 209.25 90.65 204.07 90.33 201.56 89.12 196.77 87.04 191.82 85.68 189.75 83.31 189.07 80.74 187.4 78.77 184.17 76.88 176.86 72.31 168.57 71.76 166.85 69.26 163.69 64.93 156.19 64.43 154.84 63.78 153.97 62.28 151.02 61.79 150.38 59.16 145.95 58.36 144.07 58.07 142.94 57.69 140.24 57.02 138.97 55.13 136.62 53.92 134.56 51.07 127.77 49.86 125.95 48.07 123.95 45.94 122.39 45.36 121.6 44.67 117.35 44.16 116.11 34.54 103.92 27.94 99.81 25.05 96.68 24.69 96.37 23.65 94.99 23.04 94.67 22.47 94.3 19.52 92.59 18.58 89.5 18.37 88.42 17.61 86.59 17.53 85.9 17.55 85.31 17.5 84.73 17.61 84.14 16.23 82.24 13.95 76.49 13.58 76.09 8.75 71.25 7.84 68.59 7.42 65.12 6.36 62.31 5.67 60.22 4.91 54.54 3.55 50.23 2.65 44.19 1.97 41.17 1.54 39.23 1 36.08 1.24 31.45 3.21 19.6 3.86 18.77 3.86 18.78 4.65 18.91 5.67 19.43 6.3 19.55 7.17 19.47 7.47 19.21 7.6 18.82 7.95 18.35 9.03 17.64 11.45 16.53 14.23 14.52 16.64 13.42 19.34 12.66 22.07 12.31 22.49 12.21 22.83 12.08 23.25 12.11 23.86 12.49 25.88 13.08 26.55 12.94 26.87 12.67 27.16 12.5 27.7 12.68 28.08 13 28.22 13.41 28.31 13.86 28.55 14.32 28.87 14.64 29.45 15.04 30.12 15.39 30.74 15.53 31.3 15.78 31.58 16.34 31.74 16.89 31.94 17.13 36.18 16.74 40 16.87 40.85 16.54 41.66 15.91 42.27 15.87 43.67 16.67 44.78 17.03 48.24 17.31 50.32 17.77 51.06 17.71 52.49 17 55.13 14.79 56.57 14.32 58.06 14.11 59.17 13.56 61.24 11.87 63.86 10.67 65.86 10.06 66.25 9.56 66.73 8.7 67.27 8.25 67.72 8.06 68.77 7.75 69.28 7.41 69.53 6.88 69.63 6.21 69.92 5.64 71.32 5.27 72.47 4.72 74.31 4.32 77.41 2.58 83.74 1.52 85.08 1.08 86.37 1 87.46 1.77 88.24 1.37 88.68 1.71 89.06 2.28 89.7 2.58 91.02 2.78 91.72 2.8 92.33 2.58 92.33 3.02 93.83 2.34 94.74 2.13 95.14 2.38 95.51 2.41 96.95 2.04 Z" id="NAM-3347" data-name="Kunene"/>
<path d="M 229.82 213.82 229.56 220.07 229.7 220.68 230.11 221.52 233.1 222.39 233.58 222.45 234.2 222.39 236.22 221.96 236.85 221.92 237.12 222.12 237.34 222.51 238.23 225.52 238.8 226.19 243.47 230.19 255.27 236.17 258.8 239.38 261.57 240.35 264.03 241.69 264.71 241.95 265.13 241.84 265.52 241.56 268.03 238.99 268.39 238.74 268.59 238.86 268.72 239.2 269.16 241.18 269.56 241.93 270.2 242.65 271.75 243.97 272.57 244.53 273.55 245.02 274.03 245.31 276.02 247.2 276.24 247.48 276.66 248.31 276.97 248.77 277.4 248.97 277.95 249.1 283.67 249.74 283.69 253.16 283.2 255.09 284.97 262.37 284.75 264.11 282.4 266.23 280.11 269.17 279.36 269.95 279.14 270.46 278.92 271.19 278.29 275.85 276.53 282.49 278.81 289.24 278.88 290.59 279.21 291.58 279.45 291.71 279.94 291.92 280.5 292.4 281.43 293.79 281.56 294.67 281.45 295.43 281.12 295.99 280.88 296.54 280.83 297.06 281.14 297.61 281.56 298.15 281.7 298.45 281.67 298.69 281.47 299.03 281.03 300.67 280.97 302.35 280.52 302.93 279.97 303.2 279.33 303.15 278.81 303.16 278.55 303.32 278.79 303.82 280.72 306.47 280.94 306.99 280.59 307.2 279.37 307.74 278.72 308.5 276.73 309.86 276.4 310.26 276.49 310.82 278.13 314.35 278.13 314.78 278 315.09 277.59 315.56 277.4 315.86 277.27 316.34 277.43 316.94 277.76 317.61 279.69 320.55 277.27 321.51 274.48 323.43 273.87 324.39 273.57 325.31 273.52 327.94 273.43 328.21 273.21 328.62 272.57 328.71 271.78 328.71 270.92 328.61 270.16 328.6 269.49 328.74 268.92 329.31 266.85 330.95 266.08 332.03 264.36 333.45 263.49 333.92 262.73 334.22 262.01 334.19 258.38 333.23 257.51 333.23 256.71 333.72 252.09 338.18 251.03 339.46 251.25 339.75 251.5 339.9 255.92 339.78 256.47 339.85 256.87 340 257.03 340.49 257.07 340.98 257 347.06 256.91 347.76 256.65 348.32 256.01 348.49 252.46 348.53 251.74 348.61 250.74 348.83 249.83 349.46 248.21 350.19 247.58 351 247.18 351.8 246.51 357.17 246.5 357.45 246.55 357.71 246.71 358.21 246.96 359.43 247.1 360.7 247.08 361.33 246.95 361.94 245.89 364.88 245.75 365.46 245.73 366.03 246.02 366.56 248.68 369.55 248.86 369.98 248.51 370.28 247.93 370.52 243.12 372 244.55 379.15 244.57 379.46 244.52 379.84 244.21 380 243.71 380.13 241.75 380.43 241.17 380.63 240.78 381.06 240.47 381.58 238.9 385.06 238.72 385.61 238.71 386.11 239.07 386.45 239.49 386.7 244 388.65 244.46 388.98 244.59 389.44 244.63 389.99 243.92 398.46 244.01 398.95 244.64 401.3 244.66 401.64 244.28 403.9 243.12 404.93 238.17 405.39 221.07 398.33 214.33 396.65 213.5 396.59 212.26 396.7 206.31 395.78 202.01 396.12 200.7 396.03 200.04 395.9 199.55 395.75 199.29 395.58 199.05 395.39 198.63 394.96 197.16 392.9 164.02 389.92 164.02 389.92 161.83 384.58 161.09 381.91 161.13 381.34 161.61 380.82 163.04 378.43 163.76 377.77 163.75 379 164.04 379.54 164.39 379.23 164.57 377.94 164.48 375.67 163.39 368.81 162.76 366.72 161.75 365.18 160.91 363.53 160.28 361.63 159.88 359.58 159.66 355.73 159.74 355.16 160.01 354.59 160.78 353.47 160.94 352.91 160.94 350.48 161.13 350.36 161.48 350.36 161.65 350.58 161.31 351.1 161.58 351.47 161.9 352.03 162.12 352.27 161.77 353.46 161.68 354.67 162.11 355.28 163.36 354.72 163.27 355.39 162.56 357.17 163.44 356.4 164.77 354.02 165.58 353.52 166.25 352.93 166.68 351.56 166.98 348.85 166.58 338.56 165.46 330.81 164.08 328.71 163.44 326.09 161.31 322.02 160.17 318.54 158.27 314.81 157.91 314.34 154.07 310.32 152.84 308.38 152.79 306.97 152.66 306.44 143.58 295.36 139.15 291.5 138.69 290.55 133.83 286.31 132.68 285.79 132.67 285.16 132.92 284.55 133.08 284.28 133.44 282.8 133.48 282.42 133.29 281.67 133.03 281.13 128.3 274.49 127.41 270.71 125.58 266.49 119.54 259.05 115.86 253.28 113.58 250.65 117.35 248.42 119.38 247.75 119.9 247.49 120.44 247.02 121.13 246.09 121.37 245.91 121.85 245.71 123.89 245.23 124.6 245.17 125.17 245.06 125.51 244.89 125.76 244.42 125.91 244.07 126.15 243.79 126.45 243.64 127.41 243.56 127.88 243.41 128.66 242.55 129.86 241.75 134.32 240.23 136.97 240.17 137.32 240.12 137.77 239.95 139.35 239.18 140.17 238.87 141.46 238.58 143.11 238.48 143.53 238.37 143.97 238.18 144.58 237.78 145.11 237.53 145.71 237.32 146.69 237.15 147.28 237.14 147.75 237.2 151.46 238.76 151.8 238.87 152.16 238.91 152.53 238.9 152.86 238.83 155.88 237.88 157.41 237.61 159.93 237.82 160.27 237.93 160.57 238.07 161.83 238.94 162.1 239.08 162.5 239.15 163.91 238.91 165.53 238.88 166.34 238.7 166.87 238.65 167.36 238.65 167.71 238.74 169.88 239.62 170.31 239.68 173.62 239.64 175.46 239.84 175.84 239.82 176.72 239.64 177.26 239.57 178.45 239.55 178.92 239.43 180.43 238.78 181.47 238.46 181.99 238.37 182.35 238.23 182.74 237.95 183.36 237.29 183.81 236.9 185.14 236.21 186.58 235.17 186.86 235.03 187.13 234.97 188.28 234.93 189 234.83 189.28 234.66 189.52 234.41 189.78 233.96 190.08 233.62 190.62 233.32 191 233.15 191.35 232.91 191.61 232.63 192 231.89 192.16 231.69 192.38 231.56 193.33 231.19 193.73 230.94 194.27 230.35 197.41 227.94 198.71 227.33 201.51 225.69 201.85 225.4 202.14 224.61 202.74 223.9 210.94 216.64 211.43 216.31 214.72 212.1 216.13 210.64 216.51 209.93 217.07 209.38 221.3 209.81 221.79 210.17 222.17 210.59 222.62 211.21 223.49 211.93 224.69 212.46 227.18 213.3 229.82 213.82 Z" id="NAM-3348" data-name="Erongo"/>
<path d="M 546.55 131.88 546.56 136.52 546.59 143.88 546.61 151.25 546.63 158.62 546.66 165.98 546.69 173.35 546.7 180.71 546.73 188.08 546.75 195.44 546.77 201.35 546.74 201.35 545.27 201.45 544.23 201.9 543.4 202.09 539.62 202.27 536.44 203.19 535.61 203.36 531.5 203.5 529.29 203.31 526.28 202.51 519.96 201.7 517.57 201.73 515.49 202.05 514.3 202.01 511.6 201.51 510.45 201.19 508.96 200.5 507.91 200.2 460.11 195.15 458.55 194.97 455.01 195.01 453.39 195.25 452.22 195.74 450.33 197.43 448.53 198.33 420.2 208.41 419.6 208.74 417.54 210.35 415.81 212.11 405.31 228.53 405 229.35 403.13 237.52 402.72 238.71 401.16 241.76 400.73 241.05 400.32 240.63 399.72 240.23 398.77 240.26 394.52 241.16 393.35 241.86 392.74 244.13 392.48 245.92 392.49 246.41 392.71 246.51 393.23 246.46 395.16 246.1 395.65 246.1 395.82 246.32 395.82 246.78 395.69 247.96 395.51 248.56 395.2 249.14 394.45 249.68 392.33 250.86 391.86 251.3 391.81 251.89 391.88 252.45 392.07 253.01 392.94 254.51 393.1 254.96 392.78 255.01 386.59 253.42 385.99 253.35 385.46 253.44 384.82 253.61 384.22 253.99 383.71 254.52 383.51 255.63 383.43 258.32 383.52 258.76 383.84 258.9 384.38 258.95 385.62 258.84 386.64 258.61 386.86 258.73 387.04 259.17 387.5 261.02 387.56 261.62 387.46 262.15 386.57 262.91 386.44 263.45 386.46 264.04 386.77 266.55 386.77 267.14 386.62 267.64 385.09 268.44 385.04 268.82 385.04 269.04 385.23 269.7 385.32 270.19 385.33 270.6 385.17 272.31 385.68 274.77 385.65 275.5 385.45 276.29 383.85 278.18 382.58 278.92 378.84 280.55 378.15 281.16 371.94 282.76 370.65 282.58 368.2 283.08 365.38 284.28 363.36 285.82 362.13 286.96 361.44 287.46 359.85 288.16 357.06 288.71 355.33 289.26 354.91 289.31 354.54 289.17 353.6 288.23 353.06 287.82 352.53 287.75 351.9 287.85 349.15 288.53 348.5 288.78 347.91 289.1 347.5 289.73 346.78 291.38 346.47 291.67 344.5 292.73 343.84 293.18 343.33 293.79 342.9 294.89 342.66 295.24 342.2 295.71 341.63 296.14 341.03 296.51 340.37 296.58 339.16 296.54 338.77 296.68 338.82 297.22 340.03 300.4 340.19 300.94 340.17 301.28 339.57 302.9 339.31 303.39 338.99 303.75 338.44 303.67 336.05 302.72 335.62 302.66 335.55 302.95 335.67 304.06 335.58 304.6 335.14 304.97 334.52 305.3 331.73 306.42 331.17 306.51 330.89 306.27 330.68 305.77 330.36 304.53 330.14 304.03 329.85 303.76 329.31 304.13 328.81 304.61 327.85 305.73 327.5 306.29 327.41 306.84 327.41 308.67 327.04 309.35 326.28 310.05 320.62 312.51 319.99 312.66 319.55 312.3 319.17 311.75 318.84 311.09 318.47 310.54 318.06 310.19 317.47 310.4 316.85 310.8 312.93 313.89 312.44 314.19 312.14 314.16 311.77 313.69 311.41 313.08 310.97 312.55 310.48 312.25 309.78 312.62 309.16 313.09 307.97 314.19 307.4 314.62 306.72 314.99 305.95 315.01 303.24 315.95 302.67 316.03 301.84 315.38 301.13 314.97 299.49 314.89 298.76 314.45 298.25 313.91 297.79 312.68 297.52 312.22 297.14 312.08 296.59 312.13 296.03 312.33 295.55 312.83 293.9 315.57 293.58 315.96 293.5 316.3 293.56 316.74 293.79 317.12 294.32 317.18 296.28 316.89 296.82 316.96 297.1 317.38 297.29 317.94 297.06 318.5 296.48 318.94 294.66 319.03 292.9 318.85 292.34 318.86 291.77 319.1 291.22 319.28 290.6 319 289.41 318.17 288.86 317.97 288.35 318.28 287.87 318.75 287.01 319.86 286.58 320.3 286.18 320.53 285.83 320.19 285 319.86 284.38 319.5 279.69 320.55 277.76 317.61 277.43 316.94 277.27 316.34 277.4 315.86 277.59 315.56 278 315.09 278.13 314.78 278.13 314.35 276.49 310.82 276.4 310.26 276.73 309.86 278.72 308.5 279.37 307.74 280.59 307.2 280.94 306.99 280.72 306.47 278.79 303.82 278.55 303.32 278.81 303.16 279.33 303.15 279.97 303.2 280.52 302.93 280.97 302.35 281.03 300.67 281.47 299.03 281.67 298.69 281.7 298.45 281.56 298.15 281.14 297.61 280.83 297.06 280.88 296.54 281.12 295.99 281.45 295.43 281.56 294.67 281.43 293.79 280.5 292.4 279.94 291.92 279.45 291.71 279.21 291.58 278.88 290.59 278.81 289.24 276.53 282.49 278.29 275.85 278.92 271.19 279.14 270.46 279.36 269.95 280.11 269.17 282.4 266.23 284.75 264.11 284.97 262.37 283.2 255.09 283.69 253.16 283.67 249.74 277.95 249.1 277.4 248.97 276.97 248.77 276.66 248.31 276.24 247.48 276.02 247.2 274.03 245.31 273.55 245.02 272.57 244.53 271.75 243.97 270.2 242.65 269.56 241.93 269.16 241.18 268.72 239.2 268.59 238.86 268.39 238.74 268.03 238.99 265.52 241.56 265.13 241.84 264.71 241.95 264.03 241.69 261.57 240.35 258.8 239.38 255.27 236.17 243.47 230.19 238.8 226.19 238.23 225.52 237.34 222.51 237.12 222.12 236.85 221.92 236.22 221.96 234.2 222.39 233.58 222.45 233.1 222.39 230.11 221.52 229.7 220.68 229.56 220.07 229.82 213.82 233.88 214.03 238.74 215.01 239.61 215.04 240.46 214.81 244.04 213.39 244.96 212.82 248.73 208.67 249.55 207.99 251.51 206.73 255.65 205.14 256.22 205.06 259.88 205.02 260.44 204.95 263.38 203.64 263.91 203.48 264.65 203.37 265.5 203.46 266.41 203.67 267.44 204.42 268.3 204.48 269.19 204.32 270.05 203.94 270.88 203.5 271.56 202.97 271.87 202.19 272 201.46 271.98 200.81 271.65 198.79 271.5 194.01 271.8 193.58 272.4 193.05 282.93 187.98 284.68 188.05 285.23 188 285.63 187.84 285.55 187.32 284.59 184.78 284.53 184.18 284.59 180.85 284.77 180.68 285.1 180.55 290.31 180.51 291.94 180.09 295.22 178.01 294.71 175.79 295.35 154.22 294.84 151.63 294.77 150.69 294.77 150.59 295.11 150.05 295.57 149.67 311.67 141.83 317.3 135.22 319.75 131.51 323.98 130.5 324.78 130.74 325.54 131.15 325.82 131.77 326.38 132.26 327.24 132.64 329.2 132.53 330.2 132.93 330.98 133.45 331.75 134.67 331.92 135.1 331.91 135.63 331.64 137.33 331.71 137.77 332.15 137.93 332.69 137.99 333.22 137.93 333.54 137.77 333.66 137.3 333.67 136.77 333.79 136.25 334.06 135.9 335.58 135.49 336.84 135.3 337.19 135.39 337.36 135.82 337.64 137.63 337.66 138.19 337.57 138.63 337.13 138.8 336.05 138.96 335.76 139.15 335.67 139.62 335.8 142 335.89 142.51 336.07 142.85 336.51 143.24 337.17 143.53 337.97 143.74 339.24 143.52 340.08 143.69 340.79 143.9 342.81 145.11 343.15 145.39 343.37 145.71 343.47 146.66 343.85 147.1 344.96 147.93 345.7 148.22 346.6 148.44 348.03 148.32 349.07 148.71 350.04 149.26 352.14 150.99 352.43 151.18 352.72 151.29 356.4 151.47 357.23 151.23 359.09 150.45 360.56 150.13 361.26 150.14 361.64 150.5 361.91 150.95 362.3 152.05 362.61 152.51 363.11 152.5 363.85 152.19 366.58 150.71 367.2 150.25 367.62 149.7 367.3 148.98 365.22 146.51 364.68 145.71 364.54 144.99 364.51 144.21 364.72 142.89 365.06 142.48 365.3 142.11 365.73 141.33 367.86 140.3 368.06 139.65 368.21 138.95 368.41 138.31 369.01 137.99 369.76 137.79 370.52 137.67 371.08 137.4 371.47 136.97 371.75 135.88 372 134.16 372 132.04 372.11 131.3 372.3 130.61 372.77 130.15 372.88 129.33 372.86 128.55 372.33 124.51 372.42 123.92 372.82 123.69 373.53 123.61 374.35 123.61 375.32 123.28 376.41 122.68 377.85 120.99 378.93 120.32 380.68 119.53 381.32 118.86 381.74 112.68 382.67 107.6 444.03 110.84 443.96 132.87 546.52 131.88 546.55 131.88 Z" id="NAM-3349" data-name="Otjozondjupa"/>
<path d="M 227.37 26.78 227.37 26.79 227.48 30.71 229.24 34.23 230.68 36.19 231.3 37.26 232.07 39.1 232.54 43.91 211.39 64.26 211.28 65.19 212.35 65.66 219.15 69.43 221.68 70.31 223.87 71.72 224.57 74.57 224.64 77.62 227.62 99.53 226.48 102.81 224.61 105.5 224.93 108.77 227.53 115.1 227.11 118.56 224.69 120.74 225.7 122.57 227.1 124.18 228.64 124.69 229.93 125.51 227.98 126.42 225.74 126.67 223.32 127.8 221.02 129.22 218.92 129.89 216.76 130.34 214.94 130.99 213.12 131.37 213.07 132.17 213.1 133.01 206.84 134.87 203.31 134.62 199.67 133.89 186.1 135.63 169.86 135.75 167.09 136.27 166.97 138.61 167.22 141.13 170.52 140.99 170.42 144.15 169.33 146.35 161.95 146.17 162.47 143.69 163.19 142.86 163.84 141.91 163.61 139.3 162.24 137.28 160.6 135.99 159.42 134.4 156.94 127.53 157.36 121.46 158.41 115.42 157.36 112.11 155.74 108.9 153.38 101.83 153.06 97.78 153.61 89.46 152.6 67.48 150.9 60.3 145.18 49.14 144.39 46.36 145.54 45.19 146.06 44.24 146.3 43.11 146.48 41.58 146.18 40.24 143.72 38.83 143.55 37.28 144.72 35.9 146.6 33.23 147.11 32.02 148.22 29.99 148.55 28.99 148.16 28.6 148.35 28.01 148.41 26.76 148.41 26.76 152.43 26.76 167.55 26.76 182.67 26.77 197.79 26.77 212.91 26.77 227.37 26.78 Z" id="NAM-3350" data-name="Omusati"/>
<path d="M 253.3 44.87 253.3 64.15 254.08 64.27 254.93 65.14 255.25 66.38 255.58 71.11 255.13 74.54 254.46 76.11 251.78 79.65 250.74 80.3 249.99 81.3 250.05 83.92 250.68 86.53 250.32 90.81 250.84 92.32 251.6 93.71 252.56 96.76 255.17 99.7 255.45 101.26 254.27 102.16 252.99 102.17 251.77 102.62 249.94 104.79 247.33 107.28 245.11 110.12 244.28 111.93 243.99 113.86 244.04 117.51 244.4 118.27 244.57 119.86 246.49 123.9 247.56 125.66 248.16 127.22 249.2 128.39 251.13 129.59 250.67 131.4 249.46 131.94 248.55 132.65 248.61 134.25 249.3 138.49 249.87 139.85 249.81 141.22 245.15 138.8 243.07 138.37 240.89 138.47 235.93 137.93 228.45 136.15 226.06 135.84 223.95 136.12 212.94 136.24 213.1 133.01 213.07 132.17 213.12 131.37 214.94 130.99 216.76 130.34 218.92 129.89 221.02 129.22 223.32 127.8 225.74 126.67 227.98 126.42 229.93 125.51 228.64 124.69 227.1 124.18 225.7 122.57 224.69 120.74 227.11 118.56 227.53 115.1 224.93 108.77 224.61 105.5 226.48 102.81 227.62 99.53 224.64 77.62 224.57 74.57 223.87 71.72 221.68 70.31 219.15 69.43 212.35 65.66 211.28 65.19 211.39 64.26 232.54 43.91 232.58 44.27 233.66 47.43 242.57 46.29 253.28 44.86 253.3 44.87 Z" id="NAM-3351" data-name="Oshana"/>
<path d="M 328.71 26.8 333.85 26.8 348.96 26.8 364.08 26.81 371.23 26.81 371.21 49.02 297.51 49.2 276.31 57.77 271.5 55.95 253.3 44.87 253.28 44.86 242.57 46.29 233.66 47.43 232.58 44.27 232.54 43.91 232.07 39.1 231.3 37.26 230.68 36.19 229.24 34.23 227.48 30.71 227.37 26.79 227.37 26.78 228.02 26.78 243.14 26.79 258.26 26.79 273.37 26.79 288.49 26.79 303.6 26.79 318.73 26.8 328.71 26.8 Z" id="NAM-3352" data-name="Ohangwena"/>
<path d="M 546.77 201.35 546.77 202.81 546.8 210.17 546.82 217.54 546.84 224.9 546.87 232.27 546.89 239.59 546.89 239.64 546.9 243.03 546.92 246.43 546.93 249.82 546.94 253.22 546.95 256.62 546.96 260.01 546.97 263.41 546.98 266.8 546.99 270.2 547.01 273.6 547.02 276.99 547.03 280.39 547.04 283.79 547.06 287.18 547.07 290.57 547.08 293.97 547.09 296.4 546.33 298.56 542.96 298.56 529.16 298.56 515.37 298.56 501.57 298.56 487.78 298.56 487.79 303.63 487.8 312.5 487.81 321.36 487.82 330.23 487.83 339.1 487.84 349.24 487.85 359.36 487.87 369.5 487.87 375.63 487.87 379.63 487.88 389.77 487.9 399.91 487.91 408.39 487.87 408.39 450.4 408.23 446.34 407.76 446.08 397.29 445.82 396.71 445.28 396.24 443.87 395.98 442.98 396 442.29 396.37 439.61 399.52 439.34 399.76 439.06 399.87 433.57 399.68 432.4 399.5 432.2 399.07 432.29 398.57 432.53 398.08 432.56 397.73 432.15 397.58 428.95 397.41 428.43 397.48 417.43 401.57 416.68 401.61 411.85 400.78 410.68 400.44 409.76 399.93 406.83 397.1 406.21 396.6 405.52 396.2 404.95 396.4 404.39 396.82 403.41 397.79 403.03 397.99 402.67 397.73 397.26 387.91 397.33 387.13 400.83 379.01 401.03 378.3 400.98 377.77 400.41 377.17 392.13 370.83 391.76 370.26 391.79 369.55 392.05 368.82 392.43 368.16 392.97 367.76 393.52 367.6 396.83 367.39 397.37 367.17 397.72 366.76 397.24 364.85 396.69 363.49 396.43 363.01 396.09 362.82 395.55 362.7 394.27 362.56 393.65 362.44 393.08 362.22 391.82 360.72 390.91 360.21 390.62 359.76 390.38 359.18 390.29 358.58 390.33 358.04 390.75 357.69 391.04 357.52 393.68 356.53 394.2 356.25 394.39 355.93 394.49 355.41 394.59 354.24 394.58 353.71 394.47 353.34 393.99 353.36 389.83 354.81 389.23 354.81 388.81 354.49 388.69 348.21 388.51 346.49 386.84 341.86 386.55 340.69 385.81 334.53 384.14 326.87 383.96 326.48 383.7 326.29 383.19 326.57 381.37 327.97 381.26 328.03 381.18 327.99 379.66 326.92 379.21 326.5 379 326.08 379.48 325.69 381.44 324.72 381.67 324.36 381.19 323.92 380.07 323.06 379.29 322.22 377.69 319.88 377.34 319.49 376.89 319.18 374.53 319.18 373.78 319.03 373.08 318.44 371.16 316.06 369.54 312.96 369.2 312.04 369.04 311.13 369.7 305.88 369.94 305.38 370.45 305.19 370.96 305.16 371.87 305.18 372.45 305.11 374.53 304.3 375.1 303.86 375.41 303.38 375.41 302.39 375.25 301.91 374.92 301.41 374.73 301.03 374.93 300.52 376.56 298.23 377.07 297.21 377.56 296.81 377.96 296.58 378.41 296.25 378.73 295.7 378.6 294.38 378.4 293.89 378.18 293.59 377.92 293.49 377.69 293.33 377.49 293.11 377.01 292.34 376.61 291.89 375.71 291.11 375.51 290.89 375.34 290.65 375.2 290.4 375.21 289.91 375.46 289.24 376.4 287.67 377.89 286.03 378.62 284.65 378.15 281.16 378.84 280.55 382.58 278.92 383.85 278.18 385.45 276.29 385.65 275.5 385.68 274.77 385.17 272.31 385.33 270.6 385.32 270.19 385.23 269.7 385.04 269.04 385.04 268.82 385.09 268.44 386.62 267.64 386.77 267.14 386.77 266.55 386.46 264.04 386.44 263.45 386.57 262.91 387.46 262.15 387.56 261.62 387.5 261.02 387.04 259.17 386.86 258.73 386.64 258.61 385.62 258.84 384.38 258.95 383.84 258.9 383.52 258.76 383.43 258.32 383.51 255.63 383.71 254.52 384.22 253.99 384.82 253.61 385.46 253.44 385.99 253.35 386.59 253.42 392.78 255.01 393.1 254.96 392.94 254.51 392.07 253.01 391.88 252.45 391.81 251.89 391.86 251.3 392.33 250.86 394.45 249.68 395.2 249.14 395.51 248.56 395.69 247.96 395.82 246.78 395.82 246.32 395.65 246.1 395.16 246.1 393.23 246.46 392.71 246.51 392.49 246.41 392.48 245.92 392.74 244.13 393.35 241.86 394.52 241.16 398.77 240.26 399.72 240.23 400.32 240.63 400.73 241.05 401.16 241.76 402.72 238.71 403.13 237.52 405 229.35 405.31 228.53 415.81 212.11 417.54 210.35 419.6 208.74 420.2 208.41 448.53 198.33 450.33 197.43 452.22 195.74 453.39 195.25 455.01 195.01 458.55 194.97 460.11 195.15 507.91 200.2 508.96 200.5 510.45 201.19 511.6 201.51 514.3 202.01 515.49 202.05 517.57 201.73 519.96 201.7 526.28 202.51 529.29 203.31 531.5 203.5 535.61 203.36 536.44 203.19 539.62 202.27 543.4 202.09 544.23 201.9 545.27 201.45 546.74 201.35 546.77 201.35 Z" id="NAM-3353" data-name="Omaheke"/>
<path d="M 547.19 60.79 547.59 81.57 547.59 81.58 547.6 81.59 546.52 81.63 546.52 83.3 546.52 85.71 546.52 88.11 546.52 90.52 546.52 92.93 546.52 95.34 546.52 97.74 546.52 100.14 546.52 102.55 546.52 104.96 546.52 107.36 546.52 109.77 546.52 112.17 546.52 114.57 546.52 116.98 546.52 119.38 546.52 121.79 546.54 129.16 546.55 131.88 546.52 131.88 443.96 132.87 444.03 110.84 382.67 107.6 371.75 106.95 371.21 49.02 371.23 26.81 379.2 26.82 394.32 26.82 397.47 26.82 397.93 26.86 398.02 27.22 398.23 27.77 398.61 28 399 28.3 399.96 30.53 400.07 31.13 400.24 31.26 401.65 31.66 403.67 35.43 403.86 36.08 404.64 36.49 407.72 38.94 407.91 39.37 408.2 40.41 408.52 40.95 409.08 41.48 410.17 41.99 410.74 42.37 414.12 45.78 415.29 47.27 416.1 47.94 418.39 48.47 423.65 50.98 431.34 52.34 436.32 52.1 438.34 51.34 439.61 51.08 440.27 51.1 442.02 51.45 444.66 51.26 445.59 51.85 454.95 54.53 465.06 54.4 468.42 53.67 469.77 53.54 470.98 53.84 471.51 54.9 472.04 55.33 473.27 55.86 474.63 56.28 475.56 56.35 475.86 56.04 476.54 54.94 476.92 54.7 486.23 54.7 488.44 55.9 490.5 56.6 491.08 56.68 494.51 56.35 496.12 56.37 496.89 56.26 497.73 55.9 498.16 56.35 499.03 55.63 500.44 55.28 502.01 55.35 503.4 55.9 505.45 54.26 506.08 54.66 506.9 54.61 508.87 54.26 509.55 54.5 511.85 56.35 513.37 55.98 514.84 56.59 516.17 57.72 517.31 58.94 517.9 59.4 519.93 60.37 521.64 61.58 522.38 61.94 523.87 61.56 526.19 61.45 528.32 61.65 529.26 62.14 529.69 62.63 530.67 63.04 531.63 63.19 532.07 62.95 532.51 62.43 533.51 62.69 535.29 63.55 536.56 64.66 538.08 64.54 539.83 63.92 541.76 63.55 542.58 61.99 547.19 60.79 Z" id="NAM-3354" data-name="Kavango"/>
<path d="M 371.21 49.02 371.75 106.95 382.67 107.6 381.74 112.68 381.32 118.86 380.68 119.53 378.93 120.32 377.85 120.99 376.41 122.68 375.32 123.28 374.35 123.61 373.53 123.61 372.82 123.69 372.42 123.92 372.33 124.51 372.86 128.55 372.88 129.33 372.77 130.15 372.3 130.61 372.11 131.3 372 132.04 372 134.16 371.75 135.88 371.47 136.97 371.08 137.4 370.52 137.67 369.76 137.79 369.01 137.99 368.41 138.31 368.21 138.95 368.06 139.65 367.86 140.3 365.73 141.33 365.3 142.11 365.06 142.48 364.72 142.89 364.51 144.21 364.54 144.99 364.68 145.71 365.22 146.51 367.3 148.98 367.62 149.7 367.2 150.25 366.58 150.71 363.85 152.19 363.11 152.5 362.61 152.51 362.3 152.05 361.91 150.95 361.64 150.5 361.26 150.14 360.56 150.13 359.09 150.45 357.23 151.23 356.4 151.47 352.72 151.29 352.43 151.18 352.14 150.99 350.04 149.26 349.07 148.71 348.03 148.32 346.6 148.44 345.7 148.22 344.96 147.93 343.85 147.1 343.47 146.66 343.37 145.71 343.15 145.39 342.81 145.11 340.79 143.9 340.08 143.69 339.24 143.52 337.97 143.74 337.17 143.53 336.51 143.24 336.07 142.85 335.89 142.51 335.8 142 335.67 139.62 335.76 139.15 336.05 138.96 337.13 138.8 337.57 138.63 337.66 138.19 337.64 137.63 337.36 135.82 337.19 135.39 336.84 135.3 335.58 135.49 334.06 135.9 333.79 136.25 333.67 136.77 333.66 137.3 333.54 137.77 333.22 137.93 332.69 137.99 332.15 137.93 331.71 137.77 331.64 137.33 331.91 135.63 331.92 135.1 331.75 134.67 330.98 133.45 330.2 132.93 329.2 132.53 327.24 132.64 326.38 132.26 325.82 131.77 325.54 131.15 324.78 130.74 323.98 130.5 319.75 131.51 317.3 135.22 311.67 141.83 295.57 149.67 295.11 150.05 294.77 150.59 294.77 150.69 294.07 150.13 290.55 148.36 286.81 147.43 283.26 147.38 272.34 145.85 264.42 143.59 261.07 143.25 256.92 142.21 249.81 141.22 249.87 139.85 249.3 138.49 248.61 134.25 248.55 132.65 249.46 131.94 250.67 131.4 251.13 129.59 249.2 128.39 248.16 127.22 247.56 125.66 246.49 123.9 244.57 119.86 244.4 118.27 244.04 117.51 243.99 113.86 244.28 111.93 245.11 110.12 247.33 107.28 249.94 104.79 251.77 102.62 252.99 102.17 254.27 102.16 255.45 101.26 255.17 99.7 252.56 96.76 251.6 93.71 250.84 92.32 250.32 90.81 250.68 86.53 250.05 83.92 249.99 81.3 250.74 80.3 251.78 79.65 254.46 76.11 255.13 74.54 255.58 71.11 255.25 66.38 254.93 65.14 254.08 64.27 253.3 64.15 253.3 44.87 271.5 55.95 276.31 57.77 297.51 49.2 371.21 49.02 Z" id="NAM-3355" data-name="Oshikoto"/>
<path d="M 781.92 36.88 781.99 36.93 782.67 37.86 783.6 38.53 784.16 38.56 785.27 38.22 785.87 38.13 786.08 38.33 785.69 39.33 785.69 39.74 786.05 40.19 786.36 40.42 786.79 40.5 787.48 40.51 787.64 40.73 788.71 41.65 788.91 41.76 789.4 43.49 789.51 43.77 790.05 43.89 790.47 44.2 790.77 44.61 790.92 45.01 791.44 44.34 791.86 44.31 792.73 45.19 792.91 45.53 792.84 46.28 792.93 46.62 793.19 46.87 793.85 47.2 794.17 47.42 794.93 48.39 795.37 48.58 796.37 48.63 797.18 48.81 797.98 49.28 798.63 49.94 799 50.68 795.13 49.98 792.76 49.95 790.81 51.82 788.87 52.6 787.05 52.66 786.49 51.45 784.85 52.43 784.11 52.54 783.6 51.85 782.71 52.23 782.23 51.99 781.84 51.48 781.22 51.08 781.59 50.24 780.94 50.34 780.66 50.63 780.46 51.03 780.02 51.45 779.63 51.65 775.29 53 774.15 53.09 773.13 53.34 771.75 54.45 770.55 54.7 770.18 54.89 769.82 55.72 769.32 55.9 768.77 55.99 768.26 56.19 767.82 56.44 767.51 56.68 765.92 58.62 763.9 59.86 763.02 60.62 760.04 64.03 759.83 64.16 759.64 64.49 758.81 65.43 758.62 65.78 758.02 65.92 755.31 66.19 754.56 66.37 752.55 64.58 752.45 63.66 752.17 63.32 751.78 63.15 751.34 62.75 750.33 60.88 749.61 60.25 748.3 60 746.29 59.91 745.42 60.22 744.46 61.14 742.79 63.96 742.23 64.36 741.7 64.25 740.68 63.74 740.04 63.55 738.8 63.4 737.63 63.55 735.55 64.55 732.73 67.85 730.75 69.22 728.6 69.6 728.12 69.83 726.42 71.4 725.96 71.74 724.28 72.44 723.57 72.94 723.29 73.24 723.07 73.64 722.8 73.46 722.52 73.29 722.21 73.22 721.87 73.28 719.81 74.67 719.63 76.7 718.69 77.55 716.96 78.69 716.23 79.32 715.17 80.83 714.49 81.5 713.56 81.77 708.02 87.51 707.14 88.03 705.92 88.24 704.52 89.81 704.13 90.12 703.87 90.27 701.77 90.96 700.73 90.99 699.97 90.38 699.5 87.91 698.57 85.39 698.05 84.58 698.88 83.35 698.33 82.11 696.41 80.12 696.91 79.17 696.58 78.61 695.96 78.15 695.64 77.51 695.39 76.81 694.79 76.55 693.99 76.42 693.19 76.1 692.87 75.64 692.02 74.64 691.14 73.92 690.52 74.5 690.01 74.44 689.48 74.26 689.16 74.09 689.08 73.79 689.19 72.79 689.16 72.44 688.8 71.84 687.02 69.83 686.35 68.38 685.67 67.49 685.51 67.17 685.43 66.76 685.51 65.36 685.32 65.17 684.89 65.12 684.45 65 684.27 64.58 684.27 63.78 684.19 63.39 683.85 63.13 683.09 62.75 680.86 62.66 676.79 62.99 671.71 63.41 664.74 63.99 659.59 64.94 654.62 65.87 649.65 66.79 644.68 67.71 639.7 68.63 634.73 69.56 629.76 70.48 624.79 71.4 619.82 72.33 614.84 73.26 609.87 74.17 604.91 75.1 599.93 76.02 594.96 76.95 589.98 77.87 585.02 78.79 580.04 79.71 579.04 79.9 578.03 80.09 577.03 80.28 576.02 80.46 574.9 80.5 573.79 80.55 571.02 80.66 568.25 80.77 565.47 80.88 562.71 80.99 559.38 81.12 556.05 81.25 552.73 81.39 549.41 81.51 547.6 81.59 547.59 81.58 547.59 81.57 547.19 60.79 548.03 60.58 553.47 59.16 554.43 59.57 555.41 59.34 556.42 58.91 557.49 58.72 558.34 58.88 560.75 58.72 561.7 58.95 564.37 60.37 567.73 61.51 569.48 62.34 570.44 63.55 570.78 63.66 571.88 63.36 576.13 62.58 590.91 59.86 605.7 57.14 620.49 54.42 635.28 51.7 647.32 49.42 659.34 47.14 671.37 44.86 683.4 42.59 688.33 41.66 690.73 41.21 692.79 40.82 693.9 40.79 695.65 40.45 698.18 39.95 700.71 39.45 703.23 38.95 705.75 38.46 708.27 37.96 710.79 37.46 713.31 36.96 715.84 36.46 718.36 35.96 720.89 35.47 723.41 34.97 725.92 34.47 728.45 33.98 730.97 33.48 733.49 32.98 736.01 32.48 737.76 32.14 738.83 32.06 739.93 32.22 743.05 32.32 743.7 32.68 744.18 32.47 746.64 31.8 747.68 31.66 748.75 31.85 751.24 32.71 753.01 33.02 754.12 33.55 755.62 33.81 756.09 34.14 756.46 34.55 756.97 34.91 757.91 35.25 758.43 35.32 758.99 35.28 759.61 35.02 760.5 34.24 761.15 33.89 761.47 33.49 761.87 33.08 762.45 32.9 765.1 32.9 770.13 33.67 770.44 33.8 770.73 34.07 771.13 34.34 771.75 34.47 773.65 34.39 777.7 35.18 779.27 35.88 780.02 36.93 781.22 36.4 781.92 36.88 Z" id="NAM-3356" data-name="Caprivi"/>
</g>
</svg>