<?xml version="1.0"?>
<svg xmlns="http://www.w3.org/2000/svg" version="1.2" baseProfile="tiny" width="800" height="549" viewBox="0 0 800 549" stroke-linecap="round" stroke-linejoin="round">
<g id="ne_10m_admin_1_states_provinces">
<path d="M 465.64 403.68 461.09 433.58 443.06 434.78 424.29 421.53 411.04 414.91 390.44 414.79 391.59 405.87 394.82 403.68 401.61 400.4 413.82 394.81 427.98 390.44 443.3 394.81 453.43 400.4 465.64 403.68 Z" id="HKG-5153" data-name="Central and Western"/>
<path d="M 498.31 431.96 476.18 432.57 461.09 433.58 465.64 403.68 484.29 403.68 494.95 409.39 507.1 411.59 503.79 420.43 498.31 431.96 Z" id="HKG-5154" data-name="Wan Chai"/>
<path d="M 587.01 446.8 557.89 434.78 515.93 431.47 498.31 431.96 503.79 420.43 507.1 411.59 494.95 409.39 484.29 403.68 497.42 392.62 509.62 386 523.21 391.13 536.22 394.81 544.98 403.68 553.96 401.49 564.9 405.87 575.95 424.58 587.01 432.41 587.01 446.8 Z" id="HKG-5155" data-name="Eastern"/>
<path d="M 461.09 433.58 476.18 432.57 498.31 431.96 515.93 431.47 557.89 434.78 587.01 446.8 578.25 456.71 583.55 469.95 590.23 482.04 583.55 484.28 593.57 510.88 575.95 514.17 571.46 508.58 560.52 499.71 560.41 484.86 555.92 468.45 546.24 461.02 537.95 467.41 546.24 469.95 546.24 480.94 540.6 482.04 530.81 493.15 540.6 507.49 536.22 517.45 541.75 527.47 525.05 530.75 522.75 508.58 527.36 505.3 523.44 498.45 508.59 505.3 502.02 501.9 508.59 494.3 498.68 488.77 505.25 479.85 502.02 472.14 489.7 469.95 491.32 457.91 473.35 468.85 467.82 476.57 464.48 476.57 461.26 468.85 458.96 458.84 446.52 452.27 423.61 451.24 413.82 446.8 408.06 435.69 405.99 429.13 399.31 418.07 390.44 414.79 411.04 414.91 424.29 421.53 443.06 434.78 461.09 433.58 Z" id="HKG-5156" data-name="Southern"/>
<path d="M 480.95 387.1 474.39 390.44 467.82 382.72 469.21 366.71 465.64 359.52 464.48 352.95 456.88 352.95 456.88 342.99 479.27 341.86 478.39 354.18 481.7 368.53 480.95 387.1 Z" id="HKG-5157" data-name="Yau Tsim Mong"/>
<path d="M 521.47 325.61 525.87 340.93 530.81 359.52 535.19 372.82 531.85 372.82 507.78 348.64 495.12 362.11 502.02 371.72 502.02 376.04 491.08 371.72 488.21 382.37 480.95 387.1 481.7 368.53 478.39 354.18 479.27 341.86 480.6 323.26 471.77 311.12 493.82 306.58 504.89 327.68 521.47 325.61 Z" id="HKG-5158" data-name="Kowloon City"/>
<path d="M 479.27 341.86 456.88 342.99 446.52 334.13 437.31 329.2 441.05 319.58 456.83 315.23 471.77 311.12 480.6 323.26 479.27 341.86 Z" id="HKG-5159" data-name="Sham Shui Po"/>
<path d="M 562.3 327.68 521.47 325.61 504.89 327.68 493.82 306.58 546.85 295.66 562.3 327.68 Z" id="HKG-5160" data-name="Wong Tai Sin"/>
<path d="M 562.3 327.68 573.35 346.45 565.62 372.95 575.65 394.02 569.27 400.4 553.96 386 530.81 359.52 525.87 340.93 521.47 325.61 562.3 327.68 Z" id="HKG-5161" data-name="Kwun Tong"/>
<path d="M 575.65 394.02 565.62 372.95 573.35 346.45 562.3 327.68 546.85 295.66 567.83 264.74 586.6 239.35 629.66 232.72 655.05 218.37 681.55 206.22 702.53 217.27 726.82 228.31 746.7 216.16 744.49 186.35 750.98 167.5 755.01 176.37 777.01 177.46 796.81 181.84 793.47 192.78 799 214.94 782.07 207.63 771.36 206.02 755.01 235.84 761.81 232.22 775.85 250.87 782.65 281.16 778.16 282.19 777.01 275.17 763.76 274.54 768.14 286.63 762.61 298.83 755.01 305.4 741.77 309.71 737.16 328.6 729.68 318.64 729.68 301.02 715.05 309.71 710.91 299.93 702.04 289.91 704.23 267.91 684.54 260.2 682.01 247.99 669.92 255.94 655.75 259.05 635.83 245.75 624.55 245.75 611.42 263.48 617.98 284.44 627.08 296.64 622.36 306.49 609.23 295.55 608.08 281.16 596.79 286.63 592.76 295.38 607.27 308.91 616.83 345.18 623.39 347.31 643.32 351.05 644.47 367.17 649.99 367.17 661.16 364.99 672.1 378.29 663.7 387.56 652.41 394.81 642.28 391.53 640.09 392.62 641.13 400.4 640.9 411.39 655.75 406.96 660.13 418.07 660.13 428.03 651.03 433.5 640.09 424.58 625.01 416.29 627.08 403.68 617.98 380.47 605.89 371.72 607.04 360.61 608.08 351.86 592.76 342.88 587.01 367.17 589.19 380.47 575.65 394.02 Z" id="HKG-5162" data-name="Sai Kung"/>
<path d="M 586.6 239.35 567.83 264.74 546.85 295.66 493.82 306.58 471.77 311.12 456.83 315.23 449.68 297.87 444.16 280.2 476.18 238.24 472.82 207.76 488.33 207.33 521.6 197.8 530.81 203.83 528.28 214.94 535.19 220.41 527.36 234.87 536.22 232.51 547.28 211.72 562.59 197.96 568.24 182.93 576.18 182.7 587.01 189.5 587.7 215.06 586.6 239.35 Z" id="HKG-5163" data-name="Sha Tin"/>
<path d="M 444.16 280.2 449.68 297.87 456.83 315.23 441.05 319.58 437.31 329.2 426.72 323.53 407.14 314.72 405.99 321.92 391.59 299.93 390.34 292.89 415.45 289.03 427.01 284.28 420.98 265.85 432.02 261.43 444.16 280.2 Z" id="HKG-5164" data-name="Kwai Tsing"/>
<path d="M 274.27 351.61 224.99 352.07 230.5 342.99 255.72 324.22 260.21 334.13 293.14 309.71 300.97 314.72 308.8 323.07 304.42 334.13 302.24 346.27 296.48 341.73 285.42 339.71 275.64 339.71 274.27 351.61 Z M 425.39 216.16 448.58 208.43 472.82 207.76 476.18 238.24 444.16 280.2 432.02 261.43 420.98 265.85 427.01 284.28 415.45 289.03 390.34 292.89 388.25 281.16 379.5 275.63 369.14 285.3 343.12 281.16 341.96 285.53 330.79 285.53 326.3 291 313.18 287.72 302.24 291 287.61 296.64 260.21 303.21 274.12 284.62 261.98 272.47 281.85 258.12 333.75 240.45 393.37 223.89 425.39 216.16 Z" fill-rule="evenodd" id="HKG-5165" data-name="Tsuen Wan"/>
<path d="M 281.85 258.12 261.98 272.47 274.12 284.62 260.21 303.21 252.38 298.83 252.38 291 229.23 291 219.67 283.81 206.66 280.01 198.25 262.39 192.84 261.29 189.62 251.27 180.75 260.31 195.26 272.52 167.39 275.63 153.12 286.63 133.08 276.72 126.4 276.72 110.05 266.76 115.58 250.18 104.64 234.87 85.41 220.59 103.02 206.65 133.08 204.93 147.7 195.08 175.86 209.54 214.5 227.2 280.75 227.2 281.85 258.12 Z" id="HKG-5166" data-name="Tuen Mun"/>
<path d="M 428.7 136.66 408.83 159.85 425.39 216.16 393.37 223.89 333.75 240.45 281.85 258.12 280.75 227.2 214.5 227.2 175.86 209.54 147.7 195.08 166.24 162.95 199.41 149.71 229.23 107.68 238.1 107.68 249.15 111.14 247.77 119.71 246.96 129.85 252.38 126.57 269.07 122.25 273.45 122.25 275.64 116.61 274.48 108.95 274.48 97.84 290.95 90.06 313.18 84.59 318.59 79.07 324.23 69.05 335.17 65.77 341.96 63.58 351.87 59.03 360.25 63.79 367.98 99.12 375.71 133.35 416.56 128.93 428.7 136.66 Z" id="HKG-5167" data-name="Yuen Long"/>
<path d="M 428.7 136.66 416.56 128.93 375.71 133.35 367.98 99.12 360.25 63.79 351.87 59.03 347.72 49.93 360.59 42.82 384.58 42.82 392.47 50.72 396.86 52.48 413.53 37.56 426.7 35.8 441.61 37.56 448.92 18.11 460.33 5.82 476.27 1 490.16 11.97 514 11.97 543.48 13.49 556.38 12.51 563.28 11.99 552.69 24.89 545.55 32.83 535.19 42.68 528.28 42.68 527.36 57.94 539.56 54.65 540.6 49.24 557.18 44.87 562.71 39.22 573.65 20.45 579.18 19.36 583.55 23.79 591.38 19.36 595.76 23.79 589.54 35.65 597.95 33.75 607.04 41.58 606.35 51.2 613.26 55.29 624.55 49.24 627.08 54.65 627.08 63.58 624.08 74.98 634.68 75.67 640.44 84.13 653.56 90.06 693.29 79.07 702.04 74.57 676.03 93.6 651.74 104.64 630.76 100.23 597.64 103.54 566.72 104.64 553.47 92.5 534.7 91.39 513.72 101.33 489.43 113.48 481.7 110.16 465.14 113.48 462.93 124.52 428.7 136.66 Z" id="HKG-5168" data-name="North"/>
<path d="M 702.04 176.37 708.61 188.29 716.21 179.65 723 200.55 729.68 199.46 728.64 174.99 740.39 146.43 751.67 155.18 750.98 167.5 744.49 186.35 746.7 216.16 726.82 228.31 702.53 217.27 681.55 206.22 655.05 218.37 629.66 232.72 586.6 239.35 587.7 215.06 587.01 189.5 609.23 189.5 612.34 196.87 609.23 210.4 616.83 219.32 622.36 204.93 640.09 196.17 622.36 170.73 640.09 157.54 657.94 152.99 656.79 140.96 689.26 119.71 691.1 126.57 699.16 128.12 691.1 142.05 706.19 145.62 709.53 167.39 702.04 176.37 Z M 472.82 207.76 448.58 208.43 425.39 216.16 408.83 159.85 428.7 136.66 462.93 124.52 465.14 113.48 481.7 110.16 489.43 113.48 513.72 101.33 534.7 91.39 553.47 92.5 566.72 104.64 597.64 103.54 630.76 100.23 651.74 104.64 676.03 93.6 702.04 74.57 705.38 82.41 678.78 102.27 663.35 115.51 646.65 122.25 628 129.85 611.42 140.96 604.85 150.81 590.23 159.73 579.18 159.73 558.33 134.22 538.41 137.68 530.81 133.13 527.36 139.87 529.66 151.9 536.22 155.18 538.41 165.14 528.28 162.95 527.36 156.45 517.34 150.81 500.87 152.99 495.35 159.73 468.17 164.97 480.95 171.82 496.5 181.84 514.46 193.12 521.6 197.8 488.33 207.33 472.82 207.76 Z" fill-rule="evenodd" id="HKG-5169" data-name="Tai Po"/>
<path d="M 397.35 485.03 409.1 496.95 419.12 493.15 419.12 501.9 409.1 508.58 426.72 507.43 442.95 507.43 449.98 510.88 433.62 521.48 427.98 528.56 436.85 546.12 425.56 546.01 388.02 548.42 392.63 536.16 392.63 493.15 378.7 493.38 381.69 484.28 382.15 465.34 391.48 468.8 397.35 485.03 Z M 274.27 351.61 273.1 361.76 249.15 358.42 249.15 377.19 262.51 371.78 256.06 389.97 257.9 424.58 237.06 424.58 224.62 420.09 241.44 442.25 220.48 457.68 252.38 477.66 231.42 493.15 205.62 504.32 203.78 494.3 203.78 463.27 187.43 463.27 173.96 463.27 154.27 463.27 129.85 482.04 120.07 482.04 115.58 488.77 129.85 492.06 129.85 500.75 116.73 508.87 98.53 510.31 81.26 494.3 79.07 484.28 66.98 487.68 52.47 497.47 31.86 513.99 13.9 520.1 3.65 509.04 1.81 490.56 1 475.47 3.65 467.59 17.81 467.59 17.81 453.54 28.52 450.89 28.52 442.02 19.77 435.69 19.77 435.63 20.46 435.17 32.9 426.19 42.92 418.36 43.84 415.88 56.85 413.7 66.98 403.68 79.07 384.79 105.67 384.79 120.07 386 129.85 395.91 144.36 390.44 177.3 372.82 198.25 377.19 208.16 361.71 220.48 359.52 224.99 352.07 274.27 351.61 Z" fill-rule="evenodd" id="HKG-5170" data-name="Islands"/>
</g>
</svg>