<?xml version="1.0"?>
<svg xmlns="http://www.w3.org/2000/svg" version="1.2" baseProfile="tiny" width="800" height="659" viewBox="0 0 800 659" stroke-linecap="round" stroke-linejoin="round">
<g id="ne_10m_admin_1_states_provinces">
<path d="M 560.52 332 558.28 327.85 557.84 326.45 565.6 324.15 574.93 321.39 577.53 311.3 583.76 308.95 591.79 311.23 600.21 305.77 604.62 299.56 611.28 296.82 614.33 299.27 620.79 307.14 620.78 307.15 608.73 314.65 613.81 323.44 579.09 327.45 560.52 332 Z M 777.3 279.93 780.62 283.75 785.01 295.19 784.12 299.45 777.9 297.52 773.9 296.75 769.9 294.43 758.33 285.55 750.33 282.85 739.21 281.33 730.33 281.73 730.66 270.73 730.66 270.7 735.3 264.34 742.62 263.49 759.29 267.83 765.86 270.08 769.14 272.53 773.99 276.12 777.3 279.93 Z" fill-rule="evenodd" id="KWT-1663" data-name="Al Asimah"/>
<path d="M 620.93 338.13 627.25 351.18 631.78 374.51 565.7 384.46 565.23 366.62 559.02 357.57 550.77 350.36 552.55 333.02 560.52 332 579.09 327.45 613.81 323.44 620.93 338.13 Z" id="KWT-1664" data-name="Al Farwaniyah"/>
<path d="M 631.78 374.51 658.17 372.93 661.83 372.5 665.41 381.01 671.2 389.14 673.45 397.66 683.81 454.91 691.19 468.97 712.13 496.48 718.46 501.78 734.62 506.5 735.85 512.82 734.07 521.09 733.53 529.53 737.01 537.8 748.5 552.05 750.96 557.14 755.33 562.97 765.21 566.64 782.53 569.92 778.43 576.38 776.69 583.8 777.13 591.47 779.66 598.59 773.31 594.7 771.05 592.89 770.54 596.2 770.95 598.34 772.83 599.93 776.79 601.72 773.65 605.29 771.67 606.32 770.02 605.72 768.25 604.33 765.38 604.33 765 613.12 768.86 615.2 774.6 612.64 779.66 607.46 780.82 611.77 782.53 631.96 784.04 637.14 787.45 642.78 794.01 650.47 798.87 655.03 799 655.13 724.44 655.8 649.77 656.47 575.1 657.17 500.45 657.86 477.9 658.06 474.41 646.92 466.56 639.69 456.92 633.71 447.96 626.43 441.6 616.92 435.87 604.52 431.83 591.72 430.23 569.09 428.28 558.5 404.99 502.47 384.76 472.14 396.51 465.89 417.01 453.34 510.93 441.6 520.65 438.74 522.28 433.14 526.6 376.64 550.77 350.36 559.02 357.57 565.23 366.62 565.7 384.46 631.78 374.51 Z" id="KWT-1665" data-name="Al Ahmadi"/>
<path d="M 661.83 372.5 658.17 372.93 631.78 374.51 627.25 351.18 620.93 338.13 638.24 338.13 656.66 331.81 656.34 333.81 655.93 341.55 657.32 353.93 661.83 372.5 Z" id="KWT-1666" data-name="Mubarak Al-Kabeer"/>
<path d="M 696.52 49.15 761.93 130.18 768.25 145.35 765.38 164.11 757.45 176.93 744.53 191.23 729.09 203.51 713.43 210.25 710.63 209.99 695.29 208.55 685.14 197.74 670.48 167.24 653.01 139.75 650.55 137.18 648.23 134.76 639.82 130.42 636.61 126.04 636.61 126.03 644.64 121.1 649.53 118.85 658.62 113.33 663.27 112.24 664.84 109.81 667.3 95.32 660.64 93 657.12 92.5 653.08 92.67 653.01 92.69 657.18 86.45 663.13 86.91 673.35 92.69 678.1 93.34 683.91 92.96 687.19 90.14 684.8 83.58 692.38 80.66 698.6 77.33 700.17 73.59 693.44 69.5 693.41 69.49 688.62 68.92 683.09 71.16 679.09 69.49 677.24 66.72 676.22 62.31 675.81 57.87 675.81 57.85 676.22 54.93 676.22 54.89 668.8 54.98 667.78 54.24 666.27 53.13 668.02 50.06 673.35 46.57 679.4 44.37 685.34 44.06 691.08 45.65 696.52 49.15 Z M 630.32 54.41 627.21 54.89 624.1 53.29 621.78 50.45 621.17 47.75 626.97 44.27 635.59 34.25 640.23 31.96 656.64 29.95 656.67 29.95 663.13 30.49 661.83 34.83 650.38 40.54 647.68 42.78 643.62 47.51 641.77 49.15 630.32 54.41 Z M 557.84 326.45 558.28 327.85 560.52 332 552.55 333.02 550.77 350.36 526.6 376.64 522.28 433.14 520.65 438.74 510.93 441.6 417.01 453.34 396.51 465.89 384.76 472.14 379.62 464.44 379.58 464.43 379.36 464.39 379.32 464.39 355.88 461.66 314.09 456.83 272.25 451.99 230.41 447.16 188.62 442.34 141.64 437.22 94.79 432.13 47.92 427.05 1 421.96 13.19 410.03 76.34 348.2 102.64 309.51 129.55 283.71 135.8 275.49 148.26 246.95 179.64 201.63 187.84 185.86 188.88 181.63 190.49 168.94 192.66 162.9 208.02 137.93 243.74 58.66 258.1 40.84 280.11 27.86 347.77 3.56 371.94 1 480.44 1 504.49 5.06 595.43 44.74 598.41 51.78 602.78 58.17 606.88 66.36 608.76 75.23 608.66 90.81 609.99 100.75 615.42 114.59 626.39 134.74 639.28 150.17 650.38 149.76 657.59 168.57 667.3 187.32 685 209.53 693.24 226.08 691.49 234.6 682.15 235.79 664.94 229.26 656.12 224.56 653.36 220.7 645.13 219.64 634.87 217.73 627.28 216.59 602.79 220.17 590.38 229.52 579.73 238.86 553.96 251.37 536.24 265.8 526.96 278.64 518.11 288.77 499.01 296.64 497.25 303.24 493.27 309.47 502.63 310.19 518.23 307.76 529.81 305.75 539.16 302.6 548.95 299.44 554.76 302.51 542.78 309.55 542.81 314.59 540.18 320.42 550.47 326.56 557.6 326.52 557.84 326.45 Z" fill-rule="evenodd" id="KWT-1667" data-name="Al Jahrah"/>
<path d="M 656.66 331.81 638.24 338.13 620.93 338.13 613.81 323.44 608.73 314.65 620.78 307.15 620.79 307.14 620.79 307.14 621.68 308.26 627.86 313.14 632.13 314.44 643.84 317.98 659.37 315.21 656.66 331.81 Z" id="KWT-3506" data-name="Hawalli"/>
</g>
</svg>