<?xml version="1.0"?>
<svg xmlns="http://www.w3.org/2000/svg" version="1.2" baseProfile="tiny" width="800" height="1499" viewBox="0 0 800 1499" stroke-linecap="round" stroke-linejoin="round">
<g id="ne_10m_admin_1_states_provinces">
<path d="M 625.06 519.97 622.36 531.95 622.36 541.56 615.5 558.03 618.24 575.88 612.75 588.24 619.91 596.19 614.13 610.21 604.51 617.07 607.26 622.57 618.24 628.06 620.99 637.67 616.87 648.65 603.14 648.65 596.28 651.4 603.14 659.64 612.75 670.62 614.13 681.61 600.4 689.84 586.67 692.59 582.55 707.69 582.55 729.66 588.04 746.14 597.65 770.85 597.65 791.45 588.04 794.19 586.67 810.67 567.44 816.16 571.56 836.76 561.95 836.76 557.83 861.47 539.98 860.1 531.74 853.23 523.51 858.73 508.12 861.58 509.14 859.01 509.43 856.25 509.43 855.61 509.25 854.73 508.95 853.68 508.71 852.41 508.56 845.7 508.68 844.43 509.05 843.68 510.31 842.04 510.74 841.06 510.91 840.24 510.91 839.52 510.6 837.4 510.62 834.8 510.81 833.88 511.04 833.17 512.56 830.73 513.32 829.17 513.61 827.99 513.75 826.62 513.93 825.89 514.26 825.35 515.74 823.7 517.61 820.94 518.03 820.06 518.31 819.26 518.65 817.6 519.41 810.45 519.44 809.06 519.16 806.9 519.12 803.05 518.49 801.38 518.34 800.56 518.27 799.47 518.46 796.26 518.39 795.36 518.2 794.81 514.65 788.17 514.41 787.31 514.22 785.84 514.27 784.95 514.43 784.19 516.27 780.68 516.78 779.27 516.93 778.17 516.95 776.79 517.08 776.03 517.34 775.41 517.9 774.63 518.34 773.83 518.8 772.77 518.97 771.68 519.31 766.4 519.22 763.92 519.53 760.23 519.46 759.56 518.65 756.55 518.27 753.9 518.02 745.45 519.41 738.15 523.07 728.17 523.51 726.26 523.6 724.85 523.49 723.46 524.39 714.29 524.29 710.35 524.45 709.38 524.58 708.76 524.77 708.42 525.38 707.61 527.16 706.14 527.61 705.56 528.14 704.62 528.26 703.85 528.24 703.12 528.09 702.55 527.83 702.03 526.94 700.61 526.74 699.83 526.64 698.76 526.64 695.74 526.47 694.93 524.78 692.11 524.46 691.4 524.34 690.43 524.58 683.66 524.55 683.43 524.43 683.1 524.09 681.19 524 679.04 524.19 677.82 524.45 676.78 524.85 675.8 524.87 675.1 524.75 674.59 524.11 673.52 523.66 672.45 523.14 669.97 522.76 668.81 521.95 667.33 521.76 666.74 521.36 661.9 521.18 661.31 520.89 660.84 520.5 660.48 519.99 660.19 518.31 659.5 517.34 658.91 516.9 658.57 515.38 657.71 514.94 657.37 514.6 656.74 514.37 656.19 513.92 653.85 517.52 649.09 520.43 643.88 520.75 642.67 520.45 641.37 520.36 640.54 520.41 639.27 520.67 638.54 520.99 638.01 522.22 636.89 523 635.94 523.29 635.14 523.37 634.43 523.32 632.69 523.51 631.24 523.8 630.46 524.16 629.92 524.51 629.67 524.8 629.51 525.28 629.34 525.82 629.19 526.48 629.14 527.13 629.22 527.88 629.19 528.68 628.97 529.96 627.85 530.5 627.05 530.82 626.25 531.33 622.9 531.57 618.9 531.94 617.25 532.42 616.69 533.63 616.32 533.95 615.85 534.14 615.22 534.14 612.71 534.43 611.25 534.82 610.53 535.3 610.03 536.45 609.22 537.17 608.54 537.3 607.94 537.22 606.55 537.49 605.47 537.56 604.75 537.42 604.15 536.94 603.89 534.89 603.67 534.38 603.28 534.04 602.67 533.85 601.62 533.97 600.92 534.26 600.38 535.7 599.28 536.32 598.56 536.69 597.66 537.76 593.05 538.07 592.19 538.41 591.55 539.47 590.53 540.25 589.6 541.61 587.61 542.17 586.5 542.46 585.62 541.91 583.69 541.84 582.55 542.03 581.89 542.39 581.38 543.24 580.69 543.92 579.85 546.27 575.68 546.78 574.19 546.95 573.12 546.74 572.55 546.51 572.02 546.27 571.34 546.06 570.46 545.94 569 545.72 568.15 545.43 567.5 545.23 566.76 545.14 565.73 545.26 563.9 545.09 562.95 544.73 562.35 544.17 562.11 542.81 561.93 541.37 561.98 540.65 561.93 540.01 561.79 539.44 561.57 537.56 560.34 535.99 558.81 533.51 555.38 533.44 554.87 533.37 552.13 533.08 551.13 532.62 550.41 532.13 549.87 532.06 549.34 533.29 545.8 533.33 544.85 533.1 544.17 532.64 543.85 531.6 543.32 531.04 543.1 530.55 542.82 530.13 542.47 529.82 542.02 529.33 540.97 529 540.51 528.61 540.12 528.17 539.8 527.67 539.51 527.22 539.07 526.84 538.47 526.52 536.52 526.3 535.86 526.01 535.39 525.63 534.99 524.84 534.4 524.29 533.89 523.97 533.52 523.71 533.05 523.34 531.91 523.05 531.42 522.71 530.99 522.34 530.61 521.66 529.74 520.02 528.27 519.39 527.35 518.87 526.01 518.58 524.92 518.68 524.1 518.95 523.33 519.46 522.39 519.58 521.62 519.43 517.62 519 514.9 518.66 513.73 518.2 512.66 516.56 509.71 516.39 509.13 515.46 504.11 515.45 502.01 515.77 499.39 515.94 498.72 516.69 497.02 516.91 496.28 517.8 489.73 517.81 488.73 517.64 487.37 516.83 483.57 516.83 482.62 516.95 481.85 517.68 480.27 518.32 479.37 519.12 478.62 520.5 477.69 521.35 476.84 521.71 476.05 521.79 475.32 521.76 473.97 522.03 473.38 522.47 473.16 523 473.34 523.94 473.86 524.45 473.93 524.78 473.89 525.26 473.71 526.21 473.18 526.79 473.04 527.37 473.04 527.98 473.17 529.09 473.62 530.31 473.93 531.66 473.95 532.28 473.88 532.95 473.92 533.5 474.13 534.52 474.72 535.06 474.92 535.67 475.06 538.41 475.21 539.12 475.17 539.71 475.02 540.28 474.81 540.81 474.55 541.37 474.35 543.32 473.97 543.9 473.76 545.41 472.96 545.99 472.76 551.26 471.87 552.61 472.01 553.24 472.16 553.9 472.2 554.56 472.14 555.75 471.92 556.33 472.01 556.86 472.22 557.33 472.52 558.58 473.6 560.28 475.73 560.69 476.1 562.13 476.98 562.95 477.72 563.47 477.99 564.03 478.21 566.03 478.59 566.55 478.84 566.93 479.24 567.13 479.81 567.27 481.93 567.49 482.45 567.81 482.79 568.31 482.84 569.38 482.52 570.07 482.49 571.45 482.52 573.99 482.07 574.6 482.12 575.14 482.32 575.99 482.91 577.22 483.99 580.24 487.88 582.18 489.06 583.27 489.53 585.65 490.29 587.79 491.3 589.65 492.54 590.42 493.33 590.69 493.81 591.03 494.99 591.33 495.46 591.78 495.8 592.74 496.38 593.14 496.72 593.37 497.16 593.61 498.79 593.85 499.31 594.46 500.24 594.72 500.74 594.87 501.36 595.09 504.03 594.97 505.24 595.04 505.85 595.23 506.39 595.54 506.86 595.89 507.26 597.12 508.37 597.35 508.86 597.49 509.44 597.46 510.06 597.3 510.66 596.84 511.76 595.11 514.64 594.63 515.69 594.29 516.9 594.21 517.6 594.21 519.02 594.46 520.27 594.86 521.43 595.86 523.46 599.36 528.5 599.77 528.88 600.26 529.18 600.86 529.34 601.51 529.32 602.12 529.18 602.63 528.94 603.6 528.35 604.48 527.67 606.52 525.83 615.84 519.58 616.38 519.36 616.98 519.18 617.63 519.12 618.95 519.18 620.83 518.87 621.47 518.92 623.75 519.75 624.38 519.9 625.06 519.97 Z" id="MDG-5860" data-name="Alaotra-Mangoro"/>
<path d="M 493.65 892.22 493.56 897.74 493.25 899.75 492.75 900.81 491.61 903.93 489.8 910.97 489.39 913.78 489.85 922.81 490.11 923.77 490.43 924.21 490.83 924.6 491.13 925.07 491.81 926.7 492.18 927.11 492.61 927.45 494.38 928.08 494.9 928.35 495.38 928.68 496.53 929.86 496.96 930.2 497.97 930.79 498.37 931.16 498.7 931.59 499 932.07 499.38 932.56 499.87 932.99 500.58 933.41 490.55 942.48 482.32 945.23 480.94 960.33 479.57 967.19 471.33 968.57 465.84 974.06 464.47 991.91 450.74 990.54 446.62 983.67 438.38 980.92 420.53 987.79 412.29 998.77 398.56 998.77 383.46 989.16 372.47 974.06 369.73 965.82 360.12 968.57 351.88 965.82 342.27 969.94 332.66 978.18 324.42 986.42 309.32 990.54 295.59 997.4 281.01 997.43 281.27 996.87 281.45 996.31 281.58 995.75 282.4 985.81 282.73 984.56 282.71 983.56 282.51 982.18 281.74 979.58 281.47 978.21 281.41 977.18 281.54 975.86 281.5 974.54 281.57 973.9 282.27 970.74 282.47 970.17 283.07 969.19 283.32 968.66 283.51 968.06 283.71 965.94 283.85 965.28 284.09 964.71 284.48 964.31 285.02 964.07 287.16 963.83 287.78 963.64 288.22 963.3 288.54 962.83 288.66 962.21 288.71 961.52 288.27 956.32 285.45 944.67 285.4 943.7 285.6 943.14 285.84 942.61 286.02 942.02 286.28 940.7 286.43 938.68 286.58 938.19 286.74 937.83 287.81 936.15 288.03 935.58 288.17 934.95 288.22 933.54 288.17 932.84 287.25 928.52 287.21 927.87 287.28 927.21 287.62 926.01 288.09 924.92 288.26 924.31 288.26 923.44 288.1 922.38 286.19 914.85 286.06 913.97 286.02 911.89 284.6 906.16 283.65 904.17 283.22 902.96 283.02 902.08 283.03 900.47 282.97 899.37 282.64 898.48 281.96 897.32 281.79 896.53 281.82 895.85 281.98 895.24 282.05 894.6 281.98 892.55 282.05 891.86 282.23 891.26 282.54 890.79 282.95 890.41 283.87 889.78 284.31 889.43 284.6 888.92 284.7 888.29 284.49 886.74 284.58 886.07 285.04 884.84 285.21 884.03 285.09 883.42 284.77 882.96 284.31 882.63 282.73 881.83 281.81 881.18 281.27 880.7 280.73 880.06 280.04 878.96 279.87 878.13 279.95 877.47 280.82 875.99 281.04 875.44 281.21 874.82 281.47 872.1 281.69 871.13 284.11 873.52 286.91 874.99 287.69 875.1 288.65 875.09 289.56 874.94 290.24 874.62 291.31 873.87 292.1 873.82 292.89 874.07 295.4 874.56 300.79 876.86 307.86 877.23 308.59 877.67 310.02 878.98 310.85 879.48 311.63 879.49 313.62 879.15 314.6 879.48 315.8 881.05 316.38 884.9 317.25 886.66 319.11 887.72 320.93 887.93 322.33 888.53 322.89 890.77 323.2 893.15 324.02 893.05 326.64 890.02 329.33 888.24 330.35 887.26 331.2 885.46 332.6 886.62 335.89 888.23 337.11 889.21 337.87 890.76 338.02 892.54 337.36 893.97 335.68 894.51 336.56 895.89 337.66 898.52 338.68 899.75 336.07 901.21 335.63 902.94 336.73 904.78 338.68 906.55 343.09 909.4 345.61 910.56 347.72 911.05 349.14 910.72 351.76 909.22 353.03 908.8 354.39 908.86 355.42 909.25 356.36 909.78 358.56 910.56 360.64 910.98 361.98 911.05 362.95 911.33 363.57 912.04 364.15 912.89 365 913.63 367.55 913.74 369.63 912.06 371.46 910.22 373.23 909.85 380.55 913.36 382.96 914.04 385.63 913.8 387.44 912.8 388.99 912.3 390.85 913.63 392.98 914.66 395.16 913.92 396.96 912.76 398 912.54 400.75 912.38 401.37 912.12 401.81 911.78 402.22 911.4 402.93 910.55 405.43 908.37 408.83 904.75 409.8 903.36 410.17 902.96 411.62 901.96 412.29 901.67 413.34 901.52 414.02 901.65 414.56 901.88 415.79 902.62 417.86 903.53 418.75 903.65 419.48 903.57 422.79 902.18 427.84 901.94 428.72 901.77 430.87 900.81 432.74 900.45 434.66 900.43 435.67 900.28 436.27 899.89 436.42 899.29 436.98 896.01 437.05 894.02 437.22 893.43 437.49 892.92 437.83 892.46 438.59 891.67 439.02 891.31 440.46 890.41 440.94 890.02 441.47 889.68 442.25 889.43 442.88 889.51 443.36 889.82 443.68 890.27 444 890.87 444.46 891.45 445.29 892.08 446.02 892.24 446.59 892.08 446.99 891.7 448.61 889.75 448.88 889.53 449.33 889.3 451.42 888.68 452.66 888.45 453.51 888.46 454.19 888.64 454.7 888.93 456.04 889.95 456.59 890.19 463.37 891.89 464.51 891.99 465.31 891.84 465.73 891.48 466.06 891.02 466.3 890.47 466.64 889.9 467.15 889.41 468.2 889.04 468.93 889.08 469.58 889.27 470.04 889.6 470.4 890.02 470.96 891.18 471.43 891.77 472.01 891.9 472.58 891.8 478.12 888.73 479.26 888.29 482.64 887.76 483.25 887.56 483.71 887.25 485.23 885.64 485.76 885.22 486.44 884.93 487.54 884.68 488.19 884.84 488.63 885.22 488.76 885.72 488.64 886.24 488.34 886.66 487.57 887.46 487.32 887.93 487.22 888.45 487.37 888.95 487.71 889.34 488.29 889.64 489.02 889.85 491.57 890.33 492.13 890.55 492.64 890.83 493.05 891.21 493.34 891.55 493.65 892.22 Z" id="MDG-5861" data-name="Amoron&apos;i Mania"/>
<path d="M 513.92 653.85 514.37 656.19 514.6 656.74 514.94 657.37 515.38 657.71 516.9 658.57 517.34 658.91 518.31 659.5 519.99 660.19 520.5 660.48 520.89 660.84 521.18 661.31 521.36 661.9 521.76 666.74 521.95 667.33 522.76 668.81 523.14 669.97 523.66 672.45 524.11 673.52 524.75 674.59 524.87 675.1 524.85 675.8 524.45 676.78 524.19 677.82 524 679.04 524.09 681.19 524.43 683.1 524.55 683.43 524.58 683.66 524.34 690.43 524.46 691.4 524.78 692.11 526.47 694.93 526.64 695.74 526.64 698.76 526.74 699.83 526.94 700.61 527.83 702.03 528.09 702.55 528.24 703.12 528.26 703.85 528.14 704.62 527.61 705.56 527.16 706.14 525.38 707.61 524.77 708.42 524.58 708.76 524.45 709.38 524.29 710.35 524.39 714.29 523.49 723.46 523.6 724.85 523.51 726.26 523.07 728.17 519.41 738.15 518.02 745.45 518.27 753.9 518.65 756.55 519.46 759.56 519.53 760.23 519.22 763.92 519.31 766.4 518.97 771.68 518.8 772.77 518.34 773.83 517.9 774.63 517.34 775.41 517.08 776.03 516.95 776.79 516.93 778.17 516.78 779.27 516.27 780.68 514.43 784.19 514.27 784.95 514.22 785.84 514.41 787.31 514.65 788.17 518.2 794.81 518.39 795.36 518.46 796.26 518.27 799.47 518.34 800.56 518.49 801.38 519.12 803.05 519.16 806.9 519.44 809.06 519.41 810.45 518.65 817.6 518.31 819.26 518.03 820.06 517.61 820.94 515.74 823.7 514.26 825.35 513.93 825.89 513.75 826.62 513.61 827.99 513.32 829.17 512.56 830.73 511.04 833.17 510.81 833.88 510.62 834.8 510.6 837.4 510.91 839.52 496.05 828.52 476.82 820.28 476.82 806.55 479.57 791.45 467.21 791.45 461.72 773.6 449.98 754.78 448.53 751.6 445.42 750.46 442.02 748.3 434.35 746.73 429.29 745.52 427.23 742.75 422.74 740.45 419.27 735.62 417.86 730.49 414.12 727.38 412.23 724.07 408.83 708.81 397.78 698.58 383.21 679.49 373.67 655.38 370.12 636.81 377.39 636.29 383.93 634.67 385.63 634.48 387.93 634.6 391.98 635.33 396.5 635.57 397.96 635.27 399.7 634.42 401.06 634.48 402.15 634.33 403.03 634.37 403.73 635.36 404.87 638.84 405.13 640.02 405.09 641.25 404.67 643.54 405.13 644.47 406.37 644.98 412.12 645.04 415.21 645.43 417.52 646.14 418.6 647 419.95 648.56 420.96 648.24 421.62 647.44 422.78 645.39 423.44 644.53 425.16 643.13 426.18 642.56 427.35 642.17 431.52 641.62 432.66 641.21 436.32 638.6 437.56 637.99 439.21 637.54 442.01 637.28 444.53 637.3 447.41 637.77 452.1 639.3 454.21 640.27 455.28 641.11 455.25 642.01 455.3 642.91 455.48 644.05 456.3 646.21 456.96 647.08 457.81 647.78 461.01 649.31 461.95 649.99 462.66 650.83 463.2 651.85 464.15 652.86 465.87 653.61 468.95 654.45 473.61 655.09 477.3 654.57 478.82 655.08 479.58 655.98 480.86 658.11 481.89 659.01 484.56 659.29 488.85 659.09 504.57 656.3 507.76 655.18 513.92 653.85 Z" id="MDG-5862" data-name="Analamanga"/>
<path d="M 726.73 563.09 724.72 565.53 723.76 562.54 724.32 559.7 726.95 554.24 727.42 552.74 727.66 551.32 727.77 548.25 728.13 546.38 729.04 544.92 731.52 542.2 738.93 531.04 739.33 529.46 739.52 527.74 739.89 526.04 740.83 524.62 742.17 523.6 746.41 521.24 745.95 523.89 741.99 531.8 739.1 540.28 733.74 551.56 729.83 556.62 726.73 563.09 Z M 698.39 329.53 704.97 335.15 707.15 337.67 708.1 339.29 710.55 342.62 711.85 343.88 712.88 344.45 713.48 344.28 722.42 340.78 722.95 340.53 724.09 340.47 725.74 340.61 731.12 341.62 732.34 341.65 732.92 341.45 734.55 340.56 735.21 340.31 736.24 340.16 736.86 340.31 737.42 340.57 737.85 340.9 738.61 341.69 740.69 345.73 747.96 354.93 748.27 355.58 748.34 356.19 748.13 356.69 747.78 357.09 747.34 357.42 746.86 357.71 744.04 358.89 743.36 359.28 742.99 359.58 742.59 359.93 741.89 360.76 742.08 361.64 742.76 362.91 745.04 365.48 745.94 366.82 746.44 367.87 746.35 368.5 746.15 369.05 744.97 370.92 744.74 371.45 744.21 374.01 744.11 375.36 744.16 376.02 744.26 376.65 744.8 377.76 748.73 383.57 749.24 384.67 749.26 385.34 749.14 385.96 748.99 386.56 746.98 391.45 746.83 392.06 746.74 392.72 746.84 395.5 746.79 396.16 745.69 400.39 745.67 401.1 745.81 401.92 747.59 406.09 749.04 410.49 749.43 413.9 749.82 415.64 750.42 417.19 751.01 418.26 752.01 419.67 752.42 420.56 752.63 421.4 752.88 423.42 757.15 436.2 757.86 436.77 757.87 436.78 755.46 437.09 750.07 432.54 748.04 430.18 747.22 426.92 746.7 421.3 746.47 420.5 745.16 419.99 743.61 418.8 742.18 417.35 741.24 416.14 740.51 414.68 739.94 412.95 739.62 411.11 739.68 409.34 740.28 407.55 740.99 406.1 741.12 404.66 740.05 402.99 739.36 402.36 738.72 402.03 738.02 401.89 737.06 401.85 736.55 401.51 733.43 397.53 733.15 396.12 733.75 392.74 733.8 390.81 732.93 385.26 733.09 384.6 733.48 383.96 733.62 383.21 732.93 382.26 732.4 382.09 730.36 381.89 727.49 383.33 723.49 383.76 716.41 383.76 712.84 384.94 710.4 387.11 704.14 395.67 704.25 398.51 706.61 404.78 706.74 406.32 706.61 407.84 705.47 410.84 705.19 410.84 705.91 412.21 707.18 413.38 708.4 414.82 709.28 418.49 710.83 422.1 711.58 427.63 712.68 431.04 714.3 433.99 714.59 435.24 714.23 437.09 713.43 438.94 710.08 444.65 709.09 447.8 709.04 451.46 709.77 455.1 711.18 458.19 714.04 460.86 721.19 463.34 724.35 465.29 726.86 468.83 727.32 471.97 724.99 482.23 724.8 486.49 725.4 490.29 727.37 491.94 728.49 492.64 728.77 494.3 728.34 498.53 727.88 500.11 727.77 500.94 727.77 504.73 727.27 506.13 721.48 515.84 718.32 519.39 713.43 523.19 713.62 528.22 714.41 530.53 716.08 532.91 718.38 534.97 720.74 536.16 723.35 536.57 726.27 536.28 722.95 538.08 719.48 539.35 713.05 540.28 710.32 541.71 704.81 542.2 702.62 542.65 700.85 543.85 699.46 545.54 692.15 559.75 687.05 573.55 681.44 586.29 680.36 594.11 680.86 595.76 684.17 600.9 686.23 611.48 670.42 612.96 666.3 621.19 666.3 629.43 652.57 633.55 636.09 634.92 620.99 637.67 618.24 628.06 607.26 622.57 604.51 617.07 614.13 610.21 619.91 596.19 612.75 588.24 618.24 575.88 615.5 558.03 622.36 541.56 622.36 531.95 625.06 519.97 630.45 519.04 631.23 518.77 632.2 518.27 632.61 517.76 632.65 517.19 632.41 516.73 631.37 515.46 630.79 514.5 630.67 513.83 630.69 513.09 631.06 512.03 631.59 511.33 632.25 510.67 633.29 509.85 634.19 508.92 634.65 508.17 635.79 505.53 637.18 503.27 637.73 502.03 638.01 501.01 637.94 499.53 638.04 498.61 638.48 497.26 639.04 496.67 639.7 496.38 640.38 496.35 641.01 496.23 641.62 496.06 645.94 493.95 648.15 492.3 649.83 489.85 650.15 489.12 650.29 488.55 650.42 487.32 650.93 486.08 657.44 474.57 657.95 473.32 658.19 472.31 658.09 471.69 657.92 471.08 657.24 469.54 657.19 468.97 657.29 467.7 657.25 467.05 657.14 466.41 656.9 465.9 656.54 465.48 656.08 465.16 654.92 464.73 653.66 464.45 649.33 464.24 645.93 463.7 635.69 459.08 635.24 458.76 634.85 458.39 634.67 457.71 634.8 456.77 636.33 453.31 637.32 449.47 637.35 449.22 638.45 446.01 639.23 444.44 639.87 443.6 642.57 440.8 644.12 438.78 645.55 436.05 645.82 435.1 645.91 434.34 645.79 433.02 644.48 426.74 643.76 424.43 642.83 422.33 642.22 421.38 640.86 419.67 640.59 419.17 640.42 418.58 640.35 417.93 640.35 417.23 640.55 415.92 641.91 411.14 643.76 397.69 643.76 397.03 643.68 396.43 643.49 395.89 643.27 395.37 643.05 394.68 642.93 393.85 643.1 392.44 643.41 391.68 643.76 391.09 645.55 389.53 646.73 388.12 647.24 387.21 647.47 386.42 647.41 385.9 647.15 385.56 646.73 385.56 645.69 385.88 645.11 385.9 644.6 385.71 644.12 385.43 643.66 385.09 643.17 384.87 642.57 384.83 641.45 385.13 640.79 385.21 640.08 385.19 639.43 385.05 638.85 384.85 638.34 384.58 637.9 384.25 637.56 383.83 637.03 382.84 636.86 382.24 636.74 381.61 636.6 380.23 636.42 379.66 635.87 378.68 635.67 377.97 635.67 377.06 635.96 375.57 636.38 374.86 636.89 374.38 638.15 374.08 640.98 373.74 642.22 373.42 642.85 373.32 643.51 373.32 644.75 373.5 645.43 373.5 646.08 373.4 646.67 373.23 649.77 371.69 652.15 370.97 653.2 370.5 653.7 370.06 654.19 369.52 654.82 368.66 655.31 368.12 655.82 367.7 656.8 367.12 657.34 366.89 657.92 366.7 658.56 366.58 659.26 366.55 660.67 366.7 661.5 366.65 662.46 366.4 665.48 364.5 666.66 364.07 667.25 363.77 668.25 362.72 668.71 362.34 669.26 362.13 669.86 362.02 670.48 362.07 672.29 362.6 672.95 362.66 673.7 362.49 674.53 361.87 675.01 361.27 675.35 360.68 675.76 359.56 675.84 358.9 675.88 358.2 675.79 357.54 675.62 356.95 675.35 356.45 674.72 355.57 674.48 355.06 674.39 354.41 674.39 353.62 674.48 352.68 674.82 352.13 675.32 351.84 675.93 351.81 676.49 351.94 678.17 352.57 679.5 352.83 680.92 352.88 681.71 352.72 682.42 352.42 683.34 351.82 683.78 351.22 684.09 350.58 684.34 348.54 684.28 347.15 684.17 346.52 684 346 683.7 345.27 683.6 344.76 683.6 344.06 683.77 343.26 684.72 340.81 684.89 340.21 685.04 338.85 684.97 337.49 684.28 335.09 684.24 334.35 684.26 333.5 684.53 332.31 684.92 331.73 685.47 331.49 685.98 331.62 686.47 331.87 688.99 333.6 689.33 333.78 689.8 333.97 690.42 334.12 691.08 334.22 691.76 334.24 692.49 333.95 693.2 333.34 695.13 330.65 695.54 330.29 696.01 329.98 696.54 329.75 697.57 329.46 698.39 329.53 Z" fill-rule="evenodd" id="MDG-5863" data-name="Analanjirofo"/>
<path d="M 331.42 1453.7 309.72 1462.43 295.95 1468.95 280.62 1476.71 269.64 1486.17 267.55 1487.55 265.25 1488.41 262.8 1488.59 257.28 1493.36 249.71 1494.86 218.53 1496.09 216.86 1496.44 215.25 1497.12 213.59 1497.59 211.72 1497.24 210.68 1496.01 209.65 1491.81 208.72 1490.02 205.38 1487.69 193.68 1483.7 190.4 1481.5 188.97 1480.01 187.61 1476.68 185.76 1475.14 177.66 1469.69 170.27 1466.44 165.94 1465.26 171.33 1448.39 190.55 1433.29 205.65 1419.56 209.77 1403.09 207.03 1383.86 207.03 1370.13 212.52 1357.78 215.26 1337.18 220.76 1322.08 227.62 1313.84 248.22 1309.72 252.56 1323.39 265.38 1322.81 280.48 1326.92 288.72 1333.79 283.23 1350.27 288.72 1362.62 301.08 1372.23 301.08 1384.59 296.96 1399.69 299.7 1410.68 299.7 1427.15 321.67 1438.14 331.42 1453.7 Z" id="MDG-5864" data-name="Androy"/>
<path d="M 358.63 1284.55 357.1 1286.16 356.5 1287.11 355.02 1290.31 352.69 1294.21 350.89 1298.58 350.6 1299.65 350.52 1300.57 351.01 1301.69 352.05 1303.08 356.11 1306.17 358.49 1307.59 359.38 1308.27 360.05 1309.17 361.08 1311.25 361.7 1312.19 362.54 1312.92 363.58 1313.48 364.72 1313.95 370.89 1315.34 379.14 1318.13 383.12 1320.52 383.85 1321.19 384.27 1321.88 384.37 1322.32 384.05 1324.33 384.39 1325.29 385.63 1327.03 386.05 1328.12 386.78 1331.73 387.8 1332.6 389.66 1333.03 395.75 1333.2 397.84 1333.85 398.97 1334.58 399.89 1335.39 400.65 1336.19 403.91 1340.7 404.36 1341.7 404.5 1342.83 404.26 1343.94 403.37 1346.14 402.88 1348.45 402.83 1350.35 403.01 1351.51 403.41 1352.57 404.24 1353.41 405.47 1353.9 407.45 1353.89 409.02 1353.67 412.17 1352.74 414.04 1351.83 414.92 1351.28 415.74 1350.53 416.26 1349.65 417.24 1347.53 417.85 1346.56 419.33 1344.9 419.94 1343.97 420.24 1342.89 420.12 1341.75 419.7 1340.72 417.97 1337.81 417.02 1335.72 416.68 1334.56 416.45 1333.37 416.47 1332.15 416.79 1331.01 417.56 1330.2 418.71 1329.9 421.93 1330.92 423.41 1331.16 426.4 1330.34 427.45 1329.72 428.08 1329 428.29 1328.19 428.27 1327.29 427.59 1323.96 427.62 1321.13 428.37 1320.45 429.97 1320.27 437.78 1322.32 439.31 1323.04 442.15 1324.84 456.2 1331.95 461.69 1335.98 461.89 1336.06 455.61 1351.99 454.76 1352.69 453.43 1352.29 451.09 1351.27 450.56 1351.93 452.06 1357.93 449.19 1375.64 440 1396.95 437.26 1400.91 436.95 1402.54 437.02 1405.95 436.24 1407.68 430.62 1411.6 429.1 1414.98 430.04 1422.04 428.8 1424.79 427.67 1423.55 426.92 1422.09 426.56 1420.47 426.55 1418.74 425.59 1420.29 425.49 1421.89 425.75 1423.59 425.8 1425.47 425.34 1427.61 424.53 1428.51 421.31 1429.65 419.45 1430.73 416.36 1433.35 411.1 1439.18 410.02 1439.76 409.66 1439.29 408.52 1436.83 407.25 1436.66 406.93 1436.77 406.84 1437.1 400.43 1441.32 398.03 1443.37 396.86 1444.12 393.65 1445.27 392.41 1446 390.86 1447.96 389.74 1448.81 388.86 1448.75 387.77 1448.37 386.63 1448.38 385.56 1449.56 384.52 1450.25 377.01 1452.13 375.3 1452.08 371.65 1451.12 360.41 1449.72 347.74 1450.05 331.42 1453.7 321.67 1438.14 299.7 1427.15 299.7 1410.68 296.96 1399.69 301.08 1384.59 301.08 1372.23 288.72 1362.62 283.23 1350.27 288.72 1333.79 280.48 1326.92 265.38 1322.81 252.56 1323.39 248.22 1309.72 253.71 1290.5 246.84 1276.77 226.25 1278.14 225.95 1264.91 239.17 1244.92 235.08 1225.42 235.11 1225.41 235.72 1224.22 237.33 1221.99 237.25 1212.82 239.55 1199.54 241.28 1197.45 262.76 1186.01 283.68 1178.09 288.99 1177.05 290.54 1176.95 297.61 1177.58 302.3 1177.45 304.88 1178.12 312.97 1182.77 315.45 1184.93 317.27 1184.55 319.68 1186.38 327.57 1191.04 328.18 1191.72 330.29 1194.63 336.5 1207.48 336.87 1208.56 337.92 1210.36 338.19 1210.99 338.44 1212.22 338.65 1212.84 338.75 1213.04 340.8 1215.94 341.11 1216.62 341.28 1217.21 342.21 1219.03 343.43 1220.78 345.3 1224.18 345.57 1224.86 345.96 1226.32 346.4 1226.91 347.03 1227.46 354.82 1231.35 355.86 1232.03 356.66 1232.99 357.15 1234.58 357.78 1239.76 357.73 1240.7 357.37 1241.7 356.27 1243.63 355.93 1244.72 355.93 1245.88 356.25 1246.96 356.71 1248.03 357.34 1250.27 357.35 1251.39 357.03 1252.44 356.52 1253.4 356.16 1254.39 355.62 1256.44 355.01 1257.3 354.12 1257.99 352.11 1259.13 351.37 1259.83 351.04 1260.76 351.28 1261.88 351.84 1263.27 352.3 1265.6 352.81 1266.73 354.92 1269.57 356.44 1271.21 357.29 1272.45 358.93 1276.44 359.97 1278.31 360.29 1279.73 360.45 1280.86 360.38 1281.71 360.19 1282.65 359.95 1283.18 359.39 1283.9 358.63 1284.55 Z" id="MDG-5865" data-name="Anosy"/>
<path d="M 281.01 997.43 279.56 999.94 278.85 1000.85 277.59 1001.94 277.25 1002.33 277.06 1002.88 277.03 1003.53 279.12 1014.64 279.22 1015.98 278.92 1018.72 278.73 1019.32 278.46 1019.85 278.15 1020.33 277.73 1020.68 277.18 1020.94 276.55 1021.1 274.44 1021.31 273.88 1021.54 273.37 1021.81 272.81 1022.05 271.55 1022.29 270.09 1023.14 269 1023.58 268.57 1023.94 268.27 1024.44 267.89 1024.86 267.3 1025.07 266.65 1025.2 266.08 1025.41 265.63 1025.76 265.29 1026.19 265.02 1026.7 264.58 1027.84 264.26 1028.31 263.82 1028.62 262.57 1028.92 262.04 1029.19 261.64 1029.56 261.33 1030.04 261.19 1030.64 261.33 1032.59 261.26 1033.25 261.11 1033.88 260.87 1034.43 260.58 1034.91 256.46 1039.44 256.21 1039.93 256.11 1040.56 256.19 1041.17 256.88 1044.15 256.92 1045.58 256.86 1046.27 256.23 1048.69 256.19 1049.29 256.29 1049.9 258.12 1057.13 258.19 1057.79 258.15 1058.42 258.03 1059.03 257.76 1059.53 257.35 1059.91 255.21 1060.86 254.92 1061.25 254.87 1061.68 254.88 1062.07 255.14 1063.17 255.29 1064.37 255.17 1064.93 254.92 1065.43 254.51 1065.82 254.04 1066.12 253.47 1066.34 252.22 1066.66 250.85 1066.88 247.1 1066.95 246.45 1067.05 245.86 1067.25 245.35 1067.52 244.88 1067.85 244.51 1068.27 244.19 1068.72 243.93 1069.25 243.73 1069.85 241.23 1083.7 240.92 1084.19 240.53 1084.6 240.02 1084.88 239.45 1085.09 238.19 1085.4 237.6 1085.61 237.08 1085.88 236.7 1086.28 236.38 1086.73 236.18 1087.3 235.84 1088.54 235.6 1089.08 235.19 1089.46 234.66 1089.72 230.16 1090.7 225.56 1090.7 224.2 1090.89 223.07 1091.24 222.61 1091.54 221.77 1092.27 221.45 1092.74 221.18 1093.23 221.59 1094.37 222.47 1095.91 224.87 1099.04 226.49 1101.6 227.08 1103.23 227.44 1103.96 227.73 1104.73 228.73 1109.64 228.75 1110.27 228.64 1110.87 228.17 1111.97 227.98 1112.56 227.9 1113.18 228.17 1114.08 228.71 1115.14 230 1117.11 230.45 1118.27 230.6 1119.2 230.41 1119.78 230.14 1120.29 229.77 1120.71 228.05 1122.1 227.88 1122.74 228.02 1123.66 228.59 1125.16 228.75 1126.14 228.76 1126.97 228.39 1128.15 228.07 1128.6 227.57 1128.87 226.19 1128.97 225.53 1129.09 225.07 1129.43 224.78 1129.92 224.27 1131.75 223.78 1132.81 223.59 1133.41 223.39 1134.77 223.34 1136.21 223.39 1136.99 223.56 1137.83 224.17 1139.66 224.29 1140.34 224.14 1140.88 223.81 1141.3 223.34 1141.62 221.59 1142.22 221.11 1142.53 220.77 1142.98 219.87 1145.15 219.8 1145.77 220.01 1146.96 220.04 1147.54 219.87 1148.08 219.49 1148.47 219.03 1148.81 217.37 1149.51 214.89 1150.19 213.74 1150.63 213.27 1150.97 212.89 1151.44 212.71 1152.04 212.59 1152.69 212.4 1153.27 212.11 1153.8 211.77 1154.25 211.38 1154.66 210.7 1155.56 206.04 1163.5 205.24 1165.89 205 1167.23 204.75 1170.13 204.39 1171.39 203.87 1172.43 200.77 1176.39 200.5 1176.91 200.27 1177.47 200.16 1178.09 200.17 1178.76 200.26 1179.48 201.24 1182.08 201.36 1182.7 201.43 1183.36 201.42 1184.06 201.28 1184.69 200.55 1186.24 200.38 1186.72 200.31 1187.12 200.21 1188.65 200.09 1189.16 199.92 1189.67 199.65 1190.2 198.98 1191.17 198.52 1192.28 197.35 1196.57 196.45 1198.8 196.38 1199.47 196.43 1200.2 196.76 1201.84 196.83 1203.32 196.93 1204.04 197.13 1204.72 197.51 1205.48 197.86 1206.02 198.37 1207.1 198.54 1207.68 198.85 1209.68 199.02 1210.37 199.32 1211.16 199.63 1211.69 199.93 1212.16 200.24 1212.5 201.16 1213.35 202.25 1214.59 205.5 1217.64 206.13 1218.03 206.99 1218.37 208.66 1218.63 209.72 1218.67 214.05 1218.15 214.73 1218.17 216.79 1218.47 217.49 1218.45 219.34 1218.05 219.95 1218.15 220.48 1218.48 220.81 1219.24 221.18 1220.57 221.77 1221.55 222.13 1221.97 222.69 1222.93 223.18 1224.73 223.39 1225.27 223.85 1225.73 224.49 1226.07 225.75 1226.18 228.17 1226.02 229.6 1226.18 231.55 1226.67 232.29 1226.7 232.98 1226.63 233.61 1226.47 235.08 1225.42 239.17 1244.92 225.95 1264.91 226.25 1278.14 246.84 1276.77 253.71 1290.5 248.22 1309.72 227.62 1313.84 220.76 1322.08 215.26 1337.18 212.52 1357.78 207.03 1370.13 207.03 1383.86 209.77 1403.09 205.65 1419.56 190.55 1433.29 171.33 1448.39 165.94 1465.26 154.35 1463.74 142.83 1463.16 126.66 1460.12 124.65 1459.11 123.02 1454.88 119.46 1451.21 118.65 1448.81 120.78 1449.62 122.69 1451.17 126.07 1454.76 128.26 1456.19 130.11 1456.25 131.04 1455.06 130.55 1452.61 128.8 1452.92 127.31 1452.12 124.51 1449.56 122.69 1448.46 121.03 1447.79 119.26 1447.46 117.16 1447.37 113.3 1445.93 106.68 1439.32 102.8 1437.51 99.31 1437.54 98.07 1437.25 89.33 1431.87 88.07 1429.49 87.37 1420.87 86.28 1417.23 78.33 1407.28 77.22 1403.7 78.28 1393.89 77.22 1390.23 76.11 1388.38 71.42 1383.67 70.88 1383.28 70.33 1382.79 69.74 1381.94 69.44 1380.96 69.1 1378.71 68.62 1377.82 64.98 1374.91 57.36 1370.14 54.03 1366.9 50.31 1359.09 48.5 1342.69 49.96 1323.84 48.04 1313.22 48.25 1312.18 49.22 1310.16 49.48 1309.08 49.35 1307.82 48.04 1304.58 47.12 1300.22 46.41 1298.24 45.04 1296.29 46.6 1294.03 46.38 1286.27 46.89 1282.81 49.32 1280.67 56.68 1277.67 58.58 1275.26 58.38 1273.49 56.9 1270.63 57.08 1268.59 58.77 1267.11 59.27 1266.36 59.95 1264.52 60 1263.61 59.64 1262.54 58.47 1261.03 55.54 1258.77 53.45 1256.12 48.79 1252 48.04 1251.59 47.34 1251.49 46.6 1251.31 45.73 1250.57 45.46 1249.97 45.04 1247.51 43.89 1243.69 43.43 1233.86 41.98 1225.67 40.49 1221.1 37.5 1218.07 30.01 1212.95 28.82 1211.37 27.02 1207.92 25.46 1206.55 23.45 1205.18 19.69 1201.29 17.4 1197.97 16.15 1195.6 15.66 1194.12 15.07 1189.6 13.69 1186.62 13.12 1180.9 11.82 1177.8 11.17 1173.9 10.63 1172.96 9.14 1171.1 8.55 1170.12 7.8 1167.57 7.74 1165 8.17 1159.95 7.04 1149.86 5.5 1144.58 2.9 1139.6 2.87 1138.51 2.97 1137.4 2.94 1136.35 2.2 1133.65 1 1131.11 1.28 1128.81 3.62 1127.11 6.61 1126.86 8.92 1128.88 9.64 1127.17 9.46 1125.3 9.02 1123.37 8.92 1121.39 5.17 1121.33 3.67 1116.95 3.62 1107.03 3.86 1105.81 4.93 1103.63 5.17 1102.51 5.17 1099.89 5.36 1098.79 5.79 1098.27 6.3 1097.9 6.67 1097.31 6.89 1097.25 7.36 1097.09 7.86 1096.82 8.17 1096.49 7.36 1093.51 7.53 1092.04 8.01 1090.72 8.75 1089.47 9.68 1088.32 10.96 1089.9 11.12 1091.76 10.42 1095.74 12.66 1092.77 13.09 1087.64 12.91 1082.09 13.42 1077.84 14.64 1075.81 21.98 1067.55 23.86 1066.17 25.97 1065.9 28.37 1067.24 28.37 1037.99 29.2 1035.26 31.5 1030.21 32.19 1027.5 33.05 1029.38 33.92 1029.39 36 1027.5 36 1028.19 37.62 1029.78 41.54 1032.24 42.8 1033.43 43.3 1034.83 44.22 1040.51 45.29 1041.94 49.97 1044.41 51.04 1045.81 51.52 1047.52 52.62 1049.44 54.77 1052.13 57.81 1054.25 58.57 1055.27 58.89 1056.35 59.01 1058.65 59.26 1059.75 61.26 1063.35 61.98 1065.08 62.26 1067.61 63.07 1070.11 66.68 1072.88 67.49 1074.38 67.86 1075.83 68.72 1077.75 70.49 1080.78 73.14 1083.45 73.7 1084.52 74.16 1086.99 74.64 1087.95 75.95 1088.89 77.33 1089.21 78.78 1089.37 80.28 1089.75 81.04 1090.22 82.32 1091.43 83.28 1092 85.72 1092.52 87.99 1092.18 91.95 1091.25 93.72 1090.6 96.42 1087.11 98.32 1085.41 101.65 1083.56 105.65 1082.06 109.74 1081.85 113.35 1083.83 115.11 1087.01 116.13 1087.08 118.28 1084.95 119.25 1083.31 119.73 1083.2 120.84 1083.83 121.45 1084.63 122.4 1087.57 125.69 1085.67 129.3 1084.79 137.73 1084.51 143.24 1082.04 147.18 1081.12 149.66 1079.33 152.22 1078.08 162.4 1063.31 162.4 1035.84 167.89 1023.49 183 1024.86 189.86 1031.73 202.22 1033.1 210.46 1024.86 221.44 1012.5 244.78 1004.27 258.51 990.54 269.5 987.79 282.4 985.81 281.58 995.75 281.45 996.31 281.27 996.87 281.01 997.43 Z" id="MDG-5866" data-name="Atsimo-Andrefana"/>
<path d="M 511.69 1168.46 509.08 1184.95 506.96 1191.58 506.36 1201.93 502.65 1214.11 498.53 1224.85 495.86 1240.78 482.86 1277.51 481.6 1276 480.97 1274.75 480.35 1274.51 479.14 1276.01 477.99 1278.4 478.74 1279.05 480.55 1279.21 482.49 1280.12 482.94 1282.97 477.3 1306.23 471.34 1320.96 469.41 1324.18 468.65 1324.86 466.91 1325.91 466.35 1326.36 466.11 1326.36 464.97 1326.75 464.85 1326.76 464.13 1327.33 464.35 1327.65 464.82 1327.99 464.85 1328.6 464.82 1328.89 464.1 1331.66 462.19 1335.3 461.89 1336.06 461.89 1336.06 461.69 1335.98 456.2 1331.95 442.15 1324.84 439.31 1323.04 437.78 1322.32 429.97 1320.27 428.37 1320.45 427.62 1321.13 427.59 1323.96 428.27 1327.29 428.29 1328.19 428.08 1329 427.45 1329.72 426.4 1330.34 423.41 1331.16 421.93 1330.92 418.71 1329.9 417.56 1330.2 416.79 1331.01 416.47 1332.15 416.45 1333.37 416.68 1334.56 417.02 1335.72 417.97 1337.81 419.7 1340.72 420.12 1341.75 420.24 1342.89 419.94 1343.97 419.33 1344.9 417.85 1346.56 417.24 1347.53 416.26 1349.65 415.74 1350.53 414.92 1351.28 414.04 1351.83 412.17 1352.74 409.02 1353.67 407.45 1353.89 405.47 1353.9 404.24 1353.41 403.41 1352.57 403.01 1351.51 402.83 1350.35 402.88 1348.45 403.37 1346.14 404.26 1343.94 404.5 1342.83 404.36 1341.7 403.91 1340.7 400.65 1336.19 399.89 1335.39 398.97 1334.58 397.84 1333.85 395.75 1333.2 389.66 1333.03 387.8 1332.6 386.78 1331.73 386.05 1328.12 385.63 1327.03 384.39 1325.29 384.05 1324.33 384.37 1322.32 384.27 1321.88 383.85 1321.19 383.12 1320.52 379.14 1318.13 370.89 1315.34 364.72 1313.95 363.58 1313.48 362.54 1312.92 361.7 1312.19 361.08 1311.25 360.05 1309.17 359.38 1308.27 358.49 1307.59 356.11 1306.17 352.05 1303.08 351.01 1301.69 350.52 1300.57 350.6 1299.65 350.89 1298.58 352.69 1294.21 355.02 1290.31 356.5 1287.11 357.1 1286.16 358.63 1284.55 379.34 1289.85 388.95 1288.48 397.19 1280.24 399.93 1259.65 397.19 1236.31 394.44 1219.83 395.82 1212.96 405.43 1211.59 417.78 1217.08 428.77 1223.95 437.01 1223.95 437.01 1215.71 437.01 1201.98 435.63 1185.5 426.02 1167.65 419.16 1142.94 413.66 1133.33 421.9 1122.34 427.4 1130.58 445.24 1138.82 454.86 1140.19 458.97 1136.08 468.59 1141.57 472.7 1153.92 486.43 1159.42 500.17 1159.42 511.69 1168.46 Z" id="MDG-5867" data-name="Atsimo-Atsinanana"/>
<path d="M 592.11 929.99 591.2 929.58 582.18 927.25 574.41 927.31 568.92 926.14 568.07 925.76 567.1 924.84 566.72 924.07 566.59 923.28 566.66 922.59 566.66 921.18 566.52 920.56 566.06 919.48 565.72 919.04 565.18 918.58 563.3 917.36 562.68 916.81 562 916.41 561.3 916.21 560.13 916.31 556.71 917.17 555.99 917.24 555.23 917.26 554.09 916.97 552.76 916.45 550.35 915.11 548.43 913.76 548.05 913.36 545.74 909.5 545.4 909.07 544.99 908.71 544.43 908.42 543.75 908.26 542.76 908.3 542.01 908.42 541.37 908.64 540.88 908.95 540.47 909.31 540.16 909.75 539.94 910.24 539.94 910.81 540.13 911.33 540.72 912.26 540.89 912.73 540.79 913.2 540.09 914 539.77 914.46 539.54 915 539.33 916.23 539.1 916.75 538 917.98 537.69 918.45 537.32 919.64 537.22 920.31 537.03 920.89 533.68 926.1 533.3 927.27 533.2 927.88 533.26 928.51 533.41 929.08 534.16 930.58 534.18 931.13 533.95 931.59 533.58 931.98 533.07 932.26 532.47 932.44 531.77 932.45 530.81 932.06 529.62 931.38 527.5 929.76 525.52 928.57 524.92 928.46 523.9 928.42 522.56 928.56 521.26 928.85 520.68 929.07 519.22 929.96 517.98 931.06 517.47 931.34 516.86 931.5 516.15 931.58 515.42 931.57 514.7 931.49 513.34 931.22 511.91 931.07 511.2 931.11 510.52 931.21 509.91 931.4 509.36 931.62 507.39 932.86 506.81 933.08 506.16 933.2 503.29 933.35 501.99 933.61 501.28 933.59 500.58 933.41 499.87 932.99 499.38 932.56 499 932.07 498.7 931.59 498.37 931.16 497.97 930.79 496.96 930.2 496.53 929.86 495.38 928.68 494.9 928.35 494.38 928.08 492.61 927.45 492.18 927.11 491.81 926.7 491.13 925.07 490.83 924.6 490.43 924.21 490.11 923.77 489.85 922.81 489.39 913.78 489.8 910.97 491.61 903.93 492.75 900.81 493.25 899.75 493.56 897.74 493.65 892.22 494.1 887.06 494.6 885.2 497.59 880.08 498 878.93 498.24 877.96 498.22 874.15 498.41 873.33 498.66 872.69 499.28 871.74 499.62 871.31 500.43 870.55 502.3 869.28 503.97 867.84 504.72 867.03 508.12 861.58 523.51 858.73 531.74 853.23 539.98 860.1 557.83 861.47 561.95 836.76 571.56 836.76 567.44 816.16 586.67 810.67 588.04 794.19 597.65 791.45 597.65 770.85 588.04 746.14 582.55 729.66 582.55 707.69 586.67 692.59 600.4 689.84 614.13 681.61 612.75 670.62 603.14 659.64 596.28 651.4 603.14 648.65 616.87 648.65 620.99 637.67 636.09 634.92 652.57 633.55 666.3 629.43 666.3 621.19 670.42 612.96 686.23 611.48 689.42 627.85 690.02 634.94 688.72 642.51 684.88 655.54 679.54 672.13 679.39 674.05 679.54 675.94 679.98 677.44 680.49 678.23 681.71 679.63 682.23 680.44 682.48 681.68 681.82 682.31 680.7 682.74 679.61 683.42 676.27 689.5 673.54 711.25 672.77 712.65 670.7 715.15 669.88 716.5 667.26 723.98 660.82 736.77 655.12 757.12 646.61 775.75 642.6 781.57 632.62 815.9 618.79 849.42 615.05 866.69 614.8 869.24 614.85 873.32 611.3 883.22 610.61 881.87 609.26 880.09 607.82 879.1 606.83 880.23 607.28 881.49 609.95 884.99 610.55 886.65 610.25 888.06 601.21 905.89 594.91 921.84 592.11 929.99 Z" id="MDG-5868" data-name="Atsinanana"/>
<path d="M 515.45 502.01 515.46 504.11 516.39 509.13 516.56 509.71 518.2 512.66 518.66 513.73 519 514.9 519.43 517.62 519.58 521.62 519.46 522.39 518.95 523.33 518.68 524.1 518.58 524.92 518.87 526.01 519.39 527.35 520.02 528.27 521.66 529.74 522.34 530.61 522.71 530.99 523.05 531.42 523.34 531.91 523.71 533.05 523.97 533.52 524.29 533.89 524.84 534.4 525.63 534.99 526.01 535.39 526.3 535.86 526.52 536.52 526.84 538.47 527.22 539.07 527.67 539.51 528.17 539.8 528.61 540.12 529 540.51 529.33 540.97 529.82 542.02 530.13 542.47 530.55 542.82 531.04 543.1 531.6 543.32 532.64 543.85 533.1 544.17 533.33 544.85 533.29 545.8 532.06 549.34 532.13 549.87 532.62 550.41 533.08 551.13 533.37 552.13 533.44 554.87 533.51 555.38 535.99 558.81 537.56 560.34 539.44 561.57 540.01 561.79 540.65 561.93 541.37 561.98 542.81 561.93 544.17 562.11 544.73 562.35 545.09 562.95 545.26 563.9 545.14 565.73 545.23 566.76 545.43 567.5 545.72 568.15 545.94 569 546.06 570.46 546.27 571.34 546.51 572.02 546.74 572.55 546.95 573.12 546.78 574.19 546.27 575.68 543.92 579.85 543.24 580.69 542.39 581.38 542.03 581.89 541.84 582.55 541.91 583.69 542.46 585.62 542.17 586.5 541.61 587.61 540.25 589.6 539.47 590.53 538.41 591.55 538.07 592.19 537.76 593.05 536.69 597.66 536.32 598.56 535.7 599.28 534.26 600.38 533.97 600.92 533.85 601.62 534.04 602.67 534.38 603.28 534.89 603.67 536.94 603.89 537.42 604.15 537.56 604.75 537.49 605.47 537.22 606.55 537.3 607.94 537.17 608.54 536.45 609.22 535.3 610.03 534.82 610.53 534.43 611.25 534.14 612.71 534.14 615.22 533.95 615.85 533.63 616.32 532.42 616.69 531.94 617.25 531.57 618.9 531.33 622.9 530.82 626.25 530.5 627.05 529.96 627.85 528.68 628.97 527.88 629.19 527.13 629.22 526.48 629.14 525.82 629.19 525.28 629.34 524.8 629.51 524.51 629.67 524.16 629.92 523.8 630.46 523.51 631.24 523.32 632.69 523.37 634.43 523.29 635.14 523 635.94 522.22 636.89 520.99 638.01 520.67 638.54 520.41 639.27 520.36 640.54 520.45 641.37 520.75 642.67 520.43 643.88 517.52 649.09 513.92 653.85 507.76 655.18 504.57 656.3 488.85 659.09 484.56 659.29 481.89 659.01 480.86 658.11 479.58 655.98 478.82 655.08 477.3 654.57 473.61 655.09 468.95 654.45 465.87 653.61 464.15 652.86 463.2 651.85 462.66 650.83 461.95 649.99 461.01 649.31 457.81 647.78 456.96 647.08 456.3 646.21 455.48 644.05 455.3 642.91 455.25 642.01 455.28 641.11 454.21 640.27 452.1 639.3 447.41 637.77 444.53 637.3 442.01 637.28 439.21 637.54 437.56 637.99 436.32 638.6 432.66 641.21 431.52 641.62 427.35 642.17 426.18 642.56 425.16 643.13 423.44 644.53 422.78 645.39 421.62 647.44 420.96 648.24 419.95 648.56 418.6 647 417.52 646.14 415.21 645.43 412.12 645.04 406.37 644.98 405.13 644.47 404.67 643.54 405.09 641.25 405.13 640.02 404.87 638.84 403.73 635.36 403.03 634.37 402.15 634.33 401.06 634.48 399.7 634.42 397.96 635.27 396.5 635.57 391.98 635.33 387.93 634.6 385.63 634.48 383.93 634.67 377.39 636.29 370.12 636.81 368.41 636.6 366.96 636.23 365.77 635.63 364.94 635.97 363.41 637.38 361.35 638.47 359.49 639.71 358.49 640.18 356.33 640.66 355.26 641.03 354.27 641.52 352.86 642.03 351.04 642.4 347.96 642.69 346.33 643.2 345.3 644.02 344.87 644.93 344.11 645.64 343.01 646.09 340.06 646.84 337.76 647.15 336.26 647.62 332.74 649.65 331.69 650.14 330.53 650.16 329.14 650 328 650.51 326.86 651.14 324.65 651.84 323.27 651.79 322.56 651.09 322.47 648.97 321.84 648.05 321.03 648.11 318.76 649.1 317.01 649.46 315.6 649.37 314.41 648.97 313.19 648.37 311.69 647.79 307.42 646.96 306.23 646.47 305.53 645.93 304.34 644.76 303.44 644.27 302.08 644.03 296.96 632.18 288.72 623.94 287.35 615.7 292.84 610.21 291.47 601.97 281.86 600.6 269.5 601.97 259.89 601.97 255.77 590.99 248.9 563.53 250.28 552.54 270.87 548.42 283.23 553.92 306.57 553.92 310.69 560.78 318.93 571.76 331.28 581.38 338.15 577.26 343.64 564.9 350.51 560.78 357.37 552.54 369.73 549.8 377.97 530.57 382.59 512.37 397.19 509.98 413.66 508.61 427.4 509.98 439.75 515.47 449.36 519.59 453.48 514.1 447.99 505.86 435.63 496.25 443.87 488.01 452.11 478.4 461.72 483.89 471.33 489.38 483.69 489.38 489.18 493.5 498.79 497.62 515.45 502.01 Z" id="MDG-5869" data-name="Betsiboka"/>
<path d="M 431.15 384.91 427.4 405.63 431.51 423.48 435.63 446.82 443.87 459.18 450.74 468.79 452.11 478.4 443.87 488.01 435.63 496.25 447.99 505.86 453.48 514.1 449.36 519.59 439.75 515.47 427.4 509.98 413.66 508.61 397.19 509.98 382.59 512.37 377.97 530.57 369.73 549.8 357.37 552.54 350.51 560.78 343.64 564.9 338.15 577.26 331.28 581.38 318.93 571.76 310.69 560.78 306.57 553.92 283.23 553.92 270.87 548.42 250.28 552.54 244.78 542.93 233.8 540.19 224.19 529.2 222.82 519.59 211.83 514.1 198.1 503.11 191.24 490.76 189.86 477.03 182.37 468.5 183.05 467.44 183.86 466.53 185.39 465.67 186.9 465.27 190.06 464.79 191.51 464.17 190.62 463.42 197 460.49 200.18 458.52 202.33 455.87 206.06 449.84 208.53 446.86 210.97 444.58 213.94 442.9 220.68 440.09 224.96 437.24 225.74 437.92 225.99 439.51 226.15 442.99 228.07 449.08 228.17 449.61 228.24 450.63 228.17 451.41 227.56 453.63 227.42 455.49 227.59 456.92 228.42 457.86 230.15 458.19 231.82 457.65 232.91 456.45 233.84 455.05 235.02 454 238.74 452.64 240.3 451.59 241.03 449.88 240.75 448.93 238.6 448.14 237.3 446.83 236.41 444.98 236.35 443.59 237.35 442.71 255.25 440.84 256.01 440.61 256.81 440.25 258.25 439.34 259.06 442.4 259.9 443.54 260.31 443.81 260.47 444.22 260.5 445.77 259.31 448.94 259.38 450.05 261.3 449.13 262.05 451.26 262.85 451.01 263.92 449.13 262.8 443.49 263.13 442.27 264.88 440.57 265.73 439.34 265.64 439.06 265.73 436.29 265.96 435.32 266.33 434.51 266.6 433.66 266.55 432.54 265.69 431.15 264.51 430.2 263.88 429.22 264.67 427.72 268.2 424.08 271.82 421.81 272.96 421.74 274.78 422.44 276.42 422.85 278.1 422.85 279.71 423.03 283.67 425.48 286.13 425.13 292.81 421.36 294.19 420.88 295.67 420.6 297.36 420.5 299.73 420.83 300.55 421.79 300.36 425.42 300.45 427.15 300.85 428.04 301.75 428.45 303.34 428.8 304.26 428.88 306.17 428.73 307.1 428.8 310.08 430.36 312.61 430.45 312.61 429.77 311.54 428.42 310.83 426.55 311.29 425.37 312.29 424.42 313.13 423.23 313.15 421.31 310.51 422.63 307.94 424.56 306.46 425.24 307.1 422.81 308.69 420.31 310.95 418.04 313.53 416.09 316.06 414.57 318.55 413.6 321.18 413.11 326.62 413.09 329.37 413.44 330.65 413.87 331.18 414.61 331.19 415.9 331.34 417.05 331.78 418.1 332.66 419.07 331.4 421.05 330.88 422.79 330.12 424.35 328.1 425.8 330.49 427.7 332.24 429.41 333.63 431.42 337.48 439.08 339.25 441.15 341.65 443.08 341.76 442.01 341.68 440.61 341.78 439.31 342.4 438.59 343.29 438.86 344.52 440.94 345.38 441.59 347.56 441.1 348.48 439.2 348.4 436.82 347.63 434.85 350.52 434.58 352.63 436.56 354.53 439.17 356.75 440.84 357.89 439.98 356.69 437.08 354.07 432.54 351.9 431.61 347.36 427.48 344.63 426.55 341.1 426.75 340.14 426.55 338.14 425.38 338.34 424.65 339.64 423.93 340.96 422.81 343.87 418.41 344.35 416.26 343.15 414.57 341.95 414.44 340.45 414.64 339.19 414.64 338.66 413.82 339.01 412.05 340.61 409.05 341.83 405.04 343.9 402.94 348.79 399.18 355.7 391.63 358.24 389.81 358.43 390.37 358.67 390.83 358.87 391.33 358.92 392.06 360.14 391.39 363.11 388.66 367.77 385.37 369.07 384.17 371.65 382.48 374.57 382.19 377.46 382.24 379.95 381.51 378.5 380.57 375.1 379.66 374.7 378.6 375.88 377.41 382.19 375.91 393.48 367.98 401.75 360.64 406.38 359.33 409.43 357.73 411.14 357.36 411.84 357.73 412.17 358.57 412.31 359.59 412.3 362.48 412.47 363.08 413.81 365.8 414.68 366.91 415.85 367.84 417.57 368.8 421.31 370.29 423.16 371.49 423.18 372.85 422.09 374.27 420.43 377.06 419.07 378.18 417.36 379.27 416.24 380.42 411.36 389.93 410.05 393.63 410.4 396.21 411.57 396.46 412.38 394.93 413.38 391.33 414.67 390.2 416.67 389.57 420.56 389.01 424.28 387.65 427.74 385.87 431.15 384.91 Z" id="MDG-5870" data-name="Boeny"/>
<path d="M 370.12 636.81 373.67 655.38 383.21 679.49 397.78 698.58 408.83 708.81 412.23 724.07 414.12 727.38 417.86 730.49 419.27 735.62 422.74 740.45 427.23 742.75 429.29 745.52 406.8 743.39 388.95 742.02 377.97 743.39 366.98 753 361.49 772.23 350.51 788.7 334.03 807.92 323.05 823.03 303.82 825.77 284.27 823.94 284.41 823.42 284.65 823.14 284.99 822.95 286.65 822.41 287.11 822.11 287.44 821.65 287.55 820.76 287.47 817.53 287.89 814.84 287.78 811.5 287.62 810.46 287.38 809.46 286.3 806.42 285.9 804.59 284.9 802.52 284.68 801.78 284.61 800.6 284.36 799.81 283.58 799.15 282.9 799.08 282.25 799.17 280.45 799.71 279.37 800.18 277.88 801.03 277.34 801.25 276.72 801.35 276.11 801.27 275.58 801.03 275.1 800.71 274.32 799.95 273.25 798.69 271.06 796.94 270.35 796.12 270.04 795.65 268.99 793.65 267.67 791.87 266.52 790.71 266.25 790.1 266.09 789.29 266.28 787.91 266.52 787.08 267.06 785.87 267.15 785.22 267.01 784.5 266.42 783.68 265.8 783.27 263.33 782.49 262.79 781.89 262.3 780.99 261.67 779.07 261.14 778.17 260.67 777.52 258.68 776.37 258.24 776.02 257.86 775.6 257.61 775.15 255.68 770.18 254.82 768.74 254.44 768.35 254 768.01 253.49 767.72 251.69 767.13 251.15 766.87 250.82 766.28 250.77 765.36 251.3 763.55 251.72 762.6 252.76 760.96 253.03 760.45 253.2 759.74 253.24 758.85 252.54 755.76 252.34 755.21 251.69 752.85 251.18 747.41 250.89 746.18 250.5 745.06 250.44 744.42 250.61 743.69 251.23 742.83 252.28 741.91 253.17 741.25 255.02 739.21 255.34 738.75 256.21 737.28 256.61 736.87 257.03 736.52 258.54 735.71 258.97 735.35 259.31 734.91 259.83 733.88 260.14 733.43 260.53 733.03 260.96 732.67 262.86 731.45 263.29 731.09 263.66 730.7 263.97 729.88 264.68 724.22 263.16 711.05 263.1 707.46 263.23 706.82 263.47 706.26 263.82 705.81 265.04 704.61 265.01 703.81 264.55 702.56 261.41 697.9 260.58 697.03 258.76 696.32 259.75 695.2 260.16 694.49 260.5 693.63 261.01 692.65 261.65 691.81 263.23 690.28 264.16 689.72 265.28 689.5 266.87 689.91 268.15 690.39 269.29 690.96 270.07 691.67 270.81 692.21 271.62 692.21 272.49 691.83 273.49 691.5 274.9 691.78 279.19 693.12 280.19 693.22 284.34 690.22 284.99 689.25 285.21 688.2 284.78 684.63 284.9 683.45 285.29 682.12 285.96 680.97 288.8 677.94 289.53 676.92 290.09 675.9 290.52 674.88 290.82 672.66 292.28 667.31 293.08 665.46 293.72 664.58 296.88 661.53 297.32 660.6 297.61 658.49 297.84 657.45 299.58 653.48 299.82 652.49 299.8 651.5 299.56 649.46 299.65 648.42 299.99 647.3 300.48 646.09 301.2 645.02 302.08 644.03 303.44 644.27 304.34 644.76 305.53 645.93 306.23 646.47 307.42 646.96 311.69 647.79 313.19 648.37 314.41 648.97 315.6 649.37 317.01 649.46 318.76 649.1 321.03 648.11 321.84 648.05 322.47 648.97 322.56 651.09 323.27 651.79 324.65 651.84 326.86 651.14 328 650.51 329.14 650 330.53 650.16 331.69 650.14 332.74 649.65 336.26 647.62 337.76 647.15 340.06 646.84 343.01 646.09 344.11 645.64 344.87 644.93 345.3 644.02 346.33 643.2 347.96 642.69 351.04 642.4 352.86 642.03 354.27 641.52 355.26 641.03 356.33 640.66 358.49 640.18 359.49 639.71 361.35 638.47 363.41 637.38 364.94 635.97 365.77 635.63 366.96 636.23 368.41 636.6 370.12 636.81 Z" id="MDG-5871" data-name="Bongolava"/>
<path d="M 560.05 144.39 561.15 146.63 561.96 149.08 562.06 150.24 563.39 151 562.8 152.82 561.58 154.84 560.96 156.28 561.76 157.15 563.29 158.14 564.57 159.3 564.71 160.69 563.98 161.49 562.89 161.98 561.68 162.21 560.56 162.28 560.03 162.02 559.66 161.48 559.46 160.95 559.46 160.69 558.8 160.82 557.23 161.51 553.26 160.89 551.89 160.28 550.42 159.21 549.67 159.21 549.67 160.69 549.19 160.67 548.89 160.47 548.63 160.21 548.24 160.03 547.18 158.71 546.46 156.4 545.94 151.72 546.37 149.6 546.98 147.72 546.91 146.35 545.26 145.74 546.37 144.3 547.98 144.76 549.71 145.53 551.19 144.92 551.92 145.6 552.96 146.08 554.08 146.19 554.91 145.74 555.06 144.89 554.52 144.07 553.84 143.21 553.49 142.33 553.58 140.08 554.09 138.82 555.31 138.3 557.56 138.2 559.46 138.73 560.35 140.11 560.24 141.94 559.09 143.82 560.05 144.39 Z M 672.72 17.1 672.42 19.94 672.86 23.21 674.82 27.27 675.06 28.9 674.42 28.95 670.28 24.4 669.26 24.21 668.45 25.15 667.7 26.41 666.89 27.1 665.4 26.73 664.17 25.56 663.36 24.01 663.09 22.55 661.92 23.09 661.05 23.96 660.47 25.03 660.15 26.28 661.48 26.94 661.17 28.23 659.34 31.52 661 31.49 663.26 31.82 665.26 32.49 666.15 33.42 665.77 34.14 664.19 35.46 663.9 36.07 664.09 37.02 664.46 38.02 665.02 38.4 665.77 37.57 666.94 35.61 667.83 35.14 668.72 35.91 669.88 37.57 669.73 38.13 669.25 38.88 669.19 39.53 670.28 39.82 672.46 39.9 673.52 39.71 674.38 39.14 675 37.25 673.45 34.16 673.97 32.7 675.97 31.6 677.22 32.36 680.39 37.25 680.7 38.51 680.76 39.79 681.1 41.32 682.15 43.01 683.27 44.23 684.08 45.7 684.17 48.11 684.9 46.68 685.85 45.76 687.05 45.26 688.6 45.11 690.26 45.4 690.93 46.01 691.4 46.85 693.29 48.63 693.92 50 693.98 51.24 693.15 51.79 691.62 51.43 690.29 50.84 689.08 50.73 687.92 51.79 690.59 53.96 692 55.69 693.25 55.85 695.39 53.28 698.44 60.01 699.14 62.33 699.38 65.24 699.1 66.65 698.04 66.45 697.16 65.24 696.84 63.87 696.87 60.83 696.21 63.81 697.84 70.05 697.25 72.48 696.38 73.62 695.9 74.78 695.82 75.99 696.14 77.3 697.16 79.15 697.94 79.03 698.77 78.26 699.96 78.12 701.6 79.19 703.82 81.11 693.76 91.21 684.15 100.82 677.28 110.43 685.52 111.8 686.9 120.04 681.4 129.65 680.03 148.87 673.17 155.74 680.03 177.71 674.54 199.68 671.79 207.91 670.42 217.53 659.44 220.27 653.94 238.12 644.79 247.81 644.26 247.73 638.45 244.52 637.78 244.27 637.1 244.07 635.08 243.79 634.36 243.58 633.7 243.23 632.49 242.43 631.71 242.13 630.97 242.1 629.38 242.77 628.09 243.03 627.54 243.25 627.07 243.54 626.66 243.9 623.78 247.94 623.37 248.31 622.88 248.58 620.66 249.42 617.83 251.21 617.05 251.97 616.76 252.43 616.37 252.87 615.91 253.2 615.2 253.28 614.79 252.99 614.52 252.49 614.29 251.15 613.99 250.56 611.62 247.06 610.89 246.55 610.18 246.39 609.67 246.63 608.8 247.3 608.27 247.52 607.61 247.59 606.26 247.59 605.63 247.71 603.97 248.34 603.38 248.49 602.75 248.58 602.08 248.54 601.52 248.34 600.93 248.03 594.1 242.86 593.54 242.52 590.08 241.4 588.8 240.81 588.13 240.32 584.01 235.76 582.78 234.83 581.81 234.44 581.25 234.61 580.74 234.88 580.3 235.19 579.04 236.24 578.1 236.84 574.97 238.31 573.2 238.87 570.51 239.25 568.83 239.88 568.22 240.03 567.17 239.91 565.82 239.54 563.22 238.27 561.89 237.39 559.97 235.72 559.38 235.31 555.18 233.06 554.5 232.55 551.72 228.9 550.35 227.42 549.72 227.23 549.21 227.36 548.82 227.72 548.14 228.56 547.56 228.87 546.81 229.02 545.51 228.82 544.87 228.43 544.46 227.91 544.32 227.35 544.21 226.5 544.21 225.23 544.73 222.71 544.97 222.19 545.29 221.74 547.93 219.77 549.24 218.01 549.51 217.54 551.3 215.47 551.93 214.57 552.19 214.06 552.39 213.45 552.42 212.77 552.15 211.89 551.64 211.58 551.08 211.59 550.53 211.8 549.5 212.32 545.84 214.86 541.59 216.74 540.64 217.32 538.53 219.05 538.07 219.35 533.81 221.24 533.37 221.56 533.07 221.97 532.96 222.54 533.08 223.08 533.46 224.19 533.6 224.79 533.61 225.4 533.5 225.9 533.3 226.24 533.19 226.41 532.74 226.84 532.32 227.11 531.79 227.35 529.34 227.99 529.02 228.36 529.02 228.92 530.19 230.6 530.28 231.19 530.04 231.62 529.19 232.36 528.82 232.62 528.02 233.32 527.98 233.34 527.98 233.35 524.54 232.21 522.11 230.55 518.11 226.83 526.44 222.59 526.44 221.21 521.17 217.85 516.76 216.12 515.53 215.16 512.66 209.91 510.96 202.74 511.83 196.62 516.62 194.51 515.46 192.82 514.11 192.19 513.08 191.2 512.87 188.46 513.21 186.16 514.08 182.89 515.56 180.63 517.77 181.35 519.42 181.47 520.32 178.76 520.8 173.86 521.73 173.02 522.91 172.32 524.06 172.32 524.91 173.48 524.45 174.17 523.34 175.08 522.66 176.31 523.42 177.98 524.04 177.65 525.11 177.43 525.72 177.23 525.13 178.56 525.37 179.78 526.25 180.37 527.54 179.81 527.97 178.9 528 177.94 528.44 177.06 530.15 176.42 528.14 174.28 528 173.46 532.06 173.48 533.74 174.73 534.5 177.53 534.9 180.55 535.46 182.47 538.5 181.12 540.18 182.03 541.02 184.28 541.51 186.96 543.41 191.93 543.69 193.76 543.69 194.51 543.78 195.25 544.12 195.84 545.83 196.46 545.58 197.3 544.44 198.62 545.66 200.83 548.52 202.91 551.78 204.46 554.2 205.05 557.31 204.27 560.45 202.26 561.96 199.59 560.14 196.75 560.91 195.05 560.96 189.27 561.58 187.49 563.58 183.96 563.98 182.47 561.59 178.61 561.1 176.66 563.23 175.73 564.49 176.35 567.71 180.97 568.27 178.94 569.22 176.98 570.35 175.34 571.43 174.23 572.84 173.73 574.9 173.39 576.93 173.3 578.25 173.48 578.22 172.94 578.28 171.8 578.25 171.25 580.78 173.42 582.07 174.11 583.12 173.86 582.88 172.89 580.96 169.06 580.09 166.01 578.17 163.53 577.43 162.28 577.1 160.8 577.03 159.28 577.43 156.28 579.14 156.67 580.14 157.68 580.91 158.92 581.99 160.03 582.05 161.81 584.05 163.13 589.86 165.38 590.88 165.61 591.97 165.45 593.29 164.86 594.65 164.54 596.03 164.75 597.33 165.12 598.51 165.26 602.49 164.16 606.49 161.89 610.07 158.85 612.8 155.46 610.89 153.29 612.46 150.17 616.55 145.32 616.19 143.98 614.58 141.43 614.24 139.71 614.3 136.11 614.55 134.27 617.02 125.64 618.47 122.59 621.52 118.59 622.36 116.9 623.01 115.13 623.28 113.76 623.82 112.52 625.1 110.89 626.59 109.48 627.78 108.93 627.29 106.16 629.03 99.08 629.27 96.14 628.64 94.74 626.44 92.17 625.53 90.84 624.82 89.34 624.4 88.11 623.83 83.19 623.41 81.97 621.78 79.61 621.1 79.19 620.5 79.35 619.95 79.26 619.47 78.12 619.51 77.01 620.04 76.37 620.66 75.83 621.03 75.06 620.95 74.15 620.33 72.81 620.28 72.06 621.52 69.38 621.78 69.06 620.95 67.75 619.7 67.62 618.15 68.21 616.55 69.06 616.49 65.84 615.52 64.01 611.99 60.83 610.29 56.37 609.37 54.88 609.05 57.02 604.58 54.85 605.9 53.8 607.82 50.81 609.05 50.7 610.37 51.3 611.55 51.64 614.28 51.79 618.03 52.53 620.35 54.5 623.66 60.77 624.86 61.41 626.57 60.9 628.23 59.78 629.27 58.6 629.73 56.96 630.02 51.11 630.26 50.47 631.51 48.11 631.52 47.55 631.32 46 631.51 45.11 632.49 43.72 633.89 42.65 635.44 42.25 636.82 42.89 637.54 40.92 638.68 40 640.02 39.17 641.32 37.57 642.93 39.53 644.36 38.03 645.76 35.35 647.3 33.77 649.1 35.25 650.74 34.66 651.99 32.88 652.61 30.84 652.47 30 652.1 29.2 651.78 28.31 651.86 27.1 652.46 25.88 653.29 25.19 654.17 24.69 654.91 24.03 655.99 23.84 656.26 23.25 655.6 21.8 654.65 20.73 653.92 20.55 653.09 20.62 651.86 20.28 651.31 19.82 650.95 19.18 650.48 18.52 649.61 17.98 648.41 17.79 644.37 17.98 645.84 15.98 650.24 14.58 651.86 12.74 653.52 13.88 657.09 18.8 657.84 17.98 658.66 18.8 658.77 16.68 657.93 14.31 656.31 12.45 654.11 11.99 654.53 10.88 655.22 10.13 655.93 9.54 656.41 9.01 657.52 8.53 657.84 8.24 657.7 7.89 657.33 7.23 657.13 6.44 657.47 5.64 660.75 2.11 662.67 1 664.65 1.45 665.77 2.23 668.8 5.64 669.53 7.19 669.55 10.35 670.28 11.65 672.44 14.43 672.72 17.1 Z" fill-rule="evenodd" id="MDG-5872" data-name="Diana"/>
<path d="M 464.47 991.91 460.35 1012.5 454.86 1024.86 457.6 1033.1 461.72 1042.71 454.86 1074.29 450.74 1090.77 446.62 1099 450.74 1107.24 434.26 1115.48 421.9 1122.34 413.66 1133.33 399.93 1127.84 388.95 1127.84 375.22 1127.84 364.24 1126.46 356 1116.85 353.25 1103.12 349.13 1093.51 329.91 1083.9 309.32 1078.41 292.84 1077.04 279.11 1078.41 269.5 1077.04 252.22 1066.66 253.47 1066.34 254.04 1066.12 254.51 1065.82 254.92 1065.43 255.17 1064.93 255.29 1064.37 255.14 1063.17 254.88 1062.07 254.87 1061.68 254.92 1061.25 255.21 1060.86 257.35 1059.91 257.76 1059.53 258.03 1059.03 258.15 1058.42 258.19 1057.79 258.12 1057.13 256.29 1049.9 256.19 1049.29 256.23 1048.69 256.86 1046.27 256.92 1045.58 256.88 1044.15 256.19 1041.17 256.11 1040.56 256.21 1039.93 256.46 1039.44 260.58 1034.91 260.87 1034.43 261.11 1033.88 261.26 1033.25 261.33 1032.59 261.19 1030.64 261.33 1030.04 261.64 1029.56 262.04 1029.19 262.57 1028.92 263.82 1028.62 264.26 1028.31 264.58 1027.84 265.02 1026.7 265.29 1026.19 265.63 1025.76 266.08 1025.41 266.65 1025.2 267.3 1025.07 267.89 1024.86 268.27 1024.44 268.57 1023.94 269 1023.58 270.09 1023.14 271.55 1022.29 272.81 1022.05 273.37 1021.81 273.88 1021.54 274.44 1021.31 276.55 1021.1 277.18 1020.94 277.73 1020.68 278.15 1020.33 278.46 1019.85 278.73 1019.32 278.92 1018.72 279.22 1015.98 279.12 1014.64 277.03 1003.53 277.06 1002.88 277.25 1002.33 277.59 1001.94 278.85 1000.85 279.56 999.94 281.01 997.43 295.59 997.4 309.32 990.54 324.42 986.42 332.66 978.18 342.27 969.94 351.88 965.82 360.12 968.57 369.73 965.82 372.47 974.06 383.46 989.16 398.56 998.77 412.29 998.77 420.53 987.79 438.38 980.92 446.62 983.67 450.74 990.54 464.47 991.91 Z" id="MDG-5873" data-name="Haute Matsiatra"/>
<path d="M 413.66 1133.33 419.16 1142.94 426.02 1167.65 435.63 1185.5 437.01 1201.98 437.01 1215.71 437.01 1223.95 428.77 1223.95 417.78 1217.08 405.43 1211.59 395.82 1212.96 394.44 1219.83 397.19 1236.31 399.93 1259.65 397.19 1280.24 388.95 1288.48 379.34 1289.85 358.63 1284.55 359.39 1283.9 359.95 1283.18 360.19 1282.65 360.38 1281.71 360.45 1280.86 360.29 1279.73 359.97 1278.31 358.93 1276.44 357.29 1272.45 356.44 1271.21 354.92 1269.57 352.81 1266.73 352.3 1265.6 351.84 1263.27 351.28 1261.88 351.04 1260.76 351.37 1259.83 352.11 1259.13 354.12 1257.99 355.01 1257.3 355.62 1256.44 356.16 1254.39 356.52 1253.4 357.03 1252.44 357.35 1251.39 357.34 1250.27 356.71 1248.03 356.25 1246.96 355.93 1245.88 355.93 1244.72 356.27 1243.63 357.37 1241.7 357.73 1240.7 357.78 1239.76 357.15 1234.58 356.66 1232.99 355.86 1232.03 354.82 1231.35 347.03 1227.46 346.4 1226.91 345.96 1226.32 345.57 1224.86 345.3 1224.18 343.43 1220.78 342.21 1219.03 341.28 1217.21 341.11 1216.62 340.8 1215.94 338.75 1213.04 338.65 1212.84 338.44 1212.22 338.19 1210.99 337.92 1210.36 336.87 1208.56 336.5 1207.48 330.29 1194.63 328.18 1191.72 327.57 1191.04 319.68 1186.38 317.27 1184.55 315.45 1184.93 312.97 1182.77 304.88 1178.12 302.3 1177.45 297.61 1177.58 290.54 1176.95 288.99 1177.05 283.68 1178.09 262.76 1186.01 241.28 1197.45 239.55 1199.54 237.25 1212.82 237.33 1221.99 235.72 1224.22 235.11 1225.41 235.08 1225.42 233.61 1226.47 232.98 1226.63 232.29 1226.7 231.55 1226.67 229.6 1226.18 228.17 1226.02 225.75 1226.18 224.49 1226.07 223.85 1225.73 223.39 1225.27 223.18 1224.73 222.69 1222.93 222.13 1221.97 221.77 1221.55 221.18 1220.57 220.81 1219.24 220.48 1218.48 219.95 1218.15 219.34 1218.05 217.49 1218.45 216.79 1218.47 214.73 1218.17 214.05 1218.15 209.72 1218.67 208.66 1218.63 206.99 1218.37 206.13 1218.03 205.5 1217.64 202.25 1214.59 201.16 1213.35 200.24 1212.5 199.93 1212.16 199.63 1211.69 199.32 1211.16 199.02 1210.37 198.85 1209.68 198.54 1207.68 198.37 1207.1 197.86 1206.02 197.51 1205.48 197.13 1204.72 196.93 1204.04 196.83 1203.32 196.76 1201.84 196.43 1200.2 196.38 1199.47 196.45 1198.8 197.35 1196.57 198.52 1192.28 198.98 1191.17 199.65 1190.2 199.92 1189.67 200.09 1189.16 200.21 1188.65 200.31 1187.12 200.38 1186.72 200.55 1186.24 201.28 1184.69 201.42 1184.06 201.43 1183.36 201.36 1182.7 201.24 1182.08 200.26 1179.48 200.17 1178.76 200.16 1178.09 200.27 1177.47 200.5 1176.91 200.77 1176.39 203.87 1172.43 204.39 1171.39 204.75 1170.13 205 1167.23 205.24 1165.89 206.04 1163.5 210.7 1155.56 211.38 1154.66 211.77 1154.25 212.11 1153.8 212.4 1153.27 212.59 1152.69 212.71 1152.04 212.89 1151.44 213.27 1150.97 213.74 1150.63 214.89 1150.19 217.37 1149.51 219.03 1148.81 219.49 1148.47 219.87 1148.08 220.04 1147.54 220.01 1146.96 219.8 1145.77 219.87 1145.15 220.77 1142.98 221.11 1142.53 221.59 1142.22 223.34 1141.62 223.81 1141.3 224.14 1140.88 224.29 1140.34 224.17 1139.66 223.56 1137.83 223.39 1136.99 223.34 1136.21 223.39 1134.77 223.59 1133.41 223.78 1132.81 224.27 1131.75 224.78 1129.92 225.07 1129.43 225.53 1129.09 226.19 1128.97 227.57 1128.87 228.07 1128.6 228.39 1128.15 228.76 1126.97 228.75 1126.14 228.59 1125.16 228.02 1123.66 227.88 1122.74 228.05 1122.1 229.77 1120.71 230.14 1120.29 230.41 1119.78 230.6 1119.2 230.45 1118.27 230 1117.11 228.71 1115.14 228.17 1114.08 227.9 1113.18 227.98 1112.56 228.17 1111.97 228.64 1110.87 228.75 1110.27 228.73 1109.64 227.73 1104.73 227.44 1103.96 227.08 1103.23 226.49 1101.6 224.87 1099.04 222.47 1095.91 221.59 1094.37 221.18 1093.23 221.45 1092.74 221.77 1092.27 222.61 1091.54 223.07 1091.24 224.2 1090.89 225.56 1090.7 230.16 1090.7 234.66 1089.72 235.19 1089.46 235.6 1089.08 235.84 1088.54 236.18 1087.3 236.38 1086.73 236.7 1086.28 237.08 1085.88 237.6 1085.61 238.19 1085.4 239.45 1085.09 240.02 1084.88 240.53 1084.6 240.92 1084.19 241.23 1083.7 243.73 1069.85 243.93 1069.25 244.19 1068.72 244.51 1068.27 244.88 1067.85 245.35 1067.52 245.86 1067.25 246.45 1067.05 247.1 1066.95 250.85 1066.88 252.22 1066.66 269.5 1077.04 279.11 1078.41 292.84 1077.04 309.32 1078.41 329.91 1083.9 349.13 1093.51 353.25 1103.12 356 1116.85 364.24 1126.46 375.22 1127.84 388.95 1127.84 399.93 1127.84 413.66 1133.33 Z" id="MDG-5874" data-name="Ihorombe"/>
<path d="M 429.29 745.52 434.35 746.73 442.02 748.3 445.42 750.46 448.53 751.6 449.98 754.78 461.72 773.6 467.21 791.45 463.09 802.43 452.11 809.3 437.01 809.3 421.9 806.55 417.78 801.06 405.43 799.69 391.7 802.43 377.97 810.67 368.36 820.28 360.12 821.65 349.13 818.91 323.05 823.03 334.03 807.92 350.51 788.7 361.49 772.23 366.98 753 377.97 743.39 388.95 742.02 406.8 743.39 429.29 745.52 Z" id="MDG-5875" data-name="Itasy"/>
<path d="M 182.37 468.5 189.86 477.03 191.24 490.76 198.1 503.11 211.83 514.1 222.82 519.59 224.19 529.2 233.8 540.19 244.78 542.93 250.28 552.54 248.9 563.53 255.77 590.99 259.89 601.97 269.5 601.97 281.86 600.6 291.47 601.97 292.84 610.21 287.35 615.7 288.72 623.94 296.96 632.18 302.08 644.03 301.2 645.02 300.48 646.09 299.99 647.3 299.65 648.42 299.56 649.46 299.8 651.5 299.82 652.49 299.58 653.48 297.84 657.45 297.61 658.49 297.32 660.6 296.88 661.53 293.72 664.58 293.08 665.46 292.28 667.31 290.82 672.66 290.52 674.88 290.09 675.9 289.53 676.92 288.8 677.94 285.96 680.97 285.29 682.12 284.9 683.45 284.78 684.63 285.21 688.2 284.99 689.25 284.34 690.22 280.19 693.22 279.19 693.12 274.9 691.78 273.49 691.5 272.49 691.83 271.62 692.21 270.81 692.21 270.07 691.67 269.29 690.96 268.15 690.39 266.87 689.91 265.28 689.5 264.16 689.72 263.23 690.28 261.65 691.81 261.01 692.65 260.5 693.63 260.16 694.49 259.75 695.2 258.76 696.32 256.58 696.71 256.02 697.31 255.36 697.85 254.36 698.84 253.34 699.24 252.32 699.13 251.61 698.41 251.08 697.49 250.75 696.51 250.14 695.65 249.22 694.9 247.05 693.94 245.89 693.93 245.13 694.15 244.54 694.88 243.79 695.56 241.55 696.94 239.97 697.63 238.56 697.4 228.78 693.32 227.68 692.71 225.99 691.3 224.78 690.49 223.29 689.66 220.57 688.66 218.98 688.35 217.49 688.32 213.32 690.2 211.21 691.42 209.73 691.86 208.7 691.54 207.88 690.81 207.03 689.86 205.89 689.01 202.46 687.45 199.85 685.65 198.92 685.86 198.1 686.48 197.32 687.25 195.87 688.28 195.35 688.75 194.05 690.26 192.42 691.76 191.71 692.61 191.08 693.52 190.07 694.47 188.68 695.34 185.92 696.1 183.08 697.54 178.73 701.06 178.03 701.93 176.21 704.73 175.73 705.66 175.65 706.71 176.06 707.65 176.62 708.59 180.56 713.96 180.97 714.94 181.57 716.87 182.04 717.84 184.55 721.49 185.07 722.47 185.48 723.56 187.79 733.95 188.62 735.92 188.69 738.13 188.95 739.22 189.48 740.18 190.96 741.84 191.45 742.78 191.6 743.9 191.23 745.21 191.35 746.31 192.83 749.2 195.14 751.23 195.69 751.81 196.08 752.42 196.47 753.34 197.23 757.01 197.15 758.53 196.74 760.2 195.53 762.57 194.97 764.14 194.87 765.51 195.15 766.51 195.56 767.34 196.04 767.71 196.77 768.06 197.64 768.36 198.2 769.2 198.63 770.24 198.88 771.47 199.61 773.47 200.77 778.64 201.18 779.76 201.7 780.8 202.08 781.96 202.17 783.29 201.74 784.94 200.99 786.33 199.8 788.04 199.48 789.38 199.63 790.45 199.97 791.36 200.72 792.71 201.4 793.44 202.22 794.16 206.87 797.35 207.71 798.13 208.27 799.03 208.27 800.27 207.54 800.98 206.43 801.39 204.15 801.49 201.67 801.91 200.02 802.81 198.76 802.95 197.73 802.66 196.79 802.26 193.93 801.52 191.79 800.68 190.6 800.58 189.35 800.87 188.05 801.35 186.48 802.2 185.55 803.48 184.63 805.24 183.35 806.5 182.06 807.17 178.36 808.15 177.08 808.19 175.8 807.98 173.3 807.3 172.2 806.79 170.19 805.6 166.96 804.26 165.82 804.27 163.69 804.79 162.78 804.7 160.87 803.69 158.99 803.85 157.62 803.81 155.19 803.3 152.13 803.65 150.7 803.57 148.13 802.97 147.08 802.44 146.3 801.68 141.77 795.45 140.34 793.87 139.58 793.3 138.9 792.96 138.08 792.65 137.06 792.42 136.03 792.33 134.77 792.37 133.49 792.54 131.18 793.27 130.09 793.52 129.1 793.5 126.77 792.92 123.03 792.49 118.42 790.84 116 790.4 115.96 790.39 113.77 787.67 111.86 784.11 111.11 780.37 111.86 773.97 113.34 770.56 113.34 763.83 113.25 763.56 112.79 762.76 112.66 762.33 112.86 761.58 113.78 760.7 114.09 760.1 114.77 757.38 114.84 756.31 114.37 752.89 111.75 745.24 106.54 731.72 98.71 721.32 91.61 711.53 90.75 708.28 90.75 686.48 86.46 665.18 86.28 657.98 89.52 644.38 90.08 639.51 89.49 637.88 86.87 635.53 85.34 630.52 78.41 621.12 77.8 618.48 77.84 615.08 78.79 608.33 79.94 605.13 85.53 596.35 87.49 591.8 88.18 591.48 89.47 592.12 90.17 591.3 91.17 588.12 99.52 575.63 101.32 573.87 102.12 572.27 102.46 570.72 102.8 565.53 105.86 565.61 108.54 561.42 112.26 552 113.02 550.86 116.01 547.88 116.59 546.96 117.49 544.47 118.28 543.36 120.06 541.4 121.38 539.35 123.49 534.78 126.36 530.72 130.19 526.67 133.37 522.34 134.37 517.43 133.76 515.3 131.78 510.63 131.3 508.38 131.85 505.74 133.13 504.51 134.26 505.05 134.37 507.72 136.1 504.87 136.96 501.84 136.9 498.79 135.86 495.74 131.74 489.75 130.08 486.44 129.81 482.89 130.29 481.51 131.15 479.95 132.18 478.46 133.21 477.33 133.96 476.16 134.23 474.7 134.55 468.53 134.91 467.03 135.8 466.04 137.62 465.55 141.26 465.53 145.02 464.93 168.92 467.17 171.88 466.5 173.24 466.59 175.9 468.72 177.82 469.76 179.8 470.28 181.34 469.79 182.37 468.5 Z" id="MDG-5876" data-name="Melaky"/>
<path d="M 258.76 696.32 260.58 697.03 261.41 697.9 264.55 702.56 265.01 703.81 265.04 704.61 263.82 705.81 263.47 706.26 263.23 706.82 263.1 707.46 263.16 711.05 264.68 724.22 263.97 729.88 263.66 730.7 263.29 731.09 262.86 731.45 260.96 732.67 260.53 733.03 260.14 733.43 259.83 733.88 259.31 734.91 258.97 735.35 258.54 735.71 257.03 736.52 256.61 736.87 256.21 737.28 255.34 738.75 255.02 739.21 253.17 741.25 252.28 741.91 251.23 742.83 250.61 743.69 250.44 744.42 250.5 745.06 250.89 746.18 251.18 747.41 251.69 752.85 252.34 755.21 252.54 755.76 253.24 758.85 253.2 759.74 253.03 760.45 252.76 760.96 251.72 762.6 251.3 763.55 250.77 765.36 250.82 766.28 251.15 766.87 251.69 767.13 253.49 767.72 254 768.01 254.44 768.35 254.82 768.74 255.68 770.18 257.61 775.15 257.86 775.6 258.24 776.02 258.68 776.37 260.67 777.52 261.14 778.17 261.67 779.07 262.3 780.99 262.79 781.89 263.33 782.49 265.8 783.27 266.42 783.68 267.01 784.5 267.15 785.22 267.06 785.87 266.52 787.08 266.28 787.91 266.09 789.29 266.25 790.1 266.52 790.71 267.67 791.87 268.99 793.65 270.04 795.65 270.35 796.12 271.06 796.94 273.25 798.69 274.32 799.95 275.1 800.71 275.58 801.03 276.11 801.27 276.72 801.35 277.34 801.25 277.88 801.03 279.37 800.18 280.45 799.71 282.25 799.17 282.9 799.08 283.58 799.15 284.36 799.81 284.61 800.6 284.68 801.78 284.9 802.52 285.9 804.59 286.3 806.42 287.38 809.46 287.62 810.46 287.78 811.5 287.89 814.84 287.47 817.53 287.55 820.76 287.44 821.65 287.11 822.11 286.65 822.41 284.99 822.95 284.65 823.14 284.41 823.42 284.27 823.94 284.49 829.95 284.44 830.65 284.24 831.21 283.9 831.87 283.61 832.7 283.42 834.2 283.49 835.09 283.76 835.75 284.15 836.14 284.58 836.83 285.02 837.81 286.07 841.73 288.46 847.09 288.7 848.32 288.85 849.97 289.07 851.1 289.77 853.47 289.87 854.3 289.51 858.54 289.33 859.15 289.09 859.69 288.48 860.63 287.68 861.4 286.79 862.09 286.04 862.85 285.57 863.83 285.4 864.43 285.09 866.46 284.9 867.05 284.34 868.05 281.69 871.13 281.47 872.1 281.21 874.82 281.04 875.44 280.82 875.99 279.95 877.47 279.87 878.13 280.04 878.96 280.73 880.06 281.27 880.7 281.81 881.18 282.73 881.83 284.31 882.63 284.77 882.96 285.09 883.42 285.21 884.03 285.04 884.84 284.58 886.07 284.49 886.74 284.7 888.29 284.6 888.92 284.31 889.43 283.87 889.78 282.95 890.41 282.54 890.79 282.23 891.26 282.05 891.86 281.98 892.55 282.05 894.6 281.98 895.24 281.82 895.85 281.79 896.53 281.96 897.32 282.64 898.48 282.97 899.37 283.03 900.47 283.02 902.08 283.22 902.96 283.65 904.17 284.6 906.16 286.02 911.89 286.06 913.97 286.19 914.85 288.1 922.38 288.26 923.44 288.26 924.31 288.09 924.92 287.62 926.01 287.28 927.21 287.21 927.87 287.25 928.52 288.17 932.84 288.22 933.54 288.17 934.95 288.03 935.58 287.81 936.15 286.74 937.83 286.58 938.19 286.43 938.68 286.28 940.7 286.02 942.02 285.84 942.61 285.6 943.14 285.4 943.7 285.45 944.67 288.27 956.32 288.71 961.52 288.66 962.21 288.54 962.83 288.22 963.3 287.78 963.64 287.16 963.83 285.02 964.07 284.48 964.31 284.09 964.71 283.85 965.28 283.71 965.94 283.51 968.06 283.32 968.66 283.07 969.19 282.47 970.17 282.27 970.74 281.57 973.9 281.5 974.54 281.54 975.86 281.41 977.18 281.47 978.21 281.74 979.58 282.51 982.18 282.71 983.56 282.73 984.56 282.4 985.81 269.5 987.79 258.51 990.54 244.78 1004.27 221.44 1012.5 210.46 1024.86 202.22 1033.1 189.86 1031.73 183 1024.86 167.89 1023.49 162.4 1035.84 162.4 1063.31 152.22 1078.08 149.66 1079.33 147.18 1081.12 143.24 1082.04 137.73 1084.51 129.3 1084.79 125.69 1085.67 122.4 1087.57 121.45 1084.63 120.84 1083.83 119.73 1083.2 119.25 1083.31 118.28 1084.95 116.13 1087.08 115.11 1087.01 113.35 1083.83 109.74 1081.85 105.65 1082.06 101.65 1083.56 98.32 1085.41 96.42 1087.11 93.72 1090.6 91.95 1091.25 87.99 1092.18 85.72 1092.52 83.28 1092 82.32 1091.43 81.04 1090.22 80.28 1089.75 78.78 1089.37 77.33 1089.21 75.95 1088.89 74.64 1087.95 74.16 1086.99 73.7 1084.52 73.14 1083.45 70.49 1080.78 68.72 1077.75 67.86 1075.83 67.49 1074.38 66.68 1072.88 63.07 1070.11 62.26 1067.61 61.98 1065.08 61.26 1063.35 59.26 1059.75 59.01 1058.65 58.89 1056.35 58.57 1055.27 57.81 1054.25 54.77 1052.13 52.62 1049.44 51.52 1047.52 51.04 1045.81 49.97 1044.41 45.29 1041.94 44.22 1040.51 43.3 1034.83 42.8 1033.43 41.54 1032.24 37.62 1029.78 36 1028.19 36 1027.5 39 1026.02 40.44 1024.02 40.9 1023.7 47 1023.84 51.1 1022.74 53.15 1023.22 55.1 1024.02 57.08 1024.45 59.81 1023.47 63 1021.11 65.65 1018.16 66.74 1015.44 67.31 1012.22 71.24 1001.94 75.38 980.75 82.29 968.08 84.59 965.96 88.18 965.13 90.16 963.5 96.07 953.09 97.44 948.66 98.45 943.47 99.96 938.6 102.8 935.05 102.81 936.04 102.99 936.71 103.55 938.05 106.21 932.08 107.74 930.19 112.55 926.65 114.09 925.2 113.71 921.68 114.8 917.69 122.8 902.57 125.16 899.12 131.69 893.1 134.28 890.05 136.34 886.57 138.11 882.48 138.67 879.12 138.7 874.42 137.88 870.77 135.86 870.51 134.9 867.46 134.37 866.69 133.59 866.26 132.02 866.18 131.3 865.94 129.82 864.71 128.37 863.01 127.25 861.1 126.82 859.21 127.24 857.73 129.34 853.97 130.19 852.81 131.07 851.26 131.43 849.43 131.3 845.67 131.05 844.56 130.66 843.57 130.4 842.53 130.55 841.25 131.07 840.75 132.98 839.61 133.62 838.94 134.17 836.88 134.44 835.19 135.32 834.04 137.73 833.63 139.19 831.72 138.75 827.43 136.55 820.16 134.91 816.67 132.81 813.42 127.61 808.64 126.82 807.37 125.96 803.77 123.87 800.2 115.96 790.39 116 790.4 118.42 790.84 123.03 792.49 126.77 792.92 129.1 793.5 130.09 793.52 131.18 793.27 133.49 792.54 134.77 792.37 136.03 792.33 137.06 792.42 138.08 792.65 138.9 792.96 139.58 793.3 140.34 793.87 141.77 795.45 146.3 801.68 147.08 802.44 148.13 802.97 150.7 803.57 152.13 803.65 155.19 803.3 157.62 803.81 158.99 803.85 160.87 803.69 162.78 804.7 163.69 804.79 165.82 804.27 166.96 804.26 170.19 805.6 172.2 806.79 173.3 807.3 175.8 807.98 177.08 808.19 178.36 808.15 182.06 807.17 183.35 806.5 184.63 805.24 185.55 803.48 186.48 802.2 188.05 801.35 189.35 800.87 190.6 800.58 191.79 800.68 193.93 801.52 196.79 802.26 197.73 802.66 198.76 802.95 200.02 802.81 201.67 801.91 204.15 801.49 206.43 801.39 207.54 800.98 208.27 800.27 208.27 799.03 207.71 798.13 206.87 797.35 202.22 794.16 201.4 793.44 200.72 792.71 199.97 791.36 199.63 790.45 199.48 789.38 199.8 788.04 200.99 786.33 201.74 784.94 202.17 783.29 202.08 781.96 201.7 780.8 201.18 779.76 200.77 778.64 199.61 773.47 198.88 771.47 198.63 770.24 198.2 769.2 197.64 768.36 196.77 768.06 196.04 767.71 195.56 767.34 195.15 766.51 194.87 765.51 194.97 764.14 195.53 762.57 196.74 760.2 197.15 758.53 197.23 757.01 196.47 753.34 196.08 752.42 195.69 751.81 195.14 751.23 192.83 749.2 191.35 746.31 191.23 745.21 191.6 743.9 191.45 742.78 190.96 741.84 189.48 740.18 188.95 739.22 188.69 738.13 188.62 735.92 187.79 733.95 185.48 723.56 185.07 722.47 184.55 721.49 182.04 717.84 181.57 716.87 180.97 714.94 180.56 713.96 176.62 708.59 176.06 707.65 175.65 706.71 175.73 705.66 176.21 704.73 178.03 701.93 178.73 701.06 183.08 697.54 185.92 696.1 188.68 695.34 190.07 694.47 191.08 693.52 191.71 692.61 192.42 691.76 194.05 690.26 195.35 688.75 195.87 688.28 197.32 687.25 198.1 686.48 198.92 685.86 199.85 685.65 202.46 687.45 205.89 689.01 207.03 689.86 207.88 690.81 208.7 691.54 209.73 691.86 211.21 691.42 213.32 690.2 217.49 688.32 218.98 688.35 220.57 688.66 223.29 689.66 224.78 690.49 225.99 691.3 227.68 692.71 228.78 693.32 238.56 697.4 239.97 697.63 241.55 696.94 243.79 695.56 244.54 694.88 245.13 694.15 245.89 693.93 247.05 693.94 249.22 694.9 250.14 695.65 250.75 696.51 251.08 697.49 251.61 698.41 252.32 699.13 253.34 699.24 254.36 698.84 255.36 697.85 256.02 697.31 256.58 696.71 258.76 696.32 Z" id="MDG-5878" data-name="Menabe"/>
<path d="M 698.39 329.53 697.25 325.76 696.5 324.35 691.18 317.45 690.18 316.84 689.19 316.42 688.05 315.67 686.93 314.64 686.4 313.89 686.03 313.21 683.9 307.82 683.75 307.24 683.8 306.72 684.12 305.61 684.21 305.02 684.14 304.45 683.99 303.9 680.02 295.15 679.34 294.06 678.32 292.94 676.3 290.18 674.43 288.6 674.12 287.99 674.1 287.38 674.31 286.84 674.87 285.87 675.21 285.43 676.03 284.74 677.39 283.78 677.75 283.28 677.97 282.65 677.93 281.6 677.68 280.98 677.34 280.44 675.72 278.96 675.29 278.64 673.68 277.91 673.2 277.61 672 276.55 671.52 276.24 670.43 275.76 669.26 275.39 668.73 275.14 666.47 273.2 664.43 270.62 663.05 268.02 662.64 267.45 662.23 267.08 659.04 264.88 655.19 261.04 652.17 258.91 651.68 258.16 651.1 256.95 650.5 256.26 649.61 255.51 649.1 254.98 648.76 254.42 647.42 250.12 646.57 248.31 645.89 247.79 645.3 247.66 644.79 247.81 653.94 238.12 659.44 220.27 670.42 217.53 671.79 207.91 674.54 199.68 680.03 177.71 673.17 155.74 680.03 148.87 681.4 129.65 686.9 120.04 685.52 111.8 677.28 110.43 684.15 100.82 693.76 91.21 703.82 81.11 705.78 83.33 706.61 85.22 706.86 86.63 707.94 88.97 708.18 90.16 707.9 91.57 706.49 93.97 705.94 95.39 706.92 94.88 707.89 94.69 708.81 94.83 709.66 95.39 710.32 94.17 711.05 93.24 711.66 92.24 712.22 89.23 713.03 88.28 714.23 88.07 715.73 88.66 715.21 89.75 714.91 90.16 716.4 90.53 717.87 91.25 719.18 92.17 721.91 94.67 722.39 95.39 721.91 98.17 722.06 99.17 723.46 102.07 724.49 103.22 725.87 103.69 727.38 103.59 728.89 103.68 729.94 104.54 730.02 106.75 729.24 107.34 728.02 107.67 727.61 108.5 729.2 110.43 730.68 111.23 732.16 111.71 733.3 112.65 733.75 114.88 734.33 116.47 736.85 119.42 737.43 120.49 737.64 126.37 736.68 135.2 736.79 136.87 737.31 139.09 737.43 140.84 737.85 142.22 740.83 146.49 741.17 148.4 740.77 153.09 741.24 154.72 742.73 155.57 744.06 155.18 745.27 154.57 746.41 154.72 747.38 156.29 747.25 158.21 746.41 161.89 746.63 164.83 748.21 171.25 749.47 174.23 749.95 174.82 751.26 175.83 751.72 176.42 751.87 177.27 751.67 179.25 751.72 180.16 752.15 182.44 752.47 183.21 752.74 183.63 753.11 183.86 753.54 184.01 753.99 184.04 754.65 184.2 754.76 184.65 754.74 185.25 755.09 185.88 755.33 187.11 754.45 190.84 755.09 192.6 755.92 193.84 758.45 199 759.43 202.61 760.59 224.46 762.79 232.61 763.09 235.76 762.98 239.66 761.97 242.72 761.66 244.69 761.51 248.55 761.77 250.83 762.52 252.11 765.26 254.58 767.1 257.86 767.18 261 765.82 269.42 764.77 272.81 764.51 274.51 764.7 276.43 766.07 281.65 766.87 293.8 769.86 299.77 770.17 303.76 769.23 307.29 766.76 308.65 767.76 309.99 770.69 311.44 771.99 312.4 772.85 313.82 773.55 315.74 774.86 322.74 782.7 339.61 784.71 342.61 790.03 348.92 791.13 350.69 792.04 354.4 793.2 355.54 794.64 356.34 796 357.36 797.47 360.04 798.38 363.6 799 370.63 798.89 371.29 798.25 373.03 797.21 374.74 797.16 375.49 797.41 376.27 797.57 377.37 797.43 378.14 796.38 380.77 796.16 381.86 796.38 382.94 796.67 383.9 796.75 384.58 796.29 385.44 794.96 386.79 794.5 387.51 793.76 391.33 791.8 396.8 791.59 398.83 790.88 401.77 781.14 419.67 780.29 422.81 781.39 423.44 780.68 424.9 772.75 434.85 770.24 441.01 769 442.4 767.23 442.84 765.48 442.6 763.81 442.66 762.2 443.9 759.99 438.49 758.11 436.74 757.87 436.78 757.86 436.77 757.15 436.2 752.88 423.42 752.63 421.4 752.42 420.56 752.01 419.67 751.01 418.26 750.42 417.19 749.82 415.64 749.43 413.9 749.04 410.49 747.59 406.09 745.81 401.92 745.67 401.1 745.69 400.39 746.79 396.16 746.84 395.5 746.74 392.72 746.83 392.06 746.98 391.45 748.99 386.56 749.14 385.96 749.26 385.34 749.24 384.67 748.73 383.57 744.8 377.76 744.26 376.65 744.16 376.02 744.11 375.36 744.21 374.01 744.74 371.45 744.97 370.92 746.15 369.05 746.35 368.5 746.44 367.87 745.94 366.82 745.04 365.48 742.76 362.91 742.08 361.64 741.89 360.76 742.59 359.93 742.99 359.58 743.36 359.28 744.04 358.89 746.86 357.71 747.34 357.42 747.78 357.09 748.13 356.69 748.34 356.19 748.27 355.58 747.96 354.93 740.69 345.73 738.61 341.69 737.85 340.9 737.42 340.57 736.86 340.31 736.24 340.16 735.21 340.31 734.55 340.56 732.92 341.45 732.34 341.65 731.12 341.62 725.74 340.61 724.09 340.47 722.95 340.53 722.42 340.78 713.48 344.28 712.88 344.45 711.85 343.88 710.55 342.62 708.1 339.29 707.15 337.67 704.97 335.15 698.39 329.53 Z" id="MDG-5879" data-name="Sava"/>
<path d="M 644.79 247.81 645.3 247.66 645.89 247.79 646.57 248.31 647.42 250.12 648.76 254.42 649.1 254.98 649.61 255.51 650.5 256.26 651.1 256.95 651.68 258.16 652.17 258.91 655.19 261.04 659.04 264.88 662.23 267.08 662.64 267.45 663.05 268.02 664.43 270.62 666.47 273.2 668.73 275.14 669.26 275.39 670.43 275.76 671.52 276.24 672 276.55 673.2 277.61 673.68 277.91 675.29 278.64 675.72 278.96 677.34 280.44 677.68 280.98 677.93 281.6 677.97 282.65 677.75 283.28 677.39 283.78 676.03 284.74 675.21 285.43 674.87 285.87 674.31 286.84 674.1 287.38 674.12 287.99 674.43 288.6 676.3 290.18 678.32 292.94 679.34 294.06 680.02 295.15 683.99 303.9 684.14 304.45 684.21 305.02 684.12 305.61 683.8 306.72 683.75 307.24 683.9 307.82 686.03 313.21 686.4 313.89 686.93 314.64 688.05 315.67 689.19 316.42 690.18 316.84 691.18 317.45 696.5 324.35 697.25 325.76 698.39 329.53 697.57 329.46 696.54 329.75 696.01 329.98 695.54 330.29 695.13 330.65 693.2 333.34 692.49 333.95 691.76 334.24 691.08 334.22 690.42 334.12 689.8 333.97 689.33 333.78 688.99 333.6 686.47 331.87 685.98 331.62 685.47 331.49 684.92 331.73 684.53 332.31 684.26 333.5 684.24 334.35 684.28 335.09 684.97 337.49 685.04 338.85 684.89 340.21 684.72 340.81 683.77 343.26 683.6 344.06 683.6 344.76 683.7 345.27 684 346 684.17 346.52 684.28 347.15 684.34 348.54 684.09 350.58 683.78 351.22 683.34 351.82 682.42 352.42 681.71 352.72 680.92 352.88 679.5 352.83 678.17 352.57 676.49 351.94 675.93 351.81 675.32 351.84 674.82 352.13 674.48 352.68 674.39 353.62 674.39 354.41 674.48 355.06 674.72 355.57 675.35 356.45 675.62 356.95 675.79 357.54 675.88 358.2 675.84 358.9 675.76 359.56 675.35 360.68 675.01 361.27 674.53 361.87 673.7 362.49 672.95 362.66 672.29 362.6 670.48 362.07 669.86 362.02 669.26 362.13 668.71 362.34 668.25 362.72 667.25 363.77 666.66 364.07 665.48 364.5 662.46 366.4 661.5 366.65 660.67 366.7 659.26 366.55 658.56 366.58 657.92 366.7 657.34 366.89 656.8 367.12 655.82 367.7 655.31 368.12 654.82 368.66 654.19 369.52 653.7 370.06 653.2 370.5 652.15 370.97 649.77 371.69 646.67 373.23 646.08 373.4 645.43 373.5 644.75 373.5 643.51 373.32 642.85 373.32 642.22 373.42 640.98 373.74 638.15 374.08 636.89 374.38 636.38 374.86 635.96 375.57 635.67 377.06 635.67 377.97 635.87 378.68 636.42 379.66 636.6 380.23 636.74 381.61 636.86 382.24 637.03 382.84 637.56 383.83 637.9 384.25 638.34 384.58 638.85 384.85 639.43 385.05 640.08 385.19 640.79 385.21 641.45 385.13 642.57 384.83 643.17 384.87 643.66 385.09 644.12 385.43 644.6 385.71 645.11 385.9 645.69 385.88 646.73 385.56 647.15 385.56 647.41 385.9 647.47 386.42 647.24 387.21 646.73 388.12 645.55 389.53 643.76 391.09 643.41 391.68 643.1 392.44 642.93 393.85 643.05 394.68 643.27 395.37 643.49 395.89 643.68 396.43 643.76 397.03 643.76 397.69 641.91 411.14 640.55 415.92 640.35 417.23 640.35 417.93 640.42 418.58 640.59 419.17 640.86 419.67 642.22 421.38 642.83 422.33 643.76 424.43 644.48 426.74 645.79 433.02 645.91 434.34 645.82 435.1 645.55 436.05 644.12 438.78 642.57 440.8 639.87 443.6 639.23 444.44 638.45 446.01 637.35 449.22 637.32 449.47 636.33 453.31 634.8 456.77 634.67 457.71 634.85 458.39 635.24 458.76 635.69 459.08 645.93 463.7 649.33 464.24 653.66 464.45 654.92 464.73 656.08 465.16 656.54 465.48 656.9 465.9 657.14 466.41 657.25 467.05 657.29 467.7 657.19 468.97 657.24 469.54 657.92 471.08 658.09 471.69 658.19 472.31 657.95 473.32 657.44 474.57 650.93 486.08 650.42 487.32 650.29 488.55 650.15 489.12 649.83 489.85 648.15 492.3 645.94 493.95 641.62 496.06 641.01 496.23 640.38 496.35 639.7 496.38 639.04 496.67 638.48 497.26 638.04 498.61 637.94 499.53 638.01 501.01 637.73 502.03 637.18 503.27 635.79 505.53 634.65 508.17 634.19 508.92 633.29 509.85 632.25 510.67 631.59 511.33 631.06 512.03 630.69 513.09 630.67 513.83 630.79 514.5 631.37 515.46 632.41 516.73 632.65 517.19 632.61 517.76 632.2 518.27 631.23 518.77 630.45 519.04 625.06 519.97 624.38 519.9 623.75 519.75 621.47 518.92 620.83 518.87 618.95 519.18 617.63 519.12 616.98 519.18 616.38 519.36 615.84 519.58 606.52 525.83 604.48 527.67 603.6 528.35 602.63 528.94 602.12 529.18 601.51 529.32 600.86 529.34 600.26 529.18 599.77 528.88 599.36 528.5 595.86 523.46 594.86 521.43 594.46 520.27 594.21 519.02 594.21 517.6 594.29 516.9 594.63 515.69 595.11 514.64 596.84 511.76 597.3 510.66 597.46 510.06 597.49 509.44 597.35 508.86 597.12 508.37 595.89 507.26 595.54 506.86 595.23 506.39 595.04 505.85 594.97 505.24 595.09 504.03 594.87 501.36 594.72 500.74 594.46 500.24 593.85 499.31 593.61 498.79 593.37 497.16 593.14 496.72 592.74 496.38 591.78 495.8 591.33 495.46 591.03 494.99 590.69 493.81 590.42 493.33 589.65 492.54 587.79 491.3 585.65 490.29 583.27 489.53 582.18 489.06 580.24 487.88 577.22 483.99 575.99 482.91 575.14 482.32 574.6 482.12 573.99 482.07 571.45 482.52 570.07 482.49 569.38 482.52 568.31 482.84 567.81 482.79 567.49 482.45 567.27 481.93 567.13 479.81 566.93 479.24 566.55 478.84 566.03 478.59 564.03 478.21 563.47 477.99 562.95 477.72 562.13 476.98 560.69 476.1 560.28 475.73 558.58 473.6 557.33 472.52 556.86 472.22 556.33 472.01 555.75 471.92 554.56 472.14 553.9 472.2 553.24 472.16 552.61 472.01 551.26 471.87 545.99 472.76 545.41 472.96 543.9 473.76 543.32 473.97 541.37 474.35 540.81 474.55 540.28 474.81 539.71 475.02 539.12 475.17 538.41 475.21 535.67 475.06 535.06 474.92 534.52 474.72 533.5 474.13 532.95 473.92 532.28 473.88 531.66 473.95 530.31 473.93 529.09 473.62 527.98 473.17 527.37 473.04 526.79 473.04 526.21 473.18 525.26 473.71 524.78 473.89 524.45 473.93 523.94 473.86 523 473.34 522.47 473.16 522.03 473.38 521.76 473.97 521.79 475.32 521.71 476.05 521.35 476.84 520.5 477.69 519.12 478.62 518.32 479.37 517.68 480.27 516.95 481.85 516.83 482.62 516.83 483.57 517.64 487.37 517.81 488.73 517.8 489.73 516.91 496.28 516.69 497.02 515.94 498.72 515.77 499.39 515.45 502.01 498.79 497.62 489.18 493.5 483.69 489.38 471.33 489.38 461.72 483.89 452.11 478.4 450.74 468.79 443.87 459.18 435.63 446.82 431.51 423.48 427.4 405.63 431.15 384.91 434.7 386.08 438.68 384.62 440.41 383.47 440.77 381.51 440.34 380.89 439.62 380.73 438.73 380.66 437.77 380.39 436.83 379.84 436.43 379.35 434.59 376.04 433.08 369.08 433.11 368.39 432.76 368.06 431.37 367.98 430.4 368.16 427.23 369.55 426.92 368.15 427.07 366.91 428.11 364.25 426.62 364.44 425.42 364.41 424.6 363.89 423.93 361.66 422.06 360.62 421.31 359.68 421.1 357.2 422.06 354.84 425.05 350.77 428.7 347.62 433.42 344.61 437.52 341.09 439.89 334.61 441.43 332.65 446.95 327.59 449.25 326.29 451.72 325.47 454.31 325.19 455.72 323.99 456.05 321.43 455.34 319.17 453.56 318.83 452.35 319.81 451.71 321.58 450.49 322.2 448.79 322.3 447.76 321.68 446.06 319.2 446.74 319.2 450.04 314.08 463.72 299.98 465.26 298.89 465.97 299.31 466.4 300.53 467.1 301.86 469.34 304.37 469.49 305.52 469 312.24 469.41 313.9 469.88 314.33 470.6 314.57 471.3 315.07 471.64 316.21 471.36 316.51 470.15 319.2 463.85 326.36 462.19 328.94 461.07 332.21 459.95 345.61 460.32 346.93 461.85 347.77 463.15 347.51 466.75 345.58 467.84 344.78 469.82 341.79 470.86 338.73 472.29 335.84 475.39 333.42 476.62 334.34 477 333.33 476.89 330.5 477.5 328.67 485.34 314.1 485.93 310.91 486.41 309.55 489.98 306 490.29 305.09 490.29 303.11 490.7 302.28 491.53 301.64 493.41 300.76 494.03 300.36 496.5 297.58 497.49 295.96 497.9 294.44 498.67 292.77 500.29 291.88 501.84 290.78 502.34 288.45 506.99 294.79 509.13 296.61 510.57 297.17 514 298.1 515.19 298.94 515.76 300.25 515.63 302.79 515.88 304.17 517.47 302.42 517.59 299.98 516.69 297.76 515.19 296.61 518.23 294.25 521.13 294.57 523.31 296.87 524.16 300.4 524 307.85 524.6 309.93 526.42 307.16 527.03 303.94 527 299.44 526 295.43 523.8 293.7 522.32 293.21 520.95 292.06 518.52 289.55 516.46 288.47 514.81 288.72 511.38 290.7 509.96 291.26 508.54 291.54 507.04 291.2 505.39 289.88 504.5 288.34 503.83 286.76 503.08 286.18 499.98 290.34 498.59 291.64 497.49 292.2 496.82 291.34 494.55 287.38 494.03 286.15 494.25 285.7 495.37 284.62 495.59 283.9 495.38 282.85 494.96 282.23 494.47 281.71 492.6 277.91 492.65 277.25 493.1 276.89 493.3 276.57 492.06 275.63 491.86 275.3 492.03 270.58 492.73 266.88 494.09 263.43 496.34 260.64 498.96 259.1 499.77 258.2 500.08 256.45 500.22 253.18 500.68 252.01 501.65 250.85 504.24 250.05 509.34 253.65 512.9 253.45 514.37 253.08 516.54 253.37 517.43 253.08 518.38 251.86 519.08 250.08 519.51 248.19 519.67 246.68 519.27 244.18 518.19 241.16 516.52 238.55 514.38 237.31 515.81 235.81 518.17 236.45 522.67 239.62 523.55 240.07 524.5 240.43 525.39 240.91 526.07 241.79 526.21 243.21 525.51 244.26 524.6 245.29 524.16 246.68 523.8 249.47 522.22 255.14 521.86 257.97 521.84 258.96 522 260.68 522.68 262.04 524.16 262.07 524.89 261.18 524.95 259.94 524.8 258.66 524.91 257.64 525.77 256.97 527.18 256.1 528.29 255.14 528.29 254.2 527.43 253.22 526.58 251.97 525.94 250.62 525.72 249.35 526.52 246.94 529.48 243 530.15 240.66 530.15 238.12 529.85 235.6 528.88 233.65 527.98 233.35 527.98 233.34 528.02 233.32 528.82 232.62 529.19 232.36 530.04 231.62 530.28 231.19 530.19 230.6 529.02 228.92 529.02 228.36 529.34 227.99 531.79 227.35 532.32 227.11 532.74 226.84 533.19 226.41 533.3 226.24 533.5 225.9 533.61 225.4 533.6 224.79 533.46 224.19 533.08 223.08 532.96 222.54 533.07 221.97 533.37 221.56 533.81 221.24 538.07 219.35 538.53 219.05 540.64 217.32 541.59 216.74 545.84 214.86 549.5 212.32 550.53 211.8 551.08 211.59 551.64 211.58 552.15 211.89 552.42 212.77 552.39 213.45 552.19 214.06 551.93 214.57 551.3 215.47 549.51 217.54 549.24 218.01 547.93 219.77 545.29 221.74 544.97 222.19 544.73 222.71 544.21 225.23 544.21 226.5 544.32 227.35 544.46 227.91 544.87 228.43 545.51 228.82 546.81 229.02 547.56 228.87 548.14 228.56 548.82 227.72 549.21 227.36 549.72 227.23 550.35 227.42 551.72 228.9 554.5 232.55 555.18 233.06 559.38 235.31 559.97 235.72 561.89 237.39 563.22 238.27 565.82 239.54 567.17 239.91 568.22 240.03 568.83 239.88 570.51 239.25 573.2 238.87 574.97 238.31 578.1 236.84 579.04 236.24 580.3 235.19 580.74 234.88 581.25 234.61 581.81 234.44 582.78 234.83 584.01 235.76 588.13 240.32 588.8 240.81 590.08 241.4 593.54 242.52 594.1 242.86 600.93 248.03 601.52 248.34 602.08 248.54 602.75 248.58 603.38 248.49 603.97 248.34 605.63 247.71 606.26 247.59 607.61 247.59 608.27 247.52 608.8 247.3 609.67 246.63 610.18 246.39 610.89 246.55 611.62 247.06 613.99 250.56 614.29 251.15 614.52 252.49 614.79 252.99 615.2 253.28 615.91 253.2 616.37 252.87 616.76 252.43 617.05 251.97 617.83 251.21 620.66 249.42 622.88 248.58 623.37 248.31 623.78 247.94 626.66 243.9 627.07 243.54 627.54 243.25 628.09 243.03 629.38 242.77 630.97 242.1 631.71 242.13 632.49 242.43 633.7 243.23 634.36 243.58 635.08 243.79 637.1 244.07 637.78 244.27 638.45 244.52 644.26 247.73 644.79 247.81 Z" id="MDG-5880" data-name="Sofia"/>
<path d="M 510.91 839.52 510.91 840.24 510.74 841.06 510.31 842.04 509.05 843.68 508.68 844.43 508.56 845.7 508.71 852.41 508.95 853.68 509.25 854.73 509.43 855.61 509.43 856.25 509.14 859.01 508.12 861.58 504.72 867.03 503.97 867.84 502.3 869.28 500.43 870.55 499.62 871.31 499.28 871.74 498.66 872.69 498.41 873.33 498.22 874.15 498.24 877.96 498 878.93 497.59 880.08 494.6 885.2 494.1 887.06 493.65 892.22 493.34 891.55 493.05 891.21 492.64 890.83 492.13 890.55 491.57 890.33 489.02 889.85 488.29 889.64 487.71 889.34 487.37 888.95 487.22 888.45 487.32 887.93 487.57 887.46 488.34 886.66 488.64 886.24 488.76 885.72 488.63 885.22 488.19 884.84 487.54 884.68 486.44 884.93 485.76 885.22 485.23 885.64 483.71 887.25 483.25 887.56 482.64 887.76 479.26 888.29 478.12 888.73 472.58 891.8 472.01 891.9 471.43 891.77 470.96 891.18 470.4 890.02 470.04 889.6 469.58 889.27 468.93 889.08 468.2 889.04 467.15 889.41 466.64 889.9 466.3 890.47 466.06 891.02 465.73 891.48 465.31 891.84 464.51 891.99 463.37 891.89 456.59 890.19 456.04 889.95 454.7 888.93 454.19 888.64 453.51 888.46 452.66 888.45 451.42 888.68 449.33 889.3 448.88 889.53 448.61 889.75 446.99 891.7 446.59 892.08 446.02 892.24 445.29 892.08 444.46 891.45 444 890.87 443.68 890.27 443.36 889.82 442.88 889.51 442.25 889.43 441.47 889.68 440.94 890.02 440.46 890.41 439.02 891.31 438.59 891.67 437.83 892.46 437.49 892.92 437.22 893.43 437.05 894.02 436.98 896.01 436.42 899.29 436.27 899.89 435.67 900.28 434.66 900.43 432.74 900.45 430.87 900.81 428.72 901.77 427.84 901.94 422.79 902.18 419.48 903.57 418.75 903.65 417.86 903.53 415.79 902.62 414.56 901.88 414.02 901.65 413.34 901.52 412.29 901.67 411.62 901.96 410.17 902.96 409.8 903.36 408.83 904.75 405.43 908.37 402.93 910.55 402.22 911.4 401.81 911.78 401.37 912.12 400.75 912.38 398 912.54 396.96 912.76 395.16 913.92 392.98 914.66 390.85 913.63 388.99 912.3 387.44 912.8 385.63 913.8 382.96 914.04 380.55 913.36 373.23 909.85 371.46 910.22 369.63 912.06 367.55 913.74 365 913.63 364.15 912.89 363.57 912.04 362.95 911.33 361.98 911.05 360.64 910.98 358.56 910.56 356.36 909.78 355.42 909.25 354.39 908.86 353.03 908.8 351.76 909.22 349.14 910.72 347.72 911.05 345.61 910.56 343.09 909.4 338.68 906.55 336.73 904.78 335.63 902.94 336.07 901.21 338.68 899.75 337.66 898.52 336.56 895.89 335.68 894.51 337.36 893.97 338.02 892.54 337.87 890.76 337.11 889.21 335.89 888.23 332.6 886.62 331.2 885.46 330.35 887.26 329.33 888.24 326.64 890.02 324.02 893.05 323.2 893.15 322.89 890.77 322.33 888.53 320.93 887.93 319.11 887.72 317.25 886.66 316.38 884.9 315.8 881.05 314.6 879.48 313.62 879.15 311.63 879.49 310.85 879.48 310.02 878.98 308.59 877.67 307.86 877.23 300.79 876.86 295.4 874.56 292.89 874.07 292.1 873.82 291.31 873.87 290.24 874.62 289.56 874.94 288.65 875.09 287.69 875.1 286.91 874.99 284.11 873.52 281.69 871.13 284.34 868.05 284.9 867.05 285.09 866.46 285.4 864.43 285.57 863.83 286.04 862.85 286.79 862.09 287.68 861.4 288.48 860.63 289.09 859.69 289.33 859.15 289.51 858.54 289.87 854.3 289.77 853.47 289.07 851.1 288.85 849.97 288.7 848.32 288.46 847.09 286.07 841.73 285.02 837.81 284.58 836.83 284.15 836.14 283.76 835.75 283.49 835.09 283.42 834.2 283.61 832.7 283.9 831.87 284.24 831.21 284.44 830.65 284.49 829.95 284.27 823.94 303.82 825.77 323.05 823.03 349.13 818.91 360.12 821.65 368.36 820.28 377.97 810.67 391.7 802.43 405.43 799.69 417.78 801.06 421.9 806.55 437.01 809.3 452.11 809.3 463.09 802.43 467.21 791.45 479.57 791.45 476.82 806.55 476.82 820.28 496.05 828.52 510.91 839.52 Z" id="MDG-5881" data-name="Vakinankaratra"/>
<path d="M 592.11 929.99 592.11 929.99 586.19 947.23 575.25 986.15 574.09 987.92 572.63 989.64 571.72 991.3 572.18 992.88 573.62 991.49 574.43 991.89 574.7 993.34 574.5 995.13 573.79 996.75 571.84 1000 571.43 1001.9 571.06 1005.64 570.03 1009.36 566.06 1018.12 565.67 1019.62 565.46 1022.95 563.66 1032.35 562.06 1036.31 560.53 1039.03 546.69 1080.84 532.75 1111.09 518.81 1141.35 517.29 1148.57 513.68 1155.91 511.69 1168.46 500.17 1159.42 486.43 1159.42 472.7 1153.92 468.59 1141.57 458.97 1136.08 454.86 1140.19 445.24 1138.82 427.4 1130.58 421.9 1122.34 434.26 1115.48 450.74 1107.24 446.62 1099 450.74 1090.77 454.86 1074.29 461.72 1042.71 457.6 1033.1 454.86 1024.86 460.35 1012.5 464.47 991.91 465.84 974.06 471.33 968.57 479.57 967.19 480.94 960.33 482.32 945.23 490.55 942.48 500.58 933.41 501.28 933.59 501.99 933.61 503.29 933.35 506.16 933.2 506.81 933.08 507.39 932.86 509.36 931.62 509.91 931.4 510.52 931.21 511.2 931.11 511.91 931.07 513.34 931.22 514.7 931.49 515.42 931.57 516.15 931.58 516.86 931.5 517.47 931.34 517.98 931.06 519.22 929.96 520.68 929.07 521.26 928.85 522.56 928.56 523.9 928.42 524.92 928.46 525.52 928.57 527.5 929.76 529.62 931.38 530.81 932.06 531.77 932.45 532.47 932.44 533.07 932.26 533.58 931.98 533.95 931.59 534.18 931.13 534.16 930.58 533.41 929.08 533.26 928.51 533.2 927.88 533.3 927.27 533.68 926.1 537.03 920.89 537.22 920.31 537.32 919.64 537.69 918.45 538 917.98 539.1 916.75 539.33 916.23 539.54 915 539.77 914.46 540.09 914 540.79 913.2 540.89 912.73 540.72 912.26 540.13 911.33 539.94 910.81 539.94 910.24 540.16 909.75 540.47 909.31 540.88 908.95 541.37 908.64 542.01 908.42 542.76 908.3 543.75 908.26 544.43 908.42 544.99 908.71 545.4 909.07 545.74 909.5 548.05 913.36 548.43 913.76 550.35 915.11 552.76 916.45 554.09 916.97 555.23 917.26 555.99 917.24 556.71 917.17 560.13 916.31 561.3 916.21 562 916.41 562.68 916.81 563.3 917.36 565.18 918.58 565.72 919.04 566.06 919.48 566.52 920.56 566.66 921.18 566.66 922.59 566.59 923.28 566.72 924.07 567.1 924.84 568.07 925.76 568.92 926.14 574.41 927.31 582.18 927.25 591.2 929.58 592.11 929.99 Z" id="MDG-5882" data-name="Vatovavy-Fitovinany"/>
</g>
</svg>