<?xml version="1.0"?>
<svg xmlns="http://www.w3.org/2000/svg" version="1.2" baseProfile="tiny" width="800" height="295" viewBox="0 0 800 295" stroke-linecap="round" stroke-linejoin="round">
<g id="ne_10m_admin_1_states_provinces">
<path d="M 299.86 23.06 299.79 23.38 299.47 24.07 299.15 24.43 298.72 24.76 298.15 24.98 294.58 25.18 294.1 25.41 293.73 25.82 293.51 26.42 293.29 28.25 292.9 29.14 292.3 29.9 291.54 30.49 290.66 30.88 289.69 31.02 288.68 30.87 282.52 26.82 281.7 26.58 281.04 26.71 280.59 27.28 279.26 32.15 277.77 33.03 277.25 33.49 276.83 34.02 276.59 34.61 276.65 35.85 276.49 36.36 276.17 36.77 273.51 38.35 273.01 38.77 270.85 42.33 269.19 42.99 268.65 43.37 268.24 43.82 268.05 44.36 268.19 44.99 274.83 58.26 283.24 62.69 284.16 65.4 283.35 65.76 282.91 66.18 282.57 66.64 282.4 67.04 282.27 67.58 282.27 68.3 282.13 69.26 281.72 70.18 281.54 70.47 281.36 70.71 280.61 71.06 279.65 71.39 276.21 73.22 275.19 73.61 274.49 73.8 273.87 73.76 273.25 73.65 271.69 73.2 270.73 73.09 270.3 73.32 270.18 73.79 270.35 74.26 270.9 75.31 271.08 75.76 271.14 76.22 271.01 76.98 270.99 77.38 271.14 77.76 271.57 78.6 271.74 79 271.74 79.44 271.63 79.72 271.06 80.27 270.86 80.54 270.61 81.03 270.2 81.63 269.27 82.52 268.34 82.85 267.42 82.97 265.35 82.88 262.02 83.06 261.1 83.23 260.11 83.64 257.56 85 256.71 85.27 256.1 85.37 252.25 84.44 242.95 85.46 240.57 85.27 237.8 84.63 234.91 84.27 229.99 84.37 228.56 84.58 227.64 84.86 227.15 85.37 226.88 85.88 226.75 86.53 226.72 87.03 226.88 87.78 226.84 88.18 226.6 88.62 225.9 89.31 224.99 89.55 224 89.61 222.4 89.54 221.29 89.83 214.29 92.64 213.58 93.16 212.84 93.81 212.16 94.26 210.85 94.92 210.02 95.01 209.13 94.79 208.36 94.43 207.41 94.17 206.4 94.22 195.15 97.98 193.08 98.33 192.49 98.33 192 98.23 191.27 98 190.54 97.87 189.24 97.86 188.23 98.08 187.37 98.41 186.97 98.63 185.86 99.37 180.82 101.49 173.91 103.33 172.53 103.83 171.87 104.31 170.3 105.92 169.17 107.66 168.03 108.58 166.66 109.18 163.63 111.13 162.46 111.51 160.63 111.84 159.14 112.33 157.92 113.46 155.41 114.61 153.78 114.6 148.47 113.74 147.39 113.39 146.64 112.88 145.35 111.73 144.26 110.94 142.88 110.14 140.41 109 139.53 108.42 139.16 108.05 139.36 107.57 139.58 107.31 141.29 105.88 141.77 105.39 142.17 104.86 141.91 103.89 141.13 102.6 138.63 100.13 137.74 98.94 137.37 97.98 137.64 97.43 137.87 96.85 137.97 96.23 137.83 95.01 137.41 93.5 137.21 92.11 137.17 91.32 137.39 88.77 137.35 87.76 137.15 86.74 136.57 85.18 135.96 84.42 135.21 83.86 133.39 83.22 130.06 82.68 126.47 82.56 123.53 82.17 122.03 81.45 121.16 80.72 120.39 79.71 119.79 79.21 119.07 78.86 111.36 78.29 109.35 77.56 105.39 75.45 107.97 73.83 109.64 72.56 110.41 70.41 111.17 65.6 112.15 65.17 113.14 65.01 114.11 65.15 115.03 65.59 116.07 65.78 117.16 65.84 118.27 65.79 119.35 65.6 119.36 65.6 119.38 65.59 122.71 64.85 128.93 65.09 131.84 63.7 133.53 61.74 137.46 55.05 139.75 55.19 141.67 56.04 143.63 56.6 146.11 55.79 147.37 53.4 148.02 52.65 152.45 50.65 153.16 50.16 153.23 49.73 153.56 49.59 155 49.92 155.64 50.38 157.3 52.16 158.08 52.78 160.71 53.6 162.91 53.25 164.91 52.1 166.96 50.47 168.13 50.05 168.84 49.49 168.94 48.78 168.26 47.83 170.23 46.89 171.8 45.59 172.26 44 170.9 42.19 175.73 40.34 181.08 39.7 191.68 39.73 193.96 39.45 198.45 38.39 201 38.23 206.41 38.61 208.53 38.34 211.95 36.98 212.67 36.97 213.35 36.82 214.16 36.09 214.22 35.46 213.94 34.63 213.79 33.63 214.29 32.49 215.38 31.64 216.38 31.61 217.52 31.83 219.01 31.69 220.22 31.12 222.03 29.66 223.29 29.08 225.6 28.77 229.92 29.12 232.19 29.02 250.58 23.67 252.02 22.82 254.18 20.76 255.46 19.96 259.71 19.4 268.96 19.86 272.43 18 273.14 15.06 269.99 13.91 265.63 13.1 262.62 11.21 262.73 9.97 263.73 9.54 263.91 9.3 261.56 8.69 257.57 8.36 256.19 7.79 257.51 6.59 259.17 3.19 262 1.38 265.76 1 270.15 1.91 271.04 2.42 271.66 3.07 272.43 3.72 273.71 4.16 275.01 4.17 278.32 3.25 282.6 3.4 283.94 2.96 284.97 1.33 285.65 2.33 285.91 3.04 286.31 3.75 287.42 4.72 288.88 5.36 292.07 5.87 293.52 6.59 294.95 7.68 295.85 8.61 296.21 9.77 296 11.54 295.08 12.96 293.67 14.66 293.02 16.1 294.37 16.78 300.9 15.06 302.33 15.08 302.96 16.42 302.28 17.98 300.28 20.95 299.86 23.06 Z" id="CZE-10368" data-name="Ústecký"/>
<path d="M 157.92 113.46 159.33 115.82 159.38 116.33 159.33 116.96 158.98 117.54 158.51 118.17 158.01 119.01 158.03 119.52 158.47 119.89 159.05 120.04 159.71 120.1 160.3 120.08 161.58 119.87 163.98 119.01 164.58 118.89 165.26 118.9 166.82 119.3 168.76 119.59 170.81 120.23 176.54 123.79 177.59 124.21 179.7 124.38 181.34 124.28 182.94 124.04 183.89 123.99 185.06 124.04 187.28 124.45 188.56 124.83 189.59 125.27 192.68 127.46 193.48 127.91 194.15 128.14 198.08 128.92 198.83 129.23 199.32 129.66 199.44 130.12 199.69 130.66 205.88 132.69 206.93 133.41 207.43 133.97 207.24 134.39 207.17 134.9 207.21 135.4 207.41 136 208.56 138.52 208.69 139.1 208.63 139.41 208.5 139.62 208.21 139.74 207.72 139.89 207.08 140.02 205.94 140.09 205.59 140.15 205.33 140.32 205.08 140.72 205.04 141.23 205.11 142.25 205.08 142.78 204.97 143.23 204.84 143.56 203.36 145.97 203.36 146.3 203.43 146.71 203.7 147.41 203.83 147.91 203.76 148.51 202.59 151.12 202.39 151.72 202.35 152.42 202.51 152.72 202.81 152.89 203.96 153.19 204.8 153.51 205.09 153.91 205.11 154.27 204.73 154.79 201.8 156.92 200.89 157.47 199.98 157.76 196.53 158.32 195.04 158.72 193.71 159.26 192.31 160.14 191.67 160.7 191.36 161.26 191.83 161.74 193.63 162.79 193.78 163.22 193.59 163.56 192.64 163.92 191.93 164.31 191.95 164.47 193.47 165.07 193.76 165.38 193.84 165.67 193.63 165.98 192.93 166.37 192.62 166.68 192.51 167.1 192.79 168.01 193.26 168.43 193.85 168.7 194.38 168.81 194.97 169 195.76 169.37 196.8 170.16 197.26 170.75 197.48 171.41 197.37 174.33 197.53 175.54 197.83 176.25 198.23 176.79 199.36 177.69 200.17 178.49 200.43 179.32 200.43 180 200.08 181.15 199.57 182.18 199.34 182.51 199.2 182.92 199.22 184 200.89 186.43 202.39 190.25 202.55 191.26 202.44 191.85 201.62 194.06 201.42 195.88 201.67 197.34 202.31 199.42 202.46 200.42 202.31 201.22 201.82 201.94 199.54 204.43 198.48 205.95 197.83 207.43 197.35 208.26 196.95 208.77 196.38 209.09 194.33 209.9 193.85 210.18 193.29 210.65 193.14 211.11 193.18 211.5 193.84 212.62 193.84 213.28 193.69 213.74 193.32 214.18 192.57 214.82 192.15 215.28 192.07 215.74 192.24 216.15 192.71 216.59 194.37 217.7 194.88 218.53 194.79 218.97 194.15 219.36 193.19 219.59 191.96 220.11 190.9 220.79 187.79 224.65 186.65 225.67 186.19 225.89 185.68 225.96 184.25 225.77 183.16 226.11 181.91 227.03 180.39 229.61 179.97 231.32 180.03 232.59 180.22 233.27 180.33 233.86 180.3 234.88 179.95 235.57 179.4 236.2 176.86 237.85 174.11 240.66 171.54 244.25 171.69 245.36 171.7 245.39 171.69 245.39 170.93 245.28 169.3 245.78 168.18 247.08 166.96 249.13 164.2 248.26 160.47 246.5 157.08 244.41 155.38 242.59 155.31 239.28 153.99 237.23 148.98 233.87 145.39 230.72 143.95 229.9 141.58 229.3 134.45 229.09 131.11 227.8 129.23 225.82 127.68 223.5 116.63 213.66 115.16 213.12 115.14 213.11 115.14 213.1 111.37 210.17 110.83 209.07 110.67 207.93 110.02 206.96 107.97 206.41 104.65 204.11 102.94 203.21 100.94 202.51 96.43 201.69 94.8 202.03 95.33 203.55 93.12 203.74 86.17 203.08 83.83 202.52 81.96 201.26 78.09 195.61 75.71 194 70.27 192.33 67.97 191.08 66.63 189.37 66.04 187.46 65.7 183.59 65.54 181.6 64.66 181.13 63.42 181.25 62.09 180.99 60.81 180.12 59.88 179.23 59.14 178.18 58.38 176.76 57.9 175.38 57.36 172.76 56.53 171.48 55.28 170.59 52.46 169.58 51.26 168.63 51.34 168.34 51.9 167.42 50.96 167.12 50.66 166.96 51.66 165.51 51.57 163.95 50.6 162.7 48.96 162.14 45.04 160.92 43.23 160.12 41.53 159.13 39.1 156.85 37.88 155.34 37.29 154.1 38.68 152.32 43.56 150.98 45.44 149.75 45.82 147.81 45.88 145.33 46.6 143.67 48.96 144.14 49.83 142.31 52.55 139.06 53.5 137.26 53.87 134.96 59.45 135.65 60.57 135.52 61.45 135.2 64.65 133.11 65.27 132.93 65.93 132.91 69.41 133.75 71.47 133.89 73.16 133.71 73.72 133.47 77.28 130.77 78.06 130.5 87.23 130.62 89.8 132.37 90.25 132.54 90.68 132.6 91.12 132.53 94.06 131.12 94.99 130.95 95.39 130.98 98.55 132.01 100.46 132.3 101.21 132.16 101.71 131.75 103.3 126.76 103.77 126.16 104.4 125.8 115.33 121.97 117.87 120.17 119.11 119.67 119.65 119.6 127.79 120.62 132.01 123.69 133.53 124.08 135.13 124.05 135.77 123.86 136.22 123.56 136.39 123.12 135.01 119.62 134.91 118.93 134.96 118.33 135.2 117.86 135.66 117.55 142.5 116.58 143.03 116.26 142.94 115.83 142.12 114.59 141.83 113.87 141.72 113.14 141.84 112.43 142.26 111.8 143.04 111.29 144.26 110.94 145.35 111.73 146.64 112.88 147.39 113.39 148.47 113.74 153.78 114.6 155.41 114.61 157.92 113.46 Z" id="CZE-10369" data-name="Plzeňský"/>
<path d="M 557.26 170.02 556.78 171.45 556.23 172.34 555.59 172.8 554.87 172.92 551.12 172.34 550.28 172.52 549.95 172.98 550.05 173.67 550.5 174.5 552.1 176.26 557.14 179.52 557.42 179.9 557.42 180.22 557.11 180.47 555.78 180.9 555.52 181.38 555.59 182.05 555.89 182.84 558.82 187.71 558.97 188.38 558.96 189.02 558.78 189.63 558.42 190.2 557.86 190.75 557.1 191.26 556.58 191.79 556.67 192.36 557.25 192.97 563.66 196.22 564.67 196.18 565.72 195.88 566.76 195.37 568.67 194 570.04 192.59 570.39 191.93 570.48 191.2 570.36 190.44 570.08 189.69 569.25 188.3 567.1 185.95 566.92 185.54 566.84 185.04 567.05 183.63 567.49 182.92 568.25 182.51 569.25 182.34 570.42 182.38 575.02 183.63 575.86 184.12 577.3 185.61 578.36 187.39 579.15 190.14 579.55 190.74 580.14 191.38 585.62 194.86 586.02 195.29 586.3 195.8 586.46 196.39 586.28 198.7 586.64 199.35 587.31 199.89 589.28 200.64 593.69 201.53 596.09 203.05 598.31 205.2 599.71 207.33 599.92 208.19 599.87 208.87 599.74 209.42 599.65 209.63 599.53 209.89 597.59 212.17 597.32 212.94 597.42 213.93 598.46 216.24 600.07 218.43 601.58 219.81 604.67 221.01 605.17 221.35 605.58 221.82 605.89 222.47 605.96 223.15 605.73 223.73 605.24 224.2 603.77 224.89 600.57 225.67 599.99 226.03 596.94 228.9 595.14 229.96 594.92 230.51 595.18 231.07 595.81 231.59 596.7 232.06 598.86 232.67 600.91 232.69 606.66 231.39 607.55 231.43 608.22 231.73 608.55 232.31 608.62 233.11 608.31 236.78 608.55 237.4 609.02 237.86 609.67 238.23 614.52 239.73 621.82 240.72 622.39 240.97 622.84 241.43 623.44 242.67 623.82 244.37 628 245.54 630.11 246.66 631.38 247.95 632.15 248.24 633.02 248.31 633.94 248.19 637.69 246.85 641.17 247.16 643.88 247.88 644.33 248.17 645.1 249.02 645.69 250.12 646.06 251.34 646.41 251.87 647.17 252.23 653.57 253.48 654.69 254 655.61 254.75 656.38 255.69 657.51 257.78 658.38 260.44 645.29 263.84 640.97 263.4 637.36 260.88 635.64 260.33 632.84 260.87 630.67 261.81 628.37 262.81 626.32 263.06 612.86 258.56 607.18 257.58 601.9 258.32 595.56 261.37 594.49 262.47 593.79 264.7 592.09 266.12 588.03 268.44 585.13 271.71 579.16 283.1 577.81 284.74 575.94 286.25 575.65 288.49 571.58 285.35 569.94 277.54 567.15 274.94 565.21 274.84 560.67 275.91 558.4 276.09 556.23 275.55 551.96 273.68 550.16 273.27 545.67 273.39 543.79 273.18 542.24 272.46 541.39 271.06 540.95 269.36 540.02 267.94 537.76 267.34 535.58 267.17 528.53 265.81 526.52 264.96 525.43 264.72 524.35 264.81 522.21 265.41 520.99 265.45 517.59 265.12 515.54 266.02 509.55 272.8 508.26 273.6 506.4 273.96 505.74 273.82 504.18 272.98 501.73 273.22 501.6 273.3 485.09 271.69 474.19 272.12 467.93 270.33 456.06 264.62 455.89 264.03 455.89 263.22 455.27 262.71 453.27 263.05 453.14 261.81 452.27 261.28 450.94 261.24 449.45 261.47 450.66 260.42 449.67 260.46 448.79 260.2 447.5 259.57 445.24 259.46 444.44 259.24 443.85 258.64 443.37 257.18 442.69 256.84 439.08 256.85 438.06 257.01 433.86 258.48 431.87 258.89 429.15 258.89 426.5 258.48 417.34 255.07 410.32 253.27 410.32 253.24 410.62 252.12 411.11 251.41 411.55 250.47 413.35 247.48 413.92 246.24 413.92 245.76 414.25 245.22 414.79 244.89 415.49 244.78 416.29 244.86 417.15 245.16 418.01 245.66 420.24 247.98 420.93 248.23 421.6 248.14 422.22 247.8 423.17 246.88 423.55 246.37 424.36 245.71 425.6 245.07 426.35 244.87 427.15 244.84 427.97 245.04 431.51 247.06 432.2 247.22 432.93 247.15 441.47 242.05 444.79 241.05 448.88 241.31 449.64 241.05 450.23 240.55 450.82 238.89 451.28 238.33 451.86 238 452.48 237.85 453.59 237.86 454.08 237.96 457.13 235.47 458.01 235.16 458.79 235.2 459.4 235.74 459.91 236.45 460.48 236.95 461.1 237.28 462.51 237.54 466.05 237.44 466.78 237.24 468.88 236.21 469.41 236.12 477.55 237 478.77 236.71 479.76 236.19 482.2 233.8 482.68 233.51 490.98 231.76 493.56 229.68 494.38 228.53 494.57 227.96 494.57 227.41 494.36 226.89 493.41 225.37 493.25 224.84 493.26 224.29 493.49 223.72 493.98 223.11 495.64 221.8 496.16 221.16 496.41 220.54 496.41 219.98 496.17 219.47 495.74 219.04 495.12 218.71 493.65 218.22 493.17 217.78 492.87 217.21 492.76 216.54 492.93 215.06 493.47 213.61 493.9 213.07 494.47 212.71 496.96 212.06 497.32 211.8 497.46 211.4 497.38 210.96 497.19 210.6 496.36 209.6 496.15 209.16 496.06 208.59 496.13 207.86 496.39 207.05 496.83 206.3 498.07 204.98 499.56 204 509.85 199.89 510.32 199.32 510.45 198.61 510.3 197.79 508.08 193.25 507.84 192.4 507.58 187.02 506.89 185.44 506.94 184.89 507.27 184.5 507.8 184.24 511.34 183.82 511.81 183.46 512.14 182.91 512.34 182.25 512.39 181.52 512.29 180.79 512.04 180.11 511.62 179.53 508.38 177.43 508.07 176.92 508.09 176.3 509.56 173.95 510.11 172.58 510.37 171.28 513.22 171.44 527.21 170.56 528.25 170 528.63 169.51 528.85 168.74 529 167.75 529.6 167.24 530.63 166.96 536.93 166.94 537.82 167.09 539.3 167.56 540.37 167.64 544.35 167.45 547.3 167.63 550.06 168.26 555.98 170.2 557.26 170.02 Z" id="CZE-10370" data-name="Jihomoravský"/>
<path d="M 745.84 197.2 745.62 201.38 742.84 202.8 738.47 205.04 722.59 209.09 719.11 211.24 716.27 214.26 714.06 217.86 712.56 221.74 712.14 224.9 712.16 225.61 712.31 230.88 711.53 233.48 709.07 236.2 705.6 238.33 701.68 239.51 695.35 239.19 692.5 239.48 690.02 240.53 688.46 242.59 687.73 244.34 686.81 248 685.85 249.61 683.68 251.01 681.42 251.1 678.93 250.82 676.03 251.15 674.13 252.19 670.05 256.81 667.97 257.95 658.38 260.44 657.51 257.78 656.38 255.69 655.61 254.75 654.69 254 653.57 253.48 647.17 252.23 646.41 251.87 646.06 251.34 645.69 250.12 645.1 249.02 644.33 248.17 643.88 247.88 641.17 247.16 637.69 246.85 633.94 248.19 633.02 248.31 632.15 248.24 631.38 247.95 630.11 246.66 628 245.54 623.82 244.37 623.44 242.67 622.84 241.43 622.39 240.97 621.82 240.72 614.52 239.73 609.67 238.23 609.02 237.86 608.55 237.4 608.31 236.78 608.62 233.11 608.55 232.31 608.22 231.73 607.55 231.43 606.66 231.39 600.91 232.69 598.86 232.67 596.7 232.06 595.81 231.59 595.18 231.07 594.92 230.51 595.14 229.96 596.94 228.9 599.99 226.03 600.57 225.67 603.77 224.89 605.24 224.2 605.73 223.73 605.96 223.15 605.89 222.47 605.58 221.82 605.17 221.35 604.67 221.01 601.58 219.81 600.07 218.43 598.46 216.24 597.42 213.93 597.32 212.94 597.59 212.17 599.53 209.89 599.65 209.63 599.77 209.82 600.29 210.43 600.67 210.72 601.13 210.92 601.65 210.98 602.24 210.85 602.74 210.47 603.03 209.89 603.55 207.72 603.87 207.11 604.41 206.69 605.23 206.53 612.92 206.41 613.39 206.47 613.78 206.45 614.31 206.28 614.69 206 615.26 205.42 615.9 204.89 619.93 202.35 620.33 202.02 621.39 200.6 620.37 199.76 619.42 197.75 619.6 195.73 620.09 193.83 622.3 194.02 623.04 194.08 624.86 194.52 627.77 196.15 630.26 197.03 631.31 197.17 636.37 198.66 637.59 198.82 638.28 198.66 639.02 198.24 639.6 197.58 640.15 196.8 640.72 196.14 641.21 195.73 641.81 195.41 643.35 194.84 645.39 194.29 646.3 194.14 654.71 194.25 655.55 194.17 656.27 193.97 656.78 193.64 657.17 193.28 657.41 192.79 657.41 192.27 657.11 191.51 656.34 190.32 656.17 189.85 656.39 189.5 656.83 189.26 658.26 188.89 659.6 188.78 661.39 188.82 671.76 190.19 674.94 189.27 674.61 188 674.57 186.84 674.68 186.26 674.94 185.73 675.31 185.32 675.74 185.07 677.2 184.54 677.68 184.24 678.11 183.77 678.87 182.35 679.36 181.81 679.92 181.47 680.53 181.3 681.15 181.3 681.78 181.46 682.37 181.76 683.48 182.59 684.16 182.82 685.62 182.91 687.33 182.63 689.1 179.53 694.3 179.59 694.78 179.77 695.19 180.09 695.52 180.59 696.01 182.05 696.47 182.64 697.12 183.07 697.95 183.35 698.95 183.49 717.35 182.3 718.46 182.6 722.01 184.24 722.81 184.43 731.78 184.34 733.8 184.85 734.4 185.27 736.85 188.7 737.65 189.29 739.68 190.12 740.41 190.67 740.92 191.34 741.27 192.09 742.21 195.47 742.64 196.18 743.21 196.68 743.86 197 744.54 197.18 745.84 197.2 Z" id="CZE-10371" data-name="Zlínský"/>
<path d="M 575.53 74.15 577.27 74.81 580.01 74.61 592.13 76.78 593.42 77.28 596.17 78.76 597.68 79.27 599.3 79.29 602.9 78.81 604.28 79.08 604.02 79.41 604.43 80.69 605.16 82.21 605.87 83.24 607.02 84.04 611.18 85.73 613.99 86.24 619.53 86.14 621.97 86.81 619.8 87.37 620.13 87.81 620.54 88.21 621.03 88.55 621.57 88.85 621.42 90.39 621.65 91.88 622.47 93.09 624.04 93.86 625.32 91.7 627.93 91.57 629.79 98.54 629.68 99.09 629.35 99.7 628.84 100.31 628.19 100.86 627.44 101.29 626.62 101.53 625.77 101.52 624.14 100.85 623.42 100.79 622.76 100.96 622.16 101.31 619.44 103.87 609.88 107.29 608.32 108.46 607.74 109.17 607.36 110 607.11 111.79 606.82 112.43 605.62 113.68 605.35 114.11 605.27 114.64 606.61 118.12 606.65 118.69 606.51 119.22 606.12 119.73 599.1 126.07 598.64 126.67 598.33 127.31 598.21 127.97 598.26 128.63 598.52 129.27 598.99 129.87 602.3 131.96 602.57 132.29 602.62 132.65 602.41 133.04 599.02 135.91 598.67 136.49 598.45 137.16 597.89 141.45 598 141.97 598.29 142.42 598.81 142.8 600.35 143.25 605.45 143.68 605.96 143.91 606.24 144.22 606.57 145.42 606.82 145.8 607.3 146.12 617.4 149.44 618.23 149.45 621.55 148.28 622.38 148.19 623.21 148.4 632.29 154.74 634.02 155.31 640.01 155.52 642.75 154.14 643.39 153.95 644.07 153.98 648.39 155.87 651.4 156.02 655.68 155.1 659.09 156.16 661.83 157.68 662.35 158.22 662.55 158.73 661.88 162.63 661.99 163.4 662.34 164.04 662.99 164.48 663.8 164.65 664.57 164.54 666.73 163.64 667.41 163.49 668.08 163.59 668.74 164.04 672.35 168.96 673.14 169.49 676.86 170.62 680.01 172.4 681.28 173.45 681.72 174.08 682.24 175.38 682.46 176.88 685.83 177.44 687.33 178.21 689.1 179.53 687.33 182.63 685.62 182.91 684.16 182.82 683.48 182.59 682.37 181.76 681.78 181.46 681.15 181.3 680.53 181.3 679.92 181.47 679.36 181.81 678.87 182.35 678.11 183.77 677.68 184.24 677.2 184.54 675.74 185.07 675.31 185.32 674.94 185.73 674.68 186.26 674.57 186.84 674.61 188 674.94 189.27 671.76 190.19 661.39 188.82 659.6 188.78 658.26 188.89 656.83 189.26 656.39 189.5 656.17 189.85 656.34 190.32 657.11 191.51 657.41 192.27 657.41 192.79 657.17 193.28 656.78 193.64 656.27 193.97 655.55 194.17 654.71 194.25 646.3 194.14 645.39 194.29 643.35 194.84 641.81 195.41 641.21 195.73 640.72 196.14 640.15 196.8 639.6 197.58 639.02 198.24 638.28 198.66 637.59 198.82 636.37 198.66 631.31 197.17 630.26 197.03 627.77 196.15 624.86 194.52 623.04 194.08 622.3 194.02 620.09 193.83 619.6 195.73 619.42 197.75 620.37 199.76 621.39 200.6 620.33 202.02 619.93 202.35 615.9 204.89 615.26 205.42 614.69 206 614.31 206.28 613.78 206.45 613.39 206.47 612.92 206.41 605.23 206.53 604.41 206.69 603.87 207.11 603.55 207.72 603.03 209.89 602.74 210.47 602.24 210.85 601.65 210.98 601.13 210.92 600.67 210.72 600.29 210.43 599.77 209.82 599.65 209.63 599.74 209.42 599.87 208.87 599.92 208.19 599.71 207.33 598.31 205.2 596.09 203.05 593.69 201.53 589.28 200.64 587.31 199.89 586.64 199.35 586.28 198.7 586.46 196.39 586.3 195.8 586.02 195.29 585.62 194.86 580.14 191.38 579.55 190.74 579.15 190.14 578.36 187.39 577.3 185.61 575.86 184.12 575.02 183.63 570.42 182.38 569.25 182.34 568.25 182.51 567.49 182.92 567.05 183.63 566.84 185.04 566.92 185.54 567.1 185.95 569.25 188.3 570.08 189.69 570.36 190.44 570.48 191.2 570.39 191.93 570.04 192.59 568.67 194 566.76 195.37 565.72 195.88 564.67 196.18 563.66 196.22 557.25 192.97 556.67 192.36 556.58 191.79 557.1 191.26 557.86 190.75 558.42 190.2 558.78 189.63 558.96 189.02 558.97 188.38 558.82 187.71 555.89 182.84 555.59 182.05 555.52 181.38 555.78 180.9 557.11 180.47 557.42 180.22 557.42 179.9 557.14 179.52 552.1 176.26 550.5 174.5 550.05 173.67 549.95 172.98 550.28 172.52 551.12 172.34 554.87 172.92 555.59 172.8 556.23 172.34 556.78 171.45 557.26 170.02 558.43 169.22 559.15 167.44 559.48 165.07 559.75 164.23 563.39 161.79 562.52 157.78 561.34 156.63 559.44 156.16 558.84 155.74 558.4 155.08 558.09 153.1 553.2 146.67 551.31 144.83 550.63 143.97 550.39 142.97 550.57 142.04 552.48 139.39 552.32 136.55 552.43 133.37 552.32 132.66 551.44 130.4 550.96 127.77 550.74 127.19 550.41 126.64 549.59 125.74 549.51 125.17 549.9 124.54 551.91 123.79 552.35 123.68 553.07 123.37 555.48 121.7 559.11 120.02 559.64 119.7 559.97 119.28 560.15 118.81 560.06 118.02 559.92 117.6 559.17 116.32 559.33 115.09 562.3 108.68 566.77 101.35 568.09 101.14 569.2 100.5 571.16 98.75 572.58 98.13 573.61 98.1 575.8 98.6 576.86 98.55 577.15 98.12 577.13 96.69 577.46 96.37 579.19 96.39 579.9 96.7 580.44 97.41 581.7 98.62 583.13 98.97 583.88 97.96 583.65 96.41 582.12 95.1 581.95 92.23 580.7 90.12 578.55 88.6 575.68 87.52 573.47 86.07 572.31 83.78 571.43 81.27 570.09 79.11 566.31 75.54 566.29 73.89 569.5 72.65 572.2 72.87 575.53 74.15 Z" id="CZE-10372" data-name="Olomoucký"/>
<path d="M 557.26 170.02 555.98 170.2 550.06 168.26 547.3 167.63 544.35 167.45 540.37 167.64 539.3 167.56 537.82 167.09 536.93 166.94 530.63 166.96 529.6 167.24 529 167.75 528.85 168.74 528.63 169.51 528.25 170 527.21 170.56 513.22 171.44 510.37 171.28 508.07 170.82 503.23 168.79 499.08 167.8 497.82 167.22 496.99 166.44 496.24 165.56 495.18 164.7 493.64 163.86 489.2 161.95 485.73 160.82 483.34 160.35 480.31 160.26 477.76 160.42 476.47 160.23 475.6 159.82 475.21 159.3 474.86 158.7 474.02 158.15 472.71 157.68 469.99 157.3 468.24 156.9 466.64 156.38 464.99 155.65 464.18 155.43 463.47 155.43 462.98 155.72 462.7 156.02 462.14 156.97 461.71 157.44 461.17 157.71 459.85 158.02 459.28 158.22 457.46 159.56 456.31 160.03 455.21 160.04 453.91 159.81 452.3 159.35 451.28 159.41 450.43 159.69 447.45 159.18 445.59 156.73 443.97 155.32 442.05 154.33 438.99 153.36 438.54 153.07 438.25 152.66 438 151.47 437.57 150.93 436.94 150.47 435.3 149.81 432.13 149.32 426.75 146.6 424.69 146.23 415.69 146.7 415 146.46 413.75 145.57 410.71 142.36 408.44 140.62 403.33 138.43 403.49 137.49 403.97 136.27 404.55 135.15 404.83 134.46 404.96 133.82 405.04 131.46 405.11 130.95 405.25 130.6 405.57 130.18 405.82 129.59 405.66 129 404.55 128.16 403.69 127.7 402.87 127.43 401.32 127.14 400.36 126.7 396.06 124.03 395.23 123.68 391.22 122.84 388.46 121.69 387.6 121.12 386.25 119.73 386.82 119.15 389 118.47 391.4 118.08 392.45 118.11 392.67 116.9 392.73 116.48 392.69 116.07 392.25 114.74 392.12 114.14 392.12 113.52 392.25 113.13 392.53 112.78 394.47 111.57 400.97 113.15 401.88 113.1 409.07 108.76 411.35 108.02 413.15 107.93 417.75 109.4 419.49 109.41 423.1 108.72 423.72 108.85 428.52 110.96 429.43 111.09 430.18 110.93 430.76 110.47 432.32 107.26 432.86 106.51 433.6 105.94 439.47 104.83 440.09 105 440.54 105.39 441.63 108.44 442.46 109.67 442.92 110.11 443.41 110.39 443.91 110.49 444.58 110.28 452.09 105.53 453.2 105.18 458.12 105.12 461.4 105.75 462.05 106.06 462.4 106.51 462.52 107.14 462.55 109.54 462.8 110.3 463.33 110.93 464.26 111.38 471.05 112.25 471.76 112.6 472.64 113.79 473.81 114.9 475.21 115.73 476.55 116.18 477.58 116.34 478.03 116.59 479.9 118.11 480.46 118.36 481.82 118.57 486.39 121.11 488.11 120.28 489.94 119.8 500.49 119.17 502.1 118.62 502.8 118.2 503.39 117.66 503.83 117.01 504.38 115.53 504.88 115.01 505.55 114.64 517.76 110.9 518.45 110.34 518.7 109.6 518.88 108 519.12 107.3 519.48 106.73 519.96 106.32 520.57 106.12 533.07 108.71 537.13 111.12 542.08 112.77 546.88 112.54 550.51 109.35 553.13 108.13 554.57 106.82 555.85 105.22 557.98 103.16 560.62 101.71 562.96 101.49 565.33 101.59 566.77 101.35 566.77 101.35 562.3 108.68 559.33 115.09 559.17 116.32 559.92 117.6 560.06 118.02 560.15 118.81 559.97 119.28 559.64 119.7 559.11 120.02 555.48 121.7 553.07 123.37 552.35 123.68 551.91 123.79 549.9 124.54 549.51 125.17 549.59 125.74 550.41 126.64 550.74 127.19 550.96 127.77 551.44 130.4 552.32 132.66 552.43 133.37 552.32 136.55 552.48 139.39 550.57 142.04 550.39 142.97 550.63 143.97 551.31 144.83 553.2 146.67 558.09 153.1 558.4 155.08 558.84 155.74 559.44 156.16 561.34 156.63 562.52 157.78 563.39 161.79 559.75 164.23 559.48 165.07 559.15 167.44 558.43 169.22 557.26 170.02 Z" id="CZE-10373" data-name="Pardubický"/>
<path d="M 105.39 75.45 109.35 77.56 111.36 78.29 119.07 78.86 119.79 79.21 120.39 79.71 121.16 80.72 122.03 81.45 123.53 82.17 126.47 82.56 130.06 82.68 133.39 83.22 135.21 83.86 135.96 84.42 136.57 85.18 137.15 86.74 137.35 87.76 137.39 88.77 137.17 91.32 137.21 92.11 137.41 93.5 137.83 95.01 137.97 96.23 137.87 96.85 137.64 97.43 137.37 97.98 137.74 98.94 138.63 100.13 141.13 102.6 141.91 103.89 142.17 104.86 141.77 105.39 141.29 105.88 139.58 107.31 139.36 107.57 139.16 108.05 139.53 108.42 140.41 109 142.88 110.14 144.26 110.94 143.04 111.29 142.26 111.8 141.84 112.43 141.72 113.14 141.83 113.87 142.12 114.59 142.94 115.83 143.03 116.26 142.5 116.58 135.66 117.55 135.2 117.86 134.96 118.33 134.91 118.93 135.01 119.62 136.39 123.12 136.22 123.56 135.77 123.86 135.13 124.05 133.53 124.08 132.01 123.69 127.79 120.62 119.65 119.6 119.11 119.67 117.87 120.17 115.33 121.97 104.4 125.8 103.77 126.16 103.3 126.76 101.71 131.75 101.21 132.16 100.46 132.3 98.55 132.01 95.39 130.98 94.99 130.95 94.06 131.12 91.12 132.53 90.68 132.6 90.25 132.54 89.8 132.37 87.23 130.62 78.06 130.5 77.28 130.77 73.72 133.47 73.16 133.71 71.47 133.89 69.41 133.75 65.93 132.91 65.27 132.93 64.65 133.11 61.45 135.2 60.57 135.52 59.45 135.65 53.87 134.96 53.14 134.11 51.45 133.69 46.62 131.86 46.76 130.58 47.57 128.99 47.27 127.26 45.28 126.04 40.94 125.75 39.13 124.6 39.01 124.6 21.15 118.44 20.77 117.69 20.75 116.62 20.5 115.41 19.46 114.25 17.75 113.29 15.86 112.59 14.19 111.61 13.16 109.82 13.09 108.05 13.92 105.37 13.58 103.6 12.67 102.19 11.34 100.88 8.45 98.84 2.62 96.5 1.4 95.1 2.88 93.67 4.1 93.16 4.89 92.61 5.11 91.1 4.67 89.42 3.72 88.37 1 86.55 3.97 86.69 9.64 86.96 11.91 87.99 12.6 89.08 12.56 91.11 13.03 92.03 14.34 92.77 16.06 93.11 19.46 93.17 20.3 93.47 20.69 93.89 20.63 94.44 20.1 95.1 19.92 95.12 19.76 95.15 19.6 95.22 19.46 95.31 19.14 95.53 19.03 95.77 19.15 96.03 19.46 96.31 21.52 97.64 22.03 98.09 22.52 98.86 22.73 99.55 22.85 100.16 24.26 103.41 25.46 104.6 27.47 104.77 29.12 104 29.12 102.95 28.43 101.69 28.08 100.22 28.45 98.13 29.08 97.02 31.41 95.1 31.73 93.23 32.69 92.31 34.01 91.71 35.35 90.81 39.01 86.55 40.28 85.74 43.74 84.5 45.15 83.69 45.57 83.54 46.63 83.56 47.11 83.4 47.37 82.96 47.29 82.5 47.13 82.1 47.11 81.86 47.43 81.33 47.67 80.73 48.09 80.15 48.96 79.66 52.23 77.86 56.99 76.97 65.82 76.55 72.13 77.28 73.66 77.17 74.98 76.36 77.59 73.77 79.11 72.81 81.03 72.37 82.92 72.3 85.03 72.48 85.77 72.3 87.42 71.6 88.49 71.46 89.47 71.65 100.4 75.9 104.44 76.05 105.39 75.45 105.39 75.45 Z" id="CZE-1590" data-name="Karlovarský"/>
<path d="M 336.97 177.53 338.66 178.7 339.14 179.22 339.44 179.78 339.43 180.34 339.01 180.86 338.2 181.27 334.03 182.05 333.35 182.36 333.05 182.82 334.81 186.95 335.12 188.87 335.03 191.04 332.54 197.45 332.51 198.28 332.81 199.01 333.33 199.58 335.28 200.81 335.61 201.12 335.83 201.54 335.91 202.11 335.64 204.54 335.76 205.12 336.1 205.72 336.72 206.33 341.15 209.04 343.38 209.93 344.46 210.02 345.52 209.8 347.55 208.57 348.57 208.34 349.59 208.4 351.49 209.12 354.13 210.81 357.52 212.29 360.64 215 365.38 217.02 365.89 217.01 366.39 216.78 368.46 214.72 369.05 214.44 369.71 214.31 370.44 214.34 376.64 216.47 377.14 216.68 378.48 216.92 384.23 217.36 385.24 217.62 385.9 218.24 386.37 219.24 386.61 221.16 386.9 222.2 387.29 223 387.87 223.51 393.48 227 393.92 227.17 394.47 227.24 396.44 227.01 396.97 227 402.54 227.66 404.22 227.58 408.8 226.38 409.3 226.31 409.7 226.33 410.14 226.52 415.75 230.15 416.5 230.8 416.72 231.23 416.7 231.54 416.39 231.82 415.89 232.07 415.29 232.28 414.48 232.41 411.88 232.52 411.26 232.6 410.95 232.8 410.67 233.27 410.54 233.79 410.42 234.64 410.16 235.21 409.57 236 405.73 238.98 405.23 239.45 405.01 239.91 404.76 240.86 404.85 241.34 405.01 241.64 405.23 241.69 405.6 241.69 406.01 241.8 406.37 242.09 406.88 242.89 407.32 243.41 408.06 243.75 408.88 243.87 410.74 243.97 412.12 244.16 412.69 244.4 413.22 244.74 413.81 245.34 413.92 245.76 413.92 246.24 413.35 247.48 411.55 250.47 411.11 251.41 410.62 252.12 410.32 253.24 410.32 253.27 410.32 253.27 407.61 252.57 401.78 249.24 399.24 248.28 394 247.12 388.32 245.22 385.69 244.72 380.16 244.68 379.58 244.41 379.09 243.83 378.49 243.34 377.59 243.34 377.11 243.83 376.82 245.41 376.43 246.03 374.8 247.33 374.19 247.58 365.18 249.18 362.84 249.15 363.62 247.47 363.67 245.86 363.17 244.26 362.3 242.59 353.12 242.1 346.56 240.62 343.97 240.84 343.59 241.03 343.41 241.43 343.41 241.98 343.52 242.62 341.91 245.11 341.86 248.47 342.35 252.08 342.34 255.34 339.84 262.73 338.98 264.22 338.79 265.05 339.02 265.79 339.53 266.72 340.06 267.48 340.31 267.7 338.96 269.77 336.57 269.91 330.47 268.26 324.31 267.7 322.53 268.15 321.83 269.27 321.36 270.71 320.17 272.09 319.57 274.35 313.37 277.96 311.13 280.35 310.71 283.54 310.77 287.15 310.17 290.22 309.63 290.57 307.8 291.79 305.86 291.7 304.94 290.93 304.24 289.82 302.97 288.71 302.2 288.59 300.4 289.01 299.48 288.94 299.11 288.45 299.09 287.66 298.95 286.91 298.19 286.47 296.37 286.56 292.84 287.69 291.07 287.95 289.68 287.73 284.97 286.09 282.14 283.89 280.42 284.67 277.77 289.33 275.9 290.6 269.77 292.35 267.39 293.62 266.46 293.86 265.33 293.95 253.62 291.2 236.89 289.96 232.88 288.84 231.89 288.26 229.86 286.58 229.34 285.93 228.8 284.32 229.01 283.98 229.69 283.81 230.48 282.71 230.83 282.54 231.41 282.61 231.94 282.5 232.16 281.76 231.86 281.04 231.15 280.71 230.33 280.49 229.73 280.12 228.98 279.15 227.01 277.16 225.98 276.41 218.04 273.52 215.45 272.1 213.3 270.99 211.06 270.18 206.31 269.34 204.01 267.76 198.31 260.26 195.57 257.43 193.91 256.82 189.51 256.37 187.28 255.67 185.27 254.35 183.42 252.51 182.17 250.36 181.87 248.13 179.73 248.28 177.72 247.55 175.71 246.5 173.64 245.66 171.7 245.39 171.69 245.36 171.54 244.25 174.11 240.66 176.86 237.85 179.4 236.2 179.95 235.57 180.3 234.88 180.33 233.86 180.22 233.27 180.03 232.59 179.97 231.32 180.39 229.61 181.91 227.03 183.16 226.11 184.25 225.77 185.68 225.96 186.19 225.89 186.65 225.67 187.79 224.65 190.9 220.79 191.96 220.11 193.19 219.59 194.15 219.36 194.79 218.97 194.88 218.53 194.37 217.7 192.71 216.59 192.24 216.15 192.07 215.74 192.15 215.28 192.57 214.82 193.32 214.18 193.69 213.74 193.84 213.28 193.84 212.62 193.18 211.5 193.14 211.11 193.29 210.65 193.85 210.18 194.33 209.9 196.38 209.09 196.95 208.77 197.35 208.26 197.83 207.43 198.48 205.95 199.54 204.43 201.82 201.94 202.31 201.22 202.46 200.42 202.31 199.42 201.67 197.34 201.42 195.88 201.62 194.06 202.44 191.85 202.55 191.26 202.39 190.25 200.89 186.43 199.22 184 206.06 181.38 206.74 181.33 207.3 181.42 208.67 182.04 209.33 182.19 211.8 182.24 212.58 182.36 213.24 182.52 213.91 182.84 216.05 183.64 217.04 183.71 218.26 183.62 220.37 182.91 221.01 182.59 221.91 182.29 227.61 181.13 227.99 180.94 228.28 180.71 228.92 179.35 229.49 178.55 230.26 178.13 231.58 177.67 232.42 177.57 233.32 177.64 234.51 178.06 235.96 178.8 236.65 178.95 238.85 179.07 240.37 179.41 243.5 179.49 250.39 178.9 252.73 178.28 254.86 176.89 255.35 176.67 255.92 176.55 257.33 176.38 259.22 176.39 260.63 176.62 261.25 176.84 261.63 177.1 262.07 177.87 262.31 178.18 262.57 178.36 262.9 178.44 263.35 178.49 263.92 178.63 264.34 178.82 264.84 179.21 265.07 179.48 265.64 180.02 265.9 180.18 266.2 180.33 266.54 180.45 267.07 180.57 267.97 180.62 269.18 180.53 274.71 178.51 275.68 178.37 277.14 178.33 278.72 178.58 280.68 179.29 282.9 179.48 296.01 179.14 297.45 179.39 297.34 179.74 297.31 180.07 297.36 180.37 297.56 180.51 300.37 180.8 301.63 180.69 302.91 180.44 305.73 179.29 307.46 178.13 308.26 177.89 312.08 177.36 313.74 176.5 314.49 175.77 314.78 172.68 314.85 172.31 314.97 171.98 315.7 171.01 316.19 170.53 316.56 170.25 318 169.44 318.57 169.31 319.03 169.38 319.67 169.83 320.52 170.58 320.9 170.83 321.52 171.06 325.01 171.76 325.66 172.12 326.06 172.56 326.14 172.88 326.19 173.64 326.8 173.89 327.99 173.96 330.26 173.69 331.68 174.02 332.47 174.35 332.75 174.74 333.12 175.48 333.48 176.01 333.97 176.49 334.58 176.93 335.13 177.24 335.66 177.46 336.21 177.6 336.97 177.53 Z" id="CZE-1593" data-name="Jihočeský"/>
<path d="M 510.37 171.28 510.11 172.58 509.56 173.95 508.09 176.3 508.07 176.92 508.38 177.43 511.62 179.53 512.04 180.11 512.29 180.79 512.39 181.52 512.34 182.25 512.14 182.91 511.81 183.46 511.34 183.82 507.8 184.24 507.27 184.5 506.94 184.89 506.89 185.44 507.58 187.02 507.84 192.4 508.08 193.25 510.3 197.79 510.45 198.61 510.32 199.32 509.85 199.89 499.56 204 498.07 204.98 496.83 206.3 496.39 207.05 496.13 207.86 496.06 208.59 496.15 209.16 496.36 209.6 497.19 210.6 497.38 210.96 497.46 211.4 497.32 211.8 496.96 212.06 494.47 212.71 493.9 213.07 493.47 213.61 492.93 215.06 492.76 216.54 492.87 217.21 493.17 217.78 493.65 218.22 495.12 218.71 495.74 219.04 496.17 219.47 496.41 219.98 496.41 220.54 496.16 221.16 495.64 221.8 493.98 223.11 493.49 223.72 493.26 224.29 493.25 224.84 493.41 225.37 494.36 226.89 494.57 227.41 494.57 227.96 494.38 228.53 493.56 229.68 490.98 231.76 482.68 233.51 482.2 233.8 479.76 236.19 478.77 236.71 477.55 237 469.41 236.12 468.88 236.21 466.78 237.24 466.05 237.44 462.51 237.54 461.1 237.28 460.48 236.95 459.91 236.45 459.4 235.74 458.79 235.2 458.01 235.16 457.13 235.47 454.08 237.96 453.59 237.86 452.48 237.85 451.86 238 451.28 238.33 450.82 238.89 450.23 240.55 449.64 241.05 448.88 241.31 444.79 241.05 441.47 242.05 432.93 247.15 432.2 247.22 431.51 247.06 427.97 245.04 427.15 244.84 426.35 244.87 425.6 245.07 424.36 245.71 423.55 246.37 423.17 246.88 422.22 247.8 421.6 248.14 420.93 248.23 420.24 247.98 418.01 245.66 417.15 245.16 416.29 244.86 415.49 244.78 414.79 244.89 414.25 245.22 413.92 245.76 413.81 245.34 413.22 244.74 412.69 244.4 412.12 244.16 410.74 243.97 408.88 243.87 408.06 243.75 407.32 243.41 406.88 242.89 406.37 242.09 406.01 241.8 405.6 241.69 405.23 241.69 405.01 241.64 404.85 241.34 404.76 240.86 405.01 239.91 405.23 239.45 405.73 238.98 409.57 236 410.16 235.21 410.42 234.64 410.54 233.79 410.67 233.27 410.95 232.8 411.26 232.6 411.88 232.52 414.48 232.41 415.29 232.28 415.89 232.07 416.39 231.82 416.7 231.54 416.72 231.23 416.5 230.8 415.75 230.15 410.14 226.52 409.7 226.33 409.3 226.31 408.8 226.38 404.22 227.58 402.54 227.66 396.97 227 396.44 227.01 394.47 227.24 393.92 227.17 393.48 227 387.87 223.51 387.29 223 386.9 222.2 386.61 221.16 386.37 219.24 385.9 218.24 385.24 217.62 384.23 217.36 378.48 216.92 377.14 216.68 376.64 216.47 370.44 214.34 369.71 214.31 369.05 214.44 368.46 214.72 366.39 216.78 365.89 217.01 365.38 217.02 360.64 215 357.52 212.29 354.13 210.81 351.49 209.12 349.59 208.4 348.57 208.34 347.55 208.57 345.52 209.8 344.46 210.02 343.38 209.93 341.15 209.04 336.72 206.33 336.1 205.72 335.76 205.12 335.64 204.54 335.91 202.11 335.83 201.54 335.61 201.12 335.28 200.81 333.33 199.58 332.81 199.01 332.51 198.28 332.54 197.45 335.03 191.04 335.12 188.87 334.81 186.95 333.05 182.82 333.35 182.36 334.03 182.05 338.2 181.27 339.01 180.86 339.43 180.34 339.44 179.78 339.14 179.22 338.66 178.7 336.97 177.53 337.93 177.27 339.31 176.46 339.82 175.89 340.15 175.34 340.33 174.94 340.71 174.5 341.04 174.27 343.31 173.48 343.64 173.23 343.75 172.91 343.5 172.22 343.42 171.94 343.48 171.62 343.68 171.36 344.01 171.15 344.56 171.06 345.53 171.11 350.18 172.45 351.48 172.49 353.1 172.36 355.88 171.83 359.31 171.88 361.26 172.41 364.63 172.06 373.88 169.17 374.17 167.74 373.86 166.45 373.26 165.42 372.66 164.78 371.99 164.29 366.67 161.7 366.12 161.22 365.92 160.71 366.26 159.86 366.83 159.21 369.52 157.2 370.51 156.29 370.8 155.81 370.98 155.34 371.13 154.83 371.39 154.33 371.77 153.91 372.27 153.52 372.77 153.23 372.91 153.18 373.72 153.02 374.08 153.03 374.36 153.09 374.8 153.31 375.82 153.71 376.46 153.79 377.01 153.79 377.43 153.72 382.27 151.86 386.37 150.82 390.58 148.39 391.29 148.13 391.74 148.12 392.38 148.24 394.32 148.42 395.91 148.23 396.92 147.91 397.59 147.52 398.03 147.08 398.31 146.58 398.77 144.69 398.96 144.2 399.19 143.72 399.39 143.44 399.76 143.03 400.18 142.63 401.06 142.03 401.44 141.86 402.67 141.57 403.11 141.25 403.27 140.65 403.24 139.41 403.33 138.43 408.44 140.62 410.71 142.36 413.75 145.57 415 146.46 415.69 146.7 424.69 146.23 426.75 146.6 432.13 149.32 435.3 149.81 436.94 150.47 437.57 150.93 438 151.47 438.25 152.66 438.54 153.07 438.99 153.36 442.05 154.33 443.97 155.32 445.59 156.73 447.45 159.18 450.43 159.69 451.28 159.41 452.3 159.35 453.91 159.81 455.21 160.04 456.31 160.03 457.46 159.56 459.28 158.22 459.85 158.02 461.17 157.71 461.71 157.44 462.14 156.97 462.7 156.02 462.98 155.72 463.47 155.43 464.18 155.43 464.99 155.65 466.64 156.38 468.24 156.9 469.99 157.3 472.71 157.68 474.02 158.15 474.86 158.7 475.21 159.3 475.6 159.82 476.47 160.23 477.76 160.42 480.31 160.26 483.34 160.35 485.73 160.82 489.2 161.95 493.64 163.86 495.18 164.7 496.24 165.56 496.99 166.44 497.82 167.22 499.08 167.8 503.23 168.79 508.07 170.82 510.37 171.28 Z" id="CZE-1594" data-name="Vysočina"/>
<path d="M 297.47 124.33 295.42 124.2 293.76 123.91 293.41 123.78 293.17 123.71 292.86 123.69 292.07 123.76 290.92 123.98 289.01 124.89 287.27 125.94 286.56 126.21 281.29 127.29 272.81 128.26 267.86 129.57 266.56 129.42 266.17 129.32 265.87 129.17 265.66 129.03 265.5 128.85 265.38 128.16 265.46 127.37 265.53 127.01 265.6 126.19 265.48 125.77 265.17 125.31 261.98 122.94 261.69 122.66 261.43 122.36 261.18 121.95 260.56 120.54 260.02 119.79 259.71 119.45 256.8 117.1 256.43 116.75 256.3 116.48 256.3 116.16 256.41 115.87 256.58 115.57 256.91 115.1 257.05 114.82 257.11 114.55 256.92 114.31 256.61 114.09 255.94 113.71 253.76 112.85 253.39 112.58 253.21 112.36 253.23 112.18 253.27 112.02 253.39 111.84 253.67 111.64 255.9 110.8 261.49 109.48 262.2 109.42 262.9 109.48 265.83 110.25 266.42 110.32 267.09 110.22 267.75 109.97 268.23 109.62 268.39 109.33 268.34 108.97 268.15 108.55 268.04 108.09 268.14 107.7 268.41 107.38 268.9 107.16 284.43 104.25 290.26 103.82 291.54 103.98 292.29 104.18 292.9 104.47 294.78 105.74 296.25 106.41 296.76 106.86 297.16 107.61 297.67 108.11 298.55 108.38 301.32 108.86 301.76 109.02 302.2 109.26 302.99 109.99 303.39 110.5 303.81 110.86 304.21 111.09 305.02 111.38 307.49 111.9 308.17 112.27 308.68 112.84 308.85 113.43 308.79 113.81 308.52 114.23 307.53 115.07 304.25 117.16 303.88 117.5 303.74 117.73 303.72 117.93 303.85 118.15 304.4 118.87 304.52 119.19 304.59 119.58 304.43 120.64 304.52 120.94 304.76 121.36 305.02 121.72 305.24 122.1 305.27 122.36 305.24 122.65 305.09 122.92 304.4 123.76 301.76 124.2 297.47 124.33 Z" id="CZE-1595" data-name="Prague"/>
<path d="M 361.54 63.01 361.77 63.46 361.74 63.9 361.37 64.32 360.99 64.7 360.9 64.76 360.49 65.37 360.42 66.3 360.73 67.01 361.54 67.94 361.92 68.49 362.16 69 363.24 73.76 363.33 74.92 363.15 75.89 362.74 76.55 361.74 77.74 360.71 78.63 360.4 79.2 360.02 80.15 359.85 81.88 360.02 82.66 360.27 83.1 360.58 83.25 366.43 84.86 367.16 85.17 367.89 85.62 368.9 86.67 369.34 87.6 369.67 88.95 370.07 89.58 370.71 90.03 371.39 90.2 372.25 90.25 373.08 90.21 375.25 89.9 376.33 89.95 379.56 90.45 384.39 90.04 385.25 90.08 386.04 90.3 387.01 90.87 387.54 91.55 387.89 92.22 388.33 94.24 388.35 95.84 388.62 96.81 389.13 98.06 390.95 101.42 391.19 102.08 391.11 102.37 390.97 102.64 390.82 102.87 390.32 103.34 388.4 104.62 388.22 104.97 388.19 105.58 388.48 105.96 388.8 106.23 390.69 107.07 391.59 107.65 392.73 108.53 394.28 110.01 394.74 110.75 394.81 111.24 394.47 111.57 392.53 112.78 392.25 113.13 392.12 113.52 392.12 114.14 392.25 114.74 392.69 116.07 392.73 116.48 392.67 116.9 392.45 118.11 391.4 118.08 389 118.47 386.82 119.15 386.25 119.73 387.6 121.12 388.46 121.69 391.22 122.84 395.23 123.68 396.06 124.03 400.36 126.7 401.32 127.14 402.87 127.43 403.69 127.7 404.55 128.16 405.66 129 405.82 129.59 405.57 130.18 405.25 130.6 405.11 130.95 405.04 131.46 404.96 133.82 404.83 134.46 404.55 135.15 403.97 136.27 403.49 137.49 403.33 138.43 403.24 139.41 403.27 140.65 403.11 141.25 402.67 141.57 401.44 141.86 401.06 142.03 400.18 142.63 399.76 143.03 399.39 143.44 399.19 143.72 398.96 144.2 398.77 144.69 398.31 146.58 398.03 147.08 397.59 147.52 396.92 147.91 395.91 148.23 394.32 148.42 392.38 148.24 391.74 148.12 391.29 148.13 390.58 148.39 386.37 150.82 382.27 151.86 377.43 153.72 377.01 153.79 376.46 153.79 375.82 153.71 374.8 153.31 374.36 153.09 374.08 153.03 373.72 153.02 372.91 153.18 372.77 153.23 372.27 153.52 371.77 153.91 371.39 154.33 371.13 154.83 370.98 155.34 370.8 155.81 370.51 156.29 369.52 157.2 366.83 159.21 366.26 159.86 365.92 160.71 366.12 161.22 366.67 161.7 371.99 164.29 372.66 164.78 373.26 165.42 373.86 166.45 374.17 167.74 373.88 169.17 364.63 172.06 361.26 172.41 359.31 171.88 355.88 171.83 353.1 172.36 351.48 172.49 350.18 172.45 345.53 171.11 344.56 171.06 344.01 171.15 343.68 171.36 343.48 171.62 343.42 171.94 343.5 172.22 343.75 172.91 343.64 173.23 343.31 173.48 341.04 174.27 340.71 174.5 340.33 174.94 340.15 175.34 339.82 175.89 339.31 176.46 337.93 177.27 336.97 177.53 336.21 177.6 335.66 177.46 335.13 177.24 334.58 176.93 333.97 176.49 333.48 176.01 333.12 175.48 332.75 174.74 332.47 174.35 331.68 174.02 330.26 173.69 327.99 173.96 326.8 173.89 326.19 173.64 326.14 172.88 326.06 172.56 325.66 172.12 325.01 171.76 321.52 171.06 320.9 170.83 320.52 170.58 319.67 169.83 319.03 169.38 318.57 169.31 318 169.44 316.56 170.25 316.19 170.53 315.7 171.01 314.97 171.98 314.85 172.31 314.78 172.68 314.49 175.77 313.74 176.5 312.08 177.36 308.26 177.89 307.46 178.13 305.73 179.29 302.91 180.44 301.63 180.69 300.37 180.8 297.56 180.51 297.36 180.37 297.31 180.07 297.34 179.74 297.45 179.39 296.01 179.14 282.9 179.48 280.68 179.29 278.72 178.58 277.14 178.33 275.68 178.37 274.71 178.51 269.18 180.53 267.97 180.62 267.07 180.57 266.54 180.45 266.2 180.33 265.9 180.18 265.64 180.02 265.07 179.48 264.84 179.21 264.34 178.82 263.92 178.63 263.35 178.49 262.9 178.44 262.57 178.36 262.31 178.18 262.07 177.87 261.63 177.1 261.25 176.84 260.63 176.62 259.22 176.39 257.33 176.38 255.92 176.55 255.35 176.67 254.86 176.89 252.73 178.28 250.39 178.9 243.5 179.49 240.37 179.41 238.85 179.07 236.65 178.95 235.96 178.8 234.51 178.06 233.32 177.64 232.42 177.57 231.58 177.67 230.26 178.13 229.49 178.55 228.92 179.35 228.28 180.71 227.99 180.94 227.61 181.13 221.91 182.29 221.01 182.59 220.37 182.91 218.26 183.62 217.04 183.71 216.05 183.64 213.91 182.84 213.24 182.52 212.58 182.36 211.8 182.24 209.33 182.19 208.67 182.04 207.3 181.42 206.74 181.33 206.06 181.38 199.22 184 199.2 182.92 199.34 182.51 199.57 182.18 200.08 181.15 200.43 180 200.43 179.32 200.17 178.49 199.36 177.69 198.23 176.79 197.83 176.25 197.53 175.54 197.37 174.33 197.48 171.41 197.26 170.75 196.8 170.16 195.76 169.37 194.97 169 194.38 168.81 193.85 168.7 193.26 168.43 192.79 168.01 192.51 167.1 192.62 166.68 192.93 166.37 193.63 165.98 193.84 165.67 193.76 165.38 193.47 165.07 191.95 164.47 191.93 164.31 192.64 163.92 193.59 163.56 193.78 163.22 193.63 162.79 191.83 161.74 191.36 161.26 191.67 160.7 192.31 160.14 193.71 159.26 195.04 158.72 196.53 158.32 199.98 157.76 200.89 157.47 201.8 156.92 204.73 154.79 205.11 154.27 205.09 153.91 204.8 153.51 203.96 153.19 202.81 152.89 202.51 152.72 202.35 152.42 202.39 151.72 202.59 151.12 203.76 148.51 203.83 147.91 203.7 147.41 203.43 146.71 203.36 146.3 203.36 145.97 204.84 143.56 204.97 143.23 205.08 142.78 205.11 142.25 205.04 141.23 205.08 140.72 205.33 140.32 205.59 140.15 205.94 140.09 207.08 140.02 207.72 139.89 208.21 139.74 208.5 139.62 208.63 139.41 208.69 139.1 208.56 138.52 207.41 136 207.21 135.4 207.17 134.9 207.24 134.39 207.43 133.97 206.93 133.41 205.88 132.69 199.69 130.66 199.44 130.12 199.32 129.66 198.83 129.23 198.08 128.92 194.15 128.14 193.48 127.91 192.68 127.46 189.59 125.27 188.56 124.83 187.28 124.45 185.06 124.04 183.89 123.99 182.94 124.04 181.34 124.28 179.7 124.38 177.59 124.21 176.54 123.79 170.81 120.23 168.76 119.59 166.82 119.3 165.26 118.9 164.58 118.89 163.98 119.01 161.58 119.87 160.3 120.08 159.71 120.1 159.05 120.04 158.47 119.89 158.03 119.52 158.01 119.01 158.51 118.17 158.98 117.54 159.33 116.96 159.38 116.33 159.33 115.82 157.92 113.46 159.14 112.33 160.63 111.84 162.46 111.51 163.63 111.13 166.66 109.18 168.03 108.58 169.17 107.66 170.3 105.92 171.87 104.31 172.53 103.83 173.91 103.33 180.82 101.49 185.86 99.37 186.97 98.63 187.37 98.41 188.23 98.08 189.24 97.86 190.54 97.87 191.27 98 192 98.23 192.49 98.33 193.08 98.33 195.15 97.98 206.4 94.22 207.41 94.17 208.36 94.43 209.13 94.79 210.02 95.01 210.85 94.92 212.16 94.26 212.84 93.81 213.58 93.16 214.29 92.64 221.29 89.83 222.4 89.54 224 89.61 224.99 89.55 225.9 89.31 226.6 88.62 226.84 88.18 226.88 87.78 226.72 87.03 226.75 86.53 226.88 85.88 227.15 85.37 227.64 84.86 228.56 84.58 229.99 84.37 234.91 84.27 237.8 84.63 240.57 85.27 242.95 85.46 252.25 84.44 256.1 85.37 256.71 85.27 257.56 85 260.11 83.64 261.1 83.23 262.02 83.06 265.35 82.88 267.42 82.97 268.34 82.85 269.27 82.52 270.2 81.63 270.61 81.03 270.86 80.54 271.06 80.27 271.63 79.72 271.74 79.44 271.74 79 271.57 78.6 271.14 77.76 270.99 77.38 271.01 76.98 271.14 76.22 271.08 75.76 270.9 75.31 270.35 74.26 270.18 73.79 270.3 73.32 270.73 73.09 271.69 73.2 273.25 73.65 273.87 73.76 274.49 73.8 275.19 73.61 276.21 73.22 279.65 71.39 280.61 71.06 281.36 70.71 281.54 70.47 281.72 70.18 282.13 69.26 282.27 68.3 282.27 67.58 282.4 67.04 282.57 66.64 282.91 66.18 283.35 65.76 284.16 65.4 285.44 65.16 290.7 65.08 292.94 65.31 294.75 65.23 295.57 65.31 296.1 65.48 296.34 65.77 296.56 66.12 296.65 66.4 296.72 66.74 296.78 67.12 296.92 67.46 297.2 67.73 297.53 67.89 298.55 67.97 300.61 67.86 311.19 66.1 315.97 64.06 320.29 62.76 321.34 62.25 322.73 61.37 323.62 60.98 325.59 60.3 326.58 59.74 327.42 59.07 328.66 57.49 329.14 57.03 329.89 56.49 332.32 55.18 333 54.64 334.38 53.22 334.82 52.88 335.39 52.71 336.06 52.73 337.21 53.04 338.18 53.06 339.52 52.67 340.39 52.53 341.21 52.61 342.34 53.21 343.31 53.5 346.14 53.38 346.74 53.49 347.36 53.75 349.61 55.46 350.33 55.89 351.2 56.1 352 56.21 355.05 55.69 356.1 59.15 357.34 60.61 361.54 63.01 Z M 297.47 124.33 301.76 124.2 304.4 123.76 305.09 122.92 305.24 122.65 305.27 122.36 305.24 122.1 305.02 121.72 304.76 121.36 304.52 120.94 304.43 120.64 304.59 119.58 304.52 119.19 304.4 118.87 303.85 118.15 303.72 117.93 303.74 117.73 303.88 117.5 304.25 117.16 307.53 115.07 308.52 114.23 308.79 113.81 308.85 113.43 308.68 112.84 308.17 112.27 307.49 111.9 305.02 111.38 304.21 111.09 303.81 110.86 303.39 110.5 302.99 109.99 302.2 109.26 301.76 109.02 301.32 108.86 298.55 108.38 297.67 108.11 297.16 107.61 296.76 106.86 296.25 106.41 294.78 105.74 292.9 104.47 292.29 104.18 291.54 103.98 290.26 103.82 284.43 104.25 268.9 107.16 268.41 107.38 268.14 107.7 268.04 108.09 268.15 108.55 268.34 108.97 268.39 109.33 268.23 109.62 267.75 109.97 267.09 110.22 266.42 110.32 265.83 110.25 262.9 109.48 262.2 109.42 261.49 109.48 255.9 110.8 253.67 111.64 253.39 111.84 253.27 112.02 253.23 112.18 253.21 112.36 253.39 112.58 253.76 112.85 255.94 113.71 256.61 114.09 256.92 114.31 257.11 114.55 257.05 114.82 256.91 115.1 256.58 115.57 256.41 115.87 256.3 116.16 256.3 116.48 256.43 116.75 256.8 117.1 259.71 119.45 260.02 119.79 260.56 120.54 261.18 121.95 261.43 122.36 261.69 122.66 261.98 122.94 265.17 125.31 265.48 125.77 265.6 126.19 265.53 127.01 265.46 127.37 265.38 128.16 265.5 128.85 265.66 129.03 265.87 129.17 266.17 129.32 266.56 129.42 267.86 129.57 272.81 128.26 281.29 127.29 286.56 126.21 287.27 125.94 289.01 124.89 290.92 123.98 292.07 123.76 292.86 123.69 293.17 123.71 293.41 123.78 293.76 123.91 295.42 124.2 297.47 124.33 Z" fill-rule="evenodd" id="CZE-1596" data-name="Středočeský"/>
<path d="M 407.71 31.41 409.38 34.81 413.3 39.85 413.58 40.78 413.37 41.44 412.93 42.09 412.63 42.99 412.48 44.06 412.65 46.36 412.99 47.42 413.52 48.32 414.98 49.51 415.52 50.11 415.87 50.77 416.08 51.46 416.13 52.17 416.06 52.89 415.23 55.41 415.26 55.88 415.41 56.33 419.46 62.25 419.71 62.94 419.75 63.67 419.56 64.46 419.11 65.11 418.44 65.46 417.59 65.57 408.55 64.55 407.2 63.97 404.73 62.29 404.06 62.07 403.38 61.99 402.69 62.03 399.65 62.69 398.99 63.03 398.62 63.66 398.21 67.42 397.94 68.26 397.43 68.89 396.73 69.26 395.96 69.41 395.14 69.35 394.28 69.11 392.52 68.14 388.91 65.18 386.64 64.02 381.5 62.69 380.23 62.7 379.08 63 373.97 66.67 373.29 66.87 372.55 66.81 371.75 66.55 365.22 63.04 363.34 62.62 362.67 62.63 362.16 62.72 361.81 62.85 361.54 63.01 357.34 60.61 356.1 59.15 355.05 55.69 352 56.21 351.2 56.1 350.33 55.89 349.61 55.46 347.36 53.75 346.74 53.49 346.14 53.38 343.31 53.5 342.34 53.21 341.21 52.61 340.39 52.53 339.52 52.67 338.18 53.06 337.21 53.04 336.06 52.73 335.39 52.71 334.82 52.88 334.38 53.22 333 54.64 332.32 55.18 329.89 56.49 329.14 57.03 328.66 57.49 327.42 59.07 326.58 59.74 325.59 60.3 323.62 60.98 322.73 61.37 321.34 62.25 320.29 62.76 315.97 64.06 311.19 66.1 300.61 67.86 298.55 67.97 297.53 67.89 297.2 67.73 296.92 67.46 296.78 67.12 296.72 66.74 296.65 66.4 296.56 66.12 296.34 65.77 296.1 65.48 295.57 65.31 294.75 65.23 292.94 65.31 290.7 65.08 285.44 65.16 284.16 65.4 283.24 62.69 274.83 58.26 268.19 44.99 268.05 44.36 268.24 43.82 268.65 43.37 269.19 42.99 270.85 42.33 273.01 38.77 273.51 38.35 276.17 36.77 276.49 36.36 276.65 35.85 276.59 34.61 276.83 34.02 277.25 33.49 277.77 33.03 279.26 32.15 280.59 27.28 281.04 26.71 281.7 26.58 282.52 26.82 288.68 30.87 289.69 31.02 290.66 30.88 291.54 30.49 292.3 29.9 292.9 29.14 293.29 28.25 293.51 26.42 293.73 25.82 294.1 25.41 294.58 25.18 298.15 24.98 298.72 24.76 299.15 24.43 299.47 24.07 299.79 23.38 299.86 23.06 300.44 23.95 304.53 24.68 306.22 25.27 310.73 27.44 315.11 28.06 317.67 28.13 319.57 27.8 320.72 26.96 321.84 25.59 323.71 22.43 326.22 22.48 330.49 21.73 343.97 22.36 344.21 21.34 344.07 17.24 343.93 16.9 343.86 16.45 343.97 15.79 344.3 15.39 345.46 14.56 345.82 13.96 345.69 10.54 343.9 8.88 341.98 7.93 341.48 6.59 341.49 6.59 342.03 6.19 342.63 5.88 343.3 5.68 343.97 5.58 345.68 4.8 346.23 4.25 346.56 3.28 348.8 4.58 354.78 5.41 355.78 6.58 357.17 7.44 358.83 7.96 360.16 7.79 360.55 6.59 360.55 6.58 361.61 5.03 363.13 4.36 364.51 4.8 365.06 6.59 366.17 8.32 372.89 8.39 376.04 9.38 377.93 11.31 377.81 12.45 376.78 13.69 375.95 15.86 376.31 17.54 377.41 19.62 378.8 21.57 380.05 22.85 382.41 24.05 384.54 24.64 386.34 25.58 387.75 27.8 387.79 28.94 387.46 30.13 387.36 31.25 388.12 32.22 389.59 32.52 389.79 32.56 391.09 31.69 392.21 30.43 393.31 29.57 398.23 29.3 407.71 31.41 Z" id="CZE-1597" data-name="Liberecký"/>
<path d="M 533.07 108.71 520.57 106.12 519.96 106.32 519.48 106.73 519.12 107.3 518.88 108 518.7 109.6 518.45 110.34 517.76 110.9 505.55 114.64 504.88 115.01 504.38 115.53 503.83 117.01 503.39 117.66 502.8 118.2 502.1 118.62 500.49 119.17 489.94 119.8 488.11 120.28 486.39 121.11 481.82 118.57 480.46 118.36 479.9 118.11 478.03 116.59 477.58 116.34 476.55 116.18 475.21 115.73 473.81 114.9 472.64 113.79 471.76 112.6 471.05 112.25 464.26 111.38 463.33 110.93 462.8 110.3 462.55 109.54 462.52 107.14 462.4 106.51 462.05 106.06 461.4 105.75 458.12 105.12 453.2 105.18 452.09 105.53 444.58 110.28 443.91 110.49 443.41 110.39 442.92 110.11 442.46 109.67 441.63 108.44 440.54 105.39 440.09 105 439.47 104.83 433.6 105.94 432.86 106.51 432.32 107.26 430.76 110.47 430.18 110.93 429.43 111.09 428.52 110.96 423.72 108.85 423.1 108.72 419.49 109.41 417.75 109.4 413.15 107.93 411.35 108.02 409.07 108.76 401.88 113.1 400.97 113.15 394.47 111.57 394.81 111.24 394.74 110.75 394.28 110.01 392.73 108.53 391.59 107.65 390.69 107.07 388.8 106.23 388.48 105.96 388.19 105.58 388.22 104.97 388.4 104.62 390.32 103.34 390.82 102.87 390.97 102.64 391.11 102.37 391.19 102.08 390.95 101.42 389.13 98.06 388.62 96.81 388.35 95.84 388.33 94.24 387.89 92.22 387.54 91.55 387.01 90.87 386.04 90.3 385.25 90.08 384.39 90.04 379.56 90.45 376.33 89.95 375.25 89.9 373.08 90.21 372.25 90.25 371.39 90.2 370.71 90.03 370.07 89.58 369.67 88.95 369.34 87.6 368.9 86.67 367.89 85.62 367.16 85.17 366.43 84.86 360.58 83.25 360.27 83.1 360.02 82.66 359.85 81.88 360.02 80.15 360.4 79.2 360.71 78.63 361.74 77.74 362.74 76.55 363.15 75.89 363.33 74.92 363.24 73.76 362.16 69 361.92 68.49 361.54 67.94 360.73 67.01 360.42 66.3 360.49 65.37 360.9 64.76 360.99 64.7 361.37 64.32 361.74 63.9 361.77 63.46 361.54 63.01 361.81 62.85 362.16 62.72 362.67 62.63 363.34 62.62 365.22 63.04 371.75 66.55 372.55 66.81 373.29 66.87 373.97 66.67 379.08 63 380.23 62.7 381.5 62.69 386.64 64.02 388.91 65.18 392.52 68.14 394.28 69.11 395.14 69.35 395.96 69.41 396.73 69.26 397.43 68.89 397.94 68.26 398.21 67.42 398.62 63.66 398.99 63.03 399.65 62.69 402.69 62.03 403.38 61.99 404.06 62.07 404.73 62.29 407.2 63.97 408.55 64.55 417.59 65.57 418.44 65.46 419.11 65.11 419.56 64.46 419.75 63.67 419.71 62.94 419.46 62.25 415.41 56.33 415.26 55.88 415.23 55.41 416.06 52.89 416.13 52.17 416.08 51.46 415.87 50.77 415.52 50.11 414.98 49.51 413.52 48.32 412.99 47.42 412.65 46.36 412.48 44.06 412.63 42.99 412.93 42.09 413.37 41.44 413.58 40.78 413.3 39.85 409.38 34.81 407.71 31.41 421.84 34.55 423.19 35.12 424.75 36.63 425.61 37.17 426.86 37.42 436.66 35.91 439.59 36.09 439.85 36.9 440.23 37.62 446.19 44.06 446.95 44.23 450.22 44.17 457.21 42.5 459.16 42.68 460.74 43.65 462.28 45.51 463.31 47.11 463.95 48.73 463.68 50.14 461.99 51.02 461.76 51.4 461.66 51.78 461.74 52.15 461.99 52.5 467 51.92 474.32 47.41 479.3 47.73 483.03 49.55 484.82 50.09 486.81 49.8 488.25 48.64 489.1 47.14 489.97 45.95 491.5 45.75 495.78 45.8 499.63 46.43 503.25 47.73 513.31 54.51 514.38 56.76 510.67 57.73 511.12 58.62 511.12 59.01 510.79 59.34 510.28 60.02 510.1 60.62 509.94 61.53 509.95 62.23 510.28 62.16 509.27 63.06 506.84 64.59 505.73 65.59 503.71 65.87 499.92 65.2 498.07 65.59 497.16 67.11 495.39 68.08 493.31 68.87 491.5 69.84 490.85 70 489.76 70.44 489.04 70.48 489.62 71.8 489.84 72.16 487.48 71.81 486.56 73.69 487.67 75.8 491.5 76.23 493.02 79.27 493.58 79.96 495.09 80.74 495.96 80.61 496.8 80.15 498.18 79.86 503.56 79.86 504.68 80.08 505.51 81.18 505.6 82.28 505.5 83.35 505.8 84.38 507.9 86.17 513.16 87.4 515.78 88.58 517.48 90.11 520.48 93.61 522.19 95.1 523.69 96.84 527.26 99.23 528.54 101.46 529.88 105.49 530.99 106.96 533.07 108.71 Z" id="CZE-1598" data-name="Královéhradecký"/>
<path d="M 702.41 118.54 704.09 118.81 710.98 121.72 710.21 123.89 711.75 125.04 719.28 125.96 721.08 126.6 724.8 128.67 726.19 129.07 728.96 129.44 730.36 130.11 730.86 130.76 731.68 132.59 732.34 133.39 734.68 134.63 736.39 134.41 739.69 132.55 739.56 132.35 739.4 132.21 739.19 132.15 738.94 132.15 743.69 131.77 748.26 132.82 757.03 135.95 759.77 135.94 764.42 134.02 766.16 134.7 766.89 136.84 766.6 138.65 767.11 140.1 770.25 141.19 767 143.62 767.05 146.79 769.1 150.38 771.88 154.08 773.07 157.52 773.81 158.4 775.38 159.12 779.02 159.32 780.7 159.65 782.24 160.47 784.56 162.24 786.05 162.82 787.77 162.73 789.61 162.21 791.45 162.01 793.22 162.86 793.71 163.78 794.5 167.84 795.05 168.98 796.44 171.04 796.96 172.11 798.66 177.14 799 179.58 798.5 181.55 793.67 181.63 791.46 182.18 786.62 185.09 783.31 185.21 779.9 184.52 776.03 183.26 775.21 183.15 774.4 183.26 771.03 184.42 765.81 183.92 763.38 184.92 762.77 185.89 762.48 188.09 761.88 189.12 760.91 189.77 757.03 191.13 752 195.14 749.35 196.28 745.91 195.77 745.84 197.2 744.54 197.18 743.86 197 743.21 196.68 742.64 196.18 742.21 195.47 741.27 192.09 740.92 191.34 740.41 190.67 739.68 190.12 737.65 189.29 736.85 188.7 734.4 185.27 733.8 184.85 731.78 184.34 722.81 184.43 722.01 184.24 718.46 182.6 717.35 182.3 698.95 183.49 697.95 183.35 697.12 183.07 696.47 182.64 696.01 182.05 695.52 180.59 695.19 180.09 694.78 179.77 694.3 179.59 689.1 179.53 687.33 178.21 685.83 177.44 682.46 176.88 682.24 175.38 681.72 174.08 681.28 173.45 680.01 172.4 676.86 170.62 673.14 169.49 672.35 168.96 668.74 164.04 668.08 163.59 667.41 163.49 666.73 163.64 664.57 164.54 663.8 164.65 662.99 164.48 662.34 164.04 661.99 163.4 661.88 162.63 662.55 158.73 662.35 158.22 661.83 157.68 659.09 156.16 655.68 155.1 651.4 156.02 648.39 155.87 644.07 153.98 643.39 153.95 642.75 154.14 640.01 155.52 634.02 155.31 632.29 154.74 623.21 148.4 622.38 148.19 621.55 148.28 618.23 149.45 617.4 149.44 607.3 146.12 606.82 145.8 606.57 145.42 606.24 144.22 605.96 143.91 605.45 143.68 600.35 143.25 598.81 142.8 598.29 142.42 598 141.97 597.89 141.45 598.45 137.16 598.67 136.49 599.02 135.91 602.41 133.04 602.62 132.65 602.57 132.29 602.3 131.96 598.99 129.87 598.52 129.27 598.26 128.63 598.21 127.97 598.33 127.31 598.64 126.67 599.1 126.07 606.12 119.73 606.51 119.22 606.65 118.69 606.61 118.12 605.27 114.64 605.35 114.11 605.62 113.68 606.82 112.43 607.11 111.79 607.36 110 607.74 109.17 608.32 108.46 609.88 107.29 619.44 103.87 622.16 101.31 622.76 100.96 623.42 100.79 624.14 100.85 625.77 101.52 626.62 101.53 627.44 101.29 628.19 100.86 628.84 100.31 629.35 99.7 629.68 99.09 629.79 98.54 627.93 91.57 630.51 92.9 631.6 95.1 632.2 95.36 632.84 95.45 633.46 95.36 634.07 95.1 637.53 92.4 643.16 92.07 653.71 93.27 656.44 92.81 658.46 91.75 661.97 88.65 662.62 87.68 662.93 86.88 663.7 86.56 665.7 87.04 666.36 87.43 668.53 89.31 668.82 89.58 668.88 89.9 668.8 90.25 668.53 90.62 667.25 92.83 667.02 93.91 667.28 95.1 668.53 95.89 670.37 98.08 669.26 99.86 666.87 101.19 661.84 103.13 658.7 103.92 653 104.06 651.71 104.48 650.84 105.67 651.08 106.53 656.82 111.2 658.66 111.73 659.86 111.59 660.86 111.22 662.11 111.03 663.66 111.3 666.87 112.32 668.53 112.55 668.58 112.67 668.6 112.78 668.58 112.87 668.53 112.95 667.43 113.56 667.05 114.2 667.42 114.88 668.53 115.59 669.83 116.6 670.64 117.9 671.3 119.36 672.22 120.77 673.55 121.95 681.2 126.86 685.5 127.44 689.79 126.6 693.27 124.6 695.41 124.24 700.15 124.15 703.99 123.41 704.59 122.89 704.38 121.72 703.55 120.9 702.54 120.88 701.6 121.07 700.98 120.9 700.45 118.23 702.41 118.54 Z" id="CZE-1612" data-name="Moravskoslezský"/>
</g>
</svg>