<?xml version="1.0"?>
<svg xmlns="http://www.w3.org/2000/svg" version="1.2" baseProfile="tiny" width="800" height="655" viewBox="0 0 800 655" stroke-linecap="round" stroke-linejoin="round">
<g id="ne_10m_admin_1_states_provinces">
<path d="M 327.87 649.31 323.03 653.63 317.03 640.41 300.19 631.5 275.73 626.73 272.12 620.4 286.31 616.92 297.67 616.66 304.12 614.34 311.22 612.53 325.35 616.66 327.35 627.89 327.87 649.31 Z M 392.34 472.14 408.76 487.73 403.55 495.92 385.38 493.46 358.41 486.17 338.48 496.84 330.19 509.23 318.06 519.69 303.35 524.14 290.89 521.82 281.67 517.04 271.54 513.49 255.67 514.27 256.5 519.11 244.05 531.69 228.76 542.33 221.21 541.3 207.66 559.63 182.26 576.87 157.22 575.23 134.78 574.38 95.93 571.91 117.53 553.09 146 550.74 158.93 530.37 172.81 511.34 178.87 485.94 210.77 468.91 233.66 475.36 271.14 468.18 288.47 473.02 340.07 464.24 392.34 472.14 Z M 79.91 482.33 70.23 489.94 24.16 483.68 1 482.97 9.84 471.3 50.29 462.84 71.07 465.3 74.68 470.91 79.91 482.33 Z M 385.35 443.75 377.55 451.1 374.84 446.71 376.26 436.13 372.9 418.65 375.68 406.26 383.61 400.77 388.64 403.23 389.61 420.26 389.22 428.91 385.35 443.75 Z M 711.32 372.51 698.22 396.13 668.41 411.74 638.47 420.13 624.79 421.74 611.44 437.29 581.05 460.13 547.56 478.85 525.3 481.75 564.66 430.58 575.43 405.16 569.63 372.51 576.66 372.51 581.18 374.84 584.92 378.45 590.21 382.32 678.35 380.51 711.32 372.51 Z M 776.29 20.29 799 73.26 785.06 72.36 694.67 35.84 624.92 32.87 596.14 23.45 580.47 3.45 720.41 1 776.29 20.29 Z" fill-rule="evenodd" id="VGB+00?" data-name="British Virgin Islands"/>
</g>
</svg>