<?xml version="1.0"?>
<svg xmlns="http://www.w3.org/2000/svg" version="1.2" baseProfile="tiny" width="800" height="303" viewBox="0 0 800 303" stroke-linecap="round" stroke-linejoin="round">
<g id="ne_10m_admin_1_states_provinces">
<path d="M 84.74 7.27 90.71 10.58 102.91 13.66 106.74 15.3 123.02 24.84 126.67 25.5 139.06 24.31 143.12 24.93 146.97 26.34 150.63 28.55 154.77 29.86 163.28 28.65 166.89 29.67 167.98 30.85 169.65 33.63 170.75 34.85 172.48 35.81 178.68 37.23 181.82 38.59 187.1 42.58 190.31 43.89 194.67 44.16 203.38 43.3 207.71 43.66 215.45 45.28 219.19 45.56 227.48 44.87 230.97 45 234.41 45.7 238.15 47.05 241.91 47.86 245.72 48.02 249.52 47.46 258.92 43.62 257.25 46.44 255.95 49.53 256.38 52.94 256.44 56.24 254.77 59.6 252.4 62.48 249.64 64.77 247.38 67.49 241.17 69.44 229.62 71.01 228.69 71.9 226.83 73.7 228.93 75.69 229.94 78.17 230.59 80.97 230.78 81.39 231.74 83.5 232.35 86.07 230.51 87.91 229.03 88.6 227.75 89.62 227.66 90.9 228.53 91.99 229.8 97.46 229.64 100.54 230.12 103.44 233.48 107.68 233.92 110.52 234.28 112.81 233.23 114.93 231.09 115.92 228.61 117.42 226.72 119.45 226.57 119.62 217.21 126.33 206.94 130.74 206.58 130.9 200.7 132.37 199.08 133.87 196.46 136.29 191.95 138.39 190.61 138.87 187.78 139.89 187.18 140.1 181.11 112.25 179.04 107.53 176.02 103.55 172.09 100.43 167.23 98.37 158.17 97.13 156.23 96.33 154.32 95.03 151.44 93.85 148.42 93.01 146.04 92.76 144.66 93.06 142.26 94.14 140.75 94.37 139.49 93.8 134.08 87.74 131.35 80.42 126.41 74.09 124.37 70.69 121.42 70.75 116.74 72.3 113.74 71.55 110.19 67.55 108.12 66.62 108.08 66.01 105.3 62.48 104.48 61.99 95.81 59.48 83.89 58.28 78.35 58.5 74.51 59.21 73.06 59.31 71.65 58.93 69.36 57.25 68.15 56.87 67.62 56.55 65.59 54.95 64.54 54.36 63.36 54.04 59.59 53.55 50.04 50.19 45.63 49.81 42.53 52.74 41.33 51.79 39.58 48.59 38.48 47.05 35.77 45.05 34.59 43.76 35.12 40 33.26 36.5 30.64 33.28 28.73 31.55 25.06 30.29 18.54 28.86 14.72 26.06 13.01 25.45 7.52 24.79 3.83 23.68 1 23.23 1 23.23 1.63 21.16 9.71 5.83 11.33 3.95 14.17 2.57 22.21 1 30.4 1.01 59.74 8.98 64.48 9.41 68.19 8.68 75.88 5.76 80.21 5.39 83.68 6.68 84.74 7.27 Z" id="GEO-3015" data-name="Abkhazia"/>
<path d="M 297.86 212.39 298.39 213.55 299.55 216.07 299.44 220.2 298.08 221.76 297.8 224.01 298.6 225.71 299.76 227.19 302.87 229.36 305.66 231.79 309.17 236 310.34 238.51 310.18 238.55 307.79 239.93 306.57 241.93 305.46 246.77 304.26 248.69 301.68 250.74 298.12 254.8 295.65 256.02 294.21 256.08 292.65 256.14 271.78 250.02 265.93 250.27 263.08 250.09 261.1 248.69 259.4 247.93 257.6 247.89 253.86 248.69 252.16 248.11 250.49 247.9 248.82 248.08 247.1 248.69 242.89 249.69 234.37 247.25 229.59 248.69 227.96 249.64 224.23 253.65 219.46 256.72 218.32 257.22 216.87 256.76 212.13 253.44 210.56 253.05 207.08 252.72 205.69 252.3 205.19 251.55 205.21 250.58 205.35 249.69 205.19 249.22 204.28 249.21 201.29 250.24 197.74 250.45 196.23 250.23 183.56 246.22 191.35 235.7 194.86 232.14 202.03 228.63 204.03 225.04 209.61 218.19 209.92 216.79 209.93 215.72 210.1 214.77 210.83 213.72 212.76 211.73 213.42 210.74 213.67 209.66 213.67 200.03 229.22 200.61 232.37 202 234.18 202.8 234.8 205.3 240.64 207.12 242.97 208.25 244.42 208.74 248.06 210.87 249.57 210.69 249.72 210.65 252.68 209.83 258.47 209.31 262.26 210.8 264.41 211.73 267.9 212.4 270.06 212.14 276.53 211.36 282.9 208.38 286.13 207.64 288.8 208.08 293.31 211.58 294.84 212.17 297.86 212.39 Z" id="GEO-3027" data-name="Ajaria"/>
<path d="M 267.8 176.88 265.07 180.01 267.96 183.15 273.86 183.92 276.02 184.41 278.02 183.93 281.63 182.18 285.87 182.95 288.21 185.77 289.74 189.26 293.19 190.78 297.43 191.72 300.48 193.43 303.75 194.63 306.01 195.69 308.41 196.55 312.17 196.33 315.77 197.08 317.59 202.23 317.83 208.25 314.77 208.31 312.13 209.66 311.06 211.78 309.09 212.99 306.39 212.63 303.75 211.92 297.86 212.39 294.84 212.17 293.31 211.58 288.8 208.08 286.13 207.64 282.9 208.38 276.53 211.36 270.06 212.14 267.9 212.4 264.41 211.73 262.26 210.8 258.47 209.31 252.68 209.83 249.72 210.65 249.57 210.69 248.06 210.87 244.42 208.74 242.97 208.25 240.64 207.12 234.8 205.3 234.18 202.8 232.37 202 229.22 200.61 213.67 200.03 213.67 200.03 213.67 199.51 212.25 192.03 212.05 189.33 211.51 187.68 206.69 181.38 206.69 181.38 208.66 178.85 209.28 178.26 209.81 175.97 211.43 172.68 218.92 171.62 226.54 171.43 241.3 169.58 247.88 170.79 253.9 173.8 261.51 174.52 267.8 176.88 Z" id="GEO-3028" data-name="Guria"/>
<path d="M 283.69 41.52 290.86 42.26 297.62 45.6 300.76 47.9 304.19 49.86 311.44 52.84 313.74 53.2 315.43 52.69 318.62 50.49 320.69 49.76 324.41 49.7 329.96 48.45 334.69 48.54 339.26 49.42 342.58 51 345.93 53.34 349.38 54.99 359.52 57.76 359.53 59.34 358.63 61.31 358.29 63.23 359.38 64.47 365.25 67.48 378.02 76.35 380.35 77.29 376.46 78.45 372.41 82.63 369.76 84.45 369.44 88.17 367.32 90.66 364 90.23 356.62 88.12 347.97 88.99 335.05 84.69 333.51 85.26 332.07 86.16 328.85 87.22 321.89 87.03 304.99 83.99 302.05 82.97 299.08 82.92 297.6 84.91 296.36 87.1 295.07 87.83 293.63 88.1 289.22 88.34 285.44 89.9 282.5 94.02 289.03 98.17 302.36 103.75 307.75 107.81 304.59 112.78 313.64 126.1 311.36 126.19 309.19 126.63 303.22 126.93 299.6 129.66 297.77 133.75 295.96 134.94 294.81 136.81 294.7 140.27 293.1 143.07 284.74 150.21 279.6 156.54 278.24 159.64 276.01 161.57 274.82 166.54 274.98 172.79 272.52 176.48 267.8 176.88 261.51 174.52 253.9 173.8 247.88 170.79 241.3 169.58 226.54 171.43 218.92 171.62 211.43 172.68 209.81 175.97 209.28 178.26 208.66 178.85 206.69 181.38 203.08 176.67 201.83 175.89 200.61 174.89 200.03 172.62 199.79 168.57 198.83 163.2 192.53 146.88 192.07 146.17 191.23 145.28 188.03 142.91 187.62 142.07 187.18 140.1 187.18 140.1 187.78 139.89 190.61 138.87 191.95 138.39 196.46 136.29 199.08 133.87 200.7 132.37 206.58 130.9 206.94 130.74 217.21 126.33 226.57 119.62 226.72 119.45 228.61 117.42 231.09 115.92 233.23 114.93 234.28 112.81 233.92 110.52 233.48 107.68 230.12 103.44 229.64 100.54 229.8 97.46 228.53 91.99 227.66 90.9 227.75 89.62 229.03 88.6 230.51 87.91 232.35 86.07 231.74 83.5 230.78 81.39 230.59 80.97 229.94 78.17 228.93 75.69 226.83 73.7 228.69 71.9 229.62 71.01 241.17 69.44 247.38 67.49 249.64 64.77 252.4 62.48 254.77 59.6 256.44 56.24 256.38 52.94 255.95 49.53 257.25 46.44 258.92 43.62 259.58 43.36 262.61 42.68 282.74 41.42 283.69 41.52 Z" id="GEO-3029" data-name="Samegrelo-Zemo Svaneti"/>
<path d="M 429.39 141.49 433.59 143.4 438.21 143.93 441.67 143.3 444.95 141.96 448.74 141.58 451.43 143.96 450.02 147.8 449.93 151.69 440.81 153.53 435.19 156.5 432.77 157.77 432.37 159.21 431.8 161.31 432.53 165.1 431.86 168.2 431.24 168.69 430.44 169.32 428.59 170.47 426.99 173.92 424.81 176.99 420.97 179.15 417.66 181.62 417.17 186.64 415.36 190.91 411.07 193.75 410.21 198.36 374.67 209.21 372.68 208.98 370.65 208.42 358.43 209.24 353.34 210.83 347.98 210.76 337.75 209.13 325.19 211.53 317.83 208.25 317.59 202.23 315.77 197.08 312.17 196.33 308.41 196.55 306.01 195.69 303.75 194.63 300.48 193.43 297.43 191.72 293.19 190.78 289.74 189.26 288.21 185.77 285.87 182.95 281.63 182.18 278.02 183.93 276.02 184.41 273.86 183.92 267.96 183.15 265.07 180.01 267.8 176.88 272.52 176.48 274.98 172.79 274.82 166.54 276.01 161.57 278.24 159.64 279.6 156.54 284.74 150.21 293.1 143.07 294.7 140.27 294.81 136.81 295.96 134.94 297.77 133.75 299.6 129.66 303.22 126.93 309.19 126.63 311.36 126.19 313.64 126.1 314.68 128.84 314.71 131.86 315.65 134.11 315.75 136.65 328.47 133.49 331.47 134.42 334.59 134.6 337.22 132.64 340.17 132.57 346.74 135.66 352.77 139.83 354.29 143.57 357.25 145.34 359.79 145.69 365.46 148.05 373.98 147.48 379 145.95 383.18 142.81 394.47 138.44 407.09 139.45 419.22 138.72 426.89 140.81 429.39 141.49 Z" id="GEO-3030" data-name="Imereti"/>
<path d="M 685.37 132.46 685 135.21 671.32 161.74 672.51 164.51 676.1 166.24 680.88 167.89 693.95 174.71 702.24 176.31 703.88 177.51 707.25 183.73 708.52 185.05 710.12 185.72 712.35 185.82 713.2 185.57 714.78 184.65 715.78 184.46 716.55 184.76 718.54 186.06 719.53 186.45 721.69 186.34 723.31 186.02 724.48 186.62 725.28 189.22 728.15 190.22 731.8 190.29 738.79 189.21 738.82 189.2 738.86 189.18 739.87 188.98 740.88 188.91 741.88 188.98 743.04 189.22 746.15 191.09 751.34 195.74 754.73 196.89 761.8 197.33 764.71 198.55 767.61 201.47 763.07 208.46 760.52 211.56 755.41 216.23 753.67 217.39 751.77 218.08 749.3 218.26 743.73 217.31 741.13 217.52 738.84 219.35 737.71 223.43 737.77 229.46 739.28 234.81 742.49 236.82 743.53 236.17 744.12 235.08 744.91 234.18 746.56 234.13 746.83 234.79 749.47 238.59 749.64 239.45 750.59 244.09 751.65 246.68 753.7 248.66 759.92 251.89 761.31 252.38 763.73 252.83 769.3 256.73 780.88 260.41 786.72 263.03 788.6 266.35 790.44 265.8 791.27 266.22 791.41 266.29 792.21 267.31 794.51 269.25 798.25 273.57 799 275.3 798.63 275.45 797.65 275.34 796.6 276.27 796.37 277.18 796.24 279.27 795.99 280.05 795.29 280.8 793.71 281.91 793.01 282.65 791.86 285.85 791.23 289.94 790.23 293.76 789.57 294.47 787.94 296.21 785.6 296.49 783.34 296.02 781.01 295.85 778.49 297.04 777.15 298.95 776.49 300.82 775.45 302.06 772.85 302.14 770.71 301.15 767.39 297.76 765.44 296.46 758.36 294.72 755.89 293.61 748.88 288.8 745.42 285.54 743.54 284.15 741.4 283.58 732.46 283.61 729.81 284.07 726.78 285.54 723.65 287.06 721.3 287.71 718.43 287.91 712.69 287.37 695.03 282.55 689.04 279.78 686.75 278.72 681.83 275.55 678.99 272.15 681.63 269.67 684.36 268.94 686.06 268.24 685.91 267.5 683.13 266.66 675.39 265.48 658.29 260.46 654.42 257.71 652.69 256.22 650.94 255.98 647 256.89 644.6 257.04 642.75 256.77 637.03 254.54 637.03 254.52 636.66 252.51 635.91 250.96 634.91 249.54 634.06 246.57 631.85 244.2 628.14 243.41 624.33 243.2 622.19 242.14 621.33 239.82 620.68 236.59 624.76 229.54 622.48 223.17 621.56 219.36 619.47 216.16 614.93 215.8 611 213.65 608.39 210.41 605.28 207.77 603.69 204.27 599.95 202.59 603.13 200 606.66 198.37 613.18 201.55 622.73 200.54 618.47 196.69 612.65 195.56 609.81 195.36 607.13 194.64 606.01 190.96 607.85 187.72 605.71 183.95 605.37 180.61 603.94 176.02 605.59 173.26 607.42 166.45 609.68 163.75 612.12 157.74 615.02 155.04 618.11 152.94 620.6 152.67 622.94 152.01 624.01 147.4 622.48 142.65 623.64 139.87 626.28 138.11 628.13 135.1 627.76 131.48 629.4 126.09 633.25 121.88 633.28 121.85 634.59 124.01 635.79 125.39 639.75 126.59 644.81 126.07 654.42 123.93 661.26 124.05 671.23 125.36 680.51 128.07 685.38 132.36 685.37 132.46 Z" id="GEO-3033" data-name="Kakheti"/>
<path d="M 606.45 106.2 609.76 105.11 612.03 104.91 615.89 105.98 619.32 108.17 631.03 118.69 632.34 120.3 633.28 121.85 633.25 121.88 629.4 126.09 627.76 131.48 628.13 135.1 626.28 138.11 623.64 139.87 622.48 142.65 624.01 147.4 622.94 152.01 620.6 152.67 618.11 152.94 615.02 155.04 612.12 157.74 609.68 163.75 607.42 166.45 605.59 173.26 603.94 176.02 605.37 180.61 605.71 183.95 607.85 187.72 606.01 190.96 607.13 194.64 609.81 195.36 612.65 195.56 618.47 196.69 622.73 200.54 613.18 201.55 606.66 198.37 603.13 200 599.95 202.59 603.69 204.27 605.28 207.77 599.35 208.04 593.37 206.98 590.81 207.73 588.82 209.92 587.38 213.26 584.58 215.83 577.28 212.98 574.24 212.79 572.4 215.26 569.03 216.86 565.6 216.78 563.2 220.85 560.9 221.57 559.43 223.47 553.2 225.84 547.59 222.06 542.05 219.08 535.46 218.42 535.43 215.38 537.74 213.32 537.35 208.75 540.66 206.37 545.03 206.22 546.64 202.85 543.41 199.11 539.5 195.67 538.6 191.4 537.58 188.86 537.1 187.69 533.01 186 524.49 184.57 520.41 184.47 516.95 186.38 515.09 187.67 513.49 188.78 512.92 185.72 509.62 184.4 509.11 182.42 510.11 180.24 510.19 180.06 510.45 173.94 512.28 168.13 513.71 167.18 515.21 166.42 516.27 164.98 517.09 163.41 519.55 162.01 521.59 159.94 520.64 156.2 518.63 153.05 519.04 149.31 518.79 145.73 517.15 144.12 515.55 142.92 515.02 141.08 514.78 139.17 513.93 137.96 512.59 137.37 514.41 133.12 518.23 129.6 516.39 127.64 514.35 126.31 510.38 121.09 504.73 119.94 502.3 117.46 500.8 114.32 500.56 113.92 501.94 113.61 503.6 112.36 505.83 110.67 508.04 107.32 510.81 104.9 521.36 104.73 526.21 103.57 535.46 99.91 538.9 99.2 544.87 98.86 549.94 99.34 554.44 100.4 554.87 100.51 559.27 102.36 561.13 103.49 564.63 106.25 566.05 107.85 568.99 114.79 570.46 115.93 571.51 115.09 573.44 108.54 576.88 103.04 577.62 101.13 580.68 98.1 585.87 98.87 598.85 105.74 600.95 106.52 603.13 106.86 605.38 106.55 606.45 106.2 Z" id="GEO-3034" data-name="Mtskheta-Mtianeti"/>
<path d="M 405.45 82.95 416.56 85.26 421.06 86.09 429.25 89.05 431.24 90.33 436.15 94.64 438.36 95.68 449.43 97.67 452.59 98.85 454.74 99.65 456.07 103.13 453.33 106 449.17 108.19 445.83 110.6 445.46 114.12 448.85 117.22 454.21 118.28 460.02 118.62 464.82 119.55 467.54 121.08 467.53 121.09 466.82 127.11 460.49 130.47 457.9 133.94 455.62 134.74 439.09 135.71 429.39 141.49 426.89 140.81 419.22 138.72 407.09 139.45 394.47 138.44 383.18 142.81 379 145.95 373.98 147.48 365.46 148.05 359.79 145.69 357.25 145.34 354.29 143.57 352.77 139.83 346.74 135.66 340.17 132.57 337.22 132.64 334.59 134.6 331.47 134.42 328.47 133.49 315.75 136.65 315.65 134.11 314.71 131.86 314.68 128.84 313.64 126.1 304.59 112.78 307.75 107.81 302.36 103.75 289.03 98.17 282.5 94.02 285.44 89.9 289.22 88.34 293.63 88.1 295.07 87.83 296.36 87.1 297.6 84.91 299.08 82.92 302.05 82.97 304.99 83.99 321.89 87.03 328.85 87.22 332.07 86.16 333.51 85.26 335.05 84.69 347.97 88.99 356.62 88.12 364 90.23 367.32 90.66 369.44 88.17 369.76 84.45 372.41 82.63 376.46 78.45 380.35 77.29 382.63 78.21 405.45 82.95 Z" id="GEO-3035" data-name="Racha-Lechkhumi-Kvemo Svaneti"/>
<path d="M 584.58 215.83 581.09 218.31 580.82 220.36 583.09 221.94 583.92 224.03 584.47 226.1 586.29 227.31 588.38 228.09 591.15 228.62 593.86 228.09 595.45 226.41 597.38 225.28 598.51 228.2 595.13 231.94 590.65 233.04 586.09 232.84 582.65 231.55 579.75 231.02 576.81 230.84 567.11 227.09 563.58 227.23 561.95 225.58 561.57 223.91 559.43 223.47 560.9 221.57 563.2 220.85 565.6 216.78 569.03 216.86 572.4 215.26 574.24 212.79 577.28 212.98 584.58 215.83 Z" id="GEO-3036" data-name="Tbilisi"/>
<path d="M 605.28 207.77 608.39 210.41 611 213.65 614.93 215.8 619.47 216.16 621.56 219.36 622.48 223.17 624.76 229.54 620.68 236.59 621.33 239.82 622.19 242.14 624.33 243.2 628.14 243.41 631.85 244.2 634.06 246.57 634.91 249.54 635.91 250.96 636.66 252.51 637.03 254.52 637.03 254.54 634.81 253.67 630.92 253.52 627.1 254.52 609.04 265.77 597.69 272.84 596.22 273.56 593.52 275.39 592.07 276.14 587.56 276.25 576.08 274.88 573.77 276.64 574.75 278.32 579.22 279.94 580.02 280.8 580.48 281.3 579.3 282.54 576.18 282.86 558.74 282.59 553.77 281.1 551.36 280.85 548.8 281.72 547.26 283.27 545.81 285.15 544.06 286.33 541.62 285.81 540.97 284.9 540.54 283.69 539.91 282.79 538.63 282.82 537.86 283.27 535.46 285.29 532.57 285.92 529.9 285.78 527.3 285.06 520.96 282.15 519.49 282.03 518.08 282.37 517.11 283.03 516.25 283.77 515.15 284.34 512.36 284.69 510.16 284.05 504.4 281.04 501.18 280.03 499.91 280.04 498.5 280.8 498.19 281.68 498.11 282.69 497.5 283.85 495.63 285.26 493.3 286.21 490.79 286.56 485.75 285.49 483.37 285.68 478.59 287.31 475.86 287.81 475.86 287.77 474.59 281.61 473.35 279.71 471.81 278 470.96 272.75 472.69 267.5 472.22 264.95 470.96 262.68 468.48 261.5 467.57 258.75 467.52 256.15 467.15 253.6 466.69 251.96 465.58 251.24 463.42 247.81 460.31 245.32 454.64 245.08 448.92 246.15 443.7 246.32 439.53 245.72 440.32 243.82 442.01 242.8 443.24 239.9 443.99 228.01 446.71 224.28 451.96 224.93 459.06 224.72 464.93 220.06 492.44 222.09 496.12 221.18 499.88 220.7 505.48 221.74 511.25 220.98 518.42 218.37 520.58 219.16 522.5 220.89 525.24 221.71 533.54 221.56 535.46 218.42 542.05 219.08 547.59 222.06 553.2 225.84 559.43 223.47 561.57 223.91 561.95 225.58 563.58 227.23 567.11 227.09 576.81 230.84 579.75 231.02 582.65 231.55 586.09 232.84 590.65 233.04 595.13 231.94 598.51 228.2 597.38 225.28 595.45 226.41 593.86 228.09 591.15 228.62 588.38 228.09 586.29 227.31 584.47 226.1 583.92 224.03 583.09 221.94 580.82 220.36 581.09 218.31 584.58 215.83 587.38 213.26 588.82 209.92 590.81 207.73 593.37 206.98 599.35 208.04 605.28 207.77 Z" id="GEO-3037" data-name="Kvemo Kartli"/>
<path d="M 464.93 220.06 459.06 224.72 451.96 224.93 446.71 224.28 443.99 228.01 443.24 239.9 442.01 242.8 440.32 243.82 439.53 245.72 443.7 246.32 448.92 246.15 454.64 245.08 460.31 245.32 463.42 247.81 465.58 251.24 466.69 251.96 467.15 253.6 467.52 256.15 467.57 258.75 468.48 261.5 470.96 262.68 472.22 264.95 472.69 267.5 470.96 272.75 471.81 278 473.35 279.71 474.59 281.61 475.86 287.77 475.86 287.81 475.81 287.82 473.21 288.3 462.19 288.48 457.09 290.08 451.55 293.77 449.22 294.52 446.31 294.7 426.91 292.63 421.86 292.78 415.43 294.76 414.27 294.96 413.09 294.94 411.9 294.71 413.25 291.62 411.56 288.81 408.35 286.56 405.1 285.12 401.35 284.36 397.88 284.55 386.94 286.86 385.23 285.92 382.38 280.63 379.97 278.56 377.63 278.35 375.01 278.57 371.78 277.8 378.21 275.31 379.95 274.16 381.56 272.44 381.4 271.83 377.92 271.48 374.25 270.17 368.51 266.37 359.76 261.87 358.04 260.44 354.48 255.41 353.56 254.62 352.5 254.3 351.93 253.84 351.45 253.3 350.72 252.79 347.22 251.89 346.31 251.49 345.32 250.15 344.66 248.67 343.81 247.89 342.21 248.65 339.29 251.19 337.05 250.63 334.79 248.77 331.74 247.4 332.73 246.22 335.08 244.73 336.04 243.86 336.53 242.8 336.78 241.62 337.17 240.42 338.09 239.31 335.83 238.49 319.19 237.42 313.19 237.8 310.85 238.38 310.34 238.51 309.17 236 305.66 231.79 302.87 229.36 299.76 227.19 298.6 225.71 297.8 224.01 298.08 221.76 299.44 220.2 299.55 216.07 298.39 213.55 297.86 212.39 303.75 211.92 306.39 212.63 309.09 212.99 311.06 211.78 312.13 209.66 314.77 208.31 317.83 208.25 325.19 211.53 337.75 209.13 347.98 210.76 353.34 210.83 358.43 209.24 370.65 208.42 372.68 208.98 374.67 209.21 410.21 198.36 413.53 198.2 421.25 199.61 425.45 201.07 426.57 202.71 427.2 204.65 428.81 205.66 429.98 207.03 434.05 209.64 437.71 210.11 439.47 213.25 443.32 214.36 447.41 216.11 451.9 215.62 459.91 215.51 464.93 220.06 Z" id="GEO-3038" data-name="Samtskhe-Javakheti"/>
<path d="M 535.46 218.42 533.54 221.56 525.24 221.71 522.5 220.89 520.58 219.16 518.42 218.37 511.25 220.98 505.48 221.74 499.88 220.7 496.12 221.18 492.44 222.09 464.93 220.06 459.91 215.51 451.9 215.62 447.41 216.11 443.32 214.36 439.47 213.25 437.71 210.11 434.05 209.64 429.98 207.03 428.81 205.66 427.2 204.65 426.57 202.71 425.45 201.07 421.25 199.61 413.53 198.2 410.21 198.36 411.07 193.75 415.36 190.91 417.17 186.64 417.66 181.62 420.97 179.15 424.81 176.99 426.99 173.92 428.59 170.47 430.44 169.32 431.24 168.69 431.86 168.2 432.53 165.1 431.8 161.31 432.37 159.21 432.77 157.77 435.19 156.5 440.81 153.53 449.93 151.69 450.02 147.8 451.43 143.96 448.74 141.58 444.95 141.96 441.67 143.3 438.21 143.93 433.59 143.4 429.39 141.49 439.09 135.71 455.62 134.74 457.9 133.94 460.49 130.47 466.82 127.11 467.53 121.09 467.54 121.08 469.04 121.94 471.29 122.76 473.51 122.5 475.27 121.36 478.22 118.34 479.83 117.04 485.01 115.25 496.4 114.85 500.56 113.92 500.8 114.32 502.3 117.46 504.73 119.94 510.38 121.09 514.35 126.31 516.39 127.64 518.23 129.6 514.41 133.12 512.59 137.37 513.93 137.96 514.78 139.17 515.02 141.08 515.55 142.92 517.15 144.12 518.79 145.73 519.04 149.31 518.63 153.05 520.64 156.2 521.59 159.94 519.55 162.01 517.09 163.41 516.27 164.98 515.21 166.42 513.71 167.18 512.28 168.13 510.45 173.94 510.19 180.06 510.11 180.24 509.11 182.42 509.62 184.4 512.92 185.72 513.49 188.78 515.09 187.67 516.95 186.38 520.41 184.47 524.49 184.57 533.01 186 537.1 187.69 537.58 188.86 538.6 191.4 539.5 195.67 543.41 199.11 546.64 202.85 545.03 206.22 540.66 206.37 537.35 208.75 537.74 213.32 535.43 215.38 535.46 218.42 Z" id="GEO-3039" data-name="Shida Kartli"/>
</g>
</svg>