<?xml version="1.0"?>
<svg xmlns="http://www.w3.org/2000/svg" version="1.2" baseProfile="tiny" width="800" height="866" viewBox="0 0 800 866" stroke-linecap="round" stroke-linejoin="round">
<g id="ne_10m_admin_1_states_provinces">
<path d="M 328.61 404.59 328.16 406.03 327.41 406.17 325.58 406.18 327.07 407.49 327.46 408.24 327.41 409.3 326.48 408.88 325.58 408.59 324.7 408.66 323.83 409.3 324.9 410.15 325.85 411.19 326.58 412.41 327 413.77 327.03 414.59 326.85 415.05 326.62 415.38 326.51 415.8 326.51 418.08 326.8 419.43 328.05 421.09 328.34 422.09 328.06 423.12 327.55 424.22 327.32 425.43 327.89 426.8 327.35 428.12 327.38 429.28 327.54 430.43 327.41 431.72 325.96 433.54 325.85 434.3 327.41 434.39 326.24 436.27 326.07 436.87 326.21 437.41 326.84 438.22 327 438.86 326.87 439.77 324.85 444.36 324.73 444.5 324.67 444.67 324.32 446.49 323.73 447.1 322.23 448.1 321.6 448.76 321.04 449.71 320.61 450.75 320.45 451.8 320.71 452.78 321.21 453.26 321.8 453.47 322.29 453.72 322.5 454.35 322.31 454.82 319.96 458.6 319.62 460.07 318.83 461.29 318.79 462.1 319.09 462.74 320.08 463.87 320.46 464.49 320.61 465.09 320.75 466.34 322.16 471.56 323.11 473.13 329.27 479.52 330.83 480.33 332.26 480.8 332.93 481.1 333.58 481.57 337.7 485.8 338.69 486.53 342.54 488.72 344.28 489.25 344.88 489.56 347.05 491.2 352.64 497.34 355.64 499.67 356.03 500.12 356.34 500.62 356.94 502.3 357.48 503.31 357.74 504.55 357.42 505.76 356.93 506.99 355.88 507.07 354.67 507.22 353.92 507 353.35 507.02 351.94 507.36 351.31 507.41 350.03 507.26 349.41 507.29 348.67 507.58 346.21 509.15 345.69 509.62 345.42 510.4 345.38 511.04 345.47 512.54 345.33 513.2 345.09 513.81 334.71 528.55 333.35 530.15 327.94 535.33 326.5 536.48 325.56 537.55 325.14 539.35 325.44 540.62 325.84 541.28 328.8 544.25 329.68 545.53 331.84 549.5 333.08 552.7 334.01 553.69 334.56 554.16 335.43 554.7 335.86 555.18 336.4 555.92 337.3 557.5 338.65 559.19 339.68 560.9 340.38 563.51 341.36 565.23 342.23 565.81 342.56 566.11 342.76 566.51 342.77 567.23 342.66 567.7 342.52 568.14 342.47 568.49 342.61 568.81 343.37 569.47 343.57 569.87 343.49 570.86 343.52 571.36 343.67 571.94 344.15 572.72 344.49 573.15 344.82 573.41 345.09 573.51 346.27 573.88 346.98 574.26 347.91 574.96 349.01 576.03 349.64 576.47 351.11 577.19 351.41 577.39 351.65 577.62 351.86 577.86 351.88 577.9 351.96 578.18 352.05 578.66 351.89 581.26 351.93 581.93 352.02 582.42 352.46 583.44 352.44 583.84 352.19 584.33 350.51 586.18 349.37 588.15 348.73 587.56 348.38 587.06 347.77 585.46 347.42 585.01 346.02 584.55 344.54 585.06 340.1 588.47 339.31 588.76 338.25 588.92 334.94 588.91 334.04 588.79 333.44 588.43 332.4 587.12 331.83 586.56 330.57 585.61 330.01 585.02 329.07 583.09 328.97 582.78 328.15 582.54 327.59 581.93 326.82 580.51 325.63 579.72 322.47 579.76 321.15 579.27 320.73 578.77 319.99 577.64 319.48 577.2 318.25 576.88 316.76 577.03 312.08 578.33 308.53 579.94 306.09 581.54 304.59 582.87 303.96 583.63 303.49 584.55 303.02 586.44 302.63 587.31 301.84 588.01 300.97 588.08 300.07 587.75 297.09 585.83 295.93 585.32 294.76 585.18 292.24 585.66 291.08 585.49 290.22 584.52 290.05 583.19 290.04 581.41 289.85 579.86 289.11 579.2 288.38 578.94 287.64 578.32 287.02 577.58 286.61 576.97 286.2 574.74 285.51 574.56 284.77 574.74 284.17 574.74 283.93 574.04 283.87 573.5 283.72 572.83 283.51 572.25 283.26 572.02 282.62 571.85 280.36 570.67 279.77 570.01 279.46 569.78 279.03 569.65 278.05 569.48 277.68 569.34 275.66 567.33 272.83 562.63 270.49 560.81 269.42 560.25 268.23 559.47 267.27 558.51 266.54 556.61 265.76 555.45 264.2 553.63 261.89 552.29 260.72 551.39 260.22 550.26 256.16 546.89 252.22 544.8 251.06 543.11 249.65 543.09 245.31 544.13 244.72 543.96 244.3 542.35 243.86 541.73 243.23 541.28 242.5 541.12 241.74 540.51 240.77 539.09 239.94 537.44 239.6 536.17 238.24 536.17 237.58 535.99 236.81 535.86 234.57 535.67 231.94 535.81 230.19 536.2 229.35 536.47 224.06 540.04 222.63 541.11 218.86 544.06 218.15 544.44 217.55 544.55 216.8 544.55 213.47 544.02 209.55 544.17 207.01 543.89 206.48 543.76 205.86 543.68 204.38 543.81 199.94 544.61 196.3 536.29 191.34 528.91 187.94 524.77 186.78 523.68 176.06 515.84 184.48 511.51 185.26 510.96 185.74 510.39 185.56 509.5 185.19 508.89 184.58 508.32 184.17 507.61 183.9 506.95 185.18 504.47 184.2 500.98 183.69 500.37 183.21 499.51 182.92 498.84 182.88 498 183.09 495.97 182.12 491.22 181.73 490.21 181.28 489.38 180.44 488.17 179.46 487.17 178.75 486.09 175.73 484.94 174.72 484.03 174.41 482.84 174.6 481.5 175.12 480.11 175.44 479.57 176.59 478.12 176.85 477.42 176.87 476.81 176.7 475.53 176.84 474.2 177.3 473.05 178.54 470.82 179.83 469 181.41 468.26 185.34 467.78 186.87 467.28 188.6 466.39 190.12 465.23 191.01 463.94 191.2 462.85 191.16 461.77 190.67 458.75 190.65 457.88 190.71 452.93 190.13 451.06 188.18 447.73 187.42 445.96 187.33 444.32 188.21 441.02 188.51 432.9 188.12 431.97 186.74 430.25 186.2 429.38 185.92 429.16 183.87 428.45 183.78 428.03 183.91 426.99 183.77 425.56 183.07 424.45 181.14 422.43 180.14 420.76 178.96 419.3 178.75 418.82 178.68 418.16 179.3 413.35 179.29 411.7 179.06 410.15 179.04 409.39 179.23 408.64 179.73 407.81 180.25 407.18 180.63 406.49 180.75 405.48 180.64 405.03 180.41 404.8 180.12 404.65 179.84 404.44 179.69 404.22 181.7 402.13 184.07 399.2 189.5 394.71 207.87 412.54 208.56 413.77 209.55 416.6 210.3 418.54 210.67 419.23 214.45 424.04 225.16 435.1 226.57 436.23 232.99 440.34 236.26 441.85 241.36 443.48 248.25 444.87 251.5 445.02 253.6 444.83 276.42 438.5 282.7 435.58 283.59 434.43 284.57 432.63 288.14 422.04 288.11 420.01 288.34 419.08 290.39 414.84 293.53 409.61 295.49 408.3 320.42 405.44 326.87 404.1 327.77 404.55 328.61 404.59 Z" id="BOL-1291" data-name="Cochabamba"/>
<path d="M 283.72 572.83 283.87 573.5 283.93 574.04 284.17 574.74 284.77 574.74 285.51 574.56 286.2 574.74 286.61 576.97 287.02 577.58 287.64 578.32 288.38 578.94 289.11 579.2 289.85 579.86 290.04 581.41 290.05 583.19 290.22 584.52 291.08 585.49 292.24 585.66 294.76 585.18 295.93 585.32 297.09 585.83 300.07 587.75 300.97 588.08 301.84 588.01 302.63 587.31 303.02 586.44 303.49 584.55 303.96 583.63 304.59 582.87 306.09 581.54 308.53 579.94 312.08 578.33 316.76 577.03 318.25 576.88 319.48 577.2 319.99 577.64 320.73 578.77 321.15 579.27 322.47 579.76 325.63 579.72 326.82 580.51 327.59 581.93 328.15 582.54 328.97 582.78 329.07 583.09 330.01 585.02 330.57 585.61 331.83 586.56 332.4 587.12 333.44 588.43 334.04 588.79 334.94 588.91 338.25 588.92 339.31 588.76 340.1 588.47 344.54 585.06 346.02 584.55 347.42 585.01 347.77 585.46 348.38 587.06 348.73 587.56 349.37 588.15 350.06 588.8 350.7 589.6 350.93 590.4 350.9 591.25 350.75 592.22 350.73 593.28 350.96 594.13 351.89 595.81 352.24 596.69 352.71 598.44 353.19 599.23 354.53 600.29 355.92 600.98 357.19 601.8 358.13 603.28 358.31 604.13 358.41 605.06 358.6 605.93 359.06 606.61 359.87 607.04 360.83 607.26 362.74 607.37 363.75 607.66 364.34 608.28 364.86 609.03 365.62 609.71 366.1 609.87 366.55 609.92 366.99 610.08 367.39 610.58 370.1 619.61 370.25 620.39 370.55 621.09 371.17 621.62 372.16 621.92 373.36 622 374.56 621.9 375.56 621.66 376.39 621.24 377.01 620.65 377.46 619.91 377.77 619.02 378.38 614.25 379.13 612.89 379.95 612.31 380.72 612.3 382.46 612.84 383.83 612.89 387.94 612.44 388.54 613.49 386.98 624.38 386.82 628.33 389.59 673.57 389.82 674.24 390.66 676 390.66 676 390.79 676.25 393.54 702.64 394.39 705.44 395.87 705.59 399.95 705.61 402.93 706.25 403.62 706.26 404.16 706.1 404.49 705.92 404.88 705.53 406.02 703.97 406.47 703.49 407 703.12 407.69 702.94 408.97 702.75 409.5 702.56 409.87 702.37 410.72 701.7 411.13 701.22 411.91 700.1 412.36 699.63 412.92 699.37 413.77 699.99 414.64 701.3 416.64 705.83 417.2 706.66 417.72 706.91 418.33 707.07 488.61 706.82 488.66 706.82 487.23 708.76 484.85 712.17 484.29 713.92 484.37 719.86 484.44 725.62 484.52 731.9 484.65 741.43 484.61 741.43 380.17 741.36 374.09 741.19 372.73 741.18 372.71 740.98 371.43 739.84 370.97 739.15 371.11 738.52 371.59 737.75 371.13 737.6 370.37 737.73 369.99 737.85 368.12 737.82 367.53 737.44 367.31 736.25 366.76 735.8 365.48 735.52 364.06 735.5 363.07 735.82 362.29 735.93 361.38 735.35 360.58 734.5 360.16 734.3 359.66 735.46 359.56 735.79 359.47 736.41 359.42 738.02 359.81 741.94 359.8 742.27 359.67 742.66 359.43 743.08 358.96 743.65 358.85 744.05 358.8 744.39 358.72 744.68 358.43 745.25 358.38 745.58 358.71 746.54 358.75 746.92 358.68 748.22 358.61 748.61 358.49 748.97 358.33 749.28 358.12 749.58 357.86 749.87 357.51 750.2 357.19 750.43 356.86 750.61 356.42 750.69 355.86 750.65 354.12 750.13 353.27 750.03 349.34 750.44 348.14 750.21 345.73 749.23 343.38 747.36 342.81 746.99 342.47 746.84 341.64 746.7 341.19 746.69 339.98 746.83 337.96 747.33 337.37 747.36 336.89 747.29 336.59 747.12 336.31 746.91 336.1 746.68 335.91 746.4 334.34 743.03 334.17 742.75 332.89 741.39 332.62 741.03 332.17 740.58 331.9 740.38 330.66 739.72 330.43 739.49 330.24 739.21 329.88 738.24 329.71 737.95 329.48 737.73 329.15 737.61 328.78 737.58 327.97 737.58 327.6 737.5 327.24 737.38 326.35 736.93 326.03 736.82 325.66 736.75 325.18 736.88 324.69 737.21 324.05 738.09 323.5 739.08 322.56 740.47 322.14 741.4 322.14 741.41 322.03 742.25 322.06 743.03 322.05 743.4 321.95 743.75 321.47 744.67 321.35 745.03 321.18 745.8 320.92 746.22 320.45 746.62 319.38 747.1 318.15 747.44 317.36 747.78 317.04 747.73 316.76 747.57 316.55 747.32 316.31 747.09 316.04 746.89 315.05 746.44 314.75 746.26 314.51 746.04 314.33 745.79 314.17 745.53 313.98 745.29 313.75 745.06 313.47 744.87 313.13 744.72 312.39 744.49 312.11 744.3 311.98 743.98 311.89 743.63 311.77 743.3 311.59 743.03 311.32 742.82 310.98 742.7 310.57 742.66 309.77 742.72 309.38 742.7 309.05 742.59 308.77 742.41 308.27 741.97 307.98 741.8 307.62 741.74 307.2 741.83 306.63 742.05 306.28 742.1 306.01 742.06 305.8 741.87 305.42 741.41 305.36 741.38 304.9 741.36 304.47 741.46 304.16 741.46 304 741.42 303.96 741.4 303.93 741.38 301.9 739.02 301.39 738.59 301.08 738.47 300.71 738.46 300.31 738.57 299.43 738.89 299.03 738.95 298.65 738.9 297.53 738.56 297.2 738.41 296.64 738.02 296.34 737.86 295.97 737.85 295.59 738.03 295.2 738.52 294.97 738.92 294.81 739.32 293.99 751.27 292.89 754.91 292.8 755.57 292.8 758.2 292.93 759.54 291.12 772.66 290.85 776.42 285.46 772.66 276.23 763.32 275.11 760.86 275.02 760.5 274.96 758.87 275.65 752.03 275.59 751.66 275.39 750.99 275.25 750.25 275.22 749.39 275.34 748.03 278.14 738.95 278.57 730.73 280.28 727.99 280.78 726.84 281.56 723.09 281.86 722.11 286.86 710.91 282.27 693.59 282.08 692.23 282.03 689.9 282.09 689.28 282.77 687.12 283.08 686.49 283.44 685.94 283.87 685.42 285.6 683.11 285.88 682.04 285.54 680.9 285.49 680.56 285.5 679.16 285.73 678.76 286.06 678.53 286.78 678.35 287.09 678.2 287.37 678.01 288.47 676.96 289.78 676 290.02 675.89 291.29 675.43 293.28 675.15 294.71 674.77 301.42 674.22 302.52 673.94 314.86 667.39 319.97 662.28 322.16 659.36 322.77 658.5 322.27 657.15 320.86 654.56 315.32 647.65 314.66 646.37 314.3 645.15 314.22 643.9 314.42 642.52 314.75 641.43 314.86 640.88 314.8 640.29 314.57 639.9 314.13 639.36 313.7 638.96 313.51 638.98 313.22 637.61 312.48 636.14 311.45 634.83 310.34 633.95 308.59 633.51 306.62 633.66 301.54 635.23 300.08 635.22 299.91 635.08 299.72 634.81 299.44 634.7 298.97 635 297.68 635.39 296.08 634.88 292.1 632.74 291.06 632 289.99 631.41 287.06 630.88 285.98 630.2 285.05 629.32 281.83 627.22 281.08 626.46 279.63 624.36 277.88 623.16 276.96 622.29 276.57 621.52 276.3 619.78 276.02 618.97 275.63 618.42 275.2 618.04 273.11 616.71 272.07 615 270.86 611.81 270.83 611.59 270.84 611.44 270.92 611.17 271.05 610.94 271.2 610.61 272.3 608.84 273.94 606.26 274.4 605.78 275.23 605.07 275.41 604.7 275.47 604.38 275.37 604.09 275.23 603.38 275.13 602.52 275.04 602.12 274.9 601.74 274.74 601.43 274.54 601.13 274.03 600.63 273.49 600.19 273.36 600 273.18 599.63 273.03 598.93 273.1 598.35 273.24 597.97 273.35 597.82 275.72 595.85 276.74 595.24 277.16 594.88 277.62 594.32 278.28 593.21 278.53 592.44 278.62 591.76 278.49 591.13 278.34 590.73 278.09 590.42 277.76 590.19 277.39 590.02 277 589.91 276.68 589.85 276.29 589.86 273.44 590.51 272.13 590.96 265.03 594.34 264.69 594.44 264.37 594.48 264.03 594.43 263.56 594.15 263.37 593.82 263.3 593.36 263.39 592.97 263.57 592.61 263.8 592.29 264.09 592 265.61 590.77 266.12 590.18 266.41 589.57 266.46 589.27 265.1 582.19 264.96 579.47 265.38 576.34 265.31 575.64 265.1 575.16 264.43 574.7 263 574.07 262.56 573.8 262.1 573.42 261.5 572.73 261.28 572.3 261.18 571.94 261.18 571.34 260.8 569.01 260.92 568.4 261.16 568.15 261.5 567.95 261.86 567.82 262.21 567.76 262.5 567.88 262.66 568.11 262.82 568.61 262.98 568.85 263.24 569.01 264.03 569.09 264.42 569.23 264.74 569.45 265.1 569.63 265.53 569.69 267.45 569.62 267.92 569.71 268.31 569.85 268.58 570.05 268.79 570.29 268.95 570.59 269.1 570.96 269.3 571.3 269.59 571.55 269.96 571.69 270.34 571.7 270.73 571.59 272.56 570.73 272.98 570.6 273.3 570.56 273.47 570.6 273.6 570.66 274.11 570.96 279.07 572.53 280.58 573.19 281.57 573.3 283.72 572.83 Z" id="BOL-1292" data-name="Chuquisaca"/>
<path d="M 529.05 251.3 529.01 251.33 494.02 271.07 436.18 303.54 399.72 324.02 377.13 330.4 374.04 331.79 375.53 338 375.57 345.59 375.93 348.98 375.89 350.79 375.61 352.05 375.23 352.99 374.9 354.57 375.62 357.7 376.06 358.73 378.15 361.93 380.57 368.46 387.45 378.8 388.05 379.43 388.72 379.85 390.34 380.45 391.2 380.98 392.02 381.99 392.4 382.88 392.73 386.06 393.19 386.92 396.22 390 396.97 390.47 397.7 390.64 398.46 390.68 399.15 391 401.1 392.61 401.82 393.04 403.94 393.98 404.41 394.23 404.98 394.81 405.65 395.68 406.46 397.28 407.84 398.99 408.19 399.61 408.32 400.26 408.39 401.87 408.53 402.85 408.91 404.14 409.51 404.99 411.22 406.83 411.86 407.27 412.61 407.59 414.94 408.14 415.63 408.42 416.27 408.75 416.06 408.92 414.73 408.99 328.61 404.59 327.77 404.55 326.87 404.1 320.42 405.44 295.49 408.3 293.53 409.61 290.39 414.84 288.34 419.08 288.11 420.01 288.14 422.04 284.57 432.63 283.59 434.43 282.7 435.58 276.42 438.5 253.6 444.83 251.5 445.02 248.25 444.87 241.36 443.48 236.26 441.85 232.99 440.34 226.57 436.23 225.16 435.1 214.45 424.04 210.67 419.23 210.3 418.54 209.55 416.6 208.56 413.77 207.87 412.54 189.5 394.71 186.8 392.07 173.73 380.15 172.32 377.78 171.75 377.21 171.34 376.91 169.98 376.36 169.04 375.84 168.37 375.14 167.91 374.42 167.65 373.72 167.55 373.03 167.58 372.36 168.07 369.61 168.06 368.82 167.85 367.92 163.69 359.77 161.93 357.24 160.37 355.47 159.5 354.66 158.94 353.76 157.71 351.35 157.01 350.51 156.26 349.97 155.48 349.83 154.7 349.84 153.14 350.03 152.32 349.97 151.6 349.76 150.97 349.4 150.03 348.68 149.06 348.1 148.09 346.91 147.28 344.53 147.06 343.2 147 342.19 147.21 340.78 147.53 339.49 147.81 337.01 147.76 334.31 147.44 332.89 146.87 331.84 143.69 329.04 142.43 327.31 140.7 323.26 140.35 322.71 140.52 322.23 140.89 321.55 141.36 321.05 142.4 320.16 142.84 319.62 143.42 318.31 143.49 317.03 143.1 315.78 142.31 314.58 140.88 313.2 140.58 312.54 140.54 312.13 140.56 311.33 140.46 310.93 140.29 310.7 139.85 310.31 139.68 310.09 138.73 307.7 138.41 306.4 138.24 305.17 138.49 303.97 139.26 303.36 141.35 302.44 142.18 301.53 142.46 300.48 142.34 299.36 141.7 297.22 141.96 293.3 141.28 288.23 141.2 287.42 140.38 284.5 140.35 283.46 142.1 275.71 142.63 274.75 143.25 273.92 143.83 272.88 144.02 271.58 143.12 269.87 143.18 268.61 143.95 265.96 144.55 264.63 145.38 263.82 146.46 263.15 147.23 262.29 148.51 260.2 151.23 256.81 151.79 255.69 151.81 254.42 150.68 252.73 149.58 246.75 149.53 244.48 150.56 242.3 153.38 238.07 154.34 237 156.6 235.26 161.93 229.13 162.19 228.54 162.47 227.23 162.77 226.64 163.26 226.21 164.47 225.59 165 225.19 167.56 220.59 168.66 219.57 169.98 219.34 171.08 219.47 171.99 219.2 175.14 211.69 178.77 196.63 178.9 194.96 178.61 193.6 177.58 190.79 179.34 188.46 180.13 187.11 180.18 186.07 179.66 185.06 179.52 184.22 179.44 180.22 179.61 178.94 180.12 177.75 181.09 176.35 181.6 175.1 181.36 174.01 180.88 172.91 180.68 171.64 181.16 170.2 182.01 168.79 182.64 167.35 182.49 165.78 182.03 164.12 182.12 162.71 183.12 159.7 183.42 157 183.06 153.72 182.14 150.53 180.74 148.09 179.78 146.98 179.38 146.64 179.15 146.69 178.79 146.9 178.36 147.05 177.93 146.9 177.36 145.8 177.07 144.2 177.33 142.88 178.4 142.63 179.61 142.76 180.79 142.41 181.86 141.72 182.7 140.86 183.46 139.38 183.14 138.48 182.33 137.73 181.61 136.7 181.6 135.45 182.49 134.9 183.76 134.84 184.91 135.04 186.16 134.95 187.02 134.13 187.78 133.05 188.7 132.2 189.81 131.91 192.05 131.92 193.13 131.48 194.03 130.22 194.12 128.72 193.66 125.51 194.04 124.29 195.62 122.51 195.83 121.27 195.64 119.63 195.74 118.01 196.4 116.74 197.9 116.14 203.87 115.77 208.3 116.28 209.98 115.71 213.55 113.56 218.05 113.08 220.08 112.59 220.42 111.25 220.6 109.88 224.15 109.04 224.9 107.82 224.46 106.89 223.77 106.29 223.3 105.48 223.53 103.96 224.1 102.89 226.49 99.98 226.97 98.77 226.92 97.65 226.38 95.27 226.56 93.74 227.39 93.52 228.53 93.84 229.61 93.94 231.18 92.62 231.51 90.47 231.56 88.12 232.27 86.16 232.86 85.26 233.87 85.94 234.9 85.38 235.7 84.15 236.47 81.51 237.31 80.05 237.84 78.68 237.32 77.63 236.65 77.5 235.29 78.05 234.6 78.08 234.14 77.8 233.76 77.35 233.75 76.93 235.85 76.28 238.54 74.16 240.04 73.57 242.54 74 245.38 74.9 247.67 75.03 248.53 73.17 248.22 71.96 247.47 70.79 246.42 69.91 245.18 69.55 244.57 69 245.01 67.79 245.92 66.57 246.74 66.02 247.48 66.4 248.36 67.29 249.11 68.26 249.42 68.93 250.21 69.23 251.98 68.85 254.82 67.81 256.33 66.67 256.96 65.57 257.06 64.28 257.01 62.63 256.7 61.22 256.24 59.88 256.41 58.84 257.95 58.35 259.3 58.61 260.71 59.13 262.14 59.32 263.55 58.59 264.86 57.41 266.12 56.5 271.79 53.77 272.28 53.21 272.71 51.91 273.73 50.47 274.92 49.23 275.85 48.53 276.92 48.15 280.36 47.59 280.4 47.58 280.4 47.61 280.5 48.12 280.61 48.33 280.88 48.54 279.34 51.32 278.39 52.23 276.78 52.56 276.78 53 277.57 54.16 277.72 54.59 277.65 54.91 277.34 55.52 277.27 55.91 277.33 56.46 277.48 57.14 277.7 57.72 277.96 57.96 278.14 58.66 277.72 61.89 277.72 62.87 278.83 64.1 280 64.81 280.92 65.73 281.29 67.6 281.21 68.75 280.72 71.24 279.74 74.22 280.07 75.07 282.65 75.74 283.83 76.55 284.82 77.57 285.35 78.54 285.76 84.14 285.93 84.5 286.3 84.86 286.62 85.36 286.65 86.17 286.4 86.74 285.96 87.13 285.43 87.48 284.86 87.96 283.85 89.49 283.8 90.66 284.17 91.78 284.41 93.14 283.91 94.32 281.38 96.27 280.4 97.38 280.17 98.99 281.02 100.01 282.12 100.78 282.67 101.66 282.27 102.65 281.45 103.17 280.8 103.9 280.88 105.5 281.72 106.7 283.07 107.66 284.31 108.35 284.86 108.79 284.63 109.62 283.49 110.94 283.08 111.71 283.01 112.35 283.13 112.9 285.31 118.51 287.08 120.36 289.37 119.74 290.97 120.6 291.65 121.19 292.09 122.02 292.09 122.66 291.59 123.84 291.6 124.7 291.87 125.58 292.18 125.77 292.65 125.78 293.43 126.08 294.83 127.02 295.26 127.6 293.73 128.11 293.57 128.71 293.83 130.32 293.7 130.96 293.12 131.95 292.98 132.57 293.01 134.96 293.38 135.87 294.28 136.84 295.46 137.7 296.31 137.91 296.83 137.31 297.19 134.13 297.45 133.3 297.85 132.78 298.8 132.51 298.99 133.13 298.79 134.61 299.73 135.5 300.91 135.97 301.93 136.6 302.53 138.73 303.38 140.17 303.7 140.89 303.76 141.53 303.65 142.86 303.7 143.5 304.01 144.89 304.38 145.48 305.04 145.8 305.26 145.81 305.91 146.11 306.34 146.8 306.44 147.6 306.16 148.24 305.26 149.5 305.15 150.69 305.6 151.72 306.38 152.51 307.3 153.01 308.33 153.27 311.11 153.4 312.46 153.67 313.83 154.15 315.23 154.37 316.69 153.85 317.49 154.21 318.69 154.44 319.79 154.88 320.26 155.85 320.57 157.18 321.35 158.41 323.43 160.59 322.95 161.49 323.25 162.21 323.98 162.55 324.77 162.34 324.94 161.81 325.16 160.07 325.42 159.69 326.49 159.58 326.72 159.94 327.04 161.03 327.04 161.57 326.58 162.38 326.56 162.82 326.75 163.16 327.33 163.72 327.45 163.94 328.13 164.59 329.72 165.51 332.81 166.88 333.62 166.97 335.33 166.99 335.75 167.08 336.82 167.94 338.17 168.62 338.24 168.42 338.25 168.27 338.34 168.19 339.29 168.32 339.61 168.41 340.68 169.31 340.94 169.83 341 170.58 340.92 172.04 340.59 173.45 339.41 176.07 339.58 177.19 339.99 177.45 341.43 177.95 342.02 178.28 342.57 178.9 343.34 180.28 343.83 180.97 344.72 181.87 345.74 182.66 346.98 183.22 348.52 183.44 351.17 182.96 352.15 183.21 352.81 185.27 353.42 185.41 354.04 185.27 354.36 185.14 354.82 184.85 355.55 184.11 356.15 183.85 357.54 183.74 358.7 184.06 359.64 184.66 361.46 186.56 362.15 186.79 362.8 186.17 363.78 184.78 364.79 185.92 368.71 186.05 370.13 187.93 371.35 187.77 373.42 187.02 374.28 187.29 374.89 187.86 375.6 188.34 376.77 188.36 377.56 187.7 378 187.12 378.36 186.48 380.57 183.81 380.59 183.44 381.72 183.29 383.72 182.66 384.61 182.51 394 183.85 394.19 184.04 397.75 185.85 400.48 188.06 401.56 188.59 403 188.8 403.83 188.83 404.57 188.94 405.25 189.21 405.88 189.69 406.37 190.41 406.48 191.07 406.52 191.69 406.77 192.33 407.32 192.78 407.9 192.97 408.37 193.25 408.56 193.98 408.81 194.41 411.3 196.22 412.75 196.57 413.51 196.88 415.41 198.34 416.23 198.66 420.85 198.62 421.59 198.44 421.85 197.95 422.46 197.39 423.82 196.43 424.12 196.37 424.89 196.47 425.2 196.43 425.51 196.16 425.8 195.42 426.1 195.1 427.9 194.32 428.08 194.2 428.85 194.34 430.14 194.95 432.12 195.44 432.79 196.33 433.24 198.66 433.52 199.08 433.95 199.42 434.18 199.79 433.68 200.55 433.61 200.92 433.68 201.29 433.89 201.59 435.34 202.84 436.06 203.62 436.37 204.29 436.56 205.73 437.08 206.98 437.81 207.95 438.64 208.53 439.35 208.78 439.96 208.84 440.52 208.69 441.08 208.31 441.68 208.09 442.01 208.53 442.23 209.15 445.66 213.52 445.85 213.94 446.17 214.25 446.9 214.37 447.56 214.41 448.05 214.56 448.36 214.89 448.47 215.46 448.79 216.52 449.62 217.43 450.77 218.2 452.04 218.84 452.16 217.54 452.86 217.19 453.94 217.2 455.21 217.02 456.05 216.5 456.71 215.98 457.52 215.87 458.77 216.61 459.4 217.15 459.83 217.67 460.08 218.26 460.23 219.82 460.46 220.12 466.16 222.53 470.21 222.41 471.55 222.63 472.44 223.26 474.24 225.34 474.39 225.65 474.47 226.31 474.69 226.43 475.6 226.38 475.83 226.43 476.94 227.12 477.46 227.31 480.52 227.65 481.4 227.56 482.12 226.92 483.44 227.45 484.53 227.21 485.48 226.71 487.93 226.09 488.6 226.03 489.29 226.18 491.05 227.37 491.15 225.87 491.81 226.06 493.28 227.77 493.98 228.03 494.55 227.89 494.93 227.98 495.07 228.93 495.07 233.32 495.27 234.44 495.94 235.33 497.35 236.33 500.23 239.45 501.14 239.91 501.21 240.19 502.22 241.73 502.57 241.97 504.04 242.63 505.15 243.37 508.33 246.41 509 246.89 510.28 247.53 510.78 247.99 511.02 248.5 512.37 252.87 513.13 253.52 514.6 253.75 515.88 253.5 517.2 253.04 518.5 252.84 519.75 253.35 521.02 252.6 522.52 252.04 524.14 251.68 528.78 251.26 529.05 251.3 Z" id="BOL-1293" data-name="El Beni"/>
<path d="M 180.12 177.75 179.61 178.94 179.44 180.22 179.52 184.22 179.66 185.06 180.18 186.07 180.13 187.11 179.34 188.46 177.58 190.79 178.61 193.6 178.9 194.96 178.77 196.63 175.14 211.69 171.99 219.2 171.08 219.47 169.98 219.34 168.66 219.57 167.56 220.59 165 225.19 164.47 225.59 163.26 226.21 162.77 226.64 162.47 227.23 162.19 228.54 161.93 229.13 156.6 235.26 154.34 237 153.38 238.07 150.56 242.3 149.53 244.48 149.58 246.75 150.68 252.73 151.81 254.42 151.79 255.69 151.23 256.81 148.51 260.2 147.23 262.29 146.46 263.15 145.38 263.82 144.55 264.63 143.95 265.96 143.18 268.61 143.12 269.87 144.02 271.58 143.83 272.88 143.25 273.92 142.63 274.75 142.1 275.71 140.35 283.46 140.38 284.5 141.2 287.42 141.28 288.23 141.96 293.3 141.7 297.22 142.34 299.36 142.46 300.48 142.18 301.53 141.35 302.44 139.26 303.36 138.49 303.97 138.24 305.17 138.41 306.4 138.73 307.7 139.68 310.09 139.85 310.31 140.29 310.7 140.46 310.93 140.56 311.33 140.54 312.13 140.58 312.54 140.88 313.2 142.31 314.58 143.1 315.78 143.49 317.03 143.42 318.31 142.84 319.62 142.4 320.16 141.36 321.05 140.89 321.55 140.52 322.23 140.35 322.71 140.7 323.26 142.43 327.31 143.69 329.04 146.87 331.84 147.44 332.89 147.76 334.31 147.81 337.01 147.53 339.49 147.21 340.78 147 342.19 147.06 343.2 147.28 344.53 148.09 346.91 149.06 348.1 150.03 348.68 150.97 349.4 151.6 349.76 152.32 349.97 153.14 350.03 154.7 349.84 155.48 349.83 156.26 349.97 157.01 350.51 157.71 351.35 158.94 353.76 159.5 354.66 160.37 355.47 161.93 357.24 163.69 359.77 167.85 367.92 168.06 368.82 168.07 369.61 167.58 372.36 167.55 373.03 167.65 373.72 167.91 374.42 168.37 375.14 169.04 375.84 169.98 376.36 171.34 376.91 171.75 377.21 172.32 377.78 173.73 380.15 186.8 392.07 189.5 394.71 184.07 399.2 181.7 402.13 179.69 404.22 179.84 404.44 180.12 404.65 180.41 404.8 180.64 405.03 180.75 405.48 180.63 406.49 180.25 407.18 179.73 407.81 179.23 408.64 179.04 409.39 179.06 410.15 179.29 411.7 179.3 413.35 178.68 418.16 178.75 418.82 178.96 419.3 180.14 420.76 181.14 422.43 183.07 424.45 183.77 425.56 183.91 426.99 183.78 428.03 183.87 428.45 185.92 429.16 186.2 429.38 186.74 430.25 188.12 431.97 188.51 432.9 188.21 441.02 187.33 444.32 187.42 445.96 188.18 447.73 190.13 451.06 190.71 452.93 190.65 457.88 190.67 458.75 191.16 461.77 191.2 462.85 191.01 463.94 190.12 465.23 188.6 466.39 186.87 467.28 185.34 467.78 181.41 468.26 179.83 469 178.54 470.82 177.3 473.05 176.84 474.2 176.7 475.53 176.87 476.81 176.85 477.42 176.59 478.12 175.44 479.57 175.12 480.11 174.6 481.5 174.41 482.84 174.72 484.03 175.73 484.94 178.75 486.09 179.46 487.17 180.44 488.17 181.28 489.38 181.73 490.21 182.12 491.22 183.09 495.97 182.88 498 182.92 498.84 183.21 499.51 183.69 500.37 184.2 500.98 185.18 504.47 183.9 506.95 184.17 507.61 184.58 508.32 185.19 508.89 185.56 509.5 185.74 510.39 185.26 510.96 184.48 511.51 176.06 515.84 174.55 514.47 174.33 514.18 172.76 512.45 171.67 510.93 170.81 509.14 170.39 508.45 169.93 507.85 169.39 507.29 168.44 506.55 168.02 506.34 167.55 506.16 166.73 506.01 166.13 505.97 165.54 506.01 157.01 508.37 155.62 508.89 147.9 513.25 139.92 518.75 138.35 519.92 127.52 526.4 126.28 527.31 126.05 527.66 125.97 528.09 126.06 529.02 126.22 529.57 126.43 530.02 127.05 530.99 127.44 531.89 127.51 532.2 127.53 532.61 127.49 533.03 127.29 533.71 127.1 534.17 126.75 534.84 126.29 535.33 124.9 536.2 124.02 536.34 123.21 536.28 122.83 536.19 122.47 536.05 109.62 526.77 108.17 526.12 106.01 525.39 100.81 522.88 98.86 522.29 88.62 521.87 80.79 522.45 78.62 523.01 74.53 524.8 73.89 525.22 70.23 528.17 64.45 535.19 62.14 537.23 56.57 541.28 53.25 543.01 44.64 545.26 39.88 547.54 39.21 547.74 38.57 546.71 37.78 546.74 36.75 547.14 35.38 547.2 34.28 546.87 33.22 546.42 31.24 545.26 29.69 544.89 29.23 544.72 28.77 544.32 27.45 542.83 26.44 543.06 25.62 543.66 24.81 543.63 23.8 542.02 23.21 539.63 23.16 534.82 22.73 532.48 21.09 529.45 18.77 526.95 13.47 522.45 12.08 520.42 11.49 518.05 11.23 512.91 11.23 512.84 11.34 508.17 11.14 505.85 10.41 503.92 9.46 502.75 8.17 501.46 5.53 499.43 4.5 499.08 1.14 498.65 1 498.64 2.12 496.97 3.14 493.34 3.86 491.92 4.15 491.83 5.27 491.65 5.67 491.53 9.21 488.43 11.23 487.11 13.01 486.43 14.89 486.1 16.64 485.46 18.04 483.9 18.35 482.86 18.04 482.45 17.56 482.25 17.35 481.87 17.54 481.24 17.96 480.8 20.76 479.2 21.54 478.32 23.27 474.69 29.91 467.89 30.81 466.51 32.06 462.97 32.66 462.04 33.71 461.41 36.05 461.19 37.26 460.91 41.07 459 42.17 458.21 43.25 456.85 44.05 455.85 42.29 453.49 41.97 452.4 42.13 450.36 42.05 446.54 42.18 445.21 42.77 444.08 44.48 442.03 46.66 440.95 54.02 438.13 55.48 435.89 54.82 434.13 53.31 433.14 49.91 431.81 47.24 428.98 45.77 428.11 43.93 428.7 41.8 428.06 41.09 428 40.37 428.25 39.11 429.19 38.37 429.5 36.69 429.5 35.13 428.99 33.72 428.14 32.5 427.13 30.23 424.37 28.76 420.8 25.98 414.05 23.2 407.31 20.42 400.57 17.63 393.82 16.84 391.89 16.47 389.93 17.04 387.98 21.28 381.76 21.63 380.49 21.8 379.18 22.13 377.89 22.98 376.71 23.65 376.36 25.43 375.78 25.89 375.48 25.93 374.92 25.17 372.97 25.55 371.92 26.59 370.57 27.86 369.46 30.03 368.73 30.91 366.21 32.18 366.13 33.73 366.23 34.75 365.43 34.91 364.23 33.36 362.76 31.74 360.52 30.68 359.52 26.79 356.7 25.72 355.64 21.96 350.05 20.86 349.05 19.46 347.78 19.04 346.64 19.33 345.42 20.4 342.97 20.54 342.46 20.26 337.11 20.36 335.99 20.95 335.1 22.42 334.24 26.05 333.25 27.09 332.66 27.99 330.78 28.4 322.39 29.24 321.12 30.53 320.99 32.02 321.3 33.45 321.34 33.83 320.61 33.64 317.59 33.85 316.46 34.24 316.17 35.36 315.88 35.83 315.66 38.41 312.76 39.68 311.85 43.93 309.54 45.23 308.35 44.94 307.04 44.05 305.74 43.53 304.57 43.47 302.04 43.57 300.77 43.93 299.65 45.58 298.5 47.78 297.95 52.2 297.4 53.46 296.07 53.17 293.78 51.54 289.4 51.13 287.15 50.76 286.13 50.07 285.19 46.57 282.94 45.71 281.75 45.31 279.64 45.3 277.26 45.05 275.05 43.93 273.38 43.08 270.88 43 269.99 43.23 268.94 43.55 268.17 43.55 267.42 42.82 266.44 39.29 263.64 37.95 261.76 38.86 260.27 39.72 260.19 41.71 260.54 42.46 260.41 43.03 259.69 43.05 258.92 42.92 258.1 43.07 257.2 43.59 256.45 44.97 254.98 45.53 254.15 46.11 252.58 46.51 250.96 46.26 249.47 47.03 236.71 46.09 231.56 45.92 228.92 46.41 221.17 46.3 220.23 45.49 213.8 45.47 210.99 45.84 209.52 47.9 207.95 48.6 206.36 49.39 205.14 50.83 205.34 51.66 203.49 52.67 202.13 54 201.25 59.39 199.81 59.89 199.23 61.4 196.3 60.75 195.58 58.63 195 58.03 194.39 58.1 193.32 58.73 192.37 59.63 191.63 61.58 190.59 62.51 189.77 63.26 188.8 63.8 187.81 64.2 186.5 64.58 185.9 65.24 185.62 64.9 185.02 65.64 185.13 67.77 185.23 68.4 185.13 68.81 184.85 69.6 184.01 69.9 183.83 71.18 180.28 71.93 179.37 73.49 179.06 74.61 179.58 75.57 180.32 76.64 180.71 77.99 180.53 78.81 180.01 80.01 178.07 83.05 170.6 84.48 168.61 92.22 164.61 93.9 162.8 94.41 160.62 94.89 155.87 95.93 154.06 97.93 153.12 102.85 152.46 104.61 151.6 105.95 151.68 107.59 151.38 109.16 150.79 110.28 150.02 111.22 148.58 111.76 146.87 111.73 146.53 112.91 146.82 180.12 177.75 Z" id="BOL-1936" data-name="La Paz"/>
<path d="M 176.06 515.84 186.78 523.68 187.94 524.77 191.34 528.91 196.3 536.29 199.94 544.61 199.4 545.89 198.75 546.47 198.02 546.97 197.23 547.33 192.75 548.71 192.27 549.76 191.86 555.82 191.98 557.3 192.26 558.11 192.65 558.8 193.17 559.33 193.82 559.77 196.03 560.71 196.83 560.89 197.66 560.85 199.37 560.55 201.09 560.53 201.78 560.67 203.14 561.18 203.77 561.29 205.18 561.27 206.69 561.71 205.19 563.31 203.29 564.48 200.35 565.86 198.71 566.89 197.3 567.56 196.61 568.16 196.34 568.6 196.31 569 196.44 571.15 196.41 572.23 196.3 573.03 195.63 575.93 195.59 576.68 195.64 577.51 195.71 577.78 195.75 577.88 196.57 579.07 198.87 583.84 199.39 584.62 199.78 585.04 200.51 585.61 206 589.73 207.91 590.86 213.72 592.85 217.87 593.25 221.22 594.53 222.19 595.27 222.96 596.03 223.31 596.71 226.24 605.42 226.39 605.77 228.9 610.32 232.13 614.47 236.98 619.8 238.15 621.9 238.08 622.54 237.79 623.12 237.15 623.58 236.38 623.91 234.46 624.26 226.46 624.88 212.68 625.82 211.12 626.39 208.38 627.83 200.53 634.64 195.78 638.07 193.19 639.47 179.59 645.3 159.63 653.48 139.31 661.76 130.44 664.62 127.03 664.55 120.99 663.43 91.08 653.99 72.56 647.65 72.28 647.52 75.19 643.36 75.19 643.35 76.63 641.44 77.53 640.57 80.17 639.45 80.72 639.02 80.24 637.76 79.09 636.45 77.74 635.24 70.75 630.43 68.42 629.59 66.61 628.48 64.31 624.69 62.82 623.13 56.67 618 54.58 616.61 51.47 615.59 50.58 615.03 49.84 614.11 48.31 610.67 47.1 608.59 46.29 607.73 45.27 607.09 47.22 604.56 47.75 603.35 47.77 601.91 47.56 601.24 43.93 593.93 43.9 593.88 43.89 593.83 43.9 593.78 44.38 592.9 44.52 592.03 44.36 591.14 43.93 590.3 42.38 587.66 41.79 584.46 41.87 581.08 42.31 577.96 42.34 576.47 41.86 575.12 39.5 571.27 39.24 570.2 39.41 566.64 39.29 566.06 38.33 563.29 38.26 562.71 38.25 562.03 38.03 560.51 37.35 559.44 35.36 557.41 34.43 554.36 36.36 552.45 38.76 550.62 39.25 547.8 39.21 547.74 39.88 547.54 44.64 545.26 53.25 543.01 56.57 541.28 62.14 537.23 64.45 535.19 70.23 528.17 73.89 525.22 74.53 524.8 78.62 523.01 80.79 522.45 88.62 521.87 98.86 522.29 100.81 522.88 106.01 525.39 108.17 526.12 109.62 526.77 122.47 536.05 122.83 536.19 123.21 536.28 124.02 536.34 124.9 536.2 126.29 535.33 126.75 534.84 127.1 534.17 127.29 533.71 127.49 533.03 127.53 532.61 127.51 532.2 127.44 531.89 127.05 530.99 126.43 530.02 126.22 529.57 126.06 529.02 125.97 528.09 126.05 527.66 126.28 527.31 127.52 526.4 138.35 519.92 139.92 518.75 147.9 513.25 155.62 508.89 157.01 508.37 165.54 506.01 166.13 505.97 166.73 506.01 167.55 506.16 168.02 506.34 168.44 506.55 169.39 507.29 169.93 507.85 170.39 508.45 170.81 509.14 171.67 510.93 172.76 512.45 174.33 514.18 174.55 514.47 176.06 515.84 Z" id="BOL-1937" data-name="Oruro"/>
<path d="M 280.4 47.58 280.36 47.59 276.92 48.15 275.85 48.53 274.92 49.23 273.73 50.47 272.71 51.91 272.28 53.21 271.79 53.77 266.12 56.5 264.86 57.41 263.55 58.59 262.14 59.32 260.71 59.13 259.3 58.61 257.95 58.35 256.41 58.84 256.24 59.88 256.7 61.22 257.01 62.63 257.06 64.28 256.96 65.57 256.33 66.67 254.82 67.81 251.98 68.85 250.21 69.23 249.42 68.93 249.11 68.26 248.36 67.29 247.48 66.4 246.74 66.02 245.92 66.57 245.01 67.79 244.57 69 245.18 69.55 246.42 69.91 247.47 70.79 248.22 71.96 248.53 73.17 247.67 75.03 245.38 74.9 242.54 74 240.04 73.57 238.54 74.16 235.85 76.28 233.75 76.93 233.76 77.35 234.14 77.8 234.6 78.08 235.29 78.05 236.65 77.5 237.32 77.63 237.84 78.68 237.31 80.05 236.47 81.51 235.7 84.15 234.9 85.38 233.87 85.94 232.86 85.26 232.27 86.16 231.56 88.12 231.51 90.47 231.18 92.62 229.61 93.94 228.53 93.84 227.39 93.52 226.56 93.74 226.38 95.27 226.92 97.65 226.97 98.77 226.49 99.98 224.1 102.89 223.53 103.96 223.3 105.48 223.77 106.29 224.46 106.89 224.9 107.82 224.15 109.04 220.6 109.88 220.42 111.25 220.08 112.59 218.05 113.08 213.55 113.56 209.98 115.71 208.3 116.28 203.87 115.77 197.9 116.14 196.4 116.74 195.74 118.01 195.64 119.63 195.83 121.27 195.62 122.51 194.04 124.29 193.66 125.51 194.12 128.72 194.03 130.22 193.13 131.48 192.05 131.92 189.81 131.91 188.7 132.2 187.78 133.05 187.02 134.13 186.16 134.95 184.91 135.04 183.76 134.84 182.49 134.9 181.6 135.45 181.61 136.7 182.33 137.73 183.14 138.48 183.46 139.38 182.7 140.86 181.86 141.72 180.79 142.41 179.61 142.76 178.4 142.63 177.33 142.88 177.07 144.2 177.36 145.8 177.93 146.9 178.36 147.05 178.79 146.9 179.15 146.69 179.38 146.64 179.78 146.98 180.74 148.09 182.14 150.53 183.06 153.72 183.42 157 183.12 159.7 182.12 162.71 182.03 164.12 182.49 165.78 182.64 167.35 182.01 168.79 181.16 170.2 180.68 171.64 180.88 172.91 181.36 174.01 181.6 175.1 181.09 176.35 180.12 177.75 112.91 146.82 111.73 146.53 111.76 146.87 111.22 148.58 110.28 150.02 109.16 150.79 107.59 151.38 105.95 151.68 104.61 151.6 102.85 152.46 97.93 153.12 95.93 154.06 94.89 155.87 94.41 160.62 93.9 162.8 92.22 164.61 84.48 168.61 83.05 170.6 80.01 178.07 78.81 180.01 77.99 180.53 76.64 180.71 75.57 180.32 74.61 179.58 73.49 179.06 71.93 179.37 71.18 180.28 69.9 183.83 69.6 184.01 68.81 184.85 68.4 185.13 67.77 185.23 65.64 185.13 64.9 185.02 63.28 182.2 56.46 170.36 49.64 158.52 42.81 146.67 35.99 134.83 29.16 122.99 22.33 111.14 15.52 99.29 8.69 87.46 8.46 87.06 8.22 86.65 7.98 86.24 7.75 85.84 7.52 85.43 7.28 85.03 7.05 84.63 6.81 84.23 11.7 84.42 14.28 84.16 18.7 83.1 20.85 83.43 23.04 84.04 25.39 84.4 29.1 84.27 34.22 84.87 36.65 85.42 38.91 85.2 39.93 85.38 44.79 87.46 45.08 87.51 45.68 87.51 45.97 87.46 47.51 87.38 50.6 88.22 52.18 88.42 53.82 88.03 55.6 87.37 57.37 87 59.34 87.57 60.44 88.13 59.37 89.64 58.61 91.22 58.25 92.91 58.52 95.59 58.72 96.2 59.25 96.54 60.4 96.58 69.73 94.7 71.54 93.8 74.93 91.37 77.73 90.45 78.83 90.28 79.93 90.28 81.06 90.47 81.99 90.2 84.07 88.29 85.26 87.67 88.34 87.38 89.47 86.92 90.81 85.97 92.05 84.73 93.16 83.34 94.05 81.92 95.77 78.06 96.68 76.81 100.36 72.93 102.67 68.65 103.6 67.58 105.12 66.53 107.13 65.56 108.22 65.23 109.33 65.09 111.19 65.39 118.98 65.03 119.95 65.17 120.9 65.43 122.14 66.15 124.72 68.15 125.97 68.65 128.2 68.08 129.28 66.2 129.88 63.83 130.62 61.87 131.33 61.14 133.32 59.52 134.14 58.54 135.43 56.53 136.16 55.65 137.17 54.76 138.44 54.38 140.78 53.24 143.47 52.34 144.79 51.52 145.94 50.45 146.85 49.24 147.13 48.5 147.16 47.97 147.32 47.47 148.04 46.89 148.64 46.72 151.53 46.67 152.28 46.55 152.98 46.3 153.47 45.9 153.58 45.27 153.2 43.84 153.31 43.27 154.24 42.8 155.74 42.55 158.45 42.46 159.64 42.63 162.21 43.32 163.32 43.31 164.13 42.84 164.62 42.12 165 41.38 165.48 40.84 166.13 40.62 167.51 40.55 168.21 40.42 171.2 38.75 181.77 28.03 190.41 21.46 191.65 20.81 196.99 18.77 197.64 18.37 197.98 17.83 198.13 17.11 198.37 16.44 198.37 16.44 198.78 15.92 199.48 15.68 207.2 14.35 211.19 14.66 212.51 14.49 213.78 14.04 216.5 12.52 217.57 12.11 223.98 11.14 225.18 10.7 227.21 9.39 228.34 8.92 231.95 8.54 232.19 8.67 232.44 8.94 232.73 9.19 233.08 9.25 233.41 9.02 233.87 8.23 234.14 8.04 235.12 7.85 235.46 7.92 236.27 8.21 238.01 9.18 238.88 9.4 240.13 9.13 243.05 7.34 244.28 6.99 245.43 6.91 246.35 7.01 249.02 7.64 249.8 7.67 250.59 7.25 251.66 6.13 251.82 6.59 252.1 7.16 252.44 7.67 252.81 7.94 253.47 7.84 253.65 7.26 253.64 6.56 253.72 6.07 254.25 4.79 254.64 4.48 255.05 5.35 255.2 5.98 255.37 6.47 255.69 6.82 256.3 7.05 258.76 6.04 259.78 5.98 259.53 7.47 259.3 8.29 259.57 8.48 260.1 8.42 260.62 8.49 260.8 8.45 261.5 8.2 261.81 8.17 262.22 8.38 262.8 9.05 263.14 9.34 265.08 10.62 266.03 11.08 267.22 11.34 268.02 11.3 268.32 11 268.47 10.57 268.81 10.09 268.89 9.9 268.94 9.25 269.06 9 269.4 8.81 270.19 8.67 270.45 8.54 271.2 7.71 271.85 6.76 272.11 6.15 272.39 5.14 272.81 4.55 275.79 2.09 276.66 1.1 277.27 1 278.99 1.02 280.18 1.45 281.98 3.01 282.93 5.04 283.08 5.27 283.97 8.19 284.61 8.91 285.51 9.68 286.31 10.54 286.65 11.56 286.36 13.08 284.94 15.74 284.41 17.16 284.18 19.8 284.44 22.49 285.01 24.98 286.23 28.38 286.5 29.77 286.65 32.6 286.8 33.28 287.45 34.79 287.58 35.47 287.37 36.08 286.24 37.78 285.57 40.99 284.77 42.51 282.34 43.67 281.41 44.93 280.69 46.41 280.4 47.58 Z" id="BOL-1938" data-name="Pando"/>
<path d="M 283.72 572.83 281.57 573.3 280.58 573.19 279.07 572.53 274.11 570.96 273.6 570.66 273.47 570.6 273.3 570.56 272.98 570.6 272.56 570.73 270.73 571.59 270.34 571.7 269.96 571.69 269.59 571.55 269.3 571.3 269.1 570.96 268.95 570.59 268.79 570.29 268.58 570.05 268.31 569.85 267.92 569.71 267.45 569.62 265.53 569.69 265.1 569.63 264.74 569.45 264.42 569.23 264.03 569.09 263.24 569.01 262.98 568.85 262.82 568.61 262.66 568.11 262.5 567.88 262.21 567.76 261.86 567.82 261.5 567.95 261.16 568.15 260.92 568.4 260.8 569.01 261.18 571.34 261.18 571.94 261.28 572.3 261.5 572.73 262.1 573.42 262.56 573.8 263 574.07 264.43 574.7 265.1 575.16 265.31 575.64 265.38 576.34 264.96 579.47 265.1 582.19 266.46 589.27 266.41 589.57 266.12 590.18 265.61 590.77 264.09 592 263.8 592.29 263.57 592.61 263.39 592.97 263.3 593.36 263.37 593.82 263.56 594.15 264.03 594.43 264.37 594.48 264.69 594.44 265.03 594.34 272.13 590.96 273.44 590.51 276.29 589.86 276.68 589.85 277 589.91 277.39 590.02 277.76 590.19 278.09 590.42 278.34 590.73 278.49 591.13 278.62 591.76 278.53 592.44 278.28 593.21 277.62 594.32 277.16 594.88 276.74 595.24 275.72 595.85 273.35 597.82 273.24 597.97 273.1 598.35 273.03 598.93 273.18 599.63 273.36 600 273.49 600.19 274.03 600.63 274.54 601.13 274.74 601.43 274.9 601.74 275.04 602.12 275.13 602.52 275.23 603.38 275.37 604.09 275.47 604.38 275.41 604.7 275.23 605.07 274.4 605.78 273.94 606.26 272.3 608.84 271.2 610.61 271.05 610.94 270.92 611.17 270.84 611.44 270.83 611.59 270.86 611.81 272.07 615 273.11 616.71 275.2 618.04 275.63 618.42 276.02 618.97 276.3 619.78 276.57 621.52 276.96 622.29 277.88 623.16 279.63 624.36 281.08 626.46 281.83 627.22 285.05 629.32 285.98 630.2 287.06 630.88 289.99 631.41 291.06 632 292.1 632.74 296.08 634.88 297.68 635.39 298.97 635 299.44 634.7 299.72 634.81 299.91 635.08 300.08 635.22 301.54 635.23 306.62 633.66 308.59 633.51 310.34 633.95 311.45 634.83 312.48 636.14 313.22 637.61 313.51 638.98 313.7 638.96 314.13 639.36 314.57 639.9 314.8 640.29 314.86 640.88 314.75 641.43 314.42 642.52 314.22 643.9 314.3 645.15 314.66 646.37 315.32 647.65 320.86 654.56 322.27 657.15 322.77 658.5 322.16 659.36 319.97 662.28 314.86 667.39 302.52 673.94 301.42 674.22 294.71 674.77 293.28 675.15 291.29 675.43 290.02 675.89 289.78 676 288.47 676.96 287.37 678.01 287.09 678.2 286.78 678.35 286.06 678.53 285.73 678.76 285.5 679.16 285.49 680.56 285.54 680.9 285.88 682.04 285.6 683.11 283.87 685.42 283.44 685.94 283.08 686.49 282.77 687.12 282.09 689.28 282.03 689.9 282.08 692.23 282.27 693.59 286.86 710.91 281.86 722.11 281.56 723.09 280.78 726.84 280.28 727.99 278.57 730.73 278.14 738.95 275.34 748.03 275.22 749.39 275.25 750.25 275.39 750.99 275.59 751.66 275.65 752.03 274.96 758.87 275.02 760.5 275.11 760.86 276.23 763.32 285.46 772.66 290.85 776.42 290.88 778.52 290.81 779.13 290.62 779.95 289.52 782.76 288.64 784.2 287.77 785.14 287.51 785.34 287.28 785.77 287.12 786.38 286.92 788.27 286.75 788.86 286.34 789.32 285.74 789.91 285.3 790.92 284.73 793.92 285.38 794.25 285.63 794.41 285.96 794.68 286.25 794.99 286.58 795.49 286.96 795.98 287.67 796.57 288.13 797.04 289.19 798.55 290.85 801.56 291.62 802.65 292.15 803.06 292.38 803.3 293.06 805.3 294.8 813.04 294.9 813.22 293.76 813.23 293.76 813.25 276.3 813.44 272.83 813.08 268.29 812.46 267.72 812.51 267.4 812.76 267.11 813.06 266.62 813.29 257.51 814.27 255.5 813.68 253.59 812.42 245.21 803.18 243.78 802.43 237.76 801.44 237.42 801.09 236.65 797.91 234.63 795.88 231.79 794.54 226.26 792.87 225.11 793.23 222 803.99 221.37 810.09 221.09 811.05 220.69 811.85 220.54 811.92 220.27 811.76 219.44 811.87 218.88 812.19 218.37 812.72 217.97 813.36 217.71 813.97 216.12 815.12 207.43 817.46 199.82 819.4 199.57 819.71 199.39 820.21 199.19 820.63 198.86 820.71 197.78 820.37 196.5 820.22 195.78 820 195.07 819.94 194.18 820.31 192.68 821.53 191.83 822.82 191.36 824.35 190.58 829.21 190.11 830.69 189.27 831.67 189.1 832.21 189.5 834.1 189.46 834.77 188.72 835.25 181.38 837.38 179.63 838.24 178.31 839.55 177.68 840.45 176.83 840.98 175.82 841.2 174.38 841.07 173.26 841.12 173.81 847.2 173.66 848.63 172.94 849.62 168 853.25 166.07 855.39 162.72 860.58 142.03 864.74 139.62 865.18 135.06 865.49 124.95 864.93 122.84 864.27 122.34 863.82 120.92 861.75 120.6 861.8 118.09 861.33 117.38 860.35 117.1 858.66 117.11 853.61 119.24 843.88 119.21 842.6 117.21 838.93 116.66 835.68 116.08 834.28 113.58 829.98 113.14 828.66 113.12 827.35 114.26 823.27 114.19 822 113.6 820.43 111.76 817.96 111.53 817.26 111.74 816.64 112.57 815.55 112.8 814.95 112.57 813.54 111.79 811.96 110.64 810.57 109.33 809.74 106.15 806.86 104.59 805.52 103.98 804.74 103.7 803.79 102.96 793.05 101.6 787.99 97.53 781.06 97.02 778.8 97.33 762.88 96.42 760 82.77 738.77 81.74 737.8 80.31 737.46 77.56 737.58 76.63 737.49 75.23 736.67 73.69 735.77 72.59 733.05 72.53 724.58 73.04 723.06 74.01 721.72 78.5 718.05 78.54 716.86 76.63 715.36 74.92 714.7 71.84 712.82 65.16 709.8 63.72 708.76 62.27 707.34 60.9 705.55 59.94 703.55 59.7 701.54 60.44 699.82 61.91 698.73 65.62 697.49 63.03 693.13 62.29 690.95 62.36 688.4 62.69 686.52 62.5 685.87 60.35 685.42 58.36 684.23 58.16 682.97 59.27 681.86 67.3 679.54 69.31 679.35 70.25 679.5 70.94 679.7 71.52 679.63 72.11 678.97 72.42 678.3 72.97 676.05 73.05 674.78 74.38 671.73 74.58 670.79 74.49 670.38 74.22 669.99 73.92 669.09 73.86 667.16 73.8 666.7 73.3 665.81 72.66 665.37 70.65 664.58 69.52 663.79 67.46 661.71 64.32 659.4 63.86 658.59 64 657.39 64.85 656.07 67.58 653.78 68.73 652.58 72.28 647.52 72.56 647.65 91.08 653.99 120.99 663.43 127.03 664.55 130.44 664.62 139.31 661.76 159.63 653.48 179.59 645.3 193.19 639.47 195.78 638.07 200.53 634.64 208.38 627.83 211.12 626.39 212.68 625.82 226.46 624.88 234.46 624.26 236.38 623.91 237.15 623.58 237.79 623.12 238.08 622.54 238.15 621.9 236.98 619.8 232.13 614.47 228.9 610.32 226.39 605.77 226.24 605.42 223.31 596.71 222.96 596.03 222.19 595.27 221.22 594.53 217.87 593.25 213.72 592.85 207.91 590.86 206 589.73 200.51 585.61 199.78 585.04 199.39 584.62 198.87 583.84 196.57 579.07 195.75 577.88 195.71 577.78 195.64 577.51 195.59 576.68 195.63 575.93 196.3 573.03 196.41 572.23 196.44 571.15 196.31 569 196.34 568.6 196.61 568.16 197.3 567.56 198.71 566.89 200.35 565.86 203.29 564.48 205.19 563.31 206.69 561.71 205.18 561.27 203.77 561.29 203.14 561.18 201.78 560.67 201.09 560.53 199.37 560.55 197.66 560.85 196.83 560.89 196.03 560.71 193.82 559.77 193.17 559.33 192.65 558.8 192.26 558.11 191.98 557.3 191.86 555.82 192.27 549.76 192.75 548.71 197.23 547.33 198.02 546.97 198.75 546.47 199.4 545.89 199.94 544.61 204.38 543.81 205.86 543.68 206.48 543.76 207.01 543.89 209.55 544.17 213.47 544.02 216.8 544.55 217.55 544.55 218.15 544.44 218.86 544.06 222.63 541.11 224.06 540.04 229.35 536.47 230.19 536.2 231.94 535.81 234.57 535.67 236.81 535.86 237.58 535.99 238.24 536.17 239.6 536.17 239.94 537.44 240.77 539.09 241.74 540.51 242.5 541.12 243.23 541.28 243.86 541.73 244.3 542.35 244.72 543.96 245.31 544.13 249.65 543.09 251.06 543.11 252.22 544.8 256.16 546.89 260.22 550.26 260.72 551.39 261.89 552.29 264.2 553.63 265.76 555.45 266.54 556.61 267.27 558.51 268.23 559.47 269.42 560.25 270.49 560.81 272.83 562.63 275.66 567.33 277.68 569.34 278.05 569.48 279.03 569.65 279.46 569.78 279.77 570.01 280.36 570.67 282.62 571.85 283.26 572.02 283.51 572.25 283.72 572.83 Z" id="BOL-1939" data-name="Potosí"/>
<path d="M 585.78 261.51 590.55 265.17 592.81 266.35 594.32 266.66 594.74 266.85 594.99 267.15 595.33 267.94 595.62 268.23 596.22 268.52 601.15 269.68 602.33 270.34 602.81 271.57 602.95 273.32 603.33 275.12 603.89 276.81 604.56 278.22 605.09 278.77 606.51 279.93 606.64 280.32 606.32 280.98 606.72 281.39 607.36 281.66 607.75 281.92 607.92 282.47 607.87 282.87 607.31 284.11 606.46 287.18 605.81 288.59 604.64 289.58 603.06 290.01 602.61 290.34 602.27 291.23 602 292.72 601.92 294.2 602.13 295.08 603 296.54 603.02 298.21 602.79 299.98 602.87 301.77 603.53 302.97 607.08 305.85 607.64 306.92 608.6 311.03 610.75 315.67 611.11 318.4 609.09 319.07 610.17 321.2 613.35 323.34 614.16 324.77 614.35 328.74 614.61 334.1 614.87 339.46 615.13 344.82 615.39 350.18 615.59 354.42 615.26 355.19 607.78 355.28 595.16 355.44 598.61 358.37 603.14 363.63 610.21 371.83 616.21 378.8 617.13 380.25 617.68 381.85 618.54 391.57 619.7 404.76 620.57 414.47 621.01 421.49 621.48 428.89 622.73 431.69 624.75 432.23 629.29 432.39 641.74 432.83 654.2 433.26 666.66 433.69 679.11 434.13 691.57 434.57 704.02 435.01 716.47 435.44 728.93 435.88 733.66 436.04 735.13 435.86 736.47 435.2 736.96 434.58 737.87 432.96 738.35 432.65 741.18 432.71 741.84 433.29 742.17 439.66 741.89 440.57 740.36 441.8 740.27 442.93 741.64 445.32 740.76 447.7 734.23 454.87 733.14 456.86 732.64 459.09 732.88 461.92 734.21 466.86 734.43 469.4 734.28 469.86 733.7 471.02 733.53 471.64 733.55 472.41 734.2 475.66 735.33 477.64 735.77 478.82 736.14 483.39 736.47 484.4 737.17 485.55 737.48 486.98 737.57 492.84 737.95 495.31 739.12 497.26 741.57 498.55 743.63 498.8 744.29 498.99 744.93 499.38 746.1 500.32 746.75 500.71 747.3 500.87 748.36 501.05 748.91 501.35 749.65 502.3 750.7 504.46 751.73 505.19 752.63 505.42 753.38 505.51 754.09 505.71 754.94 506.24 756.72 508.13 757.44 508.64 759.75 509.6 760.54 510.02 763.39 512.27 765.26 513.05 767.74 513.65 770.22 513.81 772.1 513.28 773.59 513.04 774.73 513.2 776.19 513.77 777.08 514.67 777.74 516.13 777.9 517.75 777.81 519.29 777.95 520.36 777.92 522.88 778.05 524.09 778.58 525.27 779.25 526.13 780.08 526.91 781.03 527.54 782.07 527.96 781.52 530.04 781.76 530.75 782.93 532.16 783.88 533.75 783.75 534.92 781.71 535.12 787.8 545.26 791.16 553.21 793.41 557.2 796.02 558.63 797.36 558.63 798.42 558.79 799 559.43 798.93 560.85 794.42 560.91 793.23 561.18 792.39 561.93 791.32 565.18 788.25 574.51 785.18 583.84 782.1 593.17 779.02 602.5 778.29 604.73 780.91 604.94 781.59 605.49 781.87 606.79 782.25 610.67 782.64 613.51 778.97 613.78 777.85 614.47 776.34 617.46 774.31 621.5 769.83 630.4 765.36 639.29 763.32 643.34 763.32 643.34 763.32 643.35 763.31 643.35 762.51 644.97 760.75 648.53 758.99 652.1 758.18 653.72 755.9 658.33 756.4 660.17 761.36 664.45 766.64 669 773.22 674.7 772.57 675.53 771.83 676.59 770.88 677.57 769.42 678.23 767.77 677.83 766.72 677.71 766.25 678.03 766.08 678.6 765.63 679.1 764.99 679.47 764.24 679.61 762.59 680.24 760.55 683.04 758.85 683.67 758.41 683.9 757.62 685.03 757.28 685.42 756.44 685.84 753.67 686.8 753.62 685.09 754.58 681.63 754.69 680.27 754.6 677.51 754.77 676.05 754.56 674.01 753.44 670.26 753.31 668.17 753.51 666 753.3 665.07 752.59 664.31 750.03 662.8 743.92 659.23 737.82 655.65 731.72 652.07 725.63 648.49 719.52 644.91 713.42 641.34 707.32 637.75 701.22 634.17 697.92 632.24 696.05 630.97 694.09 629.65 692.79 629.34 687.48 629.41 675.16 629.57 662.84 629.72 650.52 629.87 638.19 630.02 632.82 630.09 622.97 632.11 600.83 636.65 578.7 641.19 556.56 645.74 534.42 650.29 533.02 650.49 529.93 650.93 526.84 651.38 525.44 651.58 519.62 652.42 518.57 652.83 518.05 653.61 516.81 656.83 514.98 661.63 513.14 666.43 511.3 671.25 509.46 676.05 509.46 676.05 508.61 677.74 507.77 679.43 507.35 680.25 506.92 681.12 506.08 682.81 504.98 684.37 503.9 685.92 502.81 687.48 501.72 689.05 498.8 693.03 495.88 697 492.95 700.98 490.02 704.96 488.66 706.82 488.61 706.82 418.33 707.07 417.72 706.91 417.2 706.66 416.64 705.83 414.64 701.3 413.77 699.99 412.92 699.37 412.36 699.63 411.91 700.1 411.13 701.22 410.72 701.7 409.87 702.37 409.5 702.56 408.97 702.75 407.69 702.94 407 703.12 406.47 703.49 406.02 703.97 404.88 705.53 404.49 705.92 404.16 706.1 403.62 706.26 402.93 706.25 399.95 705.61 395.87 705.59 394.39 705.44 393.54 702.64 390.79 676.25 390.66 676 390.66 676 389.82 674.24 389.59 673.57 386.82 628.33 386.98 624.38 388.54 613.49 387.94 612.44 383.83 612.89 382.46 612.84 380.72 612.3 379.95 612.31 379.13 612.89 378.38 614.25 377.77 619.02 377.46 619.91 377.01 620.65 376.39 621.24 375.56 621.66 374.56 621.9 373.36 622 372.16 621.92 371.17 621.62 370.55 621.09 370.25 620.39 370.1 619.61 367.39 610.58 366.99 610.08 366.55 609.92 366.1 609.87 365.62 609.71 364.86 609.03 364.34 608.28 363.75 607.66 362.74 607.37 360.83 607.26 359.87 607.04 359.06 606.61 358.6 605.93 358.41 605.06 358.31 604.13 358.13 603.28 357.19 601.8 355.92 600.98 354.53 600.29 353.19 599.23 352.71 598.44 352.24 596.69 351.89 595.81 350.96 594.13 350.73 593.28 350.75 592.22 350.9 591.25 350.93 590.4 350.7 589.6 350.06 588.8 349.37 588.15 350.51 586.18 352.19 584.33 352.44 583.84 352.46 583.44 352.02 582.42 351.93 581.93 351.89 581.26 352.05 578.66 351.96 578.18 351.88 577.9 351.86 577.86 351.65 577.62 351.41 577.39 351.11 577.19 349.64 576.47 349.01 576.03 347.91 574.96 346.98 574.26 346.27 573.88 345.09 573.51 344.82 573.41 344.49 573.15 344.15 572.72 343.67 571.94 343.52 571.36 343.49 570.86 343.57 569.87 343.37 569.47 342.61 568.81 342.47 568.49 342.52 568.14 342.66 567.7 342.77 567.23 342.76 566.51 342.56 566.11 342.23 565.81 341.36 565.23 340.38 563.51 339.68 560.9 338.65 559.19 337.3 557.5 336.4 555.92 335.86 555.18 335.43 554.7 334.56 554.16 334.01 553.69 333.08 552.7 331.84 549.5 329.68 545.53 328.8 544.25 325.84 541.28 325.44 540.62 325.14 539.35 325.56 537.55 326.5 536.48 327.94 535.33 333.35 530.15 334.71 528.55 345.09 513.81 345.33 513.2 345.47 512.54 345.38 511.04 345.42 510.4 345.69 509.62 346.21 509.15 348.67 507.58 349.41 507.29 350.03 507.26 351.31 507.41 351.94 507.36 353.35 507.02 353.92 507 354.67 507.22 355.88 507.07 356.93 506.99 357.42 505.76 357.74 504.55 357.48 503.31 356.94 502.3 356.34 500.62 356.03 500.12 355.64 499.67 352.64 497.34 347.05 491.2 344.88 489.56 344.28 489.25 342.54 488.72 338.69 486.53 337.7 485.8 333.58 481.57 332.93 481.1 332.26 480.8 330.83 480.33 329.27 479.52 323.11 473.13 322.16 471.56 320.75 466.34 320.61 465.09 320.46 464.49 320.08 463.87 319.09 462.74 318.79 462.1 318.83 461.29 319.62 460.07 319.96 458.6 322.31 454.82 322.5 454.35 322.29 453.72 321.8 453.47 321.21 453.26 320.71 452.78 320.45 451.8 320.61 450.75 321.04 449.71 321.6 448.76 322.23 448.1 323.73 447.1 324.32 446.49 324.67 444.67 324.73 444.5 324.85 444.36 326.87 439.77 327 438.86 326.84 438.22 326.21 437.41 326.07 436.87 326.24 436.27 327.41 434.39 325.85 434.3 325.96 433.54 327.41 431.72 327.54 430.43 327.38 429.28 327.35 428.12 327.89 426.8 327.32 425.43 327.55 424.22 328.06 423.12 328.34 422.09 328.05 421.09 326.8 419.43 326.51 418.08 326.51 415.8 326.62 415.38 326.85 415.05 327.03 414.59 327 413.77 326.58 412.41 325.85 411.19 324.9 410.15 323.83 409.3 324.7 408.66 325.58 408.59 326.48 408.88 327.41 409.3 327.46 408.24 327.07 407.49 325.58 406.18 327.41 406.17 328.16 406.03 328.61 404.59 414.73 408.99 416.06 408.92 416.27 408.75 415.63 408.42 414.94 408.14 412.61 407.59 411.86 407.27 411.22 406.83 409.51 404.99 408.91 404.14 408.53 402.85 408.39 401.87 408.32 400.26 408.19 399.61 407.84 398.99 406.46 397.28 405.65 395.68 404.98 394.81 404.41 394.23 403.94 393.98 401.82 393.04 401.1 392.61 399.15 391 398.46 390.68 397.7 390.64 396.97 390.47 396.22 390 393.19 386.92 392.73 386.06 392.4 382.88 392.02 381.99 391.2 380.98 390.34 380.45 388.72 379.85 388.05 379.43 387.45 378.8 380.57 368.46 378.15 361.93 376.06 358.73 375.62 357.7 374.9 354.57 375.23 352.99 375.61 352.05 375.89 350.79 375.93 348.98 375.57 345.59 375.53 338 374.04 331.79 377.13 330.4 399.72 324.02 436.18 303.54 494.02 271.07 529.01 251.33 529.05 251.3 529.37 251.36 531.15 253 531.81 253.35 534.91 254.01 537.83 253.72 540.66 252.7 545.09 250.45 546.1 250.52 547.09 250.92 549.44 251.33 550.83 252.17 551.58 252.46 552.28 252.46 553.77 252 558.08 252.16 558.72 251.78 559.1 250.47 560.07 249.85 562.86 249.44 563.11 249.18 563.9 248.71 564.75 248.54 565.14 249.2 565.14 251.85 566.4 253.17 569.28 253.67 572.46 253.88 574.59 254.32 575.8 255.46 576.29 255.8 580.79 257.67 585.78 261.51 Z" id="BOL-1940" data-name="Santa Cruz"/>
<path d="M 484.65 741.43 484.65 741.46 484.4 745.75 482.29 752.47 480.17 759.25 477.87 766.55 475.48 774.16 473.25 781.09 470.2 790.57 467.82 797.98 464.96 806.86 463.23 812.68 461.39 818.88 459.89 822.14 459.33 821.96 459.14 821.49 459.05 820.9 458.77 820.32 458 819.54 455.21 817.68 452.11 816.27 451.19 815.37 450.7 814.21 450.69 812.14 450.25 811.35 450.43 810.8 450.43 810.16 450.02 807.69 449.82 807.07 448.89 806.86 446.05 806.36 436.38 806.85 436.34 806.86 415.77 806.75 395.2 806.64 392.69 807.05 391.64 807.59 388.6 810.11 387.85 809.8 385.16 807.56 383.84 807.01 377.74 806.62 375.99 806.92 375.05 807.3 374.83 807.51 374.79 807.9 374.17 809.36 373.93 810.64 373.71 811.16 373.2 811.64 372.7 811.87 372.25 811.99 371.9 812.23 371.33 813.3 370.33 816.97 368.28 821.8 367.77 822.53 366.46 823.2 365.98 823.68 361.12 835.48 359.54 837.63 356.16 840.6 355.21 842.17 352.39 851.99 352.35 856.7 351.77 857.97 350.24 863 350.34 863.84 349.13 863.29 348.88 860.24 348.07 859.33 348.58 857.76 348.35 855.99 347.49 854.53 346.06 853.93 345.34 853.4 343.61 849.91 342.96 849.44 342.37 849.23 341.94 848.86 341.78 847.88 341.85 847.14 342.16 845.86 342.22 845.21 342.48 844.5 343.02 843.91 343.51 843.24 343.61 842.28 339.98 838.93 339.04 837.73 338.65 836.23 338.41 835.84 337.23 835.13 336.87 834.65 336.88 833.98 337.39 832.72 337.31 832.01 336.44 831.29 335.07 830.39 334.21 829.25 334.86 827.72 335.7 826.78 336.15 825.87 336.12 824.82 335.53 823.49 334.98 822.71 333.23 820.72 332.62 820.32 331.31 820.03 329.84 819.34 328.6 818.48 327.21 818.28 326.66 818.11 326.15 818.2 324.94 818.69 324.34 818.79 321.76 818.21 317.17 815.8 304.88 813.12 293.76 813.25 293.76 813.23 294.9 813.22 294.8 813.04 293.06 805.3 292.38 803.3 292.15 803.06 291.62 802.65 290.85 801.56 289.19 798.55 288.13 797.04 287.67 796.57 286.96 795.98 286.58 795.49 286.25 794.99 285.96 794.68 285.63 794.41 285.38 794.25 284.73 793.92 285.3 790.92 285.74 789.91 286.34 789.32 286.75 788.86 286.92 788.27 287.12 786.38 287.28 785.77 287.51 785.34 287.77 785.14 288.64 784.2 289.52 782.76 290.62 779.95 290.81 779.13 290.88 778.52 290.85 776.42 291.12 772.66 292.93 759.54 292.8 758.2 292.8 755.57 292.89 754.91 293.99 751.27 294.81 739.32 294.97 738.92 295.2 738.52 295.59 738.03 295.97 737.85 296.34 737.86 296.64 738.02 297.2 738.41 297.53 738.56 298.65 738.9 299.03 738.95 299.43 738.89 300.31 738.57 300.71 738.46 301.08 738.47 301.39 738.59 301.9 739.02 303.93 741.38 303.96 741.4 304 741.42 304.16 741.46 304.47 741.46 304.9 741.36 305.36 741.38 305.42 741.41 305.8 741.87 306.01 742.06 306.28 742.1 306.63 742.05 307.2 741.83 307.62 741.74 307.98 741.8 308.27 741.97 308.77 742.41 309.05 742.59 309.38 742.7 309.77 742.72 310.57 742.66 310.98 742.7 311.32 742.82 311.59 743.03 311.77 743.3 311.89 743.63 311.98 743.98 312.11 744.3 312.39 744.49 313.13 744.72 313.47 744.87 313.75 745.06 313.98 745.29 314.17 745.53 314.33 745.79 314.51 746.04 314.75 746.26 315.05 746.44 316.04 746.89 316.31 747.09 316.55 747.32 316.76 747.57 317.04 747.73 317.36 747.78 318.15 747.44 319.38 747.1 320.45 746.62 320.92 746.22 321.18 745.8 321.35 745.03 321.47 744.67 321.95 743.75 322.05 743.4 322.06 743.03 322.03 742.25 322.14 741.41 322.14 741.4 322.56 740.47 323.5 739.08 324.05 738.09 324.69 737.21 325.18 736.88 325.66 736.75 326.03 736.82 326.35 736.93 327.24 737.38 327.6 737.5 327.97 737.58 328.78 737.58 329.15 737.61 329.48 737.73 329.71 737.95 329.88 738.24 330.24 739.21 330.43 739.49 330.66 739.72 331.9 740.38 332.17 740.58 332.62 741.03 332.89 741.39 334.17 742.75 334.34 743.03 335.91 746.4 336.1 746.68 336.31 746.91 336.59 747.12 336.89 747.29 337.37 747.36 337.96 747.33 339.98 746.83 341.19 746.69 341.64 746.7 342.47 746.84 342.81 746.99 343.38 747.36 345.73 749.23 348.14 750.21 349.34 750.44 353.27 750.03 354.12 750.13 355.86 750.65 356.42 750.69 356.86 750.61 357.19 750.43 357.51 750.2 357.86 749.87 358.12 749.58 358.33 749.28 358.49 748.97 358.61 748.61 358.68 748.22 358.75 746.92 358.71 746.54 358.38 745.58 358.43 745.25 358.72 744.68 358.8 744.39 358.85 744.05 358.96 743.65 359.43 743.08 359.67 742.66 359.8 742.27 359.81 741.94 359.42 738.02 359.47 736.41 359.56 735.79 359.66 735.46 360.16 734.3 360.58 734.5 361.38 735.35 362.29 735.93 363.07 735.82 364.06 735.5 365.48 735.52 366.76 735.8 367.31 736.25 367.53 737.44 368.12 737.82 369.99 737.85 370.37 737.73 371.13 737.6 371.59 737.75 371.11 738.52 370.97 739.15 371.43 739.84 372.71 740.98 372.73 741.18 374.09 741.19 380.17 741.36 484.61 741.43 484.65 741.43 Z" id="BOL-1941" data-name="Tarija"/>
</g>
</svg>