<?xml version="1.0"?>
<svg xmlns="http://www.w3.org/2000/svg" version="1.2" baseProfile="tiny" width="800" height="697" viewBox="0 0 800 697" stroke-linecap="round" stroke-linejoin="round">
<g id="ne_10m_admin_1_states_provinces">
<path d="M 348.98 540.03 416.77 547.92 378.25 625.85 384.8 631.74 399.22 636.99 407.08 640.26 428.71 648.13 442.47 652.71 451.61 657.93 447.84 659.27 444.14 658.86 418.17 649.41 395.06 640.97 389.28 638.86 367.56 630.94 351.27 624.99 346.07 622.11 341.53 618.08 336.93 615.74 331.56 617.95 327.03 623.96 324.09 630.27 320.21 636.5 320.1 636.45 312.07 633.15 308.95 632.67 306.68 631.46 305.41 628.6 303.9 622.79 300.97 618.49 283.8 599.52 282.39 598.52 281.63 598.17 279.17 596.46 278.64 595.78 273.05 594.23 270.55 591.92 265.15 585.47 260.86 583.28 255.37 577.55 248.36 573.62 246.04 571.56 245.41 570.26 244.03 565.94 244.05 565.92 248.69 557.52 249.74 555.55 250.24 554.93 255.86 551.24 259.65 552.23 260.86 552.06 261.43 551.49 265.89 549.26 266.5 548.84 268.25 546.02 270.76 540.72 271.23 540.25 271.68 539.98 272.07 539.95 272.35 539.96 273.16 540.15 273.86 540.59 274.48 541.24 276.07 542.84 276.83 543.09 283.96 541.28 289.22 539.78 348.98 540.03 Z" id="NIC-24" data-name="Rivas"/>
<path d="M 496.26 510.75 499.52 521.83 501.93 526.19 503.26 527.28 504.28 528.33 504.66 529.35 504.48 531.28 504.69 535.48 506.42 539.55 508.03 544.6 507.95 545.89 507.67 547.68 506.08 551.36 503.81 559.1 503.36 562.21 503.31 564.3 504.49 570.52 505.09 576.74 515.78 580.62 520.43 583.41 533.26 591.28 535.75 593.72 536.69 595.92 536.81 597.91 537.14 599.98 538.35 602.42 539.79 603.91 541.29 604.97 548.85 608.8 555.2 613.31 559.77 617.81 561.17 619.6 564.45 624.93 565.26 625.86 565.93 626.29 566.41 626.26 566.97 626.39 567.58 626.68 568.6 627.28 569.07 627.44 569.97 627.67 571.18 628.12 571.65 628.2 572.01 628.22 573.66 628.01 574.69 628 575.13 628.04 576.16 628.27 578.79 629.32 580.8 629.98 585.9 629.33 586.94 629.43 587.46 629.72 587.33 630.62 587.31 631.08 587.38 631.51 587.6 631.84 589.36 633.65 590.94 634.94 591.8 635.35 592.45 635.44 593.83 634.71 594.84 634.49 595.21 634.36 595.92 633.99 596.24 633.75 597.05 633.29 597.64 633.07 598.83 632.87 599.82 633.03 601.36 633.6 602.1 633.7 602.7 633.68 603.07 633.49 603.48 633.34 603.85 633.17 604.2 632.94 605.47 632.44 607.01 632.24 607.79 632.04 610.03 631 610.51 631.08 610.78 631.38 610.81 631.88 610.56 634.87 610.58 635.38 610.79 636.25 610.97 636.64 611.44 637.29 611.98 637.85 612.23 638.16 612.39 638.56 612.47 639.03 612.49 640.1 612.61 640.72 612.87 641.34 613.56 642.18 614.12 642.48 614.58 642.49 614.97 642.33 615.3 642.12 615.69 641.93 616.83 641.89 618.65 642.03 624.99 643.25 626.18 643.64 626.55 643.89 627.11 644.41 630.04 648.18 632.37 651.98 636.54 656.41 639.32 658.53 640.59 661.96 643.42 661.43 642.81 659.72 645.15 659.38 648.56 660.07 651.2 661.43 650.06 661.32 649.04 661.35 648.09 661.15 646.92 661.96 647.11 662.78 647.04 663.56 647.19 670.47 648.66 676.19 648.2 680.56 642.55 683.44 631.98 685.93 631.16 686.12 620.48 690.12 617.18 693.92 616.59 694.28 612.19 693.41 611.11 693.77 608.87 695.31 607.3 695.61 605.8 695.38 604.71 694.88 595.01 687.32 594.28 684.58 592.5 683.39 590.33 683.75 588.43 685.63 585.68 684.98 581.69 687.51 579.74 685.63 578.63 685.63 576.78 687.01 574.93 686.32 571.94 683.44 570.01 683.76 568.61 683.55 567.47 683.39 564.96 683.34 563.16 684.63 562.31 683.54 558.77 680.73 558.41 680.18 557.75 679.49 557.45 678.58 558.16 677.34 558.83 676.89 561.06 675.74 560.46 671.88 557.68 669.58 554.61 668.03 553.18 666.45 551.47 665.31 543.99 662.48 542.29 660.91 541.84 659.78 539.7 657.13 539 655.97 538.66 653.98 538.7 652.35 538.32 651.14 536.8 650.38 535.43 651.19 526.78 656.75 525.25 657.38 523.49 657.21 521.77 656.54 520.33 655.73 518.95 654.59 515.29 650.1 514.62 649.61 513.84 649.19 513.01 648.87 512.14 648.63 504.12 645.14 500.4 643.97 496.94 644.16 494.13 643.76 488.01 639.42 485.16 638.19 480.12 639.37 468.21 647.12 451.61 657.93 442.47 652.71 428.71 648.13 407.08 640.26 399.22 636.99 384.8 631.74 378.25 625.85 416.77 547.92 419.7 542.98 420.09 542.51 420.77 541.9 423.26 540.67 426.48 538.45 427.96 537.65 428.97 537.26 429.72 537.54 430.12 537.64 430.9 537.55 433.9 536.44 434.87 535.89 435.41 535.51 435.94 534.61 436.67 533.66 437.8 532.48 438.02 532.19 438.18 531.83 438.43 531.45 439.1 530.72 439.41 530.25 439.57 529.6 439.58 529.41 440.02 528.37 442.41 524.73 449.29 523.25 453.33 520.64 463.96 511.03 464.48 510.25 465.25 510.02 466.09 509.9 477.94 510.04 481.23 509.47 481.93 509.46 483.29 509.84 483.94 509.89 486.37 509.65 486.91 509.73 487.52 509.87 488.29 510.18 490.1 510.55 496.26 510.75 Z" id="NIC-4800" data-name="Rio San Juan"/>
<path d="M 638.97 507.34 639.06 509.5 638.03 508.16 636.81 503.78 636.45 498 637.59 492.92 640.9 490.68 641.15 490.72 641.34 490.85 641.4 491.15 641.32 491.67 640.26 493.32 639.14 495.95 638.31 498.87 638.03 501.46 638.97 507.34 Z M 750.84 460.45 746.19 465.49 745.86 461.89 747.4 459.07 749.63 457.93 751.47 459.38 750.84 460.45 Z M 669.67 322.5 673.19 343.39 667.78 385.83 667.78 395.22 668.32 396.76 670.65 401.38 672.2 406.5 676.69 412.67 677.77 416.68 677.36 421.6 675.67 424.22 672.41 425.28 667.23 425.47 663.29 426.27 659.27 427.69 655.51 428.28 652.3 426.57 653.51 425.42 656.83 423.12 657.8 422.07 657.93 420.19 657.32 417.66 656.3 415.45 652.77 412.36 653.05 401.83 652.3 397.81 652.89 397.5 653.08 397.48 653.18 397.39 653.51 396.81 654.5 396.81 660.2 398.6 664.16 393.57 665.51 386.33 663.39 381.43 663.39 380.23 664.78 378.71 665.33 376.54 665.59 367.55 665.88 367.21 666.53 366.68 667.28 365.86 667.78 364.76 667.24 360.44 664.13 357.88 659.82 356.86 655.71 357.17 652.38 359.07 650.95 362.04 651.05 365.31 652.3 368.16 655.84 370.01 656.2 370.34 656.18 370.88 656.46 373.61 656.7 374.74 657.38 375.84 658.13 376.3 658.74 376.93 658.99 378.58 658.91 381.3 658.56 382.41 657.8 383.63 658.43 384.39 660.09 386.93 655.05 389.81 646.48 396.85 641.32 399.01 634.37 399.73 631.44 400.68 630.24 402.8 630.24 411.18 630.44 411.36 631.08 411.01 632.43 411.09 634.37 411.49 635.66 411.45 636.74 411.78 638.03 413.29 639.13 420.47 638.49 423.91 637.36 427.16 636.83 430.23 638.03 433.16 641.02 434.59 646.06 433.53 646.92 436.01 646.73 437.62 645.9 440.77 645.72 442.6 646.05 443.61 646.8 442.14 649.35 433.89 650.33 431.81 651.75 430.96 654.93 431.41 655.6 432.64 648.09 447.43 644.52 466.52 645.7 487.12 646.92 490.57 645.82 491.23 644.62 491.67 645.27 488.37 644.13 485.62 640.12 480.7 638.43 476.62 639.8 474.89 642.14 473.32 643.42 469.61 642.59 466.88 640.48 463.74 637.65 461.03 634.63 459.62 629.74 460.13 629.98 462.52 632.55 464.01 634.63 461.82 635.83 461.82 638.54 464.6 639.66 466.28 640.12 468.41 639.53 471.13 637.1 474.62 636.83 477.2 635.92 480.27 633.03 480.37 626.39 478.4 625.53 478.93 627.49 480.11 631.44 481.69 632.39 482.95 633.04 484.67 633.41 486.66 633.53 488.78 633.2 490.23 631.76 493.2 631.44 494.38 631.71 495.26 632.26 496.18 632.62 497.18 632.43 498.26 631.59 499.25 630.69 499.72 629.85 500.01 629.24 500.46 626.26 504.25 625.35 504.86 623.96 505.33 622.39 506.49 621.04 507.96 620.36 509.35 622.46 510.75 625.04 513.05 627.23 515.54 628.61 518.63 629.78 519.47 631.35 520.03 632.98 520.23 635.35 519.96 635.52 519.24 634.86 518.18 634.63 516.94 635.72 513.82 636.6 512.17 638.03 511.55 640.72 511.45 642.26 512.78 649.71 542.13 650.1 547.79 650.02 549.87 649.82 551.13 649.2 552.11 647.92 553.29 647.6 552.83 645.32 553.29 643.1 554.01 642.92 554.39 641.65 554.92 640.04 557.25 638.58 557.78 636.63 557.82 635.06 558.05 633.72 558.68 632.43 559.88 630.79 564.87 629.23 572.4 627.06 578.08 623.64 577.56 622.64 577.56 617.54 583.97 616.06 586.44 615.22 589.2 615.24 605.49 620.17 626.59 623.64 634.97 628.47 642.3 630.03 646.32 633.87 652.37 635.23 653.65 638.16 655.44 639.31 658.52 639.32 658.53 636.54 656.41 632.37 651.98 630.04 648.18 627.11 644.41 626.55 643.89 626.18 643.64 624.99 643.25 618.65 642.03 616.83 641.89 615.69 641.93 615.3 642.12 614.97 642.33 614.58 642.49 614.12 642.48 613.56 642.18 612.87 641.34 612.61 640.72 612.49 640.1 612.47 639.03 612.39 638.56 612.23 638.16 611.98 637.85 611.44 637.29 610.97 636.64 610.79 636.25 610.58 635.38 610.56 634.87 610.81 631.88 610.78 631.38 610.51 631.08 610.03 631 607.79 632.04 607.01 632.24 605.47 632.44 604.2 632.94 603.85 633.17 603.48 633.34 603.07 633.49 602.7 633.68 602.1 633.7 601.36 633.6 599.82 633.03 598.83 632.87 597.64 633.07 597.05 633.29 596.24 633.75 595.92 633.99 595.21 634.36 594.84 634.49 593.83 634.71 592.45 635.44 591.8 635.35 590.94 634.94 589.36 633.65 587.6 631.84 587.38 631.51 587.31 631.08 587.33 630.62 587.46 629.72 586.94 629.43 585.9 629.33 580.8 629.98 578.79 629.32 576.16 628.27 575.13 628.04 574.69 628 573.66 628.01 572.01 628.22 571.65 628.2 571.18 628.12 569.97 627.67 569.07 627.44 568.6 627.28 567.58 626.68 566.97 626.39 566.41 626.26 565.93 626.29 565.26 625.86 564.45 624.93 561.17 619.6 559.77 617.81 555.2 613.31 548.85 608.8 541.29 604.97 539.79 603.91 538.35 602.42 537.14 599.98 536.81 597.91 536.69 595.92 535.75 593.72 533.26 591.28 520.43 583.41 515.78 580.62 505.09 576.74 504.49 570.52 503.31 564.3 503.36 562.21 503.81 559.1 506.08 551.36 507.67 547.68 507.95 545.89 508.03 544.6 506.42 539.55 504.69 535.48 504.48 531.28 504.66 529.35 504.28 528.33 503.26 527.28 501.93 526.19 499.52 521.83 496.26 510.75 495.43 508.07 494.28 505.94 494.12 505.47 493.99 504.78 495.27 503.67 501.54 501.1 480.98 491.41 479.87 489.77 469.67 464.49 467.54 454.9 467.31 449.59 468.32 445.97 467.82 443.54 462.12 433.62 461.17 432.61 460.01 431.65 458.91 430.47 457.73 428.53 456.89 425.91 456.22 420.72 456.41 417.98 456.86 416 457.77 413.83 457.99 412.89 457.66 411.8 456.64 410.11 454.5 408.06 451.14 403.08 447.63 395.4 446.68 393.84 442.03 389.65 438.17 384.14 437.32 383.31 435.47 382.38 435.29 381.85 435.22 381.13 435.69 378.63 435.48 375.67 434.77 373.64 433.39 371.08 432.41 369.94 431.46 369.11 430.02 368.34 428.75 366.35 427.96 366.03 423.23 362.52 420.25 360.94 417.24 361.02 414.16 363.75 413.33 365.66 412.76 370.17 412.07 372.53 411.6 372.48 410.26 373.28 409.09 374.26 409.17 374.73 408.63 375.03 406.47 377.03 408.11 379.63 408.28 382.02 406.99 383.26 404.27 382.42 400.11 373.68 398.87 368.23 398.17 366.43 396.61 363.36 396.44 361.85 396.71 360.27 397.34 359 398.42 357.94 399.83 357.23 402.19 357.05 403.98 357.29 405.9 357.34 407.46 356.83 409.29 355.23 409.84 353.68 409.81 351.14 410.36 350.37 411.99 350.14 413.36 350.4 416.21 351.25 417.98 351.45 419.92 351.38 422.17 350.96 426.56 349.68 428.18 349.49 437.72 351.12 439.82 351.77 440.44 351.03 442.43 349.76 443.42 348.87 445.06 346.43 446.21 343.78 449.46 344.38 453.11 341.94 456.48 338.76 458.85 337.19 460.75 336.98 463.77 336.17 465.99 336.09 468.05 336.6 469.01 337.29 469.86 337.38 471.58 336.09 472.47 335.74 473.16 335.89 473.62 335.74 473.93 333.33 474.62 331.73 474.78 331.19 474.96 328.87 475.97 323.5 476.66 322.15 480.04 318.49 480.14 318.4 481.23 317.56 481.83 317.18 481.94 317.07 481.5 317.01 481.08 317.04 480.63 317.14 480.23 317.3 478.43 318.35 477.99 318.46 477.5 318.54 476.97 318.53 476.47 318.45 476.04 318.31 475.67 318.11 475.35 317.86 474.81 317.27 474.36 316.64 472.03 311.92 471.02 308.8 470.83 308.43 469.58 306.85 468.94 306.34 468.6 306.14 468.2 305.97 467.75 305.85 467.36 305.69 466.99 305.49 465.81 304.41 465.48 304.22 465.14 304.07 465.64 302.98 466.16 302.14 473.09 293.04 514.68 288.09 537.12 287.99 540.3 287.57 542.31 286.87 544.28 284.77 545.97 283.68 547.17 283.3 548.22 283.24 549.44 283.36 550.3 283.58 551.32 284.07 552.42 284.77 554.31 285.3 555.87 285.24 565.57 282.6 567.75 282.32 569.02 282.65 569.43 283.44 572.54 292.97 573.19 294.13 574.1 295.14 575.13 295.34 576.51 296.01 580.4 294.86 582.92 295.34 582.43 294.63 581.56 293.02 580.72 292.15 583.77 292.7 586.25 293.63 588.18 293.24 589.51 289.85 590.61 290.59 591.35 290.66 592.81 289.85 593.91 289.85 595.36 290.73 595.98 290.03 595.81 288.42 594.91 286.56 596.59 286.84 597.24 287.28 599.69 287.48 612.72 287.99 615.82 288.46 617.45 289.13 618.71 289.87 620.39 290.55 623.17 291.3 624.41 291.91 625 292.65 624.9 293.56 624.55 294.48 623.96 295.44 620.93 299.09 620.35 300.01 619.99 300.93 619.88 301.84 620.02 302.69 620.49 303.41 621.19 304.05 633.28 312.68 649.12 321.72 652.07 322.68 658.63 322.38 666.71 322.88 669.66 322.51 669.67 322.5 Z" fill-rule="evenodd" id="NIC-644" data-name="Atlántico Sur"/>
<path d="M 260.56 511.77 259.78 513.48 256.48 519.36 255.57 523.4 256.13 527.36 256.83 530.07 256.85 531.96 256.48 533.38 254.55 536 253.06 538.96 252.4 543.93 252.59 546.25 253 547.71 255.86 551.24 250.24 554.93 249.74 555.55 248.69 557.52 244.05 565.92 244.03 565.94 243.88 565.47 238.89 563.28 232.9 557.55 218.09 551.16 215.58 549.34 213.44 546.88 211.63 541.81 192.36 527.34 191.4 526.15 191.42 526.14 195.45 522.29 197.06 521.32 198.33 521.27 199.31 521.14 201.15 520.7 202.02 520.37 202.65 520.06 204.66 518.17 206.33 515.76 210.68 512.57 211.85 511.45 214.97 506.45 225.04 498.41 226.94 495.55 228.7 497.6 243.41 503.44 248.13 505.63 250.24 508.5 250.61 508.9 259.17 511.4 260.56 511.77 Z" id="NIC-654" data-name="Carazo"/>
<path d="M 296.11 456.65 297.11 459.76 297.36 462.19 297.62 463.42 298.48 464.45 299.84 465.42 302.42 466.41 306.79 470.13 315.42 481.98 327.46 481.15 348.98 540.03 289.22 539.78 283.96 541.28 276.83 543.09 276.07 542.84 274.48 541.24 273.86 540.59 273.16 540.15 272.35 539.96 272.07 539.95 271.68 539.98 271.23 540.25 270.76 540.72 268.25 546.02 266.5 548.84 265.89 549.26 261.43 551.49 260.86 552.06 259.65 552.23 255.86 551.24 253 547.71 252.59 546.25 252.4 543.93 253.06 538.96 254.55 536 256.48 533.38 256.85 531.96 256.83 530.07 256.13 527.36 255.57 523.4 256.48 519.36 259.78 513.48 260.56 511.77 263.64 505.09 265.17 501.76 265.73 500.56 271.5 487.97 278 473.93 277.48 471.47 272.14 465.5 285.66 459.54 290.71 455.95 292.04 455.46 293.25 455.48 296.11 456.65 Z" id="NIC-655" data-name="Granada"/>
<path d="M 351.64 268.13 342.67 273.83 339.54 275.01 335.77 275.03 332.4 277.25 330.16 279.78 327.8 283.49 324.97 288.19 313.24 301.65 307.21 306.79 305.45 307.8 298 314.08 288.87 322.5 285.36 324.93 283.74 325.47 281.7 325.74 275.86 325.51 273.93 325.8 273.12 326.2 271.02 328.72 265.5 324.59 263.01 322.12 260.69 320.77 259.23 320.16 257.02 320.22 256.21 320.19 253.69 317.18 246.63 313.11 234.5 301.27 233.38 299.58 232.34 297.32 234.23 294.26 234.72 291.59 234.3 289.58 236.63 282.89 235.15 275.99 235.21 272.56 235.66 269.86 236.59 267.38 237.96 264.95 243.87 258.77 246.48 256.53 249.05 256.07 251.3 255.98 253.29 256.8 254.83 255.08 261.08 250.21 262.62 248.39 264.17 246.54 265.97 245.84 267.67 247.91 269.24 247.19 277.65 246.49 280.43 246.67 282.22 247.69 283.58 248.9 285.07 249.69 287.22 249.42 288.36 248.62 291.07 244.86 294.67 242.26 297.6 240.83 299.36 238.72 299.09 229.15 299.59 225.15 301.06 221.44 305.71 213.65 306.41 211.69 306.88 209.57 307.12 201.95 308.09 199.33 309.68 197.49 313.55 195.19 313.65 195.23 314 194.92 315.11 193.93 316.44 191.33 316.78 188.84 315.87 186.97 313.46 186.24 312.85 184.84 313.52 181.74 315.11 176.9 315.3 173.38 316.09 172.49 317.75 172.87 320.61 173.06 322.66 172.12 325.92 169.36 327.3 169.76 328.29 169.76 328.22 169.01 328.46 168.82 328.91 168.83 329.4 168.67 328.87 166.98 334.51 165.3 336.08 163.72 337.6 161.48 341.13 160.35 342.5 160.11 345.16 159.64 348.16 158.68 349.67 156.47 350.02 153.91 350.95 151.78 356.74 150.23 359.48 148.68 363.64 145.5 365.51 143.24 367.28 140.13 368.61 137.07 369.78 132.96 371.32 130.43 373.17 128.08 374.72 126.63 375.42 126.5 377.15 126.77 377.82 126.63 378.27 126.1 378.73 124.93 379.87 123.59 380.52 122.5 381.4 121.61 382.91 121.23 386.74 119.38 388.41 119.03 394.5 119.03 398.48 118.35 402.5 117.05 405.81 115.1 407.68 112.44 407.52 108.78 405.45 105.57 402.58 103.02 399.99 101.36 404.39 98.06 404.57 97.05 404.2 94.59 404.39 93.57 408.1 89.73 408.68 88.68 409 80.55 409.7 76.09 410.98 73.8 413.91 74.52 416.48 77.28 419.21 79.26 422.61 77.7 428.34 72.11 429.3 69.93 430.07 70.01 431.25 70.29 431.7 70.52 432.21 70.91 432.59 71.51 432.93 72.18 433.19 73.19 433.23 74.25 432.39 76.57 432.14 77.52 432.17 78.47 432.11 79.21 431.81 80.85 431.72 81.81 431.77 83.2 431.66 84.7 431.8 85.17 432.06 85.56 434.21 87.21 436.6 88.48 437.32 89.14 437.89 90.13 438.15 91.39 437.87 92.96 436.07 95.97 435.84 96.99 436 100.5 435.82 101.3 434.57 103.49 434.26 104.55 434.32 105.62 434.78 106.79 437.8 110.62 440.5 113.07 442.81 115.79 443.64 116.31 444.78 116.6 459.16 117.51 459.57 119.74 459.31 123.63 455.8 142.05 455.29 149.53 456.78 155.39 456.46 157.29 454.98 160.39 445.2 176.4 424.78 208.28 423.97 209.09 423.23 209.42 407.86 202.49 407.26 202.67 387.64 214.6 387.31 214.68 374.37 216.43 373.56 217.31 372.79 218.77 371.36 222.62 370.1 224.56 368.96 225.86 367.28 226.92 367 227.91 367.14 229.36 368.44 232.08 369.52 233.88 370.29 236.03 370.55 237.57 368.86 242.56 368.78 245.47 368.85 246.26 368.65 247.76 368.1 249.02 366.33 250.46 357.59 255.96 352.59 260.3 351.68 262.42 351.64 268.13 Z" id="NIC-656" data-name="Jinotega"/>
<path d="M 797.9 107.41 794.95 108.71 786.41 107.99 785.72 107.92 786.35 107.92 786.45 107.93 786.78 107.85 786.97 107.45 786.91 106.82 789.49 105.41 790.55 103.6 791.12 101.76 792.3 100.24 794.92 98.97 797.06 98.98 798.47 100.3 799 102.93 797.9 107.41 Z M 669.67 322.5 669.66 322.51 666.71 322.88 658.63 322.38 652.07 322.68 649.12 321.72 633.28 312.68 621.19 304.05 620.49 303.41 620.02 302.69 619.88 301.84 619.99 300.93 620.35 300.01 620.93 299.09 623.96 295.44 624.55 294.48 624.9 293.56 625 292.65 624.41 291.91 623.17 291.3 620.39 290.55 618.71 289.87 617.45 289.13 615.82 288.46 612.72 287.99 599.69 287.48 597.24 287.28 596.59 286.84 594.91 286.56 595.81 288.42 595.98 290.03 595.36 290.73 593.91 289.85 592.81 289.85 591.35 290.66 590.61 290.59 589.51 289.85 588.18 293.24 586.25 293.63 583.77 292.7 580.72 292.15 581.56 293.02 582.43 294.63 582.92 295.34 580.4 294.86 576.51 296.01 575.13 295.34 574.1 295.14 573.19 294.13 572.54 292.97 569.43 283.44 569.02 282.65 567.75 282.32 565.57 282.6 555.87 285.24 554.31 285.3 552.42 284.77 551.32 284.07 550.3 283.58 549.44 283.36 548.22 283.24 547.17 283.3 545.97 283.68 544.28 284.77 542.31 286.87 540.3 287.57 537.12 287.99 514.68 288.09 473.09 293.04 470.15 288.71 454.08 268.76 453.13 267.14 452.58 266.55 451.91 266.37 437.32 279.68 435.86 280.25 433.39 280.49 422.71 280.27 417.34 280.75 413.26 283.11 411.17 286.01 409.86 288.91 407.96 294.49 405.97 298.55 404.57 300.12 403 301.3 398.4 303.4 394.19 304.39 392.49 304.17 387.53 302.13 386.38 300.54 384.47 300.31 384.17 300 383.97 298.56 383.65 298.03 383.1 297.66 380.83 296.56 379.62 295.74 378.97 295.55 378.43 295.54 377.55 295.79 376.56 295.91 376.07 295.88 375.6 295.82 375.2 295.65 374.83 295.42 370.23 291.26 369.34 290.58 368.57 290.15 366.41 289.3 363.21 286.24 355.02 275.45 351.64 268.13 351.68 262.42 352.59 260.3 357.59 255.96 366.33 250.46 368.1 249.02 368.65 247.76 368.85 246.26 368.78 245.47 368.86 242.56 370.55 237.57 370.29 236.03 369.52 233.88 368.44 232.08 367.14 229.36 367 227.91 367.28 226.92 368.96 225.86 370.1 224.56 371.36 222.62 372.79 218.77 373.56 217.31 374.37 216.43 387.31 214.68 387.64 214.6 407.26 202.67 407.86 202.49 423.23 209.42 423.97 209.09 424.78 208.28 445.2 176.4 454.98 160.39 456.46 157.29 456.78 155.39 455.29 149.53 455.8 142.05 459.31 123.63 459.57 119.74 459.16 117.51 444.78 116.6 443.64 116.31 442.81 115.79 440.5 113.07 437.8 110.62 434.78 106.79 434.32 105.62 434.26 104.55 434.57 103.49 435.82 101.3 436 100.5 435.84 96.99 436.07 95.97 437.87 92.96 438.15 91.39 437.89 90.13 437.32 89.14 436.6 88.48 434.21 87.21 432.06 85.56 431.8 85.17 431.66 84.7 431.77 83.2 431.72 81.81 431.81 80.85 432.11 79.21 432.17 78.47 432.14 77.52 432.39 76.57 433.23 74.25 433.19 73.19 432.93 72.18 432.59 71.51 432.21 70.91 431.7 70.52 431.25 70.29 430.07 70.01 429.3 69.93 429.53 69.4 425.35 69.41 426.31 68.17 429.85 64.91 425.3 61.76 424.43 60.19 426.96 59.52 427.79 59.14 428.31 58.18 429.15 52.23 430.58 49.72 432.78 47.7 433.11 47.49 435.62 45.85 438.5 43.85 445.87 36.92 448.51 35.43 458.13 33.73 462.37 33.55 466.55 34.77 470.08 37.33 472.44 41.14 471.95 41.59 470.69 43.17 470.6 43.48 473.8 43.87 474.24 45.82 474.08 47.96 477.37 50.12 479.05 52.81 481.48 58.32 484.45 56.59 487.53 56.91 493.76 59.52 497.39 60.28 509.13 60.62 508.52 61.76 508.04 64.91 510.48 64.18 512.18 65.09 513.86 66.49 516.33 67.2 518.11 66.7 522.28 64.43 528.28 62.39 531.24 58.84 533.47 54.77 535.6 51.74 537.16 53.29 538.32 57.47 539.55 58.32 541.99 58.54 545.9 59.4 547.68 59.52 550.99 57.83 551.81 54.29 550.98 46.74 551.87 44.83 553.89 44.69 556.12 45.44 557.57 46.24 558.8 47.26 562.61 51.24 564.56 52.02 566.93 51.84 570.85 50.73 571.8 50.19 572.45 49.42 573.27 48.75 574.74 48.44 576.09 48.66 576.85 49.05 577.53 49.12 578.63 48.44 578.63 47.23 577.22 45.9 576.11 44.43 574.24 40.65 576.01 39.22 577.18 39.14 580.87 41.41 581.28 42.15 581.89 42.72 583.58 42.94 586.29 42.86 587.12 43.3 587.43 44.54 590.19 44.86 606.1 44.04 605.27 42.72 605.3 41.23 606.1 37.55 608.04 38.61 610.63 41.31 612.69 41.84 612.49 41.16 611.69 39.65 612.86 40.12 613.49 40.29 614.05 40.69 614.99 41.84 616.94 40.13 619.81 38.57 623 37.58 625.97 37.55 624.72 36.73 623.92 35.94 622.78 34.06 631.75 33.53 635.09 32.26 634.76 29.76 636.79 29.64 638.45 29.86 639.64 30.59 640.25 31.96 641.44 31.96 639.92 27.34 640.54 25.56 643.54 24.17 646.73 23.74 650.3 23.92 653.26 24.77 654.63 26.47 655.83 26.47 656.52 24.5 656.86 22.33 657.65 20.59 661.59 19.16 665.6 16.05 667.92 15.38 667.6 14.82 667.17 13.68 666.81 13.19 669.2 13.86 670.11 14.29 669.62 12.13 669.82 10.26 670.72 9.57 672.3 10.99 672.4 8.55 672.66 7.56 673.51 6.5 672.42 4.94 672.97 4.13 674.59 3.95 676.7 4.3 677.56 5.09 679.51 8.01 680.99 8.8 684.77 8.37 688.03 6.47 690.53 3.79 692.08 1 694.08 2.56 696.15 3.35 697.83 4.36 698.66 6.5 701.1 4.94 703.86 4.77 710.95 5.49 709.04 6.4 708.91 7.25 710.09 8.05 712.05 8.8 712.71 8.69 719.84 8.8 724.09 6.91 726.33 6.5 731.76 6.8 733.88 6.46 732.71 8.12 729.76 9.45 728.3 10.96 725.94 8.24 724 10.12 722.45 13.53 721.26 15.36 719.21 16.33 717.24 18.64 715.79 21.37 715.22 23.59 714.79 24.34 712.75 26.29 711.92 27.44 711.51 29 711.21 32.45 710.82 34.03 709.5 36.04 707.57 37.47 702.03 39.61 702.42 38.65 702.87 37.89 704.23 36.32 704.23 37.53 704.77 36.63 705.09 35.89 705.22 35.1 705.24 34.03 703.99 34.78 703.47 34.9 702.03 34.03 702.03 33.03 703.95 32.15 705.79 31.92 707.4 32.5 708.63 34.03 708.5 30.99 706.78 26.83 706.34 23.59 705.34 20.37 703.04 19.84 700.43 20.78 698.53 21.94 695.36 24.81 688.24 33.7 686.55 37.53 688.12 35.92 688.66 35.22 690.87 36.94 692.62 43.54 693.7 45.01 695.82 46.25 698.13 48.42 700.57 49.19 703.04 46.21 701.87 45.22 698.9 43.46 697.54 42.91 699.36 41.93 701.22 42.46 702.91 44.05 704.23 46.21 704.12 42.54 705.29 41.4 706.73 42.79 713.02 70.98 713.37 71.88 714.87 74.89 716.21 82.56 724.01 104.62 724.85 110.94 724.08 116.44 719.7 126.59 706.34 147.57 700.57 154.39 699.74 157.05 698.61 159.02 690.95 164.24 687.72 168.7 685.49 173.83 681.62 188.76 675.42 209.06 671.61 227.41 671.85 235.3 671.18 239.14 671.15 242.22 667.78 250.22 664.91 260.85 663.14 281.56 663.45 285.44 664.59 287.66 663.39 288.67 664.3 290.64 669.67 322.5 669.67 322.5 Z" fill-rule="evenodd" id="NIC-657" data-name="Atlántico Norte"/>
<path d="M 229.76 352.12 229.29 356.11 227.38 372.06 225.76 386.24 219.4 390.07 217.11 392.22 215.75 394.01 215.31 394.94 215.13 395.75 215.17 396.32 214.89 397.97 214.89 398.56 214.98 399.02 214.93 399.76 214.72 400.77 213.75 403.6 213.59 404.36 213.67 404.81 213.96 405.63 214.13 406.01 215.67 408.17 215.72 408.22 216.67 409.04 216.87 409.34 216.99 409.75 217.02 410.77 217.1 411.29 217.29 411.9 217.07 412.4 216.42 413.16 200.76 428.32 190.02 438.94 187.78 442.02 187.53 444.52 187.51 455.93 187.72 457.02 188.16 457.96 188.83 458.51 189.63 458.98 190.67 460.17 190.89 463.06 188.84 467.54 185.71 471.1 179.64 475.64 178.73 476.08 178.26 476.1 175.98 475.63 173.69 474.78 173.39 474.73 172.98 474.72 172.53 474.77 172.09 474.88 169.68 475.73 168.55 475.96 167.96 476.23 167.53 476.51 167.29 476.84 167.14 477.23 167.12 477.69 167.19 478.15 167.44 479.03 168.56 481.25 169.32 482.15 169.52 482.49 169.67 483.07 169.66 483.45 169.58 483.87 168.88 485.07 168.31 485.71 164.33 488.53 164.31 488.55 161.24 484.76 155.17 474.43 149.52 459.31 147.93 456.87 143.91 453.47 110.98 433.71 108.92 431.22 99.85 426.1 94.93 420.91 83.82 416 83.41 412.29 85.26 414.69 88.41 416.74 92.09 418.22 95.6 418.88 91.9 414.89 91.91 414.88 95.46 412.8 103.39 411.95 106.15 410.74 108.88 409.17 110.4 408.25 118.75 399.76 121.99 394.62 123.22 391.44 123.86 390.4 126.98 387.48 131.08 383.15 135.02 378.97 138.15 377.56 141.25 373.92 143.48 369.68 144.63 368.58 146.41 367.63 158.01 366.15 160.29 365.57 161.56 365.09 164.43 363.34 166.43 358.8 166.91 353.77 165.41 334.32 163.42 329.83 161.24 326.36 157.84 318.69 156.27 313.23 159.06 312.14 160.6 312.01 162.73 312.05 165.29 312.89 168.41 314.39 170.31 314.25 173.59 313.54 184.2 310.06 193.2 308.2 195.15 308.73 196.37 309.32 199.28 312.2 203.51 319.07 205.15 321.25 205.98 322.63 207.11 326.64 206.77 331.69 203.22 337.84 203 339.69 203.05 341.05 204.65 343.88 210.06 346.52 229.76 352.12 Z" id="NIC-658" data-name="León"/>
<path d="M 276.68 404.64 275.7 407.46 276.35 412.88 277.11 415.16 278.2 417 280.24 419.68 284.29 424.01 284.86 424.9 285.05 425.9 284.72 429.06 284.69 431.74 284.96 432.9 285.47 433.75 299.54 446.78 299.88 447.32 299.6 448.25 296.95 452.22 296.11 456.65 293.25 455.48 292.04 455.46 290.71 455.95 285.66 459.54 272.14 465.5 269.27 464.77 268.39 464.3 268.11 464.19 267.6 464.13 264.86 464.51 259.34 466.7 254.68 467.51 251.77 469.65 241.99 479.13 242.51 481.18 244.84 483.53 245.71 484.73 246.15 485.69 245.94 489.27 244.15 492.13 243.24 493.19 242.24 494.1 240.96 494.79 239.45 495.19 238.18 495.31 236.27 494.81 235.15 494.3 230.75 490.96 226.94 495.55 225.04 498.41 214.97 506.45 211.85 511.45 210.68 512.57 206.33 515.76 204.66 518.17 202.65 520.06 202.02 520.37 201.15 520.7 199.31 521.14 198.33 521.27 197.06 521.32 195.45 522.29 191.42 526.14 191.4 526.15 189.27 523.53 184.96 513.99 183.22 512.55 181.6 511.7 177.36 507.48 174.85 503.97 172.12 498.91 171.59 496.52 170.81 494.28 168.95 492.41 164.99 489.39 164.31 488.55 164.33 488.53 168.31 485.71 168.88 485.07 169.58 483.87 169.66 483.45 169.67 483.07 169.52 482.49 169.32 482.15 168.56 481.25 167.44 479.03 167.19 478.15 167.12 477.69 167.14 477.23 167.29 476.84 167.53 476.51 167.96 476.23 168.55 475.96 169.68 475.73 172.09 474.88 172.53 474.77 172.98 474.72 173.39 474.73 173.69 474.78 175.98 475.63 178.26 476.1 178.73 476.08 179.64 475.64 185.71 471.1 188.84 467.54 190.89 463.06 190.67 460.17 189.63 458.98 188.83 458.51 188.16 457.96 187.72 457.02 187.51 455.93 187.53 444.52 187.78 442.02 190.02 438.94 200.76 428.32 216.42 413.16 217.07 412.4 217.29 411.9 217.1 411.29 217.02 410.77 216.99 409.75 216.87 409.34 216.67 409.04 215.72 408.22 215.67 408.17 214.13 406.01 213.96 405.63 213.67 404.81 213.59 404.36 213.75 403.6 214.72 400.77 214.93 399.76 214.98 399.02 214.89 398.56 214.89 397.97 215.17 396.32 215.13 395.75 215.31 394.94 215.75 394.01 217.11 392.22 219.4 390.07 225.76 386.24 253.09 392.16 255.95 393.05 258.35 395.21 260.81 397.93 262.57 399.33 264.12 400.37 274.07 404.13 276.68 404.64 Z" id="NIC-659" data-name="Managua"/>
<path d="M 272.14 465.5 277.48 471.47 278 473.93 271.5 487.97 265.73 500.56 265.17 501.76 263.64 505.09 260.56 511.77 259.17 511.4 250.61 508.9 250.24 508.5 248.13 505.63 243.41 503.44 228.7 497.6 226.94 495.55 230.75 490.96 235.15 494.3 236.27 494.81 238.18 495.31 239.45 495.19 240.96 494.79 242.24 494.1 243.24 493.19 244.15 492.13 245.94 489.27 246.15 485.69 245.71 484.73 244.84 483.53 242.51 481.18 241.99 479.13 251.77 469.65 254.68 467.51 259.34 466.7 264.86 464.51 267.6 464.13 268.11 464.19 268.39 464.3 269.27 464.77 272.14 465.5 Z" id="NIC-660" data-name="Masaya"/>
<path d="M 154.34 284.56 154.52 284.83 157.57 285.45 158.5 286.15 158.97 287.5 159.17 288.71 159.09 289.68 158.84 290.55 158.65 290.94 157.2 295.51 155.5 296.99 155.35 297.19 154.95 298.65 154.42 303.67 156.27 313.23 157.84 318.69 161.24 326.36 163.42 329.83 165.41 334.32 166.91 353.77 166.43 358.8 164.43 363.34 161.56 365.09 160.29 365.57 158.01 366.15 146.41 367.63 144.63 368.58 143.48 369.68 141.25 373.92 138.15 377.56 135.02 378.97 131.08 383.15 126.98 387.48 123.86 390.4 123.22 391.44 121.99 394.62 118.75 399.76 110.4 408.25 108.88 409.17 106.15 410.74 103.39 411.95 95.46 412.8 91.91 414.88 91.9 414.89 91.6 414.57 89.54 412.94 87.31 412.29 85.94 411.24 82.31 404.49 81.31 404.49 82.95 410.46 80.33 408.21 76.13 403 73.04 400.11 71.04 399.29 60.98 391.65 59.65 390.29 58.92 388.63 58.05 385.83 57.6 386.7 56.35 388.23 55.86 389.02 38.16 368.97 36.08 364.76 36.77 365.53 37.44 365.98 39.37 366.96 39.37 365.96 38.61 365.69 37.18 364.76 37.18 363.76 36.77 362.13 34.07 359.93 30.43 358 27.2 357.16 27.2 358.17 31.47 360.91 33.71 362.95 33.78 364.76 32.15 364.53 29.77 362.75 26.2 359.36 7.32 348.28 3.4 344.88 1.03 340.9 1 336.18 4.02 330.61 8.56 326.7 13.2 323.88 16.61 320.29 17.41 314.13 18.41 314.13 17.95 317.58 17.41 318.53 19.21 318.53 21.39 318.81 23.23 319.36 24 320.12 24.76 320.59 28.85 324.01 29.87 324.58 32.78 328.41 33.49 328.94 35.55 330.15 36.08 330.61 36.22 331.65 35.89 334.08 36.08 335.1 41.35 340.23 48.19 341.68 64.75 340.69 64.75 339.49 56.37 339.7 52.17 339.25 50.36 337.79 51.98 335.22 59.76 331.42 60.81 330.72 60.81 330.72 97.72 328.4 100.1 328.65 103.8 330.88 105.7 331 106.57 328.38 109.93 326.77 114.04 324.23 115.87 322.3 119.64 316.54 120.55 315.83 122.92 314.68 123.74 313.85 124.17 312.28 123.54 311.69 122.63 311.3 122.22 310.29 123.61 301.82 123.32 301.42 122.11 298.84 121.81 297.9 122.08 297.47 123.25 292.94 124.39 290.78 125.69 289.2 133.42 282.71 135.55 281.28 138.14 280.55 140.9 280.78 150.17 285.25 151.67 285.71 153.19 285.32 154.34 284.56 Z" id="NIC-663" data-name="Chinandega"/>
<path d="M 237.96 264.95 236.59 267.38 235.66 269.86 235.21 272.56 235.15 275.99 236.63 282.89 234.3 289.58 234.72 291.59 234.23 294.26 232.34 297.32 233.38 299.58 234.5 301.27 246.63 313.11 253.69 317.18 256.21 320.19 250.14 328.28 249.1 332.42 248.71 333.29 248 334.15 246.66 335.08 244.62 335.77 240.5 336.66 238.6 337.3 235.03 339.29 233.79 340.46 233.22 341.13 230.66 346.33 229.76 352.12 210.06 346.52 204.65 343.88 203.05 341.05 203 339.69 203.22 337.84 206.77 331.69 207.11 326.64 205.98 322.63 205.15 321.25 203.51 319.07 199.28 312.2 196.37 309.32 195.15 308.73 193.2 308.2 184.2 310.06 173.59 313.54 170.31 314.25 168.41 314.39 165.29 312.89 162.73 312.05 160.6 312.01 159.06 312.14 156.27 313.23 154.42 303.67 154.95 298.65 155.35 297.19 155.5 296.99 157.2 295.51 170.71 282.22 173.71 278.06 175.07 275.24 181.68 263.91 188.11 258.5 192.38 257.85 194.06 258.37 196.41 259.49 203.3 262.69 210.1 261.57 222.45 257.69 231.4 257.26 234.42 258.21 235.07 259.26 236.66 262.79 237.96 264.95 Z" id="NIC-664" data-name="Estelí"/>
<path d="M 262.62 248.39 261.08 250.21 254.83 255.08 253.29 256.8 251.3 255.98 249.05 256.07 246.48 256.53 243.87 258.77 237.96 264.95 236.66 262.79 235.07 259.26 234.42 258.21 231.4 257.26 222.45 257.69 210.1 261.57 203.3 262.69 196.41 259.49 194.06 258.37 192.38 257.85 188.11 258.5 181.68 263.91 175.07 275.24 173.71 278.06 170.71 282.22 157.2 295.51 158.65 290.94 158.84 290.55 159.09 289.68 159.17 288.71 158.97 287.5 158.5 286.15 157.57 285.45 154.52 284.83 154.34 284.56 155.5 283.78 157.71 281.79 158.95 279.67 159.3 277.2 158.35 272.59 158.01 271.62 156.84 269.57 155.8 268.65 154.71 268.4 153.75 267.91 153.13 266.3 153.38 264 155.43 259.56 155.69 257.05 150.5 237.75 150.42 235.01 151.41 229.86 151.3 227.29 150.69 226.25 149.28 225.21 150.63 224.24 151.86 222.59 152.36 222.07 153.09 221.54 156.65 221.59 167.92 223.62 171.1 228.25 171.81 229.61 173.23 231.13 175 232.36 177.71 233.35 179.55 234.42 181.56 236.13 184.08 234.92 185.7 233.39 189.33 232.47 190.93 232.28 202.48 232.47 211.46 235.29 216.63 235.23 223.31 234.41 225.19 234.65 227.69 235.37 230.81 237.25 235.72 239.38 237.17 237.6 238.13 233.04 238.64 232 239.1 231.27 242.64 229.9 245.77 228.88 251.33 233.31 252.63 234.59 254.2 236.49 257.76 242.68 262.62 248.39 Z" id="NIC-665" data-name="Madriz"/>
<path d="M 404.27 382.42 404.4 384.16 404.23 385.7 403.8 387 403.18 388.01 402.08 388.01 401.29 387.32 399.79 386.33 398.34 385.77 397.69 386.36 397.22 387.94 396.18 387.67 391.15 382.16 389.33 381.88 386.6 383.62 385.5 383.62 386.38 379.57 386.6 379.13 385.44 378.25 382.88 378.1 379.84 376.49 374.52 374.7 373.42 374.13 372.86 372.58 371.51 370.99 369.88 369.74 368.48 369.24 367.52 369.05 366.3 369.94 366.06 370.26 365.8 370.91 365.44 371.64 364.93 372.27 364.62 372.55 363.92 372.98 363.18 373.32 361.92 373.7 361.52 373.9 361.24 374.18 361.07 374.56 360.17 374.86 358.53 375.02 348.23 374.49 347.71 374.58 347.29 374.76 346.98 375.02 346.73 375.33 344.64 379.43 344.15 380.1 343.53 380.35 342.57 380.47 339.47 380.49 338.72 380.62 337.27 381.37 333.99 381.98 332.09 382.33 330.12 383.94 329.48 384.24 329.01 384.22 328.07 383.72 325.52 383.25 323.4 382.69 295.43 388.4 292.82 389.7 289.99 395.51 282.3 399.72 281.44 400.37 276.68 404.64 274.07 404.13 264.12 400.37 262.57 399.33 260.81 397.93 258.35 395.21 255.95 393.05 253.09 392.16 225.76 386.24 227.38 372.06 229.29 356.11 229.76 352.12 230.66 346.33 233.22 341.13 233.79 340.46 235.03 339.29 238.6 337.3 240.5 336.66 244.62 335.77 246.66 335.08 248 334.15 248.71 333.29 249.1 332.42 250.14 328.28 256.21 320.19 257.02 320.22 259.23 320.16 260.69 320.77 263.01 322.12 265.5 324.59 271.02 328.72 273.12 326.2 273.93 325.8 275.86 325.51 281.7 325.74 283.74 325.47 285.36 324.93 288.87 322.5 298 314.08 305.45 307.8 307.21 306.79 313.24 301.65 324.97 288.19 327.8 283.49 330.16 279.78 332.4 277.25 335.77 275.03 339.54 275.01 342.67 273.83 351.64 268.13 355.02 275.45 363.21 286.24 366.41 289.3 368.57 290.15 369.34 290.58 370.23 291.26 374.83 295.42 375.2 295.65 375.6 295.82 376.07 295.88 376.56 295.91 377.55 295.79 378.43 295.54 378.97 295.55 379.62 295.74 380.83 296.56 383.1 297.66 383.65 298.03 383.97 298.56 384.17 300 384.47 300.31 386.38 300.54 387.53 302.13 392.49 304.17 394.19 304.39 398.4 303.4 403 301.3 404.57 300.12 405.97 298.55 407.96 294.49 409.86 288.91 411.17 286.01 413.26 283.11 417.34 280.75 422.71 280.27 433.39 280.49 435.86 280.25 437.32 279.68 451.91 266.37 452.58 266.55 453.13 267.14 454.08 268.76 470.15 288.71 473.09 293.04 466.16 302.14 465.64 302.98 465.14 304.07 465.48 304.22 465.81 304.41 466.99 305.49 467.36 305.69 467.75 305.85 468.2 305.97 468.6 306.14 468.94 306.34 469.58 306.85 470.83 308.43 471.02 308.8 472.03 311.92 474.36 316.64 474.81 317.27 475.35 317.86 475.67 318.11 476.04 318.31 476.47 318.45 476.97 318.53 477.5 318.54 477.99 318.46 478.43 318.35 480.23 317.3 480.63 317.14 481.08 317.04 481.5 317.01 481.94 317.07 481.83 317.18 481.23 317.56 480.14 318.4 480.04 318.49 476.66 322.15 475.97 323.5 474.96 328.87 474.78 331.19 474.62 331.73 473.93 333.33 473.62 335.74 473.16 335.89 472.47 335.74 471.58 336.09 469.86 337.38 469.01 337.29 468.05 336.6 465.99 336.09 463.77 336.17 460.75 336.98 458.85 337.19 456.48 338.76 453.11 341.94 449.46 344.38 446.21 343.78 445.06 346.43 443.42 348.87 442.43 349.76 440.44 351.03 439.82 351.77 437.72 351.12 428.18 349.49 426.56 349.68 422.17 350.96 419.92 351.38 417.98 351.45 416.21 351.25 413.36 350.4 411.99 350.14 410.36 350.37 409.81 351.14 409.84 353.68 409.29 355.23 407.46 356.83 405.9 357.34 403.98 357.29 402.19 357.05 399.83 357.23 398.42 357.94 397.34 359 396.71 360.27 396.44 361.85 396.61 363.36 398.17 366.43 398.87 368.23 400.11 373.68 404.27 382.42 Z" id="NIC-666" data-name="Matagalpa"/>
<path d="M 313.55 195.19 309.68 197.49 308.09 199.33 307.12 201.95 306.88 209.57 306.41 211.69 305.71 213.65 301.06 221.44 299.59 225.15 299.09 229.15 299.36 238.72 297.6 240.83 294.67 242.26 291.07 244.86 288.36 248.62 287.22 249.42 285.07 249.69 283.58 248.9 282.22 247.69 280.43 246.67 277.65 246.49 269.24 247.19 267.67 247.91 265.97 245.84 264.17 246.54 262.62 248.39 257.76 242.68 254.2 236.49 252.63 234.59 251.33 233.31 245.77 228.88 242.64 229.9 239.1 231.27 238.64 232 238.13 233.04 237.17 237.6 235.72 239.38 230.81 237.25 227.69 235.37 225.19 234.65 223.31 234.41 216.63 235.23 211.46 235.29 202.48 232.47 190.93 232.28 189.33 232.47 185.7 233.39 184.08 234.92 181.56 236.13 179.55 234.42 177.71 233.35 175 232.36 173.23 231.13 171.81 229.61 171.1 228.25 167.92 223.62 156.65 221.59 153.09 221.54 152.36 222.07 151.86 222.59 150.63 224.24 149.28 225.21 148.63 224.73 148 223.89 147.69 222.44 148.15 213.86 148.3 211.07 148.68 208.83 148.95 207.85 149.72 207.19 151.57 205.94 155.22 204.15 158.59 203.87 165.6 204.72 178.72 202.28 185.08 201.92 190.4 204.77 193.26 205.56 195.59 204.83 197.75 203.72 200.11 203.39 202.64 205.94 203.6 206.61 205.12 207.08 206.24 207.24 214.55 206.72 217.5 206.02 219.9 204.87 221.77 202.81 222.7 200.38 223.97 195.61 226.51 191.69 237.05 180.64 242.61 172.19 244.3 171.1 246.19 170.39 248.14 169.4 250.02 167.48 251.17 165.43 251.8 163.88 252.64 162.49 254.45 160.89 256.66 159.77 268.97 157.99 268.93 159.77 267.19 163.23 267.65 167.5 279.01 175.54 282.5 180.03 283.58 181.01 285.81 181.76 287.29 181.45 288.76 180.86 290.95 180.73 294.49 182.24 296.37 185.03 297.94 188.33 300.51 191.37 304.07 192.57 307.83 192.46 311.11 192.72 313.25 195.07 313.55 195.19 Z" id="NIC-667" data-name="Nueva Segovia"/>
<path d="M 438.17 384.14 436.13 388.17 430 396.98 429.37 398.26 428.97 399.56 428.74 401.36 428.66 407.28 428.21 409.07 427.37 410.89 424.69 414.22 422.92 415.94 420.55 417.7 415.83 419.99 413.52 420.36 412.55 420.4 410.91 420.2 409.19 420.58 406.76 421.54 397.35 427.9 395.43 428.94 388.85 431.13 380.16 432.09 368.61 434.11 361.72 433.82 357.03 433.74 353.05 433.1 351.29 433.04 348.99 433.72 342.92 436.65 338.77 439.61 338.01 440.35 336.72 442.08 336.4 442.86 336.21 443.89 336.23 447.8 336.62 450.73 336.58 451.8 336.24 452.92 333.01 460.19 332.83 460.45 332.64 460.76 332.41 461.06 330.9 463.44 330.13 464.98 327.46 481.15 315.42 481.98 306.79 470.13 302.42 466.41 299.84 465.42 298.48 464.45 297.62 463.42 297.36 462.19 297.11 459.76 296.11 456.65 296.95 452.22 299.6 448.25 299.88 447.32 299.54 446.78 285.47 433.75 284.96 432.9 284.69 431.74 284.72 429.06 285.05 425.9 284.86 424.9 284.29 424.01 280.24 419.68 278.2 417 277.11 415.16 276.35 412.88 275.7 407.46 276.68 404.64 281.44 400.37 282.3 399.72 289.99 395.51 292.82 389.7 295.43 388.4 323.4 382.69 325.52 383.25 328.07 383.72 329.01 384.22 329.48 384.24 330.12 383.94 332.09 382.33 333.99 381.98 337.27 381.37 338.72 380.62 339.47 380.49 342.57 380.47 343.53 380.35 344.15 380.1 344.64 379.43 346.73 375.33 346.98 375.02 347.29 374.76 347.71 374.58 348.23 374.49 358.53 375.02 360.17 374.86 361.07 374.56 361.24 374.18 361.52 373.9 361.92 373.7 363.18 373.32 363.92 372.98 364.62 372.55 364.93 372.27 365.44 371.64 365.8 370.91 366.06 370.26 366.3 369.94 367.52 369.05 368.48 369.24 369.88 369.74 371.51 370.99 372.86 372.58 373.42 374.13 374.52 374.7 379.84 376.49 382.88 378.1 385.44 378.25 386.6 379.13 386.38 379.57 385.5 383.62 386.6 383.62 389.33 381.88 391.15 382.16 396.18 387.67 397.22 387.94 397.69 386.36 398.34 385.77 399.79 386.33 401.29 387.32 402.08 388.01 403.18 388.01 403.8 387 404.23 385.7 404.4 384.16 404.27 382.42 406.99 383.26 408.28 382.02 408.11 379.63 406.47 377.03 408.63 375.03 409.17 374.73 409.09 374.26 410.26 373.28 411.6 372.48 412.07 372.53 412.76 370.17 413.33 365.66 414.16 363.75 417.24 361.02 420.25 360.94 423.23 362.52 427.96 366.03 428.75 366.35 430.02 368.34 431.46 369.11 432.41 369.94 433.39 371.08 434.77 373.64 435.48 375.67 435.69 378.63 435.22 381.13 435.29 381.85 435.47 382.38 437.32 383.31 438.17 384.14 Z" id="NIC-668" data-name="Boaco"/>
<path d="M 496.26 510.75 490.1 510.55 488.29 510.18 487.52 509.87 486.91 509.73 486.37 509.65 483.94 509.89 483.29 509.84 481.93 509.46 481.23 509.47 477.94 510.04 466.09 509.9 465.25 510.02 464.48 510.25 463.96 511.03 453.33 520.64 449.29 523.25 442.41 524.73 440.02 528.37 439.58 529.41 439.57 529.6 439.41 530.25 439.1 530.72 438.43 531.45 438.18 531.83 438.02 532.19 437.8 532.48 436.67 533.66 435.94 534.61 435.41 535.51 434.87 535.89 433.9 536.44 430.9 537.55 430.12 537.64 429.72 537.54 428.97 537.26 427.96 537.65 426.48 538.45 423.26 540.67 420.77 541.9 420.09 542.51 419.7 542.98 416.77 547.92 348.98 540.03 327.46 481.15 330.13 464.98 330.9 463.44 332.41 461.06 332.64 460.76 332.83 460.45 333.01 460.19 336.24 452.92 336.58 451.8 336.62 450.73 336.23 447.8 336.21 443.89 336.4 442.86 336.72 442.08 338.01 440.35 338.77 439.61 342.92 436.65 348.99 433.72 351.29 433.04 353.05 433.1 357.03 433.74 361.72 433.82 368.61 434.11 380.16 432.09 388.85 431.13 395.43 428.94 397.35 427.9 406.76 421.54 409.19 420.58 410.91 420.2 412.55 420.4 413.52 420.36 415.83 419.99 420.55 417.7 422.92 415.94 424.69 414.22 427.37 410.89 428.21 409.07 428.66 407.28 428.74 401.36 428.97 399.56 429.37 398.26 430 396.98 436.13 388.17 438.17 384.14 442.03 389.65 446.68 393.84 447.63 395.4 451.14 403.08 454.5 408.06 456.64 410.11 457.66 411.8 457.99 412.89 457.77 413.83 456.86 416 456.41 417.98 456.22 420.72 456.89 425.91 457.73 428.53 458.91 430.47 460.01 431.65 461.17 432.61 462.12 433.62 467.82 443.54 468.32 445.97 467.31 449.59 467.54 454.9 469.67 464.49 479.87 489.77 480.98 491.41 501.54 501.1 495.27 503.67 493.99 504.78 494.12 505.47 494.28 505.94 495.43 508.07 496.26 510.75 Z" id="NIC-669" data-name="Chontales"/>
</g>
</svg>