<?xml version="1.0"?>
<svg xmlns="http://www.w3.org/2000/svg" version="1.2" baseProfile="tiny" width="800" height="570" viewBox="0 0 800 570" stroke-linecap="round" stroke-linejoin="round">
<g id="ne_10m_admin_1_states_provinces">
<path d="M 285.26 432.35 284.91 438.03 283.77 442.97 282.25 447.91 283.01 452.48 287.57 455.52 293.66 456.66 295.56 459.7 298.22 466.55 298.6 470.73 298.98 473.77 303.17 476.44 307.73 479.48 307.35 482.9 307.73 487.47 310.39 490.51 312.67 494.31 312.67 498.87 312.67 504.96 310.77 509.14 309.63 512.95 310.68 520.9 304.34 520.88 300.63 521.43 297.26 522.93 289.74 528.23 281.86 531.77 274.98 536.73 274.6 536.99 241.89 551.99 237.43 552.91 215.08 551.62 215.05 551.59 214.48 550.85 210.46 545.03 209.21 542.24 206.86 538.89 205 535.07 204.62 531.66 204.73 530.88 204.73 530.88 206.78 532.49 207.87 533.68 209.38 533.94 217.68 534.07 218.48 534.64 220.15 536.37 220.78 536.73 221.92 536.58 225.24 535.77 226.73 534.87 228.17 533.16 230 532.13 232.71 533.28 233.42 532.68 234.24 532.29 235.08 532.27 236.85 533.53 237.61 533.41 238.27 533.09 238.99 533.28 240 534.42 240.87 536.62 241.57 537.62 242.41 538.37 243.33 538.92 244.5 539.26 246.08 539.3 247.55 539 253.47 536.61 255.84 534.24 259.82 529.17 261.3 528.1 262.62 527.43 263.56 526.53 263.92 524.75 263.17 523.96 261.76 523.35 260.97 522.65 262.07 521.61 260.81 518.67 259.63 514.73 259.2 510.69 260.31 507.45 261.81 506.57 263.67 506.5 265.61 506.67 267.38 506.49 269.19 505.71 270.41 504.78 271.23 503.59 271.81 502.06 274.47 504.61 276.91 505.29 278.57 503.93 278.88 500.3 276.88 502.36 274.97 502.3 273.01 501.46 270.92 501.18 268.96 502.03 265.77 504.33 263.44 504.81 262.13 504.81 260.19 505.08 258.42 505.99 257.65 507.9 257.65 515.41 259.12 520.28 259.35 521.61 259.43 523.72 259.33 524.77 258.94 525.63 255.8 528.29 254.81 529.55 248.28 535.37 246.56 536.42 245.02 536.49 243.67 535.9 242.53 534.96 243.27 531.09 239.34 529.33 230.15 527.88 223.91 531.77 221.62 532.3 221.18 531.89 220.61 530.98 219.67 530.06 218.12 529.65 216.54 529.93 214.35 531.15 212.78 531.42 211.28 531.01 209.32 530.02 206.1 527.88 205.94 527.24 206.11 526.32 206.17 525.5 205.69 525.15 203.97 524.93 203.07 524.66 202.48 524.35 201.67 523.27 199.9 519.84 199.43 519.4 198.83 519.16 198.34 518.7 197.85 515.94 197.18 514.46 197.18 514.44 196.97 513.35 197.24 511.54 197.79 510.38 198.86 502.34 199.17 501.56 199.84 500.72 201.21 499.42 201.56 498.73 201.79 497.87 201.99 495.2 202.4 493.88 201.8 491.65 201.61 490.3 201.75 488.81 207.58 479.68 212.8 469.09 212.83 468.15 212.07 467.22 211.18 466.81 210.23 466.5 209.4 466.05 209.25 464.96 209.89 463.42 212.11 460.98 213.33 458.94 216.79 458.97 221.64 459.01 222.51 458.39 222.75 449.16 222.8 447.13 223.02 437.95 223.54 436.12 225.04 435.31 234.07 434.46 239.89 432.64 241.52 432.6 250.26 433.44 252.38 433.23 256.28 431.95 259.27 430.36 262.3 429.24 266.35 429.41 280.48 432.36 285.26 432.35 Z" id="SEN-5514" data-name="Sédhiou"/>
<path d="M 731.33 429.81 731.64 431.24 732.78 431.54 736.21 433.19 737.21 433.91 737.71 434.87 738.51 437.37 739.1 438.27 740.64 439.52 741.36 439.59 742.07 438.86 747.51 434.85 747.85 432.34 748.62 429.69 749.92 427.53 751.9 426.49 753.76 426.75 754.68 427.78 755.43 429.05 756.73 430.05 757.96 430.2 760.49 429.68 763.75 429.56 764.34 430.13 764.17 431.97 764.51 433.26 765.94 433.42 767.57 433.01 768.5 432.58 768.52 435.4 769.45 437.92 772.64 442.26 775.58 444.8 776.13 446.05 775.93 447.47 774.28 449.81 773.79 451.2 774.18 453.52 775.42 455.12 776.96 456.5 778.17 458.22 778.23 462.75 778.88 464.85 781.17 465.37 782.96 466.43 784.5 467.57 786.13 468.54 788.24 469.08 789.61 469.61 789.46 470.52 788.74 471.5 788.48 472.25 790.27 474.77 791 476.36 791.5 477.17 792.02 477.59 793.14 478.12 792.94 478.66 792.22 479.21 791.79 479.73 791.77 480.85 791.46 483.37 791.11 484.66 793.13 485.04 794.63 484.43 795.57 482.95 795.89 480.7 796.97 481.82 797.57 483.15 797.86 484.64 798.14 488 797.7 488.78 796.87 489.27 795.75 490.17 795.18 490.18 794.36 489.74 793.44 489.44 792.59 489.88 792.5 490.68 793.13 491.38 793.88 492.04 794.16 492.73 793.62 494.04 792.89 495.38 792.41 496.73 792.82 498.83 792.62 499.39 792.23 499.93 791.91 500.65 791.96 501.45 792.47 501.75 793.08 501.83 793.4 501.94 793.57 502.06 794.04 502.65 794.61 503.58 795.02 504.67 795.3 505.99 795.42 507.54 795.14 508.95 794.23 509.89 794.23 510.47 795.6 512.87 795.84 514.1 794.78 515.77 792.99 516.09 791.28 516.62 789.91 520.03 788.9 520.72 788.1 521.69 788.22 523.6 788.71 523.92 789.7 524.28 790.71 524.98 791.35 526.31 791.37 527.66 790.7 531.75 790.82 533.13 791.12 534.02 791.28 534.96 790.96 536.45 788.27 537.67 787.34 538.49 788.77 538.98 789.71 539.57 791.21 542.14 792.26 543.05 792.18 542.09 792.91 540.71 793.92 540.33 794.71 542.4 795 543.49 795.81 545.61 796.05 546.78 797.08 545.18 797.36 544.45 799 546.69 798.74 549.72 797.86 553.14 797.62 556.58 794.04 556.44 785.54 553.43 781.17 552.99 770 553.82 764.62 554.8 754.65 558.45 749.76 559.25 739.15 558.81 736.49 558.24 728.66 555.01 728.48 554.79 728.23 554.65 727.33 554.66 726.77 554.88 725.33 555.86 720.41 558.51 718.68 558.85 715.93 558.58 708.11 556.03 704.9 556.13 702.57 557.25 698.28 561.1 693.49 563.73 671.6 569.32 669.5 568.27 665.82 562.73 663.51 561.09 657.89 559.1 655.17 558.45 652.92 558.35 650.74 558.78 648.21 559.75 644.43 561.79 643.46 562.07 643.29 562.12 641.44 562.07 640.97 561.56 640.87 560.66 640.18 559.43 636.53 555.44 634.4 553.75 631.87 552.72 629.21 552.42 620.84 552.89 618.17 552.54 617.41 551.48 616.85 550.21 614.78 549.23 610.94 548.95 609.7 548.49 608.34 547.26 608.06 546.16 608.27 545.28 608.33 544.78 605.11 542 600.05 539.42 595.33 539.47 593.16 544.64 592.74 547.13 591.25 548.41 589.12 548.55 586.81 547.67 584.3 547.94 582.05 547.72 580.14 546.7 578.65 544.62 578.07 542.1 578.54 539.96 580.47 535.55 580.96 533.33 581.1 530.72 580.54 528.28 578.88 526.51 576.91 526.22 574.67 526.58 572.29 526.66 569.96 525.48 568.74 526.92 567.72 526.23 566.86 526.15 565.95 526.28 564.79 526.27 563.15 526.76 562.63 526.84 562.04 526.55 560.8 525.24 560.08 524.9 559.1 524.97 556.91 525.58 555.79 525.75 554.66 525.57 553.06 524.55 551.97 524.26 550.83 524.34 546.95 525.14 546.32 525.35 546.02 525.72 545.67 526.03 544.91 526.09 544.28 525.86 543.17 525.08 542.57 524.83 542.17 524.72 542.17 524.71 542.58 522.7 541.54 520.19 539.83 519.43 539.05 519.55 538.42 519.85 537.43 520.22 536.05 520.52 533.07 520.51 531.4 520.23 530.02 519.73 528.35 518.91 527.36 518.17 526.49 517.06 526.25 516.28 526.38 515.61 527.02 514.5 527.24 513.82 527.53 509.05 527.38 508.26 527.02 507.46 526.67 506.32 525.78 505.37 525.5 504.46 525.41 503.69 525.62 503.02 525.89 502.41 526.63 501.3 526.94 500.74 527 500 526.61 499.48 525.99 498.97 525.89 498.58 526.37 498.46 527.02 498.53 527.79 498.48 528.32 498.22 528.52 497.38 528 496.43 527.49 493.35 526.93 492.86 525.17 491.68 523.94 490.33 523.5 489.28 523.09 487.22 522.43 486.35 522.21 485.63 522.39 485.1 522.78 484.55 523.06 483.83 522.48 479.81 522.27 479.37 521.69 479.04 520.89 478.88 520.03 478.51 519.75 477.99 519.92 477.43 520.27 476.87 520.48 476.07 520.2 475.57 519.28 474.66 518.34 473.45 516.91 471.98 514.89 470.74 514.62 470.12 514.61 469.36 514.69 468.56 514.67 467.68 514.19 467.21 513.54 466.88 512.78 466.26 511.04 464.37 510.13 462.44 509.91 461.25 509.8 459.13 509.21 458.11 509.16 457.31 509.24 456.57 509.45 455.8 509.42 453.77 509.54 452.8 509.41 450.04 509.1 449.15 508.67 448.57 508.08 448.22 508.03 447.05 511.03 445.67 511.11 438.74 513.34 437.24 512.91 439.4 513.68 440.35 515.19 440.78 516.47 440.54 517.23 438.99 517.85 438.21 519.78 437.28 522.37 436.58 524.02 437.12 523.16 439.89 524.81 439.26 525.91 436.18 527.1 435.48 532.4 435.48 537.38 436.43 539.01 435.74 540.34 434.98 541.54 435.15 542.7 437.24 541.45 439.34 540.44 440.45 539.87 441.52 539.96 443.52 540.47 444.57 540.78 445.51 540.92 446.61 541.34 447.1 542.32 447.05 543.1 447.01 543.5 447.45 543.87 448.25 544.71 448.8 545.62 449.24 546.23 449.71 546.31 450.34 545.84 451.55 546.64 452.8 547.16 454.58 546.57 456.37 546.35 458.02 548 459.43 542.7 461.29 542.7 462.09 545.41 463.25 545.88 466.45 545.64 470.37 546.23 473.67 548.73 476.51 551.27 477.15 556.93 475.53 560.63 474.15 562.53 474.15 566.34 474.53 569.76 475.68 572.04 477.58 574.32 477.58 575.46 475.68 576.61 474.53 579.27 474.53 582.31 473.01 584.59 471.87 591.82 471.87 594.48 473.01 596.76 475.3 598.66 475.3 601.71 478.34 605.13 480.62 607.79 481.38 608.93 479.48 608.93 477.96 610.07 476.82 612.35 476.82 614.26 476.06 614.64 473.77 615.78 472.63 618.44 473.01 620.34 473.77 622.24 473.39 622.24 471.11 623.38 468.83 626.43 466.93 628.33 464.65 627.57 461.6 627.57 458.56 629.47 457.04 632.13 456.66 634.79 456.66 637.07 455.52 638.59 454.38 640.5 455.52 642.4 456.66 645.44 457.04 649.62 455.9 651.91 454.38 653.43 451.72 653.81 449.05 655.33 447.15 657.99 446.77 658.75 444.87 660.65 443.35 664.08 442.59 667.12 443.35 669.02 445.63 670.54 446.77 672.06 446.39 672.82 444.11 673.96 442.59 674.72 439.55 676.25 438.79 680.43 439.55 683.85 439.55 685.75 437.26 684.99 434.22 681.19 429.66 680.43 427.38 682.33 425.48 682.33 422.43 685.37 421.29 689.18 423.57 692.6 426.24 696.4 428.14 700.2 430.42 704.77 431.56 708.19 432.7 708.95 435.36 709.71 438.41 712.37 438.41 715.8 436.12 719.22 432.32 723.78 431.18 731.33 429.81 Z" id="SEN-5515" data-name="Kédougou"/>
<path d="M 347.41 267.13 349.81 269.15 353.27 270.75 374.35 276.82 376.39 277.62 377.25 278.47 377.47 280.09 377.42 281.57 377.18 283.55 377.09 307.95 380.04 316.37 381.67 318.75 382.37 321.04 382.94 330.89 384.12 336.65 384.38 339.18 384.38 341.36 383.22 346.7 382.67 347.68 382.14 348.41 380.91 349 379.76 349.44 379.23 349.71 379.06 349.93 378.54 352.22 378.64 354.52 378.37 356.08 378.11 357.04 377.73 357.65 370.12 364.79 367.05 367.13 366.47 367.46 360.5 368.94 359.22 369.51 358.46 369.63 356.79 369.7 355.26 369.98 353.91 370.49 352.12 372.35 350.59 374.47 348.24 378.43 347.73 380.13 345.27 378.19 340.54 376.65 327.45 376.08 319.74 373.22 316.96 373.08 307.52 376.48 297.75 382.57 294.99 383.21 293.9 382.4 291.38 379.15 290.17 378.02 284.56 377.14 278.56 379.36 271.98 376.36 268.22 376.36 263.04 375.89 254.11 372.13 251.29 376.36 248.94 380.12 246.59 381.06 243.3 379.65 239.54 375.89 237.66 372.13 237.66 368.84 239.07 365.55 238.6 362.26 232.95 358.97 228.25 354.26 226.84 351.44 226.37 348.15 224.49 345.8 218.85 344.86 218.85 338.28 218.85 329.82 220.26 325.11 223.55 318.06 225.9 312.42 226.09 299.88 229.51 297.3 232.52 293.69 237.64 287.97 240.95 287.67 243.96 286.17 249.97 281.35 252.68 279.25 255.69 278.65 262.01 277.74 268.93 276.54 273.74 275.34 277.65 271.12 280.43 259.27 290.79 265.34 297.3 267.74 317.08 271.59 321.48 272.01 324.52 271.32 327.02 270.37 338.49 263.51 340.7 262.49 342.85 262.01 344.45 263.23 347.41 267.13 Z" id="SEN-5516" data-name="Kaffrine"/>
<path d="M 336.24 3.7 337.23 5.58 338.57 7.22 340.96 7.58 344.91 6.67 367.05 8.21 368.54 8.03 372.92 6.93 374.2 6.89 375.34 7.2 378.99 8.87 380.41 9.11 381.85 9.06 387.27 7.58 388.66 7.55 393.91 8.61 395.31 8.63 396.7 8.48 398.05 8.12 399.33 7.56 402.73 5.59 403.97 5.12 406.51 4.96 414.73 8.09 415.73 8.75 416.27 9.72 416.22 11.14 415.53 13.6 415.76 14.59 416.97 15.12 421.93 14.69 423.19 15.27 423.63 16.27 423.8 18.59 424.47 19.6 425.82 20.21 428.93 20.41 430.4 20.67 431.46 21.27 433.65 24.06 434.58 24.88 437.65 26.98 442.05 31.94 449.74 38.67 454.05 41.08 454.92 41.86 457.19 44.48 458.34 45.2 460.89 46.16 462.08 46.8 462.85 47.67 462.94 48.58 462.13 50.57 461.89 51.67 462.15 52.51 463.43 54.13 464 55.29 464.04 56.39 463.38 58.71 463.86 60.78 466.07 61.94 471.15 63.38 472.22 63.99 474.26 65.49 475.12 66.38 475.76 67.43 476.85 70.92 477.47 72.16 478.29 73.29 479.31 74.26 480.49 74.97 481.58 75.24 482.64 75.14 483.66 74.77 485.78 73.59 487.87 72.03 488.75 71.1 491.05 67.87 492.03 66.96 493.13 66.34 494.27 66.03 495.47 65.97 496.71 66.12 496.45 67.78 495.71 69.95 495.13 71.66 495.55 73.02 490.13 83.92 476.97 89.09 475.09 93.8 460.51 106.49 439.82 122.95 420.55 137.52 415.38 133.76 405.5 129.06 394.69 123.42 389.05 115.89 382.46 106.49 367.89 96.62 361.09 97.06 350.68 91.68 348.48 90.93 274.33 90.78 273.39 99.44 253.02 100.8 251.62 99.93 224.98 70.46 222.27 68.03 220.64 67.03 219.82 68 219.35 68.45 217.19 69.97 214.72 71.2 214.16 71.57 213.75 72.06 213.25 73.34 211.89 75.58 210.98 76.61 210.16 77.2 185.71 90.54 185.68 90.58 185.01 90.95 180.5 94.57 179.62 95.51 179.27 96.05 178.96 96.64 178.6 97.96 178.26 98.61 177.58 99.1 172 101.92 170.7 102.97 169.85 104.53 168.22 108.82 167.67 109.72 166.68 110.74 164.86 111.03 162.85 111.13 160.64 111.47 158.82 112.15 156.01 114.11 153.57 114.89 151.1 115.33 130.12 115.78 129.98 115.78 129.95 115.78 129.76 115.36 129.76 115.36 132.69 110.5 133.97 103.35 134.28 89.24 135.05 87.76 136.83 82.03 139.08 76.81 139.66 68.04 140.6 65.43 142.48 63.86 147.27 62.75 149.29 61.47 150.11 60.15 150.66 58.63 155.96 36.7 156.64 31.53 157.62 29.1 159.41 26.67 161.8 24.42 164.56 22.8 167.52 22.22 171.8 23.01 173.25 23.11 174.73 22.86 176.05 22.26 179.86 19.64 181.34 18.97 182.9 18.71 184.54 19.01 185.73 19.72 186.69 20.67 188.25 22.92 190.45 25.17 193.08 26.39 196 26.72 199.1 26.3 200.02 25.66 200.94 25.2 201.91 25.04 202.99 25.29 204.66 25.93 205.48 26 206.43 25.82 211.57 23.61 213.4 23.41 217.93 24.47 219.02 24.47 222.21 23.91 224.28 24.02 230.14 25.87 234.35 26.1 235.44 26.41 238.5 27.82 240.53 28.32 242.52 28.21 244.44 27.59 246.22 26.49 249.09 23.96 250.62 23.04 252.6 22.74 258.16 23.84 260.08 23.66 261.62 22.92 262.86 21.79 266.01 17.44 267.62 16.06 269.5 15.24 271.46 15.41 272.68 16.38 273.42 17.7 274.31 18.91 275.91 19.58 277.82 19.54 279.64 19.09 285.1 16.9 287.12 16.48 291.28 16.33 297.41 17.27 299.5 17.2 313.42 15.08 316.15 14.09 316.99 13.56 317.55 12.82 317.59 11.85 317.17 11.03 315.07 9.06 314.3 7.32 314.56 5.65 315.69 4.37 317.53 3.88 319.4 4.42 320.57 5.68 321.59 7.17 322.94 8.41 323.88 8.71 324.84 8.62 325.76 8.25 326.56 7.66 327.2 6.87 327.48 6.03 327.89 4.21 328.73 3.02 330.06 2.16 332.96 1 334.43 1.72 336.12 3.47 336.24 3.7 Z" id="SEN-5517" data-name="Saint-Louis"/>
<path d="M 51.23 270.3 47.37 265.12 43.65 261.78 41.42 260.29 38.87 259.14 36.06 258.68 33.96 258.11 28.47 255.3 27.63 254.34 23.35 254.39 19.62 253.95 16.38 254.16 13.47 256.19 14.56 257.43 16.12 257.89 15.15 259.77 13.47 260.54 13.91 260.95 14.71 261.89 15.15 262.3 14.35 264.16 13.91 264.29 13.47 265.04 11.77 263.96 3.06 253.47 1 251.61 22.39 246.05 28.72 241.03 46.88 233.51 46.88 233.51 47.04 233.7 49.72 239.51 50.47 241.86 50.58 242.57 50.64 245.63 51.08 246.8 53.1 250.16 53.52 251.32 53.68 252.53 51.25 270.2 51.23 270.27 51.23 270.3 Z" id="SEN-759" data-name="Dakar"/>
<path d="M 182.88 224.19 187.05 220.65 190.05 219.93 221.83 219.74 223.79 220.09 223.74 221.26 223.86 222.94 224.01 223.73 224.25 224.42 224.63 224.97 225.13 225.36 225.67 225.64 226.58 226 227.05 226.29 227.41 226.76 228.18 228.72 228.54 229.24 229.01 229.69 229.57 230.05 232.83 231.43 235.02 232.91 235.42 233.39 235.74 233.97 235.9 234.69 236.01 236.4 236.62 238.1 238.93 239.89 242.27 238.88 249.12 238.65 252.72 238.97 253.3 239.26 254.56 240.14 255.57 240.72 257.51 241.39 258.71 241.56 267.3 240.78 268.97 240.9 270.1 241.18 270.56 241.68 270.93 242.33 271.58 250.12 272.4 252.94 275.75 256.52 280.43 259.27 277.65 271.12 273.74 275.34 271.94 270.82 268.93 268.42 251.78 261.8 247.57 259.99 244.56 256.98 242.15 256.68 238.54 257.89 235.83 258.19 229.4 253.64 228.87 254.03 227.2 254.81 226.53 255.25 226.05 255.78 225.74 256.4 225.51 257.08 224.91 268.08 224.53 269.58 224.24 270.21 223.89 270.77 216.87 277.53 216.33 277.89 213.1 279.37 208.73 280.4 197.87 281.54 196.06 281.56 181.93 279.1 180.05 278.56 178.81 278.02 177.41 276.61 175.73 275.51 174.5 274.92 170.17 273.55 165.9 273.07 164.51 273.14 157.76 274.55 156.84 274.53 155.9 274.37 154.8 273.76 154.09 273.24 153.07 272.32 152.48 271.89 151.22 271.64 140.18 271.06 134.43 271.57 132.76 272.11 131.2 274.52 128.46 273.69 121.95 270.86 120.39 269.91 119.97 269.45 119.64 268.84 119.52 268.14 119.52 267.38 120.1 266.46 120.99 265.31 122.9 263.3 123.59 262.03 123.92 260.92 123.79 260.13 123.58 259.41 123.27 258.8 122.83 258.32 122.3 257.95 121.06 257.38 120.53 257.01 120.12 256.57 119.9 255.97 119.96 254.85 120.12 253.81 120.57 252.41 120.65 251.84 120.57 251.24 120.27 250.71 119.84 250.26 119.32 249.85 118.76 249.49 117.49 248.99 117.01 248.58 116.75 247.93 116.55 247.19 116.31 245.66 116.4 244.95 116.74 243.59 116.78 240.32 116.64 239.54 116.42 238.87 116.04 238.34 115.49 237.98 114.86 237.74 113.66 237.42 113.15 237.1 112.41 236.42 112.14 236.04 112.05 235.44 112.65 232.55 113.42 230.54 114.61 228.65 117.05 227.38 148.28 218.67 148.79 218.9 149.15 219.19 149.46 219.49 150.98 220.37 152.13 220.8 153.07 220.95 154.21 220.97 156.09 220.72 157.08 220.47 157.65 220.25 157.79 220.17 157.83 220.14 157.91 220.1 158.13 220.04 158.64 220.04 159.28 220.21 163.64 223.62 164.2 223.97 166.33 224.78 167.19 225.23 167.64 225.84 167.9 226.53 167.94 227.27 168.06 227.98 168.33 228.61 168.69 229.13 169.21 229.53 169.91 229.84 170.72 230.08 171.84 230.23 173.58 230.12 175.07 229.72 181.29 226.57 182.38 225.82 182.88 224.19 Z" id="SEN-763" data-name="Diourbel"/>
<path d="M 162.28 329.98 166.01 332.32 167.8 333.78 168.71 334.83 169.54 336.22 170.08 339.05 170.21 340.69 170.03 342.11 169.61 343.13 168.25 345.03 167.82 346.02 167.9 347.08 170.55 350.39 172.15 351.81 172.96 353.12 174.46 361.99 174.49 362.98 174.36 363.96 173.95 364.98 173.31 365.96 171.83 367.84 169.96 369.42 169.21 370.24 168.92 371.11 168.78 372.02 168.69 373.92 168.85 375.02 169.29 376.14 170.58 377.43 174.7 380.78 176.74 381.97 177.69 382.68 178.5 383.72 179.04 385.42 179.64 389.67 180.1 391.54 180.81 392.76 181.91 394.06 186.08 397.78 187.83 400.06 188.56 402.59 188.96 403.48 188.98 403.51 183.7 403.5 175.65 403.46 167.61 403.44 159.55 403.4 151.5 403.38 143.46 403.34 135.41 403.32 127.3 403.28 127.28 403.26 126.01 401.36 125.35 400 125.44 396.36 127.65 394.34 130.91 392.7 134.19 390.19 133.5 389.81 132.17 388.84 131.46 388.5 133.1 386.97 134.32 384.99 134.1 383.42 131.46 383.11 131.81 385.18 131.17 387.69 129.8 389.45 127.92 389.31 127 392.03 124.98 393.87 122.44 394.56 119.96 393.81 117.68 391.47 117.11 389.09 118.19 383.99 118.44 380.79 118.78 379.5 119.96 377.8 124.56 372.47 125.35 370.64 126.11 371.12 128.14 372.05 128.88 372.49 128.59 371.9 127.92 369.76 132.42 368.96 132.64 371.52 133.58 373.95 135.05 375.41 136.93 375.07 135.95 372.11 135.73 368.84 135.17 366.25 133.22 365.33 133.91 363.58 136.72 351.52 136.93 349.41 134.1 353.46 132.91 355.99 131.89 361.36 130.56 364.56 128.85 366.69 127.11 366.22 126.15 366.22 124.86 367.96 122.57 368.63 119.88 368.98 117.38 369.76 115.99 370.9 115.52 371.97 115.31 373.07 114.65 374.26 113.94 374.9 112.45 375.73 111.6 376.44 110.31 378.82 109.33 379.68 108.01 379.09 107.6 377.83 107.59 376.23 107.35 374.85 106.16 374.26 104.51 373.13 103.84 370.56 104.01 367.84 104.91 366.22 104.12 364.45 103.58 362.43 103.14 358.26 103.27 356.06 103.71 354.8 104.51 353.94 107.49 351.62 109.01 351.05 110.67 350.98 114.48 351.41 116.29 351.96 117.53 353 117.38 354.72 119.19 353.13 120.62 351.22 122.43 350.17 125.35 351.19 125.3 348.33 126.32 347.06 127.96 346.27 129.76 344.92 128.15 345.46 126.4 345.82 124.76 345.51 123.5 344.1 129.35 340.56 131.46 338.72 134.82 334.69 136.66 333.14 140.82 331.96 142.84 329.47 144.41 328.9 145.49 329.39 146.53 330.34 147.6 330.91 148.87 330.27 149.66 329.69 151.76 328.71 151.8 328.68 151.82 328.68 160.14 328.87 160.85 329.02 161.56 329.42 162.28 329.98 Z M 229.4 253.64 235.83 258.19 238.54 257.89 242.15 256.68 244.56 256.98 247.57 259.99 251.78 261.8 268.93 268.42 271.94 270.82 273.74 275.34 268.93 276.54 262.01 277.74 255.69 278.65 252.68 279.25 249.97 281.35 243.96 286.17 240.95 287.67 237.64 287.97 232.52 293.69 229.51 297.3 226.09 299.88 221.99 302.41 212.36 302.11 206.05 301.81 203.34 303.02 200.93 305.42 198.22 306.33 187.22 304.5 186.54 303.93 186.51 303.27 185.39 303.17 178.71 303.74 170.9 305.39 166.73 305.75 165.45 306.38 163.98 307.56 160.42 311.68 153.94 321.13 152.64 325.49 150.78 327.93 150.77 327.94 144.62 327.71 141.12 326.41 141.35 323.6 139.3 324.64 138.54 326.51 138.94 328.47 140.39 329.78 138.78 330.66 137.45 330.56 136.15 330.08 134.64 329.78 133.55 330.18 133.08 331.17 132.82 332.36 132.42 333.41 129.1 339.15 127.92 340.49 126.6 341.08 123.79 341.73 122.25 342.73 121.11 344.16 119.5 347.17 118.19 348.45 115.28 349.4 112.52 348.86 109.72 347.91 106.61 347.64 109.65 342.31 109.74 341.37 111.93 340.76 115.52 336.86 113.79 337.36 112.11 339.89 110.67 340.49 107.81 340.57 106.68 340.82 105.72 341.37 107.25 343.1 107.12 344.26 104.91 346.76 104.53 347.75 104.2 349.61 103.54 350.7 100.97 353.56 100.41 354.72 99.82 358.36 100.41 370.64 99.61 370.64 98.84 345.77 98.19 342.02 96.05 335.78 94.92 333.57 94.93 333.55 95.95 332.51 99.59 331.34 100.21 330.71 100.34 330.04 100.02 329.52 99.57 328.95 99.22 328.32 99.19 327.24 99.56 326.63 102.9 323.88 103.44 322.87 103.47 322.09 103.06 321.58 102.49 321.17 102.03 320.76 101.65 320.2 103.47 312.75 109.99 294.47 110.44 294.23 111.07 294.07 115.33 293.76 116.08 293.62 116.72 293.31 117.23 292.9 117.71 292.44 118.97 290.91 119.98 290.12 120.59 289.84 121.96 289.41 123.1 288.72 125.24 286.53 128.64 282.19 129.31 281.09 130.22 278.43 131.2 274.52 132.76 272.11 134.43 271.57 140.18 271.06 151.22 271.64 152.48 271.89 153.07 272.32 154.09 273.24 154.8 273.76 155.9 274.37 156.84 274.53 157.76 274.55 164.51 273.14 165.9 273.07 170.17 273.55 174.5 274.92 175.73 275.51 177.41 276.61 178.81 278.02 180.05 278.56 181.93 279.1 196.06 281.56 197.87 281.54 208.73 280.4 213.1 279.37 216.33 277.89 216.87 277.53 223.89 270.77 224.24 270.21 224.53 269.58 224.91 268.08 225.51 257.08 225.74 256.4 226.05 255.78 226.53 255.25 227.2 254.81 228.87 254.03 229.4 253.64 Z" fill-rule="evenodd" id="SEN-764" data-name="Fatick"/>
<path d="M 278.56 379.36 273.08 383.29 269.05 387.56 267.61 389.76 266.27 392.47 265.25 395.32 265.09 396.21 264.77 397.96 264.51 403.11 262.48 403.78 256.13 403.76 248.09 403.72 240.04 403.7 231.99 403.66 223.94 403.64 215.89 403.6 207.85 403.58 199.79 403.54 191.74 403.52 188.98 403.51 188.96 403.48 188.56 402.59 187.83 400.06 186.08 397.78 181.91 394.06 180.81 392.76 180.1 391.54 179.64 389.67 179.04 385.42 178.5 383.72 177.69 382.68 176.74 381.97 174.7 380.78 170.58 377.43 169.29 376.14 168.85 375.02 168.69 373.92 168.78 372.02 168.92 371.11 169.21 370.24 169.96 369.42 171.83 367.84 173.31 365.96 173.95 364.98 174.36 363.96 174.49 362.98 174.46 361.99 172.96 353.12 172.15 351.81 170.55 350.39 167.9 347.08 167.82 346.02 168.25 345.03 169.61 343.13 170.03 342.11 170.21 340.69 170.08 339.05 169.54 336.22 168.71 334.83 167.8 333.78 166.01 332.32 162.28 329.98 161.56 329.42 160.85 329.02 160.14 328.87 151.82 328.68 151.8 328.68 152.78 328.01 150.77 327.94 150.78 327.93 152.64 325.49 153.94 321.13 160.42 311.68 163.98 307.56 165.45 306.38 166.73 305.75 170.9 305.39 178.71 303.74 185.39 303.17 186.51 303.27 186.54 303.93 187.22 304.5 198.22 306.33 200.93 305.42 203.34 303.02 206.05 301.81 212.36 302.11 221.99 302.41 226.09 299.88 225.9 312.42 223.55 318.06 220.26 325.11 218.85 329.82 218.85 338.28 218.85 344.86 224.49 345.8 226.37 348.15 226.84 351.44 228.25 354.26 232.95 358.97 238.6 362.26 239.07 365.55 237.66 368.84 237.66 372.13 239.54 375.89 243.3 379.65 246.59 381.06 248.94 380.12 251.29 376.36 254.11 372.13 263.04 375.89 268.22 376.36 271.98 376.36 278.56 379.36 Z" id="SEN-765" data-name="Kaolack"/>
<path d="M 389.05 115.89 378.7 125.3 373.53 128.59 366.95 130.94 363.19 132.35 362.25 155.86 357.55 162.91 379.17 173.72 389.99 172.31 385.76 190.18 383.41 204.28 388.98 206.95 378.7 209.93 364.13 211.81 355.2 215.1 358.96 227.79 364.6 240.02 359.9 249.42 354.26 253.18 352.37 263.52 347.41 267.13 344.45 263.23 342.85 262.01 340.7 262.49 338.49 263.51 327.02 270.37 324.52 271.32 321.48 272.01 317.08 271.59 297.3 267.74 290.79 265.34 280.43 259.27 275.75 256.52 272.4 252.94 271.58 250.12 270.93 242.33 270.56 241.68 270.1 241.18 268.97 240.9 267.3 240.78 258.71 241.56 257.51 241.39 255.57 240.72 254.56 240.14 253.3 239.26 252.72 238.97 249.12 238.65 242.27 238.88 238.93 239.89 236.62 238.1 236.01 236.4 235.9 234.69 235.74 233.97 235.42 233.39 235.02 232.91 232.83 231.43 229.57 230.05 229.01 229.69 228.54 229.24 228.18 228.72 227.41 226.76 227.05 226.29 226.58 226 225.67 225.64 225.13 225.36 224.63 224.97 224.25 224.42 224.01 223.73 223.86 222.94 223.74 221.26 223.79 220.09 221.83 219.74 190.05 219.93 187.05 220.65 182.88 224.19 180.05 222.76 177.13 221.66 176.51 221.34 175.83 220.82 175.14 220.16 174.26 218.85 173.84 217.9 173.56 216.98 173.11 214.65 172.88 213.94 172.58 213.29 171.9 212.23 168.1 207.78 167.4 206.66 166.16 203.48 165.85 202.21 165.71 201.13 165.79 200 165.93 199.46 166.22 196.15 165.86 194.39 165.31 193.06 164.83 192.21 164.47 191.7 163.32 189.23 162.94 188.76 162.42 188.5 161.7 188.76 160.57 189.57 160.05 189.87 159.41 189.94 158.83 189.64 158.36 188.89 157.95 187.23 157.22 181.04 157.04 180.37 156.77 179.82 156.21 179.34 155.51 178.99 154.26 178.88 153.53 178.95 151.56 179.43 150.03 179.55 143.92 178.05 142.94 178.07 142.14 178.27 141.55 178.63 141.06 179.06 140.65 179.54 139.56 181.14 138.29 182.58 136.81 184.67 135.95 185.58 133.95 188.14 133.2 190.08 132.83 191.5 132.34 192.78 131.66 193.85 125.8 199.81 125.13 200.91 123.45 202.83 122.97 203.25 122.42 203.59 121.75 203.67 121.09 203.55 120.45 203.18 119.9 202.51 119.28 201.39 119.13 199.28 119.31 198.73 119.48 198.32 119.78 197.83 119.96 197.29 120.06 196.73 119.9 196.02 119.54 195.37 118.65 194.36 117.9 193.83 115.82 192.88 114.7 192.18 114.21 191.79 113.74 191.34 112.18 189.28 111.35 187.63 110.97 187.04 110.51 186.52 109.75 186.03 108.22 185.36 107.15 185.09 106.4 183.68 106.05 181.2 106.69 175.73 107.64 172.71 109.95 168.23 110.57 165.72 110.58 164.85 110.51 164.15 109.87 162.64 109.3 161.71 105.39 158.69 104.76 158.32 104.76 158.32 113.27 147.37 130.21 119.83 130.81 118.53 130.59 117.2 129.95 115.78 129.98 115.78 130.12 115.78 151.1 115.33 153.57 114.89 156.01 114.11 158.82 112.15 160.64 111.47 162.85 111.13 164.86 111.03 166.68 110.74 167.67 109.72 168.22 108.82 169.85 104.53 170.7 102.97 172 101.92 177.58 99.1 178.26 98.61 178.6 97.96 178.96 96.64 179.27 96.05 179.62 95.51 180.5 94.57 185.01 90.95 185.68 90.58 185.71 90.54 210.16 77.2 210.98 76.61 211.89 75.58 213.25 73.34 213.75 72.06 214.16 71.57 214.72 71.2 217.19 69.97 219.35 68.45 219.82 68 220.64 67.03 222.27 68.03 224.98 70.46 251.62 99.93 253.02 100.8 273.39 99.44 274.33 90.78 348.48 90.93 350.68 91.68 361.09 97.06 367.89 96.62 382.46 106.49 389.05 115.89 Z" id="SEN-766" data-name="Louga"/>
<path d="M 621.62 203.18 625.45 206.77 628.92 208.2 629.01 208.19 629.29 209.15 642.91 226.72 643.82 228.8 644.45 231.81 644.41 232.77 644.17 233.95 634.29 258.23 623.68 273.98 622.06 275.72 620.48 276.47 600.99 278.9 595.42 278.97 560.42 272.71 559.04 273.14 558.01 273.67 523.98 297.45 522.55 298.12 487.08 298.67 480.71 297.69 424.29 276.86 422.16 275.68 419.79 273.92 418.65 271.49 413 266.35 407.65 268.01 405.7 269 403.34 270.98 399.48 275.44 393.28 279.75 377.18 283.55 377.42 281.57 377.47 280.09 377.25 278.47 376.39 277.62 374.35 276.82 353.27 270.75 349.81 269.15 347.41 267.13 352.37 263.52 354.26 253.18 359.9 249.42 364.6 240.02 358.96 227.79 355.2 215.1 364.13 211.81 378.7 209.93 388.98 206.95 383.41 204.28 385.76 190.18 389.99 172.31 379.17 173.72 357.55 162.91 362.25 155.86 363.19 132.35 366.95 130.94 373.53 128.59 378.7 125.3 389.05 115.89 394.69 123.42 405.5 129.06 415.38 133.76 420.55 137.52 439.82 122.95 460.51 106.49 475.09 93.8 476.97 89.09 490.13 83.92 495.55 73.02 496.16 73.39 497.5 73.9 498.09 74.31 498.23 74.53 498.43 74.99 498.6 75.18 498.91 75.36 499.71 75.66 500.07 75.84 500.92 76.57 501.2 76.74 502.1 76.89 502.95 76.67 506.5 74.83 507.25 74.68 509.68 74.67 510.14 74.62 511.12 74.33 515.05 72.68 521.87 71.28 523.64 70.58 524.35 70.37 525.09 70.34 525.95 70.51 526.19 72.32 524.02 76.25 523.78 78.26 525.09 79.13 529.82 77.34 531.77 77.39 532.41 78.08 533.45 79.83 534.09 80.59 537.66 82.91 538.44 83.84 538.76 84.84 538.89 87.11 539.07 88.11 540.87 92.47 541.71 93.82 542.68 95.06 543.82 96.2 547.09 98.61 547.85 99.6 548.14 100.68 548.05 101.79 547.56 103.98 547.56 105.04 547.84 105.91 548.39 106.69 550.74 109.34 551.89 111.34 552.51 113.55 552.55 116.05 552.26 117.14 551.83 118.24 551.54 119.34 551.71 120.44 552.38 121.33 553.29 122.02 555.27 123.14 556.31 123.92 557.18 124.83 558.66 126.92 559.21 128 559.36 128.95 559.13 129.9 557.17 132.87 556.7 133.92 556.56 135.07 556.74 136.17 557.97 139.39 559.92 139.33 563.8 138.67 565.69 138.77 566.62 139.14 569.02 140.82 569.97 141.19 572.95 141.97 574.57 142.89 575.96 144.12 576.89 145.65 577.2 147.47 576.47 152.35 576.48 153.48 576.73 154.58 577.18 155.77 577.92 156.32 581.89 157.31 583.75 157.08 585.71 155.91 587.42 154.57 589.33 153.54 591.36 153.27 593.41 154.2 594.23 155.16 594.63 156.28 595.15 159.86 595.58 160.74 596.88 162.41 597.46 163.38 597.71 164.38 597.73 168.72 598.22 170.84 599.29 172.83 600.86 174.47 608.58 179.58 610.23 181.27 611.07 183.39 610.37 185.19 608.22 185.52 603.8 185.08 602.48 186.05 603.26 187.66 606.22 190.54 607.35 191.41 608.5 191.8 609.74 191.83 612.51 191.27 613.88 191.27 615.18 191.63 616.36 192.42 617.04 193.31 617.37 194.31 617.39 195.37 616.69 198.66 616.78 199.68 617.18 200.86 617.33 201.2 620.59 202.22 621.62 203.18 Z" id="SEN-767" data-name="Matam"/>
<path d="M 182.88 224.19 182.38 225.82 181.29 226.57 175.07 229.72 173.58 230.12 171.84 230.23 170.72 230.08 169.91 229.84 169.21 229.53 168.69 229.13 168.33 228.61 168.06 227.98 167.94 227.27 167.9 226.53 167.64 225.84 167.19 225.23 166.33 224.78 164.2 223.97 163.64 223.62 159.28 220.21 158.64 220.04 158.13 220.04 157.91 220.1 157.83 220.14 157.79 220.17 157.65 220.25 157.08 220.47 156.09 220.72 154.21 220.97 153.07 220.95 152.13 220.8 150.98 220.37 149.46 219.49 149.15 219.19 148.79 218.9 148.28 218.67 117.05 227.38 114.61 228.65 113.42 230.54 112.65 232.55 112.05 235.44 112.14 236.04 112.41 236.42 113.15 237.1 113.66 237.42 114.86 237.74 115.49 237.98 116.04 238.34 116.42 238.87 116.64 239.54 116.78 240.32 116.74 243.59 116.4 244.95 116.31 245.66 116.55 247.19 116.75 247.93 117.01 248.58 117.49 248.99 118.76 249.49 119.32 249.85 119.84 250.26 120.27 250.71 120.57 251.24 120.65 251.84 120.57 252.41 120.12 253.81 119.96 254.85 119.9 255.97 120.12 256.57 120.53 257.01 121.06 257.38 122.3 257.95 122.83 258.32 123.27 258.8 123.58 259.41 123.79 260.13 123.92 260.92 123.59 262.03 122.9 263.3 120.99 265.31 120.1 266.46 119.52 267.38 119.52 268.14 119.64 268.84 119.97 269.45 120.39 269.91 121.95 270.86 128.46 273.69 131.2 274.52 130.22 278.43 129.31 281.09 128.64 282.19 125.24 286.53 123.1 288.72 121.96 289.41 120.59 289.84 119.98 290.12 118.97 290.91 117.71 292.44 117.23 292.9 116.72 293.31 116.08 293.62 115.33 293.76 111.07 294.07 110.44 294.23 109.99 294.47 103.47 312.75 101.65 320.2 102.03 320.76 102.49 321.17 103.06 321.58 103.47 322.09 103.44 322.87 102.9 323.88 99.56 326.63 99.19 327.24 99.22 328.32 99.57 328.95 100.02 329.52 100.34 330.04 100.21 330.71 99.59 331.34 95.95 332.51 94.93 333.55 94.92 333.57 93.68 331.17 92.53 329.78 90.84 329.01 87.46 328.28 86.18 327.14 85.51 325.27 84.4 318.28 83.56 316.07 82.52 314.44 80.06 312.01 78.94 311.41 78.09 311.23 77.53 310.7 77.33 309 77.49 307.67 78.14 305.12 78.29 303.64 77.66 301.5 76.09 299.2 72.02 295.19 62.75 290.93 61.33 289.45 60.59 287.74 56.02 281.05 52.6 272.13 51.23 270.3 51.23 270.27 51.25 270.2 53.68 252.53 53.52 251.32 53.1 250.16 51.08 246.8 50.64 245.63 50.58 242.57 50.47 241.86 49.72 239.51 47.04 233.7 46.88 233.51 46.88 233.51 48.05 233.02 52.49 229.54 73.09 205.67 77.21 199.72 86.24 189.97 104.26 158.96 104.76 158.32 104.76 158.32 105.39 158.69 109.3 161.71 109.87 162.64 110.51 164.15 110.58 164.85 110.57 165.72 109.95 168.23 107.64 172.71 106.69 175.73 106.05 181.2 106.4 183.68 107.15 185.09 108.22 185.36 109.75 186.03 110.51 186.52 110.97 187.04 111.35 187.63 112.18 189.28 113.74 191.34 114.21 191.79 114.7 192.18 115.82 192.88 117.9 193.83 118.65 194.36 119.54 195.37 119.9 196.02 120.06 196.73 119.96 197.29 119.78 197.83 119.48 198.32 119.31 198.73 119.13 199.28 119.28 201.39 119.9 202.51 120.45 203.18 121.09 203.55 121.75 203.67 122.42 203.59 122.97 203.25 123.45 202.83 125.13 200.91 125.8 199.81 131.66 193.85 132.34 192.78 132.83 191.5 133.2 190.08 133.95 188.14 135.95 185.58 136.81 184.67 138.29 182.58 139.56 181.14 140.65 179.54 141.06 179.06 141.55 178.63 142.14 178.27 142.94 178.07 143.92 178.05 150.03 179.55 151.56 179.43 153.53 178.95 154.26 178.88 155.51 178.99 156.21 179.34 156.77 179.82 157.04 180.37 157.22 181.04 157.95 187.23 158.36 188.89 158.83 189.64 159.41 189.94 160.05 189.87 160.57 189.57 161.7 188.76 162.42 188.5 162.94 188.76 163.32 189.23 164.47 191.7 164.83 192.21 165.31 193.06 165.86 194.39 166.22 196.15 165.93 199.46 165.79 200 165.71 201.13 165.85 202.21 166.16 203.48 167.4 206.66 168.1 207.78 171.9 212.23 172.58 213.29 172.88 213.94 173.11 214.65 173.56 216.98 173.84 217.9 174.26 218.85 175.14 220.16 175.83 220.82 176.51 221.34 177.13 221.66 180.05 222.76 182.88 224.19 Z" id="SEN-768" data-name="Thiès"/>
<path d="M 387.66 437.47 388.86 438.56 390.58 439.52 392.46 440.05 396.54 440.21 398.26 440.69 399.71 442.16 400.7 443.46 401.93 444.54 403.3 445.46 408.02 447.85 411.41 448.79 414.92 449.06 422.29 448.43 429.32 449.72 433.07 449.59 435.9 448.22 442.13 443.63 444.07 442.77 446.31 442.8 451.88 440.83 457.1 440.77 462.3 439.4 472.09 438.58 478.51 435.83 482.2 430.33 482.7 423.7 479.59 417.57 478.28 416.51 475.34 414.82 474.43 414.06 476.13 413.31 477.31 412.82 478.74 412.69 479.47 412.54 479.93 412.13 480.21 411.51 480.42 410.85 480.78 410.29 481.29 409.93 481.93 409.78 483.28 409.97 484.74 409.93 485.33 410.15 485.68 410.62 485.57 411.44 485.09 412.72 485.09 413.96 485.02 414.36 484.93 414.58 484.41 415.22 484.06 415.76 483.81 416.39 483.82 417.13 484.14 417.87 485.02 418.54 485.81 418.66 486.49 418.49 487.61 417.8 488.3 417.57 489.03 417.42 489.8 417.45 490.51 417.59 492.47 418.33 493.81 418.68 494.23 418.93 494.35 419.25 494.09 419.92 493.7 420.45 491.33 422.72 490.99 423.26 490.71 423.85 490.55 424.53 490.52 425.27 490.56 426.04 490.53 426.83 490.35 427.54 490.02 428.11 489.65 428.63 489.23 429.11 488.88 429.63 488.75 430.19 489 430.8 489.8 431.25 490.61 431.49 491.46 431.6 492.27 431.61 493.1 431.54 496.25 430.97 497.96 430.9 498.67 431.12 499.1 431.57 499.06 432.4 498.78 433.01 497.62 434.59 497.49 435.15 497.76 435.73 498.49 436.25 499.19 436.64 499.64 437.24 499.69 438.26 499.58 439.07 499.21 440.48 499.33 441.23 499.85 441.97 501.11 442.83 502.98 443.48 503.54 443.9 503.91 444.57 504.08 445.66 504.35 446.59 504.76 447.4 505.71 448.06 506.52 448.21 508.08 448.22 508.67 448.57 509.1 449.15 509.41 450.04 509.54 452.8 509.42 453.77 509.45 455.8 509.24 456.57 509.16 457.31 509.21 458.11 509.8 459.13 509.91 461.25 510.13 462.44 511.04 464.37 512.78 466.26 513.54 466.88 514.19 467.21 514.67 467.68 514.69 468.56 514.61 469.36 514.62 470.12 514.89 470.74 516.91 471.98 518.34 473.45 519.28 474.66 520.2 475.57 520.48 476.07 520.27 476.87 519.92 477.43 519.75 477.99 520.03 478.51 520.89 478.88 521.69 479.04 522.27 479.37 522.48 479.81 523.06 483.83 522.78 484.55 522.39 485.1 522.21 485.63 522.43 486.35 523.09 487.22 523.5 489.28 523.94 490.33 525.17 491.68 526.93 492.86 527.49 493.35 528 496.43 528.52 497.38 528.32 498.22 527.79 498.48 527.02 498.53 526.37 498.46 525.89 498.58 525.99 498.97 526.61 499.48 527 500 526.94 500.74 526.63 501.3 525.89 502.41 525.62 503.02 525.41 503.69 525.5 504.46 525.78 505.37 526.67 506.32 527.02 507.46 527.38 508.26 527.53 509.05 527.24 513.82 527.02 514.5 526.38 515.61 526.25 516.28 526.49 517.06 527.36 518.17 528.35 518.91 530.02 519.73 531.4 520.23 533.07 520.51 536.05 520.52 537.43 520.22 538.42 519.85 539.05 519.55 539.83 519.43 541.54 520.19 542.58 522.7 542.17 524.71 542.17 524.72 536.34 523.17 494.42 521.66 448.48 521.47 414.75 521.33 402.54 521.29 356.61 521.09 346.19 521.05 310.68 520.9 309.63 512.95 310.77 509.14 312.67 504.96 312.67 498.87 312.67 494.31 310.39 490.51 307.73 487.47 307.35 482.9 307.73 479.48 303.17 476.44 298.98 473.77 298.6 470.73 298.22 466.55 295.56 459.7 293.66 456.66 287.57 455.52 283.01 452.48 282.25 447.91 283.77 442.97 284.91 438.03 285.26 432.35 289.48 431.59 293.72 430.06 297.44 427.64 300.11 424.24 300.89 420.66 301.38 412.64 303.2 409.76 306.13 406.79 308.83 404.05 311.79 402.89 315.35 405.15 321.17 410.49 327.6 415.06 327.63 415.06 327.65 415.08 327.67 415.1 336.14 419.33 340.52 420.45 345.48 420.85 347.43 421.41 351.77 424 354.14 424.76 356.79 425.26 358.18 426.09 360.79 429.66 364.41 432.82 368.74 434.61 373.47 435.16 378.28 434.61 382.47 433.58 383.95 434.09 387.66 437.47 Z" id="SEN-774" data-name="Kolda"/>
<path d="M 204.62 531.66 205 535.07 206.86 538.89 209.21 542.24 210.46 545.03 214.48 550.85 215.05 551.59 215.08 551.62 213.79 551.55 203.51 552.26 201.02 551.81 192.91 549.16 188.31 548.75 178.52 550.42 177.65 550.8 177.08 551.22 176.48 551.47 175.41 551.28 172.61 550.2 171.23 549.95 169.87 550.23 160.92 554.99 150.54 560.48 146.62 562.05 140.09 562.1 133.32 563.75 130.93 563.85 113.37 562.7 108.61 563.82 105.65 565.83 104.8 564.19 104.19 562.48 103.62 559.83 102.79 558.95 100.85 557.61 97.87 554.76 96.54 553.08 95.99 551.41 95.99 546.02 96.28 544.85 97.55 543.71 97.84 542.52 98.79 541.16 105.23 537.38 108.06 537.29 112.08 537.62 116.41 534.96 117.8 533.83 118.54 532.77 119.1 531.69 119.96 530.46 124.92 526.92 127.3 529.64 129.14 534.55 130.94 535.66 131.01 533.65 132.34 532.07 134.64 531.42 137.18 531.98 141.53 534.41 145.43 535.46 149.72 537.44 151.97 537.62 154.52 536.42 157.64 532.64 159.93 531.42 162.95 531.55 165.51 532.46 168.08 532.73 171.03 530.94 172.54 530.35 173.55 531.48 174.31 533.13 175.05 534.07 185.14 530.38 187.46 529.84 190.57 529.65 192.58 529.07 194.26 527.87 196.18 526.9 199.02 527 201.29 528.21 204.73 530.88 204.62 531.66 Z M 198.86 502.34 197.79 510.38 197.24 511.54 196.97 513.35 197.18 514.44 197.18 514.46 196.37 514.46 196.37 515.41 196.18 515.95 194.79 518.6 194.19 519.44 193.71 523.86 190.09 526.12 184.79 527 183.41 527.58 180.75 529.3 179.96 529.65 178.58 529.5 175.45 528.69 170.55 528.69 169.09 529.03 166.62 530.1 165.23 530.46 163.67 530.46 159.49 529.65 158.08 529.93 156.28 531.15 155.11 531.42 154.66 532.03 154.02 533.43 153.14 534.9 151.97 535.77 146.66 534.07 142.36 531.67 140.35 530.02 139.5 528.29 138.99 527.98 137.8 527.62 136.6 527.05 135.97 526.12 136.18 524.83 137 523.68 138.2 522.86 139.5 522.57 139.5 521.61 137.51 521.56 136.25 520.58 135.52 519.01 135.08 517.19 134.19 527.88 133.22 527.88 131.5 525.63 126.74 521.59 126.15 519.04 124.63 520.23 123.63 521.67 122.45 522.88 120.4 523.38 118.85 523.07 117.8 522.18 117.28 520.8 117.38 519.04 119.21 515.66 121.8 513.12 123.5 510.17 122.69 505.6 122.11 509.11 121.81 510.11 121.11 511.25 120.51 511.81 119.89 512.18 117.32 514.52 116.22 515.85 115.68 517.53 115.52 520.28 116.45 524.87 116.18 526.99 112.28 528.63 106.61 533.28 102.26 534.77 99.86 533.38 98.86 530.03 98.64 525.63 99.35 521.06 101.4 516.5 104.74 513.95 109.26 515.41 109.47 513.5 107.62 512.08 104.94 511.56 102.66 512.32 99.99 515.54 98.51 516.58 96.87 516.23 97.64 515.17 97.9 514.05 97.64 512.96 96.87 511.88 99.68 508.03 100.25 506.11 99.61 503.84 98.64 503.84 98.03 505.27 97.15 505.9 96.34 505.41 95.99 503.44 96.31 501.88 97.08 500.23 101.71 493.49 102.18 491.85 102.05 490.19 101.43 487.15 101.29 485.67 101.58 482.96 102.86 477.57 103.14 474.12 102.94 472 102.38 470.91 102.58 467.93 103.05 466.48 103.87 465.42 105.92 463.45 106.33 462.2 108.25 459.03 112.77 458.04 118.4 458.1 139.76 458.29 159.45 458.46 188.11 458.72 205 458.87 213.33 458.94 212.11 460.98 209.89 463.42 209.25 464.96 209.4 466.05 210.23 466.5 211.18 466.81 212.07 467.22 212.83 468.15 212.8 469.09 207.58 479.68 201.75 488.81 201.61 490.3 201.8 491.65 202.4 493.88 201.99 495.2 201.79 497.87 201.56 498.73 201.21 499.42 199.84 500.72 199.17 501.56 198.86 502.34 Z" fill-rule="evenodd" id="SEN-775" data-name="Ziguinchor"/>
<path d="M 684.14 249.34 685.13 253.11 687.71 255.36 688.5 257.16 689.5 258.62 691.46 259.49 693.57 259.9 695.01 259.98 694.29 261.53 693.71 262.46 693.47 263.34 693.77 264.76 694.68 265.5 696 265.8 696.99 266.58 696.87 268.74 696.14 269.88 693.62 272.27 692.66 273.62 692.39 274.94 692.27 276.52 691.91 277.93 690.97 278.75 688.52 280.21 687.73 282.44 688.03 285.15 689.55 290.8 689.88 293.44 689.64 299.06 691.31 299.38 703.39 303.74 704.29 305.44 703.72 307.05 701.81 307.73 702.87 309.51 704.12 311.12 705.7 312.43 710.81 314.24 712.63 315.43 713.9 317.32 718.68 328.22 718.97 331.09 718.01 336.35 715.1 346.29 715.09 351.67 716.39 355.03 718.5 357.07 720.91 358.87 723.18 361.53 723.97 363.96 723.95 366.6 723.18 371.85 721.11 377.64 716.78 382 705.72 388.06 707.5 389.54 709.25 392.1 711.91 397.14 713.53 401.81 716.41 406.2 718.78 408.82 726.27 414.16 727.09 415.06 728.24 416.99 728.98 417.82 730.33 418.48 731.53 418.63 732.57 419.06 733.47 420.57 733.19 422.87 731.33 429.81 723.78 431.18 719.22 432.32 715.8 436.12 712.37 438.41 709.71 438.41 708.95 435.36 708.19 432.7 704.77 431.56 700.2 430.42 696.4 428.14 692.6 426.24 689.18 423.57 685.37 421.29 682.33 422.43 682.33 425.48 680.43 427.38 681.19 429.66 684.99 434.22 685.75 437.26 683.85 439.55 680.43 439.55 676.25 438.79 674.72 439.55 673.96 442.59 672.82 444.11 672.06 446.39 670.54 446.77 669.02 445.63 667.12 443.35 664.08 442.59 660.65 443.35 658.75 444.87 657.99 446.77 655.33 447.15 653.81 449.05 653.43 451.72 651.91 454.38 649.62 455.9 645.44 457.04 642.4 456.66 640.5 455.52 638.59 454.38 637.07 455.52 634.79 456.66 632.13 456.66 629.47 457.04 627.57 458.56 627.57 461.6 628.33 464.65 626.43 466.93 623.38 468.83 622.24 471.11 622.24 473.39 620.34 473.77 618.44 473.01 615.78 472.63 614.64 473.77 614.26 476.06 612.35 476.82 610.07 476.82 608.93 477.96 608.93 479.48 607.79 481.38 605.13 480.62 601.71 478.34 598.66 475.3 596.76 475.3 594.48 473.01 591.82 471.87 584.59 471.87 582.31 473.01 579.27 474.53 576.61 474.53 575.46 475.68 574.32 477.58 572.04 477.58 569.76 475.68 566.34 474.53 562.53 474.15 560.63 474.15 556.93 475.53 551.27 477.15 548.73 476.51 546.23 473.67 545.64 470.37 545.88 466.45 545.41 463.25 542.7 462.09 542.7 461.29 548 459.43 546.35 458.02 546.57 456.37 547.16 454.58 546.64 452.8 545.84 451.55 546.31 450.34 546.23 449.71 545.62 449.24 544.71 448.8 543.87 448.25 543.5 447.45 543.1 447.01 542.32 447.05 541.34 447.1 540.92 446.61 540.78 445.51 540.47 444.57 539.96 443.52 539.87 441.52 540.44 440.45 541.45 439.34 542.7 437.24 541.54 435.15 540.34 434.98 539.01 435.74 537.38 436.43 532.4 435.48 527.1 435.48 525.91 436.18 524.81 439.26 523.16 439.89 524.02 437.12 522.37 436.58 519.78 437.28 517.85 438.21 517.23 438.99 516.47 440.54 515.19 440.78 513.68 440.35 512.91 439.4 513.34 437.24 511.11 438.74 511.03 445.67 508.03 447.05 508.08 448.22 506.52 448.21 505.71 448.06 504.76 447.4 504.35 446.59 504.08 445.66 503.91 444.57 503.54 443.9 502.98 443.48 501.11 442.83 499.85 441.97 499.33 441.23 499.21 440.48 499.58 439.07 499.69 438.26 499.64 437.24 499.19 436.64 498.49 436.25 497.76 435.73 497.49 435.15 497.62 434.59 498.78 433.01 499.06 432.4 499.1 431.57 498.67 431.12 497.96 430.9 496.25 430.97 493.1 431.54 492.27 431.61 491.46 431.6 490.61 431.49 489.8 431.25 489 430.8 488.75 430.19 488.88 429.63 489.23 429.11 489.65 428.63 490.02 428.11 490.35 427.54 490.53 426.83 490.56 426.04 490.52 425.27 490.55 424.53 490.71 423.85 490.99 423.26 491.33 422.72 493.7 420.45 494.09 419.92 494.35 419.25 494.23 418.93 493.81 418.68 492.47 418.33 490.51 417.59 489.8 417.45 489.03 417.42 488.3 417.57 487.61 417.8 486.49 418.49 485.81 418.66 485.02 418.54 484.14 417.87 483.82 417.13 483.81 416.39 484.06 415.76 484.41 415.22 484.93 414.58 485.02 414.36 485.09 413.96 485.09 412.72 485.57 411.44 485.68 410.62 485.33 410.15 484.74 409.93 483.28 409.97 481.93 409.78 481.29 409.93 480.78 410.29 480.42 410.85 480.21 411.51 479.93 412.13 479.47 412.54 478.74 412.69 477.31 412.82 476.13 413.31 474.43 414.06 474.16 413.83 473.49 412.74 472.66 410.28 471.99 409.15 469.82 407.42 466.71 405.87 463.42 404.75 460.7 404.29 458.96 404.56 456.32 406.08 454.8 406.74 453.45 406.95 451.19 406.76 449.8 406.81 447.17 407.45 441.18 410.46 433.7 412.11 431.24 413.15 424.06 417.53 416.45 420.19 414.21 420.72 411.84 420.4 408.72 418.97 399.32 412.39 398.27 411.65 396.96 410.25 396.12 408.52 394.39 402.89 393.16 400.41 391.4 398.26 388.9 396.3 383.33 393.75 378 393.36 372.75 394.73 364.8 399.08 363.2 399.59 361.38 398.95 356.06 395.8 355.16 394.81 352.64 386.4 351.48 384.01 349.84 381.8 347.73 380.13 348.24 378.43 350.59 374.47 352.12 372.35 353.91 370.49 355.26 369.98 356.79 369.7 358.46 369.63 359.22 369.51 360.5 368.94 366.47 367.46 367.05 367.13 370.12 364.79 377.73 357.65 378.11 357.04 378.37 356.08 378.64 354.52 378.54 352.22 379.06 349.93 379.23 349.71 379.76 349.44 380.91 349 382.14 348.41 382.67 347.68 383.22 346.7 384.38 341.36 384.38 339.18 384.12 336.65 382.94 330.89 382.37 321.04 381.67 318.75 380.04 316.37 377.09 307.95 377.18 283.55 393.28 279.75 399.48 275.44 403.34 270.98 405.7 269 407.65 268.01 413 266.35 418.65 271.49 419.79 273.92 422.16 275.68 424.29 276.86 480.71 297.69 487.08 298.67 522.55 298.12 523.98 297.45 558.01 273.67 559.04 273.14 560.42 272.71 595.42 278.97 600.99 278.9 620.48 276.47 622.06 275.72 623.68 273.98 634.29 258.23 644.17 233.95 644.41 232.77 644.45 231.81 643.82 228.8 642.91 226.72 629.29 209.15 629.01 208.19 630.35 208.02 634.45 206.81 636.44 206.51 637.65 206.92 638.67 207.91 640.34 209.97 647.48 214.06 649.75 215.72 651.12 216.51 654.16 217.19 655.54 217.93 656.66 219.17 657.27 220.43 660.29 230.77 660.37 232.17 662.15 233.21 666.53 238.26 668.81 240.13 676.96 243.86 684.14 249.34 Z" id="SEN-779" data-name="Tambacounda"/>
</g>
</svg>