<?xml version="1.0"?>
<svg xmlns="http://www.w3.org/2000/svg" version="1.2" baseProfile="tiny" width="800" height="54" viewBox="0 0 800 54" stroke-linecap="round" stroke-linejoin="round">
<g id="ne_10m_admin_1_states_provinces">
<path d="M 793.06 23.19 793.07 23.3 793.13 23.38 793.29 23.41 793.31 23.46 793.32 23.5 793.33 23.51 793.33 23.53 793.28 23.56 793.27 23.6 793.26 23.63 793.27 23.66 793.32 23.68 793.38 23.72 793.35 23.77 793.34 23.84 793.35 23.97 793.3 23.99 793.23 24.01 793.16 24.04 793.06 24.14 793.01 24.16 792.98 24.19 793.01 24.2 793.03 24.21 793.05 24.24 793.03 24.27 793.06 24.33 793.09 24.38 793.08 24.39 793.06 24.4 793.05 24.42 793.05 24.45 792.95 24.74 792.92 24.89 792.87 25.06 792.87 25.08 792.88 25.1 792.92 25.14 792.97 25.15 793.11 25.15 793.24 25.24 793.28 25.25 793.31 25.26 793.33 25.26 793.35 25.27 793.36 25.3 793.36 25.33 793.36 25.36 793.39 25.39 793.47 25.44 793.47 25.49 793.46 25.52 793.46 25.58 793.52 25.7 793.53 25.77 793.51 25.85 793.51 25.92 793.58 25.97 793.65 26.01 793.89 26.03 793.96 26.06 794.05 26.12 794.05 26.14 794.01 26.19 793.95 26.19 793.9 26.18 793.85 26.19 793.72 26.35 793.59 26.46 793.57 26.48 793.57 26.51 793.56 26.53 793.55 26.56 793.5 26.62 793.49 26.63 793.45 26.63 793.43 26.64 793.42 26.66 793.33 26.83 793.28 26.9 793.2 26.86 793.14 26.79 792.93 26.75 792.63 26.74 792.19 26.79 791.85 26.83 791.49 26.86 791.43 26.84 791.32 26.81 791.31 26.81 791.14 26.85 790.85 26.84 790.62 26.88 790.55 26.88 790.61 26.79 790.72 26.61 790.78 26.46 790.8 26.42 790.82 26.38 790.83 26.25 790.84 26.2 790.84 26.19 790.84 26.17 790.84 26.16 790.85 26.16 790.87 26.16 790.89 26.15 790.9 26.15 790.89 26.11 790.88 26.08 790.88 26.04 790.88 26.02 790.9 25.99 790.93 25.86 790.94 25.77 790.93 25.75 790.92 25.73 790.89 25.67 790.86 25.53 790.81 25.41 790.78 25.35 790.75 25.3 790.58 25.16 790.53 25.1 790.33 24.92 790.17 24.84 790.05 24.8 789.99 24.79 789.89 24.79 789.95 24.7 790 24.67 790.06 24.64 790.11 24.59 790.18 24.55 790.23 24.54 790.26 24.5 790.26 24.47 790.26 24.42 790.27 24.41 790.29 24.4 790.34 24.39 790.39 24.36 790.37 24.34 790.35 24.32 790.35 24.21 790.39 24.11 790.37 24.05 790.34 23.98 790.23 23.91 790.17 23.84 790.15 23.8 790.14 23.75 790.16 23.73 790.17 23.7 790.16 23.67 790.11 23.65 790.01 23.6 790.02 23.57 790.04 23.53 790.08 23.46 790.14 23.41 790.19 23.4 790.23 23.38 790.27 23.31 790.46 23.11 790.49 23.11 790.53 23.12 790.55 23.1 790.53 23.07 790.49 23.04 790.34 23.01 790.34 22.94 790.3 22.88 790.21 22.87 790.16 22.82 790.14 22.76 790.15 22.69 790.11 22.63 790.03 22.66 789.97 22.59 789.95 22.5 790 22.42 790.01 22.41 790.02 22.4 790.07 22.39 790.11 22.37 790.19 22.33 790.27 22.31 790.27 22.29 790.27 22.27 790.33 22.2 790.32 22.16 790.34 22.13 790.48 22.11 790.53 22.09 790.58 22.06 790.6 22.05 790.63 22.06 790.64 22.05 790.67 22.04 790.76 22.04 790.85 22.05 790.9 22.05 790.99 22.01 791.03 21.98 791.06 21.97 791.08 21.97 791.09 21.94 791.1 21.92 791.15 21.89 791.18 21.92 791.24 21.92 791.37 21.89 791.51 21.89 791.58 21.93 791.68 21.97 791.74 21.95 791.81 21.92 791.84 21.94 791.8 22.01 791.74 22.06 791.71 22.14 791.66 22.23 791.58 22.33 791.62 22.39 791.69 22.43 791.69 22.5 791.64 22.56 791.66 22.61 791.7 22.65 791.7 22.69 791.69 22.72 791.67 22.8 791.75 22.83 791.82 22.82 791.89 22.83 791.89 22.88 791.85 22.94 791.82 22.98 791.8 23.03 791.83 23.07 791.85 23.12 791.82 23.22 791.77 23.31 791.72 23.4 791.73 23.48 791.93 23.53 792.13 23.53 792.22 23.53 792.31 23.5 792.34 23.47 792.35 23.44 792.36 23.4 792.39 23.37 792.4 23.34 792.43 23.32 792.52 23.29 792.58 23.24 792.59 23.22 792.6 23.22 792.69 23.21 792.86 23.21 793 23.18 793.06 23.19 Z" id="NZL-3334" data-name="Manawatu-Wanganui"/>
<path d="M 796.92 22.78 796.85 22.69 796.74 22.68 796.5 22.51 796.13 22.19 796.13 22.01 795.93 21.91 795.89 22.03 795.41 21.8 795.45 21.75 795.43 21.67 795.42 21.59 795.57 21.51 795.84 21.42 795.93 21.36 795.97 21.29 795.98 21.21 795.97 21.17 795.99 21.13 796.04 21.12 796.11 21.11 796.17 21.09 796.22 21.05 796.27 21.01 796.3 21 796.34 20.98 796.35 20.96 796.36 20.93 796.41 20.89 796.42 20.84 796.42 20.75 796.39 20.7 796.42 20.68 796.49 20.7 796.58 20.77 796.67 20.83 796.76 20.87 796.85 20.78 796.98 20.42 797.1 20.25 797.18 20.18 797.24 20.1 797.22 20.05 797.17 20.05 797.11 20.09 797.06 20.05 797.07 20 797.09 19.96 797.09 19.88 797.07 19.82 797.06 19.8 797.06 19.77 797.11 19.76 797.24 19.72 797.29 19.67 797.29 19.63 797.73 19.65 797.79 19.66 797.81 19.68 797.78 19.7 797.78 19.72 797.81 19.73 797.85 19.76 797.88 19.78 797.91 19.79 797.95 19.79 798.03 19.79 798.06 19.8 798.1 19.83 798.13 19.84 798.2 19.84 798.23 19.84 798.26 19.85 798.3 19.88 798.34 19.92 798.38 19.96 798.37 20 798.36 20.02 798.31 20.08 798.23 20.15 798.18 20.25 798.15 20.31 798.07 20.35 798.04 20.4 797.98 20.54 797.95 20.58 797.92 20.61 797.9 20.64 797.89 20.66 797.91 20.71 797.94 20.76 797.96 20.81 797.95 20.87 797.92 20.9 797.87 20.92 797.85 20.96 797.91 21.05 797.9 21.1 797.87 21.14 797.84 21.18 797.82 21.23 797.86 21.27 797.9 21.31 797.92 21.34 797.92 21.37 797.9 21.39 797.86 21.42 797.85 21.45 797.84 21.5 797.83 21.52 797.86 21.53 797.88 21.55 797.89 21.57 797.89 21.6 797.88 21.62 797.79 21.66 797.78 21.68 797.78 21.82 797.77 21.84 797.52 22.06 797.29 22.22 797.25 22.23 797.16 22.17 797.11 22.16 797.05 22.17 797 22.2 796.98 22.21 796.97 22.2 796.96 22.2 796.96 22.23 796.96 22.24 796.97 22.27 796.97 22.28 797.01 22.31 797.03 22.34 797.03 22.36 796.99 22.42 796.97 22.47 796.97 22.58 796.95 22.72 796.92 22.78 Z" id="NZL-3396" data-name="Gisborne District"/>
<path d="M 796.92 22.78 796.91 22.87 796.89 22.91 796.91 22.95 796.9 22.98 796.87 23.02 796.85 23.06 797.01 23.07 797.08 23.1 797.11 23.16 796.99 23.26 796.94 23.37 796.92 23.44 796.89 23.47 796.85 23.49 796.82 23.52 796.76 23.38 796.74 23.31 796.74 23.24 796.75 23.21 796.77 23.17 796.79 23.14 796.81 23.11 796.81 23.09 796.78 23.07 796.74 23.07 796.71 23.11 796.69 23.1 796.62 23.06 796.58 23.05 796.23 23.04 795.87 23.03 795.84 23.02 795.82 23.01 795.8 23 795.74 23.04 795.33 23.2 795.02 23.31 794.99 23.34 794.98 23.39 794.96 23.44 794.93 23.48 794.88 23.54 794.8 23.61 794.74 23.64 794.74 23.65 794.71 23.71 794.68 23.74 794.67 23.76 794.66 23.79 794.66 23.83 794.67 23.87 794.69 23.89 794.71 23.91 794.74 23.93 794.75 23.98 794.77 24.18 794.77 24.23 794.79 24.27 794.8 24.27 794.82 24.28 794.85 24.29 794.91 24.33 794.93 24.34 794.96 24.35 794.99 24.35 795.07 24.35 795.14 24.36 795.13 24.39 795.09 24.44 795.07 24.49 795.06 24.51 795.04 24.53 795.01 24.54 794.96 24.55 794.94 24.58 794.89 24.73 794.89 24.74 794.89 24.75 794.89 24.76 794.89 24.78 794.88 24.78 794.85 24.79 794.83 24.8 794.8 24.84 794.73 25.04 794.68 25.13 794.65 25.17 794.64 25.19 794.64 25.22 794.64 25.27 794.64 25.29 794.64 25.3 794.61 25.33 794.6 25.34 794.57 25.42 794.51 25.5 794.42 25.6 794.32 25.67 794.31 25.68 794.28 25.67 794.27 25.65 794.25 25.64 794.22 25.66 794.16 25.72 794.14 25.76 794.14 25.8 794.15 25.78 794.17 25.77 794.19 25.76 794.21 25.75 794.07 25.98 794.05 26.12 793.96 26.06 793.89 26.03 793.65 26.01 793.58 25.97 793.51 25.92 793.51 25.85 793.53 25.77 793.52 25.7 793.46 25.58 793.46 25.52 793.47 25.49 793.47 25.44 793.39 25.39 793.36 25.36 793.36 25.33 793.36 25.3 793.35 25.27 793.33 25.26 793.31 25.26 793.28 25.25 793.24 25.24 793.11 25.15 792.97 25.15 792.92 25.14 792.88 25.1 792.87 25.08 792.87 25.06 792.92 24.89 792.95 24.74 793.05 24.45 793.05 24.42 793.06 24.4 793.08 24.39 793.09 24.38 793.06 24.33 793.03 24.27 793.05 24.24 793.03 24.21 793.01 24.2 792.98 24.19 793.01 24.16 793.06 24.14 793.16 24.04 793.23 24.01 793.3 23.99 793.35 23.97 793.34 23.84 793.35 23.77 793.38 23.72 793.32 23.68 793.27 23.66 793.26 23.63 793.27 23.6 793.28 23.56 793.33 23.53 793.33 23.51 793.32 23.5 793.31 23.46 793.29 23.41 793.13 23.38 793.07 23.3 793.06 23.19 793.17 23.09 793.32 23.2 793.49 23.24 793.53 23.21 793.5 23.16 793.55 23.13 793.62 23.12 793.61 23.06 793.6 22.98 793.71 22.87 793.87 22.87 793.98 22.86 794.02 22.85 794 22.81 793.99 22.75 794.02 22.7 794.13 22.61 794.22 22.52 794.21 22.45 794.22 22.42 794.24 22.4 794.23 22.29 794.28 22.24 794.34 22.2 794.4 22.18 794.59 22.14 794.72 22.2 794.78 22.21 794.84 22.21 794.88 22.18 794.91 22.15 794.92 22.12 794.94 22.08 794.98 22.05 795.02 22.02 795.05 22.01 795.07 22.02 795.11 22 795.14 21.96 795.25 21.93 795.26 21.91 795.28 21.89 795.31 21.83 795.37 21.82 795.41 21.8 795.89 22.03 795.93 21.91 796.13 22.01 796.13 22.19 796.5 22.51 796.74 22.68 796.85 22.69 796.92 22.78 Z" id="NZL-3397" data-name="Hawke&apos;s Bay"/>
<path d="M 790.81 17.89 790.81 17.92 790.83 17.96 790.83 17.98 790.82 18 790.81 18 790.78 18 790.77 18 790.72 18.02 790.67 18.02 790.63 18.01 790.53 17.99 790.55 17.97 790.5 17.93 790.48 17.93 790.45 17.95 790.43 17.95 790.42 17.93 790.42 17.89 790.44 17.86 790.46 17.86 790.57 17.86 790.6 17.87 790.62 17.9 790.64 17.91 790.68 17.89 790.78 17.82 790.83 17.79 790.84 17.8 790.86 17.83 790.88 17.86 790.87 17.87 790.84 17.87 790.81 17.89 Z M 790.19 17.16 790.16 17.17 790.08 17.17 790.06 17.16 790.09 17.14 790.09 17.12 790.07 17.06 790.07 17.04 790.1 17.02 790.14 17.03 790.17 17.06 790.18 17.09 790.2 17.14 790.19 17.16 Z M 790.7 16.67 790.66 16.67 790.63 16.67 790.58 16.62 790.62 16.58 790.67 16.55 790.7 16.55 790.71 16.57 790.73 16.59 790.75 16.61 790.75 16.64 790.73 16.66 790.7 16.67 Z M 791.13 18.42 791.01 18.47 790.94 18.43 790.89 18.52 790.84 18.64 790.83 18.79 790.62 18.82 790.37 18.87 790.13 18.92 789.93 18.96 789.8 19.04 789.67 19.05 789.62 18.96 789.6 18.89 789.55 18.81 789.54 18.79 789.53 18.74 789.43 18.6 789.42 18.54 789.45 18.53 789.51 18.55 789.6 18.52 789.64 18.53 789.66 18.55 789.65 18.57 789.63 18.6 789.63 18.61 789.74 18.79 789.75 18.86 789.78 18.92 789.82 18.94 789.85 18.89 789.82 18.83 789.81 18.8 789.84 18.78 789.9 18.79 789.93 18.79 789.97 18.77 789.92 18.77 789.81 18.75 789.77 18.74 789.8 18.72 789.92 18.64 789.94 18.64 789.94 18.69 790.03 18.6 790.08 18.57 790.14 18.57 790.22 18.65 790.25 18.66 790.28 18.65 790.29 18.62 790.28 18.59 790.26 18.57 790.26 18.54 790.15 18.51 790.11 18.48 790.07 18.49 790.05 18.46 790.03 18.41 790.01 18.38 789.96 18.44 789.92 18.41 789.92 18.37 789.95 18.34 789.97 18.33 790 18.31 790.02 18.29 790.03 18.27 789.88 18.25 789.73 18.25 789.66 18.27 789.6 18.31 789.58 18.33 789.57 18.39 789.56 18.41 789.53 18.44 789.52 18.44 789.46 18.4 789.43 18.44 789.38 18.47 789.33 18.49 789.29 18.47 789.26 18.43 789.17 18.17 789.12 17.96 789.08 17.86 788.96 17.69 788.65 17.38 788.59 17.28 788.57 17.17 788.58 17.15 788.59 17.13 788.61 17.11 788.64 17.11 788.61 17.17 788.61 17.2 788.62 17.24 788.66 17.18 788.68 17.15 788.71 17.14 788.74 17.16 788.78 17.23 788.82 17.27 788.87 17.34 788.9 17.36 788.94 17.37 788.96 17.39 788.96 17.41 788.93 17.43 789.02 17.46 789.04 17.46 789.04 17.47 789.02 17.48 788.99 17.49 788.96 17.49 788.98 17.51 788.99 17.53 788.98 17.55 788.97 17.57 789 17.57 789.02 17.58 789.06 17.6 789.06 17.59 789.07 17.56 789.06 17.54 789.09 17.57 789.11 17.62 789.13 17.65 789.15 17.6 789.18 17.61 789.19 17.58 789.19 17.54 789.2 17.51 789.22 17.5 789.25 17.47 789.26 17.45 789.23 17.46 789.22 17.46 789.2 17.42 789.22 17.32 789.2 17.3 789.18 17.33 789.17 17.31 789.17 17.2 789.17 17.19 789.18 17.18 789.22 17.14 789.2 17.12 789.17 17.09 789.15 17.07 789.16 17.04 789.21 17.01 789.21 16.99 789.14 16.96 789.12 16.96 789.09 17 789.06 17.02 789.04 17.03 788.91 17.04 788.84 17.02 788.79 16.99 788.77 16.91 788.8 16.93 788.82 16.88 788.84 16.87 788.88 16.89 788.91 16.9 789.01 16.89 789.05 16.88 789.09 16.86 789.12 16.83 789.15 16.82 789.22 16.79 789.28 16.75 789.3 16.74 789.32 16.74 789.33 16.73 789.34 16.7 789.33 16.69 789.32 16.69 789.32 16.68 789.31 16.67 789.38 16.63 789.59 16.48 789.63 16.46 789.66 16.48 789.79 16.64 789.86 16.71 789.95 16.76 790.01 16.78 790.01 16.79 790 16.82 790 16.83 790.01 16.83 790.01 16.83 790.01 16.84 790 16.85 789.99 16.85 789.99 16.84 789.98 16.84 789.97 16.84 789.96 16.84 789.96 16.84 789.95 16.87 789.97 16.91 790.02 16.92 790.08 16.93 790.14 16.95 790.07 16.95 789.88 16.95 789.85 16.95 789.85 16.98 789.88 17.08 789.92 17.14 789.92 17.17 789.92 17.21 789.91 17.25 789.86 17.14 789.83 17.1 789.77 17.08 789.81 17.18 789.8 17.22 789.75 17.22 789.75 17.24 789.78 17.24 789.8 17.25 789.81 17.26 789.83 17.28 789.81 17.3 789.77 17.33 789.75 17.34 789.75 17.37 789.78 17.41 789.78 17.44 789.78 17.49 789.79 17.49 789.82 17.52 789.84 17.53 789.88 17.54 789.94 17.54 790.03 17.51 790.06 17.51 790.08 17.53 790.07 17.54 789.97 17.59 789.91 17.6 789.88 17.6 789.78 17.57 789.83 17.61 789.86 17.67 790 18 789.95 17.99 789.92 17.97 789.89 17.96 789.83 17.99 789.81 17.98 789.8 17.96 789.8 17.94 789.82 17.93 789.77 17.92 789.74 17.86 789.71 17.86 789.63 17.89 789.59 17.91 789.56 17.94 789.56 17.96 789.57 17.96 789.65 17.95 789.69 17.96 789.67 17.97 789.64 17.99 789.62 18.01 789.63 18.02 789.67 18.04 789.68 18.05 789.68 18.06 789.68 18.16 789.69 18.19 789.72 18.2 789.73 18.19 789.74 18.16 789.73 18.13 789.74 18.11 789.75 18.13 789.77 18.1 789.79 18.08 789.82 18.06 789.85 18.05 789.88 18.04 789.98 18.06 790.12 18.06 790.17 18.09 790.17 18.16 790.14 18.18 790.12 18.2 790.11 18.22 790.12 18.26 790.13 18.29 790.15 18.3 790.16 18.3 790.18 18.28 790.24 18.03 790.26 18.03 790.31 18.14 790.32 18.19 790.32 18.25 790.37 18.24 790.43 18.23 790.46 18.22 790.42 18.16 790.41 18.13 790.46 18.12 790.53 18.12 790.58 18.14 790.61 18.19 790.58 18.29 790.61 18.33 790.65 18.34 790.67 18.33 790.7 18.31 790.74 18.3 790.79 18.27 790.8 18.28 790.81 18.29 790.83 18.29 790.9 18.26 790.92 18.26 790.94 18.27 790.99 18.3 791.02 18.31 791.04 18.32 791.12 18.4 791.13 18.42 Z M 791.4 16.44 791.4 16.47 791.43 16.49 791.49 16.52 791.55 16.54 791.57 16.55 791.59 16.55 791.58 16.57 791.56 16.6 791.55 16.61 791.54 16.65 791.53 16.67 791.53 16.7 791.55 16.74 791.56 16.75 791.58 16.75 791.59 16.76 791.6 16.76 791.61 16.76 791.61 16.77 791.61 16.78 791.61 16.79 791.65 16.84 791.67 16.85 791.62 16.93 791.6 16.94 791.57 16.95 791.56 16.93 791.55 16.9 791.55 16.88 791.53 16.85 791.5 16.86 791.47 16.87 791.45 16.88 791.44 16.85 791.43 16.8 791.42 16.78 791.4 16.76 791.39 16.77 791.33 16.78 791.34 16.76 791.34 16.74 791.33 16.73 791.32 16.71 791.26 16.73 791.2 16.7 791.15 16.66 791.13 16.61 791.19 16.66 791.21 16.67 791.23 16.65 791.23 16.62 791.22 16.59 791.23 16.57 791.25 16.53 791.22 16.51 791.18 16.49 791.15 16.45 791.22 16.45 791.25 16.45 791.27 16.42 791.23 16.39 791.22 16.34 791.24 16.31 791.3 16.3 791.32 16.31 791.34 16.32 791.36 16.34 791.36 16.37 791.37 16.38 791.44 16.42 791.4 16.44 Z" fill-rule="evenodd" id="NZL-3398" data-name="Auckland"/>
<path d="M 797.29 19.63 797.29 19.67 797.24 19.72 797.11 19.76 797.06 19.77 797.06 19.8 797.07 19.82 797.09 19.88 797.09 19.96 797.07 20 797.06 20.05 797.11 20.09 797.17 20.05 797.22 20.05 797.24 20.1 797.18 20.18 797.1 20.25 796.98 20.42 796.85 20.78 796.76 20.87 796.67 20.83 796.58 20.77 796.49 20.7 796.42 20.68 796.39 20.7 796.42 20.75 796.42 20.84 796.41 20.89 796.36 20.93 796.35 20.96 796.34 20.98 796.3 21 796.27 21.01 796.22 21.05 796.17 21.09 796.11 21.11 796.04 21.12 795.99 21.13 795.97 21.17 795.98 21.21 795.97 21.29 795.93 21.36 795.84 21.42 795.57 21.51 795.42 21.59 795.43 21.67 795.45 21.75 795.41 21.8 795.37 21.82 795.31 21.83 795.28 21.89 795.26 21.91 795.25 21.93 795.14 21.96 795.11 22 795.07 22.02 795.05 22.01 795.02 22.02 794.98 22.05 794.94 22.08 794.92 22.12 794.91 22.15 794.88 22.18 794.84 22.21 794.78 22.21 794.72 22.2 794.59 22.14 794.4 22.18 794.34 22.2 794.28 22.24 794.23 22.29 794.24 22.4 794.22 22.42 794.21 22.45 794.22 22.52 794.13 22.61 794.02 22.7 793.99 22.75 794 22.81 794.02 22.85 793.98 22.86 793.87 22.87 793.71 22.87 793.6 22.98 793.61 23.06 793.62 23.12 793.55 23.13 793.5 23.16 793.53 23.21 793.49 23.24 793.32 23.2 793.17 23.09 793.27 22.95 793.23 22.74 793.19 22.71 793.14 22.74 793.07 22.73 793.01 22.68 792.94 22.6 792.89 22.51 792.86 22.48 792.88 22.4 792.9 22.35 792.95 22.35 793.09 22.4 793.14 22.39 793.18 22.35 793.13 22.27 793.04 22.19 793.07 22.1 793.12 22 793.09 21.97 792.9 21.91 792.77 21.88 792.75 21.84 792.77 21.79 792.8 21.78 792.83 21.77 792.85 21.74 792.88 21.71 792.94 21.67 792.98 21.7 793.03 21.72 793.07 21.76 793.09 21.77 793.16 21.77 793.2 21.77 793.23 21.76 793.25 21.74 793.29 21.72 793.31 21.71 793.34 21.71 793.37 21.72 793.39 21.74 793.4 21.76 793.4 21.79 793.39 21.81 793.35 21.84 793.33 21.87 793.33 21.89 793.36 21.91 793.42 21.91 793.47 21.89 793.49 21.84 793.51 21.8 793.55 21.77 793.68 21.82 793.73 21.76 793.77 21.59 793.75 21.5 793.7 21.46 793.35 21.34 793.33 21.31 793.31 21.27 793.27 21.22 793.24 21.16 793.22 21.07 793.19 20.97 793.19 20.92 793.16 20.89 793.06 20.81 792.9 20.79 792.83 20.76 792.78 20.72 792.76 20.66 792.68 20.63 792.64 20.63 792.61 20.62 792.58 20.59 792.55 20.49 792.57 20.44 792.57 20.39 792.51 20.33 792.49 20.3 792.46 20.12 792.38 19.97 792.33 19.9 792.28 19.82 792.28 19.75 792.24 19.69 792.25 19.64 792.27 19.6 792.24 19.56 792.21 19.53 792.23 19.5 792.26 19.47 792.32 19.5 792.4 19.51 792.4 19.48 792.35 19.45 792.36 19.41 792.4 19.39 792.45 19.33 792.46 19.25 792.55 19.22 792.55 19.24 792.59 19.31 792.6 19.34 792.61 19.36 792.64 19.38 792.65 19.4 792.65 19.43 792.64 19.42 792.62 19.41 792.6 19.41 792.58 19.45 792.61 19.46 792.7 19.47 792.73 19.49 792.77 19.51 792.81 19.53 792.84 19.56 792.86 19.59 792.9 19.65 792.92 19.68 792.98 19.73 793.01 19.76 793.02 19.79 792.94 19.74 792.91 19.73 792.88 19.73 792.84 19.73 792.81 19.73 792.77 19.7 792.79 19.69 792.87 19.67 792.79 19.63 792.75 19.6 792.72 19.57 792.68 19.55 792.62 19.55 792.51 19.56 792.53 19.58 792.55 19.6 792.56 19.61 792.55 19.62 792.54 19.64 792.54 19.66 792.54 19.67 792.56 19.69 792.57 19.69 792.58 19.69 792.59 19.69 792.6 19.69 792.62 19.7 792.63 19.7 792.64 19.71 792.63 19.73 792.62 19.74 792.62 19.75 792.63 19.8 792.63 19.81 792.64 19.82 792.66 19.82 792.7 19.83 792.71 19.82 792.73 19.81 792.73 19.8 792.74 19.79 792.78 19.81 792.8 19.84 792.81 19.87 792.83 19.9 792.87 19.88 792.89 19.9 792.91 19.92 792.93 19.93 792.97 19.92 792.98 19.9 792.99 19.88 793.03 19.89 793.06 19.9 793.08 19.92 793.08 19.95 793.08 19.99 793.09 20.01 793.12 20.01 793.15 20 793.19 19.99 793.16 19.89 793.11 19.82 793.09 19.79 793.12 19.78 793.17 19.81 793.25 19.92 793.3 19.95 793.36 19.96 793.5 20.01 793.56 20.02 793.59 20.03 793.64 20.08 793.67 20.09 793.74 20.09 793.75 20.09 793.76 20.11 793.77 20.12 793.8 20.1 794.25 20.36 794.34 20.39 794.48 20.41 794.61 20.45 794.76 20.47 794.89 20.53 795.1 20.55 795.18 20.59 795.05 20.59 795.02 20.6 795.04 20.61 795.14 20.67 795.17 20.68 795.2 20.69 795.23 20.67 795.24 20.65 795.23 20.62 795.21 20.59 795.25 20.58 795.27 20.59 795.29 20.61 795.32 20.62 795.46 20.62 795.47 20.63 795.49 20.66 795.51 20.67 795.52 20.66 795.53 20.66 795.54 20.65 795.55 20.65 795.55 20.63 795.55 20.61 795.56 20.61 795.59 20.61 795.65 20.59 795.85 20.58 795.91 20.55 795.95 20.52 796.12 20.44 796.19 20.39 796.21 20.37 796.22 20.35 796.22 20.29 796.26 20.24 796.27 20.22 796.28 20.2 796.37 20.16 796.41 20.12 796.43 20.04 796.46 20 796.49 19.97 796.51 19.95 796.51 19.92 796.53 19.91 796.75 19.86 796.8 19.85 796.84 19.84 796.87 19.82 796.92 19.76 796.95 19.74 797.05 19.73 797.09 19.72 797.12 19.69 797.13 19.67 797.12 19.65 797.09 19.61 797.18 19.63 797.29 19.63 Z" id="NZL-3399" data-name="Bay of Plenty"/>
<path d="M 781.84 36.18 781.74 36.17 781.5 36.1 781.1 36.02 780.91 36.06 780.83 36.06 780.74 36.08 780.66 36.11 780.31 36.33 780.09 36.42 780.05 36.39 780 36.33 779.98 36.28 779.96 36.22 779.97 36.17 779.94 36.12 779.9 36.1 779.81 36.1 779.62 36.13 779.46 36.12 779.39 36.09 779.34 36.05 779.27 35.97 779.2 35.84 779.12 35.68 779.07 35.6 779 35.54 778.93 35.51 778.77 35.53 778.64 35.43 778.58 35.37 778.52 35.38 778.47 35.36 778.42 35.32 778.39 35.17 778.35 35.11 778.29 35.07 778.22 35.05 778.21 35.02 778.2 34.96 778.2 34.56 778.21 34.51 778.25 34.45 778.28 34.41 778.33 34.35 778.38 34.3 778.42 34.24 778.48 34.18 778.5 34.12 778.49 34 778.61 33.89 778.68 33.84 778.76 33.77 779.11 33.57 779.17 33.49 779.22 33.45 779.26 33.39 779.32 33.34 779.38 33.27 779.41 33.22 779.44 33.17 779.5 33.12 779.68 33.01 779.75 32.98 779.97 32.92 780.27 32.79 780.38 32.76 780.46 32.75 780.49 32.76 780.55 32.76 780.77 32.58 781.16 32.36 781.39 32.27 781.47 32.23 781.61 32.05 781.7 32.01 781.74 32.02 781.92 31.98 781.96 31.96 781.99 31.93 782 31.91 782.01 31.87 782.04 31.83 782.14 31.76 782.19 31.74 782.28 31.71 782.35 31.7 782.4 31.7 782.43 31.68 782.48 31.66 782.56 31.63 782.59 31.63 782.61 31.64 782.63 31.64 782.64 31.64 782.65 31.64 782.74 31.62 782.83 31.62 782.91 31.6 783.03 31.61 783.06 31.59 783.08 31.57 783.1 31.55 783.1 31.52 783.13 31.45 783.15 31.4 783.16 31.37 783.17 31.36 783.28 31.33 783.42 31.27 783.43 31.23 783.44 31.21 783.49 31.16 783.55 31.1 783.59 31.07 783.66 31.04 783.69 31.03 783.75 31.03 783.8 31.02 783.85 30.99 783.92 30.95 783.98 30.86 784.08 30.8 784.1 30.78 784.13 30.75 784.17 30.71 784.19 30.69 784.22 30.66 784.25 30.63 784.39 30.55 784.5 30.47 784.57 30.45 784.61 30.45 784.67 30.43 784.69 30.4 784.71 30.38 784.71 30.35 784.74 30.31 784.76 30.28 784.76 30.26 784.78 30.22 784.84 30.21 784.88 30.19 784.92 30.16 785.03 30.07 785.06 30.02 785.12 29.89 785.12 29.86 785.13 29.84 785.15 29.83 785.17 29.82 785.2 29.82 785.22 29.83 785.24 29.83 785.27 29.84 785.3 29.85 785.33 29.92 785.37 29.94 785.42 29.94 785.45 29.94 785.5 29.98 785.52 29.98 785.54 30.01 785.54 30.05 785.57 30.1 785.59 30.13 785.6 30.16 785.59 30.19 785.58 30.22 785.6 30.25 785.64 30.26 785.68 30.27 785.72 30.28 785.75 30.33 785.78 30.36 785.79 30.39 785.81 30.41 785.9 30.46 785.89 30.49 785.88 30.53 785.88 30.55 785.9 30.57 785.94 30.58 785.98 30.59 786.03 30.63 786.07 30.63 786.1 30.61 786.19 30.57 786.23 30.56 786.27 30.54 786.31 30.5 786.37 30.45 786.41 30.38 786.41 30.36 786.35 30.32 786.38 30.29 786.44 30.25 786.51 30.21 786.63 30.12 786.7 30.09 786.91 30.03 786.94 30 786.96 29.96 786.98 29.93 786.98 29.87 787.04 29.74 787.19 29.65 787.24 29.62 787.29 29.59 787.33 29.58 787.39 29.56 787.42 29.53 787.47 29.51 787.5 29.49 787.54 29.42 787.57 29.39 787.61 29.4 787.64 29.43 787.67 29.46 787.69 29.47 787.71 29.46 787.74 29.44 787.79 29.42 787.97 29.39 788.01 29.39 788.05 29.39 788.08 29.41 788.11 29.42 788.17 29.43 788.21 29.43 788.25 29.43 788.27 29.44 788.28 29.45 788.35 29.51 788.18 29.65 788.11 29.73 788.08 29.78 788.07 29.83 788.07 29.89 788.06 29.93 788.04 29.95 788.03 29.98 788.01 30.01 788.01 30.02 787.97 30.06 787.92 30.12 787.88 30.15 787.78 30.2 787.73 30.23 787.66 30.32 787.65 30.32 787.63 30.33 787.6 30.32 787.58 30.36 787.57 30.38 787.54 30.39 787.52 30.41 787.5 30.43 787.5 30.46 787.51 30.48 787.55 30.52 787.56 30.54 787.55 30.56 787.53 30.57 787.48 30.52 787.46 30.51 787.42 30.51 787.4 30.51 787.35 30.55 787.32 30.55 787.3 30.57 787.18 30.68 787.13 30.76 787.1 30.86 787.05 30.94 786.95 30.98 786.95 31 786.96 31 786.97 31 786.98 31.01 787 31.01 786.82 31.29 786.8 31.37 786.76 31.42 786.72 31.46 786.65 31.48 786.65 31.51 786.66 31.55 786.66 31.57 786.66 31.59 786.66 31.6 786.64 31.63 786.62 31.65 786.6 31.65 786.59 31.67 786.58 31.7 786.57 31.71 786.55 31.73 786.45 31.77 786.43 31.78 786.37 31.79 786.27 31.82 786.26 31.84 786.25 31.87 786.24 31.89 786.22 31.9 786.12 31.96 785.81 32.02 785.74 32.05 785.68 32.1 785.51 32.19 785.48 32.24 785.42 32.33 785.37 32.39 785.36 32.41 785.37 32.44 785.38 32.47 785.37 32.52 785.36 32.58 785.35 32.7 785.34 32.71 785.33 32.74 785.33 32.79 785.37 32.93 785.44 33.06 785.43 33.1 785.4 33.07 785.38 33.07 785.37 33.08 785.38 33.11 785.42 33.13 785.55 33.16 785.49 33.18 785.34 33.19 785.28 33.21 785.22 33.24 785.24 33.26 785.31 33.27 785.35 33.28 785.4 33.24 785.48 33.22 785.56 33.22 785.6 33.23 785.61 33.26 785.63 33.29 785.65 33.31 785.66 33.3 785.67 33.25 785.69 33.19 785.75 33.22 785.76 33.24 785.77 33.27 785.76 33.34 785.77 33.35 785.8 33.34 785.82 33.33 785.84 33.3 785.85 33.28 785.88 33.26 785.92 33.27 785.95 33.28 785.98 33.3 785.99 33.33 786.05 33.28 786.08 33.26 786.08 33.3 786.11 33.33 786.14 33.34 786.17 33.37 786.17 33.39 786.16 33.41 786.15 33.42 786.15 33.43 786.16 33.45 786.18 33.47 786.18 33.48 786.19 33.54 786.18 33.61 786.17 33.67 786.14 33.73 786.11 33.7 786.05 33.75 786.01 33.74 786 33.79 786 33.8 785.98 33.78 785.96 33.78 785.94 33.79 785.92 33.8 785.91 33.77 785.88 33.72 785.88 33.7 785.88 33.66 785.88 33.64 785.88 33.62 785.85 33.6 785.84 33.57 785.85 33.53 785.84 33.51 785.81 33.5 785.78 33.5 785.77 33.53 785.77 33.55 785.8 33.57 785.77 33.63 785.77 33.69 785.79 33.75 785.86 33.84 785.85 33.84 785.8 33.83 785.65 33.83 785.62 33.82 785.57 33.77 785.52 33.79 785.49 33.77 785.45 33.73 785.36 33.66 785.36 33.63 785.4 33.59 785.36 33.59 785.3 33.61 785.12 33.63 785.06 33.66 784.93 33.66 784.73 33.72 784.64 33.73 784.62 33.72 784.63 33.69 784.65 33.68 784.68 33.67 784.74 33.66 785.07 33.58 785.11 33.57 785.14 33.57 785.13 33.55 785.06 33.52 785.04 33.51 784.96 33.52 784.93 33.51 784.91 33.5 784.88 33.47 784.87 33.45 784.81 33.43 784.75 33.44 784.69 33.45 784.63 33.46 784.59 33.49 784.57 33.54 784.56 33.61 784.56 33.66 784.56 33.7 784.57 33.71 784.56 33.72 784.54 33.75 784.51 33.76 784.32 33.78 784.3 33.78 784.25 33.79 784.21 33.82 784.11 33.85 784.06 33.88 783.83 33.95 783.4 34.18 783.33 34.19 783.3 34.19 783.26 34.19 783.23 34.2 783.07 34.29 782.98 34.3 782.95 34.31 782.92 34.33 782.9 34.35 782.87 34.36 782.81 34.38 782.75 34.41 782.73 34.42 782.69 34.43 782.65 34.46 782.63 34.48 782.61 34.5 782.55 34.51 782.53 34.53 782.39 34.63 782.33 34.66 782.29 34.64 782.26 34.66 782.23 34.67 782.21 34.7 782.2 34.72 782.08 34.88 782.07 34.91 782.07 35.04 782.06 35.08 782.03 35.11 781.97 35.17 781.96 35.19 781.96 35.21 781.95 35.23 781.93 35.24 781.91 35.25 781.85 35.28 781.9 35.32 781.91 35.4 781.91 35.56 781.93 35.67 781.94 35.71 781.92 35.75 781.9 35.77 781.87 35.78 781.85 35.81 781.91 35.82 781.93 35.87 781.93 35.94 781.91 36.08 781.89 36.12 781.86 36.15 781.84 36.18 Z" id="NZL-3400" data-name="Canterbury"/>
<path d="M 789.06 27.66 789.05 27.69 789.03 27.75 789.02 27.78 788.98 27.8 788.95 27.8 788.9 27.79 788.86 27.8 788.83 27.81 788.78 27.84 788.76 27.86 788.72 27.86 788.61 27.86 788.61 27.86 788.62 27.85 788.64 27.83 788.65 27.83 788.67 27.82 788.73 27.83 788.75 27.82 788.86 27.72 788.9 27.75 788.95 27.73 788.99 27.7 788.99 27.66 788.96 27.67 788.93 27.67 788.91 27.65 788.89 27.63 788.93 27.62 788.96 27.61 788.99 27.59 789.02 27.58 789.06 27.58 789.06 27.6 789.06 27.63 789.06 27.66 Z M 788.22 27.13 788.24 27.19 788.21 27.2 788.1 27.18 788.11 27.21 788.1 27.23 788.08 27.24 788.07 27.27 788.04 27.27 788.02 27.26 788 27.27 787.97 27.29 787.99 27.3 787.99 27.31 788 27.32 788.02 27.32 787.98 27.35 787.91 27.36 787.84 27.37 787.81 27.34 787.77 27.34 787.71 27.35 787.68 27.37 787.73 27.41 787.7 27.43 787.68 27.45 787.68 27.46 787.71 27.47 787.71 27.5 787.69 27.53 787.67 27.55 787.65 27.57 787.67 27.58 787.7 27.59 787.72 27.58 787.73 27.54 787.78 27.48 787.78 27.47 787.93 27.45 788.01 27.45 788.07 27.47 788.04 27.47 788.02 27.48 788.01 27.49 788.01 27.51 788 27.53 787.98 27.53 787.96 27.52 787.94 27.52 787.93 27.52 787.92 27.51 787.9 27.51 787.9 27.53 787.9 27.53 787.91 27.55 787.91 27.56 787.91 27.58 787.9 27.59 787.89 27.59 787.87 27.58 787.85 27.63 787.82 27.65 787.78 27.66 787.76 27.69 787.8 27.69 787.84 27.7 787.87 27.72 787.88 27.76 787.88 27.78 787.86 27.83 787.85 27.86 787.82 27.88 787.76 27.91 787.64 27.93 787.65 27.96 787.66 27.98 787.68 27.99 787.7 27.99 787.94 27.89 788.02 27.87 788.02 27.86 787.99 27.85 787.96 27.85 787.93 27.85 787.91 27.83 788.01 27.82 788.06 27.82 788.09 27.83 788.13 27.84 788.18 27.84 788.23 27.83 788.27 27.81 788.25 27.8 788.22 27.78 788.35 27.79 788.42 27.77 788.47 27.73 788.21 27.74 788.18 27.75 788.17 27.76 788.17 27.77 788.17 27.77 788.14 27.78 788.13 27.78 788.12 27.78 788.11 27.77 788.1 27.76 788.11 27.73 787.99 27.77 787.93 27.77 787.91 27.7 787.93 27.67 787.95 27.65 787.98 27.63 788.01 27.61 788.01 27.6 788.01 27.58 788.01 27.57 788.02 27.57 788.04 27.56 788.05 27.56 788.06 27.54 788.05 27.52 788.13 27.53 788.11 27.57 788.1 27.6 788.11 27.67 788.15 27.62 788.17 27.57 788.2 27.55 788.27 27.55 788.23 27.51 788.22 27.48 788.26 27.44 788.26 27.41 788.24 27.38 788.21 27.38 788.19 27.4 788.18 27.44 788.17 27.46 788.14 27.45 788.07 27.39 788.05 27.37 788.13 27.37 788.11 27.34 788.11 27.32 788.12 27.31 788.16 27.32 788.16 27.27 788.2 27.29 788.28 27.35 788.33 27.37 788.38 27.38 788.42 27.37 788.45 27.33 788.49 27.36 788.53 27.35 788.55 27.32 788.54 27.27 788.58 27.28 788.61 27.31 788.64 27.34 788.65 27.37 788.65 27.4 788.65 27.42 788.64 27.42 788.59 27.43 788.58 27.44 788.58 27.45 788.59 27.47 788.63 27.5 788.67 27.49 788.71 27.46 788.76 27.41 788.85 27.34 788.88 27.33 788.9 27.36 788.88 27.4 788.76 27.54 788.75 27.56 788.75 27.61 788.74 27.63 788.73 27.62 788.7 27.63 788.68 27.65 788.68 27.66 788.67 27.66 788.65 27.67 788.63 27.67 788.62 27.65 788.62 27.56 788.61 27.55 788.6 27.56 788.58 27.59 788.57 27.61 788.54 27.6 788.54 27.62 788.56 27.65 788.57 27.67 788.62 27.71 788.64 27.73 788.65 27.76 788.64 27.77 788.61 27.78 788.6 27.78 788.6 27.77 788.56 27.8 788.54 27.81 788.53 27.82 788.51 27.84 788.48 27.84 788.36 27.84 788.3 27.85 788.27 27.89 788.24 27.87 788.21 27.87 788.19 27.88 788.18 27.9 788.14 27.89 788.1 27.9 788.06 27.92 788.03 27.94 788.02 27.97 788.07 27.97 788.14 27.95 788.16 27.94 788.21 27.95 788.24 27.94 788.27 27.92 788.31 27.9 788.34 27.9 788.36 27.91 788.39 27.91 788.43 27.89 788.48 27.88 788.5 27.87 788.52 27.89 788.55 27.91 788.58 27.93 788.61 27.93 788.64 27.93 788.67 27.91 788.7 27.9 788.76 27.9 788.8 27.88 788.89 27.83 788.87 27.88 788.83 27.93 788.82 27.95 788.77 27.98 788.75 28 788.74 28.02 788.73 28.05 788.72 28.06 788.65 28.08 788.59 28.11 788.56 28.12 788.57 28.09 788.61 28.05 788.61 28.03 788.59 28.03 788.54 28.06 788.51 28.06 788.53 28.02 788.46 28.06 788.42 28.11 788.39 28.18 788.34 28.24 788.29 28.29 788.28 28.32 788.28 28.36 788.31 28.43 788.31 28.46 788.3 28.5 788.34 28.51 788.36 28.53 788.38 28.56 788.37 28.58 788.38 28.59 788.4 28.6 788.42 28.59 788.44 28.55 788.42 28.54 788.4 28.49 788.4 28.46 788.43 28.48 788.55 28.64 788.56 28.67 788.57 28.7 788.58 28.72 788.59 28.76 788.59 28.78 788.64 28.91 788.65 28.92 788.67 28.96 788.72 28.98 788.78 28.99 788.82 28.98 788.81 29.03 788.65 29.26 788.61 29.3 788.35 29.51 788.35 29.51 788.28 29.45 788.27 29.44 788.25 29.43 788.21 29.43 788.17 29.43 788.11 29.42 788.08 29.41 788.05 29.39 788.01 29.39 787.97 29.39 787.79 29.42 787.74 29.44 787.71 29.46 787.69 29.47 787.67 29.46 787.64 29.43 787.61 29.4 787.57 29.39 787.54 29.42 787.5 29.49 787.47 29.51 787.42 29.53 787.39 29.56 787.33 29.58 787.29 29.59 787.24 29.62 787.19 29.65 787.04 29.74 786.98 29.87 786.98 29.93 786.96 29.96 786.94 30 786.91 30.03 786.7 30.09 786.63 30.12 786.51 30.21 786.44 30.25 786.38 30.29 786.35 30.32 786.41 30.36 786.41 30.38 786.37 30.45 786.31 30.5 786.27 30.54 786.23 30.56 786.19 30.57 786.1 30.61 786.07 30.63 786.03 30.63 785.98 30.59 785.94 30.58 785.9 30.57 785.88 30.55 785.88 30.53 785.89 30.49 785.9 30.46 785.81 30.41 785.79 30.39 785.78 30.36 785.75 30.33 785.72 30.28 785.68 30.27 785.64 30.26 785.6 30.25 785.58 30.22 785.59 30.19 785.6 30.16 785.59 30.13 785.57 30.1 785.54 30.05 785.54 30.01 785.52 29.98 785.5 29.98 785.45 29.94 785.42 29.94 785.37 29.94 785.33 29.92 785.3 29.85 785.27 29.84 785.35 29.64 785.58 29.43 785.6 29.39 785.62 29.27 785.65 29.2 785.72 29.11 785.76 29.08 785.77 29.05 785.79 29.02 785.92 28.93 786.02 28.84 786.08 28.76 786.26 28.61 786.32 28.54 786.42 28.51 786.47 28.51 786.52 28.49 786.54 28.46 786.53 28.41 786.53 28.35 786.54 28.3 786.55 28.27 786.57 28.21 786.63 28.2 786.7 28.16 786.8 28.08 787 27.85 787.09 27.78 787.16 27.72 787.19 27.67 787.23 27.6 787.25 27.52 787.25 27.48 787.25 27.47 787.28 27.46 787.32 27.47 787.35 27.5 787.38 27.54 787.38 27.58 787.39 27.58 787.41 27.56 787.42 27.55 787.43 27.56 787.44 27.58 787.47 27.57 787.44 27.51 787.47 27.49 787.53 27.47 787.58 27.45 787.6 27.43 787.6 27.4 787.58 27.39 787.55 27.38 787.47 27.43 787.45 27.42 787.45 27.39 787.46 27.38 787.49 27.34 787.51 27.33 787.56 27.31 787.58 27.3 787.61 27.29 787.72 27.27 787.73 27.26 787.78 27.2 787.84 27.18 787.83 27.28 787.88 27.29 787.89 27.28 787.96 27.23 787.97 27.22 787.97 27.19 787.97 27.18 787.99 27.17 788.02 27.17 788.13 27.12 788.15 27.12 788.18 27.12 788.2 27.12 788.22 27.13 Z M 788.07 26.84 788.08 26.87 788.09 26.88 788.08 26.89 788.06 26.89 788.03 26.93 788.02 26.94 788.01 26.96 788 27.02 787.99 27.04 787.98 27.05 787.94 27.04 787.92 27.05 787.9 27.08 787.88 27.09 787.83 27.1 787.81 27.11 787.8 27.13 787.8 27.14 787.79 27.15 787.76 27.17 787.73 27.18 787.7 27.18 787.67 27.17 787.68 27.16 787.68 27.15 787.68 27.14 787.68 27.13 787.71 27.12 787.72 27.11 787.73 27.08 787.71 27.06 787.69 27.08 787.68 27.09 787.67 27.06 787.67 27.03 787.67 27.01 787.68 26.98 787.72 27.01 787.74 27.03 787.78 27.05 787.82 27.06 787.82 27.04 787.79 27.03 787.77 27 787.75 26.97 787.75 26.94 787.75 26.9 787.78 26.82 787.79 26.8 787.8 26.8 787.81 26.82 787.81 26.84 787.84 26.84 787.85 26.81 787.86 26.79 787.88 26.78 787.91 26.8 787.91 26.83 787.9 26.87 787.91 26.91 787.93 26.89 788 26.87 788.04 26.84 787.96 26.84 788.01 26.81 788.03 26.79 788.05 26.77 788.08 26.7 788.09 26.69 788.1 26.72 788.1 26.76 788.09 26.79 788.07 26.84 Z" fill-rule="evenodd" id="NZL-3401" data-name="Marlborough District"/>
<path d="M 786.57 28.21 786.49 28.18 786.4 28.12 786.35 28.06 786.34 28.04 786.36 28.03 786.41 28.02 786.49 27.96 786.57 27.93 786.6 27.89 786.69 27.8 786.83 27.7 786.89 27.68 786.91 27.65 786.93 27.64 786.95 27.65 786.95 27.67 786.94 27.69 786.93 27.7 787.01 27.68 787.05 27.66 787.08 27.63 787.12 27.58 787.13 27.57 787.15 27.56 787.17 27.57 787.19 27.57 787.21 27.55 787.19 27.53 787.21 27.49 787.25 27.47 787.25 27.47 787.25 27.48 787.25 27.52 787.23 27.6 787.19 27.67 787.16 27.72 787.09 27.78 787 27.85 786.8 28.08 786.7 28.16 786.63 28.2 786.57 28.21 Z" id="NZL-3402" data-name="Nelson City"/>
<path d="M 786.34 28.04 786.35 28.06 786.4 28.12 786.49 28.18 786.57 28.21 786.55 28.27 786.54 28.3 786.53 28.35 786.53 28.41 786.54 28.46 786.52 28.49 786.47 28.51 786.42 28.51 786.32 28.54 786.26 28.61 786.08 28.76 786.02 28.84 785.92 28.93 785.79 29.02 785.77 29.05 785.76 29.08 785.72 29.11 785.65 29.2 785.62 29.27 785.6 29.39 785.58 29.43 785.35 29.64 785.27 29.84 785.24 29.83 785.22 29.83 785.2 29.82 785.17 29.82 785.15 29.83 785.13 29.84 785.12 29.86 785.12 29.89 785.06 30.02 785.03 30.07 784.92 30.16 784.88 30.19 784.84 30.21 784.78 30.22 784.74 30.21 784.72 30.21 784.69 30.22 784.68 30.22 784.67 30.24 784.66 30.25 784.65 30.26 784.63 30.27 784.61 30.28 784.58 30.26 784.54 30.23 784.5 30.15 784.48 30.1 784.46 30.01 784.45 29.97 784.42 29.94 784.38 29.92 784.35 29.92 784.3 29.92 784.27 29.92 784.25 29.91 784.23 29.9 784.22 29.89 784.21 29.88 784.2 29.87 784.18 29.84 784.16 29.82 784.13 29.81 784.07 29.82 784.04 29.81 784.01 29.8 783.99 29.77 783.97 29.74 783.97 29.69 783.97 29.66 783.96 29.64 783.94 29.62 783.92 29.61 783.9 29.6 783.88 29.58 783.85 29.53 783.84 29.5 783.84 29.48 783.86 29.37 783.92 29.33 783.94 29.3 783.96 29.24 783.97 29.19 783.96 29.15 783.96 29.13 783.95 29.11 783.94 29.09 783.94 29.08 783.95 29.04 783.96 29.01 783.98 28.99 784.03 28.96 784.06 28.94 784.1 28.93 784.21 28.92 784.24 28.91 784.24 28.88 784.24 28.85 784.24 28.82 784.27 28.8 784.32 28.78 784.36 28.77 784.39 28.74 784.42 28.69 784.44 28.63 784.47 28.54 784.48 28.51 784.5 28.49 784.61 28.43 784.63 28.4 784.64 28.38 784.64 28.35 784.61 28.33 784.61 28.31 784.62 28.3 784.65 28.28 784.68 28.27 784.71 28.27 784.8 28.29 784.83 28.29 784.87 28.28 784.92 28.26 784.96 28.22 784.99 28.19 785 28.14 784.99 28.11 785 28.07 785.01 28.04 785.01 28.02 785 28.01 784.97 27.98 784.97 27.96 784.99 27.94 785.15 27.9 785.25 27.83 785.26 27.81 785.26 27.79 785.24 27.78 785.19 27.76 785.08 27.73 785.05 27.72 785.02 27.7 784.93 27.63 784.9 27.61 784.87 27.61 784.85 27.6 784.83 27.58 784.82 27.56 784.8 27.54 784.79 27.52 784.78 27.49 784.76 27.47 784.73 27.45 784.71 27.44 784.66 27.44 784.59 27.45 784.57 27.45 784.55 27.44 784.53 27.44 784.51 27.45 784.46 27.5 784.44 27.5 784.42 27.48 784.41 27.42 784.42 27.38 784.44 27.35 784.46 27.34 784.48 27.31 784.49 27.29 784.49 27.26 784.46 27.23 784.44 27.21 784.41 27.19 784.39 27.16 784.37 27.12 784.35 27.1 784.28 27.05 784.26 27.02 784.23 26.87 784.22 26.84 784.25 26.85 784.26 26.84 784.29 26.82 784.35 26.79 784.38 26.78 784.39 26.77 784.51 26.71 784.73 26.5 784.83 26.42 784.91 26.4 784.87 26.47 784.87 26.5 784.9 26.51 784.91 26.5 784.93 26.48 784.94 26.46 784.98 26.47 785 26.47 785.02 26.46 785.03 26.45 785.02 26.41 785.09 26.39 785.09 26.37 785.07 26.35 785.06 26.34 785.03 26.36 785 26.37 784.97 26.38 784.94 26.37 785.03 26.29 785.13 26.25 785.57 26.23 785.72 26.24 785.85 26.27 785.92 26.28 785.87 26.29 785.39 26.26 785.35 26.27 785.33 26.29 785.31 26.34 785.29 26.43 785.26 26.47 785.23 26.49 785.25 26.54 785.24 26.56 785.21 26.56 785.17 26.55 785.2 26.61 785.21 26.62 785.25 26.63 785.26 26.64 785.26 26.68 785.23 26.75 785.25 26.78 785.26 26.77 785.31 26.75 785.34 26.82 785.42 26.88 785.61 26.99 785.64 27 785.67 26.99 785.72 26.96 785.73 26.95 785.76 26.95 785.77 26.95 785.77 26.92 785.77 26.91 785.8 26.88 785.82 26.88 785.85 26.91 785.87 26.87 785.91 26.85 785.94 26.85 785.97 26.89 785.98 26.92 785.98 26.94 785.97 26.98 785.98 27 785.98 27.02 785.95 27.04 785.99 27.05 786.02 27.05 786.05 27.06 786.08 27.09 786.07 27.1 786.05 27.2 786.05 27.24 786.06 27.26 786.06 27.27 786.03 27.3 785.98 27.35 785.92 27.38 785.94 27.39 785.96 27.39 785.98 27.39 786 27.38 786.03 27.49 786.03 27.53 786.04 27.56 786.07 27.59 786.09 27.62 786.08 27.66 786.07 27.64 786.05 27.62 786.04 27.6 786.01 27.6 786 27.68 786.01 27.7 786.04 27.72 786.05 27.74 786.06 27.76 786.08 27.76 786.1 27.74 786.12 27.77 786.14 27.86 786.17 27.92 786.17 27.93 786.15 27.95 786.12 27.96 786.11 27.98 786.12 28.01 786.16 28.03 786.21 28.04 786.32 28.04 786.34 28.04 Z" id="NZL-3403" data-name="Tasman District"/>
<path d="M 789.63 16.46 789.59 16.48 789.38 16.63 789.31 16.67 789.29 16.69 789.26 16.7 789.23 16.71 789.22 16.71 789.19 16.71 789.17 16.72 789.12 16.76 789.09 16.78 789.08 16.75 789.04 16.77 789 16.8 788.96 16.82 788.9 16.81 788.87 16.8 788.85 16.79 788.84 16.75 788.86 16.74 788.93 16.76 788.96 16.79 788.98 16.79 788.99 16.73 789.03 16.66 789.08 16.61 789.09 16.58 789.1 16.57 789.1 16.55 789.11 16.51 789.15 16.53 789.17 16.52 789.18 16.5 789.15 16.47 789.13 16.46 789.05 16.44 789.06 16.51 789.03 16.58 788.97 16.64 788.91 16.67 788.94 16.63 788.96 16.62 788.93 16.62 788.91 16.62 788.89 16.62 788.88 16.6 788.87 16.56 788.86 16.56 788.84 16.56 788.82 16.56 788.8 16.55 788.78 16.55 788.77 16.55 788.77 16.51 788.78 16.49 788.78 16.47 788.8 16.42 788.77 16.43 788.74 16.44 788.7 16.48 788.71 16.42 788.67 16.42 788.57 16.48 788.6 16.5 788.6 16.55 788.63 16.56 788.67 16.56 788.7 16.56 788.72 16.58 788.74 16.61 788.73 16.64 788.73 16.66 788.75 16.67 788.77 16.66 788.78 16.65 788.79 16.63 788.82 16.63 788.84 16.65 788.88 16.7 788.8 16.72 788.79 16.72 788.78 16.74 788.77 16.75 788.75 16.76 788.73 16.76 788.71 16.75 788.68 16.72 788.66 16.71 788.63 16.71 788.62 16.7 788.57 16.64 788.55 16.61 788.52 16.57 788.48 16.55 788.44 16.54 788.33 16.54 788.31 16.52 788.3 16.5 788.27 16.47 788.23 16.45 788.2 16.44 788.16 16.42 788.15 16.38 788.14 16.29 788.13 16.26 788.07 16.2 788.04 16.14 788.01 16.11 787.94 16.07 788.03 16.01 788.05 15.97 788.04 15.92 788.02 15.9 788 15.88 787.98 15.87 787.96 15.87 787.96 15.9 787.97 15.92 787.99 15.94 788.01 15.95 787.99 16 787.91 16.03 787.9 16.07 788.01 16.2 788.03 16.22 788.08 16.25 788.09 16.3 788.1 16.36 788.12 16.4 788.14 16.42 788.17 16.47 788.18 16.49 788.2 16.5 788.23 16.51 788.26 16.53 788.28 16.57 788.3 16.59 788.32 16.6 788.34 16.61 788.46 16.77 788.49 16.78 788.52 16.78 788.55 16.78 788.57 16.81 788.53 16.82 788.55 16.85 788.6 16.89 788.62 16.94 788.6 16.98 788.56 17.01 788.45 17.05 788.35 17.05 788.29 16.97 788.22 16.76 787.93 16.44 787.85 16.31 787.35 15.75 786.84 15.2 786.83 15.16 786.84 15.12 786.92 15.04 786.93 15 786.94 14.95 786.95 14.9 786.98 14.87 787.03 14.89 787.04 14.87 787.04 14.86 787.06 14.88 787.08 14.9 787.11 14.93 787.14 14.94 787.15 14.92 787.14 14.84 787.15 14.81 787.21 14.89 787.22 14.85 787.22 14.81 787.23 14.77 787.27 14.74 787.29 14.73 787.31 14.75 787.32 14.75 787.35 14.74 787.36 14.72 787.37 14.67 787.41 14.62 787.33 14.64 787.3 14.64 787.3 14.61 787.3 14.59 787.29 14.58 787.26 14.58 787.26 14.59 787.26 14.68 787.23 14.64 787.19 14.54 787.15 14.57 787.16 14.61 787.19 14.65 787.21 14.69 787.2 14.73 787.16 14.75 787.12 14.75 787.06 14.72 787.04 14.72 787.02 14.72 787.05 14.77 787.03 14.78 787.01 14.78 786.99 14.79 786.97 14.8 786.95 14.79 786.93 14.76 786.91 14.76 786.88 14.77 786.84 14.8 786.86 14.83 786.85 14.84 786.82 14.85 786.8 14.87 786.8 14.89 786.8 14.9 786.81 14.91 786.81 14.9 786.8 15.07 786.8 15.09 786.78 15.09 786.76 15.08 786.57 14.86 786.54 14.8 786.55 14.76 786.63 14.69 786.61 14.69 786.58 14.69 786.57 14.69 786.61 14.65 786.63 14.62 786.64 14.6 786.57 14.61 786.53 14.64 786.51 14.69 786.49 14.75 786.46 14.74 786.39 14.67 786.38 14.64 786.4 14.63 786.48 14.58 786.5 14.55 786.47 14.54 786.41 14.57 786.37 14.58 786.33 14.57 786.3 14.55 786.24 14.49 786.15 14.41 786.14 14.39 786.14 14.34 786.17 14.33 786.22 14.34 786.26 14.35 786.33 14.27 786.37 14.17 786.38 14.05 786.35 13.94 786.28 13.8 786.25 13.76 786.12 13.65 786.08 13.6 786.01 13.46 785.98 13.43 785.94 13.42 785.48 12.92 785.39 12.85 785.2 12.76 785.22 12.74 785.24 12.73 785.26 12.68 785.26 12.67 785.25 12.63 785.27 12.61 785.3 12.63 785.35 12.65 785.48 12.66 785.54 12.68 785.57 12.66 785.64 12.65 785.71 12.61 785.96 12.63 786 12.62 786.02 12.6 786.05 12.58 786.07 12.58 786.11 12.61 786.04 12.64 786.03 12.69 786.03 12.81 786.02 12.84 786.02 12.85 786 12.86 785.96 12.87 785.95 12.85 785.94 12.83 785.92 12.8 785.89 12.79 785.9 12.78 785.9 12.75 785.91 12.74 785.86 12.73 785.85 12.73 785.83 12.79 785.82 12.84 785.81 12.85 785.77 12.83 785.77 12.86 785.76 12.87 785.74 12.89 785.72 12.9 785.75 12.92 785.82 12.96 785.82 12.94 785.83 12.92 785.85 12.9 785.88 12.9 785.86 12.93 785.86 12.95 785.85 12.96 785.87 12.97 785.89 12.98 785.91 12.97 785.92 12.94 785.94 12.97 785.94 13 785.94 13.13 785.95 13.14 785.97 13.13 785.99 13.08 786 13.01 785.99 12.94 785.95 12.9 786.01 12.92 786.04 13.03 786.07 13.16 786.09 13.25 786.16 13.32 786.26 13.39 786.33 13.46 786.35 13.56 786.24 13.45 786.2 13.42 786.21 13.5 786.3 13.58 786.6 13.72 786.59 13.75 786.54 13.79 786.53 13.81 786.52 13.84 786.52 13.93 786.53 13.94 786.54 13.94 786.57 13.94 786.64 13.96 786.66 13.96 786.67 13.94 786.68 13.91 786.69 13.89 786.73 13.88 786.75 13.85 786.75 13.79 786.72 13.68 786.73 13.63 786.77 13.61 786.83 13.61 786.88 13.58 786.9 13.55 786.89 13.52 786.88 13.5 786.88 13.49 786.9 13.47 786.92 13.47 786.94 13.48 786.95 13.51 786.95 13.53 786.95 13.55 786.93 13.59 787 13.56 787.03 13.56 787.01 13.58 787.02 13.6 787.06 13.63 786.96 13.66 786.87 13.66 786.85 13.67 786.83 13.71 786.84 13.75 786.87 13.79 786.89 13.82 786.92 13.85 786.96 13.88 787 13.9 787.05 13.91 787.16 13.9 787.2 13.91 787.24 13.96 787.27 13.92 787.27 13.91 787.25 13.88 787.22 13.86 787.2 13.84 787.19 13.8 787.22 13.76 787.25 13.76 787.28 13.78 787.3 13.82 787.33 13.79 787.36 13.79 787.38 13.8 787.41 13.85 787.44 13.86 787.51 13.86 787.51 13.86 787.52 13.85 787.53 13.84 787.55 13.83 787.57 13.84 787.57 13.85 787.57 13.86 787.58 13.88 787.59 13.89 787.59 13.91 787.6 13.92 787.62 13.92 787.64 13.93 787.65 13.93 787.68 13.94 787.66 13.95 787.64 13.97 787.63 14 787.62 14.02 787.57 14.05 787.55 14.07 787.55 14.09 787.63 14.14 787.68 14.14 787.69 14.13 787.68 14.11 787.68 14.09 787.73 14.02 787.73 14 787.73 13.97 787.73 13.96 787.75 13.94 787.78 13.94 787.82 13.92 787.86 13.92 787.92 13.92 787.92 13.94 787.94 13.96 787.97 14 788.06 14.06 788.1 14.09 788.11 14.15 788.14 14.19 788.21 14.2 788.34 14.19 788.4 14.2 788.45 14.23 788.5 14.27 788.51 14.33 788.42 14.35 788.39 14.35 788.39 14.33 788.39 14.3 788.38 14.28 788.36 14.28 788.35 14.29 788.32 14.29 788.3 14.26 788.24 14.29 788.22 14.3 788.24 14.32 788.28 14.37 788.21 14.38 788.2 14.41 788.23 14.43 788.28 14.41 788.3 14.43 788.33 14.43 788.35 14.43 788.38 14.41 788.4 14.45 788.4 14.48 788.38 14.51 788.38 14.54 788.39 14.56 788.47 14.64 788.49 14.66 788.49 14.68 788.5 14.74 788.5 14.75 788.52 14.73 788.54 14.69 788.54 14.66 788.59 14.68 788.61 14.69 788.64 14.69 788.63 14.68 788.62 14.65 788.62 14.64 788.65 14.64 788.67 14.65 788.69 14.67 788.7 14.68 788.72 14.67 788.73 14.64 788.72 14.62 788.7 14.61 788.65 14.61 788.59 14.6 788.53 14.57 788.51 14.54 788.53 14.55 788.56 14.53 788.61 14.52 788.73 14.54 788.72 14.51 788.71 14.51 788.73 14.5 788.76 14.51 788.79 14.51 788.79 14.52 788.81 14.51 788.81 14.5 788.81 14.49 788.83 14.47 788.89 14.42 788.96 14.37 788.97 14.42 788.95 14.47 788.92 14.51 788.91 14.57 788.93 14.62 788.97 14.64 789.01 14.65 789.06 14.64 789.06 14.66 789.04 14.69 789.11 14.76 789.08 14.78 789.06 14.78 789 14.72 788.93 14.68 788.91 14.66 788.95 14.71 789.03 14.86 789.08 14.89 789.13 14.9 789.17 14.9 789.17 14.9 789.17 14.9 789.18 14.89 789.19 14.89 789.2 14.9 789.2 14.92 789.21 14.92 789.23 14.94 789.28 15.02 789.29 15.04 789.21 15.05 789.22 15.08 789.33 15.16 789.44 15.25 789.46 15.3 789.43 15.38 789.4 15.36 789.3 15.35 789.26 15.35 789.23 15.36 789.27 15.39 789.35 15.43 789.34 15.43 789.31 15.44 789.37 15.45 789.39 15.46 789.4 15.48 789.39 15.5 789.37 15.52 789.35 15.53 789.32 15.53 789.46 15.6 789.48 15.62 789.48 15.65 789.46 15.71 789.47 15.73 789.52 15.81 789.46 15.82 789.42 15.8 789.37 15.76 789.32 15.73 789.34 15.69 789.28 15.68 789.28 15.64 789.24 15.64 789.19 15.66 789.15 15.67 789.14 15.67 789.12 15.65 789.1 15.64 789.09 15.65 789.07 15.68 789.06 15.69 789.03 15.69 789.02 15.68 789.03 15.67 789.03 15.62 789.03 15.59 789.01 15.57 789 15.54 788.97 15.52 788.96 15.57 788.97 15.69 788.96 15.73 788.95 15.75 788.95 15.78 788.96 15.81 788.97 15.82 789.01 15.83 789.03 15.81 789.04 15.78 789.06 15.76 789.1 15.75 789.24 15.77 789.29 15.78 789.33 15.82 789.32 15.86 789.28 15.91 789.23 15.95 789.27 15.98 789.28 16.03 789.27 16.09 789.28 16.13 789.31 16.16 789.41 16.22 789.45 16.24 789.47 16.24 789.53 16.24 789.56 16.25 789.58 16.28 789.57 16.3 789.56 16.32 789.56 16.35 789.57 16.4 789.59 16.43 789.62 16.45 789.63 16.46 Z" id="NZL-3404" data-name="Northland"/>
<path d="M 790.11 22.37 790.07 22.39 790.02 22.4 790.01 22.41 790 22.42 789.95 22.5 789.97 22.59 790.03 22.66 790.11 22.63 790.15 22.69 790.14 22.76 790.16 22.82 790.21 22.87 790.3 22.88 790.34 22.94 790.34 23.01 790.49 23.04 790.53 23.07 790.55 23.1 790.53 23.12 790.49 23.11 790.46 23.11 790.27 23.31 790.23 23.38 790.19 23.4 790.14 23.41 790.08 23.46 790.04 23.53 790.02 23.57 790.01 23.6 790.11 23.65 790.16 23.67 790.17 23.7 790.16 23.73 790.14 23.75 790.15 23.8 790.17 23.84 790.23 23.91 790.34 23.98 790.37 24.05 790.39 24.11 790.35 24.21 790.35 24.32 790.37 24.34 790.39 24.36 790.34 24.39 790.29 24.4 790.27 24.41 790.26 24.42 790.26 24.47 790.26 24.5 790.23 24.54 790.18 24.55 790.11 24.59 790.06 24.64 790 24.67 789.95 24.7 789.89 24.79 789.81 24.79 789.63 24.74 789.49 24.73 789.44 24.72 789.38 24.69 789.14 24.52 789.1 24.48 788.97 24.32 788.88 24.24 788.77 24.19 788.65 24.16 788.27 24.12 788.14 24.08 787.83 23.91 787.75 23.84 787.68 23.75 787.64 23.64 787.63 23.54 787.64 23.44 787.67 23.33 787.74 23.23 787.84 23.17 788.07 23.09 788.64 22.81 788.69 22.8 788.99 22.81 789.09 22.79 789.19 22.73 789.46 22.51 789.49 22.46 789.51 22.38 789.53 22.33 789.54 22.3 789.54 22.23 789.55 22.21 789.71 22.28 789.9 22.29 789.95 22.28 789.98 22.28 790.01 22.3 790.05 22.34 790.11 22.37 Z" id="NZL-3405" data-name="Taranaki"/>
<path d="M 784.22 26.84 784.23 26.87 784.26 27.02 784.28 27.05 784.35 27.1 784.37 27.12 784.39 27.16 784.41 27.19 784.44 27.21 784.46 27.23 784.49 27.26 784.49 27.29 784.48 27.31 784.46 27.34 784.44 27.35 784.42 27.38 784.41 27.42 784.42 27.48 784.44 27.5 784.46 27.5 784.51 27.45 784.53 27.44 784.55 27.44 784.57 27.45 784.59 27.45 784.66 27.44 784.71 27.44 784.73 27.45 784.76 27.47 784.78 27.49 784.79 27.52 784.8 27.54 784.82 27.56 784.83 27.58 784.85 27.6 784.87 27.61 784.9 27.61 784.93 27.63 785.02 27.7 785.05 27.72 785.08 27.73 785.19 27.76 785.24 27.78 785.26 27.79 785.26 27.81 785.25 27.83 785.15 27.9 784.99 27.94 784.97 27.96 784.97 27.98 785 28.01 785.01 28.02 785.01 28.04 785 28.07 784.99 28.11 785 28.14 784.99 28.19 784.96 28.22 784.92 28.26 784.87 28.28 784.83 28.29 784.8 28.29 784.71 28.27 784.68 28.27 784.65 28.28 784.62 28.3 784.61 28.31 784.61 28.33 784.64 28.35 784.64 28.38 784.63 28.4 784.61 28.43 784.5 28.49 784.48 28.51 784.47 28.54 784.44 28.63 784.42 28.69 784.39 28.74 784.36 28.77 784.32 28.78 784.27 28.8 784.24 28.82 784.24 28.85 784.24 28.88 784.24 28.91 784.21 28.92 784.1 28.93 784.06 28.94 784.03 28.96 783.98 28.99 783.96 29.01 783.95 29.04 783.94 29.08 783.94 29.09 783.95 29.11 783.96 29.13 783.96 29.15 783.97 29.19 783.96 29.24 783.94 29.3 783.92 29.33 783.86 29.37 783.84 29.48 783.84 29.5 783.85 29.53 783.88 29.58 783.9 29.6 783.92 29.61 783.94 29.62 783.96 29.64 783.97 29.66 783.97 29.69 783.97 29.74 783.99 29.77 784.01 29.8 784.04 29.81 784.07 29.82 784.13 29.81 784.16 29.82 784.18 29.84 784.2 29.87 784.21 29.88 784.22 29.89 784.23 29.9 784.25 29.91 784.27 29.92 784.3 29.92 784.35 29.92 784.38 29.92 784.42 29.94 784.45 29.97 784.46 30.01 784.48 30.1 784.5 30.15 784.54 30.23 784.58 30.26 784.61 30.28 784.63 30.27 784.65 30.26 784.66 30.25 784.67 30.24 784.68 30.22 784.69 30.22 784.72 30.21 784.74 30.21 784.78 30.22 784.76 30.26 784.76 30.28 784.74 30.31 784.71 30.35 784.71 30.38 784.69 30.4 784.67 30.43 784.61 30.45 784.57 30.45 784.5 30.47 784.39 30.55 784.25 30.63 784.22 30.66 784.19 30.69 784.17 30.71 784.13 30.75 784.1 30.78 784.08 30.8 783.98 30.86 783.92 30.95 783.85 30.99 783.8 31.02 783.75 31.03 783.69 31.03 783.66 31.04 783.59 31.07 783.55 31.1 783.49 31.16 783.44 31.21 783.43 31.23 783.42 31.27 783.28 31.33 783.17 31.36 783.16 31.37 783.15 31.4 783.13 31.45 783.1 31.52 783.1 31.55 783.08 31.57 783.06 31.59 783.03 31.61 782.91 31.6 782.83 31.62 782.74 31.62 782.65 31.64 782.64 31.64 782.63 31.64 782.61 31.64 782.59 31.63 782.56 31.63 782.48 31.66 782.43 31.68 782.4 31.7 782.35 31.7 782.28 31.71 782.19 31.74 782.14 31.76 782.04 31.83 782.01 31.87 782 31.91 781.99 31.93 781.96 31.96 781.92 31.98 781.74 32.02 781.7 32.01 781.61 32.05 781.47 32.23 781.39 32.27 781.16 32.36 780.77 32.58 780.55 32.76 780.49 32.76 780.46 32.75 780.38 32.76 780.27 32.79 779.97 32.92 779.75 32.98 779.68 33.01 779.5 33.12 779.44 33.17 779.41 33.22 779.38 33.27 779.32 33.34 779.26 33.39 779.22 33.45 779.17 33.49 779.11 33.57 778.76 33.77 778.68 33.84 778.61 33.89 778.49 34 778.42 33.97 778.38 33.97 778.32 33.98 778.29 34.01 778.25 34.06 778.21 34.1 778.14 34.13 778.06 34.17 777.97 34.2 777.89 34.25 777.81 34.28 777.73 34.27 777.68 34.24 777.64 34.22 777.57 34.22 777.49 34.26 777.35 34.27 777.24 34.27 777.14 34.28 777.04 34.31 776.93 34.37 776.91 34.4 776.89 34.44 776.81 34.51 776.73 34.54 776.68 34.58 776.64 34.61 776.61 34.66 776.6 34.7 776.54 34.81 776.49 34.87 776.41 34.93 776.35 34.96 776.2 34.97 775.76 35.13 775.48 35.15 775.55 34.97 775.56 34.93 775.58 34.88 775.56 34.84 775.53 34.79 775.49 34.75 775.44 34.71 775.37 34.67 775.29 34.65 775.17 34.65 775.05 34.68 775.03 34.66 774.98 34.64 774.98 34.63 775.08 34.6 775.13 34.58 775.21 34.52 775.35 34.45 775.43 34.38 775.51 34.32 775.51 34.3 775.51 34.28 775.52 34.25 775.54 34.22 775.56 34.21 775.59 34.19 775.61 34.18 775.64 34.17 775.62 34.17 775.58 34.14 775.62 34.12 775.66 34.11 775.8 34.11 775.89 34.09 775.96 34.07 776.01 34.04 776.03 34.03 776.06 34.01 776.12 34.02 776.14 34.01 776.19 33.97 776.23 33.99 776.26 34.03 776.31 34.06 776.42 34.07 776.54 34.05 776.67 33.99 776.8 33.89 776.91 33.84 776.95 33.81 776.99 33.79 777.13 33.73 777.17 33.71 777.18 33.69 777.18 33.67 777.19 33.65 777.2 33.64 777.26 33.61 777.29 33.6 777.33 33.59 777.41 33.51 777.45 33.5 777.5 33.48 777.66 33.4 777.77 33.38 777.83 33.35 777.86 33.32 777.87 33.3 777.89 33.28 777.92 33.27 777.94 33.26 778 33.26 778.02 33.26 778.04 33.27 778.06 33.26 778.09 33.25 778.12 33.23 778.21 33.21 778.29 33.16 778.38 33.18 778.43 33.17 778.54 33.11 778.59 33.1 778.62 33.08 778.7 33 778.73 32.97 778.75 32.94 778.75 32.92 778.79 32.88 778.85 32.87 778.88 32.85 778.88 32.82 778.89 32.77 778.94 32.73 778.99 32.7 779.29 32.59 779.32 32.55 779.34 32.49 779.38 32.48 779.42 32.46 779.44 32.42 779.46 32.39 779.48 32.38 779.53 32.36 779.59 32.33 779.62 32.32 779.65 32.32 779.68 32.32 779.73 32.34 779.75 32.35 779.9 32.18 779.83 32.17 779.77 32.21 779.72 32.27 779.67 32.3 779.71 32.2 779.79 32.14 779.85 32.1 779.87 32.07 779.87 32.05 780.03 32.05 780.08 32.03 780.1 32.01 780.08 31.99 780.12 31.97 780.15 31.94 780.19 31.92 780.24 31.93 780.24 31.9 780.27 31.89 780.28 31.87 780.37 31.83 780.57 31.78 780.66 31.73 780.73 31.72 780.76 31.72 780.79 31.71 780.81 31.7 780.84 31.67 780.86 31.66 780.94 31.63 780.98 31.59 781.06 31.51 781.1 31.49 781.14 31.46 781.33 31.22 781.36 31.2 781.38 31.19 781.43 31.18 781.47 31.16 781.48 31.13 781.52 31.09 781.54 31.07 781.56 31.06 781.6 31.04 781.64 31 781.69 30.92 781.73 30.9 781.89 30.66 781.94 30.62 781.96 30.59 781.97 30.52 781.98 30.46 782.09 30.34 782.14 30.24 782.2 29.91 782.24 29.83 782.25 29.78 782.27 29.72 782.28 29.7 782.36 29.63 782.39 29.59 782.41 29.54 782.45 29.4 782.48 29.36 782.5 29.28 782.55 29.2 782.54 29.17 782.52 29.19 782.51 29.17 782.51 29.16 782.5 29.06 782.54 29.04 782.67 29.05 782.83 29.04 782.87 29.04 782.89 29.04 783 29 783.21 28.9 783.27 28.85 783.28 28.84 783.32 28.83 783.35 28.84 783.37 28.83 783.39 28.78 783.4 28.76 783.43 28.75 783.45 28.74 783.48 28.7 783.56 28.56 783.57 28.55 783.58 28.55 783.59 28.54 783.59 28.49 783.6 28.49 783.6 28.48 783.62 28.48 783.63 28.46 783.65 28.43 783.65 28.41 783.65 28.38 783.68 28.35 783.74 28.31 783.81 28.28 783.85 28.27 783.84 28.25 783.84 28.23 783.85 28.2 783.88 28.16 783.88 28.14 783.88 28.09 783.89 28.03 783.9 28.01 783.92 28.02 783.93 28.01 783.95 28 783.98 27.99 784.01 27.99 783.96 27.93 783.95 27.9 783.93 27.66 783.93 27.63 783.95 27.58 783.96 27.56 783.94 27.44 783.94 27.2 783.93 27.13 783.93 27.09 783.95 27.07 783.98 27.07 784 27.06 784.02 27.05 784.04 27.01 784.1 26.95 784.11 26.94 784.11 26.92 784.11 26.91 784.13 26.9 784.14 26.89 784.16 26.89 784.17 26.89 784.18 26.88 784.19 26.86 784.2 26.85 784.21 26.84 784.22 26.84 784.22 26.84 Z" id="NZL-3406" data-name="West Coast"/>
<path d="M 778.49 34 778.5 34.12 778.48 34.18 778.42 34.24 778.38 34.3 778.33 34.35 778.28 34.41 778.25 34.45 778.21 34.51 778.2 34.56 778.2 34.96 778.21 35.02 778.22 35.05 778.29 35.07 778.35 35.11 778.39 35.17 778.42 35.32 778.47 35.36 778.52 35.38 778.58 35.37 778.64 35.43 778.77 35.53 778.93 35.51 779 35.54 779.07 35.6 779.12 35.68 779.2 35.84 779.27 35.97 779.34 36.05 779.39 36.09 779.46 36.12 779.62 36.13 779.81 36.1 779.9 36.1 779.94 36.12 779.97 36.17 779.96 36.22 779.98 36.28 780 36.33 780.05 36.39 780.09 36.42 780.31 36.33 780.66 36.11 780.74 36.08 780.83 36.06 780.91 36.06 781.1 36.02 781.5 36.1 781.74 36.17 781.84 36.18 781.82 36.22 781.81 36.25 781.66 36.45 781.41 36.63 781.29 36.82 781.24 36.98 781.21 37.03 781.18 37.08 781.21 37.11 781.25 37.14 781.25 37.19 781.16 37.26 781.14 37.29 781.14 37.31 781.15 37.34 781.16 37.37 781.13 37.41 781.06 37.44 781.02 37.47 781.03 37.53 781.01 37.55 780.98 37.57 780.95 37.56 780.91 37.54 780.91 37.57 780.92 37.59 780.94 37.63 780.9 37.66 780.88 37.67 780.8 37.67 780.75 37.68 780.75 37.7 780.78 37.72 780.84 37.73 780.78 37.81 780.76 37.82 780.74 37.82 780.71 37.84 780.67 37.87 780.65 37.87 780.63 37.87 780.62 37.87 780.62 37.89 780.62 37.91 780.62 37.92 780.63 37.93 780.65 37.93 780.68 37.93 780.71 37.95 780.74 37.95 780.77 37.93 780.81 37.95 780.87 37.97 780.92 38 780.92 38.03 780.88 38.05 780.77 38.06 780.73 38.08 780.68 38.13 780.67 38.14 780.65 38.15 780.62 38.15 780.6 38.16 780.57 38.22 780.49 38.25 780.47 38.29 780.51 38.28 780.59 38.26 780.66 38.22 780.76 38.19 780.79 38.17 780.82 38.12 780.85 38.09 780.88 38.08 780.91 38.07 780.93 38.06 780.96 38.03 780.98 38.06 780.99 38.1 780.98 38.22 780.96 38.25 780.93 38.26 780.88 38.26 780.84 38.26 780.83 38.26 780.8 38.28 780.79 38.29 780.79 38.31 780.79 38.32 780.32 38.35 780.13 38.4 779.97 38.48 779.84 38.61 779.8 38.67 779.79 38.69 779.79 38.76 779.77 38.8 779.76 38.82 779.75 38.87 779.71 38.91 779.66 38.95 779.61 38.97 779.49 39 779.43 39.03 779.39 39.07 779.35 39.11 779.3 39.14 779 39.3 778.92 39.37 778.89 39.49 778.89 39.55 778.88 39.57 778.82 39.59 778.77 39.62 778.75 39.63 778.71 39.62 778.64 39.6 778.6 39.59 778.56 39.6 778.49 39.62 778.46 39.63 778.49 39.64 778.67 39.64 778.63 39.72 778.56 39.75 778.48 39.77 778.4 39.82 778.37 39.82 778.31 39.8 778.25 39.79 778.21 39.8 778.18 39.82 778.06 39.87 778.07 39.88 778.09 39.91 778.11 39.92 778.05 39.93 777.97 39.92 777.9 39.91 777.86 39.96 777.81 39.94 777.8 39.93 777.72 39.92 777.68 39.93 777.65 39.94 777.61 39.98 777.58 39.99 777.55 39.99 777.48 40 777.45 40 777.42 39.98 777.42 39.93 777.42 39.91 777.41 39.91 777.42 39.79 777.46 39.74 777.49 39.68 777.48 39.64 777.39 39.55 777.38 39.5 777.38 39.44 777.36 39.38 777.34 39.33 777.35 39.26 777.38 39.2 777.4 39.14 777.4 38.99 777.33 38.87 777.31 38.81 777.31 38.75 777.29 38.68 777.22 38.6 777.17 38.54 777.15 38.47 777.14 38.4 777.15 38.34 777.14 38.28 777.12 38.24 777.05 38.19 777.01 38.16 777 38.09 776.99 38.04 776.98 38 776.98 37.94 777 37.87 777.03 37.77 777.17 37.57 777.33 37.28 777.42 37.22 777.38 37.12 777.18 36.96 777.09 36.93 776.99 36.97 776.75 37.22 776.65 37.25 776.56 37.24 776.49 37.22 776.43 37.14 776.29 37 776.22 36.89 776.17 36.87 775.78 36.99 775.63 37 775.54 37 775.44 36.96 775.4 36.89 775.4 36.83 775.33 36.72 775.29 36.65 775.28 36.58 775.36 36.39 775.36 36.35 775.23 36.31 775.17 36.27 775.11 36.21 775.06 36.14 775.04 36.07 775.03 35.98 775.08 35.9 775.11 35.72 775.11 35.64 775.16 35.47 775.21 35.39 775.28 35.29 775.36 35.22 775.43 35.18 775.48 35.15 775.76 35.13 776.2 34.97 776.35 34.96 776.41 34.93 776.49 34.87 776.54 34.81 776.6 34.7 776.61 34.66 776.64 34.61 776.68 34.58 776.73 34.54 776.81 34.51 776.89 34.44 776.91 34.4 776.93 34.37 777.04 34.31 777.14 34.28 777.24 34.27 777.35 34.27 777.49 34.26 777.57 34.22 777.64 34.22 777.68 34.24 777.73 34.27 777.81 34.28 777.89 34.25 777.97 34.2 778.06 34.17 778.14 34.13 778.21 34.1 778.25 34.06 778.29 34.01 778.32 33.98 778.38 33.97 778.42 33.97 778.49 34 Z" id="NZL-3407" data-name="Otago"/>
<path d="M 773.52 41.3 773.47 41.31 773.45 41.28 773.47 41.25 773.53 41.23 773.58 41.22 773.6 41.25 773.57 41.27 773.52 41.3 Z M 774.07 40.3 774.04 40.3 774.01 40.3 773.99 40.27 774 40.24 774.03 40.22 774.06 40.22 774.09 40.22 774.12 40.24 774.1 40.28 774.07 40.3 Z M 776.03 40.3 776.01 40.32 776.02 40.29 776 40.27 775.98 40.25 775.96 40.22 775.99 40.22 776.03 40.21 776.05 40.19 776.07 40.16 776.1 40.21 776.07 40.26 776.03 40.3 Z M 774.67 40.09 774.72 40.12 774.76 40.15 774.96 40.34 774.99 40.36 775.03 40.38 775.06 40.4 775.07 40.43 775.1 40.44 775.15 40.46 775.17 40.49 775.13 40.52 775.18 40.53 775.18 40.55 775.12 40.56 774.92 40.55 774.93 40.52 774.81 40.51 774.77 40.53 774.79 40.57 774.78 40.59 774.67 40.7 774.73 40.7 774.81 40.63 774.86 40.61 774.88 40.62 774.94 40.65 775 40.66 775.09 40.68 775.08 40.7 775.07 40.71 775.06 40.72 775.04 40.73 775.04 40.74 775.07 40.75 775.19 40.71 775.22 40.71 775.25 40.7 775.26 40.7 775.27 40.71 775.28 40.72 775.29 40.74 775.31 40.75 775.33 40.76 775.32 40.78 775.31 40.84 775.3 40.85 775.28 40.86 775.25 40.86 775.22 40.85 775.19 40.85 775.19 40.87 775.29 40.91 775.32 40.94 775.33 40.95 775.31 40.96 775.29 40.96 775.27 40.96 775.26 40.95 775.24 40.92 775.22 40.91 775.17 40.91 775.16 40.93 775.18 40.98 775.15 40.99 775.07 40.97 775.1 41.01 774.93 41.01 774.79 41.02 774.74 41.04 774.6 41.13 774.56 41.17 774.53 41.18 774.49 41.18 774.45 41.17 774.42 41.15 774.38 41.14 774.3 41.15 774.28 41.14 774.25 41.12 774.24 41.08 774.22 41.07 774.18 41.1 774.14 41.1 774.12 41.11 774.12 41.12 774.11 41.17 774.07 41.16 773.95 41.22 773.89 41.24 773.93 41.27 774 41.26 774.14 41.22 774.11 41.26 774.08 41.29 774.01 41.34 774.01 41.29 773.99 41.29 773.95 41.32 773.91 41.35 773.87 41.37 773.8 41.38 773.72 41.38 773.68 41.37 773.66 41.33 773.68 41.27 773.71 41.22 773.73 41.18 773.75 41.17 773.8 41.16 773.84 41.14 773.92 41.11 773.88 41.09 773.88 41.07 773.9 41.05 773.91 41.02 773.9 40.99 773.9 40.96 773.9 40.94 773.91 40.91 773.94 40.88 773.96 40.87 774.01 40.84 774.05 40.83 774.08 40.84 774.11 40.85 774.14 40.85 774.17 40.82 774.17 40.77 774.15 40.71 774.16 40.66 774.19 40.65 774.25 40.65 774.28 40.63 774.32 40.59 774.33 40.56 774.34 40.53 774.33 40.48 774.3 40.43 774.22 40.35 774.21 40.33 774.22 40.31 774.23 40.29 774.24 40.28 774.24 40.26 774.24 40.25 774.23 40.24 774.22 40.23 774.21 40.22 774.21 40.2 774.22 40.19 774.23 40.18 774.24 40.12 774.27 40.08 774.32 40.07 774.39 40.07 774.45 40.09 774.48 40.09 774.51 40.08 774.54 40.06 774.57 40.05 774.67 40.09 Z M 771.91 37.69 771.94 37.73 771.96 37.78 771.96 37.83 771.95 37.88 771.93 37.92 771.89 37.94 771.84 37.94 771.83 37.93 771.82 37.91 771.8 37.9 771.78 37.94 771.77 37.95 771.74 37.95 771.73 37.94 771.71 37.92 771.7 37.87 771.7 37.83 771.7 37.8 771.67 37.76 771.63 37.76 771.49 37.88 771.45 37.9 771.41 37.91 771.42 37.88 771.44 37.84 771.47 37.8 771.49 37.79 771.5 37.78 771.52 37.75 771.54 37.71 771.57 37.71 771.62 37.71 771.8 37.67 771.85 37.66 771.87 37.67 771.91 37.69 Z M 772.59 36.96 772.51 36.97 772.48 36.96 772.44 36.94 772.41 36.92 772.36 36.91 772.31 36.89 772.3 36.86 772.27 36.83 772.27 36.82 772.29 36.81 772.29 36.8 772.3 36.78 772.44 36.62 772.44 36.63 772.44 36.64 772.45 36.65 772.45 36.65 772.47 36.73 772.5 36.81 772.59 36.96 Z M 775.16 35.47 775.11 35.64 775.11 35.72 775.08 35.9 775.03 35.98 775.04 36.07 775.06 36.14 775.11 36.21 775.17 36.27 775.23 36.31 775.36 36.35 775.36 36.39 775.28 36.58 775.29 36.65 775.33 36.72 775.4 36.83 775.4 36.89 775.44 36.96 775.54 37 775.63 37 775.78 36.99 776.17 36.87 776.22 36.89 776.29 37 776.43 37.14 776.49 37.22 776.56 37.24 776.65 37.25 776.75 37.22 776.99 36.97 777.09 36.93 777.18 36.96 777.38 37.12 777.42 37.22 777.33 37.28 777.17 37.57 777.03 37.77 777 37.87 776.98 37.94 776.98 38 776.99 38.04 777 38.09 777.01 38.16 777.05 38.19 777.12 38.24 777.14 38.28 777.15 38.34 777.14 38.4 777.15 38.47 777.17 38.54 777.22 38.6 777.29 38.68 777.31 38.75 777.31 38.81 777.33 38.87 777.4 38.99 777.4 39.14 777.38 39.2 777.35 39.26 777.34 39.33 777.36 39.38 777.38 39.44 777.38 39.5 777.39 39.55 777.48 39.64 777.49 39.68 777.46 39.74 777.42 39.79 777.41 39.91 777.39 39.9 777.37 39.92 777.37 39.97 777.34 39.98 777.34 39.99 777.33 40 777.32 40.01 777.25 40.01 777.21 40 777.19 39.98 777.17 39.96 777.15 39.95 777.13 39.95 777.13 39.97 777.13 40 777.12 40.03 777.06 40.05 776.99 40.04 776.91 40.01 776.85 39.99 776.78 40 776.74 39.99 776.71 39.97 776.65 39.83 776.65 39.8 776.64 39.78 776.61 39.78 776.54 39.79 776.31 39.83 776.23 39.83 776.25 39.8 776.28 39.79 776.31 39.79 776.34 39.78 776.3 39.76 776.24 39.75 776.13 39.75 776.15 39.78 776.18 39.8 776.19 39.82 776.16 39.84 776.17 39.85 776.18 39.86 776.19 39.87 776.07 39.9 775.68 39.87 775.71 39.83 775.73 39.82 775.74 39.81 775.78 39.8 775.86 39.81 775.88 39.81 775.91 39.84 775.97 39.85 776.01 39.83 775.96 39.79 775.9 39.78 775.7 39.78 775.61 39.74 775.57 39.73 775.55 39.77 775.56 39.82 775.63 39.88 775.65 39.92 775.59 39.91 775.51 39.84 775.46 39.83 775.45 39.82 775.45 39.79 775.44 39.77 775.38 39.76 775.36 39.75 775.35 39.73 775.35 39.7 775.42 39.69 775.44 39.69 775.46 39.69 775.47 39.7 775.47 39.71 775.48 39.73 775.49 39.71 775.61 39.64 775.63 39.58 775.61 39.51 775.57 39.46 775.52 39.46 775.53 39.51 775.51 39.57 775.47 39.6 775.42 39.59 775.4 39.56 775.35 39.47 775.23 39.32 775.19 39.29 775.13 39.28 774.91 39.3 774.88 39.32 774.88 39.34 774.89 39.37 774.88 39.38 774.85 39.37 774.81 39.36 774.77 39.35 774.74 39.36 774.67 39.35 774.63 39.35 774.61 39.37 774.6 39.4 774.57 39.4 774.55 39.4 774.52 39.39 774.49 39.38 774.47 39.38 774.46 39.39 774.43 39.41 774.41 39.41 774.39 39.4 774.36 39.39 774.34 39.37 774.32 39.36 774.3 39.34 774.27 39.3 774.25 39.28 774.19 39.26 774.17 39.24 774.2 39.23 774.23 39.22 774.25 39.21 774.28 39.18 774.16 39.08 774.11 39.01 774.11 38.97 774.07 38.95 773.98 38.94 773.94 38.93 773.83 38.88 773.8 38.88 773.54 38.86 773.52 38.86 773.51 38.88 773.51 38.91 773.5 38.93 773.47 38.97 773.46 39 773.46 39.03 773.45 39.06 773.42 39.09 773.38 39.09 773.31 39.09 773.27 39.1 773.2 39.13 773.17 39.14 773.13 39.13 773.03 39.11 772.99 39.11 772.95 39.11 772.93 39.12 772.92 39.13 772.9 39.14 772.89 39.13 772.88 39.11 772.87 39.11 772.85 39.1 772.7 39.05 772.66 39.06 772.63 39.06 772.59 39.06 772.44 39.03 772.13 39.04 771.98 39.02 771.85 38.95 771.79 38.89 771.78 38.87 771.79 38.85 771.85 38.83 771.87 38.82 771.96 38.75 772.04 38.68 772.1 38.57 772.14 38.53 772.18 38.51 772.25 38.5 772.35 38.44 772.4 38.41 772.4 38.4 772.36 38.4 772.22 38.46 772.12 38.49 772.07 38.51 772.04 38.54 772.03 38.56 772.03 38.58 772.04 38.59 772.04 38.61 772.03 38.62 771.96 38.67 771.95 38.68 771.95 38.68 771.93 38.66 771.93 38.65 771.94 38.63 771.94 38.61 771.91 38.6 771.88 38.67 771.81 38.7 771.65 38.72 771.65 38.68 771.66 38.65 771.68 38.63 771.71 38.65 771.72 38.57 771.75 38.53 771.79 38.49 771.85 38.46 771.99 38.44 772.05 38.42 772.08 38.37 772.01 38.4 771.93 38.41 771.9 38.41 771.85 38.4 771.82 38.39 771.81 38.38 771.94 38.27 771.96 38.25 771.96 38.23 771.94 38.21 771.91 38.22 771.89 38.23 771.87 38.25 771.86 38.26 771.85 38.27 771.84 38.29 771.84 38.3 771.8 38.32 771.78 38.33 771.72 38.4 771.71 38.42 771.68 38.45 771.47 38.49 771.44 38.5 771.39 38.55 771.37 38.55 771.35 38.54 771.34 38.52 771.32 38.49 771.32 38.47 771.33 38.44 771.33 38.41 771.32 38.37 771.32 38.17 771.33 38.12 771.37 38.09 771.51 38.08 771.67 38.08 771.65 38.09 771.67 38.11 771.72 38.08 771.79 38.06 771.93 38.06 771.99 38.06 772.11 38.03 772.17 38.02 772.23 38.03 772.26 38.02 772.29 38.01 772.31 37.99 772.33 37.98 772.37 37.96 772.48 37.92 772.53 37.9 772.56 37.85 772.46 37.88 772.43 37.88 772.27 37.87 772.06 37.91 772.01 37.9 772.05 37.83 772.07 37.81 772.11 37.79 772.23 37.76 772.27 37.74 772.05 37.76 772.01 37.76 772 37.7 772 37.65 772.02 37.62 772.07 37.6 772.14 37.59 772.25 37.55 772.31 37.54 772.43 37.57 772.49 37.58 772.54 37.54 772.47 37.54 772.43 37.54 772.4 37.51 772.55 37.48 772.61 37.44 772.63 37.39 772.34 37.5 772.15 37.52 772.03 37.57 772 37.58 771.96 37.59 771.93 37.59 771.89 37.58 771.87 37.58 771.85 37.53 771.85 37.5 771.93 37.37 771.97 37.24 771.99 37.2 772.09 37.17 772.2 37.2 772.31 37.25 772.4 37.27 772.38 37.21 772.34 37.16 772.31 37.14 772.28 37.19 772.24 37.17 772.15 37.13 772.11 37.11 772.08 37.09 772.08 37.06 772.09 37.03 772.12 37 772.2 36.94 772.25 36.91 772.27 36.92 772.28 36.96 772.33 36.99 772.42 37.02 772.4 37.03 772.38 37.04 772.37 37.06 772.36 37.08 772.43 37.08 772.49 37.06 772.55 37.05 772.62 37.1 772.63 37.12 772.64 37.14 772.64 37.16 772.62 37.19 772.56 37.22 772.54 37.24 772.56 37.25 772.63 37.25 772.66 37.24 772.69 37.21 772.7 37.18 772.71 37.15 772.73 37.14 772.79 37.18 772.82 37.2 772.84 37.21 772.85 37.27 772.89 37.34 772.9 37.34 772.91 37.33 772.93 37.34 772.96 37.35 772.97 37.36 772.96 37.29 772.84 37.18 772.62 37.02 772.65 36.99 772.69 36.97 772.91 36.93 772.96 36.93 772.98 36.95 773.02 37 773.05 37.02 773.09 37.03 773.14 37.03 773.18 37.02 773.2 36.99 773.17 36.98 773.09 36.98 773.06 36.97 773.03 36.94 773.03 36.93 773.03 36.89 773.04 36.87 773.06 36.86 773.06 36.85 772.98 36.86 772.89 36.88 772.84 36.89 772.66 36.91 772.62 36.89 772.61 36.86 772.59 36.82 772.58 36.77 772.54 36.75 772.53 36.72 772.52 36.62 772.54 36.59 772.59 36.56 772.65 36.56 772.71 36.59 772.79 36.68 772.82 36.69 772.86 36.7 772.89 36.7 772.91 36.69 772.9 36.67 772.82 36.62 772.74 36.55 772.69 36.52 772.63 36.52 772.72 36.41 772.78 36.38 772.83 36.38 772.91 36.49 772.91 36.52 772.91 36.55 772.91 36.57 772.94 36.59 772.95 36.56 772.95 36.52 772.96 36.5 772.99 36.49 773.13 36.5 773.09 36.47 772.96 36.44 772.92 36.42 772.88 36.38 772.85 36.34 772.85 36.31 772.88 36.27 772.93 36.26 772.99 36.27 773.05 36.29 773.11 36.3 773.16 36.32 773.21 36.35 773.26 36.37 773.29 36.35 773.25 36.34 772.98 36.23 772.96 36.21 772.97 36.18 773 36.15 773.11 36.08 773.15 36.06 773.19 36.06 773.25 36.05 773.23 36.04 773.21 36.02 773.2 36.01 773.37 35.94 773.45 35.93 773.48 36 773.48 36.01 773.5 36.02 773.52 36.04 773.52 36.06 773.52 36.08 773.5 36.13 773.49 36.15 773.51 36.18 773.54 36.2 773.55 36.23 773.54 36.27 773.62 36.28 773.66 36.27 773.65 36.25 773.64 36.24 773.64 36.22 773.63 36.2 773.63 36.19 773.62 36.17 773.58 36.14 773.57 36.12 773.58 36.08 773.58 36.05 773.56 36.02 773.55 35.99 773.51 35.92 773.51 35.89 773.53 35.82 773.6 35.77 773.68 35.76 773.75 35.81 773.77 35.84 773.76 35.85 773.74 35.87 773.72 35.9 773.71 35.94 773.72 35.98 773.74 36 773.78 36.02 773.79 35.97 773.8 35.94 773.83 35.91 773.85 35.87 773.84 35.83 773.78 35.78 773.77 35.74 773.74 35.71 773.74 35.69 773.78 35.68 773.8 35.66 773.83 35.65 773.85 35.67 773.89 35.71 773.93 35.73 773.97 35.75 774.03 35.76 773.99 35.75 773.91 35.67 773.85 35.64 773.84 35.61 773.86 35.58 773.89 35.56 774.01 35.53 774.03 35.52 774.05 35.49 774.06 35.47 774.07 35.47 774.11 35.46 774.13 35.45 774.19 35.4 774.26 35.38 774.32 35.39 774.42 35.46 774.5 35.49 774.53 35.51 774.6 35.61 774.61 35.58 774.62 35.55 774.61 35.52 774.6 35.49 774.58 35.48 774.53 35.46 774.47 35.41 774.46 35.4 774.45 35.4 774.44 35.4 774.43 35.38 774.42 35.36 774.43 35.31 774.41 35.24 774.4 35.21 774.38 35.18 774.43 35.13 774.62 34.98 774.68 34.93 774.77 34.89 774.82 34.84 774.81 34.77 775.01 34.77 775.03 34.76 775.06 34.72 775.06 34.69 775.05 34.68 775.17 34.65 775.29 34.65 775.37 34.67 775.44 34.71 775.49 34.75 775.53 34.79 775.56 34.84 775.58 34.88 775.56 34.93 775.55 34.97 775.48 35.15 775.43 35.18 775.36 35.22 775.28 35.29 775.21 35.39 775.16 35.47 Z" fill-rule="evenodd" id="NZL-3408" data-name="Southland"/>
<path d="M 792.27 17.57 792.26 17.57 792.24 17.57 792.23 17.57 792.21 17.56 792.19 17.55 792.18 17.54 792.18 17.53 792.19 17.52 792.19 17.52 792.2 17.51 792.19 17.5 792.19 17.49 792.18 17.49 792.16 17.48 792.14 17.47 792.13 17.45 792.19 17.43 792.21 17.45 792.23 17.51 792.25 17.51 792.27 17.52 792.29 17.54 792.3 17.56 792.28 17.56 792.27 17.57 Z M 789.67 19.05 789.8 19.04 789.93 18.96 790.13 18.92 790.37 18.87 790.62 18.82 790.83 18.79 790.84 18.64 790.89 18.52 790.94 18.43 791.01 18.47 791.13 18.42 791.14 18.44 791.15 18.48 791.15 18.53 791.12 18.68 791.13 18.74 791.16 18.78 791.19 18.83 791.22 18.86 791.31 18.9 791.4 18.9 791.51 18.88 791.59 18.84 791.61 18.83 791.62 18.81 791.63 18.8 791.66 18.8 791.68 18.81 791.69 18.83 791.69 18.88 791.7 18.93 791.73 18.95 791.77 18.96 791.81 18.94 791.77 18.93 791.75 18.91 791.74 18.87 791.73 18.8 791.71 18.74 791.7 18.71 791.66 18.65 791.65 18.61 791.66 18.5 791.65 18.47 791.64 18.45 791.58 18.31 791.57 18.29 791.55 18.26 791.52 18.24 791.46 18.2 791.44 18.18 791.43 18.16 791.42 18.14 791.41 18.11 791.38 18.09 791.43 18.08 791.48 18.09 791.53 18.09 791.56 18.05 791.49 18.05 791.45 18.05 791.42 18.03 791.45 18.02 791.48 18.02 791.5 18.01 791.52 17.99 791.5 17.99 791.48 17.98 791.47 17.97 791.45 17.97 791.57 17.94 791.6 17.92 791.59 17.86 791.56 17.88 791.55 17.89 791.53 17.87 791.52 17.85 791.52 17.83 791.53 17.8 791.48 17.74 791.5 17.68 791.53 17.62 791.52 17.57 791.5 17.56 791.47 17.56 791.45 17.55 791.44 17.53 791.43 17.53 791.39 17.48 791.35 17.46 791.27 17.44 791.23 17.41 791.21 17.38 791.2 17.34 791.2 17.26 791.21 17.23 791.26 17.23 791.31 17.23 791.39 17.22 791.4 17.23 791.41 17.25 791.43 17.27 791.43 17.29 791.44 17.3 791.45 17.3 791.47 17.31 791.51 17.35 791.53 17.35 791.59 17.3 791.63 17.34 791.66 17.39 791.66 17.45 791.61 17.49 791.65 17.53 791.7 17.53 791.74 17.54 791.76 17.6 791.77 17.65 791.76 17.68 791.74 17.67 791.71 17.65 791.69 17.66 791.68 17.68 791.69 17.7 791.72 17.71 791.78 17.7 791.81 17.71 791.82 17.74 791.81 17.76 791.8 17.78 791.79 17.8 791.81 17.87 791.84 17.87 791.93 17.82 791.9 17.81 791.88 17.8 791.9 17.78 791.93 17.77 791.96 17.78 791.98 17.79 792.01 17.81 792.04 17.79 792.1 17.76 792.14 17.74 792.17 17.74 792.2 17.75 792.23 17.78 792.25 17.78 792.28 17.77 792.31 17.77 792.31 17.8 792.3 17.83 792.28 17.84 792.21 17.83 792.2 17.84 792.16 17.91 792.13 17.93 792.07 17.94 792.05 17.96 792.01 18 791.98 18.05 792 18.07 792 18.08 791.99 18.1 792 18.12 792.02 18.14 792.05 18.15 792.07 18.15 792.07 18.13 792.1 18.1 792.08 18.03 792.11 18 792.16 18.02 792.25 18.01 792.31 18.04 792.31 18.06 792.31 18.12 792.32 18.15 792.36 18.18 792.37 18.2 792.38 18.23 792.39 18.34 792.38 18.41 792.38 18.42 792.39 18.44 792.37 18.47 792.35 18.49 792.34 18.52 792.36 18.53 792.38 18.52 792.41 18.49 792.42 18.48 792.46 18.52 792.45 18.57 792.42 18.63 792.38 18.68 792.38 18.7 792.4 18.71 792.43 18.71 792.45 18.72 792.46 18.75 792.46 18.81 792.47 18.84 792.45 18.83 792.43 18.81 792.42 18.79 792.41 18.77 792.39 18.77 792.4 18.82 792.42 18.87 792.42 18.91 792.39 18.94 792.46 18.97 792.49 18.99 792.51 19.03 792.53 19.12 792.54 19.2 792.55 19.22 792.46 19.25 792.45 19.33 792.4 19.39 792.36 19.41 792.35 19.45 792.4 19.48 792.4 19.51 792.32 19.5 792.26 19.47 792.23 19.5 792.21 19.53 792.24 19.56 792.27 19.6 792.25 19.64 792.24 19.69 792.28 19.75 792.28 19.82 792.33 19.9 792.38 19.97 792.46 20.12 792.49 20.3 792.51 20.33 792.57 20.39 792.57 20.44 792.55 20.49 792.58 20.59 792.61 20.62 792.64 20.63 792.68 20.63 792.76 20.66 792.78 20.72 792.83 20.76 792.9 20.79 793.06 20.81 793.16 20.89 793.19 20.92 793.19 20.97 793.22 21.07 793.24 21.16 793.27 21.22 793.31 21.27 793.33 21.31 793.35 21.34 793.7 21.46 793.75 21.5 793.77 21.59 793.73 21.76 793.68 21.82 793.55 21.77 793.51 21.8 793.49 21.84 793.47 21.89 793.42 21.91 793.36 21.91 793.33 21.89 793.33 21.87 793.35 21.84 793.39 21.81 793.4 21.79 793.4 21.76 793.39 21.74 793.37 21.72 793.34 21.71 793.31 21.71 793.29 21.72 793.25 21.74 793.23 21.76 793.2 21.77 793.16 21.77 793.09 21.77 793.07 21.76 793.03 21.72 792.98 21.7 792.94 21.67 792.88 21.71 792.85 21.74 792.83 21.77 792.8 21.78 792.77 21.79 792.75 21.84 792.77 21.88 792.9 21.91 793.09 21.97 793.12 22 793.07 22.1 793.04 22.19 793.13 22.27 793.18 22.35 793.14 22.39 793.09 22.4 792.95 22.35 792.9 22.35 792.88 22.4 792.86 22.48 792.89 22.51 792.94 22.6 793.01 22.68 793.07 22.73 793.14 22.74 793.19 22.71 793.23 22.74 793.27 22.95 793.17 23.09 793.06 23.19 793 23.18 792.86 23.21 792.69 23.21 792.6 23.22 792.59 23.22 792.58 23.24 792.52 23.29 792.43 23.32 792.4 23.34 792.39 23.37 792.36 23.4 792.35 23.44 792.34 23.47 792.31 23.5 792.22 23.53 792.13 23.53 791.93 23.53 791.73 23.48 791.72 23.4 791.77 23.31 791.82 23.22 791.85 23.12 791.83 23.07 791.8 23.03 791.82 22.98 791.85 22.94 791.89 22.88 791.89 22.83 791.82 22.82 791.75 22.83 791.67 22.8 791.69 22.72 791.7 22.69 791.7 22.65 791.66 22.61 791.64 22.56 791.69 22.5 791.69 22.43 791.62 22.39 791.58 22.33 791.66 22.23 791.71 22.14 791.74 22.06 791.8 22.01 791.84 21.94 791.81 21.92 791.74 21.95 791.68 21.97 791.58 21.93 791.51 21.89 791.37 21.89 791.24 21.92 791.18 21.92 791.15 21.89 791.1 21.92 791.09 21.94 791.08 21.97 791.06 21.97 791.03 21.98 790.99 22.01 790.9 22.05 790.85 22.05 790.76 22.04 790.67 22.04 790.64 22.05 790.63 22.06 790.6 22.05 790.58 22.06 790.53 22.09 790.48 22.11 790.34 22.13 790.32 22.16 790.33 22.2 790.27 22.27 790.27 22.29 790.27 22.31 790.19 22.33 790.11 22.37 790.05 22.34 790.01 22.3 789.98 22.28 789.95 22.28 789.9 22.29 789.71 22.28 789.55 22.21 789.55 22.21 789.59 22.2 789.57 22.16 789.58 22.13 789.59 22.09 789.6 22.05 789.61 21.67 789.62 21.58 789.7 21.44 789.73 21.36 789.75 21.28 789.76 21.15 789.78 21.07 789.78 21.02 789.77 20.98 789.75 20.94 789.74 20.9 789.75 20.87 789.79 20.88 789.83 20.88 789.87 20.88 789.91 20.87 789.91 20.89 789.92 20.91 789.94 20.93 789.95 20.94 789.97 20.94 789.97 20.91 790 20.93 790.03 20.96 790.06 20.98 790.11 20.96 790.09 20.95 790.04 20.91 790.1 20.89 790.17 20.9 790.23 20.9 790.27 20.85 790.23 20.85 790.22 20.85 790.2 20.87 790.18 20.85 790.19 20.81 790.14 20.77 790.08 20.76 790.04 20.77 790.02 20.79 790.01 20.81 790 20.83 789.96 20.84 789.94 20.82 789.94 20.79 789.94 20.75 789.95 20.73 789.97 20.71 789.99 20.7 790.01 20.7 790.04 20.69 790.11 20.62 790.15 20.6 790.15 20.56 790.13 20.52 790.07 20.52 790.04 20.55 790.02 20.61 789.99 20.64 789.93 20.6 789.92 20.56 789.94 20.35 790 20.24 790.1 20.21 790.23 20.21 790.35 20.19 790.34 20.17 790.33 20.16 790.31 20.15 790.29 20.15 790.32 20.13 790.34 20.1 790.35 20.07 790.34 20.04 790.24 20.09 790.23 20.1 790.22 20.12 790.21 20.13 790.2 20.13 790.19 20.12 790.17 20.12 790.11 20.14 790.07 20.11 789.93 19.67 789.8 19.42 789.77 19.32 789.77 19.29 789.79 19.27 789.82 19.25 789.88 19.24 789.91 19.23 789.93 19.19 789.95 19.13 789.98 19.09 790.04 19.07 790.04 19.06 790.03 19.05 790.01 19.04 789.98 19.05 789.95 19.07 789.91 19.09 789.89 19.1 789.83 19.2 789.8 19.21 789.75 19.17 789.71 19.13 789.67 19.05 Z" fill-rule="evenodd" id="NZL-5468" data-name="Waikato"/>
<path d="M 793.28 26.9 793.2 27.04 793.17 27.15 793.13 27.19 793.02 27.23 792.97 27.27 792.94 27.32 792.91 27.37 792.84 27.57 792.79 27.65 792.57 27.89 792.22 28.11 792.14 28.17 792.03 28.23 791.9 28.29 791.41 28.58 791.25 28.62 791.22 28.64 791.14 28.71 791.11 28.72 790.93 28.73 790.9 28.71 790.88 28.64 790.84 28.62 790.85 28.59 790.84 28.56 790.83 28.54 790.81 28.51 790.81 28.48 790.84 28.32 790.83 28.29 790.81 28.28 790.54 28.2 790.48 28.19 790.42 28.2 790.37 28.23 790.26 28.32 790.24 28.33 790.22 28.34 790.18 28.33 790.13 28.3 790.1 28.28 790.1 28.26 790.13 28.22 790.12 28.18 790.11 28.14 790.11 28.09 790.12 28.04 790.17 27.95 790.18 27.89 790.16 27.84 790.1 27.83 790.03 27.84 789.98 27.86 789.95 27.88 789.92 27.9 789.9 27.93 789.89 27.96 790 27.98 790.03 28.01 790.01 28.06 790 28.07 789.98 28.09 789.95 28.09 789.93 28.08 789.91 28.07 789.88 28.09 789.85 28.11 789.82 28.12 789.72 28.1 789.61 28.06 789.53 27.99 789.51 27.92 789.53 27.87 789.57 27.86 789.68 27.84 789.71 27.82 789.8 27.74 789.86 27.7 789.91 27.6 789.95 27.58 789.99 27.56 790.02 27.54 790.05 27.54 790.07 27.6 790.1 27.58 790.12 27.56 790.11 27.53 790.11 27.5 790.09 27.5 790.07 27.47 790.05 27.44 790.07 27.43 790.09 27.42 790.13 27.38 790.16 27.37 790.18 27.36 790.21 27.34 790.24 27.32 790.26 27.3 790.27 27.28 790.28 27.25 790.29 27.2 790.34 27.1 790.36 27.06 790.49 26.95 790.55 26.88 790.62 26.88 790.85 26.84 791.14 26.85 791.31 26.81 791.32 26.81 791.43 26.84 791.49 26.86 791.85 26.83 792.19 26.79 792.63 26.74 792.93 26.75 793.14 26.79 793.2 26.86 793.28 26.9 Z" id="NZL-5469" data-name="Wellington"/>
<path d="M 4.93 34.8 4.89 34.81 4.89 34.78 4.88 34.78 4.87 34.76 4.86 34.75 4.87 34.74 4.86 34.74 4.87 34.72 4.9 34.66 4.91 34.64 4.88 34.62 4.86 34.6 4.85 34.59 4.88 34.57 4.91 34.55 4.96 34.55 5 34.55 5.03 34.55 5.04 34.56 5.05 34.58 5.05 34.59 5.05 34.61 5.07 34.62 5.12 34.64 5.05 34.68 5.02 34.71 5.02 34.76 4.93 34.8 Z M 4.15 33.41 4.17 33.42 4.27 33.42 4.3 33.42 4.45 33.47 4.5 33.48 5 33.45 5 33.46 4.97 33.47 4.94 33.48 4.93 33.51 4.92 33.54 4.83 33.5 4.74 33.54 4.66 33.61 4.55 33.74 4.53 33.78 4.52 33.82 4.52 33.82 4.52 33.84 4.5 33.85 4.49 33.85 4.48 33.82 4.48 33.77 4.48 33.75 4.46 33.73 4.5 33.71 4.54 33.66 4.58 33.62 4.59 33.57 4.55 33.53 4.48 33.51 4.36 33.51 4.23 33.49 4.18 33.51 4.19 33.56 4.23 33.59 4.43 33.62 4.27 33.72 4.26 33.75 4.33 33.82 4.35 33.85 4.35 33.88 4.35 33.91 4.36 33.94 4.41 33.97 4.5 33.91 4.51 33.96 4.51 34 4.52 34.02 4.56 34.06 4.59 34.07 4.65 34.08 4.68 34.09 4.71 34.15 4.64 34.16 4.55 34.17 4.49 34.18 4.46 34.19 4.41 34.21 4.35 34.25 4.25 34.28 4.23 34.32 4.22 34.33 4.08 34.33 4.04 34.32 4.02 34.3 4.01 34.25 4 34.21 3.94 34.13 3.93 34.11 3.9 34.1 3.89 34.09 3.91 34.08 3.96 34.06 4.09 33.98 4.12 33.96 4.13 33.94 4.18 33.91 4.23 33.88 4.21 33.82 4.11 33.69 4.06 33.65 4.01 33.62 3.98 33.61 3.95 33.6 3.92 33.61 3.9 33.62 3.87 33.63 3.85 33.62 3.83 33.63 3.85 33.66 3.83 33.67 3.79 33.67 3.76 33.68 3.69 33.66 3.53 33.69 3.47 33.65 3.5 33.61 3.54 33.59 3.59 33.58 3.64 33.56 3.64 33.54 3.62 33.52 3.62 33.51 3.65 33.5 3.66 33.5 3.71 33.53 3.74 33.54 3.94 33.52 3.98 33.5 4.01 33.46 4.02 33.42 4.03 33.4 4.08 33.39 4.1 33.39 4.15 33.41 Z" fill-rule="evenodd" id="NZL-5470" data-name="Chatham Islands Territory"/>
<path d="M 1.11 1.13 1.07 1.14 1.07 1.12 1.07 1.1 1.07 1.07 1.03 1.04 1.01 1.02 1 1 1.04 1 1.08 1 1.12 1.01 1.15 1.03 1.19 1.05 1.21 1.07 1.25 1.13 1.21 1.11 1.18 1.11 1.15 1.13 1.14 1.16 1.11 1.13 1.11 1.13 Z" id="NZL-5471" data-name="Kermadec Islands"/>
<path d="M 784.02 12.01 784.03 12.01 784.04 12.01 784.05 12.02 784.04 12.03 784.02 12.03 784.02 12.03 784.03 12.05 784.02 12.06 784.03 12.06 784.03 12.06 784.02 12.06 784 12.06 783.99 12.06 783.98 12.05 783.97 12.04 783.95 12.03 783.95 12.01 783.95 12.01 783.96 12.01 783.97 12.02 784 12.02 784.01 12.01 784.02 12.01 Z" id="NZL-5476" data-name="Three Kings Islands"/>
<path d="M 798.99 46.64 799 46.68 798.99 46.72 798.97 46.75 798.96 46.79 798.96 46.83 798.95 46.84 798.93 46.85 798.84 46.84 798.77 46.83 798.72 46.8 798.72 46.74 798.74 46.71 798.84 46.64 798.87 46.62 798.9 46.61 798.94 46.61 798.97 46.62 798.99 46.64 Z" id="NZL-5477" data-name="Antipodes Islands"/>
<path d="M 777.54 53.11 777.57 53.16 777.57 53.18 777.53 53.2 777.51 53.22 777.5 53.26 777.42 53.29 777.36 53.28 777.28 53.28 777.25 53.26 777.21 53.24 777.17 53.23 777.15 53.21 777.12 53.2 777.1 53.22 777.04 53.18 777.02 53.16 777.04 53.14 777.09 53.14 777.17 53.16 777.24 53.17 777.25 53.12 777.27 53.08 777.31 53.04 777.34 53.02 777.4 52.99 777.44 52.99 777.46 53.01 777.45 53.03 777.48 53.02 777.51 53.04 777.52 53.06 777.6 53.07 777.64 53.11 777.6 53.12 777.54 53.11 Z" id="NZL-5478" data-name="Campbell Islands"/>
<path d="M 770.58 49.4 770.73 49.43 770.78 49.45 770.75 49.46 770.69 49.47 770.63 49.49 770.59 49.49 770.56 49.49 770.55 49.51 770.24 49.49 770.23 49.48 770.22 49.47 770.2 49.45 770.14 49.42 770.12 49.4 770.1 49.37 770.15 49.38 770.18 49.39 770.24 49.43 770.27 49.43 770.45 49.4 770.47 49.38 770.49 49.37 770.51 49.38 770.58 49.4 Z M 770.79 48.65 770.79 48.68 770.78 48.7 770.82 48.7 770.92 48.68 770.91 48.7 770.92 48.72 770.94 48.75 770.95 48.76 770.86 48.76 770.84 48.77 770.83 48.78 770.83 48.8 770.82 48.81 770.78 48.84 770.75 48.83 770.73 48.82 770.69 48.84 770.71 48.85 770.73 48.88 770.75 48.93 770.73 48.93 770.7 48.92 770.69 48.92 770.7 48.95 770.7 48.96 770.69 48.97 770.64 49.01 770.68 49 770.71 49 770.75 49.01 770.78 49.02 770.73 49.04 770.61 49.03 770.55 49.04 770.55 49.05 770.59 49.05 770.67 49.08 770.72 49.08 770.7 49.12 770.67 49.16 770.71 49.16 770.76 49.16 770.79 49.16 770.78 49.18 770.78 49.2 770.78 49.22 770.79 49.24 770.78 49.24 770.74 49.24 770.72 49.24 770.72 49.25 770.75 49.25 770.79 49.27 770.82 49.28 770.84 49.3 770.84 49.34 770.81 49.37 770.78 49.39 770.74 49.38 770.69 49.35 770.62 49.34 770.55 49.31 770.52 49.27 770.49 49.29 770.47 49.31 770.41 49.33 770.43 49.3 770.45 49.27 770.46 49.23 770.45 49.2 770.43 49.18 770.4 49.16 770.36 49.15 770.33 49.18 770.36 49.19 770.38 49.21 770.39 49.23 770.37 49.24 770.34 49.23 770.29 49.21 770.26 49.21 770.28 49.23 770.31 49.24 770.32 49.26 770.33 49.28 770.33 49.32 770.32 49.34 770.3 49.35 770.27 49.36 770.23 49.36 770.2 49.35 770.17 49.33 770.14 49.31 770.12 49.31 770.1 49.33 770.04 49.37 770.02 49.25 770.11 49.16 770.41 49.02 770.45 48.98 770.48 48.93 770.49 48.86 770.5 48.81 770.53 48.76 770.54 48.71 770.49 48.67 770.53 48.66 770.56 48.65 770.59 48.65 770.63 48.66 770.66 48.66 770.76 48.65 770.79 48.64 770.79 48.65 Z" fill-rule="evenodd" id="NZL-5479" data-name="Auckland Islands"/>
<path d="M 771.7 42.98 771.69 43 771.67 43.04 771.68 43.06 771.69 43.09 771.7 43.11 771.7 43.14 771.68 43.13 771.67 43.12 771.65 43.08 771.63 43.08 771.55 43.09 771.55 43.07 771.66 42.99 771.7 42.98 Z" id="NZL-5480" data-name="The Snares"/>
</g>
</svg>