<?xml version="1.0"?>
<svg xmlns="http://www.w3.org/2000/svg" version="1.2" baseProfile="tiny" width="800" height="1364" viewBox="0 0 800 1364" stroke-linecap="round" stroke-linejoin="round">
<g id="ne_10m_admin_1_states_provinces">
<path d="M 458.1 682.32 585.82 709.21 640.55 709.21 640.55 763.95 613.66 801.88 567.57 829.25 512.83 829.25 477.3 935.84 564.69 965.13 622.31 985.78 686.65 958.41 686.65 976.65 650.16 1012.66 707.77 1049.64 780.75 1049.16 789.4 1077.48 799 1104.85 799 1132.7 780.75 1141.82 752.91 1150.95 680.88 1111.57 686.65 1179.27 640.55 1197.52 604.06 1188.4 554.13 1150.47 553.17 1221.05 535.88 1277.22 549.32 1335.32 512.83 1344.44 443.69 1294.51 383.19 1335.32 374.55 1353.57 346.7 1362.69 318.86 1362.69 282.36 1335.32 251.64 1269.54 300.61 1258.02 266.04 945.44 265.08 944.48 169.05 850.38 146.96 806.2 146.96 805.24 172.89 703.93 255.48 690.49 273.72 673.2 390.88 649.2 458.1 682.32 Z M 401.44 110.47 422.57 157.05 436.97 204.1 374.55 194.02 338.06 221.87 346.7 249.23 364.95 258.36 440.81 217.07 401.44 285.73 401.44 294.85 383.19 276.6 364.95 294.85 374.55 314.53 374.55 341.9 374.55 351.03 374.55 369.27 338.06 387.04 273.72 432.65 237.23 450.9 191.14 450.9 154.65 497.47 107.59 497.47 59.58 555.09 58.62 556.05 1 438.41 1 437.93 4.84 424.49 27.89 358.23 59.58 327.98 66.3 321.26 124.88 228.11 182.49 157.05 164.25 119.12 145.04 119.12 154.65 137.84 89.35 157.05 53.82 97.99 107.59 82.62 107.59 73.5 182.49 73.5 196.9 44.69 225.71 1 291.97 37.49 291.97 55.74 364.95 82.62 401.44 110.47 Z" fill-rule="evenodd" id="MAC+00?" data-name="Macau"/>
</g>
</svg>