<?xml version="1.0"?>
<svg xmlns="http://www.w3.org/2000/svg" version="1.2" baseProfile="tiny" width="800" height="407" viewBox="0 0 800 407" stroke-linecap="round" stroke-linejoin="round">
<g id="ne_10m_admin_1_states_provinces">
<path d="M 592.4 80.19 582.06 93.75 573.53 115.09 569.26 137.85 550.76 144.97 536.53 152.08 520.88 167.73 512.35 189.07 512.35 210.42 516.62 233.18 529.42 254.52 545.07 278.71 560.72 304.32 567.48 316.2 544.63 324.96 467.71 377.64 455.01 389.45 439.78 385.42 414.17 375.46 394.26 364.08 372.91 341.31 367.22 319.97 368.65 301.47 365.8 273.02 384.3 258.79 404.21 238.87 404.21 216.11 394.26 200.46 405.64 183.38 428.4 170.58 445.48 156.35 442.63 139.28 434.09 122.2 419.87 106.55 425.56 88.06 442.63 70.98 462.55 69.56 489.58 70.98 515.19 68.14 530.92 49.48 592.4 80.19 Z" id="SGP-4871" data-name="Central Singapore"/>
<path d="M 365.8 273.02 368.65 301.47 367.22 319.97 372.91 341.31 394.26 364.08 414.17 375.46 439.78 385.42 455.01 389.45 448.75 396.96 437.3 401.88 409.03 406.17 355.37 405.1 328.89 398.3 317.62 385.15 298.84 355.01 253.23 334.08 198.31 321.29 151.26 316.19 55.74 318.7 16.92 309.22 1 278.81 10.48 244.1 76.13 151.17 85.61 109.58 96.52 86.15 121.21 61.02 150.37 43.31 171.48 39.82 219.42 46.08 268.79 39.82 266.2 61.02 261.94 85.21 260.51 103.71 260.51 129.32 271.9 144.97 287.55 160.62 303.2 173.42 324.54 190.5 325.96 204.73 317.42 214.68 308.89 223.22 313.16 233.18 330.23 238.87 347.3 253.1 365.8 273.02 Z" id="SGP-4872" data-name="South West"/>
<path d="M 530.92 49.48 515.19 68.14 489.58 70.98 462.55 69.56 442.63 70.98 425.56 88.06 419.87 106.55 434.09 122.2 442.63 139.28 445.48 156.35 428.4 170.58 405.64 183.38 394.26 200.46 404.21 216.11 404.21 238.87 384.3 258.79 365.8 273.02 347.3 253.1 330.23 238.87 313.16 233.18 308.89 223.22 317.42 214.68 325.96 204.73 324.54 190.5 303.2 173.42 287.55 160.62 271.9 144.97 260.51 129.32 260.51 103.71 261.94 85.21 266.2 61.02 268.79 39.82 329.97 10.57 362.7 1 421.2 4.4 477.55 22.82 530.92 49.48 Z" id="SGP-4873" data-name="North West"/>
<path d="M 716.3 129.98 708.69 144.97 691.62 159.2 671.7 167.73 671.7 184.81 664.59 208.99 648.93 208.99 637.55 199.03 609.1 186.23 584.91 177.69 566.41 163.46 569.26 137.85 573.53 115.09 582.06 93.75 592.4 80.19 643.01 105.47 705.27 127.47 716.3 129.98 Z" id="SGP-4874" data-name="North East"/>
<path d="M 567.48 316.2 560.72 304.32 545.07 278.71 529.42 254.52 516.62 233.18 512.35 210.42 512.35 189.07 520.88 167.73 536.53 152.08 550.76 144.97 569.26 137.85 566.41 163.46 584.91 177.69 609.1 186.23 637.55 199.03 648.93 208.99 664.59 208.99 671.7 184.81 671.7 167.73 691.62 159.2 708.69 144.97 716.3 129.98 760 139.9 790.41 151.17 799 164.68 773.6 206.98 736.21 251.97 691.13 287.93 641.76 302.51 587.56 308.5 567.48 316.2 Z" id="SGP-4875" data-name="South East"/>
</g>
</svg>