<?xml version="1.0"?>
<svg xmlns="http://www.w3.org/2000/svg" version="1.2" baseProfile="tiny" width="800" height="2962" viewBox="0 0 800 2962" stroke-linecap="round" stroke-linejoin="round">
<g id="ne_10m_admin_1_states_provinces">
<path d="M 6.59 1.62 7.4 3 10.77 5.52 12.19 7.16 11.24 7.76 9.12 8.69 8.12 9.39 7.13 9.81 4.57 9.93 3.43 10.27 2.03 9.74 1.61 8.76 1.5 7.6 1 6.59 2.01 5.21 3.47 2.04 4.73 1 5.01 1.68 5.34 2.04 5.84 2.04 6.59 1.62 Z" id="SHN-4863" data-name="Ascension"/>
<path d="M 792.5 731.99 793.61 731.81 796.33 731.84 797.52 731.36 798.33 732.95 798.86 734.31 799 735.62 798.71 736.96 797.87 738.42 796.86 739.2 795.67 739.8 794.3 740.74 794.09 740.22 793.78 739.94 793.42 739.76 793.06 739.45 791.76 740.71 790.25 741.53 788.68 741.71 787.19 741.02 786.33 739.85 786.55 738.86 787.17 737.85 787.52 736.65 788.1 735.29 789.47 733.9 791.11 732.74 792.5 731.99 Z" id="SHN-4864" data-name="Saint Helena"/>
<path d="M 412.62 2959.92 409.91 2960.96 406.28 2959.58 399.51 2955.57 399.51 2954.95 400.37 2953.3 401.08 2952.71 402.31 2952.46 406.49 2952.22 407.66 2952.46 408.28 2953.17 409.26 2955.61 409.8 2956.5 411.62 2957.9 412.2 2958.62 412.62 2959.92 Z M 197.05 2665.25 195.88 2665.27 193.38 2663.12 190.54 2661.18 191.42 2660.3 193.08 2658.07 194.06 2657.07 194.49 2656.76 198.76 2657.07 200.31 2657.89 201.66 2658.97 203.65 2659.93 203.25 2660.66 202.83 2661.16 202.36 2661.52 201.79 2661.79 198.78 2664.24 197.05 2665.25 Z" fill-rule="evenodd" id="SHN-4865" data-name="Tristan da Cunha"/>
</g>
</svg>