<?xml version="1.0"?>
<svg xmlns="http://www.w3.org/2000/svg" version="1.2" baseProfile="tiny" width="800" height="180" viewBox="0 0 800 180" stroke-linecap="round" stroke-linejoin="round">
<g id="ne_10m_admin_1_states_provinces">
<path d="M 20.16 140.06 17.37 140.33 14.59 140.06 13.32 139.2 11.4 136.52 2.98 132.04 1 127.98 2.93 123.69 6.35 121.98 23.5 121.49 25.28 121.92 28.69 124.92 28.75 126.99 27.09 129.04 24.08 134.23 22.82 135.53 21.82 136.88 21.42 139.2 20.16 140.06 Z M 789.78 115.26 787.61 116.35 779.69 115.84 777.68 116.55 772.05 120.26 770.5 121.92 768.45 121.92 765.82 119.49 761.49 120.48 755.85 122.72 732.64 127.92 728 130.02 721.89 128.15 712.66 129.21 704.04 128.06 699.5 119.71 704.09 119.56 705.57 119.71 711.43 119.23 717.33 117.1 722.68 114.04 726.9 110.78 729.7 109.36 753.39 105.72 757.16 106.36 767.46 109.76 783.01 110.35 786.87 111.79 789.78 115.26 Z M 795.43 59.92 799 65.07 798.13 65.27 794.95 65.07 796.97 67.09 793.82 67.24 791.36 66.59 789.69 65.13 788.87 62.87 786.87 62.87 789.55 67.91 790.05 70.27 788.87 73.17 784.79 67.02 772.42 56.01 772.5 54.97 779.79 54.93 788.25 56.56 795.43 59.92 Z M 275.21 6.04 306.34 12.1 337.11 8.26 341.33 8.78 352.45 12.48 356.86 12.74 368.46 10.28 385.29 8.81 393.15 9.75 401.01 12.48 405.86 11.6 424.93 11.78 436.68 15.07 461.87 10.28 485.14 16.99 498.7 13.23 514.38 18 517.7 15.57 521.58 16.19 523.71 18.72 524.79 20.39 527.3 21.59 530.14 19.98 532.49 17.02 535.43 17.86 534.45 21.75 540.19 24.63 541.15 27.55 543.04 31.26 547.57 31.5 557.34 28.67 557.34 26.46 552.43 25.86 547.04 23.24 542.77 19.18 539.14 15.61 558.62 21.44 563.41 22.41 566.83 23.49 571.59 24.35 575.86 22.51 578.47 18.69 585.19 20.06 598.75 23.78 603.38 20.81 606.94 21.5 610.58 24.1 620.13 26.15 625.31 28.87 630.7 34.29 633.96 32.8 636.17 29.85 637.89 30.49 638.25 31.95 636.72 33.6 635.53 35.89 637.76 35.38 640.85 34.22 642.73 33.06 647.77 40.03 652.78 42.6 656.71 39.97 664.66 45.94 674.97 47.33 680.15 43.78 682.51 41.62 684.99 40.03 687.36 40.62 687.48 42.63 684.58 57.28 683.93 69.67 685.16 73.17 683.94 76.81 686.05 78.91 688.49 79.94 692.6 78.01 691.75 80.75 692.58 82.91 696.14 87.49 693.07 89.6 692.65 92.11 690.01 92.34 687.12 87.97 683.81 87.99 682.74 91.14 685.63 94.88 682.79 97.2 679.26 96.6 674.29 94.14 669.11 95.8 663.69 98.34 657.84 99.65 652.95 101.77 647.81 106.64 637.32 122.13 636.47 129.93 632.37 135.07 630.84 135.96 623.99 137.38 622.44 139.2 625.47 147.93 619.7 153.02 608.61 159.54 593.22 164.63 586.54 164.49 579.76 163.11 573.7 162.56 570.12 163.28 561.39 166.61 559.3 166.83 550.26 166.61 544.17 168.07 526.81 176.89 523.15 177.17 519.88 177.05 517.02 177.32 514.67 178.74 513.38 176.89 513.01 176.09 512.83 174.69 516.04 173.79 516.8 172.37 515.57 170.56 512.83 168.61 507.06 173.55 503.66 174.47 499.47 173.48 491.3 172.66 488.48 171.97 486.96 170.3 485.88 168.28 484.32 166.61 480.61 164.68 477.96 164.1 473.11 164.39 466.24 165.97 457.8 171.53 451.77 170.83 446.02 166.56 441.21 161.18 436.17 158.07 430.64 159.2 426.44 159.72 423.32 161.23 419.03 162.03 409.28 162.56 406.16 164.09 403.13 166.03 399.61 166.69 394.95 164.39 392.86 165.75 390.72 166.61 388.69 163.26 383.59 162.82 371.5 164.39 369.26 163.87 360.37 160.53 348.23 160.53 348.47 156.48 345.83 155.25 341.85 156.1 338.1 158.31 338.1 160.53 342.15 160.53 338.74 164.99 332.89 168.06 326.12 169.91 319.92 170.83 310.69 170.52 306.19 170.95 302.87 170.67 301.33 170.83 300.15 172.03 299.64 174.08 299.5 176.89 293.95 176.28 289.77 173.36 283.11 166.61 277.11 166.3 270.42 165.22 263.26 165.33 259.02 164.03 254.9 167.38 250.04 169.86 245.7 170.83 242.13 170.37 231.9 169.36 225.4 165.94 222.22 168.35 224.3 175.14 221.08 174.96 216.77 168.67 215.24 165.87 215.36 157.63 222.43 154.47 224.55 153.37 227.25 152.59 229.54 151.44 230.52 149.22 229.33 147.63 226.47 146.21 222.56 146.92 218.76 145.32 218.98 139.79 220.98 137 223.86 135.03 222.66 132.01 221.43 127.07 224.58 123.99 224.42 114.43 227.41 103.7 229.72 101.36 232.2 99.09 233.88 95.63 231.92 92.5 228.15 89.27 223.44 75.08 220.65 69.57 214.04 68.32 208.68 67.05 203.98 58.32 201.07 54.03 198.63 48.69 199.22 46.59 207.68 44.25 214.47 41.47 220.09 39.24 224.26 36.76 231.63 31.18 232.03 24.6 228.89 19.42 228.5 11.89 233.93 5.1 248.74 1 264.52 1.48 275.21 6.04 Z" fill-rule="evenodd" id="PRI-5260" data-name="Puerto Rico"/>
</g>
</svg>