<?xml version="1.0"?>
<svg xmlns="http://www.w3.org/2000/svg" version="1.2" baseProfile="tiny" width="800" height="261" viewBox="0 0 800 261" stroke-linecap="round" stroke-linejoin="round">
<g id="ne_10m_admin_1_states_provinces">
<path d="M 59.55 224.42 53.74 223.33 48.69 222.6 43.58 224.68 40.3 222.7 35.77 221.62 32.56 220.44 33.31 218.14 31.63 217.2 31.08 216.97 31.88 214.37 32.6 212.95 34.03 211.76 32.21 210.46 31.54 209.65 29.44 207.09 27.96 206.45 25.72 206.22 23.79 205.43 20.26 202.84 19.26 200.66 19.25 197.62 18.58 195.08 16.39 190.05 16.34 189.38 16.52 187.78 16.39 187.17 15.87 186.68 15 186.49 13.45 185.54 12.18 185.15 11.11 184.69 10.64 183.87 10.47 183.23 10.02 182.43 9.54 181.72 9.17 181.43 8.56 181.14 8.82 180.43 9.37 179.62 9.69 178.99 9.05 177.88 7.62 176.82 6.14 176 5.34 175.69 2.52 175.49 1.43 175.06 1 174.21 1.09 172.67 1.33 172.04 1.68 171.62 2.04 170.74 3.29 163.26 3.87 161.25 5.29 159.37 8.95 155.86 9.69 153.99 10.73 152.67 13.05 151.43 15.35 149.81 15.65 149.1 16.13 149.06 24.61 147.32 30.93 147.14 31.39 147.08 31.48 146.85 31.32 146.5 30.91 145.85 31.76 145.81 33.59 146.14 39.74 148.1 41.11 148.39 41.94 148.26 47.76 146.59 49.66 145.81 52.18 145.34 53.92 145.29 55 145.08 55.61 144.67 56.18 143.78 56.7 143.36 57.31 143.09 58.59 142.71 59.68 142.22 59.96 142.02 60.2 141.77 60.51 141.19 60.72 140.9 61.07 140.6 61.7 140.2 62.55 139.79 62.83 139.71 63.11 139.68 63.33 139.62 63.48 139.49 63.62 139.29 67.57 135.03 68.81 133.99 69.72 133.49 70.4 133.61 70.77 133.79 71.05 133.99 71.33 134.14 72.79 134.42 73.29 134.6 73.79 134.86 74.38 135.32 74.92 135.83 75.44 136.49 75.79 137.49 75.86 138.81 75.05 140.42 74.31 141.38 71.83 143.61 71.37 143.92 70.96 144.04 70.48 144.06 70.03 144.04 69.55 144.09 69.27 144.32 68.29 146.07 68.05 146.32 67.72 146.52 66.16 147.06 66.2 147.94 65.49 149.04 73.1 154.06 71.79 154.63 71.22 155.02 70.53 155.64 68.42 157.87 67.22 159.47 67.7 161.05 69.51 161.52 71.42 161.49 71.74 161.52 72.03 161.62 72.34 161.8 72.73 162.09 73.75 162.6 74.55 163.13 74.94 163.3 75.53 163.39 78.03 163.45 78.46 163.62 78.53 163.92 78.2 164.46 77.92 164.74 77.85 165.03 78.12 165.33 79.45 166.06 79.93 166.41 80.88 167.41 81.97 168.15 82.6 168.81 84.94 171.95 85.51 172.43 85.94 172.68 86.75 172.71 87.3 172.88 87.75 173.17 88.53 173.78 88.99 174.23 89.38 174.72 89.71 175.01 89.71 175.56 89.38 176.33 88.19 178.16 87.14 179.37 87.05 179.71 87.03 180 87.88 181.59 95.46 185.68 91.6 188.76 90.92 189.62 90.79 190.32 91.08 191.59 91.36 192.04 91.71 192.27 92.34 192.35 95.23 193.25 95.54 193.73 95.51 194.35 95.23 195.88 95.54 196.41 95.86 196.63 96.45 196.51 96.69 196.52 96.86 196.62 97.14 196.96 97.36 197.14 97.36 197.57 97.17 198.23 96.28 199.76 95.8 200.36 95.28 200.67 94.53 200.49 92.97 200.82 88.53 203.13 84.81 204.24 84.14 204.25 83.53 204.09 82.47 203.53 81.82 203.33 79.93 203.19 79.53 203.09 79.38 202.95 79.33 202.72 79.49 202.43 80.11 201.67 79.88 201.17 79.72 200.95 79.66 200.72 79.55 200.5 79.27 200.46 78.83 200.55 77.96 200.93 77.4 201.08 76.92 201.3 76.57 201.66 76.16 203.06 76.23 203.45 76.36 203.72 76.53 203.96 77.22 204.48 77.51 204.74 77.68 204.96 77.72 205.15 77.55 205.4 77.16 205.7 76.27 205.94 75.75 206.03 75.16 206.22 74.57 206.53 73.51 207.21 72.13 207.82 71.56 207.93 69.98 207.97 66.68 207.44 66.18 207.44 65.9 207.57 65.81 207.76 66.62 208.64 66.66 208.96 66.62 209.31 66.44 209.89 66.4 210.24 66.44 210.5 66.6 210.67 67.72 211.23 68.48 211.75 68.79 211.88 69.09 211.94 71.33 211.81 71.57 211.85 71.82 211.93 71.99 212.06 72.22 212.32 72.16 212.48 71.57 212.87 70.03 213.52 67.9 214.71 66.92 214.99 66.25 215.03 65.88 214.89 65.55 214.97 65.34 215.25 65.31 216.08 65.47 216.63 65.73 217.21 65.57 217.52 65.14 217.81 63.66 218.37 62.92 218.73 60.33 220.83 59.56 224.37 59.55 224.42 Z" id="SVK-1051" data-name="Bratislavský"/>
<path d="M 442.61 98.41 462.79 100.07 465.44 99.94 467.62 98.67 468.55 98.66 471.11 99.53 473.86 100.13 474.62 100.4 475.64 100.93 481.36 103.15 478.18 103.79 471.59 110.32 470.98 111.14 471.11 111.82 471.07 112.25 470.98 112.6 470.9 113.95 470.87 115.05 471.29 116.43 471.35 117.17 470.77 117.77 470.09 118.33 469.35 118.79 468.88 119.19 468.55 119.55 468.44 120.17 468.48 121 468.98 122.66 469.53 123.52 470.63 124.23 472.21 124.44 472.52 124.57 479.72 128.51 480.49 129.54 483.4 135.17 484.36 137.74 484.23 138 484.1 138.25 484.03 138.54 484.05 138.86 484.29 139.12 484.81 139.45 486.07 139.88 487.07 140.08 488.6 140.22 489.08 140.33 490.25 140.76 491.49 141.08 491.79 141.23 491.86 141.46 491.47 142.41 490.92 144.24 490.71 144.68 490.45 145.01 490.08 145.35 489.71 145.8 489.38 146.32 489.01 147.11 487.99 150.42 487.61 150.99 486.83 151.78 486.31 152.48 485.94 153.16 485.68 154.05 485.72 154.62 485.9 155.11 486.38 155.77 486.53 156.15 486.55 156.55 486.44 156.91 486.4 157.26 486.75 157.71 487.42 158.16 489.88 159.17 490.21 159.44 490.1 159.67 489.84 159.93 489.66 160.17 489.56 160.39 489.6 160.55 490.23 160.61 496.14 160.28 498.34 160.48 499.49 160.43 501.92 159.52 502.94 159.28 506.01 159.26 508.36 160.41 508.44 160.45 504.18 163.45 502.08 165.3 500.46 167.47 495.01 178.59 492.09 182.64 488.58 186.21 484.52 188.95 481.31 190.07 479.62 189.58 478.04 188.42 475.25 187.48 473.67 187.94 469.44 190.55 467.09 191.25 464.63 191.07 463.2 190.72 462 190.88 460.24 192.27 459.69 193.25 458.93 195.77 457.9 197.02 456.74 197.64 454.09 198.32 448.52 200.61 448.05 200.8 442.72 201.91 439.49 203.25 433.15 207.21 429.85 208.02 426.94 207.28 421.61 204.05 418.16 203.31 413.11 204.61 411.77 204.49 410.46 203.16 410.8 201.98 411.6 200.77 411.53 199.39 409.04 197.37 405.75 197.01 399.29 197.85 397.89 197.36 394.84 194.84 393.25 193.94 391.85 193.66 390.36 193.63 377.47 195.92 375.05 196.86 373.51 198.9 372.2 204.32 370.53 206.54 370.49 206.6 370.46 206.67 370.49 206.76 370.53 206.85 370.75 207.62 370.82 208.38 370.75 209.12 370.53 209.84 363.03 213.41 344.12 213.14 335.74 216.74 334.21 216.95 316.83 215.53 308.45 216.35 305.69 216.26 305.69 216.21 305.54 214.92 305.5 213.19 305.76 212.72 307.35 211.15 307.77 210.46 308.16 210.07 308.68 209.73 309.37 209.44 310 209.08 310.83 208.47 311.85 207.55 312.35 206.59 312.41 205.63 311.57 203.06 311.52 202.3 311.92 201.27 312.2 200.71 312.48 200.3 313.11 199.7 313.26 199.41 313.31 199.14 313.31 198.72 313.35 198.48 313.18 198.12 313 197.89 311.11 196.47 308.85 197.86 308.11 198.23 307.42 198.48 306.72 198.53 306.24 198.52 305.41 198.41 305.02 198.47 304.52 198.6 302.18 198.97 300.22 199.66 299.48 199.83 298.54 199.92 297.41 200.16 296.89 200.41 296.37 200.57 295.33 200.77 294.87 200.99 294.44 201.36 294 201.94 293.83 202.39 293.76 202.67 293.68 202.82 293.55 202.9 293.28 202.93 292.42 202.85 291.78 202.88 290.43 203.16 289.74 203.21 289.04 203.14 287.91 202.93 287.5 202.91 286.74 202.99 286.35 202.98 285.76 202.88 285.09 202.63 282.39 201.19 281.8 200.97 281.02 200.85 280.32 200.8 279.72 200.83 279.26 200.99 278.91 201.25 278.59 201.73 278.3 202.02 277.96 202.21 277.61 202.27 277.24 202.21 276.89 202.02 276.46 201.61 276.2 201.03 275.99 200.32 275.99 199.49 276.21 198.89 276.98 198.15 277.89 197.59 278.48 197.09 279.15 196.87 279.35 196.63 279.32 196.21 278.76 195.29 277.61 193.92 277.37 193.4 277.46 193.04 277.98 192.73 278.17 192.52 278.17 192.3 276.89 191.39 276.98 190.9 277.5 190.22 279.09 188.79 280.8 187.65 281.24 186.99 281.52 186.47 282.69 182.5 277.2 174.11 276.33 173.42 272.69 171.38 268.67 167.41 267.01 167.12 266.38 167.29 265.6 167.63 264.28 168.68 262.26 170.02 261.87 170.37 261.37 170.97 260.56 171.55 260.38 171.82 260.32 172.16 260.15 172.5 259.86 172.8 259.25 173.26 259.14 173.69 259.1 174.14 258.97 174.46 258.62 174.85 254.13 175.82 245.34 176.72 243.58 177.13 242.4 177.98 241.49 178.95 241.21 179.2 240.23 179.76 239.84 180.04 239.38 180.66 238.75 180.62 237.34 179.05 238.04 178.4 239.21 177.6 239.56 177.29 239.84 176.95 239.95 176.58 240.08 176.24 240.32 175.98 241.25 175.47 241.73 175.11 242.29 174.52 242.66 173.84 242.99 172.98 243.12 172.06 242.95 170.95 242.38 169.12 241.32 167.76 240.56 167.17 239.93 167.03 239.51 167 239.21 166.8 239.08 166.35 239.23 165.56 239.23 164.72 238.91 163.93 237.73 162.51 237.3 161.75 237.4 160.83 237.78 160.41 238.95 159.39 239.12 159.13 239.04 158.97 238.23 158.87 237.99 158.66 237.93 158.27 238.17 157.36 238.28 156.73 238.32 156.06 238.04 155.43 237.56 155.03 236.38 154.75 235.14 154.75 231.73 155.25 231.38 155.06 231.56 154.56 232.45 153.46 234.51 151.78 234.81 151.45 234.55 151 233.6 150.56 231.56 148.48 233.14 146.22 246.86 145.07 246.91 144.76 246.99 144.54 247.47 143.62 247.52 143.38 247.52 143.17 247.49 142.95 247.49 142.73 247.58 142.47 247.8 142.04 248.17 141.61 248.82 140.99 250.9 139.38 254.63 135.8 262.3 137.16 263.08 137.14 264.02 137 264.04 136.43 263.73 135.21 263.97 134.91 264.45 134.55 266.45 133.41 266.99 132.94 270.32 128.75 271 128.16 271.78 127.9 273.84 127.85 274.49 127.71 274.99 127.48 276.93 125.51 278.61 123.18 279.09 122.72 279.37 122.37 279.54 122.1 279.63 121.17 285.63 118.38 287.35 118.02 287.59 118.24 287.76 118.52 287.87 118.8 288.06 119.03 288.24 119.19 288.5 119.37 288.82 119.75 288.89 119.95 291.26 120.31 303.18 120.78 305.09 118.45 305.41 117.6 305.87 115.95 305.93 115.26 305.85 114.81 305.65 114.62 303.78 113.5 302.98 112.51 302.85 111.89 303.02 111.46 303.44 111.14 303.98 110.6 304.11 110 303.98 109.19 303.22 107.46 303.2 106.98 303.5 106.65 305.83 105.88 306.5 105.42 306.91 105.07 308.53 102.6 315.18 102.85 338.35 100.65 339.47 100.66 339.66 100.89 339.88 101.39 340.12 101.56 340.55 101.71 340.88 102.02 341.16 102.53 341.4 103.65 341.47 104.17 341.42 104.51 341.27 104.58 340.77 104.62 340.57 104.69 340.42 104.86 340.1 105.45 340.36 105.54 340.79 105.55 346.5 104.96 347.27 104.8 348.01 104.44 348.29 104.2 348.49 103.97 348.62 103.69 348.81 102.8 349.05 102.27 350.55 100.97 353.51 99.85 358.18 96.04 381.71 93.39 392.34 94.26 401.34 96.46 402.4 97.01 403.17 97.58 403.69 97.77 405.08 98.01 405.6 98.17 406.02 98.44 406.39 98.76 407.1 99.21 407.65 99.35 408.17 99.35 409.85 98.72 416.26 97.49 417.57 97.51 421.5 98.24 434.92 98.43 435.28 98.35 436.96 98.24 439.41 97.46 440.17 97.44 440.78 97.49 442.61 98.41 Z" id="SVK-1052" data-name="Banskobystrický"/>
<path d="M 365.93 1.21 367.11 1.52 369.47 4.23 370.53 4.96 373.82 6.38 375.51 9.2 378.06 16.26 380.32 20.72 381.04 21.72 383.45 22.93 386.37 23.45 391.98 23.48 391.33 24.37 391.11 25.13 391.2 27.32 390.9 28.97 390.89 29.01 398.94 30.8 402 31.02 404.84 30.83 409.53 29.6 410.79 30.22 410.82 30.24 412.12 32.89 412.83 35.22 413.66 42 413.44 42.57 412.37 43.62 412.28 44.2 412.28 44.21 412.77 44.68 414.68 45.61 414.7 45.62 414.92 45.94 414.96 45.99 416.02 46.72 416.07 46.76 416.34 47.36 416 48.15 415.19 48.46 414.29 48.63 413.67 48.96 408.37 54.63 407.81 56.46 407.81 56.47 409.62 58.11 413.15 58.96 419.61 59.27 422.72 58.52 424.69 57.19 424.84 57.62 427.81 60.91 428.5 62.03 429.02 63.34 429.09 65.07 429.26 65.97 429.91 66.74 430.37 66.92 430.76 66.86 431.02 66.6 431.5 66.25 432.04 66.03 433.06 65.95 433.94 66.07 434.79 66.56 435.48 67.32 436.35 68.71 436.89 69.22 437.33 69.34 437.7 69.09 438.04 68.98 438.46 69.12 438.89 69.65 439.33 70.02 439.78 70.27 440.32 70.27 443.07 69.95 444.98 69.36 445.72 69.21 446.46 69.17 446.85 69.75 446.96 70.85 446.09 74.97 446.04 76.52 445.87 77.69 445.2 79.7 445.07 81.47 444.81 82.32 444.29 82.69 443.35 82.75 441.83 83.23 441.07 83.25 440.06 83.17 439.61 83.25 439.46 83.6 439.59 84.19 444.37 88.31 445.22 88.85 445.89 89.43 446.35 90.09 446.54 91.31 447.11 92.69 447.41 93.24 447.72 93.62 448.15 93.92 448.85 94.1 450.4 94.29 450.72 94.61 450.42 95.19 448.89 96.24 447.39 97.01 442.61 98.41 440.78 97.49 440.17 97.44 439.41 97.46 436.96 98.24 435.28 98.35 434.92 98.43 421.5 98.24 417.57 97.51 416.26 97.49 409.85 98.72 408.17 99.35 407.65 99.35 407.1 99.21 406.39 98.76 406.02 98.44 405.6 98.17 405.08 98.01 403.69 97.77 403.17 97.58 402.4 97.01 401.34 96.46 392.34 94.26 381.71 93.39 358.18 96.04 353.51 99.85 350.55 100.97 349.05 102.27 348.81 102.8 348.62 103.69 348.49 103.97 348.29 104.2 348.01 104.44 347.27 104.8 346.5 104.96 340.79 105.55 340.36 105.54 340.1 105.45 340.42 104.86 340.57 104.69 340.77 104.62 341.27 104.58 341.42 104.51 341.47 104.17 341.4 103.65 341.16 102.53 340.88 102.02 340.55 101.71 340.12 101.56 339.88 101.39 339.66 100.89 339.47 100.66 338.35 100.65 315.18 102.85 308.53 102.6 306.91 105.07 306.5 105.42 305.83 105.88 303.5 106.65 303.2 106.98 303.22 107.46 303.98 109.19 304.11 110 303.98 110.6 303.44 111.14 303.02 111.46 302.85 111.89 302.98 112.51 303.78 113.5 305.65 114.62 305.85 114.81 305.93 115.26 305.87 115.95 305.41 117.6 305.09 118.45 303.18 120.78 291.26 120.31 288.89 119.95 288.82 119.75 288.5 119.37 288.24 119.19 288.06 119.03 287.87 118.8 287.76 118.52 287.59 118.24 287.35 118.02 285.63 118.38 279.63 121.17 279.26 119.83 278.85 119.39 274.06 115.43 273.13 114.48 272.63 113.77 272.21 112.78 272.15 112.31 272.24 111.97 272.56 111.71 272.52 111.58 272.1 111.35 271.28 111.04 269.06 109.64 268.48 109.52 268.13 109.42 267.62 109.19 267.25 109.07 266.6 108.94 266.28 108.85 265.91 108.69 262.74 106.78 262.15 106.25 261.84 105.8 261.82 105.01 262.02 104.12 262.06 103.78 262.02 103.44 261.82 102.79 261.82 102.4 261.91 102.03 262.3 101.2 262.34 100.63 262.28 99.92 261.48 97.79 261.43 97.25 261.63 96.95 262.02 96.56 262.21 96.25 262.34 95.96 262.41 95.73 262.52 95.56 262.74 95.42 263.02 95.31 263.3 95.15 263.67 94.89 263.93 94.62 264.63 94.2 261.82 91.8 261.28 91.53 260.5 91.23 257.82 91.06 251.99 90.07 247.47 90.95 246.1 90.93 245.84 90.67 244.97 89.52 244.63 89.31 244.29 89.31 242.47 90.61 242.25 90.83 242.16 91.07 242.12 91.32 241.62 91.8 240.67 92.39 236.92 93.84 235.88 93.99 235.34 93.92 233.38 93.49 230.84 93.18 229.64 92.58 228.86 91.45 232.97 89.85 233.53 89.53 234.34 88.98 235.66 87.48 236.49 86.96 237.36 86.6 241.58 85.81 242.88 85.12 244.5 83.85 246.34 82.1 247.06 81.16 247.36 80.37 246.95 78.51 246.97 78.22 247.1 77.93 247.34 77.54 247.41 77.32 247.38 77.11 247.3 76.93 247.28 76.72 247.32 76.48 247.54 75.91 247.58 75.66 247.54 75.44 247.36 75.26 247.12 75.08 246.89 74.97 246.34 74.77 246.15 74.65 245.97 74.49 245.6 73.85 245.36 73.63 245.06 73.39 244.73 73.21 244.45 73.08 242.45 72.68 241.88 72.68 241.64 72.63 241.45 72.36 241.97 71.85 245.73 69.25 244.05 67.51 243.9 67.2 243.77 66.64 243.86 66.1 243.79 65.07 243.38 64.39 242.25 63.34 241.56 62.92 238.93 61.84 238.15 61.71 237.6 61.56 237.01 61.3 235.31 60.26 234.86 60.05 234.51 59.99 234.03 59.99 233.82 59.95 230.45 58.49 229.67 57.98 228.9 57.3 227.14 55.19 226.92 54.88 226.94 54.75 226.88 54.51 226.73 54.21 226.03 53.34 225.92 53.08 225.94 52.91 226.16 52.55 226.23 52.35 226.05 51.99 225.71 51.51 217.07 42.1 216.92 41.85 216.84 41.56 216.79 41.31 216.75 40.22 214.23 39.69 213.58 39.05 216.88 37.36 217.14 32.41 217.23 30.71 221.31 31.31 224.45 29.96 230.42 25.2 235.02 23.58 236.18 22.82 236.89 21.59 237.24 18.98 237.96 17.83 240.85 16.64 247.04 17.23 251.04 15.85 252.01 15.72 252.98 15.85 257.57 17.36 261.63 18.17 265.55 18.02 271.3 14.58 273.92 13.92 279.66 13.82 293.53 14.66 297.59 16.27 296.35 18.63 296.5 20.63 297.18 22.53 297.54 24.61 296.96 29.21 297.74 30.79 300.48 31.12 304.03 30.94 309.45 28.88 312.5 28.41 313.79 28.7 316.57 30.03 317.92 30.48 319.37 30.54 322.88 30.09 327.2 28.96 328.21 27.83 328.58 26.09 329.56 23.36 329.97 23.3 331.69 23.27 332.31 22.97 332.65 22.03 332.37 21.37 331.92 20.95 331.68 20.79 333.92 16.24 335.83 14.25 337.87 12.98 340.16 12.25 342.86 11.88 347.17 11.9 348.62 11.75 350.6 11.23 351.66 10.64 363.81 1.93 364.35 1.23 365.16 1 365.93 1.21 Z" id="SVK-1053" data-name="Žilinský"/>
<path d="M 231.56 148.48 233.6 150.56 234.55 151 234.81 151.45 234.51 151.78 232.45 153.46 231.56 154.56 231.38 155.06 231.73 155.25 235.14 154.75 236.38 154.75 237.56 155.03 238.04 155.43 238.32 156.06 238.28 156.73 238.17 157.36 237.93 158.27 237.99 158.66 238.23 158.87 239.04 158.97 239.12 159.13 238.95 159.39 237.78 160.41 237.4 160.83 237.3 161.75 237.73 162.51 238.91 163.93 239.23 164.72 239.23 165.56 239.08 166.35 239.21 166.8 239.51 167 239.93 167.03 240.56 167.17 241.32 167.76 242.38 169.12 242.95 170.95 243.12 172.06 242.99 172.98 242.66 173.84 242.29 174.52 241.73 175.11 241.25 175.47 240.32 175.98 240.08 176.24 239.95 176.58 239.84 176.95 239.56 177.29 239.21 177.6 238.04 178.4 237.34 179.05 238.75 180.62 239.38 180.66 239.84 180.04 240.23 179.76 241.21 179.2 241.49 178.95 242.4 177.98 243.58 177.13 245.34 176.72 254.13 175.82 258.62 174.85 258.97 174.46 259.1 174.14 259.14 173.69 259.25 173.26 259.86 172.8 260.15 172.5 260.32 172.16 260.38 171.82 260.56 171.55 261.37 170.97 261.87 170.37 262.26 170.02 264.28 168.68 265.6 167.63 266.38 167.29 267.01 167.12 268.67 167.41 272.69 171.38 276.33 173.42 277.2 174.11 282.69 182.5 281.52 186.47 281.24 186.99 280.8 187.65 279.09 188.79 277.5 190.22 276.98 190.9 276.89 191.39 278.17 192.3 278.17 192.52 277.98 192.73 277.46 193.04 277.37 193.4 277.61 193.92 278.76 195.29 279.32 196.21 279.35 196.63 279.15 196.87 278.48 197.09 277.89 197.59 276.98 198.15 276.21 198.89 275.99 199.49 275.99 200.32 276.2 201.03 276.46 201.61 276.89 202.02 277.24 202.21 277.61 202.27 277.96 202.21 278.3 202.02 278.59 201.73 278.91 201.25 279.26 200.99 279.72 200.83 280.32 200.8 281.02 200.85 281.8 200.97 282.39 201.19 285.09 202.63 285.76 202.88 286.35 202.98 286.74 202.99 287.5 202.91 287.91 202.93 289.04 203.14 289.74 203.21 290.43 203.16 291.78 202.88 292.42 202.85 293.28 202.93 293.55 202.9 293.68 202.82 293.76 202.67 293.83 202.39 294 201.94 294.44 201.36 294.87 200.99 295.33 200.77 296.37 200.57 296.89 200.41 297.41 200.16 298.54 199.92 299.48 199.83 300.22 199.66 302.18 198.97 304.52 198.6 305.02 198.47 305.41 198.41 306.24 198.52 306.72 198.53 307.42 198.48 308.11 198.23 308.85 197.86 311.11 196.47 313 197.89 313.18 198.12 313.35 198.48 313.31 198.72 313.31 199.14 313.26 199.41 313.11 199.7 312.48 200.3 312.2 200.71 311.92 201.27 311.52 202.3 311.57 203.06 312.41 205.63 312.35 206.59 311.85 207.55 310.83 208.47 310 209.08 309.37 209.44 308.68 209.73 308.16 210.07 307.77 210.46 307.35 211.15 305.76 212.72 305.5 213.19 305.54 214.92 305.69 216.21 305.69 216.26 302.54 216.16 300.48 216.81 293.72 217.82 280.4 219.83 277.95 221.17 274.2 226.4 272.87 227.18 270.14 227.49 268.87 227.99 267.04 229.5 267.23 230.01 268.2 230.57 268.67 232.19 267.26 237.98 266.91 240.93 267.83 243.55 271.92 246.26 277.31 248.9 277.1 248.95 273.65 249.77 270.48 250.34 268.04 251.56 263.41 255.13 259.99 256.55 255.91 256.84 251.72 256.29 246.62 254.77 240.34 254.47 211.65 256.72 201.17 259.59 195.97 259.93 178.69 258.72 146.59 260.12 138.49 260.47 126.76 258.31 123.57 257.15 123.6 257.13 124.71 256.33 125.25 255.31 126.25 252.03 126.54 251.56 126.86 251.32 127.19 251.38 127.76 251.6 128.04 251.64 128.35 251.64 128.65 251.68 128.98 251.77 129.78 251.6 130.93 251.18 133.56 249.8 134.58 249.14 135.17 248.56 135.22 245.56 135.72 244.62 136.24 243.95 137 243.39 137.41 243.14 137.78 243.05 138.06 243.11 138.61 242.92 139.67 242.4 141.26 240.83 144.59 238.83 146.93 237.81 147.82 237.24 148 236.73 147.56 236.08 146.63 235.01 146.89 233.34 147.17 232.87 147.37 232.43 147.43 231.91 147.28 231.37 147.11 230.95 146.09 230.33 146.43 226.7 145.46 221.84 146.11 218.79 146.06 218.04 145.72 217.48 145.35 217.3 145 217.22 144.52 217.22 144.26 217.2 143.67 217.05 142.69 216.97 142.24 216.86 141.62 216.51 141.41 216.29 141.45 215.94 142.02 214.83 141.76 214.34 141.32 214.16 140.47 214.25 138.17 214.79 137.41 214.83 136.8 214.68 135.85 214.14 135.46 213.79 135.37 213.35 135.63 212.82 136.78 210.88 136.85 209.74 136.09 208.78 129.93 204.22 129.87 203.73 130.41 203.3 132.71 202.71 133.45 202.64 133.95 202.71 134.93 203.02 135.89 203.43 136.28 203.51 136.67 203.49 137.11 203.39 137.5 203.24 137.85 203.02 138.11 202.78 138.45 202.11 138.52 201.3 138.08 200.51 136.89 198.96 136.52 198.31 136.48 197.88 137.45 197.57 137.98 197.36 138.26 197.34 138.65 197.45 140.6 199.05 140.89 199.18 141.26 199.13 142.82 198.27 145.11 197.38 145.69 197.03 146.13 196.52 146.56 195.51 146.58 194.75 146.35 194.19 145.87 193.74 144.48 192.77 144.11 192.56 143.76 192.51 143.39 192.28 142.98 191.87 142.43 190.76 142.3 190.26 142.46 189.83 142.85 189.55 143.26 189.07 143.26 188.68 142.95 188.26 142.94 187.95 143.17 187.54 143.76 186.97 144.72 185.81 141.08 183.64 140.89 183.34 140.71 182.92 141.08 182.67 141.36 182.44 141.58 182.07 142.17 179.73 142.24 179.16 142.39 178.61 142.56 178.21 143.2 176.13 145.52 174.56 155.41 162.66 158.47 160.4 152.24 156.18 149.15 154.51 148.63 154.33 148.24 154.29 142.06 152.17 144.48 150.35 144.74 150.05 149.04 142.69 149.67 141.97 150.09 141.99 150.54 142.12 152.33 142.94 153.2 143 154.37 142.89 160.85 141.15 161.57 140.81 161.87 140.53 161.74 140.23 161.59 140 161.24 139.12 163.93 137.15 164.3 136.98 164.87 136.87 165.24 137.03 165.85 137.24 166.15 137.08 166.35 136.73 166.63 135.85 166.67 135.21 166.58 134.42 166.35 133.54 166.19 133.36 166.06 133.24 165.89 133.12 165.76 133.01 165.63 132.79 165.56 132.72 165.35 132.65 165.24 132.6 165.15 132.49 164.54 131.57 164.39 131.13 164.26 130.92 164.13 130.76 164 130.69 163.85 130.44 163.74 130.04 163.76 129.09 163.69 128.5 163.56 127.91 163.26 127.03 163.24 126.57 163.37 126.18 164.06 125.6 165.06 125.07 167.98 125.23 168.39 125.38 168.81 125.58 168.85 125.88 168.83 126.27 168.96 126.86 169.2 127.06 179.18 128.49 180.33 128.95 183.4 131.06 184.14 131.74 185.68 133.63 186.81 134.67 192.88 136.97 195.31 137.4 196.89 138.43 198.02 139.68 198.1 140.53 197.29 141.85 196.09 143.06 194.96 144.45 194.85 145.37 195.13 145.94 195.48 146.24 195.94 146.56 195.98 147.21 196.35 147.48 196.96 147.6 198.64 147.57 199.18 147.73 199.68 148.03 200.42 148.57 203.16 149.8 203.79 150.25 205.12 152.19 206.71 155.35 210.14 156.18 211.09 156.22 211.18 156.11 211.48 155.6 211.85 155.1 212.16 155 212.42 155.1 213.33 155.99 214.27 156.53 214.58 156.46 214.75 156.37 214.79 156.18 214.88 156.05 215.14 155.88 217.2 155.06 221.69 152.45 231.56 148.48 Z" id="SVK-1054" data-name="Nitriansky"/>
<path d="M 279.63 121.17 279.54 122.1 279.37 122.37 279.09 122.72 278.61 123.18 276.93 125.51 274.99 127.48 274.49 127.71 273.84 127.85 271.78 127.9 271 128.16 270.32 128.75 266.99 132.94 266.45 133.41 264.45 134.55 263.97 134.91 263.73 135.21 264.04 136.43 264.02 137 263.08 137.14 262.3 137.16 254.63 135.8 250.9 139.38 248.82 140.99 248.17 141.61 247.8 142.04 247.58 142.47 247.49 142.73 247.49 142.95 247.52 143.17 247.52 143.38 247.47 143.62 246.99 144.54 246.91 144.76 246.86 145.07 233.14 146.22 231.56 148.48 221.69 152.45 217.2 155.06 215.14 155.88 214.88 156.05 214.79 156.18 214.75 156.37 214.58 156.46 214.27 156.53 213.33 155.99 212.42 155.1 212.16 155 211.85 155.1 211.48 155.6 211.18 156.11 211.09 156.22 210.14 156.18 206.71 155.35 205.12 152.19 203.79 150.25 203.16 149.8 200.42 148.57 199.68 148.03 199.18 147.73 198.64 147.57 196.96 147.6 196.35 147.48 195.98 147.21 195.94 146.56 195.48 146.24 195.13 145.94 194.85 145.37 194.96 144.45 196.09 143.06 197.29 141.85 198.1 140.53 198.02 139.68 196.89 138.43 195.31 137.4 192.88 136.97 186.81 134.67 185.68 133.63 184.14 131.74 183.4 131.06 180.33 128.95 179.18 128.49 169.2 127.06 168.96 126.86 168.83 126.27 168.85 125.88 168.81 125.58 168.39 125.38 167.98 125.23 165.06 125.07 164.06 125.6 163.37 126.18 163.24 126.57 163.26 127.03 163.56 127.91 163.69 128.5 163.76 129.09 163.74 130.04 163.85 130.44 164 130.69 164.13 130.76 164.26 130.92 164.39 131.13 164.54 131.57 165.15 132.49 165.24 132.6 165.35 132.65 165.56 132.72 165.63 132.79 165.76 133.01 165.89 133.12 166.06 133.24 166.19 133.36 166.35 133.54 166.58 134.42 166.67 135.21 166.63 135.85 166.35 136.73 166.15 137.08 165.85 137.24 165.24 137.03 164.87 136.87 164.3 136.98 163.93 137.15 161.24 139.12 147.63 137.15 147.41 136.85 147.08 136.53 146.19 135.9 145.52 135.69 144.74 135.63 144.24 135.77 143.74 135.96 142.95 136.15 142.43 136.06 141.8 135.64 140.67 134.46 139.58 133.77 139.06 133.51 138.67 133.44 138.52 133.54 138.45 133.71 138.48 133.9 138.54 134.1 138.58 134.32 138.5 134.51 137.69 134.63 132.84 134.7 130.28 134.43 127.67 133.58 127.21 133.37 126.9 133.13 125.38 131.26 124.17 130.26 122.28 129.64 119.95 130.08 115.56 131.31 114.71 131.85 114.32 131.98 113.84 132.05 112.49 132.05 112.15 131.97 111.16 131.26 110.86 131.19 110.62 131.26 110.51 131.46 110.42 131.73 110.36 132.34 110.42 132.79 110.4 132.99 110.36 133.19 110.36 133.41 110.38 133.69 109.95 134.05 109.56 134.58 105.02 135.5 103.01 134.75 102.73 134.75 102.34 134.79 102.1 134.97 101.77 135.15 100.84 135.51 97.56 137.4 94.55 132.99 92.97 131.48 91.62 130.59 91.03 130.09 90.64 129.7 90.23 128.14 89.84 127.71 89.06 127.25 88.8 126.93 88.73 126.57 88.95 126.08 89.19 125.72 89.73 125.05 89.99 124.68 90.19 124.17 90.38 123.91 90.95 123.53 91.16 123.15 91.25 122.19 90.82 121.31 90.08 120.41 88.95 119.36 88.36 118.9 87.92 118.66 86.72 118.47 86.42 118.38 86.14 118.26 85.9 118.13 85.68 118.03 84.36 117.03 82.66 115.46 81.92 114.94 81.23 114.88 78.88 116.82 78.42 117.09 78.07 117.16 77.64 117.16 75.94 116.89 72.86 116.11 77.25 113.34 78.75 112 80.01 109.98 80.41 109.11 82.98 108 86.31 107.35 88.35 108.01 92.64 111 97.77 111.52 113.31 107.49 124.69 104.53 127.16 103.18 132 97.69 134.26 96.45 137.71 96.06 140.66 96.39 143.34 96.29 145.92 94.63 147.06 92.71 148.15 88.38 149.02 86.3 150.87 83.85 153.81 82.6 157.2 82.26 164.72 82.64 169.36 81.24 173.49 78.71 176.4 75.47 177.33 72.39 177.15 66.13 177.13 65.29 177.63 61.53 179.41 56.94 182.04 52.66 185.41 49.07 189.54 46.52 208.39 41.71 213.58 39.05 214.23 39.69 216.75 40.22 216.79 41.31 216.84 41.56 216.92 41.85 217.07 42.1 225.71 51.51 226.05 51.99 226.23 52.35 226.16 52.55 225.94 52.91 225.92 53.08 226.03 53.34 226.73 54.21 226.88 54.51 226.94 54.75 226.92 54.88 227.14 55.19 228.9 57.3 229.67 57.98 230.45 58.49 233.82 59.95 234.03 59.99 234.51 59.99 234.86 60.05 235.31 60.26 237.01 61.3 237.6 61.56 238.15 61.71 238.93 61.84 241.56 62.92 242.25 63.34 243.38 64.39 243.79 65.07 243.86 66.1 243.77 66.64 243.9 67.2 244.05 67.51 245.73 69.25 241.97 71.85 241.45 72.36 241.64 72.63 241.88 72.68 242.45 72.68 244.45 73.08 244.73 73.21 245.06 73.39 245.36 73.63 245.6 73.85 245.97 74.49 246.15 74.65 246.34 74.77 246.89 74.97 247.12 75.08 247.36 75.26 247.54 75.44 247.58 75.66 247.54 75.91 247.32 76.48 247.28 76.72 247.3 76.93 247.38 77.11 247.41 77.32 247.34 77.54 247.1 77.93 246.97 78.22 246.95 78.51 247.36 80.37 247.06 81.16 246.34 82.1 244.5 83.85 242.88 85.12 241.58 85.81 237.36 86.6 236.49 86.96 235.66 87.48 234.34 88.98 233.53 89.53 232.97 89.85 228.86 91.45 229.64 92.58 230.84 93.18 233.38 93.49 235.34 93.92 235.88 93.99 236.92 93.84 240.67 92.39 241.62 91.8 242.12 91.32 242.16 91.07 242.25 90.83 242.47 90.61 244.29 89.31 244.63 89.31 244.97 89.52 245.84 90.67 246.1 90.93 247.47 90.95 251.99 90.07 257.82 91.06 260.5 91.23 261.28 91.53 261.82 91.8 264.63 94.2 263.93 94.62 263.67 94.89 263.3 95.15 263.02 95.31 262.74 95.42 262.52 95.56 262.41 95.73 262.34 95.96 262.21 96.25 262.02 96.56 261.63 96.95 261.43 97.25 261.48 97.79 262.28 99.92 262.34 100.63 262.3 101.2 261.91 102.03 261.82 102.4 261.82 102.79 262.02 103.44 262.06 103.78 262.02 104.12 261.82 105.01 261.84 105.8 262.15 106.25 262.74 106.78 265.91 108.69 266.28 108.85 266.6 108.94 267.25 109.07 267.62 109.19 268.13 109.42 268.48 109.52 269.06 109.64 271.28 111.04 272.1 111.35 272.52 111.58 272.56 111.71 272.24 111.97 272.15 112.31 272.21 112.78 272.63 113.77 273.13 114.48 274.06 115.43 278.85 119.39 279.26 119.83 279.63 121.17 Z" id="SVK-1055" data-name="Trenciansky"/>
<path d="M 80.41 109.11 80.01 109.98 78.75 112 77.25 113.34 72.86 116.11 75.94 116.89 77.64 117.16 78.07 117.16 78.42 117.09 78.88 116.82 81.23 114.88 81.92 114.94 82.66 115.46 84.36 117.03 85.68 118.03 85.9 118.13 86.14 118.26 86.42 118.38 86.72 118.47 87.92 118.66 88.36 118.9 88.95 119.36 90.08 120.41 90.82 121.31 91.25 122.19 91.16 123.15 90.95 123.53 90.38 123.91 90.19 124.17 89.99 124.68 89.73 125.05 89.19 125.72 88.95 126.08 88.73 126.57 88.8 126.93 89.06 127.25 89.84 127.71 90.23 128.14 90.64 129.7 91.03 130.09 91.62 130.59 92.97 131.48 94.55 132.99 97.56 137.4 100.84 135.51 101.77 135.15 102.1 134.97 102.34 134.79 102.73 134.75 103.01 134.75 105.02 135.5 109.56 134.58 109.95 134.05 110.38 133.69 110.36 133.41 110.36 133.19 110.4 132.99 110.42 132.79 110.36 132.34 110.42 131.73 110.51 131.46 110.62 131.26 110.86 131.19 111.16 131.26 112.15 131.97 112.49 132.05 113.84 132.05 114.32 131.98 114.71 131.85 115.56 131.31 119.95 130.08 122.28 129.64 124.17 130.26 125.38 131.26 126.9 133.13 127.21 133.37 127.67 133.58 130.28 134.43 132.84 134.7 137.69 134.63 138.5 134.51 138.58 134.32 138.54 134.1 138.48 133.9 138.45 133.71 138.52 133.54 138.67 133.44 139.06 133.51 139.58 133.77 140.67 134.46 141.8 135.64 142.43 136.06 142.95 136.15 143.74 135.96 144.24 135.77 144.74 135.63 145.52 135.69 146.19 135.9 147.08 136.53 147.41 136.85 147.63 137.15 161.24 139.12 161.59 140 161.74 140.23 161.87 140.53 161.57 140.81 160.85 141.15 154.37 142.89 153.2 143 152.33 142.94 150.54 142.12 150.09 141.99 149.67 141.97 149.04 142.69 144.74 150.05 144.48 150.35 142.06 152.17 148.24 154.29 148.63 154.33 149.15 154.51 152.24 156.18 158.47 160.4 155.41 162.66 145.52 174.56 143.2 176.13 142.56 178.21 142.39 178.61 142.24 179.16 142.17 179.73 141.58 182.07 141.36 182.44 141.08 182.67 140.71 182.92 140.89 183.34 141.08 183.64 144.72 185.81 143.76 186.97 143.17 187.54 142.94 187.95 142.95 188.26 143.26 188.68 143.26 189.07 142.85 189.55 142.46 189.83 142.3 190.26 142.43 190.76 142.98 191.87 143.39 192.28 143.76 192.51 144.11 192.56 144.48 192.77 145.87 193.74 146.35 194.19 146.58 194.75 146.56 195.51 146.13 196.52 145.69 197.03 145.11 197.38 142.82 198.27 141.26 199.13 140.89 199.18 140.6 199.05 138.65 197.45 138.26 197.34 137.98 197.36 137.45 197.57 136.48 197.88 136.52 198.31 136.89 198.96 138.08 200.51 138.52 201.3 138.45 202.11 138.11 202.78 137.85 203.02 137.5 203.24 137.11 203.39 136.67 203.49 136.28 203.51 135.89 203.43 134.93 203.02 133.95 202.71 133.45 202.64 132.71 202.71 130.41 203.3 129.87 203.73 129.93 204.22 136.09 208.78 136.85 209.74 136.78 210.88 135.63 212.82 135.37 213.35 135.46 213.79 135.85 214.14 136.8 214.68 137.41 214.83 138.17 214.79 140.47 214.25 141.32 214.16 141.76 214.34 142.02 214.83 141.45 215.94 141.41 216.29 141.62 216.51 142.24 216.86 142.69 216.97 143.67 217.05 144.26 217.2 144.52 217.22 145 217.22 145.35 217.3 145.72 217.48 146.06 218.04 146.11 218.79 145.46 221.84 146.43 226.7 146.09 230.33 147.11 230.95 147.28 231.37 147.43 231.91 147.37 232.43 147.17 232.87 146.89 233.34 146.63 235.01 147.56 236.08 148 236.73 147.82 237.24 146.93 237.81 144.59 238.83 141.26 240.83 139.67 242.4 138.61 242.92 138.06 243.11 137.78 243.05 137.41 243.14 137 243.39 136.24 243.95 135.72 244.62 135.22 245.56 135.17 248.56 134.58 249.14 133.56 249.8 130.93 251.18 129.78 251.6 128.98 251.77 128.65 251.68 128.35 251.64 128.04 251.64 127.76 251.6 127.19 251.38 126.86 251.32 126.54 251.56 126.25 252.03 125.25 255.31 124.71 256.33 123.6 257.13 123.57 257.15 117.61 254.98 116.14 253.88 115.04 252.44 112.45 250.77 109.54 249.37 107.46 248.67 105.88 248.83 104.47 249.29 103.02 249.33 101.31 248.14 96.58 243.36 95.28 242.78 91.76 242.28 90.31 241.87 88.93 241.02 74.55 228.07 70.14 225.62 61 224.69 59.55 224.42 59.56 224.37 60.33 220.83 62.92 218.73 63.66 218.37 65.14 217.81 65.57 217.52 65.73 217.21 65.47 216.63 65.31 216.08 65.34 215.25 65.55 214.97 65.88 214.89 66.25 215.03 66.92 214.99 67.9 214.71 70.03 213.52 71.57 212.87 72.16 212.48 72.22 212.32 71.99 212.06 71.82 211.93 71.57 211.85 71.33 211.81 69.09 211.94 68.79 211.88 68.48 211.75 67.72 211.23 66.6 210.67 66.44 210.5 66.4 210.24 66.44 209.89 66.62 209.31 66.66 208.96 66.62 208.64 65.81 207.76 65.9 207.57 66.18 207.44 66.68 207.44 69.98 207.97 71.56 207.93 72.13 207.82 73.51 207.21 74.57 206.53 75.16 206.22 75.75 206.03 76.27 205.94 77.16 205.7 77.55 205.4 77.72 205.15 77.68 204.96 77.51 204.74 77.22 204.48 76.53 203.96 76.36 203.72 76.23 203.45 76.16 203.06 76.57 201.66 76.92 201.3 77.4 201.08 77.96 200.93 78.83 200.55 79.27 200.46 79.55 200.5 79.66 200.72 79.72 200.95 79.88 201.17 80.11 201.67 79.49 202.43 79.33 202.72 79.38 202.95 79.53 203.09 79.93 203.19 81.82 203.33 82.47 203.53 83.53 204.09 84.14 204.25 84.81 204.24 88.53 203.13 92.97 200.82 94.53 200.49 95.28 200.67 95.8 200.36 96.28 199.76 97.17 198.23 97.36 197.57 97.36 197.14 97.14 196.96 96.86 196.62 96.69 196.52 96.45 196.51 95.86 196.63 95.54 196.41 95.23 195.88 95.51 194.35 95.54 193.73 95.23 193.25 92.34 192.35 91.71 192.27 91.36 192.04 91.08 191.59 90.79 190.32 90.92 189.62 91.6 188.76 95.46 185.68 87.88 181.59 87.03 180 87.05 179.71 87.14 179.37 88.19 178.16 89.38 176.33 89.71 175.56 89.71 175.01 89.38 174.72 88.99 174.23 88.53 173.78 87.75 173.17 87.3 172.88 86.75 172.71 85.94 172.68 85.51 172.43 84.94 171.95 82.6 168.81 81.97 168.15 80.88 167.41 79.93 166.41 79.45 166.06 78.12 165.33 77.85 165.03 77.92 164.74 78.2 164.46 78.53 163.92 78.46 163.62 78.03 163.45 75.53 163.39 74.94 163.3 74.55 163.13 73.75 162.6 72.73 162.09 72.34 161.8 72.03 161.62 71.74 161.52 71.42 161.49 69.51 161.52 67.7 161.05 67.22 159.47 68.42 157.87 70.53 155.64 71.22 155.02 71.79 154.63 73.1 154.06 65.49 149.04 66.2 147.94 66.16 147.06 67.72 146.52 68.05 146.32 68.29 146.07 69.27 144.32 69.55 144.09 70.03 144.04 70.48 144.06 70.96 144.04 71.37 143.92 71.83 143.61 74.31 141.38 75.05 140.42 75.86 138.81 75.79 137.49 75.44 136.49 74.92 135.83 74.38 135.32 73.79 134.86 73.29 134.6 72.79 134.42 71.33 134.14 71.05 133.99 70.77 133.79 70.4 133.61 69.72 133.49 68.81 133.99 67.57 135.03 63.62 139.29 63.48 139.49 63.33 139.62 63.11 139.68 62.83 139.71 62.55 139.79 61.7 140.2 61.07 140.6 60.72 140.9 60.51 141.19 60.2 141.77 59.96 142.02 59.68 142.22 58.59 142.71 57.31 143.09 56.7 143.36 56.18 143.78 55.61 144.67 55 145.08 53.92 145.29 52.18 145.34 49.66 145.81 47.76 146.59 41.94 148.26 41.11 148.39 39.74 148.1 33.59 146.14 31.76 145.81 30.91 145.85 31.32 146.5 31.48 146.85 31.39 147.08 30.93 147.14 24.61 147.32 16.13 149.06 15.65 149.1 16.39 147.34 15.09 140.78 15.44 138.12 17.65 136.33 19.26 134.38 26.34 120.87 29.79 116.98 34.61 114.23 36.63 112.54 37.45 109.9 38.72 108.59 46.26 104.97 52.53 104.09 59.26 105.25 75.25 110.6 77.68 110.29 80.41 109.11 Z" id="SVK-1056" data-name="Trnavský"/>
<path d="M 775.34 105.18 775.08 105.43 774.15 107.14 774.05 108.24 774.32 109.38 774.63 114.13 774.31 115.08 773.34 116.69 772.12 117.85 770.8 118.53 769.73 119.45 769.3 121.33 769.47 124.33 768.57 127.31 766.87 129.92 764.62 131.89 762.93 132.62 759.19 133.41 757.47 134.2 756.41 135.18 754.95 137.41 754.08 138.44 744.93 143.35 742.83 145.63 742.54 148.47 744.17 154.14 743.68 156.35 742.13 158.63 742 168.72 739.35 170.98 736.9 172.28 734.3 172.78 725.91 172.23 723.38 172.34 720.8 172.93 713.49 173.19 711.44 173.72 707.17 175.35 701.13 175.95 693.88 178.43 689.62 178.67 685.23 177.67 681.52 175.84 678.21 173.27 670.36 165.24 669.21 163.74 667.39 157.95 666.17 156.36 663.78 156 658.61 156.05 656.38 155.37 655.44 154.38 654.17 151.67 653.24 150.47 652.04 149.74 649.51 149.08 644.8 147.21 642.76 146.79 635.49 148.33 630.71 148.39 628.36 148.71 625.63 149.79 624.45 151.1 623.66 152.59 622.02 154.16 619.95 154.93 618.36 154.47 616.62 153.5 614.08 152.76 609.43 153.46 598.59 156.91 595.04 156.36 592.22 154.51 588.31 153.33 584.18 152.84 580.67 153.02 575.68 152.72 568.05 149.62 563.64 149.31 561.62 148.96 557.46 146.44 555.29 145.68 553.01 145.7 523.37 150.26 514.68 150.65 510.64 151.73 510.48 152.78 510.44 153.95 510.71 156.38 510.8 156.87 510.81 157.37 510.76 157.87 510.64 158.36 508.76 160.23 508.44 160.45 508.36 160.41 506.01 159.26 502.94 159.28 501.92 159.52 499.49 160.43 498.34 160.48 496.14 160.28 490.23 160.61 489.6 160.55 489.56 160.39 489.66 160.17 489.84 159.93 490.1 159.67 490.21 159.44 489.88 159.17 487.42 158.16 486.75 157.71 486.4 157.26 486.44 156.91 486.55 156.55 486.53 156.15 486.38 155.77 485.9 155.11 485.72 154.62 485.68 154.05 485.94 153.16 486.31 152.48 486.83 151.78 487.61 150.99 487.99 150.42 489.01 147.11 489.38 146.32 489.71 145.8 490.08 145.35 490.45 145.01 490.71 144.68 490.92 144.24 491.47 142.41 491.86 141.46 491.79 141.23 491.49 141.08 490.25 140.76 489.08 140.33 488.6 140.22 487.07 140.08 486.07 139.88 484.81 139.45 484.29 139.12 484.05 138.86 484.03 138.54 484.1 138.25 484.23 138 484.36 137.74 483.4 135.17 480.49 129.54 479.72 128.51 472.52 124.57 472.21 124.44 470.63 124.23 469.53 123.52 468.98 122.66 468.48 121 468.44 120.17 468.55 119.55 468.88 119.19 469.35 118.79 470.09 118.33 470.77 117.77 471.35 117.17 471.29 116.43 470.87 115.05 470.9 113.95 470.98 112.6 471.07 112.25 471.11 111.82 470.98 111.14 471.59 110.32 478.18 103.79 481.36 103.15 483.42 101.84 485.07 99.12 486.03 98.19 486.81 97.67 490.97 95.9 488.93 94.19 487.09 93.8 485.46 93.63 485.07 93.34 485.14 93.04 486.79 92.02 488.56 90.37 489.27 89.9 491.12 89.1 497.25 87.31 498.23 86.76 498.6 86.61 498.97 86.59 499.27 86.71 499.73 86.67 500.38 86.42 502.55 85.04 503.12 84.85 503.46 84.94 503.82 85.15 503.96 85.32 504.97 85.47 508.14 86.9 510.34 88.97 510.86 89.35 511.12 89.47 511.05 89.32 510.9 89.2 510.66 89.08 510.4 88.84 510.16 88.47 509.92 87.76 509.88 87.46 509.95 87.25 510.34 87.12 513.65 86.36 514.14 86.17 514.1 85.93 513.38 85.07 513.56 84.63 513.95 84.15 515.06 83.41 515.71 83.28 516.43 83.46 516.53 83.84 516.21 84.84 516.51 85.25 517.25 85.71 520.95 87.59 524.32 88.9 527.25 89.11 528.41 89.3 529.13 89.53 529.39 89.87 531.1 91.76 531.97 92.01 533.6 92.09 535.35 91.95 536.8 91.51 537.37 91.28 537.76 91.05 538.47 90.54 538.56 90.4 538.5 90.22 538.1 89.67 538.02 89.45 538.04 89.24 538.19 89.05 538.78 88.86 539.67 88.69 542.23 88.58 551.02 89.55 551.49 89.43 551.74 89.31 551.78 89.16 551.52 88.99 550.83 88.67 550.58 88.52 550.43 88.37 550.43 88.11 550.49 87.77 550.67 87.22 550.73 86.8 550.69 86.46 550.34 85.98 550.23 85.7 550.39 85.31 550.78 85.25 552.35 85.51 555.67 86.49 557.87 86.83 558.6 87.11 558.73 87.38 558.17 87.79 558.19 88.14 558.63 88.49 560.24 88.98 561.13 89.14 561.78 89.18 566.21 88.55 569.02 90.16 571.93 90.45 575.87 92.16 576.5 92.23 576.7 92.06 576.81 91.89 577.29 91.71 578.09 91.52 580 91.33 580.83 91.39 581.37 91.59 581.74 92.33 581.8 92.68 581.8 93 581.76 93.39 582.06 94.04 582.7 94.66 585.03 96.13 585.42 96.51 585.44 96.75 585.59 97.08 585.87 97.53 586.68 98.34 587.24 98.68 587.78 98.81 588.33 98.73 588.72 98.65 590.65 98.5 595.98 99.69 598.67 99.91 599.33 99.9 601.9 99.35 602.57 99.38 603.09 99.49 603.53 99.71 604.22 99.98 604.74 100.23 605.13 100.5 605.39 100.79 605.83 101.2 606.51 101.71 607.75 102.45 608.57 102.69 611.44 102.32 613.48 102.82 614.84 102.84 615.81 103.14 616.77 103.62 617.46 103.75 618.25 103.72 619.12 103.47 619.51 103.53 619.7 103.7 619.77 103.95 620.01 104.43 619.96 104.64 619.77 104.86 618.92 105.39 618.64 105.64 618.42 105.93 617.62 106.59 617.33 106.89 617.2 107.19 617.23 107.47 617.29 107.82 618.81 109.45 621.37 110.98 622.9 111.5 624.6 111.62 626.47 111.48 626.86 111.38 626.99 111.24 626.96 111.14 626.75 110.97 626.07 110.62 625.86 110.4 625.73 110.12 625.7 109.82 625.81 109.52 626.03 109.25 626.36 109 626.9 108.85 627.62 108.77 629.64 108.78 630.27 108.71 631.92 108.27 634.16 108.11 634.62 108.03 635.14 107.85 635.62 107.54 636.03 106.94 636.44 105.93 636.79 104.12 636.75 103.68 636.57 103.35 636.12 102.78 636.29 102.53 636.79 102.29 638.09 102 638.77 101.99 639.3 102.1 640.3 102.65 640.86 103.08 641.23 103.16 641.47 102.88 641.64 102.32 641.79 101.26 642.1 100.99 642.34 101 642.51 101.34 642.58 101.69 642.95 102.14 643.55 102.64 645.36 103.24 646.43 103.35 647.56 103.16 648.21 102.87 648.56 102.64 650.53 101.98 652.18 104.67 652.34 105.36 652.51 106.77 652.95 107.63 653.75 108.69 654.41 109.35 658.47 114.21 667.27 116.51 670.89 116.94 673.34 116.86 674.49 116.94 675.49 117.22 678.13 118.5 679.65 118.83 681 118.93 682.1 118.8 682.89 118.62 683.45 118.41 683.82 118.2 684.04 117.98 684.23 117.51 684.36 117.32 685.3 117.02 688.5 116.63 690.8 115.25 693.46 114.67 694.24 114.36 694.8 113.94 695.24 113.18 695.46 112.57 695.43 112.06 695.22 111.49 694.43 110.26 694.24 109.84 694.17 109.48 694.26 108.6 694.17 108.32 693.59 106.87 693.5 106.33 693.5 104.49 693.41 104.08 693.28 103.81 693.2 103.55 693.35 100 698.63 100.1 712.18 103 714.09 103.62 714.85 103.93 715.19 104.17 715.15 104.38 716.01 104.88 722.39 107.43 725.35 107.93 727.96 107.98 732.15 107.53 740.22 107.41 740.73 107.32 741.01 107.19 741.18 106.76 741.12 106.1 740.73 104.77 740.16 103.48 740.05 103.14 740.03 102.81 740.09 102.51 740.57 102.14 740.96 101.88 743.94 101.04 749.16 96.33 752.96 96.29 755.4 97.22 755.86 97.75 756 98.3 756.03 98.82 756.29 99.48 758.44 102.85 758.53 103.76 758.68 104.47 759.18 104.8 759.9 104.97 764.51 104.8 768.12 104.1 768.81 104.06 775.25 105.17 775.34 105.18 Z" id="SVK-1057" data-name="Košický"/>
<path d="M 655.35 26.86 657.47 26.3 667.51 25.56 670.13 26 671.55 26.63 674.15 28.28 675.57 28.93 676.63 29.02 678.8 28.7 680.19 28.97 682.55 30.55 687.26 35.29 689.42 36.43 690.88 35.79 692.86 34.25 695.28 32.8 698.11 32.46 700.67 33.42 705.81 36.51 713.36 38.97 718.41 42.08 722.44 46.34 724.2 51.29 725.13 55.75 729.1 57.65 739.02 58.89 743.58 60.82 745.2 61.29 746.61 61.35 749.96 61.08 751.12 61.22 752.66 62.34 752.67 63.33 752.28 64.23 752.6 65.12 753.64 65.7 760.22 67.02 767.97 66.83 770.95 67.6 778.05 72.29 783.19 73.32 794.15 73.63 799 75.2 797.93 77.51 796.91 80.71 796.26 83.94 796.32 86.31 794.15 87.53 788.76 88.05 786.3 89.32 783.26 95.2 781.52 97.69 781.35 98.38 781.36 100.19 781.09 101.05 779.77 102.3 776.41 104.17 775.34 105.18 775.25 105.17 768.81 104.06 768.12 104.1 764.51 104.8 759.9 104.97 759.18 104.8 758.68 104.47 758.53 103.76 758.44 102.85 756.29 99.48 756.03 98.82 756 98.3 755.86 97.75 755.4 97.22 752.96 96.29 749.16 96.33 743.94 101.04 740.96 101.88 740.57 102.14 740.09 102.51 740.03 102.81 740.05 103.14 740.16 103.48 740.73 104.77 741.12 106.1 741.18 106.76 741.01 107.19 740.73 107.32 740.22 107.41 732.15 107.53 727.96 107.98 725.35 107.93 722.39 107.43 716.01 104.88 715.15 104.38 715.19 104.17 714.85 103.93 714.09 103.62 712.18 103 698.63 100.1 693.35 100 693.2 103.55 693.28 103.81 693.41 104.08 693.5 104.49 693.5 106.33 693.59 106.87 694.17 108.32 694.26 108.6 694.17 109.48 694.24 109.84 694.43 110.26 695.22 111.49 695.43 112.06 695.46 112.57 695.24 113.18 694.8 113.94 694.24 114.36 693.46 114.67 690.8 115.25 688.5 116.63 685.3 117.02 684.36 117.32 684.23 117.51 684.04 117.98 683.82 118.2 683.45 118.41 682.89 118.62 682.1 118.8 681 118.93 679.65 118.83 678.13 118.5 675.49 117.22 674.49 116.94 673.34 116.86 670.89 116.94 667.27 116.51 658.47 114.21 654.41 109.35 653.75 108.69 652.95 107.63 652.51 106.77 652.34 105.36 652.18 104.67 650.53 101.98 648.56 102.64 648.21 102.87 647.56 103.16 646.43 103.35 645.36 103.24 643.55 102.64 642.95 102.14 642.58 101.69 642.51 101.34 642.34 101 642.1 100.99 641.79 101.26 641.64 102.32 641.47 102.88 641.23 103.16 640.86 103.08 640.3 102.65 639.3 102.1 638.77 101.99 638.09 102 636.79 102.29 636.29 102.53 636.12 102.78 636.57 103.35 636.75 103.68 636.79 104.12 636.44 105.93 636.03 106.94 635.62 107.54 635.14 107.85 634.62 108.03 634.16 108.11 631.92 108.27 630.27 108.71 629.64 108.78 627.62 108.77 626.9 108.85 626.36 109 626.03 109.25 625.81 109.52 625.7 109.82 625.73 110.12 625.86 110.4 626.07 110.62 626.75 110.97 626.96 111.14 626.99 111.24 626.86 111.38 626.47 111.48 624.6 111.62 622.9 111.5 621.37 110.98 618.81 109.45 617.29 107.82 617.23 107.47 617.2 107.19 617.33 106.89 617.62 106.59 618.42 105.93 618.64 105.64 618.92 105.39 619.77 104.86 619.96 104.64 620.01 104.43 619.77 103.95 619.7 103.7 619.51 103.53 619.12 103.47 618.25 103.72 617.46 103.75 616.77 103.62 615.81 103.14 614.84 102.84 613.48 102.82 611.44 102.32 608.57 102.69 607.75 102.45 606.51 101.71 605.83 101.2 605.39 100.79 605.13 100.5 604.74 100.23 604.22 99.98 603.53 99.71 603.09 99.49 602.57 99.38 601.9 99.35 599.33 99.9 598.67 99.91 595.98 99.69 590.65 98.5 588.72 98.65 588.33 98.73 587.78 98.81 587.24 98.68 586.68 98.34 585.87 97.53 585.59 97.08 585.44 96.75 585.42 96.51 585.03 96.13 582.7 94.66 582.06 94.04 581.76 93.39 581.8 93 581.8 92.68 581.74 92.33 581.37 91.59 580.83 91.39 580 91.33 578.09 91.52 577.29 91.71 576.81 91.89 576.7 92.06 576.5 92.23 575.87 92.16 571.93 90.45 569.02 90.16 566.21 88.55 561.78 89.18 561.13 89.14 560.24 88.98 558.63 88.49 558.19 88.14 558.17 87.79 558.73 87.38 558.6 87.11 557.87 86.83 555.67 86.49 552.35 85.51 550.78 85.25 550.39 85.31 550.23 85.7 550.34 85.98 550.69 86.46 550.73 86.8 550.67 87.22 550.49 87.77 550.43 88.11 550.43 88.37 550.58 88.52 550.83 88.67 551.52 88.99 551.78 89.16 551.74 89.31 551.49 89.43 551.02 89.55 542.23 88.58 539.67 88.69 538.78 88.86 538.19 89.05 538.04 89.24 538.02 89.45 538.1 89.67 538.5 90.22 538.56 90.4 538.47 90.54 537.76 91.05 537.37 91.28 536.8 91.51 535.35 91.95 533.6 92.09 531.97 92.01 531.1 91.76 529.39 89.87 529.13 89.53 528.41 89.3 527.25 89.11 524.32 88.9 520.95 87.59 517.25 85.71 516.51 85.25 516.21 84.84 516.53 83.84 516.43 83.46 515.71 83.28 515.06 83.41 513.95 84.15 513.56 84.63 513.38 85.07 514.1 85.93 514.14 86.17 513.65 86.36 510.34 87.12 509.95 87.25 509.88 87.46 509.92 87.76 510.16 88.47 510.4 88.84 510.66 89.08 510.9 89.2 511.05 89.32 511.12 89.47 510.86 89.35 510.34 88.97 508.14 86.9 504.97 85.47 503.96 85.32 503.82 85.15 503.46 84.94 503.12 84.85 502.55 85.04 500.38 86.42 499.73 86.67 499.27 86.71 498.97 86.59 498.6 86.61 498.23 86.76 497.25 87.31 491.12 89.1 489.27 89.9 488.56 90.37 486.79 92.02 485.14 93.04 485.07 93.34 485.46 93.63 487.09 93.8 488.93 94.19 490.97 95.9 486.81 97.67 486.03 98.19 485.07 99.12 483.42 101.84 481.36 103.15 475.64 100.93 474.62 100.4 473.86 100.13 471.11 99.53 468.55 98.66 467.62 98.67 465.44 99.94 462.79 100.07 442.61 98.41 447.39 97.01 448.89 96.24 450.42 95.19 450.72 94.61 450.4 94.29 448.85 94.1 448.15 93.92 447.72 93.62 447.41 93.24 447.11 92.69 446.54 91.31 446.35 90.09 445.89 89.43 445.22 88.85 444.37 88.31 439.59 84.19 439.46 83.6 439.61 83.25 440.06 83.17 441.07 83.25 441.83 83.23 443.35 82.75 444.29 82.69 444.81 82.32 445.07 81.47 445.2 79.7 445.87 77.69 446.04 76.52 446.09 74.97 446.96 70.85 446.85 69.75 446.46 69.17 445.72 69.21 444.98 69.36 443.07 69.95 440.32 70.27 439.78 70.27 439.33 70.02 438.89 69.65 438.46 69.12 438.04 68.98 437.7 69.09 437.33 69.34 436.89 69.22 436.35 68.71 435.48 67.32 434.79 66.56 433.94 66.07 433.06 65.95 432.04 66.03 431.5 66.25 431.02 66.6 430.76 66.86 430.37 66.92 429.91 66.74 429.26 65.97 429.09 65.07 429.02 63.34 428.5 62.03 427.81 60.91 424.84 57.62 424.69 57.19 427.43 55.34 429.96 54.1 434.45 53.78 438.35 55.1 445.57 59.56 450.22 61.05 452.96 59.67 454.41 56.16 455.2 51.27 456.94 49.89 457.91 48.33 458.71 46.67 461.39 42.74 462.18 42.04 462.53 42.26 465.62 42.5 466.99 41.66 470.05 39.28 472.18 38.49 482.99 37.87 483.69 37.25 484.69 35.31 485.41 33.31 485.7 32.02 486.22 31.15 487.66 30.45 489.32 30.43 495.06 31.84 502.3 31.66 502.27 29.25 504.46 28.92 516.3 32.87 519.37 33.36 522.69 32.58 524.3 31.6 526.53 29.8 527.96 29.27 529.25 29.21 532.28 29.51 537.58 28.95 539.76 29.2 552.2 38.91 554.42 39.97 557.56 40.29 559.95 40.19 562.15 40.41 564.77 41.69 567.06 43.24 569.33 44.32 571.91 44.64 575.2 43.87 578.23 42.15 582.8 37.77 585.68 35.94 587.89 35.63 590.84 35.61 593.43 35.27 594.58 33.99 592.87 31.88 589.64 30.59 587.93 29.32 590.77 27.25 592.91 26.58 598.6 25.83 600.77 25.96 603.31 27.1 605.31 28.55 607.45 29.51 610.46 29.19 612.87 27.72 617.24 23.49 619.77 22.35 621.71 22.65 629.56 25.38 643.22 27.9 645.54 27.89 650.74 27.14 652.79 27.54 655.35 26.86 Z" id="SVK-1058" data-name="Prešov"/>
</g>
</svg>