<?xml version="1.0"?>
<svg xmlns="http://www.w3.org/2000/svg" version="1.2" baseProfile="tiny" width="800" height="267" viewBox="0 0 800 267" stroke-linecap="round" stroke-linejoin="round">
<g id="ne_10m_admin_1_states_provinces">
<path d="M 718.61 89.21 714.12 92.5 711.86 96.01 709.35 101.78 715.12 106.8 721.64 110.56 724.65 110.81 725.91 115.08 729.92 114.57 734.43 115.08 735.19 117.33 738.2 120.59 732.43 121.1 722.14 124.36 724.15 126.61 719.38 128.87 713.87 128.62 710.86 130.13 712.86 132.13 714.17 135.58 712.09 135.74 710.37 136.39 708.56 137.42 708.03 137.87 708.47 138.29 707.2 139.03 706.45 139.11 705.87 138.96 705.58 138.69 704.9 138.67 704.1 139 703.31 139.71 703.35 140.59 702.95 141.2 703.29 143.11 702.41 143.29 691.76 142.57 685.48 142.06 682.69 140.13 679.65 140.47 678.35 140.21 675.51 140.36 672.43 140.79 671.37 141.34 668.55 141.23 666.92 140.66 663.23 140.73 661.27 140.33 657.12 137.95 658.83 136.95 659.85 136.24 662.87 134.15 663.2 133.59 663.35 132.77 668.97 132.13 674.24 133.14 683.27 134.64 687.03 134.64 689.79 130.88 694.3 128.62 697.06 127.37 701.58 126.36 699.57 121.6 696.56 122.35 693.8 122.35 693.05 120.09 696.81 119.34 699.57 116.58 700.82 112.57 698.57 112.07 694.8 112.32 686.78 110.81 681.26 109.56 678 110.06 675.74 109.31 675.74 106.8 670.47 107.05 665.88 106.76 672.15 102.22 675.04 100.63 679.33 97.38 682.23 94.44 685.29 94.25 687.13 93.51 689.26 93.56 690.19 93.05 690.77 92.63 691.52 92.23 692.31 91.95 695.36 92.2 700.88 88.82 704.06 88.01 709.72 90.4 715.71 89.18 718.61 89.21 Z" id="LVA-1063" data-name="Balvu"/>
<path d="M 748.67 232.16 746.95 233.88 736 237.94 732.93 242.82 732.16 248.06 731.21 250.41 730.24 252.1 727.15 252.32 713.3 251.61 709.67 250.99 706.23 249.83 703.48 248.03 701.23 249.53 696.09 252.36 693.95 252.88 690.92 251.93 684.06 248.63 681.66 247.89 677.19 247.47 662.91 248.51 662.73 248.57 662.69 248.53 662.65 248.49 662.79 247.18 662.96 246.55 662.86 245.37 662.57 244.4 657.75 243.33 657.76 241.26 658.15 240.03 659.08 239.21 659.99 237.42 657.9 236.91 658.88 235.87 660.11 234.92 659.17 233.85 658.77 233.11 657.58 229.09 661.44 228.59 664.98 230.55 669.54 231.4 676.38 230.83 681.22 231.12 686.35 228.27 685.78 223.42 694.05 221.43 699.75 220.57 705.73 220.57 706.3 223.14 705.45 226.84 707.44 227.13 710.58 225.42 715.71 225.42 727.96 229.69 733.09 230.55 735.94 230.83 735.66 227.7 737.08 227.13 739.93 228.55 744.78 229.98 748.67 232.16 Z" id="LVA-1064" data-name="Kraslavas"/>
<path d="M 785.35 174.23 785.7 175.29 786.59 176.27 792.31 180.33 793.16 181.24 793.56 182.43 788.1 182.95 782.68 182.95 777.55 181.24 772.71 181.81 774.13 184.95 776.41 187.23 774.13 188.08 770.14 187.8 765.58 190.36 761.59 192.93 757.6 194.07 760.17 198.06 765.87 198.06 767.58 195.49 775.56 192.93 779.83 194.92 785.53 196.63 788.38 199.2 784.96 203.19 782.83 206.5 782.25 207.07 781.83 207.04 781.26 206.67 780.88 206.21 780.37 205.85 779.46 205.7 778.54 205.84 777.38 206.37 775.23 207.07 765.51 209.23 763.9 209.28 762.7 208.9 758.88 209.42 757.29 209.38 755.53 209.01 754.27 207.84 750.69 207.91 746.89 207.46 744.53 206.7 742.26 205.29 740.64 204.67 738.49 203 740.24 202.23 741.23 201.95 742.1 201.38 741.93 201.04 741.42 200.74 740.6 200.51 740.6 199.03 743.76 196.59 743.26 195.2 741.93 194 740.98 192.86 740.69 191.22 740.91 190.4 740.94 189.75 738.79 188.52 735.49 187.75 733.51 186.24 733.68 185.3 733.29 184.63 733.45 183.14 731.92 183.16 731.32 183.37 730.66 183.32 730.06 183.01 730.18 182.73 729.91 182.3 729.02 181.71 727.93 180.7 726.61 179.13 726.57 178.32 725.53 176.76 720.99 178.79 719.64 176.84 719.54 175.72 718.61 174.46 718.49 173.43 718.58 172.77 719.35 172.11 720.79 171.31 722.8 171.18 724.27 170.93 725.67 170.54 727.36 169.81 728.22 168.13 726.77 166.05 731.38 166.14 737.37 166.99 741.07 166.99 744.78 170.7 748.2 172.12 750.48 169.84 754.47 168.7 760.17 171.27 762.45 174.69 766.15 176.4 769 174.12 773.85 171.84 780.97 172.41 785.35 174.23 Z" id="LVA-1065" data-name="Ludzas"/>
<path d="M 702.41 143.29 709.44 143.05 715.14 144.48 716.85 147.9 718.53 153.12 717.86 154.5 716.77 155.23 716.96 156.43 717.44 156.96 718.72 157.53 720.24 157.26 721.4 157.36 722.77 157.7 724.61 158.43 725.72 159.35 728.87 161.26 726.8 163.44 726.77 166.05 728.22 168.13 727.36 169.81 725.67 170.54 724.27 170.93 722.8 171.18 720.79 171.31 719.35 172.11 718.58 172.77 718.49 173.43 718.61 174.46 719.54 175.72 719.64 176.84 720.99 178.79 725.53 176.76 726.57 178.32 726.61 179.13 727.93 180.7 729.02 181.71 729.91 182.3 730.18 182.73 730.06 183.01 730.66 183.32 731.32 183.37 731.92 183.16 733.45 183.14 733.29 184.63 733.68 185.3 733.51 186.24 735.49 187.75 738.79 188.52 740.94 189.75 740.91 190.4 740.69 191.22 740.98 192.86 741.93 194 743.26 195.2 743.76 196.59 740.6 199.03 740.6 200.51 741.42 200.74 741.93 201.04 742.1 201.38 741.23 201.95 740.24 202.23 738.49 203 736.72 201.96 727.53 202.78 725.72 202.43 725.34 202.12 723.89 200.7 723.13 201.11 722.63 202.12 721.03 202.91 718.82 203.58 716.4 203.75 714.23 204.14 713.51 204.83 714.3 206.4 711.3 206.27 710.35 206.64 702.32 206.3 697.57 207.1 684.04 206.52 682.86 206.25 681.6 206.5 678.85 207.89 676.27 208.63 675.96 208.93 675.74 209.41 675.8 209.68 676.18 210.65 673.53 210.63 670.96 210.37 669.84 210.08 669.18 209.62 668.8 208.9 668.92 207.64 668.77 206.58 668.17 205.73 666.72 204.77 665.17 204.07 664.69 203.18 663.73 202.15 663.47 200.47 660.57 198.18 659.39 196.67 659.1 195.95 658.86 195 659.58 194.26 662.33 194.21 664.02 192.96 661.3 189.92 659.68 188.43 653.72 184.17 653.98 183.38 655.09 182.65 655.6 181.74 656.77 180.17 664.12 179.82 668.68 180.1 669.54 178.11 665.83 171.84 665.55 167.56 662.98 164.14 655.57 163.29 652.15 159.3 648.73 157.02 643.89 156.16 639.95 154.48 641.1 151.57 654.81 139.4 657.12 137.95 661.27 140.33 663.23 140.73 666.92 140.66 668.55 141.23 671.37 141.34 672.43 140.79 675.51 140.36 678.35 140.21 679.65 140.47 682.69 140.13 685.48 142.06 691.76 142.57 702.41 143.29 Z M 702.32 177.17 704.13 174.96 704.73 172.14 705.23 170.13 705.03 168.33 702.44 167.72 699.13 168.53 695.19 172.69 696.33 175.54 702.32 177.17 Z" fill-rule="evenodd" id="LVA-1066" data-name="Rezeknes"/>
<path d="M 168.58 135.71 165.5 140.78 163.23 144.56 165.24 148.33 168.27 149.84 169.27 154.12 169.78 159.16 173.55 161.17 175.06 165.7 177.83 166.96 181.1 163.43 186.64 162.93 190.92 164.69 192.94 167.21 191.77 175.14 196.16 177.11 196.55 177.91 196.91 179.28 196.33 179.99 195.64 180.59 194.53 182.71 199.04 183.01 201.07 183.39 205.02 185.12 209.06 185.72 209.18 185.74 205.14 187.3 189.56 190.88 187.9 191.02 186 190.58 181.12 187.72 178.2 186.85 177.94 186.77 170.88 185.86 138.2 186.47 136.04 185.98 131.96 184.29 129.86 183.69 124.9 183.5 112.69 186.7 112.64 186.65 112.43 186.48 108.55 183.57 109.19 183.09 110.32 182.52 112.01 182.21 113.2 181.83 114.04 181.09 113.39 180.34 109.55 177.64 109.87 176.51 109.48 175.75 109.75 175.11 110.88 173.68 114.31 173.75 115.61 173.53 117.22 173.58 118.67 173.96 120.72 173.41 120.87 171.84 119.95 171.21 116.55 169.72 115.84 169.18 115.8 168.35 121.22 167.3 125.55 166.86 127.9 166 128.43 165.36 128.14 164.76 127.6 164.24 127.25 162.98 126.93 162.35 126.58 161.9 126.87 160.57 126.82 158.26 125.94 155.37 126.9 154.26 128.36 153.47 131.72 152.35 132.93 151.48 133.7 150.63 134.47 149.25 135.34 148.46 135.38 147.79 135.02 147.09 133.76 145.13 132.45 141.93 137.1 141.91 139.9 140.38 142.19 138.84 144.24 138.11 148.21 137.13 149.4 136.57 152.12 136.15 152.2 134.31 150.82 133.15 149.81 132.53 148.73 132.16 148 132.07 147.08 132.21 146.24 132.23 144.24 131.69 143.61 131.04 143.98 130.53 146.24 129.73 146.5 129.26 148.05 128.2 150.7 128.52 151.5 128.94 151.81 129.49 151.77 129.92 152.94 130.76 157.73 131.92 160.54 131.54 162.14 130.53 163.36 129.98 164.62 128.49 168.75 128.16 170.91 128.45 172.52 128.94 172.81 129.4 172.28 129.81 171.9 130.34 171.92 132.06 171.68 132.92 171.2 133.45 170.31 133.95 169.64 134.44 168.58 135.71 Z" id="LVA-1068" data-name="Saldus"/>
<path d="M 703.85 61.28 723.14 61.18 722.55 65.19 722.86 67.8 721.67 70.05 721.28 71.98 724.03 73.6 735.54 76.54 741.44 80.13 740.79 82.75 740.06 83.39 739.01 84.11 737.9 84.31 736.81 84.83 731.07 86.58 729.65 88.26 727.88 88.87 726.15 90.86 722.99 90.75 722.12 90.81 720.22 90.21 718.61 89.21 715.71 89.18 709.72 90.4 704.06 88.01 700.88 88.82 695.36 92.2 692.31 91.95 691.52 92.23 690.77 92.63 690.19 93.05 689.26 93.56 687.13 93.51 685.29 94.25 682.23 94.44 671.17 91.98 670.05 91.81 670.12 91.47 670.34 91.13 671.61 90.38 672.36 89.78 671.59 89.33 667.28 87.79 663.73 85.85 654.59 85.92 650.13 86.39 648.41 84.65 647.98 84.58 647.38 84.54 646.96 84.65 641.9 84.31 638.65 83.95 637.22 84.25 633.59 85.62 630.01 84.13 629.92 83.73 629.5 82.55 624.61 80.8 622.95 79.45 620.32 76.28 622.56 73.19 625.83 73.44 630.59 73.44 632.35 72.69 633.6 68.17 634.35 65.41 638.37 63.91 643.89 63.91 643.89 62.15 643.63 58.39 642.51 56.47 644.77 55.38 646.09 53.85 647.22 52.22 648.94 50.82 650.97 50.32 652.33 50.88 653.55 51.66 655.26 51.83 657.2 51.6 659.11 51.62 662.91 52.32 665.5 53.43 669.54 56.78 671.77 58.19 674.39 58.87 683.23 59.18 700.22 62.54 703.85 61.28 Z" id="LVA-1076" data-name="Aluksne"/>
<path d="M 593.58 55.49 593.72 55.92 594.2 56.53 593.67 57.61 592.96 58.6 592.78 59.65 592.46 60.16 592.8 60.66 593.42 61.05 593.93 61.8 594.82 62.13 594.85 62.6 594.73 62.91 589.2 64.39 588.11 61.27 585.96 61.54 581.92 61.8 581.39 59.65 575.2 59.12 571.98 59.12 568.48 56.7 565.26 57.77 560.42 57.77 552.35 58.85 548.86 61 543.48 61 542.67 58.85 544.29 56.7 544.02 54.55 541.33 52.93 547.51 52.4 550.47 51.05 552.62 47.83 553.7 45.41 539.45 44.06 539.18 41.91 535.95 41.64 538.1 36.53 525.74 38.95 520.63 38.15 517.52 36.77 512.7 35.91 510.46 34.19 506.99 33.2 505.68 32.13 505.92 31.34 506.48 30.45 505.95 29.52 504.52 29.02 502.72 27.99 501.08 26.78 496.15 24.71 496.5 23.16 499.99 23.78 502.31 23.71 503.71 23.1 504.98 22.83 506.09 22.48 507.11 22.49 508.02 22.39 508.97 22.14 512.35 24.02 516.74 24.28 517.18 22.64 517.52 21.09 518.14 18.7 522.29 17.93 523.53 17.71 525.21 17.73 526.87 19.27 527.9 21.5 529.31 23.7 532.07 25.13 555.2 26.23 556.5 26.57 557.32 27.11 557.68 28.16 557.3 28.82 556.67 29.48 556.34 30.49 556.67 32.76 557.63 34.11 569.79 39.57 573.45 41.85 583.88 51.01 587.62 53.4 592.18 55.16 593.58 55.49 Z" id="LVA-1077" data-name="Valkas"/>
<path d="M 376.63 171.14 378.79 173.31 381.74 175.08 382.92 177.24 386.86 176.26 391.19 179.41 393.16 184.33 391.39 185.71 383.91 187.48 384.5 189.05 390.4 189.64 388.83 191.61 386.27 192.99 387.65 195.35 392.96 193.97 397.78 195.34 396.14 196.58 394.06 197.79 387.71 199.85 383.96 200.77 380.34 200.22 373.34 197.35 369.79 196.58 366.39 196.92 353.09 200.79 350.18 201.09 350.02 201.11 346.68 200.75 343 199.59 332.67 195.06 335.69 193.97 338.64 192.99 339.23 190.82 342.77 189.45 342.18 187.28 344.74 187.28 348.68 188.86 351.83 186.89 347.3 185.31 341.79 183.74 338.84 182.56 338.64 180.2 338.05 176.85 336.68 174.18 338.22 174.22 339.45 174.09 343.63 171.38 343.41 170.5 346.32 171.14 351.24 171.73 353.79 172.52 356.16 173.31 360.49 174.29 362.45 172.32 367.77 170.55 372.69 170.36 376.63 171.14 Z" id="LVA-1079" data-name="Bauska"/>
<path d="M 506.49 94.86 508.22 96.93 507.87 100.55 506.84 103.13 503.39 102.1 500.8 102.1 499.43 102.62 495.29 102.1 493.74 100.55 490.12 98.82 486.67 98.65 484.95 96.76 485.46 95.2 484.43 93.83 479.78 93.83 479.95 90.89 476.5 88.48 470.3 86.76 470.3 82.97 472.88 83.48 474.95 84.35 479.09 84.86 480.47 85.38 479.09 86.76 481.33 87.28 484.78 86.76 488.22 86.07 491.84 87.45 496.15 88.83 498.74 90.38 499.94 91.93 499.94 95.55 502.36 96.41 504.94 95.89 506.49 94.86 Z" id="LVA-1080" data-name="Cesu"/>
<path d="M 626.23 214.56 630.57 215.63 632 216.38 634 217.2 637.27 217.22 640.19 216.78 643.78 215.43 645.53 215.19 647.02 215.21 648.22 215.8 650.93 215.44 652.71 215.26 652.97 217.89 657.41 222.99 661.54 222.82 659.7 224.93 659.89 225.67 660.4 226.46 661.63 227.95 661.44 228.59 657.58 229.09 658.77 233.11 659.17 233.85 660.11 234.92 658.88 235.87 657.9 236.91 659.99 237.42 659.08 239.21 658.15 240.03 657.76 241.26 657.75 243.33 662.57 244.4 662.86 245.37 662.96 246.55 662.79 247.18 662.65 248.49 662.69 248.53 662.73 248.57 660.35 249.42 654 253.81 647.68 260.35 645.49 261.8 636.7 264.36 634.18 264.47 628.32 263.14 625.37 262.96 622.67 263.8 620.35 266.11 614.07 265.83 607.86 264.86 592.59 260.68 585.7 257.72 579.88 251.81 583.35 250.93 586.99 250.74 593.37 250.38 591.91 247.1 585.36 242.55 590.09 239.63 588.27 238.54 586.45 237.81 586.99 235.99 589.91 234.9 592.09 233.26 595.92 234.53 598.16 231.9 596.36 229.7 595.14 227.06 595.6 224.63 594.21 223.35 593.26 221.39 592.92 219.16 592.62 217.57 592.42 214.67 591.95 213 591.04 211.54 588.02 209.27 591.83 208.56 596.83 207.77 600.76 209.24 605.03 209.58 608.24 210.98 610.77 214.88 614.44 214.71 614.78 213.81 616.17 212.21 617.73 212.5 618.34 213.15 622.02 214.9 623.23 215.69 623.69 216.12 626.23 214.56 Z M 614.47 237.48 606.85 236.8 603.11 238.85 604.37 239.83 608.38 241.24 608.57 243.9 608.88 245.6 610.43 247 611.97 248.54 613.52 247.93 616.15 247.31 618.94 247 620.64 245.6 621.16 243.35 622.8 242.53 623.7 241.69 624.47 240.74 622.19 240.03 622.8 237.87 622.34 235.39 622.03 234 620.4 233.62 614.47 237.48 Z" fill-rule="evenodd" id="LVA-1081" data-name="Daugavpils"/>
<path d="M 270.33 175.14 267.98 172.32 266.8 169.37 263.85 169.37 259.32 172.91 254.79 175.47 256.37 177.83 258.73 178.82 254.99 179.41 248.3 179.41 243.57 179.8 241.02 181.77 238.85 180.39 238.06 177.64 234.52 176.65 234.13 171.73 234.32 169.37 231.96 168.78 229.21 165.83 227.04 164.45 222.51 165.83 220.35 163.27 216.41 164.65 217 166.81 213.26 167.01 209.52 168.58 207.95 170.16 206.38 169.96 205.19 167.6 202.41 166.88 201.73 165.71 201.36 165.45 200.9 164.96 200.27 164.74 200.08 164.3 200.05 163.77 200.08 163.25 200.51 162.72 201.86 162.59 204.51 162.59 205.84 162.24 207.1 161.5 208.59 160 209.14 158.53 206.78 156.96 205.77 155.52 203.2 154.77 202.63 152.83 205.48 152.6 210.9 151.39 214 151.11 223.11 151.2 227.8 152.95 233.88 153.42 235.57 153.31 238.21 152.52 243.54 153.22 245.95 151.84 248.4 151.17 254.61 151.26 257.62 150.7 260.44 146.94 259.31 145.18 259.41 144.22 260.08 143.35 265.92 141.29 267.51 142.04 268.36 142.23 269.64 142.22 274.36 141.44 278.21 139.63 280.29 140.47 282.46 145.38 280 147.23 275.2 148.58 272.69 149.76 270.59 151.64 273.37 152.74 275.61 153.21 277.28 154.06 277.64 154.54 277.45 154.94 277.95 156.25 278.07 156.76 277.04 157.21 273.57 158.82 272.87 159.6 271.39 160.96 270.09 161.63 269.32 162.69 277.51 163.45 277.16 164.84 274 165.7 272.72 165.92 272.21 166.61 272.47 167.35 273.73 168.2 275.13 169.47 275.2 171.12 273.9 173.79 272.84 174.49 270.33 175.14 Z" id="LVA-1082" data-name="Dobele"/>
<path d="M 620.32 76.28 622.95 79.45 624.61 80.8 629.5 82.55 629.92 83.73 630.01 84.13 633.59 85.62 637.22 84.25 638.65 83.95 641.9 84.31 646.96 84.65 647.38 84.54 647.98 84.58 648.41 84.65 650.13 86.39 654.59 85.92 663.73 85.85 667.28 87.79 671.59 89.33 672.36 89.78 671.61 90.38 670.34 91.13 670.12 91.47 670.05 91.81 671.17 91.98 682.23 94.44 679.33 97.38 675.04 100.63 672.15 102.22 665.88 106.76 664.46 107.79 662.69 108.84 659.84 112.22 657.24 113.88 654.2 115.04 649.64 117.38 650.51 118.71 650.81 119.07 649.58 121.23 642.51 120.56 640.94 120.18 638.31 120.14 635.8 120.66 634.83 121.27 632.38 122.2 631.68 122.28 630.98 121.76 624.83 123.21 621.36 124.47 617.45 125.04 616.51 121.68 614.82 118.34 613.57 116.58 611.34 114.51 609.65 113.22 605.77 112.62 595.57 114.45 591.11 111.45 590.28 108.58 584.81 109.77 578.59 109.55 575.07 110.27 567.76 110.77 569.57 108.67 570.3 107.42 572.66 105.18 573.16 104.58 573.41 103.57 569.4 100.42 566.19 97.2 564.73 96.25 563.28 95.72 561.75 95.45 556.38 95.03 555.36 92.52 555.83 92.2 556.48 91.85 560.31 91.84 561.35 91.7 561.35 90.16 563.25 89.18 566.05 88.74 569.24 88.92 583.75 88.32 584.26 87.56 584.08 86.23 585.25 85.42 585.76 84.37 585.41 83.81 585.3 82.92 594.47 83.85 601.53 82.79 602.25 81.96 602.25 81.27 601.6 81.16 600.16 81.62 599.43 81.68 598.83 81.49 598.35 81.14 598.27 80.75 598.61 80.36 601.26 79.96 602.59 79.57 604.09 78.72 607.17 78.07 607.66 77.26 607.82 76.71 607.29 74.77 612.17 74.61 612.79 75.12 613.37 75.45 614.84 75.81 617.4 75.61 620.32 76.28 Z" id="LVA-1083" data-name="Gulbene"/>
<path d="M 309.36 141.37 308.27 144.47 308.77 144.87 307.9 147.53 301.83 148.31 301.83 150.08 298.49 150.67 299.87 152.64 302.82 151.66 305.13 153.43 299.91 155.24 295.58 154.81 292.66 155.74 294.12 157.86 299.16 160.11 298.5 163.23 302.53 164.29 305.99 162.55 310.37 161.46 309.38 159.36 311.82 158.24 315.81 160.32 319.94 161.7 325.06 162.48 328.21 165.63 330.77 168.39 331.36 172.32 333.88 174.13 330.61 174.64 329.23 175.72 327.25 176.3 325.92 177.41 322.18 178.14 320.96 178.49 319.5 180.08 317.94 181.14 317.19 181.65 317.22 182.07 317.41 182.4 318.23 182.84 318.26 183.38 317.99 184.12 317.44 185.21 316.96 185.74 316.74 186.16 316.69 186.75 320.84 186.57 321.44 187.14 320.81 188.3 320.5 189.03 320.26 191.66 320.53 192.85 320.53 192.89 319.1 192.64 315.46 192.58 307.87 193.56 304.45 193.25 304.3 192.89 304.43 192.2 304.29 191.38 303.36 190.62 302.43 190.43 299.43 190.71 291.77 190.5 288.24 191.07 281.61 193.27 277.65 193.11 266.25 190.41 266.29 190.38 267 189.74 270.9 188.07 272.02 187.85 273.34 187.39 274.17 186.93 274.94 186.33 275.54 185.64 275.5 184.63 274.12 183.01 273.01 181.38 272.07 180.44 270.74 179.97 270.11 178.87 270.37 178.65 271.53 177.83 271.73 177.39 272.06 176.87 270.33 175.14 272.84 174.49 273.9 173.79 275.2 171.12 275.13 169.47 273.73 168.2 272.47 167.35 272.21 166.61 272.72 165.92 274 165.7 277.16 164.84 277.51 163.45 269.32 162.69 270.09 161.63 271.39 160.96 272.87 159.6 273.57 158.82 277.04 157.21 278.07 156.76 277.95 156.25 277.45 154.94 277.64 154.54 277.28 154.06 275.61 153.21 273.37 152.74 270.59 151.64 272.69 149.76 275.2 148.58 280 147.23 282.46 145.38 280.29 140.47 278.21 139.63 275.49 132.11 280.42 130.96 289.33 131.34 290.78 131.55 293.58 131.55 298.34 133.13 302.5 135.64 303.73 137.42 305.45 138.96 309.36 141.37 Z" id="LVA-1084" data-name="Jelgava"/>
<path d="M 541.31 174.92 542.03 177.08 537.86 176.84 535.17 175.86 535.79 171.41 538.84 170.47 541.54 170.47 542.76 171.94 545.95 171.2 546.69 172.92 541.31 174.92 Z" id="LVA-1085" data-name="Jekabpils"/>
<path d="M 431.76 50.59 431.61 55.18 433.25 56.92 435.59 58.17 437.44 58.1 443.09 57.28 445.29 57.47 447.27 58.23 449.92 60.42 450.47 61.62 450.47 62.3 449.99 62.58 450.08 62.77 450.74 63.02 452.16 62.92 453.71 63.12 454.4 63.52 454.48 63.91 453.57 64.29 451.63 64.51 450.67 65.21 449.84 66.21 446.2 66.95 445.14 67.89 443.58 68.58 442.65 69.5 432.36 73.03 431.15 73.89 427.93 73.98 424.19 73.23 422.74 73.44 422.79 74.07 426.28 75.82 417.37 75.7 417.06 74.17 410.48 76.46 412.01 80.9 410.02 83.2 404.82 84.12 406.04 86.26 410.17 87.79 412.47 92.69 413.23 94.37 409.76 94.8 405.54 93.25 403.22 90.12 400.95 88.65 399.58 87.95 398.36 87.57 398.07 87.34 397.89 86.8 397.07 85.23 395.27 84.53 386.71 87.03 385.51 86.91 384.29 86.79 381.83 87.28 381.71 86.93 381.64 86.46 382.09 85.41 382.33 84.11 381.98 83.19 381.57 82.59 379.95 81.42 379.33 81.06 379.29 81.04 378.2 75.32 383.99 74.47 388.28 73.56 389.96 72.33 391.04 70.03 396.24 69.58 398.39 68.2 397.01 67.13 395.17 65.44 393.03 61.92 395.63 59.78 388.74 59.47 389.51 58.25 387.36 56.87 385.37 57.17 382.46 56.87 382.62 54.57 381.39 54.42 381.7 51.05 380.78 45.54 391.5 44.62 394.25 46 396.85 45.23 396.24 43.55 396.7 40.33 401.75 40.64 400.68 36.51 406.19 34.52 410.94 35.59 412.62 36.81 417.06 38.8 422.73 38.65 425.94 40.18 425.48 42.32 426.25 46 432.99 47.53 431.76 50.59 Z" id="LVA-1086" data-name="Limbaži"/>
<path d="M 567.76 110.77 575.07 110.27 575.44 112.96 574.23 115.54 574.4 118.65 575.44 121.06 573.89 123.13 573.71 124.51 574.92 124.51 576.99 124.68 579.4 127.26 581.64 127.09 584.4 126.92 586.47 125.88 590.78 126.92 594.4 126.92 593.71 125.02 596.12 124.16 598.19 122.61 599.57 120.54 597.16 118.82 596.29 115.89 595.57 114.45 605.77 112.62 609.65 113.22 611.34 114.51 613.57 116.58 614.82 118.34 616.51 121.68 617.45 125.04 606.98 135.36 610.43 137.78 611.81 138.64 611.29 140.02 613.88 141.23 616.63 140.36 618.53 140.88 621.98 139.33 623.18 137.78 629.04 133.99 629.73 132.09 633.35 130.02 634.9 131.4 643.01 130.88 647.14 130.37 649.73 130.37 652.14 131.92 652.31 133.3 655.07 133.3 657.66 134.16 659.85 136.24 658.83 136.95 657.12 137.95 654.81 139.4 641.1 151.57 639.95 154.48 636.8 152.77 633.18 151.57 632.84 149.84 630.08 150.02 626.29 150.53 623.87 151.91 621.8 153.46 618.36 153.29 613.88 154.84 597.67 154.84 596.25 159.44 593.52 162.3 592.63 162.97 586.98 164.86 586.19 162.76 585.87 162.2 583.75 161.57 579.63 162.31 576.72 160.41 577.46 159.52 575.94 158.74 573.62 158.44 572.13 157.88 569.33 157.46 565.06 158.57 561.3 160.1 559.3 160.48 557.42 160.17 555.14 159.03 553.1 156.17 547.43 159.23 547.18 157.91 546.66 157.42 545.69 156.9 545.41 156.26 545.62 155.82 546.86 155.53 547.56 155.04 547.82 154.42 544.64 152.69 536.67 151.04 535.7 147.9 535.85 146.96 536.99 146.16 537.71 145.29 538.48 144.64 537.59 142.56 535.93 141.27 534.21 141.18 533.57 140.86 532.57 140.08 531.32 139.32 529.09 138.28 528.21 135.71 527.18 133.99 529.42 132.61 530.11 131.4 533.73 130.88 536.83 130.37 539.41 129.68 542.86 130.37 545.62 129.68 549.07 129.68 549.76 127.61 548.72 126.75 546.14 125.54 542.39 123.3 545.86 122.09 546.18 121.35 546.49 120.14 546.1 119.35 545.12 118.62 544.37 117.82 543.42 116.47 543.54 115.23 543.84 113.84 544.58 112.6 544.73 111.65 546.44 108.63 549.36 108.31 557.39 110.61 559.13 110.9 560.28 110.91 560.72 110.52 561.1 110.07 562.05 109.59 563.38 109.65 564.77 109.88 567.76 110.77 Z" id="LVA-1087" data-name="Madona"/>
<path d="M 500.45 139.94 492.97 144.11 487.88 145.64 486.43 145.78 485.01 145.47 483.73 145.5 483.78 145.86 484.02 146.51 480.71 146 477.32 146.39 474.33 147.41 473.12 148.41 477.08 149.82 477.63 150.26 477.46 150.6 477.35 150.95 475.46 152.73 468.78 151.48 468.54 151.81 466.88 152.63 464.22 152.02 461.71 151.45 461.22 150.79 455.54 148.3 453.07 146.45 451.35 144.73 449.39 142.53 445.47 142.04 441.3 141.55 438.61 140.32 436.4 141.3 432.23 139.83 427.58 138.36 424.64 137.63 423.41 140.57 420.47 141.3 420.96 143.51 418.51 145.96 414.52 148.38 412.24 146.55 411.51 146.12 409.43 145.76 407.5 145.42 406.6 144.95 405.82 144.34 403.58 143.23 402.81 143.05 400.36 140.67 399.42 140.04 402.61 138.67 408.12 135.52 411.86 137.09 415.79 134.14 412.05 133.16 411.05 130.87 413.54 130.68 415.98 129.34 418.42 128.72 423.61 126.64 427.23 127.5 431.3 128 432.75 127.87 435.88 126.56 438.02 126.06 439.84 125.9 442.24 126.47 444.83 126.01 448.81 126.63 460.51 124.78 470.57 126.59 472.52 126.53 472.16 126.28 471.97 126.01 472.04 125.67 473.11 125.17 473.63 124.55 475.07 123.93 476.09 123.23 480.86 121.87 482.65 121.85 483.85 122.26 484.63 123.01 485.23 123.81 485.58 124.54 485.72 125.08 485.79 125.81 488.39 126.26 491.79 125.01 494.64 122.71 494.37 121.85 494.06 121.35 494.01 120.29 496.42 120.64 496.85 120.57 498.56 119.97 499.05 121.42 500.71 122.36 500.78 123.27 501.72 124.17 502.36 125.58 503.34 126.78 503.4 128.01 502.5 128.87 501.97 129.5 501.65 130.02 501.61 130.6 502.14 131.01 502.91 131.46 503.61 132.03 505.99 133.24 498.06 133.98 498.19 135.1 498.09 135.45 498.98 136.29 499.97 136.76 500.38 137.74 500.57 138.44 500.45 139.94 Z" id="LVA-1088" data-name="Ogre"/>
<path d="M 652.71 215.26 650.93 215.44 648.22 215.8 647.02 215.21 645.53 215.19 643.78 215.43 640.19 216.78 637.27 217.22 634 217.2 632 216.38 630.57 215.63 626.23 214.56 622.91 212.94 621.32 211.12 626.1 211.34 628.83 209.98 629.06 205.43 627.46 200.87 625.41 199.05 621.09 198.37 619.95 194.27 617.67 194.04 611.53 192.68 605.61 189.95 607.66 186.3 614.49 188.13 618.36 181.75 619.95 180.39 623.59 179.93 630.42 182.21 635.66 185.85 633.15 187.22 628.6 188.81 626.55 192.45 628.15 194.04 632.24 194.95 636.57 197.46 641.12 198.37 644.54 201.56 647.27 205.88 646.81 207.48 643.17 209.07 645.9 209.98 649.77 211.57 652.05 212.71 652.71 215.26 Z" id="LVA-1089" data-name="Preilu"/>
<path d="M 224.04 74.02 228.09 75.93 225.4 78.87 221.12 80.63 215.83 82.64 219.61 86.67 226.66 87.42 230.68 88.18 231.44 90.95 233.48 93.11 229.02 96.22 222.16 98.77 221.03 99.16 219.01 100.88 218.77 101.71 218.19 102.58 217.03 103.44 214.86 104.26 206.06 103.94 203.5 104.32 202.84 104.9 201.88 105.49 198.31 106.99 188.26 108.6 185.17 108.93 186.04 114.77 184.54 117.62 179.65 116.9 176.15 118.44 170.5 117.84 167.39 117.41 159.98 117.74 156.64 117.2 155.57 115.42 154.48 114.69 154.13 113.7 154.1 113.14 154.51 110.69 153.54 108.06 152.96 107.24 150.61 106.1 147.35 105.19 143.47 103.4 142.06 102.27 141.17 101.01 140.38 100.59 137.27 99.78 137.02 98.35 135.5 97.86 135.26 97.48 135.91 95.98 140.21 92.57 144.68 90.18 147.25 89.51 147.73 88.93 148.04 87.82 148.55 87.56 147.01 83.97 146.03 82.56 146.03 80.7 145.61 77.38 145.01 76.73 143.12 75.55 145.61 72.32 150.39 71.57 152.91 74.08 156.44 74.08 161.22 73.08 167.01 73.83 170.03 68.55 174.81 64.52 183.37 64.02 190.92 66.28 189.16 69.05 192.18 71.32 196.2 68.8 205.26 74.34 207.78 76.6 213.07 78.11 217.35 77.86 219.11 75.09 224.04 74.02 Z" id="LVA-1091" data-name="Talsi"/>
<path d="M 277.16 126.35 278.8 126.56 280.42 130.96 275.49 132.11 278.21 139.63 274.36 141.44 269.64 142.22 268.36 142.23 267.51 142.04 265.92 141.29 260.08 143.35 259.41 144.22 259.31 145.18 260.44 146.94 257.62 150.7 254.61 151.26 248.4 151.17 245.95 151.84 243.54 153.22 238.21 152.52 234.91 150.08 232.36 145.75 230.78 142.01 228.62 140.64 221.92 141.23 217.2 140.24 216.22 137.68 218.38 135.32 216.22 133.16 215.63 131.58 215.43 128.63 210.71 127.65 205.98 124.89 204.6 122.13 205.98 118.59 209.52 118.2 211.3 117.21 209.92 115.25 208.74 113.08 207.16 110.72 213.26 109.54 215.04 107.96 218.18 106.78 219.76 105.4 217.03 103.44 218.19 102.58 218.77 101.71 219.01 100.88 221.03 99.16 222.16 98.77 229.02 96.22 233.48 93.11 237.05 90.16 238.85 92.61 239.24 96.35 237.87 100.48 235.7 102.26 237.08 104.22 241.21 105.8 247.12 107.77 250.07 112.1 248.1 115.05 244.17 118 243.18 120.95 246.33 122.92 244.17 124.3 240.23 126.46 241.02 128.04 246.72 127.05 255.19 128.63 265.62 129.22 273.29 127.45 277.16 126.35 Z" id="LVA-1092" data-name="Tukums"/>
<path d="M 495.12 60.21 494.6 62.63 492.36 63.66 488.39 63.32 486.33 63.32 485.81 61.25 486.5 58.84 490.12 58.15 493.22 58.15 495.12 60.21 Z" id="LVA-1093" data-name="Valmiera"/>
<path d="M 352.6 113.55 354.68 114.08 359.43 116.98 362.24 117.97 364.93 118.66 366.42 119.37 368.03 120.35 369.97 122.77 367.65 124.26 363.18 125.31 361.86 125.86 360.56 127.02 360.78 129.92 363.21 133.34 356.41 132.35 351.83 130.11 349.34 130.55 347.08 131.18 346.18 132.17 345.67 132.74 344.43 133 342.52 133.4 342.02 131.9 341.56 130.54 339.16 129.26 337.65 128.21 334.99 127.76 331.59 126.71 328.41 126.11 329.13 125.22 333.47 123.25 334.08 122.32 334.83 121.64 333.93 121.06 331.18 120.72 329.71 120.31 327.49 119.69 326.87 118.71 326.82 118.63 329.54 117.9 333.76 115.92 335.75 114.34 337.14 112.86 338.65 111.77 342.93 111.11 347.17 109.59 351.42 113.24 352.6 113.55 Z" id="LVA-1094" data-name="Riga"/>
<path d="M 6.61 180.23 5.05 180.36 5.07 178.2 5.62 177.08 4.82 175.22 4.51 173.23 5.16 172.21 7.13 173.25 7.82 174.39 8.4 177.27 7.1 177.56 6.88 179.14 6.61 180.23 Z M 11.86 162.76 12.98 167.49 14.78 166.83 15.82 170.8 12.46 171.84 10.28 173.19 9.75 172.69 7.82 171.75 6.61 171.42 5.61 171.35 4.8 171.1 4.06 170.24 3.6 169.02 3.92 168.53 4.49 168.06 5.61 163.54 6.73 161.74 11.86 162.76 Z" fill-rule="evenodd" id="LVA-4848" data-name="Liepāja"/>
<path d="M 311.82 158.24 309.38 159.36 310.37 161.46 305.99 162.55 302.53 164.29 298.5 163.23 299.16 160.11 294.12 157.86 292.66 155.74 295.58 154.81 299.91 155.24 305.13 153.43 312 154.42 313.57 157.43 311.82 158.24 Z" id="LVA-4849" data-name="Jelgava"/>
<path d="M 614.47 237.48 620.4 233.62 622.03 234 622.34 235.39 622.8 237.87 622.19 240.03 624.47 240.74 623.7 241.69 622.8 242.53 621.16 243.35 620.64 245.6 618.94 247 616.15 247.31 613.52 247.93 611.97 248.54 610.43 247 608.88 245.6 608.57 243.9 608.38 241.24 604.37 239.83 603.11 238.85 606.85 236.8 614.47 237.48 Z" id="LVA-4850" data-name="Daugavpils"/>
<path d="M 702.32 177.17 696.33 175.54 695.19 172.69 699.13 168.53 702.44 167.72 705.03 168.33 705.23 170.13 704.73 172.14 704.13 174.96 702.32 177.17 Z" id="LVA-4851" data-name="Rezekne"/>
<path d="M 60.77 77.67 61.46 76.69 69.31 71.06 72.9 67.26 74.1 67.99 75.17 69.06 78.74 75.23 72.87 76.49 73.41 80.33 69.6 79.64 66.72 81.69 64.12 81.82 62.55 79.92 60.77 77.67 Z" id="LVA-4852" data-name="Ventspils"/>
<path d="M 170.5 117.84 166.55 121.29 164.74 125.92 163.58 126.13 164.62 128.49 163.36 129.98 162.14 130.53 160.54 131.54 157.73 131.92 152.94 130.76 151.77 129.92 151.81 129.49 151.5 128.94 150.7 128.52 148.05 128.2 146.5 129.26 146.24 129.73 143.98 130.53 143.61 131.04 144.24 131.69 146.24 132.23 147.08 132.21 148 132.07 148.73 132.16 149.81 132.53 150.82 133.15 152.2 134.31 152.12 136.15 149.4 136.57 148.21 137.13 144.24 138.11 142.19 138.84 139.9 140.38 137.1 141.91 132.45 141.93 126.99 140.53 124.72 138.77 117.93 138.77 112.64 139.02 107.36 141.54 110.12 148.84 106.85 150.35 102.07 150.09 97.04 151.86 95.06 153.72 92.69 153.42 89.9 152.54 88.96 151.86 89.42 150.95 89.28 149.85 88.43 148.87 88.26 147.85 85.75 145.33 79.33 142.31 78.63 142.41 76.2 142.47 75.38 142.35 73.78 141.39 72.99 140.13 71.64 138.88 71.47 137.76 69.74 136.41 66.84 136.73 62.36 136.75 61.24 136.54 58.74 134.26 52.51 133.94 55.98 132.69 56.61 131.74 58.77 129.95 61.55 129.2 66.58 129.2 68.85 126.94 74.89 126.69 77.66 124.93 82.19 124.17 80.68 119.64 76.65 118.38 74.13 115.61 74.89 114.1 71.11 112.59 67.63 109.94 69.74 109.75 73.4 107.91 75.07 106.79 76.44 106.57 77.57 106.56 80.68 106.79 82.79 106.5 88.89 107.58 91.34 107.9 91.41 108.37 91.37 108.87 90.67 109.98 94.94 109.97 96.93 109.12 98.02 108.53 99.14 108.43 107.56 108.66 109.26 108.53 114.16 107.54 116.23 106.84 122.84 108.13 125.02 108.17 133.56 106.53 135.74 105.65 135.94 105.26 136.04 104.82 136.03 102.95 136.08 102.48 136.16 102.02 136.52 101.07 137.27 99.78 140.38 100.59 141.17 101.01 142.06 102.27 143.47 103.4 147.35 105.19 150.61 106.1 152.96 107.24 153.54 108.06 154.51 110.69 154.1 113.14 154.13 113.7 154.48 114.69 155.57 115.42 156.64 117.2 159.98 117.74 167.39 117.41 170.5 117.84 Z" id="LVA-5709" data-name="Kuldigas"/>
<path d="M 58.77 129.95 53.7 129.04 49.16 127.79 48.19 127.13 47.56 126.57 48.03 125.7 53.63 124.9 54.47 123.73 56.42 122.51 56.74 120.85 56.59 117.93 57.84 116.22 58.31 113.74 59.83 112.95 60.18 111.04 63.8 111.59 67.63 109.94 71.11 112.59 74.89 114.1 74.13 115.61 76.65 118.38 80.68 119.64 82.19 124.17 77.66 124.93 74.89 126.69 68.85 126.94 66.58 129.2 61.55 129.2 58.77 129.95 Z" id="LVA-5710" data-name="Alsungas"/>
<path d="M 201.4 140.95 201.26 141.73 204.89 144.51 205.55 148.67 205.77 149.53 205.35 150.21 204.7 150.42 204.2 150.71 204.25 151.17 204.65 151.48 205.48 152.6 202.63 152.83 203.2 154.77 205.77 155.52 206.78 156.96 209.14 158.53 208.59 160 207.1 161.5 205.84 162.24 204.51 162.59 201.86 162.59 200.51 162.72 200.08 163.25 200.05 163.77 200.08 164.3 200.27 164.74 200.9 164.96 201.36 165.45 201.73 165.71 202.41 166.88 199.69 166.97 197.68 167.58 195.56 167.19 195.16 167.22 192.94 167.21 190.92 164.69 186.64 162.93 181.1 163.43 177.83 166.96 175.06 165.7 173.55 161.17 169.78 159.16 169.27 154.12 168.27 149.84 165.24 148.33 163.23 144.56 165.5 140.78 168.58 135.71 172.63 136.8 179.09 137.29 184.37 138.72 185.65 139.58 185.22 140.47 189.3 140.33 193.68 141.16 201.4 140.95 Z" id="LVA-5711" data-name="Brocenu"/>
<path d="M 132.45 141.93 133.76 145.13 135.02 147.09 135.38 147.79 135.34 148.46 134.47 149.25 133.7 150.63 132.93 151.48 131.72 152.35 128.36 153.47 126.9 154.26 125.94 155.37 126.82 158.26 126.87 160.57 126.58 161.9 126.93 162.35 127.25 162.98 127.6 164.24 128.14 164.76 128.43 165.36 127.9 166 125.55 166.86 121.22 167.3 115.8 168.35 115.84 169.18 116.55 169.72 119.95 171.21 120.87 171.84 120.72 173.41 118.67 173.96 117.22 173.58 115.61 173.53 114.31 173.75 110.88 173.68 109.81 172.85 105.81 173.64 104.9 173.53 104.65 173.08 104.46 172.48 104 172.04 102.82 171.87 99.81 172.16 98.12 172.08 96.17 171.77 94.51 171.01 93.35 170.17 91.78 168.42 92.02 166.33 91.83 165.22 92 164.65 91.49 163.72 90.08 162.28 89.97 161.89 92.86 160.88 94.05 160.13 94.79 159.09 95.21 158.21 94.21 156.58 93.56 155.76 95.06 153.72 97.04 151.86 102.07 150.09 106.85 150.35 110.12 148.84 107.36 141.54 112.64 139.02 117.93 138.77 124.72 138.77 126.99 140.53 132.45 141.93 Z" id="LVA-5712" data-name="Skrundas"/>
<path d="M 110.88 173.68 109.75 175.11 109.48 175.75 109.87 176.51 109.55 177.64 113.39 180.34 114.04 181.09 113.2 181.83 112.01 182.21 110.32 182.52 109.19 183.09 108.55 183.57 112.43 186.48 112.64 186.65 112.69 186.7 110.73 187.21 85.54 193.81 84.3 190.26 87.11 188.86 87.11 187.45 84.06 187.45 81.72 185.81 77.73 183.46 79.84 181.82 79.37 178.29 85.24 177.36 85.24 174.54 82.42 173.84 82.89 168.91 87.35 167.5 92.02 166.33 91.78 168.42 93.35 170.17 94.51 171.01 96.17 171.77 98.12 172.08 99.81 172.16 102.82 171.87 104 172.04 104.46 172.48 104.65 173.08 104.9 173.53 105.81 173.64 109.81 172.85 110.88 173.68 Z" id="LVA-5713" data-name="Vainodes"/>
<path d="M 95.06 153.72 93.56 155.76 94.21 156.58 95.21 158.21 94.79 159.09 94.05 160.13 92.86 160.88 89.97 161.89 90.08 162.28 91.49 163.72 92 164.65 91.83 165.22 92.02 166.33 87.35 167.5 82.89 168.91 77.26 167.73 68.81 168.91 67.4 167.73 72.56 164.68 72.56 161.87 71.39 158.58 67.4 156.94 61.53 157.64 58.48 157.64 54.25 158.34 51.91 155.29 48.86 155.53 48.39 153.18 41.58 150.36 39.23 148.02 40.17 145.9 39.7 140.51 42.52 139.1 49.56 137.92 52.85 136.99 52.51 133.94 58.74 134.26 61.24 136.54 62.36 136.75 66.84 136.73 69.74 136.41 71.47 137.76 71.64 138.88 72.99 140.13 73.78 141.39 75.38 142.35 76.2 142.47 78.63 142.41 79.33 142.31 85.75 145.33 88.26 147.85 88.43 148.87 89.28 149.85 89.42 150.95 88.96 151.86 89.9 152.54 92.69 153.42 95.06 153.72 Z" id="LVA-5714" data-name="Aizputes"/>
<path d="M 67.4 167.73 68.81 168.91 77.26 167.73 82.89 168.91 82.42 173.84 85.24 174.54 85.24 177.36 79.37 178.29 79.84 181.82 77.73 183.46 81.72 185.81 84.06 187.45 87.11 187.45 87.11 188.86 84.3 190.26 85.54 193.81 79.81 195.31 70.07 195.56 65.99 196.72 57.9 200.19 54.25 196.13 46.27 193.32 50.26 190.5 52.61 184.63 46.98 178.29 46.74 175.48 43.46 174.07 49.33 172.19 48.39 167.97 52.14 169.38 56.6 172.19 57.54 173.13 62.7 172.9 59.42 168.67 62.7 166.56 67.4 167.73 Z" id="LVA-5715" data-name="Priekules"/>
<path d="M 32.9 157.17 35.48 162.1 32.43 164.68 32.66 171.02 42.75 169.61 43.46 174.07 46.74 175.48 46.98 178.29 52.61 184.63 50.26 190.5 46.27 193.32 33.37 193.55 29.38 190.73 27.73 181.82 20.69 182.05 18.58 174.54 11.42 175.07 10.88 174 10.28 173.19 12.46 171.84 15.82 170.8 14.78 166.83 12.98 167.49 11.86 162.76 6.73 161.74 9.54 157.21 10.83 158.58 17.87 159.52 21.4 154.35 27.73 158.34 32.9 157.17 Z" id="LVA-5716" data-name="Grobinas"/>
<path d="M 29.38 190.73 24.21 190.26 24.68 193.79 24.21 197.78 22.57 200.36 16.47 205.29 13.88 204.35 13.65 208.34 13.65 211.15 10.6 210.92 8.25 200.12 1.27 200.86 2.28 198.7 2.55 197.44 2.55 196.26 2.42 195.27 1.26 190.94 1 188.74 1.22 186.63 2.15 184.93 3.63 183.44 4.28 182.59 4.81 181.58 5.05 180.36 6.61 180.23 6.88 179.14 7.1 177.56 8.4 177.27 9.38 178.58 7.82 180.08 8.58 180.5 9.38 180.77 9.38 182.34 9.38 183.09 7.82 184.52 10.34 186.52 11.26 186.84 12.18 186.59 12.95 185.94 13.24 185.08 12.01 182.77 11.8 180.81 11.96 178.94 12.4 177.76 11.9 177.01 11.42 175.07 18.58 174.54 20.69 182.05 27.73 181.82 29.38 190.73 Z" id="LVA-5717" data-name="Nicas"/>
<path d="M 29.38 190.73 33.37 193.55 46.27 193.32 54.25 196.13 57.9 200.19 50.62 203.32 48.9 203.64 43.9 203.77 40.52 204.75 36.43 206.67 32.51 209.06 29.74 211.48 27.86 215.03 27.06 218.06 25.41 220.15 20.99 220.84 14.51 220.87 10.34 221.46 10.34 221.46 10.34 221.42 10.25 220.91 9.16 216.84 7.63 213.22 2.7 206.28 1.53 203.91 1.05 201.54 1.27 200.86 8.25 200.12 10.6 210.92 13.65 211.15 13.65 208.34 13.88 204.35 16.47 205.29 22.57 200.36 24.21 197.78 24.68 193.79 24.21 190.26 29.38 190.73 Z" id="LVA-5718" data-name="Rucavas"/>
<path d="M 48.03 125.7 47.56 126.57 48.19 127.13 49.16 127.79 53.7 129.04 58.77 129.95 56.61 131.74 55.98 132.69 52.51 133.94 52.85 136.99 49.56 137.92 42.52 139.1 39.7 140.51 40.17 145.9 39.23 148.02 36.65 146.14 33.13 148.02 34.54 151.54 36.18 154.35 32.9 157.17 27.73 158.34 21.4 154.35 17.87 159.52 10.83 158.58 9.54 157.21 10.88 153.64 11.63 144.21 11.2 142.02 10.42 140.06 10.26 138.19 11.63 136.28 20.67 132.97 21.71 131.96 29 129.52 30.99 128.36 35.02 124.96 36.14 124.26 37.5 123.82 40.59 122.27 40.59 122.26 40.98 122.26 44.38 123.03 46.82 124.15 48.03 125.7 Z" id="LVA-5719" data-name="Pavilostas"/>
<path d="M 39.23 148.02 41.58 150.36 48.39 153.18 48.86 155.53 51.91 155.29 54.25 158.34 58.48 157.64 61.53 157.64 67.4 156.94 71.39 158.58 72.56 161.87 72.56 164.68 67.4 167.73 62.7 166.56 59.42 168.67 62.7 172.9 57.54 173.13 56.6 172.19 52.14 169.38 48.39 167.97 49.33 172.19 43.46 174.07 42.75 169.61 32.66 171.02 32.43 164.68 35.48 162.1 32.9 157.17 36.18 154.35 34.54 151.54 33.13 148.02 36.65 146.14 39.23 148.02 Z" id="LVA-5720" data-name="Durbes"/>
<path d="M 179.19 46.15 177.07 45.14 177.33 51.43 181.6 55.71 181.86 59.74 183.37 64.02 174.81 64.52 170.03 68.55 167.01 73.83 161.22 73.08 156.44 74.08 152.91 74.08 150.39 71.57 145.61 72.32 143.12 75.55 141.51 74.54 135.07 75.15 131.24 74.82 123.13 72.78 129.72 71.19 132.9 69.71 134.08 68.82 134.06 68.16 133.76 67.41 135.41 66.92 136.98 66.09 144.48 63.52 144.74 62.41 144.5 58.91 144.1 58.21 143.06 57.24 142.11 55.94 141.56 54.59 141.75 53.35 140.49 51.13 139.18 50.76 137.99 51 137.27 50.35 135.96 46.96 167.8 37.62 172.47 36.83 174.99 36.72 176.23 36.49 177.58 36.04 179.03 35.73 180.63 35.91 181.74 36.29 181.71 36.41 181.15 36.68 180.63 37.47 179.59 41.62 179.19 46.15 Z" id="LVA-5721" data-name="Dundagas"/>
<path d="M 179.19 46.15 179.61 48.38 180.68 49.99 186.78 54.88 211.31 66.38 219.17 71.71 224.04 74.02 219.11 75.09 217.35 77.86 213.07 78.11 207.78 76.6 205.26 74.34 196.2 68.8 192.18 71.32 189.16 69.05 190.92 66.28 183.37 64.02 181.86 59.74 181.6 55.71 177.33 51.43 177.07 45.14 179.19 46.15 Z" id="LVA-5722" data-name="Rojas"/>
<path d="M 242.27 84.29 238.73 84.98 237.94 85.76 237.26 87.07 237.05 90.16 233.48 93.11 231.44 90.95 230.68 88.18 226.66 87.42 219.61 86.67 215.83 82.64 221.12 80.63 225.4 78.87 228.09 75.93 233.81 77.72 237.57 78.2 238.97 78.54 239.29 79.4 239.34 80.49 239.83 81.58 242.27 84.29 Z" id="LVA-5723" data-name="Mersraga"/>
<path d="M 477.13 184.54 477.65 187.94 477.68 189.21 478.07 190.99 477.65 191.74 477.42 192.36 477.75 192.66 478.43 193.05 484.6 192.6 485.58 193.42 484.77 193.93 482.46 194.55 480.52 195.4 479.04 196.67 478.99 197.81 481.97 199.08 484.05 200.65 485.79 201.29 489.23 203.96 488.36 207.2 489.74 209.36 489.79 209.79 489.26 210.13 485.75 210.28 484.39 210.93 483.29 211.81 483.24 211.85 456.83 209.29 452.86 207.67 449.66 204.35 447.7 200.81 446.63 199.74 442.96 197.47 441.86 196.34 440.64 194.3 437.8 187.63 434.92 183 432.95 181.15 430.61 180.72 431.34 179.41 433.9 178.82 435.08 177.44 436.07 175.87 446.3 174.88 447.88 178.82 450.43 178.43 452.99 185.12 459.49 183.94 477.13 184.54 Z" id="LVA-5724" data-name="Neretas"/>
<path d="M 564.65 184.71 566.89 184.77 570.83 186.6 572.18 187.58 572.6 188.47 572.83 189.45 572.94 191.75 573.28 192.33 574.84 194.13 575.19 194.72 575.07 196.86 575.19 197.42 575.48 197.68 576.01 198.03 576.5 198.26 576.69 198.17 576.67 199.08 576.4 199.86 576.09 200.54 575.94 201.11 575.71 203.61 576.21 204.56 577.82 204.94 579.05 205.05 581.24 205.51 582.36 205.62 584 206.25 588.02 209.27 591.04 211.54 591.95 213 592.42 214.67 592.62 217.57 592.92 219.16 589.72 215.94 589.59 215.06 589.98 214.59 590.21 213.87 589.86 213.39 589.37 212.9 588.48 212.55 585.97 211.95 583.22 211.61 581.7 211.06 579.09 211.17 577.56 211.44 570.2 215.02 571.56 216.13 571.75 216.43 571.68 217.43 569.14 218.62 568.17 218.36 566.85 218.28 565.64 218.88 565.07 219.59 563.64 220.78 561.39 221.99 560 222.15 558.98 221.9 557.71 220.71 556.24 217.52 553.3 217.28 552.32 215.32 552.32 213.11 549.14 212.13 544.48 210.66 543.5 207.23 541.29 205.02 537.13 204.53 532.96 203.55 528.06 204.04 521.2 204.29 519.73 197.18 525.61 196.44 525.85 193.26 525.61 190.81 532.23 189.83 537.62 183.95 533.94 180.51 535.17 175.86 537.86 176.84 542.03 177.08 541.31 174.92 546.72 176.19 559.66 179.24 560.99 179.76 561.95 181.36 563.75 183.44 564.65 184.71 Z" id="LVA-5725" data-name="Jekabpils"/>
<path d="M 596.25 159.44 599.09 159.67 608.24 162.72 612.43 163.41 620.27 163.93 619.13 167.41 619.48 168.74 620.51 169.23 621.9 169.48 624.01 169.59 620.42 173.68 620.27 174.23 620.2 174.78 620.66 174.89 620.63 175.01 620.56 175.64 616.5 175.93 614.41 175.54 613.15 175.11 609.83 174.85 607.22 175.06 605.32 175.63 603.96 176.32 602.88 177.06 600.3 178.22 594.82 179.82 593.77 177.21 590.49 174.61 590.22 173.65 589.66 173.09 588.94 172.69 586.87 172.44 583.22 173.08 580.54 174.53 576.86 177.37 575.96 179.04 571.79 182.19 564.65 184.71 563.75 183.44 561.95 181.36 560.99 179.76 559.66 179.24 546.72 176.19 541.31 174.92 546.69 172.92 545.95 171.2 542.76 171.94 541.54 170.47 538.84 170.47 535.79 171.41 532.86 171.36 531.44 171.07 529.5 168.44 527.17 167.1 528.05 164.27 528.14 162.05 531.59 162.37 536.29 161.94 542.05 160.8 547.43 159.23 553.1 156.17 555.14 159.03 557.42 160.17 559.3 160.48 561.3 160.1 565.06 158.57 569.33 157.46 572.13 157.88 573.62 158.44 575.94 158.74 577.46 159.52 576.72 160.41 579.63 162.31 583.75 161.57 585.87 162.2 586.19 162.76 586.98 164.86 592.63 162.97 593.52 162.3 596.25 159.44 Z" id="LVA-5726" data-name="Krustpils"/>
<path d="M 528.14 162.05 528.05 164.27 527.17 167.1 529.5 168.44 531.44 171.07 532.86 171.36 535.79 171.41 535.17 175.86 533.94 180.51 537.62 183.95 532.23 189.83 525.61 190.81 524.87 188.85 519.24 189.09 517.28 186.15 514.83 184.44 512.13 181.98 512.62 180.27 510.28 178.02 508.67 175.68 507.13 174.59 506.31 173.23 508.22 170.03 510.72 168.7 511.51 167.58 511.66 166.95 510.81 166.67 508.68 166.79 506.5 166.27 507.54 165.96 508.6 166.01 511.03 165.72 516.01 163.79 520.59 163.31 523.12 162.75 526.72 161.5 528.14 162.05 Z" id="LVA-5727" data-name="Salas"/>
<path d="M 547.43 159.23 542.05 160.8 536.29 161.94 531.59 162.37 528.14 162.05 526.72 161.5 523.12 162.75 520.59 163.31 516.01 163.79 511.03 165.72 508.6 166.01 507.54 165.96 500.85 165.73 499.15 164.6 499.72 163.14 499.37 162.09 502.08 161.89 503.31 158.7 508.94 155.03 507.47 151.1 512.62 150.61 512.62 148.16 510.41 146.69 510.9 145.22 513.85 145.47 517.03 146.45 521.02 144.63 525.21 143.32 525.65 142.55 526.98 141.25 527.25 140.41 527.2 139.76 526.25 139.36 526.98 138.52 529.09 138.28 531.32 139.32 532.57 140.08 533.57 140.86 534.21 141.18 535.93 141.27 537.59 142.56 538.48 144.64 537.71 145.29 536.99 146.16 535.85 146.96 535.7 147.9 536.67 151.04 544.64 152.69 547.82 154.42 547.56 155.04 546.86 155.53 545.62 155.82 545.41 156.26 545.69 156.9 546.66 157.42 547.18 157.91 547.43 159.23 Z" id="LVA-5728" data-name="Plavinu"/>
<path d="M 521.02 144.63 517.03 146.45 513.85 145.47 510.9 145.22 510.41 146.69 512.62 148.16 512.62 150.61 507.47 151.1 508.94 155.03 503.31 158.7 502.08 161.89 499.37 162.09 498.45 161.91 495.98 161.98 491.39 160.39 488.68 160.01 485.18 161.82 481.16 163.66 477.11 164.38 477.08 159.93 477.08 155.03 475.46 152.73 477.35 150.95 477.46 150.6 477.63 150.26 477.08 149.82 473.12 148.41 474.33 147.41 477.32 146.39 480.71 146 484.02 146.51 483.78 145.86 483.73 145.5 485.01 145.47 486.43 145.78 487.88 145.64 492.97 144.11 500.45 139.94 506.65 141.09 511.44 141.11 515.45 142.25 518.44 142.59 521.02 144.63 Z" id="LVA-5729" data-name="Kokneses"/>
<path d="M 475.46 152.73 477.08 155.03 477.08 159.93 477.11 164.38 470.72 164.98 468.52 164.62 465.62 163.29 462.77 161.98 460.07 161.29 464.59 158.95 464.83 156.74 463.36 154.54 464.22 152.02 466.88 152.63 468.54 151.81 468.78 151.48 475.46 152.73 Z" id="LVA-5730" data-name="Aizkraukles"/>
<path d="M 464.22 152.02 463.36 154.54 464.83 156.74 464.59 158.95 460.07 161.29 457.81 160.71 453.64 161.03 450.26 162.08 446.95 162.5 447.75 161.19 447.49 160.69 447.15 159.86 446.45 158.89 446.73 155.51 446.67 154.42 446.96 153.76 447.51 153.43 448.41 153.18 449.41 153.03 450.9 152.24 450.72 151.72 449.94 151.48 449.43 150.95 448.79 150.54 448.85 150.1 447.97 149.4 455.54 148.3 461.22 150.79 461.71 151.45 464.22 152.02 Z" id="LVA-5731" data-name="Skriveru"/>
<path d="M 499.37 162.09 499.72 163.14 499.15 164.6 500.85 165.73 507.54 165.96 506.5 166.27 508.68 166.79 510.81 166.67 511.66 166.95 511.51 167.58 510.72 168.7 508.22 170.03 506.31 173.23 507.13 174.59 508.67 175.68 510.28 178.02 509.84 178.72 509.04 178.97 507.98 179.6 507.2 180.17 505.12 180.47 502.45 180.48 500.45 181.41 497.24 183.34 494.97 183.94 488.14 184.21 481.29 183.07 477.42 183.12 477.13 184.54 459.49 183.94 452.99 185.12 450.43 178.43 447.88 178.82 446.3 174.88 444.33 168.78 440 168.78 439.31 165.76 441.39 165.43 449.46 164.49 451.07 163.25 450.26 162.08 453.64 161.03 457.81 160.71 460.07 161.29 462.77 161.98 465.62 163.29 468.52 164.62 470.72 164.98 477.11 164.38 481.16 163.66 485.18 161.82 488.68 160.01 491.39 160.39 495.98 161.98 498.45 161.91 499.37 162.09 Z" id="LVA-5732" data-name="Jaunjelgavas"/>
<path d="M 525.61 190.81 525.85 193.26 525.61 196.44 519.73 197.18 521.2 204.29 521.2 206.49 518.99 209.19 516.34 213.62 509.77 213.91 507.88 213.7 502.36 212.21 494.88 212.98 483.24 211.85 483.29 211.81 484.39 210.93 485.75 210.28 489.26 210.13 489.79 209.79 489.74 209.36 488.36 207.2 489.23 203.96 485.79 201.29 484.05 200.65 481.97 199.08 478.99 197.81 479.04 196.67 480.52 195.4 482.46 194.55 484.77 193.93 485.58 193.42 484.6 192.6 478.43 193.05 477.75 192.66 477.42 192.36 477.65 191.74 478.07 190.99 477.68 189.21 477.65 187.94 477.13 184.54 477.42 183.12 481.29 183.07 488.14 184.21 494.97 183.94 497.24 183.34 500.45 181.41 502.45 180.48 505.12 180.47 507.2 180.17 507.98 179.6 509.04 178.97 509.84 178.72 510.28 178.02 512.62 180.27 512.13 181.98 514.83 184.44 517.28 186.15 519.24 189.09 524.87 188.85 525.61 190.81 Z" id="LVA-5733" data-name="Viesites"/>
<path d="M 557.71 220.71 555.75 219.84 553.75 220.58 552.94 221.1 549.89 222.53 548.49 222.66 546.78 221.67 545.65 220.64 536.33 215.93 536.7 217.38 537.08 217.97 538.49 219.2 538.82 219.69 539.47 220.44 538.26 221.21 537.79 222.25 537.03 223.05 534.05 224.14 532.41 225.02 532.39 225.03 529.17 222.99 522.84 220.53 521.5 219.77 520.53 218.62 518.49 214.92 517.68 213.95 516.34 213.62 518.99 209.19 521.2 206.49 521.2 204.29 528.06 204.04 532.96 203.55 537.13 204.53 541.29 205.02 543.5 207.23 544.48 210.66 549.14 212.13 552.32 213.11 552.32 215.32 553.3 217.28 556.24 217.52 557.71 220.71 Z" id="LVA-5734" data-name="Aknistes"/>
<path d="M 439.31 165.76 440 168.78 444.33 168.78 446.3 174.88 436.07 175.87 435.08 177.44 433.9 178.82 431.34 179.41 430.61 180.72 429.08 181.52 428.67 182.69 428.54 183.91 427.84 184.87 426.94 184.98 424.51 184.45 423.41 184.47 413.44 186.93 409.43 187.92 405.09 189.82 397.78 195.34 392.96 193.97 387.65 195.35 386.27 192.99 388.83 191.61 390.4 189.64 384.5 189.05 383.91 187.48 391.39 185.71 393.16 184.33 391.19 179.41 386.86 176.26 382.92 177.24 381.74 175.08 378.79 173.31 376.63 171.14 377.41 168.58 373.08 167.21 370.13 167.4 368.75 162.09 375.25 161.3 373.85 156.62 375.9 156.84 375.78 156.1 376.12 155.87 376.96 155.6 380.41 155.22 381.83 154.85 383.54 154.12 387.83 151.87 392.18 150.89 395.94 151.62 400.88 151.61 404.53 154.94 399.65 156.68 399.99 158.66 400.74 161.12 402.67 162.6 404.07 163.24 407.03 163.42 407.66 163.74 407.71 164.06 407.42 164.44 407.54 164.68 408.05 164.81 408.89 164.88 410.82 165.42 411.47 165.72 411.48 166.01 409.74 166.55 408.63 167.05 407.86 168.15 407.06 169.61 415.36 169.53 439.31 165.76 Z" id="LVA-5735" data-name="Vecumnieku"/>
<path d="M 373.85 156.62 375.25 161.3 368.75 162.09 370.13 167.4 373.08 167.21 377.41 168.58 376.63 171.14 372.69 170.36 367.77 170.55 362.45 172.32 360.49 174.29 356.16 173.31 353.79 172.52 351.24 171.73 346.32 171.14 343.41 170.5 344.45 168.82 346.31 167.36 346.86 166.15 346.47 165.56 345.1 165.4 343.7 165.39 340.85 164.97 339.23 164.23 337.65 163.09 337.64 162.53 338.03 162.43 339.06 162.43 340.13 162.19 341.05 161.3 340.8 160.78 340.44 160.32 340.27 159.89 340.34 159.52 339.81 159.24 338.73 158.83 335.82 156.92 335.47 156.27 335.7 156.11 336.68 156.49 337.31 156.96 338.53 156.85 339.36 156.65 338.46 153.68 344.32 154.36 347.71 155.54 349.15 155.88 351.08 155.9 352.36 155.68 353.71 154.75 353.85 154.03 354.48 153.44 355.06 153.21 356.29 153.32 357.74 153.11 360.09 152.45 361.77 151.98 363.11 152.26 363.72 153.44 364.97 154.15 367.15 155.09 371.7 156.39 373.85 156.62 Z" id="LVA-5736" data-name="Iecavas"/>
<path d="M 334.32 149.03 334.53 150.01 335.62 151.29 334.8 152.87 338.46 153.68 339.36 156.65 338.53 156.85 337.31 156.96 336.68 156.49 335.7 156.11 335.47 156.27 335.82 156.92 338.73 158.83 339.81 159.24 340.34 159.52 340.27 159.89 340.44 160.32 340.8 160.78 341.05 161.3 340.13 162.19 339.06 162.43 338.03 162.43 337.64 162.53 337.65 163.09 339.23 164.23 340.85 164.97 343.7 165.39 345.1 165.4 346.47 165.56 346.86 166.15 346.31 167.36 344.45 168.82 343.41 170.5 343.63 171.38 339.45 174.09 338.22 174.22 336.68 174.18 333.88 174.13 331.36 172.32 330.77 168.39 328.21 165.63 325.06 162.48 319.94 161.7 315.81 160.32 311.82 158.24 313.57 157.43 312 154.42 305.13 153.43 302.82 151.66 299.87 152.64 298.49 150.67 301.83 150.08 301.83 148.31 307.9 147.53 309.13 148.21 310.93 148.85 312.85 149.14 313.94 148.8 314.71 148.48 315.82 148.19 323.81 147.34 325.13 147.39 325.87 147.75 326.47 148.63 327.59 148.95 328.27 149.24 334.32 149.03 Z" id="LVA-5737" data-name="Ozolnieku"/>
<path d="M 336.68 174.18 338.05 176.85 338.64 180.2 338.84 182.56 341.79 183.74 347.3 185.31 351.83 186.89 348.68 188.86 344.74 187.28 342.18 187.28 342.77 189.45 339.23 190.82 338.64 192.99 335.69 193.97 332.67 195.06 320.53 192.89 320.53 192.85 320.26 191.66 320.5 189.03 320.81 188.3 321.44 187.14 320.84 186.57 316.69 186.75 316.74 186.16 316.96 185.74 317.44 185.21 317.99 184.12 318.26 183.38 318.23 182.84 317.41 182.4 317.22 182.07 317.19 181.65 317.94 181.14 319.5 180.08 320.96 178.49 322.18 178.14 325.92 177.41 327.25 176.3 329.23 175.72 330.61 174.64 333.88 174.13 336.68 174.18 Z" id="LVA-5738" data-name="Rundales"/>
<path d="M 270.33 175.14 272.06 176.87 271.73 177.39 271.53 177.83 270.37 178.65 270.11 178.87 270.74 179.97 272.07 180.44 273.01 181.38 274.12 183.01 275.5 184.63 275.54 185.64 274.94 186.33 274.17 186.93 273.34 187.39 272.02 187.85 270.9 188.07 267 189.74 266.29 190.38 266.25 190.41 258.83 188.65 256.39 188.38 243.63 190.04 241.41 186.49 237.67 184.33 241.02 181.77 243.57 179.8 248.3 179.41 254.99 179.41 258.73 178.82 256.37 177.83 254.79 175.47 259.32 172.91 263.85 169.37 266.8 169.37 267.98 172.32 270.33 175.14 Z" id="LVA-5739" data-name="Tervetes"/>
<path d="M 241.02 181.77 237.67 184.33 241.41 186.49 243.63 190.04 241.61 190.77 242.56 191.91 237.05 195.23 231.49 195.97 226.48 193.8 222.58 188.37 219.9 185.2 216.33 184.08 212.41 184.48 209.18 185.74 209.06 185.72 205.02 185.12 201.07 183.39 199.04 183.01 194.53 182.71 195.64 180.59 196.33 179.99 196.91 179.28 196.55 177.91 196.16 177.11 191.77 175.14 192.94 167.21 195.16 167.22 195.56 167.19 197.68 167.58 199.69 166.97 202.41 166.88 205.19 167.6 206.38 169.96 207.95 170.16 209.52 168.58 213.26 167.01 217 166.81 216.41 164.65 220.35 163.27 222.51 165.83 227.04 164.45 229.21 165.83 231.96 168.78 234.32 169.37 234.13 171.73 234.52 176.65 238.06 177.64 238.85 180.39 241.02 181.77 Z" id="LVA-5740" data-name="Auces"/>
<path d="M 663.35 132.77 661.82 131.37 660.86 128.91 659.92 128.09 656.62 126.88 655.24 126.04 655.2 125.12 655.61 124 655.87 122.74 655.29 122.24 654.27 121.79 651.58 121.74 650.66 121.97 649.58 121.23 650.81 119.07 650.51 118.71 649.64 117.38 654.2 115.04 657.24 113.88 659.84 112.22 662.69 108.84 664.46 107.79 665.88 106.76 670.47 107.05 675.74 106.8 675.74 109.31 678 110.06 681.26 109.56 686.78 110.81 694.8 112.32 698.57 112.07 700.82 112.57 699.57 116.58 696.81 119.34 693.05 120.09 693.8 122.35 696.56 122.35 699.57 121.6 701.58 126.36 697.06 127.37 694.3 128.62 689.79 130.88 687.03 134.64 683.27 134.64 674.24 133.14 668.97 132.13 663.35 132.77 Z" id="LVA-5741" data-name="Rugaju"/>
<path d="M 747.09 115.9 740.96 116.83 735.19 117.33 734.43 115.08 729.92 114.57 725.91 115.08 724.65 110.81 721.64 110.56 715.12 106.8 709.35 101.78 711.86 96.01 714.12 92.5 718.61 89.21 720.22 90.21 722.12 90.81 722.99 90.75 726.15 90.86 727.88 88.87 729.65 88.26 731.07 86.58 736.81 84.83 737.9 84.31 739.01 84.11 740.06 83.39 740.79 82.75 741.44 80.13 742.93 81.04 754.07 84.8 756.12 85.79 757.5 87.36 758.14 89.93 757.6 96.11 756.8 99.49 755.74 101.85 752.41 103.58 742.16 106.28 740.1 107.94 741.62 109.95 744.48 110.78 747.06 111.88 747.64 114.7 747.09 115.9 Z" id="LVA-5742" data-name="Vilakas"/>
<path d="M 735.93 136.78 735.14 137.35 732.69 136.42 731.14 135.6 728.99 135.04 727.94 134.35 727.48 133.97 726.82 133.59 725.5 134.01 723.33 134.46 722.03 135 714.17 135.58 712.86 132.13 710.86 130.13 713.87 128.62 719.38 128.87 724.15 126.61 722.14 124.36 732.43 121.1 738.2 120.59 735.19 117.33 740.96 116.83 747.09 115.9 745.31 118.28 744.62 119.49 744.34 120.61 744.1 122.8 743.72 124.05 736.41 132.65 734.17 136.52 735.93 136.78 Z" id="LVA-5743" data-name="Baltinavas"/>
<path d="M 760.27 147.69 757.89 147.61 755.32 149.32 755.32 153.6 753.33 156.16 748.77 153.31 735.94 153.88 730.24 157.3 728.87 161.26 725.72 159.35 724.61 158.43 722.77 157.7 721.4 157.36 720.24 157.26 718.72 157.53 717.44 156.96 716.96 156.43 716.77 155.23 717.86 154.5 718.53 153.12 716.85 147.9 715.14 144.48 709.44 143.05 702.41 143.29 703.29 143.11 702.95 141.2 703.35 140.59 703.31 139.71 704.1 139 704.9 138.67 705.58 138.69 705.87 138.96 706.45 139.11 707.2 139.03 708.47 138.29 708.03 137.87 708.56 137.42 710.37 136.39 712.09 135.74 714.17 135.58 722.03 135 723.33 134.46 725.5 134.01 726.82 133.59 727.48 133.97 727.94 134.35 728.99 135.04 731.14 135.6 732.69 136.42 735.14 137.35 735.93 136.78 737.78 137.06 746.91 134.25 751.57 133.53 756.46 134.3 758.81 135.4 763.14 138.11 765.56 139.16 766.15 140.73 764.08 143.25 761.44 145.85 760.27 147.69 Z" id="LVA-5744" data-name="Karsavas"/>
<path d="M 760.27 147.69 762.16 149.58 772.99 153.82 774.13 155.69 774.22 160.65 774.8 162.97 776.29 164.77 778.24 165.96 787.04 168.33 788.96 169.15 789.64 170.44 788.87 171.42 786.01 172.93 785.35 174.23 780.97 172.41 773.85 171.84 769 174.12 766.15 176.4 762.45 174.69 760.17 171.27 754.47 168.7 750.48 169.84 748.2 172.12 744.78 170.7 741.07 166.99 737.37 166.99 731.38 166.14 726.77 166.05 726.8 163.44 728.87 161.26 730.24 157.3 735.94 153.88 748.77 153.31 753.33 156.16 755.32 153.6 755.32 149.32 757.89 147.61 760.27 147.69 Z" id="LVA-5745" data-name="Ciblas"/>
<path d="M 793.56 182.43 793.16 186.21 793.48 188.73 794.28 190.96 798.73 198.47 799 199.65 798.78 201.27 798.14 202.13 797.25 202.84 796.34 204.02 795.38 206.6 794.74 209.2 793.7 211.64 791.47 213.77 787.3 212.19 782.59 213.2 780.71 213.96 780.69 213.91 780.28 212.84 779.89 212.05 781.97 209.4 783.62 207.79 782.83 206.5 784.96 203.19 788.38 199.2 785.53 196.63 779.83 194.92 775.56 192.93 767.58 195.49 765.87 198.06 760.17 198.06 757.6 194.07 761.59 192.93 765.58 190.36 770.14 187.8 774.13 188.08 776.41 187.23 774.13 184.95 772.71 181.81 777.55 181.24 782.68 182.95 788.1 182.95 793.56 182.43 Z" id="LVA-5746" data-name="Zilupes"/>
<path d="M 738.49 203 740.64 204.67 742.26 205.29 744.53 206.7 746.89 207.46 750.69 207.91 754.27 207.84 755.53 209.01 757.29 209.38 758.88 209.42 762.7 208.9 763.9 209.28 765.51 209.23 775.23 207.07 777.38 206.37 778.54 205.84 779.46 205.7 780.37 205.85 780.88 206.21 781.26 206.67 781.83 207.04 782.25 207.07 782.83 206.5 783.62 207.79 781.97 209.4 779.89 212.05 780.28 212.84 780.69 213.91 780.71 213.96 777.7 215.18 772.99 216.46 768.44 217 767.05 217.41 765.33 218.41 764.24 219.61 763.27 220.96 761.94 222.42 754.44 225.65 751 227.65 750.53 230.29 748.67 232.16 744.78 229.98 739.93 228.55 737.08 227.13 735.66 227.7 735.94 230.83 733.09 230.55 727.96 229.69 715.71 225.42 710.58 225.42 707.44 227.13 705.45 226.84 706.3 223.14 705.73 220.57 699.75 220.57 694.05 221.43 691.48 217.15 698.89 215.73 702.31 214.02 701.46 211.74 698.04 209.46 697.57 207.1 702.32 206.3 710.35 206.64 711.3 206.27 714.3 206.4 713.51 204.83 714.23 204.14 716.4 203.75 718.82 203.58 721.03 202.91 722.63 202.12 723.13 201.11 723.89 200.7 725.34 202.12 725.72 202.43 727.53 202.78 736.72 201.96 738.49 203 Z" id="LVA-5747" data-name="Dagdas"/>
<path d="M 697.57 207.1 698.04 209.46 701.46 211.74 702.31 214.02 698.89 215.73 691.48 217.15 694.05 221.43 685.78 223.42 686.35 228.27 681.22 231.12 676.38 230.83 669.54 231.4 664.98 230.55 661.44 228.59 661.63 227.95 660.4 226.46 659.89 225.67 659.7 224.93 661.54 222.82 657.41 222.99 652.97 217.89 652.71 215.26 657.12 215.77 658.03 214.5 656.21 213.4 657.48 212.13 661.49 210.85 664.95 210.67 669.18 209.62 669.84 210.08 670.96 210.37 673.53 210.63 676.18 210.65 675.8 209.68 675.74 209.41 675.96 208.93 676.27 208.63 678.85 207.89 681.6 206.5 682.86 206.25 684.04 206.52 697.57 207.1 Z" id="LVA-5748" data-name="Aglonas"/>
<path d="M 592.92 219.16 593.26 221.39 594.21 223.35 595.6 224.63 595.14 227.06 596.36 229.7 598.16 231.9 595.92 234.53 592.09 233.26 589.91 234.9 586.99 235.99 586.45 237.81 588.27 238.54 590.09 239.63 585.36 242.55 591.91 247.1 593.37 250.38 586.99 250.74 583.35 250.93 579.88 251.81 577.33 248.45 574.57 246.01 563.65 240.66 556.84 236.35 550.64 234.02 540.73 230.32 532.39 225.03 532.41 225.02 534.05 224.14 537.03 223.05 537.79 222.25 538.26 221.21 539.47 220.44 538.82 219.69 538.49 219.2 537.08 217.97 536.7 217.38 536.33 215.93 545.65 220.64 546.78 221.67 548.49 222.66 549.89 222.53 552.94 221.1 553.75 220.58 555.75 219.84 557.71 220.71 558.98 221.9 560 222.15 561.39 221.99 563.64 220.78 565.07 219.59 565.64 218.88 566.85 218.28 568.17 218.36 569.14 218.62 571.68 217.43 571.75 216.43 571.56 216.13 570.2 215.02 577.56 211.44 579.09 211.17 581.7 211.06 583.22 211.61 585.97 211.95 588.48 212.55 589.37 212.9 589.86 213.39 590.21 213.87 589.98 214.59 589.59 215.06 589.72 215.94 592.92 219.16 Z" id="LVA-5749" data-name="Ilukstes"/>
<path d="M 614.41 175.54 614.03 178.11 614.03 180.39 616.54 181.07 618.36 181.75 614.49 188.13 607.66 186.3 605.61 189.95 611.53 192.68 617.67 194.04 619.95 194.27 621.09 198.37 616.76 199.96 611.07 199.96 603.56 200.19 599.24 198.37 596.73 194.95 594 195.18 593.77 199.28 587.17 198.14 589.22 204.52 591.83 208.56 588.02 209.27 584 206.25 582.36 205.62 581.24 205.51 579.05 205.05 577.82 204.94 576.21 204.56 575.71 203.61 575.94 201.11 576.09 200.54 576.4 199.86 576.67 199.08 576.69 198.17 576.5 198.26 576.01 198.03 575.48 197.68 575.19 197.42 575.07 196.86 575.19 194.72 574.84 194.13 573.28 192.33 572.94 191.75 572.83 189.45 572.6 188.47 572.18 187.58 570.83 186.6 566.89 184.77 564.65 184.71 571.79 182.19 575.96 179.04 576.86 177.37 580.54 174.53 583.22 173.08 586.87 172.44 588.94 172.69 589.66 173.09 590.22 173.65 590.49 174.61 593.77 177.21 594.82 179.82 600.3 178.22 602.88 177.06 603.96 176.32 605.32 175.63 607.22 175.06 609.83 174.85 613.15 175.11 614.41 175.54 Z" id="LVA-5750" data-name="Livanu"/>
<path d="M 621.09 198.37 625.41 199.05 627.46 200.87 629.06 205.43 628.83 209.98 626.1 211.34 621.32 211.12 622.91 212.94 626.23 214.56 623.69 216.12 623.23 215.69 622.02 214.9 618.34 213.15 617.73 212.5 616.17 212.21 614.78 213.81 614.44 214.71 610.77 214.88 608.24 210.98 605.03 209.58 600.76 209.24 596.83 207.77 591.83 208.56 589.22 204.52 587.17 198.14 593.77 199.28 594 195.18 596.73 194.95 599.24 198.37 603.56 200.19 611.07 199.96 616.76 199.96 621.09 198.37 Z" id="LVA-5751" data-name="Varkavas"/>
<path d="M 656.77 180.17 655.6 181.74 655.09 182.65 653.98 183.38 653.72 184.17 659.68 188.43 661.3 189.92 664.02 192.96 662.33 194.21 659.58 194.26 658.86 195 659.1 195.95 659.39 196.67 660.57 198.18 663.47 200.47 663.73 202.15 664.69 203.18 665.17 204.07 666.72 204.77 668.17 205.73 668.77 206.58 668.92 207.64 668.8 208.9 669.18 209.62 664.95 210.67 661.49 210.85 657.48 212.13 656.21 213.4 658.03 214.5 657.12 215.77 652.71 215.26 652.05 212.71 649.77 211.57 645.9 209.98 643.17 209.07 646.81 207.48 647.27 205.88 644.54 201.56 641.12 198.37 636.57 197.46 632.24 194.95 628.15 194.04 626.55 192.45 628.6 188.81 633.15 187.22 635.66 185.85 630.42 182.21 623.59 179.93 619.95 180.39 618.36 181.75 616.54 181.07 614.03 180.39 614.03 178.11 614.41 175.54 616.5 175.93 620.56 175.64 620.63 175.01 620.66 174.89 620.2 174.78 620.27 174.23 620.42 173.68 624.01 169.59 632.67 169.33 634.42 169.66 636.77 167.93 639.79 168.23 644.7 170 645.85 171.74 640.27 173.08 643.08 173.61 643.81 174.57 645.21 174.9 646.63 174.98 648.18 174.9 649.35 175.23 650.23 175.97 654.23 176.7 659.78 176.95 660.42 178.69 659.46 179.01 657.63 179.37 656.77 180.17 Z" id="LVA-5752" data-name="Riebinu"/>
<path d="M 656.77 180.17 657.63 179.37 659.46 179.01 660.42 178.69 659.78 176.95 654.23 176.7 650.23 175.97 649.35 175.23 648.18 174.9 646.63 174.98 645.21 174.9 643.81 174.57 643.08 173.61 640.27 173.08 645.85 171.74 644.7 170 639.79 168.23 636.77 167.93 635.19 165.79 635.99 164.8 637.44 163.86 641.74 162.62 642.14 162.26 641.71 161.69 640.74 161.03 640.46 159.81 640.87 158.45 640.57 157.24 640.5 156.38 639.82 154.87 639.95 154.48 643.89 156.16 648.73 157.02 652.15 159.3 655.57 163.29 662.98 164.14 665.55 167.56 665.83 171.84 669.54 178.11 668.68 180.1 664.12 179.82 656.77 180.17 Z" id="LVA-5753" data-name="Vilanu"/>
<path d="M 375.73 99.28 378.18 99.74 381.54 99.43 386.14 99.28 390.73 107.7 389.96 108.92 385.22 111.37 379.55 112.6 374.66 113.06 370.06 116.27 366.69 115.96 363.48 114.74 361.95 112.75 363.17 111.07 363.94 108.46 370.06 106.93 371.9 105.25 372.36 101.42 373.12 99.12 375.73 99.28 Z" id="LVA-5754" data-name="Ādaži"/>
<path d="M 425.81 11.27 425.84 11.46 427.46 20.18 429.85 20.25 430.88 20.5 431.81 21.05 432.16 21.48 431.99 22.07 432.17 23.41 432.46 24.85 433.08 26.52 433.33 27.86 433.93 28.48 434.84 29.02 436.68 29.41 437.45 29.36 438.02 29.19 438.43 29.24 438.87 29.36 439.67 31.28 441.04 30.38 445.63 31.14 446.74 31.68 453.32 34.9 454.02 36.34 455.68 38.33 454.82 38.86 454.41 39.31 453.64 39.96 453.2 40.7 453.15 41.65 453.86 42.64 454.99 43.59 454.21 45.09 455.13 47.46 452.19 47.25 451.66 47.54 451.78 48.01 453.17 49.05 453.98 49.55 454.14 50.03 452.28 50.39 451.6 50.67 449.48 50.46 448.45 49.99 447.85 49.54 447.46 49.19 446.91 49.11 445.45 49.33 444.83 49.36 443.88 49.29 441.1 50.18 437.61 51.98 431.76 50.59 432.99 47.53 426.25 46 425.48 42.32 425.94 40.18 422.73 38.65 417.06 38.8 412.62 36.81 410.94 35.59 406.19 34.52 400.53 23.49 397.93 22.27 399.76 20.89 399.46 17.98 398.85 15.22 403.43 15.44 410.12 15.04 411.83 14.32 413.86 11.27 415.48 10.13 418.91 10.6 421.78 11.58 424.65 11.84 425.81 11.27 Z" id="LVA-5755" data-name="Alojas"/>
<path d="M 328.41 126.11 325.65 127.25 323.68 128.83 318.96 130.6 315.22 132.17 317.58 136.11 318.76 138.47 315.41 141.03 310.69 139.06 309.36 141.37 305.45 138.96 303.73 137.42 302.5 135.64 298.34 133.13 293.58 131.55 290.78 131.55 289.33 131.34 280.42 130.96 278.8 126.56 285.1 127.65 289.63 127.84 292.19 126.86 294.95 127.25 298.68 127.25 302.42 126.86 309.12 125.68 310.49 124.1 312.86 124.89 319.74 124.3 324.07 123.51 327.81 122.33 329.71 120.31 331.18 120.72 333.93 121.06 334.83 121.64 334.08 122.32 333.47 123.25 329.13 125.22 328.41 126.11 Z" id="LVA-5756" data-name="Babites"/>
<path d="M 392.57 146.62 392.18 150.89 387.83 151.87 383.54 154.12 381.83 154.85 380.41 155.22 376.96 155.6 376.12 155.87 375.78 156.1 375.9 156.84 373.85 156.62 371.7 156.39 367.15 155.09 364.97 154.15 363.72 153.44 363.11 152.26 361.77 151.98 360.09 152.45 357.34 150.87 355.44 150.41 356.16 147.92 359.9 146.74 362.65 148.11 364.42 147.33 363.64 145.56 362.65 143 367.18 142.6 372.89 142.8 380.37 143.98 386.07 145.36 392.57 146.62 Z" id="LVA-5757" data-name="Baldones"/>
<path d="M 373.12 99.12 372.36 101.42 371.9 105.25 370.06 106.93 363.94 108.46 363.17 111.07 361.95 112.75 360.26 111.37 352.6 113.55 351.42 113.24 347.17 109.59 347.17 109.59 357.93 105.74 358.86 104.17 360.99 102.9 363.48 102.03 365.39 101.63 365.42 100.45 366.51 99.67 369.15 98.63 371.15 97.37 373.12 99.12 Z" id="LVA-5758" data-name="Carnikavas"/>
<path d="M 288.33 121.33 288.03 121.5 279.66 123.61 277.9 124.9 276.75 125.58 276.94 125.89 277.16 126.35 273.29 127.45 265.62 129.22 255.19 128.63 246.72 127.05 241.02 128.04 240.23 126.46 244.17 124.3 246.33 122.92 243.18 120.95 244.17 118 248.1 115.05 250.07 112.1 247.12 107.77 241.21 105.8 237.08 104.22 235.7 102.26 237.87 100.48 239.24 96.35 238.85 92.61 237.05 90.16 237.26 87.07 237.94 85.76 238.73 84.98 242.27 84.29 242.27 84.29 242.75 84.83 243.85 86.63 244.71 88.79 245.57 92.66 246.51 94.68 248.14 95.55 249.12 96.57 252.21 106.76 253.36 108.47 254.9 109.15 256.85 109.57 262.08 112.91 271.19 114.93 280.62 115.92 281.97 116.54 287.35 120.87 288.33 121.33 Z" id="LVA-5759" data-name="Engures"/>
<path d="M 396.98 112.76 394.84 112.64 392.09 113.63 393.27 119.14 384.41 119.14 378.9 119.93 378.31 122.88 375.64 125.48 373.48 124.1 369.97 122.77 368.03 120.35 366.42 119.37 364.93 118.66 362.24 117.97 359.43 116.98 354.68 114.08 352.6 113.55 360.26 111.37 361.95 112.75 363.48 114.74 366.69 115.96 370.06 116.27 374.66 113.06 379.55 112.6 385.22 111.37 389.96 108.92 390.73 107.7 391.34 110.61 395.32 110.15 396.98 112.76 Z" id="LVA-5760" data-name="Garkalnes"/>
<path d="M 411.05 130.87 412.05 133.16 415.79 134.14 411.86 137.09 408.12 135.52 402.61 138.67 399.42 140.04 397.03 139.57 392.58 139.81 391.17 139.5 390.35 139.34 387.11 137.83 385.12 137.25 384.5 137.2 383.61 137.23 383.49 136.39 384 135.04 384.07 134.16 383.66 133.41 382.92 132.77 382.68 132.13 383.14 131.75 385.07 131.82 386.39 132.11 387.54 132.52 388.19 133.08 388.87 133.49 389.76 133.63 390.63 133.34 391.02 132.81 390.54 130.76 391.99 130.36 397.95 131.84 411.05 130.87 Z" id="LVA-5761" data-name="Ikskiles"/>
<path d="M 420.58 104.48 419.05 106.63 417.22 108.46 418.29 110.76 412.62 112.44 409.41 112.75 406.35 111.22 404.09 112.64 398.58 112.84 396.98 112.76 395.32 110.15 391.34 110.61 390.73 107.7 395.63 105.71 397.31 104.18 402.83 104.79 408.03 105.55 411.86 104.18 415.84 103.1 419.82 103.1 420.58 104.48 Z" id="LVA-5762" data-name="Incukalna"/>
<path d="M 218.38 135.32 216.22 137.68 217.2 140.24 221.92 141.23 228.62 140.64 230.78 142.01 232.36 145.75 234.91 150.08 238.21 152.52 235.57 153.31 233.88 153.42 227.8 152.95 223.11 151.2 214 151.11 210.9 151.39 205.48 152.6 204.65 151.48 204.25 151.17 204.2 150.71 204.7 150.42 205.35 150.21 205.77 149.53 205.55 148.67 204.89 144.51 201.26 141.73 201.4 140.95 204.41 139.85 207.75 138.27 206.57 135.91 210.9 134.93 214.45 135.52 218.38 135.32 Z" id="LVA-5763" data-name="Jaunpils"/>
<path d="M 329.71 120.31 327.81 122.33 324.07 123.51 319.74 124.3 312.86 124.89 310.49 124.1 309.12 125.68 302.42 126.86 298.68 127.25 294.95 127.25 292.19 126.86 289.63 127.84 285.1 127.65 278.8 126.56 277.16 126.35 276.94 125.89 276.75 125.58 277.9 124.9 279.66 123.61 288.03 121.5 288.33 121.33 288.34 121.33 289.05 121.67 294.21 122.56 301.16 122.96 319.98 120.44 326.68 118.66 326.82 118.63 326.87 118.71 327.49 119.69 329.71 120.31 Z" id="LVA-5764" data-name="Jurmala"/>
<path d="M 218.38 135.32 214.45 135.52 210.9 134.93 206.57 135.91 207.75 138.27 204.41 139.85 201.4 140.95 193.68 141.16 189.3 140.33 185.22 140.47 185.65 139.58 184.37 138.72 179.09 137.29 172.63 136.8 168.58 135.71 169.64 134.44 170.31 133.95 171.2 133.45 171.68 132.92 171.92 132.06 171.9 130.34 172.28 129.81 172.81 129.4 172.52 128.94 170.91 128.45 168.75 128.16 164.62 128.49 163.58 126.13 164.74 125.92 166.55 121.29 170.5 117.84 176.15 118.44 179.65 116.9 184.54 117.62 186.04 114.77 185.17 108.93 188.26 108.6 198.31 106.99 201.88 105.49 202.84 104.9 203.5 104.32 206.06 103.94 214.86 104.26 217.03 103.44 219.76 105.4 218.18 106.78 215.04 107.96 213.26 109.54 207.16 110.72 208.74 113.08 209.92 115.25 211.3 117.21 209.52 118.2 205.98 118.59 204.6 122.13 205.98 124.89 210.71 127.65 215.43 128.63 215.63 131.58 216.22 133.16 218.38 135.32 Z" id="LVA-5765" data-name="Kandavas"/>
<path d="M 436.4 141.3 434.2 142.77 430.76 144.98 428.56 145.47 427.82 148.16 424.88 149.14 422.77 150.71 424.75 151.08 426.6 151.42 428.56 152.2 430.3 152.89 431.4 154.31 434.38 158.15 435.97 158.97 438 159.19 440.09 159.89 442.08 160.55 443.9 161.15 447.49 160.69 447.75 161.19 446.95 162.5 450.26 162.08 451.07 163.25 449.46 164.49 441.39 165.43 439.31 165.76 415.36 169.53 407.06 169.61 407.86 168.15 408.63 167.05 409.74 166.55 411.48 166.01 411.47 165.72 410.82 165.42 408.89 164.88 408.05 164.81 407.54 164.68 407.42 164.44 407.71 164.06 407.66 163.74 407.03 163.42 404.07 163.24 402.67 162.6 400.74 161.12 399.99 158.66 399.65 156.68 404.53 154.94 400.88 151.61 395.94 151.62 392.18 150.89 392.57 146.62 393.41 145.87 393.91 144.64 393.84 143.86 392.3 141.9 391.17 139.5 392.58 139.81 397.03 139.57 399.42 140.04 400.36 140.67 402.81 143.05 403.58 143.23 405.82 144.34 406.6 144.95 407.5 145.42 409.43 145.76 411.51 146.12 412.24 146.55 414.52 148.38 418.51 145.96 420.96 143.51 420.47 141.3 423.41 140.57 424.64 137.63 427.58 138.36 432.23 139.83 436.4 141.3 Z" id="LVA-5766" data-name="Keguma"/>
<path d="M 356.41 132.35 354.19 133.94 355.57 135.71 358.72 138.27 363.24 138.67 368.95 138.67 372.37 135.75 377.25 136.74 381 136.99 383.61 137.23 384.5 137.2 385.12 137.25 387.11 137.83 390.35 139.34 391.17 139.5 392.3 141.9 393.84 143.86 393.91 144.64 393.41 145.87 392.57 146.62 386.07 145.36 380.37 143.98 372.89 142.8 367.18 142.6 362.65 143 363.64 145.56 364.42 147.33 362.65 148.11 359.9 146.74 356.16 147.92 355.44 150.41 350.75 149.28 338.64 150.08 335.62 151.29 334.53 150.01 334.32 149.03 335.2 148.24 335.29 145.56 338.64 144.97 344.15 145.56 344.35 143.59 347.3 141.23 348.28 139.06 346.12 137.49 344.74 136.31 344.43 133 345.67 132.74 346.18 132.17 347.08 131.18 349.34 130.55 351.83 130.11 356.41 132.35 Z" id="LVA-5767" data-name="Kekavas"/>
<path d="M 426.28 75.82 428.77 78.33 430.59 80.77 431.47 81.61 431.71 82.24 434.17 83.28 434.12 83.79 433.83 84.25 432.63 84.99 432.57 85.32 433.59 86.05 435.47 87.5 437.74 88.73 438.44 89.91 438.17 90.96 437.45 92.25 436.39 93.38 433.85 95.29 432.07 97.44 429.62 98.51 425.33 99.28 423.34 101.11 422.42 103.72 420.58 104.48 419.82 103.1 415.84 103.1 411.86 104.18 408.03 105.55 409.1 102.95 408.95 100.65 407.11 99.58 402.98 99.89 402.52 96.98 407.42 96.21 409.76 94.8 413.23 94.37 412.47 92.69 410.17 87.79 406.04 86.26 404.82 84.12 410.02 83.2 412.01 80.9 410.48 76.46 417.06 74.17 417.37 75.7 426.28 75.82 Z" id="LVA-5768" data-name="Krimuldas"/>
<path d="M 455.54 148.3 447.97 149.4 448.85 150.1 448.79 150.54 449.43 150.95 449.94 151.48 450.72 151.72 450.9 152.24 449.41 153.03 448.41 153.18 447.51 153.43 446.96 153.76 446.67 154.42 446.73 155.51 446.45 158.89 447.15 159.86 447.49 160.69 443.9 161.15 442.08 160.55 440.09 159.89 438 159.19 435.97 158.97 434.38 158.15 431.4 154.31 430.3 152.89 428.56 152.2 426.6 151.42 424.75 151.08 422.77 150.71 424.88 149.14 427.82 148.16 428.56 145.47 430.76 144.98 434.2 142.77 436.4 141.3 438.61 140.32 441.3 141.55 445.47 142.04 449.39 142.53 451.35 144.73 453.07 146.45 455.54 148.3 Z" id="LVA-5769" data-name="Lielvardes"/>
<path d="M 461.06 120.53 460.01 121.56 460.51 124.78 448.81 126.63 444.83 126.01 442.24 126.47 439.84 125.9 438.02 126.06 435.88 126.56 432.75 127.87 431.3 128 427.23 127.5 423.61 126.64 424.56 123.07 424.76 120.52 427.78 121.02 432.68 118.11 431.61 115.2 432.53 113.21 430.08 109.07 431.45 107.85 433.75 109.69 437.73 110.45 443.06 110.56 443.64 112.69 445.99 113.92 449.26 115.19 450.11 116.16 450.95 116.62 451.77 116.69 454.96 117.6 455.9 118.28 458.68 119.19 461.06 120.53 Z" id="LVA-5770" data-name="Malpils"/>
<path d="M 342.02 131.9 338.64 133.94 336.08 135.71 331.16 135.91 322.11 136.7 318.76 138.47 317.58 136.11 315.22 132.17 318.96 130.6 323.68 128.83 325.65 127.25 328.41 126.11 331.59 126.71 334.99 127.76 337.65 128.21 339.16 129.26 341.56 130.54 342.02 131.9 Z" id="LVA-5771" data-name="Marupes"/>
<path d="M 357.74 153.11 356.29 153.32 355.06 153.21 354.48 153.44 353.85 154.03 353.71 154.75 352.36 155.68 351.08 155.9 349.15 155.88 347.71 155.54 344.32 154.36 338.46 153.68 334.8 152.87 335.62 151.29 338.64 150.08 350.75 149.28 355.44 150.41 357.34 150.87 360.09 152.45 357.74 153.11 Z M 342.02 131.9 342.52 133.4 344.43 133 344.74 136.31 346.12 137.49 348.28 139.06 347.3 141.23 344.35 143.59 344.15 145.56 338.64 144.97 335.29 145.56 335.2 148.24 334.32 149.03 328.27 149.24 327.59 148.95 326.47 148.63 325.87 147.75 325.13 147.39 323.81 147.34 315.82 148.19 314.71 148.48 313.94 148.8 312.85 149.14 310.93 148.85 309.13 148.21 307.9 147.53 308.77 144.87 308.27 144.47 309.36 141.37 310.69 139.06 315.41 141.03 318.76 138.47 322.11 136.7 331.16 135.91 336.08 135.71 338.64 133.94 342.02 131.9 Z" fill-rule="evenodd" id="LVA-5772" data-name="Olaines"/>
<path d="M 424.76 120.52 424.56 123.07 423.61 126.64 418.42 128.72 415.98 129.34 413.54 130.68 411.05 130.87 397.95 131.84 391.99 130.36 390.54 130.76 391.02 132.81 390.63 133.34 389.76 133.63 388.87 133.49 388.19 133.08 387.54 132.52 386.39 132.11 385.07 131.82 381.94 127.65 379.38 127.45 375.64 125.48 378.31 122.88 378.9 119.93 384.41 119.14 393.27 119.14 392.09 113.63 394.84 112.64 396.98 112.76 398.58 112.84 404.09 112.64 408.42 117.96 414.72 120.52 420.04 119.53 424.76 120.52 Z" id="LVA-5773" data-name="Ropazu"/>
<path d="M 398.85 15.22 399.46 17.98 399.76 20.89 397.93 22.27 400.53 23.49 406.19 34.52 400.68 36.51 401.75 40.64 396.7 40.33 396.24 43.55 396.85 45.23 394.25 46 391.5 44.62 380.78 45.54 381.7 51.05 381.39 54.42 382.62 54.57 382.46 56.87 385.37 57.17 387.36 56.87 389.51 58.25 388.74 59.47 395.63 59.78 393.03 61.92 395.17 65.44 397.01 67.13 398.39 68.2 396.24 69.58 391.04 70.03 389.96 72.33 388.28 73.56 383.99 74.47 378.2 75.32 376.73 67.68 376.55 63.6 376.03 61.17 374.85 60.09 374.2 58.77 374.68 55.88 375.98 51.82 374.69 45.35 374.1 43.9 369.26 39.54 367.7 37.47 367.7 35.48 366.52 30.31 366.21 27.7 366.52 26.3 367.33 24.97 368.43 23.78 373.22 24.83 376.36 24.75 378.93 23.97 380.16 22.86 381.97 20.24 383.34 19.39 387.71 18.16 393.49 15.32 395.7 15.06 398.85 15.22 Z" id="LVA-5774" data-name="Salacgrivas"/>
<path d="M 379.38 127.45 381.94 127.65 385.07 131.82 383.14 131.75 382.68 132.13 382.92 132.77 383.66 133.41 384.07 134.16 384 135.04 383.49 136.39 383.61 137.23 381 136.99 377.25 136.74 372.37 135.75 368.95 138.67 363.24 138.67 358.72 138.27 355.57 135.71 354.19 133.94 356.41 132.35 363.21 133.34 360.78 129.92 360.56 127.02 367.38 128.04 370.52 128.63 371.71 130.79 373.67 129.22 379.38 127.45 Z" id="LVA-5775" data-name="Salaspils"/>
<path d="M 385.51 86.91 387.21 89.63 388.43 93.15 383.69 93.46 375.73 99.28 373.12 99.12 371.15 97.37 376.47 94.02 378.83 90.94 379.74 86.54 379.37 81.44 379.29 81.04 379.33 81.06 379.95 81.42 381.57 82.59 381.98 83.19 382.33 84.11 382.09 85.41 381.64 86.46 381.71 86.93 381.83 87.28 384.29 86.79 385.51 86.91 Z" id="LVA-5776" data-name="Saulkrastu"/>
<path d="M 409.76 94.8 407.42 96.21 402.52 96.98 402.98 99.89 407.11 99.58 408.95 100.65 409.1 102.95 408.03 105.55 402.83 104.79 397.31 104.18 395.63 105.71 390.73 107.7 386.14 99.28 381.54 99.43 378.18 99.74 375.73 99.28 383.69 93.46 388.43 93.15 387.21 89.63 385.51 86.91 386.71 87.03 395.27 84.53 397.07 85.23 397.89 86.8 398.07 87.34 398.36 87.57 399.58 87.95 400.95 88.65 403.22 90.12 405.54 93.25 409.76 94.8 Z" id="LVA-5777" data-name="Sejas"/>
<path d="M 457.2 107.27 459.95 109.51 463.4 111.92 459.44 113.65 461.33 115.72 463.4 117.78 463.23 119.51 461.06 120.53 458.68 119.19 455.9 118.28 454.96 117.6 451.77 116.69 450.95 116.62 450.11 116.16 449.26 115.19 445.99 113.92 443.64 112.69 443.06 110.56 437.73 110.45 433.75 109.69 431.45 107.85 430.08 109.07 432.53 113.21 431.61 115.2 432.68 118.11 427.78 121.02 424.76 120.52 420.04 119.53 414.72 120.52 408.42 117.96 404.09 112.64 406.35 111.22 409.41 112.75 412.62 112.44 418.29 110.76 417.22 108.46 419.05 106.63 420.58 104.48 422.42 103.72 423.34 101.11 425.33 99.28 429.62 98.51 432.07 97.44 433.85 95.29 437.59 96.42 441.22 98.99 441.86 99.79 442.13 100.57 442.42 101.89 443 103.4 443.06 103.87 443.43 105.64 447.72 106.24 452.2 106.75 457.2 107.27 Z" id="LVA-5778" data-name="Siguldas"/>
<path d="M 375.64 125.48 379.38 127.45 373.67 129.22 371.71 130.79 370.52 128.63 367.38 128.04 360.56 127.02 361.86 125.86 363.18 125.31 367.65 124.26 369.97 122.77 373.48 124.1 375.64 125.48 Z" id="LVA-5780" data-name="Stopinu"/>
<path d="M 506.84 103.13 504.42 105.89 507.01 106.92 510.28 107.27 512.87 110.54 512.7 112.1 509.42 113.82 505.11 117.09 503.05 117.09 500.63 115.37 499.08 116.4 500.98 118.47 500.3 119.93 500.29 119.93 498.56 119.97 496.85 120.57 496.42 120.64 494.01 120.29 494.06 121.35 494.37 121.85 494.64 122.71 491.79 125.01 488.39 126.26 485.79 125.81 485.72 125.08 485.58 124.54 485.23 123.81 484.63 123.01 483.85 122.26 482.65 121.85 480.86 121.87 476.09 123.23 475.07 123.93 473.63 124.55 473.11 125.17 472.04 125.67 471.97 126.01 472.16 126.28 472.52 126.53 470.57 126.59 460.51 124.78 460.01 121.56 461.06 120.53 463.23 119.51 463.4 117.78 461.33 115.72 459.44 113.65 463.4 111.92 459.95 109.51 457.2 107.27 459.95 107.1 463.92 106.41 466.33 104.68 468.23 103.31 465.64 101.41 464.44 99.34 463.75 96.58 462.37 94.34 460.13 93.65 456.34 93.65 454.78 92.1 459.27 90.03 463.06 90.38 467.54 90.21 470.3 87.96 470.3 86.76 476.5 88.48 479.95 90.89 479.78 93.83 484.43 93.83 485.46 95.2 484.95 96.76 486.67 98.65 490.12 98.82 493.74 100.55 495.29 102.1 499.43 102.62 500.8 102.1 503.39 102.1 506.84 103.13 Z" id="LVA-5781" data-name="Amatas"/>
<path d="M 602.32 57.52 602.34 57.52 604.17 58.49 607.86 61.33 609.9 62.58 611.6 62.42 613.11 61.69 614.6 61.22 615.64 61.36 617.68 62.16 618.74 62.35 619.86 62.07 620.39 61.4 620.77 60.59 621.48 59.88 624.73 58.33 628.33 57.18 632.02 56.53 640.56 56.78 642.51 56.47 643.63 58.39 643.89 62.15 643.89 63.91 638.37 63.91 634.35 65.41 633.6 68.17 632.35 72.69 630.59 73.44 625.83 73.44 622.56 73.19 620.32 76.28 617.4 75.61 614.84 75.81 613.37 75.45 612.79 75.12 612.17 74.61 607.29 74.77 607.82 76.71 607.66 77.26 607.17 78.07 604.09 78.72 602.59 79.57 601.26 79.96 598.61 80.36 598.27 80.75 598.35 81.14 598.83 81.49 599.43 81.68 600.16 81.62 601.6 81.16 602.25 81.27 602.25 81.96 601.53 82.79 594.47 83.85 585.3 82.92 585.46 79.21 586.41 79.09 588.15 78.09 588.09 77.55 587.83 76.48 588.24 75.75 589.01 75.08 589.33 74.25 589.59 73.33 590.18 72.71 590.01 72.13 589.59 71.68 588.87 71.34 588.02 71.03 587.22 70.63 587.51 69.82 588.43 69.23 589.33 68.87 590.79 67.88 589.14 67.64 589.2 64.39 594.73 62.91 594.85 62.6 594.82 62.13 593.93 61.8 593.42 61.05 592.8 60.66 592.46 60.16 592.78 59.65 592.96 58.6 593.67 57.61 594.2 56.53 593.72 55.92 593.58 55.49 602.32 57.52 Z" id="LVA-5782" data-name="Apes"/>
<path d="M 530.28 64.35 523.9 64.7 519.69 66.56 519.21 67.32 517.25 68.21 511.13 67.77 506.59 69.71 505.1 70.75 502.81 71.12 501.99 70.78 500.9 70.15 499.91 69.81 497.05 70.64 491.16 70.1 488.72 70.78 488.05 68.14 486.5 66.07 486.33 63.32 488.39 63.32 492.36 63.66 494.6 62.63 495.12 60.21 497.7 59.01 500.63 56.94 503.91 55.04 507.53 54.18 509.9 51.75 514.25 51.08 517.87 51.25 521.32 51.6 522.7 52.97 524.59 54.53 523.04 55.91 525.11 56.59 527.69 56.59 530.97 58.49 529.76 59.01 525.63 59.18 526.66 60.56 530.57 61.04 533.9 60.21 535.28 61.59 530.28 64.35 Z" id="LVA-5783" data-name="Beverinas"/>
<path d="M 471.85 31.26 474.26 31.77 474.61 33.67 479.26 33.15 486.5 32.64 494.94 32.46 499.25 32.46 505.68 32.13 506.99 33.2 510.46 34.19 512.7 35.91 517.52 36.77 520.63 38.15 518.73 40.05 513.22 40.22 512.18 41.43 510.97 42.63 510.97 45.74 503.18 46.81 500.95 48.22 503.52 50.07 507.68 51.17 509.9 51.75 507.53 54.18 503.91 55.04 500.63 56.94 497.7 59.01 495.12 60.21 493.22 58.15 490.12 58.15 486.5 58.84 483.57 56.94 479.26 54.87 475.47 54.01 474.43 51.6 470.3 49.01 469.61 47.98 466.68 47.29 465.64 45.22 462.02 46.43 458.23 47.46 455.13 47.46 454.21 45.09 454.99 43.59 453.86 42.64 453.15 41.65 453.2 40.7 453.64 39.96 454.41 39.31 454.82 38.86 455.68 38.33 454.02 36.34 453.32 34.9 446.74 31.68 448.58 29.71 451.51 29.88 454.96 29.88 457.2 31.26 458.92 31.43 459.44 30.4 458.4 28.33 457.2 27.12 460.47 26.43 462.2 27.64 469.43 30.74 471.85 31.26 Z" id="LVA-5784" data-name="Burtnieku"/>
<path d="M 595.57 114.45 596.29 115.89 597.16 118.82 599.57 120.54 598.19 122.61 596.12 124.16 593.71 125.02 594.4 126.92 590.78 126.92 586.47 125.88 584.4 126.92 581.64 127.09 579.4 127.26 576.99 124.68 574.92 124.51 573.71 124.51 573.89 123.13 575.44 121.06 574.4 118.65 574.23 115.54 575.44 112.96 575.07 110.27 578.59 109.55 584.81 109.77 590.28 108.58 591.11 111.45 595.57 114.45 Z" id="LVA-5785" data-name="Cesvaines"/>
<path d="M 542.39 123.3 546.14 125.54 548.72 126.75 549.76 127.61 549.07 129.68 545.62 129.68 542.86 130.37 539.41 129.68 536.83 130.37 533.73 130.88 530.11 131.4 529.42 132.61 527.18 133.99 528.21 135.71 529.09 138.28 526.98 138.52 526.25 139.36 527.2 139.76 527.25 140.41 526.98 141.25 525.65 142.55 525.21 143.32 521.02 144.63 518.44 142.59 515.45 142.25 511.44 141.11 506.65 141.09 500.45 139.94 500.57 138.44 500.38 137.74 499.97 136.76 498.98 136.29 498.09 135.45 498.19 135.1 498.06 133.98 505.99 133.24 503.61 132.03 502.91 131.46 502.14 131.01 501.61 130.6 501.65 130.02 501.97 129.5 502.5 128.87 503.4 128.01 503.34 126.78 502.36 125.58 501.72 124.17 500.78 123.27 500.71 122.36 499.05 121.42 498.56 119.97 500.29 119.93 500.3 119.93 501.75 119.9 507.03 121.33 508.92 121.35 511.16 121.08 514.61 119.94 515.11 119.94 515.11 120.14 514.94 120.44 515.18 121.07 514.56 122.13 514.12 123.42 521.58 120.89 522.47 120.06 524.86 119.51 527.92 120.1 529.53 121.18 530.62 121.45 531.51 121.38 532.45 121.01 534.39 120.82 535.37 121.01 536.16 121.3 536.62 121.59 537.01 121.92 537.49 122.24 537.83 122.63 538.43 123.06 538.84 123.48 542.39 123.3 Z" id="LVA-5786" data-name="Erglu"/>
<path d="M 567.76 110.77 564.77 109.88 563.38 109.65 562.05 109.59 561.1 110.07 560.72 110.52 560.28 110.91 559.13 110.9 557.39 110.61 549.36 108.31 546.44 108.63 541.83 108.65 539.76 106.06 537.17 106.06 533.38 104.51 530.11 102.44 528.9 100.72 529.76 97.44 532.69 96.41 534.93 96.58 538.38 97.79 540.45 99 543.21 99 548.89 98.31 553.72 96.58 556.38 95.03 561.75 95.45 563.28 95.72 564.73 96.25 566.19 97.2 569.4 100.42 573.41 103.57 573.16 104.58 572.66 105.18 570.3 107.42 569.57 108.67 567.76 110.77 Z" id="LVA-5787" data-name="Jaunpiebalgas"/>
<path d="M 486.5 58.84 485.81 61.25 486.33 63.32 486.5 66.07 488.05 68.14 488.72 70.78 489.36 71.47 489.13 71.63 487.95 72.24 488.7 74.1 488.53 74.83 488.07 75.52 488.1 76.35 487.4 76.86 484.15 76.97 483.23 76.55 481.68 75.62 481.03 74.95 480.35 74.72 477.97 74.92 474.85 74.78 471.03 73.67 468.01 73.49 466.49 72.92 465.14 72.01 462.39 70.01 460.29 68.53 460.32 67.07 458.36 64.87 455.58 65.64 453.57 64.29 454.48 63.91 454.4 63.52 453.71 63.12 452.16 62.92 450.74 63.02 450.08 62.77 449.99 62.58 450.47 62.3 450.47 61.62 449.92 60.42 447.27 58.23 445.29 57.47 443.09 57.28 437.44 58.1 435.59 58.17 433.25 56.92 431.61 55.18 431.76 50.59 437.61 51.98 441.1 50.18 443.88 49.29 444.83 49.36 445.45 49.33 446.91 49.11 447.46 49.19 447.85 49.54 448.45 49.99 449.48 50.46 451.6 50.67 452.28 50.39 454.14 50.03 453.98 49.55 453.17 49.05 451.78 48.01 451.66 47.54 452.19 47.25 455.13 47.46 458.23 47.46 462.02 46.43 465.64 45.22 466.68 47.29 469.61 47.98 470.3 49.01 474.43 51.6 475.47 54.01 479.26 54.87 483.57 56.94 486.5 58.84 Z" id="LVA-5788" data-name="Kocenu"/>
<path d="M 457.2 107.27 452.2 106.75 447.72 106.24 443.43 105.64 443.06 103.87 443 103.4 442.42 101.89 442.13 100.57 441.86 99.79 441.22 98.99 437.59 96.42 433.85 95.29 436.39 93.38 437.45 92.25 442.72 93.14 450.13 92.79 454.78 92.1 456.34 93.65 460.13 93.65 462.37 94.34 463.75 96.58 464.44 99.34 465.64 101.41 468.23 103.31 466.33 104.68 463.92 106.41 459.95 107.1 457.2 107.27 Z" id="LVA-5789" data-name="Ligatnes"/>
<path d="M 649.58 121.23 650.66 121.97 651.58 121.74 654.27 121.79 655.29 122.24 655.87 122.74 655.61 124 655.2 125.12 655.24 126.04 656.62 126.88 659.92 128.09 660.86 128.91 661.82 131.37 663.35 132.77 663.2 133.59 662.87 134.15 659.85 136.24 657.66 134.16 655.07 133.3 652.31 133.3 652.14 131.92 649.73 130.37 647.14 130.37 643.01 130.88 634.9 131.4 633.35 130.02 629.73 132.09 629.04 133.99 623.18 137.78 621.98 139.33 618.53 140.88 616.63 140.36 613.88 141.23 611.29 140.02 611.81 138.64 610.43 137.78 606.98 135.36 617.45 125.04 621.36 124.47 624.83 123.21 630.98 121.76 631.68 122.28 632.38 122.2 634.83 121.27 635.8 120.66 638.31 120.14 640.94 120.18 642.51 120.56 649.58 121.23 Z" id="LVA-5790" data-name="Lubanas"/>
<path d="M 471.85 31.26 469.43 30.74 462.2 27.64 460.47 26.43 457.2 27.12 458.4 28.33 459.44 30.4 458.92 31.43 457.2 31.26 454.96 29.88 451.51 29.88 448.58 29.71 446.74 31.68 445.63 31.14 441.04 30.38 439.67 31.28 438.87 29.36 438.43 29.24 438.02 29.19 437.45 29.36 436.68 29.41 434.84 29.02 433.93 28.48 433.33 27.86 433.08 26.52 432.46 24.85 432.17 23.41 431.99 22.07 432.16 21.48 431.81 21.05 430.88 20.5 429.85 20.25 427.46 20.18 425.84 11.46 425.81 11.27 428.12 10.14 430.78 9.22 439.23 8.56 442.04 7.53 448.65 3.92 450.19 3.09 452.59 2.27 455.18 1.86 456.85 4.37 456.34 6.44 455.3 8.85 456.34 11.26 459.44 11.78 459.95 14.02 458.58 14.71 459.61 16.95 463.23 18.67 466.33 19.71 468.23 21.6 468.75 23.33 472.02 25.57 472.36 29.02 471.85 31.26 Z" id="LVA-5791" data-name="Mazsalacas"/>
<path d="M 505.56 14.79 505.6 14.91 505.69 15.64 506.28 16.51 508.6 18.14 511.03 18.94 513.63 19.15 516.38 19.02 518.14 18.7 517.52 21.09 517.18 22.64 516.74 24.28 512.35 24.02 508.97 22.14 508.02 22.39 507.11 22.49 506.09 22.48 504.98 22.83 503.71 23.1 502.31 23.71 499.99 23.78 496.5 23.16 496.15 24.71 501.08 26.78 502.72 27.99 504.52 29.02 505.95 29.52 506.48 30.45 505.92 31.34 505.68 32.13 499.25 32.46 494.94 32.46 494.6 29.53 490.81 29.53 489.6 26.09 486.84 22.12 484.26 22.29 481.84 19.88 477.88 19.71 474.61 18.85 473.57 16.09 475.47 14.37 478.05 12.47 480.81 10.23 482.36 10.92 482.88 12.99 485.64 12.64 489.26 12.47 489.6 10.23 491.02 8.36 495.14 11.03 499.49 12.51 503.38 12.97 504.45 13.37 505.39 14.19 505.56 14.79 Z" id="LVA-5792" data-name="Nauksenu"/>
<path d="M 487.4 76.86 486.33 78.66 484.09 80.04 479.95 80.21 476.33 79.69 471.85 81.07 470.3 82.97 470.3 86.76 470.3 87.96 467.54 90.21 463.06 90.38 459.27 90.03 454.78 92.1 450.13 92.79 442.72 93.14 437.45 92.25 438.17 90.96 438.44 89.91 437.74 88.73 435.47 87.5 433.59 86.05 432.57 85.32 432.63 84.99 433.83 84.25 434.12 83.79 434.17 83.28 431.71 82.24 431.47 81.61 430.59 80.77 428.77 78.33 426.28 75.82 422.79 74.07 422.74 73.44 424.19 73.23 427.93 73.98 431.15 73.89 432.36 73.03 442.65 69.5 443.58 68.58 445.14 67.89 446.2 66.95 449.84 66.21 450.67 65.21 451.63 64.51 453.57 64.29 455.58 65.64 458.36 64.87 460.32 67.07 460.29 68.53 462.39 70.01 465.14 72.01 466.49 72.92 468.01 73.49 471.03 73.67 474.85 74.78 477.97 74.92 480.35 74.72 481.03 74.95 481.68 75.62 483.23 76.55 484.15 76.97 487.4 76.86 Z" id="LVA-5793" data-name="Pargaujas"/>
<path d="M 517.25 68.21 516.32 70.9 513.73 74.69 511.49 75.73 511.15 77.8 508.22 77.45 504.94 77.8 501.15 79.69 501.32 81.24 503.56 82.1 505.11 84 505.98 85.72 508.56 86.76 510.63 87.96 510.97 90.21 510.8 92.1 508.22 93.31 506.49 94.86 504.94 95.89 502.36 96.41 499.94 95.55 499.94 91.93 498.74 90.38 496.15 88.83 491.84 87.45 488.22 86.07 484.78 86.76 481.33 87.28 479.09 86.76 480.47 85.38 479.09 84.86 474.95 84.35 472.88 83.48 470.3 82.97 471.85 81.07 476.33 79.69 479.95 80.21 484.09 80.04 486.33 78.66 487.4 76.86 488.1 76.35 488.07 75.52 488.53 74.83 488.7 74.1 487.95 72.24 489.13 71.63 489.36 71.47 488.72 70.78 491.16 70.1 497.05 70.64 499.91 69.81 500.9 70.15 501.99 70.78 502.81 71.12 505.1 70.75 506.59 69.71 511.13 67.77 517.25 68.21 Z" id="LVA-5794" data-name="Priekulu"/>
<path d="M 548.86 61 550.47 62.61 550.47 64.76 547.78 66.91 543.48 65.84 536.76 65.03 530.28 64.35 535.28 61.59 533.9 60.21 530.57 61.04 526.66 60.56 525.63 59.18 529.76 59.01 530.97 58.49 527.69 56.59 525.11 56.59 523.04 55.91 524.59 54.53 522.7 52.97 521.32 51.6 517.87 51.25 514.25 51.08 509.9 51.75 507.68 51.17 503.52 50.07 500.95 48.22 503.18 46.81 510.97 45.74 510.97 42.63 512.18 41.43 513.22 40.22 518.73 40.05 520.63 38.15 525.74 38.95 538.1 36.53 535.95 41.64 539.18 41.91 539.45 44.06 553.7 45.41 552.62 47.83 550.47 51.05 547.51 52.4 541.33 52.93 544.02 54.55 544.29 56.7 542.67 58.85 543.48 61 548.86 61 Z" id="LVA-5795" data-name="Strencu"/>
<path d="M 491.02 8.36 489.6 10.23 489.26 12.47 485.64 12.64 482.88 12.99 482.36 10.92 480.81 10.23 478.05 12.47 475.47 14.37 473.57 16.09 474.61 18.85 477.88 19.71 481.84 19.88 484.26 22.29 486.84 22.12 489.6 26.09 490.81 29.53 494.6 29.53 494.94 32.46 486.5 32.64 479.26 33.15 474.61 33.67 474.26 31.77 471.85 31.26 472.36 29.02 472.02 25.57 468.75 23.33 468.23 21.6 466.33 19.71 463.23 18.67 459.61 16.95 458.58 14.71 459.95 14.02 459.44 11.78 456.34 11.26 455.3 8.85 456.34 6.44 456.85 4.37 455.18 1.86 460.34 1.79 463.19 2.81 464.71 5.07 465.72 7.78 467.06 10.16 468.68 10.88 470.41 10.88 473.94 9.91 476.12 8.38 475.37 6.62 472.29 3.64 472.41 1.73 473.82 1 475.82 1.19 477.79 2.05 478.54 2.81 479.85 4.8 480.55 5.45 481.55 5.77 482.23 5.68 482.95 5.48 484.06 5.45 488.48 6.72 491.02 8.36 Z" id="LVA-5796" data-name="Rujienas"/>
<path d="M 529.76 97.44 528.9 100.72 530.11 102.44 533.38 104.51 537.17 106.06 539.76 106.06 541.83 108.65 546.44 108.63 544.73 111.65 544.58 112.6 543.84 113.84 543.54 115.23 543.42 116.47 544.37 117.82 545.12 118.62 546.1 119.35 546.49 120.14 546.18 121.35 545.86 122.09 542.39 123.3 538.84 123.48 538.43 123.06 537.83 122.63 537.49 122.24 537.01 121.92 536.62 121.59 536.16 121.3 535.37 121.01 534.39 120.82 532.45 121.01 531.51 121.38 530.62 121.45 529.53 121.18 527.92 120.1 524.86 119.51 522.47 120.06 521.58 120.89 514.12 123.42 514.56 122.13 515.18 121.07 514.94 120.44 515.11 120.14 515.11 119.94 514.61 119.94 511.16 121.08 508.92 121.35 507.03 121.33 501.75 119.9 500.3 119.93 500.98 118.47 499.08 116.4 500.63 115.37 503.05 117.09 505.11 117.09 509.42 113.82 512.7 112.1 512.87 110.54 510.28 107.27 507.01 106.92 504.42 105.89 506.84 103.13 507.87 100.55 508.22 96.93 506.49 94.86 508.22 93.31 510.8 92.1 510.97 90.21 515.11 90.21 518.56 89.17 522.87 90.03 526.84 89.07 527.85 88.8 529.57 88.68 528.56 91.24 527.69 92.45 526.83 95.89 529.76 97.44 Z" id="LVA-5797" data-name="Vecpiebalgas"/>
<path d="M 589.2 64.39 589.14 67.64 590.79 67.88 589.33 68.87 588.43 69.23 587.51 69.82 587.22 70.63 588.02 71.03 588.87 71.34 589.59 71.68 590.01 72.13 590.18 72.71 589.59 73.33 589.33 74.25 589.01 75.08 588.24 75.75 587.83 76.48 588.09 77.55 588.15 78.09 586.41 79.09 585.46 79.21 585.3 82.92 585.41 83.81 585.76 84.37 585.25 85.42 584.08 86.23 584.26 87.56 583.75 88.32 569.24 88.92 566.05 88.74 563.25 89.18 561.35 90.16 559.71 88.54 557.97 88.35 556.33 87.68 553.99 87.43 545.07 87.79 544.35 87.61 542.94 87.62 541.73 87.84 529.57 88.68 527.85 88.8 526.84 89.07 525.94 88.02 525.51 86.71 526.14 84.9 525.9 84.2 526.3 83.43 527.75 83.07 527.56 82.19 524.32 79.59 522.42 77.11 523.41 75.22 518.25 69.54 517.25 68.21 519.21 67.32 519.69 66.56 523.9 64.7 530.28 64.35 536.76 65.03 543.48 65.84 547.78 66.91 550.47 64.76 550.47 62.61 548.86 61 552.35 58.85 560.42 57.77 565.26 57.77 568.48 56.7 571.98 59.12 575.2 59.12 581.39 59.65 581.92 61.8 585.96 61.54 588.11 61.27 589.2 64.39 Z" id="LVA-5798" data-name="Smiltenes"/>
<path d="M 556.33 87.68 557.97 88.35 559.71 88.54 561.35 90.16 561.35 91.7 560.31 91.84 556.48 91.85 555.83 92.2 555.36 92.52 556.38 95.03 553.72 96.58 548.89 98.31 543.21 99 540.45 99 538.38 97.79 534.93 96.58 532.69 96.41 529.76 97.44 526.83 95.89 527.69 92.45 528.56 91.24 529.57 88.68 541.73 87.84 542.94 87.62 544.35 87.61 545.07 87.79 553.99 87.43 556.33 87.68 Z M 522.42 77.11 524.32 79.59 527.56 82.19 527.75 83.07 526.3 83.43 525.9 84.2 526.14 84.9 525.51 86.71 525.94 88.02 526.84 89.07 522.87 90.03 518.56 89.17 515.11 90.21 510.97 90.21 510.63 87.96 508.56 86.76 505.98 85.72 505.11 84 503.56 82.1 501.32 81.24 501.15 79.69 504.94 77.8 508.22 77.45 511.15 77.8 511.49 75.73 513.73 74.69 516.32 70.9 517.25 68.21 518.25 69.54 523.41 75.22 522.42 77.11 Z" fill-rule="evenodd" id="LVA-5799" data-name="Raunas"/>
<path d="M 639.95 154.48 639.82 154.87 640.5 156.38 640.57 157.24 640.87 158.45 640.46 159.81 640.74 161.03 641.71 161.69 642.14 162.26 641.74 162.62 637.44 163.86 635.99 164.8 635.19 165.79 636.77 167.93 634.42 169.66 632.67 169.33 624.01 169.59 621.9 169.48 620.51 169.23 619.48 168.74 619.13 167.41 620.27 163.93 612.43 163.41 608.24 162.72 599.09 159.67 596.25 159.44 597.67 154.84 613.88 154.84 618.36 153.29 621.8 153.46 623.87 151.91 626.29 150.53 630.08 150.02 632.84 149.84 633.18 151.57 636.8 152.77 639.95 154.48 Z" id="LVA-5800" data-name="Varaklanu"/>
<path d="M 143.12 75.55 145.01 76.73 145.61 77.38 146.03 80.7 146.03 82.56 147.01 83.97 148.55 87.56 148.04 87.82 147.73 88.93 147.25 89.51 144.68 90.18 140.21 92.57 135.91 95.98 135.26 97.48 135.5 97.86 137.02 98.35 137.27 99.78 136.52 101.07 136.16 102.02 136.08 102.48 136.03 102.95 136.04 104.82 135.94 105.26 135.74 105.65 133.56 106.53 125.02 108.17 122.84 108.13 116.23 106.84 114.16 107.54 109.26 108.53 107.56 108.66 99.14 108.43 98.02 108.53 96.93 109.12 94.94 109.97 90.67 109.98 91.37 108.87 91.41 108.37 91.34 107.9 88.89 107.58 82.79 106.5 80.68 106.79 77.57 106.56 76.44 106.57 75.07 106.79 73.4 107.91 69.74 109.75 67.63 109.94 63.8 111.59 60.18 111.04 59.83 112.95 58.31 113.74 57.84 116.22 56.59 117.93 56.74 120.85 56.42 122.51 54.47 123.73 53.63 124.9 48.03 125.7 46.82 124.15 44.38 123.03 40.98 122.26 40.59 122.26 44.1 120.5 46.57 118.38 48.67 115.23 49.99 111.3 50.12 106.83 49.8 105.66 48.61 102.7 48.84 101.52 49.88 99.96 50.12 99.01 49.88 91.83 50.12 89.54 50.85 87.58 52.19 85.62 53.94 84.13 55.82 83.53 57.33 82.63 60.77 77.67 62.55 79.92 64.12 81.82 66.72 81.69 69.6 79.64 73.41 80.33 72.87 76.49 78.74 75.23 75.17 69.06 74.1 67.99 72.9 67.26 81.43 58.23 84.79 56.19 89.41 54.83 109.69 54.08 114.47 53.27 135.96 46.96 135.96 46.96 137.27 50.35 137.99 51 139.18 50.76 140.49 51.13 141.75 53.35 141.56 54.59 142.11 55.94 143.06 57.24 144.1 58.21 144.5 58.91 144.74 62.41 144.48 63.52 136.98 66.09 135.41 66.92 133.76 67.41 134.06 68.16 134.08 68.82 132.9 69.71 129.72 71.19 123.13 72.78 131.24 74.82 135.07 75.15 141.51 74.54 143.12 75.55 Z" id="LVA-934" data-name="Ventspils"/>
</g>
</svg>