<?xml version="1.0"?>
<svg xmlns="http://www.w3.org/2000/svg" version="1.2" baseProfile="tiny" width="800" height="388" viewBox="0 0 800 388" stroke-linecap="round" stroke-linejoin="round">
<g id="ne_10m_admin_1_states_provinces">
<path d="M 724.52 108.76 725.85 108.96 726.05 109.05 726.12 109.37 725.79 109.88 725.82 110.09 725.76 110.48 725.5 110.78 724.99 111.27 722.33 112.73 721.18 113.88 721.16 114.13 721.19 114.43 721.33 114.63 721.42 114.89 721.61 115.65 722.55 115.76 723.78 116.34 724.7 116.44 725.48 116.64 725.68 116.55 725.72 116.39 725.66 116.18 725.61 116.02 725.73 115.9 726.03 115.93 726.25 116.04 726.35 116.22 726.53 116.37 726.82 116.53 727.22 116.65 728.13 116.62 728.59 116.49 729.32 116.12 729.91 116.01 730.19 116.12 730.8 116.71 731.22 117.05 731.37 117.23 731.39 117.25 731.39 117.29 731.42 117.38 731.44 117.57 731.87 118.45 731.86 118.64 731.73 118.74 731.73 118.92 731.88 119.1 732.34 119.26 732.57 119.4 732.73 119.65 732.62 120.21 732.1 120.93 732.1 121.17 732.3 121.25 732.99 121.46 733.43 121.74 734.08 122.05 734.38 122.12 734.68 122.16 734.96 122.16 735.55 122.33 736.76 123.06 737.53 124.39 737.77 125.19 737.75 125.49 737.76 125.7 737.62 126.06 736.49 126.31 735.94 126.53 734.83 126.75 734.57 126.86 734.44 127.21 734.22 127.46 733.09 127.42 732.85 127.55 732.74 127.75 732.71 128.02 732.5 128.57 732.29 128.67 732.03 128.6 731.8 128.46 731.47 128.35 731.25 128.39 731.07 128.54 730.85 128.61 730.77 128.75 730.75 128.88 730.75 129.05 730.71 129.21 730.55 129.51 730.48 129.61 730.37 129.75 730.21 129.76 730.03 129.71 729.86 129.64 729.64 129.64 729.47 129.93 729.39 130.16 729.29 130.35 729.24 130.54 729.14 130.75 729.17 130.92 729.22 131.09 729.37 131.41 729.99 131.79 730.46 132.24 730.87 132.4 731.23 132.46 731.64 132.49 732.07 132.76 732.28 133.08 732.58 133.75 732.6 134.67 732.39 136.07 732.03 136.93 731.9 137.15 731.46 138.04 730.52 137.64 730.39 137.61 729.55 137.61 728.15 137.41 725.31 137.84 724.76 138.05 724.45 138.27 724.37 138.5 724.23 138.73 723.69 139.18 723.52 139.41 723.23 140.12 723.2 140.36 723.14 140.62 722.96 140.83 722.42 140.98 722.07 140.96 721.52 140.77 721.28 140.63 721.03 140.51 720.78 140.47 720.58 140.56 720.48 140.72 720.35 140.87 720.16 140.88 720.01 140.73 719.71 140.3 718.89 139.5 718.79 139.33 718.56 139.1 718 138.94 717.78 139.01 717.52 139.11 717.29 139.22 717.06 139.21 716.9 139.12 716.72 138.92 716.42 138.68 716.55 138.1 716.49 137.05 716.31 136.29 715.8 135.48 714.74 135.32 713.44 134.68 713.59 134.41 713.81 134.3 714.06 134.21 714.31 134.01 715.96 131.19 716.55 128.93 717.27 127.22 717.16 125.51 716.92 123.5 716.62 121.74 715.79 120.48 714.97 119.8 713.97 118.87 712.81 118.12 711.92 117.85 712.41 117.45 713.13 117.69 714.31 118.5 715.76 118.89 716.45 119.19 716.5 119.61 717.83 119.57 721.01 120.25 722.61 119.84 721.65 119.8 720.83 119.66 718.49 118.79 718.21 118.52 718.02 118.09 717.97 117.64 718.02 117.24 718.18 116.94 718.46 116.78 718.46 116.55 718 116.42 717.69 116.05 717.6 115.6 717.81 115.24 717.31 115.18 716.68 116.19 716.05 116.35 716.05 116.55 716.76 116.62 717.09 117.08 717.09 117.6 716.83 117.85 716.07 117.8 715.43 117.67 714.31 117.2 713.09 116.86 711.53 117.09 710.1 118.39 710.35 118.55 708.55 119.14 705.46 119.44 704.82 119.64 704.3 119.94 703.72 120.04 702.9 119.85 702.76 119.84 702.65 119.67 702.66 119.44 702.74 119.24 702.87 119.15 703.1 118.88 704.05 118.13 704.24 117.13 704.25 115.62 703.47 114.16 702.51 112.95 702.05 111.99 702.64 111.74 704.12 111.59 705.48 111.5 706.14 111.82 706.47 112.2 706.67 112.2 706.47 111.55 706.95 111.35 707.95 111.14 708.43 111.09 708.43 110.9 708.9 110.45 709.42 110.05 710.33 109.5 711.47 108.72 711.59 108.66 711.78 108.53 711.92 108.49 712.27 108.41 712.54 108.42 712.5 108.82 712.66 109.3 712.92 109.52 713.23 109.6 713.6 109.57 714.25 109.36 714.58 109.22 715.12 109.1 715.48 109.15 715.72 109.24 716.02 109.55 716.92 109.8 717.13 109.82 717.67 109.68 718.15 109.19 718.23 108.93 718.61 108.05 719.54 106.62 719.75 106.55 719.99 106.65 720.18 106.78 720.55 106.97 721.43 107.22 722.04 106.94 722.57 106.74 722.74 106.82 722.75 106.97 722.7 107.21 722.69 107.45 722.64 107.69 722.63 107.97 722.68 108.23 723.04 108.59 723.4 108.66 723.69 108.65 724.52 108.76 Z" id="PRT-5498" data-name="Setúbal"/>
<path d="M 200.44 165.93 200.59 166.6 200.12 167.08 199.05 166.98 197.2 166.49 196.15 166.71 195.6 166.7 195.36 166.38 195.15 165.98 194.77 165.62 194.57 165.29 194.91 164.97 195.56 164.49 196.73 164.25 197.98 164.21 198.86 164.3 199.5 164.64 200.05 165.23 200.44 165.93 Z M 179.32 138.15 183.36 138.59 183.84 138.48 184.67 138.02 185.11 137.91 185.4 138 186.06 138.43 186.39 138.59 186.92 138.34 190.17 137.56 194.69 137.48 195.92 137.87 196.68 138.82 196.77 139.97 195.99 140.98 194.79 141.42 190.56 141.85 189.13 142.16 187.61 142.28 186.17 142.22 185.45 142.28 184.89 142.5 184.03 142.07 183.19 141.79 181.4 141.41 178.57 141.31 174.73 139.04 173.63 137.82 174.21 136.16 176.65 135.98 177.47 136.16 178.57 136.9 178.77 137.17 178.8 137.54 178.89 137.85 179.06 138.07 179.32 138.15 Z M 104.03 119.4 104.23 120.15 103.8 120.49 102.82 120.5 100.35 120.21 99.63 120.25 98.99 120.43 97.83 121.15 97.45 120.99 97.16 120.6 96.79 120.26 96.08 120.08 91.54 120.01 90.9 120.26 88.81 118.72 88.06 117.75 88.06 116.35 89.02 115.66 90.08 115.42 92.33 115.46 93.61 115.65 96.79 117.2 97.92 117.59 97.99 117.65 98.33 117.75 98.96 118.18 99.29 118.28 99.97 118.38 102.04 118.96 103.49 119.08 104.03 119.4 Z M 85.69 116.55 85.28 116.76 84.91 116.75 84.15 116.55 83.76 116.57 82.79 116.77 82.39 116.78 81.67 116.51 80.85 115.53 80.22 115.04 78.76 114.36 78.72 114.09 79.78 113.94 80.71 113.92 81.14 113.86 81.54 113.7 81.82 113.46 82.34 112.83 82.63 112.64 85.39 113.63 86.12 114.16 86.56 115.58 86.34 115.62 85.32 115.97 85.03 116.13 85.23 116.32 85.31 116.44 85.41 116.5 85.69 116.55 Z M 98.12 110.08 104.43 111.96 108.99 113.94 111.36 114.62 112.56 115.12 113.14 115.7 112.61 115.85 112 115.93 110.75 115.9 110.23 115.75 109.19 115.33 108.22 115.18 107.69 115.02 107.16 114.78 106.72 114.49 106.26 114.29 105.4 114.41 104.86 114.16 104.43 114.39 104.12 114.27 103.56 113.7 103.16 113.51 99.86 112.64 99.29 112.3 98.66 111.46 98.43 111.33 98.17 111.37 98.05 111.43 97.93 111.44 97.66 111.33 97.58 111.21 97.62 111.07 97.59 110.95 97.34 110.9 97.08 110.79 95.59 109.77 95.48 109.55 95.48 109.14 96.06 109.33 97.11 109.89 97.56 110.01 98.12 110.08 Z M 135.7 112.35 135.61 112.64 135.43 112.76 134.51 113.09 133.71 112.83 131.56 112.82 130.84 112.4 130.43 112.76 130.08 112.77 129.3 112.4 128.47 112.25 127.65 112.2 126.92 111.96 126.12 111.39 125.46 110.67 125.15 110.01 124.88 109.02 125.61 108.26 126.79 107.77 127.85 107.6 132.75 107.84 133.67 108.15 134.96 108.76 135.99 109.48 136.15 110.12 136.04 110.43 136.3 110.62 136.62 110.8 136.7 111.09 136.52 111.21 135.82 111.44 135.61 111.55 135.56 111.81 135.7 112.35 Z M 104.77 98.06 105.08 98.24 105.3 98.02 105.8 98.55 106.86 99.23 107.36 99.66 107.56 100.2 107.2 100.58 106.6 100.8 106.05 100.87 105.4 100.84 104.72 100.74 104.09 100.53 103.56 100.19 103.2 99.66 103.25 99.2 103.78 98.24 104.1 98.06 104.43 98 104.77 98.06 Z M 4.14 85.54 4.57 85.59 4.99 85.38 5.59 85.99 5.84 86.53 5.88 87.89 5.64 88.61 5.08 89.49 4.43 90.03 3.9 89.74 3.3 89.96 2.61 90.03 1.96 89.95 1.51 89.74 1.21 89.31 1.01 88.69 1 88.1 1.3 87.79 1.13 87.25 1.3 86.8 1.57 86.33 1.71 85.7 1.93 85.2 2.45 84.88 3.1 84.72 3.69 84.73 3.45 85.16 3.75 85.37 4.14 85.54 Z M 6.88 80.22 5.88 80.38 5.83 80.18 5.33 79.19 5.21 79.04 5.3 78.71 5.58 78.41 5.95 78.21 6.33 78.17 7.43 78.35 7.51 79.29 6.88 80.22 Z" fill-rule="evenodd" id="PRT-735" data-name="Azores"/>
<path d="M 486.62 386.69 486.63 386.79 486.49 386.78 486.47 386.65 486.62 386.69 Z M 491.97 383.28 491.82 383.48 491.71 383.44 491.49 383.39 491.34 383.33 491.36 383.28 491.36 383.21 491.39 383.16 491.67 382.87 491.96 383.05 491.97 383.28 Z M 471.7 307.63 471.86 308.44 470.75 306.92 470.48 306.63 470.28 306.33 470.15 305.99 470.1 305.61 470.64 306.04 471.24 306.77 471.7 307.63 Z M 453.38 298.18 454.23 298.24 455.08 298.09 455.7 297.75 456.18 297.57 456.88 297.43 458.09 297.32 458.62 297.47 459.58 298.07 459.97 298.21 461.63 299.26 461.98 299.44 462.36 299.51 463.57 299.56 464.13 299.68 464.65 299.94 464.97 299.75 465.31 299.69 465.64 299.75 465.95 299.94 465.41 300.06 464.29 300.5 463.88 300.6 463.49 300.84 462.47 301.93 462.26 302.23 461.7 303.18 460.38 303.59 458.85 303.67 456.28 303.49 450.99 301.63 449.79 300.98 448.71 300.2 447.86 299.29 447.59 298.74 447.52 298.17 447.7 297.72 448.18 297.53 448.38 297.38 449.17 296.45 449.45 296.31 449.66 296.27 449.89 296.31 450.25 296.45 450.58 296.68 451.34 297.39 451.67 297.53 451.86 297.56 452.55 297.75 453.38 298.18 Z M 477.27 288.74 477.94 289.04 478.16 288.8 478.14 289.74 478.26 290.12 478.6 290.35 477.47 290.16 477 290.17 476.54 290.44 476.14 290.87 475.77 291.17 475.32 291.24 474.68 291 474.68 290.78 475.01 290.76 475.27 290.63 475.45 290.41 475.85 289.39 476.5 288.89 477.27 288.74 Z" fill-rule="evenodd" id="PRT-736" data-name="Madeira"/>
<path d="M 730.77 57.69 730.49 57.92 730.51 58.19 730.13 58.57 729.44 58.54 729.21 58.59 728.94 58.82 728.76 59.08 728.04 59.79 727.89 60.09 727.6 60.3 727.37 60.44 725.51 60.29 725.29 60.08 725.25 59.89 725.26 59.6 725.34 59.27 725.6 58.79 725.77 58.58 725.94 58.45 726.04 58.4 726.18 58.31 726.24 58.22 726.4 57.75 726.43 57.55 726.38 57.32 726.02 56.8 725.85 56.16 725.48 56.19 724.98 56.36 724.46 56.62 724.18 56.72 723.92 56.66 723.69 56.43 723.59 55.86 723.56 55.55 723.76 54.77 722.54 54.13 721.85 54.94 721.74 55.46 721.48 55.79 720.42 55.7 716.91 52.95 716.84 52.89 716.94 52.45 717.55 50.99 717.95 49.14 718.04 49.04 718.22 48.94 718.24 49.61 718.22 49.83 718.86 49.02 719.31 48.73 719.76 48.94 719.96 48.94 719.96 48.74 719.88 48.66 719.76 48.48 719.68 48.27 719.76 48.09 720.07 47.96 720.25 48.05 720.38 48.22 720.53 48.31 720.85 48.21 721.12 47.98 721.5 47.44 720.99 47.21 720.71 46.83 720.8 46.49 721.39 46.33 722.13 46.28 722.7 46.12 723.19 45.85 723.69 45.49 723.16 45.51 722.35 45.82 721.68 45.93 721.55 45.98 721.38 45.99 720.64 45.74 720.41 45.49 720.16 44.61 721.37 43.32 721.06 42.64 721.01 43.16 720.81 43.6 720.58 43.72 720.41 43.29 719.96 43.94 719.62 44.77 719.41 45.65 719.33 46.45 719.19 46.97 718.84 47.7 718.42 48.38 718.02 48.74 721.07 37.91 721.07 37.18 721.07 37.18 721.37 37.11 722.76 36.97 723.28 37.23 724.3 36.95 724.79 36.69 725.17 36.68 725.46 36.81 725.72 37 726.18 37.18 726.5 37.16 726.74 37.03 726.95 36.6 727.09 36.42 727.65 35.94 728.31 36.46 728.45 36.64 728.69 36.99 729.26 37.33 729.52 37.33 729.62 37.19 729.58 36.99 729.43 36.81 729.4 36.61 729.43 36.45 730.27 36.14 730.9 36.31 732.44 35.49 732.55 35.4 732.68 35.05 734.61 36 734.72 36.19 734.82 36.5 734.79 36.72 734.77 37.41 737.16 38.28 737.55 38.28 737.97 38.22 738.2 37.85 738.28 37.74 738.37 37.65 738.79 37.37 739.02 37.38 739.12 37.49 739.14 37.63 739.14 37.71 739.13 37.76 739.07 37.92 738.07 39.03 737.91 39.37 737.81 39.75 737.85 39.96 738 40.38 738.15 41.2 738.42 41.78 738.4 42.15 738.24 42.37 737.97 42.43 737.68 42.41 737.41 42.32 737.16 42.18 736.89 42.09 736.52 42.1 735.96 42.32 735.57 42.36 735.2 42.32 734.95 42.24 733.97 42.31 734.33 43.29 734.29 43.47 734 43.84 733.36 44.89 732.61 45.52 731.87 45.97 731.57 46.39 731.56 46.52 731.56 46.67 731.62 46.87 731.76 47.06 732.2 47.43 732.39 47.7 732.49 47.92 732.52 48.82 732.74 49.24 732.9 49.32 733.47 49.51 734 49.83 732.71 50.23 732.49 50.39 732.3 50.63 732.32 50.85 732.68 51.55 732.88 52.12 733.06 52.32 733.28 52.48 733.48 52.68 733.86 53.16 732.11 53.69 731.37 54.12 731.32 54.3 731.39 54.5 731.7 54.95 731.68 55.37 731.55 55.63 730.64 56.71 730.77 57.69 Z" id="PRT-739" data-name="Aveiro"/>
<path d="M 737.89 72.03 737.28 72.98 736.96 73.21 736.66 73.36 736.4 73.41 736.1 73.51 735.82 73.76 735.56 74.03 735.37 74.16 735.06 74.13 733.65 74.47 733.48 74.6 733.31 74.79 733.32 74.95 733.31 75.14 733.11 75.27 732.87 75.55 732.87 75.7 733.03 76.06 731.7 75.96 731.47 75.88 731.43 76.04 731.5 76.27 731.6 76.89 731.44 76.96 730.82 76.89 730.12 77.13 729.72 77.21 728.4 77.58 727.82 77.73 727.78 77.58 727.71 77.39 727.66 77.14 727.44 76.38 727.37 76.04 726.93 74.7 726.44 74.82 726.02 75.08 725.72 75.09 725.29 75.2 723.74 76.07 723.16 76.3 722.77 76.36 722.19 76.24 720.73 76.74 720.56 76.95 720.38 77.22 720.39 77.47 720.47 78.04 720.47 78.41 720.56 78.66 720.77 78.82 721.04 78.99 721.29 79.24 721.41 79.75 721.29 80.03 721.05 80.22 720.79 80.37 720.5 80.5 719.81 80.93 720.1 81.93 720.15 82.52 720.52 83.37 720.32 83.61 719.5 84.43 719.24 84.49 718.92 84.5 718.68 84.41 718.44 84.4 718.3 84.54 718.27 84.76 718.32 85.01 718.53 85.36 718.59 85.43 718.59 85.49 718.54 85.6 718.47 85.84 718.01 86.09 716.47 85.96 714.39 86.09 713.45 86.37 713.02 86.72 712.01 88.35 711.72 88.67 711.45 88.81 710.83 88.93 710.14 89.85 710 90.23 710.19 90.8 710.28 91.83 709.39 91.67 708.79 91.46 708.33 91.4 707.96 91.43 707.74 91.51 707.43 91.68 706.75 92.3 706.01 93.3 705.38 93.89 704.71 94.31 704.19 93.93 703.47 92 703.2 91.64 702.96 91.38 702.74 91.28 702.58 91.31 702.16 91.26 701.9 91.4 700.56 92.02 699.33 92.02 699.03 92.04 698.83 91.28 698.45 90.66 697.31 89.73 697.07 89.41 697.44 89.32 698.86 89.64 701.21 88.43 701.8 88.03 702.45 87.98 702.84 88.35 703.17 88.42 703.54 88.13 703.3 87.71 702.78 87.32 703.3 86.68 704.01 86.02 704.28 85.67 704.86 85.37 705.78 84.92 706.23 84.32 706.56 83.82 707.22 82.91 707.28 82.36 707.22 81.76 707.61 80.9 707.81 79.7 710.32 74.52 713.2 68.02 713.2 68.02 713.39 68.08 714.21 68.37 714.5 68.52 714.94 68.69 715.97 68.86 716.28 68.82 716.66 68.61 717.45 68.34 719.08 68.46 719.7 68.5 720.37 68.63 720.75 68.82 721.29 69.19 721.58 69.53 721.68 69.59 721.9 69.64 722.23 69.63 722.4 69.56 722.5 69.5 722.99 68.86 723.2 68.73 723.43 68.64 723.67 68.63 723.86 68.64 724.09 68.71 724.29 68.89 724.5 69.6 724.55 69.9 724.55 70.4 724.6 70.64 724.72 70.82 724.88 70.93 725.1 70.78 725.68 70.22 726.53 69.83 727.57 69.14 728.21 69.18 728.27 69.02 728.55 69.05 728.78 69.2 729.21 69.88 729.52 70.49 729.65 70.91 729.59 71.18 729.42 71.39 729.18 71.51 729.03 71.62 729.25 71.67 729.51 71.67 730.81 71.29 731.92 70.32 732.25 70.28 732.76 70.46 733.03 70.43 733.22 70.28 733.29 70.01 733.15 69.83 732.77 69.55 732.67 69.44 732.61 69.21 732.59 69.02 733.08 68.43 734.43 67.49 735.38 67.77 736.36 66.78 736.77 66.97 736.97 67.1 737.17 67.34 737.29 67.54 737.06 68.44 737.16 68.99 738.48 70.63 738.12 70.85 737.98 70.98 737.83 71.31 737.91 71.47 737.97 71.6 738 71.64 737.89 72.03 Z" id="PRT-740" data-name="Leiria"/>
<path d="M 736.21 11.85 736.19 11.86 736.07 11.89 735.68 11.89 732.66 13.12 731.89 13.34 729.1 13.44 728.62 13.51 728.18 13.65 727.94 13.77 727.38 14.12 726.84 14.29 726.59 14.28 726.33 14.23 726.07 14.28 725.91 14.36 725.65 14.57 725.55 14.81 725.49 15.05 725.43 15.54 725.37 15.77 725.27 15.99 724.98 16.2 724.83 16.42 724.76 16.6 724.91 16.95 724.35 17.7 724.14 17.68 723.84 17.62 723.49 17.47 722.86 17.39 721.91 17.13 721.65 17 721.5 17.08 721.39 17.22 721.14 17.37 720.87 17.42 719.24 17.47 716.91 18.11 716.6 18.14 715.98 18.06 715.83 18.05 715.81 17.66 715.55 17.08 715.49 16.34 715.6 15.98 716.31 15.78 718.26 15.53 718.82 15.34 719.32 15.06 719.76 14.73 716.24 15.53 715.5 15.6 715.09 15.57 714.51 15.3 713.9 14.26 713.9 13.35 714.17 11.92 713.95 11.01 714.08 10.68 714.31 10.37 716.57 8.97 717.64 8.05 718.02 6.88 718.38 6.68 719.1 6.4 719.92 6.22 720.57 5.89 720.81 5.57 721.15 4.89 721.43 4.57 721.97 4.26 722.52 4.18 723.69 4.16 724.27 3.98 725.37 3.42 725.97 3.24 730.88 2.65 731.42 2.44 732.23 1.88 732.52 1.75 732.76 1.71 733.3 1.69 733.89 1.51 734.84 1 735.12 1.31 735.41 1.79 735.32 3.16 735.42 3.68 735.83 3.91 736.31 3.81 736.87 3.62 737.54 3.57 738.15 3.76 738.63 4.11 738.89 4.59 738.82 5.14 738.48 5.54 737.97 5.86 737.05 6.31 736.12 6.99 734.89 8.35 734.59 8.92 734.54 9.51 734.9 10.08 736.04 10.42 736.28 10.67 736.33 11.09 736.21 11.85 Z" id="PRT-741" data-name="Viana do Castelo"/>
<path d="M 770.01 127.32 770.44 127.64 770.92 127.65 771.73 127.52 772.5 127.24 772.89 126.81 773.06 126.86 773.16 126.87 773.99 126.67 774.87 126.61 775.31 126.85 775.4 126.91 775.08 127.82 774.83 128.29 774.4 129.35 773.81 130.32 773.53 131.28 773.23 131.68 772.97 132.45 772.16 132.52 770.36 131.94 769.81 131.89 769.53 132.14 769.22 132.8 768.89 133.15 768.65 133.27 768.23 133.36 767.84 133.53 767.45 133.49 767.04 133.39 766.63 133.36 766.29 133.55 765.28 133.71 765.06 133.9 765.07 134.15 765.17 134.46 765.19 134.78 765.02 135.34 764.32 136.83 763.97 137.92 763.09 139.15 760.17 141.1 759.61 141.75 759.17 142.71 758.9 144.24 758.73 144.72 758.51 144.98 757.67 145.69 757.37 145.85 757.45 146.04 757.43 146.2 757.36 146.34 757.32 146.5 756.98 146.81 756.88 146.94 756.9 147.27 756.95 147.31 757.07 147.3 757.24 147.74 757.27 147.96 757.33 148.14 757.36 148.17 757.35 148.18 756.57 148.3 755.65 148.3 754.99 148.59 754.36 149.05 754.02 149.25 753.74 149.3 753.53 149.22 753.09 149.16 752.9 149.08 751.23 149.06 748.73 149.9 748.18 150.21 747.95 150.32 747.77 150.42 747.57 150.43 747 150.68 746.74 150.74 746.55 150.82 746.5 151.04 746.02 151.08 745.47 151.36 745.4 151.55 745.24 151.76 744.82 151.96 743.94 152.09 743.52 152.09 742.47 152.21 742.06 152.45 741.93 152.66 741.87 152.88 741.96 153 742.21 153.27 742.21 153.41 741.98 153.48 740.87 153.96 740.15 154.42 739.66 154.59 739.33 154.59 738.13 154.49 737.5 154.49 736.48 154.26 734.25 152.92 733.77 152.73 733.37 152.38 733.29 152.18 733.21 151.73 732.98 151.36 732.19 151.18 731.63 151.24 731.34 151.38 731.01 151.34 730.65 151.35 729.98 151.47 728.74 151.81 728.62 151.91 728.42 152.14 728.35 152.37 728.19 152.67 727.65 152.85 727.09 153.04 725.71 152.87 725.24 152.7 724.03 152.12 723.65 152.07 722.42 152.23 722.16 152.32 722 152.5 721.83 152.67 721.65 152.78 721.35 152.73 721.16 152.6 720.32 152.29 719.03 152.25 718.78 152.13 718.48 151.91 718.21 151.66 717.7 151.32 717.21 151.21 716.59 150.9 716.22 150.69 716.33 150.26 716.53 149.41 716.6 147.95 716.42 147.2 716.1 146.69 715.68 146.29 715.61 145.88 716.05 144.47 716.2 143.6 716.48 142.79 716.9 142.63 717.81 142.5 717.98 141.73 717.98 141.61 717.67 141.83 716.97 141.98 716.18 141.98 715.92 141.43 716.15 139.81 716.42 138.68 716.72 138.92 716.9 139.12 717.06 139.21 717.29 139.22 717.52 139.11 717.78 139.01 718 138.94 718.56 139.1 718.79 139.33 718.89 139.5 719.71 140.3 720.01 140.73 720.16 140.88 720.35 140.87 720.48 140.72 720.58 140.56 720.78 140.47 721.03 140.51 721.28 140.63 721.52 140.77 722.07 140.96 722.42 140.98 722.96 140.83 723.14 140.62 723.2 140.36 723.23 140.12 723.52 139.41 723.69 139.18 724.23 138.73 724.37 138.5 724.45 138.27 724.76 138.05 725.31 137.84 728.15 137.41 729.55 137.61 730.39 137.61 730.52 137.64 731.46 138.04 731.9 137.15 732.03 136.93 732.39 136.07 732.6 134.67 732.58 133.75 732.28 133.08 732.07 132.76 731.64 132.49 731.23 132.46 730.87 132.4 730.46 132.24 729.99 131.79 729.37 131.41 729.22 131.09 729.17 130.92 729.14 130.75 729.24 130.54 729.29 130.35 729.39 130.16 729.47 129.93 729.64 129.64 729.86 129.64 730.03 129.71 730.21 129.76 730.37 129.75 730.48 129.61 730.55 129.51 730.71 129.21 730.75 129.05 730.75 128.88 730.77 128.75 730.85 128.61 731.07 128.54 731.25 128.39 731.47 128.35 731.8 128.46 732.03 128.6 732.29 128.67 732.5 128.57 732.71 128.02 732.74 127.75 732.85 127.55 733.09 127.42 734.22 127.46 734.44 127.21 734.57 126.86 734.83 126.75 735.94 126.53 736.49 126.31 737.62 126.06 737.76 125.7 737.75 125.49 737.77 125.19 737.53 124.39 736.76 123.06 736.88 122.78 739.23 122.81 739.94 122.74 740.4 122.8 740.56 122.86 740.95 123.19 741.28 123.38 741.56 123.45 741.83 123.46 742.54 123.16 742.9 123.19 743.17 123.25 744.1 123.54 744.82 124.22 747.52 125.18 749.12 125.31 749.95 125.55 751.98 126.45 752.43 126.56 754.53 126.6 755.14 126.7 755.85 126.89 757.28 126.92 757.62 126.86 757.68 126.64 758.1 126.1 758.63 125.67 759.54 125.3 759.6 125.19 760.11 124.98 760.23 124.84 760.56 124.64 760.77 124.36 760.91 124.05 760.94 123.84 760.99 123.63 762 123.4 763.03 122.96 763.3 122.9 763.5 122.9 764.31 122.62 764.57 122.61 764.79 122.64 764.88 122.77 764.92 122.86 764.95 123.02 765.02 123.13 765.13 123.28 765.3 123.44 765.43 123.66 765.51 123.91 765.56 124.14 765.7 124.35 766.35 124.87 767.18 125.17 767.37 125.34 767.45 125.54 767.5 125.77 767.86 126.43 767.95 126.65 768.23 127.11 768.5 127.33 768.89 127.55 769.36 127.58 769.67 127.5 769.86 127.38 770.01 127.32 Z" id="PRT-743" data-name="Beja"/>
<path d="M 766.55 108.79 765.13 109.7 765.07 109.82 764.8 110.24 764.69 110.47 764.48 111.56 764.41 112.28 764.43 112.61 764.48 112.86 764.63 113.06 764.84 113.15 765.03 113.27 765.13 113.51 764.96 113.95 763.62 115.47 763.05 117.07 762.74 117.44 763.1 117.86 763.07 118.23 762.76 118.58 762.3 118.96 762.74 119.14 763.64 119.66 767.01 123.06 767.14 123.25 767.35 123.67 767.49 123.87 767.71 124.05 768.25 124.37 768.41 124.51 769.7 127.09 770.01 127.32 769.86 127.38 769.67 127.5 769.36 127.58 768.89 127.55 768.5 127.33 768.23 127.11 767.95 126.65 767.86 126.43 767.5 125.77 767.45 125.54 767.37 125.34 767.18 125.17 766.35 124.87 765.7 124.35 765.56 124.14 765.51 123.91 765.43 123.66 765.3 123.44 765.13 123.28 765.02 123.13 764.95 123.02 764.92 122.86 764.88 122.77 764.79 122.64 764.57 122.61 764.31 122.62 763.5 122.9 763.3 122.9 763.03 122.96 762 123.4 760.99 123.63 760.94 123.84 760.91 124.05 760.77 124.36 760.56 124.64 760.23 124.84 760.11 124.98 759.6 125.19 759.54 125.3 758.63 125.67 758.1 126.1 757.68 126.64 757.62 126.86 757.28 126.92 755.85 126.89 755.14 126.7 754.53 126.6 752.43 126.56 751.98 126.45 749.95 125.55 749.12 125.31 747.52 125.18 744.82 124.22 744.1 123.54 743.17 123.25 742.9 123.19 742.54 123.16 741.83 123.46 741.56 123.45 741.28 123.38 740.95 123.19 740.56 122.86 740.4 122.8 739.94 122.74 739.23 122.81 736.88 122.78 736.76 123.06 735.55 122.33 734.96 122.16 734.68 122.16 734.38 122.12 734.08 122.05 733.43 121.74 732.99 121.46 732.3 121.25 732.1 121.17 732.1 120.93 732.62 120.21 732.73 119.65 732.57 119.4 732.34 119.26 731.88 119.1 731.73 118.92 731.73 118.74 731.86 118.64 731.87 118.45 731.44 117.57 731.42 117.38 731.39 117.29 731.39 117.25 731.37 117.23 731.22 117.05 730.8 116.71 730.19 116.12 729.91 116.01 729.32 116.12 728.59 116.49 728.13 116.62 727.22 116.65 726.82 116.53 726.53 116.37 726.35 116.22 726.25 116.04 726.03 115.93 725.73 115.9 725.61 116.02 725.66 116.18 725.72 116.39 725.68 116.55 725.48 116.64 724.7 116.44 723.78 116.34 722.55 115.76 721.61 115.65 721.42 114.89 721.33 114.63 721.19 114.43 721.16 114.13 721.18 113.88 722.33 112.73 724.99 111.27 725.5 110.78 725.76 110.48 725.82 110.09 725.79 109.88 726.12 109.37 726.05 109.05 725.85 108.96 724.52 108.76 726.05 107.75 727.46 107.53 727.79 107.35 728.44 106.83 728.77 106.76 729.14 106.79 729.38 106.73 729.55 106.66 729.7 106.53 729.84 106.37 729.91 106.19 729.99 106.04 730.19 106.01 730.75 106.19 731.16 106.22 731.53 106.1 731.83 106.09 732.02 106.13 732.2 106.05 732.26 105.9 732.4 105.75 732.6 105.76 732.82 105.88 733.68 106.59 733.96 106.75 734.95 106.91 735.29 107.01 735.48 107.18 735.61 107.37 735.66 107.56 735.76 107.69 735.95 107.71 736.1 107.67 736.26 107.75 736.44 108.14 736.58 108.31 737.09 108.52 737.64 108.11 737.81 107.67 737.76 107.39 737.56 107.22 737.29 107.13 737.04 107.1 736.53 106.66 736.33 106.38 736.33 106.14 736.51 105.59 736.34 105.35 736.22 105.26 735.83 105.21 734.19 104.63 733.96 104.51 733.71 104.34 733.64 104.08 733.74 103.88 733.93 103.71 734.11 103.5 734.24 103.23 734.32 102.89 734.33 102.38 734.44 102.08 734.59 101.89 734.75 101.85 735.17 101.84 735.36 101.71 735.65 101.32 736.28 100.87 736.8 100.7 737.04 100.59 737.28 100.54 738.16 100.5 738.64 100.64 738.65 100.82 738.55 101.01 738.44 101.44 738.58 101.87 738.79 102.05 738.98 102 739.07 101.81 739.07 101.61 739.12 101.45 739.15 101.37 739.18 101.35 739.2 101.33 739.57 101.21 740.05 101.16 740.34 101.22 740.5 101.29 740.54 101.33 741.24 101.92 741.32 102.19 741.35 102.65 741.32 103.01 741.44 103.08 742.21 103.16 742.49 103.12 742.74 103.01 742.98 102.86 743.16 102.67 743.67 102.39 744.36 102.29 744.73 102.51 746.15 104.04 747.05 104.52 747.39 104.56 747.74 104.56 748.01 104.54 748.68 104.56 749.71 104.27 750.02 104.02 750.52 103.53 750.79 103.55 751.28 103.78 751.53 103.83 751.85 103.71 752.15 103.69 752.47 103.74 753.18 103.96 753.43 103.92 753.6 103.86 753.73 103.74 753.89 103.52 754.1 103.27 754.57 102.97 755.03 102.85 755.69 102.74 756.16 102.59 756.47 102.42 756.59 102.21 756.59 101.99 756.49 101.83 756.26 101.58 756.68 101.34 756.85 101.35 756.93 101.33 756.96 101.34 757.13 101.64 758.4 102.05 758.91 102.44 759.1 102.75 759.19 103.31 759.26 103.5 759.28 103.83 759.97 104.33 760.23 104.96 760.3 105.37 760.76 105.9 760.58 106.38 760.82 106.63 761.22 107.24 761.51 107.44 761.99 107.66 762.55 107.66 762.7 107.71 763.17 107.59 763.81 107.05 764.5 106.6 765.44 106.36 766.02 106.33 766.4 106.47 766.79 106.67 766.89 106.89 766.91 107.33 766.87 107.54 766.4 108.11 766.33 108.27 766.3 108.57 766.53 108.78 766.55 108.79 Z" id="PRT-744" data-name="Évora"/>
<path d="M 746.37 165.61 745.78 165.91 744.97 166.07 744.1 166.05 743.32 165.84 743.32 165.61 744.97 165.79 745.6 165.59 746.37 164.97 746.44 165.07 746.49 165.17 746.58 165.41 746.4 165.51 746.37 165.61 Z M 758.59 149.26 758.81 149.85 759 150.63 759.1 151.33 759.03 151.69 759.57 152.68 759.81 155.21 760.13 156.25 759.92 156.73 760.07 157.45 760.55 158.85 760.64 159.01 760.71 159.14 760.8 159.24 761 159.31 761 159.5 760.76 159.74 760.23 159.42 759.55 159.27 758.82 159.25 758.14 159.31 757.45 159.52 756.16 160.24 755.63 160.39 753.77 161.36 753.52 161.63 748.7 164.26 747.66 165.03 747.19 165.02 746.7 164.85 746.03 164.74 744.06 164.71 743.52 164.54 743.25 164.9 742.91 164.87 742.5 164.67 742.19 164.54 742.51 164.93 742.61 165.13 742.65 165.41 741.94 164.56 740.79 163.79 738.52 162.78 737.22 162.55 736.21 162.18 735.14 162.22 732.58 162.51 731.5 162.21 730.29 161.87 729.34 162.21 727.95 162.35 726.57 161.94 726.51 161.99 724.81 161.24 723.45 161.04 721.97 161.13 721.5 161.24 721.08 161.48 720.08 162.35 718.12 162.35 717.74 162.43 716.92 162.85 716.5 163 716.02 163.03 715.27 163.19 714.58 163.69 713.95 163.48 713.37 163.94 713.11 164.1 712.78 164.2 712.14 164.64 711.81 164.74 711.33 164.59 710.98 164.31 710.64 164.14 710.16 164.3 710.38 163.41 710.55 162.97 710.71 162.78 711.95 161.21 712.42 160.34 712.85 159.58 712.55 158.63 713.13 158.2 713.87 157.59 714.32 156.18 714.07 155.63 713.82 155.12 714.34 154.32 715.23 153.52 715.4 152.75 715.95 151.69 716.22 150.69 716.59 150.9 717.21 151.21 717.7 151.32 718.21 151.66 718.48 151.91 718.78 152.13 719.03 152.25 720.32 152.29 721.16 152.6 721.35 152.73 721.65 152.78 721.83 152.67 722 152.5 722.16 152.32 722.42 152.23 723.65 152.07 724.03 152.12 725.24 152.7 725.71 152.87 727.09 153.04 727.65 152.85 728.19 152.67 728.35 152.37 728.42 152.14 728.62 151.91 728.74 151.81 729.98 151.47 730.65 151.35 731.01 151.34 731.34 151.38 731.63 151.24 732.19 151.18 732.98 151.36 733.21 151.73 733.29 152.18 733.37 152.38 733.77 152.73 734.25 152.92 736.48 154.26 737.5 154.49 738.13 154.49 739.33 154.59 739.66 154.59 740.15 154.42 740.87 153.96 741.98 153.48 742.21 153.41 742.21 153.27 741.96 153 741.87 152.88 741.93 152.66 742.06 152.45 742.47 152.21 743.52 152.09 743.94 152.09 744.82 151.96 745.24 151.76 745.4 151.55 745.47 151.36 746.02 151.08 746.5 151.04 746.55 150.82 746.74 150.74 747 150.68 747.57 150.43 747.77 150.42 747.95 150.32 748.18 150.21 748.73 149.9 751.23 149.06 752.9 149.08 753.09 149.16 753.53 149.22 753.74 149.3 754.02 149.25 754.36 149.05 754.99 148.59 755.65 148.3 756.57 148.3 757.35 148.18 757.36 148.17 757.62 148.5 757.87 148.71 758.41 149.06 758.59 149.26 Z" fill-rule="evenodd" id="PRT-745" data-name="Faro"/>
<path d="M 708.36 106.66 707.77 107.13 707.56 107.07 707.82 106.51 708.14 106.05 708.5 105.75 708.7 105.62 708.79 105.56 708.97 105.47 708.99 105.67 708.78 106.15 708.36 106.66 Z M 711.97 106.03 711.5 106.41 711.49 106.8 712.06 107.34 712.17 107.48 712.3 107.69 712.54 108.42 712.27 108.41 711.92 108.49 711.92 108.29 711.6 107.87 711.23 107.24 711.04 106.58 711.27 106.1 710.53 106.14 710.2 105.63 710.01 104.85 709.73 104.1 711.08 101.86 711.9 100.86 713.01 100.19 713.65 100.07 715.01 99.98 715.61 99.78 716.77 99.1 716.77 99.1 716.77 99.1 716.82 99.28 716.75 99.39 716.56 99.48 715.91 100.08 714.73 100.35 714.83 100.63 715.17 100.84 714.55 101.56 714.4 101.89 714.09 102.21 713.77 102.75 712.67 105.08 712.19 105.78 711.97 106.03 Z M 702.16 91.26 702.58 91.31 702.74 91.28 702.96 91.38 703.2 91.64 703.47 92 704.19 93.93 704.71 94.31 705.38 93.89 706.01 93.3 706.75 92.3 707.43 91.68 707.74 91.51 707.96 91.43 708.33 91.4 708.79 91.46 709.39 91.67 710.28 91.83 710.66 92.59 710.6 93.06 712.8 93.56 714.08 93.26 714.34 93.72 715.93 94.95 715.49 95.27 714.99 95.38 714.03 95.34 713.66 95.44 713.19 95.69 713.19 95.89 713.34 96.05 713.6 96.16 713.82 96.29 714.05 96.7 714.21 96.9 715.13 97.55 715.33 97.67 715.99 97.88 716.2 98 716.33 98.13 716.46 98.29 716.72 98.72 715.3 99.54 712.55 99.78 712.14 100.05 711.52 100.96 709.98 102.69 708.22 105.44 707.24 106.32 706.9 106.75 706.7 107.27 706.78 107.88 706.84 108.93 706.97 109.69 706.51 110.44 704.9 110.84 703.09 111.09 701.02 110.93 700.44 111.28 699.86 111.84 698.62 111.23 697.21 110.76 696.44 110.66 695.09 110.81 694.45 110.65 694.46 110.01 694.67 109.47 694.27 108.09 694.27 107.4 694.44 107.1 694.82 106.73 695.6 106.11 696.64 103.53 696.56 101.61 696.2 100.41 696.52 99.7 696.65 98.85 697.89 97.08 698.28 96.23 698.93 95.07 699.06 93.86 699.26 92.86 699.03 92.04 699.33 92.02 700.56 92.02 701.9 91.4 702.16 91.26 Z" fill-rule="evenodd" id="PRT-746" data-name="Lisboa"/>
<path d="M 756.05 79.8 756.29 80.24 757.32 82.45 757.89 82.86 758.84 83.84 759.37 84.23 760.45 84.67 760.72 84.94 761.02 85.64 761.51 85.95 762.19 86.2 763.52 86.47 763.76 86.79 763.75 87.47 763.59 88.2 763.34 88.66 763.17 89.11 763.19 89.81 763.34 90.49 763.57 90.86 764.17 91.23 765.75 92.74 765.32 93.32 765.28 93.99 765.52 94.62 765.97 95.12 766.75 95.47 767.64 95.65 768.39 95.92 768.78 96.53 768.71 96.85 768.36 97.47 768.4 97.74 768.73 97.99 769.2 98.18 769.68 98.25 770.07 98.13 770.83 97.77 771.67 97.7 772.5 97.87 773.23 98.27 773.74 98.65 774.19 99.22 774.39 99.85 774.17 100.39 774.53 100.61 774.58 100.9 774.41 101.23 774.1 101.55 773.03 103.16 772.32 103.94 771.63 104.38 772.07 105.01 771.91 105.5 771.95 105.96 771.69 106.08 771.3 106.34 770.91 106.65 770.4 106.85 768.93 107.1 768.62 107.3 768.45 107.6 768.01 108 767.48 108.35 767 108.49 766.55 108.79 766.53 108.78 766.3 108.57 766.33 108.27 766.4 108.11 766.87 107.54 766.91 107.33 766.89 106.89 766.79 106.67 766.4 106.47 766.02 106.33 765.44 106.36 764.5 106.6 763.81 107.05 763.17 107.59 762.7 107.71 762.55 107.66 761.99 107.66 761.51 107.44 761.22 107.24 760.82 106.63 760.58 106.38 760.76 105.9 760.3 105.37 760.23 104.96 759.97 104.33 759.28 103.83 759.26 103.5 759.19 103.31 759.1 102.75 758.91 102.44 758.4 102.05 757.13 101.64 756.96 101.34 756.93 101.33 756.85 101.35 756.68 101.34 756.26 101.58 756.49 101.83 756.59 101.99 756.59 102.21 756.47 102.42 756.16 102.59 755.69 102.74 755.03 102.85 754.57 102.97 754.1 103.27 753.89 103.52 753.73 103.74 753.6 103.86 753.43 103.92 753.18 103.96 752.47 103.74 752.15 103.69 751.85 103.71 751.53 103.83 751.28 103.78 750.79 103.55 750.52 103.53 750.02 104.02 749.71 104.27 748.68 104.56 748.01 104.54 747.74 104.56 747.39 104.56 747.05 104.52 746.15 104.04 744.73 102.51 744.36 102.29 743.67 102.39 743.16 102.67 742.98 102.86 742.74 103.01 742.49 103.12 742.21 103.16 741.44 103.08 741.32 103.01 741.35 102.65 741.32 102.19 741.24 101.92 740.54 101.33 740.5 101.29 740.34 101.22 740.05 101.16 739.57 101.21 739.2 101.33 739.18 101.35 739.15 101.37 739.12 101.45 739.07 101.61 739.07 101.81 738.98 102 738.79 102.05 738.58 101.87 738.44 101.44 738.55 101.01 738.65 100.82 738.64 100.64 738.16 100.5 737.28 100.54 737.04 100.59 736.8 100.7 736.28 100.87 735.65 101.32 734.23 100.96 733.81 100.67 733.75 100.44 733.63 100.19 733.42 99.85 733.07 99.62 732.88 99.37 732.76 99.13 732.65 98.81 732.37 98.59 732.03 98.41 731.28 98.14 731.3 97.63 732.22 96.48 732.65 96.13 734.41 95.16 736.29 93.8 737.06 93.32 737.4 92.65 737.81 92.34 738.12 92.27 738.74 92.36 739.2 92.27 739.42 92.11 739.57 91.98 739.7 91.81 740.45 91.11 740.9 90.56 741.05 90.32 741.15 89.9 741.37 89.74 742.9 88.93 743.53 88.15 743.49 87.95 743.35 87.73 742.84 87.45 741.59 86.43 742.26 85.04 742.93 84.26 743.51 83.86 743.93 83.74 744.53 83.86 745.83 84.41 746.27 84.73 746.31 84.79 746.48 84.73 746.62 84.63 747.24 84.05 747.44 83.93 748.13 83.62 748.59 83.24 749.05 82.74 749.56 82.3 750.18 82.12 750.39 81.9 750.69 81.4 751.08 80.88 751.6 80.58 752.33 80.62 752.87 80.85 753.41 80.91 754.12 80.48 754.54 80.16 755.09 79.88 755.72 79.7 756.04 79.8 756.05 79.8 Z" id="PRT-747" data-name="Portalegre"/>
<path d="M 733.03 76.06 733.22 76.55 733.53 76.71 733.96 76.79 734.32 76.92 734.52 77.09 734.64 77.27 734.67 77.42 734.68 77.6 734.66 77.75 734.71 78.34 734.49 78.63 734.49 79.23 734.62 80.36 734.91 80.78 736.67 81.31 737.48 81.74 738.16 81.76 739.27 81.68 739.96 81.48 739.95 81.31 739.9 81.11 739.67 80.61 739.66 80.27 739.81 79.86 740.05 79.54 740.42 77.91 740.58 77.68 741.24 77.58 742.25 77.86 743.03 77.87 743.21 78.01 743.31 78.21 743.37 78.44 743.38 78.68 743.44 78.91 743.46 79.39 743.42 79.88 743.5 80.15 743.71 80.24 744.06 80.31 744.45 80.35 745.09 80.53 745.56 80.83 746.15 81.11 746.81 81.71 747.47 82.52 747.6 82.75 747.84 83.31 748.13 83.62 747.44 83.93 747.24 84.05 746.62 84.63 746.48 84.73 746.31 84.79 746.27 84.73 745.83 84.41 744.53 83.86 743.93 83.74 743.51 83.86 742.93 84.26 742.26 85.04 741.59 86.43 742.84 87.45 743.35 87.73 743.49 87.95 743.53 88.15 742.9 88.93 741.37 89.74 741.15 89.9 741.05 90.32 740.9 90.56 740.45 91.11 739.7 91.81 739.57 91.98 739.42 92.11 739.2 92.27 738.74 92.36 738.12 92.27 737.81 92.34 737.4 92.65 737.06 93.32 736.29 93.8 734.41 95.16 732.65 96.13 732.22 96.48 731.3 97.63 731.28 98.14 732.03 98.41 732.37 98.59 732.65 98.81 732.76 99.13 732.88 99.37 733.07 99.62 733.42 99.85 733.63 100.19 733.75 100.44 733.81 100.67 734.23 100.96 735.65 101.32 735.36 101.71 735.17 101.84 734.75 101.85 734.59 101.89 734.44 102.08 734.33 102.38 734.32 102.89 734.24 103.23 734.11 103.5 733.93 103.71 733.74 103.88 733.64 104.08 733.71 104.34 733.96 104.51 734.19 104.63 735.83 105.21 736.22 105.26 736.34 105.35 736.51 105.59 736.33 106.14 736.33 106.38 736.53 106.66 737.04 107.1 737.29 107.13 737.56 107.22 737.76 107.39 737.81 107.67 737.64 108.11 737.09 108.52 736.58 108.31 736.44 108.14 736.26 107.75 736.1 107.67 735.95 107.71 735.76 107.69 735.66 107.56 735.61 107.37 735.48 107.18 735.29 107.01 734.95 106.91 733.96 106.75 733.68 106.59 732.82 105.88 732.6 105.76 732.4 105.75 732.26 105.9 732.2 106.05 732.02 106.13 731.83 106.09 731.53 106.1 731.16 106.22 730.75 106.19 730.19 106.01 729.99 106.04 729.91 106.19 729.84 106.37 729.7 106.53 729.55 106.66 729.38 106.73 729.14 106.79 728.77 106.76 728.44 106.83 727.79 107.35 727.46 107.53 726.05 107.75 724.52 108.76 723.69 108.65 723.4 108.66 723.04 108.59 722.68 108.23 722.63 107.97 722.64 107.69 722.69 107.45 722.7 107.21 722.75 106.97 722.74 106.82 722.57 106.74 722.04 106.94 721.43 107.22 720.55 106.97 720.18 106.78 719.99 106.65 719.75 106.55 719.54 106.62 718.61 108.05 718.23 108.93 718.15 109.19 717.67 109.68 717.13 109.82 716.92 109.8 716.02 109.55 715.72 109.24 715.48 109.15 715.12 109.1 714.58 109.22 714.25 109.36 713.6 109.57 713.23 109.6 712.92 109.52 712.66 109.3 712.5 108.82 712.54 108.42 712.3 107.69 712.17 107.48 712.06 107.34 711.49 106.8 711.5 106.41 711.97 106.03 712.19 105.78 712.67 105.08 713.77 102.75 714.09 102.21 714.4 101.89 714.55 101.56 715.17 100.84 714.83 100.63 714.73 100.35 715.91 100.08 716.56 99.48 716.75 99.39 716.82 99.28 716.77 99.1 716.77 99.1 717.27 98.69 717.57 98.24 716.72 98.72 716.72 98.72 716.46 98.29 716.33 98.13 716.2 98 715.99 97.88 715.33 97.67 715.13 97.55 714.21 96.9 714.05 96.7 713.82 96.29 713.6 96.16 713.34 96.05 713.19 95.89 713.19 95.69 713.66 95.44 714.03 95.34 714.99 95.38 715.49 95.27 715.93 94.95 714.34 93.72 714.08 93.26 712.8 93.56 710.6 93.06 710.66 92.59 710.28 91.83 710.19 90.8 710 90.23 710.14 89.85 710.83 88.93 711.45 88.81 711.72 88.67 712.01 88.35 713.02 86.72 713.45 86.37 714.39 86.09 716.47 85.96 718.01 86.09 718.47 85.84 718.54 85.6 718.59 85.49 718.59 85.43 718.53 85.36 718.32 85.01 718.27 84.76 718.3 84.54 718.44 84.4 718.68 84.41 718.92 84.5 719.24 84.49 719.5 84.43 720.32 83.61 720.52 83.37 720.15 82.52 720.1 81.93 719.81 80.93 720.5 80.5 720.79 80.37 721.05 80.22 721.29 80.03 721.41 79.75 721.29 79.24 721.04 78.99 720.77 78.82 720.56 78.66 720.47 78.41 720.47 78.04 720.39 77.47 720.38 77.22 720.56 76.95 720.73 76.74 722.19 76.24 722.77 76.36 723.16 76.3 723.74 76.07 725.29 75.2 725.72 75.09 726.02 75.08 726.44 74.82 726.93 74.7 727.37 76.04 727.44 76.38 727.66 77.14 727.71 77.39 727.78 77.58 727.82 77.73 728.4 77.58 729.72 77.21 730.12 77.13 730.82 76.89 731.44 76.96 731.6 76.89 731.5 76.27 731.43 76.04 731.47 75.88 731.7 75.96 733.03 76.06 Z" id="PRT-748" data-name="Santarém"/>
<path d="M 742.69 25.93 742.58 26.25 742.52 26.38 742.41 26.54 742.26 26.65 742.09 26.74 741.86 26.89 741.74 27 741.57 27.13 741.33 27.28 741.1 27.36 740.76 27.37 740.4 27.14 739.72 26.85 739.37 26.92 738.36 26.58 737.22 25.94 737.29 25.65 737.16 25.46 736.51 24.96 734.94 24.52 734.46 25.06 733.83 25.41 732.85 25.77 732.62 25.81 731.87 26.03 731.66 26.04 731.23 25.8 730.97 25.73 729.66 25.87 728.69 26.06 727.89 25.97 727.67 25.85 727.42 25.74 727.03 25.75 726.49 25.85 725.89 26.12 725.64 26.26 725.41 26.42 725.14 26.47 724.9 26.53 723.11 26.53 722.8 26.58 722.69 26.59 722.46 26.49 722.28 26.26 722.15 25.84 722.11 25.59 722.34 25.35 722.65 25.28 722.83 25.21 722.94 25.04 722.82 24.85 722.51 24.63 722.15 24.56 721.71 24.36 721.15 23.94 720.96 23.76 720.69 23.58 720.37 23.49 719.58 23.47 718.76 23.18 718 22.84 717.25 22.83 717.26 22.81 716.89 22.08 716.83 21.42 716.69 20.98 716.6 20.44 716.19 19.48 716.05 18.76 715.84 18.24 715.83 18.05 715.98 18.06 716.6 18.14 716.91 18.11 719.24 17.47 720.87 17.42 721.14 17.37 721.39 17.22 721.5 17.08 721.65 17 721.91 17.13 722.86 17.39 723.49 17.47 723.84 17.62 724.14 17.68 724.35 17.7 724.91 16.95 724.76 16.6 724.83 16.42 724.98 16.2 725.27 15.99 725.37 15.77 725.43 15.54 725.49 15.05 725.55 14.81 725.65 14.57 725.91 14.36 726.07 14.28 726.33 14.23 726.59 14.28 726.84 14.29 727.38 14.12 727.94 13.77 728.18 13.65 728.62 13.51 729.1 13.44 731.89 13.34 732.66 13.12 735.68 11.89 736.07 11.89 736.19 11.86 736.21 11.85 736.2 11.91 738.94 12.04 740.31 11.74 740.39 11.81 740.4 11.97 740.34 12.16 740.17 12.35 740.02 12.57 739.79 13.48 739.5 13.88 739.22 14.55 739.04 14.85 738.89 15.05 738.16 15.68 738.6 15.69 739 15.64 739.2 15.58 739.43 15.55 739.68 15.56 739.96 15.59 740.19 15.57 740.8 15.36 741.01 15.37 741.22 15.45 742.04 15.84 742.21 15.95 742.29 16.14 742.16 16.53 742.09 16.84 741.96 18.26 742.61 18.47 742.96 18.52 743.28 18.65 743.58 18.73 744.81 18.93 745.21 18.94 746.16 18.74 746.82 18.18 747.14 18.31 747.31 18.44 747.85 19.17 747.77 19.54 746.5 20.98 746.12 21.3 745.52 21.51 745.41 21.6 745.25 21.98 744.91 22.22 744.67 22.16 744.51 22.18 744.35 22.26 744.05 22.57 743.76 23.32 743.9 23.56 743.87 23.72 743.76 23.95 743.3 24.53 743.21 24.76 743.06 24.84 742.96 24.87 742.89 24.98 742.96 25.2 742.97 25.37 742.69 25.93 Z" id="PRT-749" data-name="Braga"/>
<path d="M 774.26 7.07 774.7 7.23 775.48 7.69 776.37 7.83 778.35 7.7 779.1 7.35 779.3 6.4 780.28 6.53 781.44 7.87 782.39 8.09 784.66 8.02 785.74 7.77 786.16 7.09 786.93 7.33 787.36 7.71 787.49 8.24 787.23 9.61 787.48 9.84 788.05 9.9 788.87 10.11 788.51 10.71 787.73 13.31 787.6 13.6 787.37 13.87 787.18 14.17 787.28 14.45 787.49 14.72 787.64 15.02 787.72 15.61 787.88 16.23 788.32 16.74 789.22 17 789.55 16.93 790.02 16.75 790.46 16.52 790.67 16.32 790.89 16.18 791.33 16.19 793.91 16.59 795.46 17.02 796.89 17.72 798.23 18.78 798.68 19.25 799 19.56 797.48 21.24 796.66 21.89 796.46 22.22 796.48 22.47 796.56 22.68 796.55 22.89 795.34 24.36 795.33 24.63 794.34 24.69 793.9 24.82 793.49 25.07 793.58 25.08 793.6 25.27 793.57 25.52 793.49 25.7 793.36 25.73 792.97 25.67 792.84 25.7 791.84 26.92 790.82 27.71 790.21 28.07 789.78 28.32 787.91 28.94 787.62 29.09 785.54 29.12 784.98 29.19 784.61 29.5 783.48 30.79 783.24 31.27 783.06 31.52 781.94 32.25 781.52 32.65 781.4 32.88 781.48 33.67 781.22 34.24 779.96 35.66 779.52 35.99 778.66 36.06 776.7 35.92 776.04 36.18 776.02 36.17 775.5 36.08 774.14 36.03 771.34 34.95 770.99 34.61 770.74 34.18 770.58 33.76 770.62 33.48 770.76 33.19 770.78 32.96 770.48 32.87 770.25 32.84 770.04 32.74 769.86 32.61 769.72 32.48 769.86 32.27 770.15 31.59 769.83 31.71 768.61 32.36 768.32 32.69 767.68 32.7 766.65 32.48 764.17 32.64 763.35 32.69 762.29 32.42 761.89 32.15 760.94 31.11 760.45 30.84 759.98 30.84 760.17 30.41 760.23 30.26 760.36 30.08 760.66 29.98 761.11 29.93 761.23 29.87 761.18 29.7 761.16 29.49 761.18 29.22 761.31 28.81 761.6 28.52 761.91 28.26 761.98 28.12 761.92 27.93 761.98 27.6 762.54 27.15 763.63 26.88 762.88 26.54 762.61 26.3 762.39 25.86 762.2 25.22 762.21 23.65 763.25 23.05 763.54 22.97 763.81 22.84 764.08 22.57 764.32 22.07 764.69 21.53 764.99 21.26 765.31 21.16 765.6 21.15 765.88 21.09 766.11 21 766.22 20.83 766.17 20.64 766.04 20.42 765.87 20.21 765.72 20 765.61 19.74 765.57 19.32 765.7 18.48 766.73 15.82 767.53 14.56 767.8 14.37 767.99 14.29 768.16 14.11 768.24 13.93 768.23 13.49 768.2 13.23 767.62 12.63 767.34 12.05 767.24 11.74 767.17 11.17 767.24 10.53 767.32 10.2 767.13 9.58 767.07 9.42 767.44 9.02 767.51 8.52 767.3 7.49 767.37 7.04 767.61 6.86 768.09 6.58 768.65 6.34 769.11 6.29 770.13 6.77 771.1 7.39 772.1 7.73 773.23 7.36 773.98 6.96 774.26 7.07 Z" id="PRT-750" data-name="Bragança"/>
<path d="M 775.58 61.41 775.18 61.47 773.8 62.15 773.23 62.35 772.95 62.65 772.63 63.38 772.36 63.76 772.63 64.22 772.85 65.31 773.23 65.74 773.62 65.83 774.46 65.92 774.8 66.02 775.14 66.25 775.58 66.78 776.28 67.46 777.56 69.24 777.01 69.94 776.86 70.28 776.92 70.62 776.8 70.91 776.61 71.69 776.52 71.82 776.21 72 776.11 72.14 776.12 72.32 776.23 72.64 776.22 72.8 776.17 73.08 776.14 73.61 776.04 73.92 775.23 74.85 774.93 74.98 774.2 75.22 773.96 75.38 773.73 75.81 773.77 76.15 773.91 76.45 773.96 76.71 773.84 77.01 773.46 77.54 773.31 77.83 773.3 78.13 773.39 78.35 773.43 78.58 773.06 79.26 772.6 79.42 767.91 79.87 766.92 79.83 766.23 79.5 765.69 79.64 764.42 79.6 763.82 79.7 763.3 79.88 762.87 79.97 756 79.72 756.05 79.8 756.04 79.8 755.72 79.7 755.09 79.88 754.54 80.16 754.12 80.48 753.41 80.91 752.87 80.85 752.33 80.62 751.6 80.58 751.08 80.88 750.69 81.4 750.39 81.9 750.18 82.12 749.56 82.3 749.05 82.74 748.59 83.24 748.13 83.62 747.84 83.31 747.6 82.75 747.47 82.52 746.81 81.71 746.15 81.11 745.56 80.83 745.09 80.53 744.45 80.35 744.06 80.31 743.71 80.24 743.5 80.15 743.42 79.88 743.46 79.39 743.44 78.91 743.38 78.68 743.37 78.44 743.31 78.21 743.21 78.01 743.03 77.87 742.25 77.86 741.24 77.58 740.58 77.68 740.42 77.91 740.05 79.54 739.81 79.86 739.66 80.27 739.67 80.61 739.9 81.11 739.95 81.31 739.96 81.48 739.27 81.68 738.16 81.76 737.48 81.74 736.67 81.31 734.91 80.78 734.62 80.36 734.49 79.23 734.49 78.63 734.71 78.34 734.66 77.75 734.68 77.6 734.67 77.42 734.64 77.27 734.52 77.09 734.32 76.92 733.96 76.79 733.53 76.71 733.22 76.55 733.03 76.06 732.87 75.7 732.87 75.55 733.11 75.27 733.31 75.14 733.32 74.95 733.31 74.79 733.48 74.6 733.65 74.47 735.06 74.13 735.37 74.16 735.56 74.03 735.82 73.76 736.1 73.51 736.4 73.41 736.66 73.36 736.96 73.21 737.28 72.98 737.89 72.03 738.4 71.64 738.48 71.45 738.71 71.32 738.86 71.27 739.29 71.22 739.64 70.9 740.36 70.76 740.89 70.77 741 70.64 741.05 70.49 741.1 70.31 741.26 70.27 741.72 70.24 741.89 70.09 742.05 70.03 742.33 69.98 742.55 69.99 742.74 70.05 742.88 70.11 743.04 70.02 743.45 69.55 743.68 69.43 743.93 69.39 744.55 69.38 744.85 69.22 744.9 69.06 744.76 68.62 744.87 68.36 745.26 68.04 746.01 67.74 746.46 67.69 746.85 67.68 747.14 67.74 747.43 67.83 748.05 68.23 748.14 67.6 748.09 67.06 748.25 66.88 748.4 66.8 748.56 66.82 748.61 66.93 748.73 67.05 748.95 67.1 749.27 67.06 749.91 66.73 750.18 66.52 750.3 66.35 750.33 66.17 750.31 65.98 750.28 65.77 750.13 65.44 749.25 64.98 748.72 64.47 748.39 64.25 748.23 64.03 748.06 63.64 748.16 63.39 748.85 62.14 749.46 61.94 750 61.89 750.38 61.76 751.58 61.08 752.44 60.79 753.27 60.4 753.96 59.84 754.58 59.13 755.38 59.37 756.45 59.2 756.75 59 756.97 58.78 757.2 58.35 757.26 58.12 757.7 57.54 759.3 56.37 760.55 57.17 761.29 57.35 761.65 57.31 762.67 57.1 763.36 56.49 763.62 56.46 763.94 56.39 764.49 56.34 764.73 56.36 765.11 56.49 764.83 58.38 764.43 59.21 764.19 59.46 763.92 59.68 763.59 60.02 763.51 60.26 763.54 60.45 763.66 60.54 763.88 60.63 764.08 60.67 764.41 60.77 765.08 60.89 765.89 61.02 767.32 60.62 768.84 60.62 769.25 60.51 769.48 60.32 769.54 60.1 769.69 59.84 769.88 59.61 770.23 59.37 770.44 59.42 770.62 59.57 770.74 59.79 771.05 60.22 771.33 60.42 772.06 60.53 772.79 60.5 773.3 60.39 773.63 60.41 773.81 60.44 774.61 60.75 775.1 61.01 775.43 61.29 775.56 61.4 775.58 61.41 Z" id="PRT-751" data-name="Castelo Branco"/>
<path d="M 730.77 57.69 731.14 57.8 731.44 58 732.42 58.21 733.17 58.61 733.67 58.95 734.17 59.14 734.42 59.32 734.62 59.33 734.7 59.24 734.78 59.1 734.8 58.95 734.88 58.81 735.02 58.72 736.36 58.52 738.22 58.74 740.63 57.38 742.35 56.83 743.74 56.08 744.31 55.84 745.07 54.93 746.15 54.3 746.51 53.99 746.84 53.82 747.49 53.69 747.82 54.41 748.03 54.53 748.21 54.76 748.25 54.99 748.12 55.28 747.93 55.49 747.67 55.6 747.39 55.68 747.18 55.83 747.08 56.04 747.3 56.36 747.58 56.5 748.13 56.59 748.31 56.73 748.28 57.02 748.54 58.17 748.75 58.41 749.22 58.72 749.32 58.9 749.23 59.11 748.51 59.5 748.24 59.76 748.01 60.09 747.85 60.58 747.49 61.21 748.36 61.59 748.85 62.14 748.16 63.39 748.06 63.64 748.23 64.03 748.39 64.25 748.72 64.47 749.25 64.98 750.13 65.44 750.28 65.77 750.31 65.98 750.33 66.17 750.3 66.35 750.18 66.52 749.91 66.73 749.27 67.06 748.95 67.1 748.73 67.05 748.61 66.93 748.56 66.82 748.4 66.8 748.25 66.88 748.09 67.06 748.14 67.6 748.05 68.23 747.43 67.83 747.14 67.74 746.85 67.68 746.46 67.69 746.01 67.74 745.26 68.04 744.87 68.36 744.76 68.62 744.9 69.06 744.85 69.22 744.55 69.38 743.93 69.39 743.68 69.43 743.45 69.55 743.04 70.02 742.88 70.11 742.74 70.05 742.55 69.99 742.33 69.98 742.05 70.03 741.89 70.09 741.72 70.24 741.26 70.27 741.1 70.31 741.05 70.49 741 70.64 740.89 70.77 740.36 70.76 739.64 70.9 739.29 71.22 738.86 71.27 738.71 71.32 738.48 71.45 738.4 71.64 737.89 72.03 738 71.64 737.97 71.6 737.91 71.47 737.83 71.31 737.98 70.98 738.12 70.85 738.48 70.63 737.16 68.99 737.06 68.44 737.29 67.54 737.17 67.34 736.97 67.1 736.77 66.97 736.36 66.78 735.38 67.77 734.43 67.49 733.08 68.43 732.59 69.02 732.61 69.21 732.67 69.44 732.77 69.55 733.15 69.83 733.29 70.01 733.22 70.28 733.03 70.43 732.76 70.46 732.25 70.28 731.92 70.32 730.81 71.29 729.51 71.67 729.25 71.67 729.03 71.62 729.18 71.51 729.42 71.39 729.59 71.18 729.65 70.91 729.52 70.49 729.21 69.88 728.78 69.2 728.55 69.05 728.27 69.02 728.21 69.18 727.57 69.14 726.53 69.83 725.68 70.22 725.1 70.78 724.88 70.93 724.72 70.82 724.6 70.64 724.55 70.4 724.55 69.9 724.5 69.6 724.29 68.89 724.09 68.71 723.86 68.64 723.67 68.63 723.43 68.64 723.2 68.73 722.99 68.86 722.5 69.5 722.4 69.56 722.23 69.63 721.9 69.64 721.68 69.59 721.58 69.53 721.29 69.19 720.75 68.82 720.37 68.63 719.7 68.5 719.08 68.46 717.45 68.34 716.66 68.61 716.28 68.82 715.97 68.86 714.94 68.69 714.5 68.52 714.21 68.37 713.39 68.08 713.2 68.02 713.2 68.02 714.29 65.56 714.76 65.1 715.13 65.52 715.66 65.71 716.94 65.75 716.94 65.51 716.42 65.14 715.94 64.86 715.39 64.7 713.93 64.56 713.39 64.29 713.07 63.82 713.01 63.14 713.41 62.25 714.38 60.76 716.5 54.43 716.84 52.89 716.91 52.95 720.42 55.7 721.48 55.79 721.74 55.46 721.85 54.94 722.54 54.13 723.76 54.77 723.56 55.55 723.59 55.86 723.69 56.43 723.92 56.66 724.18 56.72 724.46 56.62 724.98 56.36 725.48 56.19 725.85 56.16 726.02 56.8 726.38 57.32 726.43 57.55 726.4 57.75 726.24 58.22 726.18 58.31 726.04 58.4 725.94 58.45 725.77 58.58 725.6 58.79 725.34 59.27 725.26 59.6 725.25 59.89 725.29 60.08 725.51 60.29 727.37 60.44 727.6 60.3 727.89 60.09 728.04 59.79 728.76 59.08 728.94 58.82 729.21 58.59 729.44 58.54 730.13 58.57 730.51 58.19 730.49 57.92 730.77 57.69 Z" id="PRT-752" data-name="Coimbra"/>
<path d="M 776.04 36.18 776.03 36.18 775.9 36.78 775.56 37.2 775.63 37.6 775.94 37.96 776.94 38.77 777.39 39.33 778.07 40.63 778.34 41.3 778.6 41.56 779.08 41.66 779.42 41.84 779.58 42.26 779.45 42.66 778.93 42.79 778.89 43.6 778.93 43.81 779.03 44.14 779 44.32 778.91 44.49 778.85 44.81 778.85 45.42 778.92 45.88 779.32 46.91 779.58 47.98 779.64 48.55 779.64 48.93 779.42 49.48 778.68 50.51 778.49 51 778.56 51.56 778.83 51.88 779.19 52.17 779.52 52.6 779.7 53.15 779.61 53.54 778.87 54.34 778.28 55.46 778.47 56.5 779.2 57.42 780.27 58.19 779.72 58.95 779.44 59.18 778.06 59.95 777.86 60.12 777.75 60.37 777.73 60.64 777.71 60.9 777.61 61.09 777.03 61.4 776.41 61.43 775.79 61.39 775.58 61.41 775.56 61.4 775.43 61.29 775.1 61.01 774.61 60.75 773.81 60.44 773.63 60.41 773.3 60.39 772.79 60.5 772.06 60.53 771.33 60.42 771.05 60.22 770.74 59.79 770.62 59.57 770.44 59.42 770.23 59.37 769.88 59.61 769.69 59.84 769.54 60.1 769.48 60.32 769.25 60.51 768.84 60.62 767.32 60.62 765.89 61.02 765.08 60.89 764.41 60.77 764.08 60.67 763.88 60.63 763.66 60.54 763.54 60.45 763.51 60.26 763.59 60.02 763.92 59.68 764.19 59.46 764.43 59.21 764.83 58.38 765.11 56.49 764.73 56.36 764.49 56.34 763.94 56.39 763.62 56.46 763.36 56.49 762.67 57.1 761.65 57.31 761.29 57.35 760.55 57.17 759.3 56.37 757.7 57.54 757.26 58.12 757.2 58.35 756.97 58.78 756.75 59 756.45 59.2 755.38 59.37 754.58 59.13 753.96 59.84 753.27 60.4 752.44 60.79 751.58 61.08 750.38 61.76 750 61.89 749.46 61.94 748.85 62.14 748.36 61.59 747.49 61.21 747.85 60.58 748.01 60.09 748.24 59.76 748.51 59.5 749.23 59.11 749.32 58.9 749.22 58.72 748.75 58.41 748.54 58.17 748.28 57.02 748.31 56.73 748.13 56.59 747.58 56.5 747.3 56.36 747.08 56.04 747.18 55.83 747.39 55.68 747.67 55.6 747.93 55.49 748.12 55.28 748.25 54.99 748.21 54.76 748.03 54.53 747.82 54.41 747.49 53.69 747.81 53.44 748.76 53.33 749.09 53.25 749.94 52.79 750.88 52.55 751.88 51.98 753.23 51.59 755.35 51.32 755.22 50.67 755.97 48.9 756.41 48.51 756.55 47.72 756.01 47.16 755.3 46.81 754.98 46.34 755.34 46 755.41 45.82 755.42 45.59 755.31 45.38 755.15 45.18 754.35 44.7 754.09 44.45 754.05 44.22 754.15 44.01 754.52 43.63 754.87 43.13 755.23 42.26 755.37 42.12 755.61 41.93 755.98 41.79 756.77 41.84 757.09 41.93 757.56 42.22 758.63 43.1 758.82 43.22 759.05 43.43 759.56 43.45 759.88 43.1 760.61 41.83 760.64 41.48 760.54 41.17 760.4 40.98 760.26 40.34 760.65 40.18 761.87 40.39 762.87 39.69 763.15 39.14 763.16 38.8 763.1 38.55 762.93 38.36 762.67 38.27 762.37 38.13 762.1 37.95 761.87 37.58 761.85 37.4 761.94 37.26 762.71 37.29 763.12 37.08 762.96 36.23 763.07 35.63 763.36 34.7 764.17 32.64 766.65 32.48 767.68 32.7 768.32 32.69 768.61 32.36 769.83 31.71 770.15 31.59 769.86 32.27 769.72 32.48 769.86 32.61 770.04 32.74 770.25 32.84 770.48 32.87 770.78 32.96 770.76 33.19 770.62 33.48 770.58 33.76 770.74 34.18 770.99 34.61 771.34 34.95 774.14 36.03 775.5 36.08 776.02 36.17 776.04 36.18 Z" id="PRT-753" data-name="Guarda"/>
<path d="M 742.69 25.93 743.22 26.44 743.19 26.72 743.24 27 743.47 27.26 743.93 27.45 744.8 27.95 744.66 28.36 744.8 28.83 745.33 29.57 745.74 29.8 745.88 29.86 745.43 31.13 745.38 31.9 745.22 32.64 743.82 33.32 739.94 34.34 739.04 34.41 735.86 34.24 734.82 34.42 732.68 35.05 732.55 35.4 732.44 35.49 730.9 36.31 730.27 36.14 729.43 36.45 729.4 36.61 729.43 36.81 729.58 36.99 729.62 37.19 729.52 37.33 729.26 37.33 728.69 36.99 728.45 36.64 728.31 36.46 727.65 35.94 727.09 36.42 726.95 36.6 726.74 37.03 726.5 37.16 726.18 37.18 725.72 37 725.46 36.81 725.17 36.68 724.79 36.69 724.3 36.95 723.28 37.23 722.76 36.97 721.37 37.11 721.07 37.18 721.07 37.18 721.06 36.74 720.69 34.6 720.72 33.48 721.28 33.04 721.28 32.85 720.09 32.63 719.48 31.76 719.06 30.66 718.46 29.76 718.61 29.34 718.54 28.99 718.37 28.64 718.22 28.24 718.23 27.27 718.08 26.96 717.85 26.87 717.72 26.54 717.6 26.21 717.15 25.64 716.97 25.18 716.97 24.79 716.92 23.87 717.25 22.83 718 22.84 718.76 23.18 719.58 23.47 720.37 23.49 720.69 23.58 720.96 23.76 721.15 23.94 721.71 24.36 722.15 24.56 722.51 24.63 722.82 24.85 722.94 25.04 722.83 25.21 722.65 25.28 722.34 25.35 722.11 25.59 722.15 25.84 722.28 26.26 722.46 26.49 722.69 26.59 722.8 26.58 723.11 26.53 724.9 26.53 725.14 26.47 725.41 26.42 725.64 26.26 725.89 26.12 726.49 25.85 727.03 25.75 727.42 25.74 727.67 25.85 727.89 25.97 728.69 26.06 729.66 25.87 730.97 25.73 731.23 25.8 731.66 26.04 731.87 26.03 732.62 25.81 732.85 25.77 733.83 25.41 734.46 25.06 734.94 24.52 736.51 24.96 737.16 25.46 737.29 25.65 737.22 25.94 738.36 26.58 739.37 26.92 739.72 26.85 740.4 27.14 740.76 27.37 741.1 27.36 741.33 27.28 741.57 27.13 741.74 27 741.86 26.89 742.09 26.74 742.26 26.65 742.41 26.54 742.52 26.38 742.58 26.25 742.69 25.93 Z" id="PRT-754" data-name="Porto"/>
<path d="M 764.17 32.64 763.36 34.7 763.07 35.63 762.96 36.23 763.12 37.08 762.71 37.29 761.94 37.26 761.85 37.4 761.87 37.58 762.1 37.95 762.37 38.13 762.67 38.27 762.93 38.36 763.1 38.55 763.16 38.8 763.15 39.14 762.87 39.69 761.87 40.39 760.65 40.18 760.26 40.34 760.4 40.98 760.54 41.17 760.64 41.48 760.61 41.83 759.88 43.1 759.56 43.45 759.05 43.43 758.82 43.22 758.63 43.1 757.56 42.22 757.09 41.93 756.77 41.84 755.98 41.79 755.61 41.93 755.37 42.12 755.23 42.26 754.87 43.13 754.52 43.63 754.15 44.01 754.05 44.22 754.09 44.45 754.35 44.7 755.15 45.18 755.31 45.38 755.42 45.59 755.41 45.82 755.34 46 754.98 46.34 755.3 46.81 756.01 47.16 756.55 47.72 756.41 48.51 755.97 48.9 755.22 50.67 755.35 51.32 753.23 51.59 751.88 51.98 750.88 52.55 749.94 52.79 749.09 53.25 748.76 53.33 747.81 53.44 747.49 53.69 746.84 53.82 746.51 53.99 746.15 54.3 745.07 54.93 744.31 55.84 743.74 56.08 742.35 56.83 740.63 57.38 738.22 58.74 736.36 58.52 735.02 58.72 734.88 58.81 734.8 58.95 734.78 59.1 734.7 59.24 734.62 59.33 734.42 59.32 734.17 59.14 733.67 58.95 733.17 58.61 732.42 58.21 731.44 58 731.14 57.8 730.77 57.69 730.64 56.71 731.55 55.63 731.68 55.37 731.7 54.95 731.39 54.5 731.32 54.3 731.37 54.12 732.11 53.69 733.86 53.16 733.48 52.68 733.28 52.48 733.06 52.32 732.88 52.12 732.68 51.55 732.32 50.85 732.3 50.63 732.49 50.39 732.71 50.23 734 49.83 733.47 49.51 732.9 49.32 732.74 49.24 732.52 48.82 732.49 47.92 732.39 47.7 732.2 47.43 731.76 47.06 731.62 46.87 731.56 46.67 731.56 46.52 731.57 46.39 731.87 45.97 732.61 45.52 733.36 44.89 734 43.84 734.29 43.47 734.33 43.29 733.97 42.31 734.95 42.24 735.2 42.32 735.57 42.36 735.96 42.32 736.52 42.1 736.89 42.09 737.16 42.18 737.41 42.32 737.68 42.41 737.97 42.43 738.24 42.37 738.4 42.15 738.42 41.78 738.15 41.2 738 40.38 737.85 39.96 737.81 39.75 737.91 39.37 738.07 39.03 739.07 37.92 739.13 37.76 739.14 37.71 739.14 37.63 739.12 37.49 739.02 37.38 738.79 37.37 738.37 37.65 738.28 37.74 738.2 37.85 737.97 38.22 737.55 38.28 737.16 38.28 734.77 37.41 734.79 36.72 734.82 36.5 734.72 36.19 734.61 36 732.68 35.05 734.82 34.42 735.86 34.24 739.04 34.41 739.94 34.34 743.82 33.32 745.22 32.64 746.9 31.84 747.53 31.78 747.97 31.92 748.71 32.48 749.1 32.71 749.65 32.83 750.26 32.85 750.86 32.78 751.39 32.64 752.31 32.16 752.78 31.98 753.33 31.94 753.41 31.94 754.74 32.05 756.23 31.89 759.98 30.84 760.45 30.84 760.94 31.11 761.89 32.15 762.29 32.42 763.35 32.69 764.17 32.64 Z" id="PRT-755" data-name="Viseu"/>
<path d="M 767.07 9.42 767.13 9.58 767.32 10.2 767.24 10.53 767.17 11.17 767.24 11.74 767.34 12.05 767.62 12.63 768.2 13.23 768.23 13.49 768.24 13.93 768.16 14.11 767.99 14.29 767.8 14.37 767.53 14.56 766.73 15.82 765.7 18.48 765.57 19.32 765.61 19.74 765.72 20 765.87 20.21 766.04 20.42 766.17 20.64 766.22 20.83 766.11 21 765.88 21.09 765.6 21.15 765.31 21.16 764.99 21.26 764.69 21.53 764.32 22.07 764.08 22.57 763.81 22.84 763.54 22.97 763.25 23.05 762.21 23.65 762.2 25.22 762.39 25.86 762.61 26.3 762.88 26.54 763.63 26.88 762.54 27.15 761.98 27.6 761.92 27.93 761.98 28.12 761.91 28.26 761.6 28.52 761.31 28.81 761.18 29.22 761.16 29.49 761.18 29.7 761.23 29.87 761.11 29.93 760.66 29.98 760.36 30.08 760.23 30.26 760.17 30.41 759.98 30.84 756.23 31.89 754.74 32.05 753.41 31.94 753.33 31.94 752.78 31.98 752.31 32.16 751.39 32.64 750.86 32.78 750.26 32.85 749.65 32.83 749.1 32.71 748.71 32.48 747.97 31.92 747.53 31.78 746.9 31.84 745.22 32.64 745.38 31.9 745.43 31.13 745.88 29.86 745.74 29.8 745.33 29.57 744.8 28.83 744.66 28.36 744.8 27.95 743.93 27.45 743.47 27.26 743.24 27 743.19 26.72 743.22 26.44 742.69 25.93 742.97 25.37 742.96 25.2 742.89 24.98 742.96 24.87 743.06 24.84 743.21 24.76 743.3 24.53 743.76 23.95 743.87 23.72 743.9 23.56 743.76 23.32 744.05 22.57 744.35 22.26 744.51 22.18 744.67 22.16 744.91 22.22 745.25 21.98 745.41 21.6 745.52 21.51 746.12 21.3 746.5 20.98 747.77 19.54 747.85 19.17 747.31 18.44 747.14 18.31 746.82 18.18 746.16 18.74 745.21 18.94 744.81 18.93 743.58 18.73 743.28 18.65 742.96 18.52 742.61 18.47 741.96 18.26 742.09 16.84 742.16 16.53 742.29 16.14 742.21 15.95 742.04 15.84 741.22 15.45 741.01 15.37 740.8 15.36 740.19 15.57 739.96 15.59 739.68 15.56 739.43 15.55 739.2 15.58 739 15.64 738.6 15.69 738.16 15.68 738.89 15.05 739.04 14.85 739.22 14.55 739.5 13.88 739.79 13.48 740.02 12.57 740.17 12.35 740.34 12.16 740.4 11.97 740.39 11.81 740.31 11.74 740.37 11.73 741.41 10.92 741.73 10.54 742.12 10.23 742.57 10.07 743.08 10.13 743.67 10.12 743.97 9.71 744.13 9.18 744.28 8.81 744.9 8.63 744.99 9.49 745.2 10.41 746.22 10.41 746.44 10.22 746.55 10.02 746.7 9.84 747.03 9.76 747.89 9.8 749.86 9.44 750.76 9.09 751.26 9.19 752.14 9.66 752.7 9.87 754.41 9.92 753.92 10.92 753.94 11.22 754.45 11.44 755.01 11.48 755.69 11.41 756.34 11.23 756.82 10.97 756.99 10.75 757.02 10.53 757.08 10.34 757.32 10.18 757.56 10.19 758.05 10.44 758.36 10.46 758.8 10.58 759.21 11 759.51 11.56 759.65 12.06 760.07 11.79 760.83 11.13 761.26 10.91 761.74 10.85 762.9 10.88 763.47 10.81 765.73 10.23 766.78 9.74 767.07 9.42 Z" id="PRT-756" data-name="Vila Real"/>
</g>
</svg>