<?xml version="1.0"?>
<svg xmlns="http://www.w3.org/2000/svg" version="1.2" baseProfile="tiny" width="800" height="1397" viewBox="0 0 800 1397" stroke-linecap="round" stroke-linejoin="round">
<g id="ne_10m_admin_1_states_provinces">
<path d="M 475.09 837.89 478.23 891.81 486.05 917.65 485.42 929.23 475.79 938.13 468.15 940.27 463.61 943.01 448.81 940.01 433.49 942.27 420.39 941.25 412.2 928.38 409.1 928.02 405.37 926.71 400.27 919.88 394.07 914.36 395.22 924.69 398.47 938.06 391.23 950.24 368.24 977.29 362.11 975.69 355.13 975.83 344.76 982.97 337.49 984.54 324.61 982.98 316.53 989.4 319.44 988.52 322.25 989.73 328.52 1001.24 333.84 1006.26 338.08 1012.02 333.8 1023.94 326.09 1032.11 315.68 1025.98 299.66 1002.27 289.44 1001.37 289.62 994.3 292.2 988.81 289.62 984.36 284.19 971.48 288.29 967.73 300.66 965.72 306.27 959.68 310.18 959.45 314.05 958.54 316.86 954.15 318.89 949.45 314.72 944.26 309.55 939.14 309.48 933.91 310.33 927.55 306.01 922.31 296.93 917.32 293.9 915.22 294.49 908.33 279.06 894.88 274.67 883.93 282.05 884.73 288.48 882.86 287.88 881.2 287.59 878.86 288.81 876.77 290.32 874.82 291.47 867.68 296.6 867.67 302.13 871.6 308.26 872.06 308.78 868.35 308.22 864.37 313.46 861.47 318.59 862.35 322.43 860.53 320.29 855.67 317.41 851.14 321.62 850.06 325.9 848.1 333.25 858.14 355.95 872.29 369.09 873.07 376.69 864.67 375.51 851.57 377.65 846 382.63 843 387.91 845.04 401.2 855.94 411.46 854.42 422.75 845.15 437.48 845.28 443.35 842.4 447.67 847.75 450.29 846.31 452.57 844.32 456.52 837.73 463.76 836.64 475.09 837.89 Z" id="LKA-2448" data-name="Mahanuvara"/>
<path d="M 477.12 754.1 476.86 760.07 479.45 768.12 480.22 774.99 476.79 791.89 473.35 808.68 475.09 837.89 463.76 836.64 456.52 837.73 452.57 844.32 450.29 846.31 447.67 847.75 443.35 842.4 437.48 845.28 422.75 845.15 411.46 854.42 401.2 855.94 387.91 845.04 382.63 843 377.65 846 375.51 851.57 376.69 864.67 369.09 873.07 355.95 872.29 333.25 858.14 325.9 848.1 326.09 844.41 328.08 841.71 328.82 837.39 327.82 832.93 326.01 829.16 323.83 825.59 320.25 818.43 321.14 810.89 326.2 806.31 327.49 803.24 327.41 800 328.45 795.78 328.6 791.59 322.06 785.24 320.07 774.19 319.04 762.26 317.23 759.69 315.94 758.8 315.83 752.64 313.39 746.51 309.85 740.61 307.3 735.05 304.6 734.31 301.43 732.53 300.51 726.28 302.17 720.45 309.77 714.86 321.77 710.46 328.08 702.88 333.84 703.1 338.12 705.91 343.43 702.25 346.09 697.94 348.56 696.22 350.89 694.87 350.67 692.34 349.86 690.68 354.43 685.99 357.87 680.82 357.79 674.17 359.78 668.47 363.36 668.47 366.06 669.13 368.13 667.69 375.07 660.46 379.72 656.4 386.51 653 393.96 649.99 397.1 653 402.05 658.56 401.94 664.83 403.89 666.94 406.88 668.04 409.17 666.58 409.32 664.31 413.64 662.27 417.77 663.45 423.42 664.59 428.66 667.71 417.95 678.85 414.45 695.76 413.45 703.92 410.02 718.35 408.8 720.91 408.14 723.49 397.76 725.79 395.37 735.6 400.2 757.3 399.54 764.27 403.08 769.26 412.49 771.31 421.46 767.59 428.58 761.15 431.65 765.39 437.11 768.79 438.66 762.53 439.47 756.14 458.63 757.44 477.12 754.1 Z" id="LKA-2449" data-name="Mātale"/>
<path d="M 463.61 943.01 463.32 949.44 466.01 958.35 465.23 961.6 465.97 964.61 467.6 966.53 468.89 968.36 466.45 971.35 464.72 974.65 466.67 980.98 467.19 983.46 466.01 986.1 463.68 989.06 460.81 991.68 457.52 997.99 455.9 1004.95 447.96 1016.67 434.45 1019.59 427.99 1022.65 422.35 1027.8 420.61 1034.88 415.81 1040.37 409.13 1039.99 402.67 1040.3 403.08 1046 414.48 1051.7 416.85 1056.68 418.88 1062.16 420.69 1064.35 422.09 1066.76 416.85 1075.25 420.13 1077.34 423.42 1078.99 419.76 1084.14 413.01 1085.81 392.78 1096.32 381.63 1097.83 369.79 1097.44 360.93 1098.14 353.4 1099.39 333.8 1096.74 315.27 1092.59 306.56 1091.88 299.22 1086.31 300.51 1082.65 303.24 1080.1 300.8 1077.46 301.06 1071.61 305.16 1068.03 304.57 1063.25 301.84 1053.88 293.57 1047.77 283.2 1044.43 280.1 1034.09 282.61 1020.83 280.32 1018.51 278.33 1015.79 280.28 1013.14 283.01 1012.22 287.96 1007.89 291.1 1002.85 289.91 1002.53 289.44 1001.37 299.66 1002.27 315.68 1025.98 326.09 1032.11 333.8 1023.94 338.08 1012.02 333.84 1006.26 328.52 1001.24 322.25 989.73 319.44 988.52 316.53 989.4 324.61 982.98 337.49 984.54 344.76 982.97 355.13 975.83 362.11 975.69 368.24 977.29 391.23 950.24 398.47 938.06 395.22 924.69 394.07 914.36 400.27 919.88 405.37 926.71 409.1 928.02 412.2 928.38 420.39 941.25 433.49 942.27 448.81 940.01 463.61 943.01 Z" id="LKA-2450" data-name="Nuvara Ĕliya"/>
<path d="M 735.34 1186.39 735.34 1186.39 732.16 1185.34 723.49 1182.64 717.55 1175.89 712.97 1175.26 708.87 1175 698.21 1161.92 707.51 1030.89 705.74 1023.83 701.46 1017.72 701.42 1010.82 698.95 1003.96 700.61 996.91 701.31 990.2 690.75 983.88 678.02 980.61 676.17 978.99 673.96 977.68 671.3 977.68 668.42 976.42 665.65 971.52 664.21 965.99 659.6 957.65 663.77 946.56 671.23 937.79 677.02 933.25 669.27 922.58 668.24 914.9 663.25 906.25 655.36 899.43 653.92 892.55 654.43 884.02 650.19 865.21 650.89 860.42 648.53 860 646.28 858.64 651.55 850.51 644.54 848.61 635.61 853.37 631.29 854.86 627.34 856.61 626.01 859.96 623.58 863.78 618.63 865.05 614.98 865.33 615.05 869.99 617.01 874.2 617.41 878.4 615.79 881.92 613.32 884.89 611.65 887.4 604.42 891.38 595.56 890.99 595.6 904.7 597.48 918.02 590.84 922.85 583.6 925.35 580.47 919.55 577.66 912.63 576.41 906.23 573.2 899.79 570.72 895.65 569.25 892.47 564.85 891.64 561.75 892.39 556.4 887.14 552.45 878.78 550.13 863.06 548.69 858.62 547.62 854.22 548.61 851 550.61 847.32 554.37 829.97 553.01 812.11 537.13 808.69 519.6 818.45 512 825.43 507.68 827.08 504.1 827.9 497.6 830.17 488.82 815.6 485.98 807.04 485.5 801.21 483.17 796.13 477.78 792.84 476.79 791.89 480.22 774.99 479.45 768.12 476.86 760.07 477.12 754.1 483.84 754.08 497.16 752.81 503.69 751.66 516.69 756.63 527.24 767.16 544.52 772.48 552.93 777.26 559.91 778.09 560.76 774.41 562.42 770.23 564.71 767.85 566.66 764.02 565.55 755.58 567.18 747.55 576.85 749.45 588.33 748.88 597.85 751.96 610.07 769.51 617.97 776.97 628.85 780.06 640.19 782.22 639.67 792.95 636.16 803.29 636.86 809.26 640.15 814.61 651.37 821.31 657.46 827.15 680.9 831.17 704.67 828.6 713.05 823.96 713.19 832.91 716 841.67 717.07 861.89 719.69 867.65 732.16 855.39 739.44 849.58 749.22 847.99 756.03 846.86 756.05 846.92 756.39 848.3 759.27 848.9 762.15 845.24 764.36 845.24 764.39 845.25 767.12 859.65 767.03 864.96 767.09 864.96 769.53 864.96 769.53 864.83 769.82 859.83 770.69 854.89 772.2 850.67 774.41 847.68 774.41 845.25 774.41 845.24 774.21 844.69 773.42 842.45 774.06 841.33 776.04 842.16 779.24 845.24 780.34 848.06 781.16 855.63 786.65 864.3 795.57 894.69 793.89 978.66 794.76 984.32 798.42 996.95 799 1004.39 796.97 1018.58 780.52 1075.27 779.59 1081.11 779.24 1088.84 778.02 1095.29 772.87 1105.25 771.74 1109.69 769.7 1115.8 762.79 1126.56 759.53 1131.62 759.53 1131.64 761.97 1140.31 761.97 1140.33 758.05 1150.63 735.34 1186.39 Z" id="LKA-2451" data-name="Ampāra"/>
<path d="M 774.82 836.03 769.53 840.37 764.5 836.43 762.96 834.82 762.24 834.08 762 832.31 761.74 830.55 761.74 830.53 761.8 829.81 763.28 807.33 762.24 799.57 758.31 796.25 756.83 793.07 744.89 775.63 744.28 771.88 742.88 768.98 741.17 765.4 740 761.9 740.18 758.2 741.28 754.91 741.75 751.45 741.75 751.44 740 747.3 740 747.25 744.59 751.7 748.98 762 752.21 766.77 752.99 768.83 756.31 777.7 765 791.41 769.01 797.74 775.05 828.88 775.05 828.91 774.82 836.03 Z M 630.96 567.46 638.4 592.41 641.22 608.67 634.74 617.55 634.74 617.59 631.13 602.87 630.61 600.79 625.18 585.88 622.56 585.88 622.13 597.2 622.56 600.76 622.3 600.65 622.04 601.67 622.04 601.69 622.04 603.47 622.56 605.62 623.75 607.01 626.78 607.93 626.8 607.94 627.41 609.06 630.32 616.55 636.6 621.11 636.63 621.11 642.61 620.61 644.71 612.94 646.89 612.94 649.15 617.04 649.76 618.14 652.7 631.03 655.69 635.99 659.67 640.32 662.23 644.53 666.65 654.62 668.39 652.87 670.69 651.16 671.74 649.52 673.3 652.84 671.74 654.62 672.52 655.9 673.22 656.74 673.33 656.96 673.74 657.67 673.97 659.27 674 659.24 675.77 657.79 679.44 656.04 681.3 654.62 681.3 654.65 682.14 656.65 683.16 659.09 682.4 661.98 681.15 664.86 681.21 667.09 681.3 669.24 683.8 674.03 688.21 677.39 691.09 679.58 693.71 683.87 692.05 683.97 691.21 684.54 690.13 685.26 689.46 685.69 688.79 686.09 687.75 689.99 686.7 693.88 690.89 706.06 693.15 708.64 698.27 714.49 698.33 714.49 705.88 713.12 708.32 713.12 710.8 720.57 713.61 725.18 714.49 726.61 729.89 742.59 734.86 750.39 735.73 757.3 727.83 759.66 727.8 759.68 724.13 757.21 715.36 746.12 710.77 742.18 704.84 740.02 704.78 740.02 704.17 740.08 699.95 740.44 696.23 744.22 693.71 752.14 697.98 754.07 702.11 754.65 705.65 753.34 708.32 749.7 712.54 751.26 716.4 753.18 717.74 754.75 718.64 755.84 718.64 755.86 718.09 759.68 722.83 764.08 727.56 768.48 731.28 772.73 735.18 779.18 735.15 779.19 733.32 781.3 732.85 783.35 733.46 785.81 735.18 789.18 737.39 786.49 736.05 781.64 736.05 781.61 740.26 783.09 748.55 789.18 750.52 792.03 757.09 808.65 757.09 808.66 756.68 809.38 754.65 818.41 754.94 819.4 755 819.55 756.68 823.01 757.09 824.4 755.7 826.86 753.14 828.82 751.6 831 753.43 834.17 755.17 836.45 755.78 838.23 755.87 838.47 756.92 840.5 759.53 842.81 755.7 845.56 755.7 845.57 756.03 846.86 749.22 847.99 739.44 849.58 732.16 855.39 719.69 867.65 717.07 861.89 716 841.67 713.19 832.91 713.05 823.96 704.67 828.6 680.9 831.17 657.46 827.15 651.37 821.31 640.15 814.61 636.86 809.26 636.16 803.29 639.67 792.95 640.19 782.22 628.85 780.06 617.97 776.97 610.07 769.51 597.85 751.96 588.33 748.88 576.85 749.45 567.18 747.55 562.12 719.92 565.26 692.43 567.95 682.06 575.96 676.7 586.19 675.29 599.14 676.99 602.43 676.74 599.47 663.43 593.5 650.53 590.87 637.38 593.75 581.07 591.87 562.45 597.81 560.35 629.86 563.72 629.86 563.75 630.96 567.46 Z" fill-rule="evenodd" id="LKA-2452" data-name="Maḍakalapuva"/>
<path d="M 591.87 562.45 593.75 581.07 590.87 637.38 593.5 650.53 599.47 663.43 602.43 676.74 599.14 676.99 586.19 675.29 575.96 676.7 567.95 682.06 565.26 692.43 562.12 719.92 567.18 747.55 565.55 755.58 566.66 764.02 564.71 767.85 562.42 770.23 560.76 774.41 559.91 778.09 552.93 777.26 544.52 772.48 527.24 767.16 516.69 756.63 503.69 751.66 497.16 752.81 483.84 754.08 477.12 754.1 458.63 757.44 439.47 756.14 438.66 762.53 437.11 768.79 431.65 765.39 428.58 761.15 421.46 767.59 412.49 771.31 403.08 769.26 399.54 764.27 400.2 757.3 395.37 735.6 397.76 725.79 408.14 723.49 408.8 720.91 410.02 718.35 413.45 703.92 414.45 695.76 417.95 678.85 428.66 667.71 423.42 664.59 417.77 663.45 413.64 662.27 409.32 664.31 409.17 666.58 406.88 668.04 403.89 666.94 401.94 664.83 402.05 658.56 397.1 653 393.96 649.99 394.44 640.56 401.42 630.88 394.29 625.22 394.89 612.81 397.32 598.86 402.49 585.38 405.4 570.41 410.65 556.68 424.78 554.07 440.62 554.09 445.19 551.38 446.71 545.15 449.36 538.84 453.98 534.08 459.33 532.53 463.5 538.66 469.29 540.87 474.76 545.14 476.23 552.57 480.7 557.02 495.76 555.55 522.81 562.11 529.2 562.12 535.14 565.46 540.9 569.87 547.21 573.08 551.71 572.73 554.26 576.31 554.81 580.85 554.67 585.45 555.92 592.23 554 596.68 549.87 599.26 551.27 600.26 553.01 600.84 561.97 598.82 567.03 587.09 568.84 583.68 571.09 574.34 573.56 572.21 576.26 570.21 578.62 565.94 581.87 562.47 586.33 562.48 591.87 562.45 Z" id="LKA-2453" data-name="Pŏḷŏnnaruva"/>
<path d="M 591.87 562.45 586.33 562.48 581.87 562.47 578.62 565.94 576.26 570.21 573.56 572.21 571.09 574.34 568.84 583.68 567.03 587.09 561.97 598.82 553.01 600.84 551.27 600.26 549.87 599.26 554 596.68 555.92 592.23 554.67 585.45 554.81 580.85 554.26 576.31 551.71 572.73 547.21 573.08 540.9 569.87 535.14 565.46 529.2 562.12 522.81 562.11 495.76 555.55 480.7 557.02 476.23 552.57 474.76 545.14 469.29 540.87 463.5 538.66 459.33 532.53 453.98 534.08 461.73 506.65 462.54 502.15 464.02 497.85 468.41 493.55 473.5 490.28 476.46 485.01 474.06 479.52 469.92 476.36 466.71 472.32 461.69 460.47 452.24 446.52 450.77 438.01 446.96 434.33 443.94 430.92 443.64 423.63 449.18 410.8 446.45 403.36 439.84 389 439.62 373.65 445.67 364.81 449.84 355.54 446.45 352.99 443.57 349.15 438.07 343.17 422.53 332.41 413.41 327.3 402.93 327.07 392.86 331.15 394.44 324.91 397.4 319.82 411.42 313.34 427.96 311.22 434.78 309.27 440.99 305.63 447.85 303.69 453.5 301.23 453.52 301.22 453.62 306.83 457.86 309.79 457.83 309.82 454.03 313.32 450.66 317.29 450.69 317.3 456.29 321.68 462.34 321.21 467.28 316.63 470.94 310.27 473.32 304.38 473.38 304.41 486.29 319.86 497.74 339.35 502.42 344.17 508.96 346.06 514.19 350.24 521.86 368.69 523.81 370.7 525.87 372.87 525.9 372.88 534.68 376.84 539.06 386.12 544.09 404.8 544.99 401.37 546.16 400.03 548.1 400.47 548.13 400.48 551.59 402.35 550.54 405.78 560.48 416.54 563.8 421.87 563.77 428.31 561.15 430.89 557.43 432.59 554.03 436.5 554.09 436.47 556.68 435.82 559.35 435.14 560.02 434.77 561.36 434.06 561.38 434.09 569.12 450.77 570.25 459.46 561.38 460.89 561.36 460.89 563.19 455.13 560.8 450.53 560.8 450.51 556.85 449.86 554.03 456 554.99 460.77 557.52 464.16 558.91 467.77 556.27 473.28 556.27 473.3 554.18 471.7 550.28 468.69 544.09 464.9 537.84 463.47 531.89 465.97 527.27 472.13 528.89 475.36 534.41 474.52 541.85 468.43 546.97 473.82 551.59 480.29 557.17 485.68 565.02 487.91 581.44 487.59 586.99 484.11 583.33 475.74 592.71 471.48 596.43 470.35 600.39 470.62 600.42 470.65 604.75 473.12 608.7 477.31 611.66 482.19 614.19 496.49 619.77 514.88 619.95 519.68 620.12 524.49 615.59 521.34 610.85 511.86 606.69 509.86 606.55 512.44 608.26 524.04 608.41 524.93 610.35 529.37 612.74 530.49 614.92 531.51 614.98 531.51 619.8 531.51 623.64 533.22 625.9 546.88 628.64 556.36 629.1 557.93 629.86 563.72 597.81 560.35 591.87 562.45 Z" id="LKA-2454" data-name="Trikuṇāmalaya"/>
<path d="M 453.98 534.08 449.36 538.84 446.71 545.15 445.19 551.38 440.62 554.09 424.78 554.07 410.65 556.68 405.4 570.41 402.49 585.38 397.32 598.86 394.89 612.81 394.29 625.22 401.42 630.88 394.44 640.56 393.96 649.99 386.51 653 379.72 656.4 375.07 660.46 368.13 667.69 366.06 669.13 363.36 668.47 359.78 668.47 357.79 674.17 357.87 680.82 354.43 685.99 349.86 690.68 350.67 692.34 350.89 694.87 348.56 696.22 346.09 697.94 343.43 702.25 338.12 705.91 333.84 703.1 328.08 702.88 321.77 710.46 309.77 714.86 302.17 720.45 293.09 711.79 294.45 699.39 292.68 690.95 289.32 682.67 288.4 676.69 285.45 671.77 279.69 671.36 274.71 669.28 274.04 663.07 274.52 656.57 273.49 648.95 274.12 644.45 274.01 639.98 268.62 635.59 261.9 635.81 255.44 631.85 249.61 626.01 238.87 617.36 227.02 612.83 220.41 611.86 215.06 608.04 208.23 605.32 201.18 603.56 168.26 588.57 160.55 584.32 156.56 579.2 151.28 575.01 144.05 575.27 137.66 570.52 131.65 573.23 124.23 573.27 122.01 566.93 113.12 530.93 107.88 520.91 111.79 512.07 117.81 509.32 119.43 506.11 119.91 503.6 131.06 494.56 137.55 480.89 135.52 466.15 138.48 467.6 141.91 468 142.65 434.9 139.8 413.97 155.71 420.39 173.24 420.45 207.98 411.41 208.12 423.01 211.78 433.07 217.2 434.92 222.48 437.3 224.77 441.71 226.1 446.55 229.9 454.12 237.43 458.1 241.16 459.14 244.63 459.34 250.09 449.57 256.44 446.83 263.08 431.44 277.14 413.32 288.03 408.37 294.64 411.85 300.69 416.13 312.06 416.05 321.58 408.84 330.63 400.77 338.41 391.75 342.73 385.18 347.75 379.1 356.24 372.44 353.25 363.19 346.68 354.78 337.38 351.58 336.72 343.75 363.29 342.84 373.66 335.65 383.04 333 392.86 331.15 402.93 327.07 413.41 327.3 422.53 332.41 438.07 343.17 443.57 349.15 446.45 352.99 449.84 355.54 445.67 364.81 439.62 373.65 439.84 389 446.45 403.36 449.18 410.8 443.64 423.63 443.94 430.92 446.96 434.33 450.77 438.01 452.24 446.52 461.69 460.47 466.71 472.32 469.92 476.36 474.06 479.52 476.46 485.01 473.5 490.28 468.41 493.55 464.02 497.85 462.54 502.15 461.73 506.65 453.98 534.08 Z" id="LKA-2455" data-name="Anurādhapura"/>
<path d="M 397.4 319.82 394.44 324.91 392.86 331.15 383.04 333 373.66 335.65 363.29 342.84 336.72 343.75 337.38 351.58 346.68 354.78 353.25 363.19 356.24 372.44 347.75 379.1 342.73 385.18 338.41 391.75 330.63 400.77 321.58 408.84 312.06 416.05 300.69 416.13 294.64 411.85 288.03 408.37 277.14 413.32 263.08 431.44 256.44 446.83 250.09 449.57 244.63 459.34 241.16 459.14 237.43 458.1 229.9 454.12 226.1 446.55 224.77 441.71 222.48 437.3 217.2 434.92 211.78 433.07 208.12 423.01 207.98 411.41 194.47 394.12 186.01 387.74 186.09 383.08 187.42 377.79 196.64 376.87 201.96 364.9 211.96 359.42 224.88 360.85 245 358.35 264.19 351.33 266 338.87 260.57 325.18 255.04 316.39 245.37 311.89 261.94 301.57 271.9 293.56 278.29 283.99 277.85 277.96 276.55 271.86 276.59 268.67 276.22 265.76 270.98 264.92 268.21 261.19 269.13 255.99 275.56 255.38 282.46 255.79 294.75 255.44 303.68 261.07 309.18 269.19 317.97 265.33 324.09 259.91 327.64 258.2 331.03 256.26 331.7 254.45 332.51 252.69 344.13 252.38 355.21 256.59 356.5 268.05 366.1 269.09 370.23 276.3 366.8 281.33 366.21 286.18 371.78 284.85 377.02 281.31 388.28 283 399.65 289.91 403.97 295.64 397.4 319.82 Z" id="LKA-2456" data-name="Vavuniyāva"/>
<path d="M 81.91 278.05 94.12 289.77 94.09 289.75 88.25 288.55 77.96 283.49 71.91 282.44 81.18 292.9 88.48 301.16 91.68 306.83 83.13 305.75 77.55 301.48 73.71 296.83 70.84 294.62 67.15 292.76 52.44 279.77 45.15 276.54 37.85 273.32 32.5 271.88 29.66 271.11 21.84 270.25 17.86 268.7 16.08 265.27 17.22 261.84 21.84 260.27 37.79 260.27 44.86 262.07 52.15 263.93 67.38 269.68 81.91 278.05 Z M 192.4 212.54 192.81 224.71 194.98 236.36 201.59 246.76 202.29 249.29 202.7 251.92 202.4 257.38 201.07 262.54 201.89 270.94 201.37 278.23 193.51 280.9 191.92 284.46 190.74 288.38 188.86 292.44 187.64 296.58 189.34 299.77 190.96 302.2 186.42 315.02 245.37 311.89 255.04 316.39 260.57 325.18 266 338.87 264.19 351.33 245 358.35 224.88 360.85 211.96 359.42 201.96 364.9 196.64 376.87 187.42 377.79 186.09 383.08 186.01 387.74 194.47 394.12 207.98 411.41 173.24 420.45 155.71 420.39 139.8 413.97 142.65 434.9 141.91 468 138.48 467.6 135.52 466.15 126 460.83 116.85 456.99 106.29 456.02 96.88 452.46 92.78 450.1 94.12 448.68 94.7 446.92 98.24 435.99 98.74 435.53 99 435.28 99.78 432.09 103.1 424.94 106.26 390.18 97.66 368 98.36 364.15 99 338.87 99 338.53 99 338.52 98.13 330.08 97.08 325.92 95.22 322.78 93.77 319.21 97.08 317.43 101.88 316.55 105.04 315.59 125.77 297.06 136.58 291.79 141.08 287.88 143.46 279.19 147.74 270.25 150.18 257.83 161.66 228.39 162.06 226.76 163.14 222.46 165.75 222.47 178.04 221.4 185.57 217.61 192.4 212.54 Z" fill-rule="evenodd" id="LKA-2457" data-name="Mannārama"/>
<path d="M 453.52 301.22 453.5 301.23 447.85 303.69 440.99 305.63 434.78 309.27 427.96 311.22 411.42 313.34 397.4 319.82 403.97 295.64 399.65 289.91 388.28 283 377.02 281.31 371.78 284.85 366.21 286.18 366.8 281.33 370.23 276.3 366.1 269.09 356.5 268.05 355.21 256.59 344.13 252.38 332.51 252.69 331.7 254.45 331.03 256.26 327.64 258.2 324.09 259.91 317.97 265.33 309.18 269.19 303.68 261.07 294.75 255.44 282.46 255.79 275.56 255.38 269.13 255.99 268.21 261.19 270.98 264.92 276.22 265.76 276.59 268.67 276.55 271.86 277.85 277.96 278.29 283.99 271.9 293.56 261.94 301.57 245.37 311.89 186.42 315.02 190.96 302.2 189.34 299.77 187.64 296.58 188.86 292.44 190.74 288.38 191.92 284.46 193.51 280.9 201.37 278.23 201.89 270.94 201.07 262.54 202.4 257.38 202.7 251.92 202.29 249.29 201.59 246.76 194.98 236.36 192.81 224.71 192.4 212.54 201.81 213.69 200.89 203.8 210.19 191.8 237.61 188.61 247.4 188.47 257.03 190.21 266.48 189.34 272.6 173.9 277.4 173.72 293.68 174.55 302.72 173.99 308.74 170.76 313.68 154.58 315.42 154.07 318.11 157.43 325.13 163.31 333.28 167.73 332.32 159.64 333.36 151.47 341 145.56 341.77 139.63 343.47 137.91 345.32 136.68 347.46 134.88 347.48 134.86 389.77 168.81 390.15 169.45 392.65 173.6 396.66 178.54 404.33 185.69 409.21 191.96 404.88 194.21 404.85 194.22 402.41 193.13 402.12 193 402.06 192.99 398.31 188.19 396.25 187.15 396.22 187.12 389.77 186.07 386.95 186.91 388.35 189.76 388.81 190.66 407.35 207.78 414.59 211.72 414.62 211.73 411.74 207.3 410 203.26 410 203.25 410.9 200.25 415.84 199.11 418.16 200.66 421.94 211.73 425.4 218.55 438.97 245.4 438.97 245.42 436.24 244.41 428.68 241.64 423.95 241.55 421.94 246.64 424.73 247.93 430.54 248.87 435.72 252.1 435.78 252.54 436.53 260.27 436.59 260.27 438.97 260.27 440.16 258.22 441.24 257.33 442.46 256.75 444.09 255.62 444.09 255.65 445.92 262.74 446.12 263.62 451.18 275.06 457.95 285.32 464.84 289.77 465.36 290.19 466.18 290.87 466.15 293.37 464.49 295.88 461.18 297.06 460.22 296.01 456.29 289.77 452.02 287.53 442.23 285.03 436.53 282.44 439.15 286.05 440.6 288.05 453.5 300.02 453.52 301.22 Z" id="LKA-2458" data-name="Mulativ"/>
<path d="M 22.04 124.04 13.03 124.56 4.66 121.81 1 117.31 1 102.68 2.05 98.93 4.4 99.41 6.84 102.41 8.32 106.21 14.49 108.12 21.84 108.68 23.67 110 27.8 118.63 27.8 118.65 24.95 121.33 22.04 124.04 Z M 89.23 54.79 90.75 55.17 97.66 54.79 98.82 55.86 99.35 61.22 100.22 63.44 104.29 65.98 109.81 68.32 114.43 70.92 114.81 71.74 116.03 74.3 113.56 76.82 108.85 76.85 103.79 75.3 100.22 73.08 97.69 72.46 91.27 76.21 86.76 76.74 86.73 76.74 81.21 72.77 75.69 64.59 67.03 47.49 70.98 41.37 71.88 33.54 74.12 27.19 81.91 25.53 86.04 26.76 86.1 26.78 86.44 29.79 85.05 33.99 84.09 38.84 84.24 43.74 84.76 47.65 84.79 47.88 85.11 48.66 86.33 51.5 87.96 53.34 89.23 54.79 Z M 227.74 54.13 227.72 54.16 222.89 64.36 215.36 77.42 197 69.46 190.37 65.66 185.93 65.61 186.77 74.3 189.24 76.85 193.07 79.75 195.34 83.28 193.07 87.84 190.37 88.65 187.76 87.26 185.37 85.28 178.51 81.75 165.17 70.23 157.5 66.97 157.53 67 161.43 71.24 168.46 77.26 172.35 81.62 163.69 79.96 155.15 76.43 137.97 66.97 124.28 56.31 116.15 53.46 115.33 52.96 112.25 50.99 109.37 49.84 108.94 52.37 105.01 49.71 103.53 46.27 102.84 42.15 101.44 37.5 99.09 33.54 97.69 31.73 94.03 27 91.68 22.88 99.41 19.05 113.47 6.16 119.81 3.37 119.84 3.37 147.74 5.81 162.3 4.2 167.62 4.81 169.71 9.57 169.36 17.06 170.41 19.66 173.46 20.65 176.42 21.07 184.97 23.25 186.77 24.21 188.37 27.35 192.2 27.21 195.23 26.3 196.39 25.95 198.13 25.7 199.35 25.53 199.38 25.54 202.14 27.14 203.33 27.82 213.33 38.61 227.74 54.13 Z M 343.47 137.91 319.18 121.41 310.81 117.57 303.37 115.97 302.26 115.46 301.19 114.95 294.74 110.1 292.29 108.68 289.85 108.3 286.92 108.44 286.22 104.88 281.69 91.24 282.5 91.6 282.5 91.59 282.5 88.94 269.54 82.45 238.15 57 212.43 27.61 199.35 20.66 199.35 20.65 178.86 15.85 173.46 12.01 172.76 6.59 180.26 3.37 182.7 2.96 190.14 1.73 204.93 1 212.05 2.32 216.99 5.77 220.28 17.45 223.56 22.33 270.32 76.74 277.21 81.75 291.16 89.64 347.48 134.86 347.46 134.88 345.32 136.68 343.47 137.91 Z" fill-rule="evenodd" id="LKA-2459" data-name="Yāpanaya"/>
<path d="M 343.47 137.91 341.77 139.63 341 145.56 333.36 151.47 332.32 159.64 333.28 167.73 325.13 163.31 318.11 157.43 315.42 154.07 313.68 154.58 308.74 170.76 302.72 173.99 293.68 174.55 277.4 173.72 272.6 173.9 266.48 189.34 257.03 190.21 247.4 188.47 237.61 188.61 210.19 191.8 200.89 203.8 201.81 213.69 192.4 212.54 185.57 217.61 178.04 221.4 165.75 222.47 163.14 222.46 165.35 213.75 165.35 193 166.13 189.96 165.44 187.92 165.44 187.9 161.25 187.12 151.4 182.03 147.56 178.49 145.15 171.77 144.74 170.55 143.03 162.18 142.85 157.43 147.13 152.97 155.03 149.06 163.81 146.28 171.02 145.22 174.24 143.58 182.09 133.26 182.99 132.6 184.36 131.55 186.97 130.01 190.2 128.82 194.3 128.18 190.89 121.96 188.86 119.23 186.8 116.49 181.54 111.35 174.59 106.21 148.17 90.83 142.85 84.28 154.36 84.64 165.26 88.97 186.77 101.35 207.29 106.47 212.69 109.9 221.15 117.22 223.24 121.09 223.24 121.1 218.88 123.3 219.84 125.74 221.12 128.18 218.88 130.59 218.91 130.6 226.38 135.59 244.02 131.32 276.28 118.63 284.97 119.46 304.01 124.66 326.47 134.69 343.42 137.91 343.47 137.91 Z M 281.69 91.24 286.22 104.88 286.92 108.44 286.92 108.44 282.5 108.68 279.71 109.74 279.3 110.35 278.52 111.64 277.12 112.35 272.39 108.88 270.5 108.56 258.9 108.87 255.59 107.91 230.19 86.11 219.29 79.12 219.26 79.12 215.37 77.42 215.36 77.42 222.89 64.36 227.72 54.16 227.74 54.13 244.83 72.55 255.94 79.47 281.69 91.24 281.69 91.24 Z" fill-rule="evenodd" id="LKA-2460" data-name="Kilinŏchchi"/>
<path d="M 302.17 720.45 300.51 726.28 301.43 732.53 304.6 734.31 307.3 735.05 309.85 740.61 313.39 746.51 315.83 752.64 315.94 758.8 317.23 759.69 319.04 762.26 320.07 774.19 322.06 785.24 328.6 791.59 328.45 795.78 327.41 800 327.49 803.24 326.2 806.31 321.14 810.89 320.25 818.43 323.83 825.59 326.01 829.16 327.82 832.93 328.82 837.39 328.08 841.71 326.09 844.41 325.9 848.1 321.62 850.06 317.41 851.14 320.29 855.67 322.43 860.53 318.59 862.35 313.46 861.47 308.22 864.37 308.78 868.35 308.26 872.06 302.13 871.6 296.6 867.67 291.47 867.68 290.32 874.82 288.81 876.77 287.59 878.86 287.88 881.2 288.48 882.86 282.05 884.73 274.67 883.93 271.39 877.04 266.18 871.69 257.66 870.54 249.79 873.66 248.54 880.43 248.95 887.76 247.76 891.97 245.18 895.43 241.38 895.58 223.92 899.45 215.54 903.33 207.72 908.92 200.34 915.46 193.06 919.66 186.83 915.12 177.93 905.05 175.86 902.11 174.87 899.06 171.62 895.52 161.69 897.28 152.94 903.43 142.61 906.48 132.75 899.57 124.19 899.93 110.57 910.53 102.97 913.49 102.12 892.25 88.91 821.86 88.28 809.56 88.98 797.26 92.82 787.46 98.17 778.39 99.54 774.34 102.05 770.81 107.25 769.48 111.46 767.18 109.5 763.92 105.11 762.83 106.92 758.17 109.35 754.04 113.97 752.59 119.1 752.2 122.97 750.58 125.48 747.34 124.12 743.56 122.2 739.6 123.34 730.15 126.74 721.49 127.4 717.25 128.69 713.4 133.31 710.96 137.66 708.03 138.7 704.18 140.39 700.52 147.96 696.62 149.4 693.37 149.92 689.77 152.13 684.78 157.41 682.37 157 682.95 156.75 683.59 159 682.9 161.73 680.1 161.8 675.72 163.87 672.29 171.29 676.44 175.79 672.99 171.51 665.07 173.58 660.87 176.27 656.83 176.64 648.72 176.34 639.11 177.75 634.42 178.63 630.17 174.35 627.5 169.48 625.82 166.12 619.4 164.79 612.42 161.03 598.3 161.21 591.13 160.55 584.32 168.26 588.57 201.18 603.56 208.23 605.32 215.06 608.04 220.41 611.86 227.02 612.83 238.87 617.36 249.61 626.01 255.44 631.85 261.9 635.81 268.62 635.59 274.01 639.98 274.12 644.45 273.49 648.95 274.52 656.57 274.04 663.07 274.71 669.28 279.69 671.36 285.45 671.77 288.4 676.69 289.32 682.67 292.68 690.95 294.45 699.39 293.09 711.79 302.17 720.45 Z" id="LKA-2461" data-name="Kuruṇægala"/>
<path d="M 135.52 466.15 137.55 480.89 131.06 494.56 119.91 503.6 119.43 506.11 117.81 509.32 111.79 512.07 107.88 520.91 113.12 530.93 122.01 566.93 124.23 573.27 131.65 573.23 137.66 570.52 144.05 575.27 151.28 575.01 156.56 579.2 160.55 584.32 161.21 591.13 161.03 598.3 164.79 612.42 166.12 619.4 169.48 625.82 174.35 627.5 178.63 630.17 177.75 634.42 176.34 639.11 176.64 648.72 176.27 656.83 173.58 660.87 171.51 665.07 175.79 672.99 171.29 676.44 163.87 672.29 161.8 675.72 161.73 680.1 159 682.9 156.75 683.59 157 682.95 157.41 682.37 152.13 684.78 149.92 689.77 149.4 693.37 147.96 696.62 140.39 700.52 138.7 704.18 137.66 708.03 133.31 710.96 128.69 713.4 127.4 717.25 126.74 721.49 123.34 730.15 122.2 739.6 124.12 743.56 125.48 747.34 122.97 750.58 119.1 752.2 113.97 752.59 109.35 754.04 106.92 758.17 105.11 762.83 109.5 763.92 111.46 767.18 107.25 769.48 102.05 770.81 99.54 774.34 98.17 778.39 92.82 787.46 88.98 797.26 88.28 809.56 88.91 821.86 102.12 892.25 102.97 913.49 96.73 911.09 91.49 914.33 87.28 913.82 84.51 910.75 77.61 911.63 70.97 913.36 62.48 912.94 62.47 912.94 47.04 800.87 44.86 796.25 46.34 794.68 47.44 794.52 50 796.25 50.58 790.08 52.35 782.91 52.79 779.48 53.23 776.04 51.22 770.66 48.52 765.74 47.99 762.47 47.47 759.2 47.5 746.03 39.28 706 38.32 701.38 34.07 692.59 30.47 674.12 24.63 659.54 15.65 619.28 15.65 607.84 17.1 608.49 17.19 608.6 17.3 608.7 17.3 609.06 18.09 610.28 19.37 603.64 17.48 582.54 15.65 576.15 21.52 572.31 27.07 565.21 31.08 557.11 32.68 550.31 34.31 545.87 44.86 529.37 44.74 529.65 39.42 542.1 32.68 553.97 34.16 556.87 34.54 557.58 37.18 560.19 40.64 561.56 44.86 561.53 41.4 571.24 37.79 578.36 36.22 579.59 34.57 579.77 33.26 580.77 32.68 584.56 33 593 32.68 595.63 26.63 614.77 26.87 618.32 27.33 625.41 33.58 632.78 35.35 634.87 28.2 649.69 39.6 657.9 56.16 659.19 64.59 653.28 62.99 646.92 60.29 641.93 59.24 640.03 57.96 638.46 54.79 634.51 51.22 632.24 50.17 628.37 62.21 605.62 61.74 601.49 60.2 598.44 58.43 595.88 57.32 593.21 57.03 588.91 57.44 581.5 57.32 578.44 57.32 578.36 57.12 577.78 56.16 575.23 55.58 574.71 54.88 574.06 54.18 572.6 54.88 568.61 56.57 565.22 61.25 559.15 62.21 555.19 62.96 547.73 66.3 532.77 69.7 497.9 71.88 493.93 74.24 491.97 76.04 489.6 76.8 484.38 76.8 469.52 78.86 462.22 83.71 457.53 89.47 453.65 92.78 450.1 96.88 452.46 106.29 456.02 116.85 456.99 126 460.83 135.52 466.15 Z" id="LKA-2462" data-name="Puttalama"/>
<path d="M 301.06 1071.61 300.8 1077.46 303.24 1080.1 300.51 1082.65 299.22 1086.31 306.56 1091.88 315.27 1092.59 333.8 1096.74 353.4 1099.39 360.93 1098.14 369.79 1097.44 381.63 1097.83 392.78 1096.32 413.01 1085.81 413.97 1098.94 416.63 1097.64 419.25 1096.62 424.12 1101.95 430.28 1103.84 429.43 1107.18 428.29 1109.95 426.92 1111.35 417.25 1115.73 415.55 1120.42 419.32 1126.32 424.78 1130.71 432.94 1132.25 441.54 1128.77 448.81 1123.43 455.34 1123.09 449.47 1131.93 445.78 1141.13 439.25 1148.94 435.85 1156.86 432.35 1172.34 425.59 1181.89 420.21 1192.03 421.28 1197.91 423.53 1203.54 423.82 1225.61 427.81 1233.25 432.87 1239.96 439.69 1243.62 446.19 1248.17 449.62 1254.69 452.43 1263.01 459 1270.3 462.32 1279.39 460.51 1285.66 453.02 1283.2 439.92 1280.56 435.74 1275.75 430.32 1271.5 423.49 1272.16 416.7 1273.77 409.83 1272.72 383.63 1263.24 363.22 1259.35 363.22 1255.95 365.1 1254.04 360.52 1250.65 360.82 1247.3 356.83 1242.39 348.27 1243.82 341.85 1242.69 344.21 1236.34 339.04 1226.87 323.35 1228.93 317.26 1228.98 314.79 1234.76 307.78 1236.38 300.8 1237.37 297.74 1232.96 291.98 1233.15 280.87 1227.7 275.56 1227.57 269.54 1225.14 264.67 1221.04 260.31 1216.56 247.4 1194.23 232.3 1173.1 230.42 1167.04 235.81 1164.98 230.64 1155.16 222.67 1147.91 217.68 1145.99 213.73 1142.31 211.63 1131.9 200.74 1121.39 197.27 1114.25 194.98 1107.53 195.5 1101.83 189.26 1085.44 188.08 1078.09 195.94 1071.09 187.16 1061.81 189 1057.58 190.52 1052.6 194.39 1046.5 198.97 1040.93 204.51 1038.42 219.31 1053.42 223.74 1059.01 229.2 1063.25 231.78 1061.85 235.4 1061.06 237.98 1064.15 239.68 1067.64 248.61 1069.62 259.46 1063.52 263.93 1063.03 269.32 1063.22 277 1067.61 286.85 1070.85 293.94 1071.86 301.06 1071.61 Z" id="LKA-2463" data-name="Ratnapura"/>
<path d="M 260.31 1216.56 264.67 1221.04 269.54 1225.14 275.56 1227.57 280.87 1227.7 291.98 1233.15 297.74 1232.96 300.8 1237.37 293.46 1239.56 288.62 1244.41 292.83 1250.79 298.33 1256.3 296.23 1266.39 285.19 1263.86 278.36 1257.49 270.83 1251.84 264.93 1250.11 259.21 1251.63 262.71 1258.25 269.8 1262.75 277.37 1273.5 280.02 1283.7 273.79 1291.32 261.24 1289.14 264.96 1293.53 266.66 1299.34 264.08 1306.72 260.87 1313.65 263.16 1320.62 268.66 1325.8 275.04 1330.11 280.65 1335.18 275.82 1340.97 270.13 1346.71 265.19 1348.66 263.08 1352.03 264.19 1355.74 266.99 1357.2 273.27 1359.88 271.09 1364.21 264.67 1366.57 260.68 1373.51 260.76 1377.42 261.38 1381.19 261.42 1381.54 259.13 1381.21 257.42 1380.45 256.23 1378.77 254.72 1377.1 251.93 1376.33 250.27 1376.91 248.96 1378.07 247.57 1379.06 245.71 1379 245.07 1378.48 244.49 1377.97 242.22 1374.76 241.11 1374.09 240.82 1373.92 240.82 1373.89 238.3 1373 223.04 1367.55 216.79 1366.27 212.34 1365.34 204.58 1359.14 202.84 1358.29 199.41 1356.64 199.35 1356.61 196.74 1359.27 190.08 1353.92 160.99 1323.22 158.61 1321.36 158.58 1321.34 158.32 1321.01 157.5 1320.03 157.07 1318.54 157.07 1318.52 157.18 1315.5 156.28 1313.93 155.06 1312.35 151.83 1308.15 135.36 1273.5 134.66 1270.19 134.66 1270.16 134.75 1267.2 134.83 1264.23 134.83 1264.2 134.22 1262.4 131.26 1256.26 128.24 1239.59 121.67 1227.88 117.54 1211.12 120.02 1211.67 121.94 1214.35 124.01 1216.26 126.33 1214.66 129.95 1213.23 132.57 1215.73 134.38 1218.79 147.48 1224.84 154.01 1226.16 161.1 1229.24 166.86 1234.28 172.8 1238.25 188.27 1241.17 198.01 1235.73 208.86 1234.81 219.42 1242.88 224.92 1248.16 230.49 1252.6 231.19 1245.44 228.5 1237.67 228.5 1230.02 235.1 1227.12 247.58 1219.45 260.31 1216.56 Z" id="LKA-2464" data-name="Gālla"/>
<path d="M 735.34 1186.39 724.43 1203.58 713.21 1214.75 692.49 1229.39 685.71 1231.41 676.65 1236.25 610.35 1288.12 597.1 1295.27 554.06 1310.5 554.03 1310.5 553.45 1305.34 553.42 1305.04 550.86 1303.03 550.81 1303.05 550.22 1303.19 548.07 1303.77 546.71 1306.64 546.01 1312.65 544.06 1314.92 540.92 1315.76 536.77 1317.59 529.01 1322.26 521.25 1325.66 484.08 1333.61 466.06 1339.77 446.3 1343.34 437.29 1346.8 431.88 1354.39 422.2 1352.5 416.25 1354.78 412.87 1356.09 399.13 1366.21 385.38 1376.33 384.52 1377.32 384.51 1377.32 382.52 1376.21 373.44 1372.11 369.23 1365.58 371.78 1364.17 371.96 1361.2 368.9 1359.56 365.43 1359.23 360.49 1355.98 359.64 1350.29 371.23 1345.37 367.28 1331.63 370.56 1328.66 371.82 1325.55 367.9 1324.7 363.7 1325.38 357.83 1322.24 356.61 1316.17 358.71 1312.93 360.45 1309.22 358.53 1307.28 355.36 1307.84 348.6 1305.3 342.4 1300.96 346.76 1285.59 360.45 1275.27 358.05 1269.61 360.45 1263.34 359.86 1260.66 363.22 1259.35 383.63 1263.24 409.83 1272.72 416.7 1273.77 423.49 1272.16 430.32 1271.5 435.74 1275.75 439.92 1280.56 453.02 1283.2 460.51 1285.66 462.32 1279.39 459 1270.3 452.43 1263.01 461.21 1257.28 470.22 1252.43 480.29 1249.17 488.04 1243.32 484.61 1235.32 486.35 1227.22 490.85 1227.26 495.69 1226.89 498.64 1222.75 498.56 1218.01 502.96 1221.14 506.35 1217.29 515.32 1217.21 524.18 1218.35 530.27 1220.52 533 1227.04 536.54 1227.53 540.38 1227.36 543.63 1225.05 548.13 1224.57 554.81 1233.27 560.28 1242.48 569.21 1246.18 578.99 1240.86 582.5 1237.35 587.96 1235.08 598.37 1232.35 619.59 1224.15 623.5 1221.35 624.39 1222.38 627.53 1222.83 637.05 1219.36 647.01 1221.63 651.66 1214.05 651.66 1210.94 651.44 1208.01 653.07 1205.81 654.62 1203.29 652.77 1198.49 652.62 1192.45 659.67 1186.86 668.16 1183.05 674.66 1176.82 682.23 1171.1 691.82 1169.32 698.21 1161.92 708.87 1175 712.97 1175.26 717.55 1175.89 723.49 1182.64 732.16 1185.34 735.34 1186.39 735.34 1186.39 Z" id="LKA-2465" data-name="Hambantŏṭa"/>
<path d="M 363.22 1259.35 359.86 1260.66 360.45 1263.34 358.05 1269.61 360.45 1275.27 346.76 1285.59 342.4 1300.96 348.6 1305.3 355.36 1307.84 358.53 1307.28 360.45 1309.22 358.71 1312.93 356.61 1316.17 357.83 1322.24 363.7 1325.38 367.9 1324.7 371.82 1325.55 370.56 1328.66 367.28 1331.63 371.23 1345.37 359.64 1350.29 360.49 1355.98 365.43 1359.23 368.9 1359.56 371.96 1361.2 371.78 1364.17 369.23 1365.58 373.44 1372.11 382.52 1376.21 384.51 1377.32 384.52 1377.32 379.05 1383.65 364.43 1382.79 364.4 1382.78 358.3 1383.65 353.53 1385.45 348.62 1388.24 339.93 1394.72 337.43 1395.31 334.93 1395.86 329 1393.58 322.72 1390.35 319.12 1389.26 316.62 1388.52 295.96 1390.96 290.06 1389.81 287.06 1386.86 285.14 1382.98 283.63 1380.72 282.5 1379.02 282.5 1379 276.46 1382.52 271.05 1382.93 261.43 1381.54 261.42 1381.54 261.38 1381.19 260.76 1377.42 260.68 1373.51 264.67 1366.57 271.09 1364.21 273.27 1359.88 266.99 1357.2 264.19 1355.74 263.08 1352.03 265.19 1348.66 270.13 1346.71 275.82 1340.97 280.65 1335.18 275.04 1330.11 268.66 1325.8 263.16 1320.62 260.87 1313.65 264.08 1306.72 266.66 1299.34 264.96 1293.53 261.24 1289.14 273.79 1291.32 280.02 1283.7 277.37 1273.5 269.8 1262.75 262.71 1258.25 259.21 1251.63 264.93 1250.11 270.83 1251.84 278.36 1257.49 285.19 1263.86 296.23 1266.39 298.33 1256.3 292.83 1250.79 288.62 1244.41 293.46 1239.56 300.8 1237.37 307.78 1236.38 314.79 1234.76 317.26 1228.98 323.35 1228.93 339.04 1226.87 344.21 1236.34 341.85 1242.69 348.27 1243.82 356.83 1242.39 360.82 1247.3 360.52 1250.65 365.1 1254.04 363.22 1255.95 363.22 1259.35 Z" id="LKA-2466" data-name="Mātara"/>
<path d="M 577.66 912.63 563.75 915.95 563.78 923.32 561.01 930.06 551.2 942.35 547.99 947.86 542.04 950.33 537.06 944.98 531.19 944.27 526.98 950.57 525.91 957.81 530.38 963.5 535.84 968.86 539.42 976.19 543.63 980.57 556.77 977.12 560.61 982.01 562.57 983.7 565.19 986.91 567.07 991.67 568.03 996.66 568.03 1003.3 566.37 1009.72 565.04 1019.63 563.12 1023.51 560.72 1027.2 559.8 1032.76 557.95 1037.93 553.3 1038.92 549.76 1037.39 547.58 1039.58 545.99 1042.39 542.38 1046.93 537.87 1050.56 528.76 1053.09 521.08 1057.3 529.83 1069.38 519.45 1072.52 516.35 1078.5 504.25 1079.55 503.36 1087.06 504.1 1094.73 501.07 1101.2 502.48 1105.85 508.71 1107.53 509.16 1113.84 503.88 1121.99 503.14 1127.25 503.18 1132.7 506.54 1142.63 511.85 1150.93 504.43 1153.58 503.33 1162.06 499.41 1160.19 495.61 1157.72 490.55 1165.54 489.15 1175.01 486.05 1170.07 481.92 1164.99 480.33 1153.59 477.93 1152.18 475.42 1150.98 472.99 1143.15 469.66 1135.81 466.82 1135.21 464.05 1133.75 462.36 1127.6 459.59 1123.31 455.34 1123.09 448.81 1123.43 441.54 1128.77 432.94 1132.25 424.78 1130.71 419.32 1126.32 415.55 1120.42 417.25 1115.73 426.92 1111.35 428.29 1109.95 429.43 1107.18 430.28 1103.84 424.12 1101.95 419.25 1096.62 416.63 1097.64 413.97 1098.94 413.01 1085.81 419.76 1084.14 423.42 1078.99 420.13 1077.34 416.85 1075.25 422.09 1066.76 420.69 1064.35 418.88 1062.16 416.85 1056.68 414.48 1051.7 403.08 1046 402.67 1040.3 409.13 1039.99 415.81 1040.37 420.61 1034.88 422.35 1027.8 427.99 1022.65 434.45 1019.59 447.96 1016.67 455.9 1004.95 457.52 997.99 460.81 991.68 463.68 989.06 466.01 986.1 467.19 983.46 466.67 980.98 464.72 974.65 466.45 971.35 468.89 968.36 467.6 966.53 465.97 964.61 465.23 961.6 466.01 958.35 463.32 949.44 463.61 943.01 468.15 940.27 475.79 938.13 485.42 929.23 486.05 917.65 478.23 891.81 475.09 837.89 473.35 808.68 476.79 791.89 477.78 792.84 483.17 796.13 485.5 801.21 485.98 807.04 488.82 815.6 497.6 830.17 504.1 827.9 507.68 827.08 512 825.43 519.6 818.45 537.13 808.69 553.01 812.11 554.37 829.97 550.61 847.32 548.61 851 547.62 854.22 548.69 858.62 550.13 863.06 552.45 878.78 556.4 887.14 561.75 892.39 564.85 891.64 569.25 892.47 570.72 895.65 573.2 899.79 576.41 906.23 577.66 912.63 Z" id="LKA-2467" data-name="Badulla"/>
<path d="M 698.21 1161.92 691.82 1169.32 682.23 1171.1 674.66 1176.82 668.16 1183.05 659.67 1186.86 652.62 1192.45 652.77 1198.49 654.62 1203.29 653.07 1205.81 651.44 1208.01 651.66 1210.94 651.66 1214.05 647.01 1221.63 637.05 1219.36 627.53 1222.83 624.39 1222.38 623.5 1221.35 619.59 1224.15 598.37 1232.35 587.96 1235.08 582.5 1237.35 578.99 1240.86 569.21 1246.18 560.28 1242.48 554.81 1233.27 548.13 1224.57 543.63 1225.05 540.38 1227.36 536.54 1227.53 533 1227.04 530.27 1220.52 524.18 1218.35 515.32 1217.21 506.35 1217.29 502.96 1221.14 498.56 1218.01 498.64 1222.75 495.69 1226.89 490.85 1227.26 486.35 1227.22 484.61 1235.32 488.04 1243.32 480.29 1249.17 470.22 1252.43 461.21 1257.28 452.43 1263.01 449.62 1254.69 446.19 1248.17 439.69 1243.62 432.87 1239.96 427.81 1233.25 423.82 1225.61 423.53 1203.54 421.28 1197.91 420.21 1192.03 425.59 1181.89 432.35 1172.34 435.85 1156.86 439.25 1148.94 445.78 1141.13 449.47 1131.93 455.34 1123.09 459.59 1123.31 462.36 1127.6 464.05 1133.75 466.82 1135.21 469.66 1135.81 472.99 1143.15 475.42 1150.98 477.93 1152.18 480.33 1153.59 481.92 1164.99 486.05 1170.07 489.15 1175.01 490.55 1165.54 495.61 1157.72 499.41 1160.19 503.33 1162.06 504.43 1153.58 511.85 1150.93 506.54 1142.63 503.18 1132.7 503.14 1127.25 503.88 1121.99 509.16 1113.84 508.71 1107.53 502.48 1105.85 501.07 1101.2 504.1 1094.73 503.36 1087.06 504.25 1079.55 516.35 1078.5 519.45 1072.52 529.83 1069.38 521.08 1057.3 528.76 1053.09 537.87 1050.56 542.38 1046.93 545.99 1042.39 547.58 1039.58 549.76 1037.39 553.3 1038.92 557.95 1037.93 559.8 1032.76 560.72 1027.2 563.12 1023.51 565.04 1019.63 566.37 1009.72 568.03 1003.3 568.03 996.66 567.07 991.67 565.19 986.91 562.57 983.7 560.61 982.01 556.77 977.12 543.63 980.57 539.42 976.19 535.84 968.86 530.38 963.5 525.91 957.81 526.98 950.57 531.19 944.27 537.06 944.98 542.04 950.33 547.99 947.86 551.2 942.35 561.01 930.06 563.78 923.32 563.75 915.95 577.66 912.63 580.47 919.55 583.6 925.35 590.84 922.85 597.48 918.02 595.6 904.7 595.56 890.99 604.42 891.38 611.65 887.4 613.32 884.89 615.79 881.92 617.41 878.4 617.01 874.2 615.05 869.99 614.98 865.33 618.63 865.05 623.58 863.78 626.01 859.96 627.34 856.61 631.29 854.86 635.61 853.37 644.54 848.61 651.55 850.51 646.28 858.64 648.53 860 650.89 860.42 650.19 865.21 654.43 884.02 653.92 892.55 655.36 899.43 663.25 906.25 668.24 914.9 669.27 922.58 677.02 933.25 671.23 937.79 663.77 946.56 659.6 957.65 664.21 965.99 665.65 971.52 668.42 976.42 671.3 977.68 673.96 977.68 676.17 978.99 678.02 980.61 690.75 983.88 701.31 990.2 700.61 996.91 698.95 1003.96 701.42 1010.82 701.46 1017.72 705.74 1023.83 707.51 1030.89 698.21 1161.92 Z" id="LKA-2468" data-name="Mŏṇarāgala"/>
<path d="M 274.67 883.93 279.06 894.88 294.49 908.33 293.9 915.22 296.93 917.32 306.01 922.31 310.33 927.55 309.48 933.91 309.55 939.14 314.72 944.26 318.89 949.45 316.86 954.15 314.05 958.54 310.18 959.45 306.27 959.68 300.66 965.72 288.29 967.73 284.19 971.48 289.62 984.36 292.2 988.81 289.62 994.3 289.44 1001.37 289.91 1002.53 291.1 1002.85 287.96 1007.89 283.01 1012.22 280.28 1013.14 278.33 1015.79 280.32 1018.51 282.61 1020.83 280.1 1034.09 283.2 1044.43 293.57 1047.77 301.84 1053.88 304.57 1063.25 305.16 1068.03 301.06 1071.61 293.94 1071.86 286.85 1070.85 277 1067.61 269.32 1063.22 263.93 1063.03 259.46 1063.52 248.61 1069.62 239.68 1067.64 237.98 1064.15 235.4 1061.06 231.78 1061.85 229.2 1063.25 223.74 1059.01 219.31 1053.42 204.51 1038.42 198.97 1040.93 198.79 1037.45 198.31 1034 203.07 1029.57 201.96 1023.08 195.8 1019.96 188.04 1019.44 189.12 1016.51 189.04 1013.25 183.73 996.3 185.57 985.9 190.11 975.5 195.28 971.95 197.97 965.89 190.44 963.7 181.73 965.76 177.38 956.81 178.89 946.69 184.54 943.79 189.19 939.44 190.15 927.17 193.66 924.4 193.06 919.66 200.34 915.46 207.72 908.92 215.54 903.33 223.92 899.45 241.38 895.58 245.18 895.43 247.76 891.97 248.95 887.76 248.54 880.43 249.79 873.66 257.66 870.54 266.18 871.69 271.39 877.04 274.67 883.93 Z" id="LKA-2469" data-name="Kægalla"/>
<path d="M 198.97 1040.93 194.39 1046.5 190.52 1052.6 189 1057.58 187.16 1061.81 195.94 1071.09 188.08 1078.09 177.64 1075.69 166.05 1080.57 168.34 1090.92 161.36 1089.13 156.75 1078.41 154.9 1077.35 152.61 1076.93 148.22 1082 142.65 1084.84 138.73 1083 134.75 1083.46 121.02 1095.22 117.07 1096.98 112.9 1097.95 102.6 1101.79 86.06 1091.61 85.66 1097.53 87.84 1104.16 88.98 1108.71 89.05 1113.15 88.91 1113.39 88.35 1114.34 88.35 1114.35 75.02 1080.35 70.17 1053.38 69.7 1050.71 69.7 1025.02 70.11 1024.02 70.11 1024.01 77.8 1026.99 83.7 1030.06 90.01 1031.56 92.82 1030.02 96.07 1028.71 113.82 1033.91 119.98 1032.69 126.07 1032.24 130.91 1035.2 135.12 1039.11 139.18 1041.31 143.31 1042.92 149.62 1043.69 157.3 1043.28 157.71 1036.29 159.14 1029.56 164.83 1023.97 171.88 1020.71 181.55 1021.73 188.04 1019.44 195.8 1019.96 201.96 1023.08 203.07 1029.57 198.31 1034 198.79 1037.45 198.97 1040.93 Z" id="LKA-2470" data-name="Kŏḷamba"/>
<path d="M 193.06 919.66 193.66 924.4 190.15 927.17 189.19 939.44 184.54 943.79 178.89 946.69 177.38 956.81 181.73 965.76 190.44 963.7 197.97 965.89 195.28 971.95 190.11 975.5 185.57 985.9 183.73 996.3 189.04 1013.25 189.12 1016.51 188.04 1019.44 181.55 1021.73 171.88 1020.71 164.83 1023.97 159.14 1029.56 157.71 1036.29 157.3 1043.28 149.62 1043.69 143.31 1042.92 139.18 1041.31 135.12 1039.11 130.91 1035.2 126.07 1032.24 119.98 1032.69 113.82 1033.91 96.07 1028.71 92.82 1030.02 90.01 1031.56 83.7 1030.06 77.8 1026.99 70.11 1024.01 73.66 1015.55 74.59 1011.48 74.5 1007.34 74.5 1007.26 57.41 946.96 59.76 938.11 59.65 943.56 60.99 946.99 62.9 949.63 64.59 952.76 68.02 964.71 69.7 967.59 71.91 967.59 72.44 964.18 73.45 962.74 74.35 962.51 74.38 962.51 74.59 962.71 74.59 962.69 74.5 951.78 74.5 951.71 73.71 946.93 71.91 942.99 70.23 941.84 65.52 940.83 63.43 939.43 63.19 938.94 61.92 936.36 62.5 933.53 63.86 930.89 64.59 928.36 62.47 912.94 62.48 912.94 70.97 913.36 77.61 911.63 84.51 910.75 87.28 913.82 91.49 914.33 96.73 911.09 102.97 913.49 110.57 910.53 124.19 899.93 132.75 899.57 142.61 906.48 152.94 903.43 161.69 897.28 171.62 895.52 174.87 899.06 175.86 902.11 177.93 905.05 186.83 915.12 193.06 919.66 Z" id="LKA-2471" data-name="Gampaha"/>
<path d="M 188.08 1078.09 189.26 1085.44 195.5 1101.83 194.98 1107.53 197.27 1114.25 200.74 1121.39 211.63 1131.9 213.73 1142.31 217.68 1145.99 222.67 1147.91 230.64 1155.16 235.81 1164.98 230.42 1167.04 232.3 1173.1 247.4 1194.23 260.31 1216.56 247.58 1219.45 235.1 1227.12 228.5 1230.02 228.5 1237.67 231.19 1245.44 230.49 1252.6 224.92 1248.16 219.42 1242.88 208.86 1234.81 198.01 1235.73 188.27 1241.17 172.8 1238.25 166.86 1234.28 161.1 1229.24 154.01 1226.16 147.48 1224.84 134.38 1218.79 132.57 1215.73 129.95 1213.23 126.33 1214.66 124.01 1216.26 121.94 1214.35 120.02 1211.67 117.54 1211.12 116.03 1204.99 115.27 1204.39 113.73 1203.46 112.14 1202.07 111.15 1200.11 111.55 1198.01 113.3 1197.51 115.13 1197.71 115.16 1197.71 116.03 1197.67 113.3 1178.94 113.07 1177.44 105.63 1158.43 88.35 1114.35 88.35 1114.34 88.91 1113.39 89.05 1113.15 88.98 1108.71 87.84 1104.16 85.66 1097.53 86.06 1091.61 102.6 1101.79 112.9 1097.95 117.07 1096.98 121.02 1095.22 134.75 1083.46 138.73 1083 142.65 1084.84 148.22 1082 152.61 1076.93 154.9 1077.35 156.75 1078.41 161.36 1089.13 168.34 1090.92 166.05 1080.57 177.64 1075.69 188.08 1078.09 Z" id="LKA-2472" data-name="Kaḷutara"/>
</g>
</svg>