<?xml version="1.0"?>
<svg xmlns="http://www.w3.org/2000/svg" version="1.2" baseProfile="tiny" width="800" height="475" viewBox="0 0 800 475" stroke-linecap="round" stroke-linejoin="round">
<g id="ne_10m_admin_1_states_provinces">
<path d="M 204.08 388.11 203.96 388.15 203.96 389.81 206.79 392.17 207.49 395 206.79 398.55 203.73 402.56 200.64 404.69 198.04 406.11 196.85 409.18 196.85 412.72 199.01 414.61 204.44 415.32 205.79 416.17 205.79 419 206.56 421.64 208.07 423.92 210.71 425.99 212.8 427.88 213.54 429.77 213.54 432.23 215.82 433.74 219.19 433.74 224.5 433.55 228.84 433.55 233.02 435.25 236.39 438.85 237.74 440.93 237.74 443.38 240.93 444.13 244.14 444.13 248.51 444.32 250.19 445.27 251.54 449.24 251.15 453.21 254.37 454.72 255.11 456.23 254.72 458.3 253.59 460.2 252.85 463.6 251.7 467.19 251.34 467.61 250.38 469.77 250.37 469.8 238.93 467.98 230.83 467.64 208.78 472.69 163.09 474.1 162.97 465.84 160.43 459.99 155.22 456.16 139.75 452.68 123.33 450.88 123.06 450.93 123.04 450.85 122.56 448.88 122.07 446.97 122.07 444.13 122.07 440.54 123.23 436.39 124.74 432.79 128.31 430.72 133.04 430.34 136.25 430.15 138.73 428.07 139.27 424.67 139.27 421.85 137.57 418.82 135.86 417.3 135.7 414.47 135.7 412.76 137.22 411.63 139.85 410.69 140.24 408.23 140.24 405.02 140.43 400.86 141.94 394.25 144.19 389.34 147.21 386.5 150.43 383.29 154.03 380.65 161.2 377.43 166.5 374.97 172.9 372.34 179.52 368.55 183.32 365.34 186.15 361.34 186.53 360.8 187.46 363.45 189.55 365.34 192.38 365.34 195.4 365.52 196.72 367.98 198.23 374.41 198.23 378.38 199.94 383.29 203.15 387.07 204.08 388.11 Z" id="MKD-2894" data-name="Resen"/>
<path d="M 22.31 361.89 18.39 353.99 16.95 349.41 39.55 348.39 48.91 349.24 56.4 350.77 57.76 352.99 55.89 355.71 47.89 358.43 22.31 361.89 Z" id="MKD-2895" data-name="Vevčani"/>
<path d="M 271.57 361.86 272.02 362.23 274.33 364.83 274.33 367.43 273.11 369.56 271.57 371.4 271.57 374.46 272.63 377.21 274.33 379.96 277.06 382.41 280.12 383.93 284.26 385 286.1 386.39 286.71 388.52 286.87 390.51 286.55 392.8 286.55 395.71 286.39 398.76 287.16 400.45 288.7 401.67 291.14 402.74 293.59 403.2 295.26 403.2 298.47 401.67 300.76 400.45 302.3 400.14 304.29 400.14 306.9 400.6 307.67 401.13 307.03 402.47 307.03 405.66 306.29 407.53 305.16 408.84 304.97 411.09 305.55 414.28 306.48 415.59 307.96 416.72 310.21 418.59 310.79 421.4 310.98 425.72 311.17 428.16 314.9 428.72 317.89 429.46 319.21 431.72 323.16 435.28 327.28 438.65 330.66 442.4 331.59 445.02 331.78 447.84 332.91 451.58 332.91 454.4 332.81 454.78 331.23 458.04 331.21 458.08 307.48 455.57 299.86 455.68 292.49 458.21 281.18 466.74 276.32 468.85 265.78 470.53 255.07 470.55 250.37 469.8 250.38 469.77 251.34 467.61 251.7 467.19 252.85 463.6 253.59 460.2 254.72 458.3 255.11 456.23 254.37 454.72 251.15 453.21 251.54 449.24 250.19 445.27 248.51 444.32 244.14 444.13 240.93 444.13 237.74 443.38 237.74 440.93 236.39 438.85 233.02 435.25 228.84 433.55 224.5 433.55 219.19 433.74 215.82 433.74 213.54 432.23 213.54 429.77 212.8 427.88 210.71 425.99 208.07 423.92 206.56 421.64 205.79 419 205.79 416.17 204.44 415.32 199.01 414.61 196.85 412.72 196.85 409.18 198.04 406.11 200.64 404.69 203.73 402.56 206.79 398.55 207.49 395 206.79 392.17 203.96 389.81 203.96 388.15 204.08 388.11 207.49 386.97 211.74 385.56 214.57 384.38 218.58 383.9 221.9 383.67 225.91 382.25 229.23 381.06 232.76 377.53 237.49 375.4 241.51 375.17 243.89 372.34 245.52 369.97 248.35 369.73 251.89 368.31 257.58 365.01 260.63 360.99 263.46 359.33 264.07 359.2 265.59 358.87 267.48 360.52 269.6 361.69 271.57 361.86 Z" id="MKD-2896" data-name="Bitola"/>
<path d="M 217.17 307.53 219.39 308.46 224.4 310.23 226.75 311.7 226.75 314.07 226.75 316.14 231.48 315.55 236.2 316.14 239.77 316.14 241.83 318.49 241.83 322.04 241.83 326.17 241.54 329.13 241.54 330.9 242.12 332.08 244.46 332.08 247.71 331.78 250.67 330.61 253.63 331.49 257.48 335.03 258.35 338.87 259.83 342.71 263.37 345.07 265.14 347.44 265.14 350.09 265.14 353.93 264.27 356 264.07 359.2 263.46 359.33 260.63 360.99 257.58 365.01 251.89 368.31 248.35 369.73 245.52 369.97 243.89 372.34 241.51 375.17 237.49 375.4 232.76 377.53 229.23 381.06 225.91 382.25 221.9 383.67 218.58 383.9 214.57 384.38 211.74 385.56 207.49 386.97 204.08 388.11 203.15 387.07 199.94 383.29 198.23 378.38 198.23 374.41 196.72 367.98 195.4 365.52 192.38 365.34 189.55 365.34 187.46 363.45 186.53 360.8 186.15 361.34 185.76 359.85 183.7 357.28 182.74 356.08 180.49 352.31 180.49 348.71 176.89 347.2 174.8 345.12 173.09 341.71 171.78 338.89 168.75 337.56 165.73 336.43 162.71 334.54 160.46 332.65 159.69 330.19 159.69 326.97 160.07 326.4 161.97 323.57 168.95 319.61 176.31 317.15 185.02 317.35 191.26 317.35 200.48 317.02 205.5 314.66 210.23 311.12 211.13 308.75 215.85 306.99 217.17 307.53 Z" id="MKD-2897" data-name="Demir Hisar"/>
<path d="M 183.7 357.28 185.76 359.85 186.15 361.34 183.32 365.34 179.52 368.55 172.9 372.34 166.5 374.97 161.2 377.43 154.03 380.65 150.43 383.29 147.21 386.5 144.19 389.34 141.94 394.25 140.43 400.86 140.24 405.02 140.24 408.23 139.85 410.69 137.22 411.63 135.7 412.76 135.7 414.47 135.86 417.3 137.57 418.82 139.27 421.85 139.27 424.67 138.73 428.07 136.25 430.15 133.04 430.34 128.31 430.72 124.74 432.79 123.23 436.39 122.07 440.54 122.07 444.13 122.07 446.97 122.56 448.88 123.04 450.85 123.06 450.93 116.96 452.07 106.61 458.66 101.14 460.31 93.3 458.99 90.09 456.93 85.94 454.25 81.44 447.07 75.42 429.18 69.41 408.86 97.64 378.75 103.07 373.77 104.94 370.64 108.47 369.6 110.34 368.98 110.34 366.49 109.92 362.74 111.17 360.67 113.68 357.13 117.6 355.25 118.25 352.76 120.34 351.3 123.46 350.88 131.33 351.09 136.54 349.43 139.88 349.22 145.06 349.43 149.01 350.27 156.31 352.34 164.41 356.5 170.46 357.34 179.17 358.17 183.7 357.28 Z" id="MKD-2898" data-name="Ohrid"/>
<path d="M 160.07 326.4 159.69 326.97 159.69 330.19 160.46 332.65 162.71 334.54 165.73 336.43 168.75 337.56 171.78 338.89 173.09 341.71 174.8 345.12 176.89 347.2 180.49 348.71 180.49 352.31 182.74 356.08 183.7 357.28 179.17 358.17 170.46 357.34 164.41 356.5 156.31 352.34 149.01 350.27 145.06 349.43 139.88 349.22 136.54 349.43 131.33 351.09 123.46 350.88 120.34 351.3 118.25 352.76 117.6 355.25 113.68 357.13 111.17 360.67 109.92 362.74 110.34 366.49 110.34 368.98 108.47 369.6 104.94 370.64 103.07 373.77 97.64 378.75 69.41 408.86 66.23 403.84 92.34 375.5 93.4 374.09 92.66 372.72 92.88 370.85 93.49 369.19 93.49 367.94 91.82 366.69 90.79 365.65 90.18 363.37 90.18 361.28 91.21 358.99 93.07 357.34 96 354.42 98.28 348.8 99.31 341.95 98.89 339.24 96.61 336.33 94.75 334.46 92.66 332.38 90.79 329.88 90.79 326.77 90.79 322.6 89.54 314.91 86.42 309.92 82.88 305.14 79.57 300.35 76.87 295.98 76.65 295.8 79.35 293.91 89.35 294.32 103.27 294.12 111.17 293.91 120.72 294.53 127.38 295.77 137.79 295.98 139.24 295.98 141.33 300.35 144.64 305.55 145.7 309.5 145.06 313.04 147.37 316.57 153.19 318.03 155.67 320.11 158.37 324.47 160.07 326.4 Z" id="MKD-2899" data-name="Debarca"/>
<path d="M 426.75 134.26 425.66 135.98 423.92 140.26 423.76 143.69 420.29 145.61 417.68 147.1 413.05 149.69 408.84 150.91 404.89 150.77 403.12 151.46 402.86 152.54 403.25 155.13 403.67 157.44 403.67 160.44 403.25 163.02 402.57 166.02 401.09 169.15 400 172.42 399.04 175.54 398.23 176.77 396.59 177.18 392.93 176.23 391.42 174.32 389.52 172.55 387.33 172.55 387.21 173.64 385.85 174.86 384.09 176.09 382.99 177.72 381.23 177.72 380.94 177.05 381.61 175.95 381.48 173.64 380.68 173.09 379.46 173.5 377.95 174.6 375.63 174.46 372.22 174.05 369.11 172.96 369.01 172.21 368.98 171.6 369.65 170.65 370.58 169.83 371.55 168.46 371.81 164.25 372.1 156.9 372.1 152.68 370.58 151.05 367.72 151.25 363.64 149.72 360.78 149.04 358.05 149.04 356.31 148.89 355.99 148.87 352.77 148.87 350.91 148.53 350.2 146.83 350.91 144.96 351.84 144.15 352.1 143.93 354.64 141.89 355.22 141.19 355.99 140.19 358.37 139.69 361.78 137.98 365.54 136.62 367.56 134.41 370.29 134.41 372.83 136.11 375.57 137.13 378.11 136.96 381.35 136.79 383.57 136.62 384.57 135.09 383.89 132.36 382 131.03 382 129.84 382.45 128.53 383.51 127.01 385.15 124.28 386.79 121.45 387.49 121.25 389.2 122.76 393.76 124.6 396.82 125.05 399.87 126.78 401.06 129.29 402.89 129.94 404.98 129.94 407.36 129.18 409.1 128.09 412.7 127.88 417.17 127.99 420.13 129.51 422.6 132.12 425.66 133.75 426.75 134.26 Z" id="MKD-2901" data-name="Skopje"/>
<path d="M 234.63 293.78 234.27 293.91 229.8 295.9 225.98 296.9 221.16 298.23 218.33 299.23 215.98 300.39 215.43 301.27 213.79 300.35 209 298.89 204.86 297.45 202.57 294.32 201.55 292.66 199.04 292.86 196.34 293.91 196.05 293.91 194.05 293.91 190.29 294.74 188.24 292.24 188.24 289.95 187.59 287.25 186.15 284.55 186.34 282.46 187.17 281.22 191.96 280.8 197.59 282.07 197.69 282.09 200.68 281.43 202.35 281.43 205.34 281.26 208.17 280.43 210.48 279.93 212.51 279.1 214.98 277.77 218.81 277.77 220.32 278.6 220.48 279.43 220.48 281.43 220.48 283.43 220.8 284.59 221.96 286.09 223.79 287.58 227.46 288.75 230.64 289.08 233.63 290.41 234.63 292.9 234.63 293.78 Z" id="MKD-2902" data-name="Plasnica"/>
<path d="M 414.05 289.97 414.05 292.43 415.95 294.66 419.29 297.37 420.9 298.17 423.92 298.17 424.72 297.06 425.53 295.46 426.33 294.34 427.91 293.71 428.55 295.3 428.55 299.13 427.42 300.89 427.42 303.75 427.1 306.95 427.74 309.65 429.42 311.33 431.18 313.56 431.83 316.27 431.83 318.5 431.67 320.74 430.7 322.33 429.9 323.28 429.26 325.51 429.26 327.27 428.77 330.62 428.93 335.24 429.74 337.95 431.35 342.1 432.76 344.33 435.49 344.96 438.68 344.96 441.38 344.81 443.47 344.65 447.45 344.96 448.71 344.96 449.35 346.24 448.22 347.2 447.61 349.75 446.01 351.83 444.11 354.69 443.63 357.56 443.47 361.23 445.36 363.94 446.97 364.57 449.35 367.6 449.45 371.51 448.96 377.57 449.45 382.04 450.06 384.42 451.82 385.38 454.2 385.86 456.78 385.86 458.51 385.86 460.28 386.02 461.08 387.61 461.08 390.32 461.73 393.83 461.76 393.92 461.8 394.05 456.68 396.93 454.24 399.02 452.98 401.98 452.71 407.13 452.53 407.07 445.84 404.72 442.47 404.16 439.09 401.91 436.49 399.85 435.36 397.97 434.4 397.6 433.47 397.78 432.15 399.66 429.16 399.85 425.04 399.85 420.74 398.91 418.1 397.6 414.92 394.41 412.12 392.91 408.91 392.53 404.6 391.79 401.03 390.47 394.31 388.04 391.1 387.66 384.18 386.92 378.56 386.35 374.41 385.23 369.56 382.6 367.85 380.53 366.57 378.28 365.25 377.16 363 377.35 360.33 379.13 359.17 378.12 355.51 377.21 350.78 376.6 346.47 375.37 340.81 372.01 338.53 372.01 336.86 372.93 334.55 374.15 331.04 374.15 327.67 374 321.72 371.55 319.56 368.65 317.6 368.04 314.23 367.88 310.85 367.73 309.02 366.36 307.89 363.91 304.07 361.61 300.4 357.18 296.42 355.35 293.52 355.19 288.77 354.43 287.25 352.75 286.93 350.76 287.32 350.68 289.22 350.3 293.65 350.15 296.26 348.77 298.54 346.48 300.69 344.8 302.69 343.11 303.91 338.37 304.2 335.62 305.74 334.1 306.96 331.96 306.96 329.2 305.58 328.44 302.52 328.13 299.31 327.98 298.09 326.76 297.93 325.08 296.58 324.31 296.42 322.32 296.58 321.4 300.08 319.11 301.5 318.14 302.52 317.43 304.36 316.36 305.9 315.29 308.02 314.98 309.4 313.15 311.24 311.16 313.68 309.63 315.22 308.56 317.83 308.56 321.65 308.56 326.06 307.64 328.89 306.88 339.14 306.58 342.36 305.35 346.02 301.83 350.01 300.76 352.9 300 353.51 296.34 355.35 292.51 357.79 290.53 361.16 289.3 361.36 289.3 362.68 289.3 365.44 289.46 367.72 289.76 370.04 290.98 371.71 292.97 372.32 294.65 375.21 294.8 378.14 294.19 379.81 293.59 382.09 289.91 382.41 286.39 382.58 283.8 383.48 282.58 384.41 282.11 387.3 281.96 389.29 281.96 392.51 281.65 394.02 280.74 396.46 279.82 398.62 279.82 400.29 280.28 401.51 281.8 403.83 282.72 406.88 283.64 409.77 284.87 410.83 286.7 412.38 288.99 414.05 289.97 Z" id="MKD-2903" data-name="Prilep"/>
<path d="M 589.71 108.07 589.23 109.36 588.07 112.32 587.04 115.92 585.63 116.17 583.31 117.2 580.93 118.36 579.01 120.8 577.59 123.25 573.09 125.94 569.26 128.9 566.18 130.57 564.63 131.98 564.7 132.3 563.25 131.64 562.1 131.77 560.01 132.95 557.63 136.35 556.85 138.84 556.31 141.46 554.6 143.69 551.87 144.74 549.65 146.05 547.4 148.02 545.7 148.02 544.41 148.53 543.48 150.11 543.87 152.33 547.82 156.66 554.8 163.1 553.45 164.26 550.42 164.52 545.96 164.52 542.29 164.65 539.01 163.6 537.98 161.12 537.98 159.67 537.05 158.36 535.09 157.97 531.42 159.41 530.75 159.85 530.56 159.44 529.75 158.43 528.53 157.82 527.73 158.03 526.73 158.43 525.73 158.43 523.9 158.03 521.91 157.22 519.5 157.02 517.28 157.02 515.64 157.4 515.64 156.67 513.52 154.9 512.62 154.37 511.56 153.14 511.75 152.44 513.33 151.55 514.23 149.61 514.39 147.49 514.23 146.26 512.97 145.56 510.17 145.03 508.21 143.61 504.71 138.85 502.04 134.62 498.86 133.2 493.59 130.21 489.34 127.22 488.47 124.92 489.18 121.57 490.76 119.1 492.36 116.28 492.69 116.15 493.75 115.75 494.81 115.75 496.77 116.45 499.76 117.68 501.88 118.92 503.29 119.28 504.71 119.1 505.38 117.86 506.09 115.57 507.35 113.1 509.47 110.98 511.24 110.27 513.87 110.46 517.73 110.46 521.81 109.93 524.71 108.69 532.29 106.58 535.64 105.52 538.66 107.11 540.04 109.4 541.65 110.27 545.35 110.27 547.11 109.93 548.69 108.69 550.3 108.17 551.87 108.34 553.45 109.75 555.22 111.87 557.69 112.57 559.11 112.57 561.23 110.27 561.23 106.22 561.23 100.94 562.45 100.23 564.41 100.23 568.11 100.05 573.22 100.05 578.84 100.4 582.57 101.99 587.14 104.99 589.71 108.07 Z" id="MKD-2904" data-name="Probištip"/>
<path d="M 678.09 201.08 677.96 203.37 678.22 206.58 679.34 210.65 681.56 212.13 683.97 213.05 685.45 214.35 685.26 216.01 683.59 217.67 681.01 221.36 679.15 223.21 678.96 225.25 679.53 227.83 680.69 230.01 679.86 230.79 676.45 231.23 672.62 231.23 670.53 231.53 669.38 232.42 667 235.82 665.52 237.74 664.62 239.81 664.78 241.59 666.55 243.8 669.05 246.76 671.27 247.79 671.88 249.86 672.01 252.08 673.2 253.86 673.65 255.93 673.65 258.29 673.36 261.25 671.59 263.32 670.24 264.65 669.05 265.39 667.29 265.24 664.2 262.88 661.37 260.8 658.12 258.44 653.24 256.22 651.47 256.22 650.15 256.81 648.51 259.77 645.55 261.4 643.34 261.84 641.57 261.84 640.38 262.58 640.38 263.76 641.12 264.5 641.86 265.83 642.6 267.16 642.6 268.78 641.63 269.44 639.64 268.78 633.88 267.61 629.9 267.61 626.94 267.02 625.3 265.98 625.46 264.36 627.07 263.76 628.55 262.88 629.29 261.4 629.29 259.62 627.97 258.29 625.07 255.78 622.28 252.23 618 248.68 615.33 247.05 610.9 246.76 604.82 246.47 601.12 246.31 598.78 246.02 596.11 244.39 593.6 242.62 590.77 242.03 588.71 242.03 585.56 241.01 584.57 240.7 581.9 239.37 580.42 237.15 580.42 234.93 580.42 231.68 579.84 229.17 578.65 227.99 576.72 224.14 575.57 221.77 576.59 220 579.55 217.78 581.77 216.01 583.7 215.71 586.21 216.9 587.81 217.93 590.64 218.67 594.05 219.56 597.43 219.71 599.81 219.41 601.28 217.2 602.15 215.42 604.53 211.86 607.33 208.76 609.13 206.54 609.71 205.56 610.9 203.59 613.18 201.82 614.5 199.3 615.11 196.19 615.11 192.06 618.07 190.13 621.76 188.21 623.76 187.69 623.98 187.62 626.78 188.21 629 189.55 631.09 191.47 632.4 192.35 635.07 193.24 638.61 193.09 642.02 193.09 646.29 192.35 648.06 191.02 648.67 189.39 649.54 188.07 650.73 187.91 651.76 187.91 652.82 188.65 653.56 190.13 654.59 191.76 656.36 192.65 659.02 193.54 661.53 194.42 663.75 195.9 665.68 197.53 669.05 199.6 672.91 200.78 675.42 200.78 677.8 201.08 678.09 201.08 Z" id="MKD-2905" data-name="Radoviš"/>
<path d="M 592.28 18.7 622.95 49.5 634.72 56.06 638.83 65.01 642.65 69.87 642.56 69.9 637.23 71.96 634.33 73.34 628.87 76.15 623.37 78.81 620.12 82.35 616.72 83.69 614.66 84.57 614.66 85.22 611.28 84.72 609.74 84.52 608.42 84.52 606.14 84.52 604.08 84.52 600.29 84.83 595.56 84.93 593.6 85.04 592.77 85.86 592.77 86.81 588.75 84.71 583.8 82.42 578.33 81.36 575.15 78.89 572.86 78.37 570.9 79.77 568.27 80.47 562.29 81.36 557.53 81.53 552.93 81.36 549.59 81.36 547.98 79.94 548.24 78.78 549.31 75.93 549.6 71.4 548.46 66.02 546.2 62.06 544.22 50.17 543.37 43.94 545.35 37.71 544.78 33.18 539.4 28.93 532.89 27.52 529.21 24.4 527.92 16.93 557.56 7.67 565.76 1.39 568.59 1 569.97 2.51 570.2 7.8 571.1 10.05 575.66 14.04 580.64 16.87 586.14 18.42 592.28 18.7 Z" id="MKD-2906" data-name="Kriva Palanka"/>
<path d="M 479.79 255.39 479.73 255.44 479.73 258.63 480.21 265.17 479.89 270.75 479.92 270.78 478.93 271.55 477.96 274.11 478.28 278.24 477.48 283.35 474.3 284.94 472.08 285.9 470.79 287.17 470.63 289.56 469.06 290.04 467.29 289.56 464.75 287.97 462.18 287.01 460.12 286.37 457.42 286.37 455.97 287.49 455.33 291.47 453.11 292.75 448.32 292.91 443.53 292.91 441.47 293.39 439.06 293.39 433.5 292.91 430.77 290.68 427.58 287.33 425.78 285.24 425.85 283.98 426.33 280 426.78 278.08 427.74 275.5 427.91 275.05 429.67 273.78 431.41 272.82 434.75 272.5 436.52 272.5 437.97 271.55 438.9 270.43 438.9 268.83 438.29 265.96 437.81 265.17 437.81 263.74 437.81 262.3 438.74 261.66 440.99 261.5 443.53 262.14 445.14 263.25 449.77 265.01 454.52 265.01 456.29 263.42 457.42 261.02 459.32 259.27 461.24 258.15 464.91 258.79 466.81 260.06 469.06 260.06 471.27 260.06 471.44 258.79 472.08 255.6 474.78 254.33 477.35 254.33 479.79 255.39 Z" id="MKD-2907" data-name="Rosoman"/>
<path d="M 250.34 86.28 248.93 90.27 249.67 96.05 251.83 100.1 254.69 101.3 258.03 100.82 259.93 99.15 262.34 98.91 264.94 101.06 265.91 105.11 269.48 110.12 272.82 115.84 277.58 120.38 285.45 120.92 285.26 125.49 285.26 131.26 285.84 132.24 284.75 133.65 281.47 133.89 277.71 133.89 272.43 136.15 266.39 139.67 262.89 142.18 259.12 145.45 255.11 147.7 247.55 149.71 243.05 151.22 241.54 153.48 241.44 154.25 240.03 153.64 238.42 153.03 234.4 149.42 232.38 149.21 229.96 147.21 229.96 144.19 230.77 138.97 231.8 134.55 232.99 130.72 233.18 126.7 232.18 125.5 227.97 123.7 223.95 121.48 220.13 120.27 216.91 119.68 216.94 119.36 217.11 118.07 217.91 117.46 219.52 116.86 223.76 116.25 227.36 115.05 229.58 114.45 229.58 112.03 226.97 108.43 226.2 106.01 226.46 104.25 228.49 102.49 231.48 101.49 232.73 100.23 232.73 97.46 231.48 94.71 229.74 94.96 227.71 95.96 225.46 95.96 222.96 93.7 220.45 91.95 221.7 90.69 225.21 89.43 229.74 89.18 233.5 88.68 237.26 88.68 241.02 88.17 244.69 84.94 245.2 83.94 245.23 83.9 247.87 85.91 250.34 86.28 Z" id="MKD-2908" data-name="Saraj"/>
<path d="M 307.19 133.18 309.89 133.18 311.82 133.95 311.82 135.5 311.82 137.8 313.07 139.38 312.94 143.1 311.75 148.32 310.75 150.93 305.71 151.14 297.9 151.54 293.07 149.73 289.86 149.13 285.61 149.13 280.79 150.13 278.61 151.94 278.61 155.96 279.99 158.77 283.81 158.77 288.03 159.78 290.44 159.98 292.04 161.18 291.66 162.79 288.83 162.79 285.61 164.6 284.43 167.21 282.62 173.24 282.01 176.66 280.79 177.26 278.8 177.26 277.58 178.27 277.19 180.68 278.61 181.89 281.4 182.69 282.79 185.68 280.41 188.82 279.25 193.53 279.25 197.06 280.82 200.6 281.66 200.81 279.7 201.96 274.68 201.46 268.67 197.44 263.88 190.41 258.1 184.38 253.59 178.85 249.83 175.58 246.62 173.06 246.3 172.82 248.06 168.8 248.8 163.78 248.8 161.02 247.07 160.01 243.53 158.26 241.28 155.99 241.44 154.25 241.54 153.48 243.05 151.22 247.55 149.71 255.11 147.7 259.12 145.45 262.89 142.18 266.39 139.67 272.43 136.15 277.71 133.89 281.47 133.89 284.75 133.65 285.84 132.24 286.42 133.18 293.72 133.18 300.27 133.18 306.03 133.18 307.19 133.18 Z" id="MKD-2909" data-name="Sopište"/>
<path d="M 499.08 22.12 499.18 26.68 500.27 28.88 500.69 31.56 500.98 34.8 500.98 36.78 498.86 38.61 497.19 38.76 492.81 39.32 491.66 41.15 492.24 43.28 493.65 45.25 494.55 46.52 494.55 48.92 494.42 53.29 494.71 54.84 496.13 56.67 498.5 59.5 499.63 61.75 499.63 63.73 498.22 65.14 495.96 65.43 493.3 65.43 492.33 65.33 490.34 65.14 486.8 65 483.68 65 482.14 65.84 482.14 67.54 482.43 71.21 482.43 73.32 482.14 76.57 479.18 80.94 476.06 84.47 472.4 85.46 468.45 85.6 468.16 85.91 466.9 83.4 466.03 80.6 464.62 78.13 462.47 77.37 459.8 77.58 458.06 78.45 457.32 80.17 457.19 81.57 455.81 82.85 454.85 83.07 452.24 82.96 446.87 81.78 443.75 80.92 442.37 79.85 440.96 78.77 438.9 78.66 435.27 79.2 432.79 79.85 430.64 81.13 427.71 81.57 424.59 82.75 423.08 84.47 420.61 84.47 418.13 83.72 416.2 81.78 412.99 79.09 410.19 75.97 409.1 73.5 408.91 70.48 408.78 68.44 408.91 66.61 409.32 65.11 410.51 63.71 411.38 62.31 411.25 59.18 411.25 56.17 410.19 54.66 409.42 53.91 409.55 51.44 410.19 49.82 411.8 49.18 414.05 48.85 416.65 48.1 417.3 46.6 417.17 44.02 415.14 42.18 413.41 41.54 410.74 41.11 407.59 40.14 407.04 39.27 400.61 37.1 397.71 35.02 428.1 21.28 434.37 20.22 446.81 20.32 448.99 19.92 459.54 13.13 462.88 11.95 466.77 12.58 483.39 18.96 493.55 21.65 499.08 22.12 Z" id="MKD-2910" data-name="Staro Nagoričane"/>
<path d="M 530.75 159.85 525.8 163.08 523.16 167.14 523.16 171.46 524.1 176.84 526.18 181.42 528.82 184.43 532.36 184.96 538.5 185.08 543.1 185.62 547.53 187.71 553.19 191.51 557.11 194.91 560.52 195.44 563.25 195.7 569.55 199.76 574.15 203.3 577.69 206.83 584.21 206.83 592.48 205.53 599.16 205.13 603.7 203.96 608.13 204.08 609.71 205.56 609.13 206.54 607.33 208.76 604.53 211.86 602.15 215.42 601.28 217.2 599.81 219.41 597.43 219.71 594.05 219.56 590.64 218.67 587.81 217.93 586.21 216.9 583.7 215.71 581.77 216.01 579.55 217.78 576.59 220 575.57 221.77 576.72 224.14 578.65 227.99 579.84 229.17 580.42 231.68 580.42 234.93 580.42 237.15 581.9 239.37 584.57 240.7 585.56 241.01 584.21 242.92 580.64 245.43 576.95 248.68 573.25 251.64 570.45 253.42 567.5 255.19 565.86 256.37 565.57 257.85 565.92 258.17 563.51 258.55 557.66 258.67 552.16 257.52 547.44 254.98 544.25 253.44 540.81 252.29 538.4 251.15 538.27 246.68 537.37 244.64 532.39 243.37 528.31 243.24 523.97 242.99 521.43 243.5 519.5 242.34 518.12 239.42 517.73 235.98 516.57 232.41 515.41 230.24 514.29 228.82 512.75 227.68 510.59 227.93 509.05 230.1 508.02 232.14 507.02 233.16 505.48 233.68 503.94 233.68 501.4 231.51 499.12 228.45 497.96 227.3 494.9 226.4 491.95 226.28 489.15 224.49 488.31 223.99 486.87 223.08 482.4 221.17 479.22 220.91 473.85 221.3 472.88 220.72 472.56 220.54 472.43 218.87 472.43 217.09 471.05 216.21 468.61 214.8 466.19 213.13 465.29 211.86 465.81 209.69 466.45 207.91 467.74 206.64 469.51 205.23 470.79 203.07 472.69 202.3 474.36 202.3 476.03 203.07 478.32 204.72 479.34 206 481.11 207.02 482.27 206.76 482.91 205.61 483.43 204.08 484.68 203.83 485.71 203.83 487.86 203.7 488.38 202.94 488.38 201.66 487.25 200.77 487.25 199.74 488.38 199.49 489.31 199.28 489.79 199.52 492.62 201.11 494.39 203.06 496.48 203.76 498.25 203.76 499.31 202.87 498.6 200.58 497.03 200.05 495.96 199.17 496.32 198.11 497.03 197.05 498.6 196.7 498.79 194.58 497.89 192.29 496.32 190.71 494.9 188.59 495.1 187.35 496.13 186.47 497.54 186.11 500.02 185.58 501.78 185.24 503.71 182.77 506.19 180.29 508.66 177.84 510.95 174.83 512.81 173.95 514.74 173.06 515.09 171.12 514.58 169.36 513.16 167.77 512.26 166.02 511.04 164.78 510.69 162.48 511.24 161.25 513.16 160.72 514.74 159.84 515.64 158.6 515.64 157.4 517.28 157.02 519.5 157.02 521.91 157.22 523.9 158.03 525.73 158.43 526.73 158.43 527.73 158.03 528.53 157.82 529.75 158.43 530.56 159.44 530.75 159.85 Z" id="MKD-2911" data-name="Štip"/>
<path d="M 351.84 144.15 350.91 144.96 350.2 146.83 350.91 148.53 352.77 148.87 355.99 148.87 356.31 148.89 354.99 150.65 351.04 151.6 348.18 152.97 344.93 155.01 340.85 156.65 340.01 161.01 337.99 164 335.64 165.51 334.16 167.14 334.03 170.01 333.48 171.92 332.1 173.14 329.24 173.27 327.47 173 326.67 172.19 326.51 170.01 325.96 168.78 323.65 168.64 321.07 170.83 319.02 174.23 319.44 178.18 319.44 180.77 320.53 182.95 324.35 186.63 325.58 188.81 324.74 191.13 323.94 192.9 323.94 195.49 324.16 195.65 321.4 196.43 315.38 197.69 312.11 199.7 310.11 202.72 308.34 205.23 306.58 208.24 304.33 210 300.82 211 299.31 212.77 298.31 217.03 296.87 220.87 296.51 221.79 293.75 219.83 290.24 214.33 290.24 211.19 290.24 203.73 287.48 201.38 283.94 201.38 281.66 200.81 280.82 200.6 279.25 197.06 279.25 193.53 280.41 188.82 282.79 185.68 281.4 182.69 278.61 181.89 277.19 180.68 277.58 178.27 278.8 177.26 280.79 177.26 282.01 176.66 282.62 173.24 284.43 167.21 285.61 164.6 288.83 162.79 291.66 162.79 292.04 161.18 290.44 159.98 288.03 159.78 283.81 158.77 279.99 158.77 278.61 155.96 278.61 151.94 280.79 150.13 285.61 149.13 289.86 149.13 293.07 149.73 297.9 151.54 305.71 151.14 310.75 150.93 311.75 148.32 312.94 143.1 313.07 139.38 313.36 139.72 314.13 139.72 316.8 139.72 319.5 138.57 322.59 138.57 325.45 141.02 325.45 144.64 325.45 147.78 326.15 149.18 329.98 150.29 332.29 149.49 333.52 147.87 334.13 146.06 335.03 144.24 336.54 142.93 338.24 142.53 340.27 141.62 340.65 141.49 342.07 141.02 344.19 139.6 346.31 138.63 346.63 138.49 348.14 139 349.85 141.42 351.84 144.15 Z" id="MKD-2912" data-name="Studenicani"/>
<path d="M 312.59 117.11 312.59 118.57 312.11 121.56 311.43 121.25 310.24 121.55 309.31 120.14 307.64 120.14 306.8 120.32 306.7 118.95 306.93 117.75 307.03 115.3 307.09 114.42 307.83 114.76 311.08 116.19 312.59 117.11 Z" id="MKD-2913" data-name="Čair"/>
<path d="M 492.69 116.15 492.36 116.28 490.76 119.1 489.18 121.57 488.47 124.92 489.34 127.22 493.59 130.21 498.86 133.2 502.04 134.62 504.71 138.85 508.21 143.61 510.17 145.03 512.97 145.56 514.23 146.26 514.39 147.49 514.23 149.61 513.33 151.55 511.75 152.44 511.56 153.14 512.62 154.37 513.52 154.9 515.64 156.67 515.64 157.4 515.64 158.6 514.74 159.84 513.16 160.72 511.24 161.25 510.69 162.48 511.04 164.78 512.26 166.02 513.16 167.77 514.58 169.36 515.09 171.12 514.74 173.06 512.81 173.95 510.95 174.83 508.66 177.84 506.19 180.29 503.71 182.77 501.78 185.24 500.02 185.58 497.54 186.11 496.13 186.47 495.1 187.35 494.9 188.59 496.32 190.71 497.89 192.29 498.79 194.58 498.6 196.7 497.03 197.05 496.32 198.11 495.96 199.17 497.03 200.05 498.6 200.58 499.31 202.87 498.25 203.76 496.48 203.76 494.39 203.06 492.62 201.11 489.79 199.52 489.31 199.28 484.84 197.05 479.38 193.52 473.2 188.77 468.09 184 463.17 179.07 460.5 177.47 457 176.94 452.56 175.54 449.57 172.88 445.52 168.66 442.44 167.77 438.03 167.6 437.97 167.54 435.2 165.13 431.15 161.25 427.1 157.37 425.69 153.68 423.73 147.67 423.73 144.32 423.76 143.69 423.92 140.26 425.66 135.98 426.75 134.26 427.2 133.57 429.58 132.3 430.57 130.61 433.11 129.06 434.66 127.51 434.66 125.25 435.36 123.13 437.07 121.45 441.44 118.75 443.69 117.07 447.52 116.5 452.18 116.36 456.39 117.2 459.64 119.89 461.63 122.84 463.46 124.26 466.84 124.11 471.34 122.28 477 120.73 479.95 119.03 480.66 116.64 480.53 116.32 482.17 116.32 484.55 116.32 486.38 116.32 488.35 116.06 490.72 115.66 492.59 115.92 492.69 116.15 Z" id="MKD-2914" data-name="Sveti Nikole"/>
<path d="M 437.97 167.54 438.06 169.04 436.97 170.39 435.33 171.61 432.47 174.2 430.57 175.43 428.68 176.93 427.71 178.16 428.26 179.38 429.35 180.46 431.38 182.51 432.89 183.73 434.53 185.5 434.53 187.69 433.85 189.31 431.92 192.31 430.57 194.49 430.16 195.3 429.77 197.08 430.7 198.16 432.34 198.16 434.24 198.16 436.71 198.84 438.06 200.61 440.38 204.15 441.86 205.79 441.86 207.28 441.86 209.87 440.64 214.36 437.94 216.94 432.76 220.89 430.7 224.02 429.22 227.02 427.58 230.01 424.59 233.55 421.19 233.96 418.61 233.96 416.43 234.1 415.46 235.18 415.05 237.09 414.47 240.03 411.45 239.79 404.34 238.42 401.61 236.11 401.06 233.52 400.93 230.25 400.8 228.2 399.71 226.97 398.2 227.25 397.27 228.07 395.34 229.43 394.41 229.97 392.77 230.52 391.13 230.38 389.49 228.47 388.94 226.7 389.07 224.93 388.27 222.34 385.66 219.34 384.57 214.16 382.67 210.76 379.39 209.53 375.99 209.39 372.19 208.84 369.59 208.03 367.27 207.07 365.5 206.8 363.86 206.8 362.77 207.62 361.42 208.3 359.65 208.3 358.01 207.35 355.83 203.8 353.1 199.71 351.2 197.67 351.49 196.96 351.58 196.71 357.18 196.3 362.1 194.95 363.99 193.99 365.63 191.68 368.37 188.27 370.26 186.23 370.26 182.4 370.26 180.63 368.78 179.95 367.53 178.59 367.53 177.09 367.53 174.64 367.53 172.6 369.01 172.21 369.11 172.96 372.22 174.05 375.63 174.46 377.95 174.6 379.46 173.5 380.68 173.09 381.48 173.64 381.61 175.95 380.94 177.05 381.23 177.72 382.99 177.72 384.09 176.09 385.85 174.86 387.21 173.64 387.33 172.55 389.52 172.55 391.42 174.32 392.93 176.23 396.59 177.18 398.23 176.77 399.04 175.54 400 172.42 401.09 169.15 402.57 166.02 403.25 163.02 403.67 160.44 403.67 157.44 403.25 155.13 402.86 152.54 403.12 151.46 404.89 150.77 408.84 150.91 413.05 149.69 417.68 147.1 420.29 145.61 423.76 143.69 423.73 144.32 423.73 147.67 425.69 153.68 427.1 157.37 431.15 161.25 435.2 165.13 437.97 167.54 Z" id="MKD-2915" data-name="Veles"/>
<path d="M 197.59 282.07 191.96 280.8 187.17 281.22 186.34 282.46 186.15 284.55 187.59 287.25 188.24 289.95 188.24 292.24 190.29 294.74 194.05 293.91 196.05 293.91 195.92 296.82 191.55 298.48 187.17 299.31 183.45 299.31 178.24 299.31 175.34 299.1 174.09 297.24 174.09 295.37 172.61 293.49 169.3 291.83 164.51 289.33 163.26 287.46 162.84 285.17 163.26 282.46 165.96 281.64 166.28 281.28 169.07 277.89 172.23 272.07 175.54 270.41 180.94 269.99 184.89 267.91 187.59 265 189.26 260.43 190.52 257.72 192.99 255.84 196.75 255.02 200.9 252.31 203.6 248.78 205.47 246.92 205.69 246.7 206.72 248.57 207.56 253.56 209.23 255.43 212.96 258.14 216.91 259.59 219.84 261.04 220.03 262.92 216.91 264.37 213.38 267.08 209.84 270.62 205.27 273.11 203.41 275.4 200.48 276.02 198.2 277.06 197.59 279.35 197.59 280.6 197.59 282.07 Z" id="MKD-2916" data-name="Vraneštica"/>
<path d="M 369.01 172.21 367.53 172.6 367.53 174.64 367.53 177.09 367.53 178.59 368.78 179.95 370.26 180.63 370.26 182.4 370.26 186.23 368.37 188.27 365.63 191.68 363.99 193.99 362.1 194.95 357.18 196.3 351.58 196.71 351.49 196.96 349.14 196.44 342.45 196.58 335.93 196.71 330.33 196.85 325.96 196.99 324.16 195.65 323.94 195.49 323.94 192.9 324.74 191.13 325.58 188.81 324.35 186.63 320.53 182.95 319.44 180.77 319.44 178.18 319.02 174.23 321.07 170.83 323.65 168.64 325.96 168.78 326.51 170.01 326.67 172.19 327.47 173 329.24 173.27 332.1 173.14 333.48 171.92 334.03 170.01 334.16 167.14 335.64 165.51 337.99 164 340.01 161.01 340.85 156.65 344.93 155.01 348.18 152.97 351.04 151.6 354.99 150.65 356.31 148.89 358.05 149.04 360.78 149.04 363.64 149.72 367.72 151.25 370.58 151.05 372.1 152.68 372.1 156.9 371.81 164.25 371.55 168.46 370.58 169.83 369.65 170.65 368.98 171.6 369.01 172.21 Z" id="MKD-2917" data-name="Zelenikovo"/>
<path d="M 216.94 119.36 216.91 119.68 220.13 120.27 223.95 121.48 227.97 123.7 232.18 125.5 233.18 126.7 232.99 130.72 231.8 134.55 230.77 138.97 229.96 144.19 229.96 147.21 232.38 149.21 234.4 149.42 238.42 153.03 240.03 153.64 241.44 154.25 241.28 155.99 243.53 158.26 247.07 160.01 248.8 161.02 248.8 163.78 248.06 168.8 246.3 172.82 246.62 173.06 244.37 172.25 241.25 171.2 237.71 168.71 233.98 166.84 231.06 166.26 231.06 163.3 229.39 161.43 227.1 161.43 224.82 162.06 224.21 163.72 223.57 165.18 221.28 165.39 217.14 165.39 213.6 165.39 211.51 163.93 207.56 161.43 203.83 161.43 199.04 161.23 195.92 160.81 195.69 158.1 195.92 154.99 196.75 152.69 199.46 152.28 200.29 150.83 200.29 149.79 198.81 147.08 196.95 147.08 194.67 147.08 191.77 145.83 191.13 141.27 191.13 138.56 189.46 137.93 186.76 137.73 183.22 135.02 181.16 132.32 180.13 130.91 180.1 130.87 182.38 128.58 185.12 127.75 187.4 127.54 188.65 127.12 188.85 124.83 187.82 124.21 184.47 123.38 183.03 121.71 182.38 120.26 179.68 119.63 178.46 118.59 178.46 117.77 180.1 115.89 181.77 114.23 183.67 113.88 183.73 114.15 184.89 114.84 190.23 116 193.7 116 196.02 115.07 197.62 116 197.62 118.08 195.76 119.47 196.47 120.63 200.16 121.55 206.4 122.01 208.71 122.01 210.35 120.16 211.96 119.47 214.98 119.47 216.94 119.36 Z" id="MKD-2918" data-name="Želino"/>
<path d="M 361.68 97.71 364.41 97.71 368.11 99.02 370.62 100.22 370.74 103.27 370.97 103.75 369.2 104.91 365.18 108.14 362.55 110.97 358.82 114.49 356.79 116.11 354 116.31 350.94 116.91 347.53 118.33 345.6 119.13 344.09 120.55 342.58 120.64 341.88 120.13 341.49 119.84 341.59 117.42 341.88 114.49 343.29 112.68 345.51 111.16 345.7 109.75 345.41 106.52 344.8 104.1 344.61 102.39 343.48 101.08 341.68 99.17 341.49 97.85 341.49 95.53 342.16 94.34 343.77 96.1 345.86 97.85 347.95 99.42 350.39 102.74 352.68 104.13 357.72 105 359.49 104.48 361.39 98.72 361.68 97.71 Z" id="MKD-2919" data-name="Aračinovo"/>
<path d="M 349.36 39.59 352.77 40.91 368.2 40.68 379.1 42.92 384.45 43.11 385.05 44.63 385.24 51.16 385.28 55.36 386.47 58.19 387.33 61.56 387.33 64.17 386.79 65.37 385.05 65.92 382.64 66.13 380.58 67.33 380.58 69.84 380.81 71.25 380.68 73.87 380.58 75.28 379.62 75.83 377.98 75.61 376.11 74.52 374.28 74.08 372.74 74.52 371.64 76.15 371.64 78.87 371.71 81.6 371.39 84.54 370.07 87.7 367.79 89.43 365.5 90.96 362.77 92.16 360.94 92.82 360.07 94.77 360.17 97.06 361.68 97.71 361.39 98.72 359.49 104.48 357.72 105 352.68 104.13 350.39 102.74 347.95 99.42 345.86 97.85 343.77 96.1 342.16 94.34 340.27 92.25 335.54 87.88 332.84 84.57 330.85 82.12 327.57 77.32 324.06 74.27 325.16 72.08 327.76 71.21 330.62 70.11 333.45 68.14 334.32 64 334.32 59.85 333.23 58.1 330.62 57.45 327.12 54.39 323.84 50.25 323.23 48 320.71 41.81 323.68 39.12 329.21 41.96 335.61 41.85 348.66 39.31 349.36 39.59 Z" id="MKD-2920" data-name="Lipkovo"/>
<path d="M 325.16 72.08 324.06 74.27 327.57 77.32 330.85 82.12 332.84 84.57 329.11 86.24 323.36 91.64 319.89 96.64 319.11 102.79 319.11 106.26 319.11 109.33 319.11 113.56 317.18 116.64 312.59 116.64 312.59 117.11 311.08 116.19 307.83 114.76 307.09 114.42 307.03 115.3 305.48 116.32 302.88 116.32 298.09 115.37 294.52 112.27 292.62 109.41 294.78 107.26 295.71 107.98 298.35 108.22 300.24 109.88 300.98 111.79 302.88 113.7 305.03 113.94 306.38 113.06 305.39 110.04 305.16 106.1 305.51 106.37 306.67 107.32 307.19 106.64 309.89 105.87 309.12 95.1 309.89 88.17 311.43 83.94 316.03 77.79 318.73 72.78 323.36 71.63 325.16 72.08 Z" id="MKD-2921" data-name="Butel"/>
<path d="M 351.49 196.96 351.2 197.67 353.1 199.71 355.83 203.8 358.01 207.35 359.65 208.3 361.42 208.3 362.77 207.62 363.86 206.8 365.5 206.8 367.27 207.07 369.59 208.03 372.19 208.84 375.99 209.39 379.39 209.53 382.67 210.76 384.57 214.16 385.66 219.34 388.27 222.34 389.07 224.93 388.94 226.7 389.49 228.47 391.13 230.38 392.77 230.52 394.41 229.97 395.34 229.43 397.27 228.07 398.2 227.25 399.71 226.97 400.8 228.2 400.93 230.25 401.06 233.52 401.61 236.11 404.34 238.42 411.45 239.79 414.47 240.03 414.37 240.49 414.11 243.76 413.99 246.07 415.88 248.11 419.68 250.29 423.37 252.06 424.59 253.96 424.59 256.96 423.21 259.28 421.06 260.91 419 262.81 418.45 265.67 418.33 268.94 419.29 271.66 422.54 273.16 426.23 274.93 427.74 275.5 426.78 278.08 426.33 280 425.85 283.98 425.78 285.24 425.53 284.94 424.08 283.66 420.41 283.19 418.52 284.62 416.75 287.17 414.05 289.56 414.05 289.97 412.38 288.99 410.83 286.7 409.77 284.87 406.88 283.64 403.83 282.72 401.51 281.8 400.29 280.28 398.62 279.82 396.46 279.82 394.02 280.74 392.51 281.65 389.29 281.96 387.3 281.96 384.41 282.11 383.48 282.58 382.58 283.8 382.41 286.39 382.09 289.91 379.81 293.59 378.14 294.19 375.21 294.8 372.32 294.65 371.71 292.97 370.04 290.98 367.72 289.76 365.44 289.46 362.68 289.3 361.36 289.3 361 288.07 359.01 285.78 356.12 283.95 352.45 283.19 347.85 282.27 344.96 281.8 342.97 281.04 341.91 279.82 341.3 277.53 340.36 275.23 339.59 273.86 337.47 273.4 335.48 273.56 333.64 274.62 331.65 274.77 328.76 274.77 325.7 274.77 322.49 273.56 320.34 271.72 318.34 268.96 317.89 265.91 317.89 261.63 317.12 257.96 315.61 255.05 312.23 254.13 310.56 253.06 309.02 250.93 308.12 248.32 305.51 246.18 300.47 244.66 297.09 243.74 292.98 242.82 290.34 242.82 290.5 241.9 290.76 238.13 290.76 235.12 289.5 232.6 289.76 230.6 290.76 229.6 292.53 228.34 295.29 225.83 297.28 223.06 296.87 220.87 298.31 217.03 299.31 212.77 300.82 211 304.33 210 306.58 208.24 308.34 205.23 310.11 202.72 312.11 199.7 315.38 197.69 321.4 196.43 324.16 195.65 325.96 196.99 330.33 196.85 335.93 196.71 342.45 196.58 349.14 196.44 351.49 196.96 Z" id="MKD-2922" data-name="Čaška"/>
<path d="M 310.24 121.55 309.89 121.64 308.34 124.34 309.05 124.97 307.57 126.26 306.96 130.17 303.65 127.69 301.37 126.03 302.2 122.51 304.27 120.64 306.8 120.32 307.64 120.14 309.31 120.14 310.24 121.55 Z" id="MKD-2923" data-name="Centar"/>
<path d="M 623.89 181.73 622.53 181.73 616.11 181.6 609.93 181.09 606.59 180.84 606.46 180.84 605.17 178.65 603.25 176.08 599.77 172.74 596.69 170.55 595.92 167.98 595.85 163.87 598.1 163.87 601.06 163.74 604.02 161.81 605.17 160.52 606.59 159.75 608.26 159.75 609.55 160.52 609.93 161.68 611.6 162.07 613.02 161.55 614.18 159.88 616.62 157.44 619.32 156.79 620.41 156.79 620.35 157.16 621.38 158.64 623.02 159.98 623.6 161.75 624.34 165.74 624.62 169.44 624.62 172.1 624.62 174.61 624.21 177.13 623.89 180.23 623.89 181.73 Z" id="MKD-2924" data-name="Zrnovci"/>
<path d="M 564.7 132.3 564.76 132.5 566.05 135.2 570 138.93 574.76 141.37 581.19 141.24 584.66 141.11 586.85 141.11 587.62 141.89 587.88 143.29 587.62 144.19 586.59 144.71 585.82 146.12 585.82 148.31 586.08 153.45 587.36 155.25 588.01 156.41 588.52 157.82 589.55 161.04 591.35 161.68 592.77 161.68 594.44 163.35 595.47 163.87 595.85 163.87 595.92 167.98 596.69 170.55 599.77 172.74 603.25 176.08 605.17 178.65 606.46 180.84 606.59 180.84 605.59 181.95 602.96 181.95 599.03 181.55 596.01 179.32 592.22 176.44 588.68 176.31 585.02 176.7 579.13 175.92 572.83 175.13 564.7 170.68 557.88 165.96 554.8 163.1 547.82 156.66 543.87 152.33 543.48 150.11 544.41 148.53 545.7 148.02 547.4 148.02 549.65 146.05 551.87 144.74 554.6 143.69 556.31 141.46 556.85 138.84 557.63 136.35 560.01 132.95 562.1 131.77 563.25 131.64 564.7 132.3 Z" id="MKD-2925" data-name="Češinovo-Obleševo"/>
<path d="M 320.71 41.81 323.23 48 323.84 50.25 327.12 54.39 330.62 57.45 333.23 58.1 334.32 59.85 334.32 64 333.45 68.14 330.62 70.11 327.76 71.21 325.16 72.08 323.36 71.63 318.73 72.78 316.03 77.79 311.43 83.94 309.89 88.17 309.12 95.1 309.89 105.87 307.19 106.64 306.67 107.32 305.51 106.37 304.55 104.63 302.17 101.54 299.76 99.87 297.16 100.34 295 102.01 294.78 105.11 294.78 107.26 292.62 109.41 289.28 107.49 285.65 107.16 285.65 102.79 280.28 93.94 270.79 87.02 267.47 85.58 267.61 84.9 267.32 78.59 266.84 75.94 265.91 74.27 265.26 72.6 265.65 69.85 283.94 49.01 286.07 47.73 287.99 46.56 293.43 46.23 304.26 49.31 307.6 49.05 307.25 46.96 305 44.23 304.52 41.52 309.63 39.4 313.23 40.25 316.12 42.46 319.34 43.06 320.71 41.81 Z" id="MKD-2926" data-name="Čučer Sandevo"/>
<path d="M 587.62 295.16 586.66 296.93 586.11 299.08 585.89 302.14 586.43 304.62 588.14 308.36 589.65 309.67 589.36 310.43 589.23 312.14 589.49 313.71 591.06 315.16 591.96 316.2 593.28 319.37 593.54 321.73 593.41 324.35 593.02 325.66 591.45 326.06 588.81 326.06 584.76 325.8 581.06 325.93 578.43 326.06 576.85 327.11 574.63 329.21 572.8 331.05 572.67 332.11 570.74 332.68 561.93 337.26 554.15 340.61 549.04 341.14 543.42 340.61 538.3 338.15 533.87 335.85 532.29 332.5 530.88 330.74 528.95 330.56 527.18 329.85 525.96 328.8 524.9 327.91 523.64 327.56 522.07 326.51 519.05 324.38 513.84 320.54 510.82 318.62 511.33 318.6 513.16 318.51 517.34 318.85 522.1 318.85 525.12 318.4 526.73 318.06 527.63 316.82 528.18 314.9 528.85 313.32 529.3 311.51 529.3 310.16 528.4 308.46 526.38 306.54 524.45 304.52 523.68 303.16 524 302.15 525.12 301.01 526.73 300.9 528.63 299.78 530.11 298.88 531.23 296.96 532.58 294.7 533.71 290.97 535.28 286.8 536.67 284.99 539.82 283.18 543.19 280.13 545.35 279.01 548.17 279.01 549.97 279.46 551.78 280.81 553.25 281.83 556.4 283.18 559.11 284.2 561.26 285.1 564.09 285.78 565.66 285.78 566.79 284.99 567.91 283.64 568.72 281.95 569.62 280.58 570.97 279.68 573.35 278.78 576.72 276.41 578.3 275.05 579.17 276.63 582 276.92 585.69 278.4 588.2 279.43 589.68 281.8 589.07 284.02 587.3 285.36 586.43 285.94 585.82 287.86 585.98 290.37 586.72 294.07 587.62 295.16 Z" id="MKD-2927" data-name="Demir Kapija"/>
<path d="M 361.36 289.3 361.16 289.3 357.79 290.53 355.35 292.51 353.51 296.34 352.9 300 350.01 300.76 346.02 301.83 342.36 305.35 339.14 306.58 328.89 306.88 326.06 307.64 321.65 308.56 317.83 308.56 315.22 308.56 313.68 309.63 311.24 311.16 309.4 313.15 308.02 314.98 305.9 315.29 304.36 316.36 302.52 317.43 301.5 318.14 300.92 317.43 297.41 315.75 295.26 315.59 293.43 315.59 290.69 315.9 288.38 316.67 285.94 316.82 284.26 316.82 282.72 316.36 281.82 314.98 281.34 312.69 280.89 310.24 280.28 308.41 279.99 307.34 278 306.73 276.61 307.19 274.33 308.71 272.34 308.87 270.79 309.78 270.44 310.51 267.96 309.48 266.9 307.8 263.24 304.9 259.12 301.22 255.59 299.85 255.75 297.7 256.97 296.48 260.02 296.34 262.79 296.48 267.35 296.64 267.68 294.34 267.68 293.27 266.61 291.44 264.75 290.53 259.86 286.24 256.2 282.42 254.69 280.41 254.37 279.97 254.37 278.14 254.82 277.38 257.13 276.31 259.25 276.31 260.96 275.54 262.18 273.4 263.53 272.18 267.13 271.72 270.34 272.63 272.02 273.56 274.46 274.47 276 274.77 275.84 271.41 275.71 266.67 276.61 264.53 278.28 262.24 280.12 260.55 282.88 258.11 285.16 255.97 287.16 252.3 287.48 246.64 287.93 242.82 289.47 242.82 290.34 242.82 292.98 242.82 297.09 243.74 300.47 244.66 305.51 246.18 308.12 248.32 309.02 250.93 310.56 253.06 312.23 254.13 315.61 255.05 317.12 257.96 317.89 261.63 317.89 265.91 318.34 268.96 320.34 271.72 322.49 273.56 325.7 274.77 328.76 274.77 331.65 274.77 333.64 274.62 335.48 273.56 337.47 273.4 339.59 273.86 340.36 275.23 341.3 277.53 341.91 279.82 342.97 281.04 344.96 281.8 347.85 282.27 352.45 283.19 356.12 283.95 359.01 285.78 361 288.07 361.36 289.3 Z" id="MKD-2928" data-name="Dolneni"/>
<path d="M 342.16 94.34 341.49 95.53 341.49 97.85 341.68 99.17 343.48 101.08 344.61 102.39 344.8 104.1 345.41 106.52 345.7 109.75 345.51 111.16 343.29 112.68 341.88 114.49 341.59 117.42 341.49 119.84 341.88 120.13 340.56 121.75 338.85 123.78 338.95 124.89 339.66 125.89 342.68 127.3 344.8 127.8 347.34 129.22 349.75 130.42 351.87 131.64 353.48 133.75 354.8 135.77 354.9 138.2 355.09 140.82 355.22 141.19 354.64 141.89 352.1 143.93 351.84 144.15 349.85 141.42 348.14 139 346.63 138.49 346.31 138.63 343.74 135.5 338.37 132.41 329.88 129.34 323.36 125.49 318.73 123.57 315.64 123.18 314.13 122.41 312.11 121.56 312.59 118.57 312.59 117.11 312.59 116.64 317.18 116.64 319.11 113.56 319.11 109.33 319.11 106.26 319.11 102.79 319.89 96.64 323.36 91.64 329.11 86.24 332.84 84.57 335.54 87.88 340.27 92.25 342.16 94.34 Z" id="MKD-2929" data-name="Gazi Baba"/>
<path d="M 472.88 220.72 473.85 221.3 479.22 220.91 482.4 221.17 486.87 223.08 488.31 223.99 488.51 225.89 487.64 227.81 485.97 229.6 484.17 232.53 482.27 233.29 480.08 235.08 478.7 237.38 478.32 239.16 478.32 240.82 479.34 242.22 481.37 243.11 483.68 243.11 485.97 242.09 488.38 241.2 490.95 240.56 492.59 240.56 494.52 241.71 494.9 243.11 494.9 244.77 493.62 246.94 492.59 248.72 490.69 250.89 489.92 252.16 489.79 253.06 490.18 253.96 491.21 254.33 492.85 255.74 492.85 257.27 491.59 259.69 490.44 261.99 489.66 263.01 487.51 263.14 485.71 263.14 484.68 261.99 484.04 259.57 484.04 256.09 482.59 254.81 480.69 254.81 479.79 255.39 477.35 254.33 474.78 254.33 472.08 255.6 471.44 258.79 471.27 260.06 469.06 260.06 466.81 260.06 464.91 258.79 461.24 258.15 459.32 259.27 457.42 261.02 456.29 263.42 454.52 265.01 449.77 265.01 445.14 263.25 443.53 262.14 440.99 261.5 438.74 261.66 437.81 262.3 437.81 263.74 437.81 265.17 438.29 265.96 438.9 268.83 438.9 270.43 437.97 271.55 436.52 272.5 434.75 272.5 431.41 272.82 429.67 273.78 427.91 275.05 427.74 275.5 426.23 274.93 422.54 273.16 419.29 271.66 418.33 268.94 418.45 265.67 419 262.81 421.06 260.91 423.21 259.28 424.59 256.96 424.59 253.96 423.37 252.06 419.68 250.29 415.88 248.11 413.99 246.07 414.11 243.76 414.37 240.49 414.47 240.03 415.05 237.09 415.46 235.18 416.43 234.1 418.61 233.96 421.19 233.96 424.59 233.55 427.58 230.01 429.22 227.02 430.7 224.02 432.76 220.89 437.94 216.94 440.64 214.36 441.86 209.87 441.86 207.28 441.86 205.79 441.86 205.24 442.15 203.75 443.11 203.2 444.33 203.2 446.65 203.2 448.55 203.6 449.35 204.7 449.77 207.41 451.28 210.96 451.41 213.81 451.41 216.94 452.08 219.4 452.76 222.52 453.85 224.44 455.75 225.25 459.7 226.06 462.82 226.33 465.29 226.33 468.7 224.7 471.69 222.52 472.88 220.72 Z" id="MKD-2930" data-name="Gradsko"/>
<path d="M 489.31 199.28 488.38 199.49 487.25 199.74 487.25 200.77 488.38 201.66 488.38 202.94 487.86 203.7 485.71 203.83 484.68 203.83 483.43 204.08 482.91 205.61 482.27 206.76 481.11 207.02 479.34 206 478.32 204.72 476.03 203.07 474.36 202.3 472.69 202.3 470.79 203.07 469.51 205.23 467.74 206.64 466.45 207.91 465.81 209.69 465.29 211.86 466.19 213.13 468.61 214.8 471.05 216.21 472.43 217.09 472.43 218.87 472.56 220.54 472.88 220.72 471.69 222.52 468.7 224.7 465.29 226.33 462.82 226.33 459.7 226.06 455.75 225.25 453.85 224.44 452.76 222.52 452.08 219.4 451.41 216.94 451.41 213.81 451.28 210.96 449.77 207.41 449.35 204.7 448.55 203.6 446.65 203.2 444.33 203.2 443.11 203.2 442.15 203.75 441.86 205.24 441.86 205.79 440.38 204.15 438.06 200.61 436.71 198.84 434.24 198.16 432.34 198.16 430.7 198.16 429.77 197.08 430.16 195.3 430.57 194.49 431.92 192.31 433.85 189.31 434.53 187.69 434.53 185.5 432.89 183.73 431.38 182.51 429.35 180.46 428.26 179.38 427.71 178.16 428.68 176.93 430.57 175.43 432.47 174.2 435.33 171.61 436.97 170.39 438.06 169.04 437.97 167.54 438.03 167.6 442.44 167.77 445.52 168.66 449.57 172.88 452.56 175.54 457 176.94 460.5 177.47 463.17 179.07 468.09 184 473.2 188.77 479.38 193.52 484.84 197.05 489.31 199.28 Z" id="MKD-2931" data-name="Lozovo"/>
<path d="M 641.63 269.44 641.28 269.68 641.12 271.6 641.12 273.96 641.34 276.48 642.37 278.99 642.82 281.8 643.27 282.1 642.89 284.17 641.41 285.2 637.71 284.75 636.1 283.87 633.88 283.87 630.19 284.75 625.75 286.39 623.69 288.01 623.63 288.52 622.05 288.15 617.91 287.71 612.28 287.86 604.31 289.34 598.55 290.37 591 292.59 589.81 294.21 589.39 295.69 588.04 295.69 587.62 295.16 586.72 294.07 585.98 290.37 585.82 287.86 586.43 285.94 587.3 285.36 589.07 284.02 589.68 281.8 588.2 279.43 585.69 278.4 582 276.92 579.17 276.63 578.3 275.05 577.85 274.27 577.69 271.16 576.21 268.64 573.99 266.13 571.35 262.88 567.95 260.06 565.92 258.17 565.57 257.85 565.86 256.37 567.5 255.19 570.45 253.42 573.25 251.64 576.95 248.68 580.64 245.43 584.21 242.92 585.56 241.01 588.71 242.03 590.77 242.03 593.6 242.62 596.11 244.39 598.78 246.02 601.12 246.31 604.82 246.47 610.9 246.76 615.33 247.05 618 248.68 622.28 252.23 625.07 255.78 627.97 258.29 629.29 259.62 629.29 261.4 628.55 262.88 627.07 263.76 625.46 264.36 625.3 265.98 626.94 267.02 629.9 267.61 633.88 267.61 639.64 268.78 641.63 269.44 Z" id="MKD-2932" data-name="Konče"/>
<path d="M 387.49 121.25 386.79 121.45 385.15 124.28 383.51 127.01 382.45 128.53 382 129.84 382 131.03 383.89 132.36 384.57 135.09 383.57 136.62 381.35 136.79 378.11 136.96 375.57 137.13 372.83 136.11 370.29 134.41 367.56 134.41 365.54 136.62 361.78 137.98 358.37 139.69 355.99 140.19 355.22 141.19 355.09 140.82 354.9 138.2 354.8 135.77 353.48 133.75 351.87 131.64 349.75 130.42 347.34 129.22 344.8 127.8 342.68 127.3 339.66 125.89 338.95 124.89 338.85 123.78 340.56 121.75 341.88 120.13 342.58 120.64 344.09 120.55 345.6 119.13 347.53 118.33 350.94 116.91 354 116.31 356.79 116.11 358.82 114.49 362.55 110.97 365.18 108.14 369.2 104.91 370.97 103.75 371.93 105.66 375.63 107.29 379.33 109.69 382.93 111.98 385.21 111.98 387.17 111.98 387.98 113.18 387.98 115.9 387.43 117.64 387.11 119.6 387.11 120.91 387.49 121.25 Z" id="MKD-2933" data-name="Ilinden"/>
<path d="M 554.8 163.1 557.88 165.96 564.7 170.68 572.83 175.13 579.13 175.92 585.02 176.7 588.68 176.31 592.22 176.44 596.01 179.32 599.03 181.55 602.96 181.95 605.59 181.95 606.59 180.84 609.93 181.09 616.11 181.6 622.53 181.73 623.89 181.73 623.89 185.41 623.76 187.69 621.76 188.21 618.07 190.13 615.11 192.06 615.11 196.19 614.5 199.3 613.18 201.82 610.9 203.59 609.71 205.56 608.13 204.08 603.7 203.96 599.16 205.13 592.48 205.53 584.21 206.83 577.69 206.83 574.15 203.3 569.55 199.76 563.25 195.7 560.52 195.44 557.11 194.91 553.19 191.51 547.53 187.71 543.1 185.62 538.5 185.08 532.36 184.96 528.82 184.43 526.18 181.42 524.1 176.84 523.16 171.46 523.16 167.14 525.8 163.08 530.75 159.85 531.42 159.41 535.09 157.97 537.05 158.36 537.98 159.67 537.98 161.12 539.01 163.6 542.29 164.65 545.96 164.52 550.42 164.52 553.45 164.26 554.8 163.1 Z" id="MKD-2934" data-name="Karbinci"/>
<path d="M 292.62 109.41 294.52 112.27 298.09 115.37 302.88 116.32 305.48 116.32 307.03 115.3 306.93 117.75 306.7 118.95 306.8 120.32 304.27 120.64 302.2 122.51 301.37 126.03 303.65 127.69 306.96 130.17 306.8 131.22 306.8 131.26 307.19 133.18 306.03 133.18 300.27 133.18 293.72 133.18 286.42 133.18 285.84 132.24 285.26 131.26 285.26 125.49 285.45 120.92 285.65 116.25 285.65 109.33 285.65 107.16 289.28 107.49 292.62 109.41 Z" id="MKD-2935" data-name="Karpoš"/>
<path d="M 511.33 318.6 510.82 318.62 513.84 320.54 519.05 324.38 522.07 326.51 523.64 327.56 524.9 327.91 525.96 328.8 527.18 329.85 528.95 330.56 530.88 330.74 532.29 332.5 533.87 335.85 538.3 338.15 543.42 340.61 549.04 341.14 554.15 340.61 561.93 337.26 570.74 332.68 572.67 332.11 572.67 332.37 573.7 333.94 574.38 335 574.63 336.84 574.63 340.77 574.63 342.49 575.02 344.32 576.72 344.98 578.3 344.98 579.1 345.77 578.97 347.61 577.27 348.26 575.95 348.52 572.8 350.49 570.29 352.2 566.63 353.51 565.05 353.51 563.86 353.65 562.8 353.78 562.55 355.75 563.48 357.98 564.38 359.69 564.92 362.45 565.7 363.9 566.34 365.34 566.34 366.92 565.44 367.31 563.35 367.44 558.88 367.31 553.61 367.96 551.78 368.62 550.71 370.33 550.33 372.43 549.72 373.7 551.39 377.22 551.41 377.27 548.98 377.05 541.94 377.51 534.83 380 523.64 387.69 517.12 389.46 514.8 388.8 504.48 384.58 503.71 383.7 503.2 382.13 502.23 380.63 499.95 380.02 498.67 380.61 495.48 383.31 494 384.15 474.1 388.57 464.65 392.45 461.8 394.05 461.76 393.92 461.73 393.83 461.08 390.32 461.08 387.61 460.28 386.02 458.51 385.86 456.78 385.86 454.2 385.86 451.82 385.38 450.06 384.42 449.45 382.04 448.96 377.57 449.45 371.51 449.35 367.6 446.97 364.57 445.36 363.94 443.47 361.23 443.63 357.56 444.11 354.69 446.01 351.83 447.61 349.75 448.22 347.2 449.35 346.24 448.71 344.96 447.45 344.96 443.47 344.65 441.38 344.81 438.68 344.96 435.49 344.96 432.76 344.33 431.35 342.1 429.74 337.95 428.93 335.24 428.77 330.62 429.26 327.27 429.26 325.51 429.9 323.28 430.7 322.33 431.67 320.74 431.83 318.5 431.83 316.27 431.18 313.56 429.42 311.33 427.74 309.65 427.1 306.95 427.42 303.75 427.42 300.89 428.55 299.13 428.55 295.3 427.91 293.71 426.33 294.34 425.53 295.46 424.72 297.06 423.92 298.17 420.9 298.17 419.29 297.37 415.95 294.66 414.05 292.43 414.05 289.97 414.05 289.56 416.75 287.17 418.52 284.62 420.41 283.19 424.08 283.66 425.53 284.94 425.78 285.24 427.58 287.33 430.77 290.68 433.5 292.91 439.06 293.39 441.47 293.39 443.53 292.91 448.32 292.91 453.11 292.75 455.33 291.47 455.97 287.49 457.42 286.37 460.12 286.37 462.18 287.01 464.75 287.97 467.29 289.56 469.06 290.04 470.63 289.56 470.79 287.17 472.08 285.9 474.3 284.94 477.48 283.35 478.28 278.24 477.96 274.11 478.93 271.55 479.92 270.78 482.11 272.18 485.45 272.18 488.18 272.02 491.37 270.58 493.91 270.27 497.09 271.23 498.7 272.98 498.54 279.36 499.34 283.03 500.3 286.37 501.72 291.16 501.56 296.42 501.72 302.16 503.17 306.95 505.87 310.45 506.51 313 506.35 314.91 506.51 316.35 509.53 317.62 511.33 318.6 Z" id="MKD-2936" data-name="Kavadartsi"/>
<path d="M 312.11 121.56 314.13 122.41 315.64 123.18 318.73 123.57 323.36 125.49 329.88 129.34 338.37 132.41 343.74 135.5 346.31 138.63 344.19 139.6 342.07 141.02 340.65 141.49 337.99 138.57 333.36 135.88 329.11 135.11 322.59 133.18 319.11 131.26 315.64 127.8 311.82 127.41 309.05 124.97 308.34 124.34 309.89 121.64 310.24 121.55 311.43 121.25 312.11 121.56 Z" id="MKD-2937" data-name="Aerodrom"/>
<path d="M 340.65 141.49 340.27 141.62 338.24 142.53 336.54 142.93 335.03 144.24 334.13 146.06 333.52 147.87 332.29 149.49 329.98 150.29 326.15 149.18 325.45 147.78 325.45 144.64 325.45 141.02 322.59 138.57 319.5 138.57 316.8 139.72 314.13 139.72 313.36 139.72 313.07 139.38 311.82 137.8 311.82 135.5 311.82 133.95 309.89 133.18 307.19 133.18 306.8 131.26 306.8 131.22 306.96 130.17 307.57 126.26 309.05 124.97 311.82 127.41 315.64 127.8 319.11 131.26 322.59 133.18 329.11 135.11 333.36 135.88 337.99 138.57 340.65 141.49 Z" id="MKD-2938" data-name="Kisela Voda"/>
<path d="M 614.66 85.22 614.66 86.05 615.98 89.15 618.07 90.04 619.55 89.01 620.73 87.24 622.63 86.5 624.43 87.38 626.49 89.6 626.78 93 626.78 99.36 628.13 102.02 631.22 103.35 635.81 105.13 636.97 106.16 637.87 110.9 637.71 113.26 638.9 114.74 641.12 116.81 641.86 118.58 643.95 120.5 644.07 123.31 643.95 126.57 644.52 128.93 646 130.85 646 133.25 644.59 133.95 641.34 135.59 639.41 135.59 637.64 135.43 636.17 134.55 634.69 132.92 632.76 131.73 631.28 131.15 628.64 131.15 626.26 131.29 625.36 132.47 624.5 136.62 623.89 140.9 622.41 144.01 622.28 146.67 622.73 154.21 620.51 156.13 620.41 156.79 619.32 156.79 616.62 157.44 614.18 159.88 613.02 161.55 611.6 162.07 609.93 161.68 609.55 160.52 608.26 159.75 606.59 159.75 605.17 160.52 604.02 161.81 601.06 163.74 598.1 163.87 595.85 163.87 595.47 163.87 594.44 163.35 592.77 161.68 591.35 161.68 589.55 161.04 588.52 157.82 588.01 156.41 587.36 155.25 586.08 153.45 585.82 148.31 585.82 146.12 586.59 144.71 587.62 144.19 587.88 143.29 587.62 141.89 586.85 141.11 584.66 141.11 581.19 141.24 574.76 141.37 570 138.93 566.05 135.2 564.76 132.5 564.7 132.3 564.63 131.98 566.18 130.57 569.26 128.9 573.09 125.94 577.59 123.25 579.01 120.8 580.93 118.36 583.31 117.2 585.63 116.17 587.04 115.92 588.07 112.32 589.23 109.36 589.71 108.07 591.67 102.8 592.57 99.71 594.76 96.88 595.14 94.31 594.63 92 593.22 89.55 592.77 87.4 592.77 86.81 592.77 85.86 593.6 85.04 595.56 84.93 600.29 84.83 604.08 84.52 606.14 84.52 608.42 84.52 609.74 84.52 611.28 84.72 614.66 85.22 Z" id="MKD-2939" data-name="Kočani"/>
<path d="M 492.33 65.33 494.49 67.26 497.19 69.09 500.27 69.09 501.11 69.8 501.11 71.07 501.56 74.73 502.68 76.15 506.35 76.15 509.72 76.43 514.8 78.4 518.34 81.79 523.55 84.75 526.67 87.01 529.05 88.42 531.59 88.42 534.29 88.28 537.37 87.16 541.33 86.44 544.16 85.46 544.73 84.47 544.57 82.35 544.99 79.67 547.4 78.82 548.24 78.78 547.98 79.94 549.59 81.36 552.93 81.36 557.53 81.53 562.29 81.36 568.27 80.47 570.9 79.77 572.86 78.37 575.15 78.89 578.33 81.36 583.8 82.42 588.75 84.71 592.77 86.81 592.77 87.4 593.22 89.55 594.63 92 595.14 94.31 594.76 96.88 592.57 99.71 591.67 102.8 589.71 108.07 587.14 104.99 582.57 101.99 578.84 100.4 573.22 100.05 568.11 100.05 564.41 100.23 562.45 100.23 561.23 100.94 561.23 106.22 561.23 110.27 559.11 112.57 557.69 112.57 555.22 111.87 553.45 109.75 551.87 108.34 550.3 108.17 548.69 108.69 547.11 109.93 545.35 110.27 541.65 110.27 540.04 109.4 538.66 107.11 535.64 105.52 532.29 106.58 524.71 108.69 521.81 109.93 517.73 110.46 513.87 110.46 511.24 110.27 509.47 110.98 507.35 113.1 506.09 115.57 505.38 117.86 504.71 119.1 503.29 119.28 501.88 118.92 499.76 117.68 496.77 116.45 494.81 115.75 493.75 115.75 492.69 116.15 492.59 115.92 490.72 115.66 488.35 116.06 486.38 116.32 484.55 116.32 482.17 116.32 480.53 116.32 479.67 113.96 476 111.29 473.75 110.29 472.34 109.17 471.5 106.05 471.08 103.52 470.08 101.83 467.26 101.68 464.59 101.68 462.18 101.4 460.92 99.99 460.63 97.87 462.59 94.91 466.13 91.52 466.97 87.01 468.16 85.91 468.45 85.6 472.4 85.46 476.06 84.47 479.18 80.94 482.14 76.57 482.43 73.32 482.43 71.21 482.14 67.54 482.14 65.84 483.68 65 486.8 65 490.34 65.14 492.33 65.33 Z" id="MKD-2940" data-name="Kratovo"/>
<path d="M 301.5 318.14 300.08 319.11 296.58 321.4 296.42 322.32 296.58 324.31 297.93 325.08 298.09 326.76 299.31 327.98 302.52 328.13 305.58 328.44 306.96 329.2 306.96 331.96 305.74 334.1 304.2 335.62 303.91 338.37 302.69 343.11 300.69 344.8 298.54 346.48 296.26 348.77 293.65 350.15 289.22 350.3 287.32 350.68 285.94 350.3 284.43 349.38 281.98 346.63 278.77 345.41 278 345.46 277.83 343.88 275.71 343.72 274.01 343.11 274.62 341.28 275.71 340.36 276.45 338.53 277.22 336.54 277.67 333.33 277.22 330.12 275.23 327.52 272.63 325.54 271.4 324.31 269.89 322.02 269.89 319.11 270.05 314.52 270.05 311.32 270.44 310.51 270.79 309.78 272.34 308.87 274.33 308.71 276.61 307.19 278 306.73 279.99 307.34 280.28 308.41 280.89 310.24 281.34 312.69 281.82 314.98 282.72 316.36 284.26 316.82 285.94 316.82 288.38 316.67 290.69 315.9 293.43 315.59 295.26 315.59 297.41 315.75 300.92 317.43 301.5 318.14 Z" id="MKD-2941" data-name="Krivogaštani"/>
<path d="M 254.69 280.41 256.2 282.42 259.86 286.24 264.75 290.53 266.61 291.44 267.68 293.27 267.68 294.34 267.35 296.64 262.79 296.48 260.02 296.34 256.97 296.48 255.75 297.7 255.59 299.85 259.12 301.22 263.24 304.9 266.9 307.8 267.96 309.48 270.44 310.51 270.05 311.32 270.05 314.52 269.89 319.11 269.89 322.02 271.4 324.31 272.63 325.54 275.23 327.52 277.22 330.12 277.67 333.33 277.22 336.54 276.45 338.53 275.71 340.36 274.62 341.28 274.01 343.11 275.71 343.72 277.83 343.88 278 345.46 276.61 345.56 274.17 346.18 272.95 348.32 270.67 353.67 268.51 356.11 268.19 359.01 269.89 360.55 271.57 361.86 269.6 361.69 267.48 360.52 265.59 358.87 264.07 359.2 264.27 356 265.14 353.93 265.14 350.09 265.14 347.44 263.37 345.07 259.83 342.71 258.35 338.87 257.48 335.03 253.63 331.49 250.67 330.61 247.71 331.78 244.46 332.08 242.12 332.08 241.54 330.9 241.54 329.13 241.83 326.17 241.83 322.04 241.83 318.49 239.77 316.14 236.2 316.14 231.48 315.55 226.75 316.14 226.75 314.07 226.75 311.7 224.4 310.23 219.39 308.46 217.17 307.53 216.82 306.21 214.66 302.56 215.43 301.27 215.98 300.39 218.33 299.23 221.16 298.23 225.98 296.9 229.8 295.9 234.27 293.91 234.63 293.78 238.77 292.24 244.43 290.91 248.77 289.58 249.93 287.09 249.93 284.26 249.93 282.42 250.6 280.43 253.43 280.26 254.69 280.41 Z" id="MKD-2942" data-name="Kruševo"/>
<path d="M 468.16 85.91 466.97 87.01 466.13 91.52 462.59 94.91 460.63 97.87 460.92 99.99 462.18 101.4 464.59 101.68 467.26 101.68 470.08 101.83 471.08 103.52 471.5 106.05 472.34 109.17 473.75 110.29 476 111.29 479.67 113.96 480.53 116.32 480.66 116.64 479.95 119.03 477 120.73 471.34 122.28 466.84 124.11 463.46 124.26 461.63 122.84 459.64 119.89 456.39 117.2 452.18 116.36 447.52 116.5 443.69 117.07 441.44 118.75 437.07 121.45 435.36 123.13 434.66 125.25 434.66 127.51 433.11 129.06 430.57 130.61 429.58 132.3 427.2 133.57 426.75 134.26 425.66 133.75 422.6 132.12 420.13 129.51 417.17 127.99 412.7 127.88 409.1 128.09 407.36 129.18 404.98 129.94 402.89 129.94 401.06 129.29 399.87 126.78 396.82 125.05 393.76 124.6 389.2 122.76 387.49 121.25 387.11 120.91 387.11 119.6 387.43 117.64 387.98 115.9 387.98 113.18 387.17 111.98 385.21 111.98 382.93 111.98 379.33 109.69 375.63 107.29 371.93 105.66 370.97 103.75 370.74 103.27 370.62 100.22 368.11 99.02 364.41 97.71 361.68 97.71 360.17 97.06 360.07 94.77 360.94 92.82 362.77 92.16 365.5 90.96 367.79 89.43 370.07 87.7 371.39 84.54 371.71 81.6 371.64 78.87 371.64 76.15 372.74 74.52 374.28 74.08 376.11 74.52 377.98 75.61 379.62 75.83 380.58 75.28 380.68 73.87 380.81 71.25 380.58 69.84 380.58 67.33 382.64 66.13 385.05 65.92 386.79 65.37 387.33 64.17 387.33 61.56 386.47 58.19 385.28 55.36 385.24 51.16 385.05 44.63 384.45 43.11 384.47 43.12 389.17 40.91 393.67 36.85 397.71 35.02 400.61 37.1 407.04 39.27 407.59 40.14 410.74 41.11 413.41 41.54 415.14 42.18 417.17 44.02 417.3 46.6 416.65 48.1 414.05 48.85 411.8 49.18 410.19 49.82 409.55 51.44 409.42 53.91 410.19 54.66 411.25 56.17 411.25 59.18 411.38 62.31 410.51 63.71 409.32 65.11 408.91 66.61 408.78 68.44 408.91 70.48 409.1 73.5 410.19 75.97 412.99 79.09 416.2 81.78 418.13 83.72 420.61 84.47 423.08 84.47 424.59 82.75 427.71 81.57 430.64 81.13 432.79 79.85 435.27 79.2 438.9 78.66 440.96 78.77 442.37 79.85 443.75 80.92 446.87 81.78 452.24 82.96 454.85 83.07 455.81 82.85 457.19 81.57 457.32 80.17 458.06 78.45 459.8 77.58 462.47 77.37 464.62 78.13 466.03 80.6 466.9 83.4 468.16 85.91 Z" id="MKD-2943" data-name="Kumanovo"/>
<path d="M 231.06 166.26 233.98 166.84 237.71 168.71 241.25 171.2 244.37 172.25 246.62 173.06 249.83 175.58 253.59 178.85 258.1 184.38 263.88 190.41 268.67 197.44 274.68 201.46 279.7 201.96 281.66 200.81 283.94 201.38 287.48 201.38 290.24 203.73 290.24 211.19 290.24 214.33 293.75 219.83 296.51 221.79 296.87 220.87 297.28 223.06 295.29 225.83 292.53 228.34 290.76 229.6 289.76 230.6 289.5 232.6 290.76 235.12 290.76 238.13 290.5 241.9 290.34 242.82 289.47 242.82 287.93 242.82 287.48 246.64 287.16 252.3 285.16 255.97 282.88 258.11 280.12 260.55 278.28 262.24 276.61 264.53 275.71 266.67 275.84 271.41 276 274.77 274.46 274.47 272.02 273.56 270.34 272.63 267.13 271.72 263.53 272.18 262.18 273.4 260.96 275.54 259.25 276.31 257.13 276.31 254.82 277.38 254.37 278.14 254.37 279.97 254.69 280.41 253.43 280.26 250.6 280.43 249.93 282.42 249.93 284.26 249.93 287.09 248.77 289.58 244.43 290.91 238.77 292.24 234.63 293.78 234.63 292.9 233.63 290.41 230.64 289.08 227.46 288.75 223.79 287.58 221.96 286.09 220.8 284.59 220.48 283.43 220.48 281.43 220.48 279.43 220.32 278.6 218.81 277.77 214.98 277.77 212.51 279.1 210.48 279.93 208.17 280.43 205.34 281.26 202.35 281.43 200.68 281.43 197.69 282.09 197.59 282.07 197.59 280.6 197.59 279.35 198.2 277.06 200.48 276.02 203.41 275.4 205.27 273.11 209.84 270.62 213.38 267.08 216.91 264.37 220.03 262.92 219.84 261.04 216.91 259.59 212.96 258.14 209.23 255.43 207.56 253.56 206.72 248.57 205.69 246.7 205.47 246.92 205.89 242.74 205.89 237.96 205.89 234.02 204.25 231.52 199.87 230.06 196.53 230.06 193.22 229.85 191.35 228.61 190.36 225.82 191.96 221.32 191.35 215.92 190.29 213.84 188.85 212.38 188.01 210.72 188.01 208.22 187.59 205.53 184.7 203.86 183.22 200.74 183.64 199.08 185.31 198.03 187.82 198.03 188.65 196.79 188.65 193.67 188.65 189.09 190.29 186.18 196.75 185.76 198.49 185.47 202.77 184.72 207.14 181.6 212.35 175.37 219.61 169.33 225.66 166 229.8 166 231.06 166.26 Z" id="MKD-2944" data-name="Brod"/>
<path d="M 287.32 350.68 286.93 350.76 287.25 352.75 288.77 354.43 293.52 355.19 296.42 355.35 300.4 357.18 304.07 361.61 307.89 363.91 309.02 366.36 310.85 367.73 314.23 367.88 317.6 368.04 319.56 368.65 321.72 371.55 327.67 374 331.04 374.15 334.55 374.15 336.86 372.93 338.53 372.01 340.81 372.01 346.47 375.37 350.78 376.6 355.51 377.21 359.17 378.12 360.33 379.13 360.17 379.22 358.88 383.91 355.12 387.85 350.62 391.97 345.73 396.66 342.2 398.34 335.45 397.6 328.12 396.85 323.9 395.72 319.21 394.22 316.03 394.22 311.17 396.85 308.34 399.66 307.67 401.13 306.9 400.6 304.29 400.14 302.3 400.14 300.76 400.45 298.47 401.67 295.26 403.2 293.59 403.2 291.14 402.74 288.7 401.67 287.16 400.45 286.39 398.76 286.55 395.71 286.55 392.8 286.87 390.51 286.71 388.52 286.1 386.39 284.26 385 280.12 383.93 277.06 382.41 274.33 379.96 272.63 377.21 271.57 374.46 271.57 371.4 273.11 369.56 274.33 367.43 274.33 364.83 272.02 362.23 271.57 361.86 269.89 360.55 268.19 359.01 268.51 356.11 270.67 353.67 272.95 348.32 274.17 346.18 276.61 345.56 278 345.46 278.77 345.41 281.98 346.63 284.43 349.38 285.94 350.3 287.32 350.68 Z" id="MKD-2945" data-name="Mogila"/>
<path d="M 565.92 258.17 567.95 260.06 571.35 262.88 573.99 266.13 576.21 268.64 577.69 271.16 577.85 274.27 578.3 275.05 576.72 276.41 573.35 278.78 570.97 279.68 569.62 280.58 568.72 281.95 567.91 283.64 566.79 284.99 565.66 285.78 564.09 285.78 561.26 285.1 559.11 284.2 556.4 283.18 553.25 281.83 551.78 280.81 549.97 279.46 548.17 279.01 545.35 279.01 543.19 280.13 539.82 283.18 536.67 284.99 535.28 286.8 533.71 290.97 532.58 294.7 531.23 296.96 530.11 298.88 528.63 299.78 526.73 300.9 525.12 301.01 524 302.15 523.68 303.16 524.45 304.52 526.38 306.54 528.4 308.46 529.3 310.16 529.3 311.51 528.85 313.32 528.18 314.9 527.63 316.82 526.73 318.06 525.12 318.4 522.1 318.85 517.34 318.85 513.16 318.51 511.33 318.6 509.53 317.62 506.51 316.35 506.35 314.91 506.51 313 505.87 310.45 503.17 306.95 501.72 302.16 501.56 296.42 501.72 291.16 500.3 286.37 499.34 283.03 498.54 279.36 498.7 272.98 497.09 271.23 493.91 270.27 491.37 270.58 488.18 272.02 485.45 272.18 482.11 272.18 479.92 270.78 479.89 270.75 480.21 265.17 479.73 258.63 479.73 255.44 479.79 255.39 480.69 254.81 482.59 254.81 484.04 256.09 484.04 259.57 484.68 261.99 485.71 263.14 487.51 263.14 489.66 263.01 490.44 261.99 491.59 259.69 492.85 257.27 492.85 255.74 491.21 254.33 490.18 253.96 489.79 253.06 489.92 252.16 490.69 250.89 492.59 248.72 493.62 246.94 494.9 244.77 494.9 243.11 494.52 241.71 492.59 240.56 490.95 240.56 488.38 241.2 485.97 242.09 483.68 243.11 481.37 243.11 479.34 242.22 478.32 240.82 478.32 239.16 478.7 237.38 480.08 235.08 482.27 233.29 484.17 232.53 485.97 229.6 487.64 227.81 488.51 225.89 488.31 223.99 489.15 224.49 491.95 226.28 494.9 226.4 497.96 227.3 499.12 228.45 501.4 231.51 503.94 233.68 505.48 233.68 507.02 233.16 508.02 232.14 509.05 230.1 510.59 227.93 512.75 227.68 514.29 228.82 515.41 230.24 516.57 232.41 517.73 235.98 518.12 239.42 519.5 242.34 521.43 243.5 523.97 242.99 528.31 243.24 532.39 243.37 537.37 244.64 538.27 246.68 538.4 251.15 540.81 252.29 544.25 253.44 547.44 254.98 552.16 257.52 557.66 258.67 563.51 258.55 565.92 258.17 Z" id="MKD-2946" data-name="Negotino"/>
<path d="M 452.71 407.13 452.66 408.15 452.08 410.51 447.84 415.3 436.75 423.4 432.53 429.21 432.5 429.22 432.5 429.24 432.47 429.27 420.77 435.48 417.68 438.4 417.1 440.97 417.07 444.33 415.95 447.87 412.02 450.92 409.4 451.36 403.15 452.4 387.01 449.65 378.24 452.69 377.59 453.91 376.92 457.93 375.73 459.67 374.18 460.09 369.72 459.89 367.92 460.1 364.8 462 357.53 467.48 354.8 468.85 346.12 467.56 332.39 458.21 331.21 458.08 331.23 458.04 332.81 454.78 332.91 454.4 332.91 451.58 331.78 447.84 331.59 445.02 330.66 442.4 327.28 438.65 323.16 435.28 319.21 431.72 317.89 429.46 314.9 428.72 311.17 428.16 310.98 425.72 310.79 421.4 310.21 418.59 307.96 416.72 306.48 415.59 305.55 414.28 304.97 411.09 305.16 408.84 306.29 407.53 307.03 405.66 307.03 402.47 307.67 401.13 308.34 399.66 311.17 396.85 316.03 394.22 319.21 394.22 323.9 395.72 328.12 396.85 335.45 397.6 342.2 398.34 345.73 396.66 350.62 391.97 355.12 387.85 358.88 383.91 360.17 379.22 360.33 379.13 363 377.35 365.25 377.16 366.57 378.28 367.85 380.53 369.56 382.6 374.41 385.23 378.56 386.35 384.18 386.92 391.1 387.66 394.31 388.04 401.03 390.47 404.6 391.79 408.91 392.53 412.12 392.91 414.92 394.41 418.1 397.6 420.74 398.91 425.04 399.85 429.16 399.85 432.15 399.66 433.47 397.78 434.4 397.6 435.36 397.97 436.49 399.85 439.09 401.91 442.47 404.16 445.84 404.72 452.53 407.07 452.71 407.13 Z" id="MKD-2947" data-name="Novaci"/>
<path d="M 285.65 107.16 285.65 109.33 285.65 116.25 285.45 120.92 277.58 120.38 272.82 115.84 269.48 110.12 265.91 105.11 264.94 101.06 262.34 98.91 259.93 99.15 258.03 100.82 254.69 101.3 251.83 100.1 249.67 96.05 248.93 90.27 250.34 86.28 263.75 88.29 267 87.76 267.47 85.58 270.79 87.02 280.28 93.94 285.65 102.79 285.65 107.16 Z" id="MKD-2948" data-name="Gjorče Petrov"/>
<path d="M 169.24 233 168.69 235.67 169.72 238.8 169.72 243.79 169.49 247.33 167.21 250.44 165.76 253.98 164.09 254.81 163.74 256.2 162.23 255.84 160.56 255.84 157.24 256.47 154.96 257.93 152.45 258.76 148.5 260.22 143.29 261.04 141.84 263.54 141.84 265.1 140.59 264.8 139.75 263.34 138.31 259.8 133.52 255.84 131.46 251.91 129.15 248.15 123.97 247.53 121.88 243.58 120.43 239.63 118.15 236.51 114.65 236.06 113.36 235.88 109.18 236.72 106.71 235.26 106.48 233.18 109.82 230.06 116.9 229.85 119.37 228.4 124.81 223.62 128.34 221.95 131.24 221.95 135.41 221.95 137.05 220.91 141.97 220.55 145.38 220.29 151.84 221.74 156.6 223.62 161.2 226.11 164.09 229.02 166.37 231.1 169.24 233 Z" id="MKD-2950" data-name="Zajas"/>
<path d="M 73.85 294.91 71.86 296.61 68.32 300.15 63.98 302.02 55.01 301.6 44.63 301.6 35.01 301.45 30.52 301.92 28.97 298.8 25.27 294.84 22.93 293.67 17.75 293.04 15.53 291.63 14.92 289.94 14.28 284.86 13.25 282.46 12.65 281.6 17.33 278.49 21.93 274.43 29.1 271.82 35.91 268.58 39.48 264.03 46.97 264.03 52.47 264.67 56.07 268.58 58 274.43 61.25 276.69 64.82 276.69 67.1 282.22 67.1 287.09 67.1 291.32 71.99 291.96 73.85 294.91 Z" id="MKD-2951" data-name="Centar župa"/>
<path d="M 89.57 278.32 88.09 277.89 86.64 277.27 84.14 277.69 82.05 279.76 80.83 282.46 80.18 285.79 79.15 289.54 78.32 291.62 75.84 295.08 74.78 294.12 73.85 294.91 71.99 291.96 67.1 291.32 67.1 287.09 67.1 282.22 64.82 276.69 61.25 276.69 58 274.43 56.07 268.58 52.47 264.67 46.97 264.03 39.48 264.03 35.91 268.58 29.1 271.82 21.93 274.43 17.33 278.49 12.65 281.6 9.29 276.77 6.92 274.91 3.44 273.72 1.26 269.09 2.16 260.7 1 256.28 16.17 253.79 20.68 252.36 24.85 250.46 27.49 248.43 29.16 245.2 29.15 244.56 34.98 246.5 41.12 251.67 48.9 255.9 59.32 257.52 62.89 257.52 69.38 261.74 72.95 265.97 77.19 269.55 84.01 271.5 88.22 273.12 89.18 276.69 89.57 278.32 Z" id="MKD-2952" data-name="Debar"/>
<path d="M 141.84 265.1 141.84 266.24 142.68 268.74 144.55 270.83 146.63 272.27 151.43 274.56 155.77 276.02 160.36 277.06 164.93 279.55 166.28 281.28 165.96 281.64 163.26 282.46 162.84 285.17 163.26 287.46 164.51 289.33 169.3 291.83 172.61 293.49 174.09 295.37 174.09 297.24 175.34 299.1 178.24 299.31 183.45 299.31 187.17 299.31 191.55 298.48 195.92 296.82 196.05 293.91 196.34 293.91 199.04 292.86 201.55 292.66 202.57 294.32 204.86 297.45 209 298.89 213.79 300.35 215.43 301.27 214.66 302.56 216.82 306.21 217.17 307.53 215.85 306.99 211.13 308.75 210.23 311.12 205.5 314.66 200.48 317.02 191.26 317.35 185.02 317.35 176.31 317.15 168.95 319.61 161.97 323.57 160.07 326.4 158.37 324.47 155.67 320.11 153.19 318.03 147.37 316.57 145.06 313.04 145.7 309.5 144.64 305.55 141.33 300.35 139.24 295.98 137.79 295.98 127.38 295.77 120.72 294.53 111.17 293.91 103.27 294.12 89.35 294.32 79.35 293.91 76.65 295.8 75.84 295.08 78.32 291.62 79.15 289.54 80.18 285.79 80.83 282.46 82.05 279.76 84.14 277.69 86.64 277.27 88.09 277.89 89.57 278.32 93.07 279.35 98.06 279.97 102.01 278.93 105.36 276.44 109.02 271.17 112.91 269.55 112.91 265.65 113.23 262.72 117.15 259.48 117.15 255.57 117.15 252.32 117.15 246.47 115.19 238.03 114.65 236.06 118.15 236.51 120.43 239.63 121.88 243.58 123.97 247.53 129.15 248.15 131.46 251.91 133.52 255.84 138.31 259.8 139.75 263.34 140.59 264.8 141.84 265.1 Z" id="MKD-2953" data-name="Drugovo"/>
<path d="M 163.74 256.2 163.48 257.31 164.73 258.76 165.35 261.46 165.96 262.71 168.05 262.71 169.91 261.46 171.39 261.25 173.86 262.71 175.54 265 175.54 267.5 175.54 270.41 172.23 272.07 169.07 277.89 166.28 281.28 164.93 279.55 160.36 277.06 155.77 276.02 151.43 274.56 146.63 272.27 144.55 270.83 142.68 268.74 141.84 266.24 141.84 265.1 141.84 263.54 143.29 261.04 148.5 260.22 152.45 258.76 154.96 257.93 157.24 256.47 160.56 255.84 162.23 255.84 163.74 256.2 Z" id="MKD-2954" data-name="Kičevo"/>
<path d="M 141.97 220.55 137.05 220.91 135.41 221.95 131.24 221.95 128.34 221.95 124.81 223.62 119.37 228.4 116.9 229.85 109.82 230.06 106.48 233.18 106.71 235.26 109.18 236.72 113.36 235.88 114.65 236.06 115.19 238.03 117.15 246.47 117.15 252.32 117.15 255.57 117.15 259.48 113.23 262.72 112.91 265.65 112.91 269.55 109.02 271.17 105.36 276.44 102.01 278.93 98.06 279.97 93.07 279.35 89.57 278.32 89.18 276.69 88.22 273.12 84.01 271.5 77.19 269.55 72.95 265.97 69.38 261.74 62.89 257.52 59.32 257.52 48.9 255.9 41.12 251.67 34.98 246.5 29.15 244.56 29.13 242.48 22.54 228.05 20.96 221.41 18.49 198.91 19.39 195.63 21.9 191.49 24.95 188.47 32.18 183.15 34.21 180.42 33.97 178.39 43.15 181.34 49.55 183.24 52.73 185.97 59.8 188.47 64.59 191.59 71.02 192.41 77.48 192.83 81.02 190.76 83.94 187.85 86.84 185.14 93.3 185.14 99.12 185.76 105.13 186.6 109.92 186.8 111.79 188.47 115.74 193.67 116.38 199.7 119.28 202.2 123.04 200.53 126.77 200.53 131.75 200.53 134.87 200.74 134.87 202.4 132.17 204.28 130.53 205.72 132.81 209.05 136.77 213.84 141.33 217.79 141.97 220.55 Z" id="MKD-2955" data-name="Mavrovo and Rostusa"/>
<path d="M 190.36 225.82 191.35 228.61 193.22 229.85 196.53 230.06 199.87 230.06 204.25 231.52 205.89 234.02 205.89 237.96 205.89 242.74 205.47 246.92 203.6 248.78 200.9 252.31 196.75 255.02 192.99 255.84 190.52 257.72 189.26 260.43 187.59 265 184.89 267.91 180.94 269.99 175.54 270.41 175.54 267.5 175.54 265 173.86 262.71 171.39 261.25 169.91 261.46 168.05 262.71 165.96 262.71 165.35 261.46 164.73 258.76 163.48 257.31 163.74 256.2 164.09 254.81 165.76 253.98 167.21 250.44 169.49 247.33 169.72 243.79 169.72 238.8 168.69 235.67 169.24 233 169.49 231.72 171.16 230.9 174.09 229.23 178.46 228.82 182.38 227.77 185.73 227.36 188.43 225.69 190.29 225.69 190.36 225.82 Z" id="MKD-2956" data-name="Oslomej"/>
<path d="M 183.06 111.9 182.38 111.73 179.91 111.32 177.21 110.07 176.37 108.82 176.37 106.53 176.37 104.66 177.21 102.37 175.95 100.5 173.67 98.21 170.97 97.38 169.07 97.38 166.37 96.76 165.35 94.47 163.67 91.15 161.2 87.4 158.5 85.11 155.57 83.86 151.62 81.99 147.66 80.75 144.09 79.91 166.17 74.31 175.12 72.04 182.99 69.1 186.64 66.44 194.15 71.6 198.78 75.76 202.96 80.15 205.72 84.31 208.26 85.47 211.25 85.94 213.57 87.1 214.73 89.87 214.28 93.33 211.03 96.34 208.26 97.96 204.79 102.59 202.7 106.29 197.85 108.14 192.54 108.83 183.99 110.22 182.83 111.14 183.06 111.9 Z" id="MKD-2957" data-name="Tearce"/>
<path d="M 183.06 111.9 183.67 113.88 181.77 114.23 180.1 115.89 178.46 117.77 178.46 118.59 179.68 119.63 182.38 120.26 183.03 121.71 184.47 123.38 187.82 124.21 188.85 124.83 188.65 127.12 187.4 127.54 185.12 127.75 182.38 128.58 180.1 130.87 180.13 130.91 176.98 130.45 174.51 130.24 170.55 128.16 168.05 126.7 166.18 126.49 164.32 127.33 162.64 129.82 162.03 131.07 160.81 130.97 159.53 130.87 155.38 127.12 152.04 124.21 149.11 122.96 139.56 121.5 131.24 119.84 126.45 120.05 122.91 121.71 119.79 124 116.06 126.08 110.66 127.54 105.87 129.4 102.33 132.11 97.58 133.79 96.58 134.75 93.59 125.29 93.97 118.22 97.8 102.89 100.92 96.18 106.99 90.68 114.97 87.29 144.09 79.91 147.66 80.75 151.62 81.99 155.57 83.86 158.5 85.11 161.2 87.4 163.67 91.15 165.35 94.47 166.37 96.76 169.07 97.38 170.97 97.38 173.67 98.21 175.95 100.5 177.21 102.37 176.37 104.66 176.37 106.53 176.37 108.82 177.21 110.07 179.91 111.32 182.38 111.73 183.06 111.9 Z" id="MKD-2958" data-name="Tetovo"/>
<path d="M 157.82 155.61 158.37 156.86 158.18 160.39 158.37 162.48 160.17 163.01 157.95 163.72 156.73 164.76 155.25 166.42 156.09 169.33 156.73 171.41 153.61 174.12 147.76 175.58 137.79 173.7 129.89 174.53 126.16 177.03 120.53 176.4 115.13 174.12 113.26 172.04 111.37 168.09 109.31 166.21 105.13 165.8 100.79 165.8 96.84 165.59 95.52 165.1 88.96 163.01 85.06 160 87.83 157.69 93.01 151.02 96.29 145.19 96.46 144.12 100.31 142.25 103.91 141.47 113.46 142.5 123.23 143.97 133.42 146.46 142.36 149.99 150.27 153.53 154.41 154.16 156.5 155.61 157.82 155.61 Z" id="MKD-2959" data-name="Vrapcište"/>
<path d="M 160.81 130.97 160.88 132.32 161.07 136.89 162.32 138.35 166.5 138.35 170.04 138.56 169.81 140.85 168.79 142.5 167.53 145.42 165.44 147.71 163.16 148.96 159.85 149.37 158.37 151.04 158.59 152.49 159.62 154.16 160.04 155.61 159.62 155.61 157.82 155.61 156.5 155.61 154.41 154.16 150.27 153.53 142.36 149.99 133.42 146.46 123.23 143.97 113.46 142.5 103.91 141.47 100.31 142.25 96.46 144.12 97.51 137.69 96.58 134.75 97.58 133.79 102.33 132.11 105.87 129.4 110.66 127.54 116.06 126.08 119.79 124 122.91 121.71 126.45 120.05 131.24 119.84 139.56 121.5 149.11 122.96 152.04 124.21 155.38 127.12 159.53 130.87 160.81 130.97 Z" id="MKD-2960" data-name="Bogovinje"/>
<path d="M 180.13 130.91 181.16 132.32 183.22 135.02 186.76 137.73 189.46 137.93 191.13 138.56 191.13 141.27 191.77 145.83 194.67 147.08 196.95 147.08 198.81 147.08 200.29 149.79 200.29 150.83 199.46 152.28 196.75 152.69 195.92 154.99 195.69 158.1 195.92 160.81 199.04 161.23 203.83 161.43 207.56 161.43 211.51 163.93 213.6 165.39 217.14 165.39 221.28 165.39 223.57 165.18 224.21 163.72 224.82 162.06 227.1 161.43 229.39 161.43 231.06 163.3 231.06 166.26 229.8 166 225.66 166 219.61 169.33 212.35 175.37 207.14 181.6 202.77 184.72 198.49 185.47 197.08 183.48 194.34 180.78 191.03 177.45 185.41 174.12 182.93 171.83 183.35 169.54 182.51 167.05 180.65 167.05 175.86 167.26 169.2 166.63 162.55 163.72 160.17 163.01 158.37 162.48 158.18 160.39 158.37 156.86 157.82 155.61 159.62 155.61 160.04 155.61 159.62 154.16 158.59 152.49 158.37 151.04 159.85 149.37 163.16 148.96 165.44 147.71 167.53 145.42 168.79 142.5 169.81 140.85 170.04 138.56 166.5 138.35 162.32 138.35 161.07 136.89 160.88 132.32 160.81 130.97 162.03 131.07 162.64 129.82 164.32 127.33 166.18 126.49 168.05 126.7 170.55 128.16 174.51 130.24 176.98 130.45 180.13 130.91 Z" id="MKD-2961" data-name="Brvenica"/>
<path d="M 85.06 160 88.96 163.01 95.52 165.1 96.84 165.59 100.79 165.8 105.13 165.8 109.31 166.21 111.37 168.09 113.26 172.04 115.13 174.12 120.53 176.4 126.16 177.03 129.89 174.53 137.79 173.7 147.76 175.58 153.61 174.12 156.73 171.41 156.09 169.33 155.25 166.42 156.73 164.76 157.95 163.72 160.17 163.01 162.55 163.72 169.2 166.63 175.86 167.26 180.65 167.05 182.51 167.05 183.35 169.54 182.93 171.83 185.41 174.12 191.03 177.45 194.34 180.78 197.08 183.48 198.49 185.47 196.75 185.76 190.29 186.18 188.65 189.09 188.65 193.67 188.65 196.79 187.82 198.03 185.31 198.03 183.64 199.08 183.22 200.74 184.7 203.86 187.59 205.53 188.01 208.22 188.01 210.72 188.85 212.38 190.29 213.84 191.35 215.92 191.96 221.32 190.36 225.82 190.29 225.69 188.43 225.69 185.73 227.36 182.38 227.77 178.46 228.82 174.09 229.23 171.16 230.9 169.49 231.72 169.24 233 166.37 231.1 164.09 229.02 161.2 226.11 156.6 223.62 151.84 221.74 145.38 220.29 141.97 220.55 141.33 217.79 136.77 213.84 132.81 209.05 130.53 205.72 132.17 204.28 134.87 202.4 134.87 200.74 131.75 200.53 126.77 200.53 123.04 200.53 119.28 202.2 116.38 199.7 115.74 193.67 111.79 188.47 109.92 186.8 105.13 186.6 99.12 185.76 93.3 185.14 86.84 185.14 83.94 187.85 81.02 190.76 77.48 192.83 71.02 192.41 64.59 191.59 59.8 188.47 52.73 185.97 49.55 183.24 43.15 181.34 33.97 178.39 33.44 173.99 30.96 166.14 31.06 164.45 31.35 159.25 39.26 155.64 46.46 161.38 50.22 162.89 55.3 162.69 57.61 161.24 60.99 156.52 62.98 155.5 65.91 156.86 71.82 163.07 74.81 164.72 81.5 162.98 85.06 160 Z" id="MKD-2962" data-name="Gostivar"/>
<path d="M 245.23 83.9 245.2 83.94 244.69 84.94 241.02 88.17 237.26 88.68 233.5 88.68 229.74 89.18 225.21 89.43 221.7 90.69 220.45 91.95 222.96 93.7 225.46 95.96 227.71 95.96 229.74 94.96 231.48 94.71 232.73 97.46 232.73 100.23 231.48 101.49 228.49 102.49 226.46 104.25 226.2 106.01 226.97 108.43 229.58 112.03 229.58 114.45 227.36 115.05 223.76 116.25 219.52 116.86 217.91 117.46 217.11 118.07 216.94 119.36 214.98 119.47 211.96 119.47 210.35 120.16 208.71 122.01 206.4 122.01 200.16 121.55 196.47 120.63 195.76 119.47 197.62 118.08 197.62 116 196.02 115.07 193.7 116 190.23 116 184.89 114.84 183.73 114.15 183.67 113.88 183.06 111.9 182.83 111.14 183.99 110.22 192.54 108.83 197.85 108.14 202.7 106.29 204.79 102.59 208.26 97.96 211.03 96.34 214.28 93.33 214.73 89.87 213.57 87.1 211.25 85.94 208.26 85.47 205.72 84.31 202.96 80.15 198.78 75.76 194.15 71.6 186.64 66.44 197.04 58.82 204.53 55.24 206.95 55.29 209.04 55.73 213.21 57.43 225.05 64.24 236.07 72.29 241.15 78.51 244.01 82.98 245.23 83.9 Z" id="MKD-2963" data-name="Jegunovce"/>
<path d="M 694.71 280.17 696.12 281.06 698.5 283.13 699.24 284.91 700.27 287.27 700.85 289.19 700.72 290.82 699.37 293.04 698.34 294.66 698.34 296.43 699.53 296.73 701.3 297.17 702.62 298.21 704.26 298.21 705.13 297.77 706.19 296.88 708.82 296.73 710.75 296.59 711.94 297.77 712.52 299.25 712.97 301.75 713.87 302.79 715.8 304.12 718.31 305.16 720.97 305.45 722.45 305.16 724.22 304.42 725.7 303.83 728.21 303.68 729.53 303.68 729.53 304.27 730.43 305.01 731.62 305.75 731.91 309 731.62 313.73 731.91 319.64 731.91 321.28 732.45 321.89 732.77 322.35 732.82 322.42 727.89 323.08 722.08 326.94 721.1 326.3 716.22 324.08 710.17 321.72 705 319.64 701.3 318.9 699.24 319.35 697.02 320.38 695.38 323.2 693.62 326.45 691.53 328.37 690.66 328.97 689.02 328.97 687.99 327.78 685.93 327.63 684.29 328.37 683.1 329.85 681.05 330.44 678.22 330.44 674.68 330.44 672.33 329.85 672.33 327.78 669.05 325.27 666.71 323.79 664.62 323.65 663.3 324.08 661.08 324.68 657.96 324.82 653.98 324.82 651.76 324.68 651.63 323.2 651.34 320.09 649.99 317.88 647.32 314.77 645.71 312.4 645.71 311.08 646.9 308.71 649.25 306.5 650.44 304.42 650.44 302.94 648.96 301.17 647.32 300.13 644.36 299.84 642.02 299.99 638.32 299.99 634.46 298.65 631.5 296.59 628.26 293.93 625.59 291.11 623.53 289.34 623.63 288.52 623.69 288.01 625.75 286.39 630.19 284.75 633.88 283.87 636.1 283.87 637.71 284.75 641.41 285.2 642.89 284.17 643.27 282.1 643.72 282.39 644.88 281.5 646.97 279.59 648.74 277.82 649.64 276.03 650.67 274.85 653.75 274.56 657.32 276.03 659.38 276.03 661.89 277.51 665.58 278.85 666.93 280.17 670.02 282.98 671.95 285.05 675.19 285.05 680.98 285.2 683.78 284.31 685.84 283.72 688.95 283.28 692.78 280.91 694.71 280.17 Z" id="MKD-2993" data-name="Strumitsa"/>
<path d="M 623.63 288.52 623.53 289.34 625.59 291.11 628.26 293.93 631.5 296.59 634.46 298.65 638.32 299.99 642.02 299.99 644.36 299.84 647.32 300.13 648.96 301.17 650.44 302.94 650.44 304.42 649.25 306.5 646.9 308.71 645.71 311.08 645.71 312.4 647.32 314.77 649.99 317.88 651.34 320.09 651.63 323.2 651.76 324.68 653.98 324.82 657.96 324.82 661.08 324.68 663.3 324.08 664.62 323.65 666.71 323.79 669.05 325.27 672.33 327.78 672.33 329.85 674.68 330.44 678.22 330.44 681.05 330.44 683.1 329.85 684.29 328.37 685.93 327.63 687.99 327.78 689.02 328.97 690.66 328.97 691.53 328.37 693.62 326.45 695.38 323.2 697.02 320.38 699.24 319.35 701.3 318.9 705 319.64 710.17 321.72 716.22 324.08 721.1 326.3 722.08 326.94 718.66 329.21 715.77 337.97 715.57 337.92 715.12 337.8 711.56 336.89 709.18 336.78 706.8 336.33 703.97 336.33 701.81 336.44 699.53 336.78 697.86 336.78 694.1 335.99 690.95 335.76 688.79 336.78 687.09 338.82 687.09 340.64 686.29 342.44 684.49 343.12 679.73 343.23 673.23 343.01 671.85 344.59 669.47 347.31 666.87 350.14 664.17 351.5 661.79 352.18 661.15 352.14 659.63 352.07 656.71 350.59 656.13 349.57 655.33 348.55 649.89 348.67 648.54 350.47 648.41 352.52 647.87 356.25 647.64 357.95 645.59 359.08 643.69 360.1 642.31 361 641.92 361 641.18 361 639.61 359.08 638.19 357.16 638.19 355.68 637.16 354.45 634.69 353.76 634.56 351.27 634.69 348.1 632.76 343.57 631.15 340.85 631.28 334.74 631.28 331.91 630.6 329.75 629.48 329.3 627.2 329.3 623.92 328.29 621.76 326.7 618.93 323.42 613.95 319.11 611.48 316.06 609.42 314.81 606.14 314.48 602.18 313.01 599.13 310.51 596.75 310.18 594.02 310.06 589.84 309.83 589.65 309.67 588.14 308.36 586.43 304.62 585.89 302.14 586.11 299.08 586.66 296.93 587.62 295.16 588.04 295.69 589.39 295.69 589.81 294.21 591 292.59 598.55 290.37 604.31 289.34 612.28 287.86 617.91 287.71 622.05 288.15 623.63 288.52 Z" id="MKD-2994" data-name="Valandovo"/>
<path d="M 711.43 250.13 712.1 252.23 712.68 256.52 712.68 259.62 711.94 262.58 711.49 266.87 710.91 268.5 709.72 270.26 707.67 273.22 704.84 274.85 702.78 276.77 701.01 277.37 699.24 277.66 697.31 277.96 694.81 279.14 694.48 280.03 694.71 280.17 692.78 280.91 688.95 283.28 685.84 283.72 683.78 284.31 680.98 285.2 675.19 285.05 671.95 285.05 670.02 282.98 666.93 280.17 665.58 278.85 661.89 277.51 659.38 276.03 657.32 276.03 653.75 274.56 650.67 274.85 649.64 276.03 648.74 277.82 646.97 279.59 644.88 281.5 643.72 282.39 643.27 282.1 642.82 281.8 642.37 278.99 641.34 276.48 641.12 273.96 641.12 271.6 641.28 269.68 641.63 269.44 642.6 268.78 642.6 267.16 641.86 265.83 641.12 264.5 640.38 263.76 640.38 262.58 641.57 261.84 643.34 261.84 645.55 261.4 648.51 259.77 650.15 256.81 651.47 256.22 653.24 256.22 658.12 258.44 661.37 260.8 664.2 262.88 667.29 265.24 669.05 265.39 670.24 264.65 671.59 263.32 673.36 261.25 673.65 258.29 673.65 255.93 673.2 253.86 672.01 252.08 671.88 249.86 671.27 247.79 669.05 246.76 666.55 243.8 664.78 241.59 664.62 239.81 665.52 237.74 667 235.82 669.38 232.42 670.53 231.53 672.62 231.23 676.45 231.23 679.86 230.79 680.69 230.01 681.01 230.61 680.63 233.2 681.56 235.41 682.49 235.41 683.97 234.86 685.61 231.9 687.09 230.98 689.24 231.39 693.68 234.93 697.38 235.67 698.86 236.71 699.89 238.63 699.89 240.99 699.76 243.36 699.02 244.83 697.09 245.28 695.16 246.02 695 247.2 695.32 248.68 697.38 248.68 702.1 248.53 710.24 250.01 711.43 250.13 Z" id="MKD-2995" data-name="Vasilevo"/>
<path d="M 661.15 352.14 661.72 353.85 663.49 355.33 665.71 356.08 667 357.27 668.67 359.32 670.44 359.6 672.85 359.6 674.42 359.6 675.81 359.23 676.93 358.76 678.8 358.76 681.21 358.86 683.52 359.51 685.84 360.8 688.79 362.39 690.27 362.39 691.01 363.13 691.21 365.72 691.11 368.04 691.01 369.7 691.37 369.76 689.38 372.2 689.05 371.87 685.45 371.19 680.72 372.18 679.66 374.44 679.92 377.24 679.21 379.78 673.88 384.95 668.54 388.33 667.44 388.66 667.38 388.56 666.45 386.96 661.72 384.55 656.71 382.61 653.75 381.39 650.41 381.12 648.16 381.12 646.68 381.02 645.94 380.37 646.13 378.98 646.23 377.41 646.87 375.74 647.9 373.42 648.45 370.91 648.45 369.34 648.09 367.76 646.52 366 645.01 364.15 643.08 362.56 641.92 361 642.31 361 643.69 360.1 645.59 359.08 647.64 357.95 647.87 356.25 648.41 352.52 648.54 350.47 649.89 348.67 655.33 348.55 656.13 349.57 656.71 350.59 659.63 352.07 661.15 352.14 Z" id="MKD-2996" data-name="Bogdanci"/>
<path d="M 751.87 266.42 752.16 267.9 752.29 271.6 751.42 274.12 749.49 275.29 747.72 277.07 746.08 279.14 743.45 281.65 740.04 283.87 738.4 284.75 735.73 286.23 734.25 287.71 734.41 290.37 734.41 293.19 734.41 296.73 734.25 298.81 733.67 300.43 732.48 301.31 731.29 301.91 729.82 302.79 729.53 303.53 729.53 303.68 728.21 303.68 725.7 303.83 724.22 304.42 722.45 305.16 720.97 305.45 718.31 305.16 715.8 304.12 713.87 302.79 712.97 301.75 712.52 299.25 711.94 297.77 710.75 296.59 708.82 296.73 706.19 296.88 705.13 297.77 704.26 298.21 702.62 298.21 701.3 297.17 699.53 296.73 698.34 296.43 698.34 294.66 699.37 293.04 700.72 290.82 700.85 289.19 700.27 287.27 699.24 284.91 698.5 283.13 696.12 281.06 694.71 280.17 694.48 280.03 694.81 279.14 697.31 277.96 699.24 277.66 701.01 277.37 702.78 276.77 704.84 274.85 707.67 273.22 709.72 270.26 710.91 268.5 711.49 266.87 711.94 262.58 712.68 259.62 712.68 256.52 712.1 252.23 711.43 250.13 714.67 250.46 716.89 252.82 717.79 255.63 720.43 258 725.03 260.36 728.72 260.96 734.19 261.54 738.79 261.7 744.77 261.99 747.56 263.46 750.39 266.42 751.87 266.42 Z" id="MKD-2997" data-name="Bosilovo"/>
<path d="M 641.92 361 643.08 362.56 645.01 364.15 646.52 366 648.09 367.76 648.45 369.34 648.45 370.91 647.9 373.42 646.87 375.74 646.23 377.41 646.13 378.98 645.94 380.37 646.68 381.02 648.16 381.12 650.41 381.12 653.75 381.39 656.71 382.61 661.72 384.55 666.45 386.96 667.38 388.56 667.44 388.66 662.66 390.08 655.81 390.39 645.65 389.23 640.7 389.26 634.72 390.63 630.38 391.48 625.4 391.9 616.17 391.59 612.63 390.58 606.04 387.33 603.21 386.29 599.32 386.08 591.45 387.14 585.56 387.29 582.96 388.56 581 388.38 580.36 387.3 579.91 383.2 579.1 382 576.24 381.37 566.76 380.45 554.99 377.61 551.41 377.27 551.39 377.22 549.72 373.7 550.33 372.43 550.71 370.33 551.78 368.62 553.61 367.96 558.88 367.31 563.35 367.44 565.44 367.31 566.34 366.92 566.34 365.34 565.7 363.9 564.92 362.45 564.38 359.69 563.48 357.98 562.55 355.75 562.8 353.78 563.86 353.65 565.05 353.51 566.63 353.51 570.29 352.2 572.8 350.49 575.95 348.52 577.27 348.26 578.97 347.61 579.1 345.77 578.3 344.98 576.72 344.98 575.02 344.32 574.63 342.49 574.63 340.77 574.63 336.84 574.38 335 573.7 333.94 572.67 332.37 572.67 332.11 572.8 331.05 574.63 329.21 576.85 327.11 578.43 326.06 581.06 325.93 584.76 325.8 588.81 326.06 591.45 326.06 593.02 325.66 593.41 324.35 593.54 321.73 593.28 319.37 591.96 316.2 591.06 315.16 589.49 313.71 589.23 312.14 589.36 310.43 589.65 309.67 589.84 309.83 594.02 310.06 596.75 310.18 599.13 310.51 602.18 313.01 606.14 314.48 609.42 314.81 611.48 316.06 613.95 319.11 618.93 323.42 621.76 326.7 623.92 328.29 627.2 329.3 629.48 329.3 630.6 329.75 631.28 331.91 631.28 334.74 631.15 340.85 632.76 343.57 634.69 348.1 634.56 351.27 634.69 353.76 637.16 354.45 638.19 355.68 638.19 357.16 639.61 359.08 641.18 361 641.92 361 Z" id="MKD-2998" data-name="Gevgelija"/>
<path d="M 770.19 322.81 741.9 321.19 732.82 322.42 732.77 322.35 732.45 321.89 731.91 321.28 731.91 319.64 731.62 313.73 731.91 309 731.62 305.75 730.43 305.01 729.53 304.27 729.53 303.68 729.53 303.53 729.82 302.79 731.29 301.91 732.48 301.31 733.67 300.43 734.25 298.81 734.41 296.73 734.41 293.19 734.41 290.37 734.25 287.71 735.73 286.23 738.4 284.75 740.04 283.87 743.45 281.65 746.08 279.14 747.72 277.07 749.49 275.29 751.42 274.12 752.29 271.6 752.16 267.9 751.87 266.42 753.93 266.42 761.9 266.42 772.86 265.83 775.5 264.99 778.33 264.53 778.48 264.51 779.29 286.27 779.71 287.78 781.51 290.95 781.9 292.75 781.13 294.21 777.52 297.57 776.53 299.49 777.17 306.13 778.75 312.65 777.62 318.44 770.19 322.81 Z" id="MKD-2999" data-name="Novo Selo"/>
<path d="M 715.77 337.97 715.41 339.05 714.13 363.67 711.17 375.68 707.6 381.96 704.23 383.81 700.17 382.29 694.64 378.54 692.23 376.08 690.85 373.67 689.38 372.2 691.37 369.76 691.01 369.7 691.11 368.04 691.21 365.72 691.01 363.13 690.27 362.39 688.79 362.39 685.84 360.8 683.52 359.51 681.21 358.86 678.8 358.76 676.93 358.76 675.81 359.23 674.42 359.6 672.85 359.6 670.44 359.6 668.67 359.32 667 357.27 665.71 356.08 663.49 355.33 661.72 353.85 661.15 352.14 661.79 352.18 664.17 351.5 666.87 350.14 669.47 347.31 671.85 344.59 673.23 343.01 679.73 343.23 684.49 343.12 686.29 342.44 687.09 340.64 687.09 338.82 688.79 336.78 690.95 335.76 694.1 335.99 697.86 336.78 699.53 336.78 701.81 336.44 703.97 336.33 706.8 336.33 709.18 336.78 711.56 336.89 715.12 337.8 715.57 337.92 715.77 337.97 Z" id="MKD-3000" data-name="Dojran"/>
<path d="M 673.43 121.66 673.68 123.68 673.68 128.56 674.1 132.7 674.26 136.1 674.26 138.76 675.58 139.64 678.99 140.24 685.19 141.72 691.11 144.08 697.18 146.45 701.01 147.19 703.84 147.63 705.74 147.63 706.8 147.78 706.8 149.41 705.45 150.29 704.26 152.36 701.62 155.91 700.72 160.35 699.4 165.37 697.47 168.18 695.26 170.4 694.68 172.63 694.52 175.72 694.74 176.18 694.07 176.31 693.49 178.82 694.52 180.46 694.97 183.7 694.52 188.88 693.33 192.58 691.27 196.27 688.31 198.94 684 198.94 680.63 199.38 678.09 201 678.09 201.08 677.8 201.08 675.42 200.78 672.91 200.78 669.05 199.6 665.68 197.53 663.75 195.9 661.53 194.42 659.02 193.54 656.36 192.65 654.59 191.76 653.56 190.13 652.82 188.65 651.76 187.91 650.73 187.91 649.54 188.07 648.67 189.39 648.06 191.02 646.29 192.35 642.02 193.09 638.61 193.09 635.07 193.24 632.4 192.35 631.09 191.47 629 189.55 626.78 188.21 623.98 187.62 623.76 187.69 623.89 185.41 623.89 181.73 623.89 180.23 624.21 177.13 624.62 174.61 624.62 172.1 624.62 169.44 624.34 165.74 623.6 161.75 623.02 159.98 621.38 158.64 620.35 157.16 620.41 156.79 620.51 156.13 622.73 154.21 622.28 146.67 622.41 144.01 623.89 140.9 624.5 136.62 625.36 132.47 626.26 131.29 628.64 131.15 631.28 131.15 632.76 131.73 634.69 132.92 636.17 134.55 637.64 135.43 639.41 135.59 641.34 135.59 644.59 133.95 646 133.25 646 133.37 647.55 133.95 650.38 134.84 652.59 134.84 656.13 133.07 658.35 129.68 660.28 126.57 660.86 123.75 661.6 121.83 663.52 120.5 665.87 120.21 670.63 120.65 673.43 121.66 Z" id="MKD-3003" data-name="Vinica"/>
<path d="M 720.62 181.98 721.14 184.44 723.64 188.88 725.41 193.02 727.63 193.91 728.21 195.68 728.37 198.64 729.56 200.71 732.07 201.15 732.97 200.71 733.26 199.08 735.02 198.05 739.3 197.9 752.9 199.82 756.47 201 758.07 203.22 758.07 205.44 759.71 205.44 762.38 205.29 767.27 205.59 772 207.81 777.91 211.5 782.19 212.54 786.33 213.57 789.87 215.49 791.35 216.51 791.49 216.61 788.74 219.92 786.72 224.43 785.75 225.99 784.05 226.78 779.16 227.84 777.62 228.91 776.14 232.48 775.18 236.78 774.89 241.26 775.4 245.41 776.4 247.18 779.36 250.65 780.06 252.76 779.81 254.57 778.3 259.73 778.48 264.51 778.33 264.53 775.5 264.99 772.86 265.83 761.9 266.42 753.93 266.42 751.87 266.42 750.39 266.42 747.56 263.46 744.77 261.99 738.79 261.7 734.19 261.54 728.72 260.96 725.03 260.36 720.43 258 717.79 255.63 716.89 252.82 714.67 250.46 711.43 250.13 710.24 250.01 702.1 248.53 697.38 248.68 695.32 248.68 695 247.2 695.16 246.02 697.09 245.28 699.02 244.83 699.76 243.36 699.89 240.99 699.89 238.63 698.86 236.71 697.38 235.67 693.68 234.93 689.24 231.39 687.09 230.98 685.61 231.9 683.97 234.86 682.49 235.41 681.56 235.41 680.63 233.2 681.01 230.61 680.69 230.01 679.53 227.83 678.96 225.25 679.15 223.21 681.01 221.36 683.59 217.67 685.26 216.01 685.45 214.35 683.97 213.05 681.56 212.13 679.34 210.65 678.22 206.58 677.96 203.37 678.09 201.08 678.09 201 680.63 199.38 684 198.94 688.31 198.94 691.27 196.27 693.33 192.58 694.52 188.88 694.97 183.7 694.52 180.46 693.49 178.82 694.07 176.31 694.74 176.18 695.55 177.79 698.66 177.64 703.97 178.08 710.33 178.68 714.77 179.72 719.95 181.93 720.62 181.98 Z" id="MKD-3004" data-name="Berovo"/>
<path d="M 748 113.89 748.04 114.06 748.3 118.17 748.4 118.22 750.84 121.6 751.58 124.94 752.13 132.41 754.44 139.56 757.79 146.67 758.27 148.85 758.14 153.44 758.94 155.8 759.34 156.13 759.3 156.17 758.33 156.94 757.05 157.98 753.22 160.05 747.72 163.01 743.61 166.41 741.68 169.07 739.17 173.06 737.53 175.42 734.86 175.72 731.33 176.76 729.11 179.42 725.99 181.93 723.48 182.22 720.62 181.98 719.95 181.93 714.77 179.72 710.33 178.68 703.97 178.08 698.66 177.64 695.55 177.79 694.74 176.18 694.52 175.72 694.68 172.63 695.26 170.4 697.47 168.18 699.4 165.37 700.72 160.35 701.62 155.91 704.26 152.36 705.45 150.29 706.8 149.41 706.8 147.78 705.74 147.63 703.84 147.63 701.01 147.19 697.18 146.45 691.11 144.08 685.19 141.72 678.99 140.24 675.58 139.64 674.26 138.76 674.26 136.1 674.1 132.7 673.68 128.56 673.68 123.68 673.43 121.66 672.78 116.58 673.52 114.95 675 114.51 676.48 114.37 678.25 114.07 678.99 113.18 679.15 110.97 679.28 108.01 679.28 103.57 679.44 98.99 679.86 94.54 680.05 91.58 695.19 97.34 704.48 98.8 705.9 99.71 707.05 101.07 708.44 102.37 710.49 102.98 724.67 102.51 727.85 102.77 729.24 104.02 729.98 106.06 731.04 108.17 733.48 109.59 735.67 109.54 740.42 108.31 742.19 108.39 745.7 110.14 747.4 111.7 748 113.89 Z" id="MKD-3005" data-name="Delčevo"/>
<path d="M 680.05 91.58 679.86 94.54 679.44 98.99 679.28 103.57 679.28 108.01 679.15 110.97 678.99 113.18 678.25 114.07 676.48 114.37 675 114.51 673.52 114.95 672.78 116.58 673.43 121.66 670.63 120.65 665.87 120.21 663.52 120.5 661.6 121.83 660.86 123.75 660.28 126.57 658.35 129.68 656.13 133.07 652.59 134.84 650.38 134.84 647.55 133.95 646 133.37 646 133.25 646 130.85 644.52 128.93 643.95 126.57 644.07 123.31 643.95 120.5 641.86 118.58 641.12 116.81 638.9 114.74 637.71 113.26 637.87 110.9 636.97 106.16 635.81 105.13 631.22 103.35 628.13 102.02 626.78 99.36 626.78 93 626.49 89.6 624.43 87.38 622.63 86.5 620.73 87.24 619.55 89.01 618.07 90.04 615.98 89.15 614.66 86.05 614.66 85.22 614.66 84.57 616.72 83.69 620.12 82.35 623.37 78.81 628.87 76.15 634.33 73.34 637.23 71.96 642.56 69.9 642.65 69.87 643.66 71.16 650.15 76.04 677.12 90.47 680.05 91.58 Z" id="MKD-3006" data-name="Makedonska Kamenica"/>
<path d="M 791.49 216.61 791.35 216.51 789.87 215.49 786.33 213.57 782.19 212.54 777.91 211.5 772 207.81 767.27 205.59 762.38 205.29 759.71 205.44 758.07 205.44 758.07 203.22 756.47 201 752.9 199.82 739.3 197.9 735.02 198.05 733.26 199.08 732.97 200.71 732.07 201.15 729.56 200.71 728.37 198.64 728.21 195.68 727.63 193.91 725.41 193.02 723.64 188.88 721.14 184.44 720.62 181.98 723.48 182.22 725.99 181.93 729.11 179.42 731.33 176.76 734.86 175.72 737.53 175.42 739.17 173.06 741.68 169.07 743.61 166.41 747.72 163.01 753.22 160.05 757.05 157.98 758.33 156.94 759.3 156.17 759.34 156.13 760.26 156.9 763.89 158.36 765.34 159.61 767.3 163.3 770.61 173.95 777.27 185.66 779.2 187.95 782.6 189.09 789.97 189.38 793.28 190.54 798.78 197.09 799 204.42 795.59 211.66 791.49 216.61 Z" id="MKD-3007" data-name="Pehčevo"/>
<path d="M 75.84 295.08 76.65 295.8 76.87 295.98 79.57 300.35 82.88 305.14 86.42 309.92 89.54 314.91 90.79 322.6 90.79 326.77 90.79 329.88 92.66 332.38 94.75 334.46 96.61 336.33 98.89 339.24 99.31 341.95 98.28 348.8 96 354.42 93.07 357.34 91.21 358.99 90.18 361.28 90.18 363.37 90.79 365.65 91.82 366.69 93.49 367.94 93.49 369.19 92.88 370.85 92.66 372.72 93.4 374.09 92.34 375.5 66.23 403.84 62.85 401.88 60.09 401.57 59.29 401.48 55.36 401.62 51.12 401.29 48.67 400.42 42.31 398.17 40.13 393.94 40.32 388.43 38.74 381.4 33.82 374.18 22.31 361.89 47.89 358.43 55.89 355.71 57.76 352.99 56.4 350.77 48.91 349.24 39.55 348.39 16.95 349.41 13.12 337.21 11.45 327.84 11.56 327.22 12.67 321.12 17.14 322.18 21.61 320.13 25.66 316.27 28.62 312.02 30.8 306.83 30.87 302.62 30.52 301.92 35.01 301.45 44.63 301.6 55.01 301.6 63.98 302.02 68.32 300.15 71.86 296.61 73.85 294.91 74.78 294.12 75.84 295.08 Z" id="MKD-4845" data-name="Struga"/>
<path d="M 548.24 78.78 547.4 78.82 544.99 79.67 544.57 82.35 544.73 84.47 544.16 85.46 541.33 86.44 537.37 87.16 534.29 88.28 531.59 88.42 529.05 88.42 526.67 87.01 523.55 84.75 518.34 81.79 514.8 78.4 509.72 76.43 506.35 76.15 502.68 76.15 501.56 74.73 501.11 71.07 501.11 69.8 500.27 69.09 497.19 69.09 494.49 67.26 492.33 65.33 493.3 65.43 495.96 65.43 498.22 65.14 499.63 63.73 499.63 61.75 498.5 59.5 496.13 56.67 494.71 54.84 494.42 53.29 494.55 48.92 494.55 46.52 493.65 45.25 492.24 43.28 491.66 41.15 492.81 39.32 497.19 38.76 498.86 38.61 500.98 36.78 500.98 34.8 500.69 31.56 500.27 28.88 499.18 26.68 499.08 22.12 503.91 22.54 514.68 21.07 527.92 16.93 529.21 24.4 532.89 27.52 539.4 28.93 544.78 33.18 545.35 37.71 543.37 43.94 544.22 50.17 546.2 62.06 548.46 66.02 549.6 71.4 549.31 75.93 548.24 78.78 Z" id="MKD-4846" data-name="Rankovce"/>
<path d="M 305.51 106.37 305.16 106.1 305.39 110.04 306.38 113.06 305.03 113.94 302.88 113.7 300.98 111.79 300.24 109.88 298.35 108.22 295.71 107.98 294.78 107.26 294.78 105.11 295 102.01 297.16 100.34 299.76 99.87 302.17 101.54 304.55 104.63 305.51 106.37 Z" id="MKD-5883" data-name="Šuto Orizari"/>
</g>
</svg>