<?xml version="1.0"?>
<svg xmlns="http://www.w3.org/2000/svg" version="1.2" baseProfile="tiny" width="800" height="697" viewBox="0 0 800 697" stroke-linecap="round" stroke-linejoin="round">
<g id="ne_10m_admin_1_states_provinces">
<path d="M 442.67 335.32 442.47 335.83 443.26 337.15 444.44 340.5 445.5 343.49 446.31 344.79 447.44 346.33 448.62 348.77 449.8 351.73 450.94 354.58 450.27 356.3 450.15 357.03 450.08 358.54 449.8 361.03 449.05 363.51 447.71 365.54 451.43 371.39 453.98 377.44 452.2 380.45 450.82 381.95 447.63 383.23 444.74 386.16 443.99 389.95 446.39 394.73 449.76 396.82 451.47 397.06 453.7 397.79 456.18 398.56 457.11 399.27 456.64 403.07 456.62 410.2 456.58 414.73 453.98 419.5 448.14 425.9 443.91 434.06 444.56 447.1 442.39 466.39 437.7 480.04 437.49 480.65 437.35 481.39 435.95 488.75 435.02 496.29 434.57 497.25 434.04 498.38 433.11 499.45 430.42 497.14 427.27 495.35 423.25 495.47 422.12 497.66 422.16 501.32 419.6 521.42 422.42 551.64 413.91 581.33 412.26 621.63 412.08 626.01 409.97 634.66 406.23 643.23 401.44 651.36 396.2 658.47 388.16 666.63 380.77 670.98 372.83 672.48 363.06 672.19 354.29 669.55 349.78 669.59 346.85 673.25 345.55 681.5 343.85 685.15 340.03 687.47 331.24 688.56 323.82 687.43 307.48 682.03 303.27 680.64 300.47 680.48 288.77 684.7 285.85 686.49 282.72 687.71 278.66 687.55 270.05 688.68 262.69 693.36 255.22 695.87 246.08 690.72 231.86 688.07 224.27 686.65 217.22 687.47 200.27 694.82 190.6 695.71 187.13 688.24 186.66 683.32 183 675.16 182.11 670.61 183.45 666.51 188.89 659.85 189.75 655.38 187.35 650.5 178.82 642.5 178.73 642.14 186.16 638.22 188.13 637.64 191.72 635.75 197.26 625.86 198.56 611.68 193.98 604.94 192.01 601.99 191.48 599.23 191.94 595.6 192.7 591.76 191.07 589.3 189.12 585.44 186.16 581.52 183.8 576.63 182.95 570.66 179.7 566.29 174.42 563.87 167.11 561.58 162.35 559 161.99 556.36 163.78 551.2 167.19 546.21 175.47 541.78 183.54 537.35 185.14 533.78 183.96 529.35 182.81 525.65 186.12 520.35 190.06 514.12 190.38 510.5 187.7 505.02 185.1 498.56 186.16 493.24 190.14 488.49 196.09 485.44 201.92 484.55 206.34 485.89 211.34 483.64 218.65 478.13 226.59 476.83 233.39 476.67 238.04 476.47 240.44 476.81 246.17 470.86 255.94 463.23 261.18 460.3 265.46 456.52 270.48 453.4 272.75 451 274.38 448.69 276.49 449.44 278.97 450.39 281.85 449.25 285.06 448.32 287.76 446.8 291.96 444.26 295.17 442.55 295.03 437.17 293.57 431.75 292.41 429.31 292.84 425.31 296.43 418.71 298.67 413.27 298.69 410.34 300.13 407.87 301.1 405.96 303.03 403.19 305.75 399.01 306.38 395.36 306.71 391.94 307.15 388.65 306 386.01 304.62 381.61 305 373.3 303.6 364.65 301.83 360.69 305.83 360.69 311.74 360.95 316.29 359.51 319.89 356.28 320.8 352.16 319.05 348.95 317.55 344.56 317.45 340.2 318.97 337.15 321 332.11 319.91 321.68 318.04 312.01 318.16 307.26 319.46 302.71 320.54 291.76 319.22 278.56 317.71 271.43 316.58 267.45 315.56 266.03 317.9 265.32 322.39 264.69 326.77 265.5 333.23 269.79 340.6 272.49 345.52 271.58 348.54 272.06 349.94 275.7 353.99 281.99 359.22 289.79 363.86 296.94 369.34 302.14 371.31 307.79 378.76 312.54 389.5 316.19 397.08 316.11 404.88 314.69 411.74 314.85 416.49 316.27 419.2 318.22 422.32 319.85 425.23 321.82 427.7 324.15 430.91 327.36 434.69 331.42 438.51 334.02 441.64 334.63 442.67 335.32 Z" id="RWA-3491" data-name="Southern"/>
<path d="M 315.56 266.03 316.58 267.45 317.71 271.43 319.22 278.56 320.54 291.76 319.46 302.71 318.16 307.26 318.04 312.01 319.91 321.68 321 332.11 318.97 337.15 317.45 340.2 317.55 344.56 319.05 348.95 320.8 352.16 319.89 356.28 316.29 359.51 311.74 360.95 305.83 360.69 301.83 360.69 303.6 364.65 305 373.3 304.62 381.61 306 386.01 307.15 388.65 306.71 391.94 306.38 395.36 305.75 399.01 303.03 403.19 301.1 405.96 300.13 407.87 298.69 410.34 298.67 413.27 296.43 418.71 292.84 425.31 292.41 429.31 293.57 431.75 295.03 437.17 295.17 442.55 291.96 444.26 287.76 446.8 285.06 448.32 281.85 449.25 278.97 450.39 276.49 449.44 274.38 448.69 272.75 451 270.48 453.4 265.46 456.52 261.18 460.3 255.94 463.23 246.17 470.86 240.44 476.81 238.04 476.47 233.39 476.67 226.59 476.83 218.65 478.13 211.34 483.64 206.34 485.89 201.92 484.55 196.09 485.44 190.14 488.49 186.16 493.24 185.1 498.56 187.7 505.02 190.38 510.5 190.06 514.12 186.12 520.35 182.81 525.65 183.96 529.35 185.14 533.78 183.54 537.35 175.47 541.78 167.19 546.21 163.78 551.2 161.99 556.36 162.35 559 167.11 561.58 174.42 563.87 179.7 566.29 182.95 570.66 183.8 576.63 186.16 581.52 189.12 585.44 191.07 589.3 192.7 591.76 191.94 595.6 191.48 599.23 192.01 601.99 193.98 604.94 198.56 611.68 197.26 625.86 191.72 635.75 188.13 637.64 186.16 638.22 178.73 642.14 177.38 636.82 177.89 632.19 177.6 630.36 172.81 626.78 165.62 622.68 157.31 620.69 140.72 618.62 131.95 615.94 108.09 605.54 101.69 604.61 78.82 606.11 69.91 614.84 63.14 654.16 57.15 647.46 49.09 643.48 37.35 642.22 32.11 640.15 17.45 630.56 14.4 627.43 17.04 597.42 14.4 588.28 10.36 584.18 5.96 582.07 2.46 579.67 1 574.63 2.42 569.47 9.25 563.38 7.86 558.59 3.88 551.48 2.42 543.68 1.63 535.27 4.57 524.96 10.1 520.21 20.66 516.55 28.86 514.15 35.67 510.13 41.25 504.45 45.8 497.34 48.77 491.49 50.11 487.27 50.57 483.85 54.61 480.08 57.94 478.9 69.26 479.26 86.74 474.63 100.27 463.95 110.1 448.64 116.27 430.04 118.55 413.63 117.73 399.49 107.29 337.8 106.44 323.42 108.39 309.36 115.78 292.06 130.45 268.6 140.52 252.5 148.8 236.78 153.56 229.84 172.53 214.12 176.51 208.96 187.27 186.78 191.82 180.93 197.99 178.33 228.03 177.11 229 176.87 229.88 176.3 230.69 175.45 232.01 173.36 232.01 173.36 233.72 175.8 240.75 185.37 250.23 196.5 258.7 199.42 266.13 201.78 269.34 201.69 271.94 200.66 273.5 201.61 275.59 202.26 281.97 205.25 289.26 208.86 297.2 208.42 304.92 208.96 306.54 220.87 307.09 236.97 306.93 248.36 306.44 256.93 311.34 262.82 315.56 266.03 Z" id="RWA-3492" data-name="Western"/>
<path d="M 631.2 2.86 635.51 4.2 632.39 7.46 629.36 11.76 628.12 16.19 629.42 20.41 635.15 24.35 636.45 29.72 635.62 32.03 634.14 34.27 633.08 36.62 633.73 38.98 637.18 41.29 640.31 40.8 642.87 39.42 644.49 38.98 649.33 42.47 650.99 44.91 652.54 55.06 654.93 60.79 662.08 72.65 664.4 80.65 668.05 85.4 668.84 88.61 668.46 89.83 667.56 91.54 666.63 93.85 666.22 96.77 668.34 103.07 673.41 106.89 684.99 111.68 689.13 114.61 695.02 120.21 698.64 122.4 724.59 132.03 732.31 133.13 739.94 137.76 742.18 148.03 741.45 158.27 740.23 162.9 738.14 165.17 740.47 170.29 746.97 178.98 751.84 184.18 753.59 187.19 757.41 201.32 761.19 210.18 767.34 215.01 776.68 211.44 779.54 219.76 779.22 229.88 774.14 260.87 774.02 265.09 774.91 267.12 778.41 272.48 779.38 276.1 774.87 286.9 776.25 291.05 779.38 306.8 777.23 313.47 773.23 319.36 771.02 325.41 774.02 332.43 767.64 337.43 765.25 339.99 763.3 343.16 775.08 345.03 776.25 355.42 771.08 378.29 778.43 376.71 785.52 380.24 791.51 386.25 795.71 391.94 799 403.35 785.47 447.1 782.06 464.4 783.73 491.29 782.06 499.29 778 506.64 772.88 510.34 766.28 513.26 760.21 516.75 754.73 518.09 751.88 519.72 748.31 520.69 745.1 519.92 724.59 509.81 720.37 508.47 715.29 509.16 710.78 512.69 705.18 523.25 700.77 526.95 692.54 527.39 684.01 524.96 675.65 523.9 668.05 528.37 655.14 527.88 642.06 521.75 620.71 504.24 618.46 501.16 616.43 495.63 614.56 493.48 613.22 493.97 600.79 491 598.88 490.03 592.56 491.9 588.73 495.47 587.1 497.61 585.29 499.98 580.24 504.65 574.59 507.53 567.2 509.93 559.69 511.47 553.35 511.76 548.48 510.66 536.21 504.69 531.64 504.24 530.24 506.88 530.04 510.58 529.22 513.34 511.47 535.6 504.77 540.23 496 540.51 486.98 537.02 478.78 531.58 472.32 525.93 460.13 511.51 455.34 507.82 450.85 506.23 447.08 506.11 443.76 506.44 440.72 505.99 433.8 500.04 433.11 499.45 434.04 498.38 434.57 497.25 435.02 496.29 435.95 488.75 437.35 481.39 437.49 480.65 437.7 480.04 442.39 466.39 444.56 447.1 443.91 434.06 448.14 425.9 453.98 419.5 456.58 414.73 456.62 410.2 456.64 403.07 457.11 399.27 458.9 397.75 462.68 396.09 465.11 394.75 467.16 392.59 469.99 391.82 471.41 393.51 473.24 395.92 476.61 396.29 479.02 395.99 480.12 395.64 481.44 395.31 483.78 394.87 486.36 394.3 488.63 393.59 492.16 392.84 495.33 392.55 496.47 392.51 497.81 392.27 498.76 390.81 501.12 388.8 503.86 386.79 506.12 385.61 510.32 383.78 515.09 382.09 519.91 383.45 524.05 388.9 526.71 392.98 529.69 396.72 532.25 400.27 534.91 396.49 538.02 389.38 540.62 375.21 541.8 361.03 542.04 356.49 544.17 354.05 549.84 351.65 555.2 349.09 557.05 345.78 557.19 338.07 556.38 331.63 554.06 329.29 551.63 326.31 551.89 320.88 550.39 315.22 547.71 311.4 547.2 309.31 548.76 308.17 551.55 305.23 554.92 302.91 557.15 301.57 557.03 295.58 553.98 283.52 549.92 270.03 548.52 261.79 550.02 257.42 551.34 252.91 549.03 247.63 543.42 241.56 535.79 232.08 528.66 222.81 523.54 217.41 519.66 210.43 516.64 202.43 514.99 193.63 517.06 187.03 520.19 184.23 520.35 182.42 518.2 181.26 514.36 181.26 509.67 182.91 506.12 183.99 505.83 180.37 504.84 174.32 503.17 170.62 499.78 163.23 496.35 156.83 491.96 150.21 487.01 141.93 484.45 139.88 482.27 136.91 481.03 132.91 478.82 131.16 477.68 130.86 476.04 130.01 476.03 130 487.63 123.78 503.67 117.53 507.94 113.55 509.97 107.58 512.37 92.35 515.17 86.99 518.26 85.16 521.38 84.63 524.51 84.39 527.42 83.53 533.49 79.92 550.97 63.31 556.11 56.73 560.34 49.62 561.09 47.02 561.96 41.37 563.1 39.02 564.44 37.91 565.86 36.74 572.44 33.78 574.84 31.79 576.87 25.82 579.4 9.57 582.72 3.97 588.73 1.81 595.23 2.79 601.93 4.74 608.55 5.59 614.72 4.05 619.88 1.73 625.22 1 631.2 2.86 Z" id="RWA-3493" data-name="Eastern"/>
<path d="M 381.33 105.22 381.38 105.22 385.68 107.42 396.73 123.46 398.48 131.71 399.41 147.87 403.23 156.2 409.97 162.49 417.65 164.69 425.91 163.79 434.54 160.58 461.23 145.8 465.29 144.95 468.87 136.38 473.98 131.1 476.03 130 476.04 130.01 477.68 130.86 478.82 131.16 481.03 132.91 482.27 136.91 484.45 139.88 487.01 141.93 491.96 150.21 496.35 156.83 499.78 163.23 503.17 170.62 504.84 174.32 505.83 180.37 506.12 183.99 509.67 182.91 514.36 181.26 518.2 181.26 520.35 182.42 520.19 184.23 517.06 187.03 514.99 193.63 516.64 202.43 519.66 210.43 523.54 217.41 528.66 222.81 535.79 232.08 543.42 241.56 549.03 247.63 551.34 252.91 550.02 257.42 548.52 261.79 549.92 270.03 553.98 283.52 557.03 295.58 557.15 301.57 554.92 302.91 551.55 305.23 548.76 308.17 547.2 309.31 544.32 308.88 537.88 306.75 525.61 298.04 512.66 289.43 506.16 285.61 503.09 284.23 501.1 289.37 498.38 296.05 496.23 298.81 492.49 298.24 482.86 299.95 474.9 303.52 472.71 306.4 468.44 311.32 463.29 314.37 458.45 311.12 453.21 307.7 449.43 309 446.45 313.76 443.22 319.12 441.47 323.1 443.63 329.07 445.17 333.78 443.71 334.92 442.67 335.32 441.64 334.63 438.51 334.02 434.69 331.42 430.91 327.36 427.7 324.15 425.23 321.82 422.32 319.85 419.2 318.22 416.49 316.27 411.74 314.85 404.88 314.69 397.08 316.11 389.5 316.19 378.76 312.54 371.31 307.79 369.34 302.14 363.86 296.94 359.22 289.79 353.99 281.99 349.94 275.7 348.54 272.06 345.52 271.58 340.6 272.49 333.23 269.79 326.77 265.5 322.39 264.69 317.9 265.32 315.56 266.03 311.34 262.82 306.44 256.93 306.93 248.36 307.09 236.97 306.54 220.87 304.92 208.96 297.2 208.42 289.26 208.86 281.97 205.25 275.59 202.26 273.5 201.61 271.94 200.66 269.34 201.69 266.13 201.78 258.7 199.42 250.23 196.5 240.75 185.37 233.72 175.8 232.01 173.36 232.01 173.36 239.58 161.44 253.11 147.34 268.79 136.05 284.22 130.57 300.02 131.42 308.27 130.81 315.58 128.82 323.68 124.27 329.75 119.89 336.33 116.47 345.88 114.77 350.55 115.82 358.92 120.9 361.64 121.88 364.89 119.97 367.24 112.21 370.8 107.98 374.43 105.71 377.84 104.69 381.33 105.22 Z" id="RWA-3494" data-name="Northern"/>
<path d="M 547.2 309.31 547.71 311.4 550.39 315.22 551.89 320.88 551.63 326.31 554.06 329.29 556.38 331.63 557.19 338.07 557.05 345.78 555.2 349.09 549.84 351.65 544.17 354.05 542.04 356.49 541.8 361.03 540.62 375.21 538.02 389.38 534.91 396.49 532.25 400.27 529.69 396.72 526.71 392.98 524.05 388.9 519.91 383.45 515.09 382.09 510.32 383.78 506.12 385.61 503.86 386.79 501.12 388.8 498.76 390.81 497.81 392.27 496.47 392.51 495.33 392.55 492.16 392.84 488.63 393.59 486.36 394.3 483.78 394.87 481.44 395.31 480.12 395.64 479.02 395.99 476.61 396.29 473.24 395.92 471.41 393.51 469.99 391.82 467.16 392.59 465.11 394.75 462.68 396.09 458.9 397.75 457.11 399.27 456.18 398.56 453.7 397.79 451.47 397.06 449.76 396.82 446.39 394.73 443.99 389.95 444.74 386.16 447.63 383.23 450.82 381.95 452.2 380.45 453.98 377.44 451.43 371.39 447.71 365.54 449.05 363.51 449.8 361.03 450.08 358.54 450.15 357.03 450.27 356.3 450.94 354.58 449.8 351.73 448.62 348.77 447.44 346.33 446.31 344.79 445.5 343.49 444.44 340.5 443.26 337.15 442.47 335.83 442.67 335.32 443.71 334.92 445.17 333.78 443.63 329.07 441.47 323.1 443.22 319.12 446.45 313.76 449.43 309 453.21 307.7 458.45 311.12 463.29 314.37 468.44 311.32 472.71 306.4 474.9 303.52 482.86 299.95 492.49 298.24 496.23 298.81 498.38 296.05 501.1 289.37 503.09 284.23 506.16 285.61 512.66 289.43 525.61 298.04 537.88 306.75 544.32 308.88 547.2 309.31 Z" id="RWA-3495" data-name="Kigali City"/>
</g>
</svg>