<?xml version="1.0"?>
<svg xmlns="http://www.w3.org/2000/svg" version="1.2" baseProfile="tiny" width="800" height="545" viewBox="0 0 800 545" stroke-linecap="round" stroke-linejoin="round">
<g id="ne_10m_admin_1_states_provinces">
<path d="M 180.36 207.72 179.26 209.98 178.68 211.51 177.9 212.28 176.91 212.67 175.8 212.93 170.3 215.88 169.84 216.53 169.84 217.29 173.11 223.8 173.47 224.96 173.52 225.88 173.42 227.08 172.89 229.4 172.37 230.61 171.7 231.59 170.02 232.93 166.13 235.21 158.69 237.84 155.86 239.23 155.27 239.65 155.17 240.03 155.34 240.44 156.49 242.05 156.81 242.67 157.01 243.28 153.75 242.67 151.46 242.53 148.74 243 144.36 244.23 142.04 244.66 140.53 244.39 137.85 243.17 133.05 239.78 127.62 234.89 124.1 233.12 108.94 227.67 103.37 220.53 102.03 194.89 109.29 197.06 114.6 197.76 117.9 197.65 124.14 196.17 165.65 192.83 165.78 193.85 165.91 194.29 166.01 194.52 166.36 195.04 167.02 195.68 170.24 198.29 171.93 199.34 172.75 199.6 173.03 199.67 173.96 199.69 174.19 199.73 174.38 199.83 175.49 200.72 175.66 200.9 175.79 201.17 175.87 201.67 175.85 202.02 175.9 202.37 176.06 202.71 176.49 203.18 176.78 204.12 176.91 205.11 177 205.38 177.19 205.62 177.46 205.82 177.98 205.97 178.85 206.4 180.36 207.72 Z" id="PNG-1238" data-name="Enga"/>
<path d="M 200.03 115.54 199.7 115.71 199.39 115.62 198.97 115.64 198.76 115.59 198.57 115.39 198.61 114.98 198.99 114.66 199.52 114.81 199.97 115.14 200.03 115.54 Z M 198.01 140.85 197.96 140.96 197.05 166.42 190.83 176.37 169.79 192.07 167.9 192.61 165.65 192.83 124.14 196.17 117.9 197.65 114.6 197.76 109.29 197.06 102.03 194.89 99.15 193.09 98.42 192.99 97.51 192.95 95.27 193.24 89.66 193.03 86.51 192.43 78.82 192.15 77.51 176.84 72.1 173.71 35.08 173.44 31.29 173.03 28.37 172.1 27.21 169.9 26.81 167.41 26.67 158.6 27.03 156.26 28.19 154.73 46.73 142.21 47.19 142.08 47.99 141.91 48.21 141.99 49.19 141.74 49.27 142.84 50.02 143.25 50.98 143.53 51.71 144.27 50.95 145.13 50.69 145.68 50.99 146.07 52.43 145.35 52.87 145.54 53.74 145.56 85.89 145.04 88.81 144.35 89.86 142.4 90.18 141.56 90.2 140.74 91.18 138.16 92.9 137.14 94.46 135.96 95.21 133.95 95.46 131.92 95.36 130.67 95.22 130.14 94.79 129.53 94.58 129.11 94.17 127.62 93.78 126.7 93.66 126.06 93.57 123.66 93.75 121.51 93.55 117.61 93.64 116.79 93.82 116.28 94.71 114.68 95.49 112.89 96.09 112.02 96.78 111.5 98.22 111.14 98.94 110.85 100.32 110.12 101 109.93 101.65 109.93 102.34 110.12 103.12 110.52 104.7 111.51 114.38 115.41 115.85 115.76 116.66 115.86 117.44 115.81 118.09 115.26 118.66 114.08 119.02 107.12 119.02 106.92 119.93 106.85 120.79 107.05 121.15 106.66 122.04 107.02 125.67 107.38 126.18 107.55 127.17 108.29 127.84 108.46 128.48 108.5 139.75 110.48 142.13 111.3 143.05 111.92 146.09 114.94 146.61 116.42 146.83 116.78 147.18 117.04 148.01 117.39 148.44 117.66 148.88 117.88 150.44 118.38 150.65 118.6 151.12 118.38 151.89 117.83 152.19 117.84 152.54 117.96 152.65 118.29 152.25 118.94 152.74 119.61 153.28 120.07 154 120.33 155.88 120.48 156.89 120.71 157.71 121.1 159.66 124.18 160.33 124.66 162.5 125.64 163.28 125.82 164.52 126.41 167.09 130.15 168.44 130.67 170.2 130.77 173.64 130.54 174.19 130.62 174.8 130.52 176.13 130.54 175.69 130.97 175.18 131.23 174.59 131.32 173.97 131.26 174.37 131.88 174.85 132.2 175.36 132.44 175.93 132.87 176.75 133.22 178.06 132.51 178.83 132.87 179.23 133.63 179.49 133.99 179.91 134.14 180.49 134.09 180.62 133.95 180.62 133.73 180.82 133.42 181.32 132.88 181.78 132.16 182.03 131.44 181.89 130.9 183.67 130.43 186.05 130.41 188.43 130.72 190.21 131.26 190.9 131.13 193.63 131.25 194.41 131.44 195.13 132.16 195.73 132.95 196.18 133.85 196.41 134.9 196.41 139.4 196.75 139.98 197.55 140.59 198.01 140.85 Z M 145.42 108.27 144.54 108.28 143.05 107.69 142.71 107.6 142.14 107.34 141.3 106.63 141.37 106.15 141.69 105.78 141.76 105.2 142.13 104.87 143.18 105.01 144.55 105.71 145.88 106.69 146.21 107.69 145.42 108.27 Z M 174.41 100.43 173.39 101.37 171.58 100.9 170.56 99.65 171.19 98.71 172.37 98.24 173.7 99.65 174.41 100.43 Z" fill-rule="evenodd" id="PNG-1239" data-name="East Sepik"/>
<path d="M 337.45 216.25 337.02 216.57 336.72 216.49 336.42 216.29 336.01 216.25 335.44 216.48 334.21 217.33 332.38 217.25 330.89 216.22 328.74 213.73 326.78 212.29 326.21 211.53 325.93 210.71 325.89 209.79 326.21 207.93 326.62 206.73 327.11 206.28 329.1 205.73 329.89 205.2 330.69 204.51 331.6 203.98 332.73 203.93 334.55 205.92 335.29 206.49 336.52 207.06 336.69 207.35 336.73 208.1 336.84 209.36 337.18 210.6 337.75 211.64 338.53 212.28 338.53 212.61 337.75 213.42 337.61 214.45 337.66 215.47 337.45 216.25 Z M 286.78 184.4 286.8 185.15 286.45 185 286.11 184.76 286.04 184.97 286.05 185.09 285.99 185.14 285.72 185.15 285.93 186.06 285.14 186.11 284.1 185.54 283.59 184.6 283.72 183.78 284.1 183.06 284.77 182.62 285.72 182.63 286.5 183.78 286.78 184.4 Z M 271.02 180.91 269.67 181.23 268.91 180.91 267.19 179.34 266.91 178.96 266.5 178.16 266.32 177.32 266.35 176.4 266.58 175.36 267.38 173.17 267.94 172.24 270.55 169.52 271.58 168.99 272.71 169.27 273.46 169.89 275.42 171.95 275.7 172.75 275.82 174.07 275.79 175.9 275.53 176.31 275.35 176.91 275.24 178.08 274.97 178.67 274.39 179.15 272.44 180.36 271.02 180.91 Z M 225.18 143.96 225.7 144.58 225.84 145.4 225.7 146.4 225.38 147.21 224.87 147.65 224.1 147.83 222.98 147.87 222.12 147.55 221.62 146.77 221.39 145.76 221.34 144.79 221.52 144.14 221.94 144.01 222.33 144.14 222.45 144.27 223.36 143.53 223.75 143.35 224.26 143.55 225.18 143.96 Z M 314.76 236.93 314.53 237.06 298.23 246.57 265.9 246.44 264.41 245.57 263.3 244.59 262.53 244.6 262.36 244.56 255.47 244.27 254.98 244.16 254.55 243.79 253.79 242.81 253.24 242.5 252.16 242.27 251.14 242.21 249.86 242.4 249.18 242.78 248.7 243.28 248.35 243.87 247.88 244.48 247.17 244.72 246.08 244.75 244.29 244.42 243.17 244.02 242.28 243.16 240.07 239.7 239.35 239.22 238.55 239.15 234.14 239.89 232.8 239.8 228.87 240.01 226.53 237.55 225.09 236.29 222.1 235.43 221.08 234.26 218.16 229.91 217.16 228.89 215.5 227.82 214.4 226.87 213.64 225.91 212.62 223.68 212.44 223.39 212.08 222.96 211.5 222.47 210.77 222.03 207.85 221.06 206.78 220.45 205.55 219.4 204.62 218.29 203.86 217.15 203.14 216.27 202.23 215.68 199.18 214.7 197.73 213.82 196.83 212.97 195.55 211.08 194.89 210.32 193.94 209.68 186.24 206.87 185.31 206.67 184.57 206.74 183.78 207.28 183.16 207.85 182.48 208.23 182.17 208.32 180.36 207.72 178.85 206.4 177.98 205.97 177.46 205.82 177.19 205.62 177 205.38 176.91 205.11 176.78 204.12 176.49 203.18 176.06 202.71 175.9 202.37 175.85 202.02 175.87 201.67 175.79 201.17 175.66 200.9 175.49 200.72 174.38 199.83 174.19 199.73 173.96 199.69 173.03 199.67 172.75 199.6 171.93 199.34 170.24 198.29 167.02 195.68 166.36 195.04 166.01 194.52 165.91 194.29 165.78 193.85 165.65 192.83 167.9 192.61 169.79 192.07 190.83 176.37 197.05 166.42 197.96 140.96 198.01 140.85 198.02 140.85 198.51 141.11 199.29 141.42 205.86 142.44 207.94 143.22 209.33 144.43 210.26 145.07 211.85 145.51 213.12 146.31 213.38 146.59 213.44 146.76 213.56 146.86 213.69 147.02 213.74 147.34 213.6 147.69 212.93 147.98 212.69 148.26 212.66 148.89 212.97 149.6 213.63 150.15 215.97 150.57 216.89 151.06 218.46 152.59 219.63 153.33 219.9 153.67 219.89 155.58 220.08 155.87 220.84 156.31 222.78 159.11 224.2 159.89 229.66 161.67 231.77 161.64 234.04 161.1 236.29 160.85 238.34 161.67 240.51 164.37 243.75 167.07 245.65 169.27 246.09 170.09 247.21 171.59 247.71 171.92 248.15 171.9 248.52 171.77 248.82 171.79 249.64 172.7 250.76 175.18 256.52 181.62 257.35 182.34 258.33 182.74 259.17 183.29 259.35 183.52 261.14 184.04 261.61 184.54 262.4 185.54 262.95 186.52 262.79 186.95 262.18 187.44 261.81 188.56 261.5 190.95 261.55 192.2 262.09 194.36 262.22 195.44 262.35 195.74 262.83 196.47 262.95 196.92 262.89 197.36 262.5 197.96 262.22 198.55 262.27 198.69 262.14 200.58 261.91 201.75 261.86 202.3 261.94 204.54 261.85 205.51 261.5 206.49 259.62 209.14 259.35 210.28 259.41 210.71 259.65 211.52 259.7 212.1 259.57 212.76 258.63 214.45 258.49 216.15 259.07 217.8 260.19 219.03 261.68 219.53 264.88 218.96 266.14 219.3 266.91 220.96 267.27 220.96 267.35 220.59 267.58 219.93 267.63 219.53 267.99 219.65 268.15 219.72 268.35 219.88 268.99 219.13 269.77 218.98 270.57 218.91 271.27 218.41 272.2 219.35 273.1 219.69 274.06 219.94 275.24 220.61 275.64 220.27 275.89 220.22 276.09 220.37 276.32 220.61 276.89 220.58 278.68 221.39 279.59 221.68 280.88 221.65 281.49 221.78 281.76 222.22 282 222.86 282.59 223.05 283.92 223.13 284.93 223.6 285.49 223.78 286.44 223.51 286.95 223.83 287.45 224.3 287.92 224.6 288.47 224.61 289.57 224.3 290.27 224.21 290.89 224.22 291.3 224.32 292.27 224.93 292.63 225.18 293.09 225.56 293.66 225.74 294.36 225.68 294.04 225.68 295.2 225.67 296.23 225.46 297.21 225.49 298.2 226.21 298.46 226.71 298.66 227.23 299 227.65 300.27 227.92 300.89 228.2 307.53 233.39 311.04 234.33 312.84 235.41 314.05 235.68 314.49 235.96 314.76 236.93 314.76 236.93 Z" fill-rule="evenodd" id="PNG-1240" data-name="Madang"/>
<path d="M 119.02 106.92 119.02 107.12 118.66 114.08 118.09 115.26 117.44 115.81 116.66 115.86 115.85 115.76 114.38 115.41 104.7 111.51 103.12 110.52 102.34 110.12 101.65 109.93 101 109.93 100.32 110.12 98.94 110.85 98.22 111.14 96.78 111.5 96.09 112.02 95.49 112.89 94.71 114.68 93.82 116.28 93.64 116.79 93.55 117.61 93.75 121.51 93.57 123.66 93.66 126.06 93.78 126.7 94.17 127.62 94.58 129.11 94.79 129.53 95.22 130.14 95.36 130.67 95.46 131.92 95.21 133.95 94.46 135.96 92.9 137.14 91.18 138.16 90.2 140.74 90.18 141.56 89.86 142.4 88.81 144.35 85.89 145.04 53.74 145.56 52.87 145.54 52.43 145.35 50.99 146.07 50.69 145.68 50.95 145.13 51.71 144.27 50.98 143.53 50.02 143.25 49.27 142.84 49.19 141.74 48.21 141.99 47.99 141.91 47.19 142.08 46.73 142.21 28.19 154.73 27.03 156.26 26.67 158.6 26.81 167.41 27.21 169.9 28.37 172.1 31.29 173.03 35.08 173.44 72.1 173.71 77.51 176.84 78.82 192.15 78.94 197.3 79.32 199.51 80.08 201.03 80.6 202.45 80.3 204.18 79.94 205.25 78.65 207.72 78.56 208.05 78.45 208.72 77.69 210.87 77.64 211.17 77.2 212.43 76.27 213.13 74.16 214.16 72.77 215.33 9.29 193.7 7.74 193.24 7.7 181.91 7.68 172.52 7.63 150.23 7.6 141.19 7.56 130.51 7.54 118.99 7.5 101.51 7.55 88.41 7.58 78.11 7.61 68.82 7.61 67.2 8.29 67.16 9.37 67.6 11.23 66.63 13.25 66.87 15.37 67.57 17.53 67.96 19.17 67.96 19.82 68.2 20.27 68.5 20.61 68.79 20.97 69.02 21.58 69.15 22.93 69.21 23.52 69.41 23.77 69.74 24.31 70.85 24.6 71.21 25.29 70.94 26.81 72.55 28.01 73.01 29.14 73.17 39.37 77.41 51.25 83.01 52.92 83.32 53.09 83.71 53.11 84.23 53.33 84.76 55.7 86.37 56.76 86.55 58.74 86.18 61.74 85.96 62.29 86.19 65.17 88.76 65.45 89.26 65.34 89.71 65.09 90.3 64.93 90.92 65.06 91.46 65.42 91.56 66.77 91.67 67.26 91.82 69 91.22 70.15 91.77 71.34 92.52 72.5 92.9 73.7 93.01 74.49 93.27 75.97 93.98 82.58 95.91 88.24 98.63 94.23 100.48 104.62 103.64 105.79 103.77 106.4 103.92 108.15 104.85 108.84 104.95 109.59 104.97 110.3 105.07 111.83 105.97 116.07 107.05 117.27 107.08 119.02 106.92 119.02 106.92 Z M 105.51 20.88 104.93 21.43 104.95 20.3 105.74 19.51 106.73 19.28 107.43 19.84 107.09 19.95 106.34 20.33 105.51 20.88 Z" fill-rule="evenodd" id="PNG-1241" data-name="Sandaun"/>
<path d="M 222.1 235.43 225.09 236.29 226.53 237.55 228.87 240.01 228.2 242.88 228.01 250.01 228.26 251.07 228.63 251.8 230.5 253.3 231.01 253.6 232.1 253.98 232.57 254.22 233.04 254.81 233.33 255.75 234.03 260.2 233.98 261.67 233.81 262.5 233.52 263.3 233.06 263.98 232.58 264.4 231.44 265.13 230.77 265.71 229.28 267.71 228.73 268.27 228.12 268.56 227.36 268.65 224.85 268.54 224.03 268.39 223.28 268.36 222.66 268.53 220.44 269.7 219.94 270.13 219.37 270.98 219.37 271.82 219.74 273.84 220.12 274.28 220.55 274.53 221.24 274.66 222.03 274.9 222.81 275.25 224.01 275.95 230.72 282.2 231.07 282.41 236.16 282.77 236.49 282.92 236.82 283.25 237.87 284.62 238.16 285.19 238.11 285.75 236.06 292.83 233.63 291.37 229.73 291.09 227.39 290.25 225.75 289.43 223.41 288.71 222.12 288.57 221.04 288.18 219.65 288.02 218.84 287.85 218.16 287.33 217.38 286.5 216.27 285.56 215.5 285.42 214.78 285.72 214.13 286.16 213.15 286.46 212.24 286.3 210.94 286.48 210.26 286.46 209.61 286.14 208.72 285.5 208.04 285.24 207.43 285.14 206.69 285.25 205.17 285.61 205.03 285.62 204.33 284.31 203.25 283.33 202.55 282.82 200.13 282.51 198.78 282.17 198.19 281.54 198.12 280.39 197.81 279.45 197.15 278.6 196.03 277.74 195.05 277.3 194.02 277.08 192.25 277.02 191.44 276.82 191.26 276.33 191.35 275.74 191.34 275.22 191.03 274.64 190.83 274.2 190.82 274 191.14 272.17 191.39 271.63 191.81 271.15 192.71 270.7 194.31 270.37 195.04 270.14 195.61 269.78 195.94 269.11 196.06 268.56 195.81 266.05 198.5 267.82 198.82 267.76 199.25 267.46 199.95 264.91 200.34 264.17 200.83 263.45 201.47 262.73 203.57 260.78 204.1 259.95 206.19 254.45 206.4 253.64 206.42 253.1 206.19 252.58 204.85 251.16 204.57 250.42 204.52 249.47 204.88 247.91 205.34 246.72 205.45 246.59 206.07 246.09 206.7 245.79 208.45 245.14 209.31 244.59 209.72 244.04 209.88 243.58 209.32 236.14 209.47 235.28 209.92 235.11 210.59 235.23 213.47 236.2 218.43 236.45 219.75 236.26 220.65 236.02 222.1 235.43 Z" id="PNG-1242" data-name="Chimbu"/>
<path d="M 264.77 311.92 236.06 292.83 238.11 285.75 238.16 285.19 237.87 284.62 236.82 283.25 236.49 282.92 236.16 282.77 231.07 282.41 230.72 282.2 224.01 275.95 222.81 275.25 222.03 274.9 221.24 274.66 220.55 274.53 220.12 274.28 219.74 273.84 219.37 271.82 219.37 270.98 219.94 270.13 220.44 269.7 222.66 268.53 223.28 268.36 224.03 268.39 224.85 268.54 227.36 268.65 228.12 268.56 228.73 268.27 229.28 267.71 230.77 265.71 231.44 265.13 232.58 264.4 233.06 263.98 233.52 263.3 233.81 262.5 233.98 261.67 234.03 260.2 233.33 255.75 233.04 254.81 232.57 254.22 232.1 253.98 231.01 253.6 230.5 253.3 228.63 251.8 228.26 251.07 228.01 250.01 228.2 242.88 228.87 240.01 232.8 239.8 234.14 239.89 238.55 239.15 239.35 239.22 240.07 239.7 242.28 243.16 243.17 244.02 244.29 244.42 246.08 244.75 247.17 244.72 247.88 244.48 248.35 243.87 248.7 243.28 249.18 242.78 249.86 242.4 251.14 242.21 252.16 242.27 253.24 242.5 253.79 242.81 254.55 243.79 254.98 244.16 255.47 244.27 262.36 244.56 262.53 244.6 263.3 244.59 264.41 245.57 265.9 246.44 266.62 247.08 267.22 248.97 267.93 249.75 268.76 250.48 269.45 251.37 269.78 251.17 270.63 250.82 270.96 250.64 271.16 251.48 271.2 252.27 271.98 252.75 278.86 257.14 279.37 257.76 279.67 258.59 279.67 259.79 274.95 282.26 274.56 283.16 274.03 283.92 272.82 285.08 272.45 285.59 272.41 286.22 272.61 286.86 272.95 287.6 273.15 288.44 273.26 289.5 273.89 291.35 273.92 292.33 273.69 293.28 273.25 294.06 272.79 294.57 270.61 296.49 270 297.22 269.56 297.95 269.3 298.61 267.9 303.37 267.62 303.96 267.29 304.44 267.04 304.91 264.77 311.92 Z" id="PNG-1243" data-name="Eastern Highlands"/>
<path d="M 236.06 292.83 264.77 311.92 274.63 322.7 275.71 324.85 277.16 326.97 277.92 327.73 279.27 328.31 294.57 332.5 305.9 340.12 301.2 343.21 298.83 345.76 297.91 346.51 295.68 347.82 294.42 348.9 293.65 351.72 293.45 383.04 293.45 383.05 293.32 382.97 292.04 381.81 287.51 375.18 286.86 373.57 286.8 371.44 286.65 371 286.2 370.38 286.11 370.16 286.11 368.53 285.8 367.63 285.29 366.68 284.59 365.95 282.85 365.3 281.31 363.81 280.85 363.48 279.6 363.29 279.03 362.77 278.15 360.92 278.83 360.35 278.68 359.49 278.08 358.63 277.4 358.04 277.94 357.81 278.3 357.5 278.41 357.1 278.15 356.6 277.07 356.82 275.5 356.23 272.71 354.79 269.68 354.05 267.96 353.97 266.58 354.4 265.56 353.68 262.22 352.57 261.5 351.7 261.39 351.52 261.14 351.31 260.9 351.03 260.78 350.62 260.94 350.46 261.64 350.36 261.86 350.08 261.8 349.77 261.55 349.56 261.27 349.38 261.14 349.17 261.24 348.81 261.86 347.55 261.5 347.55 260.87 348.37 260.09 348.35 259.21 348.2 258.23 348.64 258.99 349.71 258.05 350.11 254.82 350.08 254.16 349.88 253.17 348.94 252.47 348.64 251.67 348.69 250.88 348.89 250.07 348.98 249.22 348.64 249.22 348.99 248.24 348.66 244.67 349.33 243.42 349.25 242.44 349.02 241.63 348.6 238.57 345.7 237.07 344.92 235.07 344.67 234.6 344.79 234.09 344.97 233.53 345.1 232.94 345.03 232.47 344.75 231.35 343.75 230.97 343.14 230.22 342.62 229.81 341.94 229.32 342.49 228.92 343.27 228.97 343.56 227.99 343.63 226.65 343.27 225.48 342.57 224.98 341.59 224.8 341.01 224.42 340.52 224.04 340.39 223.87 340.86 223.85 341.98 223.66 342.26 223.17 342.52 219.9 342.52 219.32 342.16 217.74 340.35 217.07 341.24 216.49 341.14 215.85 340.64 215.02 340.35 214.67 340.42 214.05 340.68 213.74 340.68 213.64 340.55 213.36 340.06 213.21 339.96 212.77 339.8 212.22 339.43 211.81 339.02 211.76 338.69 212.62 337.65 213.03 336.67 213.1 331.54 212.93 330.35 212.3 329.48 211.89 330.49 211.67 333.03 211.19 334.16 211.5 335.01 210.85 335.45 209.79 335.61 208.86 335.64 208.01 335.37 207.28 334.74 206.14 333.4 204.23 331.98 203.73 330.79 203.14 330.15 201.81 329.05 201.5 330.03 201.68 331 202.02 331.95 202.21 332.9 201.71 333.68 200.53 334.06 199.19 334.09 198.17 333.83 197.68 333.32 197.1 332.42 196.61 331.45 196.41 330.72 196.4 330.12 196.33 329.66 196.16 329.27 195.85 328.9 195.64 328.4 195.77 327.11 195.69 326.55 194.88 325.61 194.58 326.26 194.6 330 194.18 331.69 194.21 332.35 194.5 332.81 195.69 333.83 195.44 334.35 194.93 334.73 194.44 334.89 194.21 334.71 193.93 334.03 192.56 332.93 192.05 332.35 191.91 331.98 191.72 331.05 191.69 330.72 191.55 330.44 191.22 330.22 190.85 330.03 190.61 329.84 190.16 328.91 189.56 327.21 189.13 326.55 188.81 326.55 189.04 327.47 189.13 329.48 189.38 330.28 190.08 331.74 190.21 332.53 190.31 334.25 190.61 335.64 190.92 336.17 191.42 336.78 191.86 337.5 192.05 338.33 192.65 338.91 193.7 340.28 194.11 341.54 192.77 341.76 192.63 341.44 191.58 340.03 191.33 339.79 191.06 339.24 190.44 338.5 189.71 337.81 189.13 337.43 188.57 338.66 187.61 339.11 186.69 338.67 186.29 337.25 186.06 335.67 185.49 334.23 183.73 331.63 183.97 333.02 184.58 334.53 184.93 335.77 184.41 336.39 183.54 335.98 182.36 333.55 181.54 332.71 181.2 333.33 180.69 333.75 180.05 334.01 179.37 334.16 179.37 334.55 180.74 334.64 181.08 335.51 180.75 336.69 180.09 337.76 180.64 337.99 181.31 338.58 181.82 339.31 181.89 339.96 181.37 340.36 179.37 341.07 178.65 341.43 177.67 340.46 177.16 340.15 176.49 339.96 175.91 340.04 175.27 340.29 174.66 340.42 174.13 340.15 173.22 339.45 163.32 336.07 159.47 333.82 158.23 332.78 157.68 331.83 157.42 330.78 155.52 327.28 155.14 326.36 154.95 326.13 154.44 325.83 153.92 325.64 152.67 325.49 152.07 325.48 151.27 325.18 149.46 323.78 148.97 323.28 148.85 323.1 148.64 322.56 148.25 323.28 148.79 324.11 150.48 325.89 150.98 326.23 151.5 326.34 152.66 326.83 153.88 327.06 153.98 327.35 153.8 327.7 153.72 328.03 154.62 330.2 158.91 337.43 159.25 338.49 159.43 339.6 159.48 340.86 159.72 342.08 160.3 343.04 161.65 344.67 164.18 348.52 165.03 350.74 164.3 351.76 164.29 351.76 114.65 301.44 114.46 290.82 150.66 290.75 205.03 285.62 205.17 285.61 206.69 285.25 207.43 285.14 208.04 285.24 208.72 285.5 209.61 286.14 210.26 286.46 210.94 286.48 212.24 286.3 213.15 286.46 214.13 286.16 214.78 285.72 215.5 285.42 216.27 285.56 217.38 286.5 218.16 287.33 218.84 287.85 219.65 288.02 221.04 288.18 222.12 288.57 223.41 288.71 225.75 289.43 227.39 290.25 229.73 291.09 233.63 291.37 236.06 292.83 Z" id="PNG-1244" data-name="Gulf"/>
<path d="M 737.94 219.38 738.95 220.96 739.85 220.8 740.83 221.31 741.7 222.17 742.23 223.13 742.53 222.62 742.95 222.42 743.45 222.48 744 222.04 744.59 222.31 745.35 222.41 748.9 222.42 749.44 222.62 749.08 223.13 749.08 223.49 749.64 223.81 749.91 223.53 750.13 223.06 750.55 222.77 751.36 222.77 751.59 223 751.56 223.4 751.6 223.88 751.28 224.42 751.2 224.77 751.43 224.93 752.49 225.27 752.67 225.29 752.96 225.96 753.21 227.16 754.56 228.72 755.68 231.17 756.51 232.34 756.78 232.54 757.18 232.69 757.4 232.89 757.8 233.55 757.98 233.77 758.07 234.28 757.79 236.13 758.21 237.01 758.69 238.91 759.19 239.77 760.01 239.52 760.84 239.8 761.73 240.26 762.66 240.49 765.26 243.33 765.42 243.57 765.63 243.8 766.05 244.09 766.29 244.14 766.9 244.05 767.16 244.09 767.48 244.38 768.06 245.37 768.82 246.24 769.24 246.95 769.8 249.69 770.01 250.28 771.8 253.87 774.47 256.62 774.76 256.77 775.44 256.62 775.93 256.25 776.4 255.69 777.02 256.07 777.4 256.9 777.96 257.78 779.12 258.25 780.42 258.09 780.7 257.49 780.82 256.71 781.63 256.05 781.63 256.44 781.5 256.67 781.44 256.86 781.55 257.11 781.99 257.5 781.8 258.09 783.07 259.36 783.61 260.57 784.02 260.86 784.55 261.04 785.08 261.1 785.61 261.37 786.07 262.01 786.72 263.26 787.3 264.09 787.97 264.78 788.76 265.25 789.78 265.42 790.86 265.89 791.68 267.01 792.81 269.42 793.97 271 795.25 272.4 796.32 273.95 796.81 275.94 796.76 276.53 796.5 277.54 796.45 278.1 796.58 278.73 797.09 279.92 797.2 280.46 797.51 281.63 798.81 283.69 799 285.02 798.65 286.23 797.94 287.45 797.03 288.53 796.09 289.34 796.64 286.93 796.73 285.6 796.27 285.02 795.83 285.54 794.28 288.94 792.98 287.47 791.02 287.92 789.07 289.26 787.79 290.42 786.48 292.16 785.82 292.71 784.72 292.91 784.13 292.8 783.17 292.3 782.54 292.19 780.16 292.19 777.91 291.72 775.57 290.93 771.51 288.94 769.28 287.11 768.78 286.82 767.92 286.58 766.98 286 765.35 284.62 764.86 284.02 764.21 282.87 757.81 275.9 757.07 274.5 758.02 274.51 758.44 274.61 758.87 274.86 759.8 273.07 760.33 270.62 760.49 268.03 760.31 265.82 759.27 263.37 757.52 262.03 752.26 260.47 750.35 259.42 749.18 258.43 747.99 257.99 747.45 257.65 746.97 257.16 746.8 256.82 746.58 255.69 745.8 253.53 744.89 252.52 744.75 252.25 744.36 251.77 741.86 250.64 740.37 248.92 739.03 248.04 738.3 247.44 737.72 246.75 737.48 246.08 737.02 245.33 735.04 243.88 734.59 242.83 734.54 242.24 734.31 241.21 734.26 240.67 734.59 240.16 734.82 239.66 734.91 239.05 734.67 237.91 734.09 237.03 732.82 235.77 732.37 235.12 732.18 234.7 732.11 234.33 732.23 233.86 733.16 231.67 733.79 227.18 734.21 226.1 734.29 225.12 733.54 224.21 733.54 223.88 733.7 223.76 733.75 223.69 733.79 223.63 733.9 223.49 734.85 224.38 735.29 224.55 735.67 224.21 735.81 223.35 735.52 222.55 735.12 221.81 734.91 221.14 734.31 219.94 732.01 217.71 732.11 216.61 733.85 216.37 736.02 217.57 737.94 219.38 Z M 731.74 199.6 731.42 201.23 731.41 202.03 731.74 202.85 732.24 203.34 732.78 203.65 733.25 204.1 733.54 205.01 733.47 206.63 732.11 211.53 731.98 214.97 731.5 216.41 730.3 217 730.63 215.88 729.82 216.16 729.46 216.8 729.15 217.54 728.5 218.08 727.56 214.42 725.44 209.2 725.22 207.75 724.82 206.5 724.82 205.74 725.4 205.4 725.77 205.01 725.93 204.12 725.9 201.26 725.64 200.16 724.88 199.93 723.42 201.11 723.73 199.3 724.96 197.35 726.59 195.64 728.1 194.56 729.83 194.89 730.99 196.31 731.61 198.11 731.74 199.6 Z M 705.29 165.59 706.78 166.22 707.92 167.4 708.56 168.86 708.54 170.35 707.41 171.72 705.98 171.26 704.93 169.89 704.93 168.51 705.24 169.04 705.68 170.23 706.01 170.68 706.6 171.05 706.96 171 707.65 170.17 707.92 168.93 707.09 167.65 705.88 166.59 704.93 165.99 704.85 166.06 704.79 166.14 704.71 166.25 704.57 166.35 704.62 165.98 704.79 165.81 705.29 165.59 Z M 703.5 164.19 703.14 164.19 702.89 163.09 702.44 161.93 702.25 160.98 702.78 160.55 703.13 161.06 703.36 162.05 703.5 164.19 Z M 734.09 111.61 733.77 112.61 732.3 109.56 731.2 106.75 729.24 103.94 727.53 101.01 724.35 99.17 726.59 99.45 728.28 100.26 729.03 102.13 730.28 104.63 732.97 109.05 734.09 111.61 Z" fill-rule="evenodd" id="PNG-1245" data-name="North Solomons"/>
<path d="M 102.03 194.89 103.37 220.53 108.94 227.67 124.1 233.12 127.62 234.89 133.05 239.78 137.85 243.17 140.53 244.39 142.04 244.66 144.36 244.23 148.74 243 151.46 242.53 153.75 242.67 157.01 243.28 161.47 245.1 161.97 246.02 162.84 246.95 163.54 247.46 165.13 247.25 166.65 247.21 168.01 247.57 195.81 266.05 196.06 268.56 195.94 269.11 195.61 269.78 195.04 270.14 194.31 270.37 192.71 270.7 191.81 271.15 191.39 271.63 191.14 272.17 190.82 274 190.83 274.2 191.03 274.64 191.34 275.22 191.35 275.74 191.26 276.33 191.44 276.82 192.25 277.02 194.02 277.08 195.05 277.3 196.03 277.74 197.15 278.6 197.81 279.45 198.12 280.39 198.19 281.54 198.78 282.17 200.13 282.51 202.55 282.82 203.25 283.33 204.33 284.31 205.03 285.62 150.66 290.75 114.46 290.82 104.7 290.82 100.68 290.41 97.64 289.35 96.67 286.94 96.32 284.2 96.02 246.21 95.45 243.44 94.24 242.12 90.12 239.1 72.34 221.88 71.15 219.84 71.16 218.71 72.77 215.33 74.16 214.16 76.27 213.13 77.2 212.43 77.64 211.17 77.69 210.87 78.45 208.72 78.56 208.05 78.65 207.72 79.94 205.25 80.3 204.18 80.6 202.45 80.08 201.03 79.32 199.51 78.94 197.3 78.82 192.15 86.51 192.43 89.66 193.03 95.27 193.24 97.51 192.95 98.42 192.99 99.15 193.09 102.03 194.89 Z" id="PNG-1246" data-name="Southern Highlands"/>
<path d="M 222.1 235.43 220.65 236.02 219.75 236.26 218.43 236.45 213.47 236.2 210.59 235.23 209.92 235.11 209.47 235.28 209.32 236.14 209.88 243.58 209.72 244.04 209.31 244.59 208.45 245.14 206.7 245.79 206.07 246.09 205.45 246.59 205.34 246.72 204.88 247.91 204.52 249.47 204.57 250.42 204.85 251.16 206.19 252.58 206.42 253.1 206.4 253.64 206.19 254.45 204.1 259.95 203.57 260.78 201.47 262.73 200.83 263.45 200.34 264.17 199.95 264.91 199.25 267.46 198.82 267.76 198.5 267.82 195.81 266.05 168.01 247.57 166.65 247.21 165.13 247.25 163.54 247.46 162.84 246.95 161.97 246.02 161.47 245.1 157.01 243.28 156.81 242.67 156.49 242.05 155.34 240.44 155.17 240.03 155.27 239.65 155.86 239.23 158.69 237.84 166.13 235.21 170.02 232.93 171.7 231.59 172.37 230.61 172.89 229.4 173.42 227.08 173.52 225.88 173.47 224.96 173.11 223.8 169.84 217.29 169.84 216.53 170.3 215.88 175.8 212.93 176.91 212.67 177.9 212.28 178.68 211.51 179.26 209.98 180.36 207.72 182.17 208.32 182.48 208.23 183.16 207.85 183.78 207.28 184.57 206.74 185.31 206.67 186.24 206.87 193.94 209.68 194.89 210.32 195.55 211.08 196.83 212.97 197.73 213.82 199.18 214.7 202.23 215.68 203.14 216.27 203.86 217.15 204.62 218.29 205.55 219.4 206.78 220.45 207.85 221.06 210.77 222.03 211.5 222.47 212.08 222.96 212.44 223.39 212.62 223.68 213.64 225.91 214.4 226.87 215.5 227.82 217.16 228.89 218.16 229.91 221.08 234.26 222.1 235.43 Z" id="PNG-1247" data-name="Western Highlands"/>
<path d="M 157.47 380.22 156.55 380.61 155.83 380.05 155.71 379.3 156.34 378.81 156.92 378.63 157.28 378.41 157.59 378.35 157.92 378.58 157.96 379.1 157.47 380.22 Z M 148.43 390.53 147.72 390.76 147.1 390.3 146.83 389.33 146.5 388.58 145.7 388.06 139.54 385.18 138.34 384.27 137.74 383.99 136.96 383.85 136.29 383.64 136 383.17 135.68 382.47 132.37 379.74 129.41 378.93 128 378.32 127.43 377.83 126.2 376.13 125.58 375.62 124.48 374.89 123.97 374.33 124.77 374.24 125.47 374.06 126.09 374.12 128.04 376.32 128.83 376.95 133.5 377.99 137.93 379.57 139.08 379.73 139.59 379.93 139.96 380.41 140.5 381.37 145.56 385.53 146.64 385.88 147.74 386.23 148.54 387.11 148.98 388.27 148.97 389.49 148.43 390.53 Z M 133.81 371.61 134.23 371.8 134.86 371.8 136.53 371.44 140.09 371.39 144.81 371.93 145.39 372.33 145.44 373.66 145.6 374.42 146.45 375.8 146.8 376.6 146.76 377.28 146.25 377.73 145.24 377.9 142.51 377.83 141.43 377.6 138.91 376.39 138.02 375.38 136.89 375.06 134.55 374.69 133.43 374.09 131.96 373.01 131.24 371.85 132.36 371.08 133.07 371.06 133.5 371.3 133.81 371.61 Z M 150.36 374.45 149.77 374.79 148.75 374.68 147.56 373.97 145.66 371.83 143.08 370.68 143.59 369.95 146.18 369.76 148.2 370.18 149.2 370.93 149.82 371.87 150.12 372.82 150.22 373.29 150.51 373.99 150.36 374.45 Z M 150.85 360.31 149.72 361.04 147.98 360.9 146.92 359.53 146.16 358.05 146.9 357.21 148.34 357.42 149.05 357.71 149.52 357.97 150.41 358.59 150.95 359.42 150.85 360.31 Z M 151.35 357 150.97 357.49 150.21 357.13 148.75 356.68 146.57 356.52 145.24 355.82 144.82 354.9 144.31 353.78 145.03 353.17 146.86 353.26 149.15 354.3 150.19 355.04 150.76 355.7 151.35 357 Z M 7.75 410.59 7.75 404.52 7.77 394.34 7.78 384.46 7.76 375.16 7.75 361.18 7.74 352.31 7.74 350.2 7.74 340.21 7.74 330.43 7.74 316.5 7.74 314.34 7.75 307.71 7.75 299.67 7.75 293.96 6.96 294.03 5.97 293.51 5.78 291.84 4.53 292.17 4.12 291.46 4.04 290.35 3.77 289.51 2.75 288.77 2.32 288.31 2.14 287.72 2.27 287.47 2.77 286.78 2.86 286.43 2.56 285.81 1.46 284.83 1.06 284.27 1 283.73 1.13 283.27 1.42 282.64 1.88 280.9 1.83 279.92 1.06 279.55 1.53 278.75 2.3 278.49 3.18 278.3 3.94 277.75 3.86 277.36 3.5 276.88 3.31 276.48 3.77 276.3 4.2 276.27 4.48 276.11 4.62 275.83 4.67 274.5 4.79 273.89 5.17 273.54 5.98 273.42 6.33 272.96 6.49 272 6.25 271.21 5.41 271.23 5.43 270.59 5.26 270.12 4.9 269.85 4.34 269.78 4.81 269.54 5.32 269.41 5.87 269.38 6.47 269.42 6.33 268.75 6.62 268.34 7.01 267.97 7.22 267.43 7.09 267.12 6.58 266.68 6.47 266.36 6.52 266.17 6.78 266.06 7.04 265.01 7.53 264.4 7.74 264.32 7.74 258.74 7.74 246.75 7.74 236.42 7.74 226.64 7.74 213.05 7.74 210.89 7.74 204.27 7.74 193.97 7.74 193.82 7.74 193.24 9.29 193.7 72.77 215.33 71.16 218.71 71.15 219.84 72.34 221.88 90.12 239.1 94.24 242.12 95.45 243.44 96.02 246.21 96.32 284.2 96.67 286.94 97.64 289.35 100.68 290.41 104.7 290.82 114.46 290.82 114.65 301.44 164.29 351.76 164.2 351.88 163.23 351.6 162.45 350.73 161.73 349.72 160.93 348.99 160.04 348.78 156.96 348.64 157.28 348.87 157.68 349.45 158.05 349.72 158.5 349.87 159.4 349.96 159.84 350.08 160.77 350.6 162.76 352.6 161.94 353.68 161.04 354.2 159.96 354.38 155.03 354.33 154.05 354.05 153.62 353.75 152.71 352.94 152.25 352.6 150.41 352.03 149.9 351.7 148.88 351.22 147.65 351.25 144.25 352.1 141.25 351.88 140.33 351.62 139.75 350.95 138.87 348.99 138.2 347.92 137.44 347.4 136.46 347.24 135.08 347.23 134.89 347.09 134.33 346.85 133.74 346.74 133.47 347.03 133.59 347.5 133.9 347.86 134.34 348.11 134.88 348.28 137.03 348.5 137.6 348.95 137.8 350.26 138.2 351.23 139.15 351.98 143.45 353.87 144.08 354.57 144.6 356.67 147.65 362.04 148.05 363.36 147.74 364.36 146.86 364.83 145.78 364.97 132.36 365.28 131.83 365.51 130.37 366.39 125.88 366.72 113.5 369.92 112.3 370 111.34 369.79 106.16 367.42 99.46 366.35 99.23 366.28 98.71 366 97.83 366.41 95.2 367 94.2 367.08 93.02 367.35 90.03 369.28 88.87 369.73 87.84 369.79 85.52 369.61 84.37 369.31 83.59 368.59 83.1 367.65 81.87 362.41 80.75 361.02 78.46 360.59 75.47 361.21 73.61 361.35 73.2 361.46 72.89 361.74 72.5 362.2 71.92 362.65 71.34 362.81 70.75 362.9 70.17 363.12 69.46 363.68 69.16 364.16 69.36 364.58 70.17 364.92 71.35 363.81 72.07 363.32 72.86 363.12 73.28 362.96 73.62 362.65 73.95 362.44 74.8 362.77 75.46 362.72 77.7 362.12 79.14 361.91 80.43 362.16 80.98 363.3 81.12 364.47 82.71 369.52 83.9 370.96 85.61 371.91 87.83 372.13 89.71 371.49 93.22 369.13 95.11 368.53 99.31 369.24 100.18 368.92 102.35 369.61 104.16 371.19 104.71 371.44 105.83 371.75 109.23 373.99 111.27 374.79 117.88 376.13 119.91 376.86 121.47 377.86 128.33 383.47 131.31 386.98 132.89 389.55 134.91 391.95 135.39 392.78 135.64 393.49 135.64 400.34 135.96 402.06 135.93 402.99 135.45 403.81 134.19 404.97 133.6 405.38 132.72 405.81 131.14 406.23 128.15 406.24 126.59 406.53 126.95 406.89 126.42 407.06 125.31 407.13 124.49 407.29 123.93 407.23 123.68 407.25 123.54 407.44 123.38 407.8 123.13 408.17 122.77 408.33 122 408.48 117.31 409.91 116.42 410.35 115.13 411.41 113.9 412.16 113.38 412.29 112.79 412.57 112.29 413.2 111.84 413.92 111.39 414.45 110.32 415.03 107.85 416.04 105.98 417.47 100.33 419.65 99.46 420.18 99.1 420.79 96.19 422.42 94.07 422.65 92.22 422.08 90.62 421.04 88.09 418.89 86.29 417.68 84.39 416.86 82.82 417.01 81.43 416.31 80.62 416.04 79.39 415.94 78.59 415.74 76.3 414.45 73.53 413.5 72.86 413.38 72.3 413.55 71.29 414.29 70.68 414.45 68.9 414.4 61.43 414.94 60.37 415.16 57.17 416.31 56.09 416.54 54.8 416.62 53.69 416.45 51.48 415.72 50.29 415.54 45.82 416.34 44.49 416.26 44.05 416.61 43.3 416.95 42.47 417.23 41.75 417.34 40.93 417.06 40.25 416.54 39.54 416.23 38.69 416.62 38.04 416.52 36.94 416.5 35.88 416.34 35.08 415.25 32.89 413.74 31.22 412.92 29.26 412.47 27.22 412.46 25.33 413.02 21.2 416.21 19.53 417.01 17.01 417.24 15.03 416.52 9.37 411.54 7.75 410.59 Z" fill-rule="evenodd" id="PNG-1248" data-name="Western"/>
<path d="M 325.23 352.21 341.53 367.34 346.47 370.15 350.27 371.87 352.62 373.52 355.05 375.95 357.06 378.88 358.32 381.85 357.4 384.79 352.59 391.97 352.3 393.55 352.23 394.52 352.36 397 352.67 397.91 353.13 398.58 354.73 400.36 355.64 401.78 356.48 402.7 357.23 403.34 358.16 403.96 358.99 404.78 360.95 407.23 361.57 407.82 362.03 408.19 362.35 408.67 364.17 412.8 364.66 413.47 365.2 413.84 365.77 413.87 366.3 413.76 366.7 413.56 367.28 413.09 367.59 413.03 367.93 413.18 368.57 413.73 371.37 418.59 371.98 419.4 372.46 419.85 372.85 420.12 373.31 420.28 374.31 420.44 374.88 420.64 375.68 421.3 379.97 427.32 380.41 428.24 380.58 429.19 380.44 429.98 379.92 431.51 379.79 432.46 379.92 433.48 380.63 435.05 381.39 435.8 382.16 436.26 384.49 436.79 385.2 437.1 386.85 438.39 388.06 439.56 391.25 441.87 394.15 444.43 395 444.99 395.69 445.22 396.3 445.2 396.88 445.02 397.58 444.72 398.28 444.64 399.04 444.83 402.56 447.5 404.84 448.69 407.08 450.3 407.9 450.73 409.34 451.24 410.11 451.59 411.73 452.75 412.02 452.89 412.26 452.99 412.54 453.03 412.8 452.97 413.17 452.8 413.66 452.41 414.01 452.19 414.34 452.1 414.71 452.19 414.9 452.4 414.95 452.67 414.9 453.07 414.91 453.5 415.11 454.05 415.56 454.3 416.21 454.35 417.82 454.33 418.59 454.46 419.29 454.74 420.53 455.49 421.16 455.69 421.75 455.66 423.06 455.08 424.79 454.53 425.49 454.4 428.45 454.45 429.11 454.39 429.63 454.21 429.94 453.99 430.19 453.52 430.31 452.98 430.31 451.96 430.2 451.37 429.97 450.72 428.68 448.46 428.47 447.98 428.36 447.56 428.4 447.13 428.46 446.78 428.92 446.45 429.84 446.1 430.84 445.84 431.77 445.73 433.19 445.7 434.86 445.82 438.33 446.42 442.37 447.77 445.33 449.22 446.14 449.93 447.01 450.84 448.05 453.17 448.29 453.59 448.6 453.73 451.45 454.15 452.39 454.53 453.22 455.14 455.62 457.35 455.96 457.56 458.65 458.72 460.09 459.63 461.53 460.78 464.54 462.16 465.73 462.55 466.53 463.95 466.88 464.98 467.03 475.52 467.03 475.53 465.52 475.59 463.75 475.98 462.78 476.05 461.45 475.58 460.89 475.95 460.24 476.28 459.36 475.95 459 476.35 459.72 476.67 459.72 477.03 458.08 477.03 457.66 476.84 457.5 475.9 457.16 475.59 456.58 475.7 456.11 476.13 455.54 476.37 454.64 475.95 455.23 475.58 455.24 475.23 454.83 474.97 453.5 474.71 453.33 474.32 453.3 473.8 453.02 473.25 450.67 472.35 449.99 472.65 449.01 473.69 448.48 474.15 447.84 473.72 446.8 473.37 445.64 473.15 444.67 473.07 443.99 472.9 440.18 470.95 439.41 470.67 438.01 470.49 437.04 470.21 436.59 470.15 435.57 470.31 435.09 470.33 434.79 470.15 433.56 470.64 432.93 470.82 432.41 470.87 431.7 471.08 431.07 471.54 430.52 472.04 430.07 472.35 429.03 472.45 428.02 472.1 424.43 470.35 423.8 470.2 422.99 470.15 420.27 470.55 419.6 470.52 418.63 470.23 417.92 470.15 417.39 469.91 417.5 468.76 417.03 468.35 417.14 468.18 417.28 467.82 417.39 467.63 416.85 467.65 416.67 467.63 416.95 467.02 417.38 466.7 417.94 466.57 418.65 466.55 418.95 466.13 418.47 465.34 417.76 464.95 417.39 465.68 417.13 466.05 416.55 466 415.93 465.74 415.58 465.5 415.34 465.03 414.83 463.31 414.5 463.31 414.16 465.44 413.76 466.45 412.85 466.88 412.31 467.47 412.16 467.69 411.81 467.6 411.23 467.3 408.74 467.3 407.5 466.95 406.83 466.86 406.55 467.09 406.27 467.53 405.62 467.81 404.85 467.95 400.7 468 399.67 468.35 396.24 467.03 395.7 466.37 395.24 465.28 394.23 464.48 393.23 464.31 392.82 465.1 392.05 464.62 391.42 463.97 390.65 463.35 389.54 462.95 389.06 462.93 388.09 463.01 387.74 462.95 387.41 462.65 387.07 461.87 386.63 461.5 385.99 463.36 383.92 464.54 381.4 464.92 379.41 464.36 378.63 465.6 378.04 466.16 377.25 466.55 376.28 465.95 375.69 464.95 375.24 463.85 374.7 462.95 373.87 462.46 373.03 462.57 372.04 462.87 370.74 462.95 370.74 462.59 371.74 462.26 372.19 461.42 372.09 460.52 371.45 460.06 371.01 460.14 370.66 460.41 370.44 460.82 370.25 461.92 369.95 461.8 369.3 461.11 367.12 460.64 365.87 460.92 363.86 462.95 363.5 462.95 362.58 458.56 362.09 458.47 361.41 458.24 360.83 457.96 360.58 457.7 360.31 457.33 359.69 457.23 358.98 457.24 358.45 457.18 357.77 456.71 355.89 454.88 355.5 454.08 355.21 453.26 354.5 452.59 353.66 451.99 352.98 451.38 352.56 450.64 352.34 449.8 352.26 447.55 352.06 446.46 351.58 445.51 346.83 439.4 345.41 437.98 344.9 437.29 344.46 436.41 343.87 435.61 342.89 435.1 342.53 435.46 342.49 434.27 342.03 433.43 341.28 432.8 340.8 432.5 340.8 432.41 340.76 430.45 340.35 428.63 339.85 427.33 339.28 426.6 338.74 426.45 337.61 426.54 337.15 426.48 336.74 426.23 335.91 425.48 335.4 425.2 334.78 425.1 334.15 425.29 332.25 426.36 330.03 427.02 329.55 427.21 329.25 427.41 329.03 427.65 328.92 427.91 328.93 428.27 329.1 428.69 329.51 429.23 330.94 430.41 330.93 430.41 330.33 430.4 329.36 429.97 328.44 429.28 327.76 427.63 326.39 425.59 325.88 424.61 325.22 422.04 324.75 420.88 323.87 419.72 322.83 419.4 320.67 419.87 320.11 419.15 320.75 419.02 321.22 418.73 321.4 418.29 321.17 417.73 320.67 417.4 320.19 416.12 320.11 414.55 320.83 413.38 320.54 413.13 320.26 412.78 319.98 412.38 319.76 411.93 320.16 411.76 321.17 411.54 322.38 410.72 322.61 410.66 322.94 410.12 324.44 409 324.8 408.33 324.77 407.8 324.6 407.23 324.36 406.75 324.05 406.53 323.37 406.68 323.04 407.19 322.99 407.72 323.16 407.97 323.1 408.34 321.45 410.01 320.83 410.46 318.95 410.61 317.32 409.91 315.75 408.86 313.96 407.97 313.33 407.86 312.37 408.02 311.76 407.97 311.37 407.8 310.62 407.34 306.95 406.54 305.96 406.2 304.64 405.3 303.81 404.12 303.15 402.9 302.35 401.85 302.58 401.14 302.44 400.3 302.13 399.59 301.82 399.29 302.14 398.79 302.25 397.82 302.53 397.13 303.44 397.49 304.23 396.87 304.79 396.23 305.03 395.49 304.89 394.54 304.15 395.27 303.27 395.59 302.75 395.39 303.08 394.54 302.81 394.33 302.58 394.05 302.42 393.69 302.35 393.29 302.08 392.62 301.44 392.5 300.76 392.59 300.37 392.59 300.15 392.16 300.15 391.63 300.21 391.08 300.16 390.58 299.93 389.94 299.64 389.43 297.13 386.62 296.47 385.7 296.2 384.99 295.85 384.43 293.45 383.05 293.45 383.04 293.65 351.72 294.42 348.9 295.68 347.82 297.91 346.51 298.83 345.76 301.2 343.21 305.9 340.12 310.25 343.06 310.67 343.7 311.13 344.74 310.98 346.45 310.99 347.38 311.13 348.34 311.62 349.62 312.05 350.02 312.54 350.08 313.1 350.01 313.65 350.16 314.7 350.97 315.3 351.27 316.04 351.43 317.53 351.21 318.4 351.18 319.25 351.31 321.13 352.2 321.68 352.4 322.28 352.55 323.39 352.68 323.84 352.67 324.31 352.6 324.66 352.5 325.23 352.21 Z" id="PNG-1249" data-name="Central"/>
<path d="M 524.72 253.49 524.66 251.91 524.46 251.55 524 250.88 519.39 246.33 516.7 243.1 516.01 241.87 515.61 240.88 515.5 238.34 515.6 236.92 515.73 236.47 515.88 236.27 518.64 234.87 520.31 234.21 521.19 233.99 526.89 233.71 527.87 233.46 528.73 232.98 529.84 232.04 530.26 231.88 530.8 231.85 531.46 231.89 535.38 230.97 535.84 230.61 535.98 230.23 535.92 229.67 535.73 229.12 535.59 228.41 535.54 227.56 535.72 226.52 535.95 226.04 536.3 225.69 536.64 225.62 536.89 225.61 537.23 225.71 539.02 226.6 539.73 226.86 540.42 226.88 541.03 226.66 541.67 226.17 544.44 223.38 545.24 222.76 547.94 221.14 548.99 220.06 549.54 219.21 549.82 218.39 549.78 217.83 549.57 217.41 549.28 217.19 548.89 217.07 548.33 217.05 547.11 217.17 546.47 217.15 545.97 217.04 545.63 216.75 545.58 216.17 549.91 206.35 555.07 198.06 555.63 197.46 560.58 194.94 561.02 194.79 572.37 194.35 572.96 193.78 573.2 193.46 571.04 191.15 570.98 191.16 571.65 190.33 572.63 188.58 572.99 187.64 573.22 186.57 573.3 185.33 573.36 185.18 573.46 185.07 573.58 184.91 573.63 184.6 573.51 184.29 573.27 184.12 573.02 184.02 572.91 183.87 572.76 183.29 572.07 182.11 571.83 181.52 571.73 179.44 572 175.18 571.5 173.17 570.4 171.67 569.89 170.7 569.67 169.43 569.67 167.14 569.48 166.1 568.95 164.91 568.26 164.06 566.63 162.78 566.03 161.99 565.84 161.51 565.74 161.05 565.7 160 565.52 159.36 564.59 158.53 564.23 158 564.17 157.47 564.31 157.01 564.49 156.64 564.59 156.39 564.52 155.86 563.9 154.39 563.57 153.17 563.69 152.31 564.27 151.5 565.31 150.39 566.11 150.7 569.03 151.23 571.11 151.15 571.82 151.28 572.77 151.71 573.3 151.87 573.97 151.77 574.65 151.57 575.11 151.7 575.1 152.59 576 152.03 577.05 151.95 579.26 152.2 579.93 152.36 581.81 153.24 582.35 153.67 582.66 154.69 582.89 156.01 583.36 157.17 584.35 157.67 585.52 157.87 587.72 158.55 588.83 158.39 589.5 157.89 591.18 155.67 591.49 154.63 590.84 153.73 589.96 152.93 589.55 152.2 590.03 151.19 590.94 151.31 592 151.86 592.97 152.2 593.42 152.16 593.96 152.04 594.44 151.88 594.63 151.69 594.9 151.54 596.24 151.86 596.8 151.87 597.47 151.08 597.71 149.92 598.14 148.91 599.35 148.59 600.16 149.51 601.11 150.25 601.9 151.12 602.55 153.48 602.43 153.9 601.68 154.06 601.36 154.04 600.43 153.84 600.07 153.67 599.91 153.26 599.79 152.64 599.53 152.16 598.95 152.2 598.66 152.7 598.69 153.46 598.95 154.75 598.97 156.73 599.38 157.35 600.43 157.67 600.71 157.55 601.06 157.31 601.55 157.14 602.23 157.28 602.64 157.62 603.01 158.12 603.47 158.56 604.19 158.75 607.45 159.11 608.39 159.11 610.6 158.44 611.35 158.45 611.64 159.29 611.46 160.09 608.86 165.99 608.63 167.8 609.08 169.59 610.64 172.87 611.22 174.92 611.31 177.16 610.35 180.57 609.97 182.83 606.59 188.11 606.04 188.43 605.83 188.69 604.98 190.45 604.6 190.75 603.67 191.31 602.58 192.54 601.85 192.96 599.54 193.26 597.9 193.81 596.8 193.81 594.13 193.2 593.36 193.11 592.25 192.81 591.63 192.72 591.04 193.2 590.33 192.96 589.19 192.36 588.23 193.02 587.94 194.11 588.08 200.36 588.39 201.7 588.94 202.51 591.6 204.66 591.94 205.03 592.07 205.57 592.32 205.94 592.89 206.18 593.88 206.49 596.07 209.2 596.32 210.12 597.36 212.1 597.52 213.37 595.9 216.25 595.62 216.39 595.33 216.73 595.09 217.15 594.99 217.51 594.8 217.91 594.32 218.01 593.72 218.01 593.15 218.08 590.67 219.39 590.28 219.7 588.08 222.04 587.66 222.17 585.95 222.41 584.27 223.05 583.61 223.13 582.76 223.53 581.89 224.38 580.83 225.15 579.43 225.29 578.28 224.72 576.76 222.82 575.83 222.04 574.82 221.77 573.51 221.67 572.22 221.8 571.31 222.22 570.05 223.96 569.48 224.21 568.81 224.04 568.66 223.63 568.64 223.11 568.41 222.59 567.45 222.11 563.9 222.04 562.08 221.82 561.29 222.05 560.62 222.77 560.3 223.91 560.6 224.81 561.09 225.54 561.34 226.21 561.61 226.39 562.87 226.44 563.33 226.59 564.79 228.01 564.91 228.94 564 229.83 562.61 230.3 561.34 230.01 560.53 230.47 559.57 231.19 558.77 231.99 558.43 232.7 558.34 233.76 558.08 234.77 557.69 235.64 557.2 236.31 555.56 237.88 554.85 238.29 553.2 238.96 552.42 239.14 551.94 239.05 551.22 239.97 549.23 241.39 548.34 242.29 548.06 242.84 547.97 243.24 547.8 243.62 546.44 244.75 546.07 244.72 545.85 244.09 542.89 245.16 541.38 245.88 540.74 246.81 540.02 248.19 538.38 248.34 535.34 247.73 531.55 248.58 530.95 248.98 530.48 249.48 529.44 248.94 527.7 247.37 527.37 247.37 527.14 247.95 526.81 248.57 526.61 249.18 527.11 250.39 526.88 251.06 526.5 251.68 526.03 252.99 525.44 253.35 524.72 253.49 Z M 615.58 152.2 615.26 152.2 614.92 152.07 613.72 151.79 613.46 151.69 613.43 150.99 613.3 150.43 612.96 150 612.35 149.67 613.7 148.76 614.12 148.27 614.54 147.52 615.1 148.03 615.26 148.26 616.13 149.17 616.3 150.15 616.04 151.16 615.58 152.2 Z" fill-rule="evenodd" id="PNG-1250" data-name="East New Britain"/>
<path d="M 372.17 50.6 370.96 52.63 370 53.5 368.75 53.84 366.58 53.84 365.78 53.75 365.29 53.51 364.22 52.73 364.33 52.37 364.43 52.22 364.58 52.04 365.95 52.45 367.21 51.95 367.89 50.87 367.49 49.52 367.97 49.23 368.38 48.84 368.61 48.42 368.57 48.04 369.3 48.04 370.44 49.48 371.25 50.19 372.17 50.6 Z M 319.98 32.97 321.17 33.56 322.5 33.12 331.47 33.56 331.96 33.83 332.58 34.45 333.14 35.18 333.45 35.76 333.81 35.76 334.05 34.92 334.69 34.47 335.34 34.43 335.65 34.84 335.96 35.43 336.72 35.53 338.2 35.4 340.37 36.31 340.76 36.3 341.09 36.51 343.25 37.21 344.1 37.01 345.51 37.03 346.86 37.31 347.61 37.92 347.97 37.92 347.97 36.48 347.81 36.02 347.32 35.2 347.22 34.84 346.81 34.35 346.09 33.86 345.76 33.47 346.55 33.24 347.09 33.54 347.94 34.45 348.51 34.65 348.99 34.98 349.13 35.76 349.05 37.38 348.42 38.71 346.9 39.03 345 38.93 343.25 39.04 343.51 38.76 344 37.92 342.93 37.9 342.38 38.19 342.08 38.8 341.81 39.72 341.45 39.72 341.06 38.89 340.55 39.78 340.15 41.18 340.17 41.92 339.56 42.38 337.89 44.52 337.09 45.16 336.52 45.33 336.06 45.36 335.58 45.3 334.96 45.16 333.02 44.23 332.56 44.08 331.4 44.34 329.36 45.4 328.05 45.52 328.05 45.28 328.12 45.12 328.41 44.8 326.72 45.36 325.08 45.7 323.28 45.78 317.23 44.8 316.99 44.67 316.58 44.19 316.31 44.08 315.98 44.14 315.5 44.38 315.24 44.44 314.93 44.27 314.64 43.9 314.27 43.53 313.76 43.36 313.5 43.21 313.04 42.49 312.84 42.24 312.47 42.01 312.23 41.92 311.24 41.92 309.95 41.54 309.64 41.56 309.36 42.03 309.38 42.49 309.66 42.86 310.15 43.01 310.93 43.34 311.37 44.08 311.29 44.83 310.51 45.16 308.53 45.5 307.6 45.33 307.08 44.44 306.09 44.87 305.14 45.1 304.44 45.5 303.84 47.34 303.05 47.54 302.09 47.13 301.28 46.24 300.96 45.51 300.33 43.4 300.37 42.83 301.19 41.82 301.66 41.53 302.57 41.88 303.11 41.85 304.8 41.41 305.2 41.37 305.46 41.14 305.64 40.45 305.52 39.9 305.18 39.22 303.95 37.64 303.66 37.13 303.5 36.57 303.44 35.94 303.52 35.25 303.74 35.1 304.55 35.4 304.75 35.6 304.99 35.96 305.37 36.23 305.96 36.12 306.15 35.72 306.55 34.25 306.9 33.93 307.05 33.87 307.14 33.74 307.3 33.62 307.6 33.56 307.91 33.68 308.4 34.2 308.69 34.32 309.27 34.25 310.13 33.96 310.69 33.93 311.34 34.07 312.63 34.54 313.4 34.65 314.08 34.48 316.13 33.24 317.52 32.78 318.79 32.71 319.98 32.97 Z" fill-rule="evenodd" id="PNG-1251" data-name="Manus"/>
<path d="M 655.97 529.21 657.01 529.48 658 529.2 658.46 529.2 658.84 530.07 659.31 530.27 659.91 530.39 660.48 530.57 661.73 531.4 662.29 531.65 663.52 531.9 664.06 532.11 665.55 533.31 668.81 534.56 671.28 536.13 671.87 536.37 673 536.43 679.08 538.07 679.62 538.35 679.76 538.91 680.16 539.43 680.68 539.82 681.83 540.15 682.16 540.56 682.56 541.48 682.82 541.63 683.16 541.74 683.47 541.88 683.58 542.17 683.43 542.7 683.15 542.86 682.84 542.76 682.56 542.49 682.12 542.78 681.8 542.86 681.48 542.78 681.06 542.49 680.49 542.94 679.85 543.18 679.18 543.17 678.54 542.88 678.33 543.53 678.03 543.58 677.67 543.39 677.26 543.25 674.93 543.25 674.64 543.2 674.47 542.89 674.18 542.88 673.9 543.04 673.47 543.51 673.31 543.6 672.72 543.82 672.16 544.14 671.68 544.11 671.33 543.25 671.8 543.3 672.24 543.22 672.52 542.96 672.44 542.49 672.14 542.19 671.76 542.22 671.31 542.39 670.78 542.49 670.31 542.34 670.04 541.98 669.85 541.63 669.67 541.48 669.12 541.56 668.67 541.71 668.24 541.74 667.69 541.48 667.84 541.26 668.08 540.69 667.6 540.64 667.35 540.47 667.27 540.15 667.33 539.61 666.79 540.03 666.36 540.52 665.91 540.92 665.35 541.08 663.37 539.97 662.54 540.43 662.04 540.06 661.83 539.29 661.89 538.53 662.23 538.12 662.72 537.68 662.98 537.21 662.61 536.69 662.04 536.47 661.8 536.64 661.65 536.95 661.37 537.11 661.01 537 660.74 536.74 660.48 536.37 659.68 536.63 658.89 537.11 657.57 538.17 657.31 537.08 659.39 536.12 659.37 535.28 658.9 535.01 657.72 535.02 657.21 534.89 656.71 534.48 656.09 533.5 655.58 532.93 655.19 532.85 654.76 533.03 654.42 533.07 654.3 532.57 654.58 531.44 654.46 531.07 653.77 530.92 653.4 530.77 652.98 530.4 652.63 529.97 652.48 529.65 652.54 529 652.71 528.42 653.21 527.29 655.97 529.21 Z M 707.04 527.2 707.27 527.65 707.54 527.93 708.19 527.68 709.27 528.14 709.8 528.47 710.02 528.93 710.1 529.44 710.33 530.09 710.68 530.64 711.1 530.92 710.74 531.56 710.37 532.06 709.9 532.45 709.3 532.76 708.87 531.97 707.9 531.56 706.73 531.47 705.63 531.65 703.77 532.6 703.01 532.53 702.78 531.25 702.45 531.25 702.12 532.64 701.35 533.22 700.22 533.2 698.82 532.76 698.04 532.82 697.58 532.58 697.38 531.83 697.17 531.49 696.67 531.21 696.06 531.01 695.54 530.92 695.8 530.54 696.14 530.23 696.54 529.99 697.02 529.82 696.74 529.61 696.26 528.76 696.6 528.73 696.78 528.81 697.02 529.09 697.9 529.59 700.22 529.74 701.34 530.21 701.73 529.82 702.39 530.12 702.71 530 702.72 529.61 702.45 529.09 702.06 529.09 702.06 529.48 701.73 529.48 701.35 529.27 700.99 529.03 700.82 528.75 700.98 528.4 700.51 528.19 700.17 527.88 699.96 527.47 699.9 526.96 700.93 527.29 702.39 527.29 704.58 526.96 705.19 527.25 705.65 527.22 706.06 527.06 706.56 526.96 707.04 527.2 Z M 655.77 523.36 655.57 523.83 655.21 524.46 654.71 524.85 654.13 524.62 654 524.85 653.5 525.12 652.8 525.29 652.13 525.2 652.65 524.88 652.88 524.8 652.88 524.44 651.41 523.36 651.02 523.69 650.8 523.59 650.6 523.29 650.33 523 648.5 521.92 647.7 521 647.88 520.34 648.54 520.1 649.21 520.45 649.88 520.98 652.48 521.52 654.8 523.14 655.77 523.36 Z M 618.85 490.43 622.28 491.44 623.02 491.35 623.53 491.37 625.12 492.36 625.73 492.62 627.34 492.16 629.17 491.22 630.9 490.61 632.24 491.16 632.66 491.18 634.48 491.86 635.12 492.26 635.6 492.9 635.56 493.37 635.14 493.75 634.44 494.07 633.87 494.23 631.53 494.43 630.92 494.55 629.89 495 629.36 495.15 628.17 495.08 626.7 494.67 623.56 493.35 620.31 492.62 618.12 491.16 618.12 490.79 618.49 490.83 618.65 490.73 618.73 490.58 618.85 490.43 Z M 538.81 489.6 539.26 489.74 539.67 489.62 539.85 489.3 540 489.12 540.38 489.35 540.43 489.54 540.42 489.69 540.49 489.77 540.74 489.74 539.28 490.89 539.17 491.38 540.38 491.55 540.08 491.8 539.55 492.37 539.26 492.62 539.24 493.12 538.48 493.19 537.59 492.74 537.17 491.71 536.71 491.31 534.41 491.31 533.46 491.16 533.25 491.92 533.32 492.65 533.3 493.25 532.81 493.68 532.29 492.19 532.17 491.43 532.41 490.43 532.77 489.88 533.32 489.43 534.05 489.13 534.94 488.99 537.85 488.99 538.32 489.14 538.81 489.6 Z M 527.12 486.41 527.37 486.83 528.1 486.73 528.83 486.71 529.54 486.57 530.22 486.08 530.88 486.39 531.47 486.85 531.62 487.47 530.95 488.27 531.33 488.63 531.14 489.16 531.13 489.91 530.95 490.43 531.29 490.99 531.33 491.5 531.09 491.93 530.58 492.26 529.57 491.78 528.25 491.35 526.92 491.2 525.89 491.55 525.34 490.49 524.95 490.03 524.49 489.74 524.85 489.35 525.58 489.88 526.45 490.33 527.4 490.64 528.42 490.79 529.42 490.81 529.71 490.68 529.44 490.34 525.89 487.24 525.61 486.77 525.73 486.27 526.22 485.99 526.71 486.08 527.12 486.41 Z M 595.26 478.91 594.57 478.99 594.81 478.4 595.39 478.42 595.26 478.91 Z M 583.11 475.41 582.7 475.97 582.63 475.6 583.11 475.41 Z M 582.43 471.21 582.01 471.75 581.8 471.47 582.31 470.98 582.43 471.21 Z M 539.33 454.35 540.05 455.38 538.81 455.05 538.46 455.86 538.66 456.95 539.1 457.51 539.67 457.81 541.53 459.24 542.54 459.7 543.53 460 543.92 459.98 544.34 459.7 544.64 459.17 544.72 458.58 544.57 458.09 544.16 457.9 544.12 457.5 544.85 456.63 546.14 455.38 547.61 454.39 549.8 453.67 551.78 453.96 552.66 456.07 552.44 457.17 551.45 459.45 551.01 461.71 549.42 464.79 549.06 465.1 549.29 465.67 548.77 467.38 549.06 468.35 547.98 467.62 546.07 466.03 545.06 465.5 539.66 464.03 537.17 463.67 536.04 463.67 535.22 463.58 534.58 463.31 534.36 462.5 534.18 460.95 534.28 459.57 534.94 459.3 535.35 458.78 536.04 458.07 536.4 457.44 535.86 457.18 535.5 456.94 534.97 456.39 534.18 455.38 533.86 455.38 533.97 456.76 533.05 457.6 531.9 457.63 531.33 456.61 531.23 456.19 531 456.01 530.74 455.89 530.58 455.7 530.52 455.28 530.58 452.65 530.4 452.29 529.31 450.82 529.14 450.46 529 449.79 528.62 449.27 528.1 448.94 527.01 448.68 526.82 448.34 526.76 447.96 526.62 447.71 526.32 447.63 525.49 447.52 525.17 447.39 524.61 446.88 524.15 446.33 523.87 445.64 523.77 444.68 523.82 443.81 524 442.76 524.33 442.08 525.87 442.86 526.91 443.64 527.73 444.61 528.06 445.75 528.57 446.92 529.77 447.65 531.21 448.19 532.41 448.82 535.86 452.65 536.79 453.2 538.1 453.69 539.33 454.35 Z M 460.8 436.5 463.95 437.76 464.77 437.68 465.7 437.06 466.22 436.85 466.76 436.93 467.51 437.23 468.05 437.12 469.31 436.65 469.81 436.54 471.01 436.7 473.08 437.42 475.57 437.72 478.13 438.7 479.33 438.77 482.68 438.31 484.06 438.45 484.66 438.88 485.4 440.51 485.83 440.82 486.23 440.89 486.59 441.12 486.84 441.94 486.96 442.73 486.9 442.88 486.53 442.84 485.73 443.02 482.87 444.48 481.83 444.86 478.13 445.58 476.09 446.21 474.85 446.32 473.81 445.91 473.12 446.54 470.64 447.26 469.81 447.71 469.28 448.83 469.51 449.74 470.92 451.38 474.79 454.48 476.45 456.46 476.33 458.56 477.66 458.66 478.51 458.99 480.15 460.6 480.82 461.07 481.77 461.46 482.81 461.75 483.77 461.86 486.81 461.71 487.93 461.86 488.96 462.18 490.8 463.29 491.19 463.37 491.92 463.31 492.4 463.16 493.37 462.69 493.91 462.59 494.4 462.79 494.78 463.27 495.34 464.19 497.01 464.7 497.4 464.93 498.23 466.03 499.2 466.85 499.9 467.23 502.01 467.63 504.18 468.41 505.34 468.65 506.37 468.35 506.71 468.45 507.32 468.49 507.91 468.41 508.17 468.17 510.37 468.68 511.68 469.2 512.25 469.12 513.07 468.51 513.54 468.42 515.77 468.68 515.49 469.08 514.8 469.83 514.69 470.15 515.03 470.69 516.23 471.48 516.5 472.16 517.12 472.44 518.52 472.26 521.93 471.43 525.37 471.26 526.17 471 527.75 469.76 528.78 469.43 530.15 469.63 530 470.27 529.03 470.95 526.89 471.48 520.37 474.95 518.48 475.64 516.5 475.95 515.6 475.95 515.31 475.83 515.05 475.59 514.01 475.69 511.63 474.74 510.52 474.48 508.32 474.34 507.28 474.07 506.54 473.61 505.12 473.62 503.36 475.03 502.32 477.05 503.09 478.87 503.35 478.89 503.44 478.83 503.48 478.48 504.25 478.89 506.65 479 507.63 479.39 508.07 479.65 508.64 479.82 510.4 480.08 510.93 480.39 511.78 481.03 518.18 482.95 519.41 483.94 519.77 485.75 520.39 486.61 520.58 487.16 520.29 487.73 519.48 488.22 513.08 490.54 512.5 490.25 512.3 490.11 510.89 490.43 510.13 490.46 509.72 490.58 508.89 491.16 508.8 491.37 508.28 492 507.72 492.52 507.45 492.44 507.29 492.64 506.96 492.91 506.68 493.36 506.7 494.07 505.95 493.76 505.03 493.72 504.13 493.85 503.48 494.07 502.83 492.87 501.96 492.49 500.87 492.71 498.42 493.96 498.41 494.07 498.05 493.96 497.59 493.75 497.26 493.5 497.29 493.35 496.73 493.56 496.19 493.89 495.16 494.79 494.8 494.35 493.55 493.51 493.41 493.17 493.61 492.85 493.92 492.5 494.09 492.07 493.52 491.72 492.26 491.93 490.92 492.43 490.12 492.96 489.26 491.82 489 491.55 488.49 491.32 488.28 491.45 488.07 491.62 487.57 491.55 486.87 490.7 486.48 490.43 486.13 490.41 485.69 490.46 485.18 490.42 484.65 490.07 485.63 489.44 485.52 488.85 484.98 488.28 484.65 487.73 484.48 487.53 484.12 488.01 483.6 488.99 483.15 489 482.68 488.83 481.83 488.27 481.95 488.04 482.13 487.16 481.57 487.65 481.41 487.91 481.04 487.91 480.73 487.42 480.06 487.01 478.52 486.46 478.88 487.16 478.71 487.22 478.57 487.22 478.51 487.29 478.52 487.55 478.02 487.26 477.49 487.04 476.94 486.9 476.33 486.83 476.94 486.21 477.76 485.95 478.42 485.59 478.52 484.64 478.23 484.78 477.47 485 477.69 484.6 478.01 484.3 478.4 484.08 478.88 483.94 479.24 484.53 479.81 484.58 481.23 484.27 483.59 484.9 486.02 484.15 486.48 483.94 486.6 483.64 486.72 482.75 486.84 482.47 487.14 482.34 488.32 482.11 487.63 481.82 486.92 481.77 486.19 481.8 485.4 481.75 484.85 481.52 483.77 480.82 482.64 480.61 482.01 480.34 481.62 480.28 481.41 480.4 481.07 480.91 480.86 481.03 480.76 481.38 480.64 482.18 480.4 483.03 479.97 483.55 479.57 483.2 479.35 482.84 479.26 482.43 479.24 481.93 479.15 481.52 478.93 481.34 478.69 481.22 478.52 481.03 478.07 479.73 477.78 479.22 477.26 478.68 475.87 477.83 472.96 476.93 471.84 476.15 470.73 475.63 468.98 475.45 467.03 475.53 467.03 475.52 466.88 464.98 466.53 463.95 465.73 462.55 464.54 462.16 461.53 460.78 460.09 459.63 458.65 458.72 455.96 457.56 455.62 457.35 453.22 455.14 452.39 454.53 451.45 454.15 448.6 453.73 448.29 453.59 448.05 453.17 447.01 450.84 446.14 449.93 445.33 449.22 442.37 447.77 438.33 446.42 434.86 445.82 433.19 445.7 431.77 445.73 430.84 445.84 429.84 446.1 428.92 446.45 428.88 444.62 428.94 444.22 429.2 443.34 429.42 442.9 429.66 442.56 429.99 442.21 430.87 441.55 431.42 441.34 432.14 441.21 433.38 441.24 434.25 441.42 436.13 442.09 436.61 442.17 452.38 437.77 454.92 436.74 455.57 436.34 455.58 436.34 459.79 436.3 460.8 436.5 Z M 538.45 439.87 537.74 440.29 537.45 440.05 537.37 439.43 537.11 439.12 536.96 438.9 536.63 438.5 535.16 437.72 534.44 437.04 534.67 436.25 535.63 435.73 536.6 435.62 537.41 435.87 537.97 436.2 538.11 436.7 538.26 436.77 538.28 437.05 538.08 437.92 537.82 438.04 537.68 438.08 537.74 438.5 537.84 438.69 538.1 438.71 538.39 438.93 538.6 439.3 538.45 439.87 Z M 518.64 427.74 519.58 428.14 520.29 428.04 521.31 427.53 522.35 427.38 523.33 427.07 524.1 426.06 526.15 427.46 527.79 428.99 528.06 429.33 528.1 429.65 527.99 430.44 528.06 430.74 528.58 431.23 529.32 431.7 530.11 432.07 530.76 432.21 530.9 432.51 530.58 434.56 530.34 434.94 529.9 435.1 529.59 435.3 529.83 435.82 530.46 436.21 531.05 436.23 531.49 436.35 531.86 437.7 532.3 438.01 532.8 438.25 533.14 438.7 533.15 439.42 532.82 440.05 532.29 440.54 531.66 440.87 531.11 440.3 530.21 440.91 528.42 442.67 528.45 441.8 529 440.54 529.14 439.95 528.78 439.51 527.94 439.36 526.29 439.42 526.49 440.33 525.45 440.23 523.2 439.42 519.88 439.79 518.69 439.79 516.87 439.3 515.03 438.49 513.01 437.88 510.7 437.98 508.63 438.3 506.9 438.31 506.7 437.94 507.47 437.12 509.25 435.82 510.52 435.18 511.04 434.6 511.13 433.86 511.09 432.74 510.7 432.21 508.17 430.74 506.55 427.09 506.37 425.52 506.82 424.27 507.93 423.38 509.35 422.89 510.7 422.81 513.77 424.4 515.55 424.89 516.24 425.52 517.22 426.77 518.64 427.74 Z M 503.31 424.2 503.48 424.61 503.55 424.6 504 425.14 504.1 425.41 503.93 425.61 503.66 425.79 503.48 426.06 503.22 426.89 502.35 428.82 501.83 429.49 501.71 429.86 502.17 430 503.09 430.02 503.12 430.51 503.05 430.87 502.76 431.46 501.83 432.42 500.49 432.41 499.02 431.84 497.72 431.13 497.61 431.27 497.57 431.31 497.51 431.36 497.29 431.46 497.35 430.67 497.29 429.85 497.01 429.2 496.43 428.94 495.58 428.82 493.55 428.22 493.07 427.98 492.74 427.42 492.44 426.77 492.1 426.23 490.03 424.48 489.73 424.04 489.76 422.32 489.97 420.79 490.5 419.38 491.53 418.06 492.75 416.98 494.04 416.17 495.34 415.85 496.61 416.26 499.41 417.75 500.66 418.68 501.65 419.9 502.63 422.21 502.86 423.47 503.31 424.2 Z M 614.47 402.32 616.91 404.8 621.22 404.4 623.52 404.63 624.84 405 626.76 405.3 628.42 405 629.37 405.04 630.48 405.04 631.5 405.17 632.28 405.54 632.75 406.24 633.39 406.47 634.34 408.11 635.29 408.68 637.01 409.18 638.03 408.67 639.28 409.41 639.79 409.97 639.65 411.31 640.94 411.74 642.12 412.44 643 412.86 642.16 413.48 641.79 414.08 642.06 414.42 641.86 414.72 641.62 415.15 641.08 415.32 640.53 415.02 640.13 414.58 639.48 414.22 639.14 414.48 638.64 415.12 638.77 415.52 639.76 416.25 640.78 417.09 641.08 417.96 640.64 418.53 640.3 418.56 640.03 417.76 639.32 417.02 638.24 417.06 636.78 418.19 634.68 418.4 633.63 418.7 633.26 418.36 632.42 418.43 631.98 417.66 631.16 416.73 630.42 416.39 629.64 415.72 629.24 415.02 628.86 414.55 628.56 415.22 627.95 415.76 628.09 416.55 629.34 416.79 629.27 417.76 628.42 418.73 627.61 417.23 626.56 416.79 625.07 416.26 624.19 415.76 623.58 414.62 623.92 413.85 625.07 414.76 626.29 414.82 626 414.04 626.28 413.56 626.65 413.32 626.99 413.27 627.29 413.14 626.77 412.62 626.36 412.35 625.75 412.05 624.67 411.52 623.14 410.28 621.96 409.44 621.15 408.61 619.83 409.11 619.35 408.81 618.71 408.21 617.86 407.67 616.3 407.04 614.47 407.37 614.1 406.93 615.96 406.2 615.96 405.81 615.69 405 614.54 403.72 613.42 403.15 612.06 404.05 611.99 404.99 612.13 405.96 612.16 408.03 612.13 408.67 611.82 409.41 611.31 406.76 610.09 404.52 610.94 403.45 613.45 402.08 614.47 402.32 Z M 543.65 374.57 543.57 374.63 543.42 374.63 543.26 374.69 543.19 377.24 542.97 378.32 542.54 379.37 544.13 381.11 544.1 383.38 542.38 390.77 542.25 392.16 542.74 392.77 543.49 393.2 544.1 394.18 544.42 395.28 544.34 396.05 543.74 395.4 542.18 392.77 539.19 390.88 539.1 390.58 539.33 390.15 541.9 386.7 543.08 383.96 543.26 382.97 543.1 382.77 542.18 381.89 541.52 381.43 541.07 381.25 538.02 380.99 537.11 380.58 536.74 379.55 537.68 378.27 537.85 377.75 537.96 377.1 538.25 376.58 539.1 375.6 540.02 374.88 541.15 374.5 543.62 374.33 543.65 374.57 Z" fill-rule="evenodd" id="PNG-1252" data-name="Milne Bay"/>
<path d="M 265.9 246.44 298.23 246.57 314.53 237.06 314.76 236.93 315 237.85 315.78 238.11 316.73 237.88 317.56 237.57 318.77 237.41 319.7 237.57 320.51 237.83 321.34 237.96 322.12 238.29 322.54 239.08 322.87 240.03 323.33 240.85 326.07 242.65 326.49 242.7 327.03 242.83 327.49 243.01 327.89 243.4 328.35 243.19 329.1 242.65 329.67 242.62 330 242.73 330.6 243.37 331.29 244.48 331.81 245 332.04 244.66 332.67 244.4 337.54 244.99 338.03 244.99 338.53 244.85 339.15 244.38 339.64 243.76 340.17 243.24 340.92 243.01 341.38 243.13 342.71 243.73 343.06 243.71 343.17 243.62 343.24 243.45 343.43 243.19 343.8 242.98 344.05 243.06 344.33 243.37 346.94 244.3 349.36 244.61 350.29 245.02 351.01 245.59 351.6 246.26 351.81 246.37 352.44 246.51 352.65 246.65 352.77 246.93 352.87 247.47 352.98 247.73 353.34 248.09 354.78 248.78 358.48 252.26 359.89 254.76 360.42 255.33 361.27 255.83 361.78 257.03 362.2 258.45 362.77 259.27 363.99 261 367.93 262.99 369.3 264.34 369.49 265.07 369.41 265.55 369.26 265.98 369.3 266.57 369.64 267.25 370.13 267.78 370.55 268.38 370.85 269.85 371.34 271.08 371.45 271.78 371.28 272.24 370.97 272.62 370.8 273.07 371.09 273.75 370.52 274.44 370.6 275.22 370.91 276.12 371.09 277.22 370.93 277.46 370.18 277.95 370.02 278.1 370.11 278.75 370.37 279.11 370.71 279.14 371.09 278.82 370.74 283.11 366.6 284.53 357.34 285.02 356.83 285.33 355.91 286.18 355.5 286.43 354.91 286.4 354.33 286.16 353.76 286 353.17 286.25 352.22 286.49 348.69 285.34 347.47 285.35 345.3 285.92 344.17 286.07 335.94 285.62 335.29 285.7 334.99 285.18 334.6 284.77 334.09 284.47 333.45 284.26 332.63 284.17 330.03 284.26 329.32 284.48 328.01 285.48 327.13 285.7 325.37 285.63 324.46 285.72 323.69 286.07 323.61 287.34 322.81 289.54 322.61 290.75 322.66 293.29 323 295.79 323.35 297.03 325.08 299.16 326.21 300.18 326.76 300.87 327.1 301.13 327.68 301.26 328.1 301.18 328.81 300.52 329.49 300.18 329.41 300.89 329.14 301.44 328.86 301.9 328.74 302.32 328.85 302.97 329.32 303.84 329.49 304.51 329.41 305.18 329.03 306.43 329.1 307.06 329.31 307.13 332.04 309.24 332.65 309.9 333.12 310.67 333.31 311.78 333.1 314.27 333.45 314.99 333.72 315.57 333.55 315.82 333.26 316.03 333.12 316.46 333.42 316.98 333.81 317.91 334.06 319.52 334.21 320.03 335.06 321.39 335.29 321.87 335.6 322.1 335.85 322.31 336.01 322.56 335.94 322.86 335.66 323.02 335.37 323.13 335.29 323.28 335.61 323.84 335.84 323.87 336.16 323.79 336.73 324.04 336.98 324.42 336.94 324.76 337.07 325 337.81 325.12 338.05 324.97 338.92 324.04 339.26 324.04 339.57 324.3 339.81 324.56 339.85 324.84 339.61 325.12 342.8 325.88 344.37 326.62 345.06 327.83 345.26 328.38 345.73 328.64 346.29 328.75 346.72 328.75 347.5 328.88 347.99 329.22 348.42 329.67 349.05 330.16 348.61 330.64 348.92 330.77 349.55 330.78 350.09 330.92 351.38 331.95 351.99 332.62 352.26 333.24 352.23 335.22 352.74 335.71 355.6 336.16 356.34 336.56 356.59 337.34 356.62 338.69 356.98 339.79 357.68 340.64 358.12 341.47 357.7 342.52 360.25 342.16 360.25 341.76 359.76 341.54 359.39 341.18 359.18 340.66 359.17 339.96 360.59 341.05 361.73 342.21 362.49 343.73 362.92 347.13 363.34 348.01 364.02 348.62 364.97 348.99 365.82 349.07 367.43 348.7 368.57 348.64 368.89 348.81 369.2 349.12 369.59 349.22 370.2 348.81 370.7 348.6 371.31 348.66 371.92 348.89 374.41 350.7 375.57 351.28 376.72 351.52 377.12 352.03 377.25 352.42 325.23 352.21 324.66 352.5 324.31 352.6 323.84 352.67 323.39 352.68 322.28 352.55 321.68 352.4 321.13 352.2 319.25 351.31 318.4 351.18 317.53 351.21 316.04 351.43 315.3 351.27 314.7 350.97 313.65 350.16 313.1 350.01 312.54 350.08 312.05 350.02 311.62 349.62 311.13 348.34 310.99 347.38 310.98 346.45 311.13 344.74 310.67 343.7 310.25 343.06 305.9 340.12 294.57 332.5 279.27 328.31 277.92 327.73 277.16 326.97 275.71 324.85 274.63 322.7 264.77 311.92 267.04 304.91 267.29 304.44 267.62 303.96 267.9 303.37 269.3 298.61 269.56 297.95 270 297.22 270.61 296.49 272.79 294.57 273.25 294.06 273.69 293.28 273.92 292.33 273.89 291.35 273.26 289.5 273.15 288.44 272.95 287.6 272.61 286.86 272.41 286.22 272.45 285.59 272.82 285.08 274.03 283.92 274.56 283.16 274.95 282.26 279.67 259.79 279.67 258.59 279.37 257.76 278.86 257.14 271.98 252.75 271.2 252.27 271.16 251.48 270.96 250.64 270.63 250.82 269.78 251.17 269.45 251.37 268.76 250.48 267.93 249.75 267.22 248.97 266.62 247.08 265.9 246.44 Z M 369.4 219.61 369.66 219.88 369.82 219.69 369.99 219.61 370.17 219.59 370.38 219.53 371 220.07 372.17 221.43 372.9 222.04 373.66 222.42 375.78 222.77 377.13 223.32 378.48 224.06 381.04 225.85 382.22 227.19 382.53 228.57 382.01 233.27 380.85 235.86 380.5 237.24 379.95 237 379.74 236.85 379.77 237.21 379.73 237.94 379.74 238.29 379.21 238.19 378.77 238.29 378.37 238.59 377.97 239.05 377.71 238.37 377.56 236.6 377.25 235.77 376.81 235.35 376.18 235.05 374.7 234.69 372.94 234.53 372.17 234.17 371.45 233.25 371.31 232.88 371.09 231.77 370.78 231.31 368.79 229.61 368.16 228.87 367.1 227.12 366.25 226.14 366.05 225.68 366.05 225.25 366.37 223.88 366.16 221.37 366.37 220.61 366.93 220 368.26 219.76 368.93 219.13 369.06 219.4 369.21 219.51 369.4 219.61 Z M 386.26 217.5 384.82 218.41 383.26 217.95 382.47 216.48 382.58 214.79 383.74 213.73 385.15 214.53 386.18 216 386.26 217.5 Z M 359.85 210.81 359.37 211.72 358.84 212.18 357.34 213.01 356.25 211.53 356.11 211.5 355.63 211.56 355.5 211.53 355.45 211.3 355.47 211.08 355.47 210.87 355.34 210.64 355.33 210.1 355.98 209.53 356.9 209.11 357.7 209.01 358.65 209.13 359.09 209.63 359.36 210.27 359.85 210.81 Z" fill-rule="evenodd" id="PNG-1253" data-name="Morobe"/>
<path d="M 340.8 432.5 340.34 432.21 339.49 431.84 338.84 431.8 338.66 432.25 339.26 433.29 338.03 433.37 336.38 432.87 334.77 432.08 333.63 431.3 333.32 430.69 333.06 428.91 332.73 428.22 332.11 427.75 331.46 427.59 330.73 427.65 329.85 427.86 330.12 428.29 330.96 428.57 331.29 428.94 331.42 429.53 331.34 430.03 331.16 430.36 330.94 430.41 329.51 429.23 329.1 428.69 328.93 428.27 328.92 427.91 329.03 427.65 329.25 427.41 329.55 427.21 330.03 427.02 332.25 426.36 334.15 425.29 334.78 425.1 335.4 425.2 335.91 425.48 336.74 426.23 337.15 426.48 337.61 426.54 338.74 426.45 339.28 426.6 339.85 427.33 340.35 428.63 340.76 430.45 340.8 432.41 340.8 432.5 Z" id="PNG-1254" data-name="National Capital District"/>
<path d="M 677.76 145.83 677.04 147.52 675.6 147.93 674.18 146.4 674.03 146.31 673.82 146.37 673.61 146.36 673.49 146.07 673.5 145.72 673.61 145.48 673.74 145.27 674.09 144.48 674.79 143.63 674.93 143.38 675.39 142.81 676.35 142.26 677.23 142.23 677.45 143.22 677.07 143.55 677.76 145.83 Z M 681.8 141.86 681.72 142.68 681.05 143.22 680.34 143.12 679.76 142.66 679.13 142.29 678.2 142.47 678.6 141.93 679.76 141.41 680.33 141.03 681.32 141.17 681.8 141.86 Z M 656.03 113.75 656.09 114.62 655.68 114.4 655.57 114.42 655.55 114.53 655.4 114.62 654.72 114.07 653.15 113.52 652.48 113.14 654.08 111.94 654.68 111.73 655.62 112.95 656.03 113.75 Z M 660.72 109.17 660.48 110.26 659.83 109.34 658.81 109.25 657.63 109.5 656.49 109.57 656.74 108.96 657.18 108.47 658.28 107.74 659.67 107.74 660.46 108.27 660.72 109.17 Z M 624.07 99.64 623.56 100.14 623.03 99.89 621.39 98.56 621.04 98.15 618.31 95.19 617.85 94.51 617.41 93.44 617.64 92.26 618.72 91.3 619.91 90.4 621.9 90.18 623.92 90.74 623.82 93.65 623.92 94.34 624.17 94.66 624.8 94.76 625 95.06 625.03 95.59 624.93 96.05 624.64 96.86 623.92 98.6 624.07 99.64 Z M 535.91 85.79 536.38 86.05 536.98 86.16 537.47 86.1 537.87 86.18 538.18 86.73 537.27 86.98 536.38 87.46 536.06 86.66 535.52 86.49 534.18 86.73 531.86 86.73 529.24 86.15 528.08 86.18 527.37 87.1 526.56 86.8 526.09 86.97 525.66 87.29 525.01 87.46 524.64 87.21 525.09 86.62 526.29 85.66 527.11 85.83 528.36 85.02 530.58 83.17 533.75 84.23 534.94 84.94 535.91 85.79 Z M 592.29 88.03 590.92 88.08 589.85 86.55 589.18 85.37 589.24 83.51 589.04 82.83 588.45 82.65 587.86 82.35 587.39 81.7 587.75 81.7 587.7 80.97 588.1 80.25 588.68 79.99 589.19 80.61 589.87 81.79 590.83 82.83 591.95 83.52 593.36 83.89 593.69 84.54 593.74 86 592.89 86.85 592.29 88.03 Z M 589.28 77.87 589.55 78.48 590.05 78.17 590.28 78.09 589.89 78.81 588.9 79.38 587.75 79.75 585.76 80.46 585.14 80.07 585.14 78.43 584.98 77.14 584.76 75.27 584.99 72.73 586.19 72.77 588.43 73.55 588.83 73.76 589.85 74.67 590.09 74.81 590.03 75.29 590.19 76.32 590.07 77.34 589.19 77.73 589.28 77.87 Z M 590.46 70.48 588.65 70.48 587.48 69.89 587.48 68.58 588.29 67.34 589.55 66.88 590.39 67.31 591.09 68.18 591.52 69.03 591.55 69.41 591.38 69.58 591.24 69.95 590.98 70.32 590.46 70.48 Z M 539.1 73.01 539.3 73.25 539.76 74.4 540.05 74.81 540.65 75.06 541.27 75.12 541.91 75.29 542.54 75.57 545.79 76.94 546.88 78.1 547.29 80.09 548.21 81.38 550.34 81.82 554.3 81.7 554.9 81.82 555.22 82.14 555.46 82.56 555.76 82.98 556.27 83.22 556.8 83.12 557.3 82.91 557.71 82.8 558.87 83.03 559.88 83.47 560.8 84.12 561.71 84.94 563.33 86.92 563.65 87.01 564.82 87.03 565.31 87.1 568.34 89.32 568.95 89.26 573.05 91.82 574.03 92.9 574.57 93.84 575.44 95 576.59 95.73 577.99 95.45 578.3 96.77 578.95 97.67 579.75 98.18 580.51 98.33 582.45 98.24 583.07 98.33 584.14 98.93 584.79 99.06 585.58 98.7 586.14 99.02 586.99 99.82 587.98 100.51 588.17 100.54 589.82 100.54 590.34 100.69 591.04 101.21 591.32 101.26 591.91 101.25 592.35 101.31 592.4 101.44 592.35 101.67 592.47 101.98 592.53 102.19 592.43 102.82 592.47 103.06 592.59 103.14 593.03 103.31 593.15 103.38 593.48 103.8 595.44 105.71 598.03 109.51 599.44 111.06 601.06 112.4 602.96 113.54 606.69 115.26 607.5 116.12 608.52 116.67 608.75 116.96 609.08 118.94 609.3 119.17 609.74 119.27 610.03 119.47 610.24 119.75 610.53 120.33 611.14 121.09 611.6 122.33 611.99 122.94 613.05 123.6 614.12 123.56 615.02 123.02 615.6 122.22 616.3 122.98 617 123.98 617.54 125.05 617.76 126 617.99 126.52 618.98 127.57 619.21 128.17 619.1 128.81 618.88 129.33 618.74 129.86 619 130.49 619.49 130.95 619.94 131.47 619.93 131.62 620.47 131.82 621.04 131.93 622.28 131.98 623.6 132.24 624.54 132.88 625.38 133.7 626.44 134.51 627.45 135.03 628.43 135.38 629.44 135.59 630.62 135.65 631.71 135.2 632.45 134.43 633.05 134.28 633.72 135.65 633.83 136.18 633.92 137.26 634.05 137.78 634.31 138.3 634.99 139.25 635.12 139.76 635.56 140.59 636.58 140.97 637.79 141.06 638.76 141.03 638.79 140.93 639.52 140.3 640.06 141 640.13 141.69 640.07 142.42 640.2 143.22 640.76 143.99 642.44 145.36 643.12 146.07 644.53 148.99 645.39 150.19 645.88 151.09 645.8 151.51 646.78 151.92 648.05 152.92 649.14 154.17 649.61 155.29 649.12 158.22 649.06 159.55 649.61 160.91 648.28 162.39 645.22 164.94 644.53 166.71 644.7 167.73 645.21 168.37 645.83 168.9 646.33 169.59 646.54 170.33 646.62 171.16 646.54 172.01 646.33 172.83 645.95 173.28 644.66 174.09 644.2 174.64 644.28 175.97 644.2 176.44 643.9 176.94 643.14 177.53 642.76 177.91 642.38 178.61 641.77 180.32 641.32 181.16 640.84 181.64 640.34 182.01 639.86 182.5 639.52 183.32 638.36 182.97 637.87 183.71 637.57 184.89 636.96 185.85 636.52 184.25 635.7 182.71 634.42 181.39 632.6 180.44 632.76 179.14 631.33 177.8 629.45 176.52 628.25 175.36 627.99 174.51 627.92 171.59 627.69 171.25 626.56 170.69 626.11 170.35 625.99 169.98 625.58 167.33 625.06 165.63 625 164.91 625.98 162.41 626.07 162.03 626.73 156.37 626.11 155.11 626.42 154.48 626.4 153.79 626.15 153.14 625.73 152.59 626.21 151.59 626.25 150.64 625.89 149.72 624.52 147.93 621.9 142.73 621.56 141.23 621.19 140.33 620.31 138.83 619.21 137.72 618.74 137.06 618.55 136.13 618.37 135.89 617.58 135.35 617.4 135.06 617.35 134.45 617.2 133.88 616.97 133.4 616.68 133.06 616.27 132.89 615.31 132.84 614.85 132.67 614.53 132.26 613.97 131.13 613.03 130.46 608.57 124.92 608.39 124.4 608.61 123.18 608.56 122.75 608.07 122.34 607.28 121.83 605.97 120.53 605.39 119.79 604.81 118.36 604.02 118.01 603.06 117.8 602.23 117.5 602.05 117.24 601.67 116.34 601.48 116.03 601 115.69 600 115.21 598.61 114.16 597.63 114 596.55 114.02 588.74 112.51 586.7 111.73 579.5 107.34 569.12 97.06 568.28 96.53 564.98 95.78 561.81 94.49 561.34 94.16 561.23 93.9 560.98 93.63 560.74 93.27 560.53 92.22 560.3 91.82 559.52 91.1 556.03 89.17 555.03 88.38 554.67 88.17 552.26 87.23 551.09 86.09 550.53 85.66 549.59 85.39 548.64 85.22 547.92 84.87 547.62 84.05 546.33 82.8 545.26 82.8 544.85 82.73 544.8 82.53 544.86 82.29 544.73 82.08 543.96 81.6 543.26 81 543.16 80.85 543.03 80.43 542.93 80.28 542.23 79.89 542 79.71 541.58 79.45 541.01 79.29 539.18 79.05 538.77 78.78 538.18 78.09 537.53 77.49 537.2 77.25 536.74 77.01 536.19 76.86 534.89 76.69 533.41 75.96 532.32 75.88 528.2 76.64 526 76.63 524.12 76.08 523.02 74.81 523.07 74.17 523.46 73.4 524.13 73.03 525.01 73.56 525.97 73.99 527.08 73.56 529.14 72.29 530.26 73.12 531.12 72.32 531.16 71.14 529.83 70.82 530.65 70.03 530.52 69.47 529.93 69.13 529.34 69.02 528.32 68.94 527.61 68.75 525.89 67.96 526.98 65.8 526.87 65.64 526.79 65.17 526.91 64.84 528.03 65.42 528.48 65.94 528.85 66.51 529.34 67.05 531.04 68.05 531.33 68.13 531.61 68.76 532.22 69.18 533.46 69.77 534.78 71.43 535.34 71.93 535.74 72.06 537.97 72.4 538.45 72.65 538.79 72.89 539.1 73.01 Z M 496.16 55.74 499.04 57.49 500.21 57.48 500.67 57.75 502.05 58.38 502.57 58.5 502.75 58.6 503.24 59.11 503.48 59.28 504.9 59.61 506.37 60.16 507.62 61.07 508.23 62.34 507.81 63.97 508.36 63.73 508.56 63.61 508.86 64.37 508.56 65.1 508.07 65.86 507.81 66.69 507.85 67.57 507.97 68.28 508.2 68.87 508.56 69.41 508.2 70 507.84 70.25 506.7 70.48 504.73 71.21 504.17 71.33 503.63 71.51 503.25 71.49 503.09 71.01 502.74 70.42 501.95 70.56 501.1 71.06 500.57 71.57 500.28 71.36 499.75 71.06 499.49 70.82 498.64 71.06 494.68 71.26 494.26 71.35 493.87 71.37 493.37 71.21 492.92 70.86 491.2 69.02 490.07 68.38 489.59 68.01 488.73 65.41 486.5 62.75 485.73 62.16 484.53 62.57 482.94 61.84 481.78 60.71 481.83 59.94 482.19 59.74 482.52 59.93 482.85 60.22 483.24 60.33 483.73 60.12 487.57 57.48 488.41 57.34 489.12 57.34 489.73 57.27 490.28 56.91 492.41 56.16 492.46 56 493.14 55.89 494.22 55.4 494.98 55.28 496.16 55.74 Z M 483.02 17.39 483.45 18 484.24 18.22 485 18.19 485.25 18.33 484.94 18.68 484.04 18.92 482.67 18.83 481.89 18.54 481.69 18.37 481.28 18.25 480.84 18.37 480.71 18.54 480.62 18.77 480.17 18.87 479.65 18.45 479.37 17.77 479.37 17.22 479.81 17.1 481.02 17.47 481.5 17.04 481.71 16.15 482.12 15.99 482.72 16.64 483.02 17.39 Z M 462.21 1.31 462.67 1.42 463.88 1.39 464.36 1.57 465.52 2.83 468.75 4.63 469.48 5.36 469.61 5.99 469.54 6.57 469.58 7.15 470.03 7.71 470.24 8.09 470.92 9.71 471.48 10.72 472.62 12.29 473.08 13.35 472.22 13.41 470.99 14.05 470.24 14.07 469.73 13.89 469.58 13.66 469.48 13.38 469.15 12.99 468.28 12.31 467.85 12.06 467.35 11.88 467.3 13.4 466.43 13.11 464.6 11.55 464.08 11.39 463.57 11 462.48 9.9 462.25 9.41 462.06 9.17 461.76 9.03 461.07 9.08 460.8 8.99 460.09 8.17 459.79 7.23 459.72 5.18 461.43 1.64 461.88 1 462.21 1.31 Z" fill-rule="evenodd" id="PNG-1255" data-name="New Ireland"/>
<path d="M 428.92 446.45 428.46 446.78 428.4 447.13 428.36 447.56 428.47 447.98 428.68 448.46 429.97 450.72 430.2 451.37 430.31 451.96 430.31 452.98 430.19 453.52 429.94 453.99 429.63 454.21 429.11 454.39 428.45 454.45 425.49 454.4 424.79 454.53 423.06 455.08 421.75 455.66 421.16 455.69 420.53 455.49 419.29 454.74 418.59 454.46 417.82 454.33 416.21 454.35 415.56 454.3 415.11 454.05 414.91 453.5 414.9 453.07 414.95 452.67 414.9 452.4 414.71 452.19 414.34 452.1 414.01 452.19 413.66 452.41 413.17 452.8 412.8 452.97 412.54 453.03 412.26 452.99 412.02 452.89 411.73 452.75 410.11 451.59 409.34 451.24 407.9 450.73 407.08 450.3 404.84 448.69 402.56 447.5 399.04 444.83 398.28 444.64 397.58 444.72 396.88 445.02 396.3 445.2 395.69 445.22 395 444.99 394.15 444.43 391.25 441.87 388.06 439.56 386.85 438.39 385.2 437.1 384.49 436.79 382.16 436.26 381.39 435.8 380.63 435.05 379.92 433.48 379.79 432.46 379.92 431.51 380.44 429.98 380.58 429.19 380.41 428.24 379.97 427.32 375.68 421.3 374.88 420.64 374.31 420.44 373.31 420.28 372.85 420.12 372.46 419.85 371.98 419.4 371.37 418.59 368.57 413.73 367.93 413.18 367.59 413.03 367.28 413.09 366.7 413.56 366.3 413.76 365.77 413.87 365.2 413.84 364.66 413.47 364.17 412.8 362.35 408.67 362.03 408.19 361.57 407.82 360.95 407.23 358.99 404.78 358.16 403.96 357.23 403.34 356.48 402.7 355.64 401.78 354.73 400.36 353.13 398.58 352.67 397.91 352.36 397 352.23 394.52 352.3 393.55 352.59 391.97 357.4 384.79 358.32 381.85 357.06 378.88 355.05 375.95 352.62 373.52 350.27 371.87 346.47 370.15 341.53 367.34 325.23 352.21 377.25 352.42 377.25 352.42 377.88 354.39 378.37 355.12 379.4 355.25 380.49 354.99 381.42 354.89 381.94 355.52 382.52 355.21 383.12 355.15 384.46 355.12 384.74 354.95 385.57 354.63 386.17 354.61 385.74 355.33 385.7 356.18 386.8 360.98 387.57 362.19 387.85 363.72 388.82 365.64 389.24 366.86 389.57 368.36 389.6 369.86 389.15 371.08 390.62 374.33 390.91 375.51 390.8 376.43 390.26 378.32 390.21 379.31 390.3 380.43 390.56 381.48 390.98 382.25 391.83 382.86 393.71 383.76 394.23 384.45 395.45 384.05 396.49 384.36 397.35 384.89 398.04 385.17 398.44 385.27 398.85 385.56 399.18 385.96 399.31 386.43 399.6 386.79 401.5 387.37 401.95 387.82 402.54 389.17 403.08 389.95 403.84 390.77 404.14 391.65 404.02 395.29 404.64 398.81 404.94 399.29 405.42 399.36 405.84 399.57 406.14 399.85 406.25 400.18 406.19 400.52 405.89 401.01 405.82 401.27 405.93 401.58 406.4 402.2 406.55 402.57 407.04 404.69 407.96 406.7 409.36 408.37 411.23 409.41 415.81 410.23 417.67 410.17 418.47 410.46 418.95 410.27 421.19 409.74 422.06 409.69 422.75 409.55 423.33 409.33 424.43 408.69 425.03 408.24 425.51 407.68 425.7 407.07 426.12 407.24 427.08 407.32 428.17 407.24 428.99 406.89 430.07 407.7 431.5 407.61 434.88 406.84 435.18 406.72 435.42 406.54 435.51 406.36 435.62 405.85 435.91 405.66 436.27 405.59 436.59 405.45 437.42 404.49 437.97 404.01 438.72 403.64 439.33 405.18 444.09 404.84 445.24 405.81 445.78 405.52 446.24 405.43 446.56 405.64 446.68 406.2 447.04 406.2 447.56 405.88 448.02 406.18 448.35 406.78 448.48 407.42 448.36 408.15 448.06 408.75 447.4 409.74 447.68 409.89 447.89 410.02 448.12 410.11 448.48 410.14 447.63 410.42 447.2 410.48 446.68 410.46 447.41 411.19 448.37 411.33 449.03 411.58 448.87 412.65 448.3 413.46 447.44 414.1 446.47 414.38 445.6 414.1 445.2 414.6 444.31 416.19 444.15 416.82 444.04 417.96 443.55 419.72 443.43 420.79 443.03 421.67 441.28 423.14 440.88 424.42 441.11 425.61 442.12 427.65 442.35 428.78 443.19 430.68 445.12 431.56 448.87 432.21 450.28 432.93 450.58 433.19 451.14 433.81 451.4 434.02 451.64 434.06 452.24 433.97 452.48 434.02 453.15 434.65 453.2 434.74 455.03 435.46 454.53 436.16 455.36 436.35 455.57 436.34 454.92 436.74 452.38 437.77 436.61 442.17 436.13 442.09 434.25 441.42 433.38 441.24 432.14 441.21 431.42 441.34 430.87 441.55 429.99 442.21 429.66 442.56 429.42 442.9 429.2 443.34 428.94 444.22 428.88 444.62 428.92 446.45 Z" id="PNG-1256" data-name="Northern"/>
<path d="M 570.98 191.16 571.04 191.15 573.2 193.46 572.96 193.78 572.37 194.35 561.02 194.79 560.58 194.94 555.63 197.46 555.07 198.06 549.91 206.35 545.58 216.17 545.63 216.75 545.97 217.04 546.47 217.15 547.11 217.17 548.33 217.05 548.89 217.07 549.28 217.19 549.57 217.41 549.78 217.83 549.82 218.39 549.54 219.21 548.99 220.06 547.94 221.14 545.24 222.76 544.44 223.38 541.67 226.17 541.03 226.66 540.42 226.88 539.73 226.86 539.02 226.6 537.23 225.71 536.89 225.61 536.64 225.62 536.3 225.69 535.95 226.04 535.72 226.52 535.54 227.56 535.59 228.41 535.73 229.12 535.92 229.67 535.98 230.23 535.84 230.61 535.38 230.97 531.46 231.89 530.8 231.85 530.26 231.88 529.84 232.04 528.73 232.98 527.87 233.46 526.89 233.71 521.19 233.99 520.31 234.21 518.64 234.87 515.88 236.27 515.73 236.47 515.6 236.92 515.5 238.34 515.61 240.88 516.01 241.87 516.7 243.1 519.39 246.33 524 250.88 524.46 251.55 524.66 251.91 524.72 253.49 524.49 253.53 522.66 254.25 520.75 254.56 520.29 254.78 519.72 255.25 519.44 255.23 519.23 254.88 518.87 254.42 518.1 254.4 517 254.96 515.98 255.76 515.41 256.44 515.26 256.34 515.18 256.34 515.13 256.31 515.05 256.05 513.16 257.91 512.02 258.66 510.89 258.97 510.44 259.26 509.15 260.64 508.56 261.1 506.25 261.74 504.88 261.88 504 261.64 503.39 261.37 502.84 261.59 502.33 261.98 501.83 262.18 501.67 262.06 501.56 261.82 501.42 261.57 501.11 261.46 500.97 261.51 500.55 261.75 498.42 262.21 497.04 262.31 496.08 262 495.6 261.18 495.27 260.88 494.13 260.65 493.81 260.41 493.4 260.25 492.64 260.34 491.74 260.95 490.62 261.92 489.47 262.61 488.48 262.36 488.35 262.12 488.3 261.85 488.32 261.28 488.2 260.98 487.94 260.82 487.64 260.72 486.86 260.24 486.51 260.51 486.12 261.46 486.01 261.54 485.4 261.82 486.03 262.36 485.97 262.88 485.44 263.3 484.65 263.59 484.82 262.82 484.6 262.01 484.1 261.36 483.42 261.1 482.7 261.23 481.77 261.59 480.81 262.17 479.97 262.9 479.33 262.2 478.79 262.04 478.3 262.14 477.8 262.18 476.37 262.09 476.04 262.18 474.67 261.94 469.64 261.82 469.28 261.98 468.3 262.71 467.68 262.9 466.41 262.65 465.58 262.6 464.77 262.9 464.45 262.43 462.43 260.94 461.87 260.35 461.56 259.76 460.8 258.57 460.03 256.98 456.99 252.97 455.72 252.05 450.67 250.64 449.67 249.99 449.05 249.69 448.15 249.53 447.29 249.73 445.96 250.74 445.42 250.97 444.97 251.09 443.7 251.58 442.88 251.7 441.22 251.64 440.58 251.43 440.16 250.97 439.83 250.97 439.95 251.74 439.7 252.73 439.24 253.67 438.72 254.25 437.98 254.51 435.87 254.58 435.48 254.81 434.67 255.18 434.02 255.17 434.03 254.25 434.48 254 435.12 254.09 435.48 253.99 435.11 253.17 435.46 252.44 435.09 251.43 434.21 250.57 432.98 250.25 433.5 249.38 434.11 248.66 434.42 247.92 434.03 246.98 433.61 248.01 433.15 248.11 432.6 247.92 431.86 248.09 427.85 246.46 425.64 245.88 424.27 246.26 423.87 245.94 423.51 245.57 423.78 245.09 424.11 244.67 424.5 244.34 424.99 244.09 424.64 243.61 424.32 243.54 423.97 243.56 423.51 243.37 423.31 243.04 423.29 242.68 423.16 242.41 422.63 242.29 420.91 242.16 420.28 242.34 419.58 243.01 419.19 242.65 419.56 241.87 419.52 241.19 419.31 240.56 419.19 239.95 418.79 239.39 417.93 239.35 417.07 239.42 416.67 239.22 416.34 238.59 415.58 238.5 414.11 238.66 413.24 238.22 412 236.98 411.23 236.49 409.98 237.57 409.24 238.08 408.54 238.29 407.56 238.03 405.96 236.69 405.11 236.13 404 235.92 401.52 235.75 400.58 235.23 400.08 235.02 399.41 234.97 398.83 234.76 398.59 234.15 396.74 232.17 395.81 229.94 395.58 227.97 396.5 222 397.43 220.13 398.86 218.58 400.75 217.69 401.01 217.64 401.06 217.6 401.05 217.53 401.14 217.33 401.98 217.65 402.6 217.96 403.84 218.96 404.26 219.2 405.17 219.39 405.64 219.7 405.91 220.12 406.18 221.09 406.4 221.5 407.81 222.35 409.37 222.05 410.89 221.03 412.17 219.7 412.85 219.24 413.57 219.3 415.19 219.88 417.04 219.73 417.71 219.88 418.22 220.26 418.73 220.79 419.36 221.31 420.27 221.68 422.4 222.03 423.19 222.41 423.28 221.74 423.6 221.41 424.63 220.96 425.46 220.3 425.79 220.22 426.61 220.21 427.32 220.01 430.07 218.41 434.15 220.18 434.79 220.79 435.7 220.87 439.66 222.67 440.36 223.13 440.8 223.14 441.14 223.2 441.44 223.37 441.78 223.69 442.42 224.64 442.35 224.6 442.82 225.23 443.07 225.49 449.72 224.74 451.04 224.21 451.84 224.85 452.51 224.63 453.16 224 453.95 223.49 454.3 224.03 454.88 224.53 455.46 224.6 455.75 223.88 457.21 224.81 457.56 224.93 458.08 224.48 458.56 223.07 459.18 222.77 460.15 222.55 463.69 220.96 463.83 221.26 464.01 221.4 464.21 221.5 464.44 221.68 464.73 221.26 465.17 221.03 465.69 221.03 466.24 221.32 466.73 220.85 466.93 220.29 466.87 219.7 466.6 219.13 466.86 219.11 466.91 219.19 466.91 219.35 466.96 219.53 467.43 219.62 467.74 220.4 467.8 221.42 467.29 223 467.86 223.51 468.67 223.81 469.15 223.88 469.86 223.62 470.36 223.24 470.93 222.91 471.84 222.77 472.29 222.57 472.76 222.08 473.08 221.37 473.08 220.61 473.45 220.61 475.22 221.64 477.3 221.7 479.34 221.04 481.04 219.88 481.59 219.22 482.97 216.98 483.24 216.06 483.06 215.43 482.59 215.2 481.99 215.09 481.41 214.81 480.96 214.3 480.13 212.92 479.61 212.28 479.97 211.76 480.39 210.64 480.68 210.09 480.97 209.76 481.62 209.2 481.98 208.83 482.77 208.22 483.8 207.67 484.77 206.92 485.4 205.73 485.45 205.15 485.37 204.61 485.04 203.6 484.94 203.56 484.32 203.21 484.31 202.83 484.58 202.25 484.77 201.32 485.28 200.37 485.4 199.78 485.28 199.48 484.77 199.03 484.65 198.73 484.71 198.37 484.84 198.2 484.97 198.09 485.86 195.67 487.65 194.49 489.95 194.26 492.28 194.92 493.45 195.5 494.04 195.89 494.44 196.36 494.7 197.13 494.54 197.58 494.24 197.91 494.09 198.34 493.62 199.26 492.5 199.79 490.12 200.36 489.17 201.04 487.99 202.25 487.28 203.41 488.17 204.48 488.4 205.74 488.45 207.1 488.32 207.93 487.94 208.24 486.92 208.44 486.48 208.65 485.83 209.19 485.7 209.43 486.66 210.28 486.9 210.77 487.08 211.95 488.43 214.09 489.95 217.19 490.12 217.89 490.18 218.87 490.41 220 490.84 221.13 491.53 222.04 492.53 222.71 493.63 223.02 497.27 223.29 498.33 223.6 499.31 223.76 500.21 223.49 500.6 222.95 501.04 222.1 501.56 221.31 502.2 220.96 502.94 220.68 504.55 219.42 505.09 219.13 505.75 218.3 506.01 218.08 506.36 217.95 509.04 217.5 510.06 217.47 511.03 217.65 514.18 218.87 515.29 219.56 515.77 220.41 516 221.41 516.6 222.53 517.47 223.24 518.5 222.95 519.33 222.5 521.14 222.35 521.96 222.04 523.41 220.88 524.05 220.1 524.49 219.13 524.18 218.46 524.33 217.95 524.74 217.76 525.17 218.08 526.74 217.25 528.2 217.76 529.39 218.89 530.22 219.88 531.83 219.72 532.41 219.53 532.8 219.21 533.66 218.08 534.73 217.8 535.83 217.12 536.79 216.28 537.46 215.52 537.97 214.45 538.06 213.35 537.85 211 537.96 209.89 538.56 207.52 539.93 204.42 541.17 202.5 542.55 200.86 543.98 199.6 544.33 199.41 545.11 199.12 545.46 198.91 546.43 197.64 547.23 197.1 548.7 194.92 549.42 194.2 549.57 194.17 549.99 194.23 550.14 194.2 550.16 194.05 550.1 193.61 550.14 193.47 550.62 193.27 552.02 192.87 552.5 192.56 552.94 192.16 553.59 191.75 554.33 191.44 555.03 191.31 555.69 191.03 555.96 190.34 556.27 188.76 556.63 188.76 557.28 189.34 560.62 190.23 561.78 190.7 562.79 190.82 563.8 190.45 564.98 189.45 567.11 190.56 569.12 192.04 570.16 191.8 570.98 191.16 Z M 547.14 191.31 545.83 191.54 544.88 191.39 544.45 191.04 543.74 190.59 543.1 189.93 543.21 189.32 544 188.64 544.39 188.37 545.25 187.95 546.06 187.89 546.74 188.13 547.66 188.66 548.58 189.54 548.58 190.33 547.71 191.08 547.14 191.31 Z M 440.6 188.26 439.47 189.84 438.78 189.51 438.07 189.04 437.59 188.43 437.66 187.68 438.07 187.38 440.16 186.59 440.75 187.47 440.6 188.26 Z M 460.21 175.89 460.88 176.58 461.16 177.36 461.1 178.24 460.99 178.69 460.8 178.96 460.34 179.07 460.15 178.81 460.04 178.4 459.9 178.08 459.5 177.52 459.26 176.9 458.93 176.37 458.28 176.08 457.49 176.24 457.22 176.77 457.48 177.33 458.28 177.55 457.95 177.99 457.53 178.24 456.47 178.63 455.22 177.62 455.81 176.46 457.27 175.48 458.64 175.03 459.38 175.35 460.21 175.89 Z" fill-rule="evenodd" id="PNG-1257" data-name="West New Britain"/>
</g>
</svg>