<?xml version="1.0"?>
<svg xmlns="http://www.w3.org/2000/svg" version="1.2" baseProfile="tiny" width="800" height="804" viewBox="0 0 800 804" stroke-linecap="round" stroke-linejoin="round">
<g id="ne_10m_admin_1_states_provinces">
<path d="M 159.7 396.7 159.51 397.18 159.09 396.81 159.58 396.27 159.7 396.7 Z M 214.12 398.57 215.78 399.01 219.03 399.35 219.96 400.4 220.43 402.24 220.13 404.04 218.75 404.97 218.1 404.87 215.88 404.26 215.26 403.98 213.93 402.3 212.89 400.49 212.52 399.09 212.33 398.82 211.94 398.81 211.74 399.11 211.59 399.48 211.36 399.66 210.54 399.77 208.16 400.49 207.28 400.55 206.63 400.44 205.36 399.96 203.04 399.61 202.58 399.35 201.86 396.93 201.59 396.57 201.2 396.3 200.81 395.61 200.49 394.78 200.35 394.04 200.73 392.11 201.89 390.99 203.53 390.34 205.36 389.87 207.16 389.69 209.01 390 210.72 390.67 212.08 391.57 212.49 392 212.84 392.54 213.08 393.19 213.17 393.92 213.05 396.6 213.17 397.44 214.12 398.57 Z M 194.51 389.09 193.73 390.89 193.01 391.96 192.18 392.69 191.4 392.66 190.45 392.19 189.28 391.37 188.32 390.44 188.04 389.62 188.46 389.18 189.22 388.86 189.94 388.81 190.26 389.18 190.43 389.6 190.76 389.61 191.07 389.44 191.15 389.32 191.47 389.25 191.74 389.09 192.06 389.04 192.51 389.32 192.63 388.83 192.98 388.57 193.48 388.49 194.06 388.49 194.49 388.67 194.51 389.09 Z M 203.19 369.06 202.6 369.59 202.6 369.44 202.63 369.31 202.73 369.05 203.05 368.91 203.2 368.86 203.36 368.85 203.19 369.06 Z" fill-rule="evenodd" id="PYF-4963" data-name="Windward Islands"/>
<path d="M 26.12 362.72 25.95 362.72 25.59 362.2 25.18 360.92 24.88 360.36 25.19 360.39 25.41 360.59 25.53 360.91 25.56 361.33 25.78 361.71 26.01 362.28 26.12 362.72 Z M 145.88 361.44 145.71 361.8 145.34 361.71 145.26 361.98 145.09 362.16 144.85 362.26 144.51 362.27 143.77 361.68 143.52 361.41 143.42 361.02 143.64 360.49 144.12 360.32 144.6 360.29 144.81 360.17 144.95 359.83 145.28 359.87 145.65 360.17 145.9 360.6 145.93 360.94 145.88 361.44 Z M 130.22 364.13 128.72 364.9 128.19 365.05 127.77 364.76 127.56 364.76 127.47 365.18 127.37 365.4 127.11 365.55 126.76 365.62 126.39 365.61 125.59 365.08 125.17 363.72 124.9 359.98 125.04 359.4 125.55 358.91 126.13 358.84 126.86 359 127.51 359.3 127.78 359.61 128.24 360.6 130.69 363.81 130.22 364.13 Z M 143.66 359.9 143.12 360.04 142.88 359.54 142.85 359.06 142.95 358.58 143.33 357.58 143.62 357.12 143.87 357.05 143.98 357.68 144.74 359 144.66 359.22 144.38 359.34 144.07 359.62 143.66 359.9 Z M 125.64 352.89 125.55 353.04 126.33 353.01 126.74 353.06 126.92 353.18 126.97 353.37 127.18 353.66 127.22 353.88 127.08 354.09 126.8 354.27 126.39 354.46 126.32 355.77 126.18 356.3 125.8 356.13 125.48 355.93 123.27 354.98 123.04 354.77 123.02 354.55 123.22 353.07 123.72 352.59 124.58 352.47 125.8 352.49 125.64 352.89 Z M 114.57 349.38 114.63 350.27 113.99 350.26 113.41 349.69 113.1 348.92 113.27 348.32 113.94 348.08 114.36 348.55 114.57 349.38 Z M 94.36 346.92 93.88 347.22 93.59 347.06 93.67 346.83 94.36 346.92 Z M 1.72 321.65 1.47 321.83 1.33 321.81 1.56 321.49 1.67 321.05 1.61 320.72 1.38 320.49 1 320.38 1.5 320.27 1.73 320.52 1.8 320.96 1.84 321.41 1.72 321.65 Z" fill-rule="evenodd" id="PYF-4964" data-name="Leeward Islands"/>
<path d="M 798.69 617.88 797.31 619.58 796.87 619.52 796.49 619.39 795.89 619.03 795.89 618.72 796.76 618.67 798.08 617.62 799 617.34 798.69 617.88 Z M 748.8 574.42 748.38 574.61 749.29 573.76 749.28 573.87 749.2 574.2 748.8 574.42 Z M 639.9 567.96 636.53 567.96 637.36 567.66 638.19 567.74 639.03 567.93 639.9 567.96 Z M 568.46 561.26 567.36 561.87 566.23 561.5 565.52 560.54 565.68 559.32 566.44 558.83 567.22 559.39 568.46 561.26 Z M 777.56 553.23 778.05 553.98 775.26 552.32 776.16 552.42 776.93 552.71 777.56 553.23 Z M 740.48 551.18 740.59 551.55 740.22 551.36 739.83 551.33 739.46 551.43 739.11 551.68 739.46 551.22 740.01 551.06 740.48 551.18 Z M 734.39 546.73 733.83 547.13 734.19 546.69 734.13 546.42 733.86 546.28 733.58 546.2 734.28 545.97 734.54 546.25 734.39 546.73 Z M 729.97 546.05 730.04 546.39 729.61 545.81 729.41 545.63 729.73 545.63 729.89 545.77 729.97 546.05 Z M 725.8 545.51 725.72 545.52 725.53 545.36 725.62 545.34 725.77 545.39 725.86 545.4 725.8 545.51 Z M 725.87 544.68 726.13 544.95 726.26 545.43 726.17 545.4 726.13 545.34 726.11 545.26 726.04 545.19 725.85 545.04 725.72 544.88 725.58 544.84 725.32 545.04 725.57 544.68 725.87 544.68 Z M 627.88 524.51 627.75 524.54 628.24 524.32 628.26 524.32 628.01 524.46 627.88 524.51 Z M 652.4 523.53 653.33 524.93 653.61 526.68 652.71 527.47 653.34 526.82 653.43 526.34 652.48 523.92 652.32 523.71 652.09 523.62 651.35 523.85 651.52 523.72 651.92 523.56 652.14 523.52 652.4 523.53 Z M 576.78 477.98 576.25 478.06 576.88 477.54 577.3 477.1 577.17 476.64 576.18 476.04 576.45 475.87 576.95 476.09 577.44 476.5 577.69 476.94 577.61 477.44 577.27 477.78 576.78 477.98 Z M 625.79 465.27 625.41 465.65 625.53 465.31 625.46 465.12 625.42 464.93 625.31 464.76 625.02 464.65 625.51 464.66 625.79 464.91 625.79 465.27 Z M 642.25 462.59 642.05 462.85 641.67 462.79 641.53 462.73 641.42 462.58 641.82 462.51 642.14 462.5 642.25 462.59 Z M 542.66 458.91 543.05 459.51 542.93 460.28 542.8 459.65 542.43 459.26 541.94 459.15 541.48 459.32 542.04 458.75 542.66 458.91 Z M 564.69 455.89 565.75 456.39 566.13 457.23 565.11 457.61 565.76 456.84 565.29 456.41 564.37 456.29 563.65 456.47 564.69 455.89 Z M 642.19 441.82 642.19 442.02 640.7 441.25 640.98 441.27 641.27 441.31 641.85 441.46 642.11 441.7 642.19 441.82 Z M 737.27 429.21 738.6 429.66 739.83 430.43 740.38 431.07 742.49 431.79 743.54 432.52 743.16 433.4 743.18 433.33 743.21 433.15 743.2 432.87 743.08 432.55 742.83 432.24 742.46 431.99 741.96 431.78 740.72 431.42 740.35 431.26 740.11 431.08 739.89 430.83 739.55 430.53 737.67 429.52 737.17 429.39 737 429.62 737.01 429.93 737.04 430.09 736.9 429.92 736.81 429.76 736.69 429.62 736.46 429.52 737.27 429.21 Z M 565.41 426.71 565.68 427.29 565.56 427.15 565.31 426.68 564.73 426.2 562.41 425.12 561.68 424.56 561.31 424.13 561.2 423.95 562.25 424.7 565.06 426.2 565.41 426.71 Z M 715.93 423.98 716.39 425.04 712.47 421.14 713.5 421.6 714.81 422.7 715.93 423.98 Z M 559.24 418.05 559.54 419.18 558.49 417.73 556.57 416.37 555.66 414.7 555.16 414.19 553.39 412.75 553.76 413.01 555.37 413.75 556.45 415.56 557.31 416.43 558.37 417.2 559.24 418.05 Z M 467.92 403.8 468.42 404.83 468.41 404.91 468.22 404.75 468 404.4 467.9 403.96 467.7 404.28 467.51 404.5 467.31 404.54 467.11 404.32 467.57 403.68 467.92 403.8 Z M 560.63 404.71 559.97 404.72 559.33 404.6 558.95 404.38 558.89 403.92 559.07 403.38 559.54 402.44 560.37 401.61 561.18 400.18 562.67 399.29 565.68 397.99 566.49 397.44 567.6 397.56 567.8 398.35 567.45 399.24 566.64 399.87 565.4 401.35 563.43 402.44 562.17 403.44 561.06 404.54 560.63 404.71 Z M 488.86 393.98 488.07 394.88 488.57 394.08 485.55 391.27 486.65 391.85 488.07 392.86 488.86 393.98 Z M 453.68 387.58 454.02 388.18 453.03 387.45 451.52 387.1 452.27 387.06 453.04 387.21 453.68 387.58 Z M 372.89 387.61 373.91 389.32 371.69 386.56 372.33 386.96 372.89 387.61 Z M 534.59 385.19 534.6 385.43 534.53 385.29 534.53 385.16 534.46 384.56 534.3 384.24 533.83 383.92 533.28 383.78 532.69 383.77 533.55 383.62 534.19 383.9 534.55 384.53 534.56 384.67 534.59 385.19 Z M 656.26 384.3 656.51 384.49 655.71 384.46 655.62 384.23 655.61 384.11 655.73 383.84 656.3 383.12 657.14 382.8 655.97 383.82 655.81 384.11 655.85 384.19 656.02 384.22 656.26 384.3 Z M 365.26 382.8 365.85 385.17 365.52 384.66 365.33 384.14 365.24 383.54 365.26 382.8 Z M 468.34 369.94 468.11 369.98 467.88 369.95 467.65 369.87 467.41 369.76 467.04 369.49 466.88 369.34 466.74 369.17 467.18 369.15 467.61 369.3 468.01 369.58 468.34 369.94 Z M 426.88 358.06 427.57 358.61 427.94 359.38 428.06 359.78 427.58 359.33 427.06 358.59 426.43 358.24 425.63 358.97 425.6 358.79 425.64 358.65 425.79 358.33 426.88 358.06 Z M 422.94 355.54 423.23 356.02 422.89 355.88 422.57 355.7 421.96 355.25 422.07 355 422.47 355.14 422.94 355.54 Z M 452.92 354.13 453.75 354.73 455.13 356.13 452.37 354.28 450.25 354.39 448.44 354.18 451.94 353.88 452.92 354.13 Z M 446.04 354.5 447.6 354.74 445.6 354.59 443.98 353.37 442.29 352.49 443.73 352.81 446.04 354.5 Z M 437.35 349.88 437.56 350.82 437.41 350.74 436.3 348.92 435.03 347.96 433.64 347.47 432.82 347.18 432.97 347.17 433.79 347.39 435.13 347.57 435.76 347.87 436.95 349.15 437.35 349.88 Z M 419.9 347.63 419.69 348.32 419.6 347.49 419.51 347.21 418.28 345.79 418.91 346.18 419.54 346.86 419.9 347.63 Z M 412.74 341.98 412.72 342.15 413.35 341.93 414 342.06 414.57 342.38 414.94 342.71 413.6 342.25 412.79 342.4 412.44 341.87 412.69 341.9 412.74 341.98 Z M 335.29 334.45 334.88 335.47 333.73 335.31 332.73 334.84 332.31 334.14 332.91 333.25 334.05 332.93 334.93 333.46 335.29 334.45 Z M 369.29 342.5 369.77 343.01 368.95 342.55 367.84 340.23 366.88 339.11 365.92 337.1 365.37 335.02 364.71 334.11 364.41 332.11 364.53 332.81 364.83 333.74 365.24 334.56 365.7 334.92 365.91 335.4 366.27 337.5 366.52 337.98 366.64 338.33 368.35 340.2 369.29 342.5 Z M 364.41 331 360.54 331.31 362.63 330.58 363.7 330.41 364.41 331 Z M 491.99 329.61 490.02 333.25 490.33 332.27 490.83 331.25 491.42 330.32 491.99 329.61 Z M 587.93 326.94 588.68 327.24 588.56 327.92 588.27 327.28 587.21 327.24 586.03 327.92 586.87 327.12 587.93 326.94 Z M 380.45 324.71 382.58 326.83 379.8 324.3 380.45 324.71 Z M 352.81 323.89 352.8 324.29 350.7 322.31 352.17 323.29 352.81 323.89 Z M 558.03 321.51 557.22 322.26 556.84 322.22 556.59 322.04 556.57 321.79 556.84 321.5 557.96 321.33 558.33 321.33 558.03 321.51 Z M 257.51 323.3 257.01 323.45 256.16 322.87 255.85 321.94 256.01 321.11 256.56 320.8 256.74 321.02 257.2 321.99 257.5 322.31 257.87 322.66 257.83 323.02 257.51 323.3 Z M 329.07 321.54 329.06 321.8 328.7 321.04 328.48 320.68 328.2 320.36 328.37 320.46 328.86 320.84 329.03 321.31 329.07 321.54 Z M 387.02 323.79 387.06 324.86 386.3 323.09 384.12 319.8 382.86 318.99 383.97 319.2 384.62 319.91 385.64 321.77 386.68 323 387.02 323.79 Z M 404.87 318.54 404.42 318.88 403.99 318.87 403.71 318.63 403.59 318.26 403.67 317.86 404.37 317.79 404.81 318.09 404.87 318.54 Z M 371.79 308.02 371.58 308.33 370.78 307.74 368.07 307.28 367.03 306.53 369.8 307.46 370.84 307.65 371.33 307.65 371.68 307.79 371.79 308.02 Z M 340.78 302.76 340.42 303.96 340.59 303.18 340.69 302.27 340.61 301.91 340.39 301.62 340.24 301.5 339.84 301.3 339.97 301.28 340.34 301.47 340.52 301.55 340.67 301.79 340.83 302.22 340.78 302.76 Z M 324.13 298.58 324.34 299.18 323.84 298.56 323.4 297.89 322.66 297.59 323.28 297.69 323.77 298.05 324.13 298.58 Z M 298.24 297.7 298.29 298.07 298.11 297.85 297.93 297.76 297.74 297.69 297.52 297.59 298.09 297.58 298.24 297.7 Z M 277.41 297.43 277.94 297.7 276.23 296.93 276.43 296.81 276.87 297.05 277.41 297.43 Z M 287.9 291.83 289.26 293.06 287.1 291.38 286.34 290.93 287.15 291.29 287.9 291.83 Z M 269.81 290.82 270 291.41 269.9 291.25 269.81 291.13 269.76 291.01 269.81 290.82 Z M 264.99 286.49 265.37 288.03 265.02 287.49 264.53 286.94 263.8 286.29 262.72 285.69 260.06 284.94 261.77 285.07 263.6 285.54 264.99 286.49 Z M 241.87 283.14 241.65 283.83 240.84 282.9 239.1 282.16 240.04 282.28 241.14 282.62 241.87 283.14 Z M 379.24 274.71 379.03 275.63 379.9 275.42 381.47 274.35 381.04 274.89 380.33 275.43 379.52 275.84 378.8 276 378.66 275.5 379.1 274.4 380.06 272.66 379.24 274.71 Z M 339.06 266.91 338.22 267.65 338.67 266.78 338.93 265.96 337.64 265.13 338.78 265.28 339.24 266 339.06 266.91 Z M 350.98 265.39 350.52 265.46 350.06 265.44 351.4 265.21 351.84 265.06 351.42 265.25 350.98 265.39 Z M 394.31 264.16 394.27 264.58 394.16 264.8 393.37 265.4 392.06 266.12 391.66 266.26 391.26 266.53 389.99 267.78 389.28 268.21 391.26 266.27 393.05 265.29 393.97 264.42 392.95 264.83 391.21 264.99 389.28 265.43 390.02 265 390.95 264.75 392.76 264.6 393.59 264.18 394.09 264.01 394.31 264.16 Z M 355.39 261.35 354.93 262.34 355.09 261.51 354.38 261.41 352.17 261.51 354.45 261.13 355.39 261.35 Z M 545.21 255.11 545.01 255.39 544.61 255.14 543.65 254.11 544.06 254.32 545.21 255.11 Z" fill-rule="evenodd" id="PYF-4965" data-name="Tuamotu-Gambier"/>
<path d="M 417.4 802.91 416.96 802.95 416.36 802.65 416.02 801.9 415.97 800.69 416.31 799.62 417.19 799.29 417.99 799.77 418.33 800.06 418.58 800.43 418.4 800.63 417.86 801.09 417.75 801.26 417.77 801.3 417.91 802.09 418.02 802.12 417.74 802.6 417.4 802.91 Z M 280.71 649.44 279.49 649.69 278.93 649.66 278.46 649.44 278.46 649.16 279.21 648.9 279.94 648.74 281.57 648.62 281.43 648.9 281.25 649.12 281 649.29 280.71 649.44 Z M 207.64 630.05 205.82 630.24 205.38 630.02 205.13 629.57 205.05 628.92 205.27 628.71 205.78 628.58 206.89 628.51 207.91 628.81 208.14 629.45 207.64 630.05 Z M 130.03 594.1 129.91 594.16 129.72 594.15 129.56 593.11 129.12 592.12 128.88 591.21 129.29 590.41 129.67 590.44 130.08 590.89 130.42 591.43 130.55 591.8 130.49 592.82 130.28 593.9 130.03 594.1 Z" fill-rule="evenodd" id="PYF-4966" data-name="Austral Islands"/>
<path d="M 648.56 106.57 647.15 106.9 646.57 106.56 646.26 105.91 646.22 105.17 646.82 103.77 646.74 103.15 646.04 101.85 647.41 101.89 648.01 102.05 648.57 102.43 649.23 103.7 649.24 105.29 648.56 106.57 Z M 628.95 84.49 628.45 85.09 627.91 84.4 627.96 83.63 628.11 82.83 627.89 82.06 628.32 81.57 628.86 80.59 629.54 79.93 630.42 80.39 630.95 80.57 631.5 80.95 631.83 81.33 631.68 81.5 631.53 81.57 631.42 81.73 631.34 81.92 631.25 82.06 631.06 82.18 630.65 82.23 630.42 82.33 629.87 82.92 628.95 84.49 Z M 638.78 74.48 639.2 74.53 639.66 74.45 639.96 74.26 640.19 74.07 640.43 73.94 641.34 73.88 641.16 74.25 639.1 76 638.17 76.37 637.17 76.61 635.58 76.75 633.39 76.71 632.92 76.6 632.7 76.48 632.22 76.44 631.75 76.48 631.53 76.6 631.53 77.86 631.25 78.54 630.86 78.57 630.29 78.33 628.63 77.97 627.93 77.52 627.38 76.96 627.05 76.47 626.83 75.94 626.72 75.29 626.87 74.75 628.13 74.34 631.68 72.32 633.14 72.04 634.4 72.25 634.89 73.11 635.35 73.64 636.1 73.99 636.98 74.19 637.81 74.25 638.78 74.48 Z M 590.85 57.86 591.36 58.05 591.92 57.76 591.39 58.99 591.05 60.38 590.48 61.51 589.26 61.98 588.51 61.59 586.58 58.9 587.36 58.33 588.1 57.62 588.9 57.05 589.92 56.93 590.85 57.86 Z M 610.05 38.42 610.38 38.47 611.03 38.25 611.49 38.35 612.82 39.03 613.28 39.65 613.06 40.18 612.45 40.56 611.71 40.75 609.92 40.88 609.21 41.19 608.65 41.89 608.82 41.28 608.6 40.7 608.27 40.13 608.09 39.5 609.46 37.97 609.76 37.97 610.05 38.42 Z M 584.22 34.84 589.39 35.69 590.64 35.69 590.95 35.63 591.52 35.3 591.92 35.16 591.91 35.36 591.84 35.47 591.73 35.56 591.44 35.9 591.03 36.56 592.14 37.52 592.39 38.03 592.47 38.92 592.26 39.54 591.77 39.46 590.78 38.81 590.58 39.69 589.92 40.3 589.13 40.46 588.56 39.92 588.25 39.92 587.75 40.35 586.12 40.88 585.77 41.18 585.58 41.87 585.13 41.74 584.61 41.29 583.77 40.79 583.48 40.21 583.06 38.34 582.97 37.54 582.88 37.19 582.5 36.85 582.41 36.56 582.95 35.08 584.22 34.84 Z M 564.22 4.65 563.81 4.71 563.43 4.18 563.4 2.68 564.28 1.53 565.63 1 567.04 1.39 566.45 1.84 566.23 1.95 565.53 2.08 565.19 2.43 564.84 3.64 564.58 4.21 564.22 4.65 Z" fill-rule="evenodd" id="PYF-4967" data-name="Marquesas Islands"/>
</g>
</svg>