<?xml version="1.0"?>
<svg xmlns="http://www.w3.org/2000/svg" version="1.2" baseProfile="tiny" width="800" height="612" viewBox="0 0 800 612" stroke-linecap="round" stroke-linejoin="round">
<g id="ne_10m_admin_1_states_provinces">
<path d="M 467.03 444.52 463.33 448.08 459.88 453.49 460.24 465.51 478.53 458.07 480.53 468.29 476.29 479.06 462.91 499.03 458.79 510.43 455.52 534.62 451.04 543.2 397.14 594.62 369.53 610.66 345.43 607.88 342.52 603.24 338.16 588.71 335.32 582.7 330.65 578.23 318.24 569.5 281.42 535.5 273.06 524.26 267.31 512.8 255.14 475.76 247.75 468.02 236.91 467.39 212.93 471.68 187.31 466.63 167.33 465.22 164.61 459.86 163.58 451.1 165.45 447.66 173.63 440.53 175.57 434.9 171.57 408.74 163.58 396.7 163.58 380.37 159.03 363.95 155.58 357.52 149.41 350.71 147.47 346.88 146.92 342.26 145.59 338.35 141.35 336.72 132.33 336.48 128.7 334.71 124.21 322.7 117.31 318.2 102.9 312.69 83.76 297.8 71.41 291.36 39.31 286.44 1 268.21 149.2 273.17 193.11 264.85 233.6 242.08 291.42 221.28 296.38 235.36 302.16 248.78 311.15 257.95 318.72 267.82 329.5 269.23 343.01 270.03 350.64 281.93 347.88 299.75 351.39 314.39 369.65 325.7 383.13 339.1 395.75 354.96 409.95 368.72 421.25 382.67 430.42 399.77 434.99 417.67 445.92 432.93 465.51 443.69 466.85 444.42 467.03 444.52 Z" id="BRN-1181" data-name="Belait"/>
<path d="M 437.16 192.37 437.08 192.17 433.05 182.27 437.48 163.39 439.41 150.51 444.53 138.7 446.8 123.71 448.04 107.65 447.13 93.83 545.68 34.19 621.49 2.81 636.18 1 647.24 5.29 648.1 12.92 639.57 18.93 621.26 27.11 616.39 35 606.66 58.29 604.95 65.3 600.99 73.33 582.78 90.19 576.91 99.51 563.55 112.85 561.68 121.86 561.19 131.66 557.38 140.6 548.05 146.34 537.76 146.59 526.98 144.77 516.26 144.19 503.12 147.8 492.52 154.44 473.63 172.46 463.7 178.71 442.2 187.72 437.16 192.37 Z" id="BRN-1182" data-name="Brunei and Muara"/>
<path d="M 673.28 88.12 673.65 101.53 679.04 107 686.85 110.69 694.42 115.82 709.13 136.7 747.41 247.34 749.95 261.23 749.04 271.38 744.32 294.54 744.01 317.6 747.28 342.32 754.98 365.35 768.48 383.32 789.07 402.67 797.55 415.2 799 427.34 790.52 436.59 777.68 436.11 764.12 430.19 753.52 423.12 748.37 421.21 737.11 421.66 730.99 419.08 721.85 411.4 716.95 409.64 699.44 411.4 687.21 408.77 653.85 396.4 646.09 391.2 641.43 382.89 634.41 325.15 627.56 302.06 608.43 256.44 603.34 233.71 600.98 186.05 605.08 139.6 605.09 139.61 615.82 150.63 626.55 143.76 638.14 130.82 651.25 123.88 663.93 121.21 664.31 114.37 659.31 105.19 655.87 95.41 657.16 90.91 660.98 88.62 666.46 87.93 673.09 88.12 673.28 88.12 Z" id="BRN-1183" data-name="Temburong"/>
<path d="M 437.16 192.37 436.45 193.03 436.08 202.71 440.44 213.58 451.77 235.19 455.16 247.31 457.16 260.3 460 328.77 463.51 350.21 473.99 366.54 485.5 370.72 494.16 369.3 498.52 372.16 497.18 388.93 491.79 411.13 487.43 420.94 481.14 430.91 467.03 444.52 466.85 444.42 465.51 443.69 445.92 432.93 434.99 417.67 430.42 399.77 421.25 382.67 409.95 368.72 395.75 354.96 383.13 339.1 369.65 325.7 351.39 314.39 347.88 299.75 350.64 281.93 343.01 270.03 329.5 269.23 318.72 267.82 311.15 257.95 302.16 248.78 296.38 235.36 291.42 221.28 291.43 221.27 311.84 213.93 324.15 201.84 333.16 184.89 354.33 163.43 425.14 107.14 447.12 93.84 447.13 93.83 448.04 107.65 446.8 123.71 444.53 138.7 439.41 150.51 437.48 163.39 433.05 182.27 437.08 192.17 437.16 192.37 Z" id="BRN-1184" data-name="Tutong"/>
</g>
</svg>